<svg width="250" height="250" viewBox="0 0 250 250" fill="none" xmlns="http://www.w3.org/2000/svg">
<path d="M125 248.998C193.483 248.998 249 193.481 249 124.998C249 56.5147 193.483 0.998047 125 0.998047C56.5167 0.998047 1 56.5147 1 124.998C1 193.481 56.5167 248.998 125 248.998Z" fill="url(#paint0_linear_242_94940)"/>
<path d="M179.251 174.398L137.301 73.048C134.951 67.798 131.401 65.248 126.801 65.248H123.101C118.451 65.248 114.951 67.798 112.601 73.048L94.351 117.198H80.551C76.451 117.248 73.051 120.548 73.051 124.698V124.798C73.101 128.898 76.451 132.298 80.551 132.298H87.951L70.551 174.398C70.251 175.348 70.051 176.298 70.051 177.298C70.051 179.648 70.801 181.498 72.101 182.948C73.401 184.398 75.301 185.098 77.651 185.098C79.201 185.048 80.701 184.598 81.951 183.648C83.301 182.698 84.201 181.398 84.951 179.848L104.151 132.298H117.451C121.551 132.248 124.951 128.948 124.951 124.798V124.598C124.901 120.498 121.551 117.098 117.451 117.098H110.351L125.001 80.648L164.901 179.848C165.651 181.398 166.551 182.748 167.901 183.648C169.151 184.598 170.701 185.048 172.201 185.098C174.551 185.098 176.401 184.398 177.751 182.948C179.101 181.498 179.801 179.648 179.801 177.298C179.801 176.298 179.651 175.298 179.251 174.398Z" fill="white"/>
<defs>
<linearGradient id="paint0_linear_242_94940" x1="217.463" y1="47.2095" x2="32.9452" y2="202.458" gradientUnits="userSpaceOnUse">
<stop stop-color="#B6509E"/>
<stop offset="1" stop-color="#2EBAC6"/>
</linearGradient>
</defs>
</svg>
