<svg width="250" height="251" viewBox="0 0 250 251" fill="none" xmlns="http://www.w3.org/2000/svg">
<g clip-path="url(#clip0_242_94943)">
<path d="M124.949 250.249C193.999 250.249 249.999 194.249 249.999 125.199C249.999 56.1492 193.999 0.199219 124.949 0.199219C55.8989 0.199219 -0.101074 56.1492 -0.101074 125.249C-0.101074 194.299 55.8989 250.249 124.949 250.249Z" fill="white"/>
<path fill-rule="evenodd" clip-rule="evenodd" d="M72.1489 167.147C68.3989 164.847 66.0989 160.797 66.0989 156.397V131.947C66.0989 130.997 66.3489 130.097 66.7989 129.297C68.2489 126.797 71.4989 125.947 73.9989 127.397L129.149 159.547C132.349 161.447 134.349 164.897 134.349 168.597V193.897C134.349 195.047 134.049 196.197 133.449 197.197C131.649 200.147 127.749 201.097 124.799 199.297L72.1489 167.147ZM154.349 120.747C157.549 122.647 159.549 126.097 159.549 129.797V181.147C159.549 182.647 158.749 184.047 157.399 184.797L145.349 191.647C145.199 191.747 145.049 191.797 144.849 191.847V163.347C144.849 159.647 142.899 156.247 139.749 154.347L91.3489 125.397V93.1473C91.3489 92.1973 91.5989 91.2973 92.0489 90.4973C93.4989 87.9973 96.7489 87.1473 99.2489 88.5973L154.349 120.747ZM178.449 82.8473C181.699 84.6973 183.699 88.1973 183.699 91.9473V166.947C183.699 168.497 182.849 169.897 181.499 170.647L170.049 176.847V124.597C170.049 120.897 168.099 117.497 164.949 115.597L115.449 85.8973V55.3473C115.449 54.3973 115.699 53.4973 116.149 52.6973C117.599 50.1973 120.849 49.3473 123.349 50.7973L178.449 82.8473Z" fill="#23CE9C"/>
</g>
<defs>
<clipPath id="clip0_242_94943">
<rect y="0.150391" width="250" height="250" rx="125" fill="white"/>
</clipPath>
</defs>
</svg>
