<svg width="250" height="250" viewBox="0 0 250 250" fill="none" xmlns="http://www.w3.org/2000/svg">
<path d="M125 249.746C191.65 249.746 245.7 196.146 245.7 130.046C245.7 63.9457 191.65 10.3457 125 10.3457C58.3496 10.3957 4.29956 63.9457 4.29956 130.046C4.29956 196.146 58.3496 249.746 125 249.746Z" fill="#7538F5"/>
<path d="M124.984 65.1992C87.1599 65.1992 56.5 96.4298 56.5 134.954V164.847C56.5 170.345 60.8754 174.8 66.2766 174.8C71.6777 174.8 76.0852 170.345 76.0852 164.847V134.954C76.0852 129.439 80.4445 124.984 85.8617 124.984C91.2629 124.984 95.6383 129.439 95.6383 134.954V164.847C95.6383 170.345 100.014 174.8 105.415 174.8C110.832 174.8 115.207 170.345 115.207 164.847V134.954C115.207 129.439 119.583 124.984 124.984 124.984C130.401 124.984 134.793 129.439 134.793 134.954V164.847C134.793 170.345 139.168 174.8 144.569 174.8C149.97 174.8 154.346 170.345 154.346 164.847V134.954C154.346 129.439 158.721 124.984 164.154 124.984C169.555 124.984 173.931 129.439 173.931 134.954V164.847C173.931 170.345 178.306 174.8 183.723 174.8C189.125 174.8 193.5 170.345 193.5 164.847V134.954C193.5 96.4298 162.824 65.1992 124.984 65.1992Z" fill="white"/>
</svg>