<svg width="250" height="251" viewBox="0 0 250 251" fill="none" xmlns="http://www.w3.org/2000/svg">
<rect y="0.150391" width="250" height="250" rx="125" fill="#8247E5"/>
<path d="M165.738 97.1228C162.795 95.3955 158.956 95.3955 155.694 97.1228L132.663 110.461L117.021 119.162L93.9902 132.501C91.0474 134.228 87.2089 134.228 83.9462 132.501L65.6496 122.073C62.7067 120.346 60.6276 117.147 60.6276 113.66V93.0924C60.6276 89.6058 62.3869 86.4391 65.6496 84.6798L83.6584 74.5399C86.6012 72.8126 90.4397 72.8126 93.7023 74.5399L111.711 84.6798C114.654 86.4071 116.733 89.6058 116.733 93.0924V106.431L132.375 97.4427V84.104C132.375 80.6174 130.616 77.4507 127.353 75.6914L94.0222 56.5631C91.0794 54.8358 87.2409 54.8358 83.9782 56.5631L50.0718 75.6914C46.8091 77.4187 45.0498 80.6174 45.0498 84.104V122.649C45.0498 126.135 46.8091 129.302 50.0718 131.061L84.0102 150.19C86.953 151.917 90.7915 151.917 94.0542 150.19L117.085 137.139L132.727 128.15L155.758 115.1C158.7 113.372 162.539 113.372 165.802 115.1L183.81 125.24C186.753 126.967 188.832 130.166 188.832 133.652V154.22C188.832 157.707 187.073 160.873 183.81 162.633L165.802 173.06C162.859 174.788 159.02 174.788 155.758 173.06L137.749 162.92C134.806 161.193 132.727 157.994 132.727 154.508V141.169L117.085 150.158V163.496C117.085 166.983 118.844 170.15 122.107 171.909L156.045 191.037C158.988 192.765 162.827 192.765 166.089 191.037L200.028 171.909C202.971 170.182 205.05 166.983 205.05 163.496V124.952C205.05 121.465 203.291 118.298 200.028 116.539L165.738 97.1228Z" fill="white"/>
</svg>
