<svg width="250" height="251" viewBox="0 0 250 251" fill="none" xmlns="http://www.w3.org/2000/svg">
<rect y="0.150391" width="250" height="250" rx="125" fill="url(#paint0_linear_265_153)"/>
<path d="M127.734 67.2148C127.734 67.3451 127.604 67.4753 127.344 67.6055C127.214 67.7357 127.018 68.1263 126.758 68.7773C123.763 74.7669 121.615 81.7331 120.312 89.6758C119.141 97.4883 119.661 105.561 121.875 113.895C122.786 116.889 123.047 119.949 122.656 123.074C122.266 126.199 121.159 128.934 119.336 131.277C118.294 132.449 117.057 133.491 115.625 134.402C114.323 135.184 112.76 135.639 110.938 135.77C109.245 136.03 107.552 135.9 105.859 135.379C104.297 134.858 102.799 134.077 101.367 133.035C98.112 130.691 94.987 127.957 91.9922 124.832C88.9974 121.577 86.3932 117.996 84.1797 114.09C83.2682 112.527 82.1615 111.29 80.8594 110.379C79.6875 109.337 78.5807 108.621 77.5391 108.23C77.1484 108.23 76.8229 108.23 76.5625 108.23C76.3021 108.23 76.1068 108.23 75.9766 108.23C75.8464 108.23 75.651 108.361 75.3906 108.621C75.2604 108.751 75.0651 109.077 74.8047 109.598C72.4609 114.285 70.5078 119.493 68.9453 125.223C67.3828 130.952 66.6016 136.876 66.6016 142.996C66.6016 148.204 67.8385 153.673 70.3125 159.402C72.7865 165.001 76.4974 170.145 81.4453 174.832C86.3932 179.52 92.513 183.426 99.8047 186.551C107.096 189.546 115.495 191.043 125 191.043C133.724 191.043 141.667 190.197 148.828 188.504C156.12 186.811 162.24 184.142 167.188 180.496C172.135 177.111 176.042 172.423 178.906 166.434C181.901 160.314 183.398 152.501 183.398 142.996C183.398 135.965 181.706 129.845 178.32 124.637C175.065 119.298 170.898 114.09 165.82 109.012C164.909 107.97 163.932 106.993 162.891 106.082C161.849 105.04 160.807 104.064 159.766 103.152C155.339 98.9857 150.846 94.4935 146.289 89.6758C141.732 84.7279 137.956 79.194 134.961 73.0742C134.18 71.3815 133.203 70.0794 132.031 69.168C130.99 68.2565 130.013 67.6706 129.102 67.4102C128.711 67.2799 128.385 67.2148 128.125 67.2148C127.995 67.2148 127.865 67.2148 127.734 67.2148ZM132.422 55.3008C135.417 56.082 138.086 57.5794 140.43 59.793C142.904 62.0065 144.792 64.6107 146.094 67.6055C148.568 72.5534 151.693 77.0456 155.469 81.082C159.245 85.1185 163.281 89.2201 167.578 93.3867C168.75 94.4284 169.922 95.5352 171.094 96.707C172.266 97.7487 173.438 98.8555 174.609 100.027C180.078 105.496 184.961 111.616 189.258 118.387C193.685 125.158 195.898 133.361 195.898 142.996C195.898 154.194 194.01 163.764 190.234 171.707C186.589 179.52 181.38 185.835 174.609 190.652C167.969 195.47 160.352 198.855 151.758 200.809C143.294 202.632 134.375 203.543 125 203.543C113.802 203.543 103.841 201.72 95.1172 198.074C86.3932 194.428 78.9714 189.741 72.8516 184.012C66.7318 178.152 62.1094 171.642 58.9844 164.48C55.7292 157.319 54.1016 150.158 54.1016 142.996C54.1016 135.704 55.013 128.738 56.8359 122.098C58.6589 115.327 60.9375 109.272 63.6719 103.934C64.5833 102.241 65.625 100.809 66.7969 99.6367C68.099 98.3346 69.5964 97.3581 71.2891 96.707C72.9818 96.056 74.6094 95.7305 76.1719 95.7305C77.8646 95.7305 79.4271 95.9258 80.8594 96.3164C83.8542 97.0977 86.5234 98.5299 88.8672 100.613C91.3411 102.697 93.3594 105.105 94.9219 107.84C96.7448 110.965 98.8281 113.829 101.172 116.434C103.516 118.908 105.99 121.056 108.594 122.879C108.854 123.009 109.049 123.139 109.18 123.27C109.31 123.27 109.44 123.27 109.57 123.27C109.701 123.139 109.831 122.944 109.961 122.684C110.091 122.293 110.156 121.837 110.156 121.316C110.286 120.796 110.286 120.21 110.156 119.559C110.156 118.777 110.091 117.996 109.961 117.215C107.096 107.059 106.445 97.293 108.008 87.918C109.57 78.543 112.044 70.3398 115.43 63.3086C116.211 61.6159 117.188 60.1185 118.359 58.8164C119.661 57.5143 121.159 56.5378 122.852 55.8867C124.414 55.1055 126.042 54.7148 127.734 54.7148C129.427 54.7148 130.99 54.9102 132.422 55.3008Z" fill="white"/>
<defs>
<linearGradient id="paint0_linear_265_153" x1="187" y1="8.84042e-07" x2="43" y2="229" gradientUnits="userSpaceOnUse">
<stop stop-color="#FF9900"/>
<stop offset="1" stop-color="#FF7121"/>
</linearGradient>
</defs>
</svg>
