<svg width="250" height="251" viewBox="0 0 250 251" fill="none" xmlns="http://www.w3.org/2000/svg">
<rect y="0.150391" width="250" height="250" rx="125" fill="white"/>
<path fill-rule="evenodd" clip-rule="evenodd" d="M220.611 165.788H220.611C218.374 165.807 216.138 165.825 213.907 165.929C211.565 166.036 210.875 164.902 210.892 162.799C210.911 160.728 210.897 158.656 210.884 156.585C210.862 153.211 210.84 149.838 210.958 146.468C211.048 143.691 210.087 142.878 207.343 142.919C199.424 143.026 199.317 142.919 199.415 135.016C199.448 132.28 198.602 131.393 195.825 131.434C187.816 131.533 187.816 131.434 187.766 123.591V123.589C187.742 120.04 187.725 119.982 184.037 120.007C183.177 120.014 182.43 120.008 181.781 120.002C179.571 119.984 178.496 119.975 177.983 120.508C177.497 121.012 177.515 122.001 177.55 123.926C177.562 124.593 177.576 125.373 177.572 126.283C177.514 138.351 177.498 150.419 177.604 162.487C177.629 165.075 176.799 166.126 174.154 165.937C172.326 165.804 170.487 165.837 168.651 165.871C168.111 165.881 167.571 165.891 167.032 165.896C165.438 165.913 164.657 165.206 164.715 163.604C164.731 163.201 164.723 162.795 164.715 162.39C164.711 162.159 164.707 161.928 164.707 161.698V87.9275C164.707 83.9678 164.74 83.9432 168.642 83.935C169.267 83.935 169.892 83.9421 170.516 83.9492C171.903 83.9651 173.289 83.9809 174.672 83.9186C176.775 83.8282 177.621 84.6825 177.588 86.802C177.553 89.2245 177.564 91.6469 177.576 94.0687V94.0705V94.071C177.592 97.2742 177.608 100.476 177.514 103.676C177.44 106.247 178.393 107.085 180.849 106.888C181.969 106.797 183.098 106.821 184.227 106.845C184.928 106.861 185.63 106.876 186.329 106.863C188.268 106.83 189.196 107.66 189.122 109.648C189.093 110.492 189.107 111.337 189.122 112.182V112.182C189.14 113.246 189.158 114.308 189.089 115.366C188.949 117.559 189.73 118.578 192.046 118.422C193.039 118.354 194.039 118.373 195.04 118.391C195.869 118.407 196.699 118.422 197.526 118.389C199.933 118.29 201.108 119.284 201.009 121.749C200.935 123.655 200.968 125.56 201.009 127.466C201.083 130.21 201.108 130.21 206.913 130.202L206.965 130.202C207.174 130.202 207.383 130.206 207.589 130.211C209.375 130.249 210.995 130.284 210.966 127.376C210.879 117.811 210.895 108.241 210.912 98.6742V98.6711V98.67C210.917 95.6255 210.923 92.5813 210.925 89.5376C210.925 85.808 212.839 83.9459 216.667 83.9514C218.192 83.9514 219.717 83.9807 221.239 84.01C221.997 84.0245 222.754 84.0391 223.51 84.05V165.765L223.486 165.756C222.527 165.771 221.569 165.779 220.611 165.788ZM25.5103 84.5842C26.482 83.9109 27.589 83.9146 28.6988 83.9182C28.7806 83.9185 28.8624 83.9188 28.9442 83.9188H81.5699C84.9052 83.9188 85.201 84.2227 85.2585 87.4512C85.2913 89.2667 85.2831 91.0823 85.2585 92.8978C85.2256 96.3974 84.9791 96.6602 81.5452 96.6685C78.0128 96.6794 74.4803 96.6758 70.9478 96.6721C69.1816 96.6703 67.4153 96.6685 65.6491 96.6685C61.8373 96.6685 61.8291 96.6767 61.8291 100.382V161.641C61.8291 164.445 60.4133 165.85 57.5819 165.855C56.9808 165.855 56.3797 165.847 55.7791 165.839H55.7789C54.4588 165.822 53.1412 165.804 51.8313 165.872C49.6954 165.979 48.9232 165.075 48.9561 162.98C49.0143 159.186 49.0024 155.391 48.9905 151.6V151.599C48.9856 150.039 48.9807 148.479 48.9807 146.92V101.178C48.9807 98.1773 47.4253 96.6767 44.3146 96.6767H28.9688C28.8951 96.6767 28.8214 96.6769 28.7477 96.6771H28.7477C27.6298 96.6799 26.5132 96.6828 25.5267 96.0277V84.5842H25.5103ZM95.1493 88.0764V124.83L95.1411 124.822V142.246C95.1411 144.189 95.1451 146.133 95.1491 148.077C95.1592 152.939 95.1693 157.802 95.1164 162.66C95.0918 164.952 95.9297 166.029 98.3285 165.864C99.5148 165.786 100.705 165.807 101.894 165.828C102.442 165.838 102.99 165.848 103.537 165.848C106.719 165.842 108.31 164.213 108.31 160.96C108.313 158.449 108.306 155.938 108.3 153.427C108.287 148.404 108.274 143.382 108.334 138.36C108.383 134.478 108.012 132.768 108.694 132.024C109.402 131.251 111.245 131.518 115.868 131.476C117.47 131.46 118.225 132.142 118.201 133.752C118.185 134.756 118.194 135.761 118.203 136.766C118.212 137.848 118.222 138.93 118.201 140.012C118.16 142.057 119.014 143.035 121.142 142.953C122.124 142.914 123.109 142.93 124.095 142.945C125.212 142.963 126.33 142.981 127.443 142.92C129.513 142.805 130.203 143.708 130.104 145.664C130.044 146.845 130.06 148.032 130.076 149.22C130.089 150.121 130.101 151.023 130.08 151.923C130.047 153.657 130.844 154.404 132.561 154.38C133.379 154.367 134.197 154.38 135.015 154.394C136.299 154.414 137.582 154.435 138.862 154.355C141.063 154.215 141.778 155.16 141.655 157.239C141.586 158.485 141.606 159.738 141.625 160.992C141.638 161.827 141.652 162.664 141.638 163.498C141.622 165.084 142.32 165.848 143.939 165.831C146.682 165.807 149.418 165.807 152.162 165.831C153.772 165.848 154.487 165.076 154.47 163.498C154.455 162.228 154.462 160.958 154.47 159.687C154.474 158.961 154.479 158.236 154.479 157.51C154.473 154.563 153.03 153.087 150.149 153.082C145.357 153.071 142.956 150.683 142.945 145.918C142.934 143.054 141.534 141.619 138.747 141.614C133.867 141.603 131.419 139.166 131.402 134.302C131.386 130.253 131.354 130.252 127.385 130.164L127.287 130.162C122.982 130.064 121.163 130.502 120.405 129.798C119.636 129.084 119.959 127.191 119.885 122.366C119.86 120.591 120.682 119.934 122.382 119.983C123.159 120.004 123.939 119.991 124.719 119.978C125.769 119.96 126.82 119.942 127.862 120.008C130.408 120.164 131.616 119.228 131.427 116.566C131.343 115.428 131.366 114.283 131.389 113.138C131.404 112.375 131.419 111.611 131.402 110.848C131.37 109.246 132.076 108.524 133.694 108.548C134.891 108.566 136.087 108.555 137.284 108.543C138.281 108.534 139.278 108.524 140.275 108.532C142.082 108.548 142.977 107.743 142.945 105.903C142.924 104.814 142.934 103.726 142.945 102.638C142.955 101.549 142.965 100.461 142.945 99.372C142.92 97.7619 143.651 97.0636 145.253 97.08C146.569 97.0948 147.885 97.083 149.201 97.0711C150.079 97.0632 150.956 97.0554 151.833 97.0554C153.616 97.0636 154.528 96.2749 154.487 94.4184C154.437 91.7895 154.446 89.1525 154.479 86.5237C154.503 84.8232 153.69 83.9935 152.006 83.9935C151.154 83.9908 150.302 83.9917 149.449 83.9926C147.743 83.9944 146.036 83.9962 144.333 83.9689C142.32 83.936 141.564 84.9382 141.638 86.8441C141.665 87.5475 141.645 88.2564 141.625 88.9652C141.597 89.9865 141.568 91.0075 141.679 92.0113C142 94.862 140.743 95.741 138.057 95.4945C136.846 95.385 135.624 95.4215 134.404 95.458C133.794 95.4763 133.185 95.4945 132.577 95.4945C130.893 95.5027 130.063 96.2914 130.096 98.0083C130.113 98.8069 130.098 99.6069 130.082 100.407C130.06 101.606 130.037 102.804 130.121 103.997C130.285 106.314 129.258 107.094 127.057 106.93C125.898 106.844 124.73 106.868 123.563 106.893C123.175 106.901 122.787 106.909 122.399 106.913C118.603 106.946 118.25 107.316 118.209 111.193V112.286C118.18 115.642 118.36 117.162 117.688 117.846C117.013 118.532 115.478 118.373 112.007 118.382C108.433 118.39 108.326 118.275 108.326 114.701C108.325 113.866 108.323 113.03 108.322 112.195C108.306 103.864 108.29 95.538 108.343 87.2056C108.351 84.9136 107.505 83.8374 105.122 83.9606C103.813 84.0284 102.495 84.0108 101.175 83.9931C100.574 83.9851 99.9731 83.9771 99.3718 83.9771C95.3465 83.9853 95.1493 84.1578 95.1493 88.0764Z" fill="url(#paint0_linear_242_94947)"/>
<defs>
<linearGradient id="paint0_linear_242_94947" x1="25.502" y1="83.787" x2="223.485" y2="165.938" gradientUnits="userSpaceOnUse">
<stop stop-color="#B677F8"/>
<stop offset="0.520833" stop-color="#428BF8"/>
<stop offset="1" stop-color="#80DB95"/>
</linearGradient>
</defs>
</svg>
