<svg width="250" height="250" viewBox="0 0 250 250" fill="none" xmlns="http://www.w3.org/2000/svg">
<rect width="250" height="250" rx="125" fill="#213147"/>
<path d="M34.8945 81.8619V168.137C34.8945 173.64 37.7997 178.702 42.5977 181.475L117.34 224.612C122.094 227.342 127.949 227.342 132.747 224.612L207.489 181.475C212.243 178.746 215.193 173.64 215.193 168.137V81.8619C215.193 76.3596 212.287 71.2975 207.489 68.5244L132.747 25.3867C127.993 22.6576 122.138 22.6576 117.34 25.3867L42.5977 68.5244C37.8437 71.2535 34.8945 76.3596 34.8945 81.8619Z" fill="#213147"/>
<path d="M141.331 141.725L130.678 170.953C130.37 171.746 130.37 172.67 130.678 173.462L148.99 223.731L170.207 211.494L144.764 141.725C144.192 140.097 141.947 140.097 141.331 141.725Z" fill="#12AAFF"/>
<path d="M162.679 92.5574C162.107 90.9288 159.862 90.9288 159.246 92.5574L148.593 121.785C148.285 122.578 148.285 123.502 148.593 124.294L178.614 206.652L199.83 194.415L162.679 92.5574Z" fill="#12AAFF"/>
<path d="M125 28.6007C125.528 28.6007 126.056 28.7327 126.541 28.9968L207.402 75.7C208.326 76.2282 208.942 77.2406 208.942 78.2971V171.659C208.942 172.76 208.37 173.728 207.402 174.256L126.541 221.004C126.1 221.268 125.572 221.4 125 221.4C124.428 221.4 123.944 221.268 123.459 221.004L42.6422 174.3C41.7178 173.772 41.1016 172.76 41.1016 171.703V78.2971C41.1016 77.1966 41.6738 76.2282 42.6422 75.7L123.503 28.9968C123.944 28.7327 124.516 28.6007 125 28.6007ZM125 14.9551C122.139 14.9551 119.234 15.7034 116.681 17.2L35.8194 63.9032C30.6693 66.8524 27.5 72.3546 27.5 78.2971V171.659C27.5 177.602 30.7133 183.148 35.8194 186.097L116.681 232.8C119.234 234.297 122.139 235.045 125 235.045C127.861 235.045 130.766 234.297 133.319 232.8L214.181 186.097C219.375 183.148 222.5 177.646 222.5 171.659V78.2971C222.5 72.3546 219.287 66.8083 214.181 63.8591L133.363 17.2C130.766 15.7034 127.861 14.9551 125 14.9551Z" fill="#9DCCED"/>
<path d="M71.5615 206.742L79.0006 186.361L93.9227 198.818L79.969 211.584L71.5615 206.742Z" fill="#213147"/>
<path d="M118.222 71.6504H97.7091C96.1685 71.6504 94.8039 72.5748 94.2757 74.0274L50.3457 194.505L71.5624 206.742L119.938 74.0714C120.378 72.8829 119.498 71.6504 118.222 71.6504Z" fill="white"/>
<path d="M154.096 71.6504H133.628C132.087 71.6504 130.722 72.5748 130.194 74.0274L80.0137 211.584L101.23 223.821L155.813 74.1154C156.253 72.8829 155.329 71.6504 154.096 71.6504Z" fill="white"/>
</svg>
