<svg width="250" height="250" viewBox="0 0 250 250" fill="none" xmlns="http://www.w3.org/2000/svg">
<rect width="250" height="250" rx="125" fill="#62BD40"/>
<path d="M124.975 55.1922C131.275 55.1922 137.075 58.7422 139.875 64.3922L186.775 158.142C190.875 166.392 187.575 176.392 179.325 180.492C177.025 181.642 174.475 182.242 171.875 182.242H78.1248C68.9248 182.242 61.4748 174.792 61.4748 165.592C61.4748 162.992 62.0748 160.442 63.2248 158.142L110.075 64.3922C112.875 58.7422 118.675 55.1922 124.975 55.1922ZM124.975 43.7422C114.325 43.7422 104.575 49.7422 99.8248 59.2922L52.9748 153.042C46.0248 166.942 51.6748 183.842 65.5248 190.792C69.4248 192.742 73.7248 193.742 78.1248 193.742H171.875C187.425 193.742 199.975 181.142 199.975 165.592C199.975 161.242 198.975 156.892 197.025 152.992L150.125 59.2922C145.375 49.7422 135.625 43.7422 124.975 43.7422Z" fill="white"/>
</svg>
