<svg width="250" height="250" viewBox="0 0 250 250" fill="none" xmlns="http://www.w3.org/2000/svg">
<g clip-path="url(#clip0_242_94961)">
<path d="M125 250C194.036 250 250 194.036 250 125C250 55.9644 194.036 0 125 0C55.9644 0 0 55.9644 0 125C0 194.036 55.9644 250 125 250Z" fill="#E84142"/>
<path d="M169.085 128.257C173.435 120.757 180.385 120.757 184.735 128.257L211.685 175.607C216.035 183.107 212.485 189.207 203.835 189.207H149.485C140.935 189.207 137.385 183.107 141.635 175.607L169.085 128.257ZM116.935 37.1074C121.285 29.6074 128.135 29.6074 132.485 37.1074L138.485 47.9574L152.635 72.8574C156.085 79.9574 156.085 88.3074 152.635 95.4074L105.085 177.807C100.735 184.507 93.5854 188.757 85.5854 189.207H46.1354C37.4854 189.207 33.9354 183.207 38.2854 175.607L116.935 37.1074Z" fill="white"/>
</g>
<defs>
<clipPath id="clip0_242_94961">
<rect width="250" height="250" rx="125" fill="white"/>
</clipPath>
</defs>
</svg>
