<svg width="250" height="250" viewBox="0 0 250 250" fill="none" xmlns="http://www.w3.org/2000/svg">
<rect width="250" height="250" rx="125" fill="url(#paint0_linear_242_94965)"/>
<path d="M126.344 25.5303L213.119 75.1854V174.364L126.344 224.019L39.5243 174.364V75.1854L126.344 25.5303ZM126.344 16.0742L31.2998 70.4354V179.114L126.3 233.475L221.3 179.114V70.4354L126.344 16.0742Z" fill="white"/>
<path d="M172.216 100.784H80.0752L88.2118 63.5312H163.068L172.216 100.784Z" fill="white"/>
<path d="M101.759 106.545H150.182L142.398 128.228L144.773 151.23H107.169L109.895 128.228L101.759 106.545Z" fill="white"/>
<path d="M171.864 113.67L197.638 132.274L163.728 191.209H149.874L133.601 176.3V168.515L150.314 153.209L150.533 127.876L171.864 113.67Z" fill="white"/>
<path d="M80.2516 113.67L54.5225 132.274L88.3882 191.209H102.242L118.516 176.3V168.515L101.803 153.209L101.583 127.876L80.2516 113.67Z" fill="white"/>
<defs>
<linearGradient id="paint0_linear_242_94965" x1="125.031" y1="-2.04183" x2="125.031" y2="247.138" gradientUnits="userSpaceOnUse">
<stop stop-color="#011E3F"/>
<stop offset="1" stop-color="#002A68"/>
</linearGradient>
</defs>
</svg>
