<svg width="250" height="250" viewBox="0 0 250 250" fill="none" xmlns="http://www.w3.org/2000/svg">
<g clip-path="url(#clip0_242_93411)">
<path d="M125 249.98C194.036 249.98 250 194.016 250 124.98C250 55.9449 194.036 -0.0195312 125 -0.0195312C55.9644 -0.0195312 0 55.9449 0 124.98C0 194.016 55.9644 249.98 125 249.98Z" fill="#C3A634"/>
<path fill-rule="evenodd" clip-rule="evenodd" d="M103.516 114.119H137.187V132.01H103.516V169.666H124.766C133.203 169.666 140.078 168.494 145.391 166.229C150.781 163.963 154.922 160.838 157.969 156.775C161.016 152.791 163.125 148.025 164.219 142.557C165.312 137.088 165.859 131.307 165.859 124.979C165.859 118.65 165.312 112.791 164.219 107.4C163.281 102.244 161.094 97.4004 157.969 93.2598C154.922 89.1973 150.703 86.0723 145.391 83.8066C140 81.541 133.125 80.3691 124.766 80.3691H103.516V114.119ZM81.875 132.01H70.3125V114.197H81.875V62.5566H133.047C142.5 62.5566 150.703 64.1973 157.578 67.4785C164.531 70.7598 170.156 75.2129 174.531 80.916C178.906 86.541 182.188 93.1816 184.297 100.76C186.406 108.338 187.5 116.463 187.5 125.057C187.5 133.26 186.484 141.463 184.297 149.354C182.188 156.932 178.906 163.572 174.531 169.197C170.156 174.9 164.531 179.354 157.578 182.635C150.625 185.916 142.5 187.557 133.047 187.557H81.875V132.088V132.01Z" fill="white"/>
</g>
<defs>
<clipPath id="clip0_242_93411">
<rect width="250" height="250" rx="125" fill="white"/>
</clipPath>
</defs>
</svg>
