<svg width="250" height="250" viewBox="0 0 250 250" fill="none" xmlns="http://www.w3.org/2000/svg">
<g clip-path="url(#clip0_593_2882)">
<path d="M125 0C194 0 250 55.95 250 125C250 194.05 194 250 125 250C56 250 0 194 0 125C0 56 55.95 0 125 0Z" fill="#066DB8"/>
<path d="M125 17C184.616 17 233 65.3408 233 125C233 184.659 184.616 233 125 233C65.384 233 17 184.616 17 125C17 65.384 65.3408 17 125 17Z" fill="#024B80"/>
<path d="M178 86L217 150L178.144 133.508L178 86Z" fill="#C2CCF3"/>
<path d="M141 150L177.863 86L178 133.508L141 150Z" fill="white"/>
<path d="M177.863 172L141 149.044L178 133L177.863 172Z" fill="#C2CCF3"/>
<path d="M217 149.044L178.144 133L178 172L217 149.044Z" fill="#8597E8"/>
<path d="M178 180.718L217 158L178 212V180.718Z" fill="#C2CCF3"/>
<path d="M178 180.718L141 158L178 212V180.718Z" fill="white"/>
<path d="M103.394 116.7C100.379 119.94 97.3899 122.722 94.9162 125.903C88.8379 133.744 84.408 142.374 83.2767 152.364C82.0767 162.993 84.3444 172.942 89.335 182.272C89.7609 183.063 91.3129 183.82 92.2306 183.699C106.497 181.804 118.85 186.465 130.413 194.089C132.116 195.215 132.254 196.122 130.707 197.559C121.492 206.114 110.943 210.818 98.1404 208.941C96.0319 208.633 95.3315 209.418 94.9172 211.34C93.1707 219.422 90.8404 227.322 86.4041 234.443C85.2053 236.364 83.7794 238.142 82.2287 240.3C81.1881 238.899 80.3292 238.015 79.7847 236.969C75.0684 227.889 70.9316 218.61 72.055 207.98C72.3579 205.104 72.8154 202.102 73.973 199.492C75.2801 196.531 74.5201 195.024 72.2161 193.068C60.3063 182.965 51.067 170.789 44.8803 156.463C36.416 136.865 34.3976 116.586 39.9387 95.789C43.9254 80.8208 51.6404 67.8798 62.9475 57.1074C64.6242 55.5082 64.6771 53.854 63.1061 52.1446C58.5559 47.1995 54.0127 42.2571 49.4577 37.3143C47.9258 35.6494 46.3649 33.8525 47.1382 31.4584C47.9717 28.8697 50.4372 28.0928 52.8471 27.6536C64.0992 25.6128 75.2167 26.3387 86.1017 29.5964C90.2506 30.8406 94.184 32.7887 98.3235 34.0776C100.033 34.6089 102.184 34.748 103.878 34.2252C117.467 30.0323 131.186 27.7069 145.428 29.637C156.765 31.1762 167.099 34.9615 176.134 41.9644C177.95 43.3706 179.804 44.8117 181.255 46.5587C182.7 48.2911 184.116 48.6621 186.315 48.2754C191.855 47.3047 196.247 49.9601 198.61 55.3447C200.8 60.3245 199.678 65.5972 195.586 68.7974C194.273 69.8243 192.723 70.6079 191.186 71.2874C177.327 77.4255 163.437 83.5077 149.572 89.6313C145.343 91.501 141.185 93.5474 136.909 95.2986C134.869 96.1368 134.263 97.1756 134.749 99.3203C136.62 107.577 137.154 115.933 135.74 124.331C134.648 130.849 132.469 137 128.909 142.661C127.704 144.58 126.567 144.949 124.631 143.573C117.279 138.353 111.389 131.925 107.378 123.832C106.257 121.574 104.929 119.418 103.404 116.696L103.394 116.7ZM150.187 61.9915C153.026 60.7768 154.462 57.1158 153.258 54.1526C152.083 51.2573 148.144 49.6133 145.265 50.8049C141.941 52.1815 140.337 55.9398 141.685 59.1756C142.851 61.9706 147.012 63.3484 150.187 61.9915Z" fill="#C2CCF3"/>
</g>
<defs>
<clipPath id="clip0_593_2882">
<rect width="250" height="250" rx="125" fill="white"/>
</clipPath>
</defs>
</svg>
