<svg width="250" height="250" viewBox="0 0 250 250" fill="none" xmlns="http://www.w3.org/2000/svg">
<rect width="250" height="249.993" rx="124.997" fill="#687DE3"/>
<path d="M184.042 61L222.181 124.024L184.183 107.783L184.042 61Z" fill="#C2CCF3" fill-opacity="0.6"/>
<path d="M146 124.024L184.034 61L184.176 107.783L146 124.024Z" fill="white" fill-opacity="0.6"/>
<path d="M184.034 147.26L146 124.022L184.176 107.781L184.034 147.26Z" fill="#C2CCF3" fill-opacity="0.6"/>
<path d="M222.181 124.022L184.183 107.781L184.042 147.26L222.181 124.022Z" fill="#8597E8" fill-opacity="0.6"/>
<path d="M184.042 155.259L222.181 132.65L184.042 186.391V155.259Z" fill="#C2CCF3" fill-opacity="0.6"/>
<path d="M184.034 155.259L146 132.65L184.034 186.391V155.259Z" fill="white" fill-opacity="0.6"/>
<path d="M89.7969 133.105C89.7969 128.946 90.8216 124.921 92.8712 121.03C94.9207 117.139 97.8168 114.169 101.559 112.119C105.332 110.07 109.535 109.045 114.169 109.045C121.327 109.045 127.194 111.377 131.768 116.04C136.342 120.674 138.63 126.54 138.63 133.639C138.63 140.798 136.313 146.739 131.679 151.462C127.075 156.155 121.268 158.501 114.258 158.501C109.921 158.501 105.777 157.521 101.827 155.561C97.906 153.6 94.9207 150.734 92.8712 146.961C90.8216 143.159 89.7969 138.541 89.7969 133.105ZM102.629 133.773C102.629 138.466 103.743 142.06 105.97 144.556C108.198 147.051 110.946 148.298 114.213 148.298C117.481 148.298 120.213 147.051 122.411 144.556C124.639 142.06 125.753 138.437 125.753 133.684C125.753 129.05 124.639 125.486 122.411 122.991C120.213 120.496 117.481 119.248 114.213 119.248C110.946 119.248 108.198 120.496 105.97 122.991C103.743 125.486 102.629 129.08 102.629 133.773ZM98.7525 101.738V91H109.49V101.738H98.7525ZM117.911 101.738V91H128.694V101.738H117.911Z" fill="white"/>
<path d="M53.9725 133.417V122.412H82.3988V148.432C79.6364 151.105 75.6264 153.467 70.3689 155.516C65.1411 157.536 59.839 158.546 54.4626 158.546C47.6308 158.546 41.6753 157.12 36.596 154.269C31.5166 151.387 27.6997 147.288 25.1452 141.971C22.5907 136.625 21.3135 130.818 21.3135 124.55C21.3135 117.748 22.7392 111.703 25.5908 106.416C28.4423 101.129 32.6157 97.0744 38.1108 94.2525C42.299 92.0842 47.512 91 53.7498 91C61.8588 91 68.1857 92.708 72.7303 96.1239C77.3047 99.5101 80.2453 104.203 81.5523 110.203L68.453 112.654C67.5322 109.446 65.7945 106.921 63.24 105.079C60.7152 103.208 57.5518 102.272 53.7498 102.272C47.9873 102.272 43.3981 104.099 39.9822 107.753C36.596 111.406 34.9029 116.827 34.9029 124.016C34.9029 131.768 36.6257 137.59 40.0713 141.481C43.5169 145.343 48.0318 147.273 53.6161 147.273C56.3785 147.273 59.141 146.739 61.9034 145.669C64.6955 144.57 67.0867 143.249 69.0768 141.704V133.417H53.9725Z" fill="white"/>
</svg>
