<svg width="250" height="250" viewBox="0 0 250 250" fill="none" xmlns="http://www.w3.org/2000/svg">
<rect width="250" height="250" rx="125" fill="#2645F4"/>
<path fill-rule="evenodd" clip-rule="evenodd" d="M135.2 97.6461L167.335 79.0999V116.192L135.2 97.6461ZM167.335 176.789L125 201.255L82.6643 176.824V133.811L125 158.242L167.335 133.811V176.789ZM82.6643 79.0999L114.799 97.6461L82.6643 116.192V79.0999ZM130.1 106.456L162.235 124.966L130.1 143.512V106.456ZM119.899 143.512L87.8001 124.966L119.899 106.42V143.512ZM162.235 70.2547L125 91.7612L87.7288 70.2547L125 48.7482L162.235 70.2547ZM72.4995 67.2945V122.077V127.926V182.709L125 213.025L177.5 182.673V127.926V122.042V67.2945L125 36.9785L72.4995 67.2945Z" fill="white"/>
</svg>
