<svg width="250" height="250" viewBox="0 0 250 250" fill="none" xmlns="http://www.w3.org/2000/svg">
<rect width="250" height="250" rx="125" fill="#039DBD"/>
<path d="M145.768 132.796C167.256 143.796 182.74 142.25 196.42 128.48C206.601 118.234 212.831 96.9685 199.768 79.7642C202.512 77.0186 205.253 74.2763 207.99 71.5371C229.641 101.325 234.256 155.761 197.343 194.752C157.769 236.552 93.0562 236.933 52.624 195.236C14.5143 155.932 20.1056 101.233 41.4104 71.4668C44.3766 74.5374 47.329 77.5931 50.3016 80.6701C39.6177 98.9637 41.2953 116.301 57.1495 130.605C71.2291 143.307 87.3465 143.821 103.743 133.717C110.45 140.645 117.192 147.606 124.388 155.039C131.946 147.176 138.939 139.901 145.768 132.796Z" fill="white"/>
<path d="M124.601 138.815C97.6779 111.864 70.5323 84.6895 43.0596 57.1894C64.2642 33.3866 90.734 20.2259 122.98 19.7665C156.554 19.288 184.188 32.4231 206.369 57.1383C178.868 84.6075 151.711 111.735 124.601 138.815ZM124.756 125.052C147.326 102.528 169.851 80.049 192.674 57.2736C170.695 36.7951 145.017 27.4383 115.216 30.1636C92.5939 32.2323 73.2374 41.5752 56.942 57.1649C79.7315 79.9786 102.19 102.461 124.756 125.052Z" fill="white"/>
<path d="M160.058 119.424C169.676 109.947 179.2 100.564 188.756 91.1484C195.137 96.2313 194.985 110.305 188.151 117.796C180.964 125.674 166.784 126.551 160.058 119.424Z" fill="white"/>
<path d="M61.4942 92.0254C70.9438 101.512 80.3199 110.924 89.6981 120.339C84.1409 126.078 71.0472 125.536 64.1854 119.085C56.6148 111.971 55.3678 98.9265 61.4942 92.0254Z" fill="white"/>
</svg>
