<svg width="250" height="250" viewBox="0 0 250 250" fill="none" xmlns="http://www.w3.org/2000/svg">
<g clip-path="url(#clip0_1247_112)">
<path d="M124.999 249.98C194.035 249.98 249.999 194.016 249.999 124.98C249.999 55.9449 194.035 -0.0195312 124.999 -0.0195312C55.9634 -0.0195312 -0.000976562 55.9449 -0.000976562 124.98C-0.000976562 194.016 55.9634 249.98 124.999 249.98Z" fill="black"/>
<path d="M163.65 182.821H70V84.1309H91.43V163.691H163.65V182.811V182.821Z" fill="white"/>
<path d="M163.65 103.24C174.21 103.24 182.76 94.68 182.76 84.12C182.76 73.56 174.2 65 163.65 65C153.1 65 144.54 73.56 144.54 84.12C144.54 94.68 153.1 103.24 163.65 103.24Z" fill="white"/>
</g>
<defs>
<clipPath id="clip0_1247_112">
<rect width="250" height="250" rx="125" fill="white"/>
</clipPath>
</defs>
</svg>
