<svg width="250" height="250" viewBox="0 0 201 200" fill="none" xmlns="http://www.w3.org/2000/svg">
<g clip-path="url(#clip0_4695_10696)">
<path d="M0.5 100C0.5 44.7715 45.2715 0 100.5 0C155.728 0 200.5 44.7715 200.5 100C200.5 155.228 155.728 200 100.5 200C45.2715 200 0.5 155.228 0.5 100Z" fill="white"/>
<path d="M100.5 0C45.2715 0 0.5 44.7715 0.5 100C0.5 155.228 45.2715 200 100.5 200C155.728 200 200.5 155.228 200.5 100C200.5 44.7715 155.728 0 100.5 0ZM100.5 150.916V192.674C60.8487 192.674 28.7051 160.53 28.7051 120.879C28.7051 81.228 60.8487 49.0843 100.5 49.0843V7.32601C140.151 7.32601 172.295 39.4696 172.295 79.1209C172.295 118.772 140.151 150.916 100.5 150.916ZM134.932 99.6797V100.32C119.755 107.884 108.384 119.255 100.82 134.432H100.18C92.6159 119.255 81.2449 107.884 66.0678 100.32V99.6797C81.2449 92.1156 92.6159 80.7448 100.18 65.5678H100.82C108.384 80.7448 119.755 92.1156 134.932 99.6797Z" fill="#FF0420"/>
</g>
<defs>
<clipPath id="clip0_4695_10696">
<rect width="250" height="250" fill="white" transform="translate(0.5)"/>
</clipPath>
</defs>
</svg>
