<svg width="250" height="250" viewBox="0 0 250 250" fill="none" xmlns="http://www.w3.org/2000/svg">
<g clip-path="url(#clip0_242_94956)">
<path d="M125 250C194.036 250 250 194.036 250 125C250 55.9644 194.036 0 125 0C55.9644 0 0 55.9644 0 125C0 194.036 55.9644 250 125 250Z" fill="#FF0420"/>
<path d="M88.5663 158.223C81.1233 158.223 75.0254 156.472 70.2719 152.969C65.5809 149.404 63.2354 144.338 63.2354 137.771C63.2354 136.395 63.3918 134.706 63.7043 132.704C64.5178 128.201 65.6749 122.791 67.1759 116.474C71.4289 99.2738 82.4058 90.6738 100.106 90.6738C104.922 90.6738 109.238 91.4868 113.053 93.1128C116.869 94.6763 119.871 97.0533 122.06 100.243C124.249 103.37 125.344 107.123 125.344 111.501C125.344 112.815 125.187 114.472 124.874 116.474C123.936 122.04 122.81 127.451 121.497 132.704C119.308 141.273 115.524 147.684 110.145 151.937C104.766 156.128 97.5733 158.223 88.5663 158.223ZM89.8798 144.713C93.3828 144.713 96.3534 143.681 98.7929 141.617C101.295 139.553 103.077 136.395 104.14 132.142C105.579 126.262 106.674 121.133 107.424 116.755C107.674 115.442 107.799 114.097 107.799 112.721C107.799 107.029 104.828 104.183 98.8869 104.183C95.3839 104.183 92.3818 105.215 89.8798 107.279C87.4408 109.344 85.6894 112.502 84.6264 116.755C83.5004 120.946 82.3744 126.075 81.2489 132.142C80.9984 133.392 80.8733 134.706 80.8733 136.082C80.8733 141.836 83.8758 144.713 89.8798 144.713Z" fill="white"/>
<path d="M129.652 157.285C128.964 157.285 128.432 157.066 128.057 156.628C127.744 156.127 127.65 155.565 127.775 154.939L140.722 93.9568C140.847 93.2688 141.191 92.7058 141.754 92.2678C142.317 91.8303 142.911 91.6113 143.537 91.6113H168.493C175.435 91.6113 181.002 93.0498 185.192 95.9268C189.446 98.8043 191.572 102.963 191.572 108.405C191.572 109.968 191.385 111.595 191.009 113.283C189.446 120.476 186.287 125.793 181.534 129.233C176.843 132.673 170.4 134.393 162.207 134.393H149.541L145.226 154.939C145.1 155.627 144.756 156.19 144.194 156.628C143.631 157.066 143.036 157.285 142.411 157.285H129.652ZM162.864 121.446C165.49 121.446 167.773 120.726 169.712 119.288C171.714 117.849 173.027 115.785 173.653 113.096C173.84 112.032 173.934 111.094 173.934 110.281C173.934 108.467 173.403 107.091 172.339 106.153C171.276 105.152 169.462 104.652 166.898 104.652H155.639L152.074 121.446H162.864Z" fill="white"/>
</g>
<defs>
<clipPath id="clip0_242_94956">
<rect width="250" height="250" rx="125" fill="white"/>
</clipPath>
</defs>
</svg>
