<svg width="250" height="250" viewBox="0 0 250 250" fill="none" xmlns="http://www.w3.org/2000/svg">
<rect width="250" height="250" rx="125" fill="#8247E5"/>
<path d="M165.738 96.9724C162.795 95.2451 158.956 95.2451 155.694 96.9724L132.663 110.311L117.021 119.012L93.9902 132.35C91.0474 134.078 87.2089 134.078 83.9462 132.35L65.6496 121.922C62.7067 120.195 60.6276 116.996 60.6276 113.51V92.9421C60.6276 89.4554 62.3869 86.2887 65.6496 84.5294L83.6584 74.3895C86.6012 72.6622 90.4397 72.6622 93.7023 74.3895L111.711 84.5294C114.654 86.2567 116.733 89.4554 116.733 92.9421V106.281L132.375 97.2923V83.9536C132.375 80.467 130.616 77.3003 127.353 75.541L94.0222 56.4127C91.0794 54.6854 87.2409 54.6854 83.9782 56.4127L50.0718 75.541C46.8091 77.2683 45.0498 80.467 45.0498 83.9536V122.498C45.0498 125.985 46.8091 129.152 50.0718 130.911L84.0102 150.039C86.953 151.767 90.7915 151.767 94.0542 150.039L117.085 136.988L132.727 128L155.758 114.949C158.7 113.222 162.539 113.222 165.802 114.949L183.81 125.089C186.753 126.816 188.832 130.015 188.832 133.502V154.07C188.832 157.556 187.073 160.723 183.81 162.482L165.802 172.91C162.859 174.637 159.02 174.637 155.758 172.91L137.749 162.77C134.806 161.043 132.727 157.844 132.727 154.357V141.019L117.085 150.007V163.346C117.085 166.832 118.844 169.999 122.107 171.759L156.045 190.887C158.988 192.614 162.827 192.614 166.089 190.887L200.028 171.759C202.971 170.031 205.05 166.832 205.05 163.346V124.801C205.05 121.315 203.291 118.148 200.028 116.389L165.738 96.9724Z" fill="white"/>
</svg>
