<svg width="25" height="24" viewBox="0 0 25 24" fill="none" xmlns="http://www.w3.org/2000/svg">
<rect width="23.996" height="24" fill="white"/>
<path d="M9.53845 5.49718C5.38903 7.09569 5.01004 11.1916 3.81964 13.1059C2.61465 15.0397 -0.140286 16.1086 0.233842 17.0949C0.612828 18.0812 3.37263 17.022 5.55423 17.6488C7.71154 18.2707 10.724 21.0596 14.8734 19.4611C16.987 18.6448 18.5175 16.9686 19.222 14.9862C19.2998 14.7725 19.154 14.5441 18.9305 14.5247C18.7896 14.5101 18.6584 14.583 18.5953 14.7093C17.9587 15.9823 16.8655 17.0318 15.437 17.5808C13.0757 18.4894 10.4956 17.7751 8.91166 15.9871C8.55211 15.579 8.24601 15.1174 8.00307 14.6073C7.93504 14.4664 7.87188 14.3255 7.81843 14.1748C7.76013 14.0291 7.71154 13.8785 7.66781 13.7278C8.91652 13.1448 10.3547 12.5277 11.9824 11.8961C13.581 11.279 15.0386 10.7786 16.3311 10.3802C17.2056 10.1081 18.0122 9.88459 18.7362 9.69996C18.7896 9.68539 18.8382 9.67567 18.8916 9.66109C19.0034 9.63194 19.1151 9.69025 19.154 9.79714C19.1783 9.8603 19.1977 9.92346 19.222 9.98663C19.3678 10.3948 19.4747 10.8077 19.5427 11.2207C19.5719 11.4005 19.7711 11.4977 19.9314 11.4151C20.5291 11.0944 21.0732 10.7786 21.5591 10.4774C23.3715 9.35499 24.3772 8.40269 24.1732 7.86337C23.9691 7.32405 22.5843 7.2949 20.4902 7.67874C19.8245 7.80021 19.086 7.9654 18.2891 8.16947C18.1531 8.20348 18.0122 8.24235 17.8713 8.27636C17.2008 8.45613 16.4963 8.6602 15.7577 8.88856C14.3924 9.31612 12.925 9.82143 11.4091 10.4093C9.99032 10.9535 8.64929 11.522 7.41515 12.0856C7.40057 9.69025 8.84364 7.42609 11.2002 6.51751C12.6286 5.96847 14.1397 6.0122 15.4613 6.53208C15.5925 6.58553 15.7383 6.54666 15.8355 6.44463C15.9861 6.27943 15.9423 6.0122 15.7431 5.90531C13.9065 4.89956 11.652 4.68577 9.53845 5.49718Z" fill="black"/>
</svg>
