<svg width="250" height="250" viewBox="0 0 250 250" fill="none" xmlns="http://www.w3.org/2000/svg">
<g clip-path="url(#clip0_696_2724)">
<path fill-rule="evenodd" clip-rule="evenodd" d="M35.9968 149.929L37.005 168.846C37.0709 170.135 37.5399 171.347 38.3311 172.34C43.8618 179.236 68.6581 203.299 124.536 203.299C180.415 203.299 204.911 179.547 210.647 172.469C211.511 171.4 212.009 170.074 212.09 168.679L213.089 149.942C219.742 146.182 226.609 141.934 226.609 141.934C237.407 135.909 249.457 144.564 249.479 157.258C249.516 177.797 233.935 198.903 212.918 212.204C189.22 227.202 153.846 233.424 124.552 233.424C95.2572 233.424 59.883 227.202 36.1853 212.204C15.1686 198.903 -0.412539 177.804 -0.375912 157.258C-0.353936 144.564 11.6964 135.909 22.494 141.934C22.494 141.934 29.3498 146.172 35.9968 149.929Z" fill="#A36EFD"/>
<path fill-rule="evenodd" clip-rule="evenodd" d="M124.545 15.6816C170.233 15.6816 182.621 16.7805 201.198 18.9784H201.19C209.754 19.9939 216.618 26.557 215.98 35.4468L209.138 131.456C206.996 132.095 204.661 132.902 202.042 133.807C188.317 138.552 166.799 145.989 124.544 145.989C82.2894 145.989 60.7726 138.552 47.0467 133.807C44.4253 132.901 42.0879 132.093 39.9446 131.454L33.1018 35.4468C32.4719 26.557 39.3138 19.8347 47.8917 18.9784C66.2418 17.1443 85.3467 15.6816 124.545 15.6816ZM43.2235 177.459L43.2475 177.796L43.7197 177.908C43.5508 177.757 43.3854 177.607 43.2235 177.459ZM205.409 177.897L205.835 177.796L205.857 177.489C205.71 177.624 205.561 177.76 205.409 177.897Z" fill="#A36EFD"/>
</g>
<defs>
<clipPath id="clip0_696_2724">
<rect width="250" height="250" fill="white"/>
</clipPath>
</defs>
</svg>
