<svg width="250" height="250" viewBox="0 0 250 250" fill="none" xmlns="http://www.w3.org/2000/svg">
<g clip-path="url(#clip0_242_93193)">
<path d="M125.351 238.563C63.1459 238.608 12.6609 188.003 12.6309 125.578C12.5959 62.5084 62.8059 11.9284 125.426 11.9434C187.701 11.9584 237.896 62.6034 237.886 125.403C237.871 187.933 187.571 238.513 125.351 238.563Z" fill="#FF7E00"/>
<path d="M125.037 249.438C91.827 249.438 60.5971 236.528 37.0921 213.083C13.5621 189.613 0.597054 158.413 0.582054 125.218C0.562054 91.6927 13.4771 60.2777 36.9321 36.7627C60.3871 13.2527 91.727 0.302734 125.172 0.302734C125.182 0.302734 125.197 0.302734 125.207 0.302734C158.487 0.312734 189.722 13.2727 213.152 36.7927C236.577 60.3077 249.477 91.6477 249.467 125.033C249.462 158.278 236.537 189.513 213.077 212.988C189.612 236.468 158.377 249.408 125.127 249.433C125.102 249.438 125.067 249.438 125.037 249.438ZM125.172 5.27773C93.067 5.27773 62.9921 17.7027 40.4821 40.2677C17.9621 62.8477 5.56705 93.0127 5.58205 125.218C5.59705 157.083 18.0471 187.038 40.6321 209.568C63.1921 232.073 93.167 244.463 125.042 244.463C125.072 244.463 125.102 244.463 125.132 244.463C157.042 244.438 187.017 232.018 209.537 209.483C232.062 186.948 244.467 156.953 244.472 125.033C244.477 92.9677 232.097 62.8777 209.602 40.2977C187.117 17.7227 157.147 5.28773 125.207 5.27773C125.197 5.27773 125.182 5.27773 125.172 5.27773Z" fill="#FF7E00"/>
<path d="M178.927 140.088C179.222 143.153 177.447 145.283 175.652 147.218C169.937 153.383 164.277 159.628 158.252 165.478C143.367 179.928 128.042 193.903 111.527 206.508C110.467 207.318 109.367 208.068 108.262 208.813C102.917 212.398 102.232 212.303 99.8674 206.423C97.6074 200.798 95.5224 195.083 93.6924 189.303C86.3374 166.073 79.7974 142.618 75.1374 118.673C74.6274 116.063 74.0024 113.393 74.1074 110.778C74.1924 108.763 74.8224 106.338 76.1024 104.883C81.8724 98.3277 87.7374 91.8177 93.9874 85.7177C109.077 70.9977 124.647 56.7977 141.447 44.0227C143.232 42.6677 145.122 41.4277 147.062 40.3077C149.647 38.8127 150.507 38.9627 151.692 41.7577C153.992 47.1877 156.247 52.6627 158.067 58.2677C165.502 81.2127 171.937 104.438 176.867 128.063C177.692 132.043 178.247 136.078 178.927 140.088Z" fill="white"/>
</g>
<defs>
<clipPath id="clip0_242_93193">
<rect width="250" height="250" rx="125" fill="white"/>
</clipPath>
</defs>
</svg>
