<svg width="250" height="250" viewBox="0 0 250 250" fill="none" xmlns="http://www.w3.org/2000/svg">
<rect width="250" height="250" rx="125" fill="white"/>
<g clip-path="url(#clip0_242_94276)">
<path d="M125.018 11.3691C187.786 11.3691 238.67 62.2526 238.67 125.02C238.67 187.788 187.786 238.672 125.018 238.672C62.2507 238.672 11.3672 187.788 11.3672 125.02C11.3672 62.2526 62.2507 11.3691 125.018 11.3691Z" fill="#5C1073"/>
<path d="M125.015 233.519C184.937 233.519 233.513 184.943 233.513 125.021C233.513 65.0995 184.937 16.5234 125.015 16.5234C65.0936 16.5234 16.5176 65.0995 16.5176 125.021C16.5176 184.943 65.0936 233.519 125.015 233.519Z" stroke="url(#paint0_linear_242_94276)" stroke-width="0.441649"/>
<path fill-rule="evenodd" clip-rule="evenodd" d="M195.022 138.01C197.474 140.247 200.522 141.726 203.797 142.268C207.072 142.809 210.434 142.39 213.476 141.061C216.518 139.732 219.109 137.55 220.937 134.779C222.765 132.008 223.75 128.766 223.775 125.447C223.799 122.127 222.861 118.872 221.073 116.075C219.286 113.277 216.727 111.057 213.705 109.684C210.683 108.311 207.327 107.843 204.045 108.336C200.762 108.83 197.693 110.264 195.208 112.466L175.807 86.8184C175.505 86.4202 175.087 86.1266 174.61 85.9792C174.133 85.8319 173.621 85.838 173.148 85.9969C172.675 86.1558 172.263 86.4593 171.972 86.8647C171.68 87.27 171.523 87.7567 171.523 88.256V106.416L143.6 119.737C139.084 121.892 139.074 128.315 143.582 130.484L171.523 143.922V162.061C171.523 162.561 171.68 163.048 171.972 163.453C172.264 163.859 172.676 164.162 173.15 164.321C173.623 164.48 174.135 164.485 174.612 164.337C175.09 164.189 175.508 163.894 175.809 163.495L195.022 138.01Z" fill="url(#paint1_linear_242_94276)"/>
<path fill-rule="evenodd" clip-rule="evenodd" d="M112.049 194.974C109.802 197.417 108.311 200.459 107.757 203.732C107.203 207.005 107.608 210.368 108.925 213.415C110.242 216.462 112.414 219.062 115.178 220.901C117.942 222.74 121.179 223.738 124.498 223.775C127.817 223.813 131.076 222.887 133.881 221.111C136.685 219.335 138.915 216.785 140.3 213.768C141.685 210.752 142.167 207.398 141.686 204.114C141.205 200.83 139.783 197.755 137.592 195.262L163.316 175.958C163.715 175.658 164.01 175.241 164.16 174.764C164.309 174.287 164.305 173.776 164.148 173.302C163.991 172.828 163.689 172.415 163.284 172.122C162.88 171.829 162.394 171.67 161.894 171.669L143.735 171.599L130.522 143.624C128.385 139.101 121.962 139.066 119.775 143.565L106.228 171.453L88.0894 171.383C87.5897 171.382 87.1021 171.537 86.6955 171.827C86.2889 172.117 85.9838 172.528 85.8234 173.001C85.663 173.475 85.6554 173.986 85.8016 174.464C85.9478 174.942 86.2405 175.362 86.6383 175.664L112.049 194.974Z" fill="url(#paint2_linear_242_94276)"/>
<path fill-rule="evenodd" clip-rule="evenodd" d="M55.415 111.781C52.9802 109.524 49.9436 108.022 46.6727 107.455C43.4018 106.888 40.0366 107.281 36.9844 108.586C33.9322 109.892 31.3236 112.054 29.4744 114.811C27.6251 117.568 26.6144 120.801 26.5644 124.121C26.5145 127.44 27.4275 130.703 29.1931 133.514C30.9586 136.325 33.5009 138.565 36.5125 139.961C39.5241 141.358 42.8759 141.852 46.1624 141.384C49.4489 140.915 52.5293 139.505 55.0308 137.322L74.2336 163.12C74.5317 163.52 74.9482 163.817 75.4242 163.968C75.9001 164.119 76.4115 164.117 76.8861 163.962C77.3607 163.806 77.7746 163.506 78.0693 163.103C78.364 162.7 78.5246 162.214 78.5284 161.715L78.6689 143.556L106.695 130.45C111.227 128.331 111.287 121.908 106.795 119.705L78.9587 106.05L79.0985 87.9115C79.1024 87.4118 78.9492 86.9235 78.6604 86.5157C78.3717 86.1079 77.962 85.8012 77.4894 85.6389C77.0168 85.4766 76.5051 85.4671 76.0267 85.6115C75.5483 85.7559 75.1275 86.0471 74.8236 86.4438L55.415 111.781Z" fill="url(#paint3_linear_242_94276)"/>
<path fill-rule="evenodd" clip-rule="evenodd" d="M138.83 55.4686C141.096 53.0425 142.61 50.0118 143.189 46.7431C143.769 43.4745 143.389 40.1079 142.095 37.0507C140.801 33.9936 138.649 31.3768 135.9 29.517C133.15 27.6572 129.92 26.6341 126.601 26.5714C123.282 26.5087 120.016 27.4092 117.198 29.1638C114.38 30.9185 112.131 33.4521 110.722 36.4582C109.314 39.4644 108.807 42.8142 109.263 46.1024C109.719 49.3906 111.117 52.4763 113.29 54.9862L87.4196 74.0899C87.0179 74.3864 86.7196 74.8017 86.5667 75.277C86.4137 75.7523 86.414 76.2636 86.5673 76.7388C86.7207 77.2139 87.0194 77.6289 87.4213 77.9251C87.8232 78.2214 88.308 78.3839 88.8073 78.3897L106.965 78.6L119.963 106.676C122.065 111.217 128.488 111.301 130.708 106.818L144.47 79.0357L162.609 79.2455C163.109 79.2514 163.597 79.1001 164.006 78.813C164.415 78.5258 164.724 78.1174 164.888 77.6455C165.052 77.1735 165.063 76.6619 164.921 76.183C164.778 75.7041 164.489 75.2821 164.093 74.9768L138.83 55.4686Z" fill="url(#paint4_linear_242_94276)"/>
</g>
<defs>
<linearGradient id="paint0_linear_242_94276" x1="140.912" y1="-21.5377" x2="109.279" y2="270.096" gradientUnits="userSpaceOnUse">
<stop stop-color="#FFC85F"/>
<stop offset="1" stop-color="#DF2D62"/>
</linearGradient>
<linearGradient id="paint1_linear_242_94276" x1="238.126" y1="132.564" x2="126.214" y2="119.655" gradientUnits="userSpaceOnUse">
<stop stop-color="#FFC85F"/>
<stop offset="1" stop-color="#DF2D62"/>
</linearGradient>
<linearGradient id="paint2_linear_242_94276" x1="117.33" y1="238.101" x2="130.671" y2="126.238" gradientUnits="userSpaceOnUse">
<stop stop-color="#FFC85F"/>
<stop offset="1" stop-color="#DF2D62"/>
</linearGradient>
<linearGradient id="paint3_linear_242_94276" x1="12.2693" y1="116.894" x2="124.079" y2="130.667" gradientUnits="userSpaceOnUse">
<stop stop-color="#FFC85F"/>
<stop offset="1" stop-color="#DF2D62"/>
</linearGradient>
<linearGradient id="paint4_linear_242_94276" x1="133.884" y1="12.3036" x2="119.68" y2="124.06" gradientUnits="userSpaceOnUse">
<stop stop-color="#FFC85F"/>
<stop offset="1" stop-color="#DF2D62"/>
</linearGradient>
<clipPath id="clip0_242_94276">
<rect width="227.302" height="227.302" fill="white" transform="translate(11.3652 11.3633)"/>
</clipPath>
</defs>
</svg>
