<svg width="250" height="250" viewBox="0 0 250 250" fill="none" xmlns="http://www.w3.org/2000/svg">
<path d="M0.809289 131.139C0.809289 131.139 2.54659 130.31 5.43515 128.565C6.88031 127.705 8.61587 126.628 10.5183 125.279C12.4519 123.978 14.5235 122.364 16.6834 120.523C18.8226 118.658 21.0073 116.517 23.0529 114.069C23.531 113.435 24.0154 112.793 24.5056 112.144L24.874 111.657L25.2019 111.142C25.4225 110.799 25.6442 110.455 25.8676 110.108C26.091 109.763 26.3156 109.416 26.5414 109.067C26.7296 108.701 26.919 108.332 27.1095 107.962C27.2995 107.593 27.4906 107.222 27.6828 106.849L27.9692 106.294L28.2475 105.673C29.7435 102.353 31.2325 98.9346 32.8358 95.4559C34.4213 91.9773 36.0408 88.4346 37.7527 84.904C39.5114 81.3942 41.3289 77.8907 43.4669 74.52C44.5131 72.8301 45.6979 71.1863 46.9992 69.602C47.3445 69.2117 47.6892 68.8226 48.0322 68.4351L48.0968 68.3624L48.2163 68.2406L48.341 68.1193L48.5905 67.8768L49.0876 67.393C49.3867 67.0835 49.8358 66.7146 50.2198 66.3763C50.617 66.031 51.0131 65.6834 51.4201 65.3942C51.826 65.0928 52.2296 64.7925 52.632 64.4935C53.0622 64.2273 53.49 63.9623 53.9155 63.6984L54.5553 63.3087L55.2279 62.9715C55.6759 62.7498 56.1216 62.5293 56.5651 62.3099C57.0241 62.1187 57.4946 61.9554 57.9565 61.785C58.4225 61.6245 58.8705 61.4282 59.3543 61.3318C60.3104 61.1216 61.2302 60.8133 62.1869 60.7504C65.9808 60.2533 69.5691 60.8855 72.5489 61.9623C73.2822 62.259 73.9808 62.5876 74.6684 62.889C75.0079 63.0472 75.3439 63.2036 75.6753 63.3578C75.986 63.5443 76.2931 63.7279 76.5962 63.9097C77.8024 64.6418 78.9577 65.3 79.9126 66.087C81.9138 67.5489 83.4155 69.0547 84.6598 70.27C85.8734 71.5148 86.7106 72.5945 87.3099 73.2954C87.904 74.0021 88.2048 74.3901 88.2048 74.3901C88.341 74.5668 88.3093 74.8202 88.1326 74.9565C87.99 75.0668 87.7972 75.0668 87.6569 74.9704L87.6407 74.9594C87.6407 74.9594 87.2394 74.6828 86.4865 74.1644C86.1159 73.9028 85.6592 73.5806 85.1216 73.2019C84.5807 72.8335 84.0166 72.3376 83.2839 71.9213C82.5639 71.4894 81.792 70.9877 80.9519 70.4502C80.7423 70.3156 80.5287 70.1788 80.3104 70.0391C80.0818 69.919 79.8485 69.7972 79.6113 69.6724C79.1378 69.4236 78.6419 69.1782 78.1453 68.9045C76.169 67.7821 73.7793 66.9288 71.2331 66.1967C68.6517 65.6095 65.8434 65.3872 63.0397 65.9634C62.3266 66.035 61.6482 66.3324 60.9427 66.5142C60.2423 66.7267 59.5743 67.0835 58.8757 67.3549C57.5316 68.0633 56.1805 68.8462 54.9288 69.8861C54.5945 70.1245 54.3104 70.3866 54.0183 70.6453C53.7192 70.9178 53.4455 71.1211 53.1043 71.4784L52.6124 71.9675L52.3659 72.2129L52.2423 72.3353L52.2117 72.3659C52.1886 72.389 52.3001 72.2775 52.2412 72.3381L52.1898 72.3959L51.3584 73.3151C50.2741 74.6112 49.2135 76.0275 48.2342 77.5743C46.2417 80.6286 44.4421 84.001 42.6817 87.3999C40.8907 90.7902 39.1638 94.2458 37.464 97.6592C35.7833 101.073 34.0593 104.448 32.3768 107.668L32.0633 108.272L31.6961 108.903C31.4519 109.319 31.2083 109.734 30.9658 110.145C30.7221 110.555 30.4802 110.963 30.2388 111.37C29.9634 111.749 29.6886 112.127 29.4161 112.502C29.143 112.876 28.8716 113.249 28.6014 113.619L28.1955 114.17L27.7469 114.676C27.1511 115.347 26.5622 116.01 25.9813 116.663C23.5362 119.144 21.0547 121.261 18.6211 122.993C16.1644 124.689 13.863 126.141 11.7377 127.267C9.62222 128.408 7.72499 129.284 6.15455 129.977C2.99 131.306 1.10548 131.883 1.10548 131.883L1.09855 131.885C0.886656 131.95 0.66206 131.831 0.597395 131.618C0.539081 131.426 0.632614 131.223 0.809289 131.139ZM7.48654 132.845C7.40571 132.814 7.3116 132.84 7.25733 132.912C7.19093 133 7.20883 133.126 7.29716 133.193C7.29716 133.193 7.33412 133.22 7.44151 133.277C7.55351 133.335 7.74751 133.421 7.93054 133.492C8.32372 133.656 8.90571 133.865 9.66437 134.075C10.4207 134.304 11.3566 134.491 12.4438 134.674C13.5316 134.849 14.7741 134.937 16.1401 134.975C17.5039 134.97 18.99 134.884 20.5524 134.644C22.1014 134.353 23.7417 133.985 25.3664 133.363C26.9854 132.74 28.6211 131.959 30.1413 130.94C30.923 130.462 31.6315 129.872 32.3659 129.312C33.0685 128.716 33.7648 128.103 34.4201 127.453C35.7158 126.14 36.9207 124.734 37.9005 123.223C38.1522 122.851 38.4028 122.479 38.6517 122.11C38.8745 121.726 39.0962 121.343 39.3168 120.963C39.535 120.584 39.7521 120.205 39.9675 119.83C40.1522 119.44 40.3358 119.053 40.5183 118.67C40.8884 117.905 41.2389 117.15 41.5183 116.386C41.8018 115.625 42.1384 114.903 42.3561 114.162C42.5818 113.426 42.8018 112.711 43.0143 112.018C43.2256 111.327 43.3624 110.642 43.5293 109.995C43.8607 108.7 44.0541 107.492 44.2331 106.425C44.3174 105.892 44.3965 105.394 44.4698 104.932C44.5183 104.467 44.5633 104.041 44.6037 103.656C44.7412 102.116 44.8203 101.237 44.8203 101.237C44.8289 101.142 44.77 101.053 44.6759 101.026C44.5697 100.995 44.4583 101.056 44.4277 101.163L44.4248 101.172C44.4248 101.172 44.1828 102.015 43.7585 103.491C43.6586 103.86 43.5477 104.267 43.4271 104.711C43.2862 105.149 43.1338 105.622 42.9704 106.128C42.6615 107.142 42.3081 108.281 41.8353 109.49C41.6084 110.097 41.4092 110.742 41.1367 111.383C40.8647 112.022 40.583 112.682 40.2937 113.362C40.0246 114.048 39.658 114.71 39.3353 115.409C39.0183 116.111 38.6343 116.795 38.2342 117.482C38.0385 117.828 37.8416 118.177 37.643 118.528C37.4271 118.867 37.2094 119.208 36.9906 119.551C36.7712 119.894 36.5506 120.238 36.3289 120.584C36.0841 120.911 35.8387 121.241 35.5916 121.573C35.3405 121.899 35.1055 122.242 34.8405 122.559L34.0229 123.496C33.5067 124.149 32.8918 124.709 32.3197 125.31C31.7227 125.884 31.0922 126.421 30.4582 126.944C29.796 127.431 29.1592 127.948 28.4606 128.362C27.1182 129.273 25.6857 129.991 24.2671 130.608C22.8566 131.255 21.4057 131.681 20.0195 132.043C18.632 132.421 17.2787 132.629 16.0212 132.801C14.7608 132.97 13.5916 133.025 12.5472 133.072C11.5044 133.099 10.5876 133.086 9.83181 133.055C9.07719 133.018 8.48019 132.973 8.07892 132.927C7.86241 132.901 7.75675 132.891 7.66552 132.888C7.57141 132.877 7.50733 132.851 7.51021 132.855L7.48654 132.845ZM32.863 130.44C32.7897 130.525 32.7989 130.653 32.8838 130.727L32.8878 130.73C32.8947 130.731 32.9132 130.753 33.0218 130.798C33.0783 130.821 33.1511 130.85 33.2429 130.879C33.3122 130.898 33.393 130.922 33.4842 130.948C33.8439 131.046 34.3745 131.172 35.0604 131.245C36.4276 131.418 38.4357 131.422 40.7868 130.862C41.9531 130.564 43.199 130.131 44.4565 129.523C45.6961 128.888 46.9548 128.1 48.1245 127.119C49.2729 126.122 50.3999 125.006 51.3387 123.726C51.8428 123.108 52.2412 122.417 52.6875 121.754C53.0991 121.071 53.4819 120.37 53.8572 119.668C54.1869 118.946 54.5616 118.241 54.8486 117.508C55.1153 116.769 55.43 116.047 55.6488 115.305C56.1303 113.834 56.5183 112.37 56.822 110.94C57.0685 109.502 57.333 108.12 57.4577 106.797C57.6199 105.477 57.6673 104.226 57.7331 103.075C57.8052 101.924 57.744 100.865 57.7567 99.9334C57.7614 99.0004 57.6898 98.1875 57.6517 97.5194C57.5454 96.1863 57.4842 95.4248 57.4842 95.4248C57.4767 95.333 57.4069 95.255 57.3122 95.2417C57.2025 95.2261 57.1003 95.3029 57.0847 95.4126L57.0835 95.4207C57.0835 95.4207 56.9773 96.173 56.7908 97.49C56.71 98.147 56.6176 98.9444 56.4623 99.852C56.3122 100.759 56.2036 101.787 55.975 102.89C55.7758 103.996 55.5841 105.196 55.2747 106.439C55.0345 107.697 54.673 108.991 54.3208 110.329C54.1061 110.986 53.8976 111.655 53.6955 112.334C53.4883 113.011 53.2146 113.671 52.9756 114.349C52.4513 115.686 51.8434 117 51.1932 118.284C50.8428 118.91 50.4883 119.535 50.1107 120.138C49.7031 120.717 49.3382 121.328 48.8895 121.861C48.6765 122.137 48.4721 122.419 48.255 122.686C48.027 122.944 47.8006 123.2 47.5755 123.455C47.1332 123.972 46.6447 124.432 46.1701 124.887C45.2083 125.788 44.1811 126.544 43.1644 127.204C42.1499 127.872 41.1043 128.368 40.1176 128.79C39.1338 129.234 38.1742 129.493 37.3203 129.74C36.4623 129.98 35.6909 130.102 35.0524 130.21C34.4121 130.306 33.9017 130.347 33.5564 130.367C33.4715 130.37 33.3965 130.373 33.3318 130.376C33.2862 130.383 33.2481 130.388 33.2175 130.392C33.1465 130.402 33.0807 130.375 33.0858 130.381C33.0079 130.354 32.919 130.375 32.863 130.44ZM52.2764 124.118C52.2296 124.218 52.2735 124.337 52.3734 124.384C52.3809 124.384 52.3942 124.401 52.4987 124.432C52.5547 124.448 52.6292 124.466 52.7221 124.48C52.7879 124.488 52.8636 124.497 52.9502 124.507C53.281 124.545 53.7614 124.576 54.3699 124.54C55.587 124.491 57.3393 124.202 59.3041 123.349C60.2793 122.917 61.3128 122.354 62.2977 121.597C63.2752 120.837 64.2585 119.943 65.0905 118.864C65.9207 117.79 66.6834 116.595 67.2458 115.296C67.8382 114.008 68.2625 112.641 68.591 111.265C68.7146 110.571 68.8849 109.883 68.9652 109.19C69.0287 108.496 69.1442 107.806 69.1598 107.123C69.2417 105.754 69.2417 104.417 69.1673 103.129C69.0483 101.846 68.9479 100.61 68.7446 99.4565C68.5737 98.2972 68.3116 97.225 68.0985 96.2325C67.8826 95.2406 67.5789 94.3578 67.3664 93.5662C67.1476 92.7752 66.8861 92.1055 66.6938 91.5495C66.2897 90.4421 66.0414 89.8191 66.0414 89.8191C66.0091 89.7383 65.9265 89.6846 65.8353 89.6932C65.7244 89.7036 65.643 89.8018 65.6528 89.9126L65.6534 89.9207C65.6534 89.9207 65.7158 90.591 65.8555 91.7475C65.93 92.3243 66.0287 93.0223 66.0957 93.8278C66.169 94.6309 66.3006 95.5287 66.3532 96.5148C66.4253 97.4975 66.535 98.557 66.5431 99.6782C66.617 100.797 66.6009 101.97 66.5922 103.18C66.5587 103.783 66.5229 104.393 66.5021 105.011C66.4808 105.629 66.3849 106.243 66.3307 106.867C66.1782 108.108 65.9392 109.344 65.6517 110.558C65.4779 111.155 65.3133 111.754 65.1182 112.337C64.8965 112.908 64.7106 113.493 64.4386 114.029C63.9686 115.14 63.3572 116.147 62.7169 117.081C62.083 118.025 61.3318 118.831 60.5858 119.565C59.841 120.306 59.0327 120.902 58.2654 121.434C57.501 121.98 56.7267 122.371 56.035 122.726C55.3405 123.078 54.7019 123.323 54.1713 123.525C53.639 123.719 53.2077 123.847 52.9167 123.924C52.8468 123.941 52.7856 123.957 52.7325 123.97C52.7025 123.987 52.6771 124.001 52.6569 124.012C52.6009 124.036 52.535 124.015 52.542 124.021C52.4421 123.974 52.3232 124.018 52.2764 124.118ZM67.5102 114.769C67.4681 114.872 67.516 114.989 67.6182 115.031C67.6268 115.03 67.6315 115.045 67.7331 115.071C67.7879 115.083 67.8636 115.096 67.9554 115.1C68.0143 115.101 68.0818 115.103 68.1592 115.105C68.4554 115.108 68.8843 115.093 69.4155 114.994C69.9496 114.906 70.5916 114.746 71.3024 114.474C72.0177 114.21 72.7862 113.807 73.5899 113.288C74.3803 112.752 75.1702 112.059 75.9011 111.22C76.6332 110.379 77.2492 109.367 77.7625 108.271C78.2827 107.17 78.5939 105.962 78.8393 104.736C79.0131 103.504 79.1424 102.246 79.0835 101.008L79.0553 100.08L78.9669 99.1644C78.9115 98.5529 78.8156 97.9554 78.7042 97.3664C78.6101 96.7735 78.4929 96.1926 78.348 95.6286C78.2134 95.0616 78.0945 94.4969 77.9074 93.9657C77.7365 93.4305 77.5685 92.904 77.4046 92.3884C77.2158 91.8843 77.0304 91.3913 76.8509 90.9115C76.4889 89.9525 76.0489 89.0922 75.6961 88.2781C75.3116 87.4773 74.9069 86.77 74.5766 86.1332C74.2458 85.4958 73.8919 84.9733 73.6309 84.5298C73.0841 83.6545 72.7556 83.1672 72.7556 83.1672C72.7083 83.0974 72.6205 83.0616 72.5345 83.0853C72.4265 83.1141 72.363 83.2256 72.3919 83.3335L72.3936 83.3405C72.3936 83.3405 72.5483 83.9097 72.8457 84.8855C72.9958 85.3722 73.1955 85.9559 73.3809 86.6384C73.5772 87.3162 73.8168 88.0731 74.042 88.9057C74.2556 89.7406 74.5466 90.6263 74.7435 91.587C74.8607 92.061 74.9808 92.5477 75.1032 93.0454C75.2019 93.5454 75.3024 94.0564 75.4046 94.5754C75.5154 95.0928 75.5807 95.6222 75.6753 96.1534C75.7741 96.6846 75.8445 97.2233 75.8919 97.7666C75.9571 98.3093 76.0068 98.8549 76.0171 99.4005L76.0656 100.219L76.061 101.033C76.0685 102.121 75.9611 103.185 75.8041 104.216C75.6026 105.23 75.3867 106.226 75.0247 107.125C74.6765 108.025 74.2752 108.877 73.7816 109.618C73.2977 110.365 72.7568 111.025 72.2071 111.605C71.658 112.189 71.0714 112.646 70.5437 113.059C70.0119 113.469 69.4992 113.762 69.0772 114.017C68.6494 114.26 68.2966 114.425 68.0587 114.529C68.0016 114.552 67.9507 114.574 67.9069 114.592C67.8919 114.611 67.8786 114.628 67.8688 114.641C67.8301 114.673 67.7643 114.655 67.7729 114.661C67.6702 114.619 67.5529 114.667 67.5102 114.769ZM78.9507 104.237C78.882 104.237 78.8162 104.273 78.7804 104.338C78.7267 104.433 78.7608 104.554 78.8561 104.607C78.8561 104.607 78.8636 104.611 78.878 104.619C78.9207 104.646 79.0778 104.633 79.087 104.629C79.1771 104.62 79.2775 104.603 79.4086 104.568C79.669 104.503 80.0316 104.383 80.4681 104.175C80.9109 103.977 81.4161 103.679 81.9686 103.287C82.5264 102.901 83.0928 102.38 83.673 101.763C84.8151 100.522 85.8647 98.7273 86.352 96.6147C86.5997 95.5633 86.7094 94.4473 86.688 93.3278C86.6505 92.2094 86.5223 91.0835 86.2619 90.0004C86.0143 88.9138 85.6678 87.8641 85.2608 86.8699C84.8497 85.8768 84.3913 84.9323 83.8838 84.0604C83.3792 83.1875 82.8514 82.3768 82.3307 81.6268C81.7868 80.8918 81.2631 80.21 80.7544 79.6049C79.7262 78.4005 78.8012 77.4698 78.1315 76.8433C77.4559 76.2215 77.0518 75.8872 77.0518 75.8872C76.9883 75.8353 76.8947 75.8237 76.8191 75.867C76.7221 75.9236 76.6886 76.0477 76.7446 76.1447C76.7446 76.1447 77.0044 76.5945 77.4594 77.3815C77.9138 78.1632 78.5703 79.2689 79.2989 80.6078C79.6777 81.2677 80.0553 81.9981 80.438 82.7717C80.8249 83.542 81.2244 84.3537 81.5801 85.2111C81.9317 86.0697 82.2856 86.9513 82.5783 87.8612C82.8751 88.7689 83.1228 89.6973 83.3053 90.6268C83.4825 91.5575 83.5945 92.4871 83.6101 93.3965C83.6338 94.3041 83.5783 95.1909 83.4421 96.0321C83.3139 96.8757 83.1055 97.6782 82.8387 98.4219C82.5807 99.1696 82.2544 99.856 81.9144 100.479C81.5853 101.112 81.1973 101.647 80.8532 102.133C80.5033 102.614 80.1546 103.006 79.8653 103.334C79.5685 103.651 79.3203 103.893 79.1482 104.043C79.0668 104.11 79.0044 104.161 78.9623 104.197C78.9126 104.214 79.0218 104.202 79.0333 104.236C79.0171 104.236 79.0085 104.236 79.0085 104.236L78.9507 104.237ZM248.831 131.618C248.766 131.83 248.541 131.95 248.329 131.885L248.323 131.883C248.323 131.883 246.437 131.306 243.273 129.977C241.702 129.284 239.805 128.408 237.69 127.267C235.564 126.141 233.263 124.689 230.806 122.993C228.373 121.261 225.891 119.144 223.446 116.663C222.865 116.01 222.276 115.347 221.681 114.676L221.232 114.17L220.826 113.619C220.556 113.249 220.284 112.876 220.011 112.502C219.739 112.127 219.464 111.749 219.189 111.37C218.947 110.964 218.705 110.556 218.462 110.145C218.219 109.733 217.976 109.319 217.731 108.903L217.364 108.272L217.051 107.668C215.368 104.448 213.644 101.074 211.963 97.6592C210.263 94.2463 208.536 90.7902 206.746 87.3999C204.985 84.0015 203.186 80.6286 201.193 77.5743C200.214 76.0275 199.153 74.6112 198.069 73.3151L197.238 72.3959L197.186 72.3381C197.127 72.2775 197.239 72.389 197.216 72.3659L197.185 72.3353L197.062 72.2129L196.815 71.9675L196.323 71.4784C195.982 71.1211 195.708 70.9178 195.409 70.6453C195.117 70.3866 194.833 70.1245 194.499 69.8861C193.247 68.8462 191.895 68.0633 190.552 67.3549C189.853 67.0835 189.185 66.7273 188.485 66.5142C187.779 66.3318 187.1 66.035 186.388 65.9634C183.584 65.3878 180.776 65.6095 178.194 66.1967C175.649 66.9282 173.259 67.7821 171.282 68.9045C170.786 69.1782 170.29 69.4236 169.816 69.6724C169.579 69.7972 169.346 69.919 169.117 70.0391C168.899 70.1788 168.685 70.3156 168.476 70.4502C167.635 70.9877 166.864 71.4894 166.144 71.9213C165.411 72.3376 164.847 72.8335 164.306 73.2019C163.768 73.5806 163.312 73.9028 162.941 74.1644C162.188 74.6828 161.787 74.9594 161.787 74.9594L161.771 74.9704C161.63 75.0668 161.437 75.0668 161.295 74.9565C161.119 74.8202 161.087 74.5662 161.223 74.3901C161.223 74.3901 161.524 74.0021 162.118 73.2954C162.718 72.5945 163.555 71.5142 164.768 70.27C166.013 69.0547 167.514 67.5489 169.515 66.087C170.47 65.3 171.626 64.6418 172.832 63.9097C173.135 63.7279 173.442 63.5443 173.753 63.3578C174.084 63.203 174.42 63.0472 174.76 62.889C175.447 62.587 176.145 62.259 176.879 61.9623C179.859 60.8855 183.447 60.2533 187.241 60.7504C188.198 60.8133 189.118 61.1216 190.074 61.3318C190.557 61.4276 191.005 61.6245 191.472 61.785C191.933 61.9554 192.404 62.1182 192.863 62.3099C193.306 62.5293 193.752 62.7498 194.2 62.9715L194.873 63.3087L195.513 63.6984C195.939 63.9623 196.366 64.2273 196.796 64.4935C197.198 64.7925 197.602 65.0922 198.008 65.3942C198.416 65.6834 198.811 66.0304 199.208 66.3763C199.592 66.7146 200.041 67.0835 200.34 67.393L200.838 67.8768L201.087 68.1193L201.212 68.2406L201.331 68.3624L201.396 68.4351C201.739 68.8226 202.084 69.2117 202.429 69.602C203.73 71.1863 204.915 72.8301 205.961 74.52C208.099 77.8907 209.917 81.3942 211.675 84.904C213.387 88.4346 215.007 91.9773 216.592 95.4559C218.196 98.9346 219.685 102.353 221.181 105.673L221.459 106.294L221.745 106.849C221.937 107.222 222.128 107.593 222.319 107.962C222.508 108.332 222.698 108.701 222.887 109.067C223.112 109.416 223.337 109.763 223.56 110.108C223.783 110.455 224.006 110.799 224.226 111.142L224.554 111.657L224.922 112.144C225.413 112.793 225.898 113.435 226.375 114.069C228.421 116.517 230.606 118.658 232.745 120.523C234.905 122.364 236.976 123.978 238.91 125.279C240.812 126.628 242.548 127.705 243.993 128.565C246.881 130.31 248.619 131.139 248.619 131.139C248.797 131.223 248.89 131.426 248.831 131.618ZM241.92 132.853C241.923 132.849 241.859 132.876 241.765 132.886C241.674 132.89 241.568 132.899 241.351 132.925C240.95 132.972 240.353 133.016 239.599 133.053C238.843 133.085 237.926 133.097 236.883 133.07C235.839 133.023 234.67 132.968 233.409 132.799C232.152 132.627 230.799 132.42 229.411 132.041C228.024 131.679 226.574 131.253 225.163 130.606C223.745 129.989 222.312 129.272 220.97 128.36C220.271 127.946 219.635 127.429 218.972 126.943C218.338 126.42 217.708 125.882 217.111 125.308C216.538 124.708 215.924 124.148 215.407 123.495L214.59 122.558C214.325 122.239 214.089 121.898 213.839 121.571C213.592 121.239 213.346 120.91 213.101 120.582C212.88 120.236 212.659 119.891 212.44 119.549C212.221 119.207 212.003 118.865 211.787 118.526C211.589 118.175 211.391 117.827 211.196 117.481C210.796 116.793 210.412 116.11 210.095 115.407C209.772 114.708 209.406 114.047 209.137 113.36C208.847 112.681 208.566 112.02 208.294 111.381C208.021 110.74 207.822 110.095 207.595 109.488C207.122 108.279 206.769 107.14 206.46 106.126C206.297 105.62 206.145 105.148 206.003 104.709C205.883 104.265 205.772 103.858 205.672 103.489C205.248 102.014 205.006 101.171 205.006 101.171L205.003 101.161C204.972 101.055 204.861 100.993 204.754 101.024C204.66 101.051 204.601 101.141 204.61 101.235C204.61 101.235 204.689 102.115 204.827 103.654C204.867 104.04 204.911 104.466 204.961 104.931C205.034 105.392 205.113 105.891 205.197 106.424C205.376 107.489 205.569 108.698 205.901 109.993C206.068 110.64 206.205 111.325 206.416 112.017C206.629 112.709 206.849 113.425 207.074 114.16C207.291 114.901 207.629 115.623 207.912 116.384C208.192 117.148 208.541 117.903 208.912 118.668C209.094 119.052 209.278 119.439 209.463 119.828C209.678 120.204 209.895 120.582 210.114 120.962C210.334 121.342 210.556 121.724 210.779 122.108C211.028 122.478 211.279 122.849 211.53 123.222C212.51 124.732 213.715 126.138 215.01 127.451C215.665 128.101 216.361 128.715 217.064 129.31C217.799 129.87 218.507 130.461 219.289 130.938C220.809 131.957 222.445 132.738 224.064 133.361C225.689 133.983 227.329 134.351 228.878 134.642C230.44 134.882 231.926 134.969 233.29 134.973C234.656 134.935 235.898 134.847 236.987 134.672C238.073 134.489 239.01 134.302 239.766 134.073C240.525 133.863 241.107 133.654 241.5 133.491C241.683 133.42 241.877 133.334 241.989 133.275C242.096 133.219 242.129 133.191 242.133 133.191C242.222 133.125 242.239 132.999 242.173 132.91C242.119 132.838 242.025 132.813 241.944 132.843L241.92 132.853ZM216.345 130.381C216.35 130.375 216.284 130.402 216.213 130.392C216.183 130.388 216.145 130.382 216.099 130.376C216.034 130.373 215.959 130.37 215.875 130.367C215.529 130.347 215.019 130.306 214.379 130.21C213.739 130.102 212.969 129.98 212.111 129.74C211.257 129.493 210.297 129.234 209.313 128.79C208.327 128.368 207.281 127.873 206.267 127.204C205.25 126.543 204.223 125.788 203.261 124.887C202.786 124.432 202.298 123.972 201.855 123.455C201.63 123.2 201.403 122.944 201.176 122.686C200.959 122.419 200.755 122.137 200.541 121.861C200.093 121.328 199.728 120.717 199.32 120.138C198.943 119.535 198.589 118.91 198.238 118.284C197.587 117 196.98 115.686 196.455 114.349C196.216 113.671 195.943 113.011 195.735 112.334C195.533 111.655 195.325 110.987 195.11 110.329C194.758 108.991 194.396 107.697 194.156 106.439C193.847 105.196 193.655 103.996 193.456 102.89C193.228 101.787 193.119 100.758 192.969 99.852C192.813 98.945 192.721 98.1476 192.64 97.49C192.454 96.173 192.347 95.4207 192.347 95.4207L192.346 95.4126C192.331 95.3029 192.229 95.2261 192.119 95.2417C192.024 95.255 191.954 95.333 191.947 95.4248C191.947 95.4248 191.886 96.1869 191.779 97.5194C191.741 98.1875 191.669 99.0004 191.674 99.9334C191.686 100.866 191.625 101.924 191.698 103.075C191.764 104.226 191.812 105.478 191.973 106.797C192.097 108.12 192.362 109.502 192.609 110.94C192.913 112.37 193.301 113.833 193.782 115.305C194.002 116.047 194.316 116.768 194.582 117.508C194.869 118.241 195.244 118.946 195.574 119.668C195.949 120.37 196.332 121.071 196.743 121.754C197.19 122.418 197.588 123.108 198.092 123.726C199.031 125.006 200.158 126.123 201.306 127.119C202.476 128.1 203.735 128.888 204.974 129.523C206.232 130.132 207.478 130.564 208.644 130.862C210.995 131.421 213.004 131.417 214.37 131.245C215.056 131.172 215.587 131.046 215.947 130.948C216.038 130.922 216.118 130.899 216.188 130.879C216.279 130.85 216.353 130.821 216.409 130.798C216.518 130.752 216.537 130.73 216.543 130.73L216.547 130.727C216.632 130.653 216.641 130.525 216.568 130.44C216.51 130.375 216.421 130.354 216.345 130.381ZM196.887 124.021C196.893 124.015 196.828 124.035 196.772 124.011C196.752 124 196.726 123.986 196.696 123.97C196.643 123.957 196.582 123.941 196.512 123.923C196.221 123.847 195.79 123.719 195.257 123.524C194.727 123.322 194.088 123.077 193.394 122.725C192.702 122.371 191.928 121.979 191.163 121.433C190.396 120.902 189.587 120.306 188.843 119.564C188.096 118.831 187.346 118.024 186.712 117.081C186.071 116.146 185.46 115.139 184.99 114.029C184.718 113.493 184.532 112.907 184.31 112.336C184.116 111.754 183.951 111.154 183.777 110.558C183.489 109.343 183.25 108.108 183.098 106.866C183.044 106.243 182.948 105.628 182.926 105.01C182.906 104.392 182.87 103.783 182.836 103.179C182.828 101.97 182.812 100.796 182.885 99.6776C182.894 98.5564 183.003 97.4969 183.075 96.5142C183.128 95.5287 183.26 94.6309 183.333 93.8272C183.4 93.0217 183.499 92.3237 183.573 91.7469C183.713 90.5905 183.775 89.9201 183.775 89.9201L183.776 89.9121C183.786 89.8012 183.705 89.703 183.593 89.6926C183.502 89.684 183.42 89.7377 183.387 89.8185C183.387 89.8185 183.139 90.4415 182.735 91.5489C182.543 92.1049 182.281 92.7746 182.062 93.5656C181.849 94.3578 181.546 95.2406 181.33 96.2319C181.117 97.2238 180.855 98.296 180.684 99.4559C180.481 100.609 180.38 101.845 180.261 103.128C180.187 104.417 180.187 105.754 180.269 107.122C180.284 107.806 180.4 108.495 180.463 109.189C180.544 109.882 180.714 110.571 180.838 111.264C181.166 112.641 181.591 114.007 182.183 115.295C182.745 116.594 183.507 117.789 184.338 118.863C185.17 119.942 186.153 120.837 187.131 121.596C188.116 122.354 189.149 122.916 190.125 123.348C192.089 124.202 193.842 124.491 195.059 124.539C195.667 124.575 196.148 124.544 196.478 124.507C196.564 124.496 196.641 124.487 196.706 124.479C196.799 124.465 196.874 124.447 196.93 124.432C197.034 124.4 197.048 124.383 197.055 124.383C197.156 124.336 197.199 124.217 197.152 124.117C197.106 124.018 196.987 123.974 196.887 124.021ZM181.657 114.661C181.665 114.655 181.599 114.674 181.561 114.642C181.551 114.629 181.538 114.612 181.523 114.592C181.479 114.574 181.428 114.553 181.371 114.529C181.133 114.425 180.78 114.26 180.353 114.017C179.931 113.763 179.418 113.47 178.886 113.059C178.358 112.646 177.772 112.19 177.223 111.606C176.674 111.026 176.132 110.366 175.648 109.618C175.154 108.877 174.753 108.026 174.405 107.125C174.043 106.227 173.827 105.23 173.626 104.216C173.469 103.186 173.361 102.122 173.369 101.034L173.364 100.22L173.413 99.4011C173.422 98.8555 173.473 98.3099 173.538 97.7671C173.585 97.2244 173.655 96.6851 173.754 96.154C173.849 95.6228 173.914 95.0933 174.025 94.576C174.127 94.0564 174.228 93.5454 174.327 93.046C174.45 92.5483 174.57 92.0616 174.687 91.5876C174.884 90.6268 175.174 89.7411 175.388 88.9063C175.614 88.0737 175.853 87.3168 176.049 86.639C176.235 85.9565 176.435 85.3728 176.585 84.8861C176.883 83.9103 177.037 83.341 177.037 83.341L177.038 83.3341C177.068 83.2261 177.004 83.1147 176.896 83.0858C176.81 83.0627 176.722 83.0985 176.675 83.1678C176.675 83.1678 176.347 83.6557 175.799 84.5304C175.538 84.9738 175.185 85.4963 174.854 86.1338C174.524 86.7712 174.119 87.4784 173.734 88.2787C173.381 89.0928 172.941 89.953 172.579 90.9121C172.399 91.3918 172.215 91.8849 172.026 92.389C171.861 92.9045 171.694 93.4311 171.523 93.9663C171.336 94.4981 171.217 95.0627 171.082 95.6291C170.937 96.1932 170.82 96.7735 170.726 97.367C170.615 97.9559 170.519 98.5535 170.463 99.1649L170.375 100.081L170.347 101.009C170.288 102.247 170.417 103.504 170.591 104.737C170.836 105.963 171.148 107.171 171.668 108.271C172.181 109.368 172.798 110.38 173.529 111.22C174.26 112.059 175.05 112.753 175.84 113.289C176.644 113.808 177.413 114.211 178.128 114.474C178.839 114.747 179.481 114.907 180.015 114.995C180.546 115.093 180.974 115.108 181.271 115.105C181.348 115.104 181.416 115.102 181.475 115.1C181.567 115.096 181.642 115.084 181.697 115.071C181.799 115.045 181.804 115.031 181.812 115.032C181.914 114.989 181.963 114.872 181.921 114.77C181.876 114.667 181.759 114.619 181.657 114.661ZM170.421 104.237C170.421 104.237 170.413 104.237 170.396 104.237C170.408 104.204 170.517 104.215 170.467 104.197C170.425 104.163 170.363 104.111 170.282 104.044C170.109 103.894 169.861 103.651 169.564 103.334C169.275 103.007 168.926 102.615 168.577 102.133C168.232 101.647 167.845 101.112 167.515 100.48C167.175 99.8566 166.85 99.1701 166.591 98.4224C166.324 97.6788 166.116 96.8763 165.988 96.0327C165.851 95.1915 165.796 94.3047 165.82 93.397C165.835 92.4877 165.947 91.5581 166.125 90.6274C166.307 89.6984 166.555 88.7694 166.851 87.8618C167.144 86.9525 167.497 86.0702 167.85 85.2117C168.205 84.3543 168.605 83.5425 168.992 82.7723C169.375 81.9987 169.752 81.2683 170.131 80.6084C170.859 79.2694 171.515 78.1638 171.97 77.382C172.425 76.5951 172.685 76.1453 172.685 76.1453C172.741 76.0483 172.708 75.9236 172.611 75.8676C172.535 75.8243 172.442 75.8358 172.378 75.8878C172.378 75.8878 171.974 76.2221 171.298 76.8439C170.628 77.4709 169.703 78.4011 168.675 79.6055C168.167 80.2111 167.643 80.8924 167.099 81.6274C166.578 82.3774 166.051 83.1886 165.546 84.061C165.038 84.9323 164.58 85.8774 164.169 86.8705C163.762 87.8647 163.416 88.9144 163.168 90.001C162.907 91.0841 162.779 92.21 162.742 93.3283C162.72 94.4478 162.83 95.5639 163.078 96.6153C163.565 98.7284 164.614 100.523 165.757 101.764C166.337 102.381 166.903 102.901 167.461 103.288C168.014 103.679 168.519 103.977 168.962 104.175C169.398 104.383 169.761 104.503 170.021 104.569C170.152 104.603 170.253 104.622 170.343 104.63C170.352 104.634 170.509 104.646 170.552 104.619C170.566 104.611 170.574 104.607 170.574 104.607C170.669 104.554 170.703 104.433 170.649 104.338C170.614 104.274 170.547 104.238 170.479 104.237L170.421 104.237Z" fill="#F7931B"/>
<path d="M124.716 186.329C123.101 186.329 121.57 185.714 120.404 184.595L98.0448 163.133C89.1839 154.627 80.0217 145.831 73.2757 135.437C67.9062 127.166 61.9541 114.356 64.0916 100.313C66.0991 87.1222 75.6897 75.8936 87.957 72.371C90.457 71.6534 93.1054 71.2891 95.8289 71.2891C102.03 71.2891 108.117 73.1459 112.97 76.5171C118.379 80.2741 122.562 86.6695 124.716 90.4432C126.87 86.6695 131.053 80.2741 136.463 76.5171C141.316 73.1459 147.403 71.2891 153.604 71.2891C156.327 71.2891 158.976 71.6534 161.476 72.371C173.743 75.8936 183.333 87.1222 185.341 100.313C187.479 114.355 181.527 127.165 176.157 135.437C169.41 145.831 160.248 154.626 151.388 163.133L129.028 184.595C127.862 185.713 126.332 186.329 124.716 186.329Z" fill="#F7931B"/>
<path d="M153.603 73.0638C156.107 73.0638 158.604 73.3929 160.985 74.0765C173.281 77.6065 181.8 88.8449 183.587 100.581C185.374 112.317 181.273 124.299 174.668 134.473C168.064 144.647 159.071 153.299 150.158 161.854L127.799 183.317C126.938 184.143 125.826 184.557 124.716 184.557C123.605 184.557 122.493 184.143 121.632 183.317L99.2727 161.854C90.3599 153.299 81.3668 144.647 74.7623 134.473C68.1578 124.299 64.0568 112.317 65.8437 100.581C67.6301 88.8449 76.1497 77.6065 88.4453 74.0765C90.827 73.3929 93.3229 73.0638 95.8276 73.0638C101.588 73.0638 107.394 74.8045 111.957 77.9743C119.517 83.2254 124.715 94.2277 124.715 94.2277C124.715 94.2277 129.913 83.226 137.472 77.9749C142.037 74.8045 147.842 73.0638 153.603 73.0638ZM153.603 69.5176C147.044 69.5176 140.597 71.4864 135.449 75.062C130.878 78.2376 127.16 83.1706 124.715 87.0176C122.27 83.1706 118.552 78.2376 113.981 75.062C108.833 71.487 102.386 69.5176 95.827 69.5176C92.9384 69.5176 90.1255 69.9044 87.4661 70.6683C74.5458 74.3779 64.4465 86.1844 62.3368 100.048C60.1151 114.642 66.2496 127.874 71.7871 136.404C78.6474 146.973 87.8841 155.839 96.816 164.413L119.175 185.876C120.672 187.313 122.639 188.104 124.715 188.104C126.79 188.104 128.757 187.313 130.254 185.876L152.614 164.413C161.546 155.839 170.783 146.973 177.643 136.404C183.18 127.874 189.314 114.642 187.093 100.048C184.983 86.1839 174.884 74.3773 161.963 70.6683C159.304 69.9044 156.492 69.5176 153.603 69.5176Z" fill="white"/>
<path d="M176.992 108.501C176.937 108.988 176.498 109.338 176.012 109.283C175.525 109.228 175.175 108.789 175.23 108.302C175.532 105.627 175.501 102.998 175.109 100.424C174.771 98.2049 174.103 96.017 173.138 93.9354C172.191 91.8932 170.966 89.9757 169.518 88.2595C168.071 86.5455 166.416 85.0519 164.619 83.8409C162.793 82.6107 160.84 81.6862 158.825 81.1073C158.442 80.9972 158.05 80.9001 157.649 80.8165C157.248 80.7327 156.843 80.6631 156.432 80.6077C156.022 80.5519 155.604 80.5099 155.178 80.4816C154.752 80.4533 154.322 80.4391 153.891 80.4391C152.901 80.4391 151.899 80.5144 150.902 80.6627C149.915 80.8096 148.939 81.028 147.99 81.3137C147.042 81.5995 146.127 81.9501 145.261 82.3601C144.388 82.7736 143.57 83.2443 142.82 83.7657C141.763 84.4995 140.676 85.4915 139.577 86.7054C138.596 87.7885 137.623 89.0287 136.68 90.3787C136.399 90.7799 135.846 90.8778 135.445 90.5973C135.044 90.3168 134.946 89.764 135.226 89.3627C136.21 87.9552 137.228 86.6573 138.263 85.5151C139.447 84.208 140.63 83.1274 141.808 82.3095C142.64 81.7316 143.542 81.2122 144.502 80.7577C145.448 80.3094 146.446 79.927 147.479 79.6159C148.51 79.3055 149.57 79.0685 150.641 78.9089C151.723 78.7478 152.813 78.666 153.891 78.666C154.362 78.666 154.83 78.6816 155.295 78.7124C155.762 78.7434 156.221 78.7895 156.67 78.8506C157.122 78.9116 157.569 78.9884 158.012 79.0809C158.455 79.1734 158.89 79.281 159.315 79.4031C161.511 80.0342 163.633 81.0385 165.61 82.3705C167.544 83.674 169.321 85.2779 170.872 87.1158C172.423 88.9524 173.732 91.0036 174.746 93.1893C175.782 95.4211 176.498 97.7702 176.862 100.158C177.278 102.889 177.311 105.675 176.992 108.501Z" fill="white"/>
<path d="M139.687 161.874L144.751 157.014C146.076 155.742 146.621 155.218 147.336 154.528C148.809 153.108 150.036 151.914 151.204 150.763C153.549 148.45 155.586 146.37 157.473 144.351C159.614 142.058 161.535 139.865 163.282 137.706C163.59 137.326 164.148 137.267 164.529 137.575C164.909 137.883 164.968 138.441 164.66 138.822C162.886 141.015 160.937 143.239 158.768 145.561C156.864 147.6 154.81 149.696 152.449 152.025C151.276 153.182 150.044 154.38 148.567 155.805C147.851 156.495 147.305 157.02 145.979 158.293L125.725 177.734C125.382 178.063 124.84 178.063 124.497 177.734L104.245 158.293C101.019 155.196 99.5638 153.789 97.7751 152.025C95.4138 149.696 93.3596 147.6 91.4552 145.561C89.2839 143.235 87.3358 141.013 85.5635 138.822C83.6255 136.427 81.9017 134.075 80.3792 131.729C79.1333 129.81 77.9825 127.821 76.9552 125.775C75.7852 123.444 74.7965 121.08 74.0179 118.695C73.1534 116.046 72.5576 113.4 72.2603 110.769C71.9359 107.898 71.9702 105.067 72.393 102.289C72.7629 99.8616 73.4911 97.4744 74.5425 95.2075C75.5715 92.9876 76.9025 90.9032 78.4793 89.0346C80.0555 87.1669 81.8613 85.5368 83.8277 84.2118C85.8371 82.8578 87.9933 81.8371 90.2252 81.1963C90.6593 81.072 91.1003 80.963 91.5485 80.8691C91.996 80.7753 92.4512 80.6972 92.9128 80.6348C93.3741 80.5725 93.8404 80.5255 94.31 80.4943C94.7811 80.4629 95.2569 80.4473 95.7371 80.4473C96.2268 80.4473 96.6237 80.8442 96.6237 81.3338C96.6237 81.8234 96.2268 82.2204 95.7371 82.2204C95.2959 82.2204 94.8594 82.2347 94.4277 82.2634C93.9982 82.292 93.5719 82.335 93.1503 82.3919C92.7307 82.4487 92.3176 82.5196 91.912 82.6045C91.5056 82.6897 91.106 82.7884 90.7139 82.9007C88.6645 83.4891 86.6768 84.43 84.8186 85.6822C82.9895 86.9147 81.3059 88.4344 79.8344 90.1781C78.3591 91.9263 77.1136 93.877 76.1511 95.9534C75.1693 98.0702 74.4902 100.296 74.1459 102.556C73.7473 105.175 73.7149 107.85 74.0222 110.57C74.3055 113.077 74.875 115.606 75.7035 118.145C76.4535 120.443 77.4082 122.725 78.5398 124.979C79.5366 126.965 80.6549 128.898 81.8665 130.764C83.3538 133.056 85.0412 135.358 86.9419 137.707C88.6862 139.863 90.6071 142.054 92.7511 144.351C94.6373 146.37 96.675 148.45 99.0202 150.763C100.801 152.519 102.253 153.922 105.473 157.014L125.111 175.865L139.687 161.874Z" fill="white"/>
<path d="M140.532 114.08C140.789 114.08 141.027 114.144 141.247 114.273C141.467 114.401 141.64 114.572 141.765 114.786C141.89 114.998 141.953 115.213 141.953 115.43C141.953 115.579 141.932 115.74 141.891 115.912C141.851 116.085 141.8 116.254 141.74 116.42C141.679 116.585 141.618 116.756 141.557 116.932L137.954 126.655C137.825 127.027 137.697 127.38 137.568 127.715C137.44 128.05 137.291 128.345 137.122 128.599C136.952 128.852 136.727 129.06 136.447 129.223C136.166 129.385 135.823 129.466 135.417 129.466C135.011 129.466 134.667 129.387 134.386 129.227C134.106 129.068 133.879 128.859 133.707 128.599C133.534 128.338 133.383 128.042 133.255 127.711C133.127 127.379 132.998 127.027 132.87 126.655L129.327 117.013C129.267 116.837 129.204 116.665 129.14 116.496C129.075 116.326 129.021 116.144 128.977 115.947C128.933 115.751 128.911 115.586 128.911 115.45C128.911 115.105 129.05 114.791 129.327 114.506C129.605 114.222 129.953 114.08 130.372 114.08C130.887 114.08 131.25 114.237 131.464 114.552C131.677 114.867 131.895 115.369 132.118 116.059L135.488 126.036L138.867 115.988C139.043 115.461 139.175 115.094 139.263 114.887C139.351 114.681 139.497 114.494 139.7 114.329C139.903 114.163 140.18 114.08 140.532 114.08ZM125.024 114.08C125.477 114.08 125.844 114.231 126.125 114.532C126.406 114.833 126.546 115.291 126.546 115.907V127.629C126.546 128.245 126.406 128.705 126.125 129.01C125.844 129.314 125.477 129.466 125.024 129.466C124.591 129.466 124.234 129.312 123.953 129.004C123.673 128.697 123.532 128.238 123.532 127.629V115.907C123.532 115.298 123.671 114.841 123.948 114.537C124.226 114.232 124.584 114.08 125.024 114.08ZM114.094 114.08C115.095 114.08 115.981 114.214 116.752 114.481C117.524 114.748 118.15 115.085 118.63 115.491C119.11 115.897 119.472 116.326 119.716 116.78C119.96 117.233 120.081 117.636 120.081 117.988C120.081 118.366 119.941 118.689 119.661 118.957C119.38 119.224 119.043 119.358 118.651 119.358C118.434 119.358 118.226 119.307 118.027 119.205C117.827 119.104 117.659 118.962 117.524 118.779C117.152 118.197 116.837 117.758 116.58 117.46C116.323 117.162 115.976 116.912 115.54 116.709C115.103 116.506 114.547 116.404 113.87 116.404C113.173 116.404 112.551 116.524 112.003 116.765C111.455 117.005 110.986 117.353 110.597 117.81C110.208 118.267 109.911 118.827 109.704 119.489C109.498 120.153 109.394 120.887 109.394 121.692C109.394 123.438 109.795 124.781 110.597 125.721C111.399 126.662 112.517 127.132 113.952 127.132C114.648 127.132 115.303 127.041 115.915 126.858C116.528 126.675 117.148 126.414 117.778 126.076V123.661H115.443C114.882 123.661 114.457 123.576 114.17 123.407C113.882 123.238 113.738 122.95 113.738 122.544C113.738 122.213 113.859 121.939 114.099 121.722C114.339 121.506 114.665 121.398 115.078 121.398H118.498C118.918 121.398 119.273 121.435 119.564 121.509C119.855 121.584 120.09 121.75 120.269 122.007C120.448 122.264 120.538 122.65 120.538 123.164V126.015C120.538 126.394 120.501 126.697 120.427 126.924C120.352 127.15 120.215 127.355 120.016 127.538C119.816 127.72 119.56 127.896 119.249 128.066C118.35 128.553 117.483 128.908 116.651 129.131C115.819 129.355 114.912 129.466 113.931 129.466C112.788 129.466 111.746 129.29 110.805 128.938C109.865 128.586 109.063 128.075 108.4 127.406C107.737 126.736 107.228 125.924 106.872 124.97C106.517 124.016 106.34 122.95 106.34 121.773C106.34 120.616 106.512 119.557 106.857 118.596C107.202 117.636 107.71 116.82 108.38 116.151C109.05 115.481 109.865 114.968 110.826 114.613C111.786 114.258 112.876 114.08 114.094 114.08ZM154.02 114.334C154.5 114.334 154.857 114.441 155.091 114.653C155.324 114.867 155.441 115.146 155.441 115.491C155.441 115.843 155.324 116.125 155.091 116.338C154.857 116.551 154.5 116.658 154.02 116.658H147.23V120.312H153.482C153.942 120.312 154.285 120.415 154.512 120.621C154.739 120.827 154.852 121.1 154.852 121.438C154.852 121.776 154.741 122.052 154.517 122.265C154.294 122.479 153.949 122.585 153.482 122.585L147.23 122.585V126.817H154.253C154.727 126.817 155.084 126.927 155.324 127.147C155.564 127.367 155.684 127.659 155.684 128.025C155.684 128.376 155.564 128.662 155.324 128.883C155.084 129.102 154.727 129.212 154.253 129.212H146.063C145.407 129.212 144.935 129.067 144.647 128.776C144.36 128.485 144.216 128.015 144.216 127.365V116.181C144.216 115.748 144.28 115.395 144.409 115.12C144.537 114.846 144.739 114.647 145.013 114.522C145.287 114.397 145.637 114.334 146.063 114.334L154.02 114.334ZM99.2454 114.242C100.281 114.242 101.164 114.405 101.894 114.73C102.368 114.946 102.784 115.244 103.143 115.623C103.501 116.002 103.78 116.44 103.98 116.937C104.18 117.434 104.279 117.95 104.279 118.485C104.279 119.324 104.071 120.087 103.655 120.773C103.239 121.46 102.815 121.998 102.382 122.387C101.949 122.776 101.223 123.387 100.204 124.219C99.1863 125.051 98.4877 125.697 98.1086 126.157C97.9465 126.34 97.7808 126.56 97.6115 126.817H102.909C103.437 126.817 103.84 126.926 104.117 127.142C104.394 127.359 104.533 127.653 104.533 128.025C104.533 128.356 104.423 128.637 104.203 128.867C103.983 129.097 103.65 129.212 103.204 129.212H95.7339C95.2265 129.212 94.8309 129.072 94.5468 128.791C94.2623 128.51 94.1201 128.181 94.1201 127.802C94.1201 127.558 94.2115 127.235 94.3944 126.832C94.5768 126.43 94.7764 126.113 94.9931 125.883C95.893 124.95 96.705 124.15 97.429 123.483C98.153 122.817 98.6705 122.379 98.9815 122.169C99.5366 121.776 99.9985 121.382 100.367 120.987C100.736 120.591 101.017 120.185 101.21 119.769C101.402 119.353 101.499 118.945 101.499 118.545C101.499 118.112 101.396 117.725 101.189 117.384C100.983 117.042 100.702 116.776 100.346 116.587C99.9916 116.398 99.6043 116.303 99.1848 116.303C98.2983 116.303 97.6014 116.692 97.0941 117.47C97.0264 117.571 96.913 117.849 96.7541 118.302C96.5951 118.755 96.4157 119.104 96.216 119.347C96.0166 119.591 95.724 119.713 95.3384 119.713C95 119.713 94.7192 119.601 94.496 119.378C94.2727 119.155 94.1611 118.85 94.1611 118.465C94.1611 117.998 94.2658 117.511 94.4752 117.003C94.685 116.496 94.9979 116.035 95.414 115.623C95.8305 115.21 96.3584 114.877 96.9977 114.623C97.6371 114.369 98.3863 114.242 99.2454 114.242Z" fill="white"/>
</svg>
