<svg width="200" height="200" viewBox="0 0 200 200" fill="none" xmlns="http://www.w3.org/2000/svg">
<g clip-path="url(#clip0_4695_10710)">
<circle cx="100" cy="100" r="100" fill="#9391FE"/>
<g clip-path="url(#clip1_4695_10710)">
<path d="M79.5394 103.725C88.3402 103.725 95.4751 96.5897 95.4751 87.7879C95.4751 78.9866 88.3402 71.8516 79.5394 71.8516C70.7382 71.8516 63.6035 78.9866 63.6035 87.7879C63.6035 96.5897 70.7382 103.725 79.5394 103.725Z" fill="white"/>
<path d="M121.191 103.725C129.993 103.725 137.128 96.5897 137.128 87.7879C137.128 78.9866 129.993 71.8516 121.191 71.8516C112.391 71.8516 105.256 78.9866 105.256 87.7879C105.256 96.5897 112.391 103.725 121.191 103.725Z" fill="white"/>
<path d="M100.339 22C57.0694 22 21.9887 57.7506 22 101.838H42.0132C42.0132 68.7979 67.9198 42.0104 100.339 42.0104C132.758 42.0104 158.665 68.7979 158.665 101.838H178.678C178.685 57.7506 143.604 22 100.339 22Z" fill="white"/>
</g>
</g>
<defs>
<clipPath id="clip0_4695_10710">
<rect width="200" height="200" fill="white"/>
</clipPath>
<clipPath id="clip1_4695_10710">
<rect width="156.914" height="82" fill="white" transform="translate(22 22)"/>
</clipPath>
</defs>
</svg>
