<svg width="250" height="250" viewBox="0 0 250 250" fill="none" xmlns="http://www.w3.org/2000/svg">
<g clip-path="url(#clip0_242_94021)">
<rect width="250" height="250" rx="125" fill="white"/>
<mask id="mask0_242_94021" style="mask-type:luminance" maskUnits="userSpaceOnUse" x="0" y="0" width="250" height="251">
<path d="M250 0.00195312H0V250.002H250V0.00195312Z" fill="white"/>
</mask>
<g mask="url(#mask0_242_94021)">
<path d="M205.564 178.343L125.355 132.414L44.373 178.532L205.564 178.343Z" fill="#662D91"/>
<path d="M125.381 39.9844L125.355 132.41L205.565 178.339L125.381 39.9844Z" fill="#9E1F63"/>
<path d="M44.373 178.528L125.354 132.41L125.381 39.9844L44.373 178.528Z" fill="#FF5000"/>
<path d="M125.19 96.0527L92.0781 151.361H158.452L125.19 96.0527Z" fill="white" stroke="#FF5000" stroke-width="0.97669" stroke-miterlimit="10"/>
<path d="M125 250.003C116.538 250.005 108.097 249.154 99.8051 247.463C83.8158 244.188 68.6279 237.797 55.1079 228.654C35.0108 215.088 19.2794 195.985 9.81978 173.659C6.62478 166.098 4.18613 158.239 2.5395 150.198C-0.846501 133.574 -0.846501 116.438 2.5395 99.8141C5.8144 83.8248 12.2055 68.6369 21.3481 55.1168C34.9144 35.0186 54.0184 19.2862 76.3452 9.82578C83.9056 6.62935 91.7639 4.18938 99.8051 2.5416C116.429 -0.844595 133.565 -0.844595 150.189 2.5416C166.178 5.81644 181.366 12.2075 194.886 21.3502C214.983 34.9165 230.715 54.0201 240.174 76.3463C243.372 83.9069 245.813 91.7656 247.461 99.8072C250.847 116.431 250.847 133.567 247.461 150.191C244.187 166.18 237.796 181.368 228.653 194.888C215.086 214.985 195.982 230.716 173.657 240.176C166.096 243.373 158.237 245.814 150.196 247.463C141.904 249.154 133.463 250.005 125 250.003ZM125 13.3941C117.446 13.3925 109.91 14.1522 102.507 15.6617C88.2307 18.5855 74.6697 24.292 62.5981 32.4557C44.6567 44.5699 30.613 61.6268 22.1684 81.5602C19.3146 88.3115 17.1364 95.3288 15.6655 102.509C12.6422 117.352 12.6422 132.652 15.6655 147.495C18.5903 161.771 24.2979 175.332 32.4624 187.403C44.5756 205.347 61.6322 219.393 81.5659 227.839C88.3176 230.693 95.3353 232.871 102.516 234.341C117.359 237.365 132.659 237.365 147.501 234.341C161.778 231.418 175.339 225.71 187.41 217.545C205.348 205.431 219.389 188.376 227.832 168.445C230.686 161.693 232.864 154.676 234.335 147.495C237.359 132.652 237.359 117.352 234.335 102.509C231.41 88.2333 225.703 74.673 217.539 62.6021C205.427 44.6612 188.373 30.617 168.443 22.1705C161.691 19.3169 154.673 17.1386 147.493 15.6676C140.091 14.1564 132.555 13.3941 125 13.3941Z" fill="url(#paint0_linear_242_94021)"/>
</g>
</g>
<defs>
<linearGradient id="paint0_linear_242_94021" x1="210.751" y1="33.752" x2="51.5004" y2="221.503" gradientUnits="userSpaceOnUse">
<stop stop-color="#B6509E"/>
<stop offset="1" stop-color="#2EBAC6"/>
</linearGradient>
<clipPath id="clip0_242_94021">
<rect width="250" height="250" rx="125" fill="white"/>
</clipPath>
</defs>
</svg>
