<svg width="250" height="250" viewBox="0 0 250 250" fill="none" xmlns="http://www.w3.org/2000/svg">
<g clip-path="url(#clip0_242_94027)">
<rect width="250" height="250" rx="125" fill="white"/>
<mask id="mask0_242_94027" style="mask-type:luminance" maskUnits="userSpaceOnUse" x="-1" y="0" width="251" height="251">
<path d="M249.996 0.00195312H-0.00390625V250.002H249.996V0.00195312Z" fill="white"/>
</mask>
<g mask="url(#mask0_242_94027)">
<path d="M124.997 250C116.534 250.002 108.093 249.151 99.8012 247.461C83.812 244.186 68.6242 237.794 55.104 228.651C35.0068 215.085 19.2753 195.982 9.81589 173.655C6.62088 166.095 4.18223 158.236 2.53562 150.195C-0.850414 133.571 -0.850414 116.436 2.53562 99.8116C5.81054 83.8224 12.2016 68.6345 21.3442 55.1144C34.9105 35.0161 54.0145 19.2837 76.3413 9.82334C83.9017 6.62697 91.76 4.187 99.8012 2.53916C116.425 -0.846387 133.561 -0.846387 150.185 2.53916C166.174 5.81406 181.362 12.2051 194.882 21.3478C214.979 34.9145 230.711 54.0184 240.17 76.3448C243.368 83.9051 245.809 91.7635 247.457 99.8048C250.844 116.429 250.844 133.565 247.457 150.189C244.183 166.178 237.792 181.366 228.649 194.886C215.082 214.982 195.979 230.713 173.653 240.173C166.092 243.37 158.233 245.811 150.192 247.461C141.9 249.151 133.459 250.002 124.997 250ZM124.997 13.3917C117.442 13.39 109.907 14.1497 102.504 15.6593C88.2275 18.5834 74.6661 24.2903 62.5942 32.4542C44.6528 44.568 30.6091 61.6246 22.1645 81.5577C19.3107 88.309 17.1325 95.3263 15.6616 102.507C12.6383 117.35 12.6383 132.65 15.6616 147.492C18.5867 161.769 24.2942 175.329 32.4585 187.4C44.5718 205.344 61.6283 219.39 81.562 227.837C88.3137 230.69 95.3313 232.868 102.512 234.339C117.355 237.363 132.655 237.363 147.498 234.339C161.774 231.415 175.335 225.708 187.406 217.542C205.344 205.428 219.385 188.373 227.829 168.442C230.682 161.691 232.861 154.674 234.332 147.493C237.355 132.651 237.355 117.351 234.332 102.508C231.406 88.2319 225.699 74.6715 217.535 62.6007C205.423 44.6594 188.369 30.6148 168.439 22.1681C161.687 19.3141 154.67 17.1358 147.489 15.6651C140.087 14.1539 132.551 13.3916 124.997 13.3917Z" fill="url(#paint0_linear_242_94027)"/>
<path d="M124.98 29.0195L148.913 52.958L88.8545 113.038L64.916 89.0996L124.98 29.0195ZM65.0264 160.994L88.959 184.933L184.94 88.9512L161.008 65.0127L65.0264 160.994ZM101.02 196.988L124.975 220.983L220.956 125.002L197.023 101.063L101.02 196.988ZM76.8867 125.001L52.9482 101.063L29.0156 125.001L52.9482 148.934L76.8867 125.001Z" fill="#F0B90B"/>
</g>
</g>
<defs>
<linearGradient id="paint0_linear_242_94027" x1="210.747" y1="33.75" x2="51.4969" y2="221.501" gradientUnits="userSpaceOnUse">
<stop stop-color="#B6509E"/>
<stop offset="1" stop-color="#2EBAC6"/>
</linearGradient>
<clipPath id="clip0_242_94027">
<rect width="250" height="250" rx="125" fill="white"/>
</clipPath>
</defs>
</svg>
