<svg width="250" height="250" viewBox="0 0 250 250" fill="none" xmlns="http://www.w3.org/2000/svg">
<path fill-rule="evenodd" clip-rule="evenodd" d="M122.932 31.1113C71.955 31.1113 30.6445 72.4217 30.6445 123.361C30.6445 174.338 71.955 215.611 122.895 215.611C122.895 215.611 134.751 216.14 147.703 213.61C149.309 213.293 150.933 212.965 152.554 212.637L152.554 212.637C160.809 210.967 169.022 209.305 174.703 209.305C184.742 209.305 192.361 210.908 198.045 212.104C201.425 212.816 204.12 213.383 206.233 213.383C211.897 213.383 215.145 209.984 215.145 205.831V123.361C215.182 72.4217 173.872 31.1113 122.932 31.1113ZM123.31 201.526C80.2246 201.526 45.2958 166.597 45.2958 123.512C45.2958 80.427 80.2246 45.4982 123.31 45.4982C166.395 45.4982 201.324 80.427 201.324 123.512C201.324 166.597 166.395 201.526 123.31 201.526ZM123.309 179.334C92.4958 179.334 67.4603 154.261 67.4603 123.486C67.4603 92.711 92.4958 67.6378 123.309 67.6378C148.571 67.6378 170.736 84.6679 177.269 109.024C178.251 112.724 176.061 116.538 172.36 117.52C168.66 118.502 164.846 116.312 163.864 112.611C158.993 94.297 142.302 81.5338 123.346 81.5338C100.199 81.5338 81.394 100.339 81.394 123.486C81.394 146.634 100.199 165.438 123.346 165.438C141.132 165.438 157.029 154.186 162.92 137.42C164.204 133.795 168.169 131.907 171.756 133.153C175.381 134.437 177.269 138.402 176.023 141.989C168.131 164.306 146.985 179.334 123.309 179.334ZM109.754 107.265L114.285 112.212C116.06 110.437 119.232 109.342 120.591 109.38C120.675 109.38 120.771 109.378 120.876 109.376C122.518 109.351 126.52 109.287 126.52 114.326C126.52 119.688 121.724 119.537 121.724 119.537H115.003V126.561H121.875C123.952 126.561 127.388 129.015 127.388 132.187C127.388 135.359 125.198 137.7 121.346 137.7C117.495 137.7 113.794 134.113 113.794 134.113L108.432 139.06C108.432 139.06 109.792 140.721 111.038 141.665C112.284 142.609 115.569 144.95 122.442 144.95C129.314 144.95 136.866 140.683 136.866 133.811C136.866 126.372 129.012 122.52 129.012 122.52C129.012 122.52 135.469 119.915 135.469 112.212C135.469 106.132 129.994 101.337 122.139 101.337C114.285 101.337 109.754 107.265 109.754 107.265Z" fill="url(#paint0_linear_242_93202)"/>
<defs>
<linearGradient id="paint0_linear_242_93202" x1="30.6445" y1="123.168" x2="215.145" y2="123.168" gradientUnits="userSpaceOnUse">
<stop stop-color="#6CE9CE"/>
<stop offset="1" stop-color="#4DB8C8"/>
</linearGradient>
</defs>
</svg>
