<svg width="250" height="250" viewBox="0 0 250 250" fill="none" xmlns="http://www.w3.org/2000/svg">
<path d="M59.5 150.547L113.1 58.9473L177 169.747H164.25L149.1 143.447C149.1 143.447 137.35 140.397 123.6 140.397C109.85 140.397 109.85 141.797 109.85 141.797L117.15 128.847C126.8 128.497 135.3 128.897 141.6 130.647L112.7 81.4973L66.6 161.997L59.5 150.547Z" fill="url(#paint0_linear_242_93203)"/>
<path d="M113.099 97.1484L71.0488 169.948H84.1988C103.849 160.248 125.549 156.348 151.749 164.698L143.849 150.148C125.299 147.248 108.549 147.798 93.8988 152.598L119.599 108.298L113.099 97.1484Z" fill="url(#paint1_linear_242_93203)"/>
<path d="M119.801 54.8477H132.751L188.151 151.148L181.651 162.848L119.801 54.8477Z" fill="url(#paint2_linear_242_93203)"/>
<path d="M125.25 227.85C68.45 227.85 22.25 181.65 22.25 124.85C22.25 68.0496 68.45 21.8496 125.25 21.8496C182.05 21.8496 228.25 68.0496 228.25 124.85C228.25 181.65 182.05 227.85 125.25 227.85ZM125.25 34.0996C75.2 34.0996 34.5 74.7996 34.5 124.85C34.5 174.9 75.2 215.6 125.25 215.6C175.3 215.6 216 174.9 216 124.85C216 74.7996 175.25 34.0996 125.25 34.0996Z" fill="url(#paint3_linear_242_93203)"/>
<path d="M125.248 247.798C57.448 247.798 2.24805 192.648 2.24805 124.848C2.24805 57.0484 57.448 1.89844 125.248 1.89844C193.048 1.89844 248.198 57.0484 248.198 124.848C248.198 192.648 193.048 247.798 125.248 247.798ZM125.248 13.5484C63.898 13.5484 13.948 63.4984 13.948 124.848C13.948 186.198 63.848 236.098 125.198 236.098C186.548 236.098 236.448 186.198 236.448 124.848C236.498 63.4984 186.598 13.5484 125.248 13.5484Z" fill="url(#paint4_linear_242_93203)"/>
<defs>
<linearGradient id="paint0_linear_242_93203" x1="21.3273" y1="49.5095" x2="212.573" y2="219.693" gradientUnits="userSpaceOnUse">
<stop stop-color="#FC4F44"/>
<stop offset="0.5138" stop-color="#EF1A52"/>
<stop offset="1" stop-color="#7F4BD8"/>
</linearGradient>
<linearGradient id="paint1_linear_242_93203" x1="10.8591" y1="61.2731" x2="202.105" y2="231.456" gradientUnits="userSpaceOnUse">
<stop stop-color="#FC4F44"/>
<stop offset="0.5138" stop-color="#EF1A52"/>
<stop offset="1" stop-color="#7F4BD8"/>
</linearGradient>
<linearGradient id="paint2_linear_242_93203" x1="51.8946" y1="15.1603" x2="243.14" y2="185.343" gradientUnits="userSpaceOnUse">
<stop stop-color="#FC4F44"/>
<stop offset="0.5138" stop-color="#EF1A52"/>
<stop offset="1" stop-color="#7F4BD8"/>
</linearGradient>
<linearGradient id="paint3_linear_242_93203" x1="29.8338" y1="39.9525" x2="221.079" y2="210.136" gradientUnits="userSpaceOnUse">
<stop stop-color="#FC4F44"/>
<stop offset="0.5138" stop-color="#EF1A52"/>
<stop offset="1" stop-color="#7F4BD8"/>
</linearGradient>
<linearGradient id="paint4_linear_242_93203" x1="29.8318" y1="39.9513" x2="221.077" y2="210.134" gradientUnits="userSpaceOnUse">
<stop stop-color="#FC4F44"/>
<stop offset="0.5138" stop-color="#EF1A52"/>
<stop offset="1" stop-color="#7F4BD8"/>
</linearGradient>
</defs>
</svg>
