<svg width="250" height="250" viewBox="0 0 250 250" fill="none" xmlns="http://www.w3.org/2000/svg">
<g clip-path="url(#clip0_242_94278)">
<path d="M204.503 181.866L188.022 66.3678C187.68 63.9723 186.004 61.9804 183.702 61.2337C181.401 60.487 178.875 61.1153 177.192 62.8538L125.011 116.747L72.8302 62.8536C71.1468 61.1152 68.6206 60.4867 66.3195 61.2335C64.0178 61.9804 62.3422 63.9722 62.0005 66.3676L45.5187 181.866C45.2097 184.032 46.0395 186.205 47.714 187.613C48.8726 188.588 50.3221 189.101 51.7949 189.101C52.4504 189.101 53.1107 188.999 53.7518 188.791L125.011 165.655L196.27 188.791C196.911 188.999 197.571 189.101 198.227 189.101C199.699 189.101 201.149 188.587 202.308 187.613C203.982 186.205 204.812 184.032 204.503 181.866H204.503ZM59.5059 173.593L72.7233 80.9696L116.187 125.86L96.0512 146.657C94.5296 148.228 93.9257 150.473 94.4537 152.596C94.9818 154.719 96.5672 156.42 98.6477 157.096L104.483 158.99L59.5057 173.593H59.5059ZM125.011 152.325L112.228 148.175L125.011 134.973L137.793 148.175L125.011 152.325ZM145.539 158.99L151.374 157.096C153.455 156.42 155.04 154.719 155.568 152.596C156.096 150.473 155.492 148.228 153.971 146.657L133.834 125.86L177.299 80.9696L190.516 173.593L145.539 158.99Z" fill="url(#paint0_linear_242_94278)"/>
</g>
<defs>
<linearGradient id="paint0_linear_242_94278" x1="125.011" y1="61.5694" x2="125.011" y2="187.822" gradientUnits="userSpaceOnUse">
<stop stop-color="#E9313B"/>
<stop offset="1" stop-color="#FF9774"/>
</linearGradient>
<clipPath id="clip0_242_94278">
<rect width="159.112" height="159.112" fill="white" transform="translate(45.4551 45.457)"/>
</clipPath>
</defs>
</svg>
