<svg width="250" height="250" viewBox="0 0 250 250" fill="none" xmlns="http://www.w3.org/2000/svg">
<rect width="250" height="250" rx="125" fill="white"/>
<path d="M54.7803 124.296C54.8257 62.6966 85.557 12.3036 124.517 12.1445C163.499 12.3036 194.23 62.6966 194.253 124.296C194.208 185.872 163.499 236.265 124.517 236.447C85.557 236.265 54.8257 185.872 54.7803 124.296Z" fill="black"/>
<path d="M64.3027 124.294C64.3255 67.9006 90.8744 21.8036 124.538 21.6445C158.201 21.8036 184.75 67.9006 184.773 124.294C184.75 180.665 158.201 226.762 124.538 226.921C90.8517 226.762 64.3255 180.665 64.3027 124.294Z" fill="white"/>
<path d="M124.836 222.465H124.541H124.518C109.129 222.465 95.0821 211.555 84.9217 193.802C78.5345 182.665 73.7384 168.822 71.0108 153.365C87.0584 182.937 124.063 193.871 153.613 177.8C163.955 172.186 172.433 163.685 178.048 153.365C175.297 168.799 170.524 182.687 164.137 193.802C154.022 211.464 140.111 222.329 124.836 222.465ZM124.495 26.0987C124.518 26.0987 124.541 26.0987 124.563 26.0987C139.952 26.0987 153.976 37.0092 164.159 54.7843C170.547 65.9448 175.343 79.833 178.07 95.3123C170.274 80.9922 157.113 70.3772 141.452 65.8312L141.247 65.7403V65.7857C135.815 64.2173 130.178 63.4218 124.518 63.399C101.378 63.399 81.2622 76.2871 70.9426 95.2896C73.6703 79.8103 78.4891 65.9221 84.899 54.7843C95.0821 37.0092 109.107 26.0987 124.495 26.0987ZM162.5 132.954H180.866C178.866 146.023 172.388 158.002 162.5 166.799V132.954ZM180.593 113.747H162.523L162.5 81.7651C171.91 90.1525 178.275 101.381 180.593 113.747ZM127.677 113.747V67.3996C132.292 67.6723 136.86 68.4906 141.27 69.8772V70.3772V113.747H127.677ZM141.27 132.976L141.247 178.164V178.732C136.838 180.096 132.269 180.937 127.677 181.21V132.954L141.27 132.976ZM124.541 20.7344C90.036 20.9389 63.0552 67.4678 63.0098 124.293C63.0552 181.119 90.036 227.648 124.518 227.852C159.022 227.671 186.003 181.119 186.026 124.293C186.003 67.4678 159.022 20.9389 124.541 20.7344Z" fill="black"/>
<path fill-rule="evenodd" clip-rule="evenodd" d="M186.047 124.295C186.002 181.121 159.044 227.65 124.539 227.854C90.0346 227.672 63.0538 181.121 63.0311 124.295C63.0765 67.4697 90.0573 20.9181 124.539 20.7363C159.021 20.9181 186.002 67.4697 186.047 124.295ZM57.0303 124.295C57.0303 93.8367 64.6676 66.2422 76.9647 46.376C89.2618 26.487 106.105 14.3945 124.539 14.3945C142.951 14.3945 159.794 26.487 172.091 46.376C184.388 66.2422 192.025 93.8367 192.025 124.295C192.025 154.754 184.388 182.326 172.091 202.192C159.794 222.081 142.951 234.173 124.539 234.173C106.128 234.173 89.2845 222.081 76.9874 202.192C64.6904 182.326 57.0303 154.754 57.0303 124.295Z" fill="#C90C0F"/>
<path d="M112.633 198.254C111.201 197.981 109.36 198.55 109.019 200.55C108.701 202.323 109.906 203.732 111.701 204.05C113.292 204.391 114.884 203.368 115.225 201.777C115.225 201.755 115.247 201.709 115.247 201.686C115.475 200.391 114.815 198.64 112.633 198.254ZM116.202 193.708C116.452 192.299 115.406 191.208 114.134 190.98C112.361 190.662 111.11 191.412 110.86 192.753C110.679 193.844 111.497 195.208 113.202 195.504C114.747 195.799 115.952 195.026 116.202 193.708ZM111.156 206.937C105.996 206.028 104.746 202.618 105.201 200.095C105.36 199.163 105.792 196.731 109.065 195.981C107.61 194.981 106.973 193.663 107.269 191.958C107.815 188.821 110.883 187.412 114.384 188.048C118.52 188.798 120.339 191.435 119.884 193.981C119.612 195.549 118.68 196.777 116.929 197.277C118.702 198.504 119.566 199.868 119.157 202.232C118.748 204.55 116.475 207.892 111.156 206.937Z" fill="black"/>
<path d="M147.886 194.707C149.205 194.253 150.387 192.889 149.682 190.821C149 188.82 147.636 187.934 145.659 188.593C144.704 188.911 142.749 190.093 143.613 192.594C144.522 195.23 146.454 195.208 147.886 194.707ZM146.045 200.299C146.932 201.39 148.295 201.754 149.75 201.027C151.25 200.276 152.478 198.731 151.25 195.048L151.182 195.003C150.705 196.503 149.318 197.299 148.023 197.753C144.34 199.004 141.317 197.208 140.317 194.298C138.84 190.002 140.953 187.047 144.727 185.752C151.387 183.479 153.751 189.98 154.592 192.434C156.91 199.208 154.137 202.618 150.682 203.8C147.704 204.822 144.999 204.163 143.567 202.027L146.045 200.299Z" fill="black"/>
<path d="M100.79 184.525C100.517 185.298 98.1984 187.23 95.3116 186.253L94.7661 186.071L93.9933 188.276H94.016L93.6523 189.344L94.3797 189.594C96.3345 190.276 97.6529 190.276 98.5393 189.935L94.5616 201.687L98.3802 203.005L104.29 185.707L100.79 184.525Z" fill="black"/>
<path d="M130.43 198.187C131.817 198.073 133.294 197.028 133.112 194.868C132.93 192.754 131.839 191.55 129.771 191.732C128.748 191.823 126.589 192.459 126.793 195.096C127.043 197.869 128.93 198.301 130.43 198.187ZM127.271 203.142V203.188C127.862 204.415 129.089 205.097 130.703 204.756C132.317 204.392 133.908 203.233 133.612 199.346L133.544 199.301C132.726 200.619 131.18 201.051 129.816 201.165C125.93 201.506 123.452 199.005 123.202 195.914C122.838 191.391 125.611 189.049 129.566 188.731C136.59 188.14 137.272 195.005 137.499 197.619C138.09 204.756 134.567 207.37 130.907 207.666C127.771 207.938 125.316 206.62 124.452 204.211L127.271 203.142Z" fill="black"/>
<path d="M132.634 51.7819C129.043 55.6688 122.974 55.9188 119.087 52.3502C115.2 48.7815 114.95 42.6898 118.519 38.8029C122.11 34.9161 128.179 34.666 132.066 38.2347C132.27 38.4165 132.452 38.5984 132.634 38.8029L135.544 36.1208C130.475 30.62 121.928 30.2791 116.427 35.3479C110.927 40.4168 110.586 48.9634 115.655 54.4641C120.723 59.9648 129.27 60.3057 134.771 55.2369C135.043 54.9869 135.316 54.7141 135.566 54.4413L132.634 51.7819Z" fill="black"/>
<path d="M136.521 59.8731L143.272 37.7793L146.5 39.9387L149.296 53.2131L152.637 44.9166L154.978 46.7805L162.411 71.8974C160.843 70.6472 159.206 69.4653 157.524 68.3742L153.205 53.8041L149.137 63.8736C148.455 63.5781 147.773 63.2826 147.091 63.0099L144.182 47.8715L140.272 60.7368C139.045 60.4186 137.794 60.1231 136.521 59.8731Z" fill="black"/>
<path d="M103.675 43.7126L98.0606 55.3278L106.198 52.0773L103.675 43.7126ZM85.6953 72.6937L101.015 40.9168L105.88 37.8027L112.517 59.8965C111.267 60.1466 110.017 60.4421 108.812 60.7603L107.312 55.8051L95.5602 60.4648L91.787 68.2385C89.6731 69.6023 87.6274 71.0798 85.6953 72.6937Z" fill="black"/>
<path d="M127.677 129.929V116.745H144.27L144.293 70.8301C149.771 72.8531 154.908 75.7171 159.499 79.3085L159.522 116.745L181.047 116.722C181.388 119.223 181.593 121.746 181.593 124.269C181.593 126.178 181.502 128.065 181.32 129.929H159.522V169.229C154.908 172.821 149.771 175.685 144.293 177.73L144.315 129.929H127.677Z" fill="#C90C0F"/>
<path d="M117.041 67.8066V180.799C113.427 180.321 109.859 179.503 106.381 178.344V70.2388C109.859 69.0795 113.427 68.2612 117.041 67.8066Z" fill="#C90C0F"/>
<path d="M95.7413 75.1035V173.48C91.8999 171.23 88.3312 168.525 85.1035 165.456V83.1273C88.3312 80.0587 91.8999 77.3538 95.7413 75.1035Z" fill="#C90C0F"/>
<path d="M67.4875 124.292C67.4647 114.722 69.8741 105.335 74.4657 96.9473V151.636C69.8741 143.249 67.4875 133.861 67.4875 124.292Z" fill="#C90C0F"/>
</svg>
