<svg width="250" height="250" viewBox="0 0 250 250" fill="none" xmlns="http://www.w3.org/2000/svg">
<rect width="250" height="250" rx="125" fill="black"/>
<path d="M27.5504 154.553C27.3144 156.749 27.846 158.941 29.1774 161.153C35.9166 172.351 42.6417 183.558 49.2545 194.831C50.1764 196.403 51.2603 197.604 52.5193 198.471L78.183 154.553H27.5504Z" fill="#5A51FA"/>
<path d="M170.42 154.553C170.412 154.553 170.406 154.553 170.398 154.553L196.212 199.099C197.556 198.415 198.719 197.365 199.635 195.813C206.715 183.813 213.822 171.829 220.92 159.839C221.964 158.077 222.48 156.314 222.496 154.553L170.42 154.553Z" fill="#5564FB"/>
<path d="M124.575 75.4747C124.751 75.1743 124.925 74.8752 125.101 74.5744C140.278 101.358 155.236 127.754 170.422 154.552H222.497C222.513 152.71 221.981 150.87 220.915 149.032C205.666 122.735 161.734 47.0505 155.074 35.4727C153.854 33.3513 152.368 31.7375 150.617 30.5977L124.484 75.3179L124.575 75.4747Z" fill="#7087FE"/>
<path d="M150.615 30.6C148.442 29.1857 145.859 28.5034 142.853 28.5098C130.3 28.5366 117.746 28.4814 105.193 28.5382C102.61 28.5498 100.341 29.1445 98.4004 30.312L124.482 75.3198L150.615 30.6Z" fill="#6B85FE"/>
<path d="M93.7387 35.278C90.3747 41.2464 39.6429 131.338 29.0146 150.196C28.1923 151.655 27.7064 153.105 27.5508 154.552H78.1834L116.128 89.6186L98.4017 30.3105C96.5339 31.4344 94.9725 33.089 93.7387 35.278Z" fill="#8186FE"/>
<path d="M98.4004 30.3105L116.126 89.6186L124.482 75.3188L98.4004 30.3105Z" fill="#484EC0"/>
<path d="M170.396 154.553C165.756 154.553 161.13 154.553 156.51 154.553L195.518 199.409C195.753 199.314 195.985 199.213 196.21 199.099L170.396 154.553Z" fill="#4233C6"/>
<path d="M78.4175 154.553H78.1851L52.5215 198.471C54.2529 199.663 56.3178 200.22 58.7683 200.204C65.7175 200.158 182.634 200.206 191.04 200.181C192.66 200.176 194.17 199.952 195.523 199.409L156.515 154.553C130.398 154.553 104.552 154.553 78.4175 154.553Z" fill="#6C66FC"/>
</svg>
