<svg width="250" height="250" viewBox="0 0 250 250" fill="none" xmlns="http://www.w3.org/2000/svg">
<rect width="250" height="250" rx="125" fill="black"/>
<path d="M78.0857 106.664C85.1622 88.7794 102.626 76.1531 123.012 76.1531C143.397 76.1531 160.861 88.7794 167.937 106.664H201.048C192.965 71.0247 161.088 44.4414 123.012 44.4414C84.935 44.4414 53.0908 71.0247 44.9756 106.664H78.0857Z" fill="#ED001B"/>
<path d="M201.238 141.379H171.861H168.29C161.441 159.718 143.75 172.798 123.007 172.798C102.265 172.798 84.5735 159.718 77.7242 141.379H44.7764C52.5345 177.44 84.6059 204.51 123.007 204.51C141.413 204.51 158.325 198.311 171.861 187.859V196.98C171.861 201.037 175.14 204.315 179.197 204.315H195.59C199.648 204.315 202.926 201.037 202.926 196.98C202.926 196.98 204.354 159.296 204.776 141.379H201.238Z" fill="#ED001B"/>
</svg>
