<svg width="250" height="250" viewBox="0 0 250 250" fill="none" xmlns="http://www.w3.org/2000/svg">
<rect width="250" height="250" rx="125" fill="white"/>
<path d="M135.368 62.413C135.368 62.413 135.585 61.6152 136.238 61.6152C136.891 61.6152 138.631 61.2526 139.139 61.6152C139.647 61.9778 139.429 63.0657 138.849 63.0657C138.269 63.0657 135.078 62.9207 135.368 62.413ZM153.209 60.1647C155.091 61.1008 157.058 61.8537 159.084 62.413C159.292 62.4488 159.506 62.4346 159.708 62.3715C159.909 62.3085 160.093 62.1984 160.244 62.0504C160.824 61.3976 161.622 60.1647 160.824 59.8021C159.664 59.2219 157.778 57.9164 154.805 58.7142C151.831 59.512 152.774 60.0197 153.209 60.1647ZM59.9411 106.001C59.9411 106.001 58.2005 106.073 58.4906 104.043C58.7807 102.012 61.1015 99.5461 62.4795 98.6033C63.8575 97.6604 64.5828 96.9352 64.5828 95.4847C64.5828 94.0342 66.686 92.8737 67.1937 92.1485C67.7014 91.4232 69.587 90.4804 69.2969 91.7133C69.0068 92.9463 68.2816 93.454 68.2816 95.0495C68.2816 96.6451 68.5717 97.733 69.3695 96.0649C70.1672 94.3968 75.099 86.6366 80.1032 82.5751C85.1075 78.5137 91.7799 74.0171 92.6502 73.872C93.5205 73.727 94.0282 74.3072 94.0282 75.25C94.0282 76.1929 91.6348 77.1357 90.4744 78.1511C89.314 79.1664 75.099 90.4079 71.0375 99.0384C70.2057 100.196 69.2579 101.265 68.2091 102.23C66.8311 103.39 66.6135 105.058 64.7278 106.944C62.8422 108.829 62.9147 110.788 61.9719 111.078C61.029 111.368 59.7961 110.207 60.5213 107.741C61.2466 105.276 63.4949 103.753 65.0905 101.939C66.686 100.126 67.2662 98.5307 66.8311 98.5307C66.3959 98.5307 64.0751 99.0384 63.4224 100.852C62.7696 102.665 62.7696 103.462 61.9719 104.188C61.029 105.058 60.4488 106.073 59.9411 106.001ZM95.0435 72.7842C94.8715 72.8643 94.7219 72.9857 94.6081 73.1375C94.4942 73.2893 94.4196 73.4669 94.3908 73.6545C94.3689 73.8819 94.4197 74.1104 94.5358 74.3072C94.971 74.8874 95.9864 74.4523 96.7116 73.7995C98.3013 72.6542 99.9473 71.5892 101.643 70.6084C101.643 70.6084 96.9292 71.7688 95.0435 72.7842Z" fill="black"/>
<path d="M64.4381 114.345C64.4381 114.345 63.7854 115.36 62.8426 114.345C61.8998 113.329 63.1327 111.226 64.7283 109.776C66.3238 108.325 70.8929 101.073 72.1259 99.0419C75.2789 94.5366 79.0096 90.4646 83.2223 86.9302C88.009 83.0863 96.567 76.1964 100.919 73.7305C105.27 71.2646 111.217 68.001 117.527 66.768C123.837 65.5351 136.819 66.5505 152.702 76.4139C152.903 76.8661 152.916 77.3794 152.739 77.8415C152.563 78.3036 152.21 78.6769 151.759 78.8798C151.759 78.8798 135.513 68.7262 121.443 69.2339C107.373 69.7416 95.9143 79.0974 85.6882 88.0906C75.462 97.0837 76.6224 98.0991 75.317 99.6947C74.0115 101.29 69.8776 107.02 69.1523 108.035C68.4271 109.05 66.1062 113.112 64.4381 114.345ZM156.763 68.146C139.357 61.4011 128.188 63.0692 124.924 63.7945C124.824 63.8209 124.734 63.878 124.667 63.9579C124.601 64.0378 124.561 64.1364 124.553 64.2401C124.545 64.3438 124.569 64.4474 124.623 64.5365C124.677 64.6256 124.757 64.6958 124.852 64.7373C125.772 65.0149 126.721 65.1852 127.68 65.245C131.452 65.6076 134.861 66.4054 137.326 66.3329C139.792 66.2604 146.102 66.9856 149.873 68.4361C153.645 69.8866 155.24 70.4668 155.24 70.4668C155.527 70.4614 155.808 70.3774 156.051 70.224C156.294 70.0705 156.49 69.8536 156.618 69.5965C157.343 68.6537 156.763 68.146 156.763 68.146Z" fill="black"/>
<path d="M154.952 71.9892C154.952 71.9892 155.605 74.31 153.429 74.4551C151.253 74.6001 142.405 69.2332 138.996 68.8706C135.588 68.508 137.908 66.3322 142.332 67.5651C146.756 68.7981 154.952 71.9892 154.952 71.9892ZM143.058 60.9653C142.96 61 142.876 61.0639 142.817 61.1483C142.757 61.2327 142.725 61.3334 142.725 61.4367C142.725 61.54 142.757 61.6408 142.817 61.7252C142.876 61.8096 142.96 61.8735 143.058 61.9081C144.285 62.4565 145.576 62.8464 146.902 63.0685C148.932 63.2136 154.444 64.9542 157.055 66.3322C158.723 67.2025 159.594 64.1564 158.506 63.7938C156.547 63.0685 151.616 61.1829 150.093 60.8203C148.715 60.4576 145.088 60.2401 143.058 60.9653ZM112.96 74.5276C136.385 71.3365 148.57 82.7955 150.093 82.5054C151.616 82.2153 151.181 80.5472 151.181 80.5472C145.306 75.6155 130.946 69.8134 117.601 71.4815C104.256 73.1496 97.0765 81.9252 94.393 83.5207C91.7096 85.1163 89.5338 88.525 87.4306 90.5557C85.3273 92.5864 82.2812 93.2392 81.4109 93.9644C80.5406 94.6897 68.2838 112.821 66.6882 114.779C65.0927 116.737 64.6575 118.551 66.0355 119.276C67.4135 120.001 68.2838 117.68 68.2838 117.68C68.2838 117.68 74.7386 107.092 76.1891 105.423C77.6396 103.755 82.3538 96.4303 83.2966 95.2699C84.2394 94.1095 85.3273 94.327 84.9647 95.2699C84.6021 96.2127 77.1319 107.019 75.7539 108.687C74.3759 110.355 68.3563 118.623 67.9937 121.597C67.6311 124.57 69.8068 125.078 71.4749 121.161C73.143 117.245 75.6814 111.733 76.6968 110.645C77.7121 109.557 81.4109 105.423 82.3538 103.538C83.2966 101.652 87.4306 94.1095 90.6942 90.4832C93.9852 87.0007 97.604 83.8434 101.501 81.0549C103.427 79.7004 105.465 78.5116 107.593 77.5011C108.681 76.9934 110.566 74.8177 112.96 74.5276Z" fill="black"/>
<path d="M87.21 98.0956C87.21 98.0956 92.867 89.5376 98.8866 85.4036C104.906 81.2697 108.387 78.3687 110.273 77.6434C112.159 76.9182 118.614 73.582 133.264 76.9182C147.914 80.2543 149.655 85.041 149.002 85.9838C148.349 86.9267 146.028 85.4762 142.692 83.663C139.356 81.8499 133.046 79.0214 127.969 79.1665C122.893 79.3115 112.884 82.7927 112.231 83.3729C111.579 83.9531 111.506 82.2125 113.247 81.8499C114.987 81.4873 116.075 80.1093 117.163 79.9642C118.251 79.8192 119.846 79.4566 119.846 78.5863C119.846 77.7159 116.22 77.861 114.407 78.5863C112.594 79.3115 105.559 83.3004 104.253 84.0257C102.948 84.7509 101.207 85.2586 100.917 86.3465C100.627 87.4344 98.4514 89.9727 97.3635 90.5529C96.2757 91.1331 90.8362 95.4121 90.256 96.4275C90.006 97.0046 89.5708 97.482 89.0192 97.7841C88.4675 98.0862 87.8309 98.1958 87.21 98.0956Z" fill="black"/>
<path d="M98.4521 91.3558C98.4521 91.3558 99.1774 92.4437 102.223 90.1229C105.27 87.8021 105.632 87.2944 105.922 87.2944C106.212 87.2944 105.415 86.134 104.834 86.6417C104.254 87.1494 98.5247 90.3405 98.4521 91.3558ZM106.865 89.4702C106.865 89.4702 105.995 89.2526 107.663 88.0197C109.331 86.7867 120.282 80.2595 128.188 80.6946C136.093 81.1298 145.231 85.7714 146.827 87.1494C148.422 88.5273 147.262 91.2833 146.827 91.1382C146.392 90.9932 136.528 83.5231 129.711 83.3055C122.893 83.0879 116.003 85.6989 113.175 87.512C110.346 89.3251 109.331 89.9778 106.865 89.4702Z" fill="black"/>
<path d="M115.714 89.0324C115.632 89.01 115.558 88.965 115.501 88.9025C115.444 88.84 115.405 88.7626 115.39 88.6792C115.375 88.5958 115.384 88.5098 115.415 88.4311C115.447 88.3525 115.5 88.2844 115.569 88.2346C117.895 86.6669 120.512 85.583 123.266 85.0473C126.019 84.5115 128.852 84.5349 131.597 85.116C141.388 87.2193 145.449 91.8609 145.667 92.9488C145.884 94.0367 145.522 96.575 144.071 96.0674C142.621 95.5597 137.906 88.3797 130.291 87.7269C122.966 87.0742 121.298 90.3379 115.714 89.0324Z" fill="black"/>
<path d="M125.796 90.7751L124.925 90.485C124.78 90.4125 124.853 90.2674 124.925 90.2674C126.158 89.9773 130.292 89.1795 134.064 90.5575C136.745 91.665 139.166 93.32 141.171 95.4167C141.206 95.451 141.228 95.4959 141.234 95.5443C141.24 95.5927 141.23 95.6418 141.205 95.6836C141.18 95.7254 141.141 95.7576 141.096 95.775C141.05 95.7923 141 95.7939 140.953 95.7793L125.796 90.7751ZM72.997 127.763C72.997 127.763 72.5618 129.141 71.3289 128.126C70.096 127.11 70.8937 125.515 71.3289 124.354C71.7641 123.194 75.1002 116.377 75.898 115.579C76.6958 114.781 79.6693 111.227 79.6693 110.43C79.6693 109.632 80.4671 112.678 77.4211 117.319C74.52 121.961 75.6804 123.194 72.997 127.763ZM75.6079 132.332C75.6079 132.332 75.1728 133.275 74.375 132.332C73.5772 131.389 74.3025 129.141 75.2453 126.893C76.1881 124.645 77.4936 119.568 78.1463 118.552C78.799 117.537 78.8716 119.785 78.8716 120.438C78.8716 121.091 79.0891 124.645 77.8562 127.691C77.273 129.313 76.5193 130.869 75.6079 132.332ZM79.3792 136.756C79.3792 136.756 78.5089 138.207 77.4211 136.466C77.0512 135.88 76.8549 135.201 76.8549 134.508C76.8549 133.815 77.0512 133.136 77.4211 132.55C77.7837 131.897 78.2914 129.794 78.5815 129.431C78.8716 129.069 79.2342 129.939 79.3792 131.027C79.5243 132.115 80.177 133.348 80.177 133.855C80.177 134.363 80.032 136.031 79.3792 136.756ZM81.4825 138.497C81.3493 138.083 81.1536 137.692 80.9023 137.337C80.6847 137.191 79.9594 138.134 79.8869 138.86C79.8144 139.585 80.6122 139.875 80.6847 140.528C80.7572 141.18 81.3374 140.383 81.4825 139.657C81.5705 139.276 81.5705 138.879 81.4825 138.497ZM83.7308 116.739C84.4527 112.669 86.2 108.85 88.8076 105.643C93.0141 100.711 94.9722 99.9133 94.9722 99.9133C94.9722 99.9133 95.5524 99.7683 95.2623 100.929C94.9722 102.089 92.7965 104.773 92.4338 105.57C92.0712 106.368 89.4603 108.979 89.4603 109.414C89.4603 109.849 90.6207 109.487 90.7658 109.704C90.9108 109.922 91.4185 110.212 90.7658 111.735C90.113 113.258 87.5746 118.625 87.5021 119.785C87.4296 120.946 83.6583 129.649 83.2956 129.649C82.933 129.649 82.1352 129.576 82.2077 126.893C82.2803 124.209 86.2692 114.128 87.3571 112.46C88.4449 110.792 88.5175 110.792 88.0823 110.865C87.6472 110.937 84.9637 113.838 84.6011 115.869C84.2385 117.9 83.7308 116.739 83.7308 116.739ZM93.8844 116.087C93.8844 116.087 92.869 118.48 90.7658 118.335C88.6625 118.19 91.8536 112.895 92.3613 110.647C92.869 108.399 96.7854 99.7683 97.5832 99.043C98.3809 98.3177 100.557 97.4474 100.919 98.1727C101.282 98.8979 99.7589 99.9133 98.9611 101.509C98.1634 103.104 95.6975 107.601 95.4799 109.197C95.2623 110.792 93.8844 116.087 93.8844 116.087Z" fill="black"/>
<path d="M91.8543 121.159C91.9225 120.984 91.954 120.796 91.9467 120.607C91.9394 120.419 91.8936 120.234 91.812 120.064C91.7305 119.894 91.6149 119.743 91.4724 119.619C91.33 119.496 91.1637 119.403 90.9839 119.346C89.606 118.766 89.5334 119.201 88.8807 120.289C88.228 121.377 84.0215 131.53 84.0215 133.053C84.0215 134.577 84.4566 137.405 84.9643 137.84C85.472 138.275 85.9797 137.478 85.9797 136.39C86.152 135.053 86.7059 133.794 87.5752 132.763C88.0078 132.163 88.3089 131.478 88.4589 130.753C88.6088 130.028 88.6043 129.28 88.4455 128.557C88.1554 126.816 90.9114 123.988 90.9114 123.988C90.9232 126.022 90.8264 128.056 90.6213 130.08C90.3312 131.893 88.4455 133.344 88.0104 134.141C87.5752 134.939 87.3577 138.058 86.995 139.001C86.6346 140.15 86.5599 141.37 86.7775 142.554C86.995 143.497 87.5752 145.818 87.9379 144.15C88.3005 142.482 89.606 137.55 89.9686 137.623C90.3312 137.695 90.2587 143.062 90.0411 144.15C89.8235 145.238 89.5334 150.532 89.5334 151.185C89.5334 151.838 87.5752 154.811 87.2126 155.899C86.85 156.987 84.6742 160.976 84.6742 161.193C84.6742 161.411 86.85 161.193 88.228 160.106C88.7498 159.652 89.1734 159.096 89.4727 158.472C89.7721 157.849 89.9408 157.17 89.9686 156.479C89.9686 155.609 89.8235 153.506 90.3312 152.273C90.8389 151.04 92.1444 148.139 92.3619 146.978C92.5436 144.008 92.5436 141.029 92.3619 138.058C92.2169 136.39 92.5795 129.355 93.0872 127.904C93.5949 126.454 93.6674 125.728 94.03 125.728C94.3927 125.728 94.1751 130.152 94.03 131.53C93.885 132.908 93.5223 137.405 93.5223 138.058C92.9021 143.603 93.7786 149.212 96.0607 154.303C96.0607 154.303 96.4234 155.899 98.164 154.811C99.9046 153.723 97.3662 148.864 96.931 147.486C96.4959 146.108 95.0454 138.928 95.5531 137.913C96.0607 136.897 98.9618 147.921 99.0343 149.009C99.1068 150.097 99.4694 153.506 100.05 153.578C100.63 153.651 103.023 152.2 103.023 151.91C103.02 151.137 102.794 150.381 102.37 149.734C101.718 148.646 98.2365 139.726 97.5838 132.328C96.931 124.931 98.0915 112.311 98.6717 111.006C99.2519 109.7 101.935 103.753 102.588 102.81C103.241 101.867 105.126 97.9511 105.489 97.806C105.852 97.661 106.214 97.661 106.214 98.0961C105.771 99.6012 105.238 101.079 104.619 102.52C104.184 103.753 101.863 107.452 101.428 108.685C100.102 112.603 99.2735 116.672 98.9618 120.797C98.309 127.324 99.8321 138.348 100.267 140.524C100.702 142.699 103.458 150.097 104.981 150.75C106.504 151.402 107.81 149.444 107.592 149.082C107.375 148.719 104.184 142.917 103.458 140.524C102.733 138.13 101.428 132.401 101.645 131.095C101.863 129.79 103.531 141.974 109.26 148.356C109.26 148.356 109.986 148.792 111.291 147.921C112.597 147.051 112.524 146.326 111.291 144.948C110.058 143.57 105.852 135.447 105.271 133.344C104.691 131.24 102.153 124.278 102.008 124.06C101.73 121.594 101.828 119.1 102.298 116.663C102.951 113.617 103.894 109.338 103.966 108.177C104.039 107.017 105.924 104.406 106.359 103.826C106.795 103.245 107.81 100.489 108.318 98.5313C108.825 96.5731 109.841 95.2676 108.97 95.1226C108.1 94.9775 104.909 95.4852 104.329 96.1379C103.748 96.7907 101.428 98.1687 96.4959 109.41C96.4959 109.41 95.1179 112.021 95.1179 113.544C95.1171 115.516 94.5094 117.441 93.3773 119.056C92.964 119.821 92.452 120.528 91.8543 121.159Z" fill="black"/>
<path d="M93.0131 150.968C92.8416 150.939 92.6661 150.944 92.4966 150.983C92.3271 151.022 92.167 151.094 92.0255 151.195C91.8839 151.296 91.7638 151.424 91.6719 151.572C91.58 151.72 91.5182 151.884 91.4901 152.056C91.3423 153.404 91.2938 154.762 91.345 156.117C91.2725 156.842 90.4022 158.655 90.6198 158.801C90.8374 158.946 92.5055 158.51 93.3032 157.568C94.1988 156.59 94.7358 155.337 94.8263 154.014C94.8263 152.781 94.3911 150.968 93.0131 150.968ZM113.9 96.8638C113.9 96.8638 114.988 95.5583 114.698 95.2682C114.408 94.9781 112.813 94.0353 112.232 94.7605C110.751 96.854 109.578 99.15 108.751 101.578C108.171 103.754 104.98 109.918 104.69 111.224C103.971 115.176 103.922 119.222 104.545 123.191C105.415 129.428 110.854 142.12 113.248 144.803C115.641 147.487 117.962 144.803 117.962 144.803L116.149 142.7C116.149 142.7 111.652 134.577 111.072 133.634C110.492 132.691 107.373 125.584 107.591 123.263C107.808 120.942 108.316 117.751 107.518 114.705C106.72 111.659 110.347 104.189 110.927 103.101C111.507 102.158 113.9 96.8638 113.9 96.8638Z" fill="black"/>
<path d="M111.945 112.82C111.998 111.658 112.217 110.51 112.598 109.411C113.105 107.961 113.686 105.567 112.598 104.987C111.51 104.407 109.624 104.842 109.624 108.903C109.624 112.965 108.681 117.606 109.624 123.699C110.567 129.791 115.136 140.525 121.228 146.037C127.32 151.549 126.232 149.663 129.206 152.346C132.18 155.03 147.265 157.858 151.471 157.351C155.678 156.843 156.766 154.812 156.983 154.087C157.201 153.362 156.621 152.129 156.04 152.709C155.46 153.289 152.342 156.118 142.116 153.869C131.889 151.621 129.206 149.083 128.626 148.575C128.046 148.067 122.316 142.193 121.663 141.612C121.011 141.032 114.411 132.039 114.411 130.734C114.411 129.428 122.969 145.746 134.355 150.098C145.742 154.45 149.948 153.724 152.124 152.999C154.3 152.274 156.548 151.621 156.548 150.823C156.548 150.025 156.476 148.502 155.75 148.502C155.025 148.502 150.746 151.041 148.715 150.823C146.685 150.606 143.711 149.3 140.955 149.3C138.199 149.3 132.397 145.891 130.947 144.514C129.496 143.136 121.808 139.219 114.411 123.336C114.338 123.409 111.582 115.213 111.945 112.82Z" fill="black"/>
<path d="M131.961 155.245C131.961 155.245 128.915 153.215 128.335 153.287C127.755 153.36 127.827 154.375 127.9 155.463C127.972 156.551 128.408 157.711 129.133 157.856C129.858 158.001 131.816 157.566 132.251 157.856C135.75 159.62 139.579 160.633 143.493 160.83C149.367 161.047 150.528 161.265 152.196 161.12C153.864 160.975 156.693 159.959 156.91 159.307C157.128 158.654 156.983 156.623 156.402 156.623C155.822 156.623 155.17 159.524 144.073 158.219C133.122 156.768 131.961 155.245 131.961 155.245Z" fill="black"/>
<path d="M133.413 159.744C133.413 159.744 131.164 158.149 130.512 158.801C129.859 159.454 129.714 161.413 131.962 161.92C134.21 162.428 139.287 163.879 140.448 164.096C142.721 164.521 145.025 164.763 147.337 164.822C149.803 164.822 152.269 163.661 153.284 163.661C154.3 163.661 157.346 163.661 157.491 163.008C157.507 162.243 157.384 161.481 157.128 160.76C157.056 160.47 156.185 160.542 155.605 160.832C153.735 161.573 151.789 162.108 149.803 162.428C146.474 162.624 143.133 162.38 139.867 161.703C137.675 161.191 135.519 160.537 133.413 159.744Z" fill="black"/>
<path d="M155.241 166.055C155.241 166.055 150.599 169.247 137.689 167.216C124.78 165.185 128.116 160.108 128.406 160.325C128.696 160.543 129.784 162.066 130.582 162.356C131.38 162.646 141.026 165.838 143.709 165.91C146.392 165.983 149.874 165.838 151.397 165.33C152.92 164.822 154.95 163.517 155.748 164.605C156.546 165.548 155.241 166.055 155.241 166.055Z" fill="black"/>
<path d="M130.075 166.2C130.075 166.2 128.915 165.403 128.915 166.2C128.972 166.772 129.175 167.32 129.505 167.79C129.836 168.26 130.282 168.637 130.801 168.884C131.814 169.395 132.93 169.667 134.064 169.682C135.436 169.792 136.77 170.187 137.981 170.843C139.069 171.35 142.912 172.874 149.585 171.641C156.257 170.407 157.925 168.812 158.215 168.376C158.433 167.717 158.433 167.005 158.215 166.345C158.07 165.62 157.563 165.33 156.982 165.91C156.402 166.491 152.486 169.972 142.912 169.319C133.339 168.667 130.075 166.2 130.075 166.2Z" fill="black"/>
<path d="M136.601 171.422C136.601 171.422 135.803 170.261 133.627 170.842C131.451 171.422 139.212 175.557 139.647 175.919C140.082 176.282 140.59 176.5 142.475 176.282C144.361 176.064 149.728 175.774 151.614 175.339C153.499 174.904 157.271 173.816 158.431 172.365C159.591 170.914 159.156 169.971 158.068 170.116C156.98 170.261 150.308 174.396 143.636 173.816C136.963 173.235 136.601 171.422 136.601 171.422Z" fill="black"/>
<path d="M145.885 177.296C145.885 177.296 142.621 177.368 142.766 178.021C143.048 178.593 143.497 179.067 144.054 179.378C144.611 179.689 145.25 179.822 145.885 179.761C147.335 179.471 155.458 178.166 157.126 177.296C158.794 176.425 160.172 176.208 160.172 175.192C160.172 174.177 159.882 173.017 159.157 173.234C158.432 173.452 151.397 177.948 145.885 177.296ZM152.34 180.197C152.34 180.197 148.786 181.357 148.786 181.72C148.786 182.082 150.236 183.75 151.397 183.678C152.557 183.605 155.096 181.937 156.401 181.502C157.706 181.067 160.825 180.632 160.97 179.761C161.083 178.859 160.905 177.945 160.462 177.151C160.223 177.042 159.964 176.986 159.701 176.986C159.438 176.986 159.179 177.042 158.939 177.151C158.432 177.441 153.5 180.124 152.34 180.197ZM155.748 185.709C155.353 185.901 154.919 186.001 154.479 186.001C154.039 186.001 153.605 185.901 153.21 185.709C151.832 185.056 152.34 184.258 153.5 183.678C154.66 183.098 156.836 182.3 157.634 181.937C158.432 181.575 160.607 180.777 160.97 181.067C161.352 181.466 161.605 181.972 161.695 182.517C161.695 182.88 155.748 185.709 155.748 185.709ZM157.706 188.972C157.706 188.972 155.531 187.812 155.531 187.522C155.675 187.229 155.89 186.976 156.156 186.786C156.421 186.597 156.73 186.475 157.054 186.434C157.706 186.434 162.13 184.621 162.13 184.621C162.13 184.621 163.291 185.709 163.291 186.796C163.291 187.884 158.577 189.117 157.706 188.972ZM163.291 191.366C162.668 191.483 162.028 191.483 161.405 191.366C160.753 191.148 159.882 190.205 159.592 190.205C159.302 190.205 160.245 189.625 160.97 189.552C161.695 189.48 162.928 189.045 163.363 188.972C163.799 188.9 164.379 189.48 164.379 190.205C164.379 190.93 163.291 191.366 163.291 191.366ZM119.485 97.59C119.949 97.1538 120.363 96.6673 120.718 96.1395C120.718 95.9219 118.47 94.5439 117.382 94.7615C116.294 94.9791 112.596 102.232 113.756 112.313C114.916 122.394 117.527 132.765 131.742 143.934C134.479 146.129 137.664 147.695 141.073 148.522C144.482 149.349 148.031 149.417 151.469 148.721C151.469 148.721 152.485 147.778 151.034 147.705C149.584 147.633 141.968 146.255 139.43 145.094C136.892 143.934 131.38 138.639 130.509 138.277C129.639 137.914 123.112 131.169 122.967 130.372C122.822 129.574 120.283 125.005 119.703 122.829C119.123 120.653 117.672 111.515 117.237 109.774C116.802 108.034 116.367 105.205 116.512 104.19C116.657 103.174 118.253 99.0405 119.485 97.59Z" fill="black"/>
<path d="M124.489 98.6791C124.489 98.6791 125.795 98.3165 125.867 97.8814C125.94 97.4462 125.722 96.4308 123.982 96.1407C122.241 95.8506 120.573 97.0836 119.413 100.202C118.252 103.321 118.76 109.921 120.283 113.982C121.806 118.043 120.936 121.307 123.764 126.747C126.593 132.186 126.52 132.186 127.608 133.056C128.696 133.927 133.918 139.003 134.715 139.801C135.513 140.599 140.155 143.645 141.025 143.645C141.895 143.645 142.331 142.194 142.258 141.469C142.186 140.744 142.113 140.381 140.88 140.309C139.647 140.236 137.907 138.206 137.907 138.206C137.907 138.206 131.307 131.968 130.799 131.678C130.291 131.388 124.924 125.296 124.924 124.571C124.924 123.846 124.997 122.83 125.432 123.41C125.867 123.991 128.986 128.487 131.017 130.373C133.047 132.258 139.502 137.698 141.025 138.351C142.548 139.003 143.273 139.076 143.418 137.843C143.563 136.61 144.289 136.03 144.941 136.392C145.594 136.755 150.453 139.584 151.976 139.366C153.499 139.148 155.748 136.9 156.473 137.045C157.198 137.19 155.168 139.439 154.515 139.801C153.862 140.164 155.023 140.962 155.24 141.107C155.642 141.325 156.101 141.414 156.555 141.362C157.009 141.31 157.436 141.12 157.778 140.817C158.939 139.801 159.084 138.423 158.286 136.61C157.488 134.797 157.271 131.751 157.053 131.171C156.836 130.59 156.546 129.72 155.965 131.171C155.385 132.621 154.297 135.595 150.526 135.74C146.051 136.105 141.589 134.899 137.907 132.331C133.265 129.285 127.68 125.078 123.329 112.677C118.977 100.275 124.489 98.6791 124.489 98.6791Z" fill="black"/>
<path d="M155.387 125.079C155.196 124.987 154.98 124.959 154.772 124.998C154.563 125.037 154.372 125.142 154.227 125.296C154.009 125.659 153.719 123.991 154.154 122.395C154.59 120.8 154.227 118.406 153.719 118.551C153.212 118.696 149.295 124.934 144.944 122.54C140.592 120.147 135.153 113.329 133.63 110.283C132.107 107.237 130.221 103.756 130.511 101.725C130.511 101.725 130.729 100.13 130.801 99.6946C130.874 99.2595 129.931 97.5189 128.77 97.954C127.61 98.3892 124.782 99.9847 124.419 101.145C124.056 102.306 122.896 103.393 123.476 106.73C124.056 110.066 125.797 114.345 126.45 116.303C127.102 118.261 129.133 122.685 131.309 124.643C133.485 126.602 137.764 130.446 139.649 131.316C141.535 132.186 145.524 135.16 150.673 133.999C155.823 132.839 155.895 127.69 155.895 127.182C155.847 126.457 155.675 125.746 155.387 125.079ZM132.759 123.556C132.542 123.265 130.003 119.349 129.713 119.132C131.091 120.154 132.377 121.295 133.557 122.54C135.008 124.208 136.313 126.167 136.313 126.747C136.313 126.747 132.977 123.846 132.759 123.556ZM147.99 129.648C143.928 129.503 142.405 127.69 141.317 127.037C140.23 126.384 137.401 122.758 135.008 120.292C132.614 117.826 130.729 115.723 129.931 114.2C129.133 112.677 127.03 105.207 126.812 104.336C126.595 103.466 127.973 102.741 127.973 103.176C128.006 103.956 128.103 104.732 128.263 105.497C128.118 109.123 132.469 115.505 133.049 116.738C133.63 117.971 138.634 123.411 143.058 126.384C147.482 129.358 150.383 127.762 151.108 127.472C151.834 127.182 152.631 127.182 152.849 127.472C153.067 127.762 152.051 129.793 147.99 129.648Z" fill="black"/>
<path d="M153.209 115.07C152.556 115.07 151.105 116.81 150.888 115.795C150.67 114.78 151.903 112.604 151.903 110.573C151.903 108.543 151.468 104.699 150.525 102.813C149.582 100.927 148.64 99.2593 146.971 100.275C145.303 101.29 146.174 102.088 146.899 103.031C147.624 103.973 149.437 106.077 149.437 108.543C149.437 111.008 149.075 114.2 148.132 114.417C147.189 114.635 144.941 113.909 142.91 112.314C140.741 110.689 138.726 108.868 136.89 106.874C136.238 105.932 134.932 103.756 135.295 103.393C135.657 103.031 136.238 102.886 136.818 103.901C137.398 104.916 140.227 107.89 140.952 108.615C142.164 109.827 143.448 110.965 144.796 112.024C145.666 112.604 146.754 113.619 147.552 112.314C148.349 111.008 148.494 107.89 147.842 106.729C147.189 105.569 146.101 103.538 145.739 103.031C145.376 102.523 144.796 101.653 143.563 102.16C142.33 102.668 142.402 103.683 142.838 104.046C143.273 104.409 145.231 105.787 145.376 106.729C145.521 107.672 145.956 109.34 145.231 108.543C144.506 107.745 142.62 105.134 142.112 104.844C141.605 104.554 138.123 102.378 138.123 102.378C138.123 102.378 133.917 100.637 133.627 100.202C133.337 99.767 132.466 99.6944 133.119 102.16C133.772 104.626 134.207 107.6 136.02 109.848C137.037 111.024 137.78 112.411 138.196 113.909C138.558 114.997 142.185 120.364 146.826 121.525C151.468 122.685 153.136 117.318 153.354 116.883C153.571 116.448 153.861 115.07 153.209 115.07ZM148.785 118.334C148.64 119.421 146.609 118.261 145.739 118.334C144.868 118.406 143.273 116.956 142.257 115.795C141.242 114.635 140.444 113.402 140.734 113.257C141.024 113.112 142.33 114.707 143.635 115.432C144.941 116.158 146.681 117.173 147.842 117.028C149.002 116.883 148.785 118.334 148.785 118.334ZM158.721 141.252C158.721 141.252 157.778 142.339 157.778 142.775C157.778 143.21 158.285 143.427 158.285 143.863C158.285 144.298 158.648 144.515 159.156 144.153C159.663 143.79 159.663 143.355 159.591 142.775C159.518 142.194 159.663 141.034 158.721 141.252ZM159.663 145.095C159.663 145.095 158.721 145.676 158.721 146.401C158.684 147.005 158.684 147.61 158.721 148.214C158.764 148.334 158.842 148.437 158.946 148.51C159.05 148.583 159.174 148.622 159.301 148.622C159.428 148.622 159.552 148.583 159.656 148.51C159.759 148.437 159.838 148.334 159.881 148.214C160.171 147.634 160.534 147.271 160.244 146.546C159.954 145.966 160.244 144.588 159.663 145.095ZM160.389 152.13C160.389 152.13 159.083 153.073 159.156 152.566C159.228 152.058 159.301 149.882 159.736 149.81C160.171 149.737 160.171 148.867 160.896 150.172C161.622 151.478 161.114 151.695 160.389 152.13ZM161.477 153.799C161.477 153.799 161.839 152.421 160.824 153.291C159.808 154.161 159.518 153.871 159.591 154.451C159.663 155.031 159.881 156.047 160.461 155.902C160.896 155.757 161.912 155.974 161.477 153.799ZM162.057 156.7C162.057 156.7 160.389 157.497 160.534 158.44C160.679 159.383 161.477 160.326 161.839 160.326C162.202 160.326 162.782 159.31 162.564 158.513C162.347 157.715 162.637 156.337 162.057 156.7Z" fill="black"/>
<path d="M124.996 33.7695C106.951 33.7695 89.3112 39.1205 74.3073 49.1458C59.3035 59.171 47.6094 73.4203 40.7038 90.0917C33.7983 106.763 31.9915 125.108 35.5119 142.806C39.0323 160.504 47.7218 176.761 60.4816 189.521C73.2413 202.281 89.4982 210.97 107.196 214.491C124.895 218.011 143.239 216.204 159.911 209.299C176.582 202.393 190.832 190.699 200.857 175.695C210.882 160.691 216.233 143.052 216.233 125.007C216.236 113.024 213.878 101.159 209.294 90.0883C204.71 79.0177 197.989 68.9586 189.517 60.4859C181.044 52.0132 170.985 45.2928 159.914 40.7087C148.844 36.1246 136.978 33.7667 124.996 33.7695ZM124.996 210.152C108.149 210.159 91.6777 205.17 77.6657 195.816C63.6537 186.462 52.7302 173.163 46.2764 157.601C39.8226 142.039 38.1284 124.913 41.4081 108.388C44.6878 91.863 52.7941 76.6817 64.7018 64.7638C76.6096 52.8459 91.784 44.7267 108.306 41.433C124.828 38.1392 141.956 39.8188 157.524 46.2593C173.091 52.6999 186.399 63.6121 195.765 77.6161C205.131 91.6201 210.134 108.087 210.141 124.934C210.15 136.121 207.954 147.201 203.679 157.539C199.404 167.877 193.133 177.272 185.226 185.186C177.319 193.099 167.93 199.378 157.595 203.661C147.261 207.945 136.183 210.151 124.996 210.152Z" fill="black"/>
<path d="M124.997 18.7539C103.983 18.7539 83.4405 24.9854 65.9678 36.6603C48.4951 48.3352 34.8767 64.9291 26.8349 84.3438C18.7931 103.758 16.689 125.122 20.7887 145.732C24.8884 166.343 35.0077 185.275 49.867 200.134C64.7263 214.993 83.6583 225.113 104.269 229.212C124.879 233.312 146.243 231.208 165.657 223.166C185.072 215.124 201.666 201.506 213.341 184.033C225.016 166.561 231.247 146.018 231.247 125.004C231.245 96.8252 220.05 69.8013 200.125 49.8759C180.2 29.9506 153.176 18.7558 124.997 18.7539V18.7539ZM124.997 221.318C105.948 221.318 87.3267 215.669 71.4879 205.086C55.6492 194.503 43.3044 179.461 36.0146 161.862C28.7248 144.263 26.8175 124.897 30.5338 106.214C34.2501 87.5309 43.4231 70.3694 56.8928 56.8996C70.3626 43.4299 87.5241 34.2569 106.207 30.5406C124.89 26.8243 144.256 28.7316 161.855 36.0214C179.454 43.3112 194.496 55.656 205.079 71.4947C215.662 87.3335 221.311 105.955 221.311 125.004C221.3 150.544 211.149 175.036 193.089 193.095C175.029 211.155 150.538 221.306 124.997 221.318Z" fill="#151515"/>
</svg>
