<svg width="250" height="250" viewBox="0 0 250 250" fill="none" xmlns="http://www.w3.org/2000/svg">
<rect width="250" height="250" rx="125" fill="white"/>
<path d="M57.4384 72.6707C48.7829 74.5552 40.1273 79.1476 33.2387 85.4479C22.9344 94.9866 17.0465 108.294 17.0465 122.366C16.9874 136.498 21.4623 147.685 31.1191 157.813C39.8331 166.939 50.1966 172.12 62.7971 173.593C74.6911 175.006 85.4071 172.415 95.829 165.585C101.54 161.817 116.614 146.508 116.614 144.447C116.614 144.211 115.083 141.856 113.139 139.148L109.724 134.202L106.604 138.088C92.2367 155.987 81.2258 162.464 66.3882 161.64C52.7869 160.875 41.1871 153.75 34.2394 141.915C30.5886 135.674 29.1756 130.316 29.1756 122.661C29.2347 113.417 31.5309 106.645 37.0655 99.2263C46.1919 86.9791 62.914 80.9736 77.4575 84.6829C90.8236 88.0979 100.597 97.6367 120.146 126.488C130.745 142.091 136.044 148.862 143.404 156.281C152.472 165.467 159.714 170.059 168.723 172.474C174.317 174.004 186.093 174.299 191.686 173.063C203.934 170.354 215.239 163.053 222.658 153.161C225.837 148.863 229.017 143.328 229.076 141.974C229.076 141.503 227.25 141.267 222.658 141.267H216.298L214.061 144.506C208.703 152.278 199.458 158.637 190.155 160.875C185.68 161.993 178.084 162.111 173.61 161.169C160.303 158.343 148.173 146.743 130.156 119.717C120.676 105.468 113.257 95.9288 106.015 88.8045C98.0655 80.9736 91.6477 76.6753 83.7578 73.9077C79.1063 72.2589 77.8698 72.0823 70.0974 71.9057C64.0919 71.7875 60.3236 72.0226 57.4384 72.6707ZM169.135 72.9058C164.307 74.2013 158.243 77.0865 152.826 80.7366C148.704 83.5043 139.106 92.9249 135.514 97.753L132.983 101.109L136.457 106.114C138.341 108.881 139.989 111.119 140.166 111.119C140.343 111.119 141.226 110.176 142.109 108.94C157.418 88.6851 171.785 81.0302 188.448 84.3278C201.519 86.8597 213.06 96.2218 217.888 108.233C218.771 110.353 219.654 113.062 219.89 114.239L220.302 116.477H195.808H171.372V122.66V128.843H201.932H232.432L232.785 125.957C233.609 118.774 231.372 107.41 227.544 99.8141C222.245 89.2747 211.588 79.6178 200.224 75.0844C191.392 71.6109 177.849 70.6686 169.135 72.9058Z" fill="#DB3369"/>
</svg>
