<svg width="250" height="250" viewBox="0 0 250 250" fill="none" xmlns="http://www.w3.org/2000/svg">
<g clip-path="url(#clip0_242_94039)">
<rect width="250" height="250" rx="125" fill="white"/>
<mask id="mask0_242_94039" style="mask-type:luminance" maskUnits="userSpaceOnUse" x="0" y="0" width="251" height="251">
<path d="M0.00390625 0.00390625H250.004V250.004H0.00390625V0.00390625Z" fill="white"/>
</mask>
<g mask="url(#mask0_242_94039)">
<path d="M125.004 250.004C116.542 250.007 108.101 249.156 99.809 247.465C83.8197 244.19 68.6318 237.799 55.1118 228.656C35.0147 215.09 19.2833 195.987 9.82368 173.661C6.62869 166.1 4.19004 158.241 2.54341 150.2C-0.842595 133.576 -0.842595 116.44 2.54341 99.816C5.8183 83.8268 12.2094 68.6388 21.352 55.1187C34.9184 35.0206 54.0223 19.2881 76.3491 9.82773C83.9095 6.6313 91.7678 4.19134 99.809 2.54355C116.433 -0.842642 133.569 -0.842642 150.193 2.54355C166.182 5.8184 181.37 12.2095 194.89 21.3521C214.987 34.9184 230.719 54.0221 240.178 76.3482C243.376 83.9089 245.817 91.7675 247.465 99.8092C250.851 116.433 250.851 133.569 247.465 150.193C244.191 166.182 237.8 181.37 228.657 194.89C215.09 214.987 195.986 230.718 173.661 240.178C166.1 243.375 158.241 245.816 150.2 247.465C141.908 249.156 133.467 250.007 125.004 250.004ZM125.004 13.3961C117.449 13.3944 109.914 14.1541 102.511 15.6637C88.2346 18.5874 74.6736 24.294 62.602 32.4576C44.6606 44.5718 30.6169 61.6288 22.1723 81.5621C19.3185 88.3134 17.1403 95.3307 15.6694 102.511C12.6461 117.354 12.6461 132.654 15.6694 147.497C18.5942 161.773 24.3018 175.334 32.4663 187.405C44.5795 205.348 61.6361 219.395 81.5698 227.841C88.3216 230.695 95.3392 232.873 102.52 234.343C117.363 237.367 132.663 237.367 147.505 234.343C161.782 231.42 175.343 225.712 187.414 217.546C205.352 205.433 219.393 188.378 227.836 168.447C230.69 161.695 232.868 154.678 234.339 147.497C237.363 132.654 237.363 117.354 234.339 102.511C231.414 88.2353 225.707 74.6749 217.542 62.6041C205.431 44.6632 188.377 30.6189 168.447 22.1725C161.695 19.3189 154.677 17.1406 147.497 15.6695C140.095 14.1584 132.559 13.3961 125.004 13.3961Z" fill="url(#paint0_linear_242_94039)"/>
<path d="M214.368 124.992C214.368 142.665 209.128 159.941 199.309 174.635C189.491 189.33 175.535 200.783 159.208 207.546C142.88 214.309 124.914 216.078 107.58 212.631C90.2471 209.183 74.3255 200.673 61.8289 188.176C49.3323 175.679 40.822 159.758 37.3742 142.425C33.9264 125.091 35.6959 107.125 42.459 90.7973C49.2222 74.4698 60.6751 60.5143 75.3695 50.6958C90.0639 40.8773 107.34 35.6367 125.013 35.6367C148.711 35.6367 171.439 45.0509 188.197 61.8083C204.954 78.5657 214.368 101.294 214.368 124.992Z" fill="url(#paint1_radial_242_94039)"/>
<mask id="mask1_242_94039" style="mask-type:luminance" maskUnits="userSpaceOnUse" x="35" y="35" width="180" height="180">
<path d="M131.589 214.119C180.806 210.483 217.756 167.637 214.119 118.42C210.481 69.2029 167.634 32.2524 118.417 35.8886C69.2001 39.5249 32.2503 82.371 35.8875 131.588C39.5247 180.805 82.3716 217.756 131.589 214.119Z" fill="white"/>
</mask>
<g mask="url(#mask1_242_94039)">
<path d="M183.64 96.9731C195.951 108.923 205.326 123.859 207.223 141.736C211.404 181.091 180.79 216.608 138.846 221.064C96.9017 225.52 59.513 197.226 55.3324 157.868C51.1517 118.509 74.8715 121.177 116.811 116.721C139.697 114.294 176.185 89.7387 183.64 96.9731Z" fill="url(#paint2_radial_242_94039)"/>
</g>
<path d="M187.916 104.661L187.827 103.509H173.193L187.925 90.918L187.901 90.3125C187.596 81.6867 185.004 73.2968 180.391 66.0019L180.036 65.332H101.005C93.5403 65.332 79.0384 67.6416 68.388 79.5478C63.7444 84.7383 53.7981 100.323 53.926 117.804C54.0002 127.643 54.9553 135.289 58.6682 143.848C60.4278 147.956 62.5313 151.909 64.9563 155.664C72.4553 169.117 80.6301 178.482 89.2522 183.505C95.0539 186.872 101.684 188.543 108.388 188.33H153.183L153.449 188.183C153.596 188.108 168.25 180.447 181.487 172.405L181.87 172.174L182.018 171.76C182.062 171.632 182.115 171.509 182.156 171.391C182.267 171.136 182.365 170.875 182.448 170.609C184.078 165.941 185.438 155.906 186.097 150.356C186.363 148.333 186.516 147.003 186.516 146.988L186.683 145.6H186.629L186.742 144.477H171.11L187.871 131.781L187.92 131.225C188.504 122.38 188.503 113.506 187.916 104.661Z" fill="url(#paint3_linear_242_94039)"/>
<path d="M122.11 159.576C122.11 159.576 107.432 160.989 64.1533 149.693C81.8115 184.133 98.3467 186.009 110.652 186.009H152.65C152.65 186.009 166.601 178.445 179.837 170.409L122.11 159.576Z" fill="white"/>
<path d="M110.656 184.806C105.353 184.806 97.9072 184.85 90.5215 180.034C77.6748 171.663 73.4316 165.06 66.0928 151.232C99.085 159.702 114.911 160.643 120.244 160.643C121.214 160.643 121.807 160.608 122.066 160.589L179.049 169.826C167.374 176.804 153.596 183.978 152.011 184.811H110.656V184.806Z" fill="url(#paint4_linear_242_94039)"/>
<path d="M94.3424 146.128C94.3424 146.128 87.2467 137.904 84.7721 131.656L165.046 146.128L185.619 130.548C185.594 117.77 185.54 105.548 185.54 105.548H84.775C84.775 105.548 88.3355 95.3399 94.7515 91.2822L168.25 105.011L185.592 90.1738C184.893 76.2187 178.212 67.7129 178.212 67.7129H100.645C93.8746 67.7129 80.0396 69.2051 69.6129 80.8604C59.1861 92.5156 49.9068 118.485 59.8971 142.684C70.0455 167.26 83.2174 170.418 90.6588 170.418H179.836C179.959 170.059 180.128 169.724 180.254 169.305C182.403 162.047 184.238 146.137 184.238 146.137H94.3424V146.128Z" fill="white"/>
<path d="M115.791 75.916C115.791 75.916 86.8223 81.5644 85.4092 82.2734C83.9961 82.9824 78.3428 108.416 78.3428 108.416H162.481L184.054 90.167L115.791 75.916Z" fill="url(#paint5_linear_242_94039)"/>
<path d="M116.343 116.295C116.343 116.295 87.374 121.948 85.9658 122.657C84.5576 123.366 78.8994 148.795 78.8994 148.795H159.932L184.7 130.093L116.343 116.295Z" fill="url(#paint6_linear_242_94039)"/>
<path d="M185.617 130.546H84.8537C87.3254 136.796 94.424 145.018 94.424 145.018H184.329C184.329 145.018 182.562 162.759 180.267 169.294H93.3918C82.3176 169.294 70.4104 165.583 59.9934 141.566C49.5764 117.55 59.2893 91.3994 69.7092 79.7432C80.1291 68.0869 93.966 66.5957 100.732 66.5957H178.302C182.816 73.6513 185.34 81.796 185.605 90.168H94.8303C88.4143 94.2305 84.8488 104.434 84.8488 104.434H185.613C186.205 113.128 186.207 121.852 185.617 130.546Z" fill="url(#paint7_linear_242_94039)"/>
<path d="M170.011 60.7466C170.011 60.7466 134.961 46.8404 103.328 64.73C75.6053 80.4136 44.159 105.482 67.5145 156.925C46.4149 126.819 46.1883 102.356 62.7576 76.7252C78.4217 52.4986 124.526 30.4088 170.011 60.7466Z" fill="url(#paint8_linear_242_94039)"/>
<path opacity="0.4" d="M124.932 35.6055C111.095 35.6832 97.4623 38.9583 85.0997 45.1749C72.7371 51.3915 61.9787 60.3814 53.6645 71.4428C45.3502 82.5041 39.7052 95.3375 37.1701 108.941C34.6349 122.544 35.2784 136.55 39.0501 149.863C39.0501 149.863 39.011 149.002 38.9612 147.431C38.6761 138.09 39.8821 103.724 57.4182 106.718C74.9544 109.712 100.633 114.906 131.015 106.53C161.397 98.1543 185.605 69.7471 170.004 47.8096C170.012 47.8076 151.739 35.6055 124.932 35.6055Z" fill="url(#paint9_linear_242_94039)"/>
<path d="M110.345 67.078C112.522 72.6181 105.091 79.2509 95.7844 81.2792C86.4777 83.3075 77.0969 80.2645 75.4523 74.5477C72.843 65.4725 81.8976 62.243 91.1994 60.2186C100.501 58.1942 105.973 55.9335 110.345 67.078Z" fill="white"/>
</g>
</g>
<defs>
<linearGradient id="paint0_linear_242_94039" x1="210.755" y1="33.754" x2="51.5043" y2="221.505" gradientUnits="userSpaceOnUse">
<stop stop-color="#B6509E"/>
<stop offset="1" stop-color="#2EBAC6"/>
</linearGradient>
<radialGradient id="paint1_radial_242_94039" cx="0" cy="0" r="1" gradientUnits="userSpaceOnUse" gradientTransform="translate(70.8633 64.2305) scale(99.1846 99.1846)">
<stop stop-color="#77FFFF"/>
<stop offset="0.394" stop-color="#87E4FF"/>
<stop offset="0.861" stop-color="#6273FF"/>
<stop offset="1" stop-color="#9468FF"/>
</radialGradient>
<radialGradient id="paint2_radial_242_94039" cx="0" cy="0" r="1" gradientUnits="userSpaceOnUse" gradientTransform="translate(127.38 206.326) rotate(-7.37458) scale(69.8832 80.4396)">
<stop offset="0.497" stop-color="#00FFFF"/>
<stop offset="1" stop-color="#00F4FF" stop-opacity="0"/>
</radialGradient>
<linearGradient id="paint3_linear_242_94039" x1="139.424" y1="127.578" x2="184.964" y2="163.145" gradientUnits="userSpaceOnUse">
<stop stop-color="#5A27ED"/>
<stop offset="1" stop-color="#AB37F4"/>
</linearGradient>
<linearGradient id="paint4_linear_242_94039" x1="70.4981" y1="159.459" x2="88.2738" y2="210.265" gradientUnits="userSpaceOnUse">
<stop stop-color="#7618F4"/>
<stop offset="0.504" stop-color="#575FF8"/>
<stop offset="1" stop-color="#09FFFF"/>
</linearGradient>
<linearGradient id="paint5_linear_242_94039" x1="96.3136" y1="92.101" x2="137.177" y2="135.814" gradientUnits="userSpaceOnUse">
<stop stop-color="#7F4CFF"/>
<stop offset="1" stop-color="#3095FF"/>
</linearGradient>
<linearGradient id="paint6_linear_242_94039" x1="93.7115" y1="118.115" x2="101.938" y2="166.862" gradientUnits="userSpaceOnUse">
<stop stop-color="#7F52FF"/>
<stop offset="1" stop-color="#3096FF"/>
</linearGradient>
<linearGradient id="paint7_linear_242_94039" x1="161.258" y1="149.781" x2="139.037" y2="113.847" gradientUnits="userSpaceOnUse">
<stop stop-color="white"/>
<stop offset="0.157" stop-color="#FBFFFF"/>
<stop offset="0.319" stop-color="#EFFFFF"/>
<stop offset="0.483" stop-color="#DAFFFF"/>
<stop offset="0.648" stop-color="#BDFFFE"/>
<stop offset="0.814" stop-color="#98FFFE"/>
<stop offset="0.979" stop-color="#6BFFFD"/>
<stop offset="1" stop-color="#65FFFD"/>
</linearGradient>
<linearGradient id="paint8_linear_242_94039" x1="65.9501" y1="156.038" x2="126.228" y2="35.7819" gradientUnits="userSpaceOnUse">
<stop stop-color="white" stop-opacity="0"/>
<stop offset="0.515" stop-color="#E6FFFF"/>
<stop offset="1" stop-color="#CEFFFF" stop-opacity="0.502"/>
</linearGradient>
<linearGradient id="paint9_linear_242_94039" x1="35.6504" y1="92.7344" x2="174.88" y2="92.7344" gradientUnits="userSpaceOnUse">
<stop stop-color="white"/>
<stop offset="0.867" stop-color="white" stop-opacity="0.306"/>
<stop offset="1" stop-color="white" stop-opacity="0.2"/>
</linearGradient>
<clipPath id="clip0_242_94039">
<rect width="250" height="250" rx="125" fill="white"/>
</clipPath>
</defs>
</svg>
