<svg width="250" height="250" viewBox="0 0 250 250" fill="none" xmlns="http://www.w3.org/2000/svg">
<rect width="250" height="250" rx="125" fill="white"/>
<path d="M67.4406 108.55C67.4406 108.55 67.4406 108.37 67.4806 108.31C68.6006 102.63 75.5406 96.8901 79.9706 93.3601C93.6306 82.8601 109.871 76.5101 125.971 70.7301C142.551 64.8901 159.641 60.3701 176.911 56.8601C188.351 57.1101 189.261 41.9901 177.691 43.0601C170.111 44.3801 162.661 46.2701 155.171 48.0101C129.451 54.8001 103.511 62.7401 80.6506 76.6501C69.5806 83.7201 57.0606 92.4201 54.2406 106.07C53.9806 107.81 53.8806 110.02 54.2006 111.76C60.3106 140.19 129.521 147.98 154.221 150.49C161.161 150.97 168.091 151.41 175.011 151.87C179.391 152.87 180.091 147.6 175.411 147.8C166.041 146.81 156.641 145.98 147.321 144.38C127.181 141.19 107.041 136.9 88.4506 128.42C81.7706 125.34 72.2306 119.97 68.4206 113.65C68.1406 113.17 67.9006 112.63 67.7106 112.1C67.6406 111.82 67.5906 111.54 67.5106 111.26C67.5106 111.16 67.4906 111.05 67.4606 110.95C67.4306 110.67 67.5106 108.77 67.4306 108.56L67.4406 108.55Z" fill="#0C0D1D"/>
<path d="M67.4406 122.01C67.4406 122.01 67.4406 121.83 67.4806 121.77C68.6106 116.09 75.5306 110.35 79.9706 106.82C93.2606 96.6104 108.981 90.3304 124.631 84.6704C141.481 78.6504 158.921 74.1904 176.481 70.5204C187.481 70.5604 189.741 57.9404 179.241 56.4404C172.201 57.4004 165.341 59.2704 158.421 60.8204C131.991 67.5104 105.341 75.5304 81.8106 89.5604C70.3906 96.6404 57.1006 105.71 54.2406 119.67C53.9806 121.4 53.8806 123.62 54.2006 125.36C60.4306 154.13 131.321 161.92 156.411 164.22C162.661 164.64 168.901 165.06 175.141 165.45C179.461 166.42 179.941 161.06 175.371 161.38C165.541 160.35 155.691 159.43 145.921 157.74C126.331 154.59 106.761 150.34 88.6606 142.11C81.9106 139.03 72.2606 133.63 68.4106 127.25C68.1306 126.77 67.8906 126.23 67.7006 125.7C67.6306 125.42 67.5706 125.14 67.5006 124.86C67.5006 124.76 67.4806 124.66 67.4506 124.55C67.4306 124.16 67.4906 122.37 67.4206 122.02L67.4406 122.01Z" fill="#0433FF"/>
<path d="M67.4406 135.48C67.4406 135.48 67.4406 135.3 67.4806 135.24C68.6106 129.56 75.5306 123.82 79.9706 120.29C92.7006 110.52 107.651 104.32 122.671 98.8604C139.991 92.4904 157.971 87.9004 176.051 84.0604C188.071 83.9404 189.371 71.2104 179.241 69.9004C172.201 70.8604 165.341 72.7304 158.421 74.2804C131.711 80.9304 104.821 89.0404 81.1206 103.32C69.8606 110.44 57.1106 119.21 54.2406 133.03C53.9806 134.76 53.8806 136.98 54.2006 138.72C60.3606 167.32 130.421 175.13 155.331 177.53C161.901 177.99 168.461 178.4 175.011 178.83C179.421 179.83 180.071 174.53 175.381 174.76C165.671 173.73 155.931 172.85 146.281 171.17C126.651 168.01 107.041 163.78 88.8906 155.56C82.0706 152.47 72.3106 147.04 68.4306 140.61C68.1506 140.13 67.9106 139.59 67.7206 139.06C67.6506 138.78 67.6006 138.5 67.5206 138.22C67.4006 137.72 67.5506 135.98 67.4406 135.48Z" fill="#9CADFF"/>
<path d="M67.4406 148.95C67.4406 148.95 67.4406 148.77 67.4806 148.71C68.5806 143.09 75.4206 137.4 79.8006 133.9C92.3806 124.2 107.161 117.99 122.021 112.58C139.401 106.14 157.471 101.57 175.621 97.6601C177.201 97.3701 178.771 97.0701 180.351 96.7801C188.221 95.6801 187.321 83.2301 179.231 83.4201C172.471 84.3401 165.871 86.1201 159.221 87.6101C132.141 94.2701 104.881 102.47 80.8806 116.96C69.7206 124.05 57.0906 132.79 54.2406 146.52C53.9806 148.26 53.8806 150.48 54.2006 152.22C60.3306 180.73 130.161 188.64 154.991 191.04C161.671 191.51 168.341 191.92 175.001 192.37C179.381 193.37 180.081 188.11 175.401 188.3C165.791 187.29 156.161 186.42 146.611 184.77C126.941 181.61 107.281 177.36 89.0806 169.17C82.1906 166.07 72.3306 160.61 68.4006 154.12C67.9606 153.39 67.6606 152.56 67.4906 151.72C67.3806 151.2 67.5106 149.48 67.4106 148.96L67.4406 148.95Z" fill="#F5F3E6"/>
<path d="M67.4406 162.41C67.4406 162.41 67.4406 162.23 67.4806 162.17C68.5606 156.65 75.1606 151.1 79.4506 147.63C90.5906 139.01 103.421 133.01 116.591 128.08C135.401 120.67 155.031 115.67 174.791 111.33C176.651 110.97 178.491 110.64 180.351 110.29C188.221 109.19 187.321 96.7399 179.231 96.9299C171.781 97.9599 164.521 99.9599 157.191 101.6C130.821 108.24 104.261 116.28 80.8706 130.45C69.7206 137.54 57.0906 146.28 54.2406 160.01C53.9806 161.75 53.8806 163.96 54.2006 165.7C60.3206 194.19 130.531 202.18 155.371 204.52C161.931 204.99 168.471 205.38 175.011 205.82C179.421 206.82 180.071 201.52 175.381 201.75C165.671 200.72 155.941 199.84 146.281 198.16C126.571 194.98 106.881 190.68 88.6706 182.42C81.9106 179.32 72.2806 174.01 68.4206 167.61C67.9806 166.88 67.6806 166.05 67.5106 165.21C67.4006 164.66 67.5306 162.95 67.4306 162.41H67.4406Z" fill="#FF1100"/>
</svg>
