<svg width="250" height="250" viewBox="0 0 250 250" fill="none" xmlns="http://www.w3.org/2000/svg">
<g clip-path="url(#clip0_696_2745)">
<rect width="250" height="250" rx="125" fill="white"/>
<path d="M47.9378 135.035C47.9378 88.058 86.0201 49.9757 132.997 49.9757C154.355 49.9461 174.937 57.9811 190.625 72.4736C175.378 49.6077 149.352 34.5439 119.807 34.5439C72.8303 34.5439 34.748 72.6262 34.748 119.603C34.748 144.346 45.3141 166.621 62.1793 182.164C52.8681 168.212 47.9113 151.809 47.9378 135.035Z" fill="#EC1C79"/>
<path d="M68.5868 187.458C50.5902 190.521 38.5479 196.103 38.5479 202.484C38.5479 212.158 66.2354 220.002 100.39 220.002C110.251 220.002 119.572 219.347 127.845 218.184C103.999 216.458 82.8902 204.861 68.5868 187.458Z" fill="black"/>
<path d="M73.0406 148.818L63.3506 117.613H70.8976L77.9371 140.75L85.5705 117.613H91.82L99.4852 140.69L106.432 117.613H113.381L103.765 148.818H95.5573L88.6234 128.113L81.7384 148.818H73.0406Z" fill="black"/>
<path d="M125.411 142.934H140.834V148.818H118.195V117.613H140.573V123.498H125.411V130.14H139.266V135.935H125.411V142.934Z" fill="black"/>
<path d="M170.114 117.613V123.498H160.232V148.818H153.017V123.498H143.188V117.613H170.114Z" fill="black"/>
<path d="M194.947 117.613H202.11V148.818H194.947V135.89H181.354V148.818H174.138V117.613H181.354V130.006H194.947L194.947 117.613Z" fill="black"/>
<path d="M178.517 58.4917L181.941 60.7136C181.122 59.7913 179.522 57.1894 178.665 56.3031C170.63 47.9713 160.996 41.3471 150.341 36.8274C139.685 32.3078 128.227 29.9856 116.652 30.0001C69.016 30.0001 30.3994 68.6166 30.3994 116.253C30.3994 145.13 44.5924 170.692 66.3812 186.346C82.1959 205.802 106.319 218.235 133.347 218.235C180.983 218.235 219.599 179.619 219.599 131.983C219.599 100.908 203.166 73.6742 178.517 58.4917ZM116.652 36.624C132.634 36.5988 148.251 41.4059 161.452 50.4144C152.409 47.3034 142.91 45.7203 133.347 45.73C94.9489 45.73 62.4123 70.8212 51.2361 105.502L38.7402 99.7356C46.3452 63.6846 78.3377 36.624 116.652 36.624ZM37.4114 108.355L48.8167 114.748C48.1125 118.224 47.6233 121.739 47.3518 125.274L37.1655 120.986C37.1528 120.769 37.1372 120.554 37.1264 120.337C37.058 118.984 37.0236 117.623 37.0234 116.253C37.0234 113.587 37.1527 110.955 37.4114 108.355ZM38.4754 131.457L47.1817 135.874C47.6164 145.84 49.7844 155.653 53.5885 164.875C46.0083 155.07 40.8324 143.625 38.4763 131.457H38.4754ZM133.347 211.611C89.3688 211.611 53.7175 175.96 53.7175 131.982C53.7175 88.0044 89.3686 52.3534 133.347 52.3534C177.325 52.3534 212.976 88.0042 212.976 131.982C212.976 175.961 177.324 211.611 133.347 211.611Z" fill="black"/>
<path d="M124.998 250.004C116.536 250.007 108.095 249.156 99.8032 247.465C83.8139 244.19 68.6259 237.799 55.1059 228.656C35.0089 215.09 19.2775 195.987 9.81782 173.661C6.62283 166.1 4.18418 158.241 2.53755 150.2C-0.848454 133.576 -0.848454 116.44 2.53755 99.816C5.81244 83.8268 12.2035 68.6388 21.3461 55.1187C34.9125 35.0206 54.0165 19.2881 76.3432 9.82773C83.9036 6.6313 91.7619 4.19134 99.8032 2.54355C116.427 -0.842642 133.563 -0.842642 150.187 2.54355C166.176 5.8184 181.364 12.2095 194.884 21.3521C214.981 34.9184 230.713 54.0221 240.172 76.3482C243.37 83.9089 245.811 91.7675 247.459 99.8092C250.846 116.433 250.846 133.569 247.459 150.193C244.185 166.182 237.794 181.37 228.651 194.89C215.084 214.987 195.98 230.718 173.655 240.178C166.094 243.375 158.235 245.816 150.194 247.465C141.902 249.156 133.461 250.007 124.998 250.004ZM124.998 13.3961C117.444 13.3944 109.908 14.1541 102.505 15.6637C88.2288 18.5874 74.6677 24.294 62.5961 32.4576C44.6547 44.5718 30.6111 61.6288 22.1665 81.5621C19.3127 88.3134 17.1344 95.3307 15.6635 102.511C12.6403 117.354 12.6403 132.654 15.6635 147.497C18.5884 161.773 24.2959 175.334 32.4604 187.405C44.5736 205.348 61.6302 219.395 81.5639 227.841C88.3157 230.695 95.3333 232.873 102.514 234.343C117.357 237.367 132.657 237.367 147.499 234.343C161.776 231.42 175.337 225.712 187.408 217.546C205.346 205.433 219.387 188.378 227.831 168.447C230.684 161.695 232.862 154.678 234.333 147.497C237.357 132.654 237.357 117.354 234.333 102.511C231.408 88.2353 225.701 74.6749 217.537 62.6041C205.425 44.6632 188.371 30.6189 168.441 22.1725C161.689 19.3189 154.672 17.1406 147.491 15.6695C140.089 14.1584 132.553 13.3961 124.998 13.3961Z" fill="url(#paint0_linear_696_2745)"/>
</g>
<defs>
<linearGradient id="paint0_linear_696_2745" x1="210.749" y1="33.754" x2="51.4985" y2="221.505" gradientUnits="userSpaceOnUse">
<stop stop-color="#B6509E"/>
<stop offset="1" stop-color="#2EBAC6"/>
</linearGradient>
<clipPath id="clip0_696_2745">
<rect width="250" height="250" rx="125" fill="white"/>
</clipPath>
</defs>
</svg>
