<svg width="250" height="250" viewBox="0 0 250 250" fill="none" xmlns="http://www.w3.org/2000/svg">
<g clip-path="url(#clip0_242_94797)">
<path d="M125 249.031C193.5 249.031 249.031 193.5 249.031 125C249.031 56.4998 193.5 0.96875 125 0.96875C56.4998 0.96875 0.96875 56.4988 0.96875 125C0.96875 193.5 56.4988 249.031 125 249.031Z" fill="url(#paint0_linear_242_94797)" stroke="black" stroke-width="0.484559"/>
<path d="M41.2793 102.761L125 19.5742L208.721 102.761L167.64 143.58L125.805 102.012L125.054 101.265L124.3 102.012L82.4392 143.605L41.2793 102.761Z" fill="#FFF6F0" stroke="black" stroke-width="0.969119"/>
<path d="M59.7832 156.631H92.6756V166.008H69.6059V177.915H91.7832V187.291H69.6059V199.347H93.5691V208.724H59.7832V156.631ZM140.774 156.631V190.714C140.774 196.668 139.185 201.331 136.01 204.705C132.885 208.079 128.221 209.766 122.02 209.766C115.818 209.766 111.13 208.079 107.955 204.705C104.829 201.331 103.266 196.668 103.266 190.714V156.631H113.089V190.714C113.089 193.791 113.808 196.197 115.247 197.933C116.686 199.67 118.944 200.538 122.02 200.538C125.095 200.538 127.353 199.67 128.792 197.933C130.231 196.197 130.95 193.791 130.95 190.714V156.631H140.774ZM185.223 208.724H175.4V193.096C175.4 191.905 175.078 190.938 174.432 190.194C173.837 189.45 172.82 189.078 171.382 189.078H160.07V208.724H150.246V156.631H170.191C172.87 156.631 175.227 157.003 177.261 157.747C179.295 158.491 180.982 159.533 182.321 160.872C183.69 162.132 184.758 163.684 185.447 165.412C186.191 167.148 186.563 169.009 186.563 170.993V172.779C186.563 174.913 185.993 176.923 184.851 178.807C183.711 180.643 181.949 182.057 179.568 183.049V184.389C181.305 184.587 182.669 185.257 183.661 186.398C184.703 187.539 185.223 188.978 185.223 190.714V208.724ZM160.07 179.701H169.447C171.828 179.701 173.639 179.155 174.879 178.063C176.119 176.923 176.74 175.334 176.74 173.3V172.407C176.74 170.671 176.119 169.182 174.879 167.942C173.639 166.652 171.828 166.008 169.447 166.008H160.07V179.701Z" fill="#2A363A"/>
</g>
<defs>
<linearGradient id="paint0_linear_242_94797" x1="125" y1="0.96875" x2="125" y2="249.031" gradientUnits="userSpaceOnUse">
<stop stop-color="#99B998"/>
<stop offset="1" stop-color="#FDCEAA"/>
</linearGradient>
<clipPath id="clip0_242_94797">
<rect width="250" height="250" fill="white"/>
</clipPath>
</defs>
</svg>
