<svg width="250" height="250" viewBox="0 0 250 250" fill="none" xmlns="http://www.w3.org/2000/svg">
<rect width="250" height="250" rx="125" fill="black"/>
<path fill-rule="evenodd" clip-rule="evenodd" d="M108.253 17.875L177.976 49.615V201.135L108.253 232.875L82.4844 217.575V33.1746L108.253 17.875ZM104.562 28.88L95.1674 34.4496L104.562 37.8048V28.88ZM104.562 45.7901L90.3358 40.6231V210.127L104.562 204.96V45.7901ZM112.414 202.142V48.6085L147.644 61.3581V189.325L112.414 202.074V202.142ZM104.562 213.012L95.1674 216.368L104.562 221.937V213.012ZM112.414 222.809V210.194L151.738 195.968L163.481 199.592L112.414 222.877V222.809ZM170.125 193.754L155.563 189.258V61.6266L170.125 57.1977V193.821V193.754ZM163.481 51.3597L151.738 54.9162L112.414 40.6902V28.0747L163.414 51.2926L163.481 51.3597Z" fill="white"/>
</svg>
