<svg width="250" height="250" viewBox="0 0 250 250" fill="none" xmlns="http://www.w3.org/2000/svg">
<rect width="250" height="250" rx="125" fill="black"/>
<path d="M80.1879 141L82.0177 141.388C82.0177 141.388 78.7974 161.696 77.65 161.696C76.5025 161.696 19.9961 161.81 19.9961 161.81V158.228H22.8286C26.0075 158.228 28.287 157.194 29.6516 155.121C30.4269 153.938 30.8146 152.728 30.8146 148.438V99.8814C30.8146 95.1829 30.2977 92.2418 29.2588 91.0582C27.8166 89.43 25.6715 88.6185 22.8235 88.6185H19.9961V86.5664H54.0643V88.6185C50.0687 88.5823 47.2568 88.9493 45.6286 89.7298C44.0366 90.5051 42.946 91.4872 42.3567 92.6709C41.7675 93.8545 41.4677 96.6871 41.4677 101.158V148.438C41.4677 151.508 41.7623 153.617 42.3567 154.765C42.8013 155.54 43.4836 156.114 44.4088 156.486C45.334 156.858 48.2183 157.039 53.0667 157.039H58.5612C64.3349 157.039 65.7046 156.615 68.0358 155.762C70.367 154.909 72.4914 153.416 74.4194 151.265C76.3422 149.084 78.265 145.662 80.193 141H80.1879ZM111.625 112.566C119.689 112.566 126.16 115.321 131.045 120.831C135.19 125.54 137.268 130.946 137.268 137.051C137.268 141.341 136.126 145.683 133.836 150.076C131.551 154.47 128.388 157.783 124.361 160.016C120.371 162.249 115.91 163.366 110.989 163.366C102.967 163.366 96.5888 160.487 91.8592 154.734C87.8689 149.885 85.8685 144.442 85.8685 138.41C85.8685 134.017 87.0677 129.654 89.4712 125.333C91.9109 120.976 95.1105 117.766 99.0647 115.709C103.019 113.615 107.206 112.571 111.625 112.571V112.566ZM109.821 115.967C107.769 115.967 105.691 116.525 103.598 117.642C101.546 118.722 99.8762 120.64 98.5995 123.395C97.3228 126.15 96.6818 129.69 96.6818 134.017C96.6818 140.99 98.2118 147.006 101.277 152.066C104.378 157.122 108.446 159.654 113.486 159.654C117.244 159.654 120.345 158.259 122.79 155.468C125.23 152.676 126.455 147.88 126.455 141.083C126.455 132.575 124.418 125.876 120.35 120.996C117.6 117.647 114.091 115.972 109.826 115.972L109.821 115.967ZM167.444 112.566C175.507 112.566 181.979 115.321 186.864 120.831C191.009 125.54 193.087 130.946 193.087 137.051C193.087 141.341 191.945 145.683 189.655 150.076C187.37 154.47 184.207 157.783 180.18 160.016C176.19 162.249 171.729 163.366 166.808 163.366C158.786 163.366 152.408 160.487 147.678 154.734C143.688 149.885 141.687 144.442 141.687 138.41C141.687 134.017 142.887 129.654 145.29 125.333C147.73 120.976 150.929 117.766 154.884 115.709C158.838 113.615 163.025 112.571 167.444 112.571V112.566ZM165.64 115.967C163.588 115.967 161.51 116.525 159.417 117.642C157.365 118.722 155.695 120.64 154.418 123.395C153.142 126.15 152.501 129.69 152.501 134.017C152.501 140.99 154.031 147.006 157.096 152.066C160.197 157.122 164.265 159.654 169.305 159.654C173.063 159.654 176.164 158.259 178.609 155.468C181.049 152.676 182.274 147.88 182.274 141.083C182.274 132.575 180.237 125.876 176.169 120.996C173.419 117.647 169.91 115.972 165.645 115.972L165.64 115.967ZM213.375 106.069V115.848H228.861V120.898H213.375V149.229C213.375 152.211 215.67 155.204 217.965 155.969C220.26 156.734 221.836 156.419 223.914 155.814C225.992 155.209 228.67 153.674 229.817 154.439C230.965 155.204 226.307 159.422 224.08 160.559C221.852 161.696 218.44 162.652 215.923 162.652C214.222 162.652 212.558 162.234 210.93 161.396C209.302 160.523 208.097 159.303 207.322 157.726C206.547 156.119 206.154 153.653 206.154 150.335V120.898H198.106V117.709C200.142 116.97 202.21 115.729 204.319 113.987C206.464 112.209 209.555 109.645 211.075 106.26L213.37 106.069H213.375Z" fill="white"/>
</svg>
