<svg width="250" height="250" viewBox="0 0 250 250" fill="none" xmlns="http://www.w3.org/2000/svg">
<g clip-path="url(#clip0_242_94062)">
<path d="M124.998 250.01C194.034 250.01 249.998 194.045 249.998 125.01C249.998 55.9742 194.034 0.00976562 124.998 0.00976562C55.9624 0.00976562 -0.00195312 55.9742 -0.00195312 125.01C-0.00195312 194.045 55.9624 250.01 124.998 250.01Z" fill="#F49E00"/>
<path d="M154.334 135.432C171.881 107.939 185.545 62.5098 185.545 62.5098L156.287 69.1426L145.576 107.033C144.568 78.627 125.092 68.2285 125.092 68.2285C109.49 60.627 95.5837 63.9707 85.5603 69.1973C73.154 75.6504 64.1306 86.9004 59.8103 99.8535C53.6697 118.283 54.4197 138.963 55.2322 148.322C55.5603 152.713 56.5291 157.033 58.1228 161.158C68.8884 189.072 98.7087 187.486 98.7087 187.486C126.029 186.518 142.631 154.346 142.631 154.346L150.459 178.002C157.474 189.869 173.013 185.424 176.209 184.76C176.771 184.635 177.271 184.572 177.842 184.447L195.31 181.783V174.182C157.279 175.213 154.334 135.439 154.334 135.439V135.432ZM117.31 164.025C114.958 166.437 111.992 168.16 108.732 169.01C101.646 170.775 96.2009 167.799 92.4431 164.15C88.2448 159.911 85.3703 154.542 84.1697 148.697C77.279 109.713 86.8025 92.6269 93.1306 84.7754C94.8543 82.5744 97.0764 80.8146 99.6137 79.641C102.151 78.4674 104.931 77.9136 107.724 78.0254C132.287 79.3066 137.802 130.697 137.802 130.697C130.849 148.939 121.888 159.525 117.31 164.025Z" fill="white"/>
</g>
<defs>
<clipPath id="clip0_242_94062">
<rect width="250" height="250" rx="125" fill="white"/>
</clipPath>
</defs>
</svg>
