<svg width="250" height="250" viewBox="0 0 250 250" fill="none" xmlns="http://www.w3.org/2000/svg">
<rect width="250" height="250" rx="125" fill="#0F7299"/>
<path fill-rule="evenodd" clip-rule="evenodd" d="M113.679 23.9622C120.676 19.9136 129.301 19.9136 136.298 23.9622L206.972 64.7123C210.493 66.7367 213.309 69.5971 215.29 72.9856C217.226 76.3741 218.326 80.2467 218.326 84.2953V165.663C218.326 169.712 217.226 173.585 215.29 176.973C213.353 180.362 210.493 183.222 206.972 185.246L136.298 225.997C129.301 230.045 120.676 230.045 113.679 225.997L43.0041 185.29C39.4836 183.266 36.6671 180.406 34.6868 177.017C32.7506 173.629 31.6504 169.756 31.6504 165.708V84.2953C31.6504 80.2467 32.7506 76.3741 34.6868 72.9856C36.6231 69.5971 39.4836 66.7367 43.0041 64.7123L113.679 23.9622Z" fill="url(#paint0_linear_242_93211)"/>
<path d="M124.988 235.018C120.059 235.018 115.086 233.741 110.686 231.189L40.0111 190.483C35.6545 187.975 32.0459 184.366 29.5376 180.009C27.0292 175.653 25.709 170.724 25.709 165.707V84.295C25.709 79.2782 27.0292 74.3055 29.5376 69.9928C32.0459 65.6362 35.6545 62.0276 40.0111 59.5192L110.686 18.8131C119.487 13.7524 130.445 13.7524 139.246 18.8131L209.92 59.5633C214.277 62.0716 217.886 65.6802 220.394 70.0368C222.902 74.3935 224.222 79.3222 224.222 84.339V165.707C224.222 170.724 222.902 175.697 220.394 180.009C217.886 184.366 214.277 187.975 209.92 190.483L139.246 231.233C134.889 233.741 129.916 235.018 124.988 235.018ZM116.671 29.1547L45.996 69.8608C43.4436 71.313 41.3313 73.4253 39.8791 75.9777C38.4269 78.5301 37.6348 81.3905 37.6348 84.339V165.707C37.6348 168.612 38.4269 171.516 39.8791 174.068C41.3313 176.621 43.4436 178.689 45.996 180.185L116.671 220.935C121.819 223.884 128.2 223.884 133.305 220.935L203.979 180.185C206.532 178.733 208.644 176.621 210.096 174.068C211.549 171.516 212.341 168.656 212.341 165.707V84.295C212.341 81.3905 211.549 78.4861 210.096 75.9337C208.644 73.3813 206.532 71.313 203.979 69.8168L133.305 29.1547C128.156 26.1622 121.819 26.1622 116.671 29.1547Z" fill="url(#paint1_linear_242_93211)"/>
<path fill-rule="evenodd" clip-rule="evenodd" d="M185.693 98.8603C189.477 100.753 192.426 105.945 194.582 114.395C196.474 121.744 198.015 129.841 199.247 138.598C199.599 141.239 199.291 143.923 198.367 146.431C193.438 159.369 186.837 170.063 178.608 178.468C170.335 186.873 159.509 195.367 146.131 203.816C143.579 205.444 140.63 206.28 137.638 206.28H125.008V61.0586H145.823C147.011 61.0586 148.155 61.5427 148.991 62.3788L185.693 98.8603Z" fill="#CB6E1A"/>
<path d="M129.761 61.0586H125.008V136.706H129.761V61.0586Z" fill="#EE7C46"/>
<path fill-rule="evenodd" clip-rule="evenodd" d="M133.587 145.861C134.423 138.512 135.435 132.923 136.624 129.139C137.856 125.354 140.144 120.602 143.489 114.969C154.93 112.548 163.38 110.392 168.792 108.5C174.205 106.607 180.762 102.911 188.463 97.498L199.729 101.899L203.426 145.861L164.04 206.634H125.006L133.587 145.861Z" fill="#FEA355"/>
<path fill-rule="evenodd" clip-rule="evenodd" d="M204.32 155.857C183.46 141.115 164.934 146.792 148.695 172.976C145.747 177.729 127.264 182.437 125.02 186.486C116.879 201.052 120.839 212.098 136.901 219.711L204.32 155.857Z" fill="white"/>
<path fill-rule="evenodd" clip-rule="evenodd" d="M159.612 133.324C159.568 159.992 168.413 181.731 186.148 198.586C203.882 215.441 183.507 220.589 124.979 214.076V134.292L159.612 133.324Z" fill="#C8F4FD"/>
<path fill-rule="evenodd" clip-rule="evenodd" d="M146.35 169.344C147.274 169.828 152.071 173.304 160.784 179.685C153.347 191.259 146.702 197.42 140.893 198.212C135.084 199.004 129.76 198.08 124.963 195.395V169.344C138.341 168.859 145.426 168.859 146.35 169.344Z" fill="#87BFD9"/>
<path fill-rule="evenodd" clip-rule="evenodd" d="M125.01 134.316C125.01 134.316 128.09 134.492 132.667 137.749C137.728 141.313 149.169 155.044 152.03 176.387C153.35 186.244 144.329 192.625 125.01 195.486C125.01 154.735 125.01 134.316 125.01 134.316Z" fill="white"/>
<path d="M129.759 152.227H125.006V165.648H129.759V152.227Z" fill="#CBD3DF"/>
<path fill-rule="evenodd" clip-rule="evenodd" d="M125.006 132.289V149.012C127.206 149.056 129.495 148.572 131.915 147.515C134.335 146.459 136.756 143.775 139.22 139.374L125.006 132.289Z" fill="#D5FBFE"/>
<path fill-rule="evenodd" clip-rule="evenodd" d="M125.006 178.76C125.006 178.76 132.839 183.512 148.505 193.018L125.006 199.619C125.006 185.713 125.006 178.76 125.006 178.76Z" fill="#B0E9FE"/>
<path fill-rule="evenodd" clip-rule="evenodd" d="M125.006 190.246L143.929 196.1L125.006 197.42V190.246Z" fill="#2E6889"/>
<path fill-rule="evenodd" clip-rule="evenodd" d="M125.004 164.867C125.62 164.867 129.889 165.923 137.678 168.036C139.922 168.652 141.286 170.94 140.67 173.228C140.626 173.36 140.626 173.448 140.582 173.58L139.13 177.673C138.646 179.037 137.634 180.181 136.314 180.842L125.004 186.474C125.004 175.649 125.004 168.432 125.004 164.867Z" fill="#08273B"/>
<path fill-rule="evenodd" clip-rule="evenodd" d="M125.004 169.047C125.356 169.047 129.228 170.015 136.665 171.951L125.004 178.772C125.004 174.855 125.004 171.599 125.004 169.047Z" fill="#224A66"/>
<path d="M132.44 183.745C135.065 183.745 137.192 181.617 137.192 178.993C137.192 176.368 135.065 174.24 132.44 174.24C129.815 174.24 127.688 176.368 127.688 178.993C127.688 181.617 129.815 183.745 132.44 183.745Z" fill="#03121F"/>
<path d="M150.27 64.7979L147.805 63.0814C147.277 62.7293 146.661 62.5092 146.045 62.5092H125.01V59.6484H146.089C147.321 59.6484 148.509 60.0005 149.477 60.7487L151.942 62.4652L150.27 64.7979Z" fill="white"/>
<path fill-rule="evenodd" clip-rule="evenodd" d="M143.625 69.2867C142.525 68.0545 147.102 63.2138 149.214 60.3093C163.032 41.4305 173.154 30.3849 178.126 27.0404C183.803 23.2558 190.184 54.5445 191.944 75.6236C192.869 87.0213 187.5 95.9547 185.74 98.5511C184.111 100.927 169.809 90.4539 163.692 84.733C160.788 82.0046 156.167 79.4082 152.251 76.5038C147.806 73.2913 144.197 69.9468 143.625 69.2867Z" fill="#A54C00"/>
<path fill-rule="evenodd" clip-rule="evenodd" d="M178.215 34.959C171.57 43.6283 166.685 49.8332 163.517 53.6178C160.348 57.4023 156.388 62.4631 151.547 68.8001C153.439 71.3084 154.979 73.2007 156.168 74.5209C157.356 75.8411 159.072 77.5574 161.404 79.7577C163.385 79.3176 164.837 78.9216 165.761 78.6575C166.685 78.3495 167.785 77.9534 169.017 77.4254C170.162 78.8776 171.086 79.8897 171.746 80.5498C172.406 81.2099 174.254 82.4421 177.247 84.3344C179.711 76.7653 181.119 69.5922 181.559 62.8592C181.911 56.0822 180.811 46.7968 178.215 34.959Z" fill="#803100"/>
<path d="M186.662 99.6512L184.374 97.9789L184.55 97.7149C186.178 95.2945 191.415 86.6692 190.535 75.7556C189.743 65.9421 187.983 54.6324 185.87 45.4351C182.438 30.4288 179.753 28.4485 179.225 28.2285C179.093 28.1845 179.049 28.1405 178.917 28.2725C173.461 31.925 162.811 44.2029 150.401 61.1894C149.873 61.9375 149.169 62.7737 148.465 63.6538C147.101 65.326 145.208 67.6584 144.944 68.7146L142.172 67.9664C142.568 66.4262 144.064 64.5339 146.264 61.8495C146.969 60.9694 147.629 60.1773 148.113 59.4732C160.655 42.2226 171.568 29.6807 177.289 25.8521C178.257 25.192 179.401 25.104 180.414 25.6321C181.47 26.1602 184.682 27.7004 188.599 44.775C190.711 54.0604 192.515 65.5461 193.307 75.4916C194.276 87.4174 188.599 96.7468 186.839 99.3431L186.662 99.6512Z" fill="white"/>
<path fill-rule="evenodd" clip-rule="evenodd" d="M141.016 136.011C143.788 141.468 146.252 144.372 148.365 144.724C150.477 145.076 156.198 142.788 165.571 137.903L171.556 129.938C170.632 129.234 169.972 128.662 169.576 128.178C169.136 127.738 168.564 126.99 167.816 125.934C161.215 127.782 156.418 129.278 153.425 130.422C150.433 131.566 146.296 133.415 141.016 136.011Z" fill="#050F1A"/>
<path fill-rule="evenodd" clip-rule="evenodd" d="M152.02 129.258C152.856 135.287 154.264 139.071 156.244 140.699C158.136 142.239 160.996 141.139 164.781 137.355C165.133 137.003 165.221 136.519 165.089 136.035L162.712 129.742C162.36 128.774 161.392 128.202 160.38 128.29L152.02 129.258Z" fill="#092338"/>
<path fill-rule="evenodd" clip-rule="evenodd" d="M160.819 125.957L159.454 134.714C159.234 136.035 159.498 137.399 160.203 138.543L163.063 143.296L169.532 137.839L160.819 125.957Z" fill="#113147"/>
<path fill-rule="evenodd" clip-rule="evenodd" d="M158.707 125.429C158.707 125.737 158.839 129.346 159.103 136.166C159.103 136.43 159.367 136.65 159.631 136.65C159.675 136.65 159.675 136.65 159.719 136.65C160.907 136.43 161.831 136.21 162.579 135.946C163.415 135.682 164.692 135.11 166.364 134.318L162.579 124.857C159.983 124.945 158.707 125.121 158.707 125.429Z" fill="#365E77"/>
<path d="M156.282 137.323C158.906 137.323 161.034 135.195 161.034 132.571C161.034 129.946 158.906 127.818 156.282 127.818C153.657 127.818 151.529 129.946 151.529 132.571C151.529 135.195 153.657 137.323 156.282 137.323Z" fill="white"/>
<path fill-rule="evenodd" clip-rule="evenodd" d="M64.2788 98.8603C60.4942 100.753 57.5458 105.945 55.3895 114.395C53.4972 121.744 51.957 129.841 50.7248 138.598C50.3727 141.239 50.6808 143.923 51.6049 146.431C56.5336 159.369 63.1346 170.063 71.3638 178.468C79.6371 186.873 90.4627 195.367 103.841 203.816C106.393 205.444 109.341 206.28 112.334 206.28H125.008V61.0586H104.193C103.005 61.0586 101.86 61.5427 101.024 62.3788L64.2788 98.8603Z" fill="#CB6E1A"/>
<path fill-rule="evenodd" clip-rule="evenodd" d="M116.384 145.861C115.548 138.512 114.536 132.923 113.348 129.139C112.116 125.354 109.828 120.602 106.483 114.969C95.0413 112.548 86.5921 110.392 81.1793 108.5C75.7664 106.607 69.2095 102.911 61.5083 97.498L50.2427 101.899L46.5461 145.861L85.932 206.634H125.01L116.384 145.861Z" fill="#FEA355"/>
<path fill-rule="evenodd" clip-rule="evenodd" d="M45.6942 155.852C66.5533 141.109 85.08 146.786 101.318 172.97C104.267 177.723 122.75 182.432 124.994 186.48C133.135 201.046 129.175 212.092 113.112 219.705L45.6942 155.852Z" fill="white"/>
<path fill-rule="evenodd" clip-rule="evenodd" d="M90.3649 133.318C90.4089 159.986 81.5636 181.726 63.8289 198.58C46.0943 215.435 66.4693 220.583 124.998 214.07V134.287L90.3649 133.318Z" fill="#C8F4FD"/>
<path fill-rule="evenodd" clip-rule="evenodd" d="M103.628 169.344C102.704 169.828 97.9076 173.304 89.1943 179.685C96.6314 191.259 103.276 197.42 109.085 198.212C114.894 199.004 120.219 198.08 125.016 195.395V169.344C111.682 168.859 104.553 168.859 103.628 169.344Z" fill="#87BFD9"/>
<path fill-rule="evenodd" clip-rule="evenodd" d="M125.016 134.316C125.016 134.316 121.935 134.492 117.358 137.749C112.298 141.313 100.856 155.044 97.9956 176.387C96.6754 186.244 105.697 192.625 125.016 195.486C125.016 154.735 125.016 134.316 125.016 134.316Z" fill="white"/>
<path fill-rule="evenodd" clip-rule="evenodd" d="M125.016 132.289V149.012C122.815 149.056 120.527 148.572 118.107 147.515C115.686 146.459 113.266 143.775 110.802 139.374L125.016 132.289Z" fill="#D5FBFE"/>
<path fill-rule="evenodd" clip-rule="evenodd" d="M125.016 178.76C125.016 178.76 117.182 183.512 101.516 193.018L125.016 199.663C125.016 185.713 125.016 178.76 125.016 178.76Z" fill="#B0E9FE"/>
<path fill-rule="evenodd" clip-rule="evenodd" d="M125.016 190.246L106.049 196.1L125.016 197.42V190.246Z" fill="#2E6889"/>
<path fill-rule="evenodd" clip-rule="evenodd" d="M125.012 164.867C124.396 164.867 120.127 165.923 112.338 168.036C110.094 168.652 108.729 170.94 109.345 173.228C109.389 173.36 109.389 173.448 109.433 173.58L110.886 177.673C111.37 179.037 112.382 180.181 113.702 180.842L124.968 186.474C125.012 175.649 125.012 168.432 125.012 164.867Z" fill="#08273B"/>
<path fill-rule="evenodd" clip-rule="evenodd" d="M125.012 169.047C124.66 169.047 120.787 170.015 113.351 171.951L125.012 178.728C125.012 174.855 125.012 171.599 125.012 169.047Z" fill="#224A66"/>
<path d="M117.531 174.24C114.906 174.24 112.778 176.368 112.778 178.993C112.778 181.617 114.906 183.745 117.531 183.745C120.155 183.745 122.283 181.617 122.283 178.993C122.283 176.368 120.155 174.24 117.531 174.24Z" fill="#03121F"/>
<path d="M99.7119 64.7979L98.0836 62.4652L100.548 60.7487C101.56 60.0445 102.748 59.6484 103.936 59.6484H125.016V62.5092H103.936C103.32 62.5092 102.704 62.6853 102.176 63.0814L99.7119 64.7979Z" fill="white"/>
<path fill-rule="evenodd" clip-rule="evenodd" d="M106.404 69.2867C107.504 68.0545 102.928 63.2138 100.815 60.3093C86.9972 41.4305 76.8757 30.3849 71.9029 27.0404C66.2261 23.2558 59.8451 54.5445 58.0849 75.6236C57.1607 87.0213 62.5295 95.9547 64.2898 98.5511C65.918 100.927 80.2202 90.4539 86.3371 84.733C89.2415 82.0046 93.8622 79.4082 97.7788 76.5038C102.179 73.2913 105.788 69.9468 106.404 69.2867Z" fill="#A54C00"/>
<path fill-rule="evenodd" clip-rule="evenodd" d="M71.7676 34.959C78.4126 43.6283 83.2973 49.8332 86.4658 53.6178C89.6342 57.4023 93.5948 62.4631 98.4355 68.8001C96.5433 71.3084 95.003 73.2007 93.8149 74.5209C92.6267 75.8411 90.9104 77.5574 88.5781 79.7577C86.5978 79.3176 85.1456 78.9216 84.2214 78.6575C83.2973 78.3495 82.1971 77.9534 80.9649 77.4254C79.8208 78.8776 78.8966 79.8897 78.2365 80.5498C77.5764 81.1659 75.7282 82.4421 72.7357 84.3344C70.2714 76.7653 68.8631 69.5922 68.4231 62.8592C68.071 56.0822 69.1712 46.7968 71.7676 34.959Z" fill="#803100"/>
<path d="M63.3629 99.6512L63.1429 99.3431C61.3826 96.7468 55.7058 87.4174 56.6739 75.4916C57.51 65.5461 59.2703 54.0604 61.3826 44.775C65.2992 27.7004 68.4677 26.1602 69.5238 25.6321C70.58 25.104 71.6801 25.192 72.6483 25.8521C78.3691 29.6807 89.3268 42.2226 101.913 59.4732C102.397 60.1773 103.057 60.9694 103.761 61.8495C105.961 64.5779 107.413 66.4262 107.854 67.9664L105.081 68.7146C104.817 67.6584 102.925 65.326 101.561 63.6538C100.856 62.7737 100.152 61.9375 99.6243 61.1894C87.2144 44.2029 76.5649 31.925 71.1081 28.2725C70.976 28.1845 70.932 28.1845 70.8 28.2285C70.3159 28.4925 67.5875 30.4288 64.155 45.4351C62.0427 54.5884 60.3265 65.9421 59.4903 75.7556C58.5662 86.7132 63.803 95.2945 65.4752 97.7149L65.6512 97.9789L63.3629 99.6512Z" fill="white"/>
<path fill-rule="evenodd" clip-rule="evenodd" d="M108.971 136.011C106.198 141.468 103.734 144.372 101.622 144.724C99.5093 145.076 93.7885 142.788 84.4151 137.903L78.4302 129.938C79.3543 129.234 80.0144 128.662 80.4105 128.178C80.8505 127.738 81.4226 126.99 82.1707 125.934C88.7717 127.782 93.5684 129.278 96.5609 130.422C99.5533 131.566 103.69 133.415 108.971 136.011Z" fill="#050F1A"/>
<path fill-rule="evenodd" clip-rule="evenodd" d="M97.957 129.258C97.121 135.287 95.7128 139.071 93.7327 140.699C91.8405 142.239 88.9803 141.139 85.196 137.355C84.8439 137.003 84.7559 136.519 84.8879 136.035L87.2641 129.742C87.6162 128.774 88.5842 128.202 89.5963 128.29L97.957 129.258Z" fill="#092338"/>
<path fill-rule="evenodd" clip-rule="evenodd" d="M89.1599 125.957L90.5241 134.714C90.7441 136.035 90.4801 137.399 89.776 138.543L86.9155 143.296L80.4466 137.839L89.1599 125.957Z" fill="#113147"/>
<path fill-rule="evenodd" clip-rule="evenodd" d="M91.2715 125.429C91.2715 125.737 91.1395 129.346 90.8755 136.166C90.8755 136.43 90.6114 136.65 90.3474 136.65C90.3034 136.65 90.3034 136.65 90.2594 136.65C89.0713 136.43 88.1472 136.21 87.3992 135.946C86.5631 135.682 85.287 135.11 83.6148 134.318L87.3992 124.857C89.9954 124.945 91.2715 125.121 91.2715 125.429Z" fill="#365E77"/>
<path d="M93.7027 137.323C91.078 137.323 88.9503 135.195 88.9503 132.571C88.9503 129.946 91.078 127.818 93.7027 127.818C96.3274 127.818 98.4551 129.946 98.4551 132.571C98.4551 135.195 96.3274 137.323 93.7027 137.323Z" fill="white"/>
<path fill-rule="evenodd" clip-rule="evenodd" d="M185.693 98.8603C189.477 100.753 192.426 105.945 194.582 114.395C196.474 121.744 198.015 129.841 199.247 138.598C199.599 141.239 199.291 143.923 198.367 146.431C193.438 159.369 186.837 170.063 178.608 178.468C170.335 186.873 159.509 195.367 146.131 203.816C143.579 205.444 140.63 206.28 137.638 206.28H125.008V61.0586H145.823C147.011 61.0586 148.155 61.5427 148.991 62.3788L185.693 98.8603Z" fill="url(#paint2_linear_242_93211)"/>
<path fill-rule="evenodd" clip-rule="evenodd" d="M133.595 145.836C134.431 138.487 135.443 132.898 136.631 129.113C137.864 125.329 140.152 120.576 143.496 114.943C154.938 112.523 163.387 110.367 168.8 108.474C174.213 106.582 180.77 102.885 188.471 97.4727L199.737 101.873L203.433 145.836L164.047 206.609H125.014L133.595 145.836Z" fill="url(#paint3_linear_242_93211)"/>
<path d="M175.774 96.0342L173.158 116.24L175.995 116.608L178.611 96.4016L175.774 96.0342Z" fill="#8BF2FF"/>
<path d="M180.312 129.962C176.88 129.962 174.107 127.19 174.107 123.757C174.107 120.325 176.88 117.553 180.312 117.553C183.744 117.553 186.516 120.325 186.516 123.757C186.516 127.19 183.744 129.962 180.312 129.962ZM180.312 120.413C178.464 120.413 176.968 121.909 176.968 123.757C176.968 125.605 178.464 127.102 180.312 127.102C182.16 127.102 183.656 125.605 183.656 123.757C183.656 121.909 182.16 120.413 180.312 120.413Z" fill="#8BF2FF"/>
<path d="M189.027 145.89C185.595 145.89 182.822 143.117 182.822 139.685C182.822 136.253 185.595 133.48 189.027 133.48C192.459 133.48 195.231 136.253 195.231 139.685C195.231 143.117 192.459 145.89 189.027 145.89ZM189.027 136.341C187.179 136.341 185.683 137.837 185.683 139.685C185.683 141.533 187.179 143.029 189.027 143.029C190.875 143.029 192.371 141.533 192.371 139.685C192.371 137.837 190.875 136.341 189.027 136.341Z" fill="#8BF2FF"/>
<path d="M168.609 152.847C165.177 152.847 162.404 150.074 162.404 146.642C162.404 143.21 165.177 140.438 168.609 140.438C172.041 140.438 174.813 143.21 174.813 146.642C174.813 150.074 172.041 152.847 168.609 152.847ZM168.609 143.298C166.761 143.298 165.265 144.794 165.265 146.642C165.265 148.49 166.761 149.986 168.609 149.986C170.457 149.986 171.953 148.49 171.953 146.642C171.953 144.794 170.457 143.298 168.609 143.298Z" fill="#8BF2FF"/>
<path d="M181.855 125.957H178.994V136.782H181.855V125.957Z" fill="#8BF2FF"/>
<path d="M187.593 140.778L176.064 154.773L178.273 156.592L189.801 142.596L187.593 140.778Z" fill="#8BF2FF"/>
<path d="M185.188 131.737L182.92 133.48L187.024 138.819L189.292 137.075L185.188 131.737Z" fill="#8BF2FF"/>
<path d="M166.536 145.606L138.486 147.596L138.689 150.449L166.739 148.459L166.536 145.606Z" fill="#8BF2FF"/>
<path d="M133.184 132.116L131.775 129.608L156.155 115.834L168.257 120.455L167.245 123.095L156.375 119.002L133.184 132.116Z" fill="#8BF2FF"/>
<path d="M176.094 108.101L175.693 110.934L196.827 113.92L197.228 111.087L176.094 108.101Z" fill="#8BF2FF"/>
<path fill-rule="evenodd" clip-rule="evenodd" d="M204.32 155.854C183.46 141.111 164.934 146.788 148.695 172.972C145.747 177.725 127.264 182.434 125.02 186.482C116.879 201.048 120.839 212.094 136.901 219.707L204.32 155.854Z" fill="white"/>
<path fill-rule="evenodd" clip-rule="evenodd" d="M159.608 133.32C159.564 159.988 168.409 181.728 186.144 198.582C203.878 215.437 183.503 220.585 124.975 214.072V134.288L159.608 133.32Z" fill="#C8F4FD"/>
<path fill-rule="evenodd" clip-rule="evenodd" d="M146.352 169.344C147.276 169.828 152.073 173.304 160.786 179.685C153.349 191.259 146.704 197.42 140.895 198.212C135.086 199.004 129.762 198.08 124.965 195.395V169.344C138.343 168.859 145.428 168.859 146.352 169.344Z" fill="#87BFD9"/>
<path fill-rule="evenodd" clip-rule="evenodd" d="M125.008 134.316C125.008 134.316 128.088 134.492 132.665 137.749C137.726 141.313 149.167 155.044 152.028 176.387C153.348 186.244 144.327 192.625 125.008 195.486C125.008 154.735 125.008 134.316 125.008 134.316Z" fill="white"/>
<path fill-rule="evenodd" clip-rule="evenodd" d="M125.008 132.289V149.012C127.208 149.056 129.496 148.572 131.917 147.515C134.337 146.459 136.758 143.775 139.222 139.374L125.008 132.289Z" fill="#D5FBFE"/>
<path fill-rule="evenodd" clip-rule="evenodd" d="M125.008 178.76C125.008 178.76 132.841 183.512 148.507 193.018L125.008 199.619C125.008 185.713 125.008 178.76 125.008 178.76Z" fill="#B0E9FE"/>
<path fill-rule="evenodd" clip-rule="evenodd" d="M125.008 190.246L143.931 196.1L125.008 197.42V190.246Z" fill="#2E6889"/>
<path fill-rule="evenodd" clip-rule="evenodd" d="M125.004 164.865C125.62 164.865 129.889 165.921 137.678 168.034C139.922 168.65 141.286 170.938 140.67 173.226C140.626 173.359 140.626 173.447 140.582 173.579L139.13 177.671C138.646 179.035 137.634 180.18 136.314 180.84L125.004 186.472C125.004 175.647 125.004 168.43 125.004 164.865Z" fill="#08273B"/>
<path fill-rule="evenodd" clip-rule="evenodd" d="M125.004 169.047C125.356 169.047 129.228 170.015 136.665 171.951L125.004 178.772C125.004 174.855 125.004 171.599 125.004 169.047Z" fill="#224A66"/>
<path d="M132.44 183.741C135.065 183.741 137.192 181.613 137.192 178.989C137.192 176.364 135.065 174.236 132.44 174.236C129.815 174.236 127.688 176.364 127.688 178.989C127.688 181.613 129.815 183.741 132.44 183.741Z" fill="#03121F"/>
<path d="M150.271 64.7979L147.807 63.0814C147.279 62.7293 146.663 62.5092 146.047 62.5092H125.012V59.6484H146.091C147.323 59.6484 148.511 60.0005 149.479 60.7487L151.944 62.4652L150.271 64.7979Z" fill="white"/>
<path fill-rule="evenodd" clip-rule="evenodd" d="M143.627 69.2867C142.527 68.0545 147.104 63.2138 149.216 60.3093C163.034 41.4305 173.156 30.3849 178.128 27.0404C183.805 23.2558 190.186 54.5445 191.946 75.6236C192.871 87.0213 187.502 95.9547 185.741 98.5511C184.113 100.927 169.811 90.4539 163.694 84.733C160.79 82.0046 156.169 79.4082 152.252 76.5038C147.808 73.2913 144.199 69.9468 143.627 69.2867Z" fill="url(#paint4_linear_242_93211)"/>
<path fill-rule="evenodd" clip-rule="evenodd" d="M178.201 34.9316C171.556 43.6009 166.671 49.8059 163.503 53.5904C160.335 57.375 156.374 62.4358 151.533 68.7727C153.425 71.2811 154.966 73.1734 156.154 74.4936C157.342 75.8138 159.058 77.53 161.391 79.7304C163.371 79.2903 164.823 78.8942 165.747 78.6302C166.671 78.3221 167.772 77.9261 169.004 77.398C170.148 78.8502 171.072 79.8624 171.732 80.5225C172.392 81.1826 174.241 82.4148 177.233 84.307C179.697 76.7379 181.106 69.5648 181.546 62.8318C181.942 56.0988 180.842 46.8134 178.201 34.9316Z" fill="url(#paint5_linear_242_93211)"/>
<path fill-rule="evenodd" clip-rule="evenodd" d="M152.018 72.9531H169.532L180.27 79.2461L177.937 86.8592L156.286 77.7939L152.018 72.9531Z" fill="#113D67"/>
<path fill-rule="evenodd" clip-rule="evenodd" d="M155.317 58.1683C155.933 58.1683 161.346 57.8602 171.512 57.2441L156.241 76.607L149.068 68.1578C152.633 61.4688 154.701 58.1683 155.317 58.1683Z" fill="url(#paint6_linear_242_93211)"/>
<path d="M186.664 99.6512L184.376 97.9789L184.552 97.7149C186.18 95.2945 191.417 86.6692 190.537 75.7556C189.745 65.9421 187.985 54.6324 185.872 45.4351C182.44 30.4288 179.755 28.4485 179.227 28.2285C179.095 28.1845 179.051 28.1405 178.919 28.2725C173.462 31.925 162.813 44.2029 150.403 61.1894C149.875 61.9375 149.171 62.7737 148.467 63.6538C147.103 65.326 145.21 67.6584 144.946 68.7146L142.174 67.9664C142.57 66.4262 144.066 64.5339 146.266 61.8495C146.971 60.9694 147.631 60.1773 148.115 59.4732C160.657 42.2226 171.57 29.6807 177.291 25.8521C178.259 25.192 179.403 25.104 180.416 25.6321C181.472 26.1602 184.684 27.7004 188.601 44.775C190.713 54.0604 192.517 65.5461 193.309 75.4916C194.278 87.4174 188.601 96.7468 186.84 99.3431L186.664 99.6512Z" fill="white"/>
<path fill-rule="evenodd" clip-rule="evenodd" d="M141.012 136.013C143.784 141.47 146.249 144.374 148.361 144.726C150.473 145.078 156.194 142.79 165.567 137.905L171.552 129.94C170.628 129.236 169.968 128.664 169.572 128.18C169.132 127.74 168.56 126.992 167.812 125.936C161.211 127.784 156.414 129.28 153.422 130.424C150.429 131.568 146.293 133.417 141.012 136.013Z" fill="#050F1A"/>
<path fill-rule="evenodd" clip-rule="evenodd" d="M152.023 129.264C152.86 135.293 154.268 139.077 156.248 140.705C158.14 142.245 161 141.145 164.785 137.361C165.137 137.009 165.225 136.525 165.093 136.041L162.716 129.748C162.364 128.78 161.396 128.208 160.384 128.296L152.023 129.264Z" fill="#092338"/>
<path fill-rule="evenodd" clip-rule="evenodd" d="M160.823 125.963L159.458 134.72C159.238 136.04 159.502 137.405 160.206 138.549L163.067 143.301L169.536 137.845L160.823 125.963Z" fill="#113147"/>
<path fill-rule="evenodd" clip-rule="evenodd" d="M158.711 125.435C158.711 125.743 158.843 129.352 159.107 136.172C159.107 136.436 159.371 136.656 159.635 136.656C159.679 136.656 159.679 136.656 159.723 136.656C160.911 136.436 161.835 136.216 162.583 135.952C163.419 135.688 164.695 135.116 166.368 134.324L162.583 124.863C159.987 124.951 158.711 125.127 158.711 125.435Z" fill="#365E77"/>
<path d="M153.908 136.705C156.182 138.018 159.088 137.239 160.401 134.966C161.713 132.692 160.934 129.785 158.661 128.472C156.388 127.16 153.481 127.939 152.169 130.212C150.856 132.485 151.635 135.393 153.908 136.705Z" fill="black"/>
<path d="M153.908 136.705C156.182 138.018 159.088 137.239 160.401 134.966C161.713 132.692 160.934 129.785 158.661 128.472C156.388 127.16 153.481 127.939 152.169 130.212C150.856 132.485 151.635 135.393 153.908 136.705Z" fill="#8BF2FF"/>
<defs>
<linearGradient id="paint0_linear_242_93211" x1="124.989" y1="24.1559" x2="124.989" y2="224.72" gradientUnits="userSpaceOnUse">
<stop stop-color="#031937"/>
<stop offset="1" stop-color="#1292BD"/>
</linearGradient>
<linearGradient id="paint1_linear_242_93211" x1="124.988" y1="93.6058" x2="124.988" y2="156.395" gradientUnits="userSpaceOnUse">
<stop stop-color="#46A8EC"/>
<stop offset="1" stop-color="#ADF6F8"/>
</linearGradient>
<linearGradient id="paint2_linear_242_93211" x1="164.544" y1="61.7211" x2="144.252" y2="150.89" gradientUnits="userSpaceOnUse">
<stop stop-color="#36AED1"/>
<stop offset="1" stop-color="#2D648E"/>
</linearGradient>
<linearGradient id="paint3_linear_242_93211" x1="166.495" y1="97.5862" x2="161.797" y2="181.389" gradientUnits="userSpaceOnUse">
<stop stop-color="#57D2F6"/>
<stop offset="1" stop-color="#429ADC"/>
</linearGradient>
<linearGradient id="paint4_linear_242_93211" x1="168.902" y1="26.7068" x2="164.969" y2="98.7364" gradientUnits="userSpaceOnUse">
<stop stop-color="#18586B"/>
<stop offset="1" stop-color="#1D7191"/>
</linearGradient>
<linearGradient id="paint5_linear_242_93211" x1="166.564" y1="34.9425" x2="166.564" y2="84.2642" gradientUnits="userSpaceOnUse">
<stop stop-color="#1D8CC0"/>
<stop offset="1" stop-color="#1D4C80"/>
</linearGradient>
<linearGradient id="paint6_linear_242_93211" x1="168.984" y1="57.2215" x2="152.686" y2="74.0109" gradientUnits="userSpaceOnUse">
<stop stop-color="#3095B4"/>
<stop offset="1" stop-color="#113D67"/>
</linearGradient>
</defs>
</svg>
