<svg width="250" height="250" viewBox="0 0 250 250" fill="none" xmlns="http://www.w3.org/2000/svg">
<path d="M124.996 249.451C118.896 249.451 112.846 247.851 107.546 244.801L30.1961 200.101C19.3961 193.851 12.7461 182.351 12.7461 169.851V80.6008C12.7461 68.1508 19.3961 56.6008 30.1961 50.3508L107.546 5.70078C118.346 -0.499219 131.646 -0.499219 142.446 5.70078L219.796 50.3508C230.596 56.6008 237.246 68.1008 237.246 80.6008V169.901C237.246 182.351 230.596 193.901 219.796 200.151L142.446 244.801C137.146 247.851 131.096 249.451 124.996 249.451ZM124.996 13.1508C120.996 13.1508 117.046 14.2008 113.596 16.1508L36.2461 60.8508C29.1961 64.9508 24.8461 72.4508 24.8461 80.6008V169.901C24.8961 178.001 29.1961 185.501 36.2461 189.551L113.596 234.251C120.646 238.301 129.296 238.301 136.346 234.251L213.696 189.601C220.696 185.551 225.046 178.051 225.096 169.951V80.6008C225.096 72.4508 220.746 64.9508 213.696 60.8508L136.396 16.2008C132.896 14.2008 128.996 13.1508 124.996 13.1508ZM124.996 208.901C121.696 208.901 118.446 208.051 115.596 206.351L59.3961 174.001C53.5961 170.601 50.0461 164.401 50.0461 157.701V92.8008C50.0461 86.1008 53.5961 79.9008 59.3961 76.5008L115.596 44.1008C121.446 40.7508 128.596 40.7508 134.446 44.1008L190.596 76.5008C196.396 79.8508 199.996 86.1008 199.996 92.8008V157.651C199.996 164.351 196.396 170.601 190.596 173.951L134.396 206.351C131.546 208.051 128.296 208.901 124.996 208.901ZM124.996 50.6508C123.296 50.6508 121.596 51.1008 120.146 51.9508L63.9461 84.4008C60.9461 86.1508 59.1461 89.4008 59.1461 92.8508V157.701C59.1461 161.201 60.9961 164.401 64.0461 166.151L120.196 198.551C123.196 200.301 126.946 200.301 129.946 198.551L186.146 166.151C189.146 164.401 190.996 161.201 190.996 157.701V92.8008C190.996 89.3008 189.146 86.1008 186.096 84.3508L129.846 51.9508C128.396 51.1008 126.696 50.6508 124.996 50.6508ZM124.996 167.801C123.296 167.801 121.646 167.351 120.196 166.501L91.6961 150.051C88.6961 148.301 86.8961 145.101 86.8961 141.651V108.751C86.8961 105.301 88.7461 102.101 91.6961 100.401L120.196 83.9508C123.196 82.2508 126.846 82.2508 129.846 83.9508L158.346 100.401C161.346 102.101 163.146 105.301 163.146 108.751V141.651C163.146 145.101 161.296 148.301 158.346 150.001L129.846 166.451C128.346 167.351 126.696 167.801 124.996 167.801ZM124.996 88.7508C124.346 88.7508 123.746 88.9008 123.196 89.2008L94.6961 105.701C93.5961 106.351 92.9461 107.451 92.8961 108.701V141.701C92.8961 143.001 93.5961 144.151 94.6961 144.801L123.196 161.351C124.296 162.001 125.696 162.001 126.796 161.351L155.296 144.901C156.446 144.251 157.096 143.001 157.096 141.701V108.801C157.046 107.551 156.396 106.401 155.296 105.801L126.796 89.2508C126.246 88.9008 125.646 88.7508 124.996 88.7508Z" fill="url(#paint0_linear_242_93214)"/>
<defs>
<linearGradient id="paint0_linear_242_93214" x1="12.7661" y1="125.247" x2="237.226" y2="125.247" gradientUnits="userSpaceOnUse">
<stop stop-color="#E168FD"/>
<stop offset="1" stop-color="#7B00FC"/>
</linearGradient>
</defs>
</svg>
