<svg width="250" height="250" viewBox="0 0 250 250" fill="none" xmlns="http://www.w3.org/2000/svg">
<rect width="250" height="250" rx="125" fill="white"/>
<g clip-path="url(#clip0_242_94585)">
<path d="M219.789 174.989L179.213 105.594L180.186 145.513C182.111 146.362 183.678 147.859 184.614 149.744C185.55 151.628 185.796 153.781 185.309 155.828L219.789 174.989Z" fill="url(#paint0_linear_242_94585)"/>
<path d="M177.914 85.002C179.225 85.0014 180.521 85.2868 181.711 85.8383C182.9 86.3899 183.956 87.1942 184.803 88.1954L224.682 66.0334L129.996 11.3672V11.5554L173.585 86.1042C174.913 85.3791 176.401 85 177.914 85.002Z" fill="url(#paint1_linear_242_94585)"/>
<path d="M72.277 85.0003C73.3311 85.0024 74.3767 85.1896 75.3661 85.5533L118.085 12.4922L24.5508 66.4943L64.8515 88.8895C65.6825 87.6891 66.7923 86.7082 68.0855 86.0309C69.3788 85.3535 70.8171 84.9999 72.277 85.0003Z" fill="url(#paint2_linear_242_94585)"/>
<path d="M167.467 153.769C167.469 153.086 167.548 152.405 167.704 151.74L129.994 130.785V226.116L170.912 160.864C169.838 160.02 168.97 158.942 168.373 157.713C167.776 156.484 167.466 155.136 167.467 153.769Z" fill="url(#paint3_linear_242_94585)"/>
<path d="M68.532 145.547L69.5094 105.434L28.9512 174.801L63.4298 155.642C63.0039 153.63 63.2774 151.532 64.2052 149.697C65.1329 147.861 66.6594 146.398 68.532 145.547Z" fill="url(#paint4_linear_242_94585)"/>
<path d="M63.2335 94.0453C63.2335 93.9285 63.2465 93.8149 63.251 93.6989L24.1016 71.9434V173.23L66.3916 100.903C65.4009 100.056 64.6055 99.0044 64.0603 97.8206C63.5151 96.6367 63.233 95.3487 63.2335 94.0453Z" fill="url(#paint5_linear_242_94585)"/>
<path d="M186.853 92.7507C187.119 94.4854 186.867 96.2599 186.13 97.8522C185.392 99.4445 184.2 100.784 182.705 101.702L225.93 175.627V71.0352L186.853 92.7507Z" fill="url(#paint6_linear_242_94585)"/>
<path d="M175.19 144.833L174.152 102.257C173.408 101.918 172.714 101.479 172.088 100.953L129.996 124.343V125.087L170.111 147.381C171.485 146.006 173.267 145.112 175.19 144.833Z" fill="url(#paint7_linear_242_94585)"/>
<path d="M72.2767 162.813C71.0604 162.814 69.8565 162.568 68.7376 162.091C67.6187 161.614 66.608 160.915 65.7663 160.037L24.1016 183.19V183.278L120.037 238.666V237.582L73.1248 162.77C72.8454 162.796 72.5631 162.813 72.2767 162.813Z" fill="url(#paint8_linear_242_94585)"/>
<path d="M81.3205 153.768C81.3207 155.144 81.0062 156.502 80.4011 157.737C79.7959 158.973 78.9162 160.053 77.8291 160.897L120.037 228.208V129.879L81.0352 151.552C81.2217 152.276 81.3175 153.021 81.3205 153.768Z" fill="url(#paint9_linear_242_94585)"/>
<path d="M182.89 160.18C182.052 161.016 181.057 161.679 179.963 162.131C178.868 162.583 177.695 162.815 176.511 162.814C176.203 162.814 175.898 162.798 175.598 162.768L129.996 235.49V238.667L224.963 183.838L224.723 183.428L182.89 160.18Z" fill="url(#paint10_linear_242_94585)"/>
<path d="M73.5312 144.824C75.412 145.084 77.1623 145.932 78.5319 147.247L119.076 124.717L77.3474 101.529C76.495 102.104 75.5502 102.529 74.5541 102.785L73.5312 144.824Z" fill="url(#paint11_linear_242_94585)"/>
<path d="M168.87 94.0442C168.868 92.5464 169.24 91.0719 169.952 89.7541L129.996 21.4199V118.65L169.304 96.8066C169.016 95.9139 168.87 94.9819 168.87 94.0442Z" fill="url(#paint12_linear_242_94585)"/>
<path d="M81.32 94.041C81.321 95.2744 81.0686 96.4947 80.5786 97.6265L120.038 119.554V19.0176L79.4111 88.4976C80.6487 90.0803 81.3207 92.0319 81.32 94.041Z" fill="url(#paint13_linear_242_94585)"/>
</g>
<defs>
<linearGradient id="paint0_linear_242_94585" x1="241.351" y1="101.474" x2="82.377" y2="248.928" gradientUnits="userSpaceOnUse">
<stop stop-color="#96AAFD"/>
<stop offset="1" stop-color="#C79FFF"/>
</linearGradient>
<linearGradient id="paint1_linear_242_94585" x1="180.45" y1="35.8154" x2="21.4758" y2="183.27" gradientUnits="userSpaceOnUse">
<stop stop-color="#96AAFD"/>
<stop offset="1" stop-color="#C79FFF"/>
</linearGradient>
<linearGradient id="paint2_linear_242_94585" x1="140.151" y1="-7.63317" x2="-18.8231" y2="139.821" gradientUnits="userSpaceOnUse">
<stop stop-color="#96AAFD"/>
<stop offset="1" stop-color="#C79FFF"/>
</linearGradient>
<linearGradient id="paint3_linear_242_94585" x1="228.234" y1="87.3311" x2="69.2598" y2="234.785" gradientUnits="userSpaceOnUse">
<stop stop-color="#96AAFD"/>
<stop offset="1" stop-color="#C79FFF"/>
</linearGradient>
<linearGradient id="paint4_linear_242_94585" x1="174.967" y1="29.903" x2="15.9929" y2="177.357" gradientUnits="userSpaceOnUse">
<stop stop-color="#96AAFD"/>
<stop offset="1" stop-color="#C79FFF"/>
</linearGradient>
<linearGradient id="paint5_linear_242_94585" x1="151.408" y1="4.50545" x2="-7.56599" y2="151.96" gradientUnits="userSpaceOnUse">
<stop stop-color="#96AAFD"/>
<stop offset="1" stop-color="#C79FFF"/>
</linearGradient>
<linearGradient id="paint6_linear_242_94585" x1="241.495" y1="101.629" x2="82.5211" y2="249.083" gradientUnits="userSpaceOnUse">
<stop stop-color="#96AAFD"/>
<stop offset="1" stop-color="#C79FFF"/>
</linearGradient>
<linearGradient id="paint7_linear_242_94585" x1="216.816" y1="75.0188" x2="57.8423" y2="222.473" gradientUnits="userSpaceOnUse">
<stop stop-color="#96AAFD"/>
<stop offset="1" stop-color="#C79FFF"/>
</linearGradient>
<linearGradient id="paint8_linear_242_94585" x1="217.639" y1="75.907" x2="58.6647" y2="223.361" gradientUnits="userSpaceOnUse">
<stop stop-color="#96AAFD"/>
<stop offset="1" stop-color="#C79FFF"/>
</linearGradient>
<linearGradient id="paint9_linear_242_94585" x1="220.31" y1="78.7856" x2="61.3356" y2="226.24" gradientUnits="userSpaceOnUse">
<stop stop-color="#96AAFD"/>
<stop offset="1" stop-color="#C79FFF"/>
</linearGradient>
<linearGradient id="paint10_linear_242_94585" x1="258.172" y1="119.607" x2="99.1975" y2="267.061" gradientUnits="userSpaceOnUse">
<stop stop-color="#96AAFD"/>
<stop offset="1" stop-color="#C79FFF"/>
</linearGradient>
<linearGradient id="paint11_linear_242_94585" x1="180.63" y1="36.0082" x2="21.6563" y2="183.462" gradientUnits="userSpaceOnUse">
<stop stop-color="#96AAFD"/>
<stop offset="1" stop-color="#C79FFF"/>
</linearGradient>
<linearGradient id="paint12_linear_242_94585" x1="177.823" y1="32.9821" x2="18.8486" y2="180.436" gradientUnits="userSpaceOnUse">
<stop stop-color="#96AAFD"/>
<stop offset="1" stop-color="#C79FFF"/>
</linearGradient>
<linearGradient id="paint13_linear_242_94585" x1="169.201" y1="23.6841" x2="10.2268" y2="171.138" gradientUnits="userSpaceOnUse">
<stop stop-color="#96AAFD"/>
<stop offset="1" stop-color="#C79FFF"/>
</linearGradient>
<clipPath id="clip0_242_94585">
<rect width="227.302" height="227.302" fill="white" transform="translate(11.3652 11.3672)"/>
</clipPath>
</defs>
</svg>
