<svg width="250" height="250" viewBox="0 0 250 250" fill="none" xmlns="http://www.w3.org/2000/svg">
<rect width="250" height="250" rx="125" fill="black"/>
<path d="M212.4 37.6004C189.05 14.2504 158 1.40039 125 1.40039C92.0004 1.40039 60.9504 14.2504 37.6004 37.6004C14.2504 60.9504 1.40039 92.0004 1.40039 125C1.40039 158 14.2504 189.05 37.6004 212.4C60.9504 235.75 92.0004 248.6 125 248.6C158 248.6 189.05 235.75 212.4 212.4C235.75 189.05 248.6 158 248.6 125C248.6 92.0004 235.75 60.9504 212.4 37.6004ZM79.9504 188.8H47.7504L57.4504 170.7L79.9504 188.8ZM45.1004 154.1V99.7504L122.35 161.2V216.2L45.1004 154.1ZM127.6 194.05H154.25L127.6 216.05V194.05ZM127.6 188.8V159.9C127.6 159.1 127.25 158.35 126.6 157.85L84.4504 124.35L124.95 55.1504L202.8 188.8H127.6ZM172.4 126.15L204.8 100.4V154.35L193.9 163.05L172.4 126.15ZM169.7 121.55L127.25 48.6504C126.8 47.8504 125.9 47.3504 125 47.3504C124.05 47.3504 123.2 47.8504 122.75 48.6504L80.3504 121.05L46.7004 94.3004L125 32.9004L203.2 94.9504L169.7 121.55ZM6.65039 125C6.65039 93.4004 18.9504 63.6504 41.3004 41.3004C63.0504 19.5504 91.7504 7.35039 122.35 6.65039V28.2504L40.8504 92.2004C40.2004 92.7004 39.8504 93.4504 39.8504 94.2504V155.3C39.8504 156.1 40.2004 156.85 40.8504 157.35L53.2504 167.3L41.0504 190.15C40.6004 190.95 40.6504 191.95 41.1004 192.75C41.5504 193.55 42.4504 194 43.3504 194H86.5004L122.4 222.85V243.3C91.7504 242.65 63.0504 230.4 41.3504 208.65C18.9504 186.35 6.65039 156.6 6.65039 125ZM208.7 208.7C186.95 230.45 158.25 242.65 127.65 243.35V222.9L162.5 194.1H207.4C208.35 194.1 209.2 193.6 209.65 192.8C210.1 192 210.1 191 209.65 190.2L196.55 167.7L209.05 157.7C209.65 157.2 210.05 156.45 210.05 155.65V94.9504C210.05 94.1504 209.7 93.4004 209.05 92.9004L127.6 28.3004V6.70039C158.25 7.35039 186.95 19.6004 208.65 41.3504C231 63.7004 243.3 93.4004 243.3 125.05C243.35 156.6 231.05 186.35 208.7 208.7Z" fill="#EFC9A9"/>
</svg>
