<svg width="250" height="250" viewBox="0 0 250 250" fill="none" xmlns="http://www.w3.org/2000/svg">
<rect width="250" height="250" rx="125" fill="black"/>
<path d="M180.27 102.303C198.208 102.303 212.499 87.8679 212.499 70.0792C212.499 52.2905 198.062 37.8555 180.27 37.8555C162.479 37.8555 148.041 52.2905 148.041 70.0792C148.041 87.8679 162.479 102.303 180.27 102.303Z" fill="white"/>
<path d="M69.7302 212.108C87.6677 212.108 101.959 197.673 101.959 179.884C101.959 162.095 87.5219 147.66 69.7302 147.66C51.9385 147.66 37.501 162.095 37.501 179.884C37.501 197.673 51.9385 212.108 69.7302 212.108Z" fill="white"/>
<path d="M157.376 47.3456C126.751 34.6603 90.1467 40.7842 65.2092 65.4259C40.2717 90.3592 34.2925 126.666 46.8342 157.14L157.376 47.3456Z" fill="white"/>
<path d="M92.626 202.631C123.251 215.317 159.855 209.193 184.793 184.405C209.73 159.618 215.709 123.311 203.168 92.6914L92.7718 202.485L92.626 202.631Z" fill="white"/>
</svg>
