<svg width="250" height="250" viewBox="0 0 250 250" fill="none" xmlns="http://www.w3.org/2000/svg">
<g clip-path="url(#clip0_242_94693)">
<path d="M125 250C194.036 250 250 194.036 250 125C250 55.9644 194.036 0 125 0C55.9644 0 0 55.9644 0 125C0 194.036 55.9644 250 125 250Z" fill="#E7EFF3"/>
<path d="M154.741 177.543C147.117 173.883 141.092 168.139 139.034 165.724C138.347 167.681 136.594 172.267 135.069 174.951C133.162 178.306 129.731 182.804 126.605 185.549C123.479 188.294 113.414 197.749 102.434 195.919C91.4545 194.089 83.677 188.523 80.017 181.661C76.357 174.798 75.8995 167.936 77.653 160.844C79.056 155.172 82.5075 148.772 84.058 146.281C82.3045 146.688 77.1955 146.921 70.7905 144.603C62.7845 141.706 57.981 137.36 55.236 131.793C52.491 126.227 51.4995 116.391 52.4145 107.394C53.3295 98.396 58.8195 87.645 71.477 88.5595C81.603 89.2915 92.2675 95.0665 96.334 97.862C95.1395 90.161 93.467 72.6845 96.334 64.3885C99.918 54.019 108.687 51.8075 119.438 52.1125C130.189 52.4175 136.289 57.9075 140.254 64.3125C143.426 69.4365 143.863 80.325 143.685 85.1285C146.582 82.282 154.726 76.436 164.12 75.826C175.862 75.0635 181.505 77.1225 186.232 80.706C190.96 84.29 196.297 91.076 197.517 98.091C198.737 105.106 197.059 109.529 193.857 115.095C191.295 119.548 184.86 124.219 181.962 125.998C183.716 127.371 187.94 130.939 190.807 134.233C194.391 138.351 197.746 145.747 197.822 154.821C197.898 163.894 195.154 168.012 192.79 171.977C190.426 175.942 185.546 182.042 177.311 182.728C169.076 183.414 164.272 182.118 154.741 177.543Z" fill="#DC8898"/>
<path d="M102.663 171.215C98.5763 175.912 94.4538 176.781 92.9033 176.628C93.5388 176.196 95.1753 175.088 96.6393 174.112C98.4693 172.892 104.951 164.505 107.162 161.15C108.931 158.466 114.66 149.052 117.303 144.68L118.828 145.519C115.142 152.127 106.75 166.518 102.663 171.215Z" fill="#C57180"/>
<path d="M86.9551 116.01C92.6281 117.291 101.976 121.729 105.941 123.787L104.645 126.38C103.12 125.617 99.5821 123.818 97.6301 122.72C95.1901 121.348 85.9636 117.993 79.4826 117.535C73.0016 117.078 71.0191 118.069 68.3501 119.06C65.6816 120.051 63.2416 122.491 63.7751 120.738C64.3091 118.984 65.7576 117.154 70.2566 115.629C74.7551 114.104 79.8641 114.409 86.9551 116.01Z" fill="#C57180"/>
<path d="M121.269 86.5038C121.818 91.0178 122.412 102.211 122.641 107.244H120.811C120.786 106.151 120.75 103.401 120.811 101.144C120.887 98.3223 119.439 87.4187 118.524 81.3952C117.792 76.5762 115.372 67.6447 114.254 63.7812C115.372 65.4337 117.792 69.3933 118.524 72.0162C119.439 75.2952 120.582 80.8613 121.269 86.5038Z" fill="#C57180"/>
<path d="M153.37 104.192C148.49 107.669 142.848 115.146 140.636 118.45L139.264 116.315C140.611 114.485 143.961 110.109 146.584 107.242C149.863 103.658 155.276 99.4641 163.74 95.4991C170.511 92.3271 178.659 93.5166 181.887 94.5081C180.744 94.4316 178.09 94.3251 176.626 94.5081C174.796 94.7366 172.585 94.8891 168.086 95.9566C163.588 97.0241 159.47 99.8456 153.37 104.192Z" fill="#C57180"/>
<path d="M159.318 147.35C154.316 143.995 141.069 139.191 135.071 137.209L136.367 135.303C138.197 135.913 142.498 137.377 145.06 138.353C148.262 139.572 154.362 142.927 156.65 144.147C158.937 145.367 166.715 150.247 169.002 151.696C171.29 153.145 179.372 159.092 180.973 160.465C182.574 161.837 182.651 163.896 182.193 164.43C181.736 164.964 180.211 162.905 178.228 160.846C176.246 158.787 165.571 151.544 159.318 147.35Z" fill="#C57180"/>
<path d="M123.251 145.976C134.579 145.976 143.762 136.69 143.762 125.236C143.762 113.782 134.579 104.496 123.251 104.496C111.923 104.496 102.74 113.782 102.74 125.236C102.74 136.69 111.923 145.976 123.251 145.976Z" fill="#FBECB3"/>
</g>
<defs>
<clipPath id="clip0_242_94693">
<rect width="250" height="250" fill="white"/>
</clipPath>
</defs>
</svg>
