<svg width="250" height="250" viewBox="0 0 250 250" fill="none" xmlns="http://www.w3.org/2000/svg">
<g clip-path="url(#clip0_242_94031)">
<rect width="250" height="250" rx="125" fill="white"/>
<mask id="mask0_242_94031" style="mask-type:luminance" maskUnits="userSpaceOnUse" x="0" y="0" width="251" height="250">
<path d="M250.007 0H0.00683594V250H250.007V0Z" fill="white"/>
</mask>
<g mask="url(#mask0_242_94031)">
<path d="M125.184 29.0195L107.572 39.1465L59.5811 66.8809L41.9697 77.0107V172.992L59.5811 183.121L108.013 210.855L125.624 220.982L143.239 210.855L190.79 183.121L208.401 172.994V77.0107L190.79 66.8838L142.799 39.1494L125.184 29.0195ZM77.1924 152.739V97.2637L125.184 69.5293L173.175 97.2637V152.739L125.184 180.474L77.1924 152.739Z" fill="#2A5ADA"/>
<path d="M125.005 250.001C116.543 250.003 108.102 249.152 99.81 247.462C83.8207 244.186 68.6327 237.795 55.1127 228.652C35.0157 215.086 19.2843 195.983 9.82466 173.657C6.62967 166.096 4.19102 158.237 2.54439 150.196C-0.841618 133.572 -0.841618 116.436 2.54439 99.8121C5.81928 83.8229 12.2104 68.6349 21.353 55.1148C34.9193 35.0167 54.0233 19.2842 76.3501 9.82382C83.9104 6.62739 91.7688 4.18743 99.81 2.53964C116.434 -0.846548 133.57 -0.846548 150.194 2.53964C166.183 5.81449 181.371 12.2056 194.891 21.3482C214.988 34.9145 230.72 54.0182 240.179 76.3443C243.377 83.905 245.818 91.7636 247.466 99.8053C250.852 116.429 250.852 133.565 247.466 150.189C244.192 166.178 237.801 181.366 228.658 194.886C215.091 214.983 195.987 230.714 173.662 240.174C166.101 243.371 158.242 245.812 150.201 247.462C141.909 249.152 133.468 250.003 125.005 250.001ZM125.005 13.3922C117.45 13.3905 109.915 14.1502 102.512 15.6598C88.2356 18.5835 74.6746 24.2901 62.603 32.4537C44.6616 44.5679 30.6179 61.6249 22.1733 81.5582C19.3195 88.3095 17.1412 95.3268 15.6704 102.507C12.6471 117.35 12.6471 132.65 15.6704 147.493C18.5952 161.769 24.3027 175.33 32.4672 187.401C44.5804 205.345 61.637 219.391 81.5708 227.837C88.3225 230.691 95.3401 232.869 102.521 234.339C117.364 237.363 132.664 237.363 147.506 234.339C161.783 231.416 175.344 225.708 187.415 217.543C205.353 205.429 219.394 188.374 227.837 168.443C230.691 161.691 232.869 154.674 234.34 147.493C237.364 132.65 237.364 117.35 234.34 102.507C231.415 88.2314 225.708 74.671 217.543 62.6002C205.432 44.6592 188.378 30.615 168.448 22.1686C161.696 19.3149 154.678 17.1367 147.498 15.6656C140.095 14.1545 132.56 13.3922 125.005 13.3922Z" fill="url(#paint0_linear_242_94031)"/>
</g>
</g>
<defs>
<linearGradient id="paint0_linear_242_94031" x1="210.756" y1="33.7501" x2="51.5053" y2="221.501" gradientUnits="userSpaceOnUse">
<stop stop-color="#B6509E"/>
<stop offset="1" stop-color="#2EBAC6"/>
</linearGradient>
<clipPath id="clip0_242_94031">
<rect width="250" height="250" rx="125" fill="white"/>
</clipPath>
</defs>
</svg>
