<svg width="250" height="250" viewBox="0 0 250 250" fill="none" xmlns="http://www.w3.org/2000/svg">
<path d="M82.6553 197.14L125.24 87.7527L168.047 197.14H216.075L147.014 32.3184H102.948L33.7754 197.14H82.6553Z" fill="#848DE0"/>
<path d="M147.014 32.3184L125.24 87.7527L178.045 106.786L147.014 32.3184Z" fill="#5B639B"/>
<path d="M125.241 87.7539L143.053 133.116L178.046 106.787L125.241 87.7539Z" fill="#676FB0"/>
<path d="M178.045 106.789L216.075 197.143L143.052 133.118L178.045 106.789Z" fill="#444A74"/>
<path d="M143.052 133.115L168.047 197.141H216.075L143.052 133.115Z" fill="#52578B"/>
<path d="M125.239 87.7527L102.947 32.3184H147.013L125.239 87.7527Z" fill="#848DE0"/>
<path d="M125.239 87.7527L102.947 32.3184L90.542 62.1277L125.239 87.7527Z" fill="#7780CB"/>
<path d="M125.24 87.7539L90.5425 62.1289L72.0273 106.121L125.24 87.7539Z" fill="#676FB0"/>
<path d="M125.24 87.7539L72.0273 106.121L107.613 133.042L125.24 87.7539Z" fill="#5B639C"/>
<path d="M107.614 133.038L33.7754 197.138L72.0277 106.117L107.614 133.038Z" fill="#52578B"/>
<path d="M107.614 133.039L82.6553 197.138H33.7754L107.614 133.039Z" fill="#444A74"/>
</svg>
