<svg width="250" height="250" viewBox="0 0 250 250" fill="none" xmlns="http://www.w3.org/2000/svg">
<rect width="250" height="250" rx="125" fill="white"/>
<mask id="mask0_242_94644" style="mask-type:alpha" maskUnits="userSpaceOnUse" x="11" y="11" width="228" height="228">
<path d="M125.004 238.638C62.3281 238.638 11.3672 187.677 11.3672 125.002C11.3672 62.3262 62.3281 11.3652 125.004 11.3652C187.679 11.3652 238.64 62.3262 238.64 125.002C238.64 187.677 187.679 238.638 125.004 238.638Z" fill="#31C77F"/>
</mask>
<g mask="url(#mask0_242_94644)">
<path d="M125.004 238.638C62.3281 238.638 11.3672 187.677 11.3672 125.002C11.3672 62.3262 62.3281 11.3652 125.004 11.3652C187.679 11.3652 238.64 62.3262 238.64 125.002C238.64 187.677 187.679 238.638 125.004 238.638ZM125.004 19.3734C66.7624 19.3734 19.3753 66.7605 19.3753 125.002C19.3753 183.243 66.7624 230.63 125.004 230.63C183.245 230.63 230.632 183.243 230.632 125.002C230.632 66.7605 183.245 19.3734 125.004 19.3734Z" fill="#31C77F"/>
<path d="M77.6836 231.292C78.544 223.019 88.9347 207.665 88.4714 199.392C88.4714 198.002 88.4714 196.612 88.67 195.222C89.5304 189.398 89.2656 183.574 88.8023 177.75C88.6038 175.367 88.8024 172.985 89.1994 170.602C90.0598 165.44 90.5231 160.41 89.9275 155.115C89.398 150.152 89.9275 145.254 90.9864 140.423C91.8468 136.319 91.7144 132.216 91.1188 128.179C90.9864 127.252 90.7878 126.326 90.9864 125.465C91.5159 122.421 91.8468 119.31 91.913 115.869C94.8912 118.45 98.0018 118.582 101.377 117.854C104.091 117.259 105.745 115.472 106.87 113.023C107.201 112.229 107.4 111.236 108.723 111.501C109.385 111.633 110.113 111.501 110.246 110.64C110.378 109.78 109.716 109.515 108.988 109.383C104.819 108.456 100.649 107.464 96.4796 106.537C95.1559 106.206 93.7661 105.875 92.3762 105.743C91.1849 105.611 90.9202 105.015 91.0526 103.956C91.6482 98.8599 92.5748 93.8961 94.6265 89.1309C96.612 84.5643 99.1931 80.1962 102.833 76.6885C103.296 76.2252 103.826 75.762 103.561 74.9678C103.23 74.2397 102.635 74.0412 101.973 74.2397C101.245 74.5045 100.914 74.1074 100.583 73.5779C99.8549 72.4528 99.1269 71.3939 98.4651 70.2688C96.281 66.6949 93.6337 63.4519 90.9864 60.1428C90.4569 59.4147 89.7289 58.8191 89.0009 58.2896C86.7507 56.7012 84.7652 57.5616 84.5004 60.4075C84.3019 62.1944 84.5005 64.0476 85.0961 65.7683C87.4125 71.7248 89.2656 77.8798 92.641 83.373C93.5013 84.7629 92.3101 85.4247 91.8468 86.4174C90.9864 85.8218 90.5231 84.9614 90.126 84.2334C85.4932 76.0267 81.5884 67.5553 79.9338 58.2234C79.4705 55.7747 79.4705 53.2597 79.6029 50.8109C79.7353 48.0974 80.9266 47.4356 83.5739 48.0974C85.4932 48.6269 86.9492 49.8182 88.3391 51.0757C93.1043 55.4438 97.1414 60.4075 101.443 65.1727C102.568 66.4963 103.76 67.7538 104.819 69.0775C105.547 69.8717 106.142 70.5997 106.275 71.791C106.341 73.1146 107.334 73.5117 108.591 73.0485C108.922 72.9161 109.187 72.7837 109.518 72.5852C111.636 71.1291 113.952 70.6659 116.467 70.2688C123.284 69.0113 130.034 69.5407 136.785 70.9306C137.844 71.1953 138.704 71.7248 139.697 72.2543C141.749 73.5117 142.477 73.1808 143.072 70.9306C143.205 70.2688 143.602 69.7393 144.065 69.2098C149.625 63.0548 154.721 56.5027 160.81 50.8109C162.133 49.5535 163.523 48.3622 165.31 47.8327C168.222 46.9061 169.48 47.8327 169.678 50.8109C170.009 56.5689 168.619 62.0621 166.766 67.4891C164.913 72.8499 162.398 77.946 159.684 82.9759C159.089 84.101 158.361 85.0276 157.567 86.2851C155.118 82.645 155.118 82.7112 156.971 79.2035C159.287 74.9016 161.604 70.732 163.192 66.0992C163.854 64.1799 164.383 62.1282 164.317 60.0766C164.317 58.7529 163.986 57.6278 162.729 56.966C161.471 56.3703 160.479 56.966 159.552 57.694C158.427 58.6205 157.302 59.6133 156.309 60.7384C152.868 64.5108 149.095 67.9524 146.845 72.6514C146.448 73.5779 144.926 73.975 145.521 75.2987C145.918 76.2252 146.845 76.7547 147.441 77.4827C151.014 81.7846 153.86 86.4836 155.581 91.7783C156.706 95.0874 157.434 98.5951 157.897 102.103C158.03 103.294 157.478 104.066 156.243 104.419C151.676 105.611 147.176 106.802 142.675 107.993C142.278 108.125 141.881 108.125 141.484 108.324C140.558 108.787 140.425 109.648 141.352 110.177C141.947 110.508 142.278 110.707 142.477 111.501C143.205 114.678 145.257 116.729 148.499 117.193C151.742 117.722 154.787 117.193 156.706 114.082C156.839 113.883 156.839 113.751 157.236 113.95C157.103 117.656 157.434 121.362 158.162 125.068C158.295 125.796 158.162 126.591 158.162 127.252C157.236 131.951 157.434 136.584 158.361 141.217C159.354 146.379 159.684 151.475 159.089 156.704C158.626 160.476 158.956 164.315 159.684 167.955C160.479 172.125 160.677 176.294 160.214 180.464C159.751 184.765 159.883 189.001 160.346 193.303C160.677 196.017 172.392 207.202 172.259 209.981C174.509 213.886 177.422 221.299 180.201 224.872L174.377 233.675L131.027 241.286L92.1115 237.646L77.8821 231.292H77.6836Z" fill="white"/>
<path d="M347.71 136.782C345.394 134.995 342.68 133.672 340.033 132.348C331.628 128.112 323.09 124.406 314.486 120.7C306.611 117.324 299.595 112.692 293.771 106.338C292.845 105.411 291.852 104.485 290.859 103.624C289.602 102.499 288.212 102.433 286.69 103.161C284.572 104.22 282.52 105.279 280.468 106.536C277.622 108.257 272.857 110.905 269.813 112.294C253.995 119.707 237.582 125.663 221.234 131.62C206.674 136.981 192.643 143.268 179.01 150.548C173.98 153.262 169.347 156.571 165.111 160.277C164.383 160.873 163.721 161.601 162.993 162.13C162.993 162.13 162.861 162.13 162.861 161.998C162.662 162.594 162.199 163.123 161.604 163.388C161.339 164.381 160.611 165.241 159.287 165.241H158.956C158.824 171.131 159.089 177.021 159.684 182.912C159.949 185.03 159.353 186.486 157.897 188.074C150.485 195.95 142.146 202.568 133.608 209.054C133.343 209.253 133.012 209.385 132.814 209.65C132.02 210.841 131.093 210.775 129.902 210.179C127.718 209.054 125.534 209.65 123.548 210.841C122.423 211.503 121.629 211.437 120.636 210.973C115.672 208.458 110.709 205.877 106.076 202.568C99.8547 198.2 93.6997 193.832 88.2727 188.537C87.6108 187.942 87.1476 187.28 86.949 186.618C86.8166 186.618 86.6843 186.552 86.6181 186.486C86.6181 186.486 86.574 186.486 86.4857 186.486C85.3606 186.022 87.2137 184.5 85.9563 184.302C85.6915 184.434 85.493 184.434 85.2282 184.566C84.8973 184.897 82.7133 185.228 81.1249 186.552C80.9925 186.684 80.8602 186.75 80.7278 186.883C76.1612 190.523 74.9699 195.751 77.6834 200.914C78.2128 201.84 78.0143 202.502 77.6834 203.362C75.5655 207.664 75.7641 211.768 78.8085 215.606C79.6027 216.665 80.3307 217.724 81.4558 218.518L83.9708 220.239C85.4268 221.033 87.5446 221.827 88.6036 222.158C93.2364 223.416 97.9354 224.21 102.701 224.409C104.885 224.541 107.135 224.144 109.319 223.945C113.555 223.548 117.856 223.217 122.026 222.622C123.614 222.357 125.137 222.82 126.593 222.886C127.916 222.886 129.306 223.085 130.431 222.357C132.549 221.033 134.998 221.033 137.248 220.835C142.344 220.371 147.308 219.246 152.206 217.724C157.169 216.202 162.067 214.68 166.832 212.496C171.597 210.312 175.701 207.532 178.083 202.701C178.348 202.237 178.613 201.973 179.01 201.708C182.65 199.524 188.606 198.399 191.849 197.075C196.879 194.295 201.909 191.516 207.005 188.802C214.219 185.03 221.433 181.257 229.243 178.742C242.413 174.374 256.047 172.19 269.813 170.469C274.843 169.808 279.939 169.41 284.969 168.153C293.639 165.969 301.912 162.991 310.383 160.277C313.163 159.351 316.009 158.49 318.722 157.299C327.127 153.593 335.268 149.158 343.342 144.857C344.864 144.062 346.32 143.07 347.71 142.011C350.093 140.091 350.027 138.701 347.71 136.848V136.782Z" fill="#231F20"/>
<path d="M172.324 50.1498C172.126 46.3773 169.545 44.3257 165.772 45.0537C164.052 45.3846 162.463 45.9802 161.007 47.0392C157.433 49.6203 154.455 52.7971 151.609 56.1063C148.234 59.9449 144.858 63.7835 141.615 67.7545C140.623 68.9458 139.696 69.012 138.439 68.4825C136.519 67.5559 134.468 66.8941 132.284 66.7617C124.805 66.2323 117.326 65.9675 110.112 68.7472C108.59 69.3429 107.796 69.0781 106.737 67.8207C103.56 63.982 100.251 60.2096 96.8757 56.371C93.8974 53.0618 90.9192 49.8189 87.2791 47.1715C85.5584 45.9141 83.6391 45.3184 81.5212 45.2522C78.8739 45.1199 77.1531 46.4435 76.4913 49.0247C76.2927 49.8189 76.2266 50.6792 76.2266 51.4734C76.2266 56.0401 77.0869 60.4743 77.9473 64.9086C79.271 71.3284 82.183 77.1525 84.7642 83.109C85.7569 85.4254 87.0806 87.6756 88.8675 89.4625C89.5294 90.1905 89.6617 90.7862 89.397 91.6466C88.9999 93.0364 88.669 94.4924 88.2719 95.9485C86.882 101.177 86.3526 106.538 87.1468 111.832C87.6101 114.678 87.4777 117.392 87.1468 120.171C86.8159 123.216 86.6835 126.194 87.4115 129.239C88.2719 132.812 88.0733 136.453 87.1468 140.026C86.2202 143.799 85.6907 147.637 85.8893 151.476C86.154 155.646 85.6246 159.683 85.4922 163.786C85.4922 166.169 85.4922 168.551 84.9627 170.934C84.2347 173.912 84.3009 176.957 84.7642 180.001C85.6246 185.957 85.0951 183.045 85.2936 186.619C86.4188 186.619 87.6762 190.061 88.8675 189.995C88.8675 187.215 88.5366 180.464 88.2719 177.685C88.0733 175.302 88.2719 172.919 88.669 170.537C89.5294 165.375 89.9926 160.345 89.397 155.05C88.8675 150.086 89.397 145.189 90.4559 140.357C91.3163 136.254 91.1839 132.151 90.5883 128.113C90.4559 127.187 90.2574 126.26 90.4559 125.4C90.9854 122.356 91.3163 119.245 91.3825 115.803C94.3607 118.385 97.4713 118.517 100.847 117.789C103.56 117.193 105.215 115.406 106.34 112.958C106.671 112.163 106.869 111.171 108.193 111.435C108.855 111.568 109.583 111.435 109.715 110.575C109.848 109.715 109.186 109.45 108.458 109.317C104.288 108.391 100.119 107.398 95.9491 106.472C94.6255 106.141 93.2356 105.81 91.8458 105.677C90.6545 105.545 90.3897 104.949 90.5221 103.89C91.1178 98.7943 92.0443 93.8306 94.096 89.0654C96.0815 84.4988 98.6626 80.1307 102.303 76.623C102.766 76.1597 103.295 75.6964 103.031 74.9023C102.7 74.1742 102.104 73.9757 101.442 74.1742C100.714 74.439 100.383 74.0419 100.052 73.5124C99.3245 72.3873 98.5964 71.3284 97.9346 70.2033C95.7506 66.6294 93.1032 63.3864 90.4559 60.0772C89.9265 59.3492 89.1984 58.7536 88.4704 58.2241C86.2202 56.6357 84.2347 57.4961 83.97 60.342C83.7714 62.1289 83.97 63.982 84.5656 65.7028C86.882 71.6593 88.7352 77.8143 92.1105 83.3075C92.9709 84.6973 91.7796 85.3592 91.3163 86.3519C90.4559 85.7563 89.9926 84.8959 89.5955 84.1679C84.9627 75.9612 81.0579 67.4897 79.4033 58.1579C78.9401 55.7092 78.9401 53.1942 79.0724 50.7454C79.2048 48.0319 80.3961 47.3701 83.0434 48.0319C84.9627 48.5614 86.4188 49.7527 87.8086 51.0102C92.5738 55.3782 96.611 60.342 100.913 65.1072C102.038 66.4308 103.229 67.6883 104.288 69.012C105.016 69.8062 105.612 70.5342 105.744 71.7255C105.877 73.0491 106.803 73.4462 108.061 72.9829C108.392 72.8506 108.656 72.7182 108.987 72.5197C111.105 71.0636 113.421 70.6003 115.936 70.2033C122.753 68.9458 129.504 69.4752 136.255 70.8651C137.314 71.1298 138.174 71.6593 139.167 72.1887C141.218 73.4462 141.946 73.1153 142.542 70.8651C142.674 70.2032 143.071 69.6738 143.535 69.1443C149.094 62.9893 154.19 56.4372 160.279 50.7454C161.603 49.4879 162.993 48.2966 164.78 47.7672C167.758 46.8406 168.949 47.7672 169.148 50.7454C169.479 56.5033 168.089 61.9965 166.236 67.4236C164.382 72.7844 161.867 77.8805 159.154 82.9104C158.558 84.0355 157.83 84.9621 157.036 86.2196C154.587 82.5795 154.587 82.6457 156.44 79.138C158.757 74.8361 161.073 70.6665 162.662 66.0337C163.324 64.1144 163.853 62.0627 163.787 60.0111C163.787 58.6874 163.456 57.5623 162.198 56.9004C160.941 56.3048 159.948 56.9004 159.022 57.6285C157.896 58.555 156.771 59.5478 155.779 60.6729C152.337 64.4453 148.565 67.8868 146.314 72.5858C145.917 73.5124 144.395 73.9095 144.991 75.2332C145.388 76.1597 146.314 76.6892 146.91 77.4172C150.484 81.7191 153.33 86.4181 155.051 91.6466C156.176 94.9557 156.904 98.4634 157.367 101.971C157.499 103.162 156.948 103.935 155.712 104.288C151.146 105.479 146.645 106.67 142.145 107.861C141.748 107.994 141.351 107.994 140.954 108.192C140.027 108.656 139.895 109.516 140.821 110.045C141.417 110.376 141.748 110.575 141.946 111.369C142.674 114.546 144.726 116.598 147.969 117.061C151.212 117.59 154.256 117.061 156.176 113.95C156.308 113.752 156.308 113.619 156.705 113.818C156.639 117.524 156.904 121.23 157.632 124.937C157.764 125.665 157.632 126.459 157.632 127.121C156.705 131.82 156.904 136.453 157.83 141.085C158.823 146.248 159.154 151.344 158.558 156.572C158.095 160.345 158.426 164.183 159.154 167.823C159.948 171.993 160.147 176.162 159.683 180.332C159.551 181.722 159.419 183.112 159.419 184.501C160.544 184.501 161.735 184.568 162.86 184.634C162.86 183.906 162.993 183.178 163.059 182.516C163.522 178.545 164.052 174.574 163.323 170.471C162.198 164.514 162.397 158.359 162.265 152.27C162.265 147.902 162.132 143.6 161.007 139.298C160.147 135.989 159.882 132.614 160.676 129.305C161.537 125.598 161.404 121.958 160.941 118.252C160.676 116.531 160.345 114.811 160.809 113.09C161.669 109.781 161.537 106.405 161.404 103.03C161.206 99.0591 160.081 95.2205 159.088 91.448C158.757 90.3229 158.823 89.5287 159.75 88.6021C160.875 87.477 161.867 86.0872 162.529 84.565C166.699 76.0274 170.471 67.4236 171.596 57.8932C171.993 55.3782 172.391 52.7309 172.258 49.9512L172.324 50.1498Z" fill="#231F20"/>
<path d="M344.73 139.897C341.156 141.817 338.046 143.537 334.869 145.192C329.508 147.972 324.015 150.619 318.456 153.134C315.61 154.458 312.631 155.45 309.653 156.311C302.572 158.495 295.556 160.745 288.475 162.863C281.922 164.848 275.106 165.576 268.355 166.371C259.751 167.429 251.213 168.621 242.874 170.672C235.528 172.459 228.182 174.312 221.166 177.158C215.739 179.342 210.577 182.122 205.415 184.769C199.591 187.814 193.899 191.123 188.207 194.498C186.023 195.822 183.508 196.418 181.126 197.278C180.331 197.543 179.736 197.41 179.405 196.484C178.544 193.969 176.691 192.182 174.309 191.057C173.382 190.594 173.25 189.998 173.316 189.071C173.448 187.681 173.316 186.292 172.853 184.902C172.257 183.181 171.132 182.122 169.477 181.593C167.889 181.063 166.301 180.666 164.646 180.865C163.521 180.997 163.124 180.6 163.124 179.607C163.124 178.813 162.991 177.953 162.925 177.158C162.793 175.04 163.058 172.79 162.661 170.805C162.197 168.29 162.991 166.701 164.845 165.047C171.066 159.421 178.147 155.252 185.692 151.546C201.709 143.604 218.387 137.25 235.197 131.227C249.956 125.933 264.318 119.844 278.349 112.961C281.592 111.372 284.702 109.453 287.813 107.6C288.739 107.07 289.335 107.07 290.063 107.997C295.821 115.476 303.564 120.175 312.036 123.881C321.301 127.918 330.435 132.286 339.502 136.72C341.223 137.515 342.877 138.64 344.863 139.765L344.73 139.897Z" fill="#31C77F"/>
<path d="M80.8575 204.753C81.6517 205.084 82.1811 205.283 82.7106 205.481C83.6372 205.812 84.5637 205.878 85.1594 204.952C85.8212 204.025 85.1594 203.231 84.4976 202.635C83.7034 201.907 82.9092 201.245 82.115 200.517C78.872 197.539 80.2618 192.112 83.3063 190.193C84.0343 189.73 84.6299 189.531 85.2256 190.325C85.3579 190.524 85.5565 190.656 85.755 190.855C92.0424 197.936 99.9182 203.098 107.794 208.128C111.368 210.445 115.074 212.629 119.045 214.217C120.038 214.614 120.501 215.144 120.303 216.203C120.104 217.129 120.17 217.99 120.501 218.916C120.832 219.843 120.369 220.108 119.575 220.174C118.251 220.306 116.993 220.505 115.604 220.505C110.64 220.571 105.61 221.63 100.646 221.233C95.5501 220.703 90.5864 219.644 85.9536 217.328C84.299 216.534 82.843 215.475 81.784 214.019C79.6662 211.239 79.6 208.261 80.8575 204.819V204.753Z" fill="#31C77F"/>
<path d="M138.242 217.328C137.514 217.196 136.521 218.056 135.793 217.328C135.263 216.799 135.263 215.806 134.932 215.078C134.8 214.747 134.668 214.416 134.469 214.151C133.741 213.291 134.271 212.828 134.999 212.431C139.367 209.717 143.205 206.408 147.309 203.43C152.339 199.657 156.773 195.289 161.009 190.656C162.332 189.2 163.325 187.48 163.259 185.362C163.259 184.501 163.59 184.171 164.45 184.237C165.244 184.369 166.105 184.435 166.899 184.634C169.414 185.229 170.473 187.347 169.348 189.664C168.884 190.59 168.289 191.517 167.825 192.443C167.495 193.171 167.296 193.833 168.024 194.429C168.686 194.958 169.348 194.892 170.076 194.495C170.076 194.495 170.208 194.495 170.274 194.429C170.87 194.098 171.201 193.171 171.796 193.37C172.723 193.701 173.517 194.297 174.311 194.892C176.098 196.348 176.76 198.003 176.098 199.856C175.37 201.841 174.179 203.628 172.524 205.151C169.348 208.063 165.641 209.916 161.67 211.306C155.052 213.622 148.5 215.872 141.551 216.997C140.492 217.13 139.433 217.262 138.175 217.262L138.242 217.328Z" fill="#31C77F"/>
<path d="M94.2943 82.0478C91.8455 79.6652 90.4557 76.8855 89.3967 73.9735C88.0731 70.3996 86.8818 66.8919 86.0214 63.1856C85.8229 62.3914 85.7567 61.5972 85.6905 60.7368C85.6905 60.2074 85.5581 59.5455 86.22 59.2146C86.8818 58.9499 87.3451 59.347 87.7422 59.7441C89.86 61.5972 91.647 63.7151 93.103 66.0977C94.8238 68.9435 96.6107 71.7894 98.4638 74.6353C99.1918 75.7604 99.1918 76.5546 98.1329 77.2826C96.5445 78.4077 95.6841 80.1947 94.2943 81.9816V82.0478Z" fill="#FEFEFE"/>
<path d="M153.66 80.7262C152.535 78.6745 150.748 77.2185 149.094 75.6963C148.233 74.9021 148.3 74.3726 148.829 73.3799C151.212 69.4089 154.19 65.9674 157.234 62.4597C158.161 61.4008 158.955 60.2095 160.08 59.4153C161.338 58.5549 162.066 58.8858 162.264 60.408C162.264 60.8051 162.264 61.2684 162.264 61.6655C161.536 64.7761 160.874 67.9529 159.286 70.7326C157.698 73.4461 156.308 76.1596 154.918 78.9393C154.587 79.5349 154.455 80.2629 153.727 80.66L153.66 80.7262Z" fill="#FEFEFE"/>
<path d="M127.517 219.906C127.517 219.906 126.789 219.906 126.391 219.774C124.671 219.509 123.612 218.649 123.413 217.325C123.215 216.001 124.34 214.214 125.73 213.618C128.443 212.493 130.892 213.288 132.083 215.604C132.811 217.06 132.612 217.788 131.355 218.781C130.428 219.509 129.039 219.906 127.45 219.84L127.517 219.906Z" fill="#31C77F"/>
<path d="M96.8765 112.094C95.7513 112.094 94.957 111.498 94.957 110.439C94.957 109.314 95.4865 108.652 96.4793 108.652C97.6045 108.652 98.3988 109.248 98.3988 110.373C98.3988 111.498 97.9355 112.094 96.8765 112.094Z" fill="#E7EBEB"/>
<path d="M149.623 110.441C149.358 111.235 149.226 112.096 148.299 112.294C147.372 112.493 146.578 111.633 146.578 110.706C146.578 109.713 147.24 109.184 148.1 109.184C148.895 109.184 149.49 109.647 149.623 110.507V110.441Z" fill="#EFF2F2"/>
<path d="M126.063 113.946C127.32 112.424 128.908 111.828 130.828 111.828C133.806 111.828 135.99 113.814 136.255 116.792C136.387 118.248 136.453 119.77 135.924 121.16C135.394 122.417 135.593 123.079 136.784 124.006C139.233 125.925 140.49 128.572 140.292 131.815C140.16 133.139 139.895 134.33 138.968 135.191C137.777 136.316 137.115 137.706 136.52 139.096C135.13 142.14 132.549 143.464 129.57 143.993C126.195 144.523 123.018 143.662 120.172 141.809C118.65 140.882 117.657 139.493 117.128 137.772C116.863 136.912 116.532 136.382 115.804 135.853C112.958 133.933 112.23 130.69 113.885 127.646C114.414 126.653 115.076 125.594 115.937 124.932C117.26 123.94 117.326 122.947 116.863 121.557C116.267 119.638 116.665 117.785 117.326 115.998C118.65 112.358 121.628 111.299 124.937 113.284C125.268 113.417 125.599 113.681 126.063 113.946Z" fill="#030202"/>
<path d="M133.673 135.191C131.754 135.059 129.967 133.868 128.643 131.948C127.364 130.095 126.15 130.139 125.003 132.081C123.68 134.265 121.628 135.39 118.981 135.191C115.539 134.927 113.885 131.684 115.804 128.705C116.532 127.58 117.525 126.72 118.517 125.926C120.172 124.668 120.238 124.403 119.576 122.418C119.113 121.094 118.716 119.771 118.848 118.315C119.113 115.204 121.562 113.88 124.209 115.403C124.672 115.667 125.003 115.998 125.4 116.263C126.393 116.859 127.254 116.925 127.849 115.734C128.577 114.277 129.901 114.211 131.225 114.41C132.747 114.542 133.541 115.469 134.137 116.792C134.468 117.52 134.401 118.248 134.137 118.91C133.739 119.903 133.276 120.83 132.879 121.822C131.953 123.874 132.019 124.337 134.137 125.198C135.857 125.926 137.247 127.051 137.975 128.838C139.299 131.948 137.446 135.125 133.673 135.191Z" fill="white"/>
<path d="M119.512 137.441C123.085 137.044 123.284 136.912 127.056 133.338C129.041 135.919 131.556 137.507 134.931 137.309C133.939 140.287 131.755 141.809 128.38 141.875C124.674 141.875 120.372 140.948 119.512 137.441Z" fill="#FDFDFD"/>
<path d="M122.554 118.383C122.554 118.383 123.084 118.515 123.282 118.714C123.944 119.574 124.473 120.501 124.606 121.626C124.606 122.155 124.407 122.553 123.878 122.751C123.414 122.884 123.084 122.751 122.753 122.42C121.958 121.56 121.363 120.567 121.495 119.309C121.495 118.78 121.826 118.449 122.62 118.383H122.554Z" fill="#0E0D0D"/>
<path d="M128.511 120.502C128.644 120.105 128.842 119.377 129.239 118.715C129.504 118.185 129.967 117.788 130.629 118.053C131.159 118.318 131.357 118.781 131.225 119.244C131.093 119.972 130.828 120.634 130.563 121.362C130.298 122.024 129.835 122.488 129.041 122.223C128.313 122.024 128.313 121.362 128.511 120.502Z" fill="#191717"/>
<path d="M79.996 214.943L75.4297 227.517L78.5401 229.039C78.5401 229.039 82.8417 218.649 83.305 217.59C83.7682 216.531 79.996 214.877 79.996 214.877V214.943Z" fill="#231F20"/>
<path d="M171.794 206.8L169.875 208.852C169.875 208.852 177.751 227.317 180.133 227.383C182.45 227.383 180.994 223.611 180.994 223.611C180.994 223.611 174.111 209.183 172.919 206.668C171.993 204.616 171.794 206.8 171.794 206.8Z" fill="#231F20"/>
</g>
</svg>
