<svg width="250" height="250" viewBox="0 0 250 250" fill="none" xmlns="http://www.w3.org/2000/svg">
<g clip-path="url(#clip0_242_93221)">
<path fill-rule="evenodd" clip-rule="evenodd" d="M125 0C56.05 0 0 56.05 0 125C0 193.95 56.05 250 125 250C193.95 250 250 193.95 250 125C250 56.05 193.95 0 125 0Z" fill="#29B2FF"/>
<path d="M89.1488 86.498L31.7988 162.998H43.4488L56.0488 146.198H96.0988V136.848H63.0488L100.849 86.498H89.1488Z" fill="white"/>
<path d="M218.2 162.998L160.8 86.498H149.15L186.95 136.848H153.9V146.198H193.95L206.55 162.998H218.2Z" fill="white"/>
<path d="M129.7 44.6523H120.35V162.952H129.7V44.6523Z" fill="white"/>
</g>
<defs>
<clipPath id="clip0_242_93221">
<rect width="250" height="250" rx="125" fill="white"/>
</clipPath>
</defs>
</svg>
