<svg width="250" height="250" viewBox="0 0 250 250" fill="none" xmlns="http://www.w3.org/2000/svg">
<rect width="250" height="250" rx="125" fill="black"/>
<path d="M125.15 1.55469C56.9004 1.55469 1.40039 57.0547 1.40039 125.255C1.40039 193.505 56.9004 249.005 125.15 249.005C193.4 249.005 248.9 193.505 248.9 125.255C248.85 57.0547 193.35 1.55469 125.15 1.55469ZM150.4 59.6547C176.55 69.8047 195.1 95.1547 195.1 124.905C195.1 154.605 176.6 180.005 150.45 190.105C147.8 191.155 146.05 193.705 146.05 196.555V201.705L125.8 217.505L104.65 201.705V196.705C104.65 193.855 102.9 191.255 100.2 190.255C73.9004 180.205 55.2504 154.755 55.2504 124.905C55.2504 95.1047 73.9004 69.6547 100.15 59.6047C102.85 58.5547 104.6 56.0047 104.6 53.1547V49.0047L125.75 33.2047L145.95 49.0047V53.2047C145.95 56.0547 147.7 58.6047 150.4 59.6547ZM6.20039 125.255C6.20039 60.3047 58.5004 7.35469 123.2 6.30469V28.3047L40.4504 94.3047V156.705L123.2 222.155V244.205C58.5004 243.155 6.20039 190.205 6.20039 125.255ZM128.1 244.205V223.105L211.45 156.705V94.3047L128.1 27.8547V6.35469C192.3 7.95469 244.05 60.7047 244.05 125.255C244.1 189.855 192.35 242.605 128.1 244.205Z" fill="#F5C09A"/>
<path d="M132.252 76.752C132.452 68.652 131.502 67.902 123.752 68.002C118.352 68.102 117.152 69.602 117.252 76.902C117.302 80.602 116.402 82.552 112.352 83.502C102.502 85.802 95.2017 94.702 95.0017 104.802C94.7517 117.002 99.5517 122.352 109.852 126.102C113.202 127.302 116.752 127.852 120.202 128.852C125.552 130.352 130.952 131.702 136.102 133.702C139.952 135.152 141.502 138.652 140.852 142.752C139.952 148.202 137.202 152.202 131.502 153.302C128.652 153.852 125.702 153.852 122.802 153.952C116.052 154.252 111.402 151.302 108.652 145.102C108.002 143.652 107.152 142.252 106.102 141.102C103.652 138.452 98.2017 138.002 95.0017 140.202C91.7517 142.452 93.3017 145.452 94.2017 148.102C97.0017 156.152 102.652 161.652 110.802 163.952C115.502 165.252 117.502 167.302 117.352 172.452C117.202 178.852 118.652 179.852 124.902 179.852C130.852 179.852 131.852 179.002 132.452 173.152C132.552 172.102 132.602 171.052 132.552 169.952C132.402 167.152 133.652 165.502 136.402 164.752C142.552 163.102 147.252 159.302 151.252 154.502C160.852 142.952 155.452 124.152 141.252 119.702C137.102 118.402 132.752 117.552 128.552 116.452C124.302 115.352 120.052 114.452 115.902 113.102C112.602 112.002 110.202 110.052 110.252 105.902C110.352 101.402 111.002 97.452 115.452 95.152C123.102 91.152 132.652 93.152 137.452 100.302C140.052 104.252 142.952 105.852 147.702 105.102C152.402 104.302 153.402 103.202 151.902 98.602C149.552 91.402 144.702 86.652 137.602 84.202C133.852 82.902 132.152 81.252 132.252 76.752Z" fill="#F5C09A"/>
</svg>
