<svg width="250" height="250" viewBox="0 0 250 250" fill="none" xmlns="http://www.w3.org/2000/svg">
<g clip-path="url(#clip0_242_94032)">
<mask id="mask0_242_94032" style="mask-type:luminance" maskUnits="userSpaceOnUse" x="-1" y="0" width="251" height="250">
<path d="M249.998 0H-0.00195312V250H249.998V0Z" fill="white"/>
</mask>
<g mask="url(#mask0_242_94032)">
<path d="M124.998 250.001C116.536 250.003 108.095 249.152 99.8032 247.462C83.8139 244.186 68.6259 237.795 55.1059 228.652C35.0089 215.086 19.2775 195.983 9.81782 173.657C6.62283 166.096 4.18418 158.237 2.53755 150.196C-0.848454 133.572 -0.848454 116.436 2.53755 99.8121C5.81244 83.8229 12.2035 68.6349 21.3461 55.1148C34.9125 35.0167 54.0165 19.2842 76.3432 9.82382C83.9036 6.62739 91.7619 4.18743 99.8032 2.53964C116.427 -0.846548 133.563 -0.846548 150.187 2.53964C166.176 5.81449 181.364 12.2056 194.884 21.3482C214.981 34.9145 230.713 54.0182 240.172 76.3443C243.37 83.905 245.811 91.7636 247.459 99.8053C250.846 116.429 250.846 133.565 247.459 150.189C244.185 166.178 237.794 181.366 228.651 194.886C215.084 214.983 195.98 230.714 173.655 240.174C166.094 243.371 158.235 245.812 150.194 247.462C141.902 249.152 133.461 250.003 124.998 250.001ZM124.998 13.3922C117.444 13.3905 109.908 14.1502 102.505 15.6598C88.2288 18.5835 74.6677 24.2901 62.5961 32.4537C44.6547 44.5679 30.6111 61.6249 22.1665 81.5582C19.3127 88.3095 17.1344 95.3268 15.6635 102.507C12.6403 117.35 12.6403 132.65 15.6635 147.493C18.5884 161.769 24.2959 175.33 32.4604 187.401C44.5736 205.345 61.6302 219.391 81.5639 227.837C88.3157 230.691 95.3333 232.869 102.514 234.339C117.357 237.363 132.657 237.363 147.499 234.339C161.776 231.416 175.337 225.708 187.408 217.543C205.346 205.429 219.387 188.374 227.831 168.443C230.684 161.691 232.862 154.674 234.333 147.493C237.357 132.65 237.357 117.35 234.333 102.507C231.408 88.2314 225.701 74.671 217.537 62.6002C205.425 44.6592 188.371 30.615 168.441 22.1686C161.689 19.3149 154.672 17.1367 147.491 15.6656C140.089 14.1545 132.553 13.3922 124.998 13.3922Z" fill="url(#paint0_linear_242_94032)"/>
<path d="M124.995 220.984C178.004 220.984 220.977 178.012 220.977 125.003C220.977 71.9938 178.004 29.0215 124.995 29.0215C71.986 29.0215 29.0137 71.9938 29.0137 125.003C29.0137 178.012 71.986 220.984 124.995 220.984Z" fill="url(#paint1_linear_242_94032)"/>
<path fill-rule="evenodd" clip-rule="evenodd" d="M96.9551 91.3535V163.274H156.89L96.9551 91.3535Z" fill="url(#paint2_linear_242_94032)"/>
<path fill-rule="evenodd" clip-rule="evenodd" d="M37.0195 163.274H96.9541V91.3535L37.0195 163.274Z" fill="white"/>
<path fill-rule="evenodd" clip-rule="evenodd" d="M48.1934 182.451C53.6685 189.7 60.1229 196.155 67.3721 201.63H182.446C189.695 196.155 196.15 189.7 201.625 182.451H48.1934Z" fill="#FC9965"/>
<path fill-rule="evenodd" clip-rule="evenodd" d="M67.3711 201.633C83.9703 214.081 104.159 220.811 124.908 220.811C145.656 220.811 165.845 214.081 182.444 201.633H67.3711Z" fill="#FF2D55"/>
<path fill-rule="evenodd" clip-rule="evenodd" d="M157.658 129.707V182.449H201.626L157.658 129.707Z" fill="url(#paint3_linear_242_94032)"/>
<path fill-rule="evenodd" clip-rule="evenodd" d="M157.655 163.275H37.0195C39.9853 170.081 43.7346 176.517 48.1914 182.454H157.703V163.275H157.655Z" fill="#FFBC5B"/>
<path fill-rule="evenodd" clip-rule="evenodd" d="M113.736 182.449H157.656V129.707L113.736 182.449Z" fill="white"/>
<path d="M157.657 115.324C170.897 115.324 181.631 104.591 181.631 91.3506C181.631 78.1103 170.897 67.377 157.657 67.377C144.417 67.377 133.684 78.1103 133.684 91.3506C133.684 104.591 144.417 115.324 157.657 115.324Z" fill="#FFC95B"/>
<path d="M96.9561 76.9688C103.576 76.9688 108.943 71.6019 108.943 64.9814C108.943 58.361 103.576 52.9941 96.9561 52.9941C90.3356 52.9941 84.9688 58.361 84.9688 64.9814C84.9688 71.6019 90.3356 76.9688 96.9561 76.9688Z" fill="#FFC95B"/>
</g>
</g>
<defs>
<linearGradient id="paint0_linear_242_94032" x1="210.749" y1="33.7501" x2="51.4985" y2="221.501" gradientUnits="userSpaceOnUse">
<stop stop-color="#B6509E"/>
<stop offset="1" stop-color="#2EBAC6"/>
</linearGradient>
<linearGradient id="paint1_linear_242_94032" x1="192.95" y1="57.0481" x2="57.0402" y2="192.958" gradientUnits="userSpaceOnUse">
<stop stop-color="#FF2D55"/>
<stop offset="1" stop-color="#FFBC5B"/>
</linearGradient>
<linearGradient id="paint2_linear_242_94032" x1="126.922" y1="91.3535" x2="126.922" y2="163.274" gradientUnits="userSpaceOnUse">
<stop stop-color="#A524B3"/>
<stop offset="1" stop-color="#FF2D55"/>
</linearGradient>
<linearGradient id="paint3_linear_242_94032" x1="179.642" y1="129.707" x2="179.642" y2="182.449" gradientUnits="userSpaceOnUse">
<stop stop-color="#A524B3"/>
<stop offset="1" stop-color="#FF2D55"/>
</linearGradient>
<clipPath id="clip0_242_94032">
<rect width="250" height="250" rx="125" fill="white"/>
</clipPath>
</defs>
</svg>
