<svg width="250" height="250" viewBox="0 0 250 250" fill="none" xmlns="http://www.w3.org/2000/svg">
<path fill-rule="evenodd" clip-rule="evenodd" d="M70.7917 221.972C69.5227 222.745 67.8698 222.386 67.0356 221.156L63.8402 216.445C63.006 215.215 63.2861 213.549 64.4566 212.633C74.981 204.398 83.6318 195.116 90.4353 185.175C115.768 148.158 115.768 101.575 90.4353 64.5577C83.6318 54.6163 74.981 45.3343 64.4566 37.0993C63.2861 36.1834 63.006 34.5175 63.8402 33.2875L67.0356 28.5761C67.8698 27.3461 69.5227 26.9874 70.7917 27.761L212.729 114.286C220.651 119.115 220.651 130.617 212.729 135.446L70.7917 221.972Z" fill="white"/>
<path fill-rule="evenodd" clip-rule="evenodd" d="M70.7917 221.972C69.5227 222.745 67.8698 222.386 67.0356 221.156L63.8402 216.445C63.006 215.215 63.2861 213.549 64.4566 212.633C74.981 204.398 83.6318 195.116 90.4353 185.175C115.768 148.158 115.768 101.575 90.4353 64.5577C83.6318 54.6163 74.981 45.3343 64.4566 37.0993C63.2861 36.1834 63.006 34.5175 63.8402 33.2875L67.0356 28.5761C67.8698 27.3461 69.5227 26.9874 70.7917 27.761L212.729 114.286C220.651 119.115 220.651 130.617 212.729 135.446L70.7917 221.972Z" fill="url(#paint0_linear_242_93224)"/>
<defs>
<linearGradient id="paint0_linear_242_93224" x1="236.798" y1="126.594" x2="6.24132" y2="126.594" gradientUnits="userSpaceOnUse">
<stop stop-color="#3A73F4"/>
<stop offset="1" stop-color="#3B73F4" stop-opacity="0.66"/>
</linearGradient>
</defs>
</svg>
