<svg width="250" height="250" viewBox="0 0 250 250" fill="none" xmlns="http://www.w3.org/2000/svg">
<g clip-path="url(#clip0_242_94038)">
<rect width="250" height="250" rx="125" fill="white"/>
<mask id="mask0_242_94038" style="mask-type:luminance" maskUnits="userSpaceOnUse" x="-1" y="0" width="251" height="250">
<path d="M249.998 0H-0.00195312V250H249.998V0Z" fill="white"/>
</mask>
<g mask="url(#mask0_242_94038)">
<path d="M124.998 250.001C116.536 250.003 108.095 249.152 99.8032 247.462C83.8139 244.186 68.6259 237.795 55.1059 228.652C35.0089 215.086 19.2775 195.983 9.81782 173.657C6.62283 166.096 4.18418 158.237 2.53755 150.196C-0.848454 133.572 -0.848454 116.436 2.53755 99.8121C5.81244 83.8229 12.2035 68.6349 21.3461 55.1148C34.9125 35.0167 54.0165 19.2842 76.3432 9.82382C83.9036 6.62739 91.7619 4.18743 99.8032 2.53964C116.427 -0.846548 133.563 -0.846548 150.187 2.53964C166.176 5.81449 181.364 12.2056 194.884 21.3482C214.981 34.9145 230.713 54.0182 240.172 76.3443C243.37 83.905 245.811 91.7636 247.459 99.8053C250.846 116.429 250.846 133.565 247.459 150.189C244.185 166.178 237.794 181.366 228.651 194.886C215.084 214.983 195.98 230.714 173.655 240.174C166.094 243.371 158.235 245.812 150.194 247.462C141.902 249.152 133.461 250.003 124.998 250.001ZM124.998 13.3922C117.444 13.3905 109.908 14.1502 102.505 15.6598C88.2288 18.5835 74.6677 24.2901 62.5961 32.4537C44.6547 44.5679 30.6111 61.6249 22.1665 81.5582C19.3127 88.3095 17.1344 95.3268 15.6635 102.507C12.6403 117.35 12.6403 132.65 15.6635 147.493C18.5884 161.769 24.2959 175.33 32.4604 187.401C44.5736 205.345 61.6302 219.391 81.5639 227.837C88.3157 230.691 95.3333 232.869 102.514 234.339C117.357 237.363 132.657 237.363 147.499 234.339C161.776 231.416 175.337 225.708 187.408 217.543C205.346 205.429 219.387 188.374 227.831 168.443C230.684 161.691 232.862 154.674 234.333 147.493C237.357 132.65 237.357 117.35 234.333 102.507C231.408 88.2314 225.701 74.671 217.537 62.6002C205.425 44.6592 188.371 30.615 168.441 22.1686C161.689 19.3149 154.672 17.1367 147.491 15.6656C140.089 14.1545 132.553 13.3922 124.998 13.3922Z" fill="url(#paint0_linear_242_94038)"/>
<path d="M124.995 220.984C178.004 220.984 220.977 178.012 220.977 125.003C220.977 71.9938 178.004 29.0215 124.995 29.0215C71.986 29.0215 29.0137 71.9938 29.0137 125.003C29.0137 178.012 71.986 220.984 124.995 220.984Z" fill="url(#paint1_linear_242_94038)"/>
<path d="M77.8271 153.752V108.648L112.033 134.388V153.749H120.764V132.574C120.762 131.787 120.578 131.011 120.226 130.307C119.874 129.603 119.364 128.99 118.735 128.517L77.2529 97.2855C76.4942 96.7219 75.594 96.3797 74.6524 96.297C73.7109 96.2142 72.7648 96.3942 71.9194 96.8169C71.074 97.2395 70.3623 97.8883 69.8635 98.6912C69.3646 99.494 69.0982 100.419 69.0938 101.365V153.752H77.8271ZM172.426 153.752V108.648L138.221 134.388V153.749H129.49V132.574C129.492 131.787 129.676 131.011 130.028 130.307C130.38 129.603 130.89 128.99 131.519 128.517L173 97.2982C173.758 96.7355 174.657 96.3936 175.597 96.3105C176.537 96.2275 177.482 96.4064 178.327 96.8275C179.172 97.2486 179.884 97.8954 180.383 98.6962C180.883 99.4971 181.151 100.421 181.158 101.365V153.752H172.426Z" fill="white"/>
</g>
</g>
<defs>
<linearGradient id="paint0_linear_242_94038" x1="210.749" y1="33.7501" x2="51.4985" y2="221.501" gradientUnits="userSpaceOnUse">
<stop stop-color="#B6509E"/>
<stop offset="1" stop-color="#2EBAC6"/>
</linearGradient>
<linearGradient id="paint1_linear_242_94038" x1="124.995" y1="220.984" x2="124.995" y2="29.0215" gradientUnits="userSpaceOnUse">
<stop stop-color="#4FA89B"/>
<stop offset="1" stop-color="#6ACEBB"/>
</linearGradient>
<clipPath id="clip0_242_94038">
<rect width="250" height="250" rx="125" fill="white"/>
</clipPath>
</defs>
</svg>
