<svg width="250" height="250" viewBox="0 0 250 250" fill="none" xmlns="http://www.w3.org/2000/svg">
<g clip-path="url(#clip0_242_93226)">
<path d="M124.752 249.5C193.649 249.5 249.502 193.648 249.502 124.75C249.502 55.8525 193.649 0 124.752 0C55.8544 0 0.00195312 55.8525 0.00195312 124.75C0.00195312 193.648 55.8544 249.5 124.752 249.5Z" fill="#D9327C"/>
<path fill-rule="evenodd" clip-rule="evenodd" d="M119.702 63.75C118.652 64.5 117.502 65.95 116.552 68.75C115.702 71.35 111.102 84.7 105.352 101.35H144.152C138.402 84.7 133.802 71.35 132.952 68.75C132.002 65.95 130.852 64.5 129.802 63.75C128.802 63 127.302 62.4 124.752 62.4C122.202 62.4 120.702 63 119.702 63.75ZM62.402 101.35H88.902C95.452 82.4 100.852 66.6 101.802 63.8C103.452 58.8 106.202 54.4 110.352 51.25C114.552 48.1 119.552 46.75 124.752 46.75C130.002 46.75 134.952 48.1 139.152 51.25C143.302 54.4 146.052 58.8 147.702 63.8C148.652 66.6 154.052 82.4 160.602 101.35H187.052C191.352 101.35 194.852 104.85 194.852 109.15C194.852 113.45 191.352 116.95 187.052 116.95H165.952H149.452H99.902H83.402H62.302C58.002 116.95 54.502 113.45 54.502 109.15C54.502 104.85 58.052 101.35 62.402 101.35ZM62.402 132.55C58.102 132.55 54.602 136.05 54.602 140.35C54.602 144.65 58.102 148.15 62.402 148.15H72.752L68.602 160.2L64.452 172.25L62.902 176.8C61.502 180.85 63.6519 185.3 67.702 186.7C71.7519 188.1 76.202 185.95 77.602 181.9L79.152 177.35L83.302 165.3C85.052 160.3 87.052 154.45 89.252 148.15H160.352C162.552 154.45 164.552 160.3 166.302 165.3L170.452 177.35L172.002 181.9C173.402 185.95 177.852 188.15 181.902 186.7C185.952 185.3 188.152 180.85 186.702 176.8L185.152 172.25L181.002 160.2L176.852 148.15H187.152C191.452 148.15 194.952 144.65 194.952 140.35C194.952 136.05 191.452 132.55 187.152 132.55H171.452H154.952H94.602H78.102H62.402ZM179.352 179.35L186.702 176.8C186.702 176.8 186.702 176.8 179.352 179.35ZM179.352 179.35C172.002 181.9 172.002 181.9 172.002 181.9L179.352 179.35ZM70.152 179.35L77.502 181.9C77.552 181.9 77.552 181.9 70.152 179.35ZM70.152 179.35C62.802 176.8 62.802 176.8 62.802 176.8L70.152 179.35Z" fill="white"/>
</g>
<defs>
<clipPath id="clip0_242_93226">
<rect width="250" height="250" rx="125" fill="white"/>
</clipPath>
</defs>
</svg>
