<svg width="250" height="250" viewBox="0 0 250 250" fill="none" xmlns="http://www.w3.org/2000/svg">
<g clip-path="url(#clip0_242_93228)">
<path d="M124.997 250C56.2471 250 -0.00292969 193.75 -0.00292969 125C-0.00292969 56.25 56.2471 0 124.997 0C193.747 0 249.997 56.25 249.997 125C249.997 193.75 193.747 250 124.997 250Z" fill="#4BDB4B"/>
<path opacity="0.4" d="M197.694 149.451C203.944 160.901 199.794 175.501 189.344 181.751C177.894 188.001 163.294 183.851 157.044 173.401L107.044 88.0011C100.794 76.5511 104.944 61.9511 116.444 55.7011C127.894 48.4011 141.444 52.6011 148.744 64.0511L197.694 149.451Z" fill="black"/>
<path opacity="0.65" d="M99.4478 173.402C93.1978 184.852 78.5978 189.002 67.1478 181.752C55.6978 175.502 51.4978 160.902 58.7978 149.452L107.748 64.0523C113.998 52.6023 128.598 48.4523 140.048 55.7023C151.498 61.9523 155.648 76.5523 148.398 88.0023L99.4478 173.402Z" fill="black"/>
<path d="M151.542 76.0516C151.542 89.6016 127.592 122.952 127.592 122.952C127.592 122.952 104.692 89.6016 104.692 76.0516C104.692 62.5016 115.092 52.1016 128.642 52.1016C142.192 52.1016 151.542 63.5516 151.542 76.0516Z" fill="black"/>
</g>
<defs>
<clipPath id="clip0_242_93228">
<rect width="250" height="250" rx="125" fill="white"/>
</clipPath>
</defs>
</svg>
