<svg width="250" height="250" viewBox="0 0 250 250" fill="none" xmlns="http://www.w3.org/2000/svg">
<g clip-path="url(#clip0_242_93232)">
<mask id="mask0_242_93232" style="mask-type:luminance" maskUnits="userSpaceOnUse" x="0" y="0" width="250" height="251">
<path d="M125 0.00390625C194.05 0.00390625 250 55.9539 250 125.004C250 194.054 194.05 250.004 125 250.004C55.95 250.004 0 194.054 0 125.004C0 55.9539 55.95 0.00390625 125 0.00390625Z" fill="white"/>
</mask>
<g mask="url(#mask0_242_93232)">
<path d="M124.998 0.00390625C194.048 0.00390625 249.998 55.9539 249.998 125.004C249.998 194.054 194.048 250.004 124.998 250.004C55.948 250.004 -0.00195312 194.054 -0.00195312 125.004C-0.00195312 55.9539 55.948 0.00390625 124.998 0.00390625Z" fill="url(#paint0_radial_242_93232)"/>
<path d="M209.998 86.002C209.498 89.052 208.848 90.552 208.148 92.252C207.398 94.102 206.498 96.202 205.698 100.402C205.398 102.102 205.248 103.302 205.098 104.402V104.452V104.502C204.898 106.252 204.748 107.402 204.048 109.502C203.498 111.202 202.498 114.052 200.198 117.102C198.348 119.552 195.198 123.702 191.048 124.202C190.698 124.202 189.948 124.252 189.598 124.102C177.798 118.052 167.648 113.602 164.148 112.602C160.048 111.452 160.598 102.552 161.048 94.702C161.248 91.202 161.448 87.852 161.298 85.052C160.748 75.152 158.948 64.302 150.348 59.002C145.198 55.852 138.548 54.902 132.198 54.902C133.398 54.352 134.698 53.602 136.098 52.752L136.148 52.702C139.898 50.552 144.548 47.852 149.148 47.352C150.648 47.202 152.148 47.052 153.598 46.852C162.898 45.802 170.948 44.902 179.398 47.802C183.248 49.102 191.148 53.502 193.148 57.602C194.598 60.502 196.998 62.752 201.848 67.202C204.348 69.552 205.998 70.902 207.248 71.902L207.298 71.952C208.998 73.352 209.348 73.652 209.848 74.702C211.348 77.902 210.798 81.302 209.998 86.002Z" fill="white"/>
<path d="M166.798 126.655C167.498 126.905 167.748 127.705 167.348 128.305C166.098 130.205 164.698 132.755 163.048 135.855C162.248 137.355 161.448 138.805 160.798 139.905C158.498 143.855 158.348 147.155 158.198 149.805C158.048 152.605 157.898 153.855 156.248 154.955C154.898 155.855 153.498 156.155 143.748 157.655C142.048 157.905 141.298 158.255 140.648 158.555C140.548 158.605 140.448 158.655 140.348 158.705C139.698 159.005 138.998 158.405 139.048 157.655C139.098 156.305 139.148 154.655 139.148 152.555V152.155C139.198 150.255 139.098 148.705 139.048 147.455C138.898 144.955 138.898 143.905 139.548 142.855C140.348 141.555 140.998 141.155 142.048 140.505C143.498 139.605 145.498 138.355 148.448 134.255C149.998 132.105 150.348 130.955 150.598 129.955C150.698 129.555 150.748 129.405 151.948 128.455C153.248 127.505 157.098 124.555 162.098 125.355C163.398 125.605 165.048 126.055 166.798 126.655Z" fill="white"/>
<path d="M128.399 171.552C128.199 171.852 127.949 171.952 127.599 171.952C126.599 172.002 125.849 171.752 125.399 171.152C124.399 169.952 124.549 167.501 124.749 166.051L128.849 164.951C129.149 167.201 129.299 170.352 128.399 171.552Z" fill="white"/>
<path d="M128.699 156.752C128.649 157.352 128.549 158.002 128.549 158.752C128.549 159.002 128.549 159.302 128.549 159.552C128.549 160.202 128.599 161.302 128.498 161.752C127.198 162.202 126.098 162.202 124.698 162.202C124.698 161.802 124.698 161.152 124.698 160.752C124.698 160.452 124.748 160.102 124.748 159.802C124.748 159.452 124.748 159.102 124.748 158.802C124.748 158.002 124.748 156.702 124.948 156.352C125.348 156.302 125.748 156.202 126.148 156.102C126.998 155.902 128.098 155.702 128.799 155.802C128.799 156.002 128.749 156.402 128.699 156.752Z" fill="white"/>
<path d="M121.098 170.301C120.898 172.401 120.248 175.001 118.248 175.401C117.348 175.601 116.948 175.301 116.648 175.051C115.298 173.801 115.098 170.101 115.298 167.401C116.198 167.401 117.348 167.201 118.748 166.951C119.598 166.801 120.448 166.601 121.098 166.451C121.198 167.451 121.248 168.851 121.098 170.301Z" fill="white"/>
<path d="M120.149 162.754L115.698 164.304C115.948 162.554 116.248 160.153 116.348 158.503C116.448 157.353 116.748 157.003 116.848 156.953C116.898 156.903 116.948 156.853 117.098 156.853C117.148 156.853 117.148 156.853 117.198 156.853H117.298L120.099 156.703C120.199 158.053 120.199 160.953 120.149 162.754Z" fill="white"/>
<path d="M112.948 161.353C112.698 162.003 112.398 163.903 112.198 165.253L106.598 165.103C106.898 163.353 107.348 161.603 107.848 160.203C108.348 158.803 108.848 157.753 109.348 157.453C109.898 157.103 111.148 157.053 111.898 157.703C113.148 158.753 113.498 159.953 112.948 161.353Z" fill="white"/>
<path d="M110.898 178.453C110.448 179.053 109.998 179.353 109.398 179.403C108.797 179.453 108.297 179.353 107.947 179.003C106.197 177.403 106.347 172.104 106.397 169.554C108.697 169.004 111.198 168.554 112.398 168.504C112.548 170.604 112.598 176.103 110.898 178.453Z" fill="white"/>
<path d="M103.598 164.954C103.348 165.704 103.048 166.354 102.848 166.954C102.198 167.154 100.197 167.004 98.1973 166.554L99.5974 157.755C101.898 157.155 104.548 156.955 105.198 157.655C105.998 158.555 104.298 163.054 103.598 164.954Z" fill="white"/>
<path d="M101.048 179.801C99.9478 181.151 98.3479 181.751 96.098 181.751C94.5481 181.701 93.9482 181.151 93.6982 180.701C92.4483 178.701 93.6482 174.002 94.8981 171.002L102.448 171.452C102.548 172.002 102.598 172.602 102.598 173.302C102.698 175.402 102.448 178.101 101.048 179.801Z" fill="white"/>
<path d="M163.598 116.002C156.798 114.052 157.398 104.102 157.948 94.502C158.148 91.102 158.348 87.852 158.198 85.252C157.698 76.252 156.148 66.452 148.898 62.002C141.098 57.252 128.348 58.302 120.498 59.302C117.598 60.152 114.898 60.752 112.848 60.652C108.198 60.402 104.598 58.452 101.398 56.752C98.8979 55.402 96.7478 54.252 94.6978 54.252C94.5979 54.252 94.4979 54.252 94.3479 54.252C88.2479 54.652 85.4479 56.152 82.8979 58.402C82.2479 58.952 81.4979 60.602 78.8979 68.002C77.5979 71.702 77.3479 73.752 77.1479 75.752C76.9479 77.552 76.6979 79.402 75.7479 82.202C75.0979 84.1019 74.5978 85.752 74.0978 87.352C72.8478 91.602 71.8478 94.902 68.8478 98.902C68.4978 99.352 68.0479 100.052 67.5479 100.852C66.8479 101.902 66.0479 103.252 64.8979 104.802C64.0979 105.902 62.2979 109.952 62.3979 111.202C62.5479 113.152 63.1979 114.402 63.8979 115.802C64.6479 117.202 65.4478 118.802 65.5978 121.002V121.352C65.8478 124.852 65.3479 126.602 58.7479 132.502C54.4979 136.302 51.4979 139.952 49.4479 142.652C49.2479 142.902 49.4979 143.252 49.7979 143.202C49.8479 143.202 49.9479 143.202 49.9979 143.202C50.1479 143.202 50.2479 143.202 50.3979 143.202C50.5479 143.202 50.6479 143.202 50.7979 143.202C50.9479 143.202 51.0479 143.202 51.1979 143.252C52.7979 143.452 54.3479 144.102 55.4979 145.302C55.6979 145.502 55.9979 145.552 56.2479 145.452C57.3479 145.002 58.4979 145.052 59.6479 145.202C60.9979 145.352 62.3479 145.702 63.2979 146.552C63.6479 146.852 64.1479 147.052 64.5978 146.952C65.6479 146.752 66.7479 146.752 67.7979 147.152C68.5479 147.452 69.1979 147.852 69.7479 148.402C70.2479 148.902 71.0978 149.002 71.6978 148.652C71.9478 148.502 72.1979 148.402 72.4979 148.302C73.9479 147.802 75.5478 148.102 76.9478 148.602C77.6478 148.852 78.3479 149.052 78.9979 149.502C80.0478 150.202 80.6979 151.152 81.1479 152.252C81.4979 153.102 82.6479 153.352 83.3479 152.852C84.2479 152.202 84.9478 152.152 85.6978 152.452C85.9978 152.602 86.2479 152.752 86.3979 152.952C86.9479 153.552 87.7479 154.152 88.5479 154.002C90.7479 153.502 93.3479 153.852 95.2979 154.852C95.9979 155.252 96.6979 155.802 97.2479 156.652L97.2979 156.252C97.3479 156.102 97.4478 155.952 97.5979 155.902L98.0479 155.752C99.1479 155.402 104.798 153.802 106.948 156.102C107.048 156.202 107.198 156.202 107.298 156.102C107.598 155.752 107.848 155.602 107.998 155.502C109.448 154.652 111.848 154.602 113.498 155.952C113.848 156.202 114.348 156.102 114.598 155.802C114.748 155.602 114.898 155.402 115.098 155.252C115.648 154.752 116.398 154.502 117.198 154.552L120.298 154.402C121.098 154.352 123.498 154.202 124.248 154.052C124.298 154.052 124.348 154.052 124.448 154.002C124.748 153.952 125.148 153.852 125.548 153.802C127.048 153.452 128.748 153.102 130.148 153.752C131.498 154.352 131.298 155.902 131.148 157.252C131.098 157.802 130.998 158.352 130.998 158.902C130.998 159.152 130.998 159.402 130.998 159.652C130.998 160.802 131.048 161.902 130.798 162.702L130.948 163.352C131.098 164.002 131.748 164.352 132.298 164.002C133.348 163.352 134.398 162.552 134.748 162.052C134.798 162.002 134.798 161.952 134.798 161.902C134.848 161.752 134.948 161.502 135.048 160.952C135.248 159.802 135.448 157.452 135.448 152.752C135.448 152.502 135.448 152.302 135.448 152.252C135.498 150.502 135.398 149.102 135.348 147.852C135.198 145.302 135.098 143.252 136.398 141.202C137.648 139.202 138.848 138.452 139.998 137.702C141.348 136.852 142.848 135.902 145.448 132.402C146.698 130.652 146.848 129.952 146.998 129.402C147.298 128.102 147.698 127.302 149.648 125.852C151.248 124.652 156.048 121.002 162.498 122.102C164.648 122.452 168.048 123.602 171.448 124.952C171.548 125.002 171.698 125.052 171.798 125.102C171.848 125.152 171.898 125.152 171.948 125.202C174.898 126.352 177.748 127.702 179.648 128.752C180.198 129.052 180.848 128.852 181.248 128.402C181.848 127.702 182.448 127.252 183.148 126.852C183.398 126.702 183.648 126.552 183.848 126.402C184.498 125.852 184.498 124.702 183.748 124.352C174.898 119.402 166.398 116.802 163.598 116.002ZM98.6978 118.102C96.5979 127.302 82.2979 137.452 75.7979 137.452H75.6479C75.5479 137.452 75.4479 137.452 75.2979 137.402C75.1979 137.402 75.0479 137.352 74.8979 137.302C74.8479 137.302 74.7478 137.252 74.6978 137.252C73.4978 136.902 71.8979 135.952 70.6479 134.752C69.7979 133.902 69.1479 132.952 68.8979 131.852C68.8479 131.652 68.7979 131.502 68.7979 131.302C68.4479 129.752 67.9979 127.752 69.3979 124.552C69.5979 124.102 69.7479 123.702 69.8979 123.352C69.9479 123.252 69.9979 123.102 70.0479 123.002C70.1979 122.652 70.3478 122.352 70.4478 122.052C70.6478 121.552 70.7978 121.152 70.9478 120.802C70.9978 120.652 71.0478 120.552 71.0978 120.402C71.4978 119.302 71.5478 118.902 71.5978 118.452C71.6478 118.102 71.6978 117.702 71.8478 117.102C72.2478 115.352 72.4479 113.902 72.6479 112.602C72.9979 110.252 73.2479 108.252 74.5479 106.352C74.7479 106.052 74.9979 105.752 75.2479 105.502C75.3479 105.402 75.4479 105.352 75.5479 105.252C75.6479 105.152 75.7478 105.102 75.8478 105.002C76.1478 104.802 76.4978 104.602 76.8478 104.452C76.9478 104.402 77.0978 104.352 77.1978 104.302C77.4478 104.202 77.6979 104.152 77.9979 104.052C79.1479 103.752 80.5479 103.702 82.0979 103.902C83.8479 104.052 85.3979 104.352 86.8479 104.752C88.0479 105.102 89.0979 105.452 89.9979 105.802C90.0979 105.852 90.1979 105.852 90.2479 105.902C90.3979 105.952 90.5979 106.052 90.7479 106.102C90.9979 106.202 91.1978 106.302 91.4478 106.402C91.7478 106.552 91.9978 106.652 92.1978 106.752L92.3979 106.852C93.3979 107.302 94.2479 107.802 94.9979 108.352C95.3479 108.602 95.6979 108.902 95.9979 109.152C96.0979 109.252 96.1979 109.352 96.2979 109.452C96.3979 109.552 96.4979 109.652 96.5979 109.752C99.2979 112.702 99.1479 116.052 98.6978 118.102ZM105.298 83.152L104.998 84.802C104.348 88.552 102.898 93.752 97.4478 95.052C92.2478 96.352 90.9979 96.602 87.2979 96.752C87.1979 96.752 87.1479 96.752 87.0479 96.752C84.3479 96.752 79.0978 95.052 78.1978 90.802C77.5978 88.052 78.7979 86.102 80.7979 82.802C81.1479 82.252 81.4979 81.702 81.8479 81.052C84.4979 76.602 85.4979 73.402 86.3479 70.852C87.1479 68.352 87.8479 66.252 89.5479 64.552C89.9479 64.152 90.3979 63.752 90.9478 63.402C91.2978 63.152 91.6479 62.952 91.9979 62.752C92.4979 62.502 92.9979 62.302 93.5479 62.102C94.7479 61.702 96.0479 61.502 97.3479 61.502C99.8979 61.502 102.398 62.252 104.198 63.652C104.998 64.302 106.148 65.6019 106.848 69.452C107.248 71.5019 106.648 75.102 105.298 83.152ZM143.998 93.852C142.148 97.052 141.098 98.802 139.498 100.152C136.298 102.802 132.548 103.452 129.498 103.452C127.298 103.452 125.398 103.102 124.298 102.902C121.098 102.302 115.198 101.252 113.248 96.602C112.848 95.702 112.848 95.102 112.848 94.352C112.848 93.602 112.848 92.402 112.498 89.452V89.252C112.348 87.902 112.148 86.402 112.548 84.502L112.598 84.252C113.698 78.602 113.998 77.702 114.248 77.252C114.848 76.152 116.198 75.702 117.298 76.252C118.398 76.802 118.848 78.1019 118.298 79.202C118.198 79.5019 117.848 80.752 116.998 85.102L116.948 85.352C116.698 86.602 116.798 87.5019 116.948 88.702V88.902C117.298 92.102 117.298 93.552 117.298 94.302C117.298 94.452 117.298 94.602 117.298 94.702C117.298 94.7519 117.298 94.802 117.348 94.802C117.698 95.602 118.398 96.202 119.248 96.702C119.998 97.102 120.798 96.402 120.648 95.552C119.698 90.652 119.798 85.002 121.648 81.502C122.248 80.302 123.448 78.352 124.548 76.502C124.648 76.302 124.748 76.152 124.898 75.952C124.998 75.802 125.098 75.652 125.148 75.502C125.648 74.702 126.098 73.952 126.448 73.352C126.498 73.252 126.548 73.202 126.598 73.102C126.648 73.052 126.648 73.0019 126.698 72.952C126.798 72.802 126.848 72.702 126.898 72.602C126.948 72.552 126.948 72.5019 126.998 72.452C126.998 72.452 126.998 72.402 127.048 72.402C127.098 72.352 127.098 72.302 127.148 72.252C127.198 72.152 127.248 72.102 127.298 72.052C127.298 72.052 127.298 72.052 127.298 72.002C127.548 71.602 127.848 71.252 128.098 70.852C128.698 70.052 127.998 69.002 127.098 69.402C125.498 70.102 124.448 70.952 124.198 71.102C123.198 71.902 121.798 71.702 120.998 70.752C120.198 69.752 120.398 68.352 121.348 67.552C122.498 66.652 128.698 62.102 136.098 64.252C141.448 65.752 144.248 69.852 145.298 71.402C146.148 72.652 148.748 76.452 148.648 81.702C148.748 85.702 147.048 88.602 143.998 93.852Z" fill="white"/>
<path d="M95.8483 66.2539C95.4483 67.1539 94.9983 68.3039 94.5483 69.5539C93.3983 72.4039 92.0983 75.6539 91.4983 76.8539C90.4483 78.9039 89.5983 80.1539 88.9483 81.2039C88.1983 82.4039 87.5983 83.3539 87.0983 84.6539C86.2983 86.9539 86.1483 89.5039 86.6983 92.3039C85.2983 92.1539 82.9483 91.1539 82.6983 89.9539C82.4983 89.0539 83.0483 88.0539 84.7483 85.2539C85.0983 84.7039 85.4483 84.1039 85.8483 83.4539C88.7483 78.6039 89.8983 74.9539 90.7483 72.3539C91.6983 69.4539 92.0983 68.2539 93.5983 67.2539C94.1983 66.7039 94.9983 66.4039 95.8483 66.2539Z" fill="white"/>
<path d="M93.0474 168.202C91.4974 171.402 89.4974 174.402 88.2974 175.852C87.2974 173.102 85.5474 166.852 85.9974 161.802C85.9974 161.652 86.0474 161.502 86.0474 161.352C86.2474 159.802 86.6474 158.352 87.3974 157.202C87.8974 156.452 89.2474 156.002 90.7474 156.002C91.8974 156.002 93.0974 156.252 94.1474 156.802C94.6974 157.102 95.4974 157.702 95.5474 159.502C95.6474 161.952 94.4974 165.202 93.0474 168.202Z" fill="white"/>
<path d="M179.248 132.201C179.348 132.301 179.448 132.451 179.398 132.601C178.948 133.551 178.348 134.201 177.698 135.001C176.898 135.951 175.998 137.051 175.098 138.751C173.898 141.151 173.498 143.351 173.298 148.951C173.048 155.551 173.298 159.201 173.498 161.901C173.698 164.501 173.798 166.051 173.348 168.601C172.398 173.701 170.248 177.101 167.448 181.401C163.998 186.751 160.398 192.301 154.448 194.101C153.898 194.251 153.898 194.251 152.348 194.301C150.998 194.301 148.748 194.301 144.498 194.451C136.748 194.751 132.848 194.851 129.498 195.501C125.998 196.201 124.198 196.901 122.398 197.651C120.798 198.301 119.298 198.901 116.398 199.501C114.698 199.851 112.098 200.251 103.348 200.251C94.2483 200.251 88.7483 200.251 81.4483 199.451C71.4983 198.301 66.4483 197.751 63.1483 195.951C55.2983 191.751 51.9983 184.251 46.4983 171.801C46.4983 171.801 46.4983 171.751 46.4483 171.751C46.3983 171.601 46.5483 171.451 46.6983 171.551C46.9483 171.701 47.2483 171.851 47.4983 171.951C47.7483 172.051 47.9983 172.101 48.2483 172.151C48.7483 172.251 49.2483 172.251 49.7983 172.151C49.8983 172.151 49.9983 172.101 50.0483 172.101H50.0983C50.1983 172.051 50.2983 172.101 50.3483 172.201C50.6983 173.151 51.2483 174.001 52.1983 174.501C53.1483 175.001 54.1983 175.001 55.2483 175.001C56.2983 175.001 57.3983 174.901 58.4483 174.801C58.9983 174.751 59.5983 175.001 59.7983 175.551C60.7483 177.901 61.9983 179.601 63.7983 179.851C63.8983 179.851 64.0483 179.901 64.1983 179.901C64.5483 179.901 65.0483 179.801 65.7983 179.401C66.6483 178.901 67.9983 179.201 68.6483 180.001C69.0483 180.451 69.4483 180.801 69.8483 181.101C71.6983 183.001 76.2483 183.951 80.0483 183.951C82.1483 183.951 83.9983 183.701 85.0983 183.151C86.6483 182.401 86.6483 181.201 86.5983 180.751C86.4483 179.901 86.3483 179.051 86.2483 178.251C86.2483 178.151 86.3983 178.101 86.4483 178.201C86.6983 178.701 86.9483 179.301 87.6983 179.451C87.7983 179.451 87.8483 179.501 87.9483 179.501C88.9983 179.501 90.6483 179.851 90.9483 180.851C91.0983 181.351 91.2983 181.851 91.5983 182.301C92.2483 183.301 93.5483 184.501 96.0983 184.551H96.2983C99.2483 184.551 101.548 183.601 103.048 181.701C103.148 181.601 103.248 181.451 103.348 181.301C103.898 180.501 105.548 180.501 106.248 181.151C107.048 181.901 108.048 182.251 109.148 182.251C109.348 182.251 109.498 182.251 109.698 182.201C110.998 182.051 112.148 181.351 112.998 180.151C113.548 179.351 113.948 178.401 114.248 177.351C114.348 177.051 114.748 176.951 114.998 177.151C115.548 177.651 116.448 178.201 117.798 178.201C118.098 178.201 118.448 178.151 118.848 178.101C121.398 177.601 122.698 175.451 123.298 173.051C123.298 172.951 123.448 172.951 123.498 173.001C124.148 173.801 125.348 174.701 127.448 174.701C127.548 174.701 127.648 174.701 127.798 174.701C128.898 174.651 129.848 174.151 130.498 173.301C131.298 172.251 131.598 170.751 131.698 169.251C131.748 168.701 132.098 168.201 132.598 167.951C134.748 167.001 137.348 165.101 138.098 163.751C138.098 163.751 138.098 163.751 138.098 163.701C138.348 163.301 138.698 162.951 139.148 162.851C140.748 162.551 141.498 162.201 142.148 161.951C142.698 161.701 143.148 161.501 144.398 161.301C154.248 159.801 156.198 159.451 158.298 158.051C161.498 155.901 161.648 153.001 161.798 150.151C161.948 147.751 162.098 145.051 163.948 141.851C164.648 140.701 165.398 139.251 166.248 137.701C167.648 135.051 169.648 131.401 171.098 129.401C171.448 128.951 172.048 128.801 172.548 129.001C175.798 130.301 178.598 131.701 179.248 132.201Z" fill="white"/>
<path d="M83.4472 161.504C83.0472 164.904 82.7972 169.454 83.3472 175.404C83.4972 177.054 83.6972 178.804 83.9972 180.554C83.5472 180.804 82.1472 181.154 79.6472 181.104C76.0972 181.054 72.5972 180.154 71.5472 179.004L71.3972 178.854C70.5472 178.154 69.9472 177.704 69.8972 176.454C69.8472 176.054 70.0472 175.604 70.4472 175.004C70.6472 174.654 70.9472 174.304 71.2972 173.804C71.8972 173.004 72.6472 172.004 73.3972 170.704C75.6472 166.954 76.4972 165.754 77.5472 164.304C77.6472 164.204 77.6972 164.054 77.7972 163.954C78.4472 163.104 79.1972 162.054 80.2972 160.354C81.1472 159.104 81.8472 158.104 82.3972 157.304C83.3472 156.004 83.9972 155.304 84.3972 154.904C84.3472 155.504 84.1972 156.304 84.0972 157.054C83.8972 158.354 83.6472 159.804 83.4472 161.504Z" fill="white"/>
<path d="M81.8468 108.504C81.8468 108.554 81.7969 108.554 81.7969 108.604C81.3469 109.254 80.7968 109.954 80.1468 111.404C78.4468 115.204 78.3968 117.304 78.3968 119.054C78.3968 119.954 78.3468 120.654 78.1468 121.504C77.9968 122.054 77.6968 122.704 77.3968 123.404C76.3968 125.704 75.0968 128.704 75.6468 132.754C74.8468 132.354 73.5968 131.454 73.3968 131.004C73.3468 130.804 73.2968 130.554 73.2468 130.354C72.9468 129.104 72.7968 128.254 73.5968 126.404C75.6968 121.554 75.9468 120.354 76.1468 119.054C76.1968 118.754 76.1969 118.554 76.2969 118.154C76.7469 116.254 76.9968 114.604 77.1468 113.254C77.4468 111.254 77.6469 109.904 78.2969 108.904C78.5469 108.554 79.2468 108.354 80.2468 108.354C80.6468 108.354 81.0968 108.404 81.5968 108.454H81.6968C81.7468 108.504 81.7968 108.504 81.8468 108.504Z" fill="white"/>
<path d="M79.0463 156.551C78.9463 155.401 78.7463 154.201 78.2963 153.101C78.2463 153.051 78.1463 152.751 78.0963 152.701C77.9963 152.551 77.9463 152.451 77.8463 152.301C77.7963 152.251 77.7463 152.201 77.6963 152.151C77.6463 152.101 77.5464 152.001 77.4964 151.951L77.4464 151.901C77.3964 151.851 77.3464 151.851 77.2964 151.801C77.1964 151.751 77.1464 151.701 77.0464 151.651C76.9964 151.651 76.9464 151.601 76.8964 151.601H76.8464C76.8464 151.601 76.8464 151.601 76.7964 151.601C76.7964 151.601 76.7964 151.601 76.7464 151.601C76.6964 151.601 76.6964 151.601 76.6964 151.601C75.9965 151.351 75.3465 151.101 74.5965 150.951C74.5965 150.951 74.5966 150.951 74.5466 150.951C74.4466 150.951 74.2966 150.951 74.2966 150.951C74.1966 150.951 74.0966 150.951 73.9966 150.951C73.9466 150.951 73.8966 150.951 73.8466 150.951H73.7966H73.7466C73.7466 150.951 73.7466 150.951 73.6966 150.951C73.5466 151.001 73.3466 151.051 73.1966 151.101C73.1466 151.151 73.0466 151.151 72.9967 151.201C72.9467 151.251 72.8967 151.301 72.7967 151.301C72.6967 151.401 72.6467 151.451 72.5467 151.551C72.4967 151.601 72.4467 151.651 72.3967 151.751C72.3967 151.801 72.3467 151.801 72.3467 151.851C72.0967 152.251 71.7967 152.701 71.4967 153.101C70.8468 154.101 70.1468 155.101 69.4969 156.101C68.8969 157.001 68.247 157.901 67.647 158.801C67.297 159.301 66.947 159.801 66.6471 160.301C66.5971 160.401 66.5471 160.451 66.4971 160.551C66.897 160.651 67.297 160.701 67.697 160.801C68.5969 160.951 69.4969 161.151 70.4468 161.251C72.3467 161.5 74.2966 161.65 76.2464 161.55C76.3464 161.55 76.4464 161.55 76.4964 161.55C76.9464 160.901 77.4964 160.101 78.1963 159.051C78.5963 158.451 78.9463 157.901 79.2962 157.401C79.1963 157.151 79.0963 156.901 79.0463 156.551Z" fill="white"/>
<path d="M72.2478 164.453C72.0978 165.903 70.4479 169.752 67.848 173.352C65.6982 176.402 64.3983 177.102 64.1483 177.152C63.0983 177.002 62.0984 174.452 61.2985 171.902C60.9485 170.852 60.6985 169.852 60.4485 168.952C59.8986 167.002 59.7986 164.403 59.8986 162.803C62.0484 164.003 65.8982 164.353 71.1978 164.353C71.5478 164.403 71.8978 164.453 72.2478 164.453Z" fill="white"/>
<path d="M68.4464 152.35C68.3964 152.4 68.3964 152.45 68.3964 152.45C67.4965 153.8 66.5466 155.15 65.6466 156.5C65.1466 157.2 64.6967 157.899 64.1967 158.599C63.9467 158.999 63.5967 159.399 63.2968 159.849C62.5468 159.649 61.7969 159.499 61.0469 159.299C60.4469 159.099 59.847 158.949 59.247 158.699C59.147 158.649 58.997 158.599 58.897 158.549C58.7971 158.349 58.6471 158.149 58.4971 158.049C58.6971 157.599 58.947 157.15 59.147 156.7C59.547 155.9 59.997 155.1 60.4469 154.3C61.2469 152.9 62.2468 151.45 63.6467 150.55C63.6967 150.5 63.7967 150.45 63.8467 150.4C64.3967 150.05 64.8967 149.85 65.5966 149.75C65.6966 149.75 66.1466 149.75 66.3466 149.75C66.3966 149.75 66.3966 149.75 66.4466 149.75C66.4466 149.75 66.4966 149.75 66.5466 149.8C66.6965 149.85 66.8465 149.9 67.0465 149.95C67.0965 150 67.1465 150 67.1965 150.05C67.3465 150.15 67.4965 150.2 67.5965 150.3C67.3965 150.15 67.8965 150.65 67.8965 150.6C68.1964 151.1 68.3464 151.6 68.4464 152.35Z" fill="white"/>
<path d="M61.1463 148.501C59.4464 149.901 58.1964 151.75 57.1965 153.7C56.5966 154.8 56.0966 155.85 55.5466 156.95C55.4966 157.05 55.4466 157.15 55.3966 157.3C54.8967 157.2 54.3467 157.05 53.8467 156.9C53.2968 156.75 52.7968 156.55 52.2468 156.3C51.9968 156.2 51.7969 156.05 51.5469 155.95C52.0468 155 52.6468 154.05 53.2468 153.15C54.0467 151.9 54.9467 150.651 55.8966 149.451C56.2466 149.001 56.6465 148.501 57.1465 148.201C57.6465 147.901 58.2964 147.951 58.8964 148.001C59.5464 148.051 60.1963 148.051 60.7963 148.301C60.9463 148.351 61.0963 148.451 61.1463 148.501Z" fill="white"/>
<path d="M58.4474 171.352C58.3474 171.402 58.2974 171.502 58.2474 171.602C58.1974 171.602 58.1474 171.652 58.0974 171.652C57.6974 171.702 57.2473 171.702 56.8473 171.752C56.0472 171.802 55.2472 171.852 54.4471 171.802C53.9971 171.802 53.5971 171.702 53.3971 171.452C53.0971 171.002 52.9971 170.252 52.897 169.652C52.397 166.752 52.297 163.703 52.697 160.803C54.1971 161.353 55.7972 161.753 57.3973 162.053C57.0473 164.702 57.6474 168.602 57.9974 169.802C58.1474 170.202 58.2974 170.802 58.4474 171.352Z" fill="white"/>
<path d="M53.5979 147.551C52.248 149.2 51.0481 150.95 49.9481 152.75C49.4982 153.5 48.9982 154.25 48.6482 155.05C48.0983 154.9 47.6483 154.7 47.1483 154.35C46.7484 154.1 46.3984 153.85 45.9984 153.55C45.8984 153.45 45.6484 153.25 45.4984 153.15C45.4484 153.1 45.4484 153.1 45.3984 153.05C45.4984 152.7 45.7484 152.3 45.8484 152.05C46.1484 151.45 46.4484 150.85 46.7483 150.25C47.3483 149.15 48.0483 148.051 48.8482 147.051C49.1482 146.701 49.3982 146.201 49.8981 146.101C50.2981 146.001 50.8481 146.051 51.1981 146.101C52.148 146.351 52.9479 146.801 53.5979 147.551Z" fill="white"/>
<path d="M43.2483 154.755C43.2483 154.655 43.3983 154.655 43.4483 154.755C43.7983 155.255 44.2983 155.655 44.7984 156.055C45.0484 156.255 45.2484 156.405 45.4984 156.555C45.5484 156.605 45.5484 156.605 45.5484 156.655C44.9984 158.904 44.6483 161.254 44.5983 163.604C44.5983 163.754 44.3983 163.754 44.3483 163.654C43.6983 160.854 42.7982 156.405 43.2483 154.755Z" fill="white"/>
<path d="M49.7983 159.702C49.5483 161.702 49.3983 163.702 49.4983 165.751C49.5483 166.851 49.6483 167.951 49.7983 169.051C49.5483 169.001 49.2983 169.001 49.0483 169.001C49.0983 169.001 48.9483 169.001 48.8983 169.001C48.8483 169.001 48.7983 169.001 48.7983 169.001C48.4983 168.951 48.4983 168.901 48.2482 168.751C47.9482 168.551 47.6482 168.201 47.4482 167.851C46.8982 166.901 46.7981 165.801 46.7481 164.702C46.6481 162.602 46.8481 160.552 47.2482 158.502C47.5982 158.652 47.8482 158.752 48.3482 158.952C48.8483 159.302 49.3483 159.502 49.7983 159.702Z" fill="white"/>
<g opacity="0.8">
<path d="M102.846 264.704C93.6958 264.704 84.9958 264.103 77.7458 263.553L75.7458 263.404L73.7458 263.104C72.8458 263.004 71.6958 262.854 70.5458 262.704C63.5458 261.954 50.4958 260.504 36.0958 253.754L33.8458 252.704L31.7458 251.554C4.09582 236.054 -6.25418 212.704 -11.8542 200.154C-12.2042 199.354 -12.6542 198.404 -13.0542 197.504C-15.8542 191.754 -17.6542 186.554 -19.1542 181.804L-19.5042 180.754L-19.8042 179.704C-23.8042 165.454 -24.8542 153.104 -23.0042 140.954C-21.1542 128.704 -16.6042 117.604 -8.75418 105.954L-4.65418 99.3035C-3.80418 97.9535 -3.25418 96.4535 -2.90418 94.9035C0.195817 79.5035 7.24582 68.5535 10.7458 63.3535C11.6958 57.0535 13.2958 50.8535 15.4458 44.8035L15.7458 43.9035L16.0958 43.0035C16.1458 42.8535 16.2458 42.6035 16.3458 42.2035C17.9458 37.5535 21.6458 26.5535 30.9958 15.0035L34.4958 10.7535L38.0958 7.50352C47.2958 -0.846485 58.2458 -6.99649 70.1458 -10.5965C76.7958 -12.5965 83.6458 -13.7965 90.5958 -14.1965L91.2458 -14.2465L92.2458 -14.2965C93.4458 -14.3465 94.6458 -14.3965 95.7958 -14.3965C100.096 -14.3965 104.446 -14.0465 108.696 -13.2965C111.346 -12.8465 114.096 -13.1465 116.596 -14.1965C123.996 -17.2965 131.746 -19.3465 139.696 -20.3965C140.346 -20.4965 140.946 -20.5465 141.396 -20.6465C142.646 -20.7965 144.646 -21.0465 147.046 -21.2465C151.246 -21.6465 157.646 -22.1465 164.646 -22.1465C178.246 -22.1465 189.946 -20.3965 200.446 -16.7465L201.346 -16.4465L202.196 -16.0965C225.346 -7.34649 237.096 4.85351 245.596 15.6535L245.996 16.1535L247.146 17.2035C254.796 23.2035 261.296 30.5035 266.346 38.8035L267.946 41.4035L269.296 44.1035C280.596 67.2035 276.996 88.5035 275.646 96.5535L275.496 97.0035C274.546 102.904 272.996 108.704 270.846 114.304C270.096 119.704 268.796 125.054 267.046 130.204C264.046 139.404 259.596 148.054 253.896 155.904C250.596 160.554 246.896 164.854 242.846 168.804C241.396 170.204 240.446 172.054 240.196 174.004C239.996 175.204 239.796 176.454 239.596 177.654C236.296 195.454 228.496 207.804 225.346 212.754L215.746 226.554C204.196 240.954 190.446 250.454 173.846 255.554L169.846 256.803L165.496 257.553C160.546 258.453 155.496 258.854 150.446 258.854C149.746 258.854 149.046 258.854 148.296 258.854H148.096L147.246 258.904L146.346 258.954H146.296C144.396 259.004 142.446 259.354 140.646 259.904C129.846 263.154 117.696 264.704 102.846 264.704Z" stroke="url(#paint1_linear_242_93232)" stroke-width="1.72963" stroke-miterlimit="10"/>
<path d="M102.846 255.201C94.0963 255.201 85.6463 254.651 78.5963 254.101L76.8963 253.951L75.1963 253.701C74.1463 253.551 72.8963 253.401 71.6463 253.301C64.8463 252.551 53.4463 251.301 40.7463 245.351L38.8963 244.451L37.1463 243.501C12.7463 229.801 3.69633 209.501 -1.70367 197.351C-2.00367 196.501 -2.50367 195.451 -2.95367 194.501C-5.45367 189.351 -7.10367 184.601 -8.50367 180.201L-8.80367 179.301L-9.05367 178.451C-12.6037 165.751 -13.5537 154.951 -11.9537 144.351C-10.3537 133.801 -6.35367 124.001 0.646326 113.751L5.89633 105.201C6.79633 103.701 7.44633 102.001 7.74633 100.251C10.3463 85.7512 17.1963 75.4512 20.2963 70.7512L20.6963 70.1512L20.8463 69.9012C20.8963 69.7512 20.9963 69.6012 21.0463 69.4512C21.2463 68.8512 21.4463 68.2512 21.5963 67.6512C22.3963 61.7012 23.8463 55.8512 25.8963 50.2012L26.1963 49.4512L26.4963 48.7012C26.5963 48.4512 26.6963 48.2012 26.9463 47.4012C28.4463 42.9512 31.4963 33.6512 39.5963 23.7012L42.5463 20.1512L45.5463 17.4512C53.5463 10.2012 63.0463 4.85117 73.3463 1.75117C79.1963 0.00117096 85.2463 -1.04883 91.3463 -1.39883L91.8963 -1.44883L92.7463 -1.49883C93.7463 -1.54883 94.7963 -1.54883 95.7963 -1.54883C100.196 -1.54883 104.546 -2.79883 108.846 -1.94883C112.146 -1.24883 115.596 -1.64883 118.696 -2.99883C124.496 -5.54883 132.246 -6.54883 141.146 -7.64883C141.796 -7.74883 142.346 -7.79883 142.746 -7.84883C143.896 -7.99883 145.796 -8.19883 148.046 -8.44883C151.996 -8.84883 158.046 -9.29883 164.546 -9.29883C176.896 -9.29883 187.396 -7.74883 196.696 -4.54883L197.446 -4.29883L198.196 -3.99883C218.696 3.75117 228.846 14.1012 236.746 24.1512C237.196 24.7012 237.646 25.3012 237.796 25.5012L237.996 25.6512L239.496 27.0012L239.696 27.2012C246.496 32.4012 252.296 38.8512 256.746 46.2012L258.046 48.3512L259.146 50.6012C268.896 70.4512 265.846 88.5512 264.546 96.2512L264.496 96.6512C263.596 102.251 262.046 107.751 259.996 113.051C259.346 118.201 258.196 123.251 256.496 128.201C253.846 136.351 249.946 144.001 244.896 150.901C241.496 155.751 237.546 160.201 233.146 164.151C231.096 166.001 229.796 168.501 229.546 171.251C229.346 173.251 229.046 175.201 228.696 177.151C225.746 192.851 218.946 203.701 215.796 208.601L207.996 219.901C197.646 233.201 185.396 241.851 170.596 246.451L167.246 247.501L163.596 248.151C159.246 248.901 154.846 249.301 150.446 249.301C149.796 249.301 149.146 249.301 148.446 249.301H148.246H147.846C147.846 249.301 147.696 249.301 147.446 249.301L146.696 249.351L145.946 249.401L144.396 249.451C142.346 249.501 140.346 249.851 138.396 250.501C128.396 253.751 116.996 255.201 102.846 255.201Z" stroke="url(#paint2_linear_242_93232)" stroke-width="1.72963" stroke-miterlimit="10"/>
<path d="M102.846 244.054C94.4465 244.054 86.2965 243.504 79.4465 242.954L78.0965 242.854L76.7465 242.654C75.5465 242.504 74.1965 242.354 72.8465 242.204C66.3465 241.504 56.4965 240.404 45.4965 235.254L43.9965 234.554L42.5965 233.754C21.4465 221.904 13.6465 204.404 8.49649 192.804C8.04649 191.804 7.54649 190.704 7.09649 189.654C4.84649 185.104 3.34649 180.754 2.09649 176.754L1.89649 176.054L1.69649 175.354C-1.4535 164.254 -2.2535 154.904 -0.903505 145.954C0.446495 136.904 4.04649 128.454 10.2965 119.354L11.0465 118.254L11.8465 117.204C12.3465 116.554 12.8465 115.904 13.3465 115.304L16.4965 109.554C17.5465 107.654 18.2465 105.604 18.5465 103.504C20.5465 90.5535 26.7965 81.2035 29.6465 76.9035C29.7965 76.6535 30.0465 76.3535 30.1465 76.1535L30.7465 75.1535C30.9965 74.6035 31.2965 73.9535 31.5965 73.2035C31.8965 72.3535 32.1965 71.2535 32.5965 70.1535C33.2965 64.6535 34.5965 59.2035 36.4965 54.0035L36.6965 53.4035L36.9465 52.8035C37.1465 52.3035 37.2965 51.8535 37.5965 50.9535C38.9965 46.8035 41.5465 39.1535 48.2965 30.7535L50.6465 27.9035L52.9965 25.7535C59.7465 19.6035 67.7965 15.0535 76.5465 12.4535C81.5965 10.9535 86.8465 10.0535 92.1465 9.75352L92.5965 9.70352L93.2965 9.65352C94.1465 9.60352 94.9965 9.60352 95.7965 9.60352C100.346 9.60352 104.846 10.1535 109.246 11.3035C113.046 12.2535 117.096 11.8535 120.596 10.1035C126.246 7.35352 133.746 4.45352 142.596 3.40352C143.196 3.30352 143.696 3.25352 144.146 3.20352C145.246 3.05352 146.996 2.85352 149.096 2.65352C152.796 2.30352 158.496 1.85352 164.546 1.85352C175.646 1.85352 184.946 3.20352 193.046 6.00352L193.646 6.20352L194.246 6.40352C213.096 13.5035 221.496 22.8535 227.946 31.0035C229.346 32.8035 229.596 33.1035 230.546 33.9535L231.746 35.0035L232.196 35.5035C235.296 37.9035 241.646 42.8535 247.196 52.0035L248.246 53.7535L249.146 55.5535C257.296 72.2035 254.746 87.2035 253.546 94.4535L253.496 94.8535C252.646 100.154 251.146 105.304 249.096 110.304L249.046 110.754C248.496 115.504 247.446 120.154 245.896 124.704C243.596 131.804 240.196 138.454 235.796 144.454C232.146 149.704 227.696 154.404 222.696 158.404C221.496 159.354 220.546 160.554 219.846 161.904C219.146 163.254 218.746 164.754 218.696 166.254C218.546 169.254 218.196 172.204 217.646 175.154C215.096 188.754 209.146 198.204 206.146 202.904L200.096 211.804C190.996 223.954 180.246 231.804 167.196 235.804L164.496 236.654L161.596 237.154C157.896 237.804 154.146 238.154 150.396 238.104C149.796 238.104 149.196 238.104 148.596 238.104H148.496H147.846C147.746 238.104 147.396 238.104 146.746 238.154L146.146 238.204H145.546L142.446 238.304C140.246 238.354 138.096 238.754 136.046 239.454C126.946 242.604 116.296 244.054 102.846 244.054Z" stroke="url(#paint3_linear_242_93232)" stroke-width="1.62151" stroke-miterlimit="10"/>
<path d="M102.845 232.857C94.8447 232.857 86.9447 232.307 80.2947 231.807L79.2947 231.707L78.2947 231.557C76.9447 231.357 75.4947 231.207 74.0947 231.057C67.9947 230.407 59.5947 229.507 50.2947 225.107L49.1947 224.557L48.1447 223.957C30.2447 213.907 23.6447 199.057 18.7947 188.207C18.2947 187.107 17.7947 185.907 17.2447 184.807C15.1947 180.707 13.8947 176.757 12.7947 173.357L12.6447 172.807L12.4947 172.307C7.24472 153.657 9.24472 140.607 19.5447 125.707L20.0947 124.907L20.6947 124.107C21.3947 123.257 21.9947 122.407 22.6447 121.607C23.5947 120.357 24.5447 119.107 25.5947 117.807C26.2447 117.007 26.7447 116.107 27.1447 115.107L28.3447 112.107C28.8447 110.807 29.1447 109.457 29.2947 108.107C30.3447 96.1566 36.1447 87.4566 38.9947 83.1066C39.1947 82.8066 39.5447 82.3066 39.6447 82.1566L40.2947 81.0566L40.4947 80.7566C40.8447 80.0566 41.5447 78.5066 42.1947 76.9066C42.5447 75.8066 43.0447 74.1066 43.5447 72.6066C43.5447 72.5566 43.5447 72.5066 43.5447 72.4066C44.0947 67.4066 45.2447 62.4566 46.9947 57.7566L47.1447 57.3066L47.3447 56.8566C47.6447 56.0566 47.8947 55.4066 48.1947 54.4566C49.4447 50.7566 51.4947 44.5566 56.9947 37.8066L58.7447 35.6566L60.4947 34.0566C73.4947 22.2566 88.0447 21.2066 92.9447 20.9066L93.2947 20.8566L93.7947 20.8066C94.4447 20.7566 95.0947 20.7566 95.7447 20.7566C101.545 20.7566 107.245 21.9566 112.545 24.2066C113.495 24.6066 114.495 24.7566 115.545 24.7066C116.545 24.6566 117.545 24.4066 118.445 23.9066H118.495C123.445 21.0566 132.495 15.8566 144.045 14.4566C144.595 14.3566 145.095 14.3066 145.495 14.2566C146.495 14.1066 148.145 13.9566 150.145 13.7566C153.595 13.4066 158.895 13.0566 164.545 13.0566C174.345 13.0566 182.495 14.2066 189.395 16.6066L189.845 16.7566L190.295 16.9066C206.445 23.0066 213.395 30.6566 219.145 37.9566C220.695 39.9066 221.395 40.8066 223.095 42.3566L223.995 43.1566L224.695 43.9066L225.245 44.3566C227.995 46.4566 233.045 50.4066 237.595 57.8566L238.395 59.1566L239.045 60.5066C245.595 73.9066 243.545 86.0566 242.445 92.6066L242.395 93.0066C241.595 97.7566 240.245 102.407 238.345 106.807L238.195 107.207C238.195 107.307 238.145 107.407 238.145 107.607C238.045 108.057 237.995 108.407 237.945 108.857L237.895 109.357C237.445 113.357 236.545 117.307 235.245 121.107C233.295 127.107 230.395 132.807 226.645 137.907C222.945 143.157 218.845 147.407 214.195 150.757C212.145 152.257 210.495 154.207 209.345 156.407C208.195 158.657 207.545 161.107 207.545 163.657C207.495 166.807 207.195 169.957 206.645 173.057C204.495 184.607 199.595 192.407 196.495 197.157L192.095 203.707C184.245 214.657 174.995 221.657 163.845 225.057L163.245 225.257C162.295 225.557 161.345 225.807 160.345 225.957L159.645 226.057C156.595 226.607 153.445 226.857 150.345 226.857C149.795 226.857 149.295 226.857 148.695 226.857H148.595C148.345 226.857 148.045 226.857 147.745 226.857C147.545 226.857 146.945 226.857 145.895 226.907L145.445 226.957H144.995C143.495 227.007 141.645 227.057 139.995 227.157C137.745 227.257 135.495 227.707 133.345 228.457C125.395 231.507 115.595 232.857 102.845 232.857Z" stroke="url(#paint4_linear_242_93232)" stroke-width="1.5134" stroke-miterlimit="10"/>
<path d="M102.845 221.706C95.1954 221.706 87.5954 221.206 81.1954 220.706L80.5454 220.656L79.8954 220.556C78.3454 220.356 76.8454 220.156 75.3454 220.006C69.7454 219.406 62.7454 218.656 55.0954 215.056L54.3454 214.706L53.6454 214.306C38.9454 206.056 33.4954 193.706 29.0454 183.756C28.4954 182.556 27.9454 181.256 27.3454 180.056C25.5954 176.606 24.4454 173.056 23.4954 170.056L23.3954 169.706L23.2954 169.356C18.9954 154.006 20.3954 144.256 28.7454 132.156L29.0954 131.606L29.4954 131.106C30.2454 130.156 30.8954 129.306 31.5454 128.456C33.7454 125.606 35.8454 122.856 38.9454 119.506C39.6454 118.756 40.0454 117.806 40.0954 116.806L40.3454 113.206L40.2454 112.006L40.2954 110.756C40.6454 100.856 45.5954 93.4062 48.2454 89.3562C48.5454 88.9062 48.8954 88.4062 49.0454 88.1062L49.4954 87.4062L49.8954 86.8562C50.3954 86.0562 51.6954 83.2562 52.6954 80.6062C53.0454 79.5062 53.6954 77.3563 54.2954 75.6562C54.4454 75.1062 54.4954 75.0063 54.6454 73.8063C55.0954 69.6063 56.0454 65.5063 57.4954 61.5563L57.5954 61.2562L57.6954 60.9563C58.0954 59.9063 58.3954 59.0563 58.7454 58.0563C59.7954 54.9063 61.3954 50.1063 65.5954 44.9063L66.7954 43.5063L67.9454 42.4563C77.0454 34.1563 86.9954 32.6063 93.6954 32.1563H93.9454H94.2954C94.7954 32.1563 95.2454 32.1062 95.7454 32.1062C101.445 32.1062 108.295 34.8563 111.895 36.5063C112.745 36.9063 113.695 37.1063 114.645 37.1563C115.595 37.2063 116.545 37.0563 117.395 36.7063C119.645 35.9063 121.795 34.9562 123.945 33.8562C128.495 31.2062 136.095 26.8063 145.545 25.7063C146.045 25.6063 146.545 25.5563 146.895 25.5063C147.845 25.4063 149.345 25.2062 151.195 25.0562C154.395 24.7562 159.345 24.4062 164.545 24.4062C173.095 24.4062 180.045 25.3563 185.745 27.3563L186.045 27.4563L186.345 27.5562C199.845 32.6562 205.195 38.5062 210.345 45.0562C212.045 47.1562 213.195 48.7063 215.645 50.9063L216.245 51.4563L216.795 52.0063C217.295 52.5063 217.845 52.9562 218.395 53.3562C220.695 55.1562 224.595 58.1563 228.045 63.8063L228.595 64.6562L229.045 65.5563C234.045 75.7063 232.445 85.2063 231.495 90.9062L231.445 91.3063C230.795 95.2063 229.695 99.0563 228.145 102.656V102.706C227.695 103.656 227.395 104.656 227.245 105.656C227.095 106.356 227.045 106.956 226.945 107.606L226.895 108.106C226.545 111.356 225.845 114.606 224.745 117.706C223.145 122.656 220.745 127.356 217.695 131.556C213.145 138.056 207.895 142.606 201.545 145.506C199.995 146.206 198.695 147.306 197.745 148.706C196.795 150.106 196.245 151.756 196.195 153.456C196.145 154.156 196.145 154.706 196.195 155.056C196.495 159.956 196.845 165.456 195.795 171.206C194.045 180.656 190.045 187.006 187.045 191.656C187.045 191.656 173.245 210.856 160.745 214.656L159.395 215.056L157.945 215.306C155.495 215.756 153.045 215.956 150.545 215.956C150.095 215.956 149.595 215.956 149.095 215.956H149.045C148.695 215.956 148.345 215.956 147.945 215.956C147.445 215.956 146.645 215.956 145.395 216.056H145.095H144.795C139.995 216.206 135.445 216.406 134.195 216.656C133.545 216.756 132.845 216.956 132.245 217.206C124.995 220.256 115.695 221.706 102.845 221.706Z" stroke="url(#paint5_linear_242_93232)" stroke-width="1.40533" stroke-miterlimit="10"/>
<path d="M102.847 210.506C95.5965 210.506 88.2465 210.006 82.0465 209.506H81.6965L81.3465 209.456C79.6465 209.206 78.0465 209.056 76.4465 208.856C71.1465 208.306 65.6965 207.706 59.6965 204.906L59.3465 204.706L58.9965 204.506C47.5465 198.056 43.2965 188.506 39.1465 179.206C38.5465 177.906 37.9465 176.506 37.3465 175.156C35.9465 172.406 34.9465 169.456 34.0965 166.606L34.0465 166.456L33.9965 166.256C30.5465 154.006 31.4465 147.806 37.8965 138.406L38.0965 138.106L38.2965 137.856C39.0465 136.906 39.7465 136.006 40.3965 135.106C43.4965 131.006 46.1965 127.506 52.2465 121.906C52.6965 121.506 52.9965 120.956 53.1465 120.356C53.2965 119.756 53.2465 119.156 53.0465 118.556L51.9465 115.456C51.7465 114.456 51.5965 113.506 51.4965 112.506V112.456L51.4465 111.606V111.006C51.6465 104.256 55.1965 98.9562 57.5465 95.4562C57.8965 94.9062 58.2465 94.4062 58.5465 93.9562L58.7465 93.6062L58.9965 93.2562C60.2465 91.5562 62.2465 86.9562 63.2965 84.0562C63.5965 83.1562 64.2965 80.8062 64.8965 79.0562C65.2965 77.7562 65.5965 76.4062 65.6965 75.0562C66.0465 71.7062 66.7965 68.4062 67.9965 65.2062L68.0465 65.0562L68.0965 64.9062C68.5965 63.5562 68.9965 62.5062 69.3465 61.4562C70.2965 58.6562 71.3465 55.4562 74.2965 51.8062L74.8965 51.1062L75.4965 50.6062C81.9965 44.7062 89.0465 43.5562 94.5465 43.1562H94.6465H94.8465C95.1465 43.1562 95.4465 43.1562 95.7465 43.1562C101.097 43.1562 105.147 45.3562 107.897 46.8062L108.547 47.1562L108.647 47.2062C109.397 47.6062 110.047 47.9562 110.647 48.2562C112.347 49.1062 114.247 49.3062 116.097 48.8062C119.797 47.8062 125.597 45.6062 129.497 43.4562L129.597 43.4062C133.697 41.0562 139.847 37.4562 147.097 36.6562C147.547 36.6062 147.997 36.5062 148.397 36.4562C149.247 36.3562 150.647 36.1562 152.347 36.0062C155.297 35.7062 159.847 35.4062 164.597 35.4062C171.897 35.4062 177.597 36.1562 182.147 37.7062L182.297 37.7562L182.447 37.8062C193.247 41.9062 197.197 46.1562 201.597 51.7562C203.397 54.0562 205.097 56.2062 208.297 59.0562L208.597 59.3562L208.896 59.6562C209.746 60.5062 210.697 61.3562 211.697 62.0562C213.597 63.5562 216.247 65.6062 218.597 69.4562L218.847 69.9062L219.047 70.3562C222.447 77.3062 221.297 84.0062 220.497 88.9062L220.446 89.3062C219.946 92.4062 219.047 95.4062 217.797 98.2562C217.047 99.9062 216.547 101.656 216.247 103.406C216.047 104.456 215.947 105.256 215.847 106.006L215.797 106.556C215.547 109.106 214.996 111.606 214.146 114.006C212.896 117.906 211.047 121.606 208.597 124.906C204.497 130.806 199.947 134.456 193.897 136.356C190.997 137.256 188.497 139.156 186.847 141.706L186.347 142.456L185.797 143.056C184.247 144.806 184.697 151.606 184.947 155.606C185.247 160.056 185.547 164.656 184.697 168.956C183.347 176.356 180.147 181.356 177.347 185.706C177.347 185.706 166.847 200.906 157.347 203.756L156.647 203.956L155.897 204.106C154.097 204.406 152.247 204.606 150.397 204.556C149.997 204.556 149.547 204.556 149.097 204.556C148.697 204.556 148.247 204.556 147.797 204.556C147.147 204.556 146.097 204.556 144.547 204.656H144.397H144.247C137.897 204.906 134.047 205.006 131.897 205.456C130.447 205.706 129.097 206.106 127.747 206.706C122.147 209.356 114.197 210.506 102.847 210.506Z" stroke="url(#paint6_linear_242_93232)" stroke-width="1.40533" stroke-miterlimit="10"/>
</g>
</g>
</g>
<defs>
<radialGradient id="paint0_radial_242_93232" cx="0" cy="0" r="1" gradientUnits="userSpaceOnUse" gradientTransform="translate(124.998 138.104) rotate(90) scale(140.436)">
<stop offset="0.1667" stop-color="#073183"/>
<stop offset="1" stop-color="#0054F9"/>
</radialGradient>
<linearGradient id="paint1_linear_242_93232" x1="-17.6056" y1="-28.0204" x2="268.867" y2="272.648" gradientUnits="userSpaceOnUse">
<stop offset="0.2057" stop-color="#89D0FF"/>
<stop offset="0.3984" stop-color="#EBBF9A"/>
<stop offset="0.6015" stop-color="#EB8280"/>
<stop offset="0.8411" stop-color="#A281FF"/>
</linearGradient>
<linearGradient id="paint2_linear_242_93232" x1="-6.41872" y1="-15.1513" x2="257.676" y2="263.165" gradientUnits="userSpaceOnUse">
<stop offset="0.2057" stop-color="#89D0FF"/>
<stop offset="0.3984" stop-color="#EBBF9A"/>
<stop offset="0.6015" stop-color="#EB80DA"/>
<stop offset="0.8411" stop-color="#A281FF"/>
</linearGradient>
<linearGradient id="paint3_linear_242_93232" x1="4.81639" y1="-3.98223" x2="246.53" y2="251.976" gradientUnits="userSpaceOnUse">
<stop offset="0.2057" stop-color="#89D0FF"/>
<stop offset="0.3984" stop-color="#EBBF9A"/>
<stop offset="0.6015" stop-color="#EB8280"/>
<stop offset="0.8411" stop-color="#A281FF"/>
</linearGradient>
<linearGradient id="paint4_linear_242_93232" x1="16.0433" y1="7.22274" x2="235.326" y2="240.757" gradientUnits="userSpaceOnUse">
<stop offset="0.2057" stop-color="#89D0FF"/>
<stop offset="0.3984" stop-color="#EBBF9A"/>
<stop offset="0.6015" stop-color="#EB80E7"/>
<stop offset="0.8411" stop-color="#A281FF"/>
</linearGradient>
<linearGradient id="paint5_linear_242_93232" x1="27.2515" y1="18.4036" x2="224.144" y2="229.494" gradientUnits="userSpaceOnUse">
<stop offset="0.2057" stop-color="#89D0FF"/>
<stop offset="0.3984" stop-color="#EBBF9A"/>
<stop offset="0.6015" stop-color="#EB80D3"/>
<stop offset="0.8411" stop-color="#A281FF"/>
</linearGradient>
<linearGradient id="paint6_linear_242_93232" x1="38.4956" y1="29.5487" x2="212.984" y2="218.282" gradientUnits="userSpaceOnUse">
<stop offset="0.2057" stop-color="#89D0FF"/>
<stop offset="0.3984" stop-color="#EBBF9A"/>
<stop offset="0.6015" stop-color="#A280EB"/>
<stop offset="0.8411" stop-color="#A281FF"/>
</linearGradient>
<clipPath id="clip0_242_93232">
<rect width="250" height="250" rx="125" fill="white"/>
</clipPath>
</defs>
</svg>
