<svg width="250" height="250" viewBox="0 0 250 250" fill="none" xmlns="http://www.w3.org/2000/svg">
<path d="M125 247.338C192.566 247.338 247.339 192.565 247.339 124.999C247.339 57.4331 192.566 2.66016 125 2.66016C57.4341 2.66016 2.66113 57.4331 2.66113 124.999C2.66113 192.565 57.4341 247.338 125 247.338Z" fill="url(#paint0_linear_242_93235)"/>
<path d="M109.102 138.084L125.377 88.5557L141.953 138.084H109.102ZM178.095 169.403L164.633 132.433H172.67C175.872 132.405 178.458 129.809 178.472 126.606C178.472 123.554 175.998 121.081 172.946 121.081H160.388L158.379 115.329H172.67C175.802 115.33 178.365 112.834 178.446 109.703C178.46 106.513 175.885 103.915 172.695 103.901C172.678 103.901 172.662 103.901 172.645 103.901H154.084L144.038 76.2741C142.537 72.3269 140.056 68.8264 136.83 66.1022C133.642 63.4805 129.602 62.1218 125.477 62.2846C121.342 62.1532 117.297 63.5076 114.075 66.1022C110.846 68.8302 108.358 72.3288 106.842 76.2741L96.3179 104.153H77.8578C74.7882 104.153 72.2959 106.634 72.2821 109.703C72.2821 112.893 74.8684 115.48 78.0587 115.48H92.0733L89.9133 121.081H77.3554C74.276 121.081 71.7797 123.577 71.7797 126.656C71.7797 129.809 74.3282 132.369 77.481 132.383H85.5431L71.855 169.403C71.0137 171.49 70.5461 173.709 70.4736 175.958C70.6163 179.113 71.9863 182.088 74.2912 184.247C76.8276 186.443 80.078 187.64 83.4333 187.612C89.242 187.931 94.4802 184.138 95.9912 178.52L101.291 162.722H150.04L155.34 178.897C157.047 184.318 162.225 187.88 167.898 187.537C170.008 187.579 172.091 187.05 173.925 186.005C175.517 184.824 176.929 183.42 178.12 181.836C179.157 180.053 179.687 178.021 179.652 175.958C179.319 173.766 178.798 171.607 178.095 169.504V169.403H178.095Z" fill="#FEFEFE"/>
<defs>
<linearGradient id="paint0_linear_242_93235" x1="37.002" y1="38.3852" x2="210.891" y2="209.539" gradientUnits="userSpaceOnUse">
<stop stop-color="#FC9351"/>
<stop offset="0.9995" stop-color="#FC6D79"/>
</linearGradient>
</defs>
</svg>
