<svg width="250" height="250" viewBox="0 0 250 250" fill="none" xmlns="http://www.w3.org/2000/svg">
<path d="M137.088 151.09L165.082 182.221L129.326 208.604V151.09H137.088Z" fill="#4E42DF"/>
<path d="M207.238 151.09L169.83 178.712L144.934 151.09H207.238Z" fill="#4839D0"/>
<path d="M107.401 151.09L82.5458 178.67L44.5605 151.09H107.401Z" fill="#7953F5"/>
<path d="M124.124 151.09V208.852L87.3359 182.139L115.288 151.09H124.124Z" fill="#6045F8"/>
<path d="M42.166 155.877L77.9217 181.889H25.8984L42.166 155.877Z" fill="#9552F7"/>
<path d="M225.899 181.889H174.701L209.879 155.877L225.899 181.889Z" fill="#362B9C"/>
<path d="M124.122 102.41V24.9941L48.5645 145.721H97.8214L124.122 102.41Z" fill="#B852F7"/>
<path d="M155.833 145.722H203.604L129.326 25.0371V102.04L155.833 145.722Z" fill="#D252F5"/>
</svg>
