<svg width="250" height="250" viewBox="0 0 250 250" fill="none" xmlns="http://www.w3.org/2000/svg">
<rect width="250" height="250" rx="125" fill="white"/>
<path d="M124.748 243.501C93.0804 243.501 63.3466 231.173 40.9616 208.788C18.5767 186.403 6.24805 156.669 6.24805 125.002C6.24805 93.3341 18.5767 63.6004 40.9616 41.2155C63.3466 18.8306 93.0804 6.50195 124.748 6.50195C156.416 6.50195 186.15 18.8306 208.534 41.2155C230.919 63.6004 243.248 93.3341 243.248 125.002C243.248 156.669 230.919 186.403 208.534 208.788C186.15 231.173 156.416 243.501 124.748 243.501ZM124.748 25.1157C69.6801 25.1157 24.8619 69.9339 24.8619 125.002C24.8619 180.07 69.6801 224.888 124.748 224.888C179.816 224.888 224.634 180.07 224.634 125.002C224.634 69.9339 179.816 25.1157 124.748 25.1157Z" fill="#222326"/>
<path d="M145.154 164.451C144.622 163.388 144.187 162.179 143.8 160.777C143.413 159.375 143.123 157.924 142.833 156.426C141.625 157.731 140.223 158.988 138.627 160.148C137.032 161.309 135.243 162.372 133.309 163.243C131.423 164.113 129.296 164.741 126.927 165.225C124.606 165.757 122.092 165.999 119.385 165.999C114.985 165.999 110.924 165.37 107.201 164.113C103.527 162.856 100.384 161.067 97.725 158.795C95.0659 156.522 92.9869 153.815 91.5365 150.672C90.0377 147.481 89.3125 144.049 89.3125 140.326C89.3125 131.237 92.6968 124.275 99.4172 119.343C106.186 114.363 116.29 111.849 129.731 111.849H142.06V106.773C142.06 102.615 140.706 99.3757 137.999 97.0066C135.291 94.5892 131.375 93.3322 126.298 93.3322C121.802 93.3322 118.514 94.2992 116.436 96.2814C114.357 98.167 113.341 100.778 113.341 104.017H91.2464C91.2464 100.343 92.02 96.9099 93.6154 93.6223C95.2593 90.3347 97.6283 87.4338 100.674 84.9681C103.817 82.454 107.588 80.5201 112.036 79.0697C116.532 77.5709 121.705 76.8457 127.459 76.8457C132.632 76.8457 137.467 77.4742 141.915 78.7313C146.411 79.9883 150.327 81.8738 153.615 84.3879C156.902 86.902 159.465 90.0446 161.35 93.864C163.188 97.6351 164.155 101.986 164.155 106.966V143.855C164.155 148.448 164.445 152.268 165.025 155.314C165.605 158.36 166.475 160.922 167.587 163.098V164.451H145.154ZM124.074 148.932C126.298 148.932 128.377 148.69 130.263 148.158C132.148 147.626 133.889 146.95 135.436 146.079C136.983 145.209 138.289 144.29 139.401 143.227C140.513 142.115 141.383 141.003 142.011 139.891V125.097H130.698C127.265 125.097 124.316 125.435 121.85 126.112C119.433 126.74 117.402 127.659 115.904 128.916C114.357 130.076 113.245 131.527 112.471 133.219C111.746 134.863 111.359 136.652 111.359 138.634C111.359 141.583 112.374 144.049 114.453 146.031C116.629 147.965 119.82 148.932 124.074 148.932Z" fill="#222326"/>
</svg>
