<svg width="250" height="250" viewBox="0 0 250 250" fill="none" xmlns="http://www.w3.org/2000/svg">
<rect width="250" height="250" rx="125" fill="white"/>
<path d="M128.853 164.905L188.653 118.005C189.453 117.405 189.903 116.455 189.903 115.455V94.7554C189.903 93.0554 188.003 92.1554 186.653 93.1554L125.053 141.505L63.4033 93.1054C62.1033 92.0554 60.1533 93.0054 60.1533 94.7054V115.455C60.1533 116.455 60.6033 117.405 61.4033 118.005L121.203 164.905C122.303 165.755 123.653 166.155 125.053 166.155C126.353 166.205 127.753 165.755 128.853 164.905Z" fill="#1890FF"/>
<path fill-rule="evenodd" clip-rule="evenodd" d="M201.372 55.0041L128.487 30.0222C127.517 29.6988 126.264 29.5371 125.051 29.5371C123.839 29.5371 122.586 29.6988 121.615 30.0222L48.7313 55.0041C47.6803 55.3679 46.791 56.1359 46.1442 57.0657C45.4974 57.9954 45.0527 59.1273 45.0527 60.2187V164.35C45.0527 165.442 45.3761 166.614 45.9016 167.705C46.4271 168.797 47.1548 169.807 48.0037 170.454L121.939 228.462C122.828 229.15 123.92 229.473 125.051 229.473C126.143 229.473 127.275 229.15 128.164 228.462L202.099 170.495C202.948 169.848 203.676 168.837 204.201 167.746C204.727 166.654 205.05 165.482 205.05 164.391V60.2187C205.091 59.0869 204.646 57.9954 203.999 57.0657C203.312 56.1359 202.382 55.3679 201.372 55.0041ZM188.274 68.3843V159.904L125.051 209.504L61.7882 159.904V68.3843L125.051 46.6364L188.274 68.3843Z" fill="#1890FF"/>
</svg>
