<svg width="250" height="250" viewBox="0 0 250 250" fill="none" xmlns="http://www.w3.org/2000/svg">
<path d="M14.6608 124.641C14.6608 110.499 14.7353 96.3562 14.6318 82.2152C14.5733 74.2647 16.7293 67.1877 21.0863 60.4662C23.3083 57.0387 26.0453 54.7972 29.4088 52.8602C55.4773 37.8477 81.4938 22.7452 107.578 7.76016C118.741 1.34666 130.06 1.33966 141.239 7.77466C166.717 22.4412 192.174 37.1447 217.602 51.8987C228.53 58.2392 234.033 67.9772 234.102 80.4782C234.267 109.962 234.265 139.447 234.103 168.931C234.034 181.54 228.44 191.28 217.412 197.658C191.667 212.548 165.923 227.441 140.137 242.259C129.957 248.109 119.274 248.108 109.298 242.511C82.6938 227.585 56.3053 212.268 30.0163 196.792C19.8088 190.783 14.8583 181.177 14.7073 169.382C14.5163 154.47 14.6608 139.555 14.6608 124.641ZM110.064 12.6257C109.744 12.7472 109.4 12.8277 109.108 12.9967C83.9223 27.5167 58.7378 42.0392 33.5618 56.5762C30.8093 58.1657 28.3578 60.1292 26.4623 62.6237C26.5018 64.1407 27.0963 65.3022 28.2658 65.9682C34.6383 69.5967 41.0483 73.1597 47.4343 76.7392C50.2813 74.5407 53.2668 73.9767 56.5383 75.1697C57.4233 73.3477 58.9503 72.3482 60.1103 71.0072C67.9863 61.9052 75.8983 52.8337 83.7958 43.7502C87.4828 39.5097 91.1833 35.2812 94.8418 31.0162C100.016 24.9842 105.469 19.1912 110.357 12.9147C110.475 12.7867 110.592 12.6582 111.081 12.1237C110.408 12.4552 110.236 12.5407 110.064 12.6257ZM126.719 199.477C147.122 162.687 167.49 125.959 187.806 89.3252C186.94 87.9977 186.197 86.8592 185.411 85.6552C144.011 85.6552 102.633 85.6552 61.2933 85.6552C60.6693 86.7422 60.1168 87.7042 59.4698 88.8312C80.0058 125.848 100.581 162.934 121.23 200.154C123.001 199.236 124.73 199.568 126.719 199.477ZM132.832 205.31C133.663 205.178 134.339 205.105 134.998 204.96C142.338 203.346 149.671 201.704 157.013 200.101C177.538 195.62 198.073 191.184 218.586 186.646C221.528 185.995 223.871 184.276 224.863 181.231C225.614 178.923 225.149 176.685 224.349 174.454C216.152 151.597 207.981 128.731 199.8 105.869C198.077 101.054 196.344 96.2412 194.688 91.6277C192.744 90.8692 192.326 92.1702 191.755 93.1917C188.582 98.8597 185.409 104.527 182.252 110.204C167.761 136.265 153.274 162.329 138.79 188.394C136.221 193.016 133.675 197.651 131.174 202.178C131.762 203.288 132.238 204.188 132.832 205.31ZM54.8003 91.2182C52.6683 91.0477 52.6503 92.4332 52.3123 93.4037C47.8388 106.246 43.4008 119.101 38.9478 131.95C33.7538 146.937 28.5463 161.919 23.3608 176.909C21.7228 181.644 23.5658 185.092 28.3053 186.245C31.7793 187.09 35.2433 187.982 38.7358 188.743C58.2328 192.993 77.7368 197.211 97.2393 201.436C103.626 202.82 110.015 204.191 116.31 205.549C117.931 203.602 116.51 202.259 115.784 200.951C98.5268 169.852 81.2328 138.774 63.9473 107.691C60.8808 102.177 57.8213 96.6587 54.8003 91.2182ZM61.3458 80.2007C102.795 80.2007 144.177 80.2007 185.493 80.2007C185.989 79.4267 186.44 78.8052 186.459 77.8772C186.327 77.6712 186.176 77.3632 185.96 77.1107C168.01 56.1642 150.069 35.2097 132.092 14.2867C127.221 8.61766 121.242 8.74716 116.346 14.4092C108.727 23.2207 101.052 31.9832 93.3983 40.7652C82.8168 52.9062 72.2383 65.0497 61.6423 77.1777C60.8518 78.0827 60.1983 78.9142 61.3458 80.2007ZM228.359 170.091C228.508 170.085 228.658 170.079 228.807 170.072C228.848 169.852 228.926 169.632 228.926 169.412C228.914 139.853 228.931 110.293 228.84 80.7342C228.828 76.6752 228.322 72.6072 226.152 68.8102C218.02 73.2107 210.057 77.5202 201.927 81.9197C202.507 84.8017 201.131 87.0632 199.502 89.2697C209.137 116.255 218.748 143.173 228.359 170.091ZM22.6303 68.3932C20.6348 72.3852 19.8488 76.6212 19.8438 81.0082C19.8118 109.79 19.8093 138.572 19.7973 167.353C19.7968 168.16 19.7973 168.966 19.7973 169.772C19.9958 169.813 20.1943 169.855 20.3923 169.896C29.6183 143.19 38.8443 116.484 48.0923 89.7152C45.5663 87.4437 44.5273 84.6577 44.9298 81.4087C37.6178 76.8801 29.8603 73.4057 22.6303 68.3932ZM137.635 12.4827C155.518 33.3687 173.279 54.1112 191.017 74.8267C194.431 74.0122 197.279 74.8492 199.764 76.9917C207.728 72.6772 215.56 68.4347 223.504 64.1317C221.048 60.7682 218.192 58.3782 214.887 56.4717C189.898 42.0522 164.916 27.6197 139.924 13.2062C139.295 12.8427 138.747 12.1582 137.635 12.4827ZM126.814 215.898C126.814 222.241 126.773 228.566 126.829 234.889C126.863 238.771 129.826 240.924 133.33 239.603C135.159 238.913 136.944 238.046 138.641 237.07C151.982 229.403 165.296 221.689 178.62 213.991C189.686 207.598 200.758 201.214 211.809 194.795C212.396 194.454 213.322 194.379 213.435 193.111C186.408 199.014 159.494 204.893 132.662 210.753C131.264 212.924 129.777 214.774 126.814 215.898ZM35.0568 193.072C35.0198 193.287 34.9828 193.502 34.9458 193.718C58.8803 207.521 82.8163 221.321 106.747 235.131C110.004 237.011 113.185 239.051 116.847 240.089C119.172 240.747 121.464 239.447 121.514 237.101C121.665 229.927 121.569 222.747 121.569 215.645C119.374 214.429 118.001 212.817 116.893 211.163C89.4903 205.105 62.2733 199.089 35.0568 193.072Z" fill="#FAFAFB"/>
<path d="M126.72 199.476C124.731 199.567 123.002 199.235 121.231 200.153C100.582 162.933 80.0067 125.847 59.4707 88.8303C60.1177 87.7033 60.6702 86.7413 61.2942 85.6543C102.634 85.6543 144.012 85.6543 185.412 85.6543C186.198 86.8583 186.941 87.9968 187.807 89.3243C167.491 125.958 147.123 162.686 126.72 199.476ZM153.079 136.42C156.612 134.986 157.517 132.264 157.576 129.126C157.667 124.332 157.716 119.534 157.624 114.741C157.583 112.623 158.362 111.198 160.052 109.998C161.861 108.714 163.589 107.293 165.214 105.783C166.484 104.603 167.627 103.117 166.477 101.294C165.298 99.4263 163.463 100.087 161.829 100.549C159.911 101.09 158.437 102.465 156.966 103.685C154.74 105.531 152.568 105.852 149.861 104.822C146.032 103.364 142.078 102.235 138.183 100.946C136.125 100.264 134.051 99.8858 131.876 100.29C130.486 100.548 129.296 101.009 128.82 102.698C134.619 105.648 140.383 108.579 146.136 111.505C145.983 111.861 145.957 112.045 145.852 112.149C142.088 115.87 137.416 118.506 133.726 122.327C132.781 123.305 131.582 123.11 130.404 122.483C129.034 121.755 127.846 121.908 126.945 123.643C130.57 125.058 132.26 127.833 132.631 131.686C134.223 130.91 135.16 130.014 134.708 128.393C134.235 126.696 135.193 125.8 136.392 125.04C138.198 123.896 140.061 122.841 141.884 121.723C144.553 120.087 147.208 118.428 150.115 116.627C151.131 123.404 152.077 129.723 153.079 136.42ZM101.4 106.585C100.492 105.659 99.5817 105.895 98.6312 106.091C97.9492 106.993 97.7077 107.922 98.6072 108.802C99.0982 109.283 99.7132 109.505 100.462 109.209C101.755 108.697 101.59 107.71 101.4 106.585ZM121.406 161.995C120.134 162.369 119.498 163.051 119.815 164.295C119.998 165.018 120.534 165.478 121.285 165.53C122.165 165.591 122.783 165.085 123.014 164.289C123.376 163.038 122.676 162.376 121.406 161.995ZM103.417 141.571C102.329 142.312 101.75 143.046 102.384 144.208C102.816 145.001 103.529 145.159 104.326 145.003C105.064 144.859 105.528 144.33 105.587 143.61C105.708 142.137 104.558 141.901 103.417 141.571ZM75.6372 96.0073C75.2172 96.6628 75.1412 97.3633 75.5092 98.1163C76.5417 98.8938 77.5847 99.2738 78.7897 98.2448C78.8507 97.4598 79.1457 96.6143 78.2802 95.8653C77.4642 95.5193 76.5827 95.4828 75.6372 96.0073ZM117.193 97.1683C117.071 96.3138 116.581 95.6043 115.43 95.5988C114.411 95.5943 113.856 96.1583 113.781 97.1608C113.697 98.2933 114.306 99.0033 115.368 99.0843C116.462 99.1683 117.079 98.4788 117.193 97.1683Z" fill="url(#paint0_linear_242_93244)"/>
<path d="M132.83 205.31C132.236 204.187 131.76 203.288 131.173 202.178C133.673 197.651 136.22 193.016 138.789 188.393C153.273 162.328 167.76 136.265 182.251 110.204C185.407 104.527 188.58 98.8589 191.753 93.1914C192.325 92.1699 192.743 90.8689 194.687 91.6274C196.343 96.2409 198.075 101.053 199.798 105.869C207.979 128.731 216.151 151.597 224.347 174.453C225.148 176.685 225.612 178.923 224.861 181.23C223.87 184.275 221.526 185.995 218.584 186.646C198.072 191.184 177.537 195.619 157.012 200.101C149.67 201.704 142.336 203.345 134.997 204.959C134.337 205.104 133.662 205.177 132.83 205.31Z" fill="url(#paint1_linear_242_93244)"/>
<path d="M54.8008 91.2175C57.8218 96.658 60.8813 102.176 63.9478 107.69C81.2333 138.773 98.5273 169.851 115.784 200.95C116.51 202.258 117.932 203.6 116.311 205.548C110.016 204.191 103.626 202.819 97.2398 201.435C77.7373 197.21 58.2333 192.992 38.7363 188.742C35.2438 187.98 31.7793 187.089 28.3058 186.244C23.5663 185.091 21.7233 181.643 23.3613 176.908C28.5463 161.918 33.7543 146.936 38.9483 131.949C43.4013 119.1 47.8393 106.245 52.3128 93.403C52.6508 92.4325 52.6688 91.047 54.8008 91.2175Z" fill="url(#paint2_linear_242_93244)"/>
<path d="M61.3461 80.1999C60.1986 78.9134 60.8521 78.0814 61.6421 77.1774C72.2381 65.0494 82.8166 52.9059 93.3981 40.7649C101.052 31.9834 108.728 23.2209 116.346 14.4089C121.242 8.74643 127.221 8.61693 132.092 14.2864C150.07 35.2094 168.01 56.1634 185.96 77.1104C186.176 77.3629 186.327 77.6709 186.459 77.8769C186.44 78.8049 185.988 79.4264 185.493 80.2004C144.177 80.1999 102.796 80.1999 61.3461 80.1999Z" fill="url(#paint3_linear_242_93244)"/>
<path d="M228.357 170.091C218.746 143.173 209.135 116.256 199.5 89.27C201.128 87.063 202.505 84.8021 201.925 81.9201C210.055 77.5206 218.018 73.211 226.15 68.8105C228.32 72.6075 228.826 76.6755 228.838 80.7345C228.929 110.294 228.912 139.853 228.924 169.412C228.924 169.632 228.846 169.852 228.805 170.073C228.656 170.078 228.507 170.085 228.357 170.091Z" fill="#38A1BD"/>
<path d="M22.6311 68.3965C29.8611 73.409 37.6186 76.8835 44.9306 81.412C44.5276 84.661 45.5666 87.447 48.0931 89.7185C38.8456 116.487 29.6191 143.193 20.3931 169.899C20.1946 169.858 19.9961 169.816 19.7981 169.775C19.7981 168.969 19.7976 168.163 19.7981 167.356C19.8101 138.575 19.8131 109.793 19.8446 81.0115C19.8491 76.6245 20.6356 72.3885 22.6311 68.3965Z" fill="url(#paint4_linear_242_93244)"/>
<path d="M137.634 12.4812C138.746 12.1572 139.293 12.8412 139.923 13.2042C164.916 27.6182 189.897 42.0507 214.886 56.4697C218.191 58.3762 221.047 60.7667 223.503 64.1297C215.559 68.4327 207.727 72.6752 199.763 76.9897C197.278 74.8472 194.43 74.0102 191.016 74.8247C173.279 54.1097 155.517 33.3667 137.634 12.4812Z" fill="#3AA7BC"/>
<path d="M110.356 12.912C105.467 19.1885 100.014 24.9815 94.8404 31.0135C91.1819 35.2785 87.4814 39.507 83.7944 43.7475C75.8969 52.831 67.9849 61.9025 60.1089 71.0045C58.9489 72.345 57.4219 73.345 56.5369 75.167C53.2654 73.974 50.2799 74.538 47.4329 76.7365C41.0469 73.157 34.6369 69.594 28.2644 65.9655C27.0949 65.2995 26.5004 64.138 26.4609 62.621C28.3564 60.1265 30.8079 58.163 33.5604 56.5735C58.7364 42.0365 83.9204 27.514 109.106 12.994C109.399 12.8255 109.742 12.745 110.062 12.623C110.159 12.7205 110.257 12.8165 110.356 12.912Z" fill="#3A74B3"/>
<path d="M126.814 215.898C129.777 214.773 131.264 212.924 132.663 210.753C159.495 204.892 186.408 199.014 213.435 193.111C213.322 194.379 212.397 194.454 211.81 194.795C200.759 201.214 189.687 207.598 178.621 213.991C165.297 221.689 151.983 229.403 138.641 237.07C136.944 238.045 135.16 238.913 133.33 239.603C129.827 240.924 126.863 238.771 126.829 234.889C126.774 228.565 126.814 222.241 126.814 215.898Z" fill="#426197"/>
<path d="M35.0583 193.072C62.2753 199.089 89.4918 205.105 116.895 211.162C118.002 212.816 119.376 214.428 121.57 215.644C121.57 222.746 121.667 229.926 121.515 237.1C121.466 239.446 119.173 240.746 116.848 240.088C113.187 239.05 110.006 237.01 106.748 235.13C82.8178 221.32 58.8818 207.52 34.9473 193.717C34.9843 193.503 35.0213 193.287 35.0583 193.072Z" fill="url(#paint5_linear_242_93244)"/>
<path d="M110.064 12.6241C110.237 12.5391 110.409 12.4536 111.081 12.1211C110.592 12.6561 110.475 12.7841 110.357 12.9126C110.259 12.8176 110.161 12.7216 110.064 12.6241Z" fill="#3786BA"/>
<path d="M153.079 136.418C152.077 129.721 151.131 123.402 150.116 116.624C147.209 118.426 144.554 120.084 141.885 121.72C140.062 122.838 138.199 123.893 136.393 125.037C135.194 125.797 134.236 126.693 134.709 128.39C135.161 130.011 134.224 130.907 132.632 131.683C132.261 127.83 130.571 125.056 126.946 123.64C127.847 121.905 129.035 121.752 130.405 122.48C131.583 123.107 132.782 123.302 133.727 122.324C137.417 118.503 142.089 115.867 145.853 112.146C145.958 112.042 145.985 111.858 146.137 111.502C140.384 108.576 134.62 105.645 128.821 102.695C129.297 101.006 130.487 100.545 131.877 100.287C134.051 99.8833 136.125 100.261 138.184 100.943C142.079 102.232 146.033 103.361 149.862 104.819C152.569 105.849 154.741 105.528 156.967 103.682C158.438 102.462 159.912 101.087 161.83 100.546C163.464 100.084 165.299 99.4238 166.478 101.291C167.628 103.114 166.485 104.6 165.215 105.78C163.59 107.29 161.862 108.711 160.053 109.995C158.362 111.195 157.584 112.62 157.625 114.738C157.718 119.531 157.668 124.329 157.577 129.123C157.517 132.261 156.612 134.983 153.079 136.418Z" fill="#FAFAFB"/>
<path d="M101.399 106.584C101.589 107.708 101.754 108.695 100.461 109.208C99.7118 109.505 99.0968 109.282 98.6057 108.801C97.7062 107.921 97.9477 106.992 98.6297 106.089C99.5808 105.894 100.491 105.658 101.399 106.584Z" fill="#FAFAFB"/>
<path d="M121.406 161.996C122.676 162.377 123.376 163.039 123.014 164.29C122.784 165.086 122.166 165.592 121.285 165.531C120.534 165.479 119.998 165.019 119.815 164.296C119.498 163.052 120.134 162.37 121.406 161.996Z" fill="#FAFAFB"/>
<path d="M103.416 141.574C104.558 141.904 105.708 142.14 105.587 143.613C105.528 144.333 105.063 144.862 104.325 145.006C103.528 145.162 102.815 145.004 102.383 144.211C101.749 143.049 102.328 142.315 103.416 141.574Z" fill="#FAFAFB"/>
<path d="M75.6351 96.0081C76.5811 95.4836 77.4622 95.5201 78.2787 95.8656C79.1443 96.6152 78.8488 97.4602 78.7883 98.2453C77.5832 99.2743 76.5396 98.8943 75.5076 98.1168C75.1385 97.3642 75.215 96.6637 75.6351 96.0081Z" fill="#FAFAFB"/>
<path d="M117.191 97.1707C117.077 98.4813 116.459 99.1708 115.366 99.0873C114.304 99.0063 113.695 98.2963 113.779 97.1637C113.854 96.1606 114.409 95.5966 115.428 95.6016C116.579 95.6061 117.069 96.3156 117.191 97.1707Z" fill="#FAFAFB"/>
<defs>
<linearGradient id="paint0_linear_242_93244" x1="66.1206" y1="191.347" x2="134.46" y2="71.7859" gradientUnits="userSpaceOnUse">
<stop stop-color="#4F3F60"/>
<stop offset="0.514" stop-color="#3F659F"/>
<stop offset="0.9995" stop-color="#3BAABC"/>
</linearGradient>
<linearGradient id="paint1_linear_242_93244" x1="141.677" y1="170.151" x2="229.913" y2="127.627" gradientUnits="userSpaceOnUse">
<stop stop-color="#3F659F"/>
<stop offset="1" stop-color="#3698BC"/>
</linearGradient>
<linearGradient id="paint2_linear_242_93244" x1="21.3552" y1="187.704" x2="85.5624" y2="148.048" gradientUnits="userSpaceOnUse">
<stop stop-color="#4E4365"/>
<stop offset="1" stop-color="#3F659E"/>
</linearGradient>
<linearGradient id="paint3_linear_242_93244" x1="60.7265" y1="45.1489" x2="186.459" y2="45.1489" gradientUnits="userSpaceOnUse">
<stop stop-color="#3B71AE"/>
<stop offset="0.9995" stop-color="#379DBC"/>
</linearGradient>
<linearGradient id="paint4_linear_242_93244" x1="1.68978" y1="166.442" x2="32.4547" y2="92.9252" gradientUnits="userSpaceOnUse">
<stop stop-color="#4E4365"/>
<stop offset="1" stop-color="#3F659E"/>
</linearGradient>
<linearGradient id="paint5_linear_242_93244" x1="35.6098" y1="210.281" x2="121.875" y2="223.787" gradientUnits="userSpaceOnUse">
<stop stop-color="#4E4365"/>
<stop offset="1" stop-color="#3F659E"/>
</linearGradient>
</defs>
</svg>
