<svg width="250" height="250" viewBox="0 0 250 250" fill="none" xmlns="http://www.w3.org/2000/svg">
<g clip-path="url(#clip0_242_94708)">
<path d="M125.001 250C194.037 250 250.001 194.036 250.001 125C250.001 55.9644 194.037 0 125.001 0C55.9654 0 0.000976562 55.9644 0.000976562 125C0.000976562 194.036 55.9654 250 125.001 250Z" fill="#EDF0F4"/>
<path d="M125.002 200C166.423 200 200.002 166.421 200.002 125C200.002 83.5786 166.423 50 125.002 50C83.5806 50 50.002 83.5786 50.002 125C50.002 166.421 83.5806 200 125.002 200Z" fill="#0092B5"/>
<path fill-rule="evenodd" clip-rule="evenodd" d="M100.676 114.467L86.2061 88.6857C96.0686 83.4497 108.308 80.7027 122.933 80.4688L103.423 114.809C102.562 114.423 101.606 114.304 100.676 114.467ZM125.196 80.7687L105.124 116.103H105.119C106.574 117.858 106.505 120.418 104.96 122.094L123.115 154.433C124.395 153.84 125.874 153.85 127.146 154.461L144.785 122.642C143.672 121.793 143.009 120.48 142.986 119.08C142.963 117.68 143.583 116.346 144.668 115.461L125.571 80.7687C125.308 80.6607 125.233 80.7032 125.196 80.7687ZM121.428 155.754L103.203 123.293V123.298C102.463 123.582 101.664 123.679 100.878 123.579L89.1966 144.139C90.3161 146.496 91.6401 148.752 93.1526 150.879C96.7291 151.718 105.87 153.898 120.584 157.423C120.747 156.814 121.034 156.246 121.428 155.754ZM96.8081 119.102C96.7766 117.597 97.4866 116.172 98.7071 115.291L84.3776 89.7632C83.3196 90.6097 82.7391 91.9172 82.8211 93.2697L84.9916 127.873C85.2881 132.627 86.3486 137.302 88.1321 141.72L98.8666 122.829C97.6096 122 96.8401 120.607 96.8081 119.102ZM129.645 157.47C129.488 156.865 129.209 156.299 128.825 155.806L146.722 123.523C147.494 123.678 148.293 123.64 149.047 123.411L160.644 144.476C159.659 146.501 158.525 148.451 157.25 150.312L129.645 157.47ZM129.673 159.631C129.263 161.359 127.904 162.703 126.172 163.095V174.167C126.576 174.052 126.961 173.878 127.315 173.651L144.298 162.804C148.458 160.154 152.157 156.841 155.248 152.998L129.673 159.631ZM124.043 163.1V174.219C123.561 174.11 123.101 173.918 122.684 173.652L105.701 162.805C101.73 160.274 98.1776 157.139 95.1726 153.514C99.8131 154.616 108.265 156.631 120.527 159.566C120.902 161.314 122.28 162.697 124.043 163.1ZM146.571 114.523C147.447 114.315 148.364 114.36 149.215 114.654L163.653 88.6152C153.992 83.5107 142.048 80.7962 127.835 80.4822L146.571 114.523ZM151.01 115.784L165.495 89.6657C166.631 90.5042 167.266 91.8602 167.182 93.2702L165.012 127.878C164.706 132.753 163.597 137.544 161.73 142.058L150.884 122.356C151.792 121.513 152.319 120.337 152.343 119.097C152.367 117.858 151.886 116.662 151.01 115.784ZM122.464 105.162C122.504 103.784 123.621 102.681 125 102.659L125.005 102.664C126.38 102.688 127.494 103.788 127.536 105.162V114.322L141.064 122.656L139.409 125.994L127.536 121.822V130.981L130.92 133.48V135.978L125 134.314L119.08 135.983V133.484L122.464 130.986V121.826L110.384 125.783L108.936 122.656L122.464 114.322V105.162Z" fill="white"/>
</g>
<defs>
<clipPath id="clip0_242_94708">
<rect width="250" height="250" fill="white"/>
</clipPath>
</defs>
</svg>
