<svg width="250" height="250" viewBox="0 0 250 250" fill="none" xmlns="http://www.w3.org/2000/svg">
<path d="M95.79 197.559H35.3103C25.2093 197.559 18.3912 187.29 22.3053 177.989C25.4198 170.582 29.881 162.753 34.3423 156.482C59.5106 121.255 86.4887 104.631 116.034 104.631C164.771 104.631 208.458 164.226 208.837 164.858L195.032 174.201C187.036 163.048 149.957 121.718 115.992 121.718C92.2546 121.718 69.4432 136.743 48.1891 166.415C44.8642 171.045 42.1285 176.095 40.0241 180.514H87.7934L72.0527 158.25L85.9836 148.402L106.312 177.189C112.415 185.733 106.27 197.559 95.79 197.559Z" fill="url(#paint0_linear_242_93245)"/>
<path d="M115.401 42.2565L198.566 180.092H166.032C163.633 180.092 161.36 178.872 160.056 176.851L99.4498 84.3437C98.103 82.2393 97.8925 79.6299 98.9447 77.3572L115.401 42.2565ZM113.549 6.10352L99.9548 35.0174L83.4565 70.1182C79.9212 77.6939 80.5525 86.7427 85.14 93.7291L145.746 186.237C150.249 193.097 157.825 197.18 166.032 197.18H198.566H228.785L213.17 171.296L130.005 33.4181L113.549 6.10352Z" fill="url(#paint1_linear_242_93245)"/>
<defs>
<linearGradient id="paint0_linear_242_93245" x1="21.167" y1="151.101" x2="208.823" y2="151.101" gradientUnits="userSpaceOnUse">
<stop stop-color="#0EAFE5"/>
<stop offset="1" stop-color="#23469B"/>
</linearGradient>
<linearGradient id="paint1_linear_242_93245" x1="81.1845" y1="101.625" x2="228.808" y2="101.625" gradientUnits="userSpaceOnUse">
<stop stop-color="#0EAFE5"/>
<stop offset="0.8539" stop-color="#273791"/>
</linearGradient>
</defs>
</svg>
