<svg width="250" height="250" viewBox="0 0 250 250" fill="none" xmlns="http://www.w3.org/2000/svg">
<rect width="250" height="250" rx="125" fill="white"/>
<path d="M29.5052 68.9844C9.46503 103.645 9.46503 146.323 29.3923 181.04L61.8518 162.468C48.5293 139.379 48.4728 110.928 61.7389 87.7826" fill="#28D2FF"/>
<path d="M126.601 199.896C99.8992 199.896 75.23 185.67 61.8511 162.525L29.3916 181.098C49.4318 215.872 86.4638 237.323 126.601 237.267V199.896Z" fill="#9BFF8C"/>
<path d="M191.121 162.916C177.686 185.835 153.13 199.892 126.598 199.892V237.262C166.565 237.262 203.541 215.98 223.581 181.376" fill="#A06EFF"/>
<path d="M145.234 31.6697C145.234 21.3956 136.936 13.0408 126.661 12.9844H126.379C86.4116 13.0973 49.4925 34.4359 29.5088 68.984L61.7424 87.8387C75.0649 64.6373 99.7906 50.3551 126.548 50.3551C136.823 50.3551 145.177 41.9439 145.177 31.6697H145.234Z" fill="#A06EFF"/>
<path d="M45.7039 97.1539C56.0236 97.1539 64.3893 88.7882 64.3893 78.4686C64.3893 68.1489 56.0236 59.7832 45.7039 59.7832C35.3843 59.7832 27.0186 68.1489 27.0186 78.4686C27.0186 88.7882 35.3843 97.1539 45.7039 97.1539Z" fill="#8C19FF"/>
<path d="M45.6492 190.636C55.9689 190.636 64.3346 182.271 64.3346 171.951C64.3346 161.631 55.9689 153.266 45.6492 153.266C35.3296 153.266 26.9639 161.631 26.9639 171.951C26.9639 182.271 35.3296 190.636 45.6492 190.636Z" fill="#0078FF"/>
<path d="M126.884 237.267C137.203 237.267 145.569 228.901 145.569 218.582C145.569 208.262 137.203 199.896 126.884 199.896C116.564 199.896 108.198 208.262 108.198 218.582C108.198 228.901 116.564 237.267 126.884 237.267Z" fill="#00DC32"/>
<path d="M224.321 70.1133C224.096 69.7181 223.926 69.323 223.7 68.8713C223.7 68.8713 223.7 68.8149 223.7 68.7584C218.168 60.0085 206.652 57.4117 197.902 62.944C189.547 68.2504 186.725 79.089 191.523 87.7825C204.846 111.097 204.733 139.661 191.241 162.806L223.7 181.322C243.628 147 243.853 104.661 224.434 70.0568L224.321 70.1133Z" fill="#28D2FF"/>
<path d="M207.381 190.806C217.7 190.806 226.066 182.441 226.066 172.121C226.066 161.801 217.7 153.436 207.381 153.436C197.061 153.436 188.695 161.801 188.695 172.121C188.695 182.441 197.061 190.806 207.381 190.806Z" fill="#8C19FF"/>
</svg>
