<svg width="250" height="250" viewBox="0 0 250 250" fill="none" xmlns="http://www.w3.org/2000/svg">
<g clip-path="url(#clip0_242_94720)">
<path d="M125 250C194.036 250 250 194.036 250 125C250 55.9644 194.036 0 125 0C55.9644 0 0 55.9644 0 125C0 194.036 55.9644 250 125 250Z" fill="#00688C"/>
<path fill-rule="evenodd" clip-rule="evenodd" d="M210.416 78.6726V177.662L210.408 177.67L124.871 227.083L124.864 227.075L39.583 177.694V78.7271L124.794 29.2285L124.91 29.166L210.416 78.6726ZM172.567 161.833L157.99 153.432L125.447 172.421C125.255 172.534 125.017 172.534 124.825 172.421L87.488 150.667L87.4725 112.822L54.6735 93.9196L124.592 52.7161C124.649 52.6811 124.721 52.6811 124.779 52.7161L189.716 90.0376L178.231 96.7156L124.81 65.8151L77.433 93.7711L93.8675 103.262L124.84 85.1556L124.856 85.1401L162.698 106.894L162.682 142.903L194.938 161.47L194.93 162.016L124.871 203.134L59.926 165.86L71.2945 159.165L124.763 189.996L172.567 161.833Z" fill="white"/>
<path d="M135.168 118.877V118.611L135.16 118.439L135.152 118.346L135.136 118.15V118.088L135.113 117.877V117.822L135.082 117.604V117.565L135.051 117.338V117.307L135.012 117.073L135.004 117.057L134.958 116.823L134.95 116.799L134.896 116.565V116.549C134.881 116.47 134.863 116.392 134.841 116.315V116.299L134.771 116.065V116.057L134.701 115.807C134.66 115.648 134.608 115.491 134.546 115.338V115.331L134.453 115.096C134.424 115.017 134.393 114.939 134.359 114.862L134.258 114.628L134.157 114.409L134.049 114.175L133.94 113.956L133.815 113.737C133.773 113.668 133.732 113.597 133.691 113.526V113.519L133.567 113.315L133.559 113.308C133.517 113.241 133.473 113.176 133.427 113.112V113.097L133.295 112.909C133.295 112.909 133.295 112.894 133.279 112.894L133.147 112.706L133.132 112.691C133.085 112.628 133.054 112.566 133 112.503L132.992 112.487L132.844 112.308L132.829 112.292L132.689 112.12L132.673 112.105L132.518 111.941C132.511 111.934 132.506 111.926 132.502 111.917L132.355 111.753C132.348 111.746 132.343 111.738 132.339 111.73L132.191 111.574C132.132 111.514 132.072 111.454 132.013 111.394L131.989 111.37L131.834 111.214C131.774 111.162 131.715 111.11 131.655 111.058L131.632 111.035C131.579 110.984 131.524 110.934 131.469 110.886L131.445 110.863C131.392 110.817 131.338 110.773 131.282 110.73L131.259 110.714L131.088 110.574L131.065 110.558L130.886 110.425L130.863 110.41L130.684 110.277L130.661 110.261L130.482 110.136L130.459 110.129L130.272 110.004L130.257 109.988L130.062 109.871H130.047L129.845 109.746H129.829L129.619 109.621H129.612C124.458 107.433 118.506 109.723 116.121 114.81C113.737 119.897 115.771 125.969 120.73 128.57L116.223 149.285H133.272L128.726 128.586C132.627 126.946 135.168 123.118 135.168 118.877Z" fill="white"/>
</g>
<defs>
<clipPath id="clip0_242_94720">
<rect width="250" height="250" fill="white"/>
</clipPath>
</defs>
</svg>
