<svg width="250" height="250" viewBox="0 0 250 250" fill="none" xmlns="http://www.w3.org/2000/svg">
<path d="M244.4 216.452L207.85 127.002C204.2 118.052 195.5 112.252 185.85 112.252H99.3496L132.05 33.2016C137.05 21.1016 131.3 7.20156 119.2 2.15156C107.05 -2.84844 93.1996 2.90156 88.1496 15.0016L4.8996 216.352C-0.100395 228.452 5.6496 242.352 17.7496 247.402C20.6996 248.652 23.7996 249.202 26.7996 249.202C36.1496 249.202 44.9996 243.652 48.7496 234.502L79.6496 159.752H169.85L200.35 234.402C204.1 243.602 213 249.152 222.35 249.152C225.35 249.152 228.4 248.602 231.35 247.402C243.55 242.452 249.35 228.552 244.4 216.452Z" fill="#0086FF"/>
<path d="M159.75 97.1492C173.199 97.1492 184.1 86.2474 184.1 72.7992C184.1 59.3511 173.199 48.4492 159.75 48.4492C146.302 48.4492 135.4 59.3511 135.4 72.7992C135.4 86.2474 146.302 97.1492 159.75 97.1492Z" fill="#FFC300"/>
</svg>
