<svg width="250" height="250" viewBox="0 0 250 250" fill="none" xmlns="http://www.w3.org/2000/svg">
<g clip-path="url(#clip0_242_94729)">
<path d="M125 250C194.036 250 250 194.036 250 125C250 55.9644 194.036 0 125 0C55.9644 0 0 55.9644 0 125C0 194.036 55.9644 250 125 250Z" fill="#EDF0F4"/>
<path d="M63.7617 72.1798C63.7617 72.3143 63.7767 72.4468 63.7817 72.5813V71.8008C63.7742 71.9283 63.7617 72.0528 63.7617 72.1798Z" fill="#008C98"/>
<path d="M188.477 71.798C188.477 71.722 188.477 71.6455 188.464 71.572C188.234 65.306 183.057 60.3625 176.787 60.423H176.716H176.642H135.757L176.075 156.604H167.636L135.405 81.0585H116.988L93.0105 137.674H84.571L112.019 73.265H132.354L126.96 60.436L76.2055 60.451C75.9845 60.4385 75.761 60.418 75.537 60.418C75.3135 60.418 75.082 60.4385 74.856 60.451C68.88 60.6945 64.0785 65.4605 63.791 71.4345V72.197L63.918 146.085C63.577 152.499 66.4885 158.653 71.6635 162.458L73.7475 163.63L79.795 148.818H101.277L107.799 133.971H119.693L113.936 119.482L126.213 90.1585L154.792 156.609H146.149L126.391 110.577L122.555 119.474L131.571 141.751H112.782L106.452 156.784H85.354L80.621 167.46L82.614 168.576L117.947 188.04C122.806 190.724 128.703 190.724 133.562 188.04L181.967 161.095C188.62 157.471 188.391 146.144 188.391 146.144L188.47 72.009C188.464 71.9585 188.477 71.8795 188.477 71.798Z" fill="#008C98"/>
</g>
<defs>
<clipPath id="clip0_242_94729">
<rect width="250" height="250" fill="white"/>
</clipPath>
</defs>
</svg>
