<svg width="250" height="250" viewBox="0 0 250 250" fill="none" xmlns="http://www.w3.org/2000/svg">
<rect width="250" height="250" rx="125" fill="white"/>
<g clip-path="url(#clip0_242_94647)">
<path d="M125.11 81.9859L79.6289 185.107C78.1102 188.413 77.3457 191.096 74.0602 191.096H44.0047C39.6966 191.096 37.3223 189.917 39.4131 185.107L112.864 16.2353C114.382 13.4307 115.299 11.3652 118.604 11.3652H131.615C134.916 11.3652 135.847 13.4256 137.351 16.2353L210.806 185.107C212.897 189.917 210.523 191.096 206.22 191.096H176.179C172.868 191.096 172.094 188.413 170.611 185.107L125.11 81.9859Z" fill="black"/>
<path d="M125.171 238.667L95.1309 178.586H154.204L125.171 238.667Z" fill="#32FEFF"/>
</g>
<defs>
<clipPath id="clip0_242_94647">
<rect width="172.937" height="227.302" fill="white" transform="translate(38.6406 11.3652)"/>
</clipPath>
</defs>
</svg>
