<svg width="250" height="250" viewBox="0 0 250 250" fill="none" xmlns="http://www.w3.org/2000/svg">
<g clip-path="url(#clip0_242_94069)">
<path d="M124.996 250.002C194.032 250.002 249.996 194.038 249.996 125.002C249.996 55.9664 194.032 0.00195312 124.996 0.00195312C55.9605 0.00195312 -0.00390625 55.9664 -0.00390625 125.002C-0.00390625 194.038 55.9605 250.002 124.996 250.002Z" fill="#346FCE"/>
<path fill-rule="evenodd" clip-rule="evenodd" d="M157.496 146.144L164.965 160.183C169.213 168.175 170.113 177.527 167.468 186.183C164.822 194.839 158.846 202.089 150.855 206.34L149.887 206.855C145.929 208.96 141.596 210.265 137.134 210.695C132.672 211.125 128.169 210.672 123.882 209.362C119.596 208.052 115.609 205.91 112.15 203.059C108.691 200.208 105.827 196.704 103.723 192.746L78.5429 145.386C74.4491 137.688 73.4567 128.714 75.7695 120.307C78.0823 111.9 83.5249 104.697 90.9804 100.176L83.5117 86.1364C79.2638 78.1435 78.3647 68.7907 81.0122 60.1349C83.6596 51.4792 89.6367 44.2294 97.6288 39.9802L98.5976 39.4646C106.59 35.2161 115.942 34.3159 124.597 36.9618C133.253 39.6077 140.503 45.5831 144.754 53.5739L169.934 100.933C174.028 108.631 175.022 117.604 172.71 126.011C170.399 134.418 164.958 141.622 157.504 146.144H157.496ZM157.496 146.144L139.785 112.824C135.535 104.833 128.284 98.8577 119.629 96.2118C110.973 93.5659 101.621 94.4661 93.6288 98.7146L92.6601 99.2224C92.0898 99.5349 91.5273 99.8474 90.9804 100.176L108.699 133.496C112.95 141.487 120.2 147.462 128.856 150.108C137.511 152.754 146.863 151.854 154.855 147.605L155.824 147.097C156.394 146.785 156.957 146.472 157.504 146.144H157.496Z" fill="white"/>
</g>
<defs>
<clipPath id="clip0_242_94069">
<rect width="250" height="250" rx="125" fill="white"/>
</clipPath>
</defs>
</svg>
