<svg width="250" height="250" viewBox="0 0 250 250" fill="none" xmlns="http://www.w3.org/2000/svg">
<path d="M124.891 247.494C192.782 247.494 247.818 192.458 247.818 124.567C247.818 56.6767 192.782 1.64062 124.891 1.64062C57.0009 1.64062 1.96484 56.6767 1.96484 124.567C1.96484 192.458 57.0009 247.494 124.891 247.494Z" fill="#2B9FDA"/>
<path d="M153.838 161.258C133.676 161.258 113.589 161.258 93.1679 161.258C88.9659 169.194 84.6859 177.026 80.6649 184.988C78.8859 188.511 76.4164 190.588 72.4599 190.962C64.3909 191.724 50.1889 191.765 47.5529 189.728C44.2959 187.082 59.3594 161.342 59.3594 161.342L48.0544 161.393C48.0544 161.393 48.0024 150.721 48.0024 145.612C55.0554 145.612 61.6404 145.612 68.4109 145.612C69.6054 143.407 71.9234 139.13 71.9234 139.13L48.0034 139.114C48.0034 139.114 48.0034 128.418 48.0034 123.308C59.3269 123.308 70.1359 123.308 80.9969 123.308C84.8439 116.421 88.4239 110.066 91.9534 103.682C103.204 83.3319 114.516 63.0134 125.617 42.5814C128.24 37.7554 131.929 35.2709 137.282 35.2324C145.09 35.1764 152.906 35.0434 160.704 35.3299C168.288 35.6084 169.538 37.2024 170.578 44.5349C174.918 75.1094 179.414 105.661 183.773 136.233C185.997 151.835 188.206 167.443 190.109 183.086C190.862 189.282 189.099 191.28 183.044 191.59C176.723 191.914 170.369 191.715 164.033 191.577C160.011 191.49 157.989 189.409 157.575 185.204C156.858 177.931 155.693 170.701 154.691 163.457C154.628 162.995 154.354 162.563 153.838 161.258ZM149.762 122.683C147.456 104.269 145.215 86.3794 142.974 68.4894C142.631 68.4004 142.288 68.3114 141.945 68.2219C132.527 86.1644 123.108 104.107 113.357 122.683C125.831 122.683 137.361 122.683 149.762 122.683ZM101.787 145.068C119.179 145.068 135.581 145.068 152.491 145.068C152.119 142.84 151.839 141.167 151.496 139.113C135.811 139.113 120.496 139.113 104.885 139.113C103.937 140.937 103.002 142.734 101.787 145.068Z" fill="white"/>
</svg>
