<svg width="250" height="250" viewBox="0 0 250 250" fill="none" xmlns="http://www.w3.org/2000/svg">
<g clip-path="url(#clip0_242_94737)">
<path d="M125 250C194.036 250 250 194.036 250 125C250 55.9644 194.036 0 125 0C55.9644 0 0 55.9644 0 125C0 194.036 55.9644 250 125 250Z" fill="#E41B23"/>
<path d="M91.596 155.64C97.7635 150.386 103.303 144.104 106.844 136.737C109.014 132.112 110.727 127.315 111.584 122.289C112.783 115.037 113.24 107.67 113.639 100.303C113.868 95.221 113.982 90.1385 113.982 84.999V66.668H106.158C106.158 69.6945 106.158 72.721 106.158 75.748C105.93 84.7135 105.416 93.6795 104.046 102.531C102.961 109.498 101.419 116.465 98.506 122.86C95.9935 128.457 92.738 133.768 88.6265 138.279C84.629 142.733 79.8895 146.445 74.6355 149.244C70.181 151.585 65.3845 153.355 60.416 154.098V169.459C64.5275 168.888 68.582 167.86 72.5225 166.49C79.3755 164.091 86.057 160.551 91.596 155.64Z" fill="white"/>
<path d="M117.012 136.739C117.012 147.647 116.955 158.611 117.069 169.518C121.809 169.461 126.606 169.518 131.403 169.518V66.7266C126.606 66.7266 121.809 66.7266 117.012 66.7266C117.012 90.0261 117.012 113.383 117.012 136.739Z" fill="white"/>
<path d="M181.937 152.67C174.742 150.329 168.118 146.388 162.635 141.134C156.925 135.709 152.528 128.914 149.501 121.661C146.303 114.123 144.875 106.014 143.847 97.9625C142.591 87.569 142.248 77.1185 142.305 66.668H134.539V83.5145C134.482 93.451 134.825 103.387 135.681 113.267C136.138 117.835 136.652 122.461 137.851 126.915C139.05 131.369 140.821 135.652 143.105 139.707C146.017 144.846 149.901 149.415 154.241 153.469C156.868 155.868 159.609 158.209 162.635 160.151C166.747 162.835 171.258 164.948 175.941 166.547C179.882 167.86 183.879 168.945 187.991 169.459C187.991 164.32 187.991 159.237 187.991 154.098C185.992 153.812 183.936 153.298 181.937 152.67Z" fill="white"/>
</g>
<defs>
<clipPath id="clip0_242_94737">
<rect width="250" height="250" fill="white"/>
</clipPath>
</defs>
</svg>
