<svg width="250" height="250" viewBox="0 0 250 250" fill="none" xmlns="http://www.w3.org/2000/svg">
<g clip-path="url(#clip0_242_94754)">
<path d="M125 250C194.036 250 250 194.036 250 125C250 55.9644 194.036 0 125 0C55.9644 0 0 55.9644 0 125C0 194.036 55.9644 250 125 250Z" fill="black"/>
<path d="M153.449 134.666C156.088 133.634 159.064 134.937 160.096 137.576C161.105 140.156 159.882 143.059 157.36 144.151L157.186 144.223L95.6174 168.298C92.9784 169.33 90.0029 168.027 88.9709 165.388C87.9619 162.807 89.1849 159.905 91.7069 158.812L91.8804 158.741L153.449 134.666Z" fill="white"/>
<path d="M153.449 107.434C156.088 106.402 159.064 107.704 160.096 110.343C161.105 112.924 159.882 115.826 157.36 116.919L157.186 116.99L95.6174 141.065C92.9784 142.097 90.0029 140.794 88.9709 138.155C87.9619 135.575 89.1849 132.672 91.7069 131.58L91.8804 131.508L153.449 107.434Z" fill="white"/>
<path d="M153.449 80.1975C156.088 79.1655 159.064 80.4685 160.096 83.1075C161.105 85.6875 159.882 88.59 157.36 89.6825L157.186 89.754L95.6174 113.829C92.9784 114.861 90.0029 113.558 88.9709 110.919C87.9619 108.338 89.1849 105.436 91.7069 104.344L91.8804 104.272L153.449 80.1975Z" fill="white"/>
<path d="M157.292 165.494C160.126 165.494 162.423 167.792 162.423 170.625C162.423 173.397 160.224 175.656 157.476 175.753L157.292 175.756H129.271C126.437 175.756 124.14 173.459 124.14 170.625C124.14 167.853 126.338 165.595 129.087 165.498L129.271 165.494H157.292Z" fill="white"/>
<path d="M121.772 72.3477C124.605 72.3477 126.902 74.6447 126.902 77.4787C126.902 80.2507 124.704 82.5092 121.956 82.6062L121.772 82.6092H93.7501C90.9161 82.6092 88.6191 80.3122 88.6191 77.4787C88.6191 74.7067 90.8176 72.4482 93.5661 72.3512L93.7501 72.3477H121.772Z" fill="white"/>
</g>
<defs>
<clipPath id="clip0_242_94754">
<rect width="250" height="250" fill="white"/>
</clipPath>
</defs>
</svg>
