<svg width="250" height="250" viewBox="0 0 250 250" fill="none" xmlns="http://www.w3.org/2000/svg">
<rect width="250" height="250" rx="125" fill="url(#paint0_linear_242_93253)"/>
<path d="M106.679 144.556H103.35C101.959 144.556 100.711 145.265 100.047 146.423L84.8627 172.493C83.1845 175.401 85.3563 179.009 88.7756 179.009H196.315C199.905 179.009 202.167 175.257 200.372 172.242L192.779 159.211L181.481 139.719L177.801 133.374L173.108 125.333C173.108 125.333 173.108 125.333 173.099 125.342L124.144 41.2164C122.438 38.2818 118.122 38.2549 116.381 41.1895L113.41 46.1613L102.605 64.2716L93.4512 79.6177C93.4512 79.6177 93.4692 79.6267 93.4781 79.6357L84.7102 94.3177C84.7909 94.3357 84.8538 94.3716 84.9256 94.4074C84.8448 94.3895 84.764 94.3626 84.6833 94.3446L67.9999 122.273C67.9999 122.273 67.9999 122.273 68.0089 122.273L61.5653 133.051C60.0307 135.618 61.9422 138.804 64.9576 138.804H94.7704C96.1884 138.804 97.4627 138.041 98.1627 136.856L99.8051 133.966C99.8051 133.966 99.8051 133.975 99.814 133.984L107.81 119.993L114.792 107.725L115.313 106.819C116.991 103.884 121.335 103.884 123.022 106.819L141.913 139.97C142.9 141.747 141.913 143.838 140.118 144.395C139.831 144.511 139.481 144.565 139.131 144.565H123.228C123.228 144.565 123.21 144.547 123.201 144.538H106.742" fill="white"/>
<defs>
<linearGradient id="paint0_linear_242_93253" x1="229" y1="57" x2="26" y2="201" gradientUnits="userSpaceOnUse">
<stop offset="0.0625" stop-color="#D000D2"/>
<stop offset="0.494792" stop-color="#7A1AC4"/>
<stop offset="0.947917" stop-color="#2B0F90"/>
</linearGradient>
</defs>
</svg>
