<svg width="250" height="250" viewBox="0 0 250 250" fill="none" xmlns="http://www.w3.org/2000/svg">
<g clip-path="url(#clip0_242_94048)">
<mask id="mask0_242_94048" style="mask-type:luminance" maskUnits="userSpaceOnUse" x="0" y="0" width="250" height="251">
<path d="M250 0.00390625H0V250.004H250V0.00390625Z" fill="white"/>
</mask>
<g mask="url(#mask0_242_94048)">
<g filter="url(#filter0_d_242_94048)">
<path d="M220.702 124.996C220.702 72.1407 177.854 29.293 124.999 29.293C72.1436 29.293 29.2959 72.1407 29.2959 124.996C29.2959 177.851 72.1436 220.699 124.999 220.699C177.854 220.699 220.702 177.851 220.702 124.996Z" fill="white"/>
<path d="M220.556 124.996C220.556 72.2216 177.773 29.4394 124.999 29.4394C72.2245 29.4394 29.4424 72.2216 29.4424 124.996C29.4424 177.771 72.2245 220.553 124.999 220.553C177.773 220.553 220.556 177.771 220.556 124.996Z" stroke="#E1E1E1" stroke-width="0.293007"/>
</g>
<path d="M118.722 136.78C118.722 136.78 168.001 198.83 169.069 200.14C169.879 201.116 171.062 201.667 171.573 201.374C173.216 200.433 174.462 199.767 174.698 199.135C174.827 198.774 174.87 198.388 174.824 198.007C174.778 197.627 174.645 197.262 174.435 196.941L64.3379 59.6738C64.3379 59.6738 180.201 193.597 185.822 199.116C180.767 203.252 175.303 206.861 169.514 209.885L169.074 210.015C162.352 202.678 118.722 136.78 118.722 136.78Z" fill="#FF007A"/>
<path d="M86.7178 168.221V182.417L104.264 157.693L86.7178 168.221Z" fill="#3B3735"/>
<path d="M103.626 153.069L86.7178 124.996V145.413L103.626 153.069Z" fill="#3B3735"/>
<path d="M86.7178 147.004V164.387L103.466 154.657L86.7178 147.004Z" fill="#1F1D19"/>
<path d="M68.2158 153.069L85.123 124.996V145.413L68.2158 153.069Z" fill="#959190"/>
<path d="M85.124 147.004V164.387L68.376 154.66L85.124 147.004Z" fill="#403C3A"/>
<path d="M85.125 168.221V182.417L67.5791 157.693L85.125 168.221Z" fill="#959190"/>
<path d="M160.092 124.996C175.948 124.996 188.803 112.142 188.803 96.2852C188.803 80.4285 175.948 67.5742 160.092 67.5742C144.235 67.5742 131.381 80.4285 131.381 96.2852C131.381 112.142 144.235 124.996 160.092 124.996Z" fill="url(#paint0_linear_242_94048)"/>
<path d="M172.722 78.9473L169.206 75.4375L157.471 87.1729L169.206 98.9141L172.722 95.3984L164.496 87.1729L172.722 78.9473Z" fill="white"/>
<path d="M162.712 105.388L150.977 93.6465L147.461 97.1621L155.687 105.388L147.461 113.613L150.977 117.123L162.712 105.388Z" fill="white"/>
<path d="M167.71 100.4L155.973 88.6621L152.474 92.161L164.211 103.899L167.71 100.4Z" fill="white"/>
<path d="M125 250.004C116.538 250.007 108.097 249.156 99.8051 247.465C83.8158 244.19 68.6279 237.799 55.1079 228.656C35.0108 215.09 19.2794 195.987 9.81978 173.661C6.62478 166.1 4.18613 158.241 2.5395 150.2C-0.846501 133.576 -0.846501 116.44 2.5395 99.816C5.8144 83.8268 12.2055 68.6388 21.3481 55.1187C34.9144 35.0206 54.0184 19.2881 76.3452 9.82773C83.9056 6.6313 91.7639 4.19134 99.8051 2.54355C116.429 -0.842642 133.565 -0.842642 150.189 2.54355C166.178 5.8184 181.366 12.2095 194.886 21.3521C214.983 34.9184 230.715 54.0221 240.174 76.3482C243.372 83.9089 245.813 91.7675 247.461 99.8092C250.847 116.433 250.847 133.569 247.461 150.193C244.187 166.182 237.796 181.37 228.653 194.89C215.086 214.987 195.982 230.718 173.657 240.178C166.096 243.375 158.237 245.816 150.196 247.465C141.904 249.156 133.463 250.007 125 250.004ZM125 13.3961C117.446 13.3944 109.91 14.1541 102.507 15.6637C88.2307 18.5874 74.6697 24.294 62.5981 32.4576C44.6567 44.5718 30.613 61.6288 22.1684 81.5621C19.3146 88.3134 17.1364 95.3307 15.6655 102.511C12.6422 117.354 12.6422 132.654 15.6655 147.497C18.5903 161.773 24.2979 175.334 32.4624 187.405C44.5756 205.348 61.6322 219.395 81.5659 227.841C88.3176 230.695 95.3353 232.873 102.516 234.343C117.359 237.367 132.659 237.367 147.501 234.343C161.778 231.42 175.339 225.712 187.41 217.546C205.348 205.433 219.389 188.378 227.832 168.447C230.686 161.695 232.864 154.678 234.335 147.497C237.359 132.654 237.359 117.354 234.335 102.511C231.41 88.2353 225.703 74.6749 217.539 62.6041C205.427 44.6632 188.373 30.6189 168.443 22.1725C161.691 19.3189 154.673 17.1406 147.493 15.6695C140.091 14.1584 132.555 13.3961 125 13.3961Z" fill="url(#paint1_linear_242_94048)"/>
</g>
</g>
<defs>
<filter id="filter0_d_242_94048" x="27.3425" y="28.3163" width="195.313" height="195.313" filterUnits="userSpaceOnUse" color-interpolation-filters="sRGB">
<feFlood flood-opacity="0" result="BackgroundImageFix"/>
<feColorMatrix in="SourceAlpha" type="matrix" values="0 0 0 0 0 0 0 0 0 0 0 0 0 0 0 0 0 0 127 0" result="hardAlpha"/>
<feOffset dy="0.97669"/>
<feGaussianBlur stdDeviation="0.97669"/>
<feColorMatrix type="matrix" values="0 0 0 0 0 0 0 0 0 0 0 0 0 0 0 0 0 0 0.161 0"/>
<feBlend mode="normal" in2="BackgroundImageFix" result="effect1_dropShadow_242_94048"/>
<feBlend mode="normal" in="SourceGraphic" in2="effect1_dropShadow_242_94048" result="shape"/>
</filter>
<linearGradient id="paint0_linear_242_94048" x1="131.381" y1="96.2852" x2="188.803" y2="96.2852" gradientUnits="userSpaceOnUse">
<stop stop-color="#01AEC9"/>
<stop offset="1" stop-color="#1E8FCA"/>
</linearGradient>
<linearGradient id="paint1_linear_242_94048" x1="210.751" y1="33.754" x2="51.5004" y2="221.505" gradientUnits="userSpaceOnUse">
<stop stop-color="#B6509E"/>
<stop offset="1" stop-color="#2EBAC6"/>
</linearGradient>
<clipPath id="clip0_242_94048">
<rect width="250" height="250" rx="125" fill="white"/>
</clipPath>
</defs>
</svg>
