<svg width="250" height="250" viewBox="0 0 250 250" fill="none" xmlns="http://www.w3.org/2000/svg">
<g clip-path="url(#clip0_242_94041)">
<mask id="mask0_242_94041" style="mask-type:luminance" maskUnits="userSpaceOnUse" x="-1" y="0" width="251" height="250">
<path d="M249.998 0H-0.00195312V250H249.998V0Z" fill="white"/>
</mask>
<g mask="url(#mask0_242_94041)">
<path d="M124.996 249.984C194.032 249.984 249.996 194.02 249.996 124.984C249.996 55.9488 194.032 -0.015625 124.996 -0.015625C55.9605 -0.015625 -0.00390625 55.9488 -0.00390625 124.984C-0.00390625 194.02 55.9605 249.984 124.996 249.984Z" fill="white"/>
<path d="M124.996 249.983C116.533 249.985 108.092 249.135 99.8002 247.444C83.8109 244.169 68.623 237.777 55.103 228.634C35.0059 215.068 19.2745 195.965 9.81489 173.639C6.6199 166.078 4.18125 158.22 2.53462 150.178C-0.851384 133.554 -0.851384 116.418 2.53462 99.7945C5.80951 83.8053 12.2006 68.6174 21.3432 55.0973C34.9096 34.9991 54.0135 19.2666 76.3403 9.80624C83.9007 6.60981 91.759 4.16985 99.8002 2.52206C116.424 -0.864126 133.56 -0.864126 150.184 2.52206C166.173 5.79691 181.361 12.188 194.881 21.3307C214.978 34.897 230.71 54.0006 240.169 76.3268C243.367 83.8874 245.808 91.746 247.456 99.7877C250.843 116.412 250.843 133.548 247.456 150.171C244.182 166.161 237.791 181.349 228.648 194.869C215.081 214.965 195.978 230.697 173.652 240.157C166.091 243.354 158.232 245.795 150.191 247.444C141.899 249.135 133.458 249.985 124.996 249.983ZM124.996 13.3746C117.441 13.3729 109.905 14.1326 102.502 15.6422C88.2258 18.5659 74.6648 24.2725 62.5932 32.4361C44.6518 44.5504 30.6081 61.6073 22.1635 81.5406C19.3097 88.2919 17.1315 95.3092 15.6606 102.49C12.6373 117.333 12.6373 132.632 15.6606 147.475C18.5854 161.752 24.293 175.312 32.4575 187.383C44.5707 205.327 61.6273 219.373 81.561 227.82C88.3128 230.673 95.3304 232.851 102.511 234.322C117.354 237.346 132.654 237.346 147.497 234.322C161.773 231.398 175.334 225.691 187.405 217.525C205.343 205.411 219.384 188.356 227.828 168.425C230.681 161.674 232.859 154.656 234.331 147.475C237.354 132.632 237.354 117.333 234.331 102.49C231.406 88.2138 225.698 74.6534 217.534 62.5826C205.422 44.6417 188.368 30.5974 168.438 22.151C161.686 19.2974 154.669 17.1191 147.488 15.648C140.086 14.1369 132.55 13.3746 124.996 13.3746Z" fill="url(#paint0_linear_242_94041)"/>
<path d="M124.997 220.699C177.852 220.699 220.7 177.851 220.7 124.996C220.7 72.1407 177.852 29.293 124.997 29.293C72.1417 29.293 29.2939 72.1407 29.2939 124.996C29.2939 177.851 72.1417 220.699 124.997 220.699Z" fill="white"/>
<path d="M124.998 220.696C118.519 220.699 112.057 220.047 105.71 218.751C93.4675 216.245 81.8389 211.352 71.4881 204.352C56.1013 193.966 44.0569 179.34 36.8142 162.247C34.3668 156.456 32.499 150.437 31.2381 144.278C28.6459 131.551 28.6459 118.432 31.2381 105.704C33.7461 93.4637 38.6393 81.8368 45.6385 71.4864C56.0244 56.0981 70.6508 44.0526 87.7449 36.8096C93.5353 34.361 99.5544 32.4928 105.714 31.2325C118.441 28.6387 131.561 28.6387 144.288 31.2325C156.529 33.7403 168.157 38.6334 178.508 45.6329C193.893 56.0206 205.935 70.6471 213.176 87.7403C215.623 93.5295 217.49 99.5469 218.752 105.704C221.344 118.432 221.344 131.551 218.752 144.278C216.245 156.52 211.352 168.148 204.352 178.499C193.966 193.886 179.342 205.932 162.25 213.177C156.459 215.624 150.44 217.492 144.281 218.752C137.935 220.047 131.475 220.699 124.998 220.696ZM124.998 31.5362C118.671 31.5341 112.361 32.1698 106.162 33.4337C94.2067 35.8815 82.8506 40.66 72.742 47.4962C57.7147 57.6393 45.9521 71.9234 38.8797 88.6172C36.4901 94.2709 34.6661 100.147 33.4343 106.16C30.9025 118.59 30.9025 131.402 33.4343 143.832C35.8831 155.786 40.6614 167.142 47.4968 177.25C57.6407 192.276 71.9247 204.038 88.6179 211.11C94.2718 213.5 100.148 215.324 106.162 216.556C118.591 219.086 131.403 219.086 143.833 216.556C155.788 214.107 167.143 209.329 177.252 202.493C192.278 192.35 204.04 178.067 211.113 161.374C213.503 155.721 215.327 149.845 216.559 143.832C219.091 131.402 219.091 118.59 216.559 106.16C214.111 94.2053 209.332 82.8494 202.497 72.7403C192.353 57.7145 178.069 45.9524 161.377 38.879C155.723 36.4899 149.847 34.6659 143.834 33.4337C137.635 32.1697 131.324 31.534 124.998 31.5362Z" fill="#FF007A"/>
<path d="M103.434 73.1568C101.927 72.9234 101.864 72.896 102.573 72.7867C104.85 72.6557 107.135 72.8583 109.353 73.3882C114.516 74.6158 119.217 77.7593 124.228 83.3423L125.56 84.8257L127.467 84.5191C135.26 83.1984 143.271 84.2042 150.496 87.4107C152.332 88.2453 154.078 89.2642 155.709 90.4517C155.955 91.1033 156.117 91.7841 156.189 92.4771C156.697 95.8413 156.443 98.4195 155.415 100.345C155.158 100.661 155.001 101.046 154.963 101.451C154.924 101.856 155.006 102.263 155.199 102.622C155.378 102.992 155.657 103.305 156.005 103.525C156.353 103.745 156.755 103.863 157.167 103.866C158.865 103.866 160.692 101.119 161.539 97.3003L161.875 95.7837L162.542 96.5386C166.196 100.679 169.067 106.326 169.56 110.345L169.688 111.394L169.074 110.441C168.192 108.985 167.005 107.737 165.594 106.785C163.142 105.163 160.551 104.61 153.68 104.246C147.479 103.919 143.969 103.389 140.489 102.254C134.568 100.324 131.584 97.7525 124.55 88.5249C122.447 85.6118 120.114 82.8719 117.574 80.3316C113.767 76.4651 108.803 73.9461 103.434 73.1568Z" fill="#FF007A"/>
<path d="M157.109 82.3076C157.134 80.174 157.568 78.065 158.387 76.0947C158.552 75.6783 158.759 75.2795 159.004 74.9043C158.958 75.2738 158.862 75.6352 158.718 75.9785C158.149 78.05 158.06 80.2241 158.459 82.335C158.935 85.5771 159.205 86.0459 162.632 89.5469C164.239 91.1895 166.108 93.2578 166.786 94.1504L168.019 95.7676L166.786 94.6113C164.982 92.9582 163.064 91.4333 161.047 90.0479C160.534 89.7832 160.461 89.7881 160.141 90.1035C159.848 90.3965 159.787 90.8301 159.75 92.8926C159.835 95.4306 159.299 97.951 158.187 100.234C157.616 101.351 157.525 101.113 158.043 99.8525C158.434 98.9121 158.469 98.499 158.466 95.3867C158.459 89.1367 157.717 87.6299 153.363 85.0547C152.26 84.4023 150.442 83.4619 149.325 82.9639C148.645 82.6904 147.985 82.3683 147.352 82C149.419 82.4376 151.451 83.0304 153.43 83.7734C155.969 84.75 156.392 84.8779 156.7 84.7598C156.908 84.6816 157.008 84.0811 157.109 82.3076Z" fill="#FF007A"/>
<path d="M106.363 93.0039C103.207 88.4674 101.613 83.0279 101.82 77.5059L101.947 76.0117L102.643 76.1387C104.256 76.4906 105.811 77.0692 107.262 77.8574C110.159 79.6152 111.413 81.9346 112.69 87.8838C113.064 89.626 113.555 91.5947 113.78 92.2666C114.553 94.0962 115.509 95.8432 116.632 97.4814C117.437 98.6533 116.903 99.2119 115.125 99.0518C112.41 98.8066 108.734 96.2695 106.363 93.0039Z" fill="#FF007A"/>
<path d="M153.398 124.354C139.101 118.597 134.062 113.6 134.062 105.168C134.033 104.415 134.065 103.66 134.16 102.912C134.591 103.186 135.002 103.49 135.39 103.822C138.289 106.147 141.536 107.143 150.526 108.452C154.259 108.888 157.944 109.66 161.538 110.758C170.265 113.652 175.664 119.525 176.952 127.525C177.293 130.525 177.14 133.56 176.5 136.51C176.02 138.324 174.56 141.596 174.173 141.721C174.065 141.756 173.96 141.344 173.933 140.783C173.818 139.215 173.385 137.686 172.661 136.29C171.936 134.894 170.935 133.661 169.719 132.664C166.814 130.17 162.92 128.187 153.398 124.354Z" fill="#FF007A"/>
<path d="M143.361 126.744C143.193 125.722 142.962 124.711 142.671 123.717L142.305 122.629L142.983 123.39C144.022 124.621 144.806 126.047 145.29 127.583C145.764 128.861 145.944 130.229 145.819 131.587C145.938 132.9 145.765 134.223 145.312 135.462C144.696 137.276 143.662 138.92 142.295 140.262C139.683 142.92 136.325 144.392 131.479 145.002C130.636 145.107 128.181 145.287 126.023 145.399C120.584 145.683 117.004 146.267 113.788 147.396C113.498 147.525 113.187 147.599 112.871 147.615C112.74 147.486 114.93 146.181 116.74 145.31C119.291 144.081 121.83 143.41 127.518 142.463C130.329 141.994 133.231 141.427 133.964 141.2C140.928 139.066 144.507 133.561 143.361 126.744Z" fill="#FF007A"/>
<path d="M149.913 138.386C148.062 134.775 147.602 130.61 148.618 126.682C148.729 126.291 148.911 125.967 149.015 125.967C149.372 126.096 149.708 126.278 150.012 126.506C150.891 127.092 152.643 128.088 157.321 130.638C163.158 133.82 166.485 136.284 168.747 139.1C170.752 141.617 172.062 144.616 172.545 147.798C172.841 150.654 172.72 153.537 172.186 156.358C171.516 159.264 170.242 161.995 168.447 164.376C166.652 166.757 164.376 168.733 161.767 170.177C161.277 170.46 160.769 170.712 160.247 170.932C160.372 170.38 160.58 169.851 160.864 169.362C161.725 167.64 162.225 165.76 162.332 163.838C162.44 161.916 162.153 159.992 161.49 158.185C160.68 155.76 159.028 152.8 155.693 147.799C151.817 141.983 150.867 140.437 149.913 138.386Z" fill="#FF007A"/>
<path d="M96.208 160.418C101.327 156.026 107.505 153.047 114.13 151.778C117.231 151.377 120.378 151.499 123.439 152.138C127.286 153.123 130.728 155.328 132.521 157.956C134.271 160.523 135.021 162.761 135.802 167.739C136.11 169.703 136.445 171.675 136.547 172.121C136.911 174.319 138.022 176.324 139.69 177.799C141.937 179.444 145.808 179.547 149.613 178.062C150.009 177.877 150.429 177.746 150.859 177.672C150.998 177.808 149.081 179.091 147.729 179.767C146.134 180.622 144.348 181.056 142.539 181.028C139.053 181.028 136.158 179.255 133.743 175.637C132.855 174.109 132.062 172.527 131.369 170.901C128.819 165.085 127.561 163.313 124.6 161.375C123.378 160.548 121.967 160.045 120.499 159.912C119.03 159.778 117.552 160.019 116.201 160.611C115.44 160.964 114.771 161.489 114.247 162.144C113.722 162.799 113.356 163.566 113.177 164.386C112.999 165.205 113.012 166.055 113.216 166.869C113.42 167.683 113.809 168.438 114.354 169.077C115.451 170.22 116.891 170.974 118.455 171.225C119.078 171.308 119.711 171.256 120.311 171.073C120.912 170.889 121.466 170.579 121.936 170.163C122.406 169.747 122.782 169.234 123.036 168.66C123.291 168.086 123.42 167.464 123.413 166.837C123.47 166.071 123.269 165.309 122.84 164.672C122.411 164.035 121.781 163.562 121.05 163.327C118.74 162.285 116.257 163.504 116.265 165.671C116.248 166.093 116.369 166.51 116.61 166.858C116.851 167.206 117.199 167.465 117.601 167.597C118.196 167.867 118.21 167.89 117.724 167.788C115.604 167.348 115.107 164.793 116.813 163.1C118.858 161.064 123.09 161.963 124.543 164.742C125.166 166.306 125.219 168.04 124.692 169.639C124.053 171.188 122.862 172.444 121.349 173.164C119.836 173.884 118.11 174.017 116.505 173.536C114.106 172.923 113.13 172.26 110.237 169.281C105.213 164.105 103.262 163.101 96.0166 161.97L94.6279 161.754L96.208 160.418Z" fill="#FF007A"/>
<path fill-rule="evenodd" clip-rule="evenodd" d="M75.9029 69.1426C92.6851 89.5107 100.97 96.5449 102.254 98.3203C103.315 99.7852 102.916 101.104 101.099 102.137C99.8122 102.789 98.4097 103.182 96.9712 103.293C95.6728 103.241 94.4387 102.714 93.5044 101.811C92.8209 101.164 90.0699 97.0527 83.7144 87.1924C78.8521 79.6475 74.7828 73.3877 74.6714 73.2832C74.4146 73.041 74.4195 73.0488 83.2183 88.7939C88.7447 98.6807 90.6138 102.178 90.6138 102.644C90.6138 103.594 90.3541 104.094 89.1812 105.402C87.2281 107.584 86.3492 110.034 85.7212 115.107C85.0142 120.793 83.0249 124.81 77.5132 131.684C74.2906 135.708 73.7583 136.445 72.9449 138.067C71.9869 139.835 71.4974 141.819 71.523 143.829C71.3591 146.234 71.6812 148.647 72.4703 150.925C73.267 153.353 74.4256 155.647 75.9068 157.729C77.5865 160.331 78.5533 162.264 78.5533 163.021C78.5533 163.622 78.6685 163.623 81.271 163.035C87.4996 161.629 92.5572 159.155 95.4019 156.124C96.1715 155.446 96.7706 154.596 97.1507 153.643C97.5307 152.69 97.681 151.661 97.5894 150.64C97.7151 149.612 97.5397 148.569 97.0845 147.639C96.3443 146.064 94.9976 144.755 92.0279 142.725C88.1373 140.064 86.4751 137.924 86.0162 134.979C85.6392 132.563 86.0767 130.858 88.229 126.347C90.4566 121.678 91.0093 119.688 91.3824 114.98C91.6236 111.94 91.9576 110.74 92.8316 109.778C93.7427 108.774 94.563 108.435 96.8179 108.127C100.495 107.625 102.835 106.674 104.759 104.904C105.529 104.262 106.149 103.459 106.577 102.552C107.004 101.645 107.229 100.655 107.235 99.6523L107.313 97.959L106.379 96.8711C103 92.9326 73.6412 66.0449 73.4332 66.0449C73.3882 66.0449 74.5005 67.4395 75.9029 69.1426ZM80.4458 146.917C80.8141 146.264 80.924 145.497 80.7536 144.768C80.5833 144.038 80.1451 143.399 79.5259 142.977C78.3189 142.174 76.4439 142.552 76.4439 143.598C76.4439 143.917 76.6207 144.149 77.0181 144.354C77.688 144.698 77.7369 145.086 77.2134 145.878C76.69 146.67 76.7251 147.386 77.3345 147.864C78.3179 148.638 79.7144 148.213 80.4458 146.917Z" fill="#FF007A"/>
<path fill-rule="evenodd" clip-rule="evenodd" d="M109.632 109.017C108.69 109.375 107.846 109.949 107.165 110.691C106.484 111.434 105.985 112.325 105.709 113.294C105.399 114.582 105.518 115.935 106.047 117.15C106.813 118.174 107.555 118.444 109.562 118.43C113.493 118.403 116.909 116.717 117.307 114.609C117.633 112.882 116.135 110.488 114.065 109.434C112.661 108.86 111.118 108.715 109.632 109.017ZM114.226 112.609C114.37 112.413 114.467 112.187 114.51 111.948C114.552 111.709 114.54 111.464 114.474 111.23C114.407 110.996 114.288 110.781 114.126 110.601C113.963 110.42 113.762 110.279 113.537 110.188C111.573 108.989 108.605 109.981 108.605 111.836C108.605 112.758 110.153 113.766 111.572 113.766C112.574 113.742 113.527 113.327 114.226 112.609Z" fill="#FF007A"/>
</g>
</g>
<defs>
<linearGradient id="paint0_linear_242_94041" x1="210.746" y1="33.7325" x2="51.4955" y2="221.483" gradientUnits="userSpaceOnUse">
<stop stop-color="#B6509E"/>
<stop offset="1" stop-color="#2EBAC6"/>
</linearGradient>
<clipPath id="clip0_242_94041">
<rect width="250" height="250" rx="125" fill="white"/>
</clipPath>
</defs>
</svg>
