<svg width="250" height="250" viewBox="0 0 250 250" fill="none" xmlns="http://www.w3.org/2000/svg">
<rect width="250" height="250" rx="125" fill="white"/>
<g clip-path="url(#clip0_242_94648)">
<path d="M175.296 128.531H237.724C235.876 189.67 186.07 238.668 124.9 238.668C63.7309 238.668 13.9221 189.673 12.0742 128.531H74.9847L125.139 237.818L175.293 128.531H175.296ZM53.4796 81.654C37.0115 87.8071 20.0206 99.7632 12.6629 112.824C12.3287 116.008 12.1128 119.22 12.0469 122.473H72.2116L53.4796 81.654ZM130.003 33.6022C131.947 37.03 75.387 40.444 59.6008 37.2732C58.1256 36.9754 56.9073 36.3162 55.9162 35.3706L69.2748 64.4904C70.3477 64.679 71.191 65.0313 71.7274 65.6246C77.5554 71.98 88.2364 69.7797 93.5825 73.9371C95.7533 75.6236 89.2411 74.8144 74.8892 76.717L77.8237 83.1133H172.452L178.496 69.9434C175.307 71.7118 172.854 73.1551 171.502 73.6802C165.915 75.8805 157.418 75.1508 159.603 74.9076C161.787 74.6644 167.615 70.9958 171.743 69.0387C173.377 68.2704 176.928 65.8678 181.767 62.8038L194.337 35.4116C175.202 20.3528 151.095 11.3652 124.898 11.3652C110.56 11.3652 96.8398 14.0633 84.2177 18.9753C100.82 24.5079 128.089 30.2427 130.005 33.6022H130.003ZM206.784 59.9284L178.082 122.473H237.765C237.576 114.054 236.479 105.862 234.576 97.9948C230.678 97.7924 226.884 96.9014 224.445 96.174C220.317 94.9466 214.971 95.9308 208.177 96.174C201.383 96.4173 202.831 94.217 203.808 91.5325C204.747 88.9549 221.777 82.0995 229.148 81.3312C226.4 74.6917 223.052 68.3772 219.151 62.4537C218.976 62.3719 218.79 62.2924 218.615 62.2105C214.93 60.3489 210.896 59.742 206.784 59.9307V59.9284ZM46.9128 67.3498L39.355 50.875C37.1433 53.4526 35.0544 56.1234 33.0837 58.9033C36.8501 64.2335 40.962 67.7953 46.9128 67.3498ZM95.8874 122.473H154.404L163.73 102.166H86.5634L95.8897 122.473H95.8874ZM125.139 186.218L151.617 128.531H98.6764L125.141 186.218H125.139Z" fill="url(#paint0_linear_242_94648)"/>
</g>
<defs>
<linearGradient id="paint0_linear_242_94648" x1="124.905" y1="11.3652" x2="124.905" y2="238.668" gradientUnits="userSpaceOnUse">
<stop offset="0.3" stop-color="#E857CC"/>
<stop offset="0.8" stop-color="#00E9C9"/>
</linearGradient>
<clipPath id="clip0_242_94648">
<rect width="225.716" height="227.302" fill="white" transform="translate(12.0479 11.3652)"/>
</clipPath>
</defs>
</svg>
