<svg width="250" height="250" viewBox="0 0 250 250" fill="none" xmlns="http://www.w3.org/2000/svg">
<g clip-path="url(#clip0_242_94016)">
<rect width="250" height="250" rx="125" fill="white"/>
<mask id="mask0_242_94016" style="mask-type:luminance" maskUnits="userSpaceOnUse" x="0" y="-1" width="251" height="251">
<path d="M250.004 -0.00390625H0.00390625V249.996H250.004V-0.00390625Z" fill="white"/>
</mask>
<g mask="url(#mask0_242_94016)">
<path d="M125.004 249.997C116.542 249.999 108.101 249.148 99.809 247.458C83.8197 244.182 68.6318 237.791 55.1118 228.648C35.0147 215.082 19.2833 195.979 9.82368 173.653C6.62869 166.092 4.19004 158.233 2.54341 150.192C-0.842595 133.568 -0.842595 116.432 2.54341 99.8082C5.8183 83.819 12.2094 68.631 21.352 55.1109C34.9184 35.0127 54.0223 19.2803 76.3491 9.81992C83.9095 6.62349 91.7678 4.18352 99.809 2.53574C116.433 -0.850454 133.569 -0.850454 150.193 2.53574C166.182 5.81058 181.37 12.2017 194.89 21.3443C214.987 34.9106 230.719 54.0143 240.178 76.3404C243.376 83.9011 245.817 91.7597 247.465 99.8014C250.851 116.425 250.851 133.561 247.465 150.185C244.191 166.174 237.8 181.362 228.657 194.882C215.09 214.979 195.986 230.71 173.661 240.171C166.1 243.368 158.241 245.809 150.2 247.458C141.908 249.148 133.467 249.999 125.004 249.997ZM125.004 13.3883C117.449 13.3866 109.914 14.1463 102.511 15.6559C88.2346 18.5796 74.6736 24.2862 62.602 32.4498C44.6606 44.564 30.6169 61.621 22.1723 81.5543C19.3185 88.3056 17.1403 95.3229 15.6694 102.504C12.6461 117.346 12.6461 132.646 15.6694 147.489C18.5942 161.765 24.3018 175.326 32.4663 187.397C44.5795 205.341 61.6361 219.387 81.5698 227.834C88.3216 230.687 95.3392 232.865 102.52 234.336C117.363 237.359 132.663 237.359 147.505 234.336C161.782 231.412 175.343 225.704 187.414 217.539C205.352 205.425 219.393 188.37 227.836 168.439C230.69 161.687 232.868 154.67 234.339 147.489C237.363 132.646 237.363 117.346 234.339 102.504C231.414 88.2275 225.707 74.6671 217.542 62.5963C205.431 44.6553 188.377 30.6111 168.447 22.1646C161.695 19.311 154.677 17.1328 147.497 15.6617C140.095 14.1506 132.559 13.3883 125.004 13.3883Z" fill="url(#paint0_linear_242_94016)"/>
<path d="M125.003 29.0156C143.986 29.0156 162.543 34.6448 178.327 45.1914C194.111 55.738 206.414 70.7282 213.678 88.2666C220.943 105.805 222.844 125.104 219.14 143.722C215.437 162.341 206.295 179.443 192.872 192.866C179.449 206.289 162.347 215.431 143.728 219.134C125.109 222.838 105.811 220.937 88.2724 213.672C70.7341 206.408 55.7438 194.106 45.1973 178.322C34.6507 162.537 29.0215 143.98 29.0215 124.997C29.0223 99.5415 39.1348 75.1286 57.1347 57.1288C75.1345 39.129 99.5473 29.0164 125.003 29.0156Z" fill="#53AE94"/>
<path d="M136.851 112.207V97.9287H169.502V76.1738H80.5918V97.9287H113.247V112.195C86.708 113.414 66.7539 118.67 66.7539 124.967C66.7539 131.264 86.7178 136.52 113.247 137.746V183.481H136.858V137.742C163.35 136.52 183.264 131.268 183.264 124.977C183.264 118.686 163.35 113.434 136.858 112.211M136.858 133.868V133.856C136.192 133.898 132.77 134.104 125.148 134.104C119.056 134.104 114.769 133.932 113.258 133.853V133.872C89.8115 132.834 72.3105 128.75 72.3105 123.865C72.3105 118.98 89.8135 114.902 113.258 113.862V129.805C114.794 129.91 119.186 130.169 125.248 130.169C132.529 130.169 136.186 129.865 136.862 129.805V113.862C160.263 114.904 177.724 118.991 177.724 123.859C177.724 128.728 160.255 132.816 136.862 133.858" fill="white"/>
</g>
</g>
<defs>
<linearGradient id="paint0_linear_242_94016" x1="210.755" y1="33.7462" x2="51.5043" y2="221.497" gradientUnits="userSpaceOnUse">
<stop stop-color="#B6509E"/>
<stop offset="1" stop-color="#2EBAC6"/>
</linearGradient>
<clipPath id="clip0_242_94016">
<rect width="250" height="250" rx="125" fill="white"/>
</clipPath>
</defs>
</svg>
