<svg width="250" height="250" viewBox="0 0 250 250" fill="none" xmlns="http://www.w3.org/2000/svg">
<g clip-path="url(#clip0_242_94756)">
<path d="M125 250C194.036 250 250 194.036 250 125C250 55.9644 194.036 0 125 0C55.9644 0 0 55.9644 0 125C0 194.036 55.9644 250 125 250Z" fill="#EDF0F4"/>
<path d="M125 250C194.036 250 250 194.036 250 125C250 55.9644 194.036 0 125 0C55.9644 0 0 55.9644 0 125C0 194.036 55.9644 250 125 250Z" fill="url(#paint0_linear_242_94756)"/>
<path d="M168.67 66.834H75.6712C73.1962 66.834 71.0742 68.9555 71.0742 71.431V92.117C71.0742 94.592 73.1962 96.714 75.6712 96.714H106.966V180.342C106.966 182.817 110.502 191.834 118.458 191.834H137.906C140.381 191.834 142.503 189.712 142.503 187.237V96.714H174.151C176.626 96.714 178.748 94.592 178.748 92.117V76.735C178.925 74.26 175.035 66.834 168.67 66.834Z" fill="white"/>
</g>
<defs>
<linearGradient id="paint0_linear_242_94756" x1="0" y1="250" x2="250" y2="250" gradientUnits="userSpaceOnUse">
<stop stop-color="#2E2D4F"/>
<stop offset="0.0241829" stop-color="#2F2E50"/>
<stop offset="1" stop-color="#544E75"/>
</linearGradient>
<clipPath id="clip0_242_94756">
<rect width="250" height="250" fill="white"/>
</clipPath>
</defs>
</svg>
