<svg width="250" height="250" viewBox="0 0 250 250" fill="none" xmlns="http://www.w3.org/2000/svg">
<g clip-path="url(#clip0_242_93256)">
<path d="M125 250C194.036 250 250 194.036 250 125C250 55.9644 194.036 0 125 0C55.9644 0 0 55.9644 0 125C0 194.036 55.9644 250 125 250Z" fill="#E84142"/>
<path d="M169.099 128.25C173.449 120.75 180.399 120.75 184.749 128.25L211.699 175.6C216.049 183.1 212.499 189.2 203.849 189.2H149.499C140.949 189.2 137.399 183.1 141.649 175.6L169.099 128.25ZM116.949 37.0996C121.299 29.5996 128.149 29.5996 132.499 37.0996L138.499 47.9496L152.649 72.8496C156.099 79.9496 156.099 88.2996 152.649 95.3996L105.099 177.8C100.749 184.5 93.5991 188.75 85.5991 189.2H46.1491C37.4991 189.2 33.9491 183.2 38.2991 175.6L116.949 37.0996Z" fill="white"/>
</g>
<defs>
<clipPath id="clip0_242_93256">
<rect width="250" height="250" rx="125" fill="white"/>
</clipPath>
</defs>
</svg>
