<svg width="250" height="250" viewBox="0 0 250 250" fill="none" xmlns="http://www.w3.org/2000/svg">
<g clip-path="url(#clip0_242_94022)">
<rect width="250" height="250" rx="125" fill="white"/>
<mask id="mask0_242_94022" style="mask-type:luminance" maskUnits="userSpaceOnUse" x="0" y="-1" width="250" height="251">
<path d="M250 -0.00390625H0V249.996H250V-0.00390625Z" fill="white"/>
</mask>
<g mask="url(#mask0_242_94022)">
<path d="M124.998 249.997C116.536 249.999 108.095 249.148 99.8032 247.458C83.8139 244.182 68.6259 237.791 55.1059 228.648C35.0089 215.082 19.2775 195.979 9.81782 173.653C6.62283 166.092 4.18418 158.233 2.53755 150.192C-0.848454 133.568 -0.848454 116.432 2.53755 99.8082C5.81244 83.819 12.2035 68.631 21.3461 55.1109C34.9125 35.0127 54.0165 19.2803 76.3432 9.81992C83.9036 6.62349 91.7619 4.18352 99.8032 2.53574C116.427 -0.850454 133.563 -0.850454 150.187 2.53574C166.176 5.81058 181.364 12.2017 194.884 21.3443C214.981 34.9106 230.713 54.0143 240.172 76.3404C243.37 83.9011 245.811 91.7597 247.459 99.8014C250.846 116.425 250.846 133.561 247.459 150.185C244.185 166.174 237.794 181.362 228.651 194.882C215.084 214.979 195.98 230.71 173.655 240.171C166.094 243.368 158.235 245.809 150.194 247.458C141.902 249.148 133.461 249.999 124.998 249.997ZM124.998 13.3883C117.444 13.3866 109.908 14.1463 102.505 15.6559C88.2288 18.5796 74.6677 24.2862 62.5961 32.4498C44.6547 44.564 30.6111 61.621 22.1665 81.5543C19.3127 88.3056 17.1344 95.3229 15.6635 102.504C12.6403 117.346 12.6403 132.646 15.6635 147.489C18.5884 161.765 24.2959 175.326 32.4604 187.397C44.5736 205.341 61.6302 219.387 81.5639 227.834C88.3157 230.687 95.3333 232.865 102.514 234.336C117.357 237.359 132.657 237.359 147.499 234.336C161.776 231.412 175.337 225.704 187.408 217.539C205.346 205.425 219.387 188.37 227.831 168.439C230.684 161.687 232.862 154.67 234.333 147.489C237.357 132.646 237.357 117.346 234.333 102.504C231.408 88.2275 225.701 74.6671 217.537 62.5963C205.425 44.6553 188.371 30.6111 168.441 22.1646C161.689 19.311 154.672 17.1328 147.491 15.6617C140.089 14.1506 132.553 13.3883 124.998 13.3883Z" fill="url(#paint0_linear_242_94022)"/>
<path d="M125.379 29.0164C72.1635 28.8035 28.8608 72.1297 29.016 125.037C29.1713 177.944 72.2485 220.988 125.037 220.979C177.35 220.97 220.613 177.924 221.026 126.247C221.447 73.6131 179.455 29.2322 125.379 29.0164ZM124.582 213.249C76.2426 213.054 36.7514 173.457 36.7524 124.89C36.7524 75.9998 76.392 36.6814 125.71 36.7439C173.589 36.8045 213.992 76.5652 213.292 126.272C212.615 174.513 172.825 213.444 124.582 213.249Z" fill="#282138"/>
<path d="M124.769 207.278C105.003 207.225 85.9191 200.043 71.0238 187.049C69.6468 185.872 69.4252 185.206 70.849 183.839C74.6683 180.17 74.599 180.097 78.7113 183.402C106.446 205.684 146.563 204.859 173.741 181.383C175.031 180.269 175.667 180.255 176.856 181.468C180.927 185.627 180.982 185.582 176.282 189.292C161.243 201.162 144.125 207.087 124.769 207.278Z" fill="#82808A"/>
<path d="M199.603 122.384C199.525 106.381 193.32 90.2556 181.476 76.2692C180.365 74.9587 180.33 74.3445 181.547 73.1521C185.643 69.1374 185.649 69.0398 189.225 73.5427C199.482 86.1847 205.66 101.642 206.943 117.872C208.806 140.987 202.037 161.292 187.095 178.963C185.915 180.358 185.264 180.566 183.896 179.147C180.239 175.353 180.211 175.457 183.455 171.297C194.111 157.632 199.626 142.167 199.603 122.384Z" fill="#83808A"/>
<path d="M124.636 42.6669C144.553 42.5769 163.829 49.7047 178.896 62.7313C180.446 64.0389 180.661 64.8016 179.061 66.2968C175.376 69.7401 175.491 69.7919 171.561 66.6981C159.469 56.9258 144.578 51.2596 129.049 50.5213C109.074 49.5272 91.541 55.6454 76.3418 68.5341C75.0459 69.6327 74.3984 69.6688 73.207 68.455C69.1445 64.3173 69.0928 64.3622 73.6074 60.7704C88.0534 49.091 106.059 42.703 124.636 42.6669Z" fill="#83808A"/>
<path d="M42.7363 124.529C42.9238 104.599 49.6133 86.705 62.7324 71.16C64.166 69.4618 64.9609 69.4442 66.4688 71.0624C69.7695 74.6093 69.8613 74.5224 66.9043 78.2401C55.7783 91.8601 49.9298 109.032 50.4297 126.611C50.6683 143.774 56.9881 160.295 68.2646 173.235C69.6103 174.816 69.8066 175.662 68.1758 177.183C64.331 180.771 64.4199 180.871 61.1543 176.793C49.0127 161.645 42.8809 144.36 42.7363 124.529Z" fill="#83808A"/>
<path d="M163.494 135.722C162.738 129.716 159.11 125.964 153.533 123.906C152.715 123.603 151.714 123.631 151.036 122.727C157.686 118.951 159.263 112.91 158.149 105.953C157.075 99.2545 152.538 95.5924 146.359 93.6139C143.55 92.651 140.629 92.0501 137.668 91.8258C136.349 91.7516 135.747 91.2809 135.812 89.8727C135.91 87.8141 135.837 85.7477 135.837 83.6842C135.837 75.9596 135.837 75.9948 128.103 76.3854C126.792 76.4518 126.402 76.8737 126.435 78.1286C126.502 80.7653 126.454 83.4108 126.454 86.0514C126.454 91.3248 126.454 91.2594 121.239 91.3248C119.61 91.3463 119.091 90.8571 119.14 89.2311C119.244 85.5202 119.127 81.8034 119.196 78.0914C119.22 76.7946 118.793 76.3395 117.496 76.3961C115.52 76.4831 113.532 76.4938 111.556 76.3961C110.166 76.3249 109.69 76.7711 109.724 78.1979C109.811 81.9918 109.678 85.7916 109.787 89.5856C109.834 91.2018 109.363 91.734 107.717 91.6979C103.428 91.5954 99.1348 91.6354 94.8428 91.6715C90.4199 91.7086 91.0107 91.0592 90.9873 95.4118C90.9531 101.62 90.9775 101.621 97.2734 101.673C101.493 101.708 103.14 103.325 103.146 107.488C103.157 114.503 103.157 121.518 103.146 128.533C103.146 134.227 103.156 139.923 103.146 145.617C103.138 149.366 102.17 150.351 98.5166 150.385C97.2801 150.442 96.0414 150.435 94.8056 150.364C94.5276 150.288 94.2354 150.278 93.953 150.336C93.6705 150.394 93.4056 150.517 93.1799 150.697C92.9542 150.876 92.7741 151.106 92.6541 151.369C92.5341 151.631 92.4776 151.918 92.4892 152.206C92.1474 154.737 91.7871 157.27 91.292 159.774C91.0097 161.201 91.3623 161.643 92.8389 161.608C96.5498 161.519 100.267 161.553 103.979 161.587C109.698 161.637 109.698 161.654 109.698 167.251C109.698 168.158 109.65 169.069 109.708 169.973C109.853 172.254 108.703 175.22 110.174 176.631C111.628 178.027 114.581 176.869 116.861 177.082C118.546 177.239 119.19 176.701 119.125 174.913C118.994 171.369 119.191 167.812 119.044 164.268C118.965 162.377 119.603 161.902 121.425 161.924C126.455 161.977 126.456 161.896 126.456 167.042C126.456 167.95 126.402 168.861 126.467 169.764C126.634 172.12 125.408 175.199 126.983 176.641C128.521 178.049 131.561 176.877 133.929 177.084C135.499 177.221 135.901 176.559 135.867 175.093C135.785 171.547 135.95 167.992 135.799 164.449C135.712 162.41 136.15 161.552 138.436 161.49C142.062 161.334 145.654 160.728 149.131 159.684C160.969 156.328 164.922 147.105 163.494 135.722ZM119.305 111.391C119.305 108.922 119.305 106.453 119.305 103.983C119.305 103.143 119.263 102.289 120.5 102.264C125.353 102.167 130.216 101.959 134.894 103.668C138.852 105.115 140.913 107.778 140.929 111.48C140.944 115.117 138.858 117.757 134.819 119.213C130.237 120.864 125.461 120.82 120.69 120.851C119.369 120.86 119.292 120.028 119.297 119.044C119.311 116.498 119.301 113.945 119.301 111.395L119.305 111.391ZM141.614 147.046C138.685 149.121 135.245 149.771 131.809 150.133C128.293 150.505 124.732 150.437 121.197 150.648C119.718 150.737 119.138 150.294 119.202 148.725C119.317 145.924 119.235 143.116 119.235 140.311H119.307C119.307 137.507 119.336 134.702 119.293 131.898C119.274 130.709 119.586 130.082 120.943 130.066C126.307 130.004 131.657 129.991 136.903 131.349C138.591 131.744 140.19 132.45 141.619 133.43C142.742 134.176 143.664 135.189 144.301 136.378C144.938 137.566 145.271 138.894 145.27 140.243C145.269 141.591 144.934 142.919 144.296 144.107C143.657 145.294 142.735 146.306 141.61 147.05L141.614 147.046Z" fill="#EF9142"/>
</g>
</g>
<defs>
<linearGradient id="paint0_linear_242_94022" x1="210.749" y1="33.7462" x2="51.4985" y2="221.497" gradientUnits="userSpaceOnUse">
<stop stop-color="#B6509E"/>
<stop offset="1" stop-color="#2EBAC6"/>
</linearGradient>
<clipPath id="clip0_242_94022">
<rect width="250" height="250" rx="125" fill="white"/>
</clipPath>
</defs>
</svg>
