<svg width="250" height="250" viewBox="0 0 250 250" fill="none" xmlns="http://www.w3.org/2000/svg">
<g clip-path="url(#clip0_242_94028)">
<mask id="mask0_242_94028" style="mask-type:luminance" maskUnits="userSpaceOnUse" x="0" y="-1" width="250" height="251">
<path d="M250 -0.00390625H0V249.996H250V-0.00390625Z" fill="white"/>
</mask>
<g mask="url(#mask0_242_94028)">
<path d="M124.998 249.996C194.034 249.996 249.998 194.032 249.998 124.996C249.998 55.9605 194.034 -0.00390625 124.998 -0.00390625C55.9624 -0.00390625 -0.00195312 55.9605 -0.00195312 124.996C-0.00195312 194.032 55.9624 249.996 124.998 249.996Z" fill="white"/>
<path d="M124.998 249.997C116.536 249.999 108.095 249.148 99.8032 247.458C83.8139 244.182 68.6259 237.791 55.1059 228.648C35.0089 215.082 19.2775 195.979 9.81782 173.653C6.62283 166.092 4.18418 158.233 2.53755 150.192C-0.848454 133.568 -0.848454 116.432 2.53755 99.8082C5.81244 83.819 12.2035 68.631 21.3461 55.1109C34.9125 35.0127 54.0165 19.2803 76.3432 9.81992C83.9036 6.62349 91.7619 4.18352 99.8032 2.53574C116.427 -0.850454 133.563 -0.850454 150.187 2.53574C166.176 5.81058 181.364 12.2017 194.884 21.3443C214.981 34.9106 230.713 54.0143 240.172 76.3404C243.37 83.9011 245.811 91.7597 247.459 99.8014C250.846 116.425 250.846 133.561 247.459 150.185C244.185 166.174 237.794 181.362 228.651 194.882C215.084 214.979 195.98 230.71 173.655 240.171C166.094 243.368 158.235 245.809 150.194 247.458C141.902 249.148 133.461 249.999 124.998 249.997ZM124.998 13.3883C117.444 13.3866 109.908 14.1463 102.505 15.6559C88.2288 18.5796 74.6677 24.2862 62.5961 32.4498C44.6547 44.564 30.6111 61.621 22.1665 81.5543C19.3127 88.3056 17.1344 95.3229 15.6635 102.504C12.6403 117.346 12.6403 132.646 15.6635 147.489C18.5884 161.765 24.2959 175.326 32.4604 187.397C44.5736 205.341 61.6302 219.387 81.5639 227.834C88.3157 230.687 95.3333 232.865 102.514 234.336C117.357 237.359 132.657 237.359 147.499 234.336C161.776 231.412 175.337 225.704 187.408 217.539C205.346 205.425 219.387 188.37 227.831 168.439C230.684 161.687 232.862 154.67 234.333 147.489C237.357 132.646 237.357 117.346 234.333 102.504C231.408 88.2275 225.701 74.6671 217.537 62.5963C205.425 44.6553 188.371 30.6111 168.441 22.1646C161.689 19.311 154.672 17.1328 147.491 15.6617C140.089 14.1506 132.553 13.3883 124.998 13.3883Z" fill="url(#paint0_linear_242_94028)"/>
<path d="M97.3613 194.91C133.144 194.91 133.144 194.377 139.211 192.576C147.14 190.223 116.825 169.236 97.3613 169.236C77.8975 169.236 62.1211 174.985 62.1211 182.074C62.1211 189.163 77.8984 194.91 97.3613 194.91Z" fill="black"/>
<path d="M178.611 85.752L180.256 87.5254L178.818 89.4707C132.152 152.567 105.269 181.136 93.8625 177.304C86.9152 174.97 79.9474 167.951 72.9806 157.759C70.5314 154.177 68.2316 150.404 66.1447 146.65C64.7521 144.15 63.5734 141.87 62.9611 140.586C62.3227 139.332 61.8625 137.995 61.5939 136.613L61.5627 136.454C61.4533 135.892 61.4162 135.714 61.3342 135.406C58.1284 123.334 58.5472 110.585 62.5384 98.7497C66.5295 86.914 73.9164 76.515 83.778 68.8493C93.6395 61.1836 105.539 56.5905 117.994 55.6425C130.448 54.6945 142.906 57.4337 153.815 63.5186L154.057 63.6699C161.741 69.03 169.926 76.3906 178.611 85.752ZM150.827 68.5449C140.916 63.0581 129.61 60.605 118.316 61.4907C107.021 62.3764 96.2363 66.5617 87.301 73.5265C78.3658 80.4913 71.6744 89.9285 68.0585 100.665C64.4426 111.401 64.0617 122.964 66.9631 133.915C67.089 134.391 67.1457 134.658 67.2795 135.348L67.3068 135.488C67.4836 136.392 67.7919 137.265 68.2218 138.08C68.7804 139.252 69.9025 141.422 71.2355 143.814C73.2463 147.423 75.4552 151.046 77.7961 154.471C84.091 163.679 90.3342 169.968 95.7199 171.777C102.903 174.19 129.944 145.565 172.679 87.96C166.06 80.7769 158.739 74.2729 150.827 68.5449Z" fill="black"/>
<path d="M150.827 68.5454C140.915 63.0587 129.61 60.6057 118.315 61.4914C107.021 62.377 96.2363 66.5623 87.3011 73.5269C78.3659 80.4916 71.6745 89.9285 68.0585 100.665C64.4425 111.401 64.0613 122.963 66.9625 133.915C67.0884 134.39 67.1451 134.658 67.2789 135.347L67.3062 135.488C67.483 136.392 67.7913 137.265 68.2212 138.08C68.7798 139.251 69.9019 141.421 71.2349 143.814C73.2457 147.422 75.4546 151.045 77.7955 154.47C84.0904 163.678 90.3336 169.967 95.7193 171.777C102.903 174.191 129.944 145.568 172.679 87.9605C166.06 80.7773 158.739 74.2733 150.827 68.5454Z" fill="#EC1C79"/>
<path d="M134.466 194.324C121.888 194.324 109.593 190.594 99.1345 183.607C88.6764 176.619 80.5253 166.687 75.712 155.066C70.8986 143.446 69.6393 130.659 72.0931 118.323C74.5469 105.987 80.6037 94.6551 89.4976 85.7613C98.3915 76.8674 109.723 70.8106 122.059 68.3567C134.395 65.9029 147.182 67.1623 158.802 71.9757C170.423 76.789 180.355 84.9401 187.343 95.3982C194.331 105.856 198.061 118.152 198.061 130.73C198.061 147.596 191.36 163.771 179.434 175.698C167.508 187.624 151.332 194.324 134.466 194.324ZM134.466 188.49C145.89 188.49 157.057 185.102 166.555 178.756C176.054 172.409 183.457 163.388 187.828 152.834C192.2 142.279 193.343 130.666 191.115 119.462C188.886 108.257 183.385 97.9656 175.307 89.8878C167.229 81.8101 156.937 76.3091 145.733 74.0805C134.529 71.8519 122.915 72.9958 112.361 77.3675C101.807 81.7393 92.786 89.1425 86.4393 98.641C80.0926 108.14 76.7051 119.307 76.7051 130.73C76.7051 138.316 78.1991 145.827 81.1019 152.834C84.0047 159.842 88.2593 166.21 93.6229 171.573C98.9865 176.937 105.354 181.191 112.362 184.094C119.37 186.996 126.881 188.49 134.466 188.49Z" fill="black"/>
<path d="M134.463 188.49C145.887 188.491 157.054 185.104 166.553 178.757C176.051 172.411 183.455 163.39 187.827 152.836C192.199 142.282 193.343 130.669 191.115 119.464C188.887 108.26 183.386 97.9681 175.309 89.8899C167.231 81.8117 156.94 76.3102 145.736 74.0811C134.532 71.8519 122.918 72.9952 112.364 77.3664C101.809 81.7376 92.7881 89.1404 86.4409 98.6386C80.0938 108.137 76.7057 119.304 76.7051 130.728C76.7047 138.313 78.1983 145.824 81.1008 152.832C84.0032 159.84 88.2575 166.207 93.6208 171.571C98.9841 176.935 105.351 181.19 112.359 184.093C119.367 186.996 126.878 188.49 134.463 188.49Z" fill="white"/>
<path fill-rule="evenodd" clip-rule="evenodd" d="M91.2588 142.559L83.6133 119.524H90.3115L94.2959 132.757L98.707 119.459H104.163L108.574 132.757L112.558 119.524H119.125L111.483 142.559H105.962L101.354 129.392L96.7803 142.559H91.2588ZM121.64 142.396V119.524H140.039V124.915H127.917V128.378H138.896V133.378H127.917V137.005H140.202V142.396H121.64ZM149.02 142.396V125.079H142.162V119.524H162.224V125.079H155.362V142.396H149.02ZM164.996 142.396V119.524H171.335V128.085H179.471V119.524H185.81V142.396H179.471V133.704H171.335V142.396H164.996Z" fill="black"/>
<path d="M62.9902 112.648C62.2289 112.253 61.6535 111.574 61.3884 110.758C61.1233 109.942 61.1898 109.054 61.5734 108.287C61.957 107.52 62.627 106.934 63.4388 106.656C64.2506 106.379 65.1389 106.431 65.9121 106.803L75.2471 111.471C75.6376 111.659 75.9869 111.923 76.2746 112.247C76.5623 112.571 76.7826 112.949 76.9229 113.359C77.0631 113.769 77.1203 114.203 77.0913 114.635C77.0623 115.067 76.9475 115.49 76.7538 115.877C76.56 116.265 76.2911 116.61 75.9626 116.893C75.6342 117.175 75.2528 117.39 74.8407 117.524C74.4286 117.658 73.9939 117.708 73.5621 117.673C73.1302 117.637 72.7098 117.516 72.3252 117.316L62.9902 112.648Z" fill="black"/>
<path d="M61.9198 128.128C61.52 127.955 61.1588 127.704 60.8574 127.39C60.5561 127.075 60.3206 126.703 60.165 126.297C60.0093 125.89 59.9366 125.456 59.951 125.02C59.9655 124.585 60.0669 124.157 60.2492 123.761C60.4315 123.366 60.6911 123.011 61.0126 122.717C61.3342 122.423 61.7113 122.196 62.1217 122.05C62.5322 121.904 62.9676 121.842 63.4025 121.867C63.8375 121.891 64.263 122.003 64.6542 122.194L73.9892 126.503C74.389 126.676 74.7502 126.927 75.0516 127.242C75.353 127.556 75.5884 127.928 75.7441 128.335C75.8997 128.741 75.9725 129.175 75.958 129.611C75.9436 130.046 75.8422 130.474 75.6599 130.87C75.4776 131.265 75.218 131.621 74.8964 131.914C74.5748 132.208 74.1977 132.435 73.7873 132.581C73.3769 132.727 72.9414 132.789 72.5065 132.765C72.0716 132.74 71.646 132.628 71.2548 132.437L61.9198 128.128Z" fill="black"/>
</g>
</g>
<defs>
<linearGradient id="paint0_linear_242_94028" x1="210.749" y1="33.7462" x2="51.4985" y2="221.497" gradientUnits="userSpaceOnUse">
<stop stop-color="#B6509E"/>
<stop offset="1" stop-color="#2EBAC6"/>
</linearGradient>
<clipPath id="clip0_242_94028">
<rect width="250" height="250" rx="125" fill="white"/>
</clipPath>
</defs>
</svg>
