<svg width="250" height="250" viewBox="0 0 250 250" fill="none" xmlns="http://www.w3.org/2000/svg">
<g clip-path="url(#clip0_242_94796)">
<path d="M125 250C194.036 250 250 194.036 250 125C250 55.9644 194.036 0 125 0C55.9644 0 0 55.9644 0 125C0 194.036 55.9644 250 125 250Z" fill="#EDF0F4"/>
<path d="M122.335 29.3644C120.403 30.2917 118.973 33.1123 116.114 38.8307L92.9323 85.351C91.0392 89.1762 90.0732 91.0694 90.0732 92.8854C90.0732 94.5082 90.5755 96.0538 91.5414 97.3675C92.6232 98.8743 94.4778 99.8403 98.2642 101.811L127.357 117.073C131.182 119.082 133.114 120.087 134.969 120.125C136.591 120.125 138.214 119.662 139.528 118.696C141.035 117.614 142.039 115.721 144.048 111.895L152.703 95.4742C154.287 92.4604 155.098 90.9149 155.446 89.3307C155.755 87.9011 155.755 86.4715 155.523 85.0419C155.253 83.4191 154.519 81.8736 153.012 78.7825L133.81 38.8307C130.951 33.1509 129.521 30.2917 127.589 29.3644C125.928 28.553 123.957 28.553 122.296 29.3644H122.335Z" fill="url(#paint0_linear_242_94796)"/>
<path d="M172.409 112.714C170.67 109.236 169.781 107.498 168.584 106.957C167.54 106.455 166.343 106.455 165.299 106.957C164.102 107.498 163.213 109.236 161.397 112.675L157.959 119.205C155.949 123.069 154.906 124.962 154.906 126.855C154.906 128.478 155.37 130.101 156.336 131.415C157.418 132.922 159.349 133.926 163.213 135.935L177.895 143.586C182.029 145.749 184.077 146.831 185.274 146.484C186.279 146.213 187.09 145.402 187.399 144.397C187.747 143.238 186.704 141.152 184.618 136.979L172.409 112.753V112.714Z" fill="url(#paint1_linear_242_94796)"/>
<path d="M203.743 175.603C202.7 173.517 202.159 172.474 201.464 171.585C200.846 170.774 200.111 170.078 199.3 169.46C198.411 168.764 197.33 168.262 195.243 167.219L156.182 148.17C152.396 146.316 150.502 145.388 148.686 145.427C147.102 145.427 145.518 145.929 144.243 146.895C142.775 147.938 141.771 149.832 139.8 153.541L122.221 186.77C120.636 189.783 119.825 191.252 120.018 192.488C120.173 193.57 120.752 194.536 121.602 195.154C122.607 195.85 124.307 195.85 127.707 195.85H197.755C203.048 195.85 205.714 195.85 207.298 194.729C208.689 193.763 209.616 192.256 209.886 190.556C210.157 188.624 208.998 186.267 206.602 181.515L203.666 175.642L203.743 175.603Z" fill="url(#paint2_linear_242_94796)"/>
<path d="M88.759 195.854C92.8158 195.854 94.8635 195.854 96.6794 195.236C98.2635 194.695 99.7317 193.807 100.968 192.647C102.359 191.334 103.286 189.556 105.218 185.963L125.579 147.48C127.627 143.654 128.632 141.722 128.67 139.868C128.67 138.245 128.207 136.622 127.241 135.27C126.159 133.763 124.227 132.758 120.402 130.711L90.6908 115.101C86.7885 113.053 84.8181 112.01 82.9635 112.01C81.3022 112.01 79.6794 112.512 78.3658 113.478C76.859 114.599 75.8544 116.569 73.884 120.51L43.3226 181.481C40.9272 186.234 39.7681 188.59 40.0385 190.522C40.2704 192.222 41.2363 193.729 42.6272 194.695C44.2113 195.816 46.8772 195.816 52.1704 195.816H88.759V195.854Z" fill="url(#paint3_linear_242_94796)"/>
</g>
<defs>
<linearGradient id="paint0_linear_242_94796" x1="58.1596" y1="10.934" x2="225.192" y2="180.896" gradientUnits="userSpaceOnUse">
<stop stop-color="#0040FF"/>
<stop offset="1" stop-color="#1035A3"/>
</linearGradient>
<linearGradient id="paint1_linear_242_94796" x1="57.1562" y1="11.9457" x2="224.189" y2="181.907" gradientUnits="userSpaceOnUse">
<stop stop-color="#0040FF"/>
<stop offset="1" stop-color="#1035A3"/>
</linearGradient>
<linearGradient id="paint2_linear_242_94796" x1="24.5865" y1="43.9247" x2="191.619" y2="213.886" gradientUnits="userSpaceOnUse">
<stop stop-color="#0040FF"/>
<stop offset="1" stop-color="#1035A3"/>
</linearGradient>
<linearGradient id="paint3_linear_242_94796" x1="-5.24328" y1="73.2558" x2="161.789" y2="243.217" gradientUnits="userSpaceOnUse">
<stop stop-color="#0040FF"/>
<stop offset="1" stop-color="#1035A3"/>
</linearGradient>
<clipPath id="clip0_242_94796">
<rect width="250" height="250" fill="white"/>
</clipPath>
</defs>
</svg>
