<svg width="250" height="250" viewBox="0 0 250 250" fill="none" xmlns="http://www.w3.org/2000/svg">
<rect width="250" height="250" rx="125" fill="white"/>
<path d="M195.569 59.3193C202.467 66.3244 209.071 73.046 216.017 80.0984C201.286 94.6166 186.39 109.3 171.707 123.783C187.217 139.305 201.912 153.989 216.419 168.507C208.835 176.162 201.971 183.072 194.045 191.07C185.788 182.434 177.353 173.409 168.694 164.597C159.327 155.052 149.735 145.743 140.308 136.257C133.882 129.784 133.303 120.818 139.41 114.651C157.389 96.483 175.593 78.5391 193.714 60.5124C194.116 60.1108 194.683 59.8745 195.557 59.3311L195.569 59.3193Z" fill="black"/>
<path d="M33.7188 81.3154C41.3853 73.3417 48.036 66.4429 55.7971 58.3628C64.5505 67.5297 72.9849 76.543 81.6202 85.3437C90.9879 94.8886 100.592 104.185 110.007 113.671C116.61 120.322 116.929 129.323 110.538 135.75C92.7834 153.587 74.8986 171.283 57.0493 189.026C56.5059 189.57 55.8208 189.971 55.2892 190.373C48.5322 183.368 41.8815 176.481 34.8528 169.204C49.0165 155.3 63.9362 140.64 78.6906 126.146C63.1211 110.623 48.414 95.9636 33.7188 81.3154Z" fill="black"/>
<path d="M59.3906 55.1016C66.1713 48.1792 72.7629 41.4576 79.8388 34.2399C94.4632 49.4668 108.934 64.5284 124.066 80.2869C139.919 63.6778 154.367 48.5454 168.92 33.3066C176.87 41.6821 183.438 48.6045 191.093 56.6609C184.95 62.4966 177.792 69.1 170.846 75.9161C159.34 87.1857 147.988 98.6089 136.541 109.938C129.926 116.482 120.948 116.872 114.439 110.469C96.3651 92.7142 78.4567 74.7939 60.501 56.9208C60.0994 56.5192 59.8868 55.9285 59.3906 55.1016Z" fill="black"/>
<path d="M190.832 194.648C183.933 201.748 177.353 208.517 169.699 216.384C155.11 201.075 140.674 185.907 125.353 169.829C109.783 186.143 95.3126 201.311 80.9835 216.337C73.0216 208.458 66.2056 201.713 58.5508 194.141C65.4259 187.549 72.2774 181.099 78.9754 174.507C90.6111 163.061 102.152 151.519 113.764 140.037C120.143 133.717 129.31 133.103 135.465 139.116C153.598 156.859 171.53 174.826 189.521 192.711C190.064 193.255 190.395 193.999 190.832 194.66V194.648Z" fill="black"/>
</svg>
