<svg width="250" height="250" viewBox="0 0 250 250" fill="none" xmlns="http://www.w3.org/2000/svg">
<path d="M98.1006 1.24023H104.901C145.951 2.59023 183.001 26.0902 201.701 62.6402C202.551 64.2402 202.651 66.0902 201.901 67.7902C200.751 70.3902 197.901 71.7902 195.101 71.1902C193.401 70.5402 191.901 69.4902 190.751 68.0902C155.601 35.3902 108.601 18.5902 60.7006 21.4902C58.0506 21.8902 55.5006 20.3902 54.5006 17.8902C53.3006 14.9902 54.6006 11.6902 57.4006 10.3402C70.3506 4.79023 84.1006 1.74023 98.1006 1.24023Z" fill="#0263E1"/>
<path d="M202.801 16.3403C205.051 15.3903 207.651 15.9903 209.251 17.8403C219.101 29.2903 226.601 42.5903 231.251 56.9403C237.001 74.7403 238.351 93.6903 235.101 112.14C231.151 134.94 220.301 156.04 204.001 172.49C201.751 174.54 198.301 174.49 196.101 172.39C194.151 170.59 193.651 167.69 194.901 165.34C208.101 137.29 213.751 106.24 211.301 75.3403C210.001 57.6403 206.001 40.2403 199.451 23.6903C198.351 20.7403 199.851 17.4403 202.801 16.3403Z" fill="#0263E1"/>
<path d="M94.6505 30.9408C96.2005 30.4908 97.8505 30.5908 99.3505 31.2908C102.25 32.8908 103.35 36.4408 101.85 39.3908C101.2 40.5408 100.15 41.4908 98.9505 42.0408C56.2005 65.7908 25.2005 106.091 13.1505 153.441C12.6505 155.791 10.7505 157.641 8.35046 157.941C5.20046 158.441 2.25046 156.291 1.75046 153.091C1.75046 153.091 1.75046 153.091 1.75046 153.041C-1.69954 115.391 13.8005 78.4908 43.0505 54.5408C57.9005 42.4408 75.7005 34.2908 94.6505 30.9408Z" fill="#0263E1"/>
<path d="M38.3505 115.99C41.4505 115.14 44.6005 116.99 45.4505 120.09C45.5005 120.24 45.5005 120.39 45.5505 120.54C52.2505 156.84 70.1005 190.19 96.6005 215.94C105.1 224.19 114.4 231.54 124.4 237.94C125.8 238.79 126.8 240.24 127.1 241.89C127.55 244.79 125.9 247.59 123.1 248.59C121 248.94 118.85 248.69 116.85 247.89C92.2505 241.34 70.5505 226.64 55.4005 206.19C37.1505 181.69 29.5005 150.89 34.1505 120.69C34.4505 118.39 36.1005 116.54 38.3505 115.99Z" fill="#0263E1"/>
<path d="M241.35 157.341C244.55 156.541 247.8 158.491 248.6 161.741C248.7 162.041 248.75 162.341 248.75 162.691C248.55 164.991 247.65 167.191 246.15 168.941C215.25 217.791 152.25 235.091 100.75 208.941C98.9502 208.041 97.7502 206.291 97.5502 204.291C97.3002 201.741 98.7002 199.291 101 198.241C102.3 197.741 103.75 197.641 105.15 197.941C138.25 202.091 171.85 196.691 202 182.341C215.25 176.041 227.65 168.141 238.9 158.741C239.6 158.091 240.45 157.591 241.35 157.341Z" fill="#0263E1"/>
</svg>
