<svg width="250" height="250" viewBox="0 0 250 250" fill="none" xmlns="http://www.w3.org/2000/svg">
<path d="M29.786 52.8394C9.4542 95.77 6.8203 143.026 26.1355 194.841C27.5218 198.608 32.004 200.236 35.7931 198.887C39.3974 197.631 47.3453 193.91 53.9531 189.678C69.2019 179.91 114.948 142.236 136.667 123.863C158.385 105.491 172.155 94.5141 182.413 87.8164C187.912 84.235 191.47 81.6768 194.15 80.328C196.738 79.0256 199.88 80.1884 200.989 82.8861C211.756 108.979 211.432 137.259 200.712 164.98C199.603 167.91 196.229 169.259 193.411 167.91C188.235 165.492 179.779 160.84 169.937 152.933C158.338 143.584 150.991 137.817 147.803 135.305C146.74 134.468 145.215 134.608 144.291 135.584L136.99 143.631C136.02 144.654 136.066 146.282 137.082 147.259C159.17 168.654 184.631 187.817 210.831 200.329C214.251 201.957 218.594 200.515 220.35 197.166C243.917 152.608 247.013 102.561 218.825 53.4905C217.116 50.4672 213.142 49.5835 210.092 51.1649C205.102 53.7231 196.553 59.0255 183.291 69.7232C159.725 88.7932 125.53 118.096 101.04 136.701C83.2956 150.189 63.6107 163.91 54.9235 169.678C52.1972 171.492 48.5005 170.282 47.3453 167.212C36.8559 139.166 36.6711 110.049 47.2991 82.8396C48.1308 80.6536 50.5799 79.5373 52.7517 80.328C60.6534 83.2582 67.8157 87.3048 73.869 93.3048L48.4543 117.445C47.8536 118.003 47.4839 118.84 47.4839 119.677V129.91C47.4839 131.166 48.7777 131.956 49.8867 131.352C52.151 130.142 55.709 127.956 59.4981 124.561C65.7825 118.933 85.2825 102.328 85.2825 102.328L98.6368 114.933C99.3762 115.631 100.578 115.677 101.363 115.026L112.268 105.91C113.239 105.119 113.285 103.677 112.407 102.793C88.8406 79.8629 63.7955 61.2115 36.0704 50.3277C33.6213 49.3975 30.895 50.5138 29.786 52.8394Z" fill="url(#paint0_linear_242_93259)"/>
<defs>
<linearGradient id="paint0_linear_242_93259" x1="126.018" y1="200.992" x2="126.018" y2="50.0083" gradientUnits="userSpaceOnUse">
<stop stop-color="#0057D7"/>
<stop offset="0.9993" stop-color="#04C8F2"/>
</linearGradient>
</defs>
</svg>
