<svg width="250" height="250" viewBox="0 0 250 250" fill="none" xmlns="http://www.w3.org/2000/svg">
<g clip-path="url(#clip0_242_94036)">
<rect width="250" height="250" rx="125" fill="white"/>
<mask id="mask0_242_94036" style="mask-type:luminance" maskUnits="userSpaceOnUse" x="0" y="-1" width="251" height="251">
<path d="M0.00195312 -0.00390625H250.002V249.996H0.00195312V-0.00390625Z" fill="white"/>
</mask>
<g mask="url(#mask0_242_94036)">
<path d="M125.002 249.997C116.54 249.999 108.099 249.148 99.8071 247.458C83.8178 244.182 68.6298 237.791 55.1098 228.648C35.0128 215.082 19.2814 195.979 9.82173 173.653C6.62674 166.092 4.18809 158.233 2.54146 150.192C-0.844548 133.568 -0.844548 116.432 2.54146 99.8082C5.81635 83.819 12.2074 68.631 21.35 55.1109C34.9164 35.0127 54.0204 19.2803 76.3471 9.81992C83.9075 6.62349 91.7658 4.18352 99.8071 2.53574C116.431 -0.850454 133.567 -0.850454 150.191 2.53574C166.18 5.81058 181.368 12.2017 194.888 21.3443C214.985 34.9106 230.717 54.0143 240.176 76.3404C243.374 83.9011 245.815 91.7597 247.463 99.8014C250.849 116.425 250.849 133.561 247.463 150.185C244.189 166.174 237.798 181.362 228.655 194.882C215.088 214.979 195.984 230.71 173.659 240.171C166.098 243.368 158.239 245.809 150.198 247.458C141.906 249.148 133.465 249.999 125.002 249.997ZM125.002 13.3883C117.448 13.3866 109.912 14.1463 102.509 15.6559C88.2327 18.5796 74.6716 24.2862 62.6 32.4498C44.6586 44.564 30.615 61.621 22.1704 81.5543C19.3166 88.3056 17.1383 95.3229 15.6674 102.504C12.6442 117.346 12.6442 132.646 15.6674 147.489C18.5923 161.765 24.2998 175.326 32.4643 187.397C44.5775 205.341 61.6341 219.387 81.5678 227.834C88.3196 230.687 95.3372 232.865 102.518 234.336C117.361 237.359 132.661 237.359 147.503 234.336C161.78 231.412 175.341 225.704 187.412 217.539C205.35 205.425 219.391 188.37 227.834 168.439C230.688 161.687 232.866 154.67 234.337 147.489C237.361 132.646 237.361 117.346 234.337 102.504C231.412 88.2275 225.705 74.6671 217.54 62.5963C205.429 44.6553 188.375 30.6111 168.445 22.1646C161.693 19.311 154.675 17.1328 147.495 15.6617C140.093 14.1506 132.557 13.3883 125.002 13.3883Z" fill="url(#paint0_linear_242_94036)"/>
<path d="M125 220.699C177.855 220.699 220.703 177.851 220.703 124.996C220.703 72.1407 177.855 29.293 125 29.293C72.1446 29.293 29.2969 72.1407 29.2969 124.996C29.2969 177.851 72.1446 220.699 125 220.699Z" fill="url(#paint1_linear_242_94036)"/>
<path d="M133.29 126.41C135.627 127.834 137.888 129.378 140.064 131.036C142.756 133.357 145.329 135.812 147.773 138.391C151.508 142.271 153.119 147.126 153.896 152.355C155.205 161.144 152.771 168.704 147.434 175.793C139.914 185.78 123.305 189.648 113.394 185.101C107.911 182.586 102.956 179.453 99.7568 174.687C94.874 167.412 91.7861 159.327 95.3975 150.3C96.3301 147.966 97.2061 145.612 98.1924 143.048C94.4609 143.794 90.7705 144.527 87.0595 145.269C86.4219 142.71 85.79 140.499 85.3789 138.243C85.4128 137.916 85.5302 137.603 85.7198 137.334C85.9094 137.065 86.165 136.849 86.4619 136.707C94.6582 134.973 102.885 133.381 111.079 131.644C112.537 131.334 112.947 131.765 113.106 133.063C113.681 137.73 114.266 142.397 114.912 147.054C115.395 150.527 115.911 154.001 116.549 157.445C116.816 158.893 116.492 159.558 114.986 159.691C112.787 159.88 110.592 160.169 108.324 160.426C107.633 155.836 106.996 151.608 106.259 146.706C103.193 152.219 101.138 157.109 103.231 162.858C104.905 167.448 107.235 171.653 111.283 174.393C117.803 178.81 124.88 180.033 132.412 176.849C136.596 175.193 140.133 172.23 142.495 168.4C144.095 165.903 145.151 163.097 145.595 160.165C146.039 157.233 145.86 154.241 145.071 151.382C144.458 148.75 143.313 146.27 141.706 144.097C140.099 141.924 138.065 140.103 135.728 138.745C134.888 138.355 134.193 137.709 133.743 136.899C133.293 136.09 133.112 135.159 133.224 134.239C133.381 131.633 133.403 129.019 133.29 126.41Z" fill="white"/>
<path d="M152.368 104.898L163.125 101.251C163.896 103.461 164.744 105.516 165.264 107.649C165.245 108.053 165.123 108.445 164.912 108.789C164.7 109.134 164.405 109.419 164.053 109.619C156.839 112.391 149.595 115.084 142.322 117.697C139.244 118.811 139.255 118.553 138.437 115.405C136.834 109.236 134.948 103.142 133.189 97.015C132.708 95.3402 132.259 93.6518 131.73 91.7328C134.082 90.893 136.484 90.2023 138.923 89.6646C139.412 89.5776 140.486 91.1644 140.807 92.141C141.503 94.2533 141.842 96.481 142.418 98.6353C142.703 99.7017 143.187 100.707 143.729 102.127C146.103 97.7788 146.283 93.5054 145.565 89.1655C145.07 85.8631 143.783 82.7292 141.816 80.031C139.848 77.3329 137.257 75.1503 134.264 73.6693C130.968 72.0301 127.327 71.2053 123.647 71.2641C115.791 71.4018 109.599 75.1978 105.425 81.9224C103.141 85.6718 102.102 90.0479 102.458 94.4239C102.814 98.7998 104.547 102.951 107.407 106.282C109.747 108.747 112.329 110.971 115.113 112.922C115.756 113.304 116.282 113.854 116.634 114.514C116.986 115.174 117.15 115.918 117.109 116.665C117.02 119.217 117.086 121.771 117.086 124.911C114.816 123.335 112.875 122.151 111.121 120.736C107.859 118.099 104.59 115.457 101.537 112.591C97.228 108.547 95.2544 103.202 94.3823 97.5522C93.5475 92.8029 93.9208 87.9199 95.4678 83.3527C97.0148 78.7855 99.6857 74.6809 103.235 71.4165C111.073 63.8335 120.618 61.472 131.322 63.7914C135.085 64.5942 138.647 66.1491 141.794 68.3626C144.941 70.576 147.608 73.4026 149.636 76.6724C151.798 80.0015 153.264 83.7334 153.946 87.6437C154.628 91.554 154.513 95.5617 153.606 99.4261C153.246 101.13 152.837 102.823 152.368 104.898Z" fill="white"/>
<path d="M129.255 85.6843V163.995C126.756 163.995 124.38 164.034 122.007 163.979C120.285 163.944 120.813 162.553 120.811 161.635C120.785 149.221 120.781 136.806 120.8 124.389C120.8 112.377 120.85 100.366 120.758 88.3482C120.741 86.2632 121.256 85.4273 123.431 85.6421C125.252 85.8267 127.104 85.6843 129.255 85.6843Z" fill="white"/>
</g>
</g>
<defs>
<linearGradient id="paint0_linear_242_94036" x1="210.753" y1="33.7462" x2="51.5024" y2="221.497" gradientUnits="userSpaceOnUse">
<stop stop-color="#B6509E"/>
<stop offset="1" stop-color="#2EBAC6"/>
</linearGradient>
<linearGradient id="paint1_linear_242_94036" x1="220.703" y1="130.164" x2="29.2969" y2="130.738" gradientUnits="userSpaceOnUse">
<stop stop-color="#075EB6"/>
<stop offset="1" stop-color="#0377FC"/>
</linearGradient>
<clipPath id="clip0_242_94036">
<rect width="250" height="250" rx="125" fill="white"/>
</clipPath>
</defs>
</svg>
