<svg width="250" height="250" viewBox="0 0 250 250" fill="none" xmlns="http://www.w3.org/2000/svg">
<rect width="250" height="250" rx="125" fill="white"/>
<path d="M219.75 121.649V101.114C219.75 99.8088 218.714 98.7724 217.409 98.7724H175.263L142.368 23.5779C141.792 22.3112 140.526 21.4668 139.144 21.4668H111.316C109.934 21.4668 108.667 22.2729 108.091 23.5779L74.851 98.7724H32.0914C30.7864 98.7724 29.75 99.8088 29.75 101.114V121.649C29.75 122.954 30.7864 123.991 32.0914 123.991H63.7197L31.0167 197.919C30.249 199.646 31.5157 201.603 33.4348 201.603H57.7702C59.0369 201.603 60.1884 200.836 60.6874 199.684L124.405 47.6448L187.239 199.569C187.853 201.028 189.273 201.987 190.885 201.987H216.603C218.407 201.987 219.635 200.106 218.906 198.456L186.318 123.991H217.447C218.714 123.991 219.75 122.916 219.75 121.649Z" fill="#1E242C"/>
</svg>
