<svg width="250" height="250" viewBox="0 0 250 250" fill="none" xmlns="http://www.w3.org/2000/svg">
<rect width="250" height="250" rx="125" fill="white"/>
<mask id="mask0_242_94042" style="mask-type:luminance" maskUnits="userSpaceOnUse" x="18" y="18" width="214" height="214">
<path d="M231.249 18.75H18.749V231.25H231.249V18.75Z" fill="white"/>
</mask>
<g mask="url(#mask0_242_94042)">
<path d="M124.999 231.254C117.806 231.256 110.631 230.533 103.583 229.096C89.9925 226.312 77.0827 220.88 65.5907 213.108C48.5082 201.577 35.1365 185.339 27.0958 166.362C24.3801 159.935 22.3072 153.256 20.9076 146.42C18.0295 132.29 18.0295 117.725 20.9076 103.594C23.6913 90.0033 29.1237 77.0936 36.8949 65.6015C48.4263 48.5181 64.6647 35.1455 83.6424 27.1042C90.0688 24.3872 96.7483 22.3132 103.583 20.9126C117.714 18.0343 132.279 18.0343 146.41 20.9126C160 23.6962 172.91 29.1286 184.402 36.8999C201.485 48.4313 214.857 64.6693 222.897 83.6466C225.615 90.0731 227.69 96.753 229.091 103.588C231.969 117.719 231.969 132.284 229.091 146.415C226.308 160.006 220.875 172.915 213.104 184.407C201.572 201.489 185.334 214.861 166.357 222.902C159.931 225.62 153.251 227.694 146.415 229.096C139.367 230.533 132.192 231.256 124.999 231.254ZM124.999 30.1373C118.578 30.1358 112.172 30.7816 105.88 32.0647C93.7451 34.5499 82.2183 39.4005 71.9574 46.3396C56.7072 56.6367 44.7701 71.135 37.5922 88.0784C35.1665 93.817 33.3149 99.7817 32.0647 105.885C29.4949 118.502 29.4949 131.506 32.0647 144.123C34.5508 156.258 39.4022 167.784 46.342 178.045C56.6382 193.297 71.1364 205.236 88.08 212.416C93.819 214.841 99.784 216.692 105.888 217.942C118.504 220.513 131.509 220.513 144.125 217.942C156.261 215.457 167.787 210.606 178.047 203.665C193.295 193.368 205.23 178.871 212.407 161.93C214.832 156.191 216.684 150.226 217.934 144.123C220.504 131.506 220.504 118.502 217.934 105.885C215.448 93.7506 210.596 82.2243 203.657 71.9641C193.362 56.7143 178.866 44.7767 161.925 37.5972C156.186 35.1716 150.221 33.3201 144.118 32.0697C137.826 30.7852 131.421 30.1373 124.999 30.1373Z" fill="url(#paint0_linear_242_94042)"/>
<path d="M169.51 153.389C175.404 161.314 181.49 169.423 187.572 177.533C175.408 191.908 160.295 201.124 142.049 204.993C121.776 209.233 102.609 206.099 83.9945 195.78C100.581 183.427 116.8 171.266 133.202 159.106C136.889 162.608 140.39 166.109 143.892 169.427C147.763 173.113 146.288 173.298 151.264 170.533C158.037 166.672 163.837 161.314 168.22 154.867C168.404 154.499 168.773 154.13 168.957 153.762C168.773 153.762 168.957 153.762 169.51 153.393V153.389ZM97.0799 169.608C92.4721 173.11 88.2337 176.243 83.9945 179.561C80.8618 181.956 77.7283 184.168 74.5955 186.564C73.3056 187.67 72.3842 187.67 70.9092 186.38C56.9024 173.846 48.0563 158.366 44.7385 139.936C41.4181 121.322 44.3699 103.629 53.216 86.8575C53.4003 86.4889 53.7689 85.9361 53.9532 85.5675C53.9532 85.3833 54.1374 85.3833 54.506 85.199C66.6716 101.233 79.0182 117.27 91.1822 133.3C90.9196 133.761 90.6109 134.193 90.2608 134.59C86.5744 138.461 82.8888 142.331 79.0182 146.017C77.9125 147.123 77.7282 148.044 78.4654 149.337C82.2947 156.594 87.7125 162.893 94.3149 167.765C95.2363 168.32 95.9734 168.871 97.0799 169.608ZM165.824 55.1576C159.93 59.3968 154.028 63.6352 148.13 67.6918C137.994 74.8795 127.857 82.2514 117.905 89.4399C116.615 90.3612 115.694 90.5455 114.585 89.2556C111.264 85.7535 107.765 82.6208 104.448 79.1187C104.07 78.6786 103.551 78.383 102.98 78.2822C102.409 78.1814 101.821 78.2816 101.315 78.5658C93.5844 82.5631 86.9437 88.3827 81.9666 95.5218C81.5544 95.979 81.1844 96.4724 80.861 96.9961C77.9125 93.1254 75.1475 89.6241 72.3834 85.9378C69.4349 82.0671 66.67 78.1973 63.9058 74.5109C62.9844 73.221 62.8001 72.2996 64.0901 71.0088C78.2844 55.3436 95.7899 46.128 116.8 43.9167C133.387 42.0739 149.237 45.3909 163.981 53.3157C164.534 53.6842 165.086 53.8685 165.641 54.2371C165.639 54.7891 165.639 54.9734 165.824 55.1576ZM195.865 165.737C191.994 160.761 188.493 156.154 184.991 151.543C176.882 140.853 168.773 129.98 160.479 119.29C159.373 117.816 159.373 116.895 160.663 115.604C164.165 112.102 167.482 108.601 170.984 105.098C171.906 104.177 172.274 103.256 171.537 101.966C167.56 94.278 161.813 87.6453 154.769 82.6141C154.186 82.1413 153.571 81.7102 152.927 81.3242C153.48 80.7714 154.032 80.4028 154.401 80.0342C161.404 74.6894 168.408 69.5288 175.411 64.1847C176.517 63.2633 177.438 62.8948 178.731 64.1847C196.24 80.0342 205.639 99.7544 206.561 123.53C206.91 137.167 203.804 150.672 197.53 162.786C196.857 163.698 196.298 164.689 195.865 165.737Z" fill="#231815"/>
</g>
<defs>
<linearGradient id="paint0_linear_242_94042" x1="197.887" y1="47.4415" x2="62.5244" y2="207.03" gradientUnits="userSpaceOnUse">
<stop stop-color="#B6509E"/>
<stop offset="1" stop-color="#2EBAC6"/>
</linearGradient>
</defs>
</svg>
