<svg width="250" height="250" viewBox="0 0 250 250" fill="none" xmlns="http://www.w3.org/2000/svg">
<g clip-path="url(#clip0_242_93261)">
<path d="M125 250C56.05 250 0 193.95 0 125C0 79.95 24.4 38.2 63.65 16.05C82.3 5.55 103.5 0 125 0C193.95 0 250 56.05 250 125C250 193.95 193.95 250 125 250ZM73.65 183.8C73.65 212.5 97 235.9 125.75 235.9C154.45 235.9 177.85 212.55 177.85 183.8C177.85 155.05 154.5 131.7 125.75 131.7C97.05 131.7 73.65 155.05 73.65 183.8ZM60.25 34.05C31.1 54.9 13.4 88.75 13.4 125C13.4 168.4 38.3 206.05 74.55 224.55C65.85 213.65 60.55 199.9 60.3 184.9V34.05H60.25ZM125.75 118.3C161.85 118.3 191.25 147.65 191.25 183.8C191.25 198.6 186.3 212.25 178 223.25C212.9 204.35 236.6 167.4 236.6 125.05C236.6 63.5 186.55 13.45 125 13.45C107.1 13.45 89.45 17.75 73.65 25.95V144.2C85.65 128.45 104.55 118.3 125.75 118.3Z" fill="url(#paint0_linear_242_93261)"/>
</g>
<defs>
<linearGradient id="paint0_linear_242_93261" x1="125" y1="6.69645" x2="125" y2="243.304" gradientUnits="userSpaceOnUse">
<stop stop-color="#DC84DB"/>
<stop offset="1" stop-color="#0C24CF"/>
</linearGradient>
<clipPath id="clip0_242_93261">
<rect width="250" height="250" rx="125" fill="white"/>
</clipPath>
</defs>
</svg>
