<svg width="250" height="250" viewBox="0 0 250 250" fill="none" xmlns="http://www.w3.org/2000/svg">
<rect width="250" height="250" rx="125" fill="white"/>
<path d="M163.028 135.873C151.585 138.147 138.566 139.357 124.996 139.357C111.426 139.357 98.4068 138.147 86.9643 135.873C56.2675 140.714 34.9961 151.24 34.9961 163.416C34.9961 180.212 75.3017 193.782 124.996 193.782C174.69 193.782 214.996 180.176 214.996 163.416C214.996 151.24 193.725 140.714 163.028 135.873Z" fill="black"/>
<path d="M124.922 82.182C154.576 82.182 178.614 74.3006 178.614 64.5783C178.614 54.8561 154.576 46.9746 124.922 46.9746C95.2692 46.9746 71.2305 54.8561 71.2305 64.5783C71.2305 74.3006 95.2692 82.182 124.922 82.182Z" fill="black"/>
<path d="M148.798 86.2207C141.17 87.3943 132.954 87.9811 124.923 87.9811C116.928 87.9811 108.749 87.3943 101.121 86.2207C73.3212 89.4847 53.3701 98.3233 53.3701 108.665C53.3701 121.832 85.4239 132.467 124.996 132.467C164.568 132.467 196.622 121.795 196.622 108.665C196.622 98.3233 176.634 89.4847 148.798 86.2207Z" fill="black"/>
</svg>
