<svg width="250" height="250" viewBox="0 0 250 250" fill="none" xmlns="http://www.w3.org/2000/svg">
<path d="M124.77 248.27C193.17 248.27 248.62 192.821 248.62 124.42C248.62 56.0198 193.17 0.570312 124.77 0.570312C56.3694 0.570312 0.919922 56.0198 0.919922 124.42C0.919922 192.821 56.3694 248.27 124.77 248.27Z" fill="#3200F7"/>
<path d="M185.155 65.3864L164.453 120.721L177.018 125.421L197.719 70.087L185.155 65.3864Z" fill="white"/>
<path d="M129.661 97.0679L112.805 142.123L125.369 146.824L142.225 101.769L129.661 97.0679Z" fill="white"/>
<path d="M174.43 130.682L157.41 176.202C157.135 176.942 156.425 177.432 155.635 177.432L145.35 177.417C144.03 177.417 143.12 176.097 143.58 174.862L161.865 125.982C162.23 125.002 163.32 124.507 164.3 124.872L173.32 128.247C174.3 128.612 174.8 129.702 174.43 130.682Z" fill="white"/>
<path d="M82.83 142.463L69.985 176.203C69.71 176.943 69 177.433 68.21 177.433L57.925 177.418C56.605 177.418 55.695 176.098 56.155 174.863L70.265 137.763C70.63 136.783 71.72 136.288 72.7 136.653L81.72 140.028C82.7 140.393 83.195 141.483 82.83 142.463Z" fill="white"/>
<path d="M122.865 152.983L114.255 176.798C113.98 177.538 113.27 178.028 112.48 178.028L102.195 178.013C100.875 178.013 99.9645 176.693 100.425 175.458L110.3 148.283C110.665 147.303 111.755 146.808 112.735 147.173L121.755 150.548C122.735 150.913 123.23 152.003 122.865 152.983Z" fill="white"/>
<path d="M97.2344 81.5605C97.2344 81.5605 105.214 83.3355 113.834 91.9505C122.454 100.566 125.619 109.181 125.619 109.181C125.619 109.181 114.594 104.621 108.009 98.0305C101.414 91.4455 97.2344 81.5605 97.2344 81.5605Z" fill="white"/>
<path d="M101.714 109.246C101.714 109.246 105.859 106.605 113.184 106.605C120.509 106.605 125.514 108.921 125.514 108.921C125.514 108.921 118.889 111.666 113.289 111.666C107.689 111.666 101.714 109.246 101.714 109.246Z" fill="white"/>
</svg>
