<svg width="250" height="250" viewBox="0 0 250 250" fill="none" xmlns="http://www.w3.org/2000/svg">
<rect width="250" height="250" rx="125" fill="white"/>
<path d="M186.276 123.33C186.776 122.76 187.382 122.189 187.953 121.583C189.807 119.585 191.876 117.481 193.802 115.412C201.577 107.316 205.857 96.83 205.857 85.7733C205.857 84.9887 206 81.85 206 81.422C205.108 56.1343 183.601 35.5547 158.207 35.5547H78.2069V67.512H46V211.498H159.455C184.671 211.498 205.964 189.314 205.964 163.027C206.036 144.231 194.301 130.963 186.276 123.33ZM94.2568 83.562L157.957 83.6333L117.904 123.794L157.494 163.562H94.2568V83.562ZM159.455 195.413H62.0499V83.4907H78.2069V179.505H157.494C164.021 179.505 169.87 175.582 172.366 169.554C174.863 163.527 173.508 156.679 168.907 152.042L140.623 123.723L169.37 94.9397C173.971 90.3387 175.327 83.455 172.83 77.4273C170.333 71.3997 164.484 67.4763 157.957 67.4763H94.2925V51.569H158.243C175.184 51.569 189.415 65.2293 189.986 81.85C189.986 82.5633 189.843 85.3097 189.843 85.381V85.702C189.843 95.0823 185.099 101.431 182.21 104.356C180.213 106.424 178.18 108.6 176.325 110.526C173.187 113.807 170.476 116.625 169.192 117.909L163.45 123.544L169.156 129.251C169.941 130.036 170.904 130.927 172.045 131.997C178.715 138.168 189.95 148.404 189.95 162.92C189.986 180.219 175.755 195.413 159.455 195.413Z" fill="#6356AB"/>
</svg>
