<svg width="250" height="250" viewBox="0 0 250 250" fill="none" xmlns="http://www.w3.org/2000/svg">
<g clip-path="url(#clip0_242_94051)">
<path fill-rule="evenodd" clip-rule="evenodd" d="M70.7324 142.531L124.081 169.244V212.195L70.7324 142.531Z" fill="white"/>
<path fill-rule="evenodd" clip-rule="evenodd" d="M180.879 142.531L127.342 212.195V169.244L180.879 142.531Z" fill="white"/>
<path fill-rule="evenodd" clip-rule="evenodd" d="M249.705 124.765C249.705 193.458 194.02 249.143 125.327 249.143C56.6345 249.143 0.949219 193.458 0.949219 124.765C0.949219 56.072 56.6345 0.386719 125.327 0.386719C194.02 0.386719 249.705 56.072 249.705 124.765Z" fill="#F99400"/>
<path fill-rule="evenodd" clip-rule="evenodd" d="M153.641 142.223C153.641 168.2 132.581 189.26 106.604 189.26C80.6261 189.26 59.5664 168.2 59.5664 142.223C59.5664 116.245 80.6261 95.1855 106.604 95.1855C132.581 95.1855 153.641 116.245 153.641 142.223Z" fill="white"/>
<path fill-rule="evenodd" clip-rule="evenodd" d="M191.087 51.5834C191.087 60.6418 183.743 67.9851 174.685 67.9851C165.626 67.9851 158.283 60.6418 158.283 51.5834C158.283 42.5249 165.626 35.1816 174.685 35.1816C183.743 35.1816 191.087 42.5249 191.087 51.5834Z" fill="white"/>
<path fill-rule="evenodd" clip-rule="evenodd" d="M121.069 61.2088C121.069 69.1963 114.594 75.6715 106.606 75.6715C98.6184 75.6715 92.1445 69.1963 92.1445 61.2088C92.1445 53.2212 98.6184 46.7461 106.606 46.7461C114.594 46.7461 121.069 53.2212 121.069 61.2088Z" fill="white"/>
<path fill-rule="evenodd" clip-rule="evenodd" d="M179.041 189.846C179.041 197.74 172.641 204.14 164.747 204.14C156.852 204.14 150.453 197.74 150.453 189.846C150.453 181.951 156.852 175.551 164.747 175.551C172.641 175.551 179.041 181.951 179.041 189.846Z" fill="white"/>
<path fill-rule="evenodd" clip-rule="evenodd" d="M100.682 106.668H112.162V69.8086H100.682V106.668Z" fill="white"/>
<path fill-rule="evenodd" clip-rule="evenodd" d="M126.685 114.867L118.16 107.177L164.776 55.5039L173.301 63.1942L126.685 114.867Z" fill="white"/>
<path fill-rule="evenodd" clip-rule="evenodd" d="M161.504 194.36L169.622 186.242L120.413 137.033L112.295 145.151L161.504 194.36Z" fill="white"/>
</g>
<defs>
<clipPath id="clip0_242_94051">
<rect width="250" height="250" rx="125" fill="white"/>
</clipPath>
</defs>
</svg>
