<svg width="250" height="250" viewBox="0 0 250 250" fill="none" xmlns="http://www.w3.org/2000/svg">
<path d="M169.897 22.4805L207.21 39.9743L244.22 90.029L124.998 226.441L4.16016 89.9278L42.8894 40.4798L82.832 22.4805H169.897Z" fill="white"/>
<path d="M247.83 90.2627C206.966 136.679 166.18 183.007 124.989 229.795C83.8903 183.11 43.05 136.718 2.10547 90.207C9.87822 79.9852 17.5753 69.8818 25.2508 59.762C29.9138 53.6142 34.6413 47.5113 39.1451 41.2482C41.254 38.3154 44.4071 37.2278 47.3655 35.8156C57.6006 30.9292 67.9201 26.2198 78.1716 21.3673C79.8285 20.583 81.4742 20.1677 83.2818 20.1679C111.806 20.1732 140.329 20.1777 168.853 20.1543C173.4 20.1506 176.856 22.9852 180.683 24.7208C189.869 28.8873 198.851 33.5021 207.959 37.8448C209.156 38.4156 210.092 39.1503 210.833 40.153C223.099 56.7433 235.346 73.3468 247.83 90.2627ZM113.146 208.718C113.18 208.872 113.213 209.027 113.165 208.807C113.183 209.049 113.173 208.91 113.163 208.771C110.762 204.593 108.232 200.495 105.872 196.287C92.9865 173.309 79.911 150.437 67.0051 127.47C64.9616 123.834 62.5778 120.971 58.6686 119.085C48.818 114.333 39.1495 109.202 29.4156 104.209C24.2695 101.568 19.1392 98.8976 13.3117 95.8838C14.1105 97.0994 14.3892 97.6587 14.7885 98.1115C25.4777 110.238 36.2055 122.331 46.8732 134.477C67.3002 157.734 87.6736 181.039 108.146 204.256C109.598 205.903 110.737 208.071 113.146 208.718ZM67.5618 119.844C86.578 153.338 105.588 186.822 124.841 220.733C125.621 219.606 125.943 219.214 126.188 218.778C130.918 210.33 135.643 201.879 140.361 193.424C153.76 169.415 167.133 145.393 180.595 121.421C181.572 119.681 181.612 118.165 181.116 116.371C177.918 104.82 174.778 93.2538 171.602 81.6973C169.813 75.1877 167.991 68.687 166.147 62.0492C138.924 62.0492 111.908 62.0492 84.267 62.0492C78.7648 81.0849 73.2246 100.253 67.5618 119.844ZM202.525 40.8003C201.713 40.0769 201.456 39.7265 201.111 39.5589C192.395 35.3234 183.683 31.0804 174.937 26.9062C172.71 25.8433 170.61 24.5519 167.915 24.5586C140.019 24.6269 112.122 24.6044 84.2253 24.5978C82.7498 24.5974 81.385 24.8068 80.0045 25.4702C74.2798 28.2209 68.4911 30.8378 62.7402 33.5345C57.4168 36.0308 52.1117 38.5662 46.9028 41.0349C47.0171 42.1306 47.5993 42.362 48.1861 42.6107C59.416 47.3662 70.6481 52.1169 81.8657 56.9012C82.8656 57.3275 83.8693 57.4421 84.9162 57.4405C108.633 57.4076 132.355 57.092 156.065 57.4893C164.405 57.629 171.878 55.9822 179.003 51.9456C180.269 51.2282 181.639 50.694 182.958 50.0694C189.326 47.0544 195.691 44.0377 202.525 40.8003ZM185.492 115.935C204.52 106.886 222.913 98.1393 241.638 89.2353C230.185 73.7747 219.039 58.727 207.625 43.318C195.116 49.2084 182.842 54.9881 170.446 60.8254C175.476 79.2507 180.402 97.2929 185.492 115.935ZM42.1045 44.8302C30.9667 59.5064 20.0022 73.9543 8.84109 88.6614C27.3798 98.1963 45.3622 107.445 63.8353 116.946C69.2991 97.9279 74.6126 79.4325 79.951 60.8508C66.964 55.3534 54.628 50.1315 42.1045 44.8302ZM137.498 207.214C137.813 207.433 138.128 207.651 138.443 207.869C170.556 171.39 202.669 134.911 234.82 98.3893C233.628 97.5552 232.924 98.2327 232.224 98.5649C218.02 105.308 203.85 112.124 189.606 118.782C187.097 119.955 185.406 121.572 184.08 123.963C170.858 147.805 157.568 171.61 144.278 195.414C142.067 199.375 139.761 203.282 137.498 207.214Z" fill="#494949"/>
<path d="M96.5779 142.72C105.626 142.094 105.589 144.035 105.516 133.283C105.452 123.987 105.487 114.691 105.478 105.395C105.473 100.545 104.184 99.2476 99.4076 99.1523C97.9631 99.1234 96.4866 99.4338 94.7085 98.7538C94.1543 96.2779 94.3122 93.6569 94.6883 90.5793C100.063 90.5793 105.325 90.5793 110.75 90.5793C112.087 85.9661 110.685 81.524 111.679 77.1604C114.307 76.6153 116.83 76.5914 119.75 77.2205C119.75 81.3029 119.75 85.32 119.75 89.2993C122.004 90.2531 123.907 89.9945 126.015 89.6406C126.9 85.5159 125.802 81.3153 126.644 77.1614C129.217 76.469 131.683 76.9078 134.432 76.8505C135.408 81.2834 134.375 85.6853 135.119 90.1575C138.697 90.8501 142.312 91.2306 145.696 92.639C156.397 97.0929 158.652 108.452 150.388 116.607C149.925 117.064 149.532 117.494 149.517 118.343C152.136 119.521 154.868 120.561 156.805 122.869C164.55 132.1 159.37 147.502 147.465 150.518C143.534 151.514 139.632 152.74 135.284 152.352C134.367 156.883 135.379 161.283 134.638 165.812C131.968 166.594 129.365 166.379 126.457 165.807C126.457 161.656 126.457 157.636 126.457 153.815C124.538 151.856 122.525 152.739 120.366 152.506C119.329 157.017 120.615 161.427 119.73 165.866C117.019 166.285 114.393 166.388 111.412 165.685C111.412 161.373 111.412 157.142 111.412 152.463C105.809 152.463 100.55 152.463 94.9009 152.463C95.1589 148.849 95.2524 145.728 96.5779 142.72ZM120.179 142.505C126.323 142.574 132.062 142.983 137.597 141.011C140.728 139.895 143.045 137.909 143.527 134.392C143.94 131.381 142.695 128.914 140.223 127.447C134.005 123.756 127.177 124.149 120.179 124.524C120.179 130.691 120.179 136.372 120.179 142.505ZM120.144 116.092C125.017 116.431 129.469 116.4 133.802 115.064C137.266 113.996 139.39 111.401 139.509 108.394C139.645 104.99 137.919 102.369 134.35 101.016C129.774 99.2823 125.036 99.5323 120.144 99.9154C120.144 105.382 120.144 110.535 120.144 116.092Z" fill="#FCC72B"/>
</svg>
