<svg width="250" height="250" viewBox="0 0 250 250" fill="none" xmlns="http://www.w3.org/2000/svg">
<rect width="250" height="250" rx="125" fill="#3FBB3A"/>
<path d="M171.231 78.7088C164.201 62.6959 148.061 59.3694 128.265 62.6396L121.91 38L106.895 41.8906L113.137 66.5301C109.201 67.545 105.152 68.3907 101.159 69.5184L94.8603 45.0479L79.8448 48.9385L86.1996 73.6346C82.994 74.5366 56 81.5283 56 81.5283L60.1617 97.5975C60.1617 97.5975 71.1844 94.4964 71.0719 94.7784C77.1455 93.1997 80.0137 96.2442 81.4197 99.1199L98.8533 166.78C99.0783 168.754 98.7408 172.137 94.5229 173.208C94.748 173.321 83.6128 176.027 83.6128 176.027L85.2438 194.747C85.2438 194.747 111.957 187.868 115.5 187.022L121.967 212L136.926 208.109L130.515 182.962C134.677 182.004 138.614 180.989 142.55 179.974L148.961 205.008L163.977 201.118L157.566 176.196C180.623 170.558 196.932 156.011 193.558 133.683C191.421 120.264 176.799 109.213 164.595 107.972C172.075 101.15 175.899 91.4519 171.232 78.7091L171.231 78.7088ZM164.032 137.573C167.013 159.675 136.42 162.382 126.241 165.032L117.411 131.991C127.647 129.341 159.027 118.121 164.032 137.573V137.573ZM145.587 92.6356C148.736 112.257 122.585 114.569 114.094 116.768L106.052 86.7719C114.543 84.5728 139.176 74.4238 145.587 92.6359L145.587 92.6356Z" fill="white"/>
</svg>
