<svg width="250" height="250" viewBox="0 0 250 250" fill="none" xmlns="http://www.w3.org/2000/svg">
<path d="M202.178 129.083L128.923 171.468C126.508 172.868 123.533 172.868 121.118 171.503L87.7281 152.638C84.4731 150.783 82.4781 147.353 82.4781 143.608V106.718C82.4781 103.113 84.3681 99.788 87.4831 97.968L119.928 78.823C122.623 77.248 125.913 77.213 128.643 78.718L145.723 88.238C146.563 88.693 146.563 89.918 145.723 90.373L107.748 112.108C106.278 112.948 105.368 114.488 105.368 116.168V133.913C105.368 135.173 106.033 136.363 107.118 137.028L122.798 146.373C124.163 147.213 125.913 147.213 127.278 146.408L192.378 108.818C205.433 101.293 205.398 82.428 192.343 74.938L132.213 40.428C127.768 37.873 122.308 37.873 117.863 40.428L56.0181 75.988C51.0831 78.823 48.0381 84.073 48.0381 89.778V160.793C48.0381 165.938 50.7681 170.698 55.2131 173.323L116.008 209.023C121.398 212.173 128.048 212.208 133.473 209.093L194.303 173.918C199.203 171.083 202.213 165.868 202.213 160.198V129.083H202.178Z" fill="url(#paint0_linear_242_93270)"/>
<defs>
<linearGradient id="paint0_linear_242_93270" x1="125.12" y1="211.402" x2="125.12" y2="38.5097" gradientUnits="userSpaceOnUse">
<stop stop-color="#1DADE2"/>
<stop offset="1" stop-color="#2155AC"/>
</linearGradient>
</defs>
</svg>
