<svg width="250" height="250" viewBox="0 0 250 250" fill="none" xmlns="http://www.w3.org/2000/svg">
<g clip-path="url(#clip0_242_94651)">
<rect width="250" height="250" rx="125" fill="white"/>
<g clip-path="url(#clip1_242_94651)">
<path d="M210.807 46.1453H232.36L234.347 35.1398H206.681C196.592 35.1398 191.395 39.8782 191.395 39.8782C190.172 34.9869 181.154 35.1398 181.154 35.1398H173.97L176.415 23.6758H169.537L167.244 35.1398H160.824L163.117 23.6758H156.239L153.946 35.1398H146.915L143.093 52.8708L138.355 35.1398H122.458L93.874 77.9389H117.872L120.471 66.7806H115.274L128.877 45.8396L134.992 66.7806H129.489L127.349 77.9389H145.386L143.551 85.8873H150.43L152.111 77.9389H158.378L156.391 85.8873H163.422L165.41 77.9389H172.899C181.459 77.7861 184.975 72.589 184.975 72.589C191.089 78.7032 198.12 77.9389 198.12 77.9389H225.634L227.774 66.9334H206.833C203.317 66.9334 191.471 68.0449 193.076 56.5394C193.993 49.9667 200.107 46.1454 210.807 46.1454L210.807 46.1453ZM175.651 64.0292C175.193 66.4748 172.594 66.7806 172.594 66.7806H154.251L155.474 61.125H173.664C173.664 61.125 176.11 61.5835 175.651 64.0293V64.0292ZM178.555 49.0494C178.097 51.495 175.498 51.8008 175.498 51.8008H157.156L158.378 46.1453H176.568C176.568 46.1453 179.014 46.6038 178.555 49.0495V49.0494Z" fill="#FF9900"/>
</g>
<g clip-path="url(#clip2_242_94651)">
<path d="M77.9649 238.666C114.747 238.666 144.564 208.848 144.564 172.066C144.564 135.284 114.747 105.467 77.9649 105.467C41.1829 105.467 11.3652 135.284 11.3652 172.066C11.3652 208.848 41.1829 238.666 77.9649 238.666Z" fill="#0AC18E"/>
<path d="M98.6796 149.778C95.343 142.197 87.682 140.623 78.286 142.171L75.2697 130.506L68.1426 132.348L71.1056 144.013C69.2371 144.493 67.3152 144.894 65.42 145.427L62.4304 133.843L55.3033 135.684L58.3196 147.376C56.7981 147.803 43.9854 151.113 43.9854 151.113L45.9607 158.721C45.9607 158.721 51.1926 157.253 51.1392 157.386C54.022 156.639 55.3835 158.08 56.0508 159.441L64.3257 191.473C64.4325 192.408 64.2723 194.009 62.2703 194.516C62.3771 194.57 57.0918 195.851 57.0918 195.851L57.8659 204.713C57.8659 204.713 70.5451 201.457 72.2269 201.056L75.2966 212.881L82.3971 211.039L79.354 199.134C81.3293 198.68 83.1979 198.2 85.0664 197.72L88.1095 209.571L95.2365 207.729L92.1935 195.931C103.138 193.262 110.879 186.375 109.277 175.804C108.263 169.451 101.323 164.22 95.5301 163.632C99.0804 160.402 100.896 155.811 98.68 149.778L98.6796 149.778ZM95.2629 177.646C96.6776 188.11 82.1565 189.391 77.3251 190.646L73.1343 175.003C77.9924 173.749 92.8873 168.437 95.2629 177.646ZM86.5076 156.372C88.0024 165.661 75.5901 166.755 71.5595 167.796L67.7424 153.596C71.773 152.554 83.4647 147.75 86.5077 156.372L86.5076 156.372Z" fill="white"/>
</g>
</g>
<defs>
<clipPath id="clip0_242_94651">
<rect width="250" height="250" rx="125" fill="white"/>
</clipPath>
<clipPath id="clip1_242_94651">
<rect width="140.473" height="140.473" fill="white" transform="translate(93.875 -15.459)"/>
</clipPath>
<clipPath id="clip2_242_94651">
<rect width="133.199" height="133.199" fill="white" transform="translate(11.3652 105.467)"/>
</clipPath>
</defs>
</svg>
