<svg width="250" height="250" viewBox="0 0 250 250" fill="none" xmlns="http://www.w3.org/2000/svg">
<rect width="250" height="250" rx="125" fill="white"/>
<g clip-path="url(#clip0_242_94571)">
<path d="M125.015 238.666C187.783 238.666 238.667 187.782 238.667 125.015C238.667 62.2467 187.783 11.3633 125.015 11.3633C62.2477 11.3633 11.3643 62.2467 11.3643 125.015C11.3643 187.782 62.2477 238.666 125.015 238.666Z" fill="#E3BE34"/>
<path d="M156.128 120.334C163.372 116.512 168.33 109.7 167.242 98.7871C164.963 84.8377 152.976 78.9676 136.791 77.5179L136.783 56.957L124.221 56.9602L124.141 77.4981C120.848 77.4949 117.502 77.3367 114.143 77.4104L114.145 56.9934L101.583 56.9966L101.58 77.6016C98.8833 77.6582 76.3008 77.6618 76.3008 77.6618L76.3194 91.0745C76.3194 91.0745 85.5904 90.8803 85.4452 91.0781C90.5274 91.0729 92.162 94.0353 92.6838 96.5693L92.6929 153.026C92.4708 154.615 91.523 157.193 87.9987 157.177C88.1523 157.311 78.8729 157.173 78.8729 157.173L76.3717 172.147C76.3717 172.147 98.711 172.174 101.66 172.23L101.688 193.078L114.206 193.064L114.256 172.095C117.714 172.187 121.006 172.191 124.298 172.194L124.271 193.075L136.833 193.071L136.838 172.279C156.059 172.536 171.788 164.459 173.65 146.31C174.684 135.38 165.449 123.775 156.128 120.334H156.128ZM144.318 104.489C142.825 120.475 121.849 116.989 114.745 116.99L114.496 91.8975C121.599 91.8968 142.967 88.9449 144.318 104.489V104.489ZM114.525 157.204L114.273 129.57C122.835 129.569 149.712 127.146 149.709 143.376C147.583 161.268 123.043 157.191 114.525 157.203L114.525 157.204Z" fill="white"/>
</g>
<defs>
<clipPath id="clip0_242_94571">
<rect width="227.302" height="227.302" fill="white" transform="translate(11.3643 11.3633)"/>
</clipPath>
</defs>
</svg>
