<svg width="250" height="250" viewBox="0 0 250 250" fill="none" xmlns="http://www.w3.org/2000/svg">
<g clip-path="url(#clip0_242_93272)">
<path d="M124.791 108.219C134.067 108.219 141.569 115.722 141.569 124.999C141.569 134.276 134.067 141.728 124.791 141.728C115.514 141.728 108.012 134.225 108.012 124.948C108.012 115.671 115.514 108.219 124.791 108.219ZM124.791 98.2832C110.09 98.2832 98.0762 110.247 98.0762 124.999C98.0762 139.7 110.039 151.715 124.791 151.715C139.542 151.715 151.505 139.751 151.505 124.999C151.505 110.247 139.491 98.2832 124.791 98.2832Z" fill="#00FFF4"/>
<path d="M124.791 40.1977C134.067 40.1977 141.569 47.7004 141.569 56.9774C141.569 66.2544 134.067 73.757 124.791 73.757C115.514 73.757 108.012 66.2544 108.012 56.9774C108.012 47.7004 115.514 40.1977 124.791 40.1977ZM124.791 30.2617C110.09 30.2617 98.0762 42.2255 98.0762 56.9774C98.0762 71.7293 110.039 83.693 124.791 83.693C139.542 83.693 151.505 71.7293 151.505 56.9774C151.505 42.2255 139.491 30.2617 124.791 30.2617Z" fill="#02CEC8"/>
<path d="M124.791 176.198C134.067 176.198 141.569 183.7 141.569 192.977C141.569 202.254 134.067 209.757 124.791 209.757C115.514 209.757 108.012 202.254 108.012 192.977C108.012 183.7 115.514 176.198 124.791 176.198ZM124.791 166.312C110.09 166.312 98.0762 178.276 98.0762 193.028C98.0762 207.729 110.039 219.744 124.791 219.744C139.542 219.744 151.505 207.78 151.505 193.028C151.505 178.276 139.491 166.312 124.791 166.312Z" fill="#02CEC8"/>
<path d="M197.889 82.7803C202.603 90.7899 199.917 101.03 191.958 105.745C183.949 110.459 173.709 107.772 168.995 99.8134C164.281 91.8038 166.967 81.5636 174.926 76.8491C182.885 72.1346 193.175 74.7707 197.889 82.7803ZM206.456 77.7109C199.004 65.0375 182.58 60.7792 169.908 68.2312C157.235 75.6832 152.977 92.108 160.428 104.781C167.88 117.455 184.304 121.713 196.977 114.261C209.65 106.809 213.908 90.4351 206.456 77.7109Z" fill="#02CEC8"/>
<path d="M79.8793 150.958C84.5936 158.968 81.907 169.208 73.9484 173.922C65.9899 178.637 55.6995 175.95 50.9852 167.991C46.2709 159.982 48.9576 149.741 56.9161 145.027C64.8747 140.312 75.165 142.948 79.8793 150.958ZM88.3955 145.939C80.9438 133.266 64.5198 129.008 51.847 136.46C39.1741 143.912 34.9161 160.336 42.3677 173.01C49.8193 185.683 66.2433 189.942 78.9162 182.49C91.6397 174.987 95.8978 158.613 88.3955 145.939Z" fill="#02CEC8"/>
<path d="M198.093 167.64C193.531 175.7 183.292 178.539 175.232 173.976C167.172 169.414 164.333 159.174 168.895 151.113C173.457 143.053 183.697 140.214 191.757 144.777C199.817 149.339 202.656 159.529 198.093 167.64ZM206.711 172.506C213.96 159.681 209.448 143.357 196.623 136.108C183.799 128.859 167.476 133.371 160.227 146.196C152.978 159.022 157.49 175.345 170.315 182.594C183.14 189.844 199.462 185.332 206.711 172.506Z" fill="#02CEC8"/>
<path d="M79.9295 99.6007C75.3673 107.661 65.1276 110.5 57.0677 105.937C49.0078 101.375 46.1691 91.1348 50.7313 83.0745C55.2935 75.0142 65.5332 72.1753 73.5931 76.7377C81.653 81.3002 84.4917 91.5403 79.9295 99.6007ZM88.5977 104.518C95.8466 91.6924 91.3351 75.369 78.5102 68.1198C65.6852 60.8706 49.3626 65.3823 42.1138 78.2079C34.8649 91.0334 39.3764 107.357 52.2013 114.606C65.0263 121.855 81.3489 117.293 88.5977 104.518Z" fill="#02CEC8"/>
<path d="M124.738 18.4464C129.89 18.4464 134.066 14.2702 134.066 9.11868C134.066 3.96715 129.89 -0.208984 124.738 -0.208984C119.587 -0.208984 115.411 3.96715 115.411 9.11868C115.411 14.2702 119.587 18.4464 124.738 18.4464Z" fill="#007C82"/>
<path d="M225.417 76.9952C230.568 76.9952 234.744 72.819 234.744 67.6675C234.744 62.516 230.568 58.3398 225.417 58.3398C220.266 58.3398 216.09 62.516 216.09 67.6675C216.09 72.819 220.266 76.9952 225.417 76.9952Z" fill="#007C82"/>
<path d="M225.417 191.917C230.568 191.917 234.744 187.741 234.744 182.589C234.744 177.438 230.568 173.262 225.417 173.262C220.266 173.262 216.09 177.438 216.09 182.589C216.09 187.741 220.266 191.917 225.417 191.917Z" fill="#007C82"/>
<path d="M124.897 250.31C130.048 250.31 134.224 246.133 134.224 240.982C134.224 235.83 130.048 231.654 124.897 231.654C119.745 231.654 115.569 235.83 115.569 240.982C115.569 246.133 119.745 250.31 124.897 250.31Z" fill="#007C82"/>
<path d="M24.2725 191.714C29.4238 191.714 33.5997 187.538 33.5997 182.386C33.5997 177.235 29.4238 173.059 24.2725 173.059C19.1212 173.059 14.9453 177.235 14.9453 182.386C14.9453 187.538 19.1212 191.714 24.2725 191.714Z" fill="#007C82"/>
<path d="M24.2725 76.8389C29.4238 76.8389 33.5997 72.6628 33.5997 67.5113C33.5997 62.3597 29.4238 58.1836 24.2725 58.1836C19.1212 58.1836 14.9453 62.3597 14.9453 67.5113C14.9453 72.6628 19.1212 76.8389 24.2725 76.8389Z" fill="#007C82"/>
</g>
<defs>
<clipPath id="clip0_242_93272">
<rect width="250" height="250" rx="125" fill="white"/>
</clipPath>
</defs>
</svg>
