<svg width="250" height="250" viewBox="0 0 250 250" fill="none" xmlns="http://www.w3.org/2000/svg">
<g clip-path="url(#clip0_242_94059)">
<path d="M124.999 250C194.035 250 249.999 194.036 249.999 125C249.999 55.9644 194.035 0 124.999 0C55.9634 0 -0.000976562 55.9644 -0.000976562 125C-0.000976562 194.036 55.9634 250 124.999 250Z" fill="#404040"/>
<path d="M124.998 210.939C77.5371 210.939 39.0605 172.463 39.0605 125.002C39.0605 77.541 77.5371 39.0645 124.998 39.0645C172.459 39.0645 210.936 77.541 210.936 125.002C210.936 172.463 172.459 210.939 124.998 210.939ZM124.998 202.33C167.701 202.33 202.326 167.705 202.326 125.002C202.326 82.2988 167.701 47.6738 124.998 47.6738C82.2949 47.6738 47.6699 82.2988 47.6699 125.002C47.6699 167.705 82.2949 202.33 124.998 202.33ZM172.209 94.6895C173.498 117.643 152.287 123.705 152.287 123.705C176.529 127.166 175.232 147.955 175.232 147.955C175.232 181.721 137.561 183.041 137.561 183.041H84.7246V66.9707H132.365C172.209 68.7051 172.209 94.6895 172.209 94.6895ZM112.006 87.7598V115.9H131.068C131.068 115.9 144.49 115.471 145.35 104.643V97.7129C145.35 97.7129 145.35 88.627 132.357 87.7598H112.006ZM147.943 151.432V144.494C147.943 144.494 147.943 135.393 134.959 134.525H111.998V162.689H133.662C133.662 162.689 147.084 162.26 147.951 151.424L147.943 151.432Z" fill="white"/>
</g>
<defs>
<clipPath id="clip0_242_94059">
<rect width="250" height="250" rx="125" fill="white"/>
</clipPath>
</defs>
</svg>
