<svg width="250" height="250" viewBox="0 0 250 250" fill="none" xmlns="http://www.w3.org/2000/svg">
<g clip-path="url(#clip0_242_94057)">
<path fill-rule="evenodd" clip-rule="evenodd" d="M249.998 125.004C249.998 194.04 194.034 250.004 124.998 250.004C55.9621 250.004 -0.00195312 194.04 -0.00195312 125.004C-0.00195312 55.968 55.9621 0.00390625 124.998 0.00390625C194.034 0.00390625 249.998 55.968 249.998 125.004Z" fill="#182C44"/>
<path fill-rule="evenodd" clip-rule="evenodd" d="M110.877 206.939C108.377 206.939 105.882 206.261 103.639 204.912C99.3761 202.347 96.8312 197.845 96.8312 192.87V159.929C96.8312 156.908 99.2794 154.46 102.3 154.46C105.321 154.46 107.769 156.908 107.769 159.929V192.87C107.769 194.46 108.824 195.266 109.278 195.539C109.732 195.812 110.938 196.366 112.342 195.622L137.98 182.029C142.92 179.41 145.807 174.509 145.704 168.919C145.602 163.329 142.536 158.537 137.503 156.102L104.094 139.934C98.3194 137.139 94.7324 131.418 94.7324 125.003C94.7324 118.588 98.3194 112.866 104.094 110.072L137.503 93.9034C142.536 91.4683 145.602 86.6769 145.704 81.0871C145.807 75.4966 142.92 70.5954 137.98 67.9766L112.342 54.3841C110.938 53.6396 109.732 54.1935 109.278 54.4669C108.824 54.7397 107.769 55.5457 107.769 57.1354V90.0767C107.769 93.0975 105.321 95.5457 102.3 95.5457C99.2794 95.5457 96.8312 93.0975 96.8312 90.0767V57.1354C96.8312 52.1603 99.3761 47.6589 103.639 45.094C107.901 42.5298 113.072 42.3896 117.467 44.7197L143.103 58.3122C151.631 62.8336 156.819 71.6375 156.641 81.2874C156.463 90.9386 150.956 99.5457 142.268 103.75L108.859 119.918C106.862 120.884 105.67 122.785 105.67 125.003C105.67 127.221 106.862 129.122 108.859 130.088L142.268 146.256C150.956 150.46 156.463 159.067 156.641 168.718C156.819 178.368 151.631 187.172 143.103 191.693L117.467 205.286C115.384 206.39 113.127 206.939 110.877 206.939Z" fill="#FFFFFE"/>
<path fill-rule="evenodd" clip-rule="evenodd" d="M177.676 104.148V145.859L204.546 125.003L177.676 104.148ZM172.206 162.497C171.388 162.497 170.564 162.314 169.802 161.939C167.926 161.021 166.738 159.115 166.738 157.028V92.9793C166.738 90.8916 167.926 88.9862 169.802 88.0677C171.676 87.1499 173.91 87.3785 175.56 88.6589L216.819 120.683C218.154 121.719 218.935 123.314 218.935 125.003C218.935 126.693 218.154 128.288 216.819 129.324L175.56 161.348C174.582 162.107 173.399 162.497 172.206 162.497ZM45.4526 125.003L72.3227 145.859V104.148L45.4526 125.003ZM77.7923 162.497C76.5997 162.497 75.4166 162.107 74.4381 161.348L33.1798 129.324C31.8448 128.288 31.0645 126.693 31.0645 125.003C31.0645 123.314 31.8448 121.719 33.1798 120.683L74.4381 88.6589C76.0879 87.3785 78.3227 87.1485 80.197 88.0677C82.072 88.9862 83.2606 90.8916 83.2606 92.9793V157.028C83.2606 159.115 82.072 161.021 80.197 161.939C79.4339 162.313 78.6107 162.497 77.7923 162.497Z" fill="#FFFFFE"/>
</g>
<defs>
<clipPath id="clip0_242_94057">
<rect width="250" height="250" rx="125" fill="white"/>
</clipPath>
</defs>
</svg>
