<svg width="250" height="250" viewBox="0 0 250 250" fill="none" xmlns="http://www.w3.org/2000/svg">
<rect width="250" height="250" rx="125" fill="white"/>
<g clip-path="url(#clip0_242_94578)">
<path d="M125.015 238.666C187.782 238.666 238.666 187.782 238.666 125.015C238.666 62.2467 187.782 11.3633 125.015 11.3633C62.2467 11.3633 11.3633 62.2467 11.3633 125.015C11.3633 187.782 62.2467 238.666 125.015 238.666Z" fill="white"/>
<path fill-rule="evenodd" clip-rule="evenodd" d="M125.018 11.3633C187.836 11.3633 238.666 62.1938 238.666 125.015C238.666 187.835 187.836 238.666 125.018 238.666C62.1861 238.666 11.3633 187.835 11.3633 125.015C11.3633 107.811 15.1501 91.3951 22.0963 76.8691C22.7309 80.6621 23.6758 84.4481 25.2558 87.9215C27.7084 93.8277 31.3031 99.1914 35.8338 103.705C40.3627 108.216 45.722 111.807 51.6158 114.282C57.4734 116.694 63.7495 117.928 70.0846 117.911H82.3971V93.7604H70.0841C66.9311 93.8045 63.8066 93.1571 60.9307 91.8638C57.9853 90.6568 55.3028 88.8884 53.0326 86.6572C50.7558 84.3954 48.9361 81.7159 47.6733 78.7655C46.5661 75.9242 45.7694 72.9268 45.7694 69.7659V69.4534C45.7694 66.2923 46.404 63.1314 47.6733 60.4536C48.8788 57.5096 50.6469 54.829 52.8785 52.5619C55.107 50.2796 57.8007 48.5038 60.7766 47.3553C63.6115 46.2472 66.7705 45.4586 69.9298 45.4586C73.0813 45.4302 76.2023 46.0769 79.0831 47.3553C82.0267 48.5612 84.7067 50.3297 86.9732 52.5619C89.1805 54.771 91.0773 57.4559 92.1845 60.4536C93.2847 63.2948 94.0746 66.4557 94.0746 69.6095V142.219C94.0554 148.585 95.3018 154.891 97.7414 160.771C100.181 166.651 103.765 171.987 108.285 176.47C112.813 180.984 118.172 184.578 124.067 187.054C135.906 191.884 149.166 191.884 161.005 187.054C166.891 184.559 172.25 180.967 176.794 176.47C181.305 171.941 184.897 166.581 187.372 160.687C189.482 155.62 190.708 150.229 190.996 144.747H191.16V140.642C191.005 134.835 189.773 129.107 187.528 123.75C185.033 117.866 181.443 112.51 176.948 107.967C172.417 103.455 167.055 99.8635 161.159 97.3902C155.303 94.9782 149.03 93.7448 142.697 93.7604H130.385V117.911H142.697C146.011 117.911 149.164 118.543 151.85 119.808C154.848 121.065 157.534 122.805 159.748 125.171C162.023 127.434 163.843 130.113 165.108 133.062C166.215 135.904 167.005 138.908 167.005 142.062V142.375C167.005 145.536 166.37 148.696 165.108 151.375C163.9 154.317 162.132 156.997 159.903 159.266C157.675 161.551 154.981 163.329 152.005 164.48C149.095 165.665 145.992 166.305 142.851 166.369C139.702 166.381 136.585 165.737 133.698 164.48C130.752 163.27 128.07 161.5 125.8 159.266C123.52 157.041 121.746 154.352 120.596 151.382C119.407 148.47 118.764 145.363 118.7 142.219V69.6095C118.72 63.2441 117.475 56.9381 115.036 51.0581C112.598 45.178 109.016 39.8412 104.497 35.3578C99.9667 30.8435 94.605 27.2495 88.7079 24.7741C85.3936 23.3535 81.762 22.4159 78.1302 21.7837C92.1845 14.9858 108.129 11.3633 125.018 11.3633Z" fill="#4350E4"/>
</g>
<defs>
<clipPath id="clip0_242_94578">
<rect width="227.302" height="227.302" fill="white" transform="translate(11.3652 11.3633)"/>
</clipPath>
</defs>
</svg>
