<svg width="250" height="250" viewBox="0 0 250 250" fill="none" xmlns="http://www.w3.org/2000/svg">
<g clip-path="url(#clip0_242_94698)">
<path d="M125.001 243.058C190.201 243.058 243.056 190.203 243.056 125.003C243.056 59.8025 190.201 6.94727 125.001 6.94727C59.8006 6.94727 6.94531 59.8025 6.94531 125.003C6.94531 190.203 59.8006 243.058 125.001 243.058Z" fill="white"/>
<path fill-rule="evenodd" clip-rule="evenodd" d="M125 250.002C55.9655 250.002 0 194.036 0 125.002C0 55.9675 55.9655 0.00195312 125 0.00195312C194.034 0.00195312 250 55.9675 250 125.002C250 194.036 194.034 250.002 125 250.002ZM139.68 188.814C167.701 188.814 186.528 171.724 186.417 146.467C186.417 137.21 183.5 128.724 178.305 122.627L178.417 122.516C183.604 116.419 186.528 107.932 186.528 98.787C186.528 73.426 167.708 56.3355 139.68 56.3355H100.299L92.507 100.849H64.0555L61.3475 115.988H89.8055L87.535 129.155H59.0765L56.368 144.294H84.8265L77.035 188.703L139.68 188.814ZM95.002 173.46L95.0005 173.467V173.46H95.002ZM95.002 173.46L100.188 144.286H117.063C145.848 144.286 160.348 143.092 169.757 137.321C170.841 139.932 171.382 143.085 171.382 146.356C171.382 163.12 159.264 173.571 139.681 173.571L95.002 173.46ZM102.785 129.051L102.786 129.044H117.07C148.014 129.044 159.049 127.523 164.132 122.516C157.424 117.946 148.986 115.988 117.07 115.988H105.167L102.786 129.044H102.778L102.785 129.051ZM112.958 71.3565L107.764 100.745H117.069C146.931 100.745 159.59 102.377 169.646 108.037C170.84 105.322 171.382 102.051 171.382 98.572C171.382 81.4815 159.479 71.3565 139.681 71.3565H112.958Z" fill="#E83355"/>
</g>
<defs>
<clipPath id="clip0_242_94698">
<rect width="250" height="250" fill="white"/>
</clipPath>
</defs>
</svg>
