<svg width="250" height="250" viewBox="0 0 250 250" fill="none" xmlns="http://www.w3.org/2000/svg">
<rect width="250" height="250" rx="125" fill="url(#paint0_linear_242_93276)"/>
<path d="M182.318 132.712C181.646 132.68 181.037 132.68 180.237 133.544C178.701 135.24 177.037 136.841 175.213 138.313L174.285 139.049L173.997 139.273C173.452 139.721 173.26 140.233 173.356 140.905C173.388 141.065 173.42 141.225 173.452 141.385C173.484 141.545 173.548 141.705 173.58 141.865C173.74 142.441 173.901 143.017 174.029 143.561L174.061 143.658C174.221 144.458 174.381 145.29 174.509 146.09L174.573 146.41C174.669 147.114 174.765 147.882 174.829 148.682L174.861 148.874C174.861 148.97 174.893 149.066 174.893 149.162C174.957 150.122 174.989 151.05 174.989 151.883C174.989 172.941 157.866 190.064 136.808 190.064H90.0177H89.9537C88.6416 190.032 87.6174 189.007 87.5854 187.695V187.631V147.402V147.338C87.6174 146.026 88.6736 144.97 89.9537 144.97H89.9857H136.776C137.96 144.97 139.208 144.906 140.616 144.81L141.064 144.778C142.216 144.682 143.401 144.554 144.649 144.33L145.193 144.234C146.377 144.042 147.561 143.786 148.713 143.529L149.129 143.433C150.377 143.113 151.562 142.793 152.682 142.409L152.778 142.377C155.21 141.545 157.61 140.553 159.947 139.369C161.067 138.793 162.219 138.153 163.307 137.481L163.403 137.417C164.491 136.745 165.579 136.008 166.572 135.272L169.484 132.968C173.068 130.056 176.141 126.695 178.605 122.919L178.701 122.823C178.989 122.407 179.277 121.927 179.565 121.479L179.853 120.999C184.878 112.933 187.534 103.684 187.534 94.211C187.534 66.2394 164.779 43.4844 136.808 43.4844H81.4406H81.1526C77.7922 43.5804 75.0718 46.3007 75.0398 49.6612V49.7892V107.397C75.0398 107.429 75.0398 107.429 75.0398 107.461V107.589C75.0398 107.621 75.0398 107.621 75.0398 107.653C75.1038 111.045 77.8562 113.798 81.2806 113.798H81.3126H136.84C142.729 113.798 148.393 115.142 153.706 117.766C153.738 117.766 153.738 117.798 153.77 117.798C154.058 117.926 154.346 117.99 154.666 117.99C155.242 117.99 155.722 117.766 156.106 117.446C156.202 117.35 156.33 117.254 156.426 117.158C158.891 114.95 161.131 112.453 162.731 110.277C162.987 109.925 163.083 109.509 162.987 109.093C162.891 108.677 162.731 108.389 162.411 108.197C162.251 108.101 162.123 108.037 161.963 107.941C161.291 107.557 160.651 107.205 159.947 106.853C159.531 106.629 159.147 106.437 158.731 106.245C158.282 106.021 157.834 105.829 157.386 105.605C156.65 105.284 155.914 104.964 155.146 104.676C155.05 104.644 154.954 104.58 154.826 104.548C153.866 104.196 152.874 103.844 151.914 103.524C147.049 101.988 141.96 101.188 136.776 101.188H90.0497H89.8577C88.5776 101.156 87.5534 100.1 87.5534 98.8196V98.7876V58.5263V58.4303C87.5854 57.1182 88.6416 56.094 89.9537 56.094H136.776C137.704 56.094 138.6 56.158 139.496 56.222H139.624C159.435 57.6942 174.957 74.4004 174.957 94.243C174.957 99.3317 173.965 104.292 171.98 108.997C171.404 110.341 170.764 111.621 170.092 112.869L170.028 112.965C167.564 116.838 164.651 120.326 161.387 123.335C161.259 123.463 161.131 123.559 161.003 123.687L160.747 123.911C159.339 125.031 157.93 126.055 156.49 126.919C150.538 130.504 143.721 132.424 136.808 132.424H81.2806H81.2486H81.2166C77.8242 132.456 75.0718 135.176 75.0078 138.569C75.0078 138.601 75.0078 138.601 75.0078 138.633V138.761C75.0078 138.793 75.0078 138.793 75.0078 138.825V196.4C75.0078 196.432 75.0078 196.432 75.0078 196.464C75.0078 196.496 75.0078 196.496 75.0078 196.528C75.0398 199.953 77.8242 202.737 81.2486 202.737H136.776C164.747 202.737 187.502 179.982 187.502 152.011C187.502 145.994 186.446 140.105 184.334 134.472C184.11 133.672 183.566 132.904 182.318 132.712Z" fill="white"/>
<defs>
<linearGradient id="paint0_linear_242_93276" x1="193.258" y1="16.9037" x2="84.4965" y2="280.538" gradientUnits="userSpaceOnUse">
<stop stop-color="#00C7FF"/>
<stop offset="0.1262" stop-color="#0FA2F6"/>
<stop offset="0.4052" stop-color="#3545E1"/>
<stop offset="0.6026" stop-color="#5100D1"/>
<stop offset="0.6722" stop-color="#4803BE"/>
<stop offset="0.8131" stop-color="#310B8D"/>
<stop offset="1" stop-color="#0F1644"/>
</linearGradient>
</defs>
</svg>
