<svg width="250" height="250" viewBox="0 0 250 250" fill="none" xmlns="http://www.w3.org/2000/svg">
<path d="M125 247.15C192.461 247.15 247.15 192.461 247.15 125C247.15 57.538 192.461 2.84961 125 2.84961C57.538 2.84961 2.84961 57.538 2.84961 125C2.84961 192.461 57.538 247.15 125 247.15Z" fill="#C6BCB0"/>
<path d="M125.002 233.5C184.925 233.5 233.502 184.923 233.502 125C233.502 65.0771 184.925 16.5 125.002 16.5C65.0791 16.5 16.502 65.0771 16.502 125C16.502 184.923 65.0791 233.5 125.002 233.5Z" fill="#F8F0E5"/>
<path d="M86.95 80.1492C86.95 76.6992 86.9 73.7992 86.95 70.8992C87.15 62.2992 93.5 56.1992 102.3 56.1992C111.15 56.1992 117.5 62.1992 117.65 70.8492C117.7 73.7492 117.65 76.6492 117.65 79.8492C123.15 79.8492 128.5 79.8492 134.35 79.8492C134.35 77.1492 134.35 74.3492 134.35 71.5992C134.4 62.3992 140.55 56.2492 149.6 56.1992C158.8 56.1992 165 62.4492 165.05 71.7492C165.05 74.4492 165.05 77.0992 165.05 80.1492C171.7 80.1492 178 80.1492 184.35 80.1492C192 80.1492 195.1 83.9492 193.55 91.5492C192.2 98.0492 189.25 103.749 184.65 108.449C181 112.199 177.2 115.699 173.35 119.199C170.75 121.599 169.45 124.249 169.5 127.949C169.7 139.849 169.6 151.699 169.55 163.599C169.5 183.549 154.5 198.699 134.6 198.749C125.85 198.749 117.05 199.199 108.4 198.149C91.9 196.149 79.55 181.549 79.4 164.849C79.3 152.449 79.3 140.049 79.45 127.649C79.5 124.449 78.3 121.999 76.15 119.899C72.25 116.149 68.25 112.499 64.4 108.699C60.2 104.499 57.4 99.3992 55.8 93.6992C55.3 91.7992 55.05 89.7992 55.1 87.8492C55.2 82.7992 57.85 80.1992 62.9 80.1492C69.65 80.0992 76.45 80.1492 83.2 80.1492C84.3 80.1492 85.45 80.1492 86.95 80.1492ZM110.8 94.9492C101.8 94.9492 93 94.8492 84.15 95.0992C83.1 95.1492 81.6 96.7992 81.2 97.9992C80.8 99.3492 81 101.349 81.75 102.499C84.2 106.149 86.75 109.849 89.8 112.999C92.5 115.799 94.05 118.549 94 122.549C93.85 136.299 93.9 150.049 93.95 163.799C94 175.199 102.15 183.699 113.4 184.049C120.9 184.249 128.4 184.249 135.9 183.999C144.75 183.749 152.25 177.649 154.2 169.199C154.85 166.399 154.6 163.399 155 160.549C155.4 157.499 154.3 156.149 151.3 154.999C129.35 146.449 115.55 130.849 111.65 107.299C111 103.349 111.1 99.2492 110.8 94.9492ZM153.9 133.899C154.1 130.249 151.35 127.199 147.75 126.999C144.2 126.799 141.05 129.649 140.85 133.199C140.65 136.749 143.45 139.899 147.05 140.049C150.7 140.249 153.75 137.499 153.9 133.899ZM107.45 79.9992C107.45 76.7492 107.65 73.5992 107.4 70.5492C107.15 67.6992 105.1 66.4992 102.35 66.4992C99.65 66.4992 97.55 67.6992 97.35 70.5992C97.15 73.6992 97.3 76.7992 97.3 79.9992C100.8 79.9992 103.95 79.9992 107.45 79.9992ZM154.7 79.9992C154.7 76.7492 154.85 73.6492 154.65 70.5492C154.45 67.5992 152.4 66.4992 149.65 66.4992C146.9 66.4992 144.85 67.6992 144.65 70.5492C144.4 73.5992 144.6 76.7492 144.6 79.9992C148.1 79.9992 151.25 79.9992 154.7 79.9992Z" fill="black"/>
<path d="M113.45 133.55C113.5 137.2 110.651 140.1 107.001 140.15C103.401 140.2 100.451 137.35 100.301 133.75C100.201 130.1 103.251 126.951 106.951 127.001C110.551 127.001 113.4 129.9 113.45 133.55Z" fill="black"/>
</svg>
