<svg width="250" height="250" viewBox="0 0 250 250" fill="none" xmlns="http://www.w3.org/2000/svg">
<g clip-path="url(#clip0_242_93279)">
<path d="M124.999 249.049C193.51 249.049 249.049 193.51 249.049 124.999C249.049 56.4883 193.51 0.949219 124.999 0.949219C56.4883 0.949219 0.949219 56.4883 0.949219 124.999C0.949219 193.51 56.4883 249.049 124.999 249.049Z" fill="#ADFF00"/>
<path fill-rule="evenodd" clip-rule="evenodd" d="M50.5488 64.8012C50.5488 64.8512 50.5488 91.9512 50.5488 125.051V185.251H76.5988C97.6988 185.251 102.799 185.251 103.449 185.151C103.899 185.101 104.699 185.001 105.249 184.901C105.749 184.801 106.649 184.651 107.149 184.501C107.649 184.351 108.499 184.101 109.049 183.951C109.549 183.751 110.449 183.451 110.999 183.201C111.549 182.951 112.349 182.551 112.799 182.351C113.249 182.101 114.049 181.601 114.649 181.251C115.199 180.851 115.999 180.301 116.399 180.001C116.799 179.701 117.549 179.001 118.099 178.501C118.599 178.001 119.349 177.201 119.749 176.701C120.149 176.251 120.699 175.501 120.999 175.101C121.299 174.701 121.699 174.051 121.949 173.651C122.199 173.251 122.599 172.501 122.849 171.951C123.099 171.401 123.499 170.551 123.699 170.051C123.899 169.551 124.199 168.701 124.349 168.201C124.499 167.701 124.699 167.001 124.799 166.551C124.899 166.151 124.999 165.451 125.099 165.001C125.149 164.551 125.249 163.901 125.299 163.551C125.349 163.101 125.399 159.951 125.399 152.601C125.399 145.651 125.399 141.951 125.349 141.251C125.299 140.651 125.199 139.801 125.149 139.351C125.049 138.901 124.899 138.151 124.799 137.751C124.699 137.301 124.449 136.651 124.349 136.301C124.199 135.951 123.899 135.201 123.649 134.701C123.399 134.201 122.899 133.351 122.549 132.801C122.199 132.301 121.799 131.701 121.649 131.501C121.499 131.301 121.149 130.901 120.849 130.601C120.549 130.301 120.049 129.801 119.699 129.501C119.349 129.201 118.799 128.751 118.449 128.451C118.099 128.201 117.499 127.801 117.099 127.551C116.699 127.301 116.049 126.951 115.599 126.751C115.149 126.551 114.499 126.251 114.149 126.151C113.799 126.001 113.099 125.801 112.599 125.651C112.099 125.501 111.599 125.351 111.599 125.351C111.599 125.351 111.599 125.151 111.599 124.651V123.951L112.149 123.751C112.449 123.651 112.949 123.401 113.349 123.251C113.699 123.051 114.249 122.751 114.499 122.601C114.799 122.401 115.199 122.101 115.449 121.901C115.699 121.701 116.149 121.301 116.399 121.001C116.699 120.701 117.049 120.251 117.249 120.051C117.399 119.801 117.699 119.401 117.899 119.101C118.099 118.801 118.349 118.301 118.549 117.951C118.699 117.601 118.949 117.051 119.049 116.651C119.199 116.251 119.349 115.601 119.449 115.201L119.599 114.451V100.701C119.599 87.7512 119.599 86.9012 119.499 86.0512C119.449 85.5512 119.299 84.8512 119.249 84.4512C119.199 84.0512 119.049 83.4512 118.949 83.1012C118.849 82.7512 118.649 82.0012 118.499 81.5012C118.349 81.0012 118.049 80.2012 117.849 79.7512C117.649 79.3012 117.299 78.5512 117.049 78.0512C116.799 77.5512 116.399 76.8012 116.149 76.4012C115.899 76.0012 115.499 75.3512 115.249 75.0012C114.999 74.6512 114.549 74.0512 114.249 73.7012C113.949 73.3512 113.349 72.6512 112.899 72.2012C112.449 71.7012 111.749 71.0512 111.349 70.7012C110.949 70.3512 110.299 69.8512 109.899 69.5512C109.499 69.2512 108.749 68.7512 108.249 68.4012C107.749 68.1012 106.799 67.6012 106.149 67.2512C105.499 66.9512 104.549 66.5012 104.049 66.3512C103.549 66.1512 102.699 65.9012 102.199 65.7512C101.699 65.6012 100.849 65.4012 100.299 65.3012C99.7488 65.2012 98.9488 65.0512 98.4988 65.0012C97.7488 64.9012 96.0988 64.9012 74.1988 64.8512C55.1988 64.7512 50.5988 64.7512 50.5488 64.8012ZM133.999 64.8012C133.999 64.8512 133.999 68.7012 133.999 73.4012V81.9012H142.599H151.199V73.3512V64.8012H142.599C135.799 64.7512 134.049 64.7512 133.999 64.8012ZM168.549 64.8012C168.549 64.8512 168.499 72.6012 168.499 82.0012V99.1012L151.249 99.1512L133.999 99.2012V142.251V185.301H142.599H151.199L151.249 150.901L151.299 116.501H159.849H168.399L168.449 150.901L168.499 185.301H185.749H202.999V176.701V168.101L194.399 168.051L185.799 168.001V142.201V116.401L194.399 116.351L202.999 116.301V107.701V99.1012L194.399 99.0512L185.799 99.0012L185.749 81.8512L185.699 64.7012H177.149C170.349 64.7512 168.599 64.7512 168.549 64.8012ZM95.3488 82.1012C95.5988 82.1512 96.0988 82.3012 96.3988 82.4012C96.6988 82.5012 97.1988 82.7012 97.4988 82.8512C97.7988 83.0012 98.2988 83.3012 98.5488 83.4512C98.7988 83.6512 99.2988 84.0012 99.5988 84.3012C99.8988 84.6012 100.349 85.0512 100.549 85.3512C100.749 85.6512 101.049 86.1012 101.199 86.3012C101.349 86.5512 101.549 86.9512 101.649 87.2512C101.749 87.5012 101.899 88.0012 101.999 88.3512C102.099 88.7012 102.199 89.3012 102.249 89.7012C102.299 90.2512 102.299 93.1012 102.299 99.6012C102.299 107.951 102.249 108.801 102.149 109.351C102.099 109.651 101.949 110.201 101.849 110.501C101.749 110.851 101.499 111.351 101.349 111.701C101.199 112.051 100.849 112.551 100.649 112.851C100.449 113.151 99.9988 113.651 99.6988 113.951C99.3988 114.251 98.8488 114.701 98.5488 114.901C98.2488 115.101 97.7488 115.401 97.3988 115.551C97.0988 115.701 96.5988 115.901 96.2988 116.001C95.9988 116.101 95.4988 116.201 95.1488 116.301C94.5988 116.401 93.4988 116.401 81.1488 116.401H67.7488V99.2512C67.7488 89.8012 67.7488 82.0512 67.7488 82.0512C67.7988 82.0012 70.3988 81.9512 81.2988 82.0012C94.0988 81.9512 94.8988 82.0012 95.3488 82.1012ZM101.199 133.751C101.449 133.801 101.899 133.951 102.199 134.051C102.499 134.151 103.049 134.351 103.399 134.551C103.749 134.751 104.299 135.051 104.599 135.301C104.899 135.501 105.349 135.901 105.599 136.151C105.849 136.401 106.249 136.851 106.399 137.101C106.599 137.351 106.899 137.851 107.099 138.201C107.299 138.551 107.549 139.151 107.649 139.551C107.799 139.951 107.949 140.551 107.999 140.951C108.099 141.551 108.099 142.851 108.099 150.901C108.099 158.601 108.099 160.251 107.999 160.751C107.949 161.101 107.849 161.651 107.749 161.951C107.649 162.251 107.499 162.751 107.349 163.051C107.199 163.351 106.899 163.851 106.699 164.201C106.449 164.551 106.049 165.051 105.849 165.301C105.599 165.551 105.149 165.951 104.849 166.201C104.549 166.451 104.049 166.751 103.699 166.951C103.349 167.151 102.849 167.401 102.549 167.501C102.249 167.601 101.699 167.751 101.399 167.851L100.849 168.001H84.3488H67.8488V150.901C67.8488 141.501 67.8488 133.751 67.8488 133.701C67.8988 133.651 71.0988 133.601 84.2988 133.651C99.5488 133.651 100.749 133.651 101.199 133.751Z" fill="black"/>
</g>
<defs>
<clipPath id="clip0_242_93279">
<rect width="250" height="250" rx="125" fill="white"/>
</clipPath>
</defs>
</svg>
