<svg width="250" height="250" viewBox="0 0 250 250" fill="none" xmlns="http://www.w3.org/2000/svg">
<path d="M140.076 229.18H104.204C99.8078 229.18 96.2827 225.614 96.2827 221.259C96.2827 216.863 99.8492 213.338 104.204 213.338H140.076C172.34 213.338 198.591 187.087 198.591 154.823C198.591 122.559 172.34 96.3078 140.076 96.3078H120.792C116.438 96.3078 112.871 99.8743 112.871 104.229C112.871 108.583 116.438 112.15 120.792 112.15H139.537C163.009 112.15 182.127 131.268 182.127 154.74C182.127 178.213 163.009 197.331 139.537 197.331H87.325C74.7179 197.331 64.4746 187.087 64.4746 174.48V29.7471C64.4746 25.3927 68.0411 21.8262 72.437 21.8262C76.8329 21.8262 80.3579 25.3927 80.3579 29.7471V174.356C80.3579 178.213 83.4683 181.323 87.325 181.323H139.537C154.259 181.323 166.244 169.338 166.244 154.616C166.244 139.894 154.259 127.909 139.537 127.909H120.792C107.687 127.909 96.9877 117.251 96.9877 104.104C96.9877 90.958 107.646 80.3 120.792 80.3H140.076C181.091 80.3 214.475 113.684 214.475 154.699C214.475 195.713 181.132 229.18 140.076 229.18Z" fill="#E64072"/>
</svg>
