<svg width="250" height="250" viewBox="0 0 250 250" fill="none" xmlns="http://www.w3.org/2000/svg">
<path fill-rule="evenodd" clip-rule="evenodd" d="M193.801 183.655C193.274 183.068 192.365 183.03 191.788 183.577L191.769 183.606C191.192 184.153 191.182 185.063 191.749 185.62L223.296 216.697L193.801 183.655Z" fill="black"/>
<path fill-rule="evenodd" clip-rule="evenodd" d="M181.9 134.955L181.87 134.985C181.294 135.532 181.294 136.441 181.851 136.998L214.746 169.356L183.913 135.034C183.385 134.447 182.477 134.408 181.9 134.955Z" fill="black"/>
<path fill-rule="evenodd" clip-rule="evenodd" d="M155.006 128.498L134.597 108.555C134.289 119.078 132.634 140.812 128.428 150.976C128.362 151.133 128.27 151.295 128.195 151.453C131.167 153.347 137.419 157.004 139.907 157.004C143.013 156.996 149.205 153.564 151.446 151.413C153.39 149.53 155.45 145.756 157.442 142.106C159.05 139.162 160.711 136.116 162.439 133.78C163.474 132.385 164.433 131.362 165.37 130.651C167.312 129.191 170.517 128.015 173.909 126.771C178.449 125.107 183.595 123.22 185.16 120.658C186.729 118.098 185.806 109.217 185.176 104.994C180.888 105.461 163.483 106.756 150.94 98.7023C144.969 94.8649 136.172 86.4765 132.105 82.4785C133.564 91.0578 134.521 99.9262 134.613 105.885L155.006 128.498Z" fill="#FECD0F"/>
<path fill-rule="evenodd" clip-rule="evenodd" d="M153.677 187.965L153.657 187.985C153.081 188.532 153.071 189.451 153.638 189.998L185.301 221.221L155.69 188.043C155.162 187.457 154.253 187.418 153.677 187.965Z" fill="black"/>
<path fill-rule="evenodd" clip-rule="evenodd" d="M159.766 159.746C159.414 159.746 159.072 159.873 158.798 160.136C158.222 160.684 158.213 161.602 158.789 162.16L181.032 183.591L160.822 160.235C160.547 159.912 160.157 159.746 159.766 159.746Z" fill="black"/>
<path fill-rule="evenodd" clip-rule="evenodd" d="M127.914 182.363V184.865L132.665 181.226C133.097 180.895 133.677 180.816 134.18 181.023C134.686 181.229 135.031 181.677 135.108 182.217C135.263 184.687 135.856 191.345 136.794 193.355C137.677 195.244 140.88 198.973 145.81 203.852C145.95 203.991 146.102 203.965 146.179 203.936C146.26 203.908 146.398 203.831 146.418 203.633C146.642 202.494 146.823 201.132 146.761 200.779C145.625 194.496 136.084 178.546 134.183 175.413C134.062 175.214 133.889 175.054 133.673 174.94L125.705 170.748V173.897L127.914 175.668V182.363Z" fill="#FECD0F"/>
<path fill-rule="evenodd" clip-rule="evenodd" d="M113.966 197.635H113.956C113.38 198.182 113.37 199.101 113.937 199.658L137.049 222.194L115.989 197.743C115.461 197.136 114.543 197.087 113.966 197.635Z" fill="black"/>
<mask id="mask0_242_94063" style="mask-type:alpha" maskUnits="userSpaceOnUse" x="39" y="23" width="95" height="159">
<path d="M115.767 115.577L117.963 118.105L116.175 118.349C113.277 118.745 108.753 119.74 107.767 120.714C106.434 122.035 105.133 127.875 104.627 131.246L104.589 131.5L104.431 131.702C103.561 132.817 100.557 136.462 98.4147 136.553C98.3784 136.555 98.3415 136.555 98.3046 136.555C96.9532 136.555 95.4026 135.523 93.5823 133.434C91.8477 133.325 87.726 132.78 86.2757 130.1C85.4351 128.546 86.9704 125.086 87.7427 123.538C87.7168 123.336 87.702 123.134 87.702 122.931C87.7359 120.853 89.8742 116.872 91.8267 115.891C93.2291 115.18 95.3256 115.406 97.5464 115.643C99.5113 115.852 101.737 116.092 102.586 115.455C103.861 114.505 104.47 108.775 104.481 105.201L104.489 102.596L109.282 108.113C110.189 105.862 111.178 102.972 111.082 101.868C110.942 100.341 108.46 96.1919 106.927 93.9379L108.544 92.8383C108.979 93.4788 112.797 99.1604 113.029 101.694C113.202 103.669 111.413 108.116 110.715 109.762L114.445 114.056C116.262 111.435 119.351 106.593 119.465 104.572C119.608 101.915 116.429 95.1637 113.664 90.1873C113.507 89.8932 113.418 89.7406 113.412 89.7301L115.096 88.7388C115.096 88.7388 115.202 88.9178 115.381 89.2538C116.843 91.8838 121.624 100.816 121.417 104.679C121.253 107.564 117.207 113.536 115.767 115.577ZM80.9978 81.885C80.2058 83.3809 79.2969 84.8461 78.0755 86.1266C77.8896 86.3124 77.6946 86.5081 77.489 86.6835C78.369 86.5081 79.4046 86.5863 80.2452 87.5044C81.1245 88.4723 80.9584 92.0586 79.8249 92.7035C78.1733 93.6222 73.5409 89.9966 72.3096 88.9997C71.3324 89.244 70.3553 89.4397 69.3584 89.5861C68.8107 89.6643 68.3221 89.2637 68.2735 88.7166C68.2341 88.1985 68.6255 87.7487 69.143 87.7001C70.4433 87.5924 71.7527 87.3973 73.013 87.1038C73.7951 86.9186 74.5673 86.7032 75.2805 86.4004C75.9937 86.1168 76.6288 85.7457 77.2546 85.2276C78.4859 84.2307 79.532 82.9311 80.4797 81.573C81.4181 80.2044 82.2679 78.7578 83.0007 77.2434C82.4537 78.8365 81.7793 80.3804 80.9978 81.885ZM53.9075 75.7185C48.3275 75.7185 43.8028 71.1938 43.8028 65.6237C43.8028 60.0436 48.3275 55.5183 53.9075 55.5183C54.8847 55.5183 55.8329 55.6654 56.732 55.9288C56.38 54.6587 56.1849 53.3197 56.1849 51.9419C56.1849 43.4783 63.0356 36.6282 71.4986 36.6282C79.9517 36.6282 86.8024 43.4783 86.8024 51.9419C86.8024 60.395 79.9517 67.2457 71.4986 67.2457C68.7621 67.2457 66.2016 66.5227 63.9833 65.2717C63.9931 65.3892 64.003 65.5061 64.003 65.6237C64.003 71.1938 59.4783 75.7185 53.9075 75.7185ZM132.666 107.617H133.643L132.939 106.933L133.643 106.258L132.666 106.268C132.602 99.7185 131.416 89.3197 129.643 79.7774C128.934 75.9105 128.175 72.4873 127.445 69.8745C121.85 49.8263 106.827 34.0905 85.1459 25.566C78.6145 23.0019 63.6492 22.9914 58.343 26.3795C32.7043 42.7288 39.811 68.837 42.1463 77.4169C44.428 85.8128 51.2738 96.8448 63.0566 100.308L70.7848 101.04L64.2085 101.611C64.3513 102.24 64.2368 102.997 63.9981 103.741L67.6674 103.904L63.6904 104.564C63.3575 105.34 62.9649 106.014 62.7181 106.35C61.9305 107.408 60.5779 108.579 59.1472 109.818C57.3953 111.336 55.4096 113.056 54.7918 114.367C54.5881 114.798 54.385 115.296 54.1721 115.886C52.9168 119.441 52.2178 124.809 52.2067 130.995C52.1876 138.707 53.2466 146.654 54.905 151.243C56.8329 156.588 66.1826 164.839 71.3047 167.581C72.6068 168.274 74.5144 168.87 76.9728 169.35L76.7826 170.322L76.798 170.306L76.9851 169.36C82.2346 170.397 88.9167 170.682 92.9079 170.515C96.4831 170.365 107.217 167.326 110.61 166.343L108.17 160.379L109.978 159.639L118.55 180.591L125.962 181.285V176.603L119.196 171.177L116.065 156.549L117.975 156.138L119.097 161.377C121.273 158.543 124.566 154.11 126.081 151.332C126.29 150.956 126.476 150.574 126.624 150.221C130.479 140.903 132.344 119.903 132.657 108.061L132.666 107.617Z" fill="white"/>
</mask>
<g mask="url(#mask0_242_94063)">
<path fill-rule="evenodd" clip-rule="evenodd" d="M115.769 115.575L117.965 118.103L116.177 118.347C113.279 118.743 108.755 119.738 107.769 120.712C106.436 122.033 105.135 127.873 104.629 131.244L104.59 131.498L104.433 131.7C103.563 132.815 100.559 136.461 98.4167 136.551C98.3804 136.553 98.3434 136.553 98.3065 136.553C96.9552 136.553 95.4045 135.521 93.5843 133.432C91.8496 133.323 87.728 132.778 86.2776 130.098C85.437 128.544 86.9723 125.084 87.7446 123.536C87.7188 123.334 87.704 123.132 87.704 122.929C87.7378 120.851 89.8762 116.87 91.8287 115.889C93.2311 115.178 95.3276 115.404 97.5484 115.641C99.5132 115.851 101.739 116.09 102.588 115.453C103.863 114.503 104.472 108.773 104.483 105.199L104.491 102.594L109.284 108.111C110.191 105.86 111.18 102.97 111.084 101.866C110.944 100.339 108.462 96.19 106.929 93.9359L108.546 92.8363C108.981 93.4769 112.799 99.1584 113.031 101.692C113.204 103.667 111.415 108.114 110.717 109.76L114.447 114.054C116.264 111.433 119.353 106.591 119.467 104.57C119.61 101.913 116.431 95.1617 113.666 90.1854C113.509 89.8912 113.42 89.7386 113.414 89.7282L115.098 88.7368C115.098 88.7368 115.203 88.9159 115.383 89.2519C116.845 91.8819 121.626 100.814 121.419 104.678C121.255 107.562 117.209 113.534 115.769 115.575ZM80.9997 81.883C80.2078 83.3789 79.2989 84.8441 78.0774 86.1246C77.8916 86.3105 77.6965 86.5062 77.491 86.6815C78.3709 86.5062 79.4066 86.5843 80.2472 87.5024C81.1265 88.4704 80.9603 92.0566 79.8269 92.7015C78.1753 93.6203 73.5429 89.9946 72.3116 88.9977C71.3344 89.242 70.3572 89.4377 69.3603 89.5842C68.8127 89.6623 68.3241 89.2617 68.2755 88.7147C68.2361 88.1965 68.6275 87.7467 69.145 87.6981C70.4452 87.5904 71.7547 87.3954 73.0149 87.1018C73.797 86.9166 74.5693 86.7012 75.2825 86.3985C75.9957 86.1148 76.6307 85.7437 77.2565 85.2256C78.4879 84.2287 79.534 82.9291 80.4816 81.571C81.42 80.2025 82.2698 78.7558 83.0027 77.2414C82.4557 78.8346 81.7812 80.3785 80.9997 81.883ZM53.9095 75.7166C48.3295 75.7166 43.8048 71.1919 43.8048 65.6217C43.8048 60.0417 48.3295 55.5164 53.9095 55.5164C54.8866 55.5164 55.8349 55.6634 56.7339 55.9268C56.3819 54.6567 56.1869 53.3177 56.1869 51.9399C56.1869 43.4764 63.0376 36.6263 71.5005 36.6263C79.9536 36.6263 86.8043 43.4764 86.8043 51.9399C86.8043 60.393 79.9536 67.2438 71.5005 67.2438C68.7641 67.2438 66.2036 66.5207 63.9852 65.2697C63.9951 65.3873 64.0049 65.5042 64.0049 65.6217C64.0049 71.1919 59.4802 75.7166 53.9095 75.7166ZM132.668 107.615H133.645L132.941 106.931L133.645 106.257L132.668 106.266C132.604 99.7166 131.418 89.3177 129.645 79.7754C128.936 75.9086 128.177 72.4854 127.447 69.8726C121.852 49.8244 106.829 34.0886 85.1478 25.5641C78.6165 22.9999 63.6511 22.9894 58.3449 26.3776C32.7063 42.7269 39.813 68.8351 42.1482 77.4149C44.43 85.8108 51.2758 96.8429 63.0585 100.306L70.7867 101.038L64.2105 101.609C64.3532 102.238 64.2388 102.995 64 103.739L67.6694 103.902L63.6923 104.562C63.3594 105.338 62.9668 106.012 62.7201 106.348C61.9324 107.406 60.5799 108.577 59.1492 109.816C57.3973 111.334 55.4115 113.054 54.7937 114.365C54.59 114.796 54.387 115.294 54.1741 115.884C52.9187 119.439 52.2197 124.807 52.2086 130.993C52.1896 138.705 53.2486 146.652 54.9069 151.241C56.8348 156.586 66.1845 164.837 71.3067 167.579C72.6088 168.272 74.5164 168.868 76.9747 169.348L76.7846 170.32L76.8 170.304L76.987 169.358C82.2366 170.395 88.9187 170.68 92.9099 170.514C96.4851 170.363 107.219 167.324 110.612 166.341L108.172 160.377L109.98 159.637L118.552 180.589L125.964 181.283V176.601L119.198 171.175L116.067 156.547L117.977 156.136L119.099 161.376C121.275 158.541 124.568 154.108 126.083 151.33C126.292 150.954 126.478 150.572 126.626 150.219C130.481 140.902 132.346 119.901 132.659 108.059L132.668 107.615Z" fill="url(#paint0_linear_242_94063)"/>
</g>
<mask id="mask1_242_94063" style="mask-type:alpha" maskUnits="userSpaceOnUse" x="72" y="170" width="15" height="18">
<path d="M72.2637 170.127C73.2045 173.723 74.9214 179.523 76.3244 181.32C77.6997 183.07 82.9043 186.105 86.0014 187.783V176.609C84.2926 176.695 81.241 176.732 79.9802 176.06C78.6621 175.345 76.9102 172.496 76.1502 171.18C74.6685 170.874 73.3658 170.523 72.2637 170.127Z" fill="white"/>
</mask>
<g mask="url(#mask1_242_94063)">
<path fill-rule="evenodd" clip-rule="evenodd" d="M72.2637 170.125C73.2045 173.721 74.9214 179.521 76.3244 181.318C77.6997 183.068 82.9043 186.103 86.0014 187.781V176.607C84.2926 176.693 81.241 176.73 79.9802 176.058C78.6621 175.343 76.9102 172.494 76.1502 171.178C74.6685 170.872 73.3658 170.521 72.2637 170.125Z" fill="#356C00"/>
</g>
<path fill-rule="evenodd" clip-rule="evenodd" d="M103.757 117.023C102.295 118.118 99.8884 117.86 97.3396 117.588C96.3582 117.484 95.3022 117.371 94.4075 117.371C93.7041 117.371 93.1005 117.441 92.7085 117.639C91.5061 118.243 89.6828 121.418 89.6582 122.949C89.6582 123.159 89.6847 123.384 89.7382 123.602L89.7425 123.623C90.2705 126.014 93.1516 129.764 94.098 130.996C94.282 131.236 94.5127 131.532 94.7798 131.836C96.9717 134.447 98.0467 134.594 98.3347 134.603C99.1445 134.569 101.222 132.594 102.735 130.7C103.006 128.983 104.304 121.399 106.395 119.327C107.749 117.988 111.72 117.115 114.152 116.691L106.358 107.73C106.178 110.856 105.6 115.651 103.757 117.023Z" fill="#FECD0F"/>
<path fill-rule="evenodd" clip-rule="evenodd" d="M91.925 176.545H87.9609V185.91L100.884 198.715L91.925 176.545Z" fill="#FECD0F"/>
<path fill-rule="evenodd" clip-rule="evenodd" d="M87.9986 129.181C88.609 130.267 90.2461 130.91 91.9733 131.239C90.815 129.74 89.5508 127.962 88.6984 126.285C88.1575 127.64 87.8491 128.825 87.9986 129.181Z" fill="#FECD0F"/>
<path fill-rule="evenodd" clip-rule="evenodd" d="M58.3034 51.9465C58.3034 47.8907 61.5771 44.617 65.6329 44.617C69.6788 44.617 72.9623 47.8907 72.9623 51.9465C72.9623 55.9918 69.6788 59.2759 65.6329 59.2759C61.5771 59.2759 58.3034 55.9918 58.3034 51.9465ZM52.596 70.8366C49.7229 70.8366 47.3871 68.5013 47.3871 65.6282C47.3871 62.7453 49.7229 60.4094 52.596 60.4094C55.4789 60.4094 57.8148 62.7453 57.8148 65.6282C57.8148 68.5013 55.4789 70.8366 52.596 70.8366ZM71.4966 67.2503C79.9496 67.2503 86.8004 60.3996 86.8004 51.9465C86.8004 43.4829 79.9496 36.6328 71.4966 36.6328C63.0336 36.6328 56.1829 43.4829 56.1829 51.9465C56.1829 53.3243 56.378 54.6633 56.7299 55.9333C55.8309 55.67 54.8827 55.5229 53.9055 55.5229C48.3255 55.5229 43.8008 60.0482 43.8008 65.6282C43.8008 71.1984 48.3255 75.7231 53.9055 75.7231C59.4763 75.7231 64.0009 71.1984 64.0009 65.6282C64.0009 65.5107 63.9911 65.3938 63.9813 65.2763C66.1996 66.5273 68.7601 67.2503 71.4966 67.2503Z" fill="white"/>
<path fill-rule="evenodd" clip-rule="evenodd" d="M77.2508 85.2317C76.625 85.7498 75.99 86.1209 75.2769 86.4045C74.5637 86.7073 73.7915 86.9226 73.0094 87.1078C71.7493 87.4013 70.4399 87.5964 69.1397 87.7041C68.6223 87.7527 68.2309 88.2025 68.2703 88.7206C68.3189 89.2676 68.8075 89.6681 69.3551 89.59C70.3519 89.4436 71.329 89.2479 72.3061 89.0036C72.687 88.9064 73.0587 88.8085 73.4303 88.7009C74.2604 88.4467 75.0911 88.1539 75.9026 87.7625C76.4792 87.4893 77.0065 87.1078 77.4852 86.6876C77.6907 86.5122 77.8858 86.3165 78.0716 86.1307C79.293 84.8502 80.2018 83.3852 80.9937 81.8894C81.7752 80.3849 82.4496 78.8411 82.9966 77.248C82.2637 78.7623 81.414 80.2089 80.4757 81.5774C79.5281 82.9354 78.482 84.2349 77.2508 85.2317Z" fill="black"/>
<path fill-rule="evenodd" clip-rule="evenodd" d="M73.4308 88.6961C73.0592 88.8038 72.6875 88.9016 72.3066 88.9989C73.5379 89.9958 78.17 93.6217 79.8215 92.7029C80.9549 92.058 81.121 88.4715 80.2417 87.5035C79.4012 86.5853 78.3656 86.5071 77.4857 86.6825C77.007 87.1028 76.4797 87.4844 75.9031 87.7576C75.0915 88.149 74.2609 88.4419 73.4308 88.6961Z" fill="#CA1117"/>
<path fill-rule="evenodd" clip-rule="evenodd" d="M72.9607 51.9423C72.9607 47.8867 69.6774 44.6133 65.6317 44.6133C61.5762 44.6133 58.3027 47.8867 58.3027 51.9423C58.3027 55.9873 61.5762 59.2713 65.6317 59.2713C69.6774 59.2713 72.9607 55.9873 72.9607 51.9423Z" fill="black"/>
<path fill-rule="evenodd" clip-rule="evenodd" d="M52.5973 60.4062C49.7244 60.4062 47.3887 62.742 47.3887 65.6247C47.3887 68.4976 49.7244 70.8327 52.5973 70.8327C55.48 70.8327 57.8158 68.4976 57.8158 65.6247C57.8158 62.742 55.48 60.4062 52.5973 60.4062Z" fill="black"/>
<path fill-rule="evenodd" clip-rule="evenodd" d="M43.5417 113.424C42.7725 113.467 42.2692 113.722 42.0052 114.205C41.1819 115.71 42.5972 119.268 44.1959 122.097L44.2611 122.212C44.2968 122.278 44.3263 122.335 44.3571 122.377C44.4746 122.564 44.5208 122.657 44.5208 122.657L43.647 123.094C43.642 123.086 43.61 123.023 43.5497 122.926C43.522 122.892 43.4673 122.797 43.4051 122.684L43.3541 122.593C41.772 120.025 39.5044 117.356 37.9279 117.579C36.8744 117.725 36.2357 119.22 35.8849 120.448C35.7649 120.871 36.4523 121.806 36.9538 122.487C37.3839 123.071 37.79 123.625 37.9506 124.109C38.1217 124.613 38.1672 125.327 38.2152 126.084C38.2719 126.98 38.3359 127.997 38.6251 128.426C39.2429 129.317 40.9486 131.055 42.0975 131.055C42.1043 131.055 42.1117 131.055 42.119 131.055C42.4747 131.051 43.2094 130.188 43.6494 129.416L44.9355 127.155L44.5571 129.729C44.4008 130.792 44.4826 131.952 44.7263 132.114C46.0641 133.022 48.7316 131.87 50.2503 131.015C50.2503 131.008 50.2497 131 50.2497 130.993C50.2601 124.893 50.9383 119.54 52.153 115.79C51.2373 115.34 48.9458 114.235 48.0295 113.984C46.9526 113.685 44.6709 113.371 43.5417 113.424Z" fill="#FECD0F"/>
<path fill-rule="evenodd" clip-rule="evenodd" d="M126.079 151.335C124.564 154.113 121.272 158.546 119.095 161.38L117.973 156.141L116.063 156.551L119.194 171.18L125.96 176.606V181.288L118.549 180.593L109.977 159.641L108.168 160.381L110.608 166.346C107.216 167.329 96.4815 170.367 92.9063 170.518C88.9151 170.685 82.233 170.399 76.9834 169.362L76.7963 170.309L76.781 170.325L76.9711 169.353C74.5128 168.873 72.6052 168.277 71.3031 167.583C66.1809 164.841 56.8312 156.591 54.9033 151.245C53.245 146.657 52.1859 138.71 52.205 130.998C52.2161 124.812 52.9151 119.443 54.1705 115.888C54.3834 115.298 54.5864 114.801 54.7901 114.37C55.4079 113.058 57.3937 111.338 59.1456 109.821C60.5763 108.582 61.9288 107.411 62.7165 106.352C62.9632 106.017 63.3558 105.343 63.6887 104.567L67.6657 103.906L63.9964 103.744C64.2351 102.999 64.3496 102.243 64.2068 101.613L70.7831 101.042L63.0549 100.311C51.2721 96.8475 44.4263 85.8155 42.1446 77.4196C39.8094 68.8397 32.7027 42.7315 58.3413 26.3822C63.6475 22.9941 78.6129 23.0046 85.1442 25.5687C106.826 34.0932 121.848 49.829 127.443 69.8772C128.173 72.49 128.933 75.9132 129.641 79.7801C131.414 89.3223 132.601 99.7212 132.664 106.271L133.641 106.261L132.937 106.936L133.641 107.619H132.664L132.655 108.064C132.342 119.905 130.478 140.906 126.623 150.223C126.474 150.576 126.288 150.959 126.079 151.335ZM125.706 170.746L133.674 174.938C133.89 175.052 134.062 175.213 134.184 175.411C136.085 178.544 145.626 194.494 146.761 200.777C146.824 201.13 146.642 202.492 146.419 203.631C146.399 203.829 146.261 203.906 146.18 203.935C146.103 203.964 145.951 203.99 145.811 203.851C140.88 198.971 137.678 195.242 136.794 193.353C135.857 191.343 135.264 184.685 135.108 182.215C135.032 181.675 134.686 181.228 134.181 181.022C133.678 180.815 133.098 180.894 132.665 181.224L127.915 184.864V175.667L125.706 173.896V170.746ZM79.9882 176.06C81.249 176.733 84.3006 176.695 86.0094 176.609V187.783C82.9123 186.106 77.7077 183.071 76.3324 181.32C74.9294 179.524 73.2125 173.723 72.2717 170.127C73.3737 170.523 74.6764 170.874 76.1582 171.18C76.9182 172.496 78.6701 175.346 79.9882 176.06ZM50.2507 130.993C50.2507 131 50.2513 131.008 50.2513 131.015C48.7326 131.87 46.065 133.022 44.7273 132.114C44.4836 131.952 44.4017 130.792 44.558 129.729L44.9365 127.155L43.6504 129.416C43.2104 130.188 42.4757 131.051 42.12 131.055C42.1126 131.055 42.1052 131.055 42.0985 131.055C40.9496 131.055 39.2439 129.317 38.626 128.426C38.3368 127.997 38.2728 126.98 38.2162 126.084C38.1682 125.327 38.1227 124.613 37.9516 124.109C37.791 123.625 37.3849 123.071 36.9547 122.487C36.4532 121.806 35.7659 120.871 35.8859 120.448C36.2366 119.22 36.8754 117.725 37.9288 117.579C39.5054 117.356 41.7729 120.025 43.355 122.593L43.4061 122.684C43.4682 122.797 43.523 122.892 43.5507 122.926C43.611 123.023 43.643 123.086 43.6479 123.094L44.5217 122.657C44.5217 122.657 44.4756 122.564 44.358 122.377C44.3273 122.335 44.2977 122.278 44.262 122.212L44.1968 122.097C42.5981 119.268 41.1828 115.71 42.0062 114.205C42.2702 113.722 42.7735 113.467 43.5427 113.424C44.6719 113.371 46.9536 113.685 48.0305 113.984C48.9467 114.235 51.2383 115.34 52.1539 115.79C50.9392 119.54 50.2611 124.893 50.2507 130.993ZM150.939 98.6991C163.482 106.753 180.887 105.458 185.175 104.991C185.805 109.214 186.728 118.094 185.159 120.655C183.594 123.217 178.448 125.104 173.908 126.768C170.516 128.012 167.311 129.187 165.369 130.648C164.432 131.358 163.473 132.382 162.438 133.777C160.71 136.113 159.049 139.159 157.441 142.103C155.449 145.753 153.389 149.527 151.445 151.41C149.204 153.561 143.012 156.993 139.906 157.001C137.418 157.001 131.166 153.344 128.194 151.45C128.269 151.292 128.361 151.13 128.427 150.973C132.633 140.809 134.288 119.075 134.596 108.551L155.005 128.494L134.612 105.882C134.519 99.923 133.563 91.0546 132.104 82.4753C136.171 86.4733 144.968 94.8617 150.939 98.6991ZM87.9637 176.547H91.9278L100.887 198.717L87.9637 185.912V176.547ZM139.909 158.956C143.626 158.945 150.291 155.226 152.801 152.818C154.962 150.726 157 146.992 159.158 143.039C160.732 140.153 162.362 137.167 164.008 134.94C164.93 133.697 165.762 132.803 166.547 132.207C168.255 130.923 171.328 129.796 174.581 128.603C179.657 126.742 184.906 124.817 186.826 121.676C189.207 117.792 187.195 105.171 186.957 103.746L186.801 102.805L185.856 102.938C185.653 102.968 165.474 105.71 151.995 97.0549C144.885 92.4859 133.192 80.8206 131.507 79.1266C130.805 75.3292 130.051 71.9522 129.325 69.3511C123.562 48.6986 108.125 32.5044 85.858 23.7498C79.5525 21.2742 63.5903 20.7118 57.2897 24.7349C30.4388 41.8571 37.8298 69.0108 40.2586 77.9328C42.6615 86.7723 49.8827 98.3785 62.3306 102.126C62.3952 102.648 61.8224 104.269 61.1461 105.189C60.4877 106.073 59.2145 107.176 57.8656 108.344C55.875 110.068 53.8172 111.851 53.0222 113.536C52.8394 113.924 52.6579 114.369 52.4727 114.858C51.4709 114.367 49.2575 113.308 48.2914 113.042C47.1394 112.722 44.7408 112.385 43.491 112.449C42.3705 112.511 41.5822 112.944 41.149 113.736C40.5115 114.901 40.7995 116.659 41.4062 118.405C40.2776 117.262 39.0119 116.436 37.7953 116.611C36.5308 116.786 35.572 117.987 34.9462 120.181C34.6946 121.065 35.4434 122.082 36.1677 123.066C36.5338 123.563 36.9123 124.077 37.0249 124.42C37.1553 124.805 37.1984 125.486 37.2409 126.144C37.308 127.216 37.3781 128.322 37.8193 128.978C38.2741 129.633 40.3564 132.079 42.1354 132.032C42.6258 132.027 43.1064 131.675 43.5076 131.256C43.5513 131.937 43.7218 132.619 44.1808 132.924C44.7014 133.279 45.3217 133.418 45.9795 133.418C47.4705 133.418 49.1467 132.7 50.258 132.12C50.3393 139.684 51.4174 147.351 53.0647 151.909C55.1249 157.62 64.4253 165.955 69.9912 169.084C70.4896 171.117 72.7166 179.867 74.7934 182.525C76.9729 185.3 85.567 189.776 86.5392 190.276L87.9637 191.01V188.664L100.25 200.838C100.59 201.177 101.03 201.352 101.475 201.352C101.805 201.352 102.139 201.256 102.436 201.059C103.136 200.596 103.404 199.728 103.089 198.95L93.2453 174.592H87.9637V174.513L86.9103 174.595C84.9134 174.752 81.7308 174.776 80.9143 174.339C80.4497 174.088 79.5845 172.955 78.7384 171.647C82.7222 172.258 87.1515 172.517 90.5981 172.517C91.4651 172.517 92.27 172.501 92.9887 172.471C96.9005 172.306 108.137 169.103 111.353 168.166L117.187 182.429L125.96 183.251V185.782C125.96 186.359 126.283 186.874 126.802 187.129C127.32 187.384 127.927 187.319 128.383 186.968L133.223 183.26C133.398 185.632 133.947 191.873 135.023 194.181C136.279 196.865 140.836 201.676 144.433 205.236C144.875 205.678 145.455 205.913 146.054 205.913C146.313 205.913 146.576 205.868 146.832 205.777C147.682 205.476 148.269 204.732 148.35 203.925C148.468 203.33 148.842 201.321 148.685 200.434C147.519 193.974 138.57 178.872 135.852 174.394C135.546 173.895 135.109 173.485 134.585 173.21L126.14 168.767C125.626 168.505 125.025 168.527 124.532 168.829C124.043 169.129 123.751 169.65 123.751 170.223V172.328L120.96 170.089L119.631 163.882C121.819 161.079 125.317 156.46 127.272 153.181C129.792 154.782 136.665 158.956 139.909 158.956Z" fill="black"/>
<path fill-rule="evenodd" clip-rule="evenodd" d="M106.393 119.326C104.302 121.398 103.004 128.982 102.733 130.699C101.22 132.593 99.1427 134.568 98.3329 134.602C98.0449 134.593 96.9699 134.446 94.778 131.835C94.511 131.531 94.2802 131.235 94.0962 130.995C93.1498 129.763 90.2687 126.013 89.7408 123.622L89.7364 123.601C89.6829 123.383 89.6565 123.158 89.6565 122.948C89.6811 121.417 91.5044 118.242 92.7068 117.638C93.0987 117.44 93.7024 117.37 94.4057 117.37C95.3005 117.37 96.3564 117.483 97.3379 117.587C99.8867 117.859 102.293 118.117 103.755 117.022C105.598 115.65 106.176 110.855 106.356 107.729L114.15 116.69C111.718 117.114 107.747 117.987 106.393 119.326ZM87.9987 129.181C87.8547 128.824 88.1519 127.64 88.6731 126.285C89.4946 127.962 90.713 129.739 91.8293 131.238C90.1647 130.91 88.587 130.267 87.9987 129.181ZM115.096 88.7402L113.412 89.7316C113.418 89.742 113.507 89.8946 113.664 90.1888C116.429 95.1651 119.608 101.917 119.465 104.573C119.351 106.595 116.262 111.436 114.445 114.058L110.715 109.763C111.413 108.118 113.202 103.671 113.029 101.695C112.797 99.1619 108.979 93.4803 108.544 92.8397L106.928 93.9394C108.46 96.1934 110.942 100.342 111.082 101.869C111.178 102.973 110.189 105.864 109.282 108.115L104.49 102.597L104.482 105.202C104.47 108.776 103.861 114.506 102.586 115.456C101.737 116.093 99.5113 115.854 97.5465 115.645C95.3257 115.407 93.2292 115.181 91.8268 115.893C89.8743 116.874 87.7359 120.854 87.7021 122.932C87.7021 123.135 87.7169 123.338 87.7427 123.539C86.9704 125.087 85.4351 128.547 86.2757 130.101C87.7261 132.782 91.8477 133.326 93.5824 133.435C95.4026 135.524 96.9533 136.556 98.3046 136.556C98.3415 136.556 98.3785 136.556 98.4148 136.554C100.557 136.464 103.561 132.819 104.431 131.704L104.589 131.501L104.627 131.248C105.133 127.877 106.434 122.036 107.768 120.715C108.753 119.742 113.277 118.746 116.175 118.35L117.963 118.106L115.767 115.579C117.207 113.538 121.253 107.566 121.417 104.681C121.624 100.818 116.843 91.8853 115.381 89.2553C115.202 88.9193 115.096 88.7402 115.096 88.7402Z" fill="black"/>
<defs>
<linearGradient id="paint0_linear_242_94063" x1="76.1073" y1="23.7285" x2="128.141" y2="159.248" gradientUnits="userSpaceOnUse">
<stop stop-color="#B8E27F"/>
<stop offset="1" stop-color="#2A6700"/>
</linearGradient>
</defs>
</svg>
