<svg width="250" height="250" viewBox="0 0 250 250" fill="none" xmlns="http://www.w3.org/2000/svg">
<g clip-path="url(#clip0_756_3259)">
<path d="M125 0C194.04 0 250 55.96 250 125C250 194.04 194.04 250 125 250C55.96 250 0 194.04 0 125C0 55.96 55.96 0 125 0Z" fill="black"/>
<path d="M125.11 250C302.04 246.37 280.04 -22.3203 105.72 1.50971C41.4099 9.35971 -0.730148 66.7497 1.83985 129.07C4.25985 196.12 50.6999 249.17 125.11 250Z" fill="#231F20"/>
<path d="M43.7397 43.7893C49.7497 40.1593 50.5497 46.1193 53.9197 49.7493C54.3997 50.3293 55.9997 51.9693 56.1997 50.6293C56.2997 44.1193 64.3997 33.2093 70.5297 38.7693C73.2697 41.3093 73.9597 45.1393 76.2997 47.9493C76.5397 48.2193 76.7797 48.3893 76.6297 47.8393C73.8897 40.5093 67.4497 30.6193 78.4697 29.6793C79.1597 29.5793 79.5597 29.0393 79.8997 28.4393C81.9997 25.1293 85.3097 25.7393 88.5497 24.5093C90.4897 23.0893 92.9897 23.4693 94.9197 22.4193C96.9597 19.5693 99.6297 19.6893 102.77 19.5393C108.13 17.4393 111.23 17.9093 112.77 24.3793C113.74 25.7793 114.6 19.0593 115.99 18.5993C118.49 16.4293 123.39 18.1693 123.27 21.6593C121.32 28.8693 116.8 35.4993 116.36 43.1993C116.23 44.6493 115.38 45.9893 114 46.5693C105.81 49.0193 109.31 41.6093 108.65 36.6593C106.07 30.9393 103.72 18.9493 98.7197 31.1893C95.5497 35.5793 102.83 40.2293 99.2397 44.1993C92.5597 51.2793 90.5597 38.1993 88.8597 32.4093C87.7997 27.3893 83.6797 37.4993 83.4197 38.8193C82.8697 40.8293 83.1597 42.9893 84.5797 44.7093C88.1897 48.1093 84.8797 53.9993 80.2297 52.9393C78.9497 52.4393 78.8497 53.7993 78.3197 54.6493C77.3897 56.9393 74.4497 56.8593 73.0897 58.2093C71.8297 61.9993 68.9797 65.1893 64.7097 63.8893C63.2897 63.6593 63.7797 66.1293 63.2097 66.7993C62.4697 70.0093 57.8197 69.5593 57.5297 71.2093C59.6997 74.7993 55.2697 79.4293 51.5197 77.4293C49.2597 75.8993 48.2497 72.7693 46.4197 70.6093C44.4797 68.7793 42.1797 67.6093 41.8897 64.6493C37.5897 57.9693 30.8397 51.4293 41.6697 48.6193C41.9597 46.9393 42.0297 44.7893 43.7297 43.8093L43.7397 43.7893ZM76.2397 55.5093C80.6197 50.7793 76.9997 51.0993 74.3397 46.9593C69.2097 33.5493 60.1797 37.7793 57.5897 48.9893C57.7397 52.1493 58.3497 53.6693 55.2597 52.1493C51.8097 50.5393 50.6597 46.8993 49.0797 44.1693C46.7197 42.5493 42.6897 45.0393 42.7597 47.6493C43.1597 51.2993 50.5897 55.1893 48.2197 58.4993C44.3097 59.8093 44.4497 50.3593 41.5897 50.0593C30.7097 51.3693 40.9797 59.6493 42.9897 64.4093C43.2797 65.8893 43.5297 67.4092 45.0797 68.0892C48.8797 69.7892 49.2697 76.3093 53.5197 76.9193C63.5997 73.7893 49.4097 67.9293 52.0297 63.1293C55.3597 61.2193 54.5597 68.9992 57.5197 69.2692C59.7597 69.4592 62.4997 67.4493 62.7897 65.3593C62.1697 61.1193 56.5497 58.8893 58.0797 54.1293C57.3197 51.9693 59.4597 52.6093 60.7697 52.5593C62.0797 52.5293 61.7097 53.7393 61.5297 54.5993C60.3097 60.1093 66.7497 66.7093 70.6297 61.0593C72.4097 59.1693 71.4097 55.2193 74.8797 56.1993C75.3897 56.1293 75.8897 55.8693 76.2597 55.4993L76.2397 55.5093ZM75.1497 31.7293C69.9497 34.4793 75.4097 40.5893 76.7197 44.7993C78.0097 47.2393 78.5797 53.0793 82.4397 51.9093C86.4797 50.5593 85.1497 46.7093 83.0897 44.2293C80.6397 38.9093 83.9997 33.4293 87.7697 29.5093C89.4697 27.6893 89.7097 31.5393 90.2297 33.5593C91.7497 37.7893 92.9597 49.7193 98.8497 43.2393C101.03 38.9593 95.0397 36.7493 97.3997 31.1293C103.38 19.2293 105.31 25.0593 109.29 35.3693C111.27 38.3593 108.38 41.7493 109.57 44.7793C113.18 48.9893 116.07 43.1093 115.87 39.5893C117.28 34.0193 119.45 28.7293 121.74 23.4793C122.94 21.2093 121.63 18.8693 119.08 18.6293C115.35 18.1693 115.2 23.3293 113.92 26.0793C111.43 29.5293 111.53 20.5893 109.51 19.7893C107.21 18.4593 104.83 20.4593 102.53 20.7193C99.2197 19.9693 96.6897 21.2893 94.8797 23.9693C92.0897 23.9693 89.9997 24.7293 87.8697 26.5493C84.8297 25.8393 81.9897 26.5693 80.4797 29.5693C79.1897 31.5693 77.0697 30.4193 75.1397 31.7293H75.1497ZM60.5997 53.8193C57.9597 53.5393 59.1097 57.7293 60.4597 58.8793C60.1497 57.1493 60.2797 55.5293 60.5997 53.8193ZM44.6997 52.7093C44.6997 54.4393 46.5297 55.7693 47.2697 57.2993C49.3097 58.3593 45.0297 53.2793 44.6997 52.7093ZM54.5097 67.2993C54.1897 66.2693 53.6897 64.1793 52.6197 64.0293C51.9697 65.1693 53.9297 66.3593 54.5097 67.2993Z" fill="#2A2929"/>
<path d="M145.11 12.6497C148.88 13.9797 151.69 18.1197 149.92 21.8797C149.8 22.3497 150.15 22.4397 150.57 22.4597C161.2 21.5197 157.74 28.7297 163.5 27.9797C168.38 29.1097 167.48 24.5297 170.94 23.3197C175.16 22.2797 177.66 25.3497 177.79 29.2197C178.33 30.9597 179.86 32.3097 179.86 34.2697C179.73 35.4897 181.03 35.6497 182.01 35.5397C185.01 34.7597 185.48 30.1897 189.65 31.7497C192.66 32.5597 194.22 35.5797 194.16 38.6097C194.85 40.4897 196.49 41.8697 196.56 43.9997C196.59 44.4997 196.88 44.8897 197.4 44.9897C203.5 46.1397 207.69 50.0697 207.76 56.4597C207.79 57.0197 208.06 57.3097 208.62 57.3497C212.56 57.2697 214.39 60.5297 216.4 63.3697C219.82 63.9197 224.57 67.3897 222.13 70.7297C219.53 74.3797 210.57 67.3297 205.73 73.7497C201.87 79.6397 194.55 76.6897 196.3 69.8897C175.02 65.2497 194.72 48.0197 190.06 46.1597C187.67 43.5397 184.25 49.5597 183.11 51.0797C182.21 55.6897 179.92 58.7697 175.33 55.6297C170.14 51.0797 177.35 46.8297 178.05 42.1497C177.65 40.6697 175.9 39.8497 175.33 38.3797C175.06 37.7097 174.59 37.2397 173.94 36.9197C171.95 34.1397 168.04 43.4797 167.12 45.1797C166.74 46.8497 166.59 49.2197 164.65 49.7897C161.15 50.5497 156.93 47.8697 158.3 44.1097C158.21 40.9897 164.77 36.7197 161.5 33.8897C160.93 33.4797 160.32 32.8997 159.96 34.0297C155.1 47.8497 139.24 49.0597 141.78 33.5297C141.73 33.0397 142.69 30.4897 141.78 31.4397C139.31 33.8497 135.51 35.2797 135.38 38.9797C135.81 44.4397 129.26 44.8797 126.86 40.8397C126.09 39.5497 126.73 37.8697 127.3 36.5897C129.34 29.9697 130.12 22.8497 131.58 16.0697C132.64 10.9697 140.9 12.8597 145.13 12.6697L145.11 12.6497ZM216.55 69.9397C223.49 73.7797 223.13 65.3697 216.91 64.5897C213.74 64.3597 213.68 58.0597 209.28 58.2897C206.56 61.1597 203.58 66.2497 199.75 67.8697C198.59 67.2097 199.85 64.9997 199.19 63.8597C198.79 62.7497 198.43 61.9697 199.98 61.6397C212.82 58.4897 205.25 46.4997 195.26 45.5697C196.01 40.7897 192.6 41.0297 192.95 37.2597C193.51 32.4197 186.2 30.7497 184.5 35.4197C183.84 37.5297 180.46 36.5197 179.08 35.8097C178.1 35.2097 178.92 33.8797 178.51 33.0197C178.13 31.7497 176.81 30.9197 176.42 29.7297C176.66 27.4897 176.64 25.0597 173.99 24.2997C168.92 22.4897 169.17 30.5997 164.03 28.9597C162.76 28.5797 161.44 29.4297 160.23 29.2797C158.65 24.7897 154.14 22.0397 149.31 23.8497C144.58 25.4897 153.71 18.0597 145.92 14.0997C143.01 12.5397 140.31 14.3297 137.31 13.8997C135.99 13.8197 134.14 13.3497 133.34 14.6897C130.75 21.1497 130.55 29.3997 128.62 36.0797C124.23 41.4697 134.16 46.0697 134.45 39.3097C134.71 35.4497 134.78 34.8897 138.56 32.9397C140.05 32.0697 141.28 29.8797 142.79 28.9497C146.25 26.6297 140.84 36.6597 142.57 38.9597C144.61 47.2697 155.61 43.3497 157.23 36.4697C158.77 33.3297 159.39 29.7997 162.7 33.3497C163.4 33.8497 164.02 34.3897 164 35.0697C162.92 39.0297 154.78 46.4597 162.04 48.6497C165.31 49.5897 165.65 46.5297 166.36 44.1197C171.67 35.3597 171.63 30.5897 179.07 41.4697C180.13 44.6697 175.57 47.3697 174.79 50.4897C173.21 53.9797 177.91 57.6297 180.51 54.9997C181.77 52.7497 185.95 40.6197 190.3 44.8997C190.99 45.9897 193.72 46.3697 192.89 47.9697C186.12 57.4397 182.73 68.1097 198.56 68.4497C199.47 68.9297 197.45 70.2597 197.05 71.5097C196.51 73.5797 198.38 75.7497 200.39 76.0897C207.84 74.5597 201.53 69.1697 216.55 69.9197V69.9397ZM204.54 61.9897C203 62.5197 201.5 62.8397 199.87 62.8997C200.24 63.9297 200.47 64.9697 200.57 66.0597C201.9 64.7097 203.22 63.3597 204.54 61.9897Z" fill="#2A2929"/>
<path d="M76.0194 55.6998C75.4894 56.1198 74.8694 56.3098 74.1494 56.1698C71.3294 55.5998 72.3094 59.6198 70.6094 61.0698C66.4094 67.0598 59.7994 59.3298 61.6794 53.7698C61.9994 52.3298 60.7794 52.6498 59.6094 52.5598C57.6394 52.3298 57.8894 53.2998 58.1294 54.7998C56.7394 59.0098 61.9594 61.2398 62.7994 64.9598C62.8894 67.7998 57.8794 70.9298 56.1594 68.3898C55.1194 67.0898 54.5294 61.5398 52.0494 63.0398C49.3094 67.0898 61.5694 73.2398 55.4794 76.1798C49.8894 79.1898 49.2694 70.1098 45.2694 68.1998C43.1794 67.3598 43.2994 65.0398 42.5494 63.2798C40.7194 59.6598 32.7794 53.8198 38.8294 50.6998C44.9694 46.5198 43.4594 59.9198 48.2194 58.4998C50.5794 55.1798 43.1694 51.2998 42.7594 47.6298C42.6094 44.7898 47.8294 41.9298 49.6594 44.8398C50.4494 47.9098 53.7594 52.8298 57.4594 52.6098C56.9494 41.8998 67.7394 30.5998 73.9694 46.2298C76.2094 50.7898 81.1194 50.6998 76.0194 55.6898V55.6998ZM54.9494 53.0498C52.7294 51.3098 50.2694 48.9698 49.4794 46.1798C48.9494 42.0198 42.1694 45.1398 43.6194 48.3498C44.5394 50.3898 48.4194 53.6298 49.2794 56.2098C49.8094 57.5198 49.0694 58.4198 48.2194 59.4398C46.1494 61.4198 42.9794 52.9798 42.5294 51.2398C41.0694 49.2798 37.7194 51.7098 37.1994 53.3898C37.3394 57.5298 42.4694 60.5698 43.7194 64.4498C43.9194 65.7298 44.0394 66.9998 45.4394 67.5198C47.1394 68.2498 47.8394 70.0898 48.9694 71.4598C50.3794 72.7098 50.7794 75.1898 52.4894 76.0798C54.6894 76.9798 57.6694 74.5398 56.1094 72.2198C53.7394 68.8898 48.1494 65.1598 52.6294 61.4698C52.8294 61.2498 53.0594 61.1098 53.3394 61.3898C55.9694 65.1298 56.3794 71.8698 61.4594 66.9698C64.0294 63.5598 58.0294 60.6398 57.2494 57.2098C56.9994 54.5398 58.8094 53.4898 54.9694 53.0498H54.9494ZM72.2594 53.9698C74.6394 58.1898 80.0994 52.5898 76.2194 50.1398C72.4594 47.4398 71.2694 38.2598 66.2894 38.9898C53.4194 42.9298 58.9794 62.1598 63.7294 45.8398C65.7394 42.8298 66.5494 46.0398 65.1194 47.8798C55.6794 62.0898 71.1794 69.3398 72.2094 53.9198L72.2594 53.9698Z" fill="#F1F0F0"/>
<path d="M75.4398 31.5793C77.3298 30.4393 79.2798 31.5093 80.4798 29.5693C81.2998 28.5093 82.0098 27.1693 83.3298 26.6693C85.0098 25.4593 87.3197 27.4593 88.8097 25.9193C90.6697 23.3393 94.3397 25.2793 95.8497 22.8393C98.0097 19.1093 101.85 21.7893 104.95 19.9193C113.18 15.9993 110.37 30.1293 113.92 26.0693C115.21 23.3193 115.33 18.1793 119.07 18.6293C120.46 18.7893 121.88 19.6693 122.14 21.0993C120.7 28.3093 116 34.9093 115.43 42.4893C115.09 44.0093 114.36 45.7693 112.8 46.1293C107.56 46.5993 109.78 40.9393 110 37.8393C108.59 33.7293 105.71 22.7393 101.87 24.8093C90.7098 35.1093 102.46 38.1393 98.2697 43.8693C92.3697 48.7993 91.8497 37.4093 90.2097 33.5493C89.6897 31.5293 89.4597 27.6893 87.7497 29.4993C83.9797 33.4293 80.6297 38.8893 83.0697 44.2193C83.7997 45.5393 85.0297 46.8193 85.1397 48.3593C85.4397 49.8093 83.7997 51.4993 82.4197 51.8893C77.7897 53.2893 76.0198 41.7293 73.9398 38.0493C72.0998 35.6993 72.5497 32.8393 75.4297 31.5793H75.4398ZM82.4297 36.4993C82.6397 33.5793 89.5598 28.9593 86.3298 26.9493C81.6898 24.9793 80.3797 33.7193 79.0297 32.2093C77.3597 29.6993 71.3197 34.0493 74.1997 36.6793C76.2797 39.9893 78.1397 53.0793 82.4697 51.1593C89.0697 48.1093 77.5897 42.6393 82.4297 36.4993ZM101.75 21.4393C98.1797 19.7593 96.3098 23.2593 94.7598 25.8693C93.2898 23.8093 89.7897 24.5193 88.9197 27.0093C90.0697 31.8393 91.9397 36.8993 93.1497 41.8093C93.3797 43.0693 94.0998 44.4293 95.5798 44.3393C105.49 42.2993 88.1497 35.5493 101.99 24.2893C102.95 23.4693 103.04 21.9493 101.75 21.4393ZM113.1 29.8393C110.82 26.8693 111.72 20.3893 107.39 19.8793C105.91 19.7193 103.51 20.5693 103.95 22.4093C105.84 27.5993 109.86 32.6693 110.7 38.3493C110.76 40.7793 107.6 45.1893 111.86 45.5793C113.23 45.5893 114.59 44.4593 114.83 43.0593C115.54 35.8093 118.86 29.1593 121.62 22.4493C122.31 20.8293 120.81 19.3393 119.25 19.1793C114.82 18.8293 115.17 26.7493 113.17 29.8593H113.09L113.1 29.8393Z" fill="#F1F0F0"/>
<path d="M60.5997 53.82C60.2797 55.54 60.1597 57.15 60.4597 58.88C59.0997 57.73 57.9497 53.54 60.5997 53.82Z" fill="#F5F5F4"/>
<path d="M44.7002 52.71C45.0102 53.28 49.3202 58.36 47.2702 57.3C46.5202 55.76 44.7002 54.43 44.7002 52.71Z" fill="#F1F0F0"/>
<path d="M54.5102 67.2993C53.9402 66.3693 51.9702 65.1593 52.6202 64.0293C53.6902 64.1793 54.1902 66.2693 54.5102 67.2993Z" fill="#F1F0F0"/>
<path d="M216.19 69.7793C211.02 70.0693 205.78 69.9293 203.2 74.9693C200.28 78.7393 194.64 72.7393 198.05 69.8393C198.59 69.3293 199.33 68.9093 198.63 68.6193C182.32 67.3793 186.19 57.8493 193.18 47.4893C193 46.2693 191.35 46.1693 190.69 45.2593C187.27 41.0093 183.67 48.7593 181.84 51.2693C181.31 54.8493 179.88 57.2093 175.98 55.0493C172.02 52.2793 177.4 46.5893 179.14 43.1993C180.18 40.8493 176.96 39.8593 176.24 37.8793C172.22 30.1693 168.32 40.8793 166.3 44.4693C166.13 47.5593 163.61 50.0893 160.63 47.9993C156.37 44.8693 162.18 39.5393 163.65 36.0893C165 34.2393 162.27 33.2793 161.09 32.0893C158.42 30.0393 156.74 39.6393 155.01 40.3893C146.95 48.7293 139.31 40.3793 143.57 30.6393C146.32 24.4193 138.89 33.3293 136.91 34.0193C132.05 35.1293 137.31 47.3393 128.25 40.9593C126.44 39.5293 128.04 37.6393 128.62 36.0493C130.53 29.3193 130.78 21.1893 133.25 14.8193C134.36 12.7693 137.21 14.2193 139.06 13.8993C145.37 11.6693 152.49 16.8393 147.74 23.2893C147.38 24.1993 148.55 24.0993 149.11 23.8693C159.57 20.7993 158.36 30.2493 161.43 29.1193C163.51 28.2793 166.18 29.9093 167.97 28.0893C169.68 25.8793 170.49 23.1293 173.98 24.2693C176.63 25.0493 176.64 27.4493 176.4 29.6993C176.9 31.1993 178.89 32.1393 178.6 34.2293C178.06 36.5793 181.94 36.7493 183.46 36.4993C184 36.3993 184.24 36.0093 184.48 35.3993C186.18 30.7393 193.51 32.3993 192.94 37.2393C192.89 37.8393 192.83 38.4993 193.04 39.0293C193.72 40.8093 195.96 42.2493 195.22 44.4193C194.91 45.1993 195.15 45.8193 196.09 45.8493C205.29 46.5093 212.19 58.3193 200.75 61.3993C197.48 61.6593 199.73 63.8093 199.3 65.8893C198.27 72.1893 207.87 60.2793 208.61 58.7893C211.71 56.6993 214.09 62.2693 215.5 64.2493C221.53 64.1493 224.62 72.6993 217.73 70.4493C215.74 69.6093 217.52 69.6893 218.41 70.1893C222.16 71.3393 221.29 65.7493 218.3 65.4793C217.25 64.8793 213.71 65.9493 213.97 64.2793C215.25 62.5693 209.93 56.8393 208.69 60.1293C207.5 64.5593 193.54 70.1193 198.95 74.7393C203.49 78.5893 204.72 65.6893 216.15 69.7593L216.19 69.7793ZM188.3 42.8193C194.33 48.8693 197.64 42.3093 191.42 39.5893C190.07 39.1893 190.53 38.6193 191.47 38.0293C194.47 36.3793 190.07 32.2293 187.34 33.1093C186.13 33.4493 185.94 34.7193 185.39 35.6993C183.51 39.0893 180.61 35.9093 177.62 36.6493C175.54 37.7093 178.41 40.2393 179.79 40.8093C183.06 42.4593 173.34 50.0193 175.13 53.4193C175.96 55.0893 179.36 56.2393 180.48 54.2993C180.76 50.5193 185.04 44.2593 188.29 42.8093L188.3 42.8193ZM187.8 62.8393C189.31 66.3493 194.92 69.1693 198.34 67.0393C200.03 64.7293 197.84 61.8693 195.12 62.8993C193.72 63.0593 191.61 62.6993 192.13 60.8493C193.46 58.7293 199.59 63.3393 203.98 59.2093C206.47 57.2193 206.77 53.6393 204.82 51.0793C197.56 40.5193 186.18 53.9193 187.81 62.8293L187.8 62.8393ZM139.9 30.9693C148.53 24.6293 154.33 11.4993 138.57 14.6193C137.04 14.8093 134.66 13.3993 133.75 15.2193C130.7 22.0193 131.7 31.1793 128.29 38.1593C126.46 42.1593 135.03 43.9493 133.94 38.9793C134.2 32.2193 135.22 35.1393 139.9 30.9693ZM159.8 46.5193C161.58 49.6893 166.08 48.4393 165.54 44.6593C167.04 41.1493 169.26 37.1993 171.9 34.4893C172.87 34.1993 173.87 35.2793 175.04 35.6493C179.2 36.2993 178.49 30.5693 174.79 30.4093C174.06 30.4093 173.85 30.1693 174.54 29.6293C178.12 27.5493 174.35 23.6393 171.43 24.8093C169.36 25.7393 169.58 29.1793 167.11 29.5793C165.53 29.9293 163.49 29.0293 162.04 29.6693C159.55 31.3693 163.54 33.3693 165.04 33.8193C164.79 37.9893 158.65 42.0693 159.79 46.5193H159.8ZM158.47 32.7193C162.03 26.1293 152.08 20.6293 147.49 26.0493C143.16 30.5093 139.55 41.5793 147.93 43.2493C153.57 43.8093 156.81 37.0893 158.48 32.7093L158.47 32.7193Z" fill="#F1F0F0"/>
<path d="M72.1998 53.9902C72.7298 64.4102 59.6498 66.1502 62.5698 53.3202C63.1998 50.5002 65.4198 48.3602 65.9198 45.5502C65.8798 44.0402 64.1198 44.6802 63.7198 45.8502C58.9698 62.1902 53.4298 42.9102 66.2898 39.0002C71.2698 38.2702 72.4498 47.4502 76.2198 50.1402C76.7798 50.5402 77.3998 51.2102 77.5198 51.8702C78.0898 54.6902 73.9498 57.1202 72.2498 54.0102L72.1898 53.9902H72.1998ZM71.8398 52.9402C72.8898 55.1402 76.7498 55.9102 77.0998 52.8302C77.1998 52.0602 76.6598 51.1002 75.9398 50.5302C73.3398 48.4102 72.1998 44.5902 70.2698 41.8802C66.3798 34.6002 57.5198 45.7502 58.5398 50.2402C63.4898 55.7202 61.6498 41.6302 66.1598 44.6802C66.7998 45.6202 65.8998 46.9602 65.3398 47.7302C56.9098 60.9702 70.8698 69.6902 71.7998 52.9402H71.8398Z" fill="#512C26"/>
<path d="M53.4901 76.28C49.4001 75.29 48.9601 68.63 45.0501 67.35C43.6701 66.67 44.1101 65.14 43.6101 63.94C42.0201 60.03 33.7201 54.91 38.9901 51.23C41.8101 49.25 42.8701 51.46 43.3301 53.85C44.3801 55.95 45.5701 58.44 47.4001 59.96C53.2701 57.12 44.8101 51.5 43.6401 48.04C45.3401 50.64 51.2101 55.01 49.2301 58.66C48.3001 60.17 47.5301 61.05 46.1101 59.33C43.8801 57.32 42.8501 50.83 40.7401 50.87C33.4401 53.09 41.6801 59.69 43.7401 63.31C44.1801 66.27 44.9801 66.81 47.2701 68.56C49.5201 70.9 50.9001 74.62 53.5501 76.26L53.4901 76.28Z" fill="#512C26"/>
<path d="M57.8002 68.6397C55.3502 68.2797 55.3702 62.5997 52.9302 61.1297C51.8902 62.0897 49.7602 64.1197 51.0102 65.6997C52.3702 68.3297 60.3002 74.7597 54.1502 76.1897C53.7002 76.2597 53.7402 76.1197 54.1002 75.9097C56.6502 74.8197 56.2002 72.8197 54.5602 70.8797C51.2802 67.1797 47.9602 64.1497 52.9702 60.6797C55.6402 62.4297 55.7002 66.5997 57.8502 68.6397L57.8002 68.6597V68.6397Z" fill="#512C26"/>
<path d="M55.0596 53.1396C59.0596 53.2096 56.6996 54.9997 57.2296 57.3797C58.7696 60.9297 66.0496 66.4096 59.1296 68.3796C58.9396 68.4796 57.2496 68.8596 58.2196 68.3596C66.2996 65.8596 58.0996 61.3396 56.7696 57.4196C56.2996 55.8896 58.0296 53.8496 55.6596 53.4996C55.1196 53.4196 54.8896 53.3696 54.9896 53.1596L55.0696 53.1396H55.0596Z" fill="#512C26"/>
<path d="M43.4199 47.8692C43.0399 45.5392 46.0099 43.8292 48.0599 44.2092C48.8199 44.3792 49.2299 45.0592 49.3799 45.7892C49.8699 49.0192 53.2099 51.1692 54.9099 53.3892C51.4399 52.0492 49.7899 47.6992 48.3999 44.8192C46.5999 43.4092 44.1599 46.3292 43.4399 47.9392L43.4099 47.8592L43.4199 47.8692Z" fill="#512C26"/>
<path d="M96.8996 43.9195C92.1896 44.9595 92.4596 35.3195 90.8396 31.8595C90.1796 29.3095 87.4696 26.2695 91.6196 25.2295C93.9496 24.2495 93.8096 25.9195 93.9996 27.4395C95.9896 26.3395 96.1496 21.8695 99.0696 21.5395C100.69 20.7095 103.78 22.2995 101.78 23.9795C97.6896 26.6995 94.8696 32.4195 96.5296 37.1495C97.2296 39.3595 100.11 42.3195 96.8996 43.9095V43.9195Z" fill="#E91F25"/>
<path d="M113.21 29.8901C115.11 26.6901 114.85 18.8601 119.25 19.1701C120.82 19.3301 122.32 20.8101 121.63 22.4401C118.87 29.1601 115.55 35.8001 114.84 43.0501C114.59 44.4501 113.24 45.5901 111.86 45.5801C107.62 45.2101 110.75 40.7701 110.7 38.3501C109.86 32.6701 105.84 27.6001 103.96 22.4101C103.52 20.5601 105.92 19.7201 107.4 19.8801C111.76 20.4001 110.8 26.9201 113.15 29.9101L113.21 29.8901ZM113.18 30.6901C110.92 27.5701 111.21 20.0701 106.76 20.3101C99.3103 20.7001 114.08 34.5401 110.37 41.9801C108.45 45.2601 114.02 46.5101 114.41 43.1801C115.15 35.8801 118.36 29.1301 121.23 22.4401C121.78 21.2201 120.87 19.9901 119.68 19.6501C115.32 18.4501 115.31 27.7501 113.24 30.7101L113.18 30.6801V30.6901Z" fill="#512C26"/>
<path d="M79.5996 32.57C80.2196 31.64 80.5596 30.02 81.4796 29.46C76.3496 41.18 81.8596 26.51 74.0096 33.92C73.6496 34.35 73.4996 34.88 73.7896 35.4C76.3796 40.08 77.5896 45.58 80.0396 50.4C80.7196 51.66 82.4296 51.34 83.3596 50.53C86.5896 47.82 80.2596 43.71 81.0096 40.48C81.4496 43.82 87.3496 48.79 83.0396 50.98C81.5096 51.86 79.9696 51.75 79.4396 49.88C78.9096 46.3 70.6796 35.36 75.1096 32.4C76.2096 31.64 78.4096 30.52 79.1196 32.22C79.2296 32.39 79.4296 32.92 79.5996 32.56V32.57Z" fill="#512C26"/>
<path d="M96.8101 22.8496C91.4201 33.7796 97.0302 20.9796 89.7602 26.2096C88.0902 27.9296 90.8601 30.2296 90.9501 32.1896C92.3701 35.7596 92.3401 43.7896 96.1501 44.1396C96.5801 44.1996 96.3502 44.2796 96.0802 44.3296C91.8001 45.0996 91.4101 32.5196 89.4601 28.9796C86.9201 26.0196 93.1201 22.7096 94.4501 25.7496C95.2601 26.0896 95.9401 23.2396 96.7801 22.8096V22.8496H96.8101Z" fill="#512C26"/>
<path d="M97.0798 43.9494C100.11 42.1994 97.0398 39.2694 96.4398 37.0094C94.8698 32.1994 97.8098 26.4694 101.97 23.7894C102.37 23.5294 102.53 23.7594 102.16 24.1094C98.7798 25.7694 97.7598 29.7094 96.2398 32.8794C94.5498 36.6794 102.22 41.8294 97.0398 43.9994L97.0798 43.9494Z" fill="#512C26"/>
<path d="M87.2698 28.9299C86.1198 30.8599 84.1798 32.2199 83.4898 34.4699C83.3898 34.7099 83.1198 35.3999 82.8398 35.2699C83.5598 32.9699 85.2999 30.0899 87.2999 28.8799L87.2698 28.9299Z" fill="#512C26"/>
<path d="M81.4497 29.3098C82.1197 27.1298 86.8997 25.1798 87.2797 28.4398C87.2797 28.7298 87.2197 29.2198 86.9897 28.6098C85.9697 25.3398 82.6497 28.0498 81.4297 29.3598L81.4497 29.2998V29.3098Z" fill="#512C26"/>
<path d="M101.77 21.4799C99.6803 21.1899 98.4803 21.4899 96.8203 22.7399C98.2303 20.9399 99.6703 20.6199 101.77 21.4799Z" fill="#512C26"/>
<path d="M102.38 23.6095C102.46 22.7795 102.14 22.1795 101.75 21.4795C102.71 22.0795 103.15 22.6195 102.38 23.6095Z" fill="#512C26"/>
<path d="M82.6296 35.9902C82.6196 36.0702 82.4796 36.4402 82.3896 36.2402C82.4096 36.1602 82.5296 35.7902 82.6296 35.9902Z" fill="#512C26"/>
<path d="M82.9103 35.3494C82.9103 35.3994 82.8203 35.5894 82.7903 35.6294C82.5303 35.7694 82.8203 35.0994 82.9103 35.3494Z" fill="#512C26"/>
<path d="M82.7703 35.6699C82.7503 35.7499 82.6303 36.1099 82.5303 35.9199C82.5403 35.8399 82.6803 35.4699 82.7703 35.6699Z" fill="#512C26"/>
<path d="M81.0602 39.8694C81.0602 39.9294 80.9902 40.1094 80.9502 40.1694C80.7002 40.2594 80.9502 39.6294 81.0602 39.8694Z" fill="#512C26"/>
<path d="M81.1897 39.54C81.1897 39.62 81.0697 39.99 80.9697 39.79C80.9797 39.71 81.0897 39.34 81.1897 39.54Z" fill="#512C26"/>
<path d="M81.3001 39.2099C81.3001 39.2899 81.1801 39.6599 81.0801 39.4599C81.0801 39.3799 81.2001 39.0099 81.3001 39.2099Z" fill="#512C26"/>
<path d="M81.4202 38.8896C81.4202 38.9696 81.3002 39.3396 81.2002 39.1396C81.2002 39.0596 81.3202 38.6796 81.4202 38.8896Z" fill="#512C26"/>
<path d="M81.5403 38.5595C81.5403 38.6395 81.4203 39.0095 81.3203 38.8095C81.3203 38.7295 81.4403 38.3595 81.5403 38.5595Z" fill="#512C26"/>
<path d="M81.6696 38.2399C81.6696 38.2899 81.5896 38.4899 81.5596 38.5299C81.3096 38.6699 81.5596 37.9999 81.6696 38.2399Z" fill="#512C26"/>
<path d="M81.7896 37.9101C81.7796 37.9901 81.6596 38.3601 81.5596 38.1601C81.5696 38.0801 81.6896 37.7101 81.7896 37.9101Z" fill="#512C26"/>
<path d="M81.9302 37.5898C81.9202 37.6698 81.8002 38.0398 81.7002 37.8398C81.7102 37.7598 81.8302 37.3898 81.9302 37.5898Z" fill="#512C26"/>
<path d="M82.0697 37.2693C82.0697 37.3193 81.9797 37.5093 81.9397 37.5493C81.6797 37.6893 81.9697 37.0193 82.0597 37.2693H82.0697Z" fill="#512C26"/>
<path d="M82.2101 36.95C82.2101 37 82.1201 37.19 82.0801 37.23C81.8201 37.37 82.1101 36.7 82.2101 36.95Z" fill="#512C26"/>
<path d="M82.3502 36.6297C82.3502 36.6797 82.2602 36.8697 82.2302 36.9097C81.9602 37.0497 82.2502 36.3797 82.3502 36.6297Z" fill="#512C26"/>
<path d="M82.49 36.3095C82.48 36.3895 82.35 36.7595 82.25 36.5595C82.27 36.4795 82.39 36.1095 82.49 36.3095Z" fill="#512C26"/>
<path d="M159.75 46.2598C158.87 41.9298 164.8 37.8898 165.04 33.8098C163.63 33.2898 159.96 31.7798 161.73 29.8398C166.04 28.5698 167.89 31.5698 170.32 25.8398C172.25 22.4198 178.21 26.5398 175.17 29.1298C172.8 30.8698 174.99 30.0498 176.17 30.7798C178.33 31.8798 178.71 35.5598 175.69 35.7098C173.58 35.3898 171.66 33.0598 170.51 35.9598C167.9 39.6098 165.83 43.4598 164.73 47.6198C163.66 48.8498 160.37 48.2598 160.02 46.7298C162.15 48.1398 164.99 48.8198 165.11 45.2998C166.23 41.4598 168.85 36.9498 171.73 34.1198C172.89 33.5698 174.28 35.1398 175.54 35.2998C179.4 34.9198 176.95 29.9698 173.93 30.9198C171.59 29.8998 177.81 28.1698 174.74 25.8598C173.49 24.7398 171.1 24.6298 170.29 26.3398C168.71 31.6398 165.97 29.2998 162.18 30.1098C160.58 31.9398 164.49 33.3398 165.91 33.2198C164.83 37.3698 160.56 41.5898 159.77 46.2798L159.75 46.2598Z" fill="#512C26"/>
<path d="M158.379 32.9194C151.959 52.3894 134.649 40.7094 147.489 26.0394C152.099 20.5694 162.209 26.2194 158.379 32.9194ZM143.469 34.6794C141.349 40.8594 149.159 46.3894 153.639 40.3494C157.809 35.5894 162.419 25.6294 153.299 24.3094C147.689 23.6994 144.529 30.0694 143.469 34.6894V34.6794Z" fill="#512C26"/>
<path d="M128.17 40.1901C127.98 40.0501 127.87 39.3501 128.02 38.9101C131.7 31.7601 130.63 22.0701 133.85 15.0101C134.87 13.4301 137.09 14.7701 138.58 14.5801C152.82 11.1601 149.62 23.8001 141.01 29.8801C143.25 25.9901 152.65 19.9401 146.04 15.2201C143.94 13.6401 141.41 14.6901 139.09 14.8901C137.61 14.9701 136.07 14.4601 134.63 14.8901C130.72 22.0501 131.6 32.7601 128.25 40.2401L128.18 40.2201L128.17 40.1901Z" fill="#512C26"/>
<path d="M180.67 53.3598C180.75 56.3798 176.01 55.4598 175.14 53.4398C174.62 49.1098 179.25 45.7498 180.73 41.8298C180.97 41.2498 180.06 40.9498 179.81 40.8298C178.53 40.2098 175.74 38.1498 177.46 36.7398C182.1 36.0598 184.05 39.7398 186.55 33.6198C188.86 31.2598 195.03 36.2398 191.39 38.0398C191.16 38.0598 191.23 37.9698 191.4 37.7798C193.19 36.2098 190.72 33.6098 188.89 33.5798C184.18 34.1898 186.31 39.5398 179.02 36.9998C175.87 36.6498 178.03 40.0498 181.09 40.7198C181.45 40.8198 181.94 40.8698 181.79 41.2998C180.07 44.6098 174.74 49.8598 175.64 53.2398C176.51 55.4498 180.01 55.3098 180.68 53.3598H180.67Z" fill="#512C26"/>
<path d="M215.81 69.2596C210.79 69.1396 205.77 69.2196 203 74.1396C201.38 77.6496 195.81 73.8696 197.94 70.9596C201.11 67.1096 206.4 64.2896 208.81 59.7796C208.85 59.1396 210.12 58.4996 209.73 59.5096C206.75 64.4096 200.66 67.4496 197.85 72.2696C197.8 75.0596 201.66 76.4796 202.91 73.5796C205.84 68.6996 210.81 68.5196 215.86 69.2396L215.81 69.2696V69.2596Z" fill="#512C26"/>
<path d="M196.689 47.2297C205.789 45.7097 210.399 60.2097 199.749 60.9197C199.149 60.9597 198.759 60.7597 199.469 60.6197C210.489 59.0297 204.479 46.9797 196.689 47.2297Z" fill="#512C26"/>
<path d="M139.85 31.0201C138.59 32.6101 136.69 33.2501 134.86 33.9201C133.74 38.0601 134.54 45.8201 128.28 40.3301C135.71 45.3401 132.39 36.3401 134.97 33.2701C135.84 33.0101 136.97 33.2301 137.74 32.4301C138.49 32.0401 139.15 30.8201 139.89 30.9501L139.85 31.0201Z" fill="#512C26"/>
<path d="M187.49 61.2099C187.61 56.1599 192.49 47.9299 196.38 47.6699C191.04 49.8699 189.06 56.6599 187.49 61.2099Z" fill="#512C26"/>
<path d="M198.29 60.9495C196.46 61.6395 193.6 59.1195 192.16 60.5995C191.21 62.9495 194.36 63.1495 195.96 62.8095C196.27 62.8095 196.68 62.5395 196.66 62.9195C194.31 64.1995 190.1 62.9295 192.06 59.6495C192.2 59.4995 192.49 59.4795 192.79 59.5495C194.48 60.2695 196.97 60.0595 198.35 60.9295L198.3 60.9495H198.29Z" fill="#512C26"/>
<path d="M187.59 42.6098C185.06 45.8198 182.01 48.7698 180.56 52.6498C181.04 48.7098 184.88 44.9798 187.6 42.5098V42.6098H187.59Z" fill="#512C26"/>
<path d="M209.94 59.0198C211.99 59.8298 215.53 62.3498 213.61 64.7798C216.61 65.8398 212.64 65.3198 211.76 65.2598C211.87 64.7798 212.46 64.5198 212.91 64.3198C215.79 62.6098 210.53 59.9798 209.89 59.0098L209.94 59.0298V59.0198Z" fill="#512C26"/>
<path d="M190.95 38.2695C190.42 38.7695 189.94 39.3995 191.08 39.3695C193.72 39.8195 196.93 44.8695 192.63 45.5195C191.94 45.4095 192.63 45.2495 193.03 45.0295C196.41 43.0695 191.88 39.3295 189.33 39.6095C189.31 39.2695 190.78 37.4295 191 38.2095L190.96 38.2495L190.95 38.2695Z" fill="#512C26"/>
<path d="M195.95 67.74C192.82 67.55 188.79 65.96 187.84 62.75C189.56 65.7 193.18 66.66 196 67.74H195.94H195.95Z" fill="#512C26"/>
<path d="M214.81 65.1696C217.4 64.8896 221.47 65.8296 221.03 69.1796C220.09 65.8996 217.35 65.8696 214.75 65.1796H214.81V65.1696Z" fill="#512C26"/>
<path d="M196.73 62.6897C199.88 62.6697 199.5 68.4597 196.21 67.7997C195.55 67.4097 196.44 67.5697 196.84 67.4097C199.4 66.4797 198.58 63.6697 196.66 62.6797H196.73V62.6897Z" fill="#512C26"/>
<path d="M221.07 69.2094C220.03 71.6694 218.02 69.4495 216.39 69.7895C216.67 69.4495 215.74 69.4594 215.88 69.0894C217.72 68.9494 219.48 71.1595 220.92 69.2195C220.96 69.2195 221.03 69.2195 221.07 69.2195V69.2094Z" fill="#512C26"/>
<path d="M192.34 45.4895C190.69 45.4695 190.19 43.5795 188.8 42.9395C188.77 42.8695 188.76 42.8095 188.74 42.7295C190.3 42.9795 190.87 44.7095 192.28 45.3095C192.31 45.3695 192.32 45.4295 192.35 45.4895H192.34Z" fill="#512C26"/>
<path d="M187.77 62.7697C187.51 62.2497 187.38 61.8197 187.52 61.2497C187.59 61.2397 187.67 61.2297 187.74 61.2197C187.83 61.7297 187.91 62.2397 188 62.7497C187.92 62.7497 187.85 62.7697 187.77 62.7797V62.7697Z" fill="#512C26"/>
<path d="M140.9 30.0193C140.61 30.4293 140.26 30.7393 139.84 30.9993C139.78 30.9493 139.73 30.8993 139.67 30.8393C140.03 30.4993 140.38 30.1593 140.74 29.8193C140.79 29.8793 140.85 29.9393 140.9 30.0093V30.0193Z" fill="#512C26"/>
<path d="M198.95 60.9199C198.74 60.9199 198.54 60.9299 198.33 60.9399C198.31 60.8499 198.3 60.7499 198.28 60.6599C198.49 60.6599 198.7 60.6399 198.91 60.6299C198.91 60.7299 198.93 60.8199 198.94 60.9199H198.95Z" fill="#512C26"/>
<path d="M188.18 42.76C187.91 42.87 187.58 42.72 187.52 42.46C187.72 42.49 187.92 42.52 188.13 42.55C188.15 42.62 188.16 42.68 188.18 42.75V42.76Z" fill="#512C26"/>
<path d="M188.79 42.9396C188.51 43.0496 188.15 42.8296 188.12 42.5596C188.33 42.6096 188.53 42.6696 188.73 42.7396C188.75 42.8096 188.77 42.8696 188.78 42.9396H188.79Z" fill="#512C26"/>
<path d="M180.68 52.6094C180.82 52.7794 180.78 53.1294 180.56 53.1394C180.55 52.9794 180.53 52.8094 180.52 52.6494C180.57 52.6494 180.63 52.6294 180.68 52.6194V52.6094Z" fill="#512C26"/>
<path d="M71.7695 52.9695C70.3195 70.9595 56.3895 59.4695 66.0595 46.6095C67.1995 44.5595 65.0395 43.1795 63.7095 45.0895C62.0995 46.8295 63.2595 51.0395 60.3595 51.3895C55.3795 50.3895 60.9295 43.4795 62.9295 41.3495C69.9695 34.5695 71.7095 47.3795 75.9395 50.5195C79.4695 53.6795 74.1895 57.1195 71.8095 52.9295L71.7795 52.9695H71.7695ZM66.0695 54.7495C65.6695 55.6595 66.2395 56.9895 67.1695 57.3295C70.7895 57.1695 68.4195 50.6495 68.2995 48.2795C67.1495 50.1695 65.9195 52.4595 66.0595 54.7495H66.0695Z" fill="#E91F25"/>
<path d="M43.7496 47.7698C43.9396 45.5598 48.0296 42.7598 48.9596 45.7798C49.4096 48.7098 51.8396 50.3498 53.4896 52.5698C54.3496 54.0098 57.8896 53.0698 56.9396 55.6298C55.8596 59.4098 60.9996 61.8298 61.9096 65.1598C61.8596 67.2498 57.5696 69.8198 56.6396 67.2698C55.9696 64.9398 54.8596 62.5098 53.1296 60.8098C52.0096 60.8398 49.8796 64.2198 50.3896 65.2698C51.8496 68.7198 60.4496 75.6198 52.8996 75.7098C49.6596 73.3398 48.3496 68.2998 44.4596 66.3398C43.8596 61.8598 39.8696 58.7298 37.7696 54.7698C37.1196 53.4698 38.1896 52.1298 39.3196 51.4598C42.7896 48.6898 43.3996 56.8098 45.9396 59.1898C47.4496 61.0198 48.1296 60.3298 49.1696 58.6598C51.3196 54.9098 45.1896 51.1798 43.7396 47.7598L43.7496 47.7698Z" fill="#E91F25"/>
<path d="M113.3 30.6994C115.29 27.5694 115.28 18.5794 119.67 19.6494C120.86 19.9894 121.78 21.2194 121.22 22.4394C118.35 29.1194 115.14 35.8694 114.4 43.1794C114.02 46.4894 108.45 45.2794 110.36 41.9794C113.98 34.7594 100.14 21.5494 106.14 20.3994C111.21 19.2994 110.78 27.5794 113.23 30.7094L113.29 30.6894L113.3 30.6994Z" fill="#E91F25"/>
<path d="M82.3499 36.3293C79.2999 40.6093 82.4699 44.5593 84.3899 48.2393C80.5599 57.9593 76.3499 40.7393 74.5199 36.6993C71.8099 34.3393 76.0699 31.6193 78.1299 31.8893C78.9499 32.1493 78.4999 33.7693 78.8499 34.3293C78.9699 34.4793 79.0699 34.5293 79.1899 34.2993C80.3399 31.2193 84.6899 23.6693 86.9399 28.5393C85.5999 31.0993 83.1999 33.3193 82.3499 36.3293Z" fill="#E91F25"/>
<path d="M79.5198 32.7895C79.5398 33.0995 79.2598 33.0395 79.2698 32.7695C79.3498 32.7695 79.4398 32.7795 79.5198 32.7895Z" fill="#F1F0F0"/>
<path d="M159.79 46.3096C160.71 41.5796 164.26 37.6496 166.09 33.3396C164.64 33.0496 161.44 32.6196 161.83 30.4696C163.07 29.0896 165.48 30.3796 167.11 29.9996C170.28 29.6596 169.81 23.8296 173.39 25.1196C179.28 27.4496 171.67 29.5896 173.96 30.9196C175.8 30.4396 178.27 32.1896 177.43 34.1896C175.84 37.2796 172.62 32.4496 170.86 34.6696C168.91 38.1096 165.9 41.4796 165.11 45.2996C165.32 48.5596 161.52 48.4096 159.79 46.3996V46.2996V46.3096Z" fill="#E91F25"/>
<path d="M143.53 34.4701C144.43 30.6701 146.62 26.0601 150.46 24.6201C164.78 21.3601 157.09 44.0101 147.62 42.8701C143.79 42.4101 142.63 37.6601 143.53 34.4701ZM147.38 35.9001C146.53 47.1201 157.48 29.6401 153.48 27.6901C149.39 27.1501 148.4 33.0901 147.38 35.9001Z" fill="#E91F25"/>
<path d="M140.68 29.8802C138.98 31.7302 137.01 33.2302 134.66 33.3802C133.41 36.7102 134.22 43.8702 129.82 41.2202C129.25 40.8402 128.36 40.4102 128.56 39.6002C131.14 32.0102 131.14 22.3902 134.35 15.1102C151.26 12.3802 152.17 19.0102 140.69 29.8802H140.68ZM138.1 25.8402C141.48 23.8402 146.85 14.7902 138.81 19.5402C136.14 20.9902 136.67 25.0802 135.99 27.6702C136.75 27.3602 137.62 26.6602 138.06 25.8702L138.11 25.8402H138.1Z" fill="#E91F25"/>
<path d="M180.52 52.8393C180.75 55.5093 176.46 55.4893 175.65 53.2493C174.76 49.9193 179.88 44.7693 181.71 41.4393C182.07 40.7793 181.33 40.8293 180.63 40.5893C178.95 40.3493 175.45 36.7693 179.01 36.9893C186.22 39.5793 184.31 34.0193 188.84 33.5693C191.15 33.6293 193.42 36.9893 190.64 38.2193C190.17 38.4893 188.91 39.4193 189.9 39.6693C192.32 39.8093 195.12 42.4893 193.9 44.2293C191.81 46.9093 190.27 42.4493 187.95 42.5293C184.64 44.7093 181.1 48.8693 180.5 52.8293L180.52 52.8393Z" fill="#E91F25"/>
<path d="M220.82 69.3401C219.71 70.8101 217.98 69.3901 216.5 69.1601C208.65 68.3001 206.17 69.2901 201.32 75.1501C191.09 73.8201 207.56 63.6501 210.11 59.3301C211.52 59.9501 215.35 62.8801 212.93 64.2401C212.52 64.5001 211.6 64.8801 212.14 65.2601C215.21 65.5001 220.63 65.0601 220.83 69.3501L220.82 69.3401Z" fill="#E91F25"/>
<path d="M198.89 60.5997C196.78 61.2997 192.78 58.2497 191.72 60.4597C191.34 61.6997 191.92 62.8997 193.19 63.1997C195.39 63.7197 198.83 62.0097 198.43 65.7997C196.15 69.9497 187.93 65.2697 187.77 61.4097C192.45 33.3597 217.73 57.0897 198.89 60.6097V60.5997ZM199.12 52.2397C197.47 52.5597 195.5 53.5097 194.66 55.0497C193.02 58.0897 201.39 56.2897 201.68 54.6897C202.06 53.4197 200.36 51.8497 199.12 52.2397Z" fill="#E91F25"/>
<path d="M66.0699 54.6098C65.9599 52.3798 67.1199 50.1498 68.2899 48.2998C68.6299 50.9798 70.0599 54.8598 68.2399 57.2198C66.9699 58.0998 65.5699 56.0898 66.0299 54.9398C69.1799 60.9998 68.8199 51.1698 68.1299 49.3998C67.0799 50.8398 66.6899 52.9698 66.0899 54.6498V54.5998L66.0699 54.6098Z" fill="#512C26"/>
<path d="M147.41 35.7193C148.43 33.0293 148.97 29.2493 151.78 27.8593C153.79 26.9493 154.83 28.5293 154.29 30.4293C153.34 35.5193 146.5 45.1693 147.41 35.7193ZM152.09 28.3693C149.42 29.2293 145.88 37.5293 148.61 39.4093C150.89 39.1493 156.93 25.7293 152.09 28.3693Z" fill="#512C26"/>
<path d="M137.92 26.0594C137.74 26.5394 136.66 27.4694 136.12 27.6394C136.09 27.6194 136.02 27.5694 135.99 27.5494C135.27 15.9994 150.55 14.7194 138.23 25.7494C140.67 23.1794 146.45 15.6894 138.77 19.9194C136.74 21.1394 137.08 24.4294 136.59 26.6994C136.69 27.0594 137.83 25.8794 137.91 26.0594H137.92Z" fill="#512C26"/>
<path d="M199.22 52.2202C200.18 51.9902 201.23 52.8302 201.63 53.6802C202.18 56.1002 198.81 56.4702 197.07 56.5202C195.72 56.6402 197 56.1702 197.53 56.0602C200.7 55.7702 203.38 54.1202 199.18 52.2702L199.22 52.2102V52.2202Z" fill="#512C26"/>
<path d="M196.35 56.5401C191.22 57.0401 197.46 51.9001 199.05 52.2301C199.51 52.4801 199.07 52.6101 198.7 52.7501C197.86 52.9901 193.86 55.4701 195.27 56.0201C195.62 56.0301 196.33 56.3001 196.4 56.5301H196.35V56.5401Z" fill="#512C26"/>
<path d="M66.1098 54.6399C66.6798 52.8999 67.0998 50.9299 68.1398 49.3799C68.8798 51.2299 68.9398 61.5299 66.0898 54.6999L66.1098 54.6399ZM67.7598 55.2499C68.1898 54.9599 67.9998 53.7099 67.3598 54.1299C66.7698 54.4699 67.0398 55.9899 67.7598 55.2599V55.2499Z" fill="#FDFDFD"/>
<path d="M152.269 28.2895C156.729 26.0695 150.999 38.8795 148.699 39.4095C145.809 37.9295 149.279 29.3595 151.999 28.4195C151.269 29.5995 145.469 39.5095 149.589 37.9895C151.149 35.7895 155.059 29.5695 152.229 28.3395L152.269 28.2895Z" fill="#F1F0F0"/>
<path d="M138.01 25.8895C137.61 26.1495 137.04 26.5995 136.57 26.8295C137.14 24.6495 136.63 21.2995 138.77 19.9295C146.47 15.7395 140.55 23.4895 138.01 25.8895ZM137.94 22.4695C136.93 26.8395 142.21 20.9395 141.69 19.7695C140.06 19.0095 138.35 20.9495 137.94 22.4695Z" fill="#F5F5F4"/>
<path d="M196.33 56.4901C195.93 56.1701 195.18 56.1801 194.77 55.8401C198.77 49.4201 206.54 54.7601 196.38 56.5201L196.33 56.4901Z" fill="#FDFDFD"/>
<path d="M67.7496 55.2602C67.0196 56.0002 66.7596 54.4802 67.3496 54.1302C67.9896 53.7202 68.1896 54.9602 67.7496 55.2502V55.2602Z" fill="#323231"/>
<path d="M152.17 28.3899C155.48 29.7199 150.19 37.1699 149.33 38.2699C145.73 38.9999 151.38 29.2799 152.12 28.3799L152.17 28.3999V28.3899ZM152.13 30.2199C150.63 32.1799 149.88 34.2599 149.38 36.6699C150.69 34.6299 151.56 32.5799 152.13 30.2199Z" fill="#2A2929"/>
<path d="M137.94 22.47C138.35 20.95 140.06 19.01 141.69 19.77C142.21 20.94 136.92 26.85 137.94 22.47Z" fill="#2A2929"/>
<path d="M172.09 238.48C153.53 236.11 135.78 228.04 117.53 225.12C104.59 221.33 51.4196 224.83 46.5996 204.7C47.3896 195.78 62.7596 201.37 64.2696 196.73C66.0596 191.85 68.8296 187.03 73.5096 184.4C74.0296 184.13 74.8496 183.57 73.8596 183.29C65.2296 181.48 52.5496 163.78 66.2796 161.24C69.0896 161.13 71.1696 163.22 73.2596 164.71C73.3396 164.76 73.6696 164.91 73.6696 164.73C70.6296 161.85 68.0596 158.93 68.6096 154.69C68.4996 144.48 82.1896 143.75 87.9896 142.13C79.8296 139.95 74.6896 133.68 69.1996 128.06C64.1696 126.41 53.8196 118.31 62.7496 114.26C67.9896 113.77 62.8296 102.83 69.8296 94.3195C75.3496 88.3295 71.5896 75.2295 78.6896 70.9495C86.9996 67.7795 97.6896 71.9095 103.97 77.6095C104.41 78.1795 104.91 78.0995 105.52 77.8195C143.86 45.9295 210.34 74.9795 234.35 113.9C220.68 111.09 201.47 99.4495 188.68 101.64C204.53 106.68 222.06 116.76 224.53 134.28C224.37 135.7 226.39 141.81 224.37 141.56C214.52 138.91 204.14 135.96 193.84 136.99C190.31 137.38 190.8 138.56 192.05 141.17C192.41 142.63 192.05 144.38 192.88 145.65C201.59 152.13 208.5 161.83 205.74 172.94M198.41 173.48C170.04 173.39 176.8 185.28 169.61 168.3C177.57 165.93 185.89 173.65 193.66 172.23C185.08 167.55 174.7 164.75 165.01 166.53C165.6 167.87 167.37 168.94 168.03 170.54C170.91 175.5 169.43 179.21 172.69 177.52C172.99 177.49 173.26 178.03 173 178.28C154.67 185.92 145.03 209.3 159.93 225.14M171.64 237.73C186.69 239.18 126.95 224.53 124.9 223.16C106.42 218.71 67.3496 222.17 50.8696 207.25C47.1096 199.63 62.2996 202.45 66.6496 201.12C69.2396 185.3 86.3796 181.97 77.3296 181.31C71.7696 180.44 66.7696 175.37 63.9896 170.23C60.9996 161.72 72.1696 163.86 73.9996 169.54C74.5796 170.29 75.9296 169.73 77.0996 169.56C78.6396 169.61 76.3396 167.42 77.0596 166.4C77.2496 165.58 77.6196 164.96 77.1196 164.4C70.4496 159.92 70.0096 150.57 78.0996 147.49C84.9296 143.96 97.8796 146.2 102.87 143.68C91.7396 141.02 79.4296 137.28 73.3196 127.18C71.2096 124.42 67.0996 124.31 64.6196 121.91C60.3296 118.38 63.8496 116.2 68.7896 116.47C69.3296 116.51 69.6996 116.39 69.5096 115.75C66.3796 106.05 71.4296 97.9595 76.5496 90.3895C76.3696 84.9795 76.3296 76.2795 81.2896 73.3995C89.5696 71.4395 97.0496 75.4195 103.27 80.1495C105.01 81.9495 106.49 80.8096 108.77 79.4796C139.08 51.4396 205.69 75.8395 225.48 107.86C211.86 103.83 191.64 92.6095 179.74 101.43C197.48 106.68 221.16 116.81 221.46 137.29C209.92 135.88 195.94 129.51 185.57 137.89C184.44 138.92 188.15 139.79 188.36 140.86C189.43 141.94 188.45 144.16 188.87 145.91C197.02 153.1 204.88 160.18 202.67 171.23C201.67 173.05 204.55 173.93 205.12 172.11C207.17 161.97 201.63 152.89 193.14 146.91C190.7 145.4 192.16 142.22 190.85 140.05C188.61 130.22 218.49 139.6 224.23 140.58C225.54 119.41 204.63 106.79 186.16 101.41C199.12 97.4495 218.18 108.93 232.37 112.73C212.32 75.5896 139.45 47.1195 105.55 78.5895C105.08 78.7395 104.54 78.9295 104.18 78.5695C98.1496 72.7095 88.7596 69.5295 80.4796 70.8495C72.6196 74.7195 75.6196 85.7596 72.6596 92.2596C67.4196 97.4195 65.8296 104.86 66.2296 111.96C67.0996 115.94 60.8596 113.75 60.2196 117.95C59.7796 124.45 67.9596 125.15 71.5296 128.76C76.7496 136.57 82.6696 138.99 91.4796 142.62C81.1096 142.82 59.0996 149.92 74.1996 164.08C74.7396 164.54 75.0096 166.46 74.2796 166.46C58.1996 152.07 55.7396 176.58 74.8496 182.78C78.4796 183.32 66.7696 187.69 64.9596 197.41C63.3496 201.37 57.3496 198.51 54.1296 199.75C47.1396 200.39 45.3596 207.43 50.9996 210.82C72.6196 224.77 100.72 219.49 124.99 225.78C140.62 229.3 155.75 235.38 171.64 237.74V237.73ZM124.66 181.3C129.14 187.49 134.29 194.65 141.74 197.48C138.97 191.99 132.89 185.93 132.62 179.27C135.47 178.22 137.86 174.79 140.77 174.76C148.75 175.81 156.1 179.9 163.22 182.34C164.46 182.84 169.8 179.4 169.28 177.84C168.85 172.4 164.62 164.9 157.97 166.19C155.68 167.7 153.63 167.83 150.98 167C146.82 167.21 143.41 172.52 138.76 170.64C135.59 169.31 136.44 164.14 134.57 161.21C128.76 153.1 136.22 147.54 141.99 154.7C143.14 155.72 144.9 155.18 144.23 153.47C143.92 149.61 148.89 148.33 149.69 146.59C145.73 137.86 158.18 129.37 164.79 136.6C169.99 141.88 181.57 120.23 197.72 120.58C208.55 119.26 207.4 128.02 198.53 130.51C197.25 131.06 195.49 131.42 194.84 132.59C203.21 132.12 212.26 135.03 220.15 135.62C218.05 114.97 194.25 107.05 176.72 101.64C187.94 90.9795 208.68 101.43 222.18 105.28C200 73.8195 136.1 53.8995 105.43 82.1395C104.94 82.3695 104.46 82.4295 104.06 82.0295C98.6996 76.7495 91.2596 74.3595 83.7496 73.7395C76.9596 74.4195 77.6296 86.2595 77.7996 91.4595C74.4996 96.1595 69.6196 100.7 70.0696 106.88C70.0196 109.12 71.8496 103.68 72.3696 103.18C75.3196 97.1495 84.9596 86.2195 85.8296 100.59C85.6796 106.44 84.4496 117.89 93.3496 110.74C101.75 105.54 109.1 98.7695 117.83 94.5895C127.64 91.4995 140.05 101.09 136.83 111.74C135.71 117.21 131.69 121.23 128.71 125.68C163.79 115.85 151.97 151.95 112.5 145.51C139.04 154.24 128.19 181.72 102.57 177.83C101.42 177.62 101.47 178.25 101.67 179.25C103.83 187.7 97.4096 182.45 95.5296 188C96.7396 188.8 98.5796 188.13 100.03 188.61C106.05 189.67 103.35 193.94 106.17 196.41C107.04 196.77 108.29 196.48 109.29 196.47C111.89 196.33 111.39 196.2 111 193.45C109.03 188.09 120.79 190.35 124.54 181.32H124.62L124.66 181.3ZM107.78 128.04C136.6 136.28 149.25 91.1795 117.64 95.6795C107.73 100.68 99.1496 109.18 89.0496 114.3C83.2196 129.03 73.3496 111.2 83.5596 106.44C84.2496 106.24 84.6796 105.74 84.6596 105.03C87.6396 80.0595 65.4096 107.94 72.0996 117.03C77.2496 118.03 81.5196 121.35 86.1996 122.91C93.4996 123.31 100.2 127.97 107.78 128.05V128.04ZM126.75 163.9C128.04 138.44 77.7496 139.04 87.5196 167.27C94.7396 181.25 123.82 181.25 126.75 163.9ZM110.79 143.86C150.65 152.32 162.35 117.15 130.32 126.42C117.63 131.66 102.8 129.56 90.3596 124.31C89.1996 123.93 86.9596 123.18 85.9596 123.95C84.1896 125.73 89.7196 126.45 90.4196 128.16C97.1996 144.42 88.2296 139.55 110.78 143.86H110.79ZM96.9996 203.59C110.09 215.5 90.7696 217.42 115.85 218.42C121.66 218.84 130.58 223.24 135.09 218.3C138.19 212.94 132.39 207.55 128.69 204.12C118.5 202.24 107.38 205.5 96.9896 203.55L97.0096 203.6L96.9996 203.59ZM94.1796 202.53C86.4096 200.85 74.2196 198.72 67.4896 202.19C63.9796 203.2 57.5196 202.34 54.6196 203.23C44.9596 205.73 59.7996 212.2 63.0796 213.29C72.4296 215.8 81.7596 216.03 91.2496 216.7C92.0696 216.76 93.2496 216.85 93.1696 215.7C93.4696 202.87 75.0096 203.22 94.1996 202.55L94.1796 202.53ZM166.98 233.23C157.71 226.22 155.28 219.81 150.69 210.61C148.69 209.96 142.94 208.75 138.59 207.99C136.16 207.64 133.09 207.24 135.16 209.8C138.82 216 137.94 220.9 130.31 221.25C117.57 221.02 104.94 216.81 92.3096 218.02C103.66 219.9 115.21 219.83 126.55 222.47C139.75 226.3 153.36 231.09 167.01 233.3L166.98 233.24V233.23ZM168.91 159.28C164.51 158.88 156.87 157.19 161.45 151.88C161.71 151.56 162.04 151.16 161.59 150.84C158.24 149.28 153.52 150.35 150.43 147.68C144.12 149.56 144.08 156.99 149.88 159.67C152.67 162.01 155.03 165.21 158.95 165.22C167.28 164.89 180.14 166.53 184.61 158.06C185.14 156.47 184.11 156.69 183.09 157.07C178.52 158.64 173.8 159.65 168.9 159.28H168.91ZM150.68 202.7C147.44 196.48 128.25 180.22 142.08 177.74C148.56 179.08 154.87 181.36 160.49 184.46C161.41 184.92 162.21 184.54 162.65 183.65C156.7 179.31 148.76 177.36 141.43 175.64C138.7 175.21 137.02 178.22 134.54 179.14C131.93 183.95 142.76 195.11 145.14 199.56C136.39 198.01 130.29 190.34 125.14 184.09C124.23 182.89 123.45 184.96 122.67 185.42C122.3 186.56 115.09 189.57 117.43 189.59C131.94 191.19 125.15 192.91 130.05 201.75C130.22 202.44 129.15 203.07 129.8 203.72C131.19 204.88 132.41 206.86 134.45 206.82C139.9 207.25 145.33 208.38 150.65 209.62C151.17 209.72 151.48 209.57 151.35 209.07C149.88 203.94 132.39 208.07 132.67 201.78C132.3 200.28 128.81 194.56 131.75 194.64C136.87 199.18 143.53 202.11 150.64 202.76L150.69 202.71L150.68 202.7ZM151.47 201.73C152.42 195.4 156.86 190.35 160.11 185.42C136.88 172.78 129.1 178.25 151.42 201.78L151.47 201.73ZM73.5396 171.54C72.5696 168.3 70.0996 164.95 66.1896 165.79C60.3196 169.41 74.6996 181.44 79.5796 180.96C83.3096 181.17 86.2596 178.34 89.8996 178C91.4596 177.73 93.6596 178.82 94.9196 177.52C96.8696 175.12 91.8696 174.08 90.3796 172.94C85.1796 170.39 79.0796 169.75 73.6096 171.6L73.5396 171.54ZM175.87 165.22C182.18 166.6 188.58 168.02 194.17 171.15C195.92 171.89 200.03 174.17 201.14 171.69C202.9 163.07 198.65 155.78 192.22 150.61C191.7 150.29 190.88 149.13 190.31 149.78C189.8 152.6 186.58 154.13 185.99 156.78C186.18 162.1 179.96 163.4 175.85 165.18L175.88 165.22H175.87ZM112.42 190.99C119.26 190.97 131.25 193.56 116.23 196.63C111.21 197.52 102.76 198.11 98.8396 195.4C98.5396 195.24 98.2996 195.37 98.0796 195.64C94.6796 199.8 96.2896 203.25 101.31 202.96C110 202.97 120.88 204.24 128.55 201.52C126.99 199.33 126.87 196.84 126.93 194.23C125.44 190.31 115.54 189.9 112.37 190.96L112.43 190.98L112.42 190.99ZM170.57 137.08C184.51 139.35 185.22 135.79 195.22 130.85C223.27 116.63 181.5 119.86 170.54 137.01L170.57 137.09V137.08ZM69.8396 195.6C75.4796 194.28 81.3396 194.53 87.0896 195.63C87.5896 195.67 87.4196 195.36 87.1896 194.97C83.4496 189.2 85.0896 184.64 91.7496 181.88C92.8696 181.11 92.0596 180.13 91.0496 179.93C82.7396 178.63 72.9996 188.42 69.7796 195.58L69.8396 195.6ZM133.4 155C133.12 157.88 135.59 160.09 136.56 162.62C136.96 164.6 136.61 166.89 137.81 168.72C138.83 171.94 150.84 167.26 147.58 165.47C143.1 163.43 141.44 159.29 141.09 154.96C139.16 152.08 134.02 151 133.4 155.01V155ZM178.22 144.16C173.93 144.03 159.84 143.61 162.24 149.38C162.61 150.33 163.33 151.04 164.44 150.72C172.5 147.71 180.27 152.56 187.62 152.38C192.97 147.07 182.43 144.13 178.23 144.16H178.22ZM94.3796 146.13C88.4996 146.4 81.8296 146.34 76.7896 149.53C67.9996 155.55 77.0096 165.59 84.5696 166.55C86.7996 167.09 85.2796 162.68 83.3796 162.86C76.2096 160.7 76.0996 151.48 83.7196 151.12C89.3896 150.51 90.5196 149.21 94.4096 146.16L94.3696 146.13H94.3796ZM168.57 158.3C174.15 158.48 181.14 157.96 185.66 154.5C181.3 150.75 173.95 150.78 168.29 151.01C158.68 151.68 159.11 158.03 168.57 158.3ZM160.53 149.18C162.97 136.4 190.66 148.66 187.56 142.51C182.5 134.48 160.02 137.4 158.3 147.4C158.27 148.46 159.46 149.42 160.53 149.18ZM155.19 148.8C158.14 150.04 157.26 141.58 164.11 139.15C164.92 138.89 165.01 138.39 164.48 137.74C156.77 127.92 141.96 144.79 155.18 148.81L155.19 148.8ZM88.5196 204C91.8296 207.17 94.4996 211.16 94.2596 215.99C106.74 222.47 101.12 199.9 88.4996 203.93L88.5196 204ZM94.9696 201.27C96.2596 195.62 67.0896 192.61 69.0596 199.45C76.6896 199.92 86.6496 199.34 94.9096 201.31L94.9596 201.28L94.9696 201.27ZM98.7896 189.13C97.8896 189.27 96.3096 188.59 95.5196 189.22C94.5296 190.42 99.3396 192.83 96.8596 193.02C95.1296 192.34 94.6796 190.36 93.7496 189.05C91.7696 189.23 86.7796 188.42 86.5496 191.04C87.4096 194.02 92.2796 198.57 95.4796 197.46C96.7196 196.05 98.1596 194.31 99.4596 192.89C99.8496 191.77 100.83 189.06 98.7896 189.13ZM85.3296 126.52C74.8096 126.75 89.6196 139.61 92.0996 139.14C92.9496 135.85 90.0896 126.15 85.3296 126.52ZM131.54 195.58C131.1 197.87 133.24 199.74 133.73 201.87C134.06 206.15 146.3 204.88 150.26 206.6C151.06 206.55 151.01 205.81 151.09 205.08C151.22 203.72 149.78 203.48 148.72 203.26C142.43 202.21 136.52 199.42 131.59 195.52L131.54 195.58ZM188.21 172.86C182.65 170.56 176.74 168.7 170.66 168.63C176.38 181.76 170.86 175.23 188.25 172.89L188.21 172.86ZM153.3 166.58C153.68 166.76 157 166.59 155.69 165.54C151.89 163.12 148.68 160.1 145.47 156.99C136.96 153.14 147.5 167.25 153.31 166.58H153.3ZM87.7396 151.67C79.5196 150.95 74.9796 158.68 84.1796 162.08C85.6596 162.77 85.7496 153.74 87.8196 151.69L87.7396 151.67ZM91.8396 179.1C93.6796 179.37 92.9396 182.29 94.8896 182.15C96.5096 182.29 98.2796 182.06 99.4696 183.42C99.7796 183.87 100.56 183.83 100.86 183.42C101.72 180.7 100.29 175.08 96.6596 176.87C95.5796 178.62 93.9096 179.4 91.8396 179.07V179.09V179.1ZM116.5 192.24C115.48 192.53 112.54 191.22 112.08 192.68C112.25 193.55 112.27 195.23 113.16 195.67C118.89 196.04 127.82 193.35 116.5 192.24ZM71.5096 118.39C61.3196 117.76 75.4696 123.97 77.6196 123.07C83.0596 121.82 72.9696 118.44 71.5096 118.39ZM85.6296 136.54C78.5996 131.17 83.5796 126.06 74.3396 126.49C76.9796 130.83 81.0196 134.16 85.6196 136.56V136.54H85.6296ZM87.9196 170.57C86.7896 166.86 82.1996 167.27 79.3696 165.63C77.9696 165.62 77.8496 167.78 78.7996 168.51C81.1296 170.85 85.0296 169.53 87.8896 170.62L87.9196 170.57ZM86.3096 187.17C86.3096 187.8 85.6296 189.62 86.9596 188.92C89.6096 187.86 94.3796 189.48 95.4096 185.96C92.5896 185.4 88.5896 185.12 86.2996 187.12V187.17H86.3096ZM88.3696 184.96C91.2896 184.03 95.5296 186.15 97.9496 183.99C98.5396 183.06 96.8996 183.3 96.3896 183.15C93.6296 182.73 90.4596 182.89 88.3596 184.93V184.96H88.3696ZM104.36 196.2C104.15 193.69 103.35 192.85 100.66 193.87C98.2296 195.14 103.18 196.27 104.36 196.2ZM101.2 189.45C101.22 191.15 99.9196 193.7 102.89 192.46C104.31 192.13 102.04 189.87 101.2 189.45ZM84.3896 110C84.9696 108.04 81.9296 107.73 81.6296 109.48C80.8996 111.41 83.9696 111.7 84.3896 110Z" fill="#221E1C"/>
<path d="M124.55 181.189C121.4 189.219 111.9 188.249 110.77 191.769C110.5 192.879 112.39 195.989 110.77 196.159C109.35 196.109 107.31 197.039 105.91 196.279C104.7 191.519 102.43 187.639 96.88 188.209C93.06 188.209 98.78 184.129 100.08 184.579C103.67 184.539 101.21 179.739 101.72 177.849C127.38 181.869 139.79 154.699 112.53 145.469C110.36 144.799 113.21 145.369 113.83 145.399C155.06 150.839 161.85 115.829 128.74 125.659C132.66 120.109 138.08 114.199 137.3 106.869C136.1 97.3393 123.65 90.6993 115.33 95.7693C106.87 100.889 99.25 107.379 90.63 112.359C81.9 115.489 87.52 99.1393 85 95.1393C77.56 87.2393 69.98 110.929 70.1 106.689C69.74 100.599 74.58 96.1393 77.83 91.4893C77.62 86.2393 77.02 74.4993 83.78 73.7893C91.3 74.4193 98.73 76.7893 104.09 82.0693C108.26 82.1893 111.56 78.2293 114.9 76.2593C144.51 55.8193 202.83 77.5693 222.22 105.289C208.08 101.199 190.76 91.9693 176.9 100.859C191.12 107.689 218.07 113.699 220.2 134.849C220.28 135.429 220.24 136.079 219.49 135.939C211.64 134.089 203.62 132.449 195.51 132.699C193.43 132.819 197.09 131.189 198 130.709C218.76 121.879 194.77 110.539 167.72 137.809C165.43 138.349 163.7 135.069 160.59 134.009C155.98 132.559 147.84 137.529 149.2 143.069C151.83 149.109 143.67 147.999 144.27 154.199C142.86 157.549 138.89 149.919 135.87 151.389C130.28 152.639 132.67 157.979 134.96 161.609C136.19 163.629 135.42 165.959 136.49 168.019C140.78 175.939 147.12 165.559 152.44 167.239C154.34 167.939 155.99 167.459 157.47 166.309C164.87 163.839 174.19 177.449 165.84 181.479C164.72 182.359 163.62 182.959 162.37 182.289C155.45 178.639 147.89 175.809 140.03 174.729C137.72 175.089 136.22 177.799 133.78 178.529C129.93 181.199 138.27 191.709 140.45 195.029C141.49 196.339 142.36 197.529 141.82 197.539C134.17 194.319 129.18 187.309 124.55 181.199V181.189ZM152.32 84.9393C150.48 75.5393 136.87 78.8093 132.11 84.0993C130.1 87.4993 137.38 86.9493 138.84 88.3793C149.41 95.0693 152.7 98.0193 152.32 84.9393ZM113.14 180.749C112.29 180.819 110.08 179.799 109.76 181.219C109.71 182.709 108.42 186.279 109.44 187.199C112.41 187.509 120.5 180.719 113.14 180.749Z" fill="#3C73B9"/>
<path d="M171.35 237.659C145.69 233.109 121.89 222.189 95.6397 221.819C79.5597 220.269 60.5297 220.079 48.4897 208.119C43.1097 197.709 60.7997 200.659 64.3997 198.599C66.3697 193.029 69.3297 187.379 74.8697 184.239C78.7897 182.649 64.7197 181.529 61.4197 169.569C59.1597 159.289 70.5097 161.599 74.5897 166.309C75.2997 164.219 72.9197 163.099 71.9597 161.619C61.1297 148.379 83.5197 142.709 91.4997 142.619C82.2597 139.019 76.3897 135.979 70.8597 128.009C67.1797 125.489 61.4497 124.369 60.2697 119.459C59.4597 114.559 64.6597 115.569 66.0997 113.649C65.3997 104.809 68.3697 97.1494 73.6697 90.3194C74.1497 83.6794 73.9797 74.5594 80.4997 70.8594C88.7697 69.5294 98.1497 72.7194 104.2 78.5794C104.56 78.9494 105.09 78.7594 105.56 78.6094C139.39 47.1294 212.4 75.6394 232.38 112.749C218.21 108.939 199.13 97.4794 186.17 101.429C204.6 106.829 224.49 118.809 224.44 139.719C224.39 141.999 218.82 138.739 215.62 138.489C209.88 137.089 187.79 132.249 190.85 140.069C191.97 141.839 191.06 144.269 192.16 145.949C200.69 152.399 207.46 161.299 205.12 172.129C204.97 173.439 202.5 173.339 202.51 172.359C205.25 160.889 197.44 153.309 188.87 145.919C188.77 140.369 189.48 141.769 185.28 138.259C195.39 129.269 209.89 135.949 221.46 137.299C221.16 116.829 197.47 106.689 179.73 101.439C191.65 92.6294 211.82 103.839 225.46 107.869C203.74 73.3594 137.24 52.3494 104.99 81.1094C97.9597 76.6794 90.4397 70.9994 81.2597 73.4094C76.2897 76.2894 76.3697 84.9794 76.5297 90.3994C71.4197 97.9694 66.3297 106.059 69.4797 115.759C69.8297 117.549 62.6397 115.199 62.6497 119.239C64.1997 123.939 70.5097 123.769 73.2897 127.189C79.4697 137.549 92.1997 140.989 103.37 143.909C94.2497 146.579 73.6497 142.199 72.0097 155.209C71.7597 158.949 74.0897 162.249 77.0797 164.409C77.8197 165.329 76.5497 166.589 77.0197 167.779C76.9897 168.349 78.2297 169.359 77.4197 169.509C74.2997 170.029 74.5397 170.649 72.7297 167.639C63.9697 159.129 59.0897 168.809 69.3397 177.109C72.5897 180.469 76.0697 181.139 80.1297 181.919C73.8097 187.929 68.4297 191.609 66.6097 201.149C62.1897 202.479 47.1297 199.659 50.8297 207.269C67.2297 222.169 106.48 218.749 124.87 223.189C138.75 227.109 152.86 232.029 167.23 234.639C169.66 235.129 178.79 239.209 171.31 237.679L171.35 237.659Z" fill="#F1F0F0"/>
<path d="M107.44 128C99.1997 127.14 91.5097 123.55 83.6797 122.04C80.6597 118.76 72.3397 118.62 70.9497 115.63C68.0197 108.22 86.2297 79.4498 84.5897 104.8C84.7897 107.02 80.3297 106.79 79.8197 110.41C77.1897 118.6 84.2197 124.06 87.9997 116.38C88.5997 115.33 88.6597 114.16 89.8497 113.72C99.9297 108.98 107.99 100.21 117.83 95.5998C149.5 91.6098 136.21 136.5 107.44 128ZM127.17 117.28C127.81 101.72 112.81 111.85 118.46 122.69C121.48 128.05 127.39 121.34 127.17 117.28Z" fill="#FAE800"/>
<path d="M126.71 164.2C123.41 181.32 94.4898 181.17 87.4398 167.1C77.9698 138.77 128.57 138.64 126.71 164.2ZM116.86 162.71C117.74 148.75 101.67 153.88 105.68 166.53C108.13 172.79 117.18 168.32 116.86 162.71ZM100.69 159.57C100.77 157.33 102.66 150.91 98.0898 153.73C97.2798 155.11 93.7898 154.13 95.1498 156.54C96.0998 157.17 97.5198 156.72 97.0098 158.41C96.4198 160.76 97.7398 165.66 94.6198 165.49C93.8198 165.41 93.6898 166.31 93.7498 166.93C93.9098 167.48 94.5598 167.39 94.9198 167.44C97.1198 167.67 101.52 169.18 101.85 167.39C102.25 166.42 101.3 166.4 100.71 166.03C98.9598 164.43 101.12 161.42 100.69 159.56V159.57Z" fill="#FAE800"/>
<path d="M110.58 143.81C105.15 142.47 97.2598 143.13 93.4098 138.97C93.1798 137.32 93.4598 135.23 92.5798 133.61C91.5898 130.42 90.5398 126.74 86.8798 125.8C86.4398 125.67 85.8998 125.51 85.6998 125.11C84.4398 121.76 94.1998 125.77 96.0498 126.19C116.17 134.79 125.58 124.19 143.45 125.19C153.87 127.68 146.18 139.47 139.83 142C131.25 146.07 119.47 144.66 110.57 143.81H110.58ZM137.08 131.18C141.95 131.32 134.79 134.39 133.69 134.76C129.51 136.37 124.53 136 120.36 136.8C119.88 136.91 120.18 137.04 120.48 137.12C132.8 140.54 142.31 130.09 141.57 135.31C142.59 137.22 143.49 133.04 143.1 132.32C141.85 127.22 129.86 131.03 137.08 131.18Z" fill="#E91F25"/>
<path d="M97.0095 203.51C107.439 205.54 118.489 202.19 128.679 204.11C132.389 207.55 138.169 212.91 135.079 218.29C130.559 223.24 121.649 218.83 115.839 218.42C90.8295 217.42 110.059 215.55 96.9795 203.54L97.0095 203.51Z" fill="#E91F25"/>
<path d="M94.1803 202.569C75.2203 203.169 93.1403 202.959 93.1803 215.299C93.9603 219.039 66.3303 214.229 63.0803 213.299C59.7703 212.199 44.9903 205.739 54.6303 203.239C57.5603 202.339 63.9603 203.219 67.4803 202.209C74.2103 198.739 86.4803 200.829 94.2203 202.559L94.1903 202.579L94.1803 202.569ZM77.3703 204.939C76.3303 204.799 62.5803 203.659 66.5903 206.829C70.2603 209.379 89.7603 207.249 77.3703 204.939Z" fill="#E91F25"/>
<path d="M166.99 233.33C153.28 230.97 139.75 226.35 126.55 222.46C115.22 219.82 103.68 219.9 92.3301 218.01C101.98 214.48 147.75 231.95 135.01 209.52C131.87 204.94 148.71 210.55 150.25 210.42C151.03 210.49 151.73 210.96 151.87 211.82C153.77 220.48 160.24 227.61 167.03 233.31L166.99 233.33Z" fill="#92C63E"/>
<path d="M169.14 159.299C173.9 159.609 178.47 158.649 182.91 157.139C186.56 155.659 183.9 159.659 182.71 160.699C177.19 166.039 166.34 165.019 158.95 165.239C154.21 165.179 151.85 160.699 148.12 158.409C143.62 155.429 145.33 149.069 150.42 147.689C153.52 150.359 158.23 149.279 161.58 150.849C162.14 151.229 161.47 151.829 161.29 152.079C156.95 157.339 164.87 158.969 169.14 159.319V159.299Z" fill="#E91F25"/>
<path d="M150.68 202.79C138.48 202.48 130.17 191.28 130.64 195.89C130.55 198.02 132.12 199.76 132.65 201.77C132.36 208.05 149.89 203.94 151.36 209.06C151.48 209.56 151.18 209.72 150.65 209.61C145.12 208.31 139.48 207.2 133.81 206.75C132.78 206.74 129.02 203.8 129.69 202.76C130.24 202.14 129.97 201.46 129.55 200.74C125.06 189.41 131.12 192.4 116.79 189.34C119.15 187.78 122.03 186.51 123.87 184.12C124.27 183.62 124.7 183.49 125.11 184.08C130.09 190.05 136.91 198.73 145.15 199.34C141.55 193.96 133.6 185.79 134.15 179.57C136.42 178.23 138.68 175.39 141.42 175.64C148.76 177.35 156.71 179.31 162.68 183.65C162.3 184.53 161.37 184.92 160.52 184.46C154.9 181.36 148.58 179.08 142.08 177.74C128.2 180.23 147.57 196.59 150.74 202.76L150.68 202.79ZM126.59 189.55C126.65 189.8 126.83 189.61 126.56 189.56C126.14 188.51 125.24 187.73 124.65 186.75C120.88 189.12 124.32 188.61 126.59 189.54V189.55Z" fill="#F1F0F0"/>
<path d="M151.37 201.79C135.4 186.08 130.6 169.73 159.7 185.06C160.13 185.31 160.38 185.69 160.01 186.15C155.71 190.52 152.8 195.93 151.42 201.79H151.36H151.37Z" fill="#FDFDFD"/>
<path d="M73.7095 171.62C78.1695 167.47 103.9 175.95 92.5895 178.16C86.6995 176.79 82.0896 183.3 76.2196 180.03C72.0796 178.96 61.0396 169.16 66.1796 165.79C70.1996 164.92 72.4996 168.39 73.6096 171.6L73.6995 171.62H73.7095Z" fill="#FAE800"/>
<path d="M175.85 165.139C180.09 163.449 186.3 161.959 185.98 156.569C186.82 154.049 189.74 152.549 190.29 149.779C190.64 149.189 191.31 149.919 191.68 150.169C198.35 155.359 202.96 162.819 201.13 171.679C200.04 174.179 195.9 171.859 194.16 171.139C188.58 167.979 182.09 166.629 175.83 165.169L175.85 165.129V165.139Z" fill="#FAE800"/>
<path d="M112.42 190.959C115.7 189.929 125.34 190.309 126.92 194.239C126.88 196.889 126.93 199.209 128.54 201.519C120.15 204.269 108.46 203.129 99.0799 202.739C95.1599 202.139 95.8099 198.489 98.0799 195.629C98.2999 195.369 98.5299 195.219 98.8299 195.389C102.74 198.099 111.23 197.489 116.25 196.609C130.83 193.709 120.18 191.059 112.41 190.949L112.42 190.959Z" fill="#F5F5F4"/>
<path d="M170.56 136.95C182.8 119.45 221.29 117.01 196.8 130.17C186.09 134.76 185.1 139.73 170.57 137.05V136.96L170.56 136.95Z" fill="#E91F25"/>
<path d="M69.7598 195.529C73.1798 188.349 82.7098 178.629 91.0498 179.929C92.8598 180.419 92.5198 181.73 90.9398 182.35C84.0098 185.22 84.2098 190.129 87.4098 195.539C81.6198 194.769 75.5198 194.17 69.7798 195.57L69.7598 195.519V195.529Z" fill="#E91F25"/>
<path d="M133.44 154.73C134.32 150.91 139.41 152.22 141.18 155.12C141.29 159.45 143.28 163.44 147.57 165.47C150.8 167.34 138.75 171.9 137.79 168.72C136.61 166.91 136.95 164.62 136.55 162.62C135.56 160.03 132.92 157.68 133.44 154.74V154.73Z" fill="#FAE800"/>
<path d="M178.43 144.16C182.61 144.2 192.92 147.11 187.62 152.38C180.27 152.55 172.5 147.71 164.44 150.72C163.34 151.04 162.61 150.33 162.24 149.38C159.7 143.59 174.37 144.02 178.43 144.16Z" fill="#E91F25"/>
<path d="M94.38 146.21C90.56 149.23 89.3101 150.53 83.7301 151.12C76.0901 151.48 76.1801 160.7 83.3901 162.87C84.7201 163.13 85.49 163.78 85.56 165.26C86.03 166.85 84.8801 166.74 83.8301 166.36C76.4501 165.14 68.25 155.26 76.77 149.53C81.8 146.38 88.5001 146.34 94.3701 146.16V146.21H94.38Z" fill="#E91F25"/>
<path d="M168.38 158.29C159.83 158.07 157.96 151.95 168.29 151.01C173.94 150.77 181.3 150.75 185.66 154.5C181 158.04 174.07 158.49 168.39 158.29H168.38Z" fill="#E91F25"/>
<path d="M160.41 149.24C158.76 149.58 157.83 147.76 158.55 146.36C160.84 137.35 183.71 134.99 187.54 142.45C188.37 144.34 186.55 145.06 185.07 144.43C177.83 143.44 163.21 139.84 160.52 149.17L160.41 149.24Z" fill="#E91F25"/>
<path d="M154.92 148.71C142.08 144.4 156.98 128.05 164.49 137.73C165.01 138.38 164.93 138.88 164.12 139.14C156.92 141.79 158.36 150.34 154.92 148.7V148.71Z" fill="#E91F25"/>
<path d="M88.5398 203.91C95.5798 201.76 102.92 208.52 100.79 215.89C100.16 217.97 96.1398 216.68 94.4298 216.54C94.2598 211.52 92.3198 207.57 88.5098 203.98L88.5398 203.9V203.91Z" fill="#F5F5F4"/>
<path d="M94.8398 201.31C86.5898 199.29 76.6698 199.94 69.0698 199.45C66.8798 192.63 96.5298 195.63 94.9198 201.3H94.8398V201.31Z" fill="#F5F5F4"/>
<path d="M99.0296 189.139C102.46 190.619 96.7196 195.91 95.4696 197.46C92.2496 198.57 87.4096 194.039 86.5396 191.049C86.4796 188.519 91.6696 189.329 93.3996 188.979C94.3796 189.019 94.2996 190.669 94.9396 191.299C95.1996 191.979 97.8396 194.209 97.4396 192.299C94.2396 189.239 95.0096 188.639 99.0196 189.139H99.0296Z" fill="#FAE800"/>
<path d="M172.7 177.34C169.39 179.58 170.76 175.48 167.84 170.54C167.15 168.94 165.34 167.85 164.75 166.52C174.14 164.83 186.69 167.5 193.79 172.4C185.76 172.99 178.25 166.74 170.04 168.01C168.12 167.85 173.65 174.69 172.78 177.23L172.7 177.33V177.34Z" fill="#F1F0F0"/>
<path d="M85.57 126.51C90.51 126.76 92.81 135.91 92.11 139.15C87.95 138.71 75.27 126.17 85.57 126.51Z" fill="#FAE800"/>
<path d="M131.66 195.529C136.62 199.579 142.59 202.229 148.92 203.299C149.92 203.509 151.22 203.789 151.09 205.079C151.28 207.079 149.51 206.669 148.19 206.169C143.09 204.549 133.15 206.249 133.08 200.229C132.32 198.769 131.14 197.249 131.58 195.529H131.65H131.66Z" fill="#F5F5F4"/>
<path d="M188.189 172.92C170.509 175.31 176.469 181.76 170.649 168.64C176.639 168.7 182.719 170.56 188.239 172.9L188.189 172.92Z" fill="#F5F5F4"/>
<path d="M153.14 166.549C149.11 165.369 140.52 161.449 143.1 156.309C143.7 155.689 144.73 156.149 145.23 156.679C148.22 159.769 151.94 163.159 155.71 165.539C156.92 166.639 153.88 166.769 153.15 166.549H153.14Z" fill="#FAE800"/>
<path d="M87.8195 151.739C85.7295 153.689 85.6995 162.709 84.1795 162.069C75.4695 159.019 78.7895 150.999 87.8195 151.689V151.739ZM83.8095 154.409C81.2195 155.049 80.5495 157.749 82.8095 159.309C83.0295 157.649 83.3695 156.029 83.8095 154.409Z" fill="#F1F0F0"/>
<path d="M91.8301 179.069C95.5101 179.719 95.2301 177.329 97.6801 176.539C100.85 176.319 101.52 181.259 100.85 183.419C100.56 183.819 99.7801 183.859 99.4601 183.419C98.2001 181.969 96.2101 182.339 94.4101 182.109C92.9901 181.759 93.5201 179.329 91.8301 179.099V179.079V179.069ZM95.9101 180.439C97.6301 180.889 99.8401 180.729 97.9901 178.699C97.3801 179.389 96.7401 179.959 95.9101 180.439Z" fill="#F1F0F0"/>
<path d="M116.61 192.24C126.82 193.34 119.83 195.73 113.73 195.78C112.31 195.83 112.33 193.92 112.09 192.85C112.2 191.11 115.63 192.57 116.61 192.24Z" fill="#F1F0F0"/>
<path d="M71.5999 118.399C73.0399 118.489 83.0499 121.819 77.6199 123.079C75.3499 123.969 61.3099 117.719 71.5999 118.399Z" fill="#F5F5F4"/>
<path d="M85.6101 136.559C81.1201 134.239 76.9601 130.849 74.3301 126.489C83.6201 126.069 78.5301 131.099 85.6201 136.529V136.549L85.6101 136.559Z" fill="#E91F25"/>
<path d="M87.8699 170.61C84.8399 169.44 80.0799 171.09 78.2599 167.7C77.9699 166.94 78.4099 165.53 79.3799 165.64C82.2999 167.36 86.6799 166.73 87.9299 170.63L87.8799 170.61H87.8699Z" fill="#F1F0F0"/>
<path d="M86.3402 187.079C88.7402 185.089 92.5602 185.409 95.4002 185.949C94.3502 189.579 89.1102 187.769 86.6002 189.039C85.6202 189.249 86.4302 187.449 86.3002 187.119L86.3402 187.079Z" fill="#FAE800"/>
<path d="M88.3594 184.939C94.9594 179.989 106.449 185.629 88.3594 184.969V184.939Z" fill="#FAE800"/>
<path d="M104.36 196.2C103.19 196.27 98.2397 195.13 100.66 193.87C103.34 192.85 104.15 193.69 104.36 196.2Z" fill="#F1F0F0"/>
<path d="M101.2 189.449C102.04 189.869 104.31 192.129 102.89 192.459C99.92 193.699 101.21 191.149 101.2 189.439V189.449Z" fill="#FAE800"/>
<path d="M84.3903 110C83.9703 111.7 80.9003 111.41 81.6303 109.48C81.9303 107.72 84.9803 108.04 84.3903 110Z" fill="#F1F0F0"/>
<path d="M172.93 177.29C172.93 177.21 172.97 177.15 173.01 177.09C173.65 177.11 173.65 177.48 174 177.87C173.79 177.99 173.59 178.12 173.38 178.24C173.09 177.96 172.97 177.66 172.94 177.29H172.93Z" fill="#0F0F03"/>
<path d="M171.43 237.67C172.12 237.67 172.78 237.76 173.45 237.94C172.75 238.01 172.11 237.82 171.43 237.67Z" fill="#2A2929"/>
<path d="M152.35 85.24C152.35 99.26 148.77 94.13 139.39 88.7C137.77 86.87 130.17 87.71 132.1 84.1C136.89 78.72 150.85 75.51 152.35 85.24ZM151.11 84.73C149.11 76.39 137.33 80.73 133.15 84.74C132.63 85.43 133.55 85.63 134.34 85.93C144.92 87.49 151.86 102 151.11 84.72V84.73Z" fill="#221E1C"/>
<path d="M113.24 180.759C120.41 180.809 112.39 187.409 109.56 187.239C108.48 186.949 109.4 182.009 110.12 180.659C110.95 180.159 112.39 180.829 113.24 180.759ZM112.95 181.519C110.59 180.689 110.41 182.409 110.35 184.029C110.45 184.639 109.89 185.919 110.65 185.939C112.78 186.139 117.72 181.469 112.95 181.519Z" fill="#221E1C"/>
<path d="M127.159 117.41C127.269 121.46 121.439 127.99 118.449 122.68C112.649 111.79 128.029 101.92 127.159 117.41ZM123.609 113.16C123.899 110.93 120.099 110.79 119.949 112.88C119.639 115.03 123.489 115.26 123.609 113.16Z" fill="#0F0F03"/>
<path d="M116.859 162.8C113.779 176.06 100.059 168.05 106.919 156.64C110.729 150.7 118.869 157.12 116.859 162.8ZM112.909 162.35C113.259 160.47 113.929 155.26 110.559 156.79C109.059 159.54 108.779 163.14 108.909 166.26C110.729 170.36 113.129 164.4 112.909 162.35Z" fill="#0F0F03"/>
<path d="M100.71 159.78C101.03 161.76 98.6398 165.26 101.24 166.29C101.53 166.4 101.98 166.56 101.93 166.92C101.96 169.75 95.6898 167.2 94.2798 167.38C92.8498 166.64 94.1998 165.14 95.5398 165.44C96.1698 165.32 96.3798 165.05 96.4298 164.3C96.1998 162.07 98.7098 156.88 95.4598 156.73C94.5698 156.53 94.7598 154.78 95.5898 154.68C96.1998 154.63 97.0198 154.71 97.5498 154.24C98.2998 153.42 99.1498 152.74 100.31 153.24C102.36 153.55 100.33 158.3 100.71 159.78Z" fill="#0F0F03"/>
<path d="M136.84 131.18C130.38 130.84 140.84 127.94 142.57 131.3C143.56 132.44 143.31 134.77 142.27 135.75C140.85 136.11 142.21 132.83 140.35 133.61C134.91 136.99 126.6 138.68 120.49 137.12C120.18 137.04 119.89 136.91 120.37 136.8C123.6 136.18 127.32 136.27 130.77 135.58C132.32 135.58 143.04 131.25 136.84 131.17V131.18Z" fill="#0F0F03"/>
<path d="M77.5096 204.97C89.8996 207.76 68.0196 208.88 66.9096 207.02C61.9696 203.66 76.3996 204.76 77.5096 204.97Z" fill="#F5F5F4"/>
<path d="M126.59 189.55C124.31 188.61 120.89 189.13 124.65 186.76C125.24 187.73 126.14 188.52 126.56 189.57C126.56 189.57 126.58 189.56 126.59 189.55Z" fill="#2A2929"/>
<path d="M126.57 189.579C126.61 189.639 126.83 189.629 126.66 189.699C126.66 189.669 126.61 189.499 126.57 189.589V189.579Z" fill="#2A2929"/>
<path d="M83.8102 154.41C83.3702 156.03 83.0202 157.65 82.8102 159.31C80.5602 157.75 81.2202 155.05 83.8102 154.41Z" fill="#2A2929"/>
<path d="M95.9102 180.439C96.7402 179.959 97.3802 179.399 97.9902 178.699C99.8402 180.729 97.6302 180.879 95.9102 180.439Z" fill="#221E1C"/>
<path d="M151.14 84.9099C151.66 101.98 145.18 87.5699 134.35 85.9399C133.43 85.6199 132.56 85.3399 133.25 84.6399C137.57 80.5999 149.36 76.4399 151.13 84.9099H151.14Z" fill="#FAE800"/>
<path d="M113.05 181.54C118.14 181.5 111.7 187.13 110.26 185.69C110.45 183.75 109.97 180.35 113.05 181.54Z" fill="#FAE800"/>
<path d="M123.609 113.159C123.479 115.259 119.639 115.039 119.949 112.879C120.099 110.789 123.899 110.929 123.609 113.159Z" fill="#F1F0F0"/>
<path d="M112.91 162.449C113.03 164.289 111.09 169.899 109.08 166.709C108.4 163.679 109.3 160.369 110.15 157.409C110.62 156.079 112.35 156.319 112.89 157.359C113.68 158.789 112.95 160.929 112.91 162.449Z" fill="#FAE800"/>
<path d="M30.67 145.26C31.5 143.5 31.03 140.07 32.47 138.85C36.56 137.42 41.64 137.33 45.96 136.37C49.01 135.65 48.04 139.8 48.4 141.62C48.92 145.37 41.99 141.8 46.14 149.42C49.08 152.82 50.45 146.68 52.34 153.72C52.7 154.94 53.68 156.45 51.84 156.96C40.77 161.32 30.1 163.4 19.13 168.38C18.16 168.87 17.26 169.16 16.84 167.87C16.34 166.53 14.93 164.73 14.7 163.29C14.26 161.59 17.11 161.42 17.07 159.97C17.34 158.74 16.24 157.31 16 156.02C15.72 154.84 15.72 153.26 15.08 152.22C13.23 151.07 11.5 154.28 10.8 149.94C10.67 148.6 8.68998 146.54 10.22 145.41C15.22 143.28 20.41 141.59 25.65 140.16C28.99 139.17 28.7 143.97 30.6 145.3L30.66 145.26H30.67ZM30.77 147.03C28.99 145.47 28.8 141.74 26.64 140.93C21.46 141.41 16.48 144.12 11.49 145.67C9.88998 146.08 10.77 147.51 11.21 148.64C12.09 152.65 12.59 151.16 15.36 150.9C16.6 153.65 17.34 157.19 18.1 160.16C18.36 161.84 15.54 161.55 15.53 163.02C16.37 164.35 16.72 168.41 18.99 167.6C24.81 163.32 52.4 159.45 51.87 154.13C50 148.52 49.1 152.74 46.08 150.83C44.43 148.58 42.33 142.6 46.93 142.8C47.49 142.69 47.74 142.21 47.69 141.68C47.33 140.38 48.23 137.04 46.13 137.07C42.05 137.72 37.88 138.36 33.8 139.05C30.91 140.15 32.04 144.73 30.86 147.03H30.79H30.77Z" fill="#323231"/>
<path d="M21.3297 116.78C19.1497 115.55 12.3497 114.03 12.5697 112.07C13.3497 110.17 13.0397 105.34 16.3397 106.6C16.9197 106.78 17.4697 106.69 17.8697 106.18C19.0497 104.87 19.1997 101.96 19.9397 100.22C20.4197 99.24 19.8397 98.72 18.8397 98.64C18.0197 98.53 17.2697 98.3 17.1697 97.63C17.1097 96.89 18.2097 90.31 19.7997 91.38C25.7297 95.33 51.7797 96.36 43.7997 107.51C45.9397 122.9 31.1797 117.95 21.3297 116.76V116.78ZM22.6797 116C32.1797 117.56 46.3397 121.32 42.3897 107.93C45.3097 105.49 45.7197 102.37 42.7297 100.09C36.1197 95.89 27.5897 95.73 20.5197 92.4C18.2797 91.5 18.6797 95.46 18.0997 96.6C17.6697 97.74 19.0597 97.85 19.8397 98.05C22.4797 97.7 19.0297 106.15 18.2397 107.15C17.8997 107.7 17.1697 107.55 16.7997 107.41C14.1197 106.41 14.1597 109.29 13.5897 111.28C12.7097 113.63 20.7697 115.16 22.6797 115.99V116Z" fill="#323231"/>
<path d="M29.2798 140.09C25.1898 140.41 13.8798 146.04 12.7198 144.33C12.3098 142.31 10.7498 139.77 11.1698 137.67C17.0998 135.25 16.3598 121.7 20.0898 117.25C22.1898 115.27 25.7298 117.04 28.3298 117.43C33.8898 117.7 34.7998 126.62 38.4698 130.21C39.6698 131.83 42.8098 130 43.1498 131.4C46.3598 140.91 35.5898 137.8 29.2698 140.09H29.2798ZM29.2598 139.38C32.3198 137.76 44.2298 139.05 42.7598 134.72C42.5098 133.54 42.8998 131.86 41.3798 131.72C35.2898 131.95 34.3698 121.72 30.4498 118.72C27.4898 118.05 22.1698 115.75 19.9298 118.77C16.7398 123.73 17.2298 135.56 12.9298 137.39C11.3698 137.86 11.9298 139.46 12.4298 140.76C12.1998 147.65 23.8698 139.4 29.2498 139.38H29.2598Z" fill="#323231"/>
<path d="M42.9201 182.819C38.9001 184.089 30.8201 192.389 28.4601 190.879C25.7301 186.379 24.3101 186.329 27.7801 181.859C30.0101 176.289 26.6701 168.589 29.8301 163.649C31.5601 161.799 35.7601 161.879 38.2201 160.739C41.2901 160.839 43.6201 163.769 45.8401 165.719C53.5001 173.969 50.8601 168.619 55.7301 170.879C56.2301 172.519 57.9701 174.419 57.5401 176.229C53.3501 179.389 47.6101 180.299 42.9101 182.819H42.9201ZM42.9001 181.979C47.3501 179.639 52.6601 178.789 56.6901 175.909C57.1301 174.679 55.8501 173.439 55.5601 172.359C55.2101 170.939 53.9201 170.839 52.7101 171.289C49.7301 171.819 48.0001 168.269 45.8401 166.559C40.5501 160.509 37.0201 160.519 30.4401 164.139C26.7401 169.559 32.0301 179.399 26.9901 184.609C26.1501 185.359 26.4901 186.329 27.1001 187.239C29.5301 194.929 37.6701 183.199 42.9101 181.969L42.9001 181.979Z" fill="#323231"/>
<path d="M32.8197 96.2896C-0.360263 85.4696 39.7697 58.3896 51.4497 84.0896C54.5097 96.6196 42.7997 99.5996 32.8197 96.2896ZM33.2997 95.8296C40.6497 98.2996 48.0297 97.2296 50.7097 90.5296C55.3297 74.3996 26.2397 68.2396 21.5897 80.6896C18.3297 88.3196 26.3197 94.3496 33.3097 95.8296H33.2997Z" fill="#323231"/>
<path d="M30.8598 146.959C31.9998 144.599 30.9798 140.029 33.7798 139.059C38.0898 138.759 43.0498 136.669 47.1198 137.459C47.7098 138.269 47.4498 140.139 47.6298 141.309C48.4798 144.569 40.3698 140.319 46.0598 150.829C48.0998 152.569 50.4698 149.119 51.4198 153.229C56.0098 158.839 23.6798 163.579 18.9798 167.589C16.7298 168.439 16.4398 164.529 15.5098 163.019C15.5098 161.699 17.7298 161.829 18.0198 160.699C17.9798 157.599 16.2298 154.469 15.7298 151.369C14.2998 149.469 12.1698 153.959 11.3098 149.019C11.0398 147.889 9.67984 146.129 11.4798 145.669C16.4698 144.119 21.4498 141.419 26.6198 140.929C28.7998 141.699 28.9298 145.539 30.7698 146.979L30.8498 146.959H30.8598ZM31.7998 151.459C29.7298 149.609 27.8698 142.609 24.7098 142.879C22.5598 143.979 10.5898 145.799 13.5598 148.949C14.3498 149.349 15.8498 148.369 16.5398 148.969C17.6198 152.719 19.9598 157.499 19.8198 161.219C19.6398 162.979 16.8898 162.969 18.3098 165.209C20.7998 165.969 23.6098 162.469 26.3298 162.039C28.1798 161.389 27.2098 158.339 25.2198 159.309C22.7998 159.169 22.0798 150.749 21.0198 147.969C20.8498 147.499 21.1298 147.869 21.3398 148.109C24.4498 151.889 26.9198 155.169 29.0798 159.639C29.8298 161.579 32.3398 160.759 33.7498 160.089C36.2898 156.479 33.2998 147.859 35.9798 144.799C35.8098 148.539 37.1598 151.929 38.0698 155.459C37.9598 156.229 36.6398 156.259 36.4798 156.949C36.3698 157.419 36.6698 158.129 36.9498 158.389C39.6298 159.649 45.7398 156.179 49.1298 155.319C50.5798 155.109 50.0998 153.349 49.1398 152.859C44.0598 154.679 42.2498 148.889 42.4898 144.389C42.3498 142.129 43.1598 142.009 45.0598 141.389C46.2298 140.819 46.0398 139.049 44.6198 139.079C32.8598 140.319 32.9098 139.679 31.8298 151.459L31.7698 151.479L31.7998 151.459Z" fill="#F1F0F0"/>
<path d="M22.5003 115.959C20.4103 115.009 13.1803 113.729 13.5403 111.459C14.1403 109.479 14.0103 106.249 17.0003 107.469C20.0303 107.409 19.6603 101.929 20.8803 99.6093C21.8803 97.3893 17.7403 98.5993 18.0403 96.7693C18.6203 95.5993 18.3003 91.4493 20.5103 92.3893C27.5803 95.7093 36.1103 95.8793 42.7303 100.079C45.7003 102.359 45.3203 105.469 42.3903 107.919C46.3603 121.389 31.9903 117.509 22.5003 115.959ZM37.3503 107.259C44.8303 107.519 44.6303 100.839 37.4003 98.9793C32.7603 98.6293 22.7003 93.2293 20.3503 95.1293C20.0903 95.7093 20.3303 96.4993 21.0303 96.7293C25.2003 97.7393 21.1803 103.449 20.4403 106.629C20.2603 107.449 20.0903 108.469 19.4103 109.079C18.0603 110.039 15.3503 108.189 15.6903 110.859C17.1603 113.269 36.0803 117.799 39.5603 115.469C43.0803 113.519 40.9103 108.789 37.3303 107.289V107.269L37.3503 107.259Z" fill="#F5F5F4"/>
<path d="M29.0901 139.389C24.9701 139.659 13.6301 145.439 13.0901 142.909C12.9601 142.019 12.5201 141.059 12.2001 140.109C11.7801 138.959 11.6501 137.729 12.9201 137.379C17.3401 135.539 16.7101 122.929 20.2501 118.319C22.7401 115.999 27.5801 118.039 30.4501 118.699C34.3701 121.699 35.2901 131.949 41.3801 131.709C42.9701 131.879 42.4901 133.689 42.7901 134.929C43.9501 138.969 32.0801 137.829 29.0901 139.389ZM35.0901 136.719C37.1301 136.099 41.2501 136.879 41.1301 134.289C41.1301 133.549 40.6301 133.259 39.9901 133.279C33.2501 132.799 33.2501 118.379 25.0501 119.719C23.6601 119.509 21.9601 119.239 21.0201 120.369C17.7701 124.889 19.0301 133.679 15.4501 138.229C13.8101 138.669 13.6201 142.029 15.7001 141.529C17.1901 140.459 28.2301 139.519 24.8901 136.919C24.0001 136.279 22.5101 136.919 21.5901 136.539C19.3001 133.429 28.1401 132.169 29.6801 133.699C30.0901 134.109 30.5401 134.669 29.8601 135.019C28.0301 135.409 27.0201 136.449 29.0101 137.589C30.9501 138.159 33.2001 136.749 35.0901 136.739V136.719Z" fill="#F5F5F4"/>
<path d="M42.7696 182.01C37.6196 183.32 29.4896 194.69 27.2196 187.39C26.5196 186.39 26.0796 185.27 27.1096 184.45C31.5296 180.12 27.3196 170.23 30.0996 164.35C30.7496 163.22 32.3996 163.51 33.4796 162.91C35.6296 162.17 38.2596 160.66 40.3496 161.87C44.8196 164.43 48.7796 172.57 54.0196 171C55.7296 171.13 56.2796 174.07 56.7996 175.42C53.5896 179.08 47.0996 179.42 42.7696 182.01ZM48.6496 177.75C50.5996 176.71 54.9496 176.5 54.4196 174.11C54.2596 173.34 53.8296 172.87 53.1296 173.08C45.2296 174.06 41.4796 156.35 31.3596 165.96C29.9196 170.19 31.3596 175.99 30.9096 180.51C30.7096 182.41 30.3196 184.12 29.0996 185.47C28.4896 191.56 36.0096 183.76 38.5996 182.3C39.9796 181.87 39.1696 179.72 38.0996 179.41C36.6096 179.94 34.9696 181.27 34.9296 178.54C34.8496 176.04 41.8696 172.3 43.1996 175.29C44.5696 176.61 42.3296 176.96 41.6696 177.58C40.5696 182.27 46.2596 178.44 48.6396 177.76L48.6496 177.75Z" fill="#F5F5F4"/>
<path d="M33.0994 95.7695C26.1594 94.2495 18.3694 88.2795 21.5894 80.6895C26.2494 68.2395 55.3394 74.4195 50.7094 90.5395C48.0094 97.3195 40.4494 98.2995 33.0994 95.7695ZM38.5794 76.4295C27.2494 71.5495 14.8794 86.4395 29.0294 92.5695C49.0694 102.899 58.6594 82.7095 38.5794 76.4295Z" fill="#F1F0F0"/>
<path d="M31.9001 151.489C32.6601 139.929 33.3301 140.119 44.6501 139.069C46.0901 139.069 46.2501 140.829 45.1001 141.379C43.1801 142.009 42.4001 142.129 42.5301 144.379C42.2801 148.879 44.1101 154.679 49.1801 152.859C50.1301 153.299 50.5901 155.169 49.1601 155.319C45.9401 156.249 39.9401 159.239 37.3301 158.589C36.7601 158.409 36.4201 157.569 36.5101 156.949C36.6701 156.259 37.9901 156.229 38.1001 155.459C37.2501 151.989 35.8601 148.869 36.0301 145.159C36.0201 144.819 35.9701 144.159 35.6901 144.849C33.1001 149.509 37.6101 158.719 32.2001 160.629C30.9701 161.019 29.6301 160.999 29.1001 159.639C26.9701 155.429 23.8801 150.589 21.0401 147.969C22.1001 150.749 22.8001 159.159 25.2301 159.299C27.0401 158.469 27.9801 160.709 26.7101 161.769C24.8101 162.139 17.4101 168.259 18.0101 163.619C18.4301 162.689 19.8201 162.359 19.8301 161.219C19.9701 157.479 17.6401 152.719 16.5501 148.959C15.8501 148.359 14.3501 149.349 13.5701 148.949C10.5601 145.799 22.6001 143.979 24.7101 142.879C27.8301 142.529 29.8001 149.769 31.8501 151.519L31.9001 151.489Z" fill="#EE2226"/>
<path d="M37.3902 107.33C42.3202 109.51 43.0102 115.57 37.3202 116.19C34.2702 117.07 5.61025 110.899 19.4202 109.089C20.1002 108.479 20.2702 107.46 20.4502 106.64C21.1902 103.47 25.2202 97.7695 21.0402 96.7495C17.1002 91.1895 33.6302 98.8095 36.9702 98.9095C43.6502 100.09 45.8802 107.32 37.3502 107.3L37.3902 107.339V107.33ZM27.6502 108.72C22.8902 116.09 40.8602 112.249 32.1702 107.089C29.7602 105.559 28.2102 105.69 27.6502 108.72ZM29.9402 101.47C28.1502 104.59 32.9402 104.88 34.9802 104.23C38.8902 102.71 30.2002 96.8295 29.9402 101.47Z" fill="#3C73B9"/>
<path d="M34.8495 136.76C32.6495 136.81 29.3095 138.93 28.0895 136.74C27.3195 135.45 29.0395 135.42 29.8595 135C30.5395 134.66 30.0895 134.09 29.6795 133.68C28.0895 132.29 22.3895 133.27 21.3595 134.92C20.4595 137.66 23.4195 136.11 24.7295 136.82C28.4895 139.43 17.4095 140.41 15.8595 141.46C14.4395 142.36 13.5895 139.68 14.4895 138.92C15.9195 138.07 16.5195 136.84 17.1095 134.95C18.4295 130.7 18.5895 124.02 20.8995 120.48C22.1195 118.79 24.6895 119.73 26.5495 119.91C33.5595 119.91 33.1695 131.87 39.5595 133.3C40.3595 133.23 41.1295 133.3 41.1395 134.27C41.2495 136.92 36.8995 136.09 34.8395 136.75L34.8495 136.76ZM26.5595 131.13C24.9095 130.1 23.6395 128.46 22.9595 126.67C22.4995 128.14 22.0195 130.01 21.8595 131.55C23.3195 131.61 25.0895 131.42 26.5495 131.18V131.13H26.5595Z" fill="#FAE800" stroke="#231F20" stroke-width="0.69" stroke-miterlimit="10"/>
<path d="M48.4201 177.819C45.9901 178.519 41.0801 182.059 41.5001 177.739C43.6901 176.359 44.6101 176.119 41.9601 174.119C40.0601 173.849 33.8701 176.439 35.0301 179.269C35.1301 180.119 35.5601 180.469 36.4901 180.089C38.1901 178.839 39.4501 179.749 39.2801 181.689C37.1001 182.789 29.5701 191.339 28.8701 185.899C34.8301 179.389 24.9201 164.329 36.9901 163.279C42.5101 161.779 47.6301 174.749 53.1201 173.079C53.7401 172.909 54.1701 173.219 54.3701 173.919C55.1901 176.529 50.4201 176.749 48.4201 177.829V177.819ZM35.0301 168.149C34.8501 173.629 33.9001 174.429 39.5401 171.599C38.1801 170.369 36.4901 169.269 35.0301 168.099V168.149Z" fill="#92C63E" stroke="#231F20" stroke-width="0.69" stroke-miterlimit="10"/>
<path d="M38.8194 76.5197C58.4794 82.7497 48.9894 102.77 29.2994 92.6997C14.7294 86.6297 27.2394 71.3197 38.8194 76.5197ZM41.3094 87.4197C44.3794 75.9097 29.7094 76.5997 30.4994 88.0797C31.0594 94.2797 41.1494 93.5097 41.3094 87.4197Z" fill="#EE2226"/>
<path d="M27.6897 108.62C27.9397 104.45 33.2197 106.44 34.2997 109.14C35.1197 113.56 29.4497 113.17 26.7697 111.76C26.1997 110.97 27.6297 109.39 27.6897 108.62ZM30.8197 108.41C29.9197 108.01 29.5797 108.5 29.2797 109.39C27.3897 112.17 36.8197 111.03 30.8197 108.41Z" fill="#F5F5F4"/>
<path d="M29.9603 101.34C30.3603 98.5298 33.3003 100.12 34.8603 101C39.7303 105.66 27.0603 105.79 29.9603 101.34ZM32.4003 102.84C34.6903 103.75 34.6303 101.76 32.5203 101.51C31.4203 100.99 31.2003 102.88 32.4003 102.84Z" fill="#F5F5F4"/>
<path d="M26.5196 131.18C25.0796 131.42 23.3296 131.61 21.8896 131.55C22.0496 130.01 22.5096 128.14 22.9796 126.67C23.6896 128.51 24.8296 130.02 26.5896 131.17H26.5296L26.5196 131.18Z" fill="white" stroke="#231F20" stroke-width="0.23" stroke-miterlimit="10"/>
<path d="M35.0496 168.1C36.5496 169.28 38.0697 170.43 39.5597 171.62C38.1797 172.09 36.1096 173.15 34.8896 173.89" fill="#FDFDFD"/>
<path d="M35.0496 168.1C36.5496 169.28 38.0697 170.43 39.5597 171.62C38.1797 172.09 36.1096 173.15 34.8896 173.89" stroke="#231F20" stroke-width="0.46" stroke-miterlimit="10"/>
<path d="M41.2895 87.5894C38.3395 97.7794 25.7195 90.5294 32.0795 81.8094C36.8095 75.8894 43.6895 80.4594 41.2895 87.5894ZM39.5995 87.1094C42.0095 78.1994 31.8895 79.0294 32.1895 87.8794C32.5195 92.6294 39.5995 91.4294 39.5995 87.1094Z" fill="#F1F0F0"/>
<path d="M30.8195 108.41C36.8195 111.04 27.3895 112.17 29.2795 109.39C29.5795 108.5 29.9195 108 30.8195 108.41ZM32.0795 110.16C29.8895 107.92 28.8995 110.67 32.0795 110.16Z" fill="#221E1C"/>
<path d="M32.3994 102.84C31.1994 102.88 31.4294 101 32.5294 101.51C34.6394 101.76 34.6894 103.75 32.3994 102.84Z" fill="#2A2929"/>
<path d="M39.5797 87.2498C39.5597 91.1198 33.1297 92.6098 32.2497 88.4098C31.0197 80.0598 42.0097 77.1498 39.5797 87.2498ZM38.8897 86.9598C41.2697 78.7298 31.6897 80.7198 33.0097 88.6598C33.1597 89.9798 34.4697 90.1698 35.5997 90.3898C37.6297 90.8498 38.4797 88.5098 38.8897 86.9498V86.9598Z" fill="#2A2929"/>
<path d="M159.49 240.159C96.8801 239.839 99.9202 144.219 161.88 147.119C221.41 149.239 219.3 241.309 159.49 240.159ZM153.17 212.899C157.35 213.059 154.12 218.029 153.86 220.989C153.86 221.919 154.7 222.009 155.55 222.349C160.41 224.869 159.85 218.869 161 215.909C162.2 213.519 171.03 217.679 176.06 212.869C180.47 208.239 181.88 201.339 176.64 196.149C175.54 194.649 178.69 193.719 179.26 192.389C182.98 188.059 181 180.269 175.86 178.549C165.39 175.039 177.88 168.459 169.8 166.819C164.51 164.859 168.51 175.349 163.17 173.959C161.21 173.199 162.78 170.249 163.08 168.539C163.44 167.169 163.85 165.359 162.82 165.079C161.58 164.819 158.92 163.499 158.15 164.999C156.75 171.409 157.07 173.599 149.18 170.609C148.15 170.489 146.38 169.479 145.85 170.679C145.61 172.139 144.52 174.129 144.9 175.499C145.68 176.329 147.91 176.329 148.96 176.829C153.28 178.809 145.34 197.179 144.92 202.079C142.38 206.339 139.01 197.349 136.74 208.279C138.75 209.989 143.71 209.529 145.48 211.229C147.4 214.439 142.55 218.909 146.8 220.219C152.6 223.069 149.46 213.639 153.19 212.899H153.17Z" fill="#F68F1F"/>
<path d="M158.94 147.1C225.07 149.78 218.27 246.34 153.33 239.2C129.73 236.58 113.31 216.41 113.87 193.35C114.45 168.46 131.45 148.85 158.93 147.09M155.41 171.75C149.81 171.13 145.06 166.19 144.35 174.86C144.19 177.77 149.69 175.96 150.12 178.87C148.49 183.36 147.24 200.2 142.9 202.85C139.24 201.12 137.82 202.93 136.67 206.68C134.36 211.81 146.3 208.45 145.33 214.13C144.53 217.99 143.04 220.19 148.38 221.03C148.99 221.13 149.7 221.28 150.18 220.87C152.06 219.3 150.7 213 153.7 213.54C156.34 213.98 153.81 218.1 153.5 220.28C152.86 222.64 155.08 222.8 156.81 223.11C161 224.79 160.19 219.3 161.24 216.65C163.39 212.99 175.08 221.16 179.83 207.47C181.13 203.84 180.73 199.37 177.59 196.77C177.15 196.36 176.06 195.66 176.99 195.12C182.54 192.19 183.19 182.88 178.09 179.23C176.49 177.69 171.09 176.83 171.8 174.1C172.1 172.22 174.03 169.09 172.93 167.64C162.97 162.42 168.83 171.74 164.01 173.6C162.94 173.59 162.32 172.89 162.8 171.69C164.52 167.82 162.97 163.07 158.32 164.02C156.44 165.93 157.51 169.89 155.43 171.73M158.78 146.18C132.49 147.27 110.15 170.65 112.73 197.11C115.7 246.7 186.78 257.23 203.97 210.09C216.02 180.26 190.7 145.47 158.78 146.18ZM158.88 164.86C168.18 163.93 158.04 172.18 163.4 174.42C167.78 176.27 165.89 167.17 168.71 167.06C169.69 167.48 171.52 167.39 172.27 168.29C168.93 179.6 172.34 174.98 178.97 181.35C182.17 184.95 180.74 192.52 176.09 194.63C175.38 195.23 175.63 196.36 176.29 196.84C184.34 202.63 176.62 217.07 167.34 214.92C159.18 213.83 160.88 215.66 158.89 222.02C158.38 222.96 157.28 222.28 156.43 222.13C154.75 221.83 153.79 221.53 154.63 219.57C155.17 217.37 157.3 213.08 153.67 212.53C149.79 212.21 151.09 217.82 149.63 219.93C149.04 220.63 146.03 219.74 145.48 218.87C145.48 218.15 145.73 217.38 145.84 216.54C147.19 209.67 145.89 210.46 138.92 208.79C138.24 208.56 137.29 208.57 137.14 207.97C139.26 197.92 143.6 208.22 145.68 201.06C147.35 194.39 149.01 187.78 150.67 181.06C152.08 177.17 149.19 176.21 145.68 175.44C144.85 175.13 145.58 173.86 145.61 173.22C145.56 168.43 150.27 171.82 152.94 172.19C158.4 173.66 156.61 169.16 158.86 164.85L158.88 164.86Z" fill="black"/>
<path d="M167.05 215.92C160.85 215.33 161.48 214.75 160.25 220.86C160.03 224.61 156.6 223.24 154.21 222.33C151.89 220.93 155.26 216.62 154.86 214.23C154.27 213.08 152.23 213.23 151.92 214.6C150.63 219.24 151.89 222.76 145.96 220.39C142.28 218.56 147.54 213.19 143.76 211.13C141.95 209.34 136.1 210.87 136.34 207.45C137.32 204.43 138.66 200.56 142.45 202.71C146.38 203.57 147.98 185.04 149.8 180.6C151.36 176.76 147.06 177.23 144.7 176C143.53 174.88 145.03 172.94 145.2 171.42C146.19 165.87 156.2 175.54 156.56 169.51C157.09 167.63 156.72 163.92 159.38 163.89C167.36 165.22 160.65 172.03 163.39 173.45C168.85 174.25 162.38 161.8 173.04 167.66C170.67 180.19 172.03 173.41 179.65 180.86C183.06 184.87 181.69 192.66 176.95 195.09C176.23 195.5 176.68 196 177.19 196.47C185.42 203.51 177.1 217.63 167.03 215.92H167.05ZM167.56 214.66C178.14 215.36 183.54 201.91 174.72 195.9C174.13 195.45 174.42 195.14 175.02 194.79C183.42 189.9 181.34 180.52 172.24 177.39C166.24 176.24 176.66 166.47 168.22 167.88C166.4 169.63 167.82 175.44 164.54 175.09C156.17 174.95 167.12 165.55 159.65 165.32C156.66 165.95 159.3 174.63 154.44 172.9C151.45 172.31 144.87 168.74 146.32 174.14C147.12 176.15 150.4 175.72 151.17 177.85C150.73 186.19 147.42 194.83 145.43 203C144.22 205.51 141.34 202.82 139.39 203.83C138.41 205.24 136.53 208.19 139.64 208.68C154.05 210.89 143.34 213.49 146.54 219.24C147.88 220.09 149.89 219.96 150 217.99C150.84 215.27 150.27 210.37 154.27 212.36C158.04 212.9 155.69 215.96 155.3 218.38C154.92 220.2 154.35 221.31 156.7 221.81C157 221.92 158.19 222.24 158.53 221.78C159.09 220.92 159.09 219.82 159.39 218.77C159.82 212.67 163.12 214.33 167.56 214.68V214.66Z" fill="#2F251D"/>
<path d="M167.25 214.64C158.92 213.08 160.64 215.18 158.53 221.76C156.66 222.45 154.08 221.22 155.18 218.97C155.35 216.51 158.35 212.96 154.28 212.34C152.8 212.06 151.51 211.09 151.12 213.13C150.15 215.47 150.68 221.61 146.55 219.23C143.91 216.98 149.52 212.15 146.22 210.21C142.98 208.72 134.6 209.86 139.41 203.83C142.67 202.99 145.26 206.14 146.14 200.92C146.72 194.95 153.05 181.39 150.5 176.88C148.5 175.76 144.5 174.4 146.68 171.41C148.72 170.17 153.68 173.64 156.41 172.96C158.73 171.73 157.1 165.84 159.67 165.33C160.55 165.22 162.27 165.63 162.43 166.76C162.88 170.3 158.09 174.45 164.55 175.1C166.75 175.38 166.46 173.56 166.88 171.98C167.4 169.57 167.79 166.43 170.97 168.14C173.82 170.46 167 176.57 172.24 177.41C181.41 180.56 183.46 190.07 174.83 194.93C174.32 195.24 174.24 195.54 174.72 195.92C183.64 202 177.99 215.67 167.25 214.66V214.64ZM163.27 208.52C168.69 209.07 172.88 202.04 167.39 198.3C164.41 196.16 160.86 195.4 157.38 194.63C154.28 194.31 154.58 201.79 153.37 204.84C152 208.52 161.02 207.99 163.27 208.53V208.52ZM164.78 191.89C167.57 192.13 171.04 190.77 171.43 187.64C172.57 182.36 165.6 180.29 161.33 179.43C158.09 179.01 158.6 185.59 157.47 188.5C156.11 191.92 162.77 191.4 164.78 191.89Z" fill="#FDFDFD"/>
<path d="M163.02 208.5C160.43 207.95 153.67 208.48 153.16 205.56C154.54 202.46 154.07 194.49 157.37 194.63C160.85 195.4 164.41 196.17 167.39 198.31C172.95 202.14 168.58 209.28 163.02 208.51V208.5ZM163.3 207.23C165.48 207.18 168.53 206.17 168.57 203.58C169.16 198.48 161.83 197.06 157.81 196C155.86 195.84 155.65 201.28 155.11 202.99C152.93 207.79 160.57 206.61 163.29 207.23H163.3Z" fill="#2F251D"/>
<path d="M164.509 191.87C154.899 191.21 157.119 189.79 159.259 181.04C159.889 177.2 166.189 181.08 168.049 181.67C174.489 184.64 171.039 193.03 164.519 191.88L164.509 191.87ZM165.019 190.61C169.329 191.36 172.589 185.95 168.019 183.11C166.059 181.85 163.809 181.3 161.599 180.78C159.279 181.03 159.719 186.39 158.659 188.65C158.789 190.71 163.459 190.23 165.019 190.6V190.61Z" fill="#2F251D"/>
<path d="M163.119 207.23C159.929 206.69 152.679 207.55 155.209 202.58C155.829 200.12 155.999 195.93 157.819 196.01C161.839 197.07 169.169 198.49 168.579 203.59C168.499 206.25 165.389 207.25 163.119 207.24V207.23Z" fill="#F28C20"/>
<path d="M164.819 190.58C163.049 190.23 157.369 190.73 158.979 187.67C159.719 185.4 159.509 180.69 161.739 180.81C165.249 181.62 171.189 183.28 170.109 187.66C169.709 190.01 166.919 190.8 164.819 190.59V190.58Z" fill="#F28C20"/>
<path d="M199.64 54.2501L197.29 55.1601C197.29 54.3301 198.9 52.5401 199.64 54.2401V54.2501Z" fill="#231F20"/>
</g>
<defs>
<clipPath id="clip0_756_3259">
<rect width="250" height="250" rx="125" fill="white"/>
</clipPath>
</defs>
</svg>
