<svg width="250" height="250" viewBox="0 0 250 250" fill="none" xmlns="http://www.w3.org/2000/svg">
<rect width="250" height="250" rx="125" fill="white"/>
<path d="M125 130.214C132.129 130.214 137.909 124.435 137.909 117.305C137.909 110.176 132.129 104.396 125 104.396C117.87 104.396 112.091 110.176 112.091 117.305C112.091 124.435 117.87 130.214 125 130.214Z" fill="black"/>
<path d="M41.836 86.2716C47.8686 86.2716 52.7589 81.3813 52.7589 75.3487C52.7589 69.3161 47.8686 64.4258 41.836 64.4258C35.8035 64.4258 30.9131 69.3161 30.9131 75.3487C30.9131 81.3813 35.8035 86.2716 41.836 86.2716Z" fill="black"/>
<path d="M41.836 182.098C47.8686 182.098 52.7589 177.207 52.7589 171.175C52.7589 165.142 47.8686 160.252 41.836 160.252C35.8035 160.252 30.9131 165.142 30.9131 171.175C30.9131 177.207 35.8035 182.098 41.836 182.098Z" fill="black"/>
<path d="M124.751 40.5958C130.784 40.5958 135.674 35.7055 135.674 29.6729C135.674 23.6404 130.784 18.75 124.751 18.75C118.719 18.75 113.828 23.6404 113.828 29.6729C113.828 35.7055 118.719 40.5958 124.751 40.5958Z" fill="black"/>
<path d="M208.162 86.2716C214.195 86.2716 219.085 81.3813 219.085 75.3487C219.085 69.3161 214.195 64.4258 208.162 64.4258C202.13 64.4258 197.239 69.3161 197.239 75.3487C197.239 81.3813 202.13 86.2716 208.162 86.2716Z" fill="black"/>
<path d="M208.162 182.098C214.195 182.098 219.085 177.207 219.085 171.175C219.085 165.142 214.195 160.252 208.162 160.252C202.13 160.252 197.239 165.142 197.239 171.175C197.239 177.207 202.13 182.098 208.162 182.098Z" fill="black"/>
<path d="M124.751 231.252C130.784 231.252 135.674 226.362 135.674 220.329C135.674 214.297 130.784 209.406 124.751 209.406C118.719 209.406 113.828 214.297 113.828 220.329C113.828 226.362 118.719 231.252 124.751 231.252Z" fill="black"/>
<path d="M41.5879 80.9017V165.117M208.411 72.9576L208.162 168.687M124.999 26.2871L124.751 122.016M118.535 119.579L49.0454 167.153M118.768 32.4488L45.8332 74.5514M119.265 216.053L46.3296 173.95M202.949 167.888L132.446 121.823M204.662 75.0482L131.727 32.9456M204.662 172.957L131.727 215.06" stroke="black" stroke-width="4.25055" stroke-miterlimit="10"/>
</svg>
