<svg width="250" height="250" viewBox="0 0 250 250" fill="none" xmlns="http://www.w3.org/2000/svg">
<path fill-rule="evenodd" clip-rule="evenodd" d="M186.327 186.325C180.133 192.515 169.347 192.513 163.153 186.327L63.6693 86.8393C60.5767 83.7467 58.8694 79.6303 58.8694 75.2563C58.8694 70.8793 60.5767 66.7639 63.6693 63.6693C66.7658 60.5737 70.8822 58.8714 75.2562 58.8714C79.6303 58.8714 83.7467 60.5737 86.8432 63.6693L186.327 163.153C192.713 169.543 192.713 179.936 186.327 186.325ZM178.392 124.998L201.437 101.953C208.57 94.8222 212.498 85.3411 212.498 75.2563C212.498 65.1694 208.57 55.6883 201.437 48.559C186.723 33.8376 162.765 33.8396 148.043 48.5571L138.459 58.1383L153.569 73.2525L163.153 63.6693C169.539 57.2828 179.94 57.2808 186.327 63.6712C189.419 66.7639 191.127 70.8793 191.127 75.2563C191.127 79.6303 189.419 83.7467 186.327 86.8412L163.281 109.887L101.953 48.559C94.8242 41.4258 85.3411 37.5 75.2562 37.5C65.1714 37.5 55.6883 41.4258 48.559 48.5571C41.4258 55.6883 37.498 65.1694 37.498 75.2563C37.498 85.3411 41.4258 94.8222 48.559 101.952L71.6046 124.998L48.559 148.043C41.4258 155.174 37.498 164.655 37.498 174.74C37.498 184.824 41.4258 194.306 48.559 201.439C55.9178 208.798 65.5894 212.478 75.2562 212.478C84.923 212.478 94.5947 208.796 101.953 201.437L111.466 191.923L96.3564 176.812L86.8432 186.325C80.4567 192.715 70.0558 192.713 63.6693 186.327C57.2828 179.936 57.2828 169.543 63.6693 163.153L86.7148 140.108L148.043 201.439C155.176 208.568 164.655 212.496 174.74 212.496C184.825 212.496 194.304 208.568 201.437 201.437C216.158 186.718 216.158 162.762 201.437 148.043L178.392 124.998Z" fill="url(#paint0_linear_242_94074)"/>
<defs>
<linearGradient id="paint0_linear_242_94074" x1="48.558" y1="48.5624" x2="201.434" y2="201.438" gradientUnits="userSpaceOnUse">
<stop stop-color="#D53F3C"/>
<stop offset="1" stop-color="#C22752"/>
</linearGradient>
</defs>
</svg>
