<svg width="250" height="250" viewBox="0 0 250 250" fill="none" xmlns="http://www.w3.org/2000/svg">
<rect width="250" height="250" rx="125" fill="white"/>
<g clip-path="url(#clip0_242_94570)">
<path d="M32.4717 177.203L119.301 126.66L177.619 32.0547L81.3478 81.1161L32.4717 177.203Z" fill="url(#paint0_linear_242_94570)"/>
<path d="M72.9258 217.655L168.734 169.242L216.477 73.0859L121.802 121.569L72.9258 217.655Z" fill="url(#paint1_linear_242_94570)"/>
<path d="M52.4667 52.0508L81.4407 81.0248L32.4718 177.204L11.7363 156.468L52.4667 52.0508Z" fill="url(#paint2_linear_242_94570)"/>
<path d="M94.1223 94.6309L154.199 154.708L61.1677 205.158L44.3203 187.57L94.1223 94.6309Z" fill="url(#paint3_linear_242_94570)"/>
<path d="M168.549 169.059L197.708 198.218L94.3092 238.67L72.4629 216.824L168.549 169.059Z" fill="url(#paint4_linear_242_94570)"/>
<path d="M52.4199 52.0975L81.3939 81.0715L177.573 32.1026L156.837 11.3672L52.4199 52.0975Z" fill="url(#paint5_linear_242_94570)"/>
<path d="M94.2627 94.677L154.34 154.754L204.79 61.7224L187.202 44.875L94.2627 94.677Z" fill="url(#paint6_linear_242_94570)"/>
<path d="M168.688 169.103L197.847 198.262L238.299 94.8629L216.476 73.0859L168.688 169.103Z" fill="url(#paint7_linear_242_94570)"/>
</g>
<defs>
<linearGradient id="paint0_linear_242_94570" x1="121.164" y1="122.462" x2="83.6911" y2="81.0024" gradientUnits="userSpaceOnUse">
<stop stop-color="#FDBA00"/>
<stop offset="1" stop-color="#FF0000"/>
</linearGradient>
<linearGradient id="paint1_linear_242_94570" x1="123.399" y1="126.872" x2="168.845" y2="166.337" gradientUnits="userSpaceOnUse">
<stop offset="0.251" stop-color="#FDBA00"/>
<stop offset="1" stop-color="#FF0000"/>
</linearGradient>
<linearGradient id="paint2_linear_242_94570" x1="61.2555" y1="57.8063" x2="32.9518" y2="175.406" gradientUnits="userSpaceOnUse">
<stop stop-color="#FFBB00"/>
<stop offset="1" stop-color="#FFD600"/>
</linearGradient>
<linearGradient id="paint3_linear_242_94570" x1="60.842" y1="203.422" x2="124.625" y2="124.092" gradientUnits="userSpaceOnUse">
<stop stop-color="#FFD600"/>
<stop offset="1" stop-color="#FFBE00"/>
</linearGradient>
<linearGradient id="paint4_linear_242_94570" x1="171.776" y1="171.449" x2="100.818" y2="241.211" gradientUnits="userSpaceOnUse">
<stop stop-color="#FFBD00"/>
<stop offset="0.997" stop-color="#FFDB00"/>
</linearGradient>
<linearGradient id="paint5_linear_242_94570" x1="70.2313" y1="64.9853" x2="164.71" y2="19.5399" gradientUnits="userSpaceOnUse">
<stop stop-color="#FFF144"/>
<stop offset="1" stop-color="#FFDA00"/>
</linearGradient>
<linearGradient id="paint6_linear_242_94570" x1="94.2627" y1="99.8145" x2="204.79" y2="99.8145" gradientUnits="userSpaceOnUse">
<stop stop-color="#FFF144"/>
<stop offset="1" stop-color="#FFDA00"/>
</linearGradient>
<linearGradient id="paint7_linear_242_94570" x1="168.688" y1="135.674" x2="238.299" y2="135.674" gradientUnits="userSpaceOnUse">
<stop stop-color="#FFF144"/>
<stop offset="1" stop-color="#FFDA00"/>
</linearGradient>
<clipPath id="clip0_242_94570">
<rect width="227.302" height="227.302" fill="white" transform="translate(11.3662 11.3672)"/>
</clipPath>
</defs>
</svg>
