<svg width="250" height="250" viewBox="0 0 250 250" fill="none" xmlns="http://www.w3.org/2000/svg">
<rect width="250" height="250" rx="125" fill="white"/>
<path d="M224 125.001L175.094 210.141H78.0742L127.641 125.034L79.2622 39.8613L174.802 40.0917L224 125.001ZM128.083 68.2865C128.083 68.2865 149.716 106.135 160.447 124.911C149.619 143.788 138.828 162.599 127.941 181.577C138.236 181.577 148.311 181.577 158.405 181.577C169.428 162.637 180.441 143.712 191.466 124.766C180.323 105.849 158.198 68.2869 158.198 68.2869L128.083 68.2865Z" fill="#101341"/>
<path d="M70.4767 47.4785L86.6219 76.3409L58.9383 124.44L86.1867 172.358L69.8111 200.467L26.002 124.606L70.4767 47.4785Z" fill="#8F8886"/>
</svg>
