<svg width="250" height="250" viewBox="0 0 250 250" fill="none" xmlns="http://www.w3.org/2000/svg">
<rect width="250" height="250" rx="125" fill="white"/>
<g clip-path="url(#clip0_242_94584)">
<path d="M125.016 238.67C187.784 238.67 238.668 187.786 238.668 125.018C238.668 62.2506 187.784 11.3672 125.016 11.3672C62.2486 11.3672 11.3652 62.2506 11.3652 125.018C11.3652 187.786 62.2486 238.67 125.016 238.67Z" fill="#8E09D4"/>
<path d="M172.738 163.951C172.738 156.416 179.017 151.393 185.297 151.393C192.831 151.393 199.111 156.416 199.111 163.951C199.111 171.486 192.832 176.509 185.925 176.509C178.39 176.509 172.739 171.486 172.739 163.951H172.738Z" fill="#FF8500"/>
<path d="M168.971 133.808C168.971 160.808 150.134 177.761 125.018 177.761C112.46 177.761 103.041 173.994 96.1341 166.459V176.506H74.7852V59.7148H97.3899V100.529C103.669 93.6218 113.088 90.482 124.39 90.482C149.507 90.482 168.972 107.436 168.972 134.436V133.808L168.971 133.808ZM148.25 133.808C148.25 119.366 138.204 110.575 125.018 110.575C112.46 110.575 102.413 119.366 102.413 133.808C102.413 148.878 112.46 157.668 125.018 157.668C138.204 157.668 148.25 148.878 148.25 133.808Z" fill="white"/>
</g>
<defs>
<clipPath id="clip0_242_94584">
<rect width="227.302" height="227.302" fill="white" transform="translate(11.3652 11.3672)"/>
</clipPath>
</defs>
</svg>
