<svg width="250" height="250" viewBox="0 0 250 250" fill="none" xmlns="http://www.w3.org/2000/svg">
<g clip-path="url(#clip0_242_94731)">
<path d="M125 250C194.036 250 250 194.036 250 125C250 55.9644 194.036 0 125 0C55.9644 0 0 55.9644 0 125C0 194.036 55.9644 250 125 250Z" fill="#FD7A3D"/>
<path fill-rule="evenodd" clip-rule="evenodd" d="M201.875 169.605C205.89 163.663 203.883 156.071 197.868 152.77L197.875 152.777C194.196 150.467 189.517 150.797 185.845 152.447C185.761 151.946 185.527 151.482 185.173 151.119L170.471 126.046L185.173 100.965C185.343 100.799 185.427 100.548 185.51 100.298C185.592 100.053 185.675 99.8084 185.837 99.6449C189.517 101.625 193.86 101.625 197.868 99.3149C200.728 97.7289 202.836 95.0529 203.716 91.8884C204.596 88.7239 204.174 85.3359 202.547 82.4869C199.203 76.5449 191.524 74.5719 185.509 77.8734C181.83 80.1759 179.494 83.8074 179.158 88.0909H148.418L133.724 63.0179C133.388 62.6879 133.052 62.3579 133.052 62.0279C136.387 59.7169 138.731 56.0859 138.731 51.7944C138.731 44.8697 133.052 39.5879 126.372 39.5879C119.685 39.5879 114.007 45.1919 114.007 51.7944C114.007 55.9654 116.156 59.8384 119.685 62.0279L119.663 62.0504C119.342 62.3729 119.021 62.6954 119.021 63.0179L104.319 88.0989H73.2515C72.9155 84.1374 70.908 80.1759 66.9 77.8654C60.885 74.5644 53.198 76.5449 49.8623 82.4869C48.2341 85.3349 47.8118 88.7219 48.6903 91.8864C49.5688 95.0514 51.6745 97.7279 54.534 99.3149C58.2135 101.625 62.8925 101.295 66.5645 99.6449C66.648 100.146 66.8825 100.61 67.236 100.973L81.938 126.046L66.9 151.127C66.731 151.293 66.647 151.544 66.563 151.794C66.481 152.039 66.399 152.284 66.236 152.447C62.557 150.467 58.2135 150.467 54.206 152.777C48.1906 156.079 46.1829 163.663 49.5264 169.605C52.87 175.547 60.549 177.52 66.5645 174.219C70.2435 171.916 72.5795 168.285 72.9155 164.001H103.655L118.35 189.074C118.686 189.404 119.021 189.734 119.021 190.065C115.686 192.375 113.342 196.007 113.342 200.298C113.342 207.223 119.021 212.504 125.701 212.504C132.388 212.504 138.067 206.9 138.067 200.298C138.067 196.007 135.723 192.045 132.388 190.065L132.41 190.042C132.731 189.719 133.052 189.397 133.052 189.074L147.754 163.993H178.494C178.785 168.256 181.166 172.093 184.845 174.227C190.86 177.528 198.539 175.547 201.875 169.605ZM129.38 105.256C136.395 105.256 142.075 110.868 142.075 117.792C142.075 121.094 140.739 123.734 139.067 126.375C141.075 128.356 142.075 131.327 142.075 134.298C142.075 141.223 136.395 146.835 129.38 146.835H113.342C111.67 146.835 110.335 145.514 110.335 143.864V108.227C110.339 107.431 110.659 106.669 111.223 106.111C111.788 105.553 112.551 105.245 113.342 105.256H129.38Z" fill="white"/>
</g>
<defs>
<clipPath id="clip0_242_94731">
<rect width="250" height="250" fill="white"/>
</clipPath>
</defs>
</svg>
