<svg width="250" height="250" viewBox="0 0 250 250" fill="none" xmlns="http://www.w3.org/2000/svg">
<g clip-path="url(#clip0_242_94860)">
<path d="M124.998 250.033C194.034 250.033 249.998 194.061 249.998 125.016C249.998 55.9717 194.034 0 124.998 0C55.9625 0 -0.00195312 55.9717 -0.00195312 125.016C-0.00195312 194.061 55.9625 250.033 124.998 250.033Z" fill="url(#paint0_linear_242_94860)"/>
<path fill-rule="evenodd" clip-rule="evenodd" d="M116.335 49.5039H133.658H135.511V49.5437C158.058 50.5132 176.041 69.1021 176.041 91.8916C176.041 102.477 172.161 112.156 165.746 119.584C178.558 127.147 187.154 141.097 187.154 157.053C187.154 181.028 167.749 200.472 143.791 200.531H78.8556V200.094L78.8555 71.2971V49.5039H116.335ZM115.682 77.3465C115.682 74.9049 117.32 72.8458 119.558 72.21C121.389 71.615 123.48 72.0449 124.934 73.4993L139.322 87.8888C139.442 87.9896 139.559 88.0966 139.672 88.2097C141.737 90.2744 141.737 93.6217 139.672 95.6862L125.021 110.34C123.955 111.406 122.548 111.921 121.152 111.887C121.109 111.888 121.064 111.889 121.02 111.889C118.072 111.889 115.682 109.498 115.682 106.549V77.3465ZM141.177 171.598C141.177 174.04 139.537 176.099 137.299 176.735C135.469 177.33 133.378 176.9 131.924 175.445L117.538 161.058C117.417 160.957 117.299 160.849 117.185 160.736C115.121 158.67 115.121 155.324 117.185 153.258L131.837 138.604C132.903 137.539 134.309 137.024 135.704 137.057C135.732 137.057 135.758 137.056 135.786 137.056C135.803 137.056 135.821 137.056 135.838 137.056C138.786 137.056 141.177 139.447 141.177 142.396V171.598Z" fill="white"/>
</g>
<defs>
<linearGradient id="paint0_linear_242_94860" x1="0.409687" y1="28.5335" x2="306.551" y2="176.748" gradientUnits="userSpaceOnUse">
<stop offset="0.053951" stop-color="#6D5CFF"/>
<stop offset="0.559189" stop-color="#E86EFF"/>
<stop offset="0.923794" stop-color="#FFD66E"/>
</linearGradient>
<clipPath id="clip0_242_94860">
<rect width="250" height="250" rx="125" fill="white"/>
</clipPath>
</defs>
</svg>
