<svg width="250" height="250" viewBox="0 0 250 250" fill="none" xmlns="http://www.w3.org/2000/svg">
<g clip-path="url(#clip0_756_3905)">
<rect width="250" height="250" rx="125" fill="#C0222A"/>
<path d="M250.977 233.417C250.977 239.022 250.966 244.627 250.994 250.231C250.998 250.859 250.852 251.004 250.224 251.001C244.117 250.974 238.011 250.984 231.905 250.984C231.858 250.825 231.831 250.657 231.762 250.507C229.249 245.05 226.311 239.815 223.395 234.569C222.82 233.535 222.114 232.513 220.953 231.96C220.333 231.665 219.912 231.139 219.551 230.563C218.292 228.555 217.267 226.42 216.147 224.338C215.577 223.279 214.903 222.209 213.935 221.496C212.567 220.489 211.313 219.444 210.653 217.828C210.535 217.538 210.321 217.333 209.973 217.401C209.601 217.474 209.573 217.777 209.565 218.079C209.554 218.5 209.563 218.912 209.872 219.258C210.482 219.942 210.975 220.788 211.703 221.299C213.922 222.855 215.082 225.134 216.264 227.437C217.443 229.735 218.587 232.064 220.866 233.558C221.53 233.994 221.924 234.709 222.293 235.431C222.955 236.725 223.638 238.018 224.421 239.241C226.803 242.959 228.587 246.977 230.397 250.983H184.724C184.695 250.862 184.698 250.716 184.632 250.622C181.955 246.887 179.175 243.275 175.404 240.505C172.348 238.259 169.518 235.702 165.911 234.298C164.279 233.663 162.627 233.042 161.078 232.235C154.417 228.768 147.237 227.051 139.853 226.506C135.056 226.152 130.172 226 125.358 226.872C122.247 227.435 119.08 227.567 115.961 228.123C112.529 228.735 109.669 230.524 106.724 232.162C101.768 234.919 97.2378 238.229 93.8832 242.881C92.1252 245.32 90.725 247.982 90.113 250.983H39.4232C39.2548 248.886 39.7117 246.871 40.5788 245.015C42.5752 240.744 44.4454 236.416 46.2078 232.051C47.679 228.408 49.1994 224.805 51.0871 221.362C51.7894 220.081 52.7916 218.972 53.3194 217.595C53.4878 217.157 54.0252 216.519 53.2519 216.203C52.6548 215.959 52.4382 216.57 52.2103 217.03C51.8762 217.702 51.543 218.384 51.1274 219.006C48.0955 223.551 46.0605 228.59 43.9702 233.59C42.8155 236.353 41.5634 239.077 40.4727 241.875C39.3127 244.85 38.0782 247.725 38.1676 250.983H3.53711C3.57569 250.737 3.57306 250.476 3.65898 250.248C4.94874 246.827 5.46604 243.162 7.14597 239.846C8.0175 238.125 8.32701 236.149 8.63037 234.193C8.93374 232.242 9.76406 230.38 10.2796 228.455C11.4317 224.153 12.689 219.88 14.1594 215.679C15.657 211.4 17.9962 207.455 19.2264 203.06C19.4649 202.209 19.5017 201.338 19.7437 200.499C20.8589 196.626 22.0838 192.78 23.0535 188.871C24.1416 184.485 25.8374 180.333 27.5182 176.168C28.6238 173.428 29.9127 170.762 30.8201 167.942C32.1432 163.832 34.1888 160.074 36.4447 156.418C37.6608 154.447 39.0786 152.596 39.9791 150.438C40.9374 150.068 41.1215 148.92 41.9773 148.447L42.0606 148.443L42.0834 148.357C43.4345 147.21 43.5976 145.438 43.8834 143.961C44.427 141.154 45.3468 138.452 45.8614 135.634C46.5392 131.928 47.5703 128.264 48.9135 124.711C49.3151 123.649 49.807 122.658 50.4356 121.723C50.8179 121.708 51.1669 121.82 51.4974 122.002C51.4878 125.055 51.4492 128.108 51.4957 131.16C51.5045 131.737 51.1327 132.836 52.0051 132.81C52.8407 132.785 52.4549 131.701 52.4356 131.111C52.2418 125.295 52.7144 119.531 53.7262 113.812C54.1164 111.608 54.5829 109.416 55.2133 107.262C56.0743 104.318 56.8134 101.341 57.8647 98.4495C58.489 96.7337 59.2667 95.0844 59.8962 93.3826C60.5029 91.7421 61.0965 90.0859 61.8418 88.5173C64.0829 83.7975 66.53 79.1725 69.4199 74.8157C72.6614 69.9302 75.567 64.7011 81.1346 61.8673C80.7015 61.6814 79.9256 61.6735 80.5674 60.8599C81.858 59.2229 83.1811 57.6341 84.9496 56.4636C87.5712 54.7285 90.3664 53.3484 93.2562 52.1279C94.5144 51.5966 94.7012 50.7838 94.0392 49.6089C93.8963 49.3546 93.7455 49.1004 93.5631 48.8742C92.8459 47.9798 93.1133 47.0838 93.9331 46.6287C95.4982 45.7598 96.7196 44.3482 98.5038 43.8326C99.6235 43.5091 100.709 43.0672 101.815 42.6954C104.5 41.7941 107.212 40.9427 110.071 40.9348C112.908 40.9261 115.745 41.1374 118.582 41.1383C120.849 41.1383 123.076 41.2373 125.252 41.9607C128.165 42.9287 131.174 43.6047 133.724 45.4959C135.197 46.5884 136.304 47.9807 137.302 49.4344C138.016 50.4743 138.578 51.6729 138.936 52.9311C139.133 53.6246 138.736 54.0665 138.237 53.8955C136.666 53.3581 135.095 53.7447 133.545 53.7596C127.615 53.8192 121.676 53.3958 115.756 53.9937C112.39 54.3339 109.045 54.6443 105.838 55.9972C103.587 56.9467 102.121 58.9248 99.9426 59.8892C99.7147 59.9901 99.5937 60.2838 99.7471 60.5346C99.8103 60.638 100.058 60.7345 100.164 60.6915C101.157 60.2891 102.295 60.1996 103.08 59.3413C103.75 58.6083 104.502 57.9708 105.38 57.4974C107.15 56.5426 108.983 55.9227 111.016 55.5956C114.851 54.9792 118.689 54.5601 122.56 54.4882C126.742 54.4111 130.925 54.476 135.107 54.4716C136.732 54.4698 138.089 55.0836 139.203 56.2401C140.052 57.1212 140.559 58.2216 141.148 59.2781C141.893 60.6126 142.26 62.1803 143.31 63.3087C145.156 65.292 146.907 67.3051 148.207 69.7224C149.869 72.8105 151.399 75.9319 152.247 79.3513C152.317 79.6328 152.468 79.9774 152.219 80.1808C151.919 80.4254 151.699 80.0615 151.471 79.916C150.805 79.4881 150.131 79.0699 149.497 78.599C144.974 75.2366 139.683 74.2598 134.28 74.1748C131.036 74.1239 127.727 74.6579 124.612 75.831C124.046 76.0441 123.506 76.0765 122.902 75.9319C119.686 75.1655 116.391 75.0261 113.111 74.8727C109.828 74.7193 106.552 74.9814 103.31 75.5697C100.769 76.0309 98.1408 76.2913 95.7595 77.2479C91.9113 78.7928 88.085 80.4044 84.9048 83.2802C82.2376 85.6914 80.2561 88.4629 79.0058 91.7982C78.7559 92.4646 78.8945 93.0292 79.2083 93.6921C80.1246 95.6289 83.509 96.0305 85.2582 95.3817C85.7466 95.201 86.1806 95.0581 86.697 95.2931C87.608 95.7069 88.554 96.0454 89.4633 96.4636C95.0984 99.0598 100.801 101.511 106.317 104.362C109.947 106.237 113.733 107.778 117.492 109.353C123.177 111.735 129.023 113.7 135.14 114.641C138.737 115.194 142.384 115.173 145.995 114.675C149.096 114.248 152.116 113.408 155.03 112.28C156.086 111.871 156.925 112.044 157.894 112.387C159.305 112.887 159.707 114.343 158.618 115.36C157.817 116.109 156.859 116.605 155.825 116.97C151.345 118.548 146.679 119.215 141.982 119.423C135.059 119.73 128.14 119.535 121.29 118.247C115.664 117.188 110.107 115.941 105.021 113.163C101.769 111.387 98.4232 109.746 96.1874 106.598C96.0339 106.381 95.6972 106.299 95.4517 106.143C95.2308 106.003 94.9976 105.871 94.781 106.105C94.5723 106.331 94.724 106.569 94.8345 106.795C95.2501 107.641 96.0103 108.22 96.6714 108.802C100.346 112.038 104.514 114.464 109.116 116.172C113.223 117.696 117.467 118.638 121.749 119.479C124.424 120.005 127.145 119.885 129.831 120.247C131.846 120.519 133.904 120.741 135.925 120.636C137.761 120.54 139.595 120.481 141.431 120.474C143.353 120.466 145.208 119.82 147.15 119.962C148.487 120.061 148.44 119.98 147.935 121.17C147.085 123.173 145.371 124.451 143.959 125.958C140.776 129.355 136.613 131.35 132.574 133.476C130.265 134.692 127.83 135.67 125.466 136.786C125.222 136.901 124.716 137.008 124.919 137.468C125.088 137.852 125.461 137.735 125.799 137.638C126.729 137.375 127.607 136.995 128.465 136.557C132.619 134.437 136.94 132.659 140.75 129.867C143.6 127.778 146.388 125.666 148.139 122.551C149.281 120.517 150.746 119.321 153.108 118.902C155.307 118.513 157.398 117.61 159.256 116.264C160.557 115.322 160.772 113.529 159.683 112.36C158.995 111.622 158.132 111.245 157.2 110.993C156.413 110.78 156.012 110.252 155.867 109.508C155.174 105.982 153.716 102.761 151.799 99.7674C148.615 94.7968 144.295 90.9916 139.154 88.1517C136.612 86.747 134.042 85.3959 131.262 84.4358C128.416 83.4529 125.511 82.7007 122.604 81.9948C120.07 81.3793 117.429 81.2391 114.813 81.0111C111.294 80.7042 107.814 80.8682 104.331 81.268C100.696 81.6853 97.2255 82.7945 94.0006 84.4402C91.4369 85.7493 89.2651 87.6045 88.3006 90.5847C87.615 92.7039 86.2086 94.2778 83.8167 94.6022C82.6085 94.7661 81.353 94.5803 80.5779 93.6754C79.9142 92.9003 80.1316 91.7202 80.5086 90.7943C81.6449 87.9982 83.5616 85.7536 85.843 83.8317C88.7574 81.3776 92.1147 79.6863 95.6981 78.4517C98.6406 77.4373 101.661 76.5982 104.757 76.3632C109.498 76.0029 114.262 75.817 119.012 76.3238C121.079 76.5438 123.157 76.7867 125.151 77.3935C127.853 78.215 130.608 78.8472 133.263 79.8379C136.562 81.069 139.657 82.7033 142.619 84.5621C146.526 87.0145 149.941 90.0718 152.812 93.6991C154.183 95.4316 155.58 97.1861 156.481 99.2036C157.436 101.344 158.638 103.395 159.146 105.727C159.253 106.217 159.538 106.822 160.137 106.562C160.66 106.334 160.286 105.761 160.193 105.332C159.744 103.268 158.695 101.439 157.762 99.5964C156.989 98.0673 156.446 96.3724 155.172 95.1046C154.227 94.1647 153.533 93.0108 152.682 91.9832C150.077 88.8347 146.971 86.2376 143.63 83.9834C138.984 80.8489 133.832 78.7095 128.443 77.1594C128.031 77.041 127.362 77.0585 127.374 76.4983C127.385 75.938 128.074 75.9494 128.473 75.874C132.529 75.105 136.62 75.0656 140.646 75.9082C145.518 76.9279 149.762 79.176 153.144 82.9567C155.403 85.4827 156.983 88.3603 158.183 91.4984C158.949 93.4992 159.283 95.6 159.826 97.6517C159.913 97.9822 159.948 98.624 160.556 98.4452C160.989 98.3171 160.921 97.813 160.865 97.4535C160.369 94.2716 159.42 91.2152 157.954 88.3586C157.029 86.5541 156.045 84.7734 154.703 83.1917C153.393 81.6476 153.36 79.5442 152.855 77.6775C151.549 72.8499 149.119 68.6528 146.147 64.6976C145.501 63.8374 144.556 63.2509 144.135 62.1794C143.105 59.5657 142.435 56.7539 140.258 54.7294C140.125 54.6057 140.034 54.3436 140.055 54.1612C140.284 52.1981 139.657 50.4655 138.725 48.7847C138.314 48.0447 138.533 47.6046 139.474 47.3994C141.537 46.9496 143.502 46.0921 144.927 44.5428C145.963 43.4179 147.145 42.7638 148.524 42.4727C151 41.9493 153.482 41.7038 156.062 41.8546C158.867 42.0185 161.601 42.0001 164.166 43.4302C165.767 44.3227 167.644 44.5665 169.384 45.1382C171.685 45.894 173.508 47.3477 175.277 49.0101C178.147 51.7062 180.999 54.3629 182.728 57.9849C182.893 58.3294 183.12 58.6626 182.825 59.0256C182.583 59.3228 182.206 59.3518 181.899 59.2282C179.754 58.3698 177.436 58.2663 175.215 57.7394C173.644 57.3667 172.203 56.4996 170.554 56.4856C168.098 56.4645 165.642 56.5022 163.186 56.4785C160.557 56.4531 157.969 56.5671 155.386 57.2475C153.392 57.7727 151.366 58.3584 149.249 58.2856C148.939 58.2751 148.47 58.2497 148.525 58.7249C148.568 59.1072 149.001 58.9502 149.267 58.966C150.899 59.0668 152.572 59.0817 154.116 58.6232C158.377 57.3571 162.708 57.0888 167.112 57.2124C168.949 57.2641 170.771 57.1519 172.436 58.1593C172.772 58.3636 173.234 58.4022 173.645 58.4373C176.919 58.717 179.965 59.8682 183.048 60.8774C183.441 61.0063 183.927 61.1194 184.164 61.4078C185.272 62.7528 186.802 63.577 188.134 64.6186C192.44 67.9846 195.749 72.1582 198.59 76.7595C198.788 77.0813 198.808 77.3733 198.631 77.6986C198.428 78.0712 198.133 78.0361 197.773 77.9642C193.813 77.1725 189.835 77.1322 185.823 77.5416C182.795 77.8511 179.889 78.6403 176.988 79.482C176.631 79.5854 176.175 79.7485 176.283 80.215C176.408 80.7586 176.861 80.5341 177.211 80.4324C179.968 79.6354 182.751 79.0252 185.614 78.6771C189.663 78.1852 193.683 78.2974 197.666 78.9971C201.467 79.6643 205.042 81.0427 208.302 83.1662C209.56 83.9852 210.791 84.819 211.479 86.2148C211.654 86.5717 211.922 86.968 211.488 87.3468C211.081 87.7019 210.633 87.6835 210.214 87.4152C209.977 87.2635 209.805 87.011 209.608 86.7996C208.379 85.4818 207.076 84.2605 205.389 83.531C202.976 82.4867 200.558 81.574 197.898 81.2119C193.881 80.6648 189.917 80.7875 185.975 81.5652C182.33 82.2842 178.823 83.4942 175.497 85.1548C172.684 86.5594 170.231 88.5103 167.873 90.5733C167.558 90.8487 167.202 91.202 167.639 91.6246C168.053 92.0253 168.329 91.5887 168.562 91.3361C170.782 88.9337 173.589 87.3547 176.428 85.8685C180.109 83.9404 184.117 83.0145 188.193 82.3008C190.98 81.8125 193.804 81.9265 196.558 82.0396C198.893 82.1351 201.275 82.9698 203.539 83.8221C205.395 84.5209 206.983 85.5914 208.422 86.9987C210.144 88.683 209.474 90.718 209.584 92.6452C209.651 93.8113 209.596 94.9853 209.596 96.3119C208.854 95.7096 208.628 95.0721 208.379 94.4584C206.918 90.8583 204.295 88.5024 200.721 87.0592C195.484 84.9444 190.267 85.6563 185.183 87.3573C179.65 89.2082 174.655 92.0744 170.529 96.3417C167.39 99.5876 165.065 103.252 163.979 107.656C163.412 109.953 163.727 110.585 165.754 111.137C170.58 112.451 175.48 113.465 180.48 113.63C185.602 113.799 190.734 113.861 195.808 112.739C200.594 111.682 205.158 110.28 208.55 106.45C208.736 106.241 208.935 106.116 209.199 106.242C209.507 106.389 209.554 106.662 209.523 106.983C209.24 109.9 208.239 112.523 206.085 114.552C204.736 115.823 202.924 116.361 201.229 117.028C198.737 118.007 196.095 118.426 193.484 118.948C193.102 119.024 192.684 119.078 192.826 119.626C192.923 119.998 193.24 119.957 193.545 119.918C196.354 119.549 199.132 119.071 201.767 117.951C202.265 117.74 202.986 117.164 203.347 117.654C203.694 118.126 203.338 118.918 203.04 119.52C202.985 119.631 202.911 119.734 202.841 119.838C201.434 121.948 199.363 123.039 196.961 123.522C195.335 123.849 193.673 124.003 192.027 124.232C191.71 124.277 191.281 124.21 191.337 124.723C191.384 125.143 191.749 125.18 192.095 125.218C192.941 125.309 193.753 125.064 194.58 124.977C197.388 124.68 200.113 124.148 202.264 122.1C202.729 121.656 203.169 121.59 203.711 121.979C204.219 122.345 204.679 122.735 205.109 123.205C206.975 125.242 208.162 127.686 209.198 130.178C210.55 133.433 212.054 136.681 212.098 140.316C212.136 143.452 212.144 146.59 212.111 149.727C212.094 151.357 211.653 152.929 211.329 154.522C210.795 157.14 209.582 159.531 209.017 162.149C208.521 164.45 208.003 166.766 207.092 168.985C205.889 171.917 204.542 174.785 203.337 177.709C202.206 180.455 201.449 183.288 199.619 185.776C198.028 187.937 196.939 190.49 195.128 192.518C192.856 195.06 190.439 197.473 188.077 199.933C184.37 203.794 179.891 205.643 174.71 205.767C166.778 205.956 158.844 205.866 150.914 205.373C146.229 205.082 141.652 204.174 137.128 203.094C130.122 201.422 123.262 199.209 116.161 197.824C109.47 196.518 102.84 194.799 96.4758 192.213C91.3387 190.127 86.263 187.906 81.2644 185.516C78.1483 184.026 75.2821 182.075 72.3747 180.213C71.853 179.879 71.2427 179.373 70.7245 180.059C70.2142 180.735 70.7754 181.188 71.3216 181.571C73.7837 183.297 76.3877 184.824 78.9874 186.298C82.3858 188.225 86.0289 189.755 89.6299 191.275C95.8445 193.898 102.103 196.479 108.781 197.791C110.005 198.031 111.206 198.41 112.399 198.785C115.4 199.725 118.567 199.819 121.587 200.585C125.819 201.658 129.997 202.951 134.179 204.215C139.588 205.849 145.196 206.386 150.732 207.323C154.175 207.905 157.63 207.291 161.088 207.513C165.086 207.77 169.114 207.54 173.129 207.569C175.146 207.584 177.1 207.392 179.059 206.828C180.655 206.369 181.996 205.473 183.456 204.784C186.89 203.163 189.366 200.339 192.026 197.778C193.336 196.516 194.462 195.039 195.664 193.655C197.403 191.651 199.171 189.646 200.326 187.209C200.826 186.153 201.303 186.063 202.275 186.791C202.942 187.29 203.601 187.793 204.301 188.252C206.732 189.85 209.291 191.285 211.128 193.658C212.382 195.278 213.713 196.909 215.391 198.051C217.42 199.433 218.923 201.242 220.26 203.185C221.25 204.624 222.445 205.781 223.803 206.804C224.412 207.263 224.992 207.718 225.376 208.387C226.8 210.862 228.681 212.966 230.678 214.984C231.809 216.126 233.284 216.769 234.53 217.758C236.403 219.244 237.848 221.143 239.698 222.653C243.183 225.496 246.562 228.477 249.276 232.105C249.747 232.735 250.251 233.19 250.982 233.417H250.977ZM195.096 166.488C195.054 166.487 195.012 166.485 194.97 166.484C194.97 165.649 195.114 164.784 194.946 163.984C193.997 159.466 192.986 154.96 191.974 150.455C191.213 147.066 189.793 143.978 187.586 141.282C184.809 137.894 181.572 134.952 178.288 132.083C176.621 130.627 174.61 129.561 172.242 129.856C171.452 129.954 170.659 129.953 169.881 130.062C167.968 130.33 165.997 129.876 164.178 130.144C160.968 130.616 157.824 129.833 154.59 130.31C151.23 130.806 148.07 131.554 145.202 133.283C143.463 134.332 141.594 135.138 139.925 136.325C137.713 137.899 135.597 139.583 133.795 141.597C129.704 146.171 128.127 152.033 126.044 157.579C124.396 161.965 124.154 166.618 124.384 171.348C124.532 174.387 125.537 176.929 127.011 179.421C127.348 179.992 127.648 180.627 128.223 181C129.71 181.967 130.906 183.252 132.145 184.491C133.368 185.713 134.862 186.604 136.343 187.405C139.791 189.267 143.531 190.491 147.146 191.991C149.186 192.838 151.334 192.568 153.431 192.83C158.109 193.414 162.772 193.103 167.361 192.379C171.08 191.792 174.89 192.095 178.558 190.823C181.11 189.937 183.836 189.485 186.033 187.824C187.459 186.746 188.369 185.131 189.4 183.674C191.603 180.563 194.122 177.586 194.561 173.588C194.821 171.231 194.923 168.857 195.096 166.49V166.488ZM171.831 120.209C172.654 119.894 173.247 119.915 173.792 120.076C177.009 121.02 180.383 120.832 183.643 121.463C183.971 121.527 184.601 121.716 184.622 121.069C184.637 120.615 184.115 120.574 183.756 120.527C180.292 120.082 176.821 119.697 173.366 119.198C171.284 118.897 169.127 118.909 167.19 117.881C166.602 117.57 165.969 117.342 165.348 117.099C165.041 116.979 164.652 116.832 164.481 117.251C164.311 117.667 164.671 117.808 164.989 117.955C166.575 118.691 168.207 119.346 169.725 120.202C173.54 122.353 177.031 124.952 180.16 128.037C181.732 129.586 183.451 130.983 184.953 132.608C185.241 132.92 185.643 133.269 186.025 132.892C186.474 132.448 185.935 132.146 185.665 131.886C184.765 131.018 183.811 130.207 182.924 129.327C181.003 127.425 179.015 125.614 176.902 123.913C175.319 122.638 173.617 121.54 171.83 120.211L171.831 120.209Z" fill="#70472C"/>
<path d="M2.28228 250.984H0.0236733C0.0236733 167.707 0.0254269 84.4295 0 1.15298C0 0.212183 0.211306 0 1.15298 0C84.0516 0.0254269 166.949 0.0254269 249.848 0C250.789 0 251.001 0.211306 251.001 1.15298C250.975 77.9053 250.977 154.658 250.977 231.409C250.644 231.334 250.31 231.257 249.977 231.182C249.88 231.093 249.784 231.002 249.687 230.913C249.078 229.252 247.88 228.102 246.442 227.158L246.445 227.165C245.642 225.628 244.29 224.702 242.821 223.907C242.598 223.732 242.374 223.556 242.151 223.38C242.127 222.827 241.815 222.503 241.357 222.214C240.593 221.731 239.789 221.264 239.259 220.501C238 218.686 236.199 217.472 234.5 216.143C234.489 216.182 234.473 216.22 234.468 216.26C234.463 216.3 234.468 216.342 234.468 216.384C234.021 216.109 233.574 215.835 233.128 215.559C231.81 213.867 230.571 212.099 228.656 210.991L228.64 210.954C228.06 208.971 227.23 207.007 225.442 205.953C223.52 204.82 222.286 203.192 221.042 201.478C220.24 200.372 219.454 199.234 218.23 198.523C218.165 198.496 218.117 198.452 218.084 198.391C217.963 198.281 217.84 198.173 217.718 198.063C217.587 197.967 217.458 197.872 217.327 197.777C217.306 197.68 217.285 197.582 217.265 197.484C217.213 197.515 217.162 197.545 217.11 197.576C216.924 197.469 216.737 197.364 216.55 197.258C215.601 195.749 214.216 194.629 212.977 193.393C212.259 192.677 211.903 191.587 210.831 191.229C210.407 190.782 209.992 190.327 209.557 189.891C209.012 189.345 208.408 188.892 207.606 188.802C205.648 187.819 203.961 186.421 202.137 185.233C201.653 184.918 201.839 184.519 201.986 184.131C203.465 180.205 204.595 176.153 206.364 172.329C207.4 170.088 208.192 167.747 208.897 165.372C209.918 161.931 210.643 158.395 212.114 155.096C212.575 154.527 212.683 153.868 212.6 153.163C212.599 152.979 212.598 152.796 212.597 152.613C213.36 151.623 213.474 150.298 213.418 149.272C213.281 146.786 213.412 144.304 213.301 141.825C213.269 141.12 213.281 140.413 212.84 139.806C212.812 139.632 212.786 139.458 212.759 139.286C213.046 138.099 212.75 136.846 212.429 135.828C211.177 131.854 209.95 127.835 207.568 124.324C207.456 123.545 206.837 123.177 206.293 122.748C206.245 122.251 205.899 121.934 205.553 121.66C204.613 120.914 203.917 120.149 204.906 118.944C205.061 118.757 205.058 118.48 204.834 118.28C204.883 117.171 205.51 116.45 206.309 115.726C208.009 114.188 209.428 112.415 210.063 110.14C210.589 108.254 210.581 106.315 210.633 104.383C211.31 104.166 211.009 103.664 210.952 103.248C210.716 101.535 210.245 99.8329 210.741 98.0854C210.771 97.9767 210.612 97.8128 210.541 97.6751L210.591 97.1324C210.944 96.7887 211.05 96.3564 211.05 95.883C211.05 94.0926 211.2 92.2855 210.998 90.5188C210.885 89.5219 211.17 89.051 211.937 88.667C213.001 88.1348 213.292 87.258 213.04 86.1638C212.582 84.1708 211.091 83.1704 209.368 82.4032C209.255 82.3681 209.142 82.3331 209.03 82.298C209.026 82.0709 208.982 81.8815 208.687 81.9201L208.473 81.7307C207.553 80.6777 206.233 80.1323 205.033 79.7088C203.601 79.2029 202.264 78.4515 200.79 78.0684C200.771 77.658 200.677 77.3117 200.159 77.3266C200.101 77.2968 200.062 77.2495 200.043 77.1863C200.038 76.9794 200.034 76.7734 200.03 76.5673C200.118 75.5888 199.421 75.1066 198.781 74.5866C198.692 74.5823 198.603 74.5779 198.514 74.5726L198.519 74.5709C198.447 74.4692 198.375 74.3683 198.303 74.2666C198.284 74.2 198.266 74.1333 198.248 74.0667C198.259 73.7686 198.125 73.5959 197.818 73.5757C197.806 73.4591 197.795 73.3416 197.782 73.225C197.75 72.7954 197.533 72.4578 197.31 72.0966C196.435 70.6814 195.32 69.4758 194.226 68.2326C192.387 66.1414 190.297 64.3361 188.133 62.6229C187.364 62.0144 186.88 61.469 186.981 60.4923L186.974 60.4993C187.604 60.5238 188.021 60.067 188.538 59.8408C189.805 59.2884 190.319 57.932 191.438 57.2815C193.954 55.8181 195.467 53.6752 196.02 50.8336C196.027 50.7669 196.051 50.7073 196.089 50.653C196.288 50.4697 196.278 50.2391 196.237 50.0015C196.616 49.0081 196.394 47.9647 196.489 46.9468C196.533 46.4426 196.394 45.9709 196.295 45.4808C195.758 42.8302 193.691 41.4975 191.652 40.2586C189.716 39.0837 187.532 38.6199 185.239 39.1416L183.195 39.1653C182.923 38.847 182.6 39.0153 182.271 39.0364C180.291 39.1644 178.685 40.242 176.96 41.0416C175.576 41.6825 174.277 42.5085 173.388 43.6579C172.686 44.5645 172.181 44.5715 171.323 44.1796C170.308 43.7176 169.349 43.0266 168.198 43.0038C166.983 42.9802 165.934 42.4155 164.903 41.9771C162.674 41.0293 160.472 40.2393 157.999 40.4349C156.879 40.5234 155.745 40.4498 154.617 40.4498C153.374 40.4655 152.117 40.1894 150.893 40.6207C149.879 41.3344 148.662 41.2266 147.528 41.4519C147.089 41.0986 146.669 41.2722 146.25 41.494C144.772 42.2752 143.473 43.2616 142.577 44.7083L142.582 44.7039C142.411 44.718 142.24 44.732 142.068 44.7469C141.805 44.5373 141.853 44.8337 141.776 44.9266C141.686 45.0213 141.597 45.116 141.508 45.2107L141.438 45.2142C141.303 45.2107 141.167 45.2072 141.032 45.2046C140.916 45.0783 140.799 44.8828 140.684 45.2055C140.64 45.2809 140.597 45.3563 140.554 45.4317C140.375 45.5141 140.197 45.5956 140.018 45.678C138.693 45.8894 137.395 46.4505 136.138 45.2756C135.196 44.3944 134.071 43.6851 132.953 43.0275C132.477 42.7487 131.881 42.3182 131.224 42.7364C128.649 41.4791 125.779 41.1275 123.13 40.099C122.971 39.487 122.45 39.751 122.092 39.7071C120.812 39.5511 119.521 39.6887 118.229 39.5607C115.199 39.2617 112.154 39.4415 109.115 39.4616C108.975 39.4625 108.837 39.6159 108.697 39.6975L108.706 39.6896L108.51 39.8483C106.188 40.2025 103.863 40.5374 101.597 41.181C101.253 41.2441 100.794 41.067 100.683 41.6185L100.602 41.6974C97.3218 42.0937 94.7887 43.9192 92.3837 45.9893C91.6779 46.0647 91.129 45.7578 90.5784 45.3475C90.1049 44.995 89.6771 44.3787 88.9239 44.7504C88.7924 44.7188 88.6609 44.6873 88.5285 44.6557C86.8713 43.0766 84.8889 42.4725 82.6329 42.6908C82.4979 42.6654 82.3629 42.64 82.2279 42.6154C81.7868 41.9035 81.0372 42.035 80.3822 41.9789C77.402 41.7211 74.6542 43.0854 71.7292 43.2476C71.304 43.2713 71.0374 43.522 71.19 44.0113C71.1847 44.0674 71.154 44.0919 71.0979 44.0849C70.798 43.9552 70.6288 44.0586 70.5797 44.376C70.4754 44.4111 70.3702 44.4453 70.2658 44.4804C70.1212 44.533 69.9756 44.5864 69.8309 44.6391C69.7266 44.6733 69.6223 44.7074 69.5171 44.7416C68.322 44.9144 67.0954 45.0161 66.3317 46.1594C66.2878 46.198 66.237 46.2199 66.1791 46.226C66.08 46.2865 65.981 46.347 65.8819 46.4067C65.7328 46.5364 65.5838 46.6662 65.4338 46.796C65.2699 46.7986 65.0042 46.7372 64.9569 46.8126C64.2212 47.9796 63.298 49.0326 63.0367 50.4715C62.7027 52.3066 62.9718 54.0715 63.2165 55.8926C63.3988 57.2499 63.9801 58.0364 65.0489 58.6554C65.3032 59.7426 65.9827 60.4581 67.0068 60.8526C68.1624 61.298 69.0795 62.2362 70.343 62.4536C70.343 62.4536 70.3246 62.4545 70.3246 62.4554C70.5148 63.0727 70.8612 63.6803 71.4416 63.8609C73.2355 64.4194 73.1548 65.9135 73.3249 67.3084L73.3355 67.304C71.5924 68.101 71.0216 69.8485 70.0949 71.3066C69.3031 72.3956 68.3807 73.4082 68.0668 74.776L68.0134 74.8339C66.8621 75.6028 66.3913 76.7926 66.0274 78.0491L65.7574 78.5348C65.1594 78.8733 64.7947 79.4055 64.5351 80.0219C63.846 81.6544 62.9368 83.1722 62.1082 84.7328C61.4173 86.0349 60.6562 87.3185 60.5037 88.8353C59.4971 91.3429 58.4923 93.8514 57.4823 96.3573C56.9343 97.719 56.8168 99.2437 55.9224 100.474C55.5428 100.502 55.4665 100.79 55.4218 101.083C55.1737 102.703 54.6143 104.241 54.111 105.785C53.7848 106.786 53.7331 107.851 52.9747 108.798C52.6433 109.212 52.9493 110.524 52.9835 111.428C52.5275 111.878 52.56 112.469 52.4828 113.044C52.2031 115.125 52.0032 117.225 50.4679 118.894C49.7516 119.674 49.0923 120.534 48.952 121.653C47.0739 126.225 45.8481 130.997 44.6917 135.786C43.8061 139.452 43.2116 143.19 41.9359 146.759C41.9114 146.725 41.8903 146.672 41.8605 146.666C41.8325 146.66 41.779 146.697 41.7623 146.729C41.487 147.264 40.946 147.653 40.8952 148.311C40.804 148.386 40.7128 148.461 40.6207 148.537L40.6111 148.546C40.5313 148.622 40.4515 148.698 40.3717 148.773L40.3568 148.796C40.1297 149.149 39.9035 149.501 39.6764 149.854C39.5274 149.991 39.3433 150.105 39.2345 150.269C36.7129 154.065 34.079 157.796 32.2912 162.026L32.257 162.041C32.1939 162.097 32.1317 162.153 32.0685 162.209C31.5135 162.695 31.354 163.408 31.0287 164.024C29.8722 166.215 29.3873 168.684 28.2852 170.879C27.4821 172.479 27.1068 174.228 26.2686 175.797C26.1406 176.036 26.2028 176.281 26.4027 176.477C26.0397 177.335 25.6768 178.191 25.3138 179.049C25.2436 179.063 25.1919 179.103 25.1603 179.17C25.1314 179.256 25.1033 179.342 25.0744 179.429C24.1897 179.736 24.458 180.646 24.1275 181.243C23.8311 181.503 23.7706 181.887 23.604 182.217C22.9526 183.507 23.0604 185.048 22.3046 186.281C21.8618 187.002 21.825 187.663 22.1152 188.402C21.939 190.542 20.9035 192.467 20.5765 194.57C19.7409 194.942 19.3402 195.826 19.2516 196.501C18.9579 198.747 18.2539 200.904 17.9671 203.142C17.9031 203.639 17.1851 203.995 17.6576 204.601L17.6419 204.605C17.1561 204.596 17.0255 204.956 16.9062 205.321C15.5262 209.526 13.5087 213.48 12.1041 217.687C11.4649 219.601 11.1282 221.589 10.361 223.476C9.0958 226.588 8.50309 229.923 7.54213 233.141C7.36678 233.727 7.09585 234.329 7.54915 234.919C7.20632 238.189 5.30895 240.938 4.48039 244.045C3.76405 244.374 3.99553 245.124 3.8263 245.664C3.27393 247.425 2.43923 249.11 2.2779 250.985L2.28228 250.984Z" fill="#C0222A"/>
<path d="M210.629 104.382C210.577 106.315 210.585 108.254 210.059 110.139C209.424 112.414 208.006 114.187 206.306 115.726C205.506 116.449 204.879 117.17 204.83 118.278C203.989 119.657 204.101 120.901 205.168 122.011C205.425 122.277 205.7 122.526 205.967 122.782C206.416 123.517 206.855 124.26 207.531 124.82C207.508 125.183 207.753 125.431 207.908 125.722C209.685 129.055 211.053 132.548 211.985 136.208C212.245 137.232 212.077 138.364 212.756 139.284C212.783 139.458 212.81 139.632 212.837 139.804C212.676 139.89 212.611 140.019 212.623 140.206C212.889 144.045 213.174 147.885 212.414 151.708C212.355 152.009 212.231 152.373 212.595 152.613C212.596 152.796 212.598 152.979 212.598 153.161C212.073 153.715 211.976 154.375 212.113 155.095C210.641 158.394 209.916 161.93 208.895 165.371C208.19 167.747 207.398 170.088 206.362 172.328C204.593 176.152 203.463 180.203 201.984 184.13C201.838 184.518 201.651 184.916 202.135 185.232C203.959 186.42 205.647 187.817 207.604 188.8C208.474 189.945 209.751 190.612 210.812 191.533C212.075 193.296 213.594 194.83 215.114 196.364C215.52 196.774 215.9 197.235 216.549 197.257C216.736 197.363 216.923 197.468 217.11 197.574C217.181 197.642 217.254 197.708 217.327 197.776C217.458 197.871 217.587 197.967 217.716 198.062C217.66 198.371 217.816 198.443 218.085 198.39C218.117 198.451 218.166 198.496 218.229 198.522C218.742 199.924 220.007 200.758 220.816 201.942C221.82 203.414 222.81 204.909 224.372 205.892C225.78 206.778 226.767 208.04 227.516 209.512C227.794 210.058 228.042 210.649 228.64 210.955C228.64 210.955 228.656 210.992 228.656 210.993C229.376 212.286 230.525 213.207 231.523 214.253C231.99 214.743 232.32 215.467 233.128 215.561C233.575 215.836 234.022 216.11 234.468 216.385C234.584 216.982 235.091 217.284 235.514 217.57C236.703 218.376 237.745 219.322 238.628 220.447C239.593 221.678 240.878 222.521 242.151 223.381C242.374 223.556 242.598 223.732 242.82 223.908C243.759 225.292 245.127 226.2 246.445 227.165L246.442 227.159C246.84 228.136 247.65 228.824 248.263 229.645C248.625 230.129 248.876 230.881 249.688 230.912C249.785 231.002 249.881 231.092 249.978 231.182C250.243 231.578 250.358 232.128 250.978 232.162V233.416C250.247 233.189 249.744 232.734 249.273 232.105C246.559 228.477 243.179 225.496 239.695 222.652C237.845 221.142 236.399 219.243 234.526 217.757C233.28 216.769 231.805 216.125 230.674 214.983C228.678 212.965 226.797 210.861 225.372 208.386C224.988 207.719 224.408 207.263 223.799 206.803C222.442 205.78 221.247 204.624 220.256 203.185C218.919 201.241 217.416 199.432 215.388 198.05C213.71 196.908 212.378 195.277 211.125 193.658C209.288 191.284 206.728 189.85 204.297 188.251C203.597 187.791 202.937 187.29 202.272 186.791C201.299 186.062 200.822 186.152 200.323 187.208C199.168 189.645 197.399 191.651 195.661 193.654C194.459 195.039 193.333 196.515 192.022 197.778C189.362 200.339 186.887 203.162 183.452 204.783C181.992 205.472 180.652 206.368 179.055 206.828C177.096 207.391 175.142 207.584 173.125 207.569C169.111 207.539 165.083 207.77 161.084 207.513C157.626 207.29 154.171 207.905 150.729 207.322C145.192 206.385 139.584 205.849 134.175 204.214C129.994 202.951 125.816 201.657 121.583 200.584C118.564 199.819 115.396 199.724 112.396 198.784C111.202 198.411 110.001 198.031 108.777 197.79C102.099 196.479 95.8418 193.898 89.6262 191.275C86.0244 189.754 82.3813 188.224 78.9838 186.297C76.3841 184.823 73.78 183.297 71.318 181.57C70.7718 181.187 70.2106 180.735 70.7209 180.059C71.2391 179.372 71.8493 179.878 72.371 180.212C75.2785 182.074 78.1447 184.025 81.2608 185.515C86.2594 187.904 91.3351 190.126 96.4722 192.213C102.837 194.797 109.466 196.517 116.158 197.823C123.258 199.209 130.117 201.422 137.124 203.094C141.649 204.174 146.226 205.081 150.91 205.372C158.84 205.865 166.774 205.955 174.706 205.766C179.887 205.642 184.366 203.793 188.074 199.932C190.435 197.473 192.852 195.06 195.124 192.517C196.935 190.49 198.024 187.937 199.615 185.775C201.446 183.289 202.202 180.454 203.333 177.708C204.538 174.785 205.885 171.916 207.089 168.984C208 166.766 208.517 164.449 209.013 162.148C209.578 159.53 210.791 157.14 211.325 154.521C211.65 152.929 212.091 151.357 212.107 149.726C212.14 146.59 212.133 143.453 212.094 140.316C212.05 136.68 210.547 133.433 209.194 130.177C208.158 127.685 206.971 125.241 205.105 123.204C204.675 122.734 204.215 122.345 203.707 121.978C203.166 121.589 202.727 121.656 202.26 122.099C200.109 124.148 197.384 124.679 194.576 124.976C193.749 125.064 192.937 125.308 192.091 125.217C191.745 125.18 191.38 125.143 191.334 124.722C191.277 124.209 191.706 124.276 192.024 124.232C193.669 124.001 195.331 123.848 196.957 123.522C199.359 123.039 201.43 121.948 202.837 119.837C202.906 119.733 202.98 119.63 203.036 119.519C203.335 118.917 203.691 118.125 203.343 117.653C202.982 117.163 202.261 117.738 201.763 117.95C199.128 119.07 196.35 119.548 193.541 119.917C193.236 119.957 192.92 119.998 192.822 119.625C192.68 119.078 193.099 119.024 193.48 118.947C196.091 118.426 198.734 118.007 201.226 117.027C202.921 116.361 204.733 115.822 206.081 114.551C208.236 112.522 209.236 109.9 209.519 106.983C209.551 106.662 209.503 106.389 209.196 106.242C208.932 106.116 208.733 106.24 208.547 106.45C205.155 110.279 200.59 111.681 195.804 112.739C190.73 113.86 185.598 113.798 180.476 113.63C175.476 113.466 170.577 112.451 165.75 111.136C163.724 110.585 163.409 109.952 163.975 107.655C165.062 103.25 167.387 99.5861 170.525 96.3411C174.651 92.0738 179.646 89.2076 185.18 87.3567C190.264 85.6566 195.48 84.9438 200.717 87.0586C204.292 88.5018 206.914 90.8577 208.375 94.4578C208.624 95.0715 208.85 95.709 209.593 96.3113C209.593 94.9847 209.647 93.8107 209.581 92.6446C209.47 90.7165 210.14 88.6824 208.418 86.9981C206.98 85.5908 205.391 84.5203 203.535 83.8215C201.27 82.9701 198.89 82.1345 196.554 82.039C193.8 81.9258 190.977 81.8119 188.19 82.3002C184.113 83.0139 180.106 83.9398 176.425 85.8679C173.587 87.3541 170.778 88.9331 168.558 91.3355C168.325 91.5881 168.05 92.0247 167.635 91.624C167.198 91.2023 167.555 90.8481 167.869 90.5727C170.228 88.5097 172.68 86.5588 175.494 85.1542C178.819 83.4944 182.326 82.2836 185.971 81.5646C189.913 80.7869 193.877 80.6642 197.895 81.2113C200.554 81.5734 202.973 82.487 205.385 83.5304C207.072 84.2599 208.375 85.4812 209.604 86.799C209.801 87.0103 209.973 87.2637 210.21 87.4145C210.629 87.6828 211.077 87.7021 211.484 87.3462C211.918 86.9665 211.652 86.5702 211.475 86.2142C210.787 84.8175 209.557 83.9846 208.299 83.1656C205.037 81.0421 201.463 79.6637 197.662 78.9965C193.679 78.2977 189.659 78.1846 185.61 78.6765C182.747 79.0246 179.964 79.6348 177.208 80.4318C176.857 80.5335 176.405 80.758 176.279 80.2144C176.171 79.7479 176.627 79.5848 176.984 79.4814C179.885 78.6388 182.791 77.8505 185.82 77.541C189.831 77.1316 193.81 77.1719 197.769 77.9636C198.13 78.0355 198.424 78.0715 198.628 77.698C198.805 77.3736 198.785 77.0807 198.586 76.7589C195.746 72.1567 192.437 67.9832 188.131 64.618C186.798 63.5764 185.269 62.7522 184.161 61.4072C183.923 61.1188 183.437 61.0048 183.045 60.8768C179.962 59.8676 176.915 58.7164 173.641 58.4367C173.23 58.4016 172.769 58.363 172.432 58.1587C170.768 57.1513 168.945 57.2635 167.108 57.2118C162.705 57.0882 158.373 57.3565 154.112 58.6226C152.569 59.0811 150.895 59.0662 149.264 58.9654C148.998 58.9487 148.565 59.1066 148.521 58.7243C148.467 58.2491 148.936 58.2736 149.245 58.285C151.362 58.3578 153.388 57.773 155.383 57.2469C157.966 56.5665 160.553 56.4516 163.183 56.4779C165.639 56.5016 168.094 56.4639 170.55 56.485C172.2 56.499 173.639 57.3661 175.211 57.7388C177.431 58.2657 179.75 58.3692 181.895 59.2276C182.204 59.3512 182.579 59.3222 182.821 59.025C183.116 58.662 182.889 58.3297 182.725 57.9843C180.995 54.3614 178.143 51.7056 175.274 49.0095C173.504 47.3471 171.681 45.8942 169.381 45.1376C167.64 44.565 165.763 44.3221 164.162 43.4296C161.597 41.9995 158.864 42.0171 156.058 41.854C153.477 41.7032 150.995 41.9487 148.52 42.4721C147.142 42.7632 145.958 43.4173 144.924 44.5422C143.498 46.0915 141.534 46.949 139.471 47.3988C138.528 47.604 138.31 48.0441 138.721 48.7841C139.654 50.4649 140.28 52.1975 140.051 54.1606C140.03 54.343 140.121 54.6051 140.255 54.7287C142.433 56.7533 143.102 59.5651 144.131 62.1788C144.553 63.2503 145.497 63.8368 146.143 64.697C149.115 68.6522 151.545 72.8493 152.851 77.6769C153.356 79.5445 153.389 81.647 154.7 83.1911C156.041 84.7719 157.025 86.5535 157.951 88.358C159.417 91.2145 160.366 94.271 160.861 97.4529C160.917 97.8124 160.986 98.3165 160.552 98.4445C159.946 98.6234 159.91 97.9816 159.822 97.6511C159.279 95.5994 158.944 93.4986 158.18 91.4978C156.979 88.3589 155.399 85.4821 153.14 82.9561C149.758 79.1754 145.514 76.9264 140.642 75.9076C136.617 75.065 132.526 75.1044 128.47 75.8734C128.071 75.9488 127.381 75.9374 127.37 76.4977C127.359 77.0579 128.028 77.0404 128.439 77.1588C133.829 78.7089 138.981 80.8483 143.626 83.9828C146.967 86.237 150.074 88.8349 152.679 91.9826C153.529 93.0102 154.224 94.1641 155.168 95.104C156.442 96.3718 156.985 98.0667 157.759 99.5958C158.692 101.439 159.74 103.269 160.189 105.332C160.282 105.76 160.657 106.333 160.133 106.561C159.534 106.821 159.249 106.216 159.142 105.726C158.635 103.395 157.433 101.343 156.477 99.203C155.577 97.1846 154.181 95.431 152.808 93.6985C149.937 90.0712 146.523 87.0139 142.615 84.5615C139.653 82.7027 136.558 81.0684 133.26 79.8373C130.605 78.8466 127.849 78.2144 125.148 77.3929C123.154 76.7861 121.075 76.5441 119.008 76.3232C114.259 75.8164 109.494 76.0023 104.753 76.3626C101.658 76.5976 98.637 77.4367 95.6945 78.4511C92.1119 79.6857 88.7547 81.377 85.8394 83.8311C83.5571 85.753 81.6404 87.9967 80.505 90.7937C80.1288 91.7196 79.9105 92.9006 80.5743 93.6748C81.3493 94.5797 82.6049 94.7655 83.8131 94.6016C86.205 94.2772 87.6114 92.7033 88.297 90.5841C89.2615 87.6039 91.4324 85.7478 93.997 84.4396C97.2218 82.7939 100.692 81.6847 104.327 81.2674C107.811 80.8676 111.291 80.7036 114.809 81.0105C117.425 81.2384 120.067 81.3787 122.6 81.9942C125.507 82.7009 128.413 83.4523 131.259 84.4352C134.038 85.3953 136.608 86.7464 139.15 88.151C144.292 90.9918 148.611 94.7962 151.795 99.7667C153.712 102.76 155.171 105.982 155.863 109.507C156.01 110.251 156.409 110.779 157.197 110.992C158.128 111.244 158.992 111.622 159.679 112.359C160.767 113.528 160.552 115.322 159.252 116.264C157.393 117.609 155.303 118.513 153.104 118.902C150.743 119.319 149.278 120.517 148.135 122.55C146.384 125.665 143.596 127.778 140.746 129.866C136.937 132.659 132.616 134.437 128.462 136.556C127.603 136.994 126.725 137.375 125.796 137.638C125.457 137.733 125.085 137.851 124.915 137.467C124.713 137.007 125.218 136.901 125.462 136.786C127.826 135.669 130.261 134.692 132.57 133.476C136.609 131.35 140.774 129.355 143.956 125.957C145.368 124.449 147.081 123.173 147.932 121.169C148.437 119.978 148.483 120.06 147.146 119.962C145.204 119.819 143.35 120.465 141.427 120.473C139.592 120.481 137.758 120.54 135.922 120.635C133.901 120.74 131.843 120.519 129.827 120.247C127.141 119.884 124.421 120.004 121.746 119.479C117.463 118.637 113.219 117.695 109.113 116.171C104.511 114.463 100.342 112.037 96.6677 108.801C96.0066 108.219 95.2473 107.64 94.8308 106.794C94.7204 106.569 94.5687 106.33 94.7774 106.104C94.9939 105.87 95.2263 106.002 95.4481 106.143C95.6927 106.298 96.0303 106.38 96.1837 106.597C98.4195 109.745 101.765 111.386 105.017 113.162C110.104 115.94 115.661 117.187 121.286 118.246C128.136 119.535 135.054 119.73 141.978 119.423C146.675 119.214 151.341 118.548 155.821 116.969C156.856 116.605 157.813 116.108 158.615 115.36C159.704 114.342 159.301 112.886 157.89 112.386C156.922 112.044 156.082 111.871 155.027 112.279C152.112 113.407 149.093 114.248 145.991 114.675C142.381 115.172 138.734 115.194 135.137 114.641C129.019 113.7 123.173 111.734 117.489 109.353C113.729 107.777 109.943 106.237 106.313 104.361C100.797 101.512 95.0939 99.0601 89.4596 96.463C88.5504 96.0439 87.6052 95.7055 86.6934 95.2925C86.1769 95.0584 85.7429 95.2004 85.2546 95.381C83.5054 96.0299 80.1218 95.6283 79.2047 93.6915C78.8908 93.0286 78.7523 92.464 79.0022 91.7976C80.2525 88.4614 82.234 85.6908 84.9012 83.2796C88.0813 80.4046 91.9076 78.7931 95.7559 77.2473C98.1381 76.2907 100.765 76.0294 103.306 75.5691C106.548 74.9817 109.824 74.7186 113.107 74.8721C116.388 75.0255 119.683 75.1649 122.899 75.9312C123.503 76.075 124.042 76.0435 124.608 75.8304C127.724 74.6573 131.033 74.1233 134.277 74.1742C139.679 74.2592 144.97 75.236 149.493 78.5984C150.127 79.0702 150.802 79.4884 151.467 79.9154C151.695 80.0618 151.915 80.4248 152.215 80.1802C152.464 79.9767 152.312 79.6322 152.243 79.3507C151.394 75.9312 149.865 72.8099 148.204 69.7218C146.902 67.3045 145.152 65.2914 143.307 63.3081C142.256 62.1797 141.889 60.6129 141.145 59.2775C140.555 58.221 140.048 57.1206 139.2 56.2395C138.085 55.0821 136.728 54.4692 135.103 54.471C130.921 54.4754 126.737 54.4096 122.557 54.4876C118.686 54.5595 114.847 54.9786 111.013 55.595C108.98 55.9221 107.146 56.5419 105.376 57.4968C104.497 57.9702 103.746 58.6077 103.076 59.3407C102.291 60.1982 101.153 60.2876 100.161 60.6909C100.055 60.7339 99.8075 60.6383 99.7435 60.534C99.59 60.2823 99.711 59.9895 99.939 59.8886C102.118 58.9242 103.583 56.947 105.835 55.9966C109.042 54.6437 112.386 54.3324 115.752 53.9931C121.672 53.3952 127.611 53.8186 133.541 53.759C135.092 53.7432 136.662 53.3566 138.234 53.8949C138.733 54.0659 139.13 53.624 138.932 52.9305C138.575 51.6723 138.013 50.4737 137.298 49.4338C136.299 47.981 135.194 46.5886 133.721 45.4953C131.17 43.6041 128.16 42.9281 125.248 41.9601C123.072 41.2367 120.845 41.1376 118.579 41.1376C115.741 41.1376 112.904 40.9263 110.068 40.9342C107.208 40.943 104.497 41.7935 101.812 42.6948C100.705 43.0666 99.6199 43.5085 98.5002 43.832C96.7168 44.3476 95.4946 45.7592 93.9295 46.6281C93.1097 47.0832 92.8414 47.9792 93.5595 48.8736C93.741 49.0998 93.8918 49.3549 94.0356 49.6083C94.6984 50.7832 94.5108 51.596 93.2526 52.1273C90.3618 53.3478 87.5666 54.7279 84.9459 56.463C83.1783 57.6335 81.8544 59.2223 80.5637 60.8593C79.9228 61.6729 80.6988 61.6799 81.131 61.8667C75.5634 64.7005 72.6577 69.9296 69.4162 74.8151C66.5264 79.171 64.0792 83.7969 61.8382 88.5167C61.0938 90.0852 60.4993 91.7406 59.8926 93.382C59.263 95.0838 58.4853 96.7331 57.8611 98.4489C56.8098 101.34 56.0706 104.317 55.2096 107.262C54.5801 109.416 54.1128 111.608 53.7226 113.811C52.7099 119.531 52.2382 125.295 52.432 131.11C52.4513 131.7 52.8371 132.783 52.0015 132.809C51.1291 132.836 51.5008 131.736 51.4921 131.159C51.4447 128.107 51.4842 125.054 51.4938 122.001C51.8515 121.294 51.6858 120.563 51.7191 119.629C51.0712 120.384 50.617 120.972 50.432 121.722C49.8034 122.656 49.3115 123.649 48.9099 124.71C47.5667 128.263 46.5356 131.927 45.8578 135.634C45.3423 138.452 44.4225 141.154 43.8798 143.96C43.5939 145.437 43.4309 147.209 42.0806 148.357C42.0377 148.377 42.0017 148.407 41.9736 148.446C41.1179 148.919 40.9338 150.067 39.9746 150.436C39.8737 150.241 39.7738 150.046 39.6738 149.852C39.9009 149.499 40.1271 149.147 40.3533 148.794L40.3682 148.771C40.448 148.696 40.5278 148.62 40.6076 148.544L40.6181 148.535C40.7093 148.459 40.8005 148.384 40.8908 148.308C41.5037 147.97 41.8149 147.428 41.9333 146.756C43.2082 143.187 43.8035 139.448 44.6891 135.783C45.8455 130.994 47.0713 126.222 48.9494 121.651C50.7626 119.472 52.603 117.32 52.7204 114.256C52.7573 113.312 53.0159 112.377 53.1729 111.438C53.8191 109.402 54.0137 107.258 54.7388 105.232C55.2877 103.697 55.8778 102.144 55.9198 100.471C56.8142 99.2407 56.9317 97.7159 57.4797 96.3543C58.4888 93.8475 59.4936 91.3399 60.5011 88.8323C60.8351 88.6841 60.9535 88.3746 61.0859 88.0678C61.9565 86.052 63.0367 84.1424 64.0231 82.1845C64.6281 80.9842 65.5645 79.9294 65.7548 78.5318C65.8451 78.3696 65.9345 78.2083 66.0248 78.0461C66.8832 77.0956 67.7258 76.1355 68.0108 74.8309C68.0108 74.8309 68.0642 74.773 68.0634 74.7739C69.2979 73.9322 69.6162 72.4583 70.4377 71.3316C71.4679 70.0357 72.6297 68.8336 73.3329 67.3019L73.3223 67.3063C73.9659 67.109 74.179 66.4733 74.5639 66.0288C75.0391 65.4799 74.6419 65.2642 74.0922 65.2178L74.0816 65.2002C73.0558 63.9727 71.6617 63.2503 70.3211 62.4533C70.3211 62.4533 70.3395 62.4524 70.3386 62.4533C70.0835 61.7746 69.5136 61.4011 68.9086 61.1354C67.5031 60.5182 66.3361 59.6054 65.3208 58.4735C63.9065 56.5946 63.0832 54.5104 63.2849 52.1299C63.4532 50.1475 64.344 48.4246 65.4304 46.7956C65.5794 46.6658 65.7285 46.536 65.8767 46.4063C66.1169 46.5799 66.2011 46.4931 66.1748 46.2248C66.2326 46.2186 66.2835 46.1967 66.3264 46.1581C67.4549 45.8364 68.5289 45.3892 69.5127 44.7404C69.617 44.7062 69.7214 44.672 69.8257 44.6378C70.0028 44.6729 70.1729 44.6878 70.2606 44.4791C70.3649 44.444 70.4701 44.4098 70.5736 44.3748C70.9576 44.6553 70.9918 44.3107 71.0918 44.0837C71.1479 44.0907 71.1786 44.0661 71.1821 44.0091C72.8226 43.5146 74.527 43.2832 76.1815 42.8702C78.2017 42.3652 80.1972 42.4432 82.2209 42.6142C82.3559 42.6396 82.4909 42.665 82.6251 42.6896C84.3655 43.2577 86.2269 43.4725 87.8121 44.4993C88.0024 44.622 88.2821 44.6062 88.5206 44.6544C88.6521 44.686 88.7836 44.7176 88.9151 44.7474C89.7148 45.3234 90.5013 45.9197 91.3202 46.4676C91.6954 46.7184 92.1566 46.9999 92.4153 46.2923C94.609 45.0157 96.5029 43.2411 99.0026 42.4537C99.5252 42.2889 100.287 42.395 100.594 41.6953C100.594 41.6953 100.676 41.6164 100.675 41.6164C101.116 41.7567 101.389 41.5436 101.588 41.178C103.854 40.5344 106.179 40.1995 108.501 39.8453C108.566 39.7927 108.631 39.7392 108.697 39.6866L108.688 39.6945C113.504 39.6734 118.315 39.7734 123.12 40.096C125.77 41.1245 128.64 41.4761 131.215 42.7334C132.792 43.3095 134.014 44.4466 135.392 45.3401C136.102 45.8004 136.602 46.7675 137.527 46.6763C138.486 46.5825 139.512 46.4317 140.283 45.6952C140.372 45.6864 140.461 45.6777 140.55 45.6689C140.91 45.6443 141.204 45.4953 141.43 45.2121C141.43 45.2121 141.499 45.2086 141.5 45.2077C141.734 45.2305 141.962 45.2366 142.117 45.0122C142.304 44.9604 142.545 44.9876 142.573 44.7018L142.568 44.7062C143.467 44.6992 144.02 44.0503 144.481 43.462C145.289 42.43 146.307 41.8189 147.519 41.4489C148.653 41.2236 149.87 41.3314 150.884 40.6177C152.123 40.637 153.362 40.6563 154.601 40.6765C155.265 40.9395 155.955 40.9044 156.646 40.8536C158.055 40.8772 159.464 40.9 160.874 40.9237C164.474 42.6299 168.45 43.3296 172.03 45.0902C172.569 45.355 172.945 45.1533 173.311 44.6992C174.387 43.3656 175.661 42.2994 177.175 41.4279C179.076 40.3336 181.127 39.7646 183.187 39.1614C183.868 39.1535 184.549 39.1456 185.23 39.1377C186.056 39.2482 186.888 39.328 187.706 39.4735C191.207 40.0951 194.019 41.6707 195.555 45.0762C195.838 45.704 195.915 46.4501 196.48 46.942C196.386 47.9591 196.608 49.0024 196.228 49.9958C196.008 50.1738 196.033 50.4088 196.081 50.6482C196.041 50.7025 196.018 50.7622 196.011 50.8279C195.331 50.8051 195.389 51.3996 195.25 51.788C194.618 53.5539 193.677 55.1268 192.13 56.2035C190.282 57.4906 188.736 59.1241 186.965 60.4945L186.972 60.4875C186.164 60.8023 185.997 61.2994 186.658 61.8974C187.011 62.2174 187.336 62.569 187.702 62.882C190.033 64.8644 192.222 66.9915 194.26 69.2896C195.424 70.603 196.395 72.0971 197.772 73.2202C197.784 73.3368 197.796 73.4543 197.808 73.5709C197.847 73.8252 198.028 73.9567 198.238 74.0619C198.256 74.1286 198.275 74.1952 198.294 74.2627C198.261 74.439 198.302 74.5617 198.51 74.5661L198.505 74.5678C198.429 74.8072 198.494 74.9852 198.733 75.086L198.715 75.0948C198.704 75.1737 198.722 75.2456 198.768 75.3105C198.843 75.3947 198.919 75.4797 198.994 75.5639C199.084 75.6533 199.172 75.7419 199.262 75.8313L199.235 75.8243C199.234 76.0417 199.279 76.2355 199.501 76.3372L199.495 76.3258C199.519 76.4775 199.587 76.5845 199.759 76.5862L199.724 76.6222C199.827 76.8089 199.931 76.9948 200.034 77.1816C200.054 77.2447 200.093 77.2911 200.15 77.3218C200.263 77.57 200.376 77.8181 200.489 78.0662C200.68 79.0246 201.572 78.9553 202.218 79.2201C204.294 80.0714 206.381 80.8921 208.464 81.7251C208.535 81.7882 208.607 81.8513 208.678 81.9127C208.627 82.1871 208.764 82.2941 209.022 82.2923C209.135 82.3274 209.248 82.3625 209.36 82.3967C210.143 83.6277 211.561 84.2599 212.265 85.6005C212.973 86.9481 212.791 88.0134 211.355 88.4343C210.262 88.7552 210.201 89.2611 210.557 90.1168C210.559 91.8713 210.561 93.6266 210.563 95.381C210.479 95.9641 210.148 96.5498 210.584 97.1267C210.567 97.3074 210.55 97.4888 210.534 97.6695C209.493 99.9193 210.445 102.143 210.625 104.377L210.629 104.382ZM80.5506 58.4744C80.7961 58.4288 80.8592 58.2526 80.8689 58.036C81.1591 57.3924 81.8097 57.1364 82.2998 56.7085C82.5742 56.7515 82.7882 56.6314 82.9732 56.4499C84.0902 55.3548 85.4992 54.6972 86.803 53.8791C88.4031 52.8752 90.1365 52.1703 91.8577 51.4198C92.2662 51.2418 93.2307 51.2461 92.873 50.358C92.5354 49.5224 92.2127 48.6114 91.4762 48.031C89.037 46.1082 86.3944 44.5913 83.2932 43.9706C80.8548 43.4831 78.5007 43.4778 76.0272 44.0626C73.4547 44.6711 71.0015 45.5768 68.5386 46.4501C66.0047 47.3479 64.5536 49.3637 64.4098 52.044C64.3002 54.0878 64.7149 56.2456 66.1958 57.6897C68.7534 60.185 71.8774 62.0131 74.7015 64.2042C75.2741 64.6479 75.7887 64.5733 76.1973 63.9841C76.9251 62.9329 77.6326 61.8676 78.349 60.8084C78.7462 60.6208 79.046 60.3262 79.2775 59.9579C79.9596 59.6817 80.3358 59.1425 80.5541 58.4683L80.5497 58.4726L80.5506 58.4744ZM180.705 52.706C180.894 52.9208 181.094 53.1269 181.268 53.3522C182.164 54.5078 183.054 55.6687 183.946 56.8278C183.963 57.5888 184.726 58.0527 184.788 58.7462C184.941 60.4235 185.792 59.7922 186.572 59.3354C187.108 59.0206 187.58 58.5998 188.104 58.2622C189.266 57.5134 190.01 56.2859 191.232 55.5994C193.729 54.1974 194.411 51.5065 195.152 49.148C195.865 46.8789 194.673 44.6238 192.887 43.0052C190.163 40.5362 186.767 40.1223 183.301 40.4555C179.729 40.7992 176.702 42.3555 174.408 45.2042C173.816 45.9389 173.571 46.5562 174.528 47.2129C175.177 47.6583 175.689 48.3089 176.351 48.7289C177.585 49.511 178.307 50.8981 179.695 51.4776C180.116 51.6863 180.207 52.1641 180.508 52.4719C180.574 52.5508 180.639 52.6288 180.705 52.7078V52.706ZM134.913 92.8769C137.368 92.7717 139.84 93.1312 142.284 92.6534C142.593 92.5929 143.038 92.7998 143.18 92.4175C143.339 91.9888 142.847 91.9169 142.605 91.731C139.071 89.0217 135.118 87.0972 130.962 85.561C125.055 83.3778 118.948 82.2152 112.658 82.0898C110.288 82.0425 107.913 81.9583 105.539 82.3116C101.694 82.8842 97.8461 83.5085 94.4494 85.483C92.2426 86.7657 89.9822 88.1835 89.2966 90.9708C89.0528 91.9607 88.6091 92.8498 87.9516 93.6126C87.4518 94.1921 87.6876 94.4666 88.2523 94.7331C88.6512 94.9216 89.0633 94.9549 89.4763 94.9032C92.4083 94.5376 95.3604 94.3473 98.2906 94.0299C102.187 93.6082 106.096 93.3171 109.991 93.2215C118.295 93.0181 126.607 93.1812 134.913 92.8769ZM132.25 94.2246C136.555 100.469 136.636 106.654 132.385 112.901C132.56 112.948 132.709 113.001 132.863 113.025C137.121 113.687 141.387 114.048 145.689 113.466C148.29 113.114 150.851 112.579 153.312 111.675C155.081 111.026 155.021 110.953 154.609 109.155C153.321 103.546 150.347 98.9075 146.393 94.8383C145.863 94.2921 145.311 93.7625 144.381 93.8037C140.377 93.9808 136.371 94.0878 132.249 94.2246H132.25ZM193.109 111.972C193.727 111.994 194.279 112.015 194.848 111.858C196.684 111.351 198.566 111.046 200.375 110.404C203.127 109.427 205.608 108.053 207.617 105.91C208.777 104.67 209.385 103.233 209.05 101.489C208.898 100.695 208.631 100.193 207.664 100.113C206.689 100.033 205.708 99.7343 204.784 99.3871C201.988 98.3367 199.419 96.7681 196.56 95.844C193.872 94.9742 191.124 94.5762 187.998 94.3061C194.622 98.0965 196.744 105.012 193.111 111.973L193.109 111.972ZM176.895 92.6788C177.653 93.005 178.241 92.8875 178.806 92.8804C184.184 92.8112 189.536 92.9453 194.824 94.1316C197.41 94.7121 199.806 95.7274 202.13 96.9277C203.882 97.8325 205.656 98.5997 207.602 98.9838C208.553 99.1723 208.64 98.7172 208.478 98.0342C207.875 95.4836 206.868 93.0426 205.082 91.1611C202.719 88.6719 199.622 87.3725 196.185 87.1375C192.502 86.8858 188.869 87.2234 185.341 88.4343C182.38 89.4504 179.538 90.6806 176.894 92.6797L176.895 92.6788ZM178.42 94.0194C176.99 94.2105 175.404 93.5073 174.142 94.5349C171.643 96.57 169.439 98.904 167.69 101.638C166.254 103.882 165.375 106.329 164.943 108.953C164.854 109.496 165.073 109.75 165.518 109.888C166.667 110.243 167.804 110.734 168.981 110.873C170.136 111.008 171.231 111.759 172.469 111.318C169.338 105.042 171.001 97.8939 178.42 94.0194ZM109.285 94.3543C103.189 94.9593 97.2657 94.8637 91.0948 95.9641C96.3047 98.3876 101.174 100.653 106.178 102.982C106.317 99.7553 107.451 97.0303 109.285 94.3543ZM126.246 106.108C128.366 106.124 129.987 104.549 130.019 102.437C130.051 100.386 128.386 98.6655 126.35 98.648C124.368 98.6304 122.545 100.384 122.515 102.337C122.484 104.293 124.265 106.093 126.246 106.108ZM192.505 104.037C192.515 101.95 191.005 100.392 188.944 100.361C186.876 100.331 185.057 101.978 185.013 103.922C184.967 105.941 186.756 107.739 188.83 107.757C190.937 107.775 192.494 106.199 192.504 104.038L192.505 104.037ZM178.149 101.99C179.289 101.997 180.197 101.085 180.212 99.9158C180.228 98.7681 179.325 97.8492 178.165 97.8326C176.96 97.815 175.947 98.7628 175.944 99.9105C175.942 101.072 176.907 101.983 178.15 101.99H178.149ZM114.116 96.1105C112.854 96.1035 111.999 96.8514 111.953 98.0035C111.909 99.1048 112.975 100.151 114.111 100.121C115.249 100.092 116.214 99.153 116.217 98.0719C116.22 96.9628 115.314 96.1176 114.116 96.1105ZM116.467 103.697C116.52 103.086 115.852 102.507 114.979 102.503C114.13 102.5 113.403 103.041 113.417 104.08C113.43 105.051 113.883 105.649 114.915 105.673C115.954 105.696 116.406 105.122 116.468 103.697L116.467 103.697ZM180.361 106.931C180.375 106.152 179.565 105.29 178.855 105.254C178.161 105.219 177.177 106.13 177.159 106.828C177.138 107.598 177.989 108.448 178.81 108.372C179.694 108.291 180.248 107.775 180.361 106.931Z" fill="#1D1211"/>
<path d="M90.1152 250.984C90.7272 247.984 92.1275 245.321 93.8854 242.883C97.24 238.231 101.77 234.921 106.726 232.163C109.67 230.525 112.531 228.736 115.963 228.125C119.083 227.569 122.25 227.436 125.36 226.874C130.174 226.002 135.059 226.154 139.855 226.508C147.239 227.052 154.419 228.77 161.08 232.237C162.63 233.044 164.281 233.664 165.914 234.3C169.521 235.704 172.349 238.261 175.407 240.507C179.176 243.277 181.957 246.889 184.634 250.624C184.701 250.718 184.697 250.863 184.726 250.984H90.1161H90.1152Z" fill="#A67253"/>
<path d="M39.6776 149.854C39.7775 150.049 39.8775 150.244 39.9783 150.439C39.0787 152.598 37.6601 154.45 36.444 156.421C34.188 160.076 32.1425 163.833 30.8194 167.944C29.9119 170.764 28.623 173.43 27.5174 176.17C25.8366 180.335 24.1409 184.488 23.0528 188.873C22.0822 192.782 20.8582 196.629 19.7429 200.501C19.5009 201.34 19.4641 202.211 19.2256 203.062C17.9955 207.459 15.6562 211.402 14.1587 215.681C12.6883 219.884 11.431 224.155 10.2789 228.458C9.76419 230.381 8.933 232.245 8.62963 234.195C8.32538 236.152 8.01675 238.127 7.14523 239.848C5.4653 243.164 4.94799 246.829 3.65824 250.25C3.57231 250.478 3.57494 250.74 3.53636 250.985H2.7832C2.83406 250.661 2.87088 250.334 2.93752 250.014C3.35662 248 4.34301 246.132 4.4833 244.045C5.31098 240.938 7.20923 238.189 7.55206 234.919C8.19299 232.601 8.83129 230.284 9.47398 227.968C10.5726 224.009 11.715 220.059 13.1197 216.2C14.5383 212.303 16.362 208.56 17.6439 204.606L17.6597 204.603C18.4654 204.108 18.2918 203.213 18.4839 202.488C19.1835 199.85 19.6254 197.143 20.5785 194.572C20.9055 192.469 21.941 190.544 22.1173 188.404C22.8713 186.096 23.6253 183.787 24.3794 181.478C24.61 180.795 25.1711 180.224 25.0764 179.43C25.1054 179.344 25.1334 179.258 25.1615 179.173C25.2413 179.166 25.293 179.126 25.3149 179.052C25.6779 178.194 26.0409 177.337 26.4039 176.48C28.1592 172.191 29.9216 167.904 31.662 163.61C31.8426 163.164 32.2135 162.758 32.0697 162.212C32.1328 162.156 32.1951 162.1 32.2564 162.044C32.2547 162.044 32.2915 162.028 32.2915 162.028C34.0802 157.798 36.7132 154.067 39.2348 150.271C39.3435 150.107 39.5277 149.993 39.6767 149.855L39.6776 149.854Z" fill="#301512"/>
<path d="M230.399 250.984C228.589 246.978 226.805 242.96 224.423 239.242C223.64 238.019 222.957 236.727 222.295 235.432C221.926 234.71 221.532 233.995 220.868 233.559C218.589 232.065 217.445 229.735 216.266 227.439C215.083 225.135 213.923 222.856 211.705 221.3C210.977 220.789 210.484 219.943 209.874 219.259C209.565 218.914 209.556 218.501 209.567 218.08C209.574 217.777 209.603 217.475 209.976 217.402C210.324 217.334 210.537 217.538 210.655 217.829C211.314 219.445 212.569 220.489 213.937 221.497C214.905 222.21 215.579 223.279 216.149 224.339C217.27 226.422 218.294 228.556 219.553 230.564C219.914 231.14 220.335 231.666 220.955 231.961C222.116 232.514 222.822 233.536 223.397 234.57C226.313 239.815 229.251 245.051 231.764 250.509C231.832 250.658 231.86 250.826 231.907 250.986H230.401L230.399 250.984Z" fill="#1C110D"/>
<path d="M38.1686 250.984C38.0792 247.726 39.3137 244.851 40.4737 241.876C41.5644 239.079 42.8156 236.355 43.9712 233.592C46.0606 228.592 48.0965 223.552 51.1285 219.008C51.5441 218.385 51.8772 217.704 52.2113 217.032C52.4393 216.572 52.6558 215.961 53.2529 216.205C54.0262 216.521 53.4888 217.159 53.3204 217.597C52.7926 218.974 51.7904 220.083 51.0881 221.364C49.2004 224.807 47.6801 228.41 46.2088 232.053C44.4456 236.418 42.5754 240.746 40.5798 245.017C39.7127 246.872 39.2559 248.888 39.4242 250.984H38.1695H38.1686Z" fill="#1C110D"/>
<path d="M4.48482 244.045C4.34453 246.132 3.35815 247.999 2.93904 250.013C2.8724 250.334 2.83558 250.66 2.78473 250.985H2.2832C2.44366 249.109 3.27836 247.425 3.83161 245.663C4.00083 245.124 3.76936 244.374 4.4857 244.045H4.48482Z" fill="#A63D50"/>
<path d="M250.977 232.162C250.357 232.128 250.242 231.577 249.977 231.182C250.311 231.258 250.644 231.333 250.977 231.41V232.163V232.162Z" fill="#A63D50"/>
<path d="M195.097 166.488C194.924 168.855 194.821 171.229 194.562 173.586C194.123 177.584 191.605 180.561 189.4 183.672C188.369 185.129 187.46 186.744 186.033 187.822C183.837 189.483 181.112 189.935 178.559 190.821C174.891 192.093 171.081 191.79 167.361 192.377C162.774 193.101 158.11 193.412 153.432 192.828C151.335 192.566 149.185 192.836 147.147 191.989C143.532 190.489 139.792 189.265 136.344 187.403C134.862 186.602 133.369 185.711 132.146 184.489C130.906 183.25 129.71 181.965 128.224 180.998C127.649 180.625 127.35 179.99 127.012 179.419C125.538 176.927 124.532 174.385 124.385 171.346C124.154 166.616 124.397 161.964 126.044 157.577C128.128 152.031 129.704 146.169 133.796 141.595C135.597 139.582 137.714 137.898 139.926 136.323C141.595 135.135 143.464 134.329 145.203 133.281C148.069 131.552 151.229 130.804 154.591 130.308C157.824 129.831 160.969 130.614 164.179 130.142C165.998 129.873 167.968 130.328 169.882 130.06C170.66 129.951 171.452 129.953 172.242 129.854C174.611 129.559 176.623 130.625 178.289 132.081C181.572 134.95 184.809 137.892 187.586 141.28C189.795 143.975 191.213 147.064 191.975 150.453C192.986 154.958 193.999 159.463 194.947 163.982C195.114 164.782 194.971 165.647 194.971 166.482C195.013 166.484 195.055 166.485 195.097 166.486V166.488ZM193.982 166.65C193.982 166.023 194.154 165.334 193.953 164.781C193.028 162.236 192.894 159.512 192.06 156.937C191.36 154.776 191.378 152.41 190.652 150.239C189.52 146.852 188.017 143.665 185.589 140.949C182.966 138.015 180.117 135.327 176.988 132.974C175.809 132.087 174.32 131.117 172.784 131.334C168.851 131.891 164.904 131.47 160.977 131.78C159.155 131.924 157.345 131.554 155.511 131.756C152.418 132.096 149.358 132.308 146.606 134.105C143.611 136.06 140.255 137.369 137.46 139.755C135.252 141.64 133.396 143.699 132.016 146.19C131.265 147.546 130.604 148.951 130.084 150.461C129.419 152.392 129.087 154.502 127.765 156.213C127.332 156.773 127.211 157.6 127.026 158.324C126.485 160.448 125.901 162.562 125.724 164.764C125.526 167.242 125.046 169.696 125.499 172.206C126.062 175.325 127.261 178.086 129.664 180.233C130.375 180.867 131.048 181.548 131.736 182.192C133.244 183.605 134.768 185.125 136.682 185.946C139.531 187.167 142.355 188.451 145.262 189.561C148.588 190.83 151.906 191.379 155.432 191.624C157.76 191.786 160.018 191.512 162.292 191.43C165.21 191.325 168.121 190.855 171.038 190.574C172.905 190.395 174.835 190.301 176.696 189.767C179.815 188.872 183.051 188.56 185.631 186.081C188.301 183.514 190.188 180.49 191.904 177.32C193.697 174.009 193.861 170.318 193.981 166.651L193.982 166.65Z" fill="#1C110D"/>
<path d="M171.832 120.208C173.618 121.537 175.32 122.637 176.904 123.911C179.017 125.613 181.005 127.422 182.926 129.325C183.813 130.204 184.767 131.015 185.666 131.883C185.936 132.144 186.476 132.445 186.027 132.889C185.644 133.267 185.242 132.917 184.955 132.606C183.453 130.98 181.734 129.584 180.162 128.034C177.033 124.951 173.543 122.351 169.727 120.199C168.209 119.343 166.576 118.688 164.991 117.953C164.673 117.806 164.313 117.665 164.483 117.248C164.654 116.83 165.043 116.977 165.349 117.096C165.971 117.339 166.604 117.567 167.192 117.879C169.128 118.906 171.286 118.895 173.368 119.195C176.823 119.694 180.294 120.079 183.758 120.525C184.117 120.571 184.639 120.612 184.624 121.067C184.603 121.714 183.973 121.525 183.645 121.461C180.385 120.83 177.011 121.017 173.794 120.073C173.248 119.913 172.656 119.892 171.833 120.206L171.832 120.208Z" fill="#1D1211"/>
<path d="M50.4355 121.726C50.6205 120.974 51.0747 120.388 51.7227 119.632C51.6894 120.566 51.8551 121.297 51.4973 122.004C51.1668 121.824 50.8178 121.712 50.4355 121.726Z" fill="#6F462D"/>
<path d="M41.9766 148.449C42.0046 148.409 42.0406 148.38 42.0835 148.359C42.0827 148.359 42.0599 148.445 42.0599 148.445L41.9766 148.449Z" fill="#301512"/>
<path d="M183.193 39.1658C181.133 39.7691 179.083 40.3381 177.182 41.4323C175.668 42.3039 174.394 43.37 173.318 44.7036C172.952 45.1578 172.575 45.3595 172.037 45.0947C168.457 43.3341 164.481 42.6335 160.881 40.9282C159.479 40.4661 158.066 40.638 156.653 40.858C155.961 40.9089 155.271 40.944 154.607 40.6809C154.616 40.6046 154.619 40.5284 154.615 40.4512C155.743 40.4512 156.877 40.5249 157.997 40.4363C160.471 40.2408 162.672 41.0308 164.901 41.9786C165.931 42.417 166.981 42.9825 168.196 43.0053C169.347 43.0272 170.306 43.7181 171.321 44.1811C172.18 44.5721 172.684 44.566 173.386 43.6594C174.275 42.5099 175.574 41.684 176.958 41.043C178.684 40.2434 180.289 39.1658 182.269 39.0378C182.597 39.0168 182.922 38.8484 183.193 39.1667V39.1658Z" fill="#A2394B"/>
<path d="M17.6438 204.604C16.3619 208.558 14.5382 212.301 13.1196 216.198C11.7149 220.058 10.5725 224.007 9.47388 227.966C8.83119 230.282 8.19201 232.6 7.55196 234.917C7.09778 234.327 7.36959 233.725 7.54494 233.139C8.5059 229.922 9.09861 226.586 10.3638 223.474C11.131 221.588 11.4677 219.599 12.1069 217.685C13.5115 213.478 15.529 209.525 16.909 205.319C17.0283 204.954 17.1589 204.594 17.6447 204.603L17.6438 204.604Z" fill="#A63D50"/>
<path d="M197.779 73.2239C196.402 72.1008 195.431 70.6067 194.267 69.2933C192.229 66.9952 190.041 64.8681 187.709 62.8857C187.342 62.5736 187.018 62.2211 186.665 61.9011C186.003 61.3031 186.17 60.8051 186.979 60.4912C186.879 61.468 187.362 62.0124 188.131 62.6218C190.294 64.3351 192.384 66.1404 194.224 68.2315C195.318 69.4748 196.432 70.6813 197.307 72.0955C197.531 72.4567 197.748 72.7943 197.78 73.2239H197.779Z" fill="#A2394B"/>
<path d="M228.64 210.954C228.041 210.648 227.793 210.058 227.515 209.511C226.768 208.039 225.78 206.777 224.371 205.892C222.809 204.909 221.819 203.414 220.815 201.942C220.007 200.757 218.741 199.923 218.229 198.521C219.454 199.233 220.239 200.372 221.042 201.477C222.286 203.191 223.52 204.819 225.442 205.952C227.23 207.007 228.059 208.971 228.64 210.953L228.64 210.954Z" fill="#A2394B"/>
<path d="M212.756 139.285C212.077 138.364 212.246 137.233 211.985 136.208C211.053 132.548 209.685 129.055 207.909 125.723C207.753 125.432 207.508 125.184 207.531 124.82C207.542 124.655 207.554 124.49 207.566 124.324C209.947 127.834 211.175 131.853 212.427 135.827C212.748 136.844 213.044 138.097 212.756 139.285Z" fill="#A63D50"/>
<path d="M210.588 97.1314C210.153 96.5545 210.484 95.9688 210.568 95.3857C210.981 93.6304 210.99 91.8759 210.562 90.1215C210.207 89.2657 210.267 88.7598 211.36 88.4389C212.795 88.0181 212.977 86.9528 212.27 85.6052C211.566 84.2645 210.146 83.6333 209.365 82.4014C211.088 83.1694 212.58 84.1699 213.038 86.1628C213.29 87.2579 212.998 88.1347 211.935 88.666C211.168 89.0492 210.883 89.5209 210.996 90.5178C211.197 92.2845 211.048 94.0916 211.048 95.882C211.048 96.3563 210.942 96.7886 210.589 97.1314H210.588Z" fill="#A2394B"/>
<path d="M196.488 46.9465C195.924 46.4546 195.846 45.7085 195.562 45.0807C194.027 41.6744 191.214 40.0988 187.714 39.478C186.895 39.3325 186.063 39.2527 185.238 39.1422C187.531 38.6205 189.715 39.0843 191.651 40.2592C193.691 41.4973 195.757 42.8308 196.295 45.4814C196.394 45.9715 196.533 46.4432 196.488 46.9474V46.9465Z" fill="#A63D50"/>
<path d="M186.971 60.4992C188.742 59.1297 190.288 57.4953 192.136 56.2082C193.683 55.1306 194.624 53.5586 195.256 51.7927C195.395 51.4043 195.337 50.8107 196.017 50.8326C195.463 53.6752 193.952 55.8172 191.435 57.2814C190.316 57.9329 189.802 59.2884 188.536 59.8407C188.018 60.067 187.601 60.5238 186.972 60.4992H186.971Z" fill="#A2394B"/>
<path d="M32.0698 162.21C32.2136 162.755 31.8427 163.162 31.6621 163.608C29.9217 167.903 28.1594 172.189 26.404 176.478C26.2041 176.282 26.1419 176.038 26.2699 175.798C27.1081 174.228 27.4834 172.48 28.2865 170.88C29.3886 168.685 29.8735 166.216 31.03 164.025C31.3553 163.408 31.5148 162.695 32.0698 162.21Z" fill="#B44B5D"/>
<path d="M65.4362 46.7974C64.349 48.4265 63.459 50.1494 63.2907 52.1318C63.0881 54.5123 63.9123 56.5964 65.3266 58.4763C65.2345 58.5368 65.1433 58.5964 65.0513 58.6569C63.9833 58.0387 63.4012 57.2523 63.2188 55.8941C62.9742 54.073 62.705 52.308 63.039 50.4729C63.3012 49.0341 64.2236 47.9811 64.9592 46.8141C65.0066 46.7387 65.2722 46.8001 65.4362 46.7974Z" fill="#A63D50"/>
<path d="M212.595 152.613C212.232 152.373 212.355 152.01 212.415 151.708C213.174 147.885 212.889 144.046 212.623 140.206C212.61 140.019 212.676 139.891 212.837 139.805C213.279 140.412 213.267 141.119 213.298 141.824C213.41 144.303 213.279 146.785 213.416 149.271C213.472 150.297 213.359 151.622 212.594 152.612L212.595 152.613Z" fill="#A63D50"/>
<path d="M65.7596 78.5361C65.5693 79.9346 64.6329 80.9894 64.0279 82.1888C63.0415 84.1458 61.9622 86.0563 61.0907 88.0721C60.9583 88.3781 60.8399 88.6885 60.5059 88.8366C60.6584 87.3198 61.4195 86.0362 62.1104 84.7342C62.9389 83.1735 63.8482 81.6549 64.5373 80.0232C64.7969 79.4077 65.1616 78.8754 65.7596 78.5361Z" fill="#A63D50"/>
<path d="M55.9247 100.475C55.8818 102.148 55.2926 103.7 54.7437 105.236C54.0186 107.262 53.8239 109.406 53.1778 111.441C53.1138 111.441 53.0497 111.437 52.9857 111.429C52.9515 110.525 52.6455 109.213 52.977 108.799C53.7345 107.853 53.7871 106.787 54.1133 105.786C54.6166 104.241 55.176 102.703 55.4241 101.084C55.4688 100.791 55.546 100.503 55.9247 100.475Z" fill="#B44B5D"/>
<path d="M82.2282 42.6162C80.2055 42.4452 78.2099 42.3672 76.1889 42.8722C74.5344 43.2861 72.8299 43.5167 71.1894 44.0112C71.0378 43.5219 71.3043 43.2712 71.7295 43.2475C74.6536 43.0853 77.4024 41.7201 80.3826 41.9788C81.0367 42.0358 81.7872 41.9034 82.2282 42.6153V42.6162Z" fill="#A63D50"/>
<path d="M52.9846 111.429C53.0486 111.437 53.1126 111.441 53.1766 111.441C53.0197 112.38 52.761 113.316 52.7242 114.259C52.6058 117.322 50.7663 119.475 48.9531 121.654C49.0943 120.533 49.7528 119.674 50.4691 118.895C52.0043 117.224 52.2043 115.124 52.4839 113.045C52.5611 112.469 52.5295 111.879 52.9846 111.429Z" fill="#A63D50"/>
<path d="M140.29 45.6991C139.52 46.4356 138.494 46.5865 137.535 46.6803C136.61 46.7715 136.11 45.8035 135.4 45.344C134.021 44.4506 132.8 43.3134 131.223 42.7374C131.88 42.32 132.476 42.7496 132.952 43.0284C134.07 43.686 135.195 44.3954 136.137 45.2765C137.393 46.4523 138.692 45.8903 140.017 45.679C140.108 45.686 140.199 45.6921 140.29 45.6983L140.29 45.6991Z" fill="#A63D50"/>
<path d="M242.149 223.381C240.877 222.521 239.592 221.678 238.626 220.447C237.743 219.321 236.702 218.375 235.513 217.57C235.089 217.283 234.583 216.982 234.467 216.385C234.467 216.344 234.462 216.302 234.467 216.261C234.472 216.222 234.487 216.183 234.498 216.145C236.198 217.474 237.998 218.687 239.258 220.502C239.787 221.265 240.59 221.732 241.356 222.215C241.813 222.504 242.125 222.828 242.149 223.382V223.381Z" fill="#A63D50"/>
<path d="M20.5784 194.57C19.6253 197.143 19.1834 199.849 18.4838 202.487C18.2917 203.212 18.4653 204.107 17.6596 204.602C17.1879 203.996 17.9059 203.64 17.97 203.143C18.2567 200.904 18.9607 198.747 19.2545 196.501C19.343 195.827 19.7437 194.942 20.5793 194.57H20.5784Z" fill="#A63D50"/>
<path d="M208.471 81.7289C206.388 80.8959 204.3 80.0752 202.225 79.2239C201.579 78.9591 200.688 79.0275 200.496 78.07C200.593 78.0691 200.691 78.0683 200.788 78.0674C202.262 78.4505 203.599 79.2011 205.032 79.7079C206.231 80.1313 207.552 80.6767 208.471 81.7297V81.7289Z" fill="#A63D50"/>
<path d="M100.602 41.6982C100.296 42.3979 99.533 42.2927 99.0105 42.4567C96.5107 43.244 94.6169 45.0186 92.4223 46.2952C92.4091 46.1935 92.396 46.0918 92.3828 45.9901C94.7878 43.9192 97.3218 42.0946 100.601 41.6982H100.602Z" fill="#A2394B"/>
<path d="M216.549 197.257C215.9 197.235 215.52 196.774 215.114 196.365C213.595 194.83 212.075 193.297 210.812 191.534C210.819 191.432 210.824 191.33 210.83 191.229C211.902 191.586 212.258 192.676 212.976 193.392C214.215 194.628 215.6 195.748 216.549 197.257Z" fill="#A63D50"/>
<path d="M74.0983 65.2215C74.6481 65.268 75.0452 65.4837 74.57 66.0326C74.1851 66.4771 73.9721 67.1119 73.3285 67.3101C73.1584 65.9151 73.2391 64.4219 71.4452 63.8625C70.8638 63.6819 70.5175 63.0734 70.3281 62.457C71.6687 63.254 73.0628 63.9765 74.0887 65.2049C73.8213 65.311 73.4925 65.3706 73.6117 65.7844C73.6284 65.8432 73.7353 65.9265 73.7871 65.9177C74.229 65.8449 74.0299 65.4714 74.0992 65.2215H74.0983Z" fill="#A2394B"/>
<path d="M65.0508 58.6572C65.1428 58.5967 65.234 58.5371 65.3261 58.4766C66.3405 59.6076 67.5084 60.5212 68.9139 61.1376C69.5189 61.4033 70.0897 61.7768 70.344 62.4554C69.0805 62.238 68.1643 61.2989 67.0087 60.8535C65.9854 60.459 65.305 59.7435 65.0508 58.6563V58.6572Z" fill="#A2394B"/>
<path d="M123.129 40.0997C118.324 39.7761 113.513 39.6771 108.697 39.6981C108.837 39.6157 108.974 39.4631 109.115 39.4623C112.154 39.443 115.199 39.2623 118.229 39.5613C119.521 39.6893 120.811 39.5517 122.092 39.7078C122.45 39.7516 122.971 39.4877 123.13 40.0997H123.129Z" fill="#B44B5D"/>
<path d="M24.3798 181.476C23.6258 183.786 22.8717 186.095 22.1177 188.403C21.8284 187.663 21.8652 187.003 22.308 186.281C23.0637 185.048 22.955 183.508 23.6074 182.217C23.7739 181.888 23.8344 181.504 24.1308 181.243C24.2141 181.321 24.2974 181.398 24.3798 181.476Z" fill="#A63D50"/>
<path d="M210.631 104.381C210.451 102.147 209.499 99.9237 210.54 97.6738C210.61 97.8124 210.769 97.9754 210.739 98.0842C210.243 99.8316 210.714 101.533 210.95 103.247C211.007 103.662 211.308 104.165 210.631 104.381Z" fill="#A2394B"/>
<path d="M147.527 41.4539C146.315 41.8239 145.297 42.4351 144.488 43.467C144.028 44.0554 143.476 44.7042 142.576 44.7112C143.471 43.2645 144.771 42.2781 146.249 41.4969C146.668 41.2751 147.089 41.1015 147.527 41.4548V41.4539Z" fill="#A2394B"/>
<path d="M88.5283 44.6572C88.2899 44.6089 88.0093 44.6247 87.8199 44.502C86.2355 43.4752 84.3732 43.2604 82.6328 42.6923C84.8897 42.4748 86.8712 43.0781 88.5283 44.6572Z" fill="#A63D50"/>
<path d="M233.128 215.559C232.32 215.465 231.99 214.742 231.523 214.252C230.526 213.206 229.376 212.285 228.656 210.991C230.57 212.098 231.81 213.867 233.128 215.558V215.559Z" fill="#A63D50"/>
<path d="M73.3372 67.3057C72.634 68.8374 71.4723 70.0395 70.4412 71.3354C70.3254 71.3257 70.2106 71.317 70.0957 71.3082C71.0225 69.8501 71.5933 68.1035 73.3363 67.3057H73.3372Z" fill="#A2394B"/>
<path d="M249.686 230.912C248.873 230.88 248.623 230.128 248.261 229.644C247.648 228.823 246.838 228.136 246.439 227.158C247.877 228.102 249.077 229.252 249.685 230.913L249.686 230.912Z" fill="#A63D50"/>
<path d="M205.967 122.782C205.701 122.525 205.425 122.278 205.168 122.011C204.101 120.901 203.989 119.657 204.83 118.278C205.055 118.478 205.057 118.755 204.903 118.943C203.915 120.148 204.61 120.912 205.549 121.658C205.895 121.933 206.241 122.249 206.289 122.746C206.181 122.758 206.074 122.77 205.967 122.782H205.967Z" fill="#A63D50"/>
<path d="M246.444 227.165C245.127 226.199 243.757 225.292 242.818 223.907C244.289 224.703 245.641 225.628 246.444 227.165Z" fill="#A63D50"/>
<path d="M92.3826 45.9909C92.3957 46.0926 92.4089 46.1934 92.422 46.296C92.1634 47.0036 91.7013 46.7221 91.3269 46.4714C90.5071 45.9234 89.7206 45.3272 88.9219 44.7511C89.6759 44.3811 90.1047 44.9966 90.5773 45.35C91.1279 45.7603 91.6767 46.0672 92.3826 45.9918V45.9909Z" fill="#A63D50"/>
<path d="M210.829 191.229C210.823 191.33 210.818 191.432 210.812 191.534C209.751 190.612 208.473 189.946 207.604 188.801C208.407 188.891 209.011 189.344 209.555 189.891C209.99 190.326 210.405 190.782 210.829 191.229Z" fill="#A2394B"/>
<path d="M68.0152 74.835C67.7303 76.1396 66.8868 77.0997 66.0293 78.0501C66.3932 76.7937 66.864 75.6048 68.0152 74.835Z" fill="#A63D50"/>
<path d="M70.0964 71.3075C70.2112 71.3163 70.3261 71.3259 70.4418 71.3347C69.6203 72.4614 69.302 73.9361 68.0684 74.777C68.3831 73.4083 69.3055 72.3956 70.0972 71.3066L70.0964 71.3075Z" fill="#A63D50"/>
<path d="M69.5183 44.7422C68.5345 45.3919 67.4605 45.839 66.332 46.16C67.0957 45.0157 68.3232 44.9149 69.5183 44.7422Z" fill="#A63D50"/>
<path d="M205.969 122.783C206.077 122.771 206.184 122.759 206.291 122.747C206.835 123.176 207.454 123.544 207.567 124.324C207.556 124.489 207.544 124.655 207.532 124.82C206.856 124.26 206.418 123.517 205.969 122.782V122.783Z" fill="#A2394B"/>
<path d="M199 75.5689C198.924 75.4847 198.849 75.3997 198.773 75.3155C198.947 75.1972 198.914 75.1288 198.721 75.0998L198.738 75.0911C198.751 74.9227 198.765 74.7553 198.778 74.5869C199.417 75.106 200.115 75.5891 200.026 76.5676C199.927 76.5877 199.828 76.6079 199.729 76.6272L199.764 76.5913C199.676 76.5044 199.589 76.4176 199.501 76.3308L199.507 76.3422C199.519 76.1187 199.477 75.924 199.242 75.8293C199.242 75.8293 199.268 75.8363 199.267 75.8372C199.178 75.7478 199.089 75.6592 199 75.5698V75.5689Z" fill="#A2394B"/>
<path d="M24.3799 181.476C24.2966 181.398 24.2133 181.32 24.1309 181.243C24.4614 180.646 24.1931 179.736 25.0778 179.429C25.1725 180.222 24.6113 180.793 24.3807 181.476H24.3799Z" fill="#B44B5D"/>
<path d="M212.112 155.095C211.976 154.376 212.073 153.714 212.598 153.162C212.681 153.869 212.573 154.526 212.112 155.095Z" fill="#A63D50"/>
<path d="M41.939 146.76C41.8206 147.432 41.5094 147.974 40.8965 148.313C40.9482 147.654 41.4901 147.266 41.7654 146.731C41.782 146.699 41.8355 146.662 41.8636 146.668C41.8943 146.674 41.9144 146.728 41.939 146.761V146.76Z" fill="#301512"/>
<path d="M154.615 40.4525C154.619 40.5297 154.615 40.606 154.607 40.6823C153.368 40.663 152.13 40.6437 150.891 40.6235C152.115 40.1921 153.372 40.4683 154.616 40.4525H154.615Z" fill="#B44B5D"/>
<path d="M101.595 41.1816C101.395 41.5473 101.123 41.7594 100.682 41.62C100.792 41.0677 101.252 41.2448 101.595 41.1816Z" fill="#A2394B"/>
<path d="M200.788 78.0664C200.69 78.0673 200.593 78.0682 200.496 78.0691C200.382 77.8209 200.269 77.5728 200.156 77.3247C200.674 77.3098 200.768 77.6561 200.788 78.0664Z" fill="#A2394B"/>
<path d="M71.0983 44.0858C70.9983 44.3129 70.9641 44.6575 70.5801 44.3769C70.6301 44.0595 70.7984 43.9561 71.0983 44.0858Z" fill="#A63D50"/>
<path d="M209.028 82.2963C208.77 82.2981 208.633 82.1911 208.684 81.9167C208.98 81.8799 209.025 82.0701 209.028 82.2963Z" fill="#A63D50"/>
<path d="M141.437 45.2157C141.212 45.4989 140.917 45.648 140.558 45.6725C140.556 45.5927 140.554 45.5129 140.553 45.4331C140.597 45.3577 140.64 45.2823 140.682 45.2069C140.797 45.2069 140.914 45.2069 141.031 45.2061C141.166 45.2096 141.302 45.2131 141.437 45.2157Z" fill="#A63D50"/>
<path d="M66.1809 46.2275C66.2072 46.4958 66.1222 46.5818 65.8828 46.409C65.9836 46.3485 66.0818 46.288 66.1809 46.2275Z" fill="#A63D50"/>
<path d="M196.087 50.6533C196.04 50.4139 196.014 50.1798 196.234 50.001C196.275 50.2395 196.285 50.4692 196.087 50.6533Z" fill="#A2394B"/>
<path d="M218.083 198.39C217.815 198.443 217.658 198.371 217.714 198.062C217.838 198.172 217.96 198.282 218.083 198.39Z" fill="#A2394B"/>
<path d="M198.245 74.0672C198.035 73.9611 197.855 73.8304 197.814 73.5762C198.122 73.5963 198.255 73.7691 198.245 74.0672Z" fill="#A2394B"/>
<path d="M141.031 45.2064C140.915 45.2064 140.797 45.2064 140.682 45.2073C140.798 44.8847 140.915 45.0802 141.031 45.2064Z" fill="#A2394B"/>
<path d="M142.123 45.0173C141.968 45.2408 141.74 45.2356 141.506 45.2128C141.594 45.1181 141.684 45.0234 141.773 44.9287C141.868 44.9322 141.962 44.9357 142.056 44.9392L142.123 45.0173Z" fill="#A63D50"/>
<path d="M142.579 44.7069C142.551 44.9928 142.31 44.9656 142.123 45.0173L142.057 44.9393C142.062 44.8761 142.065 44.813 142.065 44.749C142.236 44.735 142.407 44.721 142.579 44.7061V44.7069Z" fill="#A63D50"/>
<path d="M140.551 45.4336C140.553 45.5134 140.555 45.5932 140.557 45.673C140.467 45.6817 140.379 45.6905 140.289 45.6993C140.198 45.6931 140.107 45.6861 140.016 45.68C140.194 45.5976 140.372 45.516 140.55 45.4336H140.551Z" fill="#A2394B"/>
<path d="M142.065 44.7482C142.065 44.8113 142.062 44.8753 142.057 44.9385C141.963 44.935 141.868 44.9314 141.773 44.9279C141.851 44.835 141.802 44.5386 142.065 44.7482Z" fill="#A2394B"/>
<path d="M70.2669 44.4814C70.1784 44.691 70.0083 44.6752 69.832 44.6401C69.9776 44.5867 70.1222 44.5341 70.2669 44.4814Z" fill="#A63D50"/>
<path d="M217.327 197.776C217.254 197.709 217.182 197.641 217.109 197.575C217.161 197.545 217.213 197.514 217.264 197.483C217.285 197.581 217.306 197.679 217.326 197.776H217.327Z" fill="#A2394B"/>
<path d="M198.78 74.5853C198.767 74.7537 198.754 74.9211 198.741 75.0895C198.501 74.9886 198.436 74.8115 198.513 74.5713C198.602 74.5757 198.691 74.5801 198.78 74.5853Z" fill="#A63D50"/>
<path d="M199.73 76.626C199.83 76.6059 199.929 76.5857 200.028 76.5664C200.032 76.7725 200.036 76.9785 200.041 77.1854C199.937 76.9995 199.834 76.8128 199.73 76.626Z" fill="#A63D50"/>
<path d="M40.3743 148.774C40.3743 148.774 40.3585 148.797 40.3594 148.797L40.3743 148.774Z" fill="#301512"/>
<path d="M32.2929 162.026C32.2929 162.026 32.2561 162.042 32.2579 162.042C32.2596 162.042 32.2929 162.026 32.2929 162.026Z" fill="#B44B5D"/>
<path d="M25.3155 179.049C25.2928 179.123 25.2419 179.165 25.1621 179.17C25.1946 179.103 25.2454 179.063 25.3155 179.049Z" fill="#B44B5D"/>
<path d="M198.517 74.5709C198.31 74.5657 198.269 74.4429 198.3 74.2676C198.372 74.3684 198.444 74.4701 198.517 74.5709Z" fill="#A63D50"/>
<path d="M108.704 39.6904C108.638 39.743 108.573 39.7965 108.508 39.8491C108.574 39.7965 108.639 39.743 108.704 39.6904Z" fill="#B44B5D"/>
<path d="M134.914 92.8764C126.609 93.1807 118.297 93.0176 109.993 93.221C106.096 93.3166 102.187 93.6077 98.2918 94.0294C95.3607 94.3468 92.4094 94.5371 89.4774 94.9027C89.0645 94.9544 88.6524 94.9211 88.2534 94.7326C87.6888 94.4661 87.4538 94.1916 87.9527 93.6121C88.6103 92.8493 89.0539 91.9602 89.2977 90.9703C89.9833 88.183 92.2437 86.7661 94.4506 85.4825C97.8472 83.508 101.695 82.8846 105.54 82.3111C107.915 81.9569 110.289 82.042 112.659 82.0893C118.949 82.2147 125.057 83.3773 130.964 85.5605C135.12 87.0967 139.072 89.0212 142.606 91.7305C142.849 91.9164 143.34 91.9883 143.182 92.417C143.04 92.8002 142.594 92.5924 142.285 92.6529C139.841 93.1307 137.37 92.7712 134.914 92.8764Z" fill="#6F462D"/>
<path d="M132.25 94.2239C136.373 94.0871 140.379 93.9801 144.382 93.803C145.312 93.7618 145.864 94.2923 146.394 94.8377C150.349 98.9068 153.323 103.545 154.61 109.154C155.023 110.951 155.082 111.024 153.313 111.675C150.853 112.579 148.291 113.113 145.69 113.465C141.388 114.047 137.121 113.685 132.865 113.024C132.71 113 132.561 112.946 132.386 112.9C136.637 106.653 136.557 100.468 132.251 94.2239H132.25Z" fill="#F9FAFA"/>
<path d="M78.3503 60.8088C77.634 61.868 76.9264 62.9333 76.1987 63.9846C75.7901 64.5747 75.2754 64.6492 74.7029 64.2047C71.8787 62.0136 68.7547 60.1855 66.1972 57.6901C64.7163 56.2452 64.3015 54.0874 64.4111 52.0445C64.5549 49.3641 66.006 47.3493 68.5399 46.4506C71.0028 45.5773 73.4561 44.6716 76.0286 44.0631C78.502 43.4782 80.8562 43.4835 83.2945 43.971C86.3957 44.5918 89.0384 46.1086 91.4776 48.0314C92.2141 48.6118 92.5368 49.5219 92.8743 50.3584C93.2321 51.2457 92.2667 51.2422 91.859 51.4202C90.1379 52.1707 88.4045 52.8757 86.8043 53.8796C85.5005 54.6976 84.0915 55.3544 82.9745 56.4503C82.7895 56.6318 82.5747 56.752 82.3011 56.709C83.5953 54.8221 85.4918 53.5911 87.2787 52.2707C89.0515 50.9608 89.0945 49.0117 87.1287 48.0042C85.4584 47.1485 83.6321 46.6584 81.7566 46.4506C78.6519 46.1069 76.1391 47.5071 73.884 49.3764C72.5241 50.504 71.9506 52.0962 72.4057 53.8919C72.8721 55.7287 73.7551 57.3762 74.809 58.9466C75.6665 60.2249 76.7537 60.9798 78.3512 60.8088H78.3503Z" fill="#6F462D"/>
<path d="M193.11 111.971C196.743 105.01 194.621 98.095 187.996 94.3047C191.124 94.5747 193.871 94.9728 196.559 95.8426C199.417 96.7676 201.987 98.3353 204.782 99.3857C205.706 99.7329 206.687 100.032 207.662 100.112C208.63 100.191 208.896 100.694 209.049 101.487C209.384 103.231 208.777 104.669 207.615 105.908C205.607 108.052 203.126 109.427 200.374 110.403C198.565 111.044 196.682 111.349 194.846 111.856C194.277 112.013 193.726 111.993 193.108 111.97L193.11 111.971Z" fill="#F3F3F4"/>
<path d="M176.896 92.6778C179.541 90.6796 182.383 89.4486 185.343 88.4324C188.872 87.2216 192.505 86.884 196.188 87.1356C199.625 87.3706 202.721 88.67 205.084 91.1592C206.869 93.0399 207.877 95.4818 208.481 98.0324C208.642 98.7163 208.556 99.1705 207.604 98.9819C205.659 98.597 203.885 97.8307 202.132 96.9259C199.809 95.7264 197.412 94.7102 194.827 94.1298C189.539 92.9435 184.186 92.8094 178.809 92.8786C178.244 92.8856 177.655 93.0031 176.897 92.677L176.896 92.6778Z" fill="#6F462D"/>
<path d="M78.3515 60.8088C76.754 60.9798 75.6668 60.2249 74.8093 58.9465C73.7554 57.3762 72.8725 55.7278 72.406 53.8918C71.9501 52.0962 72.5244 50.5039 73.8843 49.3764C76.1394 47.5071 78.6523 46.1068 81.757 46.4505C83.6324 46.6583 85.4597 47.1485 87.1291 48.0042C89.0957 49.0116 89.0519 50.9607 87.279 52.2706C85.4921 53.5911 83.5956 54.823 82.3015 56.709C81.8105 57.1368 81.1608 57.392 80.8697 58.0355C80.611 58.0706 80.5488 58.2495 80.5514 58.4739L80.5558 58.4695C79.8 58.6835 79.3835 59.1868 79.2792 59.9592C79.0477 60.3275 78.7479 60.6221 78.3507 60.8097L78.3515 60.8088Z" fill="#B77A54"/>
<path d="M179.698 51.474C178.31 50.8945 177.586 49.5074 176.353 48.7253C175.692 48.3053 175.179 47.6547 174.531 47.2093C173.573 46.5526 173.819 45.9354 174.411 45.2006C176.705 42.3519 179.733 40.7956 183.304 40.4519C186.769 40.1179 190.166 40.5326 192.89 43.0016C194.676 44.6202 195.867 46.8753 195.154 49.1444C194.414 51.5021 193.731 54.193 191.234 55.5958C190.012 56.2824 189.269 57.5107 188.107 58.2586C187.583 58.5962 187.111 59.0171 186.574 59.3318C185.796 59.7886 184.943 60.4208 184.791 58.7426C184.728 58.05 183.965 57.5853 183.948 56.8242C184.714 56.1201 185.823 55.8396 186.402 54.9224C187.864 52.6112 189.128 50.2343 188.782 47.34C188.713 46.7639 188.5 46.3334 188.132 45.9038C185.078 42.3248 180.97 42.7579 177.519 44.8376C176.165 45.653 176.042 47.1138 177.101 48.3457C177.671 49.0076 178.303 49.6161 178.895 50.2597C179.226 50.6192 179.69 50.898 179.697 51.4732L179.698 51.474Z" fill="#6F462D"/>
<path d="M179.697 51.4744C179.689 50.8992 179.226 50.6204 178.896 50.2609C178.304 49.6173 177.672 49.0097 177.102 48.3468C176.043 47.115 176.166 45.6551 177.519 44.8388C180.97 42.7591 185.078 42.3259 188.133 45.905C188.499 46.3346 188.713 46.7651 188.783 47.3412C189.129 50.2354 187.864 52.6115 186.403 54.9236C185.823 55.8399 184.714 56.1213 183.949 56.8254C183.057 55.6672 182.167 54.5063 181.271 53.3507C181.097 53.1253 180.897 52.9193 180.708 52.7054C180.643 52.6265 180.577 52.5484 180.511 52.4695C180.211 52.1618 180.12 51.6839 179.698 51.4752L179.697 51.4744Z" fill="#B77A54"/>
<path d="M178.421 94.0185C171.001 97.893 169.338 105.041 172.469 111.317C171.231 111.759 170.138 111.007 168.981 110.872C167.804 110.734 166.666 110.242 165.518 109.887C165.074 109.75 164.854 109.496 164.943 108.952C165.375 106.328 166.254 103.882 167.69 101.637C169.439 98.903 171.644 96.569 174.142 94.534C175.404 93.5064 176.991 94.2096 178.421 94.0185Z" fill="#F3F3F4"/>
<path d="M109.286 94.3535C107.452 97.0295 106.318 99.7545 106.179 102.981C101.174 100.652 96.3056 98.3876 91.0957 95.9633C97.2665 94.8629 103.19 94.9585 109.286 94.3535Z" fill="#F3F3F4"/>
<path d="M126.248 106.107C124.266 106.092 122.485 104.292 122.516 102.337C122.547 100.384 124.37 98.6301 126.351 98.6476C128.387 98.6651 130.052 100.385 130.02 102.437C129.988 104.547 128.368 106.124 126.248 106.107Z" fill="#F3F3F4"/>
<path d="M192.506 104.036C192.495 106.198 190.938 107.774 188.831 107.756C186.758 107.737 184.969 105.941 185.015 103.92C185.058 101.977 186.878 100.329 188.945 100.36C191.007 100.39 192.516 101.949 192.507 104.035L192.506 104.036Z" fill="#F3F3F4"/>
<path d="M178.149 101.99C176.906 101.982 175.941 101.072 175.943 99.9103C175.946 98.7625 176.959 97.8147 178.164 97.8323C179.324 97.8489 180.227 98.7678 180.212 99.9155C180.196 101.085 179.288 101.997 178.148 101.99H178.149Z" fill="#EDEDEE"/>
<path d="M114.118 96.1104C115.316 96.1174 116.222 96.9626 116.219 98.0718C116.217 99.1529 115.252 100.092 114.113 100.121C112.976 100.15 111.91 99.1046 111.954 98.0034C112.001 96.8513 112.855 96.1034 114.118 96.1104Z" fill="#EDEDEE"/>
<path d="M116.467 103.696C116.405 105.121 115.954 105.696 114.915 105.672C113.884 105.648 113.43 105.05 113.416 104.078C113.402 103.039 114.129 102.498 114.978 102.502C115.852 102.505 116.52 103.085 116.467 103.695L116.467 103.696Z" fill="#EDEDEE"/>
<path d="M180.361 106.93C180.248 107.774 179.694 108.29 178.81 108.372C177.989 108.447 177.138 107.597 177.159 106.828C177.178 106.13 178.161 105.218 178.855 105.253C179.564 105.289 180.375 106.151 180.361 106.93Z" fill="#EDEDEE"/>
<path d="M210.562 90.1211C210.99 91.8755 210.982 93.63 210.569 95.3853C210.567 93.6309 210.565 91.8755 210.562 90.1211Z" fill="#B44B5D"/>
<path d="M156.652 40.8588C158.066 40.6388 159.478 40.4669 160.88 40.929C159.471 40.9053 158.061 40.8825 156.652 40.8588Z" fill="#B44B5D"/>
<path d="M79.2793 59.9594C79.3836 59.1878 79.8001 58.6837 80.5559 58.4697C80.3376 59.1431 79.9614 59.6823 79.2793 59.9594Z" fill="#6F462D"/>
<path d="M80.5509 58.4736C80.5482 58.2491 80.6096 58.0702 80.8691 58.0352C80.8595 58.2517 80.7964 58.4288 80.5509 58.4736Z" fill="#6F462D"/>
<path d="M199.242 75.8281C199.479 75.9219 199.52 76.1175 199.508 76.341C199.285 76.2393 199.24 76.0464 199.242 75.8281Z" fill="#A63D50"/>
<path d="M180.51 52.4697C180.576 52.5486 180.641 52.6275 180.707 52.7056C180.641 52.6267 180.576 52.5478 180.51 52.4697Z" fill="#6F462D"/>
<path d="M198.722 75.0986C198.916 75.1276 198.948 75.196 198.775 75.3143C198.728 75.2494 198.711 75.1775 198.722 75.0986Z" fill="#A63D50"/>
<path d="M199 75.5684C199.089 75.6578 199.178 75.7463 199.267 75.8358C199.179 75.7463 199.089 75.6578 199 75.5684Z" fill="#A63D50"/>
<path d="M199.502 76.3301C199.59 76.4169 199.677 76.5037 199.765 76.5905C199.593 76.5887 199.525 76.4818 199.502 76.3301Z" fill="#A63D50"/>
<path d="M193.982 166.651C193.862 170.317 193.698 174.009 191.905 177.319C190.188 180.49 188.301 183.514 185.631 186.08C183.051 188.561 179.816 188.872 176.697 189.766C174.836 190.3 172.905 190.394 171.038 190.574C168.122 190.854 165.21 191.324 162.292 191.43C160.018 191.512 157.76 191.785 155.432 191.623C151.906 191.378 148.587 190.83 145.262 189.56C142.355 188.45 139.531 187.167 136.682 185.945C134.768 185.125 133.245 183.604 131.736 182.192C131.048 181.547 130.375 180.867 129.664 180.232C127.261 178.087 126.062 175.325 125.499 172.205C125.046 169.696 125.526 167.242 125.725 164.764C125.901 162.561 126.485 160.447 127.027 158.324C127.212 157.599 127.332 156.773 127.765 156.213C129.087 154.503 129.419 152.392 130.084 150.461C130.604 148.951 131.264 147.546 132.016 146.189C133.396 143.699 135.252 141.64 137.46 139.754C140.255 137.369 143.611 136.06 146.606 134.104C149.358 132.308 152.418 132.096 155.511 131.755C157.345 131.554 159.156 131.925 160.977 131.78C164.904 131.47 168.851 131.89 172.784 131.334C174.32 131.116 175.809 132.087 176.988 132.973C180.117 135.327 182.967 138.015 185.589 140.949C188.017 143.665 189.521 146.851 190.653 150.238C191.378 152.41 191.36 154.775 192.061 156.937C192.895 159.512 193.028 162.234 193.953 164.78C194.154 165.334 193.983 166.023 193.983 166.65L193.982 166.651ZM162.324 137.804C160.151 137.804 158.39 137.733 156.638 137.827C155.271 137.901 153.836 138.054 152.865 139.201C151.041 141.354 150.976 145.373 152.791 147.595C154.963 150.253 157.286 152.76 160.788 153.705C161.625 153.93 161.934 154.462 161.907 155.375C161.778 159.756 161.72 164.14 161.637 168.523C161.633 168.69 161.641 168.86 161.611 169.022C161.515 169.529 161.206 169.837 160.694 169.914C157.86 170.343 155.005 170.226 152.284 169.463C148.955 168.53 145.444 168.373 142.226 167.012C141.925 166.885 141.519 166.786 141.391 167.237C141.277 167.64 141.614 167.845 141.934 167.961C142.64 168.214 143.344 168.49 144.071 168.658C146.338 169.181 148.665 169.498 150.876 170.192C154.006 171.175 157.132 171.373 160.359 170.973C161.34 170.851 162.309 170.573 163.336 170.705C167.93 171.297 172.408 171.159 176.484 168.53C177.816 167.67 179.128 166.788 180.372 165.805C180.672 165.567 180.825 165.225 180.634 164.926C180.366 164.507 180.01 164.852 179.781 165.024C179.181 165.474 178.527 165.841 177.915 166.272C174.965 168.349 171.908 170.198 168.066 169.94C166.942 169.865 165.808 169.922 164.679 169.918C162.917 169.912 162.73 169.643 162.624 167.883C162.408 164.28 163.309 160.752 163.22 157.147C163.178 155.503 163.481 153.768 165.37 152.854C168.344 151.417 170.493 149.147 172.058 146.193C173.951 142.615 172.485 138.987 168.529 138.032C166.342 137.504 164.113 137.97 162.326 137.803L162.324 137.804Z" fill="#482D1B"/>
<path d="M74.0966 65.2217C74.0274 65.4716 74.2273 65.8451 73.7845 65.9179C73.7328 65.9267 73.6258 65.8434 73.6091 65.7846C73.4899 65.3708 73.8187 65.3112 74.0861 65.2051L74.0966 65.2217Z" fill="#C0222A"/>
<path d="M162.325 137.804C164.112 137.972 166.341 137.505 168.528 138.033C172.483 138.988 173.95 142.616 172.056 146.194C170.493 149.148 168.344 151.418 165.369 152.855C163.479 153.769 163.177 155.504 163.218 157.148C163.309 160.752 162.407 164.28 162.623 167.883C162.729 169.644 162.916 169.913 164.677 169.919C165.807 169.923 166.94 169.866 168.064 169.941C171.907 170.199 174.964 168.35 177.914 166.273C178.526 165.842 179.18 165.475 179.78 165.025C180.009 164.853 180.366 164.508 180.633 164.927C180.825 165.227 180.672 165.568 180.371 165.805C179.127 166.789 177.815 167.67 176.482 168.53C172.407 171.16 167.929 171.297 163.335 170.706C162.308 170.573 161.339 170.852 160.357 170.974C157.131 171.374 154.006 171.176 150.875 170.193C148.665 169.498 146.337 169.182 144.07 168.658C143.343 168.49 142.638 168.215 141.933 167.961C141.612 167.846 141.276 167.641 141.39 167.238C141.518 166.786 141.924 166.885 142.225 167.013C145.443 168.373 148.954 168.53 152.283 169.464C155.004 170.227 157.859 170.343 160.693 169.915C161.206 169.838 161.514 169.53 161.61 169.023C161.64 168.861 161.632 168.69 161.636 168.523C161.719 164.141 161.777 159.757 161.906 155.376C161.933 154.463 161.623 153.931 160.787 153.706C157.285 152.76 154.962 150.254 152.79 147.595C150.975 145.374 151.04 141.354 152.864 139.202C153.835 138.055 155.269 137.901 156.637 137.828C158.389 137.734 160.15 137.805 162.323 137.805L162.325 137.804Z" fill="#080505"/>
</g>
<defs>
<clipPath id="clip0_756_3905">
<rect width="250" height="250" rx="125" fill="white"/>
</clipPath>
</defs>
</svg>
