<svg width="250" height="250" viewBox="0 0 250 250" fill="none" xmlns="http://www.w3.org/2000/svg">
<rect width="250" height="250" rx="125" fill="#5A8A3E"/>
<path d="M75.911 88.3729C82.4112 87.912 88.7239 88.1385 94.1147 90.8183C100.857 94.17 107.982 97.0997 113.678 102.326C117.904 106.209 124.022 105.194 128.327 101.467C132.186 98.131 135.96 94.0762 140.522 92.0918C149.866 88.0291 158.171 82.0993 167.718 78.3648C173.781 75.9897 179.531 72.4896 186 71.5833C195.29 70.2786 204.751 69.7083 211.868 77.9273C213.142 79.4039 214.775 81.1461 214.181 82.9509C212.517 88.0448 212.978 93.4121 211.743 98.5217C210.087 105.327 207.321 110.85 198.891 111.147C196.126 111.241 193.227 113.178 190.915 114.663C184.625 118.686 177.953 120.585 170.664 121.436C164.437 122.155 158.335 123.89 152.031 124.241C144.226 124.679 136.905 122.944 130.069 119.264C126.452 117.319 123.702 117.671 120.858 120.858C116.311 125.96 109.982 128.585 103.646 130.023C94.3022 132.156 84.9894 135.085 75.1531 134.398C65.5825 133.734 56.2854 131.554 47.582 127.819C43.0037 125.851 39.2067 121.851 35.3941 118.397C32.5815 115.858 32.8159 112.749 34.7456 109.397C41.0036 98.5295 50.9414 92.6699 62.4418 89.3495C66.7935 88.0916 71.6062 87.6854 75.9266 88.3651L75.911 88.3729ZM77.7548 127.655C74.3406 124.062 72.2155 119.874 71.9265 114.85C72.7937 114.069 72.7937 113.28 71.9265 112.499C72.0749 111.772 72.2234 111.038 72.3718 110.311C73.5906 109.733 73.7468 108.561 73.0828 107.78C72.1062 106.639 71.0593 107.366 70.2702 108.35C67.0279 110.21 63.3871 111.624 60.6449 114.046C57.2854 117.014 53.7697 119.468 49.6445 121.093C48.6445 121.483 47.4648 121.952 47.4492 123.046C47.4335 124.226 48.7383 124.624 49.7148 124.843C59.1605 126.913 68.2467 130.788 78.1532 130.53C79.6923 131.515 81.8799 131.866 82.4346 130.249C83.0206 128.538 80.5439 128.374 79.247 127.773C78.8251 127.577 78.2548 127.687 77.7548 127.655ZM76.8798 93.1074C68.2779 92.7246 60.1683 92.7715 52.7384 96.9122C50.4961 98.1623 48.2851 99.467 46.0272 100.678C42.3709 102.639 37.9567 110.827 38.3395 114.952C38.4411 116.007 38.3395 117.218 39.8552 117.132C44.6288 116.858 49.5273 118.288 53.9337 114.624C60.1761 109.428 67.5279 106.092 74.8094 102.451C84.8253 97.4357 93.3568 99.3498 102.201 104.155C104.154 105.217 106.123 106.147 108.381 106.233C109.326 106.272 110.24 106.147 110.646 105.123C111.045 104.108 110.521 103.178 109.771 102.756C104.834 99.9826 100.084 96.5919 94.7944 94.8184C88.9895 92.873 82.6846 92.3262 76.8798 93.1074ZM188.797 86.8182C183.313 87.8729 178.805 90.8261 173.898 92.7637C172.187 93.4434 173.226 94.7247 173.836 95.6466C176.844 100.178 178.086 104.936 176.563 110.381C175.781 113.178 178.586 115.53 181.516 114.819C184.055 114.21 186.422 113.147 188.532 111.585C191.407 109.467 194.821 108.608 198.149 107.827C203.665 106.538 207.103 103.514 208.22 98.0138C208.868 94.8106 207.907 92.6074 204.337 92.2246C201.805 91.9511 199.821 90.3105 197.501 89.5292C194.579 88.5448 191.618 87.6776 188.789 86.8025L188.797 86.8182ZM193.79 75.8178C188 75.9038 182.211 75.4194 176.594 77.7398C165.172 82.4508 154.562 88.8182 143.288 93.8184C141.874 94.4434 140.343 94.9903 139.171 95.9435C137.991 96.9044 137.522 98.881 139.53 99.0529C145.874 99.5998 152.171 99.3811 157.578 95.1622C161.57 92.0449 165.875 89.2636 170.906 88.4042C175.031 87.701 178.969 86.5682 182.617 84.6853C186.203 82.8337 189.446 82.7009 193.313 84.0056C197.633 85.4588 201.712 88.2245 206.618 87.5057C207.563 87.3651 208.892 87.9276 209.189 86.4432C210.181 81.5133 208.642 76.1303 202.36 75.8413C199.509 75.7085 196.641 75.8178 193.782 75.8178H193.79ZM159.726 114.905C164.382 114.882 164.711 114.342 162.843 110.506C162.336 109.459 162 108.319 161.39 107.334C159.453 104.217 156.71 105.522 154.562 106.686C152.523 107.788 152.921 109.803 154.054 111.756C155.452 114.186 157.304 115.358 159.734 114.897L159.726 114.905ZM113.178 117.405C113.693 118.554 111.998 120.538 113.49 121.132C115.084 121.765 116.42 119.944 117.67 118.866C118.553 118.108 119.42 117.319 120.194 116.452C121.24 115.272 121.381 113.897 120.74 112.46C120.162 111.178 119.115 111.147 117.842 111.116C112.896 110.991 112.904 110.928 113.186 115.671C113.217 116.186 113.186 116.71 113.186 117.405H113.178ZM136.171 117.491C136.311 114.28 135.546 111.077 136.389 107.92C136.718 106.694 135.866 106.147 134.858 106.35C132.694 106.78 130.608 107.444 129.6 109.756C127.967 113.514 130.038 116.03 136.171 117.491ZM166.117 95.3497C163.632 95.7794 161.304 96.4591 161.07 99.3654C160.906 101.326 162.671 102.42 164.132 101.998C166.429 101.334 169.789 101.264 170.125 98.1232C170.367 95.8497 167.703 95.92 166.117 95.3497ZM172.859 108.53C172.336 107.178 173.531 104.772 170.805 104.78C168.367 104.78 167.008 106.553 166.992 108.819C166.976 110.936 168.64 111.866 170.64 112.053C173.711 112.342 172.312 109.905 172.867 108.522L172.859 108.53ZM109.17 118.882C109.225 117.991 108.951 117.225 107.912 117.46C105.607 117.983 104.506 119.78 104.099 121.882C103.896 122.913 104.881 123.522 105.928 123.296C108.248 122.796 108.701 120.819 109.17 118.882ZM103.216 110.092C102.17 110.186 100.755 109.772 100.982 111.413C101.201 113.046 102.295 114.257 103.982 114.514C105.779 114.788 106.154 113.116 106.232 112.006C106.381 109.795 104.185 110.764 103.224 110.1L103.216 110.092ZM96.3179 115.225C95.1459 115.155 94.4037 115.757 94.56 116.796C94.8022 118.397 96.1147 119.132 97.5757 119.374C98.4351 119.522 99.1226 118.874 99.0757 117.999C98.982 116.311 97.7007 115.655 96.3179 115.225Z" fill="#111211"/>
<path d="M36.7217 160.046C36.8545 157.179 38.1983 154.124 41.3312 151.952C46.8079 148.155 52.5659 145.679 59.2771 148.484C67.4023 151.882 75.9416 151.632 84.4732 151.523C88.2858 151.476 91.8874 150.57 94.95 148.179C99.2861 144.788 104.2 142.866 109.427 141.124C114.755 139.351 119.505 135.905 124.881 133.999C128.49 132.717 132.092 131.374 136.069 132.678C137.131 133.03 138.397 132.749 139.561 132.803C146.022 133.108 152.483 132.967 158.96 133.335C166.616 133.772 175.007 134.936 181.453 128.936C185.883 124.811 191.297 123.069 196.672 120.952C199.102 119.991 200.899 120.694 202.844 121.787C208.5 124.959 210.344 131.577 207.633 137.35C205.469 141.952 202.031 145.718 199.797 150.257C199.195 151.476 198.039 152.632 196.852 153.312C191.437 156.406 185.297 158.218 179.382 159.007C174.148 159.703 168.468 157.96 162.944 157.578C152.624 156.867 142.014 155.218 132.272 159.195C125.154 162.101 118.326 166.031 111.63 170.211C102.599 175.852 93.8016 182.203 82.3247 184C71.8165 185.649 62.0818 184.914 52.3237 181.852C42.6203 178.805 37.2217 170.742 36.7295 160.046H36.7217ZM73.2619 180.696C79.6605 179.828 87.4889 178.695 94.9813 175.313C99.708 173.18 103.169 168.984 108.404 167.82C109.552 167.562 110.615 166.453 111.497 165.523C116.974 159.773 124.529 157.679 131.443 154.749C138.6 151.718 146.436 151.468 154.335 152.109C161.827 152.71 169.312 153.156 176.726 154.445C178.023 154.671 179.304 154.562 180.57 154.148C185.109 152.663 189.656 151.21 194.211 149.773C195.016 149.515 195.555 149.023 195.961 148.327C198.695 143.648 202.242 139.452 204.11 134.241C205.586 130.116 202.539 124.944 198.25 125.319C193.187 125.764 188.531 127.881 184.859 131.421C181.5 134.655 177.468 137.163 173.281 138.015C162.226 140.265 151.006 138.015 139.858 137.749C133.748 137.6 127.607 137.155 121.826 139.608C116.865 141.718 112.419 144.773 107.2 146.609C102.911 148.109 97.9345 149.296 94.7782 153.413C94.1766 154.203 92.6922 154.374 91.5828 154.703C82.3793 157.367 73.1291 157.039 64.0038 154.578C57.8083 152.913 51.8315 150.671 45.5579 154.398C44.2532 155.171 43.2375 155.945 42.4953 157.179C39.839 161.64 43.1672 172.391 47.7611 174.867C55.2613 178.899 63.285 180.594 73.2619 180.696Z" fill="#240700"/>
<path d="M76.8799 93.107C82.6926 92.3257 88.9975 92.8648 94.7945 94.818C100.084 96.5915 104.834 99.9822 109.772 102.756C110.522 103.178 111.045 104.107 110.647 105.123C110.24 106.146 109.326 106.271 108.381 106.232C106.115 106.146 104.154 105.217 102.201 104.154C93.357 99.3494 84.8333 97.4353 74.8096 102.451C67.5281 106.092 60.1763 109.436 53.9339 114.623C49.5353 118.287 44.6289 116.85 39.8554 117.131C38.3397 117.217 38.4334 116.014 38.3397 114.951C37.9569 110.826 42.3711 102.646 46.0274 100.678C48.2853 99.4666 50.4963 98.1541 52.7386 96.9118C60.1685 92.7711 68.2859 92.7242 76.8799 93.107Z" fill="#5A8A3E"/>
<path d="M188.797 86.8184C191.618 87.6934 194.587 88.5606 197.509 89.545C199.829 90.3263 201.806 91.967 204.345 92.2404C207.915 92.6232 208.876 94.8264 208.228 98.0296C207.118 103.522 203.673 106.553 198.157 107.842C194.829 108.616 191.407 109.475 188.54 111.6C186.43 113.155 184.063 114.225 181.524 114.835C178.594 115.538 175.789 113.194 176.571 110.397C178.086 104.952 176.852 100.194 173.844 95.6624C173.227 94.7405 172.188 93.4592 173.906 92.7795C178.813 90.8419 183.321 87.8887 188.805 86.834L188.797 86.8184Z" fill="#EEEEED"/>
<path d="M193.79 75.8177C196.65 75.8177 199.509 75.7084 202.369 75.8412C208.65 76.1302 210.189 81.5132 209.197 86.4431C208.9 87.9197 207.572 87.365 206.627 87.5056C201.712 88.2244 197.642 85.4587 193.321 84.0055C189.454 82.7008 186.212 82.8336 182.626 84.6852C178.985 86.5681 175.047 87.7009 170.914 88.4041C165.883 89.2635 161.578 92.0448 157.586 95.1621C152.18 99.3888 145.882 99.5997 139.538 99.0528C137.531 98.8809 137.999 96.9121 139.179 95.9434C140.351 94.9902 141.874 94.4433 143.296 93.8183C154.57 88.8181 165.18 82.4508 176.602 77.7397C182.219 75.4271 188.009 75.9037 193.798 75.8177H193.79Z" fill="#5A8A3E"/>
<path d="M159.726 114.905C157.304 115.358 155.453 114.194 154.046 111.764C152.921 109.811 152.515 107.788 154.554 106.694C156.703 105.538 159.445 104.225 161.382 107.342C161.992 108.319 162.32 109.468 162.836 110.514C164.703 114.343 164.375 114.882 159.718 114.913L159.726 114.905Z" fill="#D5D4D5"/>
<path d="M113.178 117.406C113.178 116.71 113.202 116.187 113.178 115.671C112.897 110.929 112.897 110.999 117.834 111.117C119.108 111.148 120.155 111.179 120.733 112.46C121.381 113.898 121.241 115.273 120.186 116.453C119.413 117.32 118.545 118.109 117.663 118.867C116.413 119.945 115.084 121.757 113.483 121.132C111.991 120.539 113.686 118.554 113.17 117.406H113.178Z" fill="#CAC9CA"/>
<path d="M136.171 117.491C130.038 116.03 127.968 113.522 129.601 109.756C130.608 107.443 132.694 106.779 134.859 106.35C135.866 106.147 136.718 106.701 136.39 107.92C135.546 111.069 136.312 114.28 136.171 117.491Z" fill="#CFCECD"/>
<path d="M166.117 95.3496C167.703 95.9199 170.36 95.8496 170.125 98.1231C169.789 101.256 166.43 101.326 164.133 101.998C162.664 102.42 160.906 101.334 161.07 99.3654C161.305 96.459 163.633 95.7793 166.117 95.3496Z" fill="#CAC9C9"/>
<path d="M172.86 108.529C172.305 109.912 173.711 112.35 170.633 112.061C168.633 111.873 166.969 110.944 166.984 108.826C167 106.561 168.36 104.787 170.797 104.787C173.524 104.787 172.336 107.186 172.852 108.537L172.86 108.529Z" fill="#C7C7C6"/>
<path d="M109.17 118.882C108.701 120.819 108.248 122.796 105.927 123.296C104.881 123.522 103.904 122.913 104.099 121.882C104.513 119.772 105.607 117.983 107.912 117.46C108.951 117.225 109.224 117.991 109.17 118.882Z" fill="#9F9E9F"/>
<path d="M103.217 110.093C104.17 110.765 106.373 109.796 106.225 111.999C106.154 113.108 105.779 114.78 103.974 114.507C102.295 114.257 101.201 113.038 100.974 111.405C100.748 109.765 102.162 110.179 103.209 110.085L103.217 110.093Z" fill="#B1B0B0"/>
<path d="M96.3176 115.225C97.7083 115.655 98.9818 116.311 99.0755 117.999C99.1224 118.874 98.4427 119.522 97.5755 119.374C96.1145 119.132 94.802 118.389 94.5598 116.796C94.4035 115.757 95.1457 115.155 96.3176 115.225Z" fill="#9F9E9F"/>
<path d="M79.2472 127.773C78.8253 127.578 78.255 127.687 77.755 127.656C74.3408 124.062 72.2157 119.874 71.9267 114.851C72.7939 114.069 72.7939 113.28 71.9267 112.499C72.0751 111.773 72.2236 111.038 72.372 110.312C73.5908 109.733 73.747 108.562 73.083 107.78C72.1064 106.64 71.0595 107.366 70.2704 108.351C67.0281 110.21 63.3873 111.624 60.6451 114.046C57.2856 117.015 53.7699 119.468 49.6447 121.093C48.6447 121.484 47.465 121.953 47.4494 123.046C47.4337 124.226 48.7385 124.625 49.7151 124.843C59.1607 126.914 68.2469 130.789 78.1534 130.531C79.6925 131.515 81.8801 131.867 82.4348 130.25C83.0208 128.539 80.5441 128.375 79.2472 127.773Z" fill="#E6E5E4"/>
<path d="M73.2625 180.697C63.2856 180.595 55.2619 178.9 47.7617 174.868C43.1678 172.4 39.8396 161.649 42.4959 157.18C43.2303 155.946 44.2538 155.173 45.5585 154.399C51.8243 150.672 57.8089 152.915 64.0044 154.579C73.1375 157.032 82.3799 157.36 91.5834 154.704C92.7006 154.383 94.1772 154.204 94.7788 153.415C97.9351 149.297 102.912 148.11 107.201 146.61C112.42 144.774 116.865 141.719 121.826 139.61C127.608 137.156 133.749 137.61 139.858 137.75C151.015 138.016 162.226 140.266 173.281 138.016C177.469 137.164 181.5 134.656 184.86 131.422C188.532 127.883 193.188 125.765 198.251 125.32C202.54 124.945 205.587 130.117 204.11 134.242C202.243 139.453 198.696 143.641 195.962 148.329C195.555 149.024 195.016 149.516 194.212 149.774C189.657 151.211 185.11 152.665 180.57 154.149C179.297 154.563 178.024 154.673 176.727 154.446C169.312 153.149 161.828 152.712 154.335 152.11C146.437 151.477 138.6 151.719 131.444 154.751C124.537 157.68 116.983 159.782 111.498 165.524C110.615 166.454 109.553 167.564 108.404 167.821C103.17 168.985 99.7164 173.181 94.9819 175.314C87.4895 178.689 79.6689 179.83 73.2625 180.697ZM152.327 148.696C152.327 148.641 152.327 148.579 152.327 148.524C158.437 148.524 164.554 148.633 170.664 148.485C174.273 148.391 178.063 148.485 181.43 147.43C188.219 145.282 193.086 140 198.423 135.563C199.313 134.828 199.891 133.664 199.68 132.414C199.462 131.125 199.11 129.844 197.649 129.32C196.235 128.82 195.563 129.812 194.719 130.656C192.157 133.219 189.625 135.828 186.875 138.18C184.703 140.039 182.078 141.461 179.305 142.047C172.359 143.516 165.211 143.641 158.203 143.36C149.405 143.008 140.647 143.852 131.85 143.282C123.584 142.742 117.904 149.399 110.67 151.813C105.763 153.446 102.724 158.016 97.8335 159.548C92.7709 161.134 87.7629 162.798 82.8331 164.845C78.9736 166.446 74.7469 168.321 70.4343 167.681C62.9106 166.564 55.4182 164.993 50.5821 158.102C49.7149 156.86 48.4258 156.626 47.1445 157.43C45.9726 158.173 45.9569 159.376 46.3554 160.563C47.3398 163.501 49.3164 166.149 51.7306 167.501C62.8403 173.728 74.5594 174.97 86.3566 169.517C93.7944 166.079 102.17 164.782 108.756 159.329C112.248 156.438 117.319 156.11 120.811 153.43C124.639 150.493 128.553 148.79 133.225 148.719C139.593 148.618 145.968 148.696 152.335 148.696H152.327Z" fill="#D92025"/>
<path d="M152.327 148.695C145.959 148.695 139.584 148.617 133.217 148.718C128.553 148.796 124.631 150.492 120.802 153.429C117.31 156.109 112.24 156.437 108.747 159.328C102.169 164.781 93.786 166.078 86.3483 169.516C74.551 174.969 62.8397 173.719 51.7222 167.5C49.3081 166.148 47.3314 163.5 46.347 160.562C45.9486 159.375 45.9642 158.172 47.1361 157.429C48.4174 156.625 49.6987 156.859 50.5737 158.101C55.4098 164.992 62.9022 166.57 70.4259 167.68C74.7385 168.32 78.9652 166.438 82.8247 164.844C87.7546 162.805 92.7625 161.133 97.8252 159.547C102.724 158.015 105.763 153.445 110.662 151.812C117.904 149.398 123.584 142.742 131.842 143.281C140.639 143.851 149.397 143.007 158.194 143.359C165.21 143.64 172.351 143.523 179.296 142.046C182.07 141.46 184.687 140.038 186.867 138.179C189.617 135.827 192.148 133.218 194.711 130.655C195.555 129.811 196.227 128.811 197.641 129.319C199.094 129.835 199.453 131.124 199.672 132.413C199.883 133.655 199.305 134.819 198.414 135.562C193.078 139.999 188.211 145.281 181.422 147.429C178.054 148.492 174.265 148.398 170.656 148.484C164.546 148.64 158.429 148.523 152.319 148.523C152.319 148.578 152.319 148.64 152.319 148.695H152.327Z" fill="#350A03"/>
</svg>
