<svg width="250" height="250" viewBox="0 0 250 250" fill="none" xmlns="http://www.w3.org/2000/svg">
<g clip-path="url(#clip0_712_2799)">
<path d="M125 250C194.036 250 250 194.036 250 125C250 55.9644 194.036 0 125 0C55.9644 0 0 55.9644 0 125C0 194.036 55.9644 250 125 250Z" fill="#FDDE00"/>
<path d="M64.155 88.377C64.155 88.377 57.6916 96.5161 59.8461 133.381C59.8461 133.381 45.7224 169.528 50.5101 187.961C55.2977 206.394 73.9697 205.436 73.9697 205.436C73.9697 205.436 103.893 231.768 126.874 208.548C149.855 185.328 107.723 95.3192 107.723 95.3192L102.456 64.1992C102.456 64.1992 96.7113 68.7475 97.4294 98.6706C98.1475 128.594 85.6996 107.528 85.6996 107.528L64.155 88.377Z" fill="#3C2D0C"/>
<path d="M66.5483 120.933L58.6486 143.195L55.776 158.755C55.776 158.755 45.9613 193.466 86.4172 192.987C86.4172 192.987 118.016 221.235 138.603 202.323L144.109 196.339L153.684 181.497L169.484 134.338C169.484 134.338 164.457 102.021 132.618 88.6157C132.618 88.6157 129.985 87.1794 125.198 89.0944C125.198 89.0944 112.031 59.4108 103.653 63.0016C103.653 63.0016 96.4714 66.8317 102.695 96.0366L91.4444 101.064C91.4444 101.064 79.138 77.7311 67.7453 82.3917C57.2123 86.7006 66.5483 120.933 66.5483 120.933Z" fill="#E78C19"/>
<path d="M107.484 77.6043L108.441 90.5311C108.441 90.5311 109.159 97.952 117.059 95.3188C119.292 94.5745 121.253 93.0196 121.046 90.4673C120.892 88.5561 119.557 86.8258 118.689 85.177C117.064 82.0901 115.761 78.8144 113.871 75.874C112.904 74.3642 110.913 70.9865 108.681 71.3803C108.681 71.3803 107.035 70.9016 107.484 77.6043Z" fill="#EFB99D"/>
<path d="M72.8779 92.1169C73.0289 92.0181 76.2449 87.9436 82.9321 97.8173C89.6199 107.692 88.9466 106.39 88.9466 106.39C88.9466 106.39 92.5373 110.34 85.1763 115.412C83.5718 116.601 81.8215 117.579 79.9682 118.322C78.8168 118.785 77.5868 119.02 76.3459 119.015C74.9486 118.949 74.3195 118.235 73.9743 116.92C72.8431 112.611 71.5688 108.325 70.9231 103.91C70.4363 100.582 69.4638 94.352 72.8779 92.1169Z" fill="#EFB99D"/>
<path d="M150.622 112.013C150.622 114.359 147.191 116.262 142.959 116.262C138.728 116.262 135.297 114.359 135.297 112.013C135.297 109.666 138.8 106.211 143.032 106.211C147.264 106.211 150.622 109.666 150.622 112.013Z" fill="#FBFBFB"/>
<path d="M106.432 130.338C108.709 126.315 108.471 121.874 105.9 120.419C103.329 118.964 99.3989 121.046 97.1219 125.069C94.8449 129.093 95.0831 133.534 97.654 134.989C100.225 136.444 104.155 134.362 106.432 130.338Z" fill="#FBFBFB"/>
<path d="M117.298 149.779L138.244 138.887C138.244 138.887 164.337 125.242 170.681 135.775C177.025 146.308 170.681 162.346 170.681 162.346C170.681 162.346 167.928 181.138 148.777 182.814L138.484 184.25L125.318 184.609C125.318 184.609 104.132 185.806 88.5722 174.315L83.6649 168.331C83.6649 168.331 73.7304 154.686 80.6725 144.871C87.6147 135.056 111.314 150.257 111.314 150.257C111.314 150.257 114.545 151.933 117.298 149.779Z" fill="#FBFBFB"/>
<path d="M164.816 95.4379C167.593 95.4379 169.843 93.1872 169.843 90.4109C169.843 87.6345 167.593 85.3838 164.816 85.3838C162.04 85.3838 159.789 87.6345 159.789 90.4109C159.789 93.1872 162.04 95.4379 164.816 95.4379Z" fill="#E72D36"/>
<path d="M153.685 83.1098C156.462 83.1098 158.712 80.8591 158.712 78.0827C158.712 75.3064 156.462 73.0557 153.685 73.0557C150.909 73.0557 148.658 75.3064 148.658 78.0827C148.658 80.8591 150.909 83.1098 153.685 83.1098Z" fill="#E72D36"/>
<path d="M135.85 79.1596C138.627 79.1596 140.877 76.9089 140.877 74.1325C140.877 71.3562 138.627 69.1055 135.85 69.1055C133.074 69.1055 130.823 71.3562 130.823 74.1325C130.823 76.9089 133.074 79.1596 135.85 79.1596Z" fill="#E72D36"/>
<path d="M139.8 38.4649C140.878 53.3067 138.735 66.7123 135.132 66.7123C131.53 66.7123 126.754 52.2295 126.754 38.4649C126.754 32.78 129.734 31.8818 133.337 31.8818C136.94 31.8818 139.389 32.7949 139.8 38.4649Z" fill="#E72D36"/>
<path d="M173.103 47.7276C167.63 61.5641 159.879 72.7091 156.633 71.1451C153.388 69.5811 155.374 54.4625 161.35 42.064C163.818 36.9433 166.893 37.4281 170.139 38.9921C173.385 40.556 175.195 42.4417 173.103 47.7276Z" fill="#E72D36"/>
<path d="M196.906 74.6392C184.857 83.3813 172.333 88.6294 170.434 85.5673C168.535 82.5051 178.329 70.8088 190.03 63.5503C194.863 60.5525 197.197 62.6121 199.096 65.6742C200.994 68.7363 201.509 71.2995 196.906 74.6392Z" fill="#E72D36"/>
<path d="M116.307 135.175C115.855 135.21 115.416 135.267 114.992 135.34C115.045 135.492 115.073 135.651 115.075 135.812C115.075 137.344 112.693 138.593 109.695 138.677C109.673 138.805 109.667 138.936 109.676 139.066C109.82 140.92 113.022 142.183 116.828 141.887C120.634 141.592 123.603 139.849 123.459 137.996C123.315 136.142 120.113 134.879 116.307 135.175Z" fill="black"/>
<path d="M142.789 128.622C142.337 128.657 141.899 128.714 141.475 128.788C141.527 128.939 141.555 129.099 141.558 129.259C141.558 130.791 139.176 132.04 136.177 132.124C136.156 132.253 136.149 132.383 136.158 132.513C136.302 134.367 139.504 135.63 143.31 135.335C147.116 135.039 150.085 133.297 149.941 131.443C149.797 129.59 146.595 128.326 142.789 128.622Z" fill="black"/>
<path d="M151.47 136.373C151.47 136.373 140.967 139.425 141.595 145.35C142.224 151.275 154.881 154.327 154.881 154.327C154.881 154.327 158.293 155.673 160.267 152.442C162.242 149.21 165.115 144.811 164.307 138.528C164.307 138.528 164.038 133.86 151.47 136.373Z" fill="black"/>
</g>
<defs>
<clipPath id="clip0_712_2799">
<rect width="250" height="250" rx="125" fill="white"/>
</clipPath>
</defs>
</svg>
