<svg width="250" height="250" viewBox="0 0 250 250" fill="none" xmlns="http://www.w3.org/2000/svg">
<rect width="250" height="250" rx="125" fill="white"/>
<g clip-path="url(#clip0_242_94576)">
<path d="M11.3633 125.018C11.3633 187.786 62.2468 238.67 125.015 238.67C187.782 238.67 238.666 187.786 238.666 125.018C238.666 62.2507 187.782 11.3672 125.015 11.3672C62.2468 11.3672 11.3633 62.2507 11.3633 125.018Z" fill="#121122"/>
<path fill-rule="evenodd" clip-rule="evenodd" d="M45.6535 96.219C44.2649 105.158 45.9022 114.358 47.5999 123.197C48.2534 124.61 49.6881 125.559 51.457 126.169C47.7665 133.893 45.8469 142.343 45.8383 150.903C45.8383 187.896 81.6491 217.912 125.82 217.912C169.995 217.912 205.834 187.968 205.834 150.903C205.826 142.256 203.868 133.722 200.106 125.935C201.584 125.324 202.763 124.44 203.338 123.197C205.04 114.357 206.666 105.155 205.278 96.219C203.978 84.2215 199.861 80.5562 187.498 83.6321C181.212 85.0952 172.919 88.8066 166.544 93.1715C154.614 87.251 140.688 83.8558 125.825 83.8558C110.784 83.8558 96.7159 87.3362 84.6972 93.3847C78.2873 88.9273 69.8267 85.1166 63.4408 83.6321C51.0699 80.5599 46.9605 84.2215 45.6535 96.219ZM92.2257 149.109C82.8495 144.975 66.8247 146.019 66.8247 146.019C66.8247 146.019 67.5775 161.107 76.7762 166.228C87.6867 172.294 107.973 169.289 107.973 169.289C107.973 169.289 106.247 155.261 92.2257 149.081V149.109ZM144.321 169.314C144.321 169.314 164.607 172.319 175.518 166.253C184.716 161.132 185.47 146.044 185.47 146.044C185.47 146.044 169.445 145 160.068 149.134C146.047 155.261 144.321 169.258 144.321 169.258V169.314ZM121.818 179.948C121.818 181.059 123.885 181.962 126.428 181.962C128.973 181.962 131.038 181.059 131.038 179.948C131.038 178.836 128.974 177.938 126.428 177.938C123.885 177.938 121.818 178.804 121.818 179.948Z" fill="#F2F4F8"/>
<path fill-rule="evenodd" clip-rule="evenodd" d="M216.977 170.661C209.491 167.77 201.54 166.272 193.515 166.239H193.529C191.494 166.239 191.494 163.082 193.529 163.082C201.839 163.11 210.074 164.652 217.829 167.635C218.222 167.755 218.554 168.02 218.757 168.377C218.961 168.733 219.02 169.154 218.923 169.553C218.811 169.957 218.543 170.3 218.178 170.508C217.814 170.715 217.382 170.77 216.977 170.661ZM34.3432 167.706C42.1027 164.724 50.3409 163.181 58.6538 163.153V163.171C60.6852 163.171 60.6782 166.328 58.6538 166.328C50.6271 166.357 42.6734 167.855 35.1855 170.746C34.7825 170.853 34.3535 170.798 33.9909 170.592C33.6282 170.386 33.3609 170.046 33.2464 169.645C33.1446 169.242 33.2022 168.815 33.4073 168.453C33.6123 168.091 33.949 167.823 34.3472 167.703L34.3432 167.706ZM50.4389 176.753C54.3202 175.518 58.3572 174.84 62.4291 174.739C64.4535 174.75 64.4464 177.897 62.4184 177.897C58.7041 177.994 55.0218 178.612 51.4795 179.733C48.1802 180.699 44.412 182.063 42.0039 184.293C40.5121 185.678 38.2818 183.448 39.7764 182.063C42.6992 179.363 46.7198 177.872 50.4312 176.753H50.4389ZM66.0341 182.624C62.8689 183.981 59.8248 185.605 56.9347 187.479C54.0178 189.277 51.4511 191.59 49.3592 194.305C49.149 194.666 49.09 195.096 49.1952 195.5C49.3003 195.904 49.561 196.251 49.9204 196.464C50.2845 196.667 50.7125 196.721 51.1158 196.617C51.5191 196.512 51.8668 196.257 52.0868 195.903C53.8627 193.452 56.4056 191.552 58.9236 189.929C61.6893 188.175 64.5908 186.644 67.6002 185.351C67.9595 185.138 68.2204 184.792 68.3267 184.388C68.4331 183.984 68.3762 183.554 68.1685 183.192C67.9497 182.839 67.6038 182.583 67.2021 182.477C66.8004 182.372 66.3734 182.424 66.0091 182.624L66.0341 182.624ZM189.736 177.833C193.452 177.925 197.136 178.542 200.679 179.665C202.51 180.184 204.298 180.844 206.027 181.64C207.518 182.293 208.903 183.166 210.137 184.228C211.628 185.606 213.866 183.383 212.374 181.991C209.469 179.295 205.47 177.8 201.734 176.681C197.85 175.445 193.81 174.77 189.736 174.674C187.705 174.674 187.698 177.835 189.736 177.835V177.833ZM193.22 189.837C190.49 188.148 187.634 186.67 184.679 185.415V185.383C184.321 185.169 184.061 184.823 183.955 184.419C183.849 184.016 183.905 183.587 184.11 183.224C184.332 182.872 184.68 182.618 185.083 182.514C185.485 182.41 185.912 182.463 186.277 182.663C192.428 185.348 198.899 188.793 202.92 194.344C203.128 194.706 203.186 195.135 203.081 195.539C202.976 195.942 202.717 196.289 202.359 196.503C201.995 196.705 201.567 196.758 201.165 196.652C200.763 196.546 200.417 196.29 200.199 195.935C198.381 193.427 195.809 191.484 193.22 189.836V189.837Z" fill="#F2F4F8"/>
<path d="M22.3436 131.245C23.7997 128.971 36.6209 122.131 52.4789 118.071C55.9016 108.35 60.1246 98.9301 65.1047 89.9073C65.0444 89.9073 77.7911 67.0243 77.7343 67.0136C74.0781 65.3491 70.5676 63.3817 67.2393 61.1322C66.6765 60.6996 66.1664 60.2026 65.7193 59.6513C65.3818 59.0936 65.2071 58.4526 65.2149 57.8008C65.2149 57.268 65.965 56.3234 66.298 55.9042C67.1523 54.9008 68.095 53.9761 69.1145 53.1411C71.5451 51.1504 74.0991 49.3153 76.7612 47.6468C78.0254 46.8121 79.3395 45.9988 80.6324 45.1785C89.7245 39.3893 94.7074 35.0315 103.032 30.2474C110.988 25.6873 114.856 22.8781 124.079 23.3504C135.672 23.3504 164.489 60.0598 177.481 78.9754C185.273 90.3405 195.729 110.805 199.579 118.505C200.502 118.736 201.337 118.956 202.108 119.183C213.928 122.735 225.52 127.934 228.354 131.245C230.879 134.185 219.841 135.499 208.962 137.392C198.084 139.289 161.179 140.23 125.713 140.468C90.2466 140.706 48.8562 139.52 39.8459 138.102C30.8356 136.685 20.5286 134.079 22.3436 131.245Z" fill="#6665DD"/>
<path d="M189.696 99.5347C189.696 99.5347 166.333 93.6816 125.17 93.6816C80.9739 93.6816 59.6891 100.501 59.6891 100.501C59.6891 100.501 57.164 105.299 56.0666 108.076C54.9655 110.853 52.4795 118.07 52.4795 118.07C52.4795 118.07 84.6355 112.317 125.792 112.317C150.573 112.417 175.307 114.508 199.754 118.568C199.754 118.568 196.021 109.831 193.787 106.108C192.459 103.894 191.095 101.703 189.696 99.5347Z" fill="#FF99A5"/>
<path d="M50.6541 50.1503C53.3321 49.7595 56.969 57.9567 56.969 57.9567C56.969 57.9567 65.3896 55.6908 66.7039 57.9567C68.0182 60.2227 60.7833 65.6636 60.7833 65.6636C60.7833 65.6636 65.1519 73.3492 63.7667 74.9476C62.3851 76.5458 54.5928 71.6972 54.5928 71.6972C54.5928 71.6972 48.6511 78.3883 46.7154 77.3797C44.7763 76.3675 46.9747 67.6482 46.9747 67.6482C46.9747 67.6482 38.5682 64.0755 39.1435 61.9516C39.7188 59.8313 48.477 59.1885 48.477 59.1885C48.477 59.1885 47.9833 50.5437 50.6541 50.1532V50.1503Z" fill="#FFE600"/>
</g>
<defs>
<clipPath id="clip0_242_94576">
<rect width="227.302" height="227.302" fill="white" transform="translate(11.3633 11.3672)"/>
</clipPath>
</defs>
</svg>
