<svg width="250" height="250" viewBox="0 0 250 250" fill="none" xmlns="http://www.w3.org/2000/svg">
<g clip-path="url(#clip0_242_94067)">
<path d="M124.999 250.002C194.035 250.002 249.999 194.038 249.999 125.002C249.999 55.9664 194.035 0.00195312 124.999 0.00195312C55.9634 0.00195312 -0.000976562 55.9664 -0.000976562 125.002C-0.000976562 194.038 55.9634 250.002 124.999 250.002Z" fill="#00A8D6"/>
<path fill-rule="evenodd" clip-rule="evenodd" d="M112.75 148.049V133.072H135.828C151.219 133.072 158.914 129.229 158.914 121.541V81.1973C158.914 73.5176 151.219 69.6738 135.828 69.6738H98.9062V93.877H78.125V54.6895H133.516C164.297 54.6895 179.687 63.1426 179.687 80.0488V122.697C179.687 139.604 164.297 148.057 133.516 148.057H112.75V148.049ZM158.914 157.275H179.687V169.955C179.687 186.861 164.297 195.314 133.516 195.314H78.125V105.408H133.516C136.773 105.408 139.844 105.502 142.758 105.689V120.697C140.454 120.481 138.142 120.377 135.828 120.385H98.9062V180.33H135.836C151.227 180.33 158.922 176.486 158.922 168.807V157.268L158.914 157.275Z" fill="white"/>
</g>
<defs>
<clipPath id="clip0_242_94067">
<rect width="250" height="250" rx="125" fill="white"/>
</clipPath>
</defs>
</svg>
