<svg width="250" height="250" viewBox="0 0 250 250" fill="none" xmlns="http://www.w3.org/2000/svg">
<g clip-path="url(#clip0_242_94740)">
<path d="M124.998 250C194.034 250 249.998 194.036 249.998 125C249.998 55.9644 194.034 0 124.998 0C55.9625 0 -0.00195312 55.9644 -0.00195312 125C-0.00195312 194.036 55.9625 250 124.998 250Z" fill="#1B2B57"/>
<path d="M144.669 137.071L125.799 148.05L144.669 112.711V137.071Z" fill="#DF3121"/>
<path d="M124.082 155.6V112.027L174.175 78.746L147.07 43.75L200.25 83.206L147.07 132.956V116.144L124.082 155.6Z" fill="#EFBF43"/>
<path d="M124.082 205.348V164.862L198.191 92.4688L124.082 205.348Z" fill="#EFBF43"/>
<path d="M103.496 137.071L122.367 148.05L103.496 112.711V137.071Z" fill="#DF3121"/>
<path d="M124.084 155.6V112.027L73.9915 78.746L101.096 43.75L47.916 83.206L101.096 132.956V116.144L124.084 155.6Z" fill="#F8D749"/>
<path d="M124.082 205.348V164.862L49.9727 92.4688L124.082 205.348Z" fill="#F8D749"/>
<path fill-rule="evenodd" clip-rule="evenodd" d="M132.053 98.9076C136.42 96.6726 136.79 95.9131 135.095 92.6531C133.389 89.3691 127.904 83.0486 125.771 81.9066C124.231 81.0831 124.064 81.1601 121.137 84.0271C117.667 87.4271 113.356 93.5691 113.356 95.1151C113.356 95.6886 113.855 96.6096 114.464 97.1611C118.679 100.976 126.496 101.752 132.053 98.9076ZM111.561 91.9741C111.58 89.9851 113.588 85.8831 116.971 80.9186L119.953 76.5446L117.9 74.7426C113.821 71.1616 112.119 71.6821 109.699 77.2476C107.974 81.2121 107.83 86.5406 109.34 90.4671C110.513 93.5141 111.539 94.2111 111.561 91.9741ZM139.899 90.7701C141.713 86.7751 141.507 80.6336 139.421 76.5136C136.836 71.4076 135.619 71.1846 131.225 75.0091L129.5 76.5106L131.978 80.0421C134.748 83.9916 138.073 90.6651 138.074 92.2771C138.074 93.9851 138.658 93.5036 139.899 90.7701ZM127.307 71.0396C128.752 70.3836 130.614 69.8306 131.443 69.8101C132.937 69.7726 132.935 69.7641 131.141 68.7696C129.904 68.0836 127.902 67.7656 124.811 67.7656C121.72 67.7656 119.717 68.0836 118.481 68.7696C116.679 69.7681 116.678 69.7726 118.179 69.8411C119.334 69.8941 122.3 70.9786 124.595 72.1876C124.641 72.2121 125.862 71.6956 127.307 71.0396Z" fill="#F5BB43"/>
</g>
<defs>
<clipPath id="clip0_242_94740">
<rect width="250" height="250" fill="white"/>
</clipPath>
</defs>
</svg>
