<svg width="250" height="250" viewBox="0 0 250 250" fill="none" xmlns="http://www.w3.org/2000/svg">
<path d="M245.564 124.961C246.181 190.841 191.048 247.043 121.791 245.123C59.2345 243.39 3.68799 191.007 5.55349 121.188C7.16949 60.6985 58.0615 2.10397 131.569 5.11097C191.68 7.56997 245.66 57.576 245.564 124.961ZM157.708 124.074C159.67 123.391 161.422 122.72 163.212 122.17C173.166 119.106 180.714 111.32 180.303 98.57C179.896 85.944 171.91 78.013 161.336 74.7465C151.229 71.6245 140.671 71.4385 130.242 71.225C112.757 70.867 95.26 71.1495 77.7685 71.15C72.0485 71.15 69.1905 74.0035 69.1905 79.791C69.1895 110.178 69.193 140.565 69.1925 170.952C69.1925 176.114 72.2665 179.01 77.7455 178.982C96.128 178.886 114.511 178.861 132.892 178.658C142.47 178.553 152.021 177.847 161.213 174.854C172.426 171.203 180.384 164.592 181.805 151.993C183.078 140.702 178.722 132.405 168.456 127.749C165.134 126.243 161.53 125.359 157.708 124.074ZM135.46 155.761C139.148 155.678 142.912 154.67 146.453 153.51C150.091 152.318 151.426 149.134 151.356 145.452C151.289 141.908 150.027 138.712 146.448 137.672C142.387 136.492 138.136 135.6 133.926 135.378C126.948 135.01 119.936 135.299 112.938 135.269C109.23 135.253 107.604 133.683 107.555 130.037C107.505 126.34 107.526 122.64 107.593 118.943C107.661 115.172 109.142 113.709 112.902 113.69C119.399 113.658 125.902 113.816 132.394 113.627C135.965 113.523 139.576 113.138 143.07 112.405C147.547 111.465 149.728 108.497 149.823 104.107C149.91 100.095 147.99 97.3645 143.678 96.069C141.039 95.276 138.254 94.6075 135.521 94.5525C124.632 94.3335 113.737 94.3765 102.844 94.3245C101.479 94.318 100.112 94.3235 98.5705 94.3235C98.5705 115.065 98.5705 135.417 98.5705 155.866C111.114 155.865 123.292 156.037 135.46 155.761Z" fill="url(#paint0_linear_242_93299)"/>
<defs>
<linearGradient id="paint0_linear_242_93299" x1="5.50779" y1="125.086" x2="245.569" y2="125.086" gradientUnits="userSpaceOnUse">
<stop stop-color="#F8A438"/>
<stop offset="0.9995" stop-color="#FE4F92"/>
</linearGradient>
</defs>
</svg>
