<svg width="250" height="250" viewBox="0 0 250 250" fill="none" xmlns="http://www.w3.org/2000/svg">
<path d="M70.9375 67.6503V54.1053C70.9375 41.9253 84.1325 34.2953 94.7025 40.4203L172.402 85.4303C183.637 91.9403 183.672 108.18 172.437 114.76L74.5425 171.88C73.0375 172.755 71.1125 171.67 71.1125 169.92V78.7103C71.1125 77.3453 72.5825 76.5053 73.7375 77.2053L122.597 105.87C124.242 106.815 124.243 109.16 122.632 110.175L106.007 120.395C104.537 121.305 102.647 121.27 101.212 120.29L95.0175 116.02C94.3875 115.6 93.5475 116.02 93.5475 116.79V132.365C93.5475 132.96 94.2125 133.345 94.7375 133.065L151.787 100.27L93.2325 65.9703V77.4853C93.2325 79.5153 91.0275 80.7753 89.2775 79.7953L72.4075 70.1703C71.4975 69.6453 70.9375 68.7003 70.9375 67.6503Z" fill="url(#paint0_linear_242_93300)"/>
<path d="M71.1816 179.65V195.855C71.1816 207.79 84.0966 215.245 94.4216 209.26L173.137 163.48C183.707 157.355 183.987 142.2 173.697 135.62L163.267 128.97C161.797 127.955 159.837 127.92 158.332 128.865L141.882 138.945C140.202 139.995 140.167 142.445 141.847 143.495L150.877 149.165L94.7016 182.17C94.2816 182.415 93.7216 182.1 93.7216 181.61V170.83C93.7216 168.73 91.4116 167.435 89.5916 168.52L71.1816 179.65Z" fill="url(#paint1_linear_242_93300)"/>
<defs>
<linearGradient id="paint0_linear_242_93300" x1="70.9403" y1="105.228" x2="180.836" y2="105.228" gradientUnits="userSpaceOnUse">
<stop stop-color="#8109EA"/>
<stop offset="1" stop-color="#3311DD"/>
</linearGradient>
<linearGradient id="paint1_linear_242_93300" x1="71.1911" y1="169.789" x2="181.254" y2="169.789" gradientUnits="userSpaceOnUse">
<stop stop-color="#8109EA"/>
<stop offset="1" stop-color="#11DCB7"/>
</linearGradient>
</defs>
</svg>
