<svg width="250" height="250" viewBox="0 0 250 250" fill="none" xmlns="http://www.w3.org/2000/svg">
<g clip-path="url(#clip0_242_94076)">
<path fill-rule="evenodd" clip-rule="evenodd" d="M249.996 125.008C249.996 194.044 194.032 250.008 124.996 250.008C55.9602 250.008 -0.00390625 194.044 -0.00390625 125.008C-0.00390625 55.9719 55.9602 0.0078125 124.996 0.0078125C194.032 0.0078125 249.996 55.9719 249.996 125.008Z" fill="#5493C2"/>
<path fill-rule="evenodd" clip-rule="evenodd" d="M198.16 202.753C186.257 213.961 171.79 222.471 155.744 227.304L155.745 220.928C146.241 217.116 135.863 215.019 124.996 215.019C114.129 215.019 103.752 217.116 94.2482 220.928L94.2489 227.304C78.2019 222.472 63.735 213.962 51.8324 202.753L57.3007 199.598C55.8497 189.46 52.4781 179.424 47.0444 170.013C41.6107 160.602 34.6059 152.665 26.5527 146.339L21.0272 149.531C19.1694 141.654 18.1819 133.444 18.1819 125.008C18.1819 116.571 19.1694 108.363 21.0272 100.486L26.552 103.677C34.6059 97.3517 41.6107 89.4139 47.0444 80.0023C52.4774 70.5914 55.8497 60.5562 57.3007 50.4194L51.8317 47.2626C63.7344 36.0548 78.2012 27.5444 94.2482 22.7115L94.2475 29.0872C103.752 32.8994 114.129 34.9968 124.996 34.9968C135.863 34.9968 146.24 32.8994 155.744 29.0872L155.743 22.7115C171.79 27.5437 186.257 36.0541 198.16 47.262L192.692 50.418C194.143 60.5555 197.514 70.5914 202.948 80.0023C208.381 89.4132 215.386 97.351 223.439 103.676L228.965 100.485C230.823 108.362 231.81 116.571 231.81 125.008C231.81 133.444 230.823 141.653 228.965 149.53L223.44 146.339C215.386 152.664 208.381 160.602 202.948 170.013C197.515 179.424 194.143 189.459 192.692 199.596L198.16 202.753ZM124.996 0.0078125C55.9602 0.0078125 -0.00390625 55.9719 -0.00390625 125.008C-0.00390625 194.044 55.9602 250.008 124.996 250.008C194.032 250.008 249.996 194.044 249.996 125.008C249.996 55.9719 194.032 0.0078125 124.996 0.0078125Z" fill="#0C121A"/>
<path fill-rule="evenodd" clip-rule="evenodd" d="M206.058 125.007C206.058 169.776 169.766 206.068 124.997 206.068C80.2277 206.068 43.9355 169.776 43.9355 125.007C43.9355 80.2374 80.2277 43.9453 124.997 43.9453C169.766 43.9453 206.058 80.2374 206.058 125.007Z" fill="#0C121A"/>
<path fill-rule="evenodd" clip-rule="evenodd" d="M94.31 134.651C94.31 130.096 91.8638 127.819 86.9709 127.819H77.3065V141.759H87.2554C89.7016 141.759 91.4888 141.167 92.618 139.982C93.7458 138.797 94.31 137.02 94.31 134.651ZM92.1912 114.293C92.1912 112.107 91.6698 110.554 90.6277 109.634C89.5855 108.715 88.0393 108.254 85.9895 108.254H77.3065V120.297H86.0413C88.194 120.297 89.7582 119.796 90.7313 118.796C91.7043 117.795 92.1912 116.294 92.1912 114.293ZM101.96 135.444C101.96 139.862 100.719 143.277 98.2382 145.693C95.7575 148.108 92.3114 149.316 87.9018 149.316H69.6836V100.697H86.3514C90.7962 100.697 94.1594 101.727 96.4419 103.786C98.725 105.844 99.8659 108.887 99.8659 112.913C99.8659 115.673 99.2934 118.002 98.1477 119.9C97.002 121.797 95.2575 123.081 92.9149 123.748C95.8611 124.208 98.1049 125.444 99.6463 127.457C101.188 129.47 101.96 132.132 101.96 135.444Z" fill="#FFFFFE"/>
<path fill-rule="evenodd" clip-rule="evenodd" d="M132.011 115.604C132.011 110.934 129.771 108.599 125.291 108.599H115.524V122.953H125.498C127.634 122.953 129.253 122.31 130.357 121.021C131.459 119.733 132.011 117.927 132.011 115.604ZM132.915 149.316L124.465 130.855H115.524V149.316H107.9V100.697H126.092C130.434 100.697 133.784 101.945 136.145 104.441C138.505 106.938 139.686 110.52 139.686 115.19C139.686 118.594 138.962 121.534 137.514 124.006C136.068 126.479 134.112 128.107 131.648 128.889L141.494 149.316H132.915Z" fill="#FFFFFE"/>
<path fill-rule="evenodd" clip-rule="evenodd" d="M171.315 149.316L158.239 126.991L153.743 131.58V149.316H146.119V100.697H153.743V122.746L170.152 100.697H179.042L163.485 121.263L180.308 149.316H171.315Z" fill="#FFFFFE"/>
</g>
<defs>
<clipPath id="clip0_242_94076">
<rect width="250" height="250" rx="125" fill="white"/>
</clipPath>
</defs>
</svg>
