<svg width="250" height="250" viewBox="0 0 250 250" fill="none" xmlns="http://www.w3.org/2000/svg">
<g clip-path="url(#clip0_242_94081)">
<path fill-rule="evenodd" clip-rule="evenodd" d="M124.998 250.008C158.15 250.008 189.944 236.838 213.386 213.396C236.828 189.954 249.998 158.16 249.998 125.008C249.998 91.8558 236.828 60.0615 213.386 36.6195C189.944 13.1774 158.15 0.0078125 124.998 0.0078125V15.2161C154.117 15.2161 182.043 26.7835 202.632 47.3734C223.222 67.9633 234.79 95.8893 234.79 125.008C234.79 154.126 223.222 182.052 202.632 202.642C182.043 223.232 154.117 234.799 124.998 234.799V250.008Z" fill="#FFBC00"/>
<g opacity="0.3">
<g opacity="0.3">
<path opacity="0.3" fill-rule="evenodd" clip-rule="evenodd" d="M15.2074 124.996H-0.000976562C-0.000976562 158.148 13.1686 189.942 36.6107 213.384C60.0527 236.826 91.847 249.996 124.999 249.996V234.788C95.8861 234.769 67.9709 223.196 47.3849 202.61C26.799 182.024 15.2258 154.109 15.2074 124.996Z" fill="#FFBC00"/>
</g>
</g>
<path fill-rule="evenodd" clip-rule="evenodd" d="M44.5814 125.002C44.5814 146.33 53.0538 166.784 68.1349 181.865C83.2159 196.946 103.67 205.419 124.998 205.419C146.326 205.419 166.78 196.946 181.861 181.865C196.942 166.784 205.415 146.33 205.415 125.002H220.623C220.623 150.363 210.548 174.686 192.615 192.619C174.682 210.552 150.359 220.627 124.998 220.627C99.6367 220.627 75.3141 210.552 57.381 192.619C39.4478 174.686 29.373 150.363 29.373 125.002H44.5814Z" fill="#FFBC00"/>
<path opacity="0.3" fill-rule="evenodd" clip-rule="evenodd" d="M124.998 44.5833V29.375C99.648 29.4117 75.3467 39.4983 57.4215 57.4235C39.4963 75.3487 29.4098 99.6499 29.373 125H44.5814C44.5998 103.678 53.0781 83.2342 68.1552 68.1571C83.2323 53.0801 103.676 44.6017 124.998 44.5833Z" fill="#FFBC00"/>
<path fill-rule="evenodd" clip-rule="evenodd" d="M124.998 73.888C111.443 73.888 98.4424 79.2729 88.8572 88.8581C79.272 98.4433 73.8871 111.444 73.8871 124.999C73.8871 138.555 79.272 151.555 88.8572 161.14C98.4424 170.725 111.443 176.11 124.998 176.11V191.319C107.409 191.319 90.5406 184.331 78.1032 171.894C65.6659 159.457 58.6787 142.588 58.6787 124.999C58.6787 107.41 65.6659 90.5415 78.1032 78.1042C90.5406 65.6669 107.409 58.6797 124.998 58.6797" fill="#FFBC00"/>
<path opacity="0.3" fill-rule="evenodd" clip-rule="evenodd" d="M124.998 58.6797V73.888C138.548 73.9064 151.538 79.2972 161.119 88.8784C170.7 98.4596 176.091 111.449 176.109 124.999H191.317C191.281 107.421 184.282 90.5741 171.852 78.1447C159.423 65.7154 142.576 58.7164 124.998 58.6797Z" fill="#FFBC00"/>
<path fill-rule="evenodd" clip-rule="evenodd" d="M124.998 88.0566C134.796 88.0566 144.193 91.949 151.122 98.8774C158.05 105.806 161.942 115.203 161.942 125.001C161.942 134.799 158.05 144.196 151.122 151.125C144.193 158.053 134.796 161.946 124.998 161.946V146.737C130.763 146.737 136.291 144.447 140.368 140.371C144.444 136.295 146.734 130.766 146.734 125.001C146.734 119.236 144.444 113.708 140.368 109.631C136.291 105.555 130.763 103.265 124.998 103.265" fill="#FFBC00"/>
<path opacity="0.3" fill-rule="evenodd" clip-rule="evenodd" d="M124.998 88.0566C115.206 88.075 105.819 91.9732 98.8948 98.8977C91.9703 105.822 88.0721 115.208 88.0537 125.001H103.262C103.262 122.147 103.824 119.32 104.917 116.683C106.009 114.046 107.61 111.65 109.628 109.631C111.647 107.613 114.043 106.012 116.68 104.92C119.317 103.827 122.144 103.265 124.998 103.265V88.0566Z" fill="#FFBC00"/>
<path fill-rule="evenodd" clip-rule="evenodd" d="M171.595 172.016L160.831 161.252C156.487 165.549 151.407 169.031 145.831 171.53L152.22 185.419C159.333 182.119 165.819 177.607 171.387 172.085" fill="#FFBC00"/>
<path fill-rule="evenodd" clip-rule="evenodd" d="M72.3591 11.5977C58.9424 17.7614 46.7364 26.2751 36.3174 36.7365L46.7341 47.8477C55.952 38.4855 66.801 30.8842 78.7479 25.4171L72.3591 11.5977Z" fill="#FFBC00"/>
<path fill-rule="evenodd" clip-rule="evenodd" d="M211.528 85.0688C206.845 74.724 200.328 65.3128 192.292 57.291L181.319 68.0549C188.184 74.7738 193.741 82.7093 197.708 91.4577L211.528 85.0688Z" fill="#FFBC00"/>
</g>
<defs>
<clipPath id="clip0_242_94081">
<rect width="250" height="250" rx="125" fill="white"/>
</clipPath>
</defs>
</svg>
