<svg width="250" height="250" viewBox="0 0 250 250" fill="none" xmlns="http://www.w3.org/2000/svg">
<g clip-path="url(#clip0_242_94083)">
<path d="M249.999 125C249.999 194.02 194.031 249.98 124.97 249.99C55.9588 249.99 -0.00999621 194.02 5.36014e-06 124.99C-0.0199978 55.96 55.9488 0 124.99 0C194.031 0 249.999 55.97 249.999 125Z" fill="#EAB300"/>
<path d="M174.177 94.3793C172.567 77.6393 158.114 72.0293 139.852 70.4293V47.1992H125.719V69.8093C122.009 69.8093 118.208 69.8793 114.438 69.9593V47.1992H100.305L100.295 70.4093C97.2349 70.4693 94.2245 70.5293 91.294 70.5293V70.4593L71.801 70.4493V85.5493C71.801 85.5493 82.2426 85.3493 82.0626 85.5393C87.7935 85.5393 89.6538 88.8593 90.1939 91.7293V118.189C90.5939 118.189 91.104 118.209 91.6841 118.289H90.1939L90.1839 155.359C89.9338 157.159 88.8736 160.029 84.873 160.039C85.0531 160.199 74.6015 160.039 74.6015 160.039L71.791 176.919H90.1939C93.6144 176.919 96.9849 176.979 100.285 176.999L100.295 200.49H114.418V177.249C118.288 177.329 122.039 177.359 125.709 177.359L125.699 200.49H139.832V177.049C163.595 175.689 180.248 169.699 182.308 147.379C183.978 129.409 175.527 121.379 162.035 118.139C170.246 113.979 175.377 106.629 174.177 94.3793ZM154.394 144.599C154.394 162.149 124.339 160.159 114.748 160.159V129.029C124.339 129.049 154.394 126.299 154.394 144.599ZM147.813 100.689C147.813 116.659 122.729 114.789 114.748 114.799V86.5793C122.739 86.5793 147.823 84.0393 147.813 100.689Z" fill="white"/>
<path d="M90.2139 117.57H92.3143V119.12H90.2139V117.57Z" fill="white"/>
</g>
<defs>
<clipPath id="clip0_242_94083">
<rect width="250" height="250" rx="125" fill="white"/>
</clipPath>
</defs>
</svg>
