<svg width="250" height="250" viewBox="0 0 250 250" fill="none" xmlns="http://www.w3.org/2000/svg">
<g clip-path="url(#clip0_242_93302)">
<rect width="250" height="250" rx="125" fill="white"/>
<path d="M17.5303 60.7104C21.5221 55.1309 25.2317 49.36 29.7294 44.1334C37.9097 34.627 47.1732 26.4799 57.7807 19.7363C67.2964 13.6872 77.3313 8.91921 88.0693 5.58525C104.789 0.393322 121.857 -1.15057 139.242 0.835397C151.95 2.28704 164.193 5.53446 175.853 10.7938C182.912 13.9769 189.551 17.91 196.058 22.1576C209.172 30.7167 219.677 41.8588 228.459 54.5888C237.838 68.1858 243.934 83.3112 247.277 99.5348C249.625 110.928 250.616 122.427 249.608 134.001C248.366 148.272 245.2 162.032 239.285 175.257C234.283 186.442 228.108 196.713 220.201 205.99C212.466 215.065 203.743 223.005 193.719 229.551C186.893 234.008 179.778 237.986 172.266 240.939C159.699 245.882 146.666 249.224 133.028 249.809C123.427 250.221 113.879 250.06 104.408 248.377C96.2724 246.933 88.3323 244.823 80.5589 241.901C73.0174 239.066 65.7033 235.708 58.9643 231.462C49.2483 225.34 40.4896 217.911 32.6955 209.351C24.0114 199.814 16.9701 189.239 11.5824 177.559C3.97158 161.061 0.228808 143.665 0.00617793 125.513C-0.0776966 118.686 0.704615 111.912 1.61377 105.154C1.67901 104.671 1.61274 104.17 1.60756 103.677C2.40282 103.183 2.3324 102.32 2.47582 101.567C4.49813 90.9514 7.90903 80.806 12.5294 71.0383C14.1665 67.5795 16.4254 64.4233 17.5303 60.7104ZM163.393 127.758C166.777 125.957 169.994 124.925 172.535 122.653C182.33 113.895 184.94 93.2815 169.042 83.3517C164.089 80.2582 158.806 77.9654 153.111 75.626C154.053 67.9915 157.102 60.8473 158.093 53.0283C153.394 51.8627 148.992 50.3157 144.411 49.8187C142.539 57.1661 140.743 64.2103 138.885 71.5011C135.375 70.4252 131.76 70.5273 128.456 68.6647C129.648 61.2069 132.481 54.2198 133.255 46.7351C128.428 45.9763 124.341 44.095 119.656 43.8924C117.812 51.2564 116.026 58.3819 114.176 65.7707C104.885 64.3455 96.3553 61.1473 86.9836 59.4277C84.9245 64.0454 84.0128 68.9176 83.1865 74.1012C86.2391 74.8227 88.893 75.4606 91.5522 76.0763C98.2647 77.6301 100.104 81.3035 98.5101 87.1795C97.3763 91.3593 96.3532 95.5696 95.3094 99.7737C91.5584 114.886 87.8373 130.005 84.064 145.112C83.2139 148.516 81.0953 149.624 77.645 149.119C74.2471 148.621 71.0402 147.094 67.2953 147.205C65.6717 152.404 62.4399 156.985 61.2957 162.725C70.2195 165 78.8529 167.202 87.8788 169.503C87.1995 177.385 83.9367 184.598 82.9726 192.535C87.4972 193.621 91.7562 194.643 96.1979 195.709C99.1247 188.43 99.7998 180.781 102.528 173.253C105.816 174.945 109.464 174.453 112.682 176.583C110.928 183.841 109.181 191.07 107.412 198.39C112.065 200.057 116.604 200.737 121.266 201.899C123.153 194.33 124.978 187.01 126.743 179.932C127.842 179.367 128.646 179.472 129.405 179.634C136.712 181.2 144.104 181.565 151.501 180.744C157.904 180.032 163.586 177.588 168.145 172.777C173.214 167.427 175.761 160.882 176.987 153.842C177.986 148.108 177.731 142.297 174.367 137.221C171.732 133.244 168.111 130.209 163.393 127.758ZM110.568 157.639C119.582 159.88 128.587 162.277 138.019 160.554C143.049 159.634 146.839 157.066 148.366 152.001C149.805 147.224 148.968 142.883 145.429 139.107C141.747 135.181 137.013 133.14 132.132 131.433C126.3 129.394 120.388 127.542 114.016 127.038C111.574 136.972 109.205 146.615 106.782 156.469C108.326 156.951 109.431 157.357 110.568 157.639ZM142.409 116.01C147.394 115.301 151.528 112 152.742 107.514C154.228 102.03 152.568 97.2192 148.133 93.9475C143.102 90.2352 137.308 88.3466 131.322 87.0354C129.092 86.5467 126.899 85.2454 124.2 86.1238C122.055 94.8498 119.901 103.614 117.677 112.663C126.198 114.817 134.043 117.2 142.409 116.01Z" fill="#F39321"/>
</g>
<defs>
<clipPath id="clip0_242_93302">
<rect width="250" height="250" rx="125" fill="white"/>
</clipPath>
</defs>
</svg>
