<svg width="250" height="250" viewBox="0 0 250 250" fill="none" xmlns="http://www.w3.org/2000/svg">
<path d="M134.28 153.349C177.925 140.119 162.35 95.6335 134.28 93.9535C141.42 93.9535 147.23 73.8635 147.23 48.9785C215.76 53.7735 247.925 164.794 145.165 199.514C145.83 190.519 142.05 165.354 134.28 153.349Z" fill="black" stroke="black" stroke-width="0.0875114" stroke-miterlimit="10"/>
<path d="M39.1152 140.189C90.2502 140.189 131.655 99.4488 131.655 49.0488H83.8802C83.9852 73.7238 64.0002 93.9188 39.2202 94.0238H39.1152V140.189ZM101.695 131.824C88.7452 143.269 81.5002 149.184 46.0452 154.819C66.9752 154.819 83.8802 175.469 83.8802 200.984H131.655C131.655 193.319 130.045 154.749 101.695 131.824Z" fill="#FF6600"/>
</svg>
