<svg width="250" height="250" viewBox="0 0 250 250" fill="none" xmlns="http://www.w3.org/2000/svg">
<g clip-path="url(#clip0_242_94749)">
<path d="M125 250C194.034 250 250 194.034 250 125C250 55.966 194.034 0 125 0C55.966 0 0 55.966 0 125C0 194.034 55.966 250 125 250Z" fill="white"/>
<path d="M99.8711 77.9892C87.3836 77.7857 76.8541 81.2047 68.6921 91.6657C65.0601 80.9607 66.2031 71.3957 73.0181 62.8887C78.5686 55.8877 85.9551 52.1432 94.9741 52.1432C119.379 52.0617 143.824 52.0617 168.228 52.1432C175.574 52.1432 181.084 57.6382 181.247 64.7612C181.41 71.8842 176.146 77.5007 168.841 78.0302C168.106 78.0707 167.331 78.0707 166.596 78.0707C159.924 78.0707 153.251 78.0927 146.579 78.1147C131.01 78.1662 115.441 78.2172 99.8711 77.9892Z" fill="black"/>
<path fill-rule="evenodd" clip-rule="evenodd" d="M125 250C194.035 250 250 194.035 250 125C250 55.9645 194.035 0 125 0C55.9645 0 0 55.9645 0 125C0 194.035 55.9645 250 125 250ZM186.208 171.807H182.182C182.103 172.548 182.053 173.27 182.004 173.978C181.951 174.737 181.9 175.48 181.816 176.212C179.335 190.354 167.582 200.133 152.901 200.173C129.152 200.213 105.442 200.213 81.6925 200.173C80.3505 200.173 78.9675 200.051 77.6665 199.729C71.2 198.072 67.296 192.213 68.069 185.505C68.7195 179.444 74.169 174.514 80.594 174.434C85.9965 174.346 91.419 174.363 96.848 174.38C99.021 174.387 101.194 174.393 103.368 174.393C110.443 174.376 117.526 174.38 124.613 174.385C134.064 174.392 143.523 174.399 152.982 174.352C175.146 174.191 190.884 154.027 185.191 133.137C181.368 119.035 168.517 109.095 153.755 109.014C144.99 108.977 136.224 108.992 127.459 109.006C117.232 109.022 107.007 109.039 96.78 108.974C86.247 108.934 78.073 104.246 72.0135 95.2755C72.5665 94.6475 73.099 94.0065 73.629 93.3675C74.735 92.035 75.832 90.7125 77.097 89.538C82.709 84.366 89.3785 81.901 97.0645 81.901C120.937 81.9415 144.808 81.9415 168.68 81.901C180.676 81.8605 188.892 71.0715 185.557 59.8385C183.361 52.4845 176.691 47.7567 168.232 47.7567C144.604 47.7165 121.017 47.7165 97.4305 47.7567C95.6005 47.7567 93.73 47.8781 91.9405 48.1203C75.1855 50.545 62.8225 65.0105 63.7985 81.739C64.8155 99.882 78.927 113.055 96.6985 113.055C102.99 113.055 109.277 113.05 115.562 113.046C128.128 113.037 140.689 113.028 153.267 113.055C167.542 113.095 179.375 123.076 181.734 137.057C182.588 142.148 182.222 147.158 179.823 152.613C179.734 152.411 179.664 152.244 179.607 152.104C179.479 151.798 179.406 151.621 179.294 151.482C172.258 142.794 163.068 138.875 151.925 138.915C133.34 138.996 114.755 139.036 96.17 138.915C83.034 138.835 71.81 129.864 68.7195 117.216C68.353 115.76 68.143 114.245 67.9265 112.686C67.8305 111.996 67.734 111.296 67.6215 110.59H63.6765C63.758 116.449 65.1 121.864 68.069 126.713C74.6975 137.542 84.4575 143.077 97.227 143.118C107.824 143.164 118.409 143.158 128.987 143.151C136.919 143.146 144.849 143.141 152.779 143.158C162.824 143.158 170.836 147.158 176.854 155.199C177.668 156.29 177.668 157.059 176.854 158.189C172.258 164.372 166.24 168.332 158.635 169.706C156.439 170.069 154.202 170.191 151.965 170.191C140.152 170.211 128.348 170.211 116.549 170.211C104.751 170.211 92.957 170.211 81.1635 170.231C71.322 170.271 63.6765 177.787 63.636 187.242C63.5955 196.576 71.241 204.335 80.8385 204.415C85.1375 204.43 89.437 204.448 93.7365 204.466C113.796 204.55 133.85 204.634 153.877 204.335C167.378 204.133 177.22 197.425 183.239 185.344C185.313 181.141 186.248 176.616 186.208 171.807Z" fill="black"/>
</g>
<defs>
<clipPath id="clip0_242_94749">
<rect width="250" height="250" fill="white"/>
</clipPath>
</defs>
</svg>
