<svg width="250" height="250" viewBox="0 0 250 250" fill="none" xmlns="http://www.w3.org/2000/svg">
<g clip-path="url(#clip0_242_94086)">
<path d="M124.997 249.998C194.033 249.998 249.997 194.034 249.997 124.998C249.997 55.9624 194.033 -0.00195312 124.997 -0.00195312C55.9615 -0.00195312 -0.00292969 55.9624 -0.00292969 124.998C-0.00292969 194.034 55.9615 249.998 124.997 249.998Z" fill="#F8C24A"/>
<path d="M124.997 210.938C77.6064 210.938 39.0596 172.391 39.0596 125C39.0596 77.6094 77.6299 39.0625 124.997 39.0625C172.364 39.0625 210.935 77.6328 210.935 125C210.935 132.828 209.872 140.625 207.771 148.172C207.243 149.906 206.058 151.366 204.468 152.238C202.879 153.109 201.011 153.324 199.265 152.836C197.519 152.348 196.034 151.196 195.126 149.626C194.219 148.056 193.962 146.194 194.411 144.438C196.169 138.109 197.067 131.57 197.06 125C197.06 85.2656 164.731 52.9375 124.997 52.9375C85.2627 52.9375 52.9346 85.2656 52.9346 125C52.9346 164.734 85.2627 197.063 124.997 197.063C132.435 197.063 139.833 195.922 146.919 193.664C147.794 193.362 148.72 193.239 149.643 193.3C150.566 193.362 151.468 193.607 152.295 194.023C153.121 194.438 153.857 195.014 154.458 195.718C155.058 196.422 155.512 197.238 155.793 198.12C156.073 199.002 156.174 199.931 156.09 200.852C156.006 201.774 155.739 202.669 155.304 203.485C154.868 204.302 154.274 205.023 153.556 205.607C152.838 206.19 152.01 206.624 151.122 206.883C142.676 209.578 133.863 210.945 124.997 210.938ZM151.364 124.797C154.333 127.281 156.333 130.875 157.364 135.57C158.036 138.273 157.989 141.109 157.239 143.789C156.49 146.274 155.168 148.548 153.38 150.43C151.423 152.467 149.129 154.15 146.599 155.406C143.927 156.789 143.294 157.234 140.106 157.938L138.122 158.414C137.534 158.557 137.025 158.925 136.705 159.44C136.385 159.954 136.279 160.573 136.411 161.164L137.583 166.414C137.649 166.711 137.655 167.018 137.602 167.318C137.548 167.617 137.436 167.903 137.272 168.159C137.108 168.415 136.895 168.637 136.646 168.811C136.396 168.984 136.115 169.107 135.817 169.172L130.528 170.344C130.232 170.409 129.925 170.416 129.626 170.363C129.327 170.31 129.041 170.199 128.785 170.036C128.529 169.873 128.308 169.661 128.134 169.412C127.96 169.163 127.836 168.882 127.771 168.586L126.614 163.375C126.549 163.079 126.425 162.798 126.251 162.549C126.077 162.3 125.855 162.088 125.599 161.925C125.343 161.762 125.058 161.651 124.759 161.598C124.459 161.545 124.153 161.552 123.856 161.617L109.536 164.789C108.075 165.11 106.547 164.837 105.287 164.032C104.027 163.226 103.139 161.953 102.817 160.492L89.9268 102.219C89.6059 100.758 89.8784 99.2297 90.6841 97.9698C91.4899 96.7098 92.763 95.8215 94.2236 95.5L108.544 92.3281C108.84 92.2625 109.121 92.1391 109.37 91.9649C109.619 91.7908 109.831 91.5694 109.994 91.3133C110.157 91.0572 110.268 90.7715 110.321 90.4724C110.374 90.1733 110.367 89.8668 110.302 89.5703L109.13 84.3203C109.066 84.0233 109.06 83.7165 109.115 83.4175C109.169 83.1185 109.282 82.8331 109.447 82.5777C109.611 82.3223 109.825 82.1019 110.075 81.929C110.325 81.7562 110.606 81.6343 110.903 81.5703L116.192 80.3984C116.489 80.3328 116.795 80.3262 117.094 80.379C117.394 80.4318 117.679 80.543 117.935 80.7062C118.191 80.8694 118.413 81.0815 118.587 81.3303C118.761 81.5791 118.885 81.8598 118.95 82.1563L120.106 87.375C120.241 87.9724 120.607 88.4921 121.124 88.8201C121.641 89.1482 122.267 89.2578 122.864 89.125L127.239 88.1719C129.505 87.6406 131.872 87.6797 134.114 88.2891C136.255 88.875 138.255 89.875 139.997 91.2344C143.537 94.0609 146.002 98.0147 146.981 102.438C147.716 105.719 147.567 109.141 146.56 112.359C145.515 115.698 143.412 118.605 140.567 120.641C144.521 120.828 148.302 122.281 151.364 124.797ZM108.942 112.32L109.708 115.648C110.029 117.109 110.918 118.382 112.178 119.188C113.438 119.994 114.966 120.266 116.427 119.945L126.638 117.68C128.365 117.312 129.896 116.319 130.935 114.891C132.036 113.422 132.317 111.453 131.771 108.977C131.263 106.695 130.271 105.07 128.802 104.102C128.111 103.627 127.329 103.303 126.506 103.149C125.682 102.996 124.835 103.017 124.021 103.211L113.239 105.594C112.515 105.753 111.83 106.053 111.222 106.477C110.614 106.902 110.096 107.442 109.697 108.066C109.297 108.691 109.025 109.388 108.896 110.118C108.767 110.848 108.782 111.596 108.942 112.32ZM139.481 141.75H139.497C140.029 140.889 140.38 139.929 140.527 138.929C140.675 137.928 140.617 136.907 140.356 135.93C139.97 133.932 138.881 132.139 137.286 130.875C136.576 130.285 135.738 129.868 134.84 129.656C133.941 129.445 133.005 129.445 132.106 129.656L119.169 132.523C117.708 132.845 116.435 133.733 115.629 134.993C114.824 136.253 114.551 137.781 114.872 139.242L115.778 143.359C115.937 144.083 116.238 144.769 116.662 145.377C117.086 145.985 117.626 146.503 118.251 146.902C118.876 147.301 119.573 147.573 120.303 147.703C121.033 147.832 121.781 147.816 122.505 147.656L134.763 144.945C135.726 144.764 136.642 144.387 137.454 143.838C138.266 143.288 138.956 142.577 139.481 141.75ZM165.247 183.805L177.224 169.492C177.489 169.176 177.658 168.791 177.711 168.382C177.765 167.973 177.7 167.558 177.525 167.184C177.351 166.811 177.073 166.495 176.724 166.274C176.376 166.053 175.972 165.936 175.56 165.938H167.497C167.212 165.939 166.93 165.883 166.667 165.775C166.403 165.667 166.164 165.508 165.962 165.306C165.76 165.105 165.6 164.866 165.491 164.603C165.381 164.34 165.325 164.058 165.325 163.773V162.086C165.325 160.891 166.294 159.922 167.497 159.922H185.919C186.493 159.922 187.043 160.15 187.449 160.556C187.855 160.962 188.083 161.512 188.083 162.086V164.305C188.083 164.793 187.918 165.266 187.614 165.648L176.153 180.039C175.898 180.358 175.739 180.742 175.693 181.147C175.647 181.553 175.717 181.963 175.894 182.331C176.071 182.698 176.349 183.008 176.695 183.225C177.041 183.441 177.441 183.556 177.849 183.555H186.06C187.255 183.555 188.231 184.523 188.231 185.719V187.398C188.231 187.683 188.175 187.965 188.066 188.228C187.957 188.491 187.797 188.73 187.595 188.931C187.393 189.133 187.154 189.292 186.89 189.4C186.627 189.508 186.344 189.564 186.06 189.563H166.903C166.329 189.563 165.779 189.335 165.373 188.929C164.967 188.523 164.739 187.972 164.739 187.398V185.211C164.738 184.697 164.918 184.199 165.247 183.805Z" fill="white"/>
</g>
<defs>
<clipPath id="clip0_242_94086">
<rect width="250" height="250" rx="125" fill="white"/>
</clipPath>
</defs>
</svg>
