<svg width="250" height="250" viewBox="0 0 250 250" fill="none" xmlns="http://www.w3.org/2000/svg">
<g clip-path="url(#clip0_242_94088)">
<path d="M124.998 249.998C194.034 249.998 249.998 194.034 249.998 124.998C249.998 55.9624 194.034 -0.00195312 124.998 -0.00195312C55.9624 -0.00195312 -0.00195312 55.9624 -0.00195312 124.998C-0.00195312 194.034 55.9624 249.998 124.998 249.998Z" fill="#00AAFF"/>
<path d="M124.698 38.5898C77.1357 38.5898 38.5889 77.1367 38.5889 124.699C38.5889 172.254 77.1357 210.816 124.698 210.816C172.253 210.816 210.815 172.254 210.815 124.699C210.815 77.1367 172.253 38.5898 124.698 38.5898ZM124.972 52.2305C131.862 52.2283 138.651 53.8902 144.761 57.0747C150.871 60.2593 156.122 64.8723 160.067 70.5216C164.012 76.1708 166.534 82.6892 167.419 89.5224C168.305 96.3556 167.527 103.302 165.151 109.77C161.452 109.12 157.659 109.222 154 110.071C150.341 110.919 146.891 112.496 143.854 114.707C146.51 112.167 148.623 109.115 150.066 105.735C151.508 102.355 152.249 98.7178 152.245 95.043C152.243 87.8039 149.368 80.8616 144.251 75.7407C139.135 70.6197 132.195 67.7388 124.956 67.7305C118.2 67.7359 111.685 70.2461 106.672 74.7757C101.659 79.3054 98.5036 85.5327 97.8154 92.2539C92.6832 91.337 87.4338 91.2842 82.2842 92.0977C83.0264 81.2813 87.846 71.1498 95.7696 63.7498C103.693 56.3497 114.13 52.2327 124.972 52.2305ZM140.714 132.637L125.573 123.574C125.08 123.277 124.513 123.121 123.937 123.125C123.361 123.13 122.797 123.293 122.308 123.598L109.026 131.801C108.507 132.118 108.091 132.579 107.83 133.129C107.57 133.678 107.475 134.292 107.558 134.895C107.907 137.42 107.722 139.992 107.015 142.442C106.308 144.892 105.094 147.166 103.453 149.117C101.812 151.069 99.7788 152.654 97.4861 153.77C95.1934 154.886 92.692 155.509 90.1436 155.598C87.7107 155.674 85.2874 155.26 83.0177 154.381C80.748 153.502 78.6784 152.175 76.932 150.48C75.1855 148.784 73.798 146.755 72.8519 144.512C71.9058 142.27 71.4205 139.86 71.4248 137.426C71.4522 132.671 73.3339 128.116 76.6694 124.728C80.0049 121.339 84.5309 119.387 89.2842 119.285C91.8945 119.241 94.4836 119.761 96.8743 120.81C99.265 121.859 101.401 123.412 103.136 125.363C104.104 126.457 105.714 126.691 106.979 125.988L119.776 118.809C120.262 118.534 120.667 118.135 120.949 117.654C121.232 117.172 121.383 116.625 121.386 116.066V115.285C121.382 114.625 121.171 113.983 120.782 113.449C120.394 112.915 119.848 112.516 119.222 112.309C115.06 110.921 111.541 108.074 109.314 104.293C107.087 100.513 106.303 96.0549 107.107 91.7418C107.91 87.4287 110.247 83.552 113.686 80.8273C117.124 78.1027 121.433 76.7141 125.815 76.918C130.241 77.1463 134.432 78.9791 137.604 82.0735C140.776 85.1679 142.712 89.312 143.05 93.7305C143.364 97.9653 142.183 102.176 139.711 105.629C137.24 109.083 133.636 111.56 129.526 112.629C128.844 112.797 128.237 113.188 127.801 113.74C127.365 114.292 127.126 114.973 127.12 115.676V115.809C127.12 116.902 127.698 117.91 128.62 118.488L142.065 126.754C142.712 127.156 143.484 127.308 144.234 127.181C144.985 127.055 145.664 126.658 146.144 126.066C147.891 123.885 150.119 122.137 152.653 120.959C155.187 119.78 157.959 119.202 160.753 119.27C165.57 119.455 170.117 121.547 173.392 125.084C176.667 128.622 178.403 133.315 178.218 138.133C178.032 142.95 175.941 147.497 172.403 150.772C168.866 154.047 164.172 155.783 159.354 155.598C156.901 155.464 154.499 154.835 152.295 153.749C150.091 152.663 148.129 151.142 146.528 149.278C144.926 147.414 143.719 145.245 142.977 142.902C142.236 140.559 141.976 138.09 142.214 135.645C142.276 135.052 142.168 134.455 141.903 133.922C141.637 133.389 141.224 132.943 140.714 132.637ZM89.5654 179.77C84.0018 179.772 78.4922 178.677 73.3516 176.549C68.2109 174.422 63.54 171.302 59.6055 167.368C55.671 163.434 52.5502 158.764 50.4213 153.623C48.2924 148.483 47.1972 142.974 47.1982 137.41C47.1942 131.158 48.5744 124.983 51.2399 119.327C53.9053 113.672 57.7898 108.677 62.6145 104.7C67.4393 100.724 73.0845 97.8653 79.145 96.3293C85.2054 94.7933 91.5308 94.6181 97.667 95.8164C97.87 102.979 100.884 109.773 106.058 114.73C101.278 111.238 95.5088 109.36 89.5889 109.371C82.2325 109.494 75.2189 112.502 70.06 117.748C64.9011 122.994 62.0101 130.057 62.0101 137.414C62.0101 144.771 64.9011 151.834 70.06 157.08C75.2189 162.326 82.2325 165.334 89.5889 165.457C95.1944 165.456 100.671 163.773 105.309 160.625C109.947 157.477 113.534 153.01 115.604 147.801C116.94 153.629 119.409 159.012 122.737 163.762C118.775 168.762 113.733 172.8 107.988 175.573C102.243 178.347 95.9448 179.784 89.5654 179.777V179.77ZM160.315 179.77C149.578 179.769 139.241 175.692 131.394 168.362C123.546 161.033 118.774 150.998 118.042 140.285C122.811 141.011 127.665 140.982 132.425 140.199C132.93 145.27 134.808 150.107 137.855 154.191C140.903 158.275 145.005 161.451 149.722 163.379C154.439 165.307 159.592 165.913 164.628 165.133C169.663 164.353 174.391 162.216 178.303 158.951C182.216 155.686 185.165 151.417 186.833 146.602C188.502 141.788 188.828 136.609 187.775 131.624C186.723 126.638 184.332 122.033 180.859 118.304C177.387 114.575 172.964 111.862 168.065 110.457C169.692 105.919 170.583 101.151 170.706 96.332C180.705 98.8803 189.431 104.99 195.247 113.514C201.062 122.038 203.567 132.391 202.292 142.631C201.017 152.871 196.049 162.294 188.32 169.131C180.592 175.969 170.634 179.752 160.315 179.77Z" fill="white"/>
<path d="M124.994 23.4355C68.9082 23.4355 23.4316 68.9121 23.4316 124.998C23.4316 181.084 68.9082 226.561 124.994 226.561C181.08 226.561 226.557 181.084 226.557 124.998C226.557 68.9121 181.08 23.4355 124.994 23.4355ZM124.697 218.92C72.666 218.92 30.4941 176.748 30.4941 124.717C30.4941 72.6855 72.666 30.5215 124.697 30.5215C176.721 30.5215 218.893 72.6934 218.893 124.717C218.893 176.748 176.721 218.92 124.697 218.92Z" fill="white"/>
</g>
<defs>
<clipPath id="clip0_242_94088">
<rect width="250" height="250" rx="125" fill="white"/>
</clipPath>
</defs>
</svg>
