<svg width="250" height="250" viewBox="0 0 250 250" fill="none" xmlns="http://www.w3.org/2000/svg">
<rect width="250" height="250" rx="125" fill="white"/>
<g opacity="0.8">
<path opacity="0.8" d="M98.8713 66.2007L145.13 112.459L105.891 40.002L73.0831 73.1027L98.8713 66.2007ZM151.133 183.803L104.874 137.545L144.113 210.002L176.901 176.901L151.133 183.803ZM66.2007 151.133L95.8605 88.2547L50.4621 133.673L40.002 144.113L73.1027 176.901L66.2007 151.133ZM183.823 98.8517L137.545 145.13L210.002 105.891L176.901 73.0831L183.823 98.8517Z" fill="#040000"/>
</g>
<g opacity="0.8">
<path opacity="0.8" d="M161.731 95.841L116.332 50.4621L105.891 40.002L145.131 112.459L161.731 95.841ZM88.275 154.143L144.114 210.002L104.875 137.545L88.275 154.143ZM112.46 104.874L95.8612 88.2547L66.2012 151.133L112.46 104.874ZM154.144 161.73L210.003 105.891L137.546 145.13L154.144 161.73Z" fill="#323333"/>
</g>
<g opacity="0.8">
<path opacity="0.8" d="M53.942 53.9224L40.002 105.891L68.3911 90.6407L53.942 53.9224ZM196.081 196.081L210.002 144.113L181.614 159.344L196.081 196.081ZM53.942 196.062L105.891 210.002L90.6603 181.594L53.942 196.062ZM196.081 53.9224L144.113 40.002L159.345 68.3911L196.081 53.9224Z" fill="#555555"/>
</g>
<g opacity="0.8">
<path opacity="0.8" d="M73.0831 73.1027L105.891 40.002L53.942 53.9224L68.3911 90.6407L73.0831 73.1027ZM176.901 176.901L144.113 210.002L196.081 196.081L181.614 159.344L176.901 176.901ZM73.1027 176.901L40.002 144.113L53.942 196.062L90.6603 181.594L73.1027 176.901ZM176.901 73.0831L210.002 105.891L196.081 53.9224L159.345 68.3911L176.901 73.0831Z" fill="#323333"/>
</g>
<g opacity="0.8">
<path opacity="0.8" d="M68.3911 90.6407L40.002 105.891L46.5912 112.459L68.3911 90.6407ZM181.614 159.344L210.002 144.113L203.413 137.545L181.614 159.344ZM105.891 210.002L112.459 203.413L90.6603 181.594L105.891 210.002ZM144.113 40.002L137.545 46.5912L159.345 68.3911L144.113 40.002Z" fill="#040000"/>
</g>
</svg>
