<svg width="250" height="250" viewBox="0 0 250 250" fill="none" xmlns="http://www.w3.org/2000/svg">
<path d="M185.649 34.854L135.008 5.15012C128.9 1.55413 121.314 1.55413 115.205 5.15012L26.9286 56.8733C21.1157 60.2722 17.5196 66.5775 17.5689 73.3261L17.7166 100.074L117.915 40.9622C122.2 38.45 127.521 38.4007 131.856 40.913L185.501 71.8976L185.649 34.854Z" fill="url(#paint0_linear_242_93308)"/>
<path d="M18.5077 117.218L17.2269 175.936C17.0791 183.03 20.7738 189.631 26.8822 193.227L115.06 245.098C120.873 248.546 128.115 248.595 133.977 245.245L157.278 232.093L56.8332 173.375C52.5475 170.863 49.8873 166.232 49.9859 161.208L50.8726 99.2383L18.5077 117.218Z" fill="url(#paint1_linear_242_93308)"/>
<path d="M172.742 224.708L223.826 195.693C229.984 192.196 233.777 185.644 233.728 178.551L232.989 73.5776C232.939 66.8289 229.294 60.5729 223.432 57.2725L200.18 44.0215L201.363 163.034C201.412 168.009 198.752 172.64 194.466 175.152L140.82 206.186L172.742 224.708Z" fill="url(#paint2_linear_242_93308)"/>
<path d="M125.158 99.3832C118.409 99.3832 112.054 100.861 106.291 103.521V65.9355L80.2313 81.9451V141.747C80.1821 142.634 80.1328 143.52 80.1328 144.407C80.1328 169.283 100.281 189.431 125.158 189.431C150.035 189.431 170.183 169.283 170.183 144.407C170.183 119.531 149.986 99.3832 125.158 99.3832ZM125.158 163.126C114.813 163.126 106.438 154.752 106.438 144.407C106.438 134.062 114.813 125.688 125.158 125.688C135.503 125.688 143.877 134.062 143.877 144.407C143.877 154.752 135.503 163.126 125.158 163.126Z" fill="url(#paint3_linear_242_93308)"/>
<defs>
<linearGradient id="paint0_linear_242_93308" x1="101.608" y1="4.15437" x2="101.608" y2="243.759" gradientUnits="userSpaceOnUse">
<stop stop-color="#FAC731"/>
<stop offset="1" stop-color="#E7AC1F"/>
</linearGradient>
<linearGradient id="paint1_linear_242_93308" x1="87.2499" y1="4.15568" x2="87.2499" y2="243.76" gradientUnits="userSpaceOnUse">
<stop stop-color="#FAC731"/>
<stop offset="1" stop-color="#E7AC1F"/>
</linearGradient>
<linearGradient id="paint2_linear_242_93308" x1="187.241" y1="4.1595" x2="187.241" y2="243.764" gradientUnits="userSpaceOnUse">
<stop stop-color="#FAC731"/>
<stop offset="1" stop-color="#E7AC1F"/>
</linearGradient>
<linearGradient id="paint3_linear_242_93308" x1="125.144" y1="4.15279" x2="125.144" y2="243.758" gradientUnits="userSpaceOnUse">
<stop stop-color="#FAC731"/>
<stop offset="1" stop-color="#E7AC1F"/>
</linearGradient>
</defs>
</svg>
