<svg width="250" height="250" viewBox="0 0 250 250" fill="none" xmlns="http://www.w3.org/2000/svg">
<rect width="250" height="250" rx="125" fill="white"/>
<path d="M123.908 141.999C123.908 141.999 119.257 144.582 117.706 145.457C101.024 128.584 84.4186 111.789 67.373 94.5478C67.373 73.0435 67.373 28.2051 67.373 28.2051L84.643 44.5359L124.013 83.9178C124.013 83.9178 123.972 87.8082 123.968 89.2598C123.926 105.511 123.908 141.999 123.908 141.999Z" fill="#0B5079"/>
<path d="M109.763 157.234C95.7906 157.234 81.7494 157.234 67.4082 157.234C67.4082 140.146 67.4082 123.105 67.4082 106.426C81.9818 121.247 96.7906 136.307 111.599 151.368C111.945 151.07 110.758 154.894 109.763 157.234Z" fill="#0B5079"/>
<path d="M138.67 145.146C136.928 144.073 134.69 142.875 131.951 142.287C131.951 128.263 131.951 114.278 131.951 100.306C141.843 98.6123 161.573 106.825 168.894 114.99C158.922 124.94 148.957 134.881 138.67 145.146Z" fill="#79C5EB"/>
<path d="M189.702 164.35C188.874 178.864 183.35 190.977 174.227 201.596C164.193 191.448 154.328 181.471 144.145 171.172C145.194 169.488 146.29 167.086 147.073 164.35C161.151 164.35 175.159 164.35 189.702 164.35Z" fill="#2781AC"/>
<path d="M168.628 207.098C158.287 215.835 146.183 220.849 132.057 221.847C132.057 207.553 132.057 193.561 132.057 179.471C134.285 178.527 136.495 177.592 138.78 176.625C148.608 186.659 158.481 196.739 168.628 207.098Z" fill="#2781AC"/>
<path d="M113.002 171.239C102.873 181.474 93.0101 191.442 82.9073 201.65C73.4273 191.03 68.3349 178.752 67.2129 164.396C81.4597 164.396 95.4713 164.396 109.92 164.396C110.619 166.622 111.531 169.113 113.002 171.239Z" fill="#175B8C"/>
<path d="M189.458 157.184C175.271 157.184 161.365 157.184 147.277 157.184C146.293 154.829 145.326 152.514 144.529 150.608C154.616 140.436 164.473 130.495 174.327 120.557C182.761 128.431 189.375 144.281 189.458 157.184Z" fill="#4FA1D2"/>
<path d="M121.022 221.486C108.59 219.843 97.5447 215.039 88.1855 206.883C98.2099 196.927 108.192 187.014 118.505 176.771C119.843 177.329 121.926 178.197 124.009 179.065C123.977 192.047 123.921 221.847 123.921 221.847C123.921 221.847 122.264 221.65 121.022 221.486Z" fill="#175B8C"/>
</svg>
