<svg width="250" height="250" viewBox="0 0 250 250" fill="none" xmlns="http://www.w3.org/2000/svg">
<g clip-path="url(#clip0_242_94094)">
<path d="M124.998 249.998C194.034 249.998 249.998 194.034 249.998 124.998C249.998 55.9624 194.034 -0.00195312 124.998 -0.00195312C55.9624 -0.00195312 -0.00195312 55.9624 -0.00195312 124.998C-0.00195312 194.034 55.9624 249.998 124.998 249.998Z" fill="#FB2EA3"/>
<path d="M176.811 109.527C175.037 121.52 168.389 127.324 159.568 129.355C171.678 135.66 177.85 145.34 171.975 162.105C164.686 182.934 147.373 184.684 124.35 180.332L118.748 202.73L105.248 199.363L110.764 177.27C107.165 176.376 103.576 175.444 99.9981 174.473L94.4668 196.676L80.9746 193.316L86.5684 170.871C83.4121 170.066 80.209 169.207 76.9355 168.387L59.3652 164.012L66.0684 148.543C66.0684 148.543 76.0215 151.199 75.8809 150.996C79.709 151.941 81.4043 149.449 82.0762 147.793L90.9043 112.387L92.334 112.738C91.8756 112.559 91.4058 112.41 90.9277 112.293L97.2246 87.0195C97.3887 84.1445 96.4043 80.5352 90.9356 79.1602C91.1465 79.0195 81.1231 76.7227 81.1231 76.7227L84.7168 62.3008L103.342 66.9492L103.326 67.0273C106.123 67.7148 109.014 68.3789 111.951 69.0508L117.49 46.8711L130.99 50.2305L125.568 71.9805C129.186 72.8086 132.834 73.6367 136.381 74.5273L141.771 52.9258L155.272 56.2852L149.74 78.4727C166.795 84.3477 179.264 93.1523 176.811 109.527ZM145.951 152.793C150.326 135.309 120.967 130.785 111.811 128.496L104.396 158.223C113.553 160.496 141.787 169.566 145.959 152.793H145.951ZM150.131 109.285C154.1 93.3711 129.553 89.832 121.928 87.9258L115.209 114.887C122.826 116.793 146.326 124.543 150.131 109.285ZM189.428 168.887C188.773 168.799 188.108 168.842 187.469 169.012C186.831 169.182 186.233 169.477 185.709 169.879C184.694 170.75 184.005 171.94 183.756 173.254C183.596 173.985 183.543 174.735 183.6 175.48C183.667 176.33 183.94 177.151 184.397 177.871C184.865 178.652 185.615 179.387 186.631 180.074C187.647 180.754 189.053 181.301 190.85 181.715C191.818 181.949 192.818 182.059 193.842 182.051C194.873 182.051 195.826 181.887 196.701 181.559C197.627 181.232 198.451 180.671 199.095 179.93C199.739 179.189 200.179 178.294 200.373 177.332C200.557 176.646 200.604 175.931 200.51 175.227C200.416 174.523 200.184 173.844 199.826 173.23C199.107 172.027 197.928 171.105 196.279 170.465L197.482 165.262C200.451 166.457 202.529 168.168 203.732 170.379C204.936 172.598 205.186 175.23 204.482 178.277C204.127 179.967 203.421 181.564 202.412 182.965C201.505 184.201 200.343 185.227 199.005 185.974C197.666 186.721 196.182 187.171 194.654 187.293C192.974 187.445 191.279 187.321 189.639 186.926C187.951 186.549 186.331 185.917 184.834 185.051C183.454 184.26 182.25 183.197 181.295 181.926C180.366 180.663 179.731 179.208 179.436 177.668C179.12 175.901 179.187 174.087 179.631 172.348C179.93 171.027 180.411 169.754 181.061 168.566C181.693 167.41 182.467 166.434 183.397 165.637C184.318 164.84 185.381 164.262 186.584 163.902C187.795 163.535 189.139 163.465 190.631 163.676L189.428 168.887ZM210.459 152.379C210.091 154.116 209.376 155.761 208.357 157.215C207.397 158.543 206.248 159.59 204.92 160.363C203.546 161.144 202.024 161.628 200.451 161.785C198.706 161.96 196.945 161.838 195.24 161.426C193.542 161.051 191.92 160.39 190.443 159.473C189.1 158.643 187.945 157.541 187.053 156.238C186.177 154.929 185.591 153.448 185.334 151.895C185.059 150.144 185.138 148.356 185.568 146.637C185.937 144.9 186.651 143.255 187.67 141.801C188.639 140.473 189.779 139.418 191.115 138.652C192.489 137.872 194.012 137.388 195.584 137.23C197.225 137.051 198.943 137.168 200.74 137.582C202.453 137.957 204.09 138.617 205.584 139.535C206.99 140.426 208.115 141.504 208.975 142.777C209.834 144.051 210.404 145.496 210.693 147.113C210.97 148.866 210.89 150.657 210.459 152.379ZM189.959 130.52L191.092 125.637L195.654 126.691L195.678 126.598C195.041 126.27 194.475 125.818 194.014 125.27C192.954 124.037 192.251 122.537 191.982 120.934C191.852 120.124 191.878 119.296 192.061 118.496C192.202 117.837 192.401 117.191 192.654 116.566L197.678 117.723C197.531 118.081 197.393 118.443 197.264 118.809C197.133 119.169 197.023 119.537 196.936 119.91C196.72 120.767 196.7 121.662 196.879 122.528C197.057 123.394 197.429 124.208 197.967 124.91C198.575 125.696 199.328 126.359 200.186 126.863C201.115 127.434 202.232 127.871 203.545 128.176L214.779 130.77L213.576 135.973L189.959 130.52ZM207.772 113.41C208.678 113.629 209.592 113.699 210.506 113.645C211.374 113.59 212.223 113.367 213.006 112.988C213.782 112.608 214.463 112.058 214.998 111.379C215.602 110.583 216.018 109.662 216.217 108.684C216.579 107.399 216.533 106.034 216.084 104.777C215.577 103.621 214.715 102.655 213.623 102.02L214.756 97.0898C216.451 97.8601 217.899 99.0847 218.94 100.628C219.981 102.171 220.574 103.972 220.654 105.832C220.732 107.082 220.623 108.348 220.334 109.629C219.904 111.488 219.217 113.066 218.279 114.355C217.378 115.621 216.207 116.67 214.85 117.427C213.494 118.184 211.986 118.629 210.436 118.73C207.013 119.004 203.592 118.195 200.654 116.418C199.311 115.578 198.14 114.491 197.201 113.215C196.288 111.955 195.646 110.518 195.318 108.996C194.967 107.449 195.006 105.793 195.404 104.02C195.777 102.275 196.574 100.649 197.725 99.2851C198.803 98.0212 200.144 97.008 201.654 96.3164C203.199 95.6325 204.864 95.2607 206.553 95.2227C208.318 95.1602 210.053 95.4414 211.772 96.0586L207.764 113.418L207.772 113.41ZM206.35 151.434C206.607 150.433 206.608 149.383 206.351 148.382C206.094 147.38 205.588 146.46 204.881 145.707C204.198 144.962 203.388 144.343 202.49 143.879C200.626 142.898 198.541 142.414 196.436 142.473C195.425 142.492 194.427 142.696 193.49 143.074C192.528 143.445 191.675 144.053 191.01 144.841C190.345 145.629 189.89 146.571 189.686 147.582C189.425 148.579 189.421 149.626 189.672 150.626C189.923 151.625 190.422 152.545 191.123 153.301C191.772 154.035 192.568 154.637 193.514 155.129C195.379 156.106 197.463 156.59 199.568 156.535C200.581 156.51 201.58 156.306 202.522 155.934C203.487 155.567 204.344 154.962 205.013 154.175C205.682 153.388 206.142 152.445 206.35 151.434ZM207.147 100.473C206.319 100.343 205.477 100.335 204.647 100.449C203.856 100.538 203.091 100.781 202.396 101.166C201.7 101.551 201.087 102.069 200.592 102.691C200.08 103.384 199.712 104.172 199.51 105.01C199.309 105.847 199.278 106.717 199.42 107.566C199.576 108.387 199.865 109.129 200.303 109.793C201.267 111.19 202.7 112.196 204.342 112.629L207.147 100.473Z" fill="white"/>
</g>
<defs>
<clipPath id="clip0_242_94094">
<rect width="250" height="250" rx="125" fill="white"/>
</clipPath>
</defs>
</svg>
