<svg width="250" height="250" viewBox="0 0 250 250" fill="none" xmlns="http://www.w3.org/2000/svg">
<path d="M114.635 84.014V39.214C114.635 38.759 114.18 38.339 113.76 38.759L44.8105 78.309L44.3555 78.764V123.564C44.3555 124.439 45.2305 124.439 45.6855 124.439L114.215 84.889C114.215 84.469 114.635 84.469 114.635 84.014Z" fill="url(#paint0_linear_242_93310)"/>
<path d="M114.636 140.225V109.04C114.636 108.585 114.181 108.165 113.761 108.585L86.5307 124.405C86.0757 124.86 86.0757 125.28 86.5307 125.735L113.341 141.1C113.761 141.135 114.636 141.135 114.636 140.225Z" fill="url(#paint1_linear_242_93310)"/>
<path d="M183.165 66.8989V156.954C183.165 157.409 183.165 157.409 182.71 157.409L163.39 168.819C162.935 169.274 162.515 168.819 162.515 168.364V54.6139C162.515 54.1589 162.515 54.1589 162.06 54.1589L136.16 39.2139C135.705 38.7589 135.285 39.2139 135.285 39.6689V73.0589V177.149V210.539C135.285 210.994 135.74 211.414 136.16 210.994L204.69 171.444L205.145 170.989V79.1839C205.145 78.7289 205.145 78.7289 204.69 78.7289L184.04 66.8639C183.62 66.4439 183.165 66.4439 183.165 66.8989Z" fill="url(#paint2_linear_242_93310)"/>
<path d="M114.214 165.283L45.6836 125.733C45.2286 125.278 44.8086 125.733 44.8086 126.188V170.988C44.8086 171.443 44.8086 171.443 45.2636 171.443L113.794 210.993C114.249 211.448 114.669 210.993 114.669 210.538V165.738C114.634 165.283 114.214 165.283 114.214 165.283Z" fill="url(#paint3_linear_242_93310)"/>
<defs>
<linearGradient id="paint0_linear_242_93310" x1="79.5069" y1="48.6009" x2="79.5069" y2="192.825" gradientUnits="userSpaceOnUse">
<stop stop-color="#00D080"/>
<stop offset="1" stop-color="#0BDD60"/>
</linearGradient>
<linearGradient id="paint1_linear_242_93310" x1="100.426" y1="48.602" x2="100.426" y2="192.826" gradientUnits="userSpaceOnUse">
<stop stop-color="#00D080"/>
<stop offset="1" stop-color="#0BDD60"/>
</linearGradient>
<linearGradient id="paint2_linear_242_93310" x1="170.212" y1="48.6007" x2="170.212" y2="192.824" gradientUnits="userSpaceOnUse">
<stop stop-color="#00D080"/>
<stop offset="1" stop-color="#0BDD60"/>
</linearGradient>
<linearGradient id="paint3_linear_242_93310" x1="79.7247" y1="48.6002" x2="79.7247" y2="192.824" gradientUnits="userSpaceOnUse">
<stop stop-color="#00D080"/>
<stop offset="1" stop-color="#0BDD60"/>
</linearGradient>
</defs>
</svg>
