<svg width="250" height="250" viewBox="0 0 250 250" fill="none" xmlns="http://www.w3.org/2000/svg">
<g clip-path="url(#clip0_242_93311)">
<path d="M125 250C194.036 250 250 194.036 250 125C250 55.9644 194.036 0 125 0C55.9644 0 0 55.9644 0 125C0 194.036 55.9644 250 125 250Z" fill="#FACFD8"/>
<path d="M95.6865 162.094C100.03 162.094 103.655 163.531 106.593 166.406C109.53 169.281 110.999 172.938 110.999 177.406C110.999 181.875 109.53 185.5 106.593 188.312C103.655 191.125 100.03 192.531 95.6865 192.531C91.4678 192.531 87.874 191.125 84.874 188.312C81.874 185.5 80.374 181.875 80.374 177.406C80.374 172.938 81.874 169.281 84.874 166.406C87.874 163.5 91.499 162.094 95.6865 162.094ZM154.218 162.094C158.562 162.094 162.187 163.531 165.124 166.406C168.062 169.281 169.53 172.938 169.53 177.406C169.53 181.875 168.062 185.5 165.124 188.312C162.187 191.125 158.562 192.531 154.218 192.531C149.999 192.531 146.405 191.125 143.405 188.312C140.405 185.5 138.905 181.875 138.905 177.406C138.905 172.938 140.405 169.281 143.405 166.406C146.405 163.5 150.03 162.094 154.218 162.094ZM108.124 57.5312V93.0937V93.875C108.124 97.125 108.062 100.281 107.999 103.375C113.499 102.687 119.124 102.375 124.874 102.375C130.749 102.375 136.499 102.719 142.124 103.438C142.03 100.094 141.999 96.6562 141.999 93.0937V57.5312H166.687V93.0937V93.875C166.687 99.0937 166.562 104.125 166.374 108.906C167.968 109.438 169.53 110 171.093 110.594C185.53 116.094 198.405 123.562 209.749 133.031L199.937 147.938L199.437 147.562C189.155 140.031 177.812 134.125 165.405 129.875C165.218 129.812 165.03 129.75 164.843 129.688C164.218 136 163.499 142.344 162.687 148.719H146.249L146.03 147.156C144.968 139.625 144.124 132.125 143.437 124.656C137.437 123.812 131.28 123.406 124.937 123.406C118.718 123.406 112.687 123.812 106.843 124.625C106.124 132.625 105.249 140.656 104.187 148.75H87.749L87.5303 147.188C86.7178 141.312 85.999 135.469 85.4053 129.625L85.0928 129.719L84.5303 129.906C71.9678 134.219 60.4053 140.25 49.9053 147.938L39.999 133L40.4678 132.594C51.6865 123.312 64.4365 115.969 78.6553 110.562C80.3428 109.906 82.0303 109.312 83.749 108.75C83.5303 103.75 83.4365 98.5 83.4365 93.0625V57.5312H108.124Z" fill="#EC6998"/>
</g>
<defs>
<clipPath id="clip0_242_93311">
<rect width="250" height="250" rx="125" fill="white"/>
</clipPath>
</defs>
</svg>
