<svg width="250" height="250" viewBox="0 0 250 250" fill="none" xmlns="http://www.w3.org/2000/svg">
<rect width="250" height="250" rx="125" fill="white"/>
<g clip-path="url(#clip0_242_94574)">
<path d="M130.017 48.5059H51.88C50.9773 48.5058 50.0834 48.6836 49.2494 49.0291C48.4153 49.3745 47.6575 49.8809 47.0192 50.5192C46.3809 51.1575 45.8745 51.9153 45.5291 52.7494C45.1836 53.5834 45.0058 54.4773 45.0059 55.38V133.517C45.0059 180.467 83.0665 218.528 130.017 218.528C176.967 218.528 215.028 180.467 215.028 133.517C215.028 86.5665 176.967 48.5059 130.017 48.5059ZM94.0773 69.0105C94.0858 67.4274 94.7206 65.912 95.843 64.7956C96.9654 63.6791 98.4842 63.0524 100.067 63.0524C101.65 63.0524 103.169 63.6791 104.292 64.7956C105.414 65.912 106.049 67.4274 106.057 69.0105V132.135C106.057 144.584 116.186 154.712 128.635 154.712C141.084 154.712 151.212 144.584 151.212 132.135C151.212 119.3 141.201 108.503 128.421 107.553C126.837 107.435 125.364 106.692 124.327 105.489C123.29 104.285 122.774 102.719 122.892 101.135C123.009 99.5507 123.752 98.0781 124.955 97.0412C126.159 96.0042 127.725 95.4878 129.309 95.6056C138.523 96.2994 147.134 100.449 153.417 107.223C159.7 113.997 163.192 122.895 163.192 132.135C163.192 151.19 147.69 166.692 128.635 166.692C109.58 166.692 94.0773 151.19 94.0773 132.135V69.0105ZM128.865 201.48C90.7549 201.48 59.751 170.475 59.751 132.366V69.2402C59.7595 67.6571 60.3943 66.1417 61.5167 65.0253C62.6391 63.9088 64.1579 63.2821 65.741 63.2821C67.3241 63.2821 68.8429 63.9088 69.9653 65.0253C71.0877 66.1417 71.7225 67.6571 71.731 69.2402V132.365C71.731 163.869 97.3613 189.5 128.866 189.5C160.37 189.5 186 163.869 186 132.365C186 100.861 160.369 75.2303 128.865 75.2303C127.282 75.2219 125.767 74.5871 124.65 73.4646C123.534 72.3422 122.907 70.8235 122.907 69.2403C122.907 67.6572 123.534 66.1384 124.65 65.016C125.767 63.8936 127.282 63.2588 128.865 63.2504C166.975 63.2504 197.979 94.2549 197.979 132.364C197.979 170.474 166.975 201.48 128.865 201.48Z" fill="url(#paint0_linear_242_94574)"/>
</g>
<defs>
<linearGradient id="paint0_linear_242_94574" x1="130.017" y1="47.493" x2="130.017" y2="217.78" gradientUnits="userSpaceOnUse">
<stop stop-color="#F4CC60"/>
<stop offset="1" stop-color="#E4670B"/>
</linearGradient>
<clipPath id="clip0_242_94574">
<rect width="170.022" height="170.022" fill="white" transform="translate(45.0059 48.5059)"/>
</clipPath>
</defs>
</svg>
