<svg width="250" height="250" viewBox="0 0 250 250" fill="none" xmlns="http://www.w3.org/2000/svg">
<g clip-path="url(#clip0_242_94092)">
<path fill-rule="evenodd" clip-rule="evenodd" d="M249.996 124.992C249.996 194.028 194.032 249.992 124.996 249.992C55.9602 249.992 -0.00390625 194.028 -0.00390625 124.992C-0.00390625 55.9563 55.9602 -0.0078125 124.996 -0.0078125C194.032 -0.0078125 249.996 55.9563 249.996 124.992Z" fill="#FFFFFE"/>
<path fill-rule="evenodd" clip-rule="evenodd" d="M147.735 142.314H104.465V201.435H147.735C164.06 201.435 177.295 188.201 177.295 171.875V171.875C177.295 155.549 164.06 142.314 147.735 142.314Z" fill="#D7262E"/>
<path fill-rule="evenodd" clip-rule="evenodd" d="M147.735 48.5469H104.465V107.668H147.735C164.06 107.668 177.295 94.4329 177.295 78.1077V78.107C177.295 61.7817 164.06 48.5469 147.735 48.5469Z" fill="#D7262E"/>
<path fill-rule="evenodd" clip-rule="evenodd" d="M124.996 231.806C91.2385 231.806 61.0935 216.061 41.5051 191.533V58.4514C61.0935 33.9238 91.2385 18.178 124.996 18.178C183.893 18.178 231.81 66.0951 231.81 124.992C231.81 183.889 183.893 231.806 124.996 231.806ZM124.996 -0.0078125C55.9602 -0.0078125 -0.00390625 55.9563 -0.00390625 124.992C-0.00390625 194.028 55.9602 249.992 124.996 249.992C194.032 249.992 249.996 194.028 249.996 124.992C249.996 55.9563 194.032 -0.0078125 124.996 -0.0078125Z" fill="#D7262E"/>
</g>
<defs>
<clipPath id="clip0_242_94092">
<rect width="250" height="250" rx="125" fill="white"/>
</clipPath>
</defs>
</svg>
