<svg width="250" height="250" viewBox="0 0 250 250" fill="none" xmlns="http://www.w3.org/2000/svg">
<path d="M193.487 174.518L134.981 208.296C129.219 211.623 122.12 211.623 116.358 208.296L57.8524 174.518C52.0907 171.191 48.541 165.043 48.541 158.39V90.8329C48.541 84.1797 52.0904 78.032 57.8524 74.7052L116.358 40.9267C122.12 37.6 129.219 37.6 134.981 40.9267L193.487 74.7052C199.249 78.032 202.798 84.1797 202.798 90.8329V158.39C202.798 165.043 199.249 171.191 193.487 174.518Z" fill="url(#paint0_linear_242_93315)"/>
<path d="M68.7673 139.407C67.3127 138.475 65.7164 137.705 64.428 136.581C59.3096 132.121 61.1429 123.223 67.6081 121.106C68.8461 120.701 69.16 120.107 69.1478 118.902C69.0932 113.522 69.1131 108.14 69.1324 102.759C69.1352 101.939 68.9444 101.324 68.2465 100.793C65.268 98.5269 64.1848 94.1411 65.6908 90.6845C67.2875 87.02 71.0049 84.907 74.8391 85.488C75.1408 85.5339 75.4705 85.5339 75.7351 85.6627C78.1536 86.8394 79.8777 85.3379 81.7282 84.1874C83.1075 83.3299 84.5604 82.5904 86.0244 81.7738C84.7672 77.2378 85.623 73.2765 89.655 70.5997C94.1822 67.5943 98.4091 68.604 102.236 72.3109C103.416 71.663 104.587 71.0435 105.736 70.3848C109.043 68.4892 112.328 66.5565 115.649 64.6875C116.516 64.1993 116.983 63.5843 117.193 62.5952C117.968 58.9524 121.267 56.1255 124.648 55.8409C129.685 55.4167 132.953 58.4187 133.851 61.7461C134.335 63.5413 135.23 64.5636 136.87 65.3333C138.933 66.3021 140.856 67.5705 142.843 68.7027C143.005 68.7951 143.198 68.8354 143.521 68.9523C147.344 64.9171 151.798 63.7464 156.658 67.028C160.367 69.5333 161.119 72.7179 159.854 78.5304C161.07 79.2391 162.342 79.9825 163.615 80.7224C166.417 82.3499 169.229 83.9585 172.015 85.6119C172.837 86.0998 173.59 86.1394 174.51 85.8594C179.416 84.367 184.319 86.3203 186.044 91.4279C187.147 94.6937 185.938 98.8388 183.139 100.871C182.373 101.427 182.101 102.024 182.137 102.981C182.228 105.42 182.174 107.864 182.19 110.307C182.193 110.791 182.252 111.275 182.288 111.819C182.691 111.912 183.013 112.02 183.343 112.06C189.573 112.798 193.391 119.346 190.519 125.52C189.205 128.343 186.877 130.081 183.727 130.532C182.196 130.751 182.184 130.711 182.184 132.291C182.181 136.868 182.183 141.445 182.183 146.107C182.803 146.483 183.451 146.871 184.094 147.268C188.321 149.876 189.115 156.223 185.911 160.007C182.898 163.565 177.992 163.754 174.894 162.025C174.549 161.832 174.003 161.805 173.617 161.922C172.934 162.131 172.277 162.467 171.653 162.826C169.778 163.905 167.924 165.021 165.99 166.164C168.385 172.001 167.747 177.071 161.66 180.085C157.693 182.048 152.615 180.905 149.369 175.787C147.63 176.763 145.871 177.727 144.135 178.73C141.725 180.122 139.347 181.569 136.922 182.934C136.227 183.326 135.993 183.781 135.993 184.568C135.996 189.535 132.765 193.116 127.817 193.403C123.708 193.641 119.903 191.216 118.779 186.268C118.665 185.766 118.228 185.209 117.782 184.932C115.418 183.467 113.007 182.077 110.604 180.675C110.151 180.41 109.658 180.212 109.093 179.939C108.67 180.383 108.283 180.791 107.893 181.196C105.078 184.125 100.011 184.817 96.5944 182.741C92.7787 180.422 90.9731 175.797 92.3997 171.763C92.7318 170.823 92.4858 170.355 91.7032 169.913C89.0505 168.418 86.4066 166.907 83.7753 165.374C82.7561 164.78 81.7702 164.127 80.7867 163.474C80.1378 163.043 79.61 162.913 78.8193 163.369C75.2392 165.437 70.5681 164.554 68.0411 161.433C65.2768 158.019 65.2792 153.304 68.1524 150.116C68.9581 149.222 69.2549 148.374 69.1765 147.167C69.0361 145.001 69.1411 142.819 69.1261 140.643C69.1226 140.158 69.047 139.674 69.0046 139.189C68.9255 139.261 68.8464 139.334 68.7673 139.407ZM170.977 157.713C170.926 157.272 170.935 157 170.86 156.754C169.542 152.433 171.954 147.834 176.29 146.264C177.2 145.935 177.435 145.495 177.429 144.617C177.397 139.922 177.411 135.227 177.403 130.532C177.403 130.156 177.363 129.779 177.344 129.438C175.731 128.305 174.353 127.031 173.662 125.228C173.016 123.54 171.854 122.278 170.706 120.937C167.615 117.325 163.066 117.903 159.131 119.677C156.929 120.671 154.833 121.476 152.38 121.452C147.484 121.403 144.037 119.041 141.736 114.923C138.791 109.652 140.546 102.491 146.196 98.9242C152.458 94.9713 161.643 97.9239 163.878 104.969C164.811 107.909 166.692 109.96 168.672 112.062C171.057 114.593 175.295 114.076 177.323 113.079C177.323 109.72 177.323 106.341 177.323 102.86C174.31 102.395 171.806 101.148 170.257 98.48C168.694 95.7899 168.885 92.9409 169.786 90.0184C169.288 89.6765 168.873 89.352 168.421 89.0878C164.809 86.9724 161.204 84.844 157.555 82.7941C157.12 82.5494 156.338 82.555 155.88 82.779C154.113 83.6428 152.284 83.8906 150.337 83.9011C148.762 83.9099 147.141 84.0831 145.625 84.4958C141.772 85.5458 138.794 89.6044 138.769 93.5055C138.761 94.8288 138.812 96.1879 138.54 97.4678C137.406 102.816 134.034 106.104 128.708 107.02C123.746 107.874 119.565 106.147 116.664 101.952C113.766 97.7604 113.601 93.2643 116.166 88.9005C118.889 84.27 123.174 82.1791 128.457 83.0188C131.088 83.437 133.431 82.8994 135.876 82.3877C140.073 81.5096 141.655 77.2256 141.703 74.5698C141.711 74.1449 141.357 73.5523 140.99 73.3108C139.589 72.39 138.122 71.5703 136.667 70.7341C135.555 70.095 134.424 69.4881 133.238 68.8312C131.42 71.6312 128.87 73.133 125.654 73.1733C122.358 73.2146 119.9 71.4705 118.031 68.7962C113.568 71.3879 109.208 73.8946 104.89 76.472C104.509 76.6992 104.187 77.3999 104.209 77.8633C104.326 80.3644 103.352 82.4161 102.023 84.4611C100.601 86.65 99.9205 89.2397 100.413 91.7831C101.009 94.8673 103.091 97.1962 105.76 98.7331C109.608 100.949 111.96 104.026 112.486 108.474C113.427 116.436 106.187 123.246 98.2877 121.747C93.778 120.891 90.6105 118.274 88.9756 113.989C87.1784 109.278 88.3911 105.099 91.504 101.313C92.0717 100.622 92.5344 99.8121 92.8893 98.99C93.2641 98.1216 93.4073 97.1563 93.7293 96.2614C95.3533 91.7478 93.1452 88.4655 89.7467 86.1026C89.1282 85.6725 88.5875 85.7148 87.9543 86.0911C86.0871 87.2009 84.2062 88.2898 82.3025 89.3356C81.5371 89.7559 81.43 90.2211 81.7495 91.011C83.7841 96.0412 80.5487 101.718 75.1534 102.655C74.7558 102.724 74.3729 102.876 73.9771 102.992C73.9771 109.04 73.9771 114.98 73.9771 120.878C77.377 122.889 77.7403 123.349 79.0328 125.287C79.9047 126.593 80.9393 127.859 82.1338 128.869C85.491 131.706 90.6469 131.604 94.1826 128.931C95.2875 128.096 96.5773 127.361 97.8978 126.983C101.934 125.829 105.734 126.337 109.107 129.066C112.813 132.066 114.366 135.948 113.611 140.603C112.638 146.596 107.157 151.107 101.109 150.758C96.222 150.477 91.8568 147.521 90.1828 142.904C90.0295 142.482 89.844 142.008 89.5272 141.718C87.7342 140.078 85.9222 138.454 84.0543 136.9C83.6182 136.537 82.9518 136.338 82.3704 136.282C79.3821 135.999 76.7424 137.008 74.3418 138.689C74.0569 138.889 73.9358 139.478 73.9277 139.89C73.8871 141.951 73.905 144.012 73.9148 146.074C73.9162 146.397 73.9827 146.719 74.0222 147.072C77.2524 147.075 79.8858 148.118 81.7436 150.726C83.579 153.302 83.6948 156.149 82.8664 159.058C83.1376 159.251 83.2822 159.374 83.4435 159.467C87.3068 161.699 91.16 163.949 95.0527 166.128C95.4933 166.375 96.221 166.399 96.7064 166.224C98.4511 165.596 100.199 165.246 102.074 165.287C103.5 165.318 104.972 165.173 106.355 164.828C108.087 164.396 109.922 163.832 110.969 162.273C112.529 159.951 113.622 157.414 113.569 154.502C113.548 153.326 113.548 152.095 113.857 150.977C115.643 144.509 122.003 140.331 128.979 142.258C134.931 143.903 138.273 149.018 137.799 155.198C137.297 161.738 131.276 166.924 124.818 166.047C121.923 165.654 119.231 165.888 116.504 166.737C113.234 167.754 111.067 170.4 110.741 173.817C110.648 174.802 110.943 175.476 111.877 175.947C113.169 176.599 114.396 177.378 115.656 178.095C116.969 178.842 118.287 179.58 119.731 180.394C121.444 177.879 123.654 176.37 126.582 176.121C129.506 175.872 131.966 176.91 133.988 179.008C134.236 178.88 134.405 178.802 134.567 178.709C139.033 176.148 143.511 173.606 147.945 170.991C148.386 170.731 148.618 170.049 148.85 169.52C149.306 168.486 149.481 167.252 150.155 166.405C151.637 164.54 152.14 162.403 152.446 160.159C152.85 157.198 150.222 152.374 147.495 151.15C141.782 148.585 138.219 141.143 141.746 134.42C144.716 128.761 151.966 126.076 158.054 129.141C165.477 132.878 166.639 142.548 161.97 147.865C161.064 148.896 160.393 150.179 159.814 151.437C159.31 152.533 159.027 153.746 158.753 154.931C158.089 157.809 159.628 161.493 162.104 162.833C165.022 161.149 168.012 159.424 170.977 157.713Z" fill="white"/>
<defs>
<linearGradient id="paint0_linear_242_93315" x1="49.3731" y1="77.8664" x2="198.836" y2="169.439" gradientUnits="userSpaceOnUse">
<stop stop-color="#FCBB47"/>
<stop offset="0.9995" stop-color="#A96C00"/>
</linearGradient>
</defs>
</svg>
