<svg width="250" height="250" viewBox="0 0 250 250" fill="none" xmlns="http://www.w3.org/2000/svg">
<path d="M1.00098 125C1.00098 56.5 56.501 1 125.001 1C193.501 1 249.001 56.5 249.001 125C249.001 193.5 193.501 249 125.001 249C56.501 249 1.00098 193.5 1.00098 125Z" fill="url(#paint0_linear_242_93316)"/>
<path d="M73.1006 12.3492C81.0006 8.69922 89.3006 5.89922 98.0006 3.94922V55.7992H73.1506V12.3492H73.1006Z" fill="white"/>
<path d="M3.80078 98.7C5.65078 90 8.45078 81.65 12.0508 73.75H139.701C158.351 73.75 173.451 88.9 173.451 107.6V140.55C173.451 159.25 158.351 174.4 139.701 174.4H106.851C88.2008 174.4 73.1008 159.25 73.1008 140.55V116.5H98.0008V140.35C98.0008 145.35 101.901 149.25 106.901 149.25H139.751C144.701 149.25 148.651 145.35 148.651 140.35V107.6C148.651 102.6 144.751 98.7 139.751 98.7H3.80078Z" fill="white"/>
<defs>
<linearGradient id="paint0_linear_242_93316" x1="232.881" y1="232.88" x2="34.481" y2="34.48" gradientUnits="userSpaceOnUse">
<stop offset="0.1594" stop-color="#003CDA"/>
<stop offset="1" stop-color="#33DFCC"/>
</linearGradient>
</defs>
</svg>
