<svg width="250" height="250" viewBox="0 0 250 250" fill="none" xmlns="http://www.w3.org/2000/svg">
<path fill-rule="evenodd" clip-rule="evenodd" d="M61.27 56.28C58.23 40 70.67 25 87.23 25C101.83 25 113.63 36.84 113.63 51.4V83.96C117.27 83.72 120.99 83.56 124.75 83.56C128.35 83.56 131.91 83.68 135.43 83.92V51.4C135.43 36.8 147.27 25 161.83 25C178.35 25 190.83 40 187.79 56.28L180.63 94.56C205.19 105.24 223.75 123.84 223.75 147.24V161.4C223.75 180.64 211.03 196.72 193.27 207.56C175.31 218.48 151.07 225 124.75 225C98.39 225 74.19 218.48 56.27 207.56C38.47 196.68 25.75 180.6 25.75 161.36V147.2C25.75 123.96 44.11 105.4 68.43 94.68L61.27 56.28ZM171.47 99.56L179.83 54.76C181.95 43.48 173.27 33.08 161.79 33.08C151.67 33.08 143.47 41.28 143.47 51.4V92.84C140.83 92.48 138.11 92.24 135.39 92.04C131.87 91.8 128.31 91.68 124.71 91.68C120.95 91.68 117.23 91.8 113.59 92.08C110.87 92.28 108.15 92.56 105.51 92.92V51.4C105.51 41.28 97.31 33.08 87.19 33.08C75.71 33.08 67.07 43.48 69.15 54.76L77.55 99.68C51.35 109.44 33.83 127.08 33.83 147.24V161.4C33.83 192.08 74.55 216.96 124.75 216.96C174.95 216.96 215.67 192.08 215.67 161.4V147.24C215.63 127 197.95 109.28 171.47 99.56Z" fill="#633001"/>
<path d="M215.633 161.361C215.633 192.041 174.913 216.921 124.713 216.921C74.513 216.921 33.793 192.041 33.793 161.361V147.201H215.593V161.361H215.633Z" fill="#FEDC90"/>
<path fill-rule="evenodd" clip-rule="evenodd" d="M69.192 54.7601C67.072 43.4801 75.752 33.0801 87.232 33.0801C97.352 33.0801 105.552 41.2801 105.552 51.4001V92.8801C111.752 92.0801 118.152 91.6401 124.752 91.6401C131.192 91.6401 137.472 92.0401 143.512 92.8401V51.4001C143.512 41.2801 151.712 33.0801 161.832 33.0801C173.312 33.0801 181.952 43.4801 179.872 54.7601L171.512 99.5601C197.952 109.28 215.672 127 215.672 147.2C215.672 177.88 174.952 202.76 124.752 202.76C74.552 202.76 33.832 177.88 33.832 147.2C33.832 127.08 51.352 109.44 77.592 99.6801L69.192 54.7601Z" fill="#D1884F"/>
<path d="M99.4705 143.203C99.4705 151.563 94.9505 158.363 89.3505 158.363C83.7505 158.363 79.2305 151.563 79.2305 143.203C79.2305 134.843 83.7505 128.043 89.3505 128.043C94.9505 128.043 99.4705 134.803 99.4705 143.203Z" fill="#633001"/>
<path d="M169.191 143.203C169.191 151.563 164.671 158.363 159.071 158.363C153.511 158.363 148.951 151.563 148.951 143.203C148.951 134.843 153.471 128.043 159.071 128.043C164.671 128.043 169.191 134.803 169.191 143.203Z" fill="#633001"/>
</svg>
