<svg width="250" height="250" viewBox="0 0 250 250" fill="none" xmlns="http://www.w3.org/2000/svg">
<path d="M230 145.982H177.5V166.982H230V145.982Z" fill="#1BFF49"/>
<path d="M177.5 145.982H125V166.982H177.5V145.982Z" fill="#12DD3B"/>
<path d="M124.998 145.982H72.498V166.982H124.998V145.982Z" fill="#09BB2D"/>
<path d="M72.5 145.982H20V166.982H72.5V145.982Z" fill="#00991F"/>
<path d="M177.5 124.982H125V145.982H177.5V124.982Z" fill="#1BFF49"/>
<path d="M124.998 124.982H72.498V145.982H124.998V124.982Z" fill="#12DD3B"/>
<path d="M72.5 124.982H20V145.982H72.5V124.982Z" fill="#09BB2D"/>
<path d="M93.5 103.98H41V124.98H93.5V103.98Z" fill="#12DD3B"/>
<path d="M145.998 103.98H93.498V124.98H145.998V103.98Z" fill="#1BFF49"/>
<path d="M114.5 82.9805H62V103.98H114.5V82.9805Z" fill="#1BFF49"/>
</svg>
