<svg width="250" height="250" viewBox="0 0 250 250" fill="none" xmlns="http://www.w3.org/2000/svg">
<path d="M145.337 4.68058C211.056 15.5631 255.705 78.1686 244.99 143.651C234.081 210.314 173.487 254.835 106.29 245.394C56.9413 238.461 16.6323 200.504 5.58677 151.76C1.88427 135.422 1.66027 116.237 4.36777 103.669C14.9983 54.3206 43.5973 21.5336 91.8573 7.33358C108.018 2.57858 124.562 1.24008 145.337 4.68058ZM189.648 88.3516C167.312 54.0871 118.542 46.7351 86.7078 72.1436C63.0138 91.0546 56.1453 123.604 70.1778 150.477C84.6533 178.198 117.764 193.449 148.314 186.573C159.605 184.032 169.777 179.405 179.152 171.343C173.1 165.817 167.463 160.671 161.774 155.477C146.02 166.057 129.793 167.311 113.045 160.075C94.8328 152.205 83.8443 133.05 86.9513 115.336C91.1048 91.6571 113.547 76.8231 138.673 81.1171C151.054 83.2331 161.091 89.3736 169.156 99.2126C176.03 95.5691 182.633 92.0696 189.648 88.3516Z" fill="url(#paint0_linear_242_93322)"/>
<path d="M189.647 88.3516C182.632 92.0696 176.03 95.5691 169.156 99.2126C161.09 89.3736 151.053 83.2331 138.672 81.1171C113.547 76.8231 91.1043 91.6571 86.9508 115.336C83.8433 133.051 94.8323 152.205 113.045 160.075C129.792 167.311 146.02 166.057 161.773 155.477C167.463 160.671 173.1 165.818 179.152 171.343C169.777 179.405 159.605 184.032 148.314 186.573C117.764 193.448 84.6528 178.197 70.1773 150.477C56.1448 123.604 63.0133 91.0546 86.7073 72.1436C118.541 46.7351 167.311 54.0876 189.647 88.3516Z" fill="white"/>
<defs>
<linearGradient id="paint0_linear_242_93322" x1="53.1954" y1="226.636" x2="195.555" y2="22.7852" gradientUnits="userSpaceOnUse">
<stop stop-color="#EA4397"/>
<stop offset="1" stop-color="#DB207E"/>
</linearGradient>
</defs>
</svg>
