<svg width="250" height="250" viewBox="0 0 250 250" fill="none" xmlns="http://www.w3.org/2000/svg">
<rect width="250" height="250" rx="125" fill="white"/>
<g clip-path="url(#clip0_242_94575)">
<path d="M212.834 56.9438L140.027 14.8854C131.82 10.1907 118.237 10.1907 109.973 14.9081L37.2229 56.9666C28.9021 61.7172 22.1387 73.4262 22.1387 82.9404V167.058C22.1387 176.606 28.9589 188.325 37.1661 193.1L101.129 229.997L227.861 86.2597V82.9411C227.861 73.4262 221.098 61.7181 212.834 56.9438ZM166.229 93.3188H109.927C101.174 93.3188 97.8327 97.3648 97.8327 105.322V157.123H151.43L124.034 188.723H87.659C81.0282 188.723 75.4658 185.476 70.9719 178.982C66.478 172.487 64.2046 164.602 64.1517 155.327V95.0806C64.1517 85.805 66.4251 77.92 70.9719 71.4255C75.5187 64.931 81.0811 61.6876 87.659 61.6954H192.964L166.229 93.3188Z" fill="black"/>
<path d="M211.581 160.66L206.399 156.114L227.859 131.537V96.6737L107.208 233.512L109.97 235.114C117.348 239.365 128.897 239.797 137.172 236.455L136.649 235.989L159.1 210.322L164.282 214.868L153.246 227.511L212.867 193.091C221.131 188.318 227.895 176.597 227.895 167.049V142.051L211.581 160.66ZM176.707 200.592L171.525 196.046L193.94 170.378L199.134 174.924L176.707 200.592ZM80.6659 153.76C88.5205 158.056 97.7849 157.169 97.7849 157.169V105.358C97.7849 97.4015 101.126 93.3549 109.879 93.3549H166.147L192.951 61.7539H87.6918C81.0609 61.7539 75.4985 64.9973 71.0046 71.484C66.5107 77.9708 64.2377 85.8558 64.1855 95.1392V131.821C66.0478 141.051 73.0385 149.554 80.6659 153.76Z" fill="#00B5E2"/>
</g>
<defs>
<clipPath id="clip0_242_94575">
<rect width="227.302" height="227.302" fill="white" transform="translate(11.3652 11.3672)"/>
</clipPath>
</defs>
</svg>
