<svg width="250" height="250" viewBox="0 0 250 250" fill="none" xmlns="http://www.w3.org/2000/svg">
<rect width="250" height="250" rx="125" fill="white"/>
<g clip-path="url(#clip0_242_94553)">
<path d="M181.519 44.7563V54.4656C178.918 52.3591 176.203 50.3991 173.385 48.5946V13.8257C173.385 13.1737 173.126 12.5483 172.665 12.0873C172.204 11.6262 171.579 11.3672 170.927 11.3672H145.878C145.226 11.3672 144.601 11.6262 144.14 12.0873C143.678 12.5483 143.419 13.1737 143.419 13.8257V36.3723C130.699 33.7329 117.56 33.8599 104.894 36.7448V13.8257C104.894 13.1739 104.635 12.5487 104.174 12.0877C103.713 11.6266 103.088 11.3675 102.436 11.3672H77.3876C76.7356 11.3672 76.1103 11.6262 75.6492 12.0873C75.1881 12.5483 74.9291 13.1737 74.9291 13.8257V49.7188C50.9187 65.8573 35.1191 93.2713 35.1191 124.376C35.1191 155.481 50.9187 182.895 74.9291 199.034V236.211C74.9292 236.534 74.9928 236.854 75.1164 237.152C75.2401 237.451 75.4213 237.722 75.6497 237.95C75.8781 238.178 76.1492 238.359 76.4476 238.483C76.746 238.606 77.0658 238.67 77.3888 238.67H102.437C103.09 238.67 103.715 238.411 104.176 237.95C104.637 237.488 104.896 236.863 104.896 236.211V212.007C117.563 214.892 130.702 215.019 143.422 212.38V236.211C143.422 236.863 143.681 237.488 144.141 237.949C144.602 238.41 145.227 238.669 145.879 238.67H170.928C171.58 238.67 172.205 238.411 172.666 237.95C173.127 237.488 173.386 236.863 173.386 236.211V200.158C176.204 198.354 178.92 196.394 181.52 194.287V212.13H214.907V44.7563H181.519ZM181.519 136.529C175.936 162.609 152.761 182.165 125.014 182.165C93.0981 182.165 67.2252 156.292 67.2252 124.376C67.2252 92.4605 93.0981 66.5876 125.014 66.5876C152.761 66.5876 175.936 86.144 181.519 112.224V136.529Z" fill="#243E90"/>
</g>
<defs>
<clipPath id="clip0_242_94553">
<rect width="227.302" height="227.302" fill="white" transform="translate(11.3633 11.3672)"/>
</clipPath>
</defs>
</svg>
