<svg width="250" height="250" viewBox="0 0 250 250" fill="none" xmlns="http://www.w3.org/2000/svg">
<g clip-path="url(#clip0_242_94784)">
<path d="M125 250C194.036 250 250 194.036 250 125C250 55.9644 194.036 0 125 0C55.9644 0 0 55.9644 0 125C0 194.036 55.9644 250 125 250Z" fill="#0648B3"/>
<path fill-rule="evenodd" clip-rule="evenodd" d="M154.674 25.8338C146.045 23.1238 136.929 21.5153 127.493 21.1582L126.859 25.1255C136.047 25.4324 145.199 26.9951 154.037 29.8223L154.674 25.8338ZM73.132 34.0883C72.265 33.4324 71.185 33.043 70.014 33.043C67.158 33.043 64.842 35.3582 64.842 38.2147C64.842 38.5364 64.8715 38.8513 64.928 39.1568C37.5534 57.8695 19.585 89.3289 19.585 124.992C19.585 163.998 41.0812 197.98 72.869 215.751L73.539 211.554C66.141 207.278 59.1695 201.981 52.8405 195.652C13.8175 156.629 13.8175 93.353 52.8405 54.33C57.299 49.8711 62.075 45.9229 67.095 42.4836C67.926 43.0527 68.9305 43.386 70.0135 43.386C72.8705 43.386 75.1855 41.0705 75.1855 38.2144C75.1855 37.9781 75.1695 37.7459 75.139 37.5182C84.6049 32.2804 94.741 28.6947 105.124 26.7633L105.792 22.584C94.1245 24.5879 83.124 28.5403 73.132 34.0883ZM54.692 181.185C57.5485 181.185 59.8635 183.5 59.8635 186.356C59.8635 187.107 59.7035 187.82 59.4155 188.464C59.463 188.512 59.5095 188.56 59.5555 188.608C59.6095 188.664 59.6635 188.72 59.719 188.775C64.509 193.565 69.706 197.698 75.195 201.185L74.5135 205.453C67.939 201.442 61.8965 196.646 56.512 191.198C55.946 191.411 55.333 191.528 54.6925 191.528C51.836 191.528 49.5206 189.212 49.5206 186.356C49.5206 185.508 49.7249 184.708 50.0865 184.002C37.0902 167.855 29.3122 147.332 29.3122 124.992C29.3122 79.601 61.4195 41.7138 104.162 32.793L103.484 37.0324C87.4455 40.665 72.206 48.7214 59.719 61.2085C26.8495 94.0775 24.6565 146.007 53.13 181.425C53.6225 181.269 54.1475 181.184 54.692 181.184V181.185ZM171.635 201.299C170.774 200.659 169.707 200.279 168.551 200.279C165.695 200.279 163.379 202.595 163.379 205.451C163.379 205.607 163.387 205.761 163.4 205.913C157.235 208.952 150.795 211.245 144.215 212.789L143.536 217.038C151.16 215.386 158.438 212.809 165.251 209.433C166.146 210.176 167.296 210.622 168.551 210.622C171.407 210.622 173.723 208.307 173.723 205.451C173.723 205.199 173.704 204.952 173.67 204.71C200.117 188.034 217.691 158.569 217.691 124.992C217.691 107.874 213.122 91.8255 205.141 77.9935C205.76 77.141 206.125 76.0925 206.125 74.958C206.125 72.1015 203.81 69.7865 200.954 69.7865C200.592 69.7865 200.239 69.8235 199.899 69.8945C192.693 59.9215 183.582 51.4155 173.1 44.9102L172.416 49.1893C177.682 52.5925 182.672 56.596 187.285 61.2085C190.734 64.6575 193.842 68.318 196.613 72.146C196.087 72.9555 195.782 73.9215 195.782 74.9585C195.782 77.8144 198.097 80.13 200.954 80.13C201.221 80.13 201.484 80.1095 201.741 80.0704C221.56 114.542 216.745 159.315 187.285 188.775C182.444 193.616 177.189 197.79 171.635 201.299ZM140.68 167.294C140.466 169.953 138.241 172.044 135.526 172.044C133.825 172.044 132.315 171.222 131.373 169.954C105.506 174.329 77.945 155.286 77.945 124.991C77.945 99.8315 98.3425 79.4335 123.502 79.4335C163.956 79.4335 184.345 128.575 155.715 157.203C151.134 161.784 146.027 165.104 140.681 167.294H140.68ZM139.437 163.488C138.489 162.393 137.089 161.701 135.527 161.701L135.527 161.701C132.947 161.701 130.809 163.589 130.419 166.059C106.895 169.875 81.934 152.536 81.934 124.991C81.934 88.0704 126.778 69.478 152.896 95.5965C169.129 111.829 169.129 138.152 152.896 154.385C148.79 158.49 144.221 161.49 139.437 163.488ZM135.082 136.572C145.376 126.278 138.042 108.615 123.502 108.615C114.458 108.615 107.125 115.948 107.125 124.992C107.125 139.531 124.788 146.866 135.082 136.572ZM61.545 81.6814C61.8795 81.6814 62.2065 81.7135 62.523 81.774C71.81 68.6955 85.198 58.733 100.813 53.7635L100.103 58.205C90.3784 61.6035 81.2465 67.19 73.474 74.962C70.638 77.798 68.098 80.8175 65.8445 83.978C66.3955 84.7999 66.717 85.7889 66.717 86.853C66.717 89.709 64.4015 92.0245 61.545 92.0245C61.328 92.0245 61.1135 92.0109 60.903 91.9845C46.8076 118.699 50.9975 152.541 73.474 175.017C75.132 176.675 76.854 178.231 78.628 179.69L77.907 184.205C60.185 170.539 48.7652 149.1 48.7652 124.99C48.7652 112.349 51.9055 100.443 57.446 90.006C56.7735 89.1335 56.374 88.0405 56.374 86.8535C56.374 83.9965 58.689 81.6814 61.545 81.6814ZM46.6097 148.773C49.2998 148.956 51.4245 151.196 51.4245 153.932C51.4245 155.362 50.844 156.656 49.9065 157.593C53.808 166.411 59.3695 174.671 66.5965 181.898C69.8325 185.134 73.279 188.031 76.886 190.601L76.1885 194.969C63.118 186.114 52.6615 173.692 46.2125 159.103C43.3748 159.081 41.0819 156.775 41.0819 153.932C41.0819 152.392 41.7549 151.01 42.8231 150.062C40.3637 142.142 39.0386 133.722 39.0386 124.993C39.0386 85.5919 66.0165 52.495 102.507 43.1602L101.816 47.484C88.9175 51.079 76.7395 57.944 66.5965 68.087C44.7625 89.9205 38.1039 121.183 46.6097 148.773ZM226.84 113.973C228.916 114.645 230.417 116.594 230.417 118.894C230.417 120.979 229.183 122.775 227.406 123.594C227.413 124.058 227.419 124.523 227.419 124.99C227.419 176.103 190.516 218.597 141.901 227.283L142.57 223.092C161.473 219.437 179.525 210.289 194.163 195.651C213.995 175.82 223.74 149.725 223.415 123.733C221.462 122.993 220.074 121.106 220.074 118.894C220.074 116.901 221.201 115.171 222.854 114.307C220.514 92.4009 210.953 71.1195 194.163 54.329C188.008 48.1742 181.249 42.9927 174.078 38.7797L174.75 34.5742C203.181 50.7225 223.247 79.8915 226.839 113.973L226.84 113.973ZM179.175 142.047C179.175 140.416 178.421 138.963 177.242 138.015H177.242C178.251 133.838 178.786 129.477 178.786 124.992C178.786 120.183 178.171 115.518 177.017 111.07L173.616 114.015C175.259 121.556 175.187 129.396 173.398 136.911C170.827 137.21 168.832 139.395 168.832 142.047C168.832 143.508 169.438 144.827 170.412 145.767C169.215 148.472 167.773 151.095 166.086 153.601L168.497 157.116C170.699 154.036 172.593 150.722 174.134 147.217C176.93 147.147 179.175 144.859 179.175 142.047ZM108.552 100.902C109.641 100.902 110.651 101.238 111.485 101.813C115.082 99.9445 119.168 98.887 123.502 98.887C146.68 98.887 158.366 127.042 141.96 143.448C125.554 159.854 97.398 148.169 97.398 124.991C97.398 118.477 99.785 112.52 103.731 107.947C103.505 107.366 103.381 106.734 103.381 106.074C103.381 103.217 105.696 100.902 108.552 100.902ZM113.725 106.073C113.725 105.785 113.701 105.503 113.656 105.228C121.587 101.302 131.767 101.978 139.141 109.351C147.777 117.988 147.777 131.993 139.141 140.629C125.247 154.523 101.386 144.635 101.386 124.99C101.386 119.349 103.356 114.515 106.489 110.816C107.121 111.091 107.819 111.244 108.553 111.244C111.409 111.244 113.725 108.929 113.725 106.073ZM123.502 89.162C137.16 89.162 147.906 96.2859 153.946 106.196C154.119 106.178 154.294 106.169 154.472 106.169C157.328 106.169 159.644 108.484 159.644 111.341C159.644 112.877 158.973 114.257 157.91 115.204C161.282 126.859 158.947 140.219 148.838 150.328C126.322 172.844 87.6724 156.81 87.6724 124.992C87.6724 105.204 103.714 89.162 123.502 89.162ZM188.513 124.991C188.513 117.679 187.305 110.649 185.079 104.09L181.799 106.93C187.514 125.438 184.228 146.128 171.933 162.124L174.294 165.565C183.19 154.443 188.513 140.34 188.513 124.991ZM123.502 50.254C132.834 50.254 141.764 51.969 150.001 55.0935L149.357 59.122C140.657 55.7125 131.419 54.0905 122.206 54.258L122.844 50.263C122.932 50.2625 123.02 50.2605 123.107 50.259C123.239 50.2565 123.37 50.2545 123.501 50.2545L123.502 50.254ZM151.564 45.3076C143.051 42.31 133.913 40.6383 124.398 40.5391H124.398L123.762 44.5191C132.966 44.5494 142.163 46.1499 150.923 49.3171L151.564 45.3076ZM125.948 30.8323C135.42 31.0744 144.542 32.7188 153.12 35.5587L152.482 39.5568C143.678 36.5785 134.507 34.9951 125.313 34.8109L125.948 30.8323ZM154.197 116.504C151.468 116.362 149.3 114.104 149.3 111.34C149.3 110.093 149.741 108.95 150.475 108.057C149.229 106.075 147.743 104.2 146.018 102.475C126.013 82.47 91.66 96.707 91.66 124.992C91.66 153.276 126.013 167.513 146.018 147.508C154.415 139.111 157.14 127.19 154.197 116.504ZM92.9699 224.345C101.612 227 110.737 228.552 120.178 228.849H120.178L120.812 224.88C111.622 224.634 102.46 223.125 93.6065 220.357L92.9699 224.345ZM121.726 219.16C112.25 218.984 103.115 217.408 94.5214 214.632L95.159 210.64C103.981 213.553 113.164 215.064 122.361 215.18L121.726 219.16ZM207.965 124.992C207.965 96.1389 193.497 70.669 171.42 55.4335L170.72 59.814C174.109 62.2745 177.351 65.03 180.407 68.086C211.833 99.5125 211.834 150.471 180.407 181.897C170.449 191.856 158.529 198.654 145.891 202.301L145.198 206.637C181.331 197.06 207.965 164.138 207.965 124.992ZM123.276 209.452C113.756 209.427 104.607 207.827 96.0754 204.898L96.715 200.896C105.496 203.988 114.708 205.508 123.913 205.462L123.276 209.452L123.276 209.452ZM198.239 124.992C198.239 101.153 187.078 79.92 169.695 66.2365L168.968 70.787C170.534 72.102 172.057 73.492 173.53 74.9645C201.158 102.592 201.158 147.392 173.53 175.02C165.948 182.602 157.071 188.099 147.613 191.519L146.9 195.988C176.715 186.169 198.239 158.096 198.239 124.992ZM124.831 199.711L124.687 199.713C124.293 199.721 123.899 199.728 123.502 199.728C114.41 199.728 105.696 198.103 97.6365 195.128L98.2785 191.107C107.006 194.431 116.258 195.964 125.471 195.709L124.831 199.711ZM111.113 124.992C111.113 113.985 124.48 108.448 132.263 116.231C137.101 121.069 137.101 128.914 132.263 133.752C124.48 141.535 111.113 135.998 111.113 124.992Z" fill="white"/>
</g>
<defs>
<clipPath id="clip0_242_94784">
<rect width="250" height="250" fill="white"/>
</clipPath>
</defs>
</svg>
