<svg width="250" height="250" viewBox="0 0 250 250" fill="none" xmlns="http://www.w3.org/2000/svg">
<rect width="250" height="250" rx="125" fill="white"/>
<g clip-path="url(#clip0_242_94545)">
<path d="M129.594 238.668C77.3604 238.668 36.7839 213.568 23.6943 173.165L20.7568 164.126L29.342 160.018C30.2499 159.575 52.7717 148.261 51.3706 126.013C49.8913 102.528 30.8382 91.5055 30.0265 91.0516L21.6535 86.3221L25.2677 77.3952C42.3988 36.0389 81.4073 11.3652 129.6 11.3652C167.476 11.3652 200.673 26.1649 220.657 51.9649L225.7 58.4884L185.879 112.055L176.992 103.475C176.818 103.313 157.888 85.4479 135.916 85.347C114.745 85.246 106.401 93.2091 106.053 93.551L90.3691 78.5104C91.8036 76.9804 105.247 63.4023 136.011 63.6321C155.614 63.723 172.549 73.0747 182.54 80.1522L198.158 59.1435C181.962 42.5 157.452 33.0913 129.606 33.0913C93.6464 33.0913 64.1136 49.7298 48.9833 78.0171C58.1288 85.6772 71.5501 100.847 73.0632 124.647C74.6825 150.368 58.2017 166.541 47.4817 174.263C60.1688 200.786 90.7828 216.925 129.611 216.925C156.504 216.925 184.03 206.474 201.027 190.318L183.268 168.099C173.814 174.784 157.658 183.47 136.532 184.568C106.535 186.109 88.7985 172.33 88.0588 171.741L101.547 154.716C101.962 155.019 114.01 163.996 135.4 162.87C160.718 161.57 176.958 145.335 177.11 145.163L185.7 136.427L193.383 145.959L229.275 190.897L223.772 197.683C203.582 222.579 166.63 238.668 129.594 238.668Z" fill="url(#paint0_linear_242_94545)"/>
</g>
<defs>
<linearGradient id="paint0_linear_242_94545" x1="220.238" y1="47.2376" x2="43.9892" y2="201.536" gradientUnits="userSpaceOnUse">
<stop offset="0.073" stop-color="#F46881"/>
<stop offset="0.083" stop-color="#F36682"/>
<stop offset="0.26" stop-color="#E74596"/>
<stop offset="0.407" stop-color="#E031A2"/>
<stop offset="0.507" stop-color="#DD2AA6"/>
<stop offset="0.888" stop-color="#5210E2"/>
</linearGradient>
<clipPath id="clip0_242_94545">
<rect width="227.302" height="227.302" fill="white" transform="translate(11.3652 11.3652)"/>
</clipPath>
</defs>
</svg>
