<svg width="250" height="250" viewBox="0 0 250 250" fill="none" xmlns="http://www.w3.org/2000/svg">
<path d="M148.497 95.6199C160.957 92.9249 173.732 98.3849 180.417 109.235C187.102 120.085 186.227 133.945 178.212 143.85C170.232 153.755 156.827 157.535 144.857 153.3C132.852 149.065 124.837 137.725 124.837 124.985H98.2715C98.2365 150.395 115.142 172.725 139.642 179.585C164.142 186.445 190.182 176.155 203.377 154.42C216.572 132.685 213.667 104.825 196.307 86.2399C178.912 67.6899 151.297 62.9649 128.757 74.7249C137.017 79.9049 143.807 87.0799 148.497 95.6199Z" fill="#5F5FFF"/>
<path d="M101.107 154.313C88.6465 157.008 75.8715 151.548 69.1865 140.698C62.5015 129.848 63.3766 115.988 71.3915 106.083C79.3715 96.1781 92.7415 92.3981 104.747 96.6331C116.752 100.868 124.767 112.208 124.767 124.948H151.332C151.367 99.5031 134.427 77.1731 109.962 70.3131C85.4615 63.4531 59.4215 73.7431 46.2266 95.4781C33.0316 117.213 35.9366 145.073 53.2965 163.658C70.6565 182.243 98.3065 186.933 120.847 175.173C112.622 170.028 105.832 162.853 101.107 154.313Z" fill="#17E5AA"/>
</svg>
