<svg width="250" height="250" viewBox="0 0 250 250" fill="none" xmlns="http://www.w3.org/2000/svg">
<g clip-path="url(#clip0_242_93334)">
<path d="M125.051 250.2C194.142 250.2 250.151 194.191 250.151 125.1C250.151 56.0092 194.142 0 125.051 0C55.9604 0 -0.0488281 56.0092 -0.0488281 125.1C-0.0488281 194.191 55.9604 250.2 125.051 250.2Z" fill="#EDF0F2"/>
<path d="M204.45 221.702C185.35 237.402 162 247.102 137.4 249.552C104.4 252.802 71.4499 242.852 45.7999 221.802C20.0999 200.802 3.84986 170.402 0.599856 137.402C-1.85014 112.802 3.09986 88.0023 14.7499 66.1523C26.3999 44.3523 44.2499 26.5023 66.0499 14.8023C87.8499 3.15233 112.65 -1.79767 137.25 0.602334C161.85 3.00233 185.2 12.6523 204.35 28.3523L179.1 59.1523C166.05 48.4523 150.15 41.8523 133.35 40.2523C116.55 38.6523 99.6498 42.0023 84.7999 49.9523C69.9499 57.9023 57.7499 70.1023 49.7999 85.0023C41.8499 99.9023 38.4999 116.802 40.1499 133.552C42.3999 156.052 53.4498 176.752 70.9498 191.102C88.4498 205.452 110.9 212.252 133.4 210.002C150.2 208.352 166.1 201.752 179.15 191.052L204.45 221.702Z" fill="url(#paint0_linear_242_93334)"/>
<path d="M125.4 235.45C186.15 235.45 235.45 186.2 235.45 125.4C235.45 64.6496 186.2 15.3496 125.4 15.3496C64.6496 15.3496 15.3496 64.5996 15.3496 125.4C15.3496 186.15 64.6496 235.45 125.4 235.45Z" fill="white"/>
<path d="M126.149 144.45L158.499 125.7L120.049 105.9L126.149 144.45Z" fill="#AAB8C1"/>
<path d="M93.7988 125.65L126.149 144.4V109.75L93.7988 125.65Z" fill="#AAB8C1"/>
<path d="M126.149 72.9473L93.7988 125.647L136.199 106.797L126.149 72.9473Z" fill="#283947"/>
<path d="M126.15 72.9473V111.197L158.5 125.647L126.15 72.9473Z" fill="#657786"/>
<path d="M126.15 176.449L130.35 152.799L93.8496 131.699L126.15 176.449Z" fill="#283947"/>
<path d="M126.15 150.449V176.449L158.5 131.699L126.15 150.449Z" fill="#657786"/>
</g>
<defs>
<linearGradient id="paint0_linear_242_93334" x1="89.8106" y1="13.7506" x2="129.031" y2="231.2" gradientUnits="userSpaceOnUse">
<stop stop-color="#27D3A2"/>
<stop offset="1" stop-color="#9388FD"/>
</linearGradient>
<clipPath id="clip0_242_93334">
<rect width="250" height="250" rx="125" fill="white"/>
</clipPath>
</defs>
</svg>
