<svg width="250" height="250" viewBox="0 0 250 250" fill="none" xmlns="http://www.w3.org/2000/svg">
<g clip-path="url(#clip0_242_94089)">
<path d="M-0.00585938 -0.00390625H249.556V249.558H-0.00585938V-0.00390625Z" fill="#0099E5"/>
<path d="M120.956 129.333L144.642 153.415C150.852 159.783 159.37 163.375 168.265 163.375C177.16 163.375 185.678 159.783 191.888 153.415C204.938 140.012 204.938 118.654 191.888 105.251C185.678 98.8827 177.16 95.2913 168.265 95.2913C159.37 95.2913 150.852 98.8827 144.642 105.251L120.956 129.333ZM168.272 175.294C156.226 175.309 144.686 170.449 136.281 161.819L104.346 129.333L136.281 96.8472C144.693 88.2323 156.224 83.375 168.265 83.375C180.306 83.375 191.838 88.2323 200.25 96.8472C217.831 114.936 217.831 143.73 200.25 161.819C191.849 170.447 180.314 175.307 168.272 175.294Z" fill="white"/>
<path d="M81.2786 175.293C69.2364 175.309 57.701 170.448 49.3012 161.819C31.7199 143.73 31.7199 114.936 49.3012 96.8472C57.7133 88.2323 69.2449 83.375 81.2857 83.375C93.3265 83.375 104.858 88.2323 113.27 96.8472L114.781 98.3867L106.42 106.777L104.909 105.251C98.6943 98.8855 90.1746 95.2962 81.2786 95.2962C72.3826 95.2962 63.8629 98.8855 57.6487 105.251C44.5984 118.654 44.5984 140.012 57.6487 153.415C63.8629 159.781 72.3826 163.37 81.2786 163.37C90.1746 163.37 98.6943 159.781 104.909 153.415L106.42 151.875L114.781 160.35L113.27 161.89C104.865 170.519 93.3251 175.38 81.2786 175.364" fill="white"/>
</g>
<defs>
<clipPath id="clip0_242_94089">
<rect width="250" height="250" rx="125" fill="white"/>
</clipPath>
</defs>
</svg>
