<svg width="250" height="250" viewBox="0 0 250 250" fill="none" xmlns="http://www.w3.org/2000/svg">
<path d="M211.825 170.243H167.371V162.599H175.071V154.839H182.771V76.9609H67.6144V88.6859H45.0184V93.4319H38.2109V139.439H41.7109V143.639H67.6109V154.839H75.1359V162.714H90.7109V170.239H44.5109V178.114H59.7359V185.639H196.246V178.114H211.821V170.243H211.825ZM45.2144 135.243V97.2189H67.6144V135.239H45.2144V135.243Z" fill="#A52639"/>
<path d="M190.563 77.2363H106.098V147.285H113.626V154.968H121.498V162.605H175.282V154.968H182.996V147.285H190.563V77.2363Z" fill="#DD3745"/>
<path d="M158.597 70.3711H150.963V125.591H158.597V70.3711Z" fill="#FFAA6E"/>
<path d="M181.633 95.3164H173.998V126.774H181.633V95.3164Z" fill="#FFE091"/>
<path d="M158.65 131.909V124.191H150.96V131.909H143.197V154.876H166.364V131.909H158.65Z" fill="#431E66"/>
<path d="M211.821 170.242H105.939V178.03H211.821V170.242Z" fill="#DD3745"/>
<path d="M191.402 170.242H183.615V178.029H191.402V170.242Z" fill="#FFE091"/>
<path d="M192.627 70.3086H66.2871V77.9326H192.627V70.3086Z" fill="#CCE2E1"/>
</svg>
