<svg width="250" height="250" viewBox="0 0 250 250" fill="none" xmlns="http://www.w3.org/2000/svg">
<path d="M2.11046 124.258C1.82796 57.6158 56.847 2.29426 123.193 1.50676C190.444 0.70876 246.978 54.8243 247.662 122.768C248.354 191.533 193.43 247.301 124.403 247.063C56.072 246.827 2.04496 191.246 2.11046 124.258ZM90.245 173.467C93.0265 175.084 94.8204 173.858 96.5785 172.72C98.867 171.238 101.227 169.825 103.33 168.105C107.112 165.012 111.076 164.282 116.063 164.711C131.889 166.071 146.385 161.952 159.082 152.163C183.938 133 183.753 98.2558 158.708 79.3078C139.015 64.4088 111.719 62.3573 90.6115 74.9903C74.236 84.7908 64.181 98.9268 65.53 118.926C66.506 133.393 73.7205 144.74 85.3185 153.191C88.3995 155.436 89.586 157.832 89.4795 161.559C89.367 165.476 88.692 169.517 90.245 173.467ZM167.036 182.299C169.782 180.247 169.818 178.484 169.573 176.856C168.861 172.128 170.995 169.205 174.617 166.308C179.241 162.61 182.554 157.59 183.81 151.649C185.549 143.424 184.972 135.639 178.358 128.535C175.994 133.136 174.379 136.671 175.513 141.514C177.332 149.288 174.49 156.028 168.305 161.064C165.409 163.422 162.587 165.712 161.363 169.43C158.652 168.338 156.555 167.068 153.815 167.409C148.586 168.059 143.467 167.534 138.308 165.974C134.471 164.814 130.264 164.93 126.558 168.337C131.906 172.918 137.841 174.855 144.127 175.415C152.362 176.148 160.937 175.229 167.036 182.299Z" fill="url(#paint0_linear_242_93337)"/>
<path d="M90.2445 173.468C88.6915 169.518 89.3665 165.477 89.4785 161.56C89.585 157.833 88.3985 155.437 85.3174 153.192C73.719 144.741 66.5045 133.395 65.529 118.927C64.18 98.9275 74.2354 84.792 90.6104 74.991C111.718 62.358 139.014 64.4095 158.707 79.3085C183.752 98.256 183.937 133.001 159.081 152.164C146.384 161.953 131.889 166.072 116.062 164.712C111.075 164.283 107.111 165.012 103.329 168.106C101.226 169.826 98.8665 171.239 96.5775 172.721C94.82 173.859 93.026 175.085 90.2445 173.468ZM97.3995 160.456C99.764 159.76 100.769 159.764 101.289 159.264C105.349 155.357 110.062 155.36 115.322 155.995C126.4 157.331 136.977 155.289 146.974 150.124C174.377 135.967 176.966 102.295 151.51 85.0485C133.434 72.8015 113.922 72.2565 94.9415 82.593C68.6305 96.9215 66.3159 128.866 89.9324 146.302C94.6639 149.795 99.4845 152.624 97.3995 160.456Z" fill="white"/>
<path d="M167.037 182.297C160.938 175.228 152.362 176.147 144.128 175.413C137.841 174.853 131.906 172.916 126.559 168.335C130.265 164.929 134.471 164.812 138.309 165.972C143.467 167.532 148.587 168.058 153.816 167.407C156.556 167.067 158.652 168.336 161.364 169.428C162.587 165.71 165.41 163.42 168.306 161.062C174.491 156.026 177.333 149.286 175.513 141.512C174.38 136.669 175.995 133.134 178.359 128.533C184.972 135.637 185.55 143.422 183.811 151.647C182.555 157.588 179.242 162.608 174.617 166.306C170.995 169.202 168.862 172.125 169.573 176.854C169.819 178.482 169.783 180.246 167.037 182.297Z" fill="white"/>
<path d="M97.4012 160.453C99.4862 152.621 94.6657 149.792 89.9342 146.299C66.3177 128.864 68.6322 96.919 94.9432 82.591C113.924 72.2545 133.436 72.7995 151.512 85.0465C176.968 102.292 174.379 135.965 146.976 150.122C136.979 155.286 126.402 157.329 115.324 155.992C110.064 155.358 105.351 155.355 101.291 159.262C100.771 159.761 99.7657 159.757 97.4012 160.453ZM153.283 116.881C153.128 113.397 150.231 110.627 146.732 110.617C143.019 110.606 139.888 113.709 139.919 117.37C139.949 120.933 143.342 124.206 146.852 124.059C150.401 123.909 153.445 120.512 153.283 116.881ZM103.057 116.954C102.91 113.392 100.076 110.593 96.5817 110.558C92.9967 110.523 89.6532 113.79 89.6502 117.333C89.6472 120.838 93.1097 124.213 96.5932 124.1C100.187 123.984 103.209 120.642 103.057 116.954ZM128.589 117.289C128.617 113.532 125.526 110.413 121.865 110.504C118.306 110.592 115.521 113.317 115.377 116.854C115.226 120.581 118.202 123.917 121.767 124.017C125.411 124.119 128.562 121.012 128.589 117.289Z" fill="url(#paint1_linear_242_93337)"/>
<path d="M153.281 116.882C153.443 120.513 150.4 123.909 146.851 124.058C143.34 124.206 139.948 120.933 139.918 117.37C139.887 113.71 143.018 110.607 146.731 110.617C150.229 110.628 153.126 113.399 153.281 116.882Z" fill="white"/>
<path d="M103.056 116.954C103.208 120.643 100.186 123.984 96.5929 124.1C93.1092 124.213 89.6474 120.839 89.6504 117.333C89.6534 113.791 92.9962 110.523 96.5814 110.559C100.074 110.594 102.909 113.393 103.056 116.954Z" fill="white"/>
<path d="M128.588 117.291C128.56 121.014 125.41 124.12 121.766 124.018C118.201 123.919 115.225 120.583 115.377 116.855C115.52 113.319 118.305 110.594 121.864 110.506C125.525 110.415 128.616 113.534 128.588 117.291Z" fill="white"/>
<defs>
<linearGradient id="paint0_linear_242_93337" x1="124.391" y1="3.49046" x2="125.391" y2="245.49" gradientUnits="userSpaceOnUse">
<stop stop-color="#1BD1FE"/>
<stop offset="0.999" stop-color="#1D6DF2"/>
</linearGradient>
<linearGradient id="paint1_linear_242_93337" x1="120.232" y1="2.53982" x2="122.732" y2="248.54" gradientUnits="userSpaceOnUse">
<stop stop-color="#1BD1FE"/>
<stop offset="0.999" stop-color="#1D6DF2"/>
</linearGradient>
</defs>
</svg>
