<svg width="250" height="250" viewBox="0 0 250 250" fill="none" xmlns="http://www.w3.org/2000/svg">
<rect width="250" height="250" rx="125" fill="white"/>
<path d="M82.9551 66.8034L114.789 47.0805C117.591 45.4927 117.591 42.2023 115.57 40.1937L88.9787 14.3874C88.464 13.8709 87.6062 13.8709 87.0916 14.3874L84.5754 16.9317C81.3539 20.1838 81.3729 25.4254 84.6135 28.6583L95.0023 38.2807C96.7751 40.0406 96.432 42.9866 94.3161 44.3066L81.9067 51.9395C78.0371 54.3307 76.8361 59.4384 79.238 63.3218L81.1061 66.3634C81.4873 66.9947 82.326 67.186 82.9551 66.8034Z" fill="#FF1256"/>
<path d="M113.476 173.36C116.1 161.921 112.997 149.904 105.142 141.204L84.9316 118.133C73.6864 105.285 76.4642 85.378 90.7937 76.1573L123.859 54.8802C125.985 53.5106 128.782 53.7614 130.64 55.4782C142.728 66.7051 184.817 107.176 182.939 148.978C182.939 148.978 182.997 213.889 119.51 238.175C110.181 241.744 100.736 233.16 103.188 223.418C111.962 188.426 113.495 173.341 113.495 173.341H113.476V173.36ZM121.751 73.4181C116.694 76.6395 106.905 82.8895 98.5523 88.2329C92.9584 91.8016 91.8282 99.5369 96.1577 104.591L117.288 129.186C129.395 142.593 134.204 161.111 130.142 178.781L126.598 194.425C125.066 201.215 133.016 205.961 138.265 201.408C160.525 182.06 191.732 135.552 126.637 73.9003C125.315 72.6465 123.303 72.4536 121.751 73.4374V73.4181Z" fill="#FF1256"/>
</svg>
