<svg width="250" height="250" viewBox="0 0 250 250" fill="none" xmlns="http://www.w3.org/2000/svg">
<g clip-path="url(#clip0_242_93342)">
<path fill-rule="evenodd" clip-rule="evenodd" d="M0.300483 117.799C18.0005 136.849 49.2505 152.149 93.3505 163.549L97.4005 164.599L101.5 165.599L105.7 166.599L107.55 166.999L111.15 167.849L115.55 168.949L119.85 170.049L123.2 170.949L126.5 171.849L129.7 172.749L132.8 173.649L135.85 174.549L138.85 175.449L140.3 175.899L143.2 176.849L145.3 177.549L147.35 178.249L150.7 179.449L151.35 179.699L154.55 180.899L157.65 182.099L158.85 182.599L161.2 183.549L162.35 184.049L164.6 185.049C177.15 190.599 186.15 196.449 191.55 202.449C199.45 211.249 199.25 220.549 189.5 232.449C171.55 243.199 151.2 249.299 130.3 250.149C128.35 245.399 125.45 240.399 121.65 235.199C119.55 232.349 117.3 229.599 114.95 226.899L113.7 225.449L112 223.499L110.25 221.649L108.45 219.799C105.55 216.849 102.35 213.799 98.9505 210.649L97.2005 209.099L94.9005 207.099L92.5505 205.049L90.1505 202.999L87.6505 200.899L86.4005 199.849L83.8005 197.749L81.1505 195.599L77.7005 192.899L74.1505 190.149L71.2505 187.949L68.2505 185.699L65.2005 183.449L61.3005 180.599L57.2505 177.699L53.9505 175.349L50.5505 172.999L47.1005 170.599L41.7505 166.999L38.1005 164.549L34.4005 162.099L30.6505 159.599L25.8505 156.449L20.9005 153.299L14.8505 149.449L10.7005 146.849L4.40048 142.899L0.850482 140.699C0.0504825 133.799 -0.199517 126.899 0.150483 119.949L0.300483 117.799Z" fill="url(#paint0_linear_242_93342)"/>
<path fill-rule="evenodd" clip-rule="evenodd" d="M7.20117 165.848L9.35117 167.198L15.1512 170.898L18.9512 173.348L22.6512 175.748L26.3012 178.148L29.8512 180.548L33.3512 182.898L36.7512 185.248L40.1012 187.548L43.4012 189.848L46.6012 192.098L49.7512 194.348L52.8012 196.548L55.8012 198.748L58.7512 200.898L63.0012 204.098L67.1012 207.248L69.7512 209.298L72.3012 211.348L74.8012 213.348L77.2012 215.348L78.4012 216.348L80.7012 218.298L82.9512 220.248L85.1512 222.148L87.2512 224.048L88.3012 224.998L90.3012 226.848L92.2012 228.648L94.0512 230.448C94.8512 231.248 95.6512 232.048 96.4012 232.798L97.5512 233.948L99.2012 235.648C102.651 239.348 105.651 242.898 108.101 246.298C109.001 247.548 109.851 248.748 110.601 249.898C62.1012 244.098 22.2012 210.648 7.20117 165.848Z" fill="url(#paint1_linear_242_93342)"/>
<path fill-rule="evenodd" clip-rule="evenodd" d="M30.7496 43.25C30.1996 51.75 32.3496 59.95 37.2996 67.75C44.6996 79.35 58.1496 89.3 77.6996 97.85L79.1996 98.5L81.7996 99.6C86.7496 101.65 92.0496 103.55 97.7496 105.45L100.2 106.25L103.3 107.2L104.85 107.7L108.05 108.65L109.65 109.1L112.95 110L114.6 110.45L116.3 110.9L119.7 111.8L121.45 112.25L124.95 113.1L128.55 113.95L133.05 115L136.95 115.95L140.75 116.9L144.5 117.85C145.75 118.15 146.95 118.5 148.15 118.85L151.75 119.85L155.25 120.85L158.7 121.85C207.4 136.6 233.3 155.85 238.1 179.85C232.4 191.5 224.9 202.2 215.85 211.55C215.15 204.05 211.8 196.75 205.65 189.9C200.3 183.95 192.85 178.4 183.25 173.2L181.85 172.45L179.6 171.3C178.3 170.65 177 170 175.7 169.4L173.7 168.45L171.2 167.35L169.9 166.8L168.6 166.25L165.95 165.15L164.6 164.6L161.85 163.55C157.7 161.95 153.5 160.45 149.3 159.1L147.05 158.4L143.9 157.4L140.65 156.4L137.35 155.4L132.25 153.95L128.75 153L124.25 151.8L119.65 150.65L117.8 150.2L114 149.3L107.45 147.75L103.9 146.9L100.4 146.05L96.9996 145.2C96.4496 145.05 95.8996 144.9 95.2996 144.75L91.9496 143.85L88.6996 142.95L85.4996 142.05L83.8996 141.6L80.7996 140.65L77.7496 139.7C76.7496 139.4 75.7496 139.05 74.7496 138.75L71.7996 137.8L68.9496 136.8C68.4996 136.65 67.9996 136.45 67.5496 136.3L64.7996 135.3C63.4496 134.8 62.0996 134.3 60.7496 133.8L58.1496 132.75C56.3996 132.05 54.7496 131.35 53.0996 130.65L50.6496 129.6L49.4496 129.05L47.0996 127.95C24.6996 117.35 10.7496 105.05 4.84961 90.95C9.79961 73.7 18.4496 57.75 30.1996 44.15L30.7496 43.25Z" fill="url(#paint2_linear_242_93342)"/>
<path fill-rule="evenodd" clip-rule="evenodd" d="M124.65 -0.00163795C125.85 -0.00163795 127 -0.00163795 128.15 0.0483621C118.85 12.4484 120.9 28.5484 135.45 46.9484C137.5 49.5484 139.85 52.2484 142.45 54.9984L143.8 56.3984L145.55 58.1984C146.35 58.9984 147.15 59.7984 148 60.5984L149.25 61.7984L151.2 63.6484L153.25 65.4984C155.45 67.4984 157.8 69.4984 160.25 71.5484L162.1 73.0984L164.5 75.0484L166.95 77.0484L169.5 79.0484L172.1 81.0484L174.8 83.0984L177.55 85.1484L181.8 88.2484L184.75 90.3484L189.3 93.5484L192.4 95.6984L194 96.7984L197.2 98.9984L198.85 100.098L202.2 102.298L205.6 104.548L209.05 106.798L212.6 109.048L216.2 111.348L219.9 113.648L223.65 115.998L227.5 118.348L231.4 120.698L235.4 123.098L239.45 125.498L243.6 127.898L247.8 130.348L250 131.598C249.55 139.198 248.45 146.648 246.7 153.848C234.85 136.348 212.75 121.698 180.9 109.898L177.8 108.748C173.5 107.198 169.1 105.748 164.75 104.398L161.35 103.348L157.85 102.348L154.3 101.348C153.7 101.198 153.1 100.998 152.5 100.848L148.85 99.8484C148.25 99.6984 147.6 99.5484 147 99.3484L143.3 98.3984C141.45 97.9484 139.55 97.4484 137.6 96.9984L130.25 95.2984L126.85 94.4984L123.5 93.6484L120.25 92.7984L117.05 91.9484L115.5 91.4984L112.4 90.6484L110.9 90.1984L107.9 89.2984L106.45 88.8484L103.6 87.9484L102.2 87.4984L99.4496 86.5984L98.0996 86.1484L95.4496 85.1984L94.1496 84.7484L91.5996 83.7984L90.3496 83.2984L89.0996 82.7984L86.6996 81.8484L85.4996 81.3484L83.1996 80.3484C81.4996 79.5984 79.8996 78.8484 78.2996 78.0984L76.7496 77.3484L74.7496 76.3484C63.5996 70.4984 55.8996 64.2484 51.7496 57.6484C44.8496 46.6984 47.4496 33.4984 61.1996 17.0484C80.4496 5.84836 102.35 -0.051638 124.65 -0.00163795Z" fill="url(#paint3_linear_242_93342)"/>
<path fill-rule="evenodd" clip-rule="evenodd" d="M153.55 2.40039C204.75 14.0004 244.05 57.2504 250 110.55L245.55 107.9L240 104.5L236.35 102.25L232.8 100.05L229.3 97.8504L225.9 95.7004L222.55 93.5504L219.25 91.4004L216.05 89.3004L212.9 87.2004L209.8 85.1004L206.8 83.0504L203.85 81.0004L200.95 79.0004L198.15 77.0004L195.4 75.0504L192.7 73.1004L190.1 71.2004L187.55 69.3004L185.05 67.4004L182.65 65.5504L180.3 63.7004L178 61.8504L175.8 60.0504L174.7 59.1504L172.6 57.3504L170.55 55.6004L168.6 53.8504L166.7 52.1504L164.85 50.4504L163.5 49.2004L162.2 47.9504L160.55 46.3004L159.75 45.5004L158.95 44.7004L157.4 43.1004C156.05 41.7004 154.75 40.2504 153.5 38.7504L152.6 37.7004L151.4 36.2004L150.2 34.6504C142.2 24.1504 140.35 16.6504 142.95 11.5004C144.45 8.50039 147.65 5.60039 152.55 2.90039C152.5 2.95039 153.55 2.40039 153.55 2.40039Z" fill="url(#paint4_linear_242_93342)"/>
</g>
<defs>
<linearGradient id="paint0_linear_242_93342" x1="98.5578" y1="117.786" x2="98.5578" y2="249.998" gradientUnits="userSpaceOnUse">
<stop stop-color="#FF475A"/>
<stop offset="1" stop-color="#FF9A89"/>
</linearGradient>
<linearGradient id="paint1_linear_242_93342" x1="58.8975" y1="165.864" x2="58.8975" y2="249.996" gradientUnits="userSpaceOnUse">
<stop stop-color="#FF9A89"/>
<stop offset="1" stop-color="#FF475A"/>
</linearGradient>
<linearGradient id="paint2_linear_242_93342" x1="121.393" y1="43.2702" x2="121.393" y2="211.534" gradientUnits="userSpaceOnUse">
<stop stop-color="#FF9A89"/>
<stop offset="1" stop-color="#FF475A"/>
</linearGradient>
<linearGradient id="paint3_linear_242_93342" x1="149.039" y1="0.00979205" x2="149.039" y2="153.848" gradientUnits="userSpaceOnUse">
<stop stop-color="#FF475A"/>
<stop offset="1" stop-color="#FF9A89"/>
</linearGradient>
<linearGradient id="paint4_linear_242_93342" x1="195.914" y1="2.40767" x2="195.914" y2="110.578" gradientUnits="userSpaceOnUse">
<stop stop-color="#FF9A89"/>
<stop offset="1" stop-color="#FF475A"/>
</linearGradient>
<clipPath id="clip0_242_93342">
<rect width="250" height="250" rx="125" fill="white"/>
</clipPath>
</defs>
</svg>
