<svg width="250" height="250" viewBox="0 0 250 250" fill="none" xmlns="http://www.w3.org/2000/svg">
<rect width="250" height="250" rx="125" fill="white"/>
<path d="M232.498 125.017C232.53 184.409 184.408 232.582 125.016 232.614C65.6237 232.646 17.4508 184.525 17.419 125.132C17.3871 65.7399 65.5082 17.567 124.901 17.5352C139.023 17.5276 153.008 20.3017 166.058 25.699C179.109 31.0964 190.968 39.0113 200.959 48.9919C210.951 58.9725 218.878 70.8232 224.29 83.8676C229.701 96.912 232.49 110.894 232.498 125.017Z" fill="white"/>
<path d="M124.955 233.129C100.034 233.113 75.8835 224.485 56.594 208.705C37.3044 192.925 24.0611 170.964 19.1066 146.54C14.1521 122.116 17.7909 96.7296 29.4067 74.6807C41.0226 52.6317 59.9017 35.2747 82.8471 25.5489C96.1489 19.9106 110.452 17.015 124.899 17.0353H124.959C153.604 17.0358 181.077 28.4115 201.337 48.6615C221.598 68.9115 232.988 96.3784 233.003 125.024C233.023 139.216 230.244 153.273 224.825 166.39C219.407 179.507 211.455 191.427 201.425 201.468C191.395 211.509 179.483 219.473 166.372 224.906C153.261 230.339 139.207 233.133 125.015 233.129H124.955ZM124.958 18.0499H124.9C100.207 18.0791 76.284 26.6428 57.1823 42.2902C38.0807 57.9377 24.975 79.707 20.0854 103.91C15.1958 128.114 18.8229 153.264 30.3522 175.099C41.8815 196.935 60.6042 214.114 83.3488 223.726C96.5134 229.289 110.664 232.142 124.956 232.115H125.015C149.775 232.102 173.766 223.505 192.899 207.789C212.032 192.072 225.124 170.208 229.944 145.921C234.765 121.634 231.016 96.4274 219.336 74.5946C207.657 52.7619 188.769 35.6539 165.89 26.1853C152.916 20.8005 139.005 18.0354 124.958 18.049V18.0499Z" fill="#FF0000"/>
<path d="M125.016 15.75C64.7055 15.7859 15.843 64.7066 15.8789 125.017C15.9148 185.328 64.8356 234.191 125.146 234.155C185.457 234.119 234.32 185.198 234.284 124.887C234.275 110.547 231.442 96.3482 225.946 83.1024C220.451 69.8567 212.4 57.8231 202.253 47.6887C192.107 37.5544 180.064 29.5177 166.811 24.0377C153.559 18.5576 139.357 15.7415 125.016 15.75ZM125.016 19.3219C183.337 19.375 230.572 66.6967 230.519 125.017C230.466 183.338 183.144 230.574 124.824 230.52C66.5028 230.467 19.2676 183.146 19.3207 124.825C19.3334 110.957 22.0773 97.228 27.3959 84.421C32.7144 71.6139 40.5034 59.9798 50.3182 50.183C60.1329 40.3861 71.7812 32.6184 84.5979 27.3232C97.4147 22.0281 111.149 19.3092 125.016 19.3219Z" fill="#002E60"/>
<path d="M125.078 235.377C99.6097 235.361 74.9293 226.544 55.2162 210.418C35.503 194.292 21.9686 171.849 16.9046 146.889C11.8407 121.929 15.5584 95.9864 27.4283 73.4531C39.2982 50.9198 58.5908 33.1811 82.0393 23.2407C95.6332 17.4776 110.25 14.5174 125.015 14.5373C139.528 14.5098 153.904 17.3433 167.32 22.876C180.737 28.4086 192.931 36.5318 203.206 46.781C213.481 57.0301 221.634 69.2042 227.2 82.607C232.766 96.0098 235.636 110.378 235.644 124.891C235.653 139.404 232.801 153.776 227.25 167.185C221.7 180.594 213.561 192.778 203.298 203.039C193.036 213.301 180.851 221.438 167.441 226.987C154.031 232.535 139.659 235.386 125.146 235.376L125.078 235.377ZM125.015 16.9708C100.103 17.0015 75.9668 25.6427 56.6957 41.4307C37.4246 57.2187 24.2034 79.1828 19.2718 103.602C14.3401 128.022 18.0011 153.395 29.6347 175.425C41.2683 197.454 60.1591 214.785 83.1072 224.482C96.3871 230.093 110.662 232.97 125.078 232.942H125.145C139.326 232.934 153.366 230.132 166.464 224.698C179.562 219.263 191.462 211.302 201.483 201.268C211.505 191.235 219.452 179.326 224.871 166.221C230.29 153.116 233.074 139.073 233.066 124.892C233.057 110.711 230.256 96.6706 224.821 83.5724C219.387 70.4743 211.425 58.5748 201.392 48.5534C191.358 38.532 179.449 30.5849 166.345 25.166C153.24 19.747 139.196 16.9623 125.015 16.9708ZM124.922 231.741H124.821C96.4915 231.715 69.3327 220.437 49.319 200.387C29.3054 180.337 18.0763 153.157 18.1021 124.828C18.1279 96.4985 29.4065 69.3397 49.4566 49.326C69.5067 29.3124 96.6861 18.0833 125.015 18.1091H125.017C149.659 18.1474 173.531 26.7025 192.588 42.3254C211.646 57.9483 224.717 79.6784 229.587 103.835C234.458 127.991 230.829 153.089 219.315 174.876C207.801 196.663 189.109 213.8 166.407 223.384C153.28 228.926 139.171 231.768 124.922 231.741H124.922ZM125.015 20.5426C111.308 20.53 97.7317 23.2174 85.0626 28.4515C72.3935 33.6855 60.8794 41.3637 51.1777 51.0476C41.4759 60.7315 33.7766 72.2314 28.5192 84.8909C23.2618 97.5503 20.5494 111.121 20.5368 124.829C20.5241 138.537 23.2116 152.113 28.4456 164.782C33.6797 177.451 41.3578 188.965 51.0417 198.667C60.7256 208.368 72.2255 216.068 84.885 221.325C97.5444 226.583 111.115 229.295 124.823 229.308H124.922C148.994 229.292 172.322 220.958 190.956 205.717C209.59 190.476 222.385 169.265 227.175 145.673C231.965 122.082 228.456 97.5594 217.242 76.2581C206.028 54.9568 187.797 38.1849 165.637 28.7817C152.789 23.3304 138.972 20.5281 125.015 20.5426Z" fill="#002E60"/>
<path d="M125.016 15.75C64.7055 15.7859 15.843 64.7066 15.8789 125.017C15.9148 185.328 64.8356 234.191 125.146 234.155C185.457 234.119 234.32 185.198 234.284 124.887C234.275 110.547 231.442 96.3482 225.946 83.1024C220.451 69.8567 212.4 57.8231 202.253 47.6887C192.107 37.5544 180.064 29.5177 166.811 24.0377C153.559 18.5576 139.357 15.7415 125.016 15.75ZM125.016 19.3219C183.337 19.375 230.572 66.6967 230.519 125.017C230.466 183.338 183.144 230.574 124.824 230.52C66.5028 230.467 19.2676 183.146 19.3207 124.825C19.3334 110.957 22.0773 97.228 27.3959 84.421C32.7144 71.6139 40.5034 59.9798 50.3182 50.183C60.1329 40.3861 71.7812 32.6184 84.5979 27.3232C97.4147 22.0281 111.149 19.3092 125.016 19.3219Z" fill="#7BB1DD"/>
<path d="M125.079 234.725C99.7609 234.709 75.2262 225.943 55.6294 209.912C36.0326 193.881 22.5781 171.57 17.544 146.757C12.5099 121.944 16.2056 96.1541 28.0052 73.7534C39.8049 51.3528 58.9834 33.7182 82.2935 23.8357C95.8074 18.1067 110.338 15.1639 125.017 15.1837C154.13 15.1664 182.057 26.7149 202.655 47.2887C223.254 67.8624 234.835 95.7762 234.853 124.889C234.87 154.002 223.321 181.93 202.748 202.528C182.174 223.126 154.26 234.708 125.147 234.725H125.079ZM125.017 16.3202C99.9541 16.3505 75.6725 25.0434 56.2853 40.9262C36.898 56.8091 23.597 78.9053 18.6356 103.472C13.6742 128.038 17.3573 153.565 29.0611 175.727C40.7649 197.889 59.7697 215.324 82.8561 225.078C97.6863 231.327 113.72 234.203 129.797 233.498C145.875 232.793 161.595 228.526 175.821 221.004C190.048 213.482 202.426 202.893 212.061 190.002C221.695 177.112 228.346 162.242 231.531 146.468C234.717 130.694 234.359 114.408 230.482 98.7894C226.605 83.1704 219.307 68.6078 209.114 56.154C198.922 43.7001 186.09 33.6662 171.546 26.7773C157.002 19.8884 141.11 16.3167 125.017 16.3202ZM124.923 231.09H124.823C96.6864 231.032 69.7237 219.808 49.8578 199.883C29.992 179.958 18.8478 152.962 18.8735 124.826C18.8992 96.6898 30.0927 69.7142 49.9949 49.8256C69.8971 29.937 96.8802 18.762 125.017 18.7555C149.509 18.7937 173.236 27.2971 192.177 42.8251C211.119 58.3531 224.11 79.9512 228.952 103.961C233.793 127.97 230.186 152.915 218.742 174.57C207.298 196.225 188.72 213.258 166.156 222.785C153.109 228.293 139.086 231.117 124.924 231.09H124.923ZM125.017 19.892C111.214 19.8635 97.5403 22.556 84.7786 27.8154C72.0168 33.0749 60.417 40.7983 50.6422 50.544C40.8674 60.2896 33.1095 71.8664 27.8119 84.6124C22.5144 97.3584 19.7811 111.024 19.7685 124.827C19.7558 138.63 22.464 152.3 27.7382 165.055C33.0124 177.811 40.7491 189.402 50.506 199.166C60.2629 208.929 71.8486 216.674 84.6006 221.957C97.3527 227.24 111.021 229.957 124.824 229.954H124.923C149.145 229.937 172.617 221.551 191.366 206.216C210.115 190.88 222.989 169.537 227.809 145.799C232.629 122.062 229.098 97.388 217.815 75.9546C206.531 54.5213 188.188 37.6452 165.891 28.1831C152.963 22.6975 139.06 19.8776 125.017 19.892Z" fill="#002E60"/>
<path d="M125.333 193.618C107.248 193.619 89.9029 186.435 77.1142 173.647C64.3254 160.859 57.1404 143.515 57.1396 125.43C57.1389 107.344 64.3226 89.9996 77.1103 77.2109C89.8981 64.4221 107.242 57.2371 125.328 57.2363H125.334C143.417 57.2381 160.76 64.4223 173.548 77.209C186.335 89.9957 193.521 107.338 193.524 125.422C193.526 143.507 186.343 160.852 173.556 173.641C160.769 186.43 143.425 193.616 125.34 193.618H125.333ZM125.333 58.3617H125.327C107.54 58.3624 90.4825 65.4289 77.9059 78.0065C65.3294 90.5841 58.2643 107.643 58.265 125.429C58.2657 143.216 65.3322 160.274 77.9098 172.851C90.4874 185.427 107.546 192.492 125.333 192.492H125.339C143.125 192.491 160.183 185.424 172.76 172.847C185.336 160.269 192.401 143.211 192.401 125.424C192.4 107.637 185.334 90.5792 172.756 78.0026C160.178 65.426 143.12 58.361 125.333 58.3617Z" fill="#002E60"/>
<path d="M188.254 125.339C188.273 160.24 159.997 188.549 125.096 188.568C90.195 188.588 61.8867 160.311 61.8672 125.41C61.8476 90.5097 90.1241 62.2014 125.025 62.1817C133.324 62.177 141.542 63.8069 149.211 66.9784C156.879 70.1498 163.848 74.8007 169.72 80.6655C175.591 86.5302 180.25 93.494 183.43 101.159C186.61 108.824 188.249 117.041 188.254 125.339Z" fill="#7BB1DD"/>
<path fill-rule="evenodd" clip-rule="evenodd" d="M72.8989 73.1433C68.3528 92.3829 68.3528 109.674 68.5153 121.526C68.1905 175.348 108.05 192.071 124.935 197.185C141.82 192.071 181.679 175.348 181.355 121.526C181.517 109.674 181.517 92.3829 176.971 73.1433C150.831 68.5973 134.92 69.003 124.935 68.9219C114.95 69.003 99.1198 68.5973 72.8989 73.1433Z" fill="#002E60"/>
<path fill-rule="evenodd" clip-rule="evenodd" d="M78.3376 76.9583C75.4963 89.7036 74.035 101.15 73.4667 110.729C73.2233 121.12 73.1421 131.673 74.7657 141.009C75.6586 145.88 77.0388 150.994 79.6364 156.271C85.0755 166.499 92.8686 175.51 99.9313 180.3C109.267 187.444 118.927 191.34 125.016 193.288C134.042 190.386 142.52 185.996 150.1 180.3C157.163 175.51 164.956 166.418 170.395 156.271C172.763 151.452 174.404 146.309 175.266 141.009C176.889 131.673 176.808 121.12 176.565 110.729C175.996 101.15 174.535 89.7036 171.694 76.9583C148.233 72.6559 134.027 73.0618 125.016 72.9805C116.005 73.0618 101.798 72.6559 78.3376 76.9583Z" fill="#FFBB59"/>
<path d="M109.347 205.954C109.104 205.791 108.617 205.223 108.211 204.98C104.395 202.544 99.9305 204.899 99.6868 209.526C99.5245 212.367 101.635 214.721 103.908 215.208C106.262 215.614 107.967 214.559 109.591 213.179L112.026 215.695C110.601 217.293 108.69 218.376 106.587 218.78C105.916 218.888 105.237 218.942 104.558 218.942C99.5245 218.455 96.6833 215.777 95.8716 211.555C95.388 209.272 95.7946 206.891 97.0081 204.899C98.4692 202.544 100.58 201.164 103.34 200.596C106.587 199.947 109.915 201.002 111.945 203.194L109.347 205.954Z" fill="#002E60"/>
<path d="M119.821 200.594H115.762V218.453H119.821V200.594Z" fill="#002E60"/>
<path d="M138.247 204.328H132.809V218.453H128.75V204.328H123.311V200.594H138.247V204.328Z" fill="#002E60"/>
<path d="M157.569 200.594L150.588 211.309V218.453H146.691V211.309L139.872 200.594H144.499L148.721 207.9L153.023 200.594H157.569Z" fill="#002E60"/>
<path fill-rule="evenodd" clip-rule="evenodd" d="M56.1758 94.0056L54.3899 97.334L38.9658 89.2973L40.914 85.6443L49.6813 85.0761L45.2166 77.3639L47.0837 73.7109L62.5889 81.91L60.803 85.2384L50.5744 79.8806L55.0393 87.9173L46.0283 88.8102L56.1758 94.0056Z" fill="#002E60"/>
<path d="M77.1204 65.7564L74.2791 68.6788L70.3013 67.1363L65.187 72.5755L66.9729 76.4721L64.2939 79.232L56.582 61.6974L59.0174 59.0996L77.1204 65.7564ZM66.9729 65.8375L61.1281 63.5645L63.7257 69.2471L66.9729 65.8375Z" fill="#002E60"/>
<path fill-rule="evenodd" clip-rule="evenodd" d="M79.636 63.8917L70.5439 49.0358L73.5475 47.0876L86.2117 52.1208L80.6103 42.8662L83.8575 40.918L92.8682 55.8549L90.1083 57.5597L77.0384 52.4454L82.8833 61.9434L79.636 63.8917Z" fill="#002E60"/>
<path d="M106.021 38.7218C105.777 38.6407 105.127 38.2347 104.64 38.0724C100.419 36.8548 96.7659 40.2643 97.8213 44.6481C98.4707 47.3268 101.069 49.0316 103.342 48.7882C105.696 48.5447 106.995 47.0834 108.131 45.3786L111.053 47.0834C110.242 48.6259 109.186 50.2495 106.751 51.4672C106.138 51.7815 105.481 52.0005 104.803 52.1166C99.932 53.0094 96.5225 51.3046 94.5741 47.4894C93.4889 45.4746 93.2271 43.1176 93.8435 40.9137C94.5741 38.3159 96.1977 36.4488 98.6332 35.15C101.556 33.6887 104.965 33.7698 107.482 35.2312L106.021 38.7218Z" fill="#002E60"/>
<path d="M185.334 57.9601L181.113 54.7129L172.67 65.8346L169.504 63.4804L178.028 52.4399L173.807 49.1928L175.998 46.3516L187.526 55.2L185.334 57.9601Z" fill="#002E60"/>
<path fill-rule="evenodd" clip-rule="evenodd" d="M115.113 31.9021L115.519 49.3557L119.253 49.2746L119.091 42.2118L126.316 42.0495L126.478 49.112L130.213 49.0309L129.888 31.4961L125.991 31.5775L126.154 38.5588L119.01 38.7211L118.847 31.8209L115.113 31.9021Z" fill="#002E60"/>
<path fill-rule="evenodd" clip-rule="evenodd" d="M139.302 32.6328L152.21 35.4741L151.398 38.8025L142.306 36.7731L141.494 40.345L149.044 41.8874L147.258 44.9722L140.764 43.5922L139.952 47.2452L149.288 49.2748L148.557 52.5218L135.568 49.7619L139.302 32.6328Z" fill="#002E60"/>
<path fill-rule="evenodd" clip-rule="evenodd" d="M162.765 47.2466C160.492 45.5418 160.492 44.5678 161.06 43.7559C161.628 43.1065 162.359 43.1065 163.09 43.3499C164.265 43.7647 165.285 44.5296 166.012 45.5418C166.391 46.0367 166.744 46.5516 167.067 47.0843L170.071 45.2172C169.584 44.3242 168.366 41.8888 164.794 40.3464C163.09 39.6158 159.031 38.8853 157.245 43.1065C156.514 44.8924 156.839 46.0289 157.245 46.8409C158.219 48.4642 159.842 49.6008 161.223 50.8186C161.791 51.3055 162.44 51.8738 162.684 52.6046C162.763 52.8614 162.766 53.1355 162.694 53.3944C162.622 53.6533 162.478 53.8862 162.278 54.0657C160.167 55.8516 156.433 52.0363 155.702 49.9256L152.455 51.468C154.16 54.7964 157.082 57.8 161.628 57.9623C162.578 57.9243 163.498 57.6233 164.286 57.093C165.075 56.5627 165.7 55.8238 166.093 54.9587C166.661 53.3351 166.824 51.8738 166.012 50.575C165.144 49.2753 164.043 48.1469 162.765 47.2466Z" fill="#002E60"/>
<path fill-rule="evenodd" clip-rule="evenodd" d="M192.882 60.3164L201.243 70.4639L198.646 72.6558L192.638 65.4307L189.797 67.7037L194.993 73.8734L191.502 75.0099L187.281 69.8956L184.358 72.2498L190.528 79.556L187.93 81.7478L179.406 71.5192L192.882 60.3164Z" fill="#002E60"/>
<path d="M206.114 85.809L204.328 82.2372L199.863 84.5102L201.568 87.9197C202.461 89.7868 203.922 90.0305 205.058 89.6245C206.357 89.2185 207.088 87.5949 206.114 85.809ZM196.859 98.6354L194.83 94.6577L198.158 88.8126L196.697 86.0524L191.745 88.5691L190.04 85.1596L205.627 77.2852L208.955 83.9419C209.328 84.6393 209.628 85.374 209.848 86.1338C210.335 87.5138 210.335 88.8126 209.929 89.8679C208.468 93.3586 203.841 95.1445 200.512 92.0598L196.859 98.6354Z" fill="#002E60"/>
<path d="M206.196 126.801C204.734 128.1 202.462 127.776 201.244 126.477C200.953 126.175 200.725 125.819 200.571 125.429C200.418 125.039 200.343 124.623 200.351 124.204C200.427 123.588 200.591 122.987 200.838 122.418C201.121 121.81 201.61 121.321 202.218 121.038C203.517 120.308 205.303 120.308 206.52 121.038C206.956 121.324 207.332 121.694 207.624 122.126C207.917 122.558 208.121 123.043 208.225 123.554C208.395 124.272 208.477 125.008 208.468 125.746C208.468 127.857 207.819 129.805 206.277 130.779C205.774 131.048 205.222 131.214 204.653 131.266C203.203 131.44 201.743 131.032 200.595 130.13L201.731 128.344C204.734 130.698 206.196 128.425 206.196 126.801ZM206.358 124.123C206.358 123.23 205.627 122.662 204.897 122.499C204.55 122.418 204.189 122.418 203.842 122.499C203.514 122.59 203.228 122.791 203.03 123.068C202.218 124.041 202.786 125.34 203.517 125.584C203.864 125.683 204.216 125.764 204.572 125.827C205.032 125.827 205.474 125.65 205.806 125.332C206.139 125.015 206.336 124.582 206.358 124.123Z" fill="#7BB1DD"/>
<path d="M219.508 128.832H218.129V131.186H216.018V128.832H210.823L210.498 127.208L216.18 120.471H218.129V126.965H219.508V128.832ZM216.099 127.046V123.718L213.096 127.046H216.099Z" fill="#7BB1DD"/>
<path d="M33.1209 123.312L32.6338 121.526L35.4749 120.633H37.1795V131.186H34.988V122.743L33.1209 123.312Z" fill="#7BB1DD"/>
<path d="M46.0268 125.665C47.2444 126.152 47.8937 127.126 47.8937 128.344C47.8937 129.805 46.8384 130.779 45.5397 131.104C44.9834 131.246 44.4082 131.301 43.835 131.266C42.1304 131.185 39.8575 130.454 39.7764 128.344C39.8575 126.882 40.1823 126.314 41.3999 125.665C40.1012 124.853 39.6141 123.473 40.4257 122.012C40.6091 121.666 40.8919 121.384 41.2376 121.2C41.5762 120.957 41.9641 120.79 42.374 120.713C42.8276 120.614 43.2898 120.56 43.7539 120.551C45.6208 120.551 47.2444 121.444 47.4066 123.311C47.4553 123.564 47.4516 123.824 47.3958 124.075C47.34 124.326 47.2332 124.563 47.0821 124.772C47.0009 125.097 46.595 125.421 46.0268 125.665ZM44.9715 124.609C45.2179 124.376 45.3635 124.056 45.3774 123.717C45.3789 123.547 45.3434 123.38 45.2733 123.225C45.2031 123.071 45.1001 122.934 44.9715 122.824C44.6739 122.585 44.2965 122.469 43.9162 122.499C43.4291 122.499 43.1045 122.58 42.8609 122.824C42.7323 122.934 42.6294 123.071 42.5593 123.225C42.4892 123.38 42.4537 123.547 42.4552 123.717C42.469 124.056 42.6146 124.376 42.8609 124.609C43.348 125.015 44.241 125.097 44.9715 124.609ZM45.6208 128.019C45.6208 126.964 44.4033 126.639 43.5916 126.72C42.78 126.801 41.9681 127.288 41.9681 128.019C41.9681 128.993 43.0234 129.48 43.835 129.48C44.8092 129.48 45.6208 128.831 45.6208 128.019Z" fill="#7BB1DD"/>
<path fill-rule="evenodd" clip-rule="evenodd" d="M125.017 193.21C134.043 190.308 142.521 185.918 150.101 180.222C157.164 175.432 164.957 166.34 170.396 156.193C172.764 151.374 174.405 146.231 175.267 140.931C176.89 131.595 176.809 121.042 176.566 110.651C175.997 101.072 174.536 89.6254 171.695 76.8801C148.234 72.5778 134.028 72.9837 125.017 72.9023" fill="#E9AB00"/>
<path fill-rule="evenodd" clip-rule="evenodd" d="M172.668 131.348C170.476 158.218 157.893 176.808 125.016 188.498C92.1379 176.727 79.5552 158.218 77.3633 131.348H172.668Z" fill="#7BB1DD"/>
<path fill-rule="evenodd" clip-rule="evenodd" d="M77.0412 127.37C76.7975 122.174 76.9598 116.735 77.2846 110.89C77.7717 101.879 78.34 91.4073 81.019 79.4739C101.882 75.7395 116.007 75.8207 124.937 75.4961C133.867 75.7395 147.992 75.6584 168.855 79.4739C171.534 91.4884 172.102 101.96 172.589 110.89C172.991 116.401 173.072 121.931 172.833 127.451L77.0412 127.37Z" fill="white"/>
<path fill-rule="evenodd" clip-rule="evenodd" d="M156.756 169.664C154.079 172.373 151.173 174.845 148.07 177.052L110.24 131.429H125.015L156.756 169.664ZM170.232 145.798C169.059 150.279 167.313 154.59 165.036 158.624L142.468 131.348H158.298L170.232 145.798ZM136.136 183.952C132.727 185.576 128.993 187.118 124.934 188.579L77.2812 131.429H92.7865L136.136 183.952Z" fill="#A8C9E8"/>
<path fill-rule="evenodd" clip-rule="evenodd" d="M136.706 120.146C143.362 119.821 150.181 118.766 153.347 117.954C152.698 123.15 147.421 122.581 150.425 127.452H143.687C141.17 126.559 138.491 125.504 136.218 125.342C135.62 125.23 135.001 125.286 134.432 125.504C127.37 128.183 121.687 125.098 116.411 125.017C116.248 125.666 115.112 126.397 112.839 126.64C109.023 127.127 106.344 125.504 103.341 125.423C102.285 125.423 101.23 125.747 100.337 127.452C98.7947 125.342 97.9016 123.718 95.7909 121.12C92.625 119.578 89.7026 118.36 86.8613 117.305L87.0236 116.736C96.1157 119.496 102.935 120.552 109.104 121.12C116.654 121.445 124.853 121.932 132.241 121.364C134.351 120.552 135.163 120.227 136.706 120.146Z" fill="#FBC24E"/>
<path fill-rule="evenodd" clip-rule="evenodd" d="M152.374 118.684C151.562 122.012 146.61 123.311 149.939 127.451H145.961C143.444 126.558 139.061 124.61 134.19 124.61C132.404 125.99 129.156 126.639 124.205 125.503C121.932 125.016 118.766 124.204 115.518 124.285C114.788 127.37 104.559 126.152 100.906 121.363L96.2788 120.226L95.2236 119.414C102.611 120.957 110.079 121.849 113.976 122.012C120.957 122.255 127.533 122.255 132.241 122.093C133.151 121.816 134.045 121.491 134.92 121.119C136.057 120.551 137.356 120.632 138.492 120.632C144.905 120.145 149.045 119.252 152.374 118.684Z" fill="#EAAA00"/>
<path fill-rule="evenodd" clip-rule="evenodd" d="M121.038 120.062C121.931 118.763 123.393 118.033 125.097 117.708L125.016 121.523H126.315L126.234 117.464C131.024 116.815 136.138 117.627 140.278 118.601V119.981C140.765 119.981 141.171 119.9 141.577 119.9V118.276L155.053 113.568C151.237 108.535 151.562 102.609 152.536 96.6013C151.805 99.6049 150.019 105.206 145.473 110.321C141.82 114.38 142.226 115.273 141.577 116.409L141.333 89.1328L138.248 90.1882C137.599 90.3505 138.005 90.6753 137.437 90.9187L134.352 92.1364L137.924 91.9741C138.411 91.9741 138.086 91.2435 138.573 91.1622L140.521 90.9999L140.278 117.952C138.167 114.623 134.433 110.645 135.975 102.284C132.241 116.49 120.145 114.948 121.038 120.062ZM115.762 104.963C112.515 116.084 102.854 114.704 103.422 119.169C104.884 117.87 106.345 117.789 107.725 117.383V120.793C108.127 120.86 108.535 120.887 108.943 120.874L109.024 117.221C112.515 116.815 115.599 117.221 118.765 117.545C116.249 113.405 114.625 109.265 115.762 104.963V104.963Z" fill="#EAAA00"/>
<path fill-rule="evenodd" clip-rule="evenodd" d="M152.617 96.5195C151.886 99.5231 150.1 105.125 145.554 110.239C141.901 114.298 142.307 115.191 141.658 116.327L141.495 100.416L152.617 96.5195ZM119.09 107.885L136.056 102.04C132.241 116.49 120.145 114.866 121.119 119.98C118.197 117.383 115.437 112.268 119.09 107.885ZM101.717 109.833L115.762 104.962C112.514 116.084 102.854 114.704 103.422 119.169C100.175 115.921 100.094 112.025 101.717 109.833Z" fill="#FFBB59"/>
<path fill-rule="evenodd" clip-rule="evenodd" d="M126.315 85.7241V80.8535L123.23 81.9088C122.581 82.0711 122.987 82.3959 122.419 82.6393L119.334 83.8571L122.906 83.6946C123.393 83.6946 123.068 82.9641 123.555 82.883L125.503 82.7205V86.1298L126.315 85.7241Z" fill="#EAAA00"/>
<path fill-rule="evenodd" clip-rule="evenodd" d="M108.86 97.7381V91.8125L105.775 92.8676C105.126 93.0301 105.532 93.3547 104.964 93.5983L101.96 94.7347L105.451 94.6534C105.937 94.6534 105.613 93.9229 106.1 93.8417L108.048 93.6794V98.0627L108.86 97.7381Z" fill="#EAAA00"/>
<path fill-rule="evenodd" clip-rule="evenodd" d="M122.823 83.6139C123.31 83.6139 122.985 82.8834 123.472 82.8023L123.148 81.8281C122.498 81.9904 122.904 82.3152 122.336 82.5586L122.823 83.6139Z" fill="#FFBB59"/>
<path fill-rule="evenodd" clip-rule="evenodd" d="M131.671 83.8594C126.719 93.4377 119.981 91.8145 119.17 96.4414C116.572 94.3308 117.709 90.0284 119.332 88.1615L131.671 83.8594Z" fill="#FFBB59"/>
<path fill-rule="evenodd" clip-rule="evenodd" d="M133.132 92.139C131.427 90.1098 130.291 87.6744 131.671 83.8594C126.719 93.4377 119.982 91.8145 119.17 96.4414C122.011 92.6261 130.534 92.3013 133.132 92.139Z" fill="#EAAA00"/>
<path fill-rule="evenodd" clip-rule="evenodd" d="M119.252 107.075C116.329 102.772 116.573 98.3884 119.171 97.1708C123.798 95.5471 129.724 93.6801 133.052 92.2188C130.779 101.149 120.307 101.96 119.252 107.075Z" fill="#FFBB59"/>
<path fill-rule="evenodd" clip-rule="evenodd" d="M133.134 92.1367C130.78 101.148 120.389 101.959 119.334 107.074C121.526 104.151 126.559 102.203 136.057 101.878C133.946 99.1995 132.485 96.1957 133.134 92.1367Z" fill="#EAAA00"/>
<path fill-rule="evenodd" clip-rule="evenodd" d="M113.406 96.1133C109.347 97.6557 105.776 98.8732 102.61 99.9285C101.149 101.39 99.3631 105.448 102.042 108.858C101.555 104.88 109.997 103.419 113.406 96.1133Z" fill="#FFBB59"/>
<path fill-rule="evenodd" clip-rule="evenodd" d="M102.041 108.858C101.553 104.88 110.077 103.419 113.405 96.1133C113.242 97.8991 112.593 101.714 115.759 104.88C110.807 105.124 104.395 105.854 102.041 108.858Z" fill="#EAAA00"/>
<path fill-rule="evenodd" clip-rule="evenodd" d="M105.37 94.6532C105.857 94.6532 105.532 93.9225 106.019 93.8413L105.694 92.8672C105.045 93.0297 105.451 93.3543 104.883 93.5979L105.37 94.6532Z" fill="#FFBB59"/>
<path fill-rule="evenodd" clip-rule="evenodd" d="M100.662 100.418C97.1711 102.934 90.8391 107.643 87.5107 115.599C89.7026 115.355 91.8945 115.355 95.0604 116.004C92.5439 114.3 92.0568 112.351 100.662 100.418Z" fill="#FFBB59"/>
<path fill-rule="evenodd" clip-rule="evenodd" d="M97.5782 116.573L94.9804 116.086C92.4639 114.382 91.9768 112.433 100.582 100.5C98.877 103.585 96.1169 109.267 97.5782 116.573Z" fill="#EAAA00"/>
<path fill-rule="evenodd" clip-rule="evenodd" d="M137.925 91.8134C138.412 91.8134 138.087 91.0826 138.574 91.0015L138.249 90.0273C137.6 90.1899 138.006 90.5144 137.438 90.7581L137.925 91.8134Z" fill="#FFBB59"/>
<path fill-rule="evenodd" clip-rule="evenodd" d="M125.908 137.921L127.938 140.437C128.181 140.762 128.1 141.087 128.1 141.33C129.48 141.249 131.104 141.736 131.997 143.035C132.971 144.496 133.701 145.227 134.513 145.795C135.569 146.607 136.624 146.932 137.598 147.256C138.978 147.662 140.033 148.555 140.683 150.422C140.926 150.422 141.089 150.26 141.819 150.503L144.498 151.396C144.704 151.473 144.896 151.583 145.066 151.721C145.217 151.905 145.303 152.133 145.31 152.371C145.323 152.617 145.296 152.864 145.229 153.101L143.199 155.942C143.033 156.131 142.8 156.247 142.55 156.267C143.118 157.566 143.199 159.271 142.063 160.732C140.683 162.518 140.439 163.086 140.114 164.06C139.871 164.791 139.79 166.171 139.79 167.713C139.79 168.931 139.14 170.068 137.842 170.88C137.883 171.039 137.91 171.202 137.923 171.366V174.289C137.955 174.649 137.899 175.011 137.76 175.344C137.533 175.602 137.234 175.787 136.901 175.874C136.569 175.96 136.218 175.946 135.893 175.831L132.971 174.857C132.646 174.695 132.646 174.533 132.646 174.533C129.724 176.887 127.288 174.776 124.934 174.695C122.58 174.776 120.144 176.887 117.222 174.533C117.141 174.665 117.03 174.776 116.897 174.857L113.975 175.831C113.706 175.876 113.435 175.903 113.163 175.913C112.76 175.839 112.391 175.64 112.108 175.344C111.923 175.025 111.865 174.649 111.945 174.289V171.366C111.958 171.202 111.986 171.039 112.026 170.88C110.647 170.068 110.078 168.931 110.078 167.713C110.078 166.171 109.997 164.791 109.753 164.06C109.429 163.005 109.185 162.518 107.805 160.732C106.669 159.271 106.831 157.566 107.318 156.267C107.072 156.231 106.845 156.117 106.669 155.942L104.639 153.101C104.569 152.994 104.525 152.873 104.511 152.746C104.497 152.619 104.513 152.49 104.558 152.371C104.552 152.131 104.639 151.898 104.801 151.721C104.972 151.583 105.164 151.473 105.37 151.396L108.049 150.503C108.779 150.26 108.942 150.422 109.185 150.422C109.835 148.474 110.89 147.581 112.27 147.256C113.39 146.992 114.441 146.494 115.355 145.795C116.167 145.227 116.816 144.415 117.871 143.035C118.846 141.736 120.388 141.249 121.768 141.33C121.768 141.087 121.606 140.762 121.931 140.437L123.96 137.921C124.285 137.515 124.69 137.515 124.853 137.434C125.259 137.515 125.583 137.515 125.908 137.921Z" fill="#002E60"/>
<path fill-rule="evenodd" clip-rule="evenodd" d="M124.203 147.745C123.553 147.096 122.417 146.609 121.199 147.583C121.018 147.694 120.853 147.83 120.712 147.989C119.657 148.963 119.494 149.856 118.358 150.424C116.816 151.155 114.056 151.155 114.949 154.158C115.273 155.051 115.273 154.889 114.461 154.726C113 154.402 111.783 153.59 111.62 152.048C111.539 150.586 112.27 149.45 113.488 149.044C114.299 148.801 115.192 148.719 116.815 147.583C118.764 146.284 119.007 144.579 120.468 143.849C121.304 143.524 122.231 143.524 123.066 143.849C124.446 144.498 124.771 145.959 124.608 147.664C124.608 148.151 124.365 147.908 124.203 147.745Z" fill="#E41819"/>
<path fill-rule="evenodd" clip-rule="evenodd" d="M124.528 155.701V150.668C124.609 149.532 124.122 148.72 123.148 148.477C122.71 148.369 122.248 148.427 121.85 148.639C121.281 148.964 120.957 149.532 120.47 150.1C119.983 150.668 119.414 151.237 118.765 151.48C118.197 151.724 117.547 151.805 116.979 152.13C116.33 152.454 115.843 152.941 115.924 153.834C115.929 154.085 115.99 154.332 116.102 154.557C116.215 154.781 116.376 154.978 116.573 155.133C117.012 155.445 117.509 155.666 118.034 155.782L122.337 157.162C122.456 157.211 122.589 157.213 122.709 157.168C122.829 157.123 122.928 157.034 122.986 156.919C123.473 156.188 123.879 156.107 124.285 156.026C124.528 156.107 124.528 155.864 124.528 155.701Z" fill="#E41819"/>
<path fill-rule="evenodd" clip-rule="evenodd" d="M126.07 147.745C126.72 147.096 127.856 146.609 129.074 147.583C129.255 147.693 129.419 147.83 129.561 147.989C130.616 148.963 130.778 149.856 131.915 150.424C133.457 151.155 136.217 151.155 135.324 154.158C134.999 155.051 134.999 154.889 135.811 154.726C137.272 154.402 138.49 153.59 138.652 152.048C138.733 150.586 138.003 149.45 136.785 149.044C135.973 148.801 135.081 148.719 133.457 147.583C131.509 146.284 131.265 144.579 129.804 143.849C128.969 143.524 128.042 143.524 127.207 143.849C125.827 144.498 125.502 145.959 125.664 147.664C125.664 148.151 125.908 147.908 126.07 147.745Z" fill="#E41819"/>
<path fill-rule="evenodd" clip-rule="evenodd" d="M125.746 155.701V150.668C125.665 149.532 126.152 148.72 127.126 148.477C127.564 148.369 128.026 148.427 128.425 148.639C128.993 148.964 129.318 149.532 129.805 150.1C130.292 150.668 130.86 151.237 131.509 151.48C132.077 151.724 132.727 151.805 133.295 152.13C133.944 152.454 134.432 152.941 134.35 153.834C134.345 154.085 134.284 154.332 134.172 154.557C134.059 154.781 133.899 154.978 133.701 155.133C133.262 155.445 132.765 155.666 132.24 155.782L127.937 157.162C127.842 157.227 127.727 157.256 127.613 157.244C127.532 157.244 127.532 157.244 127.451 157.162C126.801 156.188 126.476 156.188 125.908 156.026C125.746 156.026 125.665 155.863 125.746 155.701V155.701Z" fill="#E41819"/>
<path fill-rule="evenodd" clip-rule="evenodd" d="M132.323 167.065C133.216 167.228 134.434 166.903 134.84 165.442C134.921 165.28 134.921 165.036 135.002 164.792C135.246 163.413 134.84 162.52 135.489 161.383C136.301 159.841 138.574 158.217 136.057 156.35C135.327 155.863 135.327 155.944 136.139 155.62C137.518 155.052 138.98 154.97 140.035 156.107C140.928 157.243 141.09 158.542 140.278 159.678C139.791 160.409 139.142 160.977 138.493 162.844C137.762 165.036 138.493 166.578 137.681 168.039C137.458 168.423 137.154 168.753 136.789 169.006C136.424 169.258 136.008 169.427 135.57 169.5C134.028 169.825 132.973 168.77 132.08 167.309C131.836 166.903 132.161 166.984 132.323 167.065Z" fill="#E41819"/>
<path fill-rule="evenodd" clip-rule="evenodd" d="M127.37 160.896L130.373 164.955C130.941 165.929 131.834 166.335 132.808 165.929C133.017 165.86 133.206 165.744 133.361 165.589C133.517 165.434 133.633 165.244 133.701 165.036C133.945 164.467 133.945 163.737 133.945 163.006C134.026 162.276 134.107 161.464 134.513 160.896C134.838 160.409 135.244 159.841 135.568 159.353C135.893 158.704 135.974 158.055 135.406 157.324C135.249 157.122 135.054 156.953 134.831 156.827C134.607 156.702 134.361 156.622 134.107 156.594C133.539 156.594 133.133 156.756 132.565 156.918L128.263 158.38C128.019 158.461 127.857 158.623 127.938 158.867C128.019 159.841 127.613 160.246 127.288 160.49C127.207 160.571 127.288 160.734 127.37 160.896Z" fill="#E41819"/>
<path fill-rule="evenodd" clip-rule="evenodd" d="M117.871 167.065C116.978 167.228 115.761 166.903 115.355 165.442C115.274 165.28 115.274 165.036 115.193 164.792C114.949 163.413 115.355 162.52 114.705 161.383C113.894 159.841 111.621 158.217 114.137 156.35C114.868 155.863 114.868 155.944 114.056 155.62C112.676 155.052 111.215 154.97 110.16 156.107C109.267 157.243 109.104 158.542 109.916 159.678C110.403 160.409 111.053 160.977 111.702 162.844C112.433 165.036 111.702 166.578 112.514 168.039C112.736 168.423 113.041 168.753 113.406 169.006C113.771 169.258 114.187 169.427 114.624 169.5C116.166 169.825 117.222 168.77 118.115 167.309C118.439 166.903 118.115 166.984 117.871 167.065Z" fill="#E41819"/>
<path fill-rule="evenodd" clip-rule="evenodd" d="M122.823 160.896L119.819 164.955C119.251 165.929 118.358 166.335 117.384 165.929C117.176 165.86 116.986 165.744 116.831 165.589C116.676 165.434 116.56 165.244 116.491 165.036C116.248 164.467 116.248 163.737 116.248 163.006C116.166 162.276 116.085 161.464 115.68 160.896C115.355 160.409 114.868 159.841 114.625 159.353C114.3 158.704 114.219 158.055 114.787 157.324C114.943 157.122 115.139 156.953 115.362 156.827C115.585 156.702 115.831 156.622 116.086 156.594C116.654 156.594 117.06 156.756 117.628 156.918L121.93 158.38C122.019 158.398 122.102 158.437 122.172 158.493C122.243 158.549 122.299 158.622 122.336 158.704C122.174 159.435 122.498 159.922 122.904 160.409C122.95 160.486 122.968 160.578 122.953 160.667C122.938 160.756 122.892 160.837 122.823 160.896H122.823Z" fill="#E41819"/>
<path fill-rule="evenodd" clip-rule="evenodd" d="M130.86 168.04C130.698 168.933 130.129 169.988 128.506 169.988C128.286 170.002 128.066 169.974 127.857 169.907C126.477 169.745 125.746 169.096 124.528 169.339C122.824 169.664 120.551 171.287 119.577 168.365C119.333 167.472 119.414 167.553 118.846 168.203C117.872 169.339 117.304 170.719 118.197 172.018C119.009 173.235 120.226 173.723 121.525 173.317C122.337 173.073 123.067 172.586 125.097 172.505C127.451 172.424 128.668 173.641 130.211 173.317C131.104 173.073 131.834 172.586 132.24 171.774C132.97 170.394 132.321 169.096 131.185 167.797C130.86 167.472 130.86 167.797 130.86 168.04Z" fill="#E41819"/>
<path fill-rule="evenodd" clip-rule="evenodd" d="M126.476 161.382L129.479 165.441C130.21 166.253 130.372 167.227 129.642 168.039C129.346 168.376 128.946 168.604 128.505 168.688C127.856 168.769 127.206 168.525 126.476 168.282C125.745 168.12 125.015 167.957 124.284 168.12C123.7 168.32 123.103 168.482 122.498 168.607C121.768 168.688 121.118 168.607 120.631 167.876C120.471 167.673 120.364 167.432 120.322 167.177C120.279 166.921 120.302 166.659 120.388 166.415C120.55 165.847 120.875 165.522 121.199 165.035L123.878 161.382C124.04 161.22 124.122 161.057 124.365 161.139C124.64 161.284 124.947 161.361 125.258 161.361C125.569 161.361 125.876 161.284 126.151 161.139C126.232 161.139 126.394 161.301 126.476 161.382Z" fill="#E41819"/>
<path d="M126.882 158.705C126.882 159.042 126.782 159.371 126.595 159.652C126.407 159.932 126.141 160.151 125.83 160.28C125.518 160.409 125.175 160.442 124.845 160.377C124.514 160.311 124.21 160.148 123.972 159.91C123.734 159.672 123.571 159.368 123.505 159.037C123.44 158.707 123.473 158.364 123.602 158.052C123.731 157.741 123.95 157.475 124.23 157.287C124.511 157.1 124.84 157 125.177 157C125.624 157.016 126.048 157.201 126.365 157.517C126.681 157.834 126.866 158.258 126.882 158.705Z" fill="#FEBE53"/>
<path fill-rule="evenodd" clip-rule="evenodd" d="M123.554 142.228C123.392 142.066 123.392 141.985 123.636 141.822C124.152 141.186 124.613 140.507 125.016 139.793C125.503 140.523 125.99 141.173 126.396 141.822C126.558 142.066 126.639 142.066 126.477 142.228C125.784 142.764 125.274 143.502 125.016 144.339C124.772 143.283 124.123 142.715 123.554 142.228Z" fill="#E41819"/>
<path fill-rule="evenodd" clip-rule="evenodd" d="M140.279 152.291C140.36 152.048 140.441 152.129 140.685 152.21C141.415 152.453 142.146 152.697 143.039 152.941C142.471 153.59 141.983 154.239 141.496 154.889C141.334 155.132 141.334 155.213 141.09 155.051C140.441 154.645 139.711 154.239 138.655 154.321C139.629 153.671 139.954 152.941 140.279 152.291Z" fill="#E41819"/>
<path fill-rule="evenodd" clip-rule="evenodd" d="M109.025 154.971C108.781 155.133 108.781 155.052 108.619 154.809C108.165 154.135 107.677 153.485 107.158 152.861C108.051 152.617 108.781 152.373 109.512 152.13C109.756 152.049 109.837 151.968 109.918 152.211C110.19 153.041 110.733 153.756 111.46 154.24C110.405 154.159 109.593 154.646 109.025 154.971Z" fill="#E41819"/>
<path fill-rule="evenodd" clip-rule="evenodd" d="M135.894 170.961C136.138 170.961 136.138 171.042 136.138 171.367C136.138 172.097 136.138 172.909 136.219 173.802C135.455 173.496 134.668 173.252 133.865 173.072C133.621 172.99 133.54 172.99 133.54 172.747C133.702 172.016 133.865 171.204 133.459 170.23C134.352 170.799 135.164 170.88 135.894 170.961Z" fill="#E41819"/>
<path fill-rule="evenodd" clip-rule="evenodd" d="M116.654 172.586C116.735 172.829 116.654 172.829 116.33 172.911C115.599 173.154 114.868 173.398 114.057 173.722C114.138 172.913 114.138 172.097 114.057 171.287C114.057 171.044 114.057 170.962 114.3 170.881C115.031 170.8 115.842 170.719 116.654 169.988C116.407 170.837 116.407 171.738 116.654 172.586Z" fill="#E41819"/>
</svg>
