<svg width="250" height="250" viewBox="0 0 250 250" fill="none" xmlns="http://www.w3.org/2000/svg">
<rect width="250" height="250" rx="125" fill="white"/>
<g clip-path="url(#clip0_242_94556)">
<path fill-rule="evenodd" clip-rule="evenodd" d="M116.71 49.5043C117.104 49.4977 117.496 49.5688 117.863 49.7137C118.23 49.8585 118.565 50.0743 118.848 50.3486C119.132 50.6229 119.358 50.9505 119.515 51.3124C119.672 51.6744 119.756 52.0637 119.762 52.4582V78.1735C119.757 78.9316 119.459 79.6584 118.93 80.2012C118.4 80.7441 117.681 81.0607 116.924 81.0846C90.1738 82.6472 69.7503 105.6 71.3166 132.35C72.8753 159.099 95.8278 179.519 122.578 177.96C147.15 176.524 166.756 156.922 168.188 132.35C168.23 131.602 168.553 130.898 169.093 130.379C169.634 129.861 170.351 129.567 171.1 129.557H196.765C197.555 129.55 198.316 129.858 198.88 130.413C199.444 130.967 199.764 131.723 199.771 132.514V132.632C197.972 176.856 160.662 211.254 116.435 209.458C115.644 209.428 114.853 209.382 114.062 209.328C69.9719 205.859 37.0407 167.309 40.5095 123.222C43.6728 82.9405 76.3518 51.335 116.71 49.5043Z" fill="#0E1D51"/>
<path fill-rule="evenodd" clip-rule="evenodd" d="M138.953 49.6484C138.574 49.6489 138.199 49.724 137.849 49.8695C137.499 50.0149 137.182 50.2277 136.914 50.4959C136.647 50.7641 136.435 51.0823 136.29 51.4325C136.146 51.7826 136.072 52.1577 136.072 52.5365V78.6446C136.072 79.4093 136.375 80.143 136.915 80.6845C137.455 81.226 138.188 81.5311 138.953 81.5328H167.769V110.25C167.769 110.629 167.843 111.004 167.988 111.354C168.133 111.704 168.346 112.022 168.613 112.29C168.881 112.558 169.199 112.77 169.55 112.915C169.9 113.06 170.275 113.135 170.654 113.134H196.739C197.493 113.135 198.218 112.84 198.757 112.313C199.297 111.786 199.609 111.069 199.627 110.315V49.6484H138.953Z" fill="url(#paint0_linear_242_94556)"/>
</g>
<defs>
<linearGradient id="paint0_linear_242_94556" x1="136.072" y1="81.3915" x2="199.627" y2="81.3915" gradientUnits="userSpaceOnUse">
<stop stop-color="#7B7CF2"/>
<stop offset="1" stop-color="#2DCAED"/>
</linearGradient>
<clipPath id="clip0_242_94556">
<rect width="160.021" height="160.021" fill="white" transform="translate(40.0049 49.5039)"/>
</clipPath>
</defs>
</svg>
