<svg width="250" height="250" viewBox="0 0 250 250" fill="none" xmlns="http://www.w3.org/2000/svg">
<path d="M61.3496 36.8183V113.059C61.3496 115.651 63.4156 117.758 66.0083 117.758L100.118 117.596C103.683 117.596 105.87 113.666 104.088 110.547L99.6722 102.769C97.7682 99.4067 93.5146 98.2319 90.1928 100.176L89.7067 100.46C86.4254 102.364 82.2528 101.23 80.3489 97.9078C79.3766 96.1658 79.1741 94.0998 79.7817 92.1958L86.871 70.6038C87.9648 67.2415 91.4081 65.216 94.811 65.9452L116.767 70.4823C118.671 70.8874 120.332 72.1027 121.345 73.8447C123.249 77.1665 122.115 81.4201 118.833 83.3646L118.347 83.6482C115.026 85.5926 113.891 89.8867 115.795 93.2896L120.13 100.946C121.912 104.065 126.328 104.065 128.11 100.946L145.165 71.2115C146.461 68.9429 145.692 66.0667 143.504 64.7704L78.6474 26.6502C70.9505 22.113 61.3496 27.7845 61.3496 36.8183Z" fill="#34C88A"/>
<path d="M228.9 114.959L164.003 76.7987C161.775 75.5024 158.939 76.2721 157.683 78.5407L140.75 108.68C139.008 111.8 141.196 115.729 144.761 115.729H155.901C158.453 115.729 160.519 113.623 160.519 111.03V105.845C160.519 103.252 162.585 101.145 165.137 101.145H168.378C169.715 101.145 170.971 101.713 171.821 102.725L188.674 122.089C190.213 123.872 190.213 126.545 188.674 128.328L171.821 147.732C170.93 148.745 169.674 149.312 168.378 149.312H165.137C162.585 149.312 160.519 147.206 160.519 144.613V139.428C160.519 136.835 158.453 134.728 155.901 134.728H144.882C141.317 134.728 139.13 138.617 140.872 141.777L157.643 171.674C158.899 173.942 161.734 174.712 163.962 173.416L228.86 135.296C236.597 130.758 236.597 119.456 228.9 114.959Z" fill="#34C88A"/>
<path d="M78.6475 223.453L143.545 185.333C145.773 184.037 146.502 181.161 145.206 178.892L128.029 148.914C126.247 145.795 121.831 145.795 120.049 148.914L114.458 158.758C113.203 160.986 113.932 163.863 116.16 165.159L120.575 167.752C122.803 169.048 123.533 171.924 122.277 174.152L120.656 176.988C120.008 178.163 118.874 178.973 117.578 179.257L92.664 184.442C90.3954 184.928 88.0863 183.591 87.3571 181.323L79.2956 156.773C78.8905 155.477 79.0121 154.1 79.6602 152.925L81.2806 150.089C82.5364 147.861 85.3721 147.051 87.6002 148.388L92.0158 150.98C94.2439 152.277 97.0391 151.507 98.3354 149.279L103.845 139.557C105.627 136.437 103.399 132.508 99.8748 132.508L66.0488 132.346C63.4967 132.346 61.3902 134.452 61.3902 137.045V213.285C61.3091 222.36 70.9505 227.99 78.6475 223.453Z" fill="#163F59"/>
</svg>
