<svg width="250" height="250" viewBox="0 0 250 250" fill="none" xmlns="http://www.w3.org/2000/svg">
<g clip-path="url(#clip0_242_93344)">
<path d="M125 0.5C56.35 0.5 0.5 56.35 0.5 125C0.5 193.65 56.35 249.5 125 249.5C193.65 249.5 249.5 193.65 249.5 125C249.5 56.35 193.65 0.5 125 0.5ZM125 230C67.1 230 20 182.9 20 125C20 67.1 67.1 20 125 20C182.9 20 230 67.1 230 125C230 182.9 182.9 230 125 230Z" fill="#F13D20"/>
<path d="M125 69.0996C94.1996 69.0996 69.0996 94.1496 69.0996 125C69.0996 141.7 76.4496 156.65 88.0996 166.9C93.8996 163.9 100.05 161.65 106.45 160.2C93.7996 153.5 85.1996 140.25 85.1996 125C85.1996 103.05 103.05 85.1996 125 85.1996C146.95 85.1996 164.8 103.05 164.8 125C164.8 140.25 156.2 153.5 143.55 160.2C149.95 161.65 156.1 163.9 161.9 166.9C173.5 156.65 180.9 141.65 180.9 125C180.9 94.1996 155.8 69.0996 125 69.0996Z" fill="#F13D20"/>
<path d="M125 33.5C74.55 33.5 33.5 74.55 33.5 125C33.5 151.1 44.5 174.7 62.1 191.35C65.05 186.05 68.9 181.2 73.6 176.95C60.2 163.7 51.85 145.3 51.85 125C51.85 84.7 84.65 51.9 124.95 51.9C165.25 51.9 198.1 84.7 198.1 125C198.1 145.3 189.75 163.7 176.35 176.95C181 181.2 184.9 186.05 187.85 191.35C205.45 174.7 216.5 151.1 216.5 125C216.5 74.55 175.45 33.5 125 33.5Z" fill="#F13D20"/>
</g>
<defs>
<clipPath id="clip0_242_93344">
<rect width="250" height="250" rx="125" fill="white"/>
</clipPath>
</defs>
</svg>
