<svg width="250" height="250" viewBox="0 0 250 250" fill="none" xmlns="http://www.w3.org/2000/svg">
<rect width="250" height="250" rx="125" fill="white"/>
<path d="M199.205 137.09C199.035 134.115 197.293 131.437 194.573 130.162L159.893 113.672L196.868 66.9647C197.08 66.7097 197.25 66.4547 197.42 66.1572C198.695 64.5847 199.375 62.5872 199.248 60.5472C199.078 57.5722 197.335 54.8947 194.615 53.6197L128.315 22.0422C126.02 20.9372 123.3 20.9797 121.048 22.1697L55.7253 56.0847C54.5778 56.6797 53.6428 57.4872 52.9203 58.5072C52.2403 59.0597 51.6878 59.7822 51.3053 60.5897C50.2853 62.7997 50.6253 65.3072 52.1978 67.1347L52.5378 67.5597C53.0053 68.3247 53.5578 68.9622 54.1953 69.5572L91.7653 113.927L55.7253 132.627C54.5778 133.222 53.6428 134.03 52.9203 135.05C52.2403 135.602 51.6878 136.325 51.3053 137.132C50.2853 139.342 50.6253 141.85 52.1978 143.677L52.5378 144.102C53.0053 144.867 53.5578 145.505 54.2378 146.1L122.025 226.212C123.215 227.615 124.915 228.38 126.7 228.38C126.743 228.38 126.785 228.38 126.785 228.422C128.655 228.38 130.355 227.53 131.503 226.085L196.868 143.507C197.123 143.21 197.335 142.87 197.505 142.53C198.695 141 199.333 139.087 199.205 137.09ZM126.615 142.53L75.7003 82.3072L120.538 108.7C121.813 109.465 123.215 109.847 124.66 109.847C126.148 109.847 127.635 109.465 128.953 108.615L176.51 79.5022L126.615 142.53ZM124.788 29.4372L191.088 61.0572L124.66 101.73L59.5078 63.3522L124.788 29.4372ZM122.025 149.712C123.215 151.072 124.915 151.88 126.7 151.88C126.743 151.88 126.785 151.88 126.785 151.88C128.655 151.837 130.355 150.987 131.503 149.542L154.708 120.217L191.088 137.557L124.66 178.23L59.5078 139.852L97.1628 120.302L122.025 149.712ZM126.615 219.072L75.7003 158.85L120.538 185.242C121.813 186.007 123.215 186.39 124.66 186.39C126.148 186.39 127.635 185.965 128.91 185.157L176.553 156.002L126.615 219.072Z" fill="black"/>
</svg>
