<svg width="250" height="250" viewBox="0 0 250 250" fill="none" xmlns="http://www.w3.org/2000/svg">
<rect width="250" height="250" rx="125" fill="white"/>
<g clip-path="url(#clip0_242_94559)">
<path d="M125.016 238.67C187.784 238.67 238.668 187.786 238.668 125.018C238.668 62.2506 187.784 11.3672 125.016 11.3672C62.2486 11.3672 11.3652 62.2506 11.3652 125.018C11.3652 187.786 62.2486 238.67 125.016 238.67Z" fill="#00D0FF"/>
<path d="M125.016 15.9132C150.187 15.9298 174.578 24.6464 194.058 40.5867C213.538 56.527 226.91 78.7108 231.907 103.38C236.905 128.05 233.221 153.689 221.48 175.954C209.739 198.218 190.663 215.74 167.484 225.551C140.827 236.779 110.803 236.966 84.0091 226.07C57.215 215.174 35.8423 194.087 24.5869 167.442C13.3314 140.797 13.114 110.773 23.9824 83.968C34.8507 57.1627 55.9158 35.7683 82.5493 24.4855C95.9841 18.8 110.428 15.8843 125.016 15.9132ZM125.016 11.3672C62.2487 11.3672 11.3652 62.2507 11.3652 125.018C11.3652 187.786 62.2487 238.67 125.016 238.67C187.784 238.67 238.668 187.786 238.668 125.018C238.668 62.2507 187.784 11.3672 125.016 11.3672Z" fill="#003D00"/>
<path d="M125.015 222.55C178.882 222.55 222.55 178.882 222.55 125.015C222.55 71.1483 178.882 27.4805 125.015 27.4805C71.1483 27.4805 27.4805 71.1483 27.4805 125.015C27.4805 178.882 71.1483 222.55 125.015 222.55Z" fill="#00EB76"/>
<path d="M125.016 32.0265C146.469 32.0405 167.257 39.4695 183.86 53.0552C200.463 66.641 211.859 85.5481 216.118 106.574C220.378 127.6 217.238 149.451 207.231 168.427C197.225 187.404 180.966 202.337 161.21 210.699C138.491 220.266 112.904 220.423 90.07 211.136C67.2357 201.849 49.0217 183.877 39.4295 161.169C29.8373 138.461 29.6514 112.875 38.9127 90.0297C48.174 67.1849 66.1249 48.9507 88.8219 39.3329C100.272 34.4872 112.583 32.0021 125.016 32.0265ZM125.016 27.4805C71.1489 27.4805 27.4805 71.1489 27.4805 125.016C27.4805 178.883 71.1489 222.551 125.016 222.551C178.883 222.551 222.551 178.883 222.551 125.016C222.551 71.1489 178.883 27.4805 125.016 27.4805Z" fill="#003D00"/>
<path d="M127.59 121.121C127.59 121.121 114.2 88.0308 86.8636 81.8088C86.8636 81.8088 85.0968 64.5566 97.9285 59.277C97.9285 59.277 110.76 52.3007 122.197 63.9908L125.699 67.5406L130.009 64.1793C130.009 64.1793 144.142 50.5095 157.067 60.8797C157.067 60.8797 168.504 67.2897 163.947 87.3709C163.946 87.3709 156.601 113.485 127.59 121.121Z" fill="url(#paint0_linear_242_94559)"/>
<path d="M127.588 124.531C126.909 124.531 126.246 124.329 125.683 123.949C125.12 123.57 124.683 123.032 124.428 122.403C124.396 122.323 121.103 114.309 114.643 105.704C108.83 97.9599 99.1596 88.1047 86.1045 85.1334C85.409 84.9751 84.7807 84.6026 84.3081 84.0684C83.8354 83.5343 83.5421 82.8653 83.4696 82.1558C83.2092 78.6655 83.4763 75.1559 84.262 71.7453C86.0299 64.1802 90.253 58.8034 96.4799 56.1846C99.3255 54.8167 102.413 54.0227 105.565 53.848C110.506 53.5461 117.825 54.6481 124.633 61.6072L125.994 62.9855L127.787 61.5867C130.626 59.0334 133.872 56.9722 137.39 55.4882C145.274 52.2405 152.75 53.139 159.027 58.084C161.045 59.3671 171.974 67.3959 167.271 88.1254C167.258 88.182 167.243 88.2391 167.228 88.2943C167.146 88.585 165.159 95.5045 159.4 103.393C154.09 110.667 144.411 120.219 128.457 124.418C128.174 124.493 127.881 124.531 127.588 124.531ZM90.1905 79.1526C95.9967 80.8508 101.591 83.7821 106.856 87.8876C111.606 91.5927 116.099 96.2596 120.208 101.757C123.773 106.54 126.877 111.651 129.477 117.02C139.387 113.838 147.537 107.984 153.734 99.5874C158.551 93.0606 160.429 87.2137 160.644 86.5102C164.409 69.7405 155.985 64.2166 155.38 63.8447C155.22 63.7592 155.069 63.6568 154.931 63.539C150.612 60.0747 145.585 59.4873 139.988 61.7933C137.202 62.9761 134.631 64.6104 132.377 66.6303C132.29 66.7142 132.199 66.7936 132.104 66.8681L127.795 70.2292C127.136 70.7428 126.311 70.9965 125.477 70.942C124.643 70.8875 123.858 70.5287 123.271 69.9337L119.771 66.3839C110.342 56.7463 99.9774 62.0499 99.541 62.2811C99.4394 62.3363 99.3348 62.3857 99.2276 62.4291C91.3797 65.6581 90.2637 74.828 90.1905 79.1526Z" fill="#003D00"/>
<path d="M125.9 126.106C125.9 126.106 158.991 112.716 165.213 85.3792C165.213 85.3792 182.465 83.6124 187.745 96.4441C187.745 96.4441 194.721 109.276 183.031 120.713L179.481 124.213L182.844 128.522C182.844 128.522 196.513 142.656 186.143 155.58C186.143 155.58 179.733 167.017 159.652 162.461C159.651 162.461 133.537 155.115 125.9 126.106Z" fill="url(#paint1_linear_242_94559)"/>
<path d="M168.608 166.951C165.337 166.926 162.079 166.535 158.895 165.786C158.839 165.774 158.783 165.759 158.727 165.744C158.436 165.662 151.516 163.675 143.628 157.916C136.354 152.606 126.802 142.927 122.603 126.973C122.392 126.171 122.48 125.32 122.851 124.579C123.222 123.838 123.85 123.257 124.618 122.946C124.698 122.913 132.712 119.621 141.317 113.161C149.061 107.348 158.917 97.6769 161.888 84.6221C162.046 83.9265 162.418 83.2982 162.953 82.8255C163.487 82.3528 164.156 82.0595 164.865 81.9869C168.356 81.727 171.865 81.9941 175.276 82.7793C182.841 84.5473 188.217 88.7701 190.836 94.9973C192.205 97.8425 192.999 100.929 193.175 104.082C193.477 109.022 192.375 116.341 185.416 123.149L184.037 124.51L185.436 126.303C187.989 129.142 190.05 132.388 191.534 135.906C194.782 143.789 193.883 151.266 188.938 157.543C187.877 159.21 182.216 166.951 168.608 166.951ZM160.511 159.16C177.282 162.925 182.804 154.501 183.176 153.896C183.262 153.736 183.364 153.585 183.482 153.447C186.911 149.173 187.521 144.202 185.296 138.672C184.11 135.818 182.449 133.186 180.385 130.887C180.305 130.804 180.224 130.711 180.153 130.62L176.792 126.311C176.278 125.652 176.024 124.827 176.078 123.992C176.132 123.158 176.491 122.373 177.086 121.786L180.636 118.286C190.273 108.856 184.969 98.492 184.739 98.0558C184.683 97.9541 184.634 97.8494 184.591 97.7422C182.863 93.5439 179.264 90.7576 173.893 89.4613C171.916 88.9975 169.896 88.747 167.867 88.7142C166.168 94.5181 163.237 100.111 159.133 105.373C155.428 110.124 150.761 114.616 145.264 118.726C140.48 122.29 135.37 125.393 130.001 127.993C133.183 137.902 139.037 146.053 147.435 152.25C153.96 157.068 159.807 158.945 160.511 159.16Z" fill="#003D00"/>
<path d="M124.209 128.91C124.209 128.91 137.599 162.001 164.935 168.223C164.935 168.223 166.702 185.475 153.871 190.754C153.871 190.754 141.039 197.731 129.602 186.041L126.102 182.491L121.792 185.852C121.792 185.852 107.659 199.522 94.7342 189.152C94.7342 189.152 83.2975 182.742 87.8535 162.66C87.8526 162.66 95.1986 136.546 124.209 128.91Z" fill="url(#paint2_linear_242_94559)"/>
<path d="M105.339 196.458C100.826 196.458 96.5787 194.948 92.7714 191.948C90.753 190.665 79.8247 182.635 84.5278 161.907C84.5406 161.851 84.5549 161.794 84.5708 161.739C84.6524 161.448 86.6392 154.528 92.3982 146.64C97.7082 139.366 107.387 129.814 123.341 125.614C124.143 125.403 124.994 125.491 125.735 125.862C126.476 126.233 127.057 126.862 127.369 127.63C127.401 127.71 130.694 135.724 137.153 144.329C142.967 152.073 152.637 161.928 165.692 164.899C166.388 165.058 167.016 165.43 167.489 165.964C167.961 166.499 168.255 167.168 168.327 167.877C168.587 171.367 168.32 174.876 167.535 178.286C165.767 185.851 161.544 191.228 155.317 193.847C152.472 195.216 149.385 196.01 146.233 196.186C141.293 196.488 133.973 195.386 127.165 188.427L125.805 187.048L124.011 188.446C121.172 191 117.926 193.061 114.408 194.545C111.306 195.823 108.266 196.458 105.339 196.458ZM91.1539 163.522C89.5085 170.855 89.9947 177.166 92.5632 181.779C94.305 184.907 96.3801 186.167 96.4003 186.178C96.5642 186.27 96.7203 186.376 96.8669 186.493C101.14 189.922 106.112 190.533 111.642 188.307C114.495 187.121 117.127 185.461 119.427 183.396C119.512 183.314 119.601 183.237 119.694 183.164L124.003 179.803C124.663 179.289 125.488 179.035 126.322 179.089C127.156 179.143 127.941 179.502 128.528 180.097L132.028 183.647C141.458 193.285 151.822 187.981 152.258 187.75C152.36 187.695 152.465 187.645 152.572 187.602C156.77 185.874 159.556 182.275 160.853 176.904C161.316 174.928 161.567 172.908 161.6 170.878C155.796 169.179 150.203 166.249 144.941 162.145C140.19 158.439 135.697 153.773 131.588 148.275C128.023 143.492 124.919 138.381 122.32 133.012C112.41 136.194 104.259 142.048 98.0621 150.446C93.2462 156.973 91.3687 162.821 91.1539 163.524V163.522Z" fill="#003D00"/>
<path d="M124.133 122.724C124.133 122.724 91.0425 136.114 84.8203 163.451C84.8203 163.451 67.5681 165.218 62.2888 152.386C62.2888 152.386 55.3124 139.555 67.0026 128.118L70.5521 124.617L67.191 120.308C67.191 120.308 53.5212 106.174 63.8915 93.2498C63.8915 93.2498 70.3014 81.8131 90.3827 86.3692C90.3827 86.3678 116.497 93.7147 124.133 122.724Z" fill="url(#paint3_linear_242_94559)"/>
<path d="M82.712 166.942C80.0356 166.945 77.3675 166.646 74.7582 166.051C67.1933 164.283 61.8165 160.06 59.1977 153.833C57.8291 150.988 57.0343 147.901 56.8586 144.749C56.5572 139.808 57.6589 132.489 64.618 125.681L65.997 124.321L64.5982 122.527C62.0449 119.688 59.9837 116.442 58.4997 112.924C55.2522 105.041 56.1508 97.5639 61.0959 91.2868C62.3798 89.2685 70.409 78.3401 91.1369 83.0436C91.1934 83.0564 91.2497 83.0706 91.3058 83.0864C91.5965 83.1682 98.5161 85.1548 106.404 90.914C113.678 96.224 123.231 105.903 127.43 121.857C127.641 122.659 127.553 123.51 127.182 124.251C126.811 124.992 126.182 125.573 125.414 125.884C125.334 125.917 117.32 129.209 108.716 135.669C100.971 141.483 91.116 151.153 88.1447 164.208C87.9864 164.904 87.6139 165.532 87.0798 166.005C86.5456 166.477 85.8766 166.771 85.1671 166.843C85.082 166.852 84.1635 166.942 82.712 166.942ZM66.8562 94.9327C66.7708 95.0931 66.6684 95.2438 66.5508 95.3823C63.086 99.701 62.4986 104.728 64.8048 110.326C65.9877 113.111 67.6219 115.683 69.6416 117.936C69.7256 118.023 69.805 118.114 69.8794 118.209L73.2405 122.518C73.7541 123.178 74.0078 124.002 73.9533 124.836C73.8988 125.67 73.54 126.455 72.945 127.042L69.3952 130.542C59.7576 139.972 65.0619 150.336 65.2924 150.772C65.3477 150.874 65.3972 150.978 65.4406 151.086C67.1681 155.284 70.7672 158.07 76.1386 159.367C78.1148 159.831 80.135 160.081 82.1646 160.114C83.8635 154.31 86.7939 148.717 90.898 143.455C94.6031 138.704 99.2698 134.211 104.768 130.103C109.55 126.537 114.66 123.434 120.029 120.834C112.328 96.9539 90.8983 90.0832 89.5249 89.6672C72.7525 85.9033 67.2288 94.3274 66.8562 94.9336V94.9327Z" fill="#003D00"/>
</g>
<defs>
<linearGradient id="paint0_linear_242_94559" x1="126.441" y1="63.1255" x2="124.393" y2="123.541" gradientUnits="userSpaceOnUse">
<stop stop-color="#E1F1F6"/>
<stop offset="0.171" stop-color="#C0ECF7"/>
<stop offset="0.549" stop-color="#6CE1FB"/>
<stop offset="1" stop-color="#00D2FF"/>
</linearGradient>
<linearGradient id="paint1_linear_242_94559" x1="157.964" y1="85.2961" x2="157.964" y2="163.533" gradientUnits="userSpaceOnUse">
<stop stop-color="#E1F1F6"/>
<stop offset="0.171" stop-color="#C0ECF7"/>
<stop offset="0.549" stop-color="#6CE1FB"/>
<stop offset="1" stop-color="#00D2FF"/>
</linearGradient>
<linearGradient id="paint2_linear_242_94559" x1="125.899" y1="140.095" x2="125.899" y2="205.638" gradientUnits="userSpaceOnUse">
<stop stop-color="#E1F1F6"/>
<stop offset="0.171" stop-color="#C0ECF7"/>
<stop offset="0.549" stop-color="#6CE1FB"/>
<stop offset="1" stop-color="#00D2FF"/>
</linearGradient>
<linearGradient id="paint3_linear_242_94559" x1="92.0695" y1="163.533" x2="92.0695" y2="85.2954" gradientUnits="userSpaceOnUse">
<stop offset="0.008" stop-color="#00D2FF"/>
<stop offset="1" stop-color="#E1F1F6"/>
</linearGradient>
<clipPath id="clip0_242_94559">
<rect width="227.302" height="227.302" fill="white" transform="translate(11.3652 11.3652)"/>
</clipPath>
</defs>
</svg>
