<svg width="250" height="250" viewBox="0 0 250 250" fill="none" xmlns="http://www.w3.org/2000/svg">
<rect width="250" height="250" rx="125" fill="white"/>
<path d="M125.196 30.4062C177.301 30.4062 219.546 72.6512 219.546 124.756C219.546 176.861 177.301 219.106 125.196 219.106C73.0906 219.106 30.8456 176.861 30.8456 124.756C30.8456 72.6512 73.0906 30.4062 125.196 30.4062ZM125.196 19.9512C111.043 19.9512 97.3156 22.7137 84.3956 28.1962C71.9006 33.4662 60.7231 40.9887 51.0756 50.6362C41.4281 60.2837 33.9056 71.4612 28.6356 83.9562C23.1531 96.8762 20.3906 110.604 20.3906 124.756C20.3906 138.909 23.1531 152.636 28.6356 165.556C33.9056 178.051 41.4706 189.229 51.0756 198.876C60.6806 208.481 71.9006 216.046 84.3956 221.316C97.3156 226.799 111.043 229.561 125.196 229.561C139.348 229.561 153.076 226.799 165.996 221.316C178.491 216.046 189.668 208.481 199.316 198.876C208.921 189.271 216.486 178.051 221.756 165.556C227.238 152.636 230.001 138.909 230.001 124.756C230.001 110.604 227.238 96.8762 221.756 83.9562C216.486 71.4612 208.921 60.2837 199.316 50.6362C189.711 40.9887 178.491 33.4662 165.996 28.1962C153.076 22.7137 139.348 19.9512 125.196 19.9512Z" fill="black"/>
<path d="M125.197 134.326C130.197 134.326 134.25 130.273 134.25 125.273C134.25 120.274 130.197 116.221 125.197 116.221C120.197 116.221 116.145 120.274 116.145 125.273C116.145 130.273 120.197 134.326 125.197 134.326Z" fill="black"/>
</svg>
