<svg width="250" height="250" viewBox="0 0 250 250" fill="none" xmlns="http://www.w3.org/2000/svg">
<g clip-path="url(#clip0_242_94905)">
<path d="M250 0H0V250.033H250V0Z" fill="white"/>
<path d="M93.7227 187.757C128.365 187.757 156.447 159.67 156.447 125.024C156.447 90.3774 128.365 62.291 93.7227 62.291C59.0808 62.291 30.998 90.3774 30.998 125.024C30.998 159.67 59.0808 187.757 93.7227 187.757Z" stroke="#2344AA" stroke-width="20.3738" stroke-miterlimit="10"/>
<path d="M162.22 187.757C196.862 187.757 224.944 159.67 224.944 125.024C224.944 90.3774 196.862 62.291 162.22 62.291C127.578 62.291 99.4951 90.3774 99.4951 125.024C99.4951 159.67 127.578 187.757 162.22 187.757Z" stroke="#557FEE" stroke-width="20.3738" stroke-miterlimit="10"/>
</g>
<defs>
<clipPath id="clip0_242_94905">
<rect width="250" height="250" rx="125" fill="white"/>
</clipPath>
</defs>
</svg>
