<svg width="250" height="250" viewBox="0 0 250 250" fill="none" xmlns="http://www.w3.org/2000/svg">
<path d="M125.884 245.674C74.7367 245.674 28.9041 213.25 11.8876 165.028C8.81584 156.3 13.3991 146.695 22.1268 143.623C30.8545 140.551 40.4598 145.134 43.5316 153.862C55.8186 188.676 88.9253 212.129 125.884 212.129C130.711 212.129 135.538 211.739 140.219 210.958C149.336 209.447 158.015 215.639 159.527 224.806C161.038 233.972 154.846 242.603 145.68 244.114C139.146 245.138 132.515 245.674 125.884 245.674Z" fill="#B912F6"/>
<path d="M206.42 75.6631C201.544 75.6631 196.766 73.5665 193.45 69.5195C176.775 49.1873 152.152 37.4852 125.871 37.4852C110.854 37.4852 96.0803 41.3371 83.0619 48.6509C74.9681 53.1855 64.7777 50.3575 60.1944 42.2636C55.6599 34.1696 58.4879 23.9791 66.5817 19.3958C84.5734 9.25406 105.101 3.89062 125.871 3.89062C162.245 3.89062 196.327 20.0297 219.438 48.2121C225.289 55.3796 224.265 65.9602 217.098 71.8112C213.928 74.3954 210.174 75.6631 206.42 75.6631Z" fill="url(#paint0_linear_242_93348)"/>
<path d="M125.873 189.738C90.0363 189.738 60.9277 160.581 60.9277 124.792C60.9277 89.0033 90.085 59.8457 125.873 59.8457C143.329 59.8457 159.663 66.6719 171.95 79.0565C178.386 85.5414 178.337 96.0245 171.852 102.461C165.367 108.897 154.884 108.848 148.448 102.363C142.451 96.3171 134.406 92.9527 125.873 92.9527C108.321 92.9527 94.0344 107.239 94.0344 124.792C94.0344 142.345 108.321 156.631 125.873 156.631C134.601 156.631 142.744 153.169 148.838 146.88C155.177 140.297 165.66 140.102 172.242 146.441C178.825 152.779 179.02 163.262 172.681 169.845C160.345 182.62 143.67 189.738 125.873 189.738Z" fill="#7E509E"/>
<path d="M28.0679 105.435C37.6274 105.435 45.377 97.6853 45.377 88.1257C45.377 78.566 37.6274 70.8164 28.0679 70.8164C18.5083 70.8164 10.7588 78.566 10.7588 88.1257C10.7588 97.6853 18.5083 105.435 28.0679 105.435Z" fill="#AA61C5"/>
<path d="M204.712 209.929C214.272 209.929 222.022 202.179 222.022 192.62C222.022 183.06 214.272 175.311 204.712 175.311C195.153 175.311 187.403 183.06 187.403 192.62C187.403 202.179 195.153 209.929 204.712 209.929Z" fill="#BA1DF3"/>
<defs>
<linearGradient id="paint0_linear_242_93348" x1="58.0412" y1="39.7918" x2="223.208" y2="39.7918" gradientUnits="userSpaceOnUse">
<stop stop-color="#A655C5"/>
<stop offset="1" stop-color="#951CC2"/>
</linearGradient>
</defs>
</svg>
