<svg width="250" height="250" viewBox="0 0 250 250" fill="none" xmlns="http://www.w3.org/2000/svg">
<rect width="250" height="250" rx="125" fill="white"/>
<g clip-path="url(#clip0_242_94522)">
<path d="M39.1297 114.971V120.774C38.8699 166.079 52.211 192.846 63.7311 207.572L85.0407 201.682L95.5223 198.824L93.963 196.572L39.1297 114.971Z" fill="#8F8E8A"/>
<path d="M155.638 182.273L155.984 181.06L183.791 86.7265C159.103 41.5086 117.869 14.8283 116.137 13.7022L112.412 11.3633L153.818 182.793L155.638 182.273Z" fill="#8F8E8A"/>
<path d="M150.441 188.6L103.058 201.68L117.784 223.683L127.832 238.668C131.705 238.482 135.558 237.99 139.353 237.196L150.008 200.986L151.826 194.836L150.441 188.6Z" fill="#413B38"/>
<path d="M67.1104 211.555C74.4734 219.871 81.49 224.375 85.2148 226.368C96.6492 233.904 109.383 238.149 122.377 238.582L98.3817 202.893L90.2395 205.145L67.1104 211.555Z" fill="#413B38"/>
<path d="M149.316 184.009L111.894 29.125L107.996 32.33C69.1884 64.208 54.982 98.7709 49.8711 122.506L100.287 197.523L149.316 184.009Z" fill="#77CBEC"/>
<path d="M200.856 169.8C204.667 151.523 206.14 122.59 192.367 85.8615L190.549 80.9238L164.301 169.627L161.009 180.715L193.319 171.793L200.856 169.8Z" fill="#5E5957"/>
<path d="M156.852 194.922L160.923 211.901L164.561 227.06C177.035 219.35 194.1 204.278 208.999 175.605L210.904 171.967L200.423 174.912V174.825L172.357 182.535L159.363 186.087L156.852 194.922Z" fill="#413B38"/>
<path d="M148.103 234.768C152.328 233.42 156.417 231.68 160.317 229.571L156.333 212.852L154.167 203.93L151.568 212.852L144.812 235.807C145.851 235.461 146.977 235.114 148.103 234.768Z" fill="#413B38"/>
<path d="M144.723 235.809L151.479 212.854L144.723 235.809Z" fill="#413B38"/>
</g>
<defs>
<clipPath id="clip0_242_94522">
<rect width="227.302" height="227.302" fill="white" transform="translate(11.3643 11.3672)"/>
</clipPath>
</defs>
</svg>
