<svg width="250" height="250" viewBox="0 0 250 250" fill="none" xmlns="http://www.w3.org/2000/svg">
<g clip-path="url(#clip0_923_3728)">
<rect width="250" height="250" rx="125" fill="#FDC500"/>
<path d="M114.808 30.8287C126.524 23.697 191.396 21.838 173.389 32.5669C166.507 33.3815 157.92 30.1574 154.571 38.5571C146.233 41.5326 148.967 42.3718 149.311 49.5201C138.03 56.6817 132.875 65.9435 118.105 58.9938C116.546 57.8553 116.069 55.8551 116.402 53.9494C117.399 43.0206 127.42 52.9412 132.796 46.3226C136.539 41.8195 128.341 36.0509 133.06 32.0039C133.851 31.353 134.845 31.0436 135.821 31.0935C137.452 30.9603 140.323 32.7393 141.325 32.4374C120.711 27.1989 133.671 38.1802 131.281 46.1485C126.094 52.9524 117.143 44.5469 110.301 44.4898C102.806 39.7677 114.715 35.2434 114.808 30.8287Z" fill="#373101"/>
<path d="M31.7928 68.5938C56.3091 87.9281 48.1584 100.868 57.1486 125.627C52.1438 130.173 45.3111 128.454 39.4126 128.473C36.1285 127.49 35.4209 122.702 35.4634 119.558C35.5917 118.316 34.6422 117.71 33.8709 116.906C29.7406 105.45 31.558 92.3766 26.8496 81.2092C38.4806 79.7287 29.0776 74.6014 31.7933 68.5942L31.7928 68.5938Z" fill="#788001"/>
<path d="M29.2302 172.538C33.2697 159.026 38.5907 146.021 36.3094 131.609C40.411 127.739 39.4111 141.816 41.8252 142.733C42.5157 143.415 43.7101 143.912 45.1164 144.003C100.241 145.968 -1.08799 226.342 27.6111 174.81C28.7488 174.025 30.2163 177.035 31.599 176.055C31.7947 174.534 28.5805 174.649 29.2306 172.538L29.2302 172.538Z" fill="#606101"/>
<path d="M114.701 30.8909C115.359 34.4707 121.797 33.7602 118.699 37.6261C115.356 39.3531 111.239 32.4343 109.468 40.2585C108.628 42.0305 109.748 43.4501 111.606 43.5243C118.116 41.8343 124.559 51.508 129.799 45.9105C132.651 42.6676 129.423 40.3001 126.765 38.0892C125.764 36.4505 127.294 34.3599 127.609 32.4938C128.282 27.3669 138.418 30.644 142.247 29.9389C146.499 30.3387 145.33 38.2021 141.336 35.3348C139.924 34.1813 138.378 33.1976 136.555 32.58C135.173 32.1119 133.611 32.3751 132.894 33.7248C132.254 34.9213 132.389 36.4401 133.406 37.3375C140.087 42.5094 133.1 52.8968 125.638 49.9326C121.447 49.18 118.352 49.1446 117.684 54.1137C116.305 62.2602 132.71 57.7822 133.947 60.5078C134.788 67.7919 122.246 62.0557 117.614 63.0623C124.924 68.0763 119.999 78.4738 110.848 76.9025C100.259 78.3976 95.8588 70.3414 98.9854 61.2141C99.0192 61.0579 99.1379 60.5774 98.9396 60.9726C97.6482 64.2009 96.8366 74.089 92.5747 68.781C89.3222 56.8189 86.3021 61.6726 96.575 51.1686C115.37 42.3066 96.9594 76.3503 111.319 68.9105C102.831 61.3782 121.527 51.0016 108.539 47.2565C102.173 45.0435 107.107 39.4622 103.655 35.9782C106.567 33.0614 110.495 30.7631 114.7 30.8922L114.701 30.8909Z" fill="#675A16"/>
<path d="M103.549 36.02C104.868 35.8551 106.299 35.4178 107.827 35.3828C106.688 39.3757 103.839 44.8503 109.46 46.1463C111.107 46.4337 113.133 46.8018 114.444 47.6755C121.275 52.9944 102.759 64.4679 113.688 67.9057C114.489 68.1743 115.989 69.0347 115.621 69.9134C113.22 72.9351 109.069 71.0174 105.797 71.4067C104.456 71.5496 102.375 71.206 102.647 69.4336C104.099 65.2387 102.884 60.7149 104.235 56.6162C105.151 54.9712 105.13 52.7853 103.483 51.7267C101.056 49.9847 96.7078 51.3477 95.7425 54.4244C94.9808 56.2989 93.5666 57.8189 91.5976 58.4486C77.4151 63.1107 98.9204 37.707 103.548 36.0191L103.549 36.02Z" fill="#373902"/>
<path d="M60.6778 150.816C38.7064 140.854 39.2078 150.778 36.9303 132.289C35.8796 142.484 32.209 105.615 35.9562 118.645C36.9957 124.505 39.3274 130.745 46.4024 126.315C49.8572 125.504 53.8072 127.516 57.168 125.639C58.045 127.15 58.6588 128.885 59.4159 130.48C58.1633 137.382 65.1358 144.724 60.6774 150.816H60.6778Z" fill="#6A6C00"/>
<path d="M83.4837 178.59C78.58 166.192 62.82 161.487 83.5291 161.433C84.3457 161.346 85.1403 161.056 85.8062 160.518C90.647 156.418 95.9313 161.374 99.0401 165.137C99.596 169.664 96.588 173.798 99.6394 176.768C100.784 177.656 103.909 177.781 105.812 177.627C112.05 178.074 122.773 193.864 110.204 189.786C105.099 189.168 95.3937 176.981 89.0483 180.645C86.6962 183.113 84.7647 180.775 83.4837 178.59Z" fill="#907803"/>
<path d="M74.7274 162.358C73.7096 168.963 67.3217 157.625 61.3753 161C60.6719 161.406 60.1818 160.257 59.9052 159.844C58.4772 156.776 61.7751 154.092 60.7423 150.762C61.6864 144.32 57.6668 138.677 57.6348 132.395C58.075 128.209 64.1559 134.634 67.5016 130.608C69.7896 129.956 71.5283 131.533 71.9035 133.596C72.3108 143.178 77.4822 153.02 74.7274 162.358Z" fill="#563902"/>
<path d="M78.4282 99.1776C79.0941 91.0185 94.9111 91.7619 81.5561 82.2186C80.3147 81.2687 80.0756 80.1763 80.8227 78.8654C80.9231 77.8113 80.7794 76.4991 80.9031 75.8136C81.3408 71.1103 84.4858 76.7802 85.3957 73.3308C85.935 71.3885 85.2895 68.5787 87.2614 67.3602C94.9878 64.5796 88.4429 87.3809 96.9188 87.0677C99.8627 86.5792 98.2098 82.2619 100.096 80.7027C107.909 78.1166 109.115 94.8803 93.5822 94.6979C97.6518 97.1108 105.091 101.667 98.423 104.066C94.9045 106.288 94.1711 100.187 92.4799 103.738C90.8733 107.684 86.825 102.878 84.1364 102.671C81.3966 103.034 79.4122 101.712 78.4277 99.178L78.4282 99.1776Z" fill="#6C5E12"/>
<path d="M92.1238 104.137C92.1105 102.433 91.694 100.724 91.5612 98.8398C94.0665 99.2788 95.5828 101.898 96.1962 104.193C98.1527 105.378 100.57 101.53 102.214 104.051C106.773 113.833 78.8229 131.004 74.5039 118.014C77.8067 95.1784 78.665 115.671 88.4328 105.685C89.3557 105.137 91.5112 104.9 92.1238 104.137Z" fill="#3B3503"/>
<path d="M80.8544 78.9629C80.9439 82.2949 90.2857 81.908 89.1388 88.0922C81.6148 102.94 74.4607 95.5562 80.8544 78.9629Z" fill="#3A3805"/>
<path d="M31.7594 68.5375C30.8228 72.1514 36.9487 74.5501 33.8466 78.0708C32.2562 79.4959 29.6705 79.293 28.3453 81.1525C27.9888 81.7588 27.1993 81.5481 26.7595 81.1346C25.1991 79.6987 24.6835 75.184 23.7165 73.4116C22.8049 71.7366 22.3485 69.6719 22.6104 68.4054C23.116 64.4838 28.5394 64.0611 31.7598 68.5379L31.7594 68.5375Z" fill="#648108"/>
<path d="M74.482 118.017C83.5593 123.36 82.0422 131.626 76.7375 140.582C75.9874 141.672 75.1558 142.592 74.3437 142.031C72.5605 138.037 69.637 119.2 74.482 118.017Z" fill="#8D7905"/>
<path d="M72.1057 124.396C76.1082 130.731 72.4892 139.194 76.8557 144.984C77.113 145.733 77.1888 146.512 77.0685 147.323C72.9098 157.473 71.3523 140.307 70.736 136.521C68.8895 126.9 65.6587 132.237 72.1061 124.396H72.1057Z" fill="#DC9A11"/>
<path d="M175.407 31.1806C177.44 29.955 175.703 28.7065 175.646 27.3223C178.064 27.6708 181.025 27.8836 183.099 29.0314C183.478 30.3265 183.47 32.0035 185.026 32.4479C192.038 35.2618 183.272 43.3546 179.081 40.0772C176.157 38.1312 173.107 35.2069 175.407 31.1806H175.407Z" fill="#4A3803"/>
<path d="M39.267 184.888C39.317 183.906 39.661 182.949 40.1965 182.306C46.5003 177.823 51.3482 171.711 56.9435 166.325C59.9457 169.748 37.8678 191.447 39.267 184.888Z" fill="#5F4F09"/>
<path d="M122.646 219.101C123.307 218.12 123.527 216.996 122.825 216.186C122.141 215.145 120.659 214.17 121.035 212.804C122.564 207.548 132.586 223.672 132.636 226.773C131.455 229.506 126.994 224.465 125.162 223.74C124.286 222.235 123.357 220.678 122.646 219.101Z" fill="#DDD3A7"/>
<path d="M89.6944 67.6399C82.6357 69.8688 84.321 58.6205 87.0804 56.3525C87.4356 57.5448 87.8283 58.653 89.3334 58.7554C92.1523 59.0099 96.6233 71.7769 91.5447 68.2C90.7726 66.9145 91.3123 64.4241 89.6116 63.9165C90.771 64.4695 91.1641 66.6238 89.6944 67.6395V67.6399Z" fill="#524D08"/>
<path d="M84.7723 63.9189C87.3885 66.6971 87.4763 69.5851 87.2077 72.9213C85.5473 85.4472 78.1862 72.0205 84.7723 63.9189Z" fill="#46410C"/>
<path d="M78.4113 99.249C83.5915 102.407 81.625 101.273 86.8869 100.936C94.517 111.805 72.9488 109.948 78.4113 99.249Z" fill="#3B3503"/>
<path d="M78.1228 100.219C77.3719 104.992 82.0665 106.602 85.3473 107.635C86.9802 107.587 87.5028 104.769 88.9575 104.17C89.4364 104.288 92.4536 103.888 91.9863 104.391C91.3267 104.901 90.5937 105.346 90.0898 105.973C85.573 115.091 73.1521 108.571 78.1228 100.219Z" fill="#605217"/>
<path d="M92.2515 193.808C89.4729 189.131 83.778 183.863 83.7422 178.621C89.1318 182.984 86.6715 178.842 89.6578 179.993C87.0159 185.92 96.2473 192.052 92.2515 193.808Z" fill="#B1A065"/>
<path d="M29.2214 172.539C30.9584 173.75 34.0834 172.846 34.8031 175.301C35.2487 176.788 34.7448 177.86 33.2364 178.346C29.5891 180.195 25.3718 174.403 29.221 172.539H29.2214Z" fill="#BFAE40"/>
<path d="M39.299 184.916C42.3845 187.098 35.7917 190.247 33.1481 189.838C32.9324 185.388 34.7244 181.636 39.299 184.916Z" fill="#959820"/>
<path d="M224.733 133.372C227.105 148.16 212.736 145.599 220.775 153.257C221.639 156.445 218.05 158.682 216.935 161.498C214.754 167.609 210.417 168.467 208.517 161.635C205.605 165.355 210.62 182.014 203.756 186.496C162.349 209.287 165.285 144.136 175.505 150.942C172.504 166.846 189.24 170.906 200.793 162.492C206.479 158.651 197 153.368 199.03 148.008C200.18 142.749 204.757 149.937 207.934 145.24C211.842 140.266 203.74 135.994 203.861 130.076C203.791 124.72 213.12 123.71 219.789 119.928C227.321 117.108 225.586 128.986 224.733 133.372V133.372Z" fill="#694800"/>
<path d="M171.529 152.219C170.097 170.816 172.298 196.187 194.667 188.384C211.206 186.906 205.523 167.672 205.744 155.58C211.514 157.853 210.318 169.487 214.057 174.794C214.579 175.966 215.329 177.172 215.062 178.503C208.373 196.638 188.381 205.866 170.066 202.694C165.377 197.507 152.822 151.892 171.528 152.219H171.529Z" fill="#392E01"/>
<path d="M224.756 133.192C226.436 118.97 222.116 118.678 213.348 125.322C203.35 125.655 203.818 131.51 209.196 137.705C212.407 142.838 211.615 147.836 205.669 150.434C202.341 151.838 202.658 147.724 200.94 146.026C198.096 144.647 194.841 143.047 193.147 140.273C191.54 134.96 198.259 133.2 191.743 128.346C184.668 118.617 180.415 131.937 172.964 127.127C171.7 125.521 180.454 112.138 182.471 112.139C183.811 111.533 185.634 111.463 187.712 112.163C210.885 138.492 231.551 88.592 224.757 133.192H224.756Z" fill="#774D00"/>
<path d="M175.347 31.2051C176.85 37.8262 180.713 41.9236 185.535 37.7633C186.335 37.1153 186.804 36.1062 186.513 35.1026C184.123 31.2825 176.677 37.3689 182.763 29.042C182.927 28.8351 183.148 28.7255 183.406 28.743C188.637 29.1066 193.834 32.6997 196.76 36.6364C195.69 41.8361 188.595 40.5035 184.9 42.7073C173.919 47.4827 174.601 33.1166 164.607 34.8769C171.934 33.64 175.021 48.0545 167.019 47.7905C165.192 41.3168 160.498 40.9516 154.968 42.34C154.803 42.4666 154.891 42.6782 154.957 42.8814C157.855 46.37 152.596 49.2589 149.361 48.7529C142.307 42.3255 146.993 40.9499 154.015 36.8238C157.356 27.0139 168.043 32.1429 175.347 31.2055L175.347 31.2051Z" fill="#675210"/>
<path d="M205.625 50.0304C210.026 57.9146 214.772 65.648 213.76 75.3196C213.974 76.6655 215.234 77.9765 215.981 79.337C216.364 80.1753 215.343 80.9029 214.585 80.4681C210.363 78.5437 205.483 80.3261 201.264 78.4088C200.948 78.2384 200.966 77.9186 200.923 77.5867C200.636 74.3984 203.652 75.4174 205.608 74.8948C215.635 72.192 187.022 55.1439 187.857 52.5449C182.374 43.2456 201.654 48.821 205.625 50.03V50.0304Z" fill="#745602"/>
<path d="M205.619 49.9439C199.313 51.9699 193.137 47.7367 186.823 48.7582C163.162 55.204 178.163 36.309 160.621 35.6148C160.043 35.409 162.636 34.3425 162.794 34.1622C173.335 28.7475 172.838 43.4027 181.258 41.9685C185.149 40.7579 189.128 39.6022 193.097 38.7327C195.405 47.5709 207.969 40.3335 205.62 49.9439H205.619Z" fill="#3E3702"/>
<path d="M89.7326 181.007C85.9745 168.428 112.545 193.618 115.01 188.917C117.32 184.879 98.2002 176.462 109.095 174.957C111.679 174.416 112.875 176.109 115.165 177.863C145.759 208.567 102.598 189.943 89.7326 181.007Z" fill="#675302"/>
<path d="M121.084 195.328C123.416 185.732 161.122 207.519 168 194.046C168.811 203.831 176.211 202.661 183.144 202.692C163.749 205.298 139.123 205.067 121.084 195.328Z" fill="#584403"/>
<path d="M215.581 79.9868C216.56 78.9548 218.3 81.6138 219.478 82.3601C218.896 90.7257 199.242 87.9301 192.751 88.0792C186.908 87.9109 193.866 93.9694 188.132 95.1996C183.516 96.4435 182.108 91.8201 178.805 89.9703C176.407 89.0541 173.626 89.944 171.25 88.7068C170.92 88.5464 170.985 88.4273 171.162 88.0983C172.737 85.0849 167.521 85.5347 167.802 83.116C182.079 76.8472 200.293 83.9614 215.58 79.9872L215.581 79.9868Z" fill="#FBF578"/>
<path d="M224.592 113.093C217.532 122.729 190.515 127.58 188.354 112.508C197.27 111.039 208.148 115.234 217.494 111.187C218.289 110.732 217.893 109.385 218.726 108.823C224.762 104.003 224.76 105.631 224.592 113.093Z" fill="#F5E034"/>
<path d="M214.566 179.685C211.653 174.397 207.731 164.699 209.948 160.194C211.298 160.889 210.39 163.421 210.969 164.48C215.334 168.714 214.31 156.335 220.282 155.929C222.493 157.392 218.187 161.576 220.128 163.74C223.027 167.4 223.361 172.034 218.178 173.986C216.55 175.576 216.747 178.62 214.566 179.686V179.685Z" fill="#5D4203"/>
<path d="M198.247 227.964C190.325 235.908 178.313 248.532 167.83 253C169.547 249.997 199.313 219.947 198.247 227.964Z" fill="#826A17"/>
<path d="M218.504 173.626C221.913 171.113 220.124 167.817 220.905 164.695C228.066 172.335 224.225 188.431 219.279 196.419C217.472 195.126 225.598 174.868 218.504 173.626Z" fill="#B28A3B"/>
<path d="M218.086 85.2403C217.835 84.3324 217.831 83.2697 218.507 82.9557C228.278 80.1342 224.302 89.6272 226.447 95.3046C226.749 96.4148 226.656 97.862 226.484 98.7811C226.727 102.936 216.077 103.347 218.853 98.4221C219.005 98.0223 219.362 97.331 218.782 97.1811C212.929 95.1859 217.004 94.3442 218.185 89.8071C220.462 88.5007 217.854 86.9819 218.086 85.2403Z" fill="#E9D60D"/>
<path d="M205.41 44.9474C197.635 46.1714 192.178 46.9559 193.452 38.6349C194.952 38.5779 195.552 37.1199 196.582 36.2911C201.545 36.2591 202.56 42.2867 205.41 44.9474Z" fill="#5A480F"/>
<path d="M122.618 211.311C122.214 211.922 121.609 212.591 121.012 213.024C117.462 211.27 114.343 209.172 111.796 207.652C87.6092 191.593 113.07 202.951 122.618 211.311Z" fill="#BBB280"/>
<path d="M198.204 227.957C197.695 227.05 196.801 226.773 195.885 226.59C214.643 206.356 219.553 208.694 198.204 227.957Z" fill="#90742A"/>
<path d="M220.918 153.387C211.958 152.905 216.695 143.452 223.295 143.796C223.464 147.204 222.005 150.299 220.918 153.387Z" fill="#A18B14"/>
<path d="M218.096 100.246C231.41 102.476 222.3 93.9309 226.61 89.2559C227.844 93.9213 227.586 100.96 224.349 105.761C224.556 108.615 216.28 111.769 218.949 107.356C224.796 101.133 213.483 105.262 211.961 101.215C212.594 98.4464 216.179 98.7467 218.096 100.246H218.096Z" fill="#EDD225"/>
<path d="M155.258 246.97C151.39 243.505 144.435 241.965 142.352 237.119C147.405 237.009 152.537 242.709 157.074 245.27C156.953 246.133 156.111 246.876 155.258 246.97Z" fill="#A79F69"/>
<path d="M142.672 236.715C142.932 239.675 131.873 230.354 131.418 227.597C134.874 225.188 139.834 235.202 142.672 236.715Z" fill="#BDB083"/>
<path d="M155.213 246.958C155.825 246.462 156.514 245.073 157.35 245.278C159.926 246.706 162.507 248.124 165.08 249.556C166.142 254.707 157.198 249.102 155.213 246.958Z" fill="#AEA060"/>
<path d="M102.274 198.932C101.121 202.607 89.5167 195.101 93.3276 192.606C96.3598 193.897 99.4132 196.925 102.274 198.932Z" fill="#AC9B5D"/>
<path d="M164.133 251.76C164.675 249.302 168.602 247.649 169.981 250.545C170.785 252.089 170.042 253.578 168.643 254.427C166.101 256.232 165.502 253.335 164.133 251.76Z" fill="#BD9514"/>
<path d="M226.884 89.1118C225.342 90.7118 226.232 92.2647 225.781 94.0921C222.364 94.1583 224.252 91.458 224.371 89.547C224.277 87.6184 224.151 84.692 224.804 83.1387C226.475 84.6291 227.22 86.9229 226.884 89.1114V89.1118Z" fill="#D2BB07"/>
<path d="M212.263 212.941C211.154 211.567 215.784 199.991 217.928 202.383C215.743 205.558 215.393 210.317 212.263 212.941Z" fill="#AF9652"/>
<path d="M217.987 202.519C213.238 203.726 217.862 195.754 220.421 195.141C221.859 197.091 218.921 200.491 217.987 202.519Z" fill="#A17F38"/>
<path d="M149.088 48.6717C154.654 42.5828 170.044 48.3527 156.308 50.4612C154.658 50.8189 153.601 51.4423 153.221 52.4934C154.706 62.9608 159.831 74.3561 155.567 84.9796C145.997 88.0976 138.26 101.498 127.541 95.2509C132.224 85.9758 126.113 67.7308 133.193 61.8764C136.058 55.4398 142.531 51.1512 149.088 48.6717Z" fill="#6E5200"/>
<path d="M28.2133 81.4138C27.4342 77.3551 30.7324 77.0678 33.8575 77.772C35.5553 82.1876 32.1292 83.4981 28.2133 81.4138Z" fill="#BDD461"/>
<path d="M131.255 62.7283C132.673 64.4549 132.991 66.7674 132.519 68.853C128.611 76.7617 135.749 91.2008 127.433 95.2986C115.391 106.772 106.533 74.652 120.31 84.9008C124.629 87.92 124.359 77.8378 120.628 78.3184C114.831 78.1085 111.156 80.3078 111.822 86.2971C112.755 95.2328 115.397 98.2196 106.252 100.769C98.8954 103.187 96.4255 94.8822 89.2888 96.1786C88.6437 94.5215 90.1559 92.5184 91.8404 93.1339C95.8699 94.7093 98.7338 91.7222 102.126 90.2642C106.967 89.4604 102.78 77.1598 100.409 82.2492C104.019 92.2581 89.3809 90.5457 90.3612 80.8854C90.2346 76.3478 87.4706 53.7751 93.4146 68.9433C94.7393 70.5854 94.9154 68.5398 97.6769 68.6726C100.308 68.7159 98.4444 72.3694 99.528 73.7096C105.64 74.0673 117.042 78.7836 119.724 71.1913C120.338 69.0733 120.173 66.4476 117.932 65.5051C117.015 65.0179 115.548 65.2057 114.662 64.6169C110.684 57.0579 127.285 62.7074 131.255 62.7291L131.255 62.7283Z" fill="#383401"/>
<path d="M99.7131 73.9707C97.7862 73.0553 99.4033 69.1357 96.3061 68.9546C95.4553 64.6664 96.9012 59.1801 100.427 54.2402C101.654 61.6576 98.8577 67.9488 99.7131 73.9711V73.9707Z" fill="#4D4102"/>
<path d="M112.446 176.1C108.742 176.411 107.765 174.896 105.752 178.641C103.651 178.815 101.388 180.882 99.4486 179.314C96.4735 176.193 94.7964 171.93 97.5571 167.875C98.0102 166.998 98.1584 165.943 98.4133 164.986C95.7668 160.472 101.104 159.963 103.855 156.846C105.277 152.96 106.7 147.831 111.002 146.2C119.308 149.82 127.8 173.834 112.446 176.1Z" fill="#808902"/>
<path d="M75.864 149.569C72.5207 139.864 78.9103 135.908 79.6399 127.157C84.5244 126.044 86.3639 150.192 93.1694 156.449C94.4363 158.293 96.8221 161.26 94.6799 163.273C91.6948 159.983 88.9725 158.87 86.0303 162.43C77.9521 167.062 74.0349 155.59 75.8644 149.569L75.864 149.569Z" fill="#7C6200"/>
<path d="M94.8698 163.391C93.2881 156.556 86.2014 152.158 85.9132 144.915C83.7706 124.445 111.128 145.019 98.6357 160.863C98.4608 161.586 98.6299 162.358 98.5761 163.106C98.8985 165.603 96.3602 163.887 94.8698 163.391Z" fill="#543B00"/>
<path d="M75.8697 149.638C77.5401 151.908 80.9437 170.172 74.6662 162.039C74.1098 158.05 73.5501 154.057 72.9941 150.066C73.2278 149.38 75.1613 149.761 75.8697 149.638V149.638Z" fill="#D08A08"/>
<path d="M101.281 100.614C104.31 100.408 117.505 93.2465 114.655 100.922C110.988 104.932 104.796 104.293 99.9433 104.319C98.2325 104.876 97.281 106.749 95.626 107.417C93.196 104.831 99.3503 102.136 101.281 100.614L101.281 100.614Z" fill="#DEDF92"/>
<path d="M101.102 104.187C117.542 99.3344 121.506 102.753 117.7 119.664C119.484 127.167 124.908 129.191 115.889 137.275C101.23 141.789 93.1363 123.445 99.7924 111.756C100.646 109.242 102.772 106.896 101.102 104.187V104.187Z" fill="#6F5800"/>
<path d="M99.7868 111.768C99.0043 121.295 101.117 131.795 97.5651 140.559C92.4715 139.631 84.6615 134.962 85.8588 144.417C74.1799 110.867 75.8436 129.693 99.7868 111.768Z" fill="#5D4400"/>
<path d="M200.904 153.373C217.316 166.326 173.198 177.69 173.01 156.134C173.055 154.756 173.789 153.392 175.01 152.976C175.501 152.796 176.682 152.725 177.042 153.317C180.993 159.913 180.009 152.746 184.879 154.937C193.439 163.528 192.879 156.015 200.904 153.373V153.373Z" fill="#A78302"/>
<path d="M194.383 140.724C206.593 149.653 177.593 145.906 171.847 151.891C170.353 152.501 168.431 152.184 166.988 153.349C162.456 140.058 185.724 136.926 194.383 140.724H194.383Z" fill="#473301"/>
<path d="M175.457 150.726C178.786 140.519 199.274 149.693 195.835 142.077C201.476 142.6 200.794 147.777 199.347 151.935C198.35 152.772 178.542 155.057 175.457 150.726V150.726Z" fill="#5F4102"/>
<path d="M175.452 151.974C195.249 143.999 193.08 167.304 183.277 155.506C182.396 155.246 181.693 155.861 180.904 156.167C177.731 157.343 178.419 152.717 174.564 153.254C174.634 152.828 175.16 152.343 175.452 151.974H175.452Z" fill="#F5DC3C"/>
<path d="M189.362 158.1C186.003 150.081 196.203 148.846 200.689 153.071C201.825 156.434 196.184 155.572 195.688 158.27C193.946 159.764 191.122 159.559 189.362 158.1Z" fill="#F8D932"/>
<path d="M174.19 141.995C164.773 145.975 168.77 158.832 161.596 164.168C157.834 168.853 162.786 179.2 155.218 181.219C157.354 163.153 132.657 156.529 135.864 139.958C137.446 139.584 138.764 140.535 140.001 142.036C156.696 172.434 159.21 127.606 179.902 136.553C181.825 136.946 184.789 136.899 184.62 139.531C183.935 143.633 176.984 139.865 174.19 141.995L174.19 141.995Z" fill="#795001"/>
<path d="M155.325 181.118C162.277 172.657 152.766 159.358 163.996 162.617C159.367 177.605 175.849 202.615 161.275 200.078C159.342 199.869 157.356 200.118 155.431 199.992C158.994 192.842 150.893 187.3 155.325 181.118V181.118Z" fill="#674D00"/>
<path d="M174.077 136.954C170.938 136.052 168.145 136.724 166.587 139.593C155.499 157.652 145.954 159.869 136.365 139.506C135.135 137.603 134.679 135.706 135.271 133.706C137.277 128.958 142.395 121.782 148.339 124.232C154.854 126.755 162.004 126.677 168.846 126.043C175.349 126.828 180.52 128.317 184.292 121.518C185.958 120.443 188.841 121.582 188.655 123.696C189.542 128.803 199.9 126.776 196.514 134.029C195.576 136.135 193.165 137.67 194.179 140.261C194.263 140.517 194.426 140.79 193.94 140.74C187.839 140.088 179.605 143.515 174.565 141.706C176.625 139.277 182.609 142.495 183.445 139.373C182.887 137.22 178.572 139.459 179.555 137.446C180.534 134.771 183.364 134.515 185.622 135.254C182.753 135.716 177.089 131.37 174.077 136.953V136.954Z" fill="#694700"/>
<path d="M191.945 113.022C176.749 109.519 182.849 120.732 173.669 121.536C169.607 121.349 160.157 119.48 168.772 116.023C182.373 114.366 169.851 106.702 174.794 100.77C180.111 96.5969 182.695 103.045 187.431 97.4964C187.873 97.0533 188.62 97.2053 189.172 97.3223C192.346 100.52 195.436 104.197 194.078 109.244C194.217 110.767 193.705 112.846 191.945 113.022Z" fill="#FCF724"/>
<path d="M174.071 120.595C183.04 120.794 168.685 132.79 154.065 127.202C145.995 119.308 169.872 124.254 174.071 120.595Z" fill="#F8E849"/>
<path d="M156.546 79.002C155.2 78.0896 154.512 76.6833 154.797 75.0166C158.211 67.7505 148.708 55.3857 151.711 50.5108C152.598 48.3877 156.869 48.9021 159.262 48.6434C162.15 47.4037 163.662 45.4289 166.903 47.2571C168.168 47.0131 169.463 46.116 170.74 46.3001C196.498 48.87 181.307 49.8561 200.257 61.0823C202.991 62.1492 203.675 65.3176 205.798 67.0604C211.3 71.6101 213.762 77.1218 203.629 76.7536C202.094 76.7228 202.47 76.4355 201.251 77.4603C200.54 78.0696 200.162 78.5344 200.054 78.8863C235.454 83.6621 167.585 84.4637 156.546 79.002Z" fill="#836000"/>
<path d="M166.534 47.3637C163.527 47.564 161.454 47.5036 159.391 47.5203C153.328 47.4362 157.811 46.373 152.377 43.335C145.584 40.0871 163.851 40.6926 164.993 39.2559C167.928 39.0094 166.434 45.4743 166.534 47.3641V47.3637Z" fill="#3B3100"/>
<path d="M213.714 81.7002C207.716 81.5874 201.493 81.9039 194.947 81.5903C196.358 73.9564 223.273 78.7672 213.714 81.7002Z" fill="#3B3B03"/>
<path d="M112.477 176.084C133.237 156.422 137.338 173.582 147.489 190.355C148.284 191.429 148.707 192.924 148.225 194.038C146.683 197.433 140.882 198.004 137.868 196.433C125.628 197.156 119.992 183.689 112.477 176.085V176.084Z" fill="#8E7200"/>
<path d="M137.744 196.321C141.227 196.267 147.469 196.871 147.159 191.942C140.713 185.824 137.992 176.773 134.045 168.929C133.75 168.247 132.939 167.796 133.098 166.95C135.309 159.595 129.53 157.575 124.183 154.003C120.904 150.543 118.849 146.166 115.846 142.49C115.281 141.432 115.253 139.782 116.339 139.035C123.503 135.404 130.891 127.115 139.261 127.777C130.673 145.788 141.056 151.353 153.58 167.028C159.748 176.333 151.55 177.956 157.686 192.013C163.595 204.053 143.885 199.28 137.744 196.321V196.321Z" fill="#826100"/>
<path d="M147.612 125.505C132.893 118.731 136.898 83.9589 155.619 84.1859C162.301 79.256 168.602 85.2799 176.387 84.4162C176.292 87.0169 172.002 85.91 170.774 87.2601C165.696 93.0979 149.33 86.1224 147.961 95.6528C147.681 96.6597 147.924 97.2698 148.996 97.5114C157.828 97.7995 153.134 103.631 146.4 102.122C147.682 102.522 149.026 102.271 150.341 102.088C156.616 100.528 157.317 106.122 150.768 105.56C157.745 104.768 156.327 110.142 149.629 110.517C150.446 111.023 151.799 111.02 151.521 112.34C151.251 115.51 146.058 113.41 146.351 116.66C146.989 120.266 151.857 123.191 147.613 125.505H147.612Z" fill="#FAF395"/>
<path d="M188.441 97.671C185.252 102.542 182.885 104.892 178.896 99.3439C176.051 100.288 161.336 103.872 164.046 97.7085C167.157 95.2227 171.323 97.1692 174.699 95.3689C170.093 97.1446 166.804 95.2465 170.742 91.8303C173.264 89.6632 177.193 90.1866 179.612 87.8604C181.923 88.9015 182.637 92.1502 184.686 93.6136C185.513 94.3615 186.896 94.2786 188.203 94.2986C189.193 95.1865 189.178 96.6153 188.441 97.6714V97.671Z" fill="#F7EF4F"/>
<path d="M218.171 85.3301C232.342 95.0795 177.54 93.8314 196.138 86.7081C202.695 85.43 211.905 86.2296 218.171 85.3301Z" fill="#574901"/>
<path d="M179.262 87.8631C180.542 94.0303 174.086 90.4634 171.464 92.8322C167.053 94.7712 158.487 96.3303 155.09 92.4582C154.809 91.3117 157.378 90.291 158.597 90.3789C159.743 90.3901 159.018 89.4181 158.779 88.8726C165.271 86.912 172.52 87.976 179.262 87.8631Z" fill="#886D00"/>
<path d="M167.544 83.8438C164.743 83.6652 159.763 84.5768 156.895 84.1928C154.189 83.8746 154.004 82.3838 155.64 80.1833C162.344 75.8018 185.973 82.8248 167.544 83.8438Z" fill="#433900"/>
<path d="M188.506 97.6243C188.015 95.3263 187.871 93.8567 189.932 93.1154C190.854 92.7119 191.506 91.7915 192.574 91.7282C206.713 89.6398 202.421 98.3931 188.506 97.6247V97.6243Z" fill="#A78E00"/>
<path d="M191.823 92.7865C191.408 92.8269 190.822 92.9618 190.473 92.6999C189.488 90.7838 185.353 91.6254 186.968 88.4767C188.68 85.1134 192.777 86.641 195.583 86.9012C189.368 89.5653 195.678 89.6714 191.823 92.7869L191.823 92.7865Z" fill="#7A6201"/>
<path d="M191.973 113.098C195.663 107.635 213.065 110.376 219.736 110.645C222.819 117.311 202.511 113.752 198.279 114.293C194.891 113.734 193.147 115.566 191.973 113.098Z" fill="#805400"/>
<path d="M196.898 117.112C201.513 117.034 206.089 117.112 211.833 117.085C207.837 120.514 200.978 119.259 196.898 117.112Z" fill="#A07F03"/>
<path d="M219.677 110.58C213.291 113.029 198.516 111.626 211.006 108.222C214.944 107.232 217.137 106.766 219.677 110.58Z" fill="#EDD225"/>
<path d="M191.867 92.7886C190.209 88.2076 214.776 90.6389 218.08 90.7684C213.063 99.388 199.966 91.2939 191.867 92.7886Z" fill="#EED769"/>
<path d="M201.917 93.1608C207.66 92.4957 213.564 93.1858 219.186 91.5C221.993 92.4478 220.484 94.6238 218.257 94.381C216.33 94.5788 215.21 95.9939 213.568 96.6852C209.468 97.8192 187.736 97.359 201.917 93.1608Z" fill="#917002"/>
<path d="M218.083 100.277C211.565 99.2374 211.039 105.274 204.953 102.244C194.724 94.6864 234.347 94.746 218.083 100.277Z" fill="#A58B03"/>
<path d="M220.781 96.5695C217.223 97.1996 213.506 97.5065 209.897 98.0287C209.161 98.1407 209.456 96.7107 209.732 96.4062C212.491 95.7453 218.577 93.94 220.781 96.5695Z" fill="#E6C441"/>
<path d="M203.436 99.1293C212.271 108.358 213.851 99.923 221.799 104.021C223.793 110.138 208.095 107.395 205.573 108.376C201.504 108.018 197.416 111.652 193.434 109.563C192.862 105.419 190.275 101.383 189.314 97.4389C190.859 96.2404 205.022 92.7302 203.436 99.1297V99.1293Z" fill="#FCF134"/>
<path d="M222.122 104.243C219.602 103.735 215.234 104.718 212.239 105.097C209.578 105.406 202.552 106.714 206.488 102.165C208.539 101.571 226.635 100.293 222.122 104.243Z" fill="#A77D04"/>
<path d="M196.988 109.193C202.131 104.104 214.89 107.547 222.081 106.832C221.508 108.336 219.308 107.913 218.311 108.982C216.338 108.576 214.4 108.805 212.449 109.17C207.31 109.257 201.87 112.282 196.988 109.193Z" fill="#9D7506"/>
<path d="M141.491 94.2986C141.601 96.6657 141.287 99.1236 141.253 101.518C137.161 105.085 121.72 103.63 115.871 102.775C112.874 99.4892 120.267 96.871 122.516 95.5821C128.858 95.5804 135.21 93.5228 141.491 94.299V94.2986Z" fill="#E2DB37"/>
<path d="M122.534 95.5634C108.171 106.969 104.186 72.8961 120.564 76.4201C122.594 76.4913 124.659 77.1406 124.829 79.2861C124.864 82.0001 126.44 85.6623 123.522 87.4085C118.925 89.4974 116.734 82.4982 120.574 81.1876C118.232 81.6498 116.191 80.9565 115.32 82.2779C114.12 87.5709 115.014 97.063 122.534 95.5629V95.5634Z" fill="#6B5A11"/>
<path d="M112.409 96.6737C115.274 96.5233 118.174 96.6129 121.05 96.5566C121.299 96.5691 121.234 96.7599 121.149 96.9206C119.626 99.3768 116.424 100.255 114.777 102.525C112.345 102.581 109.851 102.84 107.443 102.791C108.64 101.053 111.268 102.376 112.684 101.117C114.75 99.62 114.226 97.5865 111.189 97.766C111.381 97.3616 112.006 96.9585 112.408 96.6737H112.409Z" fill="#DDD95D"/>
<path d="M114.855 83.9955C113.023 81.5339 115.29 80.4948 117.717 80.0496C120.178 78.6508 122.389 79.7015 123.363 82.5188C123.328 84.7784 119.182 81.9599 118.845 84.3249C118.39 87.5141 117.306 81.0033 114.855 83.9955Z" fill="#513E03"/>
<path d="M116.294 139.538C118.909 144.23 122.714 148.783 124.882 153.481C120.397 155.855 117.488 152.521 115.374 149.305C114.239 147.494 112.748 145.552 110.371 146.854C108.761 149.488 104.021 150.29 105.883 154.252C106.277 158.329 103.371 161.603 98.9087 161.012C97.7335 154.907 102.048 147.404 97.5036 141.095C96.1693 138.664 98.4731 126.653 101.614 129.232C103.672 137.96 115.985 134.962 116.295 139.538L116.294 139.538Z" fill="#736E00"/>
<path d="M109.988 147.03C116.307 142.472 117.522 154.926 124.715 153.447C133.355 156.639 138.26 159.743 133.628 168.682C129.345 170.738 124.755 169.455 120.309 169.761C120.041 166.41 120.764 162.826 117.329 159.929C114.502 155.672 116.534 147.771 109.988 147.03V147.03Z" fill="#817600"/>
<path d="M106.039 154.624C101.901 150.681 105.926 149.226 109.608 147.131C110.833 149.5 105.838 151.794 106.039 154.624Z" fill="#817600"/>
<path d="M116.17 139.475C111.743 136.114 123.63 129.704 118.664 125.285C110.159 122.981 120.576 115.036 116.224 102.995C120.235 100.951 146.022 101.042 134.783 103.993C120.335 103.725 126.098 110.037 136.401 112.509C140.581 112.933 136.864 103.712 141.163 104.64C141.31 111.363 140.529 118.315 145.163 124.084C139.738 130.791 128.286 130.075 122.519 137.454C120.797 138.938 118.491 139.787 116.17 139.475Z" fill="#916B00"/>
<path d="M176.818 153.51C178.157 153.849 185.489 157.327 182.291 158.505C179.083 159.406 176.063 157.116 176.818 153.51Z" fill="#885C01"/>
<path d="M189.313 158.1C191.296 156.645 193.387 157.866 195.367 158.39C195.138 162.959 185.495 160.667 189.313 158.1Z" fill="#8B5E00"/>
<path d="M174.147 137.01C171.172 131.485 174.104 130.087 178.563 132.616C181.393 133.795 191.272 133.198 191.592 136.363C191.304 138.009 190.243 138.576 188.674 137.88C183.743 133.083 178.618 141.192 174.147 137.01Z" fill="#473301"/>
<path d="M147.678 125.524C147.65 122.581 152.01 121.08 153.23 124.124C156.085 128.581 149.429 127.435 147.678 125.524Z" fill="#F3E468"/>
<path d="M155.03 104.054C152.61 101.568 146.364 104.326 144.936 101.773C154.194 101.573 155.19 96.876 165.397 100.664C166.226 100.714 167.108 100.677 167.978 100.566C169.996 100.273 172.423 99.9169 174.001 101.599C174.529 105.374 178.857 109.23 176.452 113.235C171.452 115.698 157.182 116.171 152.798 113.073C152.515 111.656 152.624 110.145 151.608 108.979C152.578 108.222 153.775 107.692 154.821 107.016C154.957 106.941 155.086 106.837 155.046 106.667C154.566 105.728 155.34 104.96 155.03 104.055V104.054Z" fill="#FDF55D"/>
<path d="M152.638 123.337C151.449 123.205 150.226 123.234 149.053 123.015C138.415 113.874 169.968 118.57 173.743 120.253C169.468 126.721 159.407 123.937 152.638 123.337Z" fill="#8E6600"/>
<path d="M156.543 113.27C159.648 113.905 177.033 111.62 176.413 114.26C175.637 118.973 140.214 120.584 144.982 114.306C148.526 112.74 152.802 114.328 156.543 113.27Z" fill="#8D6A00"/>
<path d="M145.22 117.133C152.788 117.13 161.946 116.8 168.827 117.259C166.306 119.479 145.047 121.361 145.22 117.133Z" fill="#FEEB59"/>
<path d="M174.233 101.877C169.994 100.935 163.925 103.156 160.65 100.297C161.591 99.4324 162.701 99.4616 163.76 100.098C169.314 98.1806 186.773 99.0518 174.233 101.877Z" fill="#A48D01"/>
<path d="M196.951 109.195C199.176 109.342 217.901 108.747 207.13 110.656C203.068 112.55 197.984 111.232 193.489 111.709C193.234 111.745 193.055 111.599 193.088 111.338C193.131 110.713 192.945 110.007 193.132 109.419C194.354 109.18 195.693 109.298 196.951 109.195H196.951Z" fill="#FDE950"/>
<path d="M141.063 104.256C140.324 105.186 140.052 106.29 140.094 107.59C144.727 126.395 107.887 100.659 128.837 102.915C131.023 102.676 133.297 103.351 135.434 102.845C136.261 102.743 136.981 102.09 137.789 101.818C140.515 101.791 141.835 101.456 141.063 104.256H141.063Z" fill="#755401"/>
<path d="M155.283 92.6998C160.336 93.1262 167.173 92.2658 171.388 93.0288C170.021 94.0945 169.001 95.7078 167.526 96.3591C160.296 96.7939 152.877 98.5829 145.582 96.9325C146.938 93.4381 151.221 89.4344 155.283 92.6998Z" fill="#ECDF73"/>
<path d="M145.364 96.9099C149.653 96.2036 172.159 93.1094 173.021 96.2298C170.261 97.7382 166.65 97.1023 163.737 98.2508C160.194 100.032 156.412 99.0129 152.747 98.5269C150.311 98.3221 145.739 99.9583 145.363 96.9103L145.364 96.9099Z" fill="#99800B"/>
<path d="M155.295 92.7328C154.212 92.8023 147.361 94.7259 147.51 93.6052C144.863 88.109 162.013 87.4651 161.759 90.3898C160.176 92.5425 157.008 90.758 155.295 92.7324L155.295 92.7328Z" fill="#574004"/>
<path d="M147.566 99.0338C150.314 97.9798 166.354 96.1699 163.905 100.261C160.56 100.483 157.01 100.69 153.732 100.162C151.996 98.4037 149.59 99.5602 147.566 99.0338Z" fill="#FDF07A"/>
<path d="M151.516 109.011C153.242 109.485 156.92 108.364 155.901 111.177C155.052 111.817 153.039 111.275 152.032 112.179C142.743 111.658 140.929 109.547 151.516 109.011H151.516Z" fill="#846901"/>
<path d="M155.161 104.087C159.13 108.47 145.855 106.693 142.801 106.612C147.513 103.223 151.569 104.665 155.161 104.087Z" fill="#8C7207"/>
<path d="M151.415 111.885C153.106 111.442 153.491 112.892 155.218 113.11C155.456 113.241 156.917 113.149 156.323 113.393C153.034 114.55 147.959 114.588 145.326 113.8C147.019 112.253 149.876 113.867 151.415 111.886V111.885Z" fill="#F3E468"/>
<path d="M173.051 96.4611C172.936 96.1005 172.687 95.3401 173.132 95.1343C181.114 92.1476 180.313 98.7075 173.051 96.4611Z" fill="#86630A"/>
<path d="M203.355 99.0852C203.113 97.5789 201.999 96.7839 200.838 95.9535C203.937 95.2206 209.202 95.7674 213.015 95.4492C210.648 98.0391 207.457 99.8727 203.355 99.0852Z" fill="#FCE26F"/>
<path d="M169.697 108.412C170.779 110.651 166.34 111.328 165.792 109.449C165.627 108.133 165.63 106.705 165.059 105.561C165.163 105.015 166.074 104.528 166.854 104.372C170.811 103.494 167.294 107.938 169.697 108.412Z" fill="#C5B606"/>
</g>
<defs>
<clipPath id="clip0_923_3728">
<rect width="250" height="250" rx="125" fill="white"/>
</clipPath>
</defs>
</svg>
