<svg width="250" height="250" viewBox="0 0 250 250" fill="none" xmlns="http://www.w3.org/2000/svg">
<g clip-path="url(#clip0_242_94099)">
<path d="M124.999 250.008C194.035 250.008 249.999 194.043 249.999 125.008C249.999 55.9722 194.035 0.0078125 124.999 0.0078125C55.9634 0.0078125 -0.000976562 55.9722 -0.000976562 125.008C-0.000976562 194.043 55.9634 250.008 124.999 250.008Z" fill="#77C3B0"/>
<path d="M200.608 103.781L187.421 90.594C185.439 88.6025 183.082 87.0244 180.485 85.9515C177.889 84.8786 175.105 84.3322 172.296 84.344H170.265V82.2346C170.265 78.5393 169.39 75.0237 167.546 71.8596C166.597 70.0246 165.348 68.3611 163.851 66.9377L150.663 53.7424C148.681 51.75 146.322 50.1714 143.724 49.0984C141.126 48.0255 138.341 47.4796 135.53 47.4924H74.7646C69.0459 47.4924 63.6865 49.6955 59.6396 53.7424L46.4521 66.9299C44.455 68.8894 42.8725 71.2306 41.7988 73.8143C40.7251 76.3979 40.1821 79.1712 40.2021 81.969L39.8506 138.961C39.7725 144.672 42.0537 150.211 46.1006 154.258L59.2881 167.453C61.27 169.444 63.6277 171.021 66.2242 172.092C68.8207 173.164 71.6042 173.709 74.4131 173.696H76.7881V175.805C76.7881 179.5 77.6709 183.016 79.5146 186.18C80.4834 188.031 81.71 189.696 83.21 191.102L96.3975 204.305C98.3813 206.292 100.74 207.866 103.336 208.937C105.932 210.007 108.714 210.551 111.522 210.539H172.382C178.101 210.539 183.46 208.344 187.507 204.297L200.702 191.11C202.691 189.126 204.266 186.768 205.337 184.172C206.409 181.576 206.955 178.793 206.944 175.985V118.821C206.929 116.021 206.363 113.252 205.277 110.671C204.191 108.091 202.607 105.749 200.616 103.781H200.608ZM74.4131 154.344C73.855 154.345 73.319 154.126 72.9209 153.735L66.3271 147.133L59.7256 140.539C59.4424 140.206 59.2321 139.818 59.1084 139.399V82.0627C59.1084 81.4377 59.374 80.9143 59.7334 80.5627L72.9209 67.3752C73.0928 67.1955 73.2725 67.1096 73.4443 67.0237C73.7702 66.8536 74.1315 66.7626 74.499 66.758H135.358C135.71 66.758 135.976 66.844 136.327 67.0237C136.593 67.1096 136.765 67.2893 136.944 67.4612L150.132 80.6565C150.325 80.8215 150.475 81.0305 150.569 81.2658C150.663 81.3596 150.663 81.4455 150.663 81.5315C150.663 81.6174 150.741 81.7112 150.741 81.7971C150.741 81.883 150.835 82.1487 150.835 82.3205V85.133C150.835 86.3674 149.866 87.2424 148.726 87.2424H138.179C137.618 87.2452 137.079 87.0261 136.679 86.633L130.694 80.6565H79.1631L76.9678 82.844L73.9756 85.844V135.352L79.1631 140.539H130.608L136.593 134.477L136.671 134.383C136.851 134.297 137.03 134.117 137.202 134.031C137.468 133.86 137.827 133.86 138.085 133.86H148.632C149.335 133.86 149.96 134.211 150.397 134.735C150.671 135.089 150.824 135.521 150.835 135.969V138.961C150.834 139.52 150.612 140.057 150.218 140.453L143.624 147.047L137.03 153.641C136.944 153.735 136.765 153.821 136.679 153.906C136.679 153.906 136.593 153.992 136.499 153.992C136.413 154.086 136.327 154.086 136.233 154.086C136.155 154.086 136.155 154.086 136.062 154.172C135.976 154.172 135.882 154.258 135.796 154.258H74.4131V154.344ZM187.687 175.805C187.683 176.365 187.458 176.902 187.062 177.297L173.874 190.492C173.721 190.638 173.544 190.757 173.351 190.844C173.025 191.014 172.663 191.105 172.296 191.11H111.437C111.096 191.105 110.763 191.013 110.468 190.844C110.232 190.749 110.023 190.599 109.858 190.406L96.6631 177.211C96.4912 177.039 96.3115 176.86 96.2256 176.594C96.1318 176.516 96.1318 176.422 96.1318 176.336C96.1318 176.242 96.0537 176.156 96.0537 176.071C96.0537 175.985 95.96 175.719 95.96 175.539V172.727C95.96 171.5 96.9287 170.617 98.0693 170.617H108.616C109.241 170.617 109.765 170.883 110.116 171.235L116.101 177.211H167.546L169.741 175.016L172.733 172.024V122.516L167.546 117.321H116.187L110.21 123.391L110.116 123.477C109.944 123.571 109.765 123.742 109.593 123.828C109.327 124.008 108.976 124.008 108.71 124.008H98.1631C97.8217 124.001 97.486 123.919 97.1806 123.766C96.8752 123.613 96.6076 123.394 96.3975 123.125C96.1254 122.773 95.9722 122.344 95.96 121.899V118.906C95.9598 118.629 96.0142 118.355 96.1201 118.099C96.226 117.843 96.3813 117.61 96.5772 117.414L103.171 110.821L109.765 104.219C109.858 104.133 110.03 104.047 110.116 103.953C110.116 103.953 110.21 103.875 110.296 103.875C110.382 103.781 110.468 103.781 110.562 103.781C110.64 103.781 110.64 103.781 110.733 103.696C110.819 103.696 110.913 103.602 110.999 103.602H172.296C172.905 103.602 173.437 103.867 173.788 104.227L180.382 110.821L186.983 117.414C187.062 117.5 187.155 117.586 187.241 117.766C187.397 118.01 187.515 118.276 187.593 118.555V118.992C187.687 118.821 187.687 175.805 187.687 175.805Z" fill="white"/>
</g>
<defs>
<clipPath id="clip0_242_94099">
<rect width="250" height="250" rx="125" fill="white"/>
</clipPath>
</defs>
</svg>
