<svg width="250" height="250" viewBox="0 0 250 250" fill="none" xmlns="http://www.w3.org/2000/svg">
<g clip-path="url(#clip0_242_93349)">
<path d="M124.948 250.101C193.998 250.101 249.998 194.101 249.998 125.051C249.998 56.0008 193.998 0.0507812 124.948 0.0507812C55.8984 0.0507812 -0.101562 56.0008 -0.101562 125.101C-0.101562 194.151 55.8984 250.101 124.948 250.101Z" fill="#070A0E"/>
<path fill-rule="evenodd" clip-rule="evenodd" d="M72.1486 166.997C68.3986 164.697 66.0986 160.647 66.0986 156.247V131.797C66.0986 130.847 66.3486 129.947 66.7986 129.147C68.2486 126.647 71.4986 125.797 73.9986 127.247L129.149 159.397C132.349 161.297 134.349 164.747 134.349 168.447V193.747C134.349 194.897 134.049 196.047 133.449 197.047C131.649 199.997 127.749 200.947 124.799 199.147L72.1486 166.997ZM154.349 120.597C157.549 122.497 159.549 125.947 159.549 129.647V180.997C159.549 182.497 158.749 183.897 157.399 184.647L145.349 191.497C145.199 191.597 145.049 191.647 144.849 191.697V163.197C144.849 159.497 142.899 156.097 139.749 154.197L91.3486 125.247V92.9969C91.3486 92.0469 91.5986 91.1469 92.0486 90.3469C93.4986 87.8469 96.7486 86.9969 99.2486 88.4469L154.349 120.597ZM178.449 82.6969C181.699 84.5469 183.699 88.0469 183.699 91.7969V166.797C183.699 168.347 182.849 169.747 181.499 170.497L170.049 176.697V124.447C170.049 120.747 168.099 117.347 164.949 115.447L115.449 85.7469V55.1969C115.449 54.2469 115.699 53.3469 116.149 52.5469C117.599 50.0469 120.849 49.1969 123.349 50.6469L178.449 82.6969Z" fill="#00D395"/>
</g>
<defs>
<clipPath id="clip0_242_93349">
<rect width="250" height="250" rx="125" fill="white"/>
</clipPath>
</defs>
</svg>
