<svg width="250" height="250" viewBox="0 0 250 250" fill="none" xmlns="http://www.w3.org/2000/svg">
<path d="M205.395 137.585L137.985 204.995C130.81 212.17 119.19 212.17 112.015 204.995L44.6049 137.585C37.4299 130.41 37.4299 118.79 44.6049 111.615L112.015 44.2055C119.19 37.0305 130.81 37.0305 137.985 44.2055L205.395 111.615C212.57 118.79 212.57 130.41 205.395 137.585Z" fill="#1765FE"/>
<path d="M141.555 121.732V146.302C141.555 147.387 140.68 148.262 139.595 148.262H109.74C108.655 148.262 107.78 147.387 107.78 146.302V103.147C107.78 102.062 108.655 101.187 109.74 101.187H141.555V112.632L154.855 104.967V101.117C154.855 93.8017 148.94 87.8867 141.625 87.8867H109.705C101.305 87.8867 94.5146 94.6767 94.5146 103.077V146.337C94.5146 154.737 101.305 161.527 109.705 161.527H139.665C148.065 161.527 154.855 154.737 154.855 146.337V114.032L141.555 121.732Z" fill="white"/>
</svg>
