<svg width="250" height="250" viewBox="0 0 250 250" fill="none" xmlns="http://www.w3.org/2000/svg">
<g clip-path="url(#clip0_817_9590)">
<path d="M125 245.786C191.708 245.786 245.786 191.708 245.786 125C245.786 58.2915 191.708 4.21387 125 4.21387C58.2915 4.21387 4.21387 58.2915 4.21387 125C4.21387 191.708 58.2915 245.786 125 245.786Z" fill="url(#paint0_linear_817_9590)"/>
<path fill-rule="evenodd" clip-rule="evenodd" d="M125 8.42826C60.6192 8.42826 8.42826 60.6192 8.42826 125C8.42826 189.381 60.6192 241.572 125 241.572C189.381 241.572 241.572 189.381 241.572 125C241.572 60.6192 189.381 8.42826 125 8.42826ZM0 125C0 55.9644 55.9644 0 125 0C194.036 0 250 55.9644 250 125C250 194.036 194.036 250 125 250C55.9644 250 0 194.036 0 125Z" fill="url(#paint1_linear_817_9590)"/>
<path d="M77.016 204.857C76.3977 203.517 75.73 202.196 75.1735 200.829C73.8379 197.555 72.5445 194.265 71.2534 190.974C70.4818 189.002 69.7596 187.013 68.9904 185.039C68.1619 182.919 66.9921 182.444 64.8725 183.309C63.1833 183.998 61.4991 184.696 59.7925 185.34C58.8181 185.706 58.2591 185.353 58.3457 184.326C58.4867 182.628 58.5485 180.862 59.0778 179.269C60.4232 175.224 62.0481 171.273 63.4677 167.253C63.7719 166.393 64.0762 165.157 63.6903 164.513C63.1462 163.606 61.9121 163.902 60.8709 164.16C59.3523 164.541 57.7966 164.769 55.9566 165.122C56.147 164.329 56.1396 163.758 56.4017 163.375C58.0588 160.956 59.659 158.482 61.5114 156.217C63.2575 154.084 65.2732 152.172 67.2048 150.198C68.0086 149.375 68.9286 148.666 69.7497 147.858C71.2905 146.344 71.2312 145.313 70.0688 143.535C66.9723 138.801 63.9451 134.018 60.9747 129.202C59.5007 126.813 58.2097 124.314 56.8469 121.858C56.5526 121.326 56.3201 120.761 56.0382 120.222C55.6598 119.498 55.9961 119.168 56.6763 119.213C57.5642 119.272 58.4496 119.419 59.3201 119.608C60.1462 119.784 60.9376 120.18 61.7662 120.257C62.3226 120.309 63.1116 120.145 63.4282 119.767C63.678 119.469 63.5395 118.589 63.2724 118.153C62.3573 116.662 61.2789 115.272 60.3193 113.805C59.0234 111.829 57.8931 109.733 56.4908 107.838C53.4858 103.776 51.6705 99.0869 49.6276 94.5546C48.1412 91.2579 47.3374 87.6206 46.5138 84.0703C46.0365 82.0167 46.1156 79.8289 45.9573 77.7032C45.9227 77.2507 46.0538 76.756 45.9202 76.3433C44.6985 72.5369 45.1066 68.5913 45.0101 64.7104C44.9112 60.7673 45.527 56.9038 47.3968 53.3187C48.3638 51.4665 49.5806 50.0345 51.626 49.3159C53.1272 48.7889 54.4158 49.4204 55.7711 49.7237C59.6862 50.5938 62.518 53.351 65.6046 55.6159C68.2188 57.5353 70.6797 59.6709 73.1455 61.7842C74.4464 62.9005 75.6063 64.1808 76.8454 65.3692C78.2873 66.754 79.6723 68.2109 81.2106 69.4814C86.7754 74.0833 91.6946 79.3615 96.8092 84.4333C97.9692 85.5844 99.1316 85.6018 100.831 84.9305C106.247 82.7899 111.787 81.9272 117.431 83.9361C119.093 84.5278 120.656 85.4576 122.172 86.38C123.574 87.2327 124.799 87.3894 126.245 86.4347C129.453 84.3165 133.175 83.5532 136.843 82.7427C137.79 82.5339 138.918 82.7328 139.873 83.0361C142.828 83.9734 145.747 85.025 148.66 86.0866C150.332 86.6957 151.69 86.4297 152.981 85.0872C155.326 82.6482 157.675 80.2118 160.017 77.7678C161.907 75.7963 163.72 73.7427 165.701 71.8681C166.965 70.6748 168.493 69.7698 169.861 68.6784C170.427 68.2259 170.855 67.6018 171.387 67.1021C174.073 64.5836 176.709 62.0054 179.489 59.5963C181.851 57.5527 184.369 55.6905 186.852 53.7936C189.374 51.8668 192.05 50.2458 195.11 49.2438C197.712 48.3936 201.417 49.843 202.482 52.4088C204.093 56.2822 205.077 60.2875 204.98 64.5239C204.941 66.217 204.933 67.9126 204.985 69.6032C205.042 71.5002 204.956 73.3698 204.315 75.1772C204.248 75.3662 204.234 75.5825 204.238 75.7864C204.276 77.5143 204.741 79.2844 203.744 80.9129C204.115 84.125 202.638 86.9866 201.884 89.9502C200.959 93.5825 199.589 97.1104 197.662 100.397C196.022 103.197 194.749 106.215 193.052 108.972C191.41 111.642 189.409 114.089 187.618 116.669C187.027 117.522 186.177 118.484 186.859 119.583C187.601 120.781 188.781 120.043 189.768 119.881C190.438 119.772 191.074 119.461 191.734 119.282C192.632 119.039 193.107 119.439 192.797 120.277C192.323 121.567 191.808 122.862 191.135 124.056C188.788 128.227 186.458 132.417 183.943 136.487C182.296 139.149 180.364 141.638 178.515 144.171C177.726 145.25 177.592 145.877 178.866 147.13C181.851 150.064 184.774 153.072 187.579 156.182C189.214 157.995 190.589 160.051 192.046 162.022C192.426 162.539 192.728 163.133 192.975 163.73C193.292 164.501 193.131 165.1 192.142 164.936C190.747 164.705 189.36 164.406 187.982 164.081C187.055 163.862 186.154 163.805 185.489 164.578C184.834 165.341 185.365 166.1 185.652 166.875C187.116 170.831 188.623 174.774 189.931 178.779C190.48 180.46 190.633 182.282 190.861 184.055C191.027 185.338 190.569 185.703 189.33 185.285C187.801 184.773 186.283 184.206 184.819 183.533C182.103 182.282 181.134 182.782 180.092 185.604C178.727 189.301 177.13 192.913 175.641 196.565C174.688 198.897 173.761 201.239 172.789 203.564C172.608 203.999 172.267 204.367 171.792 205.078C171.414 203.934 171.065 203.101 170.862 202.231C170.326 199.939 169.856 197.629 169.354 195.327C168.936 193.413 167.504 193.094 165.886 194.39C161.848 197.622 157.858 200.938 153.636 203.912C150.058 206.433 146.19 208.544 142.41 210.769C141.926 211.055 141.206 210.933 140.595 211C140.667 210.383 140.63 209.73 140.825 209.155C141.901 206.013 143.019 202.883 144.157 199.76C144.894 197.739 145.665 195.73 146.462 193.731C146.736 193.042 147.255 192.816 147.946 193.249C148.987 193.905 149.694 193.43 150.072 192.463C150.693 190.882 151.235 189.268 151.749 187.65C152.501 185.293 153.201 182.921 153.916 180.554C153.975 180.36 154.027 180.151 154.022 179.953C153.948 176.875 154.227 173.73 153.693 170.731C152.944 166.54 151.178 162.644 148.331 159.379C147.068 157.93 145.613 156.65 144.288 155.255C144.003 154.956 143.892 154.492 143.699 154.101C144.07 153.989 144.439 153.8 144.817 153.778C146.783 153.669 148.752 153.594 150.718 153.519C156.011 153.318 160.329 151.033 163.848 147.17C164.224 146.757 164.353 145.725 164.108 145.223C163.688 144.36 162.909 144.89 162.335 145.275C161.593 145.772 160.888 146.324 160.178 146.864C158.276 148.308 156.063 148.945 153.76 149.261C151.866 149.522 149.941 149.81 148.04 149.745C142.43 149.554 137.35 147.702 133.48 143.567C130.529 140.415 128.761 136.454 127.823 132.188C127.658 131.437 127.598 130.654 127.574 129.883C127.522 128.24 127.26 127.768 125.657 127.387C124.759 127.173 123.785 127.109 122.87 127.211C121.893 127.32 121.467 128.158 121.386 129.07C120.96 133.876 118.999 138.165 116.353 141.996C113.714 145.817 109.855 148.256 105.156 149.024C103.193 149.345 101.204 149.753 99.2305 149.735C94.5957 149.696 90.1983 148.748 86.5404 145.544C86.1447 145.198 85.3063 145.362 84.6731 145.288C84.7671 145.894 84.6435 146.7 84.9848 147.08C88.059 150.489 91.7391 152.88 96.4234 153.248C99.4383 153.485 102.468 153.522 105.592 153.654C105.456 155.086 104.387 155.824 103.43 156.617C100.151 159.332 97.6946 162.649 96.2849 166.681C94.9642 170.455 94.9865 174.366 95.0557 178.329C95.1447 183.393 97.0392 187.854 98.9214 192.364C99.5718 193.922 100.225 194.044 102.404 192.923C102.958 194.171 103.603 195.374 104.041 196.652C105.09 199.715 105.997 202.828 107.051 205.888C107.498 207.186 108.201 208.394 108.72 209.67C108.854 209.998 108.738 210.431 108.735 210.814C108.307 210.789 107.81 210.901 107.466 210.719C105.391 209.628 103.296 208.561 101.313 207.315C98.1151 205.307 94.9419 203.248 91.8628 201.06C88.8133 198.895 85.8627 196.583 82.927 194.258C81.5618 193.177 80.7259 193.271 80.2733 194.952C79.697 197.102 79.3508 199.315 78.8116 201.478C78.5321 202.602 78.0474 203.673 77.6566 204.77C77.4414 204.794 77.2263 204.822 77.0111 204.847L77.016 204.857ZM124.106 120.955C128.968 120.955 133.828 120.955 138.691 120.95C139.096 120.95 139.524 120.96 139.908 120.848C140.511 120.672 141.186 120.364 140.887 119.585C140.716 119.143 140.214 118.603 139.789 118.529C138.191 118.245 136.566 118.049 134.944 117.982C132.775 117.895 132.587 117.693 132.5 115.461C132.297 110.108 133.017 104.735 132.038 99.4001C131.617 97.1079 130.982 94.9076 128.808 93.8062C126.995 92.8863 124.979 92.8789 122.877 93.0032C119.998 93.1722 117.95 95.1488 117.446 97.722C116.976 100.116 116.644 102.55 116.461 104.982C116.301 107.122 116.397 109.288 116.439 111.441C116.466 112.878 116.684 114.312 116.649 115.744C116.612 117.226 115.92 118.037 114.431 118.012C112.531 117.979 110.612 118.223 108.728 118.526C108.193 118.613 107.761 119.327 107.281 119.755C107.82 120.155 108.342 120.585 108.908 120.938C109.086 121.05 109.393 120.955 109.64 120.955C114.461 120.955 119.281 120.955 124.101 120.955H124.106ZM147.713 139.85C151.294 139.85 153.669 138.003 154.579 135.229C154.95 134.1 155.041 132.832 154.195 132.138C153.597 131.646 152.355 131.683 151.475 131.855C149.664 132.208 147.901 132.805 146.123 133.314C145.153 133.593 144.152 133.804 143.239 134.214C141.901 134.818 141.614 135.877 142.487 137.078C143.971 139.119 146.157 139.748 147.713 139.85ZM97.9791 131.586C96.7548 131.437 95.9065 132.725 96.317 133.784C96.5792 134.458 96.6509 135.211 96.9354 135.872C97.9494 138.249 99.8587 139.607 102.3 140.062C104.264 140.427 107.736 138.287 108.574 136.459C109.099 135.318 108.844 134.468 107.701 133.973C106.937 133.642 106.106 133.446 105.29 133.255C102.856 132.683 100.418 132.141 97.9791 131.589V131.586Z" fill="url(#paint2_linear_817_9590)"/>
<path d="M139 173.207C138.676 176.646 137.094 180.261 134.733 183.645C132.367 187.036 129.415 189.691 125.207 190.854C124.44 191.066 123.448 191.052 122.709 190.78C115.402 188.085 111.709 182.554 109.659 175.781C109.14 174.065 108.639 172.428 109.358 170.548C110.302 168.082 112.226 166.847 114.572 165.896C117.621 164.662 120.919 164.466 124.133 164.04C125.543 163.854 127.082 164.362 128.535 164.674C130.43 165.081 132.346 165.477 134.161 166.111C137.325 167.216 139.003 169.59 139 173.205V173.207Z" fill="#E56C25"/>
<path d="M118.002 202.563C118.794 202.113 119.548 201.497 120.382 201.242C122.964 200.45 125.561 199.702 128.179 199.118C130.081 198.695 131.844 199.441 133.335 200.855C134.349 201.817 134.17 203.719 133.024 204.553C131.198 205.88 129.249 206.351 127.102 205.728C124.655 205.017 122.168 204.489 119.707 203.836C119.139 203.685 118.603 203.354 118.054 203.106L118 202.566L118.002 202.563Z" fill="#F15922"/>
</g>
<defs>
<linearGradient id="paint0_linear_817_9590" x1="35.76" y1="197.658" x2="223.098" y2="45.1286" gradientUnits="userSpaceOnUse">
<stop offset="0.11" stop-color="#F0E2B4"/>
<stop offset="0.51" stop-color="#FFFFFD"/>
<stop offset="0.88" stop-color="#F1DCA7"/>
</linearGradient>
<linearGradient id="paint1_linear_817_9590" x1="125" y1="250" x2="125" y2="0" gradientUnits="userSpaceOnUse">
<stop stop-color="#DD562A"/>
<stop offset="1" stop-color="#F3911F"/>
</linearGradient>
<linearGradient id="paint2_linear_817_9590" x1="124.999" y1="44.3038" x2="124.999" y2="210.306" gradientUnits="userSpaceOnUse">
<stop stop-color="#F3911F"/>
<stop offset="1" stop-color="#DD562A"/>
</linearGradient>
<clipPath id="clip0_817_9590">
<rect width="250" height="250" rx="125" fill="white"/>
</clipPath>
</defs>
</svg>
