<svg width="250" height="250" viewBox="0 0 250 250" fill="none" xmlns="http://www.w3.org/2000/svg">
<rect width="250" height="250" rx="125" fill="white"/>
<g clip-path="url(#clip0_242_94551)">
<path d="M48.9011 107.832C47.4062 107.832 45.9179 108.032 44.4758 108.426C47.7922 109.682 50.626 111.956 52.571 114.921C54.516 117.886 55.4726 121.391 55.3035 124.933C55.1345 128.476 53.8486 131.874 51.63 134.64C49.4114 137.407 46.3741 139.4 42.9531 140.335C45.2553 141.207 47.721 141.562 50.1756 141.375C52.6302 141.188 55.0138 140.464 57.1575 139.254C59.3013 138.044 61.1528 136.377 62.581 134.372C64.0093 132.367 64.9793 130.073 65.4224 127.651C65.8656 125.23 65.771 122.741 65.1454 120.36C64.5198 117.979 63.3784 115.764 61.8022 113.874C60.2259 111.983 58.2532 110.461 56.0238 109.417C53.7944 108.374 51.3628 107.832 48.9011 107.832V107.832Z" fill="url(#paint0_linear_242_94551)"/>
<path d="M44.4769 108.429C41.1278 107.16 37.461 106.995 34.0117 107.958C30.5623 108.922 27.5111 110.962 25.3034 113.782C23.0957 116.602 21.8472 120.053 21.74 123.633C21.6328 127.212 22.6725 130.733 24.7075 133.68C26.7425 136.626 29.6662 138.846 33.0517 140.013C36.4372 141.181 40.1074 141.236 43.5264 140.17C46.9454 139.105 49.9342 136.974 52.0565 134.089C54.1789 131.205 55.3237 127.717 55.3238 124.136C55.3309 120.725 54.2959 117.393 52.3575 114.586C50.4191 111.778 47.6696 109.63 44.4769 108.429Z" fill="url(#paint1_linear_242_94551)"/>
<path d="M105.79 21.3305C48.9423 34.8026 30.3127 77.8797 25.4316 93.0288C47.4635 39.106 106.418 50.612 123.825 55.354C145.347 55.1803 162.493 64.9271 162.493 64.9271C189.507 77.2305 209.3 57.8393 209.3 57.8393C166.773 9.29404 105.79 21.3305 105.79 21.3305Z" fill="url(#paint2_linear_242_94551)"/>
<path d="M25.4297 93.0288C24.3514 96.3758 23.9434 98.3604 23.9434 98.3604H62.1915C79.5473 64.4257 103.614 55.517 123.823 55.355C106.416 50.612 47.461 39.106 25.4297 93.0288Z" fill="url(#paint3_linear_242_94551)"/>
<path d="M105.79 228.71C48.9423 215.238 30.3127 172.161 25.4316 157.012C47.4635 210.935 106.418 199.429 123.825 194.687C145.347 194.86 162.493 185.113 162.493 185.113C189.507 172.81 209.3 192.201 209.3 192.201C166.773 240.747 105.79 228.71 105.79 228.71Z" fill="url(#paint4_linear_242_94551)"/>
<path d="M25.4297 157.011C24.3514 153.664 23.9434 151.68 23.9434 151.68H62.1915C79.5473 185.614 103.614 194.523 123.823 194.686C106.416 199.428 47.461 210.934 25.4297 157.011Z" fill="url(#paint5_linear_242_94551)"/>
</g>
<defs>
<linearGradient id="paint0_linear_242_94551" x1="54.4838" y1="138.365" x2="53.7206" y2="109.618" gradientUnits="userSpaceOnUse">
<stop stop-color="#FF5B36"/>
<stop offset="0.03" stop-color="#FE6631"/>
<stop offset="0.147" stop-color="#FB8C20"/>
<stop offset="0.255" stop-color="#F9A714"/>
<stop offset="0.351" stop-color="#F7B80D"/>
<stop offset="0.423" stop-color="#F7BE0A"/>
<stop offset="0.504" stop-color="#F7C009"/>
<stop offset="1" stop-color="#F7C208"/>
</linearGradient>
<linearGradient id="paint1_linear_242_94551" x1="24.484" y1="130.517" x2="46.8706" y2="120.342" gradientUnits="userSpaceOnUse">
<stop stop-color="#1368FF"/>
<stop offset="1" stop-color="#6902DC"/>
</linearGradient>
<linearGradient id="paint2_linear_242_94551" x1="117.935" y1="96.8805" x2="115.898" y2="20.1521" gradientUnits="userSpaceOnUse">
<stop offset="0.366" stop-color="#0B7FFF"/>
<stop offset="0.931" stop-color="#01BDFF"/>
<stop offset="1" stop-color="#00C5FF"/>
</linearGradient>
<linearGradient id="paint3_linear_242_94551" x1="73.3015" y1="134.161" x2="74.104" y2="55.1246" gradientUnits="userSpaceOnUse">
<stop stop-color="#0071FF"/>
<stop offset="0.292" stop-color="#224FF2"/>
<stop offset="1" stop-color="#7100D5"/>
</linearGradient>
<linearGradient id="paint4_linear_242_94551" x1="117.935" y1="153.16" x2="115.898" y2="229.888" gradientUnits="userSpaceOnUse">
<stop offset="0.366" stop-color="#0B7FFF"/>
<stop offset="0.931" stop-color="#01BDFF"/>
<stop offset="1" stop-color="#00C5FF"/>
</linearGradient>
<linearGradient id="paint5_linear_242_94551" x1="73.3015" y1="115.879" x2="74.104" y2="194.915" gradientUnits="userSpaceOnUse">
<stop stop-color="#0071FF"/>
<stop offset="0.292" stop-color="#224FF2"/>
<stop offset="1" stop-color="#7100D5"/>
</linearGradient>
<clipPath id="clip0_242_94551">
<rect width="210.027" height="210.028" fill="white" transform="translate(10.502 20.0039)"/>
</clipPath>
</defs>
</svg>
