<svg width="250" height="250" viewBox="0 0 250 250" fill="none" xmlns="http://www.w3.org/2000/svg">
<path d="M125.001 249.548C193.595 249.548 249.201 193.942 249.201 125.348C249.201 56.7547 193.595 1.14844 125.001 1.14844C56.407 1.14844 0.800781 56.7547 0.800781 125.348C0.800781 193.942 56.407 249.548 125.001 249.548Z" fill="url(#paint0_linear_242_93351)"/>
<path d="M104.25 138.8C107.95 143.75 111.05 147.85 114.3 152.15C113.5 153.35 112.85 154.45 112.05 155.5C106.75 162.75 101.05 169.8 96.1502 177.3C88.2502 189.45 89.3502 204.5 98.3002 215.5C107.45 226.75 122.2 230.95 135.5 226.1C149.1 221.15 157.95 208.4 157.7 194.05C157.55 186.95 154.95 180.7 150.8 175.1C135.55 154.6 120.15 134.15 104.85 113.7C98.2502 104.95 91.6002 96.2497 85.0002 87.4497C63.7002 58.8997 77.3502 19.1498 111.75 9.69976C143 1.19976 174.7 26.2998 173.5 58.6498C173.15 68.7498 170.3 77.9498 164.2 86.0997C158.05 94.2998 151.95 102.5 145.8 110.7C145.3 111.35 144.7 111.9 143.85 112.85C140.55 108.5 137.4 104.35 134.1 99.9497C139.05 93.4497 143.75 86.9997 148.65 80.7497C153.9 74.0998 157.8 66.9998 157.9 58.2498C158.05 43.2498 148.85 30.1998 134.8 25.5998C121.15 21.0998 105.85 26.0498 97.4502 37.6498C88.6502 49.7498 88.7002 65.5498 97.7502 77.5997C109.1 92.7497 120.6 107.85 131.95 123C142.4 136.9 152.75 150.9 163.15 164.8C186.35 195.8 168.4 234.4 136.6 242.65C117.7 247.55 96.9502 240.5 85.0502 224.85C72.9002 208.85 71.0502 187.4 81.5002 170.65C88.1502 159.8 96.2502 149.85 104.25 138.8Z" fill="white"/>
<defs>
<linearGradient id="paint0_linear_242_93351" x1="0.782731" y1="125.342" x2="249.185" y2="125.342" gradientUnits="userSpaceOnUse">
<stop stop-color="#D69AC5"/>
<stop offset="1" stop-color="#253E90"/>
</linearGradient>
</defs>
</svg>
