<svg width="250" height="250" viewBox="0 0 250 250" fill="none" xmlns="http://www.w3.org/2000/svg">
<g clip-path="url(#clip0_915_3099)">
<rect width="250" height="250" rx="125" fill="#745833"/>
<ellipse cx="123.5" cy="188" rx="150.5" ry="27" fill="url(#paint0_radial_915_3099)"/>
<path d="M218.286 90.4794C213.084 29.3128 144.165 28.6874 98.8384 43.5735C46.2069 55.2002 30.4589 100.985 28.0359 149.709C23.7163 182.278 35.8413 194.042 68.2272 191.942C86.4744 191.392 105.99 192.989 124.088 189.664C137.936 187.075 147.443 187.047 160.913 189.272C190.143 192.346 208.014 172.644 212.443 145.137C216.232 127.238 220.076 108.833 218.288 90.4845L218.286 90.4794Z" fill="#EEB435"/>
<path d="M29.6836 167.233C27.3572 160.836 31.0387 152.685 30.9879 145.825C33.0218 135.083 31.9693 123.022 36.3016 113.009C42.0069 106.447 51.6428 110.096 58.8711 106.803C74.1258 104.985 88.9611 109.969 104.213 107.083C108.106 107.523 116.964 106.455 107.953 104.05C104.625 102.481 77.9599 106.124 93.4994 100.206C102.103 98.1005 109.598 102.115 117.714 103.015C120.709 102.519 139.142 97.1801 129.051 104.19C129.913 106.89 136.981 103.468 139.76 103.918C148.605 102.001 157.974 102.908 166.717 101.764C155.149 94.9885 143.855 103.651 139.876 100.551C143.192 94.3249 148.849 92.0138 155.988 92.6494C162.718 91.3756 168.184 92.6291 171.357 98.8479C174.464 102.041 179.043 100.068 182.699 99.1734C191.046 99.5929 198.747 97.6682 206.962 96.8419C218.085 94.2817 218.543 103.157 216.013 111.476C211.345 120.741 212.705 169.495 199.093 163.231C181.672 163.241 164.437 161.202 147.267 157.823C144.066 156.768 143.7 160.058 141.321 160.62C131.837 158.324 122.135 160.373 112.619 161.515C98.2945 165.931 83.2101 160.159 68.6316 160.579C55.8074 163.373 41.4094 162.359 29.6887 167.23L29.6836 167.233ZM116.529 106.674C117.414 107.736 124.878 108.286 124.685 105.949C123.117 104.617 117.63 104.935 116.529 106.674Z" fill="#FADAB3"/>
<path d="M188.832 99.5569C182.178 92.3592 204.425 100.457 191.217 86.6234C183.236 74.6916 175.964 80.2571 165.456 76.8603C163.026 75.6374 161.238 77.59 159.08 78.3655C141.036 79.6774 122.176 77.7909 104.567 84.2386C96.1361 87.9531 99.9574 73.8018 93.1004 75.5027C92.0046 75.7493 89.8613 75.6476 90.6393 74.1068C94.636 67.7329 90.4689 69.8126 87.6061 73.4865C85.3942 74.717 82.2568 74.7781 79.783 75.7239C67.4622 81.48 71.1996 81.7775 60.6992 74.6052C53.71 76.5985 53.2117 70.6669 57.0991 66.2532C68.3622 54.1587 84.6518 48.25 100.349 43.9431C110.954 43.0354 89.4723 48.9288 87.8324 50.5891C83.6526 52.0866 82.4348 57.6749 88.2519 55.1146C99.2532 44.5405 92.3453 54.2044 98.5235 52.1705C99.4871 56.9147 98.7396 58.6131 104.254 61.8242C108.993 66.9829 113.694 64.5192 118.652 61.3462C124.884 61.186 126.735 63.8506 130.482 56.9961C136.088 45.677 140.477 67.7583 144.405 53.6756C144.916 52.3001 145.345 49.1627 146.767 50.167C150.756 52.862 148.773 61.1377 153.644 62.1649C164.722 61.72 162.347 67.1227 177.045 63.0471C187.118 62.6073 191.878 72.3195 197.158 79.1943C198.524 81.4698 199.111 84.2665 202.06 84.0835C207.516 82.5758 207.712 84.953 210.898 88.0751C214.312 87.8768 213.133 82.8555 212.787 80.5469C212.461 76.4739 208.854 59.9885 213.374 72.2076C214.808 76.7103 214.717 81.6275 216.349 86.0539C217.834 89.2574 219.512 92.4736 215.278 94.1618C212.52 97.6272 209.7 97.2204 205.742 96.6051C200.512 98.2018 194.336 99.9129 188.829 99.562L188.832 99.5569ZM174.851 66.2074C174.185 62.503 171.258 66.6803 171.889 68.6863C172.695 72.4034 175.453 68.1397 174.851 66.2074ZM178.634 64.3107C176.582 64.6489 177.292 68.3939 179.005 68.5007C181.222 68.3583 180.719 64.209 178.634 64.3107ZM100.113 64.5955C101.272 64.1455 100.779 61.7962 99.4591 62.0352C97.9997 62.409 98.7523 64.9514 100.113 64.5955Z" fill="#EEB435"/>
<path d="M53.8691 70.2723C56.6963 76.1734 60.3676 71.0554 64.0186 74.7166C67.067 80.6507 72.9986 79.0667 77.3818 75.6242C82.126 73.1962 87.3813 71.9529 92.2476 74.2666C94.9222 74.1776 96.5342 72.8911 97.5867 76.2878C98.4385 78.9193 98.4436 83.3482 101.878 83.7321C112.015 81.4083 122.205 77.8107 132.853 78.726C137.079 79.2091 140.798 76.2675 144.935 76.8497C147.973 77.7472 151.032 78.1642 154.205 77.7167C157.431 77.8819 160.037 77.1624 162.626 75.4437C164.593 74.4979 166.429 76.1276 168.244 76.7531C172.678 77.7345 177.682 75.5225 182.091 77.8845C186.588 78.8608 201.985 94.5605 192.121 95.5927C188.231 94.0062 187.999 98.3132 185.307 99.5869C177.748 102.531 172.02 102.818 168.084 94.8249C159.168 90.4798 147.348 95.2876 137.442 92.3638C133.224 93.0808 129.248 94.6673 124.875 94.5402C119.249 95.219 115.526 100.731 109.714 100.873C103.823 101.44 95.5197 99.8488 90.1424 102.236C83.41 108.707 107.912 102.262 110.942 106.274C115.381 110.347 98.1664 107.603 95.8706 108.943C88.5788 110.822 79.1259 109.925 72.6579 106.391C66.2204 103.068 58.8549 108.361 52.5597 109.942C48.8274 110.486 44.7518 109.579 41.1822 111.196C38.8177 113.021 32.4183 114.043 37.0863 109.688C42.4916 108.3 48.0723 107.489 53.2741 105.196C64.4305 104.771 74.5368 99.7039 85.5939 98.4174C90.0712 98.2878 94.968 96.2334 96.5087 91.7587C97.5918 86.4373 91.3755 88.812 89.0771 90.9349C80.9158 93.9732 66.8941 101.273 61.3795 90.8765C59.4091 83.7398 46.5646 86.5797 48.9977 77.5107C49.4554 74.9479 50.7749 70.1045 53.8691 70.2749V70.2723Z" fill="#F8CF7C"/>
<path d="M210.274 65.7479C210.765 72.6329 215.707 83.1333 211.7 88.892C209.033 89.7132 209.341 84.402 206.066 84.4172C201.851 85.2944 198.726 84.8545 197.394 80.2679C194.974 75.989 190.43 72.488 189.756 67.4564C183.449 62.6817 174.669 63.0707 167.373 65.2547C164.51 65.2292 161.601 64.0012 159.211 62.669C156.709 61.0698 154.136 63.63 151.856 62.041C149.08 59.1858 150.709 54.795 150.681 51.1643C151.042 48.1769 148.828 44.4751 145.52 45.9675C143.003 48.4261 145.97 53.0966 143.417 56.1272C140.796 62.2597 139.085 57.5536 136.293 54.6145C130.497 50.8669 130.624 63.3249 119.058 61.563C115.133 62.5469 111.479 67.937 107.322 64.5377C104.538 62.252 100.239 60.3808 98.871 56.9637C98.154 54.195 100.213 51.6881 96.2192 50.4931C92.0419 49.3872 90.6639 53.8594 87.7833 55.5806C86.2781 56.6611 82.6551 56.0738 84.0891 53.6305C85.0272 51.022 107.309 40.8521 104.975 47.6532C104.668 49.5499 102.031 52.8144 102.87 54.589C104.594 56.0891 108.621 56.9205 107.294 53.3814C106.971 51.2304 108.598 49.6592 109.659 47.9761C110.953 44.9658 111.863 41.414 115.852 41.3555C121.105 41.0148 129.569 35.9121 132.935 41.9454C132.566 43.6641 130.26 51.3576 133.293 50.9508C136.332 50.2084 135.683 46.6871 134.872 44.4599C134.137 31.0763 150.686 39.0876 158.321 39.0648C163.165 38.4164 166.5 36.9367 170.94 40.2495C177.733 41.3377 177.71 39.0012 182.088 44.9048C186.677 45.8404 191.89 45.7692 196.316 47.4549C201.213 49.9719 199.969 51.833 202.499 55.2908C206.125 58.0214 209.595 60.8638 210.272 65.753L210.274 65.7479ZM118.331 46.5727C118.359 44.348 116.493 43.4047 114.947 44.9607C112.875 46.5549 114.772 52.3898 117.426 49.8041C118.072 48.9626 118.367 47.6507 118.331 46.5727ZM187.227 57.4264C186.995 54.1187 183.662 54.35 183.738 57.7036C183.982 61.0113 187.313 60.6579 187.227 57.4264ZM195.622 56.6434C195.52 54.3094 191.3 54.2153 191.419 56.6993C191.709 59.1223 195.546 59.2265 195.622 56.6434ZM196.776 65.2852C196.789 61.5706 192.94 63.4292 193.692 66.292C194.216 68.954 197.058 67.5022 196.776 65.2852ZM124.761 48.5787C126.403 48.7414 128.953 44.2692 126.899 43.4302C125.081 43.2929 123.396 47.5184 124.761 48.5787ZM159.486 52.639C159.56 51.1109 157.876 49.8626 156.88 51.3906C155.263 53.8161 159.326 56.1069 159.486 52.639ZM177.003 51.1923C175.374 51.3169 175.661 54.2763 176.965 54.5509C178.684 54.6831 178.542 51.3016 177.003 51.1923Z" fill="#DD9313"/>
<path d="M49.1747 74.5752C46.6449 88.6732 56.3698 81.661 61.3912 90.158C63.6031 96.8243 72.7153 97.3328 78.207 94.7598C84.3598 93.5827 89.7397 90.5266 95.2924 88.2765C102.518 91.4673 91.0745 99.2218 86.4167 98.1972C75.1891 99.349 64.8947 104.548 53.568 104.79C48.5263 106.084 33.7572 113.701 36.1954 103.137C38.1404 93.1657 41.3693 81.2492 49.1721 74.5752H49.1747Z" fill="#FADAB3"/>
<path d="M28.7305 168.381C32.862 163.748 39.1673 162.658 45.1421 162.943C56.1586 163.227 67.6531 157.802 78.4179 160.494C64.3962 165.289 48.1905 162.015 34.3875 167.153C24.3752 171.322 35.9714 177.956 41.4199 179.334C45.3989 182.55 49.4821 184.098 54.5568 182.911C58.5841 183.455 69.7709 178.828 65.7894 186.313C78.0822 193.414 46.6701 194.431 44.6743 189.077C45.4828 185.858 54.0153 193.302 57.7781 190.282C65.5708 183.244 41.5038 184.091 39.6987 188.451C38.458 189.267 40.9903 189.435 40.2326 189.903C37.9673 190.335 34.3214 189.483 33.64 187.035C32.7883 183.999 38.3512 184.269 37.474 182.38C35.5112 180.76 31.9696 179.908 30.3678 177.839C29.1169 176.74 28.9263 179.662 27.861 179.166C25.5397 176.199 26.1931 171.056 28.733 168.381H28.7305Z" fill="#F8CF7C"/>
<path d="M187.61 162.957C192.377 160.494 199.72 163.906 204.906 163.634C210.713 169.344 189.344 189.427 183.145 187.484C181.399 186.793 180.336 185.051 178.805 184.022C175.37 182.598 165.475 180.472 173.555 176.87C181.64 176.526 181.437 183.447 189.56 178.309C193.183 176.758 190.409 174.648 189.217 172.509C188.215 169.723 186.728 165.769 187.612 162.957H187.61Z" fill="#DD9313"/>
<path d="M170.143 178.902C172.528 182.093 177.056 181.894 180.132 183.857C185.156 188.591 176.27 188.307 173.257 188.383C165.976 187.396 141.131 192.878 139.977 183.989C146.732 173.713 160.123 188.436 167.405 182.924C168.012 181.152 166.855 176.461 170.143 178.902ZM147.973 186.331C151.469 185.378 146.462 181.439 145.636 184.424C145.377 185.675 146.849 186.567 147.973 186.331Z" fill="#EEB435"/>
<path d="M68.4855 190.442C66.1744 185.916 69.9423 187.699 72.1746 189.255C78.2256 190.327 83.8165 185.357 89.8777 188.316C101.001 185.853 114.41 175.94 125.686 182.036C123.657 186.737 115.824 183.318 111.921 184.973C107.324 188.222 102.366 188.71 96.9 188.815C87.7624 190.012 77.3383 193.612 68.4855 190.442Z" fill="#EEB435"/>
<path d="M94.4043 189.397C100.359 188.212 106.598 188.21 112.1 184.734C116.831 183.883 121.199 185.739 125.679 182.738C131.306 177.562 140.031 181.826 129.872 185.759C126.701 187.745 119.648 186.616 117.559 188.985C118.576 189.921 120.909 190.574 118.189 191.223C110.511 191.492 101.963 190.045 94.4043 189.397Z" fill="#DD9313"/>
<path d="M192.846 46.3934C192.07 48.0079 182.796 45.9281 181.496 44.9976C180.5 40.5025 176.063 41.3034 172.293 41.1356C164.401 37.7567 165.492 38.1558 157.46 39.572C152.555 37.7567 145.66 40.1364 141.615 36.2871C150.567 38.1253 160.539 35.5345 169.92 36.5286C176.778 38.3694 188.008 41.6695 192.848 46.3934H192.846Z" fill="#F8CF7C"/>
<path d="M106.108 47.5778C102.05 39.3098 121.383 38.5063 126.639 37.8555C130.157 40.7742 112.294 41.6387 110.186 43.3141C108.368 44.0565 108.49 48.6991 106.111 47.5804L106.108 47.5778Z" fill="#F8CF7C"/>
<path d="M171.352 188.713C179.274 186.918 188.272 189.982 194.264 181.816C195.612 180.867 196.326 181.205 195.586 182.586C191.015 190.165 178.847 192.168 171.352 188.713Z" fill="#F8CF7C"/>
<path d="M127.471 187.036C129.06 183.525 140.985 181.061 136.172 187.407C134.077 189.22 126.752 191.836 127.471 187.036Z" fill="#F8CF7C"/>
<path d="M213.244 96.1249C212.486 92.6799 217.093 90.3128 218.397 94.1011C220.083 98.7385 214.558 101.278 213.244 96.1249Z" fill="#DD9313"/>
<path d="M127.47 186.92C134.197 192.322 110.374 190.522 117.539 187.726C120.651 187.565 124.566 185.816 127.47 186.92Z" fill="#EEB435"/>
<path d="M136.887 185.601C135.947 181.713 141.487 177.681 144.53 180.587C144.578 181.619 142.082 182.324 141.39 183.066C140.259 184.304 138.492 188.781 136.887 185.601Z" fill="#DD9313"/>
<path d="M79.6623 51.072C80.1097 52.3534 66.3957 60.6495 69.6068 55.2213C70.7204 53.9069 78.3529 49.6788 79.6623 51.072Z" fill="#FADAB3"/>
<path d="M29.3415 181.121C31.2535 178.812 38.1181 181.469 34.8282 184.611C32.7535 186.302 28.8356 183.465 29.3415 181.121Z" fill="#DD9313"/>
<path d="M45.6701 186.276C46.8066 191.381 35.6147 190.285 38.9402 188.546C40.964 188.203 44.9379 182.287 45.6701 186.276Z" fill="#DD9313"/>
<path d="M135.802 38.7688C137.073 41.6062 133.376 44.1665 132.148 40.7316C131.64 38.9595 134.96 36.3433 135.802 38.7688Z" fill="#EEB435"/>
<path d="M133.785 38.1386C133.909 39.8827 130.543 40.826 129.399 39.5166C127.993 37.2106 132.979 36.486 133.785 38.1386Z" fill="#F8CF7C"/>
<path d="M120.621 190.089C121.302 189.792 125.055 188.767 124.72 190.137C123.713 192.22 115.221 192.227 120.621 190.089Z" fill="#F8CF7C"/>
<path d="M138.824 186.877C139.195 185.695 142.937 186.483 142.698 187.917C142.231 188.855 138.697 187.907 138.824 186.877Z" fill="#F8CF7C"/>
<path d="M135.649 38.6558C134.53 37.0413 138.079 35.5108 138.539 37.3185C138.672 38.4804 136.429 39.3346 135.649 38.6558Z" fill="#F8CF7C"/>
<path d="M88.326 191.012C88.1404 189.441 91.3846 188.81 92.1499 189.87C92.6228 191.002 88.7633 191.83 88.326 191.012Z" fill="#F8CF7C"/>
<path d="M81.5703 191.337C81.7 190.096 84.9823 189.273 85.4832 190.89C85.6815 192.067 81.8856 192.067 81.5703 191.337Z" fill="#F8CF7C"/>
<path d="M129.203 37.9552C129.515 38.306 129.576 39.2467 129.007 39.3764C127.504 39.3637 127.789 36.9407 129.203 37.9552Z" fill="#EEB435"/>
<path d="M30.2683 183.158C30.8962 182.846 31.687 184.063 31.003 184.435C30.2657 184.783 29.5589 183.641 30.2683 183.158Z" fill="#F8CF7C"/>
<path d="M69.141 57.5119C69.5249 58.1577 68.3604 58.9637 67.7604 58.6738C66.9545 58.0738 68.6096 56.9017 69.141 57.5119Z" fill="#FADAB3"/>
<path d="M168.105 188.434C168.214 187.803 169.485 187.78 169.599 188.434C169.615 189.232 168.059 189.148 168.105 188.434Z" fill="#F8CF7C"/>
<path d="M32.1758 184.801C32.5877 185.144 32.9182 185.424 32.1758 184.801V184.801Z" fill="#F8CF7C"/>
<path d="M205.772 163.029C204.898 163.372 205.729 162.081 206.019 162.434C206.059 162.637 205.955 162.922 205.772 163.029Z" fill="#F8CF7C"/>
<path d="M112.424 191.301C112.5 191.103 112.899 191.077 113.067 191.194C113.461 191.453 112.465 191.469 112.424 191.301Z" fill="#F8CF7C"/>
<path d="M43.5145 165.223C63.4449 164.122 82.9939 158.631 103.115 162.671C110.765 161.76 145.015 153.574 146.139 163.461C141.941 170.234 124.703 171.536 117.048 173.339C111.658 171.414 111.2 171.795 105.688 172.868C96.3444 173.181 87.7687 172.917 79.0734 177.051C69.979 176.491 56.0362 181.612 49.3698 175.505C44.4476 172.37 30.5887 170.804 43.5145 165.226V165.223Z" fill="#F9E9CA"/>
<path d="M109.721 101.254C111.895 99.2885 115.92 98.4597 118.368 96.3774C123.644 92.9654 127.862 94.3231 133.641 93.9189C136.994 92.9553 146.656 90.0238 144.8 96.5808C141.843 98.8385 138.98 102.652 135.296 103.451C132.809 103.255 132.776 100.438 129.586 100.88C123.751 101.396 113.71 107.394 109.719 101.254H109.721Z" fill="#F9E9CA"/>
<path d="M131.563 103.986C143.376 101.799 157.435 96.2872 168.233 102.117C158.285 103.409 147.619 102.605 137.525 104.616C134.296 105.811 120.237 106.053 131.563 103.988V103.986Z" fill="#F8CF7C"/>
<path d="M144.589 158.844C136.359 153.894 160.238 159.551 162.21 159.869C165.035 160.433 169.505 159.139 171.468 161.575C169.21 164.88 149.735 159.281 144.591 158.844H144.589Z" fill="#F8CF7C"/>
<path d="M171.415 162.485C171.936 158.33 179.914 162.881 183.044 161.931C184.173 161.694 188.129 163.459 185.8 164.305C181.539 162.503 174.326 166.403 171.412 162.485H171.415Z" fill="#EEB435"/>
<path d="M116.525 106.655C117.687 104.949 123.1 104.611 124.684 105.948C124.89 108.28 117.372 107.758 116.525 106.655Z" fill="#F8CF7C"/>
<path d="M66.9897 105.486C68.4745 102.532 76.8493 104.426 71.3042 106.722C70.3076 106.976 66.349 106.829 66.9897 105.486Z" fill="#DD9313"/>
<path d="M66.9044 105.684C67.5705 106.698 62.211 106.764 61.3186 106.726C55.3133 105.811 65.8035 104.026 66.9044 105.684Z" fill="#EEB435"/>
<path d="M199.712 163.189C199.245 164.209 194.846 163.568 195.39 162.195C196.171 161.051 199.949 161.381 199.712 163.189Z" fill="#F8CF7C"/>
<path d="M203.807 96.9647C202.879 95.0451 206.964 94.679 207.468 96.1333C208.017 97.7478 204.478 97.7884 203.807 96.9647Z" fill="#DD9313"/>
<path d="M192.027 99.2694C192.16 98.4049 197.832 97.4642 198.162 98.6083C198.137 100.195 192.266 100.174 192.027 99.2694Z" fill="#F8CF7C"/>
<path d="M188.064 99.4135C188.184 99.1364 189.038 99.144 189.041 99.4339C188.807 99.5305 188.25 99.5711 188.064 99.4135Z" fill="#F8CF7C"/>
<path d="M144.523 48.5289C141.571 45.4347 149.132 42.9202 150.729 48.1501C152.27 50.5807 150.129 57.664 147.942 52.5333C147.391 50.7129 145.847 49.6883 144.523 48.5289Z" fill="#F8CF7C"/>
<path d="M90.3817 73.2337C89.0189 71.8354 90.819 67.6606 92.975 68.8302C94.981 70.2565 92.4411 74.6702 90.3817 73.2337Z" fill="#F8CF7C"/>
<path d="M174.856 66.2631C174.97 67.3233 174.622 68.831 173.928 69.6395C169.537 72.4921 173.274 60.4002 174.856 66.2631Z" fill="#F8CF7C"/>
<path d="M178.674 64.3089C180.728 64.2707 181.204 68.359 179.004 68.5014C177.273 68.3971 176.579 64.5834 178.674 64.3089Z" fill="#F8CF7C"/>
<path d="M125.085 60.2379C126.275 58.1861 127.574 60.9371 127.051 62.3837C126.138 65.4372 123.918 61.8168 125.085 60.2379Z" fill="#F8CF7C"/>
<path d="M97.8576 51.0367C99.8433 52.2418 97.2703 54.6826 95.6686 53.5079C93.4516 52.0587 96.2152 50.2104 97.8576 51.0367Z" fill="#F8CF7C"/>
<path d="M187.516 65.7888C188.718 64.5938 190.963 66.2998 190.033 67.7312C188.82 69.0889 185.863 67.4592 187.516 65.7888Z" fill="#F8CF7C"/>
<path d="M100.074 64.6078C98.7289 64.89 98.0195 62.4061 99.4611 62.0349C100.796 61.7908 101.284 64.2061 100.074 64.6078Z" fill="#DD9313"/>
<path d="M137.984 92.6021C137.28 94.1556 133.585 94.8217 131.935 94.1124C131.699 92.3988 137.005 91.7275 137.984 92.6021Z" fill="#FADAB3"/>
<path d="M106.427 48.1514C108.951 47.4167 109.066 43.1072 111.006 42.5479C114.41 46.7582 106.18 50.1396 107.917 54.5559C109.406 58.4332 106.058 56.1805 103.838 55.9593C100.51 54.8025 104.505 49.321 106.427 48.1514Z" fill="#EEB435"/>
<path d="M118.331 46.6314C118.638 48.8103 116.396 52.2426 114.593 49.3772C112.086 46.2398 117.858 41.1625 118.331 46.6314Z" fill="#EEB435"/>
<path d="M133.533 48.5089C130.993 47.8835 130.64 41.7866 133.82 42.4934C135.488 43.752 137.611 49.1547 133.533 48.5089Z" fill="#EEB435"/>
<path d="M187.228 57.4854C187.251 60.7093 183.977 60.9584 183.738 57.7041C183.664 54.2946 187.061 54.1599 187.228 57.4854Z" fill="#F8CF7C"/>
<path d="M195.622 56.6901C195.479 59.2427 191.706 59.0952 191.416 56.7002C191.299 54.1934 195.581 54.3205 195.622 56.6901Z" fill="#F8CF7C"/>
<path d="M196.774 65.3446C196.759 66.3006 196.372 67.3913 195.498 67.732C190.774 67.6862 196.171 59.1334 196.774 65.3446Z" fill="#F8CF7C"/>
<path d="M124.73 48.5762C123.428 47.4677 125.068 43.3108 126.893 43.4354C128.95 44.2718 126.387 48.7923 124.73 48.5762Z" fill="#EEB435"/>
<path d="M159.483 52.6959C159.249 56.1206 155.275 53.7637 156.874 51.3916C157.889 49.8382 159.597 51.1552 159.483 52.6959Z" fill="#F8CF7C"/>
<path d="M133.321 48.661C135.131 46.0652 137.399 48.4831 135.586 50.7713C133.961 53.151 131.365 50.6671 133.321 48.661Z" fill="#F8CF7C"/>
<path d="M177.033 51.1914C178.549 51.3516 178.671 54.6644 176.96 54.55C175.643 54.2729 175.378 51.2651 177.033 51.1914Z" fill="#EEB435"/>
<path d="M132.343 49.7223C133.589 50.6859 131.784 52.9945 130.899 51.2783C130.581 50.5003 131.525 49.2367 132.343 49.7223Z" fill="#EEB435"/>
<path d="M41.6486 164.666C36.5001 168.579 37.0544 171.859 44.458 172.815C50.4786 173.997 51.7651 179.758 58.6526 178.413C65.1359 177.045 71.7641 177.638 78.255 177.142C80.65 177.673 88.1274 172.37 87.235 176.974C85.8849 179.074 83.167 178.792 80.8992 179.423C77.8787 181.052 75.0134 181.253 71.8226 181.635C70.1954 182.817 70.4903 185.565 68.7792 186.781C62.5782 189.587 66.8266 185.067 66.3766 182.776C59.217 180.704 50.0057 186.864 43.6012 181.177C40.1358 177.689 34.5246 178.134 31.6059 173.895C26.1676 168.345 37.6442 164.122 41.6461 164.669L41.6486 164.666Z" fill="#FADAB3"/>
<path d="M45.3438 186.803C47.1642 184.014 53.3271 185.502 56.5408 185.245C68.4954 190.556 47.8506 193.627 45.3438 186.803Z" fill="#EEB435"/>
<path d="M35.5411 183.564C30.2401 178.599 43.0643 181.441 38.4192 183.958C37.4937 184.256 36.3217 184.121 35.5411 183.564Z" fill="#EEB435"/>
<path d="M32.3356 180.621C29.9584 183.108 28.1508 175.986 30.622 176.398C31.6466 177.107 33.1009 179.447 32.3356 180.621Z" fill="#EEB435"/>
<path d="M62.9782 163.472C62.9502 165.028 59.856 164.946 59.2103 164.054C58.5035 162.892 62.7417 162.633 62.9782 163.472Z" fill="#FADAB3"/>
<path d="M56.0114 164.165C56.2784 165.586 53.6113 165.769 53.0393 164.834C52.4647 163.756 55.6809 163.438 56.0114 164.165Z" fill="#FADAB3"/>
<path d="M69.7889 186.292C67.2363 178.482 82.0995 181.388 86.1573 176.926C89.3456 174.218 90.8634 179.611 98.3433 176.908C102.902 175.154 106.337 175.904 110.987 176.428C115.772 176.646 119.942 173.679 124.849 175.182C130.47 174.462 135.873 175.896 141.26 174.157C151.275 178.698 163.382 173.422 173.529 170.682C176.877 168.592 173.88 163.741 179.466 163.148C182.311 162.841 186.109 163.148 187.5 165.993C188.212 171.94 185.86 175.828 180.076 177.386C177.602 177.846 175.052 175.863 172.54 177.376C162.291 182.336 164.343 178.655 154.524 179.311C149.983 179.212 146.048 181.383 141.708 179.473C133.061 181.497 124.048 180.585 115.241 180.635C103.96 181.068 94.6441 190.279 83.4954 187.482C79.2418 188.281 71.7034 192.585 69.794 186.292H69.7889ZM76.8138 184.543C75.4103 180.76 71.8534 188.057 75.8044 186.745C76.5163 186.341 76.946 185.336 76.8138 184.543Z" fill="#F8CF7C"/>
<path d="M180.476 177.213C180.957 175.639 183.349 175.886 184.615 175.166C187.875 173.071 185.058 162.896 189.954 172.52C194.569 177.053 191.818 178.474 186.723 180.175C183.789 182.585 179.965 181.327 180.476 177.213Z" fill="#EEB435"/>
<path d="M187.8 166.147C187.177 166.5 186.302 165.285 186.885 164.814C187.518 164.374 188.438 165.633 187.8 166.147Z" fill="#EEB435"/>
<path d="M163.61 181.261C165.037 181.958 166.438 181.175 167.826 181.147C169.278 182.207 167.841 184.808 166.27 184.991C161.035 184.173 153.972 182.937 149.383 180.486C149.759 176.555 160.694 180.631 163.61 181.264V181.261Z" fill="#DD9313"/>
<path d="M147.921 186.338C145.905 186.852 144.499 183.702 146.919 183.338C148.767 183.132 150.359 185.901 147.921 186.338Z" fill="#DD9313"/>
<path d="M134.384 180.508C135.884 178.853 138.884 181.464 137.57 183.228C135.981 185.072 132.841 182.326 134.384 180.508Z" fill="#EEB435"/>
<path d="M137.124 185.604C137.734 186.265 135.901 186.227 136.305 185.772C136.519 185.65 136.892 185.454 137.124 185.604Z" fill="#EEB435"/>
<path d="M139.514 179.662C139.788 178.302 143.129 178.172 143.396 179.436C143.335 180.163 139.715 180.216 139.514 179.662Z" fill="#EEB435"/>
<path d="M174.953 164.094C179.127 173.25 163.796 173.613 157.992 175.36C151.682 175.752 146.083 178.426 140.469 174.465C137.095 175.848 134.235 176.395 130.521 175.286C127.676 175.886 115.553 176.161 122.972 171.89C130.31 170.128 139.058 169.573 144.934 164.458C145.89 162.668 146.447 155.615 148.877 160.553C147.441 168.76 150.81 171.307 159.014 170.702C167.244 169.017 157.153 155.295 174.95 164.094H174.953Z" fill="#FADAB3"/>
<path d="M118.468 174.439C115.282 179.699 106.859 174.571 101.822 176.158C98.3494 176.849 95.2425 178.876 91.5127 177.818C88.8584 177.574 85.2862 174.076 89.433 172.814C97.4239 174.487 115.625 168.683 118.47 174.442L118.468 174.439Z" fill="#FADAB3"/>
<path d="M162.208 162.605C165.64 169.434 158.796 172.479 152.918 170.412C142.694 168.739 149.188 153.927 162.208 162.605Z" fill="#F9E9CA"/>
<path d="M163.499 180.363C162.639 181.342 157.117 181.012 157.463 179.222C159.065 178.403 162.838 178.734 163.499 180.363Z" fill="#EEB435"/>
<path d="M76.8233 184.595C76.9351 185.373 76.5055 186.354 75.8063 186.746C71.7968 188.042 75.5012 180.695 76.8233 184.595Z" fill="#EEB435"/>
<path d="M165.511 181.647C165.91 182.006 165.508 182.802 164.984 182.718C163.856 182.436 164.6 180.903 165.511 181.647Z" fill="#EEB435"/>
<path d="M244.914 143.355C258.031 102.48 217.893 88.7097 184.864 97.3694C176.461 98.9101 168.683 99.6245 159.714 99.7313C143.094 100.105 126.684 103.324 110.146 104.615C80.1066 107.816 47.3367 100.047 20.0256 115.721C-3.60914 130.327 0.547783 172.09 33.1396 168.248C69.0977 164.595 105.488 158.996 141.726 161.546C154.878 162.99 168.18 164.127 181.419 164.976C203.775 166.158 237.65 171.07 244.917 143.355H244.914Z" fill="#B83E25"/>
<path d="M178.065 162.337C170.433 160.555 161.247 159.731 153.909 157.941C149.874 156.863 148.669 155.195 154.225 154.946C162.376 154.756 171.92 154.661 180.287 153.848C200.899 152.615 230.145 158.587 239.359 134.309C246.468 116.176 249.737 121.859 247.08 137.477C244.233 156.523 233.618 164.158 214.895 164.951C202.468 166.896 190.213 165.136 178.063 162.34L178.065 162.337Z" fill="#5A2C1B"/>
<path d="M184.606 102.012C194.334 102.045 200.997 105.834 206.237 114.076C207.933 116.319 210.549 119.565 210.532 122.121C210.768 127.437 204.47 119.675 195.267 120.516C167.5 122.807 138.526 120.626 110.631 122.927C93.563 123.641 76.5056 123.583 59.5194 125.55C56.8041 125.53 28.8446 131.744 40.3899 132.969C49.914 133.981 64.2866 129.753 73.9123 132.161C83.1084 135.013 69.5215 140.243 65.1434 141.342C54.2133 143.615 41.1984 145.453 30.4896 142.72C19.6282 138.357 25.6411 126.448 32.1574 120.857C36.6017 117.127 41.0967 113.225 46.9088 112.701C92.8181 115.676 138.946 104.842 184.604 102.01L184.606 102.012ZM205.505 123.674C205.508 123.537 205.103 123.511 205.081 123.649C205.136 123.73 205.51 123.852 205.505 123.674Z" fill="#DE5639"/>
<path d="M114.451 129.567C118.662 123.623 181.128 123.303 147.028 132.013C137.827 134.039 127.578 135.374 118.494 133.3C116.806 132.87 112.679 131.69 114.454 129.567H114.451Z" fill="#DE5639"/>
<path d="M159.965 128.893C161.414 127.345 164.602 126.043 166.71 125.82C168.787 125.52 170.623 126.455 169.021 128.474C167.646 130.147 165.607 131.25 163.524 131.858C160.626 132.87 157.178 131.853 159.962 128.893H159.965Z" fill="#DE5639"/>
<path d="M87.4627 128.712C81.526 128.16 75.5156 129.335 69.518 129.706C63.383 129.825 57.7057 130.896 51.5911 131.356C45.6722 131.478 35.2405 135.561 30.3717 133.212C29.1182 132.149 31.1903 130.784 32.9599 129.879C39.7101 126.693 47.518 127.049 54.7412 125.864C60.477 124.745 66.3628 124.107 72.0706 122.978C77.6361 122.002 80.5446 121.384 86.1889 122.917C88.228 123.398 90.2797 123.896 92.362 124.199C102.158 125.465 111.476 121.163 121.323 121.344C132.869 120.972 144.429 121.857 155.987 121.054C162.72 121.27 169.544 121.166 176.228 121.755C179.965 122.116 183.654 123.095 187.427 123.05C193.547 122.854 202.502 120.08 206.503 126.029C206.941 128.117 201.314 127.773 199.697 127.88C194.879 127.88 190.158 128.577 185.269 128.557C180.565 128.47 175.806 127.618 171.171 127.41C154.937 126.823 138.416 124.934 122.246 127.217C115.519 128.018 108.336 127.051 101.634 127.707C96.8316 128.274 92.3315 129.357 87.4627 128.719V128.712Z" fill="#FFB2A1"/>
</g>
<defs>
<radialGradient id="paint0_radial_915_3099" cx="0" cy="0" r="1" gradientUnits="userSpaceOnUse" gradientTransform="translate(123.5 188) scale(150.5 27)">
<stop stop-color="#473319"/>
<stop offset="1" stop-color="#745833"/>
</radialGradient>
<clipPath id="clip0_915_3099">
<rect width="250" height="250" rx="125" fill="white"/>
</clipPath>
</defs>
</svg>
