<svg width="250" height="250" viewBox="0 0 250 250" fill="none" xmlns="http://www.w3.org/2000/svg">
<g clip-path="url(#clip0_242_94082)">
<path fill-rule="evenodd" clip-rule="evenodd" d="M249.998 125.016C249.998 194.052 194.034 250.016 124.998 250.016C55.9621 250.016 -0.00195312 194.052 -0.00195312 125.016C-0.00195312 55.9797 55.9621 0.015625 124.998 0.015625C194.034 0.015625 249.998 55.9797 249.998 125.016Z" fill="#2E344F"/>
<path fill-rule="evenodd" clip-rule="evenodd" d="M199.99 200.997L187.144 188.151L184.222 190.782C167.958 205.427 146.941 213.491 125.043 213.491C76.2558 213.491 36.5652 173.801 36.5652 125.013C36.5652 76.2267 76.2558 36.5354 125.043 36.5354C146.942 36.5354 167.959 44.6003 184.222 59.2446L187.144 61.8758L199.99 49.0292C219.624 68.4083 231.814 95.3123 231.814 125.013C231.814 154.714 219.624 181.618 199.99 200.997ZM18.1854 125.013C18.1854 66.1162 66.1025 18.199 125 18.199C151.218 18.199 175.256 27.7011 193.866 43.4345L186.789 50.5112C169.451 36.1258 147.678 28.2481 125.043 28.2481C71.6861 28.2481 28.2779 71.6569 28.2779 125.013C28.2779 178.37 71.6861 221.778 125.043 221.778C147.677 221.778 169.45 213.901 186.789 199.516L193.866 206.592C175.256 222.325 151.218 231.827 125 231.827C66.1025 231.827 18.1854 183.91 18.1854 125.013ZM125 11.293C62.2945 11.293 11.2793 62.3075 11.2793 125.013C11.2793 187.718 62.2945 238.734 125 238.734C187.705 238.734 238.72 187.718 238.72 125.013C238.72 62.3075 187.705 11.293 125 11.293Z" fill="#FFFFFE"/>
<path fill-rule="evenodd" clip-rule="evenodd" d="M128.061 191.532C142.994 190.865 156.907 185.362 168.294 175.619L171.697 172.707L155.181 156.19L152.28 158.55C144.611 164.787 134.938 168.222 125.043 168.222C104.168 168.222 86.2988 153.338 82.5529 132.829L81.9321 129.43H58.4487L59.0944 134.136C61.0184 148.169 67.2539 160.999 77.1262 171.236C86.1593 180.605 97.4673 187.01 110.004 189.894L110.003 196.86C76.4211 189.852 51.6545 159.776 51.6545 125.015C51.6545 84.5491 84.5757 51.6271 125.043 51.6271C126.671 51.6271 128.306 51.6817 129.933 51.7887L130.012 66.8177L133.537 67.3329C142.898 68.7017 151.747 72.3371 159.382 77.9186L154.51 82.7908C145.908 76.7901 135.58 73.5201 125.043 73.5201C98.497 73.5201 76.4722 93.411 73.8099 119.788L82.0557 120.62C84.2884 98.4931 102.769 81.8074 125.043 81.8074C134.938 81.8074 144.61 85.2432 152.28 91.4807L155.181 93.8405L171.697 77.3226L168.294 74.4117C159.642 67.009 149.322 61.98 138.262 59.7459L138.181 44.3108L134.535 43.8875C131.407 43.5242 128.212 43.3398 125.043 43.3398C80.0067 43.3398 43.3672 79.9793 43.3672 125.015C43.3672 144.825 50.5488 163.932 63.5889 178.816C76.506 193.559 94.2553 203.173 113.569 205.89L118.288 206.553L118.293 183.031L114.866 182.428C91.4494 178.307 73.1959 160.619 68.1448 137.717H75.14C80.8734 160.394 101.331 176.51 125.043 176.51C135.581 176.51 145.909 173.24 154.51 167.24L159.384 172.114C150.127 178.902 139.257 182.736 127.69 183.253L128.061 191.532Z" fill="#FFFFFE"/>
<path fill-rule="evenodd" clip-rule="evenodd" d="M147.047 54.9881C156.865 58.0751 165.784 63.1166 173.556 69.9715L179.037 63.7568C170.391 56.1297 160.464 50.5192 149.532 47.082L147.047 54.9881Z" fill="#FFFFFE"/>
<path fill-rule="evenodd" clip-rule="evenodd" d="M127.725 198.357L128.023 206.64C146.798 205.965 164.915 198.732 179.037 186.276L173.556 180.061C160.867 191.254 144.59 197.751 127.725 198.357Z" fill="#FFFFFE"/>
<path fill-rule="evenodd" clip-rule="evenodd" d="M119.863 58.6309C104.067 59.8477 89.1842 66.7103 77.9542 77.9548C66.727 89.1972 59.8796 104.09 58.6738 119.891L66.9369 120.521C69.1027 92.1343 92.1296 69.0791 120.499 66.8933L119.863 58.6309Z" fill="#FFFFFE"/>
</g>
<defs>
<clipPath id="clip0_242_94082">
<rect width="250" height="250" rx="125" fill="white"/>
</clipPath>
</defs>
</svg>
