<svg width="250" height="250" viewBox="0 0 250 250" fill="none" xmlns="http://www.w3.org/2000/svg">
<g clip-path="url(#clip0_242_94281)">
<rect width="250" height="250" rx="125" fill="white"/>
<g clip-path="url(#clip1_242_94281)">
<path d="M178.118 149.959C169.201 166.674 151.624 178.12 131.394 178.229C102.033 178.388 78.0174 154.63 77.8579 125.272C77.6983 95.9146 101.453 71.8967 130.814 71.7376C151.044 71.6276 168.745 82.882 177.843 99.4996L204.215 85.1257C190.006 59.1307 162.351 41.5607 130.652 41.7337C84.6729 41.9837 47.603 79.4588 47.8528 125.437C48.1026 171.415 85.5766 208.485 131.557 208.235C163.257 208.063 190.719 190.194 204.638 164.044L178.118 149.959Z" fill="#171E29"/>
<path d="M17.3982 125.632C17.057 62.8646 67.7243 11.7042 130.492 11.3633L131.728 238.664C68.9599 239.005 17.7394 188.4 17.3982 125.632Z" fill="#6176EB"/>
<path fill-rule="evenodd" clip-rule="evenodd" d="M131.396 178.228L131.559 208.233H131.557C85.5766 208.483 48.1029 171.413 47.8528 125.434C47.6028 79.4555 84.6729 41.9825 130.652 41.7324H130.654L130.818 71.7363H130.814C101.452 71.8955 77.6974 95.9136 77.857 125.272C78.0165 154.629 102.033 178.388 131.394 178.228H131.396Z" fill="white"/>
</g>
</g>
<defs>
<clipPath id="clip0_242_94281">
<rect width="250" height="250" rx="125" fill="white"/>
</clipPath>
<clipPath id="clip1_242_94281">
<rect width="227.302" height="227.302" fill="white" transform="translate(-2.63477 11.3633)"/>
</clipPath>
</defs>
</svg>
