<svg width="250" height="250" viewBox="0 0 250 250" fill="none" xmlns="http://www.w3.org/2000/svg">
<g clip-path="url(#clip0_242_94546)">
<g clip-path="url(#clip1_242_94546)">
<path d="M247.025 125.728C247.019 149.743 239.839 173.209 226.405 193.116C212.91 213.103 193.8 228.649 171.484 237.794C149.126 246.981 124.559 249.388 100.843 244.715C77.1266 240.041 55.3095 228.493 38.1087 211.51C25.3337 198.87 15.5427 183.536 9.45069 166.629C3.35863 149.721 1.11924 131.667 2.89601 113.783C4.67278 95.8995 10.4209 78.6385 19.7206 63.2602C29.0203 47.8819 41.637 34.7744 56.6494 24.8949C80.228 9.30213 108.451 2.29048 136.585 5.03577C164.72 7.78106 191.055 20.1163 211.175 39.9731C222.519 51.1898 231.529 64.5435 237.682 79.2626C243.836 93.9818 247.011 109.774 247.025 125.728Z" fill="url(#paint0_linear_242_94546)"/>
<g style="mix-blend-mode:screen">
<path d="M124.647 248.985C100.083 248.993 76.0593 241.771 55.5716 228.219C35.1667 214.73 19.2286 195.483 9.77921 172.92C0.374485 150.401 -2.08456 125.584 2.71781 101.656C7.52018 77.7282 19.3648 55.782 36.7308 38.635C49.7718 25.7301 65.4948 15.8554 82.7826 9.71235C100.07 3.5693 118.499 1.30868 136.759 3.09107C155.019 4.87346 172.662 10.6551 188.436 20.0253C204.21 29.3956 217.726 42.1244 228.025 57.3076C244.008 80.9659 251.208 109.472 248.376 137.882C245.543 166.292 232.858 192.816 212.519 212.853C189.123 235.99 157.551 248.972 124.647 248.985ZM124.647 6.42247C100.852 6.41473 77.582 13.4108 57.7368 26.5385C37.9713 39.606 22.5331 58.2504 13.3808 80.1061C4.27173 101.92 1.89073 125.959 6.54354 149.136C11.1964 172.314 22.6706 193.571 39.493 210.18C52.126 222.679 67.3566 232.244 84.1029 238.193C100.849 244.142 118.7 246.331 136.388 244.603C154.075 242.875 171.165 237.273 186.444 228.196C201.722 219.118 214.814 206.787 224.789 192.079C240.266 169.157 247.238 141.544 244.496 114.023C241.754 86.5021 229.472 60.8071 209.777 41.3898C187.113 18.9725 156.524 6.39444 124.647 6.38383V6.42247Z" fill="#061C4C"/>
</g>
<path style="mix-blend-mode:color-dodge" opacity="0.36" d="M202.2 125.586C202.2 140.422 197.767 154.92 189.471 167.219C181.136 179.569 169.331 189.175 155.545 194.826C141.733 200.504 126.556 201.993 111.904 199.107C97.2523 196.221 83.7734 189.088 73.1466 178.596C65.2541 170.787 59.2052 161.314 55.4416 150.869C51.6781 140.424 50.2948 129.27 51.3929 118.222C52.491 107.173 56.0427 96.5099 61.7887 87.0098C67.5346 77.5097 75.3298 69.4128 84.6049 63.3104C99.17 53.6807 116.603 49.3513 133.981 51.0478C151.359 52.7443 167.625 60.3637 180.053 72.6285C187.059 79.5554 192.623 87.8018 196.425 96.8914C200.226 105.981 202.189 115.734 202.2 125.586Z" fill="url(#paint1_linear_242_94546)"/>
<g style="mix-blend-mode:color-burn">
<path d="M124.576 10.1309C156.836 10.1218 187.84 22.6364 211.054 45.0376C234.146 67.3181 247.554 97.7826 248.387 129.86C248.387 128.791 248.543 127.76 248.543 126.704C248.184 94.2762 234.963 63.3185 211.788 40.6345C188.475 17.8479 157.17 5.08984 124.57 5.08984C91.971 5.08984 60.666 17.8479 37.353 40.6345C14.1768 63.3181 0.955743 94.2759 0.595703 126.704C0.595703 127.76 0.738801 128.791 0.764728 129.86C1.59458 97.7815 15.0021 67.315 38.0946 45.0339C61.3094 22.6321 92.315 10.1185 124.576 10.1309Z" fill="#F3EFF9"/>
</g>
<path opacity="0.34" d="M73.4141 21.6564L87.5047 44.7416C100.333 38.5201 114.491 35.5361 128.739 36.0504C142.988 36.5647 156.893 40.5616 169.24 47.6918H169.916L183.837 25.0442C167.209 15.2184 148.366 9.75555 129.061 9.16327C109.755 8.57099 90.6136 12.8685 73.4141 21.6564Z" fill="#F3EFF9"/>
<path d="M54.9212 127.664C54.9191 114.171 58.5885 100.931 65.5364 89.3634C72.5129 77.7542 82.4934 68.243 94.425 61.8332C106.396 55.3997 119.87 52.2878 133.45 52.8205C147.029 53.3532 160.219 57.5112 171.649 64.8627C163.592 58.6225 154.362 54.0686 144.507 51.4727C134.653 48.8767 124.377 48.2918 114.292 49.7529C104.206 51.2139 94.5188 54.6911 85.8063 59.9768C77.0939 65.2626 69.5351 72.2488 63.5808 80.5188C57.6877 88.7614 53.5363 98.1186 51.38 108.019C49.2237 117.92 49.1077 128.156 51.0392 138.103C52.9706 148.049 56.909 157.498 62.6138 165.872C68.3186 174.246 75.6703 181.37 84.2199 186.808C75.12 179.864 67.7431 170.916 62.6619 160.659C57.5807 150.401 54.9319 139.111 54.9212 127.664Z" fill="white"/>
<path opacity="0.53" d="M125.418 49.1035C121.42 49.1322 117.43 49.4768 113.486 50.1341L63.688 80.8728C54.6022 93.537 49.7458 108.746 49.8112 124.332C49.8766 139.919 54.8602 155.086 64.0519 167.674L146.398 52.1051C139.58 50.1273 132.518 49.1169 125.418 49.1035Z" fill="url(#paint2_linear_242_94546)"/>
<path opacity="0.26" d="M125.381 198.916C144.108 198.925 162.173 191.984 176.076 179.438L178.156 70.4529C169.382 61.9521 158.677 55.7059 146.959 52.25L112.525 197.821C116.772 198.545 121.073 198.912 125.381 198.916Z" fill="url(#paint3_linear_242_94546)"/>
<path opacity="0.41" d="M125.416 49.1036C110.275 49.0792 95.4711 53.579 82.9043 62.0256C70.3891 70.433 60.6999 82.419 55.1022 96.4183C49.5323 110.394 48.3327 125.731 51.6616 140.404C54.9906 155.076 62.6915 168.394 73.7476 178.598C77.4597 156.217 87.1772 135.264 101.864 117.973C122.182 94.3593 160.097 83.9892 186.094 79.4811C179.046 70.0406 169.889 62.3777 159.354 57.1036C148.819 51.8294 137.198 49.09 125.416 49.1036Z" fill="url(#paint4_linear_242_94546)"/>
<g opacity="0.25">
<path d="M182.232 220.282L168.805 196.939C155.416 204.86 140.158 209.066 124.603 209.125C109.048 209.184 93.758 205.093 80.3103 197.275L66.8047 220.567C84.3504 230.733 104.279 236.063 124.557 236.013C144.835 235.963 164.737 230.535 182.232 220.282Z" fill="black"/>
</g>
<g opacity="0.15">
<path d="M238.931 122.535C238.931 121.994 238.865 121.466 238.853 120.925L211.726 120.783C211.726 121.376 211.801 121.943 211.801 122.535C211.798 137.581 207.84 152.362 200.323 165.395C192.776 178.473 181.948 189.356 168.908 196.97L182.31 220.287C199.497 210.335 213.782 196.06 223.746 178.879C233.672 161.759 238.909 142.325 238.931 122.535Z" fill="black"/>
</g>
<g opacity="0.1">
<path d="M80.5419 197.283C67.3666 189.708 56.4106 178.807 48.7691 165.671C41.1584 152.58 37.1462 137.709 37.1395 122.567C37.1395 122.038 37.2046 121.536 37.2178 121.008H10.0897C10.0897 121.523 10.0117 122.012 10.0117 122.529C10.0127 142.404 15.2794 161.924 25.2759 179.102C35.3127 196.341 49.7053 210.638 67.0104 220.561L80.5419 197.283Z" fill="black"/>
</g>
<path d="M98.0163 155.889C90.9626 149.37 87.4357 138.944 87.4355 124.61C87.4355 97.2393 100.867 83.5538 127.731 83.5537C133.875 83.4967 139.999 84.2812 145.93 85.8854C150.34 86.9329 154.556 88.6721 158.421 91.0384V116.559H133.724V109.228C133.897 107.171 133.268 105.126 131.969 103.521C130.483 102.328 128.635 101.678 126.73 101.678C124.825 101.678 122.977 102.328 121.492 103.521C120.193 105.126 119.564 107.171 119.737 109.228V139.992C119.564 142.049 120.193 144.094 121.492 145.699C122.981 146.883 124.828 147.528 126.73 147.528C128.633 147.528 130.479 146.883 131.969 145.699C133.268 144.094 133.897 142.049 133.724 139.992V131.734H158.421V158.13C154.544 160.475 150.331 162.213 145.929 163.283C140.086 164.887 134.05 165.676 127.991 165.628C115.036 165.654 105.044 162.407 98.0163 155.889Z" fill="white"/>
<path d="M124.839 221.585H123.552L123.539 221.572H123.552L124.839 221.585Z" fill="white"/>
<path d="M79.9134 211.088L78.7567 210.51C78.6889 210.485 78.627 210.447 78.575 210.397C78.5232 210.348 78.4826 210.288 78.4558 210.222C78.417 210.122 78.4113 210.011 78.4395 209.907C78.4677 209.803 78.5284 209.711 78.6127 209.644C78.697 209.577 78.8005 209.538 78.9082 209.534C79.0159 209.529 79.1222 209.559 79.2116 209.62L80.3294 210.251C80.3845 210.279 80.433 210.319 80.4718 210.367C80.5112 210.413 80.5407 210.468 80.5588 210.526C80.5769 210.585 80.5833 210.647 80.5775 210.708C80.5715 210.769 80.5534 210.829 80.5244 210.883C80.4957 210.937 80.4561 210.985 80.4082 211.023C80.3608 211.063 80.3057 211.092 80.2464 211.109C80.1874 211.127 80.1252 211.134 80.0636 211.128C80.0019 211.122 79.9421 211.104 79.8874 211.075L79.9134 211.088Z" fill="white"/>
<path d="M44.1871 181.464L43.4071 180.42C43.2552 180.221 43.1443 179.994 43.081 179.751C43.0176 179.509 43.0031 179.256 43.0382 179.008C43.0733 178.76 43.1573 178.521 43.2854 178.306C43.4134 178.09 43.583 177.903 43.7843 177.753C44.1917 177.449 44.7027 177.318 45.2063 177.388C45.71 177.458 46.1658 177.723 46.4748 178.127L46.5526 178.243L47.2286 179.312C47.4789 179.715 47.5629 180.2 47.4631 180.664C47.3633 181.128 47.0874 181.535 46.6934 181.8C46.2982 182.067 45.8158 182.173 45.345 182.096C44.8742 182.019 44.4506 181.765 44.1609 181.386L44.1871 181.464Z" fill="white"/>
<path d="M25.4514 138.216L25.2303 136.928C25.1451 136.41 25.1636 135.88 25.2847 135.369C25.4058 134.858 25.6271 134.377 25.9358 133.952C26.5648 133.09 27.508 132.512 28.561 132.341C29.6139 132.171 30.6916 132.422 31.5603 133.041C31.989 133.346 32.3533 133.732 32.6321 134.178C32.911 134.624 33.0989 135.121 33.1852 135.64C33.1977 135.764 33.1977 135.889 33.1852 136.013L33.2629 137.301C33.3199 137.814 33.2747 138.332 33.1299 138.827C32.9851 139.322 32.7436 139.783 32.4194 140.183C31.7592 140.996 30.8053 141.516 29.7645 141.63C28.7236 141.744 27.6797 141.444 26.8588 140.794C26.4542 140.473 26.1169 140.076 25.8664 139.625C25.6159 139.174 25.4572 138.678 25.3993 138.165L25.4514 138.216Z" fill="white"/>
<path d="M29.121 90.2867L29.5629 88.9986C29.8309 88.2227 30.2492 87.5072 30.794 86.893C31.3388 86.2789 31.9993 85.7782 32.7378 85.4197C34.2351 84.691 35.9591 84.5815 37.5365 85.1148C39.1095 85.6441 40.4081 86.7759 41.1474 88.2618C41.5112 88.9945 41.7257 89.7923 41.7785 90.6087C41.8314 91.425 41.7215 92.2438 41.4553 93.0173C41.4039 93.1856 41.3387 93.3494 41.2603 93.5069L40.7795 94.6021V94.705C40.1158 96.1444 38.9261 97.275 37.4548 97.8647C35.9786 98.4579 34.3323 98.4687 32.8485 97.8948C31.3699 97.3241 30.1658 96.2092 29.4832 94.7788C28.8044 93.3534 28.7027 91.7209 29.1995 90.2224L29.121 90.2867Z" fill="white"/>
<path d="M55.7999 48.9933L56.8267 48.0403C58.4081 46.6472 60.4695 45.9244 62.5745 46.0249C64.6795 46.1253 66.6628 47.0412 68.1043 48.5785C69.5372 50.1088 70.3065 52.1439 70.2442 54.2394C70.1818 56.335 69.2929 58.3207 67.7715 59.7631L67.4077 60.0722L66.4978 60.8201L66.3809 60.9104C64.7704 62.2581 62.6974 62.9238 60.6033 62.7658C58.5093 62.6078 56.5597 61.6386 55.1696 60.0645C53.7886 58.4967 53.0862 56.445 53.2166 54.3598C53.3469 52.2746 54.2994 50.3263 55.8649 48.9427L55.7999 48.9933Z" fill="white"/>
<path d="M99.7318 25.0922L101.109 24.822C102.262 24.5101 103.465 24.4294 104.648 24.5844C105.832 24.7394 106.973 25.1271 108.007 25.7252C109.035 26.3194 109.935 27.1132 110.652 28.0601C111.369 29.0069 111.89 30.0877 112.184 31.2387C112.475 32.3871 112.532 33.5823 112.352 34.7532C112.172 35.9241 111.758 37.0468 111.135 38.0546C110.511 39.0661 109.69 39.9428 108.722 40.6331C107.751 41.3256 106.653 41.8188 105.49 42.084H105.152L104.008 42.3291H103.866C101.588 42.7821 99.2229 42.3405 97.262 41.096C95.8065 40.173 94.6516 38.8456 93.9386 37.2765C93.2257 35.7073 92.9855 33.9643 93.2477 32.2608C93.5098 30.5574 94.2627 28.9672 95.4144 27.6849C96.5661 26.4027 98.0666 25.4839 99.7323 25.0411L99.7318 25.0922Z" fill="white"/>
<path d="M150.039 25.0984L151.338 25.4592C153.641 26.0289 155.623 27.4875 156.853 29.5158C157.457 30.5177 157.857 31.6296 158.029 32.7871C158.201 33.9446 158.142 35.1247 157.854 36.2591C157.567 37.3935 157.058 38.4597 156.356 39.3958C155.654 40.332 154.773 41.1196 153.764 41.713C151.719 42.925 149.278 43.2827 146.971 42.7088H146.815L145.671 42.4383H145.58C143.259 41.8858 141.251 40.4361 139.996 38.4066C139.378 37.4042 138.966 36.2894 138.783 35.1266C138.599 33.9637 138.648 32.7761 138.927 31.6323C139.205 30.4886 139.708 29.4115 140.406 28.4634C141.104 27.5153 141.983 26.7151 142.992 26.1091C145.039 24.8715 147.491 24.4899 149.817 25.0471L150.039 25.0984Z" fill="white"/>
<path d="M194.022 48.997L195.036 49.9504C196.532 51.3673 197.415 53.3128 197.497 55.3718C197.578 57.4308 196.852 59.4402 195.473 60.9712C194.085 62.5088 192.159 63.4539 190.093 63.611C188.028 63.768 185.981 63.1251 184.377 61.8151L184.247 61.6991L183.337 60.9512C182.527 60.2789 181.859 59.4525 181.371 58.52C180.883 57.5875 180.585 56.5674 180.494 55.5188C180.404 54.4703 180.522 53.4142 180.843 52.4117C181.163 51.4093 181.68 50.4805 182.362 49.6791C183.75 48.0545 185.722 47.0421 187.851 46.8612C189.98 46.6803 192.094 47.3456 193.736 48.7128L194.022 48.997Z" fill="white"/>
<path d="M220.673 90.3013L221.089 91.5893C221.603 93.1009 221.505 94.7536 220.816 96.1941C220.122 97.6392 218.895 98.7592 217.392 99.3189C215.885 99.8817 214.219 99.8431 212.739 99.2109C211.265 98.5822 210.092 97.4063 209.468 95.9306L209.403 95.8017L208.935 94.6939C208.353 93.1877 208.383 91.5137 209.02 90.0295C209.659 88.5402 210.852 87.3569 212.346 86.7288C213.845 86.0967 215.53 86.0648 217.052 86.6395C218.57 87.211 219.807 88.3479 220.504 89.8117L220.673 90.3013Z" fill="white"/>
<path d="M224.262 138.27L224.03 139.559C223.965 140.067 223.801 140.558 223.547 141.003C223.292 141.448 222.952 141.838 222.547 142.151C221.724 142.787 220.683 143.072 219.651 142.946C218.618 142.82 217.677 142.292 217.032 141.477C216.715 141.075 216.481 140.614 216.343 140.121C216.206 139.628 216.168 139.113 216.231 138.605V138.515L216.322 137.227C216.429 136.192 216.939 135.241 217.741 134.578C218.547 133.913 219.579 133.585 220.621 133.664C221.663 133.743 222.634 134.223 223.33 135.002C224.022 135.778 224.38 136.795 224.328 137.833C224.314 137.98 224.292 138.126 224.262 138.27Z" fill="white"/>
<path d="M205.509 181.537L204.717 182.567C204.426 182.934 204.006 183.176 203.544 183.245C203.081 183.314 202.609 183.204 202.224 182.938C201.84 182.675 201.573 182.274 201.478 181.818C201.382 181.363 201.467 180.888 201.713 180.493L202.402 179.437C202.606 179.125 202.897 178.881 203.239 178.734C203.582 178.587 203.96 178.544 204.326 178.611C204.693 178.678 205.031 178.851 205.299 179.109C205.568 179.368 205.754 179.699 205.835 180.063C205.887 180.304 205.89 180.552 205.845 180.794C205.8 181.036 205.708 181.266 205.573 181.472L205.509 181.537Z" fill="white"/>
<path d="M169.716 211.139L168.56 211.705C168.455 211.749 168.336 211.752 168.229 211.713C168.122 211.675 168.033 211.597 167.98 211.495C167.928 211.396 167.916 211.28 167.946 211.171C167.976 211.061 168.047 210.967 168.144 210.908L169.314 210.354C169.368 210.314 169.431 210.285 169.498 210.271C169.565 210.256 169.634 210.256 169.7 210.271C169.767 210.285 169.829 210.313 169.885 210.352C169.967 210.412 170.028 210.497 170.059 210.595C170.089 210.692 170.088 210.797 170.054 210.893C170.032 210.957 169.996 211.016 169.949 211.065C169.901 211.114 169.844 211.152 169.781 211.178L169.716 211.139Z" fill="white"/>
</g>
</g>
<defs>
<linearGradient id="paint0_linear_242_94546" x1="78.0191" y1="14.5866" x2="178.286" y2="253.631" gradientUnits="userSpaceOnUse">
<stop stop-color="#00C4FF"/>
<stop offset="1" stop-color="#002F9C"/>
</linearGradient>
<linearGradient id="paint1_linear_242_94546" x1="51.0003" y1="125.612" x2="202.2" y2="125.612" gradientUnits="userSpaceOnUse">
<stop stop-color="white"/>
<stop offset="1" stop-color="white"/>
</linearGradient>
<linearGradient id="paint2_linear_242_94546" x1="2868.97" y1="15259.2" x2="2091.63" y2="11004" gradientUnits="userSpaceOnUse">
<stop stop-color="white"/>
<stop offset="1" stop-color="white"/>
</linearGradient>
<linearGradient id="paint3_linear_242_94546" x1="7285.62" y1="21609.3" x2="5153.9" y2="15198" gradientUnits="userSpaceOnUse">
<stop stop-color="white"/>
<stop offset="1" stop-color="white"/>
</linearGradient>
<linearGradient id="paint4_linear_242_94546" x1="5235.38" y1="113.85" x2="19523.3" y2="113.85" gradientUnits="userSpaceOnUse">
<stop stop-color="white"/>
<stop offset="1" stop-color="white"/>
</linearGradient>
<clipPath id="clip0_242_94546">
<rect width="250" height="250" rx="125" fill="white"/>
</clipPath>
<clipPath id="clip1_242_94546">
<rect width="249.3" height="249.3" fill="white" transform="translate(0.365234 0.365234)"/>
</clipPath>
</defs>
</svg>
