<svg width="250" height="250" viewBox="0 0 250 250" fill="none" xmlns="http://www.w3.org/2000/svg">
<path fill-rule="evenodd" clip-rule="evenodd" d="M153.898 8.29922C135.998 -2.00078 113.998 -2.00078 96.098 8.29922L38.398 41.6492C20.498 51.9492 9.49805 71.0492 9.49805 91.6492V158.349C9.49805 178.999 20.498 198.049 38.398 208.349L96.148 241.699C113.998 251.999 136.048 251.999 153.898 241.699L211.648 208.349C229.498 198.049 240.498 178.949 240.498 158.349C240.498 156.649 238.648 155.599 237.198 156.399L187.798 184.749C187.748 184.749 187.698 184.749 187.698 184.699C187.698 184.649 187.648 184.649 187.598 184.649C186.448 185.449 185.298 186.199 184.098 186.899L149.048 207.149C143.548 210.349 137.448 205.699 137.448 199.349V174.799C137.448 169.999 139.998 165.549 144.198 163.149L187.698 138.049L233.898 110.849C237.998 108.449 240.548 103.999 240.548 99.2492V91.6992C240.548 71.0492 229.548 51.9992 211.698 41.6992L153.898 8.29922ZM149.048 42.8492C134.148 34.2492 115.798 34.2492 100.898 42.8492L65.848 63.0992C50.948 71.6992 41.798 87.5992 41.798 104.799V145.249C41.798 162.449 50.948 178.349 65.848 186.949L100.898 207.199C105.948 210.099 111.648 205.949 111.648 200.099V173.649C111.648 168.849 109.098 164.449 104.948 161.999L77.698 146.149C61.848 136.899 61.748 114.049 77.498 104.649L111.848 84.2492C119.348 79.7992 128.648 79.7492 136.198 84.0992L171.398 104.499C177.148 107.849 184.548 110.099 190.298 106.799L199.398 101.549C204.248 98.7492 207.048 93.1492 205.048 87.8992C201.198 77.6492 193.848 68.8492 184.048 63.1992L149.048 42.8492ZM122.148 107.849L99.798 121.449C96.6981 123.349 96.698 127.849 99.848 129.699L122.198 142.999C123.698 143.899 125.548 143.899 127.098 143.049L149.948 129.749C153.098 127.899 153.148 123.349 149.998 121.449L127.148 107.849C125.548 106.899 123.648 106.899 122.148 107.849Z" fill="url(#paint0_linear_242_93356)"/>
<defs>
<linearGradient id="paint0_linear_242_93356" x1="124.998" y1="20.7287" x2="124.998" y2="229.27" gradientUnits="userSpaceOnUse">
<stop stop-color="#57DCF9"/>
<stop offset="1" stop-color="#4679E7"/>
</linearGradient>
</defs>
</svg>
