<svg width="250" height="250" viewBox="0 0 250 250" fill="none" xmlns="http://www.w3.org/2000/svg">
<g clip-path="url(#clip0_242_94104)">
<path d="M124.999 250.002C194.035 250.002 249.999 194.038 249.999 125.002C249.999 55.9664 194.035 0.00195312 124.999 0.00195312C55.9634 0.00195312 -0.000976562 55.9664 -0.000976562 125.002C-0.000976562 194.038 55.9634 250.002 124.999 250.002Z" fill="#0F1529"/>
<path fill-rule="evenodd" clip-rule="evenodd" d="M194.006 119.895C192.436 120.246 191.357 120.449 190.303 120.73C183.701 122.457 177.053 123.824 170.178 123.566C160.99 123.215 153.1 119.52 146.139 113.566C143.326 111.152 140.717 108.488 138.029 105.926C136.725 104.691 136.412 103.285 137.404 101.676L139.943 97.5586L143.373 101.324C148.318 106.809 153.607 111.801 160.584 114.465C167.436 117.074 174.412 116.691 181.42 115.512C191.326 113.855 200.475 109.895 209.443 105.449C209.74 105.301 210.068 105.207 210.936 104.863C210.342 105.98 210.014 106.645 209.639 107.27C196.545 129.285 183.451 151.301 170.342 173.309C168.732 176.012 168.131 176.215 165.334 174.848C146.85 165.77 127.49 164.043 107.506 167.48C104.381 168.02 103.826 167.754 102.334 164.551C100.701 161.051 100.717 161.145 104.412 160.434C114.709 158.422 125.252 157.993 135.678 159.16C145.436 160.254 155.162 161.691 164.115 166.285C165.396 166.949 166.076 166.395 166.717 165.332C172.396 155.848 178.076 146.363 183.787 136.895C186.842 131.824 189.959 126.793 193.029 121.738C193.295 121.301 193.506 120.84 194.006 119.895ZM56.084 120.84C57.3965 123.051 58.709 125.262 60.0371 127.465L86.3184 171.059C87.5684 173.137 87.5684 173.199 85.4043 174.191C80.7402 176.34 81.3184 176.895 78.4668 172.121C68.3887 155.207 58.3262 138.277 48.2637 121.355L40.1074 107.645C39.7168 106.996 39.4043 106.293 39.0605 105.613L39.3652 105.207C40.5137 105.715 41.6699 106.191 42.8027 106.723C49.7012 109.949 56.6777 112.949 64.0684 114.777C73.5527 117.137 82.9199 117.41 91.959 112.902C97.584 110.098 102.217 105.965 106.389 101.254C113.068 93.6914 118.49 85.207 123.404 76.3633L124.6 74.2227C125.248 75.1914 125.662 75.9258 126.186 76.5664C129.068 80.0977 128.389 83.2383 125.959 86.8945C120.537 95.0508 115.076 103.129 107.857 109.754C101.404 115.676 94.1699 120.145 85.6699 122.184C78.998 123.785 72.2949 123.465 65.5996 122.223C62.5371 121.652 59.4902 121.012 56.4355 120.402L56.084 120.84Z" fill="white"/>
</g>
<defs>
<clipPath id="clip0_242_94104">
<rect width="250" height="250" rx="125" fill="white"/>
</clipPath>
</defs>
</svg>
