<svg width="250" height="250" viewBox="0 0 250 250" fill="none" xmlns="http://www.w3.org/2000/svg">
<g clip-path="url(#clip0_242_93365)">
<path d="M125.001 249.898C194.009 249.898 249.951 193.956 249.951 124.948C249.951 55.9401 194.009 -0.00195312 125.001 -0.00195312C55.9928 -0.00195312 0.0507812 55.9401 0.0507812 124.948C0.0507812 193.956 55.9928 249.898 125.001 249.898Z" fill="#EDF0F2"/>
<path d="M204.35 221.546C185.25 237.246 161.95 246.896 137.35 249.346C104.35 252.596 71.4505 242.646 45.8005 221.646C20.1505 200.646 3.95046 170.296 0.650463 137.296C-1.79954 112.696 3.10046 87.9465 14.7505 66.1465C26.4005 44.2965 44.2505 26.4465 66.0005 14.7965C87.8005 3.14647 112.6 -1.80353 137.2 0.596474C161.8 2.99647 185.15 12.6465 204.25 28.3465L179 59.0465C165.95 48.3465 150.05 41.7965 133.3 40.1465C116.55 38.4965 99.6505 41.8965 84.8005 49.8465C69.9505 57.7965 57.8005 69.9965 49.8505 84.8465C41.9005 99.6965 38.5505 116.596 40.2505 133.346C42.5005 155.846 53.5505 176.496 71.0505 190.846C88.5505 205.196 111 211.946 133.45 209.746C150.2 208.096 166.1 201.496 179.15 190.796L204.35 221.546Z" fill="url(#paint0_linear_242_93365)"/>
<path d="M125.001 234.896C185.701 234.896 234.951 185.696 234.951 124.946C234.951 64.2461 185.751 14.9961 125.001 14.9961C64.3008 14.9961 15.0508 64.1961 15.0508 124.946C15.0508 185.696 64.3008 234.896 125.001 234.896Z" fill="white"/>
<path d="M123.601 171.849L76.1514 123.299L123.251 140.449L170.351 123.299L123.601 171.849Z" fill="#657786"/>
<path fill-rule="evenodd" clip-rule="evenodd" d="M76.1514 123.297L123.251 76.1973L170.351 123.297L123.251 140.447L76.1514 123.297ZM89.6514 123.647H110.101L123.601 110.147L137.101 123.647H157.201L123.601 90.0473L89.6514 123.647Z" fill="#283947"/>
</g>
<defs>
<linearGradient id="paint0_linear_242_93365" x1="89.7708" y1="13.7332" x2="128.959" y2="231.002" gradientUnits="userSpaceOnUse">
<stop stop-color="#27D3A2"/>
<stop offset="1" stop-color="#9388FD"/>
</linearGradient>
<clipPath id="clip0_242_93365">
<rect width="250" height="250" rx="125" fill="white"/>
</clipPath>
</defs>
</svg>
