<svg width="250" height="250" viewBox="0 0 250 250" fill="none" xmlns="http://www.w3.org/2000/svg">
<rect width="250" height="250" rx="125" fill="white"/>
<path d="M229.45 114.524H144.11C140.455 108.191 133.613 103.941 125.75 103.941C114.02 103.941 104.543 113.419 104.543 125.149C104.543 136.879 114.02 146.356 125.75 146.356C133.825 146.356 140.88 141.851 144.45 135.179H229.45V114.524Z" fill="#2D353F"/>
<path d="M198.382 167.352C183.762 192.554 156.477 209.554 125.325 209.554C78.7873 209.554 40.9198 171.687 40.9198 125.149C40.9198 78.6116 78.7873 40.7441 125.325 40.7441C156.52 40.7441 183.762 57.7441 198.382 82.9466L215.68 72.8316C197.575 41.7216 163.872 20.7266 125.325 20.7266C67.7373 20.7266 20.9023 67.5616 20.9023 125.149C20.9023 182.737 67.7373 229.572 125.325 229.572C164.042 229.572 197.915 208.407 215.935 176.999L198.382 167.352Z" fill="#2D353F"/>
</svg>
