<svg width="250" height="250" viewBox="0 0 250 250" fill="none" xmlns="http://www.w3.org/2000/svg">
<g clip-path="url(#clip0_242_94090)">
<path d="M196.5 110.002C196.5 79.002 171.25 53.752 140.25 53.752C116.75 53.752 96.75 68.002 88.25 88.502C68.25 97.002 54 117.002 54 140.252C54 171.252 79.25 196.502 110.25 196.502C133.75 196.502 153.75 182.252 162.25 161.752C182 153.252 196.5 133.252 196.5 110.002ZM110.25 182.502C87 182.502 68 163.502 68 140.252C68 127.002 74.25 115.002 84 107.252C84 108.252 84 109.252 84 110.002C84 141.002 109.25 166.252 140.25 166.252C141.5 166.252 142.5 166.252 143.75 166.252C135.75 176.252 123.75 182.502 110.25 182.502ZM151.25 150.752C147.75 151.752 144 152.252 140.25 152.252C117 152.252 98 133.252 98 110.002C98 106.252 98.5 102.752 99.5 99.5019C103 98.5019 106.75 98.002 110.5 98.002C133.75 98.002 152.75 117.002 152.75 140.252C152.5 144.002 152 147.502 151.25 150.752ZM166.5 143.002C166.5 142.002 166.5 141.002 166.5 140.252C166.5 109.252 141.25 84.0019 110.25 84.0019C109 84.0019 108 84.0019 106.75 84.0019C114.5 74.0019 126.5 67.752 140 67.752C163.25 67.752 182.25 86.752 182.25 110.002C182.25 123.502 176 135.252 166.5 143.002Z" fill="white"/>
<path d="M124.998 250.003C194.034 250.003 249.999 194.038 249.999 125.002C249.999 55.9665 194.034 0.00195312 124.998 0.00195312C55.9626 0.00195312 -0.00195312 55.9665 -0.00195312 125.002C-0.00195312 194.038 55.9626 250.003 124.998 250.003Z" fill="#47CC85"/>
<path d="M121.432 194.788C146.652 194.788 168.013 178.575 175.991 156.186H160.292C153.344 170.597 138.417 180.377 121.432 180.377C97.4979 180.377 77.9391 160.818 77.9391 136.884C77.9391 119.899 87.7185 104.972 102.13 98.0237V82.3251C79.7406 90.3031 63.5273 111.663 63.5273 136.884C63.5273 168.796 89.52 194.788 121.432 194.788ZM145.108 141.774H158.491V138.686L157.461 131.994C171.873 130.45 180.88 122.472 180.88 110.891C180.88 83.6119 134.557 94.6782 134.557 80.781C134.557 75.8913 140.219 72.8031 149.998 72.8031C157.719 72.8031 165.954 74.8619 173.674 78.2075V64.8252C168.27 63.281 162.351 62.2516 156.174 61.9943L157.204 55.3031V52.2148H143.821V55.3031L144.851 61.9943C129.667 63.5384 120.66 70.7442 120.66 81.2957C120.66 109.605 166.983 96.737 166.983 111.921C166.983 117.068 160.807 120.413 151.799 120.413C142.535 120.413 133.013 117.583 121.432 112.178V126.075C129.152 129.678 137.388 131.48 146.138 131.994L145.108 138.686V141.774Z" fill="white"/>
</g>
<defs>
<clipPath id="clip0_242_94090">
<rect width="250" height="250" rx="125" fill="white"/>
</clipPath>
</defs>
</svg>
