<svg width="250" height="250" viewBox="0 0 250 250" fill="none" xmlns="http://www.w3.org/2000/svg">
<g clip-path="url(#clip0_242_94050)">
<path d="M124.818 249.641C193.752 249.641 249.635 193.758 249.635 124.824C249.635 55.8886 193.752 0.00585937 124.818 0.00585937C55.8827 0.00585937 0 55.8886 0 124.824C0 193.758 55.8827 249.641 124.818 249.641Z" fill="#EDF0F2"/>
<path fill-rule="evenodd" clip-rule="evenodd" d="M137.227 249.393C161.785 246.957 185.07 237.286 204.137 221.601L194.362 209.691C175.431 225.225 151.209 234.549 124.809 234.549C64.212 234.549 15.0888 185.426 15.0888 124.829C15.0888 64.2319 64.212 15.1084 124.809 15.1084C151.28 15.1084 175.562 24.4828 194.516 40.0928L204.025 28.4786C184.939 12.8163 161.643 3.17172 137.083 0.764413C112.522 -1.6429 87.8 3.29516 66.0429 14.9541C44.2854 26.6132 26.47 44.4693 14.8495 66.2651C3.22902 88.0605 -1.67472 112.816 0.758431 137.402C4.02119 170.37 20.2321 200.691 45.825 221.693C71.4179 242.696 104.296 252.659 137.227 249.393Z" fill="url(#paint0_linear_242_94050)"/>
<path d="M124.809 234.552C185.405 234.552 234.529 185.428 234.529 124.831C234.529 64.2349 185.405 15.1113 124.809 15.1113C64.2121 15.1113 15.0889 64.2349 15.0889 124.831C15.0889 185.428 64.2121 234.552 124.809 234.552Z" fill="white"/>
<path d="M134.116 127.992V127.98C133.594 128.016 130.896 128.174 124.893 128.174C120.094 128.174 116.728 128.041 115.537 127.98V127.992C97.08 127.177 83.3131 123.968 83.3131 120.115C83.3131 116.274 97.092 113.053 115.537 112.238V124.795C116.74 124.88 120.203 125.087 124.978 125.087C130.714 125.087 133.581 124.843 134.116 124.795V112.251C152.537 113.077 166.267 116.286 166.267 120.127C166.267 123.968 152.525 127.177 134.116 128.004V127.992ZM134.116 110.95V99.7185H159.815V82.5918H89.8502V99.7185H115.549V110.95C94.662 111.91 78.9629 116.043 78.9629 121.002C78.9629 125.962 94.6741 130.095 115.549 131.067V167.071H134.128V131.067C154.979 130.107 170.654 125.974 170.654 121.015C170.654 116.067 154.979 111.922 134.128 110.962" fill="#283947"/>
</g>
<defs>
<linearGradient id="paint0_linear_242_94050" x1="93.7314" y1="13.1818" x2="132.943" y2="230.337" gradientUnits="userSpaceOnUse">
<stop stop-color="#27D3A2"/>
<stop offset="1" stop-color="#9388FD"/>
</linearGradient>
<clipPath id="clip0_242_94050">
<rect width="250" height="250" rx="125" fill="white"/>
</clipPath>
</defs>
</svg>
