<svg width="250" height="250" viewBox="0 0 250 250" fill="none" xmlns="http://www.w3.org/2000/svg">
<g clip-path="url(#clip0_242_94713)">
<path d="M125.001 249.998C194.037 249.998 250.001 194.034 250.001 124.998C250.001 55.9625 194.037 -0.00195312 125.001 -0.00195312C55.9654 -0.00195312 0.000976562 55.9625 0.000976562 124.998C0.000976562 194.034 55.9654 249.998 125.001 249.998Z" fill="#EDF0F2"/>
<path d="M124.963 218.727C176.709 218.727 218.658 176.778 218.658 125.032C218.658 73.2864 176.709 31.3379 124.963 31.3379C73.217 31.3379 31.2686 73.2864 31.2686 125.032C31.2686 176.778 73.217 218.727 124.963 218.727Z" fill="#C8D2D9"/>
<path d="M184.448 197.335C170.163 209.129 152.655 216.381 134.194 218.14C109.507 220.557 84.8195 213.085 65.553 197.335C46.3602 181.585 34.1996 158.875 31.7089 134.115C29.8775 115.654 33.5403 97.1201 42.2578 80.7841C50.9755 64.4481 64.381 51.0421 80.7175 42.3247C97.0535 33.6072 115.587 29.8711 134.048 31.7025C152.509 33.5339 169.943 40.713 184.302 52.5071L165.402 75.5831C155.659 67.5981 143.718 62.6166 131.118 61.4446C118.518 60.1991 105.918 62.7631 94.7825 68.6971C83.6475 74.6306 74.5635 83.7876 68.5565 94.9226C62.623 106.058 60.1325 118.731 61.3775 131.258C63.0625 148.107 71.3405 163.637 84.4535 174.332C97.566 185.101 114.415 190.156 131.264 188.471C143.864 187.226 155.732 182.244 165.475 174.259L184.448 197.335Z" fill="url(#paint0_linear_242_94713)"/>
<path d="M125.257 201.73C167.525 201.73 201.736 167.446 201.736 125.25C201.736 82.9811 167.525 48.6973 125.257 48.6973C82.988 48.6973 48.7041 82.9811 48.7041 125.25C48.7041 167.519 82.988 201.73 125.257 201.73Z" fill="white"/>
<path fill-rule="evenodd" clip-rule="evenodd" d="M132.146 127.301C131.706 127.301 129.655 127.447 124.967 127.447C121.231 127.447 118.593 127.301 117.641 127.301C103.21 126.642 92.5141 124.224 92.5141 121.221C92.5141 118.217 103.283 115.8 117.641 115.14V124.883C118.593 124.957 121.304 125.103 125.04 125.103C129.508 125.103 131.779 124.883 132.146 124.883V115.214C146.504 115.873 157.273 118.29 157.273 121.294C157.273 124.224 146.577 126.715 132.146 127.301ZM132.145 114.187V105.543H152.217V92.3574H97.6416V105.543H117.714V114.187C101.378 114.92 89.1436 118.143 89.1436 121.953C89.1436 125.762 101.378 128.985 117.714 129.718V157.482H132.218V129.718C148.481 128.985 160.715 125.762 160.715 121.953C160.715 118.143 148.481 114.92 132.145 114.187Z" fill="#283947"/>
</g>
<defs>
<linearGradient id="paint0_linear_242_94713" x1="32.0032" y1="59.5836" x2="74.9365" y2="218.769" gradientUnits="userSpaceOnUse">
<stop stop-color="#27D3A2"/>
<stop offset="1" stop-color="#9388FD"/>
</linearGradient>
<clipPath id="clip0_242_94713">
<rect width="250" height="250" fill="white"/>
</clipPath>
</defs>
</svg>
