<svg width="250" height="250" viewBox="0 0 250 250" fill="none" xmlns="http://www.w3.org/2000/svg">
<rect width="250" height="250" rx="125" fill="white"/>
<path d="M229.369 104.809L194.731 44.7136C194.221 43.8211 193.456 43.0986 192.564 42.5461L161.921 24.8661C161.029 24.3561 160.009 24.0586 158.989 24.0586L89.4163 24.2711C88.3963 24.2711 87.3763 24.5686 86.4838 25.0786L56.3938 42.6311C55.5013 43.1411 54.7788 43.8636 54.2688 44.7561L19.4188 104.681C18.9088 105.574 18.6113 106.636 18.6113 107.699L18.9088 143.271C18.9088 144.291 19.2063 145.311 19.7163 146.161L54.3113 205.746C54.8213 206.639 55.5863 207.404 56.5213 207.914L86.7388 224.871C87.6313 225.381 88.6088 225.636 89.5863 225.636L159.329 225.891C160.391 225.891 161.411 225.594 162.304 225.084L191.714 207.659C192.564 207.149 193.286 206.469 193.754 205.619L229.284 145.694C229.836 144.801 230.091 143.739 230.091 142.719V107.741C230.176 106.679 229.879 105.701 229.369 104.809ZM159.839 141.146L160.136 129.119L165.916 139.276L165.789 151.304L159.839 141.146ZM152.571 191.084L142.414 172.851L153.846 154.109L164.599 172.426L152.571 191.084ZM82.0638 194.781L104.036 195.674L114.321 213.991L92.9863 213.906L82.0638 194.781ZM31.5738 143.186L42.4963 123.976L52.6963 143.059L42.0288 161.206L31.5738 143.186ZM62.9388 137.279L52.6538 118.026L73.3088 118.664L84.1888 136.939L62.9388 137.279ZM92.8588 148.499L103.229 154.449L91.5413 154.746L80.9588 148.711L92.8588 148.499ZM93.2413 166.476L114.151 165.924L104.164 183.944L82.3188 183.051L93.2413 166.476ZM128.601 164.054L136.931 159.251L131.321 168.474L123.501 173.276L128.601 164.054ZM124.266 153.004L100.211 139.191L99.7863 110.631L124.394 96.9461L148.831 111.184L148.151 139.191L124.266 153.004ZM144.709 65.8361L166.851 67.1536L155.801 84.0686L134.466 84.2386L144.709 65.8361ZM120.101 85.8961L110.029 91.5061L115.809 81.7736L125.669 75.9511L120.101 85.8961ZM156.269 101.961L145.814 95.8836L157.416 95.7986L167.744 101.706L156.269 101.961ZM186.869 99.0711L167.319 87.8936L179.304 69.5336L198.386 79.3936L186.869 99.0711ZM166.809 55.3811L144.879 54.1061L134.466 35.9161L155.631 35.8736L166.809 55.3811ZM133.404 57.6761L113.896 69.2361L103.696 49.3886L122.269 38.1686L133.404 57.6761ZM95.4513 59.0361L104.844 77.2686L93.8363 95.7561L83.3388 78.2461L95.4513 59.0361ZM87.9713 108.889L88.1413 120.704L82.5313 111.269L82.4463 99.6661L87.9713 108.889ZM70.6313 83.9836L70.8013 106.849L48.4038 106.126L47.8513 83.7711L70.6313 83.9836ZM61.5788 151.176L81.7238 162.651L69.7813 180.799L50.2313 170.471L61.5788 151.176ZM126.519 211.654L115.469 191.976L133.446 180.884L144.369 200.434L126.519 211.654ZM175.309 132.051L164.726 113.521L185.381 113.011L195.454 133.029L175.309 132.051ZM177.604 143.909L199.576 144.971L200.384 166.774L177.349 166.731L177.604 143.909ZM205.696 127.249L195.624 107.274L206.504 88.7436L217.426 107.699L205.696 127.249ZM191.501 62.6486L181.556 57.5061L174.926 45.9461L185.339 51.9811L191.501 62.6486ZM91.0313 36.0011L103.229 35.9586L94.3038 41.3561L81.5538 41.5261L91.0313 36.0011ZM62.7688 53.5536L85.2088 53.2561L73.2238 72.2961L51.9738 72.1261L62.7688 53.5536ZM36.4613 98.7736L36.7588 110.376L30.5113 121.384L30.4263 109.229L36.4613 98.7736ZM57.3288 187.556L67.4863 192.911L73.9888 204.301L63.7038 198.521L57.3288 187.556ZM157.756 214.161L144.709 214.119L153.846 208.381L167.404 208.424L157.756 214.161ZM185.424 196.736L162.941 196.651L174.671 178.461L196.219 178.504L185.424 196.736ZM211.646 152.536L211.221 140.891L218.446 128.864V141.061L211.646 152.536Z" fill="black"/>
</svg>
