<svg width="250" height="250" viewBox="0 0 250 250" fill="none" xmlns="http://www.w3.org/2000/svg">
<g clip-path="url(#clip0_242_94721)">
<path opacity="0.98" d="M125 250C194.036 250 250 194.036 250 125C250 55.9644 194.036 0 125 0C55.9644 0 0 55.9644 0 125C0 194.036 55.9644 250 125 250Z" fill="#243F8D"/>
<path d="M180.568 62.9355H168.166V75.3371H180.568V62.9355Z" fill="white"/>
<path d="M205.372 62.9355H192.971V75.3371H205.372V62.9355Z" fill="#8DDB2E"/>
<path d="M192.969 75.3379H180.567V87.7394H192.969V75.3379Z" fill="#8DDB2E"/>
<path d="M205.372 162.256H192.971V174.657H205.372V162.256Z" fill="#8DDB2E"/>
<path d="M192.969 137.449H180.567V149.851H192.969V137.449Z" fill="#8DDB2E"/>
<path d="M168.165 112.643H155.764V125.044H168.165V112.643Z" fill="#8DDB2E"/>
<path d="M180.568 100.242H168.166V112.644H180.568V100.242Z" fill="#8DDB2E"/>
<path d="M205.372 112.643H192.971V125.044H205.372V112.643Z" fill="#8DDB2E"/>
<path fill-rule="evenodd" clip-rule="evenodd" d="M180.568 162.252V174.655H192.97V187.057H181.544H180.568H168.165H164.552H162.111H145.118L123.048 151.998L100.88 187.057H83.8876H81.4466H64.4541L104.689 124.459L65.4306 62.9355H82.4231H84.6691H101.661L123.048 97.115L144.337 63.033H180.568V75.4355H168.165V100.24H155.763V87.838H143.361V100.24H155.763V112.643H143.361V125.045H155.763V137.447H168.165V162.252H155.763V174.655H168.165V162.252H180.568ZM143.263 137.447V149.85H155.665V137.447H143.263ZM130.861 125.045V137.447H143.263V125.045H130.861ZM130.861 125.045V112.643H118.458V125.045H130.861Z" fill="#8DDB2E"/>
</g>
<defs>
<clipPath id="clip0_242_94721">
<rect width="250" height="250" fill="white"/>
</clipPath>
</defs>
</svg>
