<svg width="250" height="250" viewBox="0 0 250 250" fill="none" xmlns="http://www.w3.org/2000/svg">
<g clip-path="url(#clip0_242_93376)">
<path d="M125.001 249.9C194.009 249.9 249.951 193.958 249.951 124.95C249.951 55.942 194.009 0 125.001 0C55.9928 0 0.0507812 55.942 0.0507812 124.95C0.0507812 193.958 55.9928 249.9 125.001 249.9Z" fill="#EDF0F2"/>
<path d="M204.35 221.548C185.25 237.248 161.95 246.898 137.35 249.348C104.35 252.598 71.4505 242.648 45.8005 221.648C20.1505 200.648 3.95046 170.298 0.650463 137.298C-1.79954 112.698 3.10046 87.9484 14.7505 66.1484C26.4005 44.2984 44.2505 26.4484 66.0005 14.7984C87.8005 3.14843 112.6 -1.80157 137.2 0.598427C161.8 2.99843 185.15 12.6484 204.25 28.3484L179 59.0484C165.95 48.3484 150.05 41.7984 133.3 40.1484C116.55 38.4984 99.6505 41.8984 84.8005 49.8484C69.9505 57.7984 57.8005 69.9984 49.8505 84.8484C41.9005 99.6984 38.5505 116.598 40.2505 133.348C42.5005 155.848 53.5505 176.498 71.0505 190.848C88.5505 205.198 111 211.948 133.45 209.748C150.2 208.098 166.1 201.498 179.15 190.798L204.35 221.548Z" fill="url(#paint0_linear_242_93376)"/>
<path d="M125.001 234.896C185.701 234.896 234.951 185.696 234.951 124.946C234.951 64.2461 185.751 14.9961 125.001 14.9961C64.3008 14.9961 15.0508 64.1961 15.0508 124.946C15.0508 185.696 64.3008 234.896 125.001 234.896Z" fill="white"/>
<path d="M97.8008 137.001L104.801 129.651L96.0508 117.751L85.0008 101.951C81.0508 108.701 78.8008 116.551 78.8008 124.951C78.8008 138.851 85.0008 151.301 94.7008 159.701L108.801 149.651C104.051 146.601 100.151 142.201 97.8008 137.001Z" fill="#283947"/>
<path d="M113.05 97.8508L120.35 104.851L132.25 96.1008L148.1 85.0008C141.35 81.0508 133.5 78.8008 125.1 78.8008C111.2 78.8008 98.7496 85.0008 90.3496 94.7008L100.4 108.801C103.4 104.051 107.8 100.201 113.05 97.8508Z" fill="#283947"/>
<path d="M145.2 120.398L153.95 132.298L165.05 148.148C169 141.398 171.25 133.548 171.25 125.148C171.25 111.248 165.05 98.7984 155.35 90.3984L141.25 100.448C146.05 103.448 149.9 107.848 152.3 113.098L145.2 120.398Z" fill="#283947"/>
<path d="M159.652 155.297L149.602 141.197C146.602 145.997 142.202 149.847 136.952 152.247L129.602 145.247L117.702 153.997L101.852 165.097C108.602 169.047 116.452 171.297 124.852 171.297C138.852 171.197 151.302 165.047 159.652 155.297Z" fill="#283947"/>
</g>
<defs>
<linearGradient id="paint0_linear_242_93376" x1="89.7708" y1="13.7351" x2="128.959" y2="231.004" gradientUnits="userSpaceOnUse">
<stop stop-color="#27D3A2"/>
<stop offset="1" stop-color="#9388FD"/>
</linearGradient>
<clipPath id="clip0_242_93376">
<rect width="250" height="250" rx="125" fill="white"/>
</clipPath>
</defs>
</svg>
