<svg width="250" height="250" viewBox="0 0 250 250" fill="none" xmlns="http://www.w3.org/2000/svg">
<path d="M71.5664 138.919C73.042 139.408 74.638 139.673 76.3211 139.676C80.2441 139.684 84.1667 139.663 88.0898 139.637L87.7219 129.363L71.5664 138.919Z" fill="#9A3121"/>
<path d="M87.7174 129.358L87.0748 111.41C83.4289 111.411 79.7829 111.41 76.137 111.413C72.4727 111.416 69.214 112.75 66.7559 114.925L87.5029 129.485L87.7174 129.358Z" fill="#CC3F28"/>
<path d="M66.7533 114.92C63.1492 118.109 61.2651 123.107 62.3469 128.373C63.4002 133.501 66.8624 137.353 71.5584 138.91L87.5004 129.48L66.7533 114.92Z" fill="#501C16"/>
<path d="M115.783 111.409C106.215 111.409 96.6461 111.407 87.0781 111.409L87.7164 129.233L136.107 111.406C129.332 111.407 122.557 111.409 115.783 111.409Z" fill="#501C16"/>
<path d="M88.0828 139.639C90.349 139.625 92.6147 139.609 94.8809 139.596L87.7188 129.475L88.0828 139.639Z" fill="#812A1D"/>
<path d="M169.103 123.19C168.261 116.62 162.245 111.424 155.421 111.417C148.982 111.411 142.543 111.41 136.104 111.41L87.7129 129.237L87.7212 129.47L94.883 139.592C97.1029 139.58 99.3232 139.57 101.543 139.568C119.32 139.549 137.098 139.571 154.874 139.544C156.145 139.542 157.445 139.407 158.679 139.116C165.773 137.439 170.08 130.816 169.103 123.19Z" fill="#E5462C"/>
<path d="M107.695 178.96C106.823 186.043 111.267 192.443 117.938 194.411C118.728 194.644 119.667 195.003 120.406 195.003C125.409 195.003 130.412 195.003 135.415 195.003L115.595 167.781C111.362 169.759 108.325 173.85 107.695 178.96Z" fill="#812A1D"/>
<path d="M29.6649 56.0371C27.9145 56.0371 23.9895 57.4908 21.7225 59.5436C21.1783 60.0363 20.6798 60.5524 20.2227 61.0904L28.4424 84.2075C29.9401 84.44 31.4826 84.4541 33.0256 84.4387L51.2151 56.0371C44.0314 56.0371 36.8482 56.0371 29.6649 56.0371Z" fill="#501C16"/>
<path d="M17.0962 68.1008C16.9093 69.5351 16.9467 71.6314 17.1063 72.5035C18.1687 78.3252 22.1975 83.0282 27.946 84.1249C28.1113 84.1565 28.2779 84.1829 28.444 84.2089L20.2242 61.0918C18.5349 63.0809 17.4487 65.3899 17.0962 68.1008Z" fill="#9A3121"/>
<path d="M77.9052 58.0385C76.1587 57.0789 73.7907 56.0371 72.1827 56.0371C65.1933 56.0371 58.2043 56.0371 51.215 56.0371L33.0254 84.4387C33.7876 84.4312 34.5503 84.4176 35.3068 84.4194C46.7598 84.4444 58.2127 84.4396 69.6656 84.418C70.9905 84.4154 72.3414 84.3767 73.6355 84.1248C79.2961 83.0228 83.8176 78.4029 84.6585 72.9795C85.6384 66.6589 83.1499 60.9203 77.9052 58.0385Z" fill="#CC3F28"/>
<path d="M165.395 166.386C150.757 166.653 136.11 166.461 121.467 166.479C119.356 166.482 117.368 166.943 115.59 167.773L135.41 194.996C135.543 194.996 135.677 194.996 135.809 194.996C136.415 194.926 137.021 194.796 137.627 194.795C146.275 194.782 154.923 194.719 163.571 194.797C168.605 194.843 173.475 194.349 178.143 193.386L186.594 159.502C180.382 163.71 173.058 166.246 165.395 166.386Z" fill="#E5462C"/>
<path d="M174.801 57.0246C172.004 56.5565 169.161 56.3578 166.339 56.0352C165.031 56.0352 163.723 56.0352 162.416 56.0352L205.221 86.8082L210.208 74.1613C200.162 64.9611 188.31 59.2849 174.801 57.0246Z" fill="#371512"/>
<path d="M187.961 92.2866C191.998 95.3186 195.503 99.2042 198.485 103.892L205.22 86.8104L204.685 86.4258L187.961 92.2866Z" fill="#E5462C"/>
<path d="M162.417 56.0371C148.315 56.0371 134.214 56.0371 120.113 56.0371C116.006 56.0371 109.808 60.6302 108.222 66.1235C106.608 71.714 107.882 76.7506 112.201 80.8395C115.062 83.5472 118.576 84.4787 122.407 84.48C136.194 84.4848 149.984 84.338 163.769 84.5191C173.295 84.644 181.344 87.3161 187.962 92.2868L204.687 86.426L162.417 56.0371Z" fill="#66221D"/>
<path d="M211.336 75.1984C210.966 74.845 210.588 74.5078 210.213 74.1641L205.184 86.92L231.648 112.722C229.006 98.0504 222.175 85.5494 211.336 75.1984Z" fill="#E5462C"/>
<path d="M231.954 114.524C231.819 113.928 231.757 113.321 231.65 112.724L205.185 86.9219L198.493 103.895C199.125 104.889 199.737 105.914 200.322 106.98C204.865 115.248 205.892 124.198 204.072 133.504C201.983 144.192 195.412 153.536 186.597 159.508L178.146 193.393C204.562 187.945 224.476 167.363 230.549 143.056C231.522 139.165 232.26 135.166 232.541 131.151C232.703 128.82 233.101 119.613 231.954 114.524Z" fill="#B33824"/>
</svg>
