<svg width="250" height="250" viewBox="0 0 250 250" fill="none" xmlns="http://www.w3.org/2000/svg">
<path fill-rule="evenodd" clip-rule="evenodd" d="M172.306 24.2129C166.423 24.2129 161.628 29.0082 161.628 34.8916V148.489V83.812C161.628 83.812 153.971 78.7346 143.776 75.3094C136.16 72.7706 126.61 71.6826 120.767 71.6826C78.455 71.6826 43.9609 106.177 43.9609 148.489C43.9609 190.8 78.455 225.294 120.767 225.294C163.078 225.294 196.041 190.8 196.041 148.489V34.8916C196.041 29.0082 191.246 24.2129 185.362 24.2129H172.306ZM121.049 105.935C144.622 105.935 161.466 124.915 161.466 148.489C161.466 159.49 157.799 169.483 151.473 177.019C144.26 185.642 133.621 191.042 121.049 191.042C97.4751 191.042 78.4953 172.062 78.4953 148.489C78.5356 124.915 97.5154 105.935 121.049 105.935Z" fill="url(#paint0_linear_242_93378)"/>
<path fill-rule="evenodd" clip-rule="evenodd" d="M120.767 71.6836C78.455 71.6836 43.9609 106.178 43.9609 148.489C43.9609 190.801 78.455 225.295 120.767 225.295C163.078 225.295 196.041 190.801 196.041 148.489H161.628V83.813C160.499 83.0473 159.935 82.6443 158.122 81.6369C147.04 75.5521 134.468 71.6836 120.767 71.6836ZM121.049 105.936C144.622 105.936 161.466 124.916 161.466 148.489C161.466 159.491 157.799 169.484 151.473 177.02C144.26 185.643 133.621 191.043 121.049 191.043C97.4751 191.043 78.4953 172.063 78.4953 148.489C78.5356 124.916 97.5154 105.936 121.049 105.936Z" fill="url(#paint1_radial_242_93378)"/>
<defs>
<linearGradient id="paint0_linear_242_93378" x1="180.031" y1="56.9891" x2="73.6645" y2="219.757" gradientUnits="userSpaceOnUse">
<stop stop-color="#00DFFE"/>
<stop offset="0.5253" stop-color="#00F5FF"/>
<stop offset="1" stop-color="#23FCCF"/>
</linearGradient>
<radialGradient id="paint1_radial_242_93378" cx="0" cy="0" r="1" gradientUnits="userSpaceOnUse" gradientTransform="translate(180.239 80.127) scale(151.28 151.28)">
<stop stop-color="#060606" stop-opacity="0.4764"/>
<stop offset="0.1101" stop-color="#030509" stop-opacity="0.2538"/>
<stop offset="0.451" stop-color="#00040C" stop-opacity="0"/>
<stop offset="0.6591" stop-color="#144A4C" stop-opacity="0"/>
<stop offset="1" stop-color="#2AFDC5" stop-opacity="0"/>
</radialGradient>
</defs>
</svg>
