<svg width="250" height="250" viewBox="0 0 250 250" fill="none" xmlns="http://www.w3.org/2000/svg">
<rect width="250" height="250" rx="125" fill="white"/>
<g clip-path="url(#clip0_242_94533)">
<path d="M45.1617 101.849H23.8073C20.5075 101.849 17.3428 103.16 15.0094 105.493C12.6761 107.827 11.3652 110.991 11.3652 114.291L11.3652 135.645C11.3652 138.945 12.6761 142.11 15.0094 144.443C17.3428 146.777 20.5075 148.088 23.8073 148.088H57.6038V114.291C57.6038 110.991 56.2929 107.827 53.9596 105.493C51.6262 103.16 48.4615 101.849 45.1617 101.849ZM48.3912 138.875H24.3076C23.3184 138.875 22.3698 138.482 21.6704 137.782C20.971 137.083 20.578 136.134 20.578 135.145V114.791C20.578 113.802 20.971 112.854 21.6704 112.154C22.3698 111.455 23.3184 111.062 24.3076 111.062H44.6614C45.6506 111.062 46.5993 111.455 47.2987 112.154C47.9982 112.854 48.3912 113.802 48.3912 114.791V138.875ZM105.498 101.849H84.1434C80.8435 101.849 77.6788 103.16 75.3455 105.493C73.0122 107.827 71.7013 110.991 71.7013 114.291V135.645C71.7013 138.945 73.0122 142.11 75.3455 144.443C77.6788 146.777 80.8435 148.088 84.1434 148.088H117.94V114.291C117.94 110.991 116.629 107.827 114.296 105.493C111.962 103.16 108.798 101.849 105.498 101.849ZM108.727 138.875H84.6437C83.6545 138.875 82.7058 138.482 82.0064 137.782C81.3069 137.083 80.9139 136.134 80.9139 135.145V114.791C80.9139 113.802 81.3069 112.854 82.0064 112.154C82.7058 111.455 83.6545 111.062 84.6437 111.062H104.997C105.987 111.062 106.935 111.455 107.635 112.154C108.334 112.854 108.727 113.802 108.727 114.791V138.875ZM165.769 101.849H144.414C142.78 101.849 141.162 102.171 139.653 102.796C138.143 103.421 136.772 104.338 135.616 105.493C134.461 106.648 133.544 108.02 132.919 109.53C132.294 111.039 131.972 112.657 131.972 114.291V148.088H165.769C169.068 148.088 172.233 146.777 174.566 144.443C176.9 142.11 178.211 138.945 178.211 135.645V114.291C178.211 110.991 176.9 107.827 174.566 105.493C172.233 103.16 169.068 101.849 165.769 101.849ZM168.998 135.145C168.998 136.134 168.605 137.083 167.906 137.782C167.206 138.482 166.258 138.875 165.268 138.875H141.185V114.791C141.185 113.802 141.578 112.854 142.277 112.154C142.977 111.455 143.925 111.062 144.915 111.062H165.268C166.258 111.062 167.206 111.455 167.906 112.154C168.605 112.854 168.998 113.802 168.998 114.791V135.145ZM226.226 101.849H204.871C201.571 101.849 198.407 103.16 196.073 105.493C193.74 107.827 192.429 110.991 192.429 114.291V148.088H226.226C229.525 148.088 232.69 146.777 235.023 144.443C237.357 142.11 238.668 138.945 238.668 135.645V114.291C238.668 110.991 237.357 107.827 235.023 105.493C232.69 103.16 229.525 101.849 226.226 101.849ZM229.455 135.145C229.455 136.134 229.062 137.083 228.363 137.782C227.663 138.482 226.714 138.875 225.725 138.875H201.642V114.791C201.642 113.802 202.035 112.854 202.734 112.154C203.434 111.455 204.382 111.062 205.372 111.062H225.725C226.714 111.062 227.663 111.455 228.363 112.154C229.062 112.854 229.455 113.802 229.455 114.791V135.145ZM192.429 157.516H201.642V176.21H192.429V157.516ZM131.972 157.516H141.185V176.21H131.972L131.972 157.516ZM48.3912 73.8203H57.6038V92.5141H48.3912V73.8203Z" fill="url(#paint0_linear_242_94533)"/>
</g>
<defs>
<linearGradient id="paint0_linear_242_94533" x1="11.3652" y1="125.015" x2="237.175" y2="125.015" gradientUnits="userSpaceOnUse">
<stop stop-color="#F90D94"/>
<stop offset="1" stop-color="#4C12FA"/>
</linearGradient>
<clipPath id="clip0_242_94533">
<rect width="227.302" height="227.302" fill="white" transform="translate(11.3652 11.3633)"/>
</clipPath>
</defs>
</svg>
