<svg width="250" height="250" viewBox="0 0 250 250" fill="none" xmlns="http://www.w3.org/2000/svg">
<path d="M247.901 124.634C247.858 192.587 193.007 247.361 124.912 247.701C57.8174 248.035 0.180375 193.106 1.63637 121.868C3.00387 54.9516 57.7124 1.50158 124.635 1.53908C192.747 1.57658 247.944 56.6426 247.901 124.634ZM124.172 244.329C188.005 244.59 243.764 194.023 244.404 125.318C245.005 60.7331 193.455 5.43958 125.28 4.94558C61.3954 4.48308 8.89387 54.4346 5.24737 117.498C1.22787 187.006 56.2749 243.923 124.172 244.329Z" fill="#048EE2"/>
<path d="M74.5303 182.214C76.0283 173.957 77.4473 166.136 78.8973 158.143C81.4793 158.143 83.7083 158.151 85.9373 158.141C101.196 158.079 116.471 158.413 131.71 157.818C143.349 157.364 153.614 153.319 159.747 142.371C162.754 137.004 163.988 131.042 165.317 125.13C166.372 120.441 167.033 115.698 166.846 110.861C166.464 100.977 161.398 94.8644 151.749 92.5449C147.253 91.4639 142.705 91.0914 138.109 91.0904C123.382 91.0869 108.655 91.0989 93.9283 91.0959C92.9838 91.0959 92.0388 91.0154 90.5638 90.9484C92.0083 82.8429 93.4133 74.9579 94.8553 66.8679C96.8243 66.8679 98.5178 66.8654 100.211 66.8684C117.925 66.8974 135.646 66.6404 153.351 67.0579C165.006 67.3324 176.203 69.8359 185.259 78.0669C191.582 83.8139 194.824 91.2884 195.419 99.4954C197.082 122.477 192.947 144.147 178.343 162.736C169.399 174.122 157.065 179.67 142.932 181.628C137.198 182.423 131.44 182.346 125.681 182.354C109.674 182.375 93.6663 182.367 77.6588 182.36C76.7143 182.359 75.7713 182.274 74.5303 182.214Z" fill="#048EE2"/>
<path d="M125.84 112.525C124.425 118.216 123.802 123.668 121.545 128.623C119.027 134.149 114.174 136.546 108.372 136.592C90.4481 136.735 72.5226 136.656 54.5976 136.651C54.4136 136.651 54.2296 136.483 53.6846 136.219C54.9596 129.898 55.5786 123.25 59.4081 117.694C61.8381 114.169 65.8606 112.627 70.0011 112.592C88.4406 112.437 106.882 112.525 125.84 112.525Z" fill="#048EE2"/>
</svg>
