<svg width="250" height="250" viewBox="0 0 250 250" fill="none" xmlns="http://www.w3.org/2000/svg">
<path d="M184.615 58.5951C184.51 47.0451 175.06 37.7351 163.51 37.8051C151.855 37.8051 142.405 47.1151 142.405 58.5951V79.4201H163.44C175.095 79.4201 184.545 70.1101 184.545 58.5951" fill="#199AFF"/>
<path d="M184.615 77.2852V148.965C184.615 183.405 156.23 211.405 121.3 211.405C86.3004 211.405 57.9854 183.475 57.9854 148.965C57.9854 114.455 86.3004 86.5952 121.3 86.5952H163.51C171.525 86.5952 179.19 83.2352 184.58 77.2852M100.16 148.965C100.23 160.515 109.68 169.86 121.23 169.79C132.885 169.79 142.335 160.48 142.335 148.965V128.14H121.265C109.61 128.14 100.195 137.45 100.195 148.965" fill="#199AFF"/>
</svg>
