<svg width="250" height="250" viewBox="0 0 250 250" fill="none" xmlns="http://www.w3.org/2000/svg">
<path d="M148.634 82.1621H148.459C147.689 82.1621 147.094 82.7921 147.094 83.5271V91.9621C147.094 92.7321 147.689 93.3271 148.459 93.3271C176.669 94.0621 199.734 117.092 200.434 145.302C200.469 146.072 201.064 146.667 201.799 146.667H210.234C211.004 146.667 211.634 146.037 211.599 145.267C210.864 110.512 183.564 82.1621 148.634 82.1621Z" fill="#FF5A07"/>
<path d="M148.214 99.1699H148.109C147.549 99.1699 147.094 99.6249 147.094 100.185V108.9C147.094 109.46 147.549 109.915 148.109 109.915C167.849 109.915 184.299 126.82 184.299 145.72C184.299 146.28 184.754 146.735 185.314 146.735H193.609C194.169 146.735 194.624 146.28 194.624 145.72C194.029 120.065 173.939 99.1699 148.214 99.1699Z" fill="#FF5A07"/>
<path d="M147.829 115.338H147.759C147.374 115.338 147.094 115.653 147.094 116.003V124.788C147.094 125.138 147.374 125.453 147.759 125.453C157.069 125.453 167.954 134.868 167.954 146.033C167.954 146.383 168.269 146.698 168.619 146.698H177.789C178.174 146.698 178.454 146.383 178.454 146.033C178.069 129.128 164.804 115.338 147.829 115.338Z" fill="#FF5A07"/>
<path d="M167.746 148.698V148.523C167.746 147.753 167.116 147.158 166.381 147.158H157.946C157.176 147.158 156.581 147.753 156.581 148.523C155.846 176.733 132.816 199.798 104.606 200.498C103.836 200.533 103.241 201.128 103.241 201.863V210.298C103.241 211.068 103.871 211.698 104.641 211.663C139.396 210.928 167.746 183.628 167.746 148.698Z" fill="#FF5A07"/>
<path d="M150.736 148.278V148.173C150.736 147.613 150.281 147.158 149.721 147.158H141.006C140.446 147.158 139.991 147.613 139.991 148.173C139.991 167.913 123.086 184.363 104.186 184.363C103.626 184.363 103.171 184.818 103.171 185.378V193.673C103.171 194.233 103.626 194.688 104.186 194.688C129.841 194.093 150.736 174.003 150.736 148.278Z" fill="#FF5A07"/>
<path d="M134.566 147.893V147.823C134.566 147.438 134.251 147.158 133.901 147.158H125.116C124.766 147.158 124.451 147.438 124.451 147.823C124.451 157.133 115.036 168.018 103.871 168.018C103.521 168.018 103.206 168.333 103.206 168.683V177.853C103.206 178.238 103.521 178.518 103.871 178.518C120.776 178.133 134.566 164.868 134.566 147.893Z" fill="#FF5A07"/>
<path d="M101.454 168.017H101.629C102.399 168.017 102.994 167.387 102.994 166.652V158.217C102.994 157.447 102.399 156.852 101.629 156.852C73.4185 156.117 50.3535 133.052 49.6185 104.842C49.5835 104.072 48.9885 103.477 48.2535 103.477H39.8185C39.0485 103.477 38.4185 104.107 38.4535 104.877C39.1885 139.667 66.4885 168.017 101.454 168.017Z" fill="#FF5A07"/>
<path d="M101.839 151.006H101.944C102.504 151.006 102.959 150.551 102.959 149.991V141.276C102.959 140.716 102.504 140.261 101.944 140.261C82.2039 140.261 65.7539 123.356 65.7539 104.456C65.7539 103.896 65.2989 103.441 64.7389 103.441H56.4789C55.9189 103.441 55.4639 103.896 55.4639 104.456C56.0239 130.111 76.1139 151.006 101.839 151.006Z" fill="#FF5A07"/>
<path d="M102.222 134.837H102.292C102.677 134.837 102.957 134.522 102.957 134.172V125.387C102.957 125.037 102.677 124.722 102.292 124.722C92.9818 124.722 82.0968 115.307 82.0968 104.142C82.0968 103.792 81.7818 103.477 81.4318 103.477H72.2968C71.9118 103.477 71.6318 103.792 71.6318 104.142C71.9818 121.047 85.2468 134.837 102.222 134.837Z" fill="#FF5A07"/>
<path d="M82.5186 101.339V101.514C82.5186 102.284 83.1486 102.879 83.8836 102.879H92.3186C93.0886 102.879 93.6836 102.284 93.6836 101.514C94.4186 73.3043 117.449 50.2393 145.659 49.5393C146.429 49.5043 147.024 48.9093 147.024 48.1743V39.7043C147.024 38.9343 146.394 38.3043 145.624 38.3393C110.869 39.1093 82.5186 66.4093 82.5186 101.339Z" fill="#FF5A07"/>
<path d="M99.5303 101.76V101.865C99.5303 102.425 99.9853 102.88 100.545 102.88H109.26C109.82 102.88 110.275 102.425 110.275 101.865C110.275 82.1246 127.18 65.6746 146.08 65.6746C146.64 65.6746 147.095 65.2196 147.095 64.6596V56.3646C147.095 55.8046 146.64 55.3496 146.08 55.3496C120.425 55.9096 99.5303 76.0346 99.5303 101.76Z" fill="#FF5A07"/>
<path d="M115.698 102.145V102.215C115.698 102.6 116.013 102.88 116.363 102.88H125.148C125.498 102.88 125.813 102.6 125.813 102.215C125.813 92.9045 135.228 82.0195 146.393 82.0195C146.743 82.0195 147.058 81.7045 147.058 81.3545V72.1845C147.058 71.7995 146.743 71.5195 146.393 71.5195C129.488 71.8695 115.698 85.1345 115.698 102.145Z" fill="#FF5A07"/>
</svg>
