<svg width="250" height="250" viewBox="0 0 250 250" fill="none" xmlns="http://www.w3.org/2000/svg">
<g clip-path="url(#clip0_242_94733)">
<path d="M125 250C194.036 250 250 194.036 250 125C250 55.9644 194.036 0 125 0C55.9644 0 0 55.9644 0 125C0 194.036 55.9644 250 125 250Z" fill="#2A2463"/>
<path fill-rule="evenodd" clip-rule="evenodd" d="M105.999 248.565C102.105 228.648 101.946 208.169 109.637 191.292C116.709 175.773 124.941 163.732 132.246 153.048C148.453 129.343 160.101 112.308 144.411 78.7495C140.168 69.6765 135.773 61.306 131.642 53.438C121.3 33.7463 112.611 17.2001 112.117 0.655765C116.352 0.222167 120.65 0 125 0C194.035 0 250 55.9645 250 125C250 194.035 194.035 250 125 250C118.54 250 112.194 249.51 105.999 248.565Z" fill="#954C5D"/>
<path fill-rule="evenodd" clip-rule="evenodd" d="M113.614 0.511525C114.928 17.2669 120.48 35.6114 134.294 50.9315C169.069 89.499 189.302 112.893 189.302 147.036C189.302 174.873 164.924 221.625 120.966 249.936C122.305 249.978 123.649 250 125 250C194.035 250 249.999 194.035 249.999 125C249.999 55.9645 194.035 0 125 0C121.162 0 117.364 0.172963 113.614 0.511525Z" fill="#ED7B69"/>
<path fill-rule="evenodd" clip-rule="evenodd" d="M233.477 187.152C233.774 183.979 234.015 180.722 234.193 177.384C236.706 130.129 209.643 101.262 187.005 77.114C181.171 70.8905 175.63 64.9801 170.966 59.1496C159.622 44.9703 151.943 22.0399 147.256 1.97461C205.673 12.4727 249.999 63.5596 249.999 124.999C249.999 147.624 243.988 168.844 233.477 187.152Z" fill="#EC877B"/>
</g>
<defs>
<clipPath id="clip0_242_94733">
<rect width="250" height="250" fill="white"/>
</clipPath>
</defs>
</svg>
