<svg width="250" height="250" viewBox="0 0 250 250" fill="none" xmlns="http://www.w3.org/2000/svg">
<path d="M80.0036 161.774C78.0805 162.972 76.5234 164.005 74.9081 164.939C58.804 174.241 42.6905 183.528 26.5787 192.817C26.2532 193.004 25.916 193.172 25.4799 193.405C21.5446 191.125 17.5895 188.835 13.6348 186.544C13.6348 145.525 13.6348 104.617 13.6348 63.5936C17.5628 61.3255 21.4904 59.057 25.5359 56.7207C34.5806 61.9368 43.6358 67.137 52.6688 72.3756C61.6861 77.6052 70.8008 82.6736 80.0817 88.3163C92.0614 81.4042 104.512 74.2202 117.089 66.9636C126.942 72.6479 136.797 78.3334 146.94 84.1851C141.443 87.3597 136.217 90.3785 130.898 93.4502C126.29 90.8016 121.707 88.1669 117.068 85.5002C105.6 92.113 94.2234 98.6735 82.8252 105.247C82.8252 118.47 82.8252 131.603 82.8252 144.879C94.1647 151.424 105.538 157.988 117.06 164.638C121.633 162.01 126.214 159.377 130.886 156.692C136.164 159.733 141.398 162.749 146.945 165.945C136.832 171.781 126.988 177.46 117.084 183.175C104.572 175.954 92.1205 168.767 80.0036 161.774ZM29.6567 77.5637C29.6567 109.38 29.6567 140.825 29.6567 172.571C42.1623 165.349 54.4385 158.259 66.6714 151.193C66.6714 133.688 66.6714 116.351 66.6714 98.9376C54.3844 91.843 42.1361 84.7697 29.6567 77.5637ZM185.808 66.9397C168.969 76.6621 152.218 86.3336 135.522 95.9729C135.522 115.466 135.522 134.776 135.522 154.164C152.296 163.85 169.044 173.52 185.803 183.197C202.578 173.518 219.212 163.921 236.106 154.174C230.547 150.966 225.313 147.945 220.012 144.886C208.562 151.489 197.191 158.048 185.79 164.623C174.326 158.008 162.984 151.462 151.648 144.921C151.648 131.639 151.648 118.468 151.648 105.211C163.043 98.6387 174.415 92.0801 185.8 85.5137C197.286 92.141 208.627 98.6843 220.012 105.253C225.324 102.186 230.558 99.1633 236.1 95.9625C219.137 86.1728 202.485 76.5637 185.808 66.9397Z" fill="url(#paint0_linear_242_93387)"/>
<defs>
<linearGradient id="paint0_linear_242_93387" x1="13.6345" y1="125.063" x2="236.105" y2="125.063" gradientUnits="userSpaceOnUse">
<stop stop-color="#24C7FF"/>
<stop offset="1" stop-color="#6A5CE3"/>
</linearGradient>
</defs>
</svg>
