<svg width="250" height="250" viewBox="0 0 250 250" fill="none" xmlns="http://www.w3.org/2000/svg">
<path d="M248.598 126.002C248.098 194.652 192.198 249.602 123.998 249.102C90.1485 249.102 59.7485 235.352 37.6485 212.802C15.1485 190.252 0.898486 158.852 1.39849 124.002C1.89849 55.3518 57.7985 0.401823 125.998 0.901823C194.198 1.40182 249.098 57.3018 248.598 126.002Z" fill="black"/>
<path d="M65.6492 167.201L38.1992 213.801C38.1992 213.801 49.4992 229.001 81.3492 241.251L97.0492 198.601L107.849 170.151L118.649 138.251L122.549 127.951L123.049 126.951C123.049 126.951 123.049 126.451 123.549 126.451L124.049 125.951C124.049 125.951 124.049 125.951 124.549 125.951H125.049H125.549L126.049 126.951L127.049 129.901L128.999 135.801L136.349 158.351L142.749 178.451L153.049 209.351L160.899 230.951L164.349 242.701C164.349 242.701 189.349 235.851 210.449 214.751L195.249 191.701L185.449 174.551L175.149 154.951L166.799 137.801L159.949 122.101L154.549 105.901L149.649 90.7008L144.149 73.5008L138.749 55.3508L133.849 37.2008L128.449 17.1008L124.999 6.30078L119.099 25.4508L110.749 52.4508L104.399 72.5008L96.5492 95.5508L90.1492 114.201L82.7992 131.851L74.9492 149.001L65.6492 167.201Z" fill="white"/>
</svg>
