<svg width="250" height="250" viewBox="0 0 250 250" fill="none" xmlns="http://www.w3.org/2000/svg">
<path d="M63.3301 79.1701C50.5189 68.0223 37.8477 56.9965 25.1602 45.9564C25.5811 45.3827 26.1117 45.6503 26.5431 45.6497C40.5659 45.6319 54.5887 45.639 68.6116 45.6248C69.5173 45.6239 70.2718 45.7598 71.0072 46.4049C92.4992 65.2596 114.011 84.0913 135.522 102.924C135.794 103.162 136.094 103.369 136.216 103.938C135.638 103.938 135.061 103.938 134.484 103.938C119.201 103.938 103.918 103.907 88.6355 103.947C72.4098 103.99 58.6674 115.118 55.3479 130.822C51.5022 149.015 64.2832 167.482 82.7476 170.437C88.7953 171.405 94.8848 170.975 100.952 170.931C103.48 170.913 105.331 171.612 107.208 173.301C116.612 181.765 126.14 190.09 135.615 198.474C136.006 198.82 136.528 199.071 136.699 199.67C136.073 200.028 135.406 199.844 134.775 199.844C118.671 199.857 102.566 199.853 86.4622 199.856C57.6239 199.86 32.1969 179.039 26.2835 150.801C19.8209 119.941 36.1619 90.8801 62.5153 79.6293C62.714 79.5443 62.8948 79.4171 63.3301 79.1701Z" fill="#2972FE"/>
<path d="M224.861 199.587C224.234 200.017 223.73 199.856 223.263 199.856C209.296 199.867 195.328 199.854 181.361 199.887C180.293 199.89 179.514 199.565 178.725 198.873C159.783 182.265 140.823 165.678 121.867 149.085C119.154 146.711 116.448 144.329 113.669 141.89C114.273 141.34 114.894 141.568 115.435 141.567C130.717 141.552 145.998 141.581 161.28 141.548C177.649 141.514 191.642 130.099 194.642 114.399C198.032 96.6585 186.756 79.4967 169.048 75.4276C165.445 74.5996 161.792 74.4532 158.115 74.4879C154.336 74.5235 150.556 74.4918 146.777 74.4994C146.06 74.5008 145.42 74.4729 144.81 73.9325C134.279 64.6064 123.727 55.3044 113.183 46C113.497 45.3733 113.996 45.6436 114.367 45.6432C131.018 45.626 147.672 45.4223 164.32 45.6729C193.981 46.1196 217.546 67.0938 223.419 93.9019C228.466 116.935 222.404 137.028 205.709 153.761C200.714 158.767 194.822 162.557 188.376 165.472C187.928 165.675 187.479 165.877 187.036 166.092C186.949 166.134 186.89 166.233 186.724 166.402C199.419 177.448 212.111 188.492 224.861 199.587Z" fill="#2ED7A3"/>
</svg>
