<svg width="250" height="250" viewBox="0 0 250 250" fill="none" xmlns="http://www.w3.org/2000/svg">
<path d="M202.796 78.1861C199.195 67.3823 193.871 58.9272 186.512 52.9773C179.153 47.0274 170.072 43.113 159.268 40.9209C148.308 38.8854 135.782 37.7894 121.533 37.7894L58.2764 37.6328V212.372H121.533C135.938 212.372 148.464 210.806 159.268 207.831C170.228 204.856 179.153 199.846 186.512 192.8C193.715 185.754 199.195 176.359 202.796 164.616C206.397 152.873 208.276 138.155 208.276 120.462C208.276 103.082 206.397 88.9898 202.796 78.1861Z" fill="#B79163"/>
<path d="M58.2764 125.629V212.372H121.377C135.625 212.372 148.151 210.963 159.111 207.831C169.915 204.856 178.997 199.846 186.356 192.8C193.715 185.754 199.038 176.36 202.64 164.616C205.928 154.126 207.65 141.13 207.963 125.629H58.2764Z" fill="#8E6533"/>
<path d="M162.243 92.7488L159.111 83.1976C158.328 80.3793 153.005 74.5859 124.038 74.5859C95.0713 74.5859 89.9043 80.3793 88.9649 83.1976L85.8333 92.7488C85.6768 93.0619 85.6768 93.3751 85.6768 93.6882C85.6768 96.9763 88.182 99.4816 92.253 101.36L98.516 167.592V167.905C99.4555 176.674 121.376 176.987 124.038 176.987C126.7 176.987 148.62 176.674 149.56 167.905V167.592L155.823 101.36C159.737 99.4816 162.243 96.9763 162.243 93.6882C162.399 93.5317 162.243 93.0619 162.243 92.7488ZM124.038 81.0056C138.13 81.0056 147.368 82.7279 151.282 84.1371C147.368 85.5463 138.286 87.2686 124.038 87.2686C109.789 87.2686 100.708 85.5463 96.7937 84.1371C100.708 82.7279 109.946 81.0056 124.038 81.0056ZM143.297 166.966C142.044 168.218 135.311 170.567 124.038 170.567C112.921 170.567 106.032 168.218 104.779 166.966L103.057 148.803C110.416 151.152 120.906 151.308 124.038 151.308C127.013 151.308 137.503 151.152 145.019 148.803L143.297 166.966ZM148.151 116.235C144.706 117.644 136.407 119.367 124.195 119.367C111.982 119.367 103.683 117.644 100.238 116.235L98.9857 103.709C106.971 105.745 116.835 106.527 124.195 106.527C131.554 106.527 141.418 105.745 149.403 103.709L148.151 116.235ZM124.038 100.264C105.249 100.264 93.5056 96.1935 92.253 94.0014L93.6621 89.6173C98.2029 91.8093 106.971 93.8448 124.038 93.8448C141.105 93.8448 149.873 91.8093 154.414 89.6173L155.823 94.0014C154.257 96.1935 142.67 100.264 124.038 100.264Z" fill="white"/>
</svg>
