<svg width="250" height="250" viewBox="0 0 250 250" fill="none" xmlns="http://www.w3.org/2000/svg">
<rect width="250" height="250" rx="125" fill="white"/>
<path d="M51.8442 89.2315C49.4869 88.5344 47.0419 88.1858 44.5837 88.1858H11.3633V165.915H46.0315C48.7585 165.915 51.4685 165.486 54.0576 164.631C63.0501 161.658 78.9535 152.499 78.9535 127.05C78.9535 100.879 60.9887 91.9351 51.8442 89.2315ZM57.4935 143.971C53.9101 149.224 47.9142 152.312 41.5553 152.312H28.2608V101.788H41.2962C46.094 101.788 50.751 103.533 54.2844 106.779C58.2715 110.441 62.0558 116.654 62.0558 127.05C62.0558 134.779 60.069 140.196 57.4933 143.971L57.4935 143.971ZM115.284 107.618C93.3167 107.618 88.2474 127.895 88.2474 132.964C88.2474 138.034 84.8678 160 108.524 166.759C108.524 166.759 128.801 170.139 138.94 163.38L135.561 151.551C135.561 151.551 127.112 154.931 116.973 154.931C106.835 154.931 103.455 146.482 103.455 143.103H140.63V131.274C140.63 124.938 137.25 107.618 115.284 107.618V107.618ZM103.455 131.274C103.455 128.16 105.504 119.446 113.952 119.446C124.309 119.446 125.422 128.62 125.422 131.274H103.455ZM171.046 110.997H206.531V166.759H187.943V121.136H171.046V166.759H154.148V121.136H147.389V110.997H154.148V105.928C154.148 92.4099 165.977 82.2715 179.495 82.2715C193.013 82.2715 199.772 87.3408 199.772 87.3408L196.392 99.1692C191.323 95.7897 182.874 95.7897 182.874 95.7897C167.666 95.7897 171.046 110.997 171.046 110.997ZM238.636 156.621C238.636 162.22 234.097 166.759 228.497 166.759C222.898 166.759 218.359 162.22 218.359 156.621C218.359 151.021 222.898 146.482 228.497 146.482C234.097 146.482 238.636 151.021 238.636 156.621Z" fill="#13284C"/>
</svg>
