<svg width="250" height="250" viewBox="0 0 250 250" fill="none" xmlns="http://www.w3.org/2000/svg">
<rect width="250" height="250" rx="125" fill="#A771FA"/>
<path fill-rule="evenodd" clip-rule="evenodd" d="M66.0199 141.497L66.6858 153.846C66.7293 154.687 67.039 155.478 67.5615 156.126C71.2139 160.628 87.5889 176.335 124.49 176.335C161.391 176.335 177.568 160.831 181.356 156.21C181.927 155.513 182.255 154.647 182.309 153.737L182.969 141.506C187.362 139.052 191.897 136.279 191.897 136.279C199.028 132.346 206.986 137.995 207 146.282C207.024 159.688 196.735 173.466 182.856 182.148C167.206 191.938 143.846 196 124.5 196C105.155 196 81.794 191.938 66.1444 182.148C52.2654 173.466 41.9759 159.693 42 146.282C42.0146 137.995 49.9724 132.346 57.1029 136.279C57.1029 136.279 61.6304 139.045 66.0199 141.497Z" fill="#432187"/>
<path fill-rule="evenodd" clip-rule="evenodd" d="M124.502 53C154.718 53 162.911 53.718 175.196 55.1541H175.192C180.855 55.8176 185.394 60.106 184.973 65.9147L180.447 128.648C179.031 129.065 177.487 129.593 175.755 130.184C166.677 133.284 152.447 138.144 124.502 138.144C96.5567 138.144 82.3266 133.284 73.249 130.184C71.5154 129.592 69.9695 129.064 68.5521 128.647L64.0266 65.9147C63.61 60.106 68.1349 55.7137 73.8079 55.1541C85.9437 53.9557 98.5786 53 124.502 53ZM70.7206 158.706L70.7365 158.927L71.0487 159C70.937 158.901 70.8276 158.803 70.7206 158.706ZM177.982 158.993L178.263 158.927L178.278 158.726C178.181 158.814 178.082 158.903 177.982 158.993Z" fill="#432187"/>
</svg>
