<svg width="250" height="250" viewBox="0 0 250 250" fill="none" xmlns="http://www.w3.org/2000/svg">
<rect width="250" height="250" rx="125" fill="white"/>
<path d="M110.647 126.476V44.6207C110.647 37.4382 116.469 31.6157 123.652 31.6157C130.834 31.6157 136.657 37.4382 136.657 44.6207V82.5732C140.949 79.4707 144.859 75.8157 148.302 71.7782V44.6207C148.302 31.0207 137.252 19.9707 123.652 19.9707C110.052 19.9707 99.002 31.0207 99.002 44.6207V105.523C99.002 114.363 103.634 122.141 110.647 126.476Z" fill="black"/>
<path d="M115.32 114.15L186.21 73.2226C192.415 69.6101 200.405 71.7776 203.975 77.9826C207.545 84.1876 205.42 92.1776 199.215 95.7476L166.363 114.703C171.208 116.87 176.308 118.443 181.535 119.378L205.038 105.82C216.853 99.0201 220.848 83.9326 214.048 72.1601C207.248 60.3451 192.16 56.3501 180.388 63.1501L127.645 93.6226C119.995 98.0426 115.575 105.948 115.32 114.15Z" fill="black"/>
<path d="M205.037 142.922L152.295 112.45C144.645 108.03 135.592 108.2 128.367 112.067L199.257 152.995C205.462 156.607 207.63 164.555 204.017 170.76C200.405 176.965 192.457 179.132 186.252 175.52L153.4 156.565C153.952 161.835 155.142 167.062 156.927 172.035L180.43 185.592C192.245 192.392 207.29 188.355 214.09 176.582C220.847 164.81 216.852 149.722 205.037 142.922Z" fill="black"/>
<path d="M136.657 122.268V204.123C136.657 211.305 130.834 217.128 123.652 217.128C116.469 217.128 110.647 211.305 110.647 204.123V166.17C106.354 169.273 102.444 172.928 99.002 176.965V204.08C99.002 217.68 110.052 228.73 123.652 228.73C137.252 228.73 148.302 217.68 148.302 204.08V143.22C148.302 134.38 143.669 126.645 136.657 122.268Z" fill="black"/>
<path d="M131.979 134.634L61.0891 175.561C54.8841 179.174 46.8941 177.006 43.3241 170.801C39.7116 164.596 41.8791 156.606 48.0841 153.036L80.9366 134.081C76.0916 131.914 70.9916 130.341 65.7641 129.406L42.2616 142.964C30.4466 149.764 26.4516 164.851 33.2516 176.624C40.0516 188.439 55.1391 192.434 66.9116 185.634L119.654 155.161C127.304 150.741 131.724 142.836 131.979 134.634Z" fill="black"/>
<path d="M42.2629 105.864L95.048 136.336C102.698 140.756 111.75 140.586 118.975 136.719L48.0854 95.791C41.8804 92.1785 39.7129 84.231 43.3254 78.026C46.9379 71.821 54.8854 69.6535 61.0904 73.266L93.9429 92.221C93.3904 86.951 92.2005 81.7235 90.4155 76.751L66.9129 63.1935C55.0979 56.3935 40.0529 60.431 33.2529 72.2035C26.4104 83.976 30.4479 99.021 42.2629 105.864Z" fill="black"/>
</svg>
