<svg width="250" height="250" viewBox="0 0 250 250" fill="none" xmlns="http://www.w3.org/2000/svg">
<path d="M62.5379 222.26C60.853 221.829 59.129 221.437 57.4441 221.006C41.4575 216.971 31.5834 204.471 31.5834 188.054C31.5442 159.019 31.5442 129.946 31.5834 100.911C31.5834 83.8277 43.6909 71.2109 60.8138 70.9758C80.2485 70.7015 99.7224 70.6232 119.118 71.1717C145.645 71.9162 165.785 87.5893 171.897 111.647C181.183 148.087 153.716 175.711 124.368 178.572C116.845 179.316 109.205 179.12 101.603 179.159C99.2914 179.159 98.5861 179.943 98.5861 182.216C98.5077 192.168 106.423 200.2 117.198 200.475C137.73 200.984 155.558 193.853 170.643 180.217C188.001 164.505 197.131 144.874 195.995 121.365C194.388 88.1378 170.447 59.7696 137.377 51.7371C130.089 49.9739 122.37 49.3078 114.847 49.151C97.3714 48.7984 79.8959 49.0727 62.4203 49.0335C51.2924 48.9943 41.6142 52.2857 34.4438 61.376C34.0128 61.9246 33.3467 62.1989 32.7589 62.6299C32.4454 61.9246 31.9753 61.2585 31.8577 60.514C28.6447 44.5275 41.2616 28.6193 57.8751 28.1491C82.8346 27.4438 107.794 26.5818 132.675 29.3638C158.614 32.2633 179.773 44.4099 196.386 64.3147C210.727 81.516 218.681 101.421 218.211 123.833C217.428 161.723 200.266 190.601 167.078 209.252C148.818 219.478 128.914 223.397 108.068 220.301C90.5144 217.676 77.1531 203.257 76.4478 185.585C75.7033 166.934 75.9776 148.244 75.86 129.593C75.7817 118.269 75.7425 106.985 75.86 95.6609C75.8992 92.8789 74.8021 91.9777 72.216 92.0953C68.8071 92.252 65.3198 91.9386 61.9109 92.252C56.2686 92.7614 53.7609 95.5826 53.7217 101.225C53.6825 109.61 53.7609 118.034 53.7609 126.459C53.8001 146.912 54.0744 167.365 53.7609 187.779C53.6042 198.398 57.6008 206.705 65.2807 213.523C67.9843 215.913 70.8446 218.146 73.9009 220.654C71.9809 221.242 70.3744 221.751 68.7679 222.26C66.6912 222.26 64.6146 222.26 62.5379 222.26ZM98.5077 124.108C98.5077 134.178 98.5077 144.247 98.5077 154.278C98.5077 155.806 98.1551 157.609 100.663 157.53C108.46 157.335 116.336 157.844 124.016 156.825C139.219 154.788 151.013 141.465 151.444 126.968C151.953 110.002 142.471 97.1107 126.092 93.7801C118.099 92.1737 109.792 92.1345 101.642 91.1941C98.9387 90.8806 98.5077 91.8994 98.5077 94.2503C98.5861 104.164 98.5077 114.116 98.5077 124.108Z" fill="#0560FF"/>
</svg>
