<svg width="250" height="250" viewBox="0 0 250 250" fill="none" xmlns="http://www.w3.org/2000/svg">
<rect width="250" height="250" rx="125" fill="white"/>
<path d="M195.791 28.4059C195.791 28.4059 163.218 11.2538 125.02 11.3638C86.8212 11.2538 54.2485 28.4059 54.2485 28.4059C27.4744 40.982 30.3135 56.8034 30.3135 56.8034V169.175C30.3135 195.544 54.2485 205.281 54.2485 205.281L99.2785 233.273C109.267 238.784 121.542 238.739 125.02 238.599C128.497 238.739 140.772 238.784 150.761 233.273L195.791 205.281C195.791 205.281 219.726 195.546 219.726 169.175V56.8034C219.726 56.8034 222.565 40.982 195.791 28.4059ZM182.81 191.893L145.893 215.017C145.893 215.017 133.602 220.664 125.02 221.077C116.438 220.664 104.146 215.017 104.146 215.017L91.7496 207.252L61.7155 186.822C53.6019 182.968 58.4701 179.723 58.4701 179.723L102.689 160.453C103.703 158.019 106.543 158.628 106.543 158.628C110.599 159.236 119.118 167.553 119.118 167.553C122.161 175.261 113.439 176.275 113.439 176.275L104.92 179.114C98.0235 180.737 95.1837 187.43 95.1837 187.43C95.1837 187.43 94.778 189.053 94.5751 189.661C94.3721 190.27 92.141 191.69 92.141 191.69C90.1128 197.369 99.0376 196.761 99.0376 196.761L104.515 193.926L117.699 192.095L120.945 190.473C123.176 190.676 122.77 193.314 122.77 193.314C126.421 195.342 129.058 191.691 129.058 191.691L148.936 176.681C148.531 167.147 154.819 155.992 154.819 155.992C158.876 148.284 152.588 144.632 152.588 144.632L137.375 137.736C128.856 132.463 132.709 129.064 132.709 129.064C134.941 120.999 132.101 109.541 132.101 109.541C126.449 96.4577 132.101 94.7338 132.101 94.7338C137.373 94.7338 136.969 107.107 136.969 107.107L137.375 116.032C135.346 125.159 143.46 128.405 143.46 128.405C152.182 132.259 155.833 117.925 155.833 117.925L156.238 113.395C158.064 98.7904 165.975 91.8947 165.975 91.8947C168.206 86.4174 172.871 90.272 172.871 90.272C175.508 98.3856 167.598 97.574 167.598 97.574L170.844 99.1968C183.623 98.1827 177.74 86.6209 177.74 86.6209L174.698 79.9272C174.698 79.9272 172.872 74.8563 172.264 73.6393C171.655 72.4222 171.452 72.4222 171.047 71.8138C170.641 71.2054 169.627 67.757 169.627 67.757C169.627 67.757 168.613 65.5259 168.207 64.3088C167.801 63.0918 167.598 63.2945 167.396 62.4831C167.193 61.6718 166.99 61.0634 166.381 58.832L165.164 57.0065C164.759 56.3981 162.933 56.6009 162.122 56.8038C161.31 57.0068 161.513 57.8179 160.093 59.2377C158.674 60.6574 157.659 57.8179 157.659 57.8179C157.659 57.8179 153.963 55.2711 146.932 50.1327C139.901 44.9943 128.271 48.3295 128.271 48.3295C118.264 41.2077 111.323 50.1327 111.323 50.1327C106.005 54.0993 102.398 51.7554 102.398 51.7554L106.906 55.6318C106.545 57.7954 104.381 56.2629 104.381 56.2629C96.2676 51.6652 93.563 56.2629 93.563 56.2629C100.324 58.4263 95.7266 63.5649 95.7266 63.5649C86.0021 67.4036 83.5423 60.3468 83.306 59.5768L85.9903 68.7036C89.7767 79.5218 73.8201 81.9556 73.8201 81.9556L65.1657 87.0943H70.0337L72.4678 89.2579V93.3145C65.1637 113.598 49.7471 117.925 49.7471 117.925L49.3794 117.588V53.5579C77.1439 31.4893 115.156 30.3456 124.059 30.3968V30.4343C124.059 30.4343 124.392 30.4193 125.02 30.4079C125.648 30.4193 125.98 30.4343 125.98 30.4343V30.3968C134.883 30.3456 172.896 31.4893 200.659 53.5579V164.713C200.659 164.713 205.933 180.94 182.81 191.893Z" fill="black"/>
</svg>
