<svg width="250" height="250" viewBox="0 0 250 250" fill="none" xmlns="http://www.w3.org/2000/svg">
<path d="M249.199 188.7L149.899 16.7C148.849 14.85 146.899 13.75 144.799 13.75H105.199C103.099 13.75 101.149 14.9 100.099 16.7L0.799219 188.7C-0.250781 190.55 -0.250781 192.8 0.799219 194.6L20.5992 228.9C21.6492 230.75 23.5992 231.85 25.6992 231.85H224.299C226.399 231.85 228.349 230.7 229.399 228.9L249.199 194.6C250.249 192.8 250.249 190.55 249.199 188.7ZM108.599 25.6H134.549L60.7992 154.15C59.7492 156 59.7492 158.25 60.7992 160.05C61.8492 161.85 63.7992 163 65.8992 163H105.599H141.049L154.199 185.35H16.3992L108.599 25.6ZM124.999 135.35L134.149 151.2H115.799L124.999 135.35ZM15.8992 197.15H164.499C166.599 197.15 168.599 196 169.649 194.15C170.699 192.3 170.699 190.05 169.599 188.2L149.499 154.15L131.799 123.5L144.899 100.8L214.049 220.05H29.0992L15.8992 197.15ZM224.299 214.15L149.999 86C148.949 84.2 146.999 83.05 144.899 83.05C142.799 83.05 140.849 84.2 139.799 86L119.899 120.5L102.199 151.15H76.1492L144.799 31.5L237.249 191.65L224.299 214.15Z" fill="url(#paint0_linear_242_93393)"/>
<defs>
<linearGradient id="paint0_linear_242_93393" x1="39.4801" y1="77.0427" x2="210.518" y2="248.081" gradientUnits="userSpaceOnUse">
<stop stop-color="#0EDAAB"/>
<stop offset="1" stop-color="#2C9DE1"/>
</linearGradient>
</defs>
</svg>
