<svg width="250" height="250" viewBox="0 0 250 250" fill="none" xmlns="http://www.w3.org/2000/svg">
<rect width="250" height="250" rx="125" fill="white"/>
<g clip-path="url(#clip0_242_94541)">
<path d="M124.777 236.208L124.773 212.779L201.989 169.199L220.995 180.128L124.777 236.208Z" fill="url(#paint0_linear_242_94541)"/>
<path d="M28.9348 67.8906L47.6284 80.4629L48.0203 169.184L28.543 180.753L28.9348 67.8906Z" fill="url(#paint1_linear_242_94541)"/>
<path d="M28.543 180.75L48.5363 168.738L124.775 213.422V236.208L28.543 180.75Z" fill="url(#paint2_linear_242_94541)"/>
<path d="M119.494 221.527L124.773 226.503L129.924 221.672L141.53 227.06L125.216 236.211L108.473 226.617L119.494 221.527Z" fill="url(#paint3_linear_242_94541)"/>
<path d="M183.879 90.884L221.585 69.1094L220.715 180.132L183.531 158.598L183.879 90.884Z" fill="url(#paint4_linear_242_94541)"/>
<path d="M47.6319 80.4639L29.0312 69.1328L125.07 13.4688L221.519 69.3083L202.275 80.6391L124.947 35.8108L47.6319 80.4639Z" fill="url(#paint5_linear_242_94541)"/>
<path opacity="0.04" d="M126.238 20.9883L129.925 27.9037L210.383 75.7341L215.613 72.763L126.238 20.9883Z" fill="black"/>
<path d="M125.109 14.4276L128.466 23.9358L213.092 74.2733L221.517 69.3077L125.264 13.8945L125.109 14.4276Z" fill="url(#paint6_linear_242_94541)"/>
<path d="M124.901 14.4276L121.542 23.9358L36.9157 74.2733L28.4941 69.3077L124.747 13.8945L124.901 14.4276Z" fill="url(#paint7_linear_242_94541)"/>
<path opacity="0.04" d="M123.846 20.9883L120.438 27.9037L38.6044 74.964L34.6875 72.7114L123.846 20.9883Z" fill="black"/>
<path d="M41.1543 85.4116L47.4436 86.9556V81.6875L41.1543 85.4116Z" fill="url(#paint8_linear_242_94541)"/>
<path d="M129.832 221.77L130.231 208.97C130.231 208.97 194.537 172.329 195.128 172.23C195.72 172.131 206.476 177.519 206.476 177.519L129.832 221.77Z" fill="url(#paint9_linear_242_94541)"/>
<path d="M119.913 221.753V209.783L53.7498 172.248L43.1445 177.434L119.913 221.753Z" fill="url(#paint10_linear_242_94541)"/>
<path d="M43.8359 71.9672L53.8534 78.5251L120.439 39.0715V27.9023L43.8359 71.9672Z" fill="url(#paint11_linear_242_94541)"/>
<path d="M129.924 27.9023V39.9587L196.152 78.5251L206.204 72.5864L129.924 27.9023Z" fill="url(#paint12_linear_242_94541)"/>
<path d="M28.9375 69.4445L37.3897 74.2208L42.8157 72.2436L29.3639 69.3516" fill="url(#paint13_linear_242_94541)"/>
<path d="M29.1758 69.681L34.3509 76.1628L37.3872 74.2165L29.1758 69.5469" fill="url(#paint14_linear_242_94541)"/>
<path d="M47.8008 74.625L55.8064 80.323L120.439 43.1736V32.8125L47.8008 74.625Z" fill="url(#paint15_linear_242_94541)"/>
<path d="M129.924 32.8125V44.8688L194.027 80.323L202.033 75.0514L129.924 32.8125Z" fill="url(#paint16_linear_242_94541)"/>
<path d="M206.468 177.523L206.069 190.323L141.172 227.059L129.834 221.774L206.468 177.523Z" fill="url(#paint17_linear_242_94541)"/>
<path d="M206.278 183.717L206.086 190.326L141.185 227.067L135.848 224.577L206.278 183.717Z" fill="url(#paint18_linear_242_94541)"/>
<path d="M43.1445 177.438L43.5434 190.24L108.441 226.977L119.778 221.692L43.1445 177.438Z" fill="url(#paint19_linear_242_94541)"/>
<path d="M43.334 183.635L43.5265 190.244L108.424 226.981L113.764 224.491L43.334 183.635Z" fill="url(#paint20_linear_242_94541)"/>
<path d="M206.141 177.347L220.947 180.229L212.302 175.264L206.141 177.347Z" fill="url(#paint21_linear_242_94541)"/>
<path d="M220.868 180.2L212.303 175.262L211.34 169.234L220.868 180.2Z" fill="url(#paint22_linear_242_94541)"/>
<path d="M43.7721 177.329L29 180.369L37.5897 175.311L43.7721 177.329Z" fill="url(#paint23_linear_242_94541)"/>
<path d="M29.082 180.342L37.5926 175.312L38.4933 169.273L29.082 180.342Z" fill="url(#paint24_linear_242_94541)"/>
<path d="M28.8177 163.984L33.4289 166.333L28.5977 177.151L28.8177 163.984Z" fill="url(#paint25_linear_242_94541)"/>
<path d="M29.1993 86.9148L38.6046 81.2305V169.677L28.5977 164.051L29.1993 86.9148Z" fill="url(#paint26_linear_242_94541)"/>
<path d="M40.1828 82.0708L34.6875 76.9297L35.2342 172.233L40.1896 168.739L40.1828 82.0708Z" fill="url(#paint27_linear_242_94541)"/>
<path d="M38.6055 169.677L49.0662 163.494V86.8048L38.6055 81.2305V169.677Z" fill="url(#paint28_linear_242_94541)"/>
<path d="M208.79 85.5444L202.504 87.0918V81.8203L208.79 85.5444Z" fill="url(#paint29_linear_242_94541)"/>
<path d="M221.123 164.117L216.516 166.469L221.347 177.284L221.123 164.117Z" fill="url(#paint30_linear_242_94541)"/>
<path d="M220.742 87.0477L211.34 81.3633V169.81L221.347 164.184L220.742 87.0477Z" fill="url(#paint31_linear_242_94541)"/>
<path d="M209.762 82.2041L215.257 77.0664L214.707 172.366L209.752 168.873L209.762 82.2041Z" fill="url(#paint32_linear_242_94541)"/>
<path d="M211.341 169.81L200.877 163.63V86.9376L211.341 81.3633V169.81Z" fill="url(#paint33_linear_242_94541)"/>
<path d="M222.007 69.5187L213.554 74.295L208.125 72.3176L221.58 69.4258" fill="url(#paint34_linear_242_94541)"/>
<path d="M221.766 69.763L216.591 76.2446L213.555 74.2985L221.766 69.6289" fill="url(#paint35_linear_242_94541)"/>
<path d="M124.992 191.976L66.1398 158.605L47.6699 169.469L125.126 213.981L124.992 191.976Z" fill="url(#paint36_linear_242_94541)"/>
<path d="M66.2404 158.946L47.4714 169.624L47.4473 80.3242L66.7389 91.4868L66.2404 158.946Z" fill="url(#paint37_linear_242_94541)"/>
<path d="M66.2399 91.2082L47.4434 80.3209L124.989 35.3516L124.975 58.1336L66.2399 91.2082Z" fill="url(#paint38_linear_242_94541)"/>
<path d="M124.902 56.9301L124.988 35.3516L202.757 80.345L183.651 91.2496L124.902 56.9301Z" fill="url(#paint39_linear_242_94541)"/>
<path d="M183.81 91.0821L202.758 80.3359L202.727 169.711L183.463 158.799L183.81 91.0821Z" fill="url(#paint40_linear_242_94541)"/>
<path d="M124.908 192.316L183.76 158.945L202.728 169.709L124.773 214.321L124.908 192.316Z" fill="url(#paint41_linear_242_94541)"/>
<path d="M124.836 191.527L65.9836 158.156L47.5137 169.019L124.97 213.531L124.836 191.527Z" fill="url(#paint42_linear_242_94541)"/>
<path d="M124.75 191.866L183.601 158.496L202.57 169.263L124.615 213.871L124.75 191.866Z" fill="url(#paint43_linear_242_94541)"/>
<path d="M86.2148 102.598L101.473 112.013L125.17 98.4096L124.905 79.9258L86.2148 102.598Z" fill="url(#paint44_linear_242_94541)"/>
<path d="M69.0938 92.9344L84.3757 101.714L125.002 78.4948V59.7051L69.0938 92.9344Z" fill="url(#paint45_linear_242_94541)"/>
<path d="M125.102 98.2445L124.906 79.9258L164.147 102.447L148.731 112.013L125.102 98.2445Z" fill="url(#paint46_linear_242_94541)"/>
<path d="M124.906 78.3308V59.9434L180.794 93.1072L165.477 101.57L124.906 78.3308Z" fill="url(#paint47_linear_242_94541)"/>
<path d="M148.844 111.94L164.146 102.445L163.778 147.593L148.541 139.062L148.844 111.94Z" fill="url(#paint48_linear_242_94541)"/>
<path d="M165.477 101.568L180.993 92.957L181.258 158.298L165.367 148.731L165.477 101.568Z" fill="url(#paint49_linear_242_94541)"/>
<path d="M138.17 145.312L148.81 139.219L164.546 147.86L140.189 160.894L138.17 145.312Z" fill="url(#paint50_linear_242_94541)"/>
<path d="M140.541 163.084L165.366 148.73L181.057 158.143L142.8 180.196L140.541 163.084Z" fill="url(#paint51_linear_242_94541)"/>
<path d="M101.473 112.013L86.2148 102.598L86.5449 147.66L101.669 139.513L101.473 112.013Z" fill="url(#paint52_linear_242_94541)"/>
<path d="M84.5966 101.821L69.0566 92.8906L69.2389 158.008L84.1325 148.72L84.5966 101.821Z" fill="url(#paint53_linear_242_94541)"/>
<path d="M101.474 139.086L86.3535 147.704L109.999 161.335L112.193 144.976L101.474 139.086Z" fill="url(#paint54_linear_242_94541)"/>
<path d="M84.1318 148.723L69.2383 158.011L107.451 180.098L109.737 163.441L84.1318 148.723Z" fill="url(#paint55_linear_242_94541)"/>
<path opacity="0.74" d="M66.1994 158.95L47.4303 169.631L47.4062 80.332L66.6981 91.491L66.1994 158.95Z" fill="url(#paint56_linear_242_94541)"/>
<path opacity="0.46" d="M66.1989 91.2155L47.4023 80.3284L124.944 35.3555L124.934 58.1409L66.1989 91.2155Z" fill="url(#paint57_linear_242_94541)"/>
<path opacity="0.51" d="M124.859 56.9374L124.945 35.3555L202.718 80.3523L183.612 91.2569L124.859 56.9374Z" fill="url(#paint58_linear_242_94541)"/>
<path opacity="0.68" d="M183.769 91.0897L202.717 80.3398L202.686 169.718L183.422 158.803L183.769 91.0897Z" fill="url(#paint59_linear_242_94541)"/>
<path d="M47.4434 80.3209L124.989 35.3516L124.982 36.6033L48.7294 81.0671L47.4434 80.3209Z" fill="url(#paint60_linear_242_94541)"/>
<path d="M124.982 36.6033L201.565 81.0121L202.751 80.3381L124.989 35.3516L124.982 36.6033Z" fill="url(#paint61_linear_242_94541)"/>
<path d="M202.758 80.3359L202.727 169.711L201.406 168.961L201.564 81.0133L202.758 80.3359Z" fill="url(#paint62_linear_242_94541)"/>
<path d="M202.728 169.711L124.773 214.322L124.78 212.916L201.408 168.961L202.728 169.711Z" fill="url(#paint63_linear_242_94541)"/>
<path d="M124.779 212.913L48.7775 168.879L47.4707 169.622L124.772 214.319L124.779 212.913Z" fill="url(#paint64_linear_242_94541)"/>
<path d="M47.4714 169.624L47.4473 80.3242L48.7299 81.067L48.7781 168.881L47.4714 169.624Z" fill="url(#paint65_linear_242_94541)"/>
<path d="M86.5147 147.555V102.812L124.882 80.6697L163.4 102.878L163.582 147.297L140.209 160.808L140.594 163.683L165.886 149.071V101.351L124.882 77.8086L84.0594 101.564L83.9219 148.886L109.503 163.707L109.916 160.966L86.5147 147.555Z" fill="#DFE0DF"/>
<path d="M111.929 145.286L101.255 139.196V111.847L125.103 97.954L148.955 111.857V139.161L138.305 145.286L142.958 179.953L180.64 157.965V93.2427L124.907 60.7941L69.4598 93.1534L66.0898 91.1176L124.907 56.8945L183.918 91.0281V159.031L124.907 193.075L66.0898 159.031V91.1176L69.4598 93.1534V157.875L107.184 179.691" fill="black"/>
<path d="M26.5684 68.2L125.001 11.3633L125.015 14.4273L29.2298 69.6168V180.354L124.905 235.567L220.645 180.333V69.7716L125.015 14.4273L125.001 11.3633L223.458 68.2V181.795L125.015 238.666L26.5684 181.729V68.2Z" fill="black"/>
</g>
<defs>
<linearGradient id="paint0_linear_242_94541" x1="119.704" y1="227.422" x2="216.15" y2="171.736" gradientUnits="userSpaceOnUse">
<stop stop-color="#4EBBBF"/>
<stop offset="1" stop-color="#4D66A5"/>
</linearGradient>
<linearGradient id="paint1_linear_242_94541" x1="57.4131" y1="164.085" x2="8.64082" y2="79.6072" gradientUnits="userSpaceOnUse">
<stop offset="0.03" stop-color="#364C7A"/>
<stop offset="0.06" stop-color="#364776"/>
<stop offset="0.49" stop-color="#4E4B74"/>
<stop offset="1" stop-color="#654568"/>
</linearGradient>
<linearGradient id="paint2_linear_242_94541" x1="105.628" y1="247.262" x2="57.3535" y2="163.648" gradientUnits="userSpaceOnUse">
<stop stop-color="#4CBBBE"/>
<stop offset="0.51" stop-color="#539AB7"/>
<stop offset="0.99" stop-color="#4963A3"/>
</linearGradient>
<linearGradient id="paint3_linear_242_94541" x1="125.001" y1="236.211" x2="125.001" y2="221.527" gradientUnits="userSpaceOnUse">
<stop offset="0.01" stop-color="#49BBBA" stop-opacity="0.5"/>
<stop offset="1" stop-color="#4EB7BA" stop-opacity="0.5"/>
</linearGradient>
<linearGradient id="paint4_linear_242_94541" x1="202.558" y1="180.132" x2="202.558" y2="69.1094" gradientUnits="userSpaceOnUse">
<stop stop-color="#465173"/>
<stop offset="1" stop-color="#634468"/>
</linearGradient>
<linearGradient id="paint5_linear_242_94541" x1="125.275" y1="80.6391" x2="125.275" y2="13.4688" gradientUnits="userSpaceOnUse">
<stop offset="0.01" stop-color="#674275"/>
<stop offset="0.48" stop-color="#824A6B"/>
<stop offset="0.89" stop-color="#968360"/>
</linearGradient>
<linearGradient id="paint6_linear_242_94541" x1="209.598" y1="81.227" x2="133.763" y2="5.39524" gradientUnits="userSpaceOnUse">
<stop offset="0.01" stop-color="#7C4D7D"/>
<stop offset="0.52" stop-color="#895770"/>
<stop offset="0.89" stop-color="#917F64"/>
<stop offset="0.95" stop-color="#B57FA5"/>
</linearGradient>
<linearGradient id="paint7_linear_242_94541" x1="40.4121" y1="81.2261" x2="116.247" y2="5.39456" gradientUnits="userSpaceOnUse">
<stop offset="0.01" stop-color="#734879" stop-opacity="0.5"/>
<stop offset="0.52" stop-color="#8B5073" stop-opacity="0.5"/>
<stop offset="0.87" stop-color="#917E68" stop-opacity="0.5"/>
<stop offset="0.97" stop-color="#B77FA8"/>
</linearGradient>
<linearGradient id="paint8_linear_242_94541" x1="47.5743" y1="86.8249" x2="43.6576" y2="82.9083" gradientUnits="userSpaceOnUse">
<stop stop-color="#764578" stop-opacity="0.5"/>
<stop offset="1" stop-color="#784578" stop-opacity="0.5"/>
</linearGradient>
<linearGradient id="paint9_linear_242_94541" x1="146.371" y1="231.319" x2="184.695" y2="164.943" gradientUnits="userSpaceOnUse">
<stop stop-color="#47A3AB"/>
<stop offset="0.99" stop-color="#455E97"/>
</linearGradient>
<linearGradient id="paint10_linear_242_94541" x1="114.793" y1="226.873" x2="54.2492" y2="166.329" gradientUnits="userSpaceOnUse">
<stop offset="0.01" stop-color="#45A1AA"/>
<stop offset="1" stop-color="#445E96"/>
</linearGradient>
<linearGradient id="paint11_linear_242_94541" x1="65.1049" y1="85.0212" x2="103.671" y2="18.2215" gradientUnits="userSpaceOnUse">
<stop offset="0.01" stop-color="#623C67"/>
<stop offset="1" stop-color="#7C6655"/>
</linearGradient>
<linearGradient id="paint12_linear_242_94541" x1="195.291" y1="83.4994" x2="134.809" y2="23.0174" gradientUnits="userSpaceOnUse">
<stop offset="0.01" stop-color="#623D67"/>
<stop offset="0.99" stop-color="#7C6854"/>
</linearGradient>
<linearGradient id="paint13_linear_242_94541" x1="40.0446" y1="75.0135" x2="31.7088" y2="66.6743" gradientUnits="userSpaceOnUse">
<stop offset="0.01" stop-color="#8B597F" stop-opacity="0.5"/>
<stop offset="1" stop-color="#905382"/>
</linearGradient>
<linearGradient id="paint14_linear_242_94541" x1="36.1417" y1="75.462" x2="29.701" y2="69.0216" gradientUnits="userSpaceOnUse">
<stop offset="0.01" stop-color="#78457C"/>
<stop offset="1" stop-color="#7E477D"/>
</linearGradient>
<linearGradient id="paint15_linear_242_94541" x1="67.7641" y1="87.2271" x2="104.496" y2="23.6077" gradientUnits="userSpaceOnUse">
<stop offset="0.01" stop-color="#643D6E"/>
<stop offset="1" stop-color="#886A5D"/>
</linearGradient>
<linearGradient id="paint16_linear_242_94541" x1="191.551" y1="85.533" x2="134.377" y2="28.3592" gradientUnits="userSpaceOnUse">
<stop offset="0.01" stop-color="#653D6D"/>
<stop offset="1" stop-color="#87665E"/>
</linearGradient>
<linearGradient id="paint17_linear_242_94541" x1="189.932" y1="167.976" x2="151.613" y2="234.348" gradientUnits="userSpaceOnUse">
<stop stop-color="#546FA8"/>
<stop offset="0.99" stop-color="#68C4CC"/>
</linearGradient>
<linearGradient id="paint18_linear_242_94541" x1="190.072" y1="174.36" x2="154.771" y2="235.502" gradientUnits="userSpaceOnUse">
<stop stop-color="#587AAF"/>
<stop offset="0.99" stop-color="#68CFF3"/>
</linearGradient>
<linearGradient id="paint19_linear_242_94541" x1="59.6794" y1="167.891" x2="97.999" y2="234.266" gradientUnits="userSpaceOnUse">
<stop stop-color="#546EA8"/>
<stop offset="0.99" stop-color="#64BFC7"/>
</linearGradient>
<linearGradient id="paint20_linear_242_94541" x1="59.5413" y1="174.278" x2="94.8394" y2="235.417" gradientUnits="userSpaceOnUse">
<stop stop-color="#587BB0"/>
<stop offset="0.99" stop-color="#65CEF4"/>
</linearGradient>
<linearGradient id="paint21_linear_242_94541" x1="220.947" y1="177.746" x2="206.141" y2="177.746" gradientUnits="userSpaceOnUse">
<stop stop-color="#5678FF"/>
<stop offset="0.99" stop-color="#4E69AD" stop-opacity="0.2"/>
</linearGradient>
<linearGradient id="paint22_linear_242_94541" x1="220.868" y1="174.717" x2="211.34" y2="174.717" gradientUnits="userSpaceOnUse">
<stop stop-color="#495170"/>
<stop offset="0.99" stop-color="#48506D" stop-opacity="0.5"/>
</linearGradient>
<linearGradient id="paint23_linear_242_94541" x1="28.8472" y1="177.888" x2="43.6476" y2="177.74" gradientUnits="userSpaceOnUse">
<stop stop-color="#5678FF"/>
<stop offset="0.99" stop-color="#4E69AD" stop-opacity="0.2"/>
</linearGradient>
<linearGradient id="paint24_linear_242_94541" x1="28.8989" y1="174.861" x2="38.4197" y2="174.765" gradientUnits="userSpaceOnUse">
<stop stop-color="#495170"/>
<stop offset="0.99" stop-color="#48506D" stop-opacity="0.2"/>
</linearGradient>
<linearGradient id="paint25_linear_242_94541" x1="28.5977" y1="170.568" x2="33.4289" y2="170.568" gradientUnits="userSpaceOnUse">
<stop stop-color="#3A4EA4" stop-opacity="0.5"/>
<stop offset="0.99" stop-color="#394D97" stop-opacity="0.2"/>
</linearGradient>
<linearGradient id="paint26_linear_242_94541" x1="33.601" y1="169.677" x2="33.601" y2="81.2305" gradientUnits="userSpaceOnUse">
<stop stop-color="#3F4C73" stop-opacity="0.5"/>
<stop offset="0.99" stop-color="#614B72"/>
</linearGradient>
<linearGradient id="paint27_linear_242_94541" x1="37.4385" y1="172.233" x2="37.4385" y2="76.9297" gradientUnits="userSpaceOnUse">
<stop stop-color="#3D476B" stop-opacity="0.5"/>
<stop offset="0.99" stop-color="#5B4968" stop-opacity="0.5"/>
</linearGradient>
<linearGradient id="paint28_linear_242_94541" x1="43.8357" y1="169.677" x2="43.8357" y2="81.2305" gradientUnits="userSpaceOnUse">
<stop offset="0.01" stop-color="#313B5F"/>
<stop offset="1" stop-color="#4F3F5D"/>
</linearGradient>
<linearGradient id="paint29_linear_242_94541" x1="202.369" y1="86.957" x2="206.289" y2="83.0411" gradientUnits="userSpaceOnUse">
<stop stop-color="#764577"/>
<stop offset="1" stop-color="#774576"/>
</linearGradient>
<linearGradient id="paint30_linear_242_94541" x1="221.347" y1="170.701" x2="216.516" y2="170.701" gradientUnits="userSpaceOnUse">
<stop stop-color="#3A4EA4" stop-opacity="0.5"/>
<stop offset="0.99" stop-color="#394D97" stop-opacity="0.2"/>
</linearGradient>
<linearGradient id="paint31_linear_242_94541" x1="216.343" y1="169.81" x2="216.343" y2="81.3633" gradientUnits="userSpaceOnUse">
<stop stop-color="#4D5677"/>
<stop offset="0.99" stop-color="#604B71"/>
</linearGradient>
<linearGradient id="paint32_linear_242_94541" x1="212.505" y1="172.366" x2="212.505" y2="77.0664" gradientUnits="userSpaceOnUse">
<stop stop-color="#4C5373"/>
<stop offset="0.99" stop-color="#5D4865"/>
</linearGradient>
<linearGradient id="paint33_linear_242_94541" x1="206.109" y1="169.81" x2="206.109" y2="81.3633" gradientUnits="userSpaceOnUse">
<stop offset="0.01" stop-color="#404663"/>
<stop offset="1" stop-color="#4E3F5B"/>
</linearGradient>
<linearGradient id="paint34_linear_242_94541" x1="210.897" y1="75.0887" x2="219.235" y2="66.7476" gradientUnits="userSpaceOnUse">
<stop offset="0.01" stop-color="#8B597F" stop-opacity="0.5"/>
<stop offset="1" stop-color="#905382"/>
</linearGradient>
<linearGradient id="paint35_linear_242_94541" x1="214.8" y1="75.5441" x2="221.241" y2="69.1036" gradientUnits="userSpaceOnUse">
<stop offset="0.01" stop-color="#78457C"/>
<stop offset="1" stop-color="#7E477D"/>
</linearGradient>
<linearGradient id="paint36_linear_242_94541" x1="86.3511" y1="191.806" x2="95.9406" y2="175.2" gradientUnits="userSpaceOnUse">
<stop stop-color="#7485BE"/>
<stop offset="0.14" stop-color="#6F86B6"/>
<stop offset="0.26" stop-color="#697BA9"/>
<stop offset="0.38" stop-color="#717CA7"/>
<stop offset="0.51" stop-color="#6163B9"/>
<stop offset="0.62" stop-color="#596FAC"/>
<stop offset="0.75" stop-color="#5D6CA9"/>
<stop offset="0.88" stop-color="#5861A0"/>
<stop offset="0.99" stop-color="#5E60AF"/>
</linearGradient>
<linearGradient id="paint37_linear_242_94541" x1="47.4473" y1="124.974" x2="66.7389" y2="124.974" gradientUnits="userSpaceOnUse">
<stop stop-color="#5956B5"/>
<stop offset="0.49" stop-color="#5955AD"/>
<stop offset="0.52" stop-color="#635FBF"/>
<stop offset="0.99" stop-color="#6460B2"/>
</linearGradient>
<linearGradient id="paint38_linear_242_94541" x1="95.9553" y1="74.8836" x2="86.105" y2="57.7998" gradientUnits="userSpaceOnUse">
<stop offset="0.01" stop-color="#9D4987"/>
<stop offset="0.12" stop-color="#A14AA1"/>
<stop offset="0.25" stop-color="#B04DB1"/>
<stop offset="0.36" stop-color="#AD509F"/>
<stop offset="0.49" stop-color="#B75998"/>
<stop offset="0.59" stop-color="#AC5A91"/>
<stop offset="0.73" stop-color="#B0608F"/>
<stop offset="0.86" stop-color="#D5919C"/>
<stop offset="1" stop-color="#D89C93"/>
</linearGradient>
<linearGradient id="paint39_linear_242_94541" x1="154.677" y1="73.7501" x2="164.213" y2="57.2608" gradientUnits="userSpaceOnUse">
<stop offset="0.01" stop-color="#9D4987"/>
<stop offset="0.12" stop-color="#A14AA1"/>
<stop offset="0.25" stop-color="#B04DB1"/>
<stop offset="0.36" stop-color="#AD509F"/>
<stop offset="0.49" stop-color="#B75998"/>
<stop offset="0.59" stop-color="#AC5A91"/>
<stop offset="0.73" stop-color="#B0608F"/>
<stop offset="0.86" stop-color="#D5919C"/>
<stop offset="1" stop-color="#D89C93"/>
</linearGradient>
<linearGradient id="paint40_linear_242_94541" x1="183.463" y1="125.023" x2="202.758" y2="125.023" gradientUnits="userSpaceOnUse">
<stop offset="0.01" stop-color="#6460B4"/>
<stop offset="0.49" stop-color="#635FBD"/>
<stop offset="0.53" stop-color="#5955AD"/>
<stop offset="1" stop-color="#5956B2"/>
</linearGradient>
<linearGradient id="paint41_linear_242_94541" x1="163.836" y1="192.162" x2="154.171" y2="175.421" gradientUnits="userSpaceOnUse">
<stop stop-color="#7485BE"/>
<stop offset="0.14" stop-color="#6F86B6"/>
<stop offset="0.26" stop-color="#697BA9"/>
<stop offset="0.38" stop-color="#717CA7"/>
<stop offset="0.51" stop-color="#6163B9"/>
<stop offset="0.62" stop-color="#596FAC"/>
<stop offset="0.75" stop-color="#5D6CA9"/>
<stop offset="0.88" stop-color="#5861A0"/>
<stop offset="0.99" stop-color="#5E60AF"/>
</linearGradient>
<linearGradient id="paint42_linear_242_94541" x1="86.1949" y1="191.356" x2="95.7843" y2="174.75" gradientUnits="userSpaceOnUse">
<stop stop-color="#6E84B2" stop-opacity="0.61"/>
<stop offset="1" stop-color="#6753C9" stop-opacity="0.5"/>
</linearGradient>
<linearGradient id="paint43_linear_242_94541" x1="163.593" y1="213.871" x2="163.593" y2="158.496" gradientUnits="userSpaceOnUse">
<stop stop-color="#6E84B2" stop-opacity="0.61"/>
<stop offset="1" stop-color="#6753C9" stop-opacity="0.5"/>
</linearGradient>
<linearGradient id="paint44_linear_242_94541" x1="113.558" y1="105.114" x2="105.488" y2="91.1368" gradientUnits="userSpaceOnUse">
<stop stop-color="#999999"/>
<stop offset="0.99" stop-color="#CCCCCC"/>
</linearGradient>
<linearGradient id="paint45_linear_242_94541" x1="72.7504" y1="99.268" x2="129.07" y2="66.7512" gradientUnits="userSpaceOnUse">
<stop stop-color="#626364"/>
<stop offset="0.99" stop-color="#B3B3B3"/>
</linearGradient>
<linearGradient id="paint46_linear_242_94541" x1="131.283" y1="104.427" x2="148.708" y2="87.0053" gradientUnits="userSpaceOnUse">
<stop stop-color="#999999"/>
<stop offset="0.99" stop-color="#CCCCCC"/>
</linearGradient>
<linearGradient id="paint47_linear_242_94541" x1="226.011" y1="80.7568" x2="226.111" y2="80.7568" gradientUnits="userSpaceOnUse">
<stop stop-color="#808080"/>
<stop offset="0.99" stop-color="#4F5152"/>
</linearGradient>
<linearGradient id="paint48_linear_242_94541" x1="148.541" y1="125.019" x2="164.146" y2="125.019" gradientUnits="userSpaceOnUse">
<stop stop-color="#999999"/>
<stop offset="0.99" stop-color="#CCCCCC"/>
</linearGradient>
<linearGradient id="paint49_linear_242_94541" x1="165.367" y1="125.627" x2="181.258" y2="125.627" gradientUnits="userSpaceOnUse">
<stop offset="0.01" stop-color="#484A4B"/>
<stop offset="0.99" stop-color="#3C3D3F"/>
</linearGradient>
<linearGradient id="paint50_linear_242_94541" x1="140.735" y1="142.747" x2="155.2" y2="157.209" gradientUnits="userSpaceOnUse">
<stop stop-color="#999999"/>
<stop offset="0.99" stop-color="#CCCCCC"/>
</linearGradient>
<linearGradient id="paint51_linear_242_94541" x1="148.19" y1="155.433" x2="165.982" y2="173.221" gradientUnits="userSpaceOnUse">
<stop stop-color="#95979A"/>
<stop offset="0.99" stop-color="#616365"/>
</linearGradient>
<linearGradient id="paint52_linear_242_94541" x1="100.113" y1="140.411" x2="80.2668" y2="106.031" gradientUnits="userSpaceOnUse">
<stop stop-color="#999999"/>
<stop offset="0.99" stop-color="#CCCCCC"/>
</linearGradient>
<linearGradient id="paint53_linear_242_94541" x1="89.9273" y1="142.926" x2="54.4757" y2="107.47" gradientUnits="userSpaceOnUse">
<stop stop-color="#808080"/>
<stop offset="0.99" stop-color="#B3B3B3"/>
</linearGradient>
<linearGradient id="paint54_linear_242_94541" x1="112.133" y1="159.2" x2="93.4951" y2="140.562" gradientUnits="userSpaceOnUse">
<stop stop-color="#999999"/>
<stop offset="0.99" stop-color="#CCCCCC"/>
</linearGradient>
<linearGradient id="paint55_linear_242_94541" x1="109.737" y1="164.41" x2="69.2383" y2="164.41" gradientUnits="userSpaceOnUse">
<stop stop-color="#808080"/>
<stop offset="0.99" stop-color="#B3B3B3"/>
</linearGradient>
<linearGradient id="paint56_linear_242_94541" x1="57.0523" y1="169.631" x2="57.0523" y2="80.332" gradientUnits="userSpaceOnUse">
<stop stop-color="#2C4CA5"/>
<stop offset="0.49" stop-color="#3D31AF"/>
<stop offset="0.99" stop-color="#6B2A9D"/>
</linearGradient>
<linearGradient id="paint57_linear_242_94541" x1="71.5801" y1="94.3963" x2="110.479" y2="27.0975" gradientUnits="userSpaceOnUse">
<stop stop-color="#F95AF7"/>
<stop offset="0.39" stop-color="#BE60B7"/>
<stop offset="0.58" stop-color="#BB879A"/>
<stop offset="0.99" stop-color="#BA8D95"/>
</linearGradient>
<linearGradient id="paint58_linear_242_94541" x1="178.353" y1="93.9155" x2="139.535" y2="26.564" gradientUnits="userSpaceOnUse">
<stop offset="0.01" stop-color="#ED59EF"/>
<stop offset="0.49" stop-color="#BF58B0"/>
<stop offset="0.53" stop-color="#B57A8D"/>
<stop offset="0.96" stop-color="#B37F88"/>
<stop offset="1" stop-color="#B28285"/>
</linearGradient>
<linearGradient id="paint59_linear_242_94541" x1="193.07" y1="80.3398" x2="193.07" y2="169.718" gradientUnits="userSpaceOnUse">
<stop offset="0.01" stop-color="#73299A"/>
<stop offset="0.49" stop-color="#3B31B0"/>
<stop offset="1" stop-color="#2853A2"/>
</linearGradient>
<linearGradient id="paint60_linear_242_94541" x1="86.2159" y1="81.0671" x2="86.2159" y2="35.3516" gradientUnits="userSpaceOnUse">
<stop offset="0.01" stop-color="#FF73FF"/>
<stop offset="0.46" stop-color="#FFD7E2"/>
<stop offset="1" stop-color="#C59785"/>
</linearGradient>
<linearGradient id="paint61_linear_242_94541" x1="163.867" y1="81.0121" x2="163.867" y2="35.3516" gradientUnits="userSpaceOnUse">
<stop offset="0.01" stop-color="#FE72FF"/>
<stop offset="0.47" stop-color="#FFC8CB"/>
<stop offset="1" stop-color="#C0937E"/>
</linearGradient>
<linearGradient id="paint62_linear_242_94541" x1="202.082" y1="169.711" x2="202.082" y2="80.3359" gradientUnits="userSpaceOnUse">
<stop stop-color="#3858A0"/>
<stop offset="0.12" stop-color="#5164A9"/>
<stop offset="1" stop-color="#7E529C"/>
</linearGradient>
<linearGradient id="paint63_linear_242_94541" x1="124.556" y1="213.946" x2="202.338" y2="169.035" gradientUnits="userSpaceOnUse">
<stop offset="0.01" stop-color="#4E91A8"/>
<stop offset="0.48" stop-color="#527FCB"/>
<stop offset="1" stop-color="#5E6DE4"/>
</linearGradient>
<linearGradient id="paint64_linear_242_94541" x1="86.1246" y1="168.879" x2="86.1246" y2="214.319" gradientUnits="userSpaceOnUse">
<stop offset="0.01" stop-color="#6576FC"/>
<stop offset="0.5" stop-color="#567FCD"/>
<stop offset="1" stop-color="#4F92A4"/>
</linearGradient>
<linearGradient id="paint65_linear_242_94541" x1="48.1126" y1="80.3242" x2="48.1126" y2="169.624" gradientUnits="userSpaceOnUse">
<stop stop-color="#7D5199"/>
<stop offset="0.5" stop-color="#5D5AAD"/>
<stop offset="0.95" stop-color="#5368AA"/>
<stop offset="1" stop-color="#3C5CA1"/>
</linearGradient>
<clipPath id="clip0_242_94541">
<rect width="227.302" height="227.302" fill="white" transform="translate(11.3633 11.3633)"/>
</clipPath>
</defs>
</svg>
