<svg width="250" height="250" viewBox="0 0 250 250" fill="none" xmlns="http://www.w3.org/2000/svg">
<rect width="250" height="250" rx="125" fill="#0E0E35"/>
<path d="M58.5515 116.298C54.8515 146.098 71.4015 174.698 99.0015 186.398C110.201 191.048 122.451 192.648 134.451 190.998L180.001 236.248C145.551 253.148 105.301 253.248 70.7515 236.548C39.2515 221.298 15.6015 193.498 5.70146 159.898C-1.24854 136.248 -1.04854 111.048 6.30146 87.498L58.5515 116.298Z" fill="url(#paint0_radial_242_93395)"/>
<path d="M61.5996 118.65L6.34961 88.1505C9.04961 79.9505 12.5496 72.0505 16.6996 64.5005C32.8496 35.3005 60.2496 13.9505 92.4996 5.40047C158.6 -12.7495 226.9 26.1005 245.05 92.1505C253.8 123.95 249.5 157.95 233.15 186.6C229.1 193.7 224.35 200.45 219.05 206.75L61.5996 118.65ZM80.9496 74.8505L191.1 137.45C193.7 123.55 191.8 109.2 185.7 96.5005C169.8 63.0505 129.8 48.8505 96.3496 64.7505C90.7496 67.3505 85.5496 70.7505 80.9496 74.8505Z" fill="#7FFFD4"/>
<defs>
<radialGradient id="paint0_radial_242_93395" cx="0" cy="0" r="1" gradientUnits="userSpaceOnUse" gradientTransform="translate(80.0055 185.263) rotate(29.4365) scale(112.187 49.4986)">
<stop stop-color="#979797"/>
<stop offset="1" stop-color="#777777"/>
</radialGradient>
</defs>
</svg>
