<svg width="250" height="250" viewBox="0 0 250 250" fill="none" xmlns="http://www.w3.org/2000/svg">
<rect width="250" height="250" rx="125" fill="white"/>
<g clip-path="url(#clip0_242_94527)">
<path fill-rule="evenodd" clip-rule="evenodd" d="M132.747 45.4648H86.6367V65.5455H132.747C164.085 65.5455 189.581 92.2262 189.581 125.021C189.581 157.817 164.085 184.495 132.747 184.495H110.12V108.927H90.7722V204.577H132.747C174.753 204.577 208.929 168.888 208.929 125.021C208.929 81.1536 174.754 45.4648 132.747 45.4648Z" fill="#232A46"/>
<path fill-rule="evenodd" clip-rule="evenodd" d="M153.123 124C153.123 139.001 141.478 151.204 127.165 151.204H119.232V171.286H127.165C152.147 171.286 172.47 150.073 172.47 124C172.47 97.9278 152.147 76.7168 127.165 76.7168H61.1055V178.835H80.4535V96.7983H127.165C141.478 96.7983 153.123 109.002 153.123 124Z" fill="#F99A00"/>
</g>
<defs>
<clipPath id="clip0_242_94527">
<rect width="159.112" height="159.112" fill="white" transform="translate(55.4609 45.4629)"/>
</clipPath>
</defs>
</svg>
