<svg width="250" height="250" viewBox="0 0 250 250" fill="none" xmlns="http://www.w3.org/2000/svg">
<path fill-rule="evenodd" clip-rule="evenodd" d="M152.2 216.299V33.6492C191.5 45.3992 220.25 81.8992 220.25 124.999C220.25 168.099 191.55 204.549 152.2 216.299ZM125 2.44922V105.699L109.45 90.1492L107.45 51.3492L123.65 2.49922C113.25 2.59922 103.2 4.09922 93.6 6.64922L85.75 30.2492L63.5 19.0992C54.7 24.2492 46.55 30.3492 39.3 37.4492L80.5 58.0992L81.7 81.7492L58.1 80.5492L37.45 39.3492C30.4 46.5492 24.25 54.6992 19.1 63.4992L30.25 85.7492L6.65 93.5992C4.1 103.199 2.6 113.249 2.5 123.649L51.35 107.449L90.15 109.449L105.7 124.999L90.15 140.549L51.35 142.549L2.5 126.299C2.6 136.699 4.1 146.749 6.65 156.349L30.25 164.199L19.1 186.449C24.25 195.249 30.35 203.399 37.45 210.649L58.1 169.449L81.7 168.249L80.5 191.849L39.3 212.499C46.55 219.599 54.7 225.699 63.5 230.849L85.75 219.699L93.6 243.299C103.2 245.849 113.25 247.349 123.65 247.449L107.45 198.599L109.45 159.799L125 144.249V247.499C192.65 247.499 247.5 192.649 247.5 124.999C247.5 57.3492 192.65 2.44922 125 2.44922Z" fill="#FF00AF"/>
</svg>
