<svg width="250" height="250" viewBox="0 0 250 250" fill="none" xmlns="http://www.w3.org/2000/svg">
<path d="M119.41 0.683517C123.669 0.465517 127.411 0.413517 131.812 0.683517C135.117 0.946517 137.905 1.54152 140.956 1.93702C172.645 6.04702 199.075 20.2035 219.584 44.5745C244.416 74.0835 253.379 108.252 247.033 146.304C243.692 166.333 235.603 184.396 223.02 200.303C202.167 226.664 175.077 242.339 141.697 247.003C125.526 249.263 109.523 248.257 93.8122 244.059C70.9412 237.949 51.2832 226.258 35.1112 208.885C18.0522 190.559 7.43473 169.045 3.43173 144.311C2.71123 139.859 2.19973 135.373 1.59173 130.902C1.21673 126.662 1.27273 122.692 1.59173 118.501C1.80173 117.301 2.92273 106.669 3.69023 102.633C9.31223 73.0755 23.5422 48.4775 46.6982 29.2165C63.8707 14.933 83.5692 6.01652 105.658 2.50752C110.223 1.78252 114.71 1.06152 119.41 0.683517ZM99.2697 94.42C84.6597 94.42 70.4632 94.42 56.0877 94.42C56.0877 129.171 56.0877 163.486 56.0877 197.917C57.2662 197.971 58.1857 198.051 59.1057 198.051C83.1742 198.05 107.243 198.028 131.312 198.04C138.826 198.044 146.112 196.66 153.154 194.197C192.882 180.302 213.335 137.19 197.89 98.019C187.071 70.579 166.206 54.645 136.717 51.48C124.865 50.208 112.785 51.06 100.809 50.9665C100.427 50.9635 100.044 51.189 99.2692 51.4305C99.2697 65.5955 99.2697 79.7945 99.2697 94.42ZM55.6867 76.5115C64.4592 76.5115 72.8427 76.5115 81.2607 76.5115C81.2607 67.8315 81.2607 59.4555 81.2607 51.1605C72.5442 51.1605 64.1582 51.1605 55.6867 51.1605C55.6867 59.7075 55.6867 67.936 55.6867 76.5115Z" fill="#1241F3"/>
<path d="M99.2694 94.4212C99.2694 79.7957 99.2694 65.5967 99.2694 51.4307C100.044 51.1897 100.427 50.9637 100.809 50.9667C112.785 51.0607 124.865 50.2082 136.717 51.4802C166.206 54.6457 187.071 70.5792 197.89 98.0192C213.335 137.191 192.882 180.302 153.154 194.197C146.112 196.66 138.826 198.044 131.312 198.04C107.243 198.029 83.1744 198.05 59.1059 198.051C58.1859 198.051 57.2664 197.971 56.0879 197.917C56.0879 163.486 56.0879 129.171 56.0879 94.4202C70.4634 94.4212 84.6599 94.4212 99.2694 94.4212ZM99.8249 153.769C100.342 153.925 100.73 154.143 101.118 154.143C111.037 154.137 120.957 154.129 130.876 154.063C132.418 154.053 133.995 153.92 135.492 153.572C150.169 150.158 160.401 136.36 158.878 122.117C157.169 106.135 144.939 95.0432 128.858 94.9517C120.281 94.9032 111.702 94.9342 103.125 94.9517C102.038 94.9537 100.952 95.0942 99.8254 95.1737C99.8249 114.936 99.8249 134.332 99.8249 153.769Z" fill="white"/>
<path d="M55.6865 76.5092C55.6865 67.9337 55.6865 59.7057 55.6865 51.1582C64.158 51.1582 72.544 51.1582 81.2605 51.1582C81.2605 59.4537 81.2605 67.8292 81.2605 76.5092C72.8425 76.5092 64.459 76.5092 55.6865 76.5092Z" fill="white"/>
<path d="M99.8252 153.767C99.8252 134.33 99.8252 114.934 99.8252 95.1718C100.952 95.0923 102.038 94.9523 103.125 94.9498C111.703 94.9323 120.281 94.9013 128.858 94.9498C144.939 95.0408 157.17 106.133 158.878 122.115C160.401 136.358 150.169 150.156 135.492 153.57C133.995 153.918 132.418 154.051 130.876 154.061C120.957 154.127 111.037 154.135 101.118 154.141C100.73 154.141 100.343 153.923 99.8252 153.767Z" fill="#1241F3"/>
</svg>
