<svg width="250" height="250" viewBox="0 0 250 250" fill="none" xmlns="http://www.w3.org/2000/svg">
<rect width="250" height="250" rx="125" fill="white"/>
<g clip-path="url(#clip0_242_94537)">
<path d="M73.351 84.7867C77.254 85.1395 80.5981 88.5065 81.0263 97.7941C81.4546 107.082 75.6558 116.299 60.518 112.707C45.3801 109.116 30.87 81.3238 25.3981 69.1492C19.9263 56.9747 27.2984 57.5468 36.2136 66.1552C45.1289 74.7636 60.3588 83.6118 73.351 84.7867Z" fill="#F9EECB"/>
<path d="M74.9644 113.602C71.8153 115.246 67.0429 116.267 60.0672 114.612C43.0531 110.576 27.8625 79.4072 23.6127 69.9514C22.6375 67.782 19.6696 61.1795 23.3267 58.609C27.4561 55.695 34.6657 61.9333 37.5761 64.7432C45.7426 72.6288 60.4768 81.6529 73.5292 82.8333C76.8185 83.1306 82.4208 85.4579 82.985 97.7018C83.2577 103.614 81.2252 108.819 77.4092 111.981C76.6534 112.606 75.8339 113.149 74.9644 113.602ZM25.5686 61.8223C25.5913 61.8185 24.878 63.2071 27.1868 68.3437C29.0602 72.5119 34.1508 83.2604 40.9436 93.0262C48.0402 103.228 54.9656 109.374 60.9716 110.798C66.9345 112.213 71.7526 111.577 74.9089 108.964C77.7691 106.594 79.2858 102.554 79.0704 97.8823C78.8462 93.0207 77.6411 87.1409 73.1757 86.7358C59.1787 85.4702 43.4991 75.9103 34.8543 67.5631C29.4791 62.3729 26.1678 61.5389 25.5686 61.8223Z" fill="#3A3E44"/>
<path d="M48.5357 99.066C35.8167 85.8159 26.6524 64.4949 25.5536 61.875C25.4711 62.1637 25.126 63.7589 27.1863 68.3424C29.0597 72.5107 34.1504 83.2592 40.9431 93.025C48.0397 103.227 54.9652 109.373 60.9712 110.797C65.7411 111.929 69.7757 111.744 72.8159 110.289C72.8809 110.24 72.9209 110.208 72.9209 110.208C72.9209 110.208 62.1054 113.202 48.5357 99.066Z" fill="white"/>
<path d="M79.0727 97.8821C78.8485 93.0206 77.6434 87.1407 73.178 86.7357C62.7903 85.7962 51.477 80.2876 42.7988 74.0977C44.9582 76.7 52.5208 84.6334 67.8271 89.4392C74.7826 91.6229 79.9444 101.367 68.8743 109.514C68.8743 109.514 72.134 109.998 75.2526 108.66C77.8891 106.257 79.2793 102.363 79.0727 97.8821Z" fill="#E2D5B1"/>
<path d="M200.342 108.964C200.115 106.32 199.368 103.372 197.911 100.094C197.911 100.094 216.723 62.4715 192.425 64.039C192.425 64.039 196.344 31.1195 168.126 40.525C168.126 40.525 165.775 16.2264 139.909 27.9843C139.909 27.9843 129.72 5.25406 105.422 39.7413C105.422 39.7413 95.2324 38.1729 96.0161 49.1468C96.7999 60.1208 92.8809 71.0933 68.583 87.5532C44.285 104.013 35.1518 130.663 35.1518 130.663C35.1518 130.663 15.2856 142.42 26.2577 168.286C33.5995 157.605 40.3768 161.138 49.0043 164.842H48.9909C48.9909 164.842 43.5013 183.961 56.042 185.529C68.5828 187.096 79.556 182.394 79.556 182.394C79.556 182.394 87.9194 188.996 101.677 189.997C102.276 196.005 102.869 206.744 101.071 217.366C101.071 217.366 119.848 229.695 146.33 215.849C146.129 220.413 145.554 224.953 144.612 229.422C144.612 229.422 224.559 213.746 236.317 122.825C236.317 122.825 223.936 109.21 200.342 108.964Z" fill="#85D06E"/>
<path d="M130.501 64.0359C135.204 46.7923 131.285 37.3867 131.285 37.3867C131.285 37.3867 130.501 68.7388 114.041 86.7661C114.041 86.7661 125.798 81.2795 130.501 64.0359Z" fill="#3A3E44"/>
<path d="M158.722 49.9277C154.019 85.1989 120.315 107.929 120.315 107.929C163.424 87.5504 158.722 49.9277 158.722 49.9277Z" fill="#3A3E44"/>
<path d="M183.019 83.6328C157.938 115.769 126.487 123.458 126.487 123.458C163.227 122.526 183.019 83.6328 183.019 83.6328Z" fill="#3A3E44"/>
<path d="M94.448 146.336C99.2097 146.336 103.07 140.019 103.07 132.228C103.07 124.436 99.2097 118.119 94.448 118.119C89.6863 118.119 85.8262 124.436 85.8262 132.228C85.8262 140.019 89.6863 146.336 94.448 146.336Z" fill="#3A3E44"/>
<path d="M90.1369 127.524C92.5177 127.524 94.4477 125.594 94.4477 123.213C94.4477 120.832 92.5177 118.902 90.1369 118.902C87.7562 118.902 85.8262 120.832 85.8262 123.213C85.8262 125.594 87.7562 127.524 90.1369 127.524Z" fill="white"/>
<path d="M94.8413 130.661C95.9235 130.661 96.8007 129.784 96.8007 128.702C96.8007 127.619 95.9235 126.742 94.8413 126.742C93.7591 126.742 92.8818 127.619 92.8818 128.702C92.8818 129.784 93.7591 130.661 94.8413 130.661Z" fill="white"/>
<path d="M72.8018 87.4941C71.8516 88.1617 70.8899 88.8295 69.9007 89.4999C46.5751 105.301 37.4646 131.167 37.3737 131.426C37.1917 131.955 36.8279 132.401 36.3472 132.686C35.6569 133.1 20.2624 142.647 27.0085 163.589C27.5742 162.991 28.1775 162.43 28.8149 161.91C28.3641 156.63 28.9221 144.561 40.5366 132.23C40.5366 132.23 55.4704 99.2484 74.1303 91.364C73.645 90.1213 73.2029 88.8275 72.8018 87.4941Z" fill="#A7DB9C"/>
<path d="M153.946 224.249C158.119 193.331 138.596 176.219 138.596 176.219C142.002 181.133 152.234 198.644 147.603 226.253C149.234 225.799 151.389 225.146 153.946 224.249Z" fill="#A7DB9C"/>
<path d="M184.672 43.5477C181.166 40.6973 175.849 40.4316 168.869 42.7578C168.534 42.8698 168.178 42.9046 167.827 42.8599C167.476 42.8151 167.14 42.6918 166.844 42.4993C166.548 42.3067 166.299 42.0497 166.115 41.7476C165.932 41.4454 165.819 41.1057 165.785 40.7539C165.777 40.6741 164.843 32.1596 158.762 28.6669C154.462 26.1968 148.447 26.6894 140.882 30.1273C140.6 30.2556 140.295 30.327 139.986 30.3372C139.676 30.3474 139.367 30.2963 139.078 30.1868C138.788 30.0773 138.522 29.9116 138.297 29.6992C138.071 29.4868 137.89 29.2319 137.763 28.9492C137.742 28.9037 135.203 23.4964 130.062 23.0234C125.782 22.6238 118.37 25.4467 107.344 41.0983C107.303 41.1565 107.247 41.1976 107.201 41.251L107.402 43.1831C107.402 43.1831 128.658 17.9562 138.594 33.9446C138.594 33.9446 154.554 23.9626 164.175 44.176C164.427 44.7163 164.805 45.1888 165.276 45.5546C165.748 45.9203 166.299 46.1687 166.886 46.2794C171.78 47.1802 186.053 49.4055 186.441 64.5318C186.462 65.7526 186.955 66.9178 187.816 67.783C188.678 68.6482 189.841 69.1462 191.062 69.1724C194.868 69.2422 199.908 70.1696 202.461 74.1503C202.312 72.2776 201.863 70.6249 201.009 69.3379C199.511 67.0824 196.752 66.1147 192.575 66.3873C192.231 66.4095 191.886 66.3556 191.564 66.2296C191.243 66.1035 190.954 65.9083 190.716 65.6578C190.479 65.4073 190.3 65.1077 190.191 64.7802C190.083 64.4526 190.048 64.1052 190.088 63.7626C190.105 63.621 191.697 49.2609 184.672 43.5477Z" fill="#A7DB9C"/>
<path d="M70.1496 100.877C71.0154 100.877 71.7172 100.176 71.7172 99.3098C71.7172 98.444 71.0154 97.7422 70.1496 97.7422C69.2839 97.7422 68.582 98.444 68.582 99.3098C68.582 100.176 69.2839 100.877 70.1496 100.877Z" fill="#559740"/>
<path d="M134.424 139.281C135.722 139.281 136.775 138.228 136.775 136.929C136.775 135.631 135.722 134.578 134.424 134.578C133.125 134.578 132.072 135.631 132.072 136.929C132.072 138.228 133.125 139.281 134.424 139.281Z" fill="#559740"/>
<path d="M219.858 134.581C221.157 134.581 222.209 133.529 222.209 132.23C222.209 130.932 221.157 129.879 219.858 129.879C218.56 129.879 217.507 130.932 217.507 132.23C217.507 133.529 218.56 134.581 219.858 134.581Z" fill="#559740"/>
<path d="M229.263 133.796C230.562 133.796 231.615 132.744 231.615 131.445C231.615 130.146 230.562 129.094 229.263 129.094C227.965 129.094 226.912 130.146 226.912 131.445C226.912 132.744 227.965 133.796 229.263 133.796Z" fill="#559740"/>
<path d="M223.775 143.199C225.074 143.199 226.126 142.146 226.126 140.847C226.126 139.549 225.074 138.496 223.775 138.496C222.477 138.496 221.424 139.549 221.424 140.847C221.424 142.146 222.477 143.199 223.775 143.199Z" fill="#559740"/>
<path d="M167.343 205.908C168.642 205.908 169.695 204.855 169.695 203.556C169.695 202.258 168.642 201.205 167.343 201.205C166.045 201.205 164.992 202.258 164.992 203.556C164.992 204.855 166.045 205.908 167.343 205.908Z" fill="#559740"/>
<path d="M157.151 201.203C158.45 201.203 159.502 200.15 159.502 198.851C159.502 197.553 158.45 196.5 157.151 196.5C155.853 196.5 154.8 197.553 154.8 198.851C154.8 200.15 155.853 201.203 157.151 201.203Z" fill="#559740"/>
<path d="M170.478 195.718C171.777 195.718 172.83 194.665 172.83 193.367C172.83 192.068 171.777 191.016 170.478 191.016C169.18 191.016 168.127 192.068 168.127 193.367C168.127 194.665 169.18 195.718 170.478 195.718Z" fill="#559740"/>
<path d="M139.517 136.929C140.167 136.929 140.693 136.403 140.693 135.754C140.693 135.104 140.167 134.578 139.517 134.578C138.868 134.578 138.342 135.104 138.342 135.754C138.342 136.403 138.868 136.929 139.517 136.929Z" fill="#559740"/>
<path d="M134.031 83.6343C134.68 83.6343 135.207 83.108 135.207 82.4587C135.207 81.8095 134.68 81.2832 134.031 81.2832C133.382 81.2832 132.855 81.8095 132.855 82.4587C132.855 83.108 133.382 83.6343 134.031 83.6343Z" fill="#559740"/>
<path d="M137.56 82.0663C137.993 82.0663 138.344 81.7153 138.344 81.2822C138.344 80.8491 137.993 80.498 137.56 80.498C137.126 80.498 136.775 80.8491 136.775 81.2822C136.775 81.7153 137.126 82.0663 137.56 82.0663Z" fill="#559740"/>
<path d="M68.583 96.9628C69.016 96.9628 69.3671 96.6117 69.3671 96.1787C69.3671 95.7456 69.016 95.3945 68.583 95.3945C68.1499 95.3945 67.7988 95.7456 67.7988 96.1787C67.7988 96.6117 68.1499 96.9628 68.583 96.9628Z" fill="#559740"/>
<path d="M78.6303 180.229C79.0192 180.063 79.4458 180.004 79.8652 180.06C80.2846 180.115 80.6812 180.283 81.0133 180.545C81.1497 180.652 95.3656 191.508 116.627 186.375C124.647 184.439 130.035 180.011 133.647 175.246C133.763 175.021 133.915 174.817 134.097 174.641C138.316 168.802 139.939 162.6 140.479 159.915C138.896 159.321 137.343 158.647 135.829 157.895C135.134 162.587 131.591 177.672 114.608 180.188C94.4487 183.174 80.3403 177.687 80.3403 177.687L64.6921 179.824C63.4952 181.184 62.1571 182.412 60.7002 183.488C70.5672 183.624 78.5389 180.268 78.6303 180.229Z" fill="#75B463"/>
<path d="M144.006 214.822C144.305 204.783 142.545 196.762 140.67 191.209C139.392 187.353 137.676 183.656 135.556 180.191C130.898 185.569 124.657 189.335 117.729 190.95C113.59 191.962 109.345 192.478 105.085 192.488C104.548 192.488 104.03 192.465 103.507 192.449C104.136 196.748 104.897 205.397 103.221 216.33C107.369 218.478 123.124 225.087 144.006 214.822Z" fill="#6B9D5F"/>
<path d="M206.697 111.746C206.697 111.746 222.907 116.178 233.302 127.18C233.487 126.022 233.669 124.858 233.831 123.673C231.243 121.264 221.962 113.639 206.697 111.747V111.746Z" fill="#A7DB9C"/>
<path d="M101.896 217.664C101.896 217.664 105.816 211.393 108.951 212.177C112.086 212.961 111.302 220.799 111.302 220.799C111.302 220.799 113.653 212.177 118.356 212.961C123.059 213.745 121.492 221.583 121.492 221.583C121.492 221.583 123.06 212.961 127.762 213.745C132.464 214.529 132.465 220.799 132.465 220.799C132.465 220.799 114.437 225.502 101.896 217.664Z" fill="#D1C7B8"/>
<path d="M238.056 121.242C237.537 120.673 225.422 107.642 202.412 106.668C202.012 104.434 201.369 102.251 200.494 100.157C202.858 95.1811 211.174 76.1518 204.929 66.7385C202.842 63.594 199.489 61.894 194.939 61.6667C195.111 56.5942 194.605 45.5737 187.65 39.907C183.307 36.367 177.363 35.5701 169.957 37.5235C169.087 33.9674 166.818 27.8882 161.138 24.6068C155.862 21.558 149.059 21.6935 140.895 25.0019C139.284 22.6007 135.946 18.8647 130.55 18.3433C122.725 17.5871 113.883 23.9709 104.262 37.3176C102.37 37.2831 99.1481 37.6651 96.698 39.9245C94.3959 42.0471 93.3776 45.2061 93.6711 49.3149C94.4234 59.8519 90.2208 70.0557 67.2644 85.6071C44.6069 100.955 34.9245 124.537 33.2006 129.142C29.4854 131.773 13.7208 144.754 24.0924 169.203C24.257 169.591 24.5229 169.928 24.8622 170.178C25.2015 170.428 25.6018 170.582 26.0211 170.624C26.0996 170.632 26.1785 170.637 26.2575 170.636C26.6389 170.636 27.0145 170.544 27.3521 170.366C27.6896 170.188 27.9788 169.931 28.1948 169.617C33.9487 161.249 38.6709 162.947 46.2478 166.214C45.4763 169.936 44.3885 177.94 47.8232 183.143C49.6023 185.839 52.2695 187.427 55.75 187.862C66.4182 189.195 75.8874 186.261 79.2226 185.045C81.8793 186.831 89.0514 190.991 99.4914 192.164C100.092 195.903 101.136 205.238 99.1388 217.038C99.0753 217.414 99.1225 217.799 99.2746 218.148C99.4267 218.497 99.6771 218.794 99.9953 219.003C100.508 219.34 108.478 224.425 121.211 224.425C127.627 224.425 135.254 223.13 143.741 219.288C143.455 222.531 142.977 225.754 142.309 228.94C142.237 229.282 142.243 229.636 142.325 229.976C142.408 230.316 142.565 230.633 142.786 230.904C143.006 231.176 143.284 231.394 143.6 231.545C143.916 231.695 144.261 231.773 144.61 231.773C144.762 231.773 144.914 231.758 145.063 231.729C145.899 231.565 165.797 227.536 187.418 212.134C207.375 197.917 232.465 170.934 238.647 123.126C238.691 122.788 238.661 122.445 238.559 122.119C238.457 121.794 238.285 121.495 238.056 121.242ZM81.0126 180.548C80.6804 180.286 80.2838 180.119 79.8645 180.063C79.4451 180.007 79.0185 180.066 78.6295 180.232C78.5386 180.271 70.5664 183.627 60.6995 183.492C70.0391 176.635 71.8373 165.596 72.1782 161.646C72.4594 161.275 72.7172 160.91 72.9572 160.552C76.4067 159.125 77.9874 162.799 77.9874 162.799C77.2041 150.259 66.2311 154.177 66.2311 154.177C68.7673 154.6 69.474 155.932 69.5922 157.072C68.8394 158.338 63.0061 167.548 54.4809 164.503C52.5354 163.808 50.6691 163.001 48.8641 162.221C41.6833 159.116 34.2842 155.917 27.0098 163.589C20.2637 142.648 35.6582 133.101 36.3486 132.686C36.8292 132.401 37.193 131.955 37.375 131.426C37.4642 131.167 46.5758 105.302 69.902 89.5001C87.8521 77.3401 99.562 65.7954 98.3608 48.9798C98.175 46.3817 98.6822 44.5035 99.8682 43.3982C101.774 41.6216 105.043 42.0632 105.064 42.0655C105.414 42.1187 105.771 42.0917 106.109 41.9864C105.84 47.8315 104.964 63.6674 103.069 71.8767C103.069 71.8767 111.684 55.3491 106.911 41.5588C107.075 41.4244 107.22 41.2683 107.342 41.0949C118.369 25.4433 125.78 22.6205 130.061 23.0201C135.201 23.4931 137.741 28.9008 137.762 28.9458C137.888 29.2288 138.07 29.484 138.295 29.6967C138.521 29.9093 138.786 30.0752 139.076 30.1849C139.366 30.2945 139.675 30.3457 139.985 30.3355C140.295 30.3254 140.6 30.254 140.882 30.1255C148.446 26.6873 154.462 26.195 158.761 28.6651C164.843 32.1578 165.777 40.6724 165.785 40.7521C165.819 41.104 165.932 41.4436 166.115 41.7458C166.298 42.048 166.548 42.3049 166.844 42.4975C167.14 42.6901 167.476 42.8133 167.827 42.8581C168.177 42.9029 168.534 42.868 168.869 42.756C175.849 40.4298 181.166 40.6955 184.672 43.5459C191.695 49.2592 190.104 63.6192 190.088 63.7617C190.047 64.1044 190.083 64.4518 190.191 64.7793C190.3 65.1068 190.479 65.4064 190.716 65.6569C190.953 65.9074 191.243 66.1026 191.564 66.2287C191.885 66.3547 192.23 66.4086 192.575 66.3864C196.752 66.1136 199.511 67.0815 201.009 69.337C205.517 76.1279 198.781 93.0831 195.806 99.0434C195.651 99.3538 195.567 99.6946 195.559 100.042C195.551 100.388 195.62 100.733 195.761 101.05C198.38 106.944 198.767 112.186 196.91 116.63C194.009 123.57 186.495 126.472 186.425 126.499C186.068 126.632 185.748 126.85 185.493 127.133C185.239 127.417 185.057 127.759 184.964 128.129C184.871 128.498 184.869 128.885 184.959 129.256C185.048 129.627 185.227 129.97 185.479 130.256C187.643 132.717 187.128 134.06 186.958 134.5C185.023 139.535 169.122 143.547 158.45 144.786C157.999 144.84 157.573 145.022 157.223 145.313C156.874 145.603 156.616 145.988 156.48 146.421C156.344 146.854 156.337 147.318 156.459 147.755C156.581 148.193 156.826 148.586 157.166 148.887C157.351 149.05 161.661 152.933 159.266 155.806C156.49 159.135 146.872 158.165 137.826 153.641C127.43 148.444 119.505 152.72 119.172 152.905C118.63 153.208 118.23 153.714 118.06 154.311C117.889 154.907 117.961 155.548 118.261 156.092C118.56 156.635 119.063 157.039 119.659 157.213C120.255 157.388 120.895 157.32 121.441 157.024C121.69 156.89 127.632 153.801 135.722 157.847C137.271 158.62 138.858 159.312 140.479 159.918C139.94 162.603 138.317 168.805 134.097 174.644C133.915 174.82 133.763 175.024 133.647 175.249C130.036 180.015 124.647 184.442 116.627 186.378C95.3649 191.511 81.1496 180.655 81.0126 180.548ZM123.001 220.376C123.587 218.352 124.92 214.873 127.187 214.873C127.314 214.873 127.441 214.884 127.566 214.905C130.023 215.315 130.856 217.741 131.139 219.351C128.461 219.928 125.738 220.271 123.001 220.376ZM120.476 220.396C117.95 220.351 115.433 220.086 112.954 219.602C113.795 217.425 115.624 213.708 118.161 214.121C118.477 214.164 118.781 214.273 119.051 214.443C119.322 214.612 119.553 214.837 119.729 215.104C120.664 216.457 120.64 218.878 120.476 220.396ZM110.219 218.972C108.083 218.41 106.003 217.655 104.005 216.716C105.479 214.84 107.444 213.025 108.665 213.318C109.799 213.602 110.243 216.398 110.219 218.972ZM144.007 214.822C140.622 216.498 137.078 217.831 133.427 218.8C132.927 216.263 131.435 213.166 127.953 212.586C125.447 212.166 123.694 213.691 122.508 215.582C122.323 214.938 122.039 214.326 121.665 213.77C121.31 213.243 120.85 212.796 120.313 212.458C119.777 212.119 119.175 211.895 118.547 211.802C115.757 211.34 113.705 213.332 112.334 215.53C111.971 213.462 111.116 211.507 109.233 211.037C108.721 210.907 106.502 210.602 103.599 213.541C104.761 203.934 104.083 196.373 103.508 192.447C104.031 192.464 104.55 192.486 105.086 192.486C109.347 192.476 113.591 191.96 117.73 190.948C124.659 189.333 130.899 185.567 135.557 180.189C137.678 183.654 139.394 187.351 140.672 191.207C142.546 196.762 144.305 204.782 144.007 214.822ZM184.853 208.187C169.189 219.384 154.159 224.428 147.601 226.253C152.232 198.643 142 181.133 138.594 176.218C141.575 171.674 143.729 166.638 144.955 161.343C152.181 163.235 159.333 163.07 162.877 158.818C165.686 155.447 164.861 151.722 163.18 148.882C171.695 147.544 188.354 143.97 191.347 136.188C191.95 134.62 192.222 132.338 190.758 129.621C193.83 127.916 198.734 124.416 201.228 118.494C202.172 116.243 202.69 113.837 202.757 111.397C220.373 112.327 231.027 121.067 233.831 123.676C227.629 168.988 203.822 194.628 184.854 208.187H184.853Z" fill="#3A3E44"/>
<path d="M106.597 81.6722C109.893 83.7916 111.3 88.3238 107.381 96.7551C103.462 105.186 94.056 110.673 82.299 100.483C70.542 90.2927 70.542 58.9413 71.3258 45.6168C72.1095 32.2924 78.3801 36.2111 82.299 47.9683C86.2179 59.7255 95.6237 74.6181 106.597 81.6722Z" fill="#F9EECB"/>
<path d="M94.6906 107.969C91.1383 107.969 86.4352 106.665 81.0174 101.97C67.803 90.5174 68.7624 55.8572 69.3713 45.5079C69.5109 43.1335 69.9357 35.9071 74.367 35.3213C79.3763 34.6494 82.8799 43.516 84.1594 47.354C87.7494 58.1236 96.634 72.9424 107.658 80.0294C110.436 81.8153 114.325 86.4714 109.158 97.5863C106.663 102.953 102.453 106.627 97.6069 107.664C96.6481 107.868 95.6707 107.97 94.6906 107.969ZM74.8671 39.2075C74.8898 39.2143 73.6142 40.1154 73.2834 45.7375C73.0152 50.2994 72.5531 62.1835 74.0549 73.9841C75.6233 86.3121 78.9192 94.9655 83.5839 99.0076C88.2147 103.022 92.7805 104.687 96.7879 103.831C100.42 103.054 103.634 100.176 105.605 95.9345C107.657 91.5209 109.31 85.7513 105.539 83.3256C93.7166 75.7255 84.2417 59.9943 80.4417 48.5937C78.0798 41.5053 75.5296 39.2336 74.8671 39.2075Z" fill="#3A3E44"/>
<path d="M77.9884 82.8507C72.8457 65.2186 74.5891 42.0778 74.8289 39.2461C74.6221 39.4636 73.5788 40.7181 73.2833 45.7349C73.0151 50.2969 72.553 62.1809 74.0548 73.9815C75.6231 86.3095 78.919 94.9629 83.5837 99.005C87.2888 102.216 90.9501 103.92 94.3188 104.036C94.399 104.023 94.4495 104.014 94.4495 104.014C94.4495 104.014 83.476 101.661 77.9884 82.8507Z" fill="white"/>
<path d="M105.604 95.9271C107.656 91.5136 109.309 85.744 105.538 83.3182C96.7639 77.6775 89.2856 67.5587 84.457 58.0547C85.1671 61.3613 88.1991 71.8935 99.5431 83.2378C104.698 88.3923 104.764 99.419 91.1806 101.518C91.1806 101.518 93.8464 103.455 97.2303 103.712C100.678 102.803 103.713 99.9945 105.604 95.9271Z" fill="#E2D5B1"/>
<path d="M32.9193 142.811C32.9193 142.811 23.5137 126.351 13.3242 116.163C13.3242 116.163 32.274 112.243 45.1375 132.23C45.1375 132.229 43.8916 143.595 32.9193 142.811Z" fill="#F9EECB"/>
<path d="M33.9889 144.809C33.5961 144.809 33.1933 144.794 32.7801 144.763C32.4592 144.74 32.1488 144.639 31.8765 144.468C31.6042 144.296 31.3783 144.061 31.2187 143.781C31.1258 143.62 21.8211 127.427 11.9394 117.546C11.6893 117.296 11.5115 116.983 11.4249 116.641C11.3383 116.298 11.3461 115.938 11.4474 115.599C11.5488 115.26 11.7399 114.955 12.0005 114.716C12.2612 114.477 12.5817 114.313 12.9279 114.242C13.1325 114.2 33.3492 110.291 46.7855 131.169C47.0286 131.546 47.1347 131.995 47.086 132.442C46.6046 136.835 43.2383 144.809 33.9889 144.809ZM17.551 117.784C25.3605 126.503 32.1161 137.584 34.0675 140.888C37.2909 140.861 39.7583 139.519 41.4119 136.888C42.2064 135.584 42.7699 134.154 43.0776 132.659C34.461 119.755 23.3268 117.815 17.551 117.784Z" fill="#3A3E44"/>
<path d="M67.7984 165.934C67.7984 165.934 63.0957 177.691 55.2576 182.393C55.2576 182.393 53.1349 173.358 58.3928 169.853C63.0957 166.717 65.4469 167.501 67.7984 165.934Z" fill="#F69196"/>
<path d="M107.657 80.0266C109.561 81.2392 110.907 83.1578 111.398 85.3613C111.27 79.9345 108.319 73.175 105.046 67.2933C104.47 68.8557 103.811 70.3858 103.07 71.8771C103.476 70.1184 103.835 68.0084 104.151 65.7231C101.894 61.8362 99.5953 58.4494 98.0388 56.2637C97.4135 59.9294 96.1232 63.4499 94.2314 66.6514C98.0656 71.97 102.638 76.8002 107.657 80.0266Z" fill="#6B9D5F"/>
<path d="M111.691 201.991C112.556 201.991 113.258 201.289 113.258 200.423C113.258 199.557 112.556 198.855 111.691 198.855C110.825 198.855 110.123 199.557 110.123 200.423C110.123 201.289 110.825 201.991 111.691 201.991Z" fill="#447738"/>
<path d="M117.962 200.42C118.828 200.42 119.53 199.719 119.53 198.853C119.53 197.987 118.828 197.285 117.962 197.285C117.096 197.285 116.395 197.987 116.395 198.853C116.395 199.719 117.096 200.42 117.962 200.42Z" fill="#447738"/>
<path d="M109.339 196.498C110.205 196.498 110.907 195.797 110.907 194.931C110.907 194.065 110.205 193.363 109.339 193.363C108.473 193.363 107.771 194.065 107.771 194.931C107.771 195.797 108.473 196.498 109.339 196.498Z" fill="#447738"/>
</g>
<defs>
<clipPath id="clip0_242_94537">
<rect width="227.302" height="227.302" fill="white" transform="translate(11.3643 11.373)"/>
</clipPath>
</defs>
</svg>
