<svg width="250" height="250" viewBox="0 0 250 250" fill="none" xmlns="http://www.w3.org/2000/svg">
<path d="M25.1882 1.84766H224.811C237.701 1.84766 248.151 12.2976 248.151 25.1883V224.811C248.151 237.701 237.701 248.151 224.811 248.151H25.1882C12.2976 248.151 1.84766 237.701 1.84766 224.811V25.1883C1.84766 12.2977 12.2976 1.84766 25.1882 1.84766Z" fill="#322A3F"/>
<path d="M123.502 67.4522L76.1468 166.19H154.764C157.043 166.19 159.102 167.548 159.998 169.643L160.081 169.835C160.671 171.209 160.581 172.78 159.84 174.078C158.506 176.403 156.03 177.838 153.35 177.839H69.7978C68.5093 177.839 67.2497 177.457 66.1781 176.741L65.7371 176.45C63.9221 175.238 62.8324 173.199 62.833 171.016C62.8311 170.031 63.053 169.058 63.482 168.17L119.358 53.1815C119.942 51.9813 120.773 50.918 121.796 50.0611C123.797 48.393 126.695 48.3651 128.728 49.9945C129.169 50.3438 129.527 50.7873 129.776 51.2926L186.451 167.072C187.22 168.645 187.38 170.447 186.9 172.131C186.36 174.035 184.619 175.348 182.64 175.343H181.991C179.347 175.343 176.942 173.816 175.817 171.424L126.939 67.4689C126.499 66.5178 125.372 66.103 124.421 66.5426C124.017 66.7289 123.692 67.0508 123.502 67.4522Z" fill="#F4AE95"/>
</svg>
