<svg width="250" height="250" viewBox="0 0 250 250" fill="none" xmlns="http://www.w3.org/2000/svg">
<g clip-path="url(#clip0_242_94097)">
<path d="M48.099 94.1875L1.91152 103.113C0.636523 110.338 -0.000976562 117.662 -0.000976562 125C-0.000976562 132.812 0.724024 140.462 2.08652 147.875L48.099 155.913V94.1875ZM124.999 114.688L153.887 57.4H96.1115L124.999 114.688ZM57.3865 96.1125V153.9L114.687 125L57.3865 96.1125ZM189.424 87.3125L162.687 60.575L135.487 114.512L189.424 87.3125ZM80.299 54.45L37.199 37.2125L54.374 80.375L80.299 54.45ZM212.787 37.2L169.624 54.375L195.549 80.3L212.787 37.2ZM192.599 153.9V96.1125L135.312 125L192.599 153.9ZM212.799 212.788L195.624 169.625L169.699 195.55L212.799 212.788ZM164.912 46.25L206.087 29.875C191.999 17.8625 175.212 8.9125 156.762 4.075L164.912 46.25ZM249.999 125C249.999 117.188 249.274 109.537 247.912 102.125L201.899 94.0875V155.8L248.087 146.875C249.362 139.663 249.999 132.337 249.999 125ZM203.687 84.975L245.674 92.3125C240.787 74.2125 231.937 57.75 220.112 43.9L203.687 84.975ZM80.3615 195.625L54.4365 169.7L37.2115 212.788L80.3615 195.625ZM203.749 164.913L220.124 206.087C232.137 192 241.087 175.212 245.924 156.762L203.749 164.913ZM206.099 220.113L165.024 203.688L157.687 245.675C175.787 240.788 192.249 231.938 206.099 220.113ZM189.424 162.688L135.487 135.5L162.687 189.438L189.424 162.688ZM94.0865 48.1H155.799L146.874 1.9125C139.662 0.6375 132.337 0 124.999 0C117.187 0 109.537 0.725 102.124 2.1L94.0865 48.1ZM155.912 201.9H94.1865L103.112 248.087C110.337 249.362 117.662 250 124.999 250C132.812 250 140.449 249.275 147.874 247.913L155.912 201.9ZM124.999 135.312L96.1115 192.6H153.899L124.999 135.312ZM43.899 29.8875L84.974 46.3125L92.3115 4.325C74.2115 9.225 57.749 18.0625 43.899 29.8875ZM60.574 87.3125L114.499 114.512L87.3115 60.575L60.574 87.3125ZM46.249 85.0875L29.874 43.9125C17.849 58 8.91152 74.7875 4.07402 93.2375L46.249 85.0875ZM60.574 162.7L87.3115 189.438L114.499 135.5L60.574 162.7ZM85.0865 203.75L43.9115 220.125C57.999 232.137 74.7865 241.088 93.2365 245.925L85.0865 203.75ZM46.3115 165.025L4.32402 157.688C9.21152 175.775 18.0615 192.25 29.8865 206.1L46.3115 165.025Z" fill="#3E6492"/>
</g>
<defs>
<clipPath id="clip0_242_94097">
<rect width="250" height="250" rx="125" fill="white"/>
</clipPath>
</defs>
</svg>
