<svg width="250" height="250" viewBox="0 0 250 250" fill="none" xmlns="http://www.w3.org/2000/svg">
<rect width="250" height="250" rx="125" fill="white"/>
<g clip-path="url(#clip0_242_94543)">
<path d="M191.83 113.69C193.187 116.856 194.996 116.856 199.067 115.499C207.208 112.786 212.635 105.549 224.395 107.358C236.154 109.167 235.401 112.711 237.135 116.366C238.868 120.022 237.21 124.196 237.135 126.632C237.059 129.068 240.677 134.495 237.059 139.923C237.059 139.923 232.084 135.852 231.179 130.425C230.274 124.997 223.038 128.616 222.132 132.234C221.227 135.852 204.945 156.658 199.518 161.18C194.09 165.703 180.522 169.322 180.522 172.035C180.522 174.749 183.236 177.463 187.758 174.749C192.281 172.035 192.219 176.093 194.512 175.873C196.804 175.654 199.518 180.176 199.518 180.176C199.518 180.176 196.26 181.081 193.366 180.176C190.472 179.272 191.377 188.318 191.377 188.318L185.045 184.699C185.045 184.699 178.713 185.604 176.904 181.986C175.095 178.367 173.285 178.367 172.38 181.081C171.475 183.795 150.67 182.89 147.957 186.509C145.243 190.127 133.483 210.028 131.674 209.123C129.865 208.218 116.297 201.886 116.297 200.982C116.297 200.077 112.678 192.841 109.964 190.127C107.251 187.413 125.342 186.509 133.483 177.463C141.624 168.417 137.102 164.799 137.102 164.799C137.102 164.799 95.4918 139.471 90.0652 134.948C84.6386 130.425 73.7829 132.234 63.8325 127.711C53.8821 123.188 45.741 123.188 45.741 123.188C45.741 123.188 45.741 115.951 43.0272 115.047C40.3135 114.142 36.6953 116.856 33.9806 116.856C31.2659 116.856 28.5533 115.047 28.5533 115.047C28.5533 115.047 40.3128 110.523 39.4081 109.619C38.5035 108.715 36.6944 106.905 31.2668 108.715C25.8393 110.524 20.4138 111.429 18.6038 109.62C16.7938 107.811 33.9815 104.191 33.9815 101.478C33.9815 98.7653 23.2562 101.478 20.4777 101.478C17.6992 101.478 11.3672 100.574 11.3672 98.7648C11.3672 96.9557 20.4138 92.4326 24.9358 91.5282C29.4577 90.6237 41.2181 88.8144 36.6953 86.1006C32.1724 83.3869 20.4138 88.8144 15.8905 87.0053C11.3672 85.1962 14.9858 79.7687 22.2225 79.7687C29.4591 79.7687 87.3519 78.864 88.2566 76.1503C89.1612 73.4365 73.7833 63.4863 75.5924 59.8679C77.4015 56.2495 86.4475 58.9635 86.4475 58.9635C86.4475 58.9635 73.7833 47.204 75.5924 47.204C77.4015 47.204 83.7337 45.3949 84.639 45.3949C85.5444 45.3949 93.6857 53.5359 95.4941 51.7268C97.3025 49.9177 89.1619 42.6802 89.1619 42.6802C89.1619 42.6802 91.8757 40.8711 93.6852 40.8711C95.4948 40.8711 133.486 54.4397 137.105 57.1532C140.724 59.8668 166.956 78.8631 172.382 82.4815C177.809 86.1 177.809 90.6226 182.332 96.9546C186.855 103.287 190.473 110.524 191.83 113.69Z" fill="#007DD1"/>
</g>
<defs>
<clipPath id="clip0_242_94543">
<rect width="227.302" height="227.302" fill="white" transform="translate(11.3662 11.3633)"/>
</clipPath>
</defs>
</svg>
