<svg width="250" height="250" viewBox="0 0 250 250" fill="none" xmlns="http://www.w3.org/2000/svg">
<path d="M102.419 116.515L79.2681 76.4493L55.9134 35.976C54.5684 33.6935 52.6935 31.7371 50.4518 30.3105H50.085C47.6802 31.6963 45.7238 33.6935 44.4195 36.139L26.8933 66.4634C24.3663 70.7838 24.3663 76.164 26.8933 80.4844L47.9248 116.882C49.3921 119.409 50.1257 122.303 50.085 125.237C50.0442 128.172 49.3106 131.025 47.9248 133.593L27.0971 169.664C24.5701 173.985 24.5701 179.365 27.0971 183.685L44.6233 214.01C45.9276 216.374 47.8025 218.371 50.085 219.838H50.248C52.5712 218.534 54.5277 216.618 55.9134 214.336L79.2681 173.862L102.419 133.756C105.354 128.416 105.354 121.895 102.419 116.515Z" fill="url(#paint0_linear_242_93406)"/>
<path opacity="0.25" d="M110.855 116.515L87.6229 76.4493L64.3905 35.976C63.0455 33.6935 61.1706 31.7371 58.9289 30.3105H58.7658C56.3611 31.6963 54.4047 33.6935 53.1004 36.139L35.5742 66.4634C33.0472 70.7838 33.0472 76.164 35.5742 80.4844L56.6056 116.882C58.0729 119.409 58.8066 122.303 58.7658 125.237C58.7251 128.172 57.9914 131.025 56.6056 133.593L35.4519 169.664C32.9249 173.985 32.9249 179.365 35.4519 183.685L52.9781 214.01C54.3232 216.414 56.2796 218.411 58.6436 219.838H58.8066C61.1298 218.534 63.0455 216.618 64.3905 214.336L87.6229 173.74L110.855 133.634C113.749 128.294 113.749 121.854 110.855 116.515Z" fill="url(#paint1_linear_242_93406)"/>
<path opacity="0.25" d="M222.454 115.537L199.303 75.2679L175.377 33.6534C174.277 31.7785 172.81 30.1074 171.098 28.8031C170.242 28.0694 169.141 27.6211 168.041 27.6211C155.773 27.6211 147.417 28.0287 141.222 28.0287C140.244 28.0287 139.632 29.2107 139.877 30.1889L145.909 64.0185C145.95 64.4261 145.868 64.8337 145.746 65.2005C143.423 69.5617 143.586 74.8195 146.154 79.0177L167.593 116.353C169.101 118.961 169.916 121.936 169.916 124.912C169.916 127.928 169.101 130.863 167.593 133.471L145.787 170.806C143.341 175.045 143.178 180.262 145.379 184.623C145.542 184.99 145.583 185.398 145.542 185.805L139.469 219.39C139.306 220.368 139.877 221.55 140.814 221.55C146.48 221.55 138.491 222.121 168.448 222.121C169.101 222.08 169.753 221.958 170.364 221.713C172.524 220.939 173.951 218.371 175.051 216.293L198.977 174.719L222.128 134.449C225.837 128.702 225.959 121.407 222.454 115.537Z" fill="url(#paint2_linear_242_93406)"/>
<path d="M213.12 116.516L166.411 35.9766C163.435 30.8818 158.014 27.7434 152.104 27.6211H59.1748C55.9549 27.6211 52.8165 28.477 50.0449 30.1481V30.3112C52.3274 31.697 54.2023 33.6126 55.4658 35.9766L78.8205 76.4499C81.0622 75.4309 83.5077 74.9011 85.9532 74.8603H124.592C130.543 74.8195 136.005 78.0395 138.899 83.2158L158.177 116.475C161.112 121.651 161.112 128.01 158.177 133.186L139.102 166.649C136.127 171.743 130.706 174.882 124.796 175.004H86.4831C83.9968 175.004 81.5921 174.474 79.3504 173.415L56.118 213.969C54.7729 216.252 52.898 218.168 50.6971 219.635V219.798C53.3464 221.428 56.3625 222.284 59.4602 222.325H152.675C158.626 222.366 164.087 219.146 166.981 213.969L213.079 133.227C215.973 128.091 216.014 121.733 213.12 116.516Z" fill="url(#paint3_linear_242_93406)"/>
<defs>
<linearGradient id="paint0_linear_242_93406" x1="25.1861" y1="125.081" x2="104.549" y2="125.081" gradientUnits="userSpaceOnUse">
<stop stop-color="#00BA95"/>
<stop offset="0.52" stop-color="#00D9AD"/>
<stop offset="1" stop-color="#00F9AB"/>
</linearGradient>
<linearGradient id="paint1_linear_242_93406" x1="33.568" y1="125.081" x2="113.023" y2="125.081" gradientUnits="userSpaceOnUse">
<stop stop-color="#00BA95"/>
<stop offset="0.52" stop-color="#00D9AD"/>
<stop offset="1" stop-color="#00D9AD"/>
</linearGradient>
<linearGradient id="paint2_linear_242_93406" x1="139.398" y1="124.883" x2="224.987" y2="124.883" gradientUnits="userSpaceOnUse">
<stop stop-color="#008D85"/>
<stop offset="1" stop-color="#00FFDE"/>
</linearGradient>
<linearGradient id="paint3_linear_242_93406" x1="50.0861" y1="124.998" x2="215.103" y2="124.998" gradientUnits="userSpaceOnUse">
<stop stop-color="#008D95"/>
<stop offset="1" stop-color="#00FFDE"/>
</linearGradient>
</defs>
</svg>
