<svg width="250" height="250" viewBox="0 0 250 250" fill="none" xmlns="http://www.w3.org/2000/svg">
<path fill-rule="evenodd" clip-rule="evenodd" d="M145.471 93.9608C146.206 92.8059 146.906 91.4759 147.466 90.0759C148.446 87.6609 148.971 85.2459 149.111 83.0409C149.636 78.3859 148.516 74.6409 145.891 73.4859C143.301 72.3659 139.906 74.1159 137.001 77.6159C137.001 77.3709 137.001 77.1609 137.001 76.9159C137.001 67.2209 132.591 59.3809 127.201 59.3809C121.811 59.3809 117.401 67.2209 117.401 76.9159C117.401 77.6159 117.436 78.2809 117.471 78.9459C114.181 74.4309 109.841 72.0859 106.726 73.5909C102.841 75.4459 102.386 82.5859 105.676 89.4809C106.236 90.6359 107.461 92.6309 108.126 93.6109C66.0906 100.331 42.1506 134.456 39.1406 190.421H62.6606C65.1456 144.326 86.5656 118.321 125.241 119.126C160.766 119.861 187.926 143.171 187.541 190.421H211.061C211.481 134.701 184.111 102.606 145.471 93.9608Z" fill="#FFF700"/>
<path fill-rule="evenodd" clip-rule="evenodd" d="M105.709 146.32C102.874 146.32 100.564 148.91 100.564 152.06V166.2C100.564 169.385 102.874 171.94 105.709 171.94C108.544 171.94 110.854 169.35 110.854 166.2V152.06C110.819 148.91 108.544 146.32 105.709 146.32Z" fill="#FFF700"/>
<path fill-rule="evenodd" clip-rule="evenodd" d="M146.766 146.32C143.931 146.32 141.621 148.91 141.621 152.06V166.2C141.621 169.385 143.931 171.94 146.766 171.94C149.601 171.94 151.911 169.35 151.911 166.2V152.06C151.876 148.91 149.566 146.32 146.766 146.32Z" fill="#FFF700"/>
</svg>
