<svg width="250" height="250" viewBox="0 0 250 250" fill="none" xmlns="http://www.w3.org/2000/svg">
<path d="M63.064 63.1226C75.244 50.8726 90.784 42.5426 107.689 39.1826C124.594 35.8226 142.129 37.5376 158.019 44.1526C173.944 50.8026 187.559 62.0026 197.114 76.3876C206.704 90.7726 211.814 107.678 211.814 125.003C211.814 142.328 206.704 159.233 197.114 173.618C187.559 188.003 173.944 199.203 158.019 205.853C142.094 212.468 124.594 214.218 107.689 210.823C90.784 207.463 75.244 199.098 63.064 186.883C46.754 170.468 37.584 148.208 37.584 125.003C37.584 101.798 46.754 79.5376 63.064 63.1226ZM184.829 185.378C196.729 173.443 204.849 158.218 208.104 141.663C211.394 125.108 209.714 107.923 203.274 92.3126C196.834 76.7026 185.949 63.3326 171.949 53.9526C157.949 44.5726 141.499 39.5676 124.699 39.5676C107.899 39.5676 91.414 44.5726 77.449 53.9526C63.449 63.3326 52.564 76.6676 46.124 92.2776C39.684 107.888 38.004 125.073 41.294 141.628C44.584 158.183 52.669 173.408 64.569 185.343C80.529 201.338 102.159 210.298 124.699 210.298C147.239 210.298 168.869 201.373 184.829 185.378Z" fill="url(#paint0_linear_242_93413)"/>
<path d="M70.3793 70.4736C87.1443 53.6386 105.974 43.7336 124.839 41.9136C145.804 39.8836 166.174 48.1086 183.709 65.7136C201.244 83.3186 209.434 103.759 207.404 124.829C205.549 143.764 195.714 162.664 178.949 179.499C162.184 196.334 143.354 206.239 124.524 208.059C103.559 210.124 83.2243 201.899 65.6543 184.259C48.1543 166.654 39.8943 146.214 41.9593 125.179C43.7793 106.209 53.6143 87.3086 70.3793 70.4736ZM177.479 178.029C205.304 150.099 221.159 106.314 182.239 67.2186C143.319 28.1586 99.6743 44.0136 71.8493 71.9436C44.0243 99.9086 28.1693 143.694 67.1593 182.824C106.149 221.954 149.654 205.959 177.479 178.029Z" fill="url(#paint1_linear_242_93413)"/>
<path d="M77.693 77.8228C90.888 64.5578 106.813 50.4878 124.978 46.3928C143.808 42.1578 162.183 49.3328 181.153 68.3728C200.123 87.4128 207.263 105.858 202.993 124.723C198.898 142.888 184.828 158.883 171.633 172.148C158.438 185.413 142.513 199.518 124.418 203.648C105.623 207.918 87.248 200.743 68.313 181.738C49.343 162.698 42.168 144.253 46.403 125.318C50.463 107.083 64.498 91.0878 77.693 77.8228ZM170.163 170.678C203.133 137.533 217.378 107.713 179.683 69.8778C141.988 32.0428 112.168 46.2178 79.163 79.3278C46.158 112.403 31.948 142.258 69.748 180.198C107.583 218.173 137.158 203.788 170.163 170.678Z" fill="url(#paint2_linear_242_93413)"/>
<path d="M69.3992 100.467C71.8492 98.0169 74.4042 95.5669 76.9592 93.0819C82.2442 87.9719 87.7742 82.4069 92.8492 77.1219C106.989 62.4219 120.219 48.5619 137.229 48.4219C149.759 48.2819 163.269 55.7019 178.529 71.0669C193.824 86.4319 201.139 99.9069 200.999 112.437C200.824 129.412 187.069 142.712 172.509 156.712C167.084 161.962 161.414 167.632 156.199 173.092C142.199 187.722 128.969 201.547 112.064 201.722C99.5692 201.862 86.0942 194.477 70.8692 179.182C55.6092 163.817 48.2242 150.202 48.3292 137.637C48.5042 123.567 57.9192 112.017 69.3992 100.467ZM86.4792 86.6419C83.7842 89.3369 81.0542 91.9969 78.3942 94.5519C64.0792 108.377 50.5692 121.432 50.4292 137.637C50.3242 149.607 57.4992 162.697 72.3742 177.607C87.2492 192.517 100.199 199.692 112.099 199.587C128.129 199.412 141.079 185.902 154.764 171.587C160.014 166.127 165.684 160.387 171.144 155.137C185.389 141.382 198.829 128.397 199.004 112.297C199.144 100.362 191.969 87.3069 177.129 72.4319C162.254 57.5569 149.199 50.3469 137.264 50.4519C121.129 50.5919 108.144 64.1719 94.3542 78.5219C91.7992 81.2169 89.1742 83.9469 86.4792 86.6419Z" fill="url(#paint3_linear_242_93413)"/>
<path d="M118.573 60.9167C123.928 55.5267 129.738 51.7117 136.773 51.2567C147.588 50.5217 160.083 57.6266 176.008 73.6216C191.933 89.6166 198.933 102.007 198.198 112.892C197.358 125.352 186.088 133.927 174.188 142.957C168.378 147.402 162.288 151.987 156.968 157.342C151.648 162.697 147.063 168.752 142.618 174.632C133.588 186.602 125.048 197.907 112.658 198.782C101.843 199.517 89.4179 192.447 73.5629 176.487C57.7079 160.492 50.5329 148.032 51.2679 137.147C52.1079 124.617 63.3779 116.007 75.3129 106.837C81.0879 102.427 87.0729 97.8416 92.3579 92.5216C97.6429 87.2016 102.193 81.2167 106.603 75.4067C110.558 70.1917 114.443 65.0817 118.573 60.9167ZM187.348 129.412C192.353 124.407 195.678 119.157 196.133 112.787C196.798 102.707 189.763 90.3867 174.503 75.1266C159.243 59.8667 146.958 52.6917 136.948 53.3917C125.433 54.1617 117.488 64.6267 108.283 76.7017C103.838 82.5466 99.2179 88.6017 93.8279 94.0266C88.4379 99.4166 82.4179 104.037 76.5729 108.517C64.5329 117.757 54.1029 125.737 53.3329 137.287C52.6679 147.402 59.7379 159.757 74.9629 175.052C90.1879 190.347 102.403 197.417 112.483 196.787C123.928 196.017 131.803 185.552 140.938 173.477C145.418 167.562 150.038 161.437 155.463 155.942C160.888 150.447 166.978 145.827 172.893 141.347C178.283 137.252 183.323 133.402 187.348 129.412Z" fill="url(#paint4_linear_242_93413)"/>
<path d="M59.2129 126.259C63.6579 121.814 70.2729 118.314 77.1679 114.674C85.1479 110.509 93.4079 106.134 99.6379 99.869C105.868 93.604 110.208 85.309 114.408 77.329C120.218 66.129 125.783 55.559 135.548 54.054C144.893 52.619 156.933 59.689 173.418 76.279C189.938 92.869 196.903 104.874 195.468 114.184C193.963 123.914 183.428 129.409 172.263 135.219C164.213 139.384 155.883 143.759 149.618 150.059C143.353 156.359 139.013 164.724 134.848 172.809C129.038 184.009 123.578 194.614 113.883 196.119C104.608 197.554 92.6029 190.519 76.1179 173.999C59.6329 157.444 52.5979 145.334 53.9979 135.954C54.6629 132.209 56.4829 128.814 59.2129 126.259ZM101.108 101.339C94.6329 107.814 86.2679 112.259 78.1479 116.529C67.0179 122.374 57.3579 127.484 56.0629 136.199C54.7679 144.739 61.8029 156.604 77.5879 172.459C93.3729 188.314 105.098 195.314 113.568 194.019C122.213 192.689 127.218 182.994 132.993 171.829C137.228 163.604 141.638 155.134 148.148 148.554C154.658 142.009 163.128 137.599 171.318 133.329C182.448 127.484 192.073 122.479 193.403 113.799C194.698 105.329 187.698 93.499 171.948 77.679C156.198 61.859 144.368 54.754 135.863 56.049C127.148 57.379 122.108 67.039 116.263 78.239C111.993 86.429 107.583 94.864 101.108 101.339Z" fill="url(#paint5_linear_242_93413)"/>
<path d="M59.7393 129.168C64.1143 124.758 72.0943 122.343 80.4593 119.788C90.3293 116.778 100.549 113.663 106.989 107.223C113.429 100.783 116.509 90.5282 119.519 80.5882C122.914 69.3532 126.169 58.7132 134.114 56.6832C142.059 54.6532 153.784 61.6882 170.864 78.8732C187.944 96.0582 194.909 107.643 192.914 115.623C190.919 123.603 180.279 126.788 169.044 130.148C159.069 133.123 148.779 136.203 142.304 142.678C135.864 149.153 132.819 159.478 129.809 169.523C126.484 180.793 123.299 191.468 115.354 193.463C107.409 195.458 95.7893 188.458 78.7443 171.343C61.6993 154.228 54.5943 142.468 56.6243 134.453C57.1493 132.423 58.2343 130.603 59.7393 129.168ZM188.329 119.368C189.519 118.213 190.394 116.743 190.814 115.098C192.599 108.028 185.564 96.6532 169.324 80.3432C153.084 64.0332 141.674 56.8932 134.569 58.6782C127.709 60.3932 124.664 70.4732 121.444 81.1482C118.504 90.8432 115.179 101.833 108.389 108.658C101.599 115.483 90.6443 118.808 80.9843 121.748C70.3443 125.003 60.2993 128.048 58.5843 134.943C56.7993 142.083 63.8343 153.493 80.1443 169.838C96.4193 186.183 107.724 193.218 114.759 191.398C121.584 189.648 124.559 179.568 127.744 168.858C130.649 159.058 133.939 147.963 140.764 141.138C147.589 134.278 158.649 130.988 168.379 128.083C176.569 125.703 184.374 123.393 188.329 119.368Z" fill="url(#paint6_linear_242_93413)"/>
<path d="M129.459 61.127C130.334 60.252 131.384 59.587 132.539 59.167C139.469 56.752 150.459 63.612 168.274 81.497C186.054 99.382 192.844 110.337 190.429 117.232C188.014 124.127 177.374 125.177 165.054 126.507C153.854 127.697 141.184 129.062 134.954 135.327C128.724 141.592 127.394 154.297 126.169 165.532C124.839 177.922 123.684 188.632 116.929 191.012C110.174 193.427 99.1138 186.602 81.3688 168.752C63.5538 150.937 56.6588 139.842 59.0738 132.912C61.4888 125.982 72.0938 124.862 84.3788 123.462C95.4738 122.202 108.039 120.767 114.234 114.572C120.429 108.377 121.829 95.707 123.089 84.577C124.279 74.357 125.294 65.292 129.459 61.127ZM187.034 118.772C187.664 118.142 188.154 117.407 188.434 116.567C190.499 110.722 183.429 99.732 166.769 83.037C150.074 66.342 139.084 59.132 133.204 61.197C127.639 63.157 126.449 73.727 125.189 84.857C123.894 96.337 122.459 109.357 115.739 116.077C109.019 122.797 96.0688 124.267 84.6238 125.562C73.4938 126.822 62.9938 128.012 61.0338 133.612C58.9688 139.527 66.0738 150.552 82.7688 167.317C99.4638 184.082 110.349 191.152 116.194 189.052C121.759 187.092 122.844 176.522 124.069 165.287C125.294 153.702 126.694 140.577 133.449 133.787C140.204 127.032 153.259 125.632 164.809 124.372C174.329 123.392 183.359 122.412 187.034 118.772Z" fill="url(#paint7_linear_242_93413)"/>
<path d="M129.003 62.7731C129.528 62.2481 130.158 61.8281 130.823 61.5131C136.738 58.8881 147.448 65.8531 165.683 84.1231C183.918 102.393 190.743 113.068 188.153 118.948C185.563 124.828 173.943 124.338 160.608 123.638C147.833 122.973 133.378 122.168 127.638 127.943C121.898 133.683 122.633 148.208 123.368 161.053C124.068 174.423 124.698 186.043 118.713 188.703C112.903 191.328 102.158 184.398 84.0284 166.163C65.8984 147.928 58.8984 137.113 61.5234 131.163C64.1484 125.213 75.6634 125.668 88.9634 126.333C101.633 126.928 115.983 127.628 121.688 121.888C127.393 116.148 126.693 101.763 126.098 89.0231C125.468 77.2631 124.943 66.8681 129.003 62.7731ZM185.423 119.263C185.773 118.948 186.053 118.563 186.263 118.108C188.398 113.313 180.978 102.393 164.248 85.5931C147.518 68.7931 136.493 61.2681 131.663 63.4031C126.868 65.5381 127.498 77.4031 128.093 88.9531C128.758 102.743 129.423 116.988 123.088 123.393C116.753 129.798 102.543 129.098 88.8234 128.398C77.3434 127.838 65.4784 127.278 63.3784 132.003C61.2784 136.728 68.6634 147.823 85.4634 164.658C102.228 181.493 113.078 188.878 117.838 186.743C122.598 184.608 121.898 172.673 121.268 161.088C120.533 147.193 119.763 132.808 126.168 126.403C132.573 119.998 146.853 120.768 160.713 121.503C171.178 122.133 181.993 122.728 185.423 119.263Z" fill="url(#paint8_linear_242_93413)"/>
<defs>
<linearGradient id="paint0_linear_242_93413" x1="186.544" y1="63.3865" x2="62.8019" y2="186.619" gradientUnits="userSpaceOnUse">
<stop stop-color="#414FA2"/>
<stop offset="1" stop-color="#EE4492"/>
</linearGradient>
<linearGradient id="paint1_linear_242_93413" x1="183.95" y1="65.9681" x2="65.4109" y2="184.019" gradientUnits="userSpaceOnUse">
<stop stop-color="#574EA0"/>
<stop offset="1" stop-color="#D84594"/>
</linearGradient>
<linearGradient id="paint2_linear_242_93413" x1="181.32" y1="68.5564" x2="67.9929" y2="181.416" gradientUnits="userSpaceOnUse">
<stop stop-color="#6C4C9E"/>
<stop offset="1" stop-color="#C34796"/>
</linearGradient>
<linearGradient id="paint3_linear_242_93413" x1="178.7" y1="71.1446" x2="70.5815" y2="178.818" gradientUnits="userSpaceOnUse">
<stop stop-color="#824B9C"/>
<stop offset="1" stop-color="#AD4898"/>
</linearGradient>
<linearGradient id="paint4_linear_242_93413" x1="176.12" y1="73.7335" x2="73.2638" y2="176.166" gradientUnits="userSpaceOnUse">
<stop stop-color="#984A9A"/>
<stop offset="1" stop-color="#984A9A"/>
</linearGradient>
<linearGradient id="paint5_linear_242_93413" x1="173.54" y1="76.3857" x2="75.8411" y2="173.681" gradientUnits="userSpaceOnUse">
<stop stop-color="#AD4898"/>
<stop offset="1" stop-color="#824B9C"/>
</linearGradient>
<linearGradient id="paint6_linear_242_93413" x1="170.968" y1="79.0015" x2="78.49" y2="171.098" gradientUnits="userSpaceOnUse">
<stop stop-color="#C34796"/>
<stop offset="1" stop-color="#6C4C9E"/>
</linearGradient>
<linearGradient id="paint7_linear_242_93413" x1="168.355" y1="81.6058" x2="81.0772" y2="168.524" gradientUnits="userSpaceOnUse">
<stop stop-color="#D84594"/>
<stop offset="1" stop-color="#574EA0"/>
</linearGradient>
<linearGradient id="paint8_linear_242_93413" x1="165.801" y1="84.2301" x2="83.76" y2="165.932" gradientUnits="userSpaceOnUse">
<stop stop-color="#EE4492"/>
<stop offset="1" stop-color="#414FA2"/>
</linearGradient>
</defs>
</svg>
