<svg width="250" height="250" viewBox="0 0 250 250" fill="none" xmlns="http://www.w3.org/2000/svg">
<rect width="250" height="250" rx="125" fill="white"/>
<g clip-path="url(#clip0_242_94540)">
<path d="M125.016 238.666C187.784 238.666 238.668 187.782 238.668 125.015C238.668 62.2467 187.784 11.3633 125.016 11.3633C62.2486 11.3633 11.3652 62.2467 11.3652 125.015C11.3652 187.782 62.2486 238.666 125.016 238.666Z" fill="#855FE8"/>
<path d="M115.085 97.707V151.641C122.257 151.641 150.256 147.787 150.256 116.738C150.256 109.772 149.168 104.076 147.301 99.4293C142.945 98.609 137.344 97.707 133.773 97.707H115.085Z" fill="#401B76"/>
<path d="M234.36 156.115L156.223 79.1855C163.283 87.4521 168.463 99.5875 168.463 117.155C168.463 163.222 124.602 168.941 120.644 168.941H80.4658L148.261 236.287C189.723 227.67 222.907 196.463 234.36 156.115Z" fill="#401B76"/>
<path d="M161.163 86.2285C165.569 93.9411 168.462 104.029 168.462 117.154C168.462 163.221 124.602 168.94 120.644 168.94H98.1201V186.319H138.298C142.257 186.319 186.117 180.6 186.117 134.533C186.117 107.369 173.734 93.196 161.163 86.2285Z" fill="#9F82EB"/>
<path d="M121.981 62.8125H80.4658V168.942H120.644C124.602 168.942 168.463 163.223 168.463 117.156C168.463 72.1921 134.533 62.8125 121.981 62.8125ZM115.085 151.642H98.1204V80.1125H113.706C129.705 80.1125 150.256 86.4338 150.256 116.739C150.257 147.787 122.257 151.642 115.085 151.642V151.642Z" fill="white"/>
</g>
<defs>
<clipPath id="clip0_242_94540">
<rect width="227.302" height="227.302" fill="white" transform="translate(11.3652 11.3633)"/>
</clipPath>
</defs>
</svg>
