<svg width="250" height="250" viewBox="0 0 250 250" fill="none" xmlns="http://www.w3.org/2000/svg">
<rect width="250" height="250" rx="125" fill="white"/>
<g clip-path="url(#clip0_242_94542)">
<path d="M212.208 62.5596C212.208 62.5596 201.611 45.2418 160.512 41.8816C119.414 38.5214 56.0879 70.3139 56.0879 70.3139L104.423 61.7842C173.436 49.8944 185.412 88.6658 185.412 88.6658C197.129 119.338 162.666 140.706 162.666 140.706C113.728 163.796 99.0818 147.082 99.0818 147.082C87.0196 133.641 108.215 122.268 108.215 122.268C132.856 110.551 143.195 120.717 143.195 120.717C141.386 113.997 133.89 112.187 133.89 112.187C95.1186 104.95 85.2964 132.607 85.2964 132.607C79.6099 155.094 99.771 159.488 99.771 159.488C117.606 166.726 147.072 159.488 147.072 159.488C147.072 159.488 178.606 155.094 206.004 121.751C233.402 88.4075 212.208 62.5596 212.208 62.5596Z" fill="#4A54F6"/>
<path d="M64.6183 161.36C58.7595 146.023 64.446 133.013 71.5972 123.838C77.887 115.767 86.2346 109.538 95.6908 105.629C137.984 88.1468 150.95 102.944 150.95 102.944C163.012 116.385 141.817 127.758 141.817 127.758C117.175 139.475 106.836 129.308 106.836 129.308C108.646 136.029 116.141 137.838 116.141 137.838C154.913 145.075 164.735 117.418 164.735 117.418C169.718 97.7115 154.851 91.9002 151.098 90.7644C150.435 90.5639 149.781 90.3393 149.131 90.1033C131.21 83.5979 102.959 90.5369 102.959 90.5369C102.959 90.5369 71.4248 94.9312 44.0271 128.275C16.6293 161.618 37.8229 187.466 37.8229 187.466C37.8229 187.466 48.4204 204.784 89.519 208.144C130.618 211.504 193.943 179.712 193.943 179.712L145.607 188.241C76.5945 200.131 64.6183 161.36 64.6183 161.36Z" fill="#4A54F6"/>
</g>
<defs>
<clipPath id="clip0_242_94542">
<rect width="190.025" height="190.025" fill="white" transform="translate(30.0039 30.0039)"/>
</clipPath>
</defs>
</svg>
