<svg width="250" height="250" viewBox="0 0 250 250" fill="none" xmlns="http://www.w3.org/2000/svg">
<g clip-path="url(#clip0_242_94765)">
<path d="M125.002 250C194.038 250 250.002 194.036 250.002 125C250.002 55.9644 194.038 0 125.002 0C55.9664 0 0.00195312 55.9644 0.00195312 125C0.00195312 194.036 55.9664 250 125.002 250Z" fill="#EDF0F4"/>
<path d="M85.0098 46.8242L92.2848 38.084L124.951 77.3905L157.568 38.084L164.844 46.8242L99.5113 125.487L124.951 156.102L150.39 125.487L131.103 102.293L138.379 93.5525L161.23 121.092C161.377 121.287 161.523 121.434 161.621 121.629L164.844 125.535L132.177 164.842L164.844 204.149L157.568 212.889L85.0098 125.535L86.3278 123.924C86.4258 123.778 86.4743 123.68 86.5723 123.533L117.627 86.131L85.0098 46.8242Z" fill="black"/>
<path d="M85.0586 204.151L112.354 171.289L119.629 180.03L92.2851 212.891L85.0586 204.151Z" fill="black"/>
</g>
<defs>
<clipPath id="clip0_242_94765">
<rect width="250" height="250" fill="white"/>
</clipPath>
</defs>
</svg>
