<svg width="250" height="250" viewBox="0 0 250 250" fill="none" xmlns="http://www.w3.org/2000/svg">
<g clip-path="url(#clip0_242_94101)">
<path d="M104.334 76.0485C100.418 75.9222 96.6279 76.9328 93.2171 78.954C87.6587 82.3648 80.9634 87.5442 74.8997 95.1238C58.9826 115.083 59.1089 137.696 59.3616 144.517C59.6142 149.823 61.8881 178.878 86.5218 199.848C105.723 216.145 126.946 217.913 133.894 218.166C138.947 218.418 165.349 218.924 187.583 198.585C210.701 177.489 211.838 149.697 211.964 144.896C212.217 140.854 212.343 135.548 211.332 129.358C210.448 123.8 208.932 119.126 207.542 115.462C203.753 113.441 198.321 110.157 193.015 104.725C187.457 99.0399 184.172 93.2289 182.277 89.1864C181.898 87.5442 181.267 85.2703 179.751 82.8701C177.224 78.8277 173.94 76.8065 172.171 75.9222C175.456 75.4169 182.656 74.9116 190.488 78.4487C194.657 80.3436 197.689 82.8701 199.71 84.765C200.089 83.7544 200.721 81.6069 200.342 79.0803C199.963 76.0485 198.573 73.901 197.815 73.0167C200.342 74.2799 209.185 78.954 213.606 89.4391C216.512 96.5134 216.259 102.83 215.88 105.862C218.912 110.536 222.702 117.484 225.355 126.453C227.881 134.79 228.513 142.244 228.513 147.676C228.765 153.866 229.65 187.468 203.879 214.755C172.929 247.473 130.104 242.799 125.557 242.168C128.209 243.684 131.62 245.2 135.663 246.337C145.769 249.116 154.485 247.6 159.412 246.337C148.674 249.368 128.336 253.284 105.344 246.21C52.4136 229.788 37.5071 170.667 36.4965 166.751C37.3808 173.446 38.7704 180.647 40.6653 188.226C43.5708 200.48 47.3606 211.218 51.1504 220.44C45.0867 213.871 37.0018 203.386 30.5592 188.858C22.9796 171.804 21.211 156.645 20.832 147.044C20.9584 136.559 22.6006 118.242 32.2014 98.4083C45.8447 70.1112 67.5728 55.4573 77.0473 49.7726C76.2893 49.7726 75.2787 49.52 74.1418 49.0146C71.8679 48.004 70.6046 46.3618 70.0993 45.6038C73.6365 45.0985 78.0579 44.0879 82.9846 42.193C87.9114 40.2981 91.8275 38.0243 94.733 36.1294C86.9008 32.9712 77.9316 28.9287 68.4571 23.3704C59.3616 18.0647 51.5294 12.5063 45.213 7.45326L57.593 14.1486L48.1185 5.93734C56.2034 11.3694 66.4359 17.1804 78.6895 22.2334C87.1534 25.7706 95.112 28.2971 102.186 30.192C98.2701 28.0445 93.5961 25.0126 88.922 20.8439C81.0897 14.0222 76.0367 6.6953 73.0048 1.26326C76.2893 4.16877 79.7001 6.94795 82.9846 9.85346L74.3944 0C81.4687 6.94795 91.4485 15.2855 104.586 22.4861C112.04 26.5285 119.114 29.5604 125.304 31.8343C130.736 32.7185 136.042 33.6028 141.474 34.4871C143.116 34.7398 146.022 35.4977 148.801 37.7716C149.938 38.6559 150.822 39.6665 151.454 40.4245C152.212 41.4351 153.222 42.572 154.359 43.7089C156.254 45.6038 158.023 47.1198 159.791 48.2567L185.309 47.8777C186.951 47.8777 188.088 49.3936 187.709 50.9095C186.446 55.9626 183.793 63.1632 177.35 68.8479C175.835 70.2375 174.192 71.3744 172.676 72.2587C173.687 70.8691 175.077 68.8479 175.961 66.0687C176.593 64.0475 176.971 62.2789 177.098 60.8893C176.087 61.8999 174.95 63.0369 173.308 64.0475C170.908 65.6897 168.508 66.574 166.865 67.0793C167.75 65.9424 168.634 64.4265 169.518 62.7842C170.403 61.142 171.034 59.4997 171.539 58.1102C169.771 58.2365 167.244 58.4891 164.213 59.7524C160.928 61.0157 158.654 62.7842 157.265 64.0475C157.265 62.9106 157.517 61.521 158.023 59.8787C158.402 58.7418 158.907 57.7312 159.286 56.9732C158.528 56.4679 157.77 56.0889 156.886 55.5836C153.727 54.194 150.822 54.194 148.927 54.3204C147.032 54.3204 141.979 54.6993 137.052 58.2365C135.284 59.4997 133.894 60.8893 132.757 62.2789C130.357 65.3108 130.483 69.7322 133.136 72.6377V72.764C134.273 73.901 135.536 74.7852 136.673 75.2905C140.589 77.1854 145.137 76.8065 148.927 74.7852C149.053 74.6589 149.18 74.6589 149.306 74.5326C150.822 73.6483 151.959 72.6377 152.717 71.7534C152.843 72.6377 152.969 74.4063 152.338 76.5538C151.833 78.3224 150.948 79.5856 150.317 80.2173C151.833 80.4699 153.601 80.5963 155.622 80.5963C159.159 80.4699 161.939 79.5856 163.834 78.8277C162.57 81.6069 159.791 87.0389 153.854 91.5867C149.306 95.1238 144.758 96.766 141.979 97.3977C142.99 95.8818 144.127 93.7342 144.885 90.955C145.137 90.1971 145.264 89.4391 145.39 88.8075C145.769 86.9126 145.011 85.0177 143.495 83.7544C141.726 82.2385 139.832 82.1122 139.2 81.9858H128.715C125.051 81.9858 121.514 82.4911 117.977 83.5018C116.082 84.0071 114.061 84.5124 111.913 84.8913C106.608 85.902 101.807 86.4073 97.7648 86.5336C100.67 86.0283 105.723 84.765 110.524 80.9752C112.292 79.5856 113.682 78.0697 114.693 76.8065L104.334 76.0485Z" fill="#EFB13B"/>
</g>
<defs>
<clipPath id="clip0_242_94101">
<rect width="250" height="250" rx="125" fill="white"/>
</clipPath>
</defs>
</svg>
