<svg width="250" height="250" viewBox="0 0 250 250" fill="none" xmlns="http://www.w3.org/2000/svg">
<path d="M157.187 80.9388C157.187 80.9388 159.922 78.2032 161.166 75.4672C161.166 75.4672 158.181 71.9844 161.166 68.5029C161.166 68.5029 161.912 64.031 158.678 61.5386C158.678 61.5386 164.399 57.0667 170.866 64.7716C170.866 64.7716 172.855 63.2802 174.596 65.7673C174.596 65.7673 193.748 70.7415 187.53 105.315L157.187 80.9388Z" fill="#1797E5"/>
<path d="M187.982 106.517L156.206 80.992L156.723 80.4747C156.752 80.446 159.162 78.018 160.404 75.5421C160.123 75.1365 159.683 74.4043 159.416 73.4705C159.041 72.1583 158.941 70.198 160.54 68.2296C160.624 67.4407 160.822 64.0187 158.278 62.058L157.608 61.5421L158.274 61.0217C158.339 60.9709 159.891 59.7781 162.302 59.6112C163.713 59.5135 165.128 59.7855 166.508 60.4197C168.068 61.1365 169.584 62.3205 171.019 63.9431C171.428 63.7653 172.036 63.5963 172.735 63.7079C173.586 63.8437 174.346 64.346 174.997 65.2021C175.444 65.3456 176.49 65.7278 177.827 66.5202C179.43 67.4704 181.79 69.2257 183.928 72.1923C186.315 75.505 187.948 79.6249 188.78 84.4377C189.811 90.4059 189.609 97.4689 188.177 105.43L187.982 106.517ZM158.154 80.874L187.075 104.107C188.301 96.7777 188.444 90.267 187.501 84.7398C186.713 80.131 185.173 76.1945 182.922 73.0403C181.82 71.4968 179.939 69.3163 177.231 67.6927C175.609 66.7197 174.442 66.405 174.431 66.4019L174.199 66.3406L174.06 66.1436C173.596 65.4807 173.085 65.0978 172.543 65.0061C171.838 64.8874 171.262 65.2959 171.256 65.2997L170.759 65.6725L170.365 65.1933C168.966 63.527 167.499 62.3289 166.004 61.6321C164.834 61.0868 163.641 60.8456 162.46 60.916C161.302 60.9846 160.37 61.3426 159.781 61.6394C162.481 64.381 161.845 68.4266 161.815 68.6107L161.785 68.791L161.666 68.9299C159.092 71.9312 161.561 74.916 161.667 75.0416L161.936 75.3587L161.765 75.7385C160.802 77.8546 159.024 79.928 158.154 80.874Z" fill="#122A44"/>
<path d="M167.759 77.0849C167.759 77.0849 169.995 77.8307 171.24 76.5879C171.24 76.5879 175.635 84.9609 172.443 93.2101L162.536 86.5363C162.536 86.5363 167.759 84.0478 167.759 77.0849Z" fill="url(#paint0_linear_242_93416)"/>
<path d="M172.442 93.4064C172.403 93.4064 172.365 93.3948 172.332 93.3728L162.426 86.699C162.367 86.6594 162.334 86.5915 162.339 86.5212C162.344 86.4508 162.387 86.3885 162.451 86.3581C162.464 86.3521 163.747 85.7284 165.011 84.278C166.175 82.9431 167.562 80.6114 167.562 77.0845C167.562 77.0211 167.592 76.962 167.644 76.9249C167.695 76.8878 167.761 76.878 167.821 76.8979C167.826 76.8997 168.37 77.0778 169.051 77.1058C169.937 77.1426 170.627 76.921 171.101 76.4482C171.146 76.4041 171.208 76.3834 171.27 76.3929C171.332 76.4023 171.385 76.4405 171.414 76.4961C171.426 76.5171 172.534 78.6483 173.23 81.7622C173.875 84.6396 174.293 88.9736 172.626 93.2807C172.604 93.3367 172.558 93.3794 172.501 93.3976C172.482 93.4032 172.462 93.4064 172.442 93.4064ZM162.915 86.5541L172.346 92.9076C173.873 88.7727 173.467 84.6291 172.848 81.8595C172.293 79.3738 171.474 77.5269 171.177 76.906C170.638 77.3326 169.9 77.537 169.023 77.4989C168.577 77.4796 168.192 77.4026 167.953 77.3435C167.887 80.8575 166.48 83.1972 165.295 84.5514C164.335 85.649 163.382 86.2818 162.915 86.5541Z" fill="#122A44"/>
<path d="M173.039 75.3202C173.039 75.3202 175.275 75.3307 176.53 73.5957C176.53 73.5957 187.183 82.0227 181.991 101.024L174.69 93.7337C174.69 93.7337 178.96 85.0491 173.039 75.3202Z" fill="url(#paint1_linear_242_93416)"/>
<path d="M181.992 101.22C181.941 101.22 181.89 101.2 181.853 101.163L174.552 93.8725C174.492 93.813 174.477 93.722 174.515 93.6464C174.525 93.6247 175.574 91.4561 175.892 88.1388C176.079 86.1931 175.981 84.238 175.601 82.3284C175.127 79.9414 174.209 77.6178 172.872 75.4219C172.835 75.361 172.834 75.2847 172.869 75.2227C172.904 75.1608 172.97 75.1226 173.041 75.1226H173.042C173.074 75.1226 175.197 75.1048 176.372 73.4797C176.403 73.4363 176.451 73.4076 176.504 73.4003C176.558 73.3929 176.611 73.4076 176.653 73.4409C176.681 73.4629 177.345 73.9925 178.265 75.082C179.11 76.0834 180.339 77.7672 181.389 80.1035C182.567 82.7264 183.287 85.6209 183.526 88.7068C183.825 92.5582 183.373 96.7197 182.182 101.076C182.164 101.143 182.111 101.196 182.043 101.214C182.026 101.218 182.009 101.22 181.992 101.22ZM174.927 93.6915L181.89 100.644C183.001 96.4572 183.419 92.4588 183.134 88.7537C182.9 85.7157 182.195 82.8667 181.039 80.2862C179.342 76.5002 177.152 74.402 176.561 73.8798C175.542 75.1419 174.042 75.431 173.376 75.4971C174.648 77.6535 175.526 79.9281 175.989 82.263C176.375 84.2125 176.474 86.2082 176.282 88.1937C175.995 91.1551 175.161 93.1732 174.927 93.6915Z" fill="#122A44"/>
<path d="M61.6264 96.3301C61.6264 96.3301 46.2576 102.08 48.4962 110.289C48.4962 110.289 48.9698 112.99 53.8323 112.262C53.8323 112.262 64.5461 97.0455 61.6264 96.3301Z" fill="#1797E5"/>
<path d="M52.268 113.109C50.8467 113.109 49.7141 112.775 48.8884 112.111C48.0582 111.443 47.8394 110.664 47.7939 110.457C47.2346 108.382 47.6413 106.292 49.0025 104.245C50.0497 102.671 51.6674 101.121 53.8115 99.6379C57.4063 97.1519 61.2133 95.7144 61.3736 95.6542L61.5822 95.5762L61.7985 95.629C62.243 95.7379 62.5769 96.0357 62.739 96.4676C63.0361 97.2604 62.7557 98.5078 61.8296 100.512C61.1744 101.93 60.1948 103.713 58.9173 105.809C56.7543 109.36 54.4457 112.644 54.4226 112.677L54.2448 112.93L53.9396 112.975C53.3443 113.065 52.7867 113.109 52.268 113.109ZM49.2062 110.16C49.2457 110.32 49.7602 112.044 53.4209 111.59C54.0071 110.746 55.9349 107.938 57.743 104.962C58.9999 102.894 59.9523 101.153 60.5735 99.7877C61.2739 98.2495 61.4037 97.5152 61.4107 97.1932C58.912 98.2232 47.3617 103.388 49.1922 110.099L49.2062 110.16Z" fill="#122A44"/>
<path d="M55.8888 152.082C55.8888 152.082 49.4176 159.78 55.1167 168.175C55.4765 168.71 56.1478 168.939 56.7596 168.737C58.6391 168.109 62.7257 165.975 66.4045 158.794L55.8888 152.082ZM66.078 172.816C65.5519 175.496 64.951 181.575 69.4411 185.08C69.7271 185.305 70.1086 185.367 70.4512 185.245C71.6874 184.804 74.7296 183.252 77.3641 178.175C77.6371 177.653 77.4347 177.009 76.9129 176.736C76.908 176.733 76.9035 176.731 76.8986 176.728L67.597 172.078C67.0716 171.814 66.4322 172.027 66.169 172.552C66.1273 172.636 66.0969 172.724 66.078 172.816Z" fill="#1797E5"/>
<path d="M70.0931 186.065C69.693 186.065 69.2996 185.932 68.9734 185.676C66.8674 184.032 65.5735 181.701 65.129 178.75C64.7745 176.395 65.045 174.142 65.3345 172.668L65.3355 172.662C65.3674 172.506 65.4198 172.354 65.4916 172.211C65.942 171.312 67.0393 170.948 67.9381 171.398L77.2684 176.064C77.6975 176.288 78.0157 176.669 78.1616 177.134C78.3076 177.599 78.2635 178.093 78.0377 178.526C76.8526 180.81 75.4537 182.659 73.8811 184.021C72.5739 185.153 71.4335 185.699 70.7069 185.958C70.506 186.03 70.2989 186.065 70.0931 186.065ZM66.8227 172.964C66.5567 174.321 66.3075 176.386 66.6295 178.524C67.0141 181.078 68.1173 183.082 69.9086 184.481C69.9919 184.546 70.099 184.564 70.1967 184.529C71.3097 184.132 74.1688 182.685 76.6913 177.824C76.7438 177.724 76.7277 177.633 76.7133 177.588C76.699 177.542 76.6604 177.458 76.5621 177.407L67.2584 172.755C67.1072 172.679 66.9235 172.741 66.8482 172.891C66.837 172.914 66.8283 172.938 66.8227 172.964ZM56.3139 169.566C55.5964 169.566 54.9031 169.214 54.4883 168.597C51.3775 164.015 51.7667 159.629 52.6407 156.757C53.5804 153.67 55.2387 151.675 55.3087 151.592L55.7368 151.082L67.3949 158.523L67.0803 159.137C63.3444 166.43 59.1615 168.731 57.001 169.454C56.7752 169.53 56.5432 169.566 56.3139 169.566ZM56.0766 153.1C55.5607 153.845 54.6546 155.326 54.0764 157.252C52.9665 160.95 53.5279 164.481 55.7452 167.747C55.916 168.001 56.2345 168.11 56.5218 168.015C57.4021 167.72 58.7926 167.07 60.4068 165.651C62.2443 164.035 63.925 161.818 65.4094 159.056L56.0766 153.1Z" fill="#122A44"/>
<path d="M168.129 77.455C168.129 77.455 167.944 83.7039 164.184 85.4294L166.216 85.6425C166.216 85.6425 168.63 82.6781 168.63 77.7035L168.129 77.455ZM173.602 75.7134C173.602 75.7134 178.328 83.1747 175.593 90.6363L177.084 91.3832C177.084 91.3832 180.318 83.9219 174.597 75.4688L173.602 75.7134Z" fill="#7DA4B7"/>
<path d="M54.0273 121.778C54.0273 121.778 41.652 133.895 47.3196 140.769C47.3196 140.769 48.9306 143.146 53.3119 140.354C53.3063 140.354 57.1577 121.201 54.0273 121.778Z" fill="#1797E5"/>
<path d="M49.5375 142.473C49.1717 142.473 48.8207 142.429 48.4847 142.343C47.3986 142.063 46.8533 141.412 46.7203 141.233C45.2923 139.49 44.7908 137.316 45.2304 134.772C45.5681 132.816 46.4673 130.638 47.9026 128.298C50.3092 124.375 53.3686 121.362 53.4977 121.235L53.6633 121.073L53.8911 121.031C54.3671 120.943 54.8172 121.085 55.1592 121.43C55.8368 122.115 56.492 123.87 55.5344 131.439C55.0822 135.014 54.4326 138.551 54.1263 140.144L54.4473 140.53L53.721 140.993C52.1761 141.977 50.774 142.472 49.5375 142.473ZM47.9464 140.338C48.0545 140.476 49.2897 141.897 52.6311 139.883C52.9363 138.299 53.5929 134.728 54.0423 131.141C54.3412 128.756 54.4942 126.796 54.4963 125.316C54.4987 123.694 54.3199 122.988 54.1949 122.693C52.2391 124.736 43.2707 134.663 47.9065 140.286L47.9464 140.338Z" fill="#122A44"/>
<path d="M83.3945 193.386C83.3945 193.386 85.1465 199.659 89.4813 201.632C89.4813 201.632 96.5162 203.134 92.1681 190.559L83.3945 193.386Z" fill="#122A44"/>
<path d="M58.6932 100.338C58.6932 100.338 49.7388 104.07 50.7332 110.785C50.7332 110.785 48.9929 110.537 49.7388 107.553C49.7388 107.553 50.2362 103.324 58.1959 99.344L60.1859 98.3496L58.9417 100.338H58.6932ZM52.4744 125.708C52.4744 125.708 43.7699 135.16 48.7445 140.134C48.7445 140.134 48.496 130.683 53.9675 127.201L52.4744 125.708ZM57.2001 154.311C57.2001 154.311 53.7187 160.53 56.9516 166.5C56.9516 166.5 58.4443 166.001 58.6928 165.504C58.6928 165.504 58.4444 166.748 56.4571 167.494C56.4571 167.494 51.234 162.271 56.2085 153.815L57.2001 154.311ZM67.8961 175.951C67.8961 175.951 68.1446 181.423 70.6317 183.164C70.6317 183.164 70.8802 183.164 71.3776 182.916C71.3776 182.916 71.1291 183.661 70.1347 183.91C70.1347 183.91 66.4033 181.174 67.1492 175.951H67.8961Z" fill="#5DC5F9"/>
<path d="M188.775 147.845C188.775 147.845 200.962 125.211 187.035 106.059L183.055 98.5978C183.055 98.5978 182.558 97.3535 181.314 97.602C181.314 97.602 177.832 91.6335 173.604 90.6377C173.604 90.6377 170.369 85.6635 164.397 85.4147C164.397 85.4147 162.904 78.4437 154.946 79.6946C154.946 79.6946 153.204 72.7303 145.991 75.7148C145.991 75.7148 144.748 71.9834 140.271 73.2277C140.271 73.2277 140.023 66.5119 122.86 71.7349C122.86 71.7349 71.3736 64.5221 61.1739 95.6123C61.1739 95.6123 60.7094 96.775 62.0247 97.0774C62.0681 97.0861 62.0965 97.1281 62.0877 97.1719C62.0849 97.1855 62.0786 97.1985 62.0695 97.209C60.3524 99.1945 59.3385 101.691 59.1838 104.312C59.1838 104.312 50.4782 110.281 54.7118 119.981C54.7118 119.981 51.7274 126.952 55.2088 131.671C55.2088 131.671 50.2346 138.139 55.7072 144.356C55.7072 144.356 52.2244 151.569 59.686 155.549C59.686 155.549 56.7016 163.01 63.4174 165.497C63.4174 165.497 63.1689 174.452 71.3761 176.94C71.3761 176.94 71.6245 181.915 76.8486 182.662C76.8486 182.662 74.3615 189.633 83.3145 192.113C83.3145 192.113 87.5432 200.569 93.7617 196.341C93.7617 196.341 97.7405 201.813 106.943 200.569C106.943 200.569 112.664 205.543 121.867 203.056C121.867 203.056 128.084 206.042 136.044 201.565C136.044 201.565 140.77 203.801 144.999 200.072C144.999 200.072 152.212 200.321 154.699 197.585C154.699 197.585 158.928 199.078 162.409 196.589C162.409 196.589 170.368 194.849 172.606 198.331C172.606 198.331 175.592 204.052 169.871 210.269C169.871 210.269 183.8 213.255 184.795 195.844C184.795 195.844 185.541 186.392 174.348 183.905L188.775 147.845Z" fill="url(#paint2_linear_242_93416)"/>
<path d="M172.167 211.123C170.774 211.123 169.827 210.928 169.734 210.908L168.611 210.667L169.389 209.822C171.625 207.392 172.749 204.774 172.729 202.041C172.716 200.146 172.127 198.844 172.036 198.653C171.031 197.133 168.577 196.81 166.69 196.807C166.683 196.807 166.675 196.807 166.668 196.807C164.818 196.807 163.137 197.111 162.675 197.202C160.986 198.366 159.165 198.687 157.669 198.687C156.433 198.687 155.42 198.468 154.885 198.323C152.298 200.681 146.548 200.748 145.237 200.73C142.944 202.652 140.537 202.957 138.901 202.869C137.599 202.798 136.58 202.475 136.087 202.288C131.948 204.539 128.287 204.814 125.924 204.641C123.82 204.487 122.36 203.968 121.816 203.745C117.001 204.993 113.138 204.229 110.732 203.359C108.643 202.604 107.275 201.654 106.751 201.252C101.965 201.836 98.5851 200.623 96.5793 199.489C95.0946 198.65 94.1282 197.736 93.6316 197.197C92.0359 198.138 90.4214 198.404 88.8236 197.988C85.5469 197.134 83.4182 193.659 82.8673 192.664C79.8381 191.773 77.7577 190.271 76.6808 188.197C75.6455 186.202 75.8267 184.214 76.0378 183.174C73.5412 182.599 72.2385 181.066 71.5753 179.827C71.0643 178.872 70.8571 177.96 70.7745 177.432C67.4285 176.294 64.9893 173.91 63.7059 170.514C62.9604 168.542 62.8004 166.759 62.7686 165.942C60.9724 165.182 59.7061 163.994 59.0015 162.407C57.8707 159.86 58.5262 157.023 58.8885 155.85C55.1697 153.663 54.3021 150.655 54.2433 148.475C54.1946 146.671 54.6777 145.162 54.9461 144.471C52.2056 141.151 52.2385 137.793 52.7673 135.53C53.1933 133.708 53.9888 132.318 54.4109 131.669C53.0872 129.644 52.6014 126.994 53.0046 123.968C53.2559 122.081 53.7771 120.577 54.0022 119.987C51.856 114.837 53.2416 110.724 54.7998 108.165C56.1802 105.898 57.9011 104.457 58.5511 103.96C58.752 101.576 59.6424 99.2719 61.091 97.371C60.8541 97.1985 60.7088 97.0007 60.6203 96.8317C60.2913 96.2038 60.4992 95.5437 60.5552 95.3914C62.9345 88.1503 67.7207 82.3658 74.782 78.1977C80.3949 74.8846 87.4481 72.5851 95.7463 71.3632C99.807 70.7654 106.389 70.119 114.681 70.4357C119.055 70.6027 122.118 70.9747 122.805 71.0636C127.144 69.7522 130.797 69.0879 133.665 69.0879C133.719 69.0879 133.773 69.0882 133.826 69.0886C136.146 69.1089 137.956 69.5709 139.205 70.4609C140.13 71.12 140.558 71.884 140.757 72.4381C142.975 72.0156 144.411 72.7667 145.247 73.5129C145.767 73.9767 146.113 74.4901 146.327 74.88C148.5 74.1037 150.418 74.1223 152.034 74.9367C154.08 75.9675 155.039 77.9831 155.401 78.9684C159.469 78.4997 161.854 80.1489 163.152 81.655C164.179 82.8453 164.686 84.112 164.902 84.7871C167.317 84.9894 169.643 85.96 171.656 87.6099C172.901 88.6305 173.69 89.6311 174.002 90.0606C177.768 91.1081 180.828 95.5902 181.661 96.9104C182.756 96.922 183.42 97.7774 183.649 98.3146L187.593 105.708C190.815 110.15 192.913 115.145 193.83 120.556C194.564 124.887 194.545 129.49 193.776 134.237C192.505 142.071 189.651 147.591 189.371 148.12L175.239 183.442C177.566 184.051 179.542 185.013 181.119 186.31C182.528 187.467 183.621 188.888 184.367 190.533C185.612 193.277 185.464 195.699 185.45 195.884C185.109 201.828 183.254 206.124 179.936 208.653C177.255 210.698 174.225 211.123 172.167 211.123ZM171.163 209.766C172.904 209.889 176.301 209.782 179.152 207.602C182.145 205.314 183.824 201.344 184.141 195.804L184.142 195.79C184.143 195.769 184.296 193.517 183.148 191.022C182.481 189.573 181.508 188.321 180.256 187.299C178.678 186.011 176.642 185.084 174.206 184.543L173.453 184.375L173.739 183.659L188.18 147.565L188.198 147.532C188.228 147.476 191.22 141.846 192.487 133.985C193.229 129.387 193.244 124.934 192.531 120.75C191.644 115.536 189.616 110.722 186.504 106.443L186.478 106.406L186.456 106.366L182.456 98.8669L182.446 98.8393C182.396 98.7217 182.102 98.112 181.442 98.2436L180.983 98.3353L180.747 97.9307C180.714 97.8736 177.355 92.1931 173.453 91.2744L173.197 91.2142L173.054 90.9937C173.046 90.9828 172.26 89.7939 170.79 88.5972C168.847 87.0159 166.687 86.1651 164.369 86.0685L163.862 86.0475L163.755 85.5505C163.752 85.5358 163.385 83.9135 162.125 82.474C160.469 80.5812 158.087 79.8633 155.047 80.3414L154.454 80.4345L154.309 79.8525C154.302 79.8273 153.609 77.1942 151.434 76.1047C150.032 75.4019 148.284 75.474 146.242 76.3196L145.591 76.5887L145.368 75.9206C145.366 75.9157 145.082 75.1068 144.334 74.4586C143.36 73.6141 142.052 73.4118 140.446 73.858L139.621 74.0876L139.615 73.2546C139.608 73.1682 139.505 72.2617 138.394 71.4955C137.354 70.778 135.788 70.4098 133.74 70.4007C130.962 70.3892 127.365 71.0479 123.05 72.3607L122.912 72.4027L122.768 72.3828C122.64 72.3649 109.803 70.6153 95.909 72.6659C87.7859 73.8647 80.8975 76.1089 75.4361 79.3355C68.6598 83.3388 64.0706 88.8832 61.7967 95.8149L61.7837 95.851C61.7567 95.9304 61.7235 96.1163 61.7833 96.2269C61.8477 96.3448 62.049 96.4078 62.1666 96.4355C62.5565 96.5212 62.8088 96.9048 62.7308 97.2982C62.7056 97.4249 62.6471 97.5432 62.5621 97.6402C60.9521 99.5022 59.9836 101.886 59.8384 104.348L59.8195 104.669L59.5546 104.851C59.5343 104.865 57.4465 106.321 55.896 108.888C53.8506 112.274 53.6546 115.917 55.3129 119.717L55.4263 119.977L55.3147 120.238C55.2867 120.304 52.5234 126.925 55.7367 131.28L56.03 131.678L55.7287 132.07C55.7175 132.084 54.546 133.636 54.0336 135.876C53.3609 138.817 54.0893 141.524 56.1994 143.921L56.4871 144.248L56.2978 144.64C56.2901 144.655 55.4858 146.364 55.5554 148.487C55.6468 151.265 57.1402 153.446 59.9945 154.968L60.5132 155.245L60.2948 155.791C60.2819 155.823 58.9868 159.154 60.2027 161.883C60.8128 163.252 61.9709 164.261 63.6446 164.88L64.0856 165.044L64.0727 165.514C64.0723 165.535 64.0293 167.69 64.948 170.094C66.1555 173.253 68.3819 175.345 71.5659 176.311L72.0075 176.445L72.0307 176.906C72.0408 177.085 72.333 181.351 76.9411 182.01L77.736 182.124L77.4661 182.881C77.4584 182.903 76.6433 185.298 77.8518 187.609C78.7888 189.4 80.6855 190.703 83.4893 191.479L83.7703 191.557L83.9009 191.818C83.9212 191.858 85.9816 195.896 89.1575 196.721C90.5383 197.079 91.9631 196.768 93.3925 195.797L93.9183 195.439L94.2921 195.953C94.3005 195.965 95.2654 197.256 97.2853 198.383C99.1469 199.422 102.318 200.531 106.855 199.918L107.15 199.878L107.374 200.073C107.387 200.084 108.78 201.271 111.234 202.148C113.49 202.953 117.135 203.654 121.696 202.422L121.932 202.358L122.151 202.464C122.165 202.47 123.669 203.172 126.083 203.338C128.305 203.491 131.781 203.209 135.723 200.992L136.018 200.825L136.325 200.97C136.334 200.975 137.448 201.487 139.022 201.563C141.094 201.662 142.958 200.995 144.565 199.579L144.76 199.406L145.021 199.415C145.039 199.416 146.81 199.472 148.848 199.2C151.449 198.854 153.304 198.142 154.213 197.142L154.506 196.82L154.917 196.965C154.955 196.978 158.876 198.307 162.027 196.054L162.137 195.976L162.268 195.947C162.611 195.872 170.7 194.153 173.157 197.975L173.187 198.026C173.221 198.09 174.006 199.621 174.039 201.958C174.068 203.89 173.566 206.74 171.163 209.766Z" fill="#122A44"/>
<path d="M127.839 197.091C159.983 197.091 186.041 171.479 186.041 139.885C186.041 108.292 159.983 82.6797 127.839 82.6797C95.6954 82.6797 69.6377 108.292 69.6377 139.885C69.6377 171.479 95.6954 197.091 127.839 197.091Z" fill="url(#paint3_linear_242_93416)"/>
<path d="M139.299 104.943L143.258 109.547C143.258 109.547 146.243 99.1012 139.278 140.14L135.299 151.83L85.679 147.226C85.679 147.226 78.9632 145.982 79.8302 138.427L139.299 104.943Z" fill="url(#paint4_linear_242_93416)"/>
<path d="M135.299 152.289C135.284 152.289 135.27 152.288 135.256 152.287L85.6364 147.684C85.6224 147.682 85.6087 147.681 85.5951 147.678C85.5219 147.665 83.7842 147.331 82.1423 146.019C80.6188 144.801 78.9017 142.486 79.3735 138.375C79.3903 138.229 79.476 138.1 79.6045 138.027L139.074 104.544C139.265 104.436 139.505 104.478 139.647 104.644L143.079 108.635C143.219 108.271 143.447 107.811 143.891 107.912C144.384 108.024 144.387 108.621 144.332 109.592C144.277 110.57 144.11 112.13 143.834 114.227C143.14 119.518 141.76 128.262 139.731 140.217C139.726 140.241 139.72 140.265 139.712 140.288L135.733 151.978C135.669 152.165 135.493 152.289 135.299 152.289ZM85.7452 146.771L134.98 151.339L138.831 140.026C140.726 128.858 142.057 120.485 142.786 115.139C143.143 112.518 143.312 110.939 143.385 109.988C143.376 109.991 143.366 109.993 143.356 109.995C143.191 110.031 143.02 109.974 142.91 109.846L139.196 105.528L80.2611 138.711C79.9902 141.55 80.8057 143.759 82.6873 145.279C84.067 146.393 85.566 146.734 85.7452 146.771Z" fill="#122A44"/>
<path d="M83.3133 111.779L85.8004 96.3594L139.525 103.324L137.286 119.242L133.307 145.109L79.583 138.394L83.3133 111.779Z" fill="#C91111"/>
<path d="M133.859 145.839L78.8408 138.962L82.6653 111.675L85.2539 95.627L140.267 102.758L137.934 119.342L133.859 145.839ZM80.3252 137.825L132.756 144.38L136.637 119.147L138.783 103.889L86.3469 97.0917L83.962 111.877L80.3252 137.825Z" fill="#122A44"/>
<path d="M82.8201 123.969L82.0742 128.694L98.4899 130.683L123.362 136.156V133.42L135.473 135.8L136.047 130.684L82.8201 123.969Z" fill="#750606"/>
<path d="M130.544 105.808L94.2588 100.59C92.4318 105.808 87.2945 106.31 87.2945 106.31L83.3262 130.858C89.0658 132.423 89.2909 138.147 89.2909 138.147L125.855 143.121C127.682 137.38 132.563 138.395 132.563 138.395L136.294 113.025C129.509 110.677 130.544 105.808 130.544 105.808ZM131.812 137.4C131.812 137.4 126.838 136.655 125.096 142.126L90.2782 137.4C90.2782 137.4 90.0336 131.924 84.5582 130.436L87.7978 111.782L88.545 107.31C88.545 107.31 93.5193 106.564 95.2595 101.59L129.588 106.564C129.588 106.564 128.583 111.537 135.049 113.773L131.812 137.4Z" fill="#3D0000"/>
<path d="M121.619 117.75L138.034 120.486L146.49 132.673L139.029 136.902L136.79 131.927L120.623 128.943L121.619 117.75Z" fill="url(#paint5_linear_242_93416)"/>
<path d="M138.727 137.827L136.334 132.51L119.918 129.48L121.029 116.986L138.417 119.884L147.44 132.889L138.727 137.827ZM121.331 128.406L137.249 131.344L139.333 135.976L145.543 132.457L137.655 121.087L122.211 118.513L121.331 128.406Z" fill="#4F1A00"/>
<path d="M80.7062 112.65L98.6136 114.886L96.8762 126.082L80.212 124.092L79.7136 126.579C79.7129 126.579 79.4619 115.138 80.7062 112.65Z" fill="url(#paint6_linear_242_93416)"/>
<path d="M79.7129 127.039C79.6996 127.039 79.6859 127.038 79.6723 127.037C79.4392 127.016 79.2586 126.824 79.2537 126.589C79.2432 126.118 79.0146 115.005 80.2949 112.445C80.3821 112.271 80.569 112.171 80.7625 112.195L98.6699 114.431C98.7931 114.446 98.9048 114.511 98.9797 114.61C99.0546 114.709 99.0857 114.834 99.0668 114.957L97.3294 126.152C97.2916 126.397 97.0669 126.567 96.8212 126.538L80.5781 124.598L80.163 126.67C80.1196 126.886 79.9299 127.039 79.7129 127.039ZM80.2106 123.633C80.2288 123.633 80.247 123.634 80.2655 123.636L96.4898 125.574L98.0868 115.284L80.9935 113.149C80.3436 114.969 80.1689 119.994 80.1511 123.637C80.1707 123.634 80.1906 123.633 80.2106 123.633Z" fill="#4F1A00"/>
<path d="M97.2464 109.295L94.5107 130.436L120.875 134.168L123.861 112.777L97.2464 109.295Z" fill="#F7AE2D"/>
<path d="M121.433 134.909L93.7764 130.994L96.6796 108.559L124.601 112.213L121.433 134.909ZM95.2439 129.877L120.316 133.425L123.119 113.342L97.8126 110.03L95.2439 129.877Z" fill="#4F1A00"/>
<path opacity="0.63" d="M122.117 116.508L121.371 121.484L112.666 130.935L111.67 127.328L122.117 116.508ZM109.183 112.031L96.3433 125.649L95.8975 129.381L96.4984 129.443L113.163 112.53L109.183 112.031ZM114.407 112.778L97.2443 129.691L99.2343 128.448L115.153 112.778L114.407 112.778Z" fill="white"/>
<path d="M107.941 121.731L105.205 127.203L111.519 127.815L110.423 121.98C110.423 121.98 112.413 121.731 112.659 119.493C112.659 119.493 113.157 116.259 109.923 115.762C109.923 115.762 107.188 115.513 106.44 118.249C106.448 118.245 105.951 120.736 107.941 121.731Z" fill="#4F1A00"/>
<path d="M110.422 115.266C110.422 115.266 113.655 115.763 113.655 118.995C113.655 118.995 113.904 121.732 111.665 122.726L112.169 129.688H113.163L112.169 123.221C112.169 123.221 114.948 121.724 113.965 118.136C113.768 117.397 113.347 116.736 112.759 116.245C112.093 115.696 111.28 115.356 110.422 115.266Z" fill="#4F1A00"/>
<path d="M109.932 115.516C109.932 115.516 112.923 116.012 112.923 119.247C112.923 119.247 112.923 121.235 110.687 122.231L111.681 129.941H112.677L111.433 122.48C111.433 122.48 113.054 121.845 113.346 119.735C113.639 117.714 112.238 115.839 110.217 115.547C110.185 115.542 110.154 115.538 110.122 115.535L109.932 115.516Z" fill="white"/>
<path d="M130.822 139.392C130.822 139.392 127.865 139.054 125.985 144.197L131.817 143.62L130.822 139.392ZM132.065 103.575C132.065 103.575 130.075 110.043 137.04 112.281L138.284 104.321L132.065 103.575ZM86.7981 97.6055L85.5539 105.068C85.5539 105.068 91.7723 104.818 92.5181 98.3524L86.7981 97.6055ZM81.575 131.681L80.8281 137.402L88.0409 138.397C88.0409 138.397 87.0466 132.924 81.575 131.681Z" fill="#3D0000"/>
<path d="M125.349 74.4699C125.349 74.4699 130.572 70.2426 138.531 74.4699L138.041 75.4656C138.041 75.4656 143.015 74.7198 146.496 81.9329C146.496 81.9329 147.989 71.9831 153.709 81.9329C153.709 81.9329 161.172 80.9372 162.166 86.1602C162.166 86.1602 160.922 88.6487 162.415 90.3889C162.415 90.3889 161.42 86.659 163.908 86.9075C163.908 86.9075 168.135 87.156 171.12 91.1362L172.115 91.882C172.115 91.882 175.349 92.379 179.576 98.3493C180.92 100.105 182.133 101.957 183.205 103.891C183.81 104.997 184.471 106.072 185.187 107.11C187.618 110.64 192.961 119.646 191.017 128.195C191.017 128.195 190.272 141.627 187.288 145.358C187.288 145.358 191.759 137.647 192.511 128.195C192.511 128.195 193.505 116.008 185.795 106.308L181.566 98.3493L180.075 97.6024C180.075 97.6024 176.84 92.3794 172.106 91.1365V90.6381C172.106 90.6381 169.37 86.4108 163.4 86.1662L163.151 85.1718C163.151 85.1718 161.411 79.2019 153.944 80.9431C153.944 80.9431 153.199 73.9788 145.986 76.9643C145.986 76.9643 141.514 74.4758 138.773 74.9742C138.773 74.9742 141.757 69.7501 130.316 71.2429C130.316 71.2429 125.729 72.0321 124.417 72.6306L125.349 74.4699Z" fill="#5DC5F9"/>
<path d="M67.3975 86.7281C67.3975 86.7281 85.2996 65.7628 106.695 73.7242C122.928 79.7638 121.868 85.1671 121.868 85.1671C121.868 85.1671 110.853 86.8926 105.741 93.8727C105.741 93.8727 95.7702 82.9835 82.9875 92.1969C82.9871 92.1997 82.7401 77.6316 67.3975 86.7281Z" fill="url(#paint7_linear_242_93416)"/>
<path d="M141.02 198.831C141.02 198.831 139.382 200.935 134.854 198.264C134.854 198.264 130.823 201.568 121.62 199.579C121.62 199.579 115.401 203.558 107.941 197.343C107.941 197.343 97.7424 199.579 95.2553 191.373C95.2553 191.373 89.0379 197.343 86.0486 188.886C86.0486 188.886 79.8301 189.633 79.0776 181.673C79.0776 181.673 80.569 179.186 79.0776 177.944C79.0776 177.944 74.102 183.167 74.102 174.461C74.102 174.461 61.1692 170.481 69.6301 164.263C69.6301 164.263 57.4417 164.263 63.1628 154.564C63.1628 154.564 54.7057 150.832 59.1829 143.371C59.1829 143.371 53.9602 140.883 56.6958 132.426L58.4371 131.681C58.4371 131.681 53.7114 126.209 57.6898 120.985L57.9397 119.991C57.9397 119.991 53.9599 109.046 60.4268 108.052L62.9139 107.804C62.9139 107.804 60.6781 101.834 65.1497 97.8537C65.1497 97.8537 63.1596 88.1538 81.8139 78.2051H78.3402C78.3402 78.2051 65.4073 83.9265 62.173 96.6109L63.1687 97.8537C63.1687 97.8537 61.0642 99.119 60.3383 103.975C60.2147 104.799 59.8122 105.586 59.1231 106.059C56.9503 107.551 52.4797 112.454 55.9559 119.987C55.9559 119.987 52.9704 126.454 56.4529 131.677C56.4529 131.677 51.2302 138.392 57.1988 144.113C57.1988 144.113 52.7268 150.828 61.1786 155.057C61.1786 155.057 57.4473 162.518 64.6601 164.757C64.6601 164.757 63.6657 173.963 72.3713 175.95C72.3713 175.95 72.1228 180.924 77.5943 181.67L78.0917 182.914C78.0917 182.914 75.3561 188.882 84.0616 191.121C84.0616 191.121 88.0404 199.827 94.0104 194.852C94.0104 194.852 97.4918 200.821 106.943 199.324L108.187 200.07C108.187 200.07 113.907 204.299 121.866 201.811C121.866 201.811 128.083 204.796 136.043 200.319C136.043 200.319 140.272 202.554 144.002 199.324L141.02 198.831Z" fill="#5DC5F9"/>
<path d="M108.437 163.514C108.437 163.514 94.5083 159.784 96.2496 147.6C96.2496 147.6 92.0209 141.878 93.7625 136.157C93.7625 136.157 94.7568 132.177 95.9983 132.426C95.9983 132.426 99.7282 127.451 103.211 127.954C103.211 127.954 102.963 130.441 103.957 130.939C103.957 130.939 108.186 124.721 112.165 125.218C112.165 125.218 110.424 129.943 112.165 132.182C112.165 132.182 115.398 126.71 118.881 126.71C118.881 126.71 118.383 129.943 119.13 131.436C119.13 131.436 123.108 130.192 123.108 142.879C123.108 142.879 126.094 143.873 127.58 146.609L127.083 160.538L108.437 163.514Z" fill="#1797E5"/>
<path d="M108.406 164.118L108.284 164.085C108.138 164.046 104.653 163.094 101.335 160.599C99.3683 159.119 97.8738 157.402 96.8942 155.497C95.6968 153.169 95.273 150.564 95.6335 147.75C95.3087 147.274 94.4886 145.992 93.8033 144.24C92.6581 141.313 92.4474 138.464 93.1936 136C93.2283 135.864 93.4764 134.911 93.8705 133.971C94.0886 133.45 94.7025 131.985 95.7108 131.836C96.5375 130.806 99.9307 126.885 103.296 127.37L103.855 127.451L103.799 128.013C103.732 128.688 103.782 129.476 103.938 129.966C104.402 129.359 105.182 128.406 106.16 127.467C108.358 125.357 110.403 124.404 112.239 124.633L112.976 124.725L112.719 125.423C112.715 125.434 112.297 126.581 112.093 127.968C111.956 128.894 111.894 130.077 112.215 131.024C113.33 129.414 115.966 126.121 118.881 126.121H119.569L119.464 126.802C119.347 127.566 119.157 129.624 119.518 130.816C119.869 130.833 120.347 130.944 120.86 131.321C122.703 132.675 123.657 136.428 123.697 142.476C124.61 142.864 126.837 144.006 128.099 146.328L128.176 146.47L127.655 161.045L108.406 164.118ZM95.8827 133.005C95.7906 133.018 95.4 133.331 94.9062 134.556C94.5565 135.423 94.3374 136.292 94.3353 136.301L94.3273 136.329C92.6914 141.705 96.6838 147.194 96.7244 147.249L96.8682 147.444L96.834 147.684C96.4553 150.332 96.8259 152.774 97.9354 154.94C98.8283 156.683 100.202 158.262 102.017 159.634C104.826 161.755 107.85 162.725 108.474 162.911L126.51 160.032L126.984 146.754C125.607 144.368 122.948 143.449 122.921 143.439L122.519 143.304L122.518 142.879C122.518 135.258 121.072 132.985 120.21 132.309C119.737 131.938 119.362 131.99 119.298 132.003L118.807 132.19L118.602 131.701C118.004 130.507 118.094 128.492 118.204 127.382C115.832 127.935 113.451 131.167 112.674 132.482L112.232 133.23L111.699 132.545C110.217 130.639 110.925 127.313 111.36 125.798C109.762 125.962 108.138 127.207 106.992 128.304C105.496 129.737 104.455 131.256 104.445 131.271L104.154 131.698L103.692 131.467C102.703 130.971 102.574 129.426 102.589 128.511C101.17 128.565 99.7096 129.563 98.6844 130.448C97.38 131.574 96.4794 132.768 96.4706 132.78L96.2474 133.078L95.8827 133.005Z" fill="#122A44"/>
<path d="M115.693 133.809C115.693 133.809 124.111 152.82 113.164 158.789L124.854 157.043L125.351 145.353C125.351 145.353 123.839 144.026 121.983 143.695C121.983 143.695 122.616 135.902 120.128 132.916L115.693 133.809Z" fill="url(#paint8_linear_242_93416)"/>
<path d="M96.4971 133.418C96.4971 133.418 93.0142 140.133 98.2383 147.347C98.2383 147.347 96.4971 158.041 109.181 161.524L105.948 161.777C105.948 161.777 95.2528 157.042 97.2425 147.347C97.2425 147.347 91.5225 141.128 96.2482 132.92L96.4971 133.418ZM156.718 195.563L162.658 194.106C162.658 194.106 168.627 192.615 173.353 194.853C173.353 194.853 179.322 198.583 174.099 209.279H172.106C172.106 209.279 174.842 206.294 174.594 201.569C174.594 201.569 174.594 199.333 173.599 197.589C173.599 197.589 171.858 194.106 163.899 195.102L161.909 195.599C160.042 196.959 157.632 197.33 155.442 196.593L156.718 195.563Z" fill="#5DC5F9"/>
<path d="M142.515 132.921C142.515 132.921 133.81 132.424 132.068 143.12L126.845 144.114C126.845 144.114 124.109 147.597 126.348 151.575C126.348 151.575 125.352 154.81 126.596 156.799C126.596 156.799 106.201 155.307 101.724 170.478C101.724 170.478 98.9882 197.092 139.778 198.584C139.778 198.584 164.154 199.828 182.311 177.194L186.29 175.951L191.762 186.645C191.762 186.645 193.751 171.474 204.944 166.748C204.944 166.748 192.508 154.56 198.727 139.39L186.289 146.852C186.289 146.852 183.801 138.892 181.562 138.892C181.562 138.892 181.314 137.15 179.821 136.656C179.821 136.656 178.329 133.671 180.071 128.697C180.071 128.697 175.095 126.21 168.381 133.92C168.381 133.92 165.893 132.924 165.147 135.661L162.162 134.666C162.162 134.666 161.168 131.184 158.679 131.433C158.679 131.433 157.685 130.437 160.421 121.981C160.421 121.981 153.208 120.986 148.482 128.697C148.482 128.697 145.746 127.701 145.001 130.437C145.001 130.434 143.26 130.682 142.515 132.921Z" fill="#1797E5"/>
<path d="M140.514 199.253C140.072 199.253 139.809 199.242 139.749 199.239C131.522 198.938 124.438 197.585 118.695 195.218C113.883 193.235 109.959 190.523 107.031 187.157C103.484 183.079 102.051 178.756 101.474 175.849C100.847 172.687 101.061 170.502 101.07 170.411C101.074 170.371 101.082 170.331 101.093 170.292C102.154 166.698 104.172 163.715 107.092 161.424C109.411 159.605 112.296 158.223 115.667 157.316C119.889 156.179 123.761 156.075 125.572 156.104C125.045 154.37 125.46 152.375 125.644 151.655C124.752 149.934 124.573 148.042 125.127 146.166C125.561 144.695 126.297 143.748 126.328 143.708C126.426 143.584 126.565 143.499 126.721 143.469L131.498 142.56C131.934 140.215 132.743 138.221 133.903 136.628C134.904 135.253 136.163 134.175 137.646 133.424C139.509 132.48 141.243 132.296 142.061 132.266C142.514 131.215 143.172 130.617 143.672 130.292C143.927 130.126 144.22 129.987 144.484 129.896C144.772 129.11 145.249 128.541 145.904 128.202C146.728 127.775 147.628 127.839 148.18 127.944C150.689 124.082 153.817 122.481 156.034 121.819C158.536 121.072 160.429 121.321 160.508 121.332C160.701 121.358 160.871 121.468 160.975 121.633C161.078 121.797 161.103 121.999 161.043 122.183C159.193 127.902 159.102 130.058 159.169 130.773C160.217 130.854 161.152 131.474 161.898 132.592C162.292 133.183 162.545 133.785 162.678 134.147L164.742 134.836C165.044 134.159 165.492 133.669 166.078 133.378C166.851 132.993 167.666 133.069 168.16 133.177C170.959 130.053 173.809 128.234 176.635 127.77C178.902 127.398 180.303 128.082 180.362 128.111C180.658 128.258 180.797 128.602 180.688 128.914C179.842 131.33 179.812 133.228 179.935 134.395C180.025 135.25 180.208 135.849 180.318 136.148C181.435 136.652 181.909 137.706 182.097 138.323C183.155 138.669 184.206 140.053 185.361 142.601C185.929 143.855 186.384 145.095 186.652 145.868L198.387 138.828C198.629 138.682 198.938 138.709 199.152 138.892C199.367 139.077 199.439 139.378 199.332 139.639C197.954 143.001 197.414 146.489 197.726 150.007C197.977 152.828 198.774 155.678 200.095 158.478C202.35 163.259 205.371 166.25 205.401 166.279C205.558 166.433 205.627 166.655 205.587 166.87C205.546 167.086 205.399 167.267 205.198 167.352C202.741 168.39 200.542 170.046 198.662 172.274C197.146 174.071 195.832 176.243 194.756 178.729C192.918 182.98 192.416 186.694 192.411 186.731C192.374 187.016 192.156 187.243 191.873 187.292C191.589 187.34 191.307 187.2 191.177 186.944L185.956 176.742L182.695 177.761C178.537 182.911 173.713 187.244 168.355 190.639C164.023 193.384 159.336 195.526 154.423 197.005C147.666 199.039 142.422 199.253 140.514 199.253ZM102.371 170.6C102.344 170.952 102.227 172.936 102.774 175.652C103.325 178.394 104.687 182.471 108.041 186.318C110.835 189.523 114.595 192.112 119.214 194.013C124.811 196.316 131.738 197.633 139.801 197.928C139.804 197.928 139.807 197.928 139.81 197.928C139.87 197.931 145.929 198.201 154.099 195.732C158.89 194.284 163.461 192.191 167.684 189.51C172.961 186.161 177.71 181.879 181.798 176.783C181.88 176.681 181.99 176.606 182.114 176.567L186.093 175.324C186.398 175.229 186.727 175.367 186.872 175.652L191.47 184.636C191.815 183.086 192.451 180.753 193.553 178.208C194.679 175.604 196.061 173.323 197.66 171.427C199.456 169.298 201.531 167.654 203.838 166.529C202.784 165.352 200.646 162.721 198.909 159.038C197.522 156.098 196.685 153.098 196.42 150.123C196.143 147.008 196.497 143.916 197.471 140.908L186.626 147.414C186.453 147.518 186.243 147.536 186.055 147.465C185.867 147.393 185.722 147.239 185.662 147.047C185.656 147.028 185.039 145.064 184.162 143.133C182.582 139.648 181.661 139.548 181.562 139.548C181.235 139.548 180.958 139.308 180.912 138.984C180.911 138.974 180.693 137.636 179.614 137.279C179.449 137.224 179.312 137.105 179.234 136.949C179.17 136.823 177.763 133.914 179.243 129.114C178.731 128.992 177.869 128.882 176.744 129.083C173.532 129.657 170.692 132.264 168.875 134.351C168.692 134.562 168.395 134.633 168.137 134.529C168.132 134.528 167.32 134.221 166.657 134.556C166.25 134.762 165.954 135.192 165.779 135.834C165.731 136.008 165.614 136.155 165.455 136.24C165.296 136.325 165.109 136.341 164.938 136.284L161.954 135.288C161.749 135.22 161.59 135.054 161.531 134.846C161.522 134.818 160.656 131.892 158.744 132.086C158.548 132.105 158.353 132.036 158.215 131.896C157.431 131.111 157.901 127.821 159.536 122.597C158.819 122.602 157.676 122.691 156.351 123.094C153.36 124.004 150.901 126.005 149.041 129.04C148.878 129.306 148.55 129.42 148.257 129.313C148.25 129.311 147.264 128.97 146.503 129.369C146.086 129.588 145.801 129.994 145.633 130.609C145.574 130.826 145.409 130.997 145.195 131.063C145.157 131.075 145.12 131.083 145.082 131.088C144.964 131.109 143.719 131.379 143.138 133.127C143.044 133.408 142.775 133.592 142.479 133.575C142.459 133.574 140.402 133.481 138.188 134.621C136.903 135.282 135.811 136.228 134.942 137.432C133.842 138.954 133.093 140.904 132.715 143.224C132.671 143.496 132.461 143.712 132.19 143.763L127.228 144.708C127.024 145.018 126.629 145.689 126.372 146.583C125.905 148.206 126.089 149.777 126.919 151.253C127.007 151.409 127.027 151.596 126.974 151.768C126.965 151.796 126.084 154.743 127.152 156.451C127.283 156.661 127.285 156.926 127.158 157.137C127.03 157.349 126.795 157.471 126.548 157.453C126.498 157.449 121.465 157.107 115.975 158.591C112.782 159.455 110.062 160.759 107.888 162.467C105.212 164.572 103.356 167.308 102.371 170.6ZM144.579 130.94C144.778 131.107 144.998 131.098 145.071 131.09C144.895 131.109 144.717 131.056 144.579 130.94Z" fill="#122A44"/>
<path d="M141.022 149.339L130.078 147.104L133.85 146.163C134.119 146.132 134.341 145.94 134.41 145.678C134.903 143.78 137.275 136.22 144.012 134.916L143.266 134.17C143.266 134.17 135.804 133.922 133.317 144.368L127.596 145.612V149.838L139.534 152.822L141.022 149.339Z" fill="url(#paint9_linear_242_93416)"/>
<path d="M123.86 194.106C123.86 194.106 114.158 179.432 125.351 180.428C125.351 180.428 127.838 180.428 137.289 183.163C137.289 183.163 140.275 183.661 136.792 179.68C136.792 179.68 131.818 175.452 128.087 174.209C128.087 174.209 124.854 170.229 132.315 171.973L136.544 172.719C136.544 172.719 140.524 173.715 141.518 169.237C141.518 169.237 142.264 164.765 136.047 165.258C136.047 165.258 135.299 165.258 134.305 166.003C134.305 166.003 137.788 161.029 143.757 164.263C144.648 164.649 145.484 165.15 146.244 165.755L149.223 163.016L151.96 162.519L149.724 155.306C149.724 155.306 146.987 156.052 148.728 153.316L154.947 152.073C154.947 152.073 158.927 150.829 160.418 149.336C160.418 149.336 167.389 143.616 175.84 143.865C175.84 143.865 180.814 143.616 181.063 139.393C181.063 139.393 183.053 141.134 185.043 146.854C185.043 146.854 185.291 148.098 186.534 148.098L194.336 143.346L195.871 145.723C195.871 145.723 193.008 153.813 200.966 165.752C200.966 165.752 193.754 173.712 191.018 181.919L187.426 173.839L180.82 176.199C180.82 176.199 165.644 204.056 123.86 194.106Z" fill="url(#paint10_radial_242_93416)"/>
<path d="M129.824 81.6861C129.824 81.6861 129.327 73.9749 126.094 77.9548C126.094 77.9548 120.124 68.5034 129.824 55.5691C129.824 55.5691 134.296 53.3333 132.808 49.1032C132.808 49.1032 133.555 46.6161 138.778 45.3719C138.778 45.3719 135.794 38.9046 127.088 41.1432C127.088 41.1432 124.852 37.6617 120.372 40.8947C120.372 40.8947 78.3381 31.9403 60.4307 81.1877C60.4307 81.1877 77.8407 75.2192 84.5565 78.4521C84.5565 78.4521 87.5409 79.6964 86.5466 84.9194C86.5466 84.9194 99.728 77.7066 106.195 87.1552C106.195 87.1552 114.154 78.6982 119.627 80.6879C119.627 80.6879 121.863 81.6837 123.108 84.9166" fill="#1797E5"/>
<path d="M106.114 88.197L105.654 87.5247C104.265 85.4957 102.432 84.1234 100.205 83.4461C98.4019 82.8977 96.3289 82.7951 94.0437 83.1413C90.1003 83.7391 86.8929 85.4761 86.861 85.4936L85.6416 86.1607L85.9017 84.7954C86.7641 80.2653 84.4506 79.124 84.3008 79.0554L84.2714 79.0421C81.659 77.7845 76.766 77.8549 70.1223 79.2458C65.0277 80.3126 60.6863 81.7924 60.6429 81.8071L59.3447 82.2519L59.8137 80.9622C63.9336 69.632 69.6827 60.4385 76.9007 53.637C82.689 48.1829 89.4255 44.2493 96.9235 41.9452C103.59 39.8963 109.637 39.5432 113.535 39.6079C117.027 39.6657 119.427 40.05 120.223 40.1963C121.835 39.0931 123.373 38.6706 124.796 38.9401C126.08 39.1837 126.925 39.9383 127.34 40.4049C131.852 39.3629 134.848 40.6219 136.583 41.8864C138.533 43.3074 139.34 45.0231 139.373 45.0956L139.709 45.8229L138.929 46.0084C136.45 46.5992 135.083 47.4721 134.372 48.1003C133.871 48.5434 133.621 48.9281 133.509 49.136C134.084 51.0085 133.693 52.8054 132.372 54.3475C131.557 55.2974 130.619 55.8759 130.262 56.0758C128.155 58.909 126.651 61.7955 125.793 64.6557C125.1 66.9639 124.823 69.262 124.97 71.487C125.135 73.9989 125.812 75.8571 126.254 76.8318C126.939 76.2309 127.602 76.0286 128.234 76.2302C129.109 76.5095 129.731 77.5154 130.134 79.306C130.401 80.49 130.475 81.5957 130.478 81.6422L129.168 81.7269C129.048 79.881 128.471 77.683 127.835 77.4804C127.638 77.4174 127.211 77.6176 126.602 78.3669L126.026 79.076L125.538 78.3036C125.473 78.2014 123.954 75.7542 123.666 71.6567C123.498 69.2673 123.785 66.804 124.519 64.3351C125.431 61.2691 127.039 58.1866 129.298 55.1742L129.391 55.0503L129.53 54.981C129.69 54.9001 133.463 52.9433 132.189 49.3194L132.118 49.1178L132.179 48.913C132.212 48.8031 133.006 46.3388 137.769 44.958C137.389 44.4064 136.737 43.6109 135.761 42.9105C133.499 41.2879 130.636 40.9068 127.251 41.7772L126.792 41.8952L126.536 41.4962C126.531 41.4892 125.842 40.4651 124.532 40.2253C123.413 40.0202 122.142 40.4241 120.756 41.4248L120.52 41.5952L120.235 41.5347C120.21 41.5291 117.586 40.9824 113.455 40.9183C109.651 40.8602 103.751 41.2106 97.2508 43.2168C89.9571 45.468 83.4034 49.3043 77.7712 54.6194C70.9868 61.022 65.5222 69.6054 61.5168 80.1456C63.2035 79.6189 66.3472 78.6959 69.8402 77.9637C76.8671 76.4913 81.9103 76.4542 84.8303 77.8542C85.1243 77.9854 87.7609 79.2955 87.3664 83.7891C88.7013 83.1889 91.0845 82.2621 93.8467 81.8435C99.1786 81.0353 103.456 82.5207 106.27 86.1432C108.221 84.2259 114.842 78.2486 119.85 80.0697L119.893 80.0868C119.994 80.132 122.392 81.2324 123.72 84.6788L122.496 85.1506C121.419 82.3573 119.594 81.3997 119.375 81.2929C116.821 80.385 113.549 82.0983 111.25 83.6995C108.66 85.5041 106.692 87.5821 106.672 87.6031L106.114 88.197Z" fill="#122A44"/>
<path d="M132.562 95.1192C132.562 95.1192 123.355 83.9276 112.913 91.6378C112.913 91.6378 106.074 91.5128 103.088 97.7313C103.088 97.7313 102.591 98.4771 102.591 98.9741C102.591 98.9741 106.571 99.9699 106.571 104.944C106.571 104.944 107.565 104.944 110.052 98.4768C110.052 98.4768 114.032 99.2237 114.524 104.695C114.524 104.695 115.52 104.944 117.758 103.202C117.758 103.202 118.504 98.9738 119.747 98.4768C119.747 98.4768 122.981 98.4768 123.727 103.95C123.727 103.95 124.224 104.944 128.701 100.964L135.417 101.711C135.417 101.711 136.667 99.7214 132.562 95.1192Z" fill="#1797E5"/>
<path d="M106.57 105.14H106.374V104.944C106.374 102.94 105.727 101.358 104.451 100.242C103.503 99.4117 102.552 99.167 102.543 99.1646L102.394 99.1275V98.9738C102.394 98.453 102.835 97.7576 102.916 97.6337C104.488 94.3696 107.121 92.8593 109.053 92.167C110.939 91.4919 112.504 91.4425 112.848 91.4404C115.248 89.6824 117.784 88.771 120.385 88.7318C122.479 88.7003 124.619 89.2319 126.742 90.3113C130.287 92.1142 132.616 94.8767 132.711 94.9905C136.863 99.6476 135.638 101.729 135.584 101.815L135.518 101.92L128.766 101.169C126.329 103.328 124.636 104.39 123.868 104.243C123.648 104.2 123.57 104.075 123.551 104.037L123.536 104.008L123.532 103.976C123.236 101.806 122.486 100.202 121.361 99.3347C120.626 98.768 119.948 98.6868 119.784 98.6753C119.35 98.8839 118.887 99.7344 118.476 101.08C118.141 102.175 117.954 103.226 117.952 103.236L117.939 103.311L117.879 103.358C115.591 105.137 114.521 104.897 114.477 104.886L114.341 104.852L114.328 104.713C114.08 101.954 112.913 100.456 111.979 99.6861C111.215 99.0564 110.485 98.7981 110.173 98.7096C109.162 101.321 108.277 103.184 107.541 104.247C107.002 105.024 106.702 105.14 106.57 105.14ZM102.802 98.8317C103.134 98.9416 103.919 99.2531 104.71 99.9451C105.606 100.729 106.666 102.162 106.761 104.59C107.166 104.2 108.15 102.875 109.869 98.4058L109.927 98.2528L110.088 98.2829C110.131 98.291 111.146 98.4894 112.229 99.3819C113.202 100.184 114.411 101.722 114.703 104.509C115.027 104.499 115.955 104.341 117.578 103.092C117.628 102.829 117.809 101.915 118.098 100.968C118.57 99.4229 119.1 98.523 119.673 98.2934L119.708 98.2794H119.746C119.782 98.2794 120.632 98.2878 121.576 99.0036C123.096 100.157 123.686 102.259 123.911 103.848C124.065 103.905 124.983 104.005 128.57 100.816L128.635 100.758L135.295 101.499C135.457 101.039 135.825 99.0739 132.414 95.2495L132.408 95.2435C132.386 95.2159 130.084 92.4491 126.552 90.6564C124.488 89.6089 122.413 89.0923 120.383 89.1252C117.849 89.1647 115.375 90.0632 113.029 91.7953L112.975 91.8349L112.909 91.8338C112.892 91.8342 111.199 91.8132 109.172 92.5419C107.311 93.2111 104.775 94.6692 103.265 97.8157L103.251 97.8395C103.138 98.0099 102.867 98.4779 102.802 98.8317Z" fill="#122A44"/>
<path d="M141.02 147.848C141.02 147.848 140.278 151.578 139.278 151.827L128.085 149.091C128.085 149.091 127.837 147.101 128.833 145.858L133.556 145.183C133.841 145.145 134.06 144.912 134.082 144.626C134.23 142.682 135.318 135.524 143.261 134.666L142.735 134.168C142.735 134.168 135.055 133.422 133.315 142.874C133.315 142.874 133.066 144.117 132.071 144.365L127.599 145.112C127.599 145.112 125.857 147.599 127.102 150.335L139.289 153.568C139.289 153.568 141.517 154.065 141.02 147.848ZM150.968 150.584C150.968 150.584 148.732 152.819 148.732 154.812C148.732 154.812 163.905 154.314 171.864 159.04L147.487 155.807C147.487 155.807 145.745 154.065 150.968 150.584ZM133.558 168.242C133.558 168.242 134.426 165.2 137.384 165.413C137.879 165.448 138.342 165.67 138.68 166.034C139.261 166.659 140.027 167.92 140.027 170.232C140.025 170.232 138.533 165.009 133.558 168.242ZM119.878 163.766C119.878 163.766 120.747 160.728 123.705 160.936C124.2 160.971 124.663 161.193 125.001 161.557C125.582 162.181 126.348 163.443 126.348 165.755C126.345 165.755 124.852 160.532 119.878 163.766Z" fill="#5DC5F9"/>
<path d="M138.907 170.5C138.722 170.5 138.556 170.369 138.521 170.18C138.254 168.783 137.756 167.95 137.038 167.703C136.007 167.347 134.633 168.274 134.191 168.662C134.027 168.805 133.779 168.788 133.635 168.625C133.492 168.461 133.509 168.212 133.672 168.069C133.752 168 135.626 166.383 137.295 166.958C138.298 167.304 138.971 168.339 139.294 170.033C139.334 170.246 139.194 170.453 138.981 170.493C138.956 170.498 138.931 170.5 138.907 170.5ZM125.391 165.673C125.222 165.673 125.065 165.562 125.014 165.391C124.646 164.151 124.121 163.442 123.456 163.285C122.303 163.011 120.982 164.4 120.969 164.414C120.82 164.573 120.571 164.581 120.413 164.432C120.254 164.284 120.246 164.035 120.394 163.876C120.461 163.805 122.038 162.141 123.635 162.518C124.596 162.744 125.314 163.636 125.769 165.167C125.831 165.375 125.712 165.594 125.504 165.656C125.466 165.668 125.429 165.673 125.391 165.673ZM171.863 159.936C171.846 159.936 171.829 159.935 171.811 159.932L148.067 156.81C147.161 156.693 146.472 155.945 146.428 155.032C146.303 152.165 150.616 150.068 150.8 149.98C150.996 149.886 151.231 149.969 151.325 150.165C151.419 150.361 151.336 150.596 151.14 150.69C151.129 150.695 150.091 151.196 149.087 152.001C148.204 152.708 147.162 153.802 147.215 154.996C147.24 155.526 147.641 155.961 148.169 156.029L171.914 159.151C172.13 159.179 172.281 159.377 172.253 159.593C172.227 159.792 172.058 159.936 171.863 159.936Z" fill="#122A44"/>
<path d="M150.43 156.721C150.43 156.721 149.175 162.105 154.978 164.725C157.081 165.665 159.415 165.961 161.686 165.576C164.47 165.113 168.199 163.647 169.296 159.198L150.43 156.721Z" fill="#F3F5F7"/>
<path d="M159.729 166.134C158.045 166.134 156.375 165.78 154.817 165.084C151.673 163.665 150.542 161.446 150.145 159.834C149.716 158.089 150.032 156.689 150.046 156.63C150.092 156.433 150.28 156.304 150.481 156.329L169.347 158.807C169.458 158.822 169.557 158.883 169.62 158.976C169.683 159.068 169.704 159.183 169.677 159.292C169.163 161.379 168.042 163.032 166.347 164.204C165.091 165.073 163.545 165.665 161.75 165.964C161.078 166.077 160.402 166.134 159.729 166.134ZM150.757 157.16C150.698 157.649 150.646 158.597 150.918 159.678C151.441 161.76 152.861 163.337 155.14 164.366C157.177 165.276 159.418 165.56 161.62 165.187C164.281 164.745 167.637 163.399 168.797 159.529L150.757 157.16Z" fill="#122A44"/>
<path d="M139.267 154.567C139.049 154.567 138.826 154.538 138.606 154.476L126.06 151.114C125.85 151.057 125.726 150.842 125.782 150.632C125.838 150.421 126.054 150.297 126.264 150.353L138.814 153.717C139.597 153.937 140.403 153.561 140.736 152.826C141.501 151.055 141.132 147.928 141.129 147.896C141.102 147.68 141.256 147.484 141.472 147.458C141.688 147.432 141.883 147.585 141.91 147.801C141.926 147.938 142.307 151.173 141.455 153.144C141.053 154.033 140.192 154.567 139.267 154.567Z" fill="#122A44"/>
<path d="M137.788 154.062C137.788 154.062 139.777 157.047 137.29 159.783C137.29 159.783 132.316 157.296 125.601 157.296L126.602 151.078L137.788 154.062Z" fill="#F3F5F7"/>
<path d="M137.288 160.176C137.229 160.176 137.169 160.162 137.113 160.134C137.064 160.11 132.136 157.689 125.6 157.689C125.484 157.689 125.375 157.638 125.3 157.551C125.225 157.463 125.193 157.346 125.211 157.233L126.212 151.015C126.23 150.905 126.293 150.807 126.386 150.747C126.48 150.686 126.595 150.668 126.702 150.697L137.889 153.681C137.981 153.706 138.062 153.763 138.115 153.843C138.137 153.876 138.66 154.672 138.858 155.83C139.043 156.909 138.972 158.517 137.58 160.047C137.503 160.131 137.397 160.176 137.288 160.176ZM126.061 156.905C131.747 156.999 136.065 158.788 137.186 159.299C138.924 157.163 137.845 154.945 137.533 154.401L126.919 151.57L126.061 156.905Z" fill="#122A44"/>
<path d="M140.28 162.6C140.195 162.6 140.11 162.568 140.046 162.502C140.02 162.475 137.397 159.827 134.135 158.984C133.959 158.938 133.854 158.759 133.899 158.584C133.944 158.409 134.123 158.303 134.299 158.348C137.741 159.238 140.403 161.929 140.515 162.043C140.642 162.173 140.639 162.38 140.51 162.507C140.446 162.569 140.363 162.6 140.28 162.6Z" fill="#122A44"/>
<path d="M186.636 105.313C186.636 105.313 178.947 102.458 179.946 113.893C179.946 113.893 180.817 103.323 187.891 107.29L186.636 105.313Z" fill="#122A44"/>
<path d="M118.141 44.3789C118.141 44.3789 117.519 47.7368 118.763 49.7203C118.763 49.7203 101.85 55.4417 88.9156 77.826C88.9156 77.826 85.9312 68.873 67.5254 76.0858C67.5254 76.0914 74.987 44.9998 118.141 44.3789Z" fill="url(#paint11_linear_242_93416)"/>
<path d="M88.9155 78.0227C88.9089 78.0227 88.9022 78.0223 88.8956 78.0216C88.8186 78.0139 88.7531 77.9614 88.7286 77.8879C88.7216 77.8676 87.9982 75.8047 85.2311 74.5157C83.5007 73.71 81.3454 73.368 78.8251 73.5007C75.6345 73.668 71.8569 74.5993 67.597 76.2688L67.5967 76.2681C67.5673 76.28 67.5344 76.2846 67.5012 76.2807C67.4116 76.2699 67.3412 76.1995 67.3297 76.1103C67.3265 76.0847 67.3282 76.0592 67.3345 76.0354C67.4224 75.6812 69.4086 67.9448 76.626 60.2035C80.8638 55.6577 86.056 52.0117 92.0582 49.3661C99.5426 46.0673 108.317 44.3233 118.137 44.1819C118.196 44.1787 118.253 44.2067 118.291 44.2515C118.329 44.2967 118.345 44.3562 118.334 44.4143C118.328 44.4472 117.741 47.7207 118.929 49.6153C118.961 49.6664 118.968 49.729 118.948 49.7857C118.927 49.8424 118.883 49.8869 118.825 49.9061C117.368 50.3996 113.396 52.2144 108.789 55.5492C105.408 57.9967 102.172 60.8849 99.1712 64.134C95.4196 68.1954 92.0263 72.835 89.0856 77.924C89.0503 77.9856 88.9852 78.0227 88.9155 78.0227ZM79.8596 73.0796C82.0051 73.0796 83.8692 73.444 85.4138 74.1671C87.6377 75.208 88.5974 76.7007 88.9408 77.3906C91.8528 72.4041 95.1991 67.8527 98.8912 63.8575C101.912 60.5885 105.17 57.6821 108.574 55.2195C112.996 52.0208 116.845 50.2092 118.473 49.6139C117.527 47.8751 117.795 45.361 117.909 44.5795C108.236 44.744 99.5937 46.4754 92.2174 49.7266C86.2643 52.3505 81.1154 55.9657 76.9144 60.4723C70.5486 67.3001 68.296 74.1065 67.8179 75.7613C71.9759 74.1625 75.6754 73.27 78.8201 73.1073C79.1736 73.0887 79.5205 73.0796 79.8596 73.0796Z" fill="#122A44"/>
<path d="M119.256 51.4688L121.492 53.7046C121.492 53.7046 108.316 67.636 105.327 80.5702C105.327 80.5702 100.104 76.8389 91.6484 79.8233C91.647 79.823 100.353 60.1743 119.256 51.4688Z" fill="url(#paint12_linear_242_93416)"/>
<path d="M105.327 80.7666C105.286 80.7666 105.247 80.754 105.213 80.7298C105.2 80.7207 103.897 79.8062 101.592 79.2637C99.4663 78.7632 96.0265 78.486 91.7138 80.0081C91.6606 80.027 91.6018 80.0218 91.5528 79.9945C91.5034 79.9672 91.4684 79.9199 91.4562 79.8646C91.4401 79.7915 91.4362 79.774 91.8828 78.8731C92.1345 78.3656 92.5555 77.5452 93.132 76.519C94.1487 74.7091 95.8546 71.899 98.2066 68.7903C100.85 65.2962 103.754 62.1445 106.837 59.4232C110.694 56.0198 114.844 53.2832 119.173 51.2896C119.248 51.2549 119.336 51.271 119.395 51.3291L121.63 53.5649C121.706 53.6402 121.707 53.762 121.634 53.8393C121.601 53.874 118.305 57.3743 114.686 62.4059C111.352 67.0431 107.055 73.9657 105.518 80.614C105.503 80.678 105.458 80.7305 105.396 80.7536C105.374 80.7624 105.35 80.7666 105.327 80.7666ZM98.0663 78.4734C99.5149 78.4734 100.741 78.6571 101.704 78.8853C103.522 79.3162 104.716 79.9584 105.2 80.2528C106.804 73.6238 111.059 66.7757 114.371 62.1714C117.597 57.6858 120.569 54.4109 121.218 53.7088L119.214 51.7043C114.979 53.6703 110.916 56.3548 107.136 59.685C104.077 62.3797 101.195 65.501 98.5703 68.9625C94.8043 73.9286 92.6483 78.1797 92.0221 79.487C94.3073 78.7334 96.3443 78.4734 98.0663 78.4734Z" fill="#122A44"/>
<path d="M123.235 55.6934C123.235 55.6934 114.778 66.6375 123.235 79.8192C123.235 79.8192 116.52 73.8507 108.312 80.815C108.317 80.815 113.287 62.9062 123.235 55.6934Z" fill="url(#paint13_linear_242_93416)"/>
<path d="M108.312 81.0107C108.23 81.0107 108.156 80.9593 108.127 80.8819C108.112 80.8403 108.112 80.7955 108.124 80.7549L108.13 80.7342C108.365 79.9156 109.66 75.5752 112.031 70.5195C113.47 67.4521 115.03 64.7105 116.668 62.3711C118.707 59.4591 120.877 57.1586 123.119 55.5335C123.198 55.4761 123.308 55.4856 123.376 55.5559C123.444 55.6263 123.45 55.7358 123.391 55.8132C123.37 55.8405 121.283 58.5782 120.251 62.8755C119.645 65.3951 119.515 67.9508 119.863 70.4722C120.299 73.6247 121.489 76.7334 123.4 79.7126C123.453 79.7952 123.437 79.9044 123.363 79.9684C123.288 80.0321 123.177 80.0314 123.104 79.9663C123.087 79.9516 121.419 78.4928 118.789 77.8933C117.25 77.5422 115.686 77.5499 114.139 77.9157C112.201 78.3742 110.283 79.4 108.439 80.9652C108.399 81.0006 108.352 81.0107 108.312 81.0107ZM122.413 56.5751C120.538 58.1095 118.719 60.1297 116.991 62.5965C115.366 64.9174 113.818 67.6393 112.388 70.6864C110.38 74.9659 109.15 78.7277 108.684 80.2551C110.427 78.8754 112.233 77.9591 114.061 77.5289C115.669 77.1506 117.295 77.1453 118.895 77.5128C120.522 77.8866 121.775 78.5614 122.535 79.0581C120.902 76.2924 119.873 73.4231 119.472 70.5149C119.118 67.9428 119.253 65.336 119.872 62.7666C120.557 59.9299 121.693 57.7588 122.413 56.5751Z" fill="#122A44"/>
<path d="M162.373 158.293C162.373 158.293 159.554 163.109 164.713 164.681C164.713 164.681 168.535 162.257 168.954 159.157L162.373 158.293ZM133.093 152.814C133.093 152.814 130.323 156.304 132.566 157.797L137.292 159.04C137.292 159.04 139.351 155.659 136.581 153.743L133.093 152.814Z" fill="#122A44"/>
<path d="M162.162 163.766C162.85 163.766 163.407 163.209 163.407 162.522C163.407 161.834 162.85 161.277 162.162 161.277C161.475 161.277 160.918 161.834 160.918 162.522C160.918 163.209 161.475 163.766 162.162 163.766Z" fill="white"/>
<path d="M132.068 156.553C132.755 156.553 133.312 155.996 133.312 155.309C133.312 154.622 132.755 154.064 132.068 154.064C131.38 154.064 130.823 154.622 130.823 155.309C130.823 155.996 131.38 156.553 132.068 156.553Z" fill="white"/>
<path d="M163.653 120.369C163.649 120.369 163.645 120.369 163.642 120.369C163.57 120.363 163.516 120.3 163.522 120.227C163.524 120.196 163.806 117.132 166.125 116.875C166.13 116.874 166.135 116.874 166.139 116.874C166.165 116.874 168.306 116.897 169.167 118.538C169.173 118.191 169.201 117.796 169.275 117.388C169.569 115.747 170.453 114.71 171.83 114.39C171.9 114.374 171.971 114.418 171.987 114.488C172.004 114.559 171.96 114.629 171.889 114.646C170.604 114.944 169.812 115.882 169.533 117.434C169.382 118.276 169.43 119.078 169.471 119.469C169.484 119.553 169.495 119.64 169.503 119.729C169.509 119.799 169.459 119.862 169.389 119.871C169.319 119.88 169.255 119.832 169.243 119.763C169.241 119.749 169.225 119.652 169.208 119.491C169.05 118.547 168.516 117.868 167.618 117.47C166.913 117.158 166.222 117.137 166.146 117.136C164.05 117.376 163.786 120.22 163.784 120.249C163.778 120.317 163.72 120.369 163.653 120.369Z" fill="black"/>
<path d="M193.711 127.39C193.711 127.39 190.269 124.219 185.792 133.919C185.792 133.919 191.642 127.827 193.692 128.385L193.711 127.39ZM193.114 120.275C193.114 120.275 188.773 114.02 186.04 122.726C186.04 122.726 187.386 120.371 188.832 119.395C189.395 119.016 190.14 119.053 190.662 119.486C191.496 120.188 192.752 121.888 193.696 125.979L193.114 120.275ZM181.053 97.1857C181.053 97.1857 175.343 98.1065 177.332 103.822C177.332 103.822 176.959 98.3326 183.119 98.7138L181.053 97.1857ZM174.258 90.8356C174.258 90.8356 170.466 91.1527 173.002 97.0779C173.197 97.5343 173.039 98.0652 172.626 98.3407C172.201 98.6245 171.633 98.5545 171.289 98.1762C170.748 97.5791 169.711 96.3768 168.733 95.7062C168.366 95.4514 167.862 95.5421 167.607 95.9092C167.55 95.9904 167.509 96.0811 167.486 96.1773C167.262 97.1297 167.253 99.1789 168.131 103.574C168.131 103.574 164.869 98.6802 166.29 95.1697C166.802 93.9016 168.344 93.3532 169.504 94.078C169.934 94.3591 170.313 94.7105 170.627 95.1172C170.627 95.1172 168.943 88.5431 174.258 90.8356ZM165.927 85.5891C165.927 85.5891 160.009 86.0207 162.406 90.2952C162.491 90.4429 162.599 90.5759 162.725 90.6897L163.703 91.5839C163.973 91.9136 164.007 92.3774 163.787 92.7428C163.571 93.1054 163.15 93.294 162.735 93.2149C161.486 92.9731 158.683 91.8853 157.01 94.5222C156.755 94.9145 156.689 95.4007 156.831 95.8466C157.068 96.5704 157.546 97.1913 158.186 97.605C158.186 97.605 154.207 95.6149 157.191 92.6308C157.191 92.6308 158.186 91.3879 160.921 91.3879C160.921 91.3879 157.221 84.8839 164.295 85.026L165.927 85.5891ZM135.545 77.2084C135.545 77.2084 141.251 71.7396 145.457 78.4684C145.636 78.7571 145.78 79.0662 145.887 79.3892L146.488 81.1938C146.488 81.1938 143.503 80.9453 142.016 83.6809L141.021 82.6866C141.021 82.6866 141.518 85.671 145.747 89.8994C145.747 89.8994 145.996 87.9093 143.26 84.9252C143.26 84.9252 146.244 80.4532 149.478 83.4324C149.478 83.4324 150.97 84.1793 153.706 88.6565C153.706 88.6565 152.96 84.4278 148.234 81.4423C148.234 81.4423 146.742 74.9764 142.016 73.7322C142.016 73.7269 137.539 72.7364 135.545 77.2084ZM125.337 39.7759C125.337 39.7759 123.364 41.3922 125.103 46.8651C125.103 46.8651 122.867 43.3823 123.612 39.6523L125.337 39.7759ZM126.347 48.6053C126.347 48.6053 129.668 52.0948 133.107 50.4743L132.914 52.1288C132.914 52.1288 127.59 52.0868 126.347 48.6053Z" fill="#122A44"/>
<path d="M119.629 44.6279C119.629 44.6279 120.624 41.8925 123.858 40.1562L120.127 40.4047C120.127 40.4047 119.382 41.3938 119.629 44.6279ZM124.853 51.8402C124.853 51.8402 126.595 55.3215 132.066 51.3433L131.568 54.8245C131.568 54.8245 126.098 55.8198 124.853 51.8402Z" fill="#122A44"/>
<path d="M137.788 45.1243C137.788 45.1243 132.812 46.6169 132.067 49.8511C132.067 49.8511 125.103 47.6154 126.595 41.643C126.601 41.6416 135.544 39.4046 137.788 45.1243Z" fill="url(#paint14_linear_242_93416)"/>
<path d="M159.675 62.0378C159.675 62.0378 162.831 65.5638 161.91 68.7531C161.91 68.7531 168.881 70.2458 170.366 65.2719C170.368 65.2716 164.407 58.1212 159.675 62.0378Z" fill="url(#paint15_linear_242_93416)"/>
<path d="M179.008 129.348C179.008 129.348 177.081 134.325 178.823 137.148C178.823 137.148 171.853 139.138 168.627 135.158C168.627 135.158 174.098 127.449 179.008 129.348Z" fill="url(#paint16_linear_242_93416)"/>
<path d="M159.175 123.224C159.175 123.224 156.688 127.949 157.682 132.43C157.682 132.43 151.443 134.255 148.683 129.856C148.683 129.852 153.703 120.985 159.175 123.224Z" fill="url(#paint17_linear_242_93416)"/>
<path d="M118.614 126.992C118.614 126.992 117.592 129.943 119.14 132.673C119.14 132.673 115.852 135.002 113.17 132.673C113.165 132.673 114.658 128.196 118.614 126.992Z" fill="url(#paint18_linear_242_93416)"/>
<path d="M111.057 126.184C111.057 126.184 109.706 128.997 110.925 131.885C110.925 131.885 107.393 133.826 104.994 131.205C104.994 131.205 106.988 126.925 111.057 126.184Z" fill="url(#paint19_linear_242_93416)"/>
<path d="M102.095 107.922C102.095 107.922 103.51 105.37 106.567 104.69C106.567 104.69 106.122 100.065 102.597 99.6289C102.602 99.6289 100.343 104.175 102.095 107.922Z" fill="url(#paint20_linear_242_93416)"/>
<path d="M102.096 108.218C102.092 108.218 102.089 108.218 102.085 108.218C101.974 108.214 101.875 108.148 101.828 108.048C101.097 106.483 100.941 104.615 101.364 102.495C101.664 100.999 102.173 99.842 102.322 99.5232L102.326 99.5134C102.332 99.4994 102.34 99.4854 102.348 99.4721C102.409 99.3751 102.521 99.322 102.634 99.3363C104.183 99.5281 105.407 100.519 106.173 102.201C106.739 103.442 106.857 104.613 106.862 104.662C106.876 104.81 106.777 104.946 106.632 104.978C103.738 105.622 102.367 108.041 102.354 108.065C102.302 108.16 102.203 108.218 102.096 108.218ZM102.775 99.9547C102.578 100.404 102.188 101.387 101.944 102.611C101.59 104.379 101.661 105.953 102.155 107.297C102.718 106.524 104.043 105.044 106.239 104.466C106.175 104.069 106.009 103.258 105.63 102.432C104.979 101.014 104.02 100.181 102.775 99.9547Z" fill="#122A44"/>
<path d="M109.981 106.985C109.981 106.985 111.219 105.124 114.281 104.444C114.281 104.444 113.659 99.345 110.426 98.8477C110.42 98.8477 107.938 103.325 109.981 106.985Z" fill="url(#paint21_linear_242_93416)"/>
<path d="M109.981 107.28C109.977 107.28 109.973 107.28 109.969 107.279C109.866 107.275 109.773 107.218 109.723 107.129C108.862 105.584 108.657 103.655 109.132 101.548C109.509 99.8714 110.163 98.712 110.17 98.7011C110.23 98.5979 110.352 98.538 110.471 98.5559C111.9 98.7756 113.064 99.869 113.839 101.718C114.407 103.077 114.568 104.354 114.575 104.408C114.593 104.559 114.494 104.699 114.345 104.732C111.449 105.375 110.239 107.131 110.227 107.149C110.171 107.231 110.079 107.28 109.981 107.28ZM110.585 99.1788C110.179 99.9929 108.645 103.431 110.037 106.445C110.561 105.864 111.789 104.763 113.947 104.22C113.774 103.23 112.995 99.7314 110.585 99.1788Z" fill="#122A44"/>
<path d="M118.936 106.985C118.936 106.985 120.445 104.253 123.507 103.572C123.507 103.572 123.155 99.283 119.63 98.8477C119.628 98.8477 117.184 103.238 118.936 106.985Z" fill="url(#paint22_linear_242_93416)"/>
<path d="M118.938 107.28C118.934 107.28 118.93 107.28 118.927 107.28C118.816 107.276 118.717 107.21 118.67 107.11C116.848 103.214 119.355 98.7314 119.382 98.6894C119.443 98.5931 119.554 98.541 119.667 98.555C121.214 98.7461 122.422 99.6774 123.159 101.248C123.704 102.409 123.799 103.502 123.802 103.548C123.815 103.695 123.716 103.828 123.572 103.86C120.683 104.503 119.211 107.101 119.196 107.128C119.144 107.222 119.045 107.28 118.938 107.28ZM119.795 99.1706C119.396 99.964 117.888 103.299 118.995 106.352C119.575 105.537 120.954 103.939 123.182 103.348C123.124 102.976 122.974 102.237 122.617 101.484C121.994 100.165 121.045 99.3879 119.795 99.1706Z" fill="#122A44"/>
<path d="M102.964 128.696C102.964 128.696 101.248 130.986 102.468 133.876C102.468 133.876 99.1799 135.323 96.7861 132.692C96.7861 132.699 98.9839 128.446 102.964 128.696Z" fill="url(#paint23_linear_242_93416)"/>
<path d="M126.936 40.9355C126.936 40.9355 125.6 46.3661 132.564 49.849L132.067 50.5948C132.067 50.5948 124.606 48.359 126.099 41.1434L126.936 40.9355ZM172.36 64.522C172.36 64.522 173.108 67.9996 168.879 70.4986C168.879 70.4986 173.108 69.2544 173.351 65.2756L172.36 64.522Z" fill="#122A44"/>
<path d="M98.4902 192.619C98.4902 192.619 62.4245 171.229 71.3789 122.479L61.679 131.925C61.679 131.925 59.9374 173.224 98.4902 192.619Z" fill="url(#paint24_radial_242_93416)"/>
<path d="M72.8691 113.523C72.8691 113.523 75.1051 116.757 78.0925 113.523C78.0925 113.523 75.4814 117.752 72.8691 113.523Z" fill="#5DC5F9"/>
<path d="M173.581 66.125C173.581 66.125 174.7 68.3466 173.886 71.4863C173.886 71.4863 175.127 70.1919 175.452 66.9654L173.581 66.125ZM160.918 70.4985C160.918 70.4985 162.908 73.4832 167.385 71.2444C167.385 71.2444 162.913 72.2403 161.168 69.7516L160.918 70.4985Z" fill="#122A44"/>
<path d="M160.916 70.9904C160.916 70.9904 161.663 75.4623 166.389 74.9702C166.389 74.9702 163.807 76.5116 160.997 75.2439L160.916 70.9904ZM170.367 64.7719C170.367 64.7719 168.876 70.4934 161.414 68.2548L161.166 69.4976C161.166 69.4976 169.622 71.9847 172.109 64.5234L170.367 64.7719ZM116.395 196.595C116.395 196.595 123.781 196.394 123.944 203.708L121.037 203.269C121.037 203.269 122.862 198.343 116.395 196.595ZM104.704 191.372C104.704 191.372 110.252 194.086 107.975 201.31L106.202 200.662C106.202 200.662 108.185 193.362 104.704 191.372ZM80.33 175.458C80.33 175.458 83.5629 181.925 76.3501 183.666L74.8588 181.43C74.8588 181.43 80.5785 182.917 80.33 175.458ZM68.143 163.266C68.143 163.266 67.8945 166.501 63.1688 165.754L63.4015 164.355C63.4064 164.318 63.4411 164.292 63.4785 164.297C63.4855 164.298 63.4925 164.3 63.4992 164.302C63.9668 164.525 66.3594 165.5 68.143 163.266ZM62.6767 124.467C62.6767 124.467 60.6813 133.421 55.7057 131.182L54.71 133.171C54.71 133.171 62.6767 136.405 62.6767 124.467ZM54.4629 117.751C54.4629 117.751 57.9419 124.964 61.1787 113.522C61.1787 113.522 61.6757 123.719 54.7114 121.482L54.4629 117.751ZM60.4328 103.573C60.4328 103.573 59.9344 109.045 66.4014 106.806C66.4014 106.806 60.6813 112.199 58.0693 105.895L60.4328 103.573ZM62.4215 95.1162C62.4215 95.1162 64.1628 100.339 71.8729 92.6291C71.8729 92.6291 64.4116 103.573 71.3759 104.072C71.3759 104.072 65.1585 105.068 67.8945 97.8536C67.8945 97.8536 65.0073 100.633 61.7257 97.6261L62.4215 95.1162ZM68.64 116.506C68.64 116.506 71.3756 117.253 72.6198 114.019C72.6198 114.019 74.1112 116.755 76.8485 115.264C76.8485 115.264 77.8429 114.767 78.5887 112.528C78.5887 112.528 76.8485 116.507 74.1168 114.764C74.1168 114.764 72.6254 114.017 72.6254 111.778C72.6202 111.781 71.8729 116.506 68.64 116.506Z" fill="#122A44"/>
<path d="M122.368 44.3795C122.368 44.3795 124.109 48.8515 125.849 50.8454C125.849 50.8454 121.373 49.3541 122.368 44.3795ZM64.6631 77.4598C64.6631 77.4598 73.8698 54.8256 91.5259 48.3583C91.5259 48.3583 105.205 42.6383 118.883 43.1353C118.883 43.1353 95.7518 40.3997 81.8232 52.342C81.826 52.3382 69.6387 61.5411 64.6631 77.4598ZM125.849 56.0695C125.849 56.0695 118.139 64.5252 124.358 78.7026C124.358 78.7026 115.403 67.0126 125.849 56.0695ZM164.931 72.8825C164.931 72.8825 170.192 73.3217 173.304 69.7363C173.304 69.7363 171.273 75.4802 164.931 72.8825ZM177.833 71.4898C177.833 71.4898 186.04 79.2 184.804 98.1042C184.797 98.1042 189.025 79.6984 177.833 71.4898Z" fill="#5DC5F9"/>
<path d="M144.751 136.401C144.751 136.401 145.248 138.143 147.486 139.386C147.486 139.386 144.003 133.168 151.466 132.919L146.987 129.684C146.987 129.684 143.756 132.67 144.751 136.401Z" fill="url(#paint25_linear_242_93416)"/>
<path d="M69.8856 74.968L67.8955 75.7138C67.8955 75.7138 71.6216 62.0323 85.3003 53.5767C85.3003 53.5767 97.4877 44.3699 117.883 44.6223C117.734 44.9338 117.65 45.2719 117.635 45.6166C117.635 45.6166 80.3313 45.6166 69.8856 74.968ZM92.2713 79.1939C92.2713 79.1939 101.226 60.0422 119.134 51.8365L119.629 52.3324C119.629 52.3324 105.95 56.8044 93.2642 78.9454L92.2713 79.1939Z" fill="#7DA4B7"/>
<path d="M146.985 129.684C146.862 130.387 147.043 131.111 147.483 131.674C147.483 131.674 144.497 133.909 145.248 137.393C145.248 137.396 142.513 131.676 146.985 129.684Z" fill="#5DC5F9"/>
<path d="M121.866 57.3105C121.866 57.3105 113.657 64.0263 108.932 79.9447L109.927 79.1978C109.927 79.1978 112.17 69.249 121.866 57.3105Z" fill="#7DA4B7"/>
<path d="M148.234 129.191C148.234 129.191 151.218 133.664 158.43 131.927L159.426 132.425C159.426 132.425 152.214 136.405 146.741 129.44L148.234 129.191Z" fill="#122A44"/>
<path d="M146.242 129.934C146.242 129.934 147.984 134.406 151.964 134.908C151.964 134.908 148.233 135.157 145.248 130.679L146.242 129.934Z" fill="#122A44"/>
<path d="M166.685 135.098C166.685 135.098 163.157 140.629 164.65 142.619C164.65 142.619 164.898 143.862 166.885 144.359C166.885 144.359 165.891 140.878 168.128 138.888C169.319 139.645 170.567 140.311 171.859 140.878L173.106 138.889C173.106 138.889 170.212 138.768 166.685 135.099" fill="url(#paint26_linear_242_93416)"/>
<path d="M153.957 135.408C153.957 135.408 159.43 135.658 159.43 131.926L160.424 133.169C160.424 133.169 159.923 136.155 153.957 135.408ZM145.248 130.932C145.248 130.932 143.507 133.419 145.248 137.398C145.248 137.398 142.014 134.414 142.263 132.672L145.248 130.932Z" fill="#122A44"/>
<path d="M155.446 139.388C155.446 139.388 160.918 141.378 161.914 134.414L160.421 132.424C160.421 132.424 160.42 138.892 155.446 139.388ZM166.142 136.155C166.142 136.155 163.655 139.637 164.898 143.119C164.898 143.119 162.162 141.627 164.649 135.408L166.142 136.155ZM171.116 145.607C171.116 145.607 180.531 150.812 182.041 139.007L180.816 137.398C180.816 137.398 180.816 148.342 171.116 145.607Z" fill="#122A44"/>
<path d="M98.738 134.169C98.738 134.169 96.5022 143.869 107.945 149.839C107.945 149.839 103.965 141.421 102.971 134.018L98.738 134.169Z" fill="url(#paint27_linear_242_93416)"/>
<path d="M107.07 132.174C107.07 132.174 105.205 143.617 114.905 149.584L114.408 146.102C114.408 146.102 111.173 137.397 111.671 131.92L107.07 132.174Z" fill="url(#paint28_linear_242_93416)"/>
<path d="M173.852 141.128C173.852 141.128 180.004 142.189 180.783 138.051L180.319 137.147C180.319 137.147 179.82 140.881 173.852 141.128ZM166.142 134.91C166.142 134.91 165.644 137.146 169.872 139.885C169.872 139.885 167.137 139.636 165.4 135.906L166.142 134.91Z" fill="#122A44"/>
<path d="M168.38 134.42C168.38 134.42 171.613 139.394 179.323 136.41L180.318 138.152C180.318 138.152 171.365 142.379 166.391 134.668L168.38 134.42Z" fill="#122A44"/>
<path d="M167.385 142.625C167.385 142.625 170.868 144.365 177.832 143.371C177.832 143.367 171.116 147.848 167.385 142.625ZM148.233 136.406C148.233 136.406 151.466 137.898 158.431 136.903C158.429 136.903 152.959 141.629 148.233 136.406Z" fill="#5DC5F9"/>
<path d="M95.7529 133.42C95.7529 133.42 98.2399 135.908 103.214 134.663L103.96 130.933L102.25 130.215C102.25 130.215 101.461 131.925 101.716 133.669C101.716 133.669 98.7316 134.415 96.4931 132.425L95.7529 133.42Z" fill="#122A44"/>
<path d="M95.8768 133.545C95.8768 133.545 96.1253 135.286 98.8611 135.535C98.8611 135.535 96.4938 135.909 95.2549 133.919L95.8768 133.545ZM100.23 135.66C100.23 135.66 102.717 135.909 103.214 134.167L103.463 135.66C102.43 136.103 101.262 136.103 100.23 135.66Z" fill="#122A44"/>
<path d="M104.705 131.429C104.705 131.429 103.214 137.646 104.955 141.626C104.955 141.626 101.721 136.9 103.462 131.181L104.705 131.429ZM105.204 130.434C105.204 130.434 107.691 132.669 111.669 131.18V131.921C111.669 131.921 107.442 134.157 104.955 131.175L105.204 130.434Z" fill="#122A44"/>
<path d="M104.456 131.184C105.201 132.323 106.362 133.125 107.69 133.42C107.69 133.42 105.203 133.42 103.959 131.927L104.456 131.184ZM109.43 133.422C109.43 133.422 111.665 132.924 111.665 131.681L111.915 132.924C111.915 132.924 111.171 133.671 109.43 133.422Z" fill="#122A44"/>
<path d="M111.669 132.674C111.669 132.674 109.182 137.145 113.66 143.866C113.66 143.866 110.924 136.405 112.665 132.674H111.669Z" fill="#122A44"/>
<path d="M112.922 132.174C112.922 132.174 116.403 134.41 119.389 132.174L120.383 132.92C120.383 132.92 116.902 135.905 112.425 133.168L112.922 132.174Z" fill="#122A44"/>
<path d="M112.171 133.17C112.171 133.17 112.917 134.663 116.15 135.16C116.15 135.16 113.663 135.408 111.923 134.414L112.171 133.17ZM117.395 134.911C117.395 134.911 119.385 134.911 120.38 132.676L121.125 133.92C120.052 134.709 118.719 135.063 117.395 134.911ZM118.388 136.901C118.388 136.901 120.875 136.653 121.622 134.665L121.867 135.907C121.867 135.907 120.875 137.15 118.388 136.901ZM119.881 98.1013C119.881 98.1013 119.881 93.3756 127.342 93.6293C127.342 93.6293 117.891 91.6392 118.886 99.3494L119.881 98.1013ZM123.861 100.092C123.861 100.092 124.855 101.585 124.358 103.824L125.458 103.49C125.458 103.49 125.352 100.837 123.861 100.092ZM110.582 98.635C110.582 98.635 111.922 93.3738 120.627 92.6283C120.627 92.6283 110.181 92.3798 109.684 98.5983L110.582 98.635Z" fill="#122A44"/>
<path d="M129.332 92.6309C129.332 92.6309 135.551 97.3563 135.301 101.336L128.593 100.59C128.593 100.59 132.068 98.3519 129.332 92.6309Z" fill="url(#paint29_linear_242_93416)"/>
<path d="M110.422 178.191C110.422 178.191 115.645 170.229 133.056 179.931C133.062 179.93 118.386 166.748 110.422 178.191Z" fill="#122A44"/>
<path d="M110.422 179.684C110.422 179.684 115.148 172.222 133.307 181.177C133.307 181.177 117.64 168.989 110.422 179.684Z" fill="#5DC5F9"/>
<path d="M139.527 163.266C139.527 163.266 119.103 152.426 107.056 166.25C104.683 168.984 103.955 172.779 105.149 176.196C107.331 182.482 113.488 192.302 130.823 195.109C130.823 195.109 159.923 201.327 180.07 176.206L183.8 172.723C183.8 172.723 163.654 207.788 121.122 194.358C121.122 194.358 101.873 188.681 102.708 170.938C102.716 170.781 102.74 170.626 102.778 170.474C103.216 168.743 106.403 158.724 121.623 158.043C121.623 158.043 135.053 156.8 139.773 162.769L140.278 163.764C140.054 163.562 139.801 163.394 139.527 163.266Z" fill="#5DC5F9"/>
<path d="M195.867 145.725C195.867 145.725 194.103 155.296 202.075 165.252L201.212 167.495C201.212 167.495 194.745 170.977 191.262 182.916L187.283 175.205C187.283 175.205 186.785 174.459 185.293 174.956L182.558 175.952L182.806 174.956L185.791 173.713C185.791 173.713 187.532 173.216 188.278 174.708L191.013 180.429C191.013 180.429 192.755 171.972 200.465 166.501C200.465 166.501 193.5 155.556 194.745 147.349L195.867 145.725Z" fill="#5DC5F9"/>
<path d="M178.327 179.928C178.327 179.928 184.545 172.467 185.043 170.229C185.043 170.229 183.302 176.447 180.571 179.928H178.327Z" fill="#122A44"/>
<path d="M185.046 154.561C185.046 154.561 191.014 151.078 194.252 143.368L196.241 142.871C196.241 142.871 196.735 152.571 185.046 154.561Z" fill="#5DC5F9"/>
<path d="M195.243 141.131C195.243 141.131 193.253 150.085 185.046 154.562C185.046 154.562 193.502 150.831 197.233 142.374L195.243 141.131ZM187.782 161.528C187.782 161.528 194.266 166.619 203.46 165.068V167.465C203.46 167.465 194.249 167.745 187.782 161.528Z" fill="#122A44"/>
<path opacity="0.63" d="M84.56 123.718L92.7667 115.014H92.2697L84.0631 123.718H84.56ZM82.5701 123.469L91.5239 114.766L89.2854 114.516L80.5801 123.221L82.5701 123.469Z" fill="white"/>
<path d="M87.7934 115.514L95.2547 117.006V116.259L87.7934 115.514ZM86.3018 122.478L94.5089 123.224L94.2604 123.971L86.3018 122.478ZM109.433 113.523L120.625 115.265L118.885 129.442L119.879 128.944L121.62 114.767L109.433 113.523ZM123.859 119.742L131.072 121.233L123.609 120.736L123.859 119.742ZM122.615 126.955L129.828 128.448L122.615 127.701V126.955Z" fill="#4F1A00"/>
<path d="M125.599 119.988L137.289 121.73L142.513 129.44L137.787 123.47L137.04 130.434H136.543L137.04 122.475L125.599 119.988Z" fill="white"/>
<path d="M135.049 129.192C135.049 129.192 138.283 129.192 139.029 132.673C139.029 132.673 139.029 128.943 135.049 129.192Z" fill="#4F1A00"/>
<path d="M99.98 113.273C99.98 113.273 98.9856 123.968 97.9912 127.947C97.9912 127.947 98.7371 116.755 99.98 113.273Z" fill="white"/>
<path d="M107.194 112.526L98.9851 111.78C98.9851 111.78 97.7408 123.718 96.7493 128.694C96.7493 128.694 97.4952 115.511 98.4906 110.785L107.194 112.526ZM80.8281 122.972L82.3209 114.515L94.5082 116.008L81.5754 113.769L80.8281 122.972Z" fill="white"/>
<path opacity="0.63" d="M120.376 111.034L118.138 113.272L116.147 113.024L118.386 110.785L120.376 111.034Z" fill="white"/>
<defs>
<linearGradient id="paint0_linear_242_93416" x1="173.992" y1="85.6076" x2="164.02" y2="82.2865" gradientUnits="userSpaceOnUse">
<stop offset="0.33" stop-color="#F3F5F7"/>
<stop offset="0.78" stop-color="#8099B9"/>
</linearGradient>
<linearGradient id="paint1_linear_242_93416" x1="182.909" y1="87.5135" x2="171.432" y2="86.9284" gradientUnits="userSpaceOnUse">
<stop offset="0.33" stop-color="#F3F5F7"/>
<stop offset="0.37" stop-color="#E4E9EF"/>
<stop offset="0.48" stop-color="#C0CCDC"/>
<stop offset="0.59" stop-color="#A4B6CC"/>
<stop offset="0.7" stop-color="#90A6C2"/>
<stop offset="0.81" stop-color="#849CBB"/>
<stop offset="0.91" stop-color="#8099B9"/>
</linearGradient>
<linearGradient id="paint2_linear_242_93416" x1="165.33" y1="161.832" x2="189.457" y2="175.425" gradientUnits="userSpaceOnUse">
<stop offset="0.12" stop-color="#1797E5"/>
<stop offset="0.14" stop-color="#1693E1"/>
<stop offset="0.33" stop-color="#0A6FBA"/>
<stop offset="0.48" stop-color="#0358A2"/>
<stop offset="0.57" stop-color="#005099"/>
<stop offset="0.71" stop-color="#0663AD"/>
<stop offset="0.99" stop-color="#1694E2"/>
<stop offset="1" stop-color="#1797E5"/>
</linearGradient>
<linearGradient id="paint3_linear_242_93416" x1="89.9026" y1="104.602" x2="175.156" y2="183.86" gradientUnits="userSpaceOnUse">
<stop offset="0.13" stop-color="#1797E5"/>
<stop offset="0.26" stop-color="#1693E1"/>
<stop offset="0.4" stop-color="#1287D4"/>
<stop offset="0.54" stop-color="#0B73BE"/>
<stop offset="0.69" stop-color="#0257A0"/>
<stop offset="0.72" stop-color="#005099"/>
</linearGradient>
<linearGradient id="paint4_linear_242_93416" x1="131.167" y1="165.543" x2="103.502" y2="107.674" gradientUnits="userSpaceOnUse">
<stop offset="0.33" stop-color="#F3F5F7"/>
<stop offset="0.78" stop-color="#8099B9"/>
</linearGradient>
<linearGradient id="paint5_linear_242_93416" x1="140.673" y1="129.156" x2="115.401" y2="123.638" gradientUnits="userSpaceOnUse">
<stop offset="0.17" stop-color="#F7AE2D"/>
<stop offset="0.86" stop-color="#B04211"/>
</linearGradient>
<linearGradient id="paint6_linear_242_93416" x1="79.7091" y1="119.567" x2="98.5609" y2="121.215" gradientUnits="userSpaceOnUse">
<stop offset="0.17" stop-color="#F7AE2D"/>
<stop offset="0.86" stop-color="#B04211"/>
</linearGradient>
<linearGradient id="paint7_linear_242_93416" x1="86.0821" y1="112.84" x2="101.459" y2="64.5446" gradientUnits="userSpaceOnUse">
<stop offset="0.26" stop-color="#1797E5"/>
<stop offset="0.4" stop-color="#1694E2"/>
<stop offset="0.51" stop-color="#138BD8"/>
<stop offset="0.61" stop-color="#0E7CC8"/>
<stop offset="0.7" stop-color="#0767B1"/>
<stop offset="0.77" stop-color="#005099"/>
</linearGradient>
<linearGradient id="paint8_linear_242_93416" x1="128.46" y1="149.397" x2="116.788" y2="145.889" gradientUnits="userSpaceOnUse">
<stop offset="0.26" stop-color="#1797E5"/>
<stop offset="0.77" stop-color="#005099"/>
</linearGradient>
<linearGradient id="paint9_linear_242_93416" x1="144.655" y1="142.657" x2="128.668" y2="146.381" gradientUnits="userSpaceOnUse">
<stop offset="0.26" stop-color="#1797E5"/>
<stop offset="0.77" stop-color="#005099"/>
</linearGradient>
<radialGradient id="paint10_radial_242_93416" cx="0" cy="0" r="1" gradientUnits="userSpaceOnUse" gradientTransform="translate(169.985 165.186) rotate(6.67929) scale(53.1703 36.6877)">
<stop offset="0.26" stop-color="#1797E5"/>
<stop offset="0.77" stop-color="#005099"/>
</radialGradient>
<linearGradient id="paint11_linear_242_93416" x1="68.5838" y1="57.7592" x2="113.941" y2="62.3771" gradientUnits="userSpaceOnUse">
<stop offset="0.33" stop-color="#F3F5F7"/>
<stop offset="0.78" stop-color="#8099B9"/>
</linearGradient>
<linearGradient id="paint12_linear_242_93416" x1="91.6611" y1="66.0163" x2="121.505" y2="66.0163" gradientUnits="userSpaceOnUse">
<stop offset="0.33" stop-color="#F3F5F7"/>
<stop offset="0.78" stop-color="#8099B9"/>
</linearGradient>
<linearGradient id="paint13_linear_242_93416" x1="108.326" y1="68.2511" x2="123.249" y2="68.2511" gradientUnits="userSpaceOnUse">
<stop offset="0.33" stop-color="#F3F5F7"/>
<stop offset="0.78" stop-color="#8099B9"/>
</linearGradient>
<linearGradient id="paint14_linear_242_93416" x1="135.567" y1="50.3139" x2="128.624" y2="39.5043" gradientUnits="userSpaceOnUse">
<stop offset="0.33" stop-color="#F3F5F7"/>
<stop offset="0.78" stop-color="#8099B9"/>
</linearGradient>
<linearGradient id="paint15_linear_242_93416" x1="169.457" y1="62.1358" x2="159.694" y2="67.2578" gradientUnits="userSpaceOnUse">
<stop offset="0.33" stop-color="#F3F5F7"/>
<stop offset="0.78" stop-color="#8099B9"/>
</linearGradient>
<linearGradient id="paint16_linear_242_93416" x1="180.604" y1="136.92" x2="170.106" y2="129.948" gradientUnits="userSpaceOnUse">
<stop offset="0.33" stop-color="#F3F5F7"/>
<stop offset="0.78" stop-color="#8099B9"/>
</linearGradient>
<linearGradient id="paint17_linear_242_93416" x1="160.113" y1="129.248" x2="149.317" y2="125.891" gradientUnits="userSpaceOnUse">
<stop offset="0.33" stop-color="#F3F5F7"/>
<stop offset="0.78" stop-color="#8099B9"/>
</linearGradient>
<linearGradient id="paint18_linear_242_93416" x1="112.881" y1="130.646" x2="120.084" y2="130.111" gradientUnits="userSpaceOnUse">
<stop offset="0.33" stop-color="#F3F5F7"/>
<stop offset="0.78" stop-color="#8099B9"/>
</linearGradient>
<linearGradient id="paint19_linear_242_93416" x1="105.016" y1="129.218" x2="112.235" y2="129.507" gradientUnits="userSpaceOnUse">
<stop offset="0.33" stop-color="#F3F5F7"/>
<stop offset="0.78" stop-color="#8099B9"/>
</linearGradient>
<linearGradient id="paint20_linear_242_93416" x1="100.705" y1="100.693" x2="105.463" y2="106.842" gradientUnits="userSpaceOnUse">
<stop offset="0.33" stop-color="#F3F5F7"/>
<stop offset="0.78" stop-color="#8099B9"/>
</linearGradient>
<linearGradient id="paint21_linear_242_93416" x1="108.486" y1="99.9144" x2="113.506" y2="106.401" gradientUnits="userSpaceOnUse">
<stop offset="0.33" stop-color="#F3F5F7"/>
<stop offset="0.78" stop-color="#8099B9"/>
</linearGradient>
<linearGradient id="paint22_linear_242_93416" x1="117.705" y1="99.8852" x2="122.225" y2="105.727" gradientUnits="userSpaceOnUse">
<stop offset="0.33" stop-color="#F3F5F7"/>
<stop offset="0.78" stop-color="#8099B9"/>
</linearGradient>
<linearGradient id="paint23_linear_242_93416" x1="96.7822" y1="131.31" x2="104.074" y2="131.602" gradientUnits="userSpaceOnUse">
<stop offset="0.33" stop-color="#F3F5F7"/>
<stop offset="0.78" stop-color="#8099B9"/>
</linearGradient>
<radialGradient id="paint24_radial_242_93416" cx="0" cy="0" r="1" gradientUnits="userSpaceOnUse" gradientTransform="translate(80.0911 157.799) scale(49.508 31.1886)">
<stop offset="0.17" stop-color="#3FC0E5"/>
<stop offset="0.62" stop-color="#20A1E6"/>
</radialGradient>
<linearGradient id="paint25_linear_242_93416" x1="151.482" y1="136.687" x2="144.409" y2="133.085" gradientUnits="userSpaceOnUse">
<stop offset="0.26" stop-color="#1797E5"/>
<stop offset="0.77" stop-color="#005099"/>
</linearGradient>
<linearGradient id="paint26_linear_242_93416" x1="173.394" y1="143.151" x2="164.383" y2="138.564" gradientUnits="userSpaceOnUse">
<stop offset="0.26" stop-color="#1797E5"/>
<stop offset="0.77" stop-color="#005099"/>
</linearGradient>
<linearGradient id="paint27_linear_242_93416" x1="115.094" y1="145.965" x2="94.2439" y2="137.214" gradientUnits="userSpaceOnUse">
<stop offset="0.26" stop-color="#1797E5"/>
<stop offset="0.77" stop-color="#005099"/>
</linearGradient>
<linearGradient id="paint28_linear_242_93416" x1="122.317" y1="144.088" x2="99.355" y2="135.586" gradientUnits="userSpaceOnUse">
<stop offset="0.26" stop-color="#1797E5"/>
<stop offset="0.77" stop-color="#005099"/>
</linearGradient>
<linearGradient id="paint29_linear_242_93416" x1="126.648" y1="95.0214" x2="137.227" y2="102.235" gradientUnits="userSpaceOnUse">
<stop offset="0.26" stop-color="#1797E5"/>
<stop offset="0.77" stop-color="#005099"/>
</linearGradient>
</defs>
</svg>
