<svg width="250" height="250" viewBox="0 0 250 250" fill="none" xmlns="http://www.w3.org/2000/svg">
<path d="M130.607 112.053C129.588 92.5073 128.366 72.972 127.185 53.435C126.87 48.2165 126.404 43.0075 126.007 37.7939C125.928 37.7865 125.847 37.7788 125.768 37.7715C125.721 38.0784 125.653 38.384 125.631 38.6927C124.673 51.8026 123.48 64.901 122.817 78.0264C122.228 89.6852 121.673 101.347 121.179 113.01C124.39 113.351 127.778 113.998 130.784 115.695C130.729 114.481 130.67 113.266 130.607 112.053Z" fill="url(#paint0_linear_242_93417)"/>
<path d="M119.811 162.566C119.872 169.21 120.052 175.856 120.257 182.493C120.518 190.913 121.345 199.317 122.014 207.72C122.198 210.028 123.333 211.73 125.977 211.706C128.599 211.682 129.631 209.951 129.787 207.684C130.473 197.708 131.377 187.735 131.623 177.746C131.633 177.351 131.638 176.956 131.647 176.561C128.867 170.93 125.116 165.974 119.811 162.566Z" fill="#77D1F3"/>
<path d="M131.534 142.231C131.52 141.268 131.5 140.304 131.483 139.342C128.234 136.623 124.457 134.48 120.394 133.154C120.232 137.704 120.079 142.253 119.942 146.803C119.785 152.053 119.761 157.31 119.809 162.567C125.115 165.975 128.867 170.931 131.646 176.561C131.897 165.124 131.709 153.673 131.534 142.231Z" fill="#44BCEE"/>
<path d="M130.785 115.694C127.778 113.997 124.39 113.35 121.179 113.01C120.894 119.723 120.633 126.438 120.395 133.154C124.458 134.48 128.235 136.623 131.484 139.341C131.348 131.457 131.145 123.571 130.785 115.694Z" fill="#34ADE6"/>
<path d="M148.404 126.991C148.307 125.756 148.206 124.52 148.099 123.286C146.249 101.888 142.25 80.874 135.347 60.4823C134.05 56.6498 132.49 52.9062 130.806 48.4766C130.726 49.3418 130.691 49.4751 130.705 49.6032C132.04 62.0079 133.328 74.4179 134.729 86.8152C135.938 97.5175 136.784 108.238 137.252 118.971C141.179 121.343 145.518 123.533 148.404 126.991Z" fill="url(#paint1_linear_242_93417)"/>
<path d="M137.443 152.843C136.879 169.894 135.666 186.924 134.78 203.964C134.683 205.847 135.486 207.36 137.44 207.883C139.323 208.387 140.627 207.452 141.372 205.804C142.209 203.95 142.994 202.061 143.627 200.131C146.879 190.21 148.47 180.039 149.153 169.769C147.035 161.031 144.181 151.679 137.629 145.006C137.589 147.618 137.53 150.23 137.443 152.843Z" fill="#49C0F0"/>
<path d="M148.404 126.989C145.518 123.53 141.179 121.341 137.252 118.969C137.63 127.64 137.758 136.32 137.629 145.006C144.181 151.679 147.035 161.03 149.153 169.768C149.459 165.175 149.583 160.562 149.593 155.943C149.613 146.294 149.16 136.619 148.404 126.989Z" fill="#3AA8E2"/>
<path d="M120.593 49.2148C119.235 52.8135 117.722 56.3622 116.543 60.0186C110.861 77.6474 106.87 95.4701 104.575 113.481C108.019 112.819 111.482 111.981 115.202 112.155C116.39 94.8135 118.259 77.5099 119.796 60.1887C120.118 56.561 120.587 52.9458 120.988 49.3251C120.856 49.288 120.724 49.2512 120.593 49.2148Z" fill="url(#paint2_linear_242_93417)"/>
<path d="M114.279 131.866C110.469 130.443 106.66 131.76 102.85 131.59C102.311 140.023 102.139 148.496 102.335 157.01C106.48 157.047 110.845 157.437 114.444 159.414C114.218 150.236 114.091 141.041 114.279 131.866Z" fill="#49BFEF"/>
<path d="M117.018 203.378C116.16 190.236 114.924 177.105 114.562 163.95C114.52 162.438 114.481 160.925 114.444 159.412C110.844 157.435 106.479 157.045 102.335 157.008C102.49 163.697 102.873 170.411 103.486 177.15C104.367 186.822 106.231 196.337 110.188 205.316C110.99 207.137 112.18 208.467 114.337 207.885C116.566 207.284 117.157 205.511 117.018 203.378Z" fill="#77D1F3"/>
<path d="M114.279 131.864C114.363 127.78 114.507 123.699 114.735 119.625C114.874 117.134 115.031 114.644 115.202 112.154C111.482 111.98 108.019 112.819 104.575 113.48C103.808 119.495 103.238 125.532 102.851 131.588C106.66 131.758 110.47 130.441 114.279 131.864Z" fill="#2DB4EC"/>
<path d="M154.773 136.182C154.888 138.157 154.988 140.136 155.055 142.119C155.689 160.712 154.043 179.091 149.114 197.096C148.579 199.049 148.94 200.697 150.803 201.637C152.707 202.598 154.173 201.588 155.016 199.973C156.622 196.894 158.471 193.834 159.421 190.537C162.182 180.949 163.723 171.228 164.377 161.426C163.255 152.368 159.975 143.48 154.773 136.182Z" fill="url(#paint3_linear_242_93417)"/>
<path d="M164.39 137.36C163.202 116.847 157.422 97.5532 148.238 79.2419C146.893 76.5613 145.279 74.0161 143.789 71.4082C143.687 71.4562 143.585 71.5045 143.482 71.5524C143.546 71.817 143.601 72.0841 143.674 72.3462C149.495 93.2773 153.519 114.51 154.774 136.18C159.975 143.478 162.703 152.429 164.377 161.424C164.91 153.448 164.856 145.417 164.39 137.36Z" fill="url(#paint4_linear_242_93417)"/>
<path d="M99.1609 114.928C95.9105 115.72 92.8889 117.384 89.8877 118.665C88.69 124.828 87.8867 131.104 87.4629 137.488C90.2993 134.981 93.8504 134.147 97.2433 133.021C97.6748 126.958 98.3209 120.928 99.1609 114.928Z" fill="#2FBBF0"/>
<path d="M96.9237 138.254C97.0112 136.507 97.1204 134.763 97.2443 133.021C93.8514 134.147 90.3003 134.981 87.4639 137.488C87.3669 138.947 87.2833 140.41 87.2269 141.881C86.9746 148.439 87.0806 154.986 87.5475 161.511C90.5302 159.873 93.5255 158.556 96.8092 157.832C96.545 151.337 96.595 144.81 96.9237 138.254Z" fill="#52C4F1"/>
<path d="M96.8066 157.832C93.5229 158.555 90.5276 159.873 87.5449 161.511C87.9366 166.983 88.5813 172.441 89.4902 177.875C90.7684 185.518 92.1908 193.152 96.6407 199.769C97.6585 201.282 98.9014 202.626 100.964 201.653C103 200.694 103.191 198.922 102.664 196.968C99.1824 184.071 97.3432 171.017 96.8066 157.832Z" fill="#77D1F3"/>
<path d="M108.407 71.0781C107.859 71.9097 107.577 72.2993 107.334 72.7123C98.8023 87.2362 93.0186 102.569 89.8906 118.664C92.8922 117.382 95.9138 115.719 99.1639 114.926C100.567 104.903 102.503 94.9607 104.856 85.0795C105.93 80.5677 107.133 76.0863 108.407 71.0781Z" fill="url(#paint5_linear_242_93417)"/>
<path d="M167.514 112.461C165.676 109.076 163.786 105.721 161.92 102.352C161.819 102.4 161.719 102.449 161.618 102.497C161.732 102.808 161.847 103.119 161.959 103.431C169.377 124.154 172.259 145.421 169.245 167.305C168.254 174.499 166.59 181.598 165.373 188.764C165.25 189.492 165.054 190.683 165.237 191.463C165.401 192.163 166.19 192.505 166.819 192.157C167.497 191.782 168.5 190.69 168.982 190.142C176.313 181.817 178.626 172.186 179.19 161.426C180.106 143.972 175.776 127.678 167.514 112.461Z" fill="url(#paint6_linear_242_93417)"/>
<path d="M83.3662 127.761C83.6843 126.107 84.0417 124.46 84.4151 122.816C81.8458 124.329 79.7881 126.353 77.4641 128.111C74.3789 136.558 72.7111 145.102 72.5361 153.705C75.0722 149.567 78.1071 146.146 81.4219 142.783C81.759 137.783 82.4023 132.776 83.3662 127.761Z" fill="#3AC1F1"/>
<path d="M82.1066 166.427C81.128 158.571 80.8879 150.687 81.4216 142.781C78.1071 146.145 75.0719 149.565 72.5358 153.704C72.3885 160.941 73.302 168.22 75.3138 175.519C76.9899 172.003 79.2548 169.059 82.1066 166.427Z" fill="#5DCAF2"/>
<path d="M86.5289 190.562C86.5415 188.387 86.2051 186.526 85.6521 184.465C84.0435 178.472 82.8577 172.458 82.1066 166.428C79.2548 169.059 76.99 172.003 75.3135 175.52C75.6789 176.846 76.0765 178.173 76.515 179.5C78.0823 184.244 80.6128 188.499 84.3886 191.886C84.6564 192.126 85.0368 192.24 85.425 192.346C85.7981 192.447 86.1901 192.264 86.3504 191.912C86.5201 191.54 86.5268 190.913 86.5289 190.562Z" fill="#77D1F3"/>
<path d="M78.4334 125.561C78.0939 126.41 77.7737 127.26 77.4629 128.111C79.7869 126.353 81.8445 124.329 84.4139 122.817C85.8744 116.389 87.6783 110.026 89.2992 103.629C85.6259 110.919 81.4529 118.01 78.4334 125.561Z" fill="#08B2EF"/>
<path d="M89.9215 102.602C89.8046 102.59 89.6873 102.578 89.5704 102.566C89.4819 102.922 89.3891 103.277 89.2988 103.632C89.3401 103.55 89.3818 103.469 89.4227 103.387C89.5613 103.111 89.7542 102.863 89.9215 102.602Z" fill="#77D1F3"/>
<defs>
<linearGradient id="paint0_linear_242_93417" x1="124.732" y1="37.7884" x2="126.005" y2="115.773" gradientUnits="userSpaceOnUse">
<stop stop-color="#6556A5"/>
<stop offset="0.9989" stop-color="#3084CB"/>
</linearGradient>
<linearGradient id="paint1_linear_242_93417" x1="138.901" y1="48.3441" x2="140.187" y2="127.125" gradientUnits="userSpaceOnUse">
<stop stop-color="#6556A5"/>
<stop offset="0.9989" stop-color="#3084CB"/>
</linearGradient>
<linearGradient id="paint2_linear_242_93417" x1="112.258" y1="49.3508" x2="113.303" y2="113.339" gradientUnits="userSpaceOnUse">
<stop stop-color="#5267B3"/>
<stop offset="0.9989" stop-color="#0FA1E3"/>
</linearGradient>
<linearGradient id="paint3_linear_242_93417" x1="141.498" y1="196.227" x2="163.645" y2="150.088" gradientUnits="userSpaceOnUse">
<stop stop-color="#03ACEC"/>
<stop offset="1" stop-color="#3EA8E1"/>
</linearGradient>
<linearGradient id="paint4_linear_242_93417" x1="153.622" y1="79.2806" x2="154.545" y2="135.801" gradientUnits="userSpaceOnUse">
<stop stop-color="#6556A5"/>
<stop offset="0.9989" stop-color="#3084CB"/>
</linearGradient>
<linearGradient id="paint5_linear_242_93417" x1="98.7628" y1="71.2355" x2="99.5346" y2="118.507" gradientUnits="userSpaceOnUse">
<stop stop-color="#3480C8"/>
<stop offset="0.9994" stop-color="#03B0EE"/>
</linearGradient>
<linearGradient id="paint6_linear_242_93417" x1="167.405" y1="104.138" x2="173.634" y2="192.033" gradientUnits="userSpaceOnUse">
<stop stop-color="#5465B2"/>
<stop offset="1" stop-color="#03ACEC"/>
</linearGradient>
</defs>
</svg>
