<svg width="250" height="250" viewBox="0 0 250 250" fill="none" xmlns="http://www.w3.org/2000/svg">
<g clip-path="url(#clip0_242_94769)">
<path d="M125 250C194.038 250 250 194.038 250 125C250 55.9625 194.038 0 125 0C55.9625 0 0 55.9625 0 125C0 194.038 55.9625 250 125 250Z" fill="#EDF0F4"/>
<path fill-rule="evenodd" clip-rule="evenodd" d="M88.8225 31.9643C86.1185 33.2349 83.451 35.4911 81.907 37.8138C78.872 42.3788 78.276 45.359 78.276 55.9715C78.276 61.7941 78.171 63.9166 77.8425 64.7021C77.604 65.2731 76.584 66.4375 75.5755 67.2891C71.5515 70.6891 65.431 76.9276 62.262 80.8601C58.3905 85.6641 55.8575 89.606 52.9735 95.3135C49.2127 102.758 47.888 107.198 46.3212 117.61C45.5166 122.959 45.6472 125.612 47.1595 134.621C48.8714 144.82 53.622 155.832 61.085 166.901C66.9765 175.639 74.257 181.771 85.202 187.216C92.3815 190.787 105.053 194.876 114.864 196.787C120.454 197.876 122.686 197.999 123.428 197.257C123.7 196.985 123.957 196.737 123.999 196.706C124.041 196.675 124.147 167.943 124.235 132.856C124.391 70.6835 124.41 69.0446 124.995 68.3991C126.094 67.1841 129.399 67.6265 136.915 69.9945C138.607 70.5275 141.936 71.9185 144.313 73.086C156.04 78.8435 163.945 86.352 169.856 97.35C172.672 102.588 175.508 111.641 176.197 117.587C176.38 119.171 176.664 121.415 176.828 122.574C176.992 123.732 177.122 127.274 177.118 130.444C177.113 134.946 176.98 136.804 176.508 138.937C174.623 147.462 170.684 155.173 165.296 160.889C161.97 164.418 160.198 165.126 159.472 163.217C159.303 162.773 159.181 151.941 159.181 137.367C159.181 116.265 159.105 111.882 158.704 109.763C157.321 102.47 155.332 98.8801 149.501 93.157C146.091 89.8095 144.91 89.2816 144.149 90.1996C143.888 90.5131 144.09 107.504 144.149 154.329V218.033V218.494C144.916 218.924 146.033 218.878 148.291 217.806C151.093 216.476 153.95 213.932 155.17 211.682C156.631 208.987 156.978 206.191 156.978 197.104C156.978 187.491 156.979 187.487 159.932 185.241C163.237 182.729 169.621 177.136 172.124 174.561C177.649 168.876 181.69 163.112 183.597 158.199C185.008 154.563 185.416 153.994 186.61 153.994C187.736 153.994 190.239 156.137 196.139 162.153C198.545 164.606 200.776 166.754 201.097 166.926C201.761 167.281 202.758 166.882 203.039 166.15C203.135 165.901 203.385 164.578 203.594 163.211C203.923 161.058 203.901 160.397 203.426 158.263C202.036 152.015 200.408 149.155 195.933 145.098C194.359 143.671 192.423 141.911 191.631 141.187L190.191 139.87L190.19 128.595C190.19 116.652 190.028 114.581 188.581 108.032C187.595 103.569 186.308 99.4681 184.508 95.0621C182.523 90.2026 181.579 88.4485 178.34 83.601C173.311 76.076 166.433 69.6146 158.136 64.6221C149.617 59.4961 139.41 55.9531 127.228 53.8936C118.54 52.4246 111.955 52.1015 111.016 53.041C110.495 53.5616 111.164 57.151 111.016 117.454C110.863 179.695 110.843 181.333 110.259 181.978C109.388 182.94 107.641 182.833 103.152 181.541C87.0815 176.915 73.7215 166.939 66.3525 154.061C61.71 145.949 59.258 137.366 58.7335 127.392C58.153 116.367 59.453 109.861 63.9925 101.064C65.7745 97.61 69.586 91.894 72.191 88.767C75.553 84.731 76.781 84 77.786 85.4356C78.2195 86.0541 78.276 88.946 78.276 110.38C78.276 130.946 78.3525 135.15 78.78 138.091C79.745 144.739 82.44 149.92 87.5005 154.859C90.314 157.605 91.4495 158.094 92.1165 156.848C92.333 156.443 92.445 148.161 92.449 132.214C92.4525 119 92.2925 107.268 92.449 106.143C92.6055 105.017 92.3925 87.9 92.449 68.1045C92.55 32.7778 93.218 32.1041 92.6185 31.6653C91.746 31.0278 90.6285 31.1156 88.8225 31.9643Z" fill="#F4657B"/>
</g>
<defs>
<clipPath id="clip0_242_94769">
<rect width="250" height="250" fill="white"/>
</clipPath>
</defs>
</svg>
