<svg width="250" height="250" viewBox="0 0 250 250" fill="none" xmlns="http://www.w3.org/2000/svg">
<g clip-path="url(#clip0_242_94102)">
<path d="M126.383 106.743H125.882C125.256 106.743 124.88 106.617 124.442 106.743H124.004C118.845 106.968 114 109.223 110.506 113.019V113.144C108.703 115.01 107.339 117.253 106.512 119.708C105.723 121.825 105.31 124.067 105.26 126.335C105.31 135.342 111.42 143.171 120.135 145.401L121.074 145.589C122.388 145.902 123.728 146.04 125.068 146.027C126.32 146.027 127.572 145.902 128.812 145.651C130.477 145.288 132.092 144.724 133.619 143.96L134.246 143.584C134.433 143.584 134.559 143.459 134.746 143.334L135.16 143.083L135.535 142.77H135.723L136.224 142.357C143.073 137.659 146.19 129.141 144.012 121.124C141.833 113.106 134.821 107.356 126.533 106.78L126.383 106.743ZM197.8 168.463C186.557 188.093 168.815 202.286 147.004 208.161C146.453 208.299 145.89 208.387 145.314 208.412C142.033 208.399 139.266 205.981 138.828 202.737C138.39 199.492 140.406 196.411 143.561 195.534L143.937 195.421C147.204 194.306 149.057 190.861 148.194 187.529C147.568 184.711 144.938 182.781 141.958 182.781C141.545 182.769 141.119 182.806 140.706 182.907L140.268 183.032C139.73 183.157 139.191 183.22 138.64 183.22C135.66 183.282 133.019 181.291 132.267 178.409C131.842 176.731 132.067 174.952 132.893 173.424C133.82 171.921 135.272 170.806 136.963 170.292C145.301 168.1 152.826 163.54 158.623 157.151C164.245 150.975 168.126 143.422 169.879 135.267V134.39C170.38 131.007 168.114 127.825 164.758 127.199L163.506 127.074C160.689 127.111 158.21 128.953 157.384 131.646L157.196 132.273V132.648L157.071 132.836C157.096 133.124 157.058 133.4 156.945 133.663C156.945 133.801 156.895 133.926 156.82 134.039V134.214C156.82 134.289 156.77 134.365 156.695 134.402V134.778L156.57 134.903C152.601 149.059 139.705 158.842 125.005 158.855C122.113 158.855 119.246 158.492 116.441 157.79L115.377 157.54H114.751C111.834 157.527 109.279 159.481 108.503 162.287C107.689 165.569 109.505 168.927 112.685 170.041C112.848 170.104 113.01 170.142 113.186 170.167C116.391 171.006 118.482 174.1 118.044 177.382C117.618 180.677 114.801 183.12 111.495 183.107C110.932 183.145 110.356 183.082 109.805 182.919C97.272 179.6 86.2038 172.184 78.3658 161.849C70.7408 151.752 66.5213 139.488 66.321 126.836V126.272C66.1957 122.74 63.2659 119.959 59.7351 120.034C56.2043 120.096 53.3746 122.99 53.3871 126.523C53.5499 158.73 75.3484 187.041 106.475 195.296C108.14 195.797 109.555 196.912 110.406 198.428C111.295 199.931 111.521 201.735 111.032 203.413C110.306 206.27 107.727 208.274 104.784 208.286C104.183 208.336 103.595 208.249 103.032 208.036C81.2831 202.298 62.7526 188.068 51.5967 168.538C40.3406 148.908 37.2229 126.022 43.0951 104.25C43.7963 101.381 46.363 99.3516 49.3304 99.3767C49.9189 99.3391 50.5199 99.4017 51.0833 99.5646C54.5641 100.504 56.655 104.062 55.766 107.569L55.6408 108.008C54.9898 111.365 57.0431 114.647 60.3486 115.524C60.8995 115.699 61.4629 115.787 62.0389 115.775C64.831 115.812 67.3101 114.021 68.1615 111.365L68.2867 110.864C69.0755 108.07 71.6297 106.129 74.5345 106.116C75.1605 106.091 75.7991 106.154 76.4126 106.304C79.8933 107.306 81.9342 110.927 80.9826 114.434C78.7164 122.752 78.9293 131.559 81.6087 139.764C84.0627 147.756 88.6954 154.896 94.9807 160.396V160.521L95.3564 160.771L95.4816 160.897C96.6084 161.786 97.9982 162.262 99.4256 162.275C101.329 162.262 103.144 161.448 104.409 160.02C106.412 157.652 106.462 154.195 104.534 151.765L104.346 151.577L104.158 151.389C96.9841 145.539 92.6269 136.92 92.1511 127.675C91.6753 118.43 95.131 109.411 101.667 102.859L102.668 101.857C104.284 99.2639 103.92 95.9192 101.792 93.727C100.565 92.5119 98.8997 91.8354 97.1719 91.8605C95.6318 91.873 94.1544 92.4242 92.9774 93.4263H92.7896C92.7896 93.5516 92.6018 93.6142 92.5392 93.6769C90.6736 95.5434 87.8565 96.1071 85.415 95.0924C82.9734 94.0777 81.3833 91.6851 81.3833 89.0419C81.3457 87.2881 82.0219 85.597 83.2364 84.3443C101.855 65.8043 130.502 61.8708 153.415 74.7235L153.665 74.9114H153.79L153.978 75.0367C154.88 75.6004 155.919 75.8885 156.983 75.8635C159.312 75.8384 161.453 74.5732 162.605 72.5438C163.444 71.0531 163.657 69.2868 163.181 67.6458C162.718 66.0047 161.603 64.6143 160.113 63.7875C149.496 57.549 137.175 54.4047 124.742 54.4047C105.486 54.4047 87.556 61.7831 74.1213 75.2872C72.8442 76.5149 71.1414 77.1914 69.376 77.1663C67.6481 77.1914 65.9829 76.5149 64.7559 75.2872C63.5288 74.0345 62.8527 72.3434 62.8778 70.6021C62.8527 68.8734 63.5288 67.2073 64.7559 65.9797C97.873 32.9335 151.486 32.9585 184.566 66.0423C185.793 67.295 186.469 68.9862 186.444 70.7274C186.482 72.4561 185.806 74.1348 184.566 75.3499C181.987 77.8553 177.893 77.8553 175.313 75.3499L174.938 75.0367C173.723 73.9719 172.171 73.3957 170.555 73.4082C168.865 73.4082 167.25 74.0847 166.061 75.2872C163.569 77.6674 163.569 81.5382 165.873 84.1689L166.061 84.4194C168.565 87 168.565 91.0963 166.061 93.6769C164.808 94.9045 163.118 95.5935 161.365 95.5685C159.637 95.5935 157.96 94.9171 156.745 93.6894C144.462 81.3879 126.232 77.1914 109.818 82.8911H109.63L109.379 83.0164L109.129 83.1417C105.961 84.457 104.359 88.0022 105.473 91.2341C106.437 93.7771 108.879 95.4682 111.596 95.4808H112.66L112.785 95.3555H112.973C116.641 93.9399 120.548 93.2134 124.479 93.2384C131.641 93.251 138.603 95.6186 144.287 99.9905C149.884 104.3 153.953 110.275 155.919 117.065L156.044 117.315V117.628L156.294 118.255C157.208 120.748 159.575 122.414 162.229 122.439C162.805 122.489 163.381 122.401 163.919 122.188C167.212 121.299 169.253 118.029 168.627 114.672L168.502 114.296C167.576 110.776 169.629 107.168 173.122 106.166L174.812 105.978C177.742 105.978 180.434 107.857 181.06 110.789C184.503 123.416 183.552 136.419 178.569 148.558C173.736 160.208 165.297 170.016 154.479 176.518L154.166 176.706H154.066C154.066 176.831 153.941 176.831 153.941 176.894H153.815C151.411 178.472 150.335 181.441 151.173 184.197C152.012 186.953 154.567 188.819 157.446 188.782C158.548 188.807 159.637 188.494 160.564 187.905C188.385 171.645 202.007 138.511 193.694 107.494C193.205 105.816 193.431 104.012 194.32 102.508C195.209 100.993 196.636 99.8777 198.326 99.3767C198.952 99.3767 199.453 99.1888 200.017 99.1888C202.996 99.2263 205.563 101.281 206.252 104.174C212.137 125.871 209.094 149.034 197.8 168.463ZM36.5468 36.5663C-12.1836 85.359 -12.1836 164.592 36.5468 213.422C85.415 262.203 164.546 262.203 213.426 213.422C262.194 164.642 262.194 85.4216 213.464 36.5663C164.571 -12.1888 85.44 -12.1888 36.5468 36.5663Z" fill="url(#paint0_linear_242_94102)"/>
</g>
<defs>
<linearGradient id="paint0_linear_242_94102" x1="-0.00311351" y1="125.019" x2="250.001" y2="125.019" gradientUnits="userSpaceOnUse">
<stop stop-color="#EB5E57"/>
<stop offset="1" stop-color="#EA5290"/>
</linearGradient>
<clipPath id="clip0_242_94102">
<rect width="250" height="250" rx="125" fill="white"/>
</clipPath>
</defs>
</svg>
