<svg width="250" height="250" viewBox="0 0 250 250" fill="none" xmlns="http://www.w3.org/2000/svg">
<rect width="250" height="250" rx="125" fill="white"/>
<g clip-path="url(#clip0_242_94532)">
<path opacity="0.5" d="M89.1457 22.9493L54.5581 42.9185C13.2535 66.7657 -0.898493 119.582 22.9487 160.886L42.9179 195.474C66.7651 236.778 119.581 250.93 160.886 227.083L195.473 207.114C236.778 183.267 250.93 130.451 227.083 89.1463L207.113 54.5586C183.266 13.2541 130.45 -0.897898 89.1457 22.9493Z" fill="#CDE9E0"/>
<path opacity="0.7" d="M36.0018 62.6488L26.4942 79.1165C-0.778662 126.354 15.4063 186.757 62.6443 214.03L79.1119 223.538C126.35 250.811 186.753 234.626 214.026 187.388L223.533 170.92C250.806 123.682 234.621 63.2792 187.383 36.0063L170.916 26.4987C123.678 -0.77415 63.2747 15.4108 36.0018 62.6488Z" fill="#FFE1A5"/>
<path opacity="0.9" d="M139.023 20.9102H111.01C61.2495 20.9102 20.9111 61.2486 20.9111 111.009V139.022C20.9111 188.782 61.2495 229.121 111.01 229.121H139.023C188.783 229.121 229.122 188.782 229.122 139.022V111.009C229.122 61.2486 188.783 20.9102 139.023 20.9102Z" fill="#F69D88"/>
<path d="M125.017 227.095C181.395 227.095 227.097 181.393 227.097 125.015C227.097 68.6383 181.395 22.9355 125.017 22.9355C68.6403 22.9355 22.9375 68.6383 22.9375 125.015C22.9375 181.393 68.6403 227.095 125.017 227.095Z" fill="#2196F3"/>
<path d="M81.1338 200.347L112.714 145.266L81.1338 126.883L168.9 49.6855L136.972 104.422L168.347 123.358L81.1338 200.347Z" fill="white"/>
</g>
<defs>
<clipPath id="clip0_242_94532">
<rect width="227.302" height="227.302" fill="white" transform="translate(11.3652 11.3633)"/>
</clipPath>
</defs>
</svg>
