<svg width="250" height="250" viewBox="0 0 250 250" fill="none" xmlns="http://www.w3.org/2000/svg">
<rect width="250" height="250" rx="125" fill="white"/>
<path d="M73.1934 36.9433L104.267 19.5L222.742 88.5469V127.02L190.894 144.6L106.05 96.155V90.074L189.056 137.602L188.896 109.275L106.32 60.9478L106.224 55.1822L190.816 105.437L216.741 89.9139L104.726 25.5288L78.7879 39.8828L73.1934 36.9433Z" fill="#2F8F23"/>
<path d="M222.743 127.019V161.111L104.627 229.499L71.3086 210.262V173.916L156.161 124.766L160.921 127.484L78.988 175.798L103.6 189.823L186.347 142.002L190.895 144.599L106.408 193.582L106.444 223.618L218.211 158.802L218.192 129.531L222.743 127.019Z" fill="#1F2645"/>
<path d="M71.3089 210.261L41.0039 193.04L41.0065 55.5975L74.3248 36.3613L106.225 55.1793L105.943 153.853L101.274 156.603L101.097 61.0421L75.8812 75.4946L75.9453 171.229L71.3089 173.915V75.4946L46.2163 61.2582L45.9527 189.613L71.3089 204.465V210.261Z" fill="#2470D5"/>
</svg>
