<svg width="250" height="250" viewBox="0 0 250 250" fill="none" xmlns="http://www.w3.org/2000/svg">
<path d="M141.561 195.189C141.561 204.359 134.211 211.709 125.041 211.709C115.941 211.709 108.521 204.359 108.521 195.189V55.3638C108.521 46.1938 115.976 38.8438 125.041 38.8438C134.211 38.8438 141.561 46.2988 141.561 55.3638V195.189Z" fill="#51DED2"/>
<path d="M191.157 63.7285C182.057 63.7285 174.637 71.0785 174.637 80.2485V134.849C174.637 144.019 181.987 151.369 191.157 151.369C200.327 151.369 207.677 143.914 207.677 134.849V80.2485C207.712 71.0785 200.327 63.7285 191.157 63.7285Z" fill="#51DED2"/>
<path d="M75.413 195.189C75.413 204.359 67.958 211.709 58.893 211.709C49.793 211.709 42.373 204.359 42.373 195.189V171.739C42.373 162.639 49.828 155.219 58.893 155.219C67.993 155.219 75.413 162.674 75.413 171.739V195.189Z" fill="#51DED2"/>
</svg>
