<svg width="250" height="250" viewBox="0 0 250 250" fill="none" xmlns="http://www.w3.org/2000/svg">
<path d="M35.732 113.291C41.464 124.825 40.5425 133.451 33.0055 140.137C26.837 145.61 17.515 146.364 10.468 141.961C2.92197 137.246 -0.410028 128.417 2.16497 119.963C5.00097 110.652 12.435 106.307 25.382 106.61C29.28 100.2 33.2765 93.6368 37.2645 87.0683C42.0255 79.2268 46.7725 71.3773 51.5385 63.5383C54.02 59.4568 57.309 58.2778 60.6345 60.2423C63.9365 62.1928 64.4425 65.6873 61.958 69.7823C54.218 82.5388 46.454 95.2803 38.7165 108.038C37.647 109.803 36.675 111.626 35.732 113.291ZM20.486 132.654C24.2275 132.672 27.489 129.414 27.5355 125.611C27.582 121.801 24.4015 118.681 20.4845 118.693C16.4895 118.705 13.462 121.687 13.4655 125.608C13.4685 129.394 16.698 132.635 20.486 132.654ZM68.7905 197.744C81.2325 197.953 88.4595 202.86 90.87 212.604C92.8745 220.706 88.8305 229.654 81.287 233.805C73.842 237.902 64.255 236.4 58.341 230.21C51.513 223.064 51.339 214.535 57.9415 203.516C51.3195 191.984 44.632 180.333 37.94 168.686C36.113 165.505 34.22 162.361 32.453 159.148C30.404 155.423 31.1485 152.008 34.283 150.211C37.393 148.427 40.782 149.459 42.9135 153.129C50.958 166.983 58.9165 180.887 66.917 194.767C67.521 195.813 68.2035 196.814 68.7905 197.744ZM72.126 209.994C68.0755 210.015 65.1855 212.914 65.201 216.941C65.2165 220.963 68.148 223.881 72.1665 223.873C76.094 223.866 79.1425 220.819 79.1495 216.894C79.1565 213.03 76.0455 209.974 72.126 209.994ZM180.247 54.5798C169.935 55.4833 161.522 50.3558 158.759 41.7648C155.928 32.9613 159.289 23.8213 167.074 19.1523C174.772 14.5353 184.35 15.8073 190.625 22.2798C197.541 29.4148 197.732 38.5983 191.023 48.9078C197.353 59.9098 203.747 71.0208 210.14 82.1318C212.213 85.7348 214.323 89.3173 216.346 92.9478C218.587 96.9688 218.002 100.354 214.834 102.261C211.664 104.169 208.326 103.067 206.011 99.0873C198.019 85.3483 190.103 71.5648 182.155 57.7998C181.551 56.7533 180.923 55.7198 180.247 54.5798ZM176.833 42.5603C180.743 42.6138 183.807 39.6643 183.913 35.7453C184.016 31.9138 180.971 28.6883 177.142 28.5723C173.12 28.4508 169.894 31.5883 169.889 35.6268C169.883 39.5573 172.836 42.5053 176.833 42.5603ZM224.469 145.709C218.527 155.498 212.504 165.414 206.486 175.333C203.631 180.038 200.846 184.786 197.916 189.443C195.507 193.27 192.125 194.218 188.946 192.162C186.037 190.28 185.468 186.682 187.647 183.083C196.51 168.44 205.41 153.82 214.268 139.238C208.249 130.277 208.409 120.538 216.382 112.795C222.712 106.648 232.32 106.061 239.764 110.892C246.931 115.542 250.12 124.598 247.475 132.785C244.458 142.124 236.926 146.42 224.469 145.709ZM229.401 119.802C225.335 119.817 222.182 123.005 222.271 127.013C222.356 130.872 225.44 133.949 229.274 134.001C233.137 134.054 236.445 130.695 236.407 126.759C236.371 122.971 233.166 119.789 229.401 119.802ZM90.4205 30.5438C107.197 30.5438 123.834 30.4823 140.469 30.6228C142.521 30.6403 145.141 31.1663 146.445 32.4923C147.695 33.7633 148.553 36.9023 147.819 38.2813C146.809 40.1778 144.22 42.2288 142.165 42.3888C135.598 42.9013 128.964 42.5698 122.356 42.5688C111.592 42.5668 100.827 42.5683 90.1355 42.5683C84.5415 54.0293 74.5045 57.0293 66.0025 54.3633C57.6065 51.7303 52.314 44.2258 52.5375 35.4668C52.755 26.9433 58.7515 19.5213 67.1365 17.3958C76.6015 14.9963 83.668 18.9218 90.4205 30.5438ZM78.623 36.0038C78.5915 32.1983 75.3545 28.9588 71.597 28.9718C67.778 28.9848 64.699 32.1888 64.7335 36.1133C64.768 40.0633 67.793 43.0693 71.7325 43.0688C75.566 43.0683 78.655 39.9013 78.623 36.0038ZM158.046 211.357C163.496 200.607 171.274 196.22 180.775 198.279C189.04 200.071 195.211 207.263 195.682 215.652C196.185 224.618 190.949 232.5 182.679 235.226C173.278 238.325 165.392 234.657 158.145 223.531C157.098 223.531 155.781 223.53 154.465 223.531C138.561 223.54 122.657 223.579 106.753 223.54C102.714 223.53 99.913 220.895 99.946 217.431C99.9785 214.046 102.589 211.645 106.536 211.422C107.756 211.353 108.982 211.39 110.205 211.389C124.641 211.377 139.077 211.367 153.513 211.357C154.974 211.356 156.434 211.357 158.046 211.357ZM176.735 209.997C172.865 209.947 169.785 212.942 169.701 216.838C169.617 220.759 172.555 223.874 176.435 223.978C180.534 224.087 183.658 221.041 183.635 216.954C183.613 212.991 180.694 210.049 176.735 209.997ZM178.434 121.715C177.571 120.716 174.716 120.715 173.091 121.254C170.087 122.25 169.846 125.173 169.705 127.961C168.594 149.973 153.777 167.142 132.217 171.299C129.35 171.852 126.379 171.849 123.465 172.189C120.085 172.583 118.463 174.833 118.461 177.952C118.458 181.196 120.453 183.145 123.709 183.484C125.279 183.647 126.893 183.556 128.473 183.419C157.144 180.94 179.209 158.284 182.009 129.035C180.874 126.546 180.151 123.701 178.434 121.715ZM74.549 131.538C77.756 130.333 78.0315 127.589 78.2315 124.636C79.362 107.961 86.9015 95.1088 101.372 86.5243C108.145 82.5063 115.508 80.6243 123.39 80.4628C127.355 80.3813 129.66 78.0338 129.65 74.7198C129.64 71.2953 127.044 69.0748 122.962 69.0058C122.473 68.9973 121.983 69.0183 121.495 69.0348C92.1425 70.0273 67.503 94.9833 66.868 124.362C66.747 129.995 70.141 133.194 74.549 131.538ZM142.781 126.374C142.749 136.657 134.359 145.043 124.072 145.075C113.634 145.107 105.098 136.587 105.137 126.175C105.175 115.963 113.669 107.489 123.904 107.452C134.322 107.414 142.813 115.925 142.781 126.374ZM116.686 126.213C116.655 130.415 119.893 133.629 124.116 133.589C128.09 133.552 131.315 130.312 131.341 126.332C131.367 122.143 128.087 118.901 123.882 118.96C119.871 119.015 116.715 122.196 116.686 126.213ZM162.408 127.226C162.386 122.9 159.617 120.036 155.914 120.704C152.242 121.367 151.253 123.999 150.991 127.412C149.868 142.034 139.443 152.47 125.349 153.273C120.771 153.534 118.298 155.59 118.34 159.1C118.383 162.729 121.13 164.777 125.822 164.678C145.337 164.271 162.508 146.693 162.408 127.226ZM90.922 131.955C94.3545 132.132 96.7395 129.653 97.042 125.593C98.202 110.029 107.92 100.376 123.629 99.1838C127.436 98.8948 129.748 96.5418 129.57 93.1368C129.4 89.9008 127.071 87.9423 123.303 87.8683C103.966 87.4873 86.0765 104.753 85.683 124.177C85.5825 129.102 87.3815 131.772 90.922 131.955Z" fill="url(#paint0_linear_242_93420)"/>
<defs>
<linearGradient id="paint0_linear_242_93420" x1="1.30482" y1="126.339" x2="248.398" y2="126.339" gradientUnits="userSpaceOnUse">
<stop stop-color="#ED274D"/>
<stop offset="1" stop-color="#313192"/>
</linearGradient>
</defs>
</svg>
