<svg width="250" height="250" viewBox="0 0 250 250" fill="none" xmlns="http://www.w3.org/2000/svg">
<g clip-path="url(#clip0_242_94783)">
<path d="M124.998 250C194.034 250 249.998 194.036 249.998 125C249.998 55.9644 194.034 0 124.998 0C55.9625 0 -0.00195312 55.9644 -0.00195312 125C-0.00195312 194.036 55.9625 250 124.998 250Z" fill="#EDF0F4"/>
<path fill-rule="evenodd" clip-rule="evenodd" d="M87.5283 56.7021C87.2873 57.0911 88.4978 57.5051 90.6673 57.7766C99.0048 58.8181 109.766 62.9306 117.868 68.1721C123.172 71.6036 131.139 79.1161 135.253 84.5656C139.371 90.0206 144.041 99.6711 146.007 106.787C148.014 114.054 148.75 127.496 147.549 134.985C143.261 161.751 122.978 183.774 97.0558 189.812C85.8113 192.432 86.3133 192.207 90.4848 192.765C95.3508 193.416 106.001 192.228 112.849 190.27C136.055 183.636 154.003 165.407 160.329 142.049C161.797 136.626 162.877 134.989 162.901 124.653C162.925 114.045 161.883 112.83 160.296 107.096C153.527 82.6441 134.968 64.5431 109.948 57.9891C104.589 56.5856 88.1823 55.6436 87.5283 56.7021Z" fill="#372687"/>
</g>
<defs>
<clipPath id="clip0_242_94783">
<rect width="250" height="250" fill="white"/>
</clipPath>
</defs>
</svg>
