<svg width="250" height="250" viewBox="0 0 250 250" fill="none" xmlns="http://www.w3.org/2000/svg">
<path d="M210.226 119.497L148.276 57.5474C145.231 54.5024 140.331 54.5024 137.286 57.5474L100.991 93.8774L90.4909 83.3774C87.4459 80.3324 82.5459 80.3324 79.4659 83.3774L39.7759 123.032C36.7309 126.077 36.7309 130.977 39.7759 134.057L79.4659 173.747C82.5109 176.792 87.4109 176.792 90.4909 173.747L97.4559 166.782L68.2309 137.592C65.1859 134.547 65.1859 129.647 68.2309 126.602L69.8409 124.992L137.251 192.402C140.296 195.447 145.196 195.447 148.241 192.402L210.191 130.452C213.271 127.442 213.271 122.542 210.226 119.497Z" fill="#6436FF"/>
</svg>
