<svg width="250" height="250" viewBox="0 0 250 250" fill="none" xmlns="http://www.w3.org/2000/svg">
<g clip-path="url(#clip0_242_94691)">
<path d="M125 250C194.036 250 250 194.036 250 125C250 55.9644 194.036 0 125 0C55.9644 0 0 55.9644 0 125C0 194.036 55.9644 250 125 250Z" fill="#49A0E5"/>
<path d="M81.459 143.373V80.7656H170.859V143.373L154.942 166.983L125.231 179.982L96.5805 166.983L81.459 143.373Z" fill="#49A0E5"/>
<path fill-rule="evenodd" clip-rule="evenodd" d="M73.0075 102.686C73.103 134.339 73.078 133.553 74.2015 140.141C76.1415 151.517 80.872 160.207 90.207 169.542C93.9445 173.279 96.8685 175.698 100.784 178.291C108.294 183.264 116.608 186.548 124.06 187.486C125.949 187.724 126.476 187.701 128.992 187.275C140.214 185.372 151.349 179.436 160.593 170.429C165.162 165.977 168.491 161.875 171.421 157.083C175.826 149.878 178.047 141.58 178.695 129.906C178.817 127.705 178.918 113.982 178.921 99.4096L178.925 72.9141H125.921H72.918L73.0075 102.686ZM165.14 106.584C165.14 117.397 165.089 126.244 165.027 126.244C164.964 126.244 155.013 118.819 142.913 109.743L120.913 93.2426L115.93 93.3036L110.946 93.3646L120.331 100.37C125.492 104.223 137.559 113.239 147.145 120.406L164.576 133.436L164.542 135.094C164.501 137.098 163.539 141.913 162.732 144.157C160.106 151.455 154.722 158.482 147.243 164.377C141.961 168.54 134.738 171.843 128.55 172.927C125.686 173.428 123.45 173.207 119.308 172.015C108.087 168.785 97.1765 159.882 91.187 149.067C87.82 142.988 86.28 134.568 86.277 122.217L86.276 118.304L87.0105 118.824C87.414 119.11 100.032 128.523 115.051 139.742C130.069 150.961 142.464 160.14 142.594 160.14C142.886 160.14 145.535 157.983 146.598 156.881C147.304 156.149 147.341 156.047 146.997 155.79C146.789 155.635 133.097 145.389 116.571 133.023L86.5235 110.539L86.4565 98.7316L86.389 86.9246H125.765H165.14V106.584Z" fill="#1A2D4E"/>
</g>
<defs>
<clipPath id="clip0_242_94691">
<rect width="250" height="250" fill="white"/>
</clipPath>
</defs>
</svg>
