<svg width="250" height="250" viewBox="0 0 250 250" fill="none" xmlns="http://www.w3.org/2000/svg">
<rect width="250" height="250" rx="125" fill="white"/>
<g clip-path="url(#clip0_242_94536)">
<path d="M92.019 177.357L89.8806 160.25L88.1309 168.998L92.019 177.357Z" fill="#F1A018"/>
<path d="M89.8774 160.248L84.0458 150.043L82.8795 151.501L80.5469 154.319L89.8774 160.248Z" fill="#CD7400"/>
<path d="M80.5469 154.324L81.9076 160.836L89.8774 160.253L80.5469 154.324Z" fill="#CF860D"/>
<path d="M88.1304 168.997L89.88 160.25L81.9102 160.833L88.1304 168.997Z" fill="#F7AA0F"/>
<path d="M94.2527 160.25H89.8789L92.0173 177.357L94.2527 160.25Z" fill="#CF860D"/>
<path d="M101.348 128.95L95.2246 136.337L139.645 126.325L104.07 125.742L101.348 128.95Z" fill="#DB8A00"/>
<path d="M81.5185 139.352L80.4492 141.782L104.069 125.647L87.3504 125.355L83.3652 134.978L81.5185 139.352Z" fill="#F3A70B"/>
<path d="M104.069 125.645L80.4499 141.78L76.8535 158.79L80.5472 154.318L82.88 151.5L95.2244 136.336L101.348 128.949L104.069 125.645Z" fill="#E59108"/>
<path d="M77.244 144.6L75.3001 146.35L73.0645 148.294H73.1617L76.8553 158.791L80.4517 141.781L77.244 144.6Z" fill="#FFBB00"/>
<path d="M55.0801 180.077L76.8527 158.791L73.1592 148.293L55.0801 180.077Z" fill="#FEB11C"/>
<path d="M73.1605 148.293L52.0684 174.44L55.0814 180.077L73.1605 148.293Z" fill="#F9A406"/>
<path d="M40.209 174.148L55.0796 180.077L52.0667 174.44L40.209 174.148Z" fill="#FFBA00"/>
<path d="M55.0796 180.077L40.209 174.148L53.8162 183.382L55.0796 180.077Z" fill="#D38800"/>
<path d="M170.747 134.686L166.956 132.256L165.887 145.961L168.705 148.877L185.715 166.665L171.038 134.88L170.747 134.686Z" fill="#FEB526"/>
<path d="M178.232 139.646L173.178 136.341L171.039 134.883L185.716 166.667L178.524 139.84L178.232 139.646Z" fill="#E68F00"/>
<path d="M180.275 146.253L181.927 142.073L178.525 139.838L180.275 146.253Z" fill="#D38800"/>
<path d="M168.707 148.875L175.317 168.704L185.717 166.663L168.707 148.875Z" fill="#EE9904"/>
<path d="M164.625 186.493L185.717 166.664L175.317 168.705L164.625 186.493Z" fill="#EFA721"/>
<path d="M158.793 184.16L164.625 186.493L175.317 168.705L158.793 184.16Z" fill="#E39516"/>
<path d="M158.792 184.156L149.461 185.517L164.623 186.489L158.792 184.156Z" fill="#FFBA00"/>
<path d="M163.846 192.129L164.623 186.491L149.461 185.52L163.846 192.129Z" fill="#D38800"/>
<path d="M145.575 106.109L153.739 66.1602L141.298 84.9198L138.576 89.0992L145.575 106.109Z" fill="#FABB32"/>
<path d="M187.564 109.317L168.319 85.0169L153.739 66.1602L145.574 106.109L187.564 109.317Z" fill="#F9A925"/>
<path d="M89.3928 91.7227L87.3516 125.354L117.872 103.678L89.3928 91.7227Z" fill="#FCB81D"/>
<path d="M75.3965 95.2203L89.3932 91.721L70.8281 84.334L75.3965 95.2203Z" fill="#FCB81D"/>
<path d="M70.8281 84.3352L65.7736 72.0879L60.8164 98.8178L75.3964 95.2216L70.8281 84.3352Z" fill="#F5A623"/>
<path d="M66.066 69.9487L51.0971 71.9899L47.6953 72.4758L60.8171 98.8169L66.1631 69.8516L66.066 69.9487Z" fill="#EC9608"/>
<path d="M75.3964 95.222L60.8164 98.8182L87.3519 125.354L89.3931 91.7227L75.3964 95.222Z" fill="#EF9E00"/>
<path d="M103.584 89.3906L89.3926 91.7234L117.872 103.679L103.584 89.3906Z" fill="#FAA91E"/>
<path d="M122.536 61.1055L103.582 89.3905L117.87 103.679L122.536 61.1055Z" fill="#FFB30E"/>
<path d="M145.575 106.109L137.313 86.0858L135.952 82.7809L127.399 62.1746L122.539 61.1055L117.873 103.679L145.575 106.109Z" fill="#F3A017"/>
<path d="M36.7109 68.9772L44.4864 72.8648L49.1516 60.9102L36.7109 68.9772Z" fill="#EC9F21"/>
<path d="M49.1498 60.9115L42.0547 59.5508L36.3203 63.0497L36.612 68.9785L49.1498 60.9115Z" fill="#F9A42F"/>
<path d="M36.3214 63.0469L30.0039 68.101L32.045 72.4746L36.7102 70.8224L36.6131 68.9757L36.3214 63.0469Z" fill="#FFAD2D"/>
<path d="M61.6887 70.5339H61.2026L58.6754 66.2572L64.1187 62.758L61.397 59.4531L49.1499 60.9112L44.4844 72.8666L47.692 72.4778L51.0938 71.9919L61.6887 70.5339Z" fill="#FFBA00"/>
<path d="M53.5241 57.8984L49.1504 60.9115L61.3967 59.4535L53.5241 57.8984Z" fill="#DE8C02"/>
<path d="M61.2028 70.532L65.6738 61.6875L64.1187 62.7567L58.6758 66.2556L61.2028 70.532Z" fill="#ECA403"/>
<path d="M61.6911 70.532L66.0648 69.9489L66.1619 69.8518L67.9114 69.6574L65.6761 61.6875L61.2051 70.532H61.6911Z" fill="#FAA91E"/>
<path d="M117.872 103.68L87.3516 125.355L145.574 106.11L117.872 103.68Z" fill="#E49005"/>
<path d="M87.3516 125.355L104.07 125.646V125.744L139.645 126.327L158.696 126.716L145.574 106.109L87.3516 125.355Z" fill="#ED9A11"/>
<path d="M145.574 106.109L158.696 126.716L187.564 109.317L145.574 106.109Z" fill="#E18E01"/>
<path d="M168.318 85.0169V84.9198L168.707 74.325L153.738 66.1602L168.318 85.0169Z" fill="#E69001"/>
<path d="M175.997 91.6258L168.707 74.3242L168.318 84.9191L175.997 91.6258Z" fill="#EEA504"/>
<path d="M168.318 84.9199V85.017L187.564 109.317L187.758 101.93L175.997 91.6267L168.318 84.9199Z" fill="#DE8C02"/>
<path d="M187.566 109.416V109.319L191.552 130.022L197.87 136.34L187.761 101.932L187.566 109.319V109.416Z" fill="#DC8900"/>
<path d="M173.18 136.338L178.234 139.643H178.332L187.565 109.316L158.697 126.715L166.959 132.255L170.75 134.686L173.18 136.338Z" fill="#F5A623"/>
<path d="M187.564 109.316V109.414L178.33 139.643H178.232L191.549 130.02L187.564 109.316Z" fill="#EE9704"/>
<path d="M178.232 139.642L214.293 152.57L197.867 136.337L191.549 130.02L178.232 139.642Z" fill="#F7B13D"/>
<path d="M178.524 139.839L181.926 142.075L215.849 164.43L214.293 152.572L178.232 139.645L178.524 139.839Z" fill="#F5A209"/>
<path d="M215.85 164.428L206.324 158.207L218.377 185.229L215.85 164.428Z" fill="#DE8903"/>
<path d="M209.824 165.984L213.129 183.383L218.378 185.23L209.824 165.984Z" fill="#F3AB10"/>
<path d="M218.374 185.23L213.126 183.383L205.156 188.728L218.374 185.23Z" fill="#FFBA00"/>
<path d="M205.156 188.729L220.027 189.118L218.374 185.23L205.156 188.729Z" fill="#D38800"/>
<path d="M78.6019 138.669L81.5178 139.349L83.3643 134.975L85.5027 129.824L73.3535 137.405L78.6019 138.669Z" fill="#E18E01"/>
<path d="M73.3538 137.405L85.503 129.824L72.5763 133.031L70.5352 139.058L73.3538 137.405Z" fill="#F4B819"/>
<path d="M73.3538 137.408L70.5352 139.061L75.2976 146.35L73.3538 137.408Z" fill="#F6A616"/>
<path d="M78.6019 138.672L73.3535 137.408L75.2973 146.35L77.2412 144.601L80.0598 142.171L78.6019 138.672Z" fill="#D68600"/>
<path d="M137.312 86.084L138.478 89.0969H138.575L141.297 84.9177L142.171 83.5568L135.951 82.7793L137.312 86.084Z" fill="#C97E03"/>
</g>
<defs>
<clipPath id="clip0_242_94536">
<rect width="190.025" height="190.025" fill="white" transform="translate(30.0039 30.002)"/>
</clipPath>
</defs>
</svg>
