<svg width="250" height="250" viewBox="0 0 250 250" fill="none" xmlns="http://www.w3.org/2000/svg">
<g clip-path="url(#clip0_242_93422)">
<path d="M125 250.5C194.036 250.5 250 194.536 250 125.5C250 56.4644 194.036 0.5 125 0.5C55.9644 0.5 0 56.4644 0 125.5C0 194.536 55.9644 250.5 125 250.5Z" fill="url(#paint0_radial_242_93422)"/>
<path d="M61.3504 61.847C88.2504 34.947 128 28.647 160.9 42.947L143.75 60.097C120.8 53.547 95.0504 59.297 76.9504 77.397C53.0504 101.297 50.6504 138.597 69.8004 165.147L95.3504 139.597L110.9 155.147L69.6504 196.397C66.8004 194.147 64.0504 191.747 61.4004 189.097C26.2004 153.997 26.2004 96.997 61.3504 61.847Z" fill="white"/>
<path d="M89.0996 208.049C122 222.349 161.7 216.049 188.65 189.149C223.8 153.999 223.8 96.9988 188.65 61.8488C186 59.1988 183.25 56.7988 180.4 54.5488L139.15 95.7988L154.7 111.349L180.25 85.7988C199.4 112.349 197 149.649 173.1 173.549C155 191.649 129.25 197.399 106.3 190.849L89.0996 208.049Z" fill="white"/>
<path d="M140.549 125.497L124.999 109.947L109.449 125.497L124.999 141.047L140.549 125.497Z" fill="white"/>
<path d="M95.3 80.25L110.85 95.8L95.3 111.35L79.75 95.8L95.3 80.25Z" fill="white"/>
<path d="M170.25 155.2L154.7 139.65L139.15 155.2L154.7 170.75L170.25 155.2Z" fill="white"/>
</g>
<defs>
<radialGradient id="paint0_radial_242_93422" cx="0" cy="0" r="1" gradientUnits="userSpaceOnUse" gradientTransform="translate(125 125.5) rotate(90) scale(125)">
<stop stop-color="#304FFE"/>
<stop offset="1" stop-color="#3D5AFE"/>
</radialGradient>
<clipPath id="clip0_242_93422">
<rect width="250" height="250" rx="125" fill="white"/>
</clipPath>
</defs>
</svg>
