<svg width="250" height="250" viewBox="0 0 250 250" fill="none" xmlns="http://www.w3.org/2000/svg">
<g clip-path="url(#clip0_242_94079)">
<path fill-rule="evenodd" clip-rule="evenodd" d="M201.43 82.1589C199.604 83.5853 197.274 85.207 194.58 86.959L194.813 87.099L243.982 169.665V72.9401C243.982 62.6126 241.642 52.8255 237.456 44.0918C237.456 44.0918 211.749 74.0866 201.43 82.1589Z" fill="#560B74"/>
<path fill-rule="evenodd" clip-rule="evenodd" d="M61.3535 89.584L125.93 52.2995L130.441 54.9095L190.468 89.5651C191.913 88.6706 193.284 87.8034 194.579 86.9551L125.93 47.3223L57.0469 87.095V166.557C58.4915 165.253 59.9362 163.994 61.3535 162.782V89.584Z" fill="#763C90"/>
<path fill-rule="evenodd" clip-rule="evenodd" d="M190.468 89.5671L190.506 89.5859V164.145L125.93 201.43L61.3535 164.145V162.784C59.9362 163.996 58.4915 165.255 57.0469 166.559V166.633L125.93 206.407L194.812 166.633V87.097L194.579 86.957C193.284 87.8053 191.913 88.6725 190.468 89.5671Z" fill="#602278"/>
<path fill-rule="evenodd" clip-rule="evenodd" d="M155.708 109.188L184.827 159.549C185.061 159.951 184.763 160.454 184.296 160.454H67.7085C67.2423 160.454 66.9533 159.951 67.1863 159.549L68.7059 156.921L125.406 58.5937C125.639 58.1927 126.217 58.1927 126.449 58.5937L155.708 109.188ZM119.151 59.0592L63.812 154.898C62.6095 156.986 62.4884 159.279 63.1597 161.274C64.1662 164.285 66.9715 166.633 70.5887 166.633H181.267C185.834 166.633 189.106 162.887 189.106 158.795C189.106 157.499 188.77 156.157 188.043 154.898L132.704 59.0592C131.949 57.7545 130.923 56.776 129.74 56.123C126.207 54.166 121.407 55.1445 119.151 59.0592Z" fill="#743E89"/>
<path fill-rule="evenodd" clip-rule="evenodd" d="M243.981 177.065V169.664L194.812 87.0977V166.634L125.93 206.408L57.0469 166.634L102.394 243.98H177.055C214.014 243.98 243.981 214.023 243.981 177.065Z" fill="#753F8A"/>
<path fill-rule="evenodd" clip-rule="evenodd" d="M57.0482 166.558V87.0957L125.931 47.3229L194.581 86.9557C197.275 85.2038 199.605 83.582 201.431 82.1556C211.75 74.0833 237.457 44.0885 237.457 44.0885C226.682 21.569 203.687 6.02148 177.057 6.02148H72.9407C35.9824 6.02148 6.01562 35.9792 6.01562 72.9369V177.063C6.01562 189.283 9.28711 200.738 15.0104 210.591C15.0104 210.591 36.7467 184.781 57.0482 166.558Z" fill="#662083"/>
<path fill-rule="evenodd" clip-rule="evenodd" d="M188.044 154.896C188.771 156.154 189.107 157.497 189.107 158.792H190.505V89.5833L190.467 89.5645C181.771 94.9525 170.585 101.197 160.248 106.762L188.044 154.896Z" fill="#50056E"/>
<path fill-rule="evenodd" clip-rule="evenodd" d="M243.981 177.061C243.981 214.019 214.013 243.977 177.055 243.977H102.394L105.889 249.933H179.665C218.468 249.933 249.937 218.474 249.937 179.661L243.981 169.66V177.061Z" fill="#7E4498"/>
<path fill-rule="evenodd" clip-rule="evenodd" d="M125.408 58.5937L68.708 156.921C71.2894 155.001 73.7601 153.361 76.0622 152.064C89.6058 144.45 130.59 122.238 130.59 122.238C130.59 122.238 141.879 116.561 155.711 109.188L126.452 58.5937C126.219 58.1927 125.641 58.1927 125.408 58.5937Z" fill="#5E187B"/>
<path fill-rule="evenodd" clip-rule="evenodd" d="M129.739 56.1217C130.923 56.7747 131.949 57.7533 132.703 59.0579L160.247 106.763C170.584 101.199 181.77 94.9538 190.466 89.5658L130.438 54.9102L129.739 56.1217Z" fill="#60187C"/>
<path fill-rule="evenodd" clip-rule="evenodd" d="M76.0625 152.064C73.7604 153.36 71.2897 155.001 68.7083 156.921L67.1888 159.549C66.9557 159.951 67.2448 160.453 67.7109 160.453H184.299C184.765 160.453 185.063 159.951 184.829 159.549L155.711 109.188C141.879 116.561 130.591 122.237 130.591 122.237C130.591 122.237 89.6061 144.449 76.0625 152.064Z" fill="#4D026B"/>
<path fill-rule="evenodd" clip-rule="evenodd" d="M181.269 166.632H70.5905C66.9733 166.632 64.168 164.283 63.1615 161.272C62.5651 161.766 61.959 162.27 61.3535 162.782V164.143L125.93 201.428L190.506 164.143V158.793H189.108C189.108 162.885 185.836 166.632 181.269 166.632Z" fill="#4B0069"/>
<path fill-rule="evenodd" clip-rule="evenodd" d="M63.8138 154.898L119.153 59.0586C121.409 55.1439 126.209 54.1654 129.742 56.1224L130.441 54.9108L125.93 52.3008L61.3535 89.5853V162.783C61.959 162.271 62.5651 161.768 63.1615 161.273C62.4902 159.279 62.6113 156.986 63.8138 154.898Z" fill="#5E167A"/>
<path fill-rule="evenodd" clip-rule="evenodd" d="M57.0466 166.559C36.7451 184.781 15.0088 210.592 15.0088 210.592C26.5947 230.557 48.2008 243.979 72.9391 243.979H102.394L57.0466 166.633V166.559Z" fill="#4B0069"/>
<path fill-rule="evenodd" clip-rule="evenodd" d="M179.664 0.0664062H70.3281C31.5247 0.0664062 0.0566406 31.5247 0.0566406 70.3379V179.665C0.0566406 218.477 31.5247 249.936 70.3281 249.936H105.888L102.393 243.98H72.9381C48.1999 243.98 26.5938 230.558 15.0078 210.592C9.28451 200.74 6.01302 189.284 6.01302 177.064V72.9381C6.01302 35.9805 35.9798 6.02278 72.9381 6.02278H177.054C203.684 6.02278 226.68 21.5703 237.454 44.0898C241.64 52.8236 243.98 62.6107 243.98 72.9381V169.663L249.936 179.665V70.3379C249.936 31.5247 218.467 0.0664062 179.664 0.0664062Z" fill="#500071"/>
</g>
<defs>
<clipPath id="clip0_242_94079">
<rect width="250" height="250" rx="125" fill="white"/>
</clipPath>
</defs>
</svg>
