<svg width="250" height="250" viewBox="0 0 250 250" fill="none" xmlns="http://www.w3.org/2000/svg">
<rect width="250" height="250" rx="125" fill="white"/>
<g clip-path="url(#clip0_242_94524)">
<path d="M238.668 125.089V127.761C238.668 128.266 238.668 128.699 238.594 129.205C236.289 190.074 186.274 238.668 125.016 238.668C62.2453 238.668 11.3652 187.691 11.3652 124.8C11.3652 107.615 15.1848 91.2971 21.9593 76.7115C22.2476 76.1337 22.536 75.4841 22.824 74.9063C23.3284 73.9677 23.7609 72.9567 24.2653 72.0179C39.616 43.0637 67.0018 21.4022 99.7929 14.0372C102.099 13.5317 104.405 13.0984 106.639 12.7375C106.783 12.7375 107 12.6652 107.144 12.6652C108.009 12.5208 108.945 12.3763 109.811 12.3042C110.387 12.2319 110.963 12.1597 111.468 12.0874C111.756 12.0874 112.045 12.0153 112.332 12.0153C112.909 11.943 113.558 11.8708 114.134 11.8708C114.494 11.8708 114.783 11.7987 115.143 11.7987C115.792 11.7264 116.441 11.6541 117.017 11.6541C117.233 11.6541 117.521 11.6541 117.738 11.5819C118.17 11.5819 118.675 11.5098 119.035 11.5098C119.683 11.4375 120.26 11.4375 120.764 11.4375H122.134C122.638 11.4375 123.071 11.4375 123.575 11.3652H125.305C139.79 11.3655 153.627 14.109 166.383 19.0192H163.933C157.375 19.0192 150.889 19.597 144.619 20.7521C144.186 20.8244 143.755 20.8967 143.322 21.041C142.024 21.3299 140.727 21.6188 139.43 21.9075C141.953 22.9183 143.826 24.2178 144.979 25.0845C139.646 24.6513 130.278 24.7956 119.467 28.5504C117.738 29.1282 116.008 29.8502 114.278 30.6443C102.891 35.7709 95.4685 42.9191 91.5773 47.3238C92.5859 47.4681 93.6671 47.6127 94.7482 47.757C99.3604 48.4792 103.396 49.6346 106.783 50.7897C104.333 52.1617 98.5676 55.5551 92.2258 61.0429C86.6044 65.8808 80.4781 72.3791 75.6498 80.6104C72.3348 86.315 69.596 92.8854 68.1547 100.323C66.7134 107.904 66.8575 114.908 67.6503 120.756C71.1096 114.763 75.938 107.832 82.785 101.262C82.8569 101.189 82.9285 101.117 83.001 101.044C84.8749 99.2392 86.6762 97.6511 88.5501 96.207C88.406 97.5786 88.1901 99.0226 87.8291 100.539C87.6132 101.55 87.3247 102.489 87.1088 103.427C89.6312 100.323 92.9461 96.7844 97.1983 93.3187C100.225 90.8638 103.252 88.7699 106.062 87.109C109.378 85.0874 112.549 83.6426 115.216 82.4877C114.279 79.7442 113.414 76.3503 113.053 72.3791C112.188 63.6421 114.134 56.5662 115.72 52.306C119.323 60.1764 123.791 64.87 127.106 67.6137C135.178 74.3287 141.808 74.1844 152.259 81.3326C156.078 84.0045 159.177 86.676 161.555 89.1309C162.78 90.3583 163.862 91.5139 164.654 92.5247C165.014 91.8023 165.303 91.2248 165.446 90.7915C165.879 89.9251 166.239 88.9865 166.527 88.0475C166.744 87.3977 166.96 86.8201 167.177 86.1702C168.762 87.9034 170.203 89.7084 171.5 91.7298V91.8024C172.797 93.5355 180.725 104.438 176.762 113.753C176.329 114.692 175.824 115.703 175.031 116.713C175.392 117.797 176.978 123.429 173.807 129.349C170.779 134.981 165.59 136.859 164.438 137.22C164.726 136.209 166.527 129.061 162.348 124.367C161.771 123.717 160.906 122.923 159.753 122.345C159.825 122.779 159.897 123.573 159.681 124.439C159.537 125.089 159.248 125.594 159.033 125.956C155.212 126.605 151.681 128.122 148.726 130.288C145.195 132.887 142.529 136.353 141.015 140.397C137.484 150.072 141.52 161.625 151.105 167.835C166.455 163.214 174.455 156.21 178.923 150.505C179.211 150.144 179.428 149.855 179.499 149.711C187.859 138.663 188.58 126.822 188.796 122.129C188.94 118.59 188.869 113.319 187.427 107.038C189.445 107.688 192.184 108.77 195.066 110.793C199.03 113.536 201.48 116.713 202.849 118.88C201.625 109.493 198.093 92.5963 185.841 76.4226C180.869 69.852 175.536 64.8697 170.851 61.1149C174.527 60.6817 179.644 60.4653 185.553 61.4761C189.517 62.198 192.904 63.2813 195.57 64.3644C195.355 59.5986 194.562 52.5227 191.535 44.6523C191.247 44.0025 191.03 43.2803 190.742 42.6307V42.5584C187.499 34.8324 183.247 29.2726 180.148 25.7344C182.599 27.1064 184.977 28.5504 187.283 30.0668C187.355 30.1391 187.427 30.1391 187.427 30.2113C193.121 34.1103 200.472 39.7424 207.75 47.3961C207.894 47.4681 207.966 47.6127 208.038 47.757C208.326 48.1182 208.687 48.4071 208.975 48.7679L209.047 48.8401C217.912 58.4434 226.488 71.0071 231.893 86.9642V87.0367C231.965 87.1808 231.965 87.2533 232.037 87.3977C232.109 87.5427 232.109 87.615 232.181 87.7593C232.253 87.9034 232.253 88.0478 232.325 88.1926C236.432 99.6011 238.594 112.092 238.667 125.089H238.668V125.089Z" fill="#0D0D1F"/>
<path d="M70.8312 41.3974C70.6151 41.4697 70.4712 41.5419 70.2548 41.614C70.1825 41.614 70.1107 41.6863 70.0386 41.6863C69.7502 41.7586 69.534 41.9029 69.2458 41.9752C68.8853 42.1195 68.453 42.2641 68.0927 42.4807C68.0206 42.4807 67.8765 42.553 67.8045 42.625C67.7322 42.625 67.7322 42.6973 67.6604 42.6973C67.3721 42.8419 67.0837 42.9139 66.7957 43.0585C66.219 43.2751 65.6426 43.564 65.0659 43.8527C64.8498 43.997 64.5615 44.0693 64.3454 44.2137C63.6969 44.5026 63.0479 44.8637 62.3994 45.2245C62.2556 45.2968 62.1112 45.369 61.9671 45.4411C61.7509 45.5857 61.5348 45.6577 61.3186 45.8023C61.1025 45.9466 60.8863 46.0189 60.6701 46.1632H60.5981C60.2376 46.3801 59.8773 46.5967 59.5168 46.8131C59.2286 46.9574 59.0124 47.102 58.724 47.3186H58.7962C58.7962 47.3186 58.8683 47.3186 58.8683 47.2463C58.9403 47.2463 58.9403 47.174 59.0124 47.174C59.4447 46.8854 59.8773 46.6685 60.3815 46.3801C61.1743 45.8748 62.0392 45.4413 62.904 45.0081C63.3364 44.7915 63.6969 44.5748 64.1292 44.3585C64.2013 44.2862 64.3454 44.2139 64.4893 44.2139C64.7777 44.0696 65.138 43.925 65.4262 43.7084C65.9308 43.4195 66.5073 43.2031 67.0119 42.9142C67.3724 42.7698 67.8047 42.5532 68.1647 42.4087C68.7414 42.1198 69.3178 41.9034 69.9666 41.6145C70.4712 41.3978 70.9035 41.2535 71.4079 41.0371C71.1917 41.2537 71.0478 41.326 70.8312 41.3978V41.3974ZM58.5076 47.535C58.5397 47.535 58.5397 47.535 58.5076 47.535C58.5397 47.535 58.5397 47.535 58.5076 47.535ZM70.8312 41.3974C70.6151 41.4697 70.4712 41.5419 70.2548 41.614C70.1825 41.614 70.1107 41.6863 70.0386 41.6863C69.7502 41.7586 69.534 41.9029 69.2458 41.9752C68.8853 42.1195 68.453 42.2641 68.0927 42.4807C68.0206 42.4807 67.8765 42.553 67.8045 42.625C67.7322 42.625 67.7322 42.6973 67.6604 42.6973C67.3721 42.8419 67.0837 42.9139 66.7957 43.0585C66.219 43.2751 65.6426 43.564 65.0659 43.8527C64.8498 43.997 64.5615 44.0693 64.3454 44.2137C63.6969 44.5026 63.0479 44.8637 62.3994 45.2245C62.2556 45.2968 62.1112 45.369 61.9671 45.4411C61.7509 45.5857 61.5348 45.6577 61.3186 45.8023C61.1025 45.9466 60.8863 46.0189 60.6701 46.1632H60.5981C60.2376 46.3801 59.8773 46.5967 59.5168 46.8131C59.2286 46.9574 59.0124 47.102 58.724 47.3186H58.7962C58.7962 47.3186 58.8683 47.3186 58.8683 47.2463C58.9403 47.2463 58.9403 47.174 59.0124 47.174C59.4447 46.8854 59.8773 46.6685 60.3815 46.3801C61.1743 45.8748 62.0392 45.4413 62.904 45.0081C63.3364 44.7915 63.6969 44.5748 64.1292 44.3585C64.2013 44.2862 64.3454 44.2139 64.4893 44.2139C64.7777 44.0696 65.138 43.925 65.4262 43.7084C65.9308 43.4195 66.5073 43.2031 67.0119 42.9142C67.3724 42.7698 67.8047 42.5532 68.1647 42.4087C68.7414 42.1198 69.3178 41.9034 69.9666 41.6145C70.4712 41.3978 70.9035 41.2535 71.4079 41.0371C71.1917 41.2537 71.0478 41.326 70.8312 41.3978V41.3974ZM58.5076 47.535C58.5397 47.535 58.5397 47.535 58.5076 47.535C58.5397 47.535 58.5397 47.535 58.5076 47.535ZM70.8312 41.3974C70.6151 41.4697 70.4712 41.5419 70.2548 41.614C70.1825 41.614 70.1107 41.6863 70.0386 41.6863C69.7502 41.7586 69.534 41.9029 69.2458 41.9752C68.8853 42.1195 68.453 42.2641 68.0927 42.4807C68.0206 42.4807 67.8765 42.553 67.8045 42.625C67.7322 42.625 67.7322 42.6973 67.6604 42.6973C67.3721 42.8419 67.0837 42.9139 66.7957 43.0585C66.219 43.2751 65.6426 43.564 65.0659 43.8527C64.8498 43.997 64.5615 44.0693 64.3454 44.2137C63.6969 44.5026 63.0479 44.8637 62.3994 45.2245C62.2556 45.2968 62.1112 45.369 61.9671 45.4411C61.7509 45.5857 61.5348 45.6577 61.3186 45.8023C61.1025 45.9466 60.8863 46.0189 60.6701 46.1632H60.5981C60.2376 46.3801 59.8773 46.5967 59.5168 46.8131C59.2286 46.9574 59.0124 47.102 58.724 47.3186H58.7962C58.7962 47.3186 58.8683 47.3186 58.8683 47.2463C58.9403 47.2463 58.9403 47.174 59.0124 47.174C59.4447 46.8854 59.8773 46.6685 60.3815 46.3801C61.1743 45.8748 62.0392 45.4413 62.904 45.0081C63.3364 44.7915 63.6969 44.5748 64.1292 44.3585C64.2013 44.2862 64.3454 44.2139 64.4893 44.2139C64.7777 44.0696 65.138 43.925 65.4262 43.7084C65.9308 43.4195 66.5073 43.2031 67.0119 42.9142C67.3724 42.7698 67.8047 42.5532 68.1647 42.4087C68.7414 42.1198 69.3178 41.9034 69.9666 41.6145C70.4712 41.3978 70.9035 41.2535 71.4079 41.0371C71.1917 41.2537 71.0478 41.326 70.8312 41.3978V41.3974ZM58.5076 47.535C58.5397 47.535 58.5397 47.535 58.5076 47.535C58.5397 47.535 58.5397 47.535 58.5076 47.535ZM70.8312 41.3974C70.6151 41.4697 70.4712 41.5419 70.2548 41.614C70.1825 41.614 70.1107 41.6863 70.0386 41.6863C69.7502 41.7586 69.534 41.9029 69.2458 41.9752C68.8853 42.1195 68.453 42.2641 68.0927 42.4807C68.0206 42.4807 67.8765 42.553 67.8045 42.625C67.7322 42.625 67.7322 42.6973 67.6604 42.6973C67.3721 42.8419 67.0837 42.9139 66.7957 43.0585C66.219 43.2751 65.6426 43.564 65.0659 43.8527C64.8498 43.997 64.5615 44.0693 64.3454 44.2137C63.6969 44.5026 63.0479 44.8637 62.3994 45.2245C62.2556 45.2968 62.1112 45.369 61.9671 45.4411C61.7509 45.5857 61.5348 45.6577 61.3186 45.8023C61.1025 45.9466 60.8863 46.0189 60.6701 46.1632H60.5981C60.2376 46.3801 59.8773 46.5967 59.5168 46.8131C59.2286 46.9574 59.0124 47.102 58.724 47.3186H58.7962C58.7962 47.3186 58.8683 47.3186 58.8683 47.2463C58.9403 47.2463 58.9403 47.174 59.0124 47.174C59.4447 46.8854 59.8773 46.6685 60.3815 46.3801C61.1743 45.8748 62.0392 45.4413 62.904 45.0081C63.3364 44.7915 63.6969 44.5748 64.1292 44.3585C64.2013 44.2862 64.3454 44.2139 64.4893 44.2139C64.7777 44.0696 65.138 43.925 65.4262 43.7084C65.9308 43.4195 66.5073 43.2031 67.0119 42.9142C67.3724 42.7698 67.8047 42.5532 68.1647 42.4087C68.7414 42.1198 69.3178 41.9034 69.9666 41.6145C70.4712 41.3978 70.9035 41.2535 71.4079 41.0371C71.1917 41.2537 71.0478 41.326 70.8312 41.3978V41.3974ZM58.5076 47.535C58.5397 47.535 58.5397 47.535 58.5076 47.535C58.5397 47.535 58.5397 47.535 58.5076 47.535ZM70.8312 41.3974C70.6151 41.4697 70.4712 41.5419 70.2548 41.614C70.1825 41.614 70.1107 41.6863 70.0386 41.6863C69.7502 41.7586 69.534 41.9029 69.2458 41.9752C68.8853 42.1195 68.453 42.2641 68.0927 42.4807C68.0206 42.4807 67.8765 42.553 67.8045 42.625C67.7322 42.625 67.7322 42.6973 67.6604 42.6973C67.3721 42.8419 67.0837 42.9139 66.7957 43.0585C66.219 43.2751 65.6426 43.564 65.0659 43.8527C64.8498 43.997 64.5615 44.0693 64.3454 44.2137C63.6969 44.5026 63.0479 44.8637 62.3994 45.2245C62.2556 45.2968 62.1112 45.369 61.9671 45.4411C61.7509 45.5857 61.5348 45.6577 61.3186 45.8023C61.1025 45.9466 60.8863 46.0189 60.6701 46.1632H60.5981C60.2376 46.3801 59.8773 46.5967 59.5168 46.8131C59.2286 46.9574 59.0124 47.102 58.724 47.3186H58.7962C58.7962 47.3186 58.8683 47.3186 58.8683 47.2463C58.9403 47.2463 58.9403 47.174 59.0124 47.174C59.4447 46.8854 59.8773 46.6685 60.3815 46.3801C61.1743 45.8748 62.0392 45.4413 62.904 45.0081C63.3364 44.7915 63.6969 44.5748 64.1292 44.3585C64.2013 44.2862 64.3454 44.2139 64.4893 44.2139C64.7777 44.0696 65.138 43.925 65.4262 43.7084C65.9308 43.4195 66.5073 43.2031 67.0119 42.9142C67.3724 42.7698 67.8047 42.5532 68.1647 42.4087C68.7414 42.1198 69.3178 41.9034 69.9666 41.6145C70.4712 41.3978 70.9035 41.2535 71.4079 41.0371C71.1917 41.2537 71.0478 41.326 70.8312 41.3978V41.3974ZM58.5076 47.535C58.5397 47.535 58.5397 47.535 58.5076 47.535C58.5397 47.535 58.5397 47.535 58.5076 47.535ZM22.9781 99.7391C22.834 100.172 22.762 100.678 22.6176 101.112C22.4735 101.761 22.3294 102.339 22.1853 102.989C22.0412 103.783 21.8248 104.577 21.6807 105.371C21.5368 106.021 21.4645 106.599 21.3207 107.248C21.3207 107.393 21.2484 107.538 21.2484 107.754C21.1763 108.187 21.1763 108.62 21.1045 108.982C21.1765 108.548 21.2484 108.115 21.3207 107.609C21.3207 107.465 21.3927 107.249 21.3927 107.104C21.3927 106.96 21.4648 106.815 21.4648 106.671C21.5368 106.455 21.537 106.31 21.537 106.094C21.6091 105.516 21.7532 105.01 21.8253 104.505C21.8973 104.144 21.9696 103.711 22.0414 103.35C22.3299 102.05 22.6181 100.822 22.9061 99.595C23.0502 99.595 22.9784 99.6675 22.9784 99.7391H22.9781ZM51.3728 182.198V181.475C51.4451 181.692 51.4451 181.981 51.3728 182.198ZM90.362 199.527C90.5061 199.743 90.6497 199.888 90.7938 200.104C90.938 200.249 91.0105 200.466 91.1546 200.61C90.8661 200.249 90.6495 199.888 90.362 199.527ZM137.566 220.466C137.999 220.755 138.359 220.972 138.719 221.189H138.792C138.432 221.044 138.071 220.755 137.566 220.466ZM104.415 150.644C104.055 152.955 103.766 155.77 103.622 158.803C103.622 158.731 103.622 158.587 103.694 158.514C103.767 156.131 104.055 153.821 104.487 151.582C104.415 151.221 104.415 150.933 104.415 150.644ZM104.632 213.173C105.496 213.751 106.36 214.257 107.153 214.69C106.289 214.257 105.496 213.751 104.632 213.173ZM128.702 122.195C122.288 124.722 116.162 128.694 111.622 134.759C108.018 139.524 105.64 145.301 104.487 151.655C104.775 157.287 106.649 176.421 122.431 190.357C131.44 198.299 141.241 201.188 146.863 202.343C141.674 199.816 136.269 195.989 131.8 190.357C131.8 190.285 131.729 190.285 131.729 190.213C117.603 172.305 118.323 143.135 134.683 128.261C134.972 127.971 135.332 127.683 135.62 127.394C135.836 127.177 136.125 126.961 136.413 126.744C136.485 126.744 136.485 126.672 136.556 126.672C136.845 126.383 137.206 126.167 137.493 125.95C137.71 125.806 137.926 125.661 138.143 125.517C138.358 125.373 138.503 125.228 138.719 125.084C139.44 124.578 140.16 124.145 140.881 123.712C141.097 123.567 141.385 123.423 141.602 123.279C142.106 122.99 142.61 122.701 143.115 122.485C143.331 122.34 143.547 122.268 143.764 122.195C143.98 122.051 144.268 121.979 144.484 121.835C144.772 121.691 145.061 121.618 145.348 121.473C145.565 121.401 145.709 121.329 145.925 121.256C146.214 121.112 146.43 121.041 146.718 120.968C146.935 120.896 147.223 120.824 147.439 120.68C147.655 120.607 147.943 120.535 148.159 120.462C148.952 120.174 149.745 119.957 150.466 119.741C151.259 119.524 151.979 119.307 152.772 119.163C153.132 119.09 153.492 119.018 153.853 118.946C154.213 118.874 154.574 118.801 154.862 118.73C155.51 118.586 156.231 118.513 156.88 118.441H157.024C157.528 118.369 157.961 118.297 158.393 118.297C158.898 118.224 159.331 118.224 159.762 118.152C160.195 118.152 160.628 118.08 160.988 118.08C161.348 118.08 161.708 118.08 162.069 118.007C160.483 117.935 143.836 116.202 128.701 122.195L128.702 122.195ZM150.034 203.715C150.002 203.715 150.002 203.715 150.034 203.715C150.106 203.715 150.178 203.787 150.322 203.859L150.034 203.715ZM151.043 204.148C151.043 204.148 150.971 204.148 150.971 204.076C150.899 204.076 150.827 204.004 150.755 204.004C150.899 204.076 151.115 204.148 151.332 204.22C151.259 204.22 151.187 204.22 151.043 204.148L151.043 204.148ZM152.556 204.726H152.484C152.268 204.654 152.052 204.582 151.763 204.437C151.715 204.437 151.667 204.413 151.619 204.365C151.475 204.293 151.403 204.293 151.259 204.22C151.619 204.365 151.98 204.509 152.34 204.653C152.484 204.726 152.629 204.726 152.845 204.798C152.773 204.798 152.701 204.726 152.556 204.726V204.726ZM167.042 207.614C165.024 207.47 162.791 207.253 160.412 206.82C160.052 206.747 159.763 206.676 159.403 206.603C159.979 206.747 160.484 206.82 160.988 206.892C161.565 206.964 162.069 207.109 162.502 207.181C163.799 207.398 164.952 207.47 165.817 207.614C165.961 207.614 166.177 207.614 166.321 207.687C166.465 207.687 166.61 207.687 166.754 207.758H166.898C166.898 207.687 167.041 207.687 167.041 207.614C167.041 207.647 167.041 207.647 167.041 207.614H167.042V207.614ZM216.913 177.504C216.913 177.504 216.913 177.577 216.841 177.577C216.913 177.504 216.913 177.432 216.985 177.36C216.985 177.432 216.913 177.432 216.913 177.504H216.913ZM220.877 169.706C220.877 169.706 220.877 169.778 220.877 169.706V169.706ZM230.246 115.696C230.246 115.48 230.173 115.191 230.173 114.902C230.173 114.758 230.173 114.614 230.102 114.469C230.173 114.902 230.173 115.408 230.246 115.841C230.318 115.841 230.246 115.769 230.246 115.696H230.246ZM227.795 102.266C228.155 107.971 228.228 114.397 227.795 121.329C227.363 128.332 226.354 135.842 224.552 143.712C223.328 148.911 221.958 153.749 220.373 158.154C221.093 153.171 221.381 146.673 220.229 139.308C219.796 136.564 219.219 134.037 218.499 131.726C218.211 138.586 216.553 153.027 206.68 166.818C189.095 191.44 159.907 193.967 153.277 194.328H152.34C152.556 194.545 152.7 194.761 152.916 194.978C153.061 195.122 153.205 195.339 153.421 195.555C153.637 195.772 153.781 195.989 153.998 196.205C154.286 196.494 154.574 196.855 154.862 197.144C155.583 197.939 156.376 198.733 157.169 199.527C157.457 199.816 157.745 200.104 158.033 200.321C158.322 200.61 158.61 200.827 158.898 201.115C159.187 201.404 159.547 201.693 159.835 201.982C159.979 202.126 160.124 202.271 160.34 202.415C161.06 203.065 161.781 203.642 162.43 204.148C162.574 204.292 162.718 204.365 162.862 204.436L162.934 204.509C163.078 204.653 163.295 204.798 163.439 204.942C164.88 206.026 166.106 206.964 167.114 207.614H167.258C167.618 207.83 167.979 208.047 168.267 208.264C168.484 208.408 168.7 208.553 168.916 208.624C168.988 208.697 169.06 208.769 169.204 208.769C169.348 208.841 169.493 208.913 169.637 209.058C169.781 209.13 169.853 209.202 169.997 209.274C170.069 209.347 170.141 209.347 170.213 209.418C170.285 209.418 170.285 209.491 170.357 209.491C170.501 209.563 170.645 209.636 170.789 209.78C170.933 209.852 171.078 209.924 171.222 209.997C171.294 209.997 171.366 210.069 171.366 210.069C171.438 210.069 171.51 210.141 171.583 210.141C171.87 210.285 172.159 210.429 172.447 210.647C172.735 210.791 173.096 210.935 173.384 211.152C173.6 211.296 173.888 211.368 174.105 211.513L174.681 211.802C174.898 211.874 175.113 212.019 175.258 212.091C175.618 212.235 175.906 212.38 176.266 212.524C176.555 212.668 176.843 212.813 177.203 212.957C177.347 213.029 177.492 213.102 177.636 213.102C177.78 213.173 177.996 213.246 178.14 213.318C178.213 213.318 178.284 213.39 178.284 213.39C178.357 213.39 178.357 213.463 178.428 213.463C178.5 213.463 178.573 213.534 178.644 213.534C178.717 213.534 178.789 213.607 178.861 213.607C178.933 213.607 178.933 213.679 179.005 213.679C179.221 213.751 179.437 213.824 179.725 213.968C179.798 213.968 179.798 214.04 179.87 214.04C180.158 214.113 180.446 214.257 180.662 214.33H180.735C180.879 214.401 181.023 214.401 181.095 214.474C181.311 214.33 181.527 214.185 181.816 214.04C186.067 211.296 190.103 208.264 193.923 204.943C212.3 188.985 225.057 166.818 229.02 141.618C229.885 136.275 230.317 130.715 230.317 125.083C230.245 117.285 229.453 109.632 227.795 102.266H227.795ZM225.633 111.942C225.922 113.097 226.282 114.253 226.498 115.336C226.282 114.252 225.994 113.097 225.633 111.942ZM222.03 101.833C221.598 100.822 221.093 99.8116 220.661 98.8008C221.093 99.8116 221.525 100.822 222.03 101.833C222.174 102.195 222.391 102.627 222.535 102.989C222.318 102.627 222.174 102.195 222.03 101.833ZM217.634 93.313C218.283 94.4686 219.003 95.6961 219.652 96.9235C219.003 95.6236 218.283 94.4686 217.634 93.313ZM212.445 85.5152C212.95 86.1651 213.454 86.8867 213.958 87.6809C213.526 86.8867 212.95 86.1651 212.445 85.5152ZM207.617 80.0274C208.193 80.5327 208.77 81.1105 209.418 81.7606C208.914 81.1105 208.265 80.6052 207.617 80.0274ZM203.076 75.984V76.4892C204.085 77.2114 205.238 78.0056 206.319 78.9443C206.752 79.3053 207.184 79.6665 207.617 80.0272C205.599 78.1499 204.013 76.7779 203.076 75.9837V75.984ZM201.995 81.1103C200.337 78.9443 198.609 77.0668 196.878 75.4782C196.086 74.7561 195.293 74.0341 194.5 73.3845C193.996 72.9511 193.419 72.5178 192.915 72.1571C190.825 70.5685 188.807 69.341 187.006 68.4023C186.573 68.1857 186.212 67.969 185.78 67.7526C185.564 67.6804 185.348 67.536 185.132 67.4637H184.988C186.14 68.4023 187.293 69.4854 188.447 70.5687C188.807 70.9294 189.167 71.2908 189.528 71.6518C190.176 72.3014 190.752 72.8792 191.329 73.5289C191.545 73.7455 191.762 74.0344 191.978 74.251C192.266 74.5399 192.483 74.8288 192.77 75.1175C192.987 75.3341 193.203 75.623 193.347 75.8396C193.851 76.4893 194.428 77.1393 194.932 77.7892C195.149 78.0781 195.365 78.2947 195.509 78.5834C195.798 78.9446 196.014 79.3055 196.302 79.6665C197.166 80.8216 197.887 81.977 198.68 83.1319C200.842 86.5258 202.644 90.1365 204.085 93.8911C204.734 95.5517 205.31 97.2117 205.815 98.8733C205.887 99.0174 205.887 99.0892 205.887 99.2343C206.175 100.245 206.463 101.328 206.751 102.411C206.824 102.556 206.824 102.7 206.896 102.844C207.761 106.671 208.337 110.643 208.554 114.686C208.625 115.697 208.625 116.636 208.625 117.646C208.625 119.596 208.554 121.545 208.337 123.423C207.905 127.971 207.04 132.449 205.743 136.708C205.022 134.903 204.157 133.098 203.292 131.366C202.499 129.849 201.707 128.405 200.77 126.961C199.689 125.156 198.536 123.495 197.239 121.834C197.166 121.762 197.166 121.69 197.095 121.618C196.734 121.112 196.302 120.607 195.869 120.101C195.581 119.813 195.365 119.451 195.077 119.163C194.788 118.874 194.572 118.513 194.284 118.224C194.284 118.297 194.356 118.369 194.356 118.441C194.572 119.09 194.716 119.741 194.86 120.39C195.149 121.545 195.365 122.773 195.581 123.929C195.581 124 195.654 124.145 195.654 124.29C195.726 124.795 195.798 125.3 195.87 125.806C195.941 126.6 196.014 127.395 196.014 128.189C197.095 129.633 198.175 131.222 199.185 132.882C202.932 139.092 204.95 144.941 206.031 149.417C210.355 138.226 211.509 128.694 211.796 122.34C212.229 112.375 213.022 95.4797 201.995 81.1108V81.1103H201.995ZM196.014 132.81C196.014 133.82 196.014 134.903 195.941 136.059C195.941 135.915 195.941 135.77 196.014 135.625C196.086 134.398 196.158 132.81 196.014 132.81ZM195.15 141.835V141.907C195.221 141.691 195.221 141.402 195.293 141.185C195.293 141.113 195.365 140.968 195.365 140.897C195.437 140.607 195.51 140.247 195.51 139.958C195.726 138.658 195.87 137.43 195.941 136.203C195.726 138.153 195.51 139.958 195.15 141.835ZM180.519 161.908C180.519 161.908 180.591 161.908 180.591 161.836C180.663 161.691 180.663 161.619 180.736 161.475C180.736 161.619 180.663 161.763 180.519 161.907V161.908ZM170.718 117.43C170.645 117.502 170.645 117.646 170.501 117.935C170.358 118.152 170.141 118.441 169.925 118.73C169.853 118.802 169.781 118.802 169.781 118.874L169.709 118.946L169.637 119.018C169.493 119.163 169.348 119.235 169.204 119.307C169.132 119.307 169.133 119.38 169.06 119.38H168.988C168.988 119.38 168.917 119.38 168.917 119.452C168.844 119.452 168.772 119.524 168.772 119.524C167.547 120.029 166.466 119.741 166.033 119.597C165.962 119.597 165.889 119.524 165.889 119.524C165.962 119.597 166.106 119.668 166.249 119.813C166.394 119.957 166.61 120.102 166.754 120.318C166.826 120.391 166.899 120.463 166.97 120.535C167.018 120.583 167.066 120.632 167.115 120.68C167.186 120.752 167.259 120.824 167.33 120.968C167.475 121.257 167.691 121.546 167.835 121.835C167.98 122.052 168.196 122.268 168.411 122.485C168.628 122.773 168.844 123.135 168.988 123.496C170.069 125.734 169.708 127.9 169.565 128.549C170.069 127.828 170.574 126.961 170.934 125.95C172.087 122.34 171.15 118.947 170.718 117.43V117.43ZM154.574 104.722C154.574 104.65 154.503 104.577 154.43 104.506C154.286 104.361 154.214 104.217 154.07 104.072C153.998 104 153.926 103.928 153.854 103.855L153.782 103.783C153.734 103.735 153.686 103.711 153.638 103.711L153.566 103.639L153.493 103.566C153.422 103.566 153.422 103.494 153.349 103.494C153.277 103.422 153.206 103.422 153.206 103.35C153.133 103.277 153.062 103.277 152.989 103.206H152.917C152.773 103.133 152.629 103.061 152.485 102.989H152.412C152.341 102.917 152.268 102.917 152.124 102.844C152.124 102.844 152.052 102.844 151.98 102.772H151.908C151.836 102.772 151.764 102.7 151.764 102.7C151.692 102.7 151.62 102.627 151.548 102.627H151.475C151.404 102.627 151.259 102.555 151.188 102.555H151.044C150.995 102.555 150.947 102.531 150.899 102.483H150.755C149.53 102.339 148.377 102.483 147.584 103.205H147.512V103.277L147.44 103.35C147.152 103.639 146.863 103.999 146.719 104.433C146.719 104.505 146.647 104.505 146.647 104.577V105.01C146.719 105.154 146.863 105.299 147.007 105.371C147.08 105.371 147.08 105.443 147.151 105.443C147.2 105.443 147.248 105.468 147.296 105.516C147.44 105.588 147.584 105.588 147.728 105.66C147.8 105.66 147.944 105.66 148.016 105.733H148.232C148.377 105.733 148.521 105.804 148.665 105.804H148.737C148.953 105.804 149.097 105.877 149.314 105.877H149.89C150.034 105.877 150.178 105.949 150.322 105.949C150.466 105.949 150.611 105.949 150.755 106.021C151.043 106.094 151.403 106.165 151.692 106.238C151.908 106.31 152.196 106.382 152.412 106.455C152.461 106.455 152.508 106.479 152.556 106.527C153.061 106.744 153.71 107.105 154.07 107.393C154.214 107.465 154.286 107.538 154.358 107.609C154.406 107.658 154.454 107.706 154.502 107.754C154.574 107.754 154.574 107.826 154.646 107.898L154.718 107.971L154.791 108.043L154.934 108.188C155.078 108.332 155.151 108.404 155.223 108.476C155.295 108.549 155.295 108.62 155.367 108.693C155.583 107.321 155.367 105.949 154.574 104.721H154.574V104.722ZM70.8312 41.3974C70.6151 41.4697 70.4712 41.5419 70.2548 41.614C70.1825 41.614 70.1107 41.6863 70.0386 41.6863C69.7502 41.7586 69.534 41.9029 69.2458 41.9752C68.8853 42.1195 68.453 42.2641 68.0927 42.4807C68.0206 42.4807 67.8765 42.553 67.8045 42.625C67.7322 42.625 67.7322 42.6973 67.6604 42.6973C67.3721 42.8419 67.0837 42.9139 66.7957 43.0585C66.219 43.2751 65.6426 43.564 65.0659 43.8527C64.8498 43.997 64.5615 44.0693 64.3454 44.2137C63.6969 44.5026 63.0479 44.8637 62.3994 45.2245C62.2556 45.2968 62.1112 45.369 61.9671 45.4411C61.7509 45.5857 61.5348 45.6577 61.3186 45.8023C61.1025 45.9466 60.8863 46.0189 60.6701 46.1632H60.5981C60.2376 46.3801 59.8773 46.5967 59.5168 46.8131C59.2286 46.9574 59.0124 47.102 58.724 47.3186H58.7962C58.7962 47.3186 58.8683 47.3186 58.8683 47.2463C58.9403 47.2463 58.9403 47.174 59.0124 47.174C59.4447 46.8854 59.8773 46.6685 60.3815 46.3801C61.1743 45.8748 62.0392 45.4413 62.904 45.0081C63.3364 44.7915 63.6969 44.5748 64.1292 44.3585C64.2013 44.2862 64.3454 44.2139 64.4893 44.2139C64.7777 44.0696 65.138 43.925 65.4262 43.7084C65.9308 43.4195 66.5073 43.2031 67.0119 42.9142C67.3724 42.7698 67.8047 42.5532 68.1647 42.4087C68.7414 42.1198 69.3178 41.9034 69.9666 41.6145C70.4712 41.3978 70.9035 41.2535 71.4079 41.0371C71.1917 41.2537 71.0478 41.326 70.8312 41.3978V41.3974ZM58.5076 47.535C58.5397 47.535 58.5397 47.535 58.5076 47.535C58.5397 47.535 58.5397 47.535 58.5076 47.535ZM70.8312 41.3974C70.6151 41.4697 70.4712 41.5419 70.2548 41.614C70.1825 41.614 70.1107 41.6863 70.0386 41.6863C69.7502 41.7586 69.534 41.9029 69.2458 41.9752C68.8853 42.1195 68.453 42.2641 68.0927 42.4807C68.0206 42.4807 67.8765 42.553 67.8045 42.625C67.7322 42.625 67.7322 42.6973 67.6604 42.6973C67.3721 42.8419 67.0837 42.9139 66.7957 43.0585C66.219 43.2751 65.6426 43.564 65.0659 43.8527C64.8498 43.997 64.5615 44.0693 64.3454 44.2137C63.6969 44.5026 63.0479 44.8637 62.3994 45.2245C62.2556 45.2968 62.1112 45.369 61.9671 45.4411C61.7509 45.5857 61.5348 45.6577 61.3186 45.8023C61.1025 45.9466 60.8863 46.0189 60.6701 46.1632H60.5981C60.2376 46.3801 59.8773 46.5967 59.5168 46.8131C59.2286 46.9574 59.0124 47.102 58.724 47.3186H58.7962C58.7962 47.3186 58.8683 47.3186 58.8683 47.2463C58.9403 47.2463 58.9403 47.174 59.0124 47.174C59.4447 46.8854 59.8773 46.6685 60.3815 46.3801C61.1743 45.8748 62.0392 45.4413 62.904 45.0081C63.3364 44.7915 63.6969 44.5748 64.1292 44.3585C64.2013 44.2862 64.3454 44.2139 64.4893 44.2139C64.7777 44.0696 65.138 43.925 65.4262 43.7084C65.9308 43.4195 66.5073 43.2031 67.0119 42.9142C67.3724 42.7698 67.8047 42.5532 68.1647 42.4087C68.7414 42.1198 69.3178 41.9034 69.9666 41.6145C70.4712 41.3978 70.9035 41.2535 71.4079 41.0371C71.1917 41.2537 71.0478 41.326 70.8312 41.3978V41.3974ZM58.5076 47.535C58.5397 47.535 58.5397 47.535 58.5076 47.535C58.5397 47.535 58.5397 47.535 58.5076 47.535ZM70.8312 41.3974C70.6151 41.4697 70.4712 41.5419 70.2548 41.614C70.1825 41.614 70.1107 41.6863 70.0386 41.6863C69.7502 41.7586 69.534 41.9029 69.2458 41.9752C68.8853 42.1195 68.453 42.2641 68.0927 42.4807C68.0206 42.4807 67.8765 42.553 67.8045 42.625C67.7322 42.625 67.7322 42.6973 67.6604 42.6973C67.3721 42.8419 67.0837 42.9139 66.7957 43.0585C66.219 43.2751 65.6426 43.564 65.0659 43.8527C64.8498 43.997 64.5615 44.0693 64.3454 44.2137C63.6969 44.5026 63.0479 44.8637 62.3994 45.2245C62.2556 45.2968 62.1112 45.369 61.9671 45.4411C61.7509 45.5857 61.5348 45.6577 61.3186 45.8023C61.1025 45.9466 60.8863 46.0189 60.6701 46.1632H60.5981C60.2376 46.3801 59.8773 46.5967 59.5168 46.8131C59.2286 46.9574 59.0124 47.102 58.724 47.3186H58.7962C58.7962 47.3186 58.8683 47.3186 58.8683 47.2463C58.9403 47.2463 58.9403 47.174 59.0124 47.174C59.4447 46.8854 59.8773 46.6685 60.3815 46.3801C61.1743 45.8748 62.0392 45.4413 62.904 45.0081C63.3364 44.7915 63.6969 44.5748 64.1292 44.3585C64.2013 44.2862 64.3454 44.2139 64.4893 44.2139C64.7777 44.0696 65.138 43.925 65.4262 43.7084C65.9308 43.4195 66.5073 43.2031 67.0119 42.9142C67.3724 42.7698 67.8047 42.5532 68.1647 42.4087C68.7414 42.1198 69.3178 41.9034 69.9666 41.6145C70.4712 41.3978 70.9035 41.2535 71.4079 41.0371C71.1917 41.2537 71.0478 41.326 70.8312 41.3978V41.3974ZM58.5076 47.535C58.5397 47.535 58.5397 47.535 58.5076 47.535C58.5397 47.535 58.5397 47.535 58.5076 47.535ZM70.8312 41.3974C70.6151 41.4697 70.4712 41.5419 70.2548 41.614C70.1825 41.614 70.1107 41.6863 70.0386 41.6863C69.7502 41.7586 69.534 41.9029 69.2458 41.9752C68.8853 42.1195 68.453 42.2641 68.0927 42.4807C68.0206 42.4807 67.8765 42.553 67.8045 42.625C67.7322 42.625 67.7322 42.6973 67.6604 42.6973C67.3721 42.8419 67.0837 42.9139 66.7957 43.0585C66.219 43.2751 65.6426 43.564 65.0659 43.8527C64.8498 43.997 64.5615 44.0693 64.3454 44.2137C63.6969 44.5026 63.0479 44.8637 62.3994 45.2245C62.2556 45.2968 62.1112 45.369 61.9671 45.4411C61.7509 45.5857 61.5348 45.6577 61.3186 45.8023C61.1025 45.9466 60.8863 46.0189 60.6701 46.1632H60.5981C60.2376 46.3801 59.8773 46.5967 59.5168 46.8131C59.2286 46.9574 59.0124 47.102 58.724 47.3186H58.7962C58.7962 47.3186 58.8683 47.3186 58.8683 47.2463C58.9403 47.2463 58.9403 47.174 59.0124 47.174C59.4447 46.8854 59.8773 46.6685 60.3815 46.3801C61.1743 45.8748 62.0392 45.4413 62.904 45.0081C63.3364 44.7915 63.6969 44.5748 64.1292 44.3585C64.2013 44.2862 64.3454 44.2139 64.4893 44.2139C64.7777 44.0696 65.138 43.925 65.4262 43.7084C65.9308 43.4195 66.5073 43.2031 67.0119 42.9142C67.3724 42.7698 67.8047 42.5532 68.1647 42.4087C68.7414 42.1198 69.3178 41.9034 69.9666 41.6145C70.4712 41.3978 70.9035 41.2535 71.4079 41.0371C71.1917 41.2537 71.0478 41.326 70.8312 41.3978V41.3974ZM58.5076 47.535C58.5397 47.535 58.5397 47.535 58.5076 47.535C58.5397 47.535 58.5397 47.535 58.5076 47.535ZM70.8312 41.3974C70.6151 41.4697 70.4712 41.5419 70.2548 41.614C70.1825 41.614 70.1107 41.6863 70.0386 41.6863C69.7502 41.7586 69.534 41.9029 69.2458 41.9752C68.8853 42.1195 68.453 42.2641 68.0927 42.4807C68.0206 42.4807 67.8765 42.553 67.8045 42.625C67.7322 42.625 67.7322 42.6973 67.6604 42.6973C67.3721 42.8419 67.0837 42.9139 66.7957 43.0585C66.219 43.2751 65.6426 43.564 65.0659 43.8527C64.8498 43.997 64.5615 44.0693 64.3454 44.2137C63.6969 44.5026 63.0479 44.8637 62.3994 45.2245C62.2556 45.2968 62.1112 45.369 61.9671 45.4411C61.7509 45.5857 61.5348 45.6577 61.3186 45.8023C61.1025 45.9466 60.8863 46.0189 60.6701 46.1632H60.5981C60.2376 46.3801 59.8773 46.5967 59.5168 46.8131C59.2286 46.9574 59.0124 47.102 58.724 47.3186H58.7962C58.7962 47.3186 58.8683 47.3186 58.8683 47.2463C58.9403 47.2463 58.9403 47.174 59.0124 47.174C59.4447 46.8854 59.8773 46.6685 60.3815 46.3801C61.1743 45.8748 62.0392 45.4413 62.904 45.0081C63.3364 44.7915 63.6969 44.5748 64.1292 44.3585C64.2013 44.2862 64.3454 44.2139 64.4893 44.2139C64.7777 44.0696 65.138 43.925 65.4262 43.7084C65.9308 43.4195 66.5073 43.2031 67.0119 42.9142C67.3724 42.7698 67.8047 42.5532 68.1647 42.4087C68.7414 42.1198 69.3178 41.9034 69.9666 41.6145C70.4712 41.3978 70.9035 41.2535 71.4079 41.0371C71.1917 41.2537 71.0478 41.326 70.8312 41.3978V41.3974ZM58.5076 47.535C58.5397 47.535 58.5397 47.535 58.5076 47.535C58.5397 47.535 58.5397 47.535 58.5076 47.535ZM70.8312 41.3974C70.6151 41.4697 70.4712 41.5419 70.2548 41.614C70.1825 41.614 70.1107 41.6863 70.0386 41.6863C69.7502 41.7586 69.534 41.9029 69.2458 41.9752C68.8853 42.1195 68.453 42.2641 68.0927 42.4807C68.0206 42.4807 67.8765 42.553 67.8045 42.625C67.7322 42.625 67.7322 42.6973 67.6604 42.6973C67.3721 42.8419 67.0837 42.9139 66.7957 43.0585C66.219 43.2751 65.6426 43.564 65.0659 43.8527C64.8498 43.997 64.5615 44.0693 64.3454 44.2137C63.6969 44.5026 63.0479 44.8637 62.3994 45.2245C62.2556 45.2968 62.1112 45.369 61.9671 45.4411C61.7509 45.5857 61.5348 45.6577 61.3186 45.8023C61.1025 45.9466 60.8863 46.0189 60.6701 46.1632H60.5981C60.2376 46.3801 59.8773 46.5967 59.5168 46.8131C59.2286 46.9574 59.0124 47.102 58.724 47.3186H58.7962C58.7962 47.3186 58.8683 47.3186 58.8683 47.2463C58.9403 47.2463 58.9403 47.174 59.0124 47.174C59.4447 46.8854 59.8773 46.6685 60.3815 46.3801C61.1743 45.8748 62.0392 45.4413 62.904 45.0081C63.3364 44.7915 63.6969 44.5748 64.1292 44.3585C64.2013 44.2862 64.3454 44.2139 64.4893 44.2139C64.7777 44.0696 65.138 43.925 65.4262 43.7084C65.9308 43.4195 66.5073 43.2031 67.0119 42.9142C67.3724 42.7698 67.8047 42.5532 68.1647 42.4087C68.7414 42.1198 69.3178 41.9034 69.9666 41.6145C70.4712 41.3978 70.9035 41.2535 71.4079 41.0371C71.1917 41.2537 71.0478 41.326 70.8312 41.3978V41.3974ZM58.5076 47.535C58.5397 47.535 58.5397 47.535 58.5076 47.535C58.5397 47.535 58.5397 47.535 58.5076 47.535Z" fill="#262551"/>
<path d="M170.737 126.067C170.376 127.079 169.872 127.944 169.368 128.667C169.798 127.827 169.489 123.35 167.639 121.952C167.495 121.591 167.35 121.302 167.134 121.085C167.062 121.013 166.99 120.941 166.918 120.797C166.846 120.724 166.846 120.652 166.774 120.652C166.453 120.3 166.039 119.881 165.693 119.641C166.2 119.902 167.498 120.165 168.72 119.569C168.768 119.569 168.792 119.545 168.792 119.497C169.056 119.464 169.297 119.222 169.512 119.063C169.512 119.063 169.584 119.063 169.584 118.991C170.018 118.561 170.415 118 170.521 117.547C171.17 118.919 172.106 122.314 170.737 126.067Z" fill="white"/>
<path d="M167.204 127.099C167.204 126.594 167.348 124.284 165.691 122.478C165.619 122.406 165.475 122.262 165.403 122.189C165.331 122.117 165.259 122.045 165.115 121.973C165.042 121.901 164.971 121.828 164.826 121.757C164.754 121.684 164.682 121.612 164.61 121.612C164.538 121.54 164.466 121.468 164.394 121.468C164.322 121.395 164.25 121.395 164.178 121.323C164.034 121.251 163.889 121.178 163.745 121.107C163.673 121.107 163.601 121.034 163.529 121.034C163.529 120.962 163.529 120.818 163.601 120.746C163.601 120.673 163.674 120.601 163.674 120.529V120.457C163.745 120.384 163.745 120.313 163.817 120.24C163.89 120.168 163.961 120.095 163.961 120.024L164.105 119.88L164.178 119.807C164.25 119.735 164.322 119.735 164.322 119.663C164.37 119.615 164.418 119.59 164.465 119.59C165.042 119.374 165.475 119.59 165.619 119.59C165.691 119.663 165.835 119.735 165.979 119.88C166.123 120.024 166.34 120.168 166.483 120.385C166.556 120.457 166.627 120.53 166.7 120.601C166.748 120.65 166.796 120.698 166.844 120.746C166.916 120.818 166.988 120.89 167.06 121.035C167.204 121.324 167.42 121.612 167.564 121.901C167.637 122.045 167.708 122.262 167.781 122.479C168.573 124.861 167.42 126.81 167.204 127.1H167.204V127.099Z" fill="#D0CFF9"/>
<path d="M155.256 108.621C155.184 108.549 155.184 108.477 155.111 108.405C155.04 108.333 154.967 108.188 154.824 108.116C154.824 108.044 154.751 108.044 154.68 107.971L154.607 107.899L154.535 107.827C154.487 107.779 154.439 107.731 154.391 107.683L154.247 107.539C154.175 107.466 154.031 107.394 153.959 107.322C153.526 107.033 152.95 106.672 152.446 106.456C152.373 106.456 152.373 106.383 152.301 106.383C152.085 106.311 151.869 106.239 151.581 106.167C151.292 106.095 151.004 106.022 150.644 105.95C150.5 105.95 150.355 105.878 150.211 105.878C150.067 105.878 149.924 105.878 149.779 105.806H149.203C148.986 105.806 148.77 105.733 148.626 105.733H148.554C148.41 105.733 148.266 105.733 148.122 105.661C147.906 105.661 147.762 105.589 147.545 105.589C147.401 105.516 147.257 105.516 147.113 105.445C147.065 105.445 147.017 105.421 146.969 105.372C146.897 105.372 146.897 105.3 146.824 105.3C146.608 105.228 146.536 105.084 146.464 104.939C146.392 104.795 146.392 104.65 146.464 104.506C146.464 104.457 146.488 104.409 146.537 104.361C146.681 104 146.969 103.567 147.257 103.278L147.329 103.206V103.134H147.401C148.194 102.412 149.419 102.267 150.572 102.412H150.716C150.788 102.412 150.86 102.412 150.86 102.484H151.004C151.148 102.484 151.221 102.557 151.293 102.557H151.365C151.437 102.557 151.508 102.628 151.581 102.628C151.653 102.628 151.725 102.701 151.725 102.701H151.797C151.845 102.701 151.893 102.725 151.941 102.773C152.013 102.845 152.085 102.845 152.229 102.917H152.301C152.446 102.99 152.59 103.062 152.734 103.134H152.806C152.878 103.206 152.95 103.206 153.022 103.278C153.095 103.278 153.166 103.351 153.166 103.422C153.239 103.422 153.239 103.495 153.31 103.495L153.383 103.567C153.383 103.567 153.455 103.567 153.455 103.639C153.527 103.639 153.527 103.712 153.599 103.712L153.671 103.784L153.887 104.001C154.031 104.145 154.175 104.289 154.247 104.433C154.319 104.506 154.391 104.578 154.391 104.65C155.328 105.95 155.544 107.322 155.256 108.621V108.621Z" fill="white"/>
<path d="M227.77 102.258C223.549 83.1636 213.948 65.3379 200.096 51.1367C202.661 58.8693 203.6 69.5366 203.194 75.9757C201.194 74.3509 199.358 73.4683 197.213 72.2208C197.213 72.2208 197.141 72.2208 197.141 72.1486C193.316 70.2601 189.349 68.5242 185.25 67.455C205.157 83.7512 213.674 112.157 205.861 136.699C203.125 129.935 199.226 123.671 194.402 118.215C201.451 141.461 187.726 164.366 170.187 179.084C171.247 177.821 172.215 176.574 173.142 175.185V175.113C176.57 170.215 179.419 164.67 181.646 159.155C174.374 168.312 164.223 175.982 153.324 180.601C157.154 177.357 160.513 172.975 162.765 168.325C159.686 170.995 153.539 173.244 149.792 173.379C123.259 157.538 133.796 122.49 162.261 117.636C99.0578 107.303 107.304 185.625 150.225 203.2C150.547 203.395 150.963 203.504 151.235 203.705C156.134 205.543 162.07 206.982 167.233 207.172C165.266 205.902 166.66 206.673 167.306 207.1H167.378C171.726 209.869 176.36 212.24 181.215 213.96C217.767 191.54 238.037 144.853 227.771 102.259H227.77L227.77 102.258Z" fill="white"/>
<path d="M104.351 151.635C108.145 121.536 144.876 115.493 161.861 118.132C154.822 110.296 143.774 108.025 134.404 110.767C134.839 110.238 135.162 109.456 135.773 108.961C137.421 106.622 140.927 104.696 142.403 104.34C134.887 101.246 126.112 101.267 118.621 104.412C118.979 103.574 119.355 102.752 119.846 101.957C124.221 94.4043 133.619 90.292 142.114 91.9208C142.28 91.9849 142.466 91.9561 142.619 92.0658C142.795 92.0822 142.939 92.1627 143.123 92.1377C142.979 92.1377 142.835 92.1377 142.763 92.2102C141.323 92.4007 139.817 92.5945 138.511 93.3662C136.896 93.9218 135.602 95.271 134.403 96.4705C149.726 94.0252 154.854 96.5969 160.276 105.784C162.068 108.822 163.069 112.555 165.392 115.172C165.465 115.245 165.536 115.245 165.536 115.317C166.83 116.541 168.936 116.112 170.221 115.101C170.466 114.918 170.749 114.629 170.941 114.451C171.05 114.319 171.274 114.179 171.301 114.018C174.4 110.263 173.391 102.97 168.419 95.9661C167.993 97.59 166.833 100.271 165.536 101.742C156.873 90.9523 148.478 85.0883 135.555 80.9473C128.13 77.8976 121.867 71.9084 118.043 64.918C117.322 72.2807 118.862 80.5382 122.367 87.2295C116.892 88.0094 109.805 90.9425 105.071 94.3784C107.944 93.2292 111.33 92.7082 114.439 92.9334C101.938 98.3337 88.6014 111.359 83.378 122.755C82.9764 118.792 82.9928 114.572 83.5215 110.624C82.9914 111.148 82.4593 111.676 82.0083 112.213C81.9362 112.213 81.9362 112.284 81.9362 112.284C81.864 112.357 81.7919 112.357 81.7919 112.429C74.0077 120.302 67.5285 129.719 62.5503 139.578C61.5356 141.562 60.4959 143.511 59.6677 145.571C51.7673 162.09 48.6355 182.647 51.6677 200.52C88.4785 238.323 154.979 240.494 194.146 204.852C181.059 208.373 159.387 201.023 152.563 194.165C155.545 197.653 158.861 200.951 162.437 203.841C162.53 203.87 162.632 203.956 162.725 203.985C163.5 204.622 164.442 205.183 165.247 205.863C165.319 205.863 165.319 205.935 165.319 205.935C165.391 205.935 165.391 206.007 165.464 206.007C166.105 206.442 166.692 206.954 167.338 207.379H167.265C167.265 207.379 167.338 207.379 167.338 207.451C161.823 206.987 155.797 205.718 150.618 203.552C149.415 203.086 148.258 202.517 147.087 201.964C120.857 198.408 103.356 168.647 104.351 151.635ZM138.655 221.241C138.295 221.025 137.935 220.736 137.502 220.519C138.007 220.736 138.367 221.025 138.655 221.241C138.688 221.241 138.688 221.241 138.655 221.241Z" fill="#FF9E00"/>
<path d="M171.407 113.835C171.276 114.031 171.078 114.283 170.902 114.412C170.624 114.664 170.413 114.899 170.11 115.062C168.827 116.022 166.644 116.42 165.498 115.062C165.426 114.99 165.354 114.99 165.354 114.918C163.123 112.276 162.133 108.675 160.381 105.675C154.938 96.4956 149.907 93.9126 134.509 96.3599C135.719 95.0914 137.102 93.846 138.689 93.1832C140.053 92.4453 141.754 92.2519 143.229 92.0271C121.45 79.0284 87.2163 109.247 86.3676 135.929C84.7821 131.668 83.7734 127.191 83.3408 122.57C88.5676 111.167 101.897 98.1631 114.402 92.7497C111.301 92.5254 107.896 93.0438 105.033 94.194C109.787 90.7447 116.85 87.8325 122.33 87.0455C119.617 81.8787 117.838 74.851 117.862 69.2109C119.21 81.538 135.819 86.8142 144.311 88.4889C149.715 90.0062 157.283 93.4 165.499 101.487C166.749 100.022 167.977 97.323 168.381 95.7099C173.498 102.786 174.508 110.08 171.407 113.835H171.407Z" fill="#FF6D24"/>
<path d="M165.579 101.557C150.199 86.1975 143.079 91.1559 126.662 81.9181C121.129 78.7181 116.778 71.4662 118.086 64.8047C121.945 71.879 128.268 77.7757 135.671 80.9057C148.248 84.6652 157.242 91.262 165.579 101.556V101.557H165.579Z" fill="#FDEAA7"/>
<path opacity="0.67" d="M179.673 205.503C166.381 203.946 158.046 198.683 152.359 194.311C154.935 197.46 157.872 200.356 160.935 203.047C160.935 203.047 161.007 203.047 161.007 203.119C161.398 203.379 161.714 203.71 162.089 203.986C162.232 203.972 162.321 204.094 162.449 204.131C163.223 204.767 164.166 205.329 164.971 206.008C165.043 206.008 165.043 206.08 165.115 206.08C165.187 206.08 165.187 206.152 165.187 206.152C165.828 206.587 166.415 207.098 167.061 207.524H166.989C166.989 207.524 167.061 207.524 167.061 207.597C161.547 207.131 155.519 205.863 150.341 203.697C149.14 203.232 147.954 202.66 146.81 202.109C120.914 198.703 103.432 169.082 104.434 151.421C103.932 153.738 103.866 156.213 103.569 158.642C99.7009 173.391 107.38 201.99 115.965 211.496C100.634 206.353 84.0074 184.134 82.525 170.194C79.3566 174.686 76.0516 186.245 76.4715 192.433C68.7116 182.762 59.562 157.984 59.391 145.283C59.391 145.356 59.319 145.428 59.319 145.5C51.5307 162.052 48.3485 182.581 51.3914 200.448C88.1971 238.249 154.675 240.415 193.798 204.78C190.122 205.647 185.222 206.08 179.673 205.503H179.673ZM104.002 169.327V169.689C104.073 169.544 104.073 169.4 104.002 169.327Z" fill="#FF5F27"/>
<path d="M95.4772 34.1026C85.2429 41.7566 78.0365 49.9158 73.2077 56.1976C79.8111 55.3338 84.0032 54.7087 89.1345 55.0422C68.2077 69.5889 53.3028 96.6144 61.6769 125.37C49.5521 143.326 41.6952 164.514 39.7681 187.322C-10.4128 119.062 37.3512 20.5518 123.295 19.0841C123.295 18.9395 105.711 26.5209 95.4772 34.1026Z" fill="white"/>
<path d="M92.3063 30.4941C84.8074 34.6642 75.9012 46.7376 73.2804 56.2716C77.8883 55.3892 84.4344 54.7998 89.2077 55.0442C78.6532 62.709 66.7839 75.0468 61.8939 91.7244C59.6507 94.4177 54.6725 105.596 54.2543 110.57C51.6953 99.9316 53.2119 87.5843 58.2182 78.0051C43.3922 92.9719 37.3823 118.514 40.778 135.48C33.7952 128.879 32.9172 115.486 34.0755 110.569C28.415 120.136 28.0145 140.884 31.9857 149.272C28.9723 146.347 26.6182 143.113 24.4188 139.525C24.4188 139.452 24.3465 139.452 24.3465 139.38C24.2647 139.32 24.2401 139.221 24.2024 139.235C22.1219 135.373 20.3089 129.899 19.3018 126.022V123.783C19.3488 103.71 25.381 83.5615 36.3097 67.1023C36.2374 67.2469 36.0935 67.3912 36.0212 67.5358C38.4961 64.2763 40.5652 61.4866 43.2285 58.0046C42.2916 59.8098 42.1472 60.243 42.2195 60.3151C59.1615 43.036 82.4198 32.6433 92.3065 30.4948V30.4941H92.3063Z" fill="#D0CFF9"/>
<path d="M66.6737 62.3363C67.106 62.4084 67.6107 62.4084 68.043 62.4807C65.4563 63.9215 62.5529 65.8763 60.1156 67.8239C60.1156 67.8239 60.0435 67.8239 60.0435 67.8961C55.6473 71.3659 51.2787 75.9572 48.1524 80.2432C48.5122 77.3005 50.4955 72.3351 52.4764 69.8455C38.4182 80.2878 26.3328 95.8296 20.1895 111.58C22.2084 95.6561 27.7393 80.4528 36.4045 67.3908C36.3325 67.5352 36.1884 67.6795 36.1163 67.8241C36.5607 67.2038 37.4474 65.9372 37.774 65.6581C39.6261 63.2785 41.2149 60.9595 43.3234 58.2933C42.3867 60.0983 42.2423 60.5318 42.3144 60.6036C46.392 56.4917 50.8791 52.2309 55.7914 49.1953C56.5472 48.7327 57.3589 48.2311 58.0976 47.8233H58.1699L58.2419 47.751C58.314 47.751 58.314 47.6789 58.386 47.6789C61.4914 45.7494 66.2202 43.5934 69.4125 42.1914C61.8199 47.4371 53.6736 55.6573 49.2337 64.1418C54.1764 62.9237 60.0699 62.2138 65.6649 62.6977C65.9534 62.3368 66.3134 62.3368 66.6739 62.3368V62.3363H66.6737Z" fill="#8774E2"/>
<path d="M193.927 205.003C190.108 208.325 186.072 211.357 181.82 214.101C181.604 214.245 181.387 214.389 181.099 214.534C175.261 218.216 169.064 221.321 162.578 223.776C151.479 227.964 139.516 230.419 126.976 230.636H125.39C118.039 230.636 110.832 229.914 103.842 228.542C83.6626 224.426 65.6457 214.534 51.4481 200.671C50.8715 197.204 50.5112 193.089 50.3671 188.468V187.601C50.2948 183.847 50.4391 179.876 50.9437 175.543C51.1599 173.738 51.3761 172.005 51.6643 170.345C51.7364 169.767 51.8805 169.189 51.9527 168.611C52.0966 168.034 52.1689 167.529 52.3128 166.951C52.4569 166.157 52.6012 165.434 52.8174 164.712C53.3218 162.546 53.8985 160.524 54.4749 158.647C54.6911 157.997 54.8354 157.42 55.0516 156.842C55.1236 156.698 55.1236 156.626 55.1954 156.481C55.3395 156.12 55.4116 155.759 55.5559 155.47C55.628 155.326 55.628 155.181 55.7 155.037C55.7721 154.748 55.9162 154.459 55.9883 154.242C56.1324 153.881 56.2044 153.593 56.3488 153.231C56.7093 152.221 57.0695 151.354 57.4298 150.488C57.5739 150.199 57.646 149.838 57.7901 149.549C57.8622 149.405 57.9344 149.26 57.9344 149.116C58.0783 148.827 58.1506 148.538 58.2945 148.322C58.5829 147.672 58.7991 147.094 59.0153 146.589C59.0873 146.372 59.1594 146.155 59.3033 146.011C59.3755 145.938 59.3755 145.794 59.4476 145.722C59.4476 145.65 59.5196 145.577 59.5196 145.506C59.5196 145.65 59.4476 145.867 59.4476 146.011C59.3755 146.517 59.3032 146.95 59.2314 147.455V147.672C59.0873 148.611 59.0153 149.477 58.9432 150.271V150.343C58.727 152.654 58.5109 154.676 58.5109 156.192V159.586C58.5109 160.018 58.5109 160.452 58.5829 160.885C58.5829 161.391 58.655 161.824 58.655 162.185V163.991C58.655 164.207 58.7273 164.352 58.7273 164.496V164.785C58.7993 165.073 58.7993 165.434 58.7993 165.723C58.9434 166.878 59.0875 167.962 59.3037 169.117C59.376 169.478 59.448 169.839 59.5199 170.2C59.5922 170.561 59.664 170.922 59.7363 171.283C59.8083 171.644 59.8801 172.005 59.9524 172.366C60.3848 174.171 60.8171 175.977 61.3937 177.709C61.4658 177.999 61.6099 178.359 61.682 178.648C62.3305 180.67 63.1233 182.692 63.9882 184.641C64.1323 185.002 64.2766 185.291 64.4205 185.652C64.9251 186.807 65.5018 187.89 66.0782 188.974C66.2944 189.479 66.5826 189.912 66.8708 190.345C66.9431 190.49 67.0149 190.634 67.087 190.778C67.7357 191.862 68.3844 192.945 69.105 193.956C69.4655 194.533 69.8978 195.111 70.3301 195.688C70.6906 196.194 71.0509 196.627 71.4114 197.133C71.7715 197.638 72.132 198.071 72.4925 198.504C72.6366 198.648 72.7807 198.865 72.9248 199.01C73.213 199.371 73.5015 199.732 73.7895 200.021C73.8377 200.069 73.8858 200.117 73.9338 200.165C74.2941 200.598 74.6543 200.959 75.0146 201.392C75.0869 201.465 75.159 201.537 75.2308 201.609C75.5192 201.97 75.8793 202.331 76.2398 202.692C76.8883 203.342 77.4649 203.992 78.1857 204.642C78.5458 205.003 78.9063 205.364 79.2668 205.653L79.3388 205.725C79.7712 206.158 80.2758 206.592 80.7802 207.025C81.2848 207.458 81.7892 207.891 82.2215 208.252C82.7984 208.758 83.3744 209.191 84.0228 209.696C84.3838 209.985 84.8164 210.274 85.2482 210.563C85.3207 210.635 85.4649 210.707 85.5367 210.779C85.8967 211.068 86.3293 211.357 86.6896 211.646C86.7621 211.718 86.8337 211.718 86.9062 211.79C87.6272 212.296 88.4198 212.801 89.1401 213.234C89.5002 213.451 89.8611 213.667 90.1489 213.884C90.5098 214.101 90.9424 214.389 91.3743 214.606C91.3743 214.606 91.4468 214.606 91.4468 214.678C90.1491 212.44 88.9244 210.129 87.8433 207.747C87.6992 207.385 87.5549 207.096 87.4108 206.735C87.1223 206.014 86.8341 205.291 86.5457 204.569C86.2579 203.847 86.0413 203.125 85.7538 202.403C85.6096 201.898 85.393 201.392 85.2487 200.959C85.1046 200.453 84.9609 199.948 84.8168 199.442C84.7443 199.226 84.7443 199.082 84.6727 198.865C84.6002 198.576 84.5286 198.287 84.4561 197.927C84.3843 197.566 84.2401 197.132 84.1676 196.771C83.9517 195.977 83.8076 195.255 83.6633 194.46C83.5914 194.099 83.5191 193.666 83.4473 193.305C83.3748 192.872 83.3032 192.439 83.2307 191.934C83.2307 191.789 83.1589 191.573 83.1589 191.428C83.087 190.995 83.0148 190.562 82.9429 190.128C82.8704 189.623 82.7988 189.19 82.7988 188.684V188.54C82.7263 188.035 82.7263 187.529 82.6547 187.024C82.5822 186.158 82.5106 185.218 82.5106 184.279C82.5106 183.991 82.5106 183.702 82.4381 183.486V182.113C82.7265 183.124 83.0873 184.568 83.7358 186.446C83.8792 186.735 83.9517 187.024 84.0958 187.385C84.3843 188.034 84.6002 188.684 84.8884 189.406C84.9609 189.55 85.0325 189.695 85.1044 189.839C85.1769 190.056 85.2485 190.273 85.3928 190.489C85.5369 190.778 85.6812 191.067 85.8254 191.355C85.9695 191.644 86.1138 191.933 86.2579 192.222C86.9064 193.521 87.6274 194.893 88.4918 196.338C88.7078 196.699 88.9244 197.059 89.1403 197.42C89.2122 197.493 89.2844 197.637 89.2844 197.71C89.4286 197.926 89.5729 198.143 89.717 198.359L89.7888 198.431C90.0048 198.793 90.2214 199.081 90.5098 199.442C90.6539 199.659 90.7983 199.804 90.9424 200.02C91.0865 200.164 91.1583 200.381 91.3024 200.525C91.5184 200.814 91.735 201.103 92.0228 201.392C92.0953 201.464 92.0953 201.536 92.1669 201.536C92.311 201.753 92.5276 201.969 92.6713 202.186C92.9597 202.475 93.1763 202.836 93.4648 203.125C93.8966 203.63 94.4017 204.208 94.9061 204.713C95.1945 205.074 95.5546 205.436 95.9149 205.796C96.2751 206.157 96.6359 206.518 96.9959 206.88C97.356 207.241 97.7169 207.601 98.077 207.891C98.437 208.252 98.8696 208.54 99.2298 208.901C99.5906 209.191 100.022 209.551 100.383 209.84C100.431 209.888 100.479 209.912 100.528 209.912C100.888 210.201 101.32 210.562 101.752 210.851C102.113 211.14 102.473 211.429 102.906 211.645C103.194 211.861 103.554 212.078 103.914 212.295C103.987 212.367 104.058 212.367 104.13 212.439C104.419 212.656 104.707 212.8 104.995 213.017C105.86 213.595 106.725 214.1 107.518 214.534C108.383 215.039 109.176 215.472 110.04 215.905C110.329 216.049 110.617 216.194 110.905 216.338C111.194 216.482 111.41 216.627 111.698 216.699C112.202 216.916 112.635 217.133 113.067 217.278C113.428 217.422 113.788 217.566 114.148 217.71C114.509 217.855 114.869 217.999 115.229 218.143H115.301C115.662 218.288 116.022 218.432 116.382 218.505C116.67 218.577 116.887 218.649 117.174 218.793C117.319 218.866 117.463 218.866 117.607 218.938C118.328 219.154 118.977 219.371 119.625 219.516C119.913 219.588 120.202 219.66 120.49 219.732C121.571 220.021 122.652 220.237 123.661 220.454C123.949 220.527 124.309 220.599 124.598 220.599C124.886 220.671 125.246 220.671 125.535 220.743C125.895 220.815 126.183 220.815 126.543 220.887C126.976 220.96 127.409 220.96 127.769 221.031C129.427 221.248 131.012 221.321 132.381 221.321H133.102C134.327 221.321 135.408 221.321 136.417 221.248H137.281C137.426 221.248 137.642 221.248 137.786 221.176C138.219 221.176 138.579 221.104 138.868 221.104H139.083C138.723 220.887 138.291 220.67 137.858 220.382L137.786 220.31C137.642 220.237 137.498 220.165 137.425 220.093C137.281 220.02 137.138 219.948 136.993 219.804C136.128 219.226 135.191 218.649 134.183 217.855C134.038 217.71 133.822 217.566 133.678 217.493C132.453 216.627 131.155 215.616 129.786 214.461C129.642 214.316 129.426 214.171 129.21 214.027C129.066 213.883 128.85 213.739 128.633 213.522C128.489 213.377 128.273 213.233 128.057 213.017C125.102 210.489 122.003 207.312 118.976 203.63C117.319 201.608 115.733 199.442 114.22 196.987C113.932 196.482 113.643 196.048 113.355 195.543C113.066 195.038 112.779 194.604 112.49 194.099C112.202 193.594 111.914 193.088 111.625 192.583C111.409 192.149 111.193 191.716 110.904 191.21C110.688 190.777 110.472 190.344 110.256 189.839C110.112 189.622 110.04 189.333 109.896 189.116C109.752 188.827 109.607 188.466 109.463 188.106C109.32 187.816 109.175 187.456 109.031 187.167C108.887 186.806 108.743 186.445 108.599 186.156C108.455 185.867 108.383 185.651 108.31 185.362C108.166 184.929 107.95 184.496 107.806 184.062C107.662 183.557 107.446 183.123 107.302 182.618C107.013 181.823 106.797 181.029 106.581 180.235C106.436 179.729 106.292 179.152 106.148 178.575C106.004 178.141 105.932 177.78 105.86 177.42C105.644 176.697 105.5 175.976 105.355 175.253C105.067 174.026 104.851 172.871 104.707 171.715C104.635 171.282 104.563 170.849 104.491 170.343C104.491 170.271 104.491 170.127 104.418 170.054C104.418 169.91 104.346 169.693 104.346 169.549V169.116C104.274 168.827 104.274 168.538 104.274 168.177C104.274 168.033 104.274 167.816 104.202 167.672C104.202 167.527 104.202 167.383 104.13 167.311C104.13 167.166 104.13 167.022 104.058 166.877V166.589C103.986 166.083 103.986 165.65 103.986 165.145C103.842 162.834 103.842 160.596 103.913 158.574C103.913 158.502 103.913 158.358 103.986 158.285C104.058 155.903 104.346 153.592 104.779 151.354C105.066 156.985 106.94 176.12 122.723 190.056C131.732 197.998 141.533 200.887 147.154 202.041C147.371 202.114 147.587 202.258 147.803 202.331C148.019 202.475 148.308 202.546 148.524 202.692C148.739 202.836 149.028 202.908 149.245 203.052C149.316 203.052 149.388 203.125 149.388 203.125C149.532 203.197 149.676 203.269 149.821 203.269C149.965 203.342 150.037 203.342 150.181 203.413C150.326 203.486 150.397 203.486 150.542 203.558C150.613 203.558 150.613 203.63 150.686 203.63C150.757 203.702 150.902 203.702 150.974 203.774C151.118 203.846 151.334 203.919 151.55 203.991C151.911 204.136 152.271 204.28 152.631 204.424C152.775 204.496 152.92 204.496 153.136 204.569C153.28 204.64 153.352 204.64 153.496 204.713C153.64 204.785 153.785 204.785 154.001 204.857C154.361 205.002 154.793 205.073 155.154 205.218C155.202 205.218 155.25 205.242 155.298 205.29C155.73 205.435 156.235 205.579 156.667 205.652C157.027 205.724 157.387 205.868 157.82 205.94C158.18 206.013 158.613 206.157 158.973 206.229C159.189 206.301 159.405 206.301 159.622 206.374C160.198 206.518 160.703 206.59 161.207 206.663C161.783 206.735 162.288 206.879 162.721 206.951C164.018 207.168 165.171 207.24 166.036 207.384C166.179 207.384 166.396 207.384 166.54 207.457C166.685 207.457 166.829 207.457 166.972 207.529H167.405C167.405 207.529 167.333 207.529 167.333 207.457H167.405C167.333 207.384 167.261 207.384 167.189 207.312C167.116 207.24 166.972 207.168 166.901 207.095C166.756 207.023 166.54 206.879 166.396 206.735L166.324 206.663C166.108 206.518 165.964 206.374 165.748 206.229C165.675 206.157 165.604 206.157 165.531 206.084C165.459 206.084 165.459 206.013 165.388 206.013L165.315 205.94C165.099 205.796 164.883 205.652 164.667 205.435C164.018 205.002 163.441 204.496 162.793 204.063C162.721 204.063 162.72 203.99 162.649 203.99C162.601 203.942 162.553 203.918 162.504 203.918C162.433 203.846 162.289 203.773 162.216 203.702L162.144 203.629L162.072 203.558L162 203.485C161.783 203.341 161.639 203.197 161.423 203.052L161.351 202.979C161.279 202.907 161.207 202.835 161.135 202.763C160.991 202.619 160.846 202.474 160.63 202.33C160.486 202.185 160.342 202.041 160.126 201.897C159.766 201.608 159.477 201.319 159.189 201.03C158.901 200.741 158.612 200.525 158.324 200.236C158.036 199.947 157.748 199.659 157.459 199.441C156.595 198.647 155.874 197.853 155.153 197.059C154.865 196.77 154.577 196.409 154.289 196.121C154.072 195.903 153.856 195.687 153.712 195.471C153.568 195.254 153.424 195.11 153.208 194.893C152.991 194.676 152.847 194.459 152.631 194.243C152.775 194.315 152.919 194.459 152.991 194.532C153.207 194.676 153.423 194.821 153.64 195.038C158.468 198.647 167.549 204.135 179.944 205.435C185.205 206.084 190.106 205.652 193.926 205.001L193.927 205.003V205.003Z" fill="#E93C5A"/>
<path d="M181.802 214.022C181.586 214.166 181.37 214.31 181.081 214.455C175.244 218.137 169.046 221.242 162.561 223.697C156.291 221.892 152.615 219.509 150.597 217.993C147.282 215.537 145.048 212.938 143.606 210.988C148.723 213.299 157.804 216.476 169.191 215.971C173.587 215.754 177.406 215.104 180.649 214.237C181.081 214.237 181.442 214.166 181.802 214.021V214.022Z" fill="#F44D71"/>
<path d="M126.966 230.676H125.38C118.029 230.676 110.822 229.955 103.831 228.583C101.165 225.767 99.7234 223.456 98.859 221.868C96.841 218.257 95.904 214.936 95.3271 212.625C99.0749 216.813 105.993 223.456 116.659 227.717C120.335 229.16 123.866 230.099 126.966 230.676Z" fill="#F44D71"/>
<path d="M227.74 121.346C224.881 104.541 216.724 86.8054 203.309 76.0731C203.715 69.635 202.775 58.9686 200.21 51.2344C218.268 70.4007 230.855 94.4025 227.74 121.346V121.346H227.74Z" fill="#8774E2"/>
<path d="M230.184 125.161C230.422 161.434 211.011 195.889 180.962 214.551C180.818 214.48 180.673 214.48 180.602 214.407C179.897 214.232 179.391 213.984 178.728 213.685C178.655 213.685 178.584 213.613 178.511 213.613C175.714 212.467 172.839 211.143 170.224 209.569C170.152 209.569 170.152 209.497 170.08 209.497C169.163 208.864 168.03 208.332 167.126 207.691H167.054C166.407 207.289 165.822 206.751 165.18 206.319C165.107 206.319 165.107 206.247 165.036 206.247C164.2 205.599 163.316 204.915 162.441 204.298C162.369 204.298 162.369 204.225 162.297 204.225C162.249 204.177 162.201 204.153 162.152 204.153C162.013 204.042 161.836 203.932 161.72 203.792H161.648C158.231 200.98 155.055 197.827 152.207 194.478C177.953 195.791 218.707 171.258 218.366 131.876C220.958 139.802 221.416 151.66 220.239 158.302C226.464 141.01 228.943 120.056 227.662 102.416C229.392 109.637 230.184 117.29 230.184 125.16L230.184 125.161V125.161Z" fill="#FF9E00"/>
<path d="M162.062 118.131C153 118.463 143.714 121.005 136.551 126.796C136.479 126.796 136.479 126.868 136.407 126.868C118.386 141.413 117.037 171.785 131.723 190.336C118.441 176.761 105.647 145.412 128.693 122.319C143.829 116.181 160.477 117.914 162.062 118.131V118.131Z" fill="#D0CFF9"/>
<path d="M211.786 122.357C211.498 128.711 210.344 138.241 206.021 149.434C204.888 144.02 200.733 134.157 196.003 128.205C195.958 124.82 195.184 121.471 194.273 118.241C199.066 123.701 202.989 129.961 205.732 136.725C213.6 112.184 204.908 83.721 184.977 67.4805C208.239 77.9664 213.792 104.166 211.785 122.356L211.786 122.357Z" fill="#D0CFF9"/>
</g>
<defs>
<clipPath id="clip0_242_94524">
<rect width="227.302" height="227.302" fill="white" transform="translate(11.3652 11.3633)"/>
</clipPath>
</defs>
</svg>
