<svg width="250" height="250" viewBox="0 0 250 250" fill="none" xmlns="http://www.w3.org/2000/svg">
<path fill-rule="evenodd" clip-rule="evenodd" d="M129.159 115.31C129.159 115.31 131.392 100.569 149.109 100.569C166.237 100.569 169.06 115.31 169.06 115.31H129.159ZM149.851 84.4864C135.975 84.5043 109.351 93.7158 109.351 122.458C109.351 155.962 134.135 163.619 148.216 163.253C171.445 162.663 182.766 150.298 182.766 150.298L170.257 138.987C170.257 138.987 163.556 146.135 149.708 146.135C130.347 146.135 128.855 130.052 128.855 130.052H186.786C186.786 130.052 192.736 84.4238 149.851 84.4864Z" fill="white"/>
<mask id="mask0_242_94103" style="mask-type:alpha" maskUnits="userSpaceOnUse" x="129" y="100" width="41" height="16">
<path d="M149.11 100.578C131.392 100.578 129.159 115.32 129.159 115.32H169.06C169.06 115.32 166.237 100.578 149.11 100.578Z" fill="white"/>
</mask>
<g mask="url(#mask0_242_94103)">
<path fill-rule="evenodd" clip-rule="evenodd" d="M149.108 100.574C131.39 100.574 129.157 115.316 129.157 115.316H169.058C169.058 115.316 166.235 100.574 149.108 100.574Z" fill="url(#paint0_linear_242_94103)"/>
</g>
<mask id="mask1_242_94103" style="mask-type:alpha" maskUnits="userSpaceOnUse" x="37" y="57" width="176" height="129">
<path d="M186.79 130.058H128.859C128.859 130.058 130.351 146.14 149.712 146.14C163.56 146.14 170.261 138.993 170.261 138.993L182.77 150.304C182.77 150.304 171.45 162.669 148.22 163.258C134.139 163.625 109.355 155.968 109.355 122.463C109.355 93.7216 135.98 84.51 149.855 84.4921C192.741 84.4296 186.79 130.058 186.79 130.058ZM148.22 57.9121C120.719 57.9121 97.2756 75.2807 88.2607 99.6451H37.8789L61.4035 119.185H84.3563C84.3203 120.06 84.3024 120.945 84.3024 121.829C84.3024 124.063 84.419 126.27 84.6421 128.45H61.2605L38.3347 147.623H89.7258C99.6344 170.076 122.096 185.747 148.22 185.747C183.52 185.747 212.137 157.13 212.137 121.829C212.137 86.5292 183.52 57.9121 148.22 57.9121Z" fill="white"/>
</mask>
<g mask="url(#mask1_242_94103)">
<path fill-rule="evenodd" clip-rule="evenodd" d="M186.788 130.058H128.857C128.857 130.058 130.349 146.14 149.71 146.14C163.558 146.14 170.259 138.993 170.259 138.993L182.768 150.304C182.768 150.304 171.448 162.669 148.218 163.258C134.137 163.625 109.353 155.968 109.353 122.463C109.353 93.7216 135.978 84.51 149.853 84.4921C192.739 84.4296 186.788 130.058 186.788 130.058ZM148.218 57.9121C120.717 57.9121 97.2737 75.2807 88.2587 99.6451H37.877L61.4016 119.185H84.3544C84.3183 120.06 84.3005 120.945 84.3005 121.829C84.3005 124.063 84.417 126.27 84.6401 128.45H61.2585L38.3327 147.623H89.7238C99.6325 170.076 122.094 185.747 148.218 185.747C183.518 185.747 212.135 157.13 212.135 121.829C212.135 86.5292 183.518 57.9121 148.218 57.9121Z" fill="url(#paint1_linear_242_94103)"/>
</g>
<defs>
<linearGradient id="paint0_linear_242_94103" x1="114.853" y1="100.746" x2="139.221" y2="142.953" gradientUnits="userSpaceOnUse">
<stop stop-color="#5AC2F6"/>
<stop offset="1" stop-color="#1170AB"/>
</linearGradient>
<linearGradient id="paint1_linear_242_94103" x1="91.9167" y1="93.1002" x2="137.118" y2="171.391" gradientUnits="userSpaceOnUse">
<stop stop-color="#5AC2F6"/>
<stop offset="1" stop-color="#1170AB"/>
</linearGradient>
</defs>
</svg>
