<svg width="250" height="250" viewBox="0 0 250 250" fill="none" xmlns="http://www.w3.org/2000/svg">
<g clip-path="url(#clip0_242_94122)">
<path d="M124.998 250C194.034 250 249.998 194.036 249.998 125C249.998 55.9644 194.034 0 124.998 0C55.9624 0 -0.00195312 55.9644 -0.00195312 125C-0.00195312 194.036 55.9624 250 124.998 250Z" fill="#AA15DD"/>
<path d="M124.99 200.094C126.865 200.102 128.389 201.657 128.397 203.563C128.405 204.473 128.052 205.35 127.415 206C126.778 206.65 125.909 207.021 124.998 207.032C124.547 207.028 124.101 206.935 123.685 206.758C123.27 206.582 122.893 206.325 122.577 206.003C122.26 205.681 122.011 205.3 121.842 204.881C121.673 204.462 121.588 204.014 121.592 203.563C121.588 203.112 121.673 202.664 121.842 202.245C122.011 201.827 122.26 201.445 122.577 201.123C122.893 200.801 123.27 200.544 123.685 200.368C124.101 200.191 124.547 200.098 124.998 200.094H124.99ZM56.3967 88.7349C55.6075 88.2629 55.0346 87.5004 54.8009 86.611C54.5673 85.7216 54.6914 84.7761 55.1467 83.9771C55.481 83.3828 55.9859 82.9025 56.5961 82.5983C57.2064 82.2942 57.8939 82.1802 58.5696 82.271C59.2454 82.3619 59.8783 82.6535 60.3865 83.1081C60.8947 83.5627 61.2548 84.1593 61.4201 84.8208C61.5959 85.4846 61.5733 86.1853 61.3554 86.8365C61.1374 87.4876 60.7335 88.0607 60.1936 88.4849C59.6592 88.9036 59.0111 89.1514 58.3337 89.196C57.6564 89.2406 56.9813 89.0799 56.3967 88.7349ZM56.3967 161.344C56.7853 161.119 57.2147 160.973 57.6601 160.916C58.1055 160.858 58.5579 160.889 58.9911 161.007C59.4243 161.126 59.8296 161.329 60.1836 161.606C60.5375 161.882 60.833 162.226 61.053 162.618C61.505 163.414 61.6274 164.355 61.3937 165.24C61.16 166.125 60.589 166.883 59.803 167.352C59.4149 167.579 58.9854 167.727 58.5395 167.786C58.0937 167.845 57.6406 167.814 57.2068 167.695C56.773 167.577 56.3673 167.373 56.0136 167.095C55.6598 166.817 55.3651 166.472 55.1467 166.079C54.6946 165.283 54.5723 164.341 54.806 163.456C55.0396 162.571 55.6107 161.813 56.3967 161.344ZM193.584 88.7349C193.196 88.9601 192.766 89.1058 192.321 89.1636C191.875 89.2214 191.423 89.1902 190.99 89.0717C190.557 88.9532 190.151 88.7499 189.797 88.4734C189.443 88.197 189.148 87.853 188.928 87.4615C188.586 86.8642 188.426 86.1799 188.467 85.4929C188.509 84.8058 188.751 84.1459 189.162 83.5943C189.569 83.0474 190.13 82.6356 190.774 82.4126C191.418 82.1897 192.114 82.1659 192.772 82.3443C193.433 82.5311 194.024 82.9081 194.472 83.4285C194.92 83.9489 195.205 84.5896 195.292 85.2708C195.378 85.9521 195.263 86.6437 194.959 87.2597C194.655 87.8756 194.177 88.3887 193.584 88.7349ZM124.998 49.9068C124.096 49.8842 123.239 49.5079 122.612 48.8589C121.985 48.2099 121.638 47.3404 121.647 46.438C121.647 45.0318 122.49 43.7583 123.764 43.2271C124.391 42.966 125.083 42.901 125.748 43.0404C126.413 43.1798 127.021 43.5173 127.49 44.0083C127.965 44.5035 128.285 45.1269 128.41 45.8016C128.535 46.4763 128.46 47.1728 128.194 47.8052C127.933 48.4351 127.488 48.9721 126.919 49.3468C126.349 49.7214 125.68 49.9165 124.998 49.9068ZM185.936 160.797C185.107 162.259 184.827 163.967 185.145 165.617C185.463 167.266 186.358 168.749 187.67 169.797L131.803 202.61C131.588 200.956 130.781 199.436 129.531 198.332C128.281 197.227 126.674 196.613 125.006 196.602C123.338 196.613 121.731 197.227 120.481 198.332C119.232 199.436 118.424 200.956 118.209 202.61L62.3264 169.797C63.6341 168.747 64.5252 167.265 64.8401 165.618C65.155 163.97 64.8732 162.264 64.0451 160.805C63.2367 159.354 61.9253 158.248 60.3581 157.697C58.7909 157.146 57.0763 157.187 55.5373 157.813V92.188C57.0744 92.8122 58.7866 92.8534 60.3519 92.3038C61.9172 91.7542 63.2278 90.6517 64.0373 89.2036C64.8658 87.7482 65.1502 86.0458 64.8397 84.4001C64.5292 82.7544 63.6439 81.2727 62.342 80.2193L118.209 47.4068C118.424 49.0606 119.232 50.5805 120.481 51.685C121.731 52.7895 123.338 53.404 125.006 53.4146C126.675 53.4037 128.283 52.7882 129.533 51.6821C130.783 50.5759 131.589 49.0542 131.803 47.399L187.686 80.2115C186.38 81.2617 185.49 82.7419 185.175 84.3878C184.861 86.0336 185.141 87.7378 185.967 89.1958C186.775 90.6471 188.087 91.7526 189.654 92.3038C191.221 92.855 192.936 92.8138 194.475 92.188V157.774C192.929 157.148 191.207 157.109 189.635 157.667C188.063 158.224 186.75 159.337 185.944 160.797H185.936ZM138.186 150.743C132.116 154.311 124.935 155.493 118.042 154.057C111.149 152.621 105.037 148.672 100.897 142.977L137.756 121.383L150.319 114.008L156.272 110.493L156.615 110.329L181.928 95.438C183.49 94.524 184.037 92.4927 183.147 90.899C182.942 90.5165 182.662 90.1798 182.323 89.9097C181.983 89.6396 181.592 89.4418 181.174 89.3284C180.755 89.215 180.318 89.1883 179.889 89.2502C179.46 89.312 179.047 89.461 178.678 89.688L160.069 100.665C156.53 95.3717 151.882 90.9115 146.449 87.593C141.015 84.2745 134.925 82.177 128.6 81.4458V60.1255C128.604 59.6782 128.52 59.2344 128.353 58.8196C128.185 58.4048 127.938 58.0269 127.624 57.7077C127.311 57.3885 126.938 57.1342 126.526 56.9592C126.114 56.7843 125.672 56.6921 125.225 56.688C124.777 56.6911 124.334 56.7825 123.921 56.957C123.509 57.1315 123.135 57.3857 122.82 57.705C122.506 58.0243 122.258 58.4025 122.09 58.8178C121.922 59.2332 121.838 59.6775 121.842 60.1255V81.2505C114.899 81.5906 108.143 83.6121 102.155 87.1411C96.7497 90.309 92.079 94.5882 88.4514 99.6958L71.3889 89.688C71.0172 89.4703 70.6057 89.3291 70.1787 89.2726C69.7516 89.2161 69.3176 89.2455 68.9021 89.359C68.4865 89.4725 68.0978 89.6679 67.7588 89.9337C67.4198 90.1995 67.1374 90.5303 66.928 90.9068C66.4977 91.6689 66.3818 92.5689 66.605 93.4152C66.8283 94.2615 67.373 94.9873 68.1233 95.438L85.053 105.391C81.4315 112.651 79.839 120.754 80.4436 128.844L82.0139 137.782C82.717 140.204 83.5998 142.563 84.678 144.836L68.1233 154.563C67.3681 155.015 66.8205 155.746 66.5985 156.598C66.3764 157.449 66.4975 158.354 66.9358 159.118C67.1474 159.494 67.4318 159.824 67.7725 160.09C68.1132 160.355 68.5033 160.549 68.92 160.662C69.3368 160.775 69.7718 160.803 70.1998 160.746C70.6277 160.689 71.0399 160.547 71.4123 160.329L88.0295 150.594C91.8321 156.147 96.8528 160.758 102.709 164.075C108.565 167.393 115.101 169.328 121.819 169.735V189.876C121.819 191.774 123.334 193.313 125.201 193.313C125.649 193.309 126.091 193.217 126.503 193.042C126.914 192.867 127.287 192.613 127.601 192.293C127.914 191.974 128.162 191.596 128.329 191.181C128.497 190.767 128.581 190.323 128.576 189.876V169.563C134.655 168.938 140.524 166.992 145.772 163.86C151.692 160.342 156.687 155.462 160.342 149.626L178.6 160.313C180.162 161.204 182.131 160.649 183.03 159.071C183.463 158.313 183.585 157.417 183.369 156.571C183.153 155.725 182.617 154.997 181.873 154.54L163.498 143.758C163.545 143.657 163.655 143.54 163.655 143.415C169.233 130.571 154.303 125.055 150.983 134.946C148.765 141.586 144.216 147.198 138.178 150.743H138.186ZM193.592 161.344C194.377 161.816 194.947 162.576 195.18 163.461C195.414 164.347 195.292 165.289 194.842 166.086C194.623 166.479 194.328 166.824 193.974 167.101C193.62 167.377 193.214 167.581 192.78 167.699C192.346 167.817 191.893 167.847 191.448 167.787C191.002 167.728 190.573 167.58 190.186 167.352C189.4 166.883 188.829 166.125 188.595 165.24C188.361 164.355 188.484 163.414 188.936 162.618C189.154 162.225 189.449 161.879 189.803 161.601C190.156 161.324 190.562 161.12 190.996 161.001C191.43 160.882 191.883 160.852 192.329 160.911C192.774 160.97 193.204 161.117 193.592 161.344ZM95.967 129.586C95.6311 116.563 97.178 107.477 109.514 100.227C114.495 97.2952 120.255 95.9601 126.019 96.4015C131.782 96.8429 137.271 99.0396 141.748 102.696L95.967 129.586Z" fill="white"/>
</g>
<defs>
<clipPath id="clip0_242_94122">
<rect width="250" height="250" rx="125" fill="white"/>
</clipPath>
</defs>
</svg>
