<svg width="250" height="250" viewBox="0 0 250 250" fill="none" xmlns="http://www.w3.org/2000/svg">
<path d="M237.462 163.946C237.462 136.507 237.462 109.109 237.462 81.7501C237.462 76.8121 236.307 71.9136 234.236 67.4931C231.011 60.4046 226.072 53.8336 219.263 49.8516C193.896 35.1171 168.448 20.5416 143.081 5.80708C140.174 4.13458 136.908 3.21858 133.682 2.30258C133.682 2.50158 133.723 2.93958 133.723 3.09908C133.683 2.93958 133.563 2.54158 133.443 2.34258C126.355 0.988582 118.908 1.34708 112.018 3.53708C107.837 4.93108 104.213 7.51958 100.351 9.59008C77.014 23.0506 53.7175 36.5106 30.381 49.9311C27.3145 51.7631 24.6065 54.1526 22.3765 56.9001C16.8805 63.4316 12.978 71.6351 12.5 80.2766C12.5 109.865 12.5 139.454 12.5 169.043C12.5 174.976 14.531 180.671 17.279 185.888C20.664 191.862 25.2435 197.397 31.3765 200.782C56.465 215.238 81.554 229.734 106.683 244.15C110.346 246.26 114.488 247.495 118.669 248.052C126.753 249.008 135.356 248.371 142.643 244.548C166.497 230.809 190.272 217.07 214.126 203.331C217.631 201.3 221.334 199.468 224.281 196.68C230.493 190.906 234.954 183.22 236.826 174.937C237.661 171.353 237.462 167.609 237.462 163.946Z" fill="#2B1544"/>
<path d="M141.805 144.551C145.031 141.405 149.611 139.494 154.19 139.892C159.128 140.011 163.907 142.64 166.575 146.861C170.677 153.034 169.482 161.875 164.186 167.011C158.77 172.188 149.451 172.786 143.637 167.927C139.296 164.303 135.632 159.923 131.491 156.1C131.411 155.861 131.371 155.343 131.331 155.064C134.756 151.56 138.301 148.135 141.805 144.551Z" fill="#2B1544"/>
<path d="M105.647 72.9095C112.695 66.4185 118.788 58.9715 124.244 51.166C125.081 51.445 125.638 52.0025 126.036 52.799C130.536 61.122 136.908 68.33 143.559 75.06C147.86 79.2015 151.046 84.6175 152.121 90.5515C153.515 97.162 149.572 104.45 143.28 106.839C138.62 108.591 133.284 108.273 128.824 106.122C127.987 105.843 126.594 104.888 126.076 106.043C126.912 111.737 129.859 116.715 132.527 121.693C133.164 122.768 131.93 123.525 131.333 124.202C128.585 126.711 126.235 129.738 123.249 132.008C122.333 131.729 121.735 130.893 121.098 130.295C118.51 127.627 115.802 125.039 113.213 122.331C113.173 122.132 113.134 121.654 113.094 121.494C115.961 116.437 119.545 111.499 120.461 105.645C119.545 105.485 118.629 105.645 117.753 106.003C113.054 107.835 107.678 108.233 102.899 106.362C98.24 104.61 94.616 100.189 94.0585 95.211C93.5805 91.5075 94.6955 87.804 96.408 84.578C98.4785 79.9985 101.983 76.3345 105.647 72.9095Z" fill="#FEFEFD"/>
<path d="M78.805 131.572C85.8935 127.311 94.9735 126.753 102.54 129.979C103.177 130.218 103.296 130.337 103.774 130.616C106.203 131.572 108.274 133.125 110.265 134.837C114.686 138.62 118.31 143.28 122.849 146.983C127.23 142.881 131.292 138.381 135.752 134.359C142.005 128.665 151.164 126.992 159.288 128.625C171.991 131.094 181.469 144.076 180.553 156.939C180.155 165.063 176.053 173.108 169.283 177.767C164.704 180.873 159.288 183.103 153.673 182.984C146.305 183.263 139.058 179.997 133.801 174.9C123.964 165.143 114.407 155.028 104.491 145.311C101.584 142.205 97.6805 139.975 93.38 139.696C90.3535 139.577 87.247 140.294 84.4995 141.648C80.2385 143.918 77.411 148.378 76.694 153.117C75.818 158.134 77.65 163.55 81.433 166.975C87.247 172.511 97.5215 172.471 103.177 166.776C104.65 165.582 106.004 163.112 108.234 164.108C109.668 164.945 110.624 166.338 111.858 167.414C112.774 168.489 114.248 169.405 114.367 170.998C114.367 172.591 112.934 173.507 111.938 174.542C109.31 177.25 106.283 179.52 102.739 180.954C95.8495 183.622 87.9245 183.662 81.075 180.755C70.283 175.936 63.314 163.631 65.066 151.883C66.2605 143.479 71.278 135.594 78.805 131.572ZM141.806 144.554C138.341 148.138 134.797 151.523 131.332 155.068C131.412 155.307 131.452 155.824 131.492 156.103C135.633 159.926 139.297 164.307 143.638 167.931C149.452 172.829 158.771 172.192 164.187 167.015C169.483 161.878 170.678 153.037 166.576 146.864C163.948 142.643 159.129 140.015 154.191 139.895C149.611 139.497 145.031 141.368 141.806 144.554Z" fill="#FEFEFD"/>
</svg>
