<svg width="250" height="250" viewBox="0 0 250 250" fill="none" xmlns="http://www.w3.org/2000/svg">
<path d="M117.258 94.827L63.3929 148.692C62.5879 149.497 61.3279 149.497 60.5229 148.692L40.5379 128.672C38.4379 126.572 38.4379 123.142 40.5379 121.042L92.0229 69.592C92.8279 68.787 94.0879 68.787 94.8929 69.592L117.293 91.992C118.063 92.762 118.063 94.022 117.258 94.827Z" fill="#214859"/>
<path d="M148.862 63.2228L126.218 85.8678C125.413 86.6728 124.152 86.6728 123.347 85.8678L100.947 63.4678C100.142 62.6628 100.142 61.4028 100.947 60.5978L121.212 40.3328C123.312 38.2328 126.743 38.2328 128.843 40.3328L148.862 60.3528C149.667 61.1578 149.667 62.4178 148.862 63.2228Z" fill="#00B39E"/>
<path d="M132.413 154.188L186.278 100.322C187.083 99.5175 188.343 99.5175 189.148 100.322L209.168 120.342C211.268 122.442 211.268 125.872 209.168 127.972L157.648 179.457C156.843 180.262 155.583 180.262 154.778 179.457L132.378 157.057C131.608 156.287 131.608 154.993 132.413 154.188Z" fill="#214859"/>
<path d="M101.09 186.073L123.735 163.428C124.54 162.623 125.8 162.623 126.605 163.428L149.005 185.828C149.81 186.633 149.81 187.893 149.005 188.698L128.74 208.963C126.64 211.063 123.21 211.063 121.11 208.963L101.09 188.943C100.285 188.173 100.285 186.878 101.09 186.073Z" fill="#00B39E"/>
<path d="M179.905 94.827L157.26 117.472C156.455 118.277 155.195 118.277 154.39 117.472L131.99 95.072C131.185 94.267 131.185 93.007 131.99 92.202L154.67 69.592C155.475 68.787 156.735 68.787 157.54 69.592L179.94 91.992C180.71 92.762 180.71 94.022 179.905 94.827Z" fill="#214859"/>
<path d="M148.862 126.153L126.218 148.798C125.413 149.603 124.152 149.603 123.347 148.798L100.947 126.398C100.142 125.593 100.142 124.333 100.947 123.528L123.593 100.883C124.398 100.078 125.657 100.078 126.462 100.883L148.862 123.283C149.667 124.088 149.667 125.383 148.862 126.153Z" fill="#00B39E"/>
<path d="M117.259 157.479L94.614 180.124C93.809 180.929 92.549 180.929 91.744 180.124L69.344 157.724C68.539 156.919 68.539 155.659 69.344 154.854L91.989 132.209C92.794 131.404 94.054 131.404 94.859 132.209L117.259 154.609C118.064 155.414 118.064 156.709 117.259 157.479Z" fill="#214859"/>
</svg>
