<svg width="250" height="250" viewBox="0 0 250 250" fill="none" xmlns="http://www.w3.org/2000/svg">
<rect width="250" height="250" rx="125" fill="#00EDBE"/>
<path d="M173.187 79.1702C172.854 72.9245 174.353 66.7205 177.559 61.3076H75.5478C71.7172 61.3076 68.5944 64.3888 68.5527 68.2611V90.0792C68.5527 93.9099 71.6755 97.0327 75.5478 97.0327H177.559C174.353 91.6615 172.854 85.4575 173.187 79.1702Z" fill="#141BEB"/>
<path d="M52.6479 125.721C52.981 131.967 51.4405 138.171 48.2344 143.542H150.246C154.077 143.542 157.199 140.461 157.241 136.589V114.77C157.241 110.94 154.118 107.817 150.246 107.817H48.276C51.4821 113.188 52.981 119.392 52.6479 125.679" fill="#141BEB"/>
<path d="M173.187 172.272C172.854 166.026 174.353 159.822 177.559 154.409H75.5478C71.7172 154.409 68.5944 157.49 68.5527 161.363V183.181C68.5527 187.011 71.6755 190.134 75.5478 190.134H177.559C174.353 184.763 172.854 178.559 173.187 172.272Z" fill="#141BEB"/>
</svg>
