<svg width="250" height="250" viewBox="0 0 250 250" fill="none" xmlns="http://www.w3.org/2000/svg">
<g clip-path="url(#clip0_242_93427)">
<path d="M153.047 100.85C151.497 94.95 147.847 91.2 141.847 89.5C136.797 88.1 131.597 87.55 126.447 87.25C120.547 87.4 114.547 87.8 108.797 89.5C102.747 91.2 99.1471 94.95 97.5971 100.85C96.7471 104.05 96.4971 107.45 96.3471 110.65C96.0471 113.75 96.0471 114.15 98.1471 114.15H151.097C154.747 114.15 154.747 114.15 154.297 110.5C154.147 107.45 153.747 104.1 153.047 100.85Z" fill="#496DDB"/>
<path d="M152.048 135.746H99.1984C95.5484 135.746 95.5484 135.746 95.9984 139.396C96.1484 142.596 96.3984 145.996 97.2484 149.196C98.7984 155.096 102.448 158.846 108.448 160.546C113.498 161.946 118.698 162.496 123.848 162.796C129.748 162.646 135.748 162.246 141.498 160.546C147.548 158.846 151.148 155.096 152.698 149.196C153.548 145.996 153.798 142.596 153.948 139.396C154.298 136.346 154.298 135.896 152.048 135.746Z" fill="#496DDB"/>
<path d="M124.998 -0.0507812C56.048 -0.0507812 -0.00195312 56.0492 -0.00195312 124.949C-0.00195312 193.849 56.048 249.949 124.998 249.949C194.098 249.949 249.998 193.899 249.998 124.949C249.998 55.9992 194.098 -0.0507812 124.998 -0.0507812ZM177.698 96.7992C178.248 100.449 178.698 104.099 179.098 107.849V114.299H198.448C199.998 114.299 201.398 114.299 202.798 114.599C206.148 115.149 208.248 117.099 208.398 120.349V129.749C208.248 132.949 206.148 134.949 202.798 135.499C201.398 135.799 199.998 135.799 198.448 135.799H178.848V142.099C178.448 145.899 177.998 149.549 177.448 153.149C176.898 156.799 175.898 159.999 174.648 162.799H199.448C202.398 162.799 205.198 163.099 207.148 165.899C210.098 170.499 208.548 176.699 203.948 179.649C203.398 180.049 202.698 180.499 201.998 180.649C196.798 182.349 191.498 182.599 185.998 182.899C163.698 183.299 140.898 183.449 125.448 183.449C107.248 183.449 82.848 183.149 64.348 182.749C58.898 182.599 53.548 182.349 48.498 180.499C47.648 180.349 47.098 180.099 46.548 179.499C41.948 176.549 40.398 170.549 43.348 165.749C45.148 162.949 47.948 162.649 50.898 162.649H75.398C74.298 159.849 73.298 156.599 72.748 153.099C72.198 149.449 71.748 145.799 71.348 142.049V135.599H51.748C50.198 135.599 48.798 135.599 47.398 135.299C44.048 134.749 41.948 132.799 41.798 129.549V120.149C41.948 116.949 44.048 114.949 47.398 114.399C48.798 114.099 50.198 114.099 51.748 114.099H71.348V107.799C71.748 103.999 72.198 100.349 72.748 96.7492C73.298 93.1492 74.298 89.8992 75.548 87.0992H50.748C47.798 87.0992 44.998 86.7992 43.048 83.9992C40.098 79.3992 41.648 73.1992 46.248 70.2492C46.798 69.8492 47.498 69.3992 48.198 69.2492C53.398 67.5492 58.6981 67.2992 64.048 66.9992C86.3481 66.5992 109.148 66.4492 124.598 66.4492C142.798 66.4492 167.348 66.7492 185.698 67.1492C191.148 67.2992 196.498 67.5492 201.548 69.3992C202.398 69.5492 202.948 69.7992 203.498 70.3992C208.098 73.3492 209.648 79.3492 206.698 84.1492C204.898 86.9492 202.098 87.2492 199.148 87.2492H174.648C176.148 90.0992 176.998 93.1492 177.698 96.7992Z" fill="#496DDB"/>
</g>
<defs>
<clipPath id="clip0_242_93427">
<rect width="250" height="250" rx="125" fill="white"/>
</clipPath>
</defs>
</svg>
