<svg width="250" height="250" viewBox="0 0 250 250" fill="none" xmlns="http://www.w3.org/2000/svg">
<g clip-path="url(#clip0_242_94106)">
<path fill-rule="evenodd" clip-rule="evenodd" d="M249.998 125.004C249.998 194.04 194.034 250.004 124.998 250.004C55.9621 250.004 -0.00195312 194.04 -0.00195312 125.004C-0.00195312 55.968 55.9621 0.00390625 124.998 0.00390625C194.034 0.00390625 249.998 55.968 249.998 125.004Z" fill="#EB8B2D"/>
<path fill-rule="evenodd" clip-rule="evenodd" d="M125.001 231.816C66.1035 231.816 18.1864 183.899 18.1864 125.002C18.1864 66.1044 66.1035 18.1873 125.001 18.1873C183.898 18.1873 231.815 66.1044 231.815 125.002C231.815 183.899 183.898 231.816 125.001 231.816ZM125.001 11.2812C62.2955 11.2812 11.2803 62.2964 11.2803 125.002C11.2803 187.707 62.2955 238.721 125.001 238.721C187.706 238.721 238.721 187.707 238.721 125.002C238.721 62.2964 187.706 11.2812 125.001 11.2812Z" fill="#FFFFFE"/>
<path fill-rule="evenodd" clip-rule="evenodd" d="M184.081 71.4699C186.387 59.6004 178.398 50.5707 165.11 50.7648C143.975 51.9734 129.864 72.8062 119.115 101.291L97.708 96.4782L96.4255 102.183L117.095 106.83C115.496 111.38 113.972 116.092 112.509 120.927C110.914 126.377 109.825 131.658 108.268 140.352C100.536 178.08 90.3005 197.643 76.9069 194.28C72.0678 192.939 72.9379 190.064 76.2245 189.879C76.2321 189.858 76.2259 189.834 76.2321 189.812C79.6679 189.356 82.7169 187.02 83.864 183.506C85.4573 178.623 82.7895 173.372 77.9062 171.779C73.0229 170.186 67.7729 172.853 66.1797 177.736C66.0809 178.04 66.0471 178.346 65.9801 178.651C65.9642 178.614 65.9324 178.571 65.9193 178.535C63.6127 190.404 71.6023 199.433 84.8903 199.24C110.644 197.768 127.073 166.803 137.491 129.078C138.919 124.2 139.943 119.438 141.258 112.263L162.456 117.029L163.739 111.325L142.39 106.524C150.042 70.8497 160.075 52.4561 173.093 55.7247C177.932 57.0659 177.062 59.9409 173.776 60.1253C173.768 60.1467 173.774 60.1709 173.768 60.1923C170.332 60.6488 167.283 62.9837 166.136 66.4989C164.543 71.3822 167.211 76.6329 172.094 78.2254C176.977 79.8187 182.227 77.1515 183.82 72.2682C183.919 71.9651 183.953 71.6584 184.02 71.3539C184.036 71.3912 184.068 71.434 184.081 71.4699Z" fill="#FFFFFE"/>
</g>
<defs>
<clipPath id="clip0_242_94106">
<rect width="250" height="250" rx="125" fill="white"/>
</clipPath>
</defs>
</svg>
