<svg width="250" height="250" viewBox="0 0 250 250" fill="none" xmlns="http://www.w3.org/2000/svg">
<rect width="250" height="250" rx="125" fill="white"/>
<path d="M115.494 19.3457C115.494 26.5282 115.494 33.7107 115.494 41.1907C130.582 37.7907 145.329 37.9607 160.204 42.3807C160.204 49.5632 160.204 56.7457 160.204 63.9707C181.072 73.3632 194.502 88.8332 199.134 111.188C202.704 128.486 199.559 144.848 189.742 159.596C168.917 190.748 129.434 196.358 101.979 178.848C101.979 175.066 101.979 171.241 101.979 167.373C125.354 182.716 148.389 183.183 170.999 165.886C187.702 150.756 193.992 132.226 188.679 110.168C184.387 92.4032 168.152 72.1732 139.464 69.1132C139.464 66.9032 139.549 60.6132 139.592 59.3807C143.247 59.8482 146.689 60.3157 150.302 60.7832C150.302 57.2557 150.302 53.8557 150.302 50.4557C134.874 46.0357 109.204 49.5632 92.2044 62.9507C93.0969 64.6082 96.9219 68.6032 99.5144 70.5157C109.289 63.9282 120.084 60.1882 132.239 59.4657C132.239 65.5432 132.239 71.4082 132.239 77.4857C142.652 77.1457 152.172 79.2282 160.884 84.9232C160.884 88.1532 160.842 105.153 160.842 108.681C160.842 109.318 161.352 109.616 162.414 111.826C170.404 128.826 160.034 149.141 140.994 152.711C140.569 152.796 140.144 152.668 139.634 152.668C139.549 152.243 139.464 151.903 139.422 151.563C139.422 148.843 139.422 146.123 139.422 143.106C146.647 141.023 152.044 136.901 154.382 129.123C152.894 129.123 151.619 129.123 150.089 129.123C148.262 133.331 145.287 136.646 140.612 138.176C137.424 139.238 134.237 139.238 131.049 138.133C124.547 135.881 120.509 129.846 120.849 122.833C121.147 116.586 126.162 110.636 132.282 109.233C139.634 107.533 145.584 110.678 150.217 118.796C151.364 118.796 152.639 118.796 154.339 118.796C153.447 114.928 151.449 112.081 148.772 109.573C146.137 107.108 142.907 105.748 139.507 104.771C139.507 101.413 139.507 98.2682 139.507 94.9957C143.077 95.0807 146.179 96.6532 149.579 97.8432C149.579 95.2082 149.579 92.8282 149.579 90.1507C138.232 85.6457 127.224 86.4957 116.812 92.8282C107.207 98.6932 101.597 107.321 99.812 118.796C102.362 118.796 104.487 118.796 106.952 118.796C108.652 111.103 112.519 104.686 119.022 100.053C122.889 97.2907 127.139 95.5907 132.069 94.9107C132.069 98.2257 132.069 101.413 132.069 104.728C122.549 107.618 116.514 113.866 116.599 124.108C116.684 134.096 122.677 140.173 132.154 143.063C132.154 152.073 132.154 160.998 132.154 170.136C121.019 169.116 111.542 164.823 103.637 157.131C95.7319 149.438 91.1844 140.003 89.7394 129.038C86.9769 129.038 84.4694 129.038 81.7069 129.038C81.7069 129.846 81.6219 130.611 81.7069 131.333C83.1094 140.938 86.6369 149.651 92.6719 157.216C94.032 158.916 94.5419 159.468 94.5419 159.468C94.5419 159.468 94.4995 169.413 94.2444 172.813C79.5819 160.446 71.8894 144.636 71.2944 125.638C70.7419 106.641 77.7545 90.4482 91.0994 77.2307C88.5919 74.7232 86.1694 72.3432 83.7469 69.9207C46.7294 103.241 53.5719 170.603 107.844 193.766C107.844 197.081 107.844 200.481 107.844 204.263C91.5669 198.483 78.2644 188.878 67.9369 175.236C57.6519 161.636 52.0844 146.208 50.8519 129.038C47.1119 129.038 43.5419 129.038 40.0144 129.038C41.1194 184.203 93.8195 227.001 146.562 219.436C146.562 215.908 146.562 212.338 146.562 208.471C136.107 209.618 125.822 209.193 115.537 206.558C115.537 203.243 115.537 200.013 115.537 196.486C139.167 202.308 161.012 198.653 180.647 184.246C193.907 174.513 202.959 161.636 207.762 145.911C213.244 127.976 212.097 110.296 204.404 93.1682C196.754 76.1257 184.259 63.7157 167.557 55.5132C167.557 51.9432 167.557 48.5432 167.557 45.1007C190.167 53.0482 216.007 77.3157 220.342 113.483C222.892 134.733 218.174 154.411 206.019 172.091C193.949 189.686 177.289 200.991 156.634 206.558C156.634 213.741 156.634 220.753 156.634 228.021C155.614 228.276 154.722 228.573 153.829 228.701C150.344 229.126 146.859 229.678 143.374 229.891C139.889 230.103 133.217 230.231 128.032 229.891C121.869 229.466 115.792 228.531 109.842 227.001C64.4944 215.398 32.9169 176.001 29.9419 131.801C29.7294 128.783 29.6444 121.091 29.8994 116.161C30.2394 110.253 31.2169 104.473 32.6194 98.7357C41.9269 59.9332 72.5694 28.9932 111.414 19.9832C112.477 19.9407 115.282 19.3457 115.494 19.3457ZM50.6819 118.923C54.5069 83.1807 72.8244 58.3607 105.379 44.2082C105.379 40.2982 105.379 36.5582 105.379 32.4782C84.6394 39.7882 68.1919 52.2407 56.0369 70.2182C46.1769 84.8382 40.5669 100.988 39.7169 118.923C43.5419 118.923 46.9844 118.923 50.6819 118.923ZM89.6544 118.923C92.7994 99.2032 103.849 86.1557 122.294 79.4407C122.294 76.5932 122.294 74.0007 122.294 71.3657C100.449 75.7857 82.4294 97.8857 81.7919 118.923C84.2994 118.923 86.8494 118.923 89.6544 118.923ZM100.024 129.038C100.874 142.468 113.794 155.686 122.039 157.216C122.039 154.751 122.039 152.328 122.039 149.821C113.922 145.146 108.992 138.176 106.994 129.038C105.464 129.038 104.147 129.038 102.872 129.038C101.979 129.038 101.129 129.038 100.024 129.038ZM136.022 129.208C138.657 129.251 141.079 126.871 141.164 124.193C141.292 121.346 138.997 118.966 136.107 118.923C133.259 118.881 130.837 121.176 130.794 124.023C130.794 126.743 133.174 129.166 136.022 129.208Z" fill="#243454"/>
</svg>
