<svg width="250" height="250" viewBox="0 0 250 250" fill="none" xmlns="http://www.w3.org/2000/svg">
<g clip-path="url(#clip0_242_94113)">
<path fill-rule="evenodd" clip-rule="evenodd" d="M249.996 125C249.996 194.036 194.032 250 124.996 250C55.9602 250 -0.00390625 194.036 -0.00390625 125C-0.00390625 55.9641 55.9602 0 124.996 0C194.032 0 249.996 55.9641 249.996 125Z" fill="#127A51"/>
<path fill-rule="evenodd" clip-rule="evenodd" d="M71.1466 140.161C71.1466 137.276 73.4933 134.93 76.3787 134.93C79.2633 134.93 81.6107 137.276 81.6107 140.161C81.6107 143.046 79.2633 145.393 76.3787 145.393C73.4933 145.393 71.1466 143.046 71.1466 140.161ZM35.6073 135.853C35.6073 132.968 37.9546 130.621 40.8393 130.621C43.724 130.621 46.0713 132.968 46.0713 135.853C46.0713 138.738 43.724 141.085 40.8393 141.085C37.9546 141.085 35.6073 138.738 35.6073 135.853ZM47.1798 112.149C47.2508 112.086 47.3208 112.021 47.3908 111.957L47.4038 111.972C47.3318 112.04 47.2548 112.089 47.1798 112.149ZM35.6073 104.85C35.6073 101.965 37.9546 99.6176 40.8393 99.6176C43.724 99.6176 46.0713 101.965 46.0713 104.85C46.0713 107.734 43.724 110.082 40.8393 110.082C37.9546 110.082 35.6073 107.734 35.6073 104.85ZM61.0492 90.5305C61.0492 87.6452 63.3966 85.2985 66.2813 85.2985C69.166 85.2985 71.5133 87.6452 71.5133 90.5305C71.5133 93.4152 69.166 95.7626 66.2813 95.7626C63.3966 95.7626 61.0492 93.4152 61.0492 90.5305ZM81.6411 66.4311C81.6411 63.5457 83.9885 61.199 86.8731 61.199C89.7578 61.199 92.1052 63.5457 92.1052 66.4311C92.1052 69.3158 89.7578 71.6631 86.8731 71.6631C83.9885 71.6631 81.6411 69.3158 81.6411 66.4311ZM90.4056 75.389C93.9753 73.976 96.5113 70.4974 96.5113 66.4311C96.5113 61.1169 92.1874 56.793 86.8731 56.793C81.5589 56.793 77.235 61.1169 77.235 66.4311C77.235 71.4504 81.0934 75.581 85.9995 76.0243V127.267L68.4843 109.466V99.9042C72.7385 98.9042 75.9194 95.0858 75.9194 90.5305C75.9194 85.2163 71.5955 80.8924 66.2813 80.8924C60.9671 80.8924 56.6432 85.2163 56.6432 90.5305C56.6432 95.0858 59.8241 98.9042 64.0782 99.9042V111.271L70.3835 117.678H56.6356C55.753 116.779 54.0955 115.098 52.4332 113.449C51.003 112.03 49.8462 110.909 48.9947 110.118C48.9747 110.099 48.9539 110.08 48.9339 110.062C49.9063 108.557 50.4774 106.77 50.4774 104.85C50.4774 99.5354 46.1535 95.2115 40.8393 95.2115C35.5251 95.2115 31.2012 99.5354 31.2012 104.85C31.2012 110.164 35.5251 114.488 40.8393 114.488C42.6376 114.488 44.3165 113.984 45.7585 113.122C47.4974 114.724 51.0092 118.218 54.1321 121.42L54.7813 122.084H74.7191L113.812 161.813V174.131L84.4298 145.445C85.4298 143.926 86.0161 142.112 86.0161 140.161C86.0161 134.847 81.6929 130.524 76.3787 130.524C71.0644 130.524 66.7405 134.847 66.7405 140.161C66.7405 145.476 71.0644 149.799 76.3787 149.799C78.1473 149.799 79.8013 149.312 81.2281 148.477L95.0928 162.013H69.8476L48.8186 141.252C49.8648 139.71 50.4774 137.852 50.4774 135.853C50.4774 130.539 46.1535 126.215 40.8393 126.215C35.5251 126.215 31.2012 130.539 31.2012 135.853C31.2012 141.167 35.5251 145.491 40.8393 145.491C42.5603 145.491 44.1729 145.032 45.5727 144.238L68.0396 166.419H99.6052L113.812 180.289V189.869L113.57 189.618L94.2067 208.343L97.2696 211.511L113.812 195.513V214.608H118.218V160.009L90.4056 131.745V75.389Z" fill="#FFFFFE"/>
<path fill-rule="evenodd" clip-rule="evenodd" d="M97.9425 90.5293C97.9425 87.644 100.29 85.2973 103.175 85.2973C106.06 85.2973 108.407 87.644 108.407 90.5293C108.407 93.414 106.06 95.7613 103.175 95.7613C100.29 95.7613 97.9425 93.414 97.9425 90.5293ZM112.24 57.6612C112.24 54.7766 114.587 52.4292 117.472 52.4292C120.357 52.4292 122.704 54.7766 122.704 57.6612C122.704 60.5466 120.357 62.8933 117.472 62.8933C114.587 62.8933 112.24 60.5466 112.24 57.6612ZM132.257 83.6446C132.257 80.76 134.604 78.4133 137.489 78.4133C140.373 78.4133 142.721 80.76 142.721 83.6446C142.721 86.53 140.373 88.8767 137.489 88.8767C134.604 88.8767 132.257 86.53 132.257 83.6446ZM147.677 45.03C147.677 42.1453 150.025 39.798 152.909 39.798C155.794 39.798 158.141 42.1453 158.141 45.03C158.141 47.9154 155.794 50.2621 152.909 50.2621C150.025 50.2621 147.677 47.9154 147.677 45.03ZM149.329 129.518C149.329 126.634 151.677 124.286 154.561 124.286C157.447 124.286 159.793 126.634 159.793 129.518C159.793 132.403 157.447 134.75 154.561 134.75C151.677 134.75 149.329 132.403 149.329 129.518ZM156.764 146.545V138.892C161.019 137.892 164.199 134.074 164.199 129.518C164.199 124.204 159.875 119.88 154.561 119.88C149.247 119.88 144.924 124.204 144.924 129.518C144.924 134.074 148.104 137.892 152.359 138.892V144.663L129.234 166.77V152.736L139.692 142.291V120.809L155.112 105.777V54.4043C159.367 53.4036 162.547 49.5853 162.547 45.03C162.547 39.7158 158.224 35.3926 152.909 35.3926C147.595 35.3926 143.271 39.7158 143.271 45.03C143.271 49.5853 146.452 53.4036 150.706 54.4043V103.919L139.692 114.656V93.0189C143.946 92.0183 147.127 88.2006 147.127 83.6446C147.127 78.3304 142.803 74.0072 137.489 74.0072C132.175 74.0072 127.851 78.3304 127.851 83.6446C127.851 88.2006 131.032 92.0183 135.286 93.0189V140.464L129.234 146.509V115.926L119.675 106.563V67.0355C123.929 66.0348 127.11 62.2165 127.11 57.6612C127.11 52.347 122.786 48.0238 117.472 48.0238C112.157 48.0238 107.834 52.347 107.834 57.6612C107.834 62.2165 111.014 66.0348 115.269 67.0355V108.415L124.829 117.777V144.068L105.378 124.48V99.9029C109.632 98.9029 112.813 95.0846 112.813 90.5293C112.813 85.2151 108.489 80.8912 103.175 80.8912C97.8603 80.8912 93.5371 85.2151 93.5371 90.5293C93.5371 95.0846 96.7174 98.9029 100.972 99.9029V126.295L124.829 150.32V214.607H129.234V172.867L156.764 146.545Z" fill="#FFFFFE"/>
<path fill-rule="evenodd" clip-rule="evenodd" d="M182.564 80.5912C182.564 77.7066 184.912 75.3592 187.796 75.3592C190.682 75.3592 193.029 77.7066 193.029 80.5912C193.029 83.4759 190.682 85.8233 187.796 85.8233C184.912 85.8233 182.564 83.4759 182.564 80.5912ZM204.245 131.722C207.129 131.722 209.477 134.069 209.477 136.954C209.477 139.839 207.129 142.187 204.245 142.187C201.359 142.187 199.013 139.839 199.013 136.954C199.013 134.069 201.359 131.722 204.245 131.722ZM166.593 104.85C166.593 101.965 168.94 99.6175 171.825 99.6175C174.71 99.6175 177.058 101.965 177.058 104.85C177.058 107.734 174.71 110.082 171.825 110.082C168.94 110.082 166.593 107.734 166.593 104.85ZM203.921 89.4289C203.921 86.5436 206.268 84.1969 209.153 84.1969C212.037 84.1969 214.385 86.5436 214.385 89.4289C214.385 92.3136 212.037 94.661 209.153 94.661C206.268 94.661 203.921 92.3136 203.921 89.4289ZM190 124.932L211.356 103.821V98.8026C215.61 97.8026 218.791 93.9842 218.791 89.4289C218.791 84.1147 214.467 79.7908 209.153 79.7908C203.839 79.7908 199.515 84.1147 199.515 89.4289C199.515 93.9842 202.696 97.8026 206.95 98.8026V101.981L190 118.736V89.9649C194.254 88.9649 197.435 85.1465 197.435 80.5912C197.435 75.277 193.111 70.9531 187.796 70.9531C182.482 70.9531 178.159 75.277 178.159 80.5912C178.159 85.1465 181.339 88.9649 185.593 89.9649V133.836L174.009 145.378C173.956 133.735 173.918 119.225 173.975 114.237C178.256 113.257 181.463 109.424 181.463 104.85C181.463 99.5353 177.14 95.2114 171.825 95.2114C166.511 95.2114 162.187 99.5353 162.187 104.85C162.187 109.389 165.346 113.195 169.578 114.212C169.491 120.869 169.575 140.296 169.622 149.425L169.948 149.423L136.395 182.852V214.608H140.801V196.312L156.912 211.528L159.937 208.325L140.801 190.252V184.682L157.75 167.796H179.169L200.814 145.95C201.881 146.358 203.035 146.592 204.245 146.592C209.559 146.592 213.882 142.269 213.882 136.954C213.882 131.64 209.559 127.316 204.245 127.316C198.93 127.316 194.607 131.64 194.607 136.954C194.607 139.443 195.563 141.708 197.118 143.42L177.332 163.39H162.172L190 135.666V124.932Z" fill="#FFFFFE"/>
</g>
<defs>
<clipPath id="clip0_242_94113">
<rect width="250" height="250" rx="125" fill="white"/>
</clipPath>
</defs>
</svg>
