<svg width="250" height="250" viewBox="0 0 250 250" fill="none" xmlns="http://www.w3.org/2000/svg">
<g clip-path="url(#clip0_242_94705)">
<path d="M125 250C194.036 250 250 194.036 250 125C250 55.9644 194.036 0 125 0C55.9644 0 0 55.9644 0 125C0 194.036 55.9644 250 125 250Z" fill="#030000"/>
<path fill-rule="evenodd" clip-rule="evenodd" d="M219.418 206.921C197.48 225.971 168.836 237.502 137.5 237.502C68.4645 237.502 12.5 181.538 12.5 112.502C12.5 81.1659 24.031 52.5224 43.0815 30.584C16.6888 53.5024 0 87.3034 0 125.002C0 194.038 55.9645 250.002 125 250.002C162.699 250.002 196.5 233.313 219.418 206.921Z" fill="#53710C"/>
<path d="M166.737 189.586C162.648 189.586 158.9 189.118 157.537 188.884C157.764 186.775 158.287 182.066 158.559 180.098C158.9 177.639 158.559 173.422 156.515 170.61C154.88 168.361 152.881 162.88 152.086 160.42L160.263 161.825C163.534 162.388 167.078 162.528 168.44 162.528C168.214 165.573 167.895 172.438 168.44 175.53C169.122 179.396 172.529 181.153 172.87 183.964C173.211 186.775 171.848 189.586 166.737 189.586Z" fill="#96BD3F"/>
<path d="M117.648 60.4219L118.75 61.2119C117.787 62.4404 115.904 64.2484 114.667 64.7214L114.407 64.8249L114.205 64.9099L113.579 65.1849L112.941 65.4759L109.008 67.3109L108.203 67.6799L107.558 67.9719L106.946 68.2444L106.366 68.4979L105.816 68.7329L105.295 68.9499L104.803 69.1494C104.723 69.1809 104.644 69.2119 104.566 69.2424L104.336 69.3314C102.715 69.9509 100.563 70.9194 98.61 71.8639L97.7255 72.2969C97.437 72.4394 97.156 72.5804 96.8855 72.7179L96.487 72.9219L95.834 71.7619C96.7605 71.2849 97.827 70.7594 98.9195 70.2434L99.86 69.8049C101.115 69.2274 102.362 68.6839 103.432 68.2609L104.048 68.0219L104.514 67.8364L105.009 67.6334L105.532 67.4119L106.374 67.0459L106.976 66.7779L108.136 66.2504L112.354 64.2844L113.155 63.9204L113.661 63.6994L113.974 63.5694L114.155 63.4984C114.656 63.3069 115.39 62.7479 116.205 61.9654L116.456 61.7194L116.705 61.4679L116.942 61.2194L117.163 60.9819L117.358 60.7644L117.523 60.5749C117.547 60.5464 117.57 60.5189 117.591 60.4934L117.648 60.4219Z" fill="#96BD3F"/>
<path d="M100.002 72.0512C100.059 72.0297 100.122 72.0087 100.19 71.9877C100.826 71.7806 101.987 71.4606 102.723 71.4606C103.743 71.4606 107.485 70.2794 110.546 71.1655C112.995 71.8736 115.648 74.0189 116.668 75.0031C116.102 75.0031 114.219 74.944 111.226 74.708C107.485 74.413 105.784 74.1174 104.083 72.6412C102.821 71.5456 101.07 71.7211 100.19 71.9877C100.121 72.0107 100.057 72.0317 100.002 72.0512Z" fill="#96BD3F"/>
<path d="M116.879 67.9386C116.063 66.1999 112.231 65.7653 110.416 65.7653C110.643 65.5238 111.505 64.9682 113.138 64.6782C115.178 64.3161 118.92 65.0407 121.301 66.4899C123.206 67.649 125.949 69.3878 127.083 70.1124C126.97 70.3539 126.131 70.837 123.682 70.837C120.621 70.837 117.899 70.1124 116.879 67.9386Z" fill="#96BD3F"/>
<path d="M99.47 68.2228C97.8359 69.3217 96.5283 68.5893 95.8747 67.1244C95.7657 66.2699 95.8092 64.1216 96.8553 62.3642C97.9009 60.6063 100.777 58.9464 102.085 58.3359C101.758 59.3124 101.104 61.7782 101.104 63.8286C101.104 66.3919 101.104 67.1244 99.47 68.2228Z" fill="#96BD3F"/>
<path d="M111.408 61.5634C109.504 63.7138 107.176 64.4757 106.25 64.5877C106.382 62.7958 106.964 58.8086 108.234 57.1957C109.504 55.5828 112.996 54.5079 114.583 54.1719C114.318 55.7398 113.313 59.413 111.408 61.5634Z" fill="#96BD3F"/>
<path d="M122.598 60.5205C121.059 62.6188 119.393 62.6438 118.752 62.3943C118.752 61.7699 118.816 60.2205 119.072 59.0216C119.393 57.5227 120.354 54.8993 122.277 53.0254C123.816 51.5265 126.123 52.1515 127.085 52.651C126.764 52.901 125.995 53.6254 125.483 54.5248C124.841 55.6488 124.521 57.8971 122.598 60.5205Z" fill="#96BD3F"/>
<path d="M130.407 66.4523C126.894 65.8127 125.34 64.0531 125.002 63.2536C125.903 62.1875 128.448 60.1353 131.421 60.4554C134.393 60.7749 136.713 64.0531 137.501 65.6522C136.601 66.1852 133.92 67.0918 130.407 66.4523Z" fill="#96BD3F"/>
<path d="M106.893 62.5L108.333 63.014L105.607 68.7504L104.166 68.2364L106.893 62.5Z" fill="#96BD3F"/>
<path d="M116.729 62.5L124.999 63.3341L124.936 66.6668L116.666 65.8327L116.729 62.5Z" fill="#96BD3F"/>
<path d="M98.5602 66.6719L100.001 67.1859L97.2741 72.9223L95.834 72.4083L98.5602 66.6719Z" fill="#96BD3F"/>
<path d="M84.7574 123.16C82.6984 124.67 79.6104 125.802 71.7184 124.293C65.4044 123.085 60.1659 120.267 58.3359 119.009C59.7084 119.386 62.9339 120.292 64.8554 120.896C67.2574 121.65 72.4044 121.273 75.1494 120.896C77.8949 120.518 83.0419 117.122 84.7574 116.744C86.4734 116.367 87.5024 117.499 87.5024 119.386C87.5024 121.273 86.8164 121.651 84.7574 123.16Z" fill="#96BD3F"/>
<path d="M71.1929 118.738C67.0784 118.969 60.9074 116.528 58.3359 115.279C59.3154 115.472 61.8624 115.914 64.2134 116.144C67.1519 116.432 72.2949 116.432 73.7644 116.144C75.2334 115.856 78.1724 114.127 80.0089 114.703C81.8459 115.279 81.4784 116.72 80.0089 117.297C78.5394 117.874 76.3354 118.45 71.1929 118.738Z" fill="#96BD3F"/>
<path fill-rule="evenodd" clip-rule="evenodd" d="M103.248 124.933C104.074 127.636 107.235 135.747 110.774 136.76C115.023 137.977 119.18 139.035 127.323 137.625C134.565 136.37 136.206 134.28 137.726 132.345L137.727 132.344C137.916 132.104 138.103 131.866 138.299 131.632C139.405 130.31 140.512 128.299 141.618 126.289C142.282 125.082 142.945 123.876 143.61 122.818C145.38 119.998 146.887 117.018 147.595 112.435C148.304 107.852 147.15 101.666 143.61 99.5506C140.069 97.4356 136.174 98.1406 134.758 98.4931C134.564 98.5411 134.376 98.6031 134.187 98.6651C132.997 99.0561 131.745 99.4676 128.385 96.7301C124.491 93.5576 115.639 87.9166 106.434 89.6796C97.479 91.3941 92.2095 95.7781 89.974 97.6381L89.7935 97.7881C87.669 99.5506 81.65 103.429 77.0475 101.666C72.445 99.9031 67.488 94.9676 68.9045 88.9746C70.3205 82.9816 74.215 80.8661 80.234 81.2186C81.3585 81.2846 82.4585 81.3751 83.5225 81.4626C88.151 81.8436 92.093 82.1676 94.396 80.1611C97.2285 77.6936 97.5825 75.5781 97.5825 73.8156C97.5825 72.0526 96.8745 70.2901 94.042 70.9951C92.6115 71.3516 91.813 72.4271 91.054 73.4501C90.31 74.4521 89.6035 75.4036 88.377 75.5781C86.758 75.8081 83.4765 75.7376 79.915 75.6611C78.025 75.6206 76.0565 75.5781 74.215 75.5781C68.9045 75.5781 63.2395 79.8086 60.053 85.0966C56.8665 90.3846 54.7425 98.4926 57.5745 102.723C59.4135 105.47 62.1485 107.92 64.228 109.782C65.351 110.789 66.2835 111.624 66.78 112.242C67.913 113.652 68.6685 115.18 68.9045 115.767C70.0845 116.002 73.0115 116.261 75.2775 115.415C75.935 115.169 76.5545 114.904 77.136 114.656C79.058 113.835 80.563 113.193 81.65 114.005C83.0665 115.062 83.0665 116.472 82.3585 117.177C82.0905 117.444 82.329 117.307 82.805 117.035C83.589 116.586 85.018 115.767 85.899 115.767C87.315 115.767 88.731 116.825 89.0855 117.882C89.1045 117.939 89.1245 117.998 89.145 118.059C89.5095 119.129 90.0715 120.779 88.731 122.113C87.5985 123.241 86.843 123.523 86.607 123.523C87.905 124.228 91.7055 125.497 96.5205 124.933C101.336 124.369 106.552 121.643 108.558 120.35C107.968 121.173 106.505 122.888 105.372 123.171C104.239 123.453 103.484 124.463 103.248 124.933ZM142.186 198.508C142.451 198.416 142.69 198.331 142.902 198.261C144.601 197.697 145.262 197.086 145.38 196.851C144.082 191.68 141.769 180.212 142.902 175.699C144.035 171.187 147.15 161.362 148.566 157.015C151.399 158.542 158.267 161.668 163.083 161.95C167.898 162.232 174.058 162.067 176.536 161.95C177.363 163.83 179.652 168.155 182.201 170.411C185.388 173.231 188.22 180.987 186.804 184.513C185.388 188.038 184.326 196.146 185.034 197.556C185.742 198.966 192.115 198.966 196.009 198.261C199.904 197.556 202.382 195.089 202.736 193.326C203.09 191.563 202.382 184.865 199.196 179.224C196.009 173.584 196.009 165.476 196.363 159.483C196.647 154.688 197.425 144.323 197.78 139.741C200.494 141.62 207.197 145.593 212.296 146.439C218.229 147.423 220.48 145.046 221.333 144.145L221.335 144.143C221.364 144.112 221.392 144.083 221.417 144.056C221.447 144.025 221.475 143.996 221.501 143.971C222.067 143.407 222.681 142.325 222.917 141.856H216.898C216.171 141.856 215.384 142.331 214.538 142.843C213.323 143.578 211.985 144.386 210.525 143.971C208.047 143.266 199.904 140.093 197.78 134.453C197.083 132.605 196.768 130.378 196.421 127.935V127.934C195.709 122.919 194.868 116.989 190.344 111.537C183.618 103.429 175.12 99.9036 165.207 99.5511C157.276 99.2691 150.101 101.079 147.504 102.019C148.566 105.427 149.72 110.673 148.658 114.551C147.799 117.687 145.026 123.876 142.548 127.402C142.242 127.837 141.922 128.307 141.586 128.8L141.585 128.801C139.2 132.303 136.052 136.926 132.017 137.819C125.644 139.229 121.659 139.388 118.118 139.035C115.286 138.753 112.689 138.918 111.745 139.035C113.043 141.503 115.356 147.144 114.223 149.964C112.807 153.489 109.975 158.425 106.08 160.188C102.186 161.95 105.372 173.584 109.267 177.814C109.693 178.278 110.116 178.75 110.536 179.22C113.95 183.033 117.206 186.671 121.304 184.16C125.373 181.667 125.569 179.449 125.804 176.776C125.834 176.425 125.866 176.066 125.907 175.699C126.19 173.161 126.025 170.176 125.907 169.001C124.727 168.883 122.012 168.648 120.596 168.648H118.118C118.708 167.003 120.455 163.29 122.721 161.598C124.987 159.906 128.857 157.837 130.51 157.015C130.51 161.833 130.368 172.456 129.802 176.404C129.235 180.353 126.733 191.68 125.553 196.851L131.218 199.319C135.362 200.906 139.794 199.349 142.186 198.508ZM102.277 110.321C103.841 110.321 105.109 109.374 105.109 108.205C105.109 107.037 103.841 106.09 102.277 106.09C100.712 106.09 99.444 107.037 99.444 108.205C99.444 109.374 100.712 110.321 102.277 110.321Z" fill="#96BD3F"/>
<path fill-rule="evenodd" clip-rule="evenodd" d="M219.42 206.918C197.482 225.969 168.838 237.5 137.502 237.5C68.4664 237.5 12.502 181.535 12.502 112.5C12.502 81.1635 24.033 52.52 43.0835 30.5816C65.0219 11.5311 93.6655 0 125.002 0C194.037 0 250.002 55.9645 250.002 125C250.002 156.336 238.471 184.98 219.42 206.918ZM245.835 126.041C245.835 185.297 197.799 233.333 138.543 233.333C79.2879 233.333 31.252 185.297 31.252 126.041C31.252 66.786 79.2879 18.75 138.543 18.75C197.799 18.75 245.835 66.786 245.835 126.041Z" fill="#8AC014"/>
<path fill-rule="evenodd" clip-rule="evenodd" d="M250.001 125C250.001 141.874 246.657 157.966 240.597 172.652C234.968 181.162 228.159 188.823 220.403 195.402C236.266 176.698 245.834 152.487 245.834 126.041C245.834 66.786 197.798 18.75 138.542 18.75C112.096 18.75 87.8851 28.3181 69.1816 44.1813C88.8621 20.9771 118.233 6.25 151.042 6.25C156.796 6.25 162.444 6.70295 167.953 7.5751C215.83 25.0926 250.001 71.056 250.001 125Z" fill="#53710C"/>
</g>
<defs>
<clipPath id="clip0_242_94705">
<rect width="250" height="250" fill="white"/>
</clipPath>
</defs>
</svg>
