<svg width="250" height="250" viewBox="0 0 250 250" fill="none" xmlns="http://www.w3.org/2000/svg">
<path d="M124.997 247.986C56.5886 248.032 1.45707 193.08 1.47657 124.692C1.49607 58.2419 53.9446 1.17593 124.951 1.10943C195.563 1.04343 248.656 58.0199 248.555 125.192C248.452 193.402 191.536 248.975 124.997 247.986ZM200.035 50.1264C176.969 28.3819 149.928 19.0149 119.067 20.7549C87.9241 22.5109 62.6711 36.0749 43.2266 60.1599C10.0441 101.262 13.0066 161.007 49.5431 199.862C85.4371 238.034 147.57 242.944 189.355 211.5C210.703 195.436 224.776 174.361 229.695 148.135C235.962 114.72 229.021 84.0139 207.397 57.9014C208.754 51.4869 209.936 45.8989 211.118 40.3109C210.612 40.1069 210.107 39.9034 209.601 39.6994C206.641 42.9264 203.68 46.1534 200.035 50.1264Z" fill="#F5BE1D"/>
<path d="M200.035 50.1273C203.388 46.4733 206.589 43.6228 209.385 40.6783C209.68 40.3683 210.196 40.5918 210.167 41.0183C209.957 44.0653 208.509 52.6498 207.397 57.9033C229.021 84.0153 235.962 114.722 229.696 148.137C224.777 174.363 210.703 195.438 189.356 211.502C147.57 242.946 85.4377 238.036 49.5437 199.864C13.0067 161.009 10.0447 101.264 43.2272 60.1618C62.6717 36.0768 87.9252 22.5128 119.068 20.7568C149.928 19.0158 176.969 28.3828 200.035 50.1273ZM194.41 55.1873C166.668 31.0098 135.813 21.9598 100.991 31.1538C61.4147 41.6033 35.1162 72.1488 28.7267 111.018C23.2197 144.515 34.4252 173.152 58.2642 196.984C58.0252 193.571 56.8012 190.424 56.2257 187.163C49.7342 150.362 69.9902 113.274 104.886 99.2903C122.486 92.2378 140.697 86.7263 158.435 79.9993C172.005 74.8533 183.33 66.1393 194.41 55.1873ZM205.094 67.8568C204.31 68.2343 203.856 68.3003 203.71 68.5483C202.896 69.9328 202.092 71.3303 201.402 72.7793C195.375 85.4208 186.863 96.1353 174.246 102.326C162.735 107.975 150.799 113.332 138.464 116.618C102.212 126.277 77.7227 147.413 67.8737 184.305C64.5637 196.703 66.3407 205.24 74.2572 210.004C98.6312 224.67 124.684 229.062 152.201 221.247C207.354 205.583 237.35 148.805 219.259 94.5018C216.053 84.8813 211.468 75.8088 205.094 67.8568Z" fill="white"/>
<path d="M194.409 55.187C183.329 66.139 172.004 74.853 158.434 79.999C140.696 86.7255 122.485 92.2375 104.885 99.29C69.9898 113.273 49.7338 150.362 56.2248 187.163C56.7998 190.424 58.0243 193.57 58.2633 196.984C34.4243 173.151 23.2188 144.515 28.7253 111.018C35.1148 72.1485 61.4133 41.603 100.99 31.1535C135.812 21.9595 166.667 31.0095 194.409 55.187Z" fill="#F5BE1D"/>
<path d="M204.725 67.3242C211.098 75.2757 216.054 84.8802 219.259 94.5007C237.35 148.804 207.354 205.582 152.201 221.246C124.685 229.061 98.6317 224.668 74.2572 210.002C66.3407 205.239 64.5637 196.702 67.8737 184.303C77.7227 147.412 102.212 126.275 138.464 116.617C150.799 113.33 162.735 107.973 174.246 102.325C186.863 96.1337 195.375 85.4192 201.402 72.7777C202.092 71.3292 202.896 69.9312 203.71 68.5467C203.856 68.2992 204.133 67.9352 204.725 67.3242ZM189.827 95.8097C187.611 97.4127 186.295 98.5527 184.814 99.4032C178.48 103.04 172.396 107.335 165.674 110.023C150.235 116.197 134.356 121.267 118.89 127.379C108.002 131.681 97.9167 137.562 91.1172 147.637C89.8437 149.523 89.1067 151.772 87.9417 154.235C89.6072 154.492 90.1792 154.766 90.6092 154.62C109.695 148.148 129.384 146.509 149.384 146.977C152.897 147.059 156.508 146.451 159.945 145.624C180.29 140.731 189.604 115.594 189.827 95.8097ZM165.818 150.29C165.47 149.782 165.122 149.274 164.773 148.767C157.327 149.132 149.846 149.161 142.442 149.935C128.254 151.42 113.973 152.632 100.007 155.369C93.4572 156.652 87.1937 160.673 81.4597 164.453C76.5377 167.697 73.7353 172.928 73.5013 179.297C74.7123 179.425 75.2427 179.582 75.7407 179.51C76.4412 179.409 77.1742 179.247 77.7957 178.923C89.9792 172.569 102.907 173.693 115.597 176.013C134.636 179.493 149.232 172.849 160.831 158.174C162.748 155.747 164.168 152.928 165.818 150.29ZM140.608 178.962C127.936 185.374 115.604 183.547 103.116 181.48C95.7142 180.254 88.1347 179.795 80.9082 183.086C73.8722 186.29 68.9257 192.534 69.3347 198.475C78.9002 194.29 88.2502 196.839 97.7427 198.789C103.636 200 109.765 200.751 115.763 200.615C126.645 200.369 138.191 190.305 140.608 178.962Z" fill="#F5BE1D"/>
<path d="M189.826 95.8086C189.603 115.593 180.289 140.73 159.944 145.624C156.507 146.45 152.895 147.059 149.383 146.976C129.383 146.508 109.693 148.148 90.6076 154.62C90.2886 154.728 89.4861 154.781 88.7126 154.565C88.2831 154.445 88.0701 153.963 88.2536 153.556C89.2466 151.358 89.9606 149.349 91.1161 147.636C97.9156 137.561 108.001 131.681 118.889 127.378C134.355 121.266 150.234 116.197 165.673 110.022C172.395 107.334 178.479 103.039 184.813 99.4026C186.295 98.5516 187.61 97.4116 189.826 95.8086Z" fill="white"/>
<path d="M165.737 150.418C164.121 153.019 162.716 155.788 160.829 158.175C149.23 172.85 134.634 179.495 115.595 176.014C102.905 173.694 89.9771 172.57 77.7936 178.924C77.1726 179.248 76.4396 179.41 75.7386 179.511C75.4391 179.555 75.1271 179.515 74.6621 179.449C73.9911 179.353 73.5161 178.744 73.5776 178.069C74.1076 172.256 76.8561 167.487 81.4576 164.454C87.1916 160.674 93.4551 156.653 100.005 155.37C113.971 152.633 128.252 151.421 142.44 149.936C149.844 149.162 157.325 149.133 164.771 148.768C165.213 149.524 165.295 149.663 165.737 150.418Z" fill="white"/>
<path d="M140.608 178.963C138.191 190.306 126.646 200.371 115.762 200.617C109.764 200.752 103.636 200.001 97.7422 198.79C88.2497 196.84 78.8997 194.292 69.3342 198.476C68.9252 192.535 73.8717 186.291 80.9077 183.087C88.1342 179.796 95.7142 180.255 103.116 181.481C115.604 183.548 127.936 185.375 140.608 178.963Z" fill="white"/>
</svg>
