<svg width="250" height="250" viewBox="0 0 250 250" fill="none" xmlns="http://www.w3.org/2000/svg">
<path d="M125.399 248.951C193.855 248.951 249.349 193.456 249.349 125.001C249.349 56.5451 193.855 1.05078 125.399 1.05078C56.9435 1.05078 1.44922 56.5451 1.44922 125.001C1.44922 193.456 56.9435 248.951 125.399 248.951Z" fill="url(#paint0_linear_242_93430)"/>
<path d="M109.101 99.5004H62.8008V81.9004H134.301L124.201 92.8504C120.351 97.1004 114.851 99.5004 109.101 99.5004Z" fill="white"/>
<path d="M109.101 150.596H62.8008V168.196H134.301L124.201 157.246C120.351 152.996 114.851 150.596 109.101 150.596Z" fill="white"/>
<path d="M91.3008 116.248H62.8008V133.848H91.3008V116.248Z" fill="white"/>
<path d="M186.85 82.1504L143.95 125.05L186.85 167.95H169.05C164.85 167.95 160.85 166.3 157.9 163.35L119.35 124.8L157.3 86.8004C160.25 83.8504 164.3 82.1504 168.5 82.1504H186.85Z" fill="white"/>
<defs>
<linearGradient id="paint0_linear_242_93430" x1="37.7597" y1="212.624" x2="213.033" y2="37.3513" gradientUnits="userSpaceOnUse">
<stop stop-color="#C08429"/>
<stop offset="1" stop-color="#FDEA8C"/>
</linearGradient>
</defs>
</svg>
