<svg width="250" height="250" viewBox="0 0 250 250" fill="none" xmlns="http://www.w3.org/2000/svg">
<path d="M81.1758 51.9102H167.066L123.946 95.0302L81.1758 51.9102Z" fill="url(#paint0_linear_242_93431)"/>
<path d="M167.065 51.9102L123.945 95.0302V51.9102H167.065Z" fill="#00B4F8"/>
<path d="M82.0156 198.491H167.906L124.821 155.371L82.0156 198.491Z" fill="url(#paint1_linear_242_93431)"/>
<path d="M167.905 198.491L124.82 155.371V198.491H167.905Z" fill="#FDD754"/>
<path d="M182.467 76.2715L133.887 125.516L182.047 173.676L210.782 125.691L182.467 76.2715Z" fill="#15A63E"/>
<path d="M133.887 125.516L182.467 76.2715L210.782 125.691L133.887 125.516Z" fill="url(#paint2_linear_242_93431)"/>
<path d="M67.0007 76.2715L115.581 125.516L67.4557 173.676L38.7207 125.691L67.0007 76.2715Z" fill="#15A63E"/>
<path d="M115.581 125.516L67.0007 76.2715L38.7207 125.691L115.581 125.516Z" fill="url(#paint3_linear_242_93431)"/>
<defs>
<linearGradient id="paint0_linear_242_93431" x1="81.1715" y1="73.4757" x2="167.073" y2="73.4757" gradientUnits="userSpaceOnUse">
<stop stop-color="#198FC0"/>
<stop offset="0.4966" stop-color="#27CDFF"/>
</linearGradient>
<linearGradient id="paint1_linear_242_93431" x1="82.0199" y1="176.935" x2="167.921" y2="176.935" gradientUnits="userSpaceOnUse">
<stop stop-color="#F5D22D"/>
<stop offset="0.5011" stop-color="#FFF58D"/>
</linearGradient>
<linearGradient id="paint2_linear_242_93431" x1="172.339" y1="125.696" x2="172.339" y2="76.2662" gradientUnits="userSpaceOnUse">
<stop stop-color="#29B24E"/>
<stop offset="1" stop-color="#45C665"/>
</linearGradient>
<linearGradient id="paint3_linear_242_93431" x1="77.1556" y1="125.696" x2="77.1556" y2="76.2662" gradientUnits="userSpaceOnUse">
<stop stop-color="#29B24E"/>
<stop offset="1" stop-color="#45C665"/>
</linearGradient>
</defs>
</svg>
