<svg width="250" height="250" viewBox="0 0 250 250" fill="none" xmlns="http://www.w3.org/2000/svg">
<rect width="250" height="250" rx="125" fill="white"/>
<path d="M188.029 80.0742C212.326 80.0742 232.02 100.163 232.02 124.945C232.02 149.727 212.326 169.816 188.029 169.816C163.733 169.816 144.038 149.727 144.038 124.945C144.038 100.163 163.733 80.0742 188.029 80.0742ZM132.434 19.959C144.15 19.959 153.648 29.6465 153.648 41.5973C153.648 53.5481 144.15 63.2356 132.434 63.2356C120.717 63.2356 111.219 53.5481 111.219 41.5973C111.219 29.6465 120.726 19.959 132.434 19.959ZM132.434 186.76C144.15 186.76 153.648 196.447 153.648 208.398C153.648 220.349 144.15 230.037 132.434 230.037C120.717 230.037 111.219 220.349 111.219 208.398C111.219 196.447 120.726 186.76 132.434 186.76ZM122.72 157.345C123.972 157.768 125.336 157.988 126.692 157.988C134.005 157.988 139.963 151.911 139.963 144.452C139.963 136.993 134.005 130.916 126.692 130.916C121.986 130.916 117.911 133.364 115.511 137.098V137.204C115.096 137.741 114.777 138.375 114.569 139.018C99.9431 165.342 70.5782 147.755 70.5782 147.755C65.769 144.875 60.2344 143.175 54.1732 143.175C36.5163 143.175 22.2008 157.777 22.2008 175.787C22.2008 193.797 36.5163 208.398 54.1732 208.398C66.5029 208.398 77.2697 201.256 82.4934 190.811V190.705C83.4345 188.891 84.1684 186.971 84.7901 184.946C100.047 149.243 122.72 157.345 122.72 157.345ZM115.191 109.489C115.821 110.66 116.65 111.832 117.591 112.792C122.815 118.12 131.173 118.12 136.293 112.792C141.517 107.463 141.517 98.9384 136.293 93.716C132.952 90.3078 128.35 89.1365 124.171 90.0964H124.067C123.437 90.2021 122.712 90.4134 122.081 90.7393C93.4502 98.8416 84.8851 65.1555 84.8851 65.1555C83.5295 59.616 80.7061 54.3936 76.5272 50.1311C63.9903 37.3348 43.8295 37.3348 31.3876 50.0166C18.9457 62.6984 18.8507 83.3768 31.3876 96.0586C40.1686 105.015 52.6018 107.675 63.6795 104.055H63.7831C65.6653 103.412 67.5476 102.567 69.4299 101.607C104.847 87.3223 115.191 109.489 115.191 109.489Z" fill="#2B5EBA"/>
</svg>
