<svg width="250" height="250" viewBox="0 0 250 250" fill="none" xmlns="http://www.w3.org/2000/svg">
<path d="M144.665 204.166L67.4902 159.576C67.0002 159.296 66.6852 158.736 66.6852 158.176V91.816C66.6852 91.221 67.0002 90.696 67.4902 90.416L47.7852 101.721V158.176C47.7852 165.491 51.7052 172.281 58.0402 175.956L115.51 209.136C118.66 210.956 122.23 211.866 125.765 211.866C129.3 211.866 132.87 210.956 136.02 209.136L144.665 204.166Z" fill="#1992EE"/>
<path d="M119.045 182.082L73.5801 155.622V96.4375L119.22 122.687V138.962L87.4751 120.167V147.782L119.22 166.018L119.045 182.082Z" fill="#1992EE"/>
<path d="M73.5801 96.4393L125.31 66.6543V82.7193L87.5801 104.419L73.5801 96.4393Z" fill="#1861B8"/>
<path d="M125.311 66.6543L176.446 96.4393L162.726 104.489L125.311 82.7193V66.6543Z" fill="#124E95"/>
<path d="M162.726 104.488L125.311 125.838V185.198L176.656 155.623V139.348L139.206 161.293V133.853L176.446 112.503V96.4375L162.726 104.488Z" fill="#1475BF"/>
<path d="M184.985 69.1035L184.88 158.249C184.88 158.844 184.565 159.369 184.075 159.649L126.57 192.759C126.08 193.039 125.45 193.039 124.925 192.759L144.56 204.169L193.49 176.029C199.825 172.389 203.745 165.564 203.78 158.284L203.85 91.9235C203.85 88.2835 202.87 84.7485 201.12 81.6685C199.335 78.5885 196.78 75.9635 193.63 74.1435L184.985 69.1035Z" fill="#1475BF"/>
<path d="M47.785 101.758L124.995 57.238C125.485 56.958 126.115 56.958 126.605 57.238L184.075 90.453C184.565 90.733 184.88 91.293 184.88 91.853L184.95 69.138L136.055 40.893C129.72 37.218 121.88 37.218 115.545 40.893L58.04 74.038C54.89 75.858 52.3 78.483 50.515 81.563C48.73 84.643 47.75 88.178 47.75 91.818L47.785 101.758Z" fill="#1863BB"/>
</svg>
