<svg width="250" height="250" viewBox="0 0 250 250" fill="none" xmlns="http://www.w3.org/2000/svg">
<g clip-path="url(#clip0_242_94125)">
<path d="M124.998 249.998C194.034 249.998 249.998 194.034 249.998 124.998C249.998 55.9624 194.034 -0.00195312 124.998 -0.00195312C55.9624 -0.00195312 -0.00195312 55.9624 -0.00195312 124.998C-0.00195312 194.034 55.9624 249.998 124.998 249.998Z" fill="#396A28"/>
<path fill-rule="evenodd" clip-rule="evenodd" d="M141.194 103.217L124.999 87.0293L108.694 103.326L91.7881 86.4199L124.999 39.0605L158.437 85.9746L141.194 103.217ZM103.046 108.982L87.0303 124.998L103.218 141.193L86.374 158.037L39.0615 124.998L85.8584 91.7949L103.046 108.982ZM146.671 141.303L162.968 124.998L146.843 108.873L164.233 91.4824L210.937 124.998L163.718 158.35L146.671 141.303ZM108.874 146.85L124.999 162.967L141.015 146.951L158.062 164.006L124.999 210.936L92.1553 163.561L108.874 146.85ZM124.999 97.8652L152.124 124.998L124.999 152.123L97.874 124.998L124.999 97.8652Z" fill="white"/>
</g>
<defs>
<clipPath id="clip0_242_94125">
<rect width="250" height="250" rx="125" fill="white"/>
</clipPath>
</defs>
</svg>
