<svg width="250" height="250" viewBox="0 0 250 250" fill="none" xmlns="http://www.w3.org/2000/svg">
<path d="M175.157 38.4824L224.912 125.112L175.157 211.954L164.561 193.986L204.641 125.218L164.561 54.6243H85.0903L74.4941 38.4824H175.157Z" fill="#C4A9D4"/>
<path d="M74.4941 38.4824L24.9121 125.218L74.4941 211.954H175.157L164.561 193.986H85.2558L45.7538 125.218L85.0902 54.6243L74.4941 38.4824Z" fill="#AE9ACD"/>
<path d="M87.4326 87.3633H161.671V161.301L146.713 146.344V103.172H132.055V131.987L116.948 117.679V102.972H87.4326V87.3633Z" fill="#C4A9D4"/>
<path d="M116.948 117.682H87.4326V132.089H132.055L116.948 117.682Z" fill="#AE9ACD"/>
<path d="M146.713 146.348H87.4326V161.305H161.671L146.713 146.348Z" fill="#AE9ACD"/>
</svg>
