<svg width="250" height="250" viewBox="0 0 250 250" fill="none" xmlns="http://www.w3.org/2000/svg">
<rect width="250" height="250" rx="125" fill="white"/>
<path d="M34.561 72.4003C64.8953 54.8878 95.2046 37.3897 125.526 19.8848C155.897 37.4203 186.208 54.9205 216.504 72.4122C216.504 107.53 216.504 142.529 216.504 177.629C186.208 195.121 155.898 212.621 125.525 230.159C95.2038 212.654 64.8919 195.155 34.5605 177.644C34.561 142.578 34.561 107.581 34.561 72.4003ZM79.4401 151.619C79.4401 134.141 79.4401 116.716 79.4401 99.2463C65.4321 90.9095 51.4764 82.6041 37.3443 74.1938C37.3443 108.272 37.3443 142.07 37.3443 175.938C66.2167 192.606 95.0737 209.266 124.115 226.031C124.115 209.62 124.115 193.56 124.115 177.423C109.236 168.829 94.3631 160.238 79.4401 151.619ZM171.584 151.633C156.623 160.273 141.783 168.842 127.046 177.353C127.046 193.601 127.046 209.719 127.046 225.971C156.051 209.224 184.898 192.567 213.642 175.971C213.642 142.535 213.642 109.288 213.642 75.8024C199.5 83.9684 185.548 92.0243 171.584 100.088C171.584 117.312 171.584 134.423 171.584 151.633ZM212.27 73.2801C183.183 56.4866 154.349 39.8394 125.522 23.1955C97.0572 39.6307 68.6795 56.0157 40.117 72.5074C54.0923 80.8306 67.7904 88.9885 81.5613 97.1897C96.2251 88.7263 110.86 80.2794 125.525 71.8155C140.442 80.4264 155.315 89.0119 170.172 97.5879C184.204 89.4857 198.118 81.4515 212.27 73.2801ZM124.087 174.086C124.087 157.876 124.087 141.885 124.087 125.832C110.204 117.571 96.3347 109.318 82.3127 100.974C82.3127 117.493 82.3127 133.685 82.3127 149.972C96.1804 157.977 110.054 165.986 124.087 174.086ZM126.965 174.081C141.042 165.955 154.887 157.963 168.658 150.014C168.658 133.905 168.658 117.927 168.658 101.773C154.618 109.88 140.739 117.894 126.965 125.847C126.965 141.959 126.965 157.878 126.965 174.081ZM84.405 98.8659C98.192 107.08 111.836 115.21 125.531 123.37C139.414 115.349 153.262 107.35 167.294 99.2433C153.191 91.1007 139.35 83.1099 125.523 75.1263C111.807 83.0453 98.1975 90.9027 84.405 98.8659Z" fill="black"/>
<path d="M124.088 174.084C110.055 165.984 96.1812 157.975 82.3135 149.97C82.3135 133.683 82.3135 117.492 82.3135 100.973C96.3355 109.316 110.205 117.569 124.088 125.83C124.088 141.884 124.088 157.875 124.088 174.084Z" fill="#104F9D"/>
<path d="M126.965 174.081C126.965 157.879 126.965 141.959 126.965 125.848C140.739 117.895 154.618 109.881 168.658 101.773C168.658 117.927 168.658 133.906 168.658 150.014C154.887 157.964 141.042 165.956 126.965 174.081Z" fill="#33AFFF"/>
<path d="M84.4053 98.8646C98.1978 90.9014 111.808 83.044 125.523 75.125C139.35 83.1082 153.191 91.0995 167.294 99.242C153.262 107.348 139.415 115.348 125.531 123.368C111.836 115.208 98.1923 107.079 84.4053 98.8646Z" fill="#E32EA2"/>
<path d="M59.9105 164.975C59.9445 166.223 58.9801 167.236 57.7229 167.273C56.43 167.311 55.4307 166.396 55.3797 165.129C55.33 163.896 56.3152 162.853 57.5665 162.815C58.8233 162.778 59.8774 163.749 59.9105 164.975Z" fill="black"/>
<path d="M45.288 174.635C43.9768 174.613 43.063 173.681 43.0753 172.378C43.0876 171.097 44.0508 170.167 45.3501 170.182C46.6498 170.196 47.5849 171.156 47.55 172.44C47.5143 173.777 46.6065 174.657 45.288 174.635Z" fill="black"/>
<path d="M72.1791 157.626C72.2106 158.924 71.2934 159.902 70.0174 159.932C68.7559 159.961 67.7414 158.999 67.7163 157.748C67.6908 156.476 68.6344 155.477 69.8997 155.435C71.1756 155.393 72.1477 156.328 72.1791 157.626Z" fill="black"/>
<path d="M203.001 174.417C201.731 174.43 200.707 173.464 200.677 172.226C200.648 171.026 201.691 169.954 202.905 169.936C204.174 169.917 205.17 170.865 205.208 172.128C205.245 173.362 204.24 174.405 203.001 174.417Z" fill="black"/>
<path d="M178.14 159.958C176.917 159.957 175.908 158.924 175.916 157.681C175.924 156.433 176.933 155.428 178.171 155.434C179.377 155.439 180.407 156.486 180.416 157.714C180.425 158.909 179.361 159.958 178.14 159.958Z" fill="black"/>
<path d="M190.745 162.776C191.886 162.788 192.861 163.827 192.832 164.998C192.803 166.175 191.689 167.232 190.515 167.197C189.438 167.165 188.333 166.046 188.329 164.981C188.324 163.724 189.379 162.76 190.745 162.776Z" fill="black"/>
<path d="M127.083 47.873C127.106 49.0622 126.051 50.1592 124.858 50.186C123.681 50.2123 122.562 49.148 122.526 47.969C122.491 46.8219 123.583 45.6883 124.763 45.6475C125.9 45.608 127.061 46.7216 127.083 47.873Z" fill="black"/>
<path d="M124.806 64.5107C123.558 64.5077 122.525 63.4927 122.53 62.275C122.536 61.0637 123.576 60.0543 124.819 60.0547C126.061 60.0547 127.101 61.0769 127.091 62.2874C127.081 63.5063 126.046 64.5137 124.806 64.5107Z" fill="black"/>
<path d="M124.775 31.3268C126.006 31.2971 127.066 32.3065 127.083 33.5234C127.099 34.7415 126.083 35.765 124.842 35.7828C123.578 35.8007 122.56 34.8371 122.529 33.5931C122.499 32.4038 123.537 31.357 124.775 31.3268Z" fill="black"/>
</svg>
