<svg width="250" height="250" viewBox="0 0 250 250" fill="none" xmlns="http://www.w3.org/2000/svg">
<g clip-path="url(#clip0_242_94107)">
<path d="M124.994 250C194.03 250 249.994 194.036 249.994 125C249.994 55.9644 194.03 0 124.994 0C55.9585 0 -0.00585938 55.9644 -0.00585938 125C-0.00585938 194.036 55.9585 250 124.994 250Z" fill="url(#paint0_radial_242_94107)"/>
<path d="M105.736 151.126L176.232 80.5179C176.232 80.5179 144.024 41.4413 93.4614 63.2882C93.4614 63.2882 49.8803 81.7566 54.7959 130.592C56.5729 148.245 63.9794 164.896 77.0988 176.84C89.0549 187.725 107.574 197.587 134.115 194.144C134.115 194.144 153.484 191.892 168.124 177.477L184.565 193.694C184.565 193.694 141.885 238.288 77.3578 204.842C77.3578 204.842 42.4479 187.387 32.538 139.64C32.538 139.64 22.4029 77.2521 79.1596 45.2701C79.1596 45.2701 139.52 9.90978 188.394 60.3602L196.727 53.153C196.727 53.153 155.398 7.20707 92.6731 28.153C92.6731 28.153 36.3668 45.2701 24.8803 98.6485C24.8803 98.6485 8.4389 160.022 52.1326 198.761C52.1326 198.761 98.4164 245.833 162.155 219.932C162.155 219.932 179.948 214.752 199.205 193.919L168.349 162.838C168.349 162.838 147.741 193.13 107.988 181.757C107.988 181.757 55.9614 170.495 66.4344 110.811C66.4344 110.811 74.3173 70.608 121.164 66.5539C121.164 66.5539 143.461 64.8647 160.691 80.0674L98.3038 143.356L105.736 151.126Z" fill="white"/>
</g>
<defs>
<radialGradient id="paint0_radial_242_94107" cx="0" cy="0" r="1" gradientUnits="userSpaceOnUse" gradientTransform="translate(100.025 53.3412) scale(266.739)">
<stop stop-color="#F2EC05"/>
<stop offset="0.06" stop-color="#EDEB07"/>
<stop offset="0.13" stop-color="#DFE70C"/>
<stop offset="0.2" stop-color="#C8E114"/>
<stop offset="0.28" stop-color="#A8D820"/>
<stop offset="0.35" stop-color="#7ECD2F"/>
<stop offset="0.43" stop-color="#4CBF41"/>
<stop offset="0.47" stop-color="#2FB74B"/>
<stop offset="0.55" stop-color="#33B765"/>
<stop offset="0.62" stop-color="#37B77A"/>
<stop offset="0.67" stop-color="#38B782"/>
<stop offset="0.84" stop-color="#0AAEA4"/>
</radialGradient>
<clipPath id="clip0_242_94107">
<rect width="250" height="250" rx="125" fill="white"/>
</clipPath>
</defs>
</svg>
