<svg width="250" height="250" viewBox="0 0 250 250" fill="none" xmlns="http://www.w3.org/2000/svg">
<path d="M50.6708 103.211C52.8808 107.902 58.3379 117.237 58.3379 117.237L121.389 13.0098L59.8714 55.9907C56.2182 58.4262 53.1965 61.7636 51.1218 65.6423C45.4391 77.5038 45.2587 91.2595 50.6708 103.211Z" fill="url(#paint0_linear_242_93440)"/>
<path d="M25.6874 137.534C27.0855 157.694 37.143 176.276 53.2439 188.498L121.301 235.944C121.301 235.944 78.7258 174.562 42.7805 113.495C39.1274 107.046 36.692 100.01 35.5644 92.6588C35.0683 89.3665 35.0683 85.9839 35.5644 82.6465C34.6173 84.3603 32.8133 87.9233 32.8133 87.9233C29.1601 95.3649 26.6796 103.303 25.4619 111.466C24.7854 120.215 24.8305 128.92 25.6874 137.534Z" fill="#A0A8D4"/>
<path d="M199.323 145.788C197.113 141.098 191.656 131.762 191.656 131.762L128.605 235.989L190.168 193.054C193.821 190.618 196.843 187.281 198.917 183.402C204.6 171.541 204.735 157.785 199.323 145.788Z" fill="url(#paint1_linear_242_93440)"/>
<path d="M224.309 111.465C222.911 91.3046 212.853 72.7231 196.752 60.5008L128.695 13.0098C128.695 13.0098 171.27 74.3918 207.216 135.458C210.824 141.908 213.259 148.943 214.387 156.295C214.883 159.587 214.883 162.97 214.387 166.307C215.334 164.593 217.138 161.03 217.138 161.03C220.791 153.589 223.271 145.651 224.489 137.488C225.211 128.783 225.166 120.079 224.309 111.465Z" fill="#A0A8D4"/>
<path d="M51.0791 65.6423C53.1537 61.7636 56.1755 58.4262 59.8286 55.9907L121.391 13.0098L58.3403 117.283C58.3403 117.283 52.838 107.992 50.6732 103.256C45.2611 91.2595 45.3964 77.5038 51.0791 65.6423ZM25.6874 137.533C27.0855 157.693 37.143 176.274 53.2439 188.497L121.301 235.943C121.301 235.943 78.7258 174.56 42.7805 113.494C39.1274 107.045 36.692 100.009 35.5644 92.6576C35.0683 89.3652 35.0683 85.9827 35.5644 82.6452C34.6173 84.3591 32.8133 87.922 32.8133 87.922C29.1601 95.3636 26.6796 103.301 25.4619 111.465C24.7854 120.214 24.8305 128.919 25.6874 137.533ZM199.235 145.786C197.025 141.096 191.568 131.76 191.568 131.76L128.607 235.988L190.17 193.052C193.823 190.616 196.844 187.279 198.919 183.4C204.602 171.539 204.737 157.783 199.325 145.786H199.235ZM224.221 111.465C222.822 91.3046 212.765 72.7231 196.664 60.5008L128.697 13.0098C128.697 13.0098 171.272 74.3918 207.218 135.458C210.826 141.908 213.261 148.943 214.389 156.295C214.885 159.587 214.885 162.97 214.389 166.307C215.336 164.593 217.14 161.03 217.14 161.03C220.793 153.589 223.273 145.651 224.491 137.488C225.213 128.828 225.123 120.169 224.311 111.51L224.221 111.465Z" fill="url(#paint2_linear_242_93440)"/>
<defs>
<linearGradient id="paint0_linear_242_93440" x1="124.132" y1="15.5488" x2="43.2022" y2="103.282" gradientUnits="userSpaceOnUse">
<stop offset="0.58" stop-color="#A0A8D4"/>
<stop offset="0.73" stop-color="#8791C7"/>
<stop offset="0.91" stop-color="#6470B4"/>
</linearGradient>
<linearGradient id="paint1_linear_242_93440" x1="125.875" y1="233.445" x2="206.816" y2="145.728" gradientUnits="userSpaceOnUse">
<stop offset="0.58" stop-color="#A0A8D4"/>
<stop offset="0.73" stop-color="#8791C7"/>
<stop offset="0.91" stop-color="#6470B4"/>
</linearGradient>
<linearGradient id="paint2_linear_242_93440" x1="125" y1="11.9119" x2="125" y2="236.672" gradientUnits="userSpaceOnUse">
<stop stop-color="#513EFF"/>
<stop offset="0.18" stop-color="#5157FF"/>
<stop offset="0.57" stop-color="#5298FF"/>
<stop offset="1" stop-color="#52E5FF"/>
</linearGradient>
</defs>
</svg>
