<svg width="250" height="250" viewBox="0 0 250 250" fill="none" xmlns="http://www.w3.org/2000/svg">
<rect width="250" height="250" rx="125" fill="white"/>
<path fill-rule="evenodd" clip-rule="evenodd" d="M151.997 20.0703L129.982 34.3503L125.944 80.1653L156.672 45.8253C156.672 45.8678 151.997 20.0703 151.997 20.0703Z" fill="black"/>
<path fill-rule="evenodd" clip-rule="evenodd" d="M93.2197 46.0781L95.7697 92.0206L117.317 106.938L122.8 81.2681L93.2197 46.0781Z" fill="black"/>
<path fill-rule="evenodd" clip-rule="evenodd" d="M127.388 81.0553L132.063 106.853L154.078 92.5728L158.115 46.7578L127.388 81.0553Z" fill="black"/>
<path fill-rule="evenodd" clip-rule="evenodd" d="M157.48 95.5915L142.562 117.096L168.232 122.579L203.423 93.084L157.48 95.5915Z" fill="black"/>
<path fill-rule="evenodd" clip-rule="evenodd" d="M168.489 127.252L142.691 131.927L156.971 153.942L202.786 157.979L168.489 127.252Z" fill="black"/>
<path fill-rule="evenodd" clip-rule="evenodd" d="M153.955 157.388L132.45 142.471L126.968 168.098L156.463 203.288L153.955 157.388Z" fill="black"/>
<path fill-rule="evenodd" clip-rule="evenodd" d="M117.785 142.768L95.7279 157.048L91.6904 202.863L122.418 168.565L117.785 142.768Z" fill="black"/>
<path fill-rule="evenodd" clip-rule="evenodd" d="M81.4058 126.869L46.2158 156.364L92.1583 153.857L107.076 132.352L81.4058 126.869Z" fill="black"/>
<path fill-rule="evenodd" clip-rule="evenodd" d="M92.6666 95.4652L46.8516 91.4277L81.1491 122.155L106.947 117.48C106.947 117.523 92.6666 95.4652 92.6666 95.4652Z" fill="black"/>
<path fill-rule="evenodd" clip-rule="evenodd" d="M45.9596 92.873L20.1621 97.548L34.4421 119.606L80.2571 123.643C80.2996 123.601 45.9596 92.873 45.9596 92.873Z" fill="black"/>
<path fill-rule="evenodd" clip-rule="evenodd" d="M91.5622 46.46L70.0147 31.5L64.5322 57.17L94.0697 92.4025L91.5622 46.46Z" fill="black"/>
<path fill-rule="evenodd" clip-rule="evenodd" d="M192.328 64.5254L157.138 94.0204L203.08 91.4704L217.998 69.9654L192.328 64.5254Z" fill="black"/>
<path fill-rule="evenodd" clip-rule="evenodd" d="M215.153 129.887L169.338 125.85L203.635 156.577L229.433 151.902L215.153 129.887Z" fill="black"/>
<path fill-rule="evenodd" clip-rule="evenodd" d="M155.526 157.045L158.076 202.987L179.581 217.905L185.064 192.277L155.526 157.045Z" fill="black"/>
<path fill-rule="evenodd" clip-rule="evenodd" d="M92.9658 203.583L97.6408 229.38L119.698 215.1L123.736 169.285L92.9658 203.583Z" fill="black"/>
<path fill-rule="evenodd" clip-rule="evenodd" d="M46.5552 157.941L31.6377 179.446L57.3077 184.929L92.4977 155.434L46.5552 157.941Z" fill="black"/>
<path fill-rule="evenodd" clip-rule="evenodd" d="M58.4561 185.647L90.2886 202.477L94.1561 156.109C94.1136 156.109 58.4561 185.647 58.4561 185.647Z" fill="black"/>
<path fill-rule="evenodd" clip-rule="evenodd" d="M34.7822 120.877L45.4072 155.259L80.9372 125.212L34.7822 120.877Z" fill="black"/>
<path fill-rule="evenodd" clip-rule="evenodd" d="M63.8949 58.3223L47.1074 90.1123L93.4324 94.0223C93.4749 94.0223 63.8949 58.3223 63.8949 58.3223Z" fill="black"/>
<path fill-rule="evenodd" clip-rule="evenodd" d="M94.3232 45.2739L124.328 80.8464L128.663 34.6914L94.3232 45.2739Z" fill="black"/>
<path fill-rule="evenodd" clip-rule="evenodd" d="M159.436 47.0156L155.526 93.3831L191.226 63.8031L159.436 47.0156Z" fill="black"/>
<path fill-rule="evenodd" clip-rule="evenodd" d="M204.272 94.2344L168.699 124.239L214.854 128.532C214.897 128.574 204.272 94.2344 204.272 94.2344Z" fill="black"/>
<path fill-rule="evenodd" clip-rule="evenodd" d="M156.163 155.434L185.743 191.134L202.531 159.344L156.163 155.434Z" fill="black"/>
<path fill-rule="evenodd" clip-rule="evenodd" d="M125.305 168.607L121.013 214.762L155.353 204.18L125.305 168.607Z" fill="black"/>
</svg>
