<svg width="250" height="250" viewBox="0 0 250 250" fill="none" xmlns="http://www.w3.org/2000/svg">
<rect width="250" height="250" rx="125" fill="white"/>
<path opacity="0.4" d="M166.783 38.4091C166.783 38.4091 74.5071 30.9574 22.6907 130.695C22.6907 130.695 -0.0234337 195.327 60.3108 209.686C60.3108 209.686 135.551 217.655 151.877 189.973C168.202 162.29 92.6414 169.388 92.6414 169.388C92.6414 169.388 51.793 148.803 51.0833 146.674C50.3736 144.544 47.5338 133.897 47.5338 133.897L54.6327 114.022L92.6418 79.2419L166.783 38.4091Z" fill="#C53CEC"/>
<path opacity="0.4" d="M152.286 87.5307L162.223 92.9032C162.223 92.9032 162.233 148.329 98.7207 164.416C98.7207 164.416 164.826 163.966 175.59 93.2695C175.591 93.2695 165.535 86.5539 152.286 87.5307Z" fill="#CB42EC"/>
<path d="M85.0886 155.197C85.0886 155.197 88.8743 122.072 115.374 102.671C141.874 83.2699 166.244 86.3451 175.59 93.0884C184.936 99.8317 188.071 124.532 178.459 139.687C168.847 154.842 134.388 202.515 48.4577 192.579L38.5957 183.59C38.5957 183.59 48.1784 207.3 86.9815 210.352C86.9815 210.352 142.512 212.929 184.309 171.76C226.105 130.591 226.104 105.037 226.104 105.037C226.104 105.037 234.148 84.216 219.005 60.0823C203.862 35.9485 111.589 67.6527 111.589 67.6527C111.589 67.6527 47.7052 118.759 85.0886 155.197Z" fill="url(#paint0_linear_242_94665)"/>
<path d="M224.5 72.3145C224.5 72.3145 195.304 179.635 105.395 209.186C105.395 209.186 176.219 204.522 218.348 130.046C218.348 130.046 236.33 94.5552 224.5 72.3145Z" fill="url(#paint1_linear_242_94665)"/>
<path d="M168.847 154.846C200.241 114.683 175.59 93.0922 175.59 93.0922C173.105 122.904 148.709 143.134 148.709 143.134C101.243 177.56 85.0886 155.201 85.0886 155.201C60.5995 108.353 111.352 77.8311 111.352 77.8311C185.172 34.8873 219.007 60.0857 219.007 60.0857C186.119 18.2063 119.16 49.7944 119.16 49.7944C119.16 49.7944 61.6654 73.5723 41.79 119.355C21.9146 165.139 38.5959 183.594 38.5959 183.594C43.9194 199.564 82.605 196.015 82.605 196.015C82.605 196.015 141.981 189.217 168.847 154.846Z" fill="url(#paint2_linear_242_94665)"/>
<defs>
<linearGradient id="paint0_linear_242_94665" x1="238.111" y1="122.324" x2="50.7203" y2="138.413" gradientUnits="userSpaceOnUse">
<stop stop-color="#E265D9"/>
<stop offset="0.119" stop-color="#DB65D9"/>
<stop offset="0.287" stop-color="#C965D9"/>
<stop offset="0.485" stop-color="#AB65DA"/>
<stop offset="0.705" stop-color="#8066DA"/>
<stop offset="0.94" stop-color="#4B66DB"/>
<stop offset="1" stop-color="#3C66DB"/>
</linearGradient>
<linearGradient id="paint1_linear_242_94665" x1="209.397" y1="116.768" x2="143.246" y2="193.864" gradientUnits="userSpaceOnUse">
<stop stop-color="#E265D9"/>
<stop offset="0.134" stop-color="#DB63DA"/>
<stop offset="0.324" stop-color="#C95CDD"/>
<stop offset="0.547" stop-color="#AB51E2"/>
<stop offset="0.793" stop-color="#8142E9"/>
<stop offset="1" stop-color="#5834F0"/>
</linearGradient>
<linearGradient id="paint2_linear_242_94665" x1="32.0452" y1="117.361" x2="219.007" y2="117.361" gradientUnits="userSpaceOnUse">
<stop stop-color="#2CB0EC"/>
<stop offset="0.428" stop-color="#3489E3"/>
<stop offset="0.786" stop-color="#3A70DD"/>
<stop offset="1" stop-color="#3C66DB"/>
</linearGradient>
</defs>
</svg>
