<svg width="250" height="250" viewBox="0 0 250 250" fill="none" xmlns="http://www.w3.org/2000/svg">
<g clip-path="url(#clip0_242_94132)">
<path d="M124.998 229.297C82.0465 229.297 45.2624 203.416 29.2932 166.412L42.7293 161.786C56.8262 193.284 88.324 215.2 124.998 215.2C166.628 215.2 201.54 187.006 212.002 148.79L185.791 157.271C174.227 178.967 151.32 193.835 124.998 193.835C97.6853 193.835 74.0069 177.865 62.9936 154.738L89.095 145.597L83.9188 172.689L249.778 118.614C246.474 52.535 191.848 0.00195312 124.998 0.00195312C55.9452 0.00195312 -0.00195312 55.9491 -0.00195312 125.002C-0.00195312 131.5 0.548708 137.998 1.42976 144.275L132.047 102.425L124.888 126.654L211.121 98.35C199.668 61.676 165.417 34.9138 124.998 34.9138C78.9628 34.9138 40.9672 69.4953 35.5707 114.099L20.9232 118.724C24.2271 64.0989 69.6016 20.7068 125.108 20.7068C176.43 20.7068 219.161 57.8213 227.861 106.72L108.588 145.817L114.205 119.826L3.85267 155.619C17.5091 209.804 66.628 249.892 124.998 249.892C190.086 249.892 243.5 200.112 249.447 136.566L227.641 143.614C218.831 192.293 176.21 229.297 124.998 229.297ZM124.998 56.1693C149.447 56.1693 170.923 68.9447 183.148 88.1077L151.76 98.6804L157.928 75.0019L58.8086 106.61C66.7381 77.535 93.3901 56.1693 124.998 56.1693Z" fill="#2727A4"/>
</g>
<defs>
<clipPath id="clip0_242_94132">
<rect width="250" height="250" rx="125" fill="white"/>
</clipPath>
</defs>
</svg>
