<svg width="250" height="250" viewBox="0 0 250 250" fill="none" xmlns="http://www.w3.org/2000/svg">
<path d="M163.28 164.091C153.27 164.091 143.295 160.276 135.665 152.681L130.345 147.361L136.295 141.411L141.615 146.731C153.55 158.666 173.01 158.666 184.945 146.731C190.72 140.956 193.905 133.256 193.905 125.066C193.905 116.876 190.72 109.176 184.945 103.401C179.17 97.6259 171.47 94.4409 163.28 94.4409C155.09 94.4409 147.39 97.6259 141.615 103.401L136.12 108.896L130.17 102.946L135.665 97.4509C143.05 90.0659 152.85 86.0059 163.28 86.0059C173.71 86.0059 183.51 90.0659 190.895 97.4509C198.28 104.836 202.34 114.636 202.34 125.066C202.34 135.496 198.28 145.296 190.895 152.681C183.265 160.276 173.29 164.091 163.28 164.091Z" fill="#00EAC2"/>
<path d="M87.2586 164.439C77.9836 164.439 68.5686 160.974 61.3586 154.919C55.3036 149.809 48.0586 140.499 48.0586 125.134C48.0586 109.979 55.8986 100.809 62.4786 95.7689C71.0186 89.2239 80.9936 86.8789 87.5036 86.8789C102.239 86.8789 110.604 94.6139 111.409 95.4189L131.814 114.879L105.634 141.059C100.629 146.064 94.1886 148.689 87.0486 148.689C81.6236 148.689 76.1286 146.904 71.9986 143.789C68.1486 140.884 63.5986 135.424 63.5986 125.799C63.5986 116.244 68.0786 110.434 71.8586 107.249C76.0936 103.644 81.7286 101.509 86.9086 101.509C96.5336 101.509 103.674 108.719 103.989 108.999L106.894 111.974L80.0836 138.784C82.2186 139.729 84.6686 140.219 87.0486 140.219C92.0186 140.219 96.2536 138.469 99.7186 135.039L119.844 114.914L105.564 101.299C105.319 101.054 99.1236 95.1739 87.5386 95.1739C82.6386 95.1739 74.5186 97.0289 67.6236 102.314C62.5136 106.269 56.4586 113.374 56.4586 125.099C56.4586 137.209 62.0586 144.489 66.7836 148.479C72.3836 153.204 80.0486 156.039 87.2586 156.039C100.244 156.039 108.434 147.149 108.504 147.044L108.679 146.869L148.334 107.459C149.209 106.584 154.389 101.684 163.314 101.684C168.739 101.684 174.514 103.679 178.819 107.074C182.774 110.154 187.464 115.894 187.464 125.659C187.464 142.984 173.429 149.284 164.014 149.284C157.644 149.284 151.519 146.694 146.829 142.004L141.649 136.824L147.599 130.874L152.779 136.054C154.984 138.259 158.729 140.884 164.049 140.884C175.949 140.884 179.099 130.944 179.099 125.659C179.099 120.549 177.279 116.489 173.674 113.689C170.279 111.029 166.114 110.084 163.349 110.084C157.784 110.084 154.774 112.954 154.459 113.269L154.319 113.409L114.664 152.749C113.474 154.044 103.394 164.439 87.2586 164.439ZM86.9086 109.944C82.0436 109.944 71.9986 113.829 71.9986 125.799C71.9986 128.704 72.5936 131.189 73.7486 133.289L94.6436 112.394C92.6136 111.169 89.8836 109.944 86.9086 109.944Z" fill="#00EAC2"/>
</svg>
