<svg width="250" height="250" viewBox="0 0 250 250" fill="none" xmlns="http://www.w3.org/2000/svg">
<g clip-path="url(#clip0_242_94710)">
<path d="M125 250.002C194.036 250.002 250 194.038 250 125.002C250 55.9664 194.036 0.00195312 125 0.00195312C55.9644 0.00195312 0 55.9664 0 125.002C0 194.038 55.9644 250.002 125 250.002Z" fill="#EDF0F4"/>
<path d="M194.481 89.647C188.305 82.66 179.967 79.168 169.462 79.168C163.288 79.168 157.814 80.445 153.046 82.99C148.365 85.4925 144.628 88.7455 141.827 92.764V79.9815H109.815V128.884C109.815 134.088 108.462 138.172 105.757 141.155C103.047 144.135 99.3645 145.623 94.7095 145.623C90.1595 145.623 86.505 144.135 83.741 141.155C80.98 138.172 79.598 134.086 79.598 128.884V79.9815H47.916V132.951C47.916 144.968 50.976 154.478 57.0925 161.465C63.215 168.446 71.584 171.941 82.194 171.941C88.3705 171.941 93.845 170.667 98.611 168.122C103.372 165.583 107.114 162.25 109.815 158.132V171.128H141.827V119.341C142.251 115.488 143.553 112.362 145.74 109.957C148.444 106.982 152.181 105.486 156.944 105.486C161.494 105.486 165.125 106.982 167.835 109.957C170.537 112.937 171.893 117.023 171.893 122.227V171.131H203.743V117.999C203.743 106.083 200.652 96.631 194.479 89.644L194.481 89.647Z" fill="#042751"/>
</g>
<defs>
<clipPath id="clip0_242_94710">
<rect width="250" height="250" fill="white"/>
</clipPath>
</defs>
</svg>
