<svg width="250" height="250" viewBox="0 0 250 250" fill="none" xmlns="http://www.w3.org/2000/svg">
<rect width="250" height="250" rx="125" fill="white"/>
<g clip-path="url(#clip0_242_94605)">
<path d="M18.4662 165.802V99.2729H11.3652L17.8661 83.3535H52.0992L51.1432 99.2729H34.744V117.227H49.467L48.508 133.146H34.744V151.22H52.0992L51.3718 163.313C40.3625 163.988 29.394 164.818 18.4662 165.802Z" fill="#171717"/>
<path fill-rule="evenodd" clip-rule="evenodd" d="M238.666 166.676L226.41 83.3555H198.519L192.016 99.2748H199.357L190.037 162.938C195.388 163.236 200.728 163.572 206.059 163.944L207.376 155.172H220.782L222.282 165.189C227.754 165.648 233.215 166.144 238.667 166.679L238.666 166.676ZM214.082 109.329L218.509 139.253H209.653L214.082 109.329Z" fill="#171717"/>
<path d="M184.664 162.648V83.3535H168.389V119.74H161.807V83.3535H144.929L138.426 99.2729V83.3535H100.003L97.0703 99.2729H111.132V161.158C116.559 161.1 121.985 161.078 127.412 161.093V99.2729H145.524V161.284C150.961 161.384 156.388 161.521 161.804 161.693V135.659H168.387V161.922C173.824 162.126 179.25 162.369 184.665 162.648H184.664Z" fill="#171717"/>
<path fill-rule="evenodd" clip-rule="evenodd" d="M98.9165 161.351L93.1353 140.926C95.7675 138.294 97.084 133.905 97.0847 127.76V100.469C97.0847 94.4064 95.7285 90.0581 93.016 87.4243C90.3816 84.7104 85.9921 83.3535 79.8477 83.3535H57.9451L51.4424 99.2729H58.5433V162.892C63.959 162.594 69.3849 162.332 74.8209 162.106V144.876H78.0538L82.7853 161.801C88.1547 161.614 93.5318 161.465 98.9165 161.351ZM80.2096 99.2729H74.8225V128.957H80.2096C80.2908 128.968 80.3737 128.961 80.4516 128.935C80.5295 128.909 80.6002 128.865 80.6583 128.807C80.7164 128.749 80.7601 128.678 80.786 128.6C80.812 128.523 80.8195 128.44 80.8078 128.358V99.8711C80.8193 99.7898 80.8118 99.7069 80.7857 99.6291C80.7597 99.5512 80.7159 99.4804 80.6578 99.4224C80.5997 99.3644 80.5289 99.3206 80.451 99.2947C80.373 99.2687 80.2902 99.2613 80.2089 99.2729H80.2096Z" fill="#171717"/>
</g>
<defs>
<clipPath id="clip0_242_94605">
<rect width="227.302" height="227.302" fill="white" transform="translate(11.3652 11.3652)"/>
</clipPath>
</defs>
</svg>
