<svg width="250" height="250" viewBox="0 0 250 250" fill="none" xmlns="http://www.w3.org/2000/svg">
<path d="M125 166C148.196 166 167 147.196 167 124C167 100.804 148.196 82 125 82C101.804 82 83 100.804 83 124C83 147.196 101.804 166 125 166Z" fill="url(#paint0_linear_242_93443)"/>
<path d="M131.248 35H48.447C41.0292 35 35 41.0219 35 48.4672V131.35C35 177.555 72.4909 215 118.752 215H201.553C208.971 215 215 208.978 215 201.569V118.65C215 72.4453 177.509 35 131.248 35ZM45.3045 59.708C45.3045 52.2628 51.3337 46.2409 58.7881 46.2409C66.2424 46.2409 72.2716 52.2628 72.2716 59.708C72.2716 67.1533 66.2424 73.1752 58.7881 73.1752C51.3337 73.1752 45.3045 67.1533 45.3045 59.708ZM125.11 192.117C87.7284 192.117 57.3995 161.861 57.3995 124.489C57.3995 87.1533 87.6918 56.8613 125.11 56.8613C162.491 56.8613 192.82 87.1168 192.82 124.489C192.82 161.825 162.491 192.117 125.11 192.117ZM190.883 204.015C183.429 204.015 177.4 197.993 177.4 190.547C177.4 183.102 183.429 177.08 190.883 177.08C198.337 177.08 204.367 183.102 204.367 190.547C204.367 197.956 198.337 204.015 190.883 204.015Z" fill="url(#paint1_linear_242_93443)"/>
<path d="M125.5 82.3171C148.741 82.3171 167.683 101.223 167.683 124.5C167.683 147.777 148.741 166.683 125.5 166.683C102.259 166.683 83.3171 147.741 83.3171 124.5C83.3171 101.259 102.259 82.3171 125.5 82.3171ZM125.5 57C88.2348 57 58 87.1983 58 124.5C58 161.765 88.1983 192 125.5 192C162.765 192 193 161.802 193 124.5C193 87.2347 162.765 57 125.5 57Z" fill="white"/>
<path d="M59 73C66.732 73 73 66.9558 73 59.5C73 52.0442 66.732 46 59 46C51.268 46 45 52.0442 45 59.5C45 66.9558 51.268 73 59 73Z" fill="white"/>
<path d="M191 204C198.18 204 204 197.956 204 190.5C204 183.044 198.18 177 191 177C183.82 177 178 183.044 178 190.5C178 197.956 183.82 204 191 204Z" fill="white"/>
<defs>
<linearGradient id="paint0_linear_242_93443" x1="33.2088" y1="32.2076" x2="211.056" y2="210.055" gradientUnits="userSpaceOnUse">
<stop stop-color="#13429B"/>
<stop offset="1" stop-color="#3EA8FF"/>
</linearGradient>
<linearGradient id="paint1_linear_242_93443" x1="32.3245" y1="32.4292" x2="211.285" y2="211.607" gradientUnits="userSpaceOnUse">
<stop stop-color="#13429B"/>
<stop offset="1" stop-color="#3EA8FF"/>
</linearGradient>
</defs>
</svg>
