<svg width="250" height="250" viewBox="0 0 250 250" fill="none" xmlns="http://www.w3.org/2000/svg">
<rect width="250" height="250" rx="125" fill="white"/>
<g clip-path="url(#clip0_242_94666)">
<path d="M66.653 131.91L62.332 123.425L118.094 95.0254L122.415 103.509L66.653 131.91Z" fill="#6ADC1C"/>
<path d="M125.017 171.028L57.8242 128.208L125.017 11.3652V171.028ZM70.6129 125.068L115.496 153.671V47.0201L70.6129 125.068V125.068Z" fill="#FFE900"/>
<path d="M125.015 238.667L55.4336 139.186L125.015 182.839V238.667ZM90.1452 172.202L115.494 208.443V188.105L90.1452 172.202Z" fill="#00D6E3"/>
<path d="M182.153 131.91L126.392 103.509L130.713 95.0254L186.474 123.425L182.153 131.91Z" fill="#DA69C7"/>
<path d="M125.017 171.028V11.3652L192.209 128.208L125.017 171.028ZM134.538 47.0201V153.671L179.42 125.068L134.538 47.0201Z" fill="#FF968E"/>
<path d="M125.021 238.667V182.839L194.602 139.186L125.021 238.667ZM134.542 188.105V208.443L159.89 172.202L134.542 188.105Z" fill="#419EF4"/>
</g>
<defs>
<clipPath id="clip0_242_94666">
<rect width="227.302" height="227.302" fill="white" transform="translate(11.3652 11.3633)"/>
</clipPath>
</defs>
</svg>
