<svg width="250" height="250" viewBox="0 0 250 250" fill="none" xmlns="http://www.w3.org/2000/svg">
<rect width="250" height="250" rx="125" fill="black"/>
<path d="M65.5977 124.492L124.534 27.3262V99.3854L65.5977 124.492Z" fill="url(#paint0_linear_242_93447)"/>
<path d="M183.273 123.746L124.533 99.3854V27.3262L183.273 123.746Z" fill="url(#paint1_linear_242_93447)"/>
<path d="M65.5977 124.492L124.298 158.832L124.534 99.3848L65.5977 124.492Z" fill="url(#paint2_linear_242_93447)"/>
<path d="M183.274 123.745L124.299 158.832L124.535 99.3848L183.274 123.745Z" fill="url(#paint3_linear_242_93447)"/>
<path d="M64.8496 136.16L124.296 222.325V169.832L64.8496 136.16Z" fill="#6C87DC"/>
<path d="M184.453 136.16L124.299 169.832V222.325L184.453 136.16Z" fill="#C8CBF8"/>
<path d="M154.274 143.823L124.531 102.214L94.7097 143.037L91.5664 85.3581L94.0024 85.2402L96.7528 136.082L124.531 98.049L152.153 136.633L154.157 86.7726L156.593 86.8512L154.274 143.823Z" fill="#B0B4E9"/>
<path d="M92.8636 88.5398C97.0297 88.5398 100.407 85.1625 100.407 80.9965C100.407 76.8304 97.0297 73.4531 92.8636 73.4531C88.6976 73.4531 85.3203 76.8304 85.3203 80.9965C85.3203 85.1625 88.6976 88.5398 92.8636 88.5398Z" fill="url(#paint4_linear_242_93447)"/>
<path d="M96.6374 78.2051C96.2445 78.2051 95.8515 77.93 95.7336 77.5371C95.6158 77.2227 95.38 76.8298 94.5155 76.6726C94.0047 76.594 93.6511 76.0832 93.7297 75.5331C93.8083 75.0223 94.3191 74.6687 94.8692 74.7473C96.5981 75.0616 97.3054 76.0832 97.5804 76.9084C97.7376 77.4192 97.4625 77.9693 96.9517 78.1265C96.8339 78.2051 96.716 78.2051 96.6374 78.2051Z" fill="#DADCF4"/>
<path d="M124.848 107.007C129.014 107.007 132.391 103.629 132.391 99.4633C132.391 95.2972 129.014 91.9199 124.848 91.9199C120.682 91.9199 117.305 95.2972 117.305 99.4633C117.305 103.629 120.682 107.007 124.848 107.007Z" fill="url(#paint5_linear_242_93447)"/>
<path d="M128.62 96.6758C128.227 96.6758 127.834 96.4007 127.716 96.0078C127.598 95.6934 127.362 95.3005 126.498 95.1433C125.987 95.0648 125.634 94.5539 125.712 94.0038C125.791 93.493 126.302 93.1394 126.852 93.218C128.581 93.5323 129.288 94.5539 129.563 95.3791C129.72 95.8899 129.445 96.44 128.934 96.5972C128.816 96.6758 128.738 96.6758 128.62 96.6758Z" fill="#DADCF4"/>
<path d="M96.0453 147.042C100.211 147.042 103.589 143.664 103.589 139.498C103.589 135.332 100.211 131.955 96.0453 131.955C91.8792 131.955 88.502 135.332 88.502 139.498C88.502 143.664 91.8792 147.042 96.0453 147.042Z" fill="url(#paint6_linear_242_93447)"/>
<path d="M99.821 136.711C99.4281 136.711 99.0351 136.436 98.9172 136.043C98.7994 135.729 98.5636 135.336 97.6991 135.178C97.1883 135.1 96.8347 134.589 96.9133 134.039C96.9919 133.528 97.5027 133.175 98.0528 133.253C99.7817 133.567 100.489 134.589 100.764 135.414C100.921 135.925 100.646 136.475 100.135 136.632C100.017 136.711 99.8996 136.711 99.821 136.711Z" fill="#DADCF4"/>
<path d="M153.018 146.925C157.184 146.925 160.561 143.547 160.561 139.381C160.561 135.215 157.184 131.838 153.018 131.838C148.852 131.838 145.475 135.215 145.475 139.381C145.475 143.547 148.852 146.925 153.018 146.925Z" fill="url(#paint7_linear_242_93447)"/>
<path d="M156.792 136.594C156.399 136.594 156.006 136.319 155.888 135.926C155.77 135.611 155.534 135.218 154.67 135.061C154.159 134.983 153.805 134.472 153.884 133.922C153.963 133.411 154.473 133.057 155.023 133.136C156.752 133.45 157.46 134.472 157.735 135.297C157.892 135.808 157.617 136.358 157.106 136.515C156.988 136.554 156.87 136.594 156.792 136.594Z" fill="#DADCF4"/>
<path d="M155.965 88.4207C160.131 88.4207 163.509 85.0434 163.509 80.8773C163.509 76.7113 160.131 73.334 155.965 73.334C151.799 73.334 148.422 76.7113 148.422 80.8773C148.422 85.0434 151.799 88.4207 155.965 88.4207Z" fill="url(#paint8_linear_242_93447)"/>
<path d="M159.699 78.0879C159.306 78.0879 158.913 77.8128 158.795 77.4199C158.677 77.1056 158.442 76.7126 157.577 76.5554C157.066 76.4769 156.713 75.966 156.791 75.4159C156.87 74.9051 157.381 74.5515 157.931 74.6301C159.66 74.9444 160.367 75.966 160.642 76.7912C160.799 77.302 160.524 77.8521 160.013 78.0093C159.935 78.0486 159.817 78.0879 159.699 78.0879Z" fill="#DADCF4"/>
<defs>
<linearGradient id="paint0_linear_242_93447" x1="82.2639" y1="134.106" x2="139.073" y2="35.7107" gradientUnits="userSpaceOnUse">
<stop stop-color="#A795F2"/>
<stop offset="0.539" stop-color="#B7D0E1"/>
</linearGradient>
<linearGradient id="paint1_linear_242_93447" x1="110.078" y1="35.6728" x2="166.517" y2="133.428" gradientUnits="userSpaceOnUse">
<stop offset="0.3147" stop-color="#E1EFF3"/>
<stop offset="1" stop-color="#B6DDF5"/>
</linearGradient>
<linearGradient id="paint2_linear_242_93447" x1="88.8563" y1="147.748" x2="130.873" y2="105.731" gradientUnits="userSpaceOnUse">
<stop stop-color="#D6CDFB"/>
<stop offset="1" stop-color="#DEE1F9"/>
</linearGradient>
<linearGradient id="paint3_linear_242_93447" x1="115.47" y1="150.014" x2="162.495" y2="102.989" gradientUnits="userSpaceOnUse">
<stop stop-color="#EBF1F1"/>
<stop offset="1" stop-color="#FBFCF7"/>
</linearGradient>
<linearGradient id="paint4_linear_242_93447" x1="87.5312" y1="86.3243" x2="98.1883" y2="75.6672" gradientUnits="userSpaceOnUse">
<stop stop-color="#758ED6"/>
<stop offset="1" stop-color="#C6CBF4"/>
</linearGradient>
<linearGradient id="paint5_linear_242_93447" x1="119.524" y1="104.806" x2="130.182" y2="94.1485" gradientUnits="userSpaceOnUse">
<stop stop-color="#758ED6"/>
<stop offset="1" stop-color="#C6CBF4"/>
</linearGradient>
<linearGradient id="paint6_linear_242_93447" x1="90.7167" y1="144.825" x2="101.374" y2="134.168" gradientUnits="userSpaceOnUse">
<stop stop-color="#758ED6"/>
<stop offset="1" stop-color="#C6CBF4"/>
</linearGradient>
<linearGradient id="paint7_linear_242_93447" x1="147.691" y1="144.698" x2="158.348" y2="134.041" gradientUnits="userSpaceOnUse">
<stop stop-color="#758ED6"/>
<stop offset="1" stop-color="#C6CBF4"/>
</linearGradient>
<linearGradient id="paint8_linear_242_93447" x1="150.623" y1="86.1956" x2="161.28" y2="75.5385" gradientUnits="userSpaceOnUse">
<stop stop-color="#758ED6"/>
<stop offset="1" stop-color="#C6CBF4"/>
</linearGradient>
</defs>
</svg>
