<svg width="250" height="250" viewBox="0 0 250 250" fill="none" xmlns="http://www.w3.org/2000/svg">
<path d="M155.367 105.221L169.669 116.049L178.698 122.881L168.615 128.032L148.338 138.389L155.294 143.198L165.026 149.924L154.513 155.35L90.0156 188.61C100.729 194.516 112.766 197.605 125 197.587C165.085 197.587 197.581 165.091 197.581 125.005C197.607 108.004 191.639 91.5372 180.726 78.5L155.367 105.221Z" fill="#091B26"/>
<path d="M94.6323 148.578L80.3302 137.754L71.3013 130.922L81.3834 125.771L101.661 115.411L94.7047 110.602L84.973 103.875L95.4856 98.4498L163.409 63.4201C151.894 56.2171 138.581 52.4066 124.999 52.4259C84.9131 52.4259 52.417 84.9219 52.417 125.008C52.417 143.644 59.4426 160.636 70.9873 173.489L94.6323 148.578Z" fill="#091B26"/>
<path d="M66.565 178.147C53.7777 164.105 45.9776 145.448 45.9776 125.006C45.9776 81.4329 81.4267 45.9838 125 45.9838C141.067 45.9663 156.754 50.8754 169.945 60.0489L177.007 56.4079C162.549 45.4182 144.522 38.8848 125 38.8848C77.513 38.8848 38.8789 77.5185 38.8789 125.006C38.8789 147.472 47.5299 167.954 61.6709 183.303L66.565 178.147Z" fill="#091B26"/>
<path d="M185.162 73.8311C196.916 87.6285 204.022 105.501 204.022 125.005C204.022 168.578 168.573 204.027 125 204.027C110.248 204.043 95.7888 199.905 83.2791 192.085L76.0449 195.816C90.4156 205.802 107.501 211.145 125 211.126C172.487 211.126 211.122 172.492 211.122 125.005C211.122 103.475 203.181 83.7687 190.075 68.6543L185.162 73.8311Z" fill="#091B26"/>
<path d="M84.6154 132.089L105.248 147.703L58.6465 196.801L151.256 149.035L134.528 137.47L165.386 121.704L144.753 106.091L191.355 56.9922L98.7453 104.758L115.474 116.323L84.6154 132.089Z" fill="#23BEE2"/>
</svg>
