<svg width="250" height="250" viewBox="0 0 250 250" fill="none" xmlns="http://www.w3.org/2000/svg">
<rect width="250" height="250" rx="125" fill="white"/>
<path d="M92.1338 97.5723L77.9238 105.902L92.9388 114.337V164.527L107.149 155.637V106.427L92.1338 97.5723Z" fill="#383534"/>
<path d="M121.712 97.5723L107.502 105.902L122.517 114.337V164.527L136.762 155.637V106.427L121.712 97.5723Z" fill="#383534"/>
<path d="M151.776 97.5723L137.531 105.902L152.581 114.337V164.527L166.791 155.637V106.427L151.776 97.5723Z" fill="#383534"/>
<path d="M187.72 85.6748C190.04 85.6748 191.92 83.7946 191.92 81.4751C191.92 79.1557 190.04 77.2754 187.72 77.2754C185.401 77.2754 183.521 79.1557 183.521 81.4751C183.521 83.7946 185.401 85.6748 187.72 85.6748Z" fill="#FAC83A"/>
<path d="M201.019 128.129C206.722 128.129 211.344 123.506 211.344 117.804C211.344 112.101 206.722 107.479 201.019 107.479C195.317 107.479 190.694 112.101 190.694 117.804C190.694 123.506 195.317 128.129 201.019 128.129Z" fill="#13608A"/>
<path d="M194.544 165.684C199.087 165.684 202.769 162.002 202.769 157.459C202.769 152.917 199.087 149.234 194.544 149.234C190.002 149.234 186.319 152.917 186.319 157.459C186.319 162.002 190.002 165.684 194.544 165.684Z" fill="#1077A6"/>
<path d="M169.135 193.825C173.039 193.825 176.205 190.659 176.205 186.755C176.205 182.851 173.039 179.686 169.135 179.686C165.231 179.686 162.065 182.851 162.065 186.755C162.065 190.659 165.231 193.825 169.135 193.825Z" fill="#228DC1"/>
<path d="M132.7 205.687C135.599 205.687 137.95 203.336 137.95 200.437C137.95 197.538 135.599 195.188 132.7 195.188C129.801 195.188 127.45 197.538 127.45 200.437C127.45 203.336 129.801 205.687 132.7 205.687Z" fill="#29A7D6"/>
<path d="M93.3957 196.799C95.3289 196.799 96.896 195.232 96.896 193.299C96.896 191.366 95.3289 189.799 93.3957 189.799C91.4626 189.799 89.8955 191.366 89.8955 193.299C89.8955 195.232 91.4626 196.799 93.3957 196.799Z" fill="#33BDEE"/>
<path d="M63.0509 181.748C70.0483 181.748 75.7209 176.076 75.7209 169.078C75.7209 162.081 70.0483 156.408 63.0509 156.408C56.0534 156.408 50.3809 162.081 50.3809 169.078C50.3809 176.076 56.0534 181.748 63.0509 181.748Z" fill="#E61912"/>
<path d="M49.6803 142.62C55.7692 142.62 60.7053 137.684 60.7053 131.595C60.7053 125.506 55.7692 120.57 49.6803 120.57C43.5913 120.57 38.6553 125.506 38.6553 131.595C38.6553 137.684 43.5913 142.62 49.6803 142.62Z" fill="#E44114"/>
<path d="M56.7837 102.089C62.0414 102.089 66.3037 97.8266 66.3037 92.5688C66.3037 87.3111 62.0414 83.0488 56.7837 83.0488C51.5259 83.0488 47.2637 87.3111 47.2637 92.5688C47.2637 97.8266 51.5259 102.089 56.7837 102.089Z" fill="#E65A12"/>
<path d="M81.4955 71.1492C86.038 71.1492 89.7205 67.4668 89.7205 62.9242C89.7205 58.3817 86.038 54.6992 81.4955 54.6992C76.953 54.6992 73.2705 58.3817 73.2705 62.9242C73.2705 67.4668 76.953 71.1492 81.4955 71.1492Z" fill="#EE7523"/>
<path d="M118.524 55.9577C122.293 55.9577 125.348 52.9023 125.348 49.1332C125.348 45.3641 122.293 42.3086 118.524 42.3086C114.755 42.3086 111.699 45.3641 111.699 49.1332C111.699 52.9023 114.755 55.9577 118.524 55.9577Z" fill="#EA8E17"/>
<path d="M158.459 61.1745C161.397 61.1745 163.779 58.7928 163.779 55.8548C163.779 52.9168 161.397 50.5352 158.459 50.5352C155.521 50.5352 153.14 52.9168 153.14 55.8548C153.14 58.7928 155.521 61.1745 158.459 61.1745Z" fill="#EDA717"/>
</svg>
