<svg width="250" height="250" viewBox="0 0 250 250" fill="none" xmlns="http://www.w3.org/2000/svg">
<g clip-path="url(#clip0_242_94717)">
<path d="M125 250C194.036 250 250 194.036 250 125C250 55.9644 194.036 0 125 0C55.9644 0 0 55.9644 0 125C0 194.036 55.9644 250 125 250Z" fill="black"/>
<path fill-rule="evenodd" clip-rule="evenodd" d="M125 243.75C190.584 243.75 243.75 190.584 243.75 125C243.75 59.416 190.584 6.25 125 6.25C59.416 6.25 6.25005 59.416 6.25005 125C6.25005 190.584 59.416 243.75 125 243.75ZM125 250C194.036 250 250 194.036 250 125C250 55.9645 194.036 0 125 0C55.9645 0 0 55.9645 0 125C0 194.036 55.9645 250 125 250Z" fill="#57D56C"/>
<path fill-rule="evenodd" clip-rule="evenodd" d="M87.4075 113.951H181.25V133.85H87.4075V181.25H67.5095V133.85L67.5 113.951L67.5095 67.5H87.4075V113.951ZM181.25 87.3985H113.951V67.5H181.25V87.3985ZM113.951 181.25H181.25V161.352H113.951V181.25Z" fill="#57D56C"/>
</g>
<defs>
<clipPath id="clip0_242_94717">
<rect width="250" height="250" fill="white"/>
</clipPath>
</defs>
</svg>
