<svg width="250" height="250" viewBox="0 0 250 250" fill="none" xmlns="http://www.w3.org/2000/svg">
<g clip-path="url(#clip0_242_94109)">
<path d="M124.994 0.0078125C55.9368 0.0078125 -0.00585938 55.9504 -0.00585938 125.008C-0.00585938 194.065 55.9368 250.008 124.994 250.008C194.052 250.008 249.994 194.065 249.994 125.008C249.994 55.9504 194.052 0.0078125 124.994 0.0078125Z" fill="#0B223D"/>
<path d="M130.527 178.284C122.945 178.284 115.978 176.849 109.216 174.185C102.453 171.522 96.5108 167.218 91.5928 161.481C86.4698 155.743 82.9862 148.981 80.937 140.989H68.2321L68.437 132.997H79.2977C79.0928 130.333 78.8878 127.874 78.8878 125.005C78.8878 122.751 79.0928 120.497 79.0928 118.038H67.8223L68.0272 109.636H80.3223C81.5518 104.513 83.396 100.005 85.6501 95.9067C88.1092 91.8084 90.7731 87.9149 94.0518 85.0461C97.1255 81.9723 100.609 79.5133 104.503 77.4641C108.396 75.4149 112.289 73.7756 116.388 72.9559C120.486 72.1362 124.585 71.5215 128.888 71.5215C142.412 71.5215 153.888 75.21 163.314 82.5871L156.347 95.0871C148.355 89.5543 139.749 86.8903 130.322 86.8903C123.56 86.8903 117.412 88.9395 111.88 92.833C106.347 96.9313 102.453 102.464 99.9944 109.636H133.191L132.781 118.038H98.3551C98.1501 120.292 97.9452 122.341 97.9452 124.595C97.9452 127.464 98.1501 130.128 98.56 132.587H130.732L130.322 140.579H100.609C103.273 147.341 107.167 152.669 112.904 156.562C118.642 160.456 124.789 162.3 131.962 162.3C142.208 162.3 151.839 158.817 160.445 151.849L166.388 165.989C156.347 174.39 144.462 178.284 130.527 178.284Z" fill="white"/>
</g>
<defs>
<clipPath id="clip0_242_94109">
<rect width="250" height="250" rx="125" fill="white"/>
</clipPath>
</defs>
</svg>
