<svg width="250" height="250" viewBox="0 0 250 250" fill="none" xmlns="http://www.w3.org/2000/svg">
<rect width="250" height="250" rx="125" fill="white"/>
<g clip-path="url(#clip0_242_94603)">
<path fill-rule="evenodd" clip-rule="evenodd" d="M60.8703 31.1445H191.789C193.325 31.1446 194.834 31.5499 196.163 32.3193C197.492 33.0888 198.594 34.1953 199.359 35.5271L237.508 101.907C238.469 103.581 238.849 105.526 238.589 107.439C238.329 109.352 237.445 111.125 236.072 112.483L131.084 216.361C129.45 217.978 127.245 218.885 124.946 218.885C122.647 218.885 120.442 217.978 118.808 216.361L13.9598 112.624C12.5573 111.236 11.6653 109.414 11.4285 107.455C11.1917 105.496 11.624 103.514 12.6553 101.832L53.4279 35.321C54.2072 34.046 55.3008 32.9924 56.6039 32.2612C57.907 31.5299 59.376 31.1454 60.8703 31.1445ZM174.887 60.782V79.4063H137.592V92.3198C163.785 93.6995 183.437 99.368 183.587 106.163V120.32C183.437 127.114 163.785 132.783 137.592 134.163V165.851H112.83V134.162C86.6364 132.783 66.9845 127.114 66.839 120.32V106.159C66.9797 99.3687 86.637 93.7002 112.825 92.3159V79.4063H75.5342V60.7773H174.887V60.782ZM125.213 124.43C153.166 124.43 176.53 119.634 182.245 113.234C177.398 107.81 159.862 103.534 137.592 102.362V115.886C129.343 116.32 121.078 116.32 112.83 115.886V102.366C90.5641 103.539 73.0237 107.81 68.1764 113.234C73.8917 119.635 97.2603 124.43 125.213 124.43Z" fill="#009393"/>
</g>
<defs>
<clipPath id="clip0_242_94603">
<rect width="227.302" height="227.302" fill="white" transform="translate(11.3652 11.3613)"/>
</clipPath>
</defs>
</svg>
