<svg width="250" height="250" viewBox="0 0 250 250" fill="none" xmlns="http://www.w3.org/2000/svg">
<path d="M124.999 3.17578C57.7148 3.17578 3.17393 57.7167 3.17393 125C3.14843 144.814 7.97513 164.333 17.2323 181.852L30.959 168.125L59.6135 138.813C65.742 142.777 73.6642 142.621 79.6316 138.418L92.1058 150.893L103.499 139.499L87.2614 123.256C87.0112 113.341 78.7703 105.505 68.8549 105.756C59.112 106.002 51.3433 113.973 51.3488 123.719C51.3488 124.142 51.3831 124.554 51.4117 124.972L24.9878 151.39C10.4462 96.1553 43.4344 39.5902 98.6692 25.0484C153.904 10.5066 210.469 43.4949 225.011 98.7297C229.617 116.224 229.553 134.62 224.826 152.082L182.84 110.095L182.748 110.187C182.812 109.575 182.845 108.96 182.845 108.345C182.845 98.1804 174.605 89.9401 164.44 89.9401C154.275 89.9401 146.035 98.1805 146.035 108.345C146.039 109.159 146.098 109.971 146.212 110.776L55.0094 201.144L53.8998 202.213L41.9861 214.15C64.505 235.186 94.1828 246.867 124.999 246.825C192.282 246.825 246.823 192.284 246.823 125C246.823 57.7165 192.282 3.17578 124.999 3.17578ZM124.999 228.42C104.678 228.45 84.8038 222.466 67.8783 211.221L156.53 124.943C162.133 127.635 168.72 127.299 174.02 124.051L218.735 168.766C201.73 205.171 165.179 228.432 124.999 228.42Z" fill="#004DA7"/>
<path d="M164.876 117.11C169.475 117.11 173.204 113.382 173.204 108.783C173.204 104.183 169.475 100.455 164.876 100.455C160.277 100.455 156.549 104.183 156.549 108.783C156.549 113.382 160.277 117.11 164.876 117.11Z" fill="white"/>
<path d="M69.3431 132.01C73.9423 132.01 77.6706 128.282 77.6706 123.683C77.6706 119.084 73.9423 115.355 69.3431 115.355C64.744 115.355 61.0156 119.084 61.0156 123.683C61.0156 128.282 64.744 132.01 69.3431 132.01Z" fill="white"/>
</svg>
