<svg width="250" height="250" viewBox="0 0 250 250" fill="none" xmlns="http://www.w3.org/2000/svg">
<g clip-path="url(#clip0_242_94131)">
<path fill-rule="evenodd" clip-rule="evenodd" d="M233.08 186.332L231.725 61.332L124.154 125.003L233.08 186.332Z" fill="#BBC3C6"/>
<path fill-rule="evenodd" clip-rule="evenodd" d="M124.154 125.002L125.501 250.002L233.08 186.331L124.154 125.002Z" fill="#9DA5A7"/>
<path fill-rule="evenodd" clip-rule="evenodd" d="M231.727 61.3312L122.801 0.00195312L124.156 125.002L231.727 61.3312Z" fill="#7E878C"/>
<path fill-rule="evenodd" clip-rule="evenodd" d="M16.5752 188.673L125.501 250.002L124.154 125.002L16.5752 188.673Z" fill="#424647"/>
<path fill-rule="evenodd" clip-rule="evenodd" d="M15.2217 63.6719L16.5767 188.672L124.156 125.001L15.2217 63.6719Z" fill="#7F8382"/>
<path fill-rule="evenodd" clip-rule="evenodd" d="M122.801 0.00195312L15.2217 63.6727L124.156 125.002L122.801 0.00195312Z" fill="#C3C9C9"/>
<mask id="mask0_242_94131" style="mask-type:alpha" maskUnits="userSpaceOnUse" x="110" y="88" width="63" height="70">
<path d="M172.608 125.008C172.608 137.017 168.242 148.005 161.003 156.47C160.342 156.608 141.703 160.279 127.585 154.171C117.231 149.686 112.171 139.53 110.473 135.353C113.603 139.496 118.561 142.163 124.153 142.163C128.048 142.163 131.642 140.86 134.524 138.672C138.744 136.948 148.848 131.887 153.317 121.569C159.424 107.45 155.744 88.8112 155.616 88.168C166.012 97.0459 172.608 110.255 172.608 125.008Z" fill="white"/>
</mask>
<g mask="url(#mask0_242_94131)">
<path fill-rule="evenodd" clip-rule="evenodd" d="M172.608 125.008C172.608 137.017 168.242 148.005 161.003 156.47C160.342 156.608 141.703 160.279 127.585 154.171C117.231 149.686 112.171 139.53 110.473 135.353C113.603 139.496 118.561 142.163 124.153 142.163C128.048 142.163 131.642 140.86 134.524 138.672C138.744 136.948 148.848 131.887 153.317 121.569C159.424 107.45 155.744 88.8112 155.616 88.168C166.012 97.0459 172.608 110.255 172.608 125.008Z" fill="url(#paint0_linear_242_94131)"/>
</g>
<mask id="mask1_242_94131" style="mask-type:alpha" maskUnits="userSpaceOnUse" x="91" y="111" width="70" height="63">
<path d="M160.985 156.478C152.107 166.874 138.898 173.462 124.153 173.462C112.145 173.462 101.148 169.096 92.6825 161.848C92.554 161.205 88.8826 142.566 94.99 128.447C99.4589 118.103 109.597 113.05 113.783 111.344C109.657 114.474 106.998 119.424 106.998 125.007C106.998 128.893 108.293 132.478 110.472 135.352C112.171 139.529 117.231 149.685 127.584 154.171C141.703 160.279 160.342 156.607 160.985 156.478Z" fill="white"/>
</mask>
<g mask="url(#mask1_242_94131)">
<path fill-rule="evenodd" clip-rule="evenodd" d="M160.985 156.478C152.107 166.874 138.898 173.462 124.153 173.462C112.145 173.462 101.148 169.096 92.6825 161.848C92.554 161.205 88.8826 142.566 94.99 128.447C99.4589 118.103 109.597 113.05 113.783 111.344C109.657 114.474 106.998 119.424 106.998 125.007C106.998 128.893 108.293 132.478 110.472 135.352C112.171 139.529 117.231 149.685 127.584 154.171C141.703 160.279 160.342 156.607 160.985 156.478Z" fill="url(#paint1_linear_242_94131)"/>
</g>
<mask id="mask2_242_94131" style="mask-type:alpha" maskUnits="userSpaceOnUse" x="87" y="76" width="70" height="63">
<path d="M155.617 88.1627C155.746 88.8059 159.425 107.445 153.319 121.563C148.85 131.882 138.745 136.943 134.542 138.659C138.651 135.519 141.31 130.578 141.31 125.003C141.31 121.109 140.006 117.515 137.819 114.633C136.095 110.404 131.034 100.308 120.715 95.8393C106.597 89.7325 87.9582 93.4033 87.3145 93.5324C96.2012 83.1363 109.41 76.5488 124.155 76.5488C136.164 76.5488 147.143 80.915 155.608 88.1457C155.608 88.1457 155.608 88.1539 155.617 88.1627Z" fill="white"/>
</mask>
<g mask="url(#mask2_242_94131)">
<path fill-rule="evenodd" clip-rule="evenodd" d="M155.617 88.1646C155.746 88.8078 159.425 107.447 153.319 121.565C148.85 131.884 138.745 136.945 134.542 138.661C138.651 135.521 141.31 130.58 141.31 125.005C141.31 121.111 140.006 117.517 137.819 114.635C136.095 110.406 131.034 100.31 120.715 95.8413C106.597 89.7345 87.9582 93.4052 87.3145 93.5343C96.2012 83.1382 109.41 76.5508 124.155 76.5508C136.164 76.5508 147.143 80.917 155.608 88.1476C155.608 88.1476 155.608 88.1558 155.617 88.1646Z" fill="url(#paint2_linear_242_94131)"/>
</g>
<path fill-rule="evenodd" clip-rule="evenodd" d="M137.822 114.632C140.009 117.514 141.313 121.108 141.313 125.003C141.313 130.578 138.654 135.518 134.545 138.658C131.646 140.854 128.052 142.158 124.158 142.158C118.566 142.158 113.607 139.49 110.477 135.347C108.298 132.473 107.003 128.888 107.003 125.003C107.003 119.419 109.662 114.469 113.788 111.339C116.661 109.151 120.255 107.848 124.158 107.848C129.725 107.848 134.674 110.498 137.813 114.615C137.813 114.623 137.813 114.623 137.822 114.632Z" fill="white"/>
<mask id="mask3_242_94131" style="mask-type:alpha" maskUnits="userSpaceOnUse" x="75" y="92" width="63" height="70">
<path d="M137.812 114.621C134.673 110.503 129.723 107.853 124.156 107.853C120.254 107.853 116.66 109.156 113.786 111.344C109.601 113.051 99.4621 118.103 94.9932 128.447C88.8858 142.566 92.5572 161.205 92.6857 161.848C82.2902 152.97 75.6934 139.761 75.6934 125.008C75.6934 112.991 80.0684 102.003 87.316 93.5373C87.9598 93.4082 106.598 89.7374 120.717 95.8442C131.035 100.313 136.097 110.409 137.812 114.621Z" fill="white"/>
</mask>
<g mask="url(#mask3_242_94131)">
<path fill-rule="evenodd" clip-rule="evenodd" d="M137.812 114.621C134.673 110.503 129.723 107.853 124.156 107.853C120.254 107.853 116.66 109.156 113.786 111.344C109.601 113.051 99.4621 118.103 94.9932 128.447C88.8858 142.566 92.5572 161.205 92.6857 161.848C82.2902 152.97 75.6934 139.761 75.6934 125.008C75.6934 112.991 80.0684 102.003 87.316 93.5373C87.9598 93.4082 106.598 89.7374 120.717 95.8442C131.035 100.313 136.097 110.409 137.812 114.621Z" fill="url(#paint3_linear_242_94131)"/>
</g>
</g>
<defs>
<linearGradient id="paint0_linear_242_94131" x1="141.54" y1="88.1679" x2="141.54" y2="157.689" gradientUnits="userSpaceOnUse">
<stop stop-color="#F0CE7B"/>
<stop offset="1" stop-color="#FDFDF4"/>
</linearGradient>
<linearGradient id="paint1_linear_242_94131" x1="126.228" y1="173.462" x2="126.228" y2="111.343" gradientUnits="userSpaceOnUse">
<stop stop-color="#CE4A28"/>
<stop offset="1" stop-color="#FDFDF4"/>
</linearGradient>
<linearGradient id="paint2_linear_242_94131" x1="122.074" y1="76.5507" x2="122.074" y2="138.66" gradientUnits="userSpaceOnUse">
<stop stop-color="#F0CE7B"/>
<stop offset="1" stop-color="#FDFDF4"/>
</linearGradient>
<linearGradient id="paint3_linear_242_94131" x1="87.1686" y1="155.807" x2="121.045" y2="97.1305" gradientUnits="userSpaceOnUse">
<stop stop-color="#F0CE7B"/>
<stop offset="1" stop-color="#FDFDF4"/>
</linearGradient>
<clipPath id="clip0_242_94131">
<rect width="250" height="250" rx="125" fill="white"/>
</clipPath>
</defs>
</svg>
