<svg width="250" height="250" viewBox="0 0 250 250" fill="none" xmlns="http://www.w3.org/2000/svg">
<g clip-path="url(#clip0_242_94744)">
<path d="M125 249.998C194.036 249.998 250 194.034 250 124.998C250 55.9625 194.036 -0.00195312 125 -0.00195312C55.9644 -0.00195312 0 55.9625 0 124.998C0 194.034 55.9644 249.998 125 249.998Z" fill="#0D1E9D"/>
<path d="M112.705 163.093C111.894 163.093 111.094 162.902 110.372 162.535C109.651 162.168 109.027 161.636 108.554 160.983L88.2445 133.111H75V122.966H90.866C91.6765 122.965 92.476 123.155 93.1975 123.521C93.9195 123.887 94.543 124.418 95.0165 125.069L111.613 147.835L136.934 90.5351C137.333 89.6316 137.989 88.863 138.822 88.3235C139.655 87.784 140.629 87.497 141.624 87.498H173.308V97.643H144.976L117.402 160.05C117.038 160.873 116.461 161.586 115.728 162.114C114.995 162.643 114.133 162.969 113.23 163.06C113.049 163.069 112.867 163.069 112.684 163.06" fill="#00C389"/>
</g>
<defs>
<clipPath id="clip0_242_94744">
<rect width="250" height="250" fill="white"/>
</clipPath>
</defs>
</svg>
