<svg width="250" height="250" viewBox="0 0 250 250" fill="none" xmlns="http://www.w3.org/2000/svg">
<path d="M126.357 60.7136L182.042 92.8786V157.174L126.357 189.339L70.7066 157.174V92.8786L126.357 60.7136ZM126.357 55.1836C125.412 55.1836 124.432 55.4286 123.592 55.9186L67.9066 88.0836C66.1916 89.0636 65.1416 90.8836 65.1416 92.8786V157.174C65.1416 159.134 66.1916 160.989 67.9066 161.969L123.592 194.134C124.432 194.624 125.412 194.869 126.357 194.869C127.302 194.869 128.282 194.624 129.122 194.134L184.807 161.969C186.522 160.989 187.572 159.169 187.572 157.174V92.8786C187.572 90.9186 186.522 89.0636 184.807 88.0836L129.122 55.9186C128.282 55.4286 127.337 55.1836 126.357 55.1836Z" fill="url(#paint0_linear_242_93456)"/>
<path d="M151.451 113.459L149.001 109.364L170.561 96.3789L173.046 100.439L151.451 113.459Z" fill="url(#paint1_linear_242_93456)"/>
<path d="M101.262 113.459L79.667 100.439L82.152 96.3789L103.712 109.364L101.262 113.459Z" fill="url(#paint2_linear_242_93456)"/>
<path d="M128.422 154.83H123.661V176.635H128.422V154.83Z" fill="url(#paint3_linear_242_93456)"/>
<path d="M84.4963 100.824V81.5391L67.8013 71.9141L51.0713 81.5391V100.824L67.8013 110.484L84.4963 100.824Z" fill="url(#paint4_linear_242_93456)"/>
<path d="M67.8016 71.9132L84.4966 81.5732V100.858L67.8016 110.518L51.1066 100.858V81.5732L67.8016 71.9132ZM67.8016 69.5332C67.3816 69.5332 66.9616 69.6382 66.6116 69.8482L49.9166 79.5082C49.1816 79.9282 48.7266 80.7332 48.7266 81.5732V100.858C48.7266 101.698 49.1816 102.503 49.9166 102.923L66.6116 112.548C66.9966 112.758 67.3816 112.863 67.8016 112.863C68.2216 112.863 68.6416 112.758 68.9916 112.548L85.6866 102.888C86.4216 102.468 86.8766 101.663 86.8766 100.823V81.5382C86.8766 80.6982 86.4216 79.8932 85.6866 79.4732L68.9916 69.8482C68.6066 69.6382 68.1866 69.5332 67.8016 69.5332Z" fill="white"/>
<path d="M84.4963 168.478V149.193L67.8013 139.533L51.0713 149.193V168.478L67.8013 178.103L84.4963 168.478Z" fill="url(#paint5_linear_242_93456)"/>
<path d="M67.8016 139.532L84.4966 149.192V168.477L67.8016 178.137L51.1066 168.477V149.192L67.8016 139.532ZM67.8016 137.152C67.3816 137.152 66.9616 137.257 66.6116 137.467L49.9166 147.127C49.1816 147.547 48.7266 148.352 48.7266 149.192V168.477C48.7266 169.317 49.1816 170.122 49.9166 170.542L66.6116 180.202C66.9966 180.412 67.3816 180.517 67.8016 180.517C68.2216 180.517 68.6416 180.412 68.9916 180.202L85.6866 170.542C86.4216 170.122 86.8766 169.317 86.8766 168.477V149.192C86.8766 148.352 86.4216 147.547 85.6866 147.127L68.9916 137.467C68.6066 137.257 68.1866 137.152 67.8016 137.152Z" fill="white"/>
<path d="M143.087 67.1891V47.9041L126.357 38.2441L109.662 47.9041V67.1891L126.357 76.8141L143.087 67.1891Z" fill="url(#paint6_linear_242_93456)"/>
<path d="M126.358 38.2433L143.053 47.9033V67.1883L126.358 76.8483L109.663 67.1883V47.9033L126.358 38.2433ZM126.358 35.8633C125.938 35.8633 125.518 35.9683 125.168 36.1783L108.473 45.8383C107.738 46.2583 107.283 47.0633 107.283 47.9033V67.1883C107.283 68.0283 107.738 68.8333 108.473 69.2533L125.168 78.9133C125.553 79.1233 125.938 79.2283 126.358 79.2283C126.778 79.2283 127.198 79.1233 127.548 78.9133L144.243 69.2533C144.978 68.8333 145.433 68.0283 145.433 67.1883V47.9033C145.433 47.0633 144.978 46.2583 144.243 45.8383L127.548 36.1783C127.198 35.9683 126.778 35.8633 126.358 35.8633Z" fill="white"/>
<path d="M143.087 202.15V182.865L126.357 173.205L109.662 182.865V202.15L126.357 211.775L143.087 202.15Z" fill="url(#paint7_linear_242_93456)"/>
<path d="M126.358 173.204L143.053 182.864V202.149L126.358 211.809L109.663 202.149V182.864L126.358 173.204ZM126.358 170.824C125.938 170.824 125.518 170.929 125.168 171.139L108.473 180.799C107.738 181.219 107.283 182.024 107.283 182.864V202.149C107.283 202.989 107.738 203.794 108.473 204.214L125.168 213.874C125.553 214.084 125.938 214.189 126.358 214.189C126.778 214.189 127.198 214.084 127.548 213.874L144.243 204.214C144.978 203.794 145.433 202.989 145.433 202.149V182.864C145.433 182.024 144.978 181.219 144.243 180.799L127.548 171.139C127.198 170.929 126.778 170.824 126.358 170.824Z" fill="white"/>
<path d="M155.198 141.668V108.383L126.358 91.7578L97.5527 108.383V141.668L126.358 158.293L155.198 141.668Z" fill="url(#paint8_linear_242_93456)"/>
<path d="M126.357 91.7587L155.162 108.384V141.669L126.357 158.294L97.5516 141.669V108.384L126.357 91.7587ZM126.357 88.8887C125.867 88.8887 125.377 89.0287 124.922 89.2737L96.1166 105.899C95.2416 106.424 94.6816 107.369 94.6816 108.384V141.669C94.6816 142.684 95.2416 143.629 96.1166 144.154L124.922 160.779C125.377 161.024 125.867 161.164 126.357 161.164C126.847 161.164 127.337 161.024 127.792 160.779L156.597 144.154C157.472 143.629 158.032 142.684 158.032 141.669V108.384C158.032 107.369 157.472 106.424 156.597 105.899L127.792 89.2737C127.372 88.9937 126.882 88.8887 126.357 88.8887Z" fill="white"/>
<path d="M201.644 101.175V81.8905L184.949 72.2305L168.254 81.8905V101.175L184.949 110.8L201.644 101.175Z" fill="url(#paint9_linear_242_93456)"/>
<path d="M184.948 72.2296L201.643 81.8896V101.175L184.948 110.835L168.253 101.175V81.8896L184.948 72.2296ZM184.948 69.8496C184.528 69.8496 184.108 69.9546 183.758 70.1646L167.063 79.7896C166.328 80.2096 165.873 81.0146 165.873 81.8546V101.14C165.873 101.98 166.328 102.785 167.063 103.205L183.758 112.865C184.143 113.075 184.528 113.18 184.948 113.18C185.368 113.18 185.788 113.075 186.138 112.865L202.833 103.205C203.568 102.785 204.023 101.98 204.023 101.14V81.8546C204.023 81.0146 203.568 80.2096 202.833 79.7896L186.138 70.1296C185.788 69.9546 185.368 69.8496 184.948 69.8496Z" fill="white"/>
<path d="M201.644 168.793V149.508L184.949 139.883L168.254 149.508V168.793L184.949 178.453L201.644 168.793Z" fill="url(#paint10_linear_242_93456)"/>
<path d="M184.948 139.884L201.643 149.544V168.829L184.948 178.489L168.253 168.829V149.509L184.948 139.884ZM184.948 137.469C184.528 137.469 184.108 137.574 183.758 137.784L167.063 147.444C166.328 147.864 165.873 148.669 165.873 149.509V168.794C165.873 169.634 166.328 170.439 167.063 170.859L183.758 180.519C184.143 180.729 184.528 180.834 184.948 180.834C185.368 180.834 185.788 180.729 186.138 180.519L202.833 170.859C203.568 170.439 204.023 169.634 204.023 168.794V149.509C204.023 148.669 203.568 147.864 202.833 147.444L186.138 137.784C185.788 137.609 185.368 137.469 184.948 137.469Z" fill="white"/>
<defs>
<linearGradient id="paint0_linear_242_93456" x1="126.371" y1="205.432" x2="126.371" y2="43.2624" gradientUnits="userSpaceOnUse">
<stop stop-color="#4D92F5"/>
<stop offset="1" stop-color="#2BE5CF"/>
</linearGradient>
<linearGradient id="paint1_linear_242_93456" x1="161.021" y1="205.432" x2="161.021" y2="43.2627" gradientUnits="userSpaceOnUse">
<stop stop-color="#4D92F5"/>
<stop offset="1" stop-color="#2BE5CF"/>
</linearGradient>
<linearGradient id="paint2_linear_242_93456" x1="91.6927" y1="205.432" x2="91.6927" y2="43.2627" gradientUnits="userSpaceOnUse">
<stop stop-color="#4D92F5"/>
<stop offset="1" stop-color="#2BE5CF"/>
</linearGradient>
<linearGradient id="paint3_linear_242_93456" x1="126.06" y1="205.433" x2="126.06" y2="43.2639" gradientUnits="userSpaceOnUse">
<stop stop-color="#4D92F5"/>
<stop offset="1" stop-color="#2BE5CF"/>
</linearGradient>
<linearGradient id="paint4_linear_242_93456" x1="67.7896" y1="212.607" x2="67.7896" y2="43.6436" gradientUnits="userSpaceOnUse">
<stop stop-color="#4D92F5"/>
<stop offset="1" stop-color="#2BE5CF"/>
</linearGradient>
<linearGradient id="paint5_linear_242_93456" x1="67.7896" y1="212.606" x2="67.7896" y2="43.6427" gradientUnits="userSpaceOnUse">
<stop stop-color="#4D92F5"/>
<stop offset="1" stop-color="#2BE5CF"/>
</linearGradient>
<linearGradient id="paint6_linear_242_93456" x1="126.371" y1="212.607" x2="126.371" y2="43.6437" gradientUnits="userSpaceOnUse">
<stop stop-color="#4D92F5"/>
<stop offset="1" stop-color="#2BE5CF"/>
</linearGradient>
<linearGradient id="paint7_linear_242_93456" x1="126.371" y1="212.608" x2="126.371" y2="43.6446" gradientUnits="userSpaceOnUse">
<stop stop-color="#4D92F5"/>
<stop offset="1" stop-color="#2BE5CF"/>
</linearGradient>
<linearGradient id="paint8_linear_242_93456" x1="126.372" y1="212.606" x2="126.372" y2="43.6423" gradientUnits="userSpaceOnUse">
<stop stop-color="#4D92F5"/>
<stop offset="1" stop-color="#2BE5CF"/>
</linearGradient>
<linearGradient id="paint9_linear_242_93456" x1="184.954" y1="212.609" x2="184.954" y2="43.645" gradientUnits="userSpaceOnUse">
<stop stop-color="#4D92F5"/>
<stop offset="1" stop-color="#2BE5CF"/>
</linearGradient>
<linearGradient id="paint10_linear_242_93456" x1="184.954" y1="212.606" x2="184.954" y2="43.6423" gradientUnits="userSpaceOnUse">
<stop stop-color="#4D92F5"/>
<stop offset="1" stop-color="#2BE5CF"/>
</linearGradient>
</defs>
</svg>
