<svg width="250" height="250" viewBox="0 0 250 250" fill="none" xmlns="http://www.w3.org/2000/svg">
<rect width="250" height="250" rx="125" fill="white"/>
<path d="M134.551 74.3984H151.637C151.637 74.3984 147.368 75.1173 145.34 76.8229C141.894 79.7205 141.4 84.6118 141.4 84.6118C141.4 84.6118 141.4 80.1762 139.545 77.5145C137.449 74.5087 134.551 74.3984 134.551 74.3984Z" fill="#AA1422"/>
<path d="M151.981 156.997L131.22 157.542C131.22 157.542 135.887 157.197 138.745 154.21C141.445 151.388 141.401 146.508 141.401 146.508C141.401 146.508 141.618 150.354 144.076 153.291C145.912 155.486 148.174 156.873 151.981 156.997Z" fill="#AA1422"/>
<path d="M56.4766 186.451H74.5436L95.546 157.555H79.0897L56.4766 186.451Z" fill="#466790"/>
<path d="M193.126 185.353H177.174L154.842 156.994H170.888L193.126 185.353Z" fill="#AA1422"/>
<path d="M123.779 97.2344L107.356 97.521L107.465 134.376L123.779 134.418V97.2344Z" fill="#AA1422"/>
<path d="M114.424 74.3984H134.552C134.552 74.3984 137.933 74.8237 139.448 77.2719C140.963 79.7198 141.401 82.5149 141.401 85.5179C141.401 88.5209 141.401 100.941 141.401 100.941L123.78 97.2352V84.3468C123.78 84.3468 123.78 79.8948 120.74 77.1529C118.028 74.7071 114.424 74.3984 114.424 74.3984Z" fill="#466790"/>
<path d="M123.779 134.419L141.4 131.191V146.922C141.4 146.922 142.011 151.526 138.689 154.441C135.367 157.355 132.919 157.556 130.355 157.556C127.79 157.556 114.854 157.556 114.854 157.556C114.854 157.556 119.613 156.726 121.408 154.427C123.041 152.335 123.779 150.127 123.779 148.612C123.779 147.097 123.779 134.419 123.779 134.419Z" fill="#466790"/>
<path d="M199.942 156.996H193.125V185.355L170.886 156.996H151.888C146.119 156.996 141.399 152.276 141.399 146.507V131.193L123.778 134.421V97.2368L141.399 100.943V85.5199C141.399 79.7508 145.867 74.4004 151.636 74.4004L199.701 74.8785C205.47 74.8785 210.431 79.5415 210.431 86.9542V146.507C210.431 152.276 205.711 156.996 199.942 156.996Z" fill="#F0081D"/>
<path d="M114.456 157.556H79.0904L56.4772 186.452L56.6949 157.556H50.7152C45.587 157.556 38.8652 151.573 38.8652 146.445L39.428 85.3097C39.428 80.1815 44.8261 75.0176 49.9543 75.0176L114.423 74.3984C119.551 74.3984 123.78 79.2183 123.78 84.3465V97.2349L107.357 97.5215L107.466 134.377L123.78 134.419V148.232C123.78 153.361 119.584 157.556 114.456 157.556Z" fill="#2C3B4D"/>
</svg>
