<svg width="250" height="250" viewBox="0 0 250 250" fill="none" xmlns="http://www.w3.org/2000/svg">
<rect width="250" height="250" rx="125" fill="black"/>
<path d="M204.114 52.8613H127.551C122.447 52.8613 118.437 56.8717 118.437 61.9759V140.726H90.7282C85.624 140.726 81.249 144.372 81.249 149.111C81.249 153.851 85.624 157.497 90.7282 157.497H127.916C133.02 157.497 137.03 153.486 137.03 148.382V107.913H182.239C186.978 107.913 190.624 104.268 190.624 99.528C190.624 94.7884 186.978 91.1426 182.239 91.1426H136.666V69.6322H204.114C208.853 69.6322 212.499 65.9863 212.499 61.2467C212.499 56.5072 208.853 52.8613 204.114 52.8613ZM128.28 185.57H89.2699C84.5303 185.57 80.8844 189.215 80.8844 193.955C80.8844 198.695 84.5303 202.34 89.2699 202.34H128.28C133.02 202.34 136.666 198.695 136.666 193.955C136.666 189.215 133.02 185.57 128.28 185.57ZM84.8949 91.1426H45.8844C41.1449 91.1426 37.499 94.7884 37.499 99.528C37.499 104.268 41.1449 107.913 45.8844 107.913H84.8949C89.6344 107.913 93.2803 104.268 93.2803 99.528C93.2803 95.153 89.6344 91.1426 84.8949 91.1426Z" fill="white"/>
</svg>
