<svg width="250" height="250" viewBox="0 0 250 250" fill="none" xmlns="http://www.w3.org/2000/svg">
<rect width="250" height="250" rx="125" fill="white"/>
<g clip-path="url(#clip0_242_94598)">
<path d="M220.339 154.665C221.085 155.263 221.576 155.779 222.311 156.392C222.756 156.764 222.76 156.764 223.197 156.359C223.5 156.076 223.796 155.78 224.106 155.503C225.363 154.374 227.054 154.428 228.223 155.658C228.69 156.153 229.129 156.674 229.537 157.218C230.026 157.843 230.272 158.624 230.229 159.416C230.187 160.208 229.859 160.959 229.307 161.528C228.985 161.869 228.645 162.194 228.299 162.505C228.011 162.764 228.001 163.017 228.205 163.342C228.627 164.011 229.037 164.69 229.433 165.377C229.936 166.247 230.383 167.152 230.808 168.067C231.212 168.937 231.212 168.932 232.051 168.65C232.456 168.502 232.87 168.379 233.289 168.28C234.655 168.001 235.949 168.703 236.531 170.056C236.886 170.893 237.15 171.766 237.319 172.66C237.57 173.937 236.836 175.355 235.662 175.984C235.198 176.191 234.72 176.367 234.233 176.513C233.658 176.733 233.608 176.776 233.702 177.373C234.024 179.252 234.201 181.154 234.233 183.06C234.237 183.477 234.385 183.715 234.796 183.751C235.148 183.782 235.497 183.851 235.848 183.89C237.245 184.044 238.196 184.784 238.61 186.243C238.646 186.369 238.738 189 238.615 189.713C238.347 191.287 237.194 192.408 235.677 192.473C235.35 192.488 235.022 192.466 234.7 192.406C234.103 192.29 233.706 192.558 233.562 193.172C233.193 194.671 232.743 196.149 232.214 197.6C232.135 197.785 232.118 197.991 232.166 198.186C232.213 198.382 232.323 198.556 232.479 198.684C232.835 199.036 233.151 199.427 233.42 199.85C233.666 200.43 232.603 199.527 232.358 199.378C231.796 199.034 224.908 194.991 222.344 193.539C222.528 192.098 223.19 190.254 223.458 188.833C224.817 181.591 223.411 174.986 219.476 168.954C216.203 163.939 211.72 160.73 206.216 159.139C201.372 157.738 196.57 158.023 191.859 159.852C187.962 161.365 183.695 163.847 181.353 167.754C181.085 168.072 180.959 168.036 180.535 167.835C179.07 167.058 173.328 163.082 170.993 161.637C169.959 160.533 169.274 158.727 170.052 157.393C170.613 156.477 171.322 155.66 172.15 154.977C173.274 154.004 174.903 154.031 176.096 154.946C177.575 156.081 177.573 156.076 179.012 154.855C179.762 154.219 180.563 153.653 181.351 153.072C182.085 152.531 182.14 152.312 181.795 151.464C180.858 149.149 181.459 147.39 183.573 146.246C184.13 145.931 184.714 145.668 185.319 145.46C186.932 144.937 188.42 145.549 189.296 147.079C190.211 148.673 190.207 148.67 191.929 148.249C192.839 148.026 193.763 147.868 194.681 147.69C195.599 147.511 195.74 147.357 195.792 146.39C195.812 145.908 195.881 145.429 195.997 144.96C196.24 144.025 196.679 143.205 197.59 142.837C199.327 142.133 201.08 141.999 202.784 142.924C203.789 143.47 204.258 144.407 204.271 145.622C204.29 147.443 204.302 147.459 205.975 147.746C207.074 147.936 208.152 148.219 209.233 148.49C210.052 148.695 210.264 148.615 210.585 147.774C211.393 145.647 213.404 144.562 215.776 145.8C216.45 146.152 217.155 146.409 217.743 146.975C218.929 148.118 219.012 149.805 218.524 151.036C218.456 151.209 218.372 151.375 218.305 151.549C218.126 151.982 218.005 152.438 217.946 152.903C217.946 152.903 219.604 154.075 220.339 154.665Z" fill="#5F5F5F"/>
<path d="M221.957 192.843C222.647 193.545 231.861 198.904 232.654 199.409C232.877 199.477 233.09 199.575 233.286 199.7L233.274 199.692C233.439 199.85 233.597 200.017 233.745 200.191L233.737 200.18C234.466 201.266 234.462 202.423 234.04 203.622C233.773 204.257 233.451 204.866 233.078 205.444C232.21 206.832 230.61 207.268 229.202 206.515C228.773 206.283 228.356 206.03 227.952 205.756C227.656 205.56 227.454 205.613 227.247 205.904C226.126 207.482 224.873 208.961 223.501 210.327C223.226 210.6 223.193 210.839 223.425 211.155C223.691 211.513 223.94 211.886 224.179 212.265C225.151 213.798 224.89 215.566 223.514 216.703C223.035 217.097 222.547 217.481 222.039 217.832C220.674 218.775 219.073 218.509 218.033 217.176C217.745 216.801 217.475 216.411 217.226 216.008C217.004 215.655 216.782 215.574 216.411 215.799C214.85 216.721 213.213 217.507 211.518 218.15C210.906 218.392 210.911 218.4 211.031 219.082C211.073 219.319 211.106 219.559 211.15 219.795C211.541 221.789 211.094 222.87 209.454 223.894C209.03 224.144 208.543 224.105 208.088 224.232C207.3 224.402 206.49 224.45 205.688 224.375H205.684C205.42 224.236 205.161 224.087 204.902 223.936C204.126 223.248 203.779 222.341 203.578 221.302C203.305 219.895 203.471 220.123 202.252 220.184C200.636 220.265 199.018 220.257 197.404 220.162C196.777 220.124 196.776 220.122 196.631 220.74C196.564 221.027 196.488 221.313 196.448 221.605C196.186 223.448 194.788 224.833 192.563 224.381C192.017 224.266 191.478 224.124 190.946 223.954C189.425 223.479 188.545 221.918 188.85 220.259C188.925 219.838 189.018 219.42 189.096 218.998C189.2 218.424 189.193 218.394 188.652 218.178C187.611 217.762 186.575 217.337 185.573 216.824C184.982 216.52 184.396 216.203 183.813 215.883C183.207 215.552 183.21 215.547 182.786 216.151C182.559 216.474 182.346 216.807 182.11 217.119C181.072 218.502 179.435 218.793 178.052 217.825C177.525 217.457 177.011 217.062 176.517 216.645C175.908 216.137 175.505 215.425 175.382 214.642C175.259 213.858 175.425 213.057 175.85 212.387C176.108 211.958 176.395 211.547 176.684 211.141C176.885 210.86 176.898 210.635 176.639 210.375C175.249 208.99 173.98 207.489 172.846 205.887C172.629 205.58 172.416 205.581 172.136 205.769C171.793 205.996 171.439 206.206 171.084 206.415C169.491 207.337 167.831 206.881 166.895 205.223C166.561 204.63 166.151 204.085 165.922 203.418C165.351 201.768 165.832 200.239 167.257 199.319C167.56 199.124 167.871 198.943 168.166 198.747C168.692 198.406 168.706 198.395 168.474 197.797C167.991 196.553 167.576 195.283 167.232 193.994C167.081 193.429 166.937 192.855 166.811 192.281C166.72 191.861 166.513 191.699 166.108 191.789C165.785 191.852 165.458 191.897 165.13 191.926C163.203 192.141 161.775 190.914 161.574 188.87C161.518 188.306 161.46 187.748 161.422 187.186C161.368 186.379 161.611 185.581 162.104 184.94C162.579 184.321 163.279 183.915 164.053 183.811C164.479 183.755 164.907 183.72 165.331 183.65C165.883 183.553 165.901 183.541 165.91 182.927C165.935 181.585 166.031 180.246 166.198 178.914C166.268 178.329 166.452 177.76 166.412 177.16C166.413 176.992 166.365 176.827 166.274 176.687C166.182 176.546 166.051 176.435 165.897 176.368C165.684 176.303 165.634 176.274 165.318 176.191C164.692 176.045 164.121 175.72 163.677 175.256" fill="#414141"/>
<path d="M166.445 177.522C166.516 177.112 166.35 176.494 165.954 176.376C165.613 176.274 165.067 176.058 164.73 175.949C163.385 175.517 162.541 174.388 162.394 172.872C162.222 172.227 162.757 170.138 163 169.462C163.544 167.97 164.875 167.1 166.376 167.341C166.701 167.392 167.019 167.48 167.324 167.603C167.89 167.837 168.327 167.653 168.577 167.08C169.194 165.669 170.118 164.272 170.712 162.852C171.287 161.48 170.88 161.594 171.081 161.642C171.573 162.092 178.747 165.801 181.009 167.742C179.535 169.436 176.263 177.11 176.126 179.677" fill="#414141"/>
<path d="M181.088 167.618C185.668 162.352 188.945 160.092 193.466 158.726C196.207 157.889 199.084 157.584 201.939 157.827C206.707 158.221 211.233 160.089 214.892 163.171C218.257 165.951 220.708 169.473 222.381 173.625C223.372 176.171 223.984 178.849 224.197 181.573C224.558 185.513 223.765 189.915 222.494 193.589C222.236 193.831 217.552 190.421 217.051 189.757C216.937 189.398 217.079 189.07 217.165 188.737C217.656 186.952 217.893 185.106 217.871 183.255C217.619 174.293 211.877 166.9 203.937 165.094C198.078 163.761 191.864 165.106 186.177 171.253C186.033 171.339 185.989 171.154 185.023 170.447C183.402 169.397 182.604 168.739 181.496 168.026C180.861 167.633 180.893 167.845 181.088 167.618Z" fill="#414141"/>
<path d="M222.593 193.333C222.44 193.592 222.302 193.86 222.181 194.135C220.783 197.715 218.547 200.654 215.823 203.143C212.257 206.402 208.121 208.435 203.425 209.088C202.281 209.287 201.121 209.386 199.959 209.386C196.604 209.314 193.299 208.562 190.244 207.175C188.262 206.249 186.417 205.051 184.765 203.617C182.146 201.378 180.018 198.622 178.514 195.522C177.115 192.6 176.239 189.455 175.925 186.231C175.621 183.421 175.86 180.662 176.413 177.911C177.04 174.826 178.212 171.876 179.874 169.201C180.217 168.687 180.597 168.198 181.012 167.738C182.209 168.4 185.477 170.695 186.001 171.193C186.331 171.652 185.721 172.257 185.532 172.551C184.507 174.103 183.711 175.794 183.169 177.573C181.314 183.883 182.164 189.756 185.9 195.037C189.016 199.443 193.254 201.858 198.437 202.412C205.82 203.2 213.397 198.742 216.515 190.873C216.687 190.439 216.644 189.753 217.345 189.719C217.795 190.271 222.063 193.023 222.593 193.333Z" fill="#5F5F5F"/>
<path d="M217.333 189.719C216.783 191.326 216.057 192.866 215.167 194.312C212.247 198.83 208.263 201.635 203.19 202.601C198.052 203.578 193.348 202.358 189.167 199.071C185.488 196.178 183.141 192.286 182.234 187.521C181.164 181.888 182.288 176.704 185.424 172.019C185.541 171.843 185.652 171.666 185.769 171.491C185.888 171.34 187.447 169.511 188.205 168.834C191.567 165.839 195.413 164.303 199.809 164.214C208.044 164.048 215.474 169.979 217.616 178.595C218.479 181.993 218.445 185.558 217.518 188.939C217.449 189.195 217.394 189.459 217.333 189.719Z" fill="#E3AF60"/>
<path d="M204.916 183.562C205.055 186.511 202.51 188.794 200.095 188.763C197.34 188.729 195.079 186.43 195.104 183.513C195.126 180.662 197.223 178.305 200.13 178.297C202.552 178.289 205.05 180.595 204.916 183.562Z" fill="#414141"/>
<path d="M205.201 173.766C205.468 173.736 205.738 173.775 205.985 173.879C206.233 173.982 206.45 174.147 206.616 174.358C206.959 174.75 207.328 175.118 207.663 175.518C208.441 176.443 207.966 178.137 206.958 178.47C206.76 178.555 206.543 178.589 206.329 178.569C206.114 178.549 205.907 178.475 205.728 178.355C204.906 177.761 204.177 177.048 203.565 176.239C203.409 176.058 203.302 175.841 203.251 175.607C203.2 175.374 203.208 175.132 203.274 174.902C203.339 174.672 203.461 174.463 203.627 174.291C203.794 174.12 204 173.993 204.228 173.921C204.537 173.8 204.869 173.747 205.201 173.766Z" fill="#F5D394"/>
<path d="M72.9847 224.067C71.6193 223.302 70.8089 222.115 70.5655 220.484C70.4821 219.928 70.3382 219.384 70.2309 218.83C70.155 218.444 69.9715 218.314 69.5913 218.346C67.1755 218.562 64.7466 218.589 62.3267 218.427C61.9989 218.406 61.6705 218.386 61.345 218.346C61.0347 218.309 60.8731 218.445 60.8094 218.763C60.6942 219.341 60.5394 219.911 60.4499 220.493C60.173 222.29 59.2474 223.526 57.6718 224.221C56.6634 224.512 55.656 224.41 54.6486 224.211C53.7167 224.027 52.7573 223.941 51.9115 223.419C51.5701 223.186 51.2506 222.921 50.9568 222.63C50.4625 222.104 50.0997 221.469 49.8978 220.776C49.6959 220.083 49.6608 219.352 49.7953 218.643C49.8932 218.062 50.0226 217.488 50.1328 216.909C50.3188 215.92 50.3172 215.914 49.4509 215.588C47.4707 214.839 45.5443 213.954 43.6852 212.941C43.236 212.699 42.781 212.457 42.3516 212.181C42.0238 211.965 41.8061 212.011 41.5928 212.342C41.266 212.851 40.9034 213.334 40.5786 213.846C39.1957 216.031 36.4819 216.671 34.3487 214.92C33.7895 214.461 33.1995 214.045 32.6387 213.589C30.6596 211.98 30.2975 209.417 31.7406 207.244C32.1184 206.673 32.5048 206.108 32.8999 205.549C32.9467 205.502 32.9829 205.446 33.0059 205.384C33.0288 205.322 33.0381 205.256 33.0331 205.19C33.028 205.124 33.0088 205.059 32.9766 205.002C32.9444 204.944 32.9001 204.894 32.8467 204.854C32.7315 204.75 32.6283 204.631 32.5182 204.521C30.6611 202.642 28.9534 200.622 27.4105 198.478C26.9705 197.866 26.9666 197.869 26.3195 198.264C25.8817 198.532 25.4462 198.803 25.0086 199.071C22.7067 200.47 20.4203 199.855 18.9978 197.457C18.8028 197.15 18.7292 197.04 18.5253 196.671C18.2741 196.152 17.9707 195.667 17.7431 195.131C16.7728 192.845 17.4476 190.506 19.4795 189.215C19.9568 188.911 20.4401 188.621 20.921 188.32C21.5614 187.916 21.5682 187.911 21.2927 187.21C20.4056 184.948 19.6756 182.628 19.1079 180.266C19.0137 179.876 18.9106 179.488 18.8351 179.094C18.8325 179.016 18.8122 178.94 18.7756 178.872C18.7391 178.803 18.6874 178.743 18.6243 178.698C18.5613 178.652 18.4887 178.622 18.412 178.608C18.3354 178.595 18.2567 178.6 18.182 178.622C17.5061 178.713 16.8294 178.818 16.1497 178.859C14.4047 178.966 13.0584 178.228 12.1472 176.636C11.7943 175.972 11.5941 175.238 11.5614 174.488C11.5144 173.923 11.4098 173.415 11.3741 172.809C11.2266 170.52 12.4595 167.645 15.168 167.438C15.7467 167.395 16.3225 167.302 16.8998 167.234C17.5674 167.153 17.5911 167.147 17.6061 166.472C17.6492 164.485 17.801 162.503 18.0607 160.533C18.1667 159.737 18.2866 158.941 18.4203 158.148C18.5469 157.392 18.5478 157.375 17.8384 157.129C17.3074 156.945 16.7762 156.771 16.2536 156.582C13.9822 155.767 12.8093 153.466 13.4467 151.019C13.6819 150.114 13.9708 149.223 14.2811 148.344C15.0766 146.077 17.2558 144.934 19.4409 145.619C20.0946 145.824 20.7501 146.029 21.3859 146.287C21.7925 146.449 21.973 146.314 22.1446 145.933C22.5474 145.036 22.9856 144.157 23.4091 143.273C23.5609 142.968 23.7005 142.724 23.8378 142.444C24.2798 141.551 24.7869 140.691 25.355 139.872C25.8762 139.389 113.57 194.24 113.323 194.873C113.154 195.196 113.019 195.508 112.857 195.819C112.548 196.404 112.256 196.998 111.925 197.57C110.675 199.735 108.397 200.394 106.272 199.213C105.713 198.903 105.177 198.546 104.628 198.213C104.058 197.868 104.051 197.864 103.664 198.397C102.798 199.586 101.892 200.74 100.947 201.858C100.101 202.859 99.2072 203.804 98.2973 204.735C97.8782 205.162 97.8788 205.175 98.2014 205.662C98.5651 206.211 98.9485 206.743 99.3086 207.294C100.707 209.433 100.331 212.005 98.3903 213.578C97.7679 214.084 97.1357 214.574 96.4937 215.049C94.4763 216.536 92.0797 216.129 90.5881 214.048C90.2087 213.515 89.8487 212.96 89.4693 212.424C89.1263 211.939 89.1134 211.932 88.6113 212.223C86.5594 213.419 84.4209 214.46 82.2138 215.337C81.9058 215.457 81.5956 215.571 81.2892 215.695C80.7346 215.92 80.7239 215.929 80.8346 216.583C80.9167 217.167 81.0291 217.745 81.1714 218.317C81.7572 220.427 80.535 222.974 77.8189 223.87C76.6442 224.262 74.103 224.543 72.9847 224.067Z" fill="#414141"/>
<path d="M113.153 195.033C111.312 193.897 94.9184 183.154 93.7712 182.481C93.1482 182.145 93.3507 182.105 93.7287 181.35C95.074 178.287 95.9752 175.047 96.405 171.728C96.6912 169.302 96.7272 166.853 96.5123 164.419C96.3372 162.121 95.9308 159.845 95.2991 157.628C94.4904 154.842 93.3485 152.164 91.898 149.652C90.2964 146.842 88.2564 144.442 86.0025 142.229C84.2701 140.565 82.3349 139.126 80.2429 137.946C77.1614 136.14 73.7752 134.913 70.2518 134.326C68.0607 133.938 65.8319 133.809 63.6107 133.939C58.8999 134.242 54.3249 135.641 50.2503 138.025C46.9377 140.02 43.9988 142.578 41.5662 145.584C40.9382 146.358 40.0433 147.898 39.4296 148.679C39.0761 149.127 33.1938 145.069 25.1916 140.034C25.4871 139.481 25.7712 139.029 26.0869 138.546C26.1358 138.492 26.1729 138.429 26.1957 138.36C26.2185 138.291 26.2266 138.218 26.2195 138.145C26.2123 138.073 26.1901 138.003 26.1542 137.939C26.1183 137.876 26.0695 137.821 26.011 137.778C25.52 137.314 25.0309 136.849 24.549 136.374C23.0167 134.862 22.6585 132.857 23.6182 130.887C23.8375 130.436 24.2335 129.376 24.8374 128.606C25.1295 128.233 25.4512 127.893 25.7666 127.545C27.3123 125.846 30.3138 125.817 31.9265 127.384C33.8777 129.277 33.6213 128.836 35.2645 127.496C36.6688 126.353 38.0896 125.236 39.575 124.212C40.3747 123.66 40.4263 123.393 40.0219 122.471C39.5712 121.441 39.1652 120.406 39.2527 119.23C39.3602 117.778 39.9149 116.534 41.0309 115.727C42.6239 114.577 44.3157 113.63 46.348 113.689C48.0268 113.739 49.2029 114.626 50.0555 116.08C50.3479 116.617 50.61 117.169 50.8406 117.735C51.0679 118.259 51.437 118.43 51.9544 118.285C54.1285 117.692 56.3313 117.209 58.5543 116.839C59.3608 116.7 59.5231 116.448 59.5545 115.596C59.5695 115.301 59.5695 115.005 59.5545 114.71C59.3824 112.001 61.3547 109.728 63.6861 109.571C64.9711 109.484 66.2585 109.38 67.5346 109.651C68.5933 109.889 69.5321 110.497 70.1809 111.367C70.8297 112.236 71.1456 113.31 71.0714 114.392C71.0455 114.739 71.0646 115.09 71.0714 115.441C71.088 116.473 71.2701 116.725 72.2282 116.871C74.3075 117.181 76.3641 117.627 78.3847 118.207C79.4557 118.519 79.6219 118.406 80.0681 117.34C80.4177 116.506 80.7682 115.671 81.3864 115.001C82.6352 113.651 84.1893 113.434 85.8081 113.815C87.1 114.147 88.3181 114.719 89.3995 115.5C91.1988 116.747 91.8544 118.988 91.122 121.168C90.9699 121.622 90.7867 122.066 90.5958 122.505C90.2164 123.366 90.2803 123.681 91.0347 124.188C92.6242 125.248 94.1497 126.4 95.6035 127.64C97.2023 129.011 96.9169 129.219 98.6805 127.522C100.226 126.034 102.611 125.857 104.019 126.876C105.484 127.895 106.682 129.251 107.513 130.829C108.247 132.277 108.148 134.939 106.687 136.276C106.249 136.679 105.861 137.142 105.453 137.584C105.284 137.739 105.178 137.952 105.156 138.181C105.134 138.409 105.196 138.638 105.332 138.823C106.642 140.877 107.811 143.017 108.83 145.229C109.081 145.775 109.513 145.912 110.044 145.734C110.667 145.52 111.305 145.35 111.953 145.226C112.831 145.066 113.736 145.181 114.546 145.557C115.355 145.933 116.028 146.55 116.472 147.324C117.357 148.888 117.852 150.642 117.917 152.438C117.976 154.456 117.031 155.851 115.414 156.78C114.88 157.08 114.313 157.318 113.725 157.491C113.107 157.678 112.842 158.079 112.966 158.75C113.403 161.155 113.547 163.592 113.691 166.031C113.729 166.677 114.023 167.033 114.633 167.051C115.087 167.084 115.538 167.14 115.986 167.219C118.305 167.542 119.891 169.461 119.9 171.957C119.904 172.44 119.882 172.923 119.835 173.404C119.723 174.268 119.545 175.121 119.304 175.958C118.723 178.025 116.763 179.156 114.741 179.02C114.087 178.976 113.435 178.864 112.782 178.795C112.181 178.733 112.15 178.741 112.001 179.375C111.572 181.279 111.044 183.16 110.42 185.009C110.121 185.865 109.813 186.718 109.475 187.557C109.323 187.929 109.386 188.157 109.711 188.353C110.35 188.736 110.993 189.112 111.608 189.535C112.408 190.095 113.008 190.897 113.318 191.824C113.628 192.751 113.632 193.752 113.33 194.682C113.28 194.803 113.221 194.921 113.153 195.033Z" fill="#65605A"/>
<path d="M46.2982 152.622C47.0569 151.653 47.7756 150.648 48.6075 149.74C52.526 145.458 57.2605 142.944 62.851 142.275C67.7951 141.682 72.4854 142.597 76.8181 145.19C83.4882 149.182 87.4667 155.267 88.721 163.286C89.4445 167.868 88.9042 172.561 87.1583 176.859C87.0603 177.106 86.9907 177.366 86.9082 177.618C87.0971 178.039 86.9139 178.4 86.7491 178.764C85.9066 180.586 84.8171 182.284 83.5114 183.809C79.8175 188.19 75.2969 191.094 69.8105 192.099C62.5275 193.431 55.9571 191.639 50.2446 186.631C45.6115 182.569 42.8197 177.308 41.9208 171.001C41.2013 166.173 41.8225 161.24 43.7165 156.741C44.1799 155.632 44.743 154.585 45.3096 153.536C45.405 153.325 45.5416 153.136 45.7114 152.979C45.8812 152.822 46.0807 152.7 46.2982 152.622Z" fill="#E3AF60"/>
<path d="M50.5312 167.086C50.4059 158.04 57.6821 151.146 65.4004 151.104C72.9696 151.063 80.5244 157.473 80.5374 167.168C80.5503 176.167 73.6831 183.006 65.6682 183.094C56.9363 183.189 50.3712 175.527 50.5312 167.086Z" fill="#45423E"/>
<path d="M80.2726 152.324C80.3976 153.658 78.8259 154.705 77.7336 153.934C76.9841 153.44 76.3022 152.851 75.7051 152.181C74.8593 151.179 75.0518 150.14 76.1724 149.485C77.0022 149 77.7761 148.966 78.5423 149.661C79.1018 150.126 79.5899 150.671 79.991 151.278C80.1884 151.59 80.2866 151.955 80.2726 152.324Z" fill="#F5D394"/>
<path d="M53.5431 167.195C53.3572 160.659 58.3369 154.284 65.5645 154.313C72.3153 154.342 77.5865 160.101 77.519 167.305C77.4531 174.405 71.9173 179.973 65.3383 179.886C58.5167 179.797 53.3588 173.691 53.5431 167.195Z" fill="#E3AF60"/>
<path d="M65.4973 172.315C62.808 172.315 60.5665 169.936 60.5861 167.07C60.6036 164.246 62.661 161.883 65.5284 161.852C68.1438 161.823 70.4281 164.123 70.4135 167.115C70.3999 170.03 68.2454 172.318 65.4973 172.315Z" fill="#414141"/>
<path d="M71.1725 158.433C71.4531 158.414 71.7325 158.484 71.9705 158.634C72.4803 158.969 72.8931 159.432 73.1676 159.977C73.4421 160.522 73.5687 161.129 73.5347 161.738C73.5149 162.429 72.5826 163.157 71.9471 163.003C71.4164 162.892 70.915 162.67 70.4757 162.353C70.0364 162.035 69.669 161.628 69.3974 161.159C68.8799 160.278 68.9824 159.54 69.7576 158.917C70.1621 158.602 70.6601 158.432 71.1725 158.433Z" fill="#F5D394"/>
<path d="M46.2964 152.622C45.4901 153.93 44.7731 155.29 44.1502 156.695C43.1299 159.113 42.4702 161.669 42.1922 164.279C41.8197 167.582 42.0761 170.925 42.948 174.132C43.806 177.302 45.2711 180.276 47.2622 182.888C50.1155 186.694 54.0685 189.532 58.587 191.019C61.182 191.908 63.9269 192.276 66.6642 192.101C73.8363 191.598 79.6855 188.349 84.1552 182.338C85.0982 181.062 85.9075 179.692 86.5703 178.251C86.6703 178.035 86.7939 177.832 86.9062 177.623C87.5299 177.934 92.3812 181.266 93.2082 181.882C93.5364 182.124 93.3877 182.446 93.2309 182.742C92.4075 184.367 91.4595 185.926 90.3953 187.405C88.0961 190.564 85.2505 193.287 81.9931 195.444C78.8491 197.502 75.359 198.974 71.691 199.79C68.8725 200.423 66.0164 200.517 63.1692 200.327C59.3844 200.066 55.6891 199.056 52.298 197.355C49.9158 196.19 47.6968 194.718 45.6979 192.975C41.6998 189.524 38.6014 185.151 36.6701 180.235C35.395 176.965 34.6011 173.527 34.313 170.029C33.8584 164.794 34.6378 159.755 36.3705 154.859C37.0248 153.09 37.8164 151.375 38.7381 149.729C38.8261 149.568 38.9247 149.407 39.0265 149.255C39.5705 148.434 39.6734 148.408 40.4813 148.898C41.8394 149.722 44.4513 151.444 45.7813 152.308C45.9599 152.401 46.132 152.506 46.2964 152.622Z" fill="#65605A"/>
<path d="M88.4554 172.418C89.141 169.165 89.2048 165.812 88.6436 162.535C88.0911 159.284 86.9182 156.168 85.1886 153.36C82.3148 149.417 78.7044 146.097 74.6979 144.047C72.2137 142.905 69.5283 142.265 66.796 142.164C59.6132 141.891 53.4533 144.424 48.4372 149.925C47.6455 150.809 46.9046 151.738 46.2181 152.706C45.6271 152.33 40.1946 149.381 39.4299 148.679C39.1265 148.4 41.4956 145.545 42.7133 144.211C45.3013 141.315 48.3932 138.912 51.8388 137.12C55.0738 135.345 58.7715 134.331 62.5022 133.909C65.3625 133.58 68.255 133.661 71.0922 134.15C74.8361 134.807 78.2879 136.355 81.5613 138.427C83.8217 139.844 85.8889 141.548 87.711 143.496C91.3565 147.358 94.0204 152.039 95.4784 157.146C96.4342 160.531 96.8959 164.037 96.8492 167.555C96.8122 172.379 95.7588 177.141 93.7579 181.531C93.4006 182.302 93.7245 182.282 92.6896 181.531C91.4167 180.562 88.2431 178.541 86.9034 177.626C86.8188 177.558 87.9128 175.007 88.4554 172.418Z" fill="#45423E"/>
<path d="M55.1056 35.4101C54.5533 33.5413 54.1294 31.6353 53.6643 29.7414C53.5413 29.2427 53.6793 29.1089 54.1794 28.9798C81.8421 21.824 115.483 27.2916 132.761 32.8587C135.5 33.9043 138.165 35.1181 140.63 36.7794C141.7 37.5009 142.715 38.2955 143.513 39.3616C143.736 39.6549 143.936 39.9651 144.112 40.2894C144.33 40.658 144.455 41.0744 144.475 41.5022C144.496 41.9301 144.412 42.3565 144.23 42.7443C143.32 44.753 142.33 46.7165 141.26 48.6348C140.569 49.8839 139.858 51.1208 139.157 52.3644C138.829 52.9656 138.458 53.5428 138.049 54.0919C137.691 54.4463 137.29 54.276 136.905 54.184C135.213 53.7805 133.504 53.465 131.822 53.0247C131.696 53.0154 131.57 53.0246 131.447 53.052C129.685 52.4453 127.826 52.376 126.037 51.9223C125.802 51.8627 125.599 52.0132 125.374 51.9732C122.436 51.3656 119.457 51.059 116.498 50.6264C115.457 50.4739 114.384 50.5546 113.375 50.1593C112.988 49.7259 112.92 49.1592 112.79 48.6137C112.044 45.3908 111.075 42.2633 109.3 39.4857C109.03 39.0638 108.736 38.661 108.429 38.2689C107.505 37.0901 106.403 36.3889 104.906 36.1798C101.002 35.6343 97.0913 35.1615 93.1704 34.808C86.6468 34.217 80.1139 34.1159 73.5769 34.2143C70.3512 34.2618 67.1286 34.4902 63.9088 34.7855C61.243 35.0276 58.5833 35.3149 55.9305 35.6884C55.6032 35.7225 55.3195 35.7013 55.1056 35.4101Z" fill="#E3AF60"/>
<path d="M146.84 91.6759C145.003 91.6623 143.165 91.6218 141.328 91.6493C140.743 91.6573 140.613 91.2952 140.486 90.8472C139.988 90.6858 140.002 90.2016 139.925 89.7982C139.331 86.6923 138.772 83.5776 138.125 80.4831C136.537 72.8748 134.751 65.3204 132.578 57.8733C132.204 56.5902 131.801 55.3168 131.435 54.0319C131.323 53.6405 131.111 53.2136 131.471 52.8215C131.531 52.7554 131.608 52.708 131.694 52.6852C131.78 52.6624 131.871 52.6652 131.956 52.6931C134 53.0965 136.043 53.5 138.052 54.0828C139.37 58.0301 140.479 62.0461 141.502 66.0896C142.893 71.5849 144.086 77.1308 145.199 82.6961C145.614 84.7736 146.835 91.6243 146.84 91.6759Z" fill="#45423E"/>
<path d="M55.1058 35.4083C57.5223 34.9693 59.9613 34.7143 62.3986 34.482C64.1564 34.314 65.9232 34.2067 67.6857 34.0785C72.5818 33.7169 77.4824 33.7242 82.3819 33.8121C85.9406 33.876 89.4965 34.0769 93.0488 34.377C95.4154 34.5772 97.7767 34.807 100.135 35.0937C102.114 35.3357 104.079 35.6846 106.06 35.9595C106.669 36.0648 107.225 36.3697 107.641 36.8259C109.218 38.3593 110.331 40.2355 111.206 42.2812C112.234 44.7213 112.982 47.2699 113.436 49.8783C113.325 50.2463 113.043 50.2511 112.758 50.2327C111.5 50.152 110.239 50.0577 108.985 49.9333C107.879 49.8245 106.768 49.7719 105.663 49.706C103.902 49.6026 102.14 49.3994 100.37 49.5035C99.688 49.5446 99.0139 49.3614 98.3329 49.3501C97.41 49.3355 97.1238 49.5478 96.8036 50.4573C94.917 55.8216 93.3647 61.2948 91.9995 66.8319C89.8906 75.3853 88.2825 84.051 86.9307 92.7712C86.567 95.1017 86.2729 97.4434 85.9496 99.781C85.8837 100.256 85.836 100.743 85.5505 101.153C85.4522 101.254 85.3264 101.326 85.1884 101.357C85.0505 101.389 84.9063 101.38 84.7734 101.331C83.5055 100.983 82.246 100.594 80.9806 100.236C80.8807 100.211 80.7885 100.162 80.7126 100.092C80.6349 100.021 80.5754 99.9314 80.5389 99.8321C80.3344 99.2482 80.4633 98.6552 80.5451 98.0806C81.8348 88.6475 83.4132 79.274 85.4903 70.0001C86.9584 63.4415 88.6318 56.9488 90.7764 50.5991C91.101 49.639 90.9185 49.3598 89.9702 49.3489C86.2117 49.3046 82.4599 49.4435 78.703 49.6347C76.8164 49.7315 74.9298 49.8138 73.0459 49.9815C72.92 49.9815 72.7934 49.9865 72.6668 49.9872C70.7011 50.0008 70.6556 50.047 70.0358 51.9925C66.4285 63.3037 63.9068 74.8993 61.9586 86.6488C61.376 90.1629 60.8655 93.6884 60.3465 97.2129C60.3307 97.5341 60.2375 97.8467 60.0749 98.1242C59.8931 98.436 59.5923 98.4781 59.2905 98.5277C57.7221 98.7693 56.1467 98.9384 54.5869 99.2323C54.2357 99.2989 53.8041 99.3784 53.7334 98.7777C53.9949 96.9203 54.257 95.0628 54.5194 93.2051C55.199 88.3731 55.9688 83.5585 56.8286 78.7612C57.956 72.4754 59.2457 66.2387 60.8389 60.0769C61.5974 57.1543 62.3811 54.238 63.3349 51.3783C63.6686 50.3761 63.667 50.3761 62.9455 49.6838C61.2053 48.0079 59.471 46.3254 57.7216 44.6604C57.3961 44.3535 57.1715 43.9551 57.0775 43.5177C56.4851 41.0754 55.8637 38.6407 55.2522 36.2031C55.1461 35.9524 55.0969 35.6812 55.1081 35.4092L55.1058 35.4083Z" fill="#45423E"/>
<path d="M55.1085 35.4062C55.2289 35.6525 55.2788 35.9273 55.2526 36.2001C55.1007 35.959 54.908 35.7217 55.1085 35.4062Z" fill="#A8A8A8"/>
<path d="M95.2752 105.546C92.3736 103.922 89.3387 102.55 86.2036 101.443C85.9046 101.373 85.6294 101.225 85.4053 101.015C85.7262 98.65 86.0233 96.2808 86.372 93.9205C87.1809 88.4561 88.1259 83.0188 89.2069 77.6086C90.8533 69.4089 92.8224 61.3024 95.4123 53.3781C95.8271 52.1096 96.256 50.8467 96.6872 49.5856C96.9045 48.9471 96.9145 48.9448 97.5573 48.9642C101.142 49.0723 104.727 49.2183 108.307 49.4572C110.019 49.5708 111.728 49.7388 113.439 49.8825C116.266 50.1714 119.083 50.5416 121.895 50.9653C123.09 51.146 124.284 51.3122 125.471 51.5472C126.153 51.8368 126.576 52.3919 126.988 53.0295C128.535 55.4723 129.826 58.0682 130.84 60.7759C131.968 63.6016 132.887 66.5059 133.59 69.4657C133.855 70.6404 134.229 71.7855 134.501 72.9564C135.387 76.8094 136.373 80.6374 137.09 84.5347C137.458 86.5336 137.849 88.5307 138.333 90.5059C138.462 91.0312 138.676 91.6261 138.04 92.0046C137.984 92.0916 137.913 92.169 137.832 92.2337C136.707 92.8672 135.946 93.8984 135.206 94.9497C133.971 96.7047 132.749 98.4693 131.521 100.231C131.175 100.392 130.89 100.259 130.607 100.043C129.129 98.9168 127.637 97.8099 126.131 96.7227C125.366 96.1681 125.307 95.8905 125.82 95.0725C126.549 93.9105 127.333 92.7887 128.085 91.6438C128.39 91.2127 128.668 90.7635 128.919 90.2986C129.345 89.4349 129.188 88.5743 128.534 88.0586C127.88 87.5428 127.065 87.6478 126.438 88.3959C125.647 89.3401 125.023 90.4221 124.347 91.4622C122.201 94.7505 120.051 98.0366 117.898 101.321C117.683 101.623 117.5 101.948 117.352 102.289C117.192 102.643 117.158 103.041 117.257 103.418C117.355 103.794 117.581 104.124 117.895 104.353C118.554 104.812 119.314 104.721 119.873 104.04C120.656 103.089 121.274 102.004 121.955 100.975C122.389 100.313 122.821 99.6519 123.269 99.0021C123.581 98.5502 123.925 98.4834 124.374 98.7895C126.011 99.909 127.574 101.141 129.17 102.321C129.438 102.519 129.702 102.753 129.691 103.158C129.191 104.023 128.693 104.891 128.191 105.754C127.939 106.187 127.668 106.608 127.418 107.045C126.379 108.85 126.347 110.716 127.242 112.568C129.653 117.557 132.158 122.493 134.985 127.234C135.337 127.825 135.716 128.394 136.07 128.981C137.065 130.633 138.553 131.295 140.304 131.351C141.993 131.404 143.678 131.207 145.36 131.049C145.322 138.519 143.311 145.353 139.549 151.642C139.022 152.522 138.452 152.898 137.425 152.865C134.701 152.78 131.974 152.849 129.248 152.858C128.698 152.777 128.717 152.259 128.642 151.87C128.319 150.267 127.894 148.697 127.444 147.13C125.735 141.121 123.238 135.364 120.017 130.01C118.982 128.291 117.826 126.668 116.742 124.988C115.733 123.589 114.646 122.257 113.524 120.965C111.555 118.65 109.437 116.466 107.182 114.429C103.917 111.554 100.399 108.978 96.6722 106.734C96.158 106.405 95.5423 106.201 95.2752 105.546Z" fill="#C0DFDF"/>
<path d="M137.865 92.1856C138.05 91.6695 138.079 91.11 137.948 90.5775C136.99 86.6033 130.223 58.897 126.397 52.7998C125.934 52.0606 125.824 51.8647 125.459 51.541C127.256 51.6897 129.019 52.0931 130.801 52.3577C130.938 52.3748 131.069 52.4257 131.182 52.5059C131.298 52.588 131.393 52.6961 131.459 52.8216C133.848 60.5417 135.899 68.3622 137.61 76.2829C138.658 81.1099 139.734 86.2967 140.59 91.1673C140.592 91.1785 140.596 91.1891 140.602 91.1987C140.774 91.5397 140.818 91.4449 139.817 91.5781C139.143 91.6968 138.487 91.9009 137.865 92.1856Z" fill="#E0F7F9"/>
<path d="M80.7069 99.7398C79.1508 99.4173 77.5965 99.0643 76.0367 98.7808C74.1775 98.4457 72.301 98.2142 70.416 98.0876C68.6333 97.9639 66.8655 97.9262 65.0798 97.9221C64.0761 97.9221 63.0596 98.0257 62.0499 97.9469C61.6364 97.6096 61.7108 97.1513 61.7705 96.6931C62.6272 90.124 63.6233 83.5814 64.9212 77.0848C65.8304 72.5097 66.8564 67.9666 68.1182 63.4899C69.3229 59.2132 70.7262 55.0115 72.9013 51.1601C73.2291 50.5807 73.2807 50.1015 72.934 49.5583C73.1737 49.4758 73.4263 49.4373 73.6796 49.4446C79.4044 49.1687 85.1284 48.8693 90.8614 48.925C91.1085 48.925 91.3658 48.8627 91.6058 48.9932C91.7024 49.283 91.5419 49.5194 91.4587 49.7606C88.9314 57.1036 87.0207 64.6434 85.3763 72.2599C83.9812 78.7219 82.8226 85.232 81.8243 91.7754C81.4222 94.4271 81.0801 97.0861 80.7069 99.7398Z" fill="#C0DFDF"/>
<path d="M73.4422 49.4579C74.4671 49.3304 74.3698 49.3897 73.7554 50.5069C72.0888 53.4984 70.708 56.6404 69.6315 59.8911C69.0123 61.7866 68.4122 63.6998 67.9494 65.6551C67.4435 67.7885 66.8466 69.897 66.377 72.0422C65.9012 74.2128 65.4998 76.3996 65.06 78.5783C64.6092 80.8095 64.1508 83.0382 63.8066 85.2901C63.2763 88.7869 62.7634 92.286 62.268 95.7874C62.1386 96.5001 62.0694 97.2225 62.0609 97.9468C61.8052 98.0682 60.0543 98.2607 59.9209 97.9468C60.0361 96.2302 60.3389 94.5397 60.5885 92.8443C61.206 88.6548 61.8999 84.479 62.6701 80.317C64.4674 70.6984 66.6818 61.1929 69.6497 51.9042C69.837 51.32 70.0588 50.747 70.2247 50.1564C70.247 50.0156 70.3208 49.8881 70.4318 49.7986C70.5429 49.7091 70.6832 49.6641 70.8255 49.6723C71.5356 49.6336 73.3161 49.452 73.4422 49.4579Z" fill="#E0F7F9"/>
<path d="M168.081 167.778C166.316 167.633 164.349 166.156 162.944 169.972C161.547 173.755 163.6 175.212 163.291 175.085C163.138 175.064 162.984 175.059 162.83 175.069C161.674 175.084 160.478 174.88 159.324 174.879C158.915 174.679 159.012 174.323 159.081 173.979C159.659 171.015 160.549 168.121 161.736 165.345C163.259 161.741 165.236 158.346 167.62 155.243C170.87 151.022 174.869 147.435 179.417 144.661C184.063 141.843 189.234 140 194.615 139.246C197.213 138.856 199.846 138.75 202.467 138.929C203.465 139.004 204.244 138.571 204.78 137.696C204.961 137.351 205.255 137.08 205.614 136.928C206.048 136.923 206.442 137.119 206.855 137.218C207.764 137.434 207.86 137.399 208.259 136.524C208.877 135.1 209.594 133.723 210.405 132.4C210.613 132.256 210.784 132.066 210.905 131.845C211.967 130.125 213.353 128.628 214.988 127.44C215.034 127.417 215.085 127.408 215.135 127.414C215.723 127.414 215.875 127.891 216.017 128.357C216.622 130.401 217.352 132.407 218.202 134.362C219.579 137.565 221.421 140.546 223.668 143.211C224.006 143.603 224.434 143.953 224.237 144.594C223.055 146.8 221.873 149.005 220.692 151.211C220.519 151.533 220.326 151.849 220.143 152.167C219.816 152.72 219.445 153.246 219.035 153.739C218.929 153.658 218.816 153.586 218.698 153.524C218.629 153.489 218.501 153.368 218.435 153.329C217.197 152.613 217.372 152.565 217.989 151.231C218.375 150.39 218.576 149.537 218.333 148.588C218.237 148.199 218.066 147.833 217.828 147.511C217.596 147.197 217.301 146.935 216.961 146.741C216.183 146.251 215.334 145.884 214.445 145.651C213.813 145.517 213.154 145.598 212.573 145.882C211.992 146.166 211.523 146.635 211.24 147.217C211.038 147.62 210.897 148.053 210.709 148.464C210.44 149.063 210.285 149.147 209.701 148.97C208.155 148.482 206.569 148.131 204.962 147.921C204.809 147.903 204.666 147.84 204.516 147.826C204.086 147.771 203.905 147.503 203.91 147.062C203.91 146.631 203.882 146.201 203.91 145.77C204.008 144.145 203.034 143.046 201.621 142.749C200.603 142.534 199.549 142.548 198.537 142.791C197.242 143.101 196.474 143.943 196.294 145.373C196.221 145.904 196.179 146.439 196.166 146.974C196.159 147.673 196.114 147.732 195.451 147.869C194.634 148.04 193.809 148.169 192.992 148.334C192.147 148.505 191.311 148.719 190.488 148.974C189.952 149.141 189.826 149.074 189.602 148.542C189.41 148.047 189.188 147.565 188.936 147.098C188.236 145.888 186.97 145.329 185.674 145.683C184.737 145.945 183.851 146.362 183.051 146.916C181.875 147.723 181.446 149.247 181.943 150.684C182.092 151.111 182.309 151.509 182.483 151.927C182.701 152.453 182.682 152.578 182.248 152.861C180.731 153.886 179.275 155 177.889 156.198C177.477 156.543 177.364 156.546 176.978 156.168C176.637 155.813 176.273 155.48 175.889 155.172C175.38 154.758 174.74 154.538 174.084 154.551C173.428 154.564 172.797 154.809 172.305 155.243C171.567 155.871 170.931 156.609 170.417 157.43C170.04 158.031 169.88 158.743 169.963 159.447C170.045 160.151 170.366 160.806 170.871 161.304C171.218 161.665 171.605 161.986 172.025 162.26C170.968 163.383 168.907 166.415 168.303 167.609" fill="#414141"/>
<path d="M153.96 174.726C149.715 174.721 145.47 174.716 141.225 174.712H120.986C119.431 174.712 119.405 174.659 119.62 173.036C119.773 171.853 119.799 170.672 119.175 169.596C118.502 168.436 117.552 167.692 116.275 167.484C115.652 167.375 115.024 167.306 114.393 167.279C113.634 167.256 113.497 167.055 113.468 166.241C113.405 163.613 113.148 160.994 112.7 158.404C112.511 157.379 112.563 157.292 113.529 157.008C114.319 156.797 115.074 156.474 115.771 156.048C117.505 154.937 118.014 153.042 117.599 151.092C117.391 150.207 117.138 149.333 116.84 148.474C116.113 146.236 114.185 145.072 111.999 145.507C111.257 145.676 110.526 145.891 109.811 146.153C109.218 146.355 109.144 146.335 108.868 145.721C107.726 143.157 106.372 140.693 104.821 138.354C104.53 137.92 104.546 137.784 104.988 137.43C105.595 136.941 106.087 136.321 106.649 135.783C108.004 134.492 107.979 131.775 107.169 130.477C106.405 129.287 105.467 128.218 104.387 127.306C103.064 126.154 100.741 126.113 99.2696 127.52C98.7632 128.004 98.1879 128.407 97.7397 128.96C97.4712 129.292 97.2232 129.3 96.905 129.014C96.1549 128.337 95.3971 127.668 94.6186 127.028C93.3989 126.026 92.1153 125.123 90.8133 124.242C89.6854 123.478 89.7379 123.651 90.3112 122.385C90.5512 121.881 90.7616 121.363 90.9413 120.833C91.5975 118.766 91.0024 116.503 88.9096 115.373C88.0068 114.889 87.0999 114.389 86.1268 114.108C84.7614 113.713 83.4282 113.785 82.2281 114.733C81.7354 115.13 81.3452 115.64 81.0902 116.219C80.767 116.917 80.4833 117.636 80.1737 118.342C79.9394 118.873 79.8878 118.906 79.3591 118.73C77.3341 118.071 75.2611 117.571 73.1587 117.234C72.6602 117.154 72.1604 117.073 71.6613 116.997C70.9382 116.885 70.8821 116.826 70.8691 116.018C70.8593 115.347 70.8616 114.675 70.8691 114.001C70.8857 112.136 69.9599 110.934 68.4581 110.156C68.0304 109.925 67.5569 109.792 67.0716 109.767C65.938 109.725 64.8024 109.649 63.6704 109.847C61.5111 110.231 60.1718 111.834 60.105 114.154C60.0881 114.745 60.105 115.336 60.0981 115.929C60.0875 116.836 60.0527 116.863 59.2326 117.002C56.7122 117.427 54.1996 117.89 51.7509 118.678C51.1668 118.865 51.097 118.825 50.8299 118.212C50.5758 117.626 50.3276 117.038 50.0714 116.454C49.0624 114.129 46.7225 113.377 44.5666 114.213C43.7567 114.525 42.9683 114.891 42.2065 115.306C41.5853 115.629 41.0488 116.094 40.6403 116.663C40.2318 117.231 39.9627 117.888 39.8548 118.58C39.7154 119.375 39.7854 120.194 40.058 120.954C40.2933 121.636 40.6051 122.282 40.899 122.936C41.1491 123.492 41.1204 123.618 40.6433 123.925C38.6399 125.25 36.7264 126.705 34.9153 128.283C34.6794 128.484 34.4607 128.711 34.2334 128.918C33.8413 129.268 33.7206 129.267 33.3231 128.903C32.8839 128.499 32.4311 128.11 32.0197 127.675C30.47 126.036 27.5682 126.046 26.0644 127.788C25.6207 128.3 25.1981 128.836 24.7428 129.337C24.1921 129.942 24.1557 129.921 23.5913 129.367C23.1119 128.896 21.9816 127.839 21.9011 127.776C21.1478 126.883 21.179 126.876 21.9413 125.961C28.3004 118.266 36.5289 112.333 45.8383 108.731C50.4301 106.952 55.2452 105.814 60.1477 105.349C63.1412 105.085 66.1507 105.054 69.1489 105.258C73.2169 105.519 77.2436 106.228 81.1557 107.374C84.3851 108.314 87.5163 109.564 90.506 111.106C92.5637 112.139 94.5538 113.302 96.4643 114.587C99.1619 116.406 101.704 118.445 104.065 120.684C106.344 122.862 108.476 125.19 110.446 127.652C110.716 128.008 110.967 128.378 111.199 128.759C113.051 130.982 114.537 133.48 115.925 136.036C118.728 141.188 120.814 146.699 122.124 152.416C122.585 154.426 122.892 156.466 123.233 158.5C123.529 160.275 124.754 160.883 126.256 160.023C128.141 158.946 129.337 156.385 129.063 154.116C129.004 153.624 128.684 153.068 129.181 152.606C129.574 152.37 130.008 152.389 130.437 152.387C132.713 152.38 134.983 152.356 137.256 152.399C138.195 152.416 138.823 152.044 139.326 151.217C141.216 148.095 142.646 144.718 143.575 141.189C144.336 138.423 144.822 135.587 145.024 132.725C145.045 132.43 145.04 132.133 145.009 131.839C144.974 131.682 144.989 131.519 145.052 131.372C145.114 131.224 145.221 131.1 145.357 131.017C145.851 131.007 146.929 130.941 146.978 130.936C148.864 130.817 148.864 130.818 148.869 132.837C148.869 134.369 148.86 135.903 148.874 137.431C148.886 138.832 149.237 139.264 150.524 139.609C153.582 140.422 156.751 140.736 159.909 140.539C161.378 140.458 162.815 140.177 164.273 140.054C164.576 140.018 164.872 139.936 165.151 139.812C166.036 139.452 166.296 139.086 166.31 138.063C166.332 136.155 166.303 134.248 166.326 132.34C166.332 131.924 166.251 131.467 166.599 131.13C167.171 130.662 167.718 131.019 168.23 131.247C169.495 131.811 170.447 132.815 171.32 133.901C172.938 135.911 174.139 138.206 175.278 140.541C175.378 140.732 175.42 140.947 175.399 141.162C175.358 141.684 175.002 141.944 174.64 142.194C171.664 144.269 168.94 146.684 166.523 149.39C163.714 152.524 161.313 156 159.376 159.736C157.088 164.111 155.472 168.805 154.582 173.661C154.501 174.073 154.58 174.657 153.96 174.726Z" fill="#45423E"/>
<path d="M153.957 174.727C154.149 173.811 154.332 172.893 154.533 171.983C156.128 164.675 159.337 157.816 163.927 151.91C166.93 147.983 170.534 144.554 174.605 141.75C174.86 141.618 175.077 141.423 175.236 141.184C175.418 140.862 189.186 131.438 204.584 134.466C205.5 135.173 205.608 136.535 205.11 137.769C204.624 138.974 203.717 139.352 202.265 139.315C200.924 139.28 199.587 139.204 198.252 139.281C196.006 139.401 193.774 139.703 191.576 140.184C185.561 141.508 179.932 144.205 175.131 148.064C169.376 152.657 165.033 158.466 162.05 165.425C160.838 168.279 159.928 171.252 159.335 174.296C159.299 174.479 158.804 177.43 158.653 178.734C158.515 179.944 157.97 180.788 156.872 181.189C155.258 181.774 153.534 180.522 153.499 178.71C153.48 177.796 153.665 176.898 153.795 175.998C153.845 175.639 153.901 174.786 153.957 174.727Z" fill="#9F9C98"/>
<path d="M140.82 168.436C138.067 168.436 135.314 168.445 132.561 168.432C131.271 168.426 130.337 167.756 129.805 166.528C129.546 165.966 129.446 165.343 129.518 164.728C129.589 164.113 129.828 163.529 130.209 163.041C130.823 162.198 131.7 161.874 132.674 161.841C133.33 161.819 133.987 161.832 134.647 161.833C139.294 161.836 143.94 161.84 148.587 161.843C149.468 161.843 150.288 162.004 150.986 162.64C151.465 163.086 151.809 163.658 151.978 164.29C152.146 164.923 152.134 165.59 151.941 166.216C151.751 166.85 151.37 167.411 150.85 167.821C150.345 168.217 149.723 168.435 149.081 168.441C146.328 168.456 143.576 168.446 140.823 168.446L140.82 168.436Z" fill="#F2BE63"/>
<path d="M53.7252 98.7721C53.8048 98.8349 53.8984 98.8775 53.9981 98.8962C54.0977 98.9148 54.2004 98.9091 54.2973 98.8794C56.0194 98.5212 57.7612 98.3146 59.5046 98.1227C59.6562 98.105 59.5805 98.1073 60.0106 98.0638C66.1327 97.5795 74.2933 97.9361 80.7108 99.7388C82.1255 100.155 83.552 100.465 84.9675 100.878C85.1123 100.887 92.0443 103.583 94.7378 105.124C94.9795 105.305 95.0965 105.404 95.2693 105.545C95.3293 106.12 95.2716 106.702 95.0997 107.255C94.9277 107.807 94.6451 108.319 94.2691 108.759C93.256 109.994 91.9312 110.936 90.4318 111.487C88.5111 110.6 86.5997 109.69 84.6158 108.963C78.0712 106.542 71.1271 105.384 64.1511 105.548C60.3322 105.617 56.5322 106.103 52.8187 106.997C41.2704 109.756 30.799 116.225 22.8246 125.528C22.5698 125.827 22.3095 126.119 22.0538 126.416C21.5228 127.036 21.2907 127.438 20.8993 127.931C20.249 128.751 19.6164 129.588 18.9829 130.422C17.5036 132.372 14.9037 132.476 13.284 130.433C12.1877 129.049 12.3748 126.963 13.2658 125.649C14.2356 124.247 15.2754 122.894 16.3814 121.596C17.5089 120.255 18.6074 118.884 19.8433 117.652C21.5751 115.926 23.2996 114.187 25.1833 112.649C31.6159 107.394 38.6657 103.387 46.4361 100.856C48.4858 100.186 50.5715 99.6323 52.6835 99.1967C53.0546 99.1228 53.4447 99.0951 53.7252 98.7721Z" fill="#E3AF60"/>
<path d="M116.938 124.751C118.82 127.119 120.352 129.743 121.832 132.401C123.563 135.542 125.038 138.819 126.243 142.197C127.396 145.304 128.313 148.494 128.984 151.74C129.06 152.108 129.152 152.467 129.237 152.836C129.406 153.838 129.6 154.83 129.394 155.864C128.971 157.983 127.979 159.642 126.083 160.566C124.494 161.339 123.116 160.531 122.857 158.692C122.206 153.869 121.033 149.132 119.359 144.563C117.395 139.219 114.703 134.172 111.36 129.563C111.208 129.352 111.064 129.13 110.919 128.912C111.283 127.632 112.033 126.596 112.756 125.531C113.162 124.933 113.79 125.031 114.313 124.856C115.159 124.573 116.049 124.341 116.938 124.751Z" fill="#E3AF60"/>
<path d="M116.513 124.638C112.362 124.282 111.058 128.637 110.926 128.91C109.154 126.587 107.236 124.38 105.183 122.301C101.043 118.128 96.2942 114.605 91.0993 111.853C90.872 111.735 90.6524 111.611 90.4287 111.485C90.6219 111.243 92.3294 110.887 93.7537 108.822C94.9584 107.075 95.2418 105.89 95.2659 105.543C96.6248 106.086 97.8117 106.968 99.0435 107.751C101.181 109.099 103.229 110.585 105.175 112.198C106.939 113.673 108.651 115.21 110.281 116.86C111.399 117.991 112.446 119.187 113.502 120.371C114.731 121.75 115.97 123.136 116.943 124.749" fill="#F5D394"/>
<path d="M224.161 144.578C223.715 143.786 223.037 143.206 222.492 142.498C219.56 138.694 217.457 134.41 215.976 129.765C215.807 129.231 215.651 128.692 215.481 128.158C215.41 127.932 215.356 127.673 215.053 127.682C211.315 124.277 206.802 122.378 202.384 120.298C195.707 117.162 188.737 115.005 181.686 113.105C176.155 111.615 170.552 110.509 164.932 109.487C164.421 109.394 163.874 109.349 163.521 108.842C163.444 108.474 163.413 108.098 163.428 107.722C163.42 103.276 163.422 98.83 163.435 94.3837C163.435 93.8995 163.294 93.3428 163.786 92.9844C164.894 93.2742 166.038 93.2742 167.162 93.4403C169.286 93.7533 171.424 93.9859 173.545 94.328C176.292 94.7653 179.046 95.1542 181.772 95.7352C183.653 96.1386 185.545 96.4785 187.421 96.9047C189.621 97.4047 191.822 97.9091 193.995 98.4971C197.616 99.4759 201.237 100.47 204.767 101.79C206.172 102.316 207.565 102.883 208.988 103.349C210.438 103.824 211.575 104.771 212.656 105.838C215.007 108.157 217.353 110.484 219.622 112.895C221.14 114.509 222.665 116.112 224.112 117.799C224.738 118.531 225.431 119.199 226.084 119.91C227.211 121.142 228.261 122.45 229.415 123.655C230.352 124.62 230.902 125.895 230.96 127.239C231.055 129.2 230.996 131.145 230.528 133.075C229.674 136.533 228.105 139.774 225.921 142.588C225.397 143.304 224.808 143.971 224.161 144.578Z" fill="#E3AF60"/>
<path d="M129.68 103.138L124.457 99.2845C124.37 99.2287 124.287 99.166 124.211 99.0969C123.895 98.7744 123.705 98.9228 123.506 99.2581C123.211 99.7568 122.878 100.232 122.559 100.716C121.804 101.857 121.065 103.012 120.289 104.136C119.713 104.971 118.981 105.228 118.174 104.96C117.886 104.86 117.624 104.698 117.405 104.486C117.187 104.275 117.016 104.018 116.906 103.734C116.796 103.45 116.75 103.146 116.769 102.842C116.788 102.538 116.873 102.242 117.018 101.974C117.22 101.604 117.443 101.245 117.687 100.901C120.343 96.85 123.002 92.8001 125.662 88.7513C125.828 88.4835 126.012 88.2275 126.213 87.9848C126.511 87.6097 126.943 87.366 127.418 87.3056C127.892 87.2453 128.372 87.3732 128.753 87.662C129.146 87.9593 129.419 88.388 129.521 88.8697C129.629 89.3579 129.564 89.8684 129.336 90.3137C129.087 90.7784 128.811 91.2281 128.509 91.6605C127.684 92.9143 126.851 94.1608 126.021 95.411C125.69 95.9095 125.683 95.9201 126.156 96.2711C127.937 97.5911 129.72 98.9074 131.505 100.22L129.68 103.138Z" fill="#45423E"/>
<path d="M151.208 91.9823C151.451 92.1655 151.435 92.4446 151.435 92.7085C151.441 97.4212 151.441 102.133 151.435 106.842C151.441 107.003 151.415 107.163 151.359 107.313C151.046 107.717 150.6 107.7 150.178 107.702C148.616 107.71 147.054 107.621 145.493 107.588C141.131 107.488 136.769 107.548 132.4 107.558C132.096 107.539 131.791 107.595 131.512 107.719C131.346 107.8 131.194 107.916 131.218 108.138C131.242 108.36 131.417 108.429 131.593 108.478C131.715 108.511 131.841 108.526 131.967 108.523C134.109 108.473 136.249 108.569 138.395 108.425C140.46 108.302 142.53 108.314 144.593 108.461C146.378 108.575 148.168 108.623 149.956 108.691C150.411 108.709 150.867 108.675 151.272 108.964C151.474 110.044 151.792 111.112 151.575 112.236C151.57 112.338 151.543 112.438 151.495 112.529C151.161 112.951 150.642 112.96 150.209 113.152C149.388 113.516 148.98 114.107 149.006 115.071C149.123 119.471 148.797 123.866 148.854 128.266C148.861 128.776 148.871 129.284 148.924 129.792C149.038 130.891 148.753 131.253 147.71 131.366C147.434 131.395 147.156 131.404 146.875 131.411C146.39 131.418 145.906 131.421 145.423 131.38C144.004 131.616 142.568 131.632 141.139 131.736C138.489 131.926 136.542 130.779 135.162 128.347C133.245 124.973 131.312 121.611 129.558 118.137C128.771 116.577 128.041 114.989 127.212 113.451C125.881 110.981 125.866 108.566 127.423 106.2C128.101 105.17 128.595 104.009 129.406 103.076C129.856 101.951 130.584 101.015 131.238 100.028C132.739 97.6737 134.324 95.3839 136.03 93.1922C136.55 92.5233 137.275 92.1109 137.943 91.6306C138.828 91.3758 142.039 91.3081 142.854 91.2797C143.779 91.2467 144.706 91.2667 145.632 91.2797C146.075 91.2833 150.358 91.5304 151.208 91.9823Z" fill="#E3AF60"/>
<path d="M205.641 137.285C205.498 137.215 205.38 137.104 205.301 136.967C205.221 136.829 205.185 136.671 205.197 136.512C205.255 135.383 204.567 134.826 203.727 134.41C202.608 133.975 194.077 133.122 185.595 136.256C182.597 137.259 179.723 138.603 177.031 140.261C176.532 140.575 175.981 140.786 175.514 141.162C175.448 141.214 175.322 141.18 175.225 141.187C174.56 140.175 174.119 139.03 173.52 137.978C172.592 136.352 171.611 134.773 170.356 133.402C169.37 132.325 168.254 131.499 166.842 131.197C166.454 131.228 166.396 130.927 166.349 130.632C166.307 130.286 166.292 129.937 166.305 129.588C166.305 127.147 166.263 124.705 166.315 122.265C166.361 119.956 166.113 117.658 166.143 115.352C166.172 114.967 166.077 114.584 165.872 114.257C165.668 113.931 165.364 113.678 165.005 113.537C164.703 113.4 164.409 113.244 164.127 113.069C163.91 112.932 163.676 112.793 163.771 112.449L163.799 110.703C164.051 110.333 164.392 110.385 164.756 110.443C168.954 111.115 173.123 111.945 177.263 112.933C182.241 114.131 187.189 115.445 192.036 117.158C195.94 118.497 199.763 120.062 203.485 121.846C205.25 122.712 207.051 123.508 208.662 124.681C209.259 125.148 209.784 125.7 210.219 126.32C211.317 127.772 211.04 129.459 210.937 131.111C210.906 131.628 210.675 132.108 210.633 132.627C209.68 134.172 208.869 135.8 208.211 137.492C208.076 137.846 207.895 137.977 207.517 137.841C206.906 137.62 206.27 137.468 205.641 137.285Z" fill="#E3AF60"/>
<path d="M210.639 132.631C210.462 132.206 210.427 131.736 210.539 131.29C210.705 130.355 210.646 129.417 210.646 128.479C210.646 127.56 210.169 126.847 209.645 126.192C208.997 125.382 208.191 124.712 207.277 124.223C203.051 121.964 198.669 120.009 194.166 118.372C190.922 117.175 187.65 116.082 184.325 115.177C180.122 114.033 175.904 112.978 171.634 112.111C169.181 111.614 166.71 111.241 164.255 110.756C164.107 110.727 163.951 110.722 163.804 110.705V108.934C165.313 109.086 166.796 109.405 168.285 109.69C170.221 110.06 172.153 110.454 174.081 110.87C176.105 111.311 178.132 111.739 180.133 112.305C181.668 112.737 183.22 113.105 184.758 113.532C188.52 114.575 192.237 115.773 195.91 117.126C198.891 118.225 201.776 119.587 204.676 120.904C207.445 122.167 210.122 123.623 212.687 125.261C213.441 125.741 214.136 126.331 214.849 126.883C215.101 127.08 215.328 127.315 215.053 127.681C214.092 128.588 213.099 129.456 212.246 130.49C211.679 131.178 211.177 131.917 210.639 132.631Z" fill="#F5D394"/>
<path d="M151.22 107.326L151.225 109.096C146.173 108.655 136.758 108.655 132.004 108.939C131.643 108.921 131.283 108.881 130.926 108.821C130.661 108.757 130.252 108.393 130.259 108.165C130.261 107.998 130.312 107.835 130.407 107.697C130.501 107.559 130.635 107.453 130.79 107.391C131.189 107.216 131.623 107.137 132.057 107.159C136.605 107.159 141.154 107.086 145.698 107.203C147.537 107.25 149.379 107.279 151.22 107.326Z" fill="#F5D394"/>
<path d="M229.164 128.787C229.162 130.451 228.902 132.104 228.394 133.688C227.567 136.407 226.252 138.953 224.515 141.202C224.169 141.661 224.152 141.662 223.788 141.209C222.144 139.107 220.756 136.816 219.654 134.386C218.81 132.546 218.079 130.656 217.467 128.726C217.273 128.128 217.295 128.022 217.858 127.714C219.792 126.629 221.902 125.894 224.091 125.542C225.093 125.389 226.106 125.392 227.108 125.261C227.209 125.252 227.31 125.249 227.411 125.255C228.364 125.273 228.514 125.403 228.872 126.326C229.189 127.149 229.183 128.003 229.164 128.787Z" fill="#FDFDFD"/>
<path d="M163.713 93.3794C163.713 98.5087 163.77 109.759 163.887 112.916C163.605 113.297 163.24 113.158 162.91 113.057C159.353 111.953 155.773 112.117 152.181 112.815C151.878 112.874 151.584 112.954 151.328 112.69L151.309 112.716C151.143 112.474 151.309 87.4074 151.288 85.8031C151.258 85.1377 151.404 84.4762 151.709 83.8843C152.105 83.1403 152.45 82.3663 152.818 81.6046C152.868 81.5497 152.936 81.5152 153.01 81.5078C157.151 83.3887 160.571 85.5715 163.689 88.9633C163.643 90.188 163.689 91.8285 163.713 93.3794Z" fill="#414141"/>
<path d="M153.023 81.2145H152.961L152.9 81.2024C153.2 80.443 153.217 79.6474 153.214 78.8385C153.205 76.4241 153.241 74.009 153.219 71.5955C153.2 70.7699 153.468 69.9633 153.978 69.3136C156.515 65.9302 159.285 62.7276 162.268 59.7289C164.127 57.8196 166.167 56.0952 168.359 54.5801C168.777 54.6865 168.599 54.9763 168.504 55.1988C167.154 58.3653 167.345 61.6858 167.769 64.9812C167.956 66.4337 168.334 67.9305 169.469 68.9974C169.552 69.0668 169.606 69.1638 169.621 69.2702C169.639 69.3773 169.617 69.487 169.562 69.58C166.997 70.8477 164.984 72.8166 163.285 75.18C163.147 75.3414 163.043 75.5287 162.978 75.7308C162.914 75.933 162.891 76.1459 162.91 76.3572C162.796 79.234 162.821 82.108 162.916 86.8416C162.912 86.8925 162.905 86.9432 162.896 86.9934C162.517 87.2662 162.27 86.9577 162.036 86.7463C161.023 85.8298 160.039 84.8784 158.948 84.061C157.774 83.1534 156.523 82.3519 155.208 81.6659C154.512 81.317 153.803 81.0813 153.023 81.2145Z" fill="#9F9C98"/>
<path d="M170.009 54.2285C170.249 54.3636 170.455 54.5518 170.612 54.7788C170.768 55.0058 170.87 55.2655 170.911 55.5382C171.242 57.0239 171.459 58.5324 171.563 60.0509C171.741 62.6507 171.387 65.1665 170.776 67.6621C170.679 68.1851 170.475 68.6824 170.178 69.1234C169.855 69.1816 169.756 68.9329 169.625 68.6949C168.119 65.9418 167.845 62.938 168.032 59.8437C168.057 59.4191 168.121 58.9947 168.147 58.5672C168.224 56.9438 168.885 55.4029 170.009 54.2285Z" fill="#9F9C98"/>
<path d="M165.363 113.223C166.149 113.59 166.535 114.129 166.568 115.129C166.727 120.173 166.683 125.216 166.695 130.259C166.695 130.582 166.727 131.926 166.725 132.299C166.713 134.392 166.68 136.485 166.707 138.577C166.717 139.312 166.429 139.733 165.832 139.999C160.837 141.45 154.349 141.379 149.801 139.836C148.776 139.506 148.503 139.098 148.495 137.973C148.484 136.498 148.495 135.022 148.495 133.546C148.495 132.929 148.505 132.312 148.495 131.695C148.485 131.078 148.646 121.514 148.646 121.22C148.646 118.966 148.663 116.711 148.641 114.457C148.634 113.749 148.879 113.323 149.501 113.027C156.724 110.6 160.516 111.306 165.363 113.223Z" fill="#9F9C98"/>
<path d="M149.989 126.506V115.628C149.989 115.44 149.983 115.252 149.989 115.062C150.005 114.316 150.064 114.216 150.74 113.953C153.28 112.917 160.708 111.936 164.672 114.718C165.298 115.068 165.398 115.426 165.425 116.272C165.527 118.177 165.35 132.33 165.355 137.781V138.105C165.337 138.882 165.287 138.919 164.546 139.082C159.987 140.092 155.252 139.981 150.745 138.759C150.068 138.58 150.031 138.563 150.03 137.782C150.024 135.283 150.024 132.785 150.03 130.288V126.501L149.989 126.506Z" fill="#45423E"/>
<path d="M152.851 81.3693C152.938 80.6795 153.336 80.6076 154.098 80.7979C155.021 81.0906 155.898 81.5079 156.708 82.0382C158.553 83.1641 160.257 84.5047 161.786 86.0321C162.127 86.3839 162.522 86.6776 162.893 86.9947C162.943 87.2236 163.06 87.4323 163.23 87.5942C163.711 88.055 163.776 88.5875 163.679 89.2596C162.878 89.1387 162.428 88.6302 161.921 88.0347C160.539 86.4689 158.962 85.0877 157.227 83.9254C156.015 83.1339 154.733 82.455 153.397 81.897C152.997 81.727 152.804 81.7375 152.851 81.3693Z" fill="#E0F7F9"/>
<path d="M170.019 54.2226C170.288 54.3792 170.461 54.4499 169.766 55.1045C168.889 55.9422 168.307 58.0538 168.366 61.5172C168.423 63.813 168.451 65.8569 170.187 69.1184C170.127 69.2381 170.039 69.3418 169.931 69.4212C169.824 69.5005 169.698 69.5533 169.566 69.5751C166.628 66.5015 166.911 57.0437 168.363 54.5761C168.964 53.9135 169.316 53.8385 170.019 54.2226Z" fill="#E0F7F9"/>
</g>
<defs>
<clipPath id="clip0_242_94598">
<rect width="227.302" height="227.302" fill="white" transform="translate(11.3652 11.3613)"/>
</clipPath>
</defs>
</svg>
