<svg width="250" height="250" viewBox="0 0 250 250" fill="none" xmlns="http://www.w3.org/2000/svg">
<rect width="250" height="250" rx="125" fill="white"/>
<g clip-path="url(#clip0_242_94670)">
<path d="M50.3659 50.0473C51.278 49.3463 52.3464 49.5364 53.3725 49.5321C62.4895 49.5321 212.618 49.5026 213.099 49.5321C216.583 49.625 218.166 52.2474 216.503 55.2751C210.591 65.9332 204.577 76.5576 198.64 87.2116C197.707 88.9007 196.254 89.1076 194.557 89.1034C178.088 89.078 91.2128 89.1372 88.7425 89.1372C86.2722 89.1372 84.942 86.9624 84.942 86.9624C84.942 86.9624 83.2064 83.7912 82.1001 81.8065C88.5398 81.8065 184.097 81.8698 190.685 81.9121C192.23 81.9121 193.463 81.5827 194.291 80.0921C198.28 72.9585 202.291 65.8488 206.326 58.763C207.196 57.2386 207.056 56.7361 205.169 56.7404C164.803 56.7952 62.1263 56.867 61.3451 56.7995C59.656 56.6812 59.0521 57.1753 60.0192 58.8222C62.0799 62.3397 128.749 181.408 136.029 194.334C136.455 195.016 136.678 195.805 136.673 196.609C136.669 197.413 136.437 198.2 136.004 198.878C129.534 210.335 123.088 221.804 116.663 233.284C115.857 234.729 114.818 235.818 113.095 235.67C112.29 235.648 111.507 235.394 110.842 234.939C110.177 234.483 109.658 233.846 109.345 233.103C105.684 226.199 78.1518 177.316 67.5061 158.487C65.741 155.362 67.3583 152.36 70.973 152.318C78.3629 152.237 85.7528 152.318 93.1511 152.318C93.9956 152.318 94.8022 152.318 95.2625 153.162C96.4659 155.303 97.8975 157.334 98.8602 159.94C97.8426 159.94 85.0391 159.881 79.4355 159.881C76.944 159.881 76.8258 160.113 78.0335 162.254C89.3618 182.396 100.69 202.541 112.018 222.69C112.905 224.269 113.357 224.379 114.273 222.69C118.72 214.624 123.183 206.567 127.786 198.62C128.745 196.965 128.601 195.824 127.723 194.292C120.722 182.063 56.869 68.3191 52.2366 59.9707C50.974 57.7116 49.0991 54.7557 48.8457 52.9188C49.0991 51.3775 49.5213 50.9552 50.3659 50.0473Z" fill="black"/>
<path d="M128.882 159.966C126.644 160.43 125.343 159.341 124.482 157.403C124.088 156.635 123.648 155.892 123.164 155.177C121.767 152.281 121.767 152.276 124.993 152.276H140.524C144.295 152.297 148.066 152.276 151.837 152.357C153.078 152.386 153.915 152.12 154.523 150.896C158.644 142.598 163.749 134.849 168.112 126.678C169.378 124.271 169.416 124.242 166.739 124.242C152.7 124.242 138.66 124.259 124.621 124.292C119.085 124.292 113.549 124.216 108.013 124.292C106.518 124.313 105.593 123.811 104.964 122.536C104.571 121.746 103.731 120.196 103.731 120.196C103.731 120.196 102.663 118.334 103.444 117.557C103.702 117.328 104.01 117.162 104.344 117.072C104.677 116.981 105.027 116.97 105.365 117.038C105.365 117.038 119.486 116.991 126.543 116.979H174.475C178.896 116.979 180.463 119.445 178.276 123.351C172.757 133.304 167.119 143.197 161.528 153.112C160.781 154.434 159.949 155.722 159.337 157.107C158.382 159.273 156.68 159.919 154.497 159.907C150.321 159.881 146.145 159.907 141.973 159.907L128.882 159.966Z" fill="black"/>
<path d="M63.9286 124.277C59.993 124.277 56.0405 124.044 52.1302 124.344C48.8026 124.602 47.2233 122.697 46.0409 120.257C42.8907 113.766 39.0269 107.677 35.5896 101.356C33.0221 96.6599 30.2984 92.0656 27.6719 87.3868C26.2699 84.8954 27.8745 81.8593 30.7038 81.8382C38.4146 81.7748 46.1254 81.8382 53.8362 81.8086C54.9552 81.8086 55.6815 82.1506 56.0869 83.1768C56.7583 84.8659 58.3165 86.4409 57.776 87.8218C57.2144 89.2702 52.962 89.1224 52.962 89.1224L39.1113 89.0252C39.1113 89.0252 37.1858 89.3546 38.0599 90.8832C42.7556 99.0951 47.3908 107.346 51.9655 115.637C52.6242 116.828 53.4392 117.098 54.6765 117.09C60.7784 117.039 66.8845 117.09 72.9864 117.005C74.5869 116.976 75.5201 117.448 76.1366 118.918C76.7548 120.231 77.4602 121.5 78.248 122.718C79.0335 124.032 78.5309 124.361 77.1965 124.348C72.7795 124.31 68.3583 124.348 63.9413 124.348L63.9286 124.277Z" fill="black"/>
</g>
<defs>
<clipPath id="clip0_242_94670">
<rect width="190.025" height="186.172" fill="white" transform="translate(27.1406 49.5117)"/>
</clipPath>
</defs>
</svg>
