<svg width="250" height="250" viewBox="0 0 250 250" fill="none" xmlns="http://www.w3.org/2000/svg">
<path d="M125.767 4.99605L124.066 4.99805L124.132 61.098L125.833 61.096L125.767 4.99605Z" fill="#6868FC"/>
<path d="M181.39 156.006L180.527 157.471L228.185 185.524L229.047 184.059L181.39 156.006Z" fill="#6868FC"/>
<path d="M68.8607 156.048L21.2031 184.102L22.0655 185.567L69.7231 157.513L68.8607 156.048Z" fill="#6868FC"/>
<path d="M124.9 126.148C124.7 126.148 124.45 126.098 124.25 125.998L68.4996 93.7984C68.0996 93.5484 67.8496 93.1484 67.8496 92.6984C67.8496 92.2484 68.0996 91.8484 68.4996 91.5984L124.25 59.3984C124.65 59.1484 125.15 59.1484 125.5 59.3984L181.15 91.6984C181.55 91.9484 181.8 92.3484 181.8 92.7984C181.8 93.2484 181.55 93.6484 181.15 93.8984L125.5 125.998C125.3 126.098 125.1 126.148 124.9 126.148ZM71.6996 92.6984L124.9 123.448L178 92.7984L124.9 61.9984L71.6996 92.6984Z" fill="#77E3EF"/>
<path d="M124.9 190.198C124.7 190.198 124.45 190.148 124.25 190.048L68.6004 158.098C68.2004 157.848 67.9504 157.448 67.9504 156.998L67.9004 92.7484C67.9004 92.2984 68.1504 91.8984 68.5504 91.6484C68.9504 91.3984 69.4504 91.3984 69.8004 91.6484L125.5 123.798C125.9 124.048 126.15 124.448 126.15 124.898V188.948C126.15 189.398 125.9 189.798 125.5 190.048C125.3 190.098 125.1 190.198 124.9 190.198ZM70.5004 156.248L123.6 186.748V125.598L70.4004 94.8484L70.5004 156.248Z" fill="#4ACBDC"/>
<path d="M124.902 190.198C124.702 190.198 124.452 190.148 124.252 190.048C123.852 189.798 123.602 189.398 123.602 188.948V124.898C123.602 124.448 123.852 124.048 124.252 123.798L179.902 91.748C180.302 91.498 180.802 91.498 181.152 91.748C181.552 91.998 181.802 92.398 181.802 92.848V157.148C181.802 157.598 181.552 158.048 181.152 158.248L125.502 189.998C125.302 190.098 125.102 190.198 124.902 190.198ZM126.152 125.598V186.698L179.252 156.348V94.998L126.152 125.598Z" fill="#07ABC5"/>
<path d="M124.902 248.1L18.252 186.5V63.35L124.902 1.75L231.602 63.35V186.5L124.902 248.1ZM24.152 183.1L124.902 241.25L225.652 183.1V66.75L124.902 8.6L24.152 66.75V183.1Z" fill="#7C7CFF"/>
<path d="M124.902 128.448L19.9017 67.6981C18.5017 66.8981 18.0017 65.0481 18.8017 63.6481C19.6017 62.2481 21.4517 61.7481 22.8517 62.5481L124.902 121.548L227.302 62.4981C228.702 61.6981 230.552 62.1481 231.352 63.5981C232.152 64.9981 231.702 66.8481 230.252 67.6481L124.902 128.448Z" fill="#7C7CFF"/>
<path d="M125.101 247.648C123.451 247.648 122.15 246.298 122.15 244.698V125.048C122.15 123.398 123.501 122.098 125.101 122.098C126.701 122.098 128.051 123.448 128.051 125.048V244.698C128.051 246.298 126.701 247.648 125.101 247.648Z" fill="#7C7CFF"/>
</svg>
