<svg width="250" height="250" viewBox="0 0 250 250" fill="none" xmlns="http://www.w3.org/2000/svg">
<g clip-path="url(#clip0_242_93465)">
<path d="M174.648 60.3477H125.498H86.3477V84.6977V199.298H125.498V84.6977H174.648V60.3477Z" fill="#00A3E0"/>
<path d="M157.155 112.015L132.406 136.764L157.155 161.512L181.903 136.764L157.155 112.015Z" fill="white"/>
<path d="M124.75 249.998C55.7 249.998 -0.25 194.048 -0.25 124.998C-0.25 55.948 55.7 -0.00195312 124.75 -0.00195312C193.8 -0.00195312 249.75 55.948 249.75 124.998C249.7 193.998 193.75 249.948 124.75 249.998ZM124.75 18.498C65.95 18.498 18.25 66.198 18.25 124.998C18.25 183.798 65.95 231.498 124.75 231.498C183.55 231.498 231.25 183.798 231.25 124.998C231.2 66.198 183.55 18.548 124.75 18.498Z" fill="#6363FF"/>
</g>
<defs>
<clipPath id="clip0_242_93465">
<rect width="250" height="250" rx="125" fill="white"/>
</clipPath>
</defs>
</svg>
