<svg width="250" height="250" viewBox="0 0 250 250" fill="none" xmlns="http://www.w3.org/2000/svg">
<g clip-path="url(#clip0_242_94759)">
<path d="M125 250C194.036 250 250 194.036 250 125C250 55.9644 194.036 0 125 0C55.9644 0 0 55.9644 0 125C0 194.036 55.9644 250 125 250Z" fill="#EDF0F4"/>
<path d="M124.941 218.569C176.618 218.569 218.51 176.676 218.51 124.999C218.51 73.3222 176.618 31.4297 124.941 31.4297C73.2636 31.4297 31.3711 73.3222 31.3711 124.999C31.3711 176.676 73.2636 218.569 124.941 218.569Z" fill="#FEFEFE"/>
<path d="M86.2835 166.064C88.4515 166.064 90.4985 164.86 91.462 162.933L105.25 136.741H83.9355C80.684 136.741 78.095 134.092 78.095 130.901V119.159C78.095 115.908 80.744 113.319 83.9355 113.319H117.654L143.846 63.704C144.87 61.7775 146.857 60.573 149.024 60.573H193.16C176.059 42.5097 151.914 31.25 125.06 31.25C73.278 31.25 31.25 73.2175 31.25 125.06C31.25 139.752 34.6219 153.721 40.7032 166.125H86.2835V166.064Z" fill="#9B1C2E"/>
<path d="M163.718 83.933C161.55 83.933 159.503 85.1375 158.54 87.064L144.751 113.257H166.066C169.318 113.257 171.907 115.906 171.907 119.097V130.839C171.907 134.09 169.257 136.679 166.066 136.679H132.347L106.155 186.294C105.132 188.221 103.145 189.425 100.977 189.425H56.8418C73.9418 207.488 98.0868 218.748 124.941 218.748C176.724 218.748 218.752 176.78 218.752 124.938C218.752 110.246 215.38 96.2765 209.298 83.873H163.718V83.933Z" fill="#9B1C2E"/>
</g>
<defs>
<clipPath id="clip0_242_94759">
<rect width="250" height="250" fill="white"/>
</clipPath>
</defs>
</svg>
