<svg width="250" height="250" viewBox="0 0 250 250" fill="none" xmlns="http://www.w3.org/2000/svg">
<g clip-path="url(#clip0_242_94870)">
<path d="M125 250.033C194.036 250.033 250 194.061 250 125.016C250 55.9717 194.036 0 125 0C55.9644 0 0 55.9717 0 125.016C0 194.061 55.9644 250.033 125 250.033Z" fill="black"/>
<path d="M36.6076 36.6142C-12.2091 85.4372 -12.2091 164.589 36.6076 213.412C85.4243 262.235 164.566 262.235 213.383 213.412C262.199 164.589 262.199 85.4372 213.383 36.6142C164.566 -12.2089 85.4243 -12.2006 36.6076 36.6142ZM206.324 206.353C161.483 251.201 88.5243 251.201 43.6826 206.353C-1.15905 161.505 -1.15905 88.5376 43.6826 43.6901C88.5243 -1.15744 161.483 -1.15744 206.324 43.6901C251.166 88.5376 251.166 161.505 206.324 206.353Z" fill="url(#paint0_linear_242_94870)"/>
<path d="M96.7921 141.111H79.6421L96.9671 61.2422H190.434L166.684 92.3296H126.934L122.867 111.19H152.275L78.0088 208.295L96.7921 141.111Z" fill="white"/>
</g>
<defs>
<linearGradient id="paint0_linear_242_94870" x1="36.611" y1="213.418" x2="213.409" y2="36.6432" gradientUnits="userSpaceOnUse">
<stop stop-color="#00F9FF"/>
<stop offset="1" stop-color="#FF0095"/>
</linearGradient>
<clipPath id="clip0_242_94870">
<rect width="250" height="250" rx="125" fill="white"/>
</clipPath>
</defs>
</svg>
