<svg width="250" height="250" viewBox="0 0 250 250" fill="none" xmlns="http://www.w3.org/2000/svg">
<rect width="250" height="250" rx="125" fill="white"/>
<g clip-path="url(#clip0_242_94669)">
<path d="M195.718 51.7123C195.718 51.7123 160.193 61.497 146.814 65.307C133.435 69.117 125.08 97.7909 125.009 98.0593L85.6559 109.096C85.6559 109.096 71.3458 111.94 71.3458 126.733C71.3458 140.775 85.6559 135.48 85.6559 135.48C85.6559 135.48 92.5068 133.691 105.887 129.863C119.267 126.035 124.955 98.3096 125.009 98.0593L195.718 78.3828C195.718 78.3828 210.029 75.3062 210.029 60.4952C210.1 46.4355 195.718 51.7123 195.718 51.7123ZM54.3167 198.319C54.3167 198.319 92.4889 187.587 105.869 183.759C119.249 179.931 124.937 152.241 125.009 151.973L164.361 140.936C164.361 140.936 178.671 138.092 178.671 123.299C178.671 109.257 164.361 114.248 164.361 114.248C164.361 114.248 157.51 116.036 144.13 119.882C130.751 123.728 125.062 151.722 125.009 151.973L54.3167 171.649C54.3167 171.649 40.0063 174.726 40.0063 189.537C39.9172 203.596 54.3167 198.319 54.3167 198.319Z" fill="#FF671D"/>
</g>
<defs>
<clipPath id="clip0_242_94669">
<rect width="170.022" height="170.023" fill="white" transform="translate(40.0059 40.0039)"/>
</clipPath>
</defs>
</svg>
