<svg width="250" height="250" viewBox="0 0 250 250" fill="none" xmlns="http://www.w3.org/2000/svg">
<g clip-path="url(#clip0_242_94123)">
<path fill-rule="evenodd" clip-rule="evenodd" d="M249.999 125.004C249.999 194.04 194.035 250.004 124.999 250.004C55.9631 250.004 -0.000976562 194.04 -0.000976562 125.004C-0.000976562 55.968 55.9631 0.00390625 124.999 0.00390625C194.035 0.00390625 249.999 55.968 249.999 125.004Z" fill="#7E2023"/>
<path fill-rule="evenodd" clip-rule="evenodd" d="M124.999 231.818C66.1017 231.818 18.1846 183.901 18.1846 125.004C18.1846 66.1066 66.1017 18.1895 124.999 18.1895C183.896 18.1895 231.813 66.1066 231.813 125.004C231.813 183.901 183.896 231.818 124.999 231.818Z" fill="url(#paint0_linear_242_94123)"/>
<path fill-rule="evenodd" clip-rule="evenodd" d="M134.108 184.44C123.827 173.871 110.646 165.608 103.564 157.455C90.9422 142.923 86.5251 130.203 90.6957 116.092C94.8663 101.981 105.489 93.7056 123.983 88.3707C134.359 85.3776 149.914 85.6075 164.289 82.3251C183.085 77.7305 198.965 67.5889 202.819 45.3037L187.96 38.0488C185.831 61.9356 171.042 70.2878 150.81 71.5744C108.025 74.1075 82.3684 84.7546 74.5189 111.311C66.6701 137.867 82.4167 160.751 116.95 186.136C133.232 198.215 141.105 213.265 129.906 234.471L146.321 236.46C155.202 215.661 147.386 198.515 134.108 184.44Z" fill="#7E2023"/>
<path fill-rule="evenodd" clip-rule="evenodd" d="M157.468 87.5527C152.731 88.2931 148.014 88.7855 143.399 89.2661C142.446 89.3656 141.501 89.4636 140.565 89.5638C142.552 91.3407 144.348 93.0914 145.865 94.8366C158.487 109.368 162.904 122.089 158.733 136.199C154.563 150.31 143.94 158.585 125.446 163.92C123.225 164.561 120.765 165.054 118.132 165.466C118.862 166.058 119.603 166.654 120.349 167.256C123.961 170.167 127.653 173.145 131.225 176.342C154.671 170.756 169.315 159.91 174.909 140.98C180.505 122.051 174.11 104.986 157.468 87.5527Z" fill="#3A3A39"/>
<path fill-rule="evenodd" clip-rule="evenodd" d="M115.319 67.8494C116.61 69.1754 117.945 70.4654 119.308 71.723C119.919 71.5884 120.536 71.4558 121.159 71.3266C125.819 70.3618 130.807 69.5711 136.209 68.9433C134.991 68.0165 133.747 67.087 132.478 66.1533C116.194 54.0746 108.323 39.0248 119.522 17.819L103.106 15.8301C94.2256 36.6291 102.041 53.7741 115.319 67.8494Z" fill="#3A3A39"/>
<path fill-rule="evenodd" clip-rule="evenodd" d="M91.9338 170.222C91.4801 169.774 91.0347 169.328 90.5961 168.883C88.7674 169.198 86.9456 169.554 85.1417 169.966C66.3454 174.561 50.4649 184.703 46.6113 206.987L61.4711 214.242C63.5996 190.356 78.3883 182.004 98.621 180.717C100.194 180.624 101.743 180.52 103.269 180.404C99.0768 176.94 95.3206 173.566 91.9338 170.222Z" fill="#3A3A39"/>
<path fill-rule="evenodd" clip-rule="evenodd" d="M148.094 135.822L99.829 121.557C97.9699 121.008 96.9077 119.055 97.4574 117.195L97.6425 116.569C98.1916 114.71 100.145 113.648 102.004 114.198L150.269 128.462C152.129 129.012 153.19 130.965 152.641 132.825L152.456 133.45C151.906 135.31 149.953 136.372 148.094 135.822Z" fill="#3A3A39"/>
<path fill-rule="evenodd" clip-rule="evenodd" d="M138.493 137.217L107.131 127.947C105.099 127.347 102.964 128.508 102.363 130.54C101.763 132.572 102.924 134.706 104.956 135.307L136.319 144.577C138.351 145.177 140.485 144.017 141.086 141.985C141.687 139.952 140.526 137.818 138.493 137.217Z" fill="#3A3A39"/>
<path fill-rule="evenodd" clip-rule="evenodd" d="M145.144 114.717L113.782 105.447C111.749 104.847 109.615 106.008 109.014 108.039C108.413 110.072 109.574 112.206 111.606 112.807L142.969 122.077C145.001 122.677 147.135 121.517 147.736 119.484C148.337 117.452 147.176 115.318 145.144 114.717Z" fill="#3A3A39"/>
<path fill-rule="evenodd" clip-rule="evenodd" d="M173.355 50.3617L125.09 36.0965C123.231 35.5468 122.168 33.5938 122.718 31.7347L122.903 31.1083C123.453 29.2492 125.406 28.187 127.265 28.7367L175.53 43.0012C177.389 43.551 178.452 45.504 177.902 47.3638L177.717 47.9895C177.167 49.8493 175.214 50.9108 173.355 50.3617Z" fill="#3A3A39"/>
<path fill-rule="evenodd" clip-rule="evenodd" d="M163.752 51.7539L132.389 42.4846C130.357 41.8838 128.222 43.0447 127.621 45.0771C127.021 47.1096 128.181 49.2442 130.214 49.8444L161.576 59.1137C163.609 59.7145 165.743 58.5543 166.343 56.5219C166.944 54.4894 165.784 52.3547 163.752 51.7539Z" fill="#3A3A39"/>
<path fill-rule="evenodd" clip-rule="evenodd" d="M170.404 29.252L139.041 19.9826C137.009 19.3818 134.874 20.5427 134.273 22.5752C133.673 24.6069 134.833 26.7416 136.866 27.3424L168.229 36.6118C170.261 37.2126 172.396 36.0517 172.996 34.0192C173.597 31.9875 172.436 29.8528 170.404 29.252Z" fill="#3A3A39"/>
<path fill-rule="evenodd" clip-rule="evenodd" d="M122.837 221.287L74.5722 207.022C72.7124 206.473 71.6509 204.52 72.2007 202.66L72.385 202.034C72.9348 200.174 74.8878 199.113 76.7476 199.663L125.012 213.927C126.871 214.477 127.933 216.43 127.384 218.29L127.199 218.915C126.65 220.775 124.696 221.837 122.837 221.287Z" fill="#3A3A39"/>
<path fill-rule="evenodd" clip-rule="evenodd" d="M113.234 222.68L81.871 213.41C79.8385 212.81 77.7045 213.97 77.1037 216.003C76.5029 218.035 77.6638 220.169 79.6963 220.77L111.058 230.04C113.091 230.64 115.225 229.479 115.826 227.448C116.427 225.415 115.266 223.281 113.234 222.68Z" fill="#3A3A39"/>
<path fill-rule="evenodd" clip-rule="evenodd" d="M119.885 200.182L88.5224 190.912C86.4906 190.312 84.3559 191.472 83.7551 193.504C83.1543 195.537 84.3152 197.671 86.3476 198.272L117.709 207.542C119.742 208.142 121.877 206.981 122.477 204.949C123.078 202.917 121.917 200.783 119.885 200.182Z" fill="#3A3A39"/>
<path fill-rule="evenodd" clip-rule="evenodd" d="M125.002 231.82C66.1044 231.82 18.1873 183.903 18.1873 125.005C18.1873 66.1083 66.1044 18.1912 125.002 18.1912C183.899 18.1912 231.816 66.1083 231.816 125.005C231.816 183.903 183.899 231.82 125.002 231.82ZM125.002 11.2852C62.2964 11.2852 11.2812 62.3003 11.2812 125.005C11.2812 187.711 62.2964 238.726 125.002 238.726C187.707 238.726 238.722 187.711 238.722 125.005C238.722 62.3003 187.707 11.2852 125.002 11.2852Z" fill="#FFFFFE"/>
</g>
<defs>
<linearGradient id="paint0_linear_242_94123" x1="-115.965" y1="0.33571" x2="-115.965" y2="249.672" gradientUnits="userSpaceOnUse">
<stop stop-color="white"/>
<stop offset="1" stop-color="#7E2023"/>
</linearGradient>
<clipPath id="clip0_242_94123">
<rect width="250" height="250" rx="125" fill="white"/>
</clipPath>
</defs>
</svg>
