<svg width="250" height="250" viewBox="0 0 250 250" fill="none" xmlns="http://www.w3.org/2000/svg">
<g clip-path="url(#clip0_242_93466)">
<path d="M125 0.5C56.25 0.5 0.5 56.25 0.5 125C0.5 193.75 56.25 249.5 125 249.5C193.75 249.5 249.5 193.75 249.5 125C249.5 56.25 193.75 0.5 125 0.5ZM152.35 207.85L102.95 136.95C97.45 129.1 98.65 118.3 105.75 111.85L110.8 107.25C118.05 100.65 118.55 89.45 111.95 82.2C105.35 75 94.15 74.45 86.9 81.05L81.85 85.65C61.7 104.05 58.25 134.75 73.85 157.15L111.5 211.25C69.75 204.75 37.65 168.55 37.65 125C37.65 86.75 62.35 54.3 96.6 42.45L145.8 113C151.3 120.85 150.1 131.65 143 138.1L137.95 142.7C130.7 149.3 130.2 160.5 136.8 167.75C140.3 171.6 145.05 173.55 149.9 173.55C154.2 173.55 158.4 172.05 161.85 168.9L166.9 164.3C187.05 145.9 190.5 115.2 174.9 92.8L137.1 38.6C179.55 44.45 212.3 81 212.3 125C212.3 163.6 187.15 196.35 152.35 207.85Z" fill="#7E6BE4"/>
</g>
<defs>
<clipPath id="clip0_242_93466">
<rect width="250" height="250" rx="125" fill="white"/>
</clipPath>
</defs>
</svg>
