<svg width="250" height="250" viewBox="0 0 250 250" fill="none" xmlns="http://www.w3.org/2000/svg">
<g clip-path="url(#clip0_242_94771)">
<path d="M125 250C194.036 250 250 194.036 250 125C250 55.9644 194.036 0 125 0C55.9644 0 0 55.9644 0 125C0 194.036 55.9644 250 125 250Z" fill="#EDF0F4"/>
<path d="M102.67 94.116L101.862 94.925L83.3328 113.454L77.7448 119.042C77.4503 119.476 77.0758 119.85 76.6418 120.145C74.9118 121.281 72.5883 120.8 71.4508 119.071C71.0388 118.453 70.8233 117.725 70.8333 116.983V99.41C71.1498 90.829 78.2013 84.037 86.7883 84.043H102.67L98.0383 88.7485L92.6708 94.116H102.67Z" fill="url(#paint0_linear_242_94771)"/>
<path d="M178.625 104.264V105.44C178.358 115.429 174.493 124.985 167.743 132.351L115.171 184.923C112.258 187.526 108.489 188.966 104.583 188.967C103.523 188.946 102.467 188.848 101.421 188.673L98.3335 187.717C95.031 186.571 91.8125 185.195 88.7015 183.6L88.04 183.232C87.463 182.8 87.1335 182.114 87.1575 181.394C87.15 180.893 87.305 180.403 87.5985 179.997L146.567 120.955C146.854 120.643 147.101 120.297 147.302 119.925C147.669 119.221 147.965 118.482 148.185 117.719C148.295 117.235 148.368 116.744 148.405 116.249C148.47 115.935 148.495 115.613 148.479 115.293C148.479 109.852 144.068 105.44 138.626 105.44H117.083L131.568 90.9552C132.002 90.6612 132.376 90.2867 132.671 89.8527C133.061 89.2372 133.265 88.5222 133.259 87.7937C133.259 85.7227 131.58 84.0437 129.509 84.0437H98.775C98.775 84.0437 101.716 80.8087 102.892 79.6322C105.539 76.7647 108.774 73.0882 112.303 70.5147C119.419 65.2812 128.028 62.4717 136.862 62.5002C142.092 62.5067 147.277 63.4792 152.155 65.3682L154.14 66.1767C157.671 67.8017 160.962 69.9047 163.92 72.4267L164.508 72.9412H164.581C173.508 80.8762 178.618 92.2472 178.625 104.19V104.264Z" fill="url(#paint1_linear_242_94771)"/>
<path fill-rule="evenodd" clip-rule="evenodd" d="M98.9951 84.0469H136.053C138.124 84.0469 139.803 85.7259 139.803 87.7969C139.819 88.5379 139.586 89.2629 139.141 89.8554L123.627 105.443H83.4806C82.5011 105.453 81.6116 104.873 81.2256 103.973C80.8396 103.072 81.0331 102.028 81.7161 101.326L98.9951 84.0469ZM118.186 92.4294C118.225 93.7404 119.3 94.7829 120.612 94.7819C121.911 94.7619 122.948 93.6919 122.928 92.3924C122.908 91.0929 121.838 90.0559 120.538 90.0764C120.095 90.0754 119.661 90.2034 119.288 90.4439C118.991 90.6309 118.74 90.8819 118.553 91.1794C118.322 91.5559 118.195 91.9874 118.186 92.4294Z" fill="#E35CC7"/>
<path d="M103.774 84.043H98.701L81.643 101.027C80.891 101.764 80.6635 102.884 81.068 103.856C81.473 104.827 82.4285 105.454 83.481 105.439H91.3485L112.745 84.043H103.774Z" fill="#8961D0"/>
<path d="M120.538 94.7803C121.837 94.7803 122.891 93.7268 122.891 92.4272C122.891 91.1277 121.837 90.0742 120.538 90.0742C119.238 90.0742 118.185 91.1277 118.185 92.4272C118.185 93.7268 119.238 94.7803 120.538 94.7803Z" fill="#8961D0"/>
<path opacity="0.48" d="M120.538 94.7803C121.837 94.7803 122.891 93.7268 122.891 92.4272C122.891 91.1277 121.837 90.0742 120.538 90.0742C119.238 90.0742 118.185 91.1277 118.185 92.4272C118.185 93.7268 119.238 94.7803 120.538 94.7803Z" fill="url(#paint2_linear_242_94771)"/>
<path opacity="0.48" d="M122.818 92.4274C122.818 91.1563 121.809 90.1142 120.538 90.0742C119.698 90.0967 118.925 90.5388 118.479 91.2508C118.928 90.8628 119.504 90.6533 120.097 90.6628C121.356 90.6628 122.377 91.6833 122.377 92.9424V93.0159C122.391 93.4044 122.289 93.7885 122.083 94.1185C122.555 93.6835 122.822 93.0694 122.818 92.4274Z" fill="#480061"/>
<path opacity="0.75" fill-rule="evenodd" clip-rule="evenodd" d="M98.994 84.0469H136.052C138.123 84.0469 139.802 85.7259 139.802 87.7969C139.818 88.5379 139.585 89.2629 139.14 89.8554L123.626 105.443H83.4795C82.5135 105.424 81.6505 104.833 81.2835 103.939C80.9165 103.045 81.1145 102.018 81.7885 101.326L98.994 84.0469ZM118.874 94.0929C119.315 94.5339 119.914 94.7819 120.538 94.7819C121.794 94.7094 122.785 93.6864 122.817 92.4289C122.818 91.1579 121.808 90.1159 120.538 90.0759C120.094 90.0754 119.66 90.2029 119.288 90.4439C118.99 90.6304 118.739 90.8819 118.552 91.1789C118.321 91.5559 118.195 91.9869 118.185 92.4289C118.185 93.0529 118.433 93.6514 118.874 94.0929Z" fill="url(#paint3_linear_242_94771)"/>
<path d="M103.774 84.043H98.701L81.643 101.027C80.891 101.764 80.6635 102.884 81.068 103.856C81.473 104.827 82.4285 105.454 83.481 105.439H91.3485L112.745 84.043H103.774Z" fill="url(#paint4_linear_242_94771)"/>
<path opacity="0.43" d="M128.038 105.438L138.846 90.2188L123.627 105.438H128.038Z" fill="url(#paint5_linear_242_94771)"/>
</g>
<defs>
<linearGradient id="paint0_linear_242_94771" x1="70.8333" y1="120.761" x2="102.67" y2="120.761" gradientUnits="userSpaceOnUse">
<stop stop-color="#4750D9"/>
<stop offset="0.41" stop-color="#5C45DC"/>
<stop offset="1" stop-color="#8131E1"/>
</linearGradient>
<linearGradient id="paint1_linear_242_94771" x1="87.1575" y1="188.966" x2="178.625" y2="188.966" gradientUnits="userSpaceOnUse">
<stop stop-color="#E96161"/>
<stop offset="0.2" stop-color="#E65B76"/>
<stop offset="0.61" stop-color="#DF4AAC"/>
<stop offset="1" stop-color="#D739E6"/>
</linearGradient>
<linearGradient id="paint2_linear_242_94771" x1="118.177" y1="94.7544" x2="122.832" y2="94.7544" gradientUnits="userSpaceOnUse">
<stop stop-color="#B100D3"/>
<stop offset="0.23" stop-color="#9C00C0"/>
<stop offset="0.69" stop-color="#67008E"/>
<stop offset="1" stop-color="#40006A"/>
</linearGradient>
<linearGradient id="paint3_linear_242_94771" x1="81.1045" y1="105.442" x2="139.802" y2="105.442" gradientUnits="userSpaceOnUse">
<stop stop-color="#D0D7D3"/>
<stop offset="0.52" stop-color="#D9C5E8"/>
<stop offset="1" stop-color="#E3B1FF"/>
</linearGradient>
<linearGradient id="paint4_linear_242_94771" x1="80.915" y1="105.422" x2="112.737" y2="105.422" gradientUnits="userSpaceOnUse">
<stop stop-color="#B277EC"/>
<stop offset="0.77" stop-color="#9336E7"/>
<stop offset="1" stop-color="#8921E6"/>
</linearGradient>
<linearGradient id="paint5_linear_242_94771" x1="123.605" y1="105.452" x2="138.853" y2="105.452" gradientUnits="userSpaceOnUse">
<stop stop-opacity="0.5"/>
<stop offset="0.1" stop-color="#201322" stop-opacity="0.59"/>
<stop offset="0.25" stop-color="#4A2C4E" stop-opacity="0.72"/>
<stop offset="0.4" stop-color="#6D4173" stop-opacity="0.82"/>
<stop offset="0.55" stop-color="#885190" stop-opacity="0.9"/>
<stop offset="0.7" stop-color="#9B5DA4" stop-opacity="0.95"/>
<stop offset="0.85" stop-color="#A664B0" stop-opacity="0.99"/>
<stop offset="1" stop-color="#AA66B4"/>
</linearGradient>
<clipPath id="clip0_242_94771">
<rect width="250" height="250" fill="white"/>
</clipPath>
</defs>
</svg>
