<svg width="250" height="250" viewBox="0 0 250 250" fill="none" xmlns="http://www.w3.org/2000/svg">
<g clip-path="url(#clip0_242_94120)">
<path fill-rule="evenodd" clip-rule="evenodd" d="M124.998 143.766C124.998 143.766 106.248 120.567 106.248 92.6293C106.248 67.3452 124.998 48.8793 124.998 48.8793C124.998 48.8793 143.748 67.3452 143.748 92.6293C143.748 120.567 124.998 143.766 124.998 143.766ZM132.254 183.311C132.515 185.277 132.669 187.43 132.669 189.788C132.669 195.839 129.043 202.97 126.776 206.834C125.981 208.197 124.015 208.197 123.22 206.834C120.953 202.97 117.328 195.839 117.328 189.788C117.328 186.908 117.555 184.328 117.93 182.033C119.737 170.976 124.998 166.493 124.998 166.493C124.998 166.493 130.663 171.317 132.254 183.311ZM216.163 112.129C208.259 112.311 187.509 111.885 177.555 113.936C159.186 117.726 142.328 136.379 142.328 136.379C142.328 136.379 156.356 113.374 150.566 77.0043C147.254 56.169 124.998 28.1406 124.998 28.1406C124.998 28.1406 102.742 56.169 99.4299 77.0043C93.6458 113.374 107.669 136.379 107.669 136.379C107.669 136.379 90.8105 117.726 72.4412 113.936C62.4867 111.885 41.7424 112.311 33.8389 112.129C21.873 111.851 41.6401 135.572 47.1571 142.345C56.8389 154.226 66.6628 159.788 72.7139 162.294C73.9412 162.805 74.9242 161.191 73.9014 160.334C63.7878 151.886 44.0321 129.464 47.1571 123.595C49.5776 119.05 75.8503 120.942 94.0321 136.095C100.299 141.317 118.748 157.402 118.748 157.402C118.748 157.402 118.657 157.396 118.481 157.391C116.589 157.345 104.867 157.374 90.0549 164.22C74.6287 171.346 66.4753 188.652 66.4753 188.652C68.0833 190.555 84.4128 191.822 90.339 190.925C93.589 190.43 100.441 187.328 104.975 185.152C105.22 185.033 105.328 184.817 105.328 184.607C105.328 184.249 105.032 183.896 104.583 183.988C99.5094 185.01 91.7594 186.391 88.3503 186.095C86.1117 185.902 80.2821 185.453 79.8276 183.254C78.748 178.033 91.0946 171.669 95.7367 169.05C100.572 166.322 116.049 162.589 118.436 162.021C118.64 161.971 118.748 161.947 118.748 161.947C118.748 161.947 113.873 170.01 112.044 181.266C111.833 182.55 111.668 183.868 111.549 185.226C111.43 186.617 111.362 188.05 111.362 189.504C111.362 209.203 123.862 221.891 123.862 221.891H126.134C126.134 221.891 138.634 209.203 138.634 189.504C138.634 188.067 138.572 186.658 138.453 185.277C138.373 184.362 138.271 183.464 138.151 182.584C136.509 170.646 131.248 161.947 131.248 161.947C131.248 161.947 149.021 166.09 154.259 169.05C158.901 171.669 171.248 178.033 170.169 183.254C169.714 185.453 163.884 185.902 161.646 186.095C158.237 186.391 150.487 185.01 145.413 183.988C144.936 183.891 144.629 184.305 144.674 184.68C144.697 184.868 144.805 185.05 145.026 185.152C149.555 187.328 156.407 190.43 159.657 190.925C165.583 191.822 181.913 190.555 183.521 188.652C183.521 188.652 175.367 171.346 159.941 164.22C143.748 156.737 131.248 157.402 131.248 157.402C131.248 157.402 149.697 141.317 155.964 136.095C174.146 120.942 200.424 119.05 202.839 123.595C205.964 129.464 186.208 151.886 176.095 160.334C175.072 161.191 176.055 162.805 177.282 162.294C183.333 159.788 193.157 154.226 202.839 142.345C208.356 135.572 228.123 111.851 216.163 112.129Z" fill="#FDFFFF"/>
<path fill-rule="evenodd" clip-rule="evenodd" d="M202.838 142.345C193.156 154.225 183.332 159.788 177.281 162.294C176.054 162.805 175.071 161.191 176.094 160.333C186.207 151.885 205.963 129.464 202.838 123.595C200.423 119.049 174.145 120.941 155.963 136.095C149.696 141.316 131.247 157.402 131.247 157.402C131.247 157.402 143.747 156.737 159.94 164.22C175.366 171.345 183.52 188.652 183.52 188.652C181.912 190.555 165.582 191.822 159.656 190.924C156.406 190.43 149.554 187.327 145.025 185.152C144.804 185.049 144.696 184.868 144.673 184.68C144.628 184.305 144.935 183.89 145.412 183.987C150.486 185.01 158.236 186.39 161.645 186.095C163.883 185.902 169.713 185.453 170.168 183.254C171.247 178.032 158.9 171.669 154.258 169.049C149.02 166.09 131.247 161.947 131.247 161.947C131.247 161.947 136.508 170.646 138.15 182.583C138.27 183.464 138.372 184.362 138.452 185.277C138.571 186.657 138.633 188.066 138.633 189.504C138.633 209.202 126.133 221.89 126.133 221.89H123.861C123.861 221.89 111.361 209.202 111.361 189.504C111.361 188.049 111.429 186.617 111.548 185.225C111.668 183.868 111.832 182.549 112.043 181.265C113.872 170.01 118.747 161.947 118.747 161.947C118.747 161.947 118.639 161.97 118.435 162.021C116.048 162.589 100.571 166.322 95.7357 169.049C91.0937 171.669 78.7471 178.032 79.8266 183.254C80.2812 185.453 86.1107 185.902 88.3493 186.095C91.7584 186.39 99.5084 185.01 104.582 183.987C105.031 183.896 105.327 184.248 105.327 184.606C105.327 184.816 105.219 185.032 104.974 185.152C100.44 187.327 93.588 190.43 90.338 190.924C84.4118 191.822 68.0823 190.555 66.4743 188.652C66.4743 188.652 74.6278 171.345 90.0539 164.22C104.866 157.373 116.588 157.345 118.48 157.39C118.656 157.396 118.747 157.402 118.747 157.402C118.747 157.402 100.298 141.316 94.0312 136.095C75.8493 120.941 49.5766 119.049 47.1562 123.595C44.0312 129.464 63.7868 151.885 73.9005 160.333C74.9232 161.191 73.9402 162.805 72.713 162.294C66.6618 159.788 56.838 154.225 47.1562 142.345C41.6391 135.572 21.8721 111.85 33.838 112.129C41.7414 112.311 62.4857 111.885 72.4402 113.936C90.8096 117.725 107.668 136.379 107.668 136.379C107.668 136.379 93.6448 113.373 99.4289 77.0039C102.741 56.1687 124.997 28.1403 124.997 28.1403C124.997 28.1403 147.253 56.1687 150.565 77.0039C156.355 113.373 142.327 136.379 142.327 136.379C142.327 136.379 159.185 117.725 177.554 113.936C187.508 111.885 208.258 112.311 216.162 112.129C228.122 111.85 208.355 135.572 202.838 142.345ZM124.997 0.00390625C55.963 0.00390625 -0.00292969 55.9698 -0.00292969 125.004C-0.00292969 194.038 55.963 250.004 124.997 250.004C194.031 250.004 249.997 194.038 249.997 125.004C249.997 55.9698 194.031 0.00390625 124.997 0.00390625Z" fill="#2182A5"/>
<path fill-rule="evenodd" clip-rule="evenodd" d="M124.999 48.8789C124.999 48.8789 106.249 67.3448 106.249 92.6289C106.249 120.566 124.999 143.765 124.999 143.765C124.999 143.765 143.749 120.566 143.749 92.6289C143.749 67.3448 124.999 48.8789 124.999 48.8789Z" fill="#2182A5"/>
<path fill-rule="evenodd" clip-rule="evenodd" d="M124.998 166.492C124.998 166.492 119.736 170.975 117.929 182.032C117.554 184.327 117.327 186.907 117.327 189.788C117.327 195.839 120.952 202.969 123.219 206.833C124.015 208.197 125.981 208.197 126.776 206.833C129.043 202.969 132.668 195.839 132.668 189.788C132.668 187.43 132.515 185.276 132.253 183.31C130.662 171.316 124.998 166.492 124.998 166.492Z" fill="#2182A5"/>
</g>
<defs>
<clipPath id="clip0_242_94120">
<rect width="250" height="250" rx="125" fill="white"/>
</clipPath>
</defs>
</svg>
