<svg width="250" height="250" viewBox="0 0 250 250" fill="none" xmlns="http://www.w3.org/2000/svg">
<path d="M205.915 185.969C203.671 212.783 171.951 235.531 124.519 234.303C79.7979 233.074 48.5015 214.478 46.2569 187.579C46.0028 184.105 46.1299 180.631 46.6381 177.2C48.1627 166.864 51.72 156.909 57.0561 147.886L60.4017 149.411C69.1681 146.022 78.2309 143.438 87.5055 141.786C99.7022 140.049 112.026 139.668 124.307 140.642C136.589 139.668 148.913 140.092 161.109 141.786C170.426 143.481 179.531 146.022 188.382 149.411L191.728 147.886L194.057 146.827C199.436 155.935 203.205 165.932 205.111 176.31C205.661 179.488 205.83 182.707 205.576 185.926" fill="#F4A427"/>
<path d="M205.673 186.226C203.432 212.926 172.225 234.396 124.4 234.354C79.7468 233.131 48.4979 214.614 46.2567 187.829C46.003 184.37 46.1299 180.911 46.6373 177.494C51.3733 176.482 56.2784 176.355 61.0989 177.115C70.1903 178.591 75.2223 184.117 81.6074 187.027C85.3285 188.757 89.0073 185.93 92.3902 182.893C101.397 174.078 113.448 169.016 126.092 168.805C138.904 168.636 149.137 173.656 160.385 183.864C162.626 186.141 165.671 187.407 168.885 187.407C171.845 186.605 174.593 185.129 176.834 183.02C185.207 177.41 195.355 175.132 205.335 176.608C205.884 179.772 206.054 182.978 205.8 186.183" fill="white"/>
<path d="M74.5929 119.49C71.4755 122.56 67.5042 124.704 63.1912 125.629L61.5258 125.924C59.775 126.386 57.9814 126.681 56.1879 126.807C55.8036 126.807 55.4193 126.723 55.0349 126.681C54.0528 126.428 53.1133 126.092 52.1738 125.714C49.0992 124.326 46.2381 122.518 43.5906 120.416C38.2954 116.211 33.6408 111.291 29.7548 105.825C14.0829 83.4974 18.8229 53.0126 40.5159 36.3195C41.797 35.2683 43.7187 35.4786 44.7862 36.74C45.3841 37.4548 45.5976 38.4219 45.3841 39.305C43.2916 48.2612 41.6262 62.3052 50.1668 74.415C57.4263 84.6747 73.0129 94.514 82.3648 94.3037C84.4572 105.531 81.2972 113.099 74.6356 119.617" fill="#F79422"/>
<path d="M56.0814 128.855C56.0393 128.855 56.0393 128.855 55.9971 128.855C55.5756 128.813 55.1119 128.77 54.6904 128.685C54.6482 128.685 54.6482 128.685 54.6061 128.685C53.5522 128.429 52.5406 128.046 51.571 127.62C48.4096 126.129 45.4588 124.255 42.8032 122.041C37.4919 117.697 32.8129 112.628 28.8927 107.006C12.9588 83.7524 17.7643 51.9377 39.7682 34.561C40.6534 33.837 41.7915 33.4962 42.9718 33.624C44.1521 33.7518 45.2059 34.3054 45.9225 35.2424C46.7656 36.3072 47.1028 37.7552 46.8077 39.0755C43.6463 52.9173 45.1216 64.5017 51.3181 73.4882C58.3998 83.7098 73.2799 93.2073 81.9212 93.037C82.5957 93.037 83.228 93.5055 83.3544 94.1869C85.3778 105.26 82.8907 113.523 75.3032 120.976C72.0153 124.298 67.8843 126.555 63.3317 127.577H63.2896L61.6456 127.918C59.8752 128.387 58.0205 128.727 56.1657 128.855C56.1236 128.855 56.0814 128.855 56.0814 128.855ZM55.2384 125.874C55.4913 125.916 55.7863 125.959 56.0393 125.959C57.6832 125.831 59.3693 125.533 60.9712 125.107C61.0133 125.107 61.0555 125.107 61.0555 125.065L62.6994 124.766C66.704 123.872 70.3713 121.828 73.2799 118.932C79.94 112.373 82.2163 105.431 80.6988 95.8479C71.0457 95.2516 56.2922 85.7115 48.9575 75.1066C42.3395 65.4387 40.6534 53.0876 44.0256 38.4367C44.1521 37.9256 44.0256 37.4145 43.7306 37.0312C43.4777 36.6905 43.0983 36.4775 42.6767 36.4349C42.2552 36.3924 41.8337 36.5201 41.5386 36.7757C20.6729 53.258 16.1203 83.3691 31.169 105.303C34.9627 110.712 39.431 115.61 44.5736 119.783C47.0607 121.87 49.8006 123.617 52.7513 124.979C53.5101 125.363 54.3531 125.661 55.2384 125.874Z" fill="#221F1F"/>
<path d="M114.757 80.7109L111.153 116.885H110.943C105.327 117.602 97.8248 118.783 87.4726 120.427C77.8748 121.945 65.0498 128.522 57.5056 132.949L56.374 127.257C58.1343 127.131 59.8946 126.793 61.613 126.372L63.2476 126.077C67.4806 125.149 71.3784 122.999 74.438 119.921C80.9762 113.513 84.1196 106.008 82.024 94.5399L83.0718 94.8772C86.4667 91.2513 90.4483 88.2578 94.849 86.0233C101.052 82.7768 107.8 80.9639 114.757 80.7109Z" fill="#5A595C"/>
<path d="M56.9269 135.002C56.7127 135.002 56.5414 134.96 56.3273 134.875C55.899 134.706 55.5993 134.325 55.5136 133.859L54.3573 128.141C54.2717 127.76 54.3573 127.337 54.6143 126.998C54.8712 126.659 55.2138 126.49 55.6421 126.447C57.3551 126.32 59.0682 126.024 60.7384 125.6C60.7812 125.6 60.824 125.6 60.824 125.558L62.4942 125.261C66.5627 124.372 70.2885 122.339 73.2007 119.459C80.2241 112.683 82.451 105.441 80.5667 95.2343C80.481 94.7261 80.6523 94.2602 81.0378 93.9214C81.4232 93.5826 81.9371 93.4979 82.4082 93.625L82.6223 93.7097C86.0484 90.2369 90.0312 87.357 94.4422 85.1971C100.823 81.8513 108.061 79.9455 115.298 79.6914C115.727 79.6914 116.112 79.8608 116.412 80.1573C116.712 80.4537 116.84 80.8772 116.797 81.2584L113.114 117.596C113.029 118.316 112.429 118.866 111.701 118.866H111.573C106.348 119.544 99.41 120.56 87.7186 122.424C76.6695 124.16 61.8947 132.376 57.6121 134.833C57.3979 134.917 57.141 135.002 56.9269 135.002ZM57.4836 129.115L57.9547 131.36C59.839 130.301 62.4514 128.861 65.5348 127.379C64.764 127.633 63.9503 127.845 63.1366 128.014H63.0938L61.4664 128.311C60.1388 128.649 58.8112 128.904 57.4836 129.115ZM83.7358 96.5472C85.1919 106.712 82.5367 114.462 75.2563 121.45C73.9715 122.72 72.5154 123.864 70.9737 124.796C76.2841 122.466 82.1512 120.349 87.2903 119.544C98.425 117.808 105.234 116.749 110.416 116.071L113.8 82.5289C107.547 82.9525 101.337 84.7312 95.8127 87.6111C91.4016 89.8134 87.5045 92.6932 84.1212 96.2084C83.9928 96.3778 83.8643 96.4625 83.7358 96.5472Z" fill="#221F1F"/>
<path d="M197.722 145.7L195.349 146.757L193.018 147.815L189.628 149.337C180.814 145.954 171.66 143.374 162.337 141.725C150.217 139.399 137.886 138.299 125.511 138.426C113.137 138.299 100.806 139.399 88.6857 141.725C79.3627 143.416 70.2516 145.954 61.3948 149.337C60.2506 148.83 59.1488 148.28 58.0046 147.815L53.3008 145.658C53.4279 141.682 53.3008 139.525 53.3008 135.55C54.2755 134.916 55.462 134.154 56.9452 133.308C57.0723 133.224 57.1995 133.139 57.3266 133.097C64.5307 128.614 77.5829 122.059 87.2025 120.536C97.6696 118.887 105.17 117.702 110.934 116.983C114.621 116.772 118.477 116.603 122.503 116.561C128.393 116.561 133.817 116.561 139.199 116.941C145.005 117.66 152.548 118.844 163.142 120.536C172.974 122.059 186.111 128.783 193.654 133.266L193.951 133.393C195.349 134.197 196.493 134.958 197.425 135.55C197.425 139.525 197.298 141.682 197.425 145.658" fill="#929497"/>
<path d="M61.7897 150.366C61.5775 150.366 61.4077 150.325 61.1954 150.242C60.7708 150.035 60.3463 149.87 59.9218 149.663C59.2 149.332 58.5208 149.043 57.8415 148.753L53.0866 146.644C52.5771 146.396 52.2375 145.899 52.2799 145.32C52.3649 142.839 52.3649 141.102 52.3224 139.116C52.3224 138.041 52.2799 136.883 52.2799 135.518C52.2799 135.063 52.5347 134.608 52.9168 134.36L53.0441 134.277C53.9781 133.698 55.1668 132.954 56.5254 132.168C56.6952 132.044 56.8226 131.961 56.9924 131.878C63.4455 127.99 77.0734 121.042 87.3898 119.429C98.1733 117.733 105.56 116.658 111.207 115.955C111.249 115.955 111.249 115.955 111.292 115.955C115.58 115.706 119.401 115.582 122.967 115.541C128.868 115.541 134.387 115.541 139.821 115.913C139.864 115.913 139.864 115.913 139.906 115.913C145.892 116.658 153.534 117.816 163.978 119.429C175.568 121.207 190.597 129.479 195.012 132.002L195.267 132.126C195.309 132.126 195.309 132.168 195.352 132.168C196.625 132.912 197.814 133.615 198.918 134.319C199.3 134.567 199.512 134.98 199.555 135.394C199.64 137.255 199.64 138.744 199.64 140.15C199.64 141.763 199.64 143.252 199.767 145.238C199.809 145.817 199.47 146.354 198.918 146.603L196.54 147.637L194.205 148.671L190.809 150.16C190.469 150.325 190.087 150.325 189.705 150.201C180.96 146.933 171.874 144.41 162.619 142.797C150.732 140.853 138.548 139.902 126.448 139.902C126.151 139.902 125.896 139.902 125.599 139.902C113.457 139.902 101.272 140.895 89.3003 142.797C80.0876 144.41 71.0024 146.892 62.2568 150.201C62.1294 150.325 61.9596 150.366 61.7897 150.366ZM126.49 137.214C138.717 137.214 151.029 138.206 163.129 140.15C172.341 141.763 181.427 144.245 190.172 147.471L196.838 144.493C196.753 142.839 196.753 141.474 196.753 140.15C196.753 138.951 196.753 137.71 196.71 136.262C195.861 135.725 194.927 135.146 193.908 134.567L193.653 134.443C193.611 134.443 193.611 134.401 193.569 134.401C184.865 129.355 172.384 123.482 163.511 122.117C153.152 120.504 145.51 119.346 139.566 118.602C134.26 118.229 128.783 118.229 122.967 118.229C119.443 118.271 115.707 118.395 111.504 118.643C105.858 119.346 98.5554 120.463 87.8144 122.117C77.88 123.648 64.6767 130.472 58.3934 134.236C58.3509 134.277 58.266 134.319 58.2236 134.319C58.2236 134.319 58.1811 134.319 58.1811 134.36C58.1387 134.401 58.0538 134.443 57.9688 134.484C56.865 135.104 55.8886 135.683 55.0395 136.221C55.0395 137.255 55.0395 138.165 55.0819 139.034C55.1244 140.812 55.1244 142.384 55.0819 144.452L58.9453 146.189C59.6246 146.478 60.3463 146.809 61.068 147.099C61.3228 147.223 61.535 147.306 61.7897 147.43C70.5354 144.162 79.6206 141.722 88.8333 140.109C100.975 138.165 113.33 137.172 125.599 137.172C125.939 137.214 126.236 137.214 126.49 137.214Z" fill="#221F1F"/>
<path d="M139.338 116.517C134.196 116.221 128.765 116.052 123.002 116.137C119.063 116.137 115.29 116.348 111.683 116.559H111.89L115.456 80.3105L116.202 72.9594C119.021 71.354 122.172 70.509 125.407 70.4668H125.863C129.097 70.509 132.289 71.354 135.109 72.9594L135.813 80.1838V80.395L139.338 116.517Z" fill="#929497"/>
<path d="M111.277 118.612H111.061C110.283 118.612 109.634 118.018 109.634 117.254C109.634 116.914 109.72 116.574 109.937 116.32L113.569 80.6134L114.348 73.2259C114.391 72.7589 114.651 72.3768 115.083 72.1221C118.24 70.3813 121.786 69.4897 125.376 69.4473H125.852C129.485 69.4897 133.031 70.3813 136.188 72.1221C136.621 72.3343 136.88 72.7589 136.923 73.2259L137.659 80.4861C137.659 80.5285 137.659 80.571 137.659 80.6134V80.7408L141.378 116.999C141.421 117.424 141.291 117.806 140.989 118.103C140.686 118.4 140.297 118.57 139.864 118.527C133.982 118.188 128.447 118.06 122.911 118.145C118.889 118.145 115.126 118.315 111.58 118.527C111.45 118.57 111.364 118.612 111.277 118.612ZM117.116 74.2449L116.424 80.8682L112.877 115.64C116.035 115.471 119.365 115.343 122.868 115.343C127.884 115.258 132.988 115.386 138.307 115.64L134.761 80.9531C134.761 80.9106 134.761 80.8682 134.761 80.8257V80.6984L134.112 74.2449C131.561 72.9712 128.706 72.2919 125.852 72.2494H125.419C122.478 72.2919 119.667 72.9712 117.116 74.2449Z" fill="#221F1F"/>
<path d="M195.185 148.317C194.773 148.317 194.406 148.135 194.085 147.862C194.039 147.771 193.947 147.726 193.901 147.635C193.855 147.544 193.809 147.453 193.764 147.362C193.718 147.271 193.718 147.181 193.672 147.09C193.672 146.999 193.626 146.908 193.626 146.771C193.626 146.362 193.809 145.999 194.085 145.681C194.176 145.59 194.222 145.544 194.314 145.499C194.406 145.453 194.497 145.408 194.589 145.362C194.681 145.317 194.773 145.317 194.864 145.271C195.369 145.181 195.873 145.317 196.24 145.681C196.515 145.953 196.699 146.362 196.699 146.771C196.699 146.862 196.699 146.953 196.653 147.09C196.653 147.181 196.607 147.271 196.561 147.362C196.515 147.453 196.469 147.544 196.424 147.635C196.378 147.726 196.286 147.817 196.24 147.862C196.011 148.181 195.598 148.317 195.185 148.317Z" fill="#221F1F"/>
<path d="M124.931 236.403C102.687 235.763 83.4089 230.941 69.1302 222.363C54.6397 213.657 46.3775 201.793 45.2336 188.051C44.9793 184.467 45.1064 180.839 45.6149 177.297C47.1826 166.628 50.7416 156.514 56.2074 147.253C56.5887 146.613 57.3514 146.399 58.0293 146.698L60.8681 147.978C69.5963 144.65 78.6634 142.089 87.8577 140.425C100.06 138.248 112.517 137.139 124.931 137.053C137.346 136.968 149.803 138.078 162.005 140.425C171.199 142.089 180.267 144.65 188.995 147.978L192.088 146.656L194.376 145.589C195.054 145.29 195.816 145.546 196.198 146.143C201.706 155.489 205.477 165.646 207.468 176.315V176.358C207.976 179.687 208.104 183.058 207.807 186.387C206.663 200.086 197.681 212.718 182.47 221.979C167.174 231.282 146.752 236.403 124.931 236.403ZM58.0293 149.771C53.1144 158.434 49.8942 167.823 48.4537 177.681C47.9876 181.01 47.8605 184.424 48.1147 187.795C49.174 200.598 56.97 211.694 70.6131 219.888C84.4681 228.21 103.28 232.904 125.016 233.544C146.243 233.544 166.157 228.551 180.987 219.546C195.393 210.755 203.909 198.934 204.968 186.174C205.222 183.058 205.138 179.943 204.629 176.828C202.765 166.927 199.333 157.453 194.333 148.704L193.189 149.259H193.147L189.503 150.795C189.164 150.923 188.783 150.966 188.444 150.795C179.716 147.424 170.649 144.82 161.412 143.156C149.379 140.852 137.092 139.742 124.847 139.827C112.602 139.913 100.314 141.022 88.2814 143.156C79.0871 144.82 69.9776 147.381 61.2918 150.795C60.9528 150.923 60.5291 150.923 60.1901 150.752L58.0293 149.771Z" fill="#221F1F"/>
<path d="M220.198 105.817C216.264 111.282 211.601 116.2 206.298 120.403C203.689 122.505 200.78 124.313 197.701 125.7L196.246 126.288L195.348 126.583C193.338 127.129 192.269 126.583 188.462 125.952L186.794 125.658C182.474 124.691 178.496 122.589 175.374 119.521C168.702 113.131 165.494 105.649 167.675 94.2152C176.957 94.4254 192.611 84.5891 199.882 74.3324C208.479 62.3523 206.725 48.3125 204.672 39.3589C204.245 37.7616 205.228 36.1642 206.854 35.7439C207.795 35.4917 208.779 35.7439 209.548 36.3324C231.234 53.0625 235.896 83.5382 220.198 105.817Z" fill="#F79422"/>
<path d="M193.845 128.855C192.916 128.855 192.03 128.685 190.847 128.429C190.172 128.301 189.37 128.131 188.398 127.96L186.709 127.662H186.667C182.149 126.639 178.011 124.337 174.675 121.056C167.075 113.597 164.626 105.286 166.652 94.1625C166.779 93.4806 167.37 93.0118 168.046 93.0118C168.046 93.0118 168.046 93.0118 168.088 93.0118C176.575 93.2249 191.734 83.5076 198.701 73.4493C204.866 64.5844 206.344 53.3327 203.219 39.0977C202.924 37.9896 203.135 36.7962 203.726 35.7733C204.317 34.7505 205.288 34.0259 206.428 33.7276C207.78 33.3866 209.258 33.7276 210.313 34.6226C232.27 52.0541 236.999 83.8485 221.123 107.034C217.154 112.702 212.467 117.731 207.146 122.121C204.486 124.337 201.53 126.213 198.406 127.704C198.406 127.704 198.363 127.704 198.363 127.747L196.928 128.344C196.886 128.344 196.843 128.386 196.801 128.386L195.914 128.685C195.112 128.77 194.479 128.855 193.845 128.855ZM187.258 124.849L188.905 125.147C189.918 125.318 190.763 125.488 191.439 125.659C193.254 126.042 193.93 126.17 195.07 125.872L195.872 125.616L197.223 125.062C200.137 123.698 202.882 121.951 205.373 119.862C210.482 115.686 215.042 110.784 218.843 105.372C233.875 83.4223 229.399 53.3327 208.582 36.8388C208.582 36.8388 208.54 36.8388 208.54 36.7962C208.16 36.4553 207.611 36.3274 207.146 36.4553C206.724 36.5405 206.386 36.8388 206.175 37.1798C205.964 37.5634 205.88 37.9896 206.006 38.3732C209.342 53.5032 207.695 65.4368 201.066 75.0262C193.845 85.4681 178.813 95.1428 169.313 95.7821C167.792 105.457 170.03 112.446 176.744 119.01C179.615 121.908 183.247 123.954 187.258 124.849Z" fill="#221F1F"/>
<path d="M195.676 126.724L194.445 132.949C186.892 128.491 173.738 121.719 163.893 120.289C153.242 118.607 145.731 117.471 139.918 116.714L136.269 80.7109C142.888 81.0474 149.296 82.856 155.152 85.9263C159.65 88.1555 163.723 91.1417 167.16 94.7588L168.221 94.4223C166.1 105.652 169.24 113.223 175.859 119.742C178.999 122.813 182.903 124.958 187.189 125.883C187.444 125.883 188.589 126.43 188.844 126.514C191.051 127.271 193.427 127.355 195.676 126.85" fill="#5A595C"/>
<path d="M194.035 135.002C193.78 135.002 193.525 134.918 193.312 134.791C189.012 132.254 174.071 123.798 163.174 122.275C152.319 120.542 144.912 119.443 139.123 118.681C138.484 118.597 137.974 118.09 137.889 117.413L134.228 81.22C134.185 80.7972 134.313 80.4166 134.611 80.1207C134.909 79.8247 135.292 79.6556 135.718 79.6978C142.486 80.0361 149.254 81.9388 155.214 85.1099C159.641 87.2662 163.599 90.1414 167.047 93.6085L167.303 93.5239C167.771 93.3548 168.282 93.4816 168.665 93.8199C169.048 94.1581 169.218 94.6655 169.133 95.1306C167.26 105.025 169.516 112.508 176.412 119.316C179.35 122.233 183.053 124.22 187.097 125.108L188.757 125.404C189.651 125.531 190.375 125.7 191.013 125.827C193.014 126.208 193.695 126.334 194.887 125.996C195.355 125.869 195.866 125.996 196.249 126.334C196.632 126.673 196.76 127.18 196.675 127.645L195.44 133.903C195.355 134.368 195.057 134.748 194.631 134.918C194.461 134.96 194.248 135.002 194.035 135.002ZM186.671 127.899C189.14 129.167 191.311 130.351 193.056 131.366L193.525 128.998C192.631 128.998 191.737 128.829 190.502 128.575C189.864 128.449 189.14 128.322 188.246 128.195L186.671 127.899ZM140.655 116.018C146.317 116.779 153.468 117.836 163.642 119.485C167.729 120.077 172.326 121.557 176.71 123.332C175.902 122.698 175.135 122.064 174.412 121.345C167.218 114.242 164.579 106.547 166.026 96.5259C165.856 96.4414 165.728 96.3568 165.6 96.2299C162.237 92.6783 158.321 89.8031 153.937 87.6468H153.894C148.743 84.8985 143.039 83.2072 137.25 82.6575L140.655 116.018Z" fill="#221F1F"/>
<path d="M136.268 79.6914H135.244V81.74H136.268V79.6914Z" fill="#221F1F"/>
<path d="M195.359 125.785C197.477 128.2 197.043 131.65 194.348 133.548C194.107 133.721 193.867 133.85 193.626 133.979" fill="#F79422"/>
<path d="M194.853 134.999L193.626 132.523C193.77 132.438 193.915 132.31 194.023 132.182C195.503 130.816 195.756 128.255 194.601 126.506L196.477 124.756C198.463 127.743 198.029 132.096 195.503 134.444C195.322 134.657 195.106 134.828 194.853 134.999Z" fill="#221F1F"/>
<path d="M55.6341 125.785C53.5365 128.2 54.0132 131.65 56.6829 133.548C56.9213 133.721 57.1596 133.85 57.398 133.979" fill="#F79422"/>
<path d="M56.9015 134.999C56.5885 134.828 56.3201 134.657 56.0518 134.444C52.9211 132.096 52.3845 127.743 54.8442 124.756L57.2146 126.506C56.499 127.359 56.1859 128.426 56.3201 129.493C56.4543 130.56 57.0357 131.542 57.9301 132.182C58.109 132.31 58.2432 132.395 58.4221 132.523L56.9015 134.999Z" fill="#221F1F"/>
<path d="M117.101 198.435C116.347 198.435 115.594 198.352 114.84 198.186C114.087 198.02 113.626 197.274 113.752 196.528C113.919 195.781 114.673 195.325 115.426 195.45C117.143 195.823 118.943 195.615 120.533 194.828C120.575 194.828 120.617 194.786 120.659 194.786C122.877 193.957 124.384 191.967 124.594 189.686C124.594 189.272 124.594 188.857 124.635 188.484C124.719 187.779 125.347 187.24 126.059 187.24C126.77 187.24 127.398 187.821 127.44 188.567C127.482 188.982 127.44 189.396 127.44 189.769C127.607 192.05 129.156 194.04 131.375 194.828C131.417 194.828 131.5 194.869 131.542 194.911C133.091 195.657 134.933 195.906 136.607 195.532C137.361 195.367 138.114 195.864 138.282 196.61C138.449 197.357 137.947 198.103 137.193 198.269C134.891 198.766 132.463 198.476 130.37 197.481C128.528 196.818 126.98 195.615 125.975 194.04C124.97 195.574 123.505 196.776 121.705 197.481C120.282 198.062 118.733 198.435 117.101 198.435Z" fill="#171717"/>
<path d="M137.29 179.243C137.29 182.56 132.184 187.239 126.023 187.239C119.862 187.239 114.756 182.73 114.756 179.413C114.756 176.096 119.862 174.947 126.023 174.947C132.184 174.947 137.29 175.925 137.29 179.243Z" fill="#171717"/>
<path d="M130.121 177.798C130.121 178.749 128.059 180.069 125.512 180.069C122.964 180.069 120.902 178.749 120.902 177.798C120.902 176.848 122.964 177.006 125.512 177.006C128.059 177.059 130.121 176.848 130.121 177.798Z" fill="white"/>
<path d="M115.356 198.507H114.564C114.476 198.507 114.387 198.507 114.299 198.464C109.502 197.601 106.202 193.371 106.598 188.58C106.686 187.803 107.39 187.199 108.182 187.242C108.974 187.329 109.59 188.019 109.546 188.796C109.282 192.033 111.483 194.925 114.74 195.572H115.356C116.148 195.572 116.808 196.22 116.808 196.997C116.808 197.86 116.148 198.507 115.356 198.507Z" fill="#171717"/>
<path d="M126.024 190.312C125.465 190.312 125 189.632 125 188.815V184.64C125 183.823 125.465 183.143 126.024 183.143C126.582 183.143 127.047 183.823 127.047 184.64V188.815C127.078 189.632 126.613 190.312 126.024 190.312Z" fill="#171717"/>
<path d="M138.277 198.507H137.568C136.859 198.507 136.269 197.865 136.269 197.095C136.269 196.324 136.859 195.682 137.568 195.682H138.159C141.074 195.04 143.083 192.043 142.807 188.832C142.728 188.062 143.279 187.334 143.988 187.248C144.737 187.163 145.367 187.762 145.446 188.533C145.879 193.285 142.846 197.651 138.553 198.507C138.435 198.507 138.356 198.507 138.277 198.507Z" fill="#171717"/>
<path d="M220.88 107.341L218.497 105.714C233.923 83.6702 229.33 53.408 207.967 36.8858L209.743 34.6172C232.32 52.0811 237.173 84.0126 220.88 107.341Z" fill="#221F1F"/>
<path d="M56.0814 128.855C56.0393 128.855 56.0393 128.855 55.9971 128.855C55.5756 128.813 55.1119 128.77 54.6904 128.685C54.6482 128.685 54.6482 128.685 54.6061 128.685C53.5522 128.429 52.5406 128.046 51.571 127.62C48.4096 126.129 45.4588 124.255 42.8032 122.041C37.4919 117.697 32.8129 112.628 28.8927 107.006C12.9588 83.7524 17.7643 51.9377 39.7682 34.561C40.6534 33.837 41.7915 33.4962 42.9718 33.624C44.1521 33.7518 45.2059 34.3054 45.9225 35.2424C46.7656 36.3072 47.1028 37.7552 46.8077 39.0755C43.6463 52.9173 45.1216 64.5017 51.3181 73.4882C58.3998 83.7098 73.2799 93.2073 81.9212 93.037C82.5957 93.037 83.228 93.5055 83.3544 94.1869C85.3778 105.26 82.8907 113.523 75.3032 120.976C72.0153 124.298 67.8843 126.555 63.3317 127.577H63.2896L61.6456 127.918C59.8752 128.387 58.0205 128.727 56.1657 128.855C56.1236 128.855 56.0814 128.855 56.0814 128.855ZM55.2384 125.874C55.4913 125.916 55.7863 125.959 56.0393 125.959C57.6832 125.831 59.3693 125.533 60.9712 125.107C61.0133 125.107 61.0555 125.107 61.0555 125.065L62.6994 124.766C66.704 123.872 70.3713 121.828 73.2799 118.932C79.94 112.373 82.2163 105.431 80.6988 95.8479C71.0457 95.2516 56.2922 85.7115 48.9575 75.1066C42.3395 65.4387 40.6534 53.0876 44.0256 38.4367C44.1521 37.9256 44.0256 37.4145 43.7306 37.0312C43.4777 36.6905 43.0983 36.4775 42.6767 36.4349C42.2552 36.3924 41.8337 36.5201 41.5386 36.7757C20.6729 53.258 16.1203 83.3691 31.169 105.303C34.9627 110.712 39.431 115.61 44.5736 119.783C47.0607 121.87 49.8006 123.617 52.7513 124.979C53.5101 125.363 54.3531 125.661 55.2384 125.874Z" fill="#221F1F"/>
<path d="M105.539 160.522C105.539 166.825 101.849 171.876 97.3445 171.876C92.797 171.876 89.1504 166.782 89.1504 160.522C89.1504 154.997 92.0248 150.378 95.7143 149.342L104.852 156.335C105.281 157.673 105.496 159.098 105.539 160.522Z" fill="#221F1F"/>
<path d="M102.467 159.092C102.467 161.027 101.091 162.658 99.3941 162.658C97.6972 162.658 96.3213 161.027 96.3213 159.092C96.3213 157.157 97.743 155.488 99.3941 155.488C101.045 155.488 102.467 157.12 102.467 159.092Z" fill="white"/>
<path d="M95.3952 169.071C92.2442 171.578 89.3521 174.42 86.7191 177.47C85.4673 178.975 84.4313 180.605 83.5681 182.36C82.7048 184.115 82.1004 185.995 81.7983 187.959C81.6256 188.92 81.4961 189.923 81.3666 190.884L81.2372 192.389V193.893C81.1077 195.899 81.1077 197.946 81.2372 199.952C81.4098 202 81.712 204.005 82.1436 206.011C82.3594 207.014 82.5753 208.017 82.8774 209.02C83.1364 209.981 83.4817 210.9 83.9134 211.82C83.3522 210.942 82.9206 209.981 82.5321 209.02C82.1436 208.059 81.7983 207.098 81.453 206.22C80.8055 204.214 80.2444 202.209 79.8559 200.161C79.4674 198.113 79.1652 196.024 78.9926 193.935L78.9062 192.389V190.759C78.9062 189.714 78.9494 188.628 79.0357 187.583C79.2084 185.41 79.6832 183.237 80.4602 181.148C81.2372 179.1 82.2299 177.094 83.4817 175.298C85.9421 171.746 88.7478 168.444 91.8989 165.394C92.9348 164.433 94.6182 164.475 95.611 165.519C96.5175 166.48 96.5607 167.943 95.6974 168.904L95.3952 169.071Z" fill="#221F1F"/>
<path d="M93.617 167.702C93.4028 167.744 93.2315 167.744 93.0173 167.702H92.6747H92.0322L90.7044 167.408C89.8478 167.239 88.9484 167.113 88.0489 167.113C86.25 166.987 84.4511 167.155 82.695 167.576C81.7956 167.786 80.9389 168.08 80.1251 168.458C77.5124 169.635 75.3281 171.526 73.7861 173.921C74.5143 172.072 75.5422 170.391 76.87 168.92C77.5553 168.164 78.2834 167.45 79.0972 166.861C79.911 166.231 80.8104 165.685 81.7527 165.222C83.5945 164.172 85.6075 163.415 87.6634 162.995C88.7342 162.827 89.7622 162.701 90.8329 162.659C91.3897 162.659 91.9037 162.659 92.4177 162.659H93.5741C95.0304 162.575 96.2297 163.667 96.3153 165.096C96.401 166.525 95.2874 167.702 93.8311 167.786C93.6598 167.786 93.4885 167.786 93.3171 167.744" fill="#221F1F"/>
<path d="M162.896 160.501C162.896 166.815 159.437 171.876 155.214 171.876C150.991 171.876 147.532 166.772 147.532 160.501C147.532 159.073 147.693 157.646 148.055 156.262L156.662 149.342C160.242 150.337 162.896 154.964 162.896 160.501Z" fill="#221F1F"/>
<path d="M150.605 159.092C150.605 161.027 151.79 162.658 153.166 162.658C154.542 162.658 155.727 161.027 155.727 159.092C155.727 157.157 154.542 155.488 153.166 155.488C151.79 155.488 150.605 157.12 150.605 159.092Z" fill="white"/>
<path d="M160.101 165.475C163.069 168.536 165.783 171.81 168.2 175.382C169.43 177.167 170.447 179.081 171.295 181.079C172.101 183.12 172.695 185.246 172.949 187.414C173.204 189.54 173.204 191.709 172.949 193.877C172.737 195.96 172.398 198.044 171.974 200.085C171.55 202.126 171.041 204.124 170.405 206.122C170.066 207.1 169.769 208.078 169.345 208.971C168.963 209.949 168.539 210.927 167.988 211.82C168.412 210.884 168.751 209.949 169.048 208.971C169.345 207.993 169.557 207.015 169.769 205.995C170.193 203.996 170.49 201.955 170.702 199.957C170.914 197.916 170.999 195.875 170.999 193.835C170.999 191.836 170.787 189.88 170.363 187.967C169.896 186.096 169.218 184.268 168.285 182.525C167.352 180.824 166.249 179.208 165.02 177.678C162.433 174.574 159.592 171.725 156.496 169.131C155.478 168.111 155.478 166.495 156.454 165.475C157.344 164.539 158.786 164.454 159.846 165.22L160.058 165.39" fill="#221F1F"/>
<path d="M158.393 162.989H159.82C160.382 162.947 160.944 162.947 161.505 162.989C162.629 163.031 163.753 163.115 164.877 163.283C167.125 163.576 169.287 164.204 171.362 165.084C173.393 165.963 175.252 167.178 176.808 168.728C178.321 170.235 179.489 171.995 180.31 173.921C179.143 172.246 177.673 170.822 175.987 169.733C174.344 168.644 172.486 167.89 170.54 167.513C168.638 167.136 166.693 167.01 164.748 167.136C163.797 167.178 162.802 167.304 161.851 167.471L160.425 167.764H159.733H159.344H159.128H158.739C157.312 167.974 155.972 166.968 155.756 165.586C155.54 164.204 156.577 162.906 158.004 162.696C158.177 162.654 158.35 162.654 158.523 162.654" fill="#221F1F"/>
</svg>
