<svg width="250" height="250" viewBox="0 0 250 250" fill="none" xmlns="http://www.w3.org/2000/svg">
<path d="M125.249 249.5C193.87 249.5 249.499 193.871 249.499 125.25C249.499 56.6286 193.87 1 125.249 1C56.6276 1 0.999023 56.6286 0.999023 125.25C0.999023 193.871 56.6276 249.5 125.249 249.5Z" fill="#00EF8B"/>
<path d="M179.799 105.801H144.699V140.901H179.799V105.801Z" fill="white"/>
<path d="M109.599 154.05C109.599 161.3 103.699 167.2 96.4492 167.2C89.1992 167.2 83.2992 161.3 83.2992 154.05C83.2992 146.8 89.1992 140.9 96.4492 140.9H109.599V105.85H96.4492C69.7992 105.85 48.1992 127.45 48.1992 154.1C48.1992 180.75 69.7992 202.35 96.4492 202.35C123.099 202.35 144.699 180.75 144.699 154.1V140.95H109.649V154.05H109.599Z" fill="white"/>
<path d="M157.849 88.2484H197.299V53.1484H157.849C131.199 53.1984 109.649 74.7484 109.599 101.398V105.798H144.649V101.398C144.699 94.1484 150.599 88.2484 157.849 88.2484Z" fill="white"/>
<path d="M109.599 140.901H144.699V105.801H109.599V140.901Z" fill="#16FF99"/>
</svg>
