<svg width="250" height="250" viewBox="0 0 250 250" fill="none" xmlns="http://www.w3.org/2000/svg">
<rect width="250" height="250" rx="125" fill="white"/>
<path d="M110.49 87.0327C91.1381 87.0327 71.795 87.0327 52.4431 87.0327C47.5125 87.0327 47.098 86.5476 47.7242 81.7934C50.335 62.1948 66.9438 47.1209 86.8161 47.0151C125.661 46.8122 164.506 46.9886 203.351 46.9004C207.002 46.9004 207.849 48.1705 207.382 51.6192C204.577 72.4086 188.321 86.9797 167.214 87.1385C148.303 87.2796 129.392 87.165 110.481 87.165V87.0239L110.49 87.0327Z" fill="#E51859"/>
<path d="M90.732 146.667C77.9778 146.667 65.2235 146.667 52.4693 146.667C47.5122 146.667 47.0977 146.199 47.7239 141.454C50.2995 121.864 66.8818 106.834 86.7805 106.658C112.289 106.429 137.797 106.675 163.297 106.526C167.116 106.508 167.593 108.051 167.355 111.271C165.996 130.076 148.964 146.111 128.977 146.702C116.241 147.081 103.477 146.772 90.7232 146.772V146.675L90.732 146.667Z" fill="#E51859"/>
<path d="M47.5763 185.936C47.6116 174.76 56.4672 166.046 67.7485 166.09C78.9503 166.125 87.7707 175.025 87.6913 186.209C87.6119 197.367 78.6769 206.134 67.4662 206.064C56.2026 205.993 47.5322 197.234 47.5675 185.936H47.5763Z" fill="#E5195A"/>
</svg>
