<svg width="250" height="250" viewBox="0 0 250 250" fill="none" xmlns="http://www.w3.org/2000/svg">
<rect width="250" height="250" rx="125" fill="white"/>
<g clip-path="url(#clip0_242_94609)">
<path d="M202.674 142.712C198.905 158.962 190.037 173.58 177.365 184.429C164.693 195.278 148.883 201.788 132.246 203.008C115.609 204.228 99.0186 200.094 84.8997 191.21C70.7808 182.325 59.8745 169.157 53.7753 153.631C47.6761 138.104 46.7041 121.034 51.0013 104.915C55.2985 88.7969 64.6396 74.4759 77.6587 64.0464C90.6779 53.6169 106.692 47.6259 123.36 46.9495C140.028 46.2731 156.475 50.9467 170.296 60.287C167.831 63.2378 166.57 67.01 166.765 70.8499C166.96 74.6899 168.597 78.3149 171.348 81.0008C174.099 83.6867 177.762 85.2358 181.606 85.3385C185.45 85.4412 189.19 84.09 192.081 81.5549C194.972 79.0197 196.8 75.4873 197.199 71.6632C197.599 67.8391 196.542 64.005 194.238 60.9268C191.934 57.8485 188.553 55.7528 184.772 55.0583C180.99 54.3638 177.086 55.1217 173.838 57.1805C159.987 47.5054 143.492 42.3293 126.596 42.3556C80.943 42.3556 43.9336 79.3647 43.9336 125.018C43.9336 170.672 80.943 207.681 126.596 207.681C165.777 207.681 198.591 180.421 207.107 143.832L202.674 142.712ZM192.687 70.0619C192.687 72.1743 192.06 74.2392 190.887 75.9956C189.713 77.752 188.045 79.121 186.094 79.9294C184.142 80.7378 181.995 80.9493 179.923 80.5372C177.851 80.1251 175.948 79.108 174.454 77.6143C172.961 76.1207 171.944 74.2176 171.531 72.1458C171.119 70.0741 171.331 67.9266 172.139 65.975C172.947 64.0235 174.316 62.3554 176.073 61.1818C177.829 60.0083 179.894 59.3819 182.006 59.3819C184.838 59.3851 187.553 60.5113 189.555 62.5135C191.557 64.5157 192.683 67.2304 192.687 70.0619Z" fill="url(#paint0_linear_242_94609)"/>
<path d="M37.801 122.729H11.3652V127.303H37.801V122.729Z" fill="url(#paint1_linear_242_94609)"/>
<path d="M56.8725 122.728L56.8594 127.303L238.657 127.823L238.67 123.248L56.8725 122.728Z" fill="url(#paint2_linear_242_94609)"/>
<path d="M99.7726 98.8293C104.006 94.6045 109.182 91.4445 114.874 89.6088C120.566 87.7731 126.613 87.3142 132.517 88.2697C138.421 89.2252 144.014 91.5678 148.837 95.1052C153.66 98.6425 157.574 103.274 160.259 108.618H160.255L160.27 108.638C160.724 109.546 161.142 110.471 161.523 111.413L161.553 111.395C161.874 112.978 161.34 114.7 157.692 114.965L169.275 115.409L165.041 108.035C161.679 100.628 156.253 94.3455 149.414 89.9401C142.575 85.5347 134.612 83.1924 126.477 83.1934C104.02 83.1934 85.651 100.677 84.2285 122.774L88.8091 122.796C89.442 113.744 93.3375 105.228 99.7726 98.8293Z" fill="url(#paint3_linear_242_94609)"/>
<path d="M164.24 125.273C164.24 125.36 164.243 125.446 164.243 125.533C164.234 134.164 161.271 142.532 155.845 149.245C150.419 155.957 142.859 160.609 134.422 162.428C125.985 164.247 117.179 163.122 109.47 159.24C101.761 155.359 95.6134 148.955 92.0498 141.094C91.7697 139.587 92.36 137.991 95.8209 137.606H84.2285L88.9298 145.114C92.5091 151.978 97.9021 157.729 104.522 161.742C111.142 165.755 118.736 167.876 126.477 167.874C149.861 167.874 168.818 148.917 168.818 125.533C168.818 125.446 168.815 125.36 168.815 125.273H164.24Z" fill="url(#paint4_linear_242_94609)"/>
<path d="M127.48 147.394C138.435 147.394 147.316 138.513 147.316 127.558C147.316 116.603 138.435 107.723 127.48 107.723C116.525 107.723 107.645 116.603 107.645 127.558C107.645 138.513 116.525 147.394 127.48 147.394Z" fill="url(#paint5_linear_242_94609)"/>
</g>
<defs>
<linearGradient id="paint0_linear_242_94609" x1="175.338" y1="50.1223" x2="69.7199" y2="212.413" gradientUnits="userSpaceOnUse">
<stop stop-color="#00ECF8"/>
<stop offset="1" stop-color="#210092"/>
</linearGradient>
<linearGradient id="paint1_linear_242_94609" x1="11.3652" y1="125.016" x2="37.801" y2="125.016" gradientUnits="userSpaceOnUse">
<stop stop-color="#00ECF8"/>
<stop offset="0.71" stop-color="#0080DD"/>
</linearGradient>
<linearGradient id="paint2_linear_242_94609" x1="56.8601" y1="125.275" x2="238.67" y2="125.275" gradientUnits="userSpaceOnUse">
<stop stop-color="#074CCF"/>
<stop offset="0.236" stop-color="#074FD0"/>
<stop offset="0.394" stop-color="#0658D2"/>
<stop offset="0.53" stop-color="#0667D6"/>
<stop offset="0.653" stop-color="#057CDB"/>
<stop offset="0.768" stop-color="#0498E2"/>
<stop offset="0.876" stop-color="#02BAEB"/>
<stop offset="0.977" stop-color="#00E2F5"/>
<stop offset="1" stop-color="#00ECF8"/>
</linearGradient>
<linearGradient id="paint3_linear_242_94609" x1="142.305" y1="89.2789" x2="110.362" y2="140.8" gradientUnits="userSpaceOnUse">
<stop stop-color="#00EFF0"/>
<stop offset="0.057" stop-color="#06BEE3"/>
<stop offset="0.122" stop-color="#0B8ED6"/>
<stop offset="0.186" stop-color="#1065CB"/>
<stop offset="0.249" stop-color="#1346C3"/>
<stop offset="0.31" stop-color="#1630BD"/>
<stop offset="0.368" stop-color="#1723B9"/>
<stop offset="0.421" stop-color="#181EB8"/>
<stop offset="0.526" stop-color="#1C1DB8"/>
<stop offset="0.637" stop-color="#2919B8"/>
<stop offset="0.75" stop-color="#3E14B9"/>
<stop offset="0.865" stop-color="#5B0CBA"/>
<stop offset="0.981" stop-color="#8102BB"/>
<stop offset="1" stop-color="#8800BB"/>
</linearGradient>
<linearGradient id="paint4_linear_242_94609" x1="152.549" y1="95.6293" x2="120.606" y2="147.15" gradientUnits="userSpaceOnUse">
<stop stop-color="#00EFF0"/>
<stop offset="0.057" stop-color="#06BEE3"/>
<stop offset="0.122" stop-color="#0B8ED6"/>
<stop offset="0.186" stop-color="#1065CB"/>
<stop offset="0.249" stop-color="#1346C3"/>
<stop offset="0.31" stop-color="#1630BD"/>
<stop offset="0.368" stop-color="#1723B9"/>
<stop offset="0.421" stop-color="#181EB8"/>
<stop offset="0.526" stop-color="#1C1DB8"/>
<stop offset="0.637" stop-color="#2919B8"/>
<stop offset="0.75" stop-color="#3E14B9"/>
<stop offset="0.865" stop-color="#5B0CBA"/>
<stop offset="0.981" stop-color="#8102BB"/>
<stop offset="1" stop-color="#8800BB"/>
</linearGradient>
<linearGradient id="paint5_linear_242_94609" x1="138.301" y1="110.931" x2="116.66" y2="144.185" gradientUnits="userSpaceOnUse">
<stop stop-color="#FF00BC"/>
<stop offset="1" stop-color="#210092"/>
</linearGradient>
<clipPath id="clip0_242_94609">
<rect width="227.302" height="227.302" fill="white" transform="translate(11.3652 11.3633)"/>
</clipPath>
</defs>
</svg>
