<svg width="250" height="250" viewBox="0 0 250 250" fill="none" xmlns="http://www.w3.org/2000/svg">
<rect width="250" height="250" rx="125" fill="white"/>
<g clip-path="url(#clip0_242_94596)">
<path d="M191.731 87.4628C191.731 87.4337 191.712 87.4103 191.708 87.3817C191.698 87.2704 191.669 87.1616 191.622 87.0603C191.604 87.0032 191.579 86.9481 191.55 86.8957C191.472 86.7863 191.374 86.6936 191.26 86.6229C191.232 86.6048 191.219 86.5716 191.189 86.5561L168.659 74.8441C168.516 74.7695 168.358 74.7305 168.196 74.7305H155.441L139.979 54.1155L122.821 11.992C122.741 11.7978 122.603 11.6333 122.426 11.5215C122.248 11.4098 122.04 11.3564 121.831 11.369C121.621 11.3815 121.421 11.4593 121.258 11.5914C121.095 11.7235 120.977 11.9034 120.922 12.1057L110.087 51.4972L101.31 53.637C101.284 53.6434 101.264 53.6616 101.24 53.67C101.083 53.6097 100.912 53.5935 100.747 53.6232C100.598 53.6482 100.456 53.7068 100.333 53.7945C100.209 53.8822 100.107 53.9968 100.034 54.1296L87.7906 76.428C87.6873 76.388 87.5779 76.3659 87.4672 76.3625H75.0053C74.8684 76.3627 74.7329 76.3908 74.6072 76.4451C74.4815 76.4995 74.3682 76.579 74.2743 76.6787L58.5741 93.3329C58.4374 93.4779 58.347 93.6602 58.3143 93.8568C58.2817 94.0533 58.3083 94.2551 58.3909 94.4365L60.7178 99.5749C60.6519 99.7467 60.6362 99.9338 60.6723 100.114L74.3332 160.718C74.3818 160.934 74.5002 161.128 74.6701 161.27L97.7012 180.472L128.721 237.733C128.733 237.945 128.812 238.147 128.946 238.31C129.081 238.474 129.264 238.59 129.469 238.643C129.548 238.661 129.629 238.67 129.71 238.67C129.722 238.67 129.731 238.659 129.743 238.659C129.755 238.658 129.765 238.669 129.778 238.67H129.827C129.991 238.67 130.153 238.63 130.299 238.553C130.444 238.475 130.568 238.364 130.661 238.228L177.02 169.343C177.098 169.227 177.15 169.096 177.173 168.958L191.715 87.6465C191.717 87.606 191.716 87.5655 191.712 87.5251C191.714 87.5026 191.731 87.4853 191.731 87.4628ZM158.209 81.7712H155.533L140.892 70.2524C140.83 70.2125 140.763 70.1793 140.694 70.1535L140.222 57.7883L158.209 81.7712ZM140.473 72.4788L153.382 82.6351L127.562 90.3539L140.473 72.4788ZM122.075 15.487L138.099 54.8297L138.733 71.4555L125.26 90.1098L115.691 66.7494C115.634 66.6106 115.546 66.4864 115.435 66.3857L115.412 66.3648C115.43 66.2849 115.438 66.2029 115.435 66.1209L112.154 52.04C112.133 51.9767 112.106 51.9158 112.072 51.8582L122.075 15.487ZM110.427 53.4831L112.899 64.0934L103.13 55.2629L110.427 53.4831ZM113.943 67.7864L123.52 91.1583H96.5061L86.4718 83.1704L113.943 67.7864ZM101.184 56.2117L112.398 66.3494L88.1657 79.9193L101.184 56.2117ZM75.4386 78.3737H86.723L84.8566 81.7725L84.6293 81.8996C84.4197 82.0191 84.2608 82.2109 84.1822 82.439C84.1036 82.6671 84.1107 82.916 84.2022 83.1393C84.145 83.3201 84.1422 83.5137 84.1941 83.696C84.246 83.8784 84.3503 84.0415 84.4941 84.1651L95.5291 92.9497C95.7072 93.091 95.9276 93.1681 96.1549 93.1686H125.016C125.113 93.1686 125.21 93.1543 125.304 93.1261L155.813 84.0058C155.946 83.9572 156.067 83.8806 156.168 83.7812H160.218C160.405 83.781 160.588 83.729 160.746 83.6308C160.905 83.5327 161.033 83.3924 161.117 83.2256C161.2 83.0588 161.236 82.872 161.219 82.6862C161.202 82.5004 161.134 82.3229 161.023 82.1735L156.948 76.741H167.951L188.481 87.4117L161.124 100.566L103.937 105.234L62.3453 98.3008L60.4982 94.2214L75.4386 78.3737ZM99.6331 179.819L117.744 177.688L110.405 199.703L99.6331 179.819ZM90.7565 137.511C90.7408 137.374 90.696 137.241 90.6251 137.123L63.9171 100.6L103.057 107.123L117.373 173.2L90.7565 137.511ZM111.889 201.61L119.402 179.07L138.349 198.44L129.393 234.754L111.643 201.988C111.753 201.882 111.837 201.753 111.889 201.609V201.61ZM140.683 197.306L166.961 137.458L174.497 168.672C174.54 168.84 174.629 168.993 174.752 169.114L131.973 232.681L140.683 197.306ZM138.982 196.22L120.313 177.142L120.109 176.866C120.147 176.726 120.155 176.579 120.131 176.436L105.12 107.153L160.793 102.607L166.218 134.151L138.982 196.22ZM63.4702 103.392L88.5912 137.745L75.637 157.37L63.4702 103.392ZM76.2109 159.916C76.3556 159.842 76.4796 159.734 76.5717 159.6L89.7902 139.575L116.799 175.776L97.9101 177.999C97.9006 177.999 97.8933 178.006 97.8838 178.007L76.2178 159.946L76.2109 159.916ZM175.773 165.393L168.263 134.287C168.263 134.228 168.258 134.169 168.249 134.111L162.73 102.022L189.398 89.2003L175.773 165.393Z" fill="#070618"/>
</g>
<defs>
<clipPath id="clip0_242_94596">
<rect width="227.302" height="227.302" fill="white" transform="translate(11.3652 11.3633)"/>
</clipPath>
</defs>
</svg>
