<svg width="250" height="250" viewBox="0 0 250 250" fill="none" xmlns="http://www.w3.org/2000/svg">
<g clip-path="url(#clip0_242_94780)">
<path d="M125 250C194.038 250 250 194.038 250 125C250 55.9625 194.038 0 125 0C55.9625 0 0 55.9625 0 125C0 194.038 55.9625 250 125 250Z" fill="#EDF0F4"/>
<path d="M64.6636 187.5C64.5766 185.763 64.5476 184.027 64.6346 182.29C65.2136 182.117 65.7921 182.001 66.4001 181.914C68.1366 181.625 69.8731 181.19 71.5516 180.699C72.0146 180.554 72.4776 180.381 72.9411 180.206C75.1696 179.339 77.1376 177.892 78.6426 176.039C79.6841 174.737 80.5816 173.318 81.3631 171.842C82.4626 169.816 83.4176 167.703 84.2861 165.562C86.0226 161.221 87.7591 156.909 89.4666 152.567C95.3706 137.633 101.275 122.699 107.179 107.765C112.765 93.5545 118.264 79.344 123.647 65.047C123.763 64.7575 123.879 64.468 123.994 64.1785C125.991 63.6285 127.931 63.05 129.957 62.5C130.072 62.7895 130.188 63.05 130.275 63.3105C132.561 69.6775 134.848 76.045 137.105 82.441C144.891 104.177 152.676 125.883 160.664 147.531C162.863 153.436 165.063 159.369 167.292 165.273C168.16 167.675 169.202 170.048 170.388 172.305C170.909 173.289 171.459 174.215 172.067 175.142C173.919 178.036 176.784 180.091 180.113 180.959C181.907 181.422 183.702 181.799 185.554 182.03L186.856 182.232C187.03 182.812 186.943 183.361 186.943 183.911C186.943 184.461 186.943 185.098 186.943 185.676C186.972 186.256 186.943 186.806 186.914 187.384C186.741 187.413 186.596 187.442 186.422 187.471C186.22 187.471 186.017 187.471 185.814 187.471H140.636C140.578 187.384 140.549 187.268 140.52 187.152C140.52 185.59 140.52 184.027 140.52 182.464C140.52 182.406 140.549 182.32 140.578 182.262C140.954 182.146 141.331 182.088 141.736 182.03C143.617 181.77 145.469 181.422 147.322 180.93C148.045 180.727 148.798 180.467 149.492 180.178C149.84 180.033 150.187 179.859 150.534 179.656C152.358 178.644 153.081 177.052 152.907 175.026C152.821 174.1 152.676 173.202 152.415 172.305C152.039 170.916 151.547 169.556 151.084 168.225C141.591 141.743 132.214 115.232 122.924 88.6635C122.837 88.374 122.779 88.0555 122.49 87.795C122.403 87.853 122.258 87.911 122.2 87.969C122.113 88.1135 122.055 88.2585 122.026 88.403C117.483 101.456 112.649 114.422 107.845 127.359C104.285 136.938 100.725 146.547 97.4256 156.214C96.0946 160.092 94.8211 163.999 93.5766 167.906C93.0846 169.411 92.7371 170.945 92.5056 172.479C92.3321 173.521 92.3031 174.563 92.4186 175.634C92.5636 176.994 93.2871 178.238 94.4156 179.049C95.1391 179.57 95.9496 179.975 96.8181 180.264C98.1781 180.756 99.5676 181.104 100.986 181.335C102.549 181.625 104.111 181.856 105.703 182.088C105.819 182.117 105.906 182.117 106.051 182.146C106.079 182.261 106.108 182.377 106.137 182.493C106.137 183.998 106.137 185.532 106.137 187.037C106.137 187.124 106.108 187.211 106.079 187.298C105.935 187.326 105.79 187.355 105.645 187.355C105.443 187.355 105.24 187.355 105.038 187.355L64.6636 187.5Z" fill="black"/>
</g>
<defs>
<clipPath id="clip0_242_94780">
<rect width="250" height="250" fill="white"/>
</clipPath>
</defs>
</svg>
