<svg width="250" height="250" viewBox="0 0 250 250" fill="none" xmlns="http://www.w3.org/2000/svg">
<rect width="250" height="250" rx="125" fill="white"/>
<path d="M21.0605 122.519C21.9224 121.026 23.0109 117.775 25.1762 115.592C55.4137 85.1077 85.8114 54.7822 116.134 24.3828C121.822 18.6814 129.515 19.0134 136.065 25.5635C151.552 41.0522 167.055 56.5247 182.548 72.0075C187.098 76.5541 191.654 81.0952 196.173 85.6721C199.688 89.2319 199.712 93.4798 196.229 97.0752C193.084 100.321 189.647 103.312 186.757 106.765C183.541 110.607 177.571 110.453 174.007 106.8C159.933 92.3709 145.586 78.2065 131.347 63.9384C127.678 60.2626 123.395 60.2664 119.729 63.9575C116.179 67.5326 112.583 71.0644 109.061 74.6671C104.78 79.045 104.664 82.5016 108.899 87.0571C112.448 90.8745 116.267 94.4394 119.924 98.1569C124.12 102.422 124.267 105.876 120.19 110.289C117.127 113.605 113.885 116.768 110.578 119.842C106.359 123.764 103.005 123.82 98.8296 119.953C95.1346 116.532 91.4244 113.076 88.143 109.272C83.8445 104.288 78.4462 104.763 74.3657 109.056C65.1496 118.752 55.5467 128.079 46.1368 137.592C38.2314 145.583 35.406 145.604 27.4334 137.46C23.8349 133.785 21.1273 129.643 21.0605 122.519ZM136.319 223.613C145.658 214.02 155.23 204.654 164.695 195.184C184.978 174.89 205.219 154.554 225.576 134.335C227.848 132.078 228.921 129.635 229.148 126.574C229.512 121.646 228.452 117.315 224.517 113.955C222.934 112.603 221.527 111.046 220.044 109.578C215.049 104.628 211.908 104.951 207.361 109.471C206.25 110.575 205.12 111.657 204.013 112.763C194.546 122.231 184.978 131.602 175.664 141.219C171.483 145.536 167.379 145.576 162.844 141.117C159.125 137.46 155.48 133.729 151.781 130.052C147.611 125.908 144.324 125.772 140.109 129.75C136.823 132.851 133.66 136.087 130.515 139.334C127.074 142.886 127.025 147.983 130.503 151.681C134.192 155.605 138.119 159.305 141.808 163.229C146.414 168.128 146.38 170.068 141.652 175.048C138.301 178.577 134.805 181.97 131.352 185.402C128.334 188.402 124.907 189.065 121.069 186.939C118.999 185.793 117.147 184.134 115.451 182.45C102.006 169.092 88.6364 155.659 75.2098 142.283C71.7057 138.792 67.9597 138.676 64.3289 142.013C61.2745 144.819 58.2893 147.72 55.48 150.769C50.6792 155.979 50.7782 160.286 55.5676 165.478C55.9212 165.861 56.3028 166.219 56.6717 166.588C66.9848 176.908 77.3038 187.222 87.6092 197.55C95.5839 205.543 103.477 213.618 111.535 221.526C115.222 225.145 118.907 229.053 125.191 228.415C129.566 228.94 133.07 226.951 136.319 223.613Z" fill="#3D424D"/>
</svg>
