<svg width="250" height="250" viewBox="0 0 250 250" fill="none" xmlns="http://www.w3.org/2000/svg">
<rect width="250" height="250" rx="125" fill="white"/>
<path fill-rule="evenodd" clip-rule="evenodd" d="M207.057 37.1516L197.75 93.0391L164.642 54.0241L207.057 37.1516ZM197.962 117.094L206.25 147.737L142.84 165.162L197.962 117.094ZM59.922 101.709L93.922 57.2966H152.955L190.695 101.709H59.922ZM186.317 112.674L124.862 166.309L62.2595 112.674H186.317ZM82.532 54.0666L52.1445 93.7616L42.837 37.3641L82.532 54.0666ZM106.63 165.162L42.6245 147.737L51.3795 117.859L106.63 165.162ZM118.487 179.782L106.417 193.084C96.1745 183.352 84.912 174.724 72.8845 167.372L118.487 179.782ZM177.052 167.117C165.025 174.597 153.805 183.352 143.647 193.169L131.322 179.739L177.052 167.117ZM221.082 19.7691L154.442 46.2891H92.307L28.7695 19.5566L43.2195 106.852L29.3645 154.069L65.532 175.702C82.6595 185.944 98.002 198.779 111.135 213.782L125.202 229.889L139.992 212.932C152.657 198.397 167.447 185.902 183.895 175.787L219.382 154.027L206.59 106.852L221.082 19.7691Z" fill="#0A1832"/>
</svg>
