<svg width="250" height="250" viewBox="0 0 250 250" fill="none" xmlns="http://www.w3.org/2000/svg">
<g clip-path="url(#clip0_242_94876)">
<path d="M125 250.031C108.128 250.031 91.759 246.723 76.3423 240.204C61.4549 233.906 48.0932 224.892 36.6101 213.416C25.1358 201.94 16.1222 188.568 9.82502 173.678C3.30735 158.26 0 141.888 0 125.014C0 108.14 3.30735 91.769 9.82502 76.3504C16.1222 61.461 25.1358 48.0975 36.6101 36.6129C48.0932 25.1372 61.4549 16.1224 76.3423 9.82435C91.759 3.30583 108.128 -0.00195312 125 -0.00195312C141.872 -0.00195312 158.241 3.30583 173.658 9.82435C188.545 16.1224 201.907 25.1372 213.39 36.6129C224.864 48.0887 233.878 61.461 240.175 76.3504C246.693 91.769 250 108.14 250 125.014C250 141.888 246.693 158.26 240.175 173.678C233.878 188.568 224.864 201.931 213.39 213.416C201.916 224.892 188.545 233.906 173.658 240.204C158.241 246.732 141.872 250.031 125 250.031Z" fill="white"/>
<path d="M125 243.407C190.377 243.407 243.376 190.401 243.376 125.015C243.376 59.6289 190.377 6.62305 125 6.62305C59.622 6.62305 6.62305 59.6289 6.62305 125.015C6.62305 190.401 59.622 243.407 125 243.407Z" fill="black"/>
<path d="M193.599 68.0606L176.189 50.6484L156.442 70.3981C149.236 66.5169 140.717 64.4264 131.694 64.4264C122.249 64.4264 113.288 66.5611 105.782 70.5216L85.9118 50.6484L68.502 68.0606L88.3107 87.872C85.4179 93.5349 83.8921 99.9476 83.8921 106.819V202.886H108.516V151.417H131.685C145.709 151.417 156.945 147.853 165.085 140.823C171.18 135.557 178.447 125.651 178.447 108.345C178.447 100.918 176.815 93.9847 173.728 87.9161L193.599 68.0606ZM131.694 126.789H108.525V106.819C108.525 89.9007 127.831 89.0451 131.694 89.0451C135.39 89.0451 153.831 89.9713 153.831 108.345C153.831 117.924 151.15 126.789 131.694 126.789Z" fill="white"/>
</g>
<defs>
<clipPath id="clip0_242_94876">
<rect width="250" height="250" rx="125" fill="white"/>
</clipPath>
</defs>
</svg>
