<svg width="250" height="250" viewBox="0 0 250 250" fill="none" xmlns="http://www.w3.org/2000/svg">
<rect width="250" height="250" rx="125" fill="black"/>
<path d="M137.066 41.9409C139.403 41.3731 141.78 40.9242 144.077 40.2112C149.517 38.5211 154.455 40.2112 156.356 45.0174C158.773 51.1043 162.932 51.3551 167.87 50.8006C173.35 50.18 175.013 52.2662 174.987 57.7721C174.789 102.85 174.789 147.914 174.987 192.991C175.013 198.708 173.534 201.257 167.619 200.359C162.417 199.567 158.812 200.821 156.238 206.366C153.544 212.15 147.999 212.678 140.948 209.403C148.038 207.581 144.645 202.867 143.853 198.867C146.771 198.893 149.966 197.612 149.926 194.945C149.821 187.683 154.429 188.185 158.997 188.687C164.265 189.268 165.665 187.195 165.612 182.058C165.361 158.12 165.612 134.182 165.467 110.244C165.388 96.6306 166.114 83.0176 164.965 69.4178C164.45 67.0147 167.672 64.44 164.886 62.2482C163.302 61.007 161.638 62.3142 160.159 63.146C159.248 63.0668 158.337 62.9876 157.426 62.8951C153.544 61.9445 149.966 60.7958 150.415 55.5671C150.507 54.4844 149.121 54.0223 148.012 53.8506C143.971 50.114 139.865 56.3329 135.812 53.7714C137.449 49.9555 137.885 46.0076 137.066 41.9277V41.9409Z" fill="#7C51CF"/>
<path d="M143.853 198.867C144.645 202.867 148.038 207.568 140.948 209.403L140.367 209.284C138.901 207.938 137.462 207.713 136.049 209.364H136.089C134.874 209.205 133.937 209.707 133.144 210.578C132.656 211.001 132.075 211.371 131.679 211.872C127.559 217.167 123.836 219.9 118.541 212.546C115.914 208.902 111.134 208.637 106.552 210.605C100.505 213.206 95.3819 210.895 92.8204 205.455C90.7078 200.979 87.9878 200.24 83.7098 200.24C80.9767 200.24 77.5569 202.022 75.4443 198.55C77.6361 198.655 79.8544 198.616 82.0198 198.88C85.8753 199.355 87.288 198.603 86.2053 194.127C85.2415 190.179 82.9836 186.812 83.0233 182.309C83.3269 144.494 83.1817 106.679 83.2213 68.8632C83.2213 66.909 83.1157 64.7965 83.7627 63.014C87.7766 51.7908 87.8426 51.8172 76.1177 52.5434C75.8933 52.5566 75.682 52.5962 75.4575 52.6227C78.0983 49.0841 81.8349 51.1042 85.0434 50.9062C88.2783 50.6949 90.523 50.4837 92.1998 46.8658C95.4083 39.9867 100.069 38.2834 107.173 40.8318C112.494 42.7331 116.983 41.3599 120.046 37.3328C123.862 32.3022 126.556 32.8039 129.778 37.5704C130.596 38.7852 132.022 39.617 133.171 40.6205C134.029 41.5448 135.046 42.0333 136.327 41.8616C136.591 41.7428 136.842 41.7692 137.066 41.9409C137.885 46.0208 137.436 49.9687 135.812 53.7846C135.085 53.7054 134.359 53.6129 133.633 53.5337C132.63 53.1376 131.626 52.7283 130.623 52.3322C127.744 52.385 126.595 46.5754 122.37 50.3516C117.802 54.4448 112.269 55.3162 106.367 52.8867C103 51.5135 99.6731 53.5073 99.7523 56.2273C99.9504 63.3837 95.712 63.212 91.0379 62.565C85.3735 61.786 84.1852 64.1627 84.2116 69.5102C84.4361 106.216 84.304 142.923 84.3436 179.629C84.3436 189.967 83.3798 188.462 92.9656 188.489C96.7551 188.489 100.122 188.225 99.343 193.797C99.0525 195.896 100.703 197.401 102.948 197.81C107.08 200.398 110.87 196.279 114.91 197.177C116.231 197.335 117.551 197.494 118.871 197.652C119.69 199.738 121.459 200.636 123.453 201.204C126.992 203.897 127.916 198.708 130.609 198.84C131.613 198.444 132.616 198.035 133.62 197.639C134.333 197.56 135.046 197.48 135.759 197.401C137.99 199.25 140.631 198.788 143.206 198.748L143.549 198.708L143.853 198.867Z" fill="#9269DC"/>
<path d="M75.4577 52.6221C75.6822 52.5957 75.8934 52.5561 76.1179 52.5429C87.8428 51.8167 87.7768 51.7903 83.7628 63.0134C83.1291 64.8091 83.2215 66.9085 83.2215 68.8627C83.1951 106.678 83.3271 144.493 83.0234 182.309C82.9838 186.811 85.2549 190.178 86.2055 194.126C87.2882 198.602 85.8754 199.355 82.02 198.879C79.8413 198.615 77.6363 198.655 75.4445 198.549C75.2465 196.82 74.8636 195.09 74.8636 193.373C74.8371 148.177 74.8371 102.981 74.8636 57.7848C74.8636 56.0551 75.2465 54.3386 75.4445 52.6089L75.4577 52.6221Z" fill="#9972DD"/>
<path d="M136.062 209.363C137.475 207.713 138.914 207.937 140.38 209.284C138.941 209.311 137.502 209.337 136.062 209.363Z" fill="#7C51CF"/>
<path d="M136.314 41.8486C135.033 42.0202 134.016 41.5185 133.158 40.6074C134.201 41.0167 135.258 41.4393 136.314 41.8486Z" fill="#7C51CF"/>
<path d="M133.158 210.565C133.95 209.694 134.888 209.192 136.103 209.35C135.297 210.182 134.386 210.737 133.158 210.565Z" fill="#7C51CF"/>
<path d="M133.634 53.534C134.36 53.6132 135.086 53.7056 135.812 53.7849C139.853 56.3464 143.959 50.1274 148.013 53.8641C133 101.846 117.987 149.842 102.962 197.824C100.717 197.415 99.0533 195.909 99.357 193.81C100.136 188.238 96.7691 188.515 92.9796 188.502C83.3937 188.476 84.3708 189.981 84.3576 179.642C84.318 142.936 84.45 106.23 84.2255 69.5237C84.1859 64.1762 85.3875 61.7995 91.0519 62.5785C95.7392 63.2255 99.9643 63.3972 99.7663 56.2408C99.6871 53.5208 103.014 51.527 106.381 52.9002C112.283 55.3165 117.816 54.445 122.384 50.3651C126.609 46.5756 127.758 52.3985 130.637 52.3457C131.442 53.2435 132.406 53.7453 133.647 53.5472L133.634 53.534Z" fill="#433551"/>
<path d="M143.853 198.866L143.55 198.708L143.206 198.747C140.988 196.846 138.532 196.291 135.773 197.4C135.06 197.48 134.347 197.559 133.634 197.638C132.392 197.44 131.429 197.942 130.623 198.84C127.943 198.708 127.005 203.897 123.467 201.203C126.807 190.534 130.135 179.853 133.502 169.184C143.985 135.924 154.482 102.677 164.966 69.417C166.115 83.0168 165.389 96.6298 165.468 110.243C165.6 134.181 165.362 158.119 165.613 182.058C165.666 187.194 164.266 189.267 158.998 188.686C154.429 188.184 149.821 187.696 149.927 194.944C149.967 197.598 146.771 198.879 143.853 198.866Z" fill="#433551"/>
<path d="M102.948 197.824C117.961 149.842 132.973 101.846 147.999 53.8643C149.108 54.0359 150.495 54.498 150.402 55.5807C149.94 60.8094 153.518 61.9581 157.413 62.9088C148.237 92.2342 139.047 121.546 129.884 150.872C125.038 166.36 120.747 182.019 114.924 197.19C110.87 196.306 107.094 200.425 102.961 197.824H102.948Z" fill="#F1EFF0"/>
<path d="M164.967 69.4303C154.483 102.69 143.986 135.937 133.502 169.197C130.135 179.866 126.808 190.548 123.467 201.216C121.474 200.635 119.704 199.751 118.886 197.665C128.683 166.266 138.533 134.894 148.224 103.456C152.357 90.0677 157.52 76.9829 160.147 63.1586C161.639 62.3268 163.29 61.0196 164.874 62.2607C167.66 64.4526 164.438 67.0273 164.953 69.4303H164.967Z" fill="#F1EFF0"/>
<path d="M160.146 63.1464C157.519 76.9706 152.356 90.0687 148.224 103.444C138.519 134.869 128.669 166.254 118.885 197.652C117.565 197.494 116.244 197.335 114.924 197.177C120.747 182.006 125.038 166.346 129.884 150.859C139.047 121.533 148.237 92.2209 157.413 62.8955C158.324 62.9747 159.235 63.054 160.146 63.1464Z" fill="#433551"/>
<path d="M135.771 197.414C138.531 196.304 140.987 196.859 143.205 198.76C140.644 198.813 137.99 199.262 135.771 197.414Z" fill="#7C51CF"/>
<path d="M133.633 53.5336C132.392 53.7316 131.428 53.2299 130.623 52.332C131.627 52.7281 132.63 53.1375 133.633 53.5336Z" fill="#7C51CF"/>
<path d="M130.623 198.84C131.428 197.956 132.379 197.441 133.633 197.639C132.63 198.035 131.627 198.444 130.623 198.84Z" fill="#7C51CF"/>
</svg>
