<svg width="250" height="250" viewBox="0 0 250 250" fill="none" xmlns="http://www.w3.org/2000/svg">
<rect width="250" height="250" rx="125" fill="white"/>
<path d="M199.427 171.976C202.317 167.556 204.782 162.923 206.864 158.036C211.497 147.071 213.877 135.426 213.877 123.441C213.877 111.456 211.539 99.8109 206.864 88.8459C204.824 84.0009 202.359 79.3684 199.512 74.9909L229.772 44.7309L203.762 18.7209L173.544 48.9384C169.167 46.0484 164.492 43.5834 159.604 41.5434C148.639 36.9109 136.994 34.5309 125.009 34.5309C113.024 34.5309 101.379 36.8684 90.4142 41.5434C85.5267 43.6259 80.8517 46.0909 76.4742 48.9809L45.8317 18.3809L19.8642 44.3909L50.4642 74.9909C47.6167 79.3684 45.1517 83.9584 43.1117 88.8034C38.4792 99.7684 36.0992 111.413 36.0992 123.398C36.0992 135.383 38.4367 147.028 43.1117 157.993C45.1942 162.881 47.6592 167.513 50.5067 171.933L18.8867 203.553L44.8967 229.563L76.5167 197.943C80.8942 200.791 85.5267 203.256 90.3717 205.296C101.337 209.928 112.982 212.308 124.967 212.308C136.952 212.308 148.597 209.971 159.562 205.296C164.407 203.256 169.039 200.791 173.374 197.943L204.654 229.223L230.664 203.213L199.427 171.976ZM124.967 176.778C116.977 176.778 109.412 175.036 102.569 171.891C91.1367 166.578 81.8717 157.356 76.5592 145.923C73.3717 139.081 71.5867 131.473 71.5867 123.441C71.5867 115.451 73.3292 107.886 76.4742 101.086C81.7442 89.6109 91.0092 80.3884 102.442 75.0334C109.284 71.8459 116.892 70.0609 124.967 70.0609C132.999 70.0609 140.607 71.8459 147.449 75.0334C158.882 80.3459 168.147 89.6109 173.417 101.043C176.562 107.843 178.304 115.451 178.304 123.441C178.304 131.473 176.519 139.123 173.332 145.966C168.019 157.398 158.754 166.621 147.279 171.933C140.522 175.036 132.957 176.778 124.967 176.778Z" fill="black"/>
</svg>
