<svg width="250" height="250" viewBox="0 0 250 250" fill="none" xmlns="http://www.w3.org/2000/svg">
<path d="M124.417 248.333C192.855 248.333 248.334 192.854 248.334 124.416C248.334 55.9793 192.855 0.5 124.417 0.5C55.9803 0.5 0.500977 55.9793 0.500977 124.416C0.500977 192.854 55.9803 248.333 124.417 248.333Z" fill="#1F9AD8"/>
<path d="M142.362 181.642C156.877 181.642 168.643 169.876 168.643 155.361C168.643 140.846 156.877 129.08 142.362 129.08C127.847 129.08 116.081 140.846 116.081 155.361C116.081 169.876 127.847 181.642 142.362 181.642Z" fill="white"/>
<path d="M87.8218 52.2127C87.8218 52.2127 107.321 24.5187 124.841 14.9107C142.362 5.30269 153.101 3.88919 161.013 6.15019C168.926 8.41069 178.534 12.6497 181.36 16.0407C184.186 19.4317 185.033 21.4102 185.033 21.4102C185.033 21.4102 171.963 16.4647 156.774 22.5407C144.398 27.4912 136.739 33.3312 127.385 41.4742C120.567 47.4087 120.37 49.3062 120.37 49.3062C120.37 49.3062 136.534 47.3737 162.532 54.7207C188.53 62.0677 195.489 73.9722 199.728 80.7547C203.967 87.5367 205.945 96.0147 205.945 96.0147C205.945 96.0147 184.185 80.4722 152.252 77.3637C120.319 74.2552 100.538 74.2552 100.538 74.2552C100.538 74.2552 82.4518 100.536 70.0178 133.6C57.5838 166.663 41.4768 216.399 41.4768 216.399C41.4768 216.399 36.3903 182.205 50.2373 138.121C64.0843 94.0362 74.2578 75.6677 74.2578 75.6677C74.2578 75.6677 54.4763 75.9502 35.2603 83.2977C16.0443 90.6452 2.19629 103.927 2.19629 103.927C2.19629 103.927 7.15179 86.1222 29.0428 73.4067C49.3538 61.6087 59.2798 57.8642 87.8218 52.2127Z" fill="#FBFFFF"/>
</svg>
