<svg width="250" height="250" viewBox="0 0 250 250" fill="none" xmlns="http://www.w3.org/2000/svg">
<path d="M205.407 73.7012H150.549L134.284 114.991H82.9858V93.7328H134.284L141.791 73.7012H64.112C62.0969 73.7012 60.4634 75.3348 60.4634 77.3499V114.991H47.9509L40.4434 135.011H60.4634V172.6C60.4634 174.642 62.1187 176.297 64.1605 176.297H101.753L109.259 156.279H82.9835V135.011H125.526L109.259 176.297H134.284L151.801 135.009H205.68C207.709 135.009 209.355 133.364 209.356 131.335V77.6502C209.356 75.4692 207.588 73.7012 205.407 73.7012ZM188.098 111.828C188.098 113.578 186.679 114.996 184.93 114.996H159.309L168.066 93.7374H184.918C186.666 93.7297 188.089 95.1394 188.098 96.8869V111.828Z" fill="#4096D0"/>
</svg>
