<svg width="250" height="250" viewBox="0 0 250 250" fill="none" xmlns="http://www.w3.org/2000/svg">
<g clip-path="url(#clip0_242_93478)">
<path d="M88.0005 7.40015C91.7005 10.7001 125.101 53.6501 127.401 58.1501C105.151 57.7001 86.5505 65.6001 72.4005 82.6501C58.3505 99.6501 54.2005 119.3 58.5005 141.55C74.2005 129.65 89.0005 117.5 104.651 105.7C116.201 120.5 127.551 135 139.151 149.85C131.301 156.3 123.401 162.2 115.651 168.3C108.001 174.3 100.351 180.35 92.6505 186.4C108.701 206.95 124.601 227.25 140.601 247.65C128.051 251.35 98.8005 249.5 76.7505 240C44.3505 226 21.2505 202.65 8.80055 169.65C-15.9994 103.95 17.7005 29.6501 88.0005 7.40015ZM124.901 200.5C133.001 210.9 141.151 221.3 149.301 231.7C152.401 235.65 155.501 239.55 158.601 243.5C159.601 244.8 160.601 245.75 162.601 245.05C171.401 241.85 180.051 238.3 188.101 233.45C204.801 223.45 218.651 210.45 229.201 194.05C240.651 176.25 247.751 156.85 248.901 135.6C249.401 126.4 249.501 117.15 248.201 107.95C246.151 94.0001 242.051 80.8001 235.551 68.2501C223.751 45.6001 206.501 28.1501 184.301 15.7501C167.901 6.60015 150.151 2.05015 131.501 0.750148C123.351 0.200148 115.151 0.750148 107.001 1.60015C106.651 1.65015 106.351 1.90015 105.601 2.25015C113.801 12.7501 121.851 23.1501 129.951 33.5001C138.051 43.9001 146.151 54.3001 154.501 64.9001C138.901 77.1001 123.501 89.1501 107.901 101.3C119.951 117.15 132.101 132.35 144.201 147.7C151.951 141.65 159.301 135.85 166.701 130.1C174.101 124.3 181.351 118.3 189.201 112.75C192.401 127.1 190.351 146.7 179.951 161.9C165.501 183.05 145.101 192.5 118.851 192C121.201 195.4 122.951 198 124.901 200.5ZM131.851 198.4C185.351 191.8 207.951 138.25 192.701 101.15C176.851 113.5 161.101 125.8 145.201 138.2C135.901 126.3 126.801 114.7 117.401 102.7C125.101 96.3001 132.951 90.4001 140.701 84.3001C148.351 78.2501 156.101 72.3001 164.051 66.1501C148.951 46.7501 133.951 27.5501 118.551 7.80015C120.651 7.65015 122.301 7.35015 124.001 7.40015C143.051 7.45015 161.101 11.6001 178.101 20.2001C190.601 26.5501 201.501 34.9501 211.051 45.2001C222.401 57.3501 230.751 71.2001 236.201 86.9001C238.951 94.9001 240.701 103.05 241.801 111.45C242.851 119.65 242.901 127.85 242.251 135.95C241.051 150.9 237.001 165.15 230.201 178.65C220.801 197.35 207.301 212.45 190.001 224.2C181.651 229.85 172.651 234.15 162.601 237.65C152.301 224.45 142.151 211.55 131.851 198.4Z" fill="#DD2664"/>
</g>
<defs>
<clipPath id="clip0_242_93478">
<rect width="250" height="250" rx="125" fill="white"/>
</clipPath>
</defs>
</svg>
