<svg width="250" height="250" viewBox="0 0 250 250" fill="none" xmlns="http://www.w3.org/2000/svg">
<rect width="250" height="250" rx="125" fill="white"/>
<g clip-path="url(#clip0_242_94507)">
<path d="M125.016 238.668C187.784 238.668 238.668 187.784 238.668 125.016C238.668 62.2486 187.784 11.3652 125.016 11.3652C62.2486 11.3652 11.3652 62.2486 11.3652 125.016C11.3652 187.784 62.2486 238.668 125.016 238.668Z" fill="url(#paint0_linear_242_94507)"/>
<path fill-rule="evenodd" clip-rule="evenodd" d="M180.259 146.222L170.465 141.1L137.7 160.791C134.154 162.92 129.554 164.094 124.745 164.094C120.576 164.094 116.7 163.22 113.538 161.566L79.479 143.759L69.2732 149.892C64.4221 152.806 64.5066 157.274 69.4621 159.865L116.569 184.496C118.857 185.691 121.782 186.279 124.746 186.279C128.207 186.279 131.718 185.478 134.332 183.909L180.448 156.195C185.299 153.28 185.214 148.812 180.259 146.222Z" fill="url(#paint1_linear_242_94507)"/>
<path fill-rule="evenodd" clip-rule="evenodd" d="M180.561 116.735L172.384 112.396L153.341 124.007L150.072 126L146.804 127.993L137.89 133.429C134.336 135.598 129.721 136.791 124.902 136.791C120.721 136.791 116.836 135.902 113.665 134.221L103.452 128.802L100.071 127.01L96.691 125.217L77.8727 115.231L69.2815 120.468C64.4173 123.434 64.5009 127.978 69.4695 130.614L79.2904 135.824L82.6708 137.617L86.0496 139.41L116.702 155.672C118.994 156.888 121.928 157.485 124.9 157.485C128.369 157.485 131.892 156.672 134.511 155.075L163.981 137.107L167.25 135.114L170.518 133.121L180.751 126.881C185.615 123.917 185.529 119.372 180.561 116.735Z" fill="url(#paint2_linear_242_94507)"/>
<path fill-rule="evenodd" clip-rule="evenodd" d="M69.4714 103.791L77.6486 108.055L81.0291 109.817L84.4095 111.579L103.228 121.39L106.608 123.15L109.989 124.914L116.704 128.415C118.996 129.61 121.93 130.197 124.902 130.197C128.371 130.197 131.893 129.396 134.512 127.827L140.045 124.512L143.314 122.554L146.581 120.595L165.624 109.186L168.893 107.228L172.161 105.27L180.752 100.123C185.616 97.2101 185.531 92.744 180.562 90.1537L133.33 65.5332C131.037 64.3367 128.105 63.75 125.131 63.75C121.662 63.75 118.14 64.5508 115.521 66.1199L69.2825 93.8237C64.4196 96.7366 64.5028 101.201 69.4714 103.791Z" fill="url(#paint3_linear_242_94507)"/>
</g>
<defs>
<linearGradient id="paint0_linear_242_94507" x1="125.016" y1="238.668" x2="125.016" y2="11.3652" gradientUnits="userSpaceOnUse">
<stop stop-color="#0A2337"/>
<stop offset="0.999" stop-color="#0A2337"/>
</linearGradient>
<linearGradient id="paint1_linear_242_94507" x1="124.861" y1="186.279" x2="124.861" y2="104.593" gradientUnits="userSpaceOnUse">
<stop stop-color="#BFF3BC"/>
<stop offset="1" stop-color="#F4F797"/>
</linearGradient>
<linearGradient id="paint2_linear_242_94507" x1="125.016" y1="157.486" x2="125.016" y2="75.9631" gradientUnits="userSpaceOnUse">
<stop stop-color="#BFF3BC"/>
<stop offset="1" stop-color="#F4F797"/>
</linearGradient>
<linearGradient id="paint3_linear_242_94507" x1="125.017" y1="130.197" x2="125.017" y2="10.0584" gradientUnits="userSpaceOnUse">
<stop stop-color="#BFF3BC"/>
<stop offset="1" stop-color="#F4F797"/>
</linearGradient>
<clipPath id="clip0_242_94507">
<rect width="227.302" height="227.302" fill="white" transform="translate(11.3652 11.3633)"/>
</clipPath>
</defs>
</svg>
