<svg width="250" height="250" viewBox="0 0 250 250" fill="none" xmlns="http://www.w3.org/2000/svg">
<g clip-path="url(#clip0_242_93479)">
<path fill-rule="evenodd" clip-rule="evenodd" d="M49.5489 4.25H200.449C225.449 4.25 245.699 24.5 245.699 49.5V200.4C245.699 225.4 225.449 245.65 200.449 245.65H49.5489C24.5489 245.65 4.29892 225.4 4.29892 200.4V49.55C4.24892 24.55 24.5489 4.25 49.5489 4.25Z" fill="#181818"/>
<path d="M200.45 249.5H49.55C22.5 249.5 0.5 227.5 0.5 200.45V49.55C0.5 22.5 22.5 0.5 49.55 0.5H200.45C227.5 0.5 249.5 22.5 249.5 49.55V200.45C249.5 227.5 227.5 249.5 200.45 249.5ZM49.55 8.05C26.65 8.05 8.05 26.65 8.05 49.55V200.45C8.05 223.35 26.65 241.95 49.55 241.95H200.45C223.35 241.95 241.95 223.35 241.95 200.45V49.55C241.95 26.65 223.35 8.05 200.45 8.05H49.55Z" fill="white"/>
<path d="M66.5508 116.199H49.5508V105.999H66.5508C66.5508 105.699 66.5508 105.499 66.5508 105.249C66.6008 102.299 66.5008 99.2985 66.7008 96.3485C67.0508 90.6485 68.5008 85.2985 71.9508 80.5985C75.5508 75.6985 80.5008 72.8985 86.3008 71.4985C91.0508 70.3485 95.8508 70.2485 100.701 70.6485C105.701 71.0985 110.651 72.1985 115.301 73.9985C115.551 74.0985 115.851 74.1985 116.151 74.3485L113.251 83.5485C112.551 83.2985 111.951 82.9985 111.301 82.7985C105.101 80.4985 98.7008 79.8985 92.2008 80.8985C84.8008 82.0485 80.3008 86.6985 79.1008 94.1485C78.6508 96.8485 78.7008 99.5485 78.7008 102.249C78.7008 103.499 78.7008 104.699 78.7008 105.999H108.851V116.149H78.7508V179.099H66.5508V116.199Z" fill="white"/>
<path d="M164.049 147.85C164.049 147.8 163.999 147.75 163.999 147.7C163.999 147.65 164.049 147.6 164.049 147.55C166.999 142.2 170.099 136.6 173.049 131.25C174.199 129.2 175.399 127.1 176.599 124.9H165.099C165.099 124.9 159.999 136.25 157.699 141.35H157.449C154.899 136.25 149.399 124.9 149.399 124.9L137.299 124.85C137.449 125.15 146.099 140.6 150.049 147.6C150.099 147.65 150.099 147.7 150.099 147.75L150.049 147.9C146.049 154.8 137.299 170.55 137.149 170.85L149.399 170.8C149.399 170.8 154.899 159.6 157.449 154.6H157.699C159.999 159.6 165.099 170.8 165.099 170.8H176.749C175.549 168.6 166.999 153.15 164.049 147.85ZM132.899 174.4C130.899 176 128.799 177.7 126.849 179.3C109.899 163.85 107.999 134.2 126.799 116.25C128.749 117.85 130.849 119.55 132.849 121.15C132.299 121.75 131.799 122.35 131.349 122.9C127.249 127.7 124.399 133.05 123.199 139.25C122.449 143.2 122.299 147.15 122.599 151.15C122.899 155.65 123.949 159.95 125.899 164.05C127.599 167.55 129.749 170.8 132.399 173.7C132.499 173.95 132.699 174.1 132.899 174.4ZM180.899 174.4C182.899 176 184.999 177.7 186.949 179.3C203.899 163.85 205.799 134.2 186.999 116.25C185.049 117.85 182.949 119.55 180.949 121.15C181.499 121.75 181.999 122.35 182.449 122.9C186.549 127.7 189.399 133.05 190.599 139.25C191.349 143.2 191.499 147.15 191.199 151.15C190.899 155.65 189.849 159.95 187.899 164.05C186.199 167.55 184.049 170.8 181.399 173.7C181.299 173.95 181.099 174.1 180.899 174.4Z" fill="#F7D509"/>
</g>
<defs>
<clipPath id="clip0_242_93479">
<rect width="250" height="250" rx="125" fill="white"/>
</clipPath>
</defs>
</svg>
