<svg width="250" height="250" viewBox="0 0 250 250" fill="none" xmlns="http://www.w3.org/2000/svg">
<g clip-path="url(#clip0_242_93480)">
<path d="M124.998 250C194.034 250 249.998 194.036 249.998 125C249.998 55.9644 194.034 0 124.998 0C55.9625 0 -0.00195312 55.9644 -0.00195312 125C-0.00195312 194.036 55.9625 250 124.998 250Z" fill="url(#paint0_linear_242_93480)"/>
<path fill-rule="evenodd" clip-rule="evenodd" d="M109.373 83.4821V110.714C109.373 112.5 110.936 113.839 112.498 113.839H155.355C156.918 113.839 158.48 115.179 158.48 116.964V128.571C158.48 130.134 157.141 131.696 155.355 131.696H112.498C110.936 131.696 109.373 133.259 109.373 134.821V198.214C109.373 200.67 108.034 202.009 106.248 200.893L93.7483 191.964C92.1858 191.071 91.5162 190.179 91.5162 188.393V134.821C91.5162 133.259 89.7305 131.696 88.3912 131.696H67.8555C66.0698 131.696 64.7305 130.134 64.7305 128.571V116.964C64.7305 115.179 66.0698 113.839 67.8555 113.839H88.3912C89.7305 113.839 91.5162 112.5 91.5162 110.714V65.625C91.5162 63.8393 92.8555 62.5 94.418 62.5H173.213C174.775 62.5 176.338 64.0625 176.338 65.625V77.2321C176.338 78.7946 174.998 80.3571 173.213 80.3571H112.498C110.936 80.3571 109.373 81.9196 109.373 83.4821Z" fill="white"/>
</g>
<defs>
<linearGradient id="paint0_linear_242_93480" x1="36.6097" y1="36.6116" x2="213.386" y2="213.388" gradientUnits="userSpaceOnUse">
<stop stop-color="#9A00FF"/>
<stop offset="1" stop-color="#6502FF"/>
</linearGradient>
<clipPath id="clip0_242_93480">
<rect width="250" height="250" rx="125" fill="white"/>
</clipPath>
</defs>
</svg>
