<svg width="250" height="250" viewBox="0 0 250 250" fill="none" xmlns="http://www.w3.org/2000/svg">
<rect width="250" height="250" rx="125" fill="black"/>
<path d="M191.127 168.64L189.557 167.107C203.027 146.409 206.276 119.616 195.945 95.1582C194.12 90.8142 191.93 86.7258 189.411 82.9294L201.348 70.2991C208.283 62.9984 213.905 56.9022 213.832 56.7562C213.686 56.2817 191.565 35.1825 191.309 35.1825C191.127 35.1825 185.541 40.9136 178.934 47.9223C172.984 54.201 167.947 59.494 166.888 60.5526C146.263 47.1557 119.506 43.9069 95.1217 54.201C91.3253 55.8071 87.7114 57.7053 84.2801 59.8226L82.6009 58.1799C78.987 54.6755 75.3731 51.2077 71.7593 47.7033C66.9043 43.0673 61.9763 38.3218 60.7716 37.1172L58.6179 35L47.9223 46.4257C42.0452 52.6678 37.1902 57.8879 37.1172 57.9974C37.0807 58.1069 42.3738 63.3999 48.9079 69.6786L61.4652 81.8343C52.9598 94.3186 48.1413 109.322 48.1413 125.055C48.1413 140.204 52.5218 154.331 60.0781 166.267C57.9974 168.531 53.3614 173.459 48.0683 179.08C40.9136 186.673 35.073 192.879 35 193.025C42.1912 200.252 49.492 207.371 56.9022 214.379L57.6688 215L69.0215 203.027L81.9803 189.265L82.2358 188.973C94.4646 197.186 109.212 202.005 125.055 202.005C135.349 202.041 145.533 199.96 155.024 195.945C159.332 194.12 163.384 191.966 167.18 189.484L168.239 190.542C176.562 198.646 184.884 206.677 193.28 214.671C193.499 214.744 215.036 191.966 215 191.711C214.963 191.601 200.179 177.255 191.127 168.64ZM78.2569 125.091C78.2569 99.2831 99.2466 78.2934 125.055 78.2934C150.863 78.2934 171.853 99.2831 171.853 125.091C171.853 150.899 150.863 171.889 125.055 171.889C99.2466 171.889 78.2569 150.899 78.2569 125.091Z" fill="white"/>
</svg>
