<svg width="250" height="250" viewBox="0 0 250 250" fill="none" xmlns="http://www.w3.org/2000/svg">
<g clip-path="url(#clip0_242_94500)">
<rect width="250" height="250" rx="125" fill="white"/>
<g clip-path="url(#clip1_242_94500)">
<path d="M125.016 250.033C194.061 250.033 250.033 194.061 250.033 125.016C250.033 55.9717 194.061 0 125.016 0C55.9717 0 0 55.9717 0 125.016C0 194.061 55.9717 250.033 125.016 250.033Z" fill="black"/>
<path d="M122.535 93.1406H56.2739C54.8751 93.1554 53.4994 93.4993 52.2581 94.1445C50.9488 94.7689 49.7594 95.6185 48.7442 96.6546C47.7231 97.6825 46.8755 98.8691 46.2343 100.168C45.5891 101.41 45.2452 102.785 45.2305 104.184V145.849C45.2347 147.289 45.5787 148.708 46.2343 149.99C46.9171 151.264 47.7606 152.445 48.7442 153.504C49.8033 154.487 50.9843 155.331 52.2581 156.014C53.521 156.583 54.8888 156.882 56.2739 156.892H112.747C114.092 156.89 115.421 156.59 116.637 156.014C117.936 155.372 119.123 154.525 120.151 153.504C121.187 152.488 122.037 151.299 122.661 149.99C123.316 148.707 123.66 147.289 123.665 145.849V127.401C123.65 126.002 123.306 124.626 122.661 123.385C122.06 122.025 121.209 120.79 120.151 119.745C119.168 118.673 117.971 117.818 116.637 117.236C115.444 116.582 114.107 116.237 112.747 116.232H75.3492C74.5962 116.232 74.2198 116.65 74.2198 117.487V132.546C74.2198 133.299 74.5962 133.675 75.3492 133.675H103.711V137.943H65.3096V111.965H122.535C123.288 111.965 123.665 111.588 123.665 110.835V94.27C123.665 93.5173 123.288 93.1408 122.535 93.1406Z" fill="#94EE66"/>
<path d="M202.416 113.596C204.005 113.596 204.8 112.801 204.8 111.212V95.1482C204.8 93.5585 204.005 92.7637 202.416 92.7637H144.939C143.445 92.7822 141.98 93.1703 140.672 93.8933C139.276 94.6042 138.005 95.5366 136.907 96.6542C135.804 97.7637 134.873 99.0328 134.146 100.419C133.489 101.79 133.146 103.291 133.143 104.811V154.884C133.143 156.473 133.937 157.268 135.527 157.268H152.594C154.184 157.268 154.978 156.473 154.978 154.884V134.679H202.29C203.88 134.679 204.675 133.884 204.674 132.295V117.737C204.674 116.148 203.88 115.353 202.29 115.353H154.979V113.596H202.416ZM202.291 117.737V132.295H152.594V154.884H135.527V104.811C135.535 103.601 135.791 102.405 136.28 101.297C136.858 100.136 137.621 99.0767 138.539 98.1601C139.408 97.2758 140.428 96.5533 141.55 96.0266C142.588 95.4539 143.754 95.1518 144.939 95.1482H202.416V111.212H152.594V117.737L202.291 117.737Z" fill="#94EE66"/>
</g>
</g>
<defs>
<clipPath id="clip0_242_94500">
<rect width="250" height="250" rx="125" fill="white"/>
</clipPath>
<clipPath id="clip1_242_94500">
<rect width="250.033" height="250.033" fill="white"/>
</clipPath>
</defs>
</svg>
