<svg width="250" height="250" viewBox="0 0 250 250" fill="none" xmlns="http://www.w3.org/2000/svg">
<rect width="250" height="250" rx="125" fill="white"/>
<path d="M214.028 66.816L125.203 18.791L36.8027 66.816L125.203 118.326L159.033 98.9035L144.753 90.446L125.203 102.006L65.1927 67.1985L125.203 35.111L199.153 75.061L214.028 66.816Z" fill="black"/>
<path d="M30.7676 73.9551V175.87L120.57 231.205V126.188L86.4851 106.043V122.873L106.248 134.05V205.705L44.8776 167.625V82.5826L30.7676 73.9551Z" fill="black"/>
<path d="M129.707 165.585V126.358L219.68 73.9551V176.04L129.707 231.205V214.333L205.57 167.625V98.9026L143.987 134.05V157.51L129.707 165.585Z" fill="black"/>
</svg>
