<svg width="250" height="250" viewBox="0 0 250 250" fill="none" xmlns="http://www.w3.org/2000/svg">
<rect width="250" height="250" rx="125" fill="white"/>
<g clip-path="url(#clip0_242_94673)">
<path d="M229.116 122.842C235.765 120.44 238.666 115.59 238.666 110.74C238.666 104.94 235.015 100.491 223.065 100.391H195.714C195.557 100.403 195.406 100.462 195.282 100.56C195.157 100.657 195.064 100.79 195.015 100.94L179.714 148.441C179.672 148.553 179.658 148.674 179.673 148.793C179.688 148.913 179.732 149.027 179.801 149.125C179.87 149.224 179.962 149.304 180.068 149.359C180.175 149.414 180.294 149.442 180.414 149.441H208.765C223.265 149.441 234.413 144.992 234.413 133.541C234.413 127.989 231.714 125.741 228.965 124.191C228.813 124.092 228.699 123.944 228.644 123.77C228.589 123.597 228.596 123.41 228.663 123.241C228.704 123.145 228.766 123.06 228.844 122.991C228.923 122.922 229.015 122.871 229.116 122.842ZM212.414 137.039H200.615C200.497 137.036 200.38 137.005 200.276 136.949C200.171 136.893 200.081 136.813 200.013 136.716C199.945 136.618 199.901 136.507 199.884 136.389C199.867 136.272 199.878 136.152 199.915 136.039L202.065 129.491C202.11 129.342 202.203 129.212 202.33 129.121C202.456 129.031 202.609 128.984 202.765 128.989H214.765C218.416 128.989 219.065 130.99 219.065 132.191C219.065 135.239 216.216 137.039 212.414 137.039ZM216.415 120.189H206.114C205.996 120.186 205.88 120.155 205.775 120.099C205.671 120.043 205.581 119.963 205.513 119.866C205.445 119.769 205.4 119.657 205.383 119.54C205.366 119.423 205.377 119.303 205.415 119.191L207.315 113.44C207.36 113.291 207.453 113.161 207.58 113.07C207.706 112.979 207.86 112.933 208.015 112.939H218.614C222.014 112.939 222.766 114.489 222.766 115.84C222.766 118.04 220.515 120.19 216.414 120.19L216.415 120.189ZM67.5638 123.342L59.3152 148.94C59.2659 149.091 59.1731 149.223 59.0486 149.321C58.9241 149.419 58.7734 149.478 58.6154 149.491H51.8645C51.7493 149.487 51.6363 149.458 51.5335 149.406C51.4306 149.354 51.3403 149.28 51.2689 149.19C51.1975 149.1 51.1467 148.995 51.12 148.882C51.0933 148.77 51.0914 148.654 51.1144 148.541L51.764 146.191C51.8044 146.037 51.7959 145.875 51.7396 145.727C51.6833 145.578 51.582 145.451 51.45 145.363C51.318 145.275 51.1617 145.23 51.0031 145.235C50.8444 145.24 50.6913 145.295 50.565 145.391C46.3644 148.89 40.3637 151.139 33.3641 151.139C19.6144 151.139 11.3633 143.891 11.3633 131.091C11.3633 113.991 26.0138 98.8906 46.5133 98.8906C60.3138 98.8906 69.214 107.139 68.4642 117.241C68.4492 117.43 68.3639 117.607 68.225 117.736C68.0862 117.866 67.9039 117.938 67.7141 117.94H52.6641C52.5186 117.932 52.3777 117.887 52.255 117.808C52.1324 117.729 52.0322 117.62 51.9643 117.491C50.665 114.59 47.5132 112.791 43.465 112.791C33.9133 112.791 27.4629 120.641 27.4629 128.44C27.4629 134.291 31.6634 137.192 36.9641 137.192C39.4624 137.192 45.2629 136.691 48.6132 131.742C48.6936 131.625 48.7402 131.489 48.7478 131.348C48.7555 131.207 48.7237 131.066 48.6562 130.942C48.5887 130.818 48.488 130.714 48.3654 130.644C48.2428 130.574 48.1031 130.538 47.9617 130.543H39.2631C39.1145 130.538 38.9703 130.491 38.8477 130.407C38.7251 130.323 38.6292 130.205 38.5714 130.068C38.5135 129.931 38.4962 129.781 38.5214 129.634C38.5467 129.488 38.6134 129.351 38.7137 129.242L44.9645 122.591C45.1083 122.44 45.3053 122.35 45.5139 122.341H66.8635C66.9837 122.34 67.1025 122.368 67.2094 122.423C67.3163 122.478 67.4082 122.558 67.4771 122.657C67.5461 122.755 67.59 122.869 67.6051 122.988C67.6202 123.108 67.606 123.229 67.5638 123.342ZM192.665 101.541L177.465 148.94C177.415 149.091 177.323 149.223 177.198 149.321C177.074 149.419 176.923 149.478 176.765 149.491H162.864C162.744 149.492 162.625 149.464 162.518 149.409C162.411 149.354 162.319 149.274 162.25 149.176C162.182 149.077 162.138 148.963 162.123 148.844C162.108 148.725 162.122 148.604 162.164 148.491L168.514 128.84C168.552 128.728 168.562 128.608 168.545 128.491C168.528 128.373 168.484 128.262 168.416 128.165C168.348 128.067 168.258 127.988 168.154 127.932C168.049 127.875 167.933 127.845 167.815 127.841H167.764C167.631 127.847 167.501 127.886 167.387 127.956C167.274 128.026 167.18 128.124 167.115 128.24L154.965 149.141C154.899 149.258 154.805 149.356 154.691 149.426C154.577 149.496 154.447 149.535 154.314 149.541H143.566C143.463 149.541 143.361 149.521 143.266 149.48C143.172 149.439 143.086 149.38 143.016 149.304C142.945 149.229 142.891 149.141 142.856 149.044C142.822 148.947 142.807 148.844 142.814 148.741L143.416 128.641C143.421 128.435 143.345 128.236 143.204 128.086C143.063 127.936 142.869 127.848 142.664 127.841H142.463C142.301 127.836 142.142 127.888 142.014 127.989C141.886 128.089 141.797 128.231 141.764 128.39L135.113 148.99C135.064 149.141 134.972 149.274 134.847 149.372C134.722 149.47 134.571 149.529 134.413 149.541H120.613C120.013 149.491 119.614 148.99 119.815 148.49L135.063 100.992C135.112 100.841 135.205 100.708 135.33 100.61C135.455 100.511 135.606 100.452 135.764 100.44H154.014C154.118 100.435 154.222 100.453 154.318 100.493C154.415 100.532 154.502 100.592 154.573 100.668C154.644 100.744 154.698 100.834 154.731 100.933C154.764 101.032 154.775 101.137 154.764 101.24L153.715 127.239C153.71 127.444 153.785 127.643 153.925 127.793C154.065 127.943 154.258 128.031 154.463 128.039H154.664C154.791 128.034 154.916 128 155.029 127.939C155.141 127.879 155.238 127.794 155.313 127.69L171.514 100.89C171.582 100.779 171.678 100.688 171.792 100.627C171.907 100.566 172.036 100.536 172.165 100.541H191.964C192.084 100.539 192.203 100.567 192.31 100.622C192.417 100.677 192.51 100.757 192.579 100.855C192.648 100.954 192.692 101.068 192.707 101.188C192.722 101.307 192.707 101.429 192.665 101.541ZM115.416 100.44H93.8154C93.6878 100.446 93.5632 100.48 93.4507 100.541C93.3382 100.601 93.2408 100.686 93.1658 100.79L60.9132 148.291C60.8434 148.409 60.8055 148.544 60.8031 148.681C60.8007 148.819 60.8339 148.955 60.8995 149.075C60.965 149.196 61.0608 149.298 61.1774 149.371C61.294 149.444 61.4275 149.485 61.5648 149.492H76.9132C77.0408 149.485 77.1655 149.451 77.2779 149.39C77.3904 149.329 77.4877 149.244 77.5629 149.141L81.3643 143.34C81.4395 143.237 81.537 143.152 81.6494 143.092C81.7619 143.031 81.8866 142.997 82.0141 142.991H101.515C101.712 142.996 101.9 143.077 102.04 143.216C102.179 143.356 102.26 143.544 102.265 143.741L102.365 148.742C102.359 148.934 102.429 149.121 102.56 149.262C102.691 149.402 102.873 149.485 103.065 149.492H117.565C117.77 149.484 117.964 149.396 118.104 149.246C118.244 149.096 118.32 148.897 118.315 148.692L116.166 101.193C116.168 101.094 116.15 100.995 116.113 100.903C116.076 100.811 116.021 100.727 115.951 100.657C115.881 100.587 115.797 100.531 115.705 100.494C115.613 100.457 115.515 100.439 115.416 100.44ZM101.364 131.041H90.8641C90.7258 131.038 90.5908 130.998 90.4727 130.926C90.3546 130.854 90.2578 130.751 90.1918 130.63C90.1259 130.508 90.0933 130.371 90.0973 130.233C90.1012 130.094 90.1417 129.96 90.2145 129.842L99.3634 115.991C99.4391 115.888 99.5368 115.803 99.6495 115.742C99.7622 115.681 99.887 115.647 100.015 115.64H101.166C101.363 115.646 101.551 115.727 101.69 115.867C101.829 116.006 101.909 116.195 101.914 116.392L102.114 130.291C102.11 130.488 102.029 130.677 101.89 130.816C101.75 130.956 101.562 131.037 101.364 131.041Z" fill="#1E35CA"/>
</g>
<defs>
<clipPath id="clip0_242_94673">
<rect width="227.302" height="227.302" fill="white" transform="translate(11.3652 11.3633)"/>
</clipPath>
</defs>
</svg>
