<svg width="250" height="250" viewBox="0 0 250 250" fill="none" xmlns="http://www.w3.org/2000/svg">
<path d="M116.273 104.547C129.219 99.0837 137.605 86.3666 137.529 72.3152C137.649 53.0953 122.17 37.4355 103.261 37.4355C84.2415 37.4355 68.7874 53.0953 68.7874 72.3152C68.7749 82.3467 73.0699 91.9008 80.5811 98.5502L62.4844 110.645C62.4844 110.645 98.7831 113.804 116.273 104.547Z" fill="url(#paint0_linear_242_94118)"/>
<path d="M189.797 142.682C172.513 136.479 148.409 148.479 148.409 148.479C148.409 148.479 167.017 123.562 166.611 86.7522C166.41 59.8052 156.853 51.0602 149.527 44.5566C150.14 48.2523 150.447 51.9924 150.445 55.7386C150.445 94.7852 126.246 121.02 87.2993 121.02C71.1281 121.02 56.2857 120.92 44.3867 111.869C44.5923 112.481 46.3172 119.892 53.232 127.629C56.8347 131.622 61.1014 134.96 65.843 137.497C83.333 146.949 96.7563 148.072 98.0751 148.173C98.1804 148.273 98.1804 148.479 98.2807 148.579C98.2807 167.999 84.6518 195.759 65.3316 195.759C62.4621 195.735 59.6038 195.399 56.8072 194.756C52.3819 193.899 48.2057 192.058 44.5873 189.37C44.5873 189.37 47.2298 209.603 68.992 211.639C92.8853 213.875 103.867 208.691 127.559 194.249C152.882 178.795 172.097 162.423 186.844 166.49C198.031 169.539 199.881 187.335 199.881 187.335C199.881 187.335 203.236 180.315 204.253 174.117C205.246 167.593 207.077 148.885 189.797 142.682Z" fill="url(#paint1_linear_242_94118)"/>
<path d="M102.445 48.7237C109.406 48.7313 116.017 51.7768 120.547 57.0625L123.289 54.7208C114.105 44.0611 98.359 42.0453 86.7852 50.0475L88.821 52.9809C92.8265 50.2152 97.5773 48.7307 102.445 48.7237Z" fill="white"/>
<defs>
<linearGradient id="paint0_linear_242_94118" x1="62.4844" y1="74.3009" x2="137.529" y2="74.3009" gradientUnits="userSpaceOnUse">
<stop stop-color="#FF3F3F"/>
<stop offset="1" stop-color="#EB0000"/>
</linearGradient>
<linearGradient id="paint1_linear_242_94118" x1="44.3817" y1="128.336" x2="204.84" y2="128.336" gradientUnits="userSpaceOnUse">
<stop stop-color="#2482C5"/>
<stop offset="1" stop-color="#285FAC"/>
</linearGradient>
</defs>
</svg>
