<svg width="250" height="250" viewBox="0 0 250 250" fill="none" xmlns="http://www.w3.org/2000/svg">
<rect width="250" height="250" rx="125" fill="white"/>
<path d="M124.994 18.75C66.2954 18.75 18.7441 66.3012 18.7441 125C18.7441 183.699 66.2954 231.25 124.994 231.25C183.693 231.25 231.244 183.699 231.244 125C231.244 66.3012 183.693 18.75 124.994 18.75ZM157.043 167.848H92.5966V156.178C92.7708 156.004 93.4675 155.307 94.6868 154.262C95.906 153.217 96.6028 152.52 96.9511 151.998C97.2995 151.475 98.1704 150.779 99.0413 149.385C100.086 148.166 100.609 146.947 101.131 145.902C101.654 144.682 102.002 143.289 102.699 141.721C103.396 140.154 103.744 138.238 103.918 135.973C104.092 133.883 104.267 131.445 104.267 128.832V127.264H92.7708V115.246H104.092V112.111C104.092 107.756 104.267 103.924 104.789 100.441C105.312 96.957 106.183 93.6475 107.402 90.5123C108.795 87.2029 110.363 84.5902 112.802 82.3258C114.892 80.2356 118.027 78.3197 121.511 77.1004C125.168 75.8811 129.523 75.0102 134.226 75.0102C142.761 75.0102 149.728 76.5779 155.302 79.5389L151.47 91.5574C145.722 88.9447 140.148 87.5512 135.097 87.5512C129.697 87.5512 125.691 89.1188 123.252 92.4283C120.64 95.5635 119.42 100.963 119.42 108.453V115.246H140.496V127.264H119.595V129.18C119.595 135.625 119.246 141.025 118.549 145.031C117.853 149.211 116.633 152.52 114.892 154.959H157.043V167.848Z" fill="#0B223D"/>
</svg>
