<svg width="250" height="250" viewBox="0 0 250 250" fill="none" xmlns="http://www.w3.org/2000/svg">
<g clip-path="url(#clip0_242_94127)">
<path d="M125 250C194.036 250 250 194.036 250 125C250 55.9644 194.036 0 125 0C55.9644 0 0 55.9644 0 125C0 194.036 55.9644 250 125 250Z" fill="#1666AE"/>
<path d="M75.2988 215.77C77.1187 216.52 79.1987 215.65 79.9387 213.83C80.6887 212.01 79.8187 209.93 77.9987 209.19C76.1787 208.44 74.0988 209.31 73.3588 211.13C72.9088 212.23 73.0388 213.48 73.6988 214.46L64.8488 223.31H47.889C48.799 224.02 49.709 224.72 50.6389 225.41H65.6488L75.2988 215.77ZM21.3892 169.88C23.1992 169.12 24.0591 167.04 23.2992 165.23C22.5392 163.42 20.4592 162.56 18.6492 163.32C16.8392 164.08 15.9792 166.16 16.7392 167.97C17.1992 169.06 18.1692 169.86 19.3392 170.09L19.1792 179.05L14.6992 183.6C15.0392 184.25 15.3892 184.89 15.7492 185.54L21.2292 179.97L21.3892 169.88ZM69.2588 31.9295C68.1588 33.5595 68.5988 35.7695 70.2288 36.8695C71.8588 37.9695 74.0688 37.5295 75.1688 35.8995C76.2687 34.2695 75.8288 32.0595 74.1988 30.9595C73.2088 30.2995 71.9588 30.1695 70.8588 30.6195L63.6188 23.5995L52.0889 23.5195C51.1489 24.1995 50.2089 24.8995 49.289 25.5995L62.8189 25.6995L69.2588 31.9295ZM71.7288 48.6295C71.2688 48.6295 70.8088 48.7195 70.3788 48.8895L63.1389 41.8695L34.3691 41.7495V43.8495L62.3289 43.9695L68.7788 50.1895C67.6788 51.8195 68.1188 54.0295 69.7488 55.1295C71.3788 56.2295 73.5888 55.7895 74.6888 54.1595C75.7888 52.5295 75.3488 50.3195 73.7188 49.2195C73.1288 48.8395 72.4388 48.6295 71.7288 48.6295ZM69.9488 183.58C67.9888 183.58 66.3888 185.18 66.3988 187.14C66.3988 187.84 66.6088 188.53 66.9988 189.11L60.5489 195.34L32.5791 195.46V197.56L61.3489 197.44L68.5888 190.43C70.4088 191.17 72.4888 190.3 73.2288 188.49C73.9688 186.67 73.0988 184.59 71.2888 183.85C70.8688 183.67 70.4188 183.58 69.9488 183.58ZM178.508 84.4895L179.998 82.9995L178.488 81.4895L178.498 84.4695L178.508 84.4895ZM167.818 70.8295L148.028 70.6695C147.268 68.8595 145.188 67.9995 143.378 68.7595C141.568 69.5195 140.708 71.5995 141.468 73.4095C142.228 75.2195 144.308 76.0795 146.118 75.3195C147.208 74.8595 148.008 73.8895 148.238 72.7295L166.898 72.8895L176.098 82.0895V79.1195L167.818 70.8295ZM121.228 78.7895C121.698 78.7895 122.158 78.6995 122.588 78.5195L128.838 84.6995H152.618V82.5895H129.648L124.198 77.1995C125.298 75.5595 124.858 73.3395 123.218 72.2395C121.578 71.1395 119.358 71.5795 118.258 73.2195C117.158 74.8595 117.598 77.0795 119.238 78.1795C119.818 78.5795 120.518 78.7895 121.228 78.7895Z" fill="#7290C9"/>
<path d="M167.527 26.8182L167.687 48.868L176.097 57.398V105.748H178.517L178.487 84.4678V81.4978L178.447 56.658L169.747 47.9581L169.587 27.0282C171.517 26.6482 172.767 24.7782 172.387 22.8582C172.007 20.9283 170.137 19.6783 168.217 20.0583C166.287 20.4383 165.037 22.3082 165.417 24.2282C165.637 25.3882 166.437 26.3582 167.527 26.8182ZM203.387 73.3379C204.487 71.7079 204.047 69.4979 202.417 68.3979C200.787 67.2979 198.577 67.7379 197.477 69.3679C196.377 70.9979 196.817 73.2079 198.447 74.3078C199.437 74.9678 200.687 75.0978 201.787 74.6479L212.587 83.6078L242.868 83.7278C242.618 83.0278 242.368 82.3178 242.108 81.6278L213.397 81.5178L203.387 73.3379Z" fill="#7290C9"/>
<path d="M241.138 89.8585L208.388 89.7385L196.928 80.2785C198.028 78.6485 197.588 76.4385 195.958 75.3385C194.328 74.2385 192.118 74.6785 191.018 76.3085C189.918 77.9385 190.358 80.1485 191.988 81.2485C192.978 81.9085 194.228 82.0385 195.328 81.5885L207.588 91.8385L241.068 91.9585C240.888 91.2685 240.908 90.5385 241.138 89.8585ZM204.438 55.0185C205.528 53.3885 205.098 51.1785 203.468 50.0885C201.838 48.9985 199.628 49.4285 198.538 51.0585C197.448 52.6885 197.878 54.8985 199.508 55.9885C200.488 56.6485 201.738 56.7785 202.838 56.3285L212.638 65.1685L234.718 65.3185C234.338 64.6085 233.938 63.9085 233.538 63.2085L213.448 63.0585L204.438 55.0185ZM22.1286 70.9385C20.1986 71.3185 18.9386 73.1785 19.3186 75.1085C19.6986 77.0385 21.5586 78.2985 23.4886 77.9185C25.4186 77.5385 26.6786 75.6785 26.2986 73.7485C26.0686 72.5785 25.2786 71.6085 24.1786 71.1485L23.4886 57.9685L21.1486 55.5985C20.7486 56.1985 20.3586 56.7985 19.9686 57.3985L21.4486 58.8785L22.1286 70.9385ZM149.579 205.208C147.609 205.208 146.019 206.798 146.019 208.768C146.019 209.478 146.229 210.168 146.619 210.748L142.939 215.068H112.219L104.679 223.419C102.859 222.669 100.779 223.539 100.039 225.359C99.2885 227.179 100.159 229.258 101.979 229.999C103.799 230.739 105.879 229.879 106.619 228.059C107.069 226.959 106.939 225.709 106.279 224.729L113.029 217.169H143.749L148.219 212.048C150.039 212.798 152.119 211.928 152.859 210.109C153.609 208.288 152.739 206.208 150.919 205.468C150.509 205.298 150.039 205.208 149.579 205.208ZM143.439 22.9585L150.189 30.5185C149.089 32.1485 149.529 34.3585 151.159 35.4585C152.789 36.5585 154.999 36.1185 156.099 34.4885C157.199 32.8585 156.759 30.6485 155.129 29.5485C154.139 28.8885 152.889 28.7585 151.789 29.2085L144.249 20.8585H113.519L109.839 16.5385C110.939 14.9085 110.499 12.6985 108.869 11.5985C107.239 10.4985 105.029 10.9385 103.929 12.5685C102.829 14.1985 103.269 16.4085 104.899 17.5085C105.889 18.1685 107.139 18.2985 108.239 17.8485L112.709 22.9685L143.439 22.9585ZM228.058 141.268C226.668 142.658 226.668 144.908 228.058 146.298C228.558 146.798 229.188 147.138 229.888 147.268L230.018 160.198L219.608 168.988L219.208 180.878C217.398 181.638 216.538 183.718 217.298 185.528C218.058 187.339 220.138 188.198 221.948 187.438C223.758 186.678 224.618 184.598 223.858 182.788C223.398 181.698 222.428 180.898 221.268 180.668L221.668 169.908L232.078 161.118L231.948 147.058C233.758 146.298 234.618 144.218 233.858 142.408C233.098 140.598 231.018 139.738 229.208 140.498C228.778 140.678 228.388 140.938 228.058 141.268ZM69.3186 208.979C71.1386 209.718 73.2086 208.848 73.9486 207.029C74.6886 205.208 73.8186 203.138 71.9986 202.398C70.1786 201.658 68.1086 202.528 67.3686 204.348C66.9186 205.448 67.0486 206.699 67.7086 207.678L58.8586 216.529H39.9686C40.7286 217.239 41.4986 217.939 42.2786 218.629H59.6586L69.3186 208.979Z" fill="#7290C9"/>
<path d="M122.439 206.091C122.819 208.021 124.689 209.271 126.609 208.891C128.539 208.511 129.789 206.641 129.409 204.721C129.029 202.791 127.159 201.541 125.239 201.921C124.079 202.151 123.099 202.941 122.649 204.041H103.839L95.0887 212.791V190.491L102.489 183.181L102.349 160.161C104.169 159.401 105.019 157.321 104.269 155.501C103.509 153.681 101.429 152.831 99.6087 153.581C97.7887 154.341 96.9387 156.421 97.6887 158.241C98.1487 159.341 99.1187 160.141 100.289 160.361L100.429 182.251L92.7187 189.641L92.6887 215.181L92.6787 215.191L92.6887 215.201L92.6587 237.381H95.0787V215.751L104.749 206.081L122.439 206.091ZM95.0987 24.321L95.1087 24.331L95.1387 49.871L102.849 57.251L102.709 79.141C100.779 79.521 99.5287 81.391 99.9087 83.321C100.289 85.251 102.159 86.501 104.089 86.121C106.019 85.741 107.269 83.871 106.889 81.941C106.659 80.781 105.869 79.801 104.769 79.351L104.909 56.331L97.5087 49.021V26.721L106.259 35.471H125.079C125.839 37.281 127.919 38.141 129.729 37.381C131.539 36.621 132.399 34.541 131.639 32.731C130.879 30.921 128.799 30.061 126.989 30.821C125.899 31.281 125.099 32.251 124.869 33.421H107.179L97.5087 23.761V3.04102C96.6987 3.22102 95.8887 3.41102 95.0887 3.61102L95.1187 24.301L95.0987 24.321ZM176.079 207.611C175.269 205.821 173.159 205.031 171.369 205.851C169.579 206.661 168.789 208.771 169.609 210.561C170.419 212.351 172.529 213.141 174.319 212.321C175.399 211.831 176.159 210.831 176.359 209.661L196.479 209.671L206.459 219.731C206.989 219.271 207.519 218.811 208.039 218.351L197.329 207.591L176.079 207.611ZM196.139 220.561C194.709 219.221 192.459 219.291 191.109 220.721C189.769 222.151 189.839 224.401 191.269 225.751C192.699 227.091 194.949 227.021 196.299 225.591C196.779 225.081 197.099 224.431 197.219 223.731H201.569C202.439 223.051 203.299 222.361 204.159 221.661L196.949 221.671C196.749 221.251 196.479 220.881 196.139 220.561ZM140.999 195.611C142.339 194.181 142.269 191.931 140.839 190.581C140.319 190.101 139.679 189.781 138.979 189.661L138.989 168.571L136.899 168.531L136.929 189.931C135.139 190.751 134.349 192.861 135.169 194.641C135.989 196.431 138.099 197.221 139.879 196.401C140.299 196.221 140.679 195.941 140.999 195.611ZM31.6183 185.971C32.9584 184.541 32.8884 182.291 31.4583 180.941C30.0283 179.601 27.7783 179.671 26.4283 181.101C25.0883 182.531 25.1583 184.781 26.5883 186.131C27.0983 186.611 27.7483 186.931 28.4483 187.051L28.0683 203.781C28.7283 204.601 29.4083 205.411 30.0983 206.211L30.4983 186.771C30.9183 186.581 31.2983 186.311 31.6183 185.971ZM217.809 47.371C216.379 46.021 214.129 46.101 212.779 47.531C211.429 48.961 211.509 51.211 212.939 52.561C214.369 53.911 216.619 53.831 217.969 52.401C218.449 51.881 218.769 51.241 218.889 50.541H225.289C224.769 49.851 224.249 49.161 223.719 48.471L218.609 48.481C218.419 48.061 218.149 47.691 217.809 47.371ZM202.929 34.591C201.499 33.251 199.249 33.321 197.909 34.751C196.569 36.181 196.639 38.431 198.069 39.771C199.499 41.111 201.749 41.041 203.089 39.611C203.569 39.101 203.889 38.451 203.999 37.761L214.409 37.771C213.729 37.071 213.039 36.381 212.339 35.691L203.719 35.711C203.539 35.291 203.269 34.911 202.929 34.591ZM75.4686 27.701C75.5286 29.661 77.1686 31.211 79.1386 31.151C81.0986 31.091 82.6486 29.451 82.5886 27.481C82.5286 25.521 80.8886 23.971 78.9186 24.031C78.2086 24.051 77.5286 24.281 76.9486 24.701L66.6985 14.441C66.0585 14.781 65.4285 15.121 64.7885 15.481L75.6886 26.351C75.5286 26.781 75.4486 27.241 75.4686 27.701ZM29.1583 53.691C27.8083 55.121 27.8883 57.371 29.3183 58.721C30.7483 60.071 32.9984 59.991 34.3484 58.561C35.6984 57.131 35.6184 54.881 34.1884 53.531C33.6684 53.051 33.0284 52.731 32.3284 52.611L32.3384 41.231C31.6383 42.011 30.9483 42.801 30.2583 43.591L30.2783 52.881C29.8583 53.081 29.4783 53.351 29.1583 53.691ZM193.769 178.961L172.529 178.991C171.719 177.201 169.609 176.411 167.819 177.231C166.029 178.041 165.239 180.151 166.059 181.941C166.869 183.731 168.979 184.521 170.769 183.701C171.849 183.211 172.609 182.211 172.809 181.041H192.929L203.229 191.421L181.599 191.431C180.789 189.641 178.679 188.851 176.889 189.671C175.099 190.481 174.309 192.591 175.129 194.381C175.949 196.171 178.049 196.961 179.839 196.141C180.919 195.651 181.679 194.651 181.879 193.481L229.469 193.491C229.919 192.801 230.369 192.101 230.809 191.411L206.199 191.421L193.769 178.961ZM61.6485 83.931C62.9885 85.361 65.2485 85.441 66.6785 84.091C68.1085 82.751 68.1885 80.491 66.8385 79.061C65.4985 77.631 63.2385 77.551 61.8085 78.901C61.4685 79.221 61.1985 79.601 60.9985 80.031L39.3684 80.021L49.6684 69.641L69.7886 69.631C70.1086 71.571 71.9386 72.881 73.8786 72.561C75.8186 72.241 77.1286 70.411 76.8086 68.471C76.4886 66.531 74.6586 65.221 72.7186 65.541C71.5486 65.731 70.5586 66.491 70.0585 67.571L48.8184 67.541L36.4184 80.001H8.49823C8.22822 80.691 7.96822 81.391 7.71822 82.081L60.7385 82.071C60.8385 82.771 61.1585 83.421 61.6485 83.931ZM42.9984 186.291C43.4784 185.781 43.7984 185.131 43.9184 184.431L52.7185 184.441C53.3085 186.311 55.2985 187.361 57.1785 186.771C59.0485 186.181 60.0985 184.191 59.5085 182.311C58.9185 180.441 56.9285 179.391 55.0485 179.981C53.9185 180.331 53.0485 181.221 52.7085 182.351L43.6484 182.381C42.8384 180.591 40.7284 179.801 38.9384 180.621C37.1484 181.431 36.3584 183.541 37.1784 185.331C37.9884 187.121 40.0984 187.911 41.8884 187.091C42.2984 186.901 42.6784 186.631 42.9984 186.291ZM58.8585 52.721C57.2885 52.721 55.8985 53.751 55.4485 55.261L46.3884 55.291C45.5784 53.501 43.4684 52.711 41.6784 53.531C39.8884 54.351 39.0984 56.451 39.9184 58.241C40.7284 60.031 42.8384 60.821 44.6284 60.001C45.7084 59.511 46.4684 58.511 46.6684 57.341L55.4685 57.351C56.0585 59.221 58.0585 60.271 59.9285 59.681C61.7985 59.091 62.8485 57.091 62.2585 55.221C61.7885 53.721 60.4185 52.721 58.8585 52.721ZM171.229 141.881C169.409 141.131 167.329 142.001 166.589 143.821C165.839 145.641 166.709 147.721 168.529 148.461C170.349 149.211 172.429 148.341 173.169 146.521C173.619 145.421 173.489 144.171 172.829 143.191L182.349 133.901L241.039 133.781V131.681L181.539 131.801L171.229 141.881ZM169.789 147.961C168.269 147.961 167.039 146.731 167.039 145.211C167.039 143.691 168.269 142.461 169.789 142.461C171.309 142.461 172.539 143.691 172.539 145.211C172.539 146.731 171.309 147.961 169.789 147.961ZM46.9884 172.801L68.5285 172.961C69.2886 174.771 71.3686 175.631 73.1786 174.871C74.9886 174.111 75.8486 172.031 75.0886 170.221C74.3286 168.411 72.2486 167.551 70.4386 168.311C69.3485 168.771 68.5485 169.741 68.3185 170.901L48.5384 170.741L36.8784 157.461H4.4082C4.6282 158.291 4.85821 159.111 5.09821 159.931H36.0584L46.9884 172.801ZM69.9585 169.671C71.0286 168.601 72.7686 168.601 73.8486 169.671C74.9186 170.741 74.9186 172.481 73.8486 173.561C72.7786 174.631 71.0386 174.631 69.9585 173.561C68.8885 172.481 68.8785 170.751 69.9585 169.671Z" fill="#7290C9"/>
<path d="M165.708 136.389L175.228 127.099L203.188 126.979V124.879L174.418 124.999L164.098 135.089C162.278 134.339 160.198 135.209 159.458 137.029C158.708 138.849 159.578 140.929 161.398 141.669C163.218 142.419 165.298 141.549 166.038 139.729C166.498 138.629 166.378 137.379 165.708 136.389ZM162.838 141.169C161.318 141.169 160.088 139.939 160.088 138.419C160.088 136.899 161.318 135.669 162.838 135.669C164.358 135.669 165.588 136.899 165.588 138.419C165.588 139.939 164.358 141.169 162.838 141.169ZM92.9387 139.469L98.4187 134.379L126.219 134.429L135.988 125.009L135.178 123.069L125.309 132.449H97.4487L91.3387 138.169C89.5187 137.419 87.4387 138.289 86.6887 140.109C85.9387 141.929 86.8087 144.009 88.6287 144.759C90.4487 145.509 92.5287 144.639 93.2787 142.819C93.7287 141.709 93.6087 140.449 92.9387 139.469ZM90.0687 144.239C88.5487 144.239 87.3187 143.009 87.3187 141.489C87.3187 139.969 88.5487 138.739 90.0687 138.739C91.5887 138.739 92.8087 139.969 92.8187 141.479C92.8187 143.009 91.5887 144.239 90.0687 144.239ZM71.1788 93.8691C68.8988 92.9391 66.2988 94.0191 65.3688 96.299C64.4389 98.579 65.5188 101.179 67.7988 102.109C70.0788 103.039 72.6788 101.959 73.6088 99.679C74.1688 98.299 74.0188 96.739 73.1888 95.4991L77.1388 92.5191L75.9188 90.0991L71.1788 93.8691ZM69.5888 101.059C67.9188 101.059 66.5688 99.709 66.5688 98.039C66.5688 96.369 67.9188 95.0191 69.5888 95.0191C71.2588 95.0191 72.6088 96.369 72.6088 98.039C72.6088 99.709 71.2588 101.059 69.5888 101.059C69.5888 101.069 69.5888 101.069 69.5888 101.059ZM20.3691 143.269H28.459V140.849H21.8291L10.0291 129.039H15.3691V126.129H0.15918C0.16918 127.159 0.18918 128.179 0.219179 129.199H6.77915L20.3691 143.269ZM25.549 116.109L25.869 113.689L10.9991 98.809H2.89917C2.75917 99.459 2.62917 100.099 2.49917 100.749H10.1791L25.549 116.109ZM241.138 89.8591C240.488 91.8091 241.538 93.9191 243.488 94.5691C244.338 94.8491 245.268 94.8191 246.088 94.4791C245.488 92.0791 244.818 89.7091 244.078 87.3691C242.718 87.5791 241.578 88.5391 241.138 89.8591ZM117.239 143.759H134.868V146.018H117.239V143.759Z" fill="#7290C9"/>
<path d="M148.07 77.6191V96.219H132.6V172.379H219.44V77.6191H148.07ZM199.28 150.389H152.75V99.609H199.28V150.389Z" fill="#FFFFFA"/>
<path d="M92.3392 153.938V172.368H68.2392C68.2392 172.368 43.8992 172.688 29.6592 150.778C22.0992 139.128 19.7992 124.828 23.3292 111.388C26.7992 98.1876 36.4492 82.5475 62.0892 77.6074H118.529V95.2475H68.7292C68.7292 95.2475 42.4692 104.268 42.8092 126.048C42.9592 135.628 48.3492 144.308 56.6492 149.098C60.3892 151.248 64.4792 152.718 68.7292 153.458L92.3392 153.938Z" fill="white"/>
<path d="M68.7295 116.109V133.409H100.099V172.379H118.539V116.109H68.7295Z" fill="white"/>
</g>
<defs>
<clipPath id="clip0_242_94127">
<rect width="250" height="250" rx="125" fill="white"/>
</clipPath>
</defs>
</svg>
