<svg width="250" height="250" viewBox="0 0 250 250" fill="none" xmlns="http://www.w3.org/2000/svg">
<g clip-path="url(#clip0_242_93482)">
<path d="M125.05 249.4C193.755 249.4 249.45 193.704 249.45 125C249.45 56.2954 193.755 0.599609 125.05 0.599609C56.3462 0.599609 0.650391 56.2954 0.650391 125C0.650391 193.704 56.3462 249.4 125.05 249.4Z" fill="url(#paint0_linear_242_93482)"/>
<path d="M143.2 148.098C143.2 132.748 155.65 120.298 171 120.298H249.5C248.9 103.348 244.85 87.2984 238.1 72.6984H171C163.7 72.6984 156.55 73.6984 149.7 75.7984C149.25 74.4984 148.75 73.1484 148.2 71.8984C144.4 62.9484 139 54.8484 132.05 47.9484C125.15 41.0484 117.05 35.5984 108.1 31.7984C98.8 27.8484 88.9 25.8984 78.75 25.8984H49.6C33.3 38.2484 20.2 54.5984 11.55 73.4484H78.65C94 73.4484 106.45 85.8984 106.45 101.248C106.45 116.598 94.05 128.998 78.7 128.998H0.5C1.05 145.948 4.95 161.998 11.6 176.598H78.7C86 176.598 93.15 175.598 100 173.498C100.45 174.798 100.95 176.148 101.5 177.398C105.3 186.348 110.7 194.448 117.65 201.348C124.55 208.248 132.65 213.698 141.6 217.498C150.9 221.448 160.8 223.398 170.95 223.398H201.2C217.3 210.948 230.25 194.598 238.65 175.798H171C155.65 175.948 143.2 163.498 143.2 148.098Z" fill="white"/>
</g>
<defs>
<linearGradient id="paint0_linear_242_93482" x1="37.0446" y1="37.0185" x2="213.007" y2="212.981" gradientUnits="userSpaceOnUse">
<stop stop-color="#FF7600"/>
<stop offset="1" stop-color="#FD2600"/>
</linearGradient>
<clipPath id="clip0_242_93482">
<rect width="250" height="250" rx="125" fill="white"/>
</clipPath>
</defs>
</svg>
