<svg width="250" height="250" viewBox="0 0 250 250" fill="none" xmlns="http://www.w3.org/2000/svg">
<rect width="250" height="250" rx="125" fill="white"/>
<g clip-path="url(#clip0_242_94515)">
<path d="M125.016 238.668C187.784 238.668 238.668 187.784 238.668 125.016C238.668 62.2486 187.784 11.3652 125.016 11.3652C62.2486 11.3652 11.3652 62.2486 11.3652 125.016C11.3652 187.784 62.2486 238.668 125.016 238.668Z" fill="#333335"/>
<path d="M39.1195 139.632L91.2281 88.5033C101.341 78.4111 114.711 73.0297 128.938 73.0297C146.935 73.0297 162.705 81.7756 172.304 95.2308C172.476 95.3993 172.647 95.5675 172.818 95.7354C174.619 97.8405 176.853 99.5316 179.368 100.693C181.882 101.854 184.618 102.458 187.388 102.464C197.844 102.464 206.414 94.0534 206.414 83.7945C206.414 77.9074 202.472 72.3573 202.472 72.3573C185.332 49.3148 157.906 35.6914 128.938 35.6914C116.486 35.7144 104.165 38.2428 92.7099 43.126C81.2548 48.0092 70.8993 55.1474 62.26 64.1156C44.9475 82.4484 36.3771 106.332 38.0911 131.392C38.2545 134.158 38.598 136.911 39.1195 139.632Z" fill="#A7FF58"/>
<path d="M214.642 135.427C211.899 132.063 207.957 130.045 203.5 130.045H148.135C144.285 130.028 140.585 131.541 137.85 134.25C136.52 135.561 135.482 137.137 134.802 138.876C134.123 140.615 133.818 142.478 133.908 144.342C134.079 151.575 141.107 157.799 148.992 157.799H152.763C155.848 157.799 158.419 159.481 159.619 162.34C160.189 163.659 160.347 165.121 160.072 166.531C159.796 167.942 159.101 169.237 158.076 170.245L114.366 213.134C117.142 213.646 119.947 213.983 122.765 214.143C166.476 217.002 206.413 189.083 217.383 147.539C218.241 143.332 217.384 138.791 214.642 135.427Z" fill="#A7FF58"/>
<path d="M128.425 82.7825C120.712 82.9509 113.341 85.4738 106.999 89.6786L106.485 90.0148C100.998 93.5816 95.8864 97.6953 91.229 102.293L33.4635 158.974C30.8923 161.497 32.4354 168.392 40.6638 165.028L48.3773 162.169C56.4336 159.983 62.4328 160.487 66.8895 166.374C70.6604 171.251 68.2608 179.325 68.2608 179.325C66.5467 185.043 71.0034 188.911 75.8027 187.061L78.8883 185.884C85.9161 183.361 93.6296 186.22 97.5726 193.453C99.1151 196.312 99.2864 199.844 98.4295 202.872C97.2298 207.245 102.886 210.441 106.143 207.245L146.423 167.551C134.252 166.374 124.139 156.45 123.796 144.677C123.695 141.475 124.252 138.285 125.431 135.306C126.61 132.326 128.387 129.62 130.653 127.354C135.03 122.853 141.003 120.255 147.28 120.121H171.62C169.22 99.0976 150.707 82.615 128.425 82.7825ZM105.286 117.935C103.058 123.822 98.6007 127.522 95.3441 126.345C92.0876 125.168 91.0567 119.449 93.2843 113.562C95.5119 107.675 99.9695 103.975 103.227 105.152C106.484 106.328 107.513 112.048 105.284 117.935L105.286 117.935ZM127.912 117.935C125.683 123.822 121.227 127.522 117.97 126.345C114.713 125.168 113.685 119.449 115.913 113.562C118.141 107.675 122.598 103.976 125.855 105.152C129.111 106.329 130.139 112.048 127.91 117.935L127.912 117.935Z" fill="white"/>
</g>
<defs>
<clipPath id="clip0_242_94515">
<rect width="227.302" height="227.302" fill="white" transform="translate(11.3652 11.3652)"/>
</clipPath>
</defs>
</svg>
