<svg width="250" height="250" viewBox="0 0 250 250" fill="none" xmlns="http://www.w3.org/2000/svg">
<path d="M125.01 175.051C108.159 148.133 91.5347 121.578 74.749 94.7637C108.311 94.7637 141.542 94.7637 175.101 94.7637C158.401 121.531 141.806 148.13 125.01 175.051Z" fill="#FF7093"/>
<path d="M117.161 177.575C94.4726 174.272 72.2221 171.033 49.7363 167.76C56.232 145.284 62.6734 122.997 69.225 100.328C85.248 126.148 101.079 151.658 117.161 177.575Z" fill="#9E4B69"/>
<path d="M180.8 100.326C187.353 123.001 193.783 145.252 200.285 167.752C177.831 171.024 155.553 174.271 132.859 177.579C148.906 151.72 164.735 126.214 180.8 100.326Z" fill="#9E4B69"/>
<path d="M172.702 86.7602C140.942 86.7602 109.082 86.7602 76.8223 86.7602C92.9667 70.5009 108.86 54.4944 124.604 38.6387C140.71 54.7527 156.701 70.7515 172.702 86.7602Z" fill="#A55271"/>
<path d="M66.3791 178.586C84.5528 181.137 102.726 183.689 120.984 186.252C120.984 194.246 120.984 202.095 120.984 210.263C102.624 199.747 84.4443 189.333 66.2646 178.919C66.3028 178.809 66.3409 178.697 66.3791 178.586Z" fill="#613B5A"/>
<path d="M183.791 178.886C165.613 189.305 147.436 199.724 129.048 210.264C129.048 202.124 129.048 194.288 129.048 186.255C147.276 183.693 165.472 181.136 183.667 178.578C183.708 178.681 183.75 178.784 183.791 178.886Z" fill="#613B5A"/>
<path d="M146.278 48.2285C163.469 56.7409 180.661 65.2532 198.1 73.8881C193.159 77.8917 188.445 81.712 183.541 85.6862C171.015 73.2745 158.537 60.9104 146.06 48.546C146.132 48.4399 146.205 48.3342 146.278 48.2285Z" fill="#613B5A"/>
<path d="M103.943 48.5611C91.5026 60.8867 79.0629 73.2126 66.4878 85.6723C61.6616 81.7705 56.9097 77.9289 51.9131 73.8892C69.3298 65.2669 86.5204 56.7567 103.711 48.2461C103.788 48.3511 103.865 48.4561 103.943 48.5611Z" fill="#613D5B"/>
<path d="M62.7581 92.2996C58.2295 108.548 53.7204 124.727 49.211 140.907C49.1316 140.89 49.0521 140.873 48.9727 140.856C48.9727 121.226 48.9727 101.596 48.9727 81.625C53.7001 85.2856 58.1913 88.7632 62.7581 92.2996Z" fill="#613B5A"/>
<path d="M187.265 92.3089C191.814 88.7802 196.303 85.2984 201.03 81.6328C201.03 101.583 201.03 121.209 201.03 140.835C200.957 140.854 200.884 140.874 200.811 140.893C196.304 124.73 191.798 108.566 187.265 92.3089Z" fill="#613B5A"/>
</svg>
