<svg width="250" height="250" viewBox="0 0 250 250" fill="none" xmlns="http://www.w3.org/2000/svg">
<rect width="250" height="250" rx="125" fill="white"/>
<path d="M183.954 109.706L199.637 94.0235L125.049 19.4785L50.4619 94.066L66.1444 109.749L50.4619 125.431L65.7619 140.731L50.4619 156.031L125.049 230.618L199.637 156.031L183.954 140.731L199.254 125.431L183.954 109.706ZM60.1519 94.066L125.049 29.551L189.564 94.066L179.109 104.521L125.049 50.4185L70.6069 104.479L60.1519 94.066ZM125.049 158.921L91.4744 125.346L125.049 91.771L158.624 125.346L125.049 158.921ZM163.427 129.851L173.882 140.306L125.049 189.904L75.7919 140.688L86.2469 130.233L125.007 168.654L163.427 129.851ZM125.049 81.3585L86.2894 120.119L75.7919 109.706L125.049 60.491L174.264 109.706L163.469 120.161L125.049 81.3585ZM60.1519 125.006L70.6069 114.551L81.0619 125.006L70.6069 135.461L60.1519 125.006ZM189.522 155.946L125.049 220.844L60.1519 155.946L70.6069 145.491L124.667 199.551L178.727 145.491L189.522 155.946ZM168.654 125.006L179.109 114.551L189.564 125.006L179.109 135.461L168.654 125.006Z" fill="#2E2E2E"/>
</svg>
