<svg width="250" height="250" viewBox="0 0 250 250" fill="none" xmlns="http://www.w3.org/2000/svg">
<rect width="250" height="250" rx="125" fill="white"/>
<g clip-path="url(#clip0_242_94672)">
<path opacity="0.3" d="M125.572 233.699C185.628 233.699 234.313 185.672 234.313 126.428C234.313 67.1834 185.628 19.1562 125.572 19.1562C65.5153 19.1562 16.8301 67.1834 16.8301 126.428C16.8301 185.672 65.5153 233.699 125.572 233.699Z" fill="white" stroke="#E4D5BC" stroke-width="1.96617"/>
<path d="M210.366 193.571L202.567 188.014C196.505 183.701 187.691 177.407 182.958 174.068C178.225 170.729 163.021 159.925 149.171 150.055C135.321 140.185 123.663 131.936 123.253 131.679C122.713 131.34 122.627 131.406 122.935 131.911C123.167 132.3 151.171 160.819 185.161 195.293L197 207.3C201.852 203.126 206.324 198.532 210.366 193.571Z" fill="#929596"/>
<path d="M175.42 209.264C172.167 204.521 163.07 191.302 155.215 179.887C147.361 168.471 139.996 157.798 138.875 156.146C137.753 154.495 134.657 150.029 131.985 146.175C129.313 142.321 125.994 137.528 124.615 135.527C123.236 133.527 121.999 131.891 121.862 131.891C121.504 131.891 122.272 133.628 131.162 152.914C135.602 162.546 140.011 172.108 140.961 174.204C141.91 176.3 145.199 183.438 148.265 190.11C151.331 196.783 154.67 204.057 155.685 206.274C156.326 207.683 159.847 215.22 165.05 226.363C170.813 224.158 176.377 221.466 181.683 218.316C179.542 215.27 177.243 211.931 175.42 209.264Z" fill="#929596"/>
<path d="M122.703 127.764C122.673 128.234 130.164 123.036 152.45 107.125C160.122 101.65 167.603 96.3106 169.118 95.265C171.351 93.7042 190.237 80.2883 202.704 71.4083L210.387 65.9429L213.69 63.5942C209.74 58.2219 205.303 53.2253 200.436 48.668C191.94 57.255 182.691 66.6401 173.447 75.9898C145.555 104.226 122.718 127.522 122.703 127.764Z" fill="#929596"/>
<path d="M67.6982 206.274L62.5158 213.795C67.3687 217.217 72.4922 220.237 77.8358 222.827C86.8117 203.284 99.2427 176.23 114.538 142.958C118.366 134.628 118.922 133.077 118.437 131.986C117.725 130.37 118.942 130.122 94.7572 136.729C84.0235 139.664 64.8645 144.882 52.1861 148.347L21.2578 156.737C22.9894 162.56 25.2203 168.224 27.9254 173.663C32.5523 171.471 37.6538 169.057 42.6343 166.688C55.6057 160.536 69.9106 153.752 74.4566 151.615C79.0027 149.479 90.4892 144.038 100.051 139.492C109.613 134.946 117.538 131.35 117.659 131.476C117.781 131.603 115.452 133.431 112.472 135.517C101.864 143.018 97.3183 146.241 81.6091 157.429C72.8656 163.662 62.9653 170.693 59.6163 173.052C51.5345 178.755 48.7917 180.69 38.1489 188.297L37.2548 188.938C40.7718 193.778 44.6848 198.318 48.9534 202.511C82.1951 168.895 118.154 132.542 118.286 132.431C119.033 131.794 116.907 135.017 109.537 145.695C101.506 157.328 72.4918 199.354 67.6982 206.274Z" fill="#929596"/>
<path d="M145.198 223.013C144.213 219.305 142.323 212.148 141 207.112C139.677 202.076 136.454 189.938 133.888 180.154C126.943 153.958 123.174 139.598 122.27 135.951C121.831 134.173 121.159 132.35 120.755 131.91C120.149 131.203 120.28 131.102 121.765 131.178C123.407 131.253 135.065 136.608 175.631 155.903C185.395 160.545 194.578 164.909 196.038 165.596L210.873 172.628L221.192 177.502C224.386 171.679 227.026 165.569 229.077 159.252L204.781 152.655C193.467 149.594 182.389 146.594 153.37 138.669C145.061 136.406 135.045 133.688 131.11 132.607C127.175 131.526 123.594 130.319 123.159 129.88C122.452 129.172 122.482 129.147 123.422 129.652C124.008 129.96 129.034 130.602 134.6 131.067C140.167 131.531 158.285 133.127 174.878 134.602C191.471 136.077 213.393 138.012 223.597 138.901C227.042 139.199 230.39 139.497 233.411 139.765C233.979 135.339 234.269 130.882 234.28 126.42C234.28 124.141 234.184 121.873 234.037 119.651L226.511 120.313C217.924 121.055 205.63 122.141 199.235 122.722C192.84 123.303 180.546 124.394 171.959 125.147C163.372 125.899 149.648 127.117 141.485 127.854C133.322 128.591 125.927 129.177 125.054 129.152C123.336 129.107 127.342 127.889 144.399 123.273C150.082 121.757 163.917 117.964 175.141 114.898C186.364 111.832 197.81 108.72 200.578 107.983C208.079 105.988 214.722 104.179 229.729 100.078L230.926 99.7494C229.222 93.198 226.891 86.8259 223.965 80.7215C215.399 84.7827 204.424 89.9787 191.042 96.3095C178.358 102.31 159.043 111.463 148.107 116.656C137.171 121.848 127.038 126.657 125.579 127.339C124.119 128.021 122.735 128.389 122.493 128.152C122.018 127.677 123.563 125.323 138.788 103.32C141.965 98.7239 154.34 80.772 166.286 63.4162C173.115 53.4957 179.869 43.7168 184.854 36.4987C179.347 32.9521 173.532 29.909 167.478 27.4066C163.129 36.8724 159.932 43.8329 159.482 44.823C158.265 47.5102 145.531 75.2512 130.089 108.847C125.624 118.565 121.876 126.414 121.765 126.298C121.538 126.066 122.073 123.99 133.539 80.6761C137.813 64.5124 141.879 49.1114 142.566 46.4444C143.253 43.7774 144.879 37.5897 146.177 32.6951C146.738 30.5635 147.804 26.5478 149.087 21.6835C142.828 20.3243 136.464 19.5113 130.064 19.2539C129.68 23.6989 129.317 27.9166 129.014 31.3464C125.574 70.8061 121.942 112.923 121.295 121.106C121.093 123.631 120.639 126.111 120.285 126.632C119.729 127.455 119.31 126.854 117.098 122.05C115.694 119.02 113.481 114.221 112.183 111.402C105.662 97.259 86.609 55.794 83.7046 49.4093C82.6034 46.9949 79.396 39.9991 75.3803 31.2605C68.9425 34.567 62.8509 38.5079 57.1961 43.0247C65.0989 51.0718 72.287 59.791 78.6788 69.0837C88.4882 83.3179 98.8833 98.3805 101.742 102.507C104.601 106.634 108.632 112.478 110.658 115.443L116.719 124.338C118.038 126.268 118.977 127.723 118.805 127.576C118.634 127.43 90.4327 98.9209 56.1353 64.2346L45.6743 53.6524C41.4139 58.2056 37.5573 63.1203 34.1477 68.3411C49.877 79.5244 72.4557 95.567 87.0586 105.937C103.192 117.393 116.906 127.192 117.532 127.713L118.674 128.657L117.351 128.152C116.618 127.879 114.714 126.995 113.107 126.197C110.365 124.823 108.824 124.091 99.9744 119.969C98.0095 119.05 94.6102 117.444 92.423 116.403C85.1039 112.913 64.8488 103.31 34.3852 88.8944L25.3587 84.6161C22.9223 90.329 20.9921 96.2447 19.5903 102.295C26.5559 104.194 32.8898 105.927 35.1831 106.563C38.2441 107.412 45.2854 109.331 50.8417 110.827C56.398 112.322 65.8033 114.867 71.7789 116.509C77.7544 118.151 90.5137 121.601 100.136 124.202C109.759 126.803 117.103 129.001 116.472 129.097C115.84 129.193 106.874 128.506 96.5952 127.581C86.316 126.657 69.8847 125.197 60.1158 124.338C50.3468 123.48 31.4252 121.788 18.0547 120.59L16.9939 120.494C16.8879 122.454 16.8223 124.424 16.8223 126.414C16.8292 130.581 17.0822 134.744 17.5799 138.881L23.5452 138.376C33.602 137.497 51.3721 135.926 63.0353 134.885C74.6984 133.845 91.7208 132.36 100.868 131.541L117.507 130.087L118.426 131.243C118.932 131.88 119.477 132.254 119.629 132.112C119.78 131.971 119.098 134.936 118.113 138.739C117.128 142.543 115.128 150.14 113.693 155.625C110.663 167.299 104.682 189.913 102.823 196.868C102.106 199.535 99.833 208.147 97.7721 216.007C96.6356 220.326 95.3729 225.099 94.297 229.175C99.9961 230.856 105.822 232.071 111.718 232.807C114.441 201.227 115.446 189.594 116.037 182.851C116.477 177.8 117.588 164.712 118.507 153.741C119.426 142.77 120.26 133.693 120.366 133.572C120.816 133.067 120.987 134.183 121.553 141.341C121.881 145.493 122.993 158.59 124.018 170.451C125.043 182.311 126.72 201.717 127.736 213.577C128.195 218.932 128.817 226.119 129.463 233.61C135.499 233.412 141.508 232.719 147.43 231.539C146.733 228.847 146.021 226.124 145.198 223.013Z" fill="#929596"/>
<path d="M94.0691 29.4826C95.1955 33.7812 97.7818 43.6259 99.8123 51.3137C101.843 59.0016 105.303 72.1246 107.49 80.4237C117.82 119.626 119.613 126.258 119.8 126.47C120.189 126.864 120.047 123.768 119.239 114.347C118.81 109.321 117.133 89.8037 115.516 70.978C113.92 52.3746 111.779 35.9835 109.627 20.3047C103.881 21.1377 98.211 22.4264 92.6699 24.1587C93.1649 26.0428 93.6499 27.8966 94.0691 29.4826Z" fill="#929596"/>
<path d="M126.674 200.529C168.775 200.529 202.906 166.86 202.906 125.327C202.906 83.794 168.775 50.125 126.674 50.125C84.5717 50.125 50.4414 83.794 50.4414 125.327C50.4414 166.86 84.5717 200.529 126.674 200.529Z" fill="#1D2325"/>
<path d="M126.618 183.993C159.433 183.993 186.035 157.751 186.035 125.379C186.035 93.0079 159.433 66.7656 126.618 66.7656C93.803 66.7656 67.2012 93.0079 67.2012 125.379C67.2012 157.751 93.803 183.993 126.618 183.993Z" fill="#ECE3D0"/>
<path fill-rule="evenodd" clip-rule="evenodd" d="M125.017 230.369C65.3379 230.369 16.9225 183.231 16.9225 125.032C16.9225 66.8323 65.3531 19.6948 125.017 19.6948C184.682 19.6948 233.112 66.8323 233.112 125.032C233.112 183.231 184.697 230.369 125.017 230.369ZM125.017 235.743C62.2517 235.743 11.3662 186.176 11.3662 125.032C11.3662 63.8875 62.2517 14.3203 125.017 14.3203C187.783 14.3203 238.669 63.8875 238.669 125.032C238.669 186.176 187.783 235.723 125.017 235.723V235.743Z" fill="#1D2325"/>
<path fill-rule="evenodd" clip-rule="evenodd" d="M130.903 74.7961C137.473 75.5192 143.819 77.6061 149.536 80.9232L151.082 81.797L150.89 82.1557C150.789 82.3527 149.956 83.7771 149.036 85.3278C148.117 86.8785 146.713 89.2475 145.92 90.5961C145.127 91.9448 144.005 93.834 143.434 94.7886C141.449 98.1325 136.297 106.846 135.085 108.932C134.408 110.084 133.847 111.043 133.837 111.053C133.572 110.968 133.313 110.862 133.065 110.735C130.716 109.644 128.382 109.29 125.073 109.518C123.143 109.605 121.237 109.986 119.421 110.649C118.497 111.013 118.371 111.038 118.28 110.867C118.189 110.695 117.093 108.674 115.754 106.24C110.112 95.8544 107.556 91.1618 106.692 89.5707C106.187 88.6464 105.596 87.5503 105.384 87.1714C103.444 83.6356 102.49 81.8273 102.525 81.792C102.753 81.5798 105.768 79.9432 107.304 79.2057C112.031 76.8723 117.134 75.3948 122.376 74.8416C125.214 74.6369 128.063 74.6217 130.903 74.7961ZM127.483 113.488C130.206 113.779 132.745 115.002 134.671 116.948C135.556 117.817 136.269 118.845 136.772 119.979C137.463 121.36 137.84 122.875 137.878 124.419C138.027 126.536 137.561 128.652 136.535 130.51C135.463 132.464 133.854 134.071 131.898 135.139C129.942 136.208 127.721 136.695 125.498 136.542C122.571 136.477 119.785 135.272 117.734 133.183C116.61 132.137 115.732 130.855 115.163 129.43C114.307 127.312 114.09 124.99 114.539 122.75C114.988 120.51 116.083 118.451 117.689 116.827C118.976 115.585 120.521 114.642 122.213 114.064C123.906 113.486 125.705 113.288 127.483 113.483V113.488ZM175.828 126.621C175.92 129.469 175.839 132.32 175.585 135.158C174.746 141.716 172.394 147.989 168.716 153.483C165.547 158.157 161.491 162.165 156.78 165.278C155.574 166.131 154.319 166.914 153.022 167.621C152.698 167.211 152.401 166.781 152.133 166.333C151.683 165.626 151.188 164.858 151.037 164.626C149.865 162.858 134.747 139.062 134.747 138.991C134.991 138.725 135.267 138.491 135.57 138.294C137.424 136.951 138.818 135.168 140.116 132.49C141.217 130.217 141.545 129.076 142.025 125.848L142.081 125.459H175.742L175.828 126.621ZM110.162 125.611C110.188 125.697 110.294 126.545 110.4 127.5C110.536 129.35 111.014 131.158 111.809 132.834C113.072 135.256 114.961 137.295 117.28 138.739L117.563 138.921L113.592 145.144C111.41 148.568 107.783 154.236 105.51 157.772C103.237 161.307 100.934 164.949 100.343 165.889C99.9938 166.485 99.6023 167.056 99.1712 167.596C97.5991 166.729 96.081 165.767 94.6251 164.717C92.4183 163.163 90.3544 161.415 88.4577 159.494C85.2205 156.319 82.573 152.594 80.6385 148.493C78.136 143.51 76.6816 138.067 76.3652 132.501C76.2288 130.632 76.2842 125.793 76.4459 125.54C76.4812 125.48 83.5529 125.434 93.2916 125.434C106.622 125.454 110.107 125.485 110.157 125.606L110.162 125.611Z" fill="#1D2325"/>
</g>
<defs>
<clipPath id="clip0_242_94672">
<rect width="227.302" height="221.569" fill="white" transform="translate(11.3662 14.3184)"/>
</clipPath>
</defs>
</svg>
