<svg width="250" height="250" viewBox="0 0 250 250" fill="none" xmlns="http://www.w3.org/2000/svg">
<rect width="250" height="250" rx="125" fill="white"/>
<g clip-path="url(#clip0_242_94501)">
<path d="M238.668 125.015C238.668 185.816 190.955 235.466 130.93 238.583C129.687 238.648 128.649 237.641 128.649 236.396V217.183C128.649 216.02 129.561 215.073 130.722 215C152.631 213.622 173.038 204.437 188.698 188.777C203.09 174.385 212.018 155.139 214.44 135.248H183.005C182.747 135.248 182.527 135.064 182.481 134.81L178.173 110.912C178.115 110.586 178.365 110.285 178.697 110.285H235.777C236.885 110.285 237.829 111.112 237.953 112.214C238.424 116.416 238.668 120.687 238.668 125.015ZM130.722 35.0303C152.631 36.4082 173.038 45.5933 188.698 61.2535C194.178 66.7331 198.863 72.795 202.701 79.2977C203.095 79.9659 203.807 80.381 204.583 80.381H226.198C227.795 80.381 228.858 78.721 228.187 77.2713C210.934 40.023 174.12 13.6889 130.929 11.4465C129.686 11.382 128.649 12.3885 128.649 13.6329V32.8468C128.649 34.0106 129.561 34.9573 130.722 35.0303ZM13.5553 121.303H32.7687C33.9325 121.303 34.8792 120.391 34.9522 119.229C36.3301 97.3207 45.5151 76.9137 61.1754 61.2535C76.8356 45.5933 97.2426 36.4082 119.151 35.0303C120.313 34.9573 121.225 34.0106 121.225 32.8468V13.6334C121.225 12.3887 120.187 11.3817 118.944 11.4463C60.9042 14.4603 14.3822 60.9823 11.3684 119.022C11.3038 120.265 12.3108 121.303 13.5555 121.303H13.5553ZM119.151 215C97.2426 213.622 76.8356 204.437 61.1754 188.777C45.5151 173.117 36.3301 152.71 34.9522 130.801C34.8792 129.639 33.9325 128.727 32.7687 128.727H13.5553C12.3106 128.727 11.3036 129.765 11.3682 131.008C14.382 189.048 60.904 235.57 118.944 238.584C120.187 238.648 121.225 237.641 121.225 236.397V217.183C121.225 216.02 120.313 215.073 119.151 215H119.151ZM104.029 107.824C104.503 104.991 106.919 102.942 109.798 102.942H170.441L166.934 82.86C166.47 80.1998 164.194 78.2618 161.535 78.2618H88.2766C85.6179 78.2618 83.3424 80.1998 82.8778 82.86L68.1254 167.337H181.686L171.718 110.253H111.016L106.445 135.062H148C150.019 135.062 151.655 136.698 151.655 138.717C151.655 140.736 150.019 142.373 148 142.373H102.18C101.526 142.373 100.867 142.244 100.296 141.925C98.8676 141.127 98.1825 139.559 98.4598 138.055L104.029 107.825V107.824Z" fill="#C19F52"/>
</g>
<defs>
<clipPath id="clip0_242_94501">
<rect width="227.302" height="227.302" fill="white" transform="translate(11.3652 11.3633)"/>
</clipPath>
</defs>
</svg>
