<svg width="250" height="250" viewBox="0 0 250 250" fill="none" xmlns="http://www.w3.org/2000/svg">
<rect width="250" height="250" rx="125" fill="white"/>
<g clip-path="url(#clip0_242_94503)">
<path d="M125.016 238.668C187.784 238.668 238.668 187.784 238.668 125.016C238.668 62.2486 187.784 11.3652 125.016 11.3652C62.2486 11.3652 11.3652 62.2486 11.3652 125.016C11.3652 187.784 62.2486 238.668 125.016 238.668Z" fill="#272727"/>
<path d="M100.322 139.27C99.7351 137.168 98.557 131.04 104.363 129.927C104.435 129.914 104.508 129.905 104.582 129.897C105.724 129.797 115.124 129.13 114.964 134.26V157.361C114.964 157.52 114.946 157.677 114.911 157.831C114.706 158.715 113.807 161.423 110.463 161.48C110.38 161.481 110.297 161.478 110.215 161.469C109.382 161.384 105.151 160.729 105.151 156.19C105.151 156.19 105.151 156.167 105.151 156.125C105.14 155.723 105.013 155.334 104.786 155.003C104.559 154.672 104.241 154.413 103.87 154.259C103.5 154.104 103.092 154.06 102.697 154.132C102.302 154.203 101.936 154.388 101.643 154.662C99.2843 156.863 92.7071 162.089 83.9887 161.481C73.5848 160.756 65.925 154.313 65.1158 153.608C65.0687 153.567 65.0224 153.53 64.9717 153.495C63.9538 152.761 52.6719 144.27 52.6719 128.544C52.6719 112.075 63.253 102.518 63.253 102.518C63.253 102.518 77.5944 87.8371 99.3382 95.457C99.46 95.4997 99.5777 95.5534 99.6898 95.6174C101.241 96.5039 112.877 103.321 113.514 108.577C114.196 114.209 107.286 115.233 107.286 115.233C107.286 115.233 104.896 116.001 101.227 112.331C97.558 108.662 89.6217 102.347 77.5047 107.638C65.3876 112.929 65.1315 128.459 65.1315 128.459C65.1315 128.459 64.6373 145.095 81.429 148.512C93.7013 151.009 98.8145 143.364 100.161 140.792C100.407 140.324 100.464 139.779 100.322 139.27Z" fill="white"/>
<path d="M146.38 139.27C146.967 137.168 148.145 131.04 142.339 129.927C142.267 129.914 142.194 129.904 142.121 129.897C140.978 129.797 131.578 129.13 131.738 134.26V157.361C131.738 157.52 131.756 157.677 131.792 157.831C131.996 158.715 132.895 161.423 136.239 161.48C136.322 161.481 136.405 161.478 136.488 161.469C137.321 161.384 141.551 160.729 141.551 156.19C141.551 156.19 141.551 156.167 141.551 156.125C141.562 155.723 141.689 155.334 141.916 155.003C142.144 154.672 142.462 154.413 142.832 154.259C143.203 154.104 143.61 154.06 144.005 154.132C144.401 154.203 144.767 154.388 145.059 154.662C147.418 156.863 153.996 162.089 162.714 161.481C173.118 160.756 180.778 154.313 181.587 153.608C181.634 153.567 181.68 153.53 181.731 153.495C182.749 152.761 194.031 144.27 194.031 128.544C194.031 112.075 183.45 102.518 183.45 102.518C183.45 102.518 169.107 87.8371 147.364 95.457C147.242 95.4996 147.125 95.5534 147.013 95.6174C145.461 96.5039 133.826 103.321 133.189 108.577C132.507 114.209 139.417 115.233 139.417 115.233C139.417 115.233 141.806 116.001 145.476 112.331C149.145 108.662 157.081 102.347 169.198 107.638C181.315 112.929 181.571 128.459 181.571 128.459C181.571 128.459 182.065 145.095 165.274 148.512C153.002 151.007 147.888 143.363 146.542 140.789C146.297 140.322 146.239 139.778 146.38 139.27Z" fill="white"/>
<path d="M117.787 107.768V91.9812C117.787 91.9812 117.616 77.304 136.304 77.304H148.507C148.507 77.304 158.661 78.0721 158.661 68.6856V57.5069C158.661 57.5069 158.576 52.7295 163.184 52.7295C163.184 52.7295 167.841 51.9675 168.636 56.9377C168.642 56.9765 168.645 57.0156 168.645 57.0548V71.2455C168.645 71.2455 168.133 87.2881 150.896 87.2881C133.659 87.2881 137.328 87.2026 137.328 87.2026C137.328 87.2026 128.197 87.8845 128.197 93.5173C128.197 99.1501 128.368 107.768 128.368 107.768C128.368 107.768 128.624 112.461 123.078 112.461C117.531 112.461 117.787 107.768 117.787 107.768Z" fill="white"/>
<path d="M94.0288 124.964H89.2V120.135C89.2031 119.813 89.1425 119.494 89.0216 119.196C88.9006 118.898 88.7219 118.627 88.4956 118.399C88.2693 118.17 88 117.989 87.7032 117.865C87.4064 117.741 87.088 117.678 86.7664 117.678C86.4448 117.678 86.1264 117.741 85.8296 117.865C85.5328 117.989 85.2635 118.17 85.0372 118.399C84.8109 118.627 84.6321 118.898 84.5112 119.196C84.3903 119.494 84.3297 119.813 84.3328 120.135V124.964H79.504C78.8626 124.97 78.2496 125.229 77.7983 125.685C77.3469 126.14 77.0938 126.756 77.0938 127.397C77.0938 128.039 77.3469 128.654 77.7983 129.11C78.2496 129.565 78.8626 129.825 79.504 129.831H84.3319V134.66C84.3381 135.301 84.5972 135.914 85.0529 136.365C85.5086 136.817 86.1241 137.07 86.7655 137.07C87.4069 137.07 88.0223 136.817 88.478 136.365C88.9338 135.914 89.1929 135.301 89.1991 134.66V129.831H94.0279C94.6693 129.825 95.2822 129.565 95.7336 129.11C96.1849 128.654 96.4381 128.039 96.4381 127.397C96.4381 126.756 96.1849 126.14 95.7336 125.685C95.2822 125.229 94.6693 124.97 94.0279 124.964H94.0288Z" fill="#FF007F"/>
<path d="M160.836 123.411C163.204 123.411 165.124 121.491 165.124 119.123C165.124 116.756 163.204 114.836 160.836 114.836C158.468 114.836 156.549 116.756 156.549 119.123C156.549 121.491 158.468 123.411 160.836 123.411Z" fill="#F8DC00"/>
<path d="M153.538 131.089C155.906 131.089 157.825 129.169 157.825 126.801C157.825 124.433 155.906 122.514 153.538 122.514C151.17 122.514 149.25 124.433 149.25 126.801C149.25 129.169 151.17 131.089 153.538 131.089Z" fill="#00DAF2"/>
<path d="M168.643 131.089C171.011 131.089 172.931 129.169 172.931 126.801C172.931 124.433 171.011 122.514 168.643 122.514C166.275 122.514 164.355 124.433 164.355 126.801C164.355 129.169 166.275 131.089 168.643 131.089Z" fill="#FF0088"/>
<path d="M160.836 138.77C163.204 138.77 165.124 136.851 165.124 134.483C165.124 132.115 163.204 130.195 160.836 130.195C158.468 130.195 156.549 132.115 156.549 134.483C156.549 136.851 158.468 138.77 160.836 138.77Z" fill="#00F900"/>
</g>
<defs>
<clipPath id="clip0_242_94503">
<rect width="227.302" height="227.302" fill="white" transform="translate(11.3652 11.3613)"/>
</clipPath>
</defs>
</svg>
