<svg width="250" height="250" viewBox="0 0 250 250" fill="none" xmlns="http://www.w3.org/2000/svg">
<g clip-path="url(#clip0_242_94798)">
<path d="M250 125C250 55.9644 194.036 0 125 0C55.9644 0 0 55.9644 0 125C0 194.036 55.9644 250 125 250C194.036 250 250 194.036 250 125Z" fill="url(#paint0_linear_242_94798)"/>
<g style="mix-blend-mode:screen" opacity="0.8">
<path fill-rule="evenodd" clip-rule="evenodd" d="M194.901 185.854V161.052L194.835 161.05L177.765 121.71H150.451L166.669 160.196H113.79C103.594 160.196 93.9707 156.181 86.6943 148.89C79.418 141.595 75.4053 131.951 75.4053 121.735C75.4053 111.52 79.418 101.876 86.6943 94.585C93.9697 87.294 103.594 83.2783 113.79 83.2783L164.174 83.2227L153.505 57.5645L113.79 57.6201C78.5088 57.6201 48.5195 86.3789 48.5195 121.735C48.5195 157.092 78.5088 185.854 113.79 185.854H194.901ZM109.502 118.289C116.573 118.289 122.305 112.545 122.305 105.46C122.305 98.375 116.573 92.6309 109.502 92.6309C102.431 92.6309 96.6992 98.375 96.6992 105.46C96.6992 112.545 102.431 118.289 109.502 118.289ZM122.305 138.388C122.305 145.473 116.573 151.217 109.502 151.217C102.431 151.217 96.6992 145.473 96.6992 138.388C96.6992 131.303 102.431 125.559 109.502 125.559C116.573 125.559 122.305 131.303 122.305 138.388Z" fill="white"/>
<path d="M194.901 161.05H197.343V158.682L194.976 158.609L194.901 161.05ZM194.901 185.853V188.294H197.343V185.853H194.901ZM194.835 161.048L192.595 162.02L193.212 163.44L194.761 163.488L194.835 161.048ZM177.765 121.708L180.005 120.735L179.367 119.267H177.765V121.708ZM150.451 121.708V119.267H146.773L148.202 122.655L150.451 121.708ZM166.669 160.194V162.636H170.347L168.919 159.246L166.669 160.194ZM113.79 83.2764V85.7178H113.792L113.79 83.2764ZM164.174 83.2207L164.177 85.6621L167.832 85.6582L166.429 82.2832L164.174 83.2207ZM153.505 57.5625L155.759 56.625L155.133 55.1191L153.501 55.1211L153.505 57.5625ZM113.79 57.6182V60.0596H113.793L113.79 57.6182ZM192.46 161.05V185.853H197.343V161.05H192.46ZM194.761 163.488L194.827 163.49L194.976 158.609L194.909 158.607L194.761 163.488ZM175.525 122.68L192.595 162.02L197.074 160.076L180.005 120.735L175.525 122.68ZM150.451 124.149H177.765V119.267H150.451V124.149ZM168.919 159.246L152.701 120.76L148.202 122.655L164.419 161.143L168.919 159.246ZM113.79 162.636H166.669V157.753H113.79V162.636ZM84.9658 150.612C92.6953 158.357 102.938 162.636 113.79 162.636V157.753C104.25 157.753 95.2451 154.001 88.4219 147.163L84.9658 150.612ZM72.9639 121.733C72.9639 132.603 77.2373 142.864 84.9658 150.612L88.4229 147.164C81.5977 140.321 77.8467 131.296 77.8467 121.733H72.9639ZM84.9658 92.8584C77.2373 100.603 72.9639 110.864 72.9639 121.733H77.8467C77.8467 112.17 81.5977 103.146 88.4229 96.3076L84.9658 92.8584ZM113.79 80.835C102.938 80.835 92.6953 85.1133 84.9658 92.8584L88.4229 96.3076C95.2461 89.4697 104.25 85.7178 113.79 85.7178V80.835ZM164.171 80.7793L113.787 80.835L113.792 85.7178L164.177 85.6621L164.171 80.7793ZM151.25 58.5L161.92 84.1582L166.429 82.2832L155.759 56.625L151.25 58.5ZM113.793 60.0596L153.508 60.0039L153.501 55.1211L113.786 55.1768L113.793 60.0596ZM50.9609 121.733C50.9609 87.7832 79.7988 60.0596 113.79 60.0596V55.1768C77.2188 55.1768 46.0781 84.9707 46.0781 121.733H50.9609ZM113.79 183.411C79.7988 183.411 50.9609 155.684 50.9609 121.733H46.0781C46.0781 158.496 77.2188 188.294 113.79 188.294V183.411ZM194.901 183.411H113.79V188.294H194.901V183.411ZM119.863 105.458C119.863 111.199 115.22 115.846 109.502 115.846V120.729C117.926 120.729 124.746 113.887 124.746 105.458H119.863ZM109.502 95.0703C115.22 95.0703 119.863 99.7168 119.863 105.458H124.746C124.746 97.0293 117.926 90.1875 109.502 90.1875V95.0703ZM99.1406 105.458C99.1406 99.7168 103.784 95.0703 109.502 95.0703V90.1875C101.078 90.1875 94.2578 97.0293 94.2578 105.458H99.1406ZM109.502 115.846C103.784 115.846 99.1406 111.199 99.1406 105.458H94.2578C94.2578 113.887 101.078 120.729 109.502 120.729V115.846ZM109.502 153.656C117.926 153.656 124.746 146.814 124.746 138.386H119.863C119.863 144.127 115.22 148.773 109.502 148.773V153.656ZM94.2578 138.386C94.2578 146.814 101.078 153.656 109.502 153.656V148.773C103.784 148.773 99.1406 144.127 99.1406 138.386H94.2578ZM109.502 123.115C101.078 123.115 94.2578 129.957 94.2578 138.386H99.1406C99.1406 132.644 103.784 127.998 109.502 127.998V123.115ZM124.746 138.386C124.746 129.957 117.926 123.115 109.502 123.115V127.998C115.22 127.998 119.863 132.644 119.863 138.386H124.746Z" fill="black"/>
</g>
</g>
<defs>
<linearGradient id="paint0_linear_242_94798" x1="125" y1="0" x2="125" y2="250" gradientUnits="userSpaceOnUse">
<stop stop-color="#B3B2D3"/>
<stop offset="0.526" stop-color="#8C8ADA"/>
<stop offset="1" stop-color="#6D69DE"/>
</linearGradient>
<clipPath id="clip0_242_94798">
<rect width="250" height="250" fill="white"/>
</clipPath>
</defs>
</svg>
