<svg width="250" height="250" viewBox="0 0 250 250" fill="none" xmlns="http://www.w3.org/2000/svg">
<g clip-path="url(#clip0_242_94795)">
<path d="M125.002 250C194.038 250 250.002 194.036 250.002 125C250.002 55.9644 194.038 0 125.002 0C55.9664 0 0.00195312 55.9644 0.00195312 125C0.00195312 194.036 55.9664 250 125.002 250Z" fill="#EDF0F4"/>
<path d="M153.294 189.934H96.873V197.496H153.294V189.934Z" fill="#681AF1"/>
<path d="M167.832 182.375H81.7461V189.938H167.832V182.375Z" fill="#681AF1"/>
<path d="M174.813 174.812H74.7676V182.375H174.813V174.812Z" fill="#681AF1"/>
<path d="M182.377 167.248H66.627V174.811H182.377V167.248Z" fill="#781CF2"/>
<path d="M189.939 159.689H60.2285V167.252H189.939V159.689Z" fill="#781CF2"/>
<path d="M189.939 152.127H60.2285V159.689H189.939V152.127Z" fill="#781CF2"/>
<path d="M196.916 97.4492H52.6641V109.082H196.916V97.4492Z" fill="#E740EC"/>
<path d="M189.939 82.3281H60.2285V97.4513H189.939V82.3281Z" fill="#E740EC"/>
<path d="M182.376 74.7656H67.207V82.3282H182.376V74.7656Z" fill="#E740EC"/>
<path d="M174.813 67.2031H74.1855V74.7657H174.813V67.2031Z" fill="#E740EC"/>
<path d="M167.832 59.6426H81.7461V67.2052H167.832V59.6426Z" fill="#E740EC"/>
<path d="M153.294 52.0801H96.873V59.6427H153.294V52.0801Z" fill="#E740EC"/>
<path d="M196.917 130.604H52.084V152.125H196.917V130.604Z" fill="#9521F2"/>
<path d="M196.917 109.084H52.084V130.605H196.917V109.084Z" fill="#B828F3"/>
<path d="M92.2159 136.422H77.0938V141.657H92.2159V136.422Z" fill="white"/>
<path d="M97.4518 110.828H77.0938V116.064H97.4518V110.828Z" fill="white"/>
<path d="M107.341 110.828H102.105V141.656H107.341V110.828Z" fill="white"/>
<path d="M125.374 110.828H120.139V141.656H125.374V110.828Z" fill="white"/>
<path d="M97.4509 123.045H81.7461V128.281H97.4509V123.045Z" fill="white"/>
<path d="M120.137 123.045H107.342V128.28H120.137V123.045Z" fill="white"/>
<path d="M148.059 136.422H130.027V141.658H148.059V136.422Z" fill="white"/>
<path d="M173.65 115.482H168.414V141.657H173.65V115.482Z" fill="white"/>
<path d="M145.149 141.658H139.914V146.893H145.149V141.658Z" fill="white"/>
<path d="M153.294 128.277H148.059V136.42H153.294V128.277Z" fill="white"/>
<path d="M135.263 115.482H130.027V123.625H135.263V115.482Z" fill="white"/>
<path d="M148.057 123.623H135.262V128.277H148.057V123.623Z" fill="white"/>
<path d="M153.293 110.828H135.262V115.482H153.293V110.828Z" fill="white"/>
<path d="M183.539 110.828H158.527V115.482H183.539V110.828Z" fill="white"/>
<path d="M145.731 105.596H140.496V110.831H145.731V105.596Z" fill="white"/>
<path d="M97.454 128.277H92.2188V136.42H97.454V128.277Z" fill="white"/>
<path d="M77.095 116.064H71.8594V136.423H77.095V116.064Z" fill="white"/>
</g>
<defs>
<clipPath id="clip0_242_94795">
<rect width="250" height="250" fill="white"/>
</clipPath>
</defs>
</svg>
