<svg width="250" height="250" viewBox="0 0 250 250" fill="none" xmlns="http://www.w3.org/2000/svg">
<rect width="250" height="250" rx="125" fill="white"/>
<g clip-path="url(#clip0_242_94510)">
<path d="M210.002 149.388L177.612 130.642C177.465 130.552 177.317 130.466 177.166 130.384C175.999 129.749 174.718 129.35 173.397 129.21C172.076 129.07 170.74 129.191 169.466 129.568C168.192 129.944 167.004 130.567 165.971 131.402C164.937 132.237 164.079 133.268 163.444 134.435C162.809 135.602 162.41 136.883 162.269 138.204C162.129 139.525 162.251 140.861 162.627 142.135C163.003 143.409 163.627 144.597 164.462 145.63C165.297 146.663 166.327 147.522 167.494 148.157L191.523 162.036C171.073 195.861 127.523 207.438 92.9755 188.233C57.5188 168.523 44.7542 123.801 64.4638 88.3438C84.1734 52.8872 128.897 40.1223 164.354 59.8331L155.945 74.4018C143.111 67.3252 128.034 65.4986 113.881 69.3059C83.6724 77.4329 65.7724 108.509 73.8984 138.718C82.0245 168.926 113.102 186.826 143.31 178.7C147.006 177.721 150.595 176.375 154.023 174.683C156.426 173.488 158.255 171.388 159.109 168.844C159.963 166.3 159.771 163.521 158.576 161.119C157.381 158.716 155.281 156.887 152.737 156.033C150.193 155.179 147.414 155.371 145.012 156.566C139.113 159.531 132.519 160.836 125.936 160.342C119.353 159.848 113.027 157.574 107.637 153.763C102.247 149.951 97.9936 144.746 95.3333 138.704C92.6729 132.662 91.7052 126.01 92.5336 119.461C93.3619 112.911 95.9553 106.71 100.036 101.521C104.117 96.3314 109.532 92.349 115.702 89.9998C121.871 87.6506 128.564 87.0228 135.063 88.1836C141.561 89.3445 147.623 92.2503 152.597 96.5901C153.723 97.5698 155.051 98.2884 156.486 98.6944C157.922 99.1005 159.43 99.184 160.901 98.9389C162.373 98.6939 163.772 98.1263 164.999 97.2769C166.226 96.4275 167.249 95.3174 167.996 94.0259L186.703 61.6078C187.95 59.4495 188.355 56.907 187.842 54.4681C187.33 52.0291 185.935 49.8652 183.925 48.3913C168.027 36.7782 148.874 30.4689 129.186 30.3594L126.131 18.932C126.12 18.8892 126.108 18.8463 126.096 18.8034C125.385 16.2164 123.675 14.0179 121.343 12.6916C119.011 11.3653 116.247 11.0199 113.66 11.7312C111.073 12.4426 108.874 14.1525 107.548 16.4848C106.222 18.8171 105.876 21.5807 106.588 24.1677L108.809 32.4622C103.286 33.6538 97.8825 35.3463 92.6666 37.5188L90.2649 28.5531C89.9245 27.2635 89.3328 26.0538 88.5239 24.9934C87.7149 23.9329 86.7046 23.0426 85.5508 22.3735C84.397 21.7044 83.1225 21.2696 81.8003 21.0942C80.4782 20.9187 79.1344 21.006 77.846 21.351C76.5576 21.696 75.35 22.2919 74.2925 23.1046C73.2349 23.9173 72.3482 24.9308 71.6832 26.087C71.0182 27.2431 70.588 28.5192 70.4172 29.8419C70.2464 31.1647 70.3384 32.5082 70.688 33.7953L74.4024 47.6549C50.5281 64.6432 34.9599 92.5439 34.9727 124.077C34.9918 172.842 72.265 212.888 119.869 217.318L123.58 231.164C124.155 233.314 125.423 235.216 127.188 236.573C128.953 237.929 131.116 238.666 133.342 238.669V238.649C134.891 238.644 136.418 238.284 137.806 237.597C139.194 236.91 140.406 235.914 141.35 234.686C142.293 233.458 142.943 232.03 143.25 230.512C143.556 228.994 143.511 227.426 143.117 225.928L140.709 216.945C146.321 216.217 151.855 214.981 157.243 213.252L159.467 221.556C160.044 223.705 161.312 225.604 163.077 226.959C164.841 228.314 167.003 229.051 169.227 229.054C170.114 229.055 170.997 228.938 171.852 228.706L171.863 228.703C173.145 228.359 174.347 227.766 175.4 226.958C176.453 226.149 177.337 225.141 178.001 223.992C178.664 222.842 179.095 221.572 179.268 220.256C179.441 218.94 179.353 217.602 179.009 216.32L175.95 204.894C192.835 195.023 206.205 180.113 214.187 162.256C215.203 159.974 215.337 157.395 214.565 155.019C213.792 152.643 212.167 150.637 210.002 149.388Z" fill="#E83B41"/>
</g>
<defs>
<clipPath id="clip0_242_94510">
<rect width="227.302" height="227.302" fill="white" transform="translate(11.3652 11.3633)"/>
</clipPath>
</defs>
</svg>
