<svg width="250" height="250" viewBox="0 0 250 250" fill="none" xmlns="http://www.w3.org/2000/svg">
<g clip-path="url(#clip0_242_94115)">
<path d="M124.998 249.996C194.034 249.996 249.998 194.032 249.998 124.996C249.998 55.9605 194.034 -0.00390625 124.998 -0.00390625C55.9625 -0.00390625 -0.00195312 55.9605 -0.00195312 124.996C-0.00195312 194.032 55.9625 249.996 124.998 249.996Z" fill="#7C5D00"/>
<path d="M125 239.996C188.513 239.996 240 188.509 240 124.996C240 61.4833 188.513 9.99609 125 9.99609C61.4873 9.99609 10 61.4833 10 124.996C10 188.509 61.4873 239.996 125 239.996Z" fill="#EED554"/>
<path d="M124.997 229.996C182.987 229.996 229.997 182.986 229.997 124.996C229.997 67.0062 182.987 19.9961 124.997 19.9961C67.0072 19.9961 19.9971 67.0062 19.9971 124.996C19.9971 182.986 67.0072 229.996 124.997 229.996Z" fill="#F1C700"/>
<path fill-rule="evenodd" clip-rule="evenodd" d="M194.895 118.062H147.969C145.152 118.062 142.868 120.346 142.868 123.164V135.655C142.868 138.473 145.152 140.757 147.969 140.757H173.73C166.852 156.957 150.784 168.347 132.105 168.347C116.046 168.347 101.926 159.921 93.9072 147.265H103.31C106.128 147.265 108.412 144.981 108.412 142.164V137.682C108.412 134.864 106.128 132.58 103.31 132.58H87.9043C87.2554 129.537 86.9077 126.384 86.9077 123.15C86.9077 120.562 87.1379 118.029 87.5578 115.559H103.31C106.128 115.559 108.412 113.274 108.412 110.457V105.975C108.412 103.158 106.128 100.873 103.31 100.873H92.8031C100.584 87.2008 115.28 77.9531 132.105 77.9531C146.069 77.9531 158.571 84.3205 166.865 94.3044C168.776 96.6053 172.281 96.6975 174.379 94.5654C178.786 90.0891 183.072 85.7817 186.443 82.4902C174.047 65.9673 154.303 55.2578 132.105 55.2578C102.469 55.2578 77.2108 74.3466 67.9704 100.873H55.0988C52.2813 100.873 49.9971 103.158 49.9971 105.975V110.457C49.9971 113.274 52.2813 115.559 55.0988 115.559H64.6389C64.3599 118.052 64.2123 120.584 64.2123 123.15C64.2123 126.35 64.44 129.497 64.8698 132.58H55.0988C52.2813 132.58 49.9971 134.864 49.9971 137.682V142.164C49.9971 144.981 52.2813 147.265 55.0988 147.265H68.6413C78.3889 172.831 103.158 191.043 132.105 191.043C169.541 191.043 199.997 160.586 199.997 123.15V123.099C199.995 120.307 197.687 118.062 194.895 118.062Z" fill="white"/>
</g>
<defs>
<clipPath id="clip0_242_94115">
<rect width="250" height="250" rx="125" fill="white"/>
</clipPath>
</defs>
</svg>
