<svg width="250" height="250" viewBox="0 0 250 250" fill="none" xmlns="http://www.w3.org/2000/svg">
<rect width="250" height="250" rx="125" fill="white"/>
<g clip-path="url(#clip0_242_94518)">
<path d="M173.331 224.887H86.7132C78.0514 224.887 69.9319 220.014 65.6003 212.436L21.75 137.189C17.4193 129.61 17.4193 120.407 21.75 113.369L65.6003 37.0368C69.9311 29.4577 77.5102 25.127 86.1718 25.127H173.331C181.992 25.127 190.654 29.9996 194.985 37.578L226.384 92.2549C226.646 92.5548 226.79 92.9395 226.79 93.3377C226.79 93.7358 226.646 94.1205 226.384 94.4205C226.384 94.9617 225.843 95.5032 225.301 96.0444L214.474 101.999C203.105 108.496 188.489 104.706 181.992 93.3376L164.669 63.563H128.397V186.45H164.669L182.534 155.593L152.759 138.27C146.804 135.022 143.014 128.525 143.014 121.489V92.2549C143.014 91.1722 143.555 90.631 144.096 90.0895C145.179 89.5483 145.721 89.5483 146.803 90.0895L218.805 131.233C223.677 133.939 226.925 138.27 228.008 143.142C229.169 148.29 228.398 153.684 225.843 158.3L194.443 212.436C190.654 220.015 182.534 224.887 173.331 224.887ZM86.7132 219.474H173.331C180.368 219.474 186.865 215.684 190.654 209.728L222.053 155.593C224.219 152.345 224.76 148.555 223.677 144.766C222.594 140.976 220.429 137.728 217.181 136.104L202.564 127.984L149.511 97.1263V121.487C149.511 126.36 152.218 131.233 156.549 133.939L188.489 152.345C189.571 152.887 190.113 154.511 189.571 156.135L169.541 190.782C169 191.864 167.917 191.864 167.376 191.864H126.774C125.15 191.864 124.067 190.782 124.067 189.158V60.8564C124.067 59.2323 125.15 58.1496 126.774 58.1496H167.376C168.459 58.1496 169 58.6908 169.541 59.2323L187.407 90.0895C192.28 98.7512 203.648 101.999 212.851 97.1271L221.513 92.2545L191.195 40.2848C186.865 34.3299 180.368 30.5396 173.331 30.5396H86.1718C79.6756 30.5396 73.7206 33.7876 70.4725 39.7426L26.6223 116.075C23.3742 122.029 23.3742 129.067 26.6223 134.481L70.4725 209.729C73.7206 215.684 79.6756 219.474 86.7132 219.474V219.474ZM92.6682 191.864C91.5854 191.864 91.044 191.323 90.5028 190.782L53.1489 126.902C52.8823 126.402 52.7428 125.844 52.7428 125.278C52.7428 124.711 52.8823 124.153 53.1489 123.654L90.5028 59.7737C91.044 58.6908 92.1267 58.1496 93.7508 58.6908C94.8335 59.2323 95.9162 60.315 95.9162 61.3976V189.699C95.9162 190.782 94.8335 191.864 93.7508 192.406C93.47 192.097 93.0839 191.904 92.6682 191.864ZM58.5624 124.736L89.9617 178.872V71.1421L58.5624 124.736Z" fill="url(#paint0_linear_242_94518)"/>
</g>
<defs>
<linearGradient id="paint0_linear_242_94518" x1="123.516" y1="25.127" x2="123.516" y2="224.887" gradientUnits="userSpaceOnUse">
<stop stop-color="#9A23E6"/>
<stop offset="1" stop-color="#5519EE"/>
</linearGradient>
<clipPath id="clip0_242_94518">
<rect width="210.029" height="210.027" fill="white" transform="translate(18.501 19.998)"/>
</clipPath>
</defs>
</svg>
