<svg width="250" height="250" viewBox="0 0 250 250" fill="none" xmlns="http://www.w3.org/2000/svg">
<rect width="250" height="250" rx="125" fill="white"/>
<g clip-path="url(#clip0_242_94498)">
<path fill-rule="evenodd" clip-rule="evenodd" d="M155.851 19.6156C146.473 14.2104 135.839 11.3652 125.015 11.3652C114.191 11.3652 103.557 14.2104 94.179 19.6156L49.0153 45.6418C39.6441 51.0431 31.8608 58.8175 26.4489 68.1827C21.0369 77.5478 18.1872 88.1732 18.1865 98.9897V151.05C18.1886 161.866 21.0398 172.49 26.453 181.854C31.8662 191.218 39.6505 198.991 49.0224 204.39L94.179 230.416C103.557 235.821 114.191 238.666 125.015 238.666C135.839 238.666 146.473 235.821 155.851 230.416L201 204.39C210.375 198.991 218.161 191.217 223.576 181.852C228.991 172.487 231.842 161.86 231.844 151.042V98.9817C231.841 88.1651 228.989 77.5401 223.574 68.1762C218.159 58.8123 210.374 51.04 201 45.6418L155.851 19.6156Z" fill="url(#paint0_linear_242_94498)"/>
<path fill-rule="evenodd" clip-rule="evenodd" d="M181.988 134.037V119.717H133.755V140.104H154.355L154.284 141.88C153.502 153.608 140.858 161.535 127.894 161.535C111.428 161.535 97.2213 147.541 97.2213 124.413C97.2213 101.682 110.413 88.4976 126.651 88.4976C137.654 88.4976 149.673 94.8054 152.486 105.162H180.815C177.925 81.3796 153.887 64.6367 126.574 64.6367C92.5488 64.6367 68.042 86.9628 68.042 124.817C68.042 163.154 92.5488 185.395 127.27 185.395C159.35 185.395 181.988 165.903 181.988 134.037Z" fill="white"/>
</g>
<defs>
<linearGradient id="paint0_linear_242_94498" x1="18.1865" y1="125.016" x2="231.844" y2="125.016" gradientUnits="userSpaceOnUse">
<stop stop-color="#4954D0"/>
<stop offset="1" stop-color="#4B7DCC"/>
</linearGradient>
<clipPath id="clip0_242_94498">
<rect width="227.302" height="227.302" fill="white" transform="translate(11.3633 11.3652)"/>
</clipPath>
</defs>
</svg>
