<svg width="250" height="250" viewBox="0 0 250 250" fill="none" xmlns="http://www.w3.org/2000/svg">
<path d="M116.133 92.1289C135.943 92.1289 147.388 96.2239 153.968 100.529C150.573 99.3039 146.618 99.4439 143.048 101.509L74.9029 141.059C71.6479 142.949 68.1129 143.859 64.5779 143.859C60.8329 143.859 57.1579 142.844 53.9379 140.919C51.0329 139.169 48.5479 136.719 46.7279 133.569C44.8379 130.279 43.9279 126.639 43.9629 123.104C44.0329 116.104 47.7079 109.279 54.1829 105.499L59.7829 102.244C74.3779 97.2389 94.5729 92.1289 116.133 92.1289Z" fill="url(#paint0_linear_242_93488)"/>
<path d="M162.297 109.738C162.227 109.598 162.157 109.423 162.087 109.248C160.932 105.083 157.782 101.933 153.932 100.533C147.352 96.2275 135.907 92.1325 116.097 92.1325C94.5722 92.1325 74.3422 97.2775 59.7822 102.248L114.277 70.5375C116.972 70.2575 119.807 70.0475 121.942 70.0475C127.822 70.0475 142.837 69.5575 153.162 82.0525C160.932 91.3975 162.122 105.328 162.297 109.738Z" fill="url(#paint1_linear_242_93488)"/>
<path d="M205.032 65.8797L204.682 190.585C204.682 196.395 202.302 201.645 198.487 205.425C194.672 209.24 189.422 211.585 183.612 211.585C171.992 211.585 162.542 202.17 162.542 190.55V112.815C162.542 112.36 162.507 111.94 162.472 111.485C162.437 111.065 162.367 110.645 162.297 110.225C162.297 110.085 162.297 109.945 162.297 109.77C162.122 105.36 160.897 91.4297 153.197 82.0847C142.872 69.5547 127.857 70.0797 121.977 70.0797C119.842 70.0797 117.007 70.2897 114.312 70.5697L163.557 41.9397C182.002 31.1947 205.102 44.5647 205.032 65.8797Z" fill="url(#paint2_linear_242_93488)"/>
<path d="M84.4224 179.596L115.607 161.606C119.772 159.191 124.987 162.236 124.952 167.031L124.777 201.576C124.742 206.406 120.437 208.226 115.362 206.931C102.342 203.676 92.1224 197.446 84.3874 188.661C81.4124 185.231 80.9574 181.591 84.4224 179.596Z" fill="url(#paint3_linear_242_93488)"/>
<defs>
<linearGradient id="paint0_linear_242_93488" x1="98.973" y1="143.844" x2="98.973" y2="92.1155" gradientUnits="userSpaceOnUse">
<stop stop-color="#56DDB0"/>
<stop offset="1" stop-color="#156476"/>
</linearGradient>
<linearGradient id="paint1_linear_242_93488" x1="99.8823" y1="125.359" x2="132.962" y2="68.0628" gradientUnits="userSpaceOnUse">
<stop offset="0.3245" stop-color="#66F4AF"/>
<stop offset="1" stop-color="#24637F"/>
</linearGradient>
<linearGradient id="paint2_linear_242_93488" x1="159.677" y1="38.1201" x2="159.677" y2="211.585" gradientUnits="userSpaceOnUse">
<stop stop-color="#50FF93"/>
<stop offset="1" stop-color="#25C2F1"/>
</linearGradient>
<linearGradient id="paint3_linear_242_93488" x1="81.9898" y1="184.068" x2="124.963" y2="184.068" gradientUnits="userSpaceOnUse">
<stop stop-color="#35DAC6"/>
<stop offset="1" stop-color="#30C4DB"/>
</linearGradient>
</defs>
</svg>
