<svg width="250" height="250" viewBox="0 0 250 250" fill="none" xmlns="http://www.w3.org/2000/svg">
<path d="M125 248.004C192.934 248.004 248.005 192.933 248.005 124.999C248.005 57.0653 192.934 1.99414 125 1.99414C57.0663 1.99414 1.99512 57.0653 1.99512 124.999C1.99512 192.933 57.0663 248.004 125 248.004Z" fill="#002D64"/>
<path d="M147.978 106.55C154.054 100.473 157.351 92.4779 157.351 83.8676C157.35 76.3509 154.712 69.0726 149.897 63.3012L168.544 44.6537L164.386 40.6191L145.739 59.2666C139.982 54.4694 132.848 51.8125 125.296 51.8125C107.58 51.8246 93.2281 66.1959 93.2402 83.9117C93.246 92.4007 96.6166 100.541 102.613 106.55C107.927 111.864 114.865 115.185 122.319 115.824V139.466C114.848 140.085 107.852 143.378 102.613 148.74C90.1162 161.28 90.1162 181.565 102.613 194.105C108.69 200.181 116.685 203.478 125.296 203.478C133.804 203.503 141.97 200.129 147.978 194.105C154.054 188.028 157.351 180.033 157.351 171.423C157.351 162.812 154.054 154.817 147.978 148.74C142.664 143.427 135.726 140.106 128.272 139.466V115.824C135.744 115.21 142.742 111.916 147.978 106.55ZM143.82 152.873C148.716 157.867 151.496 164.387 151.496 171.398C151.507 178.349 148.744 185.016 143.82 189.922C138.925 194.916 132.307 197.598 125.296 197.598C118.345 197.609 111.677 194.846 106.771 189.922C101.876 184.928 99.0956 178.409 99.0956 171.398C99.0844 164.447 101.847 157.779 106.771 152.873C111.667 147.879 118.284 145.198 125.296 145.198C132.331 145.222 138.925 147.879 143.82 152.873ZM125.296 110.166C118.345 110.177 111.677 107.414 106.771 102.491C101.875 97.4965 99.0955 90.9772 99.0955 83.966C99.0889 77.0162 101.851 70.35 106.771 65.4415C111.667 60.4475 118.284 57.766 125.296 57.766C132.246 57.7548 138.914 60.5176 143.82 65.4415C148.814 70.3371 151.496 76.9548 151.496 83.966C151.507 90.9167 148.744 97.5846 143.82 102.491C138.924 107.509 132.331 110.166 125.296 110.166Z" fill="white"/>
</svg>
