<svg width="250" height="250" viewBox="0 0 250 250" fill="none" xmlns="http://www.w3.org/2000/svg">
<path d="M123.876 39.7949C170.811 39.7949 208.821 77.8399 208.821 124.74V125.125C208.821 172.06 170.776 210.105 123.841 210.105C117.541 210.105 112.431 204.995 112.431 198.695C112.431 192.395 117.541 187.6 123.841 187.6H124.366C157.791 187.6 185.931 160.16 185.931 126.735V118.545C185.931 115.885 183.761 113.715 180.086 113.715H123.316C116.911 113.715 111.731 118.895 111.731 125.3C111.731 131.355 116.666 136.29 122.721 136.29H155.691C157.616 136.29 159.191 137.865 159.191 139.79C159.191 147.35 143.721 164.115 126.186 164.115H123.666C101.616 164.115 83.6958 146.3 83.5908 124.215C83.5908 123.83 83.5908 123.445 83.5908 123.095C84.1858 98.2449 108.791 80.0799 134.726 87.4999C144.211 90.2299 148.656 97.2649 158.491 97.2649C163.951 97.2649 168.396 92.8549 168.466 87.3949C168.466 74.5149 145.961 63.1749 129.441 62.3349H123.876C117.576 62.3349 112.431 57.9249 112.291 51.6249C112.151 45.1499 117.401 39.7949 123.876 39.7949Z" fill="#232A7E"/>
<path d="M88.8405 71.1536C94.5621 71.1536 99.2005 66.5153 99.2005 60.7936C99.2005 55.0719 94.5621 50.4336 88.8405 50.4336C83.1188 50.4336 78.4805 55.0719 78.4805 60.7936C78.4805 66.5153 83.1188 71.1536 88.8405 71.1536Z" fill="#008BCD"/>
<path d="M62.5563 98.8411C68.278 98.8411 72.9163 94.2028 72.9163 88.4811C72.9163 82.7594 68.278 78.1211 62.5563 78.1211C56.8346 78.1211 52.1963 82.7594 52.1963 88.4811C52.1963 94.2028 56.8346 98.8411 62.5563 98.8411Z" fill="#008BCD"/>
<path d="M51.986 135.136C57.7076 135.136 62.346 130.498 62.346 124.776C62.346 119.054 57.7076 114.416 51.986 114.416C46.2643 114.416 41.626 119.054 41.626 124.776C41.626 130.498 46.2643 135.136 51.986 135.136Z" fill="#008BCD"/>
<path d="M62.276 171.218C67.9977 171.218 72.636 166.58 72.636 160.858C72.636 155.136 67.9977 150.498 62.276 150.498C56.5543 150.498 51.916 155.136 51.916 160.858C51.916 166.58 56.5543 171.218 62.276 171.218Z" fill="#008BCD"/>
<path d="M88.8405 199.394C94.5621 199.394 99.2005 194.756 99.2005 189.034C99.2005 183.312 94.5621 178.674 88.8405 178.674C83.1188 178.674 78.4805 183.312 78.4805 189.034C78.4805 194.756 83.1188 199.394 88.8405 199.394Z" fill="#008BCD"/>
</svg>
