<svg width="250" height="250" viewBox="0 0 250 250" fill="none" xmlns="http://www.w3.org/2000/svg">
<path d="M125.599 248.3C193.751 248.3 248.999 193.052 248.999 124.9C248.999 56.7481 193.751 1.5 125.599 1.5C57.4473 1.5 2.19922 56.7481 2.19922 124.9C2.19922 193.052 57.4473 248.3 125.599 248.3Z" fill="#FBE300"/>
<path fill-rule="evenodd" clip-rule="evenodd" d="M103.049 138C90.8988 138 81.0488 147.9 81.0488 160.05C81.0488 161.25 81.1488 162.4 81.3488 163.55H93.4488C93.0488 162.45 92.7988 161.3 92.7988 160.05C92.7988 154.4 97.3988 149.75 103.049 149.75C108.699 149.75 113.299 154.35 113.299 160.05C113.299 161.3 113.049 162.45 112.649 163.55H124.749C124.949 162.4 125.049 161.25 125.049 160.05C125.049 147.9 115.199 138 103.049 138Z" fill="#00191B"/>
<path fill-rule="evenodd" clip-rule="evenodd" d="M191.799 145.702C187.299 144.952 182.999 147.052 180.699 150.702C180.249 153.502 179.649 156.302 178.849 159.002C177.949 162.102 179.749 165.402 182.849 166.302C183.399 166.452 183.949 166.552 184.499 166.552C187.049 166.552 189.399 164.852 190.149 162.302C191.649 157.002 192.649 151.552 193.099 146.052C192.649 145.902 192.249 145.802 191.799 145.702Z" fill="#00191B"/>
<path fill-rule="evenodd" clip-rule="evenodd" d="M152.348 111.6C155.598 111.6 158.198 108.95 158.198 105.7C158.198 102.451 155.548 99.8008 152.348 99.8008C149.149 99.8008 146.499 102.451 146.499 105.7C146.449 108.95 149.099 111.6 152.348 111.6Z" fill="#00191B"/>
<path fill-rule="evenodd" clip-rule="evenodd" d="M213.899 130.299C213.249 128.449 211.199 127.549 209.399 128.199C204.149 130.099 198.649 131.299 193.149 131.799C191.249 109.449 180.599 87.6487 164.349 73.5987C150.699 61.7987 134.399 56.5987 118.349 58.9487C99.9992 61.6487 87.1992 75.0487 87.1992 91.4987C87.1992 104.299 94.7492 115.399 105.649 120.499L114.649 111.249C105.649 109.199 98.9492 101.099 98.9492 91.4987C98.9492 82.8987 105.549 72.6987 120.049 70.5487C136.199 68.1487 148.849 75.6987 156.649 82.4487C170.349 94.3487 179.449 112.699 181.299 131.699C172.449 130.849 163.899 128.149 156.349 123.899C155.199 123.249 153.799 122.999 152.399 123.249C149.299 123.849 147.249 126.899 147.899 129.999L147.949 130.349C149.949 139.449 149.849 149.049 147.749 158.099C147.349 159.899 146.799 161.699 146.249 163.449H158.499C158.749 162.549 158.949 161.649 159.199 160.799C160.949 153.349 161.499 145.699 160.949 138.099C167.749 140.149 174.799 141.149 181.799 141.199C192.299 141.249 202.699 138.949 212.099 134.649C213.699 133.999 214.499 132.049 213.899 130.299Z" fill="#00191B"/>
<path fill-rule="evenodd" clip-rule="evenodd" d="M80.848 94.5C81.648 92.9 82.098 91.2 82.098 89.4C82.098 86.4 81.048 83.6 79.198 81.25C58.248 94.7 44.998 118.2 44.998 143.9C44.998 150.6 45.898 157.2 47.648 163.6H59.898C57.798 157.3 56.748 150.7 56.748 143.9C56.698 124.25 65.898 106.15 80.848 94.5Z" fill="#00191B"/>
</svg>
