<svg width="250" height="250" viewBox="0 0 250 250" fill="none" xmlns="http://www.w3.org/2000/svg">
<rect width="250" height="250" rx="125" fill="white"/>
<g clip-path="url(#clip0_242_94512)">
<path d="M125.016 11.3652C62.2485 11.3652 11.3652 62.2485 11.3652 125.016C11.3652 187.784 62.2485 238.668 125.016 238.668C187.784 238.668 238.668 187.784 238.668 125.016C238.668 62.2485 187.784 11.3652 125.016 11.3652ZM197.344 197.344C179.408 215.228 155.457 225.794 130.156 226.983C104.856 228.172 80.0188 219.898 60.4851 203.775C40.9515 187.651 28.1205 164.833 24.4922 139.765C20.864 114.698 26.6985 89.178 40.8588 68.1777C55.0191 47.1773 76.4908 32.2012 101.09 26.1674C125.689 20.1337 151.654 23.4746 173.924 35.5392C196.195 47.6037 213.176 67.5277 221.559 91.4287C229.941 115.33 229.125 141.496 219.269 164.828C214.134 176.983 206.688 188.026 197.344 197.344Z" fill="#FFAA00"/>
<path d="M125.015 36.4512C76.1015 36.4512 36.4492 76.1034 36.4492 125.017C36.4492 173.93 76.1015 213.583 125.015 213.583C173.928 213.583 213.581 173.93 213.581 125.017C213.581 76.1034 173.928 36.4512 125.015 36.4512ZM202.215 125.017C202.187 144.085 195.078 162.462 182.266 176.585C169.455 190.708 151.855 199.569 132.88 201.45C113.905 203.331 94.9079 198.097 79.5734 186.764C64.2389 175.431 53.6601 158.807 49.8889 140.115C46.1178 121.424 49.4231 101.998 59.1638 85.6064C68.9046 69.2142 84.3863 57.0241 102.606 51.4005C120.826 45.7769 140.485 47.1207 157.77 55.1713C175.055 63.2218 188.734 77.4053 196.153 94.9704C200.175 104.476 202.237 114.696 202.215 125.017Z" fill="#FFAA00"/>
<path d="M143.429 71.0957H132.293V79.3511H125.065V71.0957H114.629L114.821 79.7357C104.645 80.6956 94.0856 90.8715 94.0856 90.8715C75.0779 108.151 80.8378 134.839 80.8378 134.839C85.0617 160.951 114.821 165.751 114.821 165.751V174.391H125.066V167.479H132.677V174.391H143.237L143.045 166.903C149.957 166.711 159.557 162.103 159.557 162.103V118.711H129.605L129.413 129.846H144.005L144.389 150.006C143.045 151.542 128.837 152.502 128.837 152.502C95.2385 154.231 96.3896 124.279 96.3896 124.279C96.3896 124.279 98.1171 99.7033 118.853 94.5194C139.589 89.3356 159.557 97.3989 159.557 97.3989V83.5755C155.717 81.4636 143.429 79.5436 143.429 79.5436V71.0957Z" fill="#FFAA00"/>
</g>
<defs>
<clipPath id="clip0_242_94512">
<rect width="227.302" height="227.302" fill="white" transform="translate(11.3652 11.3633)"/>
</clipPath>
</defs>
</svg>
