<svg width="250" height="250" viewBox="0 0 250 250" fill="none" xmlns="http://www.w3.org/2000/svg">
<g clip-path="url(#clip0_242_94129)">
<path d="M124.998 249.996C194.034 249.996 249.998 194.032 249.998 124.996C249.998 55.9605 194.034 -0.00390625 124.998 -0.00390625C55.9624 -0.00390625 -0.00195312 55.9605 -0.00195312 124.996C-0.00195312 194.032 55.9624 249.996 124.998 249.996Z" fill="#5411B3"/>
<path fill-rule="evenodd" clip-rule="evenodd" d="M125.412 39.0586C129.553 41.5508 133.662 44.0977 137.834 46.5273C157.639 58.0117 177.443 69.4805 197.272 80.918C198.576 81.668 199.154 82.5039 199.154 84.1055C199.115 111.387 199.123 138.668 199.217 165.949C199.217 167.73 198.404 168.473 197.107 169.223C173.537 182.863 149.983 196.527 126.428 210.191C126.068 210.402 125.748 210.684 125.412 210.934H124.553C117.443 206.746 110.334 202.52 103.201 198.371C86.3731 188.598 69.5294 178.84 52.67 169.129C51.2403 168.309 50.7716 167.371 50.7794 165.73C50.8575 138.668 50.8731 111.605 50.8185 84.5352C50.8185 82.5977 51.4825 81.6211 53.0763 80.707C76.4278 67.2383 99.7403 53.7227 123.061 40.207C123.6 39.8945 124.061 39.4414 124.553 39.0586H125.412ZM147.334 175.621C150.561 177.832 153.717 180.152 156.967 182.496C157.147 182.418 157.412 182.309 157.654 182.176C168.201 176.074 178.772 169.988 189.287 163.816C189.912 163.449 190.459 162.371 190.459 161.629C190.514 137.207 190.506 112.793 190.436 88.3789C190.4 87.9539 190.273 87.5417 190.062 87.1708C189.852 86.7998 189.563 86.479 189.217 86.2305C178.826 80.1211 168.381 74.1211 157.983 68.0352C156.904 67.4102 156.303 67.5977 155.389 68.3086C152.865 70.2852 128.053 85.4414 118.334 91.2773C110.74 95.8242 103.318 100.621 97.4435 107.449C89.3419 116.863 88.5841 129.91 95.67 140.145C99.1778 145.223 103.858 149.082 108.873 152.512C112.873 155.238 116.998 157.77 121.061 160.387C120.951 160.543 120.889 160.699 120.779 160.762C115.42 163.871 110.076 167.012 104.654 170.035C104.131 170.324 103.045 170.035 102.451 169.66C96.6911 165.943 91.4071 161.535 86.7169 156.535C73.2013 142.363 70.4513 119.137 80.3106 102.191C84.8519 94.3743 91.1677 87.7347 98.7481 82.8086C108.592 76.3711 136.014 60.0977 139.647 57.8711C139.334 57.4648 139.248 57.2461 139.084 57.1445C134.772 54.6289 130.49 52.0664 126.115 49.668C125.475 49.3164 124.311 49.4492 123.615 49.8086C121.209 51.0508 118.904 52.4805 116.568 53.8477C114.506 55.0508 112.451 56.2695 110.084 57.668L121.318 64.7305C115.576 68.1211 110.147 71.3711 104.654 74.5195C104.217 74.7695 103.279 74.5742 102.803 74.2461C100.083 72.4157 97.4301 70.4873 94.8497 68.4648C93.7169 67.5664 92.9669 67.4805 91.7013 68.2227C81.4841 74.1974 71.2392 80.1246 60.9669 86.0039C59.8341 86.6523 59.4669 87.4102 59.4669 88.7227C59.506 112.926 59.4981 137.129 59.4591 161.324C59.4591 162.621 59.795 163.387 60.9591 164.059C71.1622 169.902 81.3341 175.809 91.4825 181.754C92.6075 182.418 93.3575 182.387 94.4903 181.629C101.772 176.762 135.084 155.879 144.342 150.121C145.912 149.145 147.233 147.746 148.654 146.543L148.42 145.996H113.842C117.358 139.887 120.639 134.121 124.037 128.426C124.35 127.91 125.498 127.691 126.264 127.691C141.943 127.652 157.631 127.668 173.311 127.668C173.936 127.668 174.561 127.738 175.318 127.777C175.358 128.52 175.529 129.184 175.389 129.762C174.358 134.051 173.67 138.48 172.108 142.574C168.404 152.309 161.537 159.793 153.17 165.559C144.029 171.848 114.928 188.996 109.99 191.941C110.225 192.355 110.256 192.527 110.358 192.59C113.365 194.363 116.592 195.848 119.334 197.973C123.279 201.02 126.717 201.004 130.662 197.973C133.506 195.793 136.834 194.254 140.279 192.23L128.842 185.082C129.154 184.809 129.334 184.59 129.561 184.457C134.795 181.418 140.029 178.363 145.311 175.395C145.811 175.121 146.826 175.27 147.334 175.621ZM169.943 102.676C172.639 107.457 174.647 113.605 174.943 118.348C169.647 118.348 164.537 118.379 159.42 118.309C158.951 118.301 158.217 117.762 158.068 117.309C155.568 109.59 150.233 104.105 143.928 99.4961C139.451 96.2227 134.686 93.3398 130.053 90.2773C129.662 90.0273 129.279 89.7539 128.647 89.3164C129.701 88.6836 130.522 88.1758 131.365 87.6836C135.678 85.1836 139.959 82.6289 144.334 80.2227C145.115 79.7852 146.522 79.5195 147.154 79.9336C156.295 85.9414 164.459 92.957 169.943 102.676Z" fill="white"/>
</g>
<defs>
<clipPath id="clip0_242_94129">
<rect width="250" height="250" rx="125" fill="white"/>
</clipPath>
</defs>
</svg>
