<svg width="250" height="250" viewBox="0 0 250 250" fill="none" xmlns="http://www.w3.org/2000/svg">
<rect width="250" height="250" rx="125" fill="white"/>
<path d="M68.5215 111.209H45.444C45.4015 110.912 45.4015 110.614 45.444 110.317C48.5465 94.5916 51.479 78.8241 54.7515 63.0991C57.174 51.7941 69.754 41.8066 81.144 41.8066C119.394 41.8066 157.601 41.8066 195.851 41.8066H197.764L193.259 64.9691H84.884C79.614 64.9691 77.064 67.0516 76.0865 72.2791L68.989 108.744L68.5215 111.209Z" fill="black"/>
<path d="M179.787 134.543H202.864C202.779 135.138 202.779 135.648 202.694 136.158C199.677 151.543 196.829 166.97 193.599 182.355C191.177 193.873 178.682 203.903 167.207 203.903C128.829 203.945 90.4519 203.945 52.1169 203.903H50.5869L55.0919 180.783H163.339C168.779 180.783 171.202 178.743 172.264 173.345C174.602 161.19 176.982 149.035 179.362 136.88L179.787 134.543Z" fill="black"/>
<path d="M156.581 134.543L152.076 157.663H59.511L55.0485 180.528L18.626 134.543H156.581Z" fill="black"/>
<path d="M229.724 111.209H91.7266L96.2316 88.0891H188.797L193.259 65.1816L229.724 111.209Z" fill="black"/>
</svg>
