<svg width="250" height="250" viewBox="0 0 250 250" fill="none" xmlns="http://www.w3.org/2000/svg">
<path d="M127.735 125.149C127.757 125.149 127.775 125.166 127.775 125.189C127.775 152.979 127.794 180.769 127.765 208.559C127.755 218.665 124.248 222.215 114.28 222.23C94.1695 222.259 74.0593 222.267 53.9491 222.218C43.8231 222.193 39.1843 216.13 43.7578 207.251C51.0914 193.014 52.2198 178.162 51.9818 162.569C51.4912 130.402 51.828 98.2209 51.9 66.0458C51.9511 43.1717 67.2168 27.8847 89.9529 27.8099C97.9971 27.7836 106.041 27.7832 114.085 27.8032C124.423 27.8292 127.673 30.9909 127.685 41.2128C127.716 69.1782 127.696 97.1437 127.696 125.109C127.696 125.131 127.713 125.148 127.735 125.149Z" fill="url(#paint0_linear_242_93500)"/>
<path d="M142.182 170.121C142.19 170.121 142.196 170.115 142.196 170.107C142.196 157.168 142.14 144.228 142.217 131.289C142.265 123 145.026 120.226 153.274 120.197C168.667 120.143 184.062 120.124 199.454 120.259C207.268 120.327 212.113 125.942 208.665 132.673C201.337 146.974 203.564 161.985 203.212 176.872C203.092 181.941 203.306 187.02 203.158 192.089C202.659 209.231 189.588 221.973 172.398 222.124C166.101 222.18 159.798 222.276 153.507 222.066C146.02 221.817 142.256 217.973 142.198 210.528C142.094 197.064 142.168 183.6 142.169 170.135C142.169 170.128 142.175 170.121 142.182 170.121Z" fill="url(#paint1_linear_242_93500)"/>
<path d="M142.116 67.8095C142.129 67.8095 142.14 67.7986 142.14 67.7851C142.14 58.3559 142.053 48.9258 142.167 39.4977C142.262 31.5892 145.934 27.9314 153.762 27.8173C160.402 27.7205 167.047 27.6914 173.686 27.8236C189.696 28.1419 202.797 40.8161 203.179 56.761C203.502 70.2103 203.345 83.6738 203.254 97.1298C203.21 103.623 200.21 107.732 193.643 108.032C179.876 108.661 166.052 108.768 152.28 108.282C145.313 108.037 142.217 103.773 142.123 96.6454C141.995 87.043 142.091 77.4379 142.091 67.8339C142.091 67.8205 142.102 67.8095 142.116 67.8095Z" fill="url(#paint2_linear_242_93500)"/>
<defs>
<linearGradient id="paint0_linear_242_93500" x1="84.8873" y1="28.6523" x2="84.8873" y2="221.943" gradientUnits="userSpaceOnUse">
<stop stop-color="#FDD900"/>
<stop offset="1" stop-color="#F36E1F"/>
</linearGradient>
<linearGradient id="paint1_linear_242_93500" x1="175.968" y1="120.558" x2="175.968" y2="219.961" gradientUnits="userSpaceOnUse">
<stop stop-color="#38E8DC"/>
<stop offset="1" stop-color="#48A9F2"/>
</linearGradient>
<linearGradient id="paint2_linear_242_93500" x1="172.715" y1="28.306" x2="172.715" y2="108.357" gradientUnits="userSpaceOnUse">
<stop stop-color="#D27DFF"/>
<stop offset="1" stop-color="#9453FF"/>
</linearGradient>
</defs>
</svg>
