<svg width="250" height="250" viewBox="0 0 250 250" fill="none" xmlns="http://www.w3.org/2000/svg">
<rect width="250" height="250" rx="125" fill="white"/>
<g clip-path="url(#clip0_242_94511)">
<path fill-rule="evenodd" clip-rule="evenodd" d="M124.98 11.3633C122.355 12.9067 119.76 14.4342 117.195 15.9459C111.726 19.1671 106.39 22.3018 101.188 25.3499V39.3367L102.26 38.7059C110.08 34.1076 117.464 29.7655 124.979 25.4235C132.6 29.8938 140.21 34.3592 147.811 38.8196L147.827 38.8291C168.482 50.9494 189.081 63.0306 209.621 75.0728V175.03C201.987 179.508 194.363 183.982 186.75 188.45L186.676 188.493L186.482 188.606L186.348 188.686C165.836 200.722 145.38 212.72 124.98 224.679C106.359 213.782 87.8927 202.949 69.359 192.074L69.3278 192.056L69.2369 192.003L68.7075 191.692C59.1834 186.105 49.6311 180.502 40.0508 174.883V61.2321C37.693 62.5888 35.5275 63.859 33.4511 65.0774C31.7168 66.0945 30.044 67.076 28.3711 68.0421V181.987C46.9075 192.835 65.4576 203.708 84.0216 214.606L84.0466 214.621L84.0932 214.648C97.7186 222.641 111.372 230.647 125.053 238.666C157.497 219.699 189.7 200.757 221.664 181.84V68.0423L124.98 11.3633Z" fill="#62E0E7"/>
<path fill-rule="evenodd" clip-rule="evenodd" d="M103.427 197.579L103.445 197.59L103.468 197.603L103.539 197.645C110.704 201.844 117.874 206.047 125.05 210.254C133.932 205.046 142.801 199.847 151.659 194.658C166.956 185.694 182.191 176.76 197.363 167.855V82.3238C185.286 75.2572 173.234 68.1906 161.206 61.1243C149.166 54.0577 137.114 46.9911 125.05 39.9244C113.01 46.9545 101.115 53.911 88.6408 61.234V32.748C85.744 34.4844 83.0978 36.0301 80.5986 37.4898C79.3029 38.2463 78.048 38.9793 76.8176 39.7044V82.1775C93.2557 72.5853 109.189 63.2845 125.051 53.9842C130.525 57.1947 135.978 60.3945 141.412 63.5837L141.509 63.6403L141.527 63.6514C156.385 72.3703 171.128 81.0109 185.757 89.5734V160.752C174.839 167.168 163.913 173.574 152.98 179.97L152.94 179.993C143.664 185.426 134.368 190.875 125.05 196.341C104.791 184.404 84.6039 172.542 64.2012 160.605V47.1008C59.8754 49.5905 56.1263 51.7874 52.5215 53.911V167.709C69.4669 177.676 86.4213 187.625 103.385 197.555L103.427 197.579Z" fill="#62E0E7"/>
<path fill-rule="evenodd" clip-rule="evenodd" d="M111.881 174.153L111.885 174.155C116.24 176.711 120.604 179.274 124.979 181.841C130.887 178.374 136.783 174.916 142.667 171.469L142.753 171.418L142.774 171.406C153.006 165.408 163.176 159.44 173.284 153.501V132.411C169.101 134.901 165.353 137.098 161.46 139.368V146.471C154.848 150.382 148.273 154.244 141.738 158.059L141.733 158.062L141.729 158.064C136.15 161.331 130.591 164.594 125.052 167.853C112.724 160.604 100.756 153.573 88.86 146.617V103.558C94.9053 100.012 100.927 96.479 106.924 92.9587L106.949 92.9444C112.971 89.4095 119.006 85.8687 125.052 82.3219C137.236 89.4973 149.371 96.6242 161.458 103.702L161.462 103.705V110.809C165.499 113.152 169.248 115.349 173.358 117.766V96.6756C157.207 87.2289 141.081 77.7823 124.979 68.3359L116.847 73.1022C103.294 81.0449 89.959 88.8602 76.6738 96.6756V153.501C88.359 160.344 100.092 167.227 111.872 174.148L111.881 174.153Z" fill="#62E0E7"/>
<path fill-rule="evenodd" clip-rule="evenodd" d="M121.769 112.7L121.772 112.699H121.773H121.775L121.781 112.695H121.783C122.747 112.13 123.572 111.649 124.257 111.253C132.764 114.988 140.551 118.43 148.987 122.164V110.81C146.876 109.571 144.755 108.326 142.625 107.077L142.623 107.075C136.823 103.673 130.966 100.231 125.051 96.75L121.525 98.8234C114.527 102.94 107.672 106.973 101.187 110.737V124.943C111.713 128.019 122.095 131.094 133.342 134.463C132.187 135.137 131.141 135.751 130.167 136.323C128.283 137.43 126.667 138.379 125.051 139.296C123.758 138.556 122.504 137.793 121.265 137.039C118.705 135.48 116.212 133.963 113.588 132.779C110.852 131.544 107.974 130.706 104.979 129.835C103.711 129.467 102.423 129.091 101.115 128.678V139.296C103.967 140.97 106.831 142.654 109.707 144.348C114.76 147.32 119.875 150.323 125.052 153.356C129.352 150.821 133.651 148.308 137.895 145.826L137.901 145.823C141.627 143.644 145.311 141.491 148.916 139.369V125.09C138.39 121.941 128.08 118.865 116.833 115.57C118.768 114.459 120.409 113.498 121.769 112.701V112.7Z" fill="#62E0E7"/>
<path fill-rule="evenodd" clip-rule="evenodd" d="M160.61 123.87H160.612C160.891 124.029 161.171 124.191 161.459 124.355C162.085 123.998 162.669 123.64 163.29 123.259C163.814 122.938 164.365 122.6 164.992 122.232C164.12 121.719 163.364 121.295 162.633 120.884L162.631 120.883L162.628 120.881C162.213 120.648 161.805 120.42 161.388 120.182C160.987 120.426 160.587 120.659 160.172 120.903C159.466 121.315 158.718 121.752 157.855 122.305C158.935 122.908 159.772 123.389 160.609 123.868L160.61 123.87Z" fill="#62E0E7"/>
<path fill-rule="evenodd" clip-rule="evenodd" d="M162.327 129.701C163.24 129.164 163.961 128.757 164.682 128.351C165.042 128.147 165.403 127.944 165.787 127.724C165.704 126.925 165.645 126.223 165.582 125.478V125.476C165.537 124.925 165.488 124.351 165.427 123.697C164.68 124.096 164.084 124.452 163.521 124.788C163.05 125.068 162.603 125.334 162.111 125.601C162.129 125.931 162.147 126.251 162.165 126.572C162.218 127.532 162.272 128.493 162.327 129.701Z" fill="#62E0E7"/>
<path fill-rule="evenodd" clip-rule="evenodd" d="M157.276 127.944L160.593 129.629V125.528C159.511 125.016 158.501 124.503 157.276 123.844V127.944Z" fill="#62E0E7"/>
</g>
<defs>
<clipPath id="clip0_242_94511">
<rect width="227.302" height="227.302" fill="white" transform="translate(11.3633 11.3633)"/>
</clipPath>
</defs>
</svg>
