<svg width="250" height="250" viewBox="0 0 250 250" fill="none" xmlns="http://www.w3.org/2000/svg">
<path d="M159.736 106.603C165.379 106.603 170.501 106.603 175.65 106.603C170.596 126.958 147.73 145.101 122.133 143.362C89.813 141.166 66.4638 111.794 72.4078 79.3075C117.868 79.3075 163.37 79.3075 209.341 79.3075C210.591 89.5796 210.071 99.7856 207.529 109.862C203.034 127.681 193.776 142.634 179.728 154.454C147.892 181.242 104.048 180.372 73.6657 156.885C45.0788 134.785 37.4491 101.118 41.5935 79.1934C46.3419 79.1934 51.1128 79.1934 56.234 79.1934C53.5901 107.025 62.7926 129.81 85.516 146.448C98.4055 155.886 113.182 160.065 129.033 159.013C169.857 156.302 193.239 122.58 194.075 95.0904C158.516 95.0904 122.963 95.0904 87.4064 95.0904C88.3699 108.28 100.046 122.27 113.745 126.262C122.684 128.866 131.654 128.605 140.299 124.895C148.959 121.179 155.38 114.929 159.736 106.603Z" fill="#00BEB1"/>
</svg>
