<svg width="250" height="250" viewBox="0 0 250 250" fill="none" xmlns="http://www.w3.org/2000/svg">
<g clip-path="url(#clip0_242_94146)">
<path d="M124.999 250C194.035 250 249.999 194.036 249.999 125C249.999 55.9644 194.035 0 124.999 0C55.9634 0 -0.000976562 55.9644 -0.000976562 125C-0.000976562 194.036 55.9634 250 124.999 250Z" fill="#B3B3B3"/>
<path d="M52.7111 54.6206C62.9486 43.9127 81.6482 43.4871 92.2329 53.8925C103.284 64.6938 114.218 75.5977 125.034 86.6042C136.554 75.6611 147.324 63.99 158.888 53.0917C169.893 43.1567 188.57 44.3551 198.365 55.4886C208.384 65.9837 208.222 84.3025 197.805 94.4951C187.103 105.393 176.266 116.124 165.474 126.927C176.501 138.296 187.999 149.211 198.931 160.719C208.743 171.478 207.802 189.791 197.178 199.681C186.711 210.243 167.961 210.271 157.516 199.681C146.652 189.04 136.022 178.097 125.23 167.389C113.71 178.473 102.728 190.099 91.068 201.064C79.9233 210.955 61.1229 209.465 51.5238 198.13C41.8576 187.657 42.0872 169.809 52.1791 159.661C61.6549 149.939 71.2987 140.379 80.9705 130.897C85.0196 134.935 89.0742 139.001 93.1233 143.039C83.6419 152.834 73.6677 162.203 64.3263 172.161C58.0259 178.618 63.5758 190.642 72.4244 190.502C77.7839 190.973 81.4858 186.531 84.9748 183.177C94.221 173.757 103.613 164.505 112.859 155.091C92.6977 134.756 72.2116 114.696 52.1511 94.2655C41.684 83.72 42.0144 64.9084 52.7111 54.671V54.6206ZM64.4159 82.0119C75.0902 93.1455 86.1677 103.853 97.0268 114.824C102.254 109.515 107.529 104.24 112.853 98.9978C102.341 88.4075 91.8744 77.7165 81.2225 67.2942C77.8287 63.6316 72.0212 62.2539 67.5913 64.8972C61.4309 67.8822 59.4932 77.0388 64.4047 82.0175L64.4159 82.0119ZM168.762 67.5742C148.718 87.2539 129.078 107.337 109.129 127.128C114.517 132.342 119.876 137.579 125.118 142.933C129.145 138.962 133.149 134.947 137.153 130.931C141.202 134.969 145.229 139.035 149.306 143.05C145.352 147.088 141.37 151.081 137.344 155.074C148.158 165.95 158.765 177.033 169.938 187.556C175.605 193.526 186.61 189.903 188.245 182.04C189.998 176.473 186.005 171.662 182.231 168.162C164.459 150.476 146.724 132.753 129.027 114.992C133.078 110.953 137.112 106.898 141.13 102.828C145.156 106.844 149.183 110.859 153.305 114.808C163.912 103.82 175.146 93.4367 185.591 82.2808C190.861 77.162 188.749 67.367 182.035 64.5948C177.515 62.2707 172.01 63.9116 168.756 67.5742H168.762Z" fill="url(#paint0_linear_242_94146)"/>
</g>
<defs>
<linearGradient id="paint0_linear_242_94146" x1="125.096" y1="207.645" x2="125.096" y2="46.3321" gradientUnits="userSpaceOnUse">
<stop stop-color="#2F75BB"/>
<stop offset="1" stop-color="#0A4185"/>
</linearGradient>
<clipPath id="clip0_242_94146">
<rect width="250" height="250" rx="125" fill="white"/>
</clipPath>
</defs>
</svg>
