<svg width="250" height="250" viewBox="0 0 250 250" fill="none" xmlns="http://www.w3.org/2000/svg">
<path d="M70.6521 41.2826C71.604 41.2826 72.5568 41.3033 73.5084 41.2792C78.1053 41.1623 82.1397 42.7747 86.0671 45.0256C89.1124 46.7707 91.4893 49.2115 93.9116 51.6258C103.95 61.6313 113.949 71.6752 123.964 81.7045C125.187 82.9288 125.567 82.934 126.822 81.6772C136.243 72.2492 145.641 62.7982 155.091 53.3986C157.522 50.9797 159.938 48.4877 162.669 46.4395C166.722 43.3998 171.256 41.2921 176.508 41.3015C178.73 41.3054 180.952 41.3243 183.173 41.2792C187.671 41.1882 191.612 42.8052 195.408 45.0392C200.728 48.1693 204.583 52.5936 207.247 58.0935C208.33 60.331 209.279 62.6512 209.306 65.1968C209.346 68.8959 209.578 72.6188 209.256 76.29C208.73 82.2676 205.798 87.2488 201.661 91.432C190.815 102.398 179.857 113.253 168.945 124.154C167.88 125.217 167.91 125.669 168.998 126.76C180.275 138.066 191.662 149.267 202.76 160.747C206.831 164.958 209.293 170.217 209.331 176.312C209.345 178.534 209.34 180.755 209.354 182.976C209.403 190.712 205.751 196.714 200.438 201.914C197.289 204.995 193.535 207.131 189.367 208.483C187.981 208.933 186.471 209.103 185.005 209.185C182.579 209.32 180.142 209.254 177.71 209.319C170.494 209.513 164.544 206.582 159.554 201.654C148.567 190.802 137.687 179.841 126.765 168.923C125.784 167.942 125.168 167.894 124.221 168.838C116.927 176.114 109.664 183.421 102.346 190.673C97.8075 195.171 93.3782 199.808 88.5448 203.971C84.9608 207.057 80.612 209.046 75.7096 209.208C72.4343 209.316 69.1509 209.329 65.8752 209.242C61.9608 209.137 58.5242 207.572 55.2129 205.582C51.6621 203.448 48.6822 200.712 46.3445 197.34C43.3198 192.977 41.1362 188.281 41.4018 182.76C41.4984 180.754 41.475 178.738 41.4057 176.731C41.2535 172.319 42.9845 168.521 45.0541 164.785C47.0935 161.104 50.1921 158.36 53.0841 155.437C61.3424 147.091 69.6545 138.799 77.9156 130.456C78.6464 129.719 79.2873 129.697 79.9687 130.307C81.0296 131.256 82.0333 132.271 83.0462 133.274C85.7507 135.949 88.4443 138.636 91.148 141.312C92.0248 142.18 91.4798 142.792 90.8292 143.439C87.7555 146.496 84.6972 149.569 81.6295 152.632C75.2693 158.983 68.879 165.304 62.5534 171.69C56.7938 177.504 58.1322 187.372 66.1108 190.834C70.3948 192.693 75.3119 192.132 79.2928 188.175C86.5994 180.911 93.8497 173.591 101.125 166.297C104.408 163.006 107.689 159.713 110.984 156.434C112.51 154.915 112.513 154.732 110.945 153.165C99.6124 141.838 88.2847 130.506 76.9538 119.177C67.7541 109.979 58.57 100.765 49.3405 91.5969C45.6865 87.9674 43.3094 83.6246 41.8418 78.7498C41.5412 77.7512 41.4316 76.669 41.4018 75.6208C41.3248 72.9251 41.3469 70.2266 41.3203 67.5295C41.2608 61.4454 43.9485 56.4597 47.5363 51.8099C49.9702 48.6557 53.0467 46.2604 56.4672 44.3389C60.4509 42.1006 64.7584 40.9526 69.3833 41.2739C69.8043 41.3033 70.2293 41.2777 70.6528 41.2777C70.6521 41.2795 70.6521 41.2809 70.6521 41.2826ZM180.294 59.224C177.339 59.0137 174.741 59.945 172.583 61.9064C170.319 63.9651 168.168 66.1505 166 68.3132C156.308 77.9791 146.627 87.6552 136.945 97.3309C127.934 106.335 118.931 115.347 109.915 124.345C109.099 125.159 109.142 125.766 109.98 126.592C114.721 131.264 119.411 135.988 124.118 140.695C125.219 141.796 125.635 141.784 126.713 140.705C130.074 137.342 133.437 133.982 136.818 130.64C138.036 129.435 138.13 129.435 139.361 130.659C142.845 134.125 146.285 137.637 149.797 141.075C150.654 141.915 150.621 142.469 149.795 143.279C146.777 146.24 143.802 149.244 140.827 152.248C138.064 155.038 137.859 154.452 140.818 157.422C149.656 166.292 158.488 175.169 167.38 183.985C169.656 186.241 171.636 188.855 174.576 190.377C180.543 193.467 188.416 191.331 190.991 184.32C192.741 179.553 191.693 175.052 187.962 171.341C180.057 163.48 172.179 155.592 164.291 147.715C154.572 138.008 144.853 128.301 135.137 118.592C133.568 117.024 131.994 115.461 130.464 113.855C129.871 113.233 129.378 112.591 130.288 111.701C133.88 108.19 137.411 104.616 140.977 101.077C141.998 100.064 142.319 100.066 143.334 101.079C146.705 104.439 150.067 107.808 153.42 111.185C154.541 112.313 155.065 112.34 156.174 111.23C166.74 100.654 177.305 90.0772 187.871 79.5009C189.702 77.6676 191.004 75.575 191.475 72.9598C192.884 65.1376 186.764 58.9269 180.294 59.224ZM59.2133 70.815C58.8899 74.1862 60.9238 77.4769 62.768 79.3161C69.7564 86.2846 76.7165 93.2814 83.6885 100.267C87.3792 103.964 91.0655 107.667 94.7699 111.351C95.7352 112.311 96.2395 112.303 97.1635 111.38C101.873 106.672 106.577 101.96 111.275 97.241C112.3 96.2117 112.3 95.7472 111.294 94.7315C109.437 92.8565 107.565 90.9967 105.698 89.1326C96.8852 80.3343 88.0747 71.5335 79.2575 62.7397C75.5884 59.0805 71.2037 58.3318 66.85 59.7822C61.992 61.4006 58.8735 66.0392 59.2133 70.815Z" fill="#639BF8"/>
</svg>
