<svg width="250" height="250" viewBox="0 0 250 250" fill="none" xmlns="http://www.w3.org/2000/svg">
<rect width="250" height="250" rx="125" fill="white"/>
<g clip-path="url(#clip0_242_94517)">
<path d="M125.016 238.666C187.784 238.666 238.668 187.782 238.668 125.015C238.668 62.2467 187.784 11.3633 125.016 11.3633C62.2486 11.3633 11.3652 62.2467 11.3652 125.015C11.3652 187.782 62.2486 238.666 125.016 238.666Z" fill="#225CA5"/>
<path d="M195.28 120.092C195.257 119.976 195.196 119.872 195.105 119.796C195.015 119.72 194.902 119.678 194.784 119.676H125.017C124.109 119.626 123.201 119.762 122.347 120.076C121.494 120.389 120.714 120.873 120.054 121.498C119.394 122.123 118.868 122.876 118.509 123.711C118.149 124.546 117.964 125.445 117.964 126.354C117.964 127.263 118.149 128.163 118.509 128.998C118.868 129.833 119.394 130.586 120.054 131.211C120.714 131.836 121.494 132.32 122.347 132.633C123.201 132.947 124.109 133.083 125.017 133.033H166.46C161.537 146.074 144.845 155.66 125.017 155.66C101.298 155.66 82.0846 141.945 82.0846 125.015C82.0846 108.084 101.298 94.4481 125.017 94.4481C138.037 94.4481 149.569 98.4177 157.449 104.948C157.545 104.98 157.65 104.98 157.747 104.948H186.229C186.333 104.96 186.437 104.938 186.528 104.887C186.618 104.836 186.691 104.758 186.735 104.664C186.779 104.57 186.792 104.464 186.772 104.362C186.753 104.259 186.702 104.166 186.626 104.094C174.538 91.2725 151.475 82.5391 125.017 82.5391C85.9549 82.5391 54.2969 101.554 54.2969 125.015C54.2969 148.475 85.9549 167.49 125.017 167.49C164.078 167.49 195.736 148.475 195.736 125.015C195.734 123.363 195.581 121.716 195.28 120.092Z" fill="white"/>
</g>
<defs>
<clipPath id="clip0_242_94517">
<rect width="227.302" height="227.302" fill="white" transform="translate(11.3652 11.3633)"/>
</clipPath>
</defs>
</svg>
