<svg width="250" height="250" viewBox="0 0 250 250" fill="none" xmlns="http://www.w3.org/2000/svg">
<rect width="250" height="250" rx="125" fill="white"/>
<g clip-path="url(#clip0_242_94497)">
<path d="M98.9676 52.9457C98.9676 52.9457 96.6368 55.0312 97.3728 57.73C98.1088 60.4287 101.298 65.3357 101.298 65.3357V82.6055C101.298 82.6055 89.5215 90.116 86.8228 95.2683C86.8228 95.2683 83.1425 93.7963 79.953 94.5323C76.7635 95.2683 56.6447 101.402 54.682 103.61C52.7192 105.819 48.0575 114.16 48.0575 114.16C48.0575 114.16 20.3341 117.103 12.2376 145.565C12.2376 145.565 10.2748 151.975 12.2376 154.413C14.2003 156.852 19.8436 167.646 22.2968 168.873C24.7501 170.1 30.3934 172.553 39.2259 165.438C48.0584 158.323 50.7574 159.304 53.7016 160.286C56.6459 161.267 60.3259 162.494 62.2887 162.249C64.2514 162.003 65.9689 160.286 65.9689 160.286C65.9689 160.286 67.6864 166.665 70.8759 170.836C74.0654 175.007 84.6154 185.557 85.5969 196.107C86.5784 206.657 81.6712 234.872 100.072 234.872H151.913C151.913 234.872 166.807 236.344 165.581 209.601C164.354 182.858 170.978 184.085 176.131 171.817C181.283 159.55 181.774 159.55 181.774 159.55C181.774 159.55 186.681 162.003 188.153 162.003C189.625 162.003 196.74 158.814 200.911 159.795C205.082 160.776 211.707 164.947 214.405 167.401C217.104 169.854 222.502 172.799 228.636 167.892C234.769 162.985 235.996 158.322 237.713 154.152C239.431 149.982 238.45 145.475 237.713 142.576C236.977 139.677 229.862 124.956 217.104 119.067C204.346 113.179 205.082 119.558 198.703 109.008C192.324 98.4578 166.317 95.023 166.317 95.023L153.191 92.4468L140.923 81.8968L140.187 65.7037C140.187 65.7037 144.113 61.533 144.113 56.6259C144.113 51.7189 142.15 51.2282 142.15 51.2282C142.15 51.2282 143.867 40.1874 144.358 35.0352C144.634 31.9947 145.379 29.0152 146.566 26.2027L152.7 19.3329L146.812 20.068L150.247 16.6339C150.247 16.6339 139.259 16.3886 134.939 16.6339C130.619 16.8792 113.936 14.9166 112.463 15.1619C110.991 15.4071 97.0068 31.3549 97.0068 31.3549C97.0068 31.3549 95.5346 34.5444 98.9696 35.5259L99.2149 41.4142L97.4974 43.6224L98.9676 52.9457Z" fill="#20190D"/>
<path d="M77.0714 131.259C77.0416 131.365 77.0203 131.473 77.0078 131.583C77.0078 131.583 77.0405 131.459 77.0714 131.259Z" fill="#85E7F7"/>
<path d="M67.6855 129.13C67.6855 129.13 72.1018 128.149 73.8193 129.866C75.5368 131.584 76.6456 133.175 77.0725 134.587C77.4993 136 76.2728 139.68 77.9903 141.152C79.7078 142.624 80.1983 143.115 79.2177 146.059C78.2372 149.004 79.4819 151.814 79.7178 153.231C79.9537 154.647 78.7459 149.2 79.7178 147.016C80.6897 144.833 81.4257 142.625 79.2177 140.416C77.0097 138.208 78.2362 134.773 77.9903 133.056C77.7505 131.379 79.1495 125.957 69.1596 127.761C68.9292 127.803 68.7104 127.894 68.5178 128.027C68.3253 128.161 68.1633 128.333 68.0429 128.534L67.6855 129.13Z" fill="#826A46"/>
<path d="M191.432 125.016C191.432 125.016 190.606 124.222 188.398 124.467C186.189 124.712 179.81 124.712 179.81 125.203C179.81 125.693 180.792 127.656 180.792 127.656C180.792 127.656 174.015 126.944 173.355 129.018C172.696 131.092 173.186 133.3 173.186 133.3C171.283 135.275 170.226 137.917 170.242 140.66C170.242 140.66 169.014 142.132 169.751 144.586C170.488 147.039 170.242 151.946 170.242 151.946L170.733 144.34C170.733 144.34 169.383 142.991 171.591 141.273C173.8 139.556 172.819 135.385 173.799 132.441C174.78 129.497 178.952 128.515 182.141 129.006C182.141 129.006 179.131 124.46 191.432 125.016Z" fill="#826A46"/>
<path d="M134.991 26.9467C134.846 27.0417 132.944 28.1664 124.483 28.1664C115.651 28.1664 110.008 25.7129 110.008 25.7129C110.008 25.7129 118.35 30.8652 123.011 31.3559C127.599 31.8389 134.766 27.0965 134.991 26.9467Z" fill="#CCAA69"/>
<path d="M134.99 26.9485L135.001 26.9414L134.99 26.9485Z" fill="#CCAA69"/>
<path d="M100.684 52.4559L102.156 59.3257C102.156 59.3257 101.665 48.0397 101.665 39.2072C101.665 30.3746 106.734 25.7129 106.734 25.7129C98.7996 28.9024 98.9658 34.7909 98.9658 34.7909C98.9658 38.4712 100.193 51.7199 100.193 51.7199L98.2305 54.9094L100.684 52.4559Z" fill="#CCAA69"/>
<path d="M101.297 73.0954C102.017 74.1654 102.674 75.2768 103.264 76.424C104.005 77.9433 114.3 83.9825 118.471 86.1907C122.641 88.399 126.322 87.172 126.322 87.172C122.396 87.172 119.452 85.9445 117.735 84.4732C116.017 83.0019 115.527 82.7557 113.809 82.0197C112.092 81.2837 109.393 78.0942 107.922 74.4139C106.451 70.7337 101.298 65.3359 101.298 65.3359L101.297 73.0954Z" fill="#CCAA69"/>
<path d="M40.5572 132.615C36.5262 127.409 35.7902 126.182 31.8645 126.674C27.9387 127.166 23.5225 133.298 21.3145 134.77C22.8222 133.927 24.187 132.851 25.3584 131.581C27.4482 129.373 31.374 127.41 33.8275 128.146C36.281 128.882 44.3775 139.677 50.7565 136.733C50.7558 136.733 44.5882 137.819 40.5572 132.615Z" fill="#CCAA69"/>
<path d="M69.1597 127.759C75.0044 126.704 76.9501 128.123 77.607 129.816C80.2603 123.588 90.9676 104.704 94.4287 98.2145C98.3542 90.854 101.298 89.8584 101.298 89.8584V82.6074C101.298 82.6074 89.5217 90.118 86.823 95.2702L76.2729 102.876H84.124C80.1144 107.358 69.7571 126.348 68.9629 127.809C69.0274 127.789 69.0931 127.772 69.1597 127.759Z" fill="#CCAA69"/>
<path d="M170.277 139.808C170.456 137.365 171.486 135.063 173.187 133.301C172.959 132.103 172.959 130.873 173.187 129.675V129.67C173.188 129.444 173.246 129.221 173.356 129.022V129.019C173.593 128.274 174.623 127.889 175.843 127.701L174.904 123.241C174.904 123.241 158.22 106.312 156.748 104.595C155.276 102.877 158.465 99.1972 159.937 98.461L140.924 81.9004V89.7637C140.924 89.7637 157.705 115.54 165.692 129.818C165.692 129.818 168.489 137.093 170.277 139.808Z" fill="#CCAA69"/>
<path d="M217.84 126.919C214.16 126.429 213.178 128.392 210.97 130.845C208.762 133.299 204.837 138.942 197.967 136.243C197.967 136.243 201.156 138.205 204.346 136.979C207.535 135.752 212.197 130.845 212.197 130.845C212.197 130.845 214.896 127.655 217.84 128.146C220.784 128.637 227.899 134.525 227.899 134.525C227.899 134.525 221.52 127.41 217.84 126.919Z" fill="#CCAA69"/>
<path d="M161.409 168.138C158.956 170.346 129.514 198.561 127.183 198.658C124.852 198.754 116.02 189.484 111.849 186.294C107.678 183.105 93.9373 170.838 91.7302 168.629C89.523 166.42 78.4811 155.135 78.4811 155.135L68.4219 159.306C68.4219 159.306 106.451 187.766 113.321 193.164C120.19 198.562 123.135 203.223 125.016 204.131C126.897 205.039 129.514 201.506 134.666 196.599C139.819 191.692 181.773 159.551 181.773 159.551L173.431 155.871C173.431 155.871 163.862 165.929 161.409 168.138Z" fill="#CCAA69"/>
<path d="M173.412 155.889C172.971 156.353 163.803 165.982 161.409 168.137C158.955 170.345 129.513 198.56 127.182 198.657C124.852 198.753 116.019 189.483 111.848 186.293C109.968 184.855 106.143 181.573 102.307 178.199C104.127 176.77 106.908 174.506 109.304 172.215C114.707 174.401 120.573 175.199 126.364 174.534C132.155 173.87 137.688 171.764 142.455 168.411C145.835 171.101 150.687 174.099 153.876 172.325C159.029 169.459 163.561 163.621 151.39 159.245C152.289 157.9 153.093 156.494 153.796 155.037C155.549 155.235 157.669 154.758 159.936 152.68C165.825 147.282 166.702 142.14 165.895 139.804C165.264 137.977 163.325 130.673 163.333 125.699C164.177 127.146 164.97 128.528 165.69 129.813C165.69 129.813 168.487 137.089 170.275 139.803C170.253 140.08 170.242 140.365 170.241 140.657C170.241 140.657 169.014 142.129 169.75 144.583C169.985 145.466 170.129 146.37 170.182 147.283C170.24 150.597 170.24 154.642 170.24 154.642L173.412 155.889ZM79.339 149.15C80.1973 155.435 78.4805 155.134 78.4805 155.134L90.0956 166.977C90.0956 166.977 93.2097 165.174 96.2783 162.975C93.9198 160.306 91.9841 157.292 90.5384 154.037C83.6298 152.307 79.339 149.15 79.339 149.15Z" fill="#70572F"/>
<path d="M122.396 174.761C141.638 174.761 157.236 159.163 157.236 139.922C157.236 120.68 141.638 105.082 122.396 105.082C103.155 105.082 87.5566 120.68 87.5566 139.922C87.5566 159.163 103.155 174.761 122.396 174.761Z" fill="#CCAA69"/>
<path d="M122.398 111.588C116.794 111.588 111.315 113.25 106.655 116.364C101.995 119.477 98.3625 123.903 96.2176 129.081C94.0728 134.259 93.5116 139.957 94.6051 145.454C95.6985 150.951 98.3974 156 102.361 159.964C106.324 163.927 111.373 166.626 116.87 167.719C122.367 168.812 128.065 168.251 133.243 166.106C138.421 163.962 142.847 160.329 145.96 155.669C149.074 151.009 150.736 145.53 150.736 139.926C150.736 132.41 147.751 125.202 142.436 119.888C137.122 114.573 129.914 111.588 122.398 111.588ZM122.398 163.847C117.667 163.847 113.042 162.444 109.108 159.816C105.174 157.187 102.108 153.451 100.298 149.08C98.4872 144.709 98.0134 139.899 98.9365 135.259C99.8595 130.619 102.138 126.356 105.483 123.011C108.829 119.665 113.091 117.387 117.731 116.464C122.372 115.541 127.182 116.015 131.553 117.825C135.924 119.636 139.66 122.702 142.288 126.636C144.917 130.569 146.32 135.194 146.32 139.926C146.32 146.27 143.8 152.355 139.313 156.841C134.827 161.327 128.743 163.847 122.398 163.847Z" fill="#82653B"/>
<path d="M132.703 132.195C128.287 127.288 122.46 133.358 122.46 133.358C122.46 133.358 116.633 127.288 112.217 132.195C107.8 137.101 114.915 143.481 114.915 143.481L122.46 150.626L130.004 143.481C130.004 143.481 137.12 137.102 132.703 132.195Z" fill="white"/>
</g>
<defs>
<clipPath id="clip0_242_94497">
<rect width="227.302" height="227.302" fill="white" transform="translate(11.3652 11.3633)"/>
</clipPath>
</defs>
</svg>
