<svg width="250" height="250" viewBox="0 0 250 250" fill="none" xmlns="http://www.w3.org/2000/svg">
<g clip-path="url(#clip0_242_94709)">
<path d="M125 250C194.036 250 250 194.036 250 125C250 55.9644 194.036 0 125 0C55.9644 0 0 55.9644 0 125C0 194.036 55.9644 250 125 250Z" fill="#EDF0F4"/>
<path fill-rule="evenodd" clip-rule="evenodd" d="M86.459 168.863V179.541H83.04V175.721H78.341V179.541H74.998V168.882H78.341V172.512H83.04V168.863H86.459ZM122.275 168.863V171.9H113.355V176.504H122.218V179.541H110.012V168.882H122.218L122.275 168.863ZM166.344 168.863L171.005 173.467V168.863H174.329V179.541H170.967L166.287 174.803V179.541H162.867V168.863H166.344ZM139.372 168.863V172.512L136.125 175.721H139.372V179.541H135.819V175.721H130.604V179.541H127.108V168.882H130.604V172.512H135.819V168.863H139.372ZM103.651 168.863H104.224V179.541H100.977V177.23H96.239V179.541H92.9155V168.882H103.651V168.863ZM156.334 168.863V171.9H148.35V172.702H156.392V175.721H148.35V176.523H156.392V179.541H144.93V168.882H156.392L156.334 168.863ZM100.976 171.9H96.2385V174.078H100.976V171.9ZM80.7285 68.75V112.895H86.459V68.75H92.1895V112.895H168.598V106.495H98.608V68.75H104.339V100.67H168.598V94.9385H109.191V68.75H114.921V89.1315H133.584V68.75H139.314V89.1315H145.045V68.75H150.776V89.1315H157.289V68.75H163.02V89.1315H168.75V68.75H174.481V162.35H168.598V118.816H162.122V162.35H156.391V118.816H80.7285V124.547H150.718V162.35H144.988V130.392H80.7285V136.122H140.136V162.35H134.405V141.93H115.704V162.35H109.974V141.93H104.243V162.35H98.5125V141.93H92.1895V162.35H86.459V141.93H80.7285V162.35H74.998V68.75H80.7285Z" fill="#4ADDA5"/>
</g>
<defs>
<clipPath id="clip0_242_94709">
<rect width="250" height="250" fill="white"/>
</clipPath>
</defs>
</svg>
