<svg width="250" height="250" viewBox="0 0 250 250" fill="none" xmlns="http://www.w3.org/2000/svg">
<rect width="250" height="250" rx="125" fill="white"/>
<g clip-path="url(#clip0_242_94504)">
<path d="M118.765 237.796L104.684 205.972V74.8053H47.5397V90.7299H89.3656V175.967L75.2849 147.78V104.811H33.459V60.7246H118.765V237.796Z" fill="url(#paint0_linear_242_94504)"/>
<path d="M217.366 74.8053V60.7246H132.061V237.796L175.54 145.33V104.811H217.366V90.6331H161.46V144.376L146.141 177.496V74.8053H217.366Z" fill="url(#paint1_linear_242_94504)"/>
<path d="M60.504 57.5946C68.6969 49.7444 78.2512 43.4522 88.6991 39.026C102.995 32.9747 118.576 30.5917 134.027 32.0936C149.478 33.5954 164.309 38.9346 177.172 47.6257C181.563 50.5945 185.695 53.9291 189.525 57.5939H216.515C195.819 29.5527 162.542 11.3633 125.014 11.3633C87.4866 11.3633 54.2096 29.5527 33.5137 57.5946H60.504Z" fill="url(#paint2_linear_242_94504)"/>
<path d="M105.863 216.367C94.0585 213.901 82.848 209.158 72.8586 202.402C57.8474 192.271 46.096 178.003 39.0281 161.329C34.1685 149.84 31.6774 137.488 31.7042 125.014C31.7001 119.287 32.2195 113.571 33.256 107.938H30.3308V62.1367C17.93 80.759 11.33 102.64 11.3654 125.014C11.3654 184.596 57.2152 233.467 115.557 238.275L105.863 216.367Z" fill="url(#paint3_linear_242_94504)"/>
<path d="M220.495 63.3477V77.9337H205.599C207.41 81.0268 209.042 84.2219 210.486 87.5031H220.494V107.939H216.777C217.813 113.572 218.332 119.287 218.328 125.015C218.365 143.603 212.817 161.774 202.404 177.173C192.272 192.184 178.005 203.935 161.331 211.003C156.298 213.134 151.086 214.814 145.756 216.024L135.326 238.205C193.262 232.994 238.667 184.307 238.667 125.015C238.702 103.134 232.389 81.7132 220.495 63.3477Z" fill="url(#paint4_linear_242_94504)"/>
<path d="M128.932 237.795V218.246C127.631 218.299 126.326 218.326 125.016 218.327C123.973 218.327 122.932 218.31 121.895 218.275V238.623C122.932 238.651 123.972 238.666 125.016 238.666C126.327 238.666 127.632 238.644 128.932 238.598V237.795Z" fill="#5B38D0"/>
</g>
<defs>
<linearGradient id="paint0_linear_242_94504" x1="33.459" y1="149.26" x2="118.765" y2="149.26" gradientUnits="userSpaceOnUse">
<stop stop-color="#840AFC"/>
<stop offset="1" stop-color="#E5009F"/>
</linearGradient>
<linearGradient id="paint1_linear_242_94504" x1="132.061" y1="149.26" x2="217.366" y2="149.26" gradientUnits="userSpaceOnUse">
<stop stop-color="#EB0085"/>
<stop offset="1" stop-color="#00B780"/>
</linearGradient>
<linearGradient id="paint2_linear_242_94504" x1="33.5137" y1="34.4788" x2="216.515" y2="34.4788" gradientUnits="userSpaceOnUse">
<stop stop-color="#0667B9"/>
<stop offset="0.495" stop-color="#45208B"/>
<stop offset="1" stop-color="#008376"/>
</linearGradient>
<linearGradient id="paint3_linear_242_94504" x1="10.6969" y1="73.6607" x2="81.8132" y2="235.349" gradientUnits="userSpaceOnUse">
<stop offset="0.009" stop-color="#0069AF"/>
<stop offset="0.251" stop-color="#00A8E2"/>
<stop offset="0.772" stop-color="#563BD0"/>
</linearGradient>
<linearGradient id="paint4_linear_242_94504" x1="239.548" y1="92.8822" x2="138.052" y2="243.941" gradientUnits="userSpaceOnUse">
<stop offset="0.132" stop-color="#00B069"/>
<stop offset="0.19" stop-color="#09A86D"/>
<stop offset="0.285" stop-color="#219377"/>
<stop offset="0.405" stop-color="#497087"/>
<stop offset="0.544" stop-color="#803F9D"/>
<stop offset="0.659" stop-color="#B213B2"/>
<stop offset="0.723" stop-color="#AC15B4"/>
<stop offset="0.804" stop-color="#9D1CB9"/>
<stop offset="0.895" stop-color="#8227C2"/>
<stop offset="0.993" stop-color="#5E37CF"/>
<stop offset="1" stop-color="#5B38D0"/>
</linearGradient>
<clipPath id="clip0_242_94504">
<rect width="227.302" height="227.302" fill="white" transform="translate(11.3652 11.3633)"/>
</clipPath>
</defs>
</svg>
