<svg width="250" height="250" viewBox="0 0 250 250" fill="none" xmlns="http://www.w3.org/2000/svg">
<g clip-path="url(#clip0_242_94872)">
<path d="M124.999 250.028C194.032 250.028 249.994 194.059 249.994 125.017C249.994 55.9753 194.032 0.00585938 124.999 0.00585938C55.966 0.00585938 0.00390625 55.9753 0.00390625 125.017C0.00390625 194.059 55.966 250.028 124.999 250.028Z" fill="white"/>
<path d="M125 7.71417C140.838 7.71417 156.195 10.8137 170.651 16.928C184.617 22.8364 197.16 31.294 207.934 42.0691C218.708 52.8442 227.167 65.3891 233.072 79.3564C239.185 93.8124 242.284 109.174 242.284 125.014C242.284 140.854 239.185 156.213 233.072 170.671C227.164 184.638 218.708 197.183 207.934 207.958C197.16 218.734 184.617 227.194 170.651 233.1C156.197 239.214 140.838 242.313 125 242.313C109.162 242.313 93.8027 239.214 79.3486 233.1C65.3831 227.191 52.8399 218.734 42.0662 207.958C31.2924 197.183 22.8334 184.638 16.9283 170.671C10.8149 156.215 7.71573 140.854 7.71573 125.014C7.71573 109.174 10.8149 93.8124 16.9283 79.3564C22.836 65.3891 31.2924 52.8442 42.0662 42.0691C52.8399 31.294 65.3831 22.8338 79.3486 16.928C93.8027 10.8137 109.162 7.71417 125 7.71417ZM125 0C55.9648 0 0 55.9721 0 125.016C0 194.061 55.9648 250.033 125 250.033C194.035 250.033 250 194.061 250 125.016C250 55.9721 194.035 0 125 0Z" fill="#2898C4"/>
<path d="M125 7.71417C140.838 7.71417 156.195 10.8137 170.651 16.928C184.617 22.8364 197.16 31.294 207.934 42.0691C218.708 52.8442 227.167 65.3891 233.072 79.3564C239.185 93.8124 242.284 109.174 242.284 125.014C242.284 140.854 239.185 156.213 233.072 170.671C227.164 184.638 218.708 197.183 207.934 207.958C197.16 218.734 184.617 227.194 170.651 233.1C156.197 239.214 140.838 242.313 125 242.313C109.162 242.313 93.8027 239.214 79.3486 233.1C65.3831 227.191 52.8399 218.734 42.0662 207.958C31.2924 197.183 22.8334 184.638 16.9283 170.671C10.8149 156.215 7.71573 140.854 7.71573 125.014C7.71573 109.174 10.8149 93.8124 16.9283 79.3564C22.836 65.3891 31.2924 52.8442 42.0662 42.0691C52.8399 31.294 65.3831 22.8338 79.3486 16.928C93.8027 10.8137 109.162 7.71417 125 7.71417ZM125 0C55.9648 0 0 55.9721 0 125.016C0 194.061 55.9648 250.033 125 250.033C194.035 250.033 250 194.061 250 125.016C250 55.9721 194.035 0 125 0Z" fill="#2898C4"/>
<path d="M125 7.71417C140.838 7.71417 156.195 10.8137 170.651 16.928C184.617 22.8364 197.16 31.294 207.934 42.0691C218.708 52.8442 227.167 65.3891 233.072 79.3564C239.185 93.8124 242.284 109.174 242.284 125.014C242.284 140.854 239.185 156.213 233.072 170.671C227.164 184.638 218.708 197.183 207.934 207.958C197.16 218.734 184.617 227.194 170.651 233.1C156.197 239.214 140.838 242.313 125 242.313C109.162 242.313 93.8027 239.214 79.3486 233.1C65.3831 227.191 52.8399 218.734 42.0662 207.958C31.2924 197.183 22.8334 184.638 16.9283 170.671C10.8149 156.215 7.71573 140.854 7.71573 125.014C7.71573 109.174 10.8149 93.8124 16.9283 79.3564C22.836 65.3891 31.2924 52.8442 42.0662 42.0691C52.8399 31.294 65.3831 22.8338 79.3486 16.928C93.8027 10.8137 109.162 7.71417 125 7.71417ZM125 0C55.9648 0 0 55.9721 0 125.016C0 194.061 55.9648 250.033 125 250.033C194.035 250.033 250 194.061 250 125.016C250 55.9721 194.035 0 125 0Z" fill="#2898C4"/>
<path d="M125 7.71417C140.838 7.71417 156.195 10.8137 170.651 16.928C184.617 22.8364 197.16 31.294 207.934 42.0691C218.708 52.8442 227.167 65.3891 233.072 79.3564C239.185 93.8124 242.284 109.174 242.284 125.014C242.284 140.854 239.185 156.213 233.072 170.671C227.164 184.638 218.708 197.183 207.934 207.958C197.16 218.734 184.617 227.194 170.651 233.1C156.197 239.214 140.838 242.313 125 242.313C109.162 242.313 93.8027 239.214 79.3486 233.1C65.3831 227.191 52.8399 218.734 42.0662 207.958C31.2924 197.183 22.8334 184.638 16.9283 170.671C10.8149 156.215 7.71573 140.854 7.71573 125.014C7.71573 109.174 10.8149 93.8124 16.9283 79.3564C22.836 65.3891 31.2924 52.8442 42.0662 42.0691C52.8399 31.294 65.3831 22.8338 79.3486 16.928C93.8027 10.8137 109.162 7.71417 125 7.71417ZM125 0C55.9648 0 0 55.9721 0 125.016C0 194.061 55.9648 250.033 125 250.033C194.035 250.033 250 194.061 250 125.016C250 55.9721 194.035 0 125 0Z" fill="#2898C4"/>
<path d="M124.999 21.9954C138.908 21.9954 152.398 24.7169 165.09 30.0877C177.356 35.2759 188.371 42.7046 197.833 52.1679C207.295 61.6312 214.723 72.6481 219.911 84.9152C225.281 97.6118 228.002 111.101 228.002 125.011C228.002 138.922 225.281 152.413 219.911 165.108C214.723 177.375 207.295 188.392 197.833 197.855C188.371 207.318 177.356 214.747 165.09 219.935C152.395 225.306 138.908 228.027 124.999 228.027C111.091 228.027 97.6009 225.306 84.9085 219.935C72.643 214.747 61.6275 207.318 52.1655 197.855C42.7034 188.392 35.2758 177.375 30.0882 165.108C24.7181 152.411 21.997 138.922 21.997 125.011C21.997 111.101 24.7181 97.6092 30.0882 84.9152C35.2758 72.6481 42.7034 61.6312 52.1655 52.1679C61.6275 42.7046 72.643 35.2759 84.9085 30.0877C97.6034 24.7169 111.091 21.9954 124.999 21.9954ZM124.999 14.2812C63.8522 14.2812 14.2812 63.8587 14.2812 125.014C14.2812 186.169 63.8522 235.747 124.999 235.747C186.147 235.747 235.718 186.169 235.718 125.014C235.718 63.8587 186.149 14.2812 124.999 14.2812Z" fill="#2898C4"/>
<path d="M124.999 21.9954C138.908 21.9954 152.398 24.7169 165.09 30.0877C177.356 35.2759 188.371 42.7046 197.833 52.1679C207.295 61.6312 214.723 72.6481 219.911 84.9152C225.281 97.6118 228.002 111.101 228.002 125.011C228.002 138.922 225.281 152.413 219.911 165.108C214.723 177.375 207.295 188.392 197.833 197.855C188.371 207.318 177.356 214.747 165.09 219.935C152.395 225.306 138.908 228.027 124.999 228.027C111.091 228.027 97.6009 225.306 84.9085 219.935C72.643 214.747 61.6275 207.318 52.1655 197.855C42.7034 188.392 35.2758 177.375 30.0882 165.108C24.7181 152.411 21.997 138.922 21.997 125.011C21.997 111.101 24.7181 97.6092 30.0882 84.9152C35.2758 72.6481 42.7034 61.6312 52.1655 52.1679C61.6275 42.7046 72.643 35.2759 84.9085 30.0877C97.6034 24.7169 111.091 21.9954 124.999 21.9954ZM124.999 14.2812C63.8522 14.2812 14.2812 63.8587 14.2812 125.014C14.2812 186.169 63.8522 235.747 124.999 235.747C186.147 235.747 235.718 186.169 235.718 125.014C235.718 63.8587 186.149 14.2812 124.999 14.2812Z" fill="#2898C4"/>
<path d="M66.8848 45.4414L105.625 67.9203L66.8848 91.2866V45.4414Z" fill="#6FBEE1"/>
<path d="M144.369 44.5898L183.11 67.0687L144.369 90.435V44.5898Z" fill="#79C1DF"/>
<path d="M66.8848 91.2969L105.625 113.778L66.8848 137.145V91.2969Z" fill="#6FBEE1"/>
<path d="M144.369 90.4355L183.11 112.914L144.369 136.281V90.4355Z" fill="#31AFDD"/>
<path d="M144.369 136.194L183.11 158.673L144.369 182.04V136.194Z" fill="#1192C3"/>
<path d="M105.629 113.764L144.372 136.243L105.629 159.609V113.764Z" fill="#1F9FD0"/>
<path d="M66.8848 136.993L105.625 159.472L66.8848 182.841V136.993Z" fill="#34AFDD"/>
<path d="M105.625 113.765L66.8848 91.2862L105.625 67.9199V113.765Z" fill="#94CEE4"/>
<path d="M183.11 112.91L144.369 90.4307L183.11 67.0645V112.91Z" fill="#4DB4DD"/>
<path d="M183.11 158.758L144.369 136.276L183.11 112.91V158.758Z" fill="#23A1D3"/>
<path d="M144.372 136.281L105.629 113.802L144.372 90.4355V136.281Z" fill="#4FB5DD"/>
<path d="M105.625 159.609L66.8848 137.13L105.625 113.764V159.609Z" fill="#4DB4DD"/>
<path d="M105.625 205.26L66.8848 182.781L105.625 159.415V205.26Z" fill="#1EA1D2"/>
<path d="M183.11 204.628L144.369 182.15L183.11 158.783V204.628Z" fill="#1BA3D1"/>
<path d="M150.149 182.003C150.005 182.003 149.861 182.003 149.717 181.998C145.879 181.924 142.351 180.851 139.228 178.811C136.124 176.784 133.637 174.06 131.834 170.716C130.029 167.37 129.154 163.64 129.231 159.633C129.29 156.595 129.895 153.724 131.026 151.101C132.156 148.482 133.709 146.157 135.646 144.186C137.585 142.213 139.858 140.66 142.407 139.569C143.274 139.199 144.182 138.89 145.115 138.648L145.861 106.431C145.874 105.898 146.309 105.477 146.836 105.477C146.844 105.477 165.282 105.904 165.282 105.904C168.453 105.978 171.336 106.83 173.849 108.44C176.351 110.042 178.347 112.198 179.785 114.852C181.225 117.512 181.917 120.491 181.842 123.706C181.768 126.978 180.922 129.949 179.329 132.539C177.743 135.124 175.618 137.177 173.018 138.646C170.528 140.053 167.794 140.765 164.891 140.765C164.752 140.765 164.61 140.765 164.469 140.76L160.285 140.662C162.445 141.918 164.335 143.551 165.917 145.524C167.74 147.803 169.106 150.465 169.973 153.439C170.84 156.407 171.12 159.61 170.806 162.956C170.76 163.458 170.338 163.841 169.834 163.841C169.826 163.841 145.751 163.368 145.751 163.368C145.576 163.365 145.406 163.314 145.259 163.224C145.097 163.175 144.951 163.087 144.832 162.961C144.652 162.773 144.557 162.524 144.562 162.264L144.91 147.237C144.853 147.268 144.794 147.299 144.737 147.332C142.996 148.307 141.528 149.657 140.375 151.347C139.218 153.04 138.475 154.974 138.161 157.099C138.025 157.889 137.95 158.745 137.932 159.664C137.86 163.347 138.971 166.794 140.828 168.659C140.856 168.687 140.885 168.718 140.91 168.751C141.849 169.968 142.994 170.984 144.31 171.769C145.959 172.751 147.836 173.281 149.891 173.345C149.963 173.345 150.046 173.345 150.128 173.345C152.224 173.345 154.161 172.81 155.889 171.758C157.705 170.652 159.209 169.086 160.359 167.108C160.537 166.801 160.861 166.621 161.203 166.621C161.282 166.621 161.362 166.632 161.444 166.652L168.232 168.381C168.515 168.453 168.751 168.648 168.875 168.911C168.998 169.176 168.998 169.482 168.875 169.744C167.141 173.394 164.541 176.396 161.149 178.67C157.851 180.877 154.15 181.998 150.146 181.998L150.149 182.003ZM162.103 156.469C161.835 154.807 161.246 153.248 160.344 151.823C159.243 150.087 157.805 148.662 156.077 147.592C155.292 147.106 154.459 146.725 153.59 146.452L153.363 156.294L162.105 156.466L162.103 156.469ZM153.778 138.304C155.516 138.599 157.178 139.114 158.728 139.842C158.718 139.78 158.713 139.713 158.713 139.649L158.867 132.948C158.88 132.418 159.315 131.994 159.842 131.994C159.85 131.994 164.076 132.092 164.076 132.092C164.153 132.092 164.23 132.094 164.304 132.094C165.837 132.094 167.272 131.724 168.569 130.996C169.937 130.227 171.056 129.149 171.889 127.791C172.72 126.438 173.159 124.876 173.201 123.145C173.242 121.388 172.874 119.794 172.108 118.405C171.339 117.011 170.271 115.881 168.939 115.048C167.614 114.222 166.12 113.782 164.5 113.746L154.351 113.512L153.778 138.309V138.304Z" fill="#D2EBF5"/>
<path d="M146.833 106.452L165.256 106.879C168.26 106.949 170.947 107.744 173.321 109.261C175.693 110.779 177.562 112.798 178.926 115.316C180.289 117.835 180.937 120.623 180.867 123.681C180.795 126.791 180.006 129.574 178.499 132.026C176.991 134.48 175.006 136.401 172.539 137.793C170.186 139.122 167.637 139.786 164.891 139.786C164.759 139.786 164.626 139.786 164.492 139.781L159.685 139.67L159.839 132.97L164.047 133.067C164.132 133.067 164.214 133.07 164.299 133.07C166.009 133.07 167.591 132.661 169.042 131.846C170.564 130.989 171.788 129.808 172.714 128.298C173.64 126.791 174.126 125.078 174.17 123.164C174.214 121.225 173.81 119.478 172.954 117.93C172.097 116.381 170.929 115.144 169.448 114.218C167.967 113.292 166.323 112.808 164.515 112.767L153.389 112.51L152.939 131.959L152.918 132.81L152.772 139.143C154.922 139.413 156.925 140.02 158.787 140.962C161.277 142.222 163.396 143.945 165.15 146.134C166.902 148.323 168.196 150.849 169.031 153.712C169.867 156.575 170.132 159.626 169.829 162.864L159.199 162.656L153.934 162.553L150.398 162.484L145.763 162.394V162.296L145.532 162.291L145.915 145.72C145.347 145.931 144.794 146.183 144.256 146.484C142.374 147.539 140.81 148.977 139.562 150.8C138.315 152.624 137.525 154.677 137.189 156.958C137.042 157.818 136.967 158.718 136.949 159.646C136.87 163.752 138.153 167.363 140.131 169.349C141.144 170.663 142.366 171.751 143.804 172.608C145.604 173.681 147.62 174.252 149.855 174.324C149.945 174.324 150.035 174.326 150.125 174.326C152.412 174.326 154.503 173.75 156.393 172.595C158.358 171.396 159.96 169.732 161.197 167.602L167.985 169.331C166.321 172.837 163.857 175.682 160.596 177.866C157.448 179.975 153.96 181.029 150.133 181.029C149.997 181.029 149.858 181.03 149.721 181.024C146.051 180.952 142.728 179.941 139.748 177.997C136.767 176.05 134.411 173.47 132.677 170.257C130.944 167.044 130.116 163.51 130.193 159.654C130.25 156.729 130.823 154.008 131.908 151.487C132.996 148.969 134.467 146.762 136.327 144.871C138.186 142.978 140.337 141.512 142.777 140.47C143.842 140.015 144.938 139.67 146.062 139.423L146.826 106.455M163.193 157.468C163.023 155.23 162.347 153.175 161.159 151.302C159.971 149.429 158.445 147.917 156.581 146.765C155.346 146.001 154.029 145.486 152.633 145.208L152.355 157.254L158.7 157.378L159.304 157.391L163.196 157.468M146.828 104.503C145.771 104.503 144.902 105.346 144.879 106.409L144.151 137.903C143.42 138.122 142.705 138.379 142.019 138.672C139.352 139.812 136.973 141.437 134.943 143.5C132.924 145.556 131.304 147.981 130.126 150.713C128.943 153.455 128.313 156.449 128.251 159.613C128.169 163.793 129.084 167.685 130.97 171.18C132.85 174.668 135.447 177.511 138.691 179.628C141.97 181.768 145.671 182.894 149.693 182.974C149.845 182.977 149.994 182.979 150.143 182.979C154.346 182.979 158.229 181.804 161.691 179.486C165.233 177.115 167.946 173.979 169.757 170.167C170.006 169.64 170.009 169.027 169.759 168.5C169.512 167.973 169.039 167.582 168.473 167.438L161.686 165.709C161.527 165.668 161.365 165.647 161.205 165.647C160.521 165.647 159.873 166.008 159.518 166.617C158.451 168.454 157.059 169.902 155.382 170.926C153.788 171.898 152.07 172.371 150.13 172.371C150.058 172.371 149.984 172.371 149.912 172.371C148.003 172.31 146.334 171.839 144.809 170.931C143.598 170.211 142.546 169.277 141.684 168.155C141.633 168.091 141.579 168.027 141.52 167.97C139.84 166.285 138.84 163.111 138.907 159.682C138.925 158.81 138.994 158.005 139.118 157.285C139.118 157.27 139.123 157.257 139.125 157.241C139.418 155.266 140.108 153.468 141.18 151.899C141.941 150.785 142.849 149.828 143.891 149.046L143.585 162.242C143.564 163.098 144.099 163.837 144.861 164.12C145.12 164.256 145.416 164.336 145.73 164.343L150.364 164.433L153.901 164.503L159.166 164.606L169.795 164.814C169.808 164.814 169.821 164.814 169.834 164.814C170.839 164.814 171.683 164.048 171.776 163.044C172.1 159.574 171.809 156.251 170.909 153.164C170.006 150.067 168.581 147.292 166.678 144.913C165.726 143.724 164.669 142.657 163.512 141.713L164.446 141.733C164.595 141.736 164.741 141.738 164.888 141.738C167.961 141.738 170.857 140.982 173.496 139.493C176.24 137.942 178.483 135.773 180.157 133.047C181.84 130.307 182.735 127.172 182.814 123.725C182.891 120.34 182.161 117.197 180.638 114.385C179.121 111.584 177.012 109.308 174.368 107.615C171.701 105.91 168.648 105.004 165.297 104.927L146.874 104.5C146.859 104.5 146.844 104.5 146.828 104.5V104.503ZM154.765 137.502L154.873 132.856L154.894 132.005L155.297 114.509L164.471 114.722C165.935 114.756 167.226 115.134 168.417 115.877C169.623 116.631 170.549 117.613 171.246 118.876C171.938 120.129 172.257 121.518 172.218 123.123C172.182 124.7 171.799 126.061 171.05 127.28C170.294 128.512 169.325 129.448 168.085 130.145C166.92 130.801 165.68 131.12 164.297 131.12C164.227 131.12 164.16 131.12 164.091 131.12L159.881 131.022C159.865 131.022 159.85 131.022 159.834 131.022C159.333 131.022 158.849 131.215 158.487 131.563C158.111 131.92 157.895 132.411 157.882 132.928L157.756 138.379C156.789 138.014 155.789 137.721 154.76 137.502H154.765ZM154.353 155.343L154.526 147.868C154.878 148.033 155.223 148.218 155.557 148.426C157.159 149.417 158.492 150.739 159.513 152.349C160.14 153.339 160.598 154.373 160.889 155.469L159.34 155.438L158.736 155.425L154.351 155.34L154.353 155.343Z" fill="#2898C4"/>
</g>
<defs>
<clipPath id="clip0_242_94872">
<rect width="250" height="250" rx="125" fill="white"/>
</clipPath>
</defs>
</svg>
