<svg width="250" height="250" viewBox="0 0 250 250" fill="none" xmlns="http://www.w3.org/2000/svg">
<g clip-path="url(#clip0_815_5903)">
<rect width="250" height="250" rx="125" fill="url(#paint0_linear_815_5903)"/>
<path d="M55.835 0.135079C56.4017 1.03508 56.9067 1.72008 57.2867 2.46841C57.6784 3.24341 58.0517 4.05675 58.24 4.89841C58.3817 5.52841 58.0917 6.16508 57.4167 6.47841C56.7767 6.77508 56.2667 6.49675 55.7217 6.15008C53.7017 4.86341 52.425 2.88675 51.0017 1.05841C50.4517 0.351746 49.9067 0.0400789 49.0067 0.0417456C38.7367 0.0584122 28.465 0.0317456 18.195 0.0284122C14.615 0.0284122 11.0334 0.0734122 7.45336 0.0550789C6.67169 0.0517456 6.34169 0.348412 6.48336 1.07841C6.69169 2.15675 6.83169 3.27841 7.24836 4.28008C7.91169 5.87841 7.67169 7.24174 6.66169 8.56508C6.02169 9.40341 5.43003 10.2767 4.79336 11.1151C3.96003 12.2134 3.81503 13.4534 4.05169 14.7517C4.51169 17.2834 4.98836 19.8134 5.50169 22.3351C5.80669 23.8317 6.70336 24.9167 8.01503 25.6901C9.57169 26.6084 11.1417 26.3467 12.7634 25.8901C13.5134 25.6801 14.35 25.5467 15.11 25.6517C16.8784 25.8967 17.8067 27.2784 18.6734 28.6517C19.3867 29.7817 20.065 30.9234 21.2484 31.6534C21.395 31.7434 21.5467 32.0551 21.4934 32.1801C21.43 32.3301 21.1584 32.4601 20.9667 32.4734C20.415 32.5151 19.855 32.4634 19.3034 32.5051C17.3684 32.6534 15.5417 33.1884 14.2367 34.6851C12.9284 36.1851 11.775 37.8234 10.585 39.4234C10.0584 40.1301 9.52836 40.8551 9.15003 41.6451C8.76836 42.4417 9.04503 42.9434 9.91336 43.1151C10.6934 43.2701 11.5067 43.2667 12.3067 43.3201C13.2284 43.3817 13.5367 43.7801 13.34 44.6784C13.1317 45.6267 12.8817 46.5667 12.7267 47.5234C12.4517 49.2101 12.8534 50.6534 14.3434 51.6784C15.1184 52.2117 15.8917 52.7601 16.5984 53.3784C17.1784 53.8851 17.6334 53.8951 18.1784 53.3617C19.2084 52.3534 20.3334 51.4334 21.2917 50.3634C22.0417 49.5251 22.6317 48.5351 23.2334 47.5751C23.6334 46.9367 23.495 46.3034 22.975 45.7484C22.33 45.0617 21.6784 44.3801 21.07 43.6617C20.6617 43.1784 20.26 42.6667 19.97 42.1084C19.5934 41.3801 19.7984 40.6767 20.545 40.3684C21.0967 40.1401 21.8 40.0034 22.365 40.1351C24.1934 40.5601 25.1234 42.0834 24.7434 44.2734C24.4817 45.7717 24.8367 46.8517 25.9967 47.7767C27.2717 48.7934 27.45 50.0951 26.9167 51.5951C26.575 52.5567 26.3034 53.5517 26.115 54.5551C25.825 56.1051 25.6317 57.6751 25.4067 59.2367C25.38 59.4184 25.3467 59.6517 25.4317 59.7884C25.94 60.6151 26.5184 61.3801 27.4917 61.7151C28.2267 61.9667 28.9584 62.2234 29.6917 62.4801C31.0734 62.9651 32.5167 63.3267 33.82 63.9717C35.1984 64.6517 35.65 65.9734 35.3767 67.5017C35.1434 68.8117 34.9234 70.1234 34.72 71.4384C34.5 72.8601 35.15 73.5017 36.5584 73.2867C39.21 72.8817 41.435 71.5767 43.6167 70.0934C44.9784 69.1684 46.46 68.3084 48.0134 67.8017C52.1234 66.4584 56.3217 65.3817 60.4467 64.0767C62.6217 63.3884 64.78 63.2767 67.005 63.5634C69.37 63.8684 71.7567 64.3117 74.1117 63.6901C76.6584 63.0167 79.1467 63.0067 81.65 63.8151C83.31 64.3501 84.9917 64.3601 86.6334 63.7834C88.6684 63.0701 90.6567 63.2384 92.675 63.8451C94.4417 64.3751 96.18 64.2901 97.83 63.3551C98.4567 63.0001 99.1117 62.6901 99.7617 62.3784C101.66 61.4717 103.617 60.8151 105.767 60.9634C108.593 61.1584 111.308 60.6917 113.855 59.4434C115.645 58.5667 117.408 57.6267 119.137 56.6351C120.772 55.6984 122.433 55.0301 124.367 54.9267C125.895 54.8451 127.548 54.7101 128.892 54.0701C132.487 52.3551 136.21 51.0334 139.963 49.7401C143.368 48.5667 146.363 46.8717 147.765 43.1801C148.15 42.1634 149.058 41.1967 149.973 40.5617C151.557 39.4601 153.303 38.5767 155.035 37.7067C156.435 37.0051 157.923 37.0134 159.402 37.5751C160.023 37.8117 160.658 38.0167 161.298 38.2017C163.015 38.6967 164.738 39.1184 166.53 38.5667C168.332 38.0134 168.817 36.3484 167.457 35.0467C166.627 34.2534 165.655 33.5701 164.655 32.9984C162.08 31.5301 159.187 31.0501 156.323 30.5034C154.612 30.1767 152.963 29.6417 151.642 28.4701C149.662 26.7151 147.592 25.1167 145.237 23.8801C143.982 23.2201 143.887 22.5884 144.497 21.2551C144.888 20.3984 145.282 19.5351 145.565 18.6401C146.112 16.9084 145.623 15.6001 144.103 14.6117C142.435 13.5267 140.668 13.6867 138.912 14.3451C137.718 14.7917 136.58 15.3917 135.375 15.8034C132.938 16.6367 130.357 15.8651 128.698 13.8984C128.253 13.3717 127.878 12.7501 127.342 12.3434C125.943 11.2801 124.4 11.5634 122.9 12.1184C121.602 12.5984 120.363 13.2601 119.043 13.6601C117.18 14.2251 116.008 13.7101 114.867 12.1351C114.347 11.4201 113.818 10.6917 113.182 10.0867C112.163 9.11841 110.975 9.02841 109.852 9.85841C109.033 10.4634 108.253 11.1667 107.612 11.9534C106.813 12.9367 105.798 13.3351 104.63 13.3117C103.612 13.2917 102.582 13.1467 101.587 12.9217C99.3884 12.4267 97.23 11.9517 94.935 12.4734C93.43 12.8167 92.1884 12.0934 91.2584 10.8617C90.4067 9.73508 89.3434 8.87341 88.0267 8.32008C85.675 7.33008 83.3434 6.29341 80.9817 5.33008C80.5317 5.14675 79.78 4.99841 79.525 5.22841C79.2167 5.50841 79.1467 6.23008 79.2217 6.72175C79.4384 8.11674 79.8267 9.48508 80.045 10.8801C80.1084 11.2801 79.9417 11.8884 79.655 12.1184C79.4167 12.3084 78.7567 12.2217 78.44 12.0167C77.4234 11.3534 76.4134 10.6501 75.52 9.83175C73.4334 7.92008 71.37 6.02008 68.885 4.58508C67.9134 4.02341 67.1984 2.95175 66.4934 2.01841C66.0967 1.49341 66.1267 0.513412 65.6584 0.211746C65.1334 -0.124921 64.265 0.0450789 63.5467 0.0434122C61.3534 0.0384122 59.1617 0.0567456 56.9684 0.0700789C56.695 0.0717456 56.4217 0.101746 55.835 0.136746V0.135079ZM0.110026 101.913C1.07169 101.802 1.91836 101.723 2.76003 101.597C3.31003 101.513 3.58336 101.778 3.77836 102.232C4.60503 104.145 4.40169 106.765 2.26003 108.137C1.77003 108.45 1.23336 108.69 0.751693 109.013C0.491693 109.188 0.13836 109.452 0.110026 109.707C0.0266929 110.485 0.0800263 111.278 0.0800263 112.253C0.925026 111.852 1.58836 111.532 2.25836 111.22C4.26503 110.282 6.02836 108.935 7.50836 107.362C9.42003 105.332 11.0034 102.995 12.7767 100.832C14.3567 98.9034 15.095 96.5584 16.145 94.3651C16.8867 92.8167 17.445 91.2251 17.4317 89.5101C17.42 87.8651 17.7317 86.3401 18.425 84.8434C18.9884 83.6267 19.8367 82.8617 21.14 82.6584C21.9567 82.5317 22.7934 82.5067 23.6217 82.4667C27.05 82.2967 29.6167 80.7384 31.32 77.7467C31.7034 77.0751 31.9984 76.2584 31.445 75.7551C31.03 75.3784 30.1517 75.3151 29.5234 75.4084C28.3234 75.5851 27.1617 76.0134 25.97 76.2601C24.3767 76.5901 22.775 76.9117 21.1617 77.1084C20.2134 77.2251 19.4734 76.6884 19.2267 75.7434C19.055 75.0884 18.8517 74.3167 19.0384 73.7134C20.075 70.3601 21.1467 67.0117 22.375 63.7251C22.945 62.1984 22.8884 61.5434 21.6717 60.4717C20.86 59.7567 20.1717 58.8651 19.565 57.9617C18.9817 57.0917 18.615 56.0801 18.075 55.1767C17.4567 54.1434 17.0317 54.0767 16.23 55.0017C14.9267 56.5067 13.7284 58.1001 12.47 59.6451C10.575 61.9717 8.32503 63.4684 5.12503 62.8467C3.80169 62.5901 2.50503 62.7551 1.20169 63.1751C0.310026 63.4617 -0.00330706 63.8751 2.62778e-05 64.8151C0.0383596 76.9684 0.0383596 89.1217 0.0516929 101.273C0.0516929 101.488 0.0900263 101.703 0.110026 101.913ZM117.455 147.598C117.122 147.598 116.788 147.588 116.457 147.598C112.602 147.733 110.46 150.343 111.253 154.102C111.623 155.858 112.278 157.555 112.773 159.287C113.71 162.562 115.828 164.647 119.175 165.192C123.083 165.827 127.025 166.265 130.962 166.707C132.437 166.872 133.588 166.173 134.325 164.857C134.595 164.373 134.863 163.888 135.137 163.405C135.873 162.095 136.807 161.758 138.197 162.328C138.683 162.528 139.148 162.782 139.62 163.017C141.875 164.14 144.223 164.38 146.528 163.347C148.188 162.603 149.802 161.688 151.288 160.642C153.9 158.803 154.95 156.127 154.833 152.983C154.778 151.49 154.612 150 154.525 148.507C154.337 145.275 150.832 142.4 147.655 143.063C146.307 143.345 144.985 143.962 143.773 144.642C141.153 146.112 139.4 148.51 137.517 150.772C135.962 152.64 134.192 153.07 132.092 151.728C130.902 150.968 129.757 150.065 128.46 149.567C124.933 148.213 121.173 147.977 117.453 147.595L117.455 147.598ZM45.9334 86.9901L46.0067 86.9851C45.9367 85.9934 45.9184 84.9934 45.78 84.0101C45.655 83.1167 45.2417 82.8867 44.3867 83.0667C41.535 83.6651 38.6267 86.8751 38.3117 89.7684C38.1934 90.8517 38.825 91.7967 39.8984 91.9434C41.58 92.1734 43.2117 91.9001 44.7284 91.1251C45.5384 90.7101 45.8917 89.9567 45.9284 89.0701C45.9567 88.3784 45.9334 87.6834 45.9334 86.9917V86.9901ZM34.5767 119.138C33.1717 119.097 32.2717 119.77 32.02 120.743C31.655 122.147 32.5467 124.335 33.8484 124.983C34.19 125.153 34.9267 125.15 35.105 124.925C35.9767 123.835 36.7717 122.673 37.485 121.472C37.8217 120.905 37.5484 120.28 36.935 120.01C36.055 119.622 35.13 119.337 34.5767 119.137V119.138ZM105.358 118.895C105.442 118.91 105.527 118.927 105.61 118.942C105.61 119.523 105.557 120.112 105.633 120.682C105.672 120.965 105.897 121.332 106.137 121.443C106.317 121.527 106.717 121.325 106.918 121.14C108.143 120.018 109.07 118.678 109.577 117.088C109.723 116.628 109.738 116.102 109.697 115.615C109.625 114.79 108.85 113.935 108.173 113.82C107.448 113.698 106.488 114.182 106.218 115.053C105.832 116.303 105.637 117.612 105.36 118.895H105.358ZM0.0866929 124.97C2.20169 124.742 3.84336 123.085 4.18169 120.94C4.39169 119.605 3.88003 118.873 2.55836 118.645C2.06836 118.56 1.57336 118.505 1.08003 118.435C0.0533597 118.29 0.0433596 118.288 0.0333596 119.363C0.0200263 120.885 0.0216929 122.408 0.0250263 123.93C0.0250263 124.275 0.0650263 124.62 0.0850263 124.968L0.0866929 124.97ZM201.838 150.288C201.757 149.325 201.188 148.435 200.162 147.838C199.52 147.465 199.062 147.685 198.74 148.31C198.147 149.463 198.818 151.2 200.035 151.648C200.998 152.003 201.82 151.487 201.837 150.29L201.838 150.288ZM0.0716929 13.8817C1.33669 13.1801 1.91003 12.2834 1.80336 10.9684C1.70503 9.76341 1.07336 8.92675 0.0716929 8.09008V13.8817Z" fill="white"/>
<path d="M23.1271 249.852C22.7621 247.667 22.4787 245.463 22.0171 243.298C19.6904 232.387 17.3487 221.48 14.9504 210.583C13.4171 203.618 11.7587 196.682 10.1987 189.722C9.66706 187.347 9.29206 184.937 8.78706 182.555C8.61039 181.727 8.24372 180.938 7.98872 180.125C7.71539 179.255 7.41872 178.387 7.22539 177.498C5.45539 169.392 3.71206 161.278 1.94706 153.172C1.47039 150.98 1.07539 148.758 0.412057 146.622C-0.246276 144.502 0.230391 142.403 0.0253906 140.303C0.098724 140.24 0.172057 140.175 0.245391 140.112C0.738724 140.408 1.29872 140.633 1.71039 141.018C2.60206 141.85 3.36872 142.815 4.27372 143.628C5.63872 144.853 6.21872 146.377 6.46706 148.153C6.67206 149.623 7.00539 151.097 7.48539 152.5C8.42872 155.262 10.6154 156.31 13.4321 155.51C13.9921 155.35 14.5521 155.19 15.1187 155.055C16.6937 154.68 17.9637 155.46 18.4521 157.023C18.9487 158.613 18.7354 160.203 18.5837 161.807C18.5371 162.292 18.6804 162.795 18.7354 163.292C19.2071 163.012 19.8121 162.837 20.1271 162.435C21.6237 160.525 23.1787 158.698 25.3154 157.462C25.8921 157.128 26.4954 156.827 27.0187 156.422C28.2454 155.475 29.4921 154.54 30.6171 153.482C32.4337 151.773 32.5804 149.885 31.3271 147.695C30.6421 146.498 29.9187 145.275 29.5254 143.97C28.9121 141.93 29.2971 139.868 30.2137 137.978C30.9004 136.563 31.8071 135.255 32.6037 133.892C33.2037 132.865 33.7854 131.83 34.3721 130.795C34.6321 130.337 34.8404 129.843 35.1487 129.423C35.5404 128.89 36.0054 128.55 36.7787 128.825C37.5721 129.107 38.8687 128.36 39.4671 127.763C41.2804 125.953 41.7721 123.585 42.4704 121.278C42.6987 120.523 43.0654 119.75 43.5671 119.152C45.1737 117.238 45.7837 115.017 45.7637 112.595C45.7371 109.278 47.2587 106.735 49.6954 104.682C50.2821 104.187 51.1071 103.85 51.8704 103.717C53.3304 103.462 54.3554 102.675 55.1654 101.527C56.8121 99.1915 58.3837 96.8015 60.0987 94.5199C61.0254 93.2849 62.1354 92.1749 63.2487 91.0982C64.3537 90.0299 65.7837 89.5065 67.2604 89.1865C69.2387 88.7582 71.0771 88.0299 72.7504 86.8882C74.7354 85.5349 77.0854 85.2749 79.3221 84.6432C82.7654 83.6699 86.2654 83.4399 89.7921 83.6632C91.6637 83.7816 93.5121 84.2365 95.3787 84.4799C96.6404 84.6432 97.9171 84.6899 99.1854 84.8049C101.17 84.9849 103.172 85.0782 105.137 85.3899C108.385 85.9049 112.22 82.3232 111.47 78.9215C111.274 78.0282 111.074 77.1365 110.855 76.2482C110.695 75.5982 110.572 74.8332 111.227 74.5349C111.68 74.3282 112.422 74.4682 112.917 74.7032C114.014 75.2215 114.985 76.0149 116.099 76.4832C117.805 77.2015 118.939 76.6115 119.677 74.8849C119.99 74.1499 120.315 73.4016 120.76 72.7466C121.232 72.0532 121.852 71.9765 122.367 72.5815C124.185 74.7132 126.639 76.0049 128.845 77.6232C130.55 78.8749 130.799 78.9499 132.495 77.7199C136.867 74.5499 141.865 72.8082 146.974 71.3666C149.294 70.7116 151.464 69.7866 153.597 68.7099C155.712 67.6416 157.972 66.9666 160.339 67.1932C162.589 67.4099 164.83 67.8365 167.035 68.3482C168.747 68.7465 169.994 69.9516 171 71.3599C172.662 73.6832 174.38 75.9716 175.915 78.3766C177.904 81.4899 177.515 84.8049 175.027 87.1816C173.692 88.4582 172.152 89.1316 170.249 88.6282C166.849 87.7282 163.829 88.5232 161.149 90.7465C159.04 92.4949 156.569 93.5282 154.024 94.4482C152.272 95.0815 150.997 96.3782 149.907 97.8399C149.337 98.6049 149.365 99.4599 149.905 100.248C150.265 100.773 150.685 101.255 151.089 101.748C152.559 103.553 152.107 105.64 149.942 106.452C148.79 106.883 147.529 107.077 146.299 107.227C144.625 107.432 142.93 107.615 141.249 107.583C139.372 107.548 137.499 107.272 135.627 107.072C135.275 107.035 134.924 106.897 134.597 106.752C133.83 106.41 133.559 105.765 133.815 104.975C133.859 104.843 133.909 104.71 133.984 104.595C135.399 102.452 134.484 100.903 133.095 99.1749C132.267 98.1432 130.654 97.8716 129.264 98.5649C128.26 99.0632 127.367 99.7949 126.46 100.47C125.352 101.295 124.327 102.243 123.179 103.005C121.879 103.867 120.542 104.658 119.625 105.963C118.044 108.213 115.85 108.315 113.394 107.932C110.95 107.55 108.519 108.032 106.184 108.722C105.349 108.968 104.52 109.677 103.979 110.395C102.257 112.68 100.137 114.367 97.4521 115.357C95.2721 116.162 93.1271 117.077 90.9154 117.778C90.0237 118.06 88.9887 117.977 88.0254 117.927C86.3754 117.84 84.8021 118.107 83.3421 118.845C80.7937 120.135 78.5271 119.643 76.5437 117.763C75.0604 116.36 73.5221 114.952 72.3387 113.307C70.4721 110.715 67.9854 111.052 66.1137 112.753C64.0721 114.608 62.9387 116.963 63.3687 119.898C63.5504 121.142 63.4587 122.433 63.4121 123.7C63.3704 124.818 63.8487 125.613 64.7104 126.243C66.7254 127.715 68.7054 129.24 70.7654 130.645C73.4204 132.457 76.2887 133.777 79.6021 133.583C80.8071 133.513 81.9904 132.998 83.1921 132.958C85.4537 132.882 87.7237 132.968 89.9887 133.057C91.1204 133.1 92.2437 133.322 93.3754 133.418C94.8987 133.548 95.8271 132.45 96.9354 131.687C97.6987 131.16 98.5404 130.69 99.4137 130.395C100.687 129.963 101.489 130.425 101.992 131.662C102.097 131.918 102.167 132.19 102.28 132.442C102.662 133.283 103.174 133.555 104.085 133.387C105.905 133.05 107.725 132.713 109.54 132.357C111.119 132.047 112.12 131.082 112.72 129.602C113.134 128.582 113.512 127.487 114.182 126.643C115.71 124.722 117.815 124.437 120.064 125.107C121.417 125.51 122.709 126.122 124.064 126.517C127.425 127.497 130.722 127.437 133.945 125.857C134.969 125.355 136.109 124.967 137.23 124.837C137.95 124.753 138.802 125.117 139.477 125.493C140.699 126.175 140.69 127.225 139.427 127.787C137.944 128.447 136.37 128.907 134.824 129.412C134.382 129.555 133.895 129.557 133.427 129.618C131.377 129.893 130.187 130.988 129.745 133.018C129.627 133.56 129.582 134.122 129.412 134.645C129.13 135.508 128.649 135.627 128.027 134.972C127.38 134.288 126.837 133.508 126.185 132.83C124.472 131.043 122.872 130.69 120.724 131.888C118.625 133.06 116.63 134.425 114.632 135.77C113.275 136.683 112.012 137.732 110.675 138.673C108.79 140 107.162 141.58 106.03 143.587C104.724 145.902 103.362 148.207 102.325 150.645C100.897 154.005 100.889 157.438 102.649 160.763C103.582 162.527 104.462 164.318 105.394 166.083C106.755 168.662 108.759 170.602 111.33 171.967C111.745 172.187 112.137 172.457 112.522 172.727C114.429 174.068 115.015 175.855 114.189 178.042C113.727 179.258 113.169 180.442 112.607 181.617C112.16 182.548 111.61 182.75 110.627 182.385C108.142 181.463 106.85 179.498 106.082 177.102C105.794 176.203 105.59 175.28 105.304 174.382C104.672 172.397 103.334 171.003 101.52 170.055C100.155 169.342 98.9887 169.682 98.3504 171.082C98.0037 171.843 97.7354 172.735 97.7637 173.555C97.8587 176.258 97.4837 178.828 96.4804 181.365C95.6904 183.36 96.5771 185.237 97.5087 186.995C97.8404 187.622 98.5587 187.538 99.2537 186.78C100.22 185.725 101.379 185.508 102.665 185.903C103.589 186.187 104.464 186.618 105.369 186.963C106.555 187.415 107.724 187.95 108.947 188.262C110.544 188.67 112.085 187.663 112.56 186.082C112.632 185.842 112.697 185.602 112.769 185.362C113.197 183.935 113.502 183.717 115.032 183.738C117.53 183.775 118.869 184.69 119.792 187.02C120.017 187.587 120.244 188.16 120.382 188.75C120.949 191.188 122.219 193.157 124.329 194.502C126.005 195.57 127.712 196.622 129.502 197.475C130.9 198.143 132.397 197.92 133.695 197.008C137.715 194.18 142.32 193.227 147.087 192.707C150.02 192.387 152.9 192.578 155.762 193.227C158.425 193.83 161.047 193.485 163.682 192.997C165.229 192.71 166.802 192.492 168.372 192.42C170.072 192.342 170.644 193.428 169.814 194.937C168.457 197.405 168.402 197.463 170.427 199.347C172.765 201.52 173.035 204.247 172.774 207.152C172.625 208.807 172.375 210.452 172.21 212.105C172.077 213.44 172.74 213.935 174.052 213.568C174.607 213.413 175.18 213.257 175.752 213.232C177.037 213.173 177.805 213.725 178.282 214.947C178.845 216.392 178.827 217.903 178.567 219.38C178.347 220.627 178.022 221.89 177.514 223.047C176.232 225.967 175.702 229.043 175.424 232.17C175.194 234.752 174.512 237.177 173.4 239.505C173.067 240.203 172.784 240.937 172.565 241.678C171.927 243.852 170.52 245.37 168.65 246.56C167.415 247.347 166.36 248.325 166.027 249.855H23.1271V249.852ZM54.2754 123.725C54.1737 123.117 54.0437 122.045 53.8071 120.998C53.6237 120.187 53.1104 119.55 52.2237 119.515C51.3021 119.478 50.8471 120.187 50.5971 120.947C50.3121 121.812 50.1921 122.732 49.9121 123.6C49.6537 124.402 49.3587 125.215 48.9321 125.935C48.2204 127.135 47.4237 128.288 46.6004 129.415C45.8921 130.383 45.8604 131.345 46.3904 132.375C47.2521 134.052 47.6954 135.837 47.8287 137.715C47.8671 138.258 48.0754 138.792 48.2354 139.322C48.4254 139.952 48.9171 140.242 49.5287 140.353C50.9154 140.607 53.0104 139.555 53.5904 138.275C54.2104 136.905 54.3687 135.467 54.2137 133.967C54.0771 132.647 53.9621 131.317 53.9787 129.993C54.0037 128.058 54.1554 126.123 54.2754 123.725ZM58.2354 140.012C58.5987 141.143 58.8537 142.223 59.3071 143.213C59.4821 143.597 60.1271 144.013 60.5204 143.978C60.9054 143.945 61.3621 143.415 61.5637 142.995C61.7471 142.617 61.7821 142.022 61.6104 141.647C61.6104 141.647 60.7337 140.005 60.1621 139.285C59.9171 138.977 59.2637 138.677 58.9771 138.798C58.6387 138.942 58.4971 139.547 58.2371 140.012H58.2354Z" fill="url(#paint1_linear_815_5903)"/>
<path d="M23.1271 249.852C22.7621 247.667 22.4787 245.463 22.0171 243.298C19.6904 232.387 17.3487 221.48 14.9504 210.583C13.4171 203.618 11.7587 196.682 10.1987 189.722C9.66706 187.347 9.29206 184.937 8.78706 182.555C8.61039 181.727 8.24372 180.938 7.98872 180.125C7.71539 179.255 7.41872 178.387 7.22539 177.498C5.45539 169.392 3.71206 161.278 1.94706 153.172C1.47039 150.98 1.07539 148.758 0.412057 146.622C-0.246276 144.502 0.230391 142.403 0.0253906 140.303C0.098724 140.24 0.172057 140.175 0.245391 140.112C0.738724 140.408 1.29872 140.633 1.71039 141.018C2.60206 141.85 3.36872 142.815 4.27372 143.628C5.63872 144.853 6.21872 146.377 6.46706 148.153C6.67206 149.623 7.00539 151.097 7.48539 152.5C8.42872 155.262 10.6154 156.31 13.4321 155.51C13.9921 155.35 14.5521 155.19 15.1187 155.055C16.6937 154.68 17.9637 155.46 18.4521 157.023C18.9487 158.613 18.7354 160.203 18.5837 161.807C18.5371 162.292 18.6804 162.795 18.7354 163.292C19.2071 163.012 19.8121 162.837 20.1271 162.435C21.6237 160.525 23.1787 158.698 25.3154 157.462C25.8921 157.128 26.4954 156.827 27.0187 156.422C28.2454 155.475 29.4921 154.54 30.6171 153.482C32.4337 151.773 32.5804 149.885 31.3271 147.695C30.6421 146.498 29.9187 145.275 29.5254 143.97C28.9121 141.93 29.2971 139.868 30.2137 137.978C30.9004 136.563 31.8071 135.255 32.6037 133.892C33.2037 132.865 33.7854 131.83 34.3721 130.795C34.6321 130.337 34.8404 129.843 35.1487 129.423C35.5404 128.89 36.0054 128.55 36.7787 128.825C37.5721 129.107 38.8687 128.36 39.4671 127.763C41.2804 125.953 41.7721 123.585 42.4704 121.278C42.6987 120.523 43.0654 119.75 43.5671 119.152C45.1737 117.238 45.7837 115.017 45.7637 112.595C45.7371 109.278 47.2587 106.735 49.6954 104.682C50.2821 104.187 51.1071 103.85 51.8704 103.717C53.3304 103.462 54.3554 102.675 55.1654 101.527C56.8121 99.1915 58.3837 96.8015 60.0987 94.5199C61.0254 93.2849 62.1354 92.1749 63.2487 91.0982C64.3537 90.0299 65.7837 89.5065 67.2604 89.1865C69.2387 88.7582 71.0771 88.0299 72.7504 86.8882C74.7354 85.5349 77.0854 85.2749 79.3221 84.6432C82.7654 83.6699 86.2654 83.4399 89.7921 83.6632C91.6637 83.7816 93.5121 84.2365 95.3787 84.4799C96.6404 84.6432 97.9171 84.6899 99.1854 84.8049C101.17 84.9849 103.172 85.0782 105.137 85.3899C108.385 85.9049 112.22 82.3232 111.47 78.9215C111.274 78.0282 111.074 77.1365 110.855 76.2482C110.695 75.5982 110.572 74.8332 111.227 74.5349C111.68 74.3282 112.422 74.4682 112.917 74.7032C114.014 75.2215 114.985 76.0149 116.099 76.4832C117.805 77.2015 118.939 76.6115 119.677 74.8849C119.99 74.1499 120.315 73.4016 120.76 72.7466C121.232 72.0532 121.852 71.9765 122.367 72.5815C124.185 74.7132 126.639 76.0049 128.845 77.6232C130.55 78.8749 130.799 78.9499 132.495 77.7199C136.867 74.5499 141.865 72.8082 146.974 71.3666C149.294 70.7116 151.464 69.7866 153.597 68.7099C155.712 67.6416 157.972 66.9666 160.339 67.1932C162.589 67.4099 164.83 67.8365 167.035 68.3482C168.747 68.7465 169.994 69.9516 171 71.3599C172.662 73.6832 174.38 75.9716 175.915 78.3766C177.904 81.4899 177.515 84.8049 175.027 87.1816C173.692 88.4582 172.152 89.1316 170.249 88.6282C166.849 87.7282 163.829 88.5232 161.149 90.7465C159.04 92.4949 156.569 93.5282 154.024 94.4482C152.272 95.0815 150.997 96.3782 149.907 97.8399C149.337 98.6049 149.365 99.4599 149.905 100.248C150.265 100.773 150.685 101.255 151.089 101.748C152.559 103.553 152.107 105.64 149.942 106.452C148.79 106.883 147.529 107.077 146.299 107.227C144.625 107.432 142.93 107.615 141.249 107.583C139.372 107.548 137.499 107.272 135.627 107.072C135.275 107.035 134.924 106.897 134.597 106.752C133.83 106.41 133.559 105.765 133.815 104.975C133.859 104.843 133.909 104.71 133.984 104.595C135.399 102.452 134.484 100.903 133.095 99.1749C132.267 98.1432 130.654 97.8716 129.264 98.5649C128.26 99.0632 127.367 99.7949 126.46 100.47C125.352 101.295 124.327 102.243 123.179 103.005C121.879 103.867 120.542 104.658 119.625 105.963C118.044 108.213 115.85 108.315 113.394 107.932C110.95 107.55 108.519 108.032 106.184 108.722C105.349 108.968 104.52 109.677 103.979 110.395C102.257 112.68 100.137 114.367 97.4521 115.357C95.2721 116.162 93.1271 117.077 90.9154 117.778C90.0237 118.06 88.9887 117.977 88.0254 117.927C86.3754 117.84 84.8021 118.107 83.3421 118.845C80.7937 120.135 78.5271 119.643 76.5437 117.763C75.0604 116.36 73.5221 114.952 72.3387 113.307C70.4721 110.715 67.9854 111.052 66.1137 112.753C64.0721 114.608 62.9387 116.963 63.3687 119.898C63.5504 121.142 63.4587 122.433 63.4121 123.7C63.3704 124.818 63.8487 125.613 64.7104 126.243C66.7254 127.715 68.7054 129.24 70.7654 130.645C73.4204 132.457 76.2887 133.777 79.6021 133.583C80.8071 133.513 81.9904 132.998 83.1921 132.958C85.4537 132.882 87.7237 132.968 89.9887 133.057C91.1204 133.1 92.2437 133.322 93.3754 133.418C94.8987 133.548 95.8271 132.45 96.9354 131.687C97.6987 131.16 98.5404 130.69 99.4137 130.395C100.687 129.963 101.489 130.425 101.992 131.662C102.097 131.918 102.167 132.19 102.28 132.442C102.662 133.283 103.174 133.555 104.085 133.387C105.905 133.05 107.725 132.713 109.54 132.357C111.119 132.047 112.12 131.082 112.72 129.602C113.134 128.582 113.512 127.487 114.182 126.643C115.71 124.722 117.815 124.437 120.064 125.107C121.417 125.51 122.709 126.122 124.064 126.517C127.425 127.497 130.722 127.437 133.945 125.857C134.969 125.355 136.109 124.967 137.23 124.837C137.95 124.753 138.802 125.117 139.477 125.493C140.699 126.175 140.69 127.225 139.427 127.787C137.944 128.447 136.37 128.907 134.824 129.412C134.382 129.555 133.895 129.557 133.427 129.618C131.377 129.893 130.187 130.988 129.745 133.018C129.627 133.56 129.582 134.122 129.412 134.645C129.13 135.508 128.649 135.627 128.027 134.972C127.38 134.288 126.837 133.508 126.185 132.83C124.472 131.043 122.872 130.69 120.724 131.888C118.625 133.06 116.63 134.425 114.632 135.77C113.275 136.683 112.012 137.732 110.675 138.673C108.79 140 107.162 141.58 106.03 143.587C104.724 145.902 103.362 148.207 102.325 150.645C100.897 154.005 100.889 157.438 102.649 160.763C103.582 162.527 104.462 164.318 105.394 166.083C106.755 168.662 108.759 170.602 111.33 171.967C111.745 172.187 112.137 172.457 112.522 172.727C114.429 174.068 115.015 175.855 114.189 178.042C113.727 179.258 113.169 180.442 112.607 181.617C112.16 182.548 111.61 182.75 110.627 182.385C108.142 181.463 106.85 179.498 106.082 177.102C105.794 176.203 105.59 175.28 105.304 174.382C104.672 172.397 103.334 171.003 101.52 170.055C100.155 169.342 98.9887 169.682 98.3504 171.082C98.0037 171.843 97.7354 172.735 97.7637 173.555C97.8587 176.258 97.4837 178.828 96.4804 181.365C95.6904 183.36 96.5771 185.237 97.5087 186.995C97.8404 187.622 98.5587 187.538 99.2537 186.78C100.22 185.725 101.379 185.508 102.665 185.903C103.589 186.187 104.464 186.618 105.369 186.963C106.555 187.415 107.724 187.95 108.947 188.262C110.544 188.67 112.085 187.663 112.56 186.082C112.632 185.842 112.697 185.602 112.769 185.362C113.197 183.935 113.502 183.717 115.032 183.738C117.53 183.775 118.869 184.69 119.792 187.02C120.017 187.587 120.244 188.16 120.382 188.75C120.949 191.188 122.219 193.157 124.329 194.502C126.005 195.57 127.712 196.622 129.502 197.475C130.9 198.143 132.397 197.92 133.695 197.008C137.715 194.18 142.32 193.227 147.087 192.707C150.02 192.387 152.9 192.578 155.762 193.227C158.425 193.83 161.047 193.485 163.682 192.997C165.229 192.71 166.802 192.492 168.372 192.42C170.072 192.342 170.644 193.428 169.814 194.937C168.457 197.405 168.402 197.463 170.427 199.347C172.765 201.52 173.035 204.247 172.774 207.152C172.625 208.807 172.375 210.452 172.21 212.105C172.077 213.44 172.74 213.935 174.052 213.568C174.607 213.413 175.18 213.257 175.752 213.232C177.037 213.173 177.805 213.725 178.282 214.947C178.845 216.392 178.827 217.903 178.567 219.38C178.347 220.627 178.022 221.89 177.514 223.047C176.232 225.967 175.702 229.043 175.424 232.17C175.194 234.752 174.512 237.177 173.4 239.505C173.067 240.203 172.784 240.937 172.565 241.678C171.927 243.852 170.52 245.37 168.65 246.56C167.415 247.347 166.36 248.325 166.027 249.855H23.1271V249.852ZM54.2754 123.725C54.1737 123.117 54.0437 122.045 53.8071 120.998C53.6237 120.187 53.1104 119.55 52.2237 119.515C51.3021 119.478 50.8471 120.187 50.5971 120.947C50.3121 121.812 50.1921 122.732 49.9121 123.6C49.6537 124.402 49.3587 125.215 48.9321 125.935C48.2204 127.135 47.4237 128.288 46.6004 129.415C45.8921 130.383 45.8604 131.345 46.3904 132.375C47.2521 134.052 47.6954 135.837 47.8287 137.715C47.8671 138.258 48.0754 138.792 48.2354 139.322C48.4254 139.952 48.9171 140.242 49.5287 140.353C50.9154 140.607 53.0104 139.555 53.5904 138.275C54.2104 136.905 54.3687 135.467 54.2137 133.967C54.0771 132.647 53.9621 131.317 53.9787 129.993C54.0037 128.058 54.1554 126.123 54.2754 123.725ZM58.2354 140.012C58.5987 141.143 58.8537 142.223 59.3071 143.213C59.4821 143.597 60.1271 144.013 60.5204 143.978C60.9054 143.945 61.3621 143.415 61.5637 142.995C61.7471 142.617 61.7821 142.022 61.6104 141.647C61.6104 141.647 60.7337 140.005 60.1621 139.285C59.9171 138.977 59.2637 138.677 58.9771 138.798C58.6387 138.942 58.4971 139.547 58.2371 140.012H58.2354Z" fill="#290D3E" fill-opacity="0.5"/>
<path d="M245.145 249.852C244.397 248.753 243.654 247.65 242.897 246.555C241.837 245.023 241.132 243.372 240.949 241.49C240.647 238.403 238.704 236.498 236.105 235.187C233.879 234.063 231.492 233.23 229.342 231.982C227.102 230.682 224.867 229.243 222.992 227.48C221.452 226.033 220.294 224.105 219.234 222.24C217.912 219.917 216.407 217.867 213.952 216.663C213.829 216.603 213.719 216.513 213.604 216.435C212.045 215.37 212.125 213.695 213.815 212.82C215.292 212.057 216.789 212.212 218.19 213.023C219.437 213.745 220.614 214.587 221.854 215.32C222.395 215.64 223.002 215.882 223.609 216.055C224.869 216.413 225.547 215.842 225.29 214.558C224.812 212.163 223.854 209.962 221.484 208.918C218.835 207.752 217.315 205.657 215.997 203.247C214.654 200.793 213.225 198.382 211.72 196.023C211.23 195.257 210.385 194.717 209.704 194.072C208.14 192.588 206.492 191.182 205.039 189.597C203.657 188.09 202.102 186.978 200.11 186.552C198.787 186.268 197.44 186.067 196.097 185.905C195.322 185.812 194.622 186.145 194.314 186.878C193.454 188.917 192.667 190.983 191.845 193.037C191.362 194.242 190.942 195.482 190.352 196.633C189.852 197.61 188.939 198.122 187.802 198.03C186.675 197.938 186.13 197.147 185.779 196.185C185.21 194.638 185.615 193.232 186.457 191.912C188.067 189.39 189.685 186.873 191.317 184.367C192.352 182.778 192.604 181.037 192.429 179.193C192.379 178.67 192.389 178.142 192.344 177.617C192.31 177.233 192.285 176.835 192.165 176.475C191.794 175.352 190.884 175.092 190.074 175.955C189.054 177.043 188.17 178.262 187.175 179.377C186.647 179.97 186.064 180.55 185.405 180.987C184.412 181.645 183.517 181.522 182.712 180.637C182.237 180.115 181.822 179.488 181.554 178.837C180.864 177.158 180.027 175.59 178.935 174.127C178.164 173.092 177.517 171.935 176.979 170.757C176.229 169.112 175.144 167.738 173.964 166.402C173.397 165.76 172.862 165.068 172.442 164.325C171.252 162.217 169.98 160.173 168.265 158.445C166.557 156.723 165.992 154.535 165.5 152.245C164.839 149.158 164.015 146.103 163.139 143.068C162.665 141.427 161.875 139.878 161.35 138.25C161.1 137.475 161.099 136.61 161.05 135.782C160.874 132.692 159.235 130.978 156.145 130.58C154.67 130.39 153.177 130.183 151.759 129.758C150.89 129.498 150.084 128.893 149.369 128.3C148.1 127.248 148.02 125.593 149.195 124.407C149.845 123.75 150.645 123.205 151.455 122.748C153.142 121.797 153.565 121.06 152.07 119.095C151.374 118.178 150.447 117.438 149.635 116.608C149.404 116.372 149.164 116.123 149.017 115.835C148.905 115.617 148.814 115.213 148.927 115.093C149.097 114.913 149.449 114.888 149.732 114.84C149.857 114.818 150.005 114.882 150.134 114.93C153.395 116.182 156.794 116.798 160.259 117.11C160.587 117.14 160.915 117.233 161.23 117.333C162.204 117.643 162.477 118.07 162.534 119.107C162.58 119.953 162.629 120.815 162.82 121.637C162.994 122.385 163.594 122.908 164.337 123.042C165.692 123.287 167.072 123.588 168.434 123.548C170.582 123.483 171.715 120.69 170.429 118.753C170.025 118.145 169.43 117.647 168.864 117.167C167.87 116.323 167.86 115.812 168.92 115.02C170.085 114.15 171.397 113.793 172.84 113.967C174.227 114.132 175.279 115.428 175.342 117.062C175.375 117.922 175.372 118.783 175.345 119.643C175.292 121.448 176.047 122.903 177.207 124.222C178.175 125.322 179.104 126.458 180.012 127.608C180.585 128.335 181.137 129.053 182.1 129.287C182.99 129.503 183.772 129.26 184.289 128.502C184.647 127.977 184.989 127.422 185.217 126.833C185.905 125.062 187.304 124.405 189.059 124.283C189.667 124.242 190.28 124.255 190.89 124.278C191.854 124.317 192.302 124.767 192.33 125.738C192.365 126.903 192.237 128.088 192.415 129.228C192.624 130.56 192.982 131.89 193.457 133.153C194.484 135.887 194.975 138.715 195.15 141.603C195.277 143.705 195.289 145.813 195.337 147.92C195.38 149.802 194.909 151.463 193.424 152.773C192.595 153.505 192.199 154.473 192.489 155.627C192.644 156.245 192.7 156.895 192.915 157.49C193.575 159.308 193.352 161.06 192.8 162.867C192.4 164.177 192.164 165.557 192.045 166.92C191.982 167.653 192.265 168.44 192.494 169.17C192.897 170.463 193.375 171.732 193.825 173.01C193.954 173.375 194.059 173.757 194.237 174.097C194.712 175.008 195.757 175.405 196.559 174.827C198.84 173.177 201.522 172.372 204.014 171.175C204.742 170.825 205.599 170.66 206.41 170.59C208.025 170.448 208.75 169.73 208.842 168.125C208.937 166.467 209.109 164.813 209.27 163.16C209.442 161.413 209.225 159.73 208.515 158.12C208.292 157.613 208.045 157.112 207.77 156.632C207.46 156.09 207.499 155.593 207.969 155.212C209.205 154.207 209.532 152.893 209.522 151.362C209.509 149.383 210.265 147.593 211.025 145.788C211.722 144.137 212.219 142.392 212.699 140.66C212.877 140.013 212.884 139.263 212.759 138.6C212.389 136.637 213.23 135.183 214.61 133.977C216.539 132.29 217.767 130.275 217.82 127.66C217.844 126.487 218.445 125.612 219.194 124.815C221.789 122.062 224.922 120.11 228.432 118.75C231.314 117.633 233.949 116.062 236.597 114.498C237.63 113.888 238.747 113.383 239.88 112.99C240.937 112.622 241.859 113.173 242.522 113.947C243.415 114.988 244.352 115.735 245.807 115.927C247.03 116.087 248.172 116.683 248.98 117.74C249.194 118.018 249.524 118.207 249.802 118.437V157.243C248.214 158.185 247.037 159.528 246.13 161.108C245.622 161.995 245.839 162.542 246.847 162.755C247.812 162.958 248.815 162.975 249.804 163.073V249.848H245.14L245.145 249.852ZM237.3 162.812C236.13 162.988 234.759 163.072 233.46 163.42C231.612 163.917 231.069 165.495 231.88 167.228C232.724 169.033 235.56 169.908 236.907 169.662C237.429 169.567 238.072 169.113 238.302 168.648C238.987 167.262 239.512 165.793 240.06 164.343C240.297 163.717 240.077 163.232 239.379 163.098C238.757 162.98 238.122 162.923 237.3 162.813V162.812Z" fill="url(#paint2_linear_815_5903)"/>
<path d="M245.145 249.852C244.397 248.753 243.654 247.65 242.897 246.555C241.837 245.023 241.132 243.372 240.949 241.49C240.647 238.403 238.704 236.498 236.105 235.187C233.879 234.063 231.492 233.23 229.342 231.982C227.102 230.682 224.867 229.243 222.992 227.48C221.452 226.033 220.294 224.105 219.234 222.24C217.912 219.917 216.407 217.867 213.952 216.663C213.829 216.603 213.719 216.513 213.604 216.435C212.045 215.37 212.125 213.695 213.815 212.82C215.292 212.057 216.789 212.212 218.19 213.023C219.437 213.745 220.614 214.587 221.854 215.32C222.395 215.64 223.002 215.882 223.609 216.055C224.869 216.413 225.547 215.842 225.29 214.558C224.812 212.163 223.854 209.962 221.484 208.918C218.835 207.752 217.315 205.657 215.997 203.247C214.654 200.793 213.225 198.382 211.72 196.023C211.23 195.257 210.385 194.717 209.704 194.072C208.14 192.588 206.492 191.182 205.039 189.597C203.657 188.09 202.102 186.978 200.11 186.552C198.787 186.268 197.44 186.067 196.097 185.905C195.322 185.812 194.622 186.145 194.314 186.878C193.454 188.917 192.667 190.983 191.845 193.037C191.362 194.242 190.942 195.482 190.352 196.633C189.852 197.61 188.939 198.122 187.802 198.03C186.675 197.938 186.13 197.147 185.779 196.185C185.21 194.638 185.615 193.232 186.457 191.912C188.067 189.39 189.685 186.873 191.317 184.367C192.352 182.778 192.604 181.037 192.429 179.193C192.379 178.67 192.389 178.142 192.344 177.617C192.31 177.233 192.285 176.835 192.165 176.475C191.794 175.352 190.884 175.092 190.074 175.955C189.054 177.043 188.17 178.262 187.175 179.377C186.647 179.97 186.064 180.55 185.405 180.987C184.412 181.645 183.517 181.522 182.712 180.637C182.237 180.115 181.822 179.488 181.554 178.837C180.864 177.158 180.027 175.59 178.935 174.127C178.164 173.092 177.517 171.935 176.979 170.757C176.229 169.112 175.144 167.738 173.964 166.402C173.397 165.76 172.862 165.068 172.442 164.325C171.252 162.217 169.98 160.173 168.265 158.445C166.557 156.723 165.992 154.535 165.5 152.245C164.839 149.158 164.015 146.103 163.139 143.068C162.665 141.427 161.875 139.878 161.35 138.25C161.1 137.475 161.099 136.61 161.05 135.782C160.874 132.692 159.235 130.978 156.145 130.58C154.67 130.39 153.177 130.183 151.759 129.758C150.89 129.498 150.084 128.893 149.369 128.3C148.1 127.248 148.02 125.593 149.195 124.407C149.845 123.75 150.645 123.205 151.455 122.748C153.142 121.797 153.565 121.06 152.07 119.095C151.374 118.178 150.447 117.438 149.635 116.608C149.404 116.372 149.164 116.123 149.017 115.835C148.905 115.617 148.814 115.213 148.927 115.093C149.097 114.913 149.449 114.888 149.732 114.84C149.857 114.818 150.005 114.882 150.134 114.93C153.395 116.182 156.794 116.798 160.259 117.11C160.587 117.14 160.915 117.233 161.23 117.333C162.204 117.643 162.477 118.07 162.534 119.107C162.58 119.953 162.629 120.815 162.82 121.637C162.994 122.385 163.594 122.908 164.337 123.042C165.692 123.287 167.072 123.588 168.434 123.548C170.582 123.483 171.715 120.69 170.429 118.753C170.025 118.145 169.43 117.647 168.864 117.167C167.87 116.323 167.86 115.812 168.92 115.02C170.085 114.15 171.397 113.793 172.84 113.967C174.227 114.132 175.279 115.428 175.342 117.062C175.375 117.922 175.372 118.783 175.345 119.643C175.292 121.448 176.047 122.903 177.207 124.222C178.175 125.322 179.104 126.458 180.012 127.608C180.585 128.335 181.137 129.053 182.1 129.287C182.99 129.503 183.772 129.26 184.289 128.502C184.647 127.977 184.989 127.422 185.217 126.833C185.905 125.062 187.304 124.405 189.059 124.283C189.667 124.242 190.28 124.255 190.89 124.278C191.854 124.317 192.302 124.767 192.33 125.738C192.365 126.903 192.237 128.088 192.415 129.228C192.624 130.56 192.982 131.89 193.457 133.153C194.484 135.887 194.975 138.715 195.15 141.603C195.277 143.705 195.289 145.813 195.337 147.92C195.38 149.802 194.909 151.463 193.424 152.773C192.595 153.505 192.199 154.473 192.489 155.627C192.644 156.245 192.7 156.895 192.915 157.49C193.575 159.308 193.352 161.06 192.8 162.867C192.4 164.177 192.164 165.557 192.045 166.92C191.982 167.653 192.265 168.44 192.494 169.17C192.897 170.463 193.375 171.732 193.825 173.01C193.954 173.375 194.059 173.757 194.237 174.097C194.712 175.008 195.757 175.405 196.559 174.827C198.84 173.177 201.522 172.372 204.014 171.175C204.742 170.825 205.599 170.66 206.41 170.59C208.025 170.448 208.75 169.73 208.842 168.125C208.937 166.467 209.109 164.813 209.27 163.16C209.442 161.413 209.225 159.73 208.515 158.12C208.292 157.613 208.045 157.112 207.77 156.632C207.46 156.09 207.499 155.593 207.969 155.212C209.205 154.207 209.532 152.893 209.522 151.362C209.509 149.383 210.265 147.593 211.025 145.788C211.722 144.137 212.219 142.392 212.699 140.66C212.877 140.013 212.884 139.263 212.759 138.6C212.389 136.637 213.23 135.183 214.61 133.977C216.539 132.29 217.767 130.275 217.82 127.66C217.844 126.487 218.445 125.612 219.194 124.815C221.789 122.062 224.922 120.11 228.432 118.75C231.314 117.633 233.949 116.062 236.597 114.498C237.63 113.888 238.747 113.383 239.88 112.99C240.937 112.622 241.859 113.173 242.522 113.947C243.415 114.988 244.352 115.735 245.807 115.927C247.03 116.087 248.172 116.683 248.98 117.74C249.194 118.018 249.524 118.207 249.802 118.437V157.243C248.214 158.185 247.037 159.528 246.13 161.108C245.622 161.995 245.839 162.542 246.847 162.755C247.812 162.958 248.815 162.975 249.804 163.073V249.848H245.14L245.145 249.852ZM237.3 162.812C236.13 162.988 234.759 163.072 233.46 163.42C231.612 163.917 231.069 165.495 231.88 167.228C232.724 169.033 235.56 169.908 236.907 169.662C237.429 169.567 238.072 169.113 238.302 168.648C238.987 167.262 239.512 165.793 240.06 164.343C240.297 163.717 240.077 163.232 239.379 163.098C238.757 162.98 238.122 162.923 237.3 162.813V162.812Z" fill="#290D3E" fill-opacity="0.5"/>
<path d="M55.8346 0.135066C56.4212 0.100066 56.6946 0.0700659 56.9679 0.0683992C59.1612 0.0550659 61.3529 0.0367325 63.5462 0.0417325C64.2646 0.0417325 65.1346 -0.128267 65.6579 0.210066C66.1262 0.511733 66.0962 1.49173 66.4929 2.01673C67.1979 2.95173 67.9129 4.02173 68.8846 4.5834C71.3696 6.0184 73.4346 7.9184 75.5196 9.83007C76.4129 10.6484 77.4212 11.3517 78.4396 12.0151C78.7562 12.2217 79.4162 12.3084 79.6546 12.1167C79.9412 11.8867 80.1079 11.2784 80.0446 10.8784C79.8262 9.4834 79.4362 8.11507 79.2212 6.72007C79.1446 6.2284 79.2162 5.5084 79.5246 5.22673C79.7779 4.99673 80.5312 5.14507 80.9812 5.3284C83.3429 6.29007 85.6746 7.3284 88.0262 8.3184C89.3412 8.87173 90.4062 9.7334 91.2579 10.8601C92.1896 12.0917 93.4296 12.8151 94.9346 12.4717C97.2279 11.9501 99.3879 12.4251 101.586 12.9201C102.581 13.1434 103.613 13.2901 104.63 13.3101C105.798 13.3334 106.811 12.9334 107.611 11.9517C108.251 11.1651 109.031 10.4617 109.851 9.85673C110.976 9.02673 112.165 9.11673 113.181 10.0851C113.818 10.6901 114.346 11.4184 114.866 12.1334C116.01 13.7084 117.181 14.2234 119.043 13.6584C120.363 13.2584 121.601 12.5967 122.9 12.1167C124.4 11.5617 125.943 11.2801 127.341 12.3417C127.878 12.7501 128.253 13.3701 128.698 13.8967C130.356 15.8634 132.938 16.6351 135.375 15.8017C136.578 15.3901 137.718 14.7917 138.911 14.3434C140.668 13.6851 142.435 13.5234 144.103 14.6101C145.623 15.6001 146.111 16.9084 145.565 18.6384C145.281 19.5334 144.888 20.3984 144.496 21.2534C143.886 22.5867 143.981 23.2201 145.236 23.8784C147.591 25.1151 149.661 26.7117 151.641 28.4684C152.963 29.6401 154.611 30.1751 156.323 30.5017C159.186 31.0484 162.08 31.5267 164.655 32.9967C165.655 33.5684 166.626 34.2517 167.456 35.0451C168.818 36.3467 168.331 38.0117 166.53 38.5651C164.736 39.1167 163.013 38.6951 161.298 38.2001C160.658 38.0151 160.023 37.8101 159.401 37.5734C157.923 37.0117 156.435 37.0017 155.035 37.7051C153.303 38.5734 151.556 39.4567 149.973 40.5601C149.06 41.1967 148.151 42.1617 147.765 43.1784C146.365 46.8701 143.368 48.5651 139.963 49.7384C136.21 51.0317 132.488 52.3551 128.891 54.0684C127.546 54.7101 125.893 54.8434 124.366 54.9251C122.433 55.0284 120.771 55.6967 119.136 56.6334C117.406 57.6251 115.645 58.5634 113.855 59.4417C111.31 60.6901 108.593 61.1567 105.766 60.9617C103.616 60.8134 101.66 61.4701 99.7612 62.3767C99.1096 62.6884 98.4562 62.9984 97.8296 63.3534C96.1796 64.2884 94.4412 64.3734 92.6746 63.8434C90.6546 63.2367 88.6679 63.0684 86.6329 63.7817C84.9912 64.3584 83.3096 64.3484 81.6496 63.8134C79.1462 63.0067 76.6579 63.0167 74.1112 63.6884C71.7546 64.3117 69.3679 63.8667 67.0046 63.5617C64.7796 63.2751 62.6212 63.3851 60.4462 64.0751C56.3229 65.3801 52.1246 66.4567 48.0129 67.8001C46.4596 68.3084 44.9779 69.1667 43.6162 70.0917C41.4329 71.5751 39.2096 72.8801 36.5579 73.2851C35.1479 73.5001 34.4996 72.8584 34.7196 71.4367C34.9229 70.1217 35.1429 68.8101 35.3762 67.5001C35.6479 65.9717 35.1962 64.6501 33.8196 63.9701C32.5162 63.3267 31.0729 62.9634 29.6912 62.4784C28.9579 62.2217 28.2262 61.9651 27.4912 61.7134C26.5162 61.3784 25.9396 60.6117 25.4312 59.7867C25.3462 59.6484 25.3812 59.4167 25.4062 59.2351C25.6312 57.6734 25.8246 56.1034 26.1146 54.5534C26.3012 53.5517 26.5746 52.5551 26.9162 51.5934C27.4496 50.0917 27.2712 48.7917 25.9962 47.7751C24.8362 46.8501 24.4812 45.7701 24.7429 44.2717C25.1246 42.0817 24.1946 40.5584 22.3646 40.1334C21.7996 40.0017 21.0962 40.1401 20.5446 40.3667C19.7979 40.6751 19.5929 41.3801 19.9696 42.1067C20.2596 42.6651 20.6596 43.1767 21.0696 43.6601C21.6779 44.3784 22.3296 45.0601 22.9746 45.7467C23.4946 46.3001 23.6329 46.9351 23.2329 47.5734C22.6312 48.5334 22.0412 49.5234 21.2912 50.3617C20.3329 51.4317 19.2079 52.3517 18.1779 53.3601C17.6329 53.8934 17.1779 53.8834 16.5979 53.3767C15.8912 52.7584 15.1179 52.2101 14.3429 51.6767C12.8529 50.6517 12.4512 49.2084 12.7262 47.5217C12.8812 46.5651 13.1329 45.6251 13.3396 44.6767C13.5362 43.7784 13.2279 43.3801 12.3062 43.3184C11.5062 43.2651 10.6946 43.2684 9.91291 43.1134C9.04457 42.9401 8.76957 42.4401 9.14957 41.6434C9.52791 40.8534 10.0596 40.1301 10.5846 39.4217C11.7746 37.8217 12.9279 36.1851 14.2362 34.6834C15.5412 33.1867 17.3679 32.6517 19.3029 32.5034C19.8546 32.4617 20.4146 32.5134 20.9662 32.4717C21.1579 32.4567 21.4312 32.3267 21.4929 32.1784C21.5446 32.0534 21.3946 31.7434 21.2479 31.6517C20.0646 30.9234 19.3862 29.7801 18.6729 28.6501C17.8062 27.2767 16.8762 25.8951 15.1096 25.6501C14.3496 25.5451 13.5129 25.6784 12.7629 25.8884C11.1396 26.3434 9.57124 26.6067 8.01457 25.6884C6.70291 24.9151 5.80457 23.8284 5.50124 22.3334C4.98791 19.8117 4.51291 17.2817 4.05124 14.7501C3.81457 13.4517 3.96124 12.2117 4.79291 11.1134C5.42957 10.2734 6.02291 9.40007 6.66124 8.5634C7.67124 7.24007 7.91124 5.87673 7.24791 4.2784C6.83124 3.27673 6.69124 2.15507 6.48291 1.07673C6.34124 0.346733 6.67124 0.0500659 7.45291 0.0533992C11.0329 0.0717325 14.6146 0.0250659 18.1946 0.0267325C28.4646 0.0300659 38.7362 0.0567325 49.0062 0.0400659C49.9062 0.0400659 50.4512 0.350066 51.0012 1.05673C52.4229 2.88507 53.6996 4.86173 55.7212 6.1484C56.2646 6.49507 56.7762 6.7734 57.4162 6.47673C58.0912 6.1634 58.3812 5.52673 58.2396 4.89673C58.0512 4.05673 57.6796 3.24173 57.2862 2.46673C56.9079 1.7184 56.4029 1.0334 55.8346 0.133399V0.135066Z" fill="url(#paint3_linear_815_5903)"/>
<path d="M55.8346 0.135066C56.4212 0.100066 56.6946 0.0700659 56.9679 0.0683992C59.1612 0.0550659 61.3529 0.0367325 63.5462 0.0417325C64.2646 0.0417325 65.1346 -0.128267 65.6579 0.210066C66.1262 0.511733 66.0962 1.49173 66.4929 2.01673C67.1979 2.95173 67.9129 4.02173 68.8846 4.5834C71.3696 6.0184 73.4346 7.9184 75.5196 9.83007C76.4129 10.6484 77.4212 11.3517 78.4396 12.0151C78.7562 12.2217 79.4162 12.3084 79.6546 12.1167C79.9412 11.8867 80.1079 11.2784 80.0446 10.8784C79.8262 9.4834 79.4362 8.11507 79.2212 6.72007C79.1446 6.2284 79.2162 5.5084 79.5246 5.22673C79.7779 4.99673 80.5312 5.14507 80.9812 5.3284C83.3429 6.29007 85.6746 7.3284 88.0262 8.3184C89.3412 8.87173 90.4062 9.7334 91.2579 10.8601C92.1896 12.0917 93.4296 12.8151 94.9346 12.4717C97.2279 11.9501 99.3879 12.4251 101.586 12.9201C102.581 13.1434 103.613 13.2901 104.63 13.3101C105.798 13.3334 106.811 12.9334 107.611 11.9517C108.251 11.1651 109.031 10.4617 109.851 9.85673C110.976 9.02673 112.165 9.11673 113.181 10.0851C113.818 10.6901 114.346 11.4184 114.866 12.1334C116.01 13.7084 117.181 14.2234 119.043 13.6584C120.363 13.2584 121.601 12.5967 122.9 12.1167C124.4 11.5617 125.943 11.2801 127.341 12.3417C127.878 12.7501 128.253 13.3701 128.698 13.8967C130.356 15.8634 132.938 16.6351 135.375 15.8017C136.578 15.3901 137.718 14.7917 138.911 14.3434C140.668 13.6851 142.435 13.5234 144.103 14.6101C145.623 15.6001 146.111 16.9084 145.565 18.6384C145.281 19.5334 144.888 20.3984 144.496 21.2534C143.886 22.5867 143.981 23.2201 145.236 23.8784C147.591 25.1151 149.661 26.7117 151.641 28.4684C152.963 29.6401 154.611 30.1751 156.323 30.5017C159.186 31.0484 162.08 31.5267 164.655 32.9967C165.655 33.5684 166.626 34.2517 167.456 35.0451C168.818 36.3467 168.331 38.0117 166.53 38.5651C164.736 39.1167 163.013 38.6951 161.298 38.2001C160.658 38.0151 160.023 37.8101 159.401 37.5734C157.923 37.0117 156.435 37.0017 155.035 37.7051C153.303 38.5734 151.556 39.4567 149.973 40.5601C149.06 41.1967 148.151 42.1617 147.765 43.1784C146.365 46.8701 143.368 48.5651 139.963 49.7384C136.21 51.0317 132.488 52.3551 128.891 54.0684C127.546 54.7101 125.893 54.8434 124.366 54.9251C122.433 55.0284 120.771 55.6967 119.136 56.6334C117.406 57.6251 115.645 58.5634 113.855 59.4417C111.31 60.6901 108.593 61.1567 105.766 60.9617C103.616 60.8134 101.66 61.4701 99.7612 62.3767C99.1096 62.6884 98.4562 62.9984 97.8296 63.3534C96.1796 64.2884 94.4412 64.3734 92.6746 63.8434C90.6546 63.2367 88.6679 63.0684 86.6329 63.7817C84.9912 64.3584 83.3096 64.3484 81.6496 63.8134C79.1462 63.0067 76.6579 63.0167 74.1112 63.6884C71.7546 64.3117 69.3679 63.8667 67.0046 63.5617C64.7796 63.2751 62.6212 63.3851 60.4462 64.0751C56.3229 65.3801 52.1246 66.4567 48.0129 67.8001C46.4596 68.3084 44.9779 69.1667 43.6162 70.0917C41.4329 71.5751 39.2096 72.8801 36.5579 73.2851C35.1479 73.5001 34.4996 72.8584 34.7196 71.4367C34.9229 70.1217 35.1429 68.8101 35.3762 67.5001C35.6479 65.9717 35.1962 64.6501 33.8196 63.9701C32.5162 63.3267 31.0729 62.9634 29.6912 62.4784C28.9579 62.2217 28.2262 61.9651 27.4912 61.7134C26.5162 61.3784 25.9396 60.6117 25.4312 59.7867C25.3462 59.6484 25.3812 59.4167 25.4062 59.2351C25.6312 57.6734 25.8246 56.1034 26.1146 54.5534C26.3012 53.5517 26.5746 52.5551 26.9162 51.5934C27.4496 50.0917 27.2712 48.7917 25.9962 47.7751C24.8362 46.8501 24.4812 45.7701 24.7429 44.2717C25.1246 42.0817 24.1946 40.5584 22.3646 40.1334C21.7996 40.0017 21.0962 40.1401 20.5446 40.3667C19.7979 40.6751 19.5929 41.3801 19.9696 42.1067C20.2596 42.6651 20.6596 43.1767 21.0696 43.6601C21.6779 44.3784 22.3296 45.0601 22.9746 45.7467C23.4946 46.3001 23.6329 46.9351 23.2329 47.5734C22.6312 48.5334 22.0412 49.5234 21.2912 50.3617C20.3329 51.4317 19.2079 52.3517 18.1779 53.3601C17.6329 53.8934 17.1779 53.8834 16.5979 53.3767C15.8912 52.7584 15.1179 52.2101 14.3429 51.6767C12.8529 50.6517 12.4512 49.2084 12.7262 47.5217C12.8812 46.5651 13.1329 45.6251 13.3396 44.6767C13.5362 43.7784 13.2279 43.3801 12.3062 43.3184C11.5062 43.2651 10.6946 43.2684 9.91291 43.1134C9.04457 42.9401 8.76957 42.4401 9.14957 41.6434C9.52791 40.8534 10.0596 40.1301 10.5846 39.4217C11.7746 37.8217 12.9279 36.1851 14.2362 34.6834C15.5412 33.1867 17.3679 32.6517 19.3029 32.5034C19.8546 32.4617 20.4146 32.5134 20.9662 32.4717C21.1579 32.4567 21.4312 32.3267 21.4929 32.1784C21.5446 32.0534 21.3946 31.7434 21.2479 31.6517C20.0646 30.9234 19.3862 29.7801 18.6729 28.6501C17.8062 27.2767 16.8762 25.8951 15.1096 25.6501C14.3496 25.5451 13.5129 25.6784 12.7629 25.8884C11.1396 26.3434 9.57124 26.6067 8.01457 25.6884C6.70291 24.9151 5.80457 23.8284 5.50124 22.3334C4.98791 19.8117 4.51291 17.2817 4.05124 14.7501C3.81457 13.4517 3.96124 12.2117 4.79291 11.1134C5.42957 10.2734 6.02291 9.40007 6.66124 8.5634C7.67124 7.24007 7.91124 5.87673 7.24791 4.2784C6.83124 3.27673 6.69124 2.15507 6.48291 1.07673C6.34124 0.346733 6.67124 0.0500659 7.45291 0.0533992C11.0329 0.0717325 14.6146 0.0250659 18.1946 0.0267325C28.4646 0.0300659 38.7362 0.0567325 49.0062 0.0400659C49.9062 0.0400659 50.4512 0.350066 51.0012 1.05673C52.4229 2.88507 53.6996 4.86173 55.7212 6.1484C56.2646 6.49507 56.7762 6.7734 57.4162 6.47673C58.0912 6.1634 58.3812 5.52673 58.2396 4.89673C58.0512 4.05673 57.6796 3.24173 57.2862 2.46673C56.9079 1.7184 56.4029 1.0334 55.8346 0.133399V0.135066Z" fill="#290D3E" fill-opacity="0.5"/>
<path d="M0.110026 101.914C0.0900263 101.704 0.0516929 101.489 0.0516929 101.274C0.0383596 89.1205 0.0383596 76.9672 2.6278e-05 64.8155C-0.00330705 63.8755 0.310026 63.4622 1.20003 63.1755C2.50336 62.7555 3.80003 62.5889 5.12336 62.8472C8.32336 63.4689 10.5734 61.9739 12.4684 59.6455C13.725 58.1005 14.925 56.5072 16.2284 55.0022C17.0284 54.0772 17.455 54.1439 18.0734 55.1772C18.6134 56.0805 18.9784 57.0922 19.5634 57.9622C20.17 58.8655 20.8584 59.7572 21.67 60.4722C22.8867 61.5439 22.9434 62.1989 22.3734 63.7255C21.1467 67.0122 20.0734 70.3605 19.0367 73.7139C18.85 74.3172 19.0534 75.0889 19.225 75.7439C19.4734 76.6889 20.2117 77.2239 21.16 77.1089C22.7734 76.9105 24.375 76.5905 25.9684 76.2605C27.1617 76.0139 28.3217 75.5855 29.5217 75.4089C30.15 75.3172 31.0284 75.3789 31.4434 75.7555C31.9967 76.2589 31.7017 77.0755 31.3184 77.7472C29.615 80.7372 27.0484 82.2955 23.62 82.4672C22.7917 82.5089 21.9567 82.5322 21.1384 82.6589C19.835 82.8622 18.9867 83.6272 18.4234 84.8439C17.7317 86.3389 17.4184 87.8639 17.43 89.5105C17.4434 91.2255 16.885 92.8189 16.1434 94.3655C15.0917 96.5589 14.355 98.9039 12.775 100.832C11.0017 102.996 9.41836 105.332 7.50669 107.362C6.02669 108.936 4.26336 110.282 2.25669 111.221C1.58836 111.532 0.92336 111.854 0.0783596 112.254C0.0783596 111.279 0.0250263 110.486 0.10836 109.707C0.135026 109.452 0.48836 109.189 0.750026 109.014C1.23169 108.691 1.77003 108.451 2.25836 108.137C4.40003 106.766 4.60169 104.146 3.77669 102.232C3.58169 101.779 3.30669 101.514 2.75836 101.597C1.91836 101.724 1.07003 101.802 0.10836 101.914H0.110026Z" fill="url(#paint4_linear_815_5903)"/>
<path d="M0.110026 101.914C0.0900263 101.704 0.0516929 101.489 0.0516929 101.274C0.0383596 89.1205 0.0383596 76.9672 2.6278e-05 64.8155C-0.00330705 63.8755 0.310026 63.4622 1.20003 63.1755C2.50336 62.7555 3.80003 62.5889 5.12336 62.8472C8.32336 63.4689 10.5734 61.9739 12.4684 59.6455C13.725 58.1005 14.925 56.5072 16.2284 55.0022C17.0284 54.0772 17.455 54.1439 18.0734 55.1772C18.6134 56.0805 18.9784 57.0922 19.5634 57.9622C20.17 58.8655 20.8584 59.7572 21.67 60.4722C22.8867 61.5439 22.9434 62.1989 22.3734 63.7255C21.1467 67.0122 20.0734 70.3605 19.0367 73.7139C18.85 74.3172 19.0534 75.0889 19.225 75.7439C19.4734 76.6889 20.2117 77.2239 21.16 77.1089C22.7734 76.9105 24.375 76.5905 25.9684 76.2605C27.1617 76.0139 28.3217 75.5855 29.5217 75.4089C30.15 75.3172 31.0284 75.3789 31.4434 75.7555C31.9967 76.2589 31.7017 77.0755 31.3184 77.7472C29.615 80.7372 27.0484 82.2955 23.62 82.4672C22.7917 82.5089 21.9567 82.5322 21.1384 82.6589C19.835 82.8622 18.9867 83.6272 18.4234 84.8439C17.7317 86.3389 17.4184 87.8639 17.43 89.5105C17.4434 91.2255 16.885 92.8189 16.1434 94.3655C15.0917 96.5589 14.355 98.9039 12.775 100.832C11.0017 102.996 9.41836 105.332 7.50669 107.362C6.02669 108.936 4.26336 110.282 2.25669 111.221C1.58836 111.532 0.92336 111.854 0.0783596 112.254C0.0783596 111.279 0.0250263 110.486 0.10836 109.707C0.135026 109.452 0.48836 109.189 0.750026 109.014C1.23169 108.691 1.77003 108.451 2.25836 108.137C4.40003 106.766 4.60169 104.146 3.77669 102.232C3.58169 101.779 3.30669 101.514 2.75836 101.597C1.91836 101.724 1.07003 101.802 0.10836 101.914H0.110026Z" fill="#290D3E" fill-opacity="0.5"/>
<path d="M117.456 147.598C121.174 147.98 124.936 148.217 128.462 149.57C129.759 150.068 130.906 150.972 132.094 151.732C134.194 153.072 135.964 152.642 137.519 150.775C139.401 148.515 141.156 146.115 143.776 144.645C144.987 143.965 146.309 143.348 147.657 143.067C150.836 142.403 154.339 145.277 154.527 148.51C154.614 150.003 154.781 151.492 154.836 152.987C154.952 156.13 153.902 158.805 151.291 160.645C149.804 161.692 148.191 162.607 146.531 163.35C144.224 164.383 141.877 164.143 139.622 163.02C139.151 162.785 138.686 162.532 138.199 162.332C136.809 161.762 135.876 162.098 135.139 163.408C134.867 163.892 134.599 164.377 134.327 164.86C133.591 166.177 132.439 166.875 130.964 166.71C127.027 166.27 123.086 165.83 119.177 165.195C115.829 164.65 113.712 162.565 112.776 159.29C112.281 157.558 111.626 155.862 111.256 154.105C110.462 150.345 112.604 147.737 116.459 147.602C116.792 147.59 117.126 147.602 117.457 147.602L117.456 147.598Z" fill="url(#paint5_linear_815_5903)"/>
<path d="M117.456 147.598C121.174 147.98 124.936 148.217 128.462 149.57C129.759 150.068 130.906 150.972 132.094 151.732C134.194 153.072 135.964 152.642 137.519 150.775C139.401 148.515 141.156 146.115 143.776 144.645C144.987 143.965 146.309 143.348 147.657 143.067C150.836 142.403 154.339 145.277 154.527 148.51C154.614 150.003 154.781 151.492 154.836 152.987C154.952 156.13 153.902 158.805 151.291 160.645C149.804 161.692 148.191 162.607 146.531 163.35C144.224 164.383 141.877 164.143 139.622 163.02C139.151 162.785 138.686 162.532 138.199 162.332C136.809 161.762 135.876 162.098 135.139 163.408C134.867 163.892 134.599 164.377 134.327 164.86C133.591 166.177 132.439 166.875 130.964 166.71C127.027 166.27 123.086 165.83 119.177 165.195C115.829 164.65 113.712 162.565 112.776 159.29C112.281 157.558 111.626 155.862 111.256 154.105C110.462 150.345 112.604 147.737 116.459 147.602C116.792 147.59 117.126 147.602 117.457 147.602L117.456 147.598Z" fill="#290D3E" fill-opacity="0.5"/>
<path d="M45.9323 86.9904C45.9323 87.6838 45.9557 88.3771 45.9273 89.0688C45.8907 89.9554 45.5373 90.7088 44.7273 91.1238C43.2107 91.9004 41.579 92.1721 39.8973 91.9421C38.8257 91.7955 38.194 90.8488 38.3107 89.7671C38.6257 86.8738 41.534 83.6638 44.3857 83.0655C45.2407 82.8855 45.654 83.1171 45.779 84.0088C45.9173 84.9921 45.9357 85.9921 46.0057 86.9838L45.9323 86.9888V86.9904Z" fill="url(#paint6_linear_815_5903)"/>
<path d="M45.9323 86.9904C45.9323 87.6838 45.9557 88.3771 45.9273 89.0688C45.8907 89.9554 45.5373 90.7088 44.7273 91.1238C43.2107 91.9004 41.579 92.1721 39.8973 91.9421C38.8257 91.7955 38.194 90.8488 38.3107 89.7671C38.6257 86.8738 41.534 83.6638 44.3857 83.0655C45.2407 82.8855 45.654 83.1171 45.779 84.0088C45.9173 84.9921 45.9357 85.9921 46.0057 86.9838L45.9323 86.9888V86.9904Z" fill="#290D3E" fill-opacity="0.5"/>
<path d="M34.5759 119.139C35.1276 119.339 36.0526 119.626 36.9343 120.012C37.5493 120.282 37.8209 120.907 37.4843 121.474C36.7709 122.674 35.9743 123.835 35.1043 124.927C34.9259 125.15 34.1893 125.155 33.8476 124.985C32.5459 124.337 31.6559 122.149 32.0193 120.745C32.2726 119.772 33.1726 119.099 34.5759 119.141V119.139Z" fill="url(#paint7_linear_815_5903)"/>
<path d="M34.5759 119.139C35.1276 119.339 36.0526 119.626 36.9343 120.012C37.5493 120.282 37.8209 120.907 37.4843 121.474C36.7709 122.674 35.9743 123.835 35.1043 124.927C34.9259 125.15 34.1893 125.155 33.8476 124.985C32.5459 124.337 31.6559 122.149 32.0193 120.745C32.2726 119.772 33.1726 119.099 34.5759 119.141V119.139Z" fill="#290D3E" fill-opacity="0.5"/>
<path d="M105.359 118.895C105.636 117.612 105.831 116.304 106.217 115.054C106.487 114.184 107.447 113.699 108.172 113.82C108.849 113.934 109.626 114.789 109.696 115.615C109.737 116.102 109.722 116.629 109.576 117.089C109.069 118.677 108.142 120.017 106.917 121.14C106.716 121.325 106.316 121.527 106.136 121.444C105.894 121.332 105.671 120.965 105.632 120.682C105.556 120.11 105.609 119.522 105.609 118.942C105.526 118.927 105.441 118.91 105.357 118.895H105.359Z" fill="url(#paint8_linear_815_5903)"/>
<path d="M105.359 118.895C105.636 117.612 105.831 116.304 106.217 115.054C106.487 114.184 107.447 113.699 108.172 113.82C108.849 113.934 109.626 114.789 109.696 115.615C109.737 116.102 109.722 116.629 109.576 117.089C109.069 118.677 108.142 120.017 106.917 121.14C106.716 121.325 106.316 121.527 106.136 121.444C105.894 121.332 105.671 120.965 105.632 120.682C105.556 120.11 105.609 119.522 105.609 118.942C105.526 118.927 105.441 118.91 105.357 118.895H105.359Z" fill="#290D3E" fill-opacity="0.5"/>
<path d="M0.0865142 124.97C0.0648476 124.622 0.0265142 124.277 0.0265142 123.932C0.0215142 122.41 0.0215142 120.887 0.0348476 119.365C0.0448476 118.29 0.0565142 118.29 1.08151 118.437C1.57485 118.507 2.06985 118.562 2.55985 118.647C3.88151 118.875 4.39318 119.605 4.18318 120.942C3.84485 123.088 2.20318 124.743 0.0881809 124.972L0.0865142 124.97Z" fill="url(#paint9_linear_815_5903)"/>
<path d="M0.0865142 124.97C0.0648476 124.622 0.0265142 124.277 0.0265142 123.932C0.0215142 122.41 0.0215142 120.887 0.0348476 119.365C0.0448476 118.29 0.0565142 118.29 1.08151 118.437C1.57485 118.507 2.06985 118.562 2.55985 118.647C3.88151 118.875 4.39318 119.605 4.18318 120.942C3.84485 123.088 2.20318 124.743 0.0881809 124.972L0.0865142 124.97Z" fill="#290D3E" fill-opacity="0.5"/>
<path d="M201.838 150.288C201.821 151.487 200.998 152.002 200.036 151.647C198.82 151.198 198.146 149.46 198.741 148.308C199.063 147.683 199.52 147.463 200.163 147.837C201.19 148.435 201.758 149.325 201.84 150.287L201.838 150.288Z" fill="url(#paint10_linear_815_5903)"/>
<path d="M201.838 150.288C201.821 151.487 200.998 152.002 200.036 151.647C198.82 151.198 198.146 149.46 198.741 148.308C199.063 147.683 199.52 147.463 200.163 147.837C201.19 148.435 201.758 149.325 201.84 150.287L201.838 150.288Z" fill="#290D3E" fill-opacity="0.5"/>
<path d="M0.0722656 13.8815V8.08984C1.0756 8.92651 1.70727 9.76318 1.80393 10.9682C1.9106 12.2832 1.33727 13.1798 0.0722656 13.8815Z" fill="url(#paint11_linear_815_5903)"/>
<path d="M0.0722656 13.8815V8.08984C1.0756 8.92651 1.70727 9.76318 1.80393 10.9682C1.9106 12.2832 1.33727 13.1798 0.0722656 13.8815Z" fill="#290D3E" fill-opacity="0.5"/>
<path d="M248.167 250.001H163.333C163.303 247.644 164.512 246.026 166.42 244.826C167.078 244.412 167.81 244.079 168.377 243.564C169.078 242.926 169.897 242.236 170.223 241.396C171.362 238.477 172.533 235.539 173.272 232.507C174.163 228.849 174.63 225.086 175.267 221.366C175.322 221.042 175.342 220.691 175.275 220.376C175.21 220.076 175.052 219.612 174.855 219.569C174.575 219.507 174.158 219.684 173.915 219.892C172.928 220.744 171.967 221.626 171.033 222.536C168.953 224.567 166.417 225.289 163.615 224.971C160.402 224.606 158.088 222.636 156.178 220.216C155.675 219.579 155.552 218.571 155.447 217.709C155.35 216.926 155.618 216.137 156.378 215.702C157.16 215.256 157.903 215.559 158.563 216.011C159.272 216.496 159.915 217.076 160.612 217.579C161.753 218.402 163.048 218.972 164.308 218.052C166.645 216.346 168.63 214.317 169.338 211.344C170.018 208.487 170.158 205.642 169.352 202.787C168.708 200.509 169.148 198.519 170.868 196.827C171.377 196.327 171.832 195.744 172.195 195.131C172.643 194.372 172.33 193.806 171.453 193.746C170.908 193.707 170.347 193.777 169.802 193.861C167.252 194.256 164.71 194.712 162.153 195.072C159.508 195.444 156.948 195.169 154.572 193.816C154.043 193.514 153.483 193.257 152.915 193.037C148.713 191.414 144.71 191.332 141.005 194.394C139.212 195.877 137.253 197.159 135.398 198.571C133.488 200.024 131.357 200.642 129.053 199.984C126.85 199.354 124.703 198.504 122.567 197.662C120.35 196.787 118.808 195.189 117.825 193.002C117.103 191.394 115.923 190.724 114.21 190.957C112.258 191.222 110.322 191.599 108.383 191.959C107.518 192.119 106.88 192.617 106.472 193.419C105.717 194.901 105.138 195.146 103.548 194.564C101.725 193.896 99.9133 193.191 98.115 192.456C96.0417 191.609 94.62 190.129 93.9917 187.952C93.4983 186.246 92.9017 184.556 92.5833 182.814C92.0967 180.144 91.9067 177.351 93.2867 174.927C95.1183 171.716 96.5583 168.227 99.3 165.579C100.032 164.872 100.038 163.941 99.3733 163.164C98.8233 162.519 98.1483 161.966 97.4683 161.451C95.5817 160.019 95.3517 159.111 96.3117 156.954C96.795 155.867 97.2883 154.764 97.5867 153.619C98.2567 151.039 97.7483 149.921 95.4167 148.636C93.8483 147.772 92.7283 146.532 91.9167 144.956C91.525 144.194 91.0983 143.424 90.5467 142.777C89.42 141.461 88.8667 140.024 89.0567 138.274C89.17 137.224 88.8167 136.764 87.8233 136.371C86.2967 135.766 84.755 136.044 83.235 136.386C80.905 136.909 78.615 136.842 76.3217 136.177C75.125 135.831 73.9017 135.554 72.675 135.327C70.7367 134.969 68.9267 135.032 67.9517 137.179C67.93 137.227 67.8833 137.266 67.8467 137.307C67.0133 138.284 66.1917 138.424 65.165 137.644C64.7683 137.342 64.3567 136.889 64.235 136.429C63.6967 134.394 62.4483 133.066 60.6617 131.984C59.6167 131.351 58.8933 130.184 58.025 129.257C57.2567 128.437 56.505 128.371 55.8817 129.262C55.1933 130.249 54.5467 131.314 54.1433 132.439C53.415 134.472 53.6767 136.616 53.8483 138.716C53.9983 140.547 53.5183 142.096 52.2733 143.451C51.215 144.601 50.6183 146.002 50.78 147.564C51.0567 150.264 51.495 152.946 51.8083 155.642C51.9467 156.841 52.0333 158.057 51.9767 159.259C51.9417 160.006 51.315 160.474 50.5683 160.599C49.8483 160.719 49.33 160.317 49.0067 159.722C48.705 159.166 48.4017 158.582 48.2583 157.972C48.025 156.976 47.9117 155.951 47.7667 154.934C47.5233 153.241 46.6867 151.966 45.0983 151.281C44.0817 150.842 43.01 150.531 41.98 150.117C40.3017 149.442 39.8967 148.524 40.6217 146.842C41.1817 145.546 41.9017 144.321 42.49 143.036C43.85 140.072 43.315 137.774 40.835 135.701C39.8183 134.851 39.0983 134.761 37.865 135.461C35.6633 136.711 34.3267 138.654 33.7967 141.082C33.6317 141.837 33.8167 142.747 34.0833 143.502C34.5633 144.859 35.2733 146.131 35.795 147.474C36.1633 148.419 36.55 149.411 36.6267 150.406C36.8033 152.669 35.725 154.464 34.1383 155.987C32.7 157.369 31.2267 158.717 29.8217 160.132C28.8533 161.109 27.7967 161.841 26.4083 162.052C25.195 162.237 24.1417 162.769 23.2733 163.654C22.8067 164.129 22.3283 164.592 21.8467 165.051C20.5433 166.291 19.11 167.324 17.3183 167.731C15.955 168.039 15.1817 167.529 15.105 166.136C15.0567 165.239 15.26 164.324 15.3933 163.422C15.5633 162.274 15.9083 161.134 15.935 159.984C15.9717 158.469 15.1683 157.622 13.6767 157.359C12.7217 157.191 11.7483 157.134 10.785 157.009C9.68167 156.866 8.69167 156.441 8.25833 155.359C7.40833 153.231 7.20167 151.087 8.68833 149.119C9.37 148.216 10.21 147.431 10.8967 146.531C11.7 145.479 11.9867 144.284 11.4567 143.007C10.8533 141.554 11.0717 140.167 12.0467 139.034C12.86 138.087 13.92 137.349 14.8867 136.537C15.6033 135.936 16.4417 135.451 17.0533 134.761C18.1817 133.486 18.1233 131.819 17.065 130.499C16.84 130.219 16.605 129.944 16.4017 129.647C15.3183 128.079 15.9617 126.467 17.895 125.926C19.7833 125.397 21.6283 124.702 23.4783 124.041C25.4783 123.327 27.4617 122.969 29.575 123.636C30.5383 123.939 31.595 123.959 32.6133 124.067C34.6317 124.282 35.7083 122.491 34.8683 120.754C34.245 119.466 33.4833 118.211 32.5917 117.096C31.49 115.717 29.9667 115.289 28.245 115.874C27.8017 116.024 27.4 116.291 26.9583 116.446C25.2517 117.044 24.0567 116.784 23.91 114.682C23.88 114.249 24.025 113.804 24.035 113.364C24.0667 111.986 23.7967 111.747 22.5433 112.316C20.7233 113.142 19.155 112.782 17.515 111.777C15.9417 110.814 14.2583 110.004 12.555 109.289C11.8283 108.984 10.9167 108.961 10.11 109.034C8.53667 109.177 7.74 110.424 8.15833 111.947C8.28 112.394 8.50333 112.827 8.75167 113.221C9.75833 114.821 9.84333 116.506 9.26333 118.257C8.61 120.229 7.06667 121.257 5.25833 120.722C3.52167 120.207 1.78667 120.047 0 120.167C0 111.889 0 103.612 0 95.334C0.488333 95.0207 0.978333 94.7107 1.46333 94.3924C2.70833 93.5774 3.67333 93.5957 4.63333 94.7407C5.34833 95.594 5.905 96.6174 6.35833 97.6407C6.82667 98.699 7.035 99.869 7.45 100.956C7.88333 102.087 8.60333 102.354 9.71 101.854C11.35 101.112 12.5967 99.944 13.115 98.189C13.64 96.409 14.14 94.6074 14.455 92.7807C14.7883 90.8457 14.8483 88.8657 15.105 86.9157C15.3767 84.8574 15.9617 82.8157 16.0133 80.7574C16.1033 77.2324 16.99 73.974 18.4533 70.8107C19.115 69.3807 19.7333 67.914 20.1883 66.409C20.5367 65.2557 19.6917 64.569 18.5533 64.9857C17.9633 65.2007 17.3933 65.5207 16.88 65.8874C15.3583 66.974 13.7333 67.5874 11.82 67.354C10.5833 67.2024 9.33 67.124 8.08333 67.1257C6.17167 67.129 4.53833 66.4507 2.95 65.444C2.055 64.8774 0.99 64.584 0 64.1674C0 52.4457 0 40.7224 0 29.0007C0.71 28.899 1.135 28.4357 1.30667 27.7974C1.42 27.3757 1.53167 26.7457 1.31333 26.4974C1.06833 26.219 0.453333 26.264 0 26.1674C0 21.6124 0 17.0557 0 12.5007C0.45 12.8524 0.946667 13.1574 1.34 13.564C2.35833 14.6207 3.34667 15.7057 4.31167 16.809C4.95833 17.549 5.65667 18.2774 6.13333 19.1224C6.955 20.584 7.86333 21.2107 9.54167 21.0424C10.505 20.9457 11.4567 20.7307 12.4133 20.569C13.6283 20.364 14.8 20.4174 15.8367 21.1874C17.195 22.1957 18.5633 23.1907 19.8933 24.2357C20.2733 24.534 20.61 24.9457 20.8383 25.374C21.8017 27.194 23.3233 28.0674 25.3383 28.194C26.335 28.2557 27.3317 28.339 28.325 28.4424C30.195 28.639 32.0567 30.0924 30.5067 32.4307C30.215 32.869 29.9583 33.3307 29.6733 33.774C28.8433 35.0657 28.67 36.424 29.375 37.8057C30.2567 39.5324 31.1433 41.2607 32.14 42.919C32.78 43.9857 33.0133 45.019 32.7617 46.2407C32.5567 47.239 32.4617 48.2724 32.445 49.294C32.415 51.119 32.4383 52.949 32.5133 54.774C32.64 57.8507 34.5533 59.7524 36.9633 61.2707C38.0083 61.929 39.045 61.7657 39.9533 60.9574C40.595 60.3874 41.1317 59.679 41.825 59.189C42.4067 58.7774 43.1317 58.3957 43.8217 58.3374C46.2567 58.1307 48.6 59.894 49.525 62.474C50.1433 64.1974 50.55 64.489 52.385 64.5124C52.69 64.5157 52.995 64.5024 53.3 64.4874C55.6717 64.369 57.8633 63.5874 60.0067 62.6457C62.6033 61.5057 65.0683 61.5624 67.3817 63.354C67.6867 63.5907 68.0333 63.7774 68.3717 63.9657C69.485 64.584 70.5983 64.5874 71.685 63.904C72.155 63.609 72.6133 63.294 73.0533 62.959C74.44 61.9024 75.9383 61.019 77.6583 60.724C80.5267 60.2324 83.415 59.8507 86.3033 59.4757C87.7317 59.2907 89.1217 59.5774 90.465 60.089C91.3983 60.444 92.3317 60.804 93.2817 61.114C94.5533 61.5274 95.805 61.444 96.99 60.794C97.695 60.4074 98.375 59.974 99.0867 59.599C100.583 58.809 102.142 58.0974 103.843 58.824C104.8 59.234 105.655 59.8907 106.543 60.4524C109.013 62.0124 111.42 61.9507 113.572 59.9957C114.66 59.0074 115.647 57.7924 116.328 56.4957C117.837 53.6274 120.107 52.339 123.298 52.214C124.965 52.149 126.655 51.7757 128.265 51.304C130.927 50.5274 133.497 49.414 136.175 48.709C139.233 47.904 141.615 46.309 143.398 43.724C145.307 40.9574 147.868 39.0124 150.907 37.5724C152.647 36.7474 154.27 35.6407 155.853 34.5307C156.978 33.7407 156.943 33.429 155.898 32.569C154.243 31.2057 152.662 29.8024 151.583 27.8924C151.273 27.3424 150.682 26.904 150.132 26.5474C147.957 25.1357 145.612 24.639 143.06 25.3574C141.352 25.8374 139.642 26.3224 137.912 26.714C136.217 27.099 134.823 26.5207 133.903 25.0357C133.367 24.169 132.843 23.2607 132.515 22.304C131.873 20.4374 130.75 19.089 128.965 18.2207C127.772 17.6407 126.642 16.9257 125.498 16.2474C124.582 15.704 123.617 15.4207 122.555 15.6074C121.845 15.7324 121.133 15.874 120.443 16.074C118.257 16.7074 116.075 16.8307 113.882 16.1207C113.592 16.0274 113.288 15.974 112.988 15.9207C111.823 15.7107 110.865 16.0874 110.288 17.109C109.9 17.7974 109.655 18.579 109.432 19.3457C109.223 20.0624 109.175 20.824 108.972 21.5424C108.787 22.1957 108.467 22.8024 107.64 22.8257C106.807 22.8507 106.355 22.3274 106.128 21.629C105.933 21.0274 105.825 20.3907 105.748 19.7607C105.485 17.6324 104.49 16.589 102.357 16.2924C101.835 16.219 101.305 16.2207 100.782 16.1557C98.55 15.8757 96.3333 15.629 94.08 16.0907C93.0117 16.309 91.9933 15.8507 91.1 15.2474C90.4817 14.829 89.9367 14.304 89.3283 13.869C88.545 13.3074 87.7783 12.6924 86.92 12.274C86.1167 11.8824 85.5833 12.279 85.4633 13.1674C85.4 13.634 85.4233 14.119 85.3133 14.5724C84.795 16.714 83.36 18.3924 80.6683 16.7457C80.5267 16.659 80.3717 16.5874 80.2417 16.4857C77.91 14.6524 75.5667 12.8307 73.2567 10.9707C72.265 10.1707 71.385 9.22736 70.3733 8.45569C69.3417 7.66902 68.1467 7.18569 66.805 7.31736C65.9133 7.40402 65.57 7.98236 65.9617 8.78069C66.2383 9.34569 66.645 9.85236 67.0217 10.3624C67.7633 11.3624 68.6283 12.2857 69.2517 13.3524C70.03 14.6857 69.7833 16.0274 68.7867 17.2124C68.305 17.7857 67.8033 18.3457 67.3433 18.9357C66.6017 19.8857 65.6167 20.339 64.4433 20.2957C61.7817 20.1974 59.11 20.1607 56.4633 19.884C53.3267 19.5557 50.2417 18.869 47.0383 19.1107C45.425 19.2324 43.8583 18.6107 42.6133 17.4657C41.8117 16.729 41.84 15.979 42.6133 15.249C44.4633 13.499 46.2917 11.7257 48.16 9.99569C48.9733 9.24236 49.2533 8.34402 49.3517 7.26569C49.5933 4.64069 48.89 2.26736 47.665 -0.000976562C51.4433 -0.000976562 55.22 -0.000976562 58.9983 -0.000976562C59.485 0.399023 59.9267 0.877357 60.4667 1.18402C61.8133 1.94902 62.6617 1.52569 62.9983 -0.000976562C96.8867 -0.000976562 130.777 -0.000976562 164.665 -0.000976562C164.797 0.444023 164.813 0.977357 165.078 1.32069C166.142 2.69902 167.22 4.07402 168.407 5.34402C169.932 6.97569 171.157 8.74902 171.752 10.9257C171.948 11.6474 172.107 12.4074 172.455 13.0557C173.173 14.3907 173.897 15.7507 174.82 16.9457C176.785 19.4907 178.752 22.0557 180.96 24.3807C182.415 25.9107 184.29 27.044 185.987 28.3407C187.405 29.4257 188.052 30.7674 187.51 32.5607C187.102 33.9124 187.207 35.2474 187.712 36.5607C187.91 37.079 188.158 37.6024 188.223 38.1424C188.38 39.454 188.655 40.8024 188.503 42.0907C188.138 45.2007 186.092 46.4824 183.078 45.699C182.89 45.6507 182.697 45.5474 182.515 45.564C181.703 45.639 180.773 45.5257 180.105 45.8874C177.937 47.059 175.72 47.3007 173.335 46.8507C171.47 46.499 169.617 46.3974 167.802 47.2974C166.5 47.9424 165.155 47.8674 164.042 46.7674C163.08 45.8174 161.907 45.6474 160.65 45.8207C158.725 46.0857 156.793 46.319 154.885 46.6824C151.977 47.2357 149.623 48.6724 148.023 51.2457C147.102 52.7274 146.102 54.1624 145.14 55.619C144.547 56.519 143.903 57.3924 143.382 58.3324C142.733 59.499 142.812 60.004 143.783 60.904C144.697 61.7507 145.72 62.4774 146.65 63.3057C147.717 64.254 147.802 64.949 147.283 66.2807C146.763 67.6207 146.235 68.9674 145.875 70.354C145.535 71.659 144.748 72.4907 143.615 73.0657C143.048 73.354 142.463 73.6357 141.853 73.8007C139.182 74.524 137.188 76.124 135.583 78.3424C134.595 79.7074 133.547 81.0707 132.317 82.209C130.44 83.9457 128.487 83.6107 127.008 81.5324C126.607 80.9674 126.223 80.379 125.752 79.8774C124.482 78.5274 123.253 78.3407 121.643 79.2707C120.412 79.9807 119.115 80.3657 117.693 80.4274C115.778 80.5107 115.237 80.984 114.732 82.844C114.513 83.6474 114.357 84.4724 114.075 85.2524C112.98 88.279 110.72 89.5024 107.632 88.6174C105.907 88.1224 104.198 87.494 102.58 86.724C100.813 85.884 99.085 85.2724 97.0733 85.514C95.235 85.7357 93.3717 85.759 91.5183 85.829C88.6933 85.9374 85.8417 85.8124 83.0467 86.159C80.6833 86.4524 78.3867 86.789 76.0383 86.174C74.9917 85.9007 74.1333 86.2974 73.495 87.1724C73.3317 87.3974 73.145 87.6024 72.9767 87.824C71.8667 89.2807 70.39 89.9757 68.5717 90.1957C67.1533 90.3674 65.7283 90.6957 64.3783 91.1607C62.02 91.9724 59.685 92.869 57.8683 94.7207C56.4067 96.2107 54.6 97.029 52.5483 97.454C51.7017 97.6307 50.8233 98.1257 50.1767 98.714C48.5783 100.172 47.6917 101.962 47.805 104.251C47.8683 105.524 47.6933 106.877 47.3067 108.094C46.6 110.324 46.4167 112.534 46.7817 114.829C47.0667 116.624 47.0617 118.411 46.4983 120.181C46.25 120.962 46.1417 121.797 46.0533 122.617C45.9517 123.571 46.34 124.272 47.0083 124.452C47.85 124.677 48.4133 124.192 48.8 123.557C49.08 123.097 49.2483 122.546 49.3683 122.014C49.495 121.449 49.4233 120.832 49.59 120.286C49.77 119.697 50 119.027 50.4283 118.631C51.9367 117.229 53.7567 117.796 54.58 119.797C55.095 121.049 55.6133 122.314 56.2817 123.486C57 124.746 57.8033 124.672 58.58 123.444C59.4817 122.017 59.4817 120.384 59.7267 118.801C60.4 114.439 62.75 111.284 66.755 109.456C69.605 108.154 72.3667 108.276 74.8467 110.436C75.2 110.744 75.6033 111.007 76.0167 111.229C78.48 112.549 81.0333 112.761 83.6367 111.702C84.5967 111.312 84.7883 110.632 84.37 109.667C84.1717 109.209 83.9367 108.762 83.79 108.289C83.5267 107.442 83.79 106.847 84.6083 106.554C85.9933 106.059 87.4033 106.057 88.7433 106.696C89.8633 107.229 90.5967 108.062 90.5617 109.422C90.5317 110.574 91.055 111.432 92.1017 111.977C92.54 112.206 92.955 112.504 93.325 112.831C94.3583 113.742 94.4367 114.669 93.5833 115.744C93.3283 116.066 93.035 116.384 92.6967 116.611C89.7967 118.562 86.815 120.371 83.5183 121.597C82.8967 121.829 82.0017 122.016 82.1133 122.766C82.195 123.319 82.9233 123.781 83.38 124.267C83.4667 124.359 83.6267 124.396 83.76 124.427C84.8067 124.682 85.845 124.992 86.9067 125.164C87.825 125.312 88.345 125.761 88.7633 126.592C89.1567 127.379 89.7283 128.136 90.3883 128.714C91.0867 129.326 91.995 129.689 92.7867 130.201C94.3267 131.197 94.8167 132.384 94.485 134.189C94.43 134.489 94.3733 134.791 94.3567 135.094C94.275 136.584 95.0433 137.377 96.52 137.217C98.0567 137.051 99.3217 136.231 99.99 134.897C101.25 132.384 102.057 129.736 101.103 126.879C100.875 126.196 100.677 125.502 100.46 124.816C99.7133 122.457 101.473 121.212 103.242 121.066C103.988 121.004 104.742 121.032 105.487 120.961C107.735 120.747 109.375 119.557 110.475 117.644C111.558 115.759 110.653 113.626 108.567 113.001C108.008 112.834 107.428 112.742 106.868 112.584C105.68 112.249 105.123 111.491 105.152 110.254C105.192 108.564 106.047 107.382 107.487 106.579C108.892 105.794 110.295 105.004 111.712 104.241C112.887 103.607 114.09 103.544 115.302 104.162C116.315 104.679 117.297 105.277 118.352 105.686C120.062 106.349 121.282 107.462 122.242 109.022C123.545 111.141 124.358 113.247 123.117 115.667C123.042 115.812 123.028 115.987 122.978 116.147C122.665 117.152 122.977 117.947 123.8 118.561C124.467 119.057 125.168 119.514 125.813 120.037C126.96 120.967 126.902 122.307 125.57 122.919C124.613 123.359 123.51 123.524 122.452 123.682C121.44 123.834 120.4 123.774 119.378 123.881C116.727 124.157 115.678 125.314 115.95 127.941C116.172 130.082 115.447 131.744 113.907 133.129C112.628 134.281 111.298 135.377 110.052 136.562C109.233 137.339 108.413 138.156 107.793 139.086C107.095 140.134 107.683 141.079 108.97 141.036C109.757 141.009 110.542 140.752 111.313 140.547C112.572 140.211 113.797 139.697 115.073 139.499C117.228 139.162 119.295 138.679 121.277 137.706C123.435 136.646 125.053 137.086 126.607 138.941C127.282 139.747 127.855 140.641 128.483 141.487C129.822 143.291 130.767 143.454 132.61 142.211C132.748 142.117 132.875 142.007 133.013 141.917C134.517 140.937 136.115 140.566 137.83 141.279C138.835 141.697 139.18 142.436 138.917 143.504C138.51 145.154 137.41 146.262 135.855 146.756C133.113 147.626 130.37 148.491 127.403 148.329C123.507 148.116 119.753 149.212 115.943 149.802C113.232 150.222 111.333 151.771 109.795 153.967C108.642 155.616 108.517 157.219 109.442 158.957C109.598 159.251 109.723 159.566 109.912 159.839C111.45 162.076 112.928 164.359 114.565 166.522C116.048 168.484 117.68 170.337 119.295 172.196C120.622 173.721 122.023 175.181 123.387 176.674C123.742 177.064 124.06 177.487 124.42 177.872C125.622 179.159 127.145 179.647 128.862 179.567C130.247 179.504 130.908 178.964 131.143 177.594C131.33 176.504 131.38 175.389 131.468 174.282C131.595 172.706 131.653 171.122 131.835 169.552C131.958 168.474 132.603 167.672 133.677 167.417C134.723 167.169 135.64 167.617 136.205 168.486C136.695 169.237 137.122 170.089 137.32 170.954C137.583 172.109 137.6 173.319 137.722 174.506C137.97 176.911 138.567 179.209 139.902 181.259C141.418 183.591 143.975 184.044 146.015 182.149C147.038 181.199 147.783 179.894 148.468 178.647C149.095 177.507 148.923 176.241 148.232 175.147C147.747 174.382 147.157 173.662 146.51 173.024C144.797 171.332 143.317 169.471 142.187 167.349C141.232 165.554 141.625 164.161 143.35 163.084C143.983 162.689 144.675 162.387 145.338 162.037C146.808 161.259 148.353 160.591 149.732 159.672C152.877 157.577 154.37 155.152 153.118 151.104C152.722 149.819 152.758 148.367 152.787 146.996C152.808 145.891 153.163 145.764 154.185 146.239C156.595 147.362 157.943 149.181 157.92 151.919C157.902 153.916 157.965 155.914 157.913 157.909C157.885 159.039 157.827 160.196 157.555 161.286C156.988 163.564 156.783 165.806 157.392 168.112C157.91 170.072 159.073 171.644 160.167 173.289C161.483 175.272 163.187 176.472 165.598 176.674C166.928 176.784 168.012 177.472 168.858 178.501C169.317 179.057 169.748 179.637 170.172 180.221C170.973 181.326 171.793 182.402 173.017 183.096C174.5 183.936 175.683 183.552 176.268 181.954C176.475 181.391 176.598 180.767 176.61 180.167C176.642 178.447 176.643 176.726 176.568 175.007C176.503 173.517 176.497 171.989 176.145 170.556C175.315 167.159 175.628 164.114 177.695 161.139C179.53 158.497 181.74 156.999 184.998 157.124C187.265 157.211 187.453 155.902 186.99 154.456C186.82 153.927 186.645 153.401 186.463 152.876C186.2 152.116 185.892 151.369 185.665 150.597C185.205 149.027 185.278 147.539 186.388 146.206C186.722 145.806 186.938 145.311 187.205 144.856C187.7 144.012 187.51 143.267 186.87 142.591C186.488 142.187 186.09 141.801 185.725 141.382C184.462 139.936 183.885 138.282 184.395 136.379C184.78 134.942 185.957 134.587 187.148 135.471C188.345 136.356 189.002 137.601 189.427 138.969C189.73 139.946 189.892 140.967 190.14 141.964C190.438 143.159 191.362 143.512 192.327 142.754C192.727 142.441 193.063 141.994 193.308 141.544C194.265 139.779 193.715 138.129 192.91 136.466C192.03 134.647 191.248 132.779 190.437 130.927C190.158 130.292 189.96 129.621 189.653 129.001C188.615 126.909 187.157 126.711 185.577 128.422C185.502 128.504 185.417 128.579 185.35 128.667C183.845 130.636 182.012 130.402 180.195 129.679C179.162 129.267 178.535 128.507 178.323 127.409C178.203 126.782 178.112 126.147 177.932 125.537C177.482 124.014 176.348 123.592 174.982 124.409C174.792 124.522 174.617 124.662 174.443 124.801C173.203 125.786 171.848 126.341 170.21 126.154C167.812 125.879 165.973 126.826 164.567 128.789C163.792 129.872 162.995 129.781 162.135 128.754C161.053 127.462 160.888 125.884 160.652 124.319C160.203 121.367 158.645 119.686 155.748 119.066C155.018 118.909 154.268 118.842 153.525 118.749C153.168 118.704 152.805 118.699 152.445 118.674C151.352 118.599 150.448 118.906 149.747 119.817C149.363 120.316 148.817 120.684 148.168 120.177C147.562 119.704 147.703 119.117 147.993 118.531C148.03 118.456 148.082 118.389 148.128 118.321C148.548 117.679 148.553 117.012 148.167 116.369C147.897 115.921 147.59 115.486 147.243 115.096C146.323 114.061 145.292 113.116 144.457 112.019C143.618 110.917 143.975 110.191 145.347 109.904C147.467 109.461 149.602 109.511 151.725 109.822C154.142 110.179 156.542 110.641 158.957 111.002C160.918 111.297 162.612 110.782 164.005 109.276C165.282 107.897 166.815 106.826 168.572 106.146C171.31 105.084 173.412 103.142 175.53 101.226C176.255 100.571 176.307 99.9274 175.887 99.0374C174.882 96.9074 172.338 95.8907 170.122 96.754C168.827 97.259 167.545 97.8274 166.115 97.7457C164.463 97.6524 162.967 98.104 161.637 99.0357C159.135 100.789 156.367 101.396 153.352 101.216C150.972 101.074 148.568 101.171 146.282 100.316C143.963 99.449 143.698 97.9074 145.597 96.3257C145.682 96.254 145.775 96.194 145.863 96.1274C147.988 94.524 150.117 92.9274 152.237 91.3174C153.547 90.3224 154.993 89.664 156.635 89.474C158.175 89.2957 159.63 88.8524 160.922 87.984C163.682 86.1307 166.703 85.509 169.973 85.9957C171.17 86.1724 172.29 85.9324 173.355 85.3757C176.203 83.8857 179.058 82.4107 181.9 80.9074C183.882 79.859 184.565 77.8557 183.597 75.8224C183.232 75.054 182.708 74.3574 182.225 73.649C181.71 72.894 181.103 72.1974 180.633 71.4157C180.19 70.679 180.558 70.1007 181.407 70.2224C182.222 70.3374 183.017 70.6207 183.808 70.8724C185.562 71.429 186.737 72.5124 187.272 74.3557C187.688 75.7907 188.663 76.9307 189.798 77.909C190.513 78.5257 191.217 79.154 191.938 79.7624C194.487 81.9107 196.427 84.5274 197.813 87.5407C198.958 90.0274 198.25 91.489 195.627 92.269C195.042 92.4424 194.448 92.594 193.877 92.804C192.62 93.2657 192.275 94.1407 192.967 95.294C193.362 95.9524 193.835 96.6124 194.415 97.1024C196.585 98.934 198.152 101.186 199.695 103.561C202.812 108.354 204.26 113.646 205.047 119.177C205.347 121.291 205.407 123.429 206.145 125.469C206.968 127.742 207.25 130.247 209.202 132.009C210.242 132.949 210.453 134.157 210.093 135.521C209.583 137.454 209.918 139.262 211.09 140.901C211.462 141.419 211.852 141.927 212.19 142.467C213.26 144.172 213.968 146.001 212.633 147.817C211.512 149.342 211.417 150.816 212.062 152.504C212.745 154.292 212.713 156.111 212.29 157.989C211.453 161.709 211.232 165.449 212.298 169.187C213.023 171.729 212.423 172.899 209.987 173.894C209.678 174.019 209.363 174.134 209.042 174.217C207.752 174.549 206.447 174.829 205.168 175.199C202.91 175.852 200.818 176.774 199.673 179.034C198.695 180.966 199.025 182.419 200.792 183.666C201.767 184.352 202.873 184.866 203.79 185.619C206.19 187.592 208.483 189.692 210.882 191.669C213.167 193.552 214.957 195.802 216.41 198.372C218.262 201.647 220.23 204.842 223.617 206.827C225.71 208.054 227.108 209.879 228.033 212.096C228.172 212.427 228.333 212.754 228.518 213.061C229.252 214.271 230.06 215.441 230.73 216.684C231.835 218.739 231.18 220.106 228.897 220.597C228.032 220.784 227.137 220.831 226.262 220.979C224.813 221.224 224.403 221.812 224.75 223.247C225.283 225.461 226.695 227.069 228.435 228.442C230.733 230.254 233.407 231.364 236.058 232.504C238.907 233.727 241.348 235.459 243.053 238.079C244.367 240.096 245.703 242.094 246.315 244.502C246.79 246.372 247.535 248.172 248.16 250.004L248.167 250.001ZM68.5783 72.419C66.73 72.3357 64.97 72.549 63.42 73.6757C62.3583 74.449 61.4917 75.394 61.785 76.794C62.1533 78.5624 61.6583 80.1007 61.0083 81.7007C60.5067 82.9374 60.1283 84.2807 60.0167 85.604C59.8917 87.1007 61.2067 87.7424 62.435 86.8407C63.11 86.3457 63.7383 85.6857 64.155 84.964C65.3183 82.9524 66.9833 81.9074 69.3017 81.884C69.5217 81.8824 69.7583 81.874 69.96 81.7974C70.8817 81.4424 71.985 81.2724 72.67 80.649C74.1167 79.3324 75.3567 77.784 76.6533 76.3074C77.0833 75.8174 77.0167 75.329 76.49 74.8757C75.2433 73.8007 73.8333 73.054 72.2133 72.7957C71.0117 72.604 69.79 72.5407 68.5767 72.4207L68.5783 72.419ZM38.285 88.874C38.2867 91.8774 39.4833 93.1107 42.105 93.3807C44.2783 93.6057 46.4433 93.939 48.6 94.3007C50.115 94.5557 51.29 94.224 52.2233 92.9174C53.24 91.494 53.155 89.8857 50.9967 89.454C49.4417 89.144 48.22 88.294 47.5633 86.824C46.955 85.4624 46.4317 84.0607 45.92 82.659C45.6017 81.7857 45.98 81.0657 46.56 80.4057C46.9583 79.9524 47.3667 79.4824 47.6417 78.9524C47.9467 78.369 48.4033 77.6807 47.7433 77.0674C47.3617 76.714 46.2333 77.2057 45.7933 77.964C45.3967 78.6507 45.1783 79.4407 44.835 80.1624C44.6167 80.6224 44.4017 81.1474 44.0283 81.454C43.22 82.119 42.285 82.6274 41.4517 83.2657C39.495 84.7624 38.3867 86.7324 38.285 88.8724V88.874ZM189.135 170.794C189.06 170.766 188.985 170.737 188.912 170.709C188.683 168.451 188.487 166.189 188.207 163.937C188.13 163.324 187.887 162.692 187.575 162.152C186.375 160.069 184.348 160.027 183.318 162.199C182.293 164.362 181.493 166.652 180.827 168.954C180.583 169.794 180.773 170.944 181.175 171.749C181.923 173.249 182.938 174.622 183.908 176.002C184.493 176.834 185.11 176.896 185.85 176.112C186.698 175.214 187.473 174.221 188.138 173.179C188.595 172.462 188.812 171.594 189.135 170.792V170.794ZM190.912 112.259C190.955 112.242 190.998 112.227 191.043 112.211C190.782 111.432 190.597 110.616 190.24 109.882C189.443 108.237 188.445 106.682 187.745 105.001C186.953 103.094 186.395 101.091 185.742 99.1274C185.525 98.4757 185.14 98.2674 184.765 98.714C183.723 99.954 182.235 100.234 180.827 100.709C179.438 101.177 179.042 101.869 179.547 103.247C180.082 104.702 180.707 106.126 181.362 107.532C182.052 109.014 183.195 110.041 184.658 110.802C185.495 111.239 186.197 111.951 186.917 112.586C187.328 112.949 187.595 113.504 188.042 113.799C188.512 114.109 189.128 114.387 189.665 114.361C190.367 114.326 190.655 113.644 190.813 113.001C190.873 112.761 190.88 112.507 190.91 112.261L190.912 112.259ZM155.973 13.314C155.125 13.4607 154.227 13.5157 153.395 13.7807C151.715 14.314 151.445 15.3607 152.692 16.6024C153.848 17.754 155.055 18.8774 156.365 19.8457C157.417 20.6224 158.598 21.2974 159.823 21.7424C161.108 22.209 162.015 21.5557 162.192 20.2024C162.3 19.3657 162.245 18.4874 162.135 17.644C161.875 15.6524 160.717 14.3607 158.8 13.8207C157.902 13.5674 156.953 13.4857 155.973 13.3157V13.314ZM162.148 31.6507C160.382 31.6474 159.247 32.2024 158.202 32.974C157.768 33.294 157.622 33.7074 158.072 34.154C158.445 34.5257 158.798 34.9174 159.192 35.2657C160.522 36.444 161.855 37.6207 163.563 38.2507C164.877 38.7357 166.07 38.5407 167.133 37.6207C167.882 36.9724 168.127 36.0407 167.59 35.2374C166.197 33.1557 164.312 31.8107 162.148 31.649V31.6507ZM201.565 204.232C201.287 202.682 200.573 201.206 199.087 200.177C198.36 199.676 197.555 199.697 196.767 199.897C195.743 200.157 195.222 201.427 195.737 202.376C196.745 204.234 198.443 205.082 200.438 205.411C201.145 205.527 201.547 205.104 201.567 204.231L201.565 204.232ZM26.925 80.9124C28.7433 80.9257 30.3933 79.6324 30.76 78.0857C30.9717 77.194 30.6683 76.6607 29.7717 76.519C28.3667 76.2974 26.9917 76.4724 25.7333 77.1557C25.0133 77.5457 24.3767 78.0857 24.4733 79.0407C24.5767 80.0524 25.3217 80.4807 26.1717 80.7674C26.4817 80.8724 26.8217 80.894 26.925 80.9124ZM198.687 151.611C198.658 152.957 199.203 153.461 200.503 153.239C201.267 153.109 202.033 152.957 202.777 152.746C204.032 152.387 204.23 151.869 203.617 150.732C203.525 150.562 203.425 150.394 203.315 150.234C202.538 149.099 201.242 148.461 200.293 148.742C199.405 149.006 198.717 150.236 198.688 151.612L198.687 151.611ZM77.9717 75.5374C78.1867 75.6357 78.355 75.724 78.53 75.794C80.505 76.5824 82.8833 75.0607 83.9333 73.739C84.275 73.3107 84.5083 72.8857 84.1533 72.309C83.7817 71.7057 83.26 71.734 82.7 71.829C80.4983 72.204 78.795 73.234 77.9733 75.5374H77.9717ZM110.465 177.361C110.802 176.856 111.15 176.559 111.105 176.344C111.042 176.037 110.69 175.791 110.46 175.519C110.242 175.752 109.858 175.979 109.85 176.219C109.84 176.509 110.148 176.811 110.465 177.361ZM16.08 46.2574C15.7167 45.989 15.47 45.6757 15.2883 45.709C15.0483 45.754 14.86 46.0707 14.6483 46.2707C14.8583 46.484 15.0483 46.834 15.285 46.8674C15.4783 46.8957 15.725 46.5457 16.08 46.2574Z" fill="#79A2AA"/>
<path d="M249.999 179.834C248.604 179.401 247.168 179.066 245.824 178.506C244.534 177.967 243.253 177.667 241.864 177.781C241.174 177.837 240.481 177.902 239.789 177.897C237.974 177.887 236.596 176.964 235.331 175.762C234.206 174.694 233.031 173.679 231.859 172.659C229.506 170.611 228.603 167.942 228.689 164.927C228.744 163.026 230.396 161.326 232.546 160.727C233.184 160.549 233.849 160.427 234.509 160.386C236.319 160.276 237.853 159.552 239.338 158.547C240.683 157.637 242.136 156.877 243.581 156.126C245.081 155.344 246.621 154.641 248.153 153.924C248.754 153.642 249.381 153.416 249.998 153.164V166.664C249.441 166.827 248.871 166.952 248.334 167.162C247.729 167.401 247.063 167.601 246.954 168.424C246.848 169.232 247.521 169.411 247.978 169.769C248.064 169.837 248.164 169.887 248.254 169.951C248.833 170.357 249.009 170.856 248.676 171.522C248.429 172.016 248.209 172.527 248.039 173.051C247.518 174.654 248.349 175.957 249.998 176.162V179.829L249.999 179.834Z" fill="#79A2AA"/>
<path d="M250 129.667C248.527 129.854 247.243 129.414 246.178 128.412C244.942 127.249 243.527 126.879 241.882 127.244C238.988 127.885 236.038 128.339 233.212 129.197C231.302 129.777 229.525 130.854 227.757 131.832C226.47 132.544 225.268 132.705 223.99 131.942C222.568 131.092 221.222 131.135 219.778 132.024C218.168 133.015 217.288 132.662 216.725 130.842C216.223 129.224 216.508 127.612 217.503 126.257C217.865 125.765 218.63 125.405 219.262 125.304C221.352 124.972 223.242 124.177 225.115 123.239C226.318 122.637 227.625 122.219 228.917 121.819C229.968 121.494 231.047 121.715 231.983 122.225C233.707 123.165 235.077 122.655 236.31 120.922C237.143 119.75 237.942 118.545 238.868 117.45C239.335 116.897 240.012 116.482 240.662 116.13C243.037 114.84 245.187 115.865 245.745 118.514C245.877 119.135 246.012 119.76 246.087 120.39C246.23 121.595 246.895 122.294 248.055 122.557C248.703 122.704 249.35 122.854 249.998 123.002V129.669L250 129.667Z" fill="#79A2AA"/>
<path d="M9.5 0.000976562C9.53333 1.73431 10.74 2.92598 11.5167 4.30931C12.52 6.09764 12.3933 6.81264 10.8033 8.05264C8.07333 10.1826 4.91833 11.0943 1.52833 11.3076C1.02667 11.341 0.51 11.1093 0 11.001C0 7.33431 0 3.66764 0 0.000976562H9.5Z" fill="#79A2AA"/>
<path d="M0 129.167C0.863333 129.347 1.49667 129.867 1.65333 130.709C2.035 132.754 2.67 134.709 3.35667 136.669C4.085 138.749 3.20333 140.082 1.05667 140.62C0.708333 140.707 0.351667 140.764 0 140.834C0 136.945 0 133.055 0 129.167Z" fill="#79A2AA"/>
<path d="M17.9993 0.000976562C17.2993 1.07264 15.861 1.71264 14.6627 1.50931C13.7927 1.36264 13.5043 0.662643 13.166 0.000976562H17.9993Z" fill="#79A2AA"/>
<path d="M126.193 103.462C126.241 102.966 126.275 102.466 126.34 101.971C126.583 100.089 127.575 98.7905 129.385 98.1755C130.171 97.9072 130.971 97.6688 131.781 97.4805C133.038 97.1888 134.255 97.2922 135.406 97.9488C136.706 98.6905 138.018 99.4155 139.343 100.112C140.403 100.67 140.811 101.549 140.561 102.667C140.266 103.99 139.903 105.304 139.478 106.592C139.218 107.379 138.636 107.949 137.815 108.222C137.473 108.336 137.131 108.452 136.796 108.584C135.616 109.052 135.281 109.599 135.89 110.684C136.681 112.097 137.69 113.39 138.63 114.717C138.98 115.214 139.431 115.639 139.775 116.139C140.358 116.987 140.558 117.967 140.175 118.916C139.648 120.221 139.025 121.492 138.351 122.729C137.861 123.629 136.955 124.014 136.001 123.724C134.716 123.332 133.446 122.83 132.258 122.205C131.371 121.739 130.973 120.804 130.736 119.817C130.451 118.632 130.161 117.441 129.75 116.296C129.01 114.244 128.6 112.147 128.386 109.974C128.291 109.006 127.765 108.027 127.246 107.165C126.548 106.002 126.165 104.806 126.193 103.459V103.462Z" fill="#79A2AA"/>
<path d="M133.032 128.335C134.942 128.582 136.79 128.849 138.533 129.68C140.843 130.782 143.063 134.285 142.993 136.842C142.973 137.58 142.59 137.999 141.838 137.929C141.098 137.86 140.377 137.609 139.637 137.522C138.597 137.4 137.537 137.215 136.507 137.304C133.205 137.587 130.857 136.102 129.05 133.517C128.785 133.139 128.6 132.685 128.457 132.242C127.94 130.647 128.578 129.32 130.185 128.839C131.103 128.564 132.082 128.494 133.033 128.332L133.032 128.335Z" fill="#79A2AA"/>
<path d="M190.178 69.8956C189.083 69.949 188.226 69.4723 187.644 68.589C186.961 67.5506 186.321 66.4773 185.743 65.379C184.791 63.5756 183.683 61.9106 182.159 60.524C181.573 59.9906 181.049 59.3523 180.621 58.684C179.956 57.6456 180.081 56.5506 181.024 55.7673C181.801 55.1206 182.696 54.5906 183.603 54.1356C184.458 53.7056 185.279 53.9423 185.934 54.659C186.084 54.8223 186.256 54.9723 186.371 55.159C188.041 57.869 189.783 60.539 191.326 63.319C191.956 64.454 192.271 65.809 192.518 67.104C192.861 68.9123 192.008 69.8356 190.179 69.8973L190.178 69.8956Z" fill="#79A2AA"/>
<path d="M172.465 152.719C169.14 152.689 166.855 149.389 167.965 146.369C168.182 145.779 168.627 145.416 169.255 145.594C170.233 145.871 171.235 146.146 172.13 146.608C173.258 147.189 174.3 147.943 175.36 148.651C176.365 149.323 176.488 150.143 175.757 151.109C174.905 152.236 173.733 152.701 172.465 152.719Z" fill="#79A2AA"/>
<path d="M168.863 67.3945C170.72 67.5362 173.141 69.3329 173.481 70.8945C173.693 71.8712 173.121 72.5662 172.133 72.4612C171.73 72.4179 171.263 72.3279 170.963 72.0879C169.913 71.2462 168.875 70.3762 167.938 69.4129C167.671 69.1379 167.588 68.4379 167.745 68.0712C167.883 67.7462 168.473 67.6129 168.863 67.3945Z" fill="#79A2AA"/>
<path d="M152.556 145.048C150.673 144.328 149.075 143.638 148.013 142.149C147.79 141.838 147.65 141.278 147.781 140.961C147.88 140.726 148.48 140.588 148.851 140.596C150.786 140.634 152.221 141.796 152.545 143.561C152.62 143.974 152.556 144.413 152.556 145.048Z" fill="#79A2AA"/>
<path d="M162.753 135.534C162.763 136.488 162.143 137.239 161.519 137.216C161.006 137.198 160.414 136.566 160.426 136.051C160.443 135.406 161.181 134.651 161.854 134.674C162.483 134.696 162.759 135.104 162.753 135.534Z" fill="#79A2AA"/>
<path d="M117.879 26.5927C117.954 25.9227 117.952 24.8777 118.207 23.8993C118.774 21.7343 121.272 20.4143 123.422 21.041C124.602 21.3843 125.164 22.2727 125.402 23.396C126.059 26.501 124.094 30.1343 121.154 31.2893C119.517 31.9327 118.396 31.331 118.126 29.6043C117.989 28.731 117.976 27.8377 117.879 26.5927Z" fill="#79A2AA"/>
<path d="M49.2558 26.6057C48.3924 26.4774 47.5591 26.424 47.1941 25.594C46.8708 24.8574 47.1658 24.1757 47.6608 23.604C48.2591 22.914 49.0291 22.964 49.8041 23.2157C50.0891 23.309 50.4374 23.4207 50.5974 23.639C50.9208 24.079 51.3774 24.629 51.3241 25.079C51.2691 25.534 50.7108 25.984 50.2808 26.3157C49.9991 26.5307 49.5524 26.529 49.2574 26.604L49.2558 26.6057Z" fill="#79A2AA"/>
</g>
<defs>
<linearGradient id="paint0_linear_815_5903" x1="221" y1="47" x2="195.5" y2="55.5" gradientUnits="userSpaceOnUse">
<stop stop-color="#764AAF"/>
<stop offset="0.905" stop-color="#B34BF8"/>
<stop offset="1" stop-color="#D4FFF8"/>
</linearGradient>
<linearGradient id="paint1_linear_815_5903" x1="89.3835" y1="67.1494" x2="89.3835" y2="249.855" gradientUnits="userSpaceOnUse">
<stop stop-color="#3B21A9"/>
<stop offset="1" stop-color="#0F739E"/>
</linearGradient>
<linearGradient id="paint2_linear_815_5903" x1="199.083" y1="112.873" x2="199.083" y2="249.852" gradientUnits="userSpaceOnUse">
<stop stop-color="#3B21A9"/>
<stop offset="1" stop-color="#0F739E"/>
</linearGradient>
<linearGradient id="paint3_linear_815_5903" x1="86.0934" y1="-0.000976563" x2="86.0934" y2="73.3257" gradientUnits="userSpaceOnUse">
<stop stop-color="#3B21A9"/>
<stop offset="1" stop-color="#0F739E"/>
</linearGradient>
<linearGradient id="paint4_linear_815_5903" x1="15.8744" y1="54.3525" x2="15.8744" y2="112.254" gradientUnits="userSpaceOnUse">
<stop stop-color="#3B21A9"/>
<stop offset="1" stop-color="#0F739E"/>
</linearGradient>
<linearGradient id="paint5_linear_815_5903" x1="132.968" y1="142.971" x2="132.968" y2="166.734" gradientUnits="userSpaceOnUse">
<stop stop-color="#3B21A9"/>
<stop offset="1" stop-color="#0F739E"/>
</linearGradient>
<linearGradient id="paint6_linear_815_5903" x1="42.1513" y1="83.0088" x2="42.1513" y2="92.0212" gradientUnits="userSpaceOnUse">
<stop stop-color="#3B21A9"/>
<stop offset="1" stop-color="#0F739E"/>
</linearGradient>
<linearGradient id="paint7_linear_815_5903" x1="34.7839" y1="119.139" x2="34.7839" y2="125.105" gradientUnits="userSpaceOnUse">
<stop stop-color="#3B21A9"/>
<stop offset="1" stop-color="#0F739E"/>
</linearGradient>
<linearGradient id="paint8_linear_815_5903" x1="107.537" y1="113.802" x2="107.537" y2="121.463" gradientUnits="userSpaceOnUse">
<stop stop-color="#3B21A9"/>
<stop offset="1" stop-color="#0F739E"/>
</linearGradient>
<linearGradient id="paint9_linear_815_5903" x1="2.12609" y1="118.368" x2="2.12609" y2="124.972" gradientUnits="userSpaceOnUse">
<stop stop-color="#3B21A9"/>
<stop offset="1" stop-color="#0F739E"/>
</linearGradient>
<linearGradient id="paint10_linear_815_5903" x1="200.181" y1="147.654" x2="200.181" y2="151.757" gradientUnits="userSpaceOnUse">
<stop stop-color="#3B21A9"/>
<stop offset="1" stop-color="#0F739E"/>
</linearGradient>
<linearGradient id="paint11_linear_815_5903" x1="0.944371" y1="8.08984" x2="0.944371" y2="13.8815" gradientUnits="userSpaceOnUse">
<stop stop-color="#3B21A9"/>
<stop offset="1" stop-color="#0F739E"/>
</linearGradient>
<clipPath id="clip0_815_5903">
<rect width="250" height="250" rx="125" fill="white"/>
</clipPath>
</defs>
</svg>
