<svg width="250" height="250" viewBox="0 0 250 250" fill="none" xmlns="http://www.w3.org/2000/svg">
<rect width="250" height="250" rx="125" fill="white"/>
<g clip-path="url(#clip0_242_94674)">
<path d="M30.0039 161.355L79.662 190.818L90.035 165.548L73.2616 144.968L30.0039 161.355Z" fill="#373A40"/>
<path d="M30.0039 161.355L71.3856 113.794L62.1161 102.924L49.5361 88.1924L30.0039 161.355Z" fill="#373A40"/>
<path d="M178.648 113.794L220.03 161.355L200.498 88.1924L187.918 102.924L178.648 113.794Z" fill="#373A40"/>
<path d="M170.373 190.818L220.031 161.355L176.773 144.968L160 165.548L170.373 190.818Z" fill="#373A40"/>
<path d="M159.999 165.549L176.772 144.968L157.019 135.754L138.591 156.776L159.999 165.604V165.549Z" fill="#373A40"/>
<path d="M73.2637 144.912L90.0371 165.492L111.445 156.664L93.0166 135.643L73.2637 144.857V144.912Z" fill="#373A40"/>
<path d="M111.444 211.064H125.017V197.271H116.906L111.444 211.064Z" fill="#373A40"/>
<path d="M125.016 197.271V211.064H138.588L133.126 197.271H125.016Z" fill="#373A40"/>
<path d="M49.5386 88.1915L94.8929 67.0042L79.6645 45.2651L61.5669 39.1406L47.4971 54.976L49.5937 88.1915H49.5386Z" fill="#373A40"/>
<path d="M155.143 66.9475L200.497 88.1349L202.594 54.9193L188.469 39.084L170.371 45.1533L155.143 66.8924V66.9475Z" fill="#373A40"/>
<path d="M30.0039 161.355L79.662 190.818L90.035 165.548L73.2616 144.968L30.0039 161.355Z" fill="#40434A"/>
<path d="M30.0039 161.355L71.3856 113.794L62.1161 102.924L49.5361 88.1924L30.0039 161.355Z" fill="#40434A"/>
<path d="M178.648 113.794L220.03 161.355L200.498 88.1924L187.918 102.924L178.648 113.794Z" fill="#40434A"/>
<path d="M170.373 190.818L220.031 161.355L176.773 144.968L160 165.548L170.373 190.818Z" fill="#40434A"/>
<path d="M159.999 165.549L176.772 144.968L157.019 135.754L138.591 156.776L159.999 165.604V165.549Z" fill="#40434A"/>
<path d="M73.2637 144.912L90.0371 165.492L111.445 156.664L93.0166 135.643L73.2637 144.857V144.912Z" fill="#40434A"/>
<path d="M111.444 211.064H125.017V197.271H116.906L111.444 211.064Z" fill="#40434A"/>
<path d="M125.016 197.271V211.064H138.588L133.126 197.271H125.016Z" fill="#40434A"/>
<path d="M49.5386 88.1915L94.8929 67.0042L79.6645 45.2651L61.5669 39.1406L47.4971 54.976L49.5937 88.1915H49.5386Z" fill="#40434A"/>
<path d="M155.143 66.9475L200.497 88.1349L202.594 54.9193L188.469 39.084L170.371 45.1533L155.143 66.8924V66.9475Z" fill="#40434A"/>
<path d="M30.0039 161.355L79.662 190.818L90.035 165.548L73.2616 144.968L30.0039 161.355Z" fill="#48608E"/>
<path d="M170.373 190.818L220.031 161.355L176.773 144.968L160 165.548L170.373 190.818Z" fill="#48608E"/>
<path d="M159.999 165.549L176.772 144.968L157.019 135.754L138.591 156.776L159.999 165.604V165.549Z" fill="#48608E"/>
<path d="M73.2637 144.912L90.0371 165.492L111.445 156.664L93.0166 135.643L73.2637 144.857V144.912Z" fill="#48608E"/>
<path d="M30.0039 161.355L79.662 190.818L90.035 165.548L73.2616 144.968L30.0039 161.355Z" fill="#5B78B3"/>
<path d="M170.373 190.818L220.031 161.355L176.773 144.968L160 165.548L170.373 190.818Z" fill="#5B78B3"/>
<path d="M30.0039 161.351L73.2616 144.964L93.0145 135.75L111.443 156.772H121.816L105.65 110.148L71.4408 113.845L30.0039 161.351Z" fill="#DDDFE3"/>
<path d="M90.0391 165.549L116.965 197.275L111.502 156.721L90.0942 165.549H90.0391Z" fill="#DDDFE3"/>
<path d="M90.0342 165.547L79.6611 190.817L111.442 211.067L116.905 197.273L89.979 165.547H90.0342Z" fill="#DDDFE3"/>
<path d="M116.907 197.275H125.018V156.721H111.444L116.907 197.275Z" fill="#DDDFE3"/>
<path d="M125.016 156.721V197.275H133.126L138.589 156.721H125.016Z" fill="#DDDFE3"/>
<path d="M133.127 197.275L160.053 165.549L138.645 156.721L133.182 197.275H133.127Z" fill="#DDDFE3"/>
<path d="M170.371 190.817L159.998 165.547L133.072 197.273L138.535 211.067L170.316 190.817H170.371Z" fill="#DDDFE3"/>
<path d="M138.59 156.717L157.018 135.695L144.383 110.094L128.217 156.717H138.59Z" fill="#DDDFE3"/>
<path d="M157.017 135.696L176.769 144.91L178.645 113.736L144.437 110.039L157.072 135.64L157.017 135.696Z" fill="#DDDFE3"/>
<path d="M176.771 144.909L220.028 161.297L178.646 113.735L176.771 144.909Z" fill="#DDDFE3"/>
<path d="M116.907 197.275H125.018V156.721H111.444L116.907 197.275Z" fill="#EDEFF2"/>
<path d="M125.016 156.721V197.275H133.126L138.589 156.721H125.016Z" fill="#EDEFF2"/>
<path d="M73.2622 144.909L93.0151 135.695L105.65 110.094L71.4414 113.791L73.3174 144.965L73.2622 144.909Z" fill="#EDEFF2"/>
<path d="M157.017 135.696L176.769 144.91L178.645 113.736L144.437 110.039L157.072 135.64L157.017 135.696Z" fill="#EDEFF2"/>
<path d="M105.594 110.096L94.8349 66.9492L78.4477 84.9364L62.0605 102.924L71.3301 113.793L105.539 110.096H105.594Z" fill="#494D55"/>
<path d="M94.8925 66.9492L49.5381 88.1917L62.1181 102.924L78.5053 84.9364L94.8925 66.9492Z" fill="#494D55"/>
<path d="M125.017 66.9492H94.8906L105.65 110.096H125.072V66.9492H125.017Z" fill="#494D55"/>
<path d="M94.8906 66.9482H125.017V60.3271L94.8906 66.9482Z" fill="#494D55"/>
<path d="M125.016 60.3271V66.9482H155.142L125.016 60.3271Z" fill="#494D55"/>
<path d="M125.016 66.9492V110.096H144.437L155.197 66.9492H125.071H125.016Z" fill="#494D55"/>
<path d="M155.145 66.9492L144.386 110.096L178.595 113.793L187.864 102.924L155.09 67.0044L155.145 66.9492Z" fill="#494D55"/>
<path d="M200.497 88.1932L155.143 67.0059L187.917 102.925L200.497 88.1932Z" fill="#494D55"/>
<path d="M121.818 156.717H125.018V110.094H105.597L121.763 156.717H121.818Z" fill="#494D55"/>
<path d="M125.016 110.094V156.717H128.216L144.383 110.094H124.961H125.016Z" fill="#494D55"/>
<path d="M94.8925 66.9492L49.5381 88.1917L62.1181 102.924L94.8925 67.0044V66.9492Z" fill="#5F6269"/>
<path d="M200.497 88.1932L155.143 67.0059L187.917 102.925L200.497 88.1932Z" fill="#5F6269"/>
<path d="M94.8906 66.9482H125.017V60.3271L94.8906 66.9482Z" fill="#595E65"/>
<path d="M125.016 60.3271V66.9482H155.142L125.016 60.3271Z" fill="#595E65"/>
<path d="M125.017 66.9492H94.8906L105.65 110.096H125.072V66.9492H125.017Z" fill="#595E65"/>
<path d="M125.016 66.9492V110.096H144.437L155.197 66.9492H125.071H125.016Z" fill="#595E65"/>
<path d="M86.1738 147.339L91.7462 142.539L97.3738 147.339L91.7462 152.139L86.1738 147.339Z" fill="white"/>
<path d="M152.771 147.339L158.344 142.539L163.916 147.339L158.344 152.139L152.771 147.339Z" fill="white"/>
</g>
<defs>
<clipPath id="clip0_242_94674">
<rect width="190.025" height="171.926" fill="white" transform="translate(30.0039 39.1396)"/>
</clipPath>
</defs>
</svg>
