<svg width="250" height="250" viewBox="0 0 250 250" fill="none" xmlns="http://www.w3.org/2000/svg">
<rect width="250" height="250" rx="125" fill="white"/>
<path d="M20.9063 124.413C20.8999 66.4967 67.5117 19.8959 125.439 19.9053C182.983 19.9142 229.535 66.7126 229.503 124.52C229.471 182.328 182.644 228.534 124.121 228.502C67.6133 228.471 20.9122 181.375 20.9063 124.413ZM164.777 47.1601C159.63 47.1601 155.133 47.1601 150.422 47.1601C142.118 67.2685 133.823 87.3574 125.2 108.239C116.757 87.2461 108.695 67.2001 100.65 47.1971C95.756 47.1971 91.1677 47.1971 86.0673 47.1971C99.071 78.6496 111.946 109.792 125.201 141.853C138.583 109.834 151.579 78.7376 164.777 47.1601ZM86.0787 106.79C99.0969 138.239 111.981 169.363 125.203 201.305C138.588 169.327 151.602 138.233 164.753 106.811C159.609 106.811 155.031 106.811 150.35 106.811C142.038 126.959 133.781 146.976 125.197 167.781C116.793 146.865 108.744 126.831 100.692 106.79C95.8185 106.79 91.2174 106.79 86.0787 106.79Z" fill="black"/>
</svg>
