<svg width="250" height="250" viewBox="0 0 250 250" fill="none" xmlns="http://www.w3.org/2000/svg">
<rect width="250" height="250" rx="125" fill="white"/>
<path d="M50.7542 68.9841C61.0816 68.9841 71.5367 68.9841 82.1617 68.9841C82.1617 64.8616 82.1617 60.8666 82.1617 56.8716C82.1617 55.9791 80.7592 51.6866 80.2491 51.0066C79.1866 49.5616 77.6992 48.7541 75.8717 48.5841C75.8717 46.7141 75.8717 43.1016 75.8717 43.1016H115.694C115.694 43.1016 115.694 46.7141 115.694 48.5416C112.719 49.1791 110.552 51.5591 110.127 54.6616C109.829 56.9991 109.957 68.9841 109.957 68.9841C109.957 68.9841 133.969 68.9841 146.337 68.9841C146.337 64.6491 146.592 60.3141 146.252 56.0216C146.039 53.2166 144.934 50.4541 141.917 48.7541C141.577 48.7541 140.854 48.7116 140.089 48.6691C140.089 46.8416 140.089 43.1441 140.089 43.1441H180.634C180.634 43.1441 180.634 46.2891 180.634 47.9466C180.252 48.2016 179.827 48.6691 179.402 48.7116C177.447 48.8391 176.299 50.0716 175.662 51.6866C174.939 53.5566 174.302 55.3841 174.302 57.5091C174.344 89.3841 174.302 157.384 174.302 157.384C174.302 157.384 182.759 157.384 186.797 157.384C189.177 153.219 191.557 149.139 194.064 144.804C194.064 143.147 194.064 139.364 194.064 139.364L230.189 139.109L230.232 145.144C230.232 145.144 228.022 145.782 226.619 146.207C226.067 146.759 225.387 147.567 224.579 148.247C223.007 149.607 222.029 151.349 220.967 153.092C218.799 156.747 206.092 179.229 205.922 179.697C173.877 179.697 109.574 179.697 109.574 179.697C109.574 179.697 109.532 186.539 109.574 189.897C109.574 191.342 111.189 196.017 112.124 197.079C113.612 198.779 115.652 199.629 117.862 200.012C118.372 200.097 118.967 199.927 119.434 200.097C119.987 200.267 120.454 200.692 121.007 200.989C121.007 202.434 121.007 203.922 121.007 205.494C120.752 205.707 120.412 205.962 119.987 206.344C103.964 206.344 87.8141 206.344 71.5366 206.344C71.5366 204.517 71.5366 202.732 71.5366 200.904C71.7916 200.649 72.0891 200.352 72.4291 200.012C75.6591 200.522 78.3792 199.204 80.1217 196.612C81.3966 194.699 82.2892 192.447 82.2892 189.897C82.2042 174.342 82.2467 158.744 82.2467 143.189C82.2467 128.059 82.2467 95.6741 82.2467 94.5691C91.4267 94.5691 100.394 94.5691 109.447 94.5691C109.447 100.817 109.447 113.227 109.447 113.227L146.337 113.439C146.337 113.439 146.337 98.9041 146.337 91.4666C120.922 91.4666 95.4216 91.4666 69.6241 91.4666C69.4541 91.8066 54.1966 118.199 51.9441 121.939C51.0516 123.427 50.7541 124.872 51.7316 126.402C53.1341 128.654 68.0942 155.174 69.8366 157.469C72.8541 157.469 75.9141 157.469 79.0166 157.469C79.0166 164.864 79.0166 172.132 79.0166 179.527C69.6241 179.527 60.2316 179.527 50.6691 179.527C49.0966 178.124 20.5792 127.507 19.8567 126.359C18.8367 124.787 19.1767 123.342 20.1117 121.897C22.3642 118.412 49.9042 70.4716 50.7542 68.9841ZM146.294 135.242C134.224 135.242 122.239 135.242 110.339 135.242C109.999 135.582 109.787 135.794 109.574 136.007C109.574 143.062 109.574 150.117 109.574 157.257C121.857 157.257 134.097 157.257 146.294 157.257C146.294 149.904 146.294 142.637 146.294 135.242Z" fill="#5C4D94"/>
<path d="M176.979 69.8778C177.319 69.5378 177.532 69.3253 177.787 69.0703C186.839 69.0703 195.934 69.0703 205.369 69.0703C205.879 69.7928 206.517 70.6428 207.069 71.5778C209.492 75.6578 211.872 79.7803 214.167 83.9028C216.037 87.2603 218.162 90.4903 219.904 93.8903C220.967 96.0153 222.114 98.1403 223.517 100.01C224.792 101.668 226.662 102.773 228.744 103.368C229.212 103.495 229.637 103.75 230.147 104.005C230.147 105.833 230.147 109.403 230.147 109.403L194.022 109.658C194.022 109.658 194.022 107.618 194.022 106.598C194.022 105.663 194.022 104.685 194.022 104.218C191.429 99.7553 189.092 95.6328 186.584 91.3403C183.822 91.3403 180.762 91.3403 177.829 91.3403C177.489 91.0003 177.277 90.7878 176.937 90.4478C176.979 83.6903 176.979 76.8478 176.979 69.8778Z" fill="#5C4D94"/>
<path d="M185.054 200.652C185.054 202.649 185.054 204.392 185.054 206.262C168.564 206.262 152.116 206.262 135.584 206.262C135.584 204.392 135.584 202.649 135.584 200.864C136.816 199.887 138.219 199.929 139.494 199.972C140.684 199.292 141.789 198.824 142.724 198.144C145.231 196.359 146.081 193.639 146.294 190.749C146.464 188.242 146.336 185.692 146.336 183.142C146.421 183.057 146.464 182.972 146.549 182.929C146.634 182.887 146.719 182.802 146.804 182.802C155.686 182.802 164.526 182.802 173.366 182.802C173.664 183.099 173.876 183.312 174.301 183.737C174.301 185.692 174.386 187.902 174.301 190.112C174.131 193.979 176.001 196.784 178.849 198.994C179.656 199.632 180.889 199.674 181.909 199.972C182.971 200.227 184.034 200.439 185.054 200.652Z" fill="#5C4D94"/>
</svg>
