<svg width="250" height="250" viewBox="0 0 250 250" fill="none" xmlns="http://www.w3.org/2000/svg">
<rect width="250" height="250" rx="125" fill="white"/>
<path d="M125.686 205.431C148.835 192.068 171.736 178.848 194.801 165.534C194.801 138.63 194.801 111.721 194.801 84.353C186.434 79.5042 177.856 74.533 168.445 69.0794C168.445 98.9526 168.445 128.086 168.445 157.182C160.961 161.496 153.997 165.511 146.341 169.925C146.341 157.498 146.341 145.783 146.341 133.737C132.391 133.737 118.942 133.737 105.136 133.737C105.136 161.949 105.136 189.934 105.136 218.457C103.718 217.916 102.72 217.681 101.87 217.191C80.6978 204.992 59.5694 192.716 38.3529 180.595C35.1076 178.74 33.8509 176.447 33.8637 172.722C33.9708 140.951 33.9712 109.18 33.8556 77.4102C33.8416 73.5278 35.0894 71.1228 38.5255 69.1554C66.0795 53.3828 93.563 37.4853 121.006 21.5189C124.202 19.6595 126.997 19.3378 130.095 21.4547C132.136 22.85 134.329 24.0243 136.547 25.3541C136.547 33.5217 136.547 41.5717 136.547 50.3993C132.714 48.3334 129.254 46.4681 125.483 44.4349C102.487 57.7115 79.3331 71.079 56.0614 84.5145C56.0614 111.401 56.0614 138.137 56.0614 165.318C64.575 170.232 73.2646 175.248 82.5653 180.616C82.5653 150.683 82.5653 121.495 82.5653 91.9155C89.7605 87.7411 96.8427 83.6326 104.697 79.0762C104.697 90.0863 104.697 100.384 104.697 111.076C118.716 111.076 132.146 111.076 146.14 111.076C146.14 84.6348 146.14 58.1386 146.14 30.8026C155.643 36.2834 164.365 41.3099 173.084 46.3431C186.294 53.9685 199.451 61.6852 212.742 69.1656C216.167 71.0934 217.474 73.5036 217.46 77.4017C217.346 108.861 217.316 140.32 217.483 171.778C217.507 176.281 215.912 178.883 212.074 181.077C185.319 196.369 158.61 211.743 132.031 227.339C127.413 230.048 123.525 230.644 119.224 227.267C117.779 226.133 116.088 225.31 114.425 224.293C114.425 216.089 114.425 208.03 114.425 199.181C118.358 201.365 121.824 203.288 125.686 205.431Z" fill="black"/>
</svg>
