<svg width="250" height="250" viewBox="0 0 250 250" fill="none" xmlns="http://www.w3.org/2000/svg">
<path d="M92.9072 224.231L37.1001 190.746C35.0617 189.523 33.8145 187.32 33.8145 184.943V82.8896C33.8145 80.5048 35.0696 78.2961 37.1183 77.0756L121.211 26.978C123.355 25.7007 126.028 25.707 128.165 26.9943L211.328 77.0709C213.362 78.2952 214.605 80.4951 214.605 82.8685V187.776C214.605 190.19 213.32 192.42 211.232 193.631L159.53 223.609C159.536 223.569 159.538 223.529 159.538 223.489C158.667 202.345 157.072 161.846 157.256 159.893C157.449 157.544 160.833 146.522 167.398 130.435C172.966 116.397 171.12 92.6041 170.114 87.4801C169.302 83.3132 165.793 78.2955 162.912 75.6852L162.873 75.6562C160.388 73.7033 156.628 73.2005 153.302 74.3607C152.19 74.7281 151.165 75.3275 150.305 76.1202C149.976 71.7793 146.447 68.5986 142.909 67.3708C139.941 66.346 135.793 66.752 133.047 68.3472C132.419 68.7146 131.849 69.169 131.365 69.7104C131.162 65.6789 129.47 61.309 122.461 59.7621C118.884 58.9693 115.964 59.3077 113.799 60.7676C112.716 61.512 111.846 62.5271 111.275 63.7066C110.183 61.0769 108.085 58.776 104.566 58.0315C99.3257 56.9294 93.583 59.5397 92.3261 62.4498C91.3497 64.7121 90.3442 70.5998 90.0542 72.3787C88.4493 72.6785 86.8251 72.9008 85.1525 73.1232C81.8267 73.5582 78.3946 74.0223 75.0205 75.1728C74.9432 75.2018 74.8755 75.2405 74.8175 75.2888C70.6409 78.6242 70.4572 92.2947 70.4572 92.4204C70.4572 93.6772 70.96 100.077 71.6077 106.719C72.2071 112.684 73.0579 120.167 73.754 121.946C74.4114 123.628 80.4539 131.798 88.9133 143.177C93.3606 149.152 97.9432 155.32 98.5233 156.383C98.1269 160.376 94.6078 208.677 93.5249 223.643C93.5056 223.73 93.5153 223.827 93.5539 223.914C93.5926 224.001 93.6603 224.069 93.7376 224.117C93.7956 224.146 93.8537 224.165 93.9117 224.175C93.9202 224.186 93.9291 224.197 93.9382 224.208C93.6444 224.401 93.2489 224.436 92.9072 224.231Z" fill="#01E0DE" fill-opacity="0.3"/>
<path d="M157.624 224.221C157.881 224.346 158.194 224.361 158.481 224.216L157.624 224.221Z" fill="#01E0DE" fill-opacity="0.3"/>
<path d="M167.423 130.372C172.995 116.333 171.14 92.5466 170.143 87.4134C169.334 83.2503 165.825 78.2302 162.938 75.6196L162.904 75.5916C160.418 73.6413 156.659 73.1341 153.329 74.2965C152.215 74.665 151.192 75.2663 150.329 76.0604C149.999 71.7174 146.471 68.5432 142.935 67.3134C139.969 66.2853 135.819 66.6935 133.07 68.2911C132.442 68.6566 131.875 69.1155 131.386 69.6521C131.182 65.6199 129.488 61.2502 122.485 59.7028C118.905 58.9117 115.988 59.2518 113.824 60.711C112.742 61.4538 111.873 62.4668 111.304 63.6494C110.215 61.0207 108.114 58.7177 104.596 57.9768C99.3539 56.8705 93.6133 59.4886 92.3532 62.3995C91.3806 64.6663 90.37 70.5493 90.0853 72.3257C88.4799 72.6208 86.8571 72.8477 85.1839 73.0691C81.8599 73.5078 78.4258 73.9663 75.0483 75.1181C74.9734 75.1438 74.9035 75.1821 74.8417 75.2314C70.6633 78.5756 70.4775 92.239 70.4775 92.3678C70.4775 93.6275 70.9815 100.026 71.6317 106.668C72.2289 112.635 73.0859 120.117 73.7737 121.892C74.4288 123.57 80.4696 131.748 88.929 143.118C93.3745 149.088 97.9609 155.26 98.5431 156.32C98.1425 160.317 94.6272 208.611 93.5408 223.575C93.5206 223.667 93.5301 223.762 93.5678 223.848C93.6056 223.933 93.6697 224.004 93.7508 224.051C93.8047 224.082 93.8645 224.101 93.9264 224.107C94.0266 224.233 94.1538 224.335 94.2986 224.405C94.4435 224.475 94.6023 224.512 94.7632 224.513C94.9094 224.512 95.0541 224.484 95.189 224.428C95.324 224.372 95.4466 224.289 95.5499 224.186C95.6531 224.083 95.7349 223.96 95.7906 223.825C95.8463 223.69 95.8749 223.545 95.8746 223.399C95.8743 223.249 95.8434 223.101 95.784 222.964C95.7246 222.826 95.6379 222.703 95.5291 222.6L113.391 183.585C113.489 183.62 113.592 183.642 113.696 183.648C113.93 183.643 114.157 183.562 114.341 183.417L157.037 222.392C156.975 222.557 156.955 222.735 156.978 222.909C157.001 223.084 157.067 223.251 157.17 223.394C157.274 223.536 157.412 223.651 157.57 223.729C157.729 223.806 157.905 223.843 158.081 223.835C158.167 223.829 158.251 223.813 158.332 223.787C158.384 223.889 158.462 223.975 158.558 224.036C158.655 224.099 158.766 224.135 158.88 224.14H158.908C158.998 224.137 159.086 224.116 159.168 224.078C159.25 224.04 159.324 223.986 159.385 223.92C159.445 223.853 159.492 223.776 159.523 223.691C159.553 223.607 159.567 223.517 159.563 223.427C158.694 202.284 157.102 161.779 157.28 159.828C157.469 157.476 160.853 146.46 167.423 130.372ZM154.802 159.451C154.807 159.658 154.872 159.859 154.988 160.031L138.446 167.34C138.302 167.215 138.129 167.128 137.942 167.088L141.351 141.326C141.43 141.31 141.507 141.284 141.579 141.248L155.231 158.593C155.098 158.693 154.99 158.823 154.915 158.972C154.841 159.121 154.802 159.285 154.802 159.451ZM113.675 181.451C113.589 181.457 113.504 181.473 113.423 181.501L100.349 157.08C100.567 156.92 100.716 156.684 100.767 156.419L124.934 155.847C125.002 156.045 125.125 156.22 125.287 156.351L113.786 181.477C113.749 181.466 113.712 181.457 113.675 181.451ZM78.586 83.1512C78.8176 83.1509 79.0432 83.0777 79.2309 82.942C79.4186 82.8064 79.5588 82.6151 79.6317 82.3953L95.4524 85.7267V85.7493C95.4543 85.9092 95.4913 86.0666 95.5609 86.2105L86.0766 93.0155C85.8785 92.8353 85.6212 92.734 85.3534 92.7307C85.162 92.7271 84.973 92.774 84.8055 92.8666C84.638 92.9592 84.4978 93.0942 84.399 93.2582C84.3002 93.4222 84.2464 93.6093 84.2428 93.8006C84.2393 93.992 84.2862 94.181 84.3789 94.3485L73.6106 101.979C73.4675 101.805 73.2738 101.68 73.0564 101.621L78.4163 83.1264C78.4723 83.1383 78.5289 83.1468 78.586 83.1518V83.1512ZM91.8615 73.9305C91.8565 73.7437 91.8036 73.5613 91.7079 73.4008C93.365 73.0635 94.9904 72.5854 96.5663 71.9719C100.85 70.2582 103.018 70.1247 104.275 70.6488L105.46 71.6064C105.589 71.7872 105.706 71.9766 105.81 72.1733C106.293 73.0705 106.682 77.768 104.57 82.4302C104.44 82.3786 104.302 82.3513 104.162 82.3495C103.877 82.3518 103.604 82.4627 103.399 82.6597C103.194 82.8567 103.072 83.1247 103.058 83.4088L97.5139 85.1729C97.4191 85.008 97.2831 84.8707 97.1192 84.7744C96.9553 84.678 96.7691 84.626 96.579 84.6233C96.5241 84.6296 96.47 84.6414 96.4176 84.6587L91.4304 74.7876C91.5625 74.6869 91.67 74.5574 91.7447 74.4089C91.8194 74.2605 91.8593 74.097 91.8615 73.9309V73.9305ZM109.436 67.0876C109.546 67.3437 109.752 67.547 110.009 67.6547C110.266 67.7624 110.555 67.766 110.814 67.6649C110.836 67.9471 110.865 68.2369 110.865 68.5123C110.865 69.1421 110.865 70.1906 110.89 71.5363C110.89 72.4309 110.911 73.5171 110.92 74.7319C110.89 74.7319 110.865 74.7141 110.83 74.7141C110.644 74.7183 110.463 74.7694 110.303 74.8624L107.312 72.4483C107.25 72.1286 107.15 71.8173 107.015 71.5208C106.234 70.059 105.112 69.2527 103.502 69.0633C103.505 69.0493 103.505 69.035 103.502 69.021C103.496 68.9621 103.484 68.904 103.467 68.8472L109.436 67.0876ZM128.905 70.1393C128.893 70.185 128.882 70.2313 128.875 70.2781C128.877 70.4557 128.923 70.6301 129.009 70.786C129.094 70.9418 129.216 71.0745 129.364 71.1725L123.109 81.8173C122.921 81.6611 122.686 81.5724 122.441 81.5654C122.335 81.5715 122.229 81.5936 122.129 81.6309L112.606 66.9495C112.776 66.8604 112.919 66.7279 113.022 66.5656C113.125 66.4032 113.183 66.2167 113.19 66.0247L128.905 70.1393ZM166.579 85.1494C166.607 85.3293 166.681 85.4991 166.793 85.6423C166.905 85.786 167.051 85.8998 167.217 85.9735L164.675 93.4354C164.393 93.4501 164.127 93.572 163.932 93.7762C163.737 93.9805 163.627 94.2516 163.625 94.534C163.631 94.6417 163.653 94.7479 163.69 94.8491L145.952 104.733C145.862 104.577 145.732 104.446 145.577 104.355L154.647 86.823C154.7 86.8396 154.755 86.8506 154.81 86.8558C155.076 86.8539 155.332 86.7562 155.531 86.5807C155.73 86.4052 155.859 86.1638 155.894 85.9008L166.579 85.1494ZM169.697 109.06C169.729 109.06 169.754 109.045 169.782 109.045C169.576 114.289 168.995 119.782 167.767 124.724C167.669 124.688 167.567 124.665 167.462 124.659C167.272 124.66 167.085 124.712 166.921 124.809C166.755 124.905 166.619 125.044 166.525 125.21L142.477 117.608C142.477 117.581 142.494 117.558 142.494 117.528C142.494 117.497 142.477 117.47 142.477 117.439L169.13 108.871C169.297 108.986 169.493 109.052 169.695 109.06L169.697 109.06ZM139.966 140.284C139.968 140.442 140.005 140.597 140.073 140.74L126.844 154.275L137.335 132.922H137.355L140.459 139.384C140.31 139.482 140.186 139.615 140.1 139.772C140.014 139.929 139.968 140.105 139.965 140.284L139.966 140.284ZM89.89 120.809L108.727 119.715C108.778 119.933 108.894 120.129 109.06 120.279C109.226 120.428 109.433 120.524 109.655 120.552L124.452 153.852L89.6514 121.295C89.772 121.157 89.8542 120.989 89.89 120.809ZM95.8642 86.5919C96.0243 86.7299 96.2209 86.8187 96.4303 86.8476C96.6397 86.8764 96.8529 86.8442 97.0444 86.7546C97.2359 86.665 97.3973 86.5221 97.5094 86.3428C97.6215 86.1636 97.6793 85.9558 97.676 85.7445C97.676 85.714 97.6633 85.6889 97.6633 85.6612L103.139 83.9123C103.227 84.0896 103.358 84.2415 103.521 84.3534C100.391 89.3453 94.7132 92.3018 87.012 92.9642L95.8642 86.5919ZM129.985 71.3907H130.015C130.002 71.7261 129.982 72.0636 129.951 72.3987C129.815 74.0823 128.913 82.4789 127.683 90.1879L123.293 83.4192C123.468 83.2204 123.566 82.9655 123.569 82.7008C123.567 82.5445 123.533 82.3903 123.47 82.2472L129.844 71.3681C129.891 71.3797 129.939 71.3873 129.987 71.3907H129.985ZM138.553 86.2038C138.589 86.2038 138.614 86.186 138.647 86.1826L142.535 103.952C142.475 103.982 142.42 104.019 142.368 104.062L129.222 92.1124C129.282 91.9759 129.312 91.828 129.31 91.6789C129.307 91.5694 129.285 91.4612 129.246 91.3588L137.716 85.8021C137.817 85.9239 137.943 86.0227 138.086 86.0918C138.228 86.161 138.384 86.1988 138.542 86.2029L138.553 86.2038ZM125.995 154.371C125.762 154.375 125.538 154.456 125.355 154.6L110.186 120.501C110.394 120.412 110.57 120.261 110.69 120.07L136.499 131.715C136.486 131.76 136.476 131.805 136.468 131.851C136.47 132.015 136.509 132.176 136.582 132.322C136.654 132.469 136.758 132.598 136.887 132.699L126.214 154.416C126.14 154.393 126.063 154.378 125.985 154.371H125.995ZM110.835 76.9426C110.875 76.9426 110.905 76.9248 110.943 76.9248C110.978 83.3711 110.943 92.0804 110.505 97.0121L105.77 85.3998C105.959 85.3016 106.116 85.15 106.221 84.9637C106.325 84.7775 106.373 84.5647 106.358 84.3516C106.343 84.1386 106.266 83.9346 106.136 83.7648C106.006 83.5951 105.83 83.4669 105.628 83.3963C105.659 83.341 105.681 83.2829 105.711 83.2249L110.546 76.8845C110.636 76.917 110.73 76.9366 110.825 76.9426H110.835ZM122.571 83.7854C122.683 83.7797 122.792 83.7566 122.897 83.717L127.512 90.827C127.382 90.9281 127.277 91.0572 127.203 91.2047C127.13 91.3521 127.091 91.5142 127.089 91.6789C127.091 91.8086 127.118 91.9367 127.167 92.0568L112.778 100.568C112.771 100.555 112.762 100.542 112.752 100.53L122.571 83.7854ZM136.683 131.244L110.888 119.597C110.899 119.554 110.907 119.511 110.913 119.468C110.913 119.413 110.888 119.367 110.882 119.312L122.271 115.723C122.473 115.908 122.736 116.011 123.009 116.013C123.136 116.01 123.261 115.985 123.38 115.94C126.131 117.825 128.696 119.969 131.038 122.343C134.531 125.942 136.313 129.034 137.159 130.826C136.961 130.916 136.793 131.061 136.675 131.244H136.683ZM99.22 103.239C99.2491 103.147 99.2668 103.051 99.2727 102.954C99.2712 102.781 99.2284 102.611 99.1477 102.457C99.0671 102.304 98.951 102.172 98.8092 102.072L105.097 85.5106C105.143 85.5233 105.19 85.5326 105.238 85.5383H105.278L110.384 98.0705C110.255 99.1969 110.092 100.064 109.895 100.495C108.812 102.851 105.062 104.381 101.536 103.905C101.241 103.864 100.972 103.776 100.687 103.71C100.198 103.557 99.7165 103.4 99.22 103.239ZM109.323 103.254C109.365 103.407 109.44 103.55 109.542 103.671C109.645 103.792 109.772 103.89 109.916 103.957L109.187 106.797C107.829 106.238 106.415 105.688 104.944 105.147C106.534 104.88 108.037 104.233 109.324 103.261L109.323 103.254ZM110.406 104.061C110.597 104.049 110.781 103.99 110.943 103.889L120.149 112.236C116.776 110.249 113.27 108.497 109.656 106.994L110.406 104.061ZM123.007 113.781C122.907 113.786 122.81 113.807 122.716 113.841L122.568 113.743L113.36 105.394C114.205 105.882 115.113 106.25 116.059 106.487C117.047 106.741 118.063 106.87 119.083 106.869C121.165 106.869 123.221 106.317 124.645 105.104L123.162 113.824C123.11 113.809 123.057 113.798 123.003 113.789L123.007 113.781ZM113.03 101.26C113.023 101.18 113.006 101.101 112.979 101.026L127.273 92.571C126.517 96.9028 125.665 100.706 124.788 102.586C124.653 102.474 124.494 102.397 124.323 102.361C124.152 102.325 123.975 102.331 123.807 102.379C123.639 102.426 123.485 102.514 123.358 102.634C123.231 102.755 123.136 102.904 123.08 103.069L113.03 101.26ZM126.615 104.392L141.927 105.194C141.962 105.345 142.028 105.487 142.122 105.611C142.215 105.734 142.333 105.837 142.469 105.912C142.249 106.383 141.967 106.823 141.631 107.22C139.923 109.039 135.632 110.42 131.67 109.475C129.755 109.019 127.338 107.847 126.043 104.939C126.297 104.836 126.503 104.641 126.62 104.392H126.615ZM141.932 104.689L126.723 103.895C126.716 103.701 126.659 103.512 126.557 103.347C126.455 103.183 126.311 103.047 126.141 102.955C127.045 100.838 127.905 96.975 128.661 92.686C128.752 92.6403 128.837 92.5818 128.913 92.5123L142.034 104.434C141.991 104.515 141.958 104.6 141.935 104.689L141.932 104.689ZM123.031 103.573C123.06 103.854 123.2 104.113 123.419 104.293C121.655 105.596 118.802 105.79 116.396 105.17C114.697 104.731 112.941 103.791 112.046 102.355C112.231 102.335 112.407 102.269 112.559 102.163C112.711 102.057 112.833 101.914 112.915 101.747L123.031 103.573ZM104.579 85.3049L104.621 85.3352L98.3461 101.881C98.2941 101.866 98.2411 101.855 98.1874 101.848L93.5781 94.5391C93.699 94.4367 93.7963 94.3094 93.8633 94.1658C93.9303 94.0222 93.9654 93.8658 93.9662 93.7074C93.9615 93.4902 93.8913 93.2794 93.7648 93.1028C99.4214 91.352 102.698 88.2121 104.58 85.3066L104.579 85.3049ZM92.8527 94.8256C92.9455 94.8198 93.0371 94.802 93.1252 94.7726L97.6561 101.978C97.533 102.041 97.4228 102.126 97.3311 102.229C95.1713 100.677 93.6012 98.1519 92.7949 94.8281C92.8165 94.8171 92.8347 94.8273 92.8542 94.8273L92.8527 94.8256ZM98.5939 104.497C99.2568 104.779 99.9455 104.995 100.65 105.143C109.831 108.106 116.746 111.583 121.899 114.958C121.908 115.07 121.93 115.18 121.967 115.286L110.688 118.842C110.589 118.694 110.455 118.572 110.299 118.487C110.143 118.403 109.968 118.357 109.791 118.354C109.631 118.357 109.474 118.393 109.33 118.46L98.5336 104.693C98.5593 104.63 98.5799 104.565 98.595 104.499L98.5939 104.497ZM132.112 121.487C129.845 119.17 127.368 117.069 124.713 115.209L140.294 117.563C140.3 117.74 140.349 117.914 140.437 118.068C140.525 118.222 140.649 118.352 140.799 118.448L137.978 129.384C136.97 127.459 135.188 124.685 132.099 121.484L132.112 121.487ZM141.321 116.447C141.126 116.461 140.938 116.527 140.776 116.638C140.615 116.748 140.485 116.9 140.401 117.077L124.067 114.61C123.999 114.373 123.854 114.166 123.654 114.022L125.027 105.832C125.643 107.082 126.531 108.178 127.628 109.038C128.724 109.897 130 110.499 131.36 110.799C132.335 111.028 133.333 111.141 134.334 111.137C137.584 111.137 140.885 110.015 142.635 108.148C142.918 107.835 143.165 107.492 143.372 107.125C143.448 107.225 143.542 107.31 143.648 107.377L141.321 116.447ZM146.107 105.233L163.683 95.4274C160.909 102.965 157.404 110.511 151.189 109.608C148.711 109.247 146.974 108.363 146.016 106.977C145.864 106.727 145.737 106.461 145.638 106.186C145.784 106.087 145.903 105.953 145.985 105.797C146.068 105.642 146.112 105.469 146.115 105.293C146.116 105.269 146.112 105.246 146.104 105.223L146.107 105.233ZM122.014 83.7263L112.334 100.245C112.204 100.195 112.066 100.168 111.926 100.165C111.881 100.17 111.836 100.179 111.792 100.192L111.54 99.5901C112.359 95.0012 112.369 83.0183 112.248 71.5344C112.248 70.1963 112.223 69.1479 112.223 68.5231C112.219 68.0734 112.191 67.6242 112.14 67.1774L121.691 81.8944C121.555 82.0195 121.452 82.1768 121.392 82.3518C121.333 82.5268 121.318 82.714 121.349 82.8962C121.381 83.0785 121.457 83.25 121.572 83.395C121.687 83.54 121.836 83.6539 122.006 83.7263H122.014ZM110.084 76.6703L106.448 81.4407C107.574 78.2076 107.708 75.1406 107.456 73.233L109.938 75.249C109.805 75.4269 109.731 75.6416 109.726 75.8634C109.73 76.011 109.764 76.1562 109.825 76.2907C109.886 76.4252 109.973 76.5464 110.081 76.6473L110.084 76.6703ZM84.7096 94.7364C84.893 94.879 85.1175 94.9586 85.3498 94.9633C85.5397 94.9615 85.726 94.9101 85.8899 94.8142C86.0539 94.7183 86.19 94.5812 86.2847 94.4165C87.9231 94.3173 89.5524 94.1034 91.1609 93.7763C92.096 99.0431 94.4166 101.916 96.7049 103.481C96.6445 103.554 96.5922 103.634 96.5487 103.718L73.8837 102.39L84.7096 94.7364ZM96.425 104.217C96.4246 104.363 96.453 104.508 96.5087 104.643C96.5644 104.778 96.6463 104.9 96.7496 105.004C96.8529 105.107 96.9755 105.189 97.1106 105.244C97.2456 105.3 97.3903 105.329 97.5364 105.328C97.7795 105.322 98.0132 105.233 98.199 105.076L108.872 118.685L73.8812 102.894L96.425 104.217ZM138.311 130.052L141.255 118.612C141.296 118.625 141.337 118.635 141.38 118.64C141.571 118.639 141.758 118.587 141.923 118.49C142.088 118.394 142.225 118.255 142.319 118.089L166.142 125.619L138.854 131.318C138.734 130.994 138.56 130.574 138.311 130.052H138.311ZM168.583 107.946C168.588 108.138 168.645 108.324 168.746 108.486L142.325 116.968C142.21 116.765 142.033 116.603 141.82 116.507L144.134 107.546C144.174 107.546 144.21 107.568 144.244 107.568C144.414 107.565 144.58 107.523 144.731 107.445C144.788 107.548 144.839 107.654 144.906 107.755C146.08 109.463 148.135 110.545 151.002 110.963C151.42 111.026 151.841 111.058 152.264 111.059C158.741 111.059 162.282 103.322 165.06 95.6865L169.316 106.913C169.103 106.99 168.918 107.131 168.788 107.316C168.658 107.501 168.586 107.72 168.583 107.946ZM154.17 86.634L145.175 104.022C145.166 103.434 145.222 102.847 145.342 102.271C147.704 94.7107 149.57 82.7859 150.128 79.0285C150.242 78.9805 150.345 78.9112 150.433 78.8245L154.13 84.8739C153.992 84.9761 153.881 85.1099 153.806 85.264C153.731 85.4185 153.694 85.5886 153.698 85.7603C153.703 85.9319 153.748 86.0999 153.831 86.2504C153.915 86.3997 154.033 86.5272 154.175 86.6228L154.17 86.634ZM148.813 78.6815C148.133 83.5603 146.197 94.9683 144.027 101.943L144.01 101.961C144.013 101.98 144.013 101.999 144.01 102.019C143.801 102.699 143.584 103.324 143.369 103.906C143.261 103.868 143.148 103.846 143.033 103.838L139.135 86.0211C139.298 85.9252 139.433 85.7891 139.528 85.6259C139.623 85.4627 139.674 85.2778 139.677 85.089C139.672 84.92 139.632 84.754 139.559 84.6017L148.745 78.5736C148.764 78.6115 148.787 78.6476 148.813 78.6815ZM137.433 85.0949C137.442 85.1807 137.459 85.2653 137.487 85.347L128.991 90.9188C128.981 90.9029 128.967 90.8893 128.951 90.8787C130.319 82.4817 131.247 73.2383 131.31 72.5604C131.36 72.3725 131.424 72.1884 131.5 72.0096L137.954 84.1712C137.796 84.269 137.666 84.4051 137.575 84.5668C137.483 84.7284 137.434 84.9105 137.432 85.0962L137.433 85.0949ZM108.745 119.183C108.743 119.192 108.743 119.2 108.745 119.208L89.9027 120.305C89.8491 120.063 89.715 119.846 89.5224 119.69C89.3297 119.534 89.0899 119.448 88.842 119.445C88.6563 119.449 88.4748 119.502 88.3153 119.597L73.7517 103.39L108.745 119.183ZM124.982 155.031C124.942 155.132 124.918 155.238 124.909 155.346L100.77 155.908C100.71 155.672 100.574 155.461 100.383 155.31C100.191 155.159 99.9544 155.076 99.7104 155.074C99.6905 155.077 99.6711 155.082 99.6524 155.089L89.4953 121.824L124.982 155.031ZM126.927 154.918L140.397 141.126C140.529 141.233 140.685 141.308 140.851 141.343L137.446 167.092C137.346 167.114 137.249 167.15 137.159 167.198L126.844 156.178C127.006 155.984 127.095 155.739 127.096 155.487C127.092 155.284 127.031 155.087 126.92 154.918H126.927ZM141.088 139.162C141.038 139.17 140.988 139.18 140.939 139.193L137.914 132.892C137.972 132.878 138.027 132.858 138.081 132.832C138.198 132.919 138.34 132.966 138.486 132.965C138.548 132.966 138.609 132.957 138.668 132.94C138.755 132.917 138.836 132.876 138.907 132.821C138.978 132.766 139.037 132.698 139.082 132.619C139.127 132.541 139.155 132.455 139.166 132.365C139.177 132.276 139.17 132.185 139.144 132.099C139.12 131.996 139.089 131.895 139.054 131.796L166.429 126.078C166.426 126.105 166.426 126.132 166.429 126.159L141.984 139.669C141.888 139.516 141.755 139.39 141.598 139.303C141.44 139.214 141.262 139.166 141.081 139.162H141.088ZM169.856 106.865H169.827L165.473 95.369C165.592 95.2668 165.687 95.1401 165.752 94.9976C165.819 94.8553 165.854 94.6999 165.854 94.5425C165.853 94.3276 165.789 94.1176 165.67 93.9385C165.551 93.7594 165.382 93.619 165.185 93.5345L167.733 86.0627C167.927 86.0458 168.113 85.9779 168.272 85.8658C168.496 86.4599 168.675 87.0699 168.809 87.6905C169.116 89.3059 170.039 97.443 169.85 106.865H169.856ZM153.78 75.5916C155.982 74.8232 159.461 74.6416 162.043 76.6528C163.919 78.3537 166.019 81.118 167.408 83.8827C167.217 83.924 167.042 84.0161 166.9 84.1492C166.757 84.2824 166.654 84.4516 166.6 84.6388L155.851 85.3947C155.779 85.1749 155.64 84.9835 155.453 84.8477C155.266 84.7119 155.04 84.6388 154.809 84.6388C154.736 84.6467 154.663 84.6618 154.592 84.6839L150.728 78.3588C150.767 78.2547 150.788 78.1447 150.791 78.0336C150.788 77.9259 150.767 77.8193 150.728 77.7188C151.332 76.8318 152.396 76.0706 153.774 75.5916H153.78ZM133.752 69.4705C136.148 68.0846 139.898 67.7066 142.477 68.6064C145.85 69.7756 149.191 72.9432 148.94 77.1947C148.819 77.2996 148.723 77.4298 148.658 77.576C148.594 77.722 148.561 77.8799 148.562 78.0393V78.087L139.195 84.2308C139.008 84.0791 138.775 83.9948 138.535 83.9914C138.497 83.9914 138.457 84.0113 138.419 84.0138L131.743 71.4138C132.234 70.6035 132.926 69.9339 133.752 69.4705ZM114.6 61.8398C116.437 60.6025 118.986 60.328 122.181 61.036C127.977 62.3162 129.653 65.6805 129.968 69.1631C129.79 69.1678 129.617 69.2163 129.462 69.3042C129.308 69.3922 129.178 69.5169 129.083 69.6673L113.061 65.4839C112.979 65.3295 112.861 65.1971 112.717 65.098C112.573 64.9989 112.408 64.9359 112.234 64.9144C112.691 63.6732 113.519 62.603 114.606 61.8499L114.6 61.8398ZM104.296 59.3187C107.85 60.0748 109.709 62.7209 110.452 65.5006C110.163 65.501 109.885 65.6137 109.678 65.8148C109.47 66.016 109.348 66.2899 109.339 66.5789L103.29 68.3657C103.19 68.2234 103.057 68.107 102.903 68.026C102.749 67.9449 102.578 67.9016 102.403 67.8996C102.2 67.9036 102.002 67.9667 101.834 68.0812L95.0299 63.142C95.1016 63.0205 95.1482 62.8857 95.1668 62.7459C95.1855 62.606 95.1759 62.4638 95.1385 62.3277C95.1012 62.1916 95.0369 62.0644 94.9495 61.9536C94.862 61.8428 94.7532 61.7507 94.6295 61.6828C96.5243 59.9918 100.471 58.5302 104.301 59.3367L104.296 59.3187ZM93.3856 63.4778C93.574 63.6355 93.8104 63.7244 94.0561 63.7299C94.2816 63.7231 94.4997 63.6475 94.681 63.5132L101.46 68.4373C101.346 68.6057 101.282 68.8033 101.276 69.0068C101.282 69.0468 101.29 69.0865 101.301 69.1254C99.8551 69.3421 98.1465 69.8436 96.0498 70.6827C94.5718 71.2576 93.0482 71.7077 91.495 72.0282C91.8352 70.0679 92.6165 65.6904 93.39 63.4956L93.3856 63.4778ZM85.3396 74.4296C86.7635 74.2404 88.21 74.0313 89.6565 73.7819C89.6419 73.8245 89.6318 73.8684 89.6262 73.9131C89.6259 74.0593 89.6544 74.2042 89.7103 74.3394C89.7662 74.4745 89.8483 74.5973 89.9518 74.7006C90.0554 74.8039 90.1784 74.8857 90.3136 74.9412C90.4489 74.9968 90.5939 75.025 90.7402 75.0243C90.8137 75.0177 90.8863 75.0035 90.9569 74.9819L95.9314 84.835C95.7847 84.9313 95.6657 85.0642 95.5861 85.2205L79.6643 81.8637C79.6301 81.5998 79.5016 81.3572 79.3024 81.1807C79.1033 81.0042 78.847 80.9058 78.5809 80.9036C78.484 80.9116 78.3884 80.9312 78.2962 80.9619L76.3607 77.3076C76.5497 77.1655 76.6861 76.9647 76.7486 76.7367C76.8111 76.5086 76.7961 76.2663 76.706 76.0477C79.5764 75.2412 82.4995 74.8255 85.3447 74.4476L85.3396 74.4296ZM74.8741 77.2218C74.9771 77.3302 75.101 77.4164 75.2384 77.4754C75.3758 77.5343 75.5237 77.5647 75.6732 77.5646C75.7522 77.5591 75.8301 77.5429 75.9048 77.5165L77.8528 81.1934C77.7335 81.2957 77.6375 81.4224 77.5715 81.5649C77.5054 81.7075 77.4707 81.8625 77.4697 82.0196C77.4715 82.1937 77.5155 82.3647 77.5981 82.5179C77.6806 82.6711 77.7992 82.8019 77.9436 82.8991L72.5329 101.601H72.5181C72.0999 97.0447 71.8251 93.3127 71.8251 92.3954C71.8251 89.2631 72.5759 80.6267 74.8794 77.2398L74.8741 77.2218ZM72.9715 106.542C72.8757 105.597 72.7874 104.665 72.6994 103.747C72.7244 103.747 72.7397 103.76 72.7598 103.76C72.9456 103.756 73.1271 103.704 73.2865 103.609L87.938 119.9C87.8306 120.049 87.7614 120.222 87.7365 120.404L76.2374 121.101C76.1457 120.914 76.0041 120.757 75.8283 120.646C75.6525 120.535 75.4495 120.476 75.2417 120.473C75.0868 120.474 74.9339 120.508 74.7928 120.572C74.3191 118.483 73.6742 113.543 72.9759 106.56L72.9715 106.542ZM90.0018 142.309C84.4937 134.905 77.8352 125.957 75.6982 122.582C75.8933 122.495 76.0592 122.354 76.1762 122.175C76.2932 121.996 76.3564 121.788 76.3583 121.574L87.7895 120.909C87.8639 121.125 88.0035 121.312 88.189 121.445C88.3746 121.578 88.5968 121.65 88.825 121.651C88.853 121.651 88.878 121.633 88.9083 121.633L98.9429 154.486C97.7965 152.826 95.3166 149.462 90.0069 142.328L90.0018 142.309ZM95.0617 222.367C95.0338 222.37 95.0057 222.364 94.9814 222.35C96.521 201.143 99.2651 163.607 99.7994 157.272C99.8291 157.268 99.8586 157.262 99.8877 157.254L112.972 181.699C112.844 181.801 112.74 181.929 112.669 182.076C112.597 182.222 112.558 182.383 112.556 182.546C112.558 182.698 112.591 182.849 112.653 182.988C112.715 183.127 112.804 183.252 112.916 183.355L95.0617 222.367ZM114.65 183.055C114.782 182.814 114.816 182.531 114.744 182.266C114.673 182 114.502 181.773 114.267 181.631L125.748 156.536C125.823 156.56 125.901 156.576 125.98 156.583C126.138 156.583 126.294 156.547 126.436 156.477L136.768 167.525C136.636 167.703 136.562 167.918 136.556 168.139C136.556 168.285 136.585 168.43 136.64 168.565C136.696 168.7 136.778 168.823 136.881 168.926C136.984 169.029 137.107 169.111 137.242 169.167C137.377 169.223 137.522 169.251 137.668 169.251C137.696 169.247 137.725 169.241 137.752 169.233L157.499 221.786C157.408 221.83 157.323 221.887 157.248 221.955L114.65 183.055ZM158.09 221.63C158.087 221.632 158.084 221.633 158.081 221.633C158.077 221.633 158.073 221.632 158.07 221.63H157.988L138.24 169.075C138.467 168.953 138.64 168.751 138.729 168.509C138.817 168.267 138.813 168.001 138.719 167.762L155.378 160.391C155.532 160.48 155.705 160.53 155.883 160.537C155.894 167.356 157.692 211.795 158.095 221.646L158.09 221.63ZM156.123 158.378C156.054 158.356 155.983 158.342 155.911 158.335C155.837 158.342 155.764 158.356 155.694 158.378L141.958 140.914C142.103 140.73 142.183 140.505 142.187 140.271C142.187 140.229 142.167 140.191 142.164 140.153L166.714 126.585C166.849 126.708 167.013 126.794 167.191 126.837C166.875 127.88 166.531 128.896 166.147 129.861C160.3 144.192 157.016 154.356 156.122 158.383L156.123 158.378Z" fill="#00FFFF"/>
<path d="M216.445 72.3325L130.188 20.3189C128.529 19.3304 126.635 18.8086 124.704 18.8086C122.773 18.8086 120.879 19.3304 119.22 20.3189L32.9541 72.3275C29.5799 74.3587 27.4756 78.1613 27.4756 82.2439V186.276C27.4756 190.361 29.5799 194.157 32.9541 196.191L82.5262 226.07C82.7279 226.196 82.9271 227.9 83.1489 227.9C83.5895 227.9 84.0308 226.012 84.2675 225.586C84.4394 225.282 84.4871 224.922 84.4008 224.583C84.3144 224.245 84.1006 223.952 83.8039 223.767L34.2326 193.879C32.9391 193.078 31.8732 191.958 31.1371 190.627C30.401 189.295 30.0194 187.797 30.029 186.276V82.2439C30.0202 80.7224 30.4021 79.2241 31.1381 77.8924C31.8741 76.5608 32.9396 75.4403 34.2326 74.6384L120.5 22.6273C121.771 21.8691 123.224 21.4689 124.704 21.4689C126.184 21.4689 127.636 21.8691 128.907 22.6273L215.163 74.6434C216.456 75.4441 217.521 76.5637 218.257 77.8947C218.992 79.2256 219.373 80.7233 219.363 82.2439V186.276C219.373 187.798 218.991 189.298 218.253 190.63C217.516 191.962 216.448 193.082 215.152 193.881L169.339 221.516C169.041 221.699 168.825 221.991 168.738 222.33C168.651 222.669 168.699 223.029 168.873 223.333C169.217 223.971 169.799 226.138 170.411 225.775L216.445 196.192C218.131 195.147 219.521 193.687 220.481 191.95C221.441 190.214 221.938 188.26 221.926 186.276V82.2439C221.926 78.1638 219.823 74.3612 216.445 72.3325Z" fill="url(#paint0_linear_242_94476)"/>
<path d="M218.39 71.2969L130.306 18.1799C128.611 17.1712 126.676 16.6387 124.704 16.6387C122.732 16.6387 120.796 17.1712 119.102 18.1799L31.0045 71.2922C27.5545 73.3713 25.4102 77.2521 25.4102 81.4203V187.668C25.4102 191.836 27.5545 195.717 31.0045 197.788L81.6159 228.309C81.8134 228.429 82.0401 228.493 82.2712 228.493C82.5024 228.491 82.7289 228.427 82.9267 228.307C83.1245 228.187 83.2863 228.016 83.3951 227.812C83.5697 227.5 83.6179 227.132 83.5297 226.786C83.4416 226.439 83.2239 226.139 82.9214 225.948L32.3097 195.429C30.9914 194.61 29.9053 193.466 29.1552 192.107C28.4052 190.749 28.0162 189.22 28.0257 187.668V81.4203C28.0158 79.8677 28.4045 78.3385 29.1545 76.9791C29.9046 75.6197 30.991 74.4755 32.3097 73.6561L120.412 20.5387C121.71 19.7642 123.193 19.3553 124.704 19.3553C126.215 19.3553 127.698 19.7642 128.996 20.5387L217.094 73.6561C218.413 74.4754 219.499 75.6196 220.249 76.979C220.999 78.3385 221.388 79.8677 221.378 81.4203V187.668C221.39 189.221 221.002 190.75 220.251 192.109C219.501 193.469 218.414 194.612 217.094 195.429L170.296 223.654C169.991 223.841 169.77 224.14 169.681 224.487C169.591 224.834 169.64 225.202 169.816 225.513C169.897 225.666 170.007 225.802 170.14 225.913C170.275 226.022 170.431 226.102 170.598 226.15C170.764 226.197 170.939 226.21 171.111 226.187C171.284 226.164 171.45 226.106 171.6 226.017L218.398 197.793C221.858 195.717 224 191.836 224 187.67V81.4203C223.992 77.2546 221.85 73.373 218.39 71.2969Z" fill="url(#paint1_linear_242_94476)"/>
<defs>
<linearGradient id="paint0_linear_242_94476" x1="124.701" y1="55.4205" x2="124.701" y2="194.675" gradientUnits="userSpaceOnUse">
<stop stop-color="#004E54"/>
<stop offset="0.3" stop-color="#00C6C1"/>
<stop offset="0.48" stop-color="#00FFFF"/>
<stop offset="0.7" stop-color="#00C6C1"/>
<stop offset="1" stop-color="#004E54"/>
</linearGradient>
<linearGradient id="paint1_linear_242_94476" x1="174.08" y1="74.8196" x2="81.0033" y2="187.402" gradientUnits="userSpaceOnUse">
<stop offset="0.48" stop-color="#00FFFF"/>
<stop offset="1" stop-color="#00C6C1"/>
</linearGradient>
</defs>
</svg>
