<svg width="250" height="250" viewBox="0 0 250 250" fill="none" xmlns="http://www.w3.org/2000/svg">
<path d="M245.319 118.569L189.55 22.3314C187.675 19.1235 184.27 17.1494 180.568 17.1494H68.9323C65.2308 17.1494 61.7761 19.1235 59.9501 22.3314L4.13214 118.569C2.25673 121.777 2.25673 125.774 4.13214 129.032L17.0132 151.29L53.9291 86.2924C55.3109 83.8248 57.9266 82.3442 60.7397 82.3442H143.603C146.416 82.3442 149.032 83.8741 150.414 86.2924L191.969 159.384C193.351 161.802 193.351 164.714 191.969 167.132L155.991 230.451H180.568C184.27 230.451 187.724 228.477 189.55 225.269L245.319 129.032C247.194 125.824 247.194 121.826 245.319 118.569Z" fill="url(#paint0_linear_242_93509)"/>
<path d="M180.374 158.751L144.346 97.2578C143.162 95.185 140.941 93.9512 138.572 93.9512H66.3687C63.9998 93.9512 61.7789 95.2343 60.5945 97.2578L24.567 158.751C23.3331 160.824 23.3331 163.44 24.567 165.512L35.622 184.414L55.3631 150.559C56.2021 149.177 57.6827 148.288 59.3113 148.288H108.22C109.849 148.288 111.329 149.127 112.168 150.559L136.598 192.41C137.437 193.841 137.437 195.568 136.598 196.999L117.103 230.312H138.572C140.941 230.312 143.162 229.029 144.346 227.006L180.374 165.512C181.607 163.44 181.607 160.824 180.374 158.751Z" fill="url(#paint1_linear_242_93509)"/>
<path d="M103.326 158.936H65.3738C64.14 158.936 63.0049 159.577 62.3633 160.663L43.4119 192.594C42.7703 193.68 42.7703 195.062 43.4119 196.147L62.314 228.128C62.9555 229.214 64.0907 229.855 65.3245 229.855H103.277C104.511 229.855 105.646 229.214 106.287 228.128L125.189 196.147C125.831 195.062 125.831 193.68 125.189 192.594L106.287 160.614C105.695 159.577 104.56 158.936 103.326 158.936Z" fill="url(#paint2_linear_242_93509)"/>
<defs>
<linearGradient id="paint0_linear_242_93509" x1="63.7496" y1="227.969" x2="182.651" y2="24.8816" gradientUnits="userSpaceOnUse">
<stop stop-color="#FFD802"/>
<stop offset="0.5306" stop-color="#FE5D49"/>
<stop offset="1" stop-color="#FF02F8"/>
</linearGradient>
<linearGradient id="paint1_linear_242_93509" x1="63.8725" y1="228.049" x2="182.774" y2="24.9611" gradientUnits="userSpaceOnUse">
<stop stop-color="#FFD802"/>
<stop offset="0.5026" stop-color="#FE5D49"/>
<stop offset="1" stop-color="#FF02F8"/>
</linearGradient>
<linearGradient id="paint2_linear_242_93509" x1="64.446" y1="228.376" x2="183.347" y2="25.2885" gradientUnits="userSpaceOnUse">
<stop stop-color="#FFD802"/>
<stop offset="0.5026" stop-color="#FE5D49"/>
<stop offset="1" stop-color="#FF02F8"/>
</linearGradient>
</defs>
</svg>
