<svg width="250" height="250" viewBox="0 0 250 250" fill="none" xmlns="http://www.w3.org/2000/svg">
<path d="M175.245 138.054C176.04 138.054 176.508 138.896 176.134 139.551L126.405 225.488C126.218 225.816 125.89 226.003 125.516 226.003H95.1547C94.3594 226.003 93.8916 225.161 94.2658 224.506L143.995 138.568C144.182 138.241 144.509 138.054 144.884 138.054H175.245ZM145.726 113.4C145.351 113.4 145.024 113.213 144.837 112.885L94.3126 25.497C93.9384 24.8421 94.4062 24 95.2015 24H125.563C125.937 24 126.264 24.1871 126.452 24.5146L176.976 111.903C177.35 112.558 176.882 113.4 176.087 113.4H145.726Z" fill="#E31337"/>
<path d="M151.713 25.497C151.339 24.8421 151.807 24 152.602 24H183.01C183.384 24 183.712 24.1871 183.899 24.5146L241.815 124.534C242.002 124.861 242.002 125.235 241.815 125.516L183.899 225.488C183.712 225.816 183.384 226.003 183.01 226.003H152.602C151.807 226.003 151.339 225.161 151.713 224.506L209.348 125.002L151.713 25.497ZM127.013 124.487C127.2 124.814 127.2 125.189 127.013 125.516L68.7694 225.488C68.3952 226.143 67.4128 226.143 67.0385 225.488L8.18722 125.516C8.00009 125.189 8.00009 124.814 8.18722 124.487L66.3836 24.5146C66.7578 23.8597 67.7402 23.8597 68.1145 24.5146L127.013 124.487Z" fill="#E31337"/>
</svg>
