<svg width="250" height="250" viewBox="0 0 250 250" fill="none" xmlns="http://www.w3.org/2000/svg">
<g clip-path="url(#clip0_242_94157)">
<path fill-rule="evenodd" clip-rule="evenodd" d="M249.996 124.994C249.996 194.03 194.032 249.994 124.996 249.994C55.9602 249.994 -0.00390625 194.03 -0.00390625 124.994C-0.00390625 55.9582 55.9602 -0.00585938 124.996 -0.00585938C194.032 -0.00585938 249.996 55.9582 249.996 124.994Z" fill="#527DB2"/>
<path fill-rule="evenodd" clip-rule="evenodd" d="M129.139 88.0576C115.12 88.0576 102.341 93.454 92.7573 102.274V57.2109H75.3574V185.868H92.7573V141.84C92.7573 121.779 109.078 105.457 129.139 105.457C149.201 105.457 165.522 121.779 165.522 141.84V185.868H182.922V141.84C182.922 112.185 158.796 88.0576 129.139 88.0576Z" fill="#FFFFFE"/>
</g>
<defs>
<clipPath id="clip0_242_94157">
<rect width="250" height="250" rx="125" fill="white"/>
</clipPath>
</defs>
</svg>
