<svg width="250" height="250" viewBox="0 0 250 250" fill="none" xmlns="http://www.w3.org/2000/svg">
<g clip-path="url(#clip0_242_94481)">
<path fill-rule="evenodd" clip-rule="evenodd" d="M178.414 22.3206C173.549 20.7023 168.676 19.0659 163.937 17.4474C158.003 15.2805 152.177 21.3676 152.456 29.3609L154.073 74.7042C154.208 79.7124 151.772 84.3069 147.986 86.2131C140.415 89.8635 132.701 93.3792 125.004 96.8948C117.278 93.4689 109.615 89.9055 102.014 86.2047C98.0939 84.3167 95.792 79.7131 95.9359 74.6958L97.5544 29.3615C97.8242 21.2334 91.9978 15.2811 86.0632 17.448C81.1902 19.0659 76.4607 20.828 71.5875 22.3206C67.6671 23.6693 64.7001 28.0031 64.2867 33.2901C62.938 51.1468 61.4543 69.0126 60.0963 86.7436C59.6917 91.7518 61.9844 96.3643 65.7788 98.3873C74.2935 102.856 73.4844 117.476 64.1603 120.857C59.9613 122.349 56.8505 126.539 56.4457 131.557L49.9542 213.297C49.5497 218.575 52.3819 223.449 57.255 225.345C63.1505 227.667 69.0545 229.965 74.967 232.241C82.4119 235.093 90.3873 229.544 90.6571 221.416C91.4662 196.914 92.4103 172.413 93.2275 147.777C93.3622 142.778 96.3379 138.444 100.528 136.816C108.773 133.58 116.892 130.325 125.003 126.8C133.113 130.19 141.224 133.57 149.477 136.816C153.667 138.444 156.643 142.778 156.778 147.786C157.587 172.287 158.531 196.789 159.348 221.425C159.618 229.535 167.593 234.948 175.03 232.241C180.982 229.949 186.934 227.647 192.742 225.345C197.48 223.448 200.447 218.575 200.043 213.297L193.564 131.538C193.15 126.53 190.183 122.34 185.849 120.848C176.516 117.602 175.707 102.847 184.231 98.3785C188.151 96.3464 190.309 91.608 189.905 86.7346C188.556 68.8688 187.063 51.003 185.714 33.2722C185.31 27.9942 182.333 23.5254 178.413 22.3026L178.414 22.3206Z" fill="#6309FF"/>
</g>
<defs>
<clipPath id="clip0_242_94481">
<rect width="216" height="216" fill="white" transform="translate(17 17)"/>
</clipPath>
</defs>
</svg>
