<svg width="250" height="250" viewBox="0 0 250 250" fill="none" xmlns="http://www.w3.org/2000/svg">
<rect width="250" height="250" rx="125" fill="white"/>
<path d="M104.749 198.133C156.324 198.133 198.134 156.323 198.134 104.748C198.134 53.1725 156.324 11.3623 104.749 11.3623C53.1734 11.3623 11.3633 53.1725 11.3633 104.748C11.3633 156.323 53.1734 198.133 104.749 198.133Z" fill="white"/>
<g clip-path="url(#clip0_242_94489)">
<path d="M234.398 76.8124L172.82 77.3417C171.384 77.3648 169.979 77.7569 168.739 78.4802C167.499 79.2036 166.466 80.2338 165.739 81.472L145.707 115.424C144.97 116.679 143.917 117.721 142.654 118.445C141.391 119.17 139.961 119.552 138.505 119.554H119.729C118.991 119.551 118.266 119.354 117.628 118.982C116.99 118.61 116.462 118.077 116.095 117.436C115.729 116.795 115.538 116.069 115.541 115.33C115.544 114.592 115.741 113.868 116.113 113.23L161.109 36.7485C161.482 36.1118 161.68 35.388 161.684 34.6501C161.687 33.9122 161.496 33.1865 161.129 32.5463C160.762 31.9062 160.232 31.3742 159.594 31.0043C158.956 30.6343 158.231 30.4395 157.493 30.4395H95.8843C94.4238 30.4394 92.9885 30.8203 91.7202 31.5445C90.4519 32.2687 89.3945 33.3112 88.6522 34.569L35.9704 124.137C35.5975 124.774 35.3993 125.498 35.3958 126.236C35.3923 126.973 35.5837 127.699 35.9506 128.339C36.3175 128.98 36.8469 129.512 37.4853 129.882C38.1237 130.252 38.8485 130.446 39.5863 130.446H59.0434C40.1083 136.974 23.7019 149.285 12.1407 165.639C11.694 166.268 11.4288 167.007 11.3739 167.776C11.3191 168.546 11.4768 169.315 11.8297 170.001C12.1827 170.686 12.7173 171.262 13.3752 171.664C14.0331 172.066 14.7889 172.28 15.56 172.281H76.8509C78.3073 172.273 79.7364 171.885 80.9969 171.156C82.2574 170.426 83.3055 169.38 84.0377 168.121L103.706 134.548C104.449 133.29 105.506 132.247 106.774 131.523C108.043 130.798 109.478 130.417 110.938 130.417H129.578C130.317 130.418 131.043 130.615 131.681 130.987C132.32 131.358 132.848 131.892 133.214 132.534C133.58 133.177 133.769 133.904 133.763 134.643C133.757 135.381 133.555 136.106 133.179 136.741L88.1984 213.253C87.8254 213.89 87.6271 214.614 87.6236 215.352C87.62 216.089 87.8114 216.815 88.1783 217.455C88.5452 218.096 89.0747 218.627 89.7132 218.997C90.3516 219.367 91.0764 219.562 91.8143 219.562H153.378C154.838 219.562 156.273 219.181 157.542 218.457C158.81 217.733 159.868 216.69 160.61 215.433L213.352 125.864C213.725 125.228 213.923 124.504 213.927 123.766C213.93 123.028 213.739 122.302 213.372 121.662C213.005 121.022 212.476 120.49 211.837 120.12C211.199 119.75 210.474 119.555 209.736 119.555H188.07C208.189 113.347 225.69 100.659 237.847 83.4695C238.3 82.8387 238.569 82.0951 238.625 81.321C238.681 80.5468 238.521 79.7723 238.164 79.0831C237.807 78.394 237.266 77.8171 236.601 77.4163C235.937 77.0156 235.174 76.8065 234.398 76.8124Z" fill="#2B59ED"/>
</g>
<defs>
<clipPath id="clip0_242_94489">
<rect width="227.273" height="227.273" fill="white" transform="translate(11.3633 11.3623)"/>
</clipPath>
</defs>
</svg>
