<svg width="250" height="250" viewBox="0 0 250 250" fill="none" xmlns="http://www.w3.org/2000/svg">
<g clip-path="url(#clip0_242_94716)">
<path d="M125 250.001C194.036 250.001 250 194.037 250 125.001C250 55.9654 194.036 0.000976562 125 0.000976562C55.9644 0.000976562 0 55.9654 0 125.001C0 194.037 55.9644 250.001 125 250.001Z" fill="#EDF0F4"/>
<path d="M124.854 206.509C170.074 206.509 206.732 169.898 206.732 124.735C206.732 79.5732 170.074 42.9619 124.854 42.9619C79.6344 42.9619 42.9766 79.5732 42.9766 124.735C42.9766 169.898 79.6344 206.509 124.854 206.509Z" fill="white"/>
<path fill-rule="evenodd" clip-rule="evenodd" d="M118.509 31.6441C78.5945 34.3525 44.3061 62.692 34.3112 101.235C27.6295 127.001 31.9935 154.153 46.3478 176.128C53.9475 187.762 64.859 198.303 76.6285 205.382C107.437 223.911 146.425 223.121 176.514 203.359C210.182 181.247 225.849 140.408 215.691 101.235C209 75.4355 190.971 53.304 166.879 41.316C158.426 37.1102 149.673 34.2483 140.466 32.6798C137.095 32.1059 125.607 31.12 123.954 31.263C123.608 31.2927 121.158 31.4642 118.509 31.6441ZM136.906 61.3065C147.272 63.416 157.736 68.644 164.87 75.2775C169.63 79.7045 169.476 79.1775 169.206 90.053L168.977 99.3435L167.221 98.0005C165.817 96.9255 165.378 96.2615 165.028 94.676C163.827 89.246 160.519 83.6925 155.715 79.0435C151.413 74.88 146.237 72.4435 137.146 70.3025C128.091 68.17 113.358 66.868 103.014 67.2855L97.36 67.5135L99.3155 66.5135C104.757 63.731 112.789 61.323 119.385 60.496C123.83 59.939 132.057 60.319 136.906 61.3065ZM113.276 75.6385C115.53 79.607 120.097 87.6535 123.424 93.52C126.752 99.386 129.959 105.024 130.55 106.047L131.625 107.908L130.407 106.975C127.489 104.74 122.672 101.575 119.816 100.017L116.726 98.33L108.822 83.5145C104.475 75.366 100.919 68.6375 100.919 68.5615C100.919 68.485 102.777 68.423 105.048 68.423H109.178L113.276 75.6385ZM126.747 91.1665C133.983 103.561 139.849 113.75 139.781 113.811C139.714 113.87 138.368 112.954 136.79 111.772L133.921 109.624L122.243 89.337C115.82 78.1795 110.562 68.8975 110.558 68.7115C110.554 68.525 111.235 68.431 112.071 68.5025L113.59 68.632L126.747 91.1665ZM96.6275 82.4005C100.601 89.3795 103.852 95.2065 103.852 95.35C103.852 95.4935 102.954 95.611 101.857 95.611C100.19 95.611 99.7945 95.4565 99.449 94.67C98.586 92.7065 96.26 92.082 89.184 91.916C83.0215 91.771 82.6595 91.716 82.246 90.8635C82.006 90.369 80.0605 86.7115 77.923 82.7365C75.6925 78.5895 74.14 75.239 74.28 74.8745C74.628 73.969 79.136 71.969 83.5395 70.7675C89.696 69.0875 88.384 67.921 96.6275 82.4005ZM139.712 79.0545C142.505 83.4445 148.493 92.852 153.018 99.96C160.709 112.04 161.202 112.933 160.571 113.629C159.889 114.382 157.083 115.879 156.841 115.62C156.77 115.543 151.679 107.574 145.531 97.9115C139.382 88.2495 132.955 78.157 131.247 75.4845C129.54 72.8115 128.142 70.4525 128.142 70.242C128.142 70.03 129.589 70.13 131.388 70.4665L134.634 71.073L139.712 79.0545ZM176.544 85.7715C184.328 93.776 193.751 107.874 197.453 117.056C200.469 124.534 200.38 132.355 197.166 142.46C193.992 152.437 188.489 160.183 182.661 162.873C176.847 165.557 170.179 163.146 168.736 157.837C167.979 155.05 168.512 146.557 169.965 138.277C172.426 124.25 172.536 122.682 172.536 101.865C172.536 87.6055 172.661 82.6455 173.02 82.6455C173.286 82.6455 174.872 84.052 176.544 85.7715ZM93.591 93.914C95.012 94.2075 94.724 94.267 91.6955 94.308C84.6135 94.4035 78.4905 95.5055 77.2145 96.9135C76.4165 97.7945 76.347 100.392 77.064 102.561C77.3315 103.371 77.45 104.133 77.3275 104.256C77.046 104.537 75.9375 100.844 75.571 98.4025C75.326 96.7685 75.4085 96.4705 76.275 95.8615C78.8675 94.0425 88.802 92.9245 93.591 93.914ZM110.762 99.9695C115.447 101.19 122.092 104.905 129.205 110.28C140.44 118.772 142.836 119.876 150.012 119.868C155.48 119.861 159.734 118.747 162.074 116.708C162.614 116.237 163.204 116.438 165.967 118.038L169.222 119.922L168.96 122.511C168.816 123.935 167.922 129.713 166.973 135.349C165.469 144.293 165.246 146.448 165.228 152.289C165.208 158.452 165.282 159.121 166.15 160.742C166.668 161.711 167.092 162.894 167.092 163.371C167.092 165.697 162.619 172.454 158.651 176.123C154.173 180.264 149.26 181.899 144.074 180.974C135.519 179.447 130.751 174.551 121.178 157.464C111.048 139.384 105.065 132.232 96.428 127.878C93.6315 126.468 88.43 124.892 86.5735 124.892C84.999 124.892 84.4855 123.524 84.4245 119.17C84.36 114.565 83.6195 115.89 83.5735 120.693L83.539 124.265L80.168 124.726C71.632 125.896 66.515 130.797 64.6355 139.604C64.13 141.971 64.0325 144.192 64.2065 149.361C64.445 156.43 65.09 160.283 67.4185 168.553C68.1235 171.056 68.647 173.155 68.581 173.216C68.516 173.278 67.4415 172.946 66.194 172.479C62.7185 171.177 58.901 167.135 56.4095 162.119C52.979 155.212 51.5005 147.69 51.5005 137.15C51.5005 122.519 54.5335 111.894 60.42 105.901C63.7965 102.464 67.433 100.583 71.2325 100.309L74.0035 100.109L74.2715 101.538C74.74 104.031 77.343 108.879 79.1585 110.638C81.1325 112.552 83.5265 113.391 85.8045 112.969C89.9715 112.199 94.584 107.987 97.598 102.202L99.3465 98.8445L103.797 99.08C106.246 99.2095 109.379 99.6095 110.762 99.9695ZM104.89 101.899C104.727 102.162 104.791 102.574 105.032 102.815C105.595 103.377 106.907 102.886 106.678 102.199C106.445 101.5 105.26 101.301 104.89 101.899ZM69.7185 102.304C69.3675 102.871 69.8405 103.559 70.5805 103.559C70.9125 103.559 71.184 103.183 71.184 102.723C71.184 101.857 70.1735 101.568 69.7185 102.304ZM64.483 104.999C64.483 105.331 64.633 105.695 64.817 105.808C65.3525 106.139 66.2935 105.372 65.9775 104.862C65.562 104.19 64.483 104.289 64.483 104.999ZM101.412 105.929C101.615 106.978 102.594 107.122 102.594 106.103C102.594 105.589 102.324 105.232 101.935 105.232C101.545 105.232 101.331 105.516 101.412 105.929ZM111.808 107.741C111.808 108.371 112.027 108.597 112.541 108.499C112.945 108.421 113.274 108.08 113.274 107.741C113.274 107.403 112.945 107.062 112.541 106.984C112.027 106.886 111.808 107.112 111.808 107.741ZM71.394 107.742C71.0435 108.308 71.5165 108.997 72.2565 108.997C72.5885 108.997 72.86 108.62 72.86 108.16C72.86 107.294 71.8495 107.006 71.394 107.742ZM64.975 109.272C65.151 110.188 66.368 110.317 66.368 109.421C66.368 109.079 66.0215 108.732 65.597 108.651C65.0375 108.543 64.867 108.713 64.975 109.272ZM68.3315 111.401C68.4095 111.804 68.75 112.133 69.0895 112.133C69.4285 112.133 69.7695 111.804 69.8475 111.401C69.9465 110.888 69.72 110.669 69.0895 110.669C68.4585 110.669 68.2325 110.888 68.3315 111.401ZM102.176 111.959C102.176 112.978 103.155 112.835 103.358 111.785C103.439 111.373 103.225 111.088 102.835 111.088C102.447 111.088 102.176 111.445 102.176 111.959ZM107.424 111.902C107.055 112.497 107.525 113.179 108.303 113.179C108.67 113.179 108.88 112.885 108.802 112.481C108.639 111.641 107.802 111.29 107.424 111.902ZM89.752 128.898C93.8425 129.953 98.497 132.611 102.059 135.927C107.344 140.845 110.588 145.581 119.427 161.281C125.624 172.289 130.678 178.667 135.29 181.297C137.824 182.743 137.946 182.609 131.979 184.911C117.936 190.327 102.366 189.243 86.89 181.77C79.727 178.311 74.3765 174.635 72.641 171.981C69.1 166.564 66.296 148.425 67.811 140.736C68.8375 135.524 71.34 131.556 74.705 129.805C78.595 127.779 84.122 127.446 89.752 128.898Z" fill="black"/>
</g>
<defs>
<clipPath id="clip0_242_94716">
<rect width="250" height="250" fill="white"/>
</clipPath>
</defs>
</svg>
