<svg width="250" height="250" viewBox="0 0 250 250" fill="none" xmlns="http://www.w3.org/2000/svg">
<path d="M65.5811 29.2867C65.5811 29.2867 72.6762 25.4663 84.092 23.8744C95.5079 22.2826 135.941 16.4609 135.941 16.4609C135.941 16.4609 144.355 14.8691 153.36 16.279C162.366 17.6889 166.368 19.872 166.368 19.872C166.368 19.872 186.38 36.2909 184.788 65.3081C183.196 94.3253 161.956 114.428 144.537 120.159C141.535 121.159 139.716 121.432 136.76 121.978C132.985 122.66 130.529 119.84 131.802 116.52C134.713 109.152 137.715 97.2361 134.895 83.1368C130.119 59.3045 106.469 25.5117 65.5811 29.2867Z" fill="url(#paint0_linear_242_93515)"/>
<path d="M237.001 121.162C237.001 121.162 236.819 129.212 232.544 139.9C228.269 150.589 213.305 188.611 213.305 188.611C213.305 188.611 210.531 196.707 204.846 203.847C199.161 210.988 195.249 213.353 195.249 213.353C195.249 213.353 171.053 222.631 146.675 206.849C122.297 191.067 115.338 162.687 118.931 144.722C119.568 141.629 120.205 139.9 121.205 137.081C122.479 133.488 126.163 132.714 128.391 135.489C133.349 141.674 142.218 150.225 155.862 154.727C178.967 162.368 220.037 158.548 237.001 121.162Z" fill="url(#paint1_linear_242_93515)"/>
<path d="M71.7221 223.997C71.7221 223.997 64.8544 219.812 57.7138 210.762C50.5732 201.711 25.1035 169.783 25.1035 169.783C25.1035 169.783 19.4638 163.37 16.1437 154.865C12.778 146.405 12.6416 141.812 12.6416 141.812C12.6416 141.812 16.6895 116.251 42.5229 102.97C68.3564 89.6898 96.464 97.8765 110.199 109.975C112.564 112.067 113.747 113.477 115.703 115.751C118.159 118.662 117.022 122.209 113.52 122.755C105.651 123.937 93.8716 127.394 83.1379 136.945C64.9908 153.182 47.7988 190.659 71.7221 223.997Z" fill="url(#paint2_linear_242_93515)"/>
<path d="M178.012 25.832C178.012 25.832 184.88 30.0163 191.975 39.1126C199.115 48.1635 224.449 80.1824 224.449 80.1824C224.449 80.1824 230.043 86.6408 233.363 95.1459C236.683 103.651 236.774 108.199 236.774 108.199C236.774 108.199 232.635 133.76 206.756 146.949C180.877 160.184 152.815 151.907 139.125 139.763C136.76 137.671 135.578 136.261 133.668 133.987C131.212 131.076 132.394 127.483 135.896 126.983C143.764 125.8 155.59 122.389 166.323 112.838C184.516 96.7377 201.844 59.2609 178.012 25.832Z" fill="url(#paint3_linear_242_93515)"/>
<path d="M183.832 220.718C183.832 220.718 176.736 224.493 165.321 226.039C153.905 227.586 113.426 233.18 113.426 233.18C113.426 233.18 105.012 234.726 96.0068 233.271C87.0015 231.815 82.9991 229.587 82.9991 229.587C82.9991 229.587 63.0782 213.077 64.8065 184.06C66.5348 155.043 87.9111 135.076 105.331 129.437C108.332 128.436 110.152 128.163 113.108 127.663C116.883 127.026 119.339 129.846 118.02 133.121C115.064 140.489 111.971 152.405 114.745 166.504C119.43 190.382 142.898 224.311 183.832 220.718Z" fill="url(#paint4_linear_242_93515)"/>
<path d="M12.5957 127.025C12.5957 127.025 12.9596 118.974 17.4622 108.377C21.9649 97.7799 37.747 60.0757 37.747 60.0757C37.747 60.0757 40.7033 52.0255 46.5249 45.0214C52.3465 38.0172 56.3034 35.6976 56.3034 35.6976C56.3034 35.6976 80.6815 26.9652 104.741 43.2021C128.801 59.439 135.168 88.0014 131.166 105.876C130.484 108.968 129.802 110.651 128.755 113.471C127.391 117.019 123.707 117.746 121.569 114.926C116.748 108.605 108.061 99.9175 94.5079 95.142C71.4943 87.0463 30.3335 90.0026 12.5957 127.025Z" fill="url(#paint5_linear_242_93515)"/>
<defs>
<linearGradient id="paint0_linear_242_93515" x1="65.5886" y1="68.8826" x2="184.863" y2="68.8826" gradientUnits="userSpaceOnUse">
<stop stop-color="#252D6F"/>
<stop offset="1" stop-color="#1BF4F8"/>
</linearGradient>
<linearGradient id="paint1_linear_242_93515" x1="118.063" y1="168.623" x2="237.004" y2="168.623" gradientUnits="userSpaceOnUse">
<stop stop-color="#252D6F"/>
<stop offset="1" stop-color="#1BF4F8"/>
</linearGradient>
<linearGradient id="paint2_linear_242_93515" x1="12.6548" y1="160.083" x2="117.019" y2="160.083" gradientUnits="userSpaceOnUse">
<stop stop-color="#252D6F"/>
<stop offset="1" stop-color="#1BF4F8"/>
</linearGradient>
<linearGradient id="paint3_linear_242_93515" x1="132.392" y1="89.7766" x2="307.13" y2="89.7766" gradientUnits="userSpaceOnUse">
<stop stop-color="#FEFEFF"/>
<stop offset="0.1991" stop-color="#F9FCFD"/>
<stop offset="0.425" stop-color="#ECF6F9"/>
<stop offset="0.6641" stop-color="#D5EDF2"/>
<stop offset="0.9107" stop-color="#B5E0E7"/>
<stop offset="1" stop-color="#A8DAE3"/>
</linearGradient>
<linearGradient id="paint4_linear_242_93515" x1="64.7052" y1="180.742" x2="183.811" y2="180.742" gradientUnits="userSpaceOnUse">
<stop stop-color="#FEFEFF"/>
<stop offset="0.1991" stop-color="#F9FCFD"/>
<stop offset="0.425" stop-color="#ECF6F9"/>
<stop offset="0.6641" stop-color="#D5EDF2"/>
<stop offset="0.9107" stop-color="#B5E0E7"/>
<stop offset="1" stop-color="#A8DAE3"/>
</linearGradient>
<linearGradient id="paint5_linear_242_93515" x1="12.5835" y1="80.1841" x2="132.205" y2="80.1841" gradientUnits="userSpaceOnUse">
<stop stop-color="#FEFEFF"/>
<stop offset="0.1991" stop-color="#F9FCFD"/>
<stop offset="0.425" stop-color="#ECF6F9"/>
<stop offset="0.6641" stop-color="#D5EDF2"/>
<stop offset="0.9107" stop-color="#B5E0E7"/>
<stop offset="1" stop-color="#A8DAE3"/>
</linearGradient>
</defs>
</svg>
