<svg width="250" height="250" viewBox="0 0 250 250" fill="none" xmlns="http://www.w3.org/2000/svg">
<g clip-path="url(#clip0_242_94735)">
<path d="M125 250.002C194.036 250.002 250 194.038 250 125.002C250 55.9664 194.036 0.00195312 125 0.00195312C55.9644 0.00195312 0 55.9664 0 125.002C0 194.038 55.9644 250.002 125 250.002Z" fill="#1591CA"/>
<path fill-rule="evenodd" clip-rule="evenodd" d="M128.505 120.346C128.505 120.346 138.882 97.259 118.535 74.955C118.535 74.955 106.962 60.0855 83.0335 61.2595L87.8115 59.3815C88.609 59.0685 89.4455 58.849 90.29 58.7395L94.9975 58.129L128.107 53.0425C128.107 53.0425 139.813 50.7415 148.688 53.277C151.214 54.005 153.513 55.3745 155.335 57.237C160.23 62.1985 170.06 75.323 163.624 96.085C163.624 96.085 157.235 119.172 133.299 124.65C133.299 124.65 127.309 126.215 128.505 120.346ZM127.028 133.212C127.028 133.212 141.988 153.739 171.93 147.956C171.93 147.956 190.869 145.772 202.044 124.971L201.246 129.972C201.113 130.801 200.879 131.615 200.542 132.39L198.681 136.671L186.263 167.192C186.263 167.192 182.314 178.235 175.566 184.433C173.628 186.199 171.269 187.436 168.716 188.025C161.873 189.613 145.35 191.218 130.414 175.206C130.414 175.206 113.422 158.051 120.819 135.059C120.819 135.043 122.493 129.213 127.028 133.212ZM81.047 156.909C90.6265 128.493 116.197 125.801 116.197 125.801H116.205C121.991 123.899 117.628 119.595 117.612 119.595C100.839 101.963 77.2465 108.044 77.2465 108.044C55.6875 112.911 48.9857 127.804 47.0385 134.433C46.3035 136.922 46.2409 139.567 46.8665 142.087C49.0326 150.875 56.907 159.695 56.907 159.695L77.8955 185.31L80.789 189.003C81.3115 189.674 81.9155 190.276 82.5875 190.796L86.6305 193.926C73.665 174.158 81.047 156.909 81.047 156.909Z" fill="white"/>
<path opacity="0.5" fill-rule="evenodd" clip-rule="evenodd" d="M132.68 127.286C132.68 127.286 158.172 123.967 167.009 95.3167C167.009 95.3167 173.945 77.8882 160.464 58.4482L164.593 61.4772C165.273 61.9857 165.898 62.5727 166.438 63.2222L169.417 66.8377L191.079 91.9277C191.079 91.9277 199.164 100.537 201.573 109.286C202.253 111.79 202.253 114.42 201.573 116.924C199.797 123.6 193.487 138.665 172.053 144.065C172.053 144.065 148.624 150.717 131.406 133.531C131.406 133.531 131.398 133.523 131.384 133.509L131.383 133.508C131.055 133.174 127.194 129.248 132.68 127.286ZM119.87 132.013C119.87 132.013 108.915 154.833 128.684 177.631C128.684 177.631 139.858 192.774 163.833 192.187L159.001 193.948C158.196 194.239 157.358 194.43 156.506 194.519L151.791 195.02L118.557 199.293C118.557 199.293 106.804 201.304 97.9905 198.549C95.4915 197.76 93.2375 196.339 91.4455 194.425C86.6755 189.338 77.19 175.987 84.1575 155.397C84.1575 155.397 91.117 132.467 115.195 127.583C115.195 127.584 115.201 127.583 115.214 127.581C115.225 127.58 115.24 127.577 115.258 127.574C115.902 127.46 121.156 126.53 119.87 132.013ZM75.611 105.897C105.459 99.6672 120.724 119.984 120.724 119.984C125.187 123.811 126.818 118.369 126.906 118.078C126.908 118.07 126.909 118.066 126.909 118.066C133.97 94.9717 116.728 78.0597 116.728 78.0597C101.573 62.2592 85.073 64.0827 78.254 65.7812C75.7035 66.3967 73.3545 67.6612 71.435 69.4512C64.7805 75.7432 60.988 86.8407 60.988 86.8407L49.0235 117.55L47.225 121.854C46.9013 122.632 46.6754 123.447 46.5525 124.28L45.833 129.297C56.7025 108.339 75.611 105.897 75.611 105.897Z" fill="white"/>
</g>
<defs>
<clipPath id="clip0_242_94735">
<rect width="250" height="250" fill="white"/>
</clipPath>
</defs>
</svg>
