<svg width="250" height="250" viewBox="0 0 250 250" fill="none" xmlns="http://www.w3.org/2000/svg">
<g clip-path="url(#clip0_242_94151)">
<path d="M124.998 249.997C194.034 249.997 249.998 194.033 249.998 124.997C249.998 55.9615 194.034 -0.00292969 124.998 -0.00292969C55.9624 -0.00292969 -0.00195312 55.9615 -0.00195312 124.997C-0.00195312 194.033 55.9624 249.997 124.998 249.997Z" fill="#CFA967"/>
<path d="M125.154 132.38V194.825L171.615 182.31L182.529 62.0752H125.154V113.106L127.529 105.708H133.748L125.154 132.38ZM67.4668 191.161L54.6855 50.7783H195.311L182.529 191.161L124.842 207.028L67.4668 191.161ZM107.803 138.091V132.302L88.5137 124.614L107.811 116.88V111.083L80.2559 122.278V126.903L107.803 138.091ZM169.779 126.903L142.225 138.091V132.302L161.521 124.591L142.225 116.88V111.083L169.779 122.278V126.903ZM125.154 132.372V113.106L114.865 145.192H121.021L125.154 132.372Z" fill="white"/>
</g>
<defs>
<clipPath id="clip0_242_94151">
<rect width="250" height="250" rx="125" fill="white"/>
</clipPath>
</defs>
</svg>
