<svg width="250" height="250" viewBox="0 0 250 250" fill="none" xmlns="http://www.w3.org/2000/svg">
<g clip-path="url(#clip0_242_94479)">
<path d="M158.115 180.619C158.115 183.75 159.194 186.401 161.35 188.573C162.37 189.604 163.585 190.423 164.923 190.982C166.262 191.541 167.698 191.829 169.148 191.829C170.599 191.829 172.035 191.541 173.374 190.982C174.712 190.423 175.927 189.604 176.947 188.573C179.103 186.401 180.217 183.75 180.288 180.619V128.196C180.288 120.508 178.803 113.266 175.831 106.468C172.976 99.8386 168.87 93.8212 163.738 88.7451C158.637 83.7199 152.648 79.6836 146.075 76.8407C139.402 73.9241 132.193 72.4331 124.91 72.4631C112.179 72.4631 101.111 76.1289 91.705 83.4605V32.2122C91.6343 29.0797 90.5204 26.4279 88.3633 24.2568C87.3434 23.2254 86.1291 22.4065 84.7905 21.8476C83.452 21.2887 82.0159 21.001 80.5654 21.001C79.1149 21.001 77.6788 21.2887 76.3402 21.8476C75.0017 22.4065 73.7873 23.2254 72.7675 24.2568C70.6112 26.4283 69.5328 29.0801 69.5322 32.2122V180.619C69.5322 183.75 70.6106 186.401 72.7675 188.573C73.7743 189.621 74.9861 190.451 76.3275 191.012C77.6688 191.572 79.1111 191.85 80.5645 191.829C83.6776 191.829 86.3123 190.743 88.4685 188.573C90.6248 186.402 91.7036 183.751 91.705 180.619V128.196C91.6807 123.758 92.5651 119.361 94.3038 115.278C97.691 107.261 104.035 100.856 112.02 97.3925C116.088 95.6345 120.478 94.7439 124.91 94.7773C129.329 94.7551 133.703 95.6646 137.747 97.4466C145.712 100.91 152.051 107.289 155.463 115.276C157.235 119.352 158.138 123.752 158.115 128.196V180.619Z" fill="#EA7773"/>
<path d="M80.8851 229.002C87.0844 229.002 92.11 223.945 92.11 217.705C92.11 211.466 87.0844 206.408 80.8851 206.408C74.6857 206.408 69.6602 211.466 69.6602 217.705C69.6602 223.945 74.6857 229.002 80.8851 229.002Z" fill="#EA7773"/>
<path d="M169.243 206.408C167.005 206.394 164.814 207.045 162.947 208.277C161.079 209.51 159.62 211.269 158.754 213.332C157.888 215.395 157.654 217.669 158.081 219.865C158.509 222.061 159.579 224.081 161.156 225.668C162.734 227.256 164.746 228.339 166.94 228.78C169.133 229.222 171.408 229.003 173.477 228.15C175.545 227.297 177.314 225.849 178.559 223.989C179.803 222.13 180.468 219.943 180.468 217.706C180.477 214.719 179.3 211.851 177.195 209.732C175.09 207.614 172.229 206.418 169.243 206.408V206.408Z" fill="#EA7773"/>
</g>
<defs>
<clipPath id="clip0_242_94479">
<rect width="208" height="208" fill="white" transform="translate(21 21)"/>
</clipPath>
</defs>
</svg>
