<svg width="250" height="250" viewBox="0 0 250 250" fill="none" xmlns="http://www.w3.org/2000/svg">
<path d="M124.804 247.693C192.567 247.693 247.499 192.76 247.499 124.998C247.499 57.2351 192.567 2.30273 124.804 2.30273C57.0418 2.30273 2.10938 57.2351 2.10938 124.998C2.10938 192.76 57.0418 247.693 124.804 247.693Z" fill="#1A61F0"/>
<path d="M162.444 175.483H143.444V143.473C143.444 138.518 139.424 134.498 134.469 134.498H106.584C95.8589 134.498 87.1689 125.803 87.1689 115.083V73.6777H106.169V106.528C106.169 111.483 110.189 115.503 115.144 115.503H143.029C153.754 115.503 162.444 124.198 162.444 134.918V175.483Z" fill="white"/>
<path d="M162.445 105.14C151.95 105.14 143.445 96.6348 143.445 86.1398V73.6748H162.445V105.14Z" fill="white"/>
<path d="M106.165 175.484H87.165V144.789C97.66 144.789 106.165 153.294 106.165 163.789V175.484Z" fill="white"/>
</svg>
