<svg width="250" height="250" viewBox="0 0 250 250" fill="none" xmlns="http://www.w3.org/2000/svg">
<g clip-path="url(#clip0_242_94153)">
<path d="M124.997 249.998C194.033 249.998 249.997 194.034 249.997 124.998C249.997 55.9624 194.033 -0.00195312 124.997 -0.00195312C55.9615 -0.00195312 -0.00292969 55.9624 -0.00292969 124.998C-0.00292969 194.034 55.9615 249.998 124.997 249.998Z" fill="#292929"/>
<path fill-rule="evenodd" clip-rule="evenodd" d="M117.24 145.755C117.24 142.161 117.256 138.575 117.232 134.989C117.225 133.989 117.514 133.224 118.443 132.818C119.303 132.443 120.201 132.708 120.951 133.583C123.186 136.193 125.404 138.818 127.631 141.443C128.412 142.357 129.201 143.263 129.959 144.208C130.137 144.431 130.241 144.704 130.256 144.989C130.271 148.778 130.279 152.568 130.264 156.349C130.284 158.016 129.676 159.629 128.559 160.867C127.443 162.106 125.901 162.877 124.24 163.028C122.581 163.135 120.943 162.609 119.656 161.557C118.369 160.504 117.528 159.004 117.303 157.357C117.232 156.927 117.24 156.482 117.24 156.044V145.755ZM117.264 75.3644C117.256 75.2082 117.24 75.0597 117.24 74.9035V53.5597C117.248 50.2785 119.498 47.5129 122.545 46.9738C123.485 46.799 124.451 46.8338 125.376 47.0757C126.301 47.3177 127.161 47.7609 127.894 48.3736C128.628 48.9863 129.217 49.7534 129.62 50.6202C130.023 51.487 130.229 52.432 130.225 53.3879C130.303 60.6613 130.256 67.9425 130.271 75.216L130.232 75.591C128.717 72.9972 126.623 71.7004 123.764 71.7082C120.936 71.7082 118.826 72.9582 117.264 75.3644ZM117.24 173.903C118.834 176.325 120.959 177.56 123.811 177.552C126.654 177.544 128.725 176.247 130.271 173.841V191.919C130.264 193.693 130.318 195.482 130.162 197.232C130.011 198.901 129.218 200.447 127.95 201.544C126.683 202.641 125.039 203.204 123.365 203.114C121.714 203.004 120.166 202.272 119.032 201.066C117.899 199.86 117.264 198.269 117.256 196.614C117.217 189.638 117.24 182.661 117.24 175.677V173.903ZM130.271 104.95V117.927C130.271 119.161 129.881 119.833 128.943 120.208C128.458 120.408 127.922 120.444 127.414 120.312C126.907 120.179 126.456 119.885 126.131 119.474L120.475 112.849C119.498 111.708 118.521 110.575 117.561 109.411C117.376 109.19 117.267 108.917 117.248 108.63C117.232 103.052 117.225 97.466 117.248 91.8879C117.238 90.2404 117.847 88.6493 118.956 87.4306C120.065 86.2119 121.591 85.4548 123.232 85.3097C126.318 84.966 129.381 87.2629 130.1 90.4972C130.217 91.0363 130.256 91.5988 130.256 92.1535C130.271 96.4191 130.271 100.685 130.271 104.95ZM143.795 78.5675V61.2238C143.811 58.0832 145.6 55.5207 148.381 54.6457C152.6 53.3097 156.818 56.4972 156.842 61.091C156.865 65.4191 156.842 69.7472 156.842 74.0675V95.9035C156.842 99.13 154.904 101.739 151.943 102.544C148.092 103.583 144.162 100.747 143.842 96.6925C143.813 96.2948 143.8 95.896 143.803 95.4972V78.5675H143.795ZM104.389 162.185V182.224C104.418 183.79 103.889 185.315 102.898 186.527C101.906 187.739 100.515 188.559 98.9746 188.841C95.2246 189.56 91.4824 186.513 91.373 182.614C91.3418 181.497 91.3652 180.38 91.3652 179.263V142.13C91.3652 139.013 93.3652 136.38 96.2715 135.63C97.2348 135.387 98.241 135.368 99.2131 135.573C100.185 135.779 101.097 136.204 101.88 136.816C102.662 137.428 103.295 138.211 103.728 139.105C104.162 139.999 104.385 140.98 104.381 141.974C104.404 148.708 104.381 155.45 104.381 162.185H104.389ZM104.389 88.3879V115.724C104.418 117.24 103.925 118.72 102.991 119.915C102.058 121.11 100.742 121.947 99.2637 122.286C98.3168 122.488 97.3371 122.476 96.3952 122.253C95.4534 122.029 94.573 121.599 93.8178 120.993C93.0626 120.388 92.4515 119.622 92.0287 118.751C91.6059 117.88 91.3819 116.926 91.373 115.958C91.334 112.005 91.3652 108.06 91.3574 104.107V61.091C91.3574 57.8722 93.4512 55.1847 96.459 54.5051C97.4152 54.2952 98.4064 54.3032 99.3592 54.5285C100.312 54.7539 101.202 55.1908 101.963 55.8068C102.723 56.4229 103.336 57.2023 103.754 58.0873C104.173 58.9723 104.387 59.9401 104.381 60.9191C104.404 67.9425 104.381 74.9582 104.381 81.9816L104.389 88.3879ZM143.795 152.341V122.653C143.795 119.693 145.061 117.497 147.701 116.263C151.936 114.302 156.686 117.435 156.842 122.224V181.974C156.842 185.239 154.975 187.833 152.029 188.677C148.17 189.786 144.17 186.958 143.842 182.888C143.812 182.472 143.799 182.055 143.803 181.638V152.325L143.795 152.341ZM183.592 122.138V168.544C183.63 170.09 183.127 171.602 182.17 172.817C181.213 174.032 179.862 174.875 178.35 175.2C174.506 176.036 170.678 172.966 170.568 168.958V75.8332C170.568 72.8254 172.076 70.4269 174.623 69.3644C178.92 67.5675 183.584 70.8019 183.584 75.5988V122.13L183.592 122.138ZM79.4277 122.068V168.544C79.4277 171.825 77.3965 174.458 74.334 175.185C70.4277 176.122 66.5137 173.044 66.4043 168.943V75.6847C66.4043 72.4894 68.3184 69.8957 71.248 69.0832C72.2092 68.8305 73.2153 68.8011 74.1896 68.9971C75.1638 69.1931 76.0803 69.6094 76.8689 70.2141C77.6575 70.8187 78.2974 71.5958 78.7396 72.4858C79.1817 73.3757 79.4144 74.3551 79.4199 75.3488C79.459 80.466 79.4277 85.591 79.4277 90.716V122.06V122.068Z" fill="white"/>
</g>
<defs>
<clipPath id="clip0_242_94153">
<rect width="250" height="250" rx="125" fill="white"/>
</clipPath>
</defs>
</svg>
