<svg width="250" height="250" viewBox="0 0 250 250" fill="none" xmlns="http://www.w3.org/2000/svg">
<path d="M84.4932 95.9516L65.0332 70.0166H130.028L136.153 79.8166H84.5632L90.0582 87.0966L84.4932 95.9516Z" fill="#C69C6D"/>
<path d="M183.018 179.95H119.073L113.053 170.185H164.048L158.973 163.045L164.293 153.7L183.018 179.95Z" fill="#C69C6D"/>
<path d="M153.093 125.282C153.093 121.607 152.393 118.072 151.098 114.817L182.983 70.0166H148.613L154.738 79.8166H164.013L145.463 105.857C140.213 100.152 132.653 96.5466 124.323 96.5466C116.168 96.5466 108.783 99.9766 103.568 105.437L99.9982 100.887L94.2582 110.092L97.6182 113.697L98.2482 113.207C96.5332 116.882 95.5882 120.977 95.5882 125.282C95.5882 129.062 96.3232 132.702 97.6882 136.027L65.0332 179.952H100.348L94.5032 170.152H84.5282L103.358 144.917C108.608 150.517 116.063 154.017 124.323 154.017C132.793 154.017 140.458 150.307 145.708 144.462L149.383 149.642L155.298 141.312L151.238 135.397C152.428 132.247 153.093 128.852 153.093 125.282ZM124.358 145.477C113.228 145.477 104.163 136.412 104.163 125.282C104.163 114.152 113.228 105.087 124.358 105.087C135.488 105.087 144.553 114.152 144.553 125.282C144.553 136.412 135.488 145.477 124.358 145.477Z" fill="#C69C6D"/>
<path d="M149.28 95.6017L124.29 56.5767L117.64 67.0417H106.475L124.29 38.0967L155.335 87.5517L149.28 95.6017Z" fill="#C69C6D"/>
<path d="M84.6683 148.522L69.8633 125.282L96.3583 83.072L107.663 83.002L81.4133 125.282L90.6183 140.227L84.6683 148.522Z" fill="#C69C6D"/>
<path d="M124.605 212.15L93.8047 162.765L99.6497 154.54L124.57 193.74L131.22 183.31H142.455L124.605 212.15Z" fill="#C69C6D"/>
<path d="M152.113 167.701H141.088L167.198 125.281L158.343 110.091L164.363 101.796L178.713 125.281L152.113 167.701Z" fill="#C69C6D"/>
</svg>
