<svg width="250" height="250" viewBox="0 0 250 250" fill="none" xmlns="http://www.w3.org/2000/svg">
<path d="M187.8 65C174.179 65 159.343 72.2648 143.679 86.5992C136.237 93.3276 129.767 100.641 125 106.443C125 106.443 132.637 115.073 141.004 124.288C145.528 118.681 152.046 111.075 159.586 104.249C173.498 91.4749 182.595 88.8908 187.848 88.8908C207.452 88.8908 223.31 104.981 223.31 124.922C223.31 144.668 207.452 160.758 187.848 160.953C186.924 160.953 185.805 160.856 184.443 160.514C190.135 163.098 196.313 165 202.053 165C237.952 165 244.957 140.67 245.346 138.915C246.368 134.43 247 129.798 247 124.971C246.903 91.9137 220.392 65 187.8 65Z" fill="url(#paint0_linear_242_93528)"/>
<path d="M61.6854 185C75.4175 185 90.3756 177.735 106.167 163.401C113.671 156.672 120.194 149.359 125 143.557C125 143.557 117.3 134.927 108.865 125.712C104.304 131.319 97.7321 138.925 90.1304 145.751C76.1041 158.428 66.8349 161.109 61.6364 161.109C41.872 161.109 25.884 145.02 25.884 125.078C25.884 105.332 41.872 89.2418 61.6364 89.0468C62.5682 89.0468 63.6962 89.1443 65.0694 89.4856C59.3313 86.9015 53.1029 85 47.3158 85C11.122 85 4.05981 109.33 3.66746 111.085C2.63756 115.57 2 120.202 2 125.029C2 158.086 28.7285 185 61.6854 185Z" fill="url(#paint1_linear_242_93528)"/>
<path fill-rule="evenodd" clip-rule="evenodd" d="M88.9182 104.902C84.9674 101.137 65.7498 85.8313 47.3615 85.2934C14.5843 84.4621 4.92674 107.885 4.09755 110.917C10.3896 84.6577 33.8019 65.0978 61.6527 65C84.3333 65 107.258 86.8582 124.232 106.565C124.281 106.516 124.281 106.516 124.329 106.467C124.329 106.467 131.987 115.122 140.376 124.364C140.376 124.364 149.888 135.416 160.033 145.098C163.984 148.863 183.104 163.973 201.492 164.462C235.196 165.391 244.512 140.697 245 138.839C238.806 165.196 215.344 184.902 187.396 185C164.715 185 141.742 163.142 124.719 143.435C124.671 143.484 124.671 143.533 124.622 143.533C124.622 143.533 116.964 134.878 108.575 125.636C108.526 125.636 99.0148 114.584 88.9182 104.902ZM4 111.161C4 111.112 4.04878 111.015 4.04878 110.966C4.04878 111.015 4.04878 111.064 4 111.161Z" fill="#29ABE2"/>
<defs>
<linearGradient id="paint0_linear_242_93528" x1="156.645" y1="73.8569" x2="238.745" y2="158.245" gradientUnits="userSpaceOnUse">
<stop offset="0.21" stop-color="#F15A24"/>
<stop offset="0.6841" stop-color="#FBB03B"/>
</linearGradient>
<linearGradient id="paint1_linear_242_93528" x1="93.0767" y1="176.162" x2="10.9977" y2="91.1046" gradientUnits="userSpaceOnUse">
<stop offset="0.21" stop-color="#ED1E79"/>
<stop offset="0.8929" stop-color="#522785"/>
</linearGradient>
</defs>
</svg>
