<svg width="250" height="250" viewBox="0 0 250 250" fill="none" xmlns="http://www.w3.org/2000/svg">
<rect width="250" height="250" rx="125" fill="#19B8BA"/>
<path d="M87.4763 175.482C93.142 169.946 98.6042 164.615 104.338 158.976C113.736 164.444 124.049 166.802 135.109 164.068C143.048 162.086 149.901 158.122 155.431 152.039C165.236 141.274 171.716 122.957 160.419 102.727C166.016 97.1906 171.513 91.6887 177.009 86.2551C193.802 106.042 195.906 143.086 172.395 168.477C150.173 192.466 112.277 195.747 87.4763 175.482ZM95.3133 97.5324C110.512 80.924 128.46 79.4888 147.119 88.989C152.921 83.2137 158.315 77.8143 163.676 72.449C139.622 52.5942 101.318 56.0116 79.0964 80.1722C55.6531 105.666 58.2315 142.881 75.1609 162.633C75.568 162.359 76.043 162.154 76.4162 161.813C81.5391 156.892 86.662 151.902 91.8528 146.913C80.182 125.247 86.2549 107.408 95.3133 97.5324ZM189.969 75.9347C199.129 76.1398 206.966 68.3482 207 59.0188C207.034 49.6553 199.332 41.9321 190.104 42.0005C181.046 42.0688 173.752 49.6211 173.718 58.8822C173.684 68.2115 180.876 75.7639 189.969 75.9347ZM61.4545 172.099C52.3622 172.304 45.034 179.822 45.0001 189.015C44.9662 198.344 52.6675 206.102 61.8956 205.999C70.9201 205.931 78.2482 198.344 78.2482 189.083C78.2482 179.583 70.6147 171.894 61.4545 172.099Z" fill="white"/>
</svg>
