<svg width="250" height="250" viewBox="0 0 250 250" fill="none" xmlns="http://www.w3.org/2000/svg">
<g clip-path="url(#clip0_242_93530)">
<path d="M146.149 169.148C146.149 158.548 154.749 149.948 165.399 149.948H173.099C183.699 149.948 192.299 158.548 192.299 169.148V176.798C192.299 187.398 183.699 195.998 173.049 195.998H165.349C154.749 195.998 146.149 187.398 146.149 176.798V169.148ZM165.399 80.8477C154.799 80.8477 146.199 89.4477 146.149 100.048V107.748C146.149 118.348 154.749 126.948 165.399 126.948H173.099C183.699 126.948 192.299 118.348 192.299 107.748V100.098C192.299 89.4977 183.699 80.8977 173.049 80.8977L165.399 80.8477Z" fill="#1EEFA4"/>
<path fill-rule="evenodd" clip-rule="evenodd" d="M76.899 0.199219C34.449 0.199219 -0.000976562 34.5992 -0.000976562 76.9992V172.999C-0.000976562 215.399 34.449 249.799 76.899 249.799H173.049C215.549 249.799 249.949 215.399 249.949 172.999V76.9992C249.999 34.5992 215.549 0.199219 173.049 0.199219H76.899ZM173.099 30.8992H76.899C51.399 30.8992 30.749 51.5492 30.749 76.9992V172.999C30.749 198.449 51.399 219.099 76.899 219.099H173.049C198.549 219.099 219.199 198.449 219.199 172.999V76.9992C219.199 51.5492 198.549 30.9492 173.099 30.8992Z" fill="#1EEFA4"/>
</g>
<defs>
<clipPath id="clip0_242_93530">
<rect width="250" height="250" rx="125" fill="white"/>
</clipPath>
</defs>
</svg>
