<svg width="250" height="250" viewBox="0 0 250 250" fill="none" xmlns="http://www.w3.org/2000/svg">
<g clip-path="url(#clip0_242_93531)">
<path d="M125 48.2C140.2 48.2 155.05 52.7 167.65 61.15C180.3 69.6 190.1 81.6 195.95 95.6C201.75 109.65 203.3 125.05 200.3 139.95C197.35 154.85 190 168.55 179.3 179.25C168.6 189.95 154.9 197.3 140 200.25C125.1 203.2 109.65 201.7 95.6504 195.9C81.6004 190.1 69.6004 180.25 61.2004 167.6C52.7504 154.95 48.2504 140.1 48.2504 124.95C48.3004 104.6 56.4004 85.05 70.7504 70.7C85.1004 56.35 104.65 48.25 125 48.2ZM125 0C100.3 0 76.1004 7.35 55.5504 21.05C35.0004 34.8 19.0004 54.3 9.50041 77.15C0.0504084 100 -2.39959 125.15 2.40041 149.4C7.20041 173.65 19.1504 195.9 36.6004 213.4C54.1004 230.9 76.3504 242.8 100.6 247.6C124.85 252.4 150 249.95 172.8 240.5C195.65 231.05 215.15 215 228.9 194.45C242.65 173.9 250 149.7 250 125C250 91.85 236.85 60.05 213.4 36.6C189.95 13.15 158.15 0 125 0Z" fill="url(#paint0_linear_242_93531)"/>
<path d="M125.002 223C179.102 223 223.002 179.15 223.002 125C223.002 70.85 179.102 27 125.002 27C70.902 27 27.002 70.9 27.002 125C27.002 179.1 70.902 223 125.002 223Z" fill="white"/>
<path d="M125 205.548C169.487 205.548 205.55 169.485 205.55 124.998C205.55 80.5117 169.487 44.4482 125 44.4482C80.5137 44.4482 44.4502 80.5117 44.4502 124.998C44.4502 169.485 80.5137 205.548 125 205.548Z" fill="#F8A608"/>
<path fill-rule="evenodd" clip-rule="evenodd" d="M93.0527 86.7988H125.703C146.803 86.7988 163.903 103.899 163.903 124.999C163.903 146.099 146.803 163.199 125.703 163.199H93.0527V86.7988ZM101.453 95.1988V154.799H125.703C142.153 154.799 155.503 141.449 155.503 124.999C155.503 108.549 142.153 95.1988 125.703 95.1988H101.453Z" fill="white"/>
<path d="M82.3008 120.349H171.351V111.949H82.3008V120.349Z" fill="white"/>
<path d="M82.3008 138.249H171.351V129.849H82.3008V138.249Z" fill="white"/>
</g>
<defs>
<linearGradient id="paint0_linear_242_93531" x1="233.75" y1="233.75" x2="33.7504" y2="33.75" gradientUnits="userSpaceOnUse">
<stop offset="0.1594" stop-color="#003CDA"/>
<stop offset="1" stop-color="#33DFCC"/>
</linearGradient>
<clipPath id="clip0_242_93531">
<rect width="250" height="250" rx="125" fill="white"/>
</clipPath>
</defs>
</svg>
