<svg width="250" height="250" viewBox="0 0 250 250" fill="none" xmlns="http://www.w3.org/2000/svg">
<path d="M111.923 12.5605C128.627 22.5392 144.335 34.0856 160.885 44.3199C140.564 80.5572 120.233 116.805 99.8915 153.064C91.7959 138.544 84.211 123.736 76.2109 109.151C87.7312 76.8152 100.883 45.055 111.923 12.5605Z" fill="#F9C011"/>
<path d="M58.9971 237.434C93.5255 173.243 129.398 109.756 163.543 45.4043C172.663 61.7807 181.816 78.1566 191 94.5321C164.535 142.124 137.878 189.587 111.606 237.275C94.0699 237.274 76.5374 237.051 58.9971 237.434Z" fill="#DB712A"/>
<path d="M114.902 237.179C129.526 211.593 143.319 185.558 158.135 160.099C166.967 171.645 175.927 183.127 184.695 194.736C161.527 209.066 138.23 223.139 114.902 237.179Z" fill="#B7230F"/>
</svg>
