<svg width="250" height="250" viewBox="0 0 250 250" fill="none" xmlns="http://www.w3.org/2000/svg">
<g clip-path="url(#clip0_242_93536)">
<path d="M125 48.199C140.2 48.199 155.05 52.699 167.65 61.149C180.3 69.599 190.1 81.599 195.95 95.599C201.75 109.649 203.3 125.049 200.3 139.949C197.35 154.849 190 168.549 179.3 179.249C168.55 189.999 154.9 197.299 140 200.249C125.1 203.199 109.65 201.699 95.6504 195.899C81.6004 190.099 69.6004 180.249 61.2004 167.599C52.7504 154.949 48.2504 140.099 48.2504 124.949C48.3004 104.599 56.4004 85.049 70.7504 70.699C85.1004 56.349 104.65 48.249 125 48.199ZM125 -0.000976562C100.3 -0.000976562 76.1004 7.34902 55.5504 21.049C35.0004 34.799 19.0004 54.299 9.50041 77.149C0.0504084 99.999 -2.39959 125.149 2.40041 149.399C7.20041 173.649 19.1504 195.899 36.6004 213.399C54.1004 230.899 76.3504 242.799 100.6 247.599C124.85 252.399 150 249.949 172.8 240.499C195.65 231.049 215.15 214.999 228.9 194.449C242.65 173.899 250 149.699 250 124.999C250 91.849 236.85 60.049 213.4 36.599C189.95 13.149 158.15 -0.000976562 125 -0.000976562Z" fill="url(#paint0_linear_242_93536)"/>
<path d="M124.999 222.999C179.099 222.999 222.999 179.149 222.999 124.999C222.999 70.849 179.099 26.999 124.999 26.999C70.899 26.999 26.999 70.899 26.999 124.999C26.999 179.099 70.899 222.999 124.999 222.999Z" fill="white"/>
<path d="M180.899 181.449C173.499 188.849 164.699 194.649 154.999 198.549C145.299 202.449 134.949 204.399 124.499 204.199C114.099 204.399 103.799 202.499 94.1994 198.549C84.5994 194.649 75.8494 188.799 68.5994 181.399C61.1494 174.149 55.2494 165.449 51.3494 155.799C47.3994 146.149 45.4994 135.849 45.7494 125.449C45.7494 102.699 53.3994 83.6995 68.6994 68.5495C75.9994 61.1495 84.6994 55.2995 94.2994 51.3995C103.899 47.4995 114.249 45.5995 124.599 45.7995C135.049 45.5995 145.399 47.5495 155.099 51.4495C164.799 55.3495 173.599 61.1995 180.949 68.5495C196.549 83.7495 204.399 102.699 204.399 125.449C204.599 135.899 202.599 146.249 198.549 155.899C194.499 165.599 188.499 174.249 180.899 181.449Z" fill="#4160AB"/>
<path d="M125.099 68.5986L114.699 74.4486L86.2494 90.5986L75.8994 96.6486V152.999L86.2994 159.049L114.849 175.399L125.249 181.449L135.599 175.399L163.699 159.249L174.099 153.199V96.8486L163.699 90.7986L135.499 74.4486L125.099 68.5986ZM96.5494 141.049V108.499L124.999 92.3486L153.449 108.749V141.299L124.999 157.449L96.5494 141.049Z" fill="white"/>
</g>
<defs>
<linearGradient id="paint0_linear_242_93536" x1="233.75" y1="233.749" x2="33.7506" y2="33.7489" gradientUnits="userSpaceOnUse">
<stop offset="0.1594" stop-color="#003CDA"/>
<stop offset="1" stop-color="#33DFCC"/>
</linearGradient>
<clipPath id="clip0_242_93536">
<rect width="250" height="250" rx="125" fill="white"/>
</clipPath>
</defs>
</svg>
