<svg width="250" height="250" viewBox="0 0 250 250" fill="none" xmlns="http://www.w3.org/2000/svg">
<rect width="250" height="250" rx="125" fill="white"/>
<path d="M176.218 176.245C176.218 176.245 153.013 149.172 145.278 140.12C144.385 139.1 144.088 137.697 144.385 136.422C144.64 135.7 145.15 134.935 145.618 134.382L149.188 130.43L188.798 176.245H176.218ZM151.738 176.245L123.008 142.712L121.563 140.885C120.203 139.312 120.245 136.89 121.648 135.36L175.24 72.9275H188.5L134.61 134.552C133.208 136.082 133.165 138.505 134.525 140.077L165.635 176.245H151.738ZM118.248 126.987C107.155 139.822 76.0027 176.245 76.0027 176.245H62.1477L104.563 127.115C105.923 125.542 105.923 123.205 104.563 121.675L62.4877 72.97H75.7902L118.12 122.1C119.225 123.545 119.395 125.627 118.248 126.987ZM117.738 154.867L113.615 159.67L99.3777 176.287H86.5002L113.743 144.582C113.743 144.582 116.76 148.195 117.823 149.385C119.183 150.957 119.14 153.337 117.738 154.867ZM99.2077 72.97C99.2077 72.97 122.03 100.255 130.275 108.712C131.593 110.03 131.338 111.772 130.148 113.175C125.77 118.317 125.643 118.402 125.643 118.402L86.4152 72.9275H99.2077V72.97ZM133.42 94.3475L137.543 89.545L151.78 72.9275H164.658L137.415 104.632C137.415 104.632 134.398 101.02 133.335 99.83C131.975 98.2575 132.018 95.8775 133.42 94.3475ZM124.75 19.335C66.4402 19.335 19.1377 66.595 19.1377 124.947C19.1377 183.257 66.4402 230.56 124.75 230.56C183.06 230.56 230.363 183.257 230.363 124.947C230.363 66.595 183.06 19.335 124.75 19.335Z" fill="black"/>
</svg>
