<svg width="250" height="250" viewBox="0 0 250 250" fill="none" xmlns="http://www.w3.org/2000/svg">
<g clip-path="url(#clip0_242_94140)">
<path fill-rule="evenodd" clip-rule="evenodd" d="M249.998 125C249.998 194.036 194.034 250 124.998 250C55.9621 250 -0.00195312 194.036 -0.00195312 125C-0.00195312 55.9641 55.9621 0 124.998 0C194.034 0 249.998 55.9641 249.998 125Z" fill="#FFFFFE"/>
<path fill-rule="evenodd" clip-rule="evenodd" d="M124.998 238.72C62.2929 238.72 11.2777 187.705 11.2777 125C11.2777 62.2942 62.2929 11.2797 124.998 11.2797C187.703 11.2797 238.718 62.2942 238.718 125C238.718 187.705 187.703 238.72 124.998 238.72ZM124.998 0C55.9621 0 -0.00195312 55.9641 -0.00195312 125C-0.00195312 194.036 55.9621 250 124.998 250C194.034 250 249.998 194.036 249.998 125C249.998 55.9641 194.034 0 124.998 0Z" fill="#3A3A39"/>
<path fill-rule="evenodd" clip-rule="evenodd" d="M182.799 119.812C181.659 119.812 180.5 119.628 179.36 119.238L63.7601 79.7822C58.1973 77.883 55.2277 71.8347 57.1262 66.2719C59.0246 60.709 65.0744 57.7394 70.6365 59.6379L186.236 99.0937C191.799 100.993 194.769 107.041 192.871 112.604C191.361 117.027 187.226 119.812 182.799 119.812Z" fill="#4FA2CD"/>
<path fill-rule="evenodd" clip-rule="evenodd" d="M182.799 155.375C181.659 155.375 180.5 155.19 179.36 154.801L63.7601 115.344C58.1973 113.446 55.2277 107.397 57.1262 101.834C59.0246 96.2717 65.073 93.3 70.6365 95.1999L186.236 134.656C191.799 136.555 194.769 142.604 192.871 148.167C191.361 152.589 187.226 155.375 182.799 155.375Z" fill="#4365A1"/>
<path fill-rule="evenodd" clip-rule="evenodd" d="M182.799 190.935C181.659 190.935 180.5 190.75 179.36 190.361L63.7601 150.905C58.1973 149.006 55.2277 142.957 57.1262 137.395C59.0246 131.832 65.0744 128.863 70.6365 130.76L186.236 170.216C191.799 172.115 194.769 178.164 192.871 183.726C191.361 188.15 187.226 190.935 182.799 190.935Z" fill="#3D2C78"/>
</g>
<defs>
<clipPath id="clip0_242_94140">
<rect width="250" height="250" rx="125" fill="white"/>
</clipPath>
</defs>
</svg>
