<svg width="250" height="250" viewBox="0 0 250 250" fill="none" xmlns="http://www.w3.org/2000/svg">
<path d="M96.6087 84.2442C105.049 84.2442 111.891 77.5219 111.891 69.2295C111.891 60.9372 105.049 54.2148 96.6087 54.2148C88.1684 54.2148 81.3262 60.9372 81.3262 69.2295C81.3262 77.5219 88.1684 84.2442 96.6087 84.2442Z" fill="#B2A3F6"/>
<path d="M140.265 67.0899C148.705 67.0899 155.548 60.3676 155.548 52.0752C155.548 43.7829 148.705 37.0605 140.265 37.0605C131.825 37.0605 124.982 43.7829 124.982 52.0752C124.982 60.3676 131.825 67.0899 140.265 67.0899Z" fill="#B2A3F6"/>
<path d="M157.74 170.036C166.18 170.036 173.022 163.314 173.022 155.022C173.022 146.729 166.18 140.007 157.74 140.007C149.299 140.007 142.457 146.729 142.457 155.022C142.457 163.314 149.299 170.036 157.74 170.036Z" fill="#B2A3F6"/>
<path d="M11.4683 148.584C16.2886 148.584 20.1963 144.743 20.1963 140.006C20.1963 135.269 16.2886 131.429 11.4683 131.429C6.64791 131.429 2.74023 135.269 2.74023 140.006C2.74023 144.743 6.64791 148.584 11.4683 148.584Z" fill="#B2A3F6"/>
<path d="M35.4779 204.362C39.0976 204.362 42.032 201.48 42.032 197.925C42.032 194.37 39.0976 191.488 35.4779 191.488C31.8582 191.488 28.9238 194.37 28.9238 197.925C28.9238 201.48 31.8582 204.362 35.4779 204.362Z" fill="#B2A3F6"/>
<path d="M105.337 247.248C108.957 247.248 111.891 244.366 111.891 240.811C111.891 237.256 108.957 234.374 105.337 234.374C101.718 234.374 98.7832 237.256 98.7832 240.811C98.7832 244.366 101.718 247.248 105.337 247.248Z" fill="#B2A3F6"/>
<path d="M218.869 208.642C222.488 208.642 225.423 205.76 225.423 202.205C225.423 198.65 222.488 195.769 218.869 195.769C215.249 195.769 212.314 198.65 212.314 202.205C212.314 205.76 215.249 208.642 218.869 208.642Z" fill="#B2A3F6"/>
<path d="M149.011 195.783C152.631 195.783 155.565 192.901 155.565 189.346C155.565 185.791 152.631 182.909 149.011 182.909C145.391 182.909 142.457 185.791 142.457 189.346C142.457 192.901 145.391 195.783 149.011 195.783Z" fill="#B2A3F6"/>
<path d="M188.304 165.755C191.924 165.755 194.858 162.873 194.858 159.318C194.858 155.763 191.924 152.881 188.304 152.881C184.684 152.881 181.75 155.763 181.75 159.318C181.75 162.873 184.684 165.755 188.304 165.755Z" fill="#B2A3F6"/>
<path d="M142.457 247.251C147.277 247.251 151.185 243.411 151.185 238.674C151.185 233.937 147.277 230.097 142.457 230.097C137.636 230.097 133.729 233.937 133.729 238.674C133.729 243.411 137.636 247.251 142.457 247.251Z" fill="#B2A3F6"/>
<path d="M181.75 140.006C186.57 140.006 190.478 136.166 190.478 131.429C190.478 126.692 186.57 122.852 181.75 122.852C176.929 122.852 173.021 126.692 173.021 131.429C173.021 136.166 176.929 140.006 181.75 140.006Z" fill="#B2A3F6"/>
<path d="M194.859 225.797C199.679 225.797 203.587 221.957 203.587 217.22C203.587 212.483 199.679 208.643 194.859 208.643C190.039 208.643 186.131 212.483 186.131 217.22C186.131 221.957 190.039 225.797 194.859 225.797Z" fill="#B2A3F6"/>
<path d="M22.3697 182.911C28.3998 182.911 33.2881 178.112 33.2881 172.193C33.2881 166.274 28.3998 161.476 22.3697 161.476C16.3396 161.476 11.4512 166.274 11.4512 172.193C11.4512 178.112 16.3396 182.911 22.3697 182.911Z" fill="#B2A3F6"/>
<path d="M127.173 225.798C135.613 225.798 142.456 219.076 142.456 210.783C142.456 202.491 135.613 195.769 127.173 195.769C118.733 195.769 111.891 202.491 111.891 210.783C111.891 219.076 118.733 225.798 127.173 225.798Z" fill="#B2A3F6"/>
<path d="M44.2064 152.881C52.6467 152.881 59.4889 146.159 59.4889 137.866C59.4889 129.574 52.6467 122.852 44.2064 122.852C35.7661 122.852 28.9238 129.574 28.9238 137.866C28.9238 146.159 35.7661 152.881 44.2064 152.881Z" fill="#B2A3F6"/>
<path d="M127.174 187.191C133.204 187.191 138.093 182.393 138.093 176.473C138.093 170.554 133.204 165.756 127.174 165.756C121.144 165.756 116.256 170.554 116.256 176.473C116.256 182.393 121.144 187.191 127.174 187.191Z" fill="#B2A3F6"/>
<path d="M74.7709 92.8386C78.3906 92.8386 81.325 89.9567 81.325 86.4017C81.325 82.8467 78.3906 79.9648 74.7709 79.9648C71.1512 79.9648 68.2168 82.8467 68.2168 86.4017C68.2168 89.9567 71.1512 92.8386 74.7709 92.8386Z" fill="#B2A3F6"/>
<path d="M116.254 118.571C123.485 118.571 129.346 112.807 129.346 105.697C129.346 98.5864 123.485 92.8223 116.254 92.8223C109.024 92.8223 103.162 98.5864 103.162 105.697C103.162 112.807 109.024 118.571 116.254 118.571Z" fill="#B2A3F6"/>
<path d="M146.822 131.429C151.642 131.429 155.55 127.589 155.55 122.852C155.55 118.115 151.642 114.274 146.822 114.274C142.001 114.274 138.094 118.115 138.094 122.852C138.094 127.589 142.001 131.429 146.822 131.429Z" fill="#B2A3F6"/>
<path d="M162.103 24.2009C165.723 24.2009 168.657 21.319 168.657 17.764C168.657 14.209 165.723 11.3271 162.103 11.3271C158.483 11.3271 155.549 14.209 155.549 17.764C155.549 21.319 158.483 24.2009 162.103 24.2009Z" fill="#B2A3F6"/>
<path d="M131.538 24.1862C137.568 24.1862 142.456 19.3877 142.456 13.4686C142.456 7.54941 137.568 2.75098 131.538 2.75098C125.508 2.75098 120.619 7.54941 120.619 13.4686C120.619 19.3877 125.508 24.1862 131.538 24.1862Z" fill="#B2A3F6"/>
<path d="M138.093 92.8218C142.914 92.8218 146.821 88.9816 146.821 84.2444C146.821 79.5072 142.914 75.667 138.093 75.667C133.273 75.667 129.365 79.5072 129.365 84.2444C129.365 88.9816 133.273 92.8218 138.093 92.8218Z" fill="#B2A3F6"/>
<path d="M55.1252 187.208C62.3557 187.208 68.2172 181.444 68.2172 174.334C68.2172 167.223 62.3557 161.459 55.1252 161.459C47.8947 161.459 42.0332 167.223 42.0332 174.334C42.0332 181.444 47.8947 187.208 55.1252 187.208Z" fill="#B2A3F6"/>
<path d="M181.75 200.066C188.981 200.066 194.842 194.301 194.842 187.191C194.842 180.081 188.981 174.316 181.75 174.316C174.52 174.316 168.658 180.081 168.658 187.191C168.658 194.301 174.52 200.066 181.75 200.066Z" fill="#B2A3F6"/>
<path d="M164.293 230.094C171.524 230.094 177.385 224.33 177.385 217.219C177.385 210.109 171.524 204.345 164.293 204.345C157.063 204.345 151.201 210.109 151.201 217.219C151.201 224.33 157.063 230.094 164.293 230.094Z" fill="#B2A3F6"/>
<path d="M61.681 230.097C70.1213 230.097 76.9635 223.374 76.9635 215.082C76.9635 206.79 70.1213 200.067 61.681 200.067C53.2407 200.067 46.3984 206.79 46.3984 215.082C46.3984 223.374 53.2407 230.097 61.681 230.097Z" fill="#B2A3F6"/>
<path d="M15.8322 118.571C23.0627 118.571 28.9242 112.807 28.9242 105.697C28.9242 98.5864 23.0627 92.8223 15.8322 92.8223C8.60172 92.8223 2.74023 98.5864 2.74023 105.697C2.74023 112.807 8.60172 118.571 15.8322 118.571Z" fill="#B2A3F6"/>
<path d="M81.3265 140.006C90.9766 140.006 98.7995 132.326 98.7995 122.851C98.7995 113.377 90.9766 105.696 81.3265 105.696C71.6764 105.696 63.8535 113.377 63.8535 122.851C63.8535 132.326 71.6764 140.006 81.3265 140.006Z" fill="#FC4C04"/>
<path d="M173.02 114.275C182.67 114.275 190.493 106.594 190.493 97.1197C190.493 87.6454 182.67 79.9648 173.02 79.9648C163.37 79.9648 155.547 87.6454 155.547 97.1197C155.547 106.594 163.37 114.275 173.02 114.275Z" fill="#FC4C04"/>
<path d="M221.043 187.208C228.274 187.208 234.135 181.444 234.135 174.334C234.135 167.223 228.274 161.459 221.043 161.459C213.813 161.459 207.951 167.223 207.951 174.334C207.951 181.444 213.813 187.208 221.043 187.208Z" fill="#FC4C04"/>
<path d="M234.151 135.728C241.381 135.728 247.243 129.964 247.243 122.853C247.243 115.743 241.381 109.979 234.151 109.979C226.92 109.979 221.059 115.743 221.059 122.853C221.059 129.964 226.92 135.728 234.151 135.728Z" fill="#FC4C04"/>
<path d="M183.938 75.6666C189.968 75.6666 194.856 70.8682 194.856 64.949C194.856 59.0299 189.968 54.2314 183.938 54.2314C177.908 54.2314 173.02 59.0299 173.02 64.949C173.02 70.8682 177.908 75.6666 183.938 75.6666Z" fill="#FC4C04"/>
<path d="M186.113 41.3569C190.933 41.3569 194.841 37.5167 194.841 32.7795C194.841 28.0424 190.933 24.2021 186.113 24.2021C181.292 24.2021 177.385 28.0424 177.385 32.7795C177.385 37.5167 181.292 41.3569 186.113 41.3569Z" fill="#FC4C04"/>
<path d="M205.759 49.9343C209.379 49.9343 212.313 47.0524 212.313 43.4974C212.313 39.9424 209.379 37.0605 205.759 37.0605C202.139 37.0605 199.205 39.9424 199.205 43.4974C199.205 47.0524 202.139 49.9343 205.759 49.9343Z" fill="#FC4C04"/>
<path d="M240.706 101.416C244.326 101.416 247.261 98.5339 247.261 94.9789C247.261 91.4239 244.326 88.542 240.706 88.542C237.087 88.542 234.152 91.4239 234.152 94.9789C234.152 98.5339 237.087 101.416 240.706 101.416Z" fill="#FC4C04"/>
<path d="M52.933 45.654C56.5527 45.654 59.4871 42.7722 59.4871 39.2172C59.4871 35.6622 56.5527 32.7803 52.933 32.7803C49.3133 32.7803 46.3789 35.6622 46.3789 39.2172C46.3789 42.7722 49.3133 45.654 52.933 45.654Z" fill="#FC4C04"/>
<path d="M44.2064 101.416C47.8262 101.416 50.7605 98.5339 50.7605 94.9789C50.7605 91.4239 47.8262 88.542 44.2064 88.542C40.5867 88.542 37.6523 91.4239 37.6523 94.9789C37.6523 98.5339 40.5867 101.416 44.2064 101.416Z" fill="#FC4C04"/>
<path d="M61.6771 109.993C65.2969 109.993 68.2312 107.111 68.2312 103.556C68.2312 100.001 65.2969 97.1191 61.6771 97.1191C58.0574 97.1191 55.123 100.001 55.123 103.556C55.123 107.111 58.0574 109.993 61.6771 109.993Z" fill="#FC4C04"/>
<path d="M83.4994 28.4822C87.1191 28.4822 90.0535 25.6003 90.0535 22.0453C90.0535 18.4903 87.1191 15.6084 83.4994 15.6084C79.8797 15.6084 76.9453 18.4903 76.9453 22.0453C76.9453 25.6003 79.8797 28.4822 83.4994 28.4822Z" fill="#FC4C04"/>
<path d="M240.706 157.177C244.326 157.177 247.261 154.295 247.261 150.74C247.261 147.185 244.326 144.303 240.706 144.303C237.087 144.303 234.152 147.185 234.152 150.74C234.152 154.295 237.087 157.177 240.706 157.177Z" fill="#FC4C04"/>
<path d="M218.868 88.5431C227.309 88.5431 234.151 81.8208 234.151 73.5284C234.151 65.236 227.309 58.5137 218.868 58.5137C210.428 58.5137 203.586 65.236 203.586 73.5284C203.586 81.8208 210.428 88.5431 218.868 88.5431Z" fill="#FC4C04"/>
<path d="M205.76 122.852C211.79 122.852 216.679 118.054 216.679 112.135C216.679 106.215 211.79 101.417 205.76 101.417C199.73 101.417 194.842 106.215 194.842 112.135C194.842 118.054 199.73 122.852 205.76 122.852Z" fill="#FC4C04"/>
<path d="M57.315 75.6666C63.3451 75.6666 68.2334 70.8682 68.2334 64.949C68.2334 59.0299 63.3451 54.2314 57.315 54.2314C51.2849 54.2314 46.3965 59.0299 46.3965 64.949C46.3965 70.8682 51.2849 75.6666 57.315 75.6666Z" fill="#FC4C04"/>
<path d="M105.334 45.6383C111.365 45.6383 116.253 40.8399 116.253 34.9207C116.253 29.0016 111.365 24.2031 105.334 24.2031C99.3044 24.2031 94.416 29.0016 94.416 34.9207C94.416 40.8399 99.3044 45.6383 105.334 45.6383Z" fill="#FC4C04"/>
<path d="M76.9605 49.9351C81.7808 49.9351 85.6885 46.0948 85.6885 41.3577C85.6885 36.6205 81.7808 32.7803 76.9605 32.7803C72.1401 32.7803 68.2324 36.6205 68.2324 41.3577C68.2324 46.0948 72.1401 49.9351 76.9605 49.9351Z" fill="#FC4C04"/>
<path d="M28.9234 84.2456C33.7437 84.2456 37.6514 80.4054 37.6514 75.6682C37.6514 70.9311 33.7437 67.0908 28.9234 67.0908C24.103 67.0908 20.1953 70.9311 20.1953 75.6682C20.1953 80.4054 24.103 84.2456 28.9234 84.2456Z" fill="#FC4C04"/>
<path d="M212.314 152.88C217.134 152.88 221.042 149.04 221.042 144.303C221.042 139.566 217.134 135.726 212.314 135.726C207.494 135.726 203.586 139.566 203.586 144.303C203.586 149.04 207.494 152.88 212.314 152.88Z" fill="#FC4C04"/>
<path d="M118.445 157.18C126.885 157.18 133.727 150.457 133.727 142.165C133.727 133.873 126.885 127.15 118.445 127.15C110.004 127.15 103.162 133.873 103.162 142.165C103.162 150.457 110.004 157.18 118.445 157.18Z" fill="#FC4C04"/>
<path d="M90.0542 165.755C94.8746 165.755 98.7822 161.915 98.7822 157.178C98.7822 152.441 94.8746 148.601 90.0542 148.601C85.2338 148.601 81.3262 152.441 81.3262 157.178C81.3262 161.915 85.2338 165.755 90.0542 165.755Z" fill="#FC4C04"/>
<path d="M94.4182 200.066C101.649 200.066 107.51 194.301 107.51 187.191C107.51 180.081 101.649 174.316 94.4182 174.316C87.1877 174.316 81.3262 180.081 81.3262 187.191C81.3262 194.301 87.1877 200.066 94.4182 200.066Z" fill="#FC4C04"/>
<path d="M94.4175 225.798C99.2379 225.798 103.146 221.958 103.146 217.221C103.146 212.484 99.2379 208.644 94.4175 208.644C89.5971 208.644 85.6895 212.484 85.6895 217.221C85.6895 221.958 89.5971 225.798 94.4175 225.798Z" fill="#FC4C04"/>
</svg>
