<svg width="250" height="250" viewBox="0 0 250 250" fill="none" xmlns="http://www.w3.org/2000/svg">
<rect width="250" height="250" rx="125" fill="white"/>
<path d="M135.837 148.334C149.862 148.334 161.232 136.964 161.232 122.939C161.232 108.914 149.862 97.5439 135.837 97.5439C121.812 97.5439 110.442 108.914 110.442 122.939C110.442 136.964 121.812 148.334 135.837 148.334Z" fill="#57BEEA"/>
<path d="M135.837 214.54C85.248 214.54 44.2373 173.529 44.2373 122.94C44.2373 72.3506 85.248 31.3398 135.837 31.3398C186.427 31.3398 227.437 72.3506 227.437 122.94C227.437 173.529 186.427 214.54 135.837 214.54ZM135.837 209.924C183.878 209.924 222.822 170.98 222.822 122.94C222.822 74.8996 183.878 35.9552 135.837 35.9552C87.797 35.9552 48.8527 74.8996 48.8527 122.94C48.8527 170.98 87.797 209.924 135.837 209.924Z" fill="#292929"/>
<path d="M180.616 73.8405C194.624 73.8405 205.98 62.4846 205.98 48.4764C205.98 34.4682 194.624 23.1123 180.616 23.1123C166.608 23.1123 155.252 34.4682 155.252 48.4764C155.252 62.4846 166.608 73.8405 180.616 73.8405Z" fill="#292929"/>
<path d="M179.712 228.394C193.72 228.394 205.076 217.038 205.076 203.03C205.076 189.022 193.72 177.666 179.712 177.666C165.704 177.666 154.348 189.022 154.348 203.03C154.348 217.038 165.704 228.394 179.712 228.394Z" fill="#292929"/>
<path d="M46.5545 154.008C60.5627 154.008 71.9186 142.652 71.9186 128.643C71.9186 114.635 60.5627 103.279 46.5545 103.279C32.5463 103.279 21.1904 114.635 21.1904 128.643C21.1904 142.652 32.5463 154.008 46.5545 154.008Z" fill="#292929"/>
</svg>
