<svg width="250" height="250" viewBox="0 0 250 250" fill="none" xmlns="http://www.w3.org/2000/svg">
<g clip-path="url(#clip0_242_94134)">
<path d="M125 250C194.036 250 250 194.036 250 125C250 55.9644 194.036 0 125 0C55.9644 0 0 55.9644 0 125C0 194.036 55.9644 250 125 250Z" fill="#4CB8D1"/>
<path fill-rule="evenodd" clip-rule="evenodd" d="M79.0873 64.7109L82.1967 59.1094C82.9283 57.775 84.004 56.6611 85.312 55.8834C86.62 55.1057 88.1125 54.6928 89.6342 54.6875H159.595C162.494 54.6875 165.189 56.1875 166.759 58.6562H198.462V114.438L201.97 120.609C202.729 121.948 203.128 123.461 203.128 125C203.128 126.539 202.729 128.052 201.97 129.391L198.462 135.562V159.562L171.611 182.828L166.986 190.961C166.249 192.275 165.177 193.371 163.878 194.135C162.58 194.9 161.102 195.306 159.595 195.312H89.6342C88.1125 195.307 86.62 194.894 85.312 194.117C84.004 193.339 82.9283 192.225 82.1967 190.891L82.0014 190.547H50.767V134.297L47.9936 129.305C47.2631 127.985 46.8799 126.501 46.8799 124.992C46.8799 123.484 47.2631 122 47.9936 120.68L50.767 115.687V90.4297L79.0873 64.7109ZM89.6342 63.4297L55.4311 125L89.6342 186.57H159.595L194.572 125L159.595 63.4297H89.6342ZM92.7983 68.9922H156.462L188.283 125L156.462 181.016H92.7983L61.6811 125L92.7983 68.9922ZM107.509 92.8203L90.4077 124.602L107.517 156.383H144.048L161.15 124.602L144.04 92.8203H107.509Z" fill="white"/>
</g>
<defs>
<clipPath id="clip0_242_94134">
<rect width="250" height="250" rx="125" fill="white"/>
</clipPath>
</defs>
</svg>
