<svg width="250" height="250" viewBox="0 0 250 250" fill="none" xmlns="http://www.w3.org/2000/svg">
<path d="M166.085 20.3508C165.891 12.9864 172.481 6.00967 181.008 6.39727C188.372 6.78486 194.574 13.1802 194.574 20.9321C194.574 28.8779 187.984 35.0794 179.845 34.8856C172.093 34.6918 165.891 28.2965 166.085 20.3508ZM196.318 207.366C204.264 207.366 210.465 213.568 210.465 221.514C210.465 229.459 204.07 235.855 196.124 235.855C188.372 235.855 181.977 229.459 181.977 221.707C181.977 213.568 188.372 207.366 196.318 207.366ZM14.1473 149.227C6.00775 149.227 0 142.831 0 134.692C0 126.94 6.39535 120.738 14.3411 120.932C22.2868 120.932 28.4884 127.327 28.4884 135.467C28.2946 143.025 21.8992 149.227 14.1473 149.227ZM172.093 58.3353C172.093 51.5523 177.519 46.1259 184.302 46.1259C190.891 46.1259 196.318 51.5523 196.512 58.1414C196.512 64.7306 191.085 70.3508 184.302 70.5446C177.519 70.5446 172.093 65.1182 172.093 58.3353ZM44.7674 100.583C51.5504 100.583 57.1705 106.01 57.1705 112.599C57.1705 119.188 51.5504 124.808 44.9612 124.808C38.1783 124.808 32.7519 119.382 32.7519 112.599C32.7519 106.01 37.9845 100.583 44.7674 100.583ZM215.891 74.8081C209.302 74.8081 203.682 69.3818 203.876 62.7926C203.876 56.0097 209.496 50.5833 216.085 50.5833C222.674 50.7771 228.101 56.2035 228.101 62.7926C228.295 69.5756 222.674 74.8081 215.891 74.8081ZM161.628 218.413C154.845 218.413 149.419 212.793 149.419 206.203C149.419 199.614 154.845 194.188 161.628 193.994C168.217 193.8 173.837 199.614 173.837 206.203C173.837 212.793 168.217 218.413 161.628 218.413ZM44.9612 82.9477C44.9612 89.7306 39.5349 95.157 32.7519 94.9632C26.1628 94.9632 20.7364 89.5368 20.7364 82.7539C20.7364 76.1647 26.1628 70.5446 32.7519 70.5446C39.3411 70.5446 44.9612 76.1647 44.9612 82.9477ZM141.667 243.607C134.884 243.607 129.651 238.18 129.651 231.397C129.651 224.614 135.078 219.382 141.667 219.382C148.45 219.382 153.876 224.808 153.876 231.591C153.876 238.374 148.45 243.607 141.667 243.607ZM105.814 212.017C105.814 206.203 110.465 201.746 116.085 201.746C121.899 201.746 126.55 206.591 126.357 212.405C126.357 218.219 121.705 222.676 115.891 222.676C110.271 222.676 105.62 218.025 105.814 212.017ZM222.481 94.7694C222.481 100.583 217.829 105.234 212.016 105.234C206.395 105.234 201.744 100.583 201.744 94.7694C201.744 88.9554 206.395 84.3042 212.209 84.3042C217.829 84.3042 222.481 88.9554 222.481 94.7694ZM72.6744 70.3508C72.6744 76.1647 68.0233 80.6221 62.4031 80.6221C56.5891 80.6221 51.938 75.9709 52.1318 70.157C52.1318 64.343 56.5891 59.8856 62.4031 59.8856C68.4109 59.8856 72.8682 64.343 72.6744 70.3508ZM84.8837 100.002C84.8837 105.816 80.4264 110.467 74.6124 110.467C68.7984 110.467 64.1473 106.01 64.1473 100.196C64.1473 94.188 68.6047 89.7306 74.6124 89.7306C80.4264 89.7306 84.8837 94.188 84.8837 100.002ZM47.8682 43.219C47.8682 37.405 52.5194 32.9477 58.3333 32.9477C64.1473 32.9477 68.6047 37.5988 68.6047 43.4128C68.6047 49.2267 64.1473 53.6841 58.3333 53.8779C52.3256 53.6841 47.6744 49.0329 47.8682 43.219ZM169.961 90.312C169.961 84.498 174.612 79.8469 180.233 79.8469C186.047 79.8469 190.698 84.498 190.698 90.312C190.698 96.1259 186.047 100.583 180.233 100.583C174.419 100.777 169.961 96.1259 169.961 90.312ZM135.853 176.359C141.473 176.359 146.124 181.01 146.124 186.824C146.124 192.638 141.473 197.289 135.659 197.095C129.845 197.095 125.388 192.444 125.388 186.63C125.388 181.01 130.039 176.359 135.853 176.359ZM105.233 229.459C105.233 235.273 100.775 239.731 94.9612 239.731C89.1473 239.731 84.4961 235.079 84.4961 229.459C84.4961 223.645 89.1473 218.994 94.9612 218.994C100.775 218.994 105.233 223.645 105.233 229.459ZM237.403 114.924C231.783 114.924 227.132 110.079 227.132 104.653C227.132 98.8391 231.977 94.188 237.791 94.188C243.411 94.188 248.256 99.0329 248.062 104.653C248.062 110.273 243.217 114.924 237.403 114.924ZM107.364 191.281C107.364 196.126 103.295 200.196 98.4496 200.196C93.4109 200.196 89.5349 196.126 89.5349 191.281C89.5349 186.242 93.6046 182.366 98.6434 182.366C103.488 182.366 107.364 186.242 107.364 191.281ZM89.5349 56.5911C94.5736 56.5911 98.4496 60.467 98.4496 65.5058C98.4496 70.3508 94.3798 74.4205 89.5349 74.4205C84.6899 74.4205 80.4264 70.3508 80.6202 65.312C80.6202 60.6608 84.6899 56.5911 89.5349 56.5911ZM109.302 165.893C109.302 160.855 113.178 156.979 118.023 156.979C123.062 156.979 127.132 160.855 127.132 165.893C127.132 170.738 123.256 174.808 118.217 174.808C113.178 174.614 109.302 170.932 109.302 165.893ZM77.3256 217.25C72.2868 217.25 68.2171 213.374 68.2171 208.529C68.2171 203.684 72.093 199.614 77.1318 199.614C82.1705 199.614 86.2403 203.49 86.0465 208.529C86.0465 213.374 82.3643 217.25 77.3256 217.25ZM179.651 116.281C179.651 121.126 175.775 125.002 170.93 125.002C165.891 125.002 162.016 121.126 162.016 116.087C162.016 111.048 165.891 107.172 170.93 107.172C175.969 107.172 179.651 111.048 179.651 116.281ZM85.0775 47.2887C80.0388 47.2887 76.1628 43.6066 76.1628 38.5678C76.1628 33.529 80.2326 29.4593 85.0775 29.4593C89.9225 29.4593 93.9922 33.529 93.9922 38.374C93.9922 43.4128 90.1163 47.2887 85.0775 47.2887ZM202.713 129.265C197.674 129.265 193.992 125.39 193.992 120.351C193.992 115.506 197.868 111.63 202.907 111.436C207.946 111.436 211.822 115.312 211.628 120.545C211.628 125.777 207.752 129.459 202.713 129.265ZM101.357 104.072C96.5116 104.072 92.6357 100.002 92.6357 95.157C92.6357 90.312 96.8992 86.436 101.744 86.436C106.589 86.436 110.465 90.5058 110.465 95.3508C110.465 100.196 106.395 104.072 101.357 104.072ZM228.101 139.149C223.062 138.955 219.186 134.886 219.38 129.847C219.574 125.002 223.643 121.126 228.488 121.32C233.527 121.514 237.403 125.583 237.209 130.816C237.016 135.661 232.946 139.343 228.101 139.149ZM124.806 104.072C120.543 104.072 117.248 100.777 117.248 96.5135C117.248 92.25 120.736 88.9554 125 88.9554C129.264 88.9554 132.558 92.25 132.558 96.5135C132.364 100.777 129.07 104.072 124.806 104.072ZM207.946 149.808C207.946 145.545 211.24 142.25 215.504 142.056C219.767 142.056 223.062 145.351 223.062 149.614C223.062 153.878 219.38 157.754 215.504 157.56C211.434 157.56 208.14 154.072 207.946 149.808ZM115.891 39.7306C115.891 43.9942 112.597 47.2887 108.333 47.2887C104.07 47.2887 100.775 43.8004 100.775 39.5368C100.775 35.2732 104.264 31.9787 108.721 31.9787C112.791 32.1725 115.891 35.467 115.891 39.7306ZM115.116 145.157C115.116 149.421 111.822 152.715 107.752 152.715C103.295 152.715 100 149.421 100 145.157C100 140.893 103.295 137.599 107.558 137.599C111.822 137.405 115.116 140.7 115.116 145.157ZM87.9845 177.909C83.7209 177.909 80.2326 174.614 80.2326 170.351C80.2326 166.087 83.7209 162.599 87.9845 162.599C92.0543 162.599 95.5426 166.087 95.5426 170.157C95.5426 174.614 92.2481 177.909 87.9845 177.909ZM197.674 140.118C197.674 144.576 194.38 147.676 190.116 147.676C186.047 147.676 182.558 143.994 182.558 139.924C182.558 135.661 186.047 132.366 190.31 132.366C194.38 132.366 197.674 135.855 197.674 140.118ZM158.333 128.103C162.791 128.103 165.891 131.203 165.891 135.661C165.891 139.924 162.597 143.413 158.333 143.219C154.07 143.219 150.581 139.731 150.581 135.661C150.581 131.397 153.876 128.103 158.333 128.103ZM74.2248 187.599C74.2248 191.862 70.7364 195.157 66.6667 195.157C62.4031 195.157 59.1085 191.862 59.1085 187.599C59.1085 183.335 62.5969 179.847 66.6667 179.847C70.7364 180.041 74.2248 183.529 74.2248 187.599ZM112.791 74.2267C108.527 74.2267 105.233 70.9321 105.233 66.6686C105.233 62.5988 108.721 59.1104 112.984 58.9166C117.054 58.7228 120.543 62.405 120.543 66.6686C120.349 70.9321 117.054 74.2267 112.791 74.2267ZM182.364 153.684C182.364 157.366 179.457 160.467 175.775 160.467C172.093 160.467 169.38 157.56 169.38 153.878C169.38 150.196 172.287 147.289 175.775 147.289C179.457 147.289 182.364 150.196 182.364 153.684ZM109.302 125.971C109.302 129.653 106.395 132.56 102.713 132.56C99.4186 132.56 96.124 129.265 96.124 125.971C96.124 122.483 99.2248 119.188 102.907 119.382C106.395 119.382 109.302 122.289 109.302 125.971ZM62.0155 162.017C65.6977 162.017 68.6047 164.924 68.4109 168.607C68.4109 172.095 65.3101 175.196 61.8217 175.196C58.1395 175.002 55.2326 171.901 55.2326 168.413C55.2326 164.537 58.1395 161.824 62.0155 162.017ZM143.798 108.335C140.116 108.335 137.209 105.622 137.209 101.94C137.209 98.2577 139.922 95.3508 143.798 95.3508C147.481 95.3508 150.388 98.2577 150.388 101.746C150.388 105.428 147.481 108.335 143.798 108.335ZM131.783 65.5058C135.465 65.5058 138.178 68.4128 138.178 72.0949C138.178 75.7771 135.271 78.6841 131.589 78.6841C127.907 78.6841 125 75.7771 125 71.9011C125.194 68.4128 128.101 65.5058 131.783 65.5058ZM89.5349 151.165C89.5349 154.847 86.6279 157.754 83.1395 157.948C79.6512 157.948 76.5504 154.653 76.5504 151.165C76.5504 147.483 79.4574 144.769 83.1395 144.769C86.8217 144.769 89.5349 147.483 89.5349 151.165ZM144.186 143.025C147.868 143.025 150.581 145.932 150.581 149.614C150.581 153.296 147.674 156.01 143.992 156.01C140.116 156.01 137.403 153.103 137.403 149.421C137.597 145.738 140.504 142.831 144.186 143.025ZM207.946 163.374C207.946 167.25 205.233 170.157 201.357 169.963C197.674 169.963 194.961 167.056 194.767 163.374C194.767 159.886 197.674 156.785 201.163 156.785C204.845 156.979 207.946 159.886 207.946 163.374ZM127.519 38.5678C131.202 38.5678 133.915 41.281 133.915 44.9632C133.915 48.6453 131.008 51.5523 127.519 51.5523C123.837 51.5523 120.93 48.6453 120.93 44.9632C120.93 41.281 123.837 38.5678 127.519 38.5678ZM147.674 53.2965C147.674 56.3973 145.155 58.9166 141.86 58.7228C138.76 58.7228 136.434 56.2035 136.434 53.1027C136.434 50.0019 138.953 47.4825 142.054 47.4825C145.349 47.6763 147.868 50.1957 147.674 53.2965ZM56.0078 151.359C56.0078 148.258 58.5271 145.932 61.6279 145.932C64.7287 145.932 67.4419 148.645 67.2481 151.746C67.0543 154.847 64.5349 157.366 61.6279 157.366C58.3333 157.172 55.814 154.653 56.0078 151.359ZM192.636 172.095C192.636 175.39 190.116 177.909 187.016 177.909C183.915 177.909 181.202 175.39 181.202 172.289C181.202 169.188 183.721 166.669 187.016 166.669C190.116 166.669 192.442 168.994 192.636 172.095ZM88.3721 134.498C88.3721 137.599 85.8527 140.118 82.7519 140.118C79.6512 140.118 77.1318 137.405 77.1318 134.304C77.1318 131.203 79.845 128.878 82.7519 128.878C85.8527 128.878 88.3721 131.203 88.3721 134.498ZM146.318 85.8546C143.023 85.8546 140.698 83.3353 140.698 80.2345C140.698 77.1337 143.217 74.8081 146.318 74.8081C149.612 74.8081 151.938 77.1337 151.938 80.4283C152.132 83.529 149.806 85.8546 146.318 85.8546ZM161.434 156.979C164.535 156.979 166.86 159.304 166.86 162.599C166.86 165.893 164.341 168.413 161.047 168.413C157.946 168.413 155.62 165.893 155.62 162.793C155.814 159.304 158.333 156.979 161.434 156.979ZM69.1861 137.599C69.1861 140.312 67.0543 142.444 64.3411 142.444C61.8217 142.444 59.3023 140.118 59.4961 137.405C59.4961 134.692 61.8217 132.56 64.5349 132.56C67.2481 132.754 69.3798 134.886 69.1861 137.599ZM178.101 176.746C178.101 179.459 175.969 181.591 173.256 181.591C170.736 181.591 168.411 179.265 168.411 176.746C168.411 174.033 170.736 171.901 173.45 171.901C176.163 171.901 178.101 174.033 178.101 176.746ZM152.713 58.1414C155.62 58.1414 157.752 60.0794 157.752 62.9864C157.752 65.6996 155.62 67.8314 152.907 67.8314C150.194 67.8314 148.062 65.8934 148.062 63.1802C147.868 60.0794 149.806 58.1414 152.713 58.1414Z" fill="#01A996"/>
</svg>
