<svg width="250" height="250" viewBox="0 0 250 250" fill="none" xmlns="http://www.w3.org/2000/svg">
<path d="M147.001 71.072L102.993 46.5362L147.001 22V71.072Z" fill="#32DFC5"/>
<path d="M97.6837 91.1018L53.6768 66.566L97.6837 42.0303V91.1018Z" fill="#67E9D1"/>
<path d="M90.7159 137.308L46.709 112.772L90.7159 88.2363V137.308Z" fill="#0BDBB5"/>
<path d="M58.9884 180.948L14.9814 156.413L58.9884 131.877V180.948Z" fill="#72EBD6"/>
<path d="M138.205 215.056L94.1982 190.52L138.205 165.984V215.056Z" fill="#99EFE9"/>
<path d="M235.018 169.216L191.011 144.679L235.018 120.144V169.216Z" fill="#1DD7D6"/>
<path d="M235.018 120.142L191.011 95.6061L235.018 71.0703V120.142Z" fill="#00D4CD"/>
<path d="M191.01 95.6086L147.003 71.0729L191.01 46.5371V95.6086Z" fill="#00D6C2"/>
<path d="M147.001 169.216L102.993 144.679L147.001 120.144V169.216Z" fill="#67E7DC"/>
<path d="M141.69 116.942L97.6826 92.4059L141.69 67.8701V116.942Z" fill="#6AE6D9"/>
<path d="M36.9863 69.0127L80.9937 93.5489L36.9863 118.085V69.0127Z" fill="#99F1DD"/>
<path d="M58.9873 119.595L102.994 144.131L58.9873 168.667V119.595Z" fill="#99F1DD"/>
<path d="M97.6826 61.8701L141.69 86.4059L97.6826 110.942V61.8701Z" fill="#0BDABB"/>
<path d="M88.1514 156.414L132.159 180.95L88.1514 205.486V156.414Z" fill="#1BDAC7"/>
<path d="M147.926 178.418L191.933 202.954L147.926 227.489V178.418Z" fill="#4DE3DE"/>
<path d="M191.011 144.679L235.018 169.215L191.011 193.751V144.679Z" fill="#00D3D3"/>
<path d="M191.011 95.6074L235.018 120.143L191.011 144.679V95.6074Z" fill="#34DED6"/>
<path d="M191.011 46.5371L235.018 71.0729L191.011 95.6086V46.5371Z" fill="#19DACD"/>
<path d="M147.003 71.0703L191.01 95.6061L147.003 120.142V71.0703Z" fill="#34DFD0"/>
<path d="M147.003 22L191.01 46.5362L147.003 71.072V22Z" fill="#00D7BC"/>
<path d="M147.003 120.144L191.01 144.68L147.003 169.216V120.144Z" fill="#34DFD3"/>
<path d="M191.01 144.679L147.003 120.143L191.01 95.6074V144.679Z" fill="#0DD8CB"/>
<path d="M191.01 193.751L147.003 169.215L191.01 144.679V193.751Z" fill="#4BE2DC"/>
</svg>
