<svg width="250" height="250" viewBox="0 0 250 250" fill="none" xmlns="http://www.w3.org/2000/svg">
<path d="M234.099 147.699C234.099 152.499 233.199 157.149 231.599 161.399C226.049 175.949 211.999 186.249 195.499 186.249C178.649 186.249 164.299 175.449 159.049 160.399C127.899 162.649 110.049 148.749 102.649 122.199C83.9494 117.099 70.1494 100.049 70.1494 79.6994C70.1494 66.5494 75.8994 54.7994 85.0494 46.6994C92.7994 39.8494 103.049 35.6494 114.249 35.6494C127.099 35.6494 138.649 41.0994 146.699 49.8494C152.099 46.2994 158.599 44.2494 165.499 44.2494C170.349 44.2494 174.949 45.2494 179.149 47.0494C191.249 52.2494 199.799 64.2494 199.949 78.1994C199.949 78.3494 199.949 78.4994 199.949 78.6994V79.2994C201.699 78.8994 203.549 78.6994 205.399 78.6994C213.799 78.6994 221.249 82.6994 225.949 88.9494C229.199 93.2494 231.149 98.6494 231.149 104.449C231.149 110.499 229.049 116.349 225.149 120.949C224.849 121.299 224.549 121.649 224.249 121.999C230.399 128.849 234.099 137.849 234.099 147.699Z" fill="#FF5CAA"/>
<path d="M196.449 150.55C171.499 150.55 151.249 130.3 151.249 105.4C151.249 94.0505 155.499 83.2005 163.199 74.8005C164.199 73.7505 165.849 73.6505 166.899 74.6505C167.949 75.6505 168.049 77.3005 167.049 78.3505C160.249 85.7505 156.499 95.3505 156.499 105.4C156.499 127.4 174.449 145.3 196.499 145.3C199.349 145.3 202.199 145 204.999 144.4C206.449 144.1 207.799 145 208.099 146.4C208.399 147.8 207.499 149.2 206.099 149.5C202.849 150.2 199.649 150.55 196.449 150.55ZM141.949 93.0005C125.099 93.0005 110.949 79.8505 109.799 63.0505C109.699 61.6005 110.799 60.3505 112.249 60.2505C113.749 60.1505 114.949 61.2505 115.049 62.7005C116.049 76.7505 127.849 87.7505 141.999 87.7505C143.449 87.7505 144.599 88.9005 144.599 90.3505C144.599 91.8005 143.399 93.0005 141.949 93.0005ZM189.049 87.3005C188.299 87.3005 187.549 87.0005 187.049 86.3505C186.149 85.2505 186.299 83.6005 187.399 82.6505C190.899 79.7505 195.049 77.7505 199.499 76.8005C200.949 76.4505 202.299 77.4005 202.599 78.8005C202.899 80.2005 201.999 81.6005 200.599 81.9005C196.999 82.6505 193.599 84.3005 190.799 86.6505C190.199 87.1005 189.649 87.3005 189.049 87.3005ZM134.899 65.5005C134.499 65.5005 134.099 65.4005 133.699 65.2005C132.399 64.5505 131.899 62.9505 132.599 61.6505C135.549 56.0005 139.899 51.2005 145.249 47.7005C146.449 46.9005 148.099 47.2505 148.899 48.4505C149.699 49.6505 149.349 51.3005 148.149 52.1005C143.549 55.1005 139.799 59.2505 137.249 64.1005C136.749 64.9505 135.849 65.5005 134.899 65.5005Z" fill="#103849"/>
<path d="M195.499 188.549C178.699 188.549 163.649 178.249 157.499 162.749C127.849 164.349 108.899 151.299 100.799 124.049C81.3494 118.199 67.8994 100.149 67.8994 79.6994C67.8994 54.1494 88.6994 33.3994 114.299 33.3994C126.599 33.3994 138.449 38.3494 147.099 46.9994C152.649 43.7494 158.999 41.9994 165.499 41.9994C185.049 41.9994 201.099 57.3494 202.199 76.6494C203.249 76.5494 204.349 76.4494 205.449 76.4494C220.899 76.4494 233.499 89.0494 233.499 104.499C233.499 110.949 231.299 117.099 227.299 122.049C233.149 129.299 236.349 138.299 236.349 147.699C236.399 170.199 218.049 188.549 195.499 188.549ZM159.049 158.049C159.999 158.049 160.899 158.649 161.199 159.599C166.249 174.149 180.049 183.949 195.499 183.949C215.499 183.949 231.799 167.699 231.799 147.699C231.799 138.749 228.499 130.199 222.599 123.549C221.799 122.649 221.799 121.299 222.649 120.449C226.699 116.099 228.949 110.399 228.949 104.449C228.949 91.4994 218.399 80.9994 205.449 80.9994C203.749 80.9994 202.099 81.1994 200.449 81.5494C199.749 81.6994 199.049 81.5494 198.499 81.0994C197.949 80.6494 197.649 79.9994 197.649 79.2994V78.6994C197.649 60.9994 183.199 46.5494 165.449 46.5494C159.149 46.5494 153.099 48.3494 147.899 51.7494C146.949 52.3494 145.699 52.1994 144.949 51.3994C137.049 42.8494 125.849 37.9494 114.199 37.9494C91.1494 37.9494 72.3994 56.6494 72.3994 79.6994C72.3994 98.4994 85.0494 115.049 103.199 119.949C103.999 120.149 104.599 120.749 104.799 121.549C112.249 148.199 129.899 160.149 158.849 158.049C158.949 158.049 158.999 158.049 159.049 158.049Z" fill="#103849"/>
<path d="M224.301 122.049C224.301 122.049 221.301 118.949 217.201 115.699L224.301 122.049ZM109.201 191.899C107.501 188.399 106.451 184.599 106.001 180.699L109.201 191.899Z" fill="black"/>
<path d="M109.251 194.549C108.251 194.549 107.351 193.999 106.901 193.049C105.101 189.249 103.901 185.199 103.451 180.999C103.301 179.549 104.351 178.249 105.751 178.099C107.201 177.949 108.501 178.999 108.651 180.399C109.051 183.999 110.051 187.449 111.601 190.749C112.251 192.049 111.651 193.599 110.351 194.249C110.001 194.449 109.601 194.549 109.251 194.549ZM224.301 124.649C223.601 124.649 222.951 124.399 222.401 123.849C222.351 123.799 219.451 120.849 215.551 117.749C214.401 116.849 214.201 115.199 215.101 114.049C216.001 112.899 217.651 112.699 218.801 113.599C223.001 116.899 226.001 120.049 226.151 120.149C227.151 121.199 227.151 122.849 226.101 123.849C225.601 124.399 224.951 124.649 224.301 124.649Z" fill="#103849"/>
<path d="M184.899 165.099C186.249 168.899 186.949 172.849 186.949 176.899C186.949 197.549 168.799 214.299 146.399 214.299C129.799 214.299 115.499 205.099 109.249 191.899C104.099 195.399 97.8994 197.449 91.2494 197.449C76.3494 197.449 63.7494 187.199 59.7994 173.199C56.9994 173.899 54.0994 174.249 51.1994 174.249C31.6994 174.249 15.8994 158.499 15.8994 138.999C15.8994 124.049 25.1994 111.299 38.3994 106.149C37.8994 103.999 37.5994 101.799 37.5994 99.4988C37.5994 81.8488 53.9994 67.5488 74.2994 67.5488C85.9494 67.5488 96.2994 72.2488 102.999 79.6488C108.399 76.7488 114.599 75.0988 121.199 75.0988C141.749 75.0988 158.349 90.9988 158.349 110.599C158.349 111.049 158.349 111.499 158.299 111.999C175.249 115.099 188.099 130.649 188.099 149.349C188.149 154.999 186.999 160.349 184.899 165.099Z" fill="#FF5CAA"/>
<path d="M59.8011 175.85C58.6511 175.85 57.6011 175.1 57.3011 173.95C56.4011 170.7 55.9012 167.299 55.9012 163.899C55.9012 149.999 63.4512 137.549 75.6512 131.399C76.9512 130.749 78.5012 131.25 79.1512 132.55C79.8012 133.85 79.3012 135.4 78.0012 136.05C67.6012 141.299 61.1512 151.95 61.1512 163.899C61.1512 166.849 61.5511 169.75 62.3511 172.55C62.7511 173.95 61.9511 175.4 60.5511 175.8C60.2512 175.8 60.0012 175.85 59.8011 175.85ZM184.901 167.75C183.851 167.75 182.801 167.1 182.451 166C180.151 159.65 175.901 154.05 170.201 149.8C169.051 148.95 168.801 147.299 169.651 146.149C170.501 144.999 172.151 144.75 173.301 145.6C179.851 150.45 184.751 156.9 187.351 164.25C187.851 165.6 187.151 167.1 185.751 167.6C185.501 167.7 185.201 167.75 184.901 167.75ZM38.4012 108.849C37.3512 108.849 36.3512 108.199 35.9512 107.199C35.4012 105.849 36.1012 104.35 37.4512 103.8C40.6012 102.55 43.9011 101.75 47.3511 101.4C48.8011 101.25 50.1012 102.299 50.2512 103.75C50.4011 105.2 49.3512 106.5 47.9012 106.65C44.9512 106.95 42.1012 107.649 39.4012 108.699C39.0012 108.749 38.7012 108.849 38.4012 108.849ZM91.2512 92.2495C90.7012 92.2495 90.1512 92.0495 89.6512 91.6995C88.5012 90.7995 88.3011 89.1495 89.2011 87.9995C92.5511 83.6995 96.9012 79.9995 101.751 77.3995C103.051 76.6995 104.601 77.1995 105.301 78.4495C106.001 79.6995 105.501 81.2995 104.251 81.9995C100.001 84.2995 96.2512 87.4495 93.3512 91.1995C92.8012 91.8995 92.0512 92.2495 91.2512 92.2495Z" fill="#103849"/>
<path d="M146.399 216.599C130.299 216.599 115.649 208.249 108.349 195.199C103.149 198.199 97.2494 199.799 91.2494 199.799C76.4494 199.799 63.1494 190.099 58.2494 175.949C55.9494 176.399 53.5994 176.599 51.2494 176.599H51.1994C30.4994 176.599 13.6494 159.749 13.6494 139.099C13.6494 124.149 22.2994 110.949 35.7994 104.899C35.4994 103.149 35.3494 101.399 35.3494 99.6494C35.3494 80.7494 52.8494 65.3994 74.2994 65.3994C85.5494 65.3994 96.0994 69.5994 103.499 76.9494C108.999 74.2994 115.099 72.9494 121.249 72.9494C142.849 72.9494 160.449 89.6494 160.699 110.249C178.099 114.399 190.499 130.549 190.499 149.449C190.499 154.949 189.449 160.299 187.399 165.299C188.649 169.099 189.299 172.999 189.299 176.999C189.249 198.799 169.999 216.599 146.399 216.599ZM109.249 189.649C109.449 189.649 109.649 189.699 109.849 189.749C110.499 189.899 111.049 190.349 111.299 190.999C117.399 203.799 131.149 212.099 146.399 212.099C167.499 212.099 184.699 196.349 184.699 176.999C184.699 173.249 184.049 169.549 182.799 165.999C182.599 165.449 182.599 164.849 182.849 164.299C184.899 159.649 185.899 154.649 185.899 149.449C185.899 132.099 174.149 117.349 157.949 114.349C156.799 114.149 155.999 113.099 156.099 111.949C156.099 111.549 156.149 111.149 156.149 110.749C156.149 92.3994 140.499 77.4994 121.299 77.4994C115.299 77.4994 109.399 78.9994 104.149 81.7494C103.249 82.2494 102.099 82.0494 101.349 81.2494C94.7994 74.0494 84.9494 69.8994 74.2994 69.8994C55.3494 69.8994 39.8994 83.1994 39.8994 99.5494C39.8994 101.599 40.1494 103.649 40.6494 105.649C40.8994 106.749 40.2994 107.899 39.2494 108.349C26.4994 113.299 18.2494 125.349 18.2494 139.049C18.2494 157.199 33.0494 171.999 51.2494 171.999C53.7494 171.849 56.6494 171.649 59.2994 170.999C60.4994 170.699 61.7494 171.399 62.0494 172.599C65.7994 185.899 77.7994 195.199 91.2994 195.199C97.2494 195.199 103.049 193.399 107.999 190.049C108.299 189.749 108.749 189.649 109.249 189.649Z" fill="#103849"/>
<path d="M134.101 169.799C117.201 169.799 103.401 156.049 103.401 139.149C103.401 132.099 105.851 125.199 110.301 119.749C111.201 118.649 112.851 118.449 114.001 119.399C115.101 120.299 115.301 121.949 114.351 123.099C110.651 127.599 108.601 133.299 108.601 139.149C108.601 153.149 120.001 164.549 134.051 164.549C141.801 164.549 149.051 161.049 153.951 154.999C154.851 153.849 156.501 153.699 157.651 154.599C158.801 155.499 158.951 157.149 158.051 158.299C152.201 165.599 143.451 169.799 134.101 169.799ZM126.651 125.199C126.001 125.199 125.351 124.949 124.851 124.499C123.801 123.499 123.751 121.849 124.751 120.799C133.651 111.449 146.551 107.249 158.851 109.499C160.301 109.749 161.201 111.099 160.951 112.549C160.701 113.999 159.301 114.949 157.901 114.649C147.351 112.749 136.251 116.349 128.551 124.399C128.001 124.949 127.301 125.199 126.651 125.199Z" fill="#103849"/>
<path d="M146.499 181C146.499 175.5 145.099 170.3 142.649 165.8L146.499 181ZM87.8486 163.15C92.4986 156.3 99.6986 151.35 108.049 149.65L87.8486 163.15ZM37.8486 139.05C41.3986 137.65 45.1986 136.9 48.9986 136.9C55.1486 136.9 61.0986 138.75 66.1486 142.25M95.4986 113.25C93.5986 113.8 91.5486 114.1 89.4986 114.1C83.9486 114.1 78.5986 111.95 74.6486 108.05M187.599 111.9C190.549 109.7 194.099 108.55 197.749 108.55C198.749 108.55 199.799 108.65 200.799 108.8" fill="black"/>
<path d="M146.498 183.649C145.048 183.649 143.898 182.499 143.898 181.049C143.898 176.149 142.698 171.349 140.348 167.099C139.648 165.849 140.148 164.249 141.398 163.549C142.648 162.849 144.248 163.299 144.948 164.599C147.648 169.599 149.098 175.299 149.098 181.049C149.098 182.449 147.948 183.649 146.498 183.649ZM87.8484 165.749C87.3484 165.749 86.8484 165.599 86.3984 165.299C85.1984 164.499 84.8984 162.849 85.6984 161.649C90.8484 154.049 98.5984 148.849 107.598 147.049C109.048 146.799 110.398 147.699 110.698 149.099C110.998 150.499 110.048 151.899 108.648 152.199C101.048 153.749 94.4484 158.099 90.0984 164.549C89.4984 165.349 88.6984 165.749 87.8484 165.749ZM66.1484 144.899C65.6484 144.899 65.0984 144.749 64.6484 144.449C60.0484 141.249 54.5984 139.599 48.9984 139.599C45.4984 139.599 42.0484 140.249 38.7984 141.549C37.4484 142.099 35.9484 141.399 35.3984 140.049C34.8484 138.699 35.5484 137.199 36.8984 136.649C40.7984 135.099 44.8484 134.349 49.0484 134.349C49.0484 134.349 49.0484 134.349 49.0984 134.349C55.7984 134.349 62.1984 136.349 67.6984 140.149C68.8984 140.949 69.1984 142.599 68.3484 143.799C67.7984 144.499 66.9984 144.899 66.1484 144.899ZM89.4484 116.749C83.1984 116.749 77.2984 114.349 72.7984 109.999C71.7484 108.999 71.7484 107.349 72.7484 106.299C73.7484 105.249 75.3984 105.249 76.4484 106.249C79.9484 109.649 84.5484 111.549 89.4484 111.549C89.4484 111.549 89.4484 111.549 89.4984 111.549C91.2984 111.549 93.0984 111.299 94.7984 110.799C96.1984 110.399 97.6484 111.199 98.0484 112.549C98.4484 113.949 97.6484 115.399 96.2984 115.799C94.0484 116.449 91.6484 116.699 89.4484 116.749ZM187.598 114.549C186.798 114.549 185.998 114.199 185.498 113.499C184.648 112.349 184.898 110.699 186.048 109.849C189.398 107.349 193.548 105.949 197.748 105.949C197.748 105.949 197.748 105.949 197.798 105.949C198.948 105.949 200.148 106.049 201.298 106.249C202.748 106.499 203.648 107.849 203.398 109.299C203.148 110.749 201.798 111.649 200.348 111.399C199.498 111.249 198.648 111.149 197.748 111.149C194.698 111.149 191.648 112.149 189.148 113.999C188.698 114.349 188.148 114.549 187.598 114.549Z" fill="#103849"/>
<path d="M146.402 221.199C130.202 221.199 115.402 213.599 106.702 201.149C101.852 203.249 96.6018 204.349 91.3018 204.349C91.3018 204.349 91.3018 204.349 91.2517 204.349C75.8018 204.349 61.8018 195.099 55.3518 180.949C53.9518 181.099 52.6018 181.149 51.2018 181.149C27.9518 181.149 9.05176 162.249 9.05176 139.049C9.05176 123.649 17.5018 109.499 30.8518 102.199C30.8018 101.349 30.7518 100.449 30.7518 99.5986C30.7518 80.5486 46.0518 64.5486 66.8018 61.3486C74.4018 41.7986 93.1018 28.8486 114.302 28.8486C126.752 28.8486 138.552 33.2986 147.852 41.4486C153.352 38.8486 159.402 37.4986 165.552 37.4986C185.952 37.4986 203.052 52.2986 206.352 71.9486C223.952 72.3986 238.152 86.8486 238.152 104.549C238.152 110.749 236.352 116.849 233.052 122.049C238.202 129.549 241.052 138.549 241.052 147.749C241.052 172.799 220.652 193.149 195.602 193.149C194.002 193.149 192.352 193.049 190.752 192.899C183.652 209.699 166.002 221.199 146.402 221.199ZM108.352 190.599C108.752 190.599 109.152 190.649 109.552 190.749C110.752 191.099 111.752 191.849 112.352 192.949C118.952 204.699 132.002 211.999 146.402 211.999C163.452 211.999 178.602 201.449 183.252 186.399C183.952 184.149 186.252 182.749 188.502 183.249C190.852 183.699 193.202 183.949 195.502 183.949C215.502 183.949 231.802 167.699 231.802 147.699C231.802 139.449 228.952 131.349 223.752 124.949C222.402 123.249 222.402 120.849 223.752 119.199C227.102 115.049 228.952 109.849 228.952 104.499C228.952 91.5486 218.402 81.0486 205.452 81.0486C204.552 81.0486 203.652 81.0986 202.752 81.1986C201.502 81.3486 200.252 80.9486 199.252 80.1486C198.302 79.3486 197.702 78.1486 197.602 76.8986C196.652 59.8986 182.502 46.5986 165.452 46.5986C159.752 46.5986 154.202 48.0986 149.302 50.9486C147.502 51.9986 145.252 51.6986 143.752 50.2486C135.902 42.3486 125.402 37.9986 114.252 37.9986C96.0518 37.9986 80.0518 49.6486 74.5017 66.9486C73.9518 68.6986 72.4018 69.9486 70.5518 70.0986C53.0518 71.7486 39.9018 84.3986 39.9018 99.5986C39.9018 101.099 40.0518 102.599 40.3018 104.049C40.6518 106.099 39.5518 108.149 37.6518 109.049C25.6518 114.399 18.2018 125.899 18.2018 139.099C18.2018 157.249 33.0018 172.049 51.2018 172.049C53.2518 172.049 55.3518 171.849 57.4018 171.449C59.6518 171.049 61.8518 172.299 62.6018 174.449C66.9018 186.899 78.4518 195.249 91.2517 195.249C91.2517 195.249 91.2518 195.249 91.3018 195.249C96.5018 195.249 101.602 193.899 106.102 191.299C106.752 190.799 107.552 190.599 108.352 190.599Z" fill="#103849"/>
<path d="M114.25 20.2998C102.15 20.2998 90.5 23.8998 80.55 30.6998C72 36.5998 65.2 44.4998 60.7 53.8498C38.85 59.1498 23.2 76.6998 22.25 97.4498C8.7 106.85 0.5 122.35 0.5 139.05C0.5 166.65 22.75 189.2 50.3 189.65C59 203.9 74.5 212.85 91.2 212.85C95.45 212.85 99.65 212.3 103.75 211.15C114.3 222.85 129.8 229.7 146.35 229.7C157.6 229.7 168.45 226.5 177.85 220.5C185.45 215.6 191.6 209.15 195.8 201.6C225.45 201.45 249.45 177.3 249.45 147.7C249.45 138.55 247.15 129.65 242.8 121.75C245.3 116.35 246.6 110.45 246.6 104.5C246.6 93.6998 242.45 83.4998 234.9 75.7998C228.95 69.6998 221.4 65.6998 213.2 64.0998C210.45 55.0998 205.1 46.9998 197.85 40.7998C188.85 33.1498 177.35 28.8998 165.5 28.8998C160 28.8998 154.45 29.8498 149.2 31.6498C139.05 24.2998 126.85 20.2998 114.25 20.2998ZM114.25 28.7998C126.55 28.7998 138.6 33.3498 147.8 41.3998C153.35 38.7998 159.4 37.4498 165.5 37.4498C185.9 37.4498 203 52.2498 206.3 71.8998C223.9 72.3498 238.1 86.7998 238.1 104.5C238.1 110.7 236.3 116.75 233 122C238.15 129.5 241 138.5 241 147.7C241 172.75 220.6 193.1 195.55 193.1C193.95 193.1 192.3 193 190.7 192.85C183.7 209.7 166.05 221.2 146.45 221.2C130.25 221.2 115.45 213.6 106.75 201.15C101.9 203.25 96.6 204.35 91.3 204.35C75.85 204.35 61.85 195.1 55.4 180.95C54.05 181.1 52.65 181.15 51.25 181.15C28 181.15 9.1 162.25 9.1 139.05C9.1 123.65 17.55 109.5 30.9 102.2C30.85 101.35 30.8 100.45 30.8 99.5998C30.8 80.5498 46.1 64.5498 66.85 61.3498C74.3 41.7498 93.05 28.7998 114.25 28.7998Z" fill="#F0F0F0"/>
</svg>
