<svg width="250" height="250" viewBox="0 0 250 250" fill="none" xmlns="http://www.w3.org/2000/svg">
<path d="M248.648 125.149C248.648 189.499 199.348 242.349 136.448 247.999C135.848 248.049 135.648 247.199 136.198 246.999C141.948 244.749 150.598 240.449 160.898 232.749C170.398 225.649 175.848 217.349 178.948 210.799C180.248 208.049 176.948 205.399 174.598 207.349C170.048 211.049 163.348 215.649 154.148 220.249C133.298 230.649 119.948 225.099 113.698 222.499C107.448 219.899 91.1485 205.149 100.498 170.799C108.698 140.599 135.698 127.649 144.898 123.999C146.248 123.449 146.548 121.699 145.398 120.749C143.448 119.099 140.798 116.799 138.998 115.049C135.848 111.949 122.348 98.8986 122.348 68.1986C122.348 37.4486 142.348 22.1986 153.798 22.1986C165.248 22.1986 173.398 33.2986 173.398 50.9986C173.398 67.1486 162.398 77.9986 160.448 79.7986C160.298 79.9486 160.248 80.1986 160.348 80.4486C164.098 87.7986 168.848 90.5986 175.498 90.5986C183.748 90.5986 196.648 76.0486 196.648 56.8986C196.648 32.3986 183.848 16.6486 183.848 16.6486L183.948 16.5986C223.698 36.9986 248.648 77.3486 248.648 125.149Z" fill="#094B89"/>
<path d="M120.147 1.90039C120.747 1.90039 120.997 2.65039 120.497 3.00039C115.097 6.35039 109.447 10.1504 104.847 13.8504C91.7973 24.3504 81.6473 47.7504 81.6473 66.4504C81.6473 86.7504 90.2973 104 93.5473 109.8C94.1473 110.8 93.6973 112.15 92.5973 112.6C89.9973 113.7 84.7973 116.55 75.2973 123.6C56.4473 137.55 46.8473 164.35 46.0973 186.75C45.5473 203.65 52.7973 218.45 58.6473 227.6C58.9973 228.15 58.3473 228.75 57.8473 228.4C24.1473 206.35 1.94727 168.35 1.94727 125.15C1.94727 58.7504 54.3973 4.60039 120.147 1.90039Z" fill="#388CE0"/>
<path d="M160.147 80.0488C163.947 87.6488 168.697 90.5488 175.497 90.5488C183.747 90.5488 196.647 75.9988 196.647 56.8488C196.647 32.3488 183.847 16.5988 183.847 16.5988L181.647 15.3988L181.497 15.2988C164.647 6.64883 145.547 1.79883 125.347 1.79883C124.347 1.79883 123.397 1.79883 122.397 1.84883C116.447 5.44883 109.997 9.69883 104.847 13.8488C91.797 24.3488 81.647 47.7488 81.647 66.4488C81.647 86.7488 90.297 103.999 93.547 109.799C94.147 110.799 93.697 112.149 92.597 112.599C89.997 113.699 84.797 116.549 75.297 123.599C56.447 137.549 46.847 164.349 46.097 186.749C45.497 205.149 54.147 221.099 60.147 229.899C66.447 233.849 73.197 237.249 80.197 239.999C93.797 245.349 108.547 248.349 123.997 248.499C124.447 248.499 124.897 248.499 125.347 248.499C127.797 248.499 130.247 248.449 132.697 248.299C137.997 246.549 148.197 242.299 160.997 232.749C170.497 225.649 175.947 217.349 179.047 210.799C180.347 208.049 177.047 205.399 174.697 207.349C170.147 211.049 163.447 215.649 154.247 220.249C133.397 230.649 120.047 225.099 113.797 222.499C107.547 219.899 91.247 205.149 100.597 170.799C108.797 140.599 135.797 127.649 144.997 123.999C146.347 123.449 146.647 121.699 145.497 120.749C143.547 119.099 140.897 116.799 139.097 115.049C135.947 111.949 122.447 98.8988 122.447 68.1988C122.447 37.4488 142.447 22.1988 153.897 22.1988C165.347 22.1988 173.497 33.2988 173.497 50.9988C173.397 68.6988 160.147 80.0488 160.147 80.0488Z" fill="white"/>
</svg>
