<svg width="250" height="250" viewBox="0 0 250 250" fill="none" xmlns="http://www.w3.org/2000/svg">
<g clip-path="url(#clip0_242_93547)">
<path d="M125 48.198C140.2 48.198 155.05 52.698 167.65 61.148C180.3 69.598 190.1 81.598 195.95 95.598C201.75 109.648 203.3 125.048 200.3 139.948C197.35 154.848 190 168.548 179.3 179.248C168.55 189.998 154.9 197.298 140 200.248C125.1 203.198 109.65 201.698 95.6504 195.898C81.6004 190.098 69.6004 180.248 61.2004 167.598C52.7504 154.948 48.2504 140.098 48.2504 124.948C48.3004 104.598 56.4004 85.048 70.7504 70.648C85.1004 56.348 104.65 48.248 125 48.198ZM125 -0.00195312C100.3 -0.00195312 76.1004 7.34805 55.5504 21.048C35.0004 34.798 19.0004 54.298 9.50041 77.148C0.0504084 99.998 -2.39959 125.148 2.40041 149.398C7.20041 173.648 19.1504 195.898 36.6004 213.398C54.1004 230.898 76.3504 242.798 100.6 247.598C124.85 252.398 150 249.948 172.8 240.498C195.65 231.048 215.15 214.998 228.9 194.448C242.65 173.898 250 149.698 250 124.998C250 91.848 236.85 60.048 213.4 36.598C189.95 13.148 158.15 -0.00195312 125 -0.00195312Z" fill="url(#paint0_linear_242_93547)"/>
<path d="M125 222.999C179.1 222.999 223 179.149 223 124.999C223 70.849 179.1 26.999 125 26.999C70.9 26.999 27 70.899 27 124.999C27 179.099 70.9 222.999 125 222.999Z" fill="white"/>
<path d="M180.8 181.499C173.4 188.849 164.6 194.699 154.9 198.599C145.2 202.499 134.85 204.399 124.4 204.199C114 204.399 103.7 202.449 94.1004 198.499C84.5004 194.549 75.8004 188.699 68.5004 181.299C53.2504 166.099 45.6504 147.449 45.7004 125.299C45.7004 102.549 53.3504 83.5992 68.7004 68.4492C76.0004 61.0492 84.7504 55.2492 94.3504 51.3492C103.95 47.4492 114.3 45.5492 124.7 45.7992C135.15 45.6492 145.5 47.5992 155.2 51.4992C164.9 55.4492 173.65 61.2492 181.05 68.6492C196.65 83.8492 204.45 102.799 204.35 125.599C204.55 136.049 202.55 146.399 198.5 156.049C194.4 165.649 188.4 174.349 180.8 181.499Z" fill="#5F2652"/>
<path fill-rule="evenodd" clip-rule="evenodd" d="M107.65 127.099L107.5 128.049L107.45 128.449C106.75 133.749 104.75 135.299 99.7004 137.549C99.7004 137.549 99.7004 137.549 99.6504 137.549L81.3504 145.699L122.7 169.549V155.899C122.7 150.899 122.4 149.999 118 147.549C117.15 147.049 116.25 146.549 115.3 145.999L114.7 145.649C111.95 144.149 109.75 141.999 108.1 139.399C108.05 139.299 107.6 138.649 107.55 138.549C107.9 138.349 108.2 138.149 108.5 137.849C108.8 137.599 109.05 137.249 109.25 136.899C110.7 139.749 112.9 142.149 115.7 143.699L116.4 144.099C117.35 144.649 118.3 145.149 119.15 145.649C124.55 148.649 124.95 150.499 124.95 155.899V169.549L166.7 145.249L148.85 137.349L147.7 136.849C147.25 136.649 145.8 136.049 144.7 135.999C143.6 135.949 141.85 135.999 140.95 137.199C140.1 138.299 139.25 139.399 138.4 140.449C136.45 143.049 133.85 145.149 130.8 146.399C130.8 146.399 130.8 146.399 130.75 146.399C129.95 146.749 129.05 146.949 128.2 147.149C128 146.799 127.75 146.399 127.5 146.099C127.3 145.849 127.05 145.549 126.8 145.299C128.1 145.049 129.6 144.599 130.8 144.049C133.15 142.949 135.15 141.349 136.7 139.349C136.8 139.249 136.85 139.149 136.9 139.049C137.05 138.849 137.2 138.649 137.35 138.399C137.75 137.849 138.4 136.999 139.25 135.899C139.85 135.149 140.65 134.649 141.55 134.299C142.5 133.949 143.6 133.799 144.8 133.799C146.6 133.849 148.65 134.849 148.65 134.849L149.3 135.099H149.35L151 135.799L166.6 142.699L125.05 75.6988V104.049C125.05 108.949 125.4 109.999 129.85 112.499C130.2 112.699 130.55 112.849 130.9 113.049L131.45 113.349C131.6 113.399 131.75 113.499 131.85 113.549C137.65 116.399 141.75 122.099 142.1 128.799C141.7 128.899 141.15 129.049 140.8 129.149C140.55 129.199 140.2 129.399 139.9 129.549C139.85 123.349 136.15 118.049 130.8 115.449H130.75C130.45 115.299 130.15 115.149 129.8 114.999C128.65 114.449 127.6 113.849 126.55 113.149C126.4 113.049 126.25 112.949 126.1 112.799C125.75 112.549 125.45 112.299 125.2 112.099C125.05 111.949 124.9 111.849 124.8 111.699C123 109.899 122.65 107.849 122.65 104.049V75.6488L80.9504 143.299L99.3504 135.099C103.45 133.299 104.65 131.749 105.2 127.349C105.2 127.299 105.25 127.149 105.25 127.099C106.3 120.099 111.5 114.449 118.3 112.499L119.2 112.249C119.3 112.599 119.45 112.949 119.65 113.299C119.85 113.649 120.1 113.949 120.4 114.249L119.55 114.449C113.55 116.049 108.8 120.949 107.65 127.099ZM77.6004 144.799L122.9 71.3488C123 71.1988 123.15 71.0488 123.3 70.9488C123.45 70.8488 123.65 70.7988 123.85 70.7988C124.05 70.7988 124.25 70.8488 124.4 70.9488C124.55 71.0488 124.7 71.1988 124.8 71.3488L170.2 144.499C170.25 144.599 170.3 144.749 170.35 144.899C170.35 145.049 170.35 145.199 170.35 145.349C170.3 145.499 170.25 145.599 170.15 145.749C170.05 145.849 169.95 145.949 169.85 146.049L124.45 172.449C124.3 172.549 124.1 172.599 123.9 172.599C123.7 172.599 123.5 172.549 123.35 172.449L78.0004 146.299C77.8504 146.249 77.7504 146.149 77.7004 145.999C77.6004 145.899 77.5504 145.749 77.5004 145.599C77.4504 145.449 77.4504 145.299 77.5004 145.149C77.4504 145.049 77.5004 144.899 77.6004 144.799Z" fill="white" stroke="white" stroke-width="0.500065"/>
</g>
<defs>
<linearGradient id="paint0_linear_242_93547" x1="233.75" y1="233.748" x2="33.7505" y2="33.7477" gradientUnits="userSpaceOnUse">
<stop offset="0.1594" stop-color="#003CDA"/>
<stop offset="1" stop-color="#33DFCC"/>
</linearGradient>
<clipPath id="clip0_242_93547">
<rect width="250" height="250" rx="125" fill="white"/>
</clipPath>
</defs>
</svg>
