<svg width="250" height="250" viewBox="0 0 250 250" fill="none" xmlns="http://www.w3.org/2000/svg">
<rect width="250" height="250" rx="125" fill="white"/>
<g clip-path="url(#clip0_242_94488)">
<path d="M204.993 112.729C202.374 104.209 197.124 96.7375 189.997 91.385C201.044 60.1371 184.667 25.8503 153.419 14.8034C139.871 10.014 125.054 10.245 111.662 15.4545C98.2699 20.664 87.1916 30.506 80.441 43.1914L47.9681 104.919C43.281 113.843 41.9147 124.142 44.1127 133.981C46.3106 143.819 51.93 152.557 59.9697 158.639C48.9194 189.885 65.2922 224.174 96.539 235.224C110.083 240.014 124.895 239.786 138.285 234.583C151.675 229.379 162.754 219.545 169.509 206.867L202.022 145.151C204.642 140.215 206.256 134.808 206.77 129.243C207.284 123.678 206.687 118.067 205.015 112.734L204.993 112.729ZM61.0675 111.84L93.5798 50.1462C104.907 27.9265 132.103 19.0967 154.322 30.4238C176.542 41.751 185.372 68.9466 174.045 91.1663L125.4 183.504C124.785 184.678 123.944 185.718 122.924 186.565C122.691 186.761 122.443 186.938 122.181 187.094L121.923 187.263L121.501 187.522L121.112 187.73L120.994 187.792C119.588 188.495 118.037 188.86 116.465 188.86C114.849 188.846 113.262 188.438 111.839 187.673C109.496 186.443 107.727 184.345 106.91 181.827C106.094 179.309 106.296 176.572 107.473 174.202L155.56 82.9344L155.611 82.8387C157.801 78.6508 158.756 73.9268 158.365 69.2169C157.974 64.5071 156.253 60.0054 153.402 56.2362C150.55 52.467 146.687 49.5856 142.261 47.9276C137.836 46.2696 133.03 45.9034 128.404 46.8715C128.239 46.8913 128.077 46.9295 127.92 46.9851C127.757 47.0244 127.358 47.1088 127.104 47.1876C126.851 47.2665 126.474 47.3565 126.153 47.4577L126.013 47.5031C119.712 49.4672 114.45 53.8533 111.383 59.6968L66.5324 144.791C62.1596 140.641 59.26 135.179 58.2737 129.232C57.2875 123.285 58.2684 117.179 61.0675 111.84ZM188.883 138.19L156.399 199.895C145.304 222.23 118.203 231.342 95.868 220.247C73.5328 209.152 64.4214 182.052 75.5163 159.716C75.6526 159.442 75.7917 159.169 75.9336 158.898L124.528 66.5656C125.304 65.0696 126.444 63.7925 127.842 62.8517C128.09 62.6942 128.337 62.548 128.585 62.4073L128.698 62.3453C128.94 62.2158 129.188 62.0994 129.441 61.9966L129.852 61.8334L130.133 61.732C131.189 61.3681 132.297 61.1781 133.414 61.1695C135.048 61.1662 136.658 61.5663 138.101 62.3342C140.429 63.5704 142.183 65.6656 142.991 68.1746C143.799 70.6836 143.597 73.4087 142.428 75.7711C141.009 78.4665 94.4906 166.764 94.2889 167.175C91.8438 171.87 90.9547 177.222 91.7499 182.456C92.5451 187.69 94.9835 192.536 98.7129 196.293C102.442 200.051 107.27 202.526 112.497 203.36C117.725 204.195 123.083 203.346 127.797 200.936L127.96 200.845C128.895 200.363 129.797 199.819 130.661 199.219L130.898 199.05C131.229 198.814 131.567 198.561 131.893 198.307L132.197 198.06C132.569 197.756 132.94 197.452 133.283 197.126C133.43 196.991 133.565 196.856 133.705 196.715L134.268 196.152L134.87 195.511L135.123 195.224C136.44 193.732 137.573 192.089 138.5 190.329C138.809 189.727 153.287 162.257 166.594 136.991L183.34 105.205C187.719 109.353 190.621 114.819 191.606 120.769C192.59 126.72 191.602 132.83 188.792 138.167L188.883 138.19Z" fill="#0000FF"/>
</g>
<defs>
<clipPath id="clip0_242_94488">
<rect width="227.302" height="227.302" fill="white" transform="translate(11.3643 11.3643)"/>
</clipPath>
</defs>
</svg>
