<svg width="250" height="250" viewBox="0 0 250 250" fill="none" xmlns="http://www.w3.org/2000/svg">
<path d="M169.515 126.478C168.78 123.503 165.42 121.648 162.48 122.383C161.745 122.768 160.625 123.118 160.24 123.503C158.77 124.973 158 127.213 158.77 129.453C159.505 132.428 160.24 135.753 159.89 139.113V164.348C159.89 182.513 146.52 198.473 128.355 200.328C109.07 202.183 91.9895 188.078 90.1345 168.793C90.1345 167.673 90.1345 166.553 90.1345 165.468V139.883C90.1345 122.453 102 107.613 119.08 104.638C125.765 103.518 132.065 104.253 138.365 106.878C140.22 107.613 142.46 107.263 144.315 105.758C146.555 103.518 146.905 100.193 145.05 97.9533C144.315 97.2183 143.93 96.8333 142.81 96.4833C135.39 93.5083 126.85 92.3883 119.08 93.5083C95.3495 96.4833 78.2695 116.888 78.2695 140.233V164.348C78.2695 190.318 99.4095 212.578 125.38 212.193C150.615 211.808 171.02 191.053 171.02 165.818V139.113C171.37 134.983 170.635 130.538 169.515 126.478ZM89.3995 99.7733C91.2545 98.3033 91.6395 96.0633 91.2545 93.8233C89.7845 88.9933 89.3995 83.8133 90.5195 78.5983C93.4945 59.3133 111.66 46.7133 130.945 49.6883C150.23 52.6633 162.83 70.8283 159.89 90.1133C157.3 105.688 144.665 117.553 129.09 119.408C123.14 120.143 117.225 119.408 112.01 117.168C110.155 116.433 107.915 116.783 106.06 118.288C103.82 120.528 103.47 123.853 105.325 126.093C106.06 126.828 106.445 127.213 107.565 127.563C115.72 130.888 124.645 132.008 133.15 130.538C158.385 126.093 175.43 101.978 170.985 76.7433C166.54 51.5083 142.075 34.1133 116.84 38.5583C91.6045 43.0033 74.5595 67.1183 79.3895 92.3533C79.7745 93.8233 80.1245 95.6783 80.5095 97.1833C81.2445 100.158 84.6045 102.013 87.5445 100.893C88.2795 100.858 89.0145 100.123 89.3995 99.7733Z" fill="url(#paint0_linear_242_93549)"/>
<defs>
<linearGradient id="paint0_linear_242_93549" x1="106.751" y1="199.409" x2="139.634" y2="63.4951" gradientUnits="userSpaceOnUse">
<stop stop-color="#FEBC08"/>
<stop offset="0.3394" stop-color="#FF5400"/>
<stop offset="0.7079" stop-color="#FD8EEC"/>
<stop offset="1" stop-color="#295AFE"/>
</linearGradient>
</defs>
</svg>
