<svg width="250" height="250" viewBox="0 0 250 250" fill="none" xmlns="http://www.w3.org/2000/svg">
<g clip-path="url(#clip0_242_94136)">
<path d="M124.998 250.001C194.034 250.001 249.998 194.037 249.998 125.001C249.998 55.9654 194.034 0.000976562 124.998 0.000976562C55.9624 0.000976562 -0.00195312 55.9654 -0.00195312 125.001C-0.00195312 194.037 55.9624 250.001 124.998 250.001Z" fill="#102044"/>
<path d="M189.436 151.173C192.951 152.524 195.279 155.868 195.311 159.61C195.312 161.178 194.904 162.719 194.125 164.08C193.347 165.441 192.225 166.575 190.873 167.368C189.516 168.166 187.976 168.599 186.402 168.627C184.828 168.654 183.273 168.274 181.889 167.524L134.779 193.228C134.896 194.47 134.754 195.723 134.364 196.908C133.973 198.093 133.341 199.185 132.509 200.114C131.676 201.044 130.66 201.791 129.525 202.309C128.39 202.828 127.16 203.106 125.912 203.126C123.51 203.185 121.183 202.287 119.442 200.63C117.702 198.973 116.69 196.692 116.631 194.29L93.6623 181.142H93.1389V180.868L68.9357 167.032C67.4244 168.075 65.631 168.631 63.7951 168.626C61.6095 168.637 59.4933 167.859 57.8366 166.433C56.1798 165.007 55.0941 163.031 54.7795 160.868C54.4775 158.707 54.9699 156.509 56.1652 154.683C57.3605 152.857 59.1777 151.527 61.2795 150.939V99.251C59.5111 98.7548 57.9359 97.7317 56.7635 96.3179C55.5911 94.904 54.8773 93.1666 54.717 91.337C54.4045 87.6026 56.4435 84.0635 59.8576 82.4464C61.523 81.6555 63.3886 81.3867 65.2095 81.6753C67.0304 81.9639 68.7215 82.7965 70.0607 84.0635L116.701 57.3448C116.498 56.049 116.578 54.7244 116.936 53.4626C117.295 52.2008 117.923 51.0318 118.777 50.0365C119.631 49.0411 120.691 48.243 121.884 47.6973C123.077 47.1517 124.374 46.8715 125.686 46.876C127.036 46.8738 128.369 47.1732 129.588 47.7522C130.807 48.3313 131.882 49.1753 132.733 50.2228C133.585 51.2703 134.191 52.4947 134.509 53.8067C134.826 55.1186 134.847 56.4849 134.569 57.8057L180.1 83.8839C181.764 82.3839 183.928 81.5557 186.186 81.5635C187.417 81.1034 188.734 80.9184 190.045 81.0215C191.355 81.1245 192.627 81.5131 193.771 82.16C194.916 82.8068 195.905 83.6963 196.669 84.766C197.433 85.8356 197.953 87.0596 198.194 88.3518C198.435 89.6441 198.39 90.9734 198.062 92.2464C197.735 93.5194 197.132 94.7053 196.298 95.7209C195.463 96.7364 194.416 97.557 193.231 98.125C192.046 98.693 190.75 98.9947 189.436 99.0089V151.181V151.173ZM157.264 130.821V175.22L178.139 163.837C177.488 162.592 177.136 161.213 177.11 159.808C177.084 158.404 177.384 157.012 177.988 155.744C178.592 154.476 179.483 153.365 180.589 152.5C181.696 151.635 182.989 151.039 184.365 150.759V99.4307C182.313 99.025 180.465 97.9219 179.133 96.3086C177.802 94.6952 177.07 92.6709 177.061 90.5792C177.061 89.751 177.178 88.9229 177.404 88.1182L157.615 76.7745V118.056H157.584L157.506 120.759L156.389 121.282L149.256 125.548L156.076 129.61L157.162 130.126L157.194 130.61L157.233 130.821H157.264ZM125.701 64.9151C123.108 64.9151 120.639 63.8213 118.912 61.8917L98.2092 73.7588V117.603L106.709 122.665L117.444 116.353C117.222 115.191 117.26 113.996 117.556 112.851C117.851 111.706 118.397 110.641 119.152 109.732C119.908 108.824 120.856 108.093 121.927 107.594C122.999 107.095 124.168 106.839 125.35 106.845C126.503 106.842 127.644 107.089 128.693 107.568C129.743 108.047 130.676 108.747 131.43 109.62C132.184 110.493 132.74 111.519 133.06 112.627C133.381 113.735 133.458 114.899 133.287 116.04L144.373 122.634L152.592 117.712V73.8917L132.17 62.1963C131.327 63.0564 130.32 63.7393 129.209 64.2048C128.099 64.6704 126.906 64.9092 125.701 64.9073V64.9151ZM131.014 130.712L139.475 125.618L130.975 120.548C129.498 121.983 127.53 122.8 125.471 122.833C123.413 122.867 121.419 122.114 119.897 120.728L111.537 125.579L119.858 130.54C121.383 129.13 123.393 128.362 125.47 128.394C127.547 128.426 129.532 129.256 131.014 130.712ZM72.2014 163.11L93.1389 175.11V132.204L93.1779 130.821L93.5295 130.47L95.2795 129.431L101.779 125.618L95.9045 122.149L93.1779 120.759V119.095H93.1467V76.6338L72.6154 88.3995C73.8264 93.087 71.0529 97.8838 66.3654 99.2198V150.97C68.842 151.689 70.8967 153.431 72.0139 155.743C73.131 158.064 73.2014 160.743 72.2014 163.11ZM125.701 184.931C128.553 184.931 131.233 186.259 132.936 188.54L152.233 177.993V133.181L144.373 128.493L133.279 135.157C133.358 135.548 133.389 135.939 133.389 136.329C133.389 140.743 129.795 144.314 125.342 144.314C124.172 144.314 123.017 144.059 121.956 143.565C120.896 143.071 119.957 142.351 119.205 141.455C118.452 140.559 117.906 139.509 117.603 138.379C117.3 137.249 117.248 136.067 117.451 134.915L106.569 128.462L98.1779 133.353V177.993L117.904 189.298C119.545 186.579 122.506 184.923 125.701 184.931Z" fill="white"/>
</g>
<defs>
<clipPath id="clip0_242_94136">
<rect width="250" height="250" rx="125" fill="white"/>
</clipPath>
</defs>
</svg>
