<svg width="250" height="250" viewBox="0 0 250 250" fill="none" xmlns="http://www.w3.org/2000/svg">
<g clip-path="url(#clip0_242_93552)">
<path d="M125 48.198C140.2 48.198 155.05 52.698 167.65 61.148C180.3 69.598 190.1 81.598 195.95 95.598C201.75 109.648 203.3 125.048 200.3 139.948C197.35 154.848 190 168.548 179.3 179.248C168.55 189.998 154.9 197.298 140 200.248C125.1 203.198 109.65 201.698 95.6504 195.898C81.6004 190.098 69.6004 180.248 61.2004 167.598C52.7504 154.948 48.2504 140.098 48.2504 124.948C48.3004 104.598 56.4004 85.048 70.7504 70.698C85.1004 56.348 104.65 48.248 125 48.198ZM125 -0.00195312C100.3 -0.00195312 76.1004 7.34805 55.5504 21.048C35.0004 34.798 19.0004 54.298 9.50041 77.148C0.0504084 99.998 -2.39959 125.148 2.40041 149.398C7.20041 173.648 19.1504 195.898 36.6004 213.398C54.1004 230.898 76.3504 242.798 100.6 247.598C124.85 252.398 150 249.948 172.8 240.498C195.6 231.048 215.15 214.998 228.9 194.448C242.65 173.898 250 149.698 250 124.998C250 91.848 236.85 60.048 213.4 36.598C189.95 13.148 158.15 -0.00195312 125 -0.00195312Z" fill="url(#paint0_linear_242_93552)"/>
<path d="M125 222.999C179.1 222.999 223 179.149 223 124.999C223 70.849 179.1 26.999 125 26.999C70.9 26.999 27 70.899 27 124.999C27 179.099 70.9 222.999 125 222.999Z" fill="white"/>
<path d="M201.9 144.299C198.1 159.499 189.85 173.249 178.25 183.799C166.65 194.349 152.15 201.199 136.65 203.499C121.15 205.799 105.3 203.449 91.1 196.749C76.9 190.049 65.05 179.299 57 165.849C48.95 152.399 45.05 136.849 45.8 121.199C46.6 105.549 52 90.4489 61.35 77.8489C70.7 65.2489 83.6 55.6989 98.35 50.4489C113.1 45.1989 129.15 44.3989 144.35 48.2489C164.7 53.3989 182.2 66.3489 193 84.3989C203.75 102.349 207 123.899 201.9 144.299Z" fill="url(#paint1_linear_242_93552)"/>
<path d="M160 113.749C161.6 103.199 153.55 97.6494 142.6 93.7494L146.2 79.4494L137.5 77.2494L134 91.1994C131.7 90.5994 129.35 90.0994 127.05 89.5494L130.55 75.5494L121.85 73.3994L118.25 87.6494C116.3 87.1994 114.5 86.7994 112.7 86.3494L100.7 83.3494L98.4004 92.6494C98.4004 92.6494 104.85 94.1494 104.7 94.2494C105.9 94.3994 107 94.9994 107.75 95.9494C108.5 96.8994 108.85 98.0994 108.75 99.2994L99.0004 138.349C98.7004 139.099 98.1504 139.749 97.4504 140.099C96.7004 140.449 95.9004 140.549 95.1004 140.299C95.1004 140.399 88.7504 138.699 88.7504 138.699L84.4004 148.649L95.7004 151.499L101.9 153.099L98.1004 167.599L106.8 169.799L110.4 155.499C112.8 156.149 115.05 156.749 117.35 157.299L113.8 171.499L122.5 173.699L126.15 159.299C140.95 162.149 152.15 160.999 156.85 147.599C160.75 136.799 156.7 130.599 148.9 126.549C154.55 125.199 158.85 121.449 160 113.749ZM140.05 141.599C137.35 152.349 119.15 146.499 113.3 145.049L118.1 125.949C123.95 127.399 142.85 130.349 140.05 141.599ZM142.8 113.599C140.3 123.349 125.2 118.399 120.3 117.149L124.65 99.7994C129.55 101.049 145.35 103.349 142.8 113.599Z" fill="white"/>
</g>
<defs>
<linearGradient id="paint0_linear_242_93552" x1="233.75" y1="233.747" x2="33.7506" y2="33.7479" gradientUnits="userSpaceOnUse">
<stop offset="0.1594" stop-color="#003CDA"/>
<stop offset="1" stop-color="#33DFCC"/>
</linearGradient>
<linearGradient id="paint1_linear_242_93552" x1="125.148" y1="28.5114" x2="124.867" y2="188.514" gradientUnits="userSpaceOnUse">
<stop stop-color="#F8A94B"/>
<stop offset="1" stop-color="#F6921E"/>
</linearGradient>
<clipPath id="clip0_242_93552">
<rect width="250" height="250" rx="125" fill="white"/>
</clipPath>
</defs>
</svg>
