<svg width="250" height="250" viewBox="0 0 250 250" fill="none" xmlns="http://www.w3.org/2000/svg">
<path d="M216.85 199.35L234 189.5V70.1504L216.85 80.0504V199.35Z" fill="url(#paint0_linear_242_93553)"/>
<path d="M159.549 232.549L176.449 222.649V103.349L159.549 113.249V232.549Z" fill="url(#paint1_linear_242_93553)"/>
<path d="M130.9 249.249L147.8 239.349V120.049L130.9 129.699V249.249Z" fill="url(#paint2_linear_242_93553)"/>
<path d="M188.199 216.099L205.099 206.199V86.6494L188.199 96.4994V216.099Z" fill="url(#paint3_linear_242_93553)"/>
<path d="M16.0996 169.699V189.249L118.95 249.499L119.2 229.949L16.0996 169.699Z" fill="url(#paint4_linear_242_93553)"/>
<path d="M16.5996 103.099L16.3496 122.849L119.4 183.099V163.349L16.5996 103.099Z" fill="url(#paint5_linear_242_93553)"/>
<path d="M16.5996 69.9492V89.6992L119.45 149.949L119.7 130.199L16.5996 69.9492Z" fill="url(#paint6_linear_242_93553)"/>
<path d="M16.3496 136.549V156.099L119.2 216.349L119.45 196.599L16.3496 136.549Z" fill="url(#paint7_linear_242_93553)"/>
<path d="M141.95 10.399L125.05 0.499023L21.75 60.049L38.9 69.949L141.95 10.399Z" fill="url(#paint8_linear_242_93553)"/>
<path d="M199.501 43.5494L182.351 33.8994L79.0508 93.4494L96.2008 103.349L199.501 43.5494Z" fill="url(#paint9_linear_242_93553)"/>
<path d="M228.1 60.2994L211.2 50.3994L107.9 109.949L124.8 119.849L228.1 60.2994Z" fill="url(#paint10_linear_242_93553)"/>
<path d="M170.6 27.0992L153.7 17.1992L50.4004 76.7492L67.5504 86.6492L170.6 27.0992Z" fill="url(#paint11_linear_242_93553)"/>
<defs>
<linearGradient id="paint0_linear_242_93553" x1="213.099" y1="81.5535" x2="240.685" y2="200.717" gradientUnits="userSpaceOnUse">
<stop stop-color="#FF6647"/>
<stop offset="1" stop-color="#FF6647" stop-opacity="0"/>
</linearGradient>
<linearGradient id="paint1_linear_242_93553" x1="155.697" y1="114.752" x2="183.285" y2="233.916" gradientUnits="userSpaceOnUse">
<stop stop-color="#FF6647"/>
<stop offset="1" stop-color="#FF6647" stop-opacity="0"/>
</linearGradient>
<linearGradient id="paint2_linear_242_93553" x1="127.04" y1="131.391" x2="154.626" y2="250.555" gradientUnits="userSpaceOnUse">
<stop stop-color="#FF6647"/>
<stop offset="1" stop-color="#FF6647" stop-opacity="0"/>
</linearGradient>
<linearGradient id="paint3_linear_242_93553" x1="184.334" y1="98.1295" x2="211.916" y2="217.273" gradientUnits="userSpaceOnUse">
<stop stop-color="#FF6647"/>
<stop offset="1" stop-color="#FF6647" stop-opacity="0"/>
</linearGradient>
<linearGradient id="paint4_linear_242_93553" x1="119.587" y1="225.757" x2="3.00616" y2="189.593" gradientUnits="userSpaceOnUse">
<stop stop-color="#FF6647"/>
<stop offset="1" stop-color="#FF6647" stop-opacity="0"/>
</linearGradient>
<linearGradient id="paint5_linear_242_93553" x1="119.953" y1="159.238" x2="3.37245" y2="123.073" gradientUnits="userSpaceOnUse">
<stop stop-color="#FF6647"/>
<stop offset="1" stop-color="#FF6647" stop-opacity="0"/>
</linearGradient>
<linearGradient id="paint6_linear_242_93553" x1="120.054" y1="126.085" x2="3.47411" y2="89.9213" gradientUnits="userSpaceOnUse">
<stop stop-color="#FF6647"/>
<stop offset="1" stop-color="#FF6647" stop-opacity="0"/>
</linearGradient>
<linearGradient id="paint7_linear_242_93553" x1="119.789" y1="192.563" x2="3.20831" y2="156.397" gradientUnits="userSpaceOnUse">
<stop stop-color="#FF6647"/>
<stop offset="1" stop-color="#FF6647" stop-opacity="0"/>
</linearGradient>
<linearGradient id="paint8_linear_242_93553" x1="41.7364" y1="72.4414" x2="131.281" y2="-10.6612" gradientUnits="userSpaceOnUse">
<stop stop-color="#FF6647"/>
<stop offset="1" stop-color="#FF6647" stop-opacity="0"/>
</linearGradient>
<linearGradient id="paint9_linear_242_93553" x1="99.1068" y1="105.776" x2="188.692" y2="22.6342" gradientUnits="userSpaceOnUse">
<stop stop-color="#FF6647"/>
<stop offset="1" stop-color="#FF6647" stop-opacity="0"/>
</linearGradient>
<linearGradient id="paint10_linear_242_93553" x1="127.823" y1="122.409" x2="217.367" y2="39.3054" gradientUnits="userSpaceOnUse">
<stop stop-color="#FF6647"/>
<stop offset="1" stop-color="#FF6647" stop-opacity="0"/>
</linearGradient>
<linearGradient id="paint11_linear_242_93553" x1="70.3969" y1="89.1366" x2="159.94" y2="6.03296" gradientUnits="userSpaceOnUse">
<stop stop-color="#FF6647"/>
<stop offset="1" stop-color="#FF6647" stop-opacity="0"/>
</linearGradient>
</defs>
</svg>
