<svg width="250" height="250" viewBox="0 0 250 250" fill="none" xmlns="http://www.w3.org/2000/svg">
<rect width="250" height="250" rx="125" fill="white"/>
<g clip-path="url(#clip0_242_94474)">
<path d="M222.233 123.345C222.231 123.203 222.221 123.061 222.205 122.92C222.202 122.901 222.201 122.88 222.199 122.86C222.177 122.697 222.145 122.535 222.103 122.376C222.096 122.35 222.087 122.324 222.08 122.298C222.044 122.171 222.002 122.046 221.954 121.923C221.936 121.878 221.918 121.835 221.899 121.792C221.854 121.686 221.802 121.582 221.747 121.479C221.724 121.436 221.703 121.393 221.679 121.352C221.668 121.332 221.659 121.312 221.648 121.294C221.578 121.178 221.503 121.069 221.424 120.963C221.421 120.96 221.419 120.956 221.417 120.953C221.319 120.824 221.213 120.701 221.1 120.585C221.074 120.557 221.046 120.532 221.019 120.505C220.928 120.415 220.834 120.33 220.736 120.25C220.704 120.224 220.671 120.198 220.638 120.172C220.521 120.082 220.398 119.998 220.271 119.92C220.261 119.914 220.253 119.907 220.243 119.901L220.225 119.89L220.213 119.883L176.005 93.6197V42.9158C176.005 42.9131 176.005 42.9106 176.005 42.9076C176.005 42.7275 175.993 42.5476 175.968 42.3691C175.965 42.3464 175.958 42.3237 175.955 42.3009C175.933 42.1478 175.902 41.996 175.863 41.8463C175.848 41.7911 175.826 41.7386 175.809 41.6843C175.773 41.5706 175.738 41.457 175.692 41.3447C175.657 41.261 175.613 41.1824 175.572 41.1015C175.535 41.0265 175.504 40.9499 175.462 40.8762C175.459 40.871 175.455 40.8662 175.452 40.8608C175.442 40.8435 175.429 40.8278 175.42 40.8108C175.346 40.6874 175.265 40.568 175.178 40.4532C175.152 40.4182 175.124 40.385 175.096 40.3502C175.016 40.2498 174.931 40.1541 174.842 40.0632C174.816 40.0361 174.79 40.0086 174.763 39.9825C174.525 39.7511 174.259 39.5499 173.971 39.3835C173.957 39.3751 173.944 39.3647 173.93 39.3565L125.251 11.8911C124.625 11.5379 123.917 11.3562 123.199 11.3645C122.481 11.3728 121.777 11.5708 121.16 11.9383L29.784 66.3284C29.1743 66.6913 28.6698 67.2069 28.3203 67.8244C27.9708 68.4418 27.7883 69.1398 27.791 69.8493C27.791 69.935 27.7942 70.02 27.8001 70.1046C27.7942 70.1955 27.7912 70.2864 27.791 70.3773V125.703C27.791 126.42 27.9803 127.125 28.3398 127.747C28.6994 128.368 29.2164 128.883 29.8388 129.24L72.9324 153.992V205.444C72.9324 206.142 73.1116 206.828 73.4529 207.438C73.7941 208.047 74.2859 208.558 74.8813 208.923L122.476 238.066C122.496 238.079 122.518 238.087 122.539 238.099C122.635 238.155 122.735 238.205 122.836 238.253C122.901 238.285 122.964 238.318 123.03 238.346C123.132 238.389 123.236 238.422 123.34 238.456C123.408 238.479 123.475 238.505 123.545 238.524C123.658 238.555 123.776 238.576 123.892 238.596C123.952 238.607 124.011 238.623 124.071 238.631C124.25 238.655 124.43 238.668 124.611 238.668C124.744 238.668 124.878 238.655 125.011 238.642C125.048 238.638 125.086 238.639 125.122 238.635C125.231 238.621 125.339 238.595 125.447 238.572C125.511 238.559 125.575 238.551 125.638 238.534C125.729 238.51 125.818 238.476 125.908 238.446C125.988 238.419 126.068 238.396 126.147 238.364C126.225 238.332 126.297 238.292 126.372 238.256C126.448 238.22 126.527 238.188 126.601 238.147C126.614 238.14 126.624 238.131 126.637 238.124C126.651 238.118 126.665 238.111 126.679 238.103L220.229 182.944C220.841 182.584 221.348 182.07 221.7 181.454C222.052 180.837 222.237 180.14 222.237 179.43V123.408C222.237 123.387 222.233 123.366 222.233 123.345ZM128.686 186.012L164.283 206.458L128.686 227.446V186.012ZM128.686 72.4653L167.846 49.9604V93.5922L128.686 116.324V72.4653ZM120.527 72.4744V116.966L81.091 93.8979V49.9865L120.527 72.4744ZM120.527 126.417V171.919L81.091 149.269V103.351L120.527 126.417ZM128.686 131.191L167.575 153.938V198.94L128.686 176.605V131.191ZM171.616 146.852L132.133 123.755L171.901 100.672L210.23 123.443L171.616 146.852ZM123.301 20.1583L163.682 42.9433L124.598 65.4053L85.114 42.889L123.301 20.1583ZM72.9324 50.1397V89.1264L39.8979 69.8039L72.9324 50.1397ZM35.9503 123.343V76.9459L72.9324 98.5783V144.584L35.9503 123.343ZM81.091 203.158V158.678L120.528 181.328V227.306L81.091 203.158ZM175.733 199.707V153.896L214.079 130.651V177.1L175.733 199.707Z" fill="#24BECE"/>
</g>
<defs>
<clipPath id="clip0_242_94474">
<rect width="227.302" height="227.302" fill="white" transform="translate(11.3633 11.3643)"/>
</clipPath>
</defs>
</svg>
