<svg width="250" height="250" viewBox="0 0 250 250" fill="none" xmlns="http://www.w3.org/2000/svg">
<rect width="250" height="250" rx="125" fill="white"/>
<path fill-rule="evenodd" clip-rule="evenodd" d="M115.795 12.8337C115.795 14.4576 114.847 16.1734 113.569 16.8589C112.345 17.5121 110.261 18.0503 108.941 18.0503C107.436 18.0503 106.13 16.9739 105.445 15.1752C104.842 13.5927 103.779 12.3001 103.076 12.3001C102.372 12.3001 98.4799 13.1833 94.4226 14.2644C87.3061 16.1596 87.0439 16.3575 87.0439 19.9042C87.0439 23.0139 86.4689 23.7776 83.3085 24.8862C79.9964 26.0454 79.3432 25.9166 77.5767 23.7407L75.5802 21.2889L68.0497 25.498C60.7446 29.583 60.5422 29.8222 61.2276 33.4655C61.8303 36.6719 61.4807 37.5183 58.8264 39.2572C56.2365 40.9546 55.2796 41.0558 53.0761 39.8782C50.822 38.6729 49.9204 38.8294 46.9395 40.9546C45.0166 42.3255 42.3209 45.0166 40.95 46.9441C38.8248 49.9296 38.6683 50.8266 39.8736 53.0807C41.0512 55.2842 40.9454 56.241 39.2526 58.831C37.5137 61.4853 36.6673 61.8349 33.4609 61.2323C29.8176 60.5514 29.5784 60.7492 25.4934 68.0543L21.2843 75.5848L23.7361 77.5813C25.912 79.3524 26.0408 80.0056 24.8816 83.3131C23.7499 86.5425 23.0415 87.0485 19.6604 87.0485C16.4725 87.0485 15.7502 87.4901 15.7502 89.4222C15.7502 90.7286 15.2994 92.6699 14.752 93.7371C14.2046 94.8044 13.4041 97.6197 12.9717 99.9934C12.2679 103.899 12.4749 104.423 15.12 105.426C16.9693 106.13 18.0503 107.427 18.0503 108.945C18.0503 110.27 17.5121 112.349 16.8589 113.573C16.1734 114.847 14.4576 115.8 12.8337 115.8C10.0552 115.8 10 115.988 10 125C10 134.012 10.0552 134.2 12.8337 134.2C14.4576 134.2 16.1734 135.148 16.8589 136.422C17.5121 137.646 18.0503 139.73 18.0503 141.05C18.0503 142.554 16.9739 143.861 15.1752 144.546C13.5927 145.149 12.3001 146.211 12.3001 146.915C12.3001 147.619 13.1833 151.511 14.2644 155.568C16.1596 162.685 16.3575 162.947 19.9042 162.947C23.0139 162.947 23.7776 163.522 24.8862 166.682C26.0408 169.981 25.912 170.648 23.7822 172.382C21.7259 174.056 21.5695 174.733 22.7241 176.982C23.4693 178.431 25.4382 181.817 27.1035 184.503C29.7946 188.851 30.5076 189.324 33.5805 188.8C36.3545 188.326 37.4493 188.8 39.179 191.215C40.9868 193.736 41.1018 194.638 39.915 196.855C38.7052 199.114 38.8708 199.992 41.0558 202.946C42.4589 204.841 45.1592 207.546 47.0591 208.949C50.0124 211.134 50.891 211.295 53.1497 210.09C55.367 208.903 56.2687 209.018 58.7896 210.826C61.2461 212.583 61.6785 213.627 61.1724 216.562C60.5928 219.943 60.9608 220.394 67.5621 224.327C71.4171 226.623 74.835 228.5 75.1616 228.5C75.4882 228.5 76.6199 227.441 77.6687 226.153C79.334 224.106 80.0424 223.973 83.2487 225.095C86.1836 226.121 86.9933 227.106 87.2739 229.995C87.5959 233.279 88.2031 233.79 93.9534 235.584C97.4311 236.669 101.199 237.589 102.321 237.631C103.48 237.672 104.833 236.458 105.454 234.825C106.139 233.022 107.446 231.95 108.95 231.95C110.275 231.95 112.354 232.488 113.578 233.141C114.852 233.822 115.804 235.542 115.804 237.166C115.804 239.945 115.993 240 125.005 240C134.016 240 134.205 239.945 134.205 237.166C134.205 235.542 135.153 233.822 136.427 233.141C137.651 232.488 139.734 231.95 141.055 231.95C142.573 231.95 143.87 233.031 144.574 234.88C145.581 237.53 146.096 237.732 150.007 237.01C152.385 236.568 156.139 235.593 158.351 234.834C161.581 233.73 162.446 232.787 162.717 230.059C162.984 227.441 163.904 226.337 166.742 225.256C170.045 223.996 170.634 224.102 172.423 226.282L174.42 228.716L181.95 224.507C189.163 220.472 189.453 220.146 188.851 216.636C188.331 213.613 188.745 212.601 191.22 210.826C193.754 209.009 194.633 208.898 196.892 210.108C199.183 211.336 200.061 211.184 203.061 209.05C204.983 207.679 207.679 204.988 209.05 203.061C211.175 200.08 211.332 199.178 210.126 196.924C208.949 194.72 209.055 193.764 210.752 191.174C212.454 188.575 213.37 188.174 216.332 188.731C219.543 189.329 220.164 188.929 222.901 184.508C224.566 181.821 226.535 178.436 227.28 176.987C228.435 174.737 228.279 174.061 226.222 172.386C224.106 170.666 223.968 169.976 225.095 166.751C226.121 163.816 227.106 163.007 229.995 162.726C233.279 162.404 233.79 161.797 235.584 156.047C236.669 152.569 237.59 148.801 237.631 147.679C237.672 146.52 236.458 145.163 234.825 144.546C233.022 143.861 231.95 142.554 231.95 141.05C231.95 139.725 232.488 137.646 233.141 136.422C233.822 135.148 235.542 134.2 237.166 134.2C239.945 134.2 240 134.012 240 125C240 115.988 239.945 115.8 237.166 115.8C235.542 115.8 233.822 114.852 233.141 113.573C232.488 112.349 231.95 110.266 231.95 108.945C231.95 107.427 233.031 106.13 234.88 105.426C237.53 104.419 237.732 103.904 237.01 99.9934C236.568 97.6151 235.593 93.8614 234.834 91.6487C233.73 88.4193 232.787 87.5545 230.059 87.2831C227.442 87.0163 226.337 86.0962 225.256 83.2579C224.005 79.9826 224.106 79.3616 226.176 77.6687C227.455 76.6199 228.5 75.4514 228.5 75.0742C228.5 74.697 226.563 71.2882 224.189 67.4977C220.146 61.0298 219.663 60.648 216.332 61.269C213.36 61.8257 212.45 61.4255 210.747 58.8264C209.05 56.2364 208.944 55.2796 210.122 53.0761C211.327 50.822 211.171 49.9204 209.045 46.9395C207.675 45.0166 204.983 42.3209 203.056 40.95C200.057 38.811 199.178 38.6637 196.887 39.892C194.628 41.1018 193.75 40.9914 191.215 39.1744C188.74 37.4033 188.326 36.3867 188.846 33.3643C189.449 29.859 189.163 29.5278 181.946 25.4934L174.415 21.2843L172.419 23.7177C170.629 25.8982 170.04 26.004 166.737 24.7436C163.899 23.6625 162.979 22.5585 162.712 19.941C162.436 17.2131 161.576 16.2701 158.347 15.166C156.134 14.4116 152.376 13.4317 150.002 12.9901C146.092 12.2679 145.577 12.4657 144.569 15.12C143.865 16.9693 142.568 18.0503 141.05 18.0503C139.725 18.0503 137.646 17.5121 136.422 16.8589C135.148 16.1734 134.2 14.4576 134.2 12.8337C134.2 10.0552 134.012 10 125 10C115.988 10 115.8 10.0552 115.8 12.8337H115.795ZM141.505 28.9068C146.267 29.8176 152.5 31.3541 155.347 32.3201C158.2 33.2861 163.016 35.2228 166.052 36.6213C169.088 38.0197 174.42 40.9546 177.902 43.1443C181.38 45.334 188.027 50.8036 192.664 55.298C197.306 59.7924 203.3 66.8353 205.991 70.9432C208.677 75.0558 212.012 80.9026 213.397 83.9434C214.786 86.9795 216.714 91.7959 217.68 94.648C218.646 97.5001 220.187 103.729 221.098 108.49C222.009 113.251 222.754 120.68 222.754 124.995C222.754 129.31 222.009 136.74 221.098 141.505C220.187 146.267 218.651 152.5 217.68 155.347C216.714 158.2 214.786 163.016 213.397 166.052C212.012 169.088 208.677 174.94 205.991 179.052C203.304 183.165 197.306 190.203 192.664 194.702C188.023 199.196 181.38 204.661 177.902 206.851C174.424 209.041 168.472 212.275 164.681 214.037C160.886 215.803 153.898 218.255 149.156 219.488C144.408 220.721 136.022 222.036 130.52 222.409C124.558 222.814 116.913 222.51 111.604 221.654C106.705 220.863 99.8186 219.299 96.3041 218.172C92.7849 217.05 87.3245 214.938 84.1642 213.485C81.0084 212.031 75.5756 209.045 72.0979 206.856C68.6201 204.661 62.2305 199.454 57.9017 195.277C53.5729 191.1 48.3379 185.354 46.2725 182.507C44.2024 179.659 40.9592 174.484 39.0594 171.006C37.1595 167.529 34.4868 161.498 33.1205 157.611C31.7543 153.724 29.8728 146.561 28.9436 141.699C28.0097 136.832 27.2553 129.145 27.2645 124.614C27.2737 120.082 28.2397 111.719 29.4174 106.024C30.595 100.329 33.1803 91.8511 35.1676 87.1819C37.1549 82.5127 41.0926 75.2674 43.9218 71.0858C46.7509 66.9043 51.0152 61.3841 53.3935 58.8264C55.7764 56.2687 60.6664 51.7835 64.2592 48.8624C67.8519 45.9412 74.0668 41.7505 78.0597 39.5516C82.0573 37.3527 88.5527 34.427 92.4997 33.0561C96.4467 31.6853 103.172 29.8636 107.45 29.0172C111.728 28.1661 119.19 27.4209 124.039 27.3611C128.887 27.3013 136.749 27.9959 141.51 28.9114L141.505 28.9068ZM107.17 38.2037C103.375 39.018 98.6915 40.1818 96.7641 40.7936C94.8366 41.4055 89.735 43.6089 85.4246 45.6836C81.1142 47.7629 74.9316 51.5489 71.6793 54.0974C68.4269 56.6505 64.2132 60.3214 62.3133 62.2535C60.4134 64.1902 56.9771 68.1187 54.677 70.9892C52.3769 73.8598 48.5909 79.9412 46.2586 84.5138C43.931 89.0818 41.5021 94.4962 40.8626 96.5479C40.2232 98.5995 38.9674 103.899 38.0749 108.324C37.1825 112.75 36.4465 120.289 36.4465 125.074C36.4465 129.862 36.9985 136.845 37.6793 140.599C38.3555 144.353 39.6666 149.689 40.5912 152.463C41.5159 155.232 43.8988 160.877 45.8952 165.008C47.8871 169.139 51.9951 175.607 55.022 179.379C58.0489 183.151 63.7716 189.048 67.7369 192.48C71.7023 195.912 77.7469 200.241 81.1648 202.09C84.5874 203.944 90.287 206.566 93.8292 207.923C97.3759 209.275 103.899 211.097 108.324 211.966C112.75 212.836 120.289 213.549 125.074 213.549C129.862 213.549 136.845 212.997 140.599 212.316C144.353 211.635 149.689 210.329 152.463 209.404C155.232 208.48 160.854 206.106 164.953 204.132C169.051 202.154 175.064 198.47 178.316 195.935C181.568 193.405 186.486 188.956 189.251 186.054C192.011 183.146 195.723 178.666 197.499 176.094C199.275 173.523 202.361 168.205 204.358 164.276C206.354 160.348 208.507 155.467 209.142 153.429C209.781 151.391 211.033 146.096 211.925 141.671C212.822 137.246 213.554 129.738 213.554 124.995C213.554 120.253 212.822 112.75 211.925 108.32C211.033 103.894 209.804 98.6915 209.197 96.7641C208.59 94.8366 206.396 89.735 204.321 85.4246C202.242 81.1142 198.483 74.9316 195.962 71.6793C193.442 68.4269 189.775 64.1764 187.806 62.2351C185.842 60.2938 181.568 56.6229 178.316 54.079C175.064 51.5351 168.877 47.7537 164.571 45.6744C160.265 43.5997 155.163 41.4009 153.231 40.7982C151.304 40.191 146.106 38.9628 141.676 38.0703C137.25 37.1779 129.228 36.5063 123.85 36.5799C118.472 36.6535 110.969 37.3803 107.174 38.1945L107.17 38.2037ZM130.12 49.7272C133.354 51.0796 134.927 52.7633 136.694 56.7517C138.787 61.4807 138.856 62.4099 137.43 66.1682C136.556 68.4683 134.108 71.5091 131.978 72.9443C129.853 74.375 126.762 75.548 125.12 75.5434C123.473 75.5434 120.469 74.5268 118.445 73.2939C116.421 72.0611 113.96 69.4988 112.98 67.6035C112 65.7082 111.199 62.9711 111.204 61.5129C111.204 60.0592 112.253 57.1565 113.527 55.0634C114.801 52.9749 117.515 50.5322 119.563 49.6444C121.605 48.7566 123.864 48.0067 124.577 47.9837C125.29 47.9607 127.788 48.7382 130.129 49.7134L130.12 49.7272ZM139.058 104.014C139.348 121.66 139.541 123.247 141.395 122.935C142.508 122.751 152.472 118.219 163.531 112.869C174.595 107.524 184.2 103.149 184.876 103.149C185.552 103.149 185.939 104.511 185.741 106.176C185.428 108.78 182.797 110.647 166.977 119.503C156.856 125.166 146.506 130.962 143.976 132.383L139.376 134.964L138.722 154.993C138.359 166.011 137.522 176.609 136.855 178.542C136.188 180.478 134.84 183.611 133.86 185.502C132.88 187.397 129.757 191.086 126.918 193.699C123.905 196.478 119.682 199.026 116.77 199.827C114.024 200.581 109.686 201.179 107.124 201.156C104.566 201.133 100.426 200.558 97.9233 199.882C95.4208 199.206 91.4187 197.039 89.0312 195.061C86.6437 193.087 83.7087 189.559 82.5127 187.217C81.3166 184.876 79.9918 181.09 79.564 178.799C79.0718 176.172 79.4628 172.294 80.6266 168.297C81.9423 163.77 84.1458 160.127 88.3319 155.545C91.8005 151.75 98.4845 146.533 104.713 142.766C110.5 139.265 116.007 135.976 116.959 135.461C118.316 134.72 118.753 131.541 119.006 120.552C119.231 110.827 118.937 106.585 118.045 106.585C117.336 106.585 113.403 108.14 109.304 110.036C105.205 111.931 101.429 113.486 100.913 113.486C100.398 113.486 98.4937 114.259 96.6813 115.206C94.8688 116.149 92.4813 116.927 91.3727 116.931C90.126 116.931 89.3578 116.066 89.3578 114.65C89.3578 113.32 90.9264 111.36 93.0931 109.98C95.1494 108.669 105.629 102.51 116.379 96.2857C127.134 90.0662 136.565 84.9186 137.342 84.8542C138.391 84.7668 138.833 89.6522 139.067 104L139.058 104.014ZM108.32 154.041C102.827 158.163 99.446 161.709 97.6841 165.21C96.2627 168.035 95.0988 171.761 95.0988 173.495C95.0988 175.229 95.683 177.93 96.3961 179.498C97.1091 181.067 99.216 182.981 101.079 183.749C103.894 184.917 105.136 184.83 108.476 183.238C111.512 181.789 113.228 179.719 115.519 174.728C117.838 169.672 118.666 165.776 119.038 158.066C119.429 150.066 119.204 148.001 117.948 148.001C117.083 148.001 112.75 150.72 108.32 154.036V154.041Z" fill="#F6921D"/>
</svg>
