<svg width="250" height="250" viewBox="0 0 250 250" fill="none" xmlns="http://www.w3.org/2000/svg">
<g clip-path="url(#clip0_725_4122)">
<rect width="250" height="250" rx="125" fill="#121D28"/>
<path d="M104.345 247.625C80.2408 233.184 54.1518 229.504 35.4844 236.005C37.2865 242.147 39.6632 248.095 42.5809 253.763C58.7997 253.375 76.5079 257.918 92.9853 267.787C109.463 277.657 122.066 291.278 129.778 306.003C136.001 305.806 142.191 304.988 148.262 303.562C144.488 283.621 128.443 262.07 104.345 247.625Z" fill="url(#paint0_linear_725_4122)"/>
<path d="M219.21 189.006C216.145 176.151 210.6 164.064 202.905 153.468C195.211 142.872 185.525 133.984 174.425 127.334C163.326 120.684 151.041 116.409 138.304 114.764C125.567 113.119 112.639 114.137 100.292 117.759C120.919 120.362 143.814 128.347 166.268 141.8C188.722 155.252 206.806 171.805 219.21 189.006Z" fill="url(#paint1_linear_725_4122)"/>
<path d="M189.198 236.149C178.639 218.067 160.553 200.752 138.272 187.404C115.992 174.056 92.4527 166.432 72.0087 165.927C54.0229 165.488 40.524 170.88 34.9831 180.717C34.9516 180.775 34.9074 180.83 34.8727 180.889C34.3741 182.734 33.945 184.582 33.5537 186.437C41.2908 183.287 50.2553 181.534 60.2233 181.338C82.39 180.909 107.198 188.221 130.091 201.936C152.983 215.652 171.445 234.262 182.06 254.326C186.819 263.365 189.788 272.265 190.965 280.768C192.334 279.506 193.678 278.201 194.982 276.844C195.016 276.782 195.039 276.717 195.073 276.652C200.614 266.805 198.471 252.045 189.198 236.149Z" fill="url(#paint2_linear_725_4122)"/>
<path d="M121.326 217.492C87.2061 197.05 49.5021 193.848 31.3711 208.114C31.4067 212.579 31.7377 217.036 32.3619 221.455C37.6954 219.788 43.1923 218.738 48.7511 218.325C69.012 216.753 91.3491 222.575 111.62 234.725C131.89 246.876 147.869 264.012 156.584 282.927C158.993 288.109 160.831 293.553 162.062 299.158C166.094 297.528 170.015 295.617 173.797 293.441C176.832 270.129 155.455 237.937 121.326 217.492Z" fill="url(#paint3_linear_725_4122)"/>
<path d="M206.757 205.883C196.079 187.82 177.834 170.457 155.396 157.021C132.958 143.585 109.327 135.84 88.8168 135.219C73.1817 134.754 61.0713 138.662 54.792 146.045C80.8651 141.489 115.256 149.146 148.59 169.116C181.924 189.086 205.419 216.107 214.488 241.72C217.596 232.442 214.892 219.658 206.757 205.883Z" fill="url(#paint4_linear_725_4122)"/>
<path d="M127.787 95.0001V31.8896H152.686C157.473 31.8896 161.551 32.8038 164.92 34.6322C168.289 36.4401 170.857 38.9567 172.624 42.1821C174.412 45.3869 175.305 49.0848 175.305 53.2757C175.305 57.4666 174.401 61.1645 172.593 64.3693C170.786 67.5742 168.166 70.0702 164.735 71.8575C161.325 73.6449 157.196 74.5385 152.348 74.5385H136.477V63.8455H150.19C152.758 63.8455 154.874 63.4038 156.538 62.5204C158.223 61.6165 159.476 60.3736 160.298 58.7917C161.14 57.1893 161.561 55.3506 161.561 53.2757C161.561 51.1802 161.14 49.3518 160.298 47.7905C159.476 46.2086 158.223 44.9863 156.538 44.1235C154.854 43.2401 152.717 42.7984 150.129 42.7984H141.131V95.0001H127.787Z" fill="url(#paint5_linear_725_4122)"/>
<path d="M78.5518 95.0001V31.8896H91.8949V83.9989H118.951V95.0001H78.5518Z" fill="url(#paint6_linear_725_4122)"/>
</g>
<defs>
<linearGradient id="paint0_linear_725_4122" x1="156.458" y1="153.002" x2="66.1265" y2="303.586" gradientUnits="userSpaceOnUse">
<stop offset="0.0001" stop-color="#C7F284"/>
<stop offset="1" stop-color="#00BEF0"/>
</linearGradient>
<linearGradient id="paint1_linear_725_4122" x1="156.459" y1="153" x2="66.1273" y2="303.584" gradientUnits="userSpaceOnUse">
<stop offset="0.0001" stop-color="#C7F284"/>
<stop offset="1" stop-color="#00BEF0"/>
</linearGradient>
<linearGradient id="paint2_linear_725_4122" x1="156.458" y1="152.999" x2="66.1263" y2="303.583" gradientUnits="userSpaceOnUse">
<stop offset="0.0001" stop-color="#C7F284"/>
<stop offset="1" stop-color="#00BEF0"/>
</linearGradient>
<linearGradient id="paint3_linear_725_4122" x1="156.462" y1="153.001" x2="66.1305" y2="303.584" gradientUnits="userSpaceOnUse">
<stop offset="0.0001" stop-color="#C7F284"/>
<stop offset="1" stop-color="#00BEF0"/>
</linearGradient>
<linearGradient id="paint4_linear_725_4122" x1="156.468" y1="152.999" x2="66.1357" y2="303.582" gradientUnits="userSpaceOnUse">
<stop offset="0.0001" stop-color="#C7F284"/>
<stop offset="1" stop-color="#00BEF0"/>
</linearGradient>
<linearGradient id="paint5_linear_725_4122" x1="188" y1="22" x2="41.8799" y2="136.933" gradientUnits="userSpaceOnUse">
<stop offset="0.0001" stop-color="#C7F284"/>
<stop offset="1" stop-color="#00BEF0"/>
</linearGradient>
<linearGradient id="paint6_linear_725_4122" x1="188" y1="22" x2="41.8799" y2="136.933" gradientUnits="userSpaceOnUse">
<stop offset="0.0001" stop-color="#C7F284"/>
<stop offset="1" stop-color="#00BEF0"/>
</linearGradient>
<clipPath id="clip0_725_4122">
<rect width="250" height="250" rx="125" fill="white"/>
</clipPath>
</defs>
</svg>
