<svg width="250" height="250" viewBox="0 0 250 250" fill="none" xmlns="http://www.w3.org/2000/svg">
<path d="M11.3849 124.322C11.3849 111.984 11.3269 99.6468 11.4009 87.3098C11.4774 74.6078 15.1859 63.1393 24.1674 53.9368C27.6694 50.3488 31.8064 47.1758 36.1364 44.6353C57.4759 32.1153 79.0229 19.9493 100.396 7.48628C107.898 3.11228 115.888 0.571776 124.474 0.500776C132.45 0.434776 140.145 2.23078 147.15 6.29878C170.903 20.0913 194.892 33.5013 218.293 47.8673C230.406 55.3038 237.238 67.2638 237.595 81.5513C238.277 108.934 238.481 136.347 238.046 163.734C237.767 181.282 229.213 194.753 213.97 203.641C192.272 216.294 170.462 228.754 148.758 241.397C141.335 245.72 133.334 247.988 124.864 247.999C116.396 248.011 108.38 245.776 100.957 241.456C79.1659 228.774 57.2909 216.237 35.4924 203.567C22.7254 196.147 14.8749 185.136 12.1644 170.59C11.6509 167.834 11.4354 164.988 11.4179 162.182C11.3414 149.562 11.3849 136.942 11.3849 124.322ZM115.925 57.2198C115.852 58.8038 115.741 60.1003 115.74 61.3973C115.729 79.7663 115.742 98.1348 115.731 116.504C115.723 129.974 115.774 143.445 115.631 156.913C115.555 164.024 111.905 169.134 105.504 171.899C99.2774 174.588 93.2029 173.902 87.7714 169.511C87.2839 169.117 86.7059 168.835 86.5294 168.725C82.2814 173.021 78.2144 177.134 74.0854 181.31C74.0349 181.212 74.0904 181.404 74.2114 181.537C74.5274 181.885 74.8594 182.221 75.2074 182.537C83.8539 190.38 94.0474 192.819 105.334 190.79C120.227 188.113 132.06 175.169 133.483 160.148C133.906 155.685 133.974 151.189 134.211 146.577C149.452 152.908 163.557 152.417 175.861 140.602C171.396 136.169 167.283 132.086 163.056 127.89C162.752 128.12 162.224 128.494 161.722 128.902C157.187 132.588 151.957 133.246 146.536 131.875C139.064 129.985 134.043 123.453 134.009 115.731C133.928 97.4568 133.978 79.1818 133.961 60.9073C133.96 59.7203 133.843 58.5333 133.773 57.2203C127.755 57.2198 122.041 57.2198 115.925 57.2198Z" fill="#0050DB"/>
<path d="M115.925 57.2197C122.041 57.2197 127.755 57.2197 133.775 57.2197C133.844 58.5327 133.961 59.7197 133.962 60.9067C133.979 79.1812 133.93 97.4562 134.011 115.73C134.045 123.453 139.066 129.985 146.537 131.875C151.958 133.246 157.188 132.588 161.723 128.901C162.225 128.493 162.754 128.119 163.058 127.89C167.284 132.086 171.397 136.169 175.863 140.602C163.559 152.416 149.453 152.908 134.213 146.577C133.975 151.188 133.908 155.685 133.485 160.148C132.061 175.169 120.228 188.112 105.336 190.789C94.049 192.818 83.855 190.379 75.209 182.536C74.861 182.22 74.529 181.884 74.213 181.536C74.092 181.403 74.0365 181.211 74.087 181.309C78.2165 177.133 82.283 173.021 86.531 168.724C86.7075 168.834 87.2855 169.116 87.773 169.51C93.2045 173.901 99.2785 174.588 105.505 171.898C111.906 169.133 115.557 164.023 115.632 156.913C115.775 143.444 115.724 129.973 115.733 116.503C115.744 98.1342 115.731 79.7657 115.742 61.3967C115.741 60.1002 115.852 58.8032 115.925 57.2197Z" fill="white"/>
</svg>
