<svg width="250" height="250" viewBox="0 0 250 250" fill="none" xmlns="http://www.w3.org/2000/svg">
<g clip-path="url(#clip0_242_94912)">
<path d="M209.574 183.99L209.639 206.925L174.444 227.243L174.379 204.308L209.574 183.99Z" fill="#3C1A26"/>
<path d="M174.44 227.243L112.233 191.083L112.16 168.148L174.375 204.308L174.44 227.243Z" fill="#29121A"/>
<path d="M174.377 204.311L112.162 168.151L147.357 147.833L209.572 183.993L174.377 204.311Z" fill="#421D2A"/>
<path d="M169.232 207.104L169.297 230.039L134.11 250.356L134.045 227.421L169.232 207.104Z" fill="#3C1A26"/>
<path d="M134.11 250.356L71.8951 214.196L71.8301 191.261L134.045 227.421L134.11 250.356Z" fill="#29121A"/>
<path d="M134.045 227.421L71.8301 191.261L107.025 170.943L169.233 207.103L134.045 227.421Z" fill="#421D2A"/>
<path d="M208.442 144.374L208.54 177.081L123.142 226.384L123.055 193.666L208.445 144.371L208.442 144.374Z" fill="#DB5B54"/>
<path d="M123.14 226.386L38.3123 177.083L38.2148 144.376L123.052 193.671L123.14 226.388V226.386Z" fill="#A24741"/>
<path d="M123.052 193.67L38.2148 144.373L123.605 95.0703L208.442 144.373L123.052 193.668V193.67Z" fill="#DB5B54"/>
<path d="M207.999 78.9238L208.192 144.341L122.794 193.644L122.609 128.226L207.999 78.9238Z" fill="#BD967F"/>
<path d="M122.796 193.643L37.9584 144.341L37.7734 78.9307L122.611 128.226L122.796 193.643Z" fill="#886B59"/>
<path d="M122.611 128.228L37.7734 78.9329L123.173 29.6279L208.003 78.9229L122.613 128.225L122.611 128.228Z" fill="#B88D73"/>
<path d="M165.404 120.421L165.444 133.501L154.056 140.081L154.089 153.161L165.484 146.588L142.709 159.733L142.629 133.566L165.404 120.421Z" fill="white"/>
<path d="M165.446 133.501L165.486 146.588L154.091 153.161L154.059 140.081L165.446 133.501Z" fill="#493239"/>
<path d="M198.9 101.081L198.94 114.169L187.552 120.741L187.585 133.821L198.972 127.249L176.207 140.394L176.135 114.226L198.9 101.081Z" fill="white"/>
<path d="M198.94 114.169L198.973 127.249L187.585 133.821L187.553 120.741L198.94 114.169Z" fill="#493239"/>
<path d="M71.6606 209.741L71.6131 229.368L43.1406 212.933L43.1956 193.306L71.6581 209.741H71.6606Z" fill="#886B59"/>
<path d="M71.6633 209.741L99.9408 193.306L99.8933 212.933L71.6133 229.368L71.6608 209.741H71.6633Z" fill="#BD967F"/>
<path d="M43.1992 193.308L71.4792 176.873L99.9417 193.308L71.6617 209.743L43.1992 193.308Z" fill="#CAA390"/>
<path d="M80.2401 201.588L80.2076 214.675L71.6601 209.74L43.1977 193.305L34.6602 188.38L34.7002 175.293L80.2401 201.59V201.588Z" fill="#A24741"/>
<path d="M80.2395 201.588L108.52 185.153L108.487 198.24L80.207 214.675L80.2395 201.588Z" fill="#C4524C"/>
<path d="M34.6992 175.293L62.9767 158.858L108.517 185.155L80.2367 201.59L34.6992 175.293Z" fill="#DB5B54"/>
<path d="M208.05 49.6582L208.148 82.3657L122.758 131.668L122.66 98.9607L208.05 49.6582Z" fill="#DB5B54"/>
<path d="M122.755 131.671L37.9178 82.3681L37.8203 49.6606L122.658 98.9631L122.755 131.671Z" fill="#A24741"/>
<path d="M122.659 98.9629L37.8242 49.658L123.222 0.355469L208.049 49.658L122.659 98.9604V98.9629Z" fill="#F2716A"/>
<path d="M192.504 107.196C199.601 102.996 207.276 99.863 215.286 97.8955V110.976C207.279 112.943 199.604 116.078 192.511 120.283C184.321 125.085 176.689 130.78 169.754 137.263V124.183C176.689 117.701 184.319 112.003 192.504 107.196Z" fill="#DB5B54"/>
<path d="M169.779 137.266L141.509 120.838L141.469 107.751L169.749 124.186L169.781 137.266H169.779Z" fill="#A24741"/>
<path d="M169.746 124.184L141.469 107.749C148.406 101.266 156.039 95.5712 164.226 90.7687C172.414 85.9637 186.824 81.1387 186.824 81.1387L215.311 97.9912C215.311 97.9912 200.694 102.389 192.506 107.196C184.319 112.004 176.686 117.701 169.749 124.184H169.746Z" fill="#F2716A"/>
<path d="M196.558 170.566L190.908 167.276L189.408 166.201L195.066 169.484L196.558 170.566Z" fill="#898989"/>
<path d="M185.643 182.644L179.985 179.354L177.025 176.729L182.683 180.011L185.643 182.644Z" fill="#898989"/>
<path d="M128.38 197.015L122.722 193.733L122.715 191.63L128.372 194.92L128.38 197.015Z" fill="#888888"/>
<path d="M214.333 135.93L214.348 141.7L214.355 145.28L214.363 147.375L196.555 170.568L195.063 169.485L185.643 182.645L182.683 180.013L171.448 197.395L160.15 193.023L157.213 199.065L147.743 196.81L146.25 199.61L128.38 197.018L128.373 194.923L128.348 185.583L214.333 135.935V135.93Z" fill="#D6D6D6"/>
<path d="M128.374 194.921L122.716 191.631L122.691 182.291L128.349 185.581L128.374 194.921Z" fill="#888888"/>
<path d="M128.349 185.58L122.691 182.29L208.676 132.65L214.334 135.933L128.349 185.58Z" fill="#FDFDFD"/>
<path d="M80.4648 140.548L86.1223 137.258L122.755 182.253L117.097 185.535L80.4648 140.55V140.548Z" fill="#FDFDFD"/>
<path d="M117.098 185.533L122.755 182.251L128.445 185.533L122.795 188.816L117.098 185.533Z" fill="#FDFDFD"/>
<path d="M122.794 188.816L128.444 185.533L128.412 197.008L122.762 200.298L122.794 188.816Z" fill="#D6D6D6"/>
<path d="M80.5453 113.688L80.4653 140.545L117.098 185.533L122.795 188.815L122.763 200.298L80.3678 174.475L70.2803 168.65L65.2578 165.745L65.2903 154.158L70.3778 134.723L70.4578 107.865L80.5453 113.69V113.688Z" fill="#898989"/>
<path d="M80.5448 113.688L86.2023 110.398L86.1223 137.255L80.4648 140.545L80.5448 113.688Z" fill="#FDFDFD"/>
<path d="M70.457 107.864L76.1145 104.581L86.202 110.399L80.5445 113.689L70.457 107.864Z" fill="#DCDCDC"/>
</g>
<defs>
<clipPath id="clip0_242_94912">
<rect width="250" height="250" rx="125" fill="white"/>
</clipPath>
</defs>
</svg>
