<svg width="250" height="250" viewBox="0 0 250 250" fill="none" xmlns="http://www.w3.org/2000/svg">
<g clip-path="url(#clip0_242_94777)">
<path d="M125.001 249.998C194.038 249.998 250.001 194.036 250.001 124.998C250.001 55.9605 194.038 -0.00195312 125.001 -0.00195312C55.9635 -0.00195312 0.000976562 55.9605 0.000976562 124.998C0.000976562 194.036 55.9635 249.998 125.001 249.998Z" fill="#EDF0F4"/>
<path d="M52.1416 92.8543L77.5866 149.768L119.871 191.649L77.9581 61.7998L52.1416 92.8543Z" fill="#9C2131"/>
<path d="M52.1416 92.8538L96.4691 119.269L77.9581 61.7373L52.1416 92.8538Z" fill="#576B98"/>
<path d="M93.6191 58.335L108.292 103.865L117.455 107.144L128.227 72.9965L93.6191 58.335Z" fill="#D71B2A"/>
<path d="M198.995 101.205L178.689 129.476L132.133 112.588L145.381 71.9436L181.35 62.7881L198.995 101.205Z" fill="#C41A24"/>
<path d="M169.091 142.839L135.969 188.37L114.61 123.167L169.091 142.839Z" fill="#C71C26"/>
<path d="M112.386 77.453L117.462 107.147L128.234 72.999L112.386 77.453Z" fill="#A71927"/>
<path d="M108.112 103.865L117.461 107.144L112.384 77.4505L93.6875 58.335L108.112 103.865Z" fill="#61395F"/>
<path d="M96.4701 119.27L77.5261 149.768L52.0811 92.8545L96.4701 119.27Z" fill="#614268"/>
<path d="M145.319 71.9443L162.221 97.9263L132.133 112.588L145.319 71.9443Z" fill="#DA1728"/>
<path d="M181.292 62.7881L162.162 97.9261L145.261 71.9436L181.292 62.7881Z" fill="#E42735"/>
<path d="M178.693 129.479L162.225 97.9912L199.061 101.27L178.693 129.479Z" fill="#A61D1E"/>
<path d="M137.153 148.345L135.915 188.37L114.556 123.167L137.153 148.345Z" fill="#D71B2A"/>
<path d="M135.973 188.369L137.211 148.345L169.156 142.839L135.973 188.369Z" fill="#A51C1C"/>
<path d="M120.058 191.645L77.5264 149.764L108.047 155.455L120.058 191.645Z" fill="#721919"/>
</g>
<defs>
<clipPath id="clip0_242_94777">
<rect width="250" height="250" fill="white"/>
</clipPath>
</defs>
</svg>
