<svg width="250" height="250" viewBox="0 0 250 250" fill="none" xmlns="http://www.w3.org/2000/svg">
<g clip-path="url(#clip0_20254_220354)">
<path d="M125 5C58.7349 5 5 58.7349 5 125C5 191.265 58.7349 245 125 245C191.265 245 245 191.265 245 125C245 58.7349 191.265 5 125 5Z" fill="white"/>
<path fill-rule="evenodd" clip-rule="evenodd" d="M0 125C0 55.9739 55.9739 0 125 0C194.026 0 250 55.9739 250 125C250 194.026 194.026 250 125 250C55.9739 250 0 194.026 0 125ZM12.999 124.999C12.999 63.1516 63.1516 12.999 124.999 12.999C186.846 12.999 236.999 63.1516 236.999 124.999C236.999 186.846 186.846 236.999 124.999 236.999C63.1516 236.999 12.999 186.846 12.999 124.999Z" fill="url(#paint0_linear_20254_220354)"/>
<path d="M125 21.999C68.1225 21.999 22 68.1215 22 124.999C22 181.877 68.1225 227.999 125 227.999C181.878 227.999 228 181.877 228 124.999C228 68.1215 181.878 21.999 125 21.999Z" fill="url(#paint1_linear_20254_220354)"/>
<path d="M170.051 110.551C172.09 96.9208 161.712 89.5934 147.521 84.7052L152.124 66.241L140.885 63.44L136.403 81.4176C133.449 80.6814 130.414 79.9867 127.398 79.2985L131.912 61.2024L120.679 58.4014L116.073 76.8592C113.627 76.3022 111.226 75.7516 108.896 75.1722L108.909 75.1146L93.4086 71.2444L90.4187 83.2487C90.4187 83.2487 98.7577 85.1598 98.5817 85.2782C103.134 86.4146 103.956 89.4269 103.819 91.815L98.5753 112.85C98.5753 112.85 92.3388 137.856 91.2062 142.396C90.6492 143.779 89.2375 145.854 86.0556 145.066C86.1676 145.229 77.8862 143.027 77.8862 143.027L72.3066 155.892L86.9327 159.538C89.6537 160.22 92.3202 160.934 94.9452 161.606L90.2939 180.282L101.52 183.083L106.127 164.606C109.193 165.438 112.171 166.206 115.084 166.93L110.493 185.321L121.732 188.122L126.384 169.481C145.549 173.108 159.96 171.645 166.027 154.311C170.915 140.354 165.783 132.303 155.7 127.053C163.043 125.36 168.575 120.529 170.051 110.551ZM144.371 146.561C140.898 160.518 117.398 152.973 109.779 151.081L115.951 126.339C123.57 128.241 148.001 132.005 144.371 146.561ZM147.847 110.35C144.678 123.045 125.119 116.595 118.775 115.014L124.37 92.5736C130.715 94.155 151.148 97.1065 147.847 110.35Z" fill="white"/>
</g>
<defs>
<linearGradient id="paint0_linear_20254_220354" x1="212.851" y1="212.855" x2="142.687" y2="1.45537" gradientUnits="userSpaceOnUse">
<stop stop-color="#7538F5"/>
<stop offset="1" stop-color="#9B63F9"/>
</linearGradient>
<linearGradient id="paint1_linear_20254_220354" x1="52" y1="52" x2="198" y2="198" gradientUnits="userSpaceOnUse">
<stop stop-color="#7C3FF6"/>
<stop offset="1" stop-color="#7132F5"/>
</linearGradient>
<clipPath id="clip0_20254_220354">
<rect width="250" height="250" rx="125" fill="white"/>
</clipPath>
</defs>
</svg>
