<svg width="250" height="250" viewBox="0 0 250 250" fill="none" xmlns="http://www.w3.org/2000/svg">
<path d="M125.449 5.55859L21.8984 65.3534V184.895L125.449 244.69L229 184.895V65.3534L125.449 5.55859ZM151.082 63.5121H124.528V81.1501H144.105C147.254 81.1501 149.823 83.7183 149.823 86.868C149.823 90.0176 147.254 92.5858 144.105 92.5858H124.528V147.196C136.739 149.716 145.995 160.57 145.995 173.507C145.995 188.335 133.929 200.401 119.101 200.401C104.274 200.401 92.2083 188.335 92.2083 173.507C92.2083 160.764 101.124 150.055 113.093 147.341V57.7458C113.093 54.5962 115.661 52.028 118.811 52.028H151.082C154.232 52.028 156.8 54.5962 156.8 57.7458C156.849 60.9439 154.281 63.5121 151.082 63.5121Z" fill="url(#paint0_linear_242_93563)"/>
<path d="M119.102 188.965C127.613 188.965 134.511 182.066 134.511 173.556C134.511 165.045 127.613 158.146 119.102 158.146C110.592 158.146 103.693 165.045 103.693 173.556C103.693 182.066 110.592 188.965 119.102 188.965Z" fill="url(#paint1_linear_242_93563)"/>
<defs>
<linearGradient id="paint0_linear_242_93563" x1="125.428" y1="242.972" x2="125.428" y2="3.84869" gradientUnits="userSpaceOnUse">
<stop stop-color="#08BCCD"/>
<stop offset="0.9996" stop-color="#26A5F1"/>
</linearGradient>
<linearGradient id="paint1_linear_242_93563" x1="119.106" y1="242.972" x2="119.106" y2="3.76157" gradientUnits="userSpaceOnUse">
<stop stop-color="#08BCCD"/>
<stop offset="0.9996" stop-color="#26A5F1"/>
</linearGradient>
</defs>
</svg>
