<svg width="250" height="250" viewBox="0 0 250 250" fill="none" xmlns="http://www.w3.org/2000/svg">
<path d="M248.604 123.979C248.598 192.407 193.224 247.648 124.706 247.578C56.9001 247.509 1.96461 192.149 1.99611 123.919C2.02761 55.7745 57.2681 0.962996 125.878 1.001C193.741 1.0385 248.609 56.02 248.604 123.979ZM133.78 229.753C166.649 229.319 202.987 205.367 219.329 173.096C235.19 141.775 235.262 110.064 220.828 77.7435C200.483 89.3315 180.694 100.602 160.271 112.234C170.319 117.643 179.53 122.512 188.649 127.545C193.545 130.248 195.073 134.938 192.793 139.301C190.507 143.677 185.663 145.161 180.798 142.6C166.744 135.201 152.677 127.817 138.852 120.007C136.596 118.733 134.211 115.359 134.151 112.9C133.744 96.2085 133.816 79.5005 134.022 62.801C134.09 57.2795 139.094 53.803 144.41 54.911C148.661 55.797 151.11 59.2485 151.136 64.702C151.188 75.41 151.151 86.119 151.151 97.693C171.815 85.9345 191.774 74.577 211.741 63.215C195.817 36.326 157.228 16.5575 122.94 17.7275C87.4866 18.9375 59.3386 34.098 37.6661 62.8435C58.3326 74.5905 78.4206 86.008 99.1206 97.774C99.1206 95.769 99.1201 94.817 99.1206 93.8655C99.1281 83.5875 99.0391 73.308 99.1886 63.032C99.2546 58.483 102.285 55.33 106.457 54.819C110.77 54.291 114.606 56.659 115.69 60.772C116.132 62.4495 116.164 64.2635 116.188 66.018C116.399 81.2615 116.549 96.5055 116.755 111.749C116.81 115.786 114.707 118.33 111.343 120.128C97.7601 127.388 84.1911 134.672 70.6036 141.923C64.6921 145.077 59.7736 144.102 57.2841 139.354C54.8426 134.698 56.8116 130.049 62.6486 126.882C71.5236 122.068 80.4231 117.299 89.9181 112.185C69.3956 100.538 49.3896 89.1845 29.3721 77.824C14.5406 105.643 13.2396 146.731 34.2571 179.907C53.2326 209.859 80.6796 226.278 115.917 230.213C115.917 205.618 115.917 181.66 115.917 157.09C106.09 162.759 96.9436 168.073 87.7581 173.318C82.2566 176.459 77.3926 175.592 74.7596 171.125C72.0991 166.612 73.6761 161.842 79.0661 158.687C92.6361 150.743 106.139 142.67 119.948 135.162C122.426 133.814 126.97 133.699 129.317 135.099C143.233 143.397 156.824 152.245 170.431 161.052C174.811 163.887 175.815 168.761 173.315 172.805C170.764 176.931 165.75 178.093 161.072 175.238C153.127 170.39 145.338 165.288 137.466 160.32C136.322 159.598 135.085 159.023 133.78 158.32C133.78 182.423 133.78 206.088 133.78 229.753Z" fill="url(#paint0_linear_242_93564)"/>
<defs>
<linearGradient id="paint0_linear_242_93564" x1="1.99611" y1="124.29" x2="248.604" y2="124.29" gradientUnits="userSpaceOnUse">
<stop stop-color="#27BAE3"/>
<stop offset="1" stop-color="#5C469B"/>
</linearGradient>
</defs>
</svg>
