<svg width="250" height="250" viewBox="0 0 250 250" fill="none" xmlns="http://www.w3.org/2000/svg">
<rect width="250" height="250" rx="125" fill="white"/>
<path d="M159.812 99.345H150.156V89.689C150.156 86.343 152.87 83.6289 156.216 83.6289H159.812C163.158 83.6289 165.872 86.343 165.872 89.689V93.2862C165.872 96.6322 163.158 99.345 159.812 99.345Z" fill="#005FFF"/>
<path d="M103.009 99.3446H93.353C90.007 99.3446 87.293 96.6318 87.293 93.2862V89.689C87.293 86.343 90.007 83.6289 93.353 83.6289H96.949C100.295 83.6289 103.009 86.343 103.009 89.689V99.3446Z" fill="#005FFF"/>
<path d="M93.353 163.78C90.007 163.78 87.293 161.067 87.293 157.722V154.125C87.293 150.779 90.007 148.064 93.353 148.064H103.009V157.722C103.009 161.068 100.295 163.781 96.949 163.781L93.353 163.78Z" fill="#005FFF"/>
<path d="M156.216 163.781C152.87 163.781 150.156 161.068 150.156 157.722V148.064H159.812C163.158 148.064 165.872 150.779 165.872 154.125V157.722C165.872 161.068 163.158 163.78 159.812 163.78L156.216 163.781Z" fill="#005FFF"/>
<path d="M124.783 85.199C121.437 85.199 118.723 82.485 118.723 79.139V75.5418C118.723 72.1958 121.437 69.4834 124.783 69.4834H128.379C131.725 69.4834 134.439 72.1962 134.439 75.5418V79.139C134.439 82.485 131.725 85.199 128.379 85.199H124.783Z" fill="#00CCEE"/>
<path d="M124.783 181.066C121.437 181.066 118.723 178.353 118.723 175.008V171.411C118.723 168.065 121.437 165.351 124.783 165.351H128.379C131.725 165.351 134.439 168.065 134.439 171.411V175.008C134.439 178.354 131.725 181.066 128.379 181.066H124.783Z" fill="#00CCEE"/>
<path d="M171.933 132.347C168.586 132.347 165.873 129.634 165.873 126.288V122.691C165.873 119.345 168.586 116.631 171.933 116.631H175.529C178.875 116.631 181.589 119.345 181.589 122.691V126.288C181.589 129.634 178.875 132.347 175.529 132.347H171.933Z" fill="#00CCEE"/>
<path d="M76.064 132.347C72.7163 132.347 70.0039 129.635 70.0039 126.289V122.692C70.0039 119.346 72.7167 116.632 76.064 116.632H79.6599C83.0059 116.632 85.72 119.346 85.72 122.692V126.289C85.72 129.635 83.0059 132.347 79.6599 132.347H76.064Z" fill="#00CCEE"/>
<path d="M145.801 117.23C148.206 117.23 150.156 115.259 150.156 112.827V100.916H138.16C135.755 100.916 133.803 102.885 133.803 105.317L133.805 109.232C133.803 113.649 130.483 117.451 126.11 117.451C121.74 117.451 117.976 113.649 117.976 109.232V105.158C117.976 102.814 116.096 100.916 113.776 100.916H103.008V149.636H113.688C116.057 149.636 117.976 147.697 117.976 145.306V141.638C117.976 136.984 121.372 133.077 125.744 133.077C130.115 133.093 133.805 136.821 133.805 141.237L133.803 145.27C133.805 147.681 135.74 149.636 138.125 149.636H150.156V137.59C150.156 135.18 148.221 133.225 145.834 133.225H142.241C137.869 133.225 133.805 129.645 133.805 125.227C133.821 120.809 137.363 117.229 141.736 117.229H145.8L145.801 117.23Z" fill="#003EC5"/>
<path d="M150.408 181.489C153.213 180.327 156.429 181.66 157.591 184.465C158.755 187.272 157.421 190.487 154.616 191.65C151.811 192.812 148.594 191.481 147.431 188.674C146.27 185.867 147.603 182.652 150.408 181.489Z" fill="#0054FF"/>
<path d="M100.117 58.903C102.922 57.7415 106.14 59.0742 107.302 61.8795C108.463 64.686 107.131 67.9013 104.325 69.0645C101.519 70.2259 98.3017 68.8949 97.1403 66.088C95.9788 63.281 97.3115 60.0657 100.117 58.903Z" fill="#0054FF"/>
<path d="M182.007 102.233C180.846 99.426 182.179 96.2106 184.984 95.0475C187.79 93.886 191.005 95.2188 192.169 98.024C193.33 100.831 191.998 104.048 189.192 105.209C186.386 106.37 183.169 105.039 182.007 102.233Z" fill="#0044FF"/>
<path d="M60.9938 152.524C59.8323 149.719 61.165 146.502 63.9703 145.341C66.7768 144.177 69.9909 145.511 71.1553 148.316C72.3167 151.121 70.984 154.339 68.1788 155.501C65.3723 156.662 62.1552 155.331 60.9938 152.524Z" fill="#0054FF"/>
<path d="M60.9955 98.024C62.1599 95.2188 65.3736 93.886 68.1805 95.0475C70.9857 96.2102 72.3185 99.4273 71.157 102.233C69.9926 105.039 66.7789 106.37 63.972 105.209C61.1672 104.048 59.8345 100.831 60.9955 98.024Z" fill="#002DAE"/>
<path d="M148.837 69.0645C146.032 67.9017 144.7 64.6864 145.861 61.8795C147.022 59.0742 150.239 57.7415 153.046 58.903C155.851 60.0657 157.184 63.281 156.022 66.088C154.861 68.8949 151.642 70.2259 148.837 69.0645Z" fill="#002DAE"/>
<path d="M182.007 148.316C183.172 145.511 186.387 144.177 189.192 145.341C191.998 146.502 193.33 149.719 192.169 152.524C191.007 155.331 187.791 156.662 184.984 155.501C182.179 154.339 180.846 151.121 182.007 148.316Z" fill="#00CCEE"/>
<path d="M96.974 193.221C94.1687 192.058 92.8348 188.843 93.9992 186.036C95.1606 183.23 98.3772 181.898 101.182 183.059C103.988 184.222 105.32 187.437 104.159 190.244C102.996 193.051 99.7792 194.382 96.974 193.221Z" fill="#0081E9"/>
<path d="M177.796 177.275C179.025 176.048 181.013 176.048 182.241 177.275C183.468 178.503 183.468 180.493 182.241 181.72C181.013 182.948 179.025 182.948 177.796 181.72C176.568 180.492 176.568 178.503 177.796 177.275Z" fill="#002DAE"/>
<path d="M70.9245 68.8337C72.152 67.6062 74.142 67.6062 75.3695 68.8337C76.5969 70.0612 76.5969 72.0512 75.3695 73.2786C74.142 74.5061 72.152 74.5061 70.9245 73.2786C69.697 72.0507 69.697 70.0612 70.9245 68.8337Z" fill="#0099C0"/>
<path d="M177.796 73.2786C176.568 72.0512 176.568 70.0612 177.796 68.8337C179.025 67.6062 181.013 67.6062 182.241 68.8337C183.468 70.0612 183.468 72.0512 182.241 73.2786C181.013 74.5066 179.025 74.5066 177.796 73.2786Z" fill="#0099C0"/>
<path d="M70.9245 181.72C69.697 180.493 69.697 178.503 70.9245 177.275C72.152 176.048 74.142 176.048 75.3695 177.275C76.5969 178.503 76.5969 180.493 75.3695 181.72C74.142 182.948 72.152 182.948 70.9245 181.72Z" fill="#0099C0"/>
<path d="M200.449 124.491C200.449 122.755 201.857 121.347 203.591 121.347C205.328 121.347 206.736 122.755 206.736 124.491C206.736 126.225 205.328 127.633 203.591 127.633C201.857 127.633 200.449 126.225 200.449 124.491Z" fill="#0099C0"/>
<path d="M48.002 124.491C48.002 122.755 49.4088 121.347 51.1455 121.347C52.8804 121.347 54.289 122.755 54.289 124.491C54.289 126.225 52.8809 127.633 51.1455 127.633C49.4088 127.633 48.002 126.225 48.002 124.491Z" fill="#0099C0"/>
<path d="M126.582 52.1962C124.846 52.1962 123.438 50.7894 123.438 49.0527C123.438 47.316 124.846 45.9092 126.582 45.9092C128.316 45.9092 129.724 47.316 129.724 49.0527C129.724 50.7894 128.316 52.1962 126.582 52.1962Z" fill="#0099C0"/>
<path d="M126.582 204.642C124.846 204.642 123.438 203.233 123.438 201.498C123.438 199.761 124.846 198.354 126.582 198.354C128.316 198.354 129.724 199.761 129.724 201.498C129.724 203.233 128.316 204.642 126.582 204.642Z" fill="#83FFEE"/>
<path d="M224.021 124.49C224.021 126.224 225.431 127.634 227.165 127.634C228.899 127.634 230.308 126.224 230.308 124.49C230.308 122.757 228.899 121.347 227.165 121.347C225.431 121.347 224.021 122.757 224.021 124.49Z" fill="#005FFF"/>
<path d="M22.0705 122.917C20.7708 122.917 19.7129 123.973 19.7129 125.275C19.7129 126.576 20.7708 127.632 22.0705 127.632C23.372 127.632 24.4282 126.576 24.4282 125.275C24.4282 123.973 23.372 122.917 22.0705 122.917Z" fill="#005FFF"/>
<path d="M121.867 23.9082C121.867 25.6418 123.277 27.0517 125.011 27.0517C126.744 27.0517 128.154 25.6418 128.154 23.9082C128.154 22.1745 126.744 20.7646 125.011 20.7646C123.277 20.7646 121.867 22.1745 121.867 23.9082Z" fill="#00CCEE"/>
<path d="M214.965 161.947C213.954 164.341 215.081 167.113 217.474 168.124C218.071 168.375 218.692 168.495 219.302 168.495C221.142 168.495 222.893 167.413 223.652 165.615C224.663 163.219 223.537 160.45 221.142 159.438C218.745 158.424 215.975 159.552 214.965 161.947Z" fill="#00CCEE"/>
<path d="M163.951 212.747C163.56 212.582 163.146 212.499 162.731 212.499C162.33 212.499 161.93 212.578 161.548 212.732C160.77 213.047 160.161 213.648 159.834 214.421C159.509 215.193 159.503 216.046 159.819 216.824C160.134 217.602 160.735 218.211 161.508 218.536C162.28 218.863 163.132 218.871 163.911 218.553C164.689 218.237 165.298 217.638 165.624 216.864C165.95 216.092 165.956 215.238 165.64 214.461C165.325 213.684 164.726 213.076 163.951 212.747Z" fill="#00CCEE"/>
<path d="M33.5073 82.3068C33.1145 82.1419 32.701 82.0586 32.2845 82.0586C31.8866 82.0586 31.4858 82.1372 31.1042 82.2911C30.3247 82.6069 29.7164 83.2074 29.3909 83.9806C29.0657 84.7524 29.0593 85.6072 29.3751 86.3837C29.6909 87.1615 30.2898 87.7701 31.0646 88.0953C31.8365 88.4221 32.6899 88.4285 33.4677 88.111C34.2455 87.7952 34.8542 87.1963 35.181 86.4228C35.5062 85.6509 35.5125 84.7962 35.1968 84.0197C34.881 83.2419 34.2808 82.6354 33.5073 82.3068Z" fill="#00CCEE"/>
<path d="M24.7374 163.037C25.5814 161.038 27.8851 160.103 29.8842 160.945C31.8833 161.789 32.8182 164.093 31.9759 166.092C31.1319 168.091 28.8282 169.026 26.8291 168.184C24.83 167.34 23.8951 165.034 24.7374 163.037Z" fill="#83FFEE"/>
<path d="M161.987 33.0277C159.988 32.1837 159.053 29.8799 159.896 27.8808C160.74 25.8818 163.043 24.9468 165.042 25.7891C167.041 26.6331 167.976 28.9369 167.134 30.936C166.29 32.9346 163.985 33.87 161.987 33.0277Z" fill="#83FFEE"/>
<path d="M220.778 80.6581C220.195 80.8952 219.738 81.3449 219.494 81.9247C219.249 82.5048 219.244 83.1458 219.481 83.7289C219.718 84.3104 220.168 84.7677 220.748 85.0112C221.328 85.2565 221.969 85.2611 222.551 85.024C223.134 84.7868 223.591 84.3388 223.836 83.7587C224.341 82.5609 223.778 81.1762 222.582 80.6704C222.287 80.5446 221.977 80.4834 221.666 80.4834C221.366 80.4838 221.064 80.5421 220.778 80.6581Z" fill="#83FFEE"/>
<path d="M82.7622 30.0626C82.256 31.2603 82.8187 32.6451 84.0164 33.1509C84.5979 33.3978 85.2392 33.3991 85.8207 33.1636C86.4038 32.9265 86.8612 32.4751 87.1064 31.8953C87.6126 30.6976 87.0482 29.3146 85.8504 28.8101C85.5516 28.6826 85.2422 28.623 84.9375 28.623C84.0164 28.6226 83.1409 29.1637 82.7622 30.0626Z" fill="#005FFF"/>
<path d="M83.3669 215.644C82.4476 215.644 81.572 216.184 81.1916 217.085C80.6854 218.281 81.2498 219.667 82.4476 220.173C83.6453 220.679 85.0313 220.115 85.5358 218.917C86.042 217.721 85.4793 216.335 84.2816 215.83C83.9832 215.703 83.6733 215.644 83.3669 215.644Z" fill="#50E7F0"/>
<path d="M194.815 199.006C196.041 197.779 196.041 195.786 194.815 194.561C194.221 193.966 193.43 193.639 192.591 193.639C191.75 193.639 190.961 193.966 190.367 194.561C189.141 195.786 189.141 197.779 190.367 199.006C191.593 200.232 193.586 200.234 194.815 199.006Z" fill="#50E7F0"/>
<path d="M47.8095 50.4338C45.9724 52.2727 45.9724 55.2662 47.8095 57.1033C48.7304 58.0225 49.9373 58.4832 51.146 58.4832C52.3546 58.4832 53.5615 58.023 54.4824 57.1033C56.3196 55.2662 56.3196 52.2727 54.4824 50.4338C52.6419 48.5937 49.6484 48.5937 47.8095 50.4338Z" fill="#50E7F0"/>
<path d="M196.424 51.3138C195.978 51.7601 195.732 52.3513 195.732 52.9812C195.732 53.6115 195.978 54.204 196.424 54.6473C197.342 55.5701 198.84 55.5684 199.757 54.649C200.677 53.7297 200.677 52.2332 199.759 51.3138C199.299 50.8535 198.695 50.624 198.092 50.624C197.487 50.624 196.883 50.8535 196.424 51.3138Z" fill="#50E7F0"/>
<path d="M48.6917 194.33C47.7723 195.248 47.7723 196.746 48.69 197.664C49.611 198.585 51.1088 198.583 52.0269 197.664C52.9462 196.746 52.9462 195.248 52.0269 194.33C51.5819 193.884 50.9894 193.639 50.3595 193.639C49.7292 193.639 49.1384 193.884 48.6917 194.33Z" fill="#00CCEE"/>
<path d="M123.438 224.654C123.438 226.388 124.847 227.798 126.581 227.798C128.315 227.798 129.725 226.388 129.725 224.654C129.725 222.921 128.315 221.511 126.581 221.511C124.847 221.511 123.438 222.921 123.438 224.654Z" fill="#00CCEE"/>
</svg>
