<svg width="250" height="250" viewBox="0 0 250 250" fill="none" xmlns="http://www.w3.org/2000/svg">
<path d="M38.2842 125.064C38.2842 173.364 77.4492 212.529 125.784 212.494C174.084 212.494 213.249 173.329 213.214 124.994C213.214 118.169 212.409 111.344 210.834 104.729C209.609 99.689 204.534 96.574 199.494 97.799C194.454 99.024 191.339 104.099 192.564 109.139C201.314 146.029 178.529 183.059 141.639 191.809C104.714 200.594 67.7192 177.774 58.9342 140.884C50.1492 103.994 73.0042 66.964 109.894 58.214C120.359 55.729 131.244 55.729 141.709 58.214C146.749 59.404 151.824 56.289 153.049 51.214C154.239 46.174 151.124 41.099 146.049 39.874C99.0792 28.6741 51.8992 57.654 40.6992 104.624C39.0892 111.344 38.2842 118.169 38.2842 125.064Z" fill="url(#paint0_radial_242_93570)"/>
<path d="M157.284 117.47C157.109 116.91 156.934 116.315 156.794 115.755C156.794 115.685 156.794 115.58 156.794 115.475C153.644 102.035 162.009 88.5949 175.449 85.4449C176.569 85.1649 177.724 84.9899 178.914 84.8849H179.439C179.964 84.8849 180.489 84.8849 181.049 84.8849H181.154C184.374 84.5699 187.419 83.1699 189.694 80.8599C190.254 80.2999 190.744 79.7049 191.199 79.0399C195.819 72.8799 194.559 64.1299 188.399 59.5449C182.764 55.3099 174.854 55.9749 169.989 61.0499C169.884 61.1549 169.779 61.2949 169.674 61.4349C167.539 63.7099 166.244 66.6149 165.964 69.6949C165.964 70.1849 165.964 70.6749 165.964 71.1999C165.964 71.6899 165.964 71.8649 165.859 72.2149C164.529 85.9349 152.314 95.9799 138.559 94.6499C137.439 94.5449 136.319 94.3699 135.234 94.0899C134.604 93.9499 133.974 93.7749 133.379 93.5649C130.719 92.9349 127.989 92.6199 125.294 92.6549C117.314 92.7949 109.684 95.8749 103.874 101.3C103.559 101.615 103.209 101.86 102.894 102.175C90.7142 115.265 91.4142 135.74 104.504 147.92C116.929 159.505 136.249 159.505 148.674 147.92C156.479 139.905 159.734 128.46 157.284 117.47Z" fill="url(#paint1_linear_242_93570)"/>
<defs>
<radialGradient id="paint0_radial_242_93570" cx="0" cy="0" r="1" gradientUnits="userSpaceOnUse" gradientTransform="translate(178.878 69.2639) scale(75.7867 75.7867)">
<stop stop-color="#00EDD3"/>
<stop offset="0.42" stop-color="#00EDD3"/>
<stop offset="0.94" stop-color="#1B456E"/>
<stop offset="1" stop-color="#1B456E"/>
</radialGradient>
<linearGradient id="paint1_linear_242_93570" x1="102.858" y1="147.949" x2="189.722" y2="61.0856" gradientUnits="userSpaceOnUse">
<stop stop-color="#1B456E"/>
<stop offset="0.06" stop-color="#1B456E"/>
<stop offset="0.58" stop-color="#00EDD3"/>
<stop offset="1" stop-color="#00EDD3"/>
</linearGradient>
</defs>
</svg>
