<svg width="250" height="250" viewBox="0 0 250 250" fill="none" xmlns="http://www.w3.org/2000/svg">
<path d="M115.938 124.501L202.227 173.862C205.243 175.579 209.001 173.398 209.001 169.965V79.0363C209.001 75.5569 205.243 73.4228 202.227 75.1394L115.938 124.501Z" fill="#31CB9E"/>
<path d="M200.327 53.2401L141.362 9.90957C138.625 7.9147 134.728 9.35286 133.986 12.5539L112.46 108.957L199.724 60.6629C202.693 59.0855 202.925 55.1886 200.327 53.2401Z" fill="#31CB9E"/>
<path d="M141.316 239.04L200.327 195.709C202.971 193.761 202.693 189.864 199.863 188.287L112.506 139.992L134.032 236.396C134.681 239.643 138.625 241.035 141.316 239.04Z" fill="#31CB9E"/>
<path d="M93.5306 122.783L115.845 17.9362C116.727 13.8073 112.088 10.8382 108.747 13.3898L51.6383 57.4162C48.7155 59.643 46.999 63.2152 46.999 66.9266V178.64C46.999 182.351 48.7155 185.877 51.6383 188.15L108.747 232.13C112.041 234.682 116.68 231.712 115.845 227.584L93.5306 122.783Z" fill="#31CB9E"/>
</svg>
