<svg width="250" height="250" viewBox="0 0 250 250" fill="none" xmlns="http://www.w3.org/2000/svg">
<rect width="250" height="250" rx="125" fill="white"/>
<g clip-path="url(#clip0_242_94473)">
<path d="M38.8495 11.3652H211.183C218.473 11.3653 225.463 14.261 230.618 19.4153C235.772 24.5695 238.668 31.5602 238.668 38.8495V211.183C238.668 218.473 235.772 225.463 230.618 230.618C225.463 235.772 218.473 238.668 211.183 238.668H38.8495C31.5602 238.668 24.5695 235.772 19.4153 230.618C14.261 225.463 11.3653 218.473 11.3652 211.183V38.8495C11.3653 31.5602 14.261 24.5695 19.4153 19.4153C24.5695 14.261 31.5602 11.3653 38.8495 11.3652V11.3652Z" fill="#231434" stroke="#7FFAFC" stroke-width="0.253442"/>
<path fill-rule="evenodd" clip-rule="evenodd" d="M146.504 62.2115C146.504 67.4853 144.94 72.6407 142.01 77.0258C139.08 81.4108 134.915 84.8285 130.043 86.8468C125.171 88.865 119.809 89.3931 114.637 88.3643C109.464 87.3354 104.713 84.7958 100.984 81.0667C97.2547 77.3376 94.7151 72.5863 93.6862 67.4139C92.6573 62.2414 93.1854 56.88 95.2036 52.0076C97.2218 47.1352 100.639 42.9707 105.024 40.0407C109.409 37.1107 114.565 35.5469 119.839 35.5469C126.911 35.5469 133.693 38.3562 138.694 43.3567C143.694 48.3573 146.503 55.1396 146.504 62.2115ZM211.928 128.58C211.927 128.691 211.894 128.799 211.832 128.89C211.77 128.982 211.682 129.052 211.579 129.094C211.477 129.135 211.364 129.144 211.256 129.121C211.148 129.097 211.049 129.042 210.973 128.963L184.881 102.871C184.801 102.795 184.746 102.696 184.723 102.588C184.699 102.48 184.709 102.367 184.75 102.265C184.791 102.162 184.862 102.074 184.953 102.012C185.045 101.95 185.153 101.916 185.263 101.916C187.158 101.916 188.915 102.805 190.255 104.144L209.7 123.59C211.04 124.929 211.928 126.686 211.928 128.58L211.928 128.58ZM178.698 102.73C178.953 102.668 179.219 102.672 179.47 102.743C179.722 102.815 179.951 102.95 180.135 103.135L210.708 133.709C210.894 133.893 211.029 134.122 211.1 134.374C211.171 134.626 211.176 134.892 211.113 135.146C211.046 135.396 210.913 135.623 210.729 135.804C210.544 135.985 210.315 136.113 210.064 136.176C209.813 136.238 209.55 136.232 209.302 136.158C209.054 136.085 208.831 135.946 208.655 135.757L178.088 105.189C177.899 105.013 177.76 104.789 177.686 104.541C177.612 104.294 177.606 104.03 177.668 103.779C177.731 103.528 177.859 103.299 178.04 103.114C178.221 102.93 178.449 102.797 178.698 102.73ZM171.865 105.521C172.149 105.359 172.48 105.296 172.804 105.341C173.128 105.386 173.428 105.538 173.658 105.771L208.071 140.185C208.305 140.414 208.456 140.714 208.502 141.039C208.547 141.363 208.484 141.693 208.321 141.978C208.206 142.17 208.048 142.333 207.859 142.454C207.67 142.575 207.456 142.651 207.234 142.675C207.011 142.7 206.785 142.673 206.575 142.597C206.364 142.52 206.174 142.396 206.019 142.234L171.609 107.824C171.447 107.669 171.323 107.479 171.246 107.268C171.169 107.057 171.142 106.832 171.167 106.609C171.192 106.386 171.268 106.172 171.389 105.984C171.51 105.795 171.673 105.637 171.865 105.521ZM166.428 109.705C166.567 109.571 166.73 109.465 166.909 109.393C167.089 109.322 167.28 109.286 167.473 109.289C167.666 109.292 167.857 109.333 168.034 109.409C168.211 109.486 168.372 109.596 168.506 109.735L204.108 145.338C204.247 145.473 204.357 145.633 204.434 145.81C204.51 145.988 204.551 146.178 204.553 146.371C204.556 146.564 204.521 146.756 204.449 146.935C204.378 147.114 204.272 147.278 204.137 147.416C203.999 147.551 203.836 147.658 203.656 147.729C203.477 147.801 203.285 147.837 203.092 147.834C202.898 147.832 202.708 147.791 202.53 147.715C202.353 147.638 202.192 147.527 202.057 147.389L166.456 111.785C166.317 111.651 166.206 111.49 166.13 111.313C166.053 111.135 166.013 110.944 166.01 110.751C166.008 110.558 166.043 110.366 166.115 110.187C166.187 110.007 166.293 109.844 166.428 109.705ZM162.234 115.131C162.349 114.94 162.508 114.777 162.696 114.657C162.885 114.536 163.099 114.461 163.321 114.436C163.544 114.412 163.769 114.439 163.98 114.515C164.19 114.592 164.38 114.716 164.535 114.877L198.965 149.309C199.127 149.464 199.251 149.654 199.327 149.864C199.404 150.075 199.431 150.3 199.406 150.523C199.382 150.745 199.306 150.959 199.186 151.148C199.065 151.336 198.903 151.495 198.711 151.61C198.427 151.773 198.096 151.837 197.771 151.792C197.446 151.747 197.145 151.595 196.916 151.36L162.483 116.927C162.249 116.697 162.097 116.396 162.052 116.071C162.006 115.747 162.07 115.416 162.233 115.131L162.234 115.131ZM159.429 121.95C159.497 121.701 159.63 121.474 159.815 121.294C159.999 121.113 160.229 120.985 160.48 120.923C160.73 120.862 160.993 120.868 161.24 120.942C161.488 121.015 161.711 121.154 161.887 121.343L192.499 151.956C192.688 152.132 192.827 152.355 192.901 152.603C192.975 152.851 192.981 153.113 192.919 153.364C192.857 153.615 192.729 153.844 192.549 154.029C192.368 154.214 192.141 154.347 191.892 154.414C191.637 154.478 191.371 154.473 191.118 154.402C190.866 154.332 190.636 154.196 190.452 154.01L159.834 123.391C159.648 123.206 159.512 122.977 159.441 122.724C159.371 122.472 159.366 122.205 159.429 121.951V121.95ZM158.599 128.58C158.599 128.463 158.634 128.349 158.7 128.252C158.765 128.155 158.858 128.08 158.967 128.037C159.076 127.994 159.195 127.984 159.309 128.009C159.423 128.034 159.528 128.092 159.608 128.177L185.666 154.236C185.751 154.316 185.809 154.421 185.834 154.535C185.859 154.649 185.849 154.768 185.806 154.877C185.763 154.985 185.688 155.078 185.591 155.144C185.494 155.21 185.38 155.245 185.263 155.245C183.424 155.245 181.715 154.386 180.415 153.085L160.757 133.428C159.457 132.127 158.598 130.42 158.598 128.581L158.599 128.58ZM168.08 145.764C169.884 147.568 168.473 149.453 166.648 147.672C166.487 147.515 166.329 147.357 166.172 147.196C164.391 145.37 166.276 143.96 168.08 145.764L168.08 145.764ZM203.888 109.498C202.098 107.751 200.716 109.592 202.484 111.36C204.252 113.128 206.093 111.746 204.346 109.957C204.195 109.802 204.042 109.649 203.888 109.498Z" fill="#7FFAFC"/>
</g>
<defs>
<clipPath id="clip0_242_94473">
<rect width="227.302" height="227.302" fill="white" transform="translate(11.3662 11.3652)"/>
</clipPath>
</defs>
</svg>
