<svg width="250" height="250" viewBox="0 0 250 250" fill="none" xmlns="http://www.w3.org/2000/svg">
<rect width="250" height="250" rx="125" fill="white"/>
<g clip-path="url(#clip0_242_94475)">
<path d="M58.613 76.0966H54.2988C58.238 68.5857 62.7399 61.0747 68.7422 55.1453C70.9931 52.971 73.6193 50.9945 76.4329 49.6109C79.2466 48.2274 82.4353 47.6344 85.6241 47.6344C89.0005 47.832 92.3768 49.0179 95.5656 50.0063C98.7543 51.1923 102.131 52.3781 105.507 52.9711C108.133 53.3665 110.947 53.1688 113.573 52.5758C117.137 51.9827 120.326 50.4015 123.327 48.2274L122.952 51.1923C122.577 51.5875 122.389 51.7851 122.014 51.9827C119.951 53.7616 117.887 55.7383 116.199 57.9125C112.072 62.8537 108.696 68.3881 106.445 74.5154C104.006 81.2356 103.444 88.3512 103.444 95.4667V132.823C103.444 135.788 103.444 138.753 102.881 141.718C102.506 144.485 101.756 147.45 100.443 150.019C97.8167 155.357 93.69 159.507 89.0006 162.866C84.3111 166.424 79.059 169.192 73.8069 171.169H67.6168C70.0553 169.983 72.3063 168.204 73.9945 165.831C76.2454 162.866 77.746 159.309 78.4964 155.357C79.2466 151.601 79.2466 147.648 79.2466 143.892V127.487H71.1807C70.2429 127.684 69.1175 128.08 68.1796 128.475C66.4916 129.463 64.9908 131.242 64.2404 133.219C63.4902 134.998 63.3026 136.974 63.6778 138.753H60.1139C57.8629 133.614 57.1127 127.685 58.2381 121.952C58.8007 118.988 59.9264 115.825 61.6145 113.256C63.4902 110.884 65.9288 108.71 68.7424 107.524C71.9311 105.942 75.6828 105.547 79.2467 105.547C79.4343 100.804 79.8094 96.06 81.3099 91.7115C82.4355 88.3514 83.9361 85.3865 85.9994 82.8172C88.0628 80.2477 90.5012 77.8758 92.9397 75.7015L100.63 68.9813C98.9422 69.7718 97.2539 70.5625 95.3783 70.9578C91.2517 72.1436 87.1248 71.7482 82.9983 70.7602C78.8717 69.7718 74.9324 68.1907 70.8057 67.7953C68.1796 67.5977 65.5538 67.9929 63.4902 69.3767C61.0517 70.7602 59.1761 73.3297 58.6131 76.0969L58.613 76.0966ZM195.731 171.366V177.493L167.032 201.41C163.092 199.433 159.53 196.468 156.716 192.713C153.714 189.154 151.651 184.608 150.15 180.062L124.077 201.607C117.324 196.271 109.634 192.119 101.38 190.142C96.3156 188.957 91.0635 188.561 85.999 189.353C80.9343 189.945 75.8699 191.725 71.5554 194.491C67.6163 197.061 64.24 200.421 61.8014 204.572H56.1743C58.0499 200.223 60.676 196.271 63.4898 192.318C70.0549 183.818 78.8711 176.9 88.4375 172.749C92.1891 170.18 95.753 167.611 99.1293 164.646C102.881 161.285 106.257 157.727 108.133 153.38C109.258 151.205 109.821 148.833 110.196 146.461C110.759 144.089 110.759 141.718 110.759 138.951L111.697 92.1064C111.885 86.1767 112.26 79.8518 114.135 73.9222C116.011 67.7948 119.2 62.4582 122.951 57.7146C126.703 53.1686 131.205 49.0177 135.894 45.46L137.395 47.6342L138.896 50.0061C134.581 53.1686 130.455 57.1217 126.891 61.4701C123.514 65.6208 120.701 70.3646 119.2 75.7012C117.512 80.6426 117.137 86.3744 116.949 92.1066L116.386 125.905L154.652 79.0612C148.462 78.8636 142.272 76.6893 137.02 73.1316L129.892 81.6307L127.266 78.6658L150.338 49.6109C153.152 53.1688 157.09 55.7383 161.217 56.9241C165.719 58.3076 170.597 58.11 174.723 55.7383C177.911 53.7616 180.537 50.4015 181.475 46.6461H184.102C185.04 52.378 184.289 58.3076 181.664 63.4466C179.224 68.5856 175.097 72.9341 170.408 75.5036C167.032 77.2825 163.656 78.4685 160.092 78.8636L135.707 108.512C140.396 110.093 144.898 112.465 149.025 115.43C153.527 118.987 157.465 123.336 160.467 128.08C163.468 133.021 165.719 138.555 167.219 144.089C168.532 149.228 169.47 154.169 170.597 159.111C171.908 164.25 173.41 169.192 176.035 173.541C177.911 176.703 180.162 179.469 182.788 181.841L195.731 171.365L195.731 171.366ZM149.025 176.703C147.899 172.749 147.149 168.796 146.399 164.843C145.086 158.914 143.585 152.984 140.959 147.647C138.52 142.113 134.957 136.974 130.267 133.416C126.891 131.044 123.139 129.266 119.388 128.475L116.949 131.242H116.199L116.011 139.148C116.011 141.718 116.011 144.683 115.449 147.45C115.073 150.415 114.136 153.181 112.823 155.751C110.384 161.088 106.632 165.238 102.506 168.796C103.631 168.599 104.757 168.599 106.07 168.4C119.388 167.611 133.269 172.157 143.585 181.05L149.025 176.703V176.703Z" fill="black"/>
</g>
<defs>
<clipPath id="clip0_242_94475">
<rect width="159.112" height="159.112" fill="white" transform="translate(45.459 45.46)"/>
</clipPath>
</defs>
</svg>
