<svg width="250" height="250" viewBox="0 0 250 250" fill="none" xmlns="http://www.w3.org/2000/svg">
<rect width="250" height="250" rx="125" fill="white"/>
<g clip-path="url(#clip0_242_94418)">
<path d="M233.735 105.4L165.455 53.6153C159.565 49.1399 149.423 49.1399 143.513 53.6153L124.979 67.5599L106.461 53.6153C100.555 49.1399 90.4532 49.1399 84.5549 53.6153L16.241 105.4C14.7384 106.42 13.5083 107.792 12.658 109.397C11.8078 111.002 11.3633 112.79 11.3633 114.606C11.3633 116.423 11.8078 118.211 12.658 119.816C13.5083 121.421 14.7384 122.793 16.241 123.813L56.3124 154.121L60.8375 157.532L79.6211 171.749L84.1056 175.143L111.998 196.228C114.987 198.421 118.591 199.618 122.298 199.65C123.182 199.727 124.091 199.773 125.023 199.773C125.968 199.773 126.891 199.728 127.786 199.647C131.458 199.607 135.024 198.411 137.977 196.228L165.871 175.127L170.365 171.733L189.157 157.523L193.681 154.112L233.735 123.812C235.251 122.802 236.494 121.433 237.354 119.827C238.213 118.221 238.663 116.427 238.663 114.605C238.663 112.784 238.213 110.99 237.354 109.384C236.494 107.778 235.251 106.409 233.735 105.399L233.735 105.4ZM138.098 154.111L125.011 164.012L111.901 154.111L107.415 150.701L88.6382 136.493L84.1217 133.082L65.6354 119.089C64.8175 118.553 64.1381 117.831 63.6529 116.982C63.1677 116.133 62.8905 115.181 62.8439 114.204C62.8944 113.234 63.17 112.288 63.6489 111.443C64.1279 110.597 64.797 109.874 65.6034 109.332L87.4274 92.7161C91.3597 89.7073 98.79 89.7073 102.769 92.7161L112.413 100.058C114.747 101.774 117.476 102.872 120.348 103.249L120.101 103.258C123.455 103.692 126.855 103.608 130.182 103.008C130.41 102.973 130.637 102.938 130.863 102.894C130.942 102.88 131.018 102.87 131.098 102.855L131.03 102.857C133.388 102.423 135.62 101.466 137.561 100.058L147.244 92.7161C151.19 89.7073 158.619 89.7073 162.55 92.7477L184.375 109.332C185.224 109.832 185.929 110.545 186.418 111.4C186.908 112.256 187.165 113.225 187.165 114.21C187.165 115.196 186.908 116.165 186.418 117.02C185.929 117.876 185.224 118.589 184.375 119.089L165.888 133.082L161.364 136.493L142.584 150.711L138.098 154.111ZM143.076 184.056L131.88 193.899L117.663 193.905L107.702 184.083L125.083 170.824L125.293 170.974L143.076 184.056ZM139.49 191.621L139.986 191.222C139.834 191.381 139.674 191.534 139.512 191.687C139.503 191.666 139.499 191.643 139.49 191.622L139.49 191.621ZM131.797 97.0121L131.792 97.0139L117.578 97.0219L107.761 87.5336L124.961 74.4328L142.382 87.8923L131.797 97.0121ZM19.5235 119.506C18.6804 118.998 17.9836 118.28 17.5011 117.422C17.0187 116.565 16.7673 115.596 16.7713 114.612C16.7754 113.628 17.0349 112.662 17.5244 111.808C18.0139 110.954 18.7167 110.242 19.5639 109.741L87.8306 57.9647C90.0798 56.3619 92.7855 55.526 95.5468 55.581C98.2816 55.5294 100.959 56.3658 103.179 57.9647L120.47 70.9633L120.491 70.9801L100.955 85.867C95.3329 84.2104 88.5393 85.0508 84.154 88.4076L62.3141 104.975C60.7981 105.991 59.5556 107.365 58.6965 108.975C57.8373 110.585 57.3879 112.382 57.3879 114.207C57.3879 116.032 57.8373 117.829 58.6965 119.44C59.5556 121.05 60.7981 122.424 62.3141 123.44L79.5984 136.515L60.8137 150.726L19.5235 119.506ZM65.3238 154.135L84.1156 139.925L102.9 154.135L84.1062 168.355L65.3238 154.135ZM107.375 157.532L120.487 167.44L120.503 167.451L101.793 181.726L88.5923 171.749L107.375 157.532ZM148.619 181.397L129.592 167.385L142.607 157.532L161.394 171.733L148.619 181.397ZM165.871 168.339L147.098 154.135L165.888 139.918L184.68 154.121L165.871 168.339ZM230.462 119.506L189.188 150.711L170.397 136.493L187.664 123.439C189.178 122.423 190.418 121.05 191.277 119.442C192.136 117.833 192.587 116.038 192.59 114.215C192.593 112.392 192.149 110.596 191.295 108.984C190.442 107.373 189.206 105.996 187.696 104.974L165.871 88.4071C162.687 86.0746 158.827 84.8485 154.881 84.9162C152.79 84.9123 150.711 85.2454 148.726 85.9025L129.451 71.0142L129.505 70.973L146.799 57.9659C150.771 54.9739 158.201 54.9739 162.182 57.9659L230.462 109.741C231.296 110.254 231.985 110.972 232.462 111.827C232.94 112.681 233.191 113.644 233.191 114.624C233.191 115.603 232.94 116.566 232.462 117.42C231.985 118.275 231.296 118.993 230.462 119.506Z" fill="url(#paint0_linear_242_94418)"/>
</g>
<defs>
<linearGradient id="paint0_linear_242_94418" x1="125.637" y1="39.7424" x2="123.835" y2="256.021" gradientUnits="userSpaceOnUse">
<stop offset="0.122" stop-color="#500F82"/>
<stop offset="0.816" stop-color="#A973B6"/>
</linearGradient>
<clipPath id="clip0_242_94418">
<rect width="227.302" height="227.302" fill="white" transform="translate(11.3633 11.3662)"/>
</clipPath>
</defs>
</svg>
