<svg width="250" height="250" viewBox="0 0 250 250" fill="none" xmlns="http://www.w3.org/2000/svg">
<path d="M211.78 68.4444V45.1344C211.78 42.8944 209.54 41.3544 207.475 42.1594L121.34 75.3044L136.81 43.0344C137.825 40.9344 136.285 38.4844 133.94 38.4844H110.84C109.615 38.4844 108.495 39.1844 107.97 40.2694L87.4245 82.6544L71.5345 40.5494C71.0795 39.3244 69.8895 38.4844 68.5595 38.4844H45.1445C42.9045 38.4844 41.3645 40.7244 42.1695 42.7894L75.4545 129.344L43.5345 114.399C41.4345 113.419 39.0195 114.959 39.0195 117.269V139.424C39.0195 140.649 39.7195 141.734 40.8045 142.294L82.3495 162.664L41.0495 178.344C39.8245 178.799 39.0195 179.989 39.0195 181.319V204.664C39.0195 206.904 41.2595 208.409 43.3245 207.639L129.95 174.844L114.13 206.694C113.08 208.794 114.62 211.279 116.965 211.279H140.485C141.71 211.279 142.83 210.579 143.355 209.494L163.095 168.614L178.88 209.284C179.37 210.509 180.525 211.314 181.855 211.314H205.2C207.44 211.314 208.98 209.074 208.175 207.009L175.66 121.434L206.845 135.469C208.945 136.414 211.325 134.874 211.325 132.564V110.339C211.325 109.114 210.625 108.029 209.54 107.469L168.135 87.2394L209.785 71.4544C210.975 70.9294 211.78 69.7744 211.78 68.4444ZM145.735 139.179L118.96 149.294C115.845 147.894 114.13 147.124 111.015 145.724L100.9 118.949C102.3 115.834 103.07 114.119 104.47 111.004L131.245 100.889C134.36 102.289 136.075 103.059 139.19 104.459L149.305 131.234C147.905 134.314 147.135 136.064 145.735 139.179Z" fill="url(#paint0_linear_242_93575)"/>
<defs>
<linearGradient id="paint0_linear_242_93575" x1="41.4135" y1="40.9088" x2="209.119" y2="208.614" gradientUnits="userSpaceOnUse">
<stop stop-color="#38BFB4"/>
<stop offset="1" stop-color="#1281A0"/>
</linearGradient>
</defs>
</svg>
