<svg width="250" height="250" viewBox="0 0 250 250" fill="none" xmlns="http://www.w3.org/2000/svg">
<rect width="250" height="250" rx="125" fill="white"/>
<g clip-path="url(#clip0_242_94452)">
<path d="M83.1094 99.5938V146.505C83.1094 194.825 124.186 201.244 124.601 201.304L124.733 201.322L124.864 201.304C125.279 201.244 166.356 194.826 166.356 146.505V99.5938H83.1094Z" fill="#255D97"/>
<path d="M124.73 200.385C124.73 200.385 84.0361 194.579 84.0361 146.506V100.523H165.425V146.506C165.425 194.579 124.73 200.385 124.73 200.385Z" fill="#00ADEE"/>
<path d="M86.8232 103.31V146.506C86.8232 189.401 120.701 196.825 124.564 197.531L124.73 197.562L124.897 197.531C128.76 196.827 162.638 189.401 162.638 146.506V103.31H86.8232Z" fill="#255D97"/>
<path d="M161.708 104.238V146.505C161.708 188.335 129.418 195.759 124.729 196.616C120.04 195.759 87.751 188.335 87.751 146.505V104.238H161.708Z" fill="white"/>
<path d="M95.1855 127.925V144.646C95.1855 177.468 117.633 185.448 124.514 187.112L124.732 187.166L124.951 187.112C131.831 185.448 154.28 177.467 154.28 144.646V127.925H95.1855Z" fill="#255D97"/>
<path d="M134.873 128.856V182.027C134.908 182.007 134.944 181.986 134.978 181.965V128.856H134.873Z" fill="#00ADEE"/>
<path d="M115.088 128.856V182.327C115.123 182.347 115.157 182.365 115.192 182.385V128.856H115.088Z" fill="#00ADEE"/>
<path d="M96.1123 128.856V144.648C96.1123 166.76 106.416 177.337 115.087 182.327V128.856H96.1123Z" fill="#00ADEE"/>
<path d="M115.193 128.856V182.385C118.181 184.096 121.391 185.384 124.732 186.213C128.301 185.325 131.719 183.915 134.875 182.027V128.856H115.193Z" fill="white"/>
<path d="M153.349 144.648V128.856H134.979V181.965C143.515 176.837 153.349 166.248 153.349 144.648Z" fill="#00ADEE"/>
<path d="M102.152 113.398L101.389 116.533H101.172C101.142 116.131 101.055 115.736 100.915 115.359C100.763 114.973 100.513 114.634 100.19 114.375C99.9129 114.153 99.5693 114.031 99.2146 114.029C99.0462 114.03 98.8797 114.066 98.7263 114.135C98.5728 114.205 98.4358 114.306 98.3244 114.433C98.2038 114.552 98.1079 114.694 98.0423 114.85C97.9766 115.006 97.9424 115.174 97.9416 115.343C97.9445 115.69 98.0367 116.03 98.2094 116.33C98.5674 116.868 98.9912 117.358 99.471 117.79C99.8974 118.176 100.259 118.629 100.541 119.131C100.725 119.511 100.819 119.928 100.815 120.35C100.819 120.831 100.688 121.303 100.437 121.714C100.174 122.139 99.7896 122.475 99.3335 122.679C98.8195 122.913 98.2599 123.029 97.6952 123.02C97.2184 123.008 96.7438 122.95 96.2783 122.845C95.9065 122.758 95.5285 122.7 95.1476 122.671C95.0103 122.669 94.874 122.694 94.7459 122.743C94.5904 122.814 94.4459 122.907 94.3168 123.02H94.0557L94.8298 119.493H95.0787C95.1154 120.039 95.2365 120.575 95.4376 121.084C95.5995 121.492 95.8732 121.847 96.2272 122.107C96.5674 122.351 96.9773 122.48 97.3963 122.474C97.7964 122.478 98.1817 122.324 98.4676 122.044C98.7536 121.764 98.9167 121.382 98.9212 120.982C98.9207 120.64 98.8359 120.302 98.6744 120C98.3594 119.499 97.9806 119.041 97.5475 118.637C97.0585 118.172 96.6476 117.632 96.3306 117.037C96.1706 116.687 96.0888 116.306 96.0908 115.921C96.0887 115.588 96.1566 115.257 96.2902 114.952C96.4238 114.646 96.6201 114.372 96.8663 114.147C97.1388 113.893 97.4589 113.697 97.8081 113.568C98.1573 113.44 98.5286 113.382 98.9003 113.398C99.4062 113.42 99.9071 113.507 100.39 113.659C100.64 113.74 100.898 113.791 101.159 113.812C101.278 113.814 101.396 113.786 101.5 113.729C101.635 113.641 101.752 113.529 101.847 113.398L102.152 113.398Z" fill="#255D97"/>
<path d="M102.717 120.779C102.861 120.777 103.004 120.805 103.137 120.862C103.269 120.918 103.388 121.002 103.486 121.108C103.69 121.322 103.803 121.606 103.802 121.902C103.801 122.197 103.687 122.481 103.482 122.694C103.385 122.799 103.266 122.882 103.134 122.939C103.003 122.995 102.861 123.024 102.717 123.022C102.575 123.024 102.434 122.996 102.303 122.939C102.172 122.883 102.055 122.799 101.959 122.694C101.758 122.479 101.646 122.195 101.646 121.901C101.646 121.607 101.758 121.323 101.959 121.108C102.055 121.003 102.172 120.919 102.303 120.862C102.434 120.806 102.575 120.778 102.717 120.779Z" fill="#255D97"/>
<path d="M112.936 113.398L112.174 116.533H111.957C111.926 116.131 111.84 115.736 111.699 115.359C111.548 114.973 111.298 114.634 110.974 114.375C110.697 114.153 110.354 114.031 110 114.029C109.831 114.03 109.664 114.066 109.511 114.136C109.357 114.205 109.22 114.306 109.109 114.433C108.865 114.674 108.728 115.001 108.726 115.343C108.729 115.69 108.821 116.03 108.994 116.33C109.352 116.867 109.776 117.358 110.255 117.79C110.682 118.176 111.043 118.629 111.325 119.131C111.509 119.511 111.604 119.928 111.6 120.35C111.604 120.831 111.473 121.303 111.222 121.714C110.959 122.139 110.574 122.475 110.118 122.679C109.604 122.913 109.045 123.029 108.48 123.02C108.003 123.008 107.529 122.95 107.063 122.846C106.691 122.758 106.313 122.7 105.932 122.671C105.795 122.67 105.658 122.694 105.53 122.743C105.375 122.815 105.231 122.908 105.102 123.02H104.84L105.614 119.493H105.864C105.901 120.039 106.022 120.575 106.223 121.084C106.385 121.492 106.658 121.847 107.012 122.107C107.353 122.351 107.763 122.48 108.182 122.474C108.582 122.478 108.967 122.323 109.253 122.044C109.539 121.764 109.702 121.382 109.707 120.982C109.706 120.64 109.622 120.303 109.46 120.001C109.145 119.499 108.766 119.041 108.333 118.637C107.844 118.172 107.433 117.631 107.116 117.035C106.957 116.685 106.875 116.304 106.877 115.919C106.875 115.586 106.943 115.255 107.076 114.95C107.21 114.644 107.406 114.37 107.652 114.145C107.924 113.891 108.245 113.695 108.594 113.566C108.943 113.438 109.315 113.38 109.687 113.396C110.192 113.418 110.693 113.506 111.177 113.657C111.426 113.738 111.684 113.789 111.945 113.81C112.064 113.812 112.182 113.784 112.286 113.727C112.421 113.639 112.538 113.526 112.633 113.396L112.936 113.398Z" fill="#255D97"/>
<path d="M113.502 120.779C113.646 120.777 113.788 120.805 113.921 120.862C114.053 120.919 114.172 121.002 114.27 121.108C114.474 121.322 114.587 121.606 114.586 121.902C114.585 122.197 114.471 122.481 114.267 122.694C114.169 122.799 114.05 122.882 113.919 122.939C113.787 122.995 113.645 123.023 113.502 123.022C113.359 123.024 113.218 122.996 113.087 122.939C112.957 122.883 112.839 122.799 112.743 122.694C112.542 122.479 112.431 122.196 112.431 121.901C112.431 121.607 112.542 121.323 112.743 121.108C112.839 121.003 112.956 120.919 113.087 120.862C113.218 120.806 113.359 120.778 113.502 120.779Z" fill="#255D97"/>
<path d="M122.591 122.824H115.515L115.583 122.585C115.91 122.612 116.236 122.521 116.501 122.328C116.696 122.156 116.875 121.771 117.039 121.171L118.674 115.231C118.752 114.981 118.798 114.722 118.81 114.46C118.813 114.377 118.797 114.295 118.764 114.22C118.73 114.144 118.68 114.077 118.616 114.024C118.383 113.886 118.114 113.82 117.844 113.833L117.918 113.594H122.174L122.099 113.833C121.769 113.816 121.445 113.919 121.185 114.123C120.982 114.307 120.802 114.681 120.643 115.245L119.148 120.669C119.017 121.08 118.921 121.5 118.862 121.927C118.865 121.978 118.88 122.028 118.905 122.072C118.93 122.116 118.966 122.154 119.008 122.183C119.148 122.274 119.314 122.316 119.481 122.302C120.211 122.301 120.931 122.123 121.578 121.783C122.269 121.419 122.857 120.886 123.287 120.234H123.57L122.591 122.824Z" fill="#255D97"/>
<path d="M127.288 119.276L129.697 116.277L129.523 119.276H127.288ZM129.458 121.018C129.462 121.382 129.399 121.744 129.275 122.086C129.208 122.251 129.092 122.392 128.943 122.489C128.729 122.543 128.511 122.575 128.291 122.586L128.217 122.825H132.061L132.121 122.586C132.011 122.586 131.902 122.565 131.801 122.522C131.699 122.48 131.607 122.418 131.53 122.34C131.394 122.142 131.332 121.903 131.352 121.663C131.352 121.582 131.359 121.345 131.372 120.948L131.679 113.398H131.374L125.115 121.199C124.81 121.611 124.461 121.989 124.074 122.326C123.888 122.46 123.674 122.549 123.448 122.586L123.38 122.825H126.013V122.585C125.816 122.592 125.622 122.535 125.459 122.425C125.41 122.39 125.369 122.345 125.34 122.292C125.311 122.239 125.295 122.18 125.292 122.12C125.293 122.012 125.316 121.905 125.36 121.806C125.43 121.643 125.519 121.489 125.626 121.348L126.246 120.575L126.817 119.863H129.523L129.458 121.018Z" fill="#255D97"/>
<path d="M142.098 113.852L135.307 122.302H135.839C136.895 122.302 137.744 122.137 138.386 121.807C139.102 121.411 139.712 120.849 140.166 120.169H140.439L139.513 122.824H132.628V122.563L139.401 114.138H138.57C137.51 114.138 136.723 114.275 136.21 114.549C135.645 114.878 135.186 115.362 134.889 115.945H134.629L135.384 113.594H142.097L142.098 113.852Z" fill="#255D97"/>
<path d="M143.047 113.832L143.121 113.593H147.452L147.37 113.832C147.047 113.809 146.726 113.907 146.471 114.107C146.264 114.29 146.083 114.672 145.928 115.254L144.299 121.163C144.209 121.437 144.15 121.72 144.121 122.007C144.118 122.082 144.133 122.156 144.165 122.223C144.197 122.291 144.244 122.349 144.304 122.394C144.575 122.541 144.882 122.608 145.19 122.585L145.121 122.825H140.735L140.81 122.585C141.151 122.613 141.491 122.52 141.77 122.321C141.974 122.145 142.16 121.759 142.328 121.164L143.958 115.254C144.042 114.984 144.092 114.705 144.109 114.423C144.112 114.347 144.097 114.271 144.065 114.201C144.033 114.132 143.984 114.071 143.924 114.025C143.802 113.93 143.51 113.865 143.047 113.832Z" fill="#255D97"/>
<path d="M153.566 114.36C153.789 114.638 153.9 115.087 153.899 115.706C153.87 116.862 153.658 118.006 153.272 119.095C152.853 120.363 152.313 121.326 151.652 121.982C151.495 122.142 151.307 122.269 151.099 122.354C150.891 122.439 150.668 122.481 150.443 122.477C150.273 122.481 150.105 122.444 149.951 122.37C149.798 122.297 149.664 122.188 149.56 122.053C149.306 121.687 149.184 121.246 149.215 120.802C149.239 119.983 149.358 119.17 149.571 118.379C149.747 117.591 150 116.822 150.325 116.083C150.533 115.618 150.799 115.182 151.116 114.784C151.324 114.524 151.578 114.305 151.864 114.136C152.135 114 152.435 113.934 152.738 113.943C152.899 113.942 153.058 113.979 153.202 114.052C153.346 114.124 153.471 114.23 153.566 114.36ZM152.59 122.444C153.464 121.929 154.251 121.097 154.95 119.948C155.612 118.921 155.975 117.73 155.999 116.508C155.994 115.977 155.856 115.455 155.598 114.99C155.342 114.501 154.953 114.094 154.475 113.817C154.013 113.544 153.487 113.399 152.951 113.397C151.956 113.424 150.991 113.744 150.178 114.316C149.239 114.93 148.471 115.772 147.944 116.762C147.417 117.687 147.131 118.731 147.115 119.795C147.122 120.323 147.234 120.843 147.445 121.327C147.646 121.828 147.989 122.259 148.432 122.567C148.948 122.891 149.55 123.049 150.158 123.021C151.005 123.049 151.845 122.849 152.59 122.444Z" fill="#255D97"/>
<path d="M11.3643 48.7121C11.3643 48.7121 17.809 58.553 28.782 58.553C28.782 58.553 31.4819 64.8233 41.41 64.8233C41.41 64.8233 42.9784 70.397 51.077 70.397C51.077 70.397 52.4701 74.5776 60.134 74.5776C60.134 74.5776 60.8307 77.3643 67.1013 77.3643C68.3834 78.6775 69.9135 79.7232 71.6027 80.4408C73.292 81.1583 75.1069 81.5334 76.9422 81.5444C76.9422 81.5444 78.3355 84.3314 83.2125 84.3314C83.2125 84.3314 85.4769 87.1183 88.6992 87.1183C88.6992 87.1183 90.6442 89.905 93.5761 89.905C93.5761 89.905 95.9276 94.1724 105.507 94.1724C104.725 95.0024 103.779 95.6625 102.731 96.1118C101.682 96.5611 100.552 96.7899 99.411 96.7841C99.411 96.7841 99.6724 98.3525 101.24 98.7873C100.805 99.2824 100.269 99.6785 99.6682 99.949C99.0673 100.22 98.4155 100.358 97.7565 100.356C98.2713 101.414 99.0772 102.304 100.08 102.921C101.082 103.538 102.239 103.857 103.416 103.839C107.597 103.839 106.551 102.62 109.687 103.839C109.687 103.839 111.778 105.581 109.077 107.236C109.077 107.236 111.08 107.787 113.257 104.536C113.257 104.536 114.389 105.842 113.083 107.236C113.083 107.236 115.493 107.554 117.263 103.839C117.263 103.839 120.05 105.146 117.263 107.236C117.263 107.236 120.254 107.554 121.531 103.839C121.531 103.839 123.971 102.873 125.711 103.839C127.279 104.71 124.231 107.149 124.231 107.149C124.231 107.149 127.54 108.281 128.498 103.839C128.498 103.839 131.721 103.752 129.805 107.236C129.805 107.236 132.679 107.323 132.679 103.839C132.679 103.839 137.207 103.723 134.594 106.975C134.594 106.975 138.426 107.062 138.165 101.401C138.165 101.401 137.817 99.2238 135.465 99.2238C135.465 99.2238 139.907 98.2657 141.736 94.0854C141.736 94.0854 145.045 95.7401 148.616 94.0854C148.616 94.0854 152.971 94.5209 154.973 90.6017C154.973 90.6017 158.544 91.0372 160.547 87.1183C160.547 87.1183 164.553 87.4665 167.514 83.6347C167.514 83.6347 171.23 83.8958 173.32 80.8479C173.32 80.8479 180.055 81.2832 182.145 77.3643C182.145 77.3643 188.241 78.2353 190.592 73.8809C190.592 73.8809 196.252 74.5776 198.953 69.7006C198.953 69.7006 205.485 70.3102 209.317 64.8233C209.317 64.8233 217.242 65.6073 221.161 59.2497C221.161 59.2497 232.569 60.4689 238.666 48.7121H159.067C159.067 48.7121 149.662 48.3637 143.043 54.9825C143.043 54.9825 132.766 66.8266 124.667 66.8266C124.667 66.8266 120.573 67.9588 111.081 58.4659C111.081 58.4659 102.546 48.7121 90.9629 48.7121H11.3643Z" fill="#D2AC14"/>
<path d="M109.05 101.691C109.05 101.691 110.85 102.272 110.85 103.607C110.85 103.607 111.895 102.098 110.327 101.053L109.05 101.691Z" fill="white"/>
<path d="M113.069 101.635C113.069 101.635 115.45 102.448 115.45 103.783C115.45 103.783 115.914 102.041 114.347 100.996L113.069 101.635Z" fill="white"/>
<path d="M125.771 101.691C125.771 101.691 127.339 102.156 127.339 103.491C127.339 103.491 128.616 102.098 127.048 101.053L125.771 101.691Z" fill="white"/>
<path d="M117.351 101.75C117.351 101.75 119.963 102.678 118.976 103.724C118.976 103.724 121.821 102.272 118.686 100.996L117.351 101.75Z" fill="white"/>
<path d="M129.893 101.693C129.893 101.693 131.403 102.215 131.403 103.492C131.403 103.492 132.913 102.041 131.287 100.357C131.287 100.357 129.835 100.88 129.893 101.693Z" fill="white"/>
<path d="M133.377 101.693C133.377 101.693 135.525 102.216 135.351 102.912C135.351 102.912 136.57 101.867 135.409 100.358C135.409 100.358 133.783 100.126 133.377 101.693Z" fill="white"/>
<path d="M119.441 100.299L121.531 98.2666C121.531 98.2666 122.518 98.9632 126.35 98.9632C126.35 98.9632 126.64 100.299 119.441 100.299Z" fill="white"/>
<path d="M102.025 100.299L103.825 98.6729C103.825 98.6729 103.535 99.0215 108.934 99.0215C108.934 99.0215 108.528 100.299 102.025 100.299Z" fill="white"/>
<path d="M104.811 97.4547L110.384 94.0872C110.384 94.0872 115.435 91.3004 118.048 91.3004C118.048 91.3004 121.88 91.1841 121.88 94.0872C121.88 94.0872 121.764 97.5126 113.577 97.5126C113.577 97.5133 105.043 97.919 104.811 97.4547Z" fill="white"/>
<path d="M123.797 97.4542L133.551 90.5446C133.551 90.5446 134.712 89.79 136.743 89.79C136.743 89.79 138.776 89.79 138.776 91.2415C138.776 91.2415 139.356 96.8728 128.616 97.8597C128.616 97.8606 125.713 98.1508 123.797 97.4542Z" fill="white"/>
<path d="M125.017 90.6611C125.017 90.6611 129.778 90.9514 130.59 87.8164C130.59 87.8164 130.3 88.6871 126.816 88.7453L125.017 90.6611Z" fill="white"/>
<path d="M117.351 89.7898L118.105 88.5124C118.105 88.5124 121.008 88.7447 121.53 87.1191L124.258 88.5124C124.258 88.5124 124.259 92.1117 117.351 89.7898Z" fill="white"/>
<path d="M108.99 89.8484L110.384 87.8164H113.112C113.112 87.8164 113.344 88.4551 115.203 88.4551C115.202 88.4551 115.318 90.545 108.99 89.8484Z" fill="white"/>
<path d="M132.622 88.4541C133.273 87.9829 133.803 87.3631 134.166 86.6462C134.53 85.9292 134.717 85.1359 134.713 84.332L132.681 85.0289C132.681 85.0289 131.228 88.2218 132.622 88.4541Z" fill="white"/>
<path d="M124.261 85.7259C124.261 85.7259 124.725 88.8609 130.473 86.3644L129.892 85.0293L124.261 85.7259Z" fill="white"/>
<path d="M113.752 82.9385C113.752 82.9385 113.868 83.5772 115.145 83.6351C115.145 83.6351 114.681 85.8991 111.14 85.6673C111.14 85.6673 111.43 83.8674 113.752 82.9385Z" fill="white"/>
<path d="M114.565 86.4236C114.565 86.4236 116.134 87.9918 120.777 86.3654L119.384 84.3916C119.384 84.3916 115.552 84.6237 114.565 86.4236Z" fill="white"/>
<path d="M118.861 80.9648C118.861 80.9648 119.673 81.6037 121.357 81.6037C121.357 81.6037 118.222 84.9708 115.958 82.2422L118.861 80.9648Z" fill="white"/>
<path d="M122.229 84.2739C122.229 84.2739 126.931 84.8544 128.44 82.2419L126.35 80.8486C126.35 80.8486 122.229 82.416 122.229 84.2739Z" fill="white"/>
<path d="M134.77 88.4551C134.77 88.4551 137.672 88.5713 140.285 85.6686C140.285 85.6686 140.227 84.6231 138.95 84.3331C138.213 84.329 137.497 84.5747 136.918 85.0299C136.918 85.0299 134.944 87.7003 134.77 88.4551Z" fill="white"/>
<path d="M135.467 80.2103C135.467 80.2103 136.163 80.9069 136.163 83.5776H138.892C138.892 83.5776 137.034 82.3584 136.801 80.1523L135.467 80.2103Z" fill="white"/>
<path d="M134.014 80.1523C134.014 80.1523 134.073 81.6618 134.711 82.1841C134.711 82.1841 133.724 84.0419 129.95 83.5776L131.286 81.5454L134.014 80.1523Z" fill="white"/>
<path d="M129.253 80.0948L130.589 78.0628C132.001 78.2331 133.433 77.9912 134.711 77.3662C134.711 77.3662 134.304 80.0948 129.253 80.0948Z" fill="white"/>
<path d="M129.95 75.2751L131.286 73.8818C131.286 73.8818 131.576 74.5785 134.711 74.5785C134.711 74.5776 131.518 78.7003 129.95 75.2751Z" fill="white"/>
<path d="M127.105 76.6699L128.441 78.0052C128.441 78.0052 127.744 80.0963 121.531 80.0963L122.228 78.0643C122.228 78.0643 126.467 78.5275 127.105 76.6699Z" fill="white"/>
<path d="M96.4502 73.8834C96.5965 74.3627 96.8584 74.7986 97.2127 75.1529C97.5671 75.5072 98.003 75.769 98.4823 75.9153H120.08C120.08 75.9153 122.112 77.5991 127.047 75.9153C127.047 75.9153 128.441 75.625 129.138 73.1877C129.138 73.1877 128.325 73.42 127.745 71.7363C125.696 71.7941 123.729 72.5523 122.171 73.8846L96.4502 73.8834Z" fill="white"/>
<path d="M92.9084 73.8818C93.8956 75.4502 95.0566 75.9137 95.0566 75.9137H67.8262C66.245 75.7811 64.7724 75.0552 63.7041 73.8818H92.9084Z" fill="white"/>
<path d="M98.4825 77.3662C98.7728 78.9919 99.8759 79.3983 99.8759 79.3983H74.8524C74.8524 79.3983 73.284 79.5144 72.0654 77.3662H98.4825Z" fill="white"/>
<path d="M102.082 77.3662C102.082 77.3662 102.488 78.9346 104.056 79.3983H115.319L114.565 80.7917C114.565 80.7917 118.977 81.256 120.081 77.3662H102.082Z" fill="white"/>
<path d="M80.4268 80.8486C80.4268 80.8486 81.8201 82.5323 83.2135 82.8807H105.45C105.45 82.8807 104.173 82.5323 103.476 80.8486H80.4268Z" fill="white"/>
<path d="M106.264 80.8486C106.264 80.8486 106.438 82.0678 108.238 82.8806H111.024C112.475 82.3578 112.417 80.8486 112.417 80.8486H106.264Z" fill="white"/>
<path d="M86.6963 84.332C86.6963 84.332 86.9866 85.0869 88.0315 85.6677H109.63C109.856 85.5289 110.04 85.3314 110.163 85.0962C110.285 84.861 110.342 84.5969 110.326 84.332H86.6963Z" fill="white"/>
<path d="M91.5149 87.1771C91.5149 87.1771 91.3986 87.7576 92.2696 88.4545H107.539C108.352 88.4545 108.294 87.1191 108.294 87.1191L91.5149 87.1771Z" fill="white"/>
<path d="M96.5088 89.9072C96.7357 90.2714 97.0411 90.5804 97.4026 90.8114C97.7642 91.0425 98.1729 91.1899 98.5987 91.2428H104.753C104.998 91.1262 105.199 90.9328 105.325 90.6918C105.45 90.4508 105.494 90.1753 105.449 89.9072H96.5088Z" fill="white"/>
<path d="M131.982 67.5548H166.76C166.76 67.5548 169.198 66.916 170.301 64.8258H140.343L143.942 61.2844H176.572C176.572 61.2844 179.242 60.9359 180.694 58.5554H147.95C147.95 58.5554 151.491 55.014 153.93 55.014L189.753 55.0368C189.753 55.0368 192.482 54.6649 193.933 51.5879H156.309C156.309 51.5879 149.69 52.0527 143.131 58.5547C143.131 58.5547 137.44 65.1735 131.982 67.5548Z" fill="white"/>
<path d="M184.236 58.5537C184.236 58.5537 184.294 59.8893 181.449 61.2827H212.743C212.743 61.2827 215.878 60.9342 216.923 58.5537H184.236Z" fill="white"/>
<path d="M173.787 64.8242C173.787 64.8242 173.903 66.2758 171.058 67.5532H199.565C199.565 67.5532 202.7 67.9014 205.08 64.8242H173.787Z" fill="white"/>
<path d="M160.549 69.0049C161.018 69.8578 161.258 70.8181 161.245 71.7916H189.056C189.056 71.7916 193.12 72.256 195.384 69.0049H160.549Z" fill="white"/>
<path d="M55.3428 69.7021C55.3428 69.7021 55.7492 71.3276 58.1297 71.7342H85.997C85.997 71.7342 84.8357 71.3276 83.8488 69.7021H55.3428Z" fill="white"/>
<path d="M45.5898 64.8826C45.5898 64.8826 46.8091 67.5532 49.7699 67.5532H78.9738C78.9738 67.5532 76.8837 66.5076 76.2461 64.8242L45.5898 64.8826Z" fill="white"/>
<path d="M33.0488 58.4971C33.0488 58.4971 34.6745 61.284 37.2291 61.284H68.5235C68.5235 61.284 66.5496 60.5873 65.7367 58.555L33.0488 58.4971Z" fill="white"/>
<path d="M19.1162 51.5879C19.1162 51.5879 20.6846 55.0133 23.9934 55.0133H55.9847C55.9847 55.0133 53.6044 53.6779 53.1977 51.5879H19.1162Z" fill="white"/>
<path d="M127.047 69.006V71.0381C127.047 71.0381 122.925 70.9799 122.228 72.4315H121.357C121.357 72.4315 120.311 72.6638 120.08 71.7348H90.8761C90.8761 71.7348 88.844 71.6766 88.0894 69.7027H115.957L113.809 67.5551H83.967C83.967 67.5551 81.2962 67.1487 80.4254 64.8261H110.442L106.842 61.2848H74.1562C74.1562 61.2848 71.4854 61.0525 70.6143 58.5558H102.72C102.72 58.5558 99.585 55.0144 96.6239 55.0144H60.9174C60.9174 55.0144 57.434 54.7821 56.7373 51.589H93.663C93.663 51.589 100.398 51.4726 108.933 59.9494C108.933 59.9494 117.467 69.0067 122.286 69.0067L127.047 69.006Z" fill="white"/>
<path d="M170.36 73.9398C170.36 73.9398 170.999 74.3462 170.999 75.9137H183.482C183.482 75.9137 185.282 75.8557 186.269 73.8818L170.36 73.9398Z" fill="white"/>
<path d="M170.302 79.3972C170.302 79.3972 171.579 78.7585 171.753 77.3652H178.604C178.604 77.3652 178.662 78.9908 176.514 79.3972H170.302Z" fill="white"/>
<path d="M145.917 82.8807C147.043 82.5265 148.022 81.8127 148.704 80.8486H169.605C169.229 81.4671 168.701 81.9788 168.071 82.3346C167.44 82.6904 166.729 82.8784 166.006 82.8807H145.917Z" fill="white"/>
<path d="M142.491 85.6677C142.491 85.6677 143.42 85.4933 143.827 84.332H163.334C163.334 84.332 162.986 85.6677 161.941 85.6677H142.491Z" fill="white"/>
<path d="M139.647 88.4555C139.647 88.4555 140.46 88.3973 141.041 87.1201H158.401C158.401 87.1201 158.053 88.3973 157.007 88.4555H139.647Z" fill="white"/>
<path d="M143.827 89.9072C144.03 90.0813 144.197 90.2943 144.316 90.5336C144.436 90.7729 144.507 91.0337 144.524 91.3007H152.129C152.233 90.7825 152.474 90.3015 152.826 89.9072H143.827Z" fill="white"/>
<path d="M159.096 73.127C159.096 73.127 159.56 69.0049 155.032 69.0049H129.253C129.253 69.0049 129.66 73.127 134.885 73.127H139.646C139.646 73.127 136.801 74.114 136.22 75.9137H137.614C137.614 75.9137 136.22 77.0171 136.22 78.7007H138.948C138.948 78.7007 137.439 80.2102 138.948 81.4874C138.948 81.4874 141.154 83.9841 146.612 80.0359C146.612 80.0359 148.934 78.5266 150.153 78.7007C150.153 78.7007 151.199 78.5845 151.547 79.3974H168.152C168.152 79.3974 167.165 77.3653 164.146 76.8427H153.522V75.7633L166.121 75.7405C166.121 75.7405 168.385 75.8567 168.908 77.3089C168.908 77.3089 168.581 73.1866 165.135 73.1866H159.119C159.119 73.1866 157.005 75.2777 154.974 75.2777C154.974 75.2777 152.826 75.3357 152.826 73.8262H147.31C147.31 73.8262 147.6 73.1295 148.878 73.1295L159.096 73.127Z" fill="white"/>
</g>
<defs>
<clipPath id="clip0_242_94452">
<rect width="227.302" height="227.302" fill="white" transform="translate(11.3643 11.3652)"/>
</clipPath>
</defs>
</svg>
