<svg width="250" height="250" viewBox="0 0 250 250" fill="none" xmlns="http://www.w3.org/2000/svg">
<rect width="250" height="250" rx="125" fill="white"/>
<path d="M226.033 91.7495V102.226L122.903 165.604L45.1846 127.488L45.3332 121.618L122.606 159.66L220.831 99.3282V95.0188L128.104 50.2898L24.6776 114.263V142.868L122.606 191.312L224.844 128.603L227.741 133.061L122.903 197.257L19.4766 146.138V111.365L127.807 44.3457L226.033 91.7495Z" fill="url(#paint0_linear_242_94155)"/>
<path d="M224.694 140.042L226.18 130.681L217.116 129.121L217.711 125.48L230.415 127.635L228.335 140.637L224.694 140.042Z" fill="url(#paint1_linear_242_94155)"/>
<defs>
<linearGradient id="paint0_linear_242_94155" x1="420.874" y1="121.343" x2="19.4779" y2="120" gradientUnits="userSpaceOnUse">
<stop stop-color="#006149"/>
<stop offset="1" stop-color="#2F4246"/>
</linearGradient>
<linearGradient id="paint1_linear_242_94155" x1="375.311" y1="133.735" x2="66.2854" y2="132.702" gradientUnits="userSpaceOnUse">
<stop stop-color="#006149"/>
<stop offset="1" stop-color="#2F4246"/>
</linearGradient>
</defs>
</svg>
