<svg width="250" height="250" viewBox="0 0 250 250" fill="none" xmlns="http://www.w3.org/2000/svg">
<g clip-path="url(#clip0_242_94455)">
<path d="M122.22 218.728C174.806 218.728 217.435 176.099 217.435 123.513C217.435 70.9271 174.806 28.2979 122.22 28.2979C69.6334 28.2979 27.0039 70.9271 27.0039 123.513C27.0039 176.099 69.6334 218.728 122.22 218.728Z" fill="#FFCAE0"/>
<path d="M122.22 32.5662C143.201 32.5796 163.534 39.8454 179.772 53.1327C196.01 66.42 207.157 84.912 211.322 105.476C215.488 126.04 212.417 147.412 202.63 165.971C192.843 184.531 176.942 199.136 157.619 207.314C135.393 216.703 110.348 216.878 87.9938 207.801C65.6392 198.723 47.8061 181.138 38.4176 158.912C29.0291 136.687 28.8542 111.642 37.9314 89.2874C47.0087 66.9329 64.5945 49.0999 86.8201 39.7115C98.0191 34.9724 110.059 32.5421 122.22 32.5662ZM122.22 28.2979C69.6335 28.2979 27.0039 70.9264 27.0039 123.513C27.0039 176.099 69.6335 218.728 122.22 218.728C174.806 218.728 217.435 176.099 217.435 123.513C217.435 70.9264 174.806 28.2979 122.22 28.2979Z" fill="url(#paint0_linear_242_94455)"/>
<path d="M197.032 214.134C213.6 214.134 227.031 200.703 227.031 184.135C227.031 167.567 213.6 154.136 197.032 154.136C180.464 154.136 167.033 167.567 167.033 184.135C167.033 200.703 180.464 214.134 197.032 214.134Z" fill="#EFECFF"/>
<path d="M122.22 86.5536C135.096 86.5536 145.535 80.6349 145.535 73.3339C145.535 66.0329 135.096 60.1143 122.22 60.1143C109.344 60.1143 98.9053 66.0329 98.9053 73.3339C98.9053 80.6349 109.344 86.5536 122.22 86.5536Z" fill="url(#paint1_linear_242_94455)"/>
<path d="M122.22 184.141C135.096 184.141 145.535 178.223 145.535 170.922C145.535 163.621 135.096 157.702 122.22 157.702C109.344 157.702 98.9053 163.621 98.9053 170.922C98.9053 178.223 109.344 184.141 122.22 184.141Z" fill="url(#paint2_linear_242_94455)"/>
<path d="M178.26 116.55C184.265 112.399 183.198 100.447 175.876 89.855C168.555 79.2631 157.75 74.0422 151.745 78.1938C145.739 82.3454 146.806 94.2974 154.128 104.889C161.45 115.481 172.254 120.702 178.26 116.55Z" fill="url(#paint3_linear_242_94455)"/>
<path d="M89.8296 104.885C97.1515 94.2934 98.2184 82.3414 92.2127 78.1898C86.2069 74.0382 75.4026 79.2591 68.0807 89.851C60.7588 100.443 59.6919 112.395 65.6977 116.546C71.7035 120.698 82.5077 115.477 89.8296 104.885Z" fill="url(#paint4_linear_242_94455)"/>
<path d="M92.4548 165.58C98.4606 161.428 97.3937 149.476 90.0718 138.884C82.7499 128.292 71.9456 123.071 65.9399 127.223C59.9341 131.375 61.001 143.327 68.3229 153.919C75.6448 164.51 86.4491 169.731 92.4548 165.58Z" fill="url(#paint5_linear_242_94455)"/>
<path d="M176.226 153.911C183.553 143.314 184.621 131.355 178.612 127.201C172.603 123.047 161.793 128.27 154.466 138.867C147.14 149.464 146.071 161.422 152.08 165.577C158.089 169.731 168.899 164.508 176.226 153.911Z" fill="url(#paint6_linear_242_94455)"/>
<path d="M197.032 156.348C203.462 156.348 209.692 158.578 214.662 162.656C219.632 166.735 223.034 172.411 224.288 178.717C225.543 185.023 224.572 191.568 221.541 197.239C218.51 202.909 213.607 207.353 207.667 209.813C201.727 212.273 195.117 212.598 188.965 210.732C182.812 208.865 177.497 204.923 173.925 199.577C170.353 194.232 168.745 187.813 169.376 181.414C170.006 175.016 172.835 169.034 177.382 164.488C179.956 161.899 183.019 159.847 186.392 158.45C189.765 157.052 193.381 156.338 197.032 156.348ZM197.032 154.214C191.114 154.214 185.328 155.969 180.407 159.257C175.487 162.545 171.651 167.218 169.386 172.686C167.121 178.154 166.529 184.171 167.683 189.975C168.838 195.78 171.688 201.112 175.873 205.297C180.058 209.482 185.39 212.332 191.194 213.486C196.999 214.641 203.016 214.048 208.484 211.784C213.952 209.519 218.625 205.683 221.913 200.762C225.201 195.841 226.956 190.056 226.956 184.138C226.956 176.201 223.804 168.59 218.192 162.978C212.58 157.367 204.969 154.214 197.032 154.214Z" fill="#7757FF"/>
<path d="M205.995 188.508C205.03 190.163 203.55 191.455 201.78 192.188C200.011 192.921 198.05 193.054 196.198 192.567C194.346 192.08 192.705 190.999 191.525 189.49C190.346 187.981 189.693 186.128 189.667 184.213C189.641 182.298 190.243 180.427 191.382 178.887C192.52 177.347 194.131 176.222 195.97 175.685C197.808 175.148 199.771 175.227 201.56 175.912C203.348 176.597 204.863 177.849 205.873 179.476C205.995 179.669 206.164 179.827 206.364 179.937C206.564 180.046 206.789 180.103 207.017 180.101C207.501 180.101 207.975 179.964 208.386 179.707C208.797 179.45 209.127 179.083 209.339 178.648C209.552 178.213 209.638 177.727 209.588 177.245C209.538 176.764 209.354 176.306 209.057 175.923C205.798 171.692 200.068 169.462 194.027 171.395C192.07 172.027 190.293 173.118 188.845 174.578C187.398 176.038 186.321 177.824 185.706 179.786C182.822 189.016 189.639 197.492 198.435 197.492C200.501 197.494 202.538 197.017 204.389 196.1C206.239 195.182 207.851 193.848 209.1 192.203C209.401 191.811 209.586 191.343 209.635 190.852C209.684 190.36 209.595 189.865 209.377 189.422C209.159 188.978 208.822 188.605 208.402 188.344C207.983 188.082 207.5 187.943 207.006 187.942C206.803 187.941 206.602 187.992 206.425 188.091C206.248 188.19 206.1 188.334 205.995 188.508Z" fill="#5F36FF"/>
</g>
<defs>
<linearGradient id="paint0_linear_242_94455" x1="81.2424" y1="37.5418" x2="163.196" y2="209.484" gradientUnits="userSpaceOnUse">
<stop stop-color="#FB005A"/>
<stop offset="0.54" stop-color="#E00075"/>
<stop offset="0.999" stop-color="#CD0087"/>
</linearGradient>
<linearGradient id="paint1_linear_242_94455" x1="115.512" y1="59.2608" x2="128.927" y2="87.4069" gradientUnits="userSpaceOnUse">
<stop offset="0.031" stop-color="#FD0058"/>
<stop offset="0.57" stop-color="#E00075"/>
<stop offset="0.999" stop-color="#CD0087"/>
</linearGradient>
<linearGradient id="paint2_linear_242_94455" x1="115.512" y1="156.849" x2="128.927" y2="184.995" gradientUnits="userSpaceOnUse">
<stop offset="0.031" stop-color="#FD0058"/>
<stop offset="0.57" stop-color="#E00075"/>
<stop offset="0.999" stop-color="#CD0087"/>
</linearGradient>
<linearGradient id="paint3_linear_242_94455" x1="155.057" y1="76.5065" x2="174.947" y2="118.237" gradientUnits="userSpaceOnUse">
<stop offset="0.031" stop-color="#FD0058"/>
<stop offset="0.57" stop-color="#E00075"/>
<stop offset="0.999" stop-color="#CD0087"/>
</linearGradient>
<linearGradient id="paint4_linear_242_94455" x1="71.9351" y1="82.6402" x2="85.9748" y2="112.096" gradientUnits="userSpaceOnUse">
<stop offset="0.031" stop-color="#FD0058"/>
<stop offset="0.57" stop-color="#E00075"/>
<stop offset="0.999" stop-color="#CD0087"/>
</linearGradient>
<linearGradient id="paint5_linear_242_94455" x1="89.1426" y1="167.267" x2="69.2524" y2="125.536" gradientUnits="userSpaceOnUse">
<stop offset="0.031" stop-color="#FD0058"/>
<stop offset="0.57" stop-color="#E00075"/>
<stop offset="0.999" stop-color="#CD0087"/>
</linearGradient>
<linearGradient id="paint6_linear_242_94455" x1="172.369" y1="161.125" x2="158.324" y2="131.652" gradientUnits="userSpaceOnUse">
<stop offset="0.031" stop-color="#FD0058"/>
<stop offset="0.57" stop-color="#E00075"/>
<stop offset="0.999" stop-color="#CD0087"/>
</linearGradient>
<clipPath id="clip0_242_94455">
<rect width="200.026" height="200.025" fill="white" transform="translate(27.0039 23.5029)"/>
</clipPath>
</defs>
</svg>
