<svg width="250" height="250" viewBox="0 0 250 250" fill="none" xmlns="http://www.w3.org/2000/svg">
<path d="M124.899 246.677C192.21 246.677 246.775 192.111 246.775 124.801C246.775 57.4905 192.21 2.9248 124.899 2.9248C57.5891 2.9248 3.02344 57.4905 3.02344 124.801C3.02344 192.111 57.5891 246.677 124.899 246.677Z" fill="#00A5C5"/>
<path d="M133.306 165.776L85.3959 213.686L71.7374 198.976L104.938 165.776L70.4766 131.314L85.1858 116.605L133.306 165.776ZM161.253 138.249L175.962 123.539L141.501 89.0779L174.702 55.8772L161.043 41.168L112.923 89.0779L161.253 138.249ZM91.2796 110.932L139.61 160.102L154.319 145.393L105.989 97.0629L91.2796 110.932Z" fill="white"/>
</svg>
