<svg width="250" height="250" viewBox="0 0 250 250" fill="none" xmlns="http://www.w3.org/2000/svg">
<rect width="250" height="250" rx="125" fill="white"/>
<path fill-rule="evenodd" clip-rule="evenodd" d="M118.043 105.627C117.42 105.639 116.808 105.459 116.292 105.109C115.775 104.76 115.38 104.259 115.16 103.676C114.941 103.092 114.907 102.455 115.065 101.852C115.222 101.249 115.563 100.709 116.04 100.307C121.105 96.0386 125.482 91.0152 129.018 85.4139C131.518 81.0344 135.561 78.7827 139.781 79.35C140.197 79.3764 140.602 79.4881 140.973 79.6783C141.343 79.8684 141.671 80.1328 141.935 80.4551C142.199 80.7773 142.393 81.1505 142.507 81.5513C142.62 81.9522 142.649 82.372 142.593 82.7847C142.537 83.1974 142.396 83.5941 142.18 83.9501C141.964 84.3061 141.677 84.6137 141.336 84.8537C140.996 85.0937 140.61 85.261 140.202 85.3452C139.794 85.4294 139.373 85.4286 138.965 85.3429C136.501 85.0061 134.852 87.3819 134.249 88.4103C130.409 94.5914 125.622 100.132 120.065 104.829C119.516 105.341 118.794 105.626 118.043 105.627ZM67.1212 156.815C66.5071 156.807 65.9098 156.612 65.4086 156.257C64.9073 155.902 64.5257 155.403 64.3142 154.827C64.1028 154.25 64.0715 153.623 64.2244 153.028C64.3774 152.433 64.7075 151.899 65.1709 151.495C68.6817 148.731 72.4048 146.247 76.3056 144.066C76.9913 143.838 77.7361 143.864 78.4045 144.138C79.0728 144.413 79.6202 144.919 79.9468 145.564C80.2734 146.208 80.3576 146.949 80.1839 147.65C80.0102 148.352 79.5903 148.968 79.0007 149.385C75.5246 151.358 72.1998 153.587 69.0539 156.052C68.5121 156.507 67.8284 156.758 67.1212 156.761" fill="#28646E"/>
<path fill-rule="evenodd" clip-rule="evenodd" d="M143.077 128.147C144.283 129.264 145.683 128.785 146.96 127.562C155.719 119.193 164.992 106.126 168.077 99.3172C168.185 98.9776 168.36 98.6632 168.592 98.393C168.824 98.1229 169.109 97.9025 169.429 97.7451C169.748 97.5877 170.096 97.4967 170.452 97.4774C170.808 97.4581 171.164 97.511 171.499 97.6329C173.183 98.3066 173.166 101.179 171.641 104.353C166.389 115.099 159.378 124.891 150.896 133.324C150.657 133.54 150.465 133.804 150.334 134.099C150.203 134.394 150.136 134.713 150.136 135.035C150.136 135.358 150.203 135.677 150.334 135.972C150.465 136.266 150.657 136.53 150.896 136.746C151.871 137.615 153.467 137.562 154.939 136.055C159.666 131.377 164.001 126.319 167.9 120.931C168.169 120.41 168.593 119.985 169.114 119.715C169.635 119.445 170.226 119.343 170.807 119.424C172.261 119.707 172.492 121.108 172.049 122.792C171.322 125.505 163.68 135.541 160.648 138.909C152.439 148.076 144.229 153.094 128.431 161.303C122.971 164.14 118.839 166.924 116.268 171.232C113.981 175.062 113.307 176.321 113.077 176.8C112.656 177.708 112.604 178.743 112.931 179.689C113.259 180.635 113.94 181.417 114.832 181.87C115.275 182.083 115.756 182.206 116.247 182.232C116.738 182.258 117.23 182.187 117.693 182.022C118.156 181.857 118.582 181.602 118.946 181.272C119.31 180.942 119.605 180.542 119.814 180.097C119.814 180.097 119.814 179.956 119.814 179.902C119.814 179.849 119.708 179.902 122.687 174.938C124.911 171.342 128.15 168.485 131.995 166.729C147.846 159.512 154.318 153.821 163.502 144.636C167.829 139.738 171.694 134.45 175.045 128.839C179.46 121.392 177.137 115.026 173.148 113.945C173.02 113.908 172.911 113.822 172.845 113.706C172.779 113.591 172.76 113.454 172.793 113.324C172.785 113.277 172.785 113.229 172.793 113.182C175.116 109.56 176.835 105.584 177.882 101.409C178.662 97.5619 177.563 92.8811 172.297 91.7463C172.166 91.7166 172.052 91.6369 171.979 91.5243C171.906 91.4116 171.88 91.275 171.907 91.1435C172.244 89.9201 172.58 88.3775 172.793 87.3669C173.344 85.2194 173.043 82.9419 171.952 81.0116C170.862 79.0813 169.066 77.6481 166.942 77.0123C165.722 76.747 164.459 76.7425 163.237 76.9992C162.015 77.2558 160.861 77.7678 159.85 78.5016C159.709 78.5976 159.538 78.6397 159.369 78.6202C159.2 78.6007 159.043 78.5208 158.928 78.3953C158.423 77.848 157.812 77.4088 157.132 77.1041C156.453 76.7993 155.719 76.6354 154.974 76.6222C151.658 76.6222 148.414 77.5797 146.109 82.6683C144.336 86.2144 141.871 91.1967 134.442 99.4414C127.691 106.588 120.142 112.936 111.942 118.36C110.896 119.034 109.442 118.874 109.602 117.491C109.885 115.275 112.261 100.31 112.722 95.9839C113.378 88.8917 109.549 85.5938 105.24 85.0265C101.694 84.5477 96.3748 85.5584 93.396 93.6258C90.0059 101.74 87.209 110.089 85.0272 118.608C82.7203 128.735 82.4911 139.224 84.3535 149.441C84.4819 150.149 84.3496 150.88 83.9811 151.498C81.1238 155.783 78.5474 160.249 76.2684 164.867C75.8876 165.729 75.838 166.701 76.1292 167.597C76.4203 168.494 77.0317 169.251 77.8464 169.725C78.7127 170.195 79.7294 170.304 80.6755 170.028C81.6217 169.753 82.4209 169.115 82.8996 168.253L83.006 168.041C84.1407 165.647 86.5521 161.126 87.4031 159.175C88.5606 156.979 89.5906 154.717 90.4882 152.402C91.0788 150.466 91.0788 148.399 90.4882 146.463C89.0079 138.232 89.219 129.786 91.1088 121.64C93.5373 112.225 96.4971 102.955 99.9741 93.874C100.878 91.6399 102.155 90.9485 103.52 91.0726C104.885 91.1967 107.244 91.7995 106.552 96.3917C105.293 104.53 103.52 114.867 103.006 118.36C102.722 120.133 102.403 124.051 105.541 125.878C108.006 127.296 110.719 126.516 113.697 124.512C123.01 118.202 131.601 110.889 139.318 102.704C146.96 94.1222 149.389 88.9981 151.357 84.3704C151.709 83.6504 152.304 83.0778 153.037 82.7535C153.77 82.4292 154.594 82.3739 155.364 82.5974C156.18 82.8279 157.137 83.9272 156.481 86.2499C154.708 91.9059 147.793 104.831 134.353 116.959C134.054 117.167 133.801 117.436 133.61 117.747C133.419 118.058 133.295 118.405 133.245 118.766C133.195 119.128 133.22 119.496 133.319 119.847C133.419 120.198 133.59 120.525 133.822 120.807C134.056 121.065 134.342 121.272 134.661 121.414C134.98 121.555 135.325 121.628 135.674 121.628C136.023 121.628 136.369 121.555 136.688 121.414C137.007 121.272 137.293 121.065 137.527 120.807C146.8 112.647 154.275 102.648 159.478 91.4449C160.51 89.2494 161.393 86.9866 162.119 84.6719C162.268 83.9605 162.67 83.3273 163.251 82.8902C163.831 82.4531 164.551 82.2419 165.275 82.296C166.747 82.5974 167.722 84.069 167.261 86.6045C166.506 89.7731 165.4 92.8476 163.963 95.7711C160.098 103.998 151.907 115.009 143.077 124.459C142.83 124.693 142.632 124.974 142.498 125.287C142.363 125.599 142.294 125.936 142.294 126.276C142.294 126.617 142.363 126.953 142.498 127.266C142.632 127.578 142.83 127.86 143.077 128.094V128.147ZM88.4492 87.1896C88.9102 86.7818 88.7329 86.2499 88.6088 85.8421C87.9528 83.7499 84.2471 75.0619 83.2896 73.3243C83.2255 73.1564 83.128 73.0033 83.003 72.8741C82.878 72.7449 82.7281 72.6425 82.5624 72.5729C82.3966 72.5033 82.2185 72.468 82.0388 72.4691C81.859 72.4703 81.6814 72.5079 81.5166 72.5797C80.2074 73.2533 79.011 74.1266 77.9705 75.1683C76.7913 76.079 75.7674 77.1748 74.9386 78.413C74.8544 78.5628 74.801 78.7279 74.7813 78.8986C74.7616 79.0693 74.7761 79.2423 74.824 79.4073C74.8719 79.5723 74.9521 79.7262 75.0601 79.8599C75.168 79.9936 75.3015 80.1045 75.4528 80.186C77.0485 81.3917 85.1868 86.1967 87.1549 87.1009C87.5627 87.296 88.0592 87.5442 88.5201 87.1009L88.4492 87.1896ZM70.7187 90.1151C69.7081 90.1151 69.2826 90.5406 69.1584 91.2321C69.042 92.7182 69.1556 94.2134 69.4953 95.6648C69.6693 97.1417 70.07 98.583 70.6833 99.9378C70.8518 100.239 71.1311 100.464 71.462 100.563C71.793 100.662 72.1496 100.629 72.4563 100.47C74.2294 99.7251 82.6336 95.2747 84.4421 94.069C84.8145 93.8208 85.2755 93.5194 85.1691 92.8988L70.7187 90.1151ZM155.471 164.14C154.85 164.14 154.673 164.725 154.513 165.133C153.768 167.172 151.446 176.339 151.144 178.307C151.091 178.479 151.074 178.66 151.093 178.84C151.113 179.019 151.17 179.192 151.26 179.349C151.35 179.505 151.471 179.641 151.616 179.749C151.761 179.856 151.926 179.933 152.102 179.973C153.568 180.255 155.07 180.302 156.552 180.115C158.04 180.097 159.517 179.852 160.932 179.388C161.096 179.321 161.246 179.221 161.371 179.094C161.497 178.968 161.595 178.817 161.661 178.652C161.728 178.486 161.76 178.309 161.756 178.131C161.753 177.953 161.713 177.778 161.641 177.615C161.091 175.7 157.563 166.977 156.552 165.009C156.339 164.619 156.091 164.122 155.471 164.158V164.14ZM160.79 159.902C160.488 160.452 160.79 160.878 161.127 161.214C162.492 162.987 169.105 169.672 170.63 170.948C170.754 171.08 170.904 171.185 171.07 171.256C171.236 171.328 171.415 171.365 171.596 171.365C171.777 171.365 171.956 171.328 172.122 171.256C172.289 171.185 172.438 171.08 172.563 170.948C173.557 169.841 174.371 168.585 174.974 167.225C175.721 165.936 176.253 164.535 176.552 163.076C176.552 162.367 176.375 161.8 175.4 161.534C173.485 161.002 164.158 159.477 161.978 159.353C161.534 159.353 160.985 159.353 160.701 159.814L160.79 159.902ZM128.378 210.7C128.382 211.372 128.186 212.029 127.815 212.588C127.444 213.148 126.915 213.585 126.296 213.843C125.676 214.102 124.994 214.17 124.335 214.04C123.677 213.91 123.072 213.587 122.597 213.113C122.123 212.638 121.8 212.033 121.67 211.374C121.539 210.716 121.608 210.033 121.866 209.414C122.125 208.794 122.562 208.266 123.121 207.895C123.681 207.524 124.338 207.328 125.01 207.331C125.452 207.331 125.89 207.419 126.299 207.588C126.707 207.757 127.079 208.005 127.392 208.318C127.704 208.631 127.953 209.002 128.122 209.411C128.291 209.82 128.378 210.258 128.378 210.7ZM128.378 39.3172C128.378 39.9878 128.179 40.6432 127.806 41.2005C127.433 41.7578 126.903 42.1918 126.284 42.4476C125.664 42.7034 124.982 42.7694 124.325 42.6373C123.667 42.5052 123.064 42.1809 122.591 41.7055C122.118 41.2301 121.797 40.6251 121.668 39.967C121.54 39.3089 121.609 38.6274 121.868 38.0089C122.127 37.3904 122.564 36.8628 123.123 36.4928C123.682 36.1228 124.339 35.9272 125.01 35.9307C125.453 35.9307 125.893 36.0184 126.303 36.1888C126.713 36.3592 127.085 36.609 127.398 36.9237C127.711 37.2384 127.959 37.6118 128.127 38.0226C128.295 38.4334 128.381 38.8734 128.378 39.3172ZM150.435 206.906C150.605 207.55 150.58 208.229 150.364 208.859C150.148 209.488 149.751 210.04 149.222 210.444C148.692 210.848 148.055 211.086 147.391 211.128C146.727 211.17 146.065 211.014 145.489 210.681C144.913 210.347 144.449 209.85 144.155 209.253C143.861 208.655 143.751 207.984 143.838 207.325C143.925 206.665 144.206 206.045 144.645 205.545C145.084 205.044 145.661 204.685 146.304 204.512C146.732 204.397 147.179 204.368 147.619 204.426C148.059 204.484 148.483 204.628 148.867 204.851C149.251 205.073 149.587 205.369 149.856 205.722C150.125 206.075 150.322 206.477 150.435 206.906ZM106.109 41.3562C106.225 41.7847 106.256 42.2318 106.2 42.6722C106.143 43.1126 106.001 43.5375 105.78 43.9228C105.56 44.308 105.265 44.6461 104.914 44.9176C104.563 45.1891 104.161 45.3888 103.733 45.5052C103.304 45.6216 102.857 45.6525 102.417 45.5961C101.977 45.5397 101.552 45.3971 101.166 45.1765C100.781 44.9559 100.443 44.6615 100.172 44.3103C99.9001 43.959 99.7004 43.5577 99.584 43.1293C99.3489 42.264 99.4671 41.3408 99.9126 40.5628C100.358 39.7847 101.095 39.2155 101.96 38.9804C102.825 38.7452 103.748 38.8635 104.526 39.309C105.304 39.7546 105.874 40.491 106.109 41.3562ZM170.79 197.526C171.022 197.91 171.175 198.336 171.24 198.779C171.305 199.223 171.281 199.674 171.17 200.108C171.058 200.542 170.861 200.95 170.59 201.307C170.319 201.664 169.98 201.963 169.592 202.187C169.204 202.411 168.775 202.556 168.33 202.612C167.886 202.668 167.434 202.635 167.003 202.515C166.571 202.395 166.168 202.189 165.816 201.911C165.465 201.633 165.173 201.288 164.956 200.895C164.531 200.123 164.425 199.215 164.662 198.365C164.899 197.516 165.459 196.794 166.222 196.353C166.986 195.912 167.892 195.788 168.746 196.007C169.6 196.227 170.333 196.772 170.79 197.526ZM85.0804 49.1045C85.3063 49.4852 85.4549 49.9066 85.5179 50.3448C85.5809 50.7829 85.557 51.2292 85.4475 51.6581C85.338 52.087 85.1451 52.4901 84.8798 52.8444C84.6145 53.1988 84.282 53.4974 83.9013 53.7233C83.1325 54.1794 82.214 54.3114 81.3478 54.0903C80.4816 53.8692 79.7387 53.313 79.2826 52.5442C78.8572 51.7719 78.7515 50.8637 78.9881 50.0144C79.2248 49.1651 79.785 48.4424 80.5485 48.0015C81.312 47.5606 82.218 47.4365 83.0719 47.656C83.9258 47.8755 84.6596 48.421 85.1159 49.1754L85.0804 49.1045ZM187.953 183.289C188.585 183.921 188.941 184.779 188.941 185.674C188.941 186.568 188.585 187.426 187.953 188.058C187.32 188.691 186.462 189.046 185.568 189.046C184.674 189.046 183.816 188.691 183.183 188.058C182.551 187.426 182.195 186.568 182.195 185.674C182.195 184.779 182.551 183.921 183.183 183.289C183.816 182.656 184.674 182.301 185.568 182.301C186.462 182.301 187.32 182.656 187.953 183.289ZM66.8003 62.03C67.4328 62.6625 67.7881 63.5203 67.7881 64.4148C67.7881 65.3092 67.4328 66.167 66.8003 66.7995C66.1678 67.432 65.31 67.7873 64.4155 67.7873C63.5211 67.7873 62.6633 67.432 62.0308 66.7995C61.3983 66.167 61.043 65.3092 61.043 64.4148C61.043 63.5203 61.3983 62.6625 62.0308 62.03C62.6633 61.3975 63.5211 61.0422 64.4155 61.0422C65.31 61.0422 66.1678 61.3975 66.8003 62.03ZM200.896 164.867C201.677 165.304 202.252 166.034 202.494 166.895C202.737 167.756 202.628 168.678 202.19 169.459C201.753 170.24 201.024 170.815 200.162 171.057C199.301 171.3 198.379 171.191 197.598 170.753C196.822 170.307 196.256 169.57 196.023 168.706C195.79 167.841 195.91 166.919 196.357 166.143C196.804 165.368 197.54 164.801 198.405 164.568C199.27 164.335 200.191 164.456 200.967 164.902L200.896 164.867ZM52.4386 79.2463C52.8311 79.4625 53.1765 79.7549 53.4546 80.1063C53.7328 80.4577 53.938 80.861 54.0583 81.2927C54.1786 81.7243 54.2116 82.1757 54.1553 82.6203C54.099 83.0648 53.9545 83.4937 53.7304 83.8818C53.5063 84.2698 53.207 84.6093 52.8501 84.8803C52.4932 85.1512 52.0858 85.3482 51.6517 85.4598C51.2177 85.5713 50.7658 85.5952 50.3225 85.5299C49.8791 85.4646 49.4532 85.3116 49.0698 85.0797C48.3154 84.6234 47.7699 83.8895 47.5504 83.0356C47.3309 82.1817 47.455 81.2758 47.8959 80.5123C48.3368 79.7488 49.0595 79.1886 49.9088 78.9519C50.7581 78.7152 51.6663 78.8209 52.4386 79.2463ZM208.644 143.927C209.512 144.143 210.258 144.696 210.719 145.462C211.179 146.228 211.316 147.146 211.1 148.014C210.884 148.882 210.332 149.628 209.565 150.088C208.799 150.549 207.881 150.686 207.013 150.47H206.907C206.479 150.353 206.079 150.154 205.729 149.883C205.379 149.612 205.086 149.274 204.866 148.89C204.646 148.505 204.504 148.082 204.448 147.642C204.392 147.203 204.423 146.757 204.54 146.33C204.656 145.902 204.856 145.502 205.127 145.152C205.398 144.802 205.735 144.509 206.119 144.289C206.504 144.069 206.928 143.927 207.367 143.871C207.806 143.815 208.252 143.846 208.68 143.963L208.644 143.927ZM43.1478 99.6364C44.0154 99.8715 44.7541 100.442 45.2013 101.221C45.6485 102.001 45.7677 102.927 45.5326 103.794C45.2974 104.662 44.7273 105.4 43.9476 105.848C43.1678 106.295 42.2423 106.414 41.3748 106.179C40.5558 105.904 39.8729 105.327 39.4658 104.565C39.0586 103.803 38.958 102.914 39.1846 102.08C39.4111 101.247 39.9476 100.531 40.6844 100.08C41.4211 99.6292 42.3024 99.4768 43.1478 99.6541V99.6364ZM210.701 121.587C211.367 121.587 212.019 121.784 212.573 122.155C213.127 122.525 213.558 123.051 213.813 123.666C214.068 124.282 214.135 124.959 214.005 125.613C213.875 126.266 213.554 126.867 213.083 127.338C212.612 127.809 212.012 128.13 211.358 128.26C210.705 128.39 210.027 128.323 209.412 128.068C208.796 127.813 208.27 127.381 207.9 126.827C207.53 126.273 207.332 125.622 207.332 124.956C207.332 124.513 207.419 124.075 207.589 123.666C207.758 123.258 208.006 122.886 208.319 122.573C208.632 122.261 209.003 122.012 209.412 121.843C209.821 121.674 210.259 121.587 210.701 121.587ZM39.318 121.587C39.7604 121.587 40.1985 121.674 40.6072 121.843C41.0159 122.012 41.3873 122.261 41.7001 122.573C42.0129 122.886 42.2611 123.258 42.4304 123.666C42.5997 124.075 42.6868 124.513 42.6868 124.956C42.6868 125.398 42.5997 125.836 42.4304 126.245C42.2611 126.653 42.0129 127.025 41.7001 127.338C41.3873 127.65 41.0159 127.899 40.6072 128.068C40.1985 128.237 39.7604 128.324 39.318 128.324C38.4246 128.324 37.5677 127.969 36.9359 127.338C36.3041 126.706 35.9492 125.849 35.9492 124.956C35.9492 124.062 36.3041 123.205 36.9359 122.573C37.5677 121.942 38.4246 121.587 39.318 121.587ZM206.907 99.5123C207.749 99.3317 208.628 99.4805 209.364 99.9279C210.099 100.375 210.636 101.088 210.863 101.918C211.09 102.749 210.99 103.635 210.584 104.394C210.178 105.154 209.497 105.729 208.68 106.002H208.591C207.726 106.237 206.803 106.119 206.025 105.673C205.246 105.227 204.677 104.491 204.442 103.626C204.207 102.761 204.325 101.837 204.771 101.059C205.216 100.281 205.953 99.7119 206.818 99.4768L206.907 99.5123ZM41.2684 143.803C41.7029 143.658 42.1625 143.603 42.619 143.642C43.0755 143.68 43.5193 143.812 43.9233 144.028C44.3274 144.244 44.6831 144.54 44.9687 144.898C45.2544 145.256 45.464 145.669 45.5848 146.111C45.7055 146.553 45.7349 147.014 45.671 147.468C45.6071 147.922 45.4514 148.358 45.2134 148.749C44.9753 149.14 44.6599 149.479 44.2865 149.745C43.913 150.01 43.4894 150.196 43.0414 150.292C42.1785 150.528 41.2576 150.41 40.4812 149.966C39.7047 149.522 39.1365 148.788 38.9013 147.925C38.6662 147.063 38.7835 146.142 39.2274 145.365C39.6713 144.589 40.4055 144.02 41.2684 143.785V143.803ZM197.439 79.1045C197.822 78.8726 198.248 78.7195 198.691 78.6542C199.135 78.5889 199.587 78.6128 200.021 78.7243C200.455 78.8359 200.862 79.0329 201.219 79.3039C201.576 79.5748 201.875 79.9143 202.099 80.3023C202.323 80.6904 202.468 81.1193 202.524 81.5639C202.58 82.0084 202.547 82.4598 202.427 82.8915C202.307 83.3231 202.102 83.7265 201.823 84.0779C201.545 84.4292 201.2 84.7216 200.807 84.9378C200.035 85.3632 199.127 85.4689 198.278 85.2322C197.428 84.9955 196.706 84.4353 196.265 83.6718C195.824 82.9083 195.7 82.0024 195.919 81.1485C196.139 80.2946 196.684 79.5607 197.439 79.1045ZM49.1053 164.92C49.6816 164.578 50.3468 164.416 51.0157 164.454C51.6847 164.493 52.3271 164.729 52.8608 165.135C53.3945 165.54 53.7952 166.095 54.0117 166.729C54.2283 167.363 54.2508 168.047 54.0764 168.694C53.902 169.341 53.5387 169.922 53.0328 170.361C52.5269 170.8 51.9015 171.079 51.2364 171.161C50.5714 171.243 49.897 171.125 49.2995 170.822C48.7019 170.519 48.2083 170.044 47.8818 169.459C47.4476 168.688 47.3325 167.777 47.5611 166.923C47.7898 166.068 48.344 165.336 49.1053 164.885V164.92ZM183.219 62.0477C183.69 61.5774 184.29 61.2573 184.944 61.1279C185.597 60.9985 186.274 61.0657 186.889 61.3208C187.504 61.576 188.03 62.0078 188.4 62.5617C188.77 63.1155 188.967 63.7665 188.967 64.4325C188.967 65.0985 188.77 65.7495 188.4 66.3033C188.03 66.8571 187.504 67.2889 186.889 67.5441C186.274 67.7993 185.597 67.8665 184.944 67.7371C184.29 67.6077 183.69 67.2876 183.219 66.8172C182.59 66.183 182.237 65.3258 182.237 64.4325C182.237 63.5392 182.59 62.682 183.219 62.0477ZM62.0308 183.218C62.5022 182.748 63.1025 182.427 63.7558 182.298C64.409 182.169 65.086 182.236 65.7011 182.491C66.3163 182.746 66.842 183.178 67.2118 183.732C67.5816 184.286 67.779 184.937 67.779 185.603C67.779 186.269 67.5816 186.92 67.2118 187.474C66.842 188.027 66.3163 188.459 65.7011 188.714C65.086 188.97 64.409 189.037 63.7558 188.907C63.1025 188.778 62.5022 188.458 62.0308 187.987C61.715 187.676 61.4643 187.304 61.2932 186.895C61.1221 186.486 61.034 186.046 61.034 185.603C61.034 185.159 61.1221 184.72 61.2932 184.31C61.4643 183.901 61.715 183.53 62.0308 183.218ZM164.868 49.1045C165.201 48.5283 165.698 48.0637 166.295 47.7695C166.892 47.4753 167.563 47.3646 168.223 47.4514C168.883 47.5382 169.502 47.8186 170.003 48.2571C170.504 48.6957 170.864 49.2728 171.037 49.9156C171.21 50.5584 171.188 51.2381 170.976 51.8688C170.763 52.4996 170.368 53.0531 169.84 53.4595C169.313 53.8659 168.677 54.107 168.013 54.1524C167.349 54.1978 166.686 54.0454 166.109 53.7144C165.335 53.2657 164.77 52.529 164.538 51.6653C164.305 50.8016 164.424 49.881 164.868 49.1045ZM79.2471 197.526C79.4531 197.122 79.7388 196.763 80.0869 196.472C80.4351 196.18 80.8386 195.962 81.2731 195.831C81.7077 195.699 82.1643 195.657 82.6157 195.706C83.067 195.756 83.5037 195.896 83.8995 196.118C84.2953 196.34 84.6421 196.641 84.919 197C85.1959 197.36 85.3972 197.772 85.5108 198.212C85.6244 198.652 85.648 199.11 85.5801 199.558C85.5123 200.007 85.3544 200.438 85.1159 200.824C84.6596 201.579 83.9258 202.124 83.0719 202.344C82.218 202.563 81.312 202.439 80.5485 201.998C79.785 201.557 79.2248 200.835 78.9881 199.985C78.7515 199.136 78.8572 198.228 79.2826 197.456L79.2471 197.526ZM143.928 41.3562C144.03 40.9255 144.217 40.5191 144.476 40.1604C144.736 39.8016 145.063 39.4975 145.44 39.2653C145.817 39.0332 146.236 38.8776 146.674 38.8074C147.111 38.7372 147.557 38.7538 147.988 38.8562C148.419 38.9587 148.825 39.145 149.184 39.4045C149.543 39.664 149.847 39.9916 150.079 40.3686C150.311 40.7457 150.467 41.1647 150.537 41.6019C150.607 42.0391 150.591 42.4858 150.488 42.9165V43.1116C150.253 43.9745 149.685 44.7086 148.908 45.1525C148.132 45.5964 147.211 45.7137 146.348 45.4786C145.485 45.2435 144.751 44.6752 144.307 43.8988C143.863 43.1224 143.746 42.2014 143.981 41.3385L143.928 41.3562ZM99.6549 206.888C99.7632 206.459 99.955 206.055 100.219 205.699C100.484 205.344 100.816 205.044 101.196 204.817C101.576 204.589 101.998 204.439 102.436 204.375C102.874 204.311 103.321 204.333 103.751 204.441C104.18 204.55 104.584 204.741 104.94 205.006C105.295 205.27 105.595 205.602 105.822 205.982C106.05 206.363 106.2 206.784 106.264 207.223C106.328 207.661 106.306 208.108 106.197 208.537C105.962 209.4 105.394 210.134 104.618 210.578C103.841 211.022 102.92 211.139 102.057 210.904C101.194 210.669 100.46 210.101 100.016 209.324C99.5725 208.548 99.4552 207.627 99.6904 206.764" fill="#28646E"/>
<path d="M125.008 231.252C146.025 231.252 166.569 225.02 184.044 213.343C201.518 201.666 215.138 185.07 223.18 165.653C231.222 146.235 233.325 124.869 229.224 104.257C225.122 83.644 215 64.7105 200.138 49.8507C185.276 34.9908 166.34 24.872 145.727 20.774C125.114 16.676 103.748 18.7828 84.3321 26.828C64.9161 34.8732 48.322 48.4954 36.6482 65.9719C24.9745 83.4484 18.7455 103.994 18.749 125.011C18.7866 153.179 29.9943 180.183 49.914 200.1C69.8338 220.016 96.8394 231.219 125.008 231.252ZM125.008 27.7415C144.246 27.7415 163.052 33.4463 179.048 44.1344C195.044 54.8225 207.511 70.0139 214.873 87.7876C222.235 105.561 224.161 125.119 220.408 143.987C216.655 162.856 207.391 180.188 193.788 193.791C180.184 207.394 162.853 216.658 143.984 220.411C125.116 224.165 105.558 222.238 87.7844 214.876C70.0108 207.514 54.8194 195.047 44.1312 179.051C33.4431 163.055 27.7384 144.249 27.7384 125.011C27.7665 99.2222 38.0236 74.4977 56.259 56.2622C74.4945 38.0267 99.219 27.7697 125.008 27.7415Z" fill="#28646E"/>
</svg>
