<svg width="250" height="250" viewBox="0 0 250 250" fill="none" xmlns="http://www.w3.org/2000/svg">
<g clip-path="url(#clip0_242_94697)">
<path d="M125.001 250.001C194.038 250.001 250.001 194.038 250.001 125.001C250.001 55.9635 194.038 0.000976562 125.001 0.000976562C55.9635 0.000976562 0.000976562 55.9635 0.000976562 125.001C0.000976562 194.038 55.9635 250.001 125.001 250.001Z" fill="#EDF0F4"/>
<path fill-rule="evenodd" clip-rule="evenodd" d="M64.5889 133.045C64.5889 137.763 67.3364 142.232 72.9144 146.644L135.801 83.7579C139.325 79.9559 140.685 75.7099 139.852 70.9919C138.857 65.9809 136.1 61.4919 132.082 58.3369L69.0289 121.39C67.5594 122.946 66.4109 124.776 65.6489 126.776C64.8869 128.776 64.5269 130.906 64.5889 133.045ZM95.3384 169.067C89.8154 164.71 87.0124 160.186 87.0679 155.524C87.0059 153.385 87.3664 151.254 88.1284 149.254C88.8904 147.254 90.0389 145.424 91.5084 143.868L154.561 80.8154C158.564 83.9679 161.309 88.4459 162.304 93.4424C163.137 98.1604 161.777 102.407 158.252 106.208L95.3384 169.067ZM117.817 191.548C112.239 187.136 109.492 182.667 109.519 177.977C109.457 175.838 109.818 173.707 110.58 171.707C111.341 169.707 112.49 167.877 113.96 166.321L177.013 103.268C181.015 106.421 183.761 110.898 184.755 115.895C185.588 120.613 184.228 124.86 180.704 128.661L117.817 191.548Z" fill="url(#paint0_linear_242_94697)"/>
</g>
<defs>
<linearGradient id="paint0_linear_242_94697" x1="78.9994" y1="131.43" x2="135.774" y2="177.818" gradientUnits="userSpaceOnUse">
<stop stop-color="#7EB5FF"/>
<stop offset="0.9997" stop-color="#1A38F8"/>
</linearGradient>
<clipPath id="clip0_242_94697">
<rect width="250" height="250" fill="white"/>
</clipPath>
</defs>
</svg>
