<svg width="250" height="250" viewBox="0 0 250 250" fill="none" xmlns="http://www.w3.org/2000/svg">
<path d="M6.70215 119.312L21.9753 102.875C23.9632 100.741 26.8239 99.5777 29.7815 99.7717L43.6486 100.596C48.6911 100.887 53.6367 98.8989 57.0792 95.214L124.814 22L140.863 36.1095L79.4313 102.438C76.813 105.299 73.1766 106.899 69.3947 106.996C67.5522 107.045 65.7582 106.657 64.0612 105.978L61.0551 104.766C55.4307 102.535 49.0305 104.038 44.9577 108.548L22.3632 133.615L6.70215 119.312Z" fill="url(#paint0_linear_242_93583)"/>
<path d="M41.3213 150.246L73.1767 116.451C75.1646 114.318 78.0253 113.154 80.9829 113.348L94.8499 114.172C99.8925 114.463 104.838 112.475 108.281 108.79L159.53 53.0312L175.579 67.1407L130.633 116.063C128.014 118.924 124.378 120.524 120.596 120.621C118.754 120.669 116.96 120.281 115.263 119.603L112.256 118.391C106.632 116.16 100.232 117.663 96.1591 122.172L56.9823 164.598L41.3213 150.246Z" fill="url(#paint1_linear_242_93583)"/>
<path d="M75.1152 180.984L121.953 130.025C123.941 127.891 126.801 126.728 129.759 126.922L143.626 127.746C148.669 128.037 153.614 126.049 157.057 122.364L193.712 83.9629L209.761 98.0723L179.36 129.588C176.742 132.449 173.106 134.049 169.324 134.146C167.481 134.194 165.687 133.807 163.99 133.128L160.984 131.916C155.36 129.685 148.96 131.188 144.887 135.698L90.7278 195.287L75.1152 180.984Z" fill="url(#paint2_linear_242_93583)"/>
<path d="M109.301 212.599L173.06 143.603C175.048 141.469 177.909 140.306 180.866 140.5L194.733 141.324C199.776 141.615 204.721 139.627 208.164 135.942L227.704 115.82L243.753 129.93L230.516 143.215C227.898 146.076 224.261 147.676 220.479 147.773C218.637 147.821 216.843 147.433 215.146 146.754L212.14 145.542C206.515 143.312 200.115 144.815 196.042 149.324L124.962 226.902L109.301 212.599Z" fill="url(#paint3_linear_242_93583)"/>
<defs>
<linearGradient id="paint0_linear_242_93583" x1="23.7692" y1="133.864" x2="122.187" y2="23.3597" gradientUnits="userSpaceOnUse">
<stop offset="0.2287" stop-color="#2AE38D"/>
<stop offset="0.2856" stop-color="#1ED27B"/>
</linearGradient>
<linearGradient id="paint1_linear_242_93583" x1="58.4358" y1="164.819" x2="156.868" y2="54.2989" gradientUnits="userSpaceOnUse">
<stop offset="0.3741" stop-color="#2AE38D"/>
<stop offset="0.4877" stop-color="#1ED27B"/>
</linearGradient>
<linearGradient id="paint2_linear_242_93583" x1="92.3883" y1="195.719" x2="190.903" y2="85.1062" gradientUnits="userSpaceOnUse">
<stop offset="0.5512" stop-color="#2AE38D"/>
<stop offset="0.6162" stop-color="#1ED27B"/>
</linearGradient>
<linearGradient id="paint3_linear_242_93583" x1="126.59" y1="227.317" x2="224.902" y2="116.931" gradientUnits="userSpaceOnUse">
<stop offset="0.7235" stop-color="#2AE38D"/>
<stop offset="0.7979" stop-color="#1ED27B"/>
</linearGradient>
</defs>
</svg>
