<svg width="250" height="250" viewBox="0 0 250 250" fill="none" xmlns="http://www.w3.org/2000/svg">
<rect width="250" height="250" rx="125" fill="white"/>
<path d="M127.994 39.4565C128.064 39.8065 128.204 40.0865 128.169 40.3315C127.959 41.8015 127.294 43.3765 127.539 44.7415C127.784 46.1415 129.079 47.2965 129.639 48.6965C129.919 49.3265 129.709 50.3065 129.429 51.0065C127.609 55.4165 128.239 60.0715 128.309 64.6215C128.309 65.6715 129.429 66.6865 130.059 67.7365C130.689 67.3865 131.039 67.2115 131.389 67.0015C134.574 65.0765 136.814 66.1965 138.389 70.0465C138.704 70.8165 138.879 71.6565 139.299 72.3215C141.854 76.3465 142.204 80.8965 142.484 85.4115C142.729 89.7515 142.554 94.1265 142.554 98.4665C142.589 102.211 142.414 105.886 141.154 109.526C140.314 111.941 140.559 114.741 139.999 117.261C139.264 120.621 139.509 124.121 138.529 127.446C138.074 128.986 138.004 130.911 138.494 132.451C139.929 136.931 138.879 141.131 137.934 145.471C137.339 148.271 137.514 151.316 137.619 154.221C137.654 155.201 138.704 156.076 139.159 157.056C139.929 158.666 140.349 160.521 141.399 161.886C142.449 163.286 144.234 164.126 145.459 165.421C148.819 168.991 152.844 171.546 157.149 173.856C160.859 175.851 164.569 176.621 168.664 176.481C170.309 176.446 171.919 176.341 173.599 177.111C174.649 177.601 176.154 177.496 177.344 177.146C182.174 175.746 187.074 176.761 191.939 176.551C192.814 176.516 193.724 177.146 194.809 177.531C194.704 181.976 193.409 186.141 191.834 190.621C188.439 191.286 184.309 190.061 180.144 191.391C181.054 193.386 181.684 194.716 182.314 196.081C182.349 196.186 182.629 200.036 182.594 200.036C181.089 200.911 179.794 202.451 177.729 201.156C176.924 200.666 175.944 200.421 175.034 200.176C173.634 199.791 172.584 200.211 172.094 201.646C174.614 204.656 175.209 204.901 180.844 205.181C182.559 206.651 182.174 208.261 181.159 209.906C180.949 210.256 180.529 210.746 180.249 210.711C177.764 210.536 175.489 212.111 172.969 211.376C172.199 211.166 171.359 210.991 170.519 210.991C165.934 210.991 161.419 210.431 156.974 209.346C156.589 209.241 156.134 209.346 155.714 209.311C151.409 208.996 147.139 208.716 142.834 208.331C140.909 208.156 138.949 208.051 137.129 207.456C134.119 206.476 131.074 206.791 128.029 206.721C118.894 206.546 110.739 203.571 103.424 198.251C100.029 195.801 96.0037 194.716 92.1537 193.316C89.7037 192.441 87.1487 191.846 84.6287 191.216C83.5787 190.936 82.4237 190.656 81.3737 190.796C77.4887 191.286 73.9887 192.686 70.9787 195.346C69.0188 197.096 66.7787 198.531 64.6437 200.036C63.2787 201.016 61.9137 201.996 59.8837 201.576C57.5037 199.091 58.7287 195.906 58.3438 193.036C61.9837 188.766 66.4287 185.511 71.2237 182.606C75.4587 180.051 79.6587 177.356 83.9637 174.906C86.6937 173.366 89.5637 171.546 92.8887 172.316C95.7237 172.981 98.0337 172.841 100.519 171.091C102.969 169.376 105.524 170.916 106.224 174.206C106.469 175.326 106.469 176.376 107.379 177.216C108.849 178.546 109.374 178.511 111.579 176.376C110.669 175.606 109.794 174.871 108.394 173.716C108.884 173.506 109.234 173.261 109.584 173.261C110.109 173.261 110.844 173.226 111.124 173.541C112.419 175.011 114.134 174.976 115.779 174.836C117.354 174.696 119.069 175.256 120.469 173.716C122.219 171.826 123.759 169.796 123.829 167.241C124.004 162.201 124.039 157.126 123.794 152.086C123.654 149.531 123.024 146.906 122.149 144.491C121.554 142.881 120.049 141.586 119.174 140.046C117.844 137.771 116.549 135.636 114.169 134.201C113.224 133.641 112.489 132.241 112.244 131.121C111.754 128.706 111.369 126.186 111.404 123.736C111.544 117.191 111.684 110.611 112.314 104.101C112.559 101.651 113.259 99.1315 112.874 96.7165C111.964 91.1515 112.209 85.4465 110.669 79.9515C109.899 77.1865 109.724 74.2115 109.654 71.3415C109.549 67.0365 108.919 62.8715 108.079 58.6365C107.449 55.3115 107.239 51.7065 109.514 48.5565C110.739 46.9115 111.474 44.8815 112.769 43.3065C113.784 42.0465 115.219 40.6815 116.654 40.3665C119.664 39.7015 122.359 37.3915 125.719 38.4415C126.629 38.6165 127.329 39.1065 127.994 39.4565Z" fill="url(#paint0_linear_242_93584)"/>
<defs>
<linearGradient id="paint0_linear_242_93584" x1="126.496" y1="211.641" x2="126.496" y2="38.1074" gradientUnits="userSpaceOnUse">
<stop stop-color="#4B1015"/>
<stop offset="0.9996" stop-color="#AB1B21"/>
</linearGradient>
</defs>
</svg>
