<svg width="250" height="250" viewBox="0 0 250 250" fill="none" xmlns="http://www.w3.org/2000/svg">
<rect width="250" height="250" rx="125" fill="white"/>
<g clip-path="url(#clip0_242_94459)">
<path d="M136.875 110.475L135.488 107.936C139.866 94.295 149.28 82.836 161.812 75.8935C189.01 60.8263 223.273 70.6603 238.34 97.8584C238.519 98.1632 238.612 98.5108 238.61 98.864C238.618 99.9826 237.718 100.895 236.599 100.903H220.751C219.142 100.919 217.596 100.278 216.471 99.1275C207.394 89.5387 193.961 85.3984 181.06 88.2131C160.72 92.6509 147.828 112.738 152.266 133.078C146.335 126.121 141.175 118.542 136.875 110.475ZM237.668 149.175C237.661 149.171 237.653 149.167 237.646 149.163C237.335 148.981 236.98 148.887 236.62 148.892L220.931 148.927C219.311 148.907 217.754 149.557 216.63 150.724C209.505 158.365 199.523 162.699 189.074 162.688C185.93 162.702 182.797 162.313 179.752 161.529C177.616 161.308 157.065 157.985 134.295 118.132C114.874 84.1807 95.1698 72.5008 80.8125 70.2744C50.5785 63.0184 20.1868 81.6461 12.9306 111.88C5.67468 142.114 24.3021 172.506 54.5363 179.762C80.3469 185.957 106.978 173.281 118.446 149.343C119.899 146.231 119.637 142.588 117.753 139.716C114.091 134.085 108.736 125.415 105.088 120.012C105.306 121.665 105.419 123.331 105.428 124.998C105.445 145.863 88.5448 162.792 67.6796 162.809C46.8146 162.826 29.886 145.926 29.8688 125.061C29.8515 104.196 46.7519 87.2673 67.6171 87.25C70.2947 87.2477 72.9651 87.5303 75.5829 88.0926C79.578 88.9943 98.7903 94.7926 115.325 123.812C132.721 154.33 154.395 175.637 173.392 178.987C198.719 186.302 225.729 175.06 238.388 151.937C238.952 150.975 238.629 149.739 237.668 149.175L237.668 149.175Z" fill="#191919"/>
</g>
<defs>
<clipPath id="clip0_242_94459">
<rect width="227.302" height="227.302" fill="white" transform="translate(11.3633 11.3633)"/>
</clipPath>
</defs>
</svg>
