<svg width="250" height="250" viewBox="0 0 250 250" fill="none" xmlns="http://www.w3.org/2000/svg">
<rect width="250" height="250" rx="125" fill="white"/>
<g clip-path="url(#clip0_242_94461)">
<path d="M125.015 11.3633C62.2468 11.3633 11.3633 62.2468 11.3633 125.015C11.3633 187.782 62.2468 238.666 125.015 238.666C187.782 238.666 238.666 187.782 238.666 125.015C238.666 62.2468 187.782 11.3633 125.015 11.3633Z" fill="url(#paint0_linear_242_94461)"/>
<path d="M117.827 111.15C120.997 111.15 124.095 110.21 126.73 108.45C129.366 106.689 131.42 104.186 132.632 101.258C133.845 98.3297 134.163 95.1076 133.544 91.9991C132.926 88.8906 131.4 86.0353 129.159 83.7942C126.918 81.553 124.062 80.0268 120.954 79.4085C117.845 78.7902 114.623 79.1075 111.695 80.3204C108.767 81.5333 106.264 83.5872 104.503 86.2225C102.742 88.8578 101.803 91.956 101.803 95.1254C101.803 99.3755 103.491 103.451 106.496 106.457C109.501 109.462 113.577 111.15 117.827 111.15ZM117.827 87.2835C119.378 87.2835 120.895 87.7434 122.184 88.6051C123.474 89.4668 124.479 90.6915 125.072 92.1244C125.666 93.5574 125.821 95.1341 125.519 96.6553C125.216 98.1765 124.469 99.5738 123.372 100.67C122.276 101.767 120.878 102.514 119.357 102.817C117.836 103.119 116.259 102.964 114.826 102.37C113.393 101.777 112.169 100.772 111.307 99.4822C110.445 98.1926 109.985 96.6764 109.985 95.1254C109.985 93.0456 110.812 91.051 112.282 89.5803C113.753 88.1097 115.748 87.2835 117.827 87.2835ZM103.394 114.56H131.807V122.061H103.394V114.56ZM80.8907 114.56H95.8927V122.061H72.7079V80.0098H80.8907V114.56ZM177.321 116.659C174.253 119.727 170.345 121.816 166.09 122.662C161.835 123.509 157.424 123.074 153.416 121.414C149.408 119.754 145.983 116.942 143.572 113.335C141.162 109.728 139.876 105.487 139.876 101.149C139.876 96.8107 141.162 92.5698 143.572 88.9627C145.983 85.3555 149.408 82.5441 153.416 80.8839C157.424 79.2237 161.835 78.7894 166.09 79.6357C170.345 80.482 174.253 82.5711 177.321 85.6387L171.374 91.5856C169.482 89.6942 167.072 88.4061 164.449 87.8843C161.825 87.3625 159.106 87.6303 156.635 88.6539C154.164 89.6776 152.051 91.411 150.565 93.6351C149.079 95.8592 148.286 98.474 148.286 101.149C148.286 103.824 149.079 106.439 150.565 108.663C152.051 110.887 154.164 112.62 156.635 113.644C159.106 114.668 161.825 114.935 164.449 114.414C167.072 113.892 169.482 112.604 171.374 110.712L177.321 116.659ZM81.9404 146.837H93.0783V164.794H87.3957V162.753C84.8542 164.194 81.9608 164.896 79.0418 164.78C76.1228 164.664 73.2942 163.734 70.875 162.097C68.4558 160.459 66.5421 158.178 65.3498 155.512C64.1575 152.845 63.7339 149.898 64.1269 147.003C64.5198 144.108 65.7136 141.381 67.5737 139.128C69.4338 136.875 71.8861 135.187 74.6543 134.254C77.4225 133.32 80.3964 133.179 83.2407 133.845C86.085 134.511 88.6867 135.959 90.7523 138.025L86.5017 142.275C85.3774 141.151 83.9932 140.322 82.4717 139.86C80.9503 139.399 79.3384 139.32 77.7791 139.63C76.2197 139.94 74.7609 140.63 73.5319 141.639C72.3028 142.647 71.3415 143.943 70.7331 145.412C70.1247 146.881 69.8879 148.478 70.0437 150.06C70.1995 151.642 70.7432 153.162 71.6265 154.484C72.5098 155.806 73.7055 156.889 75.1076 157.639C76.5098 158.388 78.0752 158.781 79.6651 158.781C82.335 158.781 85.6471 157.223 87.3966 155.474V152.065H81.9413L81.9404 146.837ZM170.816 139.108V146.155H183.772V151.837H170.816V159.111H186.045V164.794H165.133V133.426H186.045V139.108H170.816ZM152.632 133.426H158.314V164.794H152.632V147.303L144.449 163.884H138.766L130.81 147.764V164.794H125.128V133.426H130.81V133.926L141.607 157.643L152.632 133.426ZM96.4878 164.794H102.507L103.952 160.929H114.027L115.472 164.794H121.491L108.989 132.517L96.4878 164.794ZM105.651 156.383L108.989 147.456L112.327 156.383H105.651Z" fill="#F9F9F9"/>
</g>
<defs>
<linearGradient id="paint0_linear_242_94461" x1="125.015" y1="10.6357" x2="125.015" y2="235.439" gradientUnits="userSpaceOnUse">
<stop stop-color="#EFBA00"/>
<stop offset="1" stop-color="#E3005D"/>
</linearGradient>
<clipPath id="clip0_242_94461">
<rect width="227.302" height="227.302" fill="white" transform="translate(11.3633 11.3633)"/>
</clipPath>
</defs>
</svg>
