<svg width="250" height="250" viewBox="0 0 250 250" fill="none" xmlns="http://www.w3.org/2000/svg">
<rect width="250" height="250" rx="125" fill="white"/>
<g clip-path="url(#clip0_242_94462)">
<path d="M11.9688 119.57L96.7526 97.298L120.175 13.971C120.175 13.971 119.365 12.0937 117.487 12.819L11.9688 119.57Z" fill="#3E99FF"/>
<path d="M11.9688 125.015L96.1757 102.29L81.3919 154.513C81.3919 154.513 79.2798 165.841 70.448 162.193C61.6161 158.545 11.9688 125.015 11.9688 125.015Z" fill="#1E77FF"/>
<path d="M14.002 132.604L62.3853 163.921C62.3853 163.921 79.6651 174.481 93.681 199.633L117.105 236.304L14.002 132.604Z" fill="#3E99FF"/>
<path d="M125.621 238.664L88.4969 181.967C88.4969 181.967 84.273 171.792 95.2171 168.72L147.825 154.128L125.621 238.664Z" fill="#0030DF"/>
<path d="M129.201 238.665L151.665 152.784L234.224 130.32C234.224 130.32 237.488 130.084 236.336 132.602L129.201 238.665Z" fill="#031DB9"/>
<path d="M152.625 147.217L236.582 123.41L180.272 90.1943C180.272 90.1943 170.673 84.4342 167.217 92.4982L152.625 147.217Z" fill="#2B49FF"/>
<path d="M101.168 100.37L156.847 86.162C156.847 86.162 163.567 83.9061 164.911 90.0021L149.743 147.985L94.064 164.113C94.064 164.113 84.8482 166.033 85.0401 157.777L101.168 100.37Z" fill="#0069FF"/>
<path d="M126.511 12.7998L102.703 96.7217L160.302 81.5538C160.302 81.5538 166.637 78.0988 160.302 69.842L126.511 12.7998Z" fill="#62A8FF"/>
<path d="M130.736 11.3633L154.928 54.7612C154.928 54.7612 164.912 77.7601 184.112 88.2011L238.063 118.802L130.736 11.3633Z" fill="#0030DF"/>
</g>
<defs>
<clipPath id="clip0_242_94462">
<rect width="227.302" height="227.302" fill="white" transform="translate(11.3652 11.3633)"/>
</clipPath>
</defs>
</svg>
