<svg width="250" height="250" viewBox="0 0 250 250" fill="none" xmlns="http://www.w3.org/2000/svg">
<rect width="250" height="250" rx="125" fill="white"/>
<path fill-rule="evenodd" clip-rule="evenodd" d="M125.73 18.7588C121.948 18.7588 118.123 18.9713 114.383 19.3963C60.8751 25.0488 19.2676 70.1838 19.2676 125.094C19.2676 183.786 66.9101 231.386 125.73 231.386H125.985C142.943 231.386 159.603 227.306 174.648 219.529C178.94 217.319 177.07 210.816 172.268 210.944H172.055C129.47 212.006 91.2626 194.029 75.6651 160.709C66.3151 140.776 66.6976 122.289 71.0326 107.711C71.0751 107.584 71.1176 107.456 71.1176 107.329C73.3276 98.3188 77.4926 90.0313 83.6551 83.5713C84.1226 83.0188 84.6326 82.4663 85.1851 81.9563C85.5251 81.5738 85.9076 81.2338 86.2901 80.9363C86.4176 80.7663 86.5876 80.6388 86.7576 80.5113C86.8851 80.4263 87.0126 80.2988 87.1401 80.1713C87.3951 79.9163 87.7351 79.6613 88.0326 79.4488C98.5301 70.9063 111.663 66.2738 125.178 66.3163C156.925 66.3163 182.68 91.0938 182.68 121.694C182.68 132.191 179.578 142.476 173.755 151.274C199.128 142.519 217.318 119.144 217.318 91.6463C217.318 76.0063 211.41 61.7263 201.593 50.6338C197.47 46.4263 193.05 42.5588 188.29 39.1163L188.248 39.0738C170.185 25.8563 148.34 18.7588 125.9 18.7588C125.815 18.7588 125.773 18.7588 125.73 18.7588Z" fill="url(#paint0_linear_242_93588)"/>
<path fill-rule="evenodd" clip-rule="evenodd" d="M216.765 91.0105C216.765 118.466 199.467 141.841 175.242 150.638C168.442 153.146 161.26 154.378 153.992 154.378C130.702 154.378 110.387 141.586 99.5498 122.503C96.9148 117.871 94.8323 109.966 93.4298 103.251C92.1123 96.8755 83.7823 95.218 80.1273 100.616C78.8523 102.443 77.9173 104.483 77.3648 106.651C77.2798 106.948 77.1948 107.288 77.1098 107.586C77.0673 107.671 77.0673 107.756 77.0673 107.883C75.3248 115.066 74.8148 122.503 75.5798 129.856C75.5798 129.941 75.5798 130.026 75.6223 130.153C75.9623 133.511 76.5573 136.783 77.4073 140.056C78.4273 144.306 79.8723 148.471 81.6998 152.466C94.9598 182.131 124.582 200.406 163.682 197.218C167.55 196.921 171.375 196.368 175.157 195.561C207.415 188.761 230.62 159.521 230.832 125.053V124.416C230.832 120.166 230.577 115.873 230.067 111.666C227.517 88.6305 217.53 66.998 201.677 50.083C211.41 61.5155 216.765 76.008 216.765 91.0105Z" fill="url(#paint1_linear_242_93588)"/>
<defs>
<linearGradient id="paint0_linear_242_93588" x1="19.2676" y1="125.073" x2="217.318" y2="125.073" gradientUnits="userSpaceOnUse">
<stop stop-color="#2D2D4B"/>
<stop offset="1" stop-color="#1D1D3A"/>
</linearGradient>
<linearGradient id="paint1_linear_242_93588" x1="75.2344" y1="123.83" x2="230.832" y2="123.83" gradientUnits="userSpaceOnUse">
<stop stop-color="#95A1D4"/>
<stop offset="1" stop-color="#594DA0"/>
</linearGradient>
</defs>
</svg>
