<svg width="250" height="250" viewBox="0 0 250 250" fill="none" xmlns="http://www.w3.org/2000/svg">
<path d="M79.6127 36.3252H170.708L237 102.662L125.341 214.322L13.501 102.482L79.6127 36.3252Z" fill="#71E580"/>
<path d="M50.5713 102.302L78.1253 74.7483C78.1253 74.7483 92.9621 57.2959 125.567 57.2959C159.976 57.2959 173.009 74.7483 173.009 74.7483L200.788 102.483L174.813 128.458C174.813 128.458 158.397 147.985 125.973 147.985C93.5484 147.985 77.1332 129.135 77.1332 129.135L50.5713 102.302Z" fill="black"/>
<path d="M125.701 68.4336C106.805 68.4336 91.5176 83.7665 91.5176 102.617C91.5176 121.467 106.85 136.8 125.701 136.8C144.596 136.8 159.884 121.467 159.884 102.617C159.884 83.7665 144.596 68.4336 125.701 68.4336ZM125.701 117.634C117.403 117.634 110.684 110.915 110.684 102.617C110.684 94.3191 117.403 87.5997 125.701 87.5997C133.999 87.5997 140.718 94.3191 140.718 102.617C140.718 110.915 133.999 117.634 125.701 117.634Z" fill="white"/>
</svg>
