<svg width="250" height="250" viewBox="0 0 250 250" fill="none" xmlns="http://www.w3.org/2000/svg">
<path d="M22.8917 84.3349C23.9901 75.6205 27.1961 68.5403 32.7715 62.2072C34.0885 60.7112 35.7281 59.4506 37.371 58.2975C48.7337 50.3231 60.1364 42.4056 71.7619 34.3057C74.021 35.8762 76.353 37.4901 78.677 39.115C89.1001 46.4024 99.5353 53.673 109.94 60.9875C128.928 74.3355 147.898 87.7088 166.875 101.074C174.317 106.316 181.755 111.564 189.196 116.809C186.919 118.483 184.722 120.284 182.336 121.784C180.855 122.715 179.632 124.142 177.782 124.454C175.586 123.572 173.864 121.964 171.965 120.632C157.826 110.714 143.704 100.771 129.568 90.8491C111.529 78.1888 93.4836 65.5361 75.4269 52.9002C74.2354 52.0667 73.1623 50.9586 71.8457 50.8142C71.0278 50.8858 70.5978 51.1717 70.1526 51.4813C61.9798 57.1704 53.7608 62.7938 45.6415 68.5575C43.3095 70.2127 41.2837 72.2849 39.618 74.6607C33.001 84.0973 34.3365 98.754 45.3362 106.56C50.0751 109.923 54.7762 113.34 59.4941 116.733C57.0358 118.503 54.5871 120.287 52.1157 122.039C50.8467 122.939 49.702 124.055 48.1264 124.452C47.3182 123.96 46.4573 123.536 45.7097 122.965C40.5951 119.055 34.7914 116.013 30.7292 110.779C26.347 105.133 23.2143 99.0193 22.9077 91.7205C22.8808 91.0988 22.5594 86.9739 22.8917 84.3349Z" fill="#4DC0C8"/>
<path d="M48.126 124.451C49.7016 124.054 50.8463 122.938 52.1153 122.038C54.5867 120.286 57.0354 118.502 59.4938 116.732C60.1234 116.357 60.7804 116.021 61.3793 115.602C71.7194 108.374 82.035 101.111 92.3966 93.9143C95.6767 91.6362 98.8632 89.1943 102.438 87.3096C106.163 89.9541 109.77 92.5135 113.53 95.1824C112.752 95.8054 112.281 96.2261 111.768 96.5879C101.627 103.735 91.4633 110.85 81.3473 118.032C78.0828 120.35 74.5787 122.342 71.6229 125.085C67.8699 126.986 64.8131 129.928 61.2079 132.053C60.828 132.277 60.7084 132.71 60.753 133.161C59.6938 133.016 58.9686 133.661 58.1797 134.207C53.9057 137.167 49.5925 140.07 45.3383 143.058C31.8774 152.509 32.7273 172.222 45.2819 180.893C54.0211 186.929 62.6778 193.084 71.6259 199.366C81.7364 192.311 91.8958 185.222 102.153 178.064C105.852 180.666 109.487 183.222 113.544 186.075C99.5312 196.088 85.5964 205.639 71.6689 215.441C67.7019 212.687 63.8672 210.045 60.0531 207.373C52.745 202.254 45.4381 197.134 38.1507 191.986C29.9687 186.206 24.8414 178.443 23.0577 168.537C22.3325 162.494 22.9832 157.216 22.9617 156.288C24.0761 147.931 28.0111 141.071 34.0687 135.33C36.8657 132.679 40.1988 130.751 43.2485 128.441C44.923 127.172 46.8503 126.209 48.126 124.451Z" fill="#05829C"/>
<path d="M60.7522 133.161C60.7071 132.711 60.8267 132.277 61.207 132.053C64.8122 129.929 67.8691 126.987 71.6221 125.086C106.966 149.873 142.311 174.659 177.597 199.406C178.594 198.762 179.318 198.326 180.009 197.844C187.649 192.51 195.247 187.115 202.931 181.845C210.752 176.482 214.408 169.247 213.616 159.705C213.061 153.022 210.004 147.769 204.824 143.807C199.949 140.079 194.804 136.703 189.778 133.173C193.035 130.788 196.289 128.4 199.549 126.02C200.092 125.623 200.731 125.673 201.358 125.712C202.359 125.551 202.881 126.358 203.55 126.832C208.132 130.076 212.979 132.96 216.908 137.075C223.427 143.903 226.736 151.992 226.914 161.428C227.13 172.882 222.704 182.269 214.214 189.742C210.319 193.171 205.814 195.833 201.554 198.8C194.425 203.767 187.302 208.741 180.194 213.738C179.323 214.349 178.465 214.934 177.392 215.35C172.923 212.248 168.481 209.188 164.065 206.094C153.997 199.039 143.937 191.973 133.882 184.899C114.897 171.543 95.9192 158.177 76.9355 144.819C71.9076 141.281 66.8701 137.758 61.8304 134.237C61.4008 133.937 60.8684 133.764 60.7522 133.161Z" fill="#4DC0C8"/>
<path d="M201.359 125.711C200.731 125.672 200.093 125.623 199.55 126.02C196.29 128.4 193.035 130.787 189.779 133.172C189.4 133.357 188.99 133.494 188.648 133.732C177.861 141.241 167.101 148.792 156.285 156.259C153.259 158.347 150.381 160.683 146.989 162.494C143.296 159.888 136.052 154.773 136.052 154.773C136.052 154.773 163.045 135.362 175.269 126.753C176.196 126.1 177.384 125.699 177.783 124.454C179.632 124.142 180.856 122.715 182.336 121.784C184.722 120.283 186.919 118.483 189.196 116.809C194.935 113.183 200.76 109.612 205.934 105.245C216.911 95.9815 216.651 78.9444 205.523 70.1256C199.372 65.251 192.743 60.9804 186.323 56.4456C183.555 54.4902 180.772 52.5545 177.773 50.4537C167.644 57.5264 157.565 64.5645 147.274 71.75C143.542 69.1489 139.841 66.5697 135.785 63.7428C149.912 53.8521 163.711 44.1914 177.746 34.3643C181.843 37.2055 186.019 40.0732 190.165 42.9839C197.207 47.9284 204.259 52.8581 211.253 57.8692C223.096 66.354 228.292 78.0187 226.73 92.3729C225.554 103.173 220.008 111.673 211.097 117.938C208.144 120.014 205.239 122.158 202.277 124.221C201.707 124.619 201.263 124.964 201.359 125.711Z" fill="#05829C"/>
</svg>
