<svg width="250" height="250" viewBox="0 0 250 250" fill="none" xmlns="http://www.w3.org/2000/svg">
<path d="M112.067 199.548C153.26 199.548 186.652 166.155 186.652 124.963C186.652 83.7708 153.26 50.3779 112.067 50.3779C70.8753 50.3779 37.4824 83.7708 37.4824 124.963C37.4824 166.155 70.8753 199.548 112.067 199.548Z" fill="#2EB6EA"/>
<path d="M111.648 199.549C37.4828 199.549 8.18776 101.934 73.7077 60.8086C65.9028 142.359 107.378 144.179 145.843 142.359C210.313 139.384 210.348 199.549 210.348 199.549H111.648Z" fill="#1542CD"/>
<path fill-rule="evenodd" clip-rule="evenodd" d="M182.558 149.359C171.323 178.129 143.743 198.674 111.228 199.584C111.998 199.619 112.768 199.619 113.538 199.619H211.608C211.608 199.619 211.573 164.374 182.558 149.359Z" fill="#745DDF"/>
</svg>
