<svg width="250" height="250" viewBox="0 0 250 250" fill="none" xmlns="http://www.w3.org/2000/svg">
<rect width="250" height="250" rx="125" fill="white"/>
<g clip-path="url(#clip0_242_94463)">
<path fill-rule="evenodd" clip-rule="evenodd" d="M128.003 28.2422L63.642 92.4913L46.9298 75.8005L11.3672 111.305L122.029 221.786L186.384 157.537L203.107 174.227L238.67 138.723L128.003 28.2422ZM80.3648 158.996L32.5997 111.299L46.9246 96.9957L63.6468 113.687L128.002 49.4375L159.05 80.4374L144.72 94.7461L128.003 78.0498L77.972 127.996L94.6949 144.687L80.3701 158.996H80.3648ZM150.822 122.032L122.029 150.777L99.2046 127.996L128.004 99.2506L150.822 122.032ZM203.101 153.032L186.383 136.341L122.029 200.59L90.9758 169.59H90.981L105.311 155.287L122.029 171.978L172.049 122.032L155.336 105.341L169.667 91.0324L217.432 138.723L203.101 153.032Z" fill="black"/>
</g>
<defs>
<clipPath id="clip0_242_94463">
<rect width="227.302" height="227.302" fill="white" transform="translate(11.3672 11.3633)"/>
</clipPath>
</defs>
</svg>
