<svg width="250" height="250" viewBox="0 0 250 250" fill="none" xmlns="http://www.w3.org/2000/svg">
<path d="M89.4386 46.4554H63.7136L121.009 135.635L80.4086 197.935L71.0286 198.005L111.734 135.635L107.534 129.055L102.914 121.88L49.4336 38.6504H93.6036L127.204 88.8404L122.339 95.4904L89.4386 46.4554Z" fill="#1178BA"/>
<path d="M149.009 120.725L142.604 116.35L190.134 46.4897H164.444L116.669 115.965L74.9844 51.9847L84.2594 51.9147L116.879 101.965L160.349 38.7197H204.869L149.009 120.725Z" fill="#29A7E4"/>
<path d="M206.83 211.549H161.505L124.125 157.649L130.18 152.434L165.6 203.779H192.69L131.09 106.479L168.75 51.7741L178.305 51.7041L140.4 106.654L206.83 211.549Z" fill="#1178BA"/>
<path d="M180.019 197.899L170.639 197.934L135.289 145.364L91.4337 211.794H42.4688L102.914 121.879L107.534 129.054L57.0637 203.989H87.2337L135.254 131.329L180.019 197.899Z" fill="#29A7E4"/>
</svg>
