<svg width="250" height="250" viewBox="0 0 250 250" fill="none" xmlns="http://www.w3.org/2000/svg">
<path d="M208.364 112.432L169.829 59.6872C166.959 55.7322 162.514 53.4922 157.649 53.4922C152.784 53.4922 148.339 55.7322 145.469 59.6872L141.269 65.4272L137.069 59.6872C134.199 55.7322 129.754 53.4922 124.889 53.4922C120.024 53.4922 115.579 55.7322 112.709 59.6872L108.579 65.3572L104.449 59.6872C101.579 55.7322 97.134 53.4922 92.269 53.4922C87.404 53.4922 82.959 55.7322 80.089 59.6872L41.589 112.432C36.094 119.922 36.094 130.002 41.589 137.527L80.124 190.272C82.994 194.192 87.404 196.467 92.304 196.467C97.169 196.467 101.614 194.227 104.484 190.272L124.994 162.202L129.229 168.012C129.264 168.047 129.264 168.047 129.264 168.082L145.504 190.307C148.374 194.227 152.784 196.502 157.684 196.502C162.549 196.502 166.994 194.262 169.864 190.307L208.399 137.562C213.859 130.037 213.859 119.957 208.364 112.432ZM118.939 64.2022C120.339 62.2772 122.544 61.1572 124.959 61.1572C127.374 61.1572 129.579 62.2772 130.979 64.2022L136.614 71.9022L124.994 87.7572L113.339 71.7972L118.939 64.2022ZM98.359 185.792C96.959 187.717 94.754 188.837 92.339 188.837C89.924 188.837 87.719 187.717 86.319 185.792L47.784 133.047C44.284 128.252 44.284 121.742 47.784 116.947L86.284 64.2022C87.684 62.2772 89.889 61.1572 92.304 61.1572C94.719 61.1572 96.924 62.2772 98.324 64.2022L103.889 71.8322L74.209 112.432C68.714 119.922 68.714 130.002 74.244 137.527L76.519 140.572L96.399 167.977C98.919 171.442 102.699 173.612 106.864 174.067L98.359 185.792ZM114.634 163.532C113.199 165.457 111.029 166.577 108.614 166.577C106.199 166.577 103.994 165.457 102.594 163.532L82.154 135.357H82.119L80.404 133.047C76.904 128.252 76.904 121.742 80.404 116.947L108.649 78.3072L120.304 94.2672L107.004 112.467C101.509 119.957 101.509 130.037 107.004 137.562L120.304 155.762L114.634 163.532ZM124.994 100.672L136.894 116.912C140.394 121.707 140.394 128.217 136.894 133.012L124.994 149.252L113.094 133.047C109.594 128.252 109.594 121.742 113.094 116.947L124.994 100.672ZM143.019 137.527C148.514 130.037 148.514 119.957 143.019 112.432L129.719 94.2322L141.339 78.3772L169.514 116.947C173.014 121.742 173.014 128.252 169.479 133.082L164.964 139.347L147.429 163.497C146.029 165.422 143.824 166.542 141.409 166.542C139.029 166.542 136.859 165.457 135.424 163.567L129.719 155.727L143.019 137.527ZM202.239 133.047L163.704 185.792C162.304 187.717 160.099 188.837 157.684 188.837C155.269 188.837 153.064 187.717 151.664 185.792L143.124 174.102C147.324 173.647 151.069 171.477 153.589 168.012L168.674 147.257L168.709 147.292L171.159 143.862L174.064 139.872L174.029 139.837L175.674 137.562C181.169 130.072 181.169 119.992 175.674 112.467L146.029 71.9022L151.664 64.2022C153.064 62.2772 155.269 61.1572 157.684 61.1572C160.099 61.1572 162.304 62.2772 163.704 64.2022L202.239 116.947C205.739 121.777 205.739 128.217 202.239 133.047Z" fill="url(#paint0_linear_242_93605)"/>
<path opacity="0.4" d="M108.579 174.172C107.984 174.172 107.424 174.137 106.829 174.067L98.5693 185.477L104.799 189.887L119.919 169.132C117.084 172.352 112.954 174.172 108.579 174.172Z" fill="url(#paint1_linear_242_93605)"/>
<path opacity="0.4" d="M141.374 174.172C141.969 174.172 142.529 174.137 143.124 174.067L151.384 185.477L145.154 189.887L130.104 169.132C132.939 172.387 136.999 174.172 141.374 174.172Z" fill="url(#paint2_linear_242_93605)"/>
<path opacity="0.4" d="M120.234 155.692L125.029 162.272L117.714 172.107L112.919 165.702L120.234 155.692Z" fill="url(#paint3_linear_242_93605)"/>
<path opacity="0.6" d="M103.89 71.7979L108.65 78.3079L91.4997 101.828L85.5146 97.1028L103.89 71.7979Z" fill="url(#paint4_linear_242_93605)"/>
<path opacity="0.6" d="M120.304 94.1973L124.959 100.707L114.039 115.792L108.054 111.032L120.304 94.1973Z" fill="url(#paint5_linear_242_93605)"/>
<path opacity="0.6" d="M136.579 71.9023L141.304 78.3773L129.719 94.1973L124.994 87.7573L136.579 71.9023Z" fill="url(#paint6_linear_242_93605)"/>
<defs>
<linearGradient id="paint0_linear_242_93605" x1="69.7935" y1="180.192" x2="180.196" y2="69.7894" gradientUnits="userSpaceOnUse">
<stop stop-color="#FF8506"/>
<stop offset="0.5805" stop-color="#FD3947"/>
<stop offset="1" stop-color="#FB0078"/>
</linearGradient>
<linearGradient id="paint1_linear_242_93605" x1="115.143" y1="168.964" x2="102.246" y2="187.216" gradientUnits="userSpaceOnUse">
<stop stop-color="#78005B"/>
<stop offset="0.3483" stop-color="#7A025A" stop-opacity="0.6517"/>
<stop offset="0.51" stop-color="#820955" stop-opacity="0.49"/>
<stop offset="0.6332" stop-color="#8E154E" stop-opacity="0.3668"/>
<stop offset="0.7369" stop-color="#A12643" stop-opacity="0.2631"/>
<stop offset="0.8283" stop-color="#B83C36" stop-opacity="0.1717"/>
<stop offset="0.9111" stop-color="#D65725" stop-opacity="0.0889"/>
<stop offset="0.9857" stop-color="#F87711" stop-opacity="0.0143"/>
<stop offset="1" stop-color="#FF7E0D" stop-opacity="0"/>
</linearGradient>
<linearGradient id="paint2_linear_242_93605" x1="146.667" y1="185.859" x2="134.529" y2="168.399" gradientUnits="userSpaceOnUse">
<stop stop-color="#FF7E0D" stop-opacity="0"/>
<stop offset="0.00928743" stop-color="#F97811" stop-opacity="0.0127"/>
<stop offset="0.0651" stop-color="#D65825" stop-opacity="0.0888"/>
<stop offset="0.1269" stop-color="#B93D36" stop-opacity="0.1729"/>
<stop offset="0.1949" stop-color="#A12643" stop-opacity="0.2657"/>
<stop offset="0.272" stop-color="#8F154E" stop-opacity="0.3707"/>
<stop offset="0.3632" stop-color="#820955" stop-opacity="0.495"/>
<stop offset="0.4822" stop-color="#7A025A" stop-opacity="0.6573"/>
<stop offset="0.7336" stop-color="#78005B"/>
</linearGradient>
<linearGradient id="paint3_linear_242_93605" x1="115.568" y1="168.875" x2="125.384" y2="154.757" gradientUnits="userSpaceOnUse">
<stop stop-color="#FF7E0D" stop-opacity="0"/>
<stop offset="0.0133" stop-color="#F97910" stop-opacity="0.0192"/>
<stop offset="0.1144" stop-color="#D25427" stop-opacity="0.1659"/>
<stop offset="0.219" stop-color="#B1363A" stop-opacity="0.3175"/>
<stop offset="0.3263" stop-color="#981E48" stop-opacity="0.4731"/>
<stop offset="0.4375" stop-color="#860D53" stop-opacity="0.6344"/>
<stop offset="0.5551" stop-color="#7B0359" stop-opacity="0.8048"/>
<stop offset="0.6897" stop-color="#78005B"/>
</linearGradient>
<linearGradient id="paint4_linear_242_93605" x1="86.4731" y1="98.0663" x2="108.315" y2="76.2242" gradientUnits="userSpaceOnUse">
<stop stop-color="#FF4630" stop-opacity="0"/>
<stop offset="0.5722" stop-color="#B31F48" stop-opacity="0.5722"/>
<stop offset="1" stop-color="#78005B"/>
</linearGradient>
<linearGradient id="paint5_linear_242_93605" x1="109.593" y1="112.596" x2="124.137" y2="98.0515" gradientUnits="userSpaceOnUse">
<stop stop-color="#FF4630" stop-opacity="0"/>
<stop offset="0.5722" stop-color="#B31F48" stop-opacity="0.5722"/>
<stop offset="1" stop-color="#78005B"/>
</linearGradient>
<linearGradient id="paint6_linear_242_93605" x1="125.858" y1="90.3489" x2="140.453" y2="75.7538" gradientUnits="userSpaceOnUse">
<stop stop-color="#FF4630" stop-opacity="0"/>
<stop offset="0.5722" stop-color="#B31F48" stop-opacity="0.5722"/>
<stop offset="1" stop-color="#78005B"/>
</linearGradient>
</defs>
</svg>
