<svg width="250" height="250" viewBox="0 0 250 250" fill="none" xmlns="http://www.w3.org/2000/svg">
<rect width="250" height="250" rx="125" fill="#89CACE"/>
<path d="M195.843 64.5329C195.34 72.3614 195.568 84.1872 198.197 92.4097C198.759 94.2615 198.035 96.0472 196.278 97.3478C190.202 100.988 192.647 98.7759 191.27 106.395C191.19 106.971 191.447 106.96 191.834 106.828C195.841 105.256 200.578 106.087 202.119 110.57C206.037 123.38 196.435 142.888 182 143.528C181.454 143.537 181.274 143.697 181.254 144.227C180.958 153.256 173.671 159.117 166.038 162.422C165.296 162.729 164.984 163.105 165.032 163.959C165.267 167.786 165.339 171.774 163.751 175.359C163.484 175.976 163.448 176.19 164.249 176.343C174.652 177.96 183.938 186.212 184.946 196.922C190.006 224.12 159.455 261.673 137.26 229.794C136.866 229.243 136.557 229.031 135.801 229.231C130.472 230.637 125.063 231.429 119.527 231.167C114.285 230.919 109.279 229.739 104.544 227.468C103.841 227.131 103.479 227.179 102.976 227.824C96.4925 236.686 84.8601 241.672 74.9055 235.317C59.2941 225.822 54.5865 206.208 56.5897 189.03C56.872 186.54 57.2954 184.076 59.4102 182.304C60.0953 181.73 59.8723 180.81 59.7311 180.038C58.363 172.605 56.8925 165.194 55.5471 157.759C55.0759 155.156 56.2961 153.177 58.898 152.158C72.5517 148.362 68.2744 153.306 67.9921 144.282C67.9694 142.622 62.802 144.298 58.7136 140.822C49.1733 133.88 42.5763 120.669 47.8985 109.235C49.624 105.809 52.7153 104.857 56.1936 106.634C56.6762 106.88 57.1338 107.581 57.6778 107.235C58.3243 106.823 57.737 106.112 57.6778 105.559C57.5139 104.056 57.6255 102.53 57.284 101.038C56.6148 97.4161 49.5238 99.1585 51.0695 91.649C57.3842 75.8235 50.0246 58.8318 53.2753 42.4642C61.5887 -0.297401 164.848 1.28788 189.084 28.2901C197.962 38.9474 196.298 50.3952 195.843 64.5329ZM59.7767 107.812C59.681 107.921 59.5832 108.03 59.4876 108.142C58.7045 107.955 57.9715 108.046 57.3022 108.52C57.0814 108.499 56.8629 108.481 56.6421 108.461C54.0925 105.563 49.3963 106.695 48.2331 110.668C44.5226 121.359 50.1658 133.438 59.0869 139.765C60.4436 141.009 68.625 144.608 68.6705 141.323C68.6067 139.037 68.7638 136.702 67.5164 134.616C68.222 134.698 68.395 135.415 68.8822 135.759C69.0051 137.738 69.7199 139.622 69.2692 141.624C69.0939 143.455 68.5385 149.935 71.343 149.724C73.5624 149.334 75.7546 148.785 78.0014 148.592C83.6241 147.74 93.0984 142.89 94.5302 151.621C95.377 155.946 96.2489 160.269 96.966 164.617C97.1572 165.772 97.6671 166.098 98.6664 166.239C104.018 166.986 109.379 167.615 114.779 167.886C114.79 167.998 114.801 168.109 114.815 168.221C114.246 168.173 113.677 168.123 112.971 168.064C113.274 168.542 113.481 168.87 113.688 169.198C112.231 169.054 112.275 167.059 110.604 168.991C109.846 169.792 109.427 170.815 108.867 171.749C108.302 172.69 107.642 173.567 108.653 174.61C108.705 174.664 108.646 174.826 108.637 174.94C106.172 172.981 103.11 174.605 100.449 175.22C98.9919 175.229 99.3288 176.439 100.355 176.976C105.659 179.022 106.345 184.793 107.424 189.643C109.659 198.398 111.223 207.507 108.48 216.39C112.368 210.397 115.052 203.363 118.699 197.095C119.8 195.168 119.473 193.49 118.576 191.688C117.242 188.72 115.211 186.142 113.82 183.204C113.77 183.099 113.57 183.069 113.44 183.003C112.705 180.99 110.984 179.286 110.189 177.206C110.8 177.149 110.893 177.71 111.127 178.047C114.783 182.994 117.132 188.841 120.308 193.966C121.963 190.729 125.034 187.991 123.884 183.989C124.312 184.349 124.353 185.012 124.902 185.32C129.07 179.835 131.722 173.382 136.486 168.08C129.293 168.717 122.382 168.713 115.466 168.289C115.471 168.168 115.475 168.05 115.482 167.929C126.746 168.519 138.03 167.847 149.209 166.44C150.994 166.237 151.187 166.016 151.44 164.196C150.884 153.992 159.76 151.753 164.024 160.944C164.174 161.267 164.097 161.88 164.777 161.663C164.966 161.7 165.166 161.761 165.237 161.486C173.63 158.222 181.172 151.272 180.018 141.533C180.115 141.512 180.213 141.49 180.311 141.469C182.779 144.783 187.992 140.804 190.55 139.255C198.377 132.88 202.861 124.976 201.825 114.549C201.734 110.49 197.719 104.131 193.314 107.782C191.978 107.859 192.813 109.331 192.28 110.062C192.146 108.659 191.793 108.342 189.997 108.014C189.993 107.383 189.713 106.812 189.54 106.215C189.899 105.996 189.879 106.563 190.179 106.504C190.594 103.58 192.904 93.5076 189.936 92.1341C165.649 75.5251 135.519 70.1679 106.727 74.6892C96.4287 75.7893 61.8413 85.8363 57.7234 94.5576C57.8804 98.6552 57.91 102.498 58.9685 106.554C60.3526 104.47 62.2101 103.181 64.1086 101.94C64.5138 101.994 64.8758 101.842 65.2445 101.71C65.2377 101.828 65.2309 101.949 65.224 102.067C64.2133 102.375 57.4183 106.951 59.7767 107.825V107.812ZM138.43 181.201C130.816 196.569 123.206 211.996 117.456 228.188C115.539 231.454 133.666 228.521 135.18 227.671C135.844 227.468 135.929 227.257 135.694 226.594C130.472 211.734 133.768 198.384 143.142 186.267C144.688 184.27 145.908 182.286 146.543 179.892C147.524 178.511 148.508 177.131 149.557 175.655C140.138 172.667 142.391 172.819 138.43 181.201ZM191.875 98.4638C201.156 94.8992 195.067 89.6172 194.543 82.6771C193.314 71.1883 196.28 59.793 195.449 48.2951C194.641 20.3523 161.244 13.7059 138.938 10.6219C113.547 8.2121 66.5034 11.7015 55.3582 38.8108C50.2819 51.657 55.2694 64.993 55.0008 78.1923C54.9667 82.2306 54.4021 86.2189 52.7677 89.9407C51.0126 93.9358 52.9407 97.5323 57.3842 98.0835C56.8583 97.2749 57.9783 92.396 56.3165 93.6989C55.8704 94.0428 55.3787 94.3868 54.7345 94.405C94.1501 66.806 153.393 63.4009 192.369 93.6624C192.79 94.2569 192.183 93.8766 192.153 94.0178C191.616 95.4368 191.96 96.89 191.873 98.4638H191.875ZM74.8372 215.315C77.9968 215.422 81.1041 214.372 84.2501 214.007C88.0585 213.328 91.9374 213.053 95.6889 212.046C100.28 210.941 101.159 208.944 100.617 204.411C99.6703 198.781 98.029 193.31 96.7929 187.748C96.6973 187.319 96.4014 187.142 96.0873 186.923C91.9488 184.065 88.821 176.614 93.9543 173.177C94.4483 172.856 94.2958 172.496 94.2229 172.097C93.0551 165.818 91.8964 159.536 90.6376 153.274C90.1687 149.872 86.2328 150.764 83.854 151.395C82.4836 151.89 84.9353 155.056 80.6397 155.541C77.0066 156.028 73.4259 156.723 69.8565 157.545C65.5314 158.502 67.093 154.577 65.8774 154.812C63.4371 155.197 59.3419 155.773 60.0817 159.142C61.3474 165.98 62.6495 172.81 63.9356 179.643C64.0312 180.151 64.161 180.468 64.8188 180.229C67.4777 179.741 70.1433 178.587 72.9046 179.231C73.4076 179.391 73.781 179.161 73.592 178.496C72.7771 176.149 72.5107 173.872 75.8297 175.054C76.1598 174.371 76.4694 173.516 77.2456 173.384C80.0797 172.901 82.7977 170.13 85.8299 172.856C86.597 173.036 87.116 173.487 86.7746 174.284C85.9141 176.254 89.2399 176.976 87.2321 178.994C84.1954 182.691 83.7561 182.641 79.0667 182.322C76.499 182.167 79.6336 185.381 79.2033 186.297C78.3497 189.768 81.5958 192.203 81.2657 195.517C80.8651 199.596 83.9815 204.373 79.9113 207.47C79.3445 207.942 79.3558 208.238 79.7428 208.823C82.1535 212.199 77.5325 214.344 74.8372 215.315ZM57.976 197.464C58.379 202.623 57.3068 215.832 64.2771 215.98C69.0984 215.761 74.0473 214.634 78.0446 211.796C78.9165 211.128 78.8596 210.069 77.9468 209.456C75.8752 208.331 73.4691 210.046 71.3043 210.26C70.1092 210.39 67.8396 211.228 67.225 209.825C67.1544 209.272 67.7394 209.304 68.1242 209.215C73.1755 208.277 83.3281 207.37 80.0729 199.803C79.8293 199.236 79.563 199.088 78.9666 199.218C76.4853 199.412 65.0488 203.304 64.4387 200.414C64.507 200.059 64.8553 199.924 65.24 199.917C69.5423 199.84 73.6831 198.749 77.8716 197.936C79.11 197.697 79.4901 196.959 79.5607 195.888C79.67 194.23 79.2375 192.672 78.5796 191.175C77.6895 189.153 77.1956 188.907 74.9966 189.349C71.154 189.861 67.3024 191.588 63.4098 191.066C61.8891 190.64 62.7177 189.597 63.9083 189.592C68.0445 189.214 72.2854 188.859 76.2554 187.593C76.8951 187.328 77.4437 186.996 77.4642 186.137C77.5347 183.44 75.8138 181.311 73.1777 180.791C71.714 180.502 70.314 180.848 68.9095 181.078C66.4214 181.486 63.881 181.725 61.5818 182.891C56.8356 185.299 58.2856 193.221 57.976 197.467V197.464ZM140.659 173.059C139.58 151.742 107.239 221.649 105.375 225.325C105.058 225.992 105.161 226.202 105.846 226.421C108.794 227.364 111.753 228.286 114.647 229.382C115.828 229.828 116.192 229.45 116.547 228.448C122.985 210.406 131.622 193.291 139.996 176.099C140.472 175.125 140.83 174.152 140.659 173.056V173.059ZM150.42 212.285C150.944 210.474 150.431 208.677 151.517 207.097C152.048 206.297 152.061 205.532 151.95 204.63C151.768 203.138 151.362 201.489 152.307 200.202C154.599 197.207 150.338 195.879 153.728 191.886C153.994 191.533 154.292 191.305 153.983 190.729C152.419 187.973 153.898 183.265 157.422 183.229C161.652 183.251 165.813 182.866 169.799 181.217C167.183 180.29 164.361 180.812 161.636 180.375C160.516 180.277 160.249 179.833 160.609 178.764C162.082 174.273 164.711 169.981 163.443 165.039C162.781 162.506 162.239 159.944 160.35 157.994C158.262 155.839 155.424 156.22 153.876 158.791C152.05 162.208 153.038 166.276 152.781 169.972C152.965 175.833 148.492 177.534 147.326 182.509C145.883 192.248 140.57 205.222 150.415 212.283L150.42 212.285ZM167.379 201.546C169.76 201.341 177.284 201.525 177.798 198.69C178.058 197.346 177.621 192.786 175.877 192.895C169.473 193.239 163.033 194.526 156.744 192.476C156.154 192.282 155.487 192.207 154.93 192.743C152.353 195.407 155.173 199.07 158.066 199.924C161.058 201.074 164.169 201.594 167.377 201.548L167.379 201.546ZM165.449 192.191C167.698 192.203 175.344 192.073 176.589 190.378C177.309 187.631 176.075 184.263 173.751 182.62C173.15 182.195 172.608 182.101 171.866 182.331C167.277 183.755 162.631 184.878 157.764 184.716C156.243 184.666 155.601 185.265 155.207 186.759C153.464 192.38 161.888 192.128 165.449 192.191ZM164.392 210.324C167.377 210.092 174.406 209.44 175.638 207.375C176.045 206.76 178.055 201.519 176.375 202.09C169.296 202.753 161.608 204.391 155.36 199.899C154.838 199.521 154.581 199.715 154.235 200.093C149.739 205.657 160.165 210.406 164.395 210.326L164.392 210.324ZM103.711 196.565C106.167 191.294 106.563 183.117 101.321 179.416C98.7461 178.411 97.6011 174.011 94.5553 174.776C90.608 177.486 94.405 184.618 97.9721 186.11C102.561 187.795 102.878 192.273 103.711 196.565ZM166.418 216.738C169.619 216.784 173.227 214.859 173.405 211.431C173.478 210.782 173.311 210.515 172.633 210.641C168.59 211.347 164.461 212.19 160.395 211.087C157.98 210.418 155.913 209.115 153.987 207.557C153.668 207.299 153.366 206.91 153.026 207.545C151.604 210.069 151.422 214.035 155.055 214.363C158.642 215.581 162.278 216.597 166.421 216.738H166.418ZM97.576 167.127C98.0017 169.376 98.4251 171.471 98.7848 173.578C98.8872 174.186 99.124 174.277 99.6703 174.156C103.588 173.396 108 173.091 109.361 168.501C105.402 168.31 101.548 167.665 97.5783 167.125L97.576 167.127ZM151.103 169.282C150.962 168.667 151.547 167.109 150.513 167.244C147.463 167.786 144.39 168.148 141.301 168.378C140.741 168.419 140.527 168.581 140.898 169.132C141.959 170.298 142.248 172.309 143.869 172.804C145.747 173.355 147.638 173.87 149.494 174.489C150.866 175.058 151.105 170.184 151.101 169.284L151.103 169.282ZM75.8388 180.006C76.0323 176.892 77.6235 182.247 78.8232 179.177C79.0235 178.753 79.0872 178.252 79.5106 177.908C79.8862 178.801 79.5766 180.933 81.0017 180.347C82.2491 180.477 80.6557 176.354 80.7126 175.466C80.8924 174.038 79.4241 174.084 78.8983 175.163C77.125 180.101 77.9832 177.817 75.124 175.532C74.3273 175.106 73.2574 175.532 73.8174 176.491C74.0632 177.903 73.9107 179.842 75.8388 180.006ZM83.7789 179.917C86.0393 180.231 88.8802 177.459 86.0416 176.184C85.4201 175.683 83.508 176.14 83.5125 175.4C83.5193 175.02 83.8699 174.94 84.1727 174.917C84.9125 174.778 86.1668 175.273 86.1691 174.145C86.0348 172.362 82.3083 173.883 81.8963 174.988C80.8696 176.708 83.3486 177.534 84.7053 177.416C85.6546 177.345 85.6455 178.384 84.7668 178.45C84.0611 178.842 82.5473 177.712 82.4813 178.876C82.0556 179.962 83.1984 179.716 83.7811 179.917H83.7789ZM77.3503 152.958C76.9838 152.689 76.9201 152.603 76.8723 152.612C74.4616 153.054 72.0532 153.507 69.6425 153.956C69.4923 153.983 69.3284 154.008 69.3284 154.197C69.3284 154.461 69.531 154.479 69.7267 154.448C72.381 154.051 74.5572 153.548 77.3481 152.96L77.3503 152.958ZM79.4332 173.626C77.9422 173.4 75.857 174.906 76.8905 176.45C77.216 176.862 77.4596 177.152 77.7829 176.368C78.1858 175.391 78.3155 174.218 79.4332 173.626ZM84.1385 172.788C83.1642 172.255 82.347 172.337 81.523 172.717C80.6852 172.847 80.7308 174.981 81.6277 174.175C82.2673 173.489 83.1278 173.204 84.1385 172.788ZM84.5483 180.473C82.7681 180.359 82.199 180.186 81.5571 181.028C81.4888 181.281 81.7802 181.274 81.9259 181.354C83.0937 181.99 83.7538 181.782 84.546 180.47L84.5483 180.473ZM79.1783 179.965C78.7458 180.955 77.8466 180.812 77.0043 180.926C78.0264 181.919 78.7776 181.98 80.1935 181.204C79.5812 181.044 79.4901 180.539 79.1783 179.967V179.965Z" fill="#191818"/>
<path d="M191.875 98.464C191.964 96.8878 191.614 95.4369 192.155 94.0179C192.185 93.879 192.793 94.2571 192.372 93.6649C153.391 63.4033 94.1615 66.8062 54.7368 94.4074C55.3787 94.3892 55.8727 94.0452 56.3189 93.7013C57.9806 92.4007 56.8606 97.2727 57.3865 98.0859C52.943 97.537 51.0149 93.9405 52.77 89.9431C54.4044 86.2213 54.969 82.2331 55.0031 78.1947C55.2717 64.9954 50.2819 51.6572 55.3628 38.8132C66.467 11.7131 113.57 8.20997 138.938 10.6198C161.24 13.6901 194.648 20.3615 195.449 48.293C196.28 59.7931 193.312 71.1862 194.543 82.6749C195.035 89.5536 201.177 94.913 191.875 98.4617V98.464ZM124.217 45.6167C124.034 47.5368 124.044 49.441 124.697 51.2859C124.872 45.931 124.39 40.583 124.396 35.2235C124.019 29.7479 124.649 22.3112 124.178 17.4711C123.693 25.0559 123.709 33.103 124.105 40.6536C124.141 42.3095 124.18 43.9631 124.217 45.619V45.6167ZM181.896 31.7318C183.412 36.8088 185.911 41.1934 190.664 43.954C186.596 40.7652 184.211 36.228 181.896 31.7318ZM65.1581 33.6155C63.8833 37.8611 62.4606 42.3687 58.939 45.3297C58.7136 45.521 58.4746 45.6714 58.7227 45.9356C59.1097 46.1952 59.4717 45.4937 59.779 45.3047C62.2602 43.2092 66.0026 36.6744 65.1581 33.6155Z" fill="#F3F3F3"/>
<path d="M114.782 167.883C109.382 167.612 104.021 166.984 98.6694 166.234C97.6701 166.095 97.1602 165.767 96.9689 164.613C96.2496 160.265 95.38 155.941 94.5332 151.616C93.7046 147.38 91.3212 145.981 87.2533 146.569C84.9428 146.45 75.407 150.491 75.0178 147.769C74.5761 146.471 74.8766 145.138 74.7878 143.826C74.6467 141.733 75.3615 141.747 76.9254 141.981C86.279 143.157 96.3611 143.289 104.882 138.631C105.615 138.207 106.612 137.952 106.844 136.907C106.928 136.843 107.015 136.777 107.099 136.713C107.301 136.704 107.456 136.633 107.495 136.41C109.598 134.661 111.363 132.609 112.783 130.279C114.106 128.11 115.189 125.835 115.23 123.211C115.396 122.865 115.581 122.514 115.141 122.229C114.543 122.088 113.785 124.974 113.359 125.55C113.425 125.586 113.491 125.621 113.557 125.657L114.54 124.628C111.825 139.628 92.9989 141.662 80.3217 140.12C75.4525 139.685 71.0705 137.913 67.5148 134.608L67.5216 134.629C67.7219 134.328 67.4829 134.255 67.2826 134.162L67.2917 134.173C67.0345 133.67 66.7772 133.167 66.52 132.663C67.0459 131.773 68.2364 130.921 67.5535 129.812C63.3786 121.794 61.3754 112.588 62.7116 103.657C64.7376 101.743 67.64 101.299 70.1417 100.263C67.9473 100.233 66.1717 101.652 64.1048 101.921C63.0371 99.1241 61.4573 96.5047 61.0043 93.4549C59.2356 91.2911 75.1247 86.4828 77.0642 85.5239C88.8809 81.2282 101.262 78.6498 113.698 77.2422C118.296 77.6203 122.895 77.9574 127.511 77.5246C148.033 75.7093 168.504 83.064 186.684 92.1019C190.098 94.5049 185.809 99.1127 184.778 101.841C183.533 101.926 182.825 100.999 181.334 101.261C184.43 102.012 186.793 103.449 189.103 105.522L189.094 105.511C189.124 105.825 189.254 106.073 189.556 106.205L189.54 106.199C189.679 106.625 189.816 107.053 189.955 107.479C188.218 108.078 186.663 107.404 187.023 109.829C186.501 116.899 184.935 123.94 181.384 130.224C179.572 134.162 176.431 136.688 173.169 139.139C170.246 140.164 167.093 140.362 164.022 140.31C157.516 140.414 150.976 139.943 144.787 137.804L144.796 137.809C144.75 137.515 144.543 137.542 144.331 137.576L144.341 137.581C144.29 137.298 144.095 137.303 143.878 137.349L143.885 137.353C143.835 137.068 143.653 137.05 143.423 137.121L143.432 137.128C143.485 136.918 143.339 136.909 143.198 136.895L143.202 136.9C138.29 133.757 135.205 128.459 133.828 122.874C134.598 128.317 137.605 133.506 142.066 136.667L142.073 136.663C142.303 137.729 143.266 138.091 144.033 138.553C151.329 142.936 159.929 142.795 168.122 142.396C169.633 142.703 174.036 140.884 174.5 142.669C175.04 146.616 173.451 150.45 171.662 153.901C170.432 156.035 169.044 158.012 167.095 159.59C166.431 160.128 165.479 160.479 165.235 161.469C165.083 161.531 164.928 161.588 164.776 161.647C164.095 161.863 164.17 161.251 164.022 160.927C162.608 157.183 157.493 152.832 153.833 156.422C149.615 159.971 153.546 166.426 149.207 166.423C137.794 167.865 126.273 168.526 114.777 167.877L114.782 167.883ZM100.698 104.142C99.8372 102.828 98.6375 102.058 97.1966 101.579C98.3507 102.693 99.7347 103.477 100.998 104.427C100.882 104.351 100.798 104.238 100.698 104.144V104.142ZM117.782 111.007C117.602 111.105 117.363 110.888 117.206 111.114C116.842 111.03 116.459 111.665 116.157 111.178C115.924 110.802 115.963 110.317 116.336 109.959C116.493 109.706 117.094 109.791 117.013 109.442C116.949 109.269 116.712 109.378 116.61 109.561L115.899 109.62C115.658 107.921 115.305 106.217 114.201 104.83C114.058 104.964 114.156 105.046 114.265 105.126C116.118 109.367 115.888 114.091 115.984 118.628C115.995 118.63 116.004 118.633 116.015 118.637C116.503 116.195 115.553 112.649 117.757 110.991C117.775 110.934 117.994 110.907 117.782 110.818C117.782 110.882 117.782 110.945 117.782 111.009V111.007ZM113.429 103.684C112.926 102.86 112.287 102.247 111.499 101.721C111.47 101.753 111.44 101.787 111.41 101.819C111.465 101.846 111.522 101.871 111.577 101.898C112.011 102.673 112.706 103.199 113.354 103.775C113.382 103.951 113.45 104.094 113.628 104.165C113.691 104.358 113.796 104.682 113.985 104.54C114.24 104.285 113.53 103.96 113.427 103.682L113.429 103.684ZM110.229 100.974C110.213 100.914 110.197 100.853 110.181 100.794C110.14 100.819 110.101 100.844 110.06 100.869C110.122 100.898 110.186 100.926 110.247 100.955C110.315 101.179 110.488 101.213 110.689 101.195C110.664 101.422 110.844 101.477 110.996 101.548C111.256 101.42 110.894 101.144 110.698 101.185C110.609 100.964 110.445 100.91 110.229 100.971V100.974ZM111.843 150.284C112.102 150.288 112.369 150.751 112.642 150.274C112.421 150.017 112.1 150.069 111.838 149.972C111.556 149.792 111.29 149.819 110.905 150.033C111.299 150.14 111.572 150.213 111.843 150.286V150.284ZM131.85 110.738L131.841 110.727C132.43 111.975 132.929 112.667 132.797 114.146C132.868 116.587 132.947 119.111 133.587 121.514C133.086 115.963 132.46 110.232 135.051 105.051C134.224 106.069 133.701 107.21 133.468 108.479C133.405 109.611 132.533 108.686 132.148 108.998C132.433 109.567 133.628 109.973 132.474 110.8C131.638 109.834 130.489 109.709 129.328 109.613C126.664 108.643 123.218 109.217 120.404 110.201C123.38 110.037 126.371 109.649 129.339 109.604C129.997 110.365 131.069 110.201 131.852 110.738H131.85ZM100.01 132.827C100.937 132.741 101.763 132.497 102.355 131.568C101.599 131.433 100.964 132.203 100.837 131.882C100.481 130.996 100.094 131.613 99.7302 131.704C98.0775 132.274 96.4044 132.759 94.663 132.966C93.5931 132.966 93.5498 134.274 94.6766 134.212C95.7647 134.592 99.2931 133.807 100.022 132.818L100.01 132.827ZM177.075 134.183C176.615 132.877 174.764 132.741 173.863 131.75C173.626 131.529 173.44 131.889 173.451 132.192C173.699 133.296 175.714 134.907 176.77 134.807C177.095 134.775 177.528 134.663 177.075 134.185V134.183ZM127.161 137.879C127.215 137.419 126.585 136.857 126.034 136.693C126.364 138.155 126.974 139.546 126.364 141.002C125.752 141.114 123.66 140.71 123.641 141.221C123.625 141.943 124.67 142.282 125.399 142.519C128.472 143.621 130.259 139.109 127.156 137.936L127.161 137.879ZM119.309 108.85C122.437 108.18 125.59 107.8 128.797 108.003C124.841 107.137 120.782 107.606 117.122 109.365C118.019 109.365 118.645 109.025 119.309 108.848V108.85ZM174.84 116.874C172.952 102.545 155.877 96.5685 146.446 108.369C142.724 112.783 139.713 119.377 142.21 125.024C142.626 125.885 142.21 126.823 142.674 127.78C143.343 129.158 144.543 130.329 146.091 130.292C146.551 130.625 147.02 130.502 147.489 130.322C152.29 129.372 157.268 130.203 162.089 130.611C164.081 130.823 166.082 130.964 168.035 131.458C168.359 131.54 168.634 131.426 168.641 131.012C169.303 131.06 169.672 130.468 170.228 130.285C170.585 130.488 170.778 130.233 170.986 130.012C174.43 126.687 176.06 121.559 174.837 116.874H174.84ZM140.691 145.566L140.687 145.562C143.134 148.644 145.504 151.709 146.364 155.677C146.428 155.937 146.446 156.215 146.813 156.208C147.161 157.452 147.78 155.903 147.496 155.324C146.801 151.397 144.944 148.104 142.014 145.423C141.381 144.721 141.199 144.849 140.309 145.234C140.386 145.402 140.489 145.541 140.691 145.569V145.566ZM123.418 158.987C124.921 160.155 127.941 160.276 129.631 159.235C130.054 159.107 130.473 158.886 130.352 158.397C130.243 157.957 129.797 157.789 129.346 157.843C127.705 158.046 126.063 157.932 124.422 157.839C123.623 157.759 122.795 158.11 123.418 158.989V158.987ZM105.021 153.985C106.6 150.894 108.483 148.01 111.142 145.496C110.443 145.371 110.151 145.623 109.835 145.808C107.358 145.676 102.967 154.133 103.839 156.322C104.288 155.436 104.654 154.709 105.021 153.985ZM118.665 152.099C119.191 152.135 119.767 152.042 120.234 152.229C126.514 154.657 133.284 152.634 139.005 149.685C130.357 152.197 121.661 152.468 112.876 150.407C113.901 151.124 115.018 151.279 116.17 151.461C116.689 151.791 117.377 151.589 117.966 151.698C118.173 151.876 118.299 152.199 118.665 152.101V152.099ZM77.9771 95.0106C78.3367 95.1723 78.6327 94.981 78.94 94.8352C84.0823 92.3707 89.4227 89.9222 95.3026 90.938C98.0662 91.7033 98.2346 88.5965 97.8226 86.6218C96.5911 82.4946 84.6173 86.6696 82.3454 88.904C80.3582 90.3435 78.7442 92.1384 77.5673 94.2999C77.4671 94.4821 76.8525 94.8192 77.5423 95.0903C77.688 95.0629 77.8336 95.0356 77.9793 95.0083L77.9771 95.0106ZM91.838 81.4013C90.3196 81.8318 88.7444 82.1119 87.4423 83.1141C88.7603 82.736 91.1186 82.5834 92.0474 81.6769C101.383 80.3535 110.491 82.3146 119.721 83.4854C131.288 84.1117 142.699 81.3603 154.3 82.0869C138.875 79.8661 123.07 81.6268 107.497 81.169C102.255 80.6815 97.0395 80.2123 91.8357 81.4013H91.838ZM106.876 125.73C107.684 125.131 107.347 124.204 107.506 123.429C108.553 118.004 105.867 112.683 102.662 108.49C91.3417 93.8079 70.0006 106.887 74.3531 123.739C75.4093 126.725 77.2805 130.14 80.4765 131.098C81.7172 131.748 83.1991 130.757 84.5376 130.775C89.8439 130.313 95.2389 129.784 100.552 130.272C103.921 131.076 106.464 129.151 106.88 125.73H106.876ZM155.037 85.0046C153.783 85.0319 151.709 84.8338 151.322 86.3917C151.088 87.9884 150.671 91.5166 153.225 91.0041C159.547 89.97 165.745 92.2158 171.102 95.4502C171.409 95.6324 171.814 95.9513 172.14 95.6392C169.444 89.0863 162.278 85.1048 155.04 85.0046H155.037ZM71.0819 100.14C82.2316 98.3793 93.3814 97.0218 104.672 98.771C99.8076 96.6619 73.7498 97.7484 71.0819 100.14ZM164.619 98.008C160.931 96.9398 149.319 96.876 145.372 98.4021C151.648 97.9625 158.215 97.5365 164.619 98.008ZM153.35 133.955C151.347 132.925 149.182 132.882 147.373 131.433C147.104 131.233 146.854 131.262 146.726 131.561C146.478 132.424 152.517 134.656 153.35 133.952V133.955ZM84.9883 101.128C82.7051 101.671 80.8066 102.825 79.4021 104.73C81.1503 103.356 83.0193 102.172 84.9883 101.128ZM165.176 101.532C166.877 102.814 168.591 104.08 170.339 105.299C168.996 103.518 167.23 102.324 165.176 101.532ZM177.246 126.78C175.857 126.926 175.04 128.024 173.922 128.595C173.751 128.682 173.417 128.707 173.574 129.046C174.368 129.843 176.811 127.595 177.246 126.78ZM75.3182 129.142C74.6148 127.778 73.1853 127.507 72.0129 126.841C72.7755 128.096 73.9615 128.741 75.3182 129.142ZM99.1338 90.2843C99.3295 88.8676 99.366 87.4736 98.9517 85.7859C98.2187 87.5442 98.3553 88.9359 99.1338 90.2843ZM173.738 130.101C174.66 131.023 176.458 130.932 177.726 129.937C176.335 129.534 175.092 129.898 173.738 130.101ZM75.5527 132.174C74.6809 133.123 73.4402 133.426 72.4204 134.096C72.2337 134.219 71.9856 134.347 72.104 134.618C72.2428 134.93 72.491 134.722 72.6845 134.661C73.9797 134.26 75.0382 133.561 75.5504 132.174H75.5527ZM148.158 104.607C149.415 103.495 150.805 102.566 152.098 101.516C150.261 102.06 148.834 103.153 148.158 104.607ZM150.123 89.9131C150.73 88.7765 150.71 86.9498 150.084 86.2277C149.972 87.4622 149.676 88.6763 150.123 89.9131ZM71.5076 130.026C72.5206 130.622 73.809 130.698 75.1111 130.235C73.9752 130.201 72.8893 129.611 71.5076 130.026ZM149.003 87.1616C148.484 88.4576 148.495 88.6626 149.128 89.2092C149.324 88.5745 149.282 87.892 149.003 87.1616ZM100.133 87.1684C99.7052 88.2913 99.7074 88.4371 100.179 89.2935C100.636 88.5738 100.47 87.8813 100.133 87.1684ZM171.539 98.7756C170.485 98.6048 169.429 98.4317 168.375 98.2608C169.41 98.5729 170.437 98.9487 171.539 98.7756ZM105.378 99.0535C106.364 99.3837 107.349 99.7163 108.337 100.047C107.486 99.3336 106.509 99.0079 105.378 99.0535ZM109.764 100.6C109.421 100.422 109.2 99.9304 108.654 100.17C109.002 100.457 109.339 100.641 109.764 100.6ZM78.8944 105.258C78.9673 105.174 79.0287 105.101 79.0902 105.028C78.9263 104.848 78.7009 105.064 78.8944 105.258Z" fill="#E0B48F"/>
<path d="M74.8374 215.315C77.528 214.354 82.1559 212.192 79.743 208.823C79.3537 208.24 79.3446 207.942 79.9114 207.47C83.9816 204.366 80.863 199.599 81.2659 195.517C81.5982 192.203 78.3498 189.77 79.2057 186.297C79.6337 185.379 76.5037 182.17 79.0692 182.322C83.7585 182.648 84.2115 182.673 87.2346 178.995C89.2401 176.979 85.9188 176.255 86.777 174.284C87.1139 173.499 86.604 173.025 85.8323 172.856C82.8002 170.13 80.0822 172.902 77.2481 173.385C76.4695 173.517 76.1622 174.371 75.8321 175.054C70.1844 173.289 75.3222 179.894 72.907 179.234C70.1435 178.591 67.4824 179.746 64.8213 180.231C64.1634 180.471 64.0336 180.152 63.938 179.646C62.6519 172.813 61.3521 165.982 60.0841 159.144C59.3443 155.776 63.4418 155.204 65.8798 154.815C67.0681 154.53 65.5565 158.523 69.8589 157.546C73.4283 156.723 77.009 156.029 80.6421 155.541C84.9445 155.047 82.4792 151.913 83.8541 151.396C86.2352 150.762 90.1711 149.872 90.6378 153.275C91.8966 159.536 93.0553 165.818 94.2231 172.098C94.2982 172.496 94.4507 172.859 93.9544 173.177C88.828 176.614 91.9421 184.06 96.0874 186.923C96.4016 187.142 96.6975 187.32 96.7931 187.748C98.0292 193.312 99.6704 198.781 100.617 204.412C101.155 208.935 100.287 210.946 95.6891 212.046C91.9376 213.053 88.0586 213.329 84.2502 214.008C81.1042 214.376 77.997 215.42 74.8374 215.315ZM67.6121 165.857C68.3041 166.394 67.8693 167.611 68.6661 167.674C69.2192 167.392 68.1539 165.142 68.1152 164.49C68.1243 163.85 67.3003 163.841 67.2388 164.49C67.1409 165.183 67.0157 165.871 66.8609 166.798C66.3988 166 66.0551 165.424 65.7318 164.836C65.5839 164.568 65.4086 164.429 65.099 164.54C64.4548 164.973 65.2857 167.087 65.2151 167.895C65.247 168.148 65.3175 168.351 65.618 168.296C66.1256 168.221 65.5839 166.77 65.6408 166.251C66.3647 166.736 66.3601 168.03 67.0498 167.902C67.6394 167.795 67.4209 166.661 67.6121 165.855V165.857ZM78.5388 164.677C78.1632 164.176 78.0084 162.994 77.4598 163.16C77.091 163.317 77.3437 163.595 77.4507 163.821C77.8558 164.333 78.0015 165.713 78.6822 165.663C79.3605 165.581 78.9508 164.638 79.208 164.124C79.7931 164.379 79.6633 165.545 80.3576 165.303C81.0132 165.076 80.5921 164.155 80.7605 163.565C80.7992 163.26 81.0428 162.661 80.5852 162.591C80.3576 162.561 80.2461 162.725 80.2301 162.932C80.2005 163.319 80.1869 163.709 80.1641 164.153C79.5677 163.805 79.6223 162.784 79.0714 162.909C78.3999 163.064 78.7254 163.937 78.5342 164.677H78.5388ZM86.2671 163.365C86.2398 162.9 86.1806 162.424 85.8983 161.992C85.2951 161.069 84.644 161.935 84.018 161.916C83.7289 161.907 83.5719 161.989 83.631 162.283C83.9179 162.964 83.9452 165.492 84.5871 165.604C84.6804 165.577 84.8307 165.447 84.8193 165.41C84.3117 163.811 86.3923 165.051 86.2694 163.365H86.2671ZM73.9336 166.631C73.2856 165.52 73.0891 164.642 73.3441 163.998C72.545 163.837 72.6315 164.761 72.1194 164.987C71.8735 164.463 72.1103 163.035 71.3613 163.101C70.8036 163.538 71.812 165.841 71.8052 166.647C71.7802 166.975 72.3607 167.128 72.4085 166.8C72.4267 165.037 73.2302 167.237 73.9336 166.631ZM82.4701 162.982C81.7985 163.324 80.9586 163.88 81.5117 164.711C81.9647 165.502 82.5543 164.832 83.071 164.839C84.2206 165 82.593 160.32 81.3433 162.846C81.6916 163.042 82.1081 162.42 82.4678 162.985L82.4701 162.982ZM70.3278 165.431C69.1783 165.741 68.5386 166.968 69.8794 167.499C72.4722 167.859 70.5487 162.72 69.0827 165.317C69.4765 165.442 69.8657 164.868 70.3278 165.431ZM75.1902 165.98C76.9863 167.235 78.3976 164.299 76.3329 163.969C75.4042 163.946 75.2653 162.848 76.2783 162.871C76.4718 162.871 76.6972 162.862 76.7017 162.618C76.5788 161.885 74.9216 162.52 74.9785 163.263C74.6325 164.884 76.7086 164.087 76.7313 165.142C76.5788 165.996 75.8299 165.543 75.1902 165.978V165.98ZM74.8556 166.062C74.637 165.552 74.8009 163.693 74.0862 163.798C73.4943 164.308 74.2956 165.529 74.2888 166.244C74.3479 166.743 75.0809 166.481 74.8533 166.064L74.8556 166.062Z" fill="#FEFEFE"/>
<path d="M57.9766 197.464C58.2839 193.209 56.8361 185.306 61.5801 182.889C63.8792 181.723 66.4197 181.484 68.9078 181.076C70.3123 180.846 71.7123 180.5 73.176 180.789C75.812 181.308 77.533 183.438 77.4624 186.135C77.4397 186.993 76.8933 187.326 76.2537 187.59C72.2836 188.854 68.0427 189.212 63.9065 189.59C62.7365 189.599 61.8692 190.622 63.408 191.064C67.3006 191.585 71.15 189.861 74.9948 189.348C77.1938 188.909 77.6878 189.153 78.5778 191.175C79.2357 192.672 79.6682 194.232 79.559 195.888C79.4884 196.956 79.1082 197.694 77.8699 197.935C73.6813 198.749 69.5406 199.84 65.2382 199.917C64.8535 199.924 64.5052 200.058 64.4369 200.414C65.0311 203.304 76.479 199.416 78.9648 199.218C79.5612 199.088 79.8276 199.236 80.0712 199.803C83.3241 207.374 73.176 208.272 68.1224 209.215C67.7377 209.306 67.1504 209.272 67.2232 209.825C67.8379 211.239 70.1051 210.378 71.3025 210.262C73.4674 210.051 75.8712 208.329 77.945 209.456C78.8601 210.069 78.9148 211.128 78.0429 211.795C74.0478 214.633 69.0967 215.758 64.2776 215.979C57.3096 215.843 58.3795 202.612 57.9766 197.464Z" fill="#E0B48F"/>
<path d="M140.658 173.059C140.829 174.155 140.472 175.127 139.996 176.102C131.623 193.294 122.987 210.409 116.547 228.451C116.192 229.453 115.825 229.831 114.646 229.384C111.753 228.289 108.794 227.366 105.846 226.423C105.16 226.205 105.058 225.993 105.374 225.328C107.109 221.911 139.598 151.683 140.658 173.061V173.059Z" fill="#464546"/>
<path d="M184.782 101.846C185.829 99.1264 190.086 94.4981 186.69 92.1065C171.706 84.2575 155.296 79.1578 138.571 76.9552C139.024 76.7047 139.66 77.0304 140.051 76.4655C138.69 76.3129 137.34 76.0259 136.008 76.2696C133.031 76.8117 129.985 76.4518 127.014 77.0213C126.657 76.7115 126.224 76.8482 125.826 76.8459C123.015 76.9803 120.055 76.5202 117.324 77.0053C113.777 76.5384 110.233 75.9621 106.659 76.7024C109.013 76.8186 111.369 76.8664 113.702 77.2468C95.8072 79.1532 78.2131 84.0617 61.8663 91.6988C59.1005 92.6782 63.6783 100.085 64.1086 101.928C62.2101 103.172 60.3525 104.458 58.9685 106.545C57.9077 102.488 57.8781 98.6435 57.7256 94.5482C61.8185 85.8314 96.4628 75.7731 106.729 74.6775C135.516 70.1563 165.658 75.5134 189.938 92.1225C192.954 93.5073 190.557 103.598 190.182 106.492C189.881 106.549 189.902 105.985 189.542 106.203L189.558 106.21C189.669 105.802 189.546 105.55 189.096 105.515L189.105 105.527C188.823 103.83 186.027 102.919 184.782 101.846Z" fill="#BE8667"/>
<path d="M150.42 212.285C140.573 205.22 145.89 192.253 147.331 182.511C148.492 177.545 152.975 175.821 152.783 169.974C153.041 166.278 152.053 162.21 153.878 158.793C155.426 156.222 158.265 155.841 160.352 157.996C162.242 159.946 162.781 162.506 163.446 165.041C164.714 169.983 162.087 174.275 160.612 178.766C160.252 179.835 160.519 180.279 161.638 180.377C164.363 180.816 167.184 180.29 169.802 181.219C165.816 182.868 161.654 183.253 157.425 183.231C153.901 183.262 152.421 187.975 153.985 190.731C154.295 191.31 153.997 191.535 153.73 191.888C150.348 195.847 154.593 197.207 152.31 200.204C151.365 201.493 151.77 203.14 151.952 204.632C152.064 205.534 152.048 206.299 151.52 207.099C150.434 208.679 150.946 210.474 150.423 212.287L150.42 212.285Z" fill="#E0B48F"/>
<path d="M146.543 179.89C145.908 182.284 144.685 184.27 143.142 186.265C133.768 198.38 130.469 211.73 135.694 226.592C135.926 227.255 135.844 227.467 135.179 227.669C133.64 228.544 115.518 231.43 117.455 228.186C123.205 211.994 130.815 196.57 138.43 181.2C141.196 181.213 143.804 180.125 146.545 179.888L146.543 179.89Z" fill="#F3F3F3"/>
<path d="M165.239 161.474C165.483 160.483 166.434 160.133 167.099 159.595C171.688 155.477 175.051 148.906 174.504 142.674C174.076 140.891 169.594 142.71 168.126 142.401C159.935 142.802 151.333 142.941 144.037 138.558C143.268 138.096 142.307 137.734 142.077 136.668C142.476 136.638 142.774 137.1 143.206 136.902L143.202 136.898C143.147 137.11 143.284 137.128 143.436 137.13L143.427 137.123C143.489 137.385 143.673 137.399 143.889 137.356L143.882 137.351C143.937 137.624 144.135 137.618 144.344 137.583L144.335 137.579C144.392 137.85 144.59 137.843 144.8 137.811L144.791 137.807C150.438 141.305 171.468 142.225 176.842 138.269C176.986 138.269 177.127 138.264 177.061 138.053L177.072 138.043C177.516 138.26 177.691 137.825 177.985 137.586L177.967 137.602C178.101 137.574 178.279 137.586 178.208 137.356L178.19 137.369C178.558 137.417 178.879 137.392 178.889 136.9L178.873 136.914C179.132 137.039 179.26 136.896 179.348 136.677L179.332 136.691C179.763 136.738 180.377 135.613 180.63 137.308C180.73 135.912 181.493 135.267 181.884 134.429C182.146 134.174 182.424 133.928 182.289 133.502L182.299 133.49C182.503 133.55 182.522 133.422 182.517 133.269L182.522 133.263C182.772 133.199 182.806 133.026 182.749 132.807L182.745 132.814C182.913 132.862 182.963 132.752 182.995 132.623C186.847 126.764 188.693 119.772 190.186 112.964C190.362 112.096 190.423 111.23 191.518 111C191.925 110.898 191.186 110.096 192.285 110.044C192.818 109.315 191.985 107.839 193.319 107.764C195.463 108.764 197.589 110.169 196.722 112.788C196.708 113.854 196.339 114.672 195.743 115.549C193.719 117.886 185.845 125.434 188.702 128.318C190.059 130.231 189.697 131.372 187.58 132.345C186.014 133.062 185.527 132.823 185.738 135.529C185.761 136.426 185.342 137.602 186.118 138.123C187.113 138.793 187.853 137.62 188.67 137.16C188.845 138.262 189.617 138.822 190.548 139.242C187.994 140.79 182.779 144.767 180.309 141.458C180.211 141.478 180.113 141.501 180.015 141.522C181.17 151.263 173.626 158.21 165.235 161.474H165.239Z" fill="#BE8667"/>
<path d="M67.519 134.613C68.7665 136.7 68.6071 139.034 68.6732 141.321C68.6322 144.617 60.419 140.986 59.0896 139.763C59.06 138.629 60.4964 138.244 60.4691 137.126C61.284 137.693 63.0983 139.274 63.269 137.347C63.1985 135.873 64.175 133.75 62.5383 132.86C59.2057 131.167 59.1966 131.119 60.6853 127.739C61.4411 126.026 61.3068 125.427 59.7315 124.008C60.9312 125.724 60.3484 127.206 59.4606 128.821C58.22 130.828 60.0616 132.623 62.0056 133.201C63.5832 133.962 62.7728 136.34 62.6658 137.734C61.6232 137.7 61.1497 136.657 60.2392 136.436C59.8749 135.572 59.1374 135.08 58.3953 134.595C58.3589 134.249 58.2496 133.939 57.9582 133.721L57.9628 133.725C56.9338 131.486 55.1218 129.659 54.7599 127.168C53.1801 124.248 54.3775 121.59 55.4633 118.708C56.8177 120.337 58.0265 121.79 59.233 123.241C57.5667 120.389 55.2584 116.326 52.3993 114.847C51.7073 114.207 52.3378 113.483 52.3219 112.811C52.2695 110.805 52.875 109.03 54.7462 107.937C54.9693 107.807 55.2266 107.691 55.2243 107.365C58.3042 108.361 54.8282 110.622 58.1676 111.203C59.151 113.818 59.5722 116.62 60.6899 119.171L60.683 119.157C60.658 119.423 60.6079 119.699 60.9175 119.854L60.9107 119.84C61.9806 124.753 63.7675 129.602 66.6995 133.784C66.8361 133.978 66.9431 134.283 67.2959 134.178L67.2868 134.167C67.1685 134.424 67.2481 134.582 67.5259 134.634L67.519 134.613Z" fill="#BE8667"/>
<path d="M113.441 182.996C113.57 183.062 113.773 183.092 113.821 183.196C115.212 186.135 117.242 188.713 118.576 191.681C119.471 193.483 119.801 195.161 118.697 197.088C115.05 203.354 112.366 210.39 108.478 216.383C112.05 205.062 108.28 193.681 105.799 182.597C108.389 182.224 110.871 183.267 113.438 182.994L113.441 182.996Z" fill="#F3F3F3"/>
<path d="M113.688 169.196C113.481 168.868 113.273 168.542 112.971 168.062C120.801 168.756 128.402 168.758 136.486 168.071C131.721 173.373 129.069 179.826 124.901 185.311C124.355 185.001 124.314 184.338 123.884 183.98L123.893 184.005C123.865 183.873 123.845 183.734 123.654 183.766L123.663 183.775C123.164 182.331 122.329 181.085 121.386 179.901H121.389C121.159 179.261 120.929 178.623 120.253 178.302L120.257 178.309C120.344 177.919 120.276 177.635 119.8 177.621L119.804 177.628C119.477 176.168 118.341 175.2 117.571 174.009C117.339 173.649 117.218 173.088 116.617 173.07L116.622 173.077C116.67 172.565 116.463 172.243 115.937 172.161L115.941 172.168C116.085 171.902 115.925 171.792 115.707 171.71C115.614 171.348 115.516 170.988 115.026 171.023L115.033 171.032C115.183 170.761 115.013 170.658 114.799 170.574C114.623 170.141 114.471 169.686 113.89 169.658L113.897 169.667C114.05 169.396 113.863 169.298 113.663 169.209L113.692 169.198L113.688 169.196Z" fill="#BE8667"/>
<path d="M167.379 201.546C164.171 201.592 161.059 201.072 158.068 199.922C155.179 199.07 152.35 195.405 154.931 192.741C155.487 192.205 156.156 192.28 156.746 192.474C163.035 194.524 169.475 193.237 175.879 192.893C177.638 192.795 178.046 197.332 177.8 198.688C177.313 201.519 169.742 201.343 167.381 201.546H167.379Z" fill="#E0B48F"/>
<path d="M123.886 183.98C125.033 187.984 121.965 190.72 120.31 193.956C117.134 188.832 114.787 182.985 111.129 178.038C110.895 177.7 110.801 177.14 110.191 177.197L110.228 177.195C110.273 176.828 110.271 176.498 109.763 176.509L109.777 176.514C109.781 176.288 109.747 176.088 109.465 176.061C108.948 175.842 109.03 175.165 108.634 174.908L108.639 174.933C108.645 174.821 108.707 174.657 108.655 174.603C107.646 173.56 108.306 172.683 108.869 171.742C109.429 170.808 109.845 169.785 110.605 168.984C112.274 167.054 112.233 169.047 113.69 169.193L113.66 169.205C113.599 169.43 113.649 169.596 113.895 169.662L113.888 169.653C113.922 170.225 114.188 170.567 114.796 170.569C114.735 170.794 114.783 170.961 115.031 171.027L115.024 171.018C115.015 171.482 115.201 171.751 115.705 171.706C115.643 171.929 115.686 172.1 115.939 172.163L115.934 172.157C115.898 172.66 116.199 172.913 116.62 173.072C117.482 174.676 118.452 176.322 119.802 177.623L119.797 177.616C119.754 177.976 119.889 178.218 120.255 178.304L120.25 178.297C120.378 179.008 120.635 179.63 121.386 179.896H121.384C121.746 181.422 122.504 182.711 123.661 183.771L123.651 183.761C123.674 183.898 123.738 183.994 123.89 184.001L123.881 183.976L123.886 183.98Z" fill="#464546"/>
<path d="M57.9585 133.723C58.2499 133.942 58.3591 134.252 58.3955 134.598C58.2863 134.673 57.8902 134.614 58.1292 134.851C58.7939 135.743 59.816 136.242 60.4671 137.128C60.4944 138.249 59.0557 138.632 59.0876 139.766C50.1664 133.445 44.5187 121.357 48.2315 110.67C49.4493 107.295 52.1173 106.085 55.2223 107.368C55.2223 107.694 54.9673 107.81 54.7442 107.94C52.873 109.035 52.2675 110.809 52.3199 112.814C51.8168 114.682 52.2288 114.638 53.4034 116.073C57.1731 120.399 50.4464 122.658 54.9855 128.248C55.5523 130.307 57.18 131.787 57.9608 133.73C57.4281 133.798 57.2733 133.044 56.6427 133.154C56.7247 133.705 57.1185 134.028 57.5055 134.238C58.1542 134.591 57.8834 133.974 57.9562 133.725L57.9585 133.723Z" fill="#E0B48F"/>
<path d="M165.448 192.192C161.829 192.121 153.54 192.413 155.204 186.76C155.598 185.265 156.238 184.666 157.761 184.716C162.628 184.876 167.274 183.755 171.863 182.332C175.533 181.835 177.395 187.45 176.589 190.379C175.33 192.078 167.713 192.199 165.448 192.192Z" fill="#E0B48F"/>
<path d="M196.624 114.025C197.229 110.36 196.765 109.413 193.319 107.768C203.861 101.525 206.686 128.108 190.553 139.242C189.622 138.822 188.85 138.262 188.675 137.16C189.656 136.167 190.637 135.174 191.62 134.178C192.114 133.757 192.754 133.449 192.9 132.525C192.265 132.905 191.862 133.263 191.598 133.77C190.084 134.24 193.223 130.921 192.984 130.299C193.137 130.19 193.234 130.053 193.214 129.855L193.207 129.866C200.544 120.15 188.871 121.293 198.32 113.538C197.482 113.431 197.157 114.02 196.622 114.023L196.624 114.025Z" fill="#E0B48F"/>
<path d="M164.393 210.325C160.161 210.409 149.74 205.653 154.233 200.091C154.579 199.715 154.839 199.519 155.358 199.897C161.604 204.391 169.294 202.754 176.373 202.091C178.065 201.517 176.03 206.774 175.636 207.375C174.438 209.43 167.354 210.097 164.39 210.325H164.393Z" fill="#E0B48F"/>
<path d="M103.711 196.564C102.88 192.273 102.561 187.795 97.9721 186.11C94.4027 184.616 90.6103 177.486 94.5553 174.776C97.5988 174.008 98.7484 178.413 101.321 179.416C106.563 183.119 106.163 191.287 103.711 196.564Z" fill="#E0B48F"/>
<path d="M106.846 136.909C100.916 143.348 85.1518 143.187 76.925 141.984C75.3611 141.747 74.6463 141.733 74.7875 143.829C74.9878 145.35 74.0841 148.405 76.2011 148.778C74.5189 148.785 70.3644 150.933 69.7885 148.696C68.0926 144.852 70.2529 140.79 68.9189 136.946C76.579 140.945 80.5444 141.043 89.1264 140.804C95.2635 140.868 101.367 139.768 106.841 136.911L106.846 136.909Z" fill="#BE8667"/>
<path d="M166.419 216.739C162.276 216.597 158.643 215.582 155.053 214.363C151.429 214.037 151.597 210.067 153.025 207.546C153.364 206.91 153.666 207.3 153.985 207.557C155.911 209.115 157.978 210.418 160.393 211.088C163.387 211.919 166.394 211.634 169.399 211.192C170.343 211.313 173.778 209.707 173.403 211.432C173.221 214.857 169.619 216.786 166.417 216.739H166.419Z" fill="#E0B48F"/>
<path d="M108.857 175.228C109.026 175.761 109.497 176.048 109.775 176.514L109.761 176.51C109.811 176.811 109.927 177.063 110.225 177.196L110.189 177.198C110.983 179.28 112.707 180.981 113.44 182.995C110.872 183.268 108.391 182.225 105.8 182.598C104.619 180.109 102.966 178.07 100.355 176.97C99.3283 176.444 98.9982 175.214 100.448 175.216C103.1 174.569 106.233 173.036 108.632 174.911C108.707 175.018 108.782 175.125 108.857 175.23V175.228Z" fill="#BE8667"/>
<path d="M146.543 179.89C143.802 180.126 141.194 181.215 138.428 181.201C142.395 172.794 140.151 172.678 149.557 175.653C148.508 177.127 147.526 178.507 146.543 179.89Z" fill="#BE8667"/>
<path d="M106.845 136.91C101.371 139.768 95.2677 140.868 89.1306 140.802C80.5532 141.044 76.5672 140.937 68.9231 136.944C68.9118 136.548 68.8981 136.151 68.8867 135.755C77.8101 142.501 90.2574 140.775 100.556 138.93C107.342 137.497 113.565 130.96 114.546 124.631C114.947 124.241 114.451 123.414 115.236 123.214C114.908 128.676 111.098 133.384 107.103 136.714C107.018 136.778 106.932 136.844 106.848 136.907L106.845 136.91Z" fill="#464546"/>
<path d="M75.8391 180.006C73.9133 179.842 74.0658 177.904 73.8177 176.491C73.2599 175.535 74.3207 175.104 75.1243 175.532C77.9948 177.828 77.1207 180.099 78.8985 175.163C79.4198 174.088 80.8949 174.036 80.7128 175.466C80.6582 176.366 82.2494 180.464 81.0019 180.348C79.5769 180.935 79.8842 178.801 79.5109 177.908C79.0875 178.252 79.0237 178.753 78.8234 179.177C77.6215 182.247 76.0326 176.892 75.8391 180.006Z" fill="#F3F3F3"/>
<path d="M83.7791 179.917C83.5924 179.881 83.1895 179.799 82.7843 179.728C82.1629 179.619 82.4497 179.239 82.4793 178.876C82.5157 178.446 82.6113 178.268 83.0803 178.352C83.77 178.466 85.3339 178.844 85.4249 177.82C85.0334 177.011 83.2965 177.656 82.5112 176.965C79.948 175.407 83.7928 172.854 85.5388 173.419C85.9303 173.517 86.2535 173.617 86.1693 174.146C86.167 175.273 84.9128 174.779 84.1729 174.918C83.3398 174.872 83.2692 175.956 84.1684 175.82C85.9394 175.681 88.4616 177.173 86.595 178.949C85.8825 179.655 84.9833 179.888 83.7814 179.917H83.7791Z" fill="#F3F3F3"/>
<path d="M192.282 110.048C191.923 110.021 191.706 110.199 191.595 110.527C190.388 111.055 189.189 110.83 187.989 110.488C184.941 107.477 192.783 107.028 192.28 110.048H192.282Z" fill="#E0B48F"/>
<path d="M57.303 108.52C58.2386 107.809 59.4087 108.076 60.4558 108.311C60.9042 108.475 61.6099 108.352 61.6418 109.083C61.6828 111.547 55.8643 111.37 57.303 108.52Z" fill="#E0B48F"/>
<path d="M62.7157 103.662C62.5563 105.282 62.3993 106.899 62.2399 108.518C61.6412 107.505 60.6647 107.814 59.7769 107.812C57.9193 107.275 61.862 103.954 62.7157 103.662Z" fill="#BE8667"/>
<path d="M77.3498 152.958C74.5589 153.545 72.3804 154.051 69.7284 154.445C69.5327 154.477 69.3324 154.459 69.3301 154.194C69.3301 154.005 69.494 153.98 69.6442 153.953C72.0526 153.504 74.4633 153.053 76.874 152.609C76.9218 152.6 76.9856 152.686 77.3521 152.955L77.3498 152.958Z" fill="#E0B48F"/>
<path d="M79.434 173.626C78.314 174.216 78.1843 175.389 77.7836 176.368C77.4604 177.152 77.2168 176.863 76.8913 176.45C75.8601 174.906 77.943 173.401 79.434 173.626Z" fill="#BE8667"/>
<path d="M84.1388 172.788C83.1281 173.205 82.2676 173.49 81.628 174.175C80.7311 174.981 80.6878 172.847 81.5233 172.717C82.345 172.337 83.1645 172.255 84.1388 172.788Z" fill="#BE8667"/>
<path d="M59.7774 107.811C61.8398 107.586 62.6775 108.062 62.0265 110.269C61.4482 110.786 60.7426 111.014 59.9982 111.148C59.9982 111.007 60.0005 110.866 60.0027 110.725C60.8177 110.444 61.7419 110.096 61.6417 109.082C61.5939 108.196 60.1234 108.319 59.4883 108.142C59.5839 108.032 59.6818 107.923 59.7774 107.811Z" fill="#464546"/>
<path d="M84.548 180.472C83.7535 181.784 83.0957 181.989 81.9279 181.356C81.7799 181.276 81.4908 181.283 81.5591 181.03C82.201 180.187 82.7679 180.358 84.5503 180.474L84.548 180.472Z" fill="#BE8667"/>
<path d="M79.1779 179.965C79.4897 180.537 79.5808 181.043 80.1931 181.202C78.7772 181.981 78.026 181.919 77.0039 180.924C77.8462 180.81 78.7453 180.954 79.1779 179.963V179.965Z" fill="#BE8667"/>
<path d="M65.2422 101.696C66.8106 101.008 68.3904 100.361 70.1432 100.268C68.5111 100.889 66.8334 101.384 65.2217 102.053C65.2285 101.935 65.2353 101.814 65.2422 101.696Z" fill="#464546"/>
<path d="M190 108.001C188.307 107.837 186.087 108.771 187.993 110.488C187.911 110.57 187.829 110.654 187.747 110.736C187.342 110.565 187.121 110.249 187.027 109.832C186.665 107.406 188.222 108.08 189.959 107.481C189.973 107.655 189.989 107.828 190.003 107.998L190 108.001Z" fill="#464546"/>
<path d="M57.3023 108.52C56.8857 109.545 57.0906 110.32 58.1923 110.732C58.1832 110.889 58.1764 111.046 58.1673 111.203C56.5556 110.818 56.4304 110.595 56.6421 108.461C56.8629 108.481 57.0815 108.5 57.3023 108.52Z" fill="#464546"/>
<path d="M115.469 168.28C115.25 168.26 115.034 168.239 114.815 168.219C114.804 168.107 114.793 167.995 114.781 167.884C115.016 167.895 115.25 167.909 115.485 167.92C115.48 168.041 115.476 168.159 115.469 168.28Z" fill="#464546"/>
<path d="M164.779 161.652C164.932 161.593 165.084 161.534 165.237 161.475C165.169 161.752 164.968 161.686 164.779 161.652Z" fill="#BE8667"/>
<path d="M124.105 40.6532C123.709 33.1026 123.695 25.0555 124.178 17.4707C124.553 24.9598 124.119 32.9773 124.519 40.6509C124.38 40.6509 124.244 40.6509 124.105 40.6509V40.6532Z" fill="#BE8667"/>
<path d="M181.896 31.7314C184.211 36.2254 186.596 40.7648 190.664 43.9536C185.909 41.193 183.412 36.8084 181.896 31.7314Z" fill="#464546"/>
<path d="M65.1578 33.6152C66.0001 36.6696 62.2646 43.1998 59.7787 45.3044C59.4691 45.5003 59.1118 46.1904 58.7225 45.9376C58.4744 45.6734 58.7134 45.5253 58.9388 45.3317C62.4603 42.3707 63.8808 37.8632 65.1578 33.6175V33.6152Z" fill="#464546"/>
<path d="M124.687 45.623C124.942 47.5067 124.687 49.3949 124.699 51.2854C124.043 49.4405 124.034 47.5363 124.218 45.6162C124.375 45.6162 124.533 45.6208 124.69 45.623H124.687Z" fill="#E0B48F"/>
<path d="M124.688 45.6236C124.531 45.6236 124.374 45.619 124.217 45.6168C124.181 43.9631 124.142 42.3073 124.105 40.6514C124.244 40.6514 124.381 40.6514 124.52 40.6514C124.599 42.3073 124.383 43.9745 124.688 45.6236Z" fill="#464546"/>
<path d="M142.21 125.024C137.86 113.697 151.518 98.2563 163.421 102.803C163.366 103.017 163.382 103.338 163.246 103.424C161.896 104.292 161.063 105.666 160.018 106.814C157.6 109.221 155.861 112.212 153.457 114.635C151.113 114.515 148.522 113.301 148.226 116.685C147.896 118.942 150.275 117.325 150.494 118.507C149.214 120.922 145.59 118.478 146.895 122.589C146.942 122.801 147.079 123.004 146.956 123.231L146.904 123.206L146.86 123.245C144.6 118.024 146.004 111.651 149.433 107.208C149.499 107.123 149.547 107.012 149.292 106.852C144.131 111.408 141.502 118.104 142.212 125.019L142.21 125.024Z" fill="#191818"/>
<path d="M102.88 130.295C100.52 130.582 98.1157 129.844 95.7096 130.058C95.5252 129.842 95.1132 130.013 95.0176 129.646C96.3333 129.43 98.1271 129.726 98.9307 128.423C103.272 123.28 104.062 115.328 100.515 109.543C100.071 108.814 99.5726 107.914 98.5733 109.024C97.8653 109.283 97.0663 108.969 96.6224 109.844C94.4804 109.356 92.9392 110.942 91.8489 112.618C90.1438 110.864 84.9878 113.996 82.2402 112.033C84.3391 109.062 87.0867 106.452 89.14 103.382C89.4587 102.942 90.1461 102.81 90.2212 102.143C97.3099 102.111 103.051 107.222 105.68 113.493C105.514 113.663 105.346 113.836 105.179 114.007C104.002 111.55 102.564 109.279 100.458 107.495C100.087 106.976 99.773 106.375 98.867 106.375C104.679 112.643 104.822 123.1 98.7645 129.368C99.3404 129.455 99.7661 129.457 100.149 129.587C101.045 129.89 102.102 129.566 102.88 130.297V130.295Z" fill="#464546"/>
<path d="M82.2403 112.032C85.0243 114 90.1325 110.861 91.8489 112.618C91.833 113.506 91.8148 114.392 91.7989 115.28C89.049 114.109 86.7111 116.836 87.089 119.537C84.8445 119.749 83.8247 121.264 84.5395 123.323C83.8497 123.879 83.4309 125.361 82.4111 125.168C80.7311 124.498 80.055 126.726 81.8784 127.031C81.9011 127.038 81.8898 127.161 81.8943 127.22C81.587 127.516 81.0429 127.12 80.5717 127.833C82.1379 129.151 83.7587 131.144 85.9781 130.028C88.3706 129.805 90.7859 129.867 93.167 129.475C93.7634 129.762 94.4099 129.53 95.0222 129.648C95.1178 130.015 95.5321 129.842 95.7142 130.06C91.9901 130.343 88.2454 130.272 84.5372 130.778C83.1964 130.762 81.7213 131.75 80.4761 131.101C81.1044 130.634 81.9239 130.78 82.6455 130.427C79.2583 127.17 77.0183 123.059 77.0957 118.289C79.2901 116.811 80.3213 113.893 82.2426 112.034L82.2403 112.032Z" fill="#BE8667"/>
<path d="M82.2399 112.032C80.321 113.891 79.2875 116.811 77.093 118.287C77.0612 113.852 78.3769 109.866 81.3044 106.479C81.1154 106.377 80.9788 106.424 80.8878 106.616C76.269 109.857 75.0557 115.701 74.5867 120.974C74.045 121.293 74.5162 121.951 74.136 122.325C72.0531 112.772 80.2345 101.641 90.221 102.142C90.1481 102.81 89.4584 102.942 89.1397 103.381C87.0864 106.452 84.3365 109.062 82.2399 112.032Z" fill="#191818"/>
<path d="M156.605 111.096C157.451 109.44 158.797 108.158 160.017 106.814C161.059 105.666 161.893 104.292 163.245 103.425C163.381 103.338 163.365 103.015 163.42 102.803C167.811 104.263 171.592 107.461 173.252 111.838C173.026 111.85 172.801 111.863 172.573 111.875C171.142 109.798 170.001 107.456 167.615 106.231C170.643 110.331 173.006 114.831 171.834 120.134C171.488 120.138 171.335 119.952 171.415 119.633C171.74 118.353 171.574 117.084 171.349 115.82C170.953 113.85 170.782 111.046 169.261 109.718C168.59 110.308 167.417 110.087 167.053 111.114C164.704 108.506 161.731 108.832 159.94 111.891C158.478 110.565 156.427 112.72 156.602 111.096H156.605Z" fill="#464546"/>
<path d="M187.024 109.832C187.231 110.618 188.178 111.245 188.949 111.295C189.787 111.297 189.796 111.664 189.685 112.365C188.622 119.565 185.61 126.22 182.744 132.817L182.749 132.81C182.51 132.88 182.45 133.04 182.521 133.265L182.516 133.272C182.323 133.227 182.287 133.336 182.298 133.493C182.018 133.555 181.893 133.746 181.806 133.994C181.11 135.012 179.983 135.634 179.332 136.691C179.175 136.529 178.936 136.705 178.872 136.914L178.888 136.901C178.567 136.926 178.337 137.087 178.189 137.37L178.207 137.356C178.057 137.37 177.918 137.395 177.966 137.602L177.984 137.586C177.636 137.627 177.187 137.611 177.071 138.044L177.06 138.053C176.907 138.046 176.757 138.039 176.841 138.269L176.832 138.276C175.528 138.21 174.435 139.037 173.172 139.14C176.436 136.689 179.573 134.165 181.387 130.225C184.939 123.943 186.505 116.898 187.026 109.83L187.024 109.832Z" fill="#BE8667"/>
<path d="M59.9971 111.149C60.7415 111.014 61.4472 110.787 62.0254 110.27C63.1408 117.009 64.0514 123.776 67.557 129.817C68.2399 130.926 67.0471 131.776 66.5235 132.668C63.8988 128.774 62.8449 124.006 60.9122 119.84L60.919 119.854C60.9373 119.59 61.042 119.294 60.6846 119.157L60.6914 119.171C60.9532 117.945 58.0258 110.912 59.9971 111.149Z" fill="#BE8667"/>
<path d="M81.073 106.789C75.2227 113.597 75.8692 124.491 82.6437 130.427C81.9198 130.777 81.1026 130.632 80.4743 131.101C79.5478 130.978 78.8649 130.404 78.1683 129.857C78.2617 129.379 77.9088 129.101 77.688 128.757C76.6796 127.206 75.6028 125.687 75.1362 123.856C74.8949 122.91 75.0679 121.883 74.5898 120.979C75.0588 115.706 76.2721 109.861 80.8909 106.62C80.9523 106.677 81.0138 106.734 81.0753 106.791L81.073 106.789Z" fill="#F3F3F3"/>
<path d="M145.685 118.71C146.208 122.715 147.661 126.338 150.395 129.441C148.856 129.778 147.481 129.577 146.092 130.295C141.244 129.935 142.068 123.079 142.366 119.626C143.538 119.558 144.476 118.635 145.687 118.713L145.685 118.71Z" fill="#FEFEFE"/>
<path d="M102.879 130.295C102.099 129.564 101.042 129.887 100.148 129.584C99.7653 129.454 99.3396 129.452 98.7637 129.365C101.5 126.261 103.18 122.81 103.271 118.713C104.395 118.494 105.939 120.337 106.569 118.713C107.571 122.223 107.765 129.917 102.882 130.293L102.879 130.295Z" fill="#FEFEFE"/>
<path d="M171.834 120.134C173.009 114.831 170.644 110.33 167.616 106.23C171.445 108.533 173.282 112.911 174.152 117.104C175.03 121.899 173.462 126.698 170.227 130.285C169.672 130.47 169.303 131.06 168.64 131.014C168.024 130.506 167.106 130.905 166.476 130.329C169.33 127.586 171.613 124.19 171.832 120.134H171.834Z" fill="#F3F3F3"/>
<path d="M107.499 81.1695C120.768 81.5726 134.162 80.1923 147.365 81.5704C141.385 81.6 135.414 82.2013 129.464 82.7661C125.881 82.9074 122.22 82.445 118.687 82.9324C114.972 82.2559 111.198 81.928 107.501 81.1718L107.499 81.1695Z" fill="#BE8667"/>
<path d="M129.464 82.7638C137.682 82.1556 146.123 80.7594 154.302 82.085C142.701 81.3584 131.292 84.1122 119.724 83.4858C110.493 82.3151 101.383 80.354 92.0496 81.6773C91.979 81.5862 91.9085 81.4928 91.8379 81.4017C104.363 78.6457 117.003 84.488 129.464 82.7638Z" fill="#464546"/>
<path d="M155.036 85.0049C162.271 85.1005 169.446 89.0888 172.137 95.6395C171.811 95.9515 171.406 95.6349 171.099 95.4504C165.742 92.2161 159.544 89.9703 153.222 91.0044C150.663 91.5146 151.091 87.9932 151.319 86.392C151.704 84.8318 153.782 85.0345 155.034 85.0049H155.036ZM171.408 95.0382C167.661 88.5604 160.529 84.727 153.099 85.6973C152.396 85.7679 151.868 86.0458 151.645 86.7542C150.818 89.3849 152.077 90.7834 154.752 90.3803C160.7 89.5125 166.334 92.2594 171.406 95.0404L171.408 95.0382Z" fill="#191818"/>
<path d="M77.5397 95.0908C76.8499 94.8197 77.4645 94.4849 77.5647 94.3004C78.7416 92.1388 80.3555 90.344 82.3428 88.9045C84.6101 86.6746 96.5793 82.4951 97.82 86.6223C98.2274 88.597 98.0658 91.7038 95.3 90.9385C89.4201 89.9226 84.0797 92.3712 78.9374 94.8357C78.63 94.9791 78.3364 95.1727 77.9744 95.011C77.9836 94.9609 77.9927 94.9131 78.0018 94.8653C83.5083 91.7311 89.5248 89.4398 95.9829 90.5331C97.9247 90.6788 97.4535 88.1551 97.3328 86.9525C97.0824 84.7978 94.0662 85.6679 92.5866 85.6451C86.5428 85.9207 80.6947 89.3669 77.8606 94.7514C77.6762 94.7947 77.5283 94.8698 77.5328 95.093L77.5397 95.0908Z" fill="#191818"/>
<path d="M115.402 151.302C114.509 151.215 113.672 150.953 112.875 150.407C121.66 152.47 130.355 152.199 139.003 149.685C133.281 152.634 126.513 154.657 120.232 152.229C119.768 152.042 119.19 152.135 118.664 152.099C118.584 151.331 117.382 151.81 116.836 151.627C116.467 151.213 115.853 151.612 115.402 151.302ZM122.559 152.293C125.377 153.165 128.172 153.138 130.94 152.035C128.152 152.329 125.347 152.04 122.559 152.293Z" fill="#191818"/>
<path d="M71.0811 100.14C73.749 97.7483 99.8045 96.6618 104.671 98.771C93.3828 97.024 82.2308 98.3815 71.0811 100.14Z" fill="#464546"/>
<path d="M113.701 77.2451C111.368 76.8647 109.014 76.8192 106.658 76.7008C111.143 75.7168 115.559 77.0447 120.025 77.2018C125.361 77.1062 130.69 76.8397 136.008 76.2703C137.339 76.0288 138.687 76.3135 140.05 76.4662C139.657 77.031 139.022 76.7053 138.571 76.9559C130.264 76.7759 122.074 78.5138 113.704 77.2451H113.701Z" fill="#464546"/>
<path d="M164.618 98.0083C158.217 97.5391 151.647 97.9628 145.371 98.4024C149.318 96.8763 160.93 96.9401 164.618 98.0083Z" fill="#191818"/>
<path d="M146.093 130.293C147.481 129.578 148.856 129.778 150.395 129.439C148.904 127.455 147.306 125.667 146.86 123.246L146.903 123.207L146.956 123.232C150.85 132.871 154.404 128.409 162.474 130.118L162.093 130.612C157.272 130.204 152.291 129.373 147.493 130.32C147.024 130.5 146.553 130.623 146.095 130.291L146.093 130.293Z" fill="#464546"/>
<path d="M140.677 145.132C141.26 144.574 141.674 145.112 142.013 145.424C145.014 148.28 147.465 152.106 147.47 156.334C146.791 157.466 146.778 155.525 146.691 155.09C146.423 152.958 142.726 145.804 140.684 145.563L140.688 145.567C140.684 145.421 140.679 145.276 140.675 145.132H140.677Z" fill="#BE8667"/>
<path d="M127.156 137.937C130.256 139.112 128.471 143.622 125.398 142.519C124.67 142.28 123.625 141.943 123.641 141.221C123.666 140.708 125.751 141.114 126.363 141.002C127.82 142.009 127.083 138.583 127.156 137.937Z" fill="#BE8667"/>
<path d="M106.876 125.73C107.533 121.753 106.757 117.674 105.18 114.007C105.346 113.836 105.514 113.663 105.68 113.492C107.358 116.608 108.225 119.881 107.506 123.43C107.349 124.204 107.684 125.131 106.876 125.73Z" fill="#191818"/>
<path d="M96.6412 134.146C96.1973 134.488 93.7798 134.422 93.8663 133.677C93.823 133.069 94.2533 133.028 94.663 132.964C96.4045 132.757 98.0776 132.272 99.7303 131.702C100.094 131.611 100.481 130.994 100.837 131.88C100.964 132.201 101.599 131.431 102.355 131.565C101.813 132.42 101.08 132.679 100.252 132.802C100.158 132.663 100.072 132.613 100.01 132.825L100.022 132.816C98.8698 132.964 97.7794 133.351 96.664 133.643C96.0266 133.809 96.4204 133.968 96.6389 134.144L96.6412 134.146Z" fill="#BE8667"/>
<path d="M105.02 153.985C104.653 154.712 104.287 155.436 103.838 156.322C102.964 154.149 107.346 145.683 109.834 145.808C108.068 148.159 106.087 150.393 104.888 153.142C104.785 153.356 104.084 153.86 105.02 153.985Z" fill="#BE8667"/>
<path d="M123.417 158.987C122.015 156.848 128.257 158.404 129.345 157.844C130.444 157.668 130.795 159.028 129.629 159.235C128.905 158.707 128.213 159.367 127.478 159.29C126.13 159.146 124.79 158.823 123.417 158.987Z" fill="#BE8667"/>
<path d="M61.5659 121.439C63.173 125.826 64.8894 130.165 67.2955 134.176C66.9427 134.281 66.8357 133.976 66.6991 133.782C64.0653 130.038 62.3945 125.874 61.3428 121.439C61.4179 121.439 61.4907 121.439 61.5659 121.439Z" fill="#191818"/>
<path d="M140.687 145.562C142.981 146.029 146.953 153.714 146.812 156.208C146.443 156.215 146.425 155.94 146.364 155.678C145.503 151.71 143.136 148.642 140.687 145.562Z" fill="#464546"/>
<path d="M74.5868 120.977C75.0671 121.879 74.8941 122.906 75.1331 123.853C75.5998 125.685 76.6765 127.204 77.685 128.755C77.908 129.097 78.2586 129.377 78.1653 129.855C76.1575 127.801 74.3796 125.277 74.1338 122.327C74.5139 121.954 74.045 121.298 74.5845 120.977H74.5868Z" fill="#464546"/>
<path d="M173.99 123.735C174.247 121.531 174.584 119.326 174.152 117.105C174.382 117.028 174.609 116.952 174.839 116.875C175.581 119.164 175.128 121.437 174.755 123.726C174.5 123.729 174.245 123.733 173.99 123.735Z" fill="#464546"/>
<path d="M168.422 140.511C164.352 140.82 160.225 140.982 156.164 140.511C156.171 140.408 156.18 140.308 156.187 140.205C160.264 140.169 164.361 140.547 168.425 140.148C168.425 140.269 168.425 140.39 168.425 140.511H168.422Z" fill="#191818"/>
<path d="M105.019 153.985C104.084 153.858 104.785 153.355 104.887 153.143C106.087 150.393 108.068 148.161 109.834 145.808C110.15 145.624 110.442 145.371 111.141 145.496C108.482 148.011 106.599 150.895 105.019 153.985Z" fill="#464546"/>
<path d="M162.091 130.613C162.219 130.449 162.346 130.285 162.471 130.119C166.045 130.743 166.205 129.93 168.606 127.543C168.659 127.598 168.718 127.643 168.781 127.68C168.262 128.759 167.256 129.42 166.475 130.326C167.106 130.9 168.023 130.504 168.64 131.012C168.633 131.426 168.358 131.54 168.035 131.458C166.082 130.964 164.081 130.823 162.089 130.611L162.091 130.613Z" fill="#BE8667"/>
<path d="M173.989 123.735C174.244 123.732 174.499 123.728 174.754 123.726C174.674 125.053 171.524 130.597 170.229 130.285C171.893 128.338 173.138 126.149 173.991 123.735H173.989Z" fill="#191818"/>
<path d="M129.098 109.561C126.2 109.775 123.302 109.989 120.404 110.203C123.252 109.13 126.152 108.891 129.102 109.44C129.086 109.481 129.086 109.522 129.098 109.563V109.561Z" fill="#191818"/>
<path d="M174.839 116.875C174.609 116.952 174.382 117.027 174.152 117.105C173.844 115.296 173.134 113.609 172.574 111.875C172.8 111.864 173.025 111.85 173.253 111.839C174.357 113.335 174.732 115.064 174.839 116.875Z" fill="#191818"/>
<path d="M156.185 140.205C156.178 140.308 156.171 140.408 156.162 140.51C152.294 140.093 148.233 139.82 144.789 137.807C148.481 139.082 152.326 139.663 156.185 140.205Z" fill="#464546"/>
<path d="M168.422 140.51C168.422 140.39 168.422 140.269 168.422 140.148C171.336 139.975 173.988 138.686 176.833 138.278C174.397 140.069 171.306 140.331 168.422 140.51Z" fill="#464546"/>
<path d="M119.336 108.501C122.448 107.558 125.594 107.226 128.795 108.003C125.587 107.8 122.434 108.18 119.307 108.848C119.316 108.731 119.325 108.615 119.336 108.499V108.501Z" fill="#191818"/>
<path d="M153.35 133.955C152.537 134.659 146.487 132.436 146.726 131.564C146.853 131.263 147.104 131.236 147.372 131.436C149.184 132.885 151.344 132.926 153.35 133.955Z" fill="#BE8667"/>
<path d="M134.39 76.9307C138.178 76.5981 142.004 77.3133 145.681 78.2085C141.918 77.7825 138.153 77.3566 134.39 76.9307Z" fill="#F3F3F3"/>
<path d="M117.303 111.219C116.441 112.353 116.375 113.701 116.27 115.041C116.174 115.045 116.081 115.048 115.985 115.052C115.919 113.275 115.325 111.33 115.899 109.62C116.136 109.599 116.372 109.581 116.609 109.561C116.58 109.631 116.58 109.702 116.609 109.772C116.07 110.03 115.844 110.72 116.158 111.18C116.461 111.667 116.844 111.032 117.208 111.116C117.24 111.15 117.272 111.187 117.306 111.221L117.303 111.219Z" fill="#191818"/>
<path d="M123.418 158.987C124.791 158.823 126.131 159.146 127.479 159.29C128.214 159.367 128.909 158.707 129.63 159.235C127.941 160.276 124.92 160.157 123.418 158.987Z" fill="#464546"/>
<path d="M136.566 129.876C137.804 131.732 139.122 133.523 140.725 135.087C140.643 135.163 140.561 135.238 140.479 135.313C138.731 133.946 137.458 132.195 136.404 130.265C136.457 130.136 136.511 130.006 136.564 129.876H136.566Z" fill="#191818"/>
<path d="M84.9876 101.129C83.0185 102.172 81.1496 103.359 79.4014 104.73C80.8059 102.826 82.7044 101.671 84.9876 101.129Z" fill="#464546"/>
<path d="M127.155 137.937C127.08 138.579 127.822 142.01 126.363 141.003C126.973 139.545 126.363 138.156 126.033 136.693C126.602 136.853 126.866 137.199 127.094 137.586C127.039 137.696 127.117 137.782 127.162 137.88L127.158 137.937H127.155Z" fill="#191818"/>
<path d="M165.176 101.532C167.229 102.325 168.996 103.518 170.339 105.3C168.59 104.081 166.874 102.815 165.176 101.532Z" fill="#BE8667"/>
<path d="M177.245 126.78C176.817 127.587 174.365 129.846 173.573 129.047C173.416 128.707 173.749 128.682 173.922 128.596C175.039 128.024 175.856 126.928 177.245 126.78Z" fill="#191818"/>
<path d="M136.566 129.876C136.513 130.006 136.459 130.136 136.406 130.266C135.022 127.992 134.212 125.514 133.834 122.879C134.483 125.318 135.346 127.669 136.566 129.876Z" fill="#464546"/>
<path d="M132.471 110.802C133.625 109.973 132.432 109.568 132.147 108.998C132.532 108.686 133.404 109.613 133.468 108.479C133.568 108.472 133.668 108.465 133.768 108.461C133.261 110.317 133.115 112.215 133.106 114.13L132.799 114.146C132.769 113.533 132.737 112.921 132.707 112.308C132.717 111.784 132.937 111.228 132.475 110.775L132.471 110.802Z" fill="#191818"/>
<path d="M184.783 101.846C186.03 102.921 188.821 103.828 189.105 105.527C187.544 104.105 185.793 102.962 183.897 102.044C183.886 101.937 183.877 101.828 183.865 101.721C184.161 101.844 184.464 101.905 184.783 101.844V101.846Z" fill="#191818"/>
<path d="M75.317 129.142C73.9603 128.741 72.7766 128.097 72.0117 126.842C73.1841 127.507 74.6113 127.78 75.317 129.142Z" fill="#464546"/>
<path d="M99.1329 90.2846C98.3544 88.9362 98.2178 87.5445 98.9508 85.7861C99.3651 87.4739 99.3287 88.8679 99.1329 90.2846Z" fill="#464546"/>
<path d="M173.737 130.102C175.092 129.899 176.335 129.537 177.726 129.938C176.458 130.933 174.662 131.024 173.737 130.102Z" fill="#191818"/>
<path d="M75.5523 132.174C75.0378 133.561 73.9816 134.26 72.6863 134.661C72.4928 134.72 72.2447 134.93 72.1058 134.618C71.9852 134.347 72.2356 134.219 72.4223 134.096C73.4421 133.427 74.6827 133.124 75.5546 132.174H75.5523Z" fill="#BE8667"/>
<path d="M148.157 104.606C148.833 103.151 150.261 102.058 152.098 101.516C150.805 102.566 149.414 103.495 148.157 104.606Z" fill="#464546"/>
<path d="M177.074 134.182C177.527 134.661 177.095 134.772 176.769 134.804C175.713 134.907 173.701 133.296 173.45 132.189C174.666 132.839 175.583 134.255 177.074 134.182Z" fill="#464546"/>
<path d="M150.122 89.9138C149.674 88.677 149.972 87.463 150.084 86.2285C150.712 86.9483 150.73 88.7773 150.122 89.9138Z" fill="#191818"/>
<path d="M91.8368 81.4014C91.9074 81.4925 91.9779 81.5836 92.0485 81.677C91.1197 82.5835 88.7637 82.7361 87.4434 83.1142C88.7455 82.112 90.3207 81.8319 91.8391 81.4014H91.8368Z" fill="#BE8667"/>
<path d="M177.074 134.182C175.583 134.255 174.663 132.839 173.45 132.189C173.438 131.889 173.625 131.527 173.862 131.75C174.763 132.741 176.614 132.88 177.074 134.182Z" fill="#BE8667"/>
<path d="M133.129 115.091C132.995 117.25 133.648 119.357 133.587 121.514C132.981 119.414 132.959 117.248 132.838 115.093C132.936 115.093 133.034 115.093 133.132 115.093L133.129 115.091Z" fill="#191818"/>
<path d="M115.234 123.213C114.267 123.568 115.421 124.133 113.561 125.659C113.495 125.623 113.429 125.589 113.363 125.552C113.782 124.983 114.556 122.079 115.146 122.231C115.585 122.516 115.401 122.867 115.234 123.213Z" fill="#F3F3F3"/>
<path d="M71.5068 130.026C72.8886 129.611 73.9744 130.201 75.1104 130.236C73.8083 130.698 72.5176 130.623 71.5068 130.026Z" fill="#464546"/>
<path d="M100.442 103.949C99.2102 103.37 98.2291 102.436 97.1934 101.58C98.4886 102.065 99.727 102.639 100.483 103.908L100.442 103.949Z" fill="#BE8667"/>
<path d="M96.6405 134.146C96.4219 133.969 96.0258 133.811 96.6655 133.645C97.7809 133.354 98.8713 132.966 100.023 132.818C99.1399 133.882 97.806 133.798 96.6405 134.146Z" fill="#464546"/>
<path d="M115.898 109.618C115.832 109.763 115.764 109.909 115.698 110.055C115.356 108.372 114.942 106.709 114.264 105.126C114.293 105.094 114.325 105.062 114.355 105.03C115.343 106.399 115.664 107.994 115.896 109.618H115.898Z" fill="#464546"/>
<path d="M133.768 108.461C133.668 108.468 133.568 108.474 133.468 108.479C133.7 107.21 134.224 106.069 135.05 105.049C134.622 106.185 134.196 107.322 133.768 108.459V108.461Z" fill="#464546"/>
<path d="M150.946 81.6593C148.833 81.6867 146.76 81.3951 144.677 81.32C146.789 81.0102 148.868 81.32 150.946 81.6593Z" fill="#F3F3F3"/>
<path d="M140.479 135.31C140.56 135.235 140.642 135.16 140.724 135.085C141.553 135.691 142.379 136.297 143.208 136.903C142.773 137.101 142.477 136.638 142.079 136.668L142.072 136.673C141.985 136.602 141.897 136.538 141.812 136.465C141.794 136.324 141.71 136.274 141.576 136.294C141.054 136.142 140.765 135.727 140.479 135.313V135.31Z" fill="#464546"/>
<path d="M129.324 109.616C130.485 109.712 131.635 109.839 132.47 110.803L132.475 110.775C132.263 110.759 132.051 110.743 131.84 110.727C131.833 110.538 131.596 110.559 131.45 110.568C130.806 110.112 129.859 110.324 129.336 109.604L129.324 109.616Z" fill="#464546"/>
<path d="M149.002 87.1621C149.281 87.894 149.323 88.5766 149.127 89.2098C148.494 88.6631 148.483 88.4581 149.002 87.1621Z" fill="#464546"/>
<path d="M100.133 87.1689C100.468 87.8819 100.636 88.5743 100.179 89.294C99.7073 88.4376 99.7051 88.2919 100.133 87.1689Z" fill="#191818"/>
<path d="M115.982 115.05C116.078 115.046 116.174 115.044 116.267 115.039C116.183 116.237 116.099 117.435 116.014 118.636C116.003 118.633 115.994 118.631 115.982 118.626V115.05Z" fill="#464546"/>
<path d="M171.538 98.7755C170.434 98.9463 169.408 98.5728 168.374 98.2607C169.428 98.4316 170.484 98.6047 171.538 98.7755Z" fill="#464546"/>
<path d="M105.377 99.054C106.506 99.0085 107.485 99.3319 108.336 100.047C107.351 99.7168 106.365 99.3843 105.377 99.054Z" fill="#464546"/>
<path d="M113.106 103.546C112.516 103.072 111.965 102.559 111.578 101.896L111.61 101.862C112.323 102.209 112.853 102.739 113.219 103.438C113.181 103.475 113.144 103.509 113.106 103.543V103.546Z" fill="#464546"/>
<path d="M183.865 101.723C183.876 101.831 183.885 101.94 183.897 102.047C183.127 101.812 182.358 101.578 181.338 101.268C182.421 101.113 183.129 101.487 183.865 101.723Z" fill="#464546"/>
<path d="M131.84 110.728C132.052 110.743 132.263 110.759 132.475 110.775C132.937 111.229 132.716 111.784 132.707 112.308C132.4 111.791 131.972 111.34 131.842 110.728H131.84Z" fill="#F3F3F3"/>
<path d="M119.336 108.502C119.327 108.618 119.318 108.734 119.307 108.85C118.642 109.026 118.016 109.367 117.119 109.367C117.898 108.839 118.606 108.645 119.336 108.502Z" fill="#464546"/>
<path d="M109.763 100.6C109.338 100.641 109.001 100.457 108.652 100.17C109.199 99.9304 109.419 100.425 109.763 100.6Z" fill="#464546"/>
<path d="M133.128 115.091C133.03 115.091 132.933 115.091 132.835 115.091C132.716 114.779 132.721 114.463 132.796 114.144C132.898 114.139 133.001 114.132 133.103 114.128C133.11 114.449 133.119 114.77 133.126 115.091H133.128Z" fill="#464546"/>
<path d="M111.842 150.284C111.571 150.211 111.3 150.138 110.904 150.031C111.289 149.817 111.555 149.79 111.838 149.969C111.838 150.074 111.84 150.179 111.842 150.282V150.284Z" fill="#464546"/>
<path d="M189.096 105.516C189.546 105.55 189.669 105.8 189.558 106.21C189.255 106.078 189.128 105.83 189.096 105.516Z" fill="#191818"/>
<path d="M111.842 150.284C111.842 150.179 111.84 150.074 111.838 149.972C112.1 150.07 112.418 150.017 112.641 150.275C112.368 150.751 112.102 150.288 111.842 150.284Z" fill="#191818"/>
<path d="M117.966 151.696C118.305 151.646 118.626 151.63 118.665 152.099C118.298 152.197 118.173 151.874 117.966 151.696Z" fill="#464546"/>
<path d="M110.695 101.188C110.891 101.147 111.253 101.422 110.993 101.55C110.843 101.479 110.661 101.422 110.686 101.197L110.693 101.188H110.695Z" fill="#464546"/>
<path d="M113.75 104.069C114.398 104.452 113.791 104.912 113.629 104.163C113.668 104.131 113.709 104.099 113.75 104.069Z" fill="#464546"/>
<path d="M116.172 151.459C116.418 151.416 116.664 151.382 116.837 151.628C116.593 151.655 116.365 151.621 116.172 151.459Z" fill="#464546"/>
<path d="M140.677 145.132C140.682 145.278 140.686 145.423 140.691 145.567C140.491 145.54 140.386 145.401 140.309 145.232C140.432 145.198 140.554 145.164 140.675 145.132H140.677Z" fill="#464546"/>
<path d="M78.8936 105.258C78.7023 105.067 78.9277 104.848 79.0893 105.028C79.0279 105.101 78.9664 105.171 78.8936 105.258Z" fill="#464546"/>
<path d="M116.604 109.771C116.474 109.538 116.913 109.19 117.009 109.44C117.102 109.695 116.777 109.695 116.604 109.771Z" fill="#464546"/>
<path d="M110.229 100.974C110.445 100.913 110.609 100.965 110.697 101.188L110.691 101.197C110.49 101.213 110.317 101.181 110.249 100.958L110.229 100.976V100.974Z" fill="#464546"/>
<path d="M113.429 103.685C113.536 103.814 113.641 103.944 113.748 104.072C113.707 104.101 113.668 104.133 113.629 104.165C113.452 104.095 113.383 103.951 113.358 103.776C113.381 103.744 113.406 103.714 113.431 103.685H113.429Z" fill="#464546"/>
<path d="M144.8 137.814C144.591 137.846 144.395 137.853 144.336 137.581C144.545 137.55 144.753 137.522 144.8 137.814Z" fill="#464546"/>
<path d="M117.205 111.114C117.362 110.889 117.601 111.105 117.781 111.007L117.758 110.991C117.606 111.066 117.453 111.144 117.303 111.219C117.271 111.185 117.237 111.151 117.205 111.114Z" fill="#191818"/>
<path d="M144.345 137.586C144.135 137.62 143.937 137.627 143.883 137.354C144.097 137.311 144.293 137.306 144.345 137.586Z" fill="#464546"/>
<path d="M143.89 137.356C143.676 137.399 143.489 137.386 143.428 137.124C143.655 137.053 143.84 137.071 143.89 137.356Z" fill="#464546"/>
<path d="M131.451 110.567C131.606 110.577 131.795 110.499 131.85 110.741C131.718 110.684 131.583 110.627 131.451 110.567Z" fill="#F3F3F3"/>
<path d="M67.5255 134.632C67.2478 134.577 67.1681 134.422 67.2865 134.165C67.4891 134.258 67.7281 134.331 67.5255 134.632Z" fill="#191818"/>
<path d="M77.5393 95.0907C77.5325 94.8652 77.6827 94.79 77.8671 94.749C77.9172 94.7832 77.9627 94.8219 78.0059 94.8629C77.9946 94.9107 77.9855 94.9608 77.9786 95.0087C77.8329 95.036 77.6873 95.0633 77.5416 95.0907H77.5393Z" fill="#464546"/>
<path d="M107.101 136.716C107.142 136.495 107.333 136.472 107.497 136.413C107.458 136.636 107.303 136.707 107.101 136.716Z" fill="#BE8667"/>
<path d="M100.923 104.372L100.998 104.425C100.97 104.409 100.945 104.393 100.918 104.375L100.923 104.37V104.372Z" fill="#BE8667"/>
<path d="M110.246 100.956C110.185 100.926 110.121 100.899 110.06 100.869C110.101 100.844 110.139 100.819 110.18 100.794C110.196 100.853 110.212 100.915 110.228 100.974L110.249 100.956H110.246Z" fill="#464546"/>
<path d="M114.264 105.126C114.155 105.046 114.057 104.964 114.201 104.83C114.253 104.898 114.305 104.964 114.355 105.033C114.326 105.065 114.294 105.097 114.264 105.128V105.126Z" fill="#464546"/>
<path d="M100.918 104.377C100.84 104.302 100.763 104.229 100.686 104.154L100.697 104.143C100.772 104.22 100.847 104.295 100.922 104.373L100.918 104.377Z" fill="#BE8667"/>
<path d="M141.576 136.292C141.71 136.274 141.795 136.321 141.813 136.463C141.733 136.406 141.656 136.349 141.576 136.292Z" fill="#BE8667"/>
<path d="M129.098 109.561C129.087 109.52 129.086 109.479 129.102 109.438C129.241 109.415 129.346 109.438 129.328 109.616L129.339 109.604C129.26 109.591 129.18 109.575 129.1 109.561H129.098Z" fill="#464546"/>
<path d="M113.219 103.44C113.29 103.522 113.358 103.602 113.429 103.682C113.404 103.711 113.379 103.741 113.356 103.773C113.272 103.698 113.19 103.62 113.105 103.545C113.144 103.511 113.181 103.475 113.219 103.44Z" fill="#464546"/>
<path d="M111.578 101.896C111.524 101.869 111.467 101.844 111.412 101.817C111.442 101.785 111.471 101.751 111.501 101.719C111.537 101.767 111.574 101.814 111.61 101.862L111.578 101.896Z" fill="#464546"/>
<path d="M100.01 132.828C100.071 132.618 100.158 132.666 100.251 132.805C100.171 132.812 100.089 132.821 100.01 132.828Z" fill="#464546"/>
<path d="M115.402 151.302C115.5 151.338 115.6 151.377 115.698 151.413C115.598 151.377 115.5 151.338 115.402 151.302Z" fill="#464546"/>
<path d="M127.16 137.88C127.117 137.782 127.039 137.695 127.092 137.586C127.194 137.666 127.249 137.757 127.16 137.88Z" fill="#BE8667"/>
<path d="M117.782 111.007C117.782 110.943 117.782 110.879 117.782 110.815C117.993 110.904 117.777 110.932 117.759 110.989L117.784 111.007H117.782Z" fill="#191818"/>
<path d="M143.436 137.13C143.284 137.127 143.147 137.109 143.202 136.897C143.343 136.911 143.489 136.92 143.436 137.13Z" fill="#464546"/>
<path d="M100.482 103.907C100.553 103.985 100.626 104.064 100.696 104.142L100.685 104.153C100.603 104.085 100.523 104.017 100.441 103.948L100.482 103.907Z" fill="#BE8667"/>
<path d="M67.6114 165.857C67.4201 166.663 67.6387 167.795 67.0491 167.904C66.3571 168.03 66.3639 166.736 65.64 166.253C65.5808 166.779 66.1249 168.212 65.6172 168.298C65.3168 168.353 65.2439 168.15 65.2143 167.897C65.2826 167.082 64.4517 164.984 65.0959 164.542C65.4055 164.431 65.5831 164.57 65.7311 164.839C66.0543 165.426 66.398 166.002 66.8601 166.8C67.1993 165.859 66.851 164.173 67.7479 164.005C68.3626 164.21 68.5174 166.533 68.8315 167.226C68.8793 167.41 68.9225 167.613 68.6653 167.674C67.8686 167.61 68.3034 166.394 67.6114 165.857Z" fill="#464546"/>
<path d="M78.5393 164.677C78.7306 163.939 78.4028 163.065 79.0766 162.91C79.6252 162.782 79.5705 163.805 80.1692 164.153C80.3035 163.643 79.9439 162.668 80.5904 162.591C81.0479 162.661 80.8021 163.26 80.7656 163.566C80.5972 164.156 81.0183 165.076 80.3627 165.304C79.6684 165.545 79.7982 164.377 79.2132 164.124C78.9536 164.638 79.3634 165.581 78.6873 165.663C78.0089 165.716 77.8587 164.331 77.4558 163.821C77.3488 163.595 77.0961 163.317 77.4649 163.16C78.0112 162.992 78.1706 164.178 78.5439 164.677H78.5393Z" fill="#464546"/>
<path d="M86.2672 163.364C86.3901 165.052 84.3118 163.809 84.8171 165.41C84.0409 166.464 83.8702 162.731 83.6289 162.282C83.5719 161.989 83.7267 161.907 84.0158 161.916C84.6418 161.936 85.2929 161.071 85.8961 161.991C86.1784 162.424 86.2376 162.9 86.2649 163.364H86.2672ZM85.7049 163.086C85.6321 162.713 85.5797 162.241 85.0493 162.205C84.0796 162.141 84.2025 163.947 85.1085 163.927C85.5433 163.913 85.7459 163.574 85.7049 163.086Z" fill="#464546"/>
<path d="M73.9333 166.631C73.2299 167.236 72.424 165.036 72.4081 166.799C72.3603 167.127 71.7798 166.975 71.8049 166.647C71.8094 165.831 70.8032 163.553 71.3587 163.1C72.1076 163.03 71.8731 164.465 72.1167 164.986C72.6289 164.761 72.5424 163.836 73.3414 163.998C73.088 164.641 73.2845 165.519 73.931 166.631H73.9333ZM72.4741 165.909C72.3853 165.817 72.251 165.956 72.4013 166.009C72.4513 166.016 72.49 165.963 72.4741 165.909Z" fill="#464546"/>
<path d="M82.4699 162.983C82.1103 162.418 81.6914 163.04 81.3454 162.844C82.5929 160.318 84.2228 164.996 83.0732 164.837C82.5542 164.832 81.9669 165.499 81.5139 164.709C80.9607 163.878 81.7984 163.322 82.4722 162.98L82.4699 162.983Z" fill="#464546"/>
<path d="M70.3272 165.431C69.8651 164.868 69.4758 165.442 69.082 165.317C70.548 162.72 72.4716 167.859 69.8788 167.499C68.538 166.966 69.1799 165.74 70.3272 165.431Z" fill="#464546"/>
<path d="M75.1905 165.98C75.8278 165.545 76.5791 165.996 76.7316 165.144C76.7111 164.094 74.6305 164.884 74.9788 163.265C74.9218 162.527 76.5699 161.884 76.702 162.62C76.6951 162.861 76.4721 162.873 76.2786 162.873C75.2656 162.85 75.4044 163.946 76.3332 163.971C78.4002 164.301 76.9865 167.237 75.1905 165.982V165.98Z" fill="#464546"/>
<path d="M74.8527 166.062C75.0804 166.478 74.3474 166.743 74.2882 166.244C74.2928 165.529 73.4937 164.31 74.0856 163.798C74.7981 163.688 74.6365 165.554 74.8527 166.062Z" fill="#464546"/>
<path d="M127.015 77.0219C123.796 77.2429 120.536 77.2429 117.324 77.0037C120.056 76.5186 123.015 76.9787 125.827 76.8443C126.225 76.8465 126.657 76.7122 127.015 77.0219Z" fill="#E0B48F"/>
<path d="M196.203 115.523C191.411 119.56 198.514 122.737 194.571 127.379C194.5 127.297 194.432 127.217 194.362 127.135C196.005 124.208 194.755 121.587 193.572 118.758C192.124 120.562 190.747 122.161 189.54 123.908C186.626 127.315 193.157 130.581 187.99 132.709C186.765 133.249 186.064 133.92 186.271 135.308C186.094 135.383 185.918 135.456 185.741 135.531C185.527 132.825 186.016 133.064 187.583 132.347C189.7 131.376 190.062 130.233 188.705 128.322C185.85 125.436 193.711 117.901 195.746 115.553C195.898 115.544 196.051 115.535 196.203 115.526V115.523Z" fill="#191818"/>
<path d="M182.783 132.584C185.786 126.113 188.577 119.464 189.685 112.367C190.138 110.807 188.392 111.67 187.746 110.739C187.828 110.657 187.91 110.572 187.992 110.49C189.189 110.832 190.389 111.057 191.597 110.529C191.966 111.447 190.389 110.518 190.186 112.971C188.693 119.779 186.847 126.771 182.995 132.63C182.927 132.607 182.856 132.593 182.783 132.586V132.584Z" fill="#191818"/>
<path d="M185.74 135.531C185.917 135.456 186.093 135.383 186.27 135.308C186.541 136.071 186.188 136.916 186.568 137.782C187.436 137.262 191.388 134.497 191.176 133.729V133.752C191.308 133.934 191.456 133.821 191.599 133.773C191.606 133.909 191.613 134.046 191.62 134.183C189.94 135.882 185.007 141.688 185.742 135.533L185.74 135.531Z" fill="#464546"/>
<path d="M179.33 136.693C179.981 135.634 181.11 135.014 181.805 133.996C181.83 134.142 181.857 134.288 181.882 134.431C181.49 135.269 180.728 135.914 180.628 137.31C180.375 135.613 179.76 136.741 179.33 136.693Z" fill="#191818"/>
<path d="M196.203 115.524C196.05 115.533 195.898 115.542 195.745 115.552C196.039 115.044 196.332 114.533 196.624 114.025C197.159 114.023 197.482 113.433 198.322 113.54C197.534 114.278 196.867 114.902 196.203 115.526V115.524Z" fill="#464546"/>
<path d="M181.882 134.431C181.857 134.285 181.83 134.142 181.805 133.996C181.893 133.759 182.003 133.545 182.287 133.504C182.422 133.93 182.144 134.178 181.882 134.431Z" fill="#464546"/>
<path d="M177.07 138.043C177.157 137.683 177.466 137.67 177.742 137.604C177.803 137.982 177.398 138.203 177.07 138.043Z" fill="#464546"/>
<path d="M178.189 137.37C178.337 137.087 178.567 136.928 178.888 136.9C178.879 137.392 178.558 137.417 178.189 137.37Z" fill="#191818"/>
<path d="M182.521 133.267C182.448 133.042 182.51 132.882 182.749 132.812C182.806 133.03 182.774 133.203 182.521 133.267Z" fill="#464546"/>
<path d="M178.873 136.914C178.964 136.7 179.092 136.556 179.349 136.677C179.26 136.895 179.133 137.037 178.873 136.914Z" fill="#191818"/>
<path d="M182.783 132.584C182.856 132.591 182.926 132.604 182.995 132.627C182.963 132.757 182.913 132.866 182.744 132.819C182.758 132.741 182.769 132.661 182.783 132.584Z" fill="#464546"/>
<path d="M182.299 133.493C182.287 133.336 182.324 133.227 182.517 133.272C182.522 133.422 182.504 133.55 182.299 133.493Z" fill="#464546"/>
<path d="M176.84 138.272C176.756 138.039 176.909 138.048 177.059 138.055C177.123 138.267 176.984 138.272 176.84 138.272Z" fill="#464546"/>
<path d="M177.741 137.807C177.748 137.739 177.748 137.672 177.741 137.604C177.821 137.6 177.903 137.593 177.983 137.586C177.903 137.659 177.821 137.732 177.741 137.807Z" fill="#191818"/>
<path d="M177.967 137.601C177.919 137.394 178.058 137.369 178.208 137.355C178.278 137.586 178.101 137.574 177.967 137.601Z" fill="#191818"/>
<path d="M54.9896 128.245C50.1318 121.965 58.1652 120.517 52.4014 114.848C55.2605 116.33 57.5642 120.385 59.2328 123.241C58.0263 121.79 56.8198 120.339 55.4631 118.708C53.7217 123.091 53.5805 123.904 54.9873 128.243L54.9896 128.245Z" fill="#191818"/>
<path d="M60.4683 137.126C60.2953 136.905 60.1246 136.684 59.9516 136.463C61.0397 136.333 61.5246 137.738 62.665 137.734C62.8517 136.629 63.0338 135.534 62.8608 134.415C62.8244 133.937 62.624 133.349 62.0049 133.204C55.5103 130.794 62.3873 127.717 59.733 124.011C61.3083 125.43 61.4426 126.029 60.6868 127.742C59.1981 131.122 59.2049 131.17 62.5398 132.862C64.1743 133.752 63.2 135.875 63.2705 137.349C63.0998 139.278 61.2855 137.693 60.4706 137.128L60.4683 137.126Z" fill="#191818"/>
<path d="M59.9982 111.148C58.4093 111.005 60.0255 114.802 59.9413 115.793C59.8275 115.777 59.7137 115.761 59.5998 115.745C59.1901 114.073 58.3091 112.437 58.1953 110.731C58.7986 110.729 59.4018 110.727 60.005 110.725C60.005 110.866 60.0028 111.007 60.0005 111.148H59.9982Z" fill="#191818"/>
<path d="M60.2383 136.435C59.3005 136.481 58.7632 135.387 58.1281 134.848C57.8891 134.611 58.2852 134.67 58.3945 134.595C59.1366 135.08 59.8718 135.57 60.2383 136.435Z" fill="#464546"/>
<path d="M59.597 115.745C59.7108 115.761 59.8246 115.777 59.9385 115.793C60.2071 116.916 60.7375 117.98 60.6897 119.171C60.0591 118.114 59.9157 116.9 59.5947 115.745H59.597Z" fill="#464546"/>
<path d="M61.5664 121.439C61.4913 121.439 61.4185 121.439 61.3433 121.439C61.052 120.945 60.838 120.43 60.9108 119.838C61.3934 120.264 61.423 120.874 61.5664 121.437V121.439Z" fill="#464546"/>
<path d="M60.6852 119.157C61.0448 119.294 60.9401 119.588 60.9196 119.854C60.61 119.699 60.6601 119.424 60.6852 119.157Z" fill="#464546"/>
<path d="M62.7969 134.172C62.8515 134.254 62.9517 134.318 62.8606 134.413C62.8401 134.334 62.8174 134.252 62.7969 134.172Z" fill="#464546"/>
<path d="M119.805 177.625C118.446 176.313 117.506 174.71 116.618 173.067C117.219 173.086 117.34 173.646 117.572 174.006C118.341 175.195 119.477 176.163 119.805 177.625Z" fill="#191818"/>
<path d="M123.665 183.773C122.509 182.716 121.751 181.424 121.389 179.898C122.331 181.081 123.167 182.329 123.665 183.773Z" fill="#191818"/>
<path d="M121.392 179.901C120.641 179.634 120.383 179.015 120.256 178.302C120.932 178.623 121.162 179.261 121.392 179.901Z" fill="#191818"/>
<path d="M114.797 170.572C114.189 170.572 113.923 170.228 113.889 169.656C114.469 169.686 114.622 170.139 114.797 170.572Z" fill="#191818"/>
<path d="M116.623 173.075C116.199 172.915 115.901 172.663 115.938 172.159C116.463 172.241 116.671 172.562 116.623 173.075Z" fill="#191818"/>
<path d="M115.707 171.71C115.204 171.754 115.018 171.487 115.027 171.022C115.518 170.991 115.614 171.348 115.707 171.71Z" fill="#191818"/>
<path d="M120.258 178.309C119.891 178.222 119.755 177.981 119.8 177.621C120.276 177.635 120.347 177.919 120.258 178.309Z" fill="#191818"/>
<path d="M113.896 169.665C113.65 169.599 113.598 169.433 113.662 169.207C113.864 169.296 114.051 169.394 113.896 169.665Z" fill="#191818"/>
<path d="M115.032 171.029C114.784 170.963 114.736 170.797 114.798 170.571C115.012 170.656 115.185 170.758 115.032 171.029Z" fill="#191818"/>
<path d="M115.942 172.168C115.689 172.104 115.646 171.933 115.707 171.71C115.926 171.79 116.085 171.901 115.942 172.168Z" fill="#191818"/>
<path d="M123.895 184.004C123.743 183.997 123.679 183.901 123.656 183.764C123.847 183.732 123.868 183.871 123.895 184.004Z" fill="#191818"/>
<path d="M110.228 177.195C109.93 177.063 109.814 176.81 109.764 176.509C110.274 176.498 110.276 176.83 110.228 177.195Z" fill="#191818"/>
<path d="M109.778 176.514C109.673 176.363 109.568 176.211 109.466 176.061C109.748 176.09 109.782 176.288 109.778 176.514Z" fill="#191818"/>
<path d="M108.858 175.227C108.783 175.12 108.708 175.015 108.633 174.908C108.797 174.951 108.845 175.077 108.858 175.227Z" fill="#191818"/>
<path d="M57.958 133.723C57.8874 133.971 58.1583 134.589 57.5073 134.236C57.118 134.024 56.7265 133.703 56.6445 133.151C57.2751 133.042 57.4299 133.796 57.9626 133.728L57.958 133.723Z" fill="#BE8667"/>
<path d="M190.942 134.256C189.67 135.625 188.222 136.768 186.569 137.779C186.189 136.916 186.544 136.069 186.271 135.306C186.062 133.919 186.763 133.247 187.988 132.707C193.155 130.579 186.624 127.313 189.538 123.906C190.742 122.159 192.119 120.562 193.567 118.756C194.751 121.585 196 124.209 194.357 127.133C193.781 127.962 193.219 128.798 193.203 129.867L193.21 129.855C192.957 129.912 193.021 130.131 192.98 130.299C192.788 131.661 191.398 132.427 191.17 133.75V133.727C190.931 133.832 190.922 134.037 190.938 134.256H190.942Z" fill="#BE8667"/>
<path d="M193.207 129.869C193.221 128.801 193.785 127.967 194.361 127.136C194.432 127.218 194.5 127.297 194.571 127.379C194.295 128.306 193.972 129.208 193.207 129.867V129.869Z" fill="#464546"/>
<path d="M191.618 134.18C191.611 134.044 191.604 133.907 191.598 133.77C191.859 133.262 192.262 132.907 192.897 132.524C192.752 133.449 192.112 133.759 191.618 134.178V134.18Z" fill="#BE8667"/>
<path d="M192.984 130.3C193.025 130.133 192.962 129.912 193.214 129.855C193.233 130.054 193.137 130.19 192.984 130.3Z" fill="#464546"/>
<path d="M148.364 126.004C147.679 125.191 147.504 124.116 146.955 123.234C146.737 120.852 145.826 120.089 148.849 119.658C151.014 119.396 154.395 112.732 156.603 111.099C156.423 112.718 158.49 110.57 159.94 111.891C159.601 112.807 159.537 113.759 159.589 114.725C156.505 115.13 155.478 116.29 155.492 119.351C152.995 119.394 151.797 121.032 152.623 123.273C152.325 123.439 151.692 122.811 151.743 123.355C151.911 125.526 148.999 123.321 148.854 125.421C148.824 125.724 148.51 125.794 148.362 126.004H148.364Z" fill="#BE8667"/>
<path d="M145.685 118.711C144.473 118.633 143.536 119.558 142.363 119.624C142.955 114.415 145.598 110.347 149.288 106.857C149.543 107.015 149.497 107.128 149.429 107.213C146.602 110.55 146.001 114.526 145.682 118.711H145.685Z" fill="#F3F3F3"/>
<path d="M153.456 114.638C152.728 116.127 151.592 117.305 150.492 118.51C150.278 117.33 147.893 118.94 148.225 116.688C148.519 113.303 151.116 114.515 153.456 114.638Z" fill="#464546"/>
<path d="M85.9758 130.028C83.7563 131.144 82.1355 129.151 80.5693 127.832C81.0405 127.12 81.5846 127.516 81.8919 127.22C81.8874 127.158 81.901 127.038 81.876 127.031C80.0526 126.725 80.7287 124.498 82.4087 125.168C83.4285 125.361 83.8451 123.878 84.5371 123.323C85.8073 125.277 88.3864 125.377 89.2333 122.699C92.402 123.27 93.5743 120.815 93.852 118.054C94.9265 118.041 96.001 117.929 97.0709 118.134C96.9411 118.341 96.5063 118.15 96.5154 118.59C97.5967 118.849 98.6803 119.104 99.7615 119.373C101.102 119.708 101.118 119.86 100.237 120.906C99.1287 122.222 98.0816 123.589 97.0253 124.949C96.8204 125.213 96.3834 125.568 96.9138 125.878C98.3661 126.632 97.2256 128.201 98.0133 129.21C96.4494 129.591 94.7398 129.821 93.1668 129.468C95.5434 128.466 94.9219 126.493 92.4953 126.464C90.7789 126.297 89.1627 126.874 87.5169 127.202C85.8779 127.484 85.9279 128.8 85.978 130.024L85.9758 130.028Z" fill="#E0B48F"/>
<path d="M98.0107 129.215C97.2231 128.206 98.3635 126.637 96.9112 125.883C96.3808 125.571 96.8179 125.218 97.0227 124.951C98.0767 123.592 99.1261 122.223 100.235 120.909C101.116 119.863 101.1 119.708 99.759 119.376C98.68 119.107 97.5964 118.852 96.5128 118.592C96.5037 118.153 96.9385 118.346 97.0683 118.137C97.3688 118.025 97.6715 117.913 97.972 117.802C102.013 119.08 100.481 116.139 100.069 113.706C99.9092 111.534 98.4933 110.486 96.6198 109.846C97.0637 108.976 97.8627 109.281 98.5707 109.026C99.57 107.917 100.069 108.818 100.512 109.545C104.173 115.522 103.322 124.557 98.0084 129.218L98.0107 129.215ZM99.9775 125.102C99.8887 124.441 98.8256 124.225 98.7528 125.018C98.7369 125.523 99.9479 125.831 99.9775 125.102Z" fill="#BE8667"/>
<path d="M97.9728 117.801C97.6723 117.913 97.3696 118.024 97.0691 118.136C96.0015 117.929 94.9247 118.043 93.8503 118.056C92.1658 116.455 91.4942 114.943 91.8471 112.619C95.6964 105.782 103.839 112.918 97.9728 117.804V117.801Z" fill="#FEFEFE"/>
<path d="M105.179 114.007C105.53 115.246 108.122 119.938 105.168 119.271C104.544 119.068 103.986 118.603 103.271 118.715C103.306 114.649 102.304 110.891 99.9502 107.538C100.119 107.525 100.289 107.509 100.458 107.495C102.563 109.279 104.002 111.549 105.179 114.007Z" fill="#F3F3F3"/>
<path d="M100.458 107.495C100.29 107.508 100.121 107.524 99.9507 107.538C99.4864 107.299 99.1745 106.925 98.8672 106.374C99.7755 106.374 100.09 106.973 100.458 107.495Z" fill="#E0B48F"/>
<path d="M91.7969 115.28C92.3296 116.319 93.0808 117.196 93.8525 118.054C93.5748 120.815 92.4024 123.27 89.2337 122.698C89.2292 121.161 88.6373 120.024 87.0871 119.537C86.7092 116.833 89.0493 114.109 91.7969 115.28Z" fill="#464546"/>
<path d="M85.9762 130.028C85.9262 128.803 85.8761 127.488 87.5151 127.206C89.1609 126.878 90.7771 126.302 92.4935 126.468C94.9133 126.498 95.5462 128.47 93.1651 129.472C90.784 129.864 88.371 129.805 85.9762 130.028Z" fill="#F3F3F3"/>
<path d="M87.0868 119.537C90.6926 120.532 89.1992 126.104 85.6754 124.45C83.2852 123.061 84.1889 119.574 87.0868 119.537Z" fill="#FEFEFE"/>
<path d="M80.8877 106.618C80.9788 106.427 81.1176 106.379 81.3043 106.481C81.2269 106.584 81.1495 106.686 81.0721 106.789C81.0106 106.732 80.9492 106.675 80.8877 106.618Z" fill="#F3F3F3"/>
<path d="M159.592 114.724C158.651 109.346 166.516 106.982 167.447 112.763C167.272 113.162 167.272 113.562 167.434 113.963C167.138 116.633 164.235 117.865 161.829 117.145C160.903 116.505 160.32 115.546 159.592 114.724Z" fill="#FEFEFE"/>
<path d="M167.448 112.763C167.318 112.214 167.186 111.663 167.057 111.114C167.423 110.087 168.593 110.308 169.265 109.718C170.785 111.05 170.954 113.847 171.352 115.82C171.578 117.084 171.744 118.353 171.418 119.633C171.336 119.951 171.491 120.138 171.837 120.134C171.625 122.976 170.631 125.502 168.784 127.682C168.721 127.646 168.662 127.6 168.609 127.545C169.194 126.475 171.996 121.762 170.754 120.97C168.709 120.029 166.729 118.945 164.475 118.539C163.219 118.268 162.556 117.831 161.887 119.393C161.869 118.644 161.851 117.895 161.83 117.145C162.768 117.282 163.738 117.262 164.598 117.692C166.352 118.217 167.778 117.732 168.873 116.237C170.141 115.084 168.249 114.699 167.293 114.845C167.341 114.551 167.389 114.257 167.437 113.963C167.903 113.569 167.872 113.166 167.45 112.763H167.448Z" fill="#BE8667"/>
<path d="M129.464 82.7636C129.319 82.9936 129.086 82.9777 128.861 82.9777C125.469 82.9617 122.077 82.9458 118.686 82.9298C122.221 82.4447 125.881 82.9048 129.462 82.7636H129.464Z" fill="#F3F3F3"/>
<path d="M171.409 95.0383C166.337 92.2572 160.701 89.5103 154.755 90.3781C152.078 90.7812 150.821 89.3827 151.648 86.752C151.871 86.0436 152.399 85.7657 153.102 85.6951C160.53 84.7248 167.667 88.5605 171.411 95.0383H171.409Z" fill="#464546"/>
<path d="M77.8672 94.7485C80.7013 89.364 86.547 85.9201 92.5931 85.6423C94.075 85.6605 97.0867 84.7972 97.3394 86.9497C97.4646 88.15 97.929 90.676 95.9895 90.5302C89.5314 89.4369 83.5149 91.726 78.0083 94.8624C77.9651 94.8191 77.9195 94.7827 77.8695 94.7485H77.8672Z" fill="#464546"/>
<path d="M122.56 152.293C125.348 152.04 128.153 152.329 130.941 152.035C128.173 153.138 125.378 153.165 122.56 152.293Z" fill="#BE8667"/>
<path d="M119.769 77.2292C119.855 77.22 119.939 77.2132 120.026 77.2041C119.939 77.2132 119.855 77.2223 119.769 77.2292Z" fill="#BE8667"/>
<path d="M161.887 119.394C162.558 117.836 163.211 118.264 164.475 118.54C166.729 118.945 168.709 120.027 170.753 120.97C171.281 121.214 171.122 121.524 171.047 121.883C170.412 124.605 169.178 127.193 167.095 129.06C165.857 130.746 164.236 130.272 162.474 130.12C159.852 129.71 157.184 129.432 154.568 129.716C151.413 130.06 149.71 128.448 148.367 126.004C148.515 125.794 148.829 125.724 148.859 125.421C149.005 123.318 151.914 125.526 151.748 123.355C151.698 122.81 152.33 123.439 152.626 123.273C154.37 125.671 156.323 124.758 157.796 122.742C159.897 123.35 161.812 121.437 161.887 119.394ZM168.534 123.298C168.625 122.856 168.399 122.795 168.16 122.806C164.224 122.307 167.735 117.626 162.287 124.487C161.989 124.867 161.957 125.348 162.654 125.293C163.387 125.234 163.835 125.607 164.32 126.07C165.085 126.799 165.832 126.794 166.328 126.022C166.952 125.047 167.942 124.259 168.534 123.298Z" fill="#E0B48F"/>
<path d="M85.7041 163.087C85.7587 164.413 84.2791 164.032 84.3952 162.951C84.3496 161.821 85.7428 162.069 85.7041 163.087Z" fill="#F3F3F3"/>
<path d="M72.4749 165.909C72.4886 165.964 72.4522 166.016 72.4021 166.009C72.2541 165.957 72.3884 165.818 72.4749 165.909Z" fill="#FEFEFE"/>
<path d="M190.942 134.256C190.926 134.04 190.938 133.832 191.174 133.728C191.402 134.04 191.095 134.112 190.942 134.256Z" fill="#E0B48F"/>
<path d="M161.886 119.394C161.814 121.435 159.897 123.35 157.796 122.742C157.545 121.46 157.306 120.173 155.92 119.562C155.845 119.373 155.701 119.314 155.51 119.357L155.494 119.351C155.481 116.289 156.507 115.13 159.592 114.725C160.32 115.547 160.903 116.508 161.829 117.146C161.848 117.895 161.866 118.645 161.886 119.394Z" fill="#464546"/>
<path d="M155.92 119.562C157.304 120.173 157.546 121.46 157.796 122.742C154.097 128.489 148.923 119.82 155.495 119.351L155.51 119.357C155.547 119.628 155.736 119.59 155.92 119.562Z" fill="#FEFEFE"/>
<path d="M97.9727 117.801C99.3749 116.797 99.8734 115.328 100.069 113.706C100.484 116.143 102.011 119.077 97.9727 117.801Z" fill="#E0B48F"/>
<path d="M99.9778 125.102C99.9459 125.828 98.7372 125.521 98.7531 125.018C98.8282 124.225 99.889 124.444 99.9778 125.102Z" fill="#E0B48F"/>
<path d="M167.29 114.845C168.244 114.702 170.14 115.084 168.87 116.237C167.283 118.786 166.441 118.387 163.878 117.392C165.469 117.152 166.514 116.178 167.29 114.843V114.845Z" fill="#E0B48F"/>
<path d="M167.448 112.764C167.869 113.169 167.903 113.57 167.434 113.964C167.27 113.561 167.272 113.162 167.448 112.764Z" fill="#E0B48F"/>
<path d="M168.533 123.298C167.939 124.259 166.951 125.047 166.327 126.022C165.831 126.794 165.084 126.797 164.319 126.07C163.835 125.61 163.388 125.236 162.653 125.293C161.957 125.348 161.988 124.867 162.287 124.487C167.739 117.62 164.224 122.314 168.16 122.806C168.401 122.795 168.626 122.856 168.533 123.298Z" fill="#BE8667"/>
<path d="M155.92 119.562C155.735 119.59 155.544 119.626 155.51 119.357C155.703 119.314 155.844 119.373 155.92 119.562Z" fill="#BE8667"/>
</svg>
