<svg width="250" height="250" viewBox="0 0 250 250" fill="none" xmlns="http://www.w3.org/2000/svg">
<g clip-path="url(#clip0_242_94801)">
<path d="M250 124.997C250 55.9615 194.036 -0.00292969 125 -0.00292969C55.9644 -0.00292969 0 55.9615 0 124.997C0 194.033 55.9644 249.997 125 249.997C194.036 249.997 250 194.033 250 124.997Z" fill="black"/>
<path d="M33.5336 70.9129L179.511 216.891L217.037 179.365L71.0589 33.3877L33.5336 70.9129Z" fill="white"/>
<path d="M71.0604 216.891L217.038 70.9134L179.513 33.3877L33.5352 179.366L71.0604 216.891Z" fill="white"/>
<path d="M203.767 124.998C203.767 81.4957 168.501 46.2305 125 46.2305C81.4977 46.2305 46.2324 81.4957 46.2324 124.998C46.2324 168.499 81.4977 203.765 125 203.765C168.501 203.765 203.767 168.499 203.767 124.998Z" fill="black"/>
<path d="M154.637 105.301C152.531 104.098 149.823 104.098 147.416 105.301L130.565 115.224L119.131 121.539L102.581 131.462C100.474 132.665 97.7663 132.665 95.3592 131.462L82.4199 123.644C80.3138 122.441 78.8091 120.036 78.8091 117.329V102.294C78.8091 99.8883 80.0128 97.4825 82.4199 95.979L95.3592 88.4615C97.4653 87.2586 100.173 87.2586 102.581 88.4615L115.52 96.2795C117.626 97.4825 119.131 99.8883 119.131 102.595V112.518L130.565 105.902V95.6785C130.565 93.2727 129.361 90.8669 126.954 89.3634L102.882 75.2303C100.775 74.0274 98.0672 74.0274 95.6601 75.2303L70.9859 89.6644C68.5783 90.8669 67.375 93.2727 67.375 95.6785V123.945C67.375 126.35 68.5783 128.756 70.9859 130.259L95.3592 144.393C97.4653 145.595 100.173 145.595 102.581 144.393L119.131 134.77L130.565 128.155L147.115 118.532C149.221 117.329 151.929 117.329 154.336 118.532L167.276 126.05C169.382 127.253 170.887 129.658 170.887 132.364V147.4C170.887 149.805 169.683 152.211 167.276 153.714L154.637 161.232C152.531 162.435 149.823 162.435 147.416 161.232L134.477 153.714C132.37 152.512 130.866 150.106 130.866 147.4V137.777L119.431 144.393V154.316C119.431 156.722 120.635 159.127 123.042 160.631L147.416 174.764C149.522 175.967 152.23 175.967 154.637 174.764L179.011 160.631C181.117 159.428 182.622 157.022 182.622 154.316V125.749C182.622 123.343 181.418 120.938 179.011 119.434L154.637 105.301Z" fill="#8247E5"/>
</g>
<defs>
<clipPath id="clip0_242_94801">
<rect width="250" height="250" fill="white"/>
</clipPath>
</defs>
</svg>
