<svg width="250" height="250" viewBox="0 0 250 250" fill="none" xmlns="http://www.w3.org/2000/svg">
<rect width="250" height="250" rx="125" fill="white"/>
<path fill-rule="evenodd" clip-rule="evenodd" d="M165.654 118.473C146.682 118.473 131.314 133.841 131.314 152.813C131.314 159.409 133.184 165.597 136.414 170.833C119.72 184.229 102.822 193.205 88.406 197.115C73.446 201.161 62.498 199.393 56.446 193.341C49.714 186.609 48.32 173.791 54.202 156.383C55.052 153.799 53.692 151.045 51.108 150.161C48.524 149.311 45.77 150.671 44.886 153.255C38.732 171.615 38.664 189.431 49.51 200.311C59.302 210.103 74.772 210.987 90.956 206.635C107.038 202.283 125.194 192.491 142.704 178.415C148.79 183.889 156.848 187.221 165.654 187.221C184.626 187.221 199.994 171.853 199.994 152.881C200.028 133.841 184.626 118.473 165.654 118.473ZM165.654 178.619C151.408 178.619 139.848 167.059 139.848 152.813C139.848 138.567 151.408 127.007 165.654 127.007C179.9 127.007 191.46 138.567 191.46 152.813C191.46 167.093 179.9 178.619 165.654 178.619Z" fill="black"/>
<path fill-rule="evenodd" clip-rule="evenodd" d="M200.639 48.6351C191.289 39.2851 176.737 38.0611 161.403 41.7671C146.341 45.4051 129.341 54.0071 112.681 66.4851C106.935 62.1671 99.7951 59.5831 92.0431 59.5831C73.0711 59.5831 57.7031 74.9511 57.7031 93.9231C57.7031 112.895 73.0711 128.263 92.0431 128.263C111.015 128.263 126.383 112.895 126.383 93.9231C126.383 86.2731 123.867 79.2011 119.651 73.4891C135.189 62.0311 150.557 54.4491 163.681 51.2871C177.723 47.9211 187.923 49.8251 193.703 55.5711C200.435 62.3031 201.829 75.1211 195.947 92.5291C195.097 95.1131 196.457 97.8671 199.041 98.7511C201.625 99.6011 204.379 98.2411 205.263 95.6571C211.417 77.3311 211.485 59.5151 200.639 48.6351ZM109.213 97.3571H95.4771V111.093H88.6091V97.3571H74.8731V90.4891H88.6091V76.7531H95.4771V90.4891H109.213V97.3571Z" fill="black"/>
<path d="M177.927 155.769V148.9H153.379V155.769H177.927Z" fill="black"/>
</svg>
