<svg width="250" height="250" viewBox="0 0 250 250" fill="none" xmlns="http://www.w3.org/2000/svg">
<g clip-path="url(#clip0_242_93615)">
<path fill-rule="evenodd" clip-rule="evenodd" d="M174.748 199.599C215.548 199.599 248.698 166.849 249.348 126.199V124.949C249.348 193.649 193.648 249.299 124.998 249.299C56.2984 249.349 0.648438 193.699 0.648438 124.999H100.148C100.148 166.199 133.548 199.599 174.748 199.599Z" fill="url(#paint0_linear_242_93615)"/>
<path fill-rule="evenodd" clip-rule="evenodd" d="M75.2484 199.599C34.4484 199.599 1.29844 166.849 0.648438 126.199V124.949C0.648438 193.649 56.3484 249.299 124.998 249.299C193.698 249.299 249.348 193.599 249.348 124.949H149.848C149.848 166.199 116.448 199.599 75.2484 199.599Z" fill="url(#paint1_linear_242_93615)"/>
<path fill-rule="evenodd" clip-rule="evenodd" d="M75.2484 50.4004C34.4484 50.4004 1.29844 83.1504 0.648438 123.8V125.05C0.648437 56.3004 56.2984 0.650391 124.998 0.650391C193.698 0.650391 249.348 56.3504 249.348 125H149.848C149.848 83.8004 116.448 50.4004 75.2484 50.4004Z" fill="url(#paint2_linear_242_93615)"/>
<path fill-rule="evenodd" clip-rule="evenodd" d="M174.748 50.4004C215.548 50.4004 248.698 83.1504 249.348 123.8V125.05C249.348 56.3004 193.698 0.650391 124.998 0.650391C56.2984 0.650391 0.648438 56.3004 0.648438 125H100.148C100.148 83.8004 133.548 50.4004 174.748 50.4004Z" fill="url(#paint3_linear_242_93615)"/>
<path d="M98.8996 123.749H1.84961V126.249H98.8496V123.749H98.8996Z" fill="#EF9146"/>
<path d="M248.15 123.749H151.15V126.249H248.15V123.749Z" fill="#E57622"/>
</g>
<defs>
<linearGradient id="paint0_linear_242_93615" x1="124.898" y1="122.817" x2="128.785" y2="247.186" gradientUnits="userSpaceOnUse">
<stop stop-color="#EF9146"/>
<stop offset="1" stop-color="#E0592E"/>
</linearGradient>
<linearGradient id="paint1_linear_242_93615" x1="125" y1="124.998" x2="125" y2="249.368" gradientUnits="userSpaceOnUse">
<stop stop-color="#E57722"/>
<stop offset="1" stop-color="#F2B24C"/>
</linearGradient>
<linearGradient id="paint2_linear_242_93615" x1="125" y1="124.999" x2="125" y2="-4.64961" gradientUnits="userSpaceOnUse">
<stop stop-color="#E57722"/>
<stop offset="1" stop-color="#DD4A33"/>
</linearGradient>
<linearGradient id="paint3_linear_242_93615" x1="124.997" y1="125.001" x2="124.997" y2="0.63214" gradientUnits="userSpaceOnUse">
<stop stop-color="#EF9046"/>
<stop offset="1" stop-color="#F3C44F"/>
</linearGradient>
<clipPath id="clip0_242_93615">
<rect width="250" height="250" rx="125" fill="white"/>
</clipPath>
</defs>
</svg>
