<svg width="250" height="250" viewBox="0 0 250 250" fill="none" xmlns="http://www.w3.org/2000/svg">
<path d="M185.8 160.138C182.72 157.408 178.765 155.833 174.635 155.833C170.015 155.833 165.71 157.723 162.455 161.153C150.45 174.208 139.635 179.178 124.165 179.178C108.03 179.178 96.8649 174.033 84.6849 160.978C81.6049 157.723 77.1249 155.658 72.6799 155.658C68.5499 155.658 64.4549 157.198 61.3399 160.138C54.8299 166.473 54.4799 176.973 60.6399 183.483C79.1899 203.223 98.7549 212.148 124.13 212.148C149.015 212.148 168.23 203.223 186.605 183.483C193.01 176.798 192.52 166.333 185.8 160.138Z" fill="url(#paint0_linear_242_93616)"/>
<path d="M185.45 127.379C195.775 127.379 204.175 119.014 204.175 108.654C204.175 98.2937 195.81 89.9287 185.45 89.9287C175.125 89.9287 166.725 98.2937 166.725 108.654C166.725 119.014 175.125 127.379 185.45 127.379Z" fill="url(#paint1_linear_242_93616)"/>
<path d="M54.8658 124.438C46.1158 119.118 43.2108 107.603 48.5308 98.8533L79.7858 46.8433C85.1058 38.0933 96.6208 35.1883 105.371 40.5083C114.121 45.8283 117.026 57.3433 111.706 66.0933L80.4508 117.928C75.0958 126.853 63.6158 129.583 54.8658 124.438Z" fill="url(#paint2_linear_242_93616)"/>
<path d="M115.1 124.438C106.35 119.118 103.445 107.603 108.765 98.8533L140.02 46.8433C145.34 38.0933 156.855 35.1883 165.605 40.5083C174.355 45.8283 177.26 57.3433 171.94 66.0933L140.86 117.928C135.505 126.853 124.025 129.583 115.1 124.438Z" fill="url(#paint3_linear_242_93616)"/>
<defs>
<linearGradient id="paint0_linear_242_93616" x1="136.362" y1="185.194" x2="42.2465" y2="89.2148" gradientUnits="userSpaceOnUse">
<stop stop-color="#5ACEFF"/>
<stop offset="1" stop-color="#00EEEA"/>
</linearGradient>
<linearGradient id="paint1_linear_242_93616" x1="198.564" y1="122.011" x2="112.428" y2="34.1692" gradientUnits="userSpaceOnUse">
<stop stop-color="#5ACEFF"/>
<stop offset="1" stop-color="#00EEEA"/>
</linearGradient>
<linearGradient id="paint2_linear_242_93616" x1="157.949" y1="161.887" x2="71.8133" y2="74.0453" gradientUnits="userSpaceOnUse">
<stop stop-color="#5ACEFF"/>
<stop offset="1" stop-color="#00EEEA"/>
</linearGradient>
<linearGradient id="paint3_linear_242_93616" x1="188.663" y1="131.771" x2="102.527" y2="43.9289" gradientUnits="userSpaceOnUse">
<stop stop-color="#5ACEFF"/>
<stop offset="1" stop-color="#00EEEA"/>
</linearGradient>
</defs>
</svg>
