<svg width="250" height="250" viewBox="0 0 250 250" fill="none" xmlns="http://www.w3.org/2000/svg">
<rect width="250" height="250" rx="125" fill="white"/>
<path d="M61.6009 132.028L84.971 114.629L105.629 127.764V151.379L121.258 166.364L121.251 173.393L106.191 187.437H93.4637L61.6009 132.028ZM135.448 173.411L135.418 166.336L150.994 151.382V127.764L171.43 114.468L194.755 132.028L163.051 187.277H150.494L135.448 173.411ZM113.294 127.764L105.69 107.945H150.901L143.45 127.764L145.65 149.908L128.204 149.945L110.965 149.976L113.294 127.764ZM128.204 102.523L85.2391 102.502L93.2266 66.9833H162.976L171.393 102.548L128.204 102.523ZM128.204 22.678L40.0215 73.7752V176.036L128.203 227.115L128.306 227.168L217.162 176.032V73.7752L128.311 22.6279L128.204 22.678Z" fill="#0A2F4B"/>
</svg>
