<svg width="250" height="250" viewBox="0 0 250 250" fill="none" xmlns="http://www.w3.org/2000/svg">
<path d="M136.212 155.46C136.212 158.643 136.212 161.65 136.212 164.962C144.138 164.962 151.989 164.962 160.082 164.962C160.082 168.623 160.082 171.99 160.082 175.691C152.16 175.691 144.231 175.691 136.096 175.691C136.096 177.746 136.096 179.475 136.096 181.433C144.096 181.433 151.966 181.433 160.08 181.433C160.08 184.723 160.08 187.798 160.08 191.313C152.196 191.313 144.28 191.313 136.161 191.313C136.161 197.895 136.161 204.049 136.161 210.418C129.255 210.418 122.553 210.418 115.539 210.418C115.539 204.27 115.539 198.043 115.539 191.441C107.4 191.441 99.5608 191.441 91.5812 191.441C91.5812 187.972 91.5812 184.885 91.5812 181.502C99.5619 181.502 107.412 181.502 115.423 181.502C115.423 179.541 115.423 177.87 115.423 175.907C107.554 175.907 99.7015 175.907 91.6421 175.907C91.6421 172.252 91.6421 168.878 91.6421 165.131C99.4467 165.131 107.286 165.131 115.267 165.131C115.267 161.66 115.267 158.556 115.267 155.246C97.9606 152.065 84.8913 142.662 76.1276 127.509C68.2852 113.949 67.1771 99.212 69.8777 84.0959C73.9779 61.1446 94.8904 38.2662 128.026 39.2192C159.121 40.1138 179.066 64.4406 182.178 88.012C184.221 103.487 182.062 118.215 173.209 131.442C164.356 144.67 151.995 152.694 136.212 155.46ZM100.498 96.475C100.461 106.302 102.568 114.518 108.992 121.148C118.724 131.193 135.781 130.422 144.396 119.6C153.904 107.656 153.588 87.2032 143.716 75.5503C133.752 63.7892 116.534 64.1025 107.034 76.238C102.182 82.4351 100.423 89.6087 100.498 96.475Z" fill="#00A65A"/>
</svg>
