<svg width="250" height="250" viewBox="0 0 250 250" fill="none" xmlns="http://www.w3.org/2000/svg">
<path fill-rule="evenodd" clip-rule="evenodd" d="M69.877 77.329C104.667 87.654 122.447 78.939 133.962 73.269C136.797 71.869 139.282 70.644 141.557 69.874L143.867 76.629C141.837 77.329 139.632 78.414 137.112 79.639C124.617 85.764 105.297 95.249 67.917 84.154L69.877 77.329Z" fill="#FF5B04"/>
<path fill-rule="evenodd" clip-rule="evenodd" d="M52.4107 163.255C61.7907 169.38 72.8507 170.955 83.8407 169.975C99.0657 168.575 114.221 162.31 124.966 156.22C133.891 151.18 143.236 150.2 151.776 151.425C163.361 153.07 173.476 158.81 178.726 163.78L173.861 168.995C169.416 164.795 160.806 159.93 150.831 158.495C143.656 157.48 135.851 158.25 128.501 162.45C117.056 168.925 100.921 175.61 84.5407 177.115C72.0807 178.235 59.4807 176.415 48.5957 169.31L52.4107 163.255Z" fill="#FF5B04"/>
<path fill-rule="evenodd" clip-rule="evenodd" d="M52.3425 99.9034C85.6975 104.313 100.642 99.7984 113.522 95.8784C127.942 91.5034 139.947 87.8634 169.487 96.6834L167.492 103.543C139.982 95.3534 128.887 98.7134 115.552 102.738C102.007 106.833 86.2925 111.593 51.3975 106.973L52.3425 99.9034Z" fill="#FF5B04"/>
<path fill-rule="evenodd" clip-rule="evenodd" d="M77.4014 192.514C109.391 173.229 128.991 178.654 147.436 183.764C150.656 184.674 153.876 185.549 157.061 186.249L155.521 193.214C152.161 192.479 148.871 191.569 145.546 190.624C128.536 185.934 110.441 180.929 81.0764 198.639L77.4014 192.514Z" fill="#FF5B04"/>
<path fill-rule="evenodd" clip-rule="evenodd" d="M49.6464 121.848C83.3514 134.028 99.8364 125.138 114.606 117.193C131.511 108.093 146.421 100.078 178.201 120.028L174.456 126.048C146.176 108.268 132.981 115.373 118.001 123.458C101.901 132.138 83.9464 141.798 47.2314 128.568L49.6464 121.848Z" fill="#FF5B04"/>
<path fill-rule="evenodd" clip-rule="evenodd" d="M49.7873 144.353C61.0573 150.583 74.1473 150.338 87.5523 147.118C101.377 143.758 115.622 137.178 128.467 131.088C142.572 124.403 154.577 125.593 164.167 129.478C173.582 133.328 180.477 139.733 184.852 143.863L179.987 149.078C175.997 145.298 169.697 139.453 161.472 136.128C153.457 132.873 143.412 131.893 131.477 137.563C118.317 143.793 103.722 150.548 89.1973 154.083C74.2173 157.723 59.3773 157.898 46.3223 150.653L49.7873 144.353Z" fill="#FF5B04"/>
<path fill-rule="evenodd" clip-rule="evenodd" d="M192.553 69.2797C194.863 69.2797 196.928 68.3347 198.433 66.8297C199.938 65.3247 200.883 63.2247 200.883 60.9497C200.883 58.6397 199.938 56.5747 198.433 55.0697C196.928 53.5647 194.863 52.6197 192.553 52.6197C190.278 52.6197 188.178 53.5647 186.673 55.0697C185.168 56.5747 184.223 58.6747 184.223 60.9497C184.223 63.2597 185.168 65.3247 186.673 66.8297C188.178 68.3697 190.278 69.2797 192.553 69.2797ZM206.658 75.0897C203.053 78.6947 198.048 80.9347 192.553 80.9347C187.058 80.9347 182.053 78.6947 178.448 75.0897C174.843 71.4847 172.603 66.4797 172.603 60.9497C172.603 55.4197 174.843 50.4147 178.448 46.8097C182.053 43.1697 187.058 40.9297 192.553 40.9297C198.048 40.9297 203.053 43.1697 206.658 46.7747C210.263 50.4147 212.503 55.4197 212.503 60.9497C212.503 66.4797 210.263 71.4847 206.658 75.0897Z" fill="#FF5B04"/>
<path fill-rule="evenodd" clip-rule="evenodd" d="M111.177 61.1602C131.512 61.1602 149.957 69.4552 163.292 82.8252C176.627 96.1952 184.887 114.71 184.887 135.115C184.887 155.52 176.627 174.035 163.292 187.405C149.957 200.775 131.547 209.07 111.177 209.07C90.842 209.07 72.3969 200.775 59.062 187.405C45.762 174 37.502 155.52 37.502 135.115C37.502 114.71 45.762 96.1952 59.097 82.8252C72.432 69.4202 90.842 61.1602 111.177 61.1602ZM154.227 91.9252C143.202 80.8652 128.012 74.0402 111.177 74.0402C94.377 74.0402 79.152 80.8652 68.127 91.9252C57.102 102.985 50.312 118.245 50.312 135.115C50.312 151.985 57.137 167.245 68.127 178.305C79.117 189.365 94.342 196.19 111.177 196.19C127.977 196.19 143.202 189.365 154.227 178.305C165.252 167.245 172.042 151.985 172.042 135.115C172.042 118.245 165.252 102.985 154.227 91.9252Z" fill="#FF5B04"/>
</svg>
