<svg width="250" height="250" viewBox="0 0 250 250" fill="none" xmlns="http://www.w3.org/2000/svg">
<path d="M76.8511 19.7805C76.7546 26.0577 76.6581 32.3348 76.5616 38.5926C70.3076 38.7282 64.073 38.8445 57.819 38.9607L57.2979 38.4182C57.433 32.1411 57.5488 25.8639 57.6646 19.6062L57.5681 19.4899L57.6067 19.4512H191.546C153.327 19.5674 115.089 19.6837 76.8511 19.7805Z" fill="#A2492B"/>
<rect x="38.6904" y="19.3018" width="19.3213" height="19.3213" fill="#451835"/>
<path d="M248.951 57.9473V192.383C242.6 192.402 236.269 192.422 229.938 192.422V192.325H229.745C229.784 147.552 229.842 102.779 229.88 58.0054C236.25 57.986 242.581 57.9666 248.951 57.9473Z" fill="#451835"/>
<path d="M229.938 192.323V192.42H229.745L229.938 192.323Z" fill="#451835"/>
<path d="M229.938 192.323L229.745 192.42V192.323H229.938Z" fill="#451835"/>
<path d="M229.88 57.8691V58.0048H229.745L229.88 57.8691Z" fill="#FEE84F"/>
<path d="M229.88 57.8691L229.745 58.0048V57.8691H229.88Z" fill="#FEE84F"/>
<path d="M229.88 58.0048C229.842 102.778 229.784 147.551 229.745 192.324C223.433 192.363 217.121 192.402 210.79 192.46V192.344H210.636L210.752 58.0241C217.083 57.966 223.414 57.9273 229.745 57.8691V58.0048H229.88Z" fill="#FEE84F"/>
<rect x="192.124" y="19.3018" width="19.3213" height="19.3213" fill="#451835"/>
<rect x="210.309" y="38.6221" width="19.3213" height="19.3213" fill="#451835"/>
<path d="M210.79 192.344V192.46H210.636L210.79 192.344Z" fill="#FEE84F"/>
<path d="M210.791 192.459C210.771 198.814 210.752 205.168 210.752 211.523H210.617V211.658C204.286 211.658 197.955 211.658 191.623 211.697V211.542H191.508C191.508 205.168 191.488 198.755 191.488 192.381H191.546V192.323C197.897 192.323 204.286 192.343 210.636 192.343V192.459H210.791Z" fill="#FEE84F"/>
<path d="M210.79 192.344L210.636 192.46V192.344H210.79Z" fill="#FEE84F"/>
<path d="M210.752 211.523V211.659L210.617 211.523H210.752Z" fill="#FEE84F"/>
<path d="M210.752 38.6699V38.8055H210.617L210.752 38.6699Z" fill="#FEE84F"/>
<path d="M210.752 38.6699L210.617 38.8055V38.6699H210.752Z" fill="#FEE84F"/>
<path d="M210.752 57.8691V58.0241H210.598L210.752 57.8691Z" fill="#A2492B"/>
<path d="M210.752 57.8691L210.598 58.0241V57.8691H210.752Z" fill="#A2492B"/>
<path d="M210.752 211.659H210.617V211.523L210.752 211.659Z" fill="#FEE84F"/>
<path d="M210.617 38.8055H210.752C210.695 45.1602 210.656 51.5148 210.598 57.8695C204.286 57.8501 197.974 57.8114 191.682 57.7726C191.662 51.4567 191.643 45.1602 191.604 38.8249C197.936 38.7668 204.286 38.728 210.617 38.6699V38.8055Z" fill="#FEE84F"/>
<path d="M191.681 57.7725V57.9275L191.565 57.7725H191.681Z" fill="#A2492B"/>
<path d="M191.565 57.7725L191.681 57.9275H191.565V57.7725Z" fill="#A2492B"/>
<path d="M191.566 57.9275H191.682V57.7725C197.975 57.8112 204.286 57.85 210.598 57.8693V58.0243H210.753L210.637 192.344C204.286 192.344 197.897 192.324 191.547 192.324C191.566 147.532 191.566 102.72 191.566 57.9275Z" fill="#A2492B"/>
<path d="M191.624 211.543V211.698H191.508L191.624 211.543Z" fill="#FEE84F"/>
<path d="M191.624 211.543L191.508 211.698V211.543H191.624Z" fill="#FEE84F"/>
<path d="M191.624 211.698C191.566 218.053 191.527 224.388 191.489 230.723C153.289 230.665 115.071 230.607 76.852 230.549C76.7555 224.272 76.659 218.014 76.5625 211.737H76.7362V211.601C108.682 211.524 140.627 211.427 172.572 211.33C178.884 211.408 185.196 211.485 191.508 211.543V211.698H191.624Z" fill="#FEE84F"/>
<path d="M191.604 38.6699V38.8249H191.469L191.604 38.6699Z" fill="#A2492B"/>
<path d="M191.604 19.4697V19.6053H191.469L191.604 19.4697Z" fill="#FEE84F"/>
<path d="M191.604 38.6699L191.469 38.8249V38.6699H191.604Z" fill="#A2492B"/>
<path d="M191.585 0.174365C191.585 6.58713 191.566 13.0193 191.546 19.4514H57.6073C57.5686 13.0774 57.5493 6.70338 57.5107 0.348731L57.6652 0.174365C64.0735 0.116244 70.4626 0.0581218 76.8517 0C115.109 0.0581218 153.347 0.116244 191.585 0.174365Z" fill="#451835"/>
<path d="M191.585 230.723V230.916H191.488L191.585 230.723Z" fill="#451835"/>
<path d="M191.585 230.723L191.488 230.916V230.723H191.585Z" fill="#451835"/>
<path d="M191.585 230.917C191.585 237.272 191.566 243.626 191.546 250H57.6073C57.5686 243.626 57.5493 237.252 57.5107 230.898L57.6652 230.723C64.0735 230.665 70.4626 230.607 76.8517 230.549C115.07 230.607 153.289 230.665 191.488 230.723V230.917H191.585Z" fill="#451835"/>
<path d="M191.547 192.323V192.382L191.488 192.323H191.547Z" fill="#FEE84F"/>
<path d="M191.547 19.4697H191.605L191.469 19.6053H191.605C191.566 25.96 191.508 32.3146 191.469 38.6693C185.158 38.7855 178.884 38.8824 172.572 38.9986C140.627 38.9018 108.682 38.8049 76.7362 38.708V38.5918H76.5625C76.659 32.334 76.7555 26.0569 76.852 19.7797C115.09 19.6828 153.328 19.5666 191.547 19.4697Z" fill="#FEE84F"/>
<path d="M191.547 192.382H191.488V192.323L191.547 192.382Z" fill="#FEE84F"/>
<rect x="38.6904" y="38.6221" width="153.434" height="172.755" fill="#E19526"/>
<path d="M76.1963 76.1289H114.839V95.4502H134.16V76.1289H172.803V175.008H152.345V137.502H134.16V156.824H114.839V137.502H96.6541V175.008H76.1963V76.1289Z" fill="#A2492B"/>
<path d="M76.5616 211.736C76.6581 218.013 76.7546 224.271 76.8511 230.548C70.4621 230.606 64.073 230.665 57.6646 230.723C57.5488 224.465 57.433 218.188 57.2979 211.911L57.819 211.368C64.073 211.484 70.3076 211.601 76.5616 211.736Z" fill="#A2492B"/>
<path d="M76.7362 211.602V211.737L76.5625 211.602H76.7362Z" fill="#FEE84F"/>
<path d="M76.7362 38.5928V38.709H76.5625L76.7362 38.5928Z" fill="#FEE84F"/>
<path d="M76.7362 38.5928L76.5625 38.709V38.5928H76.7362Z" fill="#FEE84F"/>
<path d="M76.7362 211.737H76.5625V211.602L76.7362 211.737Z" fill="#FEE84F"/>
<path d="M57.2974 38.418L57.8185 38.9604C57.7027 45.257 57.5869 51.5341 57.4711 57.8113C51.2171 57.9275 44.9631 58.0438 38.6899 58.16L38.1494 57.6369C38.2652 51.3598 38.4003 45.0826 38.5355 38.8054C44.7894 38.6698 51.0434 38.5342 57.2974 38.418Z" fill="#A2492B"/>
<path d="M57.5895 57.8115V57.9288H57.4727L57.5895 57.8115Z" fill="#FEE84F"/>
<path d="M57.4727 192.384L57.5885 192.519H57.4727V192.384Z" fill="#FEE84F"/>
<path d="M57.5895 57.8115L57.4727 57.9288V57.8115H57.5895Z" fill="#FEE84F"/>
<path d="M57.5884 57.9278V192.383H57.4726V192.518C51.2186 192.402 44.9647 192.286 38.6914 192.17V58.1603C44.9647 58.044 51.2186 57.9278 57.4726 57.8115V57.9278H57.5884Z" fill="#FEE84F"/>
<path d="M57.5885 192.384V192.519L57.4727 192.384H57.5885Z" fill="#FEE84F"/>
<path d="M38.6913 58.1598V192.169L38.1508 192.673C31.8968 192.557 25.6429 192.44 19.4082 192.324V58.0048C25.6429 57.8886 31.8968 57.7723 38.1508 57.6367L38.6913 58.1598Z" fill="#A2492B"/>
<path d="M38.6899 192.169C44.9631 192.285 51.2171 192.401 57.4711 192.518C57.5869 198.814 57.7027 205.072 57.8185 211.368L57.2974 211.911C51.0434 211.775 44.7894 211.659 38.5355 211.523C38.4003 205.246 38.2652 198.969 38.1494 192.673L38.6899 192.169Z" fill="#A2492B"/>
<path d="M19.2537 57.9473V192.383C12.8453 192.402 6.43693 192.422 0.0478516 192.422C0.0864563 147.61 0.144363 102.817 0.182968 58.0054C6.55275 57.986 12.8839 57.9666 19.2537 57.9473Z" fill="#451835"/>
<path d="M0.182968 57.8691V58.0048H0.0478516L0.182968 57.8691Z" fill="#451835"/>
<rect x="172.803" y="38.6221" width="19.3213" height="19.3213" fill="#A2492B"/>
<rect x="58.0117" y="38.6221" width="19.3213" height="19.3213" fill="#FEE84F"/>
<rect x="19.3691" y="38.6221" width="19.3213" height="19.3213" fill="#451835"/>
<rect x="58.0117" y="193.192" width="19.3213" height="19.3213" fill="#FEE84F"/>
<rect x="58.0117" y="211.377" width="19.3213" height="19.3213" fill="#A2492B"/>
<rect x="19.3691" y="192.056" width="19.3213" height="19.3213" fill="#451835"/>
<rect x="211.445" y="192.056" width="19.3213" height="19.3213" fill="#451835"/>
<rect x="192.124" y="211.377" width="19.3213" height="19.3213" fill="#451835"/>
<rect x="38.6904" y="211.377" width="19.3213" height="19.3213" fill="#451835"/>
<rect x="172.803" y="192.056" width="19.3213" height="19.3213" fill="#A2492B"/>
</svg>
