<svg width="250" height="250" viewBox="0 0 250 250" fill="none" xmlns="http://www.w3.org/2000/svg">
<rect width="250" height="250" rx="125" fill="white"/>
<path d="M52.322 76.5003V100.472C52.3224 101.103 52.1985 101.727 51.9574 102.31C51.7163 102.893 51.3626 103.422 50.9167 103.868C50.4708 104.314 49.9414 104.668 49.3587 104.909C48.776 105.15 48.1515 105.274 47.5208 105.273H23.5492C22.9185 105.274 22.294 105.15 21.7113 104.909C21.1286 104.668 20.5992 104.314 20.1533 103.868C19.7074 103.422 19.3537 102.893 19.1126 102.31C18.8715 101.727 18.7476 101.103 18.748 100.472V76.5003C18.7476 75.8697 18.8715 75.2452 19.1126 74.6625C19.3537 74.0798 19.7074 73.5503 20.1533 73.1044C20.5992 72.6585 21.1286 72.3049 21.7113 72.0638C22.294 71.8227 22.9185 71.6988 23.5492 71.6992H47.5208C48.1515 71.6988 48.776 71.8227 49.3587 72.0638C49.9414 72.3049 50.4708 72.6585 50.9167 73.1044C51.3626 73.5503 51.7163 74.0798 51.9574 74.6625C52.1985 75.2452 52.3224 75.8697 52.322 76.5003ZM85.6592 108.654H61.6875C61.0569 108.654 60.4323 108.778 59.8496 109.019C59.2669 109.26 58.7375 109.614 58.2916 110.059C57.8457 110.505 57.4921 111.035 57.2509 111.618C57.0098 112.2 56.8859 112.825 56.8864 113.455V171.136C56.8859 171.767 57.0098 172.391 57.2509 172.974C57.4921 173.557 57.8457 174.086 58.2916 174.532C58.7375 174.978 59.2669 175.332 59.8496 175.573C60.4323 175.814 61.0569 175.938 61.6875 175.937H85.6592C86.2898 175.938 86.9143 175.814 87.497 175.573C88.0797 175.332 88.6092 174.978 89.0551 174.532C89.501 174.086 89.8546 173.557 90.0957 172.974C90.3368 172.391 90.4607 171.767 90.4603 171.136V113.455C90.4607 112.825 90.3368 112.2 90.0957 111.618C89.8546 111.035 89.501 110.505 89.0551 110.059C88.6092 109.614 88.0797 109.26 87.497 109.019C86.9143 108.778 86.2898 108.654 85.6592 108.654ZM157.067 108.654H138.978C137.287 108.655 135.611 108.322 134.048 107.675C132.485 107.027 131.065 106.079 129.869 104.882C128.672 103.686 127.723 102.266 127.076 100.703C126.429 99.1395 126.096 97.4642 126.097 95.7724V76.5003C126.097 75.8697 125.973 75.2452 125.732 74.6625C125.491 74.0798 125.137 73.5503 124.691 73.1044C124.245 72.6585 123.716 72.3049 123.133 72.0638C122.551 71.8227 121.926 71.6988 121.296 71.6992H97.3238C96.6932 71.6988 96.0687 71.8227 95.486 72.0638C94.9033 72.3049 94.3739 72.6585 93.9279 73.1044C93.482 73.5503 93.1284 74.0798 92.8873 74.6625C92.6462 75.2452 92.5223 75.8697 92.5227 76.5003V100.472C92.5223 101.103 92.6462 101.727 92.8873 102.31C93.1284 102.893 93.482 103.422 93.9279 103.868C94.3739 104.314 94.9033 104.668 95.486 104.909C96.0687 105.15 96.6932 105.274 97.3238 105.273H106.115C106.596 105.206 107.082 105.172 107.568 105.172H115.412C117.104 105.171 118.78 105.504 120.343 106.151C121.906 106.799 123.326 107.748 124.522 108.944C125.719 110.14 126.667 111.56 127.315 113.123C127.962 114.687 128.295 116.362 128.294 118.054V171.103C128.294 171.733 128.418 172.358 128.659 172.94C128.9 173.523 129.254 174.053 129.7 174.498C130.145 174.944 130.675 175.298 131.258 175.539C131.84 175.78 132.465 175.904 133.095 175.904H157.067C157.698 175.904 158.322 175.78 158.905 175.539C159.488 175.298 160.017 174.944 160.463 174.498C160.909 174.053 161.263 173.523 161.504 172.94C161.745 172.358 161.869 171.733 161.868 171.103V113.455C161.869 112.825 161.745 112.2 161.504 111.618C161.263 111.035 160.909 110.505 160.463 110.059C160.017 109.614 159.488 109.26 158.905 109.019C158.322 108.778 157.698 108.654 157.067 108.654ZM226.48 108.654H208.392C206.7 108.655 205.024 108.322 203.461 107.675C201.898 107.027 200.478 106.079 199.282 104.882C198.085 103.686 197.137 102.266 196.489 100.703C195.842 99.1395 195.509 97.4642 195.51 95.7724V76.5003C195.51 75.8697 195.386 75.2452 195.145 74.6625C194.904 74.0798 194.55 73.5503 194.105 73.1044C193.659 72.6585 193.129 72.3049 192.546 72.0638C191.964 71.8227 191.339 71.6988 190.709 71.6992H166.703C166.073 71.6988 165.448 71.8227 164.865 72.0638C164.283 72.3049 163.753 72.6585 163.307 73.1044C162.861 73.5503 162.508 74.0798 162.267 74.6625C162.025 75.2452 161.902 75.8697 161.902 76.5003V100.472C161.902 101.103 162.025 101.727 162.267 102.31C162.508 102.893 162.861 103.422 163.307 103.868C163.753 104.314 164.283 104.668 164.865 104.909C165.448 105.15 166.073 105.274 166.703 105.273H175.494C175.976 105.206 176.461 105.172 176.948 105.172H184.792C186.484 105.171 188.159 105.504 189.722 106.151C191.285 106.799 192.705 107.748 193.902 108.944C195.098 110.14 196.047 111.56 196.694 113.123C197.341 114.687 197.674 116.362 197.674 118.054V171.103C197.673 171.733 197.797 172.358 198.038 172.94C198.279 173.523 198.633 174.053 199.079 174.498C199.525 174.944 200.054 175.298 200.637 175.539C201.22 175.78 201.844 175.904 202.475 175.904H226.446C227.077 175.904 227.702 175.78 228.284 175.539C228.867 175.298 229.396 174.944 229.842 174.498C230.288 174.053 230.642 173.523 230.883 172.94C231.124 172.358 231.248 171.733 231.248 171.103V113.455C231.257 112.825 231.14 112.2 230.904 111.615C230.668 111.031 230.317 110.5 229.873 110.052C229.429 109.605 228.9 109.251 228.318 109.011C227.735 108.771 227.11 108.65 226.48 108.654Z" fill="#231F20"/>
</svg>
