<svg width="250" height="250" viewBox="0 0 250 250" fill="none" xmlns="http://www.w3.org/2000/svg">
<rect width="250" height="250" rx="125" fill="white"/>
<path d="M210.06 162.451C203.175 162.281 196.673 165.511 192.635 171.079L180.48 165.851C180.99 163.174 181.245 160.454 181.245 157.734C181.245 135.974 165.095 117.571 143.505 114.809V65.7212C154.725 63.0862 161.695 51.8237 159.018 40.6037C156.34 29.3837 145.12 22.4137 133.9 25.0912C122.68 27.7262 115.71 38.9887 118.388 50.2087C120.173 57.7312 125.995 63.6812 133.475 65.6362H133.39V114.724C126.505 115.446 119.918 117.826 114.138 121.609L100.963 109.241C102.153 106.776 102.79 104.141 102.833 101.421C103.088 90.7962 94.7155 81.9562 84.048 81.7012C73.3805 81.4462 64.583 89.8187 64.328 100.486C64.073 111.111 72.4455 119.951 83.113 120.206C87.108 120.291 91.018 119.144 94.333 116.934L106.36 128.239C95.438 139.884 91.8255 156.629 96.968 171.759L77.248 179.664C68.3655 165.001 49.283 160.326 34.663 169.209C20.043 178.091 15.3255 197.174 24.208 211.794C33.0905 226.414 52.173 231.131 66.793 222.249C75.8455 216.766 81.498 207.034 81.753 196.451C81.838 193.986 81.583 191.479 81.0305 189.056L101.303 180.939C114.01 201.169 140.743 207.246 160.973 194.539C168.198 189.991 173.893 183.446 177.378 175.711L188.81 180.641C188.683 181.449 188.598 182.256 188.598 183.064C188.385 194.624 197.565 204.186 209.125 204.441C220.685 204.654 230.248 195.474 230.503 183.914C230.63 172.311 221.535 162.749 210.06 162.451Z" fill="black"/>
</svg>
