<svg width="250" height="250" viewBox="0 0 250 250" fill="none" xmlns="http://www.w3.org/2000/svg">
<path d="M125 237C186.944 237 237.16 186.927 237.16 125.16C237.16 63.3919 186.944 13.3193 125 13.3193C63.0555 13.3193 12.8398 63.3919 12.8398 125.16C12.8398 186.927 63.0555 237 125 237Z" fill="#EC1C24"/>
<path d="M216.629 125.771L216.947 126.011C216.947 126.011 210.244 51.9225 185.486 15.0052C183.115 11.4685 178.051 10.9604 175.043 13.9774C167.955 21.0825 156.342 40.1027 144.769 71.8636C138.561 70.8387 132.134 70.2959 125.547 70.2959C118.96 70.2959 112.529 70.8387 106.322 71.8636C94.7519 40.1027 83.1387 21.0825 76.0509 13.9774C73.0426 10.9604 67.9787 11.4685 65.6074 15.0052C40.8493 51.9225 34.1466 126.011 34.1466 126.011L34.4651 125.771C32.2907 132.12 31.1094 138.792 31.1094 145.692C31.1094 174.408 51.2204 199.369 80.808 212.101C94.1265 217.832 109.359 221.089 125.55 221.089C141.74 221.089 156.944 217.838 170.251 212.116C199.859 199.39 219.987 174.419 219.987 145.692C219.987 138.795 218.803 132.12 216.631 125.771H216.629Z" fill="white"/>
<path d="M4.75272 185.528C3.87543 185.528 3.01262 185.11 2.47987 184.33C1.62285 183.08 1.94423 181.371 3.20081 180.519C28.8738 163.035 46.6657 167.822 47.4127 168.033C48.8749 168.448 49.7203 169.967 49.3034 171.425C48.8864 172.877 47.3751 173.723 45.9158 173.313C45.7247 173.264 29.6353 169.159 6.30173 185.049C5.82689 185.373 5.28836 185.528 4.75272 185.528Z" fill="#231F20"/>
<path d="M19.3253 206.723C18.8129 206.723 18.2975 206.582 17.8342 206.284C16.5574 205.462 16.1897 203.764 17.0149 202.491C29.6675 182.939 50.7514 179.027 51.6432 178.871C53.1343 178.612 54.5675 179.605 54.8309 181.097C55.0944 182.59 54.0955 184.01 52.6015 184.276C52.3323 184.325 32.9277 188.018 21.6387 205.467C21.1118 206.281 20.2258 206.723 19.3253 206.723Z" fill="#231F20"/>
<path d="M245.249 185.528C244.714 185.528 244.175 185.372 243.7 185.049C220.341 169.144 204.243 173.272 204.086 173.313C202.624 173.711 201.11 172.86 200.702 171.407C200.296 169.955 201.133 168.448 202.589 168.032C203.336 167.822 221.125 163.032 246.801 180.519C248.058 181.374 248.379 183.08 247.522 184.33C246.99 185.11 246.127 185.528 245.249 185.528Z" fill="#231F20"/>
<path d="M230.677 206.723C229.773 206.723 228.89 206.281 228.363 205.467C217.002 187.905 197.597 184.311 197.403 184.276C195.906 184.01 194.908 182.587 195.171 181.097C195.437 179.605 196.879 178.612 198.359 178.871C199.251 179.027 220.334 182.939 232.987 202.491C233.812 203.764 233.445 205.464 232.168 206.284C231.705 206.582 231.189 206.723 230.677 206.723Z" fill="#231F20"/>
<path d="M101.986 138.188C101.705 152.327 90.1443 163.707 75.8992 163.707C61.6541 163.707 49.7832 152.049 49.7832 137.666C49.7832 133.52 50.7792 129.617 52.5077 126.138L101.986 138.186V138.188Z" fill="#A7DFF8"/>
<path d="M93.4922 136.128C93.5501 136.69 93.663 137.845 93.663 138.426C93.663 147.791 86.0482 155.382 76.6586 155.382C67.269 155.382 59.6543 147.788 59.6543 138.426C59.6543 134.993 61.1193 131.355 62.8768 128.685L93.4922 136.128Z" fill="#231F20"/>
<path d="M146.184 138.188C146.464 152.327 158.026 163.707 172.271 163.707C186.516 163.707 198.387 152.049 198.387 137.666C198.387 133.52 197.391 129.617 195.662 126.138L146.184 138.186V138.188Z" fill="#A7DFF8"/>
<path d="M154.848 135.876C154.79 136.439 154.506 137.848 154.506 138.426C154.506 147.791 162.121 155.382 171.51 155.382C180.9 155.382 188.515 147.788 188.515 138.426C188.515 134.993 187.22 131.355 185.46 128.685L154.845 135.876H154.848Z" fill="#231F20"/>
<path d="M131.065 187.567C128.445 187.567 125.648 186.779 122.935 184.671C115.598 190.371 107.639 186.427 104.257 183.306C103.142 182.278 103.076 180.54 104.106 179.428C105.14 178.317 106.88 178.248 107.995 179.278C108.672 179.89 114.851 185.159 120.673 179.35C121.189 178.837 121.89 178.548 122.619 178.548H123.253C123.983 178.548 124.684 178.837 125.199 179.35C131.019 185.154 137.2 179.887 137.886 179.27C139.007 178.253 140.744 178.326 141.769 179.443C142.794 180.554 142.727 182.281 141.616 183.306C139.485 185.275 135.532 187.567 131.065 187.567Z" fill="#231F20"/>
<path d="M122.732 177.782C127.166 177.782 130.761 176.076 130.761 173.971C130.761 171.866 127.166 170.16 122.732 170.16C118.298 170.16 114.703 171.866 114.703 173.971C114.703 176.076 118.298 177.782 122.732 177.782Z" fill="#F7BAD5"/>
<path d="M48.5352 100.806C48.5352 100.806 52.8811 52.7853 68.9271 28.8571C70.4645 26.5647 73.7449 26.2356 75.6964 28.1902C80.3029 32.8066 88.8991 52.6467 96.4184 73.3299C96.4184 73.3299 87.6918 75.296 48.5352 100.803V100.806Z" fill="#F7BAD5"/>
<path d="M203.455 100.806C203.455 100.806 199.109 52.7853 183.063 28.8571C181.526 26.5647 178.245 26.2356 176.294 28.1902C171.687 32.8066 162.639 52.6467 155.117 73.3299C155.117 73.3299 168.801 75.296 203.452 100.803H203.455V100.806Z" fill="#F7BAD5"/>
<path d="M153.096 92.5059C162.016 59.2495 112.156 64.8648 113.27 31.6748C113.381 45.784 110.76 60.7709 120.381 72.1721C104.787 74.0025 99.978 53.1837 95.7276 43.4484C94.3957 61.5909 91.014 89.7776 111.603 97.5497" fill="#D5E9F8"/>
<path d="M157.144 92.5065C167.266 51.1286 112.492 60.402 113.604 27.2119C113.714 41.3211 111.768 54.7144 121.389 66.1184C105.795 67.9488 99.88 48.8363 95.6296 39.101C94.2978 57.2435 104.513 90.4884 132.852 97.5531" fill="white"/>
</svg>
