<svg width="250" height="250" viewBox="0 0 250 250" fill="none" xmlns="http://www.w3.org/2000/svg">
<path d="M122.123 176.822L177.073 121.872C180.713 118.232 185.648 116.202 190.793 116.202C195.938 116.202 200.873 118.232 204.513 121.872C208.153 125.512 210.183 130.447 210.183 135.592C210.183 140.737 208.153 145.672 204.513 149.312L149.563 204.262C145.923 207.902 140.988 209.932 135.843 209.932C130.698 209.932 125.763 207.902 122.123 204.262C118.483 200.622 116.453 195.687 116.453 190.542C116.453 185.397 118.483 180.462 122.123 176.822ZM45.4376 127.612C49.0776 131.252 54.0126 133.282 59.1576 133.282C64.3026 133.282 69.2376 131.252 72.8776 127.612L127.828 72.6616C131.468 69.0216 133.498 64.0866 133.498 58.9416C133.498 53.7966 131.468 48.8616 127.828 45.2216C124.223 41.5466 119.253 39.5166 114.108 39.5166C108.963 39.5166 104.028 41.5466 100.388 45.1866L45.4376 100.137C41.7976 103.777 39.7676 108.712 39.7676 113.857C39.7676 119.002 41.7976 123.972 45.4376 127.612ZM104.378 145.322C108.018 148.962 112.953 150.992 118.098 150.992C123.243 150.992 128.178 148.962 131.818 145.322L145.538 131.602C149.178 127.962 151.208 123.027 151.208 117.882C151.208 112.737 149.178 107.802 145.538 104.162C141.898 100.522 136.963 98.4916 131.818 98.4916C126.673 98.4916 121.738 100.522 118.098 104.162L104.378 117.882C100.738 121.522 98.7076 126.457 98.7076 131.602C98.7076 136.747 100.738 141.682 104.378 145.322Z" fill="#781CFE"/>
</svg>
