<svg width="250" height="250" viewBox="0 0 250 250" fill="none" xmlns="http://www.w3.org/2000/svg">
<rect width="250" height="250" rx="125" fill="white"/>
<g clip-path="url(#clip0_242_94466)">
<path d="M125.015 11.3652C62.4518 11.3652 11.7324 62.2492 11.7324 125.016C11.7324 187.784 62.4516 238.668 125.015 238.668C187.578 238.668 238.297 187.784 238.297 125.016C238.297 62.2492 187.579 11.3652 125.015 11.3652ZM203.295 108.335C202.916 110.391 200.942 112.067 198.892 112.067H173.988L168.976 138.042H195.399C196.614 138.042 197.449 139.033 197.221 140.251L193.349 160.361C192.969 162.418 190.995 164.094 188.945 164.094H164.042L160.245 183.899C159.866 185.956 157.891 187.632 155.842 187.632H130.786C129.571 187.632 128.736 186.642 128.964 185.423L138.151 138.195H107.173L98.289 183.975C97.9094 186.032 95.9355 187.708 93.8854 187.708H68.8297C67.6147 187.708 66.7794 186.718 67.0072 185.499L71.1072 164.247H44.5329C43.3181 164.247 42.4828 163.256 42.7106 162.037L46.5829 141.928C46.9625 139.871 48.9366 138.195 50.9866 138.195H75.8908L80.9017 112.22H54.7833C53.5683 112.22 52.7332 111.23 52.961 110.011L56.8333 89.901C57.2888 87.692 59.2627 86.0161 61.313 86.0161H86.0651L89.8615 66.211C90.2411 64.1544 92.215 62.4785 94.265 62.4785H119.321C120.536 62.4785 121.371 63.4686 121.143 64.6874L111.956 111.915H142.934L151.818 66.1344C152.197 64.0778 154.171 62.4019 156.221 62.4019H181.277C182.492 62.4019 183.327 63.392 183.099 64.6108L178.999 85.8634H205.422C206.636 85.8634 207.472 86.8535 207.244 88.0723L203.296 108.335H203.295Z" fill="black"/>
</g>
<defs>
<clipPath id="clip0_242_94466">
<rect width="227.302" height="227.302" fill="white" transform="translate(11.3652 11.3652)"/>
</clipPath>
</defs>
</svg>
