<svg width="250" height="250" viewBox="0 0 250 250" fill="none" xmlns="http://www.w3.org/2000/svg">
<path d="M81.2503 95.8438H66.6562V110.438H81.2503V95.8438Z" fill="#FED955"/>
<path d="M81.2503 124.999H66.6562V139.593H81.2503V124.999Z" fill="#FED955"/>
<path d="M81.2503 110.404H66.6562V124.998H81.2503V110.404Z" fill="#FED955"/>
<path d="M81.2503 139.594H66.6562V154.188H81.2503V139.594Z" fill="#FED955"/>
<path d="M139.594 66.6543H125V81.2484H139.594V66.6543Z" fill="#FED955"/>
<path d="M139.594 168.749H125V183.343H139.594V168.749Z" fill="#FED955"/>
<path d="M154.188 66.6543H139.594V81.2484H154.188V66.6543Z" fill="#FED955"/>
<path d="M168.75 66.6543H154.156V81.2484H168.75V66.6543Z" fill="#9695F8"/>
<path d="M95.8441 66.6543H81.25V81.2484H95.8441V66.6543Z" fill="#9695F8"/>
<path d="M183.342 154.154H168.748V168.748H183.342V154.154Z" fill="#9695F8"/>
<path d="M81.2523 154.154H66.6582V168.748H81.2523V154.154Z" fill="#9695F8"/>
<path d="M154.188 52.0938H139.594V66.6878H154.188V52.0938Z" fill="#9695F8"/>
<path d="M154.188 37.499H139.594V52.0931H154.188V37.499Z" fill="#5552FD"/>
<path d="M154.188 197.904H139.594V212.498H154.188V197.904Z" fill="#5552FD"/>
<path d="M154.188 183.344H139.594V197.938H154.188V183.344Z" fill="#9695F8"/>
<path d="M124.998 52.0938H110.404V66.6878H124.998V52.0938Z" fill="#9695F8"/>
<path d="M124.998 37.499H110.404V52.0931H124.998V37.499Z" fill="#5552FD"/>
<path d="M124.998 197.904H110.404V212.498H124.998V197.904Z" fill="#5552FD"/>
<path d="M124.998 183.344H110.404V197.938H124.998V183.344Z" fill="#9695F8"/>
<path d="M139.594 52.0938H125V66.6878H139.594V52.0938Z" fill="#9695F8"/>
<path d="M139.594 37.499H125V52.0931H139.594V37.499Z" fill="#5552FD"/>
<path d="M139.594 197.904H125V212.498H139.594V197.904Z" fill="#5552FD"/>
<path d="M139.594 183.344H125V197.938H139.594V183.344Z" fill="#9695F8"/>
<path d="M110.438 52.0938H95.8438V66.6878H110.438V52.0938Z" fill="#9695F8"/>
<path d="M110.438 37.499H95.8438V52.0931H110.438V37.499Z" fill="#5552FD"/>
<path d="M110.438 197.904H95.8438V212.498H110.438V197.904Z" fill="#5552FD"/>
<path d="M110.438 183.344H95.8438V197.938H110.438V183.344Z" fill="#9695F8"/>
<path d="M183.342 81.249H168.748V95.8431H183.342V81.249Z" fill="#9695F8"/>
<path d="M81.2503 81.249H66.6562V95.8431H81.2503V81.249Z" fill="#9695F8"/>
<path d="M168.75 168.749H154.156V183.343H168.75V168.749Z" fill="#9695F8"/>
<path d="M95.8441 168.749H81.25V183.343H95.8441V168.749Z" fill="#9695F8"/>
<path d="M197.938 95.8438H183.344V110.438H197.938V95.8438Z" fill="#9695F8"/>
<path d="M66.6898 95.8438H52.0957V110.438H66.6898V95.8438Z" fill="#9695F8"/>
<path d="M52.0941 95.8438H37.5V110.438H52.0941V95.8438Z" fill="#5552FD"/>
<path d="M66.6898 81.249H52.0957V95.8431H66.6898V81.249Z" fill="#5552FD"/>
<path d="M197.938 81.249H183.344V95.8431H197.938V81.249Z" fill="#5552FD"/>
<path d="M168.75 183.344H154.156V197.938H168.75V183.344Z" fill="#5552FD"/>
<path d="M66.6898 154.154H52.0957V168.748H66.6898V154.154Z" fill="#5552FD"/>
<path d="M81.2503 66.6543H66.6562V81.2484H81.2503V66.6543Z" fill="#5552FD"/>
<path d="M183.342 66.6543H168.748V81.2484H183.342V66.6543Z" fill="#5552FD"/>
<path d="M183.342 168.749H168.748V183.343H183.342V168.749Z" fill="#5552FD"/>
<path d="M81.2503 168.749H66.6562V183.343H81.2503V168.749Z" fill="#5552FD"/>
<path d="M95.8441 52.0938H81.25V66.6878H95.8441V52.0938Z" fill="#5552FD"/>
<path d="M168.75 52.0938H154.156V66.6878H168.75V52.0938Z" fill="#5552FD"/>
<path d="M197.938 154.154H183.344V168.748H197.938V154.154Z" fill="#5552FD"/>
<path d="M95.8441 183.344H81.25V197.938H95.8441V183.344Z" fill="#5552FD"/>
<path d="M212.5 95.8447H197.906V110.439H212.5V95.8447Z" fill="#5552FD"/>
<path d="M197.938 110.404H183.344V124.998H197.938V110.404Z" fill="#9695F8"/>
<path d="M66.6898 110.404H52.0957V124.998H66.6898V110.404Z" fill="#9695F8"/>
<path d="M52.0941 110.404H37.5V124.998H52.0941V110.404Z" fill="#5552FD"/>
<path d="M212.5 110.404H197.906V124.998H212.5V110.404Z" fill="#5552FD"/>
<path d="M197.938 124.999H183.344V139.593H197.938V124.999Z" fill="#9695F8"/>
<path d="M66.6898 124.999H52.0957V139.593H66.6898V124.999Z" fill="#9695F8"/>
<path d="M52.0941 124.999H37.5V139.593H52.0941V124.999Z" fill="#5552FD"/>
<path d="M212.5 124.999H197.906V139.593H212.5V124.999Z" fill="#5552FD"/>
<path d="M197.938 139.594H183.344V154.188H197.938V139.594Z" fill="#9695F8"/>
<path d="M66.6898 139.594H52.0957V154.188H66.6898V139.594Z" fill="#9695F8"/>
<path d="M52.0941 139.594H37.5V154.188H52.0941V139.594Z" fill="#5552FD"/>
<path d="M212.5 139.594H197.906V154.188H212.5V139.594Z" fill="#5552FD"/>
<path d="M154.188 168.749H139.594V183.343H154.188V168.749Z" fill="#FED955"/>
<path d="M139.594 95.8438H125V110.438H139.594V95.8438Z" fill="#FED955"/>
<path d="M139.594 124.999H125V139.593H139.594V124.999Z" fill="#FED955"/>
<path d="M139.594 139.594H125V154.188H139.594V139.594Z" fill="#FED955"/>
<path d="M139.594 81.249H125V95.8431H139.594V81.249Z" fill="#FED955"/>
<path d="M139.594 154.154H125V168.748H139.594V154.154Z" fill="#FED955"/>
<path d="M110.438 124.999H95.8438V139.593H110.438V124.999Z" fill="#FED955"/>
<path d="M110.438 110.404H95.8438V124.998H110.438V110.404Z" fill="#FED955"/>
<path d="M110.438 139.594H95.8438V154.188H110.438V139.594Z" fill="#FED955"/>
<path d="M110.438 81.249H95.8438V95.8431H110.438V81.249Z" fill="#FED955"/>
<path d="M110.438 154.154H95.8438V168.748H110.438V154.154Z" fill="#FED955"/>
<path d="M154.188 124.999H139.594V139.593H154.188V124.999Z" fill="#FED955"/>
<path d="M154.188 110.404H139.594V124.998H154.188V110.404Z" fill="#FED955"/>
<path d="M154.188 139.594H139.594V154.188H154.188V139.594Z" fill="#FED955"/>
<path d="M154.188 81.249H139.594V95.8431H154.188V81.249Z" fill="#FED955"/>
<path d="M154.188 154.154H139.594V168.748H154.188V154.154Z" fill="#FED955"/>
<path d="M124.998 66.6543H110.404V81.2484H124.998V66.6543Z" fill="#FED955"/>
<path d="M124.998 168.749H110.404V183.343H124.998V168.749Z" fill="#FED955"/>
<path d="M110.438 66.6543H95.8438V81.2484H110.438V66.6543Z" fill="#FED955"/>
<path d="M110.438 168.749H95.8438V183.343H110.438V168.749Z" fill="#FED955"/>
<path d="M124.998 95.8438H110.404V110.438H124.998V95.8438Z" fill="#FED955"/>
<path d="M124.998 124.999H110.404V139.593H124.998V124.999Z" fill="#FED955"/>
<path d="M110.438 95.8438H95.8438V110.438H110.438V95.8438Z" fill="#5552FD"/>
<path d="M139.594 110.404H125V124.998H139.594V110.404Z" fill="#5552FD"/>
<path d="M168.75 95.8438H154.156V110.438H168.75V95.8438Z" fill="#5552FD"/>
<path d="M168.75 124.999H154.156V139.593H168.75V124.999Z" fill="#5552FD"/>
<path d="M168.75 110.404H154.156V124.998H168.75V110.404Z" fill="#5552FD"/>
<path d="M168.75 139.594H154.156V154.188H168.75V139.594Z" fill="#5552FD"/>
<path d="M168.75 81.249H154.156V95.8431H168.75V81.249Z" fill="#5552FD"/>
<path d="M168.75 154.154H154.156V168.748H168.75V154.154Z" fill="#5552FD"/>
<path d="M95.8441 95.8438H81.25V110.438H95.8441V95.8438Z" fill="#5552FD"/>
<path d="M95.8441 124.999H81.25V139.593H95.8441V124.999Z" fill="#5552FD"/>
<path d="M95.8441 110.404H81.25V124.998H95.8441V110.404Z" fill="#5552FD"/>
<path d="M95.8441 139.594H81.25V154.188H95.8441V139.594Z" fill="#5552FD"/>
<path d="M95.8441 81.249H81.25V95.8431H95.8441V81.249Z" fill="#5552FD"/>
<path d="M95.8441 154.154H81.25V168.748H95.8441V154.154Z" fill="#5552FD"/>
<path d="M154.188 95.8438H139.594V110.438H154.188V95.8438Z" fill="#5552FD"/>
<path d="M124.998 110.404H110.404V124.998H124.998V110.404Z" fill="#5552FD"/>
<path d="M124.998 139.594H110.404V154.188H124.998V139.594Z" fill="#FED955"/>
<path d="M124.998 81.249H110.404V95.8431H124.998V81.249Z" fill="#FED955"/>
<path d="M124.998 154.154H110.404V168.748H124.998V154.154Z" fill="#FED955"/>
<path d="M183.342 95.8438H168.748V110.438H183.342V95.8438Z" fill="#FED955"/>
<path d="M183.342 124.999H168.748V139.593H183.342V124.999Z" fill="#FED955"/>
<path d="M183.342 110.404H168.748V124.998H183.342V110.404Z" fill="#FED955"/>
<path d="M183.342 139.594H168.748V154.188H183.342V139.594Z" fill="#FED955"/>
</svg>
