<svg width="250" height="250" viewBox="0 0 250 250" fill="none" xmlns="http://www.w3.org/2000/svg">
<rect width="250" height="250" rx="125" fill="white"/>
<g clip-path="url(#clip0_242_94472)">
<path d="M211.182 103.904V72.2313L177.013 52.5039L142.843 72.2313V105.558L123.762 118.097L107.188 105.8V72.2313L73.0182 52.5039L38.8485 72.2313V103.904L11.3643 119.772V159.228L45.534 178.956L79.7037 159.228V127.556L99.0321 116.396L111.759 125.839L90.103 138.342V177.799L124.273 197.526L158.442 177.799V138.342L136.541 125.697L150.837 116.302L170.327 127.554V159.228L204.497 178.956L238.667 159.228V119.772L211.182 103.904ZM45.534 163.516L24.7358 151.508V127.493L45.4794 115.517L66.3335 127.557V151.508L45.534 163.516ZM93.8171 103.968L73.0732 115.944L52.2194 103.904V79.9511L73.0176 67.9434L93.8157 79.9511L93.8171 103.968ZM145.072 170.079L124.273 182.087L103.475 170.079V146.063L124.273 134.055L145.072 146.063V170.079ZM156.214 79.9511L177.012 67.9434L197.81 79.9511V103.904L176.956 115.944L156.213 103.968L156.214 79.9511ZM225.296 151.508L204.498 163.516L183.7 151.508V127.556L204.554 115.516L225.297 127.491L225.296 151.508Z" fill="#5959D1"/>
</g>
<defs>
<clipPath id="clip0_242_94472">
<rect width="227.302" height="227.302" fill="white" transform="translate(11.3643 11.3643)"/>
</clipPath>
</defs>
</svg>
