<svg width="250" height="250" viewBox="0 0 250 250" fill="none" xmlns="http://www.w3.org/2000/svg">
<rect width="250" height="250" rx="125" fill="white"/>
<g clip-path="url(#clip0_242_94445)">
<path d="M125.019 238.667C62.3493 238.667 11.3643 187.683 11.3643 125.015C11.3643 62.3482 62.3493 11.3643 125.019 11.3643C187.683 11.3643 238.667 62.3493 238.667 125.015C238.667 187.682 187.683 238.667 125.019 238.667ZM125.019 26.5199C70.7041 26.5199 26.5199 70.7041 26.5199 125.015C26.5199 179.327 70.7041 223.511 125.019 223.511C179.327 223.511 223.511 179.327 223.511 125.015C223.511 70.7041 179.327 26.5199 125.019 26.5199Z" fill="url(#paint0_linear_242_94445)"/>
<path d="M179.885 173.591C179.585 173.591 179.298 173.472 179.086 173.261C178.874 173.05 178.755 172.763 178.754 172.464V79.0366C178.754 77.572 178.393 76.1301 177.704 74.8377C177.014 73.5454 176.018 72.4424 174.802 71.6258C173.586 70.8092 172.188 70.304 170.731 70.1549C169.274 70.0057 167.803 70.217 166.447 70.7703C154.216 75.7921 142.678 82.3585 132.113 90.3095C110.641 106.492 101.848 126.775 101.848 146.112C101.848 165.45 114.721 173.229 125.163 173.229C135.606 173.229 148.681 164.119 148.681 146.112C148.681 128.106 143.992 120.74 137.877 110.221C143.555 107.204 149.649 105.045 155.96 103.813C156.623 103.68 157.312 103.771 157.918 104.073C158.524 104.376 159.011 104.871 159.304 105.481C159.497 105.885 159.598 106.327 159.599 106.775V173.591C159.601 174.592 159.8 175.583 160.185 176.508C160.569 177.433 161.133 178.272 161.842 178.979C162.551 179.686 163.393 180.246 164.319 180.628C165.245 181.01 166.237 181.205 167.239 181.203H186.316V173.591H179.885ZM125.175 169.175C120.654 169.175 113.308 163.206 113.308 147.541C113.308 131.876 122.859 121.391 125.277 119.759C127.334 121.211 137.245 131.685 137.245 147.53C137.245 163.375 129.695 169.175 125.175 169.175ZM106.097 107.078C102.346 105.436 98.4059 104.264 94.3671 103.587C93.9372 103.523 93.4985 103.552 93.081 103.673C92.6636 103.794 92.2773 104.004 91.9486 104.289C91.62 104.573 91.3569 104.925 91.1773 105.321C90.9977 105.717 90.9059 106.147 90.9082 106.582V173.591C90.9065 174.592 90.7075 175.583 90.3227 176.508C89.9378 177.433 89.3746 178.272 88.6652 178.979C87.9558 179.686 87.114 180.246 86.1881 180.628C85.2621 181.01 84.2701 181.205 83.2686 181.203H63.7285V173.591H70.6681C70.9673 173.591 71.2544 173.472 71.4663 173.261C71.6782 173.05 71.7976 172.763 71.7982 172.464V79.1491C71.8048 77.6841 72.1712 76.2431 72.8652 74.9528C73.5592 73.6625 74.5596 72.5625 75.7784 71.7495C76.9972 70.9365 78.397 70.4353 79.8549 70.2901C81.3127 70.1449 82.7839 70.3601 84.1391 70.9167C96.8716 76.0369 108.827 82.909 119.66 91.3341C114.46 95.9564 109.899 101.251 106.097 107.078Z" fill="url(#paint1_linear_242_94445)"/>
</g>
<defs>
<linearGradient id="paint0_linear_242_94445" x1="210.066" y1="29.4037" x2="37.9818" y2="222.858" gradientUnits="userSpaceOnUse">
<stop stop-color="#16D6A1"/>
<stop offset="1" stop-color="#0BC6DA"/>
</linearGradient>
<linearGradient id="paint1_linear_242_94445" x1="64.3156" y1="188.222" x2="191.595" y2="70.2946" gradientUnits="userSpaceOnUse">
<stop stop-color="#0AC4DD"/>
<stop offset="1" stop-color="#18D995"/>
</linearGradient>
<clipPath id="clip0_242_94445">
<rect width="227.302" height="227.302" fill="white" transform="translate(11.3643 11.3643)"/>
</clipPath>
</defs>
</svg>
