<svg width="250" height="250" viewBox="0 0 250 250" fill="none" xmlns="http://www.w3.org/2000/svg">
<g clip-path="url(#clip0_242_93635)">
<rect width="250" height="250" rx="125" fill="white"/>
<path d="M125.467 251C100.647 250.994 76.3852 243.627 55.7508 229.833C35.1165 216.038 19.0359 196.435 9.54254 173.501C0.0491433 150.568 -2.43075 125.334 2.41645 100.991C7.26364 76.6485 19.2202 54.2897 36.7743 36.742C54.3284 19.1943 76.6917 7.24584 101.036 2.40752C125.381 -2.4308 150.613 0.0582928 173.543 9.56005C196.473 19.0618 216.071 35.1495 229.858 55.7889C243.645 76.4283 251.003 100.692 251 125.513C250.955 158.788 237.713 190.687 214.18 214.212C190.646 237.737 158.743 250.967 125.467 251ZM187.495 104.12V163.104H198.907V94.6105C198.907 93.3757 198.561 92.1655 197.91 91.1162C197.26 90.0668 196.329 89.2199 195.223 88.6706C194.116 88.1191 192.878 87.8843 191.645 87.9922C190.413 88.1001 189.235 88.5464 188.24 89.2819L133.996 130.113C133.179 130.734 132.516 131.534 132.057 132.452C131.598 133.371 131.357 134.382 131.352 135.409V163.104H142.764V137.779L187.465 104.15L187.495 104.12ZM63.7602 104.12L63.7994 104.15L108.507 137.779V163.101H119.949V135.409C119.943 134.378 119.699 133.363 119.236 132.442C118.774 131.521 118.105 130.72 117.282 130.1L63.0279 89.2492C62.0348 88.5108 60.856 88.0628 59.6232 87.9553C58.3903 87.8478 57.1518 88.0849 56.0458 88.6403C54.9399 89.1956 54.01 90.0473 53.3599 91.1004C52.7098 92.1534 52.3651 93.3664 52.3642 94.604V163.104H63.7765V104.12H63.7602Z" fill="#60C1B0"/>
</g>
<defs>
<clipPath id="clip0_242_93635">
<rect width="250" height="250" rx="125" fill="white"/>
</clipPath>
</defs>
</svg>
