<svg width="250" height="250" viewBox="0 0 250 250" fill="none" xmlns="http://www.w3.org/2000/svg">
<path d="M208.021 131.043L208.244 130.82C215.327 123.826 215.817 112.599 209.357 105.026L133.712 13.6992C128.99 8.13054 120.392 8.17509 115.714 13.7438L40.2477 105.828C33.8771 113.446 34.4117 124.672 41.5396 131.622C49.4694 139.374 62.3442 138.705 69.4721 130.241L114.155 74.8658C119.679 68.2725 129.792 68.2725 135.361 74.7767L180.133 129.795C187.305 138.26 200.18 138.794 208.065 130.998L208.021 131.043Z" fill="url(#paint0_linear_242_94933)"/>
<path d="M208.421 209.268L208.643 209.001C215.326 201.115 215.326 189.577 208.643 181.692L129.702 86.4003C127.073 83.2818 122.262 83.3264 119.634 86.4003L40.7366 183.162C34.0988 191.092 34.1433 202.63 40.9148 210.471C49.201 220.138 64.1251 220.316 72.6786 210.872L116.693 160.754C120.97 156.031 128.41 155.987 132.731 160.709L176.657 209.847C185.255 219.203 200.179 218.935 208.421 209.224V209.268Z" fill="url(#paint1_linear_242_94933)"/>
<defs>
<linearGradient id="paint0_linear_242_94933" x1="124.847" y1="9.55613" x2="124.847" y2="121.91" gradientUnits="userSpaceOnUse">
<stop stop-color="#FB4459"/>
<stop offset="1" stop-color="#B60843"/>
</linearGradient>
<linearGradient id="paint1_linear_242_94933" x1="124.712" y1="84.0837" x2="124.712" y2="217.866" gradientUnits="userSpaceOnUse">
<stop stop-color="#843BD2"/>
<stop offset="1" stop-color="#3414FC"/>
</linearGradient>
</defs>
</svg>
