<svg width="250" height="250" viewBox="0 0 250 250" fill="none" xmlns="http://www.w3.org/2000/svg">
<path d="M172.677 45.144L125.375 92.4456L78.0733 45.144H59.3831C58.1805 45.144 57.5792 46.5972 58.431 47.449L125.375 114.393L192.319 47.449C193.171 46.5972 192.57 45.144 191.367 45.144H172.677ZM216.12 45.5449L136.349 125.316L216.12 205.088C216.371 205.338 216.721 205.488 217.022 205.488H217.072C217.724 205.488 218.375 204.937 218.375 204.135V46.4969C218.375 45.6952 217.724 45.144 217.022 45.144C216.671 45.144 216.371 45.2443 216.07 45.5449H216.12ZM187.408 154.479V96.2037L202.892 80.7204V170.012L187.408 154.529V154.479ZM158.246 125.366L171.875 111.737V138.996L158.246 125.366ZM32.375 46.4969V204.135C32.375 204.937 33.0264 205.488 33.6778 205.488H33.7279C34.0286 205.488 34.3793 205.338 34.6298 205.088H34.68L114.452 125.316L34.68 45.5449C34.4294 45.2944 34.0787 45.144 33.7279 45.144C33.0264 45.144 32.375 45.6952 32.375 46.4969ZM47.8583 80.6703L63.3416 96.1536V154.429L47.8583 169.912V80.6703ZM78.875 111.687L92.5043 125.316L78.875 138.945V111.687ZM58.431 203.234C57.5792 204.085 58.1805 205.538 59.3831 205.538H78.0733L125.375 158.237L172.677 205.538H191.367C192.57 205.538 193.171 204.085 192.319 203.234L125.375 136.29L58.431 203.234Z" fill="url(#paint0_linear_242_94934)"/>
<path fill-rule="evenodd" clip-rule="evenodd" d="M172.677 45.144L125.375 92.4456L78.0733 45.144H59.3831C58.1805 45.144 57.5792 46.5972 58.431 47.449L125.375 114.393L192.319 47.449C193.171 46.5972 192.57 45.144 191.367 45.144H172.677ZM216.12 45.5449L136.349 125.316L216.12 205.088C216.371 205.338 216.721 205.488 217.022 205.488H217.072C217.724 205.488 218.375 204.937 218.375 204.135V46.4969C218.375 45.6952 217.724 45.144 217.022 45.144C216.671 45.144 216.371 45.2443 216.07 45.5449H216.12ZM187.408 154.479V96.2037L202.892 80.7204V170.012L187.408 154.529V154.479ZM158.246 125.366L171.875 111.737V138.996L158.246 125.366ZM32.375 46.4969V204.135C32.375 204.937 33.0264 205.488 33.6778 205.488H33.7279C34.0286 205.488 34.3793 205.338 34.6298 205.088H34.68L114.452 125.316L34.68 45.5449C34.4294 45.2944 34.0787 45.144 33.7279 45.144C33.0264 45.144 32.375 45.6952 32.375 46.4969ZM47.8583 80.6703L63.3416 96.1536V154.429L47.8583 169.912V80.6703ZM78.875 111.687L92.5043 125.316L78.875 138.945V111.687ZM58.431 203.234C57.5792 204.085 58.1805 205.538 59.3831 205.538H78.0733L125.375 158.237L172.677 205.538H191.367C192.57 205.538 193.171 204.085 192.319 203.234L125.375 136.29L58.431 203.234Z" fill="url(#paint1_linear_242_94934)"/>
<defs>
<linearGradient id="paint0_linear_242_94934" x1="125.375" y1="45.144" x2="125.375" y2="205.538" gradientUnits="userSpaceOnUse">
<stop stop-color="#64D57D"/>
<stop offset="1" stop-color="#4EA67D"/>
</linearGradient>
<linearGradient id="paint1_linear_242_94934" x1="125.375" y1="45.144" x2="125.375" y2="205.538" gradientUnits="userSpaceOnUse">
<stop stop-color="#64D57D"/>
<stop offset="1" stop-color="#4EA67D"/>
</linearGradient>
</defs>
</svg>
