<svg width="250" height="250" viewBox="0 0 250 250" fill="none" xmlns="http://www.w3.org/2000/svg">
<path fill-rule="evenodd" clip-rule="evenodd" d="M120.08 78.4415C127.43 82.2215 135.48 83.5165 143.18 83.4815C147.66 87.5765 151.37 92.4065 154.87 97.3765C156.305 99.4415 157.635 101.612 158.79 103.852C161.45 108.997 163.445 114.457 165.405 119.952C166 121.562 166.56 123.207 167.19 124.817C167.365 125.517 167.575 126.217 167.785 126.917C170.865 137.452 175.345 148.722 181.365 157.997C183.36 161.042 185.565 163.947 188.015 166.642C188.505 167.167 188.995 167.692 189.485 168.182C191.795 170.597 194.105 173.012 195.435 176.057C197.08 179.837 196.94 184.212 195.96 188.202C191.305 207.102 173.105 212.072 155.745 212.527V212.492C149.235 212.632 142.76 212.142 137.02 211.547C137.02 211.547 109.335 208.677 85.8496 191.527L85.0796 190.967C82.3496 188.937 79.7246 186.732 77.2396 184.352C70.6596 178.087 64.8146 170.947 60.3346 163.142C60.3696 163.107 60.4046 163.072 60.4396 163.037C59.9146 162.092 59.3896 161.112 58.8996 160.132C54.5596 151.452 51.9346 142.037 51.7946 131.992C51.5846 115.157 57.3596 97.9365 68.2796 85.4415V85.4065C74.1946 78.9315 81.6146 73.8215 90.3646 70.9165C95.8596 69.0965 101.635 68.1865 107.41 68.3265C110.98 72.5265 115.25 75.9215 120.08 78.4415Z" fill="url(#paint0_linear_242_93637)"/>
<path fill-rule="evenodd" clip-rule="evenodd" d="M177.548 64.756L177.793 64.616C146.923 11.941 106.568 53.381 106.568 53.381L106.638 53.486C129.808 94.191 173.943 67.066 177.548 64.756Z" fill="url(#paint1_linear_242_93637)"/>
<path d="M139.295 155.477C130.79 175.812 114.445 189.287 94.6696 191.317C94.2496 191.387 88.8246 191.807 85.8496 191.597C109.335 208.747 137.02 211.617 137.02 211.617C142.935 212.212 149.655 212.737 156.41 212.562C158.79 206.367 160.12 199.297 159.735 191.247C158.86 172.557 169.675 162.967 181.4 158.067C175.38 148.757 170.9 137.522 167.82 126.987C158.615 129.332 146.995 136.997 139.295 155.477Z" fill="url(#paint2_linear_242_93637)"/>
<path d="M159.315 191.071C159.7 199.121 158.09 206.366 155.71 212.561C173.105 212.106 191.305 207.136 195.925 188.236C196.905 184.211 197.045 179.871 195.4 176.091C193.79 172.416 190.71 169.616 187.98 166.641C185.425 163.806 183.115 160.796 181.05 157.576C169.36 162.511 158.405 172.381 159.315 191.071Z" fill="url(#paint3_linear_242_93637)"/>
<path d="M167.189 124.817C164.529 117.677 162.254 110.502 158.789 103.852C157.634 101.612 156.339 99.4424 154.869 97.3774C151.369 92.4074 147.659 87.6124 143.179 83.4824C135.479 83.5174 127.429 82.2224 120.079 78.4424C112.624 89.0124 104.119 106.932 111.924 127.372C123.439 157.577 100.059 178.227 85.0791 191.002L85.8491 191.562C88.6491 191.772 91.4841 191.737 94.2841 191.457C114.059 189.427 131.349 175.637 139.854 155.302C147.554 136.857 158.789 129.857 167.924 127.407C167.644 126.532 167.399 125.692 167.189 124.817Z" fill="url(#paint4_linear_242_93637)"/>
<path d="M69.0844 84.6016C57.6044 97.1666 51.5844 114.807 51.7944 132.062C51.8994 142.107 54.5594 151.522 58.8994 160.202C59.5644 161.497 60.2294 162.792 60.9644 164.052C85.0444 139.867 76.3294 103.817 69.0844 84.6016Z" fill="url(#paint5_linear_242_93637)"/>
<path d="M112.309 127.372C104.504 106.897 112.834 89.117 120.289 78.547C115.389 76.027 111.014 72.562 107.444 68.362C101.634 68.257 95.8941 69.132 90.3991 70.952C81.6491 73.857 74.2291 78.967 68.3141 85.442C75.4191 104.202 83.9241 139.482 60.3691 163.142C64.8491 170.947 70.6941 178.087 77.2741 184.352C79.8641 186.837 82.6291 189.147 85.4991 191.247C100.444 178.542 123.824 157.577 112.309 127.372Z" fill="url(#paint6_linear_242_93637)"/>
<path d="M141.395 56.7416C157.705 63.1816 169.15 64.9316 177.445 64.6866L177.69 64.5466C146.785 11.8716 106.43 53.3116 106.43 53.3116L106.5 53.4166C115.18 51.8766 127.85 51.4216 141.395 56.7416Z" fill="url(#paint7_linear_242_93637)"/>
<path d="M141.605 56.3919C128.06 51.0719 115.355 51.2469 106.5 53.4519C129.705 94.157 173.84 67.0319 177.445 64.7219C169.15 64.9319 157.915 62.8319 141.605 56.3919Z" fill="url(#paint8_linear_242_93637)"/>
<defs>
<linearGradient id="paint0_linear_242_93637" x1="35.3709" y1="90.3438" x2="224.163" y2="203.477" gradientUnits="userSpaceOnUse">
<stop stop-color="#E54033"/>
<stop offset="0.4896" stop-color="#FECA1A"/>
<stop offset="1" stop-color="#AFD803"/>
</linearGradient>
<linearGradient id="paint1_linear_242_93637" x1="29189.7" y1="29938" x2="17370.7" y2="17780.6" gradientUnits="userSpaceOnUse">
<stop offset="0.15" stop-color="#6CBF00"/>
<stop offset="1" stop-color="#AFD803"/>
</linearGradient>
<linearGradient id="paint2_linear_242_93637" x1="66.3303" y1="192.997" x2="184.629" y2="164.233" gradientUnits="userSpaceOnUse">
<stop offset="0.21" stop-color="#E54033"/>
<stop offset="0.84" stop-color="#FECA1A"/>
</linearGradient>
<linearGradient id="paint3_linear_242_93637" x1="159.533" y1="185.014" x2="196.036" y2="185.287" gradientUnits="userSpaceOnUse">
<stop stop-color="#FECA1A"/>
<stop offset="0.4" stop-color="#FECA1A"/>
<stop offset="1" stop-color="#AFD803"/>
</linearGradient>
<linearGradient id="paint4_linear_242_93637" x1="76.911" y1="193.735" x2="151.749" y2="92.4167" gradientUnits="userSpaceOnUse">
<stop offset="0.16" stop-color="#E54033"/>
<stop offset="0.84" stop-color="#FECA1A"/>
</linearGradient>
<linearGradient id="paint5_linear_242_93637" x1="66.0092" y1="93.0592" x2="62.6952" y2="158.5" gradientUnits="userSpaceOnUse">
<stop stop-color="#FECA1A"/>
<stop offset="0.76" stop-color="#E54033"/>
</linearGradient>
<linearGradient id="paint6_linear_242_93637" x1="102.619" y1="76.0662" x2="82.6317" y2="151.962" gradientUnits="userSpaceOnUse">
<stop offset="0.16" stop-color="#FECA1A"/>
<stop offset="1" stop-color="#E54033"/>
</linearGradient>
<linearGradient id="paint7_linear_242_93637" x1="110.362" y1="39.7271" x2="184.366" y2="67.0049" gradientUnits="userSpaceOnUse">
<stop offset="0.15" stop-color="#6CBF00"/>
<stop offset="1" stop-color="#AFD803"/>
</linearGradient>
<linearGradient id="paint8_linear_242_93637" x1="29188.6" y1="29938.9" x2="17369.6" y2="17781.4" gradientUnits="userSpaceOnUse">
<stop offset="0.15" stop-color="#6CBF00"/>
<stop offset="1" stop-color="#AFD803"/>
</linearGradient>
</defs>
</svg>
