<svg width="250" height="250" viewBox="0 0 250 250" fill="none" xmlns="http://www.w3.org/2000/svg">
<g clip-path="url(#clip0_242_94186)">
<path d="M246.253 155.24C229.552 222.199 161.737 262.955 94.7358 246.255C27.7675 229.556 -12.9605 161.718 3.74093 94.758C20.4098 27.7983 88.2571 -12.9569 155.193 3.74233C222.194 20.4416 262.954 88.2801 246.253 155.24Z" fill="#0007BC"/>
<path d="M200.057 132.615L198.495 130.109L173.361 90.2973C171.375 87.2049 168.771 84.5681 165.71 82.5499C160.013 78.9366 153.046 77.7973 146.502 79.4249C140.024 80.9874 134.489 85.1215 131.136 90.8832C129.443 93.6827 127.327 97.1658 125.178 100.584L118.341 90.0369L118.081 89.6788V89.5812C115.769 86.4887 112.872 83.8845 109.551 81.9314C104.57 79.2296 98.8074 78.3181 93.1751 79.2947C87.7708 80.3689 82.8222 83.1033 79.0132 87.1398C77.9388 88.3442 76.9947 89.6463 76.2133 91.046L57.6563 120.473L49.8753 132.745C46.3267 138.409 45.0895 145.245 46.4569 151.788C47.7266 158.331 51.6659 164.06 57.2981 167.641C61.1398 170.05 65.5674 171.319 70.0927 171.287C78.9806 171.254 87.2173 166.73 91.938 159.21L97.8632 149.835L103.593 158.754C105.123 160.968 106.946 163.019 108.932 164.809C109.486 165.297 110.039 165.786 110.625 166.209H110.69C111.081 166.502 111.472 166.762 111.928 167.055C115.769 169.529 120.262 170.864 124.852 170.864C129.703 170.831 134.456 169.431 138.493 166.762L138.982 166.437L139.438 166.144C141.651 164.581 143.637 162.661 145.265 160.48L152.004 149.998L157.767 159.112C162.553 166.599 170.789 171.124 179.677 171.124C184.17 171.157 188.598 169.887 192.439 167.511C203.997 160.284 207.448 144.334 200.057 132.615ZM79.8271 93.1944C80.5107 92.0226 81.2921 90.9483 82.1711 89.9392C85.2965 86.5864 89.4312 84.2752 93.9239 83.2986C98.612 82.4523 103.398 83.2335 107.565 85.4796C110.397 87.1723 112.872 89.4184 114.825 92.0551L114.988 92.283L122.866 104.392C119.188 109.894 116.095 114.418 116.095 114.516C113.197 118.943 108.77 122.166 103.658 123.5H103.398C98.0586 125.063 92.3612 124.444 87.4452 121.808L86.6639 121.352L85.9802 120.896L85.3291 120.441L84.7756 119.985L84.2547 119.562L83.8315 119.204L83.5385 118.943L83.3757 118.78L82.9199 118.26L82.3665 117.771L82.2037 117.609L81.9432 117.348L81.7804 117.185L81.6177 117.023L80.8689 116.404L80.7061 116.274L80.4782 116.111L80.0875 115.818L79.8922 115.688H79.7945L79.2411 115.33L79.0457 115.232H78.8829L78.362 114.939L78.1016 114.776L77.4179 114.451L77.0923 114.223L76.7342 114.06L76.0831 113.8H76.0505L75.2366 113.539L74.9111 113.474L74.26 113.312H73.9344L73.3158 113.084H72.9577H72.6972H72.3717H71.9159H70.9067H70.5811H69.4416H69.2788L68.1719 113.247H68.0743L66.9022 113.507L79.8271 93.1944ZM88.6498 157.029C85.6221 161.782 80.9014 165.167 75.4645 166.534C70.0927 167.934 64.3628 167.088 59.6747 164.125C50.1358 158.136 47.3034 144.757 53.4891 134.861L61.2374 122.589C61.7909 121.743 62.4095 120.994 63.1257 120.278C65.2419 118.26 68.0743 117.12 71.0043 117.12H71.7857H72.0461H72.567H72.8275H73.2833H73.4786L73.8367 117.185H73.9669H74.1623L74.5855 117.348H74.7808L75.4645 117.609L75.6599 117.674L75.9529 117.836H76.1157L76.3761 117.967L76.6366 118.129H76.7668L77.0272 118.292L77.4179 118.553H77.5481H77.6458L77.8737 118.715L78.1341 118.878H78.2318L78.8178 119.399H78.8829L79.2411 119.757L79.3387 119.855L79.469 120.017L79.6643 120.245L95.7471 146.092L88.6498 157.029ZM142.107 158.006C140.707 159.894 139.079 161.554 137.126 162.921L136.768 163.181L136.312 163.474C129.671 167.934 121.011 168.032 114.239 163.767L113.197 163.051H113.067C112.611 162.693 112.123 162.335 111.667 161.912C109.942 160.349 108.379 158.592 107.044 156.671L99.6538 145.017L88.2591 126.886L88.6498 127.049L89.7242 127.407L90.3427 127.602L91.4171 127.862L92.1333 128.058L93.2728 128.253L93.8914 128.351L95.389 128.513H95.5843H97.2772H97.9609H99.2306H99.8817L101.119 128.351H101.672C102.258 128.253 102.844 128.155 103.365 127.993C105.384 127.472 107.337 126.723 109.193 125.747H109.388C109.909 125.486 110.365 125.226 110.886 124.965C114.337 122.98 117.267 120.213 119.415 116.86C119.415 116.86 122.932 111.554 126.773 105.564C129.508 101.3 132.438 96.645 134.522 93.0642C137.289 88.2791 141.944 84.796 147.316 83.5265C152.818 82.1918 158.581 83.1033 163.366 86.1306C165.906 87.8234 168.087 90.0694 169.78 92.6411L189.118 123.305C188.565 123.045 188.012 122.849 187.425 122.654L187.132 122.556C186.579 122.361 185.993 122.198 185.44 122.036H185.277C184.723 121.873 184.137 121.775 183.584 121.678H183.323C182.77 121.58 182.151 121.515 181.63 121.45H181.305C180.719 121.45 180.133 121.45 179.612 121.385H179.547C178.993 121.385 178.375 121.385 177.854 121.385H177.496C176.942 121.385 176.356 121.45 175.803 121.58H175.445C174.859 121.678 174.273 121.775 173.654 121.938C172.84 122.133 172.059 122.361 171.245 122.622C165.841 124.477 161.218 128.155 158.255 133.038L151.223 144.073L142.107 158.006ZM190.421 163.995C180.882 169.985 167.599 166.73 161.413 156.866L154.576 146.124L161.608 135.089L162.162 134.21C167.306 126.756 176.714 123.5 185.342 126.137L186.123 126.398H186.351L186.905 126.625L187.328 126.788L187.686 126.951L188.272 127.211H188.435C188.988 127.472 189.574 127.765 190.128 128.123C190.681 128.481 190.909 128.644 191.3 128.904L191.56 129.067C192.374 129.653 193.155 130.304 193.839 130.987L194.002 131.15C194.295 131.443 194.588 131.801 194.881 132.127L195.044 132.289L196.509 134.633C202.759 144.627 199.96 158.006 190.421 163.995Z" fill="white"/>
</g>
<defs>
<clipPath id="clip0_242_94186">
<rect width="250" height="250" rx="125" fill="white"/>
</clipPath>
</defs>
</svg>
