<svg width="250" height="250" viewBox="0 0 250 250" fill="none" xmlns="http://www.w3.org/2000/svg">
<g clip-path="url(#clip0_242_94438)">
<path d="M124.163 192.765C136.727 184.104 145.873 171.007 145.873 155.056C145.873 130.631 126.073 110.83 101.648 110.83C95.6272 110.823 89.6689 112.048 84.14 114.431C78.6111 116.814 73.6285 120.303 69.4994 124.685C69.4994 124.685 77.4241 127.214 81.6457 132.842C81.6457 132.842 60.136 135.255 54.708 158.373C54.708 158.373 66.1666 154.151 71.7954 159.981C71.7954 159.981 67.5738 170.233 45.4609 195.964C45.4609 195.964 69.584 204.608 90.4907 180.485C90.4907 180.485 94.8389 184.504 87.7396 197.471C87.7396 197.471 104.361 204.206 120.041 179.279C120.042 179.279 121.851 182.094 124.163 192.765Z" fill="#FF1387"/>
<path d="M141.099 51.7275C110.666 51.7275 85.2403 73.1467 79.0625 101.731C86.207 98.7043 93.8886 97.1494 101.648 97.1594C133.623 97.1594 159.543 123.08 159.543 155.055C159.552 162.617 158.074 170.108 155.193 177.101C162.052 175.544 168.602 172.852 174.573 169.136C173.623 168.093 172.889 166.872 172.415 165.543C171.941 164.214 171.735 162.803 171.811 161.394C171.887 159.985 172.242 158.605 172.856 157.335C173.47 156.064 174.331 154.928 175.388 153.993C176.445 153.058 177.677 152.343 179.013 151.888C180.349 151.434 181.762 151.25 183.17 151.347C184.578 151.443 185.953 151.819 187.214 152.452C188.475 153.085 189.598 153.962 190.517 155.033C199.632 143.76 204.594 129.697 204.573 115.201C204.573 80.1458 176.155 51.7275 141.099 51.7275Z" fill="#BEE3E7"/>
<path d="M101.648 97.1594C116.908 97.1401 131.554 103.166 142.383 113.918L185.982 70.3187C180.094 64.4158 173.098 59.7346 165.396 56.5441C157.693 53.3536 149.436 51.7168 141.099 51.7276C110.666 51.7276 85.2403 73.1467 79.0625 101.731C86.207 98.7043 93.8886 97.1495 101.648 97.1594Z" fill="#9CD4DA"/>
<path d="M141.1 102.587C150.787 102.587 158.64 94.7341 158.64 85.0473C158.64 75.3605 150.787 67.5078 141.1 67.5078C131.413 67.5078 123.561 75.3605 123.561 85.0473C123.561 94.7341 131.413 102.587 141.1 102.587Z" fill="#82BBC5"/>
<path d="M105.718 86.7068C109.52 86.7068 112.602 83.6244 112.602 79.8221C112.602 76.0199 109.52 72.9375 105.718 72.9375C101.915 72.9375 98.833 76.0199 98.833 79.8221C98.833 83.6244 101.915 86.7068 105.718 86.7068Z" fill="#82BBC5"/>
<path d="M171.792 115.956C177.672 115.956 182.439 111.189 182.439 105.309C182.439 99.429 177.672 94.6621 171.792 94.6621C165.911 94.6621 161.145 99.429 161.145 105.309C161.145 111.189 165.911 115.956 171.792 115.956Z" fill="#9CD4DA"/>
<path d="M162.708 137.887C164.657 137.887 166.236 136.307 166.236 134.359C166.236 132.41 164.657 130.831 162.708 130.831C160.76 130.831 159.181 132.41 159.181 134.359C159.181 136.307 160.76 137.887 162.708 137.887Z" fill="#A0D5DB"/>
</g>
<defs>
<clipPath id="clip0_242_94438">
<rect width="159.112" height="159.112" fill="white" transform="translate(45.4609 45.458)"/>
</clipPath>
</defs>
</svg>
