<svg width="250" height="250" viewBox="0 0 250 250" fill="none" xmlns="http://www.w3.org/2000/svg">
<rect width="250" height="250" rx="125" fill="white"/>
<path d="M177.55 103.01C177.55 110.75 171.28 117.02 163.54 117.02C158.93 117.02 154.84 114.8 152.29 111.36H35.81C35.09 115.97 34.71 120.69 34.71 125.49C34.71 175.55 75.44 216.28 125.5 216.28C162.16 216.28 193.82 194.44 208.14 163.08H100.9C98.37 166.69 94.17 169.05 89.42 169.05C81.68 169.05 75.41 162.78 75.41 155.04C75.41 147.3 81.68 141.03 89.42 141.03C93.89 141.03 97.86 143.12 100.43 146.37H213.87C215.46 139.66 216.29 132.67 216.29 125.49C216.29 75.43 175.56 34.7 125.5 34.7C86.26 34.7 52.76 59.72 40.1 94.65H152.29C154.84 91.22 158.93 89 163.54 89C171.28 89 177.55 95.27 177.55 103.01ZM125.5 233C66.22 233 18 184.78 18 125.5C18 66.22 66.22 18 125.5 18C184.78 18 233 66.22 233 125.5C233 184.78 184.78 233 125.5 233Z" fill="#100F0D"/>
</svg>
