<svg width="250" height="250" viewBox="0 0 250 250" fill="none" xmlns="http://www.w3.org/2000/svg">
<path d="M125 246.125C191.878 246.125 246.094 191.903 246.094 125.016C246.094 58.1289 191.878 3.90625 125 3.90625C58.1218 3.90625 3.90625 58.1289 3.90625 125.016C3.90625 191.903 58.1218 246.125 125 246.125Z" fill="url(#paint0_radial_242_94885)"/>
<g filter="url(#filter0_d_242_94885)">
<path d="M172.592 136.732C164.674 135.173 145.448 135.701 126.202 137.387C107.017 139.068 87.9311 141.896 80.4039 144.809C65.8215 150.47 69.2166 156.626 71.5612 165.37C76.0768 182.265 84.8875 195.435 97.092 202.219C108.147 208.373 122.319 209.14 132.394 208.258C142.469 207.375 156.292 204.154 166.112 196.171C176.949 187.308 183.408 172.86 184.865 155.443C185.598 146.429 187.935 139.771 172.592 136.732ZM156.062 175.074C154.163 177.005 151.066 177.034 149.137 175.133L141.694 167.87L130.416 183.531L116.595 170.069L110.524 178.515C108.953 180.724 105.898 181.234 103.694 179.662C101.488 178.09 100.979 175.03 102.549 172.822L115.285 155.086L129.107 168.547L140.384 152.887L156.003 168.139C157.932 170.04 157.96 173.143 156.062 175.074Z" fill="white"/>
<path d="M118.671 51.1703C138.586 49.4863 150.406 54.6605 154.565 57.0358C166.135 63.5105 175.071 76.7301 179.766 94.2787C179.955 95.0536 180.822 98.022 181.369 100.104C181.65 101.236 181.152 102.498 180.103 103.016C179.23 103.458 178.006 104.052 176.419 104.678C168.129 107.9 144.156 111.158 124.126 112.913C96.3124 115.349 77.5113 115.171 71.199 113.897C69.5278 113.556 68.2842 113.239 67.2819 112.901C66.1538 112.512 65.3898 111.423 65.5308 110.254C65.7081 108.107 65.9872 105.039 66.0995 104.238C67.5538 86.0893 74.0623 71.5164 84.3332 63.1282C95.4013 54.1221 112.034 51.7517 118.671 51.1703ZM117.6 38.9053C105.352 39.9783 88.5492 43.8857 76.5738 53.6409C63.4053 64.3529 55.5816 81.9633 53.7879 103.185C52.8625 114.164 50.0388 122.204 68.7237 125.925C78.3127 127.824 101.783 127.168 125.132 125.122C148.48 123.077 171.708 119.642 180.821 116.103C198.577 109.19 194.402 101.764 191.587 91.1122C186.142 70.5245 175.388 54.6026 160.496 46.2881C147.071 38.7583 129.847 37.8322 117.6 38.9053Z" fill="white"/>
<path d="M135.661 98.8139C131.981 99.1362 127.825 97.491 123.324 93.9888C123.061 93.7683 122.8 93.5478 122.542 93.3877C119.734 96.7386 115.45 100.585 110.624 101.008C102.841 101.689 95.4695 97.3425 92.3465 90.1278C91.2802 87.6642 92.425 84.7633 94.8851 83.6955C97.3451 82.6276 100.242 83.7741 101.308 86.2376C102.75 89.5207 106.088 91.5418 109.708 91.2245C111.638 91.0555 115.59 86.8738 117.718 83.3997L121.175 77.7393L125.561 82.7126C128.658 86.1549 133.056 89.1789 134.806 89.0256C138.366 88.7137 141.363 86.1377 142.214 82.6538C142.837 80.0422 145.491 78.4095 148.098 79.0333C150.706 79.6572 152.337 82.3149 151.714 84.9264C149.95 92.5693 143.505 98.1263 135.661 98.8139Z" fill="white"/>
</g>
<path d="M124.999 230.039C182.995 230.039 230.01 183.018 230.01 125.015C230.01 67.0113 182.995 19.9902 124.999 19.9902C67.0032 19.9902 19.9883 67.0113 19.9883 125.015C19.9883 183.018 67.0032 230.039 124.999 230.039Z" stroke="url(#paint1_radial_242_94885)" stroke-opacity="0.15" stroke-width="32.1697"/>
<path d="M124.999 230.039C182.995 230.039 230.01 183.018 230.01 125.015C230.01 67.0113 182.995 19.9902 124.999 19.9902C67.0032 19.9902 19.9883 67.0113 19.9883 125.015C19.9883 183.018 67.0032 230.039 124.999 230.039Z" stroke="url(#paint2_radial_242_94885)" stroke-opacity="0.6" stroke-width="32.1697"/>
<defs>
<filter id="filter0_d_242_94885" x="21.8201" y="7.28205" width="203.565" height="232.533" filterUnits="userSpaceOnUse" color-interpolation-filters="sRGB">
<feFlood flood-opacity="0" result="BackgroundImageFix"/>
<feColorMatrix in="SourceAlpha" type="matrix" values="0 0 0 0 0 0 0 0 0 0 0 0 0 0 0 0 0 0 127 0" result="hardAlpha"/>
<feOffset/>
<feGaussianBlur stdDeviation="15.627"/>
<feComposite in2="hardAlpha" operator="out"/>
<feColorMatrix type="matrix" values="0 0 0 0 0.23385 0 0 0 0 0.0152546 0 0 0 0 0.270283 0 0 0 0.6 0"/>
<feBlend mode="normal" in2="BackgroundImageFix" result="effect1_dropShadow_242_94885"/>
<feBlend mode="normal" in="SourceGraphic" in2="effect1_dropShadow_242_94885" result="shape"/>
</filter>
<radialGradient id="paint0_radial_242_94885" cx="0" cy="0" r="1" gradientUnits="userSpaceOnUse" gradientTransform="translate(25.3906 42.4855) rotate(51.2906) scale(245.947 326.099)">
<stop stop-color="#939EFF"/>
<stop offset="0.502367" stop-color="#6B00AD"/>
<stop offset="1" stop-color="#300056"/>
</radialGradient>
<radialGradient id="paint1_radial_242_94885" cx="0" cy="0" r="1" gradientUnits="userSpaceOnUse" gradientTransform="translate(128.311 128.327) rotate(91.6101) scale(117.845 117.829)">
<stop offset="0.852926" stop-color="white" stop-opacity="0"/>
<stop offset="1" stop-color="white"/>
</radialGradient>
<radialGradient id="paint2_radial_242_94885" cx="0" cy="0" r="1" gradientUnits="userSpaceOnUse" gradientTransform="translate(122.069 121.596) rotate(88.6523) scale(124.562 124.546)">
<stop offset="0.88242" stop-color="#170125" stop-opacity="0"/>
<stop offset="0.951061" stop-color="#010B25" stop-opacity="0.4178"/>
<stop offset="1" stop-color="#170125"/>
</radialGradient>
</defs>
</svg>
