<svg width="250" height="250" viewBox="0 0 250 250" fill="none" xmlns="http://www.w3.org/2000/svg">
<g clip-path="url(#clip0_242_94441)">
<path d="M155.765 188.36C153.682 188.375 151.818 187.068 151.124 185.104C150.197 182.541 151.504 179.71 154.055 178.753C168.519 173.467 179.963 162.142 185.4 147.734C186.477 144.875 187.321 141.935 187.924 138.941C188.441 136.265 191.029 134.516 193.705 135.033C196.38 135.55 198.13 138.138 197.613 140.813C196.923 144.362 195.942 147.847 194.682 151.235C188.245 168.315 174.693 181.748 157.556 188.035C156.985 188.254 156.377 188.365 155.765 188.36Z" fill="#20407E"/>
<path d="M146.486 66.9684C112.233 61.0687 79.6822 84.0539 73.7825 118.307C69.0037 146.053 83.2337 173.596 108.628 185.754C109.286 186.078 110.011 186.245 110.744 186.242C112.66 186.231 114.4 185.123 115.222 183.393C116.396 180.934 115.355 177.989 112.896 176.815C112.885 176.809 112.873 176.804 112.861 176.798C88.1923 165.074 76.4684 135.765 86.1569 110.2C95.1443 86.4257 119.725 72.3599 144.776 76.657C147.452 77.1291 150.003 75.3431 150.475 72.6676C150.947 69.9921 149.161 67.4406 146.486 66.9685V66.9684ZM148.521 72.9117C147.868 74.6404 145.937 75.5125 144.209 74.8595C142.48 74.2065 141.608 72.2755 142.261 70.5468C142.913 68.8204 144.84 67.9479 146.567 68.5966C148.284 69.2171 149.173 71.1118 148.553 72.8288C148.543 72.8565 148.532 72.8841 148.521 72.9117H148.521Z" fill="#20407E"/>
<path d="M151.451 87.6489C141.156 83.7376 129.769 83.8248 119.536 87.8931C116.995 88.9047 115.756 91.7845 116.768 94.3249C117.779 96.8654 120.659 98.1047 123.199 97.0929C140.812 90.1176 160.744 98.741 167.72 116.354C174.695 133.966 166.072 153.899 148.459 160.874C144.435 162.467 140.146 163.285 135.819 163.284C131.678 163.266 127.572 162.522 123.688 161.086C106.001 154.355 97.0832 134.592 103.741 116.877C103.904 116.551 103.985 116.144 104.148 115.818C105.182 113.301 103.979 110.421 101.461 109.387C98.9432 108.352 96.0634 109.555 95.0294 112.073C94.8666 112.562 94.6223 113.05 94.4594 113.458C85.8486 136.254 97.3237 161.718 120.105 170.367C125.073 172.254 130.342 173.22 135.656 173.217C160.09 173.218 179.898 153.411 179.899 128.978C179.9 110.636 168.584 94.196 151.451 87.6487V87.6489ZM98.2861 117.121C96.5573 116.468 95.6852 114.537 96.3382 112.809C96.9912 111.08 98.9222 110.208 100.651 110.861C102.377 111.513 103.25 113.44 102.601 115.167C101.937 116.887 100.017 117.756 98.2862 117.121L98.2861 117.121Z" fill="#24C3EF"/>
<path d="M155.035 113.539C146.202 102.965 130.473 101.544 119.888 110.364C112.471 116.602 109.303 126.55 111.746 135.928C112.443 138.559 115.141 140.126 117.771 139.429C120.402 138.732 121.969 136.035 121.272 133.405C119.795 127.738 121.694 121.726 126.157 117.936C132.446 112.47 141.975 113.137 147.44 119.426C152.906 125.715 152.238 135.244 145.949 140.709C145.813 140.828 145.674 140.944 145.534 141.058C140.675 145.067 133.852 145.681 128.355 142.605C125.972 141.256 122.947 142.094 121.598 144.477C120.249 146.86 121.087 149.886 123.47 151.235C127.212 153.379 131.451 154.502 135.764 154.491C141.647 154.502 147.349 152.458 151.884 148.711C162.459 139.951 163.931 124.276 155.17 113.701C155.126 113.647 155.08 113.593 155.035 113.539H155.035ZM129.226 148.304C128.573 150.032 126.642 150.905 124.914 150.252C123.185 149.599 122.313 147.668 122.966 145.939C123.618 144.212 125.545 143.34 127.273 143.989C128.992 144.653 129.861 146.573 129.227 148.304H129.226Z" fill="#20407E"/>
<path d="M190.369 65.756C182.944 59.3629 174.457 54.3204 165.293 50.857C122.16 34.5792 73.9978 56.3497 57.72 99.4826C42.4715 139.888 60.5603 185.253 99.4273 204.081C100.092 204.389 100.812 204.555 101.544 204.57C103.437 204.556 105.164 203.489 106.022 201.802C107.226 199.387 106.245 196.454 103.831 195.25C103.802 195.235 103.772 195.221 103.742 195.207C69.792 178.842 53.5902 138.297 67.0237 102.963C81.3972 64.9746 123.845 45.8311 161.833 60.2046L161.873 60.2198C169.938 63.2652 177.405 67.7017 183.937 73.3277C186.012 75.1063 189.131 74.8886 190.939 72.8392C192.65 70.6985 192.4 67.5955 190.369 65.756ZM190.043 70.6409C189.39 72.3697 187.459 73.2418 185.73 72.5888C184.001 71.9358 183.129 70.0048 183.782 68.2761C184.434 66.5497 186.361 65.6771 188.089 66.3258C189.806 66.9464 190.695 68.8412 190.074 70.558C190.064 70.5857 190.054 70.6134 190.043 70.6409Z" fill="#24C3EF"/>
</g>
<defs>
<clipPath id="clip0_242_94441">
<rect width="159.112" height="159.112" fill="white" transform="translate(45.4609 45.458)"/>
</clipPath>
</defs>
</svg>
