<svg width="250" height="250" viewBox="0 0 250 250" fill="none" xmlns="http://www.w3.org/2000/svg">
<path d="M99.8806 43.0847C106.22 36.5991 117.176 35.6152 124.545 40.9017C131.846 45.7097 134.878 55.7165 131.694 63.8202C129.837 68.8903 125.698 72.8606 120.803 75.0145C122.282 82.6289 123.852 90.2203 125.338 97.8225C134.169 97.1937 143.105 101.405 148.181 108.662C154.038 116.742 154.334 128.146 149.275 136.692C158.828 145.628 168.36 154.583 177.87 163.557C182.519 159.756 189.053 158.348 194.752 160.425C201.307 162.702 206.022 169.332 205.941 176.279C206.005 182.453 202.331 188.428 196.848 191.24C193.454 193.069 189.426 193.476 185.665 192.788C179.401 191.554 174.121 186.449 172.695 180.226C171.694 176.384 172.39 172.332 173.914 168.729C164.349 159.752 154.814 150.741 145.215 141.805C138.643 148.156 128.717 150.781 119.921 148.098C115.125 161.173 110.636 174.358 105.839 187.438C107.632 190.198 109.105 193.284 109.204 196.636C109.367 201.655 106.945 206.713 102.823 209.612C99.11 212.284 94.1619 213.239 89.7609 211.894C84.1314 210.37 79.6954 205.339 78.8456 199.576C78.2457 196.643 79.0262 193.685 79.9225 190.909C78.0071 189.537 76.1039 188.155 74.1885 186.787C71.8539 188.056 69.293 189.109 66.5856 188.958C61.075 189.084 55.8593 185.195 54.187 179.979C52.5102 175.229 53.9888 169.617 57.6855 166.218C61.1085 162.928 66.3745 161.797 70.8539 163.33C75.8715 164.943 79.6672 169.821 79.8242 175.113C80.0109 177.476 79.3006 179.77 78.5323 181.973C80.3189 183.192 82.0658 184.47 83.8471 185.698C86.123 183.952 88.7312 182.549 91.607 182.141C94.6161 181.536 97.6283 182.392 100.484 183.271C104.914 170.656 109.449 158.082 113.891 145.466C106.352 140.816 101.224 132.252 101.555 123.293C101.291 112.563 108.836 102.497 118.934 99.1266C117.508 91.5473 115.895 84.0031 114.457 76.4292C108.135 76.5458 101.796 73.7165 98.0132 68.5969C92.1748 61.1746 93.0247 49.5725 99.8821 43.0877L99.8806 43.0847ZM111.596 45.4741C105.314 46.3126 100.686 53.0656 102.144 59.2302C103.14 64.3415 107.907 68.5214 113.176 68.4741C118.283 68.8065 123.253 65.2028 124.656 60.3072C126.245 55.3994 124.051 49.5961 119.591 46.9993C117.24 45.4856 114.332 45.0938 111.599 45.4749L111.596 45.4741ZM123.352 109.162C116.052 110.909 111.075 118.838 112.624 126.173C113.747 132.989 120.208 138.392 127.131 138.24C133.894 138.427 140.263 133.304 141.625 126.691C143.017 120.84 140.38 114.262 135.275 111.066C131.805 108.779 127.357 108.085 123.352 109.16V109.162ZM186.147 167.758C181.897 169.167 179.074 174.051 180.297 178.418C181.257 182.678 185.641 185.828 189.995 185.298C194.652 184.896 198.523 180.42 198.064 175.728C197.947 170.017 191.485 165.667 186.147 167.758ZM64.4927 169.531C59.6908 170.951 58.4385 177.991 62.4667 180.981C66.1863 184.374 72.8928 181.697 73.3174 176.696C74.1504 172.021 68.9111 167.685 64.4927 169.531V169.531ZM91.8821 190.057C89.7396 190.662 87.9294 192.298 87.0506 194.342C85.1116 198.61 88.1794 204.11 92.8539 204.599C97.1619 205.367 101.551 201.627 101.359 197.241C101.588 192.449 96.4286 188.613 91.8821 190.056" fill="#6EA8F2"/>
</svg>
