<svg width="250" height="250" viewBox="0 0 250 250" fill="none" xmlns="http://www.w3.org/2000/svg">
<rect width="250" height="250" rx="125" fill="#E61E1E"/>
<rect width="250" height="250" rx="125" fill="url(#paint0_linear_761_6339)"/>
<path d="M59.5743 31.5951C78.0187 37.4651 94.4506 47.1032 109.931 58.5081C111.307 59.5241 112.58 59.792 114.338 59.6413C121.576 59.0161 128.844 58.3239 136.062 60.0098C138.183 60.5066 139.691 59.1333 141.209 58.0029C153.736 48.7109 167.153 40.9876 181.506 34.8637C184.258 33.6886 187.284 33.2336 189.846 31.5951H193.48C196.447 33.549 196.757 36.7449 197.011 39.7846C198.024 52.0073 197.913 64.2273 196.537 76.4249C195.342 76.5031 194.608 76.0955 194.694 74.7474C194.767 73.6421 194.686 72.5535 194.08 71.5738C194.058 70.8983 194.178 70.1782 193.466 69.7316C193.48 69.3492 193.494 68.964 193.508 68.5816C193.69 68.2355 193.991 67.9033 194.036 67.5405C194.873 60.8304 195.024 54.0589 194.521 47.3544C194.281 44.1389 194.842 40.742 193.447 37.6298C193.399 37.4874 193.38 37.3395 193.397 37.1888C193.519 36.2174 193.57 35.2879 192.188 35.2544C192.02 35.2405 191.856 35.2126 191.694 35.1735C190.424 34.1407 189.439 34.5734 188.601 35.7764C188.445 35.835 188.286 35.8657 188.118 35.8713C187.873 36.0164 187.624 36.1616 187.379 36.3039C187.203 36.3681 187.021 36.41 186.837 36.4351C186.335 36.41 185.885 36.5077 185.573 36.9487L185.511 36.985C185.126 37.172 184.738 37.3562 184.353 37.5432C184.191 37.6074 184.021 37.6493 183.848 37.6688C183.611 37.8168 183.373 37.9647 183.136 38.1126C182.96 38.1768 182.779 38.2215 182.595 38.2494C182.081 38.2327 181.623 38.3387 181.347 38.8328L181.338 38.8384C180.844 38.8356 180.403 38.95 180.127 39.4078L180.096 39.4245C179.697 39.6087 179.298 39.7957 178.899 39.98C178.327 40.22 177.757 40.4573 177.185 40.6973C176.948 40.8508 176.711 41.0043 176.471 41.1579C176.306 41.2276 176.136 41.2723 175.96 41.2946C175.728 41.4482 175.494 41.5989 175.262 41.7524C175.095 41.8222 174.919 41.8696 174.74 41.8975C174.508 42.0483 174.279 42.199 174.048 42.3525C173.878 42.4223 173.699 42.4697 173.517 42.5004C173.291 42.654 173.063 42.8075 172.836 42.9582C172.666 43.028 172.493 43.081 172.312 43.1117C171.335 43.2038 170.059 42.6958 169.864 44.3426L169.869 44.3315C169.643 44.4906 169.42 44.6525 169.194 44.8116C168.636 45.0628 168.075 45.314 167.516 45.5652C167.274 45.7355 167.033 45.9085 166.791 46.0788L166.766 46.0899C166.274 46.1067 165.839 46.2295 165.59 46.7096L165.576 46.7208C165.37 46.8743 165.163 47.025 164.957 47.1785C164.787 47.2567 164.611 47.3125 164.429 47.3488C164.2 47.5107 163.969 47.6754 163.74 47.8373C163.589 47.9098 163.43 47.9573 163.265 47.9796C163.028 48.1554 162.788 48.3285 162.551 48.5044L162.52 48.5267C162.322 48.6718 162.127 48.817 161.928 48.9621C161.753 49.0431 161.571 49.1073 161.381 49.1547C161.158 49.3194 160.935 49.4841 160.714 49.6488C160.563 49.7241 160.404 49.7744 160.237 49.8023C159.321 49.752 158.414 49.713 158.35 50.9997L158.356 50.9941C157.457 50.955 156.589 50.969 156.522 52.1971L156.527 52.1916C156.312 52.3674 156.097 52.5405 155.883 52.7163L155.83 52.7582C155.643 52.9089 155.456 53.0596 155.266 53.2103C155.098 53.2941 154.922 53.3583 154.738 53.4001C153.839 53.3834 152.943 53.3722 152.899 54.6311L152.904 54.6255C151.997 54.592 151.115 54.5948 151.101 55.862V55.8564C149.767 55.7531 148.734 56.0602 148.664 57.6623C146.434 57.4474 144.838 58.9519 143.42 60.1521C142.049 61.3105 143.824 61.0927 144.441 61.277C147.06 62.1395 149.68 62.9991 152.299 63.8616C152.494 64.0124 152.689 64.1631 152.888 64.311C153.089 64.3306 153.287 64.3696 153.479 64.4338C153.549 65.6703 154.523 66.0667 155.436 66.4882C159.372 68.3025 163 70.6136 166.472 73.1927C171 76.5589 175.24 80.2238 178.503 84.8711C179.119 85.7476 180.275 86.7943 178.849 87.9973C177.618 87.6763 176.398 87.2995 175.153 87.0427C172.507 86.4928 169.839 85.9039 167.48 87.9219C166.445 88.4104 165.984 89.1389 166.498 90.2777C167.145 91.7152 168.315 92.2288 169.814 92.1758L169.864 92.2204C169.894 93.376 170.548 93.9175 171.642 94.0291C172.002 96.5747 174.048 98.964 171.6 101.889H175.932C173.381 103.156 170.645 102.129 168.022 102.523C167.212 102.5 166.403 102.478 165.59 102.459C164.477 102.302 164.203 100.686 163.276 100.72C157.566 100.932 151.922 99.6144 146.211 100.067C140.358 99.8544 134.502 99.6395 128.649 99.4273C128.568 98.1629 129.118 97.5237 130.424 97.6382C133.759 97.9313 137.045 97.3563 140.333 96.999C145.513 96.4352 150.669 95.7374 155.598 93.8449C162.676 91.1291 165.183 81.5747 159.249 76.3886C155.751 73.3322 152.07 70.5354 148.006 68.3304C138.39 63.1192 128.23 61.023 117.274 62.9154C107.536 64.5985 99.3101 69.1817 91.8883 75.3894C88.1788 78.4904 86.4873 82.3535 87.9917 87.4195C89.1808 91.4249 91.8995 93.1973 95.5392 94.4311C102.085 96.6473 108.867 97.1413 115.667 97.6242C116.939 97.7135 118.477 97.306 118.341 99.4329C117.143 99.4832 115.94 99.4915 114.748 99.5864C111.011 99.8851 107.22 99.6479 103.544 100.633C101.543 100.642 99.5111 100.432 97.5517 100.717C95.542 101.01 93.1667 100.34 91.6594 102.433C88.6505 102.436 85.6415 102.439 82.6326 102.445C83.2188 102.124 83.8049 101.803 84.8265 101.244H81.371C80.8686 98.8691 81.3738 94.5204 82.4484 91.7375C82.5489 91.4752 82.4707 91.1458 82.4763 90.8471L82.6019 90.9448L82.4735 90.8555C84.4525 90.6378 83.9836 89.6357 83.2188 88.5388C82.4233 87.0036 81.0751 86.6212 79.4562 86.5542C77.307 86.4649 75.3001 87.1599 73.2178 87.4335C72.9136 87.573 72.6093 87.7154 72.3023 87.855C72.1069 87.9164 71.9115 87.9778 71.7161 88.0392C72.1404 83.629 75.2694 80.863 78.2085 78.242C82.7024 74.2366 87.7266 70.8983 92.9266 67.8C95.3634 66.3486 98.4337 65.7987 100.181 63.2392C100.868 62.6112 101.713 62.4995 102.593 62.4912C103.229 62.4856 103.899 62.6028 104.376 62.0111C104.647 61.7906 104.918 61.57 105.188 61.3467C106.241 62.0529 107.226 61.7431 107.79 60.8053C108.401 59.7892 107.469 59.1221 106.76 58.5918C105.236 57.4474 103.776 56.1104 102.073 55.3261C93.5881 51.4323 86.6827 44.9093 78.0578 41.2025C72.0651 38.6262 65.9662 36.4323 59.8004 34.3668C58.1676 33.8198 56.8724 34.3975 56.7664 35.7792C56.5822 38.1992 55.8481 40.6331 56.4621 43.0894C56.5068 44.5185 56.5515 45.9448 56.5961 47.3739C56.5542 48.1722 56.5124 48.9733 56.4705 49.7716C55.5996 52.186 55.6024 54.6032 56.4705 57.0204C56.5124 57.6177 56.5515 58.215 56.5933 58.8123C56.5403 60.0405 56.4873 61.2658 56.4314 62.4939C55.6973 64.3529 56.0686 66.3905 55.6331 68.2215C55.1642 70.1865 56.691 72.9219 53.7407 74.0859C52.6828 61.5673 52.2753 49.0542 54.0589 36.5551C54.3966 34.1826 55.5075 32.4911 57.7517 31.584H59.5688L59.5743 31.5951Z" fill="#FEC834"/>
<path d="M207.737 157.901C212.175 160.788 216.579 163.674 219.842 168.02C222.039 170.942 222.781 174.467 224.389 177.621V184.287C223.211 185.548 223.378 187.265 222.979 188.761C218.832 204.305 204.217 209.112 191.271 204.297C187.615 202.938 184.477 200.825 181.474 198.441C180.838 197.556 180.198 196.669 179.562 195.781C180.006 195.164 180.536 194.07 181.228 195.34C183.244 199.047 186.774 200.554 190.375 202.019C190.52 202.527 190.797 202.868 191.324 203.086C202.576 207.68 216.297 204.082 220.858 191.485C223.736 183.536 224.221 176.044 218.335 169.142C216.155 166.585 213.57 166.618 210.759 168.416C206.788 170.956 205.208 174.16 206.21 178.718C206.316 179.198 206.282 179.734 206.21 180.228C205.855 182.595 204.513 184.083 202.101 184.259C200.516 184.373 198.927 184.192 197.314 183.921C194.534 183.455 192.097 181.158 189.208 181.942C185.585 182.925 182.526 182.163 179.637 180.025C179.601 178.615 179.568 177.208 179.531 175.799C180.408 175.748 180.536 175.157 180.793 174.42C181.954 171.084 182.54 167.609 185.178 164.765C187.941 161.79 187.299 158.074 184.357 155.205C184.994 153.583 185.627 151.962 186.264 150.34C187.048 149.745 187.835 149.148 188.619 148.554C188.826 148.534 189.033 148.512 189.239 148.492C190.236 149.109 191.229 149.726 192.226 150.343C194.048 151.8 196.195 152.632 198.311 153.528C201.453 154.987 204.596 156.444 207.739 157.904L207.737 157.901Z" fill="#5BBCFD"/>
<path d="M179.558 195.775C180.195 196.662 180.834 197.55 181.47 198.435C179.346 200.143 177.194 201.818 174.766 203.096C173.889 203.278 172.996 203.395 172.142 203.649C168.271 204.793 165.189 207.554 161.401 208.935C160.251 209.354 158.85 210.37 158.937 212.131C158.538 212.343 158.138 212.553 157.739 212.765C157.452 212.352 157.072 212.112 156.573 212.31C155.894 212.578 155.984 213.142 156.115 213.697C155.908 213.781 155.702 213.865 155.495 213.948C154.621 212.274 153.748 211.841 152.006 213.245C150.823 214.2 149.092 216.399 147.451 213.485C147.144 212.941 146.666 212.801 146.206 213.167C144.517 214.515 144.595 213.133 144.26 212.042C143.236 208.72 141.567 207.85 138.061 208.732C136.705 209.072 135.362 209.463 134 209.792C127.22 211.445 120.485 210.25 113.738 209.711C108.804 209.321 106.663 212.062 108.583 216.681C109.2 218.163 108.949 219.374 108.639 220.723C96.2012 214.163 83.7468 207.626 71.6134 200.509C70.6755 199.959 69.9052 199.124 69.0566 198.424C69.6568 197.508 70.7649 196.978 71.0691 195.828C72.5261 194.692 72.7801 192.774 73.9301 191.437C81.0393 193.087 87.5289 196.272 93.9934 199.526C100.466 202.786 106.858 206.197 114.015 207.886C120.398 209.39 126.804 209.65 133.179 208.388C144.383 206.172 154.192 200.461 164.307 195.532C168.265 193.603 171.882 190.991 176.136 189.659C177.281 191.697 177.49 194.254 179.555 195.778L179.558 195.775Z" fill="#F3AD07"/>
<path d="M108.637 220.723C108.947 219.375 109.198 218.166 108.582 216.681C106.661 212.062 108.802 209.321 113.737 209.711C120.483 210.247 127.219 211.442 133.998 209.792C135.361 209.46 136.703 209.072 138.06 208.732C141.563 207.85 143.235 208.721 144.259 212.042C144.597 213.133 144.519 214.515 146.204 213.167C146.662 212.801 147.142 212.941 147.449 213.485C149.091 216.399 150.818 214.2 152.005 213.245C153.746 211.841 154.62 212.274 155.494 213.948C145.939 219.442 136.075 224.416 124.941 225.284C119.25 225.727 113.642 223.801 108.637 220.723Z" fill="#FDB72B"/>
<path d="M53.75 74.0978C56.6975 72.9339 55.1735 70.1957 55.6424 68.2334C56.0779 66.3996 55.7066 64.362 56.4407 62.5059C56.6222 62.5226 56.8008 62.5533 56.9766 62.598C57.2697 72.451 58.4058 82.2007 60.2982 92.6203C64.9037 86.0833 69.6934 80.8525 75.2368 76.2973C82.6587 70.1985 90.9067 65.7493 100.19 63.2483C98.443 65.8079 95.3727 66.3577 92.9359 67.8092C87.7331 70.9074 82.7117 74.2457 78.2178 78.2511C75.2759 80.8721 72.1497 83.6382 71.7255 88.0483C65.1856 91.1354 59.9326 95.8665 55.0647 101.089C57.0436 97.3933 55.5085 93.614 55.1372 89.9352C54.6041 84.6598 54.0766 79.3899 53.75 74.0978Z" fill="#FDB72B"/>
<path d="M55.0643 101.086C59.9322 95.8638 65.1853 91.1299 71.7251 88.0456C71.9205 87.9842 72.1159 87.9227 72.3113 87.8613C72.6155 87.7218 72.9198 87.5794 73.2268 87.4399C75.3063 87.1635 77.3159 86.4713 79.4652 86.5606C81.0841 86.6276 82.4322 87.01 83.2277 88.5452C82.9793 89.3183 82.7309 90.0887 82.4825 90.8619L82.6109 90.9512C82.6109 90.9512 82.4853 90.8535 82.4881 90.8563C80.7156 91.9002 78.9404 92.9414 77.1652 93.9853C76.2776 93.9267 75.7082 94.4319 75.2114 95.0738C71.8647 97.0444 68.8557 99.417 66.4078 102.457C65.7463 102.85 65.0848 103.244 64.4233 103.64C61.8554 103.713 59.2679 103.615 56.7837 104.466C55.5668 104.427 54.3498 104.391 53.1328 104.352L55.0671 101.092L55.0643 101.086Z" fill="#4B2901"/>
<path d="M41.3046 146.577C40.7324 134.87 43.92 123.993 48.5869 113.437C48.8828 114.972 48.0957 117.224 50.979 117.048C50.4794 118.748 49.9574 120.442 49.4913 122.151C49.1982 123.225 50.792 123.878 50.0523 125.213C48.3162 128.342 48.2855 132.149 46.1055 135.161C44.9779 136.718 46.2395 137.011 47.5151 137.05C47.2164 138.002 45.8236 137.184 45.5919 138.245C44.8774 137.952 45.4998 140.584 43.9786 138.909C43.211 138.066 41.7847 139.278 42.2229 139.766C44.1154 141.876 42.1225 143.998 42.6165 146.03C42.1811 146.214 41.7429 146.395 41.3074 146.579L41.3046 146.577Z" fill="#FDB72B"/>
<path d="M60.8809 149.061C59.6555 150.15 57.9669 150.208 56.6047 150.996C51.3935 150.663 46.8215 153 42.0402 154.476C41.8057 152.313 41.5712 150.147 41.334 147.984C45.2166 146.019 49.4369 145.382 53.6879 144.883C56.4066 145.723 59.2062 146.421 60.8781 149.061H60.8809Z" fill="#F3AD07"/>
<path d="M50.9819 117.051C48.0986 117.227 48.8857 114.975 48.5898 113.439C49.2235 112.183 49.6058 110.849 49.4021 109.448C48.9722 106.489 50.0804 104.723 53.1339 104.346C54.3509 104.385 55.5679 104.421 56.7849 104.46C56.8602 105.856 56.8658 107.257 57.0221 108.644C57.4352 112.264 57.2035 115.499 52.7934 116.513C52.104 116.401 51.4118 116.287 50.9819 117.051Z" fill="#FC0D80"/>
<path d="M158.934 212.132C158.847 210.373 160.248 209.355 161.398 208.936C165.189 207.554 168.267 204.794 172.139 203.649C172.993 203.398 173.886 203.278 174.763 203.097C169.786 206.63 164.418 209.486 158.934 212.129V212.132Z" fill="#FDB72B"/>
<path d="M42.0418 154.476C46.8204 153.002 51.3952 150.666 56.6064 150.995C55.649 153.164 53.1481 152.313 51.6911 153.502C50.4657 153.2 49.3269 153.63 48.1351 153.814C45.5588 154.211 43.3397 155.964 40.6211 155.724C40.6769 154.83 41.6287 154.959 42.0446 154.473L42.0418 154.476Z" fill="#4B2901"/>
<path d="M40.62 155.724C43.3414 155.961 45.5576 154.211 48.1339 153.814C49.3258 153.63 50.4646 153.2 51.69 153.502C49.016 155.592 45.7363 156.477 42.7776 158.004C42.4426 157.181 42.4873 156.014 41.0973 156.128C41.0415 155.933 40.9131 155.807 40.7177 155.757L40.6172 155.724H40.62Z" fill="#F3AD07"/>
<path d="M53.6909 144.883C49.4399 145.383 45.2223 146.019 41.337 147.984C40.7843 147.939 40.2289 147.895 39.3301 147.822C40.187 147.281 40.7452 146.929 41.3063 146.577C41.7417 146.393 42.1799 146.212 42.6153 146.027C46.0039 145.05 49.3701 143.987 52.8759 143.468C53.1494 143.939 53.4202 144.411 53.6937 144.88L53.6909 144.883Z" fill="#4B2901"/>
<path d="M156.115 213.697C155.984 213.139 155.895 212.578 156.573 212.31C157.072 212.112 157.452 212.352 157.74 212.765C157.382 213.398 156.732 213.518 156.115 213.697Z" fill="#FDB72B"/>
<path d="M40.7193 155.76C40.9175 155.813 41.0431 155.936 41.0989 156.131C40.4793 156.503 39.8317 156.491 39.1367 156.254C39.5582 155.696 39.988 155.263 40.7165 155.76H40.7193Z" fill="#4B2901"/>
<path d="M167.478 87.9253C169.836 85.9044 172.505 86.4962 175.151 87.046C176.396 87.3056 177.616 87.6796 178.846 88.0006C183.181 90.1582 187.095 92.955 190.863 95.9696L190.935 95.8914C190.946 96.3268 191.167 96.5445 191.605 96.5445L191.524 96.6255C192.345 98.0044 193.431 99.1376 194.748 100.05L194.72 100.017C194.932 100.313 195.144 100.609 195.354 100.904C196.096 102.099 196.839 103.294 197.578 104.488C196.241 104.483 194.907 104.477 193.573 104.472C193.216 104.48 192.856 104.488 192.498 104.497C191.627 104.268 190.751 103.816 189.889 103.846C186.419 103.969 183.834 102.233 181.487 100.022C179.254 97.9206 177.066 95.7881 174.129 94.6688C173.878 94.4483 173.63 94.2306 173.378 94.0101C172.873 93.6919 172.365 93.3765 171.857 93.0583C171.193 92.782 170.526 92.5029 169.862 92.2265L169.811 92.1819C168.812 90.8868 167.196 89.9266 167.478 87.9281V87.9253Z" fill="#4B2901"/>
<path d="M192.219 150.34C191.223 149.723 190.229 149.106 189.232 148.489C191.144 146.798 193.768 146.496 195.839 145.109C195.984 144.972 196.155 144.877 196.347 144.827C200.78 145.444 205.232 145.98 209.287 148.087C209.031 150.234 208.771 152.377 208.514 154.524C203.219 152.595 197.88 150.837 192.219 150.34Z" fill="#F3AD07"/>
<path d="M193.57 104.472C194.904 104.477 196.238 104.483 197.575 104.488C201.857 105.136 200.543 108.483 200.763 111.087C200.718 112.058 200.515 113.055 200.663 113.998C200.986 116.069 199.856 116.505 198.181 116.491C197.846 116.48 197.514 116.471 197.179 116.46L197.16 116.34C196.933 116.184 196.71 116.027 196.484 115.874C196.241 115.773 195.998 115.676 195.758 115.575C194.047 115.321 193.238 114.514 193.391 112.608C193.609 109.909 193.525 107.185 193.57 104.472Z" fill="#FC0D80"/>
<path d="M202.002 113.903C206.049 122.129 208.371 130.824 209.105 139.951C208.943 139.968 208.779 139.993 208.62 140.023L208.664 140.06C207.682 138.706 205.923 138.706 204.695 137.776C205.449 137.531 207.054 138.044 205.909 136.191C205.36 135.303 205.248 134.184 204.743 133.188C203.545 130.829 201.996 128.362 202.75 125.615C203.283 123.675 202.867 122.09 202.13 120.465C201.625 119.352 201.248 118.252 201.337 117.024C201.918 116.058 201.898 114.967 201.999 113.9L202.002 113.903Z" fill="#FDB72B"/>
<path d="M194.745 100.05C193.427 99.1375 192.341 98.0071 191.523 96.6254C192.191 96.3714 192.743 96.1704 192.57 95.1656C191.657 89.8986 192.274 84.6064 193.047 79.4259C193.438 76.8161 192.707 74.0361 194.086 71.5742C194.694 72.5539 194.772 73.6397 194.7 74.7478C194.613 76.096 195.347 76.5035 196.542 76.4254C196.503 82.3567 195.52 88.2015 194.892 94.077C194.68 96.0672 194.382 98.0489 194.747 100.05H194.745Z" fill="#FDB72B"/>
<path d="M209.108 140.774C209.136 142.731 209.164 144.688 209.192 146.644C205.415 145.346 201.636 144.065 197.658 143.518C196.866 141.528 196.852 139.49 197.284 137.425C201.186 137.832 204.876 139.158 208.664 140.057L208.619 140.021C208.374 140.537 208.82 140.601 209.108 140.769V140.774Z" fill="#F3AD07"/>
<path d="M192.219 150.34C197.882 150.839 203.219 152.595 208.514 154.524C208.804 154.965 209.717 154.931 209.535 155.632C209.485 155.83 208.665 155.83 208.198 155.919C205.042 154.543 201.896 153.109 198.304 153.525C196.188 152.629 194.041 151.794 192.219 150.34Z" fill="#4B2901"/>
<path d="M197.66 143.521C201.637 144.068 205.419 145.349 209.193 146.647C209.561 147.001 209.93 147.358 210.298 147.713C209.96 147.839 209.625 147.964 209.288 148.087C205.232 145.977 200.78 145.441 196.348 144.827C196.515 144.123 196.928 143.663 197.657 143.521H197.66Z" fill="#4B2901"/>
<path d="M198.305 153.524C201.897 153.105 205.04 154.54 208.2 155.919C208.046 156.578 207.893 157.239 207.739 157.898C204.593 156.441 201.45 154.981 198.307 153.524H198.305Z" fill="#F3AD07"/>
<path d="M202.001 113.903C201.898 114.969 201.92 116.061 201.339 117.027C200.153 117.627 199.095 117.49 198.18 116.491C199.854 116.507 200.985 116.069 200.661 113.998C200.513 113.055 200.717 112.058 200.762 111.087C201.175 112.025 201.588 112.963 202.001 113.903Z" fill="#4B2901"/>
<path d="M209.108 140.774C208.821 140.606 208.374 140.542 208.62 140.026C208.782 139.995 208.944 139.97 209.106 139.953C209.106 140.227 209.106 140.5 209.106 140.774H209.108Z" fill="#4B2901"/>
<path d="M195.35 100.904C195.138 100.608 194.926 100.312 194.717 100.017C195.244 100.086 195.362 100.449 195.35 100.904Z" fill="#FDB72B"/>
<path d="M118.346 99.4384C118.483 97.3087 116.945 97.719 115.672 97.6297C108.872 97.1496 102.09 96.6528 95.5443 94.4366C91.9018 93.2028 89.1859 91.4304 87.9968 87.425C86.4924 82.3562 88.1838 78.4959 91.8934 75.3949C99.3152 69.1872 107.541 64.604 117.28 62.9209C128.235 61.0285 138.395 63.1247 148.011 68.3359C152.075 70.5381 155.756 73.3349 159.254 76.3941C165.188 81.5774 162.681 91.1318 155.603 93.8504C150.674 95.7429 145.515 96.4407 140.338 97.0045C137.05 97.3618 133.764 97.9367 130.429 97.6437C129.123 97.5292 128.573 98.1684 128.654 99.4328C125.221 99.4328 121.785 99.4384 118.351 99.4412L118.346 99.4384Z" fill="#FED938"/>
<path d="M165.594 102.461C166.403 102.484 167.213 102.506 168.025 102.526C167.777 103.793 167.537 105.063 167.274 106.33C166.953 107.882 166.211 108.912 164.402 108.549C162.842 108.351 161.284 108.038 159.721 108.005C158.903 107.988 157.337 107.201 157.661 109.359C157.932 111.142 159.065 111.173 160.243 110.782C161.614 110.327 162.97 110.366 164.352 110.355C166.099 110.151 167.056 110.76 166.816 112.686C166.387 116.144 166.635 119.368 164.91 123.016C163.068 126.907 163.947 132.434 164.815 137.215C165.019 138.334 165.496 139.138 166.869 138.53C167.43 138.281 168.075 138.111 168.424 138.825C168.684 139.359 168.329 139.747 167.902 140.081C166.331 141.324 166.579 142.859 167.316 144.397C167.615 145.022 168.329 145.692 167.732 146.284C166.158 147.841 167.213 149.387 167.871 150.649C168.458 151.771 168.698 152.176 167.481 152.966C166.278 153.745 166.627 155.182 167.185 156.223C167.827 157.423 168.882 156.812 169.831 156.427C170.465 156.17 171.16 156.058 171.827 155.883C171.86 159.768 169.716 163.109 169.08 166.827C168.807 166.964 168.533 167.1 168.259 167.24C151.557 172.32 134.433 173.59 117.091 172.856C105.63 172.37 94.2866 171.131 83.3841 167.257C81.8405 164.055 79.789 160.965 81.2069 157.127C83.6046 157.962 86.005 158.799 88.4753 159.659C88.7265 154.724 88.3385 154.113 84.3024 152.837C83.6744 152.639 82.7337 152.809 82.7979 151.779C82.8454 150.987 83.5906 150.962 84.1824 150.967C85.9101 150.987 85.5082 149.499 85.8878 148.589C86.3595 147.464 85.3882 147.249 84.7127 146.884C84.2159 146.613 83.4148 146.686 83.3813 145.887C83.3366 144.835 84.3024 145.092 84.8774 144.807C86.5214 143.998 86.7671 142.141 85.4021 140.93C84.9221 140.503 83.8167 140.617 84.0037 139.649C84.2159 138.549 85.2654 138.892 86.0106 138.831C87.0043 138.75 87.3895 138.25 87.4425 137.282C87.6184 134.086 88.0231 130.893 88.0091 127.7C87.9812 121.916 86.6303 116.133 88.0761 110.352C91.4898 111.594 94.8979 110.037 98.3087 110.335C97.957 112.284 96.1707 113.682 96.4861 115.954C96.9801 119.516 96.313 123.105 96.4414 126.714C96.768 135.942 96.7289 145.201 94.8058 154.32C94.6718 154.959 94.8504 155.576 95.5789 155.743C96.5949 155.977 96.9383 156.829 97.4937 157.543C99.2857 159.846 101.234 160.139 103.419 158.194C105.588 156.262 107.877 154.373 108.999 151.523C109.379 150.563 109.638 150.202 111.12 150.63C113.074 151.193 114.956 152.569 117.183 152.098C122.207 154.275 127.243 155.372 132.314 152.232C132.652 152.145 132.992 152.056 133.33 151.969C135.761 152.106 138.031 151.592 140.104 150.286C141.497 152.296 142.692 154.333 145.017 155.668C147.557 157.127 152.509 157.507 154.926 155.659C155.297 155.375 155.864 154.713 155.769 154.543C154.454 152.165 155.853 149.773 155.643 147.411C155.367 144.302 154.937 141.204 154.728 138.091C154.234 130.742 155.358 123.426 155.35 116.083C155.35 114.726 154.926 113.291 156 112.027C156.665 111.245 155.986 110.584 155.269 110.517C154.088 110.405 153.07 109.682 151.749 109.973C150.047 110.347 148.556 109.587 146.602 107.946C148.749 107.946 150.117 107.949 151.481 107.946C154.812 107.937 156.505 106.324 156.559 103.109C159.512 102.034 162.585 102.665 165.602 102.464L165.594 102.461ZM125.303 172.161C131.033 172.22 136.758 172.097 142.31 170.481C144.847 169.741 145.285 167.793 143.219 166.129C140.576 164.002 137.751 162.093 134.946 160.181C133.637 159.291 131.921 158.875 130.651 159.796C127.438 162.127 124.295 161.571 121.001 160.206C118.224 159.056 115.659 159.679 113.496 161.619C111.483 163.424 109.382 165.063 106.853 166.012C105.39 166.559 105.223 167.787 105.175 168.901C105.117 170.229 106.395 170.227 107.383 170.439C113.292 171.7 119.262 172.32 125.305 172.164L125.303 172.161Z" fill="#F3AD07"/>
<path d="M164.402 108.55C166.211 108.912 166.953 107.885 167.274 106.331C167.537 105.066 167.777 103.793 168.025 102.526C170.646 102.135 173.381 103.162 175.933 101.892C176.851 101.717 178.171 102.459 178.609 101.343C178.978 100.405 177.828 99.6372 177.334 98.8166C176.432 97.3149 174.442 96.6394 174.127 94.666C177.063 95.7881 179.251 97.9206 181.484 100.02C183.832 102.23 186.419 103.966 189.886 103.844C190.746 103.813 191.625 104.265 192.49 104.494C191.748 108.187 192.934 111.815 192.864 115.489C193.071 116.362 193.42 117.227 193.464 118.109C193.858 125.891 192.939 133.651 192.967 141.427C192.967 141.528 192.987 141.642 192.948 141.729C191.421 144.986 193.425 145.221 195.837 145.109C193.768 146.496 191.145 146.795 189.233 148.486C189.026 148.506 188.82 148.528 188.613 148.548C186 146.253 185.679 148.444 185.183 150.298C181.347 151.481 177.872 153.502 174.194 155.046C173.404 155.328 172.611 155.607 171.821 155.889C171.154 156.064 170.459 156.176 169.823 156.433C168.874 156.818 167.821 157.427 167.176 156.229C166.618 155.188 166.269 153.753 167.472 152.972C168.689 152.182 168.449 151.78 167.863 150.655C167.204 149.393 166.149 147.847 167.724 146.29C168.321 145.698 167.609 145.031 167.308 144.403C166.571 142.865 166.322 141.327 167.894 140.088C168.321 139.75 168.675 139.362 168.416 138.831C168.067 138.114 167.422 138.287 166.861 138.536C165.488 139.141 165.01 138.337 164.807 137.221C163.941 132.44 163.059 126.913 164.902 123.022C166.629 119.374 166.378 116.147 166.808 112.692C167.048 110.766 166.091 110.157 164.343 110.361C164.36 109.758 164.377 109.155 164.394 108.552L164.402 108.55Z" fill="#D7D700"/>
<path d="M167.519 45.566C168.077 45.3147 168.638 45.0635 169.196 44.8123C169.423 44.6532 169.646 44.4913 169.872 44.3322L169.866 44.3434C170.835 44.2401 171.675 43.8745 172.314 43.1125C172.496 43.0818 172.669 43.0315 172.839 42.9617C173.065 42.8082 173.294 42.6547 173.52 42.5012C173.701 42.4733 173.88 42.423 174.05 42.3561C174.282 42.2053 174.511 42.0546 174.74 41.9011C174.918 41.8732 175.094 41.8257 175.262 41.7587C175.493 41.6052 175.728 41.4545 175.96 41.301C176.135 41.2786 176.308 41.2312 176.473 41.1642C176.71 41.0107 176.948 40.8572 177.188 40.7036C177.76 40.4636 178.329 40.2263 178.902 39.9863C179.41 40.0338 179.851 39.9416 180.099 39.4309L180.13 39.4141C180.635 39.442 181.081 39.3443 181.341 38.8447L181.349 38.8391C181.866 38.8587 182.321 38.7442 182.597 38.2557C182.781 38.2278 182.963 38.1832 183.139 38.119C183.376 37.971 183.613 37.8231 183.85 37.6752C184.023 37.6556 184.194 37.6138 184.356 37.5496C184.861 37.6082 185.291 37.5161 185.514 36.9913C185.514 36.9913 185.575 36.955 185.575 36.9578C186.078 36.9857 186.547 36.9327 186.84 36.4442C187.024 36.4191 187.205 36.3773 187.381 36.3131C187.627 36.1679 187.875 36.0228 188.121 35.8776C188.288 35.8748 188.447 35.8413 188.604 35.7855C189.634 35.5846 190.664 35.3836 191.696 35.1826C191.858 35.2217 192.026 35.2468 192.193 35.2636C192.305 36.0898 192.299 36.9885 193.399 37.1979C193.385 37.3486 193.399 37.4965 193.452 37.6389C193.472 47.9552 193.491 58.2716 193.511 68.5907C193.497 68.9731 193.483 69.3583 193.469 69.7407C192.431 71.7308 192.26 73.8661 192.274 76.0684C192.308 80.9614 191.331 85.7455 190.591 90.5576C190.463 91.395 190.499 92.2826 189.249 91.5848C189 91.1912 188.752 90.7949 188.503 90.4013C188.353 89.804 187.976 89.4048 187.431 89.1453L187.443 89.162L186.843 88.5172L186.868 88.52C186.664 87.3952 185.947 86.6722 184.998 86.1307L185.003 86.1363C184.802 85.927 184.604 85.7148 184.403 85.5055L184.417 85.5195C184.205 85.3213 183.993 85.1203 183.783 84.9221L183.789 84.9277C183.585 84.724 183.381 84.5174 183.178 84.3137L183.186 84.322C182.982 84.1155 182.779 83.9117 182.572 83.7052L182.58 83.7135C181.821 81.6508 180.356 80.2831 178.368 79.429V79.4458C178.159 79.242 177.953 79.0383 177.743 78.8345L177.757 78.8484C177.548 78.6279 177.338 78.4102 177.126 78.1897C176.934 78.0139 176.744 77.8352 176.551 77.6594C175.968 76.7299 175.279 75.9456 174.089 75.8283L174.095 75.8367C173.888 75.6385 173.682 75.4376 173.475 75.2394C173.238 74.7174 172.764 74.6505 172.272 74.6114L172.284 74.6225C172.077 74.4188 171.87 74.2178 171.664 74.0141L171.672 74.0224C171.463 73.8298 171.254 73.6372 171.047 73.4446L171.036 73.4391C170.804 72.9255 170.344 72.8334 169.85 72.7971L169.864 72.8083C169.651 72.6157 169.439 72.4231 169.227 72.2277C168.839 72.0183 168.448 71.809 168.06 71.5969C167.848 71.4294 167.633 71.2647 167.421 71.0972C167.237 71.0526 167.053 71.0107 166.866 70.9772C166.645 70.7818 166.428 70.5892 166.207 70.3938C165.956 69.897 165.501 69.7937 165.004 69.7686L165.012 69.777L164.398 69.2885C164.209 69.2355 164.016 69.1964 163.823 69.1657C163.611 69.001 163.396 68.8363 163.184 68.6689C160.052 67.022 156.96 65.2859 153.476 64.4485C153.284 64.3871 153.086 64.3453 152.885 64.3257C152.689 64.175 152.494 64.0243 152.296 63.8763C149.677 63.0139 147.057 62.1542 144.436 61.2917C145.641 59.8514 147.718 59.4244 148.659 57.6743V57.6771C149.814 57.5375 150.546 56.8257 151.095 55.8711V55.8767C151.947 55.8265 152.544 55.4106 152.899 54.6402L152.893 54.6458C153.75 54.6011 154.347 54.1657 154.732 53.4149C154.917 53.373 155.092 53.3088 155.26 53.2251C155.447 53.0743 155.634 52.9236 155.824 52.7701L155.877 52.7282C156.092 52.5524 156.307 52.3793 156.522 52.2035L156.516 52.209C157.362 52.1672 157.976 51.7708 158.35 51.006L158.344 51.0116C159.204 50.9753 159.81 50.5371 160.231 49.8142C160.399 49.7863 160.558 49.7332 160.708 49.6607C160.932 49.496 161.155 49.3313 161.375 49.1666C161.565 49.122 161.747 49.0578 161.923 48.9768C162.121 48.8317 162.316 48.6865 162.514 48.5386L162.545 48.5163C162.782 48.3404 163.022 48.1674 163.26 47.9915C163.424 47.9692 163.583 47.9217 163.737 47.8492C163.966 47.6873 164.197 47.5226 164.426 47.3607C164.61 47.3244 164.786 47.2686 164.954 47.1932C165.16 47.0425 165.367 46.889 165.573 46.7355L165.587 46.7243C166.09 46.7299 166.528 46.6127 166.763 46.1047L166.788 46.0935C167.03 45.9232 167.271 45.7502 167.513 45.5799L167.519 45.566Z" fill="#B05A00"/>
<path d="M100.19 63.2448C90.9035 65.7429 82.6582 70.1949 75.2363 76.2937C69.693 80.849 64.9033 86.0797 60.2977 92.6168C58.4025 82.1971 57.2693 72.4502 56.9762 62.5944C57.0627 61.316 57.4926 60.0014 56.5994 58.8235C56.5575 58.2262 56.5184 57.6288 56.4766 57.0343C56.4766 54.6171 56.4766 52.2027 56.4766 49.7855C56.5184 48.9872 56.5603 48.1861 56.6022 47.3851C57.5316 46.0006 57.046 44.4906 56.9846 43.0168C57.0181 42.1125 57.0627 41.2081 57.0795 40.3037C57.1744 35.0897 57.9587 34.4533 62.7317 36.3458C77.0032 42.0092 90.3815 49.3054 102.635 58.5946C103.626 59.3454 105.08 59.7557 105.197 61.3551C104.927 61.5756 104.656 61.7961 104.385 62.0194C103.735 61.9664 103.062 61.838 102.601 62.4995C101.722 62.5079 100.876 62.6167 100.19 63.2476V63.2448Z" fill="#B05A00"/>
<path d="M118.347 99.439C121.78 99.439 125.216 99.4335 128.649 99.4307C134.502 99.6428 140.358 99.8577 146.212 100.07C146.463 100.639 146.714 101.206 146.965 101.775C146.368 107.051 146.373 106.959 142.519 106.671C131.468 105.85 120.401 106.238 109.345 106.428C104.145 106.518 104.151 106.822 103.447 101.842C103.481 101.44 103.517 101.038 103.551 100.636C107.227 99.6512 111.014 99.8884 114.754 99.5898C115.949 99.4949 117.149 99.4837 118.347 99.4363V99.439Z" fill="#FC0D80"/>
<path d="M176.555 77.6511C176.748 77.827 176.938 78.0056 177.13 78.1815C177.34 78.402 177.549 78.6197 177.761 78.8374L177.747 78.8234C177.956 79.0272 178.163 79.231 178.372 79.4347V79.418C179.009 81.6007 180.48 82.9628 182.584 83.7025L182.576 83.6941C182.78 83.9007 182.983 84.1044 183.187 84.311L183.179 84.3026C183.383 84.5064 183.586 84.7129 183.79 84.9167L183.784 84.9111C183.997 85.1093 184.209 85.3102 184.418 85.5084L184.404 85.4945C184.605 85.7038 184.803 85.9159 185.004 86.1253L184.999 86.1197C184.951 87.4427 185.244 88.495 186.869 88.509L186.844 88.5062C187.045 88.7211 187.243 88.936 187.444 89.1509C187.444 89.1509 187.433 89.1342 187.433 89.137C187.421 89.8711 187.751 90.3121 188.504 90.393C188.753 90.7866 189.001 91.183 189.25 91.5765C189.303 93.2178 191.351 94.1277 190.86 95.9699C187.092 92.9554 183.179 90.1586 178.844 88.001C180.27 86.798 179.115 85.7512 178.498 84.8748C175.235 80.2274 170.995 76.5626 166.468 73.1963C162.995 70.6145 159.367 68.3061 155.431 66.4918C154.519 66.0704 153.547 65.674 153.475 64.4375C156.958 65.2749 160.051 67.0138 163.182 68.6578C163.395 68.8225 163.61 68.9872 163.822 69.1547C164.017 69.1826 164.207 69.2244 164.397 69.2775C164.6 69.4394 164.807 69.604 165.011 69.7687L165.002 69.7604C165.259 70.2488 165.703 70.3716 166.205 70.3856C166.426 70.581 166.644 70.7736 166.864 70.969C167.051 71.0052 167.235 71.0443 167.42 71.089C167.632 71.2564 167.847 71.4211 168.059 71.5886C168.447 71.7979 168.837 72.0073 169.225 72.2194C169.438 72.412 169.65 72.6046 169.862 72.8L169.848 72.7888C170.091 73.2857 170.532 73.4113 171.031 73.4308L171.043 73.4364C171.252 73.629 171.461 73.8216 171.668 74.0142L171.659 74.0058C171.866 74.2096 172.072 74.4105 172.279 74.6143L172.268 74.6031C172.514 75.1111 172.966 75.2228 173.471 75.2339C173.677 75.4321 173.884 75.6331 174.091 75.8313L174.085 75.8229C174.18 77.4083 175.229 77.7125 176.547 77.6511H176.555Z" fill="#FDB72B"/>
<path d="M105.197 61.3554C105.083 59.756 103.626 59.3457 102.635 58.5949C90.3814 49.3057 77.0031 42.0094 62.7316 36.3461C57.9586 34.4508 57.1743 35.09 57.0794 40.304C57.0627 41.2084 57.018 42.1127 56.9873 43.0171C56.817 43.0562 56.644 43.0841 56.4709 43.1008C55.8569 40.6418 56.5909 38.2078 56.7752 35.7906C56.8812 34.409 58.1764 33.8312 59.8092 34.3783C65.9778 36.4438 72.0766 38.6377 78.0666 41.2139C86.6915 44.9207 93.5969 51.4438 102.082 55.3375C103.788 56.1191 105.245 57.4588 106.769 58.6032C107.475 59.1336 108.41 59.8007 107.799 60.8167C107.232 61.7545 106.25 62.0644 105.197 61.3582V61.3554Z" fill="#FDB72B"/>
<path d="M82.6376 102.451C85.6466 102.448 88.6555 102.445 91.6644 102.442C93.3001 102.431 94.9162 102.537 96.4681 103.115C96.2867 104.723 96.108 106.33 95.9266 107.938C92.7 108.133 89.4203 107.503 86.2467 108.547C81.7193 109.309 78.1689 108.446 77.2924 103.151C77.2589 102.956 77.245 102.76 77.2227 102.562C79.0258 102.526 80.8317 102.49 82.6348 102.451H82.6376Z" fill="#F3AD07"/>
<path d="M77.1616 93.9825C78.9368 92.9386 80.7093 91.8974 82.4845 90.8535C82.4789 91.1522 82.5571 91.4815 82.4538 91.7439C81.3792 94.524 80.874 98.8727 81.3764 101.251C79.3304 101.259 77.2733 101.159 75.3027 101.887C74.51 101.893 73.7201 101.901 72.9274 101.907C72.517 101.898 72.1095 101.89 71.6992 101.882C72.1067 100.866 72.517 99.8496 72.9246 98.8364C73.9154 98.2363 74.6914 97.4213 75.3083 96.4471C76.2964 95.9056 77.1421 95.2525 77.1616 93.9825Z" fill="#FDB72B"/>
<path d="M146.968 101.778C146.717 101.209 146.466 100.642 146.215 100.073C151.926 99.6234 157.57 100.938 163.28 100.726C164.204 100.692 164.478 102.306 165.594 102.465C162.58 102.666 159.504 102.032 156.551 103.11C153.369 102.571 149.885 104.223 146.968 101.781V101.778Z" fill="#FDB72B"/>
<path d="M190.861 95.9689C191.355 94.1267 189.303 93.2168 189.25 91.5755C190.498 92.2761 190.464 91.3857 190.593 90.5484C191.332 85.7391 192.309 80.9549 192.276 76.0591C192.259 73.8569 192.432 71.7216 193.47 69.7314C194.182 70.178 194.062 70.8982 194.084 71.5736C192.706 74.0355 193.437 76.8156 193.046 79.4253C192.273 84.6058 191.656 89.898 192.569 95.165C192.742 96.1699 192.189 96.368 191.522 96.6248C191.522 96.6248 191.603 96.5439 191.603 96.5411C191.38 96.3234 191.156 96.1057 190.933 95.888L190.861 95.9661V95.9689Z" fill="#F3AD07"/>
<path d="M174.128 94.6653C174.44 96.6387 176.433 97.3142 177.335 98.8158C177.826 99.6365 178.979 100.407 178.61 101.342C178.172 102.458 176.849 101.716 175.934 101.892C174.739 101.892 173.544 101.892 171.602 101.892C174.049 98.9666 172.004 96.5773 171.643 94.0289L171.724 93.9619C172.269 94.2941 172.816 94.456 173.38 94.0038C173.631 94.2243 173.879 94.442 174.13 94.6625L174.128 94.6653Z" fill="#FDB72B"/>
<path d="M193.512 68.5817C193.492 58.2654 193.473 47.949 193.453 37.6299C194.846 40.7421 194.285 44.139 194.528 47.3545C195.03 54.0562 194.879 60.8277 194.042 67.5406C193.997 67.9034 193.696 68.2356 193.515 68.5817H193.512Z" fill="#F3AD07"/>
<path d="M96.4717 103.112C94.9197 102.534 93.3008 102.428 91.668 102.439C93.1752 100.346 95.5506 101.018 97.5602 100.723C99.5197 100.435 101.552 100.647 103.553 100.639C103.519 101.041 103.483 101.443 103.452 101.845C101.233 102.855 99.3187 105.549 96.4717 103.112Z" fill="#FDB72B"/>
<path d="M75.3041 101.887C77.2747 101.158 79.3319 101.259 81.3778 101.251C82.3603 101.251 83.3456 101.251 84.8334 101.251C83.8118 101.809 83.2256 102.13 82.6395 102.451C80.8363 102.487 79.0332 102.523 77.2273 102.56C76.5825 102.521 75.9377 102.484 75.293 102.445C75.293 102.258 75.2985 102.071 75.3069 101.887H75.3041Z" fill="#FED938"/>
<path d="M148.661 57.6627C147.717 59.4128 145.643 59.8371 144.438 61.2801C143.821 61.0959 142.045 61.3136 143.419 60.1553C144.837 58.9578 146.433 57.4506 148.663 57.6627H148.661Z" fill="#F3AD07"/>
<path d="M167.479 87.9248C167.197 89.9233 168.813 90.8835 169.812 92.1786C168.313 92.2344 167.144 91.7181 166.496 90.2806C165.983 89.1418 166.443 88.4133 167.479 87.9248Z" fill="#FDB72B"/>
<path d="M56.4792 49.7832C56.4792 52.2004 56.4792 54.6148 56.4792 57.032C55.6111 54.6148 55.6111 52.2004 56.4792 49.7832Z" fill="#FDB72B"/>
<path d="M151.099 55.8627C150.546 56.8173 149.815 57.5291 148.662 57.6687C148.735 56.0665 149.765 55.7595 151.099 55.8627Z" fill="#F3AD07"/>
<path d="M169.861 92.2235C170.526 92.4998 171.193 92.7789 171.857 93.0553C171.812 93.3595 171.768 93.661 171.723 93.9624L171.642 94.0294C170.548 93.9178 169.895 93.3763 169.864 92.2207L169.861 92.2235Z" fill="#FDB72B"/>
<path d="M191.698 35.1766C190.668 35.3776 189.638 35.5785 188.605 35.7795C189.44 34.5765 190.425 34.1439 191.698 35.1766Z" fill="#F3AD07"/>
<path d="M56.4715 43.1013C56.6474 43.0874 56.8204 43.0594 56.9879 43.0176C57.0493 44.4886 57.535 45.9986 56.6027 47.383C56.5581 45.9567 56.5134 44.5276 56.4688 43.0985L56.4715 43.1013Z" fill="#F67C00"/>
<path d="M193.401 37.1921C192.299 36.9856 192.304 36.0868 192.195 35.2578C193.574 35.2913 193.524 36.218 193.401 37.1921Z" fill="#F3AD07"/>
<path d="M172.315 43.1123C171.676 43.8743 170.836 44.2372 169.867 44.3433C170.063 42.6965 171.338 43.2045 172.315 43.1123Z" fill="#F3AD07"/>
<path d="M82.4805 90.8616C82.7289 90.0885 82.9773 89.3181 83.2257 88.5449C83.9905 89.6419 84.4594 90.6467 82.4805 90.8616Z" fill="#FDB72B"/>
<path d="M56.6005 58.8211C57.4937 60.0018 57.0638 61.3137 56.9773 62.5921C56.8015 62.5502 56.6228 62.5195 56.4414 62.5C56.4944 61.2718 56.5475 60.0465 56.6005 58.8184V58.8211Z" fill="#F67C00"/>
<path d="M154.738 53.406C154.353 54.1568 153.755 54.5923 152.898 54.6369C152.943 53.3781 153.839 53.3892 154.738 53.406Z" fill="#F3AD07"/>
<path d="M160.238 49.8026C159.814 50.5255 159.211 50.9637 158.352 51C158.419 49.7133 159.326 49.7524 160.238 49.8026Z" fill="#F3AD07"/>
<path d="M158.357 50.9945C157.983 51.7593 157.369 52.1556 156.523 52.1975C156.593 50.9694 157.458 50.9554 158.357 50.9945Z" fill="#F3AD07"/>
<path d="M152.901 54.6316C152.544 55.402 151.946 55.8179 151.098 55.8681C151.114 54.6009 151.996 54.5981 152.901 54.6316Z" fill="#F3AD07"/>
<path d="M102.602 62.4971C103.062 61.8356 103.735 61.964 104.385 62.017C103.905 62.6087 103.238 62.4915 102.602 62.4971Z" fill="#FDB72B"/>
<path d="M186.843 36.4382C186.549 36.9267 186.081 36.9769 185.578 36.9518C185.891 36.5108 186.34 36.4131 186.843 36.4382Z" fill="#F3AD07"/>
<path d="M185.518 36.9854C185.294 37.5101 184.862 37.6022 184.359 37.5436C184.745 37.3566 185.133 37.1724 185.518 36.9854Z" fill="#F3AD07"/>
<path d="M182.597 38.2497C182.318 38.7381 181.866 38.8526 181.35 38.833C181.626 38.339 182.084 38.2329 182.597 38.2497Z" fill="#F3AD07"/>
<path d="M181.34 38.8391C181.084 39.3387 180.637 39.4364 180.129 39.4085C180.405 38.9479 180.843 38.8335 181.34 38.8391Z" fill="#F3AD07"/>
<path d="M180.1 39.4248C179.851 39.9356 179.41 40.0277 178.902 39.9803C179.301 39.7932 179.701 39.609 180.1 39.4248Z" fill="#F3AD07"/>
<path d="M166.773 46.0928C166.538 46.598 166.103 46.718 165.598 46.7124C165.846 46.2323 166.282 46.1095 166.773 46.0928Z" fill="#F3AD07"/>
<path d="M152.297 63.8652C152.492 64.016 152.688 64.1667 152.886 64.3146C152.69 64.1639 152.495 64.0132 152.297 63.8652Z" fill="#FDB72B"/>
<path d="M73.2241 87.4395C72.9199 87.579 72.6156 87.7214 72.3086 87.8609C72.6128 87.7214 72.9171 87.579 73.2241 87.4395Z" fill="#FDB72B"/>
<path d="M155.829 52.7617C155.642 52.9124 155.455 53.066 155.266 53.2167C155.453 53.0632 155.64 52.9124 155.829 52.7617Z" fill="#F3AD07"/>
<path d="M161.384 49.1553C161.161 49.32 160.94 49.4846 160.717 49.6493C160.94 49.4846 161.163 49.32 161.384 49.1553Z" fill="#F3AD07"/>
<path d="M162.523 48.5273C162.325 48.6725 162.13 48.8204 161.932 48.9656C162.13 48.8176 162.325 48.6725 162.523 48.5273Z" fill="#F3AD07"/>
<path d="M163.271 47.9805C163.034 48.1563 162.794 48.3322 162.557 48.5052C162.794 48.3294 163.034 48.1535 163.271 47.9805Z" fill="#F3AD07"/>
<path d="M167.519 45.5654C167.276 45.7385 167.036 45.9087 166.793 46.079C167.036 45.906 167.276 45.7357 167.519 45.5654Z" fill="#F3AD07"/>
<path d="M169.875 44.332C169.649 44.4939 169.425 44.653 169.199 44.8121C169.423 44.6502 169.649 44.4911 169.875 44.332Z" fill="#F3AD07"/>
<path d="M173.521 42.501C173.295 42.6545 173.069 42.808 172.84 42.9615C173.066 42.808 173.295 42.6545 173.521 42.501Z" fill="#F3AD07"/>
<path d="M175.963 41.2979C175.732 41.4514 175.497 41.6049 175.266 41.7556C175.497 41.6021 175.732 41.4486 175.963 41.2979Z" fill="#F3AD07"/>
<path d="M177.187 40.7002C176.95 40.8537 176.713 41.0072 176.473 41.1607C176.71 41.0072 176.947 40.8537 177.187 40.7002Z" fill="#F3AD07"/>
<path d="M188.124 35.874C187.879 36.0192 187.633 36.1643 187.385 36.3095C187.63 36.1643 187.876 36.0192 188.124 35.874Z" fill="#F3AD07"/>
<path d="M174.194 155.049C177.873 153.505 181.348 151.484 185.18 150.301C185.538 150.312 185.895 150.326 186.255 150.337C185.619 151.959 184.985 153.58 184.351 155.202C180.201 160.966 179.835 167.796 178.978 174.476C178.925 174.886 179.333 175.352 179.525 175.793C179.562 177.203 179.595 178.609 179.631 180.019C178.727 181.013 178.571 178.953 177.747 179.55C177.968 182.056 178.071 184.569 178.459 187.033C178.629 188.113 178.867 189.696 180.251 189.844C184.756 190.318 189.189 190.891 193.786 189.495C196.242 188.75 198.104 186.659 201.275 187.134C206.14 187.859 207.664 186.428 209.598 181.682C209.816 181.147 209.813 180.198 210.461 180.217C213.327 180.304 214.449 177.73 216.417 176.474C218.602 175.076 220.833 175.718 221.235 178.221C222.195 184.186 221.293 190.067 217.642 194.812C212.328 201.723 205.171 204.858 196.172 203.27C194.21 202.924 192.454 201.656 190.369 202.016C186.769 200.551 183.235 199.044 181.222 195.337C180.533 194.067 180 195.161 179.556 195.778C177.491 194.257 177.278 191.697 176.137 189.66C175.827 188.473 175.517 187.29 175.207 186.104C174.979 183.388 174.752 180.669 174.524 177.953C174.482 177.574 174.443 177.194 174.401 176.815C174.741 175.327 174.669 173.825 174.529 172.324C174.535 171.852 174.54 171.38 174.546 170.911C174.593 169.32 174.644 167.726 174.691 166.133C174.867 165.828 175.043 165.527 175.219 165.223C175.389 164.433 175.459 163.648 175.076 162.892C174.78 160.277 174.487 157.661 174.191 155.049H174.194Z" fill="#0290F6"/>
<path d="M190.372 202.016C192.457 201.655 194.213 202.923 196.175 203.269C205.174 204.857 212.33 201.725 217.645 194.811C221.293 190.066 222.195 184.185 221.237 178.22C220.835 175.717 218.608 175.075 216.42 176.473C214.452 177.732 213.33 180.303 210.463 180.216C209.816 180.197 209.818 181.146 209.601 181.682C207.666 186.427 206.142 187.858 201.277 187.133C198.104 186.658 196.245 188.749 193.788 189.494C189.188 190.89 184.756 190.318 180.254 189.843C178.869 189.698 178.632 188.115 178.462 187.032C178.074 184.565 177.971 182.056 177.75 179.549C178.573 178.952 178.733 181.012 179.634 180.018C182.526 182.156 185.582 182.918 189.205 181.936C192.094 181.151 194.531 183.448 197.311 183.914C198.924 184.185 200.512 184.367 202.098 184.252C204.509 184.076 205.852 182.589 206.206 180.222C206.279 179.728 206.315 179.195 206.206 178.712C205.204 174.154 206.784 170.949 210.756 168.409C213.567 166.612 216.154 166.578 218.332 169.135C224.215 176.038 223.73 183.529 220.855 191.479C216.294 204.075 202.572 207.673 191.321 203.079C190.791 202.864 190.517 202.521 190.372 202.013V202.016Z" fill="#3BA3FE"/>
<path d="M179.524 175.793C179.331 175.352 178.927 174.883 178.977 174.476C179.837 167.793 180.199 160.966 184.35 155.202C187.292 158.072 187.931 161.787 185.168 164.762C182.53 167.604 181.944 171.079 180.783 174.417C180.526 175.154 180.398 175.743 179.521 175.796L179.524 175.793Z" fill="#3BA3FE"/>
<path d="M186.258 150.336C185.898 150.325 185.541 150.314 185.184 150.3C185.68 148.447 186.004 146.253 188.614 148.547C187.827 149.142 187.043 149.739 186.255 150.334L186.258 150.336Z" fill="#55E883"/>
<path d="M73.9336 191.437C74.4974 189.458 75.0585 187.479 75.6223 185.5C84.9868 192.76 95.3478 198.379 105.957 203.517C112.843 206.853 120.198 208.533 127.927 207.905C134.654 207.358 140.889 205.075 146.896 202.164C156.676 197.421 166.295 192.38 175.21 186.103C175.52 187.289 175.83 188.473 176.14 189.659C171.889 190.99 168.268 193.603 164.31 195.532C154.195 200.458 144.384 206.172 133.183 208.388C126.808 209.65 120.402 209.39 114.018 207.886C106.864 206.197 100.473 202.786 93.9969 199.526C87.5324 196.271 81.0428 193.087 73.9336 191.437Z" fill="#B05A00"/>
<path d="M71.1134 152.748C68.5846 151.785 65.8632 151.336 64.3447 148.506C63.298 146.554 62.2988 148.296 61.4419 149.122C61.2521 149.136 61.0651 149.114 60.8808 149.061C59.2089 146.421 56.4093 145.723 53.6907 144.883C53.4199 144.411 53.1464 143.939 52.8728 143.47C52.8282 141.488 52.7863 139.509 52.7416 137.528C52.7305 137.084 52.7221 136.64 52.7109 136.196C52.7361 129.634 52.764 123.075 52.7891 116.513C57.1964 115.499 57.4281 112.267 57.0178 108.644C56.8615 107.257 56.8559 105.856 56.7805 104.46C59.2647 103.612 61.8522 103.706 64.4201 103.637C64.9923 106.238 66.4856 108.823 63.2422 111.033C61.8857 111.96 62.4495 114.16 62.9045 115.6C63.3315 116.956 64.6239 115.092 65.5003 115.703C66.5414 120.847 64.462 125.841 64.5708 130.868C64.6741 135.593 63.6609 140.456 65.6343 145.064C69.5448 144.419 70.1895 144.71 70.1086 148.628C70.0751 150.244 70.6864 151.406 71.1134 152.748Z" fill="#55E883"/>
<path d="M27.8795 174.607C28.7029 169.8 31.843 166.445 35.2567 163.406C37.5482 161.365 40.2585 159.791 42.779 158.005C45.7377 156.478 49.0202 155.593 51.6914 153.502C53.1484 152.313 55.6493 153.165 56.6067 150.996C57.966 150.209 59.6575 150.15 60.88 149.062C61.0615 149.115 61.2485 149.137 61.4411 149.123C63.8471 149.801 64.7403 151.657 65.1478 153.888C65.0222 154.884 64.8771 155.786 63.8639 156.428C61.9798 157.625 61.7593 159.224 62.5715 161.351C63.3 163.255 64.0844 164.874 65.8345 166.066C67.1408 166.956 67.8162 168.332 68.341 169.962C68.9885 171.966 69.0946 174.386 71.1154 175.79C70.7693 177.175 70.2306 178.531 70.5153 180.008C68.3773 184.164 62.7278 180.731 60.2911 184.728C59.864 185.426 57.405 185.177 55.9731 184.574C50.9796 182.481 46.7397 179.374 43.6861 174.855C42.3073 172.815 42.0728 170.372 38.7234 169.485C35.2176 168.555 32.8227 168.293 30.2967 171.268C29.3951 172.329 29.2388 173.909 27.8711 174.604L27.8795 174.607Z" fill="#5BBCFD"/>
<path d="M27.8797 174.607C29.2474 173.909 29.4037 172.332 30.3053 171.271C32.8313 168.296 35.2262 168.555 38.732 169.487C42.0786 170.375 42.3159 172.817 43.6947 174.858C46.7483 179.377 50.9882 182.483 55.9817 184.577C57.4136 185.177 59.8754 185.428 60.2997 184.73C62.7364 180.736 68.3859 184.169 70.5239 180.01C71.3697 180.429 72.0368 179.413 72.8239 179.435C73.1979 182.294 72.3215 184.68 71.7242 187.12C71.5372 187.884 71.3111 188.526 70.4235 188.471C68.9385 188.378 67.6825 189.473 66.3874 189.484C63.973 189.506 60.8998 191.253 59.2753 188.258C58.0556 186.009 56.5818 186.606 55.0187 187.114C54.4074 187.312 53.9413 188.102 53.1737 187.644C49.7433 185.601 45.7714 184.607 42.5587 182.132C40.0969 180.236 37.6406 178.313 35.0392 176.625C32.2759 174.83 30.4895 175.678 29.1776 178.701C28.1449 181.077 28.9236 183.34 29.3311 185.523C30.7351 193.084 34.5563 199.183 42.0061 201.899C51.7977 205.469 60.7296 203.526 68.4222 196.35C69.1618 195.661 69.8736 194.374 71.0738 195.828C70.7696 196.978 69.6615 197.508 69.0613 198.424C63.3812 203.3 56.7716 206.192 49.3163 206.016C36.9791 205.729 30.0401 198.279 27.5085 187.46C27.1707 186.014 27.1819 184.485 27.0312 182.994C27.7262 181.635 27.7122 180.273 27.0479 178.905C26.8777 177.384 27.3717 175.994 27.8797 174.607Z" fill="#3BA3FE"/>
<path d="M27.0443 178.905C27.7058 180.27 27.7225 181.635 27.0275 182.994C26.2348 181.627 26.179 180.265 27.0443 178.905Z" fill="#5BBCFD"/>
<path d="M71.0713 195.826C69.8711 194.374 69.1593 195.658 68.4196 196.348C60.727 203.524 51.7952 205.466 42.0036 201.896C34.5538 199.181 30.7326 193.082 29.3286 185.52C28.9239 183.338 28.1452 181.074 29.1751 178.699C30.487 175.679 32.2762 174.827 35.0367 176.622C37.6381 178.313 40.0944 180.234 42.5562 182.129C45.7717 184.605 49.7408 185.599 53.1712 187.642C53.9388 188.099 54.4077 187.31 55.0162 187.111C56.5765 186.603 58.0531 186.006 59.2728 188.256C60.8973 191.251 63.9677 189.503 66.3849 189.481C67.68 189.47 68.9332 188.376 70.421 188.468C71.3086 188.524 71.5346 187.882 71.7217 187.117C72.319 184.677 73.1954 182.291 72.8214 179.433C72.0343 179.41 71.37 180.424 70.5214 180.008C70.2339 178.534 70.7754 177.175 71.1216 175.79C71.6938 175.383 71.7579 174.769 71.6714 174.174C70.781 168.184 69.6673 162.233 67.1524 156.682C66.7114 155.71 66.5663 154.267 65.1511 153.888C64.7436 151.655 63.8504 149.801 61.4444 149.123C62.3013 148.297 63.3006 146.555 64.3473 148.506C65.8685 151.336 68.5871 151.786 71.116 152.749C72.8968 153.6 74.6804 154.451 76.4612 155.305C76.4612 158.848 75.0153 162.339 76.1067 165.918C75.7187 167.38 75.8415 168.843 76.0927 170.308C76.1262 173.044 75.9224 175.79 76.5337 178.492C76.2295 180.828 75.9224 183.165 75.6182 185.501C75.0544 187.48 74.4933 189.459 73.9295 191.438C72.7795 192.772 72.5255 194.692 71.0685 195.828L71.0713 195.826Z" fill="#0290F6"/>
<path d="M65.1488 153.887C66.5639 154.266 66.7091 155.709 67.1501 156.681C69.6678 162.232 70.7787 168.183 71.6691 174.173C71.7584 174.768 71.6914 175.385 71.1192 175.789C69.0983 174.388 68.9923 171.968 68.3447 169.961C67.8172 168.331 67.1417 166.955 65.8382 166.065C64.0881 164.87 63.3038 163.251 62.5753 161.35C61.763 159.226 61.9835 157.624 63.8676 156.427C64.878 155.785 65.0232 154.883 65.1516 153.887H65.1488Z" fill="#3BA3FE"/>
<path d="M71.1145 152.748C70.6874 151.406 70.0761 150.244 70.1096 148.628C70.1933 144.709 69.5458 144.419 65.6353 145.064C63.6591 140.456 64.6751 135.593 64.5718 130.868C64.463 125.841 66.5424 120.847 65.5013 115.703C64.6221 115.092 63.3325 116.956 62.9055 115.6C62.4533 114.16 61.8895 111.96 63.2432 111.033C66.4866 108.82 64.9933 106.238 64.4211 103.637C65.0826 103.243 65.7441 102.85 66.4029 102.456C67.3268 102.422 68.2534 102.392 69.1801 102.358C70.0984 102.618 70.9079 102.3 71.7006 101.884C72.1109 101.892 72.5184 101.901 72.9287 101.909C73.3949 103.494 74.2629 103.316 75.2901 102.448C75.9349 102.487 76.5797 102.523 77.2244 102.562C77.2495 102.757 77.2635 102.956 77.2942 103.151C78.1706 108.446 81.7183 109.308 86.2484 108.546C86.1033 109.909 87.6301 109.588 88.0711 110.358C86.6225 116.139 87.9762 121.922 88.0013 127.705C88.0153 130.899 87.6106 134.092 87.4347 137.288C87.3817 138.256 86.9965 138.756 86.0028 138.837C85.2603 138.898 84.2081 138.555 83.9959 139.655C83.8089 140.623 84.9142 140.509 85.3943 140.936C86.7592 142.147 86.5164 144.003 84.8696 144.813C84.2918 145.097 83.3288 144.838 83.3735 145.893C83.407 146.691 84.2081 146.619 84.7049 146.889C85.3832 147.255 86.3517 147.47 85.88 148.595C85.4976 149.508 85.8995 150.992 84.1746 150.973C83.5828 150.967 82.8376 150.992 82.7901 151.785C82.7287 152.815 83.6666 152.645 84.2946 152.843C88.3307 154.119 88.7187 154.73 88.4675 159.665C85.9944 158.802 83.5968 157.968 81.1991 157.13C79.6193 156.522 78.0367 155.913 76.4541 155.305C74.6733 154.454 72.8897 153.602 71.1089 152.748H71.1145Z" fill="#D7D700"/>
<path d="M69.1796 102.355C68.2529 102.389 67.3262 102.422 66.4023 102.453C68.853 99.4135 71.862 97.0409 75.2086 95.0703C75.2421 95.5281 75.2756 95.9858 75.3091 96.4436C74.6923 97.4177 73.9163 98.2328 72.9254 98.8329C70.9744 99.2599 69.9053 100.622 69.1796 102.353V102.355Z" fill="#F67C00"/>
<path d="M75.3075 96.4464C75.274 95.9886 75.2405 95.5309 75.207 95.0731C75.7011 94.4311 76.2733 93.9231 77.1609 93.9845C77.1413 95.2545 76.2956 95.9049 75.3075 96.4492V96.4464Z" fill="#F3AD07"/>
<path d="M52.7906 116.512C52.7655 123.075 52.7376 129.634 52.7124 136.196C50.9791 136.481 49.2458 136.766 47.5152 137.053C46.2396 137.014 44.978 136.721 46.1056 135.163C48.2856 132.154 48.3191 128.347 50.0524 125.215C50.7921 123.881 49.1983 123.231 49.4914 122.153C49.9575 120.442 50.4823 118.751 50.9791 117.051C51.4089 116.289 52.0984 116.401 52.7906 116.512Z" fill="#F3AD07"/>
<path d="M52.7454 137.528C52.7901 139.51 52.832 141.489 52.8766 143.471C49.3737 143.987 46.0074 145.053 42.6161 146.03C42.1221 143.998 44.115 141.877 42.2226 139.767C41.7843 139.278 43.2106 138.067 43.9782 138.91C45.4994 140.585 44.877 137.952 45.5916 138.246C48.0367 138.611 50.3115 137.294 52.7427 137.528H52.7454Z" fill="#F3AD07"/>
<path d="M52.7449 137.528C50.3137 137.293 48.0389 138.611 45.5938 138.245C45.8254 137.187 47.2182 138.002 47.5169 137.05C49.2502 136.766 50.9836 136.481 52.7142 136.193C52.7253 136.637 52.7337 137.081 52.7449 137.525V137.528Z" fill="#4B2901"/>
<path d="M192.865 115.488C192.935 111.818 191.749 108.189 192.491 104.494C192.854 104.485 193.212 104.477 193.569 104.469C193.524 107.182 193.605 109.906 193.39 112.605C193.237 114.514 194.043 115.321 195.76 115.575C194.797 115.547 193.831 115.516 192.868 115.488H192.865Z" fill="#B05A00"/>
<path d="M171.723 93.9657C171.767 93.6643 171.812 93.36 171.857 93.0586C172.365 93.3768 172.87 93.6922 173.378 94.0104C172.814 94.4598 172.264 94.3007 171.723 93.9657Z" fill="#D7D700"/>
<path d="M190.934 95.8916C191.157 96.1093 191.38 96.327 191.603 96.5447C191.168 96.5447 190.945 96.327 190.934 95.8916Z" fill="#FDB72B"/>
<path d="M192.867 115.488C193.832 115.516 194.795 115.547 195.758 115.575C195.998 115.673 196.241 115.773 196.476 115.871C196.699 116.027 196.928 116.183 197.16 116.34L197.179 116.46C197.081 123.052 196.777 129.648 197.333 136.235C197.316 136.632 197.302 137.031 197.285 137.427C196.85 139.493 196.866 141.53 197.656 143.52C196.925 143.66 196.515 144.121 196.347 144.827C196.155 144.877 195.984 144.972 195.839 145.109C193.428 145.22 191.424 144.986 192.95 141.729C192.989 141.645 192.97 141.528 192.97 141.427C192.945 133.651 193.86 125.891 193.467 118.109C193.422 117.227 193.073 116.362 192.867 115.488Z" fill="#55E883"/>
<path d="M197.333 136.236C196.777 129.648 197.081 123.053 197.179 116.46C197.514 116.471 197.846 116.48 198.181 116.491C199.094 117.49 200.154 117.627 201.341 117.027C201.251 118.258 201.628 119.354 202.133 120.468C202.87 122.093 203.286 123.678 202.753 125.618C201.997 128.365 203.546 130.832 204.746 133.191C205.251 134.187 205.366 135.303 205.913 136.194C207.057 138.044 205.452 137.531 204.699 137.776C202.245 137.263 199.789 136.749 197.335 136.233L197.333 136.236Z" fill="#F3AD07"/>
<path d="M197.16 116.342C196.932 116.186 196.7 116.029 196.477 115.873C196.708 116.029 196.934 116.186 197.16 116.342Z" fill="#B05A00"/>
<path d="M197.333 136.235C199.789 136.749 202.242 137.263 204.696 137.779C205.921 138.708 207.682 138.708 208.665 140.062C204.877 139.161 201.187 137.835 197.285 137.43C197.302 137.034 197.316 136.634 197.333 136.238V136.235Z" fill="#4B2901"/>
<path d="M96.4716 103.112C99.3186 105.548 101.233 102.855 103.452 101.844C104.153 106.824 104.15 106.52 109.35 106.43C120.406 106.241 131.476 105.853 142.524 106.673C146.379 106.961 146.373 107.053 146.97 101.777C149.887 104.22 153.371 102.567 156.553 103.106C156.5 106.32 154.808 107.932 151.475 107.943C150.108 107.946 148.743 107.943 146.596 107.943C148.553 109.587 150.041 110.346 151.743 109.97C153.064 109.679 154.082 110.405 155.263 110.514C155.98 110.581 156.659 111.245 155.994 112.024C154.92 113.286 155.341 114.723 155.344 116.08C155.352 123.423 154.23 130.736 154.722 138.088C154.931 141.201 155.363 144.299 155.637 147.408C155.846 149.77 154.448 152.162 155.763 154.54C155.858 154.713 155.291 155.372 154.92 155.656C152.502 157.504 147.551 157.124 145.011 155.665C142.686 154.328 141.491 152.293 140.098 150.283C140.062 149.781 139.889 149.354 139.417 149.1C138.477 146.889 137.536 144.678 136.595 142.465C138.387 140.684 137.631 138.448 137.681 136.358C136.174 132.595 134.482 128.955 130.882 126.669C125.358 123.164 119.692 124.886 114.701 131.562C112.661 132.006 111.664 133.547 111.24 135.339C110.419 138.797 110.617 142.23 112.211 145.493C112.133 146.744 110.62 147.592 111.273 149.351C113.171 146.442 113.878 149.555 115.187 149.898C115.714 150.618 116.342 151.213 117.202 151.525C117.18 151.715 117.168 151.908 117.174 152.097C114.944 152.569 113.065 151.193 111.112 150.629C109.629 150.202 109.37 150.562 108.99 151.522C107.868 154.372 105.579 156.262 103.411 158.193C101.225 160.139 99.2767 159.846 97.4848 157.543C96.9293 156.831 96.586 155.977 95.57 155.743C94.8415 155.575 94.6629 154.958 94.7968 154.319C96.72 145.2 96.7591 135.945 96.4325 126.714C96.3041 123.105 96.9712 119.518 96.4771 115.954C96.1617 113.682 97.9481 112.281 98.2998 110.335C99.3661 110.134 100.43 109.908 101.501 109.738C102.171 109.629 103.084 109.746 102.978 108.744C102.877 107.798 101.956 107.985 101.298 107.971C99.5084 107.935 97.7164 107.943 95.9245 107.932C96.1059 106.324 96.2845 104.717 96.466 103.109L96.4716 103.112Z" fill="#F67C00"/>
<path d="M76.5346 178.491C75.9206 175.789 76.1271 173.04 76.0936 170.307C77.7153 169.691 78.1201 167.53 79.993 167.232C81.1234 167.24 82.2538 167.251 83.3815 167.259C94.284 171.134 105.625 172.373 117.088 172.859C134.427 173.593 151.551 172.325 168.254 167.243C170.526 166.95 172.273 167.656 173.259 169.852C173.504 170.4 173.859 170.874 174.551 170.908C174.545 171.379 174.54 171.851 174.534 172.317C173.806 173.794 173.996 175.298 174.406 176.811C174.448 177.191 174.487 177.57 174.529 177.95C172.192 180.702 170.518 183.984 167.768 186.402C167.02 187.058 166.194 187.923 165.153 187.616C163.917 187.253 164.246 185.949 164.143 185.003C163.4 178.207 162.122 177.023 155.186 176.856C154.077 176.831 152.964 176.856 151.856 176.917C138.449 177.654 125.046 178.36 111.612 177.62C106.172 177.322 100.729 176.914 95.286 176.909C88.5704 176.9 87.2697 178.276 86.5579 184.914C86.4574 185.863 86.7784 187.166 85.5977 187.571C84.4087 187.979 83.5546 186.971 82.7507 186.251C80.247 184.015 78.6504 181.042 76.5402 178.486L76.5346 178.491Z" fill="#BCBEC4"/>
<path d="M117.177 152.101C117.174 151.908 117.183 151.719 117.205 151.529C119.508 151.794 121.49 151.643 121.395 148.528C121.33 146.362 119 144.071 116.814 144.33C113.861 144.679 114.936 146.708 115.265 148.419C115.357 148.891 115.22 149.408 115.19 149.904C113.878 149.561 113.172 146.452 111.276 149.357C110.623 147.596 112.136 146.75 112.214 145.5C113.699 143.845 114.232 141.665 115.357 139.811C116.108 138.575 115.784 137.749 114.489 137.274C112.558 136.568 112.909 135.398 113.702 134.014C114.137 133.255 114.378 132.387 114.704 131.566C119.692 124.889 125.361 123.167 130.885 126.673C134.485 128.959 136.177 132.599 137.684 136.361C133.913 138.125 133.813 138.692 136.598 142.469C137.539 144.679 138.48 146.89 139.42 149.103C137.871 148.163 136.543 148.475 135.398 149.818C135.462 149.028 135.381 148.191 135.627 147.462C135.996 146.371 135.853 145.41 135.058 144.704C134.212 143.953 133.176 144.263 132.225 144.671C130.396 145.452 129.422 146.803 129.263 148.819C129.087 151.071 130.949 151.406 132.308 152.238C127.237 155.378 122.201 154.284 117.177 152.104V152.101Z" fill="#4B2901"/>
<path d="M125.302 172.164C119.259 172.317 113.289 171.695 107.38 170.436C106.394 170.227 105.113 170.23 105.172 168.898C105.222 167.787 105.387 166.559 106.849 166.009C109.378 165.063 111.48 163.422 113.492 161.616C115.653 159.676 118.218 159.056 120.998 160.204C124.292 161.568 127.435 162.124 130.647 159.793C131.92 158.872 133.634 159.288 134.943 160.178C137.751 162.09 140.573 164 143.216 166.127C145.282 167.787 144.843 169.738 142.306 170.478C136.755 172.094 131.03 172.217 125.299 172.161L125.302 172.164Z" fill="#FDB72B"/>
<path d="M83.3803 167.259C82.2498 167.251 81.1194 167.24 79.9917 167.232C79.1069 165.588 77.5494 165.922 76.1063 165.917C75.015 162.339 76.4636 158.847 76.4608 155.305C78.0435 155.913 79.6261 156.522 81.2059 157.13C79.788 160.968 81.8395 164.061 83.3803 167.259Z" fill="#B05A00"/>
<path d="M174.193 155.049C174.489 157.664 174.782 160.28 175.078 162.887C174.712 163.688 174.88 164.461 175.22 165.226C175.045 165.53 174.869 165.831 174.693 166.13C172.722 165.58 171.003 167.048 169.074 166.833C169.711 163.115 171.854 159.774 171.821 155.889C172.613 155.61 173.403 155.328 174.196 155.049H174.193Z" fill="#B05A00"/>
<path d="M132.307 152.235C130.95 151.403 129.086 151.068 129.262 148.816C129.418 146.803 130.395 145.449 132.223 144.668C133.175 144.26 134.21 143.95 135.056 144.701C135.849 145.407 135.994 146.365 135.626 147.459C135.38 148.187 135.461 149.028 135.397 149.815C134.704 150.532 134.015 151.252 133.326 151.97C132.988 152.056 132.647 152.145 132.31 152.232L132.307 152.235Z" fill="#030202"/>
<path d="M95.9279 107.938C97.7199 107.949 99.509 107.941 101.301 107.977C101.96 107.991 102.881 107.801 102.981 108.75C103.087 109.752 102.175 109.635 101.505 109.744C100.433 109.917 99.3695 110.14 98.3032 110.341C94.8896 110.042 91.4815 111.6 88.0706 110.358C87.6296 109.587 86.1028 109.908 86.248 108.546C89.4216 107.502 92.7013 108.133 95.9279 107.938Z" fill="#FDB72B"/>
<path d="M164.402 108.55C164.385 109.153 164.369 109.756 164.352 110.359C162.97 110.37 161.614 110.331 160.243 110.786C159.068 111.176 157.932 111.146 157.661 109.362C157.335 107.204 158.903 107.989 159.721 108.008C161.284 108.042 162.842 108.354 164.402 108.553V108.55Z" fill="#FDB72B"/>
<path d="M169.073 166.832C171.002 167.047 172.722 165.579 174.692 166.129C174.642 167.728 174.594 169.322 174.547 170.913C173.858 170.877 173.5 170.402 173.255 169.855C172.269 167.659 170.522 166.952 168.25 167.245C168.526 167.109 168.8 166.969 169.073 166.832Z" fill="#55E883"/>
<path d="M133.324 151.969C134.014 151.252 134.706 150.532 135.395 149.814C136.542 148.472 137.868 148.159 139.42 149.103C139.892 149.357 140.062 149.784 140.101 150.286C138.027 151.592 135.758 152.106 133.327 151.969H133.324Z" fill="#B05A00"/>
<path d="M182.583 83.7025C180.478 82.9628 179.007 81.6007 178.371 79.418C180.358 80.2721 181.824 81.6398 182.583 83.7025Z" fill="#F3AD07"/>
<path d="M186.875 88.5084C185.25 88.4945 184.957 87.4422 185.005 86.1191C185.954 86.6606 186.671 87.3836 186.875 88.5084Z" fill="#F3AD07"/>
<path d="M176.556 77.6505C175.238 77.7091 174.189 77.4049 174.094 75.8223C175.28 75.9395 175.972 76.721 176.556 77.6505Z" fill="#F3AD07"/>
<path d="M188.506 90.3898C187.752 90.3089 187.423 89.8651 187.434 89.1338C187.978 89.3934 188.355 89.7953 188.506 90.3898Z" fill="#F3AD07"/>
<path d="M173.478 75.2304C172.973 75.2193 172.521 75.1104 172.275 74.5996C172.767 74.6387 173.244 74.7029 173.478 75.2304Z" fill="#F3AD07"/>
<path d="M171.035 73.4271C170.535 73.4076 170.092 73.282 169.852 72.7852C170.343 72.8214 170.803 72.9136 171.035 73.4271Z" fill="#F3AD07"/>
<path d="M166.207 70.385C165.705 70.371 165.258 70.2482 165.004 69.7598C165.501 69.7849 165.956 69.8882 166.207 70.385Z" fill="#F3AD07"/>
<path d="M184.421 85.5075C184.209 85.3093 183.996 85.1083 183.787 84.9102C183.999 85.1083 184.211 85.3093 184.421 85.5075Z" fill="#F3AD07"/>
<path d="M169.863 72.7964C169.651 72.6038 169.439 72.4112 169.227 72.2158C169.439 72.4084 169.651 72.601 169.863 72.7964Z" fill="#F3AD07"/>
<path d="M171.676 74.0104C171.467 73.8178 171.257 73.6252 171.051 73.4326C171.26 73.6252 171.469 73.8178 171.676 74.0104Z" fill="#F3AD07"/>
<path d="M177.76 78.8366C177.55 78.6189 177.341 78.3984 177.129 78.1807C177.338 78.3984 177.548 78.6189 177.76 78.8366Z" fill="#F3AD07"/>
<path d="M178.371 79.4374C178.165 79.2337 177.955 79.0299 177.746 78.8262C177.953 79.0299 178.162 79.2337 178.371 79.4374Z" fill="#F3AD07"/>
<path d="M183.185 84.3102C182.982 84.1037 182.778 83.8999 182.574 83.6934C182.778 83.8971 182.982 84.1037 183.185 84.3102Z" fill="#F3AD07"/>
<path d="M69.1797 102.356C69.9054 100.625 70.9744 99.263 72.9255 98.8359C72.518 99.8519 72.1077 100.868 71.7002 101.881C70.9075 102.294 70.098 102.612 69.1797 102.356Z" fill="#F3AD07"/>
<path d="M75.2891 102.445C74.2619 103.313 73.3939 103.492 72.9277 101.906C73.7204 101.901 74.5131 101.892 75.3031 101.887C75.2947 102.074 75.2919 102.261 75.2891 102.445Z" fill="#F3AD07"/>
<path d="M76.5355 178.491C78.6457 181.048 80.245 184.021 82.746 186.256C83.5498 186.974 84.4039 187.984 85.593 187.577C86.7737 187.172 86.4527 185.868 86.5532 184.919C87.2649 178.282 88.5656 176.906 95.2813 176.914C100.724 176.92 106.167 177.327 111.607 177.626C125.039 178.366 138.445 177.657 151.851 176.923C152.959 176.861 154.073 176.836 155.181 176.861C162.117 177.026 163.395 178.212 164.138 185.009C164.241 185.955 163.912 187.261 165.148 187.621C166.192 187.926 167.018 187.063 167.764 186.407C170.513 183.99 172.188 180.705 174.524 177.955C174.75 180.671 174.979 183.387 175.205 186.106C166.29 192.383 156.671 197.427 146.891 202.166C140.887 205.078 134.649 207.358 127.922 207.908C120.19 208.539 112.838 206.856 105.952 203.52C95.3427 198.382 84.9817 192.763 75.6172 185.503C75.9214 183.167 76.2257 180.83 76.5327 178.494L76.5355 178.491Z" fill="#030202"/>
<path d="M174.402 176.814C173.992 175.301 173.802 173.797 174.531 172.32C174.673 173.825 174.743 175.326 174.402 176.814Z" fill="#55E883"/>
<path d="M175.219 165.223C174.879 164.458 174.711 163.685 175.077 162.884C175.459 163.646 175.39 164.43 175.219 165.223Z" fill="#55E883"/>
<path d="M76.1078 165.917C77.5508 165.926 79.1083 165.591 79.9931 167.232C78.1202 167.531 77.7155 169.688 76.0938 170.308C75.8426 168.843 75.7198 167.38 76.1078 165.917Z" fill="#55E883"/>
<path d="M114.704 131.568C114.377 132.389 114.137 133.257 113.702 134.016C112.909 135.401 112.557 136.57 114.489 137.276C115.784 137.751 116.108 138.577 115.357 139.814C114.235 141.667 113.699 143.847 112.214 145.502C110.617 142.239 110.422 138.806 111.24 135.348C111.664 133.556 112.66 132.015 114.701 131.571L114.704 131.568Z" fill="#B05A00"/>
<path d="M115.192 149.901C115.223 149.404 115.36 148.888 115.268 148.416C114.938 146.708 113.864 144.678 116.817 144.327C119.002 144.067 121.33 146.362 121.397 148.525C121.492 151.64 119.51 151.793 117.208 151.525C116.348 151.216 115.72 150.621 115.192 149.898V149.901Z" fill="#030202"/>
<path d="M136.598 142.469C133.815 138.692 133.916 138.128 137.684 136.361C137.634 138.452 138.39 140.688 136.598 142.469Z" fill="#B05A00"/>
<path fill-rule="evenodd" clip-rule="evenodd" d="M52.7305 100.851C70.7389 98.7646 103.373 95.6378 124.053 96.0006C144.655 96.3621 177.78 99.1777 196.132 100.953C200.905 101.415 204.5 105.431 204.5 110.195V114.25C204.5 116.895 202.544 119.083 200 119.447V137.767C200 141.909 198.216 146.209 194.196 148.541C188.976 151.568 179.722 155.869 165.398 160.363C159.967 162.066 155.29 162.464 151.246 161.694C147.16 160.917 143.923 158.985 141.356 156.381C136.384 151.335 133.95 143.744 132.115 137.324C130.48 131.6 127.335 129.903 125.191 129.937C122.994 129.972 119.892 131.835 118.393 137.294C114.752 150.559 108.874 157.85 102.61 161.419C96.3892 164.964 90.2369 164.575 86.5513 163.346C84.3486 162.612 79.5695 160.33 74.2743 157.683C68.8765 154.985 62.6715 151.767 57.4575 149.023C52.5438 146.438 49.5 141.339 49.5 135.807V119.478C46.6968 119.225 44.5 116.869 44.5 114V110.127C44.5 105.411 48.0026 101.398 52.7305 100.851ZM123.947 102C103.709 101.645 71.4319 104.724 53.4209 106.811C51.7629 107.003 50.5 108.414 50.5 110.127V113.523C53.3032 113.775 55.5 116.131 55.5 119V135.807C55.5 139.132 57.3278 142.175 60.2513 143.713C65.4471 146.447 71.6115 149.644 76.9573 152.316C82.4059 155.04 86.7447 157.086 88.4487 157.654C90.7631 158.426 95.1108 158.787 99.6398 156.206C104.126 153.65 109.248 147.941 112.607 135.706C114.54 128.665 119.33 124.028 125.097 123.938C130.916 123.847 135.806 128.4 137.885 135.676C139.765 142.257 141.881 148.365 145.63 152.17C147.424 153.99 149.59 155.271 152.368 155.8C155.187 156.336 158.833 156.134 163.602 154.638C177.617 150.241 186.441 146.102 191.185 143.35C192.938 142.334 194 140.299 194 137.767V118.75C194 116.105 195.956 113.917 198.5 113.553V110.195C198.5 108.49 197.221 107.086 195.555 106.925C177.198 105.149 144.286 102.357 123.947 102Z" fill="black"/>
<defs>
<linearGradient id="paint0_linear_761_6339" x1="215.314" y1="53.3182" x2="30.4659" y2="200.031" gradientUnits="userSpaceOnUse">
<stop stop-color="#01CCE3"/>
<stop offset="1" stop-color="#FD01FD"/>
</linearGradient>
</defs>
</svg>
