<svg width="250" height="250" viewBox="0 0 250 250" fill="none" xmlns="http://www.w3.org/2000/svg">
<path d="M124.64 151.667L134.047 135.78H115.604L124.64 151.667Z" fill="#F0DBB0"/>
<path d="M190.873 99.6875L178.416 43.6787L153.942 82.2228C134.917 77.6384 115.072 77.6384 96.0469 82.2228L71.6263 43.6787L59.125 99.6875C45.6804 110.417 37.4902 124.434 37.4902 139.819C37.4902 173.523 76.6514 200.853 124.964 200.853C173.276 200.853 212.437 173.523 212.437 139.819C212.429 124.434 204.3 110.417 190.873 99.6875ZM76.3693 125.342H70.5419L84.7711 108.953H95.1389L76.3693 125.342ZM124.523 165.368L100.323 122.821L106.3 119.418L111.696 128.895H138.135L143.769 119.374L149.684 122.883L124.523 165.368ZM173.638 125.342L154.859 108.953H165.289L179.509 125.342H173.638Z" fill="#F0DBB0"/>
</svg>
