<svg width="250" height="250" viewBox="0 0 250 250" fill="none" xmlns="http://www.w3.org/2000/svg">
<rect width="250" height="250" rx="125" fill="white"/>
<g clip-path="url(#clip0_242_94446)">
<path d="M238.4 138.666C237.449 135.336 235.134 132.085 231.93 127.586C228.357 122.568 223.463 115.696 218.371 105.566C218.353 105.531 218.335 105.495 218.315 105.461L214.057 97.7736C213.527 96.674 211.569 93.679 205.972 93.6788C204.654 93.691 203.341 93.8322 202.052 94.1004C195.524 95.4061 193.332 95.5736 192.151 95.5736C192.025 95.5736 191.909 95.5715 191.798 95.569C191.67 95.5661 191.54 95.5602 191.408 95.5543C191.163 95.5434 190.885 95.5315 190.587 95.5315H190.578C189.741 95.5315 187.233 95.5409 185.093 98.1085C184.427 98.9088 182.301 100.212 180.801 101.004L163.976 102.686C162.319 101.548 158.965 99.7046 154.623 99.7044C153.454 99.7053 152.289 99.8368 151.149 100.097C147.674 100.886 144.535 102.534 142.174 104.067C141.847 103.053 141.312 102.118 140.603 101.323C140.284 100.977 139.925 100.671 139.533 100.411C139.76 99.7032 139.988 98.922 140.184 98.1044C141.11 94.2373 140.965 91.161 139.757 88.9289C140.021 87.6298 140.412 85.5252 140.656 83.3518C140.9 81.1783 140.947 79.4315 140.799 78.0192C140.433 74.5497 138.761 73.3427 137.423 72.9413C135.716 72.4292 133.312 72.1685 130.278 72.1685C129.174 72.1685 128.341 72.2053 128.098 72.2173C127.007 72.2433 125.941 72.7533 124.906 73.7403C124.009 72.9588 122.913 72.4418 121.739 72.2469C120.654 72.1133 119.561 72.051 118.468 72.0605C113.209 72.0605 110.465 73.0572 109.571 75.2921C108.723 77.4103 109.091 82.7958 109.107 83.024C109.318 86.0119 109.802 87.9633 110.38 89.27C109.859 90.2504 109.473 91.297 109.233 92.3811C109.043 93.2416 108.95 94.1203 108.954 95.0012C107.706 94.3175 106.334 93.8917 104.918 93.7492C103.502 93.6067 102.073 93.7504 100.714 94.1718C96.3462 95.5011 93.9581 96.9692 92.6582 98.228H87.9176C86.2367 96.008 82.5319 92.1795 76.9741 92.1791C74.7581 92.2094 72.5826 92.7767 70.6339 93.8322C68.3382 94.0057 61.3998 94.5507 57.8543 95.0578C56.7673 94.3077 55.093 93.444 53.1492 93.444C51.7853 93.444 50.3363 93.7788 48.8013 94.1332C47.2996 94.5163 45.772 94.7891 44.2305 94.9494C40.6671 95.2463 36.6284 95.5827 34.6292 99.5814C33.3613 102.117 25.6078 116.693 17.6975 129.876C17.0861 130.811 16.4135 131.704 15.684 132.55C14.0474 134.546 12.357 136.61 12.0624 138.967C12.047 139.091 11.951 139.43 11.8806 139.678C11.5017 141.023 10.7927 143.527 12.3915 145.924C14.0213 148.366 17.3995 149.781 23.3248 150.506V151.973C23.3246 156.036 24.9382 159.932 27.8107 162.805C30.6831 165.678 34.5791 167.292 38.6416 167.292H213.687C215.699 167.292 217.691 166.896 219.549 166.126C221.408 165.356 223.096 164.228 224.519 162.806C225.941 161.383 227.07 159.695 227.839 157.836C228.609 155.978 229.005 153.986 229.005 151.974V148.632C233.395 147.543 236.147 146.044 237.569 143.982C238.103 143.218 238.456 142.342 238.6 141.42C238.744 140.499 238.676 139.557 238.4 138.666Z" fill="#007F67"/>
<path d="M237.568 143.982C236.147 146.044 233.395 147.543 229.005 148.632V151.973C229.005 153.985 228.609 155.976 227.839 157.835C227.069 159.693 225.941 161.382 224.518 162.804C223.096 164.227 221.407 165.355 219.549 166.125C217.69 166.895 215.698 167.291 213.687 167.291H38.6415C34.579 167.291 30.683 165.677 27.8105 162.804C24.938 159.931 23.3242 156.035 23.3243 151.973V150.505C17.3994 149.78 14.0213 148.365 12.3911 145.922C11.673 144.844 11.3254 143.561 11.4009 142.267H11.3652V151.876C11.3652 157.087 17.2194 161.311 23.2511 161.311L23.3243 165.787C23.3243 168.961 24.5852 172.005 26.8298 174.249C29.0743 176.494 32.1185 177.755 35.2927 177.755H217.036C220.211 177.755 223.255 176.494 225.499 174.249C227.744 172.005 229.005 168.961 229.005 165.787V161.231C234.369 160.633 238.515 156.674 238.515 151.877V141.853C238.338 142.616 238.016 143.339 237.568 143.982Z" fill="url(#paint0_linear_242_94446)"/>
<path d="M20.2613 131.414C18.6592 134.084 15.3288 136.945 15.0292 139.337C14.7296 141.729 11.2919 146.065 23.8485 147.559C36.4052 149.053 42.6842 148.456 42.6842 148.456L46.2719 148.157C46.2719 148.157 56.8597 149.29 63.0764 148.574C69.2931 147.858 76.169 145.765 77.0666 145.466C77.9643 145.167 88.4279 152.342 101.284 145.466C101.284 145.466 103.272 149.166 107.361 148.811C111.449 148.456 120.718 145.765 120.718 145.765C120.718 145.765 122.686 149.323 133.81 145.003C133.81 145.003 145.832 155.631 164.667 140.384C164.667 140.384 164.069 150.25 171.843 149.951C179.616 149.652 182.008 146.662 190.379 147.26C198.751 147.858 201.74 148.755 212.205 147.858C222.669 146.961 237.319 145.765 235.526 139.487C233.733 133.208 225.175 125.755 215.7 106.909L211.393 99.1328C211.393 99.1328 210.113 95.5369 202.638 97.0316C195.164 98.5264 193.08 98.5884 191.73 98.5575C190.38 98.5266 188.885 98.2277 187.39 100.022C185.895 101.815 181.662 103.922 181.662 103.922L163.109 105.777C163.109 105.777 158.389 101.516 151.812 103.012C145.234 104.507 139.853 109.589 139.853 109.589C139.853 109.589 140.46 101.523 135.522 102.566C135.522 102.566 139.853 93.1445 136.564 89.5568C136.564 89.5568 139.554 76.7008 136.564 75.805C133.574 74.9092 128.192 75.207 128.192 75.207C128.192 75.207 126.942 75.1313 125.027 78.6074C125.027 78.6074 123.409 75.5059 121.316 75.207C119.223 74.9081 112.945 74.9081 112.347 76.4028C111.749 77.8975 111.717 87.7256 113.975 89.2397C113.975 89.2397 108.759 94.9395 115.038 102.414L112.945 103.012C112.945 103.012 108.46 94.9393 101.583 97.0321C94.7071 99.1249 94.1089 101.218 94.1089 101.218H86.3351C86.3351 101.218 80.876 91.417 71.4971 96.7659C71.4971 96.7659 59.726 97.6297 57.0352 98.2282C57.0352 98.2282 55.2413 96.4343 53.1483 96.4343C51.0553 96.4343 48.0656 97.6301 44.4778 97.929C40.8901 98.2279 38.4984 98.5271 37.3023 100.919C36.1063 103.311 28.3337 117.96 20.2613 131.414Z" fill="#004D4C"/>
<path d="M125.354 101.679L116.794 92.5414L123.167 86.0876L116.484 79.0566L120.76 79.0794L125.309 83.9191L129.716 79.1457L134.067 79.0569L127.467 86.0685L133.962 92.5345L125.354 101.679ZM121.017 92.6014L125.358 97.2361L129.715 92.6084L125.325 88.2372L121.017 92.6014Z" fill="url(#paint1_linear_242_94446)"/>
<path d="M123.164 86.0891L116.48 79.0586V85.0731L120.348 88.9404L123.164 86.0891Z" fill="#7A3006"/>
<path d="M121.014 92.6011L125.356 97.2355L129.712 92.6081L125.322 88.2383L121.014 92.6011Z" fill="#7A3006"/>
<path d="M127.461 86.0697L129.917 88.5149L134.06 85.0731V79.0586L127.461 86.0697Z" fill="#7A3006"/>
<path d="M133.959 92.5352L125.351 101.679L116.791 92.5422V97.6295L125.272 105.478L134.063 97.6295V92.5352L133.611 92.1895L133.959 92.5352Z" fill="#7A3006"/>
<path d="M51.9532 116.579L53.5794 101.714L57.9408 104.588L59.5042 102.207L51.9532 116.579ZM75.514 107.91L71.4951 102.207C68.9793 112.374 70.5029 141.614 70.5029 141.614L57.9086 143.957L74.0714 141.896C74.0714 141.896 73.887 138.768 73.7772 134.327C70.007 125.243 72.7346 117.742 74.2298 114.988C74.5094 112.192 74.921 109.718 75.514 107.91ZM55.8878 127.591L48.9269 143.058L37.309 143.498L40.1503 127.133L31.752 143.836H48.5821L55.3055 143.447L55.8878 127.591ZM83.338 106.38C84.0107 106.108 84.7019 105.885 85.4065 105.711C84.029 104.075 82.4779 102.594 80.7804 101.293L80.9322 101.98C82.0235 103.269 82.8419 104.766 83.338 106.38ZM103.287 112.863C110.992 109.207 108.19 104.901 106.581 103.18C108.292 106.434 103.495 109.172 100.983 110.486C104.565 114.488 105.858 120.413 105.183 126.671C104.139 136.342 97.1705 143.636 89.0433 144.129C89.3079 144.142 89.5818 144.152 89.8766 144.156C104.781 144.341 108.457 130.816 107.245 122.387C106.647 118.229 104.648 114.805 103.287 112.863ZM117.457 133.031L117.525 141.917L107.36 144.157L118.026 142.477V133.81L117.457 133.031ZM134.354 139.897L124.197 142.274L134.893 140.366L134.504 130.839L134.354 139.897ZM147.503 121.181C148.123 120.966 148.983 120.857 149.581 121.549C150.135 122.197 150.626 122.896 151.047 123.638C151.437 123.604 151.852 123.563 152.302 123.51L162.572 119.456L163.108 118.037L153.786 121.377C151.695 117.66 148.926 119.615 147.503 121.181ZM153.418 132.996C153.943 132.723 154.297 132.47 154.412 132.298C154.969 131.463 155.456 129.934 145.369 131.602C135.282 133.271 134.567 127.009 136.186 122.49C136.56 121.537 137.047 120.633 137.638 119.797L137.636 119.795C136.338 121.158 135.311 122.755 134.608 124.501L134.51 130.416C135.082 131.664 136.051 132.507 137.165 132.76C140.105 133.426 147.025 132.012 150.912 132.012C152.98 132.013 153.44 132.52 153.418 132.996ZM139.526 142.315L143.212 133.55L141.741 133.604L138.301 142.274C140.638 143.865 145.181 143.516 145.181 143.516C143.248 143.39 141.343 142.986 139.526 142.315V142.315ZM164.453 119.788C164.453 119.788 165.117 119.523 165.404 118.148C165.691 116.772 163.477 110.582 163.477 110.582L160.48 113.477L161.078 121.849L167.655 121.55L170.236 144.705H174.216C173.475 140.154 171.836 119.205 171.836 119.205L164.453 119.788ZM206.251 136.835L208.7 143.137H215.698L211.935 136.079L206.251 136.835ZM203.842 128.074L203.043 116.726L208.396 128.074H203.842ZM191.238 141.052C191.238 141.052 191.104 136.819 192.112 134.4C193.12 131.981 193.12 130.637 192.918 127.075C192.717 123.514 194.262 122.573 193.993 116.458C193.824 112.601 192.773 108.506 192.019 106.006C191.539 104.52 191.238 103.624 191.238 103.624L184.697 106.9L184.995 108.536L189.083 108.148L191.727 117.935L182.152 118.517C182.188 118.994 182.245 119.572 182.319 120.224L187.388 119.157L187.986 122.745C188.285 124.539 186.491 125.734 186.911 127.643C187.33 129.552 188.883 131.415 187.388 133.209C186.474 134.306 185.672 137.201 185.187 139.287C185.361 140.336 185.505 141.192 185.604 141.777C193.518 143.174 203.042 143.638 203.042 143.638L191.238 141.052ZM89.1263 116.703C87.2322 117.126 85.1939 120.94 84.6543 122.477C84.1409 123.939 82.5472 131.624 88.1909 132.444C87.219 131.06 86.3116 128.464 87.529 123.941C88.946 118.678 91.5814 118.223 93.1368 118.478C91.9225 116.394 90.2596 116.451 89.1263 116.703Z" fill="#7E2D00"/>
<path d="M41.0954 103.758L53.58 101.713L51.9541 116.578L59.5051 102.205H71.496C68.9802 112.373 70.5038 141.613 70.5038 141.613L55.2691 144.447L55.8887 127.59L48.9283 143.058L37.3104 143.498L40.1517 127.133L31.7533 143.836C27.3737 143.494 23.0246 142.835 18.7402 141.864L41.0954 103.758ZM100.984 110.486C104.566 114.489 105.859 120.414 105.184 126.671C104.031 137.355 95.6478 145.138 86.4595 144.057C77.2713 142.975 70.7584 133.438 71.9108 122.754C72.4766 117.511 74.7871 112.969 78.0771 109.828C75.7488 107.837 71.6278 103.619 74.7637 100.912C78.6799 97.5306 82.4588 103.269 83.3394 106.38C85.2331 105.595 87.271 105.218 89.3203 105.274C91.3695 105.329 93.384 105.816 95.2325 106.702C96.657 103.846 102.617 98.2744 106.067 102.414C109.057 106.002 103.691 109.071 100.984 110.486H100.984ZM93.7014 119.699C92.4915 116.378 90.4478 116.409 89.1272 116.703C87.2331 117.126 85.1948 120.94 84.6552 122.477C84.1156 124.014 82.3795 132.415 89.0876 132.52C95.0048 132.611 94.9509 123.129 93.7019 119.699H93.7014ZM153.787 121.376L163.108 118.037C163.108 118.037 161.995 106.768 154.343 107.812C146.692 108.855 137.807 117.971 136.187 122.49C134.568 127.009 135.283 133.272 145.37 131.602C155.458 129.933 154.97 131.463 154.414 132.298C153.857 133.133 147.746 135.855 143.214 133.55L139.527 142.315C139.527 142.315 151.77 147.393 161.161 137.167C170.552 126.942 162.614 122.002 154.206 123.255C146.916 124.34 145.858 123.425 146.832 122.018C147.806 120.611 151.283 116.924 153.787 121.376H153.787ZM163.478 110.582C163.478 110.582 165.692 116.772 165.405 118.147C165.118 119.523 164.455 119.788 164.455 119.788L171.837 119.206C171.837 119.206 173.476 140.154 174.218 144.705L185.751 142.638C185.751 142.638 182.577 124.072 182.153 118.517L191.729 117.935L189.084 108.148L163.478 110.582ZM229.004 140.178L215.699 143.135L211.936 136.079L205.351 136.953V144.143L191.24 141.052C191.24 141.052 191.105 136.818 192.113 134.399C193.121 131.98 193.121 130.636 192.92 127.075C192.718 123.514 194.263 122.573 193.995 116.458C193.726 110.343 191.24 103.623 191.24 103.623L207.829 100.951C221.91 131.657 229.004 140.178 229.004 140.178ZM208.397 128.071L203.043 116.724L203.843 128.071H208.397ZM123.948 108.963C123.948 108.963 123.734 122.802 123.734 124.876C121.336 119.193 119.422 113.318 118.012 107.314L107.36 109.32V116.614C108.619 119.807 109.068 123.263 108.666 126.671C108.459 128.484 108.02 130.262 107.36 131.962V144.157L117.525 141.917L117.457 133.03L124.197 142.274L134.355 139.897L134.894 107.314L123.948 108.963Z" fill="url(#paint2_linear_242_94446)"/>
<path d="M98.3022 151.353H101.463V161.459H98.3022V151.353ZM119.237 161.459H122.398V151.353H119.237L119.237 161.459ZM132.676 161.459H135.837V151.353H132.676L132.676 161.459ZM136.994 153.645H138.861V161.459H142.022V153.645H143.986V151.353H136.995L136.994 153.645ZM144.847 161.459H151.838V159.167H148.008V157.553H150.92V155.26H148.008V153.646H151.838V151.353H144.847L144.847 161.459ZM117.867 153.645L118.602 151.353H111.578V161.459H114.739V158.013H117.965V155.721H114.738V153.645H117.867ZM107.364 155.293L105.527 151.353H102.497V161.459H105.385V156.926L107.364 161.459H110.252V151.353H107.364V155.293ZM128.59 155.293L126.753 151.353H123.723V161.459H126.611V156.926L128.59 161.459H131.478V151.353H128.59V155.293ZM29.8105 157.462H91.2809V155.157H29.8105V157.462ZM158.258 155.157V157.462H219.728V155.157H158.258Z" fill="#FFAD00"/>
</g>
<defs>
<linearGradient id="paint0_linear_242_94446" x1="11.3652" y1="159.804" x2="238.515" y2="159.804" gradientUnits="userSpaceOnUse">
<stop stop-color="#00473D"/>
<stop offset="0.35" stop-color="#005C45"/>
<stop offset="0.513" stop-color="#00684A"/>
<stop offset="1" stop-color="#00433A"/>
</linearGradient>
<linearGradient id="paint1_linear_242_94446" x1="125.275" y1="80.2616" x2="125.275" y2="101.792" gradientUnits="userSpaceOnUse">
<stop stop-color="#FBEB00"/>
<stop offset="0.227" stop-color="#FBE800"/>
<stop offset="0.387" stop-color="#FBDF00"/>
<stop offset="0.527" stop-color="#FBCF00"/>
<stop offset="0.655" stop-color="#FCB900"/>
<stop offset="0.775" stop-color="#FC9D00"/>
<stop offset="0.888" stop-color="#FC7A00"/>
<stop offset="0.996" stop-color="#FD5200"/>
<stop offset="1" stop-color="#FD5000"/>
</linearGradient>
<linearGradient id="paint2_linear_242_94446" x1="123.872" y1="109.863" x2="123.872" y2="142.855" gradientUnits="userSpaceOnUse">
<stop stop-color="#FBEB00"/>
<stop offset="0.227" stop-color="#FBE800"/>
<stop offset="0.387" stop-color="#FBDF00"/>
<stop offset="0.527" stop-color="#FBCF00"/>
<stop offset="0.655" stop-color="#FCB900"/>
<stop offset="0.775" stop-color="#FC9D00"/>
<stop offset="0.888" stop-color="#FC7A00"/>
<stop offset="0.996" stop-color="#FD5200"/>
<stop offset="1" stop-color="#FD5000"/>
</linearGradient>
<clipPath id="clip0_242_94446">
<rect width="227.302" height="227.302" fill="white" transform="translate(11.3652 11.3643)"/>
</clipPath>
</defs>
</svg>
