<svg width="250" height="250" viewBox="0 0 250 250" fill="none" xmlns="http://www.w3.org/2000/svg">
<path d="M112.699 0C125.878 8.24814 137.101 19.2696 145.587 32.297C154.073 45.3244 159.617 60.0447 161.834 75.4332C164.678 94.6799 162.6 114.334 155.794 132.56C148.988 150.786 137.675 166.991 122.911 179.662C101.547 197.885 68.8194 213.097 20.8379 207.22C20.8379 207.22 35.1943 228.754 68.5415 241.573C91.6194 250.476 116.811 252.37 140.961 247.02C165.111 241.669 187.145 229.311 204.303 211.494C224.233 190.75 235.745 163.34 236.604 134.586C236.604 134.586 243.013 10.6819 112.699 0Z" fill="#0099FF"/>
</svg>
