<svg width="250" height="250" viewBox="0 0 250 250" fill="none" xmlns="http://www.w3.org/2000/svg">
<g clip-path="url(#clip0_242_94163)">
<path d="M124.998 250.001C194.034 250.001 249.998 194.037 249.998 125.001C249.998 55.9654 194.034 0.000976562 124.998 0.000976562C55.9624 0.000976562 -0.00195312 55.9654 -0.00195312 125.001C-0.00195312 194.037 55.9624 250.001 124.998 250.001Z" fill="#47B95C"/>
<path d="M124.998 46.876C81.873 46.876 46.873 81.876 46.873 125.001C46.873 126.04 46.9746 127.032 47.0293 128.071H83.6934L101.404 97.6025L124.998 131.407L148.537 97.6025L166.248 128.071H202.912C202.967 127.032 203.068 126.04 203.068 125.001C203.123 81.876 168.123 46.876 124.998 46.876ZM178.85 118.649C175.678 91.7197 152.756 70.7822 124.998 70.7822C97.2402 70.7822 74.3184 91.7744 71.1465 118.649H61.6621C64.8418 86.5088 92.0293 61.3525 124.998 61.3525C157.967 61.3525 185.1 86.5088 188.334 118.649H178.85Z" fill="white"/>
<path d="M147.865 115.102L124.998 147.914L102.131 115.102L89.1152 137.5H47.9668C53.959 174.688 86.0918 203.125 124.998 203.125C163.904 203.125 196.037 174.688 202.029 137.445H160.881L147.865 115.102ZM174.584 146.875H184.686C175.725 171.195 152.396 188.648 124.998 188.648C97.5996 188.648 74.2715 171.195 65.3105 146.875H75.4121C83.8496 165.883 102.865 179.219 124.998 179.219C147.131 179.219 166.146 165.883 174.584 146.875Z" fill="white"/>
</g>
<defs>
<clipPath id="clip0_242_94163">
<rect width="250" height="250" rx="125" fill="white"/>
</clipPath>
</defs>
</svg>
