<svg width="250" height="250" viewBox="0 0 250 250" fill="none" xmlns="http://www.w3.org/2000/svg">
<path d="M125.3 246.549C192.651 246.549 247.25 191.951 247.25 124.599C247.25 57.2483 192.651 2.64941 125.3 2.64941C57.9485 2.64941 3.34961 57.2483 3.34961 124.599C3.34961 191.951 57.9485 246.549 125.3 246.549Z" fill="black"/>
<path d="M76.4506 92.9478C76.4506 89.0978 76.2006 85.3978 75.8506 81.5978H93.0006L93.6006 89.3979C95.5006 86.7478 100.151 80.2979 112.251 80.2979C126.151 80.2979 130.051 88.7978 131.251 91.6479C136.251 81.9479 144.401 80.3979 150.651 80.3979C162.851 80.3979 167.751 87.6978 169.051 90.0978C172.301 95.3478 172.051 102.648 172.051 107.948V140.998H154.251V106.498C154.251 100.048 153.301 92.8478 144.101 92.8478C133.451 92.8478 133.201 102.798 133.201 111.748V140.998H115.401V106.098C115.401 101.448 115.301 92.7979 105.451 92.7979C94.3506 92.7979 94.3506 102.398 94.3506 106.448V140.948H76.5006V92.9478H76.4506Z" fill="white"/>
<path d="M75.8506 154.299H172.051V168.999H75.8506V154.299Z" fill="white"/>
</svg>
