<svg width="250" height="250" viewBox="0 0 250 250" fill="none" xmlns="http://www.w3.org/2000/svg">
<g clip-path="url(#clip0_242_94433)">
<path fill-rule="evenodd" clip-rule="evenodd" d="M126.981 122.819C118.56 122.819 111.71 129.651 111.71 138.048C111.71 146.446 118.56 153.275 126.981 153.275C135.403 153.275 142.253 146.443 142.253 138.048C142.253 129.653 135.403 122.819 126.981 122.819ZM126.981 163.643C112.827 163.645 101.312 152.161 101.312 138.048C101.312 123.935 112.827 112.451 126.981 112.451C141.136 112.451 152.651 123.933 152.651 138.048C152.651 152.163 141.136 163.643 126.981 163.643Z" fill="#1976D2"/>
<path fill-rule="evenodd" clip-rule="evenodd" d="M192.032 150.193C188.817 152.623 184.771 153.683 180.778 153.14C173.901 152.238 168.429 146.657 167.66 139.786C166.634 130.614 173.84 122.818 182.834 122.818C186.504 122.818 189.876 124.118 192.512 126.276C194.477 127.888 197.243 128.109 199.521 126.975L204.573 124.454C199.706 116.749 190.847 111.796 180.908 112.521C168.314 113.443 158.146 123.592 157.232 136.148C156.142 151.117 168.049 163.642 182.832 163.642C191.643 163.642 199.428 159.194 204.053 152.433L198.939 149.686C196.734 148.495 194.036 148.693 192.029 150.195" fill="#63A4FF"/>
<path d="M162.407 98.4428C162.477 99.0536 162.71 99.6345 163.082 100.124C164.227 101.636 166.381 101.932 167.892 100.786C168.344 100.448 168.952 100.403 169.449 100.671L170.601 101.29C169.441 103.005 167.451 103.968 165.386 103.813C162.206 103.575 159.821 100.803 160.059 97.6222C160.201 95.8002 161.196 94.1526 162.743 93.1789C165.445 91.4775 169.015 92.2888 170.716 94.9911L169.579 95.5571C169.066 95.8136 168.443 95.7649 168.001 95.4023C167.284 94.8139 166.359 94.5404 165.437 94.6441C163.552 94.8562 162.195 96.5568 162.407 98.4424L162.407 98.4428ZM156.734 101.448C156.08 101.419 155.526 101.926 155.497 102.58C155.496 102.614 155.496 102.648 155.497 102.682C155.525 103.336 156.077 103.843 156.731 103.816C157.385 103.788 157.893 103.236 157.865 102.582C157.839 101.967 157.348 101.475 156.734 101.448ZM184.254 98.0513C184.247 101.238 181.661 103.817 178.474 103.815C175.288 103.817 172.702 101.238 172.695 98.0513C172.703 94.8658 175.289 92.2882 178.474 92.2894C181.66 92.2882 184.245 94.8658 184.254 98.0513ZM181.912 98.0513C181.912 96.1609 180.369 94.6242 178.474 94.6242V94.622C176.577 94.622 175.036 96.1609 175.036 98.0513C175.036 99.9418 176.575 101.489 178.474 101.489C180.373 101.489 181.912 99.9502 181.912 98.0513ZM200.2 92.8134L200.202 92.8156C198.679 92.8156 197.33 93.4214 196.501 94.4783L196.16 94.9118L195.862 94.4475C195.181 93.3949 194 92.8158 192.532 92.8158C191.205 92.8158 190.071 93.2801 189.335 94.1226L188.647 94.9119V92.9795H186.348V103.289H188.789V98.1134C188.789 96.0483 189.85 94.8168 191.619 94.8168C192.423 94.8168 193.049 95.0777 193.48 95.5929C193.905 96.1014 194.122 96.8532 194.122 97.826V103.287H196.563V98.1134C196.563 96.0483 197.628 94.8168 199.415 94.8168C201.005 94.8168 201.915 95.9134 201.915 97.8238V100.924C201.915 102.228 202.977 103.289 204.288 103.289H204.356V97.3285C204.356 94.4166 202.879 92.8135 200.2 92.8135L200.2 92.8134Z" fill="#1976D2"/>
<path fill-rule="evenodd" clip-rule="evenodd" d="M96.7018 139.589C91.0253 139.596 86.4169 135.002 86.4072 129.325V94.0463C86.4072 89.8144 90.9575 86.3828 96.7018 86.3828H96.8034L96.7018 139.589Z" fill="#1976D2"/>
<path d="M71.1309 112.451C56.976 112.451 45.4609 123.933 45.4609 138.048C45.4609 152.163 56.976 163.645 71.1309 163.643C85.2858 163.643 96.8009 152.161 96.8009 138.048C96.8009 123.935 85.2858 112.451 71.1309 112.451ZM71.1309 153.275C62.7091 153.275 55.8594 146.443 55.8594 138.048C55.8594 129.653 62.7091 122.819 71.1309 122.819C79.5505 122.819 86.4047 129.651 86.4047 138.048C86.4047 146.446 79.5527 153.275 71.1309 153.275Z" fill="#004BA0"/>
</g>
<defs>
<clipPath id="clip0_242_94433">
<rect width="159.112" height="159.112" fill="white" transform="translate(45.4609 45.457)"/>
</clipPath>
</defs>
</svg>
