<svg width="250" height="250" viewBox="0 0 250 250" fill="none" xmlns="http://www.w3.org/2000/svg">
<rect width="250" height="250" rx="125" fill="white"/>
<g clip-path="url(#clip0_242_94442)">
<path fill-rule="evenodd" clip-rule="evenodd" d="M226.327 112.825C226.808 116.892 227.05 120.983 227.053 125.078C226.914 181.433 181.117 227.004 124.763 226.864C105.349 226.816 86.3514 221.231 70.0007 210.764C53.6501 200.297 40.6248 185.383 32.4539 167.772L48.7631 159.788C67.9138 201.901 117.577 220.515 159.69 201.364C174.314 194.714 186.717 183.999 195.421 170.496C204.125 156.993 208.762 141.271 208.78 125.206V122.602L226.327 112.825ZM125.014 23.168C145.403 23.1519 165.329 29.2439 182.222 40.6585C199.116 52.0731 212.203 68.2868 219.795 87.2089L202.333 92.8016C184.536 50.0997 135.491 29.9105 92.7893 47.7078C77.4976 54.081 64.4392 64.8455 55.2651 78.6401C46.091 92.4346 41.2134 108.64 41.2489 125.206V126.914L24.1715 140.875C23.3637 135.691 22.9639 130.452 22.9758 125.206C22.9758 68.8522 68.6602 23.168 125.014 23.168Z" fill="#212C56"/>
<path fill-rule="evenodd" clip-rule="evenodd" d="M11.3643 165.978L111.14 84.3896L106.999 118.289L165.233 85.2861L162.287 117.52L238.667 93.2274L135.091 150.266L142.819 117.819L82.962 152.871L86.9326 127.98L11.3643 165.978Z" fill="#3886C9"/>
</g>
<defs>
<clipPath id="clip0_242_94442">
<rect width="227.302" height="227.302" fill="white" transform="translate(11.3643 11.3643)"/>
</clipPath>
</defs>
</svg>
