<svg width="250" height="250" viewBox="0 0 250 250" fill="none" xmlns="http://www.w3.org/2000/svg">
<g clip-path="url(#clip0_242_94167)">
<path d="M124.96 0.000976562C55.9426 0.000976562 -0.00195312 55.9456 -0.00195312 124.963C-0.00195312 193.981 55.9426 249.925 124.96 249.925C193.978 249.925 249.922 193.981 249.922 124.963C249.91 55.9456 193.965 0.000976562 124.96 0.000976562ZM99.6706 65.7189C104.658 62.6332 119.406 85.6433 122.189 86.0463C124.985 86.4493 132.164 79.2705 136.736 75.4796C141.308 71.6886 161.358 59.132 162.24 60.4292C163.134 61.7264 148.184 70.404 139.91 76.7768C131.635 83.1496 125.804 92.8725 119.205 92.8725C112.605 92.8725 100.666 74.3335 98.9779 72.2806C97.328 70.5173 97.4288 67.7466 99.192 66.0967C99.3431 65.9582 99.5069 65.8322 99.6706 65.7189ZM164.179 171.701L151.686 119.888L124.935 152.041L97.731 119.862L85.2373 171.676H61.6479L85.2499 72.2932L124.935 120.895L163.638 72.2932L187.038 171.651L164.179 171.701Z" fill="#FF9616"/>
</g>
<defs>
<clipPath id="clip0_242_94167">
<rect width="250" height="250" rx="125" fill="white"/>
</clipPath>
</defs>
</svg>
