<svg width="250" height="250" viewBox="0 0 250 250" fill="none" xmlns="http://www.w3.org/2000/svg">
<path fill-rule="evenodd" clip-rule="evenodd" d="M127.974 184.462L147.512 77.8483C147.512 77.8483 163.016 82.096 172.149 89.7414C182.64 98.5255 188.289 113.528 188.289 113.528C188.289 113.528 196.147 100.148 193.387 85.069C190.626 69.9817 179.641 56.7973 179.301 56.3895C179.293 56.3811 179.293 56.3811 179.293 56.3811C168.173 47.5632 154.852 41.3957 140.283 38.8301L117.355 165.348C117.355 165.348 106.405 155.885 82.1002 159.402C64.4726 161.95 51.9336 173.147 51.9336 173.147C63.5892 190.808 81.4797 203.992 102.48 209.565C102.48 209.565 117.78 206.55 127.974 184.462Z" fill="white"/>
<path fill-rule="evenodd" clip-rule="evenodd" d="M179.3 56.3906C179.64 56.7984 190.624 69.9828 193.385 85.0702C196.146 100.149 188.288 113.529 188.288 113.529C188.288 113.529 182.638 98.5267 172.147 89.7426C163.015 82.0972 147.511 77.8494 147.511 77.8494L127.972 184.463C117.778 206.551 102.479 209.567 102.479 209.567C109.665 211.478 117.209 212.497 124.999 212.497C173.328 212.497 212.499 173.326 212.499 124.997C212.499 97.1845 199.527 72.4039 179.3 56.3906Z" fill="#E9B200"/>
<path fill-rule="evenodd" clip-rule="evenodd" d="M117.353 165.35L140.281 38.8318C135.32 37.9568 130.214 37.498 124.998 37.498C76.6691 37.498 37.498 76.6691 37.498 124.998C37.498 142.787 42.8075 159.344 51.9311 173.148C51.9311 173.148 64.4701 161.952 82.0978 159.404C106.402 155.886 117.353 165.35 117.353 165.35Z" fill="#E9B200"/>
</svg>
