<svg width="250" height="250" viewBox="0 0 250 250" fill="none" xmlns="http://www.w3.org/2000/svg">
<rect width="250" height="250" rx="125" fill="white"/>
<path d="M55.11 185.142C49.67 185.142 45.25 180.722 45.25 175.282V150.802C45.25 145.362 49.67 140.942 55.11 140.942C60.55 140.942 64.97 145.362 64.97 150.802V175.282C64.97 180.722 60.55 185.142 55.11 185.142Z" fill="black"/>
<path d="M197.095 187.866C191.655 187.866 187.235 183.446 187.235 178.006V88.4158C187.235 84.8118 184.311 81.8538 180.673 81.8538C177.749 81.8538 175.131 83.8258 174.349 86.6478L152.249 166.14C148.985 177.904 138.615 185.758 126.409 185.758C126.341 185.758 126.239 185.758 126.171 185.758C113.863 185.656 103.527 177.598 100.433 165.698L80.2032 87.6678C79.3192 84.2678 76.2592 81.8878 72.7232 81.8878C68.4732 81.8878 65.0052 85.3558 65.0052 89.6058V95.2158C65.0052 100.656 60.5852 105.076 55.1452 105.076C49.7052 105.076 45.2852 100.656 45.2852 95.2158V89.6058C45.2852 74.4418 57.6272 62.1338 72.7572 62.1338C85.2692 62.1338 96.2172 70.5998 99.3452 82.7038L119.643 160.768C120.901 165.63 125.151 166.038 126.409 166.072C126.443 166.072 126.443 166.072 126.477 166.072C127.803 166.072 131.951 165.664 133.277 160.904L155.377 81.4118C158.539 70.0898 168.943 62.1678 180.707 62.1678C195.225 62.1678 207.023 73.9658 207.023 88.4838V178.04C206.989 183.446 202.569 187.866 197.095 187.866Z" fill="black"/>
<path d="M65.3104 126.7L58.5784 133.432C56.6744 135.336 53.5464 135.336 51.6424 133.432L44.9104 126.7C43.0064 124.796 43.0064 121.668 44.9104 119.764L51.6424 113.032C53.5464 111.128 56.6744 111.128 58.5784 113.032L65.3104 119.764C67.2144 121.668 67.2144 124.796 65.3104 126.7Z" fill="#FEBF00"/>
</svg>
