<svg width="250" height="250" viewBox="0 0 250 250" fill="none" xmlns="http://www.w3.org/2000/svg">
<path d="M117.468 136.436L88.4181 165.486C84.2531 169.651 77.5331 169.651 73.4031 165.486L40.6081 132.516C36.4431 128.351 36.4431 121.631 40.6081 117.466L73.6131 84.4607C77.7781 80.2957 84.4981 80.2957 88.6281 84.4607L117.678 113.511C121.843 117.676 128.563 117.676 132.693 113.511L161.533 84.4607C165.698 80.2957 172.418 80.2957 176.548 84.4607L209.343 117.466C213.508 121.631 213.508 128.351 209.343 132.481L176.548 165.486C172.383 169.651 165.663 169.651 161.533 165.486L132.483 136.436C128.353 132.306 121.633 132.306 117.468 136.436Z" fill="url(#paint0_linear_242_93651)"/>
<defs>
<linearGradient id="paint0_linear_242_93651" x1="460.238" y1="124.991" x2="67.9813" y2="124.991" gradientUnits="userSpaceOnUse">
<stop stop-color="#3600C9"/>
<stop offset="1" stop-color="#9E00E7"/>
</linearGradient>
</defs>
</svg>
