<svg width="250" height="250" viewBox="0 0 250 250" fill="none" xmlns="http://www.w3.org/2000/svg">
<g clip-path="url(#clip0_242_94781)">
<path d="M124.998 249.998C194.034 249.998 249.998 194.034 249.998 124.998C249.998 55.9625 194.034 -0.00195312 124.998 -0.00195312C55.9625 -0.00195312 -0.00195312 55.9625 -0.00195312 124.998C-0.00195312 194.034 55.9625 249.998 124.998 249.998Z" fill="#EDF0F4"/>
<path d="M188.207 143.955L157.967 92.3283C152.495 83.1093 139.103 83.1093 133.632 92.3283L103.392 143.955C97.9196 153.174 104.688 164.662 115.632 164.662H176.111C186.911 164.662 193.535 153.174 188.207 143.955Z" fill="#00B897"/>
<path d="M147.886 144.952L146.158 141.974C144.574 139.137 140.974 133.18 140.974 133.18L116.926 92.3326C111.454 83.1131 98.0621 83.1131 92.5901 92.3326L62.3506 143.959C56.8786 153.179 63.6466 164.667 74.5906 164.667H134.494H159.405H176.109C161.134 164.667 154.797 156.724 147.886 144.952Z" fill="#76FCB2"/>
<path d="M147.887 144.947L146.159 141.969C144.575 139.132 140.975 133.175 140.975 133.175L125.279 106.511L103.392 143.955C97.9196 153.174 104.688 164.662 115.632 164.662H134.495H159.407H176.111C161.135 164.662 154.799 156.72 147.887 144.947Z" fill="url(#paint0_linear_242_94781)"/>
</g>
<defs>
<linearGradient id="paint0_linear_242_94781" x1="78.6566" y1="154.079" x2="140.834" y2="191.949" gradientUnits="userSpaceOnUse">
<stop stop-color="#53E57A" stop-opacity="0.01"/>
<stop offset="1" stop-color="#00A977"/>
</linearGradient>
<clipPath id="clip0_242_94781">
<rect width="250" height="250" fill="white"/>
</clipPath>
</defs>
</svg>
