<svg width="250" height="250" viewBox="0 0 250 250" fill="none" xmlns="http://www.w3.org/2000/svg">
<path d="M39.3242 124.329C62.363 112.963 84.8872 101.85 107.371 90.7583C113.273 73.3696 119.122 56.1387 125.17 38.3213C136.52 61.3278 147.618 83.822 158.745 106.377C176.068 112.259 193.357 118.129 211.174 124.179C188.194 135.515 165.738 146.593 143.117 157.753C137.267 174.983 131.392 192.285 125.325 210.157C113.98 187.166 102.88 164.671 91.7549 142.124C74.4303 136.244 57.1392 130.375 39.3242 124.329ZM126.162 53.5074C116.979 80.5915 108.026 106.998 98.8669 134.013C117.233 124.953 134.897 116.239 152.75 107.433C143.887 89.4566 135.17 71.7781 126.162 53.5074ZM195.966 125.172C182.468 120.596 169.576 116.226 156.852 111.913C138.414 121.012 120.257 129.974 101.459 139.25C114.929 143.822 127.655 148.14 140.536 152.512C158.763 143.522 177.037 134.508 195.966 125.172ZM92.0104 136.04C96.2038 123.668 100.32 111.523 104.437 99.3777C104.27 99.2433 104.103 99.1089 103.936 98.9742C87.6505 107.003 71.3643 115.032 54.5338 123.33C67.3095 127.662 79.5438 131.812 92.0104 136.04ZM124.325 194.956C128.662 182.174 132.811 169.949 137.037 157.493C124.664 153.319 112.516 149.221 99.6306 144.875C108.007 161.862 116.03 178.135 124.325 194.956Z" fill="black"/>
<path d="M126.162 53.5078C135.171 71.7785 143.887 89.4574 152.751 107.433C134.898 116.24 117.233 124.954 98.8672 134.013C108.027 106.998 116.979 80.5919 126.162 53.5078Z" fill="white"/>
<path d="M195.967 125.172C177.038 134.508 158.764 143.522 140.538 152.512C127.656 148.14 114.931 143.822 101.461 139.25C120.258 129.973 138.416 121.012 156.853 111.913C169.578 116.226 182.469 120.597 195.967 125.172Z" fill="white"/>
<path d="M92.0111 136.039C79.5445 131.811 67.3102 127.662 54.5342 123.329C71.3646 115.032 87.6505 107.003 103.937 98.9736C104.104 99.108 104.271 99.2424 104.437 99.3772C100.321 111.522 96.2045 123.667 92.0111 136.039Z" fill="white"/>
<path d="M124.324 194.956C116.03 178.135 108.006 161.862 99.6299 144.875C112.515 149.221 124.664 153.319 137.036 157.493C132.81 169.949 128.661 182.174 124.324 194.956Z" fill="white"/>
</svg>
