<svg width="250" height="250" viewBox="0 0 250 250" fill="none" xmlns="http://www.w3.org/2000/svg">
<path d="M173.193 79.3125H209.972L169.655 124.802L173.193 79.3125Z" fill="#3EBAEC"/>
<path d="M165.942 170.291L169.657 124.802L209.974 79.3125L165.942 170.291Z" fill="#28B1E9"/>
<path d="M146.309 134.928L173.193 79.3125L169.656 124.802L151.968 145.01L146.309 134.928Z" fill="#439FE2"/>
<path d="M151.969 145.01L169.656 124.802L165.942 170.291L151.969 145.01Z" fill="#2A96E0"/>
<path d="M151.968 145.01L146.955 150.464L165.942 170.291L151.968 145.01Z" fill="#2E53BD"/>
<path d="M146.956 150.464L129.353 170.291H165.942L146.956 150.464Z" fill="#1244B9"/>
<path d="M129.353 170.291L141.611 145.01L146.956 150.464L129.353 170.291Z" fill="#2E53BD"/>
<path d="M141.609 145.009L146.308 134.928L151.968 145.009L146.955 150.464L141.609 145.009Z" fill="#4068C6"/>
<path d="M146.309 134.928L115.604 79.3125L122.351 124.802L141.61 145.01L146.309 134.928Z" fill="#707FD7"/>
<path d="M122.351 124.802L141.61 145.01L129.352 170.291L122.351 124.802Z" fill="#5876D4"/>
<path d="M122.352 124.8L129.353 170.289L99.4102 116.641L104.302 106.014L122.352 124.8Z" fill="#8371D1"/>
<path d="M122.352 124.802L104.303 106.015L115.605 79.3125L122.352 124.802Z" fill="#8E81D7"/>
<path d="M115.604 79.3125L98.5662 99.9422L78.998 79.3125H115.604Z" fill="#775CB8"/>
<path d="M98.5654 99.9422L104.301 106.015L115.603 79.3125L98.5654 99.9422Z" fill="#644BB3"/>
<path d="M78.9985 79.3125L40.1475 170.291L93.6747 106.015L78.9985 79.3125Z" fill="#B44FC4"/>
<path d="M93.6742 106.015L98.5662 99.9422L78.998 79.3125L93.6742 106.015Z" fill="#7046AC"/>
<path d="M99.4093 116.643L93.6738 106.015L98.5658 99.9424L104.301 106.015L99.4093 116.643Z" fill="#5933A5"/>
<path d="M40.1475 170.289L93.6747 106.014L99.4102 116.641L77.1432 170.289H40.1475Z" fill="#AA3CBD"/>
</svg>
