<svg width="250" height="250" viewBox="0 0 250 250" fill="none" xmlns="http://www.w3.org/2000/svg">
<rect width="250" height="250" rx="125" fill="white"/>
<g clip-path="url(#clip0_242_94430)">
<path d="M155.556 88.1852C148.272 81.8573 139.266 77.8454 129.689 76.6621L130.104 113.846C130.19 113.879 130.275 113.913 130.361 113.948L155.556 88.1852Z" fill="#090E5E"/>
<path d="M122.533 113.466L122.12 76.3184C111.55 76.6366 101.374 80.4012 93.1416 87.0386L120.788 114.076C121.354 113.829 121.937 113.625 122.533 113.466Z" fill="#090E5E"/>
<path d="M75.0745 121.456L87.2352 121.319L114.172 121.02C114.425 120.353 114.735 119.71 115.1 119.097L87.6232 92.2266L59.3838 121.456L75.0808 121.38C75.079 121.405 75.0765 121.43 75.0745 121.456Z" fill="#090E5E"/>
<path d="M137.735 128.327C137.589 128.929 137.398 129.519 137.163 130.092L162.298 154.672L189.797 127.942L172.267 128.173C172.272 128.096 137.735 128.327 137.735 128.327Z" fill="#090E5E"/>
<path d="M113.785 128.593L86.0886 128.901L75.1099 129.024L52.8479 128.593L11.3652 170.311H75.1102L87.5243 157.675C87.5359 157.689 87.547 157.702 87.5591 157.715L114.375 130.295C114.137 129.743 113.939 129.174 113.785 128.593Z" fill="#090E5E"/>
<path d="M130.361 136.863L130.767 173.205C140.711 171.748 149.958 167.241 157.233 160.306L132.268 135.891C131.662 136.269 131.024 136.595 130.361 136.863Z" fill="#090E5E"/>
<path d="M119.375 136.008L93.0635 162.912C101.598 169.821 112.224 173.63 123.204 173.716L122.799 137.413C121.594 137.12 120.439 136.646 119.375 136.008Z" fill="#090E5E"/>
<path d="M175.024 79.3906L160.875 93.5732L136.185 118.82C136.574 119.437 136.908 120.087 137.183 120.764L155.558 120.559L197.47 120.764L238.668 79.3906H175.024Z" fill="#090E5E"/>
</g>
<defs>
<clipPath id="clip0_242_94430">
<rect width="227.302" height="227.302" fill="white" transform="translate(11.3652 11.3652)"/>
</clipPath>
</defs>
</svg>
