<svg width="250" height="250" viewBox="0 0 250 250" fill="none" xmlns="http://www.w3.org/2000/svg">
<path d="M107.814 178.799L107.454 176.707L68.9312 183.325L67.7604 147.973L83.0855 111.032L83.2822 111.44L85.1946 110.518L69.368 77.6827L112.617 61.1144L123.524 82.9845L112.959 88.4172L114.196 89.9152L125.001 84.6061L141.85 91.2511L142.63 89.2761L126.805 83.0352L153.12 55.8231L168.511 72.4628L169.291 71.7418L170.071 71.0211L143.02 41.7769L141.986 41.4668L107.38 49.9959L107.052 50.1394L67.3282 76.2165L66.9547 77.5648L81.3233 107.375H51.7518L47.6949 97.1826L45.7227 97.9677L65.5708 147.83L57.3882 175.749L59.4255 176.346L65.8505 154.424L66.8504 184.612L68.0908 185.623L107.814 178.799ZM108.065 52.0151L141.886 43.6791L151.676 54.2628L125.217 81.6237L114.609 60.3514L117.275 59.3304L116.515 57.3477L76.7148 72.5944L108.065 52.0151ZM81.4234 109.498L66.7122 144.958L52.5967 109.498H81.4234Z" fill="#14566C"/>
<path d="M187.334 187.103L169.414 143.468L169.282 148.176L184.691 186.232L116.183 177.98L114.706 176.429L140.459 165.572L139.634 163.616L113.142 174.785L111.328 172.879L109.79 174.343L114.3 179.081L97.0264 202.964L98.7466 204.208L115.788 180.645L143.421 209.68L144.959 208.216L118.481 180.395L186.223 188.555L187.334 187.103Z" fill="#14566C"/>
<path d="M210.059 149.523L206.986 147.769L186.75 183.213L172.894 170.555L170.507 173.168L183.68 185.202L147.539 195.867L113.611 170.057L112.535 173.261L142.955 196.795L100.675 204.55L111.177 173.334L107.893 172.773L98.0128 201.414L87.5842 170.806L84.6572 173.638L94.5923 202.347L62.5022 180.385L82.7444 172.859L81.5114 169.541L60.0333 177.526L52.6357 138.425L80.4691 167.155L82.5288 164.253L51.8069 132.47L68.7651 80.2454L79.7446 82.5575L80.4736 79.0949L70.3789 76.9694L85.4433 52.098L117.205 57.8062L106.51 78.963L110.114 79.006L120.258 59.6034L138.702 80.5548L141.647 78.7761L123.783 58.2605H169.119L167.538 79.1506L170.721 80.0868L172.426 61.2456L198.777 95.9604L171.751 81.9478L170.721 84.5665L204.148 102.756L206.54 100.378L188.763 65.8397L188.132 65.1516L171.899 54.9449L142.695 38.6906L141.534 38.4932L84.2582 48.3982L83.2925 48.9067L43.4492 89.7948L42.9484 90.961L40.917 143.531L41.0661 144.313L57.0656 180.629L57.6851 181.376L97.0178 208.296L97.9148 208.602L146.215 211.396L147.203 211.162L188.074 187.543L188.725 186.888L210.059 149.523ZM144.581 207.757L112.819 205.92L145.22 199.977L144.581 207.757ZM148.836 199.174L173.439 191.914L148.236 206.477L148.836 199.174ZM66.3011 76.8714L54.547 83.4759L75.0364 62.4493L66.3011 76.8714ZM64.4916 81.9471L50.5878 124.765L46.6153 91.9921L64.4916 81.9471ZM47.9607 132.496L44.6956 137.394L45.6283 113.254L47.9607 132.496ZM48.863 137.521L54.0735 165.062L44.6949 143.774L48.863 137.521ZM164.221 54.7213H125.251L141.971 42.3376L164.221 54.7213ZM119.45 54.6142L94.748 50.1748L134.794 43.2497L119.45 54.6142ZM194.108 83.9557L178.325 63.1633L185.838 67.8886L194.108 83.9557Z" fill="#15A9D5"/>
<path d="M170.019 165.371V86.9943C171.653 86.3024 172.803 84.6826 172.803 82.7992C172.803 80.2887 170.76 78.2461 168.25 78.2461C166.366 78.2461 164.746 79.3955 164.054 81.03H145.844C145.152 79.3958 143.532 78.2461 141.648 78.2461C139.138 78.2461 137.095 80.2887 137.095 82.7992C137.095 84.6826 138.245 86.3024 139.879 86.9943V119.155C139.76 119.206 139.645 119.263 139.532 119.322L111.797 85.6251C112.415 84.8478 112.787 83.8667 112.787 82.7992C112.787 80.2887 110.744 78.2461 108.234 78.2461C106.35 78.2461 104.73 79.3955 104.039 81.03H87.5451C86.8532 79.3958 85.2334 78.2461 83.35 78.2461C80.8395 78.2461 78.7969 80.2887 78.7969 82.7992C78.7969 84.6826 79.9466 86.3024 81.5808 86.9943V165.371C79.9466 166.063 78.7969 167.683 78.7969 169.566C78.7969 172.077 80.8395 174.119 83.35 174.119C85.2334 174.119 86.8535 172.969 87.5451 171.335H105.761C106.452 172.97 108.072 174.119 109.956 174.119C112.466 174.119 114.509 172.077 114.509 169.566C114.509 167.683 113.359 166.063 111.725 165.371V133.291C111.923 133.207 112.112 133.105 112.294 132.995L140.64 167.127C140.19 167.833 139.925 168.668 139.925 169.566C139.925 172.077 141.968 174.119 144.479 174.119C146.362 174.119 147.982 172.969 148.674 171.335H164.054C164.746 172.97 166.365 174.119 168.249 174.119C170.759 174.119 172.802 172.077 172.802 169.566C172.803 167.683 171.653 166.063 170.019 165.371ZM168.25 81.0769C169.199 81.0769 169.972 81.8497 169.972 82.7992C169.972 83.7488 169.199 84.5216 168.25 84.5216C167.3 84.5216 166.527 83.7488 166.527 82.7992C166.528 81.8497 167.3 81.0769 168.25 81.0769ZM141.649 81.0769C142.598 81.0769 143.371 81.8497 143.371 82.7992C143.371 83.7488 142.598 84.5216 141.649 84.5216C140.699 84.5216 139.926 83.7488 139.926 82.7992C139.926 81.8497 140.699 81.0769 141.649 81.0769ZM141.649 121.628C142.598 121.628 143.371 122.401 143.371 123.351C143.371 124.3 142.598 125.073 141.649 125.073C140.699 125.073 139.926 124.3 139.926 123.351C139.926 122.401 140.699 121.628 141.649 121.628ZM108.234 81.0769C109.184 81.0769 109.957 81.8497 109.957 82.7992C109.957 83.7488 109.184 84.5216 108.234 84.5216C107.285 84.5216 106.512 83.7488 106.512 82.7992C106.512 81.8497 107.285 81.0769 108.234 81.0769ZM83.3507 81.0769C84.3003 81.0769 85.0731 81.8497 85.0731 82.7992C85.0731 83.7488 84.3003 84.5216 83.3507 84.5216C82.4012 84.5216 81.6284 83.7488 81.6284 82.7992C81.6284 81.8497 82.4012 81.0769 83.3507 81.0769ZM83.3507 171.288C82.4012 171.288 81.6284 170.516 81.6284 169.566C81.6284 168.616 82.4012 167.844 83.3507 167.844C84.3003 167.844 85.0731 168.616 85.0731 169.566C85.0731 170.516 84.3003 171.288 83.3507 171.288ZM109.956 171.288C109.007 171.288 108.234 170.516 108.234 169.566C108.234 168.616 109.007 167.844 109.956 167.844C110.906 167.844 111.679 168.616 111.679 169.566C111.679 170.516 110.906 171.288 109.956 171.288ZM108.234 129.095C108.234 128.146 109.007 127.373 109.957 127.373C110.906 127.373 111.679 128.146 111.679 129.095C111.679 130.045 110.906 130.818 109.957 130.818C109.007 130.818 108.234 130.045 108.234 129.095ZM144.48 171.288C143.53 171.288 142.757 170.516 142.757 169.566C142.757 168.616 143.53 167.844 144.48 167.844C145.429 167.844 146.202 168.616 146.202 169.566C146.202 170.516 145.429 171.288 144.48 171.288ZM164.055 167.796H148.675C147.983 166.162 146.363 165.013 144.48 165.013C144.166 165.013 143.859 165.045 143.563 165.106L114.417 130.01C114.478 129.715 114.509 129.409 114.509 129.095C114.509 126.585 112.467 124.542 109.956 124.542C107.446 124.542 105.403 126.585 105.403 129.095C105.403 130.979 106.553 132.599 108.187 133.291V165.371C107.097 165.832 106.223 166.706 105.761 167.796H87.5455C87.0838 166.706 86.2099 165.832 85.12 165.371V86.9943C86.2099 86.5327 87.0842 85.6584 87.5458 84.5685H104.039C104.731 86.2026 106.351 87.3524 108.234 87.3524C108.365 87.3524 108.493 87.3436 108.62 87.3328L137.265 122.136C137.158 122.524 137.096 122.93 137.096 123.35C137.096 125.861 139.138 127.903 141.649 127.903C144.159 127.903 146.202 125.861 146.202 123.35C146.202 121.467 145.052 119.847 143.418 119.155V86.9943C144.508 86.533 145.383 85.6584 145.844 84.5685H164.055C164.516 85.6584 165.391 86.533 166.481 86.9943V165.371C165.39 165.832 164.516 166.706 164.055 167.796ZM168.25 171.288C167.3 171.288 166.527 170.516 166.527 169.566C166.527 168.616 167.3 167.844 168.25 167.844C169.199 167.844 169.972 168.616 169.972 169.566C169.972 170.516 169.199 171.288 168.25 171.288Z" fill="#E5E5E5"/>
</svg>
