<svg width="250" height="250" viewBox="0 0 250 250" fill="none" xmlns="http://www.w3.org/2000/svg">
<path d="M143.583 176.183H59.3032C55.8732 176.183 53.0732 173.418 53.0732 169.953C53.0732 166.488 55.8382 163.723 59.3032 163.723H143.583C173.753 163.723 198.288 139.188 198.288 109.018C198.288 78.8477 173.753 54.3477 143.583 54.3477H109.913C106.483 54.3477 103.683 51.5827 103.683 48.1177C103.683 44.6527 106.448 41.8877 109.913 41.8877H143.583C180.613 41.8877 210.713 72.0227 210.713 109.018C210.713 146.013 180.613 176.183 143.583 176.183Z" fill="#6F51A0"/>
<path d="M144.387 145.418H97.0675C93.6375 145.418 90.8375 142.653 90.8375 139.188C90.8375 135.723 93.6025 132.958 97.0675 132.958H144.352C157.547 132.958 168.292 122.213 168.292 109.018C168.292 95.8232 157.547 85.0782 144.352 85.0782H57.3775C53.9475 85.0782 51.1475 82.3132 51.1475 78.8482C51.1475 75.3832 53.9125 72.6182 57.3775 72.6182H144.387C164.442 72.6182 180.787 88.9282 180.787 109.018C180.752 129.108 164.442 145.418 144.387 145.418Z" fill="#6F51A0"/>
<path d="M100.147 115.072H81.8775C78.4475 115.072 75.6475 112.307 75.6475 108.842C75.6475 105.377 78.4125 102.612 81.8775 102.612H100.147C103.577 102.612 106.377 105.377 106.377 108.842C106.377 112.307 103.577 115.072 100.147 115.072Z" fill="#6F51A0"/>
<path d="M84.9931 205.862H45.2681C41.8381 205.862 39.0381 203.097 39.0381 199.632C39.0381 196.167 41.8031 193.402 45.2681 193.402H84.9931C88.4231 193.402 91.2231 196.167 91.2231 199.632C91.2231 203.097 88.4231 205.862 84.9931 205.862Z" fill="#6F51A0"/>
</svg>
