<svg width="250" height="250" viewBox="0 0 250 250" fill="none" xmlns="http://www.w3.org/2000/svg">
<rect width="250" height="250" rx="125" fill="white"/>
<path d="M176.238 48.7843L140.742 101.416C138.294 104.986 143.02 109.338 146.386 106.312L181.304 75.9503C182.256 75.2023 183.582 75.7463 183.582 77.0723V171.966C183.582 173.292 181.882 173.836 181.134 172.918L75.462 46.5063C72.062 42.3583 67.166 40.1143 61.692 40.1143H57.918C48.126 40.1143 40 48.2063 40 58.2363V191.822C40 201.818 48.126 209.944 58.122 209.944C64.344 209.944 70.192 206.748 73.592 201.274L109.054 148.642C111.502 145.072 106.776 140.72 103.41 143.746L68.492 173.87C67.54 174.618 66.214 174.074 66.214 172.748V78.0243C66.214 76.6983 67.914 76.1543 68.662 77.0723L174.334 203.484C177.734 207.632 182.834 209.91 188.104 209.91H191.878C201.874 209.91 210 201.784 210 191.788V58.2363C210 48.2403 201.874 40.1143 191.878 40.1143C185.486 40.1143 179.638 43.3103 176.238 48.7843Z" fill="black"/>
</svg>
