<svg width="250" height="250" viewBox="0 0 250 250" fill="none" xmlns="http://www.w3.org/2000/svg">
<path d="M80.2551 104.917V101.611L44.8301 83.1055C42.506 86.7175 41.271 90.8833 41.2637 95.1352V125.192L41.3505 125.239L80.2551 104.917Z" fill="#3377B5"/>
<path d="M41.3516 125.239L80.2554 145.561V104.918L41.3516 125.239Z" fill="#4F6CB0"/>
<path d="M205.402 83.4949L170.721 101.612V104.918L208.739 124.778V95.1361C208.739 90.9911 207.55 87.0018 205.403 83.4941" fill="#504CA1"/>
<path d="M80.2552 147.177V145.563L41.3505 125.241L41.2637 125.287V154.868C41.2637 159.307 42.626 163.57 45.0705 167.248L80.3237 148.833L80.2552 147.177Z" fill="#3B9CC7"/>
<path d="M167.144 99.4378V59.5293L128.945 79.4831L167.144 99.4378Z" fill="#5465AD"/>
<path d="M170.719 101.306V101.61L205.401 83.4933C203.102 79.7386 199.706 76.5416 195.454 74.3188L167.141 59.5293V99.4378" fill="#513D9A"/>
<path d="M125.467 165.294L163.429 145.464V145.07L125.467 125.239V165.294Z" fill="#214688"/>
<path d="M83.3477 150.532V190.726L83.805 190.964L122.278 170.868L83.3477 150.532Z" fill="#4395C4"/>
<path d="M80.3298 148.956L80.3254 148.832L45.0723 167.246C47.3544 170.68 50.5781 173.612 54.5463 175.682L83.3504 190.726V150.533L80.3298 148.956Z" fill="#54A4CB"/>
<path d="M125.731 77.806L128.942 79.4811L167.139 59.5265L138.281 44.4506C134.344 42.4081 129.957 41.309 125.488 41.2461V77.9309L125.731 77.806Z" fill="#7F6FB3"/>
<path d="M122.276 79.6109L125.487 77.9358V41.2468C121.328 41.1726 117.204 41.9919 113.415 43.6456L83.4199 59.3145L122.276 79.6109Z" fill="#5054A4"/>
<path d="M83.4203 59.3135L83.3457 59.3511V99.9456L122.276 79.6098L83.4203 59.3135Z" fill="#50479E"/>
<path d="M80.2551 101.571L81.9038 100.696L83.3408 99.9427V59.3516L52.9218 75.2449C49.6432 77.2403 46.8764 79.928 44.8301 83.1054L80.2551 101.61V101.571Z" fill="#5057A6"/>
<path d="M125.731 172.673L125.488 172.547V208.757C129.958 208.693 134.346 207.593 138.283 205.55L166.686 190.713L128.944 170.998L125.731 172.673Z" fill="#2C7AB6"/>
<path d="M122.277 170.868L83.8047 190.969L111.718 205.552C115.947 207.744 120.69 208.848 125.489 208.757V172.547" fill="#4FA2CA"/>
<path d="M128.945 170.995L166.688 190.71L167.144 190.471V151.042L128.945 170.995Z" fill="#4D8DC0"/>
<path d="M170.722 149.175L167.145 151.044V190.474L195.457 175.684C199.572 173.535 202.894 170.473 205.189 166.875L170.722 148.867" fill="#4488BE"/>
<path d="M170.723 148.868L205.19 166.876C207.505 163.268 208.734 159.111 208.741 154.868V125.703L170.723 145.563" fill="#6687BE"/>
<path d="M170.721 145.562L208.739 125.702V124.777L170.721 104.916V145.562Z" fill="#415CA8"/>
<path d="M163.429 145.072V105.411L125.467 125.241L163.429 145.072Z" fill="#5D62AC"/>
</svg>
