<svg width="250" height="250" viewBox="0 0 250 250" fill="none" xmlns="http://www.w3.org/2000/svg">
<g clip-path="url(#clip0_242_94444)">
<path d="M45.5445 66.9426C56.1537 60.7912 67.4518 55.9131 79.2044 52.4095C95.2408 47.6488 111.528 45.3937 128.232 45.7276C136 45.8947 148.946 47.1476 151.118 47.9829C151.201 48.15 151.034 48.2335 150.867 48.2335C150.116 48.5676 149.28 48.8181 148.528 49.1522C134.747 54.9152 124.975 67.0262 122.135 81.7262C121.72 84.1284 121.468 86.5562 121.383 88.9927C121.3 92.6682 120.966 96.3428 119.88 99.9343C116.205 112.88 105.598 122.987 92.4845 125.993C75.2785 129.919 57.9059 121.4 50.3888 105.447C49.9711 104.569 49.6627 103.643 49.4706 102.691C48.2337 97.2883 47.2856 91.824 46.6302 86.3209C45.8665 80.2531 45.476 74.1441 45.4609 68.0284C45.5302 67.6709 45.5582 67.3066 45.5445 66.9426Z" fill="#F7A800"/>
<path d="M168.74 167.001C168.907 165.414 169.074 163.994 169.158 162.491C169.576 154.222 167.821 146.371 163.896 139.104C160.137 132.172 154.875 126.659 148.11 122.483C147.525 122.066 146.857 121.731 146.273 121.314C137.002 115.468 131.322 107.198 129.318 96.424C127.586 87.1112 129.499 77.4892 134.659 69.5461C139.82 61.603 147.835 55.9458 157.047 53.7435C163.813 52.1565 170.411 52.3236 177.01 54.4118C182.438 56.0825 187.617 58.3374 192.795 60.7603C196.387 62.431 199.811 64.2683 203.236 66.1892C203.653 66.4398 203.987 66.6069 204.489 66.941C204.489 67.2752 204.572 67.5256 204.572 67.8598C204.572 72.2866 204.322 76.7967 203.987 81.2236C203.394 87.7344 202.418 94.2046 201.064 100.601C197.046 119.304 189.629 137.111 179.181 153.136C176.258 157.646 173.084 161.99 169.743 166.166C169.409 166.416 169.242 166.75 168.74 167.001Z" fill="#67B2E8"/>
<path d="M125.058 204.338C123.805 203.836 119.963 201.498 115.87 198.742C106.763 192.64 98.3104 185.615 90.6459 177.778C82.9618 169.948 76.1303 161.324 70.2663 152.052C64.7684 143.492 60.151 134.398 56.4848 124.908C56.3781 124.637 56.2943 124.358 56.2344 124.073C56.6519 124.323 56.819 124.407 57.0696 124.574C59.9929 126.829 63.084 128.75 66.4242 130.17C70.6838 132.008 75.1106 133.26 79.7878 133.678C89.226 134.597 98.0795 132.675 106.432 127.998C110.746 125.576 115.478 123.989 120.38 123.32C137.837 121.148 155.21 131.505 160.638 149.546C163.395 158.817 162.559 167.838 158.299 176.607C157.715 177.777 157.214 178.863 156.629 179.949C156.309 180.644 155.855 181.268 155.292 181.786C146.459 190.152 136.708 197.493 126.227 203.669C125.809 203.92 125.391 204.171 125.057 204.338H125.058Z" fill="#00C4B3"/>
</g>
<defs>
<clipPath id="clip0_242_94444">
<rect width="159.112" height="159.112" fill="white" transform="translate(45.4609 45.46)"/>
</clipPath>
</defs>
</svg>
