<svg width="250" height="250" viewBox="0 0 250 250" fill="none" xmlns="http://www.w3.org/2000/svg">
<path d="M214.674 126.765V211.031C213.898 212.591 212.88 213.898 211.117 214.433C208.475 215.236 206.5 214.129 204.687 212.313C180.561 188.158 156.416 164.021 132.277 139.879C131.833 139.436 131.382 139.003 130.705 138.339C130.705 139.163 130.705 139.627 130.705 140.092C130.705 162.898 130.705 185.705 130.705 208.512C130.705 212.657 128.664 214.69 124.525 214.69C103.99 214.69 83.4546 214.69 62.9221 214.69C55.6425 214.69 48.3603 214.695 41.0807 214.687C38.6436 214.685 36.587 213.245 35.897 211.033C35.5245 209.845 35.7396 208.612 35.8026 207.397C36.6184 206.684 37.151 205.732 37.9196 204.963C64.7899 178.121 91.6419 151.259 118.496 124.399C118.866 124.029 119.255 123.678 119.632 123.318C119.653 123.88 119.685 124.441 119.69 125.003C119.722 127.817 121.24 129.661 123.95 130.472C125.202 130.845 126.343 130.286 127.536 130.401C130.54 130.396 133.528 130.776 136.539 130.703C139.632 130.627 142.73 130.687 145.826 130.687C166.406 130.687 186.988 130.682 207.568 130.692C210.679 130.692 213.368 129.995 214.674 126.763V126.765Z" fill="#F500FC"/>
<path d="M127.536 130.409C126.343 130.294 125.201 130.852 123.95 130.48C121.238 129.669 119.721 127.825 119.69 125.01C119.685 124.449 119.651 123.888 119.632 123.326C119.632 122.196 119.63 121.065 119.627 119.934C119.635 117.243 119.643 114.549 119.651 111.857C119.661 111.335 119.679 110.813 119.679 110.291C119.679 87.6442 119.719 64.9948 119.64 42.3479C119.63 39.0504 120.752 36.8206 123.887 35.7031H210.225C212.431 36.1911 213.892 37.5237 214.671 39.6276V42.5053C213.992 44.2288 212.552 45.307 211.295 46.5609C183.992 73.851 156.699 101.152 129.414 128.463C128.777 129.1 127.982 129.591 127.531 130.409H127.536Z" fill="#9900CE"/>
<path d="M119.654 111.858C119.646 114.549 119.638 117.243 119.631 119.935C118.977 119.943 118.324 119.956 117.671 119.956C93.0672 119.956 68.4633 119.987 43.8622 119.919C40.7195 119.911 37.763 119.898 35.7982 122.868C35.7719 122.259 35.7247 121.651 35.7247 121.042C35.7195 94.8746 35.7562 68.71 35.6749 42.5453C35.6644 39.2033 36.7531 36.9079 39.9036 35.7012H42.2593C43.7599 36.2704 44.8879 37.3224 46.0054 38.4373C70.0793 62.54 94.1663 86.6296 118.256 110.714C118.681 111.139 119.022 111.679 119.654 111.855V111.858Z" fill="#FE80FE"/>
<path d="M127.532 130.41C127.983 129.591 128.778 129.101 129.416 128.463C156.698 101.152 183.991 73.8515 211.296 46.5615C212.55 45.3075 213.993 44.2294 214.673 42.5059V126.771C213.366 130.003 210.677 130.703 207.566 130.701C186.986 130.69 166.404 130.696 145.824 130.696C142.729 130.696 139.631 130.635 136.538 130.711C133.526 130.785 130.539 130.404 127.535 130.41H127.532Z" fill="#BD00E0"/>
<path d="M35.8024 207.395C35.7736 206.876 35.7237 206.356 35.7237 205.834C35.7211 178.828 35.7185 151.821 35.7237 124.814C35.7237 124.161 35.771 123.51 35.7972 122.857C37.762 119.885 40.7185 119.898 43.8612 119.908C68.465 119.977 93.0688 119.948 117.67 119.945C118.323 119.945 118.976 119.932 119.63 119.924C119.63 121.055 119.632 122.186 119.635 123.316C119.254 123.676 118.866 124.027 118.499 124.397C91.6443 151.254 64.795 178.119 37.922 204.961C37.1534 205.729 36.6209 206.682 35.8051 207.395H35.8024Z" fill="#FE4FFE"/>
</svg>
