<svg width="250" height="250" viewBox="0 0 250 250" fill="none" xmlns="http://www.w3.org/2000/svg">
<path d="M124.75 247.501C192.819 247.501 248 192.32 248 124.251C248 56.1819 192.819 1.00098 124.75 1.00098C56.6809 1.00098 1.5 56.1819 1.5 124.251C1.5 192.32 56.6809 247.501 124.75 247.501Z" fill="url(#paint0_linear_242_93664)"/>
<path d="M175.253 42.5996C169.703 42.5996 164.053 44.7496 160.253 48.2496C152.303 53.6496 143.203 56.2496 132.853 56.2496C122.703 56.2496 113.853 53.7496 105.953 48.5996C102.103 44.8996 96.3527 42.5996 90.6027 42.5996C78.8527 42.5996 69.3027 52.1496 69.3027 63.8996C69.3027 75.6496 78.8527 85.1996 90.6027 85.1996C96.0027 85.1996 101.503 83.1496 105.253 79.8496C113.253 74.3996 122.403 71.6996 132.803 71.6996C143.503 71.6996 152.903 74.5496 161.003 80.2496C164.703 83.2996 170.003 85.1996 175.153 85.1996C186.903 85.1996 196.453 75.6496 196.453 63.8996C196.453 52.1496 187.053 42.5996 175.253 42.5996Z" fill="white"/>
<path d="M134.702 100.05C129.152 100.05 123.502 102.2 119.702 105.7C111.752 111.1 102.652 113.7 92.302 113.7C82.152 113.7 73.302 111.2 65.402 106.05C61.552 102.35 55.802 100.05 50.052 100.05C38.302 100.05 28.752 109.6 28.752 121.35C28.752 133.1 38.302 142.65 50.052 142.65C55.452 142.65 60.9519 140.6 64.7019 137.3C72.7019 131.85 81.852 129.15 92.2519 129.15C102.952 129.15 112.352 132 120.452 137.7C124.152 140.75 129.452 142.65 134.602 142.65C146.352 142.65 155.902 133.1 155.902 121.35C155.902 109.6 146.502 100.05 134.702 100.05Z" fill="white"/>
<path d="M174.952 158.5C169.402 158.5 163.752 160.65 159.952 164.15C152.002 169.55 142.902 172.15 132.552 172.15C122.402 172.15 113.552 169.65 105.652 164.5C101.802 160.8 96.052 158.5 90.302 158.5C78.552 158.5 69.002 168.05 69.002 179.8C69.002 191.55 78.552 201.1 90.302 201.1C95.702 201.1 101.202 199.05 104.952 195.75C112.952 190.3 122.102 187.6 132.502 187.6C143.202 187.6 152.602 190.45 160.702 196.15C164.402 199.2 169.702 201.1 174.852 201.1C186.602 201.1 196.152 191.55 196.152 179.8C196.152 168.05 186.702 158.5 174.952 158.5Z" fill="white"/>
<defs>
<linearGradient id="paint0_linear_242_93664" x1="17.9945" y1="185.886" x2="231.505" y2="62.6157" gradientUnits="userSpaceOnUse">
<stop stop-color="#63034A"/>
<stop offset="1" stop-color="#A3215F"/>
</linearGradient>
</defs>
</svg>
