<svg width="250" height="250" viewBox="0 0 250 250" fill="none" xmlns="http://www.w3.org/2000/svg">
<rect width="250" height="250" rx="125" fill="white"/>
<path d="M115.499 167.53C112.694 167.53 109.846 167.105 107.041 166.213C105.766 165.703 103.981 165.66 101.771 165.958C95.4814 167.02 90.4239 166.34 86.4289 163.96C85.6639 163.578 84.0064 163.323 82.0514 163.323C75.1239 163.705 70.8314 162.77 68.0264 160.348C67.5164 160.22 66.1989 160.008 64.3714 160.008C57.4439 160.008 53.0664 158.52 51.6214 155.63C51.2389 155.46 50.3889 155.163 49.0289 154.95C43.5889 154.355 40.4864 153.208 39.0414 151.338C38.5314 150.7 38.2764 149.978 38.1914 149.213C37.9364 149.128 37.5539 149.043 37.0014 148.958C31.9014 148.065 29.3089 146.663 28.5014 144.453C28.3314 143.943 28.1189 143.135 28.3739 142.115C25.5264 141.35 22.5939 140.118 22.1689 137.525C21.9564 136.335 22.3389 135.188 23.2739 134.125C21.8289 133.36 20.1289 132.043 20.1289 129.96C20.1289 127.878 21.8289 126.56 23.2739 125.795C22.3389 124.733 21.9564 123.628 22.1689 122.395C22.5939 119.718 25.6539 118.485 28.3739 117.763C28.1189 116.785 28.2889 115.978 28.4589 115.468C29.2664 113.258 31.8589 111.855 36.8739 110.963C37.4689 110.878 37.8939 110.75 38.1489 110.665C38.2339 109.73 38.5739 108.88 39.1264 108.158C40.6139 106.245 43.4614 105.183 48.7314 104.63C50.0914 104.418 50.8989 104.12 51.2814 103.95C53.0239 100.55 57.5714 99.573 63.9039 99.2755C65.8589 99.2755 67.0914 98.7655 67.3464 98.5955C69.8964 96.0455 74.8264 94.898 81.8814 95.2805C84.2189 95.2805 85.7489 94.8555 86.0464 94.6855C89.7439 92.4755 94.5889 91.7955 101.389 92.603C102.961 92.8155 104.704 92.7305 106.744 92.348C111.164 90.6905 116.094 90.478 122.256 91.6255C123.914 91.923 125.996 91.923 127.739 91.6255C132.924 90.308 138.066 90.4355 143.251 92.0505C144.526 92.5605 146.311 92.603 148.521 92.3055C154.811 91.243 159.869 91.923 163.864 94.303C164.629 94.6855 166.286 94.9405 168.241 94.9405C175.551 94.558 179.929 95.578 182.691 98.3405C182.861 98.468 184.094 98.9355 185.921 98.9355C192.891 98.9355 197.269 100.465 198.714 103.355C199.096 103.568 199.989 103.95 200.924 103.95C206.491 104.333 209.976 106.075 211.761 109.22C212.059 109.815 212.144 109.943 212.909 109.943C216.776 109.943 220.261 111.685 221.451 114.15C221.834 114.958 221.961 115.808 221.834 116.658C224.851 116.998 227.061 118.528 227.699 120.653C228.039 121.8 227.954 123.373 226.891 124.775C228.421 125.583 230.121 126.9 230.121 128.983C230.121 130.98 228.549 132.255 227.189 133.02C227.954 133.998 228.294 135.06 228.081 136.165C227.614 138.928 224.384 140.16 221.579 140.883C221.536 140.883 221.451 140.925 221.409 140.925C221.154 145.473 218.646 146.663 213.334 147.598C212.739 147.683 212.356 147.81 212.059 147.895C211.974 148.83 211.634 149.68 211.081 150.403C209.594 152.315 206.746 153.378 201.476 153.93C200.116 154.143 199.309 154.44 198.926 154.61C196.971 158.435 191.404 158.988 186.176 158.988C184.349 158.988 183.116 159.498 182.861 159.668C180.311 162.218 175.424 163.365 168.369 162.983C166.031 162.983 164.501 163.408 164.204 163.578C160.506 165.788 155.619 166.425 148.861 165.66C147.289 165.448 145.589 165.533 143.506 165.915C139.086 167.573 134.156 167.785 127.994 166.638C126.294 166.34 124.254 166.34 122.511 166.638C120.174 167.233 117.836 167.53 115.499 167.53ZM104.279 160.773C105.979 160.773 107.466 161.028 108.699 161.495C112.779 162.728 117.029 162.855 121.534 161.708C123.999 161.283 126.634 161.283 128.886 161.665C134.326 162.685 138.321 162.515 141.934 161.113L142.359 160.985C145.079 160.433 147.416 160.305 149.541 160.645C155.024 161.283 159.019 160.858 161.569 159.285C163.311 158.095 166.711 157.925 168.539 157.925C176.486 158.35 178.909 156.565 179.461 155.97C180.736 154.695 183.371 153.888 186.261 153.888C193.104 153.888 194.421 152.613 194.634 152.06C195.484 150.403 197.566 149.383 200.924 148.915C206.364 148.32 207.171 147.3 207.214 147.258C207.129 145.685 207.851 143.348 212.569 142.583C215.671 142.03 216.309 141.605 216.436 141.478C216.436 141.435 216.479 141.18 216.479 140.373C216.479 137.738 217.796 136.803 220.176 135.995C221.154 135.74 221.876 135.485 222.344 135.273C221.239 134.423 220.686 133.19 220.899 131.915C221.154 130.513 222.216 129.45 223.789 128.983C223.916 128.94 224.001 128.898 224.086 128.855C223.959 128.813 223.789 128.728 223.619 128.643C221.324 127.708 220.814 126.178 220.729 125.328C220.601 124.01 221.281 122.735 222.514 121.885C222.556 121.885 222.556 121.843 222.599 121.843C222.301 121.673 221.749 121.503 220.899 121.503C218.774 121.503 217.074 120.525 216.394 118.91C215.969 117.89 216.054 116.785 216.606 115.893C216.054 115.468 214.736 114.83 212.866 114.83C210.274 114.83 208.404 113.683 207.299 111.43C206.789 110.538 205.471 109.135 200.669 108.795C198.416 108.795 195.229 107.648 194.294 105.735L194.166 105.395C193.911 105.013 191.829 103.78 185.836 103.78C182.989 103.78 180.311 102.973 179.079 101.698C177.421 100.04 174.106 99.4455 168.284 99.743H168.241C166.159 99.743 163.439 99.5305 161.356 98.468C158.254 96.598 154.344 96.173 149.201 97.023C146.014 97.4905 143.464 97.3205 141.509 96.5555C137.429 95.323 133.179 95.1955 128.674 96.343C126.209 96.768 123.574 96.768 121.321 96.3855C115.966 95.3655 111.844 95.5355 108.274 96.938L107.849 97.0655C105.129 97.618 102.791 97.703 100.666 97.4055C95.1414 96.768 91.1889 97.193 88.6389 98.723C86.8964 99.913 83.5389 100.083 81.6689 100.083C73.7214 99.658 71.2989 101.443 70.7464 102.038C69.5139 103.313 66.8364 104.12 63.9889 104.12C57.6989 104.46 55.9564 105.48 55.6164 106.288C54.8089 107.945 52.6839 108.965 49.3264 109.433C43.8864 110.028 43.0789 111.048 43.0364 111.09C43.1214 112.62 42.3989 115 37.6814 115.765C35.4289 116.148 34.2389 116.615 33.6014 116.913C33.9839 117.593 34.1114 118.4 33.9414 119.165C33.5164 120.993 31.6464 121.8 30.0739 122.353C29.0964 122.608 28.3739 122.863 27.9064 123.075C28.9264 123.84 29.4364 124.945 29.3514 126.093C29.2664 127.495 28.2889 128.77 26.7164 129.535C26.5039 129.62 26.2914 129.705 26.1214 129.79C26.2489 129.833 26.4189 129.918 26.5464 130.003C28.2889 130.853 29.2239 132.128 29.3514 133.53C29.4364 134.72 28.8839 135.825 27.8639 136.59C28.3314 136.76 28.9689 137.015 29.9039 137.27C32.6664 137.695 33.5589 139.268 33.8564 140.16C34.1539 141.053 34.0264 141.945 33.6014 142.753C34.2389 143.05 35.4289 143.518 37.7239 143.9C42.1439 144.538 43.1214 146.663 43.1214 148.32C43.5889 148.618 45.1189 149.383 49.5814 149.893C53.0239 150.403 55.1064 151.423 55.8714 152.953L55.9989 153.293C56.2539 153.675 58.3364 154.908 64.2864 154.908C66.2414 154.908 69.0464 155.163 70.4064 155.843L71.0439 156.31C72.7014 157.968 76.0164 158.563 81.8389 158.265H81.8814C83.9639 158.265 86.6839 158.478 88.7664 159.54C91.8689 161.41 95.7789 161.835 100.921 160.985C102.196 160.858 103.301 160.773 104.279 160.773ZM29.3939 119.675C29.4364 119.76 29.5214 119.803 29.5639 119.888C29.4789 119.803 29.4364 119.76 29.3939 119.675Z" fill="black"/>
<path d="M118.131 55.0343C121.786 53.7168 125.144 50.0193 124.804 45.0043C124.464 39.9893 119.449 38.3318 113.116 40.6693C100.451 45.0043 97.0936 59.3693 95.0961 73.7343C94.4161 77.7293 94.0761 82.0643 93.7786 85.7618C90.1236 115.469 87.4461 150.532 88.4236 177.222C88.7636 182.577 90.4211 188.569 86.0861 194.264C78.7336 194.944 80.7311 190.609 74.0586 192.947C63.7311 196.602 66.0261 210.627 73.7186 209.989C76.0561 209.989 78.0536 209.309 80.7311 207.652C93.7361 200.979 95.4361 183.597 97.7736 166.257C101.769 133.872 103.766 102.167 103.469 71.7793V71.4393C103.469 65.7443 102.449 56.4368 106.146 54.3968C109.759 52.6968 112.436 57.3718 118.131 55.0343Z" fill="black"/>
<path d="M167.007 41.4352C154.342 45.7702 150.984 60.1352 148.987 74.5002C148.307 78.4952 147.967 82.8302 147.669 86.5277C144.014 116.235 141.337 151.298 142.314 177.988C142.654 183.343 144.312 189.335 139.977 195.03C132.624 196.05 134.622 191.375 127.949 193.713C117.622 197.368 119.917 211.393 127.609 210.755C129.947 210.755 131.944 210.075 134.622 208.418C147.627 201.745 149.327 184.363 151.664 167.023C155.659 134.638 157.657 102.933 157.359 72.5452V72.2052C157.359 66.5102 156.339 57.2027 160.037 55.1627C163.692 53.1652 166.369 57.8402 172.064 55.5027C175.719 54.1852 179.077 50.4877 178.737 45.4727C178.354 40.7552 173.339 39.0977 167.007 41.4352Z" fill="black"/>
</svg>
