<svg width="250" height="250" viewBox="0 0 250 250" fill="none" xmlns="http://www.w3.org/2000/svg">
<path d="M17.4473 64.5859V182.826C17.4473 183.519 17.6206 184.213 18.0105 184.862C18.3571 185.469 18.8771 185.989 19.527 186.336L71.3897 215.322V94.6551L17.4473 64.5859Z" fill="#60BEFF"/>
<path d="M179.058 34.4307L230.92 63.4166C231.57 63.7632 232.09 64.2832 232.437 64.8897C232.783 65.4963 233 66.1896 233 66.9261V185.166L179.058 155.01V34.4307Z" fill="#1A4199"/>
<path d="M71.2568 215.278L125.199 185.123L71.2568 154.967V215.278Z" fill="#3CA9E5"/>
<path d="M73.3394 35.601L179.015 94.6994V154.968L17.4473 64.5869L69.31 35.601C69.9166 35.2544 70.6098 35.0811 71.3464 35.0811C72.0396 35.0811 72.7329 35.2544 73.3394 35.601Z" fill="#3CA9E5"/>
<path d="M179.058 34.4307L125.202 64.5864L179.058 94.7422V34.4307Z" fill="#2853C3"/>
<path d="M232.954 185.167L181.091 214.153C180.442 214.499 179.748 214.673 179.012 214.673C178.275 214.673 177.582 214.499 176.932 214.153L71.2568 155.011V94.6562L232.954 185.167Z" fill="#2853C3"/>
</svg>
