<svg width="250" height="250" viewBox="0 0 250 250" fill="none" xmlns="http://www.w3.org/2000/svg">
<g clip-path="url(#clip0_242_93669)">
<path d="M250 125C250 194.05 194.05 250 125 250C55.95 250 0 194.05 0 125C0 55.95 55.95 0 125 0C194.05 0 250 55.95 250 125Z" fill="#F8931F"/>
<path d="M184.15 109.3L180.15 95.8002L161.2 100.35L152.15 69.9502L129.65 75.4002L146.8 132.95L146.45 133.15L93.6504 84.0502L70.9504 89.5002L80.0004 119.9L60.9004 124.5L64.9004 138L84.0004 133.4L86.6504 142.3L67.5504 146.9L71.5504 160.4L90.6504 155.8L97.8504 180L120.5 174.55L103.4 117L103.75 116.8L156.55 165.9L179.05 160.45L171.85 136.25L190.8 131.7L186.8 118.2L167.85 122.75L165.2 113.85L184.15 109.3Z" fill="white"/>
</g>
<defs>
<clipPath id="clip0_242_93669">
<rect width="250" height="250" rx="125" fill="white"/>
</clipPath>
</defs>
</svg>
