<svg width="250" height="250" viewBox="0 0 250 250" fill="none" xmlns="http://www.w3.org/2000/svg">
<g clip-path="url(#clip0_242_94788)">
<path d="M125 250C194.036 250 250 194.036 250 125C250 55.9644 194.036 0 125 0C55.9644 0 0 55.9644 0 125C0 194.036 55.9644 250 125 250Z" fill="#EDF0F4"/>
<path d="M124.999 43.75L62.499 106.25L124.999 166.132L187.499 106.25L124.999 43.75Z" fill="url(#paint0_linear_242_94788)"/>
<path d="M93.5464 159.433C94.9229 157.591 96.2269 155.841 97.7889 154.141C79.0044 158.668 66.0684 168.148 66.0684 179.12C66.0684 179.529 66.0904 179.936 66.1254 180.339C67.9684 179.64 69.9124 178.803 71.9774 177.788C84.3854 171.692 89.2529 165.179 93.5464 159.433Z" fill="black"/>
<path d="M113.111 179.599C116.867 174.573 120.111 170.232 129.28 165.73C138.449 161.228 143.868 161.311 150.142 161.408C154.345 161.475 158.878 161.543 164.407 160.359C157.664 156.737 148.995 153.997 139.197 152.527L124.999 166.126L115.075 156.618C108.002 161.38 104.379 166.223 101.089 170.618C97.3323 175.645 94.0888 179.986 84.9198 184.487C78.4883 187.646 73.9033 188.547 69.5723 188.769C72.9883 193.3 78.7403 197.278 86.1063 200.336C87.8218 199.67 89.6258 198.883 91.5313 197.947C103.946 191.858 108.814 185.345 113.111 179.599Z" fill="black"/>
<path d="M145.328 204.587C160.15 201.396 171.652 195.173 176.589 187.516C172.35 188.29 167.528 189.776 161.788 192.597C153.786 196.531 148.926 200.632 145.328 204.587Z" fill="black"/>
<path opacity="0.5" d="M124.999 106.25H62.499L124.999 43.75V106.25Z" fill="url(#paint1_linear_242_94788)"/>
<path fill-rule="evenodd" clip-rule="evenodd" d="M101.663 203.379C101.663 203.379 107.74 204.658 114.594 205.435C121.447 206.211 125.514 205.206 125.514 205.206C125.514 205.206 135.702 189.078 145.983 184.783C145.983 184.783 155.989 179.528 165.081 180.214L175.864 180.671C175.864 180.671 176.257 176.696 174.451 171.685C172.644 166.673 169.787 165.776 169.787 165.776C169.787 165.776 149.638 164.953 137.621 172.127C137.621 172.127 123.275 181.722 117.107 191.819C117.107 191.819 112.903 197.073 109.705 198.947" fill="black"/>
</g>
<defs>
<linearGradient id="paint0_linear_242_94788" x1="125.497" y1="47.7287" x2="68.7395" y2="106.94" gradientUnits="userSpaceOnUse">
<stop offset="0.09" stop-color="#FF6D41"/>
<stop offset="0.5" stop-color="#FA297F"/>
<stop offset="1" stop-color="#FA297F"/>
</linearGradient>
<linearGradient id="paint1_linear_242_94788" x1="109.93" y1="31.8211" x2="51.68" y2="90.0695" gradientUnits="userSpaceOnUse">
<stop stop-color="#652CB4"/>
<stop offset="0.07" stop-color="#652CB4" stop-opacity="0.82"/>
<stop offset="0.19" stop-color="#652CB4" stop-opacity="0.53"/>
<stop offset="0.3" stop-color="#652CB4" stop-opacity="0.3"/>
<stop offset="0.4" stop-color="#652CB4" stop-opacity="0.14"/>
<stop offset="0.49" stop-color="#652CB4" stop-opacity="0.04"/>
<stop offset="0.55" stop-color="#652CB4" stop-opacity="0.01"/>
</linearGradient>
<clipPath id="clip0_242_94788">
<rect width="250" height="250" fill="white"/>
</clipPath>
</defs>
</svg>
