<svg width="250" height="250" viewBox="0 0 250 250" fill="none" xmlns="http://www.w3.org/2000/svg">
<rect width="250" height="250" rx="125" fill="white"/>
<g clip-path="url(#clip0_242_94432)">
<path d="M120.314 84.3691C100.693 84.3691 84.6872 97.5963 80.6908 115.943H63.5977V129.634H79.968C82.1996 150.808 99.4548 166.363 120.636 166.363C136.906 166.363 150.115 159.919 155.912 149.287L141.576 140.108C137.873 146.227 129.817 150.092 120.956 150.092C108.232 150.092 99.5321 142.359 97.6012 129.635H170.42L174.94 115.943H157.713C154.924 97.7854 139.526 84.3691 120.314 84.3691ZM98.2438 115.943C100.983 105.631 108.554 99.1893 119.347 99.1893C130.14 99.1893 138.354 106.114 139.322 115.943H98.2438Z" fill="#002E33"/>
<path d="M129.363 15.7139V34.542C179.251 34.542 219.836 75.1278 219.836 125.015H238.665C238.665 64.7455 189.633 15.7139 129.363 15.7139Z" fill="#002E33"/>
<path d="M30.1912 125.015H11.3633C11.3633 185.284 60.3949 234.318 120.665 234.318V215.49C70.777 215.49 30.1912 174.901 30.1912 125.015Z" fill="#002E33"/>
</g>
<defs>
<clipPath id="clip0_242_94432">
<rect width="227.302" height="227.302" fill="white" transform="translate(11.3643 11.3652)"/>
</clipPath>
</defs>
</svg>
