<svg width="250" height="250" viewBox="0 0 250 250" fill="none" xmlns="http://www.w3.org/2000/svg">
<rect width="250" height="250" rx="125" fill="white"/>
<path d="M64.9428 147.08L49.0479 173.303H78.4578C71.9978 165.908 67.3228 156.94 64.9428 147.08Z" fill="#66D5BB"/>
<path d="M171.49 173.303H200.9L185.005 147.08C182.625 156.94 177.95 165.908 171.49 173.303Z" fill="#66D5BB"/>
<path d="M124.954 70.8781C130.096 70.8781 135.069 71.5156 139.871 72.7056L124.954 48.1406L110.036 72.7056C114.839 71.5156 119.811 70.8781 124.954 70.8781Z" fill="#66D5BB"/>
<path d="M63.2859 133.481C63.2859 133.226 63.2859 132.929 63.2859 132.674C63.2859 108.491 77.1409 87.5815 97.2859 77.424L115.518 47.334C72.6784 52.094 39.2734 88.474 39.2734 132.716C39.2734 143.596 41.3134 154.051 45.0109 163.614L63.2859 133.481Z" fill="#08192E"/>
<path d="M152.664 77.4635C172.809 87.621 186.664 108.531 186.664 132.714C186.664 132.969 186.664 133.266 186.664 133.521L204.939 163.654C208.636 154.091 210.676 143.636 210.676 132.756C210.676 88.5135 177.271 52.1335 134.389 47.416L152.664 77.4635Z" fill="#08192E"/>
<path d="M163.841 180.741C153.216 189.369 139.701 194.554 124.954 194.554C110.206 194.554 96.691 189.369 86.0661 180.741H53.8936C69.2786 203.564 95.3736 218.566 124.954 218.566C154.534 218.566 180.629 203.564 196.014 180.741H163.841Z" fill="#08192E"/>
<path d="M115.561 47.3766L124.996 31.8216L134.431 47.3766C138.256 47.8016 142.038 48.4816 145.693 49.4166L124.996 15.2891L104.256 49.4166C107.953 48.4816 111.693 47.8016 115.561 47.3766Z" fill="#66D5BB"/>
<path d="M188.447 190.387H231.245L208.337 152.647C207.445 156.387 206.297 160.085 204.937 163.612L215.307 180.697H196.055C193.76 184.14 191.21 187.327 188.447 190.387Z" fill="#66D5BB"/>
<path d="M53.8931 180.74H34.6406L45.0106 163.655C43.6506 160.128 42.5031 156.43 41.6106 152.69L18.7031 190.43H61.5006C58.7381 187.328 56.1881 184.14 53.8931 180.74Z" fill="#66D5BB"/>
</svg>
