<svg width="250" height="250" viewBox="0 0 250 250" fill="none" xmlns="http://www.w3.org/2000/svg">
<path d="M125.5 248C193.597 248 248.8 192.797 248.8 124.7C248.8 56.6037 193.597 1.40039 125.5 1.40039C57.4035 1.40039 2.2002 56.6037 2.2002 124.7C2.2002 192.797 57.4035 248 125.5 248Z" fill="url(#paint0_linear_242_93674)"/>
<path d="M65.251 86.1995C91.051 61.4995 128.701 68.9495 146.651 97.4495C123.001 120.05 82.951 117.45 65.251 86.1995Z" fill="white"/>
<path d="M99.5499 128.7C124.9 159.05 115.1 194.55 88.5499 210.25C67.5499 190.75 65.4999 151.85 99.5499 128.7Z" fill="white"/>
<path d="M121.55 155.5C123 120.4 155 96.8504 187 106.2C186.9 140.65 154.5 163.75 121.55 155.5Z" fill="white"/>
<path d="M136.8 34.25C158.65 41.55 169.1 67.75 155.4 88.9C131.35 80.05 123.95 52.7 136.8 34.25Z" fill="white"/>
<path d="M90.8996 120.25C80.9996 145.55 53.3496 151.3 36.3496 138.7C44.3496 116.35 69.6496 107.35 90.8996 120.25Z" fill="white"/>
<path d="M121.301 168.051C144.401 157.201 169.451 171.451 173.001 193.151C155.851 202.551 129.201 195.801 121.301 168.051Z" fill="white"/>
<path d="M91.6501 39.4C111.05 36.05 123.9 52.65 122.45 66.9C107.5 70.35 90.6001 58.45 91.6501 39.4Z" fill="white"/>
<path d="M41.8003 184.3C39.3503 177.45 41.5503 171.25 44.8503 165.4C49.3003 157.5 60.0503 152.25 68.7003 153.3C72.6503 168.6 61.5003 181.7 41.8003 184.3Z" fill="white"/>
<path d="M201.35 158.051C190.1 172.101 171.4 172.951 160.3 160.101C170.3 145.951 191 144.851 201.35 158.051Z" fill="white"/>
<defs>
<linearGradient id="paint0_linear_242_93674" x1="125.486" y1="247.989" x2="125.486" y2="1.36239" gradientUnits="userSpaceOnUse">
<stop stop-color="#25346E"/>
<stop offset="1" stop-color="#6073B4"/>
</linearGradient>
</defs>
</svg>
