<svg width="250" height="250" viewBox="0 0 250 250" fill="none" xmlns="http://www.w3.org/2000/svg">
<g clip-path="url(#clip0_242_94179)">
<path d="M124.998 250C194.034 250 249.998 194.036 249.998 125C249.998 55.9644 194.034 0 124.998 0C55.9624 0 -0.00195312 55.9644 -0.00195312 125C-0.00195312 194.036 55.9624 250 124.998 250Z" fill="#186C9D"/>
<path d="M150.475 183.595L150.482 183.579C151.687 183.603 152.889 183.471 154.061 183.188C160.904 181.587 166.693 175.61 168.068 169.157L195.311 66.8447L173.654 66.7354L155.795 133.673L107.514 66.5088L107.482 66.54L107.506 66.4619L99.5293 66.4072V66.415C98.3229 66.3964 97.1187 66.525 95.9434 66.7979C89.1074 68.4072 83.3184 74.3838 81.9355 80.8291L54.6855 183.165L76.3496 183.259L94.2012 116.321L142.482 183.493H142.506L150.475 183.595ZM98.9668 98.4854L102.74 84.3447L151.029 151.524L147.256 165.665L98.9746 98.4775L98.9668 98.4854Z" fill="white"/>
</g>
<defs>
<clipPath id="clip0_242_94179">
<rect width="250" height="250" rx="125" fill="white"/>
</clipPath>
</defs>
</svg>
