<svg width="250" height="250" viewBox="0 0 250 250" fill="none" xmlns="http://www.w3.org/2000/svg">
<rect width="250" height="250" rx="125" fill="white"/>
<g clip-path="url(#clip0_242_94423)">
<path d="M30.5692 142.971C32.0972 144.499 34.167 145.361 36.3277 145.369C38.4884 145.378 40.565 144.532 42.105 143.017L117.526 68.8001C119.205 67.1478 121.463 66.2162 123.818 66.2035C126.174 66.1907 128.441 67.0979 130.138 68.7319L207.674 143.398C209.217 144.885 211.282 145.707 213.425 145.689C215.568 145.67 217.618 144.813 219.136 143.301L234.902 127.59C235.754 126.741 236.428 125.731 236.885 124.618C237.341 123.505 237.571 122.312 237.561 121.11C237.551 119.907 237.301 118.718 236.825 117.613C236.35 116.508 235.658 115.509 234.792 114.675L130.138 13.8938C128.441 12.2598 126.174 11.3526 123.818 11.3654C121.463 11.3781 119.205 12.3098 117.526 13.962L15.1701 114.684C14.3196 115.521 13.6431 116.519 13.1799 117.618C12.7166 118.718 12.4756 119.898 12.4708 121.092C12.466 122.285 12.6975 123.467 13.1519 124.571C13.6063 125.674 14.2747 126.677 15.1185 127.52L30.5692 142.971Z" fill="#00DD9A"/>
<path d="M120.305 100.55L55.915 163.912C55.3799 164.439 54.9544 165.066 54.6629 165.758C54.3715 166.45 54.2199 167.192 54.2168 167.943C54.2138 168.694 54.3594 169.437 54.6453 170.131C54.9312 170.826 55.3517 171.456 55.8825 171.987L120.897 237.002C121.963 238.067 123.407 238.666 124.914 238.668C126.42 238.669 127.866 238.072 128.933 237.009L194.144 172.031C194.68 171.497 195.104 170.861 195.392 170.161C195.679 169.461 195.824 168.711 195.817 167.954C195.811 167.198 195.654 166.45 195.355 165.755C195.056 165.059 194.621 164.431 194.076 163.906L128.239 100.507C127.172 99.4787 125.745 98.9081 124.263 98.9161C122.782 98.9241 121.361 99.5102 120.305 100.55Z" fill="#172783"/>
</g>
<defs>
<clipPath id="clip0_242_94423">
<rect width="227.302" height="227.302" fill="white" transform="translate(11.3652 11.3652)"/>
</clipPath>
</defs>
</svg>
