<svg width="250" height="250" viewBox="0 0 250 250" fill="none" xmlns="http://www.w3.org/2000/svg">
<g clip-path="url(#clip0_921_3452)">
<rect width="250" height="250" rx="125" fill="#B9935A"/>
<path d="M339.634 336.644C338.58 334.858 336.161 332.623 333.599 330.261C332.168 328.941 330.039 326.979 328.858 325.598C329.855 325.475 331.028 325.262 332.074 324.707C334.314 323.574 335.593 321.028 335.327 318.208C334.743 311.849 328.258 309.27 322.385 308.976H322.34C319.639 308.902 316.648 307.897 316.068 306.867C316.014 306.773 315.884 306.544 316.186 305.931C317.322 304.742 319.059 303.978 320.898 303.168C323.023 302.233 325.217 301.264 326.872 299.49C329.193 297.296 330.015 294.095 328.965 291.316C327.963 288.668 325.536 287.029 322.459 286.927C322.067 286.89 321.666 286.874 321.261 286.874C318.977 286.874 316.836 287.438 314.768 287.981C313.195 288.394 311.703 288.786 310.236 288.913C310.065 288.93 309.893 288.938 309.717 288.938C307.899 288.938 306.068 288.112 304.127 287.233C303.216 286.821 302.276 286.396 301.311 286.048L301.242 286.024C299.836 285.574 298.357 285.349 296.845 285.349C292.975 285.349 289.342 286.796 285.828 288.198C282.473 289.534 279.306 290.797 276.11 290.797C274.41 290.797 272.828 290.434 271.276 289.69L271.137 289.624L270.99 289.579C263.168 287.176 255.036 284.994 247.169 282.885C234.812 279.57 222.033 276.142 209.982 271.728C207.62 270.873 204.645 270.109 201.495 269.3C190.649 266.513 177.152 263.043 177.111 253.435V253.361L177.107 253.287C176.408 244.067 175.3 236.825 173.404 229.101C172.885 226.804 172.06 224.176 171.267 221.634C170.368 218.765 169.248 215.193 169.305 214.028V213.975C169.395 210.256 175.035 206.116 179.567 202.789C181.312 201.51 182.958 200.296 184.237 199.168C191.471 192.981 195.116 191.906 203.93 189.307L204.69 189.082C207.629 188.317 210.567 187.537 213.505 186.76C219.52 185.166 225.744 183.515 231.894 182.007C238.625 180.52 246.16 179.253 255.608 178.023L256.164 177.973C259.208 177.712 262.657 177.414 265.362 175.068L265.416 175.023L265.465 174.974C268.076 172.374 270.757 169.542 272.367 166.036C272.906 164.854 273.041 163.461 273.159 162.235C273.217 161.642 273.307 160.714 273.454 160.24C273.621 160.277 273.887 160.355 274.275 160.526C278.545 163.134 283.249 164.094 287.801 165.026C288.819 165.234 289.873 165.451 290.899 165.68L290.96 165.692C293.298 166.142 296.408 167.854 299.701 169.669C304.556 172.342 309.574 175.109 314.184 175.109C315.965 175.109 317.584 174.683 318.985 173.846L319.21 173.711L319.394 173.523C320.865 172.023 321.568 170.376 321.474 168.623C321.29 165.1 317.96 162.353 315.021 159.93C314.936 159.856 314.846 159.787 314.76 159.713C315.209 159.758 315.655 159.819 316.072 159.889C317.097 160.069 318.119 160.342 319.198 160.637C321.078 161.143 323.023 161.671 325.054 161.671C325.977 161.671 326.835 161.564 327.677 161.348C330.538 160.743 333.133 158.475 334.142 155.683C334.976 153.386 334.604 151.016 333.104 149.148C330.432 145.924 325.622 145.335 321.376 144.816C320.579 144.718 319.774 144.62 319.006 144.506C320.015 144.072 321.086 143.664 322.214 143.235C327.522 141.207 333.533 138.911 336.124 132.989L336.161 132.903L336.189 132.817C337.166 129.891 336.921 127.193 335.499 125.219C334.167 123.368 331.899 122.309 329.279 122.309C327.547 122.309 325.724 122.767 323.995 123.642C323.399 123.838 322.41 124.341 319.725 125.734C318.319 126.466 316.043 127.647 313.845 128.71C314.633 128.142 315.475 127.578 316.333 126.997C320.8 123.993 325.863 120.589 325.99 114.745V114.663V114.581C325.589 107.776 322.361 106.35 319.721 106.35C315.258 106.35 309.472 110.833 303.873 115.17C300.894 117.479 298.083 119.657 296.064 120.658L295.95 120.716L295.844 120.785C294.703 121.541 293.502 121.958 292.464 121.958C291.929 121.958 291.197 121.848 290.752 121.316C290.331 120.818 290.204 119.959 290.392 118.86C290.625 117.356 291.504 115.529 292.358 113.76C293.522 111.34 294.728 108.843 294.781 106.354V106.252L294.777 106.15C294.311 100.13 290.883 99.4799 289.428 99.4799C286.461 99.4799 282.93 102.128 280.417 106.231C277.418 110.278 275.305 114.81 273.262 119.195C271.758 122.428 270.332 125.481 268.583 128.35C265.869 131.558 262.817 134.848 258.898 137.247L258.824 137.292L258.755 137.345C257.341 138.387 255.788 138.588 253.414 138.588C253.156 138.588 252.085 138.58 251.812 138.58C251.011 138.58 250.063 138.596 249.082 138.702L248.967 138.714L245.196 139.56C234.06 142.053 222.54 144.632 211.392 147.975C210.865 148.122 210.526 148.163 210.326 148.167C210.228 147.264 210.841 145.045 211.184 143.799C211.678 142.013 212.14 140.325 212.05 138.976C211.731 130.144 213.215 128.137 214.649 126.2C215.818 124.627 217.138 122.841 217.391 118.648L217.403 118.472L217.383 118.296C217.064 115.484 216.133 113.036 215.234 110.67C214.596 108.99 213.991 107.409 213.591 105.696L213.554 105.541L213.493 105.394C212.038 101.809 211.891 99.4226 213.006 97.4159L213.092 97.2647L213.149 97.1013C215.92 89.2503 215.176 80.1977 210.935 70.2052C206.889 60.6744 200.661 52.5823 196.17 47.5023C191.904 42.4876 186.003 40.0313 180.298 37.6568C178.316 36.8313 176.44 36.0507 174.626 35.1679L174.573 35.1434L174.52 35.1189C171.418 33.8233 168.28 32.4092 165.243 31.0401C158.746 28.1057 152.024 25.0773 145.032 22.948L144.897 22.9071L144.758 22.8867C132.503 20.9617 118.102 19 104.036 19C97.1095 19 90.8122 19.4536 84.7887 20.3814L84.6253 20.4059L84.4659 20.459C74.1026 23.8512 64.1887 29.0784 55.7951 35.5766L55.7256 35.6338L55.6602 35.6951C36.6744 53.2689 26.1967 68.0963 21.6811 83.7656C16.9449 100.211 18.4364 118.19 26.5318 142.037C26.8873 145.466 26.3029 149.112 25.6899 152.97C24.6969 159.206 23.6712 165.651 26.5931 171.802C29.1594 178.938 35.5629 183.066 40.4912 185.273L40.5525 185.301L40.6179 185.326C42.9717 186.196 45.4522 186.478 47.8469 186.752C49.3262 186.92 50.7279 187.079 52.0601 187.365L52.15 187.386L52.2399 187.398C53.6334 187.57 55.174 188.154 56.8086 188.771C58.529 189.421 60.3025 190.091 62.1128 190.357C64.0907 191.775 65.2839 195.057 64.8712 198.077C63.208 205.85 62.1169 213.828 61.0626 221.544L60.7561 223.768C54.6427 246.507 59.1705 268.319 74.2211 288.594C75.7086 291.28 76.7588 294.398 77.4412 298.117C78.3443 303.087 78.422 308.289 78.4996 313.32C78.5405 316.01 78.5814 318.793 78.7489 321.543C79.4027 341.369 82.0671 360.296 87.3836 382.921C87.6452 383.987 87.8945 385.16 88.1601 386.403C89.4228 392.362 90.8572 399.113 95.2665 402.73L95.6343 403.033C95.6343 403.033 96.8193 403.306 97.1585 403.384C100.599 404.165 102.173 404.524 104.849 407.201L104.911 407.258L104.976 407.312C106.656 408.738 108.339 410.324 109.271 412.273C111.396 417.929 114.559 423.79 117.615 429.455C122.552 438.601 127.656 448.054 128.543 456.849C128.559 459.355 126.573 461.19 124.276 463.307C123.271 464.234 122.229 465.195 121.351 466.249C117.264 470.03 112.998 473.88 108.87 477.603C98.0249 487.391 86.8075 497.51 76.7179 508.23C72.1247 512.934 65.5577 515.783 59.2032 518.537C51.1447 522.032 42.8123 525.645 38.1292 533.148C37.1076 534.808 35.8898 535.948 34.3451 537.391L34.2675 537.464L34.2225 537.509C29.4168 542.581 26.0577 547.596 24.2433 552.422L24.1902 552.569L24.1575 552.721C23.1808 557.355 26.7075 561.802 28.4279 563.951C28.7998 564.45 29.3964 565.374 30.0257 566.35C32.8822 570.777 34.4677 573.016 36.0778 573.637C36.1595 574.152 36.2249 574.643 36.2617 575.092V575.158L36.278 575.223C36.3352 575.607 36.3189 575.673 36.2167 576.036C36.0819 576.523 35.898 577.189 35.8939 578.366V578.456L35.9021 578.546C36.5314 585.964 41.0592 593.447 48.6519 599.61L48.7296 599.671C50.4091 600.901 52.0355 602.238 53.7641 603.656C59.9633 608.744 66.3709 614.004 74.973 614.004C75.6023 614.004 76.2398 613.975 76.8732 613.918H76.8895C84.1962 613.918 88.442 606.946 89.9786 600.423L89.9949 600.346L90.0072 600.268C90.5874 596.569 88.7608 593.659 87.1507 591.089C86.8279 590.574 86.5214 590.083 86.2149 589.56L85.5325 588.44C81.589 581.971 77.5352 575.325 78.2463 568.872C79.5989 568.545 80.878 567.09 83.2726 564.082C83.6731 563.58 84.2044 562.913 84.47 562.615L84.6253 562.501C87.2978 560.498 89.2348 557.976 91.1105 555.541C92.2547 554.057 93.3336 552.651 94.5595 551.368C110.411 539.279 125.985 526.335 141.047 513.813C148.983 507.217 157.193 500.396 165.346 493.779C184.099 480.288 179.489 457.994 175.419 438.319C174.646 434.592 173.919 431.069 173.327 427.583C173.216 426.275 172.959 424.661 172.689 422.956C171.835 417.562 170.564 409.519 173.555 407.402C174.745 407.577 176.056 408.832 177.327 410.046C178.14 410.822 178.982 411.627 179.889 412.249C181.079 413.176 182.325 414.104 183.535 415.007C189.006 419.086 194.662 423.304 197.42 429.099C199.129 434.723 198.422 441.67 197.739 448.393C197.539 450.384 197.347 452.268 197.216 454.111C196.934 456.759 196.91 459.216 196.881 461.586C196.852 464.194 196.828 466.654 196.485 469.278C195.904 473.401 195.667 477.635 195.443 481.731C194.899 491.535 194.384 500.796 189.407 507.67C188.067 509.113 186.808 510.29 185.688 511.328C181.299 515.419 178.398 518.125 179.514 527.888C179.505 530.177 179.338 532.605 179.158 535.171C178.512 544.412 177.781 554.883 184.985 561.814L185.194 562.014L185.447 562.149C191.565 565.39 220.775 571.995 240.206 571.995C251.37 571.995 258.007 569.959 260.499 565.77L260.581 565.635L260.638 565.488C263.364 558.724 262.547 553.338 258.146 549.03C254.505 545.466 248.8 543.141 243.283 540.889C236.708 538.208 229.916 535.437 227.007 530.782C223.468 510.654 229.867 489.917 236.058 469.854C242.568 448.761 249.298 426.949 244.881 405.297L244.811 404.949L244.628 404.647C242.687 401.443 240.39 398.459 238.175 395.574C235.752 392.419 233.243 389.157 231.212 385.614C230.431 384.286 229.659 382.913 228.846 381.458C226.537 377.338 224.154 373.079 221.298 369.524C214.433 356.004 204.854 342.767 192.819 330.163L192.774 330.114C190.87 328.16 189.227 326.472 188.165 324.249C185.59 318.38 183.8 310.21 185.341 307.852C185.5 307.607 185.713 307.37 186.399 307.37C186.505 307.37 186.62 307.374 186.734 307.386C193.363 309.152 200.15 310.848 206.717 312.491C223.423 316.668 240.692 320.987 256.871 326.811L257.283 326.963L257.721 326.93C262.465 326.554 264.431 323.268 266.008 320.628C267.749 317.718 269.126 315.417 273.711 315.417C274.026 315.417 274.361 315.429 274.7 315.45L274.843 315.458L274.986 315.446C275.91 315.38 276.809 315.343 277.659 315.343C284.021 315.343 288.557 317.211 291.528 321.057L291.561 321.098L291.598 321.139C294.998 325.091 298.749 328.932 302.378 332.652C306.562 336.935 310.89 341.369 314.576 345.881L314.678 346.008L314.797 346.114C315.63 346.858 316.578 348.905 317.416 350.716C319.12 354.398 321.049 358.571 324.731 358.571C326.284 358.571 327.792 357.807 329.332 356.245C330.897 354.68 330.881 352.342 330.869 350.466C330.869 350.25 330.869 349.996 330.869 349.747C330.951 349.772 331.028 349.792 331.102 349.817C332.111 350.115 333.37 350.487 334.649 350.487C334.825 350.487 335 350.479 335.147 350.466C338.094 350.254 340.378 348.615 341.424 345.963C342.622 342.918 341.902 339.203 339.634 336.649V336.644Z" fill="#0A0A0A"/>
<path d="M174.875 86.1241C191.311 77.3903 194.417 88.6416 206.027 98.1642C219.475 118.235 190.653 110.781 179.959 113.887C174.418 114.426 154.721 112.293 161.737 122.616C173.94 127.615 160.851 128.98 165.763 145.515C166.604 149.369 167.074 153.501 168.799 157.061C171.361 161.761 175.48 163.101 179.963 165.223C185.296 168.472 189.848 168.067 193.404 162.644C199.035 154.274 202.61 144.228 203.076 134.146C203.105 130.778 199.182 127.136 200.289 124.194C215.131 115.346 204.474 155.169 202.639 160.968C198.83 170.335 195.067 179.952 190.012 188.726C185.652 193.32 180.033 196.68 175.264 200.861C154.533 218.958 119.201 214.891 95.1236 205.74C79.7379 201.232 70.0652 186.25 54.5733 182.882C42.7838 182.277 33.6873 178.117 29.135 166.412C26.8996 154.131 33.3808 149.619 45.0436 149.557C49.0974 149.778 58.1899 155.087 57.3889 147.134C56.4041 139.144 57.1764 131.011 56.8699 122.968C56.6207 118.206 57.5442 115.436 62.0434 113.163C74.5644 109.317 80.0648 96.9626 85.1893 85.9075C89.1573 77.9052 97.9391 81.9595 104.232 84.2155C113.206 86.0587 120.652 91.6332 129.769 92.6632C145.539 97.3304 159.616 89.0953 174.871 86.1281L174.875 86.1241ZM134.619 124.713C142.294 113.977 103.574 124.173 98.6584 122.547C90.9594 124.357 83.0562 124.186 75.2019 125.019C68.9741 125.113 68.259 128.326 69.4645 133.794C70.6659 142.793 80.5389 130.708 82.6475 137.064C82.5658 139.487 80.6656 141.494 79.4641 143.468C78.3403 147.686 66.7225 154.58 72.3945 158.132C75.2101 159.068 78.4466 158.549 79.7706 161.622C82.1449 166.604 85.0749 171.819 89.8561 174.757C96.1043 179.081 95.5935 180.467 103.681 178.942C108.217 178.268 113.795 179.282 116.949 175.199C121.923 167.838 127.104 160.216 126.41 150.857C125.964 143.243 119.736 140.407 115.413 135.061C110.579 131.301 110.779 127.762 117.411 127.488C123.218 126.634 128.776 125.081 134.615 124.717L134.619 124.713ZM159.036 197.468C176.159 181.113 169.988 178.995 149.936 183.099C137.803 186.34 123.279 184.999 112.356 190.933C109.986 195.515 117.088 197.734 119.573 200.452C124.779 204.228 129.421 212.047 136.732 210.53C144.672 207.306 152.15 202.516 159.036 197.468ZM152.044 157.085C152.416 160.216 152.808 167.503 156.351 167.85C156.973 165.844 154.884 162.754 154.672 160.551C154.684 157.866 153.07 149.422 152.044 157.081V157.085ZM153.838 134.325C153.528 135.6 154.349 139.749 155.371 136.516C156.253 133.434 154.051 127.447 153.838 134.325ZM152.616 141.163C152.469 143.419 154.664 142.744 154.239 140.717C154.263 138.608 152.24 139.438 152.616 141.163Z" fill="#3E46FF"/>
<path d="M269.596 298.076C269.939 296.012 268.349 295.121 266.592 294.9C238.604 289.203 211.539 279.313 184.789 269.434C169.223 262.478 153.274 256.319 138.043 248.534C131.35 245.583 124.648 243.029 117.758 240.711C115.858 239.702 107.244 237.985 107.333 236.232C108.396 233.404 122.658 238.607 125.179 239.457C140.593 244.635 154.827 252.784 169.902 258.772C174.679 260.145 171.254 251.256 171.532 248.836C170.739 244.794 171.123 252.515 167.225 250.271C154.827 245.24 141.885 241.104 129.004 237.426C122.045 236.265 121.939 233.191 120.108 227.278C119.56 225.933 118.722 226.542 118.338 227.748C117.231 244.753 94.3139 224.94 88.0411 220.399C70.1423 204.53 71.638 194.19 68.4382 217.833C63.4609 247.725 60.9927 248.889 75.3035 277.048C79.2388 284.25 84.3755 290.613 89.218 297.205C90.5216 298.68 91.862 303.049 88.4947 302.032C86.9786 301.529 84.49 297.908 84.2489 301.153C84.3469 303.34 84.9967 305.461 85.1479 307.668C85.8017 315.719 86.3044 323.746 86.6722 331.817C88.0166 352.579 91.6658 373.655 97.8569 393.448C100.583 396.816 105.654 395.77 109.185 397.629C112.683 400.012 116.704 401.226 120.615 402.685C129.388 405.17 138.636 406.387 147.769 406.089C152.624 405.55 151.688 397.106 153.327 393.55C154.099 390.596 155.027 387.682 155.922 384.772C163.089 363.295 167.981 341.377 172.28 319.185C173.11 316.904 173.408 312.784 176.436 312.703C178.071 312.805 181.229 316.961 181.793 313.692C181.789 312.752 181.07 310.688 180.829 309.323C180.457 306.94 179.987 304.255 177.306 303.454C171.111 301.701 164.916 300.393 158.664 298.873C138.971 294.716 119.487 288.524 101.028 280.441C99.3975 279.263 86.1164 274.825 91.9355 273.166C97.0968 273.648 101.829 277.02 106.7 278.716C138.677 292.387 173.796 295.873 206.496 306.777C220.729 311.281 235.453 314.46 250.005 317.742C253.589 318.445 257.639 323.615 260.887 319.794C265.19 313.299 267.614 305.538 269.591 298.08L269.596 298.076ZM69.75 216.247C69.607 216.312 69.1738 217.281 69.419 216.758C69.8276 215.924 71.6502 214.996 72.0548 214.33C71.4418 215.115 70.4692 215.63 69.7541 216.243L69.75 216.247ZM97.4932 231.324C99.2667 232.82 101.257 234.324 103.21 235.566C101.245 234.315 99.2708 232.824 97.4932 231.324Z" fill="#3A3A3A"/>
<path d="M120.251 217.355C122.87 223.158 120.758 234.078 129.364 234.618C139.523 237.009 149.33 240.789 159.175 244.243C160.163 244.537 162.787 246.119 163.408 245.428C159.857 239.837 153.449 235.366 148.574 230.752C143.16 225.958 137.917 221.017 132.572 216.259C129.351 215.005 125.747 216.684 122.449 215.65C120.864 215.368 119.201 214.886 120.251 217.359V217.355Z" fill="#3A3A3A"/>
<path d="M81.4614 209.921C88.6127 217.167 96.0706 224.597 105.416 228.962C108.657 230.188 114.456 234.745 115.518 228.929C116.274 226.538 116.589 224.025 117.651 221.777C118.469 219.611 122.024 216.092 118.117 215.111C112.698 213.276 106.65 213.309 101.166 211.653C100.043 211.551 98.9679 213.01 98.0566 212.344C92.8177 208.891 87.7832 204.469 81.9313 202.2C79.9698 201.828 78.6254 204.052 78.8052 205.793C78.9441 207.366 80.2967 208.625 81.4614 209.916V209.921ZM113.25 230.22C112.576 230.617 111.652 230.809 110.884 230.576C111.632 230.805 112.564 230.625 113.25 230.22Z" fill="#3A3A3A"/>
<path d="M157.788 222.652C160.383 227.907 162.921 233.347 165.459 238.66C166.121 240.185 167.621 242.502 168.246 240.046C169.676 231.291 166.386 222.979 164.556 214.568C163.971 210.411 161.417 212.786 158.937 213.583C157.486 214.016 155.623 214.249 154.903 215.079C153.669 217.363 157.147 220.408 157.793 222.648L157.788 222.652Z" fill="#3A3A3A"/>
<path d="M162.023 212.688L162.028 212.684V212.68L162.023 212.688Z" fill="#3A3A3A"/>
<path d="M137.173 217.89C145.395 224.008 153.364 230.727 160.863 237.72C161.349 238.153 162.534 239.171 162.816 238.439C161.447 233.298 157.843 228.598 155.734 223.644C150.454 214.024 151.57 213.345 140.475 216.231C139.225 216.333 134.501 215.565 137.169 217.89H137.173Z" fill="#3A3A3A"/>
<path d="M71.294 202.65C70.9793 202.764 70.8935 203.422 71.0529 203.627C71.2163 203.684 71.7067 203.402 71.7925 203.235C71.9029 202.961 71.6332 202.474 71.2899 202.654L71.294 202.65Z" fill="#3A3A3A"/>
<path d="M196.022 185.992C210.169 183.43 224.157 176.744 238.783 175.759C245.62 174.124 252.571 172.975 259.579 172.64C263.657 172.15 266.775 168.517 267.515 164.658C267.429 162.541 265.304 161.176 264.152 159.562C243.437 135.584 262.121 143.272 228.828 149.202C222.964 150.922 216.83 151.854 210.905 153.211C208.853 153.575 207.427 154.388 206.716 156.481C205.045 162.255 202.156 167.429 199.924 172.996C198.323 176.866 195.037 181.701 196.026 185.988L196.022 185.992ZM202.871 169.734C202.805 170.556 202.789 171.614 202.368 172.358C202.789 171.61 202.801 170.576 202.871 169.734Z" fill="#3A3A3A"/>
<path d="M80.4197 201.257C80.2767 201.555 80.7262 202.283 81.1267 202.046C81.4209 201.743 80.7344 201.036 80.4197 201.257Z" fill="#3A3A3A"/>
<path d="M265.656 305.735C257.614 303.814 252.17 321.67 246.686 308.743C243.728 306.753 244.917 306 245.771 303.438C240.275 299.294 230.034 300.892 223.279 297.594C215.147 296.335 207.497 290.797 199.418 290.531C191.756 296.122 180.285 298.685 191.539 287.041C182.177 279.967 170.776 287.72 160.408 285.394C149.649 281.038 171.278 278.442 168.794 276.342C160.976 273.509 89.5813 264.968 111.182 257.354C93.2673 250.332 91.6041 264.261 84.4486 259.479C81.5186 253.696 71.1512 261.016 69.4512 253.385C59.4434 248.698 65.5405 239.003 66.2025 229.387C66.8481 209.618 76.4841 210.231 87.6524 222.337C96.1646 232.857 106.855 238.803 119.061 242.224C120.974 241.484 121.84 244.047 123.528 243.372C124.758 243.801 124.75 245.015 126.486 244.529C131.133 246.135 134.729 248.763 139.71 250.226C161.569 260.689 184.674 270.857 208.065 278.544C221.918 283.04 235.947 288.459 250.736 291.852C256.008 294.61 262.583 294.173 267.822 296.073C267.883 299.184 267.106 303.07 265.66 305.723L265.656 305.735Z" fill="#565655"/>
<path d="M115.109 223.747C112.718 240.18 82.5353 213.055 78.0156 206.173C79.6993 193.781 106.474 222.255 115.109 223.747Z" fill="#565655"/>
<path d="M121.757 223.767C125.496 222.881 133.306 228.181 133.567 231.81C128.586 233.38 120.768 229.881 121.757 223.767Z" fill="#565655"/>
<path d="M164.684 182.739C161.979 183.385 159.024 183.524 156.217 183.614C150.05 184.1 144.162 186.246 138.016 186.773C133.095 186.949 128.367 187.991 123.623 189.168C121.911 189.875 115.646 190.206 115.609 192.017C115.777 193.173 116.946 193.937 117.763 194.702C120.448 196.986 123.051 199.393 125.842 201.543C129.642 204.42 133.95 211.254 139.254 207.31C146.867 202.97 155.24 199.218 161.235 192.679C163.258 191.33 169.522 183.295 164.688 182.739H164.684Z" fill="#714137"/>
<path d="M183.498 154.784C173.506 153.031 175.889 148.593 173.045 140.909C172.836 140.46 172.387 139.851 171.921 140.21C170.728 141.776 171.467 144.134 171.271 145.993C170.768 151.789 172.526 158.287 178.296 160.78C180.449 161.614 182.852 162.766 185.136 162.799C192.353 161.283 188.802 155.831 183.502 154.784H183.498Z" fill="#545516"/>
<path d="M196.028 135.008C194.005 132.216 193.277 145.119 192.423 146.357C191.5 147.722 192.092 153.644 194.083 150.289C195.01 148.221 195.084 145.916 195.496 143.725C196.212 140.942 197.135 137.803 196.028 135.008Z" fill="#545516"/>
<path d="M111.833 167.874C108.303 161.58 101.556 172.529 93.1008 155.086C91.6706 153.897 88.0458 140.402 87.7148 148.302C88.0745 156.664 91.6338 165.063 98.6053 169.963C100.718 171.442 103.092 172.893 105.52 173.232C109.275 173.682 114.53 172.934 111.833 167.874Z" fill="#545516"/>
<path d="M120.493 149.426C119.198 147.669 118.454 150.987 118.201 151.891C117.347 154.662 116.816 157.702 119.19 159.844C122.61 162.607 121.711 150.681 120.493 149.422V149.426ZM119.574 156.619C119.541 156.672 119.509 156.721 119.468 156.771C119.504 156.726 119.541 156.672 119.574 156.619Z" fill="#545516"/>
<path d="M125.289 196.937C124.815 195.118 126.376 193.455 128.215 193.864C129.751 194.138 131.239 195.633 132.44 195.801C133.613 195.924 133.135 193.639 133.356 192.809C134.112 187.288 139.179 190.091 141.594 192.797C146.285 196.667 152.064 190.933 157.241 191.289C161.013 192.016 152.693 196.819 151.606 197.44C147.519 199.769 143.588 202.409 139.371 204.51C136.069 206.141 133.666 204.907 131.043 202.826C129.024 201.143 125.951 199.549 125.285 196.937H125.289Z" fill="#B2706A"/>
<path d="M30.9859 139.397C25.9554 123.258 21.3663 104.781 24.9501 89.5364C28.6566 73.9652 38.787 56.9022 52.0476 43.8935C66.6895 29.5361 83.3624 21.6279 98.9932 21.6279C101.278 21.6279 103.57 21.7996 105.805 22.1306C111.306 22.9603 117.015 23.0502 122.535 23.1401C130.255 23.2627 138.24 23.3935 145.653 25.5555C150.213 27.6275 155.097 29.5402 159.821 31.3957C178.39 38.6827 197.592 46.2149 205.266 65.6564C205.283 65.6932 205.299 65.73 205.315 65.7668C211.184 77.9418 211.224 83.4877 210.799 87.73C210.783 87.8771 210.791 88.0242 210.816 88.1673C211.045 89.5037 210.534 93.6642 209.827 95.1151C207.551 93.2555 205.487 91.0363 203.309 88.6945C198.638 83.6757 193.812 78.4853 186.669 76.9977C186.648 76.9936 186.624 76.9895 186.603 76.9854C186.089 76.8996 185.565 76.8587 185.055 76.8587C182.353 76.8587 180.171 78.0235 178.063 79.1515C176.293 80.0997 174.618 80.9906 172.624 81.2644C172.579 81.2726 172.534 81.2808 172.489 81.289C169.383 81.9837 166.363 82.9769 163.445 83.9414C158.186 85.6783 153.217 87.3131 147.819 87.3172C147.5 87.3172 147.185 87.3131 146.862 87.3008C146.842 87.3008 146.821 87.3008 146.801 87.3008C146.621 87.3008 146.445 87.3294 146.274 87.3867C144.026 88.1509 141.775 88.5228 139.384 88.5228C134.533 88.5228 129.854 86.978 124.906 85.3391C123.185 84.771 121.403 84.1825 119.597 83.6512C119.577 83.6471 119.556 83.6389 119.536 83.6349C117.043 83.0136 114.17 81.8938 111.126 80.7045C105.621 78.5589 99.3814 76.1272 93.7707 76.1272C90.6363 76.1272 87.8984 76.8955 85.6222 78.4077C85.5323 78.4649 85.4506 78.5344 85.377 78.6079C80.8819 83.0749 77.5555 88.4942 74.3394 93.7337C71.9733 97.5876 69.5296 101.572 66.6772 105.042C62.8932 107.768 59.1745 109.914 55.0022 111.782C46.8006 113.375 45.2804 121.369 44.0545 127.802L44.0259 127.954C44.0177 128.003 44.0095 128.056 44.0054 128.109C43.4537 133.998 40.1478 135.343 34.6678 137.566C34.2673 137.729 33.8587 137.893 33.4419 138.065C33.4051 138.081 33.3683 138.097 33.3315 138.114C32.882 138.338 32.4652 138.588 32.0974 138.808C31.7582 139.013 31.276 139.299 30.99 139.405L30.9859 139.397Z" fill="#C7C7C7"/>
<path d="M95.3563 170.205C93.9915 168.255 91.891 166.24 90.1869 164.05C88.4379 161.777 87.0444 159.239 85.7694 156.665C85.1238 155.434 81.4337 147.232 80.1955 150.354C79.5988 153.044 80.3753 155.806 81.593 158.99C83.1786 162.86 85.7694 166.155 88.7812 168.934C90.1011 170.164 91.6908 171.39 93.3213 172.089C95.7732 173.127 97.5916 173.16 95.4013 170.262L95.3604 170.205H95.3563Z" fill="white"/>
<path d="M179.815 124.124C177.355 127.03 181.658 131.632 184.102 128.002C185.736 125.248 182.385 121.537 179.864 124.071L179.815 124.128V124.124Z" fill="white"/>
<path d="M93.1934 136.217C93.1934 136.217 93.2178 136.197 93.2301 136.188C93.2301 136.18 93.2219 136.176 93.2219 136.168L93.1974 136.217H93.1934Z" fill="white"/>
<path d="M115.662 159.811C113.328 159.873 111.857 163.808 114.248 164.916C115.515 165.5 117.321 164.254 117.648 162.791C118.073 161.462 117.239 159.77 115.735 159.811H115.662Z" fill="white"/>
<path d="M99.9826 134.546C98.0006 132.711 94.5353 133.749 93.8406 136.344C93.1868 138.355 94.7437 140.525 96.791 140.86C100.24 141.563 102.688 136.99 100.04 134.599L99.9826 134.546Z" fill="white"/>
<path d="M190.584 148.695C189.522 149.316 189.403 151.155 190.286 152.001C190.891 152.626 191.814 152.516 192.333 151.788C193.322 150.611 192.382 147.947 190.65 148.658L190.588 148.691L190.584 148.695Z" fill="white"/>
<path d="M201.287 139.643C200.424 138.743 198.99 141.551 198.569 142.27C197.127 145.037 196.06 148.961 196.575 151.433C197.625 153.567 200.257 147.841 200.592 146.692C201.291 144.694 202.038 141.126 201.307 139.667L201.287 139.643Z" fill="white"/>
</g>
<defs>
<clipPath id="clip0_921_3452">
<rect width="250" height="250" rx="125" fill="white"/>
</clipPath>
</defs>
</svg>
