<svg width="250" height="250" viewBox="0 0 250 250" fill="none" xmlns="http://www.w3.org/2000/svg">
<g clip-path="url(#clip0_242_93679)">
<path d="M125.05 249.9C194.058 249.9 250 193.958 250 124.95C250 55.942 194.058 0 125.05 0C56.0416 0 0.0996094 55.942 0.0996094 124.95C0.0996094 193.958 56.0416 249.9 125.05 249.9Z" fill="#3B3B46"/>
<path d="M125.039 116.672L116.73 124.981L125.039 133.29L133.348 124.981L125.039 116.672Z" fill="#FFBE12"/>
<path d="M111.646 130.014L69.6797 171.98L77.9881 180.289L119.954 138.323L111.646 130.014Z" fill="#FFBE12"/>
<path d="M172.009 69.6908L130.043 111.657L138.351 119.966L180.318 77.9993L172.009 69.6908Z" fill="#FFBE12"/>
<path d="M119.966 111.629L78 69.6631L69.6916 77.9715L111.658 119.938L119.966 111.629Z" fill="#FFBE12"/>
<path d="M180.33 171.953L138.363 129.986L130.055 138.295L172.021 180.261L180.33 171.953Z" fill="#FFBE12"/>
</g>
<defs>
<clipPath id="clip0_242_93679">
<rect width="250" height="250" rx="125" fill="white"/>
</clipPath>
</defs>
</svg>
