<svg width="250" height="250" viewBox="0 0 250 250" fill="none" xmlns="http://www.w3.org/2000/svg">
<path fill-rule="evenodd" clip-rule="evenodd" d="M185.064 174.561C185.064 181.386 179.639 186.951 173.024 186.951C169.699 186.951 166.689 185.551 164.484 183.311C162.314 181.071 160.949 177.956 160.949 174.561V149.781C160.949 120.451 140.999 95.7765 114.294 89.4065C116.884 80.6215 122.624 73.1665 130.079 68.4765C135.574 65.0115 142.014 63.0515 148.874 63.0515C168.824 63.0515 185.029 79.7115 185.029 100.221V174.561H185.064ZM148.874 38.2715C129.204 38.2715 111.704 48.0365 100.679 63.0515H100.644C95.1842 70.5415 91.3342 79.3265 89.6192 88.8815C61.6542 94.2015 40.4092 119.506 40.4092 149.781V174.561C40.4092 178.341 40.9342 181.946 41.9492 185.376C46.4642 200.636 60.2892 211.731 76.5642 211.731C96.5142 211.731 112.719 195.071 112.719 174.561V149.781C112.719 142.956 107.294 137.391 100.679 137.391C94.0292 137.391 88.6392 142.956 88.6392 149.781V174.561C88.6392 181.386 83.2142 186.951 76.5992 186.951C73.2742 186.951 70.2642 185.551 68.0592 183.311C65.8892 181.071 64.5242 177.956 64.5242 174.561V149.781C64.5242 133.611 74.6042 119.856 88.6392 114.746C92.4192 113.381 96.4792 112.611 100.679 112.611C104.914 112.611 108.974 113.381 112.719 114.746C126.754 119.856 136.834 133.646 136.834 149.781V174.561C136.834 178.341 137.359 181.946 138.374 185.376C142.889 200.636 156.714 211.731 172.989 211.731C192.939 211.731 209.144 195.071 209.144 174.561V100.221C209.144 66.0615 182.124 38.2715 148.874 38.2715Z" fill="#2BD0F4"/>
</svg>
