<svg width="250" height="250" viewBox="0 0 250 250" fill="none" xmlns="http://www.w3.org/2000/svg">
<path d="M204.378 106.803L166.753 69.8082C157.688 60.8832 143.163 60.7082 133.888 69.4232L123.178 79.5032L115.233 71.3832C106.238 62.1782 91.5032 61.9332 82.1932 70.8232L45.3032 106.033C35.6782 115.238 35.3282 130.498 44.5682 140.123L82.7182 179.813C91.7132 189.158 106.588 189.438 115.933 180.478L126.293 170.503L135.078 179.078C144.038 187.828 158.353 187.898 167.383 179.253L204.133 144.078C214.703 133.928 214.843 117.058 204.378 106.803ZM109.913 173.968C104.348 179.463 95.4232 179.463 89.8582 173.968L51.6382 136.413C45.0232 129.903 45.0582 119.263 51.7082 112.823L88.3182 77.2982C93.8482 71.9432 102.598 71.8382 108.233 77.0882L111.033 79.6782L86.6382 103.338C82.7882 107.083 82.7532 113.278 86.5682 117.058L113.763 143.973C117.228 147.403 122.758 147.403 126.223 143.973L152.893 117.653C152.893 117.653 155.833 121.468 155.623 125.633C155.413 129.798 151.983 132.423 151.983 132.423L109.913 173.968ZM198.603 136.413L161.398 172.568C155.868 177.923 147.118 177.993 141.518 172.708L139.243 170.573L169.098 142.223C173.648 137.918 173.718 130.673 169.308 126.263L142.743 99.8032C139.173 96.2332 133.398 96.2682 129.863 99.8382L103.893 126.053C103.893 126.053 101.548 122.203 101.758 118.038C101.968 113.908 104.803 111.283 104.803 111.283L139.453 76.3182C145.228 70.5082 154.643 70.5432 160.348 76.4232L198.883 116.008C204.448 121.713 204.308 130.848 198.603 136.413Z" fill="url(#paint0_radial_242_93683)"/>
<defs>
<radialGradient id="paint0_radial_242_93683" cx="0" cy="0" r="1" gradientUnits="userSpaceOnUse" gradientTransform="translate(92.69 73.6798) scale(124.871 124.871)">
<stop stop-color="#8E388E"/>
<stop offset="1" stop-color="#1D4C8B"/>
</radialGradient>
</defs>
</svg>
