<svg width="250" height="250" viewBox="0 0 250 250" fill="none" xmlns="http://www.w3.org/2000/svg">
<path d="M169.252 71.0248L155.322 77.6398C155.252 77.6748 155.182 77.7098 155.147 77.7798C155.077 77.8498 155.042 77.9198 155.042 77.9898C155.007 78.0598 155.007 78.1298 155.007 78.2348C155.007 78.3048 155.042 78.3748 155.077 78.4448L176.287 123.14C184.162 139.765 182.062 152.4 170.092 158.105C160.397 162.69 152.032 159.505 145.487 148.27L120.392 95.3148C110.137 73.8598 96.2774 68.1898 79.7924 75.9948C69.0824 81.0698 62.8874 90.1348 62.9924 101.685C62.9924 101.825 62.9574 101.965 62.8524 102.07C62.7824 102.175 62.6424 102.245 62.5024 102.28C62.3624 102.315 62.2224 102.28 62.1174 102.245C61.9774 102.175 61.9074 102.07 61.8374 101.965L56.3424 90.4148C56.3074 90.3448 56.2724 90.2748 56.2024 90.2398C56.1324 90.1698 56.0624 90.1348 55.9924 90.1348C55.9224 90.0998 55.8524 90.0998 55.7474 90.0998C55.6774 90.0998 55.6074 90.1348 55.5374 90.1698L41.6774 96.6798C41.5374 96.7498 41.4324 96.8548 41.3624 97.0298C41.2924 97.1698 41.3274 97.3448 41.3974 97.4848L79.8974 178.685C79.9674 178.825 80.0724 178.93 80.2474 179C80.3874 179.07 80.5624 179.035 80.7024 178.965L94.6324 172.35C94.7024 172.315 94.7724 172.28 94.8074 172.21C94.8774 172.14 94.9124 172.07 94.9124 172C94.9474 171.93 94.9474 171.86 94.9474 171.755C94.9474 171.685 94.9124 171.615 94.8774 171.545L74.2624 128.075C65.8624 110.365 67.4724 97.5548 80.3174 91.4648C90.1874 86.7748 97.8874 89.9248 104.782 101.93C104.782 101.93 104.782 101.965 104.817 101.965L129.667 154.395C139.257 174.625 154.167 181.555 169.882 174.1C182.062 168.325 187.102 159.645 186.787 148.235C186.787 148.095 186.822 147.955 186.927 147.85C186.997 147.745 187.137 147.675 187.277 147.64C187.417 147.605 187.557 147.64 187.662 147.675C187.802 147.745 187.872 147.85 187.942 147.955L193.472 159.645C193.507 159.715 193.542 159.785 193.612 159.82C193.682 159.89 193.752 159.925 193.822 159.925C193.892 159.96 193.962 159.96 194.067 159.96C194.137 159.96 194.207 159.925 194.277 159.89L208.207 153.275C208.277 153.24 208.347 153.205 208.382 153.135C208.452 153.065 208.487 152.995 208.487 152.925C208.522 152.855 208.522 152.785 208.522 152.68C208.522 152.61 208.487 152.54 208.452 152.47L169.952 71.2698C169.882 71.1298 169.777 71.0248 169.602 70.9548C169.427 70.8848 169.392 70.9548 169.252 71.0248Z" fill="#1E65F3"/>
</svg>
