<svg width="250" height="250" viewBox="0 0 250 250" fill="none" xmlns="http://www.w3.org/2000/svg">
<g clip-path="url(#clip0_242_94688)">
<path d="M125 249.998C194.036 249.998 250 194.034 250 124.998C250 55.9625 194.036 -0.00195312 125 -0.00195312C55.9644 -0.00195312 0 55.9625 0 124.998C0 194.034 55.9644 249.998 125 249.998Z" fill="#EDF0F4"/>
<path d="M83.302 152.735L112.982 169.927V184.185L72.5575 160.782V93.6248L80.568 88.9908L77.6245 83.8813L66.666 90.2233V164.187L118.859 194.407V166.522L86.247 147.625L83.302 152.735Z" fill="url(#paint0_linear_242_94688)"/>
<path d="M125.008 63.3796L158.892 83.8786L161.842 78.5331L125.008 56.2471L88.1572 78.5256L91.1067 83.8711L125.008 63.3796Z" fill="url(#paint1_linear_242_94688)"/>
<path d="M125.008 84.8682L158.892 105.372L161.842 100.025L125.008 77.7402L88.1572 100.018L91.1067 105.364L125.008 84.8682Z" fill="url(#paint2_linear_242_94688)"/>
<path d="M172.386 83.8813L169.442 88.9908L177.453 93.6248V160.784L137.024 184.185V169.926L167.028 152.553L164.084 147.443L131.14 166.522V194.407L183.333 164.186V90.2203L172.386 83.8813Z" fill="url(#paint3_linear_242_94688)"/>
<path fill-rule="evenodd" clip-rule="evenodd" d="M141.509 136.667C142.338 133.506 141.787 130.143 139.991 127.406C139.954 127.349 139.918 127.292 139.882 127.236L139.881 127.235C139.856 127.195 139.83 127.155 139.804 127.115L138.874 125.976C138.741 125.837 138.621 125.685 138.515 125.525C138.476 125.46 138.47 125.381 138.499 125.311C138.645 125.037 138.805 124.771 138.969 124.509C139.613 123.486 140.063 122.354 140.297 121.17C140.583 119.762 140.619 118.314 140.402 116.893C139.716 112.293 136.116 108.662 131.499 107.913C131.463 107.907 131.429 107.901 131.396 107.896C130.982 107.825 130.768 107.789 130.658 107.662C130.54 107.527 130.539 107.29 130.538 106.799C130.538 106.777 130.538 106.755 130.538 106.732V104.521C130.537 104.366 130.517 104.212 130.479 104.062C130.453 103.99 130.396 103.934 130.323 103.907C130.173 103.862 130.018 103.838 129.862 103.835H124.011C123.855 103.829 123.699 103.849 123.55 103.893C123.445 103.933 123.363 104.015 123.322 104.119C123.282 104.31 123.265 104.505 123.272 104.7C123.272 105.436 123.272 106.171 123.263 106.907C123.268 107.103 123.248 107.298 123.202 107.488C123.177 107.579 123.063 107.662 122.971 107.723C122.902 107.76 122.824 107.777 122.746 107.772C122.565 107.772 122.384 107.774 122.203 107.775C121.839 107.777 121.474 107.78 121.109 107.772C120.795 107.772 120.63 107.587 120.627 107.244C120.62 106.832 120.618 106.422 120.617 106.012C120.615 105.725 120.614 105.438 120.611 105.15C120.611 104.901 120.599 104.652 120.586 104.401C120.583 104.341 120.58 104.281 120.577 104.221C120.555 104.022 120.389 103.869 120.188 103.861L120.136 103.857C119.997 103.846 119.86 103.836 119.72 103.836H114.103C113.982 103.836 113.863 103.846 113.742 103.855C113.707 103.858 113.671 103.861 113.636 103.864C113.434 103.887 113.283 104.058 113.285 104.26C113.276 104.806 113.271 105.356 113.266 105.905L113.264 106.235C113.264 106.623 113.255 107.01 113.239 107.396C113.213 107.595 113.047 107.745 112.846 107.753C112.536 107.769 112.222 107.781 111.911 107.781H109.103C108.87 107.778 108.637 107.799 108.409 107.845C108.301 107.88 108.211 107.957 108.161 108.058C108.121 108.168 108.107 108.285 108.118 108.401V114.447C108.116 114.564 108.133 114.681 108.168 114.793C108.196 114.866 108.252 114.924 108.324 114.955C108.473 114.995 108.627 115.016 108.781 115.019C109.113 115.024 109.445 115.024 109.777 115.024C110.109 115.024 110.44 115.024 110.772 115.028C110.968 115.024 111.165 115.043 111.356 115.086C111.46 115.129 111.538 115.218 111.565 115.327C111.602 115.634 111.62 115.943 111.62 116.252V121.601V131.137V132.185L111.596 133.682C111.599 133.735 111.603 133.788 111.606 133.842C111.616 133.982 111.626 134.123 111.626 134.262V136.937C111.626 137.093 111.626 137.249 111.615 137.402C111.623 137.518 111.583 137.633 111.503 137.718C111.423 137.804 111.311 137.853 111.194 137.853C110.858 137.86 110.522 137.863 110.187 137.866H110.186C109.976 137.867 109.766 137.869 109.557 137.872C109.206 137.872 108.853 137.881 108.502 137.897C108.3 137.909 108.142 138.074 108.14 138.275L108.137 138.345C108.129 138.515 108.121 138.686 108.121 138.856V144.09C108.121 144.303 108.135 144.516 108.148 144.729L108.152 144.787C108.194 144.936 108.318 145.049 108.472 145.077L108.517 145.081C108.733 145.098 108.951 145.116 109.17 145.119H111.861C112.175 145.119 112.485 145.119 112.796 145.141C112.914 145.131 113.031 145.171 113.118 145.251C113.205 145.331 113.254 145.444 113.253 145.562C113.259 145.807 113.262 146.052 113.264 146.296C113.266 146.517 113.267 146.737 113.272 146.956C113.272 147.24 113.285 147.524 113.297 147.807C113.3 147.871 113.303 147.936 113.306 148C113.333 148.154 113.459 148.273 113.615 148.29C113.81 148.309 114.005 148.327 114.2 148.327H119.7C119.877 148.327 120.053 148.311 120.232 148.295L120.284 148.29C120.437 148.254 120.552 148.129 120.576 147.975C120.595 147.782 120.61 147.591 120.613 147.395V145.884C120.609 145.729 120.628 145.575 120.668 145.425C120.714 145.334 120.788 145.26 120.88 145.215C120.987 145.168 121.104 145.147 121.222 145.151C121.611 145.142 122.001 145.142 122.39 145.142C123.205 145.142 123.253 145.287 123.256 146.013V147.64C123.265 148.276 123.336 148.337 124.024 148.351H124.258H129.524C129.678 148.351 129.834 148.351 129.992 148.34C130.354 148.324 130.504 148.195 130.514 147.866C130.518 147.652 130.519 147.437 130.519 147.222C130.519 146.972 130.52 146.721 130.526 146.472C130.526 146.16 130.535 145.852 130.548 145.54C130.571 145.342 130.725 145.185 130.923 145.158L130.952 145.155C131.216 145.125 131.476 145.096 131.738 145.075C136.481 144.666 140.423 141.274 141.509 136.667ZM118.944 116.014C118.944 115.781 118.963 115.549 119 115.32C119.014 115.199 119.107 115.103 119.228 115.085C119.421 115.057 119.616 115.041 119.812 115.035H129.632C130.62 114.997 131.577 115.382 132.261 116.092C132.822 116.644 133.152 117.388 133.182 118.172C133.194 118.557 133.194 118.944 133.182 119.333C133.063 120.853 131.911 122.094 130.396 122.335C130.121 122.37 129.845 122.38 129.568 122.39C129.455 122.394 129.341 122.398 129.227 122.404H128.994H124.656H119.863C119.631 122.4 119.4 122.376 119.172 122.332C119.098 122.307 119.04 122.248 119.016 122.174C118.973 121.983 118.95 121.788 118.949 121.593C118.943 120.922 118.945 120.252 118.947 119.581C118.948 119.245 118.949 118.909 118.949 118.573C118.941 117.718 118.938 116.866 118.944 116.014ZM129.128 137.88C129.714 137.88 130.297 137.881 130.884 137.871C132.489 137.799 133.876 136.731 134.345 135.203C134.53 134.569 134.585 133.905 134.507 133.25C134.433 131.733 133.441 130.413 132 129.911C131.485 129.73 130.939 129.651 130.393 129.679H119.98C119.77 129.679 119.559 129.69 119.349 129.7C119.326 129.701 119.302 129.703 119.279 129.704C119.128 129.743 119.012 129.861 118.975 130.012C118.972 130.04 118.97 130.068 118.967 130.097C118.954 130.223 118.942 130.349 118.942 130.473V133.612C118.942 133.989 118.941 134.365 118.94 134.74C118.938 135.49 118.936 136.238 118.942 136.987C118.949 137.216 118.98 137.445 119.034 137.668C119.059 137.737 119.116 137.791 119.187 137.813C119.415 137.853 119.646 137.876 119.878 137.88H125.261H128.776C128.894 137.88 129.011 137.88 129.128 137.88Z" fill="url(#paint4_linear_242_94688)"/>
</g>
<defs>
<linearGradient id="paint0_linear_242_94688" x1="1.73492" y1="740.248" x2="487.042" y2="657.843" gradientUnits="userSpaceOnUse">
<stop offset="0.13" stop-color="#13AAE6"/>
<stop offset="1" stop-color="#023B90"/>
</linearGradient>
<linearGradient id="paint1_linear_242_94688" x1="3724.77" y1="1768.15" x2="3738.73" y2="-975.883" gradientUnits="userSpaceOnUse">
<stop offset="0.13" stop-color="#13AAE6"/>
<stop offset="1" stop-color="#023B90"/>
</linearGradient>
<linearGradient id="paint2_linear_242_94688" x1="3732.42" y1="1631.89" x2="3746.37" y2="-1113.57" gradientUnits="userSpaceOnUse">
<stop offset="0.13" stop-color="#13AAE6"/>
<stop offset="1" stop-color="#023B90"/>
</linearGradient>
<linearGradient id="paint3_linear_242_94688" x1="71.0832" y1="759.318" x2="556.13" y2="676.938" gradientUnits="userSpaceOnUse">
<stop offset="0.13" stop-color="#13AAE6"/>
<stop offset="1" stop-color="#023B90"/>
</linearGradient>
<linearGradient id="paint4_linear_242_94688" x1="170.356" y1="393.284" x2="415.848" y2="122.81" gradientUnits="userSpaceOnUse">
<stop offset="0.13" stop-color="#13AAE6"/>
<stop offset="1" stop-color="#023B90"/>
</linearGradient>
<clipPath id="clip0_242_94688">
<rect width="250" height="250" fill="white"/>
</clipPath>
</defs>
</svg>
