<svg width="250" height="250" viewBox="0 0 250 250" fill="none" xmlns="http://www.w3.org/2000/svg">
<g clip-path="url(#clip0_242_94702)">
<path d="M125 249.997C194.036 249.997 250 194.033 250 124.997C250 55.9615 194.036 -0.00292969 125 -0.00292969C55.9644 -0.00292969 0 55.9615 0 124.997C0 194.033 55.9644 249.997 125 249.997Z" fill="#EDF0F4"/>
<path fill-rule="evenodd" clip-rule="evenodd" d="M162.682 142.813C168.174 148.489 174.695 150.725 182.246 150.897C196.661 150.725 208.502 139.028 208.33 124.407C208.33 109.614 196.661 97.917 182.074 97.917C173.493 97.917 166.801 101.53 160.966 107.55C155.475 113.399 147.409 113.399 141.917 108.41C136.598 103.422 136.083 95.853 140.716 89.6605C141.403 88.8865 142.089 88.0695 142.776 87.2525C143.462 86.4355 144.148 85.6185 144.835 84.8445C152.9 75.2115 153.072 61.6225 145.521 51.818C138.142 42.0134 124.585 38.9171 113.087 44.2495C101.933 49.4099 96.2695 61.6225 98.8435 73.8355C100.063 79.7925 103.582 83.9865 107.239 88.344C107.701 88.8935 108.164 89.446 108.625 90.0045C113.43 96.025 113.087 103.766 107.939 108.754C102.619 113.915 94.553 113.915 88.7185 108.582C88.2035 108.152 87.689 107.636 87.174 107.12C86.6595 106.604 86.1445 106.088 85.6295 105.658C77.049 98.433 65.208 97.229 55.255 102.562C46.1596 107.55 40.4965 118.559 41.8694 128.88C43.4139 139.888 51.1365 148.489 61.9475 151.069C72.244 153.477 81.168 150.553 88.3755 142.813C94.21 136.792 101.933 136.104 107.767 141.092C113.945 146.253 114.117 153.993 108.625 160.874C108.042 161.653 107.41 162.408 106.775 163.167C105.729 164.416 104.675 165.675 103.82 167.066C97.814 176.699 97.4705 186.504 103.477 196.136C109.14 205.425 120.123 209.897 131.106 207.833C141.059 206.113 149.125 198.028 151.528 187.88C154.102 177.043 149.125 168.786 142.604 160.874C136.598 153.649 136.941 145.737 142.947 140.576C148.61 135.588 156.333 136.448 162.682 142.813ZM125.099 83.813C133.68 83.641 140.544 76.7605 140.544 68.16C140.544 59.5595 132.993 52.335 124.413 52.507C115.489 52.851 108.453 59.9035 108.797 68.504C108.968 77.2765 116.176 83.985 125.099 83.813ZM68.812 141.264C77.3925 141.264 84.2565 134.384 84.2565 125.783C84.2565 117.011 77.2205 109.958 68.4685 110.13C59.3735 110.302 52.509 117.183 52.6805 125.783C52.6805 134.728 59.7165 141.264 68.812 141.264ZM197.69 125.267C197.347 133.867 190.139 140.404 181.559 140.06C172.463 139.888 165.942 133.007 166.114 124.062C166.285 115.29 173.493 108.753 182.588 108.925C191.169 109.097 198.033 116.494 197.69 125.267ZM125.957 197.684C134.538 197.684 141.402 190.804 141.574 182.375C141.745 173.947 134.71 166.722 126.301 166.55C117.205 166.378 109.826 173.431 109.826 182.203C109.826 190.632 117.205 197.512 125.957 197.684Z" fill="#191F27"/>
<path fill-rule="evenodd" clip-rule="evenodd" d="M110.001 182.201C110.001 190.802 117.208 197.682 126.132 197.682C134.541 197.682 141.577 190.801 141.748 182.373C141.748 173.772 134.884 166.72 126.475 166.548C117.38 166.376 110.001 173.429 110.001 182.201ZM136.429 182.2C136.257 188.048 131.795 192.521 125.961 192.521C120.297 192.693 114.978 187.533 114.978 181.856C115.149 176.696 120.297 171.708 125.789 171.536C131.624 171.364 136.429 176.352 136.429 182.2Z" fill="white"/>
<path fill-rule="evenodd" clip-rule="evenodd" d="M166.116 124.064C165.944 133.009 172.465 139.717 181.561 140.061C190.141 140.405 197.349 133.869 197.692 125.268C198.207 116.667 191.342 109.099 182.59 108.927C173.495 108.755 166.287 115.291 166.116 124.064ZM192.715 124.753C192.544 130.601 187.91 135.073 182.076 134.901C175.898 134.901 171.264 130.257 171.264 124.237C171.264 118.732 176.413 113.744 182.247 113.744C188.082 113.916 192.887 118.904 192.715 124.753Z" fill="white"/>
<path fill-rule="evenodd" clip-rule="evenodd" d="M108.799 68.5027C108.97 77.2757 116.178 83.9842 125.102 83.8122C133.682 83.6402 140.546 76.7597 140.546 68.1587C140.546 59.5582 132.996 52.1617 124.415 52.5057C115.663 52.8497 108.627 59.9022 108.799 68.5027ZM124.93 57.8382C130.765 57.8382 135.398 62.4822 135.398 68.3307C135.398 74.0072 130.765 78.8237 125.102 78.9957C119.61 79.1677 113.947 73.8352 113.947 68.3307C113.947 62.6542 118.924 57.8382 124.93 57.8382Z" fill="white"/>
<path fill-rule="evenodd" clip-rule="evenodd" d="M52.6828 125.954C52.6828 134.727 59.7183 141.264 68.8138 141.264C77.3943 141.264 84.2588 134.383 84.2588 125.954C84.2588 117.01 77.2228 110.129 68.4708 110.301C59.5468 110.473 52.5108 117.354 52.6828 125.954ZM57.6588 125.609C57.6588 119.933 62.8068 115.116 68.6418 115.116C74.6478 115.116 79.2813 119.933 79.1098 125.953C79.1098 131.458 74.6478 136.274 69.3283 136.274C63.4933 136.274 57.6588 130.941 57.6588 125.609Z" fill="white"/>
<path d="M125.96 192.524C120.297 192.524 114.977 187.363 114.977 181.859C114.977 176.527 120.125 171.538 125.788 171.538C131.623 171.366 136.6 176.355 136.428 182.203C136.428 188.223 131.966 192.524 125.96 192.524Z" fill="#378241"/>
<path d="M182.075 134.901C176.069 134.729 171.264 130.257 171.264 124.408C171.264 118.904 176.412 113.916 182.247 113.916C188.082 113.916 192.887 119.076 192.715 124.924C192.543 130.601 187.91 135.073 182.075 134.901Z" fill="#378241"/>
<path d="M135.398 68.3304C135.398 74.1789 130.765 78.8234 125.102 78.9954C119.61 79.1674 113.947 73.8349 113.947 68.3304C113.947 62.6539 118.924 57.8379 124.93 57.8379C130.765 57.8379 135.398 62.4819 135.398 68.3304Z" fill="#378241"/>
<path d="M68.6412 115.119C74.6477 115.119 79.2812 119.763 79.1097 125.956C79.1097 131.632 74.6477 136.276 69.3277 136.276C63.4932 136.276 57.6582 130.944 57.6582 125.612C57.6582 120.107 62.8067 115.119 68.6412 115.119Z" fill="#378241"/>
</g>
<defs>
<clipPath id="clip0_242_94702">
<rect width="250" height="250" fill="white"/>
</clipPath>
</defs>
</svg>
