<svg width="250" height="250" viewBox="0 0 250 250" fill="none" xmlns="http://www.w3.org/2000/svg">
<rect width="250" height="250" rx="125" fill="white"/>
<g clip-path="url(#clip0_242_94426)">
<path d="M205.348 44.6832C161.035 0.256659 88.9979 0.256659 44.6851 44.6832C0.258612 89.1096 0.258612 161.033 44.6851 205.346C89.1116 249.772 161.035 249.772 205.348 205.346C249.774 161.033 249.774 88.996 205.348 44.6832ZM195.576 195.574C156.604 234.547 93.3156 234.547 54.343 195.574C15.3704 156.602 15.3704 93.3136 54.343 54.341C93.3156 15.3684 156.604 15.3684 195.576 54.341C234.549 93.3136 234.662 156.602 195.576 195.574ZM167.17 44.7968C174.101 48.5464 180.578 53.3186 186.373 58.7725V191.257C180.464 196.938 173.761 201.823 166.489 205.687L82.8621 78.5428V205.232C75.9312 201.483 69.4547 196.711 63.6599 191.257V58.6588C69.5681 52.9776 76.272 48.2054 83.5438 44.3424L167.17 171.486V44.7968H167.17Z" fill="#141521"/>
</g>
<defs>
<clipPath id="clip0_242_94426">
<rect width="227.302" height="227.302" fill="white" transform="translate(11.3643 11.3633)"/>
</clipPath>
</defs>
</svg>
