<svg width="250" height="250" viewBox="0 0 250 250" fill="none" xmlns="http://www.w3.org/2000/svg">
<path d="M125.032 247.055C57.0398 247.082 2.42482 191.436 2.97482 123.983C3.51882 57.2305 58.2778 2.20096 126.445 2.94396C192.255 3.66146 247.492 57.1305 247.025 126.124C246.577 192.323 192.808 246.956 125.032 247.055ZM235.996 130.823C236.076 63.158 185.155 13.3495 123.744 13.914C65.3178 14.451 12.9093 62.658 14.0283 126.703C14.5643 157.382 26.0253 183.647 48.1273 204.89C74.0383 229.794 105.481 239.535 140.747 234.974C165.469 231.776 186.963 220.566 204.421 202.456C225.231 180.87 235.633 154.938 235.996 130.823Z" fill="#182227"/>
<path d="M235.995 130.822C235.632 154.937 225.231 180.869 204.42 202.455C186.962 220.565 165.468 231.775 140.746 234.973C105.48 239.534 74.0374 229.793 48.1264 204.889C26.0249 183.646 14.5634 157.381 14.0274 126.702C12.9084 62.657 65.3169 14.45 123.742 13.913C185.154 13.3485 236.074 63.157 235.995 130.822ZM124.943 20.726C67.1739 20.7215 20.7384 67.5209 20.8344 125.906C20.9279 182.546 68.0174 229.809 126.077 229.246C182.26 228.7 228.671 182.872 229.269 126.174C229.884 67.922 182.557 20.635 124.943 20.726Z" fill="#FBFCFC"/>
<path d="M185.759 164.267C177.334 177.481 165.681 186.746 151.195 192.561C147.233 194.152 143.135 195.224 138.752 196.081C138.752 189.767 138.752 183.517 138.752 177.018C154.768 172.334 166.779 162.489 173.924 147.133C178.99 136.247 180.071 124.785 177.386 113.083C172.945 93.7245 153.472 73.7465 138.801 73.6C138.801 67.1065 138.801 60.602 138.801 53.8965C144.345 54.758 149.646 56.5165 154.744 58.887C182.733 71.9035 198.774 98.618 197.392 129.626C197.282 132.094 197.546 134.897 196.978 137.001C195.851 141.183 194.942 145.51 193.212 149.544C192.617 150.932 188.572 161.146 185.759 164.267Z" fill="#FBFCFC"/>
<path d="M56.606 148.641C50.9775 132.716 51.008 116.716 56.688 100.895C64.092 80.2723 78.228 65.9278 98.4395 57.4838C102.59 55.7503 106.893 54.7933 111.378 53.7773C111.378 60.3443 111.378 66.6288 111.378 72.8738C84.5515 80.7758 72.0385 103.432 71.3045 123.16C70.499 144.82 84.2095 169.441 111.353 177.137C111.353 183.423 111.353 189.715 111.353 196.268C89.7135 191.427 73.1585 179.935 62.095 160.782C60.3985 158.709 57.306 151.506 56.606 148.641Z" fill="#FBFCFC"/>
<path d="M124.944 20.7277C182.559 20.6367 229.885 67.9237 229.271 126.176C228.673 182.874 182.262 228.702 126.079 229.248C68.0191 229.811 20.9296 182.548 20.8361 125.908C20.7391 67.5232 67.1751 20.7237 124.944 20.7277ZM56.6061 148.641C57.7881 152.981 59.7251 156.979 62.0956 160.782C73.1586 179.935 89.7141 191.427 111.354 196.268C111.354 189.715 111.354 183.423 111.354 177.137C84.2101 169.44 70.4996 144.82 71.3051 123.16C72.0391 103.432 84.5521 80.7757 111.379 72.8737C111.379 66.6292 111.379 60.3442 111.379 53.7772C106.893 54.7932 102.59 55.7497 98.4401 57.4837C78.2286 65.9277 64.0926 80.2722 56.6886 100.895C51.0081 116.716 50.9776 132.716 56.6061 148.641ZM185.761 164.268C188.17 161.026 189.729 157.514 191.42 153.705C192.233 151.899 192.619 150.933 193.214 149.545C194.944 145.512 196.353 139.972 196.703 137.325C197.04 135.001 197.284 132.095 197.394 129.627C198.776 98.6187 182.735 71.9042 154.746 58.8877C149.649 56.5172 144.347 54.7587 138.803 53.8972C138.803 60.6022 138.803 67.1072 138.803 73.6007C153.473 73.7472 172.947 93.7247 177.388 113.084C180.073 124.787 178.992 136.248 173.926 147.134C166.781 162.49 154.77 172.335 138.754 177.019C138.754 183.518 138.754 189.768 138.754 196.082C143.137 195.225 147.235 194.153 151.197 192.562C165.683 186.746 177.336 177.482 185.761 164.268Z" fill="#182227"/>
</svg>
