<svg width="250" height="250" viewBox="0 0 250 250" fill="none" xmlns="http://www.w3.org/2000/svg">
<g clip-path="url(#clip0_242_94401)">
<path d="M203.937 70.0302C202.799 67.7623 200.334 66.628 197.874 66.9041C195.063 67.2192 192.25 67.5322 189.435 67.8429C187.812 68.0215 186.185 68.1994 184.564 68.3854C183.156 68.5404 181.569 68.6596 180.551 69.7678C179.079 71.3673 180.482 73.4264 181.678 74.6853C182.872 75.946 184.062 77.2044 185.249 78.4604C185.663 78.8919 186.069 79.3212 186.479 79.7551C186.572 79.8588 185.507 80.8975 185.384 81.0343C183.301 83.3055 181.208 85.5743 179.131 87.8432C179.025 87.9546 178.924 88.065 178.826 88.1742C176.77 85.2995 174.54 82.5533 172.149 79.9509C171.084 78.7987 169.994 77.6721 168.888 76.5557C168.8 76.468 168.294 75.8376 168.185 75.9431C167.885 76.2196 167.591 76.4934 167.296 76.7676C167.027 77.016 166.764 77.2666 166.495 77.5167C166.381 77.6176 167.107 78.318 167.198 78.4212C168.226 79.6509 169.275 80.8655 170.283 82.1161C171.41 83.5114 172.469 84.9712 173.487 86.4465C173.999 87.1827 174.495 87.9235 174.978 88.669C175.234 89.0668 175.49 89.4646 175.738 89.8677C175.864 90.0669 175.988 90.2655 176.107 90.4671C176.34 90.855 176.366 90.855 176.058 91.1857C174.769 92.5915 173.474 94.0005 172.172 95.4128C166.191 84.1781 156.896 74.6487 145.403 69.062C131.827 62.4579 115.998 61.6179 101.715 66.4317C87.443 71.2485 75.3468 81.5168 68.0447 94.6537C60.7566 107.764 58.5023 123.558 61.5873 138.213C61.993 140.136 62.4904 142.037 63.0795 143.918C63.1749 144.224 63.2887 144.298 63.0535 144.549C62.8871 144.72 62.7224 144.895 62.556 145.069C62.2331 145.415 61.9047 145.753 61.5814 146.094C60.9047 146.813 60.2299 147.526 59.5491 148.245C57.3222 150.599 55.0927 152.951 52.8608 155.301C50.4826 157.811 48.1042 160.324 45.7255 162.839C45.6909 162.875 45.4208 163.113 45.4636 163.152C46.0397 163.715 46.6222 164.268 47.2007 164.827C47.3917 165.015 47.5432 165.364 47.7538 165.142C48.0035 164.899 48.2512 164.643 48.4954 164.394C51.5434 161.286 54.5915 158.18 57.6399 155.076C59.9311 152.74 62.2251 150.403 64.522 148.063C68.2474 157.614 74.2774 166.095 82.0747 172.751C93.7918 182.792 109.569 187.8 124.932 186.435C132.522 185.756 139.909 183.616 146.687 180.134C152.366 177.226 157.359 173.397 161.942 168.986C165.978 165.097 169.384 160.394 172.079 155.506C175.71 148.927 178.098 141.734 179.123 134.29C180.417 124.767 179.558 115.075 176.611 105.928C176.397 105.239 176.159 104.562 175.911 103.88C175.798 103.549 175.521 103.187 175.792 102.918C176.118 102.593 176.448 102.267 176.774 101.936C177.962 100.758 179.152 99.5834 180.343 98.412C183.612 105.218 185.575 112.815 186.262 120.313C186.977 128.108 186.281 135.967 184.206 143.515C182.965 148.064 181.288 152.484 179.198 156.711C177.301 160.447 175.187 164.069 172.865 167.558C175.488 169.217 178.111 170.877 180.733 172.54C184.051 166.664 186.96 160.643 189.057 154.21C191.408 146.991 192.829 139.345 192.868 131.738C192.907 123.932 191.777 116.227 189.349 108.8C188.182 105.221 186.732 101.741 185.013 98.3921C184.62 97.6222 184.233 96.8518 183.809 96.1001C183.701 95.9196 183.608 95.7409 183.499 95.5652C183.344 95.2911 183.535 95.2546 183.731 95.0586C184.113 94.6866 184.481 94.3146 184.866 93.9426C186.145 92.6765 187.426 91.4121 188.708 90.1494C190.01 88.852 191.318 87.5565 192.63 86.2629C194.56 88.3018 196.491 90.3396 198.424 92.3765C199.684 93.7098 202.035 95.1337 203.183 92.8726C203.746 91.7666 203.725 90.4751 203.782 89.2607C203.961 85.6949 204.147 82.1263 204.32 78.5581C204.392 77.0725 204.47 75.5921 204.542 74.1087C204.614 72.697 204.598 71.3271 203.937 70.0302ZM68.0437 134.288C64.6661 120.301 67.1561 105.059 74.8378 92.8909C82.4125 80.8881 94.6448 72.2916 108.724 69.9715C123.208 67.5865 138.252 72.2011 149.306 81.754C153.88 85.6922 157.723 90.4059 160.66 95.6787C161.489 97.1849 162.243 98.7293 162.921 100.312C163.272 101.139 163.603 101.969 163.908 102.803C164.047 103.17 164.422 103.769 164.145 104.072C163.775 104.467 163.414 104.865 163.05 105.26C160.546 107.965 158.036 110.671 155.517 113.376C150.277 119.025 145.024 124.666 139.758 130.298C137.063 133.185 134.37 136.071 131.678 138.957C130.73 139.98 129.774 141.004 128.82 142.022C128.154 142.73 126.723 144.239 125.605 143.737C124.154 143.088 123.966 140.461 123.702 139.07C122.982 135.334 122.29 131.598 121.593 127.862C120.185 120.27 118.924 112.645 117.373 105.093C116.7 101.832 114.838 98.3796 111.171 97.9925C108.699 97.7288 106.379 99.0003 104.657 100.68C102.892 102.387 101.246 104.23 99.5547 106.013C96.8357 108.886 94.114 111.759 91.3897 114.633C83.9624 122.468 76.5363 130.307 69.1115 138.152C68.7104 136.875 68.3499 135.587 68.0437 134.288ZM165.925 132.432C166.392 130.254 166.478 129.877 166.405 130.244L166.389 130.321C166.337 130.578 166.239 131.049 166.134 131.546L166.099 131.713C165.835 132.966 165.556 134.255 165.879 132.641C163.143 146.419 154.5 159.178 142.635 166.707C130.248 174.562 114.445 176.371 100.625 171.369C96.6267 169.914 92.8237 167.969 89.303 165.579C87.6059 164.447 85.9945 163.191 84.4819 161.822C84.1877 161.556 83.8967 161.293 83.6006 161.018C83.4496 160.884 83.2983 160.749 83.1444 160.61C83.1108 160.579 82.8703 160.347 83.0049 160.497C79.917 157.37 77.1096 154.116 74.7495 150.393C73.7476 148.808 72.8378 147.168 72.0244 145.478C71.6307 144.672 71.2573 143.854 70.9044 143.024C70.762 142.683 70.354 142.101 70.6296 141.825C70.9926 141.458 71.356 141.089 71.7197 140.709C74.1276 138.264 76.5336 135.815 78.9378 133.36C84.161 128.042 89.3815 122.724 94.5992 117.405C97.3733 114.58 100.145 111.755 102.916 108.929C104.574 107.239 106.183 105.471 107.924 103.872C108.669 103.211 109.909 102.275 110.954 102.689C112.363 103.231 112.641 105.427 112.862 106.701C113.539 110.533 114.199 114.373 114.87 118.208C116.161 125.608 117.455 133.014 118.698 140.425C118.977 142.076 119.228 143.845 120.093 145.305C121.625 147.912 124.12 149.628 127.27 149.096C129.952 148.636 131.911 146.791 133.756 144.943C136.546 142.145 139.334 139.349 142.12 136.556C150.2 128.445 158.294 120.346 166.401 112.26C167.451 118.873 167.307 125.621 165.975 132.184L165.888 132.596L165.925 132.432ZM103.439 80.7987C98.9512 81.827 94.6227 83.7338 90.7407 86.1964C88.9329 87.3624 87.1997 88.6403 85.5514 90.0227C85.4055 90.1419 85.3899 90.2296 85.2709 90.09C85.1118 89.904 84.9479 89.7202 84.7815 89.5369C84.4633 89.1672 84.1417 88.8025 83.8211 88.4415C88.8031 83.7332 94.4339 79.9559 100.924 77.6456C108.207 75.0485 116.057 74.4718 123.642 75.9768C128.53 76.9465 133.2 78.8021 137.421 81.4522C141.266 83.8885 144.542 86.8963 147.545 90.307C145.699 91.7436 143.855 93.1837 142.013 94.6274C140.097 92.1038 137.918 89.792 135.511 87.7312C132.705 85.3514 129.349 83.491 125.927 82.168C118.747 79.3926 110.902 79.0884 103.439 80.7987Z" fill="#1C7EFF"/>
</g>
<defs>
<clipPath id="clip0_242_94401">
<rect width="159.112" height="159.112" fill="white" transform="translate(45.459 45.457)"/>
</clipPath>
</defs>
</svg>
