<svg width="250" height="250" viewBox="0 0 250 250" fill="none" xmlns="http://www.w3.org/2000/svg">
<path d="M156.145 176.196C156.564 176.794 156.928 177.071 156.929 177.351C156.956 181.347 156.983 185.346 156.871 189.339C156.854 189.924 156.192 190.563 155.703 191.053C151.518 195.253 147.368 199.492 143.085 203.59C132.413 213.801 117.723 213.583 107.278 203.146C87.1132 182.998 66.935 162.863 46.7809 142.704C37.6512 133.572 36.3397 120.27 43.7972 110.352C46.1849 107.177 49.1441 104.413 51.9658 101.584C70.2302 83.2742 88.5009 64.9696 106.829 46.7227C115.753 37.8372 127.49 36.0025 137.558 41.907C139.748 43.1912 141.775 44.8757 143.581 46.6733C163.578 66.5852 183.533 86.5394 203.465 106.517C214.329 117.405 214.247 132.169 203.339 143.079C194.449 151.972 185.592 160.897 176.633 169.72C175.073 171.257 174.468 172.816 174.493 174.985C174.6 183.985 174.545 192.988 174.533 201.99C174.529 205.559 172.764 207.601 169.774 207.564C166.902 207.529 165.073 205.478 165.136 202.06C165.314 192.423 165.62 182.789 165.751 173.152C165.767 171.994 165.356 170.473 164.57 169.717C153.192 158.78 141.716 147.945 130.261 137.088C130.16 136.992 130.021 136.937 129.688 136.732C124.875 137.979 120.193 137.482 116.368 133.677C113.697 131.021 112.591 127.733 112.762 123.939C113.084 116.804 119.391 111.635 126.964 112.406C134.859 113.209 138.635 119.89 136.887 130.446C147.618 140.984 158.502 151.673 169.518 162.491C170.239 161.827 188.246 143.924 196.672 135.477C203.049 129.084 203.074 120.559 196.687 114.163C176.443 93.8922 156.186 73.6342 135.914 53.3905C129.482 46.9677 121.019 46.9554 114.599 53.3657C94.3263 73.6083 74.0701 93.8677 53.8247 114.138C47.4246 120.546 47.4228 129.079 53.7967 135.459C74.0463 155.724 94.3039 175.982 114.57 196.232C120.949 202.607 129.517 202.608 135.897 196.253C141.971 190.202 155.327 176.941 156.145 176.196Z" fill="#1CB5E0"/>
</svg>
