<svg width="250" height="250" viewBox="0 0 250 250" fill="none" xmlns="http://www.w3.org/2000/svg">
<rect width="250" height="250" rx="125" fill="white"/>
<g clip-path="url(#clip0_242_94413)">
<path d="M123.274 238.666C110.366 238.666 97.6742 236.439 85.5501 232.046C73.9007 227.826 63.0215 221.703 53.2152 213.848C33.7443 198.252 19.5724 176.469 13.31 152.51C12.8218 150.642 13.227 148.653 14.4072 147.124C15.5876 145.596 17.4096 144.701 19.3406 144.701H51.54C54.1656 144.701 56.5097 146.346 57.4021 148.815C62.2473 162.222 70.9705 173.709 82.6282 182.036C94.534 190.539 108.589 195.033 123.274 195.033C136.712 195.033 149.764 191.218 161.019 184C171.986 176.967 180.763 167.058 186.402 155.346C187.725 152.599 187.751 149.44 186.474 146.681C185.206 143.942 182.804 141.934 179.882 141.173C175.241 139.961 170.322 142.289 168.186 146.704C164.164 155.019 157.918 162.051 150.124 167.04C142.111 172.169 132.827 174.879 123.274 174.879C110.016 174.879 97.5349 169.734 88.13 160.39C78.7297 151.051 73.502 138.613 73.4101 125.367C73.3174 112.023 78.4738 99.4305 87.9289 89.9097C97.381 80.3916 109.935 75.1489 123.274 75.1489H123.274C132.885 75.1489 142.218 77.8908 150.263 83.0779C158.091 88.1249 164.339 95.2299 168.33 103.625C170.581 108.358 175.968 110.605 180.861 108.85C183.574 107.878 185.673 105.876 186.773 103.213C187.878 100.538 187.8 97.6237 186.557 95.0056C180.951 83.2081 172.172 73.2214 161.169 66.1248C149.879 58.8438 136.775 54.9951 123.274 54.9951C108.965 54.9951 95.2071 59.2809 83.4878 67.3888C72.0306 75.3155 63.2715 86.3222 58.1579 99.2189C57.2157 101.595 54.9191 103.155 52.3637 103.155H19.7081C17.7624 103.155 15.9283 102.246 14.7493 100.698C13.5705 99.1505 13.1818 97.1409 13.6991 95.2652C27.3162 45.8651 72.375 11.3633 123.274 11.3633C153.632 11.3633 182.172 23.1853 203.638 44.651C225.103 66.1168 236.925 94.6571 236.925 125.015C236.925 155.372 225.103 183.912 203.638 205.378C182.172 226.844 153.632 238.666 123.274 238.666ZM27.7548 157.167C34.1511 175.448 45.7597 191.903 61.009 204.118C79.0431 218.564 100.574 226.199 123.274 226.199C150.302 226.199 175.711 215.674 194.823 196.563C213.934 177.452 224.459 152.042 224.459 125.014C224.459 97.9869 213.934 72.577 194.823 53.4656C175.711 34.3545 150.302 23.8292 123.274 23.8292C80.7254 23.8292 42.7548 50.9375 28.2399 90.6882H48.2482C54.4222 77.1917 64.0871 65.652 76.3948 57.137C90.208 47.5803 106.419 42.5289 123.274 42.5289C139.177 42.5289 154.617 47.0657 167.925 55.6484C180.879 64.0029 191.215 75.7624 197.817 89.6558C200.551 95.4106 200.725 102.086 198.296 107.971C195.87 113.844 191.049 118.442 185.067 120.586C174.118 124.509 162.084 119.519 157.072 108.978C150.902 96.0009 137.635 87.6155 123.274 87.6153C113.28 87.6153 103.869 91.5497 96.7741 98.6943C89.6773 105.841 85.8065 115.283 85.8761 125.28C86.0184 145.755 102.795 162.413 123.274 162.413C130.44 162.413 137.401 160.383 143.404 156.54C149.256 152.795 153.945 147.516 156.964 141.276C161.683 131.519 172.644 126.403 183.028 129.11C189.569 130.816 194.948 135.311 197.787 141.445C200.635 147.598 200.58 154.636 197.634 160.754C190.994 174.547 180.66 186.214 167.749 194.494C154.482 203.002 139.103 207.5 123.274 207.5C105.976 207.5 89.4152 202.202 75.3827 192.18C62.8651 183.24 53.22 171.199 47.2894 157.167H27.7548V157.167Z" fill="url(#paint0_linear_242_94413)"/>
</g>
<defs>
<linearGradient id="paint0_linear_242_94413" x1="44.2136" y1="45.5303" x2="202.529" y2="203.846" gradientUnits="userSpaceOnUse">
<stop offset="0.294" stop-color="#3E89D4"/>
<stop offset="1" stop-color="#6ECDD6"/>
</linearGradient>
<clipPath id="clip0_242_94413">
<rect width="227.302" height="227.302" fill="white" transform="translate(11.3652 11.3633)"/>
</clipPath>
</defs>
</svg>
