<svg width="250" height="250" viewBox="0 0 250 250" fill="none" xmlns="http://www.w3.org/2000/svg">
<g clip-path="url(#clip0_242_93694)">
<path d="M125 249.998C194.036 249.998 250 194.034 250 124.998C250 55.9625 194.036 -0.00195312 125 -0.00195312C55.9644 -0.00195312 0 55.9625 0 124.998C0 194.034 55.9644 249.998 125 249.998Z" fill="#81949F"/>
<path d="M180.049 123.198C180.049 93.8984 155.399 70.1484 124.999 70.1484C94.5992 70.1484 69.9492 93.8984 69.9492 123.198C69.9492 139.948 77.9992 154.898 90.5992 164.598H69.9492V180.398H112.849V174.948V159.648C97.2492 154.598 85.9992 140.198 85.9992 123.148C85.9992 101.948 103.449 84.7484 124.949 84.7484C146.449 84.7484 163.899 101.948 163.899 123.148C163.899 140.198 152.649 154.598 137.049 159.648V174.948V180.398H179.949V164.598H159.299C171.999 154.898 180.049 139.948 180.049 123.198Z" fill="#FFFFFB"/>
</g>
<defs>
<clipPath id="clip0_242_93694">
<rect width="250" height="250" rx="125" fill="white"/>
</clipPath>
</defs>
</svg>
