<svg width="250" height="250" viewBox="0 0 250 250" fill="none" xmlns="http://www.w3.org/2000/svg">
<g clip-path="url(#clip0_242_94165)">
<path d="M91.8887 92.6318C88.1521 91.5879 71.3792 87.5058 67.8505 86.6051C64.0795 85.6356 58.1826 85.0001 55.6444 90.7482C53.1043 96.4982 45.8582 113.429 43.5433 119.286C41.2284 125.143 44.7742 127.346 48.2093 128.242C51.6444 129.138 69.3429 133.372 73.4517 134.267C77.5566 135.162 81.5337 134.823 84.0719 129.147C86.612 123.473 93.9784 106.435 95.9956 100.907C98.0108 95.3837 95.6177 93.6776 91.8887 92.6318Z" fill="#1767A0"/>
<path d="M124.951 -0.00146484C55.9398 -0.00146484 -0.00292969 55.9413 -0.00292969 124.957C-0.00292969 193.972 55.9398 249.915 124.951 249.915C193.961 249.915 249.909 193.972 249.909 124.957C249.909 55.9413 193.961 -0.00146484 124.951 -0.00146484ZM81.1173 160.647C72.7452 158.821 25.8673 146.493 18.8673 144.665C11.8654 142.842 4.40738 136.584 9.12684 124.644C13.8444 112.705 27.541 79.9813 32.7165 68.2638C37.8921 56.5424 58.207 59.7466 65.8959 61.7199C73.0849 63.5615 109.425 72.3745 117.033 74.5042C124.644 76.6359 134.993 83.0252 130.884 94.2886C126.776 105.556 112.774 138.277 107.598 149.842C102.425 161.409 89.4894 162.476 81.1173 160.647ZM219.505 155.359C216.425 163.579 204.896 191.201 204.896 191.201L175.556 183.895C175.556 183.895 185.146 161.294 186.06 158.439C186.974 155.586 187.77 151.934 183.436 150.68C179.098 149.424 153.299 142.689 153.299 142.689L139.829 175.222L109.921 167.458L146.106 81.3897L175.785 88.9222L157.407 131.5L210.6 97.4832L245.988 106.443L204.323 131.499C204.323 131.499 215.739 135.951 218.478 140.06C221.218 144.172 222.589 147.14 219.505 155.359Z" fill="#1767A0"/>
</g>
<defs>
<clipPath id="clip0_242_94165">
<rect width="250" height="250" rx="125" fill="white"/>
</clipPath>
</defs>
</svg>
