<svg width="250" height="250" viewBox="0 0 250 250" fill="none" xmlns="http://www.w3.org/2000/svg">
<rect width="250" height="250" rx="125" fill="url(#paint0_linear_838_20688)"/>
<path d="M123.71 171.581C129.037 171.632 133.878 171.095 138.457 169.362C142.067 167.998 145.769 166.584 148.954 164.477C152.438 162.172 155.494 159.167 158.53 156.25C167.321 147.803 175.996 139.24 184.732 130.734C190.338 125.275 195.964 119.836 201.593 114.397C203.181 112.864 203.16 112.228 201.528 110.675C200.145 109.359 198.823 107.976 197.49 106.606C194.23 103.257 190.943 99.9361 187.751 96.5266C186.564 95.2586 185.711 95.5476 184.664 96.6184C182.614 98.7192 180.52 100.779 178.42 102.829C173.004 108.105 167.555 113.347 162.15 118.636C157.204 123.477 152.306 128.368 147.366 133.213C145.524 135.021 143.457 136.626 141.771 138.567C136.036 145.165 128.942 148.194 120.267 146.766C117.897 146.375 115.388 145.461 113.458 144.07C110.017 141.599 106.89 138.665 103.769 135.776C99.8057 132.108 95.9542 128.321 92.1027 124.534C87.5408 120.043 83.0468 115.481 78.4916 110.981C73.515 106.062 68.5043 101.18 63.5106 96.2818C62.6268 95.415 61.9129 95.3844 60.9577 96.3736C56.2325 101.275 51.4326 106.106 46.6463 110.954C45.358 112.259 45.3818 112.816 46.7823 114.152C49.1483 116.41 51.5142 118.663 53.8394 120.961C59.5401 126.597 65.1729 132.305 70.911 137.904C78.3795 145.192 85.9703 152.354 93.4183 159.663C96.7633 162.947 100.615 165.476 104.793 167.407C110.891 170.225 117.374 171.687 123.713 171.575L123.71 171.581ZM124.237 78.9824C123.499 79.5943 122.728 80.145 122.061 80.8045C117.244 85.5806 112.431 90.3567 107.696 95.2144C107.352 95.5679 107.335 96.8325 107.675 97.1758C112.761 102.38 117.928 107.503 123.085 112.636C123.836 113.384 124.652 113.761 125.58 112.847C127.538 110.916 129.533 109.023 131.467 107.071C134.517 104.002 137.505 100.874 140.568 97.8183C141.842 96.547 141.836 96.1119 140.527 94.8609C138.416 92.8383 136.386 90.7306 134.32 88.6638C131.294 85.6384 128.272 82.6129 125.236 79.6011C125.015 79.3801 124.693 79.2578 124.24 78.9858L124.237 78.9824Z" fill="black"/>
<defs>
<linearGradient id="paint0_linear_838_20688" x1="214" y1="37" x2="37" y2="220" gradientUnits="userSpaceOnUse">
<stop stop-color="#FF99D3"/>
<stop offset="1" stop-color="#F9B896"/>
</linearGradient>
</defs>
</svg>
