<svg width="250" height="250" viewBox="0 0 250 250" fill="none" xmlns="http://www.w3.org/2000/svg">
<g clip-path="url(#clip0_242_94168)">
<path fill-rule="evenodd" clip-rule="evenodd" d="M124.845 217.063C73.9987 217.063 32.6315 175.696 32.6315 124.849C32.6315 108.96 36.6715 93.9954 43.778 80.9305C44.8437 78.9712 45.9787 77.054 47.1794 75.1833C48.3801 73.3119 49.6465 71.4869 50.9751 69.7112C52.7473 67.3433 54.6294 65.064 56.6158 62.879C57.1123 62.3333 57.6151 61.7926 58.1244 61.259C60.1608 59.1226 62.2994 57.0833 64.5315 55.1497C65.0894 54.6662 65.653 54.189 66.2223 53.719C82.1687 40.5533 102.6 32.6355 124.845 32.6355C147.091 32.6355 167.522 40.5533 183.467 53.719C184.037 54.189 184.601 54.6662 185.159 55.1497C187.391 57.0833 189.529 59.1226 191.566 61.259C192.075 61.7926 192.578 62.3333 193.075 62.879C195.061 65.064 196.944 67.3433 198.715 69.7112C200.044 71.4869 201.31 73.3119 202.512 75.1833C203.712 77.054 204.847 78.9712 205.912 80.9305C213.019 93.9954 217.059 108.96 217.059 124.849C217.059 175.696 175.692 217.063 124.845 217.063ZM124.845 -0.000976562C56.0023 -0.000976562 -0.00488281 56.0062 -0.00488281 124.849C-0.00488281 193.692 56.0023 249.699 124.845 249.699C193.688 249.699 249.695 193.692 249.695 124.849C249.695 56.0062 193.688 -0.000976562 124.845 -0.000976562Z" fill="#1E4691"/>
<path fill-rule="evenodd" clip-rule="evenodd" d="M52.491 11.5439H10.3096V54.0332C10.3096 54.0332 18.6996 40.6147 28.4753 30.8389C40.2267 19.0875 52.491 11.5439 52.491 11.5439Z" fill="#1E4691"/>
<path fill-rule="evenodd" clip-rule="evenodd" d="M218.854 28.4792C230.607 40.2306 238.149 52.4949 238.149 52.4949V10.3135H195.66C195.66 10.3135 209.079 18.7035 218.854 28.4792Z" fill="#1E4691"/>
<path fill-rule="evenodd" clip-rule="evenodd" d="M30.8341 221.219C19.0826 209.469 11.5391 197.204 11.5391 197.204V239.385H54.0283C54.0283 239.385 40.6091 230.995 30.8341 221.219Z" fill="#1E4691"/>
<path fill-rule="evenodd" clip-rule="evenodd" d="M197.199 238.154H239.381V195.665C239.381 195.665 230.991 209.084 221.215 218.86C209.464 230.611 197.199 238.154 197.199 238.154Z" fill="#1E4691"/>
</g>
<defs>
<clipPath id="clip0_242_94168">
<rect width="250" height="250" rx="125" fill="white"/>
</clipPath>
</defs>
</svg>
