<svg width="250" height="250" viewBox="0 0 250 250" fill="none" xmlns="http://www.w3.org/2000/svg">
<rect width="250" height="250" rx="125" fill="white"/>
<path fill-rule="evenodd" clip-rule="evenodd" d="M132.8 234.955H125C64.2488 234.955 15 185.717 15 124.977C15 64.2372 64.2488 14.998 125 14.998C185.751 14.998 235 64.2372 235 124.977C235 130.416 234.604 135.765 233.84 140.998H218.443C219.328 135.794 219.79 130.442 219.79 124.977C219.79 72.6359 177.351 30.205 125 30.205C72.6487 30.205 30.2099 72.6359 30.2099 124.977C30.2099 177.318 72.6487 219.749 125 219.749H181.377C166.981 228.328 150.464 233.721 132.8 234.955ZM202.451 203.456H125C81.649 203.456 46.5062 168.319 46.5062 124.977C46.5062 81.6345 81.649 46.4982 125 46.4982C168.351 46.4982 203.494 81.6345 203.494 124.977C203.494 130.463 202.929 135.822 201.855 140.998H186.239C187.573 135.887 188.284 130.519 188.284 124.977C188.284 90.0327 159.951 61.7049 125 61.7049C90.0493 61.7049 61.7161 90.0327 61.7161 124.977C61.7161 159.921 90.0493 188.248 125 188.248H215.316C211.488 193.701 207.179 198.79 202.451 203.456ZM125 171.955H224.788C227.092 167.072 229.048 161.993 230.624 156.749H125C107.45 156.749 93.2224 142.524 93.2224 124.977C93.2224 107.43 107.45 93.2052 125 93.2052C142.551 93.2052 156.778 107.43 156.778 124.977C156.778 130.829 155.201 136.298 152.449 140.998H169.182C170.997 135.996 171.987 130.598 171.987 124.977C171.987 99.0313 150.95 77.9983 125 77.9983C99.0496 77.9983 78.0121 99.0313 78.0121 124.977C78.0121 150.922 99.0496 171.955 125 171.955Z" fill="black"/>
</svg>
