<svg width="250" height="250" viewBox="0 0 250 250" fill="none" xmlns="http://www.w3.org/2000/svg">
<path d="M125.201 248.85C56.8511 248.7 1.65111 193.4 1.75111 125.1C1.85111 56.7003 57.3011 1.60031 125.901 1.75031C193.851 1.85031 249.001 57.4503 248.851 125.65C248.701 193.85 193.351 248.95 125.201 248.85ZM103.701 29.1503C104.551 31.0503 105.201 32.3003 105.751 33.6503C109.851 43.0503 109.951 52.1503 103.351 60.6003C101.401 63.1503 99.6011 65.8503 97.4511 68.2003C86.0511 80.5503 74.5011 92.7003 63.1511 105.05C52.5011 116.65 45.3011 130.1 44.1511 146C42.2511 171.85 53.4511 191.65 74.1011 206.15C92.8011 219.3 113.951 223.4 136.501 220.85C156.351 218.65 173.901 211.25 187.701 196.65C206.501 176.7 212.051 153.65 201.951 127.6C197.601 116.35 189.851 107.45 181.801 98.7503C170.251 86.3003 158.801 73.7503 147.701 60.9503C140.951 53.1503 140.701 44.0003 144.451 34.6503C145.151 32.9503 145.901 31.3003 146.801 29.1503C137.151 28.9503 130.401 33.0503 125.301 40.9503C120.301 32.9503 113.451 28.9503 103.701 29.1503Z" fill="#7D50D0"/>
<path d="M103.701 29.1506C113.451 28.9506 120.301 33.0006 125.301 40.9506C130.401 33.0506 137.151 28.9506 146.801 29.1506C145.901 31.3006 145.101 32.9506 144.451 34.6506C140.701 44.0006 140.951 53.1506 147.701 60.9506C158.801 73.8006 170.251 86.3506 181.801 98.7506C189.901 107.451 197.601 116.351 201.951 127.601C212.001 153.651 206.501 176.751 187.701 196.651C173.901 211.251 156.351 218.601 136.501 220.851C113.951 223.351 92.8014 219.301 74.1014 206.151C53.4514 191.601 42.2515 171.801 44.1515 146.001C45.3015 130.101 52.5015 116.651 63.1514 105.051C74.5014 92.6506 86.0514 80.5006 97.4514 68.2006C99.6014 65.8506 101.401 63.1506 103.351 60.6006C109.951 52.1506 109.851 43.0506 105.751 33.6506C105.201 32.3006 104.551 31.0006 103.701 29.1506ZM117.051 74.3006C117.601 74.9506 118.051 75.6506 118.651 76.2006C128.201 85.5506 137.801 94.8506 147.351 104.201C154.601 111.301 162.401 117.901 169.051 125.551C185.301 144.151 183.551 166.051 165.151 181.001C143.801 198.351 107.151 198.501 85.7514 181.201C76.2514 173.551 70.5014 163.851 70.5515 151.251C70.6014 140.401 75.8014 131.701 82.7514 124.101C89.0514 117.251 96.0514 111.051 102.801 104.651C106.601 101.001 110.451 97.4506 113.801 94.3006C111.101 91.2506 108.651 88.4506 106.201 85.6506C99.1514 92.2006 92.1014 98.3006 85.6014 105.001C79.3514 111.451 73.0014 118.001 67.8514 125.301C53.2014 146.051 57.7514 169.601 73.5014 185.701C85.4014 197.901 100.401 203.901 117.001 205.501C137.901 207.501 157.201 202.751 173.601 189.001C190.051 175.201 195.701 154.101 188.251 135.201C184.501 125.701 178.401 117.651 171.201 110.551C162.601 102.051 153.501 94.0006 144.851 85.5006C138.051 78.8506 131.551 71.9506 124.801 65.0506C122.451 67.9006 119.801 71.0506 117.051 74.3006ZM100.701 125.801C94.7514 131.701 89.5514 137.551 86.8014 145.151C84.3014 152.001 85.4014 158.401 89.9514 164.151C93.7514 168.951 98.6014 172.401 104.301 174.701C113.051 178.201 122.201 179.201 131.451 178.201C141.501 177.151 150.901 174.201 158.301 166.701C162.951 161.951 165.801 156.401 164.701 149.651C163.151 139.801 156.601 133.051 150.851 126.951C147.601 129.651 144.701 132.051 141.751 134.451C143.451 136.351 144.901 137.851 146.151 139.451C153.251 148.551 151.651 156.851 141.351 162.151C130.151 167.901 118.751 167.601 107.751 161.451C99.1514 156.651 97.5014 148.801 103.251 140.801C104.851 138.551 106.801 136.551 108.751 134.251C106.101 131.501 103.551 128.851 100.701 125.801ZM135.001 150.001C133.651 141.951 132.351 134.251 131.101 126.751C137.851 120.151 138.751 113.201 133.651 108.051C129.201 103.551 121.901 103.401 117.401 107.701C113.001 111.951 111.151 119.851 119.651 126.801C118.301 134.451 117.001 142.151 115.601 149.951C122.201 153.201 128.401 153.451 135.001 150.001Z" fill="white"/>
<path d="M117.051 74.2993C119.801 71.0493 122.501 67.8993 124.901 65.0493C131.651 71.9493 138.151 78.8993 144.951 85.4993C153.651 93.9493 162.701 101.999 171.301 110.549C178.501 117.649 184.601 125.699 188.351 135.199C195.801 154.099 190.151 175.199 173.701 188.999C157.301 202.749 138.001 207.499 117.101 205.499C100.501 203.899 85.4511 197.899 73.6011 185.699C57.8511 169.599 53.3511 146.049 67.9511 125.299C73.1011 117.999 79.4011 111.449 85.7011 104.999C92.2011 98.3493 99.2511 92.2493 106.301 85.6493C108.751 88.4493 111.201 91.1993 113.901 94.2993C110.551 97.4493 106.701 100.999 102.901 104.649C96.1511 111.099 89.1511 117.249 82.8511 124.099C75.8511 131.699 70.7011 140.399 70.6511 151.249C70.6011 163.849 76.3511 173.499 85.8511 181.199C107.251 198.499 143.901 198.349 165.251 180.999C183.651 166.049 185.401 144.149 169.151 125.549C162.501 117.949 154.701 111.299 147.451 104.199C137.901 94.8493 128.301 85.5493 118.751 76.1993C118.051 75.6493 117.601 74.9493 117.051 74.2993Z" fill="#7D50D0"/>
<path d="M100.702 125.8C103.602 128.8 106.152 131.5 108.752 134.2C106.802 136.5 104.852 138.5 103.252 140.75C97.5016 148.75 99.1516 156.6 107.752 161.4C118.752 167.55 130.102 167.85 141.352 162.1C151.652 156.8 153.252 148.5 146.152 139.4C144.902 137.8 143.452 136.3 141.752 134.4C144.702 132 147.602 129.55 150.852 126.9C156.602 132.95 163.202 139.75 164.702 149.6C165.752 156.4 162.952 161.9 158.302 166.65C150.902 174.2 141.502 177.1 131.452 178.15C122.202 179.1 113.052 178.15 104.302 174.65C98.6016 172.35 93.7516 168.95 89.9516 164.1C85.4016 158.35 84.3016 151.95 86.8016 145.1C89.5016 137.6 94.7516 131.75 100.702 125.8Z" fill="#7D50D0"/>
<path d="M135.001 150C128.401 153.45 122.201 153.2 115.601 149.95C116.951 142.15 118.301 134.45 119.651 126.8C111.151 119.85 113.001 111.9 117.401 107.7C121.901 103.35 129.251 103.5 133.651 108.05C138.701 113.2 137.851 120.15 131.101 126.75C132.351 134.25 133.651 141.95 135.001 150Z" fill="#7D50D0"/>
</svg>
