<svg width="250" height="250" viewBox="0 0 250 250" fill="none" xmlns="http://www.w3.org/2000/svg">
<path d="M41.5646 46.036C87.4604 91.8695 133.112 137.459 178.953 183.238C166.483 195.629 151.42 203.417 133.889 205.636C92.5344 210.87 57.4899 188.673 44.6827 149.008C42.3997 141.938 41.5744 134.146 41.4704 126.668C41.1054 100.408 41.3476 74.1403 41.3693 47.8756C41.3696 47.3037 41.4876 46.7318 41.5646 46.036ZM209.926 202.705C209.931 176.441 210.028 150.176 209.883 123.913C209.762 102.152 201.793 83.3509 186.227 68.3772C160.967 44.0798 131.282 38.9996 98.6461 50.7113C88.4908 54.3558 79.6446 60.4472 72.1903 68.2946C118.046 114.131 163.605 159.672 209.656 205.704C209.78 204.374 209.926 203.539 209.926 202.705Z" fill="#23A4BC"/>
</svg>
