<svg width="250" height="250" viewBox="0 0 250 250" fill="none" xmlns="http://www.w3.org/2000/svg">
<g clip-path="url(#clip0_242_94174)">
<path d="M125 249.999C194.036 249.999 250 194.035 250 124.999C250 55.9634 194.036 -0.000976562 125 -0.000976562C55.9644 -0.000976562 0 55.9634 0 124.999C0 194.035 55.9644 249.999 125 249.999Z" fill="#25AAE1"/>
<path fill-rule="evenodd" clip-rule="evenodd" d="M127.704 195.256C114.892 195.397 104.134 193.084 93.9933 188.045C93.3683 187.733 92.8995 187.717 92.2745 188.069C86.1152 191.55 79.3532 193.834 72.3448 194.803C69.3448 195.194 66.3136 195.615 63.2979 194.998C61.441 194.634 59.7144 193.782 58.295 192.53C56.8757 191.279 55.8147 189.672 55.2208 187.875C54.6269 186.079 54.5215 184.156 54.9153 182.305C55.3091 180.454 56.1881 178.741 57.462 177.342C61.042 173.275 63.73 168.503 65.3526 163.334C65.448 163.076 65.4787 162.799 65.4419 162.527C65.4051 162.254 65.302 161.995 65.1417 161.772C59.6112 152.993 56.1959 143.049 55.1651 132.725C52.8683 109.897 59.9698 90.342 76.337 74.3108C86.6376 64.1077 99.9677 57.518 114.329 55.5295C134.149 52.6311 152.212 57.2092 168.079 69.4983C182.235 80.467 191.048 94.9123 194.118 112.553C198.009 134.881 192.376 154.772 177.4 171.772C166.329 184.334 152.267 191.795 135.72 194.444C132.579 194.951 129.392 195.092 127.704 195.256ZM77.4698 176.6C77.9776 176.459 78.2745 176.381 78.5636 176.287C83.007 174.786 87.2036 172.635 91.0167 169.904C93.7667 167.967 96.4776 167.873 99.3761 169.529C105.595 173.092 112.259 175.311 119.407 176.069C131.025 177.311 141.985 175.1 151.79 168.803C168.743 157.928 177.181 142.272 176.267 121.998C175.681 109.014 170.595 97.8029 161.384 88.6701C150.282 77.6701 136.775 72.6545 121.126 73.7326C110.579 74.467 101.048 78.092 92.9308 84.8654C77.2042 97.9904 71.1339 114.819 74.6182 134.998C75.7589 141.639 78.4073 147.733 82.1417 153.358C82.8543 154.363 83.3424 155.51 83.5729 156.72C83.8034 157.931 83.7709 159.176 83.4776 160.373C82.5846 164.258 81.3291 168.051 79.7276 171.701C79.0323 173.287 78.2823 174.842 77.4776 176.6H77.4698ZM125.056 95.2561L129.509 104.295C131.071 107.498 132.681 110.701 134.196 113.936C134.587 114.779 135.11 115.076 135.985 115.194C142.548 116.108 149.103 117.069 155.657 118.014C155.884 118.053 156.11 118.115 156.392 118.17C155.181 119.42 154.056 120.639 152.876 121.787C149.173 125.404 145.462 129.006 141.728 132.584C141.079 133.209 140.821 133.795 140.993 134.756C142.165 141.342 143.259 147.944 144.368 154.545C144.392 154.709 144.392 154.881 144.415 155.201C144.056 155.061 143.782 154.975 143.532 154.842C137.735 151.787 131.931 148.74 126.157 145.639C125.376 145.217 124.767 145.178 123.954 145.615C118.142 148.717 112.306 151.772 106.47 154.834C106.235 154.967 105.985 155.069 105.532 155.287C105.821 153.514 106.071 151.928 106.345 150.35C107.267 145.022 108.181 139.686 109.157 134.365C109.298 133.584 108.86 133.217 108.423 132.787C103.771 128.215 99.1097 123.652 94.4386 119.1C94.1729 118.834 93.7979 118.686 93.4698 118.483L93.712 118.108L100.868 117.076C105.368 116.436 109.86 115.779 114.368 115.162C115.087 115.061 115.415 114.678 115.712 114.069C118.657 108.061 121.634 102.069 124.595 96.0686C124.704 95.8576 124.829 95.6623 125.064 95.2561H125.056Z" fill="white"/>
</g>
<defs>
<clipPath id="clip0_242_94174">
<rect width="250" height="250" rx="125" fill="white"/>
</clipPath>
</defs>
</svg>
