<svg width="250" height="250" viewBox="0 0 250 250" fill="none" xmlns="http://www.w3.org/2000/svg">
<path d="M176.737 81.7743C164.837 81.7743 159.657 88.0743 150.277 88.0743C144.327 88.0743 140.652 85.0993 136.102 81.8443C129.872 77.2943 117.762 63.3643 95.3971 63.3643C64.4921 63.3643 37.3321 89.1243 37.5071 124.999C37.2971 160.839 64.4571 186.634 95.3971 186.634C117.762 186.634 129.872 172.704 136.137 168.189C140.652 164.899 144.327 161.924 150.312 161.924C159.692 161.924 164.872 168.224 176.772 168.224C197.317 168.224 212.542 148.589 212.542 124.894C212.542 101.199 197.247 81.7743 176.737 81.7743ZM177.542 146.804C173.587 146.804 170.962 145.334 167.602 143.514C162.737 140.924 156.227 138.054 149.472 138.054C138.552 138.054 130.607 143.199 124.622 146.944C119.302 150.339 113.982 153.734 104.847 153.734C90.4621 153.734 77.7921 141.379 77.7921 125.104C77.7921 108.829 90.4621 96.4393 104.847 96.4393C113.982 96.4393 119.302 99.8343 124.622 103.229C130.572 106.939 138.517 112.014 149.472 112.014C156.227 112.014 162.737 109.179 167.602 106.554C170.962 104.734 173.587 103.264 177.542 103.264C186.957 103.264 193.922 113.239 193.922 124.999C193.922 136.759 186.922 146.804 177.542 146.804Z" fill="url(#paint0_linear_242_93705)"/>
<defs>
<linearGradient id="paint0_linear_242_93705" x1="37.5071" y1="124.999" x2="212.507" y2="124.999" gradientUnits="userSpaceOnUse">
<stop stop-color="#31EDA9"/>
<stop offset="0.06" stop-color="#71EF74"/>
<stop offset="0.13" stop-color="#AEF043"/>
<stop offset="0.18" stop-color="#DAF11E"/>
<stop offset="0.22" stop-color="#F5F208"/>
<stop offset="0.25" stop-color="#FFF200"/>
<stop offset="0.27" stop-color="#FEDC0E"/>
<stop offset="0.38" stop-color="#FA685A"/>
<stop offset="0.46" stop-color="#F71F89"/>
<stop offset="0.5" stop-color="#F0059E"/>
<stop offset="0.56" stop-color="#BE21AB"/>
<stop offset="0.61" stop-color="#9239B7"/>
<stop offset="0.66" stop-color="#6C4EC1"/>
<stop offset="0.72" stop-color="#4E5FCA"/>
<stop offset="0.78" stop-color="#376CD0"/>
<stop offset="0.84" stop-color="#2675D4"/>
<stop offset="0.91" stop-color="#1C7AD7"/>
<stop offset="1" stop-color="#197CD8"/>
</linearGradient>
</defs>
</svg>
