<svg width="250" height="250" viewBox="0 0 250 250" fill="none" xmlns="http://www.w3.org/2000/svg">
<g clip-path="url(#clip0_242_94391)">
<path fill-rule="evenodd" clip-rule="evenodd" d="M106.229 106.037C113.762 98.4891 124.695 95.455 135.031 98.0446C145.366 100.634 153.587 108.467 156.688 118.68C149.863 116.607 142.528 117.003 135.964 119.798C135.872 119.697 135.778 119.598 135.679 119.499C131.153 114.974 123.825 114.978 119.304 119.508C114.784 124.038 114.78 131.381 119.296 135.915C119.444 136.064 119.594 136.205 119.749 136.343C117.151 142.793 116.834 149.939 118.849 156.595C108.657 153.488 100.839 145.251 98.2546 134.896C95.6698 124.541 98.6967 113.586 106.229 106.037L106.229 106.037Z" fill="#80B9FF"/>
<path fill-rule="evenodd" clip-rule="evenodd" d="M68.8703 68.7566C99.8745 37.6905 150.143 37.6905 181.147 68.7566C198.436 86.0433 206.802 110.354 203.82 134.644C195.668 126.899 185.101 122.205 173.899 121.353C173.048 110.077 168.324 99.4437 160.531 91.2636C160.25 90.9689 159.965 90.6742 159.675 90.3839C147.281 77.958 129.211 73.1032 112.275 77.6487C95.339 82.1942 82.1105 95.4492 77.5741 112.419C73.0376 129.389 77.8827 147.495 90.2837 159.914C90.6184 160.249 90.9558 160.578 91.2965 160.902C99.4448 168.633 110.002 173.317 121.191 174.166C122.036 185.326 126.673 195.859 134.328 204.01C110.18 206.895 86.0476 198.507 68.8703 181.258C37.8661 150.192 37.8661 99.8227 68.8703 68.7566Z" fill="#2E6DDE"/>
<path d="M199.424 162.253C198.757 159.72 197.764 157.285 196.469 155.008C196.388 154.86 196.301 154.714 196.215 154.57C196.11 154.387 195.998 154.207 195.885 154.027C187.8 140.968 171.26 136.01 157.345 142.473C156.791 141.376 156.066 140.374 155.196 139.506C155.129 139.438 155.059 139.369 154.99 139.303C150.502 135.026 143.451 135.042 138.982 139.339C134.514 143.637 134.21 150.696 138.292 155.364C138.458 155.553 138.631 155.74 138.813 155.922C139.779 156.892 140.908 157.683 142.15 158.258C139.681 164.153 139.127 170.677 140.564 176.906C141.15 179.459 142.066 181.926 143.29 184.241C143.403 184.461 143.524 184.682 143.648 184.9C143.886 185.328 144.135 185.753 144.397 186.169C144.462 186.275 144.53 186.378 144.597 186.482C152.475 198.748 167.937 203.681 181.442 198.236C181.456 198.259 181.471 198.282 181.487 198.304C188.772 195.351 194.634 189.688 197.846 182.502C197.829 182.487 197.811 182.473 197.792 182.461C200.623 176.11 201.199 168.979 199.424 162.254L199.424 162.253ZM174.073 172.726V185.327H165.689V172.726H154.126L169.874 153.811L185.635 172.726H174.073Z" fill="#80B9FF"/>
</g>
<defs>
<clipPath id="clip0_242_94391">
<rect width="159.112" height="159.112" fill="white" transform="translate(45.459 45.4585)"/>
</clipPath>
</defs>
</svg>
