<svg width="250" height="250" viewBox="0 0 250 250" fill="none" xmlns="http://www.w3.org/2000/svg">
<rect width="250" height="250" rx="125" fill="white"/>
<g clip-path="url(#clip0_242_94393)">
<path d="M73.4649 125.312C73.4649 97.2732 96.1958 74.5423 124.235 74.5423C152.274 74.5423 175.005 97.2732 175.005 125.312C175.005 153.351 152.274 176.082 124.235 176.082C96.1958 176.082 73.4649 153.351 73.4649 125.312ZM29.7248 125.312C29.7248 177.508 72.0388 219.822 124.235 219.822C176.431 219.822 218.745 177.508 218.745 125.312C218.745 73.1162 176.431 30.8022 124.235 30.8022C72.0388 30.8022 29.7246 73.1162 29.7246 125.312H29.7248Z" fill="url(#paint0_radial_242_94393)"/>
<path d="M109.784 93.6802C109.393 80.48 3.63599 124.22 14.7272 155.776C25.8184 187.331 45.2207 177.204 44.9548 176.708C41.518 170.304 39.0002 165.418 37.7807 161.698C32.6139 145.934 110.78 127.33 109.784 93.6802Z" fill="#083351"/>
<path d="M98.6162 65.7943C97.3665 82.1969 97.9914 91.5698 42.535 108.597C14.0593 117.341 5.35584 133.123 15.3537 157.492C24.4142 130.467 44.766 144.153 74.0905 131.717C103.928 119.064 115.331 102.193 114.081 76.7294C112.832 51.2663 99.8659 49.3917 98.6162 65.7943Z" fill="#489AB7"/>
<path d="M83.6957 39.9785C83.7153 39.9785 92.2484 36.0732 104.355 32.9489C128.881 59.1148 148.507 66.7402 149.579 64.3871C150.79 61.7315 132.824 43.8424 127.514 36.8151C99.0048 -0.910746 80.7276 25.3725 83.6957 39.9785Z" fill="#083351"/>
<path d="M100.177 14.5548C81.275 15.4922 83.3057 40.3302 83.3057 40.3302C83.3057 40.3302 80.7281 17.2886 107.441 22.5218C123.826 25.7317 130.405 64.5436 150.322 65.0903C160.336 65.3653 159.227 58.2948 150.947 58.2948C137.2 58.2948 128.825 13.1342 100.177 14.5548Z" fill="#489AB7"/>
<path d="M140.252 158.509C140.642 171.709 246.4 127.969 235.308 96.4135C224.217 64.858 204.815 74.9848 205.081 75.4808C208.518 81.8855 211.035 86.7707 212.255 90.4912C217.422 106.255 139.256 124.859 140.252 158.509Z" fill="#083351"/>
<path d="M151.418 186.392C152.668 169.99 152.043 160.617 207.5 143.59C235.975 134.846 244.679 119.064 234.681 94.6943C225.62 121.719 205.269 108.034 175.944 120.47C146.107 133.123 134.704 149.994 135.953 175.457C137.203 200.921 150.169 202.795 151.418 186.392Z" fill="#489AB7"/>
<path d="M166.192 210.05C166.172 210.05 157.639 213.955 145.532 217.08C121.007 190.914 101.381 183.288 100.308 185.641C99.0978 188.297 117.063 206.186 122.374 213.213C150.883 250.939 169.16 224.656 166.192 210.05Z" fill="#083351"/>
<path d="M149.713 235.473C168.615 234.536 166.584 209.698 166.584 209.698C166.584 209.698 169.162 232.739 142.449 227.506C126.065 224.296 119.486 185.484 99.5681 184.938C89.5546 184.662 90.6636 191.733 98.9433 191.733C112.69 191.733 121.065 236.894 149.713 235.473Z" fill="#489AB7"/>
</g>
<defs>
<radialGradient id="paint0_radial_242_94393" cx="0" cy="0" r="1" gradientUnits="userSpaceOnUse" gradientTransform="translate(124.235 125.312) scale(94.5099 94.5099)">
<stop stop-color="#67C3E3"/>
<stop offset="0.5" stop-color="#3787AC"/>
<stop offset="1" stop-color="#074B76"/>
</radialGradient>
<clipPath id="clip0_242_94393">
<rect width="227.302" height="227.302" fill="white" transform="translate(11.3652 11.3633)"/>
</clipPath>
</defs>
</svg>
