<svg width="250" height="250" viewBox="0 0 250 250" fill="none" xmlns="http://www.w3.org/2000/svg">
<rect width="250" height="250" rx="125" fill="white"/>
<g clip-path="url(#clip0_242_94407)">
<path d="M238.67 125.015C238.67 187.783 187.786 238.666 125.018 238.666C62.2504 238.666 11.3672 187.783 11.3672 125.015C11.3672 62.2465 62.2507 11.3633 125.018 11.3633C187.786 11.3633 238.67 62.2468 238.67 125.015Z" fill="#FFD15C"/>
<path d="M69.9707 171.587C70.9513 170.921 71.8669 169.923 72.3224 168.507C72.8288 166.933 72.5299 165.548 72.2928 164.781C72.2851 164.756 72.2767 164.73 72.2685 164.704L72.4574 163.601C72.9793 163.895 73.5798 164.289 74.2649 164.771C74.4301 164.887 74.6611 165.052 74.9014 165.223C75.2166 165.448 75.5492 165.685 75.7708 165.84C76.1513 166.104 76.6918 166.473 77.2646 166.777C92.4205 176.197 104.954 180.08 114.909 179.599C125.202 179.102 132.419 173.924 136.143 166.368C139.741 159.064 139.867 150.014 137.345 141.63C134.807 133.192 129.469 124.992 121.512 119.316C108.105 109.754 95.8195 95.2142 89.6074 82.8508C86.4526 76.5718 85.1975 71.5079 85.5289 68.2013C85.6828 66.6625 86.1544 65.7315 86.7181 65.1325C87.2825 64.5329 88.3108 63.8717 90.2918 63.5455C94.4878 62.8543 99.3409 61.3429 104.266 59.8096C106.178 59.214 108.1 58.6153 110 58.0598C117.099 55.9841 124.614 54.2402 132.513 54.255C147.834 54.2838 165.814 60.9356 184.745 88.6067C209.065 124.153 195.714 163.875 167.697 184.742C153.725 195.149 136.293 200.673 118.38 198.572C102.25 196.682 85.3566 188.564 69.9709 171.587H69.9707ZM72.7915 162.387C72.7915 162.387 72.7863 162.398 72.774 162.416C72.7849 162.395 72.7911 162.386 72.7915 162.387ZM71.2688 163.081C71.2688 163.081 71.2838 163.082 71.3175 163.09C71.2863 163.086 71.2697 163.083 71.2688 163.081Z" fill="white"/>
<path d="M208.652 107.62C202.903 99.5688 196.802 95.3496 192.982 93.3C191.64 90.8406 190.157 88.4123 188.522 86.0225C171.817 61.6059 153.499 49.718 132.521 49.6789C123.627 49.6368 115.492 51.6857 108.716 53.6676C106.772 54.2358 104.806 54.8482 102.897 55.4428C98.0273 56.9589 93.428 58.3909 89.5482 59.0301C86.9015 59.4656 84.8283 60.4635 83.3861 61.9957C82.0231 63.4434 81.2121 65.378 80.975 67.7451C80.5316 72.1729 82.1025 78.1069 85.5179 84.9048C92.3499 98.5012 105.435 113.471 118.854 123.041C120.231 124.024 121.533 125.11 122.761 126.278C122.743 126.282 122.728 126.284 122.71 126.288C112.275 127.779 106.837 138.995 104.635 145.054C104.061 146.636 105.624 148.051 107.218 147.513C113.542 145.38 126.284 141.972 133.746 146.038C135.139 152.702 134.554 159.238 132.037 164.345C128.787 170.942 122.787 174.637 114.688 175.028C105.162 175.486 93.3792 171.405 79.6799 162.89L79.4094 162.735C79.3296 162.693 79.2462 162.644 79.1628 162.594C89.2864 150.394 83.1151 131.97 80.6448 125.896C80.315 125.085 79.1975 125.091 78.7529 125.845C72.9679 135.639 61.1034 134.912 61.3154 146.577L61.3009 146.55C52.2299 139.174 45.4975 148.986 34.211 147.513C33.3436 147.4 32.6505 148.277 33.0861 149.035C36.3926 154.794 47.3413 171.34 63.518 170.437L63.0445 170.759L66.5798 174.66C81.4701 191.091 99.1977 200.931 117.847 203.117C120.537 203.433 123.233 203.589 125.928 203.589C141.567 203.589 157.114 198.33 170.431 188.412C185.722 177.023 196.334 160.959 200.312 143.179C201.65 137.199 202.2 131.212 201.985 125.277C206.925 123.822 212.375 128.167 215.044 130.723C215.697 131.348 216.773 130.961 216.743 130.058C216.604 125.963 215.431 117.114 208.651 107.62L208.652 107.62ZM139.935 69.7306C147.904 69.7306 160.081 78.7543 162.557 82.0924C161.786 84.1268 156.645 84.5818 154.074 84.3841C151.503 84.1863 147.133 83.7633 143.791 82.0924C140.449 80.4215 137.107 78.2144 135.822 76.4146C134.536 74.6153 131.966 69.7308 139.935 69.7308L139.935 69.7306ZM163.588 182.071C150.148 191.596 134.348 195.836 118.913 194.028C103.614 192.234 88.8938 184.451 76.1308 171.451C90.9136 180.428 104.026 184.704 115.13 184.169C126.42 183.624 135.575 177.872 140.248 168.39C144.164 160.441 144.704 150.207 141.727 140.313C138.715 130.298 132.48 121.518 124.169 115.591C112.8 107.482 101.722 95.1973 95.2037 83.6174L95.2042 83.6126C95.2042 83.6126 95.1874 83.5863 95.1612 83.5422C95.1312 83.4885 95.1003 83.4349 95.0703 83.3812C94.6077 82.5266 93.3067 79.5503 97.2608 78.9852C134.279 73.6977 209.6 144.023 163.589 182.071H163.588Z" fill="black"/>
</g>
<defs>
<clipPath id="clip0_242_94407">
<rect width="227.302" height="227.302" fill="white" transform="translate(11.3662 11.3643)"/>
</clipPath>
</defs>
</svg>
