<svg width="250" height="250" viewBox="0 0 250 250" fill="none" xmlns="http://www.w3.org/2000/svg">
<g clip-path="url(#clip0_242_94917)">
<path d="M125 249.999C194.036 249.999 250 194.034 250 124.999C250 55.9629 194.036 -0.00146484 125 -0.00146484C55.9644 -0.00146484 0 55.9629 0 124.999C0 194.034 55.9644 249.999 125 249.999Z" fill="black"/>
<path d="M81.1484 75.0181H115.079V55.2671H68.3555C64.5127 55.2671 61.3975 58.3823 61.3975 62.2251V75.0181H61.4023V114.969H51.0215V134.72H61.4023V175.575V188.368C61.4023 192.21 64.5176 195.326 68.3604 195.326H115.089V175.575H81.1533V75.0181H81.1484Z" fill="white"/>
<path d="M198.984 134.725V114.974H188.643V74.4224V61.6294C188.643 57.7866 185.527 54.6714 181.685 54.6714H134.961V74.4224H168.892V174.979H134.961V194.73H181.685C185.527 194.73 188.643 191.615 188.643 187.772V174.979H188.638V134.725H198.984Z" fill="white"/>
<path d="M153.78 124.251C153.78 108.216 140.782 95.2231 124.752 95.2183C108.717 95.2183 95.7236 108.216 95.7188 124.247C95.7188 140.282 108.717 153.275 124.747 153.28C140.772 153.26 153.756 140.277 153.775 124.251H153.78ZM124.752 134.725C118.966 134.725 114.278 130.038 114.278 124.251C114.278 118.465 118.966 113.778 124.752 113.778C130.538 113.778 135.226 118.465 135.226 124.251C135.221 130.033 130.533 134.72 124.752 134.725Z" fill="white"/>
</g>
<defs>
<clipPath id="clip0_242_94917">
<rect width="250" height="250" fill="white"/>
</clipPath>
</defs>
</svg>
