<svg width="250" height="250" viewBox="0 0 250 250" fill="none" xmlns="http://www.w3.org/2000/svg">
<rect width="250" height="250" rx="125" fill="white"/>
<path d="M118.504 85.363C126.019 73.6534 133.336 62.2549 140.593 50.9491C134.212 39.6385 138.035 31.3846 143.218 26.7933C149.287 21.4179 157.532 20.352 164.795 24.9611C171.527 29.2337 174.692 37.5841 172.472 44.9736C169.838 53.7413 162.746 58.2025 151.244 58.0478C145.317 66.853 139.63 76.0903 133.576 85.448C156.247 88.9381 173.874 99.7042 185.91 118.954C194.381 132.502 197.865 147.436 196.119 163.24C191.851 201.87 158.051 228.999 120.694 226.545C90.7006 224.575 59.0241 201.636 54.8382 163.089C52.7447 143.807 58.166 126.253 70.5883 111.164C82.9732 96.1223 99.0144 87.6295 118.504 85.363ZM159.665 170.329C146.977 181.446 134.193 177.238 127.778 170.439C120.576 162.806 119.591 151.017 126.865 141.92C130.017 137.978 134.137 135.303 139.153 134.472C146.692 133.223 153.503 134.947 159.455 140.853C156.301 129.715 140.792 115.624 120.098 118.547C103.66 120.869 88.7609 134.218 87.9908 154.39C87.3376 171.5 98.2312 187.85 117.697 192.289C135.249 196.292 153.727 186.005 159.665 170.329Z" fill="#1F3B4A"/>
</svg>
