<svg width="250" height="250" viewBox="0 0 250 250" fill="none" xmlns="http://www.w3.org/2000/svg">
<rect width="250" height="250" rx="125" fill="white"/>
<path d="M125.336 25.5506C133.432 24.634 140.765 20.8912 148.633 18.7524C149.702 20.8912 151.001 23.4882 153.827 23.4882C156.653 23.9465 158.257 21.1967 159.556 19.1344C166.354 21.8078 172.617 25.5506 179.568 27.8421C183.158 29.0643 187.512 28.8351 190.262 31.8905C193.547 35.4805 193.623 40.6746 193.088 45.1813C192.401 48.7713 190.338 52.5905 186.519 53.5071C182.853 54.4237 179.186 55.0348 175.749 56.5625C170.173 58.7776 165.055 62.2149 159.174 63.8189C158.41 62.444 157.57 61.1455 156.729 59.7706C154.973 59.7706 153.063 59.6178 151.459 60.5344C150.39 61.451 149.702 62.7496 148.938 63.8953C140.383 63.437 132.745 58.3957 124.114 58.5484C115.177 58.7012 106.316 60.84 98.2194 64.5828C80.6511 71.5337 66.4437 85.8175 58.5762 102.927C54.2987 112.475 51.6253 122.787 51.2433 133.252C50.9378 151.202 56.3611 169.458 67.3603 183.742C72.6308 191.38 79.7345 197.643 87.3729 202.838C103.566 214.219 124.266 218.42 143.821 216.052C167.652 213.226 189.956 199.553 203.324 179.617C212.261 167.166 217.226 152.195 218.371 136.995C219.746 124.926 217.684 112.705 213.941 101.247C211.038 91.8518 205.921 83.2968 200.039 75.5057C197.06 71.3809 193.317 68.02 189.804 64.43C196.831 69.5477 202.636 76.1167 207.525 83.2968C216.385 95.8238 221.579 110.719 223.489 125.919C223.947 135.467 224.253 145.168 222.038 154.487C218.295 173.659 208.212 191.456 194.005 204.824C187.054 211.927 178.499 217.045 169.791 221.704C161.389 225.829 152.299 228.808 142.98 229.954C123.961 233.162 103.948 230.641 86.3799 222.545C82.7135 220.711 79.1998 218.573 75.6098 216.663C61.4788 207.879 49.3337 195.658 41.0843 181.221C33.675 167.319 28.1754 152.119 27.7171 136.384C27.7935 128.745 27.2588 121.107 28.7101 113.545C32.6057 90.5533 44.0633 68.7839 61.4788 53.2016C70.874 44.341 82.1024 37.6956 94.0183 32.8835C103.948 28.606 114.642 26.6964 125.336 25.5506Z" fill="black"/>
<path d="M118.462 100.025C122.968 99.4136 127.628 99.4136 132.211 100.025C141.911 102.163 150.39 109.191 154.209 118.433C158.716 127.676 157.417 138.904 152.223 147.612C147.793 154.181 141.3 159.528 133.509 161.437C130.148 162.048 126.711 163.271 123.197 162.659C118.462 161.896 113.573 160.903 109.448 158.306C99.2892 152.653 92.7202 140.966 93.484 129.28C93.484 122.634 96.5394 116.371 100.435 111.1C104.712 105.372 111.434 101.629 118.462 100.025Z" fill="black"/>
</svg>
