<svg width="250" height="250" viewBox="0 0 250 250" fill="none" xmlns="http://www.w3.org/2000/svg">
<path d="M125.052 1.94824C119.402 1.94824 113.802 2.34824 108.352 3.09824C151.102 15.2482 182.402 54.5982 182.402 101.248C182.402 157.598 136.752 203.248 80.4018 203.248C55.6518 203.248 32.9518 194.448 15.3018 179.748C35.5018 219.898 77.0518 247.498 125.052 247.498C192.852 247.498 247.802 192.548 247.802 124.748C247.802 56.9482 192.852 1.94824 125.052 1.94824Z" fill="#434FA2"/>
<path d="M174.703 207.049C118.353 207.049 72.7027 161.399 72.7027 105.049C72.7027 55.9494 107.353 14.9994 153.553 5.24941C144.403 3.09941 134.853 1.89941 125.053 1.89941C57.2527 1.94941 2.30273 56.8994 2.30273 124.699C2.30273 192.499 57.2527 247.449 125.053 247.449C167.853 247.449 205.503 225.549 227.453 192.349C212.103 201.699 194.003 207.049 174.703 207.049Z" fill="#4078BB"/>
<path d="M25.4527 177.899C25.4527 121.549 71.1027 75.8994 127.453 75.8994C183.803 75.8994 229.453 121.549 229.453 177.899C229.453 182.149 229.203 186.399 228.653 190.499C240.753 171.449 247.803 148.899 247.803 124.649C247.803 56.8494 192.853 1.89941 125.053 1.89941C57.2527 1.89941 2.30273 56.8994 2.30273 124.699C2.30273 152.849 11.8027 178.799 27.7527 199.499C26.2527 192.549 25.4527 185.349 25.4527 177.899Z" fill="#3FBBEC"/>
</svg>
