<svg width="250" height="250" viewBox="0 0 250 250" fill="none" xmlns="http://www.w3.org/2000/svg">
<path fill-rule="evenodd" clip-rule="evenodd" d="M87.0584 59.9439C84.6784 63.9689 79.4984 65.2639 75.4734 62.8839C71.4484 60.5389 70.1184 55.3239 72.4984 51.3339C74.8784 47.3089 80.0584 46.0139 84.0834 48.3939C88.1084 50.7389 89.4384 55.9539 87.0584 59.9439Z" fill="#5F46BA"/>
<path fill-rule="evenodd" clip-rule="evenodd" d="M45.3723 53.5731C44.1823 55.568 41.5925 56.233 39.5976 55.043C37.5678 53.8531 36.9028 51.2633 38.0927 49.2334C39.2827 47.2385 41.8725 46.5736 43.9024 47.7635C45.8972 48.9534 46.5622 51.5433 45.3723 53.5731Z" fill="#5F46BA"/>
<path fill-rule="evenodd" clip-rule="evenodd" d="M192.793 73.1036C178.863 57.8786 159.613 48.7786 138.578 47.4836C133.503 47.1686 128.358 47.3436 123.283 47.9736C121.533 48.1136 119.853 48.3236 118.208 48.6036L116.703 48.7786L116.843 48.8136C109.563 50.2136 104.208 52.4886 103.928 52.6286L103.893 52.6636C95.8779 56.4436 91.4679 62.6736 91.4679 70.2686C91.4679 80.6986 100.288 89.2036 111.138 89.2036C113.378 89.2036 120.378 86.9286 120.448 86.8936C125.488 85.2136 130.738 84.5136 136.128 84.8286C149.778 85.6686 161.923 93.0536 168.608 104.604V104.639C172.318 111.079 174.033 118.359 173.543 125.744C172.143 146.954 153.138 163.124 131.088 161.794C118.558 161.024 107.428 154.829 100.393 144.819L100.148 144.539L98.5729 142.229C93.1479 133.234 93.8479 120.844 94.0579 118.289L94.0929 118.044V117.939C93.7079 107.684 85.0629 99.6336 74.4229 99.6336C65.5679 99.6336 57.7629 105.409 55.4179 113.669C54.9629 115.349 54.7529 119.794 54.7879 120.284C53.0379 161.234 86.1829 196.654 128.638 199.244C130.248 199.349 131.858 199.384 133.468 199.384C136.443 199.384 139.418 199.209 142.428 198.894H142.463L142.883 198.859L149.148 198.159L148.693 197.984C183.658 191.474 210.048 162.949 212.323 128.159C213.653 107.859 206.723 88.3286 192.793 73.1036Z" fill="#5F46BA"/>
<path fill-rule="evenodd" clip-rule="evenodd" d="M69.5229 83.2531C65.9529 89.2731 58.1829 91.2681 52.1279 87.6631C46.1429 84.0931 44.1479 76.3231 47.7179 70.3031C51.3229 64.2831 59.0929 62.2881 65.1129 65.8581C71.1329 69.4631 73.1279 77.2331 69.5229 83.2531Z" fill="#5F46BA"/>
</svg>
