<svg width="250" height="250" viewBox="0 0 250 250" fill="none" xmlns="http://www.w3.org/2000/svg">
<g clip-path="url(#clip0_242_94738)">
<path d="M125 249.999C194.036 249.999 250 194.034 250 124.999C250 55.9629 194.036 -0.00146484 125 -0.00146484C55.9644 -0.00146484 0 55.9629 0 124.999C0 194.034 55.9644 249.999 125 249.999Z" fill="#EDF0F4"/>
<path d="M125.612 208.33C132.381 208.33 137.867 202.843 137.867 196.075C137.867 189.307 132.381 183.82 125.612 183.82C118.844 183.82 113.357 189.307 113.357 196.075C113.357 202.843 118.844 208.33 125.612 208.33Z" fill="#2261F6"/>
<path d="M125.612 66.173C132.381 66.173 137.867 60.6863 137.867 53.918C137.867 47.1498 132.381 41.6631 125.612 41.6631C118.844 41.6631 113.357 47.1498 113.357 53.918C113.357 60.6863 118.844 66.173 125.612 66.173Z" fill="#2261F6"/>
<path d="M125.613 99.6699C131.027 99.6699 135.416 95.2805 135.416 89.866C135.416 84.4514 131.027 80.062 125.613 80.062C120.198 80.062 115.809 84.4514 115.809 89.866C115.809 95.2805 120.198 99.6699 125.613 99.6699Z" fill="#2261F6"/>
<path d="M91.2981 81.6963C96.7127 81.6963 101.102 77.3069 101.102 71.8923C101.102 66.4778 96.7127 62.0884 91.2981 62.0884C85.8835 62.0884 81.4941 66.4778 81.4941 71.8923C81.4941 77.3069 85.8835 81.6963 91.2981 81.6963Z" fill="#2261F6"/>
<path d="M91.2981 188.724C96.7127 188.724 101.102 184.335 101.102 178.92C101.102 173.506 96.7127 169.116 91.2981 169.116C85.8835 169.116 81.4941 173.506 81.4941 178.92C81.4941 184.335 85.8835 188.724 91.2981 188.724Z" fill="#2261F6"/>
<path d="M156.248 118.052C161.663 118.052 166.052 113.663 166.052 108.248C166.052 102.834 161.663 98.4443 156.248 98.4443C150.834 98.4443 146.444 102.834 146.444 108.248C146.444 113.663 150.834 118.052 156.248 118.052Z" fill="#2261F6"/>
<path d="M156.248 151.959C161.663 151.959 166.052 147.57 166.052 142.155C166.052 136.74 161.663 132.351 156.248 132.351C150.834 132.351 146.444 136.74 146.444 142.155C146.444 147.57 150.834 151.959 156.248 151.959Z" fill="#2261F6"/>
<path d="M125.613 169.932C131.027 169.932 135.416 165.542 135.416 160.128C135.416 154.713 131.027 150.324 125.613 150.324C120.198 150.324 115.809 154.713 115.809 160.128C115.809 165.542 120.198 169.932 125.613 169.932Z" fill="#2261F6"/>
<path d="M125.612 132.757C129.899 132.757 133.373 129.282 133.373 124.995C133.373 120.709 129.899 117.234 125.612 117.234C121.326 117.234 117.851 120.709 117.851 124.995C117.851 129.282 121.326 132.757 125.612 132.757Z" fill="#2261F6"/>
<path d="M91.2986 150.326C95.5851 150.326 99.06 146.851 99.06 142.565C99.06 138.278 95.5851 134.803 91.2986 134.803C87.012 134.803 83.5371 138.278 83.5371 142.565C83.5371 146.851 87.012 150.326 91.2986 150.326Z" fill="#2261F6"/>
<path d="M91.2986 116.011C95.5851 116.011 99.06 112.536 99.06 108.25C99.06 103.963 95.5851 100.488 91.2986 100.488C87.012 100.488 83.5371 103.963 83.5371 108.25C83.5371 112.536 87.012 116.011 91.2986 116.011Z" fill="#2261F6"/>
<path d="M57.8016 95.5847C60.96 95.5847 63.5203 93.0244 63.5203 89.8661C63.5203 86.7078 60.96 84.1475 57.8016 84.1475C54.6433 84.1475 52.083 86.7078 52.083 89.8661C52.083 93.0244 54.6433 95.5847 57.8016 95.5847Z" fill="#2261F6"/>
<path d="M57.8016 130.718C60.96 130.718 63.5203 128.158 63.5203 124.999C63.5203 121.841 60.96 119.281 57.8016 119.281C54.6433 119.281 52.083 121.841 52.083 124.999C52.083 128.158 54.6433 130.718 57.8016 130.718Z" fill="#2261F6"/>
<path d="M57.8016 165.843C60.96 165.843 63.5203 163.282 63.5203 160.124C63.5203 156.966 60.96 154.405 57.8016 154.405C54.6433 154.405 52.083 156.966 52.083 160.124C52.083 163.282 54.6433 165.843 57.8016 165.843Z" fill="#2261F6"/>
<path d="M156.249 84.15C163.017 84.15 168.504 78.6633 168.504 71.8951C168.504 65.1269 163.017 59.6401 156.249 59.6401C149.481 59.6401 143.994 65.1269 143.994 71.8951C143.994 78.6633 149.481 84.15 156.249 84.15Z" fill="#2261F6"/>
<path d="M156.249 190.767C163.017 190.767 168.504 185.28 168.504 178.512C168.504 171.744 163.017 166.257 156.249 166.257C149.481 166.257 143.994 171.744 143.994 178.512C143.994 185.28 149.481 190.767 156.249 190.767Z" fill="#2261F6"/>
<path d="M186.887 102.118C193.655 102.118 199.142 96.6311 199.142 89.8629C199.142 83.0946 193.655 77.6079 186.887 77.6079C180.119 77.6079 174.632 83.0946 174.632 89.8629C174.632 96.6311 180.119 102.118 186.887 102.118Z" fill="#2261F6"/>
<path d="M186.887 172.384C193.655 172.384 199.142 166.898 199.142 160.129C199.142 153.361 193.655 147.875 186.887 147.875C180.119 147.875 174.632 153.361 174.632 160.129C174.632 166.898 180.119 172.384 186.887 172.384Z" fill="#2261F6"/>
<path d="M186.887 137.251C193.655 137.251 199.142 131.764 199.142 124.996C199.142 118.228 193.655 112.741 186.887 112.741C180.119 112.741 174.632 118.228 174.632 124.996C174.632 131.764 180.119 137.251 186.887 137.251Z" fill="#2261F6"/>
</g>
<defs>
<clipPath id="clip0_242_94738">
<rect width="250" height="250" fill="white"/>
</clipPath>
</defs>
</svg>
