<svg width="250" height="250" viewBox="0 0 250 250" fill="none" xmlns="http://www.w3.org/2000/svg">
<path d="M198.08 152.17L133.82 142.16L132.63 141.88L194.825 132.745L180.72 130.68L191.64 129.07L122.13 118.78L166.86 112.235L166.825 112.095L183.345 109.645L166.195 107.125L158.6 48.6753L80.8999 81.1203L78.7649 105.445L107.29 109.645L51.9199 118.78L108.06 127.915L96.5799 129.595L117.93 132.745L56.9249 141.88L126.19 152.17L73.9699 159.835L70.8199 195.92H177.745L172.215 156.195L198.08 152.17Z" fill="url(#paint0_linear_242_93715)"/>
<path d="M177.85 195.988H70.9252L58.5352 214.468H190.59L177.85 195.988Z" fill="url(#paint1_linear_242_93715)"/>
<defs>
<linearGradient id="paint0_linear_242_93715" x1="87.128" y1="205.336" x2="172.832" y2="56.8922" gradientUnits="userSpaceOnUse">
<stop offset="0.0503" stop-color="#7E0AE5"/>
<stop offset="0.3797" stop-color="#AC11EE"/>
<stop offset="0.733" stop-color="#D818F7"/>
<stop offset="0.9125" stop-color="#E91BFA"/>
</linearGradient>
<linearGradient id="paint1_linear_242_93715" x1="124.563" y1="214.468" x2="124.563" y2="195.988" gradientUnits="userSpaceOnUse">
<stop stop-color="#002037" stop-opacity="0"/>
<stop offset="1" stop-color="#002037" stop-opacity="0.5"/>
</linearGradient>
</defs>
</svg>
