<svg width="250" height="250" viewBox="0 0 250 250" fill="none" xmlns="http://www.w3.org/2000/svg">
<rect width="250" height="250" rx="125" fill="white"/>
<path d="M60.0188 76.7956C66.9463 70.5481 73.8738 64.3431 80.7163 58.0956C94.5713 45.6431 108.426 33.1906 122.281 20.7381C122.579 20.4406 122.876 20.2281 123.089 20.0156C123.386 19.7181 123.684 19.5056 123.896 19.2931C123.981 19.2081 124.109 19.0806 124.194 19.0806C124.194 19.0806 124.279 19.1656 124.406 19.2931C124.619 19.5056 124.789 19.6756 125.129 20.0156C125.341 20.2281 125.511 20.5256 125.851 20.8231C128.274 23.5431 130.781 26.2631 133.204 28.9406C140.131 36.4631 147.059 44.1131 153.391 51.9331C161.934 62.4731 169.159 73.1406 173.281 84.0631C177.404 94.9006 178.424 106.078 174.471 117.426C170.561 128.858 161.721 140.716 145.869 153.083C142.936 155.208 139.026 155.676 135.329 154.911C131.631 154.103 128.316 151.978 126.701 148.791C124.874 145.476 124.406 142.756 124.576 140.333C124.789 138.038 125.766 135.913 127.296 133.916C128.614 132.088 130.314 130.303 132.099 128.391C132.311 128.178 132.481 128.008 132.609 127.796C134.606 125.671 136.731 123.461 138.431 120.953C155.219 94.0506 119.944 60.0081 91.5112 84.7856C90.3213 85.8906 89.0037 87.0806 87.6012 88.3981L87.5163 88.4831C86.1988 89.8006 84.7963 91.0756 83.3938 92.3081C80.4613 94.9006 77.3588 97.3231 74.3413 98.9381C71.3238 100.553 68.3063 101.233 65.5013 100.638C62.6963 99.9156 59.8913 97.9181 57.0438 93.4131C53.8988 88.6531 55.2163 81.0456 60.0188 76.7956Z" fill="black"/>
<path d="M189.601 172.849C194.829 168.217 196.231 160.099 192.831 154.787C181.399 136.427 166.609 154.702 156.791 163.202C129.166 187.214 95.2088 154.277 111.401 128.352C118.031 118.407 130.696 113.477 123.259 99.6216C119.561 92.6941 108.894 90.3991 102.476 94.9891C38.5988 144.714 85.6888 187.979 122.366 228.779C124.874 231.499 124.279 231.499 127.296 228.864C148.206 209.994 168.819 191.507 189.601 172.849Z" fill="black"/>
</svg>
