<svg width="250" height="250" viewBox="0 0 250 250" fill="none" xmlns="http://www.w3.org/2000/svg">
<g clip-path="url(#clip0_242_93718)">
<path d="M125.151 249.699C194.104 249.699 250.001 193.801 250.001 124.849C250.001 55.8958 194.104 -0.00146484 125.151 -0.00146484C56.198 -0.00146484 0.300781 55.8958 0.300781 124.849C0.300781 193.801 56.198 249.699 125.151 249.699Z" fill="#0022FF"/>
<path d="M119.9 48.4995C152.45 48.4995 178.8 74.8495 178.8 107.35C178.8 139.85 152.4 166.2 119.9 166.2C111.3 166.2 103.1 164.35 95.7496 161.05V138.85C102.3 143.75 110.4 146.6 119.2 146.6C140.9 146.6 158.5 129.05 158.5 107.35C158.5 85.6495 140.9 68.0995 119.2 68.0995C107.3 68.0995 96.6496 73.3995 89.4496 81.7495L69.3496 77.1495C79.5996 59.9995 98.3996 48.4995 119.9 48.4995ZM83.5996 123.95H80.6496V151.2C77.8996 148.7 75.3496 146 73.0996 143.05V128.649L82.8996 122.3C83.0996 122.9 83.3496 123.45 83.5996 123.95Z" fill="white"/>
<path d="M109.301 105.349V200.949H94.2008V115.099L109.301 105.349ZM88.1508 118.999V200.949H73.0508V128.749L88.1508 118.999Z" fill="white"/>
</g>
<defs>
<clipPath id="clip0_242_93718">
<rect width="250" height="250" rx="125" fill="white"/>
</clipPath>
</defs>
</svg>
