<svg width="250" height="250" viewBox="0 0 250 250" fill="none" xmlns="http://www.w3.org/2000/svg">
<mask id="mask0_242_93719" style="mask-type:luminance" maskUnits="userSpaceOnUse" x="37" y="37" width="176" height="176">
<path d="M212.5 37.499H37.5V212.499H212.5V37.499Z" fill="white"/>
</mask>
<g mask="url(#mask0_242_93719)">
<path d="M146.456 146.773H103.196V103.233H146.456V146.773ZM211.766 73.9379C209.981 63.5779 204.276 53.7779 196.016 47.2329C188.351 40.9329 178.551 37.5379 168.646 37.5029C139.281 37.5029 109.881 37.4679 80.481 37.5029C65.151 37.7129 50.661 46.6029 43.206 59.9379C39.076 67.1129 37.501 75.1629 37.501 83.3879C37.536 110.163 37.501 136.973 37.501 163.783C37.466 170.013 37.711 175.998 39.671 181.983C44.011 195.843 55.666 207.043 69.631 210.963C65.431 207.603 63.541 202.913 62.176 197.838C59.341 186.708 59.131 175.193 59.586 163.783C59.551 136.973 59.586 110.198 59.551 83.3879C59.586 78.7679 59.936 74.4279 62.281 70.3679C65.921 63.8579 72.991 59.5179 80.481 59.5879C108.411 59.5879 136.341 59.5879 164.271 59.5879C168.471 59.5879 172.321 59.2729 176.346 60.8129C183.031 63.0529 188.351 69.0379 189.821 75.9329C190.661 79.9929 190.416 84.4729 190.451 88.6029V167.248C190.451 171.098 190.031 174.878 188.351 178.413C184.921 185.588 177.536 190.558 169.521 190.418C147.436 190.453 125.316 190.418 103.196 190.418C103.161 183.208 103.161 175.998 103.196 168.788C121.221 168.788 139.246 168.753 157.306 168.788C161.191 168.998 165.671 167.038 167.456 163.433C168.471 161.613 168.646 159.653 168.681 157.623C168.646 135.783 168.681 113.943 168.681 92.0679C168.856 88.0079 166.896 84.4029 163.326 82.4779C160.351 80.7279 157.131 81.1829 153.806 81.1129C133.156 81.1479 112.471 81.0779 91.856 81.1479C85.941 81.0079 81.041 86.1529 81.216 92.0329C81.146 123.428 81.216 154.998 81.181 186.393C81.356 192.623 81.146 198.538 84.751 203.963C87.481 208.443 92.136 210.683 97.106 211.663C102.986 212.608 108.621 212.398 114.536 212.398C132.561 212.398 150.586 212.398 168.646 212.433C177.606 212.503 186.356 209.598 193.706 204.523C201.616 198.678 207.741 190.663 210.541 181.178C212.501 174.773 212.466 168.543 212.501 161.928C212.501 136.868 212.501 111.843 212.501 86.7829C212.466 82.5829 212.431 78.1729 211.766 73.9379Z" fill="#46D593"/>
</g>
</svg>
