<svg width="250" height="250" viewBox="0 0 250 250" fill="none" xmlns="http://www.w3.org/2000/svg">
<rect width="250" height="250" rx="125" fill="white"/>
<path d="M172.348 191.451C156.334 174.344 140.534 157.467 124.51 140.35C108.658 157.332 92.904 174.207 77.0409 191.199C61.8722 174.71 46.8651 158.395 31.857 142.082C28.4311 138.358 24.9142 134.713 21.6005 130.892C18.4419 127.25 18.1618 123.172 21.439 119.579C39.7382 99.5153 58.1577 79.5607 76.7664 59.3188C92.6796 76.3146 108.513 93.2249 124.575 110.38C140.422 93.4013 156.174 76.5241 172.033 59.5326C188.609 77.5416 205.051 95.3669 221.449 113.232C232.751 125.545 232.763 125.606 221.491 137.912C205.659 155.195 189.761 172.419 173.893 189.671C173.4 190.207 172.937 190.771 172.348 191.451ZM110.55 125.421C99.4439 113.51 88.4683 101.739 77.3754 89.8428C68.4147 99.4218 59.5296 108.714 50.9009 118.238C47.0329 122.507 47.3355 129.225 51.229 133.595C54.5903 137.368 58.1475 140.966 61.6287 144.632C66.8175 150.095 72.0153 155.55 77.2785 161.081C88.4772 149.078 99.4223 137.348 110.55 125.421ZM171.709 160.89C180.675 151.301 189.621 142.046 198.172 132.44C201.846 128.314 202.367 122.754 198.795 118.608C190.226 108.662 180.986 99.2935 171.894 89.5597C160.594 101.663 149.567 113.475 138.523 125.305C149.683 137.272 160.584 148.961 171.709 160.89Z" fill="#2D2D2D"/>
</svg>
