<svg width="250" height="250" viewBox="0 0 250 250" fill="none" xmlns="http://www.w3.org/2000/svg">
<g clip-path="url(#clip0_242_94178)">
<path d="M124.999 249.999C194.035 249.999 249.999 194.035 249.999 124.999C249.999 55.9634 194.035 -0.000976562 124.999 -0.000976562C55.9634 -0.000976562 -0.000976562 55.9634 -0.000976562 124.999C-0.000976562 194.035 55.9634 249.999 124.999 249.999Z" fill="#663300"/>
<path d="M91.3115 78.6162L101.077 54.6865L167.968 54.9287C177.733 55.6631 189.452 55.6631 196.046 63.9678C203.858 72.999 202.147 85.9365 198.241 96.1865C194.476 107.218 187.942 117.097 179.263 124.878C170.585 132.659 160.054 138.081 148.679 140.624C132.569 143.069 116.21 142.335 99.8506 142.335C103.108 134.39 106.366 126.413 109.616 118.405C123.046 118.405 136.718 119.14 150.39 116.944C162.843 113.772 174.319 101.319 172.366 87.6475C171.14 81.7881 164.554 79.1006 158.929 79.1006C136.476 78.124 114.007 79.1006 91.5537 78.6084H91.3115V78.6162Z" fill="white"/>
<path d="M62.499 85.2021H141.843L131.351 112.304H51.749L62.499 85.4443V85.21V85.2021ZM75.1943 118.405H102.78L73.9834 191.647H46.874L75.4365 118.405H75.1943Z" fill="white"/>
</g>
<defs>
<clipPath id="clip0_242_94178">
<rect width="250" height="250" rx="125" fill="white"/>
</clipPath>
</defs>
</svg>
