<svg width="250" height="250" viewBox="0 0 250 250" fill="none" xmlns="http://www.w3.org/2000/svg">
<rect width="250" height="250" rx="125" fill="white"/>
<path d="M124.997 115.861C122.872 116.499 120.747 117.774 119.047 119.261C117.559 120.749 116.497 122.874 115.859 124.999C116.497 127.124 117.772 129.249 119.259 130.949C120.959 132.436 122.872 133.711 124.997 134.349C127.122 133.711 129.247 132.436 130.947 130.949C132.434 129.461 133.709 127.336 134.347 125.211C133.709 123.086 132.434 120.961 130.947 119.261C129.247 117.561 127.334 116.499 124.997 115.861Z" fill="#172026"/>
<path d="M124.998 18.7485C66.348 18.7485 18.748 66.3485 18.748 124.999C18.748 183.649 66.348 231.249 124.998 231.249C183.648 231.249 231.248 183.649 231.248 124.999C231.248 66.3485 183.648 18.7485 124.998 18.7485ZM175.998 154.961C175.573 160.486 173.236 165.374 169.411 169.199C161.123 177.486 148.161 178.336 140.723 170.686L137.111 167.286L143.911 160.486L147.311 163.886C149.011 165.374 151.136 166.436 153.473 166.224C160.273 166.011 165.798 160.699 166.436 153.899C166.648 151.349 165.798 148.799 164.098 146.886L148.586 131.374L141.148 138.811C140.723 139.236 140.298 139.449 139.873 139.874C139.448 140.299 139.236 140.511 138.811 140.936L131.373 148.374L140.511 157.511L133.711 164.311L124.998 155.174L109.486 170.686C105.661 174.511 100.561 176.424 95.0356 175.786C89.5106 175.361 84.623 173.024 80.798 169.199C72.5105 160.911 71.6605 147.949 79.3105 140.511L82.7105 137.111L89.5105 143.911L86.1105 147.311C84.623 149.011 83.5605 151.136 83.773 153.474C83.9855 160.274 89.298 165.799 96.0981 166.436C98.648 166.649 101.198 165.799 103.111 164.099L118.623 148.586L111.186 141.149C110.761 140.724 110.548 140.299 110.123 139.874C109.698 139.449 109.486 139.236 109.061 138.811L101.623 131.374L92.4855 140.511L85.6855 133.711L94.823 124.574L79.3105 109.061C75.4855 105.236 73.573 100.136 74.2105 94.611C74.6355 89.086 76.973 84.1985 80.798 80.3735C89.0855 72.086 102.048 71.236 109.486 78.886L112.886 82.286L106.086 89.086L102.686 85.686C100.986 84.1985 98.8605 83.136 96.523 83.3485C89.723 83.561 84.198 88.8735 83.5605 95.6735C83.348 98.2235 84.1981 100.774 85.898 102.686L101.411 118.199L108.848 110.761C109.273 110.336 109.698 110.124 110.123 109.699C110.548 109.274 110.761 109.061 111.186 108.636L118.623 101.199L109.486 92.061L116.286 85.261L125.423 94.3985L140.936 78.886C144.761 75.061 149.861 73.1485 155.386 73.786C160.911 74.211 165.798 76.5485 169.623 80.3735C177.911 88.661 178.761 101.624 171.111 109.061L167.711 112.674L160.911 105.874L164.311 102.474C165.798 100.774 166.861 98.6485 166.648 96.311C166.436 89.511 161.123 83.986 154.323 83.3485C151.773 83.136 149.223 83.986 147.311 85.686L131.798 101.199L139.236 108.636C139.661 109.061 139.873 109.486 140.298 109.911C140.723 110.336 140.936 110.549 141.361 110.974L148.798 118.411L157.936 109.274L164.736 116.074L155.173 124.999L170.686 140.511C174.511 144.336 176.423 149.649 175.998 154.961Z" fill="#172026"/>
</svg>
