<svg width="250" height="250" viewBox="0 0 250 250" fill="none" xmlns="http://www.w3.org/2000/svg">
<g clip-path="url(#clip0_242_94273)">
<path d="M124.995 103.027C112.886 103.027 103.022 112.89 103.022 125C103.022 129.052 106.294 132.324 110.347 132.324C114.399 132.324 117.671 129.052 117.671 125C117.671 120.947 120.942 117.675 124.995 117.675C129.048 117.675 132.319 114.404 132.319 110.351C132.319 106.298 129.048 103.027 124.995 103.027Z" fill="black"/>
<path d="M232.318 137.988C243.207 129.833 249.994 116.992 249.994 103.027C249.994 84.1792 237.689 67.5776 219.965 61.5229C217.523 35.2534 195.551 14.6479 168.939 14.6479C166.449 14.6479 163.91 14.8433 161.273 15.3315C151.605 5.51709 138.617 -0.000488281 124.994 -0.000488281C111.371 -0.000488281 98.3828 5.51709 88.7148 15.3315C86.0293 14.8921 83.4902 14.6479 81.0488 14.6479C54.1934 14.6479 31.9766 35.5952 29.5352 61.5229C12.1035 67.5776 -0.00585938 84.1792 -0.00585938 103.027C-0.00585938 117.089 6.73242 129.98 17.4746 138.085C5.85352 144.824 -0.00585938 152.734 -0.00585938 161.621C-0.00585938 161.816 -0.00585938 162.011 -0.00585938 162.255C0.482422 210.693 56.3418 250 124.994 250C193.646 250 249.506 210.693 249.994 162.207C249.994 162.011 249.994 161.816 249.994 161.572C249.994 152.685 244.037 144.726 232.318 137.988ZM235.346 103.027C235.346 115.283 227.338 126.318 215.668 130.566C204.584 126.66 191.156 123.486 176.166 121.289C175.775 115.869 174.506 110.693 172.553 105.859L213.764 74.9507C226.41 78.5151 235.346 89.9897 235.346 103.027ZM161.371 30.1753C164.105 29.5894 166.596 29.2964 168.939 29.2964C187.982 29.2964 203.607 44.0425 205.365 62.8901L165.082 93.1147C159.809 86.5229 152.973 81.2495 145.111 77.8804L161.371 30.1753ZM161.615 125C161.615 145.214 145.209 161.621 124.994 161.621C104.779 161.621 88.373 145.214 88.373 125C88.373 104.785 104.779 88.3784 124.994 88.3784C145.209 88.3784 161.615 104.785 161.615 125ZM124.994 14.6479C133.539 14.6479 141.742 17.7241 148.285 23.2417L130.902 74.0718C128.949 73.8276 126.996 73.73 124.994 73.73C122.992 73.73 121.039 73.8276 119.086 74.0718L101.703 23.2417C108.246 17.7241 116.449 14.6479 124.994 14.6479ZM81.0488 29.2964C83.3926 29.2964 85.834 29.5894 88.6172 30.1753L104.877 77.8315C97.0156 81.2007 90.1309 86.4741 84.8574 93.1147L44.1348 62.8413C45.9902 44.3354 62.1523 29.2964 81.0488 29.2964ZM14.6426 103.027C14.6426 89.9409 23.3828 78.4663 35.7852 74.9019L77.4355 105.859C75.4824 110.693 74.2617 115.869 73.8711 121.289C58.7344 123.535 45.2578 126.708 34.125 130.664C22.5527 126.513 14.6426 115.429 14.6426 103.027ZM124.994 235.351C77.875 235.351 37.543 215.087 21.7715 187.5C49.5059 201.367 93.5488 205.566 124.994 205.566C156.439 205.566 200.482 201.318 228.217 187.5C212.055 215.771 171.137 235.351 124.994 235.351ZM124.994 190.917C56.5371 190.917 14.6426 172.949 14.6426 161.621C14.6426 158.447 18.9883 153.076 31.0977 147.558C42.0352 142.626 57.3672 138.574 74.8965 135.888C75.4336 138.427 76.166 140.869 77.0938 143.261C67.377 149.56 61.2246 156.396 60.9316 156.738C58.2461 159.765 58.4902 164.355 61.5176 167.089C64.5449 169.824 69.1836 169.531 71.8691 166.503C71.918 166.455 76.7031 161.181 84.2715 156.103C93.6465 168.359 108.393 176.269 124.994 176.269C141.596 176.269 156.342 168.359 165.717 156.103C173.236 161.181 178.07 166.455 178.119 166.503C180.805 169.531 185.443 169.775 188.471 167.089C191.498 164.404 191.742 159.765 189.057 156.738C188.764 156.396 182.611 149.609 172.895 143.261C173.822 140.869 174.555 138.427 175.092 135.888C216.107 142.138 235.346 154.345 235.346 161.572C235.346 172.802 194.037 190.917 124.994 190.917Z" fill="black"/>
<path d="M235.349 103.029C235.349 115.285 227.341 126.32 215.671 130.568C204.587 126.662 191.159 123.488 176.169 121.291C175.778 115.871 174.509 110.695 172.556 105.861L213.767 74.9526C226.413 78.5171 235.349 89.9917 235.349 103.029Z" fill="#8A67AC"/>
<path d="M161.376 30.1743C164.11 29.5884 166.601 29.2954 168.944 29.2954C187.987 29.2954 203.612 44.0415 205.37 62.8892L165.087 93.1138C159.813 86.522 152.978 81.2485 145.116 77.8794L161.376 30.1743Z" fill="#8A67AC"/>
<path d="M124.999 161.621C145.224 161.621 161.62 145.225 161.62 125C161.62 104.774 145.224 88.3784 124.999 88.3784C104.774 88.3784 88.3779 104.774 88.3779 125C88.3779 145.225 104.774 161.621 124.999 161.621Z" fill="black"/>
<path d="M124.998 14.6479C133.543 14.6479 141.746 17.7241 148.289 23.2417L130.906 74.0718C128.953 73.8276 127 73.73 124.998 73.73C122.996 73.73 121.043 73.8276 119.09 74.0718L101.707 23.2417C108.25 17.7241 116.453 14.6479 124.998 14.6479Z" fill="#8A67AC"/>
<path d="M81.0508 29.2954C83.3946 29.2954 85.836 29.5884 88.6192 30.1743L104.879 77.8306C97.0176 81.1997 90.1329 86.4731 84.8594 93.1138L44.1367 62.8403C45.9922 44.3345 62.1543 29.2954 81.0508 29.2954Z" fill="#8A67AC"/>
<path d="M14.6484 103.027C14.6484 89.9409 23.3887 78.4663 35.791 74.9019L77.4414 105.859C75.4883 110.693 74.2676 115.869 73.8769 121.289C58.7402 123.535 45.2637 126.708 34.1309 130.664C22.5586 126.513 14.6484 115.429 14.6484 103.027Z" fill="#8A67AC"/>
<path d="M124.999 235.351C77.8799 235.351 37.5479 215.087 21.7764 187.499C49.5107 201.366 93.5537 205.565 124.999 205.565C156.444 205.565 200.487 201.317 228.222 187.499C212.06 215.771 171.142 235.351 124.999 235.351Z" fill="#8C69AF"/>
<path d="M125 190.919C56.543 190.919 14.6484 172.951 14.6484 161.623C14.6484 158.449 18.9941 153.078 31.1035 147.56C42.041 142.628 57.373 138.576 74.9023 135.89C75.4394 138.429 76.1719 140.871 77.0996 143.263C67.3828 149.562 61.2305 156.398 60.9375 156.74C58.252 159.767 58.4961 164.357 61.5234 167.091C64.5508 169.826 69.1894 169.533 71.875 166.505C71.9238 166.457 76.709 161.183 84.2773 156.105C93.6523 168.361 108.398 176.271 125 176.271C141.602 176.271 156.348 168.361 165.723 156.105C173.242 161.183 178.076 166.457 178.125 166.505C180.811 169.533 185.449 169.777 188.477 167.091C191.504 164.406 191.748 159.767 189.062 156.74C188.77 156.398 182.617 149.611 172.9 143.263C173.828 140.871 174.561 138.429 175.098 135.89C216.113 142.14 235.352 154.347 235.352 161.574C235.352 172.804 194.043 190.919 125 190.919Z" fill="#B49AC9"/>
<path d="M124.948 161.671C145.174 161.671 161.569 145.276 161.569 125.05C161.569 104.825 145.174 88.4292 124.948 88.4292C104.723 88.4292 88.3271 104.825 88.3271 125.05C88.3271 145.276 104.723 161.671 124.948 161.671Z" fill="#E5E5E5"/>
<path d="M115.719 133.593C125.562 133.593 133.541 125.613 133.541 115.771C133.541 105.928 125.562 97.9482 115.719 97.9482C105.876 97.9482 97.8965 105.928 97.8965 115.771C97.8965 125.613 105.876 133.593 115.719 133.593Z" fill="url(#paint0_linear_242_94273)"/>
</g>
<defs>
<linearGradient id="paint0_linear_242_94273" x1="97.8818" y1="115.766" x2="133.526" y2="115.766" gradientUnits="userSpaceOnUse">
<stop offset="0.00558659" stop-color="#F2F2F2"/>
<stop offset="1" stop-color="white"/>
</linearGradient>
<clipPath id="clip0_242_94273">
<rect width="250" height="250" rx="125" fill="white"/>
</clipPath>
</defs>
</svg>
