<svg width="250" height="250" viewBox="0 0 250 250" fill="none" xmlns="http://www.w3.org/2000/svg">
<g clip-path="url(#clip0_926_2459)">
<rect width="250" height="250" rx="125" fill="#042169"/>
<path d="M60.2 260.002H-10C-10 170.004 -10 79.9997 -10 -9.99805C79.9978 -9.99805 170.002 -9.99805 260 -9.99805C260 79.9997 260 170.004 260 260.002C205.102 260.002 150.198 260.002 95.3 260.002V182.33C97.1765 183.126 98.189 183.545 99.188 183.983C110.379 188.877 122.071 190.565 134.126 188.85C169.361 183.848 193.594 151.934 189.166 116.571C185.838 89.9897 166.54 68.4437 140.329 62.0447C114.376 55.7065 87.011 66.2432 71.918 88.2347C63.9395 99.8582 60.4227 112.832 60.3822 126.71C60.254 169.68 60.3553 212.651 60.3553 255.621C60.3553 257.079 60.254 258.537 60.2 259.995V260.002Z" fill="#1D2549"/>
<path d="M60.2002 260.002C60.2542 258.544 60.3554 257.086 60.3554 255.628C60.3554 212.657 60.2542 169.687 60.3824 126.716C60.4229 112.832 63.9397 99.8648 71.9182 88.2413C87.0179 66.243 114.376 55.713 140.329 62.0513C166.533 68.4503 185.838 89.9963 189.166 116.578C193.594 151.934 169.368 183.848 134.126 188.857C122.071 190.571 110.38 188.884 99.1882 183.99C98.1892 183.551 97.1767 183.133 95.3002 182.336V260.009H60.2002V260.002ZM125.169 94.377C108.139 94.3568 94.5105 107.931 94.5037 124.914C94.5037 141.641 108.206 155.438 124.892 155.498C141.902 155.566 155.611 141.965 155.625 125.022C155.638 107.83 142.287 94.3973 125.169 94.3838V94.377Z" fill="#AFEB3E"/>
<path d="M125.169 94.3779C142.287 94.3981 155.639 107.824 155.625 125.016C155.612 141.965 141.902 155.56 124.892 155.492C108.206 155.432 94.5039 141.635 94.5039 124.908C94.5039 107.932 108.139 94.3576 125.169 94.3711V94.3779Z" fill="#1D2549"/>
</g>
<defs>
<clipPath id="clip0_926_2459">
<rect width="250" height="250" rx="125" fill="white"/>
</clipPath>
</defs>
</svg>
