<svg width="250" height="250" viewBox="0 0 250 250" fill="none" xmlns="http://www.w3.org/2000/svg">
<rect width="250" height="250" rx="125" fill="white"/>
<g clip-path="url(#clip0_242_94414)">
<path d="M212.742 137.339C203.759 133.992 193.717 138.488 190.335 147.382C189.577 149.38 188.164 151.928 186.145 154.677C183.167 158.824 178.878 163.22 174.286 167.118C169.693 171.016 164.746 174.413 160.709 176.661C149.874 182.747 137.657 185.948 125.229 185.955C119.936 185.942 114.658 185.373 109.483 184.257C100.096 182.208 90.8096 188.053 88.6902 197.348C86.6218 206.641 92.5255 215.834 101.913 217.932C127.747 223.651 154.782 219.668 177.868 206.74C187.049 201.504 195.528 195.125 203.103 187.755C207.219 183.807 210.984 179.51 214.358 174.912C217.739 170.266 220.717 165.219 222.886 159.573C223.689 157.448 224.064 155.185 223.988 152.914C223.912 150.644 223.388 148.411 222.444 146.344C221.501 144.277 220.159 142.417 218.493 140.871C216.828 139.326 214.874 138.125 212.742 137.339Z" fill="#7A7AF7"/>
<path d="M212.732 137.339C203.747 133.992 193.705 138.488 190.323 147.382C189.566 149.38 188.153 151.928 186.134 154.677C183.156 158.824 178.867 163.22 174.274 167.118C169.682 171.016 164.736 174.413 160.698 176.661C149.863 182.747 137.647 185.947 125.22 185.955C119.926 185.942 114.649 185.373 109.474 184.257C100.086 182.208 90.7998 188.053 88.6805 197.348C86.612 206.641 92.5157 215.834 101.903 217.932C127.737 223.651 154.772 219.668 177.858 206.74C187.039 201.504 195.518 195.125 203.093 187.755C207.209 183.807 210.974 179.51 214.348 174.912C217.729 170.266 220.707 165.219 222.876 159.573C223.679 157.448 224.054 155.185 223.978 152.914C223.902 150.644 223.378 148.41 222.434 146.343C221.491 144.276 220.149 142.417 218.483 140.871C216.818 139.326 214.863 138.125 212.732 137.339Z" fill="#FCA311"/>
<path d="M231.813 107.009C230.692 91.3149 226.033 76.0784 218.186 62.441C211.238 50.3165 201.979 39.6731 190.933 31.1137C180.213 22.8742 168.041 16.7217 155.05 12.9763C145.814 10.3285 136.176 15.5744 133.5 24.7181C130.825 33.8618 136.124 43.4049 145.361 46.0527C154.136 48.5681 162.355 52.7216 169.585 58.2939C177.043 64.0381 183.287 71.2047 187.956 79.3789C193.239 88.5691 196.379 98.8337 197.142 109.407C197.797 118.9 206.125 126.045 215.714 125.395C225.253 124.746 232.47 116.502 231.813 107.009Z" fill="white"/>
<path d="M231.813 107.009C230.692 91.3149 226.033 76.0784 218.186 62.441C211.238 50.3165 201.979 39.6731 190.933 31.1137C180.213 22.8742 168.041 16.7217 155.05 12.9763C145.814 10.3285 136.176 15.5744 133.5 24.7181C130.825 33.8618 136.124 43.4049 145.361 46.0527C154.136 48.5681 162.355 52.7216 169.585 58.2939C177.043 64.0381 183.287 71.2047 187.956 79.3789C193.239 88.5691 196.379 98.8337 197.142 109.407C197.797 118.9 206.125 126.045 215.714 125.395C225.253 124.746 232.47 116.502 231.813 107.009Z" fill="#FCA311"/>
<path d="M107.763 45.3063C117.1 43.0078 122.752 33.6645 120.431 24.4213C118.109 15.178 108.673 9.58159 99.3347 11.8801C89.9321 14.1836 80.8836 17.7466 72.4348 22.4724C55.7248 31.805 41.8451 45.4769 32.2614 62.0441C23.0282 78.0402 18.1716 96.1864 18.1807 114.656V221.429C18.1807 230.923 25.9528 238.667 35.592 238.667C45.2313 238.667 53.0034 230.973 53.0034 221.429V114.357C53.0544 101.724 56.4656 89.3329 62.8868 78.454C69.308 67.575 78.5081 58.6004 89.543 52.4511C95.2819 49.2915 101.406 46.8899 107.763 45.3063Z" fill="white"/>
<path d="M107.759 45.3063C117.096 43.0078 122.749 33.6645 120.427 24.4213C118.104 15.178 108.667 9.58159 99.3312 11.8801C89.9286 14.1836 80.8802 17.7466 72.4314 22.4724C55.7212 31.805 41.8414 45.4768 32.2575 62.0441C23.0243 78.0402 18.1677 96.1864 18.1768 114.656V221.429C18.1768 230.923 25.9489 238.667 35.5881 238.667C45.2274 238.667 52.9995 230.973 52.9995 221.429V114.357C53.0505 101.724 56.4617 89.3329 62.8829 78.454C69.3041 67.575 78.5042 58.6004 89.5391 52.4511C95.2779 49.2915 101.402 46.8899 107.759 45.3063Z" fill="#FCA311"/>
<path d="M95.5644 84.1862C78.3547 101.174 75.831 148.34 84.4109 156.835C92.9402 165.328 140.532 162.98 157.792 145.992C161.882 141.965 165.131 137.166 167.353 131.874C169.574 126.581 170.722 120.9 170.732 115.161C170.741 109.421 169.611 103.737 167.408 98.437C165.204 93.1373 161.97 88.3276 157.894 84.2869C140.735 67.1985 112.825 67.1985 95.5644 84.1862Z" fill="url(#paint0_linear_242_94414)"/>
</g>
<defs>
<linearGradient id="paint0_linear_242_94414" x1="114.777" y1="154.054" x2="137.447" y2="81.2849" gradientUnits="userSpaceOnUse">
<stop stop-color="#A893E8"/>
<stop offset="1" stop-color="#9EA1DC"/>
</linearGradient>
<clipPath id="clip0_242_94414">
<rect width="227.302" height="227.302" fill="white" transform="translate(11.3652 11.3638)"/>
</clipPath>
</defs>
</svg>
