<svg width="250" height="250" viewBox="0 0 250 250" fill="none" xmlns="http://www.w3.org/2000/svg">
<g clip-path="url(#clip0_242_93727)">
<path fill-rule="evenodd" clip-rule="evenodd" d="M118.549 6.09814V11.4985C120.45 10.7485 122.2 9.74839 123.8 8.4983C122 8.4983 120.2 6.09814 118.399 6.09814H118.549Z" fill="black"/>
<path fill-rule="evenodd" clip-rule="evenodd" d="M124.9 6.44814C123 6.44814 121 6.14814 119.15 6.09814H118.55C52.9504 9.64814 2.6004 65.7481 6.1504 131.398C8.1504 168.098 26.9504 201.848 57.2004 222.848C49.5004 215.898 45.1504 205.948 45.1504 195.598C45.3004 175.298 61.7004 158.898 82.0004 158.748L89.3504 158.498V156.898C89.3504 141.048 99.5004 127.048 114.55 122.098C118.25 120.848 122.1 120.248 125.95 120.248C140.35 120.248 153.45 128.698 159.35 141.848C193.25 118.598 201.85 72.2981 178.6 38.3981C166.3 20.3481 146.65 8.69814 124.9 6.44814Z" fill="#B4E1FF"/>
<path fill-rule="evenodd" clip-rule="evenodd" d="M128.8 6.09814C193.15 13.8981 213.05 61.1481 213.1 103.798C213.1 147.448 176.45 179.248 144.4 187.648C132.45 190.598 120.3 192.748 108.1 194.198L103.25 194.798C102.1 194.948 100.95 195.198 99.7996 195.548C92.8496 197.598 87.1496 202.698 84.3996 209.398C83.1996 212.298 82.5996 215.348 82.5996 218.498C82.5996 228.698 89.0496 237.748 98.6496 241.148C100.3 241.548 102.05 241.848 103.8 242.198C110.8 243.448 117.85 244.048 124.95 244.048C190.65 243.848 243.8 190.398 243.55 124.648C243.35 60.6981 192.7 8.39814 128.8 6.09814Z" fill="#90D595"/>
<path fill-rule="evenodd" clip-rule="evenodd" d="M128.8 6.09814C127.5 6.09814 126.25 6.09814 124.9 6.09814C123 6.09814 121 6.09814 119.15 6.09814C121.1 6.09814 123.05 6.29814 124.9 6.49814C165.8 10.5481 195.6 46.9981 191.5 87.8481C189.3 109.748 177.55 129.498 159.4 141.898C151.25 123.398 129.6 114.998 111.1 123.198C97.7497 129.098 89.1497 142.348 89.2497 156.948V158.498L81.8497 158.748C61.4997 158.798 45.0497 175.298 45.0997 195.648C45.0997 205.998 49.4997 215.848 57.1497 222.798C59.4997 224.448 61.8497 225.898 64.2997 227.398C74.9497 233.748 86.5497 238.348 98.5997 241.048C88.9997 237.698 82.5497 228.648 82.5497 218.448C82.5497 215.298 83.1497 212.198 84.3497 209.348C87.1497 202.648 92.7997 197.548 99.7497 195.498C100.9 195.198 102 194.948 103.2 194.798L108.05 194.248C120.25 192.798 132.4 190.598 144.35 187.648C176.4 179.198 213.1 147.398 213.05 103.798C213.1 60.8981 193.15 13.6981 128.8 6.09814Z" fill="white"/>
<path fill-rule="evenodd" clip-rule="evenodd" d="M124.95 -0.000585936C122.9 -0.000585936 121.05 -0.000585936 118.9 -0.000585936H118.65C49.7504 3.44941 -3.29961 62.1494 0.150385 131.099C2.10038 169.749 21.8504 205.349 53.6504 227.449C55.9504 229.499 58.4504 231.299 61.1004 232.849C61.7504 233.199 62.5004 233.399 63.2504 233.499C73.8504 239.549 85.3004 243.999 97.2004 246.699C99.1504 247.349 101.15 247.849 103.15 248.049C110.4 249.349 117.7 249.999 125.05 249.999C194.1 251.199 251 196.249 252.2 127.199C253.4 58.1494 198.4 1.19941 129.35 -0.000585936C127.9 -0.0505859 126.45 -0.0505859 124.95 -0.000585936ZM78.2004 227.849C71.9504 225.049 66.0004 221.649 60.4004 217.749C48.1504 205.849 47.8504 186.299 59.7504 174.049C65.6004 168.049 73.6504 164.649 82.0004 164.699C84.4004 164.699 87.2004 164.699 89.5004 164.449C92.7004 164.299 95.2004 161.699 95.2504 158.499V156.949C95.2504 139.999 108.95 126.249 125.9 126.249C138 126.249 149 133.349 153.95 144.399C155.3 147.349 158.75 148.699 161.75 147.399C162.05 147.249 162.35 147.049 162.6 146.799C196.3 123.899 207.4 79.3494 188.45 43.2994C204.35 63.8994 207 89.3494 207 103.699C207 143.449 173.9 173.599 142.75 181.599C129.4 184.799 115.9 187.099 102.25 188.549C87.5004 190.649 76.5504 203.249 76.5004 218.149C76.5504 221.349 77.1004 224.499 78.1504 227.549L78.2004 227.849ZM12.0004 124.999C11.9504 64.3494 59.8504 14.4494 120.45 12.0494C158.15 13.6494 187.4 45.4994 185.8 83.1994C185 102.449 176.05 120.449 161.25 132.799C148.05 113.349 121.55 108.299 102.1 121.499C91.6504 128.599 84.9004 139.949 83.6504 152.499H81.8004C58.1504 152.499 38.9504 171.699 38.9504 195.349C38.9504 196.399 38.9504 197.399 39.2004 198.449C21.6004 177.999 11.9004 151.949 11.9504 124.999H12.0004ZM124.95 237.949C116.6 237.899 108.25 236.949 100.1 235.099C90.8504 231.599 86.1504 221.199 89.6504 211.949C91.9504 205.849 97.3504 201.499 103.8 200.549C118 198.999 132.05 196.549 145.9 193.249C181.35 183.949 219.05 149.349 219 103.649C219.55 82.3994 214 61.4494 203.05 43.2494C248.25 86.2994 249.95 157.799 206.95 202.949C185.65 225.349 156.05 237.999 125.15 237.999L124.95 237.949Z" fill="#41474E"/>
</g>
<defs>
<clipPath id="clip0_242_93727">
<rect width="250" height="250" rx="125" fill="white"/>
</clipPath>
</defs>
</svg>
