<svg width="250" height="250" viewBox="0 0 250 250" fill="none" xmlns="http://www.w3.org/2000/svg">
<path fill-rule="evenodd" clip-rule="evenodd" d="M87.6642 52.9043C97.4992 43.2793 113.214 43.2793 123.049 52.9043L146.324 75.6893C156.439 85.5943 156.439 101.904 146.324 111.809L105.794 151.534L134.879 180.024C140.409 185.449 140.514 194.339 135.089 199.869C129.664 205.399 120.774 205.504 115.244 200.079L44.7542 131.094C34.6392 121.154 34.6392 104.879 44.7542 94.9743L87.6642 52.9043ZM85.7042 131.899L124.624 93.7843L105.374 74.9193L66.4542 113.034L85.7042 131.899Z" fill="#3CEAAA"/>
<path fill-rule="evenodd" clip-rule="evenodd" d="M146.183 72.1543C156.018 62.5293 171.733 62.5293 181.568 72.1543L204.843 94.9393C214.958 104.844 214.958 121.154 204.843 131.059L134.388 200.114C128.858 205.539 119.968 205.434 114.543 199.904C109.118 194.374 109.223 185.484 114.753 180.059L143.838 151.569L122.943 131.094C112.828 121.189 112.828 104.879 122.943 94.9743L146.183 72.1543ZM163.893 131.899L183.143 113.034L163.893 94.1693L144.643 113.034L163.893 131.899Z" fill="#03BCE4"/>
<path opacity="0.95" d="M144.608 113.069L124.168 93.644L104.533 112.929L124.518 132.809L144.608 113.069Z" fill="#00A4E1"/>
</svg>
