<svg width="250" height="250" viewBox="0 0 250 250" fill="none" xmlns="http://www.w3.org/2000/svg">
<g clip-path="url(#clip0_242_94403)">
<path d="M204.572 103.799C204.523 96.7726 196.141 83.1201 181.723 78.3141C167.305 73.5081 150.908 78.8794 150.908 78.8794C165.922 78.245 171.445 82.1975 173.275 84.23C168.337 83.1338 162.601 83.2384 155.997 85.0989C148.157 87.3073 141.557 95.4805 136.49 104.606C139.83 107.175 142.452 109.968 143.982 113.027C149.353 101.742 156.954 90.3207 166.457 87.6439C169.344 86.8116 172.314 86.301 175.313 86.1216L204.572 103.799Z" fill="url(#paint0_linear_242_94403)"/>
<path d="M62.1387 195.352C62.1387 195.352 107.936 197.331 134.793 137.964C134.793 137.964 146.384 93.2969 166.456 87.6429C186.529 81.9889 198.585 92.5313 204.571 103.798C204.571 103.798 185.679 99.2331 176.068 113.086C163.4 131.342 167.869 205.529 62.1387 195.352Z" fill="url(#paint1_linear_242_94403)"/>
<path d="M45.4609 79.4443C45.4609 79.4443 134.512 87.36 145.82 113.934C157.128 140.508 150.909 167.647 53.3761 193.656C53.3761 193.656 111.189 157.611 110.34 146.586C109.492 135.561 99.3152 133.864 85.7455 128.493C72.1758 123.122 48.1466 108.421 45.4609 79.4443Z" fill="url(#paint2_linear_242_94403)"/>
<path d="M136.896 103.8L137.903 102.062C104.543 68.986 58.4631 53.7202 58.4631 53.7202C56.2281 65.0808 57.6741 75.3368 58.921 81.0133C79.5459 83.782 118.504 90.5422 136.896 103.8Z" fill="url(#paint3_linear_242_94403)"/>
<path d="M120.533 124.678C107.557 112.007 68.8871 101.984 50.5938 97.8091C59.0149 114.903 75.4106 124.404 85.7436 128.494C99.3133 133.866 109.491 135.562 110.339 146.587C111.187 157.612 53.3742 193.657 53.3742 193.657C56.6083 192.795 59.7419 191.931 62.775 191.066C127.306 158.457 136.856 140.615 120.533 124.678Z" fill="#5D54FF"/>
<path d="M136.895 103.8L137.901 102.062C137.44 101.605 136.976 101.151 136.509 100.7C117.79 87.5003 78.6787 80.8114 58.3496 78.1104C58.5353 79.1764 58.73 80.1478 58.9203 81.0135C79.5454 83.7822 118.503 90.5422 136.895 103.8Z" fill="#3D2CD7"/>
<path d="M176.632 94.1472C177.413 94.1472 178.046 93.5144 178.046 92.7338C178.046 91.9531 177.413 91.3203 176.632 91.3203C175.852 91.3203 175.219 91.9531 175.219 92.7338C175.219 93.5144 175.852 94.1472 176.632 94.1472Z" fill="white"/>
</g>
<defs>
<linearGradient id="paint0_linear_242_94403" x1="144.408" y1="87.8653" x2="196.411" y2="109.722" gradientUnits="userSpaceOnUse">
<stop stop-color="#4034BB"/>
<stop offset="0.826" stop-color="#5B51F3"/>
</linearGradient>
<linearGradient id="paint1_linear_242_94403" x1="62.1387" y1="141.187" x2="204.571" y2="141.187" gradientUnits="userSpaceOnUse">
<stop offset="0.387" stop-color="#5039FF"/>
<stop offset="1" stop-color="#615CFF"/>
</linearGradient>
<linearGradient id="paint2_linear_242_94403" x1="45.4609" y1="136.55" x2="149.953" y2="136.55" gradientUnits="userSpaceOnUse">
<stop offset="0.387" stop-color="#5039FF"/>
<stop offset="1" stop-color="#615CFF"/>
</linearGradient>
<linearGradient id="paint3_linear_242_94403" x1="57.2968" y1="78.7599" x2="137.902" y2="78.7599" gradientUnits="userSpaceOnUse">
<stop offset="0.387" stop-color="#5039FF"/>
<stop offset="1" stop-color="#615CFF"/>
</linearGradient>
<clipPath id="clip0_242_94403">
<rect width="159.112" height="159.112" fill="white" transform="translate(45.459 45.458)"/>
</clipPath>
</defs>
</svg>
