<svg width="250" height="250" viewBox="0 0 250 250" fill="none" xmlns="http://www.w3.org/2000/svg">
<g clip-path="url(#clip0_242_94189)">
<path d="M124.998 249.999C194.034 249.999 249.998 194.035 249.998 124.999C249.998 55.9634 194.034 -0.000976562 124.998 -0.000976562C55.9624 -0.000976562 -0.00195312 55.9634 -0.00195312 124.999C-0.00195312 194.035 55.9624 249.999 124.998 249.999Z" fill="#96B73D"/>
<path d="M90.5768 125.82C91.2486 127.835 92.2408 129.726 93.5221 131.429L74.0455 111.757C72.016 109.71 70.8773 106.944 70.8773 104.062C70.8773 101.179 72.016 98.4136 74.0455 96.3667L98.6158 71.7807C99.1236 71.4057 99.608 70.9995 100.077 70.5776L100.788 69.9526L120.686 50.0385C121.687 49.0336 122.877 48.2366 124.187 47.6935C125.497 47.1504 126.902 46.8719 128.32 46.874C129.738 46.8762 131.142 47.159 132.451 47.7062C133.759 48.2533 134.946 49.0539 135.944 50.062L201.124 115.71C202.609 117.821 203.305 120.388 203.089 122.96C202.874 125.532 201.76 127.947 199.944 129.781C198.151 131.589 195.792 132.727 193.26 133.004C190.729 133.281 188.18 132.681 186.038 131.304L128.46 73.1792L128.397 73.101L128.21 72.8979L97.4049 103.71L96.9361 104.101C96.9183 104.122 96.9001 104.143 96.8815 104.164L127.319 134.843C128.659 136.197 129.622 137.879 130.112 139.72C130.602 141.561 130.602 143.498 130.113 145.339C129.623 147.181 128.661 148.862 127.321 150.217C125.981 151.571 124.311 152.552 122.475 153.062C120.64 153.556 118.707 153.556 116.872 153.06C115.037 152.565 113.367 151.592 112.03 150.242L96.4361 134.539C96.2096 134.335 95.983 134.07 95.7018 133.789L94.983 133.07C94.4604 132.482 93.9726 131.863 93.5221 131.218L93.8736 131.632L93.6393 131.328C92.3306 129.667 91.2966 127.808 90.5768 125.82ZM154.217 145.921L123.741 115.226C121.711 113.179 120.573 110.413 120.573 107.531C120.573 104.648 121.711 101.882 123.741 99.8354C124.744 98.8293 125.936 98.0316 127.248 97.4882C128.56 96.9449 129.967 96.6667 131.388 96.6696C132.808 96.6725 134.214 96.9565 135.525 97.5052C136.835 98.0539 138.023 98.8565 139.022 99.8667L154.624 115.57C154.842 115.765 155.069 116.039 155.358 116.312L156.069 117.031C156.475 117.484 156.85 117.968 157.194 118.46L157.366 118.671C157.146 118.358 156.922 118.048 156.694 117.742L177.085 138.265C179.117 140.314 180.257 143.083 180.257 145.968C180.257 148.854 179.117 151.623 177.085 153.671L152.499 178.265C151.984 178.633 151.489 179.026 151.014 179.445L130.514 199.945C129.515 200.952 128.326 201.752 127.016 202.298C125.706 202.844 124.301 203.125 122.881 203.125C121.462 203.125 120.057 202.844 118.747 202.298C117.437 201.752 116.248 200.952 115.249 199.945L49.0221 133.171C47.4085 130.982 46.6632 128.272 46.9301 125.566C47.197 122.859 48.4572 120.347 50.4674 118.515C52.4712 116.693 55.0865 115.689 57.7951 115.704C60.5038 115.718 63.1082 116.749 65.0924 118.593L122.78 176.835L122.975 177.07L153.717 146.335L154.171 145.968C154.186 145.952 154.202 145.937 154.217 145.921Z" fill="white"/>
</g>
<defs>
<clipPath id="clip0_242_94189">
<rect width="250" height="250" rx="125" fill="white"/>
</clipPath>
</defs>
</svg>
