<svg width="250" height="250" viewBox="0 0 250 250" fill="none" xmlns="http://www.w3.org/2000/svg">
<g clip-path="url(#clip0_242_94410)">
<path d="M204.573 125.012C204.573 168.348 169.442 203.479 126.106 203.479H60.4022C52.1505 203.479 45.4609 196.79 45.4609 188.538V61.4871C45.4609 53.2353 52.1505 46.5459 60.4022 46.5459H126.106C169.442 46.5459 204.573 81.6765 204.573 125.012Z" fill="url(#paint0_linear_242_94410)"/>
<path d="M84.8904 170.525C81.5397 165.086 83.2323 157.96 88.6713 154.61L151.102 116.025C156.541 112.674 163.666 114.367 167.017 119.806C170.368 125.244 168.675 132.37 163.236 135.721L100.806 174.306C95.3667 177.656 88.2412 175.964 84.8904 170.525Z" fill="white"/>
<path d="M94.7369 176.025C88.3487 176.025 83.1699 170.847 83.1699 164.458V85.8033C83.1699 79.4151 88.3485 74.2363 94.7369 74.2363C101.125 74.2363 106.304 79.4149 106.304 85.8033V164.458C106.304 170.847 101.125 176.025 94.7369 176.025Z" fill="white"/>
<path d="M121.18 134.519L106.305 143.712V164.46C106.305 168.71 104.006 172.415 100.59 174.425C100.661 174.383 100.736 174.35 100.807 174.306L132.753 154.562L121.18 134.519L121.18 134.519Z" fill="url(#paint1_linear_242_94410)"/>
<path d="M106.304 86.1626H83.1699V117.257H106.304V86.1626Z" fill="url(#paint2_linear_242_94410)"/>
<path d="M151.102 135.718L88.6713 95.6529C83.2323 92.3021 81.5397 85.1766 84.8904 79.7377C88.2412 74.2988 95.3667 72.606 100.806 75.9569L163.236 116.022C168.675 119.373 170.368 126.499 167.017 131.938C163.666 137.376 156.541 139.069 151.102 135.718Z" fill="white"/>
<path d="M163.237 116.023L129.607 94.4404L117.369 114.07L135.469 125.686L151.102 116.024C155.043 113.596 159.863 113.828 163.497 116.202C163.409 116.144 163.327 116.078 163.237 116.023Z" fill="url(#paint3_linear_242_94410)"/>
</g>
<defs>
<linearGradient id="paint0_linear_242_94410" x1="38.4336" y1="65.4555" x2="179.951" y2="191.422" gradientUnits="userSpaceOnUse">
<stop stop-color="#07E595"/>
<stop offset="0.997" stop-color="#00C7D3"/>
</linearGradient>
<linearGradient id="paint1_linear_242_94410" x1="101.167" y1="160.941" x2="125.157" y2="145.519" gradientUnits="userSpaceOnUse">
<stop offset="0.192" stop-color="#CDF9EC"/>
<stop offset="0.997" stop-color="white"/>
</linearGradient>
<linearGradient id="paint2_linear_242_94410" x1="94.7369" y1="86.1067" x2="94.7369" y2="117.201" gradientUnits="userSpaceOnUse">
<stop stop-color="#CDF9EC"/>
<stop offset="0.997" stop-color="white"/>
</linearGradient>
<linearGradient id="paint3_linear_242_94410" x1="145.989" y1="119.12" x2="125.666" y2="104.546" gradientUnits="userSpaceOnUse">
<stop stop-color="#CDF9EC"/>
<stop offset="0.997" stop-color="white"/>
</linearGradient>
<clipPath id="clip0_242_94410">
<rect width="159.112" height="159.112" fill="white" transform="translate(45.46 45.458)"/>
</clipPath>
</defs>
</svg>
