<svg width="250" height="250" viewBox="0 0 250 250" fill="none" xmlns="http://www.w3.org/2000/svg">
<path d="M118.001 38.1279L72.8271 77.3234L118.001 211.393V38.1279Z" fill="url(#paint0_linear_242_93733)"/>
<path d="M153.953 134.559C165.867 134.559 175.525 124.901 175.525 112.987C175.525 101.074 165.867 91.4155 153.953 91.4155C142.039 91.4155 132.381 101.074 132.381 112.987C132.381 124.901 142.039 134.559 153.953 134.559Z" fill="#55C5E1"/>
<path d="M123.056 112.986C123.056 95.9224 136.889 82.0893 153.953 82.0893C156.476 82.0893 158.927 82.3938 161.274 82.9643L163.174 77.3234L118.001 38.1279V211.393L141.612 141.318C130.691 136.554 123.056 125.663 123.056 112.986Z" fill="url(#paint1_linear_242_93733)"/>
<defs>
<linearGradient id="paint0_linear_242_93733" x1="95.4139" y1="38.1279" x2="95.4139" y2="211.393" gradientUnits="userSpaceOnUse">
<stop stop-color="#3FACD4"/>
<stop offset="0.9995" stop-color="#65CFD9"/>
</linearGradient>
<linearGradient id="paint1_linear_242_93733" x1="140.588" y1="38.1279" x2="140.588" y2="211.393" gradientUnits="userSpaceOnUse">
<stop stop-color="#3FACD4"/>
<stop offset="0.9995" stop-color="#70E5F0"/>
</linearGradient>
</defs>
</svg>
