<svg width="250" height="250" viewBox="0 0 250 250" fill="none" xmlns="http://www.w3.org/2000/svg">
<g clip-path="url(#clip0_242_94760)">
<path d="M125 249.999C194.036 249.999 250 194.035 250 124.999C250 55.9634 194.036 -0.000976562 125 -0.000976562C55.9644 -0.000976562 0 55.9634 0 124.999C0 194.035 55.9644 249.999 125 249.999Z" fill="#303642"/>
<path fill-rule="evenodd" clip-rule="evenodd" d="M162.653 128.999H111.056V77.0806H135.7C140.707 77.0806 144.941 78.2336 148.796 80.1571C152.593 82.0561 155.991 84.6676 158.803 87.8496C161.5 90.9261 163.811 94.3856 165.351 98.6191C166.891 102.849 167.657 106.691 167.657 110.924C167.657 115.537 166.891 119.383 165.351 123.617C164.581 125.536 163.811 127.076 162.653 128.999ZM138.397 102.848C136.47 101.308 134.93 100.542 133.39 100.542H120.298V121.306H134.16C135.7 121.306 137.24 120.536 138.78 119C139.934 117.464 140.708 114.77 140.708 110.924C140.708 107.077 139.938 104.384 138.397 102.848ZM102.972 136.692V174.378H93.7305V144.381H83.332V136.692H102.972ZM102.972 128.999V77.0806H93.7305V121.311H83.332V128.999H102.972ZM111.056 174.382V136.692H156.11C153.992 138.787 151.513 140.481 148.791 141.692C144.941 143.615 140.707 144.381 136.087 144.381H120.297V174.382H111.056Z" fill="url(#paint0_linear_242_94760)"/>
</g>
<defs>
<linearGradient id="paint0_linear_242_94760" x1="83.332" y1="77.0806" x2="83.332" y2="174.382" gradientUnits="userSpaceOnUse">
<stop stop-color="#F0F0F0"/>
<stop offset="1" stop-color="#999797"/>
</linearGradient>
<clipPath id="clip0_242_94760">
<rect width="250" height="250" fill="white"/>
</clipPath>
</defs>
</svg>
