<svg width="250" height="250" viewBox="0 0 250 250" fill="none" xmlns="http://www.w3.org/2000/svg">
<path d="M17.0518 62.999V186.999L124.052 248.999L231.052 186.999V62.999L124.052 0.999023L17.0518 62.999Z" fill="#8340FB"/>
<path d="M201.053 52.9995H176.253L165.153 33.7495H143.053L130.603 12.0995H106.253L105.903 11.4995L89.3027 21.0995L94.4027 29.8995H118.703L131.203 51.5495H153.303L164.403 70.7995H189.153L201.203 91.6495H224.803L231.053 102.45V73.8495H213.053L201.053 52.9995Z" fill="#7936F9"/>
<path d="M201.2 91.6481L189.15 70.7981H164.4L153.3 51.5481H131.2L118.7 29.8981H94.4002L89.3002 21.0981L72.9502 30.5981L83.8002 49.3981H108.15L120.6 71.0481H142.7L153.8 90.2981H178.6L190.6 111.148H214.2L224.75 129.448H231.05V102.448L224.8 91.6481H201.2Z" fill="#702EF7"/>
<path d="M214.202 111.148H190.602L178.602 90.2977H153.802L142.702 71.0477H120.602L108.152 49.3977H83.8018L72.9518 30.5977L43.0518 47.9477H60.0518L73.6518 71.3977H97.9518L110.452 93.0477H132.502L143.652 112.298H168.402L180.452 133.148H204.052L214.602 151.448H231.052V129.448H224.752L214.202 111.148Z" fill="#6527E5"/>
<path d="M214.602 151.448L204.052 133.148H180.452L168.402 112.298H143.652L132.502 93.0478H110.452L97.9518 71.3978H73.6518L60.0518 47.9478H43.0518L17.0518 62.9978V65.0978H48.6518L62.2018 88.5478H86.5018L99.0018 110.198H121.102L132.202 129.448H156.952L169.002 150.298H192.602L203.152 168.598H225.402L231.052 178.348V151.448H214.602Z" fill="#5A22D2"/>
<path d="M203.152 168.599L192.602 150.299H169.002L156.952 129.449H132.202L121.102 110.199H99.0018L86.5018 88.5486H62.2018L48.6518 65.0986H17.0518V83.2986H37.6018L51.2018 106.799H75.5018L88.0018 128.399H110.052L121.202 147.699H145.952L158.002 168.499H181.602L192.152 186.799H214.402L218.652 194.199L231.052 186.999V178.349L225.402 168.599H203.152Z" fill="#501CC1"/>
<path d="M192.152 186.799L181.602 168.499H158.002L145.952 147.699H121.202L110.052 128.399H88.0017L75.5018 106.799H51.2018L37.6018 83.2993H17.0518V102.799H27.0518L40.6018 126.249H64.9018L77.4018 147.899H99.5017L110.602 167.149H135.352L147.402 187.999H171.002L181.552 206.299H197.702L218.652 194.199L214.402 186.799H192.152Z" fill="#4719AC"/>
<path d="M171.002 188H147.402L135.352 167.15H110.602L99.5018 147.9H77.4018L64.9018 126.25H40.6018L27.0518 102.8H17.0518V121.3L30.4018 144.5H54.7518L67.2518 166.1H89.3018L100.452 185.4H125.202L137.252 206.2H160.802L170.102 222.3L197.702 206.3H181.552L171.002 188Z" fill="#3A128F"/>
<path d="M160.802 206.198H137.252L125.202 185.398H100.452L89.3018 166.098H67.2518L54.7518 144.498H30.4018L17.0518 121.298V159.098L17.8018 160.448H42.1518L54.6518 182.098H76.7017L87.8518 201.348H112.602L124.652 222.198H148.202L153.752 231.798L170.102 222.298L160.802 206.198Z" fill="#300D79"/>
<path d="M148.202 222.199H124.652L112.602 201.349H87.8518L76.7017 182.099H54.6518L42.1518 160.449H17.8018L17.0518 159.099V186.999L124.052 248.999L153.752 231.799L148.202 222.199Z" fill="#2A0A6A"/>
<path d="M145.851 146.7C145.751 154.6 143.051 161.05 137.101 165.75C132.651 169.25 127.351 170.85 123.101 170.25C123.051 169.45 122.901 168.65 122.901 167.8C122.851 144.9 122.751 122 122.801 99.1004C122.851 84.7004 132.801 72.3504 146.951 69.6004C166.801 65.7004 182.301 80.8004 183.051 96.1504C183.451 104.8 183.801 113.55 182.751 122.1C181.501 132.6 175.101 140.15 165.551 144.7C159.451 147.6 152.901 148.05 145.851 146.7ZM159.701 99.5504C159.601 95.5504 156.951 92.8004 153.151 92.7004C149.401 92.6004 146.051 95.5004 145.951 99.3504C145.801 105.35 145.801 111.35 145.901 117.35C145.951 121.2 149.151 124.1 152.951 124.1C156.901 124.05 159.801 121.3 159.901 117.3C160.051 114.35 159.801 102.55 159.701 99.5504Z" fill="white"/>
<path d="M72.1012 170.849C72.1012 165.149 71.8012 159.699 72.2012 154.299C72.6012 148.949 74.8012 144.249 78.8012 140.549C87.0012 132.999 105.351 133.699 110.851 148.099C113.651 155.499 112.401 163.049 112.601 170.849C99.0512 170.849 85.8012 170.849 72.1012 170.849ZM79.9012 160.899C88.3012 160.899 96.3012 160.899 104.451 160.899C104.601 155.649 103.851 150.849 99.3012 148.099C94.7012 145.299 89.5512 145.549 85.0012 148.299C80.5012 151.049 79.8512 155.699 79.9012 160.899Z" fill="white"/>
<path d="M112.501 103.648C110.351 104.448 108.151 105.298 105.851 106.198C105.851 110.398 105.851 114.548 105.851 118.848C108.051 119.698 110.201 120.598 112.551 121.498C112.551 124.898 112.551 128.298 112.551 132.398C98.7014 126.648 85.3514 121.098 71.9014 115.548C71.9014 112.848 71.9014 110.398 71.9014 107.498C85.2014 102.498 98.6014 97.4478 112.501 92.1978C112.501 96.0978 112.501 99.6478 112.501 103.648ZM97.5514 108.798C94.1014 109.948 91.1014 110.948 88.1014 111.898C88.1014 112.098 88.1014 112.348 88.1014 112.548C91.1514 113.598 94.2014 114.648 97.5514 115.798C97.5514 113.348 97.5514 111.398 97.5514 108.798Z" fill="white"/>
<path d="M112.751 76.249C112.751 79.599 112.751 82.749 112.751 86.099C99.0006 86.099 85.5006 86.099 71.8506 86.099C71.8506 82.699 71.8506 79.699 71.8506 76.249C85.5006 76.249 98.9506 76.249 112.751 76.249Z" fill="white"/>
</svg>
