<svg width="250" height="250" viewBox="0 0 250 250" fill="none" xmlns="http://www.w3.org/2000/svg">
<g clip-path="url(#clip0_242_94416)">
<path d="M198.315 94.0452C191.177 77.1239 178.404 63.1934 162.164 54.6175C145.924 46.0417 127.217 43.3487 109.217 46.9955C91.2178 50.6423 75.0343 60.4043 63.4129 74.625C51.7915 88.8457 45.448 106.649 45.459 125.015V169.076H80.9532V204.57H125.015C138.144 204.564 151.068 201.31 162.635 195.098C174.202 188.886 184.052 179.909 191.309 168.967C198.565 158.026 203.002 145.459 204.225 132.387C205.447 119.314 203.417 106.143 198.315 94.0452ZM182.816 149.428C178.022 160.794 169.98 170.493 159.698 177.308C149.416 184.124 137.351 187.753 125.015 187.741H97.7823V169.076H125.015C133.729 169.076 142.248 166.492 149.494 161.651C156.74 156.809 162.388 149.927 165.723 141.876C169.057 133.825 169.93 124.966 168.23 116.419C166.53 107.871 162.333 100.02 156.171 93.8582C150.009 87.6961 142.158 83.4996 133.611 81.7995C125.064 80.0994 116.204 80.9719 108.153 84.3069C100.102 87.6418 93.2205 93.2893 88.3789 100.535C83.5373 107.781 80.9532 116.3 80.9532 125.015V152.247H62.2881V125.015C62.2949 115.725 64.3651 106.553 68.3489 98.1607C72.3328 89.7686 78.1309 82.3662 85.3243 76.4882C92.5178 70.6101 100.927 66.4032 109.945 64.1713C118.962 61.9395 128.363 61.7384 137.468 63.5827C146.572 65.4269 155.154 69.2704 162.592 74.8355C170.03 80.4006 176.14 87.5483 180.479 95.7624C184.818 103.976 187.278 113.052 187.682 122.333C188.086 131.613 186.424 140.868 182.815 149.428H182.816ZM97.7823 152.247V125.015C97.7823 109.999 109.999 97.782 125.015 97.782C140.031 97.782 152.247 109.999 152.247 125.015C152.247 140.031 140.031 152.247 125.015 152.247H97.7823Z" fill="url(#paint0_linear_242_94416)"/>
</g>
<defs>
<linearGradient id="paint0_linear_242_94416" x1="201.511" y1="104" x2="27.304" y2="151.857" gradientUnits="userSpaceOnUse">
<stop offset="0.003" stop-color="#7668FF"/>
<stop offset="0.406" stop-color="#4D6AFF"/>
<stop offset="0.858" stop-color="#1B6CFF"/>
</linearGradient>
<clipPath id="clip0_242_94416">
<rect width="159.112" height="159.112" fill="white" transform="translate(45.46 45.458)"/>
</clipPath>
</defs>
</svg>
