<svg width="250" height="250" viewBox="0 0 250 250" fill="none" xmlns="http://www.w3.org/2000/svg">
<path d="M124.986 37.9595L97.2314 65.6795L133.946 102.394L134.086 102.499L134.856 103.234L142.101 95.9895L111.826 65.7145L111.966 65.5745L124.986 52.4845L138.146 65.6795L138.006 65.8195L128.346 75.5145L135.591 82.7595L136.501 81.8845L152.706 65.6445L124.986 37.9595ZM128.311 116.429L135.591 123.674L165.866 93.3995L179.026 106.594L178.886 106.734L169.191 116.394L176.506 123.709L193.586 106.594L165.831 78.8745L128.311 116.429ZM56.3164 106.559L93.8714 144.114L101.116 136.869L100.276 135.959L70.8764 106.559L71.0164 106.419L84.0364 93.3645L93.8714 103.164L101.186 95.9545L84.1064 78.8395L56.3164 106.559ZM87.4314 116.429L94.6764 123.709L120.471 97.9145L121.556 96.7595L114.311 89.5145L87.4314 116.429ZM148.821 117.234L179.061 147.474L178.921 147.614L165.901 160.669L156.066 150.869L148.821 158.149L149.696 159.024L149.661 159.059L165.831 175.229L193.586 147.474L156.066 109.954L148.821 117.234ZM107.906 117.234L134.821 144.114L142.066 136.869L115.186 109.954L107.906 117.234ZM154.351 131.304L127.331 158.324V201.794H122.606V158.289L115.186 150.834L107.871 158.149L112.281 162.594V198.399L112.211 198.434L108.886 201.794H84.0714V212.084H165.901V201.794H141.051L140.981 201.724L137.621 198.364V162.559L137.691 162.489L162.541 137.639L155.261 130.359L154.351 131.304ZM84.0714 160.669L83.9314 160.529L70.9114 147.474L71.0514 147.334L79.5914 138.794L80.6764 137.639L73.4314 130.394L56.3514 147.474L84.0714 175.229L121.591 137.639L114.346 130.394L84.0714 160.669Z" fill="url(#paint0_linear_242_93736)"/>
<defs>
<linearGradient id="paint0_linear_242_93736" x1="156.689" y1="187.97" x2="71.3537" y2="102.642" gradientUnits="userSpaceOnUse">
<stop stop-color="#24B1C6"/>
<stop offset="1" stop-color="#D852D8"/>
</linearGradient>
</defs>
</svg>
