<svg width="250" height="250" viewBox="0 0 250 250" fill="none" xmlns="http://www.w3.org/2000/svg">
<g clip-path="url(#clip0_242_94395)">
<path d="M127.446 57.5238C127.446 57.5238 125.163 53.5679 122.881 57.5238L104.768 88.8965C104.768 88.8965 102.485 92.8525 104.768 96.8087L125.196 132.195L133.268 146.186C133.268 146.186 135.551 150.142 140.122 150.142H176.348C176.348 150.142 180.914 150.142 178.631 146.186L127.446 57.5238ZM101.754 101.701C101.754 101.701 99.4716 97.7447 97.189 101.701L46.0296 190.305C46.0296 190.305 43.747 194.261 48.3123 194.261H84.5387C84.5387 194.261 89.1039 194.261 91.3863 190.305L111.782 154.976L119.861 140.992C119.861 140.992 122.143 137.036 119.861 133.08L101.754 101.701H101.754ZM185.819 158.932C185.819 158.932 183.536 154.976 178.964 154.976H122.022C122.022 154.976 117.45 154.976 115.167 158.932L97.0544 190.305C97.0544 190.305 94.7718 194.261 99.337 194.261H201.649C201.649 194.261 206.214 194.261 203.932 190.305L185.819 158.932Z" fill="#EEB733"/>
</g>
<defs>
<clipPath id="clip0_242_94395">
<rect width="159.112" height="159.112" fill="white" transform="translate(45.459 45.4575)"/>
</clipPath>
</defs>
</svg>
