<svg width="250" height="250" viewBox="0 0 250 250" fill="none" xmlns="http://www.w3.org/2000/svg">
<g clip-path="url(#clip0_242_94399)">
<path fill-rule="evenodd" clip-rule="evenodd" d="M75.5963 172.103C72.8339 171.357 71.7878 170.606 70.4623 168.407C69.989 167.611 69.556 166.791 69.1651 165.951C68.035 163.528 67.142 161.002 66.4987 158.406C66.0434 156.514 65.6863 154.599 65.4287 152.67C65.0942 150.12 64.8146 147.563 64.5901 145.001C64.1031 144.861 64.3906 144.549 65.2328 143.795C66.5624 142.609 69.2571 140.322 70.4107 138.05C71.5684 135.787 71.1732 133.539 68.8019 128.429C66.4306 123.327 62.079 115.359 59.8395 109.966C57.5959 104.572 57.4682 101.754 58.2268 98.8917C58.9893 96.0334 60.6422 93.1271 64.9935 88.8315C69.345 84.5438 76.3952 78.863 85.0987 72.9195L85.4539 72.68L85.6814 73.282C88.2363 80.0967 88.6273 80.8671 89.977 81.238C90.6554 81.4088 91.3534 81.4893 92.0529 81.4776C91.3981 80.8708 90.7995 79.6012 89.5299 76.6311C87.6216 72.18 84.1973 63.912 82.1205 56.2465C80.304 49.5396 79.5176 43.2959 79.5294 37.8508C49.324 54.5268 28.832 86.947 28.832 124.21C28.832 168.965 58.3984 206.739 98.8467 218.628C98.9744 212.783 99.1021 206.943 99.8528 201.366C100.356 197.766 101.075 194.2 102.005 190.687C102.448 188.962 102.923 187.289 103.402 185.669C104.7 181.297 106.045 177.329 107.394 173.401C101.821 174.175 94.5876 174.259 88.7391 173.932C82.8421 173.6 78.359 172.854 75.5963 172.103ZM98.3717 30.4502C103.03 28.7894 111.937 26.2664 123.171 25.983C134.397 25.7035 147.954 27.6602 160.741 32.6818C173.528 37.6998 185.553 45.784 192.239 50.8421C198.927 55.904 200.28 57.944 200.763 59.1378C201.246 60.3316 200.859 60.6787 197.725 63.4093C194.583 66.1479 188.694 71.2698 184.323 73.4895C179.952 75.7093 177.098 75.0304 175.209 74.0643C173.321 73.1061 172.398 71.8566 169.608 68.0322C166.813 64.2077 162.146 57.8083 159.52 52.2832C156.885 46.757 156.294 42.1032 155.076 40.0432C153.859 37.9789 152.014 38.5064 143.658 42.2909C133.19 47.0788 122.787 52.0051 112.448 57.0697C104.463 61.0139 103.369 61.8602 101.832 59.8921C100.296 57.9201 98.3192 53.1336 96.7545 48.3022C95.1934 43.4716 94.0477 38.5933 93.6796 35.7549C93.3082 32.9166 93.7196 32.1141 98.3743 30.4494L98.3717 30.4502ZM203.278 88.1485C203.713 90.5319 204.396 95.0939 202.24 99.9653C200.092 104.844 195.106 110.026 192.423 112.772C189.736 115.515 189.348 115.818 189.907 117.794C190.466 119.77 191.963 123.423 191.109 126.517C190.259 129.611 187.061 132.142 185.588 133.591C184.115 135.041 184.366 135.408 185.16 136.466C185.951 137.527 187.284 139.28 185.588 141.272C183.887 143.26 179.16 145.484 174.609 147.32C170.058 149.157 165.695 150.606 162.973 151.91C160.254 153.212 159.18 154.37 157.069 158.533C154.961 162.697 151.819 169.863 150.637 176.594C149.451 183.324 150.222 189.62 150.925 192.921C151.627 196.223 152.258 196.53 155.452 195.636C158.645 194.738 164.41 192.63 168.055 191.923C171.7 191.217 173.221 191.908 174.199 192.263C175.169 192.622 175.588 192.638 177.309 191.888C179.029 191.137 182.039 189.612 184.163 188.806C186.287 188.007 187.518 187.924 188.595 188.319C189.167 188.513 189.676 188.858 190.069 189.316C190.463 189.775 190.726 190.331 190.831 190.925C191.062 192.255 190.591 194.039 192.188 193.393C193.785 192.746 197.458 189.673 201.522 185.197C205.59 180.718 210.053 174.832 213.71 165.276C217.371 155.719 220.217 142.489 221.591 131.554C222.964 120.616 222.856 111.973 220.964 103.398C219.071 94.8223 215.395 86.3193 213.383 81.7483C211.371 77.1734 211.019 76.5345 209.905 77.4888C208.787 78.4468 206.903 81.0017 205.538 82.5787C204.169 84.1555 203.323 84.7543 202.991 85.1575C202.659 85.5607 202.847 85.7643 203.279 88.1518L203.278 88.1485Z" fill="#EA496B"/>
<path d="M81.6911 197.978C81.1952 197.978 80.7197 197.78 80.3691 197.43C80.0186 197.079 79.8217 196.603 79.8217 196.107V194.29H78.9816C78.4854 194.29 78.0096 194.093 77.6587 193.742C77.3079 193.392 77.1108 192.916 77.1108 192.42C77.1108 191.924 77.3079 191.448 77.6587 191.097C78.0096 190.746 78.4854 190.549 78.9816 190.549H79.8217V188.732C79.8217 188.487 79.87 188.244 79.964 188.017C80.0579 187.79 80.1956 187.584 80.3692 187.41C80.5428 187.237 80.7489 187.099 80.9757 187.005C81.2025 186.911 81.4456 186.863 81.6911 186.863C81.9366 186.863 82.1797 186.911 82.4065 187.005C82.6333 187.099 82.8394 187.237 83.013 187.41C83.1866 187.584 83.3243 187.79 83.4183 188.017C83.5122 188.244 83.5606 188.487 83.5606 188.732V190.549H84.4026C84.8988 190.549 85.3746 190.746 85.7254 191.097C86.0763 191.448 86.2734 191.924 86.2734 192.42C86.2734 192.916 86.0763 193.392 85.7254 193.742C85.3746 194.093 84.8988 194.29 84.4026 194.29H83.5606V196.107C83.5606 196.603 83.3637 197.079 83.0131 197.43C82.6626 197.78 82.1871 197.978 81.6911 197.978ZM172.242 174.454C171.746 174.454 171.271 174.256 170.92 173.906C170.569 173.555 170.373 173.079 170.373 172.583V171.519H170.086C169.59 171.519 169.114 171.322 168.763 170.971C168.412 170.62 168.215 170.144 168.215 169.647C168.215 169.151 168.412 168.675 168.763 168.324C169.114 167.973 169.59 167.776 170.086 167.776H170.373V166.707C170.37 166.46 170.416 166.215 170.509 165.985C170.602 165.756 170.739 165.548 170.913 165.372C171.087 165.196 171.294 165.057 171.522 164.962C171.75 164.867 171.995 164.818 172.242 164.818C172.489 164.818 172.734 164.867 172.962 164.962C173.19 165.057 173.397 165.196 173.571 165.372C173.745 165.548 173.882 165.756 173.975 165.985C174.068 166.215 174.114 166.46 174.111 166.707V167.775H174.398C174.894 167.775 175.37 167.972 175.721 168.323C176.072 168.674 176.269 169.15 176.269 169.646C176.269 170.143 176.072 170.619 175.721 170.97C175.37 171.321 174.894 171.518 174.398 171.518H174.111V172.582C174.111 173.078 173.915 173.554 173.564 173.905C173.214 174.256 172.738 174.453 172.242 174.454V174.454ZM198.076 167.37C197.58 167.37 197.105 167.173 196.754 166.822C196.404 166.471 196.207 165.996 196.207 165.5V163.683H195.368C194.872 163.683 194.396 163.486 194.045 163.135C193.694 162.784 193.497 162.308 193.497 161.812C193.497 161.316 193.694 160.84 194.045 160.489C194.396 160.138 194.872 159.941 195.368 159.941H196.207V158.125C196.204 157.877 196.25 157.632 196.343 157.403C196.436 157.174 196.573 156.966 196.747 156.79C196.921 156.614 197.128 156.475 197.356 156.379C197.584 156.284 197.829 156.235 198.076 156.235C198.323 156.235 198.568 156.284 198.796 156.379C199.024 156.475 199.231 156.614 199.405 156.79C199.579 156.966 199.716 157.174 199.809 157.403C199.902 157.632 199.948 157.877 199.945 158.125V159.941H200.786C201.282 159.941 201.757 160.138 202.108 160.489C202.459 160.84 202.656 161.316 202.656 161.812C202.656 162.308 202.459 162.784 202.108 163.135C201.757 163.486 201.282 163.683 200.786 163.683H199.945V165.5C199.945 165.995 199.748 166.471 199.398 166.822C199.047 167.173 198.572 167.37 198.076 167.37V167.37ZM49.7713 165.756C49.2754 165.756 48.7999 165.559 48.4494 165.208C48.0989 164.857 47.902 164.382 47.902 163.886V159.889H45.4595C44.9634 159.889 44.4876 159.692 44.1367 159.341C43.7859 158.99 43.5888 158.514 43.5888 158.018C43.5888 157.522 43.7859 157.046 44.1367 156.695C44.4876 156.344 44.9634 156.147 45.4595 156.147H47.902V152.142C47.8994 151.895 47.9458 151.65 48.0385 151.421C48.1313 151.191 48.2686 150.983 48.4424 150.807C48.6163 150.632 48.8232 150.492 49.0513 150.397C49.2795 150.302 49.5242 150.253 49.7714 150.253C50.0186 150.253 50.2633 150.302 50.4914 150.397C50.7195 150.492 50.9265 150.632 51.1004 150.807C51.2742 150.983 51.4115 151.191 51.5042 151.421C51.597 151.65 51.6434 151.895 51.6407 152.142V156.146H54.0813C54.5775 156.146 55.0533 156.343 55.4041 156.694C55.755 157.045 55.952 157.521 55.952 158.017C55.952 158.513 55.755 158.989 55.4041 159.34C55.0533 159.691 54.5775 159.888 54.0813 159.888H51.6407V163.884C51.641 164.129 51.5928 164.373 51.499 164.6C51.4051 164.827 51.2675 165.033 51.0939 165.207C50.9203 165.381 50.7141 165.519 50.4872 165.613C50.2603 165.707 50.017 165.756 49.7713 165.756V165.756ZM54.3894 137.542C53.8935 137.542 53.418 137.344 53.0675 136.994C52.7169 136.643 52.52 136.167 52.52 135.671V134.599H52.2336C51.7372 134.599 51.2612 134.402 50.9103 134.051C50.5593 133.7 50.3622 133.224 50.3622 132.728C50.3622 132.232 50.5593 131.756 50.9103 131.405C51.2612 131.054 51.7372 130.857 52.2336 130.857H52.52V129.792C52.52 129.296 52.7169 128.821 53.0675 128.47C53.4181 128.12 53.8936 127.923 54.3894 127.923C54.8852 127.923 55.3608 128.12 55.7113 128.47C56.0619 128.821 56.2589 129.296 56.2589 129.792V130.857H56.5453C57.0416 130.857 57.5176 131.054 57.8686 131.405C58.2195 131.756 58.4167 132.232 58.4167 132.728C58.4167 133.224 58.2195 133.7 57.8686 134.051C57.5176 134.402 57.0416 134.599 56.5453 134.599H56.2589V135.671C56.2589 136.167 56.062 136.643 55.7114 136.994C55.3609 137.344 54.8854 137.542 54.3894 137.542ZM207.764 127.792C207.268 127.791 206.793 127.594 206.442 127.243C206.092 126.892 205.895 126.417 205.895 125.921V125.278C205.399 125.278 204.923 125.08 204.572 124.73C204.221 124.379 204.024 123.903 204.024 123.407C204.024 122.911 204.221 122.435 204.572 122.084C204.923 121.733 205.399 121.536 205.895 121.536V120.891C205.892 120.644 205.939 120.399 206.032 120.17C206.124 119.941 206.262 119.732 206.435 119.556C206.609 119.381 206.816 119.241 207.044 119.146C207.272 119.051 207.517 119.002 207.764 119.002C208.012 119.002 208.256 119.051 208.484 119.146C208.713 119.241 208.919 119.381 209.093 119.556C209.267 119.732 209.404 119.941 209.497 120.17C209.59 120.399 209.636 120.644 209.634 120.891V121.535C210.13 121.535 210.606 121.732 210.957 122.083C211.307 122.433 211.504 122.909 211.504 123.405C211.504 123.901 211.307 124.377 210.957 124.728C210.606 125.079 210.13 125.276 209.634 125.276V125.919C209.634 126.165 209.586 126.408 209.492 126.636C209.398 126.863 209.26 127.069 209.087 127.243C208.913 127.417 208.707 127.555 208.48 127.649C208.253 127.743 208.01 127.792 207.764 127.792H207.764ZM43.6995 115.258C43.2036 115.257 42.7281 115.06 42.3775 114.709C42.027 114.359 41.8301 113.883 41.8301 113.387V112.319H41.5394C41.043 112.319 40.567 112.122 40.2161 111.771C39.8651 111.42 39.668 110.944 39.668 110.447C39.668 109.951 39.8651 109.475 40.2161 109.124C40.567 108.773 41.043 108.576 41.5394 108.576H41.8299V107.508C41.8272 107.261 41.8736 107.016 41.9664 106.786C42.0591 106.557 42.1964 106.349 42.3702 106.173C42.5441 105.997 42.7511 105.858 42.9792 105.763C43.2073 105.668 43.452 105.618 43.6992 105.618C43.9464 105.618 44.1911 105.668 44.4192 105.763C44.6474 105.858 44.8543 105.997 45.0282 106.173C45.202 106.349 45.3393 106.557 45.4321 106.786C45.5248 107.016 45.5712 107.261 45.5686 107.508V108.576H45.8494C46.3457 108.576 46.8217 108.773 47.1727 109.124C47.5236 109.475 47.7208 109.951 47.7208 110.447C47.7208 110.944 47.5236 111.42 47.1727 111.771C46.8217 112.122 46.3457 112.319 45.8494 112.319H45.5686V113.387C45.5686 113.883 45.3717 114.359 45.0212 114.709C44.6707 115.06 44.1952 115.257 43.6993 115.258H43.6995ZM65.7481 73.1297C65.2522 73.1294 64.7767 72.9321 64.4261 72.5813C64.0755 72.2305 63.8786 71.7549 63.8786 71.259V69.0986H62.7927C62.2966 69.0986 61.8208 68.9015 61.4699 68.5507C61.1191 68.1999 60.922 67.724 60.922 67.2279C60.922 66.7317 61.1191 66.2559 61.4699 65.9051C61.8208 65.5542 62.2966 65.3571 62.7927 65.3571H63.8784V63.2041C63.8758 62.9569 63.9222 62.7117 64.0149 62.4825C64.1077 62.2534 64.2449 62.045 64.4188 61.8693C64.5926 61.6935 64.7996 61.554 65.0277 61.4588C65.2558 61.3636 65.5006 61.3146 65.7478 61.3146C65.9949 61.3146 66.2397 61.3636 66.4678 61.4588C66.6959 61.554 66.9029 61.6935 67.0767 61.8693C67.2506 62.045 67.3879 62.2534 67.4806 62.4825C67.5734 62.7117 67.6198 62.9569 67.6171 63.2041V65.3561H68.7011C69.1972 65.3561 69.673 65.5532 70.0239 65.904C70.3747 66.2548 70.5718 66.7307 70.5718 67.2268C70.5718 67.723 70.3747 68.1988 70.0239 68.5496C69.673 68.9004 69.1972 69.0975 68.7011 69.0975H67.6171V71.2575C67.6173 71.5032 67.5691 71.7465 67.4753 71.9735C67.3814 72.2005 67.2438 72.4069 67.0702 72.5807C66.8967 72.7546 66.6905 72.8926 66.4637 72.9867C66.2368 73.0809 65.9935 73.1295 65.7479 73.1297H65.7481ZM178.478 62.1709C177.982 62.1705 177.506 61.9733 177.156 61.6225C176.805 61.2717 176.608 60.7961 176.608 60.3002V59.657C176.112 59.657 175.636 59.4598 175.285 59.1089C174.934 58.7579 174.737 58.2819 174.737 57.7856C174.737 57.2893 174.934 56.8133 175.285 56.4624C175.636 56.1114 176.112 55.9143 176.608 55.9143V55.2634C176.606 55.0162 176.652 54.771 176.745 54.5418C176.838 54.3127 176.975 54.1042 177.149 53.9285C177.323 53.7528 177.53 53.6133 177.758 53.5181C177.986 53.4229 178.231 53.3739 178.478 53.3739C178.725 53.3739 178.97 53.4229 179.198 53.5181C179.426 53.6133 179.633 53.7528 179.807 53.9285C179.981 54.1042 180.118 54.3127 180.211 54.5418C180.303 54.771 180.35 55.0162 180.347 55.2634V55.9143C180.843 55.9143 181.319 56.1114 181.67 56.4624C182.021 56.8133 182.218 57.2893 182.218 57.7856C182.218 58.2819 182.021 58.7579 181.67 59.1089C181.319 59.4598 180.843 59.657 180.347 59.657V60.3002C180.347 60.796 180.15 61.2716 179.8 61.6224C179.449 61.9732 178.974 62.1705 178.478 62.1709ZM109.781 49.446C109.285 49.4456 108.809 49.2484 108.459 48.8976C108.108 48.5468 107.911 48.0712 107.911 47.5753V44.5219H106.17C105.673 44.5219 105.197 44.3248 104.846 43.9738C104.495 43.6229 104.298 43.1469 104.298 42.6505C104.298 42.1542 104.495 41.6782 104.846 41.3273C105.197 40.9763 105.673 40.7792 106.17 40.7792H107.911V37.723C107.909 37.4758 107.955 37.2306 108.048 37.0014C108.141 36.7723 108.278 36.5639 108.452 36.3882C108.626 36.2124 108.833 36.0729 109.061 35.9777C109.289 35.8825 109.534 35.8335 109.781 35.8335C110.028 35.8335 110.273 35.8825 110.501 35.9777C110.729 36.0729 110.936 36.2124 111.11 36.3882C111.284 36.5639 111.421 36.7723 111.514 37.0014C111.606 37.2306 111.653 37.4758 111.65 37.723V40.7794H113.403C113.899 40.7794 114.375 40.9765 114.726 41.3275C115.077 41.6784 115.274 42.1544 115.274 42.6508C115.274 43.1471 115.077 43.6231 114.726 43.974C114.375 44.325 113.899 44.5221 113.403 44.5221H111.65V47.5755C111.65 48.0714 111.453 48.547 111.103 48.8977C110.752 49.2485 110.277 49.4457 109.781 49.446Z" fill="white"/>
<path fill-rule="evenodd" clip-rule="evenodd" d="M175.371 90.1135C172.393 91.1914 167.475 91.3671 160.053 92.4928C152.635 93.6109 142.711 95.6866 132.923 99.491C123.133 103.3 113.469 108.849 106.985 113.823C100.501 118.797 97.196 123.196 94.6049 127.468C92.0138 131.739 90.1457 135.875 87.8184 138.806C85.9557 141.121 83.6076 142.999 80.9399 144.307C79.1792 145.165 78.4408 145.165 75.7859 145.165C73.1309 145.165 68.5609 145.165 66.2526 145.125C65.4063 145.105 64.8674 145.085 64.584 145.006C64.8315 147.588 65.0785 150.175 65.4262 152.674C65.6861 154.603 66.0432 156.518 66.4962 158.411C67.1397 161.006 68.0326 163.533 69.1626 165.956C69.552 166.797 69.985 167.616 70.4598 168.411C71.7853 170.607 72.8314 171.362 75.5939 172.108C78.3563 172.855 82.8403 173.605 88.7362 173.936C93.6506 174.212 98.5778 174.172 103.487 173.816C104.9 173.709 106.261 173.565 107.535 173.386C113.124 172.59 117.001 171.095 122.466 168.436C127.923 165.769 134.973 161.941 142.459 158.791C148.036 156.447 153.856 154.479 159.541 152.635C161.481 152.004 163.402 151.385 165.302 150.779C172.747 148.383 179.709 146.048 183.211 143.8C186.38 141.772 186.72 139.812 185.526 137.357C185.395 137.086 185.254 136.819 185.103 136.558C183.45 133.72 180.101 130.199 177.598 126.127C175.108 122.042 173.459 117.501 172.748 112.769C172.175 108.98 172.237 105.121 172.931 101.351C173.067 100.641 173.223 99.9422 173.407 99.2594C174.501 95.1309 176.425 91.5866 178.349 88.0415C177.738 88.9078 176.764 89.6112 175.371 90.1176L175.371 90.1135ZM147.506 122.837C146.48 126.007 144.26 129.392 141.011 131.979C139.455 133.196 137.763 134.228 135.969 135.054C133.963 135.993 131.861 136.713 129.701 137.202C126.449 137.945 123.081 138.026 119.796 137.441C117.517 137.051 115.301 136.353 113.209 135.365C111.836 134.687 111.477 134.22 111.752 132.79C111.809 132.498 111.88 132.209 111.967 131.924C112.402 130.475 113.36 128.395 115.265 125.776C117.592 122.583 121.333 118.59 125.485 115.955L125.744 115.788C129.465 113.524 133.633 112.094 137.96 111.596C141.729 111.177 144.707 111.612 146.276 112.115C147.845 112.622 148.004 113.193 148.176 114.957C148.344 116.718 148.523 119.672 147.501 122.838L147.506 122.837Z" fill="#F7D28A"/>
<path fill-rule="evenodd" clip-rule="evenodd" d="M143.934 158.272C136.996 161.186 130.461 164.739 125.395 167.207C120.333 169.678 116.744 171.063 111.558 171.798C110.38 171.965 109.115 172.101 107.805 172.201C106.241 176.659 104.775 181.151 103.406 185.675C101.977 190.494 100.604 195.795 99.8531 201.372C99.1024 206.945 98.9747 212.79 98.8469 218.634C119.064 224.558 140.664 223.708 160.354 216.215C158.378 213.911 156.402 211.608 154.745 208.498C153.093 205.388 151.759 201.472 151.093 196.673C151.059 196.422 151.027 196.171 150.997 195.919C150.43 191.288 150.45 185.919 150.873 180.677C151.316 175.148 152.202 169.758 153.759 165.099C155.316 160.437 157.544 156.501 159.767 152.563C154.498 154.272 149.104 156.096 143.934 158.272ZM110.656 57.3786C118.065 53.2269 132.293 45.2825 140.737 41.3901C149.18 37.4977 151.843 37.6615 153.32 38.2444C154.797 38.8274 155.085 39.8253 155.875 42.6198C156.67 45.4102 157.959 49.9933 161.264 55.5343C164.57 61.0753 169.887 67.5758 173.161 72.0858C176.435 76.5958 177.66 79.1238 178.319 81.0761C178.978 83.0283 179.07 84.4055 178.455 86.0782C177.844 87.7554 176.523 89.727 170.858 91.1802C165.197 92.6333 155.188 93.5756 144.378 96.5096C133.567 99.4518 121.95 104.386 112.588 111.185C103.23 117.98 96.1283 126.634 91.8727 132.571C87.6171 138.507 86.2037 141.733 83.0579 143.589C79.912 145.445 75.033 145.936 71.7001 145.952C68.3706 145.968 66.594 145.509 65.6718 145.166C64.7536 144.827 64.6859 144.607 66.1788 143.322C67.672 142.044 70.7299 139.705 70.2787 133.964C69.8276 128.223 65.8756 119.081 63.2129 113.305C60.5582 107.528 59.1968 105.121 58.2458 102.406C57.2996 99.6913 56.7687 96.6735 60.5732 91.9786C64.3818 87.2878 72.5288 80.9204 77.5519 77.1277C82.574 73.3312 84.4704 72.1058 85.7838 72.3492C87.0931 72.5967 87.8197 74.3094 88.8258 76.5968C89.8319 78.8843 91.1292 81.7388 93.7362 82.2658C96.3429 82.7967 100.267 80.9971 103.194 79.1C106.116 77.1998 108.044 75.2037 108.383 73.7028C108.719 72.2058 107.469 71.1958 106.147 69.3754C104.83 67.555 103.44 64.9121 103.045 63.4071C102.648 61.9058 103.246 61.5344 110.656 57.3786Z" fill="#FAE2BE"/>
<path fill-rule="evenodd" clip-rule="evenodd" d="M143.934 158.273C136.995 161.187 130.46 164.74 125.394 167.207C120.332 169.679 116.743 171.064 111.557 171.798C110.379 171.966 109.114 172.102 107.805 172.202C106.241 176.66 104.774 181.152 103.405 185.676C102.926 187.297 102.447 188.97 102.004 190.694C106.886 190.666 113.709 190.056 119.817 187.976C127.362 185.405 133.813 180.59 141.602 176.834C144.928 175.229 148.501 173.815 151.934 172.363C152.372 169.901 152.982 167.473 153.758 165.097C155.315 160.438 157.543 156.502 159.766 152.565C154.497 154.273 149.103 156.097 143.934 158.273Z" fill="#E9C888"/>
<path fill-rule="evenodd" clip-rule="evenodd" d="M135.379 222.077C143.929 221.254 152.33 219.282 160.354 216.217C158.378 213.913 156.402 211.61 154.745 208.5C153.088 205.39 151.759 201.474 151.092 196.675C151.057 196.424 151.024 196.173 150.993 195.921C150.425 191.29 150.45 185.921 150.873 180.679C151.312 175.15 152.202 169.76 153.759 165.101C155.316 160.439 157.544 156.503 159.767 152.565C156.358 153.671 152.901 154.825 149.479 156.09C146.046 163.731 142.605 172.174 140.15 179.117C135.67 191.772 134.461 199.441 134.461 208.994C134.461 213.202 134.697 217.777 135.379 222.081V222.077Z" fill="#E9C888"/>
<path fill-rule="evenodd" clip-rule="evenodd" d="M176.315 127.73C178.458 131.219 181.333 134.238 182.75 136.673C182.886 136.904 183.01 137.132 183.113 137.351C185.305 135.076 187.493 132.8 189.054 130.301C190.615 127.807 191.548 125.087 191.429 122.688C191.309 120.293 190.139 118.205 188.966 116.121C188.124 116.772 187.289 117.387 186.483 117.965C182.163 121.067 178.554 123.155 174.945 125.243C175.365 126.093 175.824 126.924 176.315 127.73Z" fill="#86C887"/>
<path fill-rule="evenodd" clip-rule="evenodd" d="M174.95 125.241C178.554 123.153 182.163 121.065 186.483 117.964C187.289 117.385 188.124 116.766 188.966 116.119C192.627 113.309 196.459 109.907 199.154 106.242C202.475 101.731 204.08 96.829 204.571 93.2521C205.062 89.6712 204.44 87.4156 203.813 85.1641C201.495 87.5525 199.016 89.7796 196.394 91.8299C191.809 95.4203 186.986 98.6962 181.959 101.635C178.845 103.449 175.625 105.073 172.315 106.498C171.72 109.727 171.666 113.033 172.155 116.279C172.625 119.391 173.567 122.413 174.95 125.241Z" fill="#A8F3AB"/>
<path fill-rule="evenodd" clip-rule="evenodd" d="M174.95 125.245C178.555 123.157 182.164 121.069 186.483 117.967C187.29 117.388 188.12 116.769 188.966 116.123C192.627 113.312 196.46 109.911 199.159 106.246C201.54 103.003 203.245 99.3145 204.173 95.3994C202.332 98.1755 200.15 100.709 197.678 102.941C194.204 106.07 189.693 108.977 185.218 110.19C180.743 111.408 176.299 110.937 172.032 109.504L171.92 109.464C171.742 111.738 171.823 114.026 172.16 116.282C172.626 119.395 173.567 122.417 174.95 125.245Z" fill="#98DA99"/>
<path fill-rule="evenodd" clip-rule="evenodd" d="M181.958 101.635C186.986 98.6956 191.808 95.4197 196.393 91.8294C199.017 89.7798 201.496 87.5526 203.815 85.1636C205.608 83.3071 207.242 81.3041 208.701 79.1753C211.646 74.7669 213.641 69.7937 214.558 64.5722C215.452 59.59 215.376 54.6477 214.909 51.877C214.446 49.1032 213.588 48.4998 211.628 50.0648C209.671 51.6295 206.614 55.3663 202.118 59.5341C200.441 61.0902 198.706 62.5806 196.913 64.0052C193.468 66.739 190.673 68.8312 185.874 71.2905C181.076 73.7498 179.786 73.9252 174.073 75.2907C175.815 77.5022 176.852 78.7638 178.884 81.6462C180.916 84.5205 177.494 90.3808 177.65 92.0535C177.81 93.7307 177.558 94.2491 176.959 95.0875C175.311 98.1295 173.658 101.167 172.72 104.705C172.563 105.298 172.427 105.897 172.312 106.501C175.623 105.075 178.844 103.448 181.958 101.631L181.958 101.635Z" fill="#D1FCD4"/>
<path fill-rule="evenodd" clip-rule="evenodd" d="M181.959 101.638C186.987 98.6989 191.809 95.423 196.394 91.8325C199.017 89.782 201.497 87.5549 203.816 85.1667C205.609 83.3101 207.243 81.307 208.702 79.1784C211.647 74.7699 213.642 69.7967 214.559 64.5753C215.038 61.8785 215.27 59.1434 215.25 56.4043C215.088 56.5745 214.943 56.7589 214.814 56.9554C213.509 58.9195 211.876 64.0094 208.04 68.9677C204.203 73.926 198.159 78.7563 191.939 81.016C185.723 83.2755 182.338 82.9728 179.895 82.9601C177.444 82.9481 178.49 82.9601 177.887 82.984L178.162 83.3753C180.865 87.2077 177.496 90.3852 177.651 92.0581C177.811 93.7353 177.559 94.2539 176.961 95.0923C175.312 98.1343 173.659 101.172 172.721 104.709C172.618 105.094 172.525 105.481 172.441 105.871C172.681 105.958 172.924 106.038 173.176 106.118C176.188 104.795 179.12 103.299 181.959 101.638Z" fill="#A8F3AB"/>
<path fill-rule="evenodd" clip-rule="evenodd" d="M154.947 195.403C157.873 193.986 164.021 192.257 167.522 191.675C171.027 191.088 171.878 191.651 172.401 192.206C172.924 192.765 173.119 193.324 174.748 192.605C176.377 191.886 179.451 189.89 182.022 188.88C184.593 187.874 186.669 187.858 188.17 188.289C189.671 188.72 190.601 189.599 190.429 191.651C190.257 193.707 188.989 196.94 186.297 200.01C183.606 203.08 179.507 205.991 174.948 208.661C171.006 210.955 166.946 213.038 162.784 214.901C160.197 216.027 160.037 215.843 158.768 213.775C157.498 211.707 155.119 207.759 153.913 204.988C152.704 202.218 152.668 200.625 152.496 199.276C152.328 197.926 152.025 196.821 154.947 195.403Z" fill="#F7D28A"/>
<path fill-rule="evenodd" clip-rule="evenodd" d="M141.008 131.976C144.262 129.385 146.481 126.004 147.503 122.834C148.525 119.668 148.346 116.714 148.178 114.954C148.006 113.193 147.847 112.618 146.278 112.111C144.708 111.608 141.731 111.173 137.966 111.596C137.048 111.7 136.082 111.856 135.088 112.067C137.476 115.387 138.834 119.337 138.991 123.424C139.147 127.511 138.097 131.553 135.97 135.046C137.763 134.222 139.455 133.191 141.011 131.976L141.008 131.976Z" fill="white"/>
<path fill-rule="evenodd" clip-rule="evenodd" d="M126.556 125.625C126.566 128.197 125.74 130.703 124.204 132.766C122.668 134.829 120.504 136.338 118.037 137.066C121.858 138.031 125.853 138.075 129.694 137.194C131.857 136.707 133.961 135.988 135.97 135.05C138.097 131.556 139.147 127.513 138.991 123.426C138.834 119.339 137.477 115.388 135.088 112.067C131.684 112.785 128.434 114.099 125.487 115.948C124.751 116.418 124.036 116.919 123.343 117.453C125.414 119.67 126.563 122.591 126.556 125.625Z" fill="#A8F3AB"/>
<path fill-rule="evenodd" clip-rule="evenodd" d="M128.468 120.283C129.132 120.275 129.784 120.465 130.341 120.828C130.898 121.191 131.334 121.712 131.594 122.323C131.854 122.935 131.926 123.61 131.802 124.263C131.677 124.916 131.361 125.517 130.894 125.99C130.426 126.463 129.829 126.786 129.178 126.919C128.526 127.051 127.85 126.987 127.236 126.734C126.621 126.482 126.095 126.052 125.725 125.5C125.355 124.947 125.158 124.297 125.158 123.633C125.153 122.75 125.499 121.901 126.119 121.273C126.74 120.645 127.585 120.289 128.468 120.283Z" fill="white"/>
<path fill-rule="evenodd" clip-rule="evenodd" d="M118.038 137.069C119.985 136.484 121.752 135.411 123.17 133.954C124.588 132.496 125.611 130.7 126.142 128.737C126.673 126.774 126.695 124.707 126.205 122.733C125.715 120.759 124.73 118.943 123.343 117.456C120.283 119.846 117.566 122.646 115.267 125.775C112.943 128.969 112.029 131.364 111.754 132.789C111.474 134.219 111.838 134.682 113.207 135.364C114.753 136.101 116.372 136.672 118.038 137.069Z" fill="#121725"/>
<path fill-rule="evenodd" clip-rule="evenodd" d="M99.0022 81.7248C101.116 81.1016 103.093 80.0858 104.831 78.7306C106.049 77.8119 107.137 76.7322 108.065 75.5209C108.603 74.7784 108.583 74.5429 106.839 71.3292C105.993 69.7595 104.739 67.4967 103.377 64.8783C101.82 61.9134 100.383 58.8901 99.0654 55.8083C97.0291 50.9143 95.4246 45.8515 94.2703 40.678C94.0475 39.6987 93.8373 38.7168 93.6394 37.7321C92.6073 32.43 91.8222 27.0885 91.2842 21.7077C90.8542 17.5518 90.7252 15.1493 90.4058 13.7633C90.0786 12.3819 89.5595 12.0216 88.191 13.2162C86.8226 14.4109 84.6102 17.1684 82.8654 20.9729C81.1254 24.7726 79.8518 29.6193 79.5843 35.5756C79.4292 39.5524 79.6565 43.5349 80.263 47.4683C80.7131 50.4303 81.333 53.364 82.1195 56.2549C84.1954 63.9198 87.6206 72.1835 89.529 76.6395C90.7664 79.5178 91.3653 80.7991 91.996 81.43C92.3186 81.7447 92.7294 81.9536 93.1737 82.0289C94.5191 82.3396 96.8186 82.3237 99.0022 81.7248Z" fill="white"/>
<path fill-rule="evenodd" clip-rule="evenodd" d="M101.43 80.8129C102.633 80.2382 103.773 79.5397 104.831 78.7288C106.049 77.8102 107.137 76.7304 108.065 75.5191C108.604 74.7766 108.584 74.5412 106.839 71.3274C105.993 69.7577 104.739 67.495 103.377 64.8766C101.94 62.106 100.383 58.9442 99.0658 55.8066C97.0312 50.9137 95.4282 45.8523 94.2752 40.6803C94.0513 39.7008 93.8397 38.7188 93.6404 37.7344C92.6074 32.4304 91.8223 27.0877 91.2852 21.7061C90.8539 17.5542 90.7261 15.1478 90.4068 13.7617C90.2073 12.9231 89.9357 12.4602 89.4487 12.4961C88.3976 16.4322 87.6949 20.4531 87.3489 24.5124C86.75 32.2811 87.748 40.8882 89.6764 48.8087C91.6045 56.7252 94.4629 63.9548 97.3529 71.0489C98.7422 74.4541 100.139 77.8356 101.425 80.8137L101.43 80.8129Z" fill="#DDDDDD"/>
<path d="M126.013 225.024C116.667 225.031 107.368 223.707 98.3958 221.09C98.2239 221.059 98.0559 221.01 97.8948 220.942C56.5838 208.635 26.3398 169.929 26.3398 124.22C26.3398 87.794 45.7354 54.275 77.0607 36.3884C77.0684 36.0805 77.08 35.7724 77.0938 35.4638C77.3589 29.6667 78.5381 24.4426 80.5988 19.9359C82.5071 15.776 84.9223 12.7703 86.5481 11.3434C87.0569 10.8989 88.5967 9.546 90.4447 10.1504C92.2498 10.7274 92.6885 12.5802 92.8315 13.1873C93.0869 14.2906 93.2185 15.7175 93.4183 17.8774C93.5118 18.8949 93.623 20.0761 93.7654 21.4522C94.0012 23.8069 94.2857 26.1617 94.619 28.5165C104.739 25.1247 115.344 23.401 126.017 23.4131C154.686 23.4131 181.756 35.7872 200.699 57.4593C202.855 55.44 204.664 53.5375 206.171 51.9547C207.748 50.2977 208.993 48.9873 210.073 48.1261C210.677 47.6388 212.522 46.1769 214.586 46.9566C216.755 47.787 217.188 50.368 217.373 51.4721C217.835 54.2322 218.018 59.4367 217.011 65.0235C216.343 68.7787 215.159 72.4233 213.492 75.8538C221.509 90.7136 225.702 107.335 225.693 124.22C225.693 167.15 199.023 203.899 161.555 218.405C161.359 218.514 161.148 218.595 160.929 218.647C149.775 222.875 137.943 225.036 126.013 225.024ZM101.384 216.751C119.399 221.653 138.466 221.067 156.146 215.067C154.783 213.385 153.579 211.58 152.549 209.675C150.608 206.026 149.288 201.769 148.627 197.017C148.596 196.787 148.565 196.557 148.536 196.319C148.526 196.253 148.518 196.186 148.512 196.116C147.975 191.622 147.932 186.237 148.391 180.479C148.892 174.222 149.904 168.783 151.399 164.311C152.264 161.772 153.319 159.301 154.555 156.92C150.803 158.198 147.062 159.567 143.428 161.091C138.146 163.318 133.072 165.887 128.594 168.16C126.805 169.064 125.119 169.918 123.559 170.682C118.434 173.173 114.514 174.752 109.253 175.645C108.033 179.224 106.871 182.83 105.791 186.396C104.012 192.392 102.941 197.117 102.326 201.706C101.675 206.537 101.501 211.695 101.384 216.751ZM77.1796 42.1066C48.7937 59.4165 31.3261 90.5077 31.3261 124.22C31.3261 166.609 58.6612 202.655 96.4328 215.255C96.5536 210.503 96.7583 205.68 97.3821 201.045C98.23 194.752 99.8616 188.858 101.016 184.967C101.887 182.086 102.809 179.189 103.77 176.301C98.7216 176.681 93.6532 176.722 88.5989 176.426C81.3905 176.029 76.9519 175.062 74.948 174.52C71.5407 173.6 69.9949 172.473 68.3252 169.701C66.6196 166.863 65.0329 162.867 64.0816 159.011C63.6128 157.073 63.2439 155.112 62.9763 153.136C62.9626 153.062 62.9529 152.988 62.9452 152.914C62.6332 150.661 62.4033 148.36 62.1848 146.091C62.1239 145.972 62.0699 145.85 62.0231 145.725C61.3604 143.931 62.7405 142.693 63.567 141.951L63.8827 141.67C65.0894 140.602 67.3311 138.614 68.1886 136.93C68.7423 135.846 68.947 134.676 66.5396 129.487C65.6078 127.483 64.3641 125.027 63.0679 122.462C61.029 118.435 58.9218 114.267 57.5338 110.934C55.2727 105.48 54.8087 102.049 55.8165 98.2598C56.7932 94.5871 59.0153 91.2383 63.2434 87.0668C67.9938 82.3768 75.2568 76.6266 83.6915 70.8723L84.056 70.6265C84.1348 70.5721 84.2169 70.5226 84.3018 70.4783C82.3076 65.3751 80.7929 60.8957 79.7131 56.9076C78.386 52.0689 77.5374 47.1115 77.1796 42.1069V42.1066ZM153.789 197.749C154.415 201.344 155.475 204.56 156.95 207.328C158.17 209.617 159.581 211.437 161.084 213.227C170.468 209.419 179.18 204.131 186.888 197.562C187.621 195.453 188.303 193.453 188.708 191.898C188.853 191.382 188.964 190.857 189.042 190.326C188.325 190.438 187.62 190.613 186.934 190.849C184.209 191.722 179.866 193.66 175.516 195.625C175.489 196.398 175.412 197.169 175.287 197.933C174.934 200.065 174.214 201.878 173.521 203.628C173.277 204.246 172.799 204.742 172.191 205.008C171.583 205.275 170.894 205.29 170.275 205.052C169.971 204.934 169.693 204.757 169.457 204.531C169.222 204.305 169.033 204.035 168.902 203.736C168.772 203.437 168.701 203.115 168.695 202.789C168.689 202.463 168.748 202.139 168.868 201.835C169.511 200.213 170.101 198.724 170.367 197.122C170.628 195.539 170.569 193.929 170.372 193.048C169.273 193.208 167.904 193.64 166.218 194.171L163.711 194.954C160.908 195.808 157.405 196.767 153.789 197.75V197.749ZM172.281 191.613L173.309 193.886L172.281 191.613ZM161.463 154.639C159.415 158.273 157.502 161.778 156.128 165.894C154.762 169.984 153.83 175.025 153.362 180.876C153.024 184.822 152.972 188.787 153.206 192.74C156.512 191.843 159.686 190.966 162.261 190.182L164.712 189.418C166.94 188.713 168.548 188.206 169.895 188.054C172.172 187.836 173.862 188.677 174.745 190.502C178.893 188.635 182.696 186.974 185.411 186.101C187.142 185.547 191.19 184.241 193.204 187.005C194.023 188.116 194.161 189.453 194.001 190.853C207.726 176.457 216.677 158.177 219.633 138.508C222.589 118.838 219.407 98.7353 210.52 80.9405C209.32 82.6687 208.004 84.3139 206.582 85.8646C207.263 88.3842 207.42 91.0168 207.042 93.5993C206.73 95.8724 205.531 101.798 201.167 107.728C199.024 110.64 196.009 113.681 192.173 116.8C193.052 118.511 193.812 120.406 193.919 122.57C194.101 126.207 192.453 129.603 191.455 131.303C190.394 133.053 189.139 134.679 187.714 136.148C189.659 140.102 188.62 143.298 184.56 145.903C180.806 148.312 173.671 150.71 166.069 153.158L163.944 153.84C163.12 154.105 162.293 154.371 161.463 154.639ZM73.4076 168.296C73.9905 168.955 74.6921 169.285 76.2498 169.707C79.3355 170.538 83.9396 171.173 88.8773 171.446C89.8733 171.504 90.885 171.547 91.9006 171.575C90.89 171.29 89.8968 170.998 88.9117 170.706C86.5823 170.015 84.3815 169.36 82.2996 168.947C79.2243 168.335 76.316 168.218 73.4076 168.296ZM74.7741 163.294C77.6248 163.266 80.4712 163.522 83.2711 164.058C85.579 164.514 87.8871 165.2 90.3316 165.925C93.0917 166.744 95.9475 167.59 98.8519 168.101C104.1 169.02 109.476 168.938 114.694 167.859C119.581 166.811 123.588 164.885 126.286 162.284C129.052 159.614 130.639 156.066 132.319 152.307C132.598 151.717 133.097 151.26 133.709 151.034C134.321 150.808 134.997 150.83 135.592 151.096C136.187 151.362 136.655 151.851 136.894 152.458C137.134 153.065 137.126 153.741 136.873 154.342C136.062 156.151 135.241 157.987 134.267 159.765C136.596 158.65 139.015 157.539 141.495 156.498C148.37 153.605 155.512 151.313 162.418 149.091L164.541 148.408C171.528 146.159 178.621 143.789 181.867 141.707C184.189 140.218 183.958 139.543 182.953 137.815C182.838 137.616 182.711 137.413 182.574 137.203C182.545 137.16 182.518 137.121 182.492 137.078C181.797 136.025 180.865 134.829 179.888 133.573C178.467 131.749 176.856 129.679 175.475 127.433C175.155 126.907 174.848 126.375 174.553 125.838C174.391 125.624 174.264 125.386 174.175 125.133C172.221 121.378 170.906 117.324 170.284 113.137C169.961 111.036 169.823 108.911 169.871 106.786C169.835 106.515 169.845 106.239 169.9 105.971C170.07 101.591 171.087 97.2858 172.896 93.2931C171.366 93.5621 169.596 93.7765 167.508 94.0261C165.459 94.2717 163.111 94.5523 160.43 94.9578C153.743 95.9685 143.701 97.9753 133.828 101.815C124.961 105.266 115.257 110.622 108.503 115.8C102.078 120.731 99.0527 124.946 96.7409 128.759C95.8092 130.294 94.973 131.815 94.1756 133.261C92.7371 135.873 91.3785 138.337 89.7742 140.361C87.677 142.961 85.0381 145.072 82.0414 146.548C79.7567 147.659 78.593 147.659 75.7841 147.659C73.5073 147.659 69.8172 147.659 67.3494 147.635C67.4898 149.027 67.6437 150.415 67.825 151.776C68.0195 152.059 68.2458 152.319 68.4995 152.551C69.2133 153.148 69.9632 153.7 70.7451 154.205C71.0202 154.382 71.2577 154.612 71.4438 154.881C71.63 155.151 71.7613 155.454 71.8301 155.774C71.8989 156.094 71.9039 156.425 71.8448 156.747C71.7858 157.069 71.6638 157.376 71.4859 157.651C71.2438 158.035 70.8995 158.345 70.4915 158.544C70.0836 158.744 69.6281 158.826 69.176 158.781C69.6085 160.35 70.1371 161.89 70.7589 163.394C72.0783 163.337 73.4136 163.294 74.7751 163.294H74.7741ZM69.0509 163.469L69.1659 165.961L69.0509 163.469ZM70.0665 142.671C72.0725 142.678 74.2498 142.678 75.7838 142.678C78.3395 142.678 78.6065 142.678 79.85 142.07C82.1854 140.918 84.2426 139.273 85.8792 137.248C87.2124 135.567 88.4737 133.279 89.8091 130.858C90.6376 129.349 91.5089 127.774 92.4776 126.176C94.9181 122.148 98.3693 117.295 105.468 111.848C112.678 106.32 122.604 100.835 132.019 97.1703C142.319 93.1626 152.75 91.0768 159.684 90.0314C162.421 89.6142 164.823 89.3257 166.914 89.0762C170.261 88.6746 172.904 88.3589 174.526 87.774C176.489 87.0606 176.806 86.0822 176.68 84.7331C176.486 82.6904 175.066 79.852 172.207 75.7977C170.156 72.8892 167.406 69.4079 164.745 66.0434C163.389 64.3232 162.071 62.6595 160.911 61.1507C157.371 56.5465 155.134 53.182 154.182 49.6147C153.713 47.8332 153.586 46.1334 153.475 44.6323C153.391 43.5017 153.305 42.3316 153.077 41.7903C152.826 41.1784 151.266 41.385 150.609 41.4979C148.373 41.8957 145.356 43.1549 139.432 45.8292C131.206 49.5135 122.978 53.5407 114.97 57.8019C111.73 59.5444 108.513 61.343 105.317 63.1975C106.502 65.4983 107.623 67.5523 108.473 69.1155L109.032 70.1408C110.75 73.3016 111.611 74.8892 110.081 76.9906C109.015 78.3958 107.76 79.6462 106.35 80.7059C104.356 82.2585 102.086 83.4199 99.6601 84.1289C97.3191 84.7722 94.5491 84.9047 92.6193 84.4602C89.9058 83.8403 89.1261 82.0197 87.2393 77.6224C86.8863 76.7958 86.5438 75.9849 86.2118 75.1896C78.2569 80.6321 71.173 86.246 66.7462 90.6124C62.2951 95.0062 61.1811 97.5012 60.637 99.5403C60.0367 101.798 60.0894 104.07 62.1401 109.018C63.4558 112.178 65.5221 116.261 67.5182 120.21C68.8436 122.83 70.1108 125.337 71.064 127.388C73.4635 132.553 74.364 135.801 72.6337 139.193C71.9422 140.465 71.0782 141.635 70.066 142.671H70.0665ZM179.967 125.213C181.147 127.076 182.505 128.819 183.823 130.511C184.178 130.971 184.531 131.423 184.87 131.868C185.728 130.915 186.493 129.882 187.154 128.784C188.355 126.733 189.022 124.503 188.939 122.819C188.856 121.801 188.582 120.808 188.132 119.891C184.98 122.18 182.385 123.789 179.968 125.213H179.967ZM174.85 108.098C174.874 109.535 174.995 110.969 175.212 112.39C175.643 115.289 176.455 118.118 177.627 120.803C180.26 119.265 182.813 117.596 185.279 115.802C185.932 115.326 186.564 114.854 187.175 114.386C187.341 114.219 187.529 114.075 187.734 113.958C191.865 110.741 195.024 107.661 197.149 104.773C199.736 101.282 201.435 97.2145 202.1 92.9209C202.232 92.0084 202.278 91.0856 202.239 90.1645C200.911 91.3613 199.479 92.5686 197.941 93.7864C193.264 97.45 188.345 100.794 183.218 103.794C180.51 105.382 177.717 106.818 174.851 108.098H174.85ZM180.468 89.3691C178.588 92.831 176.82 96.1136 175.817 99.903C175.606 100.725 175.43 101.555 175.288 102.39C176.871 101.622 178.596 100.718 180.703 99.4897C185.631 96.6039 190.359 93.3908 194.855 89.872C197.35 87.9218 199.712 85.8066 201.923 83.5406C201.982 83.4732 202.044 83.4094 202.111 83.3496C203.773 81.6268 205.285 79.7656 206.631 77.7862C209.387 73.6671 211.251 69.0164 212.101 64.1335C212.904 59.6853 212.884 55.2252 212.504 52.6171C211.758 53.3149 210.822 54.2974 209.781 55.3929C208.15 57.1082 206.177 59.1785 203.814 61.3694C198.81 66.0165 192.814 70.5467 188.167 73.1978C185.269 74.8655 182.166 76.1473 178.935 77.0104C180.604 79.8681 181.444 82.1567 181.641 84.2659C181.83 86.2426 181.422 87.9697 180.469 89.3693L180.468 89.3691ZM93.729 79.6032C94.6999 79.8217 96.5966 79.8021 98.3412 79.3187C100.146 78.7839 101.834 77.9136 103.316 76.7535C104.183 76.0895 104.979 75.3369 105.69 74.5079C105.398 73.8996 104.901 72.9836 104.649 72.5196L104.096 71.5021C102.238 68.0948 99.1305 62.3951 96.768 56.7771C94.39 51.1165 92.5672 45.0467 91.1971 38.2239C90.8266 36.3213 90.4855 34.4033 90.1774 32.4812C90.1405 32.3368 90.117 32.1893 90.1073 32.0406C89.5751 28.6879 89.1397 25.3156 88.8051 21.9558C88.661 20.5719 88.5499 19.3712 88.4544 18.338C88.4017 17.7766 88.3548 17.2581 88.3082 16.7898C87.0398 18.395 85.9733 20.1498 85.1326 22.015C83.3393 25.9332 82.3102 30.5373 82.0762 35.6907C81.7995 41.7723 82.6454 48.6568 84.5265 55.6045C86.0215 61.1288 88.4094 67.689 91.8228 75.6588C92.4016 77.0115 93.3723 79.2766 93.7524 79.6583L93.729 79.6032ZM151.871 36.3876C155.591 36.3876 157.089 38.4733 157.674 39.8611C158.216 41.1513 158.327 42.6642 158.446 44.2627C158.545 45.6116 158.649 47.0073 159 48.3327C159.736 51.093 161.707 54.0094 164.863 58.1104C166.011 59.6074 167.314 61.2526 168.656 62.9524C171.263 66.2507 173.955 69.6541 176.052 72.6015C178.982 71.8958 181.925 71.0187 185.699 68.8667C188.964 67.0031 193.11 64.009 196.968 60.7654C178.97 40.1615 153.251 28.3955 126.017 28.3955C115.599 28.3841 105.252 30.1142 95.4037 33.5144C95.6187 34.7658 95.8467 36.0134 96.0877 37.2569C97.3899 43.7363 99.117 49.4945 101.364 54.8435C101.908 56.1378 102.495 57.44 103.099 58.7185C106.244 56.898 109.416 55.1267 112.616 53.4048C120.733 49.0892 129.064 45.0112 137.386 41.2803C143.818 38.3759 146.959 37.0815 149.734 36.5865C150.44 36.4589 151.154 36.3924 151.871 36.3876ZM80.3725 159.404C79.9242 159.404 79.4842 159.283 79.0989 159.053C78.7136 158.824 78.3972 158.495 78.1831 158.101C77.9689 157.707 77.8649 157.263 77.882 156.815C77.8991 156.367 78.0366 155.932 78.2801 155.555C78.7977 154.798 79.2596 154.005 79.6621 153.181C80.0115 152.347 80.2994 151.488 80.5237 150.612C80.716 149.988 81.1451 149.464 81.7191 149.153C82.2931 148.842 82.9661 148.769 83.5937 148.949C84.2213 149.128 84.7535 149.547 85.076 150.114C85.3985 150.682 85.4857 151.353 85.3188 151.984C85.0272 153.095 84.6538 154.183 84.2018 155.24C83.6982 156.288 83.1184 157.298 82.4669 158.261C82.2409 158.611 81.9308 158.899 81.565 159.098C81.1992 159.298 80.7892 159.403 80.3725 159.403V159.404ZM124.158 140.325C122.551 140.322 120.947 140.18 119.364 139.9C118.932 139.822 118.514 139.74 118.113 139.65L118.105 139.654L117.825 139.588C117.664 139.549 117.506 139.51 117.35 139.471C116.313 139.22 115.291 138.908 114.292 138.535C113.385 138.2 112.695 137.888 112.254 137.678C112.213 137.658 112.173 137.638 112.133 137.619C111.999 137.553 111.864 137.483 111.732 137.412C110.149 136.551 108.746 135.229 109.301 132.34C109.303 132.333 109.305 132.321 109.307 132.313C109.413 131.779 109.554 131.253 109.73 130.738C110.266 129.151 111.295 126.999 113.243 124.321C113.246 124.318 113.249 124.314 113.251 124.309C115.556 121.171 118.259 118.346 121.293 115.904C121.462 115.767 121.634 115.631 121.805 115.495L123.605 114.088L123.675 114.162C123.796 114.084 123.916 114.002 124.037 113.928C124.079 113.897 124.122 113.869 124.166 113.842C124.583 113.581 125.008 113.328 125.437 113.086C128.287 111.475 131.368 110.311 134.571 109.636L136.156 109.304L136.18 109.336C136.679 109.254 137.182 109.184 137.685 109.129C141.139 108.735 144.638 108.973 147.043 109.749C150.032 110.708 150.449 112.567 150.659 114.719C150.864 116.864 151.004 120.115 149.876 123.608C148.632 127.464 145.967 131.226 142.565 133.936C141.059 135.117 139.434 136.138 137.717 136.984L137.709 136.996L137.313 137.179C135.06 138.262 132.692 139.086 130.253 139.635C130.245 139.636 130.237 139.639 130.23 139.643C128.237 140.092 126.201 140.321 124.158 140.324V140.325ZM126.895 118.016C128.539 120.679 129.274 123.804 128.991 126.921C128.708 130.038 127.421 132.979 125.323 135.302C126.614 135.233 127.897 135.056 129.158 134.772C130.364 134.496 131.552 134.143 132.713 133.716C133.224 133.524 133.729 133.322 134.224 133.107C135.766 130.315 136.554 127.169 136.511 123.979C136.467 120.789 135.593 117.665 133.974 114.916C131.872 115.502 129.847 116.336 127.941 117.4C127.588 117.599 127.239 117.802 126.895 118.016ZM115.6 133.696C116.369 133.996 117.153 134.257 117.949 134.476C119.215 133.995 120.364 133.249 121.317 132.288C122.27 131.326 123.007 130.171 123.476 128.901C123.946 127.631 124.138 126.275 124.039 124.925C123.94 123.574 123.553 122.261 122.904 121.072C120.857 122.895 119.002 124.924 117.37 127.127C117.343 127.166 117.316 127.209 117.286 127.252C115.629 129.521 114.85 131.205 114.481 132.262C114.386 132.536 114.305 132.814 114.238 133.096C114.263 133.108 114.292 133.123 114.319 133.135C114.359 133.155 114.401 133.178 114.452 133.201C114.826 133.376 115.208 133.54 115.6 133.696ZM139.14 113.997C141.332 118.512 142.022 123.61 141.109 128.546C142.964 126.651 144.389 124.378 145.132 122.078C145.966 119.49 145.873 117.041 145.697 115.197C145.686 115.077 145.657 114.789 145.623 114.554C144.064 114.075 141.855 113.782 139.14 113.997Z" fill="#121725"/>
</g>
<defs>
<clipPath id="clip0_242_94399">
<rect width="215.028" height="215.027" fill="white" transform="translate(18.502 9.99561)"/>
</clipPath>
</defs>
</svg>
