<svg width="250" height="250" viewBox="0 0 250 250" fill="none" xmlns="http://www.w3.org/2000/svg">
<path d="M134.221 100.562C135.551 103.747 136.846 106.967 138.141 110.187C138.351 110.712 138.596 111.237 138.456 112.042C136.041 110.957 134.011 109.522 132.051 108.087C125.191 103.047 119.591 96.8874 115.426 89.4324C114.131 87.1224 114.096 87.1224 111.891 88.8374C102.931 95.8374 94.2156 103.187 84.9056 109.767C82.3156 111.587 79.6206 112.532 76.4706 111.762C73.8456 111.132 73.1456 109.837 74.4756 107.597C79.5856 98.8824 81.1956 89.1874 82.3506 79.4224C83.3656 70.6724 85.5006 62.3774 91.0656 55.3074C94.5656 50.8624 98.8356 47.2574 103.876 44.6324C104.611 44.2474 105.311 43.6174 106.466 43.8624C106.781 46.8374 107.131 49.8824 107.481 53.0324C108.916 53.0674 109.441 51.8424 110.176 51.1074C114.691 46.4524 119.941 42.9874 126.171 41.0974C127.606 40.5724 135.866 39.6274 138.561 39.6274C139.261 40.2574 139.716 40.9224 139.786 41.9724C140.276 47.9924 138.701 53.3124 134.851 57.9324C133.451 59.6124 132.051 61.3274 130.651 63.0074C130.476 63.2524 130.091 63.7074 130.091 63.7424C130.511 64.1624 137.056 60.3474 140.101 58.8774C145.351 56.3924 150.671 54.1874 156.551 53.8374C158.896 53.6974 161.136 54.0824 163.341 54.9574C164.566 55.4474 164.636 56.0774 164.006 57.1274C161.451 61.2224 158.056 64.4424 154.276 67.3474C150.111 70.4974 145.666 73.1924 140.906 75.3624C140.311 75.6424 139.611 75.8174 138.911 76.7274C147.556 79.0724 156.271 81.1724 162.291 88.9074C156.691 91.4974 151.266 91.7074 145.771 90.8674C139.786 89.9574 134.326 87.5424 129.461 83.8674C128.691 83.3074 126.801 81.8374 126.556 82.0824C126.346 82.3274 131.771 94.6124 134.221 100.562ZM105.346 76.3074C105.416 74.9774 104.296 73.7174 102.931 73.6124C101.461 73.5074 100.341 74.4524 100.271 75.9574C100.201 77.4974 101.076 78.5124 102.616 78.5824C104.156 78.6524 105.276 77.7074 105.346 76.3074ZM88.7906 73.6824C87.3556 73.7524 86.4456 74.6624 86.4456 76.0624C86.4456 77.4974 87.5306 78.5824 89.0356 78.5824C90.5406 78.5824 91.6256 77.4624 91.5556 76.0274C91.4856 74.6274 90.2956 73.6124 88.7906 73.6824Z" fill="#FE6C02"/>
<path d="M150.988 40.9924C169.013 45.4024 182.628 56.0424 193.443 70.7074C195.438 73.4024 197.258 76.2724 198.868 79.3524C197.258 80.4724 195.438 80.6474 193.653 80.7874C186.758 81.3824 180.178 79.9124 173.948 77.1824C167.823 74.4874 161.558 72.4574 154.138 72.4574C155.713 71.2324 156.798 70.3924 157.883 69.5174C161.978 66.1924 165.583 62.4824 168.068 57.7924C169.573 54.9224 169.363 54.1524 166.633 52.4024C162.468 49.7774 157.883 49.6024 153.228 50.3024C149.518 50.8624 145.983 52.1574 142.133 53.6624C143.498 48.8674 144.583 44.3174 143.218 39.6274C143.953 39.6274 149.168 40.5374 150.988 40.9924Z" fill="#FE6C02"/>
<path d="M118.298 210.566C117.388 208.186 118.228 205.981 119.068 203.881C120.713 199.681 123.513 196.216 126.908 193.311C132.788 188.306 139.753 185.226 146.753 182.216C146.963 182.111 147.313 182.251 147.838 182.286C146.613 184.666 145.248 186.836 144.443 189.251C142.623 194.781 142.833 200.241 144.933 205.631C145.843 207.941 145.808 208.011 143.323 208.536C140.593 209.096 137.828 209.516 135.063 209.971C134.608 210.041 123.478 210.566 118.298 210.566Z" fill="#FE6C02"/>
<path d="M40.0703 126.532C44.6553 127.722 46.5453 131.432 48.0153 135.352C49.1353 138.327 50.3953 141.232 52.0753 143.927C53.0553 145.467 54.1403 146.937 55.1553 148.477C55.6103 149.177 56.3103 149.772 56.3453 150.752C54.6303 151.137 53.0903 150.297 51.4453 150.332C50.0103 150.367 48.5403 150.297 47.1053 150.367C43.6753 150.577 43.7103 150.612 42.7653 147.147C41.8203 143.717 41.2253 140.217 40.6653 136.682C40.6303 136.157 40.0703 129.437 40.0703 126.532Z" fill="#FE6C02"/>
<path d="M41.1923 112.112C41.7173 109.802 42.0324 107.457 42.9075 104.938C44.8677 106.407 44.9728 108.367 44.8327 110.152C44.5527 114.107 44.4477 117.992 44.7977 121.947C44.9728 123.662 44.5877 123.837 42.8025 123.312C41.8924 123.032 40.9822 122.752 40.0371 122.507C40.0721 120.757 40.8072 113.827 41.1923 112.112Z" fill="#FE6C02"/>
<path d="M112.908 92.9673C115.498 96.3623 117.948 99.7923 120.818 102.907C125.998 108.472 131.773 113.197 138.633 116.522C139.998 117.187 140.663 118.062 140.943 119.532C141.888 124.922 141.853 130.242 140.838 135.702C138.598 135.107 136.848 133.917 135.028 132.902C128.973 129.542 122.533 128.527 115.743 129.857C114.483 130.102 113.678 129.962 112.943 128.632C111.788 126.567 111.648 126.602 109.303 127.757C100.623 132.062 91.5233 135.107 82.1083 137.277C79.8683 137.802 77.5933 138.257 75.2483 138.187C74.0583 138.152 73.0783 137.802 72.7983 136.612C72.5183 135.422 73.2183 134.617 74.2683 134.092C74.6883 133.882 75.1433 133.672 75.5983 133.532C83.1233 131.327 88.4433 126.322 92.7833 120.092C95.7233 115.892 98.2433 111.447 100.413 106.827C103.213 101.017 107.518 96.6423 112.908 92.9673Z" fill="#FE6C02"/>
<path d="M135.166 91.8126C138.806 93.2126 142.411 94.4376 146.226 94.9626C152.841 95.8726 159.071 94.8576 165.091 92.0576C167.156 91.1126 167.366 90.4826 166.316 88.4526C164.181 84.2526 160.716 81.3826 156.726 79.1076C155.256 78.2676 153.751 77.5326 151.861 76.5526C167.191 75.8526 177.061 81.2076 182.206 94.0876C183.991 98.4976 184.866 103.118 185.006 107.878C185.041 108.893 185.006 109.698 183.956 110.293C172.056 116.908 159.631 119.813 146.191 115.543C144.371 114.983 143.321 114.073 142.831 112.148C141.221 106.093 138.246 100.528 135.971 94.6826C135.586 93.8426 134.886 93.0726 135.166 91.8126Z" fill="#FE6C02"/>
<path d="M102.863 144.242C103.353 143.472 103.703 142.982 103.983 142.492C109.548 132.937 120.783 130.977 129.183 134.407C132.508 135.772 135.483 137.732 138.738 139.202C140.138 139.832 139.298 140.602 139.053 141.267C135.203 152.642 127.083 159.572 116.093 163.632C111.753 165.242 107.238 166.257 102.653 166.992C100.028 167.412 99.4327 167.097 98.3127 164.787C95.1627 158.207 92.0127 151.557 88.8977 144.942C88.5827 144.242 88.3027 143.507 88.0577 142.807C86.8677 139.552 87.8827 138.187 91.4177 138.082C93.7627 138.012 95.7227 138.992 97.6477 140.112C99.4677 141.197 101.078 142.597 102.863 144.242Z" fill="#FE6C02"/>
<path d="M144.791 119.182C159.176 123.592 172.371 121.002 185.286 113.932C185.566 121.212 185.566 127.897 182.941 134.267C181.191 138.572 177.586 140.637 173.176 141.582C167.646 142.772 162.221 141.897 156.831 140.777C153.716 140.147 150.741 139.027 147.626 138.327C146.226 138.012 145.701 137.207 145.631 135.912C145.526 133.882 145.421 131.852 145.491 129.857C145.596 126.427 145.246 122.997 144.791 119.182Z" fill="#FE6C02"/>
<path d="M188.578 127.617C189.278 128.842 189.768 129.752 190.293 130.662C193.758 136.472 198.623 140.112 205.553 140.707C208.003 140.917 208.003 141.022 207.548 143.332C205.588 153.062 201.878 162.092 196.663 170.492C195.403 172.487 195.368 172.487 193.338 171.402C190.468 169.862 188.893 167.237 187.808 164.297C185.988 159.327 185.638 154.147 185.743 148.932C185.848 141.862 187.003 134.932 188.578 127.617Z" fill="#FE6C02"/>
<path d="M181.156 142.736C177.866 152.641 173.771 161.426 165.196 167.271C160.296 170.596 157.076 169.931 153.856 164.926C150.741 160.096 149.201 154.636 147.906 149.071C147.381 146.866 147.066 144.626 146.576 142.106C158.091 145.221 169.256 148.441 181.156 142.736Z" fill="#FE6C02"/>
<path d="M123.514 190.896C122.114 192.506 120.819 193.906 119.629 195.376C116.619 199.226 114.309 203.426 114.169 208.501C114.134 209.691 113.714 209.901 112.559 209.726C100.484 207.871 89.2835 203.741 78.8535 196.986C80.8485 194.536 83.4735 193.206 86.1685 192.086C93.1335 189.181 100.344 188.656 107.729 189.811C112.489 190.546 117.284 190.931 122.149 190.791C122.499 190.756 122.849 190.826 123.514 190.896Z" fill="#FE6C02"/>
<path d="M169.921 168.498C167.611 178.053 165.161 187.188 173.526 194.678C173.351 195.308 172.826 195.588 172.371 195.903C165.966 200.208 159.106 203.638 151.791 206.158C150.146 206.718 149.411 206.403 148.746 204.828C145.981 197.968 146.646 191.458 150.531 185.228C152.526 182.008 155.046 179.243 157.986 176.863C161.626 173.853 165.791 171.683 169.921 168.498Z" fill="#FE6C02"/>
<path d="M188.367 102.873C189.907 104.308 191.027 105.463 192.287 106.513C196.557 110.118 201.317 112.393 207.092 111.623C208.142 111.483 208.597 111.658 208.737 112.883C209.577 120.198 209.507 127.513 208.982 134.828C208.877 136.543 208.247 137.103 206.497 136.963C201.562 136.578 197.677 134.443 194.772 130.453C191.832 126.358 190.572 121.633 189.557 116.803C188.647 112.358 189.277 107.808 188.367 102.873Z" fill="#FE6C02"/>
<path d="M193.197 175.601C188.752 181.656 183.922 186.696 178.462 191.176C177.272 192.156 176.502 191.911 175.487 191.071C172.792 188.796 171.777 185.786 171.602 182.391C171.357 177.071 172.897 172.136 174.682 167.236C176.537 162.161 179.337 157.541 181.752 152.641C182.032 155.826 182.382 158.976 183.152 162.056C184.587 167.866 187.002 172.976 193.197 175.601Z" fill="#FE6C02"/>
<path d="M133.312 157.822C133.732 158.977 133.207 159.992 132.997 161.112C132.157 165.837 131.247 170.562 131.982 175.462C132.402 178.297 133.242 180.887 135.132 183.267C132.542 184.912 129.812 185.682 127.012 186.207C122.042 187.152 117.037 186.907 112.032 186.452C110.317 186.312 110.037 185.647 110.422 184.037C111.822 178.297 115.182 173.782 119.137 169.617C121.377 167.202 124.072 165.312 126.627 163.247C128.832 161.462 131.072 159.642 133.312 157.822Z" fill="#FE6C02"/>
<path d="M75.1057 165.626C81.6857 168.461 88.4757 170.456 95.7207 170.841C101.461 171.156 107.061 170.561 112.626 169.196C113.081 169.091 113.501 168.811 114.061 169.056C114.096 169.896 113.396 170.316 112.941 170.876C109.861 174.901 107.271 179.171 106.606 184.316C106.466 185.471 105.906 185.751 104.856 185.541C98.5207 184.246 92.2557 182.811 86.4107 179.906C83.1207 178.261 80.6007 175.811 78.5357 172.836C77.0657 170.701 75.5957 168.531 74.7207 166.081C74.8607 165.906 74.9657 165.766 75.1057 165.626Z" fill="#FE6C02"/>
<path d="M180.633 83.6228C182.628 83.9028 184.133 84.1128 185.638 84.3578C190.188 85.1978 194.668 84.9178 199.078 83.5528C200.373 83.1678 200.898 83.2728 201.458 84.5328C204.433 91.4628 206.428 98.6728 207.828 106.058C208.073 107.388 207.583 107.808 206.393 107.913C202.858 108.193 199.743 107.073 196.873 105.148C193.128 102.628 190.363 99.1978 187.808 95.5228C185.253 91.8128 183.713 87.5428 180.633 83.6228Z" fill="#FE6C02"/>
<path d="M74.8612 174.622C68.8062 173.537 63.1362 173.607 58.3762 178.332C52.6012 171.192 48.3662 163.422 45.0762 154.602C48.2612 154.042 51.2712 154.042 54.2462 154.602C60.9662 155.827 66.1112 159.537 69.6812 165.312C71.5362 168.217 73.0412 171.332 74.8612 174.622Z" fill="#FE6C02"/>
<path d="M142.936 143.788C143.916 150.018 145.351 155.968 147.766 161.673C150.076 167.098 151.896 169.373 156.481 172.698C151.126 175.813 145.666 178.578 140.101 181.168C139.051 181.658 138.456 181.273 137.896 180.538C136.356 178.578 135.796 176.268 135.621 173.818C135.271 168.568 136.321 163.458 137.546 158.418C138.596 154.113 140.031 149.948 141.571 145.818C141.851 145.153 141.851 144.278 142.936 143.788Z" fill="#FE6C02"/>
<path d="M90.858 186.173C85.433 187.783 80.498 189.988 76.368 193.733C75.493 194.503 74.898 194.293 74.128 193.698C69.823 190.303 65.728 186.698 62.088 182.568C60.968 181.308 61.423 180.643 62.508 179.873C65.833 177.493 69.543 177.598 73.288 178.333C76.018 178.893 78.608 179.943 81.058 181.308C84.208 183.058 87.393 184.843 90.858 186.173Z" fill="#FE6C02"/>
<path d="M74.7218 166.045C74.4768 165.94 74.2668 165.765 74.4768 165.52C74.6868 165.275 74.8968 165.485 75.1068 165.625C74.9668 165.765 74.8618 165.905 74.7218 166.045Z" fill="#FE6C02"/>
</svg>
