<svg width="250" height="250" viewBox="0 0 250 250" fill="none" xmlns="http://www.w3.org/2000/svg">
<path opacity="0.7" d="M175.4 50.5398L88.7397 46.6548L38.3047 109.69L73.6547 193.9L161.155 199.22L210.995 128.345L175.4 50.5398Z" fill="#45464D"/>
<path d="M210.997 128.445L161.612 78.3945L148.627 174.4L210.997 128.445Z" fill="#656569"/>
<path d="M71.9414 117.175L161.611 78.3945L148.626 174.4L71.9414 117.175Z" fill="url(#paint0_linear_242_93739)"/>
<path d="M161.611 78.3963L88.7414 46.7563L71.9414 117.176L161.611 78.3963Z" fill="url(#paint1_linear_242_93739)"/>
<path d="M71.9414 117.177L73.6564 194.002L148.626 174.402L71.9414 117.177Z" fill="url(#paint2_linear_242_93739)"/>
<path d="M161.612 78.3963L175.402 50.6063L88.7422 46.7563L161.612 78.3963Z" fill="#757578"/>
<path d="M175.401 50.6055L210.996 128.445L161.611 78.3955L175.401 50.6055Z" fill="#6C6D70"/>
<path d="M210.997 128.446L161.157 199.286L148.627 174.401L210.997 128.446Z" fill="#6C6D70"/>
<path d="M161.156 199.287L73.6562 194.002L148.626 174.402L161.156 199.287Z" fill="#55565A"/>
<path d="M88.7416 46.7563L38.3066 109.756L71.9416 117.176L88.7416 46.7563Z" fill="#55565A"/>
<path d="M38.3066 109.756L73.6566 194.001L71.9416 117.176L38.3066 109.756Z" fill="#656569"/>
<path opacity="0.7" d="M152.441 91.5923L143.341 160.437L89.7559 118.997L152.441 91.5923Z" fill="#151A22"/>
<path opacity="0.7" d="M145.196 77.8705L95.1112 56.3105L84.5762 101.671L145.196 77.8705Z" fill="#151A22"/>
<path opacity="0.7" d="M132.491 170.865L78.0664 131.98L79.3614 184.69L132.491 170.865Z" fill="#23262E"/>
<path opacity="0.7" d="M201.826 128.27L164.761 90.6099L154.961 163.025L201.826 128.27Z" fill="#23262E"/>
<path opacity="0.7" d="M145.268 179.334L153.353 194.804L99.3477 191.339L145.268 179.334Z" fill="#43444B"/>
<path opacity="0.7" d="M194.582 145.353L154.402 175.313L162.382 190.923L194.582 145.353Z" fill="#34363D"/>
<path opacity="0.7" d="M175.578 61.4927L196.823 107.063L167.773 77.5227L175.578 61.4927Z" fill="#34363D"/>
<path opacity="0.7" d="M165.847 53.8271L156.922 70.1721L114.852 51.7271L165.847 53.8271Z" fill="#36383F"/>
<path opacity="0.7" d="M81.6022 61.2095L69.7372 111.434L45.8672 106.359L81.6022 61.2095Z" fill="#3B3C43"/>
<path opacity="0.7" d="M68.301 120.292L69.351 174.227L44.291 115.217L68.301 120.292Z" fill="#45464D"/>
<defs>
<linearGradient id="paint0_linear_242_93739" x1="71.9308" y1="126.392" x2="161.625" y2="126.392" gradientUnits="userSpaceOnUse">
<stop stop-color="#A3A2A5"/>
<stop offset="0.2705" stop-color="#9F9EA0"/>
<stop offset="0.5607" stop-color="#929194"/>
<stop offset="0.8592" stop-color="#7C7C80"/>
<stop offset="1" stop-color="#707073"/>
</linearGradient>
<linearGradient id="paint1_linear_242_93739" x1="71.3377" y1="115.892" x2="135.068" y2="52.7774" gradientUnits="userSpaceOnUse">
<stop stop-color="#969598"/>
<stop offset="0.3396" stop-color="#908F92"/>
<stop offset="0.7917" stop-color="#7F7F82"/>
<stop offset="1" stop-color="#757578"/>
</linearGradient>
<linearGradient id="paint2_linear_242_93739" x1="76.2497" y1="115.002" x2="110.293" y2="182.513" gradientUnits="userSpaceOnUse">
<stop stop-color="#9E9EA0"/>
<stop offset="0.2759" stop-color="#9B9B9D"/>
<stop offset="0.494" stop-color="#919194"/>
<stop offset="0.6923" stop-color="#808083"/>
<stop offset="0.8777" stop-color="#69696D"/>
<stop offset="1" stop-color="#55565A"/>
</linearGradient>
</defs>
</svg>
