<svg width="250" height="250" viewBox="0 0 250 250" fill="none" xmlns="http://www.w3.org/2000/svg">
<path d="M247.398 124.799C247.398 158.699 233.598 189.399 211.348 211.599C189.198 233.649 158.648 247.299 124.898 247.299C91.1477 247.299 60.5977 233.649 38.4477 211.599C16.1477 189.399 2.34766 158.699 2.34766 124.799C2.34766 57.1493 57.1977 2.29935 124.848 2.29935C192.548 2.24935 247.398 57.0994 247.398 124.799Z" fill="#FF6766"/>
<path d="M247.4 124.799C247.4 192.449 192.55 247.299 124.9 247.299C91.1004 247.299 60.5504 233.649 38.4004 211.549L211.6 38.2485C233.7 60.3985 247.4 90.9985 247.4 124.799Z" fill="#D95E59"/>
<path d="M211.349 211.598C189.199 233.648 158.649 247.298 124.899 247.298C91.1492 247.298 60.5992 233.648 38.4492 211.598C60.5992 189.548 91.1492 175.898 124.899 175.898C158.649 175.898 189.149 189.498 211.349 211.598Z" fill="#FEF4C8"/>
<path d="M125 75.1463C133.478 75.1463 140.35 68.2739 140.35 59.7963C140.35 51.3187 133.478 44.4463 125 44.4463C116.523 44.4463 109.65 51.3187 109.65 59.7963C109.65 68.2739 116.523 75.1463 125 75.1463Z" fill="#016273"/>
<path d="M125 44.4967C133.45 44.4967 140.35 51.3467 140.35 59.8467C140.35 68.3467 133.5 75.1967 125 75.1967C116.5 75.1967 109.65 68.3467 109.65 59.8467C109.65 51.3467 116.5 44.4967 125 44.4967ZM125 29.0967C108.05 29.0967 94.25 42.8967 94.25 59.8467C94.25 76.7967 108.05 90.5967 125 90.5967C141.95 90.5967 155.75 76.7967 155.75 59.8467C155.75 42.8967 141.95 29.0967 125 29.0967Z" fill="white"/>
</svg>
