<svg width="250" height="250" viewBox="0 0 250 250" fill="none" xmlns="http://www.w3.org/2000/svg">
<path d="M161.302 8.24853V53.7485C161.302 68.4985 149.102 80.4485 134.052 80.4485H133.652C126.102 80.3985 119.302 80.4485 119.302 80.4485C118.002 80.4485 116.602 80.2985 115.352 80.4485C106.902 81.2985 99.5016 85.0985 93.3516 91.7985C93.1516 91.9485 93.0016 92.1985 92.8516 92.3485C87.8516 98.6485 85.1516 106.849 85.1516 115.699V116.149C85.1516 121.799 86.3516 127.249 88.5016 132.099C90.6516 136.949 89.5516 142.599 85.4016 145.949C81.3516 149.299 76.5516 153.199 73.3016 155.749C63.9016 145.249 58.4016 131.599 58.4016 116.649V116.199C58.4016 83.6985 84.9016 56.5485 120.952 56.5485C123.202 56.5485 130.552 56.5485 133.952 56.5485V3.34854C131.102 3.14854 128.102 2.99854 125.152 2.99854C56.5016 2.99854 0.851562 57.5985 0.851562 124.999C0.851562 180.049 38.0016 226.549 89.0016 241.699V196.549C89.0016 181.649 101.302 169.549 116.502 169.549H116.652C124.202 169.599 131.002 169.549 131.002 169.549C132.302 169.549 133.702 169.699 134.952 169.549C143.402 168.699 150.802 164.899 156.952 158.199C157.152 158.049 157.302 157.799 157.452 157.649C162.452 151.349 165.152 143.149 165.152 134.299V133.849C165.152 129.449 163.252 123.499 161.352 118.749C159.252 113.399 160.852 107.299 165.302 103.699C169.152 100.549 173.052 97.3985 176.952 94.3485C186.352 104.849 191.852 118.499 191.852 133.449V133.899C191.852 166.399 165.352 193.549 129.302 193.549C127.052 193.549 119.702 193.549 116.302 193.549V246.699C119.202 246.899 122.152 247.049 125.152 247.049C193.802 247.049 249.452 192.449 249.452 125.049C249.452 69.9485 212.302 23.4485 161.302 8.24853Z" fill="#1D8AED"/>
</svg>
