<svg width="250" height="250" viewBox="0 0 250 250" fill="none" xmlns="http://www.w3.org/2000/svg">
    <rect width="250" height="250" rx="125" fill="#8247E5" />
    <path
        d="M165.74 96.9705C162.798 95.2432 158.959 95.2432 155.696 96.9705L132.666 110.309L117.024 119.01L93.9932 132.348C91.0503 134.076 87.2119 134.076 83.9492 132.348L65.6525 121.92C62.7097 120.193 60.6305 116.994 60.6305 113.508V92.9401C60.6305 89.4535 62.3898 86.2868 65.6525 84.5275L83.6613 74.3875C86.6041 72.6602 90.4426 72.6602 93.7053 74.3875L111.714 84.5275C114.657 86.2548 116.736 89.4535 116.736 92.9401V106.279L132.378 97.2903V83.9517C132.378 80.4651 130.619 77.2984 127.356 75.5391L94.0251 56.4107C91.0823 54.6834 87.2439 54.6834 83.9812 56.4107L50.0747 75.5391C46.812 77.2664 45.0527 80.4651 45.0527 83.9517V122.496C45.0527 125.983 46.812 129.15 50.0747 130.909L84.0132 150.037C86.956 151.765 90.7944 151.765 94.0571 150.037L117.088 136.986L132.73 127.998L155.76 114.947C158.703 113.22 162.542 113.22 165.804 114.947L183.813 125.087C186.756 126.815 188.835 130.013 188.835 133.5V154.068C188.835 157.554 187.076 160.721 183.813 162.48L165.804 172.908C162.862 174.635 159.023 174.635 155.76 172.908L137.752 162.768C134.809 161.041 132.73 157.842 132.73 154.356V141.017L117.088 150.005V163.344C117.088 166.831 118.847 169.997 122.11 171.757L156.048 190.885C158.991 192.612 162.83 192.612 166.092 190.885L200.031 171.757C202.974 170.029 205.053 166.831 205.053 163.344V124.799C205.053 121.313 203.293 118.146 200.031 116.387L165.74 96.9705Z"
        fill="white" />
</svg>
