<svg width="250" height="250" viewBox="0 0 250 250" fill="none" xmlns="http://www.w3.org/2000/svg">
<g clip-path="url(#clip0_242_94417)">
<path d="M117.27 204.57C156.624 204.57 188.526 172.668 188.526 133.314C188.526 93.9601 156.624 62.0576 117.27 62.0576C77.9162 62.0576 46.0137 93.9601 46.0137 133.314C46.0137 172.668 77.9162 204.57 117.27 204.57Z" fill="#D400A8"/>
<path d="M110.037 117.831C107.067 115.617 102.565 114.51 96.5323 114.51C95.2781 114.51 93.1073 114.575 90.0197 114.704C86.9322 114.834 84.4774 114.899 82.6553 114.899C82.1585 114.899 81.0288 114.877 79.2662 114.834C77.5035 114.791 75.9952 114.769 74.741 114.769C72.8006 114.769 71.3337 115.039 70.3403 115.579C69.3469 116.119 68.85 116.908 68.8496 117.944C68.8496 119.089 69.5594 119.986 70.979 120.633C72.3986 121.281 73.1912 121.713 73.3569 121.929C73.7119 122.383 73.984 123.938 74.1733 126.595C74.3627 129.252 74.4573 132.784 74.4572 137.19C74.4572 142.763 74.3626 147.197 74.1733 150.49C73.9841 153.784 73.712 155.658 73.3569 156.112C73.1911 156.307 72.3985 156.733 70.979 157.392C69.5595 158.051 68.8497 158.952 68.8496 160.097C68.8496 161.393 69.6541 162.289 71.263 162.786C72.872 163.282 76.0188 163.531 80.7036 163.531C85.2465 163.531 88.3343 163.277 89.9668 162.769C91.5992 162.262 92.4155 161.371 92.4156 160.096C92.4156 158.952 91.6996 158.05 90.2676 157.391C88.8356 156.733 88.0373 156.296 87.8725 156.08C87.6119 155.756 87.4167 154.908 87.2868 153.536C87.157 152.165 87.092 150.172 87.0918 147.558C87.0918 147.084 87.1036 146.311 87.1272 145.242C87.1509 144.172 87.1627 143.324 87.1627 142.698C88.6053 142.828 89.9658 142.925 91.2441 142.99C92.5224 143.055 93.7529 143.087 94.9355 143.087C101.205 143.087 106.032 141.77 109.416 139.134C112.8 136.499 114.492 132.751 114.491 127.891C114.491 123.399 113.006 120.045 110.037 117.831ZM99.0877 134.339C97.2893 135.57 94.2609 136.186 90.0024 136.186H88.263C87.8953 136.187 87.5278 136.165 87.1627 136.121V133.335C87.1627 129.08 87.1982 126.315 87.2692 125.04C87.3401 123.766 87.4703 122.88 87.6596 122.383C87.9221 121.777 88.4131 121.3 89.0259 121.055C89.6527 120.795 90.6763 120.666 92.0968 120.666C95.3142 120.666 97.7335 121.292 99.3547 122.545C100.976 123.798 101.786 125.677 101.786 128.183C101.785 131.056 100.886 133.108 99.0877 134.339Z" fill="white"/>
<path d="M169.006 128.231C167.202 124.581 164.521 121.436 161.203 119.078C158.834 117.412 156.211 116.143 153.435 115.32C150.488 114.443 147.429 114.007 144.355 114.023C139.72 114.023 135.429 114.855 131.48 116.518C127.532 118.181 124.363 120.471 121.974 123.387C120.269 125.467 118.942 127.831 118.055 130.37C117.158 132.97 116.708 135.703 116.725 138.453C116.725 143.011 117.7 147.126 119.651 150.798C121.601 154.47 124.409 157.505 128.075 159.903C130.423 161.429 132.988 162.592 135.683 163.353C138.504 164.151 141.423 164.549 144.354 164.536C148.989 164.536 153.251 163.694 157.141 162.009C161.031 160.324 164.217 157.937 166.699 154.849C168.36 152.828 169.651 150.53 170.512 148.061C171.382 145.544 171.82 142.899 171.807 140.236C171.833 136.07 170.873 131.956 169.006 128.231ZM154.616 154.006C152.666 156.468 150.061 157.699 146.801 157.7C144.795 157.707 142.824 157.175 141.094 156.16C139.322 155.135 137.692 153.617 136.203 151.608C134.456 149.19 133.116 146.503 132.233 143.654C131.311 140.724 130.845 137.669 130.851 134.598C130.851 130.386 131.831 127.021 133.793 124.505C135.754 121.989 138.353 120.73 141.59 120.73C143.528 120.73 145.406 121.276 147.226 122.367C149.045 123.457 150.746 125.061 152.329 127.178C153.984 129.36 155.266 131.936 156.175 134.906C157.086 137.882 157.546 140.978 157.54 144.091C157.54 148.238 156.565 151.543 154.616 154.006Z" fill="white"/>
<path d="M171.808 109.886C189.599 109.886 204.022 95.4629 204.022 77.6716C204.022 59.8803 189.599 45.4575 171.808 45.4575C154.016 45.4575 139.594 59.8803 139.594 77.6716C139.594 95.4629 154.016 109.886 171.808 109.886Z" fill="#6C0057"/>
<path d="M168.5 81.0621C168.023 81.0621 167.592 81.5072 167.208 82.3976C166.992 82.9373 166.727 83.4557 166.415 83.9461C166.093 84.4389 165.569 84.8036 164.843 85.0402C164.116 85.2767 163.157 85.3951 161.964 85.3953C161.363 85.4032 160.763 85.3795 160.166 85.3243C159.745 85.277 159.483 85.206 159.38 85.1111C159.244 84.9882 159.125 84.6022 159.022 83.9533C158.91 83.1984 158.858 82.4359 158.866 81.6729C158.866 81.6351 158.861 81.5167 158.85 81.3177C158.819 80.4084 158.803 79.5086 158.803 78.6184C158.803 75.9473 158.845 73.9131 158.928 72.516C159.011 71.1189 159.135 70.3162 159.301 70.1078C159.384 70.0038 159.732 69.8096 160.344 69.5253C160.956 69.2411 161.262 68.848 161.262 68.3462C161.262 67.7874 160.925 67.4014 160.251 67.1882C159.576 66.9749 158.202 66.8684 156.126 66.8687C154.051 66.8687 152.677 66.9752 152.002 67.1882C151.328 67.4011 150.991 67.7872 150.991 68.3462C150.991 68.8483 151.299 69.239 151.917 69.5182C152.534 69.7974 152.884 69.9892 152.967 70.0937C153.122 70.2926 153.242 70.9745 153.325 72.1395C153.408 73.3046 153.449 74.8533 153.449 76.7856C153.449 79.2292 153.408 81.1733 153.325 82.6177C153.242 84.0621 153.122 84.8838 152.967 85.0828C152.894 85.1677 152.546 85.3547 151.924 85.644C151.302 85.9333 150.99 86.3287 150.99 86.8303C150.99 87.3514 151.247 87.7089 151.76 87.9029C152.274 88.0969 153.589 88.194 155.706 88.1942H165.432C166.157 88.1967 166.878 88.2876 167.58 88.4647C167.713 88.5048 167.848 88.5334 167.985 88.5502C168.473 88.5502 168.925 88.0245 169.339 86.9731C169.754 85.9216 169.961 84.6903 169.962 83.279C169.962 82.4551 169.85 81.8797 169.627 81.5528C169.405 81.2258 169.029 81.0623 168.5 81.0621Z" fill="white"/>
<path d="M192.256 82.9208C192.148 82.7637 192.002 82.636 191.833 82.5492C191.663 82.4624 191.474 82.4192 191.283 82.4236C190.92 82.4236 190.49 82.6983 189.992 83.2476C189.768 83.5031 189.528 83.7451 189.276 83.9722C188.763 84.4066 188.168 84.7328 187.525 84.9312C186.802 85.1523 186.049 85.2602 185.292 85.251C182.729 85.251 180.745 84.4246 179.339 82.7717C177.933 81.1189 177.23 78.7958 177.23 75.8026C177.23 73.7282 177.726 72.1371 178.717 71.0293C179.708 69.9214 181.132 69.3674 182.989 69.367C184.062 69.3497 185.127 69.5553 186.117 69.9709C187.04 70.3739 188.051 71.0962 189.152 72.1375C189.193 72.1754 189.271 72.2511 189.385 72.3649C190.028 72.9806 190.563 73.2882 190.988 73.2877C191.192 73.3 191.396 73.2697 191.588 73.1988C191.779 73.1278 191.954 73.0178 192.101 72.8756C192.239 72.7192 192.346 72.5371 192.414 72.3397C192.482 72.1422 192.51 71.9332 192.498 71.7247C192.516 70.6418 192.248 69.5733 191.719 68.6276C191.201 67.7184 190.63 67.2637 190.008 67.2636C189.796 67.2644 189.585 67.3004 189.385 67.3702C189.166 67.4468 188.957 67.5494 188.763 67.6757C187.889 67.3245 186.985 67.0535 186.062 66.866C185.168 66.6862 184.259 66.5956 183.347 66.5955C181.394 66.5758 179.457 66.9478 177.65 67.6895C175.908 68.419 174.502 69.4325 173.433 70.73C172.673 71.6352 172.082 72.6701 171.69 73.7849C171.292 74.9265 171.092 76.1279 171.099 77.3369C171.075 79.2444 171.515 81.129 172.382 82.8282C173.219 84.4593 174.473 85.8394 176.016 86.8276C177.039 87.4676 178.154 87.9446 179.324 88.2413C180.606 88.5803 181.927 88.7499 183.254 88.7457C184.358 88.7463 185.459 88.6079 186.529 88.3336C187.636 88.0459 188.705 87.6262 189.712 87.0833C189.9 87.1474 190.092 87.1972 190.287 87.2326C190.478 87.2662 190.67 87.2875 190.863 87.2962C191.33 87.2962 191.74 86.9979 192.093 86.4014C192.459 85.7517 192.642 85.0148 192.622 84.2693C192.621 83.7018 192.499 83.2523 192.256 82.9208Z" fill="white"/>
</g>
<defs>
<clipPath id="clip0_242_94417">
<rect width="159.112" height="159.112" fill="white" transform="translate(45.4609 45.4575)"/>
</clipPath>
</defs>
</svg>
