<svg width="250" height="250" viewBox="0 0 250 250" fill="none" xmlns="http://www.w3.org/2000/svg">
<g clip-path="url(#clip0_242_94225)">
<path d="M124.999 249.999C194.035 249.999 249.999 194.034 249.999 124.999C249.999 55.9629 194.035 -0.00146484 124.999 -0.00146484C55.9634 -0.00146484 -0.000976562 55.9629 -0.000976562 124.999C-0.000976562 194.034 55.9634 249.999 124.999 249.999Z" fill="#2C3E50"/>
<path d="M200.28 177.185V169.372C200.28 167.826 199.241 166.794 197.663 166.794H192.468V158.951C192.468 157.396 191.429 156.341 189.882 156.341H184.679V98.9584H189.851C191.405 98.9584 192.468 97.9271 192.468 96.349V88.5365H197.663C198.275 88.5622 198.876 88.3637 199.352 87.9782C199.828 87.5927 200.147 87.0468 200.249 86.4428C200.515 85.1459 199.991 84.1146 198.96 83.5678L126.163 47.0678C125.409 46.8094 124.59 46.8094 123.835 47.0678L48.4287 83.5678C47.9336 83.8373 47.5395 84.2603 47.3056 84.7732C47.0717 85.286 47.0107 85.861 47.1318 86.4115C47.1318 87.7396 48.1709 88.5365 49.46 88.5365H57.2725V96.349C57.2725 97.8959 58.3115 98.9271 59.8584 98.9271H65.0615V156.341H59.8896C58.3271 156.341 57.2725 157.372 57.2725 158.919V166.763H52.0771C50.5146 166.763 49.4834 167.794 49.4834 169.349V177.185C47.9365 177.185 46.874 178.224 46.874 179.802C46.874 181.38 47.9053 182.412 49.46 182.412H200.28C201.827 182.412 202.89 181.38 202.89 179.833C202.89 178.271 201.858 177.185 200.312 177.185H200.28ZM62.4443 93.7318V88.5365H187.241V93.7318H62.4443ZM169.03 98.9662V156.341H158.655V98.9584H169.03V98.9662ZM143.03 98.9662V156.341H132.632V98.9584H143.022L143.03 98.9662ZM117.03 98.9662V156.341H106.655V98.9584H117.03V98.9662ZM91.0303 98.9662V156.341H80.6631V98.9584H91.0303V98.9662ZM187.241 166.763H62.4756V161.537H187.265V166.763H187.241Z" fill="white"/>
</g>
<defs>
<clipPath id="clip0_242_94225">
<rect width="250" height="250" rx="125" fill="white"/>
</clipPath>
</defs>
</svg>
