<svg width="250" height="250" viewBox="0 0 250 250" fill="none" xmlns="http://www.w3.org/2000/svg">
<g clip-path="url(#clip0_242_93747)">
<path opacity="0.9" d="M124.999 249.499C193.758 249.499 249.499 193.758 249.499 124.999C249.499 56.2396 193.758 0.499023 124.999 0.499023C56.2396 0.499023 0.499023 56.2396 0.499023 124.999C0.499023 193.758 56.2396 249.499 124.999 249.499Z" fill="white"/>
<path d="M154.699 118.548C150.949 121.848 144.899 123.648 136.149 123.648H97.099V183.098H113.399V139.098H138.149C145.949 139.098 152.749 137.698 158.499 134.848C164.399 131.898 168.999 127.748 172.349 122.398C175.699 117.048 177.349 110.698 177.349 103.448C177.349 96.2481 175.749 88.8981 172.349 83.4981C169.049 78.1481 164.399 74.0481 158.499 71.2481C152.699 68.2981 145.899 66.8481 138.099 66.8481H96.999V82.2981H136.049C144.799 82.2981 150.849 84.0981 154.599 87.3981C158.299 90.6981 160.299 96.5981 160.299 103.448C160.399 110.148 158.449 115.098 154.699 118.548Z" fill="url(#paint0_linear_242_93747)"/>
<path fill-rule="evenodd" clip-rule="evenodd" d="M249.499 124.999C249.499 193.749 193.749 249.499 124.999 249.499C56.249 249.499 0.499023 193.749 0.499023 124.999C0.499023 56.249 56.249 0.499023 124.999 0.499023C193.749 0.499023 249.499 56.249 249.499 124.999ZM233.199 124.999C233.199 184.749 184.749 233.199 124.999 233.199C65.249 233.199 16.799 184.749 16.799 124.999C16.799 65.249 65.249 16.799 124.999 16.799C184.749 16.799 233.199 65.249 233.199 124.999Z" fill="url(#paint1_linear_242_93747)"/>
</g>
<defs>
<linearGradient id="paint0_linear_242_93747" x1="137.305" y1="63.7751" x2="136.865" y2="287.813" gradientUnits="userSpaceOnUse">
<stop stop-color="#FF2E72"/>
<stop offset="0.9349" stop-color="#4A125E"/>
</linearGradient>
<linearGradient id="paint1_linear_242_93747" x1="125.12" y1="63.752" x2="124.679" y2="287.79" gradientUnits="userSpaceOnUse">
<stop stop-color="#FF2E72"/>
<stop offset="0.9349" stop-color="#4A125E"/>
</linearGradient>
<clipPath id="clip0_242_93747">
<rect width="250" height="250" rx="125" fill="white"/>
</clipPath>
</defs>
</svg>
