<svg width="250" height="250" viewBox="0 0 250 250" fill="none" xmlns="http://www.w3.org/2000/svg">
<path d="M124.9 239.449C188.192 239.449 239.5 188.14 239.5 124.849C239.5 61.5567 188.192 10.2485 124.9 10.2485C61.608 10.2485 10.2998 61.5567 10.2998 124.849C10.2998 188.14 61.608 239.449 124.9 239.449Z" fill="black"/>
<path d="M124.9 0.898926C56.4502 0.898926 0.950195 56.3989 0.950195 124.849C0.950195 193.299 56.4502 248.799 124.9 248.799C193.35 248.799 248.85 193.299 248.85 124.849C248.85 56.3989 193.35 0.898926 124.9 0.898926ZM124.9 228.949C112.8 228.949 101.2 226.849 90.4002 223.049V179.999C100.4 186.249 112.25 189.899 124.9 189.899C160.85 189.899 189.95 160.749 189.95 124.849C189.95 88.8989 160.8 59.7989 124.9 59.7989C88.9502 59.7989 59.8502 88.9489 59.8502 124.849V206.099C36.0502 186.999 20.8002 157.699 20.8002 124.849C20.8002 67.3489 67.4002 20.7489 124.9 20.7489C182.4 20.7489 229 67.3489 229 124.849C229 182.349 182.4 228.949 124.9 228.949ZM89.8502 124.849C89.8502 105.499 105.55 89.7989 124.9 89.7989C144.25 89.7989 159.95 105.499 159.95 124.849C159.95 144.199 144.25 159.899 124.9 159.899C105.55 159.849 89.8502 144.199 89.8502 124.849Z" fill="#00D1FF"/>
</svg>
