<svg width="250" height="250" viewBox="0 0 250 250" fill="none" xmlns="http://www.w3.org/2000/svg">
<rect width="250" height="250" rx="125" fill="white"/>
<path d="M209.262 60.6597L224.876 59.9277L210.299 63.9539L209.262 60.6597Z" fill="#5D6CAC"/>
<path d="M209.261 60.6626L190.171 74.1419L210.298 63.9563L209.261 60.6626Z" fill="#495692"/>
<path d="M210.298 63.9556L190.171 74.1411L198.71 80.3623L210.298 63.9556Z" fill="#3F4B80"/>
<path d="M190.17 74.1419L172.544 72.6782L198.709 80.3631L190.17 74.1419Z" fill="#313A62"/>
<path d="M198.709 80.3631L190.598 85.2425L172.544 72.6782L198.709 80.3631Z" fill="#3F4B80"/>
<path d="M198.71 80.3618L202.43 83.8385L190.599 85.2416L198.71 80.3618Z" fill="#313A62"/>
<path d="M190.599 85.2391L202.431 83.836L216.032 82.0669L220.119 85.2391H190.599Z" fill="#495692"/>
<path d="M190.599 85.2427L199.32 91.4646L220.119 85.2427H190.599Z" fill="#4F60A3"/>
<path d="M216.033 82.0691L227.865 71.7622L220.119 85.2406L216.033 82.0691Z" fill="#3F4B80"/>
<path d="M227.863 71.7622L230.287 72.6772L220.117 85.2406L227.863 71.7622Z" fill="#4F60A3"/>
<path d="M227.865 71.7601L229.817 65.8438L230.29 72.6752L227.865 71.7601Z" fill="black"/>
<path d="M199.32 91.4608L205.757 89.5356L208.712 99.1451L199.32 91.4608Z" fill="#313A62"/>
<path d="M208.712 99.147L209.993 125.373L198.222 130.802L208.712 99.147Z" fill="#313A62"/>
<path d="M208.712 99.1463L199.319 91.4614L198.222 130.801L208.712 99.1463Z" fill="#3F4B80"/>
<path d="M199.32 91.4614L178.461 118.42L198.222 130.801L199.32 91.4614Z" fill="#495692"/>
<path d="M199.32 91.4614L175.533 93.7182L178.461 118.42L199.32 91.4614Z" fill="#3F4B80"/>
<path d="M199.319 91.4636L172.544 72.6782L175.533 93.7204L199.319 91.4636Z" fill="#4B5897"/>
<path d="M175.534 93.7192L171.569 111.132L178.462 118.421L175.534 93.7192Z" fill="#313A62"/>
<path d="M175.533 93.7195L172.545 72.6773L147.355 59.6816L175.533 93.7195Z" fill="#313A62"/>
<path d="M175.533 93.7195L171.569 111.133L147.355 59.6816L175.533 93.7195Z" fill="#3F4B80"/>
<path d="M171.569 111.133L132.717 62.6745L147.355 59.6816L171.569 111.133Z" fill="#4B5897"/>
<path d="M132.717 62.6743L129.606 94.939L171.569 111.132L132.717 62.6743Z" fill="#5161A4"/>
<path d="M129.608 94.9385L125.277 123.909L171.57 111.132L129.608 94.9385Z" fill="#4B5897"/>
<path d="M171.57 111.131L150.589 120.981L125.277 123.908L171.57 111.131Z" fill="#3F4B80"/>
<path d="M150.588 120.981L171.569 111.131L170.898 120.981H150.588Z" fill="#5161A4"/>
<path d="M150.587 120.981L157.967 140.559L170.897 120.981H150.587Z" fill="#4B5897"/>
<path d="M150.588 120.981L146.745 138.364L157.968 140.559L150.588 120.981Z" fill="#3F4B80"/>
<path d="M146.746 138.363L141.745 147.695L157.969 140.559L146.746 138.363Z" fill="#4B5897"/>
<path d="M146.745 138.363L132.107 154.16L141.744 147.695L146.745 138.363Z" fill="#313A62"/>
<path d="M146.745 138.363L135.035 139.217L132.107 154.16L146.745 138.363Z" fill="#3F4B80"/>
<path d="M150.589 120.981L125.704 132.57L125.277 123.909L150.589 120.981Z" fill="#313A62"/>
<path d="M125.277 123.911L99.5391 128.18L125.705 132.572L125.277 123.911Z" fill="#3F4B80"/>
<path d="M125.275 123.909L86.4844 101.038L129.605 94.9385L125.275 123.909Z" fill="#3F4B80"/>
<path d="M129.605 94.939L132.716 62.6743L86.4844 101.038L129.605 94.939Z" fill="#4B5897"/>
<path d="M86.4844 101.038L125.275 123.909L99.5365 128.179L86.4844 101.038Z" fill="#4B5897"/>
<path d="M86.4844 101.038L99.5365 128.179L87.0942 137.511L86.4844 101.038Z" fill="#313A62"/>
<path d="M86.485 101.038L69.7119 139.462L87.0948 137.511L86.485 101.038Z" fill="#3F4B80"/>
<path d="M86.4849 101.038L64.5889 108.357L69.7118 139.462L86.4849 101.038Z" fill="#4B5897"/>
<path d="M64.5897 108.358L55.502 118.056L69.7127 139.464L64.5897 108.358Z" fill="#5161A4"/>
<path d="M69.7129 139.462L87.0958 137.51L79.289 150.196L69.7129 139.462Z" fill="#313A62"/>
<path d="M69.7115 139.463L47.9375 162.884L79.2876 150.198L69.7115 139.463Z" fill="#4B5897"/>
<path d="M69.7115 139.463L55.5008 142.208L47.9375 162.884L69.7115 139.463Z" fill="#313A62"/>
<path d="M69.7127 139.461L55.502 118.053V142.205L69.7127 139.461Z" fill="#3F4B80"/>
<path d="M55.5022 118.053L39.1562 118.297L55.5022 128.178V118.053Z" fill="#313A62"/>
<path d="M55.5022 128.18L40.5592 124.965L39.1562 118.299L55.5022 128.18Z" fill="#3F4B80"/>
<path d="M39.1545 118.299L31.165 133.18L40.5574 124.964L39.1545 118.299Z" fill="#4B5897"/>
<path d="M40.558 124.964L31.1657 133.18L30.4951 138.12L40.558 124.964Z" fill="#5161A4"/>
<path d="M31.1653 133.18L20.0654 136.473L30.4947 138.12L31.1653 133.18Z" fill="#313A62"/>
<path d="M47.9375 162.884L59.5808 158.172L49.4624 179.23L47.9375 162.884Z" fill="#3F4B80"/>
<path d="M47.9405 162.883L43.5488 181.852L49.4656 179.229L47.9405 162.883Z" fill="#1F243E"/>
<path d="M49.4626 179.228L43.547 181.851L38.8506 189.812L49.4626 179.228Z" fill="#313A62"/>
<path d="M49.4626 179.228L50.9874 187.217L38.8506 189.812L49.4626 179.228Z" fill="#3F4B80"/>
</svg>
