<svg width="250" height="250" viewBox="0 0 250 250" fill="none" xmlns="http://www.w3.org/2000/svg">
<path fill-rule="evenodd" clip-rule="evenodd" d="M150.774 64.6046C148.534 62.3646 145.524 61.1396 142.374 61.1396H142.339C139.189 61.1396 136.144 62.3996 133.939 64.6746L40.9091 158.09C38.6691 160.33 37.4091 163.375 37.4441 166.525C37.4441 169.71 38.7041 172.685 40.9441 174.96C43.1841 177.2 46.1941 178.425 49.3441 178.425C52.5291 178.425 55.5391 177.165 57.8141 174.925L150.809 81.5096C155.429 76.7846 155.394 69.2596 150.774 64.6046Z" fill="#2DB8E3"/>
<path fill-rule="evenodd" clip-rule="evenodd" d="M204.745 62.2601C200.3 60.4051 195.155 61.4201 191.76 64.8851L98.7648 158.335C94.1098 162.99 94.1448 170.55 98.7998 175.205C103.455 179.825 111.015 179.825 115.67 175.17L188.295 102.23V166.77C188.295 173.35 193.65 178.67 200.23 178.705C206.81 178.705 212.13 173.35 212.165 166.77V73.2851C212.13 68.4551 209.225 64.0801 204.745 62.2601Z" fill="#3840C7"/>
</svg>
