<svg width="250" height="250" viewBox="0 0 250 250" fill="none" xmlns="http://www.w3.org/2000/svg">
<g clip-path="url(#clip0_762_6415)">
<rect width="250" height="250" rx="125" fill="#6D3156"/>
<path d="M125.466 77.2696C125.471 77.5392 125.338 77.7345 125.227 77.8484C125.006 78.0739 124.671 78.2041 124.311 78.2064H124.306C123.997 78.2064 123.711 78.0925 123.52 77.8949C123.416 77.7856 123.295 77.6043 123.304 77.351C123.314 77.1301 123.523 76.7396 123.862 76.4676C124.064 76.3072 124.222 76.2607 124.283 76.2607H124.297C125.452 76.4723 125.461 76.9721 125.466 77.2696Z" fill="white"/>
<path d="M126.052 82.6709C126.156 82.7755 126.212 83.0265 126.198 83.3473C126.163 84.1957 125.849 84.2631 125.412 84.2654C124.857 84.2747 124.594 84.1492 124.536 83.4472C124.599 83.073 124.796 82.6174 125.626 82.5756C125.645 82.5756 125.668 82.5732 125.694 82.5732C125.812 82.5732 125.973 82.5895 126.052 82.6709Z" fill="white"/>
<path d="M139.055 79.8459C139.415 80.2085 139.604 80.6688 139.599 81.1755C139.578 83.1909 138.237 84.402 136.01 84.4113C134.485 84.4159 133.378 83.5047 133.344 82.2425C133.325 81.6497 133.636 80.9756 134.197 80.3968C134.954 79.6111 136.042 79.1183 137.037 79.1113H137.065C137.865 79.1113 138.588 79.3763 139.055 79.8459Z" fill="white"/>
<path d="M188.434 78.4743C188.58 78.6418 188.622 78.7906 188.62 78.8325C188.436 79.2698 187.994 79.7698 187.634 79.9675C187.469 79.8419 187.215 79.6047 187.017 79.4186C186.95 79.3558 186.878 79.2884 186.806 79.2209C186.866 79.1674 186.924 79.1139 186.98 79.0628C187.427 78.6627 187.783 78.3417 188.09 78.2324C188.143 78.2441 188.287 78.3092 188.434 78.4743Z" fill="white"/>
<path d="M188.822 86.1668C188.822 86.1668 188.798 86.1878 188.789 86.1994C188.575 86.4109 188.254 86.727 188.043 86.7735C187.817 86.8223 187.743 86.7619 187.717 86.741C187.613 86.655 187.506 86.4132 187.506 86.0646C187.504 85.6903 187.585 85.5323 188.094 85.5276C188.517 85.5253 188.729 85.523 188.822 86.1668Z" fill="white"/>
<path d="M197.969 80.8564C200.347 80.8843 200.608 81.5468 200.608 82.9462C200.608 84.7454 199.871 85.1104 198.678 85.1173H198.648C197.2 85.1173 196.551 84.4967 196.542 83.1066C196.537 82.3279 196.784 81.6142 197.202 81.1982C197.435 80.968 197.683 80.8588 197.969 80.8564Z" fill="white"/>
<path d="M216.652 82.0664C216.657 82.0966 216.625 82.2779 216.346 82.5964C215.269 83.826 214.379 84.8186 213.542 85.7159C211.148 88.2892 208.279 89.6862 204.614 90.0395C207.38 85.5811 207.305 81.025 204.386 76.1992C205.295 76.5386 206.222 76.8966 207.089 77.308C208.149 77.8101 209.212 78.3773 210.237 78.9282C211.055 79.3652 211.899 79.8185 212.749 80.2416C213.405 80.567 214.077 80.846 214.73 81.1156C215.227 81.3202 215.744 81.534 216.229 81.7618C216.555 81.9129 216.645 82.0408 216.652 82.0664Z" fill="white"/>
<path d="M179.304 81.5802C179.55 81.2757 179.818 80.9875 180.108 80.6992C179.213 83.4701 178.667 86.2432 179.346 89.3186L179.264 89.2977C178.104 89.0002 177.1 88.7421 176.161 88.3818C176.045 88.2493 175.887 87.8611 175.894 87.6705C175.977 85.5784 177.268 84.0303 178.637 82.3892C178.862 82.1195 179.085 81.8522 179.304 81.5802Z" fill="white"/>
<path d="M247.197 211.754C249.298 216.71 247.901 219.121 244.97 221.401C242.812 223.08 240.413 224.502 238.033 225.514C236.124 226.323 234.125 226.953 232.191 227.559C230.843 227.982 229.448 228.422 228.111 228.915C224.292 230.321 220.391 230.66 216.52 230.66C214.714 230.66 212.917 230.586 211.138 230.514C210.527 230.488 209.916 230.463 209.306 230.442C205.852 230.316 202.358 230.035 198.978 229.765C197.476 229.645 195.977 229.524 194.475 229.417C189.923 229.089 186.187 227.938 183.058 225.897C181.98 225.193 180.901 224.488 179.822 223.782C177.088 221.992 174.264 220.141 171.463 218.36L171.226 218.207C169.27 216.968 167.248 215.687 166.578 212.963C166.546 212.83 166.413 212.649 166.26 212.46C166.023 212.623 165.802 212.788 165.7 212.946C163.849 215.84 161.899 217.496 159.379 218.316C159.009 218.435 158.647 218.581 158.261 218.735C157.782 218.928 157.289 219.125 156.771 219.276C155.841 219.548 154.892 219.862 153.974 220.164C151.672 220.922 149.294 221.708 146.851 221.987C143.301 222.394 139.672 222.391 136.157 222.394C135.037 222.394 133.919 222.391 132.801 222.405C130.694 222.429 128.558 222.419 126.491 222.412C124.018 222.401 121.461 222.391 118.95 222.436C116.923 222.473 114.849 222.673 112.843 222.863L111.767 222.968C110.758 223.061 109.723 223.2 108.724 223.333C106.82 223.589 104.848 223.856 102.884 223.842C95.9796 223.812 88.9916 223.526 83.0682 223.252C79.3789 223.082 76.0871 222.756 73.0069 222.259C72.1142 222.115 71.2169 221.982 70.3195 221.85C66.5837 221.297 62.7224 220.722 59.0564 219.321C59.0261 219.311 58.9401 219.297 58.875 219.288C58.7332 219.269 58.5589 219.242 58.3706 219.176C57.3779 218.832 56.3806 218.493 55.3857 218.154C52.8401 217.286 50.2086 216.389 47.6514 215.401C45.5708 214.597 43.5739 213.541 41.5421 212.442C40.8749 212.081 40.1868 211.723 39.5172 211.377C37.346 210.25 35.098 209.085 33.1383 207.555C29.535 204.74 26.6709 201.258 24.6275 197.206C24.13 196.22 23.7163 195.193 23.3164 194.2C23.1072 193.677 22.8887 193.135 22.6655 192.614C20.6314 187.895 19.4528 182.614 18.9576 175.988C18.9529 175.944 18.9529 175.9 18.9576 175.856C18.9994 175.309 19.0343 174.8 19.0668 174.317C19.1366 173.31 19.197 172.441 19.297 171.55C19.5643 169.196 19.8387 166.841 20.1153 164.488C20.4454 161.652 20.7871 158.723 21.1079 155.838C21.2056 154.961 21.2707 154.055 21.3334 153.178C21.4148 152.007 21.5008 150.793 21.6682 149.598C21.8914 148.004 22.1727 146.397 22.4446 144.844C22.698 143.396 22.9607 141.897 23.1746 140.423C23.4884 138.235 23.779 136.006 24.0603 133.849C24.4044 131.194 24.7624 128.446 25.1692 125.749C25.8271 121.411 27.108 117.187 28.3471 113.103C28.5749 112.357 28.8004 111.611 29.0235 110.864C30.5974 105.59 32.8384 100.58 35.0004 95.9003C36.6369 92.3598 38.499 88.8658 40.2983 85.488C40.919 84.3256 41.5374 83.1656 42.1488 81.9986C43.2042 79.9854 44.2573 77.9699 45.3081 75.9544C48.4046 70.0195 51.608 63.8846 54.8766 57.9102C58.4055 51.4638 63.1548 45.8078 67.7484 40.3401C68.7364 39.1662 69.7546 37.9504 70.745 36.7508C71.3378 36.0325 71.9468 35.3165 72.5373 34.6237C74.9736 31.7643 77.2727 29.0631 78.8744 25.7132C79.9647 23.4303 81.5479 21.3846 83.0775 19.4086C83.4099 18.9809 83.74 18.5508 84.0655 18.123C86.453 14.9777 89.8866 13.1412 92.9156 11.6697C93.169 11.5488 93.4201 11.4233 93.6758 11.2978C95.3891 10.4492 97.1629 9.57283 99.0645 9.27062C106.655 8.06643 114.184 8.55694 119.896 9.11719C127.254 9.84017 133.252 13.1133 138.219 19.1157C138.322 19.2133 138.673 19.3412 138.866 19.3598L139.035 19.2459C141.093 17.858 143.222 16.4214 145.054 14.7615C147.337 12.6902 150.161 10.5283 153.788 10.2005C155.441 10.0517 157.115 10.0889 158.733 10.1238C160.127 10.154 161.569 10.1842 162.959 10.0936C166.862 9.83784 170.665 10.7468 174.589 12.8785C174.908 13.0529 175.229 13.2249 175.547 13.3969C178.867 15.1777 182.298 17.0211 184.541 20.4873C185.248 21.5799 185.957 22.6725 186.669 23.7651C189.147 27.5822 191.708 31.5272 194.152 35.4629C195.082 36.9577 195.602 38.6757 195.951 40.0077C196.123 40.6609 196.309 40.926 196.818 41.2375C202.725 44.8524 208.663 49.1833 212.094 56.3224C212.191 56.527 212.408 56.7571 212.631 56.8989C213.34 57.3476 214.081 57.7846 214.797 58.2077C216.15 59.0097 217.55 59.8373 218.849 60.7905C220.212 61.7878 221.537 63.1198 222.685 64.6378C223.306 65.4584 223.478 66.572 223.138 67.539C222.866 68.3108 222.311 68.8548 221.611 69.0292C221.281 69.1129 221.121 69.436 221.128 69.9962V70.0683C221.144 71.0656 221.088 72.0629 221.035 73.03C220.995 73.7367 220.953 74.4713 220.942 75.1826L220.935 75.622C220.914 76.7355 220.893 77.8862 221.056 78.9533C222.16 86.0994 220.116 92.1808 214.976 97.0301C214.398 97.5764 214.284 97.7763 214.267 97.8182C214.281 97.8902 214.398 98.1041 215.004 98.7062C217.578 101.254 219.802 103.625 220.965 106.826C221.662 108.751 222.815 110.204 223.847 111.373C228.071 116.144 228.357 120.279 224.801 125.201C224.482 125.645 224.11 126.019 223.75 126.382C223.515 126.621 223.292 126.847 223.092 127.081C221.795 128.609 220.451 130.22 219.098 131.868C218.845 132.177 218.724 132.382 219.182 133.014C221.516 136.227 221.416 139.751 218.896 142.936C218.326 143.656 217.766 144.382 217.206 145.107C216.59 145.904 215.95 146.73 215.311 147.534C214.923 148.022 214.944 148.492 215.081 149.445C215.379 151.498 215.625 153.499 215.346 155.422C214.783 159.297 212.373 162.187 209.739 165.046C208.56 166.327 208.621 166.413 209.623 167.854C210.618 169.284 212.103 170.03 213.675 170.816C214.16 171.06 214.66 171.311 215.146 171.583C222.125 175.488 226.837 179.345 230.422 184.092C231.105 184.996 231.863 185.887 232.593 186.745C233.476 187.781 234.388 188.851 235.204 189.983C236.48 191.754 237.619 193.649 238.719 195.481C238.93 195.832 239.139 196.183 239.353 196.534C239.616 196.969 239.811 197.424 240.002 197.864C240.23 198.398 240.448 198.9 240.75 199.282C243.37 202.583 244.965 206.412 246.509 210.112C246.736 210.661 246.964 211.207 247.197 211.754ZM243.652 218.349C244.719 217.354 244.995 216.289 244.5 215.092C244.075 214.062 243.656 213.03 243.238 211.995C242.048 209.055 240.818 206.012 239.4 203.138C237.689 199.668 235.962 196.315 233.674 193.477C232.856 192.459 232.037 191.41 231.247 190.397C227.211 185.227 223.038 179.882 217.071 176.59C216.371 176.204 215.674 175.795 215 175.398C213.751 174.663 212.459 173.903 211.148 173.299C208.828 172.232 207.33 170.425 206.061 168.633C205.503 167.85 204.801 167.031 203.913 166.134C203.576 165.794 203.195 165.485 202.788 165.16C202.395 164.844 201.988 164.516 201.609 164.144C200.208 162.772 199.062 162.121 197.59 162.121C196.486 162.121 195.2 162.489 193.485 163.191C187.782 165.532 183.181 169.644 179.057 173.738C178.813 173.98 178.562 174.215 178.3 174.456C178.332 174.48 178.362 174.503 178.393 174.526C178.583 174.666 178.781 174.798 178.976 174.931C179.399 175.216 179.836 175.512 180.234 175.893C181.847 177.453 182.568 179.306 182.261 181.112C182.019 182.544 181.159 183.795 179.799 184.729C181.157 184.39 182.398 183.753 183.556 182.814C184.607 181.96 185.699 181.142 186.757 180.349C187.838 179.538 188.958 178.699 190.016 177.834C192.552 175.763 195.258 174.991 198.292 175.479C200.645 175.856 203.123 176.439 205.289 178.146C206.396 179.015 206.598 180.022 205.894 181.14C205.722 181.409 205.554 181.684 205.387 181.96C205.799 181.626 206.215 181.289 206.631 180.961L207.052 180.626C208.06 179.824 209.102 178.996 210.239 178.308C210.804 177.969 211.466 178.064 211.998 178.143C212.182 178.169 212.354 178.194 212.494 178.199C212.759 178.208 213.005 178.336 213.165 178.548C213.326 178.759 213.379 179.031 213.314 179.289C213.284 179.41 213.263 179.578 213.24 179.754C213.172 180.289 213.089 180.956 212.568 181.368C212.061 181.77 211.554 182.174 211.048 182.579C206.094 186.535 200.97 190.629 194.833 193.121C194.119 193.412 193.394 193.96 192.894 194.588C191.523 196.315 190.095 198.187 188.954 200.179C188.693 200.63 188.707 201.676 188.979 202.176C191.225 206.305 193.787 208.374 197.285 208.885C199.74 209.245 199.81 209.113 200.986 206.881C203.613 201.892 206.403 197.182 211.596 194.379C212.133 194.091 213.565 193.677 214.332 194.328C214.844 194.762 214.967 195.237 214.981 195.558C215.018 196.383 214.416 196.992 213.977 197.438C213.802 197.615 213.633 197.752 213.458 197.854C208.674 200.667 206.143 205.365 203.764 210.34C203.267 211.382 203.437 212.353 204.353 213.695C204.422 213.799 204.592 213.913 204.65 213.927C206.826 214.178 209.139 214.434 211.403 214.576C212.317 214.632 212.973 214.241 213.742 213.186C214.625 211.972 215.69 210.901 216.72 209.864C217.19 209.389 217.675 208.901 218.129 208.413C218.852 207.632 219.57 206.849 220.291 206.065C221.458 204.794 222.662 203.478 223.873 202.204C223.931 202.141 223.992 202.071 224.054 202.002C224.443 201.565 224.975 200.965 225.775 200.939C226.265 200.925 226.73 201.128 227.156 201.546C228.59 202.964 227.228 204.368 226.714 204.896C225.768 205.875 224.826 206.858 223.887 207.841C221.974 209.843 219.998 211.912 217.982 213.888C217.073 214.778 217.245 215.508 217.689 216.94L217.796 217.284C218.012 218.002 218.491 218.295 219.63 218.405C221.916 218.625 223.48 218.047 224.703 216.531C226.453 214.367 228.306 212.237 230.099 210.178C230.701 209.487 231.3 208.797 231.9 208.104L232.042 207.937C232.384 207.53 232.809 207.025 233.411 206.793C233.93 206.591 234.457 206.621 234.925 206.646C235.078 206.653 235.234 206.663 235.383 206.66C235.643 206.644 235.889 206.765 236.059 206.96C236.231 207.155 236.306 207.416 236.266 207.672C236.245 207.799 236.238 207.962 236.229 208.132C236.206 208.622 236.178 209.234 235.794 209.717C234.348 211.542 232.753 213.444 230.626 215.882L230.524 215.996C229.292 217.41 228.018 218.87 226.626 220.19C225.082 221.655 222.562 222.503 220.054 222.408C218.036 222.331 216.362 221.666 215.341 220.539C214.821 219.967 214.479 219.295 214.116 218.584C214.058 218.47 213.998 218.353 213.937 218.237C211.448 219.009 208.941 218.677 206.512 218.353C206.094 218.3 205.675 218.244 205.257 218.193C202.384 217.854 200.456 216.14 199.829 213.374C199.773 213.13 199.729 213.035 199.708 213.002C199.675 212.993 199.582 212.976 199.387 212.99C195.923 213.255 192.771 212.184 190.018 209.813C186.404 206.697 183.632 204.266 181.036 201.927C178.211 199.386 176.828 196.301 176.921 192.763C176.933 192.368 176.884 191.912 176.777 191.366C176.561 190.276 176.412 189.597 176.166 189.351C175.919 189.104 175.231 188.967 174.206 188.783C169.549 187.944 166.934 185.203 166.846 181.061C166.82 179.889 165.051 178.332 163.342 177.974C161.427 177.578 159.779 178.341 157.993 180.456C156.747 181.935 157.912 183.739 158.298 184.257C158.946 185.124 159.693 185.961 160.416 186.773C161.215 187.665 162.041 188.593 162.768 189.59C163.217 190.208 163.7 190.834 164.165 191.438C166.82 194.881 169.563 198.442 168.933 203.606C168.738 205.21 168.74 206.549 168.943 207.699C169.317 209.845 169.856 211.8 170.544 213.509C170.719 213.946 171.453 214.418 172.042 214.797C172.179 214.885 172.313 214.971 172.441 215.057C175.04 216.789 177.7 218.528 180.273 220.211C181.677 221.129 183.082 222.047 184.483 222.97C187.117 224.702 190.267 225.681 194.112 225.962C196.555 226.139 199.05 226.267 201.461 226.39C205.008 226.569 208.674 226.755 212.275 227.108C218.208 227.689 223.675 226.636 228.241 225.532C232.523 224.493 236.736 222.752 241.118 220.204C242.075 219.648 242.929 219.025 243.652 218.351V218.349ZM221.788 123.462C224.166 120.426 224.315 117.69 222.22 114.94C222.053 115.36 221.89 115.783 221.727 116.197H221.73C220.946 118.208 220.137 120.286 219.086 122.241C217.066 125.996 214.888 128.704 212.233 130.759C208.1 133.958 203.209 134.49 198.894 134.957C195.558 135.318 192.341 135.49 189.34 135.46C186.534 135.434 183.693 135.243 180.947 135.06C179.997 134.995 179.048 134.932 178.1 134.874C176.74 134.792 175.382 134.713 174.024 134.637C170.014 134.406 165.869 134.167 161.797 133.823C157.996 133.502 152.993 133.033 147.992 132.245C140.909 131.129 133.923 129.82 127.17 128.553L125.482 128.237C120.856 127.374 116.074 126.482 111.425 125.324C108.496 124.594 105.576 123.666 102.754 122.771C101.013 122.218 99.2133 121.649 97.4372 121.13C95.2822 120.503 93.1202 119.998 91.0117 119.628C90.205 119.489 89.4588 119.763 88.9079 120.4C88.1802 121.249 87.9803 122.527 88.3871 123.738C88.7103 124.696 89.2356 125.538 89.7959 125.991C93.3015 128.823 97.5743 131.97 102.67 133.86C103.34 134.109 103.939 134.465 104.518 134.811C104.841 135.002 105.148 135.185 105.46 135.346L107.392 136.338C111.083 138.238 114.903 140.202 118.669 142.104C119.699 142.624 120.763 143.129 121.791 143.615C123.404 144.379 125.071 145.17 126.67 146.049C130.006 147.885 133.703 148.585 137.513 149.196C140.449 149.666 143.417 150.2 146.291 150.719C147.662 150.965 149.036 151.212 150.408 151.453C150.578 151.484 150.747 151.516 150.917 151.549C151.4 151.642 151.858 151.73 152.298 151.746C153.944 151.805 155.615 151.879 157.233 151.949C161.385 152.132 165.679 152.323 169.884 152.276C173.569 152.239 177.323 152.032 180.954 151.832C183.616 151.686 186.371 151.535 189.086 151.451C189.879 151.426 190.683 151.414 191.506 151.414C193.733 151.414 196.086 151.505 198.629 151.688C204.55 152.116 209.227 149.91 212.921 144.947C213.561 144.087 214.242 143.25 214.9 142.441C215.304 141.943 215.706 141.448 216.104 140.944C217.327 139.388 217.464 137.382 216.525 135.734C216.288 135.906 216.05 136.073 215.818 136.241C214.814 136.954 213.865 137.631 213.128 138.454C210.418 141.481 206.861 142.966 201.935 143.129C200.356 143.182 198.743 143.284 197.185 143.384C195.358 143.503 193.466 143.624 191.597 143.666C190.276 143.696 188.949 143.624 187.663 143.554C186.417 143.487 185.13 143.419 183.879 143.445C174.94 143.638 166.95 143.238 159.456 142.222C156.059 141.762 152.753 140.988 149.094 140.095C144.826 139.054 140.354 138.933 136.404 138.823C133.537 138.747 131.048 138.572 128.795 138.293C123.318 137.615 118.134 135.741 113.124 133.928C112.194 133.593 111.265 133.256 110.332 132.928C108.519 132.286 106.62 131.749 104.783 131.229C103.997 131.005 103.212 130.782 102.428 130.552C99.3481 129.643 97.028 127.679 94.9172 125.745C94.436 125.305 94.3546 124.65 94.2895 124.122C94.2686 123.943 94.2477 123.776 94.2152 123.645C94.1524 123.387 94.2105 123.113 94.3732 122.902C94.536 122.692 94.7847 122.567 95.052 122.562C95.2217 122.56 95.3938 122.548 95.5658 122.537C96.0331 122.504 96.5608 122.469 97.0908 122.585C97.7487 122.73 98.2648 123.188 98.6972 123.569C101.099 125.694 104.153 126.614 107.11 127.502C109.282 128.155 111.446 128.939 113.536 129.697C116.2 130.664 118.955 131.661 121.712 132.379C126.717 133.684 131.059 134.376 134.986 134.495C141.444 134.688 147.439 135.413 153.311 136.71C158.661 137.894 164.168 138.424 169.35 138.868C171.407 139.044 173.539 139.012 175.601 138.979C177.5 138.951 179.464 138.921 181.401 139.049C188.761 139.539 196.067 139.126 203.137 138.723C205.973 138.561 207.916 137.74 209.439 136.062C209.983 135.462 210.611 134.971 211.217 134.497C211.661 134.148 212.085 133.821 212.463 133.458C213.858 132.124 215.286 130.68 216.704 129.164C217.513 128.3 218.31 127.379 219.08 126.489C219.5 126.003 219.921 125.517 220.349 125.036C220.544 124.815 220.749 124.603 220.953 124.389C221.255 124.073 221.541 123.776 221.788 123.462ZM217.875 114.891C219.138 110.839 218.217 107.098 215.141 103.772C214.465 103.042 213.784 102.314 213.242 101.733L213.235 101.726L212.696 102.163C211.901 102.807 211.162 103.404 210.42 104.002C207.747 106.155 204.741 105.938 201.837 105.729C201.612 105.713 201.386 105.697 201.161 105.683C200.81 105.659 200.48 105.464 200.187 105.104C200.084 104.978 199.575 104.318 199.664 103.653C199.764 102.916 200.57 102.117 201.326 102.01C201.923 101.926 202.509 101.931 203.076 101.938C203.499 101.94 203.897 101.944 204.285 101.912C205.994 101.765 207.368 101.556 208.367 100.524C207.372 100.526 206.415 100.526 205.457 100.519C205.299 100.517 205.141 100.519 204.983 100.519C204.362 100.526 203.718 100.533 203.069 100.366C202.525 100.227 202.16 99.8244 201.867 99.5036C201.77 99.3966 201.679 99.2967 201.598 99.2223C201.419 99.0619 201.314 98.834 201.309 98.5946C201.303 98.3552 201.396 98.1227 201.565 97.953C201.654 97.8646 201.749 97.7507 201.849 97.6322C202.139 97.2858 202.5 96.8534 203.041 96.6605C203.667 96.4419 204.315 96.521 204.89 96.593C204.98 96.6047 205.069 96.6163 205.157 96.6256C210.79 97.2393 213.186 95.0285 216.141 90.1513C216.653 89.3075 217.159 88.3334 217.41 87.1641C217.387 87.192 217.364 87.2199 217.341 87.2501C214.381 90.9231 210.58 93.1014 205.717 93.9104C201.133 94.6729 196.546 94.452 192.111 94.2381C190.7 94.1707 189.242 94.0987 187.81 94.0638C183.598 93.9545 180.057 93.5221 176.67 92.7062C174.255 92.1227 172.825 91.2114 172.165 89.8375C171.67 88.8053 171.649 87.5849 172.107 86.0715C172.279 85.5136 172.513 84.9161 172.816 84.2745C173.659 82.4775 174.971 80.9293 176.238 79.4345C176.714 78.8696 177.207 78.2884 177.658 77.7119C177.935 77.3562 178.253 77.0703 178.56 76.7913C178.892 76.4891 179.206 76.2055 179.378 75.9056C181.689 71.8909 185.374 69.4825 188.937 67.1508L189.542 66.7579C191.894 65.212 194.41 65.0284 196.997 64.9656C200.661 64.8773 204.373 65.1097 207.965 65.3352L208.4 65.3608C212.08 65.5909 214.9 67.5158 217.022 71.2492C217.227 71.6142 217.466 71.9722 217.731 72.3535C217.808 70.4449 217.51 68.7758 217.148 67.2345C217.059 67.1415 216.832 66.9927 216.718 66.916L216.685 66.8951C214.423 65.4003 212.519 64.6866 210.513 64.5751C208.832 64.4821 207.126 64.3612 205.478 64.2449C202.939 64.0636 200.312 63.8753 197.734 63.7916C190.953 63.5754 185.076 66.1117 180.273 71.3353C180.243 71.3678 180.213 71.4073 180.183 71.4468C180.015 71.663 179.736 72.0234 179.257 72.1047C178.823 72.1768 178.402 72.1791 177.997 72.1838C177.853 72.1861 177.711 72.1861 177.567 72.1931C177.33 72.2 177.095 72.1094 176.923 71.9397C176.751 71.7723 176.658 71.5398 176.663 71.3004C176.663 71.1888 176.647 71.0261 176.63 70.8703C176.577 70.3473 176.51 69.6987 176.937 69.2035C179.864 65.8188 183.161 63.3383 186.78 61.7947C188.428 61.0927 190.142 60.5836 191.915 60.2721C197.618 59.2655 203.265 59.8722 208.725 60.458C209.148 60.5022 209.578 60.5371 210.006 60.5743C211.057 60.6603 212.131 60.7509 213.177 60.9811C211.766 60.1326 210.109 59.6235 208.03 59.391C202.349 58.7587 196.574 58.9818 190.869 60.0535C190.023 60.2139 189.191 60.5975 188.307 61.0067C187.959 61.1671 187.61 61.3275 187.261 61.4762C187.18 61.5088 187.096 61.5483 187.013 61.5855C186.934 61.6204 186.843 61.6622 186.741 61.7064C186.036 61.9993 184.837 62.3294 184.109 60.9834C183.172 59.2562 184.779 58.3286 185.464 57.9334L185.504 57.9102C187.664 56.6618 190.2 55.9179 193.487 55.5715C198.025 55.0903 202.846 54.6835 207.684 55.3623C205.106 51.2615 200.531 46.1891 189.721 41.2677C178.618 36.2138 166.788 35.8674 155.432 40.2471C155.592 40.4261 155.752 40.6028 155.91 40.7772C156.884 41.8489 157.893 42.9577 158.679 44.2177C161.408 48.6044 163.74 52.6633 165.807 56.6269C166.293 57.5591 166.286 58.6262 166.279 59.6583C166.274 60.1442 166.272 60.6045 166.318 61.0253L166.332 61.1438C166.381 61.5878 166.444 62.1411 166.618 62.3712C167.39 63.3755 168.303 64.3286 169.184 65.2515L169.468 65.5491C171.651 67.8389 172.186 70.6936 172.439 73.4368C172.576 74.9037 172.597 76.3705 172.506 77.7979C172.469 78.414 172.202 78.9533 171.965 79.4298C171.874 79.6158 171.786 79.7902 171.721 79.9552C171.623 80.1923 171.425 80.3783 171.181 80.4574C171.03 80.5085 170.868 80.5155 170.714 80.4806C170.749 80.6154 170.784 80.7503 170.821 80.8828C171.105 81.9707 171.4 83.0959 171.595 84.235L171.607 84.3024C171.684 84.7441 171.788 85.3485 171.637 85.9227C171.584 86.1343 171.493 86.3411 171.353 86.5341C171.151 86.8131 170.758 87.1664 170.042 87.2687C169.449 87.3547 168.959 87.2455 168.578 86.9456C167.962 86.4597 167.887 85.6763 167.834 85.1044C167.824 85.0045 167.815 84.9045 167.804 84.8092C167.378 81.5267 165.995 78.844 163.573 76.6123C162.231 75.3779 160.892 74.1249 159.558 72.8672C157.335 70.7704 155.132 68.6595 152.977 66.5929L151.198 64.8889C149.146 62.9268 146.584 61.9435 143.873 60.902L142.918 60.5324C142.469 60.3557 142.016 60.2023 141.537 60.0396C140.9 59.8257 140.244 59.6025 139.603 59.3259C135.992 57.773 132.273 57.945 128.332 58.1287C127.245 58.1798 126.117 58.231 125.006 58.2426C124.002 58.2519 122.967 58.3077 121.967 58.3612C120.073 58.4634 118.115 58.5704 116.181 58.3821C112.415 58.0171 108.549 58.6634 104.367 60.3557C103.189 60.8323 101.966 61.6413 100.92 62.6293C98.5344 64.8889 96.2655 67.3112 94.1687 69.5941C93.7874 70.0079 93.4759 70.6867 93.3736 71.3236C93.3341 71.5724 93.4178 71.9141 93.5201 72.2837C94.0245 72.1954 94.5011 72.1117 94.7708 71.9118C95.2682 71.5491 95.6658 70.9377 96.0889 70.2891C96.1818 70.1473 96.2725 70.0055 96.3655 69.8684C98.846 66.1744 102.366 63.6963 107.45 62.0714C114.115 59.9396 121.007 59.4073 127.496 59.0469C133.498 58.7122 139.042 60.3813 144.454 64.1496C147.237 66.0884 150.399 67.5948 153.397 68.9339C155.806 70.0102 157.838 71.3306 159.514 72.9161C161.748 75.0315 163.345 77.6143 164.342 80.7084C165 82.7518 165.837 84.7906 166.646 86.7619L166.969 87.5477C166.997 87.5849 167.115 87.7011 167.525 87.9033C169.226 88.7449 170.342 90.3303 170.51 92.1482C170.67 93.8825 169.928 95.5028 168.471 96.593C167.632 97.223 166.746 97.7949 165.89 98.3482C165.223 98.7806 164.533 99.2269 163.884 99.6895L163.287 100.113C162.113 100.94 160.897 101.798 159.869 102.772C158.542 104.03 157.235 105.369 155.973 106.664C154.908 107.756 153.807 108.884 152.691 109.969C149.924 112.654 146.486 114.005 143.185 115.06C141.46 115.614 139.728 116.281 138.052 116.927C136.476 117.534 134.846 118.162 133.207 118.701C131.822 119.159 130.355 119.236 128.935 119.312L128.549 119.333C127.905 119.373 127.461 118.908 127.105 118.536C127.007 118.431 126.905 118.324 126.826 118.262C126.645 118.11 126.531 117.894 126.512 117.659C126.491 117.425 126.566 117.192 126.719 117.013C126.796 116.927 126.891 116.785 126.982 116.648C127.303 116.172 127.702 115.579 128.398 115.565C131.071 115.511 133.433 114.484 135.934 113.396C137.569 112.685 139.256 111.95 141.044 111.508C142.341 111.187 143.61 110.727 144.68 110.323C147.648 109.195 150.394 107.191 153.314 104.016C154.016 103.253 154.711 102.484 155.466 101.649L155.411 101.642C154.281 101.507 153.211 101.377 152.172 101.368C144.278 101.284 136.343 100.375 128.672 99.4966C127.672 99.3827 126.673 99.2664 125.673 99.1549C121.038 98.6318 117.272 97.2626 114.159 94.9681C112.536 93.7732 111.058 92.3714 109.63 91.0138C108.926 90.3466 108.198 89.6562 107.468 89.0052C107.208 88.7728 106.92 88.5589 106.613 88.3311C106.162 87.9987 105.697 87.6523 105.283 87.2176C104.893 86.8084 104.695 86.304 104.521 85.8576C104.455 85.6902 104.393 85.5345 104.328 85.395C104.209 85.1463 104.214 84.8557 104.342 84.6116C104.467 84.3675 104.702 84.1978 104.974 84.1536C105.125 84.128 105.327 84.0699 105.525 84.0118C106.176 83.8235 106.913 83.6096 107.512 84.0444C108.758 84.951 109.939 85.9622 111.081 86.9409C111.553 87.3431 112.025 87.7476 112.499 88.1428C113.059 88.6077 113.603 89.1052 114.131 89.5841C115.365 90.7069 116.532 91.767 117.871 92.4876C120.277 93.7802 122.772 94.6473 125.085 94.9983C129.785 95.7097 134.628 96.1142 139.31 96.5047L141.114 96.6558C145.21 97.0022 149.387 97.2579 153.428 97.5043L155.75 97.6485C158.084 97.7926 161.376 97.4323 166.144 93.3338C166.432 93.0874 166.571 92.7759 166.537 92.4597C166.502 92.1506 166.302 91.8786 165.993 91.7158C165.93 91.681 165.837 91.667 165.814 91.6647C164.558 91.9739 163.317 92.3249 162.268 92.6294C161.759 92.7759 161.371 92.92 161.046 93.0781C153.597 96.7302 145.842 95.8398 139.24 94.4869C135.772 93.7755 132.357 92.7643 129.474 91.8669C125.764 90.7139 121.93 89.5237 118.269 87.9638C116.404 87.1711 114.849 85.7925 113.154 84.2048C111.399 82.5589 109.377 81.6429 107.45 80.899C105.088 79.9854 102.719 78.9835 100.429 78.0141C99.1156 77.4585 97.7557 76.882 96.4143 76.3333C96.0865 76.1985 95.7495 76.1357 95.5588 76.1729L95.2194 76.2404C93.4643 76.5937 91.2791 77.0331 89.8238 74.6363C88.6917 72.7742 89.1775 69.2151 90.8211 67.3135C91.3883 66.658 92.0276 65.9675 92.8366 65.14C94.0687 63.8776 95.3078 62.6223 96.5468 61.367C97.2535 60.6487 97.9603 59.9326 98.667 59.2143C101.147 56.692 104.355 55.9086 107.459 55.1508C109.791 54.5835 112.206 54.4533 114.261 54.4045C119.712 54.2697 125.255 54.2186 130.613 54.1697L133.658 54.1418C137.208 54.107 140.816 54.0953 144.303 54.0837L147.202 54.0744C147.89 54.0744 148.576 54.0767 149.264 54.0814C150.438 54.093 151.654 54.1023 152.837 54.0674C156.429 53.9628 159.481 55.2879 162.159 58.1217C159.353 52.4216 155.903 45.938 150.517 40.9608C148.083 38.7129 145.31 36.7555 141.793 34.8004C141.074 34.4029 140.391 34.1634 139.812 34.11C138.466 33.9844 137.12 33.8496 135.774 33.7148C131.499 33.287 127.079 32.8453 122.737 32.7058C118.257 32.564 113.468 33.2661 108.505 34.7957C105.883 35.6047 103.853 37.2971 101.705 39.0918C101.254 39.4661 100.803 39.8427 100.348 40.21L100.164 40.3587C99.0482 41.2584 97.8952 42.1883 96.6375 42.9577C96.0563 43.3134 95.3822 43.1274 94.8405 42.9787C94.6661 42.9298 94.5011 42.8834 94.3732 42.8648C94.1245 42.8276 93.9013 42.6834 93.7665 42.4696C93.6317 42.2557 93.5945 41.993 93.6665 41.7512C93.6991 41.6396 93.7246 41.4909 93.7525 41.3328C93.8362 40.8446 93.9408 40.2402 94.4174 39.8427C96.9095 37.7714 99.5992 35.5629 102.403 33.459C106.152 30.6415 110.625 29.9627 114.57 29.3629C122.439 28.1657 130.127 28.9212 136.608 29.8163C137.006 29.8697 137.41 29.8976 137.838 29.9278C138.34 29.9604 138.859 29.9953 139.382 30.0789C139.421 30.0859 139.454 30.0906 139.484 30.0929C139.479 30.0627 139.472 30.0255 139.461 29.986C139.163 28.7841 138.829 27.5148 138.345 26.3687C134.688 17.7348 128.114 13.0622 118.808 12.481C114.349 12.2044 109.788 12.1742 105.378 12.1463L104.307 12.1393C99.7619 12.0974 95.8424 13.8572 92.6065 15.5705C86.9412 18.5717 83.7633 23.6744 81.4037 28.268C79.6532 31.6714 77.2286 34.4749 74.8806 37.1855C74.3692 37.776 73.8554 38.3688 73.3486 38.9686C72.4118 40.0751 71.4377 41.1817 70.4962 42.251C68.4272 44.6013 66.2885 47.0306 64.4497 49.5854C61.5159 53.6629 58.9029 58.124 56.4783 62.3434C53.2958 67.8808 50.3108 73.5135 47.8095 78.2954L47.026 79.7925C44.0992 85.3811 41.0748 91.1626 38.3619 96.958C38.141 97.4299 37.9202 97.8995 37.6993 98.3691C35.6838 102.647 33.6009 107.07 32.5315 111.778C32.2014 113.226 31.7086 114.635 31.2297 116C30.774 117.294 30.3021 118.636 29.9953 119.966C29.3862 122.613 28.9585 125.368 28.5447 128.032C28.4238 128.809 28.3029 129.585 28.1774 130.359L27.9635 131.691C27.2823 135.906 26.578 140.265 25.9805 144.561C25.5969 147.309 25.2878 150.119 24.9902 152.839C24.8716 153.925 24.7531 155.008 24.6275 156.094C24.4439 157.707 24.2719 159.353 24.1022 160.943C23.7348 164.425 23.3559 168.029 22.8352 171.557C22.075 176.7 23.0072 181.549 24.0185 185.615C24.7577 188.588 25.8736 191.664 27.4242 195.018C29.9162 200.409 33.9612 204.601 39.4452 207.476C46.2403 211.038 52.059 213.772 58.3776 215.545C65.5679 217.565 72.0421 218.781 78.1701 219.262C81.0294 219.486 83.9493 219.639 86.7738 219.788C87.6758 219.837 88.5778 219.883 89.4797 219.934C90.3608 219.983 91.2512 220.048 92.1136 220.111C94.2291 220.264 96.4166 220.425 98.5345 220.346C101.426 220.241 104.374 219.974 107.222 219.716C108.731 219.581 110.293 219.439 111.829 219.323L111.936 219.316C114.198 219.144 116.537 218.967 118.852 218.932C119.957 218.916 121.07 218.911 122.174 218.911C123.125 218.911 124.069 218.914 124.999 218.918C127.052 218.928 129.172 218.935 131.252 218.902C132.461 218.884 133.672 218.874 134.883 218.865C138.789 218.837 142.829 218.809 146.739 218.395C148.927 218.165 151.049 217.454 153.295 216.701C154.248 216.382 155.236 216.05 156.22 215.764C156.524 215.675 156.831 215.557 157.156 215.434C157.463 215.315 157.784 215.194 158.117 215.092C160.083 214.488 161.418 213.167 162.819 211.372C164.317 209.457 165.219 207.704 164.754 205.377C164.656 204.882 164.737 204.417 164.812 204.003C164.842 203.838 164.87 203.68 164.881 203.541C165.098 201.048 164.633 199.098 163.368 197.213C161.29 194.107 159.088 191.378 156.638 188.872C155.443 187.649 154.432 185.822 153.788 183.727C153.067 181.379 153.637 179.11 155.392 177.339C158.707 173.994 162.578 173.087 166.29 174.789C167.074 175.147 167.738 175.691 168.324 176.17C168.394 176.228 168.466 176.286 168.534 176.342C169.071 175.993 169.61 175.651 170.135 175.316C171.667 174.342 173.25 173.336 174.661 172.206C176.038 171.102 177.384 169.888 178.683 168.712C180.366 167.192 182.107 165.62 183.967 164.237C186.58 162.296 189.509 160.608 192.676 159.218C197.081 157.284 200.859 157.837 203.902 160.861L204.236 161.196C205.024 161.991 206.215 163.186 206.903 163.165C207.284 163.149 208.16 161.952 208.581 161.375C208.823 161.045 209.072 160.703 209.318 160.404C211.487 157.767 212.424 155.024 212.184 152.023C212.173 151.895 212.157 151.767 212.133 151.628C212.098 151.653 212.064 151.677 212.031 151.702C207.83 154.927 203.355 156.254 198.355 155.752C192.75 155.192 187.303 155.57 180.766 156.124C173.46 156.742 166.127 156.247 159.658 155.81C159.139 155.775 158.677 155.754 158.242 155.747C157.507 155.733 156.773 155.731 156.038 155.729C152.765 155.724 149.38 155.717 146.012 154.55C143.734 153.76 141.125 153.606 138.603 153.457L138.199 153.434C131.787 153.053 126.396 150.591 120.015 147.413C117.411 146.116 114.738 144.842 112.15 143.61C111.058 143.092 109.965 142.571 108.875 142.048C108.724 141.973 108.566 141.908 108.41 141.843C108.161 141.739 107.903 141.632 107.643 141.492C106.331 140.788 105.013 140.093 103.695 139.395C100.348 137.626 96.8862 135.797 93.5549 133.853C91.0722 132.405 88.7893 130.534 86.883 128.895C85.2604 127.495 84.2585 125.389 84.1399 123.113C84.0167 120.772 84.8234 118.499 86.3507 116.878C87.52 115.639 89.1543 115.193 91.2116 115.558C93.6572 115.99 96.2725 116.49 98.8367 117.215C101.036 117.836 103.251 118.52 105.392 119.182C108.266 120.068 111.237 120.984 114.182 121.756C116.307 122.311 118.536 122.688 120.694 123.053C122.06 123.285 123.474 123.525 124.862 123.808C126.596 124.164 128.346 124.568 130.039 124.961C132.947 125.635 135.955 126.333 138.933 126.784C139.947 126.937 140.96 127.093 141.976 127.249C149.583 128.416 157.447 129.625 165.288 129.85C168.645 129.945 172.039 130.236 175.322 130.515C178.513 130.787 181.815 131.068 185.055 131.168C191.592 131.37 198.534 131.419 205.217 129.632C207.096 129.129 208.955 128.146 210.325 126.933C213.812 123.838 216.353 119.787 217.875 114.888V114.891ZM217.157 78.0118C217.145 77.9909 217.134 77.9723 217.12 77.9537C216.643 77.2981 216.12 76.6449 215.611 76.0149C214.697 74.8758 213.751 73.6995 212.998 72.4023C211.992 70.6704 210.557 69.7754 208.046 69.3151C205.717 68.8897 203.378 68.6758 201.047 68.6758C198.599 68.6758 196.158 68.9106 193.74 69.3779C192.536 69.6127 191.378 70.3217 190.151 71.0749C190.146 71.0772 190.142 71.0819 190.135 71.0842C191.432 71.1586 192.729 71.2306 194.026 71.3143C194.891 71.3678 195.758 71.4166 196.625 71.4654C198.978 71.5956 201.412 71.7305 203.802 72.0117C205.529 72.2163 207.214 72.9602 208.332 73.5019C210.764 74.6782 213.196 75.9475 215.546 77.1726C216.083 77.4515 216.62 77.7328 217.157 78.0118ZM216.35 82.603C216.629 82.2846 216.662 82.1032 216.657 82.073C216.65 82.0474 216.56 81.9196 216.234 81.7685C215.748 81.5407 215.232 81.3268 214.735 81.1222C214.081 80.8526 213.41 80.5736 212.754 80.2481C211.903 79.825 211.059 79.3717 210.241 78.9347C209.216 78.3837 208.153 77.8165 207.093 77.3144C206.226 76.9029 205.299 76.5449 204.39 76.2055C207.31 81.0316 207.384 85.588 204.618 90.0467C208.284 89.6934 211.152 88.2962 213.547 85.7228C214.384 84.8255 215.274 83.8328 216.35 82.603ZM201.379 181.017C201.584 180.57 201.486 180.315 201.026 180.077C200.819 179.97 200.67 179.908 200.538 179.908C200.345 179.908 200.191 180.045 199.954 180.389C197.195 184.369 193.831 187.802 190.332 191.013C188.714 192.501 187.066 193.94 185.434 195.365L183.839 196.759C183.256 197.269 182.656 197.794 182.528 198.024C182.654 198.284 183.326 198.919 183.993 199.551C184.265 199.807 184.567 200.058 184.86 200.291C186.092 196.785 188.056 193.812 190.716 191.429C190.893 191.271 191.074 191.115 191.257 190.962C191.948 190.385 192.748 190.004 193.519 189.637C194.21 189.306 194.863 188.997 195.382 188.574C198.074 186.377 200.091 183.834 201.379 181.017ZM200.612 82.9517C200.612 81.5523 200.352 80.8897 197.974 80.8619C197.688 80.8642 197.439 80.9734 197.206 81.2036C196.788 81.6197 196.542 82.3334 196.546 83.1122C196.555 84.5023 197.204 85.123 198.652 85.123H198.683C199.875 85.116 200.612 84.7511 200.612 82.9517ZM196.137 179.331H196.111C194.998 179.331 194.117 179.787 193.166 180.491C191.846 181.475 190.514 182.495 189.226 183.483C188.538 184.011 187.849 184.541 187.157 185.066L187.078 185.124C185.062 186.659 182.986 188.239 180.364 188.825L181.073 194.13C186.536 189.437 191.704 184.899 196.137 179.331ZM191.469 37.4854C191.327 37.1902 191.178 36.9089 191.013 36.6485C190.304 35.542 189.6 34.4308 188.896 33.3196C186.527 29.5791 184.076 25.7108 181.464 22.0657C180.489 20.7035 178.976 19.5992 177.514 18.5275C177.149 18.2602 176.784 17.9952 176.428 17.7255C175.945 17.3582 175.35 17.0862 174.72 16.8003C174.203 16.5632 173.669 16.3191 173.162 16.0053C170.463 14.3384 167.469 13.5225 164.033 13.5225C163.766 13.5225 163.496 13.5271 163.224 13.5364C161.929 13.5829 160.63 13.5132 159.374 13.4458C158.472 13.3946 157.542 13.3458 156.638 13.3412C153.293 13.3202 150.45 14.4012 147.918 16.6422C145.851 18.4718 143.576 20.1386 141.423 21.6659C140.832 22.0843 140.784 22.1192 141.135 22.977C142.192 25.5504 142.929 28.2215 143.455 30.2603C143.645 31.0018 143.859 31.332 144.378 31.6667C145.333 32.2874 146.281 32.9453 147.197 33.5799C148.588 34.5447 150.024 35.542 151.489 36.4068C151.891 36.6439 152.777 36.6601 153.693 36.4463C154.743 36.1999 155.808 35.8651 156.838 35.542C157.905 35.2049 159.009 34.8585 160.132 34.5981C168.706 32.6036 177.188 32.8802 185.346 35.4188C187.138 35.9744 188.889 36.5858 190.744 37.2343C190.985 37.318 191.225 37.4017 191.469 37.4854ZM188.796 86.204C188.805 86.1924 188.817 86.1807 188.828 86.1714C188.735 85.5275 188.524 85.5298 188.101 85.5322C187.591 85.5368 187.51 85.6949 187.512 86.0692C187.512 86.4179 187.619 86.6596 187.724 86.7456C187.75 86.7666 187.824 86.827 188.049 86.7782C188.261 86.7317 188.582 86.4155 188.796 86.204ZM188.624 78.8324C188.626 78.7905 188.584 78.6418 188.438 78.4744C188.291 78.3093 188.147 78.2442 188.094 78.2326C187.787 78.3419 187.431 78.6627 186.985 79.0625C186.929 79.1137 186.871 79.1672 186.81 79.2206C186.882 79.288 186.954 79.3554 187.022 79.4205C187.219 79.6042 187.473 79.8413 187.638 79.9668C187.998 79.7692 188.44 79.2694 188.624 78.8324ZM180.127 80.7014C179.836 80.9897 179.569 81.278 179.322 81.5825C179.104 81.8545 178.881 82.1218 178.655 82.3915C177.286 84.0327 175.996 85.581 175.912 87.6732C175.905 87.8638 176.063 88.252 176.179 88.3846C177.119 88.7449 178.123 89.0029 179.283 89.3005L179.364 89.3214C178.686 86.2458 179.232 83.4725 180.127 80.7014ZM178.193 180.531C178.383 180.326 178.493 180.103 178.479 179.938C178.476 179.898 178.467 179.773 178.274 179.617C178.002 179.401 177.723 179.159 177.453 178.927C176.672 178.248 175.701 177.406 175.052 177.406H175.036C173.892 177.43 172.26 178.348 171.546 179.368C170.842 180.38 170.647 181.454 170.998 182.393C171.377 183.409 172.362 184.185 173.699 184.522C174.496 184.724 175.257 184.864 175.984 184.943C175.889 184.778 175.847 184.585 175.87 184.392C175.884 184.273 175.889 184.125 175.891 183.969C175.901 183.497 175.912 182.914 176.263 182.432C176.621 181.946 177.056 181.568 177.474 181.2C177.735 180.972 177.981 180.759 178.193 180.531ZM168.343 76.1148C168.308 74.5852 168.262 73.016 168.083 71.5026C167.911 70.052 167.122 68.6828 165.676 67.3135C163.991 65.7211 162.338 64.0474 160.739 62.4294C159.974 61.6576 159.211 60.8858 158.442 60.1186C157.163 58.8447 155.843 58.2101 154.406 58.1822C152.932 58.1519 151.456 58.1426 149.945 58.1426C149.178 58.1426 148.402 58.1426 147.614 58.1473C150.773 59.4747 153.667 61.5576 156.406 64.4635C158.268 66.4395 160.325 68.3178 162.313 70.1334C163.598 71.305 164.926 72.5185 166.197 73.7529C166.964 74.4992 167.669 75.3082 168.345 76.1148H168.343ZM163.094 88.5938C163.091 88.5543 163.082 88.4706 163.024 88.3357C162.471 87.0595 162.008 85.7298 161.559 84.4442C160.337 80.9293 159.181 77.6096 156.278 75.1431C154.994 74.0551 153.6 74.0714 151.986 74.09H151.958C149.941 74.1109 147.879 74.2434 145.886 74.3713C145.398 74.4039 144.908 74.4341 144.426 74.4643C144.584 74.813 144.766 75.1617 144.959 75.5313C145.486 76.5495 146.03 77.6003 146.154 78.7673C146.677 83.7979 145.828 87.8778 143.562 91.2091C143.975 91.2672 144.385 91.3253 144.791 91.3857C148.829 91.9716 152.391 91.8251 155.683 90.9371C156.561 90.6999 157.408 90.3373 158.307 89.9537C158.881 89.7073 159.479 89.4539 160.086 89.2331C160.953 88.9192 161.738 88.6589 162.575 88.6589C162.596 88.6589 162.617 88.6589 162.636 88.6612C162.917 88.6635 163.045 88.617 163.094 88.5938ZM147.344 70.4449L146.047 69.6847C144.217 68.613 142.323 67.5065 140.481 66.3744C136.915 64.1799 133.712 63.1477 130.397 63.1221C120.847 63.0501 113.647 64.0845 107.043 66.4697C103.426 67.7762 100.978 69.7917 98.9901 73.1346C99.9688 73.6576 100.68 73.7855 101.798 73.3577C104.13 72.4651 106.657 72.1071 109.1 71.7607L109.495 71.7049C115.702 70.8192 121.93 70.5565 128.021 70.5565C131.657 70.5565 135.244 70.6495 138.745 70.7611C141.179 70.8401 143.599 70.6843 146.161 70.5193C146.551 70.496 146.946 70.4705 147.344 70.4449ZM139.6 81.1803C139.605 80.6735 139.417 80.2133 139.056 79.8506C138.589 79.381 137.866 79.116 137.066 79.116H137.038C136.044 79.123 134.956 79.6158 134.198 80.4016C133.637 80.9804 133.326 81.6546 133.345 82.2474C133.379 83.5097 134.486 84.421 136.011 84.4163C138.238 84.407 139.579 83.1958 139.6 81.1803ZM126.201 83.3516C126.215 83.0308 126.159 82.7797 126.054 82.6751C125.975 82.5937 125.815 82.5775 125.696 82.5775C125.671 82.5775 125.647 82.5798 125.629 82.5798C124.799 82.6216 124.601 83.0773 124.539 83.4516C124.597 84.1536 124.859 84.2791 125.415 84.2699C125.852 84.2675 126.166 84.2001 126.201 83.3516ZM125.236 77.8514C125.348 77.7375 125.48 77.5422 125.475 77.2725C125.471 76.975 125.461 76.4752 124.306 76.2636H124.292C124.232 76.2636 124.074 76.3101 123.871 76.4705C123.532 76.7425 123.323 77.133 123.313 77.3539C123.304 77.6073 123.425 77.7886 123.53 77.8979C123.72 78.0955 124.006 78.2094 124.315 78.2094H124.32C124.68 78.2071 125.015 78.0769 125.236 77.8514ZM114.491 80.0598L117.683 74.7223L105.555 76.1846C106.529 76.603 107.55 76.9447 108.549 77.2795C110.614 77.9676 112.736 78.6766 114.491 80.0598Z" fill="black"/>
<path d="M244.495 215.083C244.99 216.28 244.714 217.345 243.647 218.34C242.924 219.016 242.07 219.639 241.113 220.195C236.731 222.743 232.518 224.484 228.236 225.523C223.67 226.627 218.203 227.68 212.27 227.099C208.669 226.746 205.003 226.56 201.456 226.381C199.045 226.258 196.55 226.13 194.107 225.953C190.262 225.672 187.112 224.693 184.478 222.961C183.077 222.038 181.672 221.12 180.268 220.202C177.695 218.519 175.035 216.78 172.436 215.048C172.309 214.962 172.174 214.876 172.037 214.787C171.448 214.409 170.714 213.937 170.539 213.5C169.851 211.791 169.312 209.836 168.938 207.69C168.735 206.539 168.733 205.2 168.928 203.596C169.558 198.433 166.815 194.872 164.16 191.429C163.695 190.825 163.212 190.199 162.763 189.581C162.036 188.584 161.21 187.656 160.411 186.763C159.688 185.952 158.941 185.115 158.293 184.248C157.907 183.73 156.742 181.926 157.988 180.447C159.774 178.332 161.422 177.569 163.337 177.964C165.046 178.322 166.815 179.88 166.841 181.052C166.929 185.194 169.544 187.935 174.201 188.774C175.226 188.958 175.916 189.097 176.161 189.341C176.405 189.586 176.556 190.267 176.772 191.357C176.879 191.903 176.928 192.359 176.916 192.754C176.823 196.292 178.206 199.377 181.031 201.918C183.627 204.257 186.399 206.688 190.013 209.803C192.766 212.175 195.918 213.246 199.382 212.981C199.577 212.967 199.67 212.984 199.703 212.993C199.724 213.025 199.768 213.121 199.824 213.365C200.451 216.131 202.379 217.844 205.252 218.184C205.67 218.235 206.089 218.291 206.507 218.344C208.936 218.667 211.443 219 213.932 218.228C213.993 218.344 214.053 218.461 214.111 218.574C214.474 219.286 214.816 219.958 215.336 220.529C216.357 221.657 218.031 222.322 220.049 222.399C222.557 222.494 225.077 221.645 226.62 220.181C228.013 218.86 229.287 217.4 230.519 215.987L230.621 215.873C232.748 213.435 234.343 211.533 235.789 209.708C236.173 209.225 236.201 208.613 236.224 208.123C236.233 207.953 236.24 207.79 236.261 207.662C236.301 207.407 236.226 207.146 236.054 206.951C235.884 206.756 235.638 206.635 235.378 206.651C235.229 206.653 235.073 206.644 234.92 206.637C234.452 206.612 233.925 206.581 233.406 206.784C232.804 207.016 232.379 207.521 232.037 207.927L231.895 208.095C231.295 208.787 230.696 209.478 230.094 210.168C228.301 212.228 226.448 214.357 224.698 216.522C223.475 218.037 221.911 218.616 219.625 218.395C218.486 218.286 218.007 217.993 217.791 217.275L217.684 216.931C217.24 215.499 217.068 214.769 217.977 213.879C219.993 211.903 221.969 209.834 223.882 207.832C224.821 206.849 225.763 205.865 226.709 204.887C227.223 204.359 228.585 202.955 227.15 201.537C226.725 201.118 226.26 200.916 225.77 200.93C224.97 200.956 224.438 201.555 224.049 201.992C223.987 202.062 223.926 202.132 223.868 202.195C222.657 203.469 221.453 204.784 220.286 206.056C219.565 206.839 218.847 207.623 218.124 208.404C217.67 208.892 217.185 209.38 216.715 209.855C215.685 210.891 214.62 211.963 213.737 213.176C212.968 214.232 212.312 214.622 211.398 214.567C209.134 214.425 206.821 214.169 204.645 213.918C204.587 213.904 204.417 213.79 204.348 213.686C203.432 212.344 203.262 211.373 203.759 210.331C206.138 205.356 208.669 200.658 213.453 197.845C213.628 197.743 213.797 197.606 213.972 197.429C214.411 196.983 215.013 196.374 214.976 195.548C214.962 195.228 214.839 194.753 214.327 194.319C213.56 193.668 212.128 194.081 211.591 194.37C206.398 197.173 203.608 201.883 200.981 206.872C199.805 209.104 199.735 209.236 197.28 208.876C193.782 208.364 191.22 206.295 188.974 202.167C188.702 201.667 188.688 200.621 188.949 200.17C190.09 198.178 191.517 196.306 192.889 194.579C193.389 193.951 194.114 193.403 194.828 193.112C200.965 190.62 206.089 186.526 211.043 182.57C211.549 182.165 212.056 181.761 212.563 181.358C213.084 180.947 213.167 180.28 213.235 179.745C213.258 179.568 213.279 179.401 213.309 179.28C213.374 179.022 213.321 178.75 213.16 178.539C213 178.327 212.754 178.199 212.489 178.19C212.349 178.185 212.177 178.16 211.993 178.134C211.461 178.055 210.799 177.96 210.234 178.299C209.097 178.987 208.055 179.815 207.046 180.617L206.626 180.952C206.21 181.279 205.793 181.616 205.382 181.951C205.549 181.675 205.717 181.4 205.889 181.131C206.593 180.012 206.391 179.006 205.284 178.136C203.118 176.43 200.64 175.847 198.287 175.47C195.253 174.982 192.547 175.754 190.011 177.825C188.953 178.69 187.833 179.529 186.752 180.34C185.694 181.133 184.602 181.951 183.551 182.804C182.393 183.744 181.152 184.381 179.794 184.72C181.154 183.785 182.014 182.535 182.256 181.103C182.563 179.296 181.842 177.444 180.229 175.884C179.831 175.503 179.394 175.207 178.971 174.921C178.776 174.789 178.578 174.656 178.388 174.517C178.357 174.494 178.327 174.47 178.295 174.447C178.557 174.205 178.808 173.971 179.052 173.729C183.176 169.635 187.777 165.523 193.48 163.182C195.195 162.48 196.481 162.112 197.585 162.112C199.056 162.112 200.203 162.763 201.604 164.135C201.983 164.507 202.39 164.835 202.783 165.151C203.19 165.476 203.571 165.785 203.908 166.125C204.796 167.022 205.498 167.84 206.056 168.624C207.325 170.416 208.823 172.222 211.143 173.289C212.454 173.894 213.746 174.654 214.995 175.389C215.669 175.786 216.366 176.195 217.066 176.581C223.033 179.873 227.206 185.217 231.242 190.388C232.032 191.401 232.851 192.45 233.669 193.468C235.956 196.306 237.684 199.658 239.395 203.129C240.813 206.002 242.043 209.046 243.233 211.986C243.651 213.021 244.07 214.053 244.495 215.083Z" fill="#FF97D8"/>
<path d="M222.21 114.933C224.304 117.683 224.155 120.419 221.777 123.455C221.531 123.769 221.245 124.066 220.943 124.382C220.738 124.596 220.533 124.808 220.338 125.029C219.91 125.51 219.49 125.996 219.069 126.482C218.299 127.372 217.502 128.293 216.693 129.157C215.275 130.673 213.848 132.117 212.453 133.451C212.074 133.814 211.651 134.142 211.207 134.49C210.6 134.964 209.972 135.455 209.428 136.055C207.906 137.733 205.962 138.554 203.126 138.717C196.057 139.119 188.75 139.533 181.39 139.042C179.454 138.914 177.489 138.944 175.59 138.972C173.528 139.005 171.396 139.037 169.339 138.861C164.157 138.417 158.65 137.887 153.301 136.703C147.429 135.406 141.433 134.681 134.975 134.488C131.049 134.369 126.706 133.677 121.701 132.372C118.944 131.654 116.189 130.657 113.525 129.69C111.435 128.932 109.271 128.148 107.1 127.495C104.143 126.607 101.088 125.687 98.6866 123.562C98.2543 123.181 97.7382 122.723 97.0803 122.579C96.5502 122.462 96.0225 122.497 95.5553 122.53C95.3832 122.541 95.2112 122.553 95.0415 122.555C94.7742 122.56 94.5254 122.685 94.3627 122.895C94.2 123.106 94.1419 123.381 94.2046 123.639C94.2372 123.769 94.2581 123.936 94.279 124.115C94.3441 124.643 94.4255 125.298 94.9067 125.738C97.0175 127.672 99.3376 129.636 102.418 130.545C103.201 130.775 103.987 130.999 104.773 131.222C106.609 131.742 108.509 132.279 110.322 132.921C111.254 133.249 112.184 133.586 113.114 133.921C118.123 135.734 123.308 137.608 128.785 138.286C131.037 138.565 133.527 138.74 136.393 138.817C140.343 138.926 144.816 139.047 149.084 140.088C152.743 140.981 156.049 141.755 159.445 142.215C166.94 143.231 174.93 143.631 183.868 143.438C185.119 143.412 186.407 143.48 187.653 143.547C188.938 143.617 190.266 143.689 191.586 143.659C193.455 143.617 195.348 143.496 197.175 143.378C198.732 143.278 200.346 143.175 201.924 143.122C206.85 142.959 210.407 141.474 213.118 138.447C213.855 137.624 214.803 136.947 215.807 136.234C216.04 136.066 216.277 135.899 216.514 135.727C217.453 137.375 217.316 139.381 216.093 140.937C215.696 141.441 215.294 141.936 214.889 142.434C214.231 143.243 213.55 144.08 212.911 144.94C209.217 149.903 204.54 152.109 198.619 151.681C196.075 151.498 193.723 151.407 191.496 151.407C190.673 151.407 189.868 151.419 189.076 151.444C186.36 151.528 183.606 151.679 180.944 151.825C177.313 152.025 173.558 152.232 169.874 152.269C165.668 152.316 161.375 152.125 157.223 151.942C155.605 151.872 153.933 151.798 152.287 151.739C151.848 151.723 151.39 151.635 150.906 151.542C150.737 151.509 150.567 151.477 150.397 151.447C149.026 151.205 147.652 150.958 146.28 150.712C143.407 150.194 140.438 149.659 137.502 149.189C133.692 148.578 129.996 147.878 126.66 146.042C125.06 145.163 123.394 144.373 121.78 143.608C120.753 143.122 119.688 142.617 118.658 142.097C114.892 140.195 111.073 138.231 107.381 136.331L105.449 135.339C105.138 135.178 104.831 134.995 104.508 134.804C103.929 134.458 103.329 134.102 102.66 133.853C97.5638 131.963 93.291 128.816 89.7854 125.984C89.2251 125.531 88.6997 124.689 88.3766 123.732C87.9698 122.52 88.1697 121.242 88.8973 120.393C89.4483 119.756 90.1945 119.482 91.0012 119.622C93.1097 119.991 95.2717 120.496 97.4267 121.123C99.2027 121.642 101.002 122.211 102.743 122.765C105.565 123.66 108.485 124.587 111.414 125.317C116.064 126.475 120.846 127.367 125.472 128.23L127.16 128.546C133.913 129.813 140.899 131.122 147.982 132.238C152.982 133.026 157.985 133.495 161.786 133.816C165.859 134.16 170.004 134.4 174.014 134.63C175.372 134.706 176.729 134.785 178.089 134.867C179.038 134.925 179.986 134.988 180.937 135.053C183.682 135.236 186.523 135.427 189.329 135.453C192.33 135.483 195.548 135.311 198.884 134.951C203.198 134.483 208.089 133.951 212.223 130.752C214.877 128.697 217.056 125.989 219.076 122.234C220.127 120.279 220.936 118.201 221.719 116.19H221.717C221.879 115.776 222.042 115.353 222.21 114.933Z" fill="#96261F"/>
<path d="M215.132 103.77C218.208 107.097 219.128 110.837 217.866 114.889C216.343 119.788 213.802 123.839 210.315 126.934C208.946 128.147 207.086 129.13 205.208 129.633C198.525 131.42 191.583 131.371 185.046 131.169C181.805 131.069 178.504 130.788 175.312 130.516C172.03 130.237 168.636 129.946 165.279 129.851C157.438 129.626 149.573 128.417 141.967 127.25C140.951 127.094 139.937 126.938 138.924 126.785C135.946 126.334 132.938 125.636 130.03 124.962C128.337 124.569 126.587 124.165 124.852 123.809C123.465 123.526 122.051 123.286 120.684 123.054C118.527 122.689 116.298 122.312 114.173 121.757C111.227 120.985 108.256 120.069 105.383 119.183C103.242 118.521 101.027 117.837 98.8274 117.216C96.2633 116.491 93.648 115.991 91.2024 115.559C89.1451 115.194 87.5108 115.64 86.3415 116.879C84.8141 118.5 84.0075 120.773 84.1307 123.114C84.2492 125.39 85.2512 127.496 86.8738 128.896C88.7801 130.535 91.0629 132.406 93.5457 133.854C96.877 135.798 100.338 137.627 103.686 139.396C105.004 140.094 106.322 140.789 107.633 141.493C107.894 141.633 108.152 141.74 108.401 141.844C108.556 141.909 108.714 141.974 108.865 142.049C109.956 142.572 111.048 143.093 112.141 143.611C114.728 144.843 117.402 146.117 120.005 147.414C126.387 150.592 131.778 153.054 138.189 153.435L138.594 153.458C141.116 153.607 143.724 153.761 146.003 154.551C149.371 155.718 152.756 155.725 156.029 155.73C156.764 155.732 157.498 155.734 158.233 155.748C158.668 155.755 159.13 155.776 159.649 155.811C166.118 156.248 173.45 156.743 180.757 156.125C187.294 155.572 192.741 155.193 198.346 155.753C203.346 156.255 207.821 154.928 212.022 151.703C212.054 151.678 212.089 151.654 212.124 151.629C212.147 151.768 212.164 151.896 212.175 152.024C212.415 155.025 211.478 157.768 209.309 160.405C209.062 160.704 208.814 161.046 208.572 161.376C208.151 161.953 207.275 163.15 206.893 163.166C206.205 163.187 205.015 161.992 204.227 161.197L203.892 160.863C200.849 157.838 197.072 157.285 192.666 159.219C189.5 160.609 186.571 162.297 183.958 164.238C182.098 165.621 180.357 167.193 178.674 168.713C177.374 169.889 176.028 171.103 174.652 172.207C173.241 173.337 171.658 174.343 170.126 175.317C169.601 175.652 169.061 175.994 168.524 176.343C168.457 176.287 168.385 176.229 168.315 176.171C167.729 175.692 167.064 175.148 166.281 174.79C162.568 173.088 158.698 173.995 155.383 177.34C153.628 179.111 153.058 181.38 153.779 183.728C154.423 185.823 155.434 187.65 156.629 188.873C159.079 191.379 161.28 194.108 163.359 197.214C164.623 199.099 165.088 201.049 164.872 203.542C164.861 203.681 164.833 203.839 164.802 204.004C164.728 204.418 164.647 204.883 164.744 205.378C165.209 207.705 164.307 209.458 162.81 211.373C161.408 213.168 160.074 214.489 158.107 215.093C157.775 215.195 157.454 215.316 157.147 215.435C156.822 215.558 156.515 215.676 156.21 215.765C155.227 216.051 154.239 216.383 153.286 216.702C151.04 217.455 148.918 218.166 146.73 218.396C142.82 218.81 138.78 218.838 134.874 218.866C133.663 218.875 132.452 218.885 131.243 218.903C129.162 218.936 127.042 218.929 124.99 218.919C124.06 218.915 123.116 218.912 122.165 218.912C121.061 218.912 119.947 218.917 118.843 218.933C116.528 218.968 114.189 219.145 111.927 219.317L111.82 219.324C110.284 219.44 108.721 219.582 107.213 219.717C104.365 219.975 101.417 220.242 98.5252 220.347C96.4074 220.426 94.2199 220.265 92.1044 220.112C91.2419 220.049 90.3516 219.984 89.4705 219.935C88.5685 219.884 87.6665 219.838 86.7646 219.789C83.94 219.64 81.0202 219.487 78.1608 219.263C72.0329 218.782 65.5586 217.566 58.3683 215.546C52.0498 213.773 46.2311 211.039 39.436 207.477C33.952 204.602 29.907 200.41 27.415 195.019C25.8644 191.665 24.7485 188.589 24.0093 185.616C22.998 181.55 22.0658 176.701 22.826 171.558C23.3467 168.03 23.7257 164.426 24.093 160.944C24.2627 159.354 24.4347 157.708 24.6183 156.095C24.7439 155.009 24.8624 153.926 24.981 152.84C25.2786 150.12 25.5877 147.31 25.9713 144.562C26.5688 140.266 27.2732 135.907 27.9543 131.692L28.1682 130.36C28.2937 129.586 28.4146 128.81 28.5355 128.033C28.9493 125.369 29.377 122.614 29.9861 119.967C30.2929 118.637 30.7649 117.295 31.2205 116.001C31.6994 114.636 32.1922 113.227 32.5223 111.779C33.5917 107.071 35.6746 102.648 37.6901 98.3702C37.911 97.9006 38.1318 97.431 38.3527 96.9591C41.0656 91.1636 44.09 85.3821 47.0168 79.7936L47.8003 78.2965C50.3016 73.5146 53.2865 67.8818 56.4691 62.3444C58.8937 58.1251 61.5067 53.664 64.4405 49.5865C66.2793 47.0317 68.418 44.6024 70.487 42.2521C71.4285 41.1828 72.4026 40.0762 73.3394 38.9696C73.8462 38.3699 74.36 37.7771 74.8714 37.1866C77.2193 34.476 79.644 31.6724 81.3945 28.2691C83.7541 23.6755 86.9319 18.5728 92.5972 15.5716C95.8332 13.8583 99.7527 12.0985 104.297 12.1404L105.369 12.1474C109.779 12.1753 114.34 12.2055 118.799 12.4821C128.105 13.0633 134.679 17.7359 138.336 26.3698C138.819 27.5159 139.154 28.7852 139.452 29.987C139.463 30.0266 139.47 30.0638 139.475 30.094C139.445 30.0916 139.412 30.087 139.373 30.08C138.849 29.9963 138.331 29.9615 137.829 29.9289C137.401 29.8987 136.997 29.8708 136.599 29.8173C130.118 28.9223 122.43 28.1668 114.561 29.364C110.616 29.9638 106.143 30.6426 102.394 33.4601C99.5899 35.564 96.9002 37.7724 94.4082 39.8437C93.9316 40.2413 93.827 40.8457 93.7433 41.3339C93.7154 41.4919 93.6898 41.6407 93.6573 41.7523C93.5852 41.9941 93.6224 42.2568 93.7573 42.4706C93.8921 42.6845 94.1153 42.8286 94.364 42.8658C94.4919 42.8844 94.6569 42.9309 94.8313 42.9797C95.3729 43.1285 96.0471 43.3145 96.6283 42.9588C97.8859 42.1893 99.039 41.2595 100.155 40.3598L100.338 40.211C100.794 39.8437 101.245 39.4671 101.696 39.0929C103.844 37.2982 105.874 35.6058 108.496 34.7968C113.459 33.2672 118.248 32.5651 122.728 32.7069C127.07 32.8464 131.489 33.2881 135.765 33.7158C137.111 33.8507 138.457 33.9855 139.803 34.111C140.381 34.1645 141.065 34.404 141.783 34.8015C145.301 36.7565 148.074 38.7139 150.508 40.9619C155.894 45.9391 159.344 52.4226 162.15 58.1228C159.472 55.289 156.42 53.9639 152.828 54.0685C151.645 54.1034 150.429 54.0941 149.255 54.0825C148.567 54.0778 147.881 54.0732 147.193 54.0755L144.294 54.0848C140.807 54.0964 137.199 54.108 133.649 54.1429L130.604 54.1708C125.245 54.2196 119.703 54.2708 114.252 54.4056C112.197 54.4544 109.781 54.5846 107.45 55.1518C104.346 55.9097 101.138 56.6931 98.6577 59.2154C97.951 59.9337 97.2443 60.6497 96.5376 61.368C95.2985 62.6234 94.0595 63.8787 92.8274 65.141C92.0184 65.9686 91.3791 66.659 90.8119 67.3146C89.1683 69.2162 88.6824 72.7753 89.8146 74.6374C91.2698 77.0342 93.455 76.5948 95.2102 76.2414L95.5496 76.174C95.7402 76.1368 96.0773 76.1996 96.4051 76.3344C97.7464 76.883 99.1064 77.4596 100.42 78.0152C102.71 78.9846 105.079 79.9865 107.44 80.9001C109.368 81.644 111.39 82.5599 113.145 84.2058C114.84 85.7936 116.395 87.1721 118.26 87.9649C121.921 89.5247 125.754 90.715 129.465 91.868C132.347 92.7653 135.762 93.7766 139.231 94.4879C145.833 95.8409 153.588 96.7313 161.036 93.0792C161.362 92.9211 161.75 92.777 162.259 92.6305C163.308 92.326 164.549 91.9749 165.804 91.6658C165.828 91.6658 165.921 91.682 165.983 91.7169C166.293 91.8796 166.492 92.1516 166.527 92.4608C166.562 92.777 166.423 93.0885 166.134 93.3349C161.367 97.4333 158.075 97.7936 155.741 97.6495L153.418 97.5054C149.378 97.259 145.201 97.0032 141.104 96.6569L139.3 96.5058C134.619 96.1152 129.776 95.7107 125.076 94.9994C122.763 94.6483 120.268 93.7812 117.862 92.4887C116.523 91.768 115.356 90.708 114.122 89.5852C113.594 89.1063 113.05 88.6088 112.49 88.1439C112.015 87.7487 111.544 87.3442 111.072 86.942C109.93 85.9633 108.749 84.952 107.503 84.0454C106.903 83.6107 106.167 83.8246 105.516 84.0129C105.318 84.071 105.116 84.1291 104.965 84.1547C104.693 84.1988 104.458 84.3686 104.332 84.6126C104.204 84.8567 104.2 85.1473 104.318 85.3961C104.383 85.5356 104.446 85.6913 104.511 85.8587C104.686 86.305 104.883 86.8095 105.274 87.2186C105.688 87.6533 106.153 87.9997 106.604 88.3322C106.91 88.56 107.199 88.7738 107.459 89.0063C108.189 89.6572 108.917 90.3477 109.621 91.0148C111.048 92.3725 112.527 93.7743 114.15 94.9691C117.262 97.2636 121.028 98.6329 125.664 99.1559C126.663 99.2675 127.663 99.3837 128.663 99.4976C136.334 100.376 144.268 101.285 152.163 101.369C153.202 101.378 154.272 101.509 155.401 101.643L155.457 101.65C154.702 102.485 154.007 103.254 153.304 104.017C150.385 107.192 147.639 109.196 144.671 110.324C143.601 110.728 142.332 111.189 141.035 111.509C139.247 111.951 137.559 112.686 135.925 113.397C133.424 114.485 131.062 115.512 128.388 115.566C127.693 115.58 127.293 116.173 126.973 116.649C126.882 116.786 126.787 116.928 126.71 117.014C126.556 117.193 126.482 117.426 126.503 117.66C126.522 117.895 126.635 118.111 126.817 118.263C126.896 118.325 126.998 118.432 127.096 118.537C127.451 118.909 127.895 119.374 128.539 119.334L128.925 119.313C130.346 119.237 131.813 119.16 133.198 118.702C134.837 118.163 136.467 117.535 138.043 116.928C139.719 116.282 141.451 115.615 143.176 115.061C146.477 114.006 149.915 112.655 152.681 109.97C153.797 108.885 154.899 107.757 155.964 106.665C157.226 105.37 158.533 104.031 159.86 102.773C160.888 101.799 162.103 100.941 163.277 100.114L163.875 99.6906C164.523 99.228 165.214 98.7816 165.881 98.3493C166.737 97.796 167.622 97.2241 168.461 96.5941C169.919 95.5038 170.661 93.8835 170.5 92.1493C170.333 90.3314 169.217 88.7459 167.515 87.9044C167.106 87.7022 166.988 87.5859 166.96 87.5487L166.637 86.763C165.828 84.7916 164.991 82.7529 164.333 80.7095C163.336 77.6153 161.738 75.0326 159.504 72.9171L159.549 72.8683C160.883 74.126 162.222 75.379 163.563 76.6134C165.986 78.8451 167.369 81.5278 167.794 84.8102C167.806 84.9056 167.815 85.0055 167.825 85.1055C167.878 85.6774 167.952 86.4608 168.568 86.9466C168.95 87.2465 169.44 87.3558 170.033 87.2698C170.749 87.1675 171.142 86.8141 171.344 86.5352C171.484 86.3422 171.574 86.1353 171.628 85.9238L172.097 86.0725C171.639 87.5859 171.66 88.8064 172.155 89.8386C172.816 91.2124 174.245 92.1237 176.661 92.7072C180.048 93.5232 183.588 93.9556 187.801 94.0648C189.233 94.0997 190.69 94.1718 192.101 94.2392C196.537 94.4531 201.124 94.6739 205.708 93.9114C210.571 93.1024 214.372 90.9242 217.331 87.2512C217.355 87.2209 217.378 87.1931 217.401 87.1652C217.15 88.3345 216.643 89.3085 216.132 90.1524C213.177 95.0296 210.78 97.2404 205.148 96.6267C205.059 96.6174 204.971 96.6057 204.88 96.5941C204.306 96.522 203.657 96.443 203.032 96.6615C202.49 96.8545 202.13 97.2869 201.84 97.6332C201.74 97.7518 201.644 97.8657 201.556 97.9541C201.386 98.1238 201.293 98.3562 201.3 98.5957C201.305 98.8351 201.409 99.0629 201.588 99.2233C201.67 99.2977 201.76 99.3977 201.858 99.5046C202.151 99.8254 202.516 100.228 203.06 100.367C203.709 100.534 204.353 100.527 204.973 100.521C205.131 100.521 205.289 100.516 205.447 100.521C206.405 100.527 207.363 100.527 208.358 100.525C207.358 101.557 205.984 101.767 204.276 101.913C203.888 101.946 203.49 101.941 203.067 101.939C202.5 101.932 201.914 101.927 201.316 102.011C200.561 102.118 199.754 102.917 199.654 103.654C199.566 104.319 200.075 104.979 200.177 105.105C200.47 105.465 200.8 105.66 201.151 105.684C201.377 105.698 201.602 105.714 201.828 105.73C204.731 105.939 207.737 106.156 210.411 104.003C211.152 103.405 211.892 102.808 212.687 102.164L213.226 101.727L213.233 101.734C213.775 102.315 214.456 103.043 215.132 103.773V103.77Z" fill="#FF97D8"/>
<path d="M217.143 67.2325C217.506 68.7737 217.803 70.4429 217.726 72.3514C217.461 71.9702 217.222 71.6122 217.017 71.2472C214.895 67.5138 212.075 65.5889 208.395 65.3588L207.96 65.3332C204.369 65.1077 200.656 64.8752 196.992 64.9636C194.405 65.0263 191.89 65.21 189.537 66.7559L188.933 67.1488C185.369 69.4804 181.684 71.8888 179.374 75.9036C179.201 76.2034 178.888 76.4871 178.555 76.7893C178.248 77.0682 177.93 77.3542 177.653 77.7098C177.202 78.2864 176.709 78.8675 176.233 79.4324C174.966 80.9272 173.655 82.4755 172.811 84.2725C172.509 84.9141 172.274 85.5115 172.102 86.0694L171.632 85.9207C171.783 85.3465 171.679 84.742 171.602 84.3004L171.59 84.2329C171.395 83.0938 171.1 81.9687 170.816 80.8807C170.779 80.7482 170.744 80.6134 170.709 80.4786C170.863 80.5134 171.025 80.5065 171.177 80.4553C171.421 80.3763 171.618 80.1903 171.716 79.9532C171.781 79.7881 171.869 79.6138 171.96 79.4278C172.197 78.9512 172.464 78.4119 172.502 77.7959C172.592 76.3685 172.571 74.9016 172.434 73.4347C172.181 70.6916 171.646 67.8369 169.463 65.5471L169.18 65.2495C168.299 64.3266 167.385 63.3735 166.613 62.3692C166.439 62.1391 166.376 61.5858 166.327 61.1418L166.313 61.0232C166.267 60.6024 166.269 60.1422 166.274 59.6563C166.281 58.6241 166.288 57.5571 165.802 56.6249C163.735 52.6613 161.404 48.6024 158.674 44.2157C157.889 42.9557 156.88 41.8468 155.906 40.7751C155.748 40.6008 155.587 40.4241 155.427 40.2451C166.783 35.8654 178.613 36.2118 189.716 41.2657C200.526 46.187 205.101 51.2595 207.679 55.3603C202.841 54.6815 198.02 55.0883 193.482 55.5695C190.195 55.9159 187.659 56.6598 185.499 57.9081L185.46 57.9314C184.774 58.3266 183.167 59.2541 184.104 60.9814C184.832 62.3274 186.031 61.9973 186.736 61.7043L186.775 61.7927C183.156 63.3363 179.859 65.8167 176.933 69.2015C176.505 69.6966 176.572 70.3452 176.626 70.8683C176.642 71.024 176.658 71.1868 176.658 71.2984C176.654 71.5378 176.747 71.7703 176.919 71.9376C177.091 72.1073 177.325 72.198 177.563 72.191C177.707 72.1841 177.848 72.1841 177.993 72.1817C178.397 72.1771 178.818 72.1748 179.253 72.1027C179.732 72.0213 180.01 71.661 180.178 71.4448C180.208 71.4053 180.238 71.3658 180.269 71.3332C185.071 66.1096 190.948 63.5734 197.729 63.7896C200.307 63.8733 202.934 64.0616 205.473 64.2429C207.121 64.3591 208.827 64.48 210.508 64.573C212.514 64.6846 214.418 65.3983 216.68 66.8931L216.713 66.914C216.827 66.9907 217.055 67.1395 217.143 67.2325Z" fill="#FF97D8"/>
<path d="M217.117 77.9458C217.131 77.9644 217.143 77.983 217.154 78.0039C216.617 77.725 216.08 77.4437 215.543 77.1647C213.193 75.9396 210.761 74.6703 208.33 73.494C207.211 72.9524 205.526 72.2085 203.799 72.0039C201.409 71.7226 198.975 71.5878 196.622 71.4576C195.755 71.4088 194.888 71.36 194.023 71.3065C192.726 71.2228 191.429 71.1507 190.132 71.0764C190.139 71.074 190.143 71.0694 190.148 71.0671C191.376 70.3139 192.533 69.6048 193.737 69.37C196.155 68.9028 198.596 68.668 201.044 68.668C203.492 68.668 205.714 68.8818 208.044 69.3073C210.554 69.7675 211.989 70.6626 212.995 72.3945C213.748 73.6916 214.695 74.8679 215.608 76.007C216.117 76.637 216.64 77.2903 217.117 77.9458Z" fill="#FF97D8"/>
<path d="M208.022 59.387C210.1 59.6195 211.758 60.1286 213.169 60.9771C212.123 60.747 211.049 60.6563 209.998 60.5703C209.57 60.5331 209.14 60.4982 208.717 60.454C203.256 59.8682 197.61 59.2615 191.907 60.2681C190.133 60.5796 188.42 61.0887 186.772 61.7907L186.732 61.7024C186.835 61.6582 186.925 61.6164 187.004 61.5815C187.088 61.5443 187.172 61.5048 187.253 61.4723C187.602 61.3235 187.951 61.1631 188.299 61.0027C189.183 60.5935 190.015 60.21 190.861 60.0495C196.566 58.9779 202.34 58.7547 208.022 59.387Z" fill="#FF97D8"/>
<path d="M201.013 180.073C201.473 180.31 201.571 180.566 201.367 181.012C200.079 183.829 198.061 186.373 195.369 188.569C194.851 188.992 194.198 189.301 193.507 189.632C192.736 189.999 191.936 190.38 191.245 190.957C191.062 191.11 190.881 191.266 190.704 191.424L190.32 191.008C193.819 187.797 197.182 184.364 199.942 180.385C200.179 180.04 200.332 179.903 200.525 179.903C200.658 179.903 200.806 179.966 201.013 180.073Z" fill="#FF97D8"/>
<path d="M196.116 179.325H196.141C191.708 184.892 186.541 189.43 181.078 194.123L180.369 188.819C182.991 188.233 185.067 186.652 187.082 185.118L187.161 185.06C187.854 184.534 188.542 184.004 189.23 183.477C190.518 182.489 191.85 181.468 193.17 180.485C194.121 179.781 195.002 179.325 196.116 179.325Z" fill="#FF97D8"/>
<path d="M191.014 36.6446C191.179 36.9049 191.328 37.1862 191.47 37.4815C191.226 37.3978 190.986 37.3141 190.744 37.2304C188.889 36.5818 187.139 35.9704 185.347 35.4148C177.189 32.8762 168.706 32.5996 160.133 34.5942C159.01 34.8546 157.906 35.2009 156.839 35.538C155.809 35.8612 154.744 36.1959 153.693 36.4423C152.777 36.6562 151.892 36.6399 151.49 36.4028C150.025 35.538 148.588 34.5407 147.198 33.576C146.282 32.9413 145.334 32.2835 144.378 31.6628C143.86 31.328 143.646 30.9979 143.455 30.2563C142.93 28.2176 142.193 25.5465 141.135 22.9731C140.784 22.1152 140.833 22.0804 141.424 21.6619C143.576 20.1346 145.852 18.4678 147.919 16.6383C150.45 14.3973 153.294 13.3163 156.639 13.3372C157.543 13.3419 158.473 13.3907 159.375 13.4418C160.63 13.5092 161.93 13.579 163.225 13.5325C163.497 13.5232 163.766 13.5185 164.034 13.5185C167.47 13.5185 170.464 14.3345 173.163 16.0013C173.67 16.3151 174.204 16.5592 174.72 16.7964C175.35 17.0823 175.945 17.3543 176.429 17.7216C176.785 17.9912 177.15 18.2563 177.515 18.5236C178.977 19.5953 180.49 20.6995 181.464 22.0618C184.077 25.7069 186.527 29.5752 188.896 33.3156C189.601 34.4268 190.305 35.538 191.014 36.6446Z" fill="#FF97D8"/>
<path d="M190.338 191.008L190.721 191.424C188.062 193.807 186.098 196.78 184.866 200.285C184.573 200.053 184.271 199.802 183.999 199.546C183.331 198.914 182.66 198.279 182.534 198.019C182.662 197.789 183.262 197.263 183.845 196.754L185.44 195.359C187.072 193.934 188.72 192.496 190.338 191.008Z" fill="#FF97D8"/>
<path d="M178.48 179.935C178.494 180.1 178.385 180.323 178.194 180.528C177.982 180.755 177.736 180.969 177.476 181.197C177.057 181.564 176.623 181.943 176.265 182.429C175.914 182.91 175.902 183.494 175.893 183.965C175.89 184.121 175.886 184.27 175.872 184.389C175.849 184.582 175.89 184.774 175.986 184.939C175.258 184.86 174.498 184.721 173.701 184.519C172.364 184.182 171.378 183.405 171 182.389C170.649 181.45 170.844 180.376 171.548 179.365C172.262 178.345 173.894 177.427 175.037 177.403H175.054C175.702 177.403 176.674 178.245 177.455 178.924C177.724 179.156 178.003 179.398 178.275 179.614C178.468 179.77 178.478 179.895 178.48 179.935Z" fill="#FF97D8"/>
<path d="M168.079 71.5006C168.258 73.014 168.304 74.5832 168.339 76.1128C167.663 75.3061 166.958 74.4972 166.191 73.7509C164.919 72.5165 163.592 71.303 162.306 70.1314C160.319 68.3158 158.262 66.4375 156.399 64.4615C153.661 61.5556 150.767 59.4727 147.607 58.1453C148.395 58.143 149.172 58.1406 149.939 58.1406C151.45 58.1406 152.926 58.1499 154.4 58.1801C155.837 58.208 157.157 58.8427 158.436 60.1166C159.205 60.8838 159.968 61.6556 160.733 62.4274C162.332 64.0453 163.985 65.7191 165.67 67.3115C167.116 68.6808 167.904 70.05 168.076 71.5006H168.079Z" fill="#FF97D8"/>
<path d="M163.024 88.3295C163.082 88.4644 163.091 88.5481 163.094 88.5876C163.045 88.6108 162.917 88.6573 162.636 88.655C162.617 88.6527 162.596 88.6527 162.575 88.6527C161.738 88.6527 160.953 88.913 160.085 89.2269C159.479 89.4477 158.881 89.7011 158.307 89.9475C157.407 90.3311 156.561 90.6937 155.683 90.9309C152.391 91.8189 148.829 91.9653 144.791 91.3795C144.384 91.3191 143.975 91.261 143.562 91.2029C145.828 87.8716 146.677 83.7917 146.154 78.7611C146.03 77.5941 145.486 76.5433 144.959 75.5251C144.766 75.1555 144.584 74.8068 144.426 74.4581C144.908 74.4279 145.398 74.3976 145.886 74.3651C147.878 74.2372 149.94 74.1047 151.958 74.0838H151.986C153.6 74.0652 154.994 74.0489 156.278 75.1369C159.181 77.6034 160.337 80.9231 161.559 84.438C162.008 85.7236 162.471 87.0533 163.024 88.3295Z" fill="white"/>
<path d="M159.56 72.863L159.516 72.9118C157.84 71.3263 155.808 70.0059 153.4 68.9296C150.401 67.5905 147.239 66.0841 144.457 64.1454C139.045 60.377 133.501 58.7079 127.498 59.0427C121.01 59.403 114.117 59.9353 107.452 62.0671C102.368 63.692 98.8485 66.1702 96.3681 69.8641C96.2751 70.0013 96.1844 70.1431 96.0914 70.2849C95.6684 70.9335 95.2708 71.5449 94.7733 71.9075C94.5037 72.1074 94.0271 72.1911 93.5227 72.2795C93.4204 71.9098 93.3367 71.5681 93.3762 71.3194C93.4785 70.6824 93.79 70.0036 94.1713 69.5898C96.2681 67.3069 98.537 64.8846 100.922 62.625C101.968 61.637 103.191 60.828 104.37 60.3515C108.552 58.6591 112.418 58.0128 116.184 58.3778C118.118 58.5661 120.075 58.4592 121.97 58.3569C122.97 58.3034 124.004 58.2476 125.008 58.2383C126.12 58.2267 127.247 58.1755 128.335 58.1244C132.275 57.9408 135.995 57.7687 139.605 59.3216C140.247 59.5983 140.902 59.8214 141.539 60.0353C142.018 60.198 142.472 60.3515 142.92 60.5281L143.876 60.8978C146.586 61.9392 149.148 62.9226 151.201 64.8846L152.979 66.5886C155.134 68.6553 157.338 70.7661 159.56 72.863Z" fill="#FF97D8"/>
<path d="M146.034 69.6696L147.331 70.4298C146.934 70.4554 146.539 70.481 146.148 70.5042C143.586 70.6693 141.166 70.825 138.732 70.746C135.231 70.6344 131.644 70.5414 128.008 70.5414C121.918 70.5414 115.69 70.8041 109.483 71.6898L109.088 71.7456C106.644 72.092 104.117 72.45 101.786 73.3426C100.668 73.7704 99.9562 73.6425 98.9775 73.1195C100.965 69.7766 103.413 67.7611 107.03 66.4546C113.635 64.0694 120.834 63.035 130.384 63.107C133.699 63.1326 136.903 64.1648 140.469 66.3593C142.31 67.4914 144.205 68.5979 146.034 69.6696Z" fill="#FF97D8"/>
<path d="M117.682 74.7129L114.49 80.05C112.735 78.6669 110.613 77.958 108.549 77.2699C107.549 76.9352 106.529 76.5934 105.555 76.175L117.682 74.7129Z" fill="white"/>
<mask id="mask0_762_6415" style="mask-type:alpha" maskUnits="userSpaceOnUse" x="100" y="86" width="151" height="160">
<path fill-rule="evenodd" clip-rule="evenodd" d="M100.547 86.9717H250.999V245.001H100.547V86.9717ZM160.078 185.222L193.632 156.245L204.997 170.316L170.902 197.376L160.078 185.222ZM189.845 192.506L172.532 207.757L212.035 224.977L208.349 218.483L213.658 218.483L219.07 222.813L225.565 221.189L235.847 207.757L204.457 182.764L189.845 192.506Z" fill="#D9D9D9"/>
</mask>
<g mask="url(#mask0_762_6415)">
<path d="M176.99 150.741L176.99 150.717L176.991 150.693C177.071 137.629 168.648 128.58 167.871 127.746L167.867 127.742L147.852 106.238C145.862 104.1 142.334 103.798 140.018 105.62L139.965 105.662L139.915 105.708C137.605 107.858 137.48 111.343 139.631 113.653L159.765 135.284C160.643 136.227 160.58 137.531 159.78 138.275C158.837 139.154 157.533 139.091 156.789 138.291L136.655 116.661C134.665 114.522 131.137 114.221 128.821 116.042L128.768 116.084L128.718 116.13C126.408 118.281 126.283 121.765 128.434 124.075L148.568 145.706C149.446 146.65 149.383 147.953 148.583 148.698C147.64 149.576 146.336 149.513 145.592 148.713L125.458 127.083C123.468 124.945 119.94 124.643 117.624 126.465L117.571 126.506L117.521 126.552C115.211 128.703 115.086 132.187 117.237 134.498L137.371 156.128L137.376 156.134C138.27 157.094 146.698 166.149 159.626 166.872L159.642 166.873L159.658 166.873L160.598 166.907C167.07 167.493 173.049 171.023 177.276 176.286C177.277 176.287 177.278 176.288 177.279 176.289L177.282 176.294L177.306 176.324L177.401 176.444L177.773 176.912L179.186 178.689L184.23 185.033C188.407 190.285 193.979 197.292 199.562 204.31C205.145 211.329 210.739 218.36 214.96 223.66C217.07 226.31 218.838 228.528 220.089 230.095C220.714 230.878 221.211 231.5 221.558 231.932L221.59 231.973C221.881 232.336 222.124 232.64 222.198 232.719C226.244 237.065 233.167 237.313 237.513 233.267C241.86 229.222 242.108 222.298 238.062 217.952C237.989 217.873 237.703 217.609 237.362 217.292L237.324 217.257C236.918 216.881 236.333 216.34 235.596 215.66C234.122 214.3 232.037 212.379 229.545 210.084C224.56 205.495 217.948 199.412 211.347 193.34C204.746 187.269 198.156 181.21 193.216 176.669L187.25 171.183L185.579 169.647L185.138 169.242L185.026 169.138L184.997 169.112L184.993 169.109C184.992 169.108 184.991 169.107 184.99 169.106C180.126 164.59 177.148 158.605 176.841 152.063C177.093 151.272 176.997 150.523 176.99 150.741Z" fill="white" stroke="black" stroke-width="3.24718"/>
</g>
</g>
<defs>
<clipPath id="clip0_762_6415">
<rect width="250" height="250" rx="125" fill="white"/>
</clipPath>
</defs>
</svg>
