<svg width="250" height="250" viewBox="0 0 250 250" fill="none" xmlns="http://www.w3.org/2000/svg">
<g clip-path="url(#clip0_242_94226)">
<path fill-rule="evenodd" clip-rule="evenodd" d="M6.16606 125.33L124.667 243.831L243.17 125.33L124.667 6.82744L6.16606 125.33ZM124.667 249.72C124.044 249.72 123.418 249.482 122.943 249.005L0.991673 127.054C0.039234 126.102 0.039234 124.557 0.991673 123.605L122.943 1.65427C123.895 0.701832 125.44 0.701832 126.392 1.65427L248.343 123.605C249.297 124.557 249.297 126.102 248.343 127.054L126.392 249.005C125.916 249.482 125.292 249.72 124.667 249.72Z" fill="#00C0AC"/>
<path fill-rule="evenodd" clip-rule="evenodd" d="M13.8956 122.891H86.5736L112.626 77.6533L13.8956 122.891ZM87.9834 127.769H2.71633C1.56999 127.769 0.578525 126.97 0.333403 125.85C0.0895007 124.73 0.659013 123.59 1.70048 123.113L117.532 70.0398C118.496 69.5996 119.637 69.8301 120.352 70.6155C121.066 71.3984 121.192 72.5557 120.661 73.4752L90.0968 126.547C89.6614 127.303 88.8566 127.769 87.9834 127.769Z" fill="#00C0AC"/>
<path fill-rule="evenodd" clip-rule="evenodd" d="M162.441 127.767L136.389 173.003L235.119 127.767H162.441ZM130.467 180.839C129.796 180.839 129.137 180.562 128.663 180.042C127.949 179.258 127.823 178.101 128.354 177.183L158.918 124.111C159.354 123.355 160.158 122.889 161.032 122.889H246.298C247.445 122.889 248.437 123.686 248.68 124.807C248.926 125.928 248.356 127.068 247.313 127.545L131.483 180.617C131.157 180.767 130.811 180.839 130.467 180.839Z" fill="#00C0AC"/>
<path fill-rule="evenodd" clip-rule="evenodd" d="M21.9146 66.298L65.6377 228.08L227.421 184.358L183.697 22.5736L21.9146 66.298ZM63.9182 233.51C62.8438 233.51 61.8585 232.794 61.5658 231.708L16.5694 65.2162C16.2182 63.9162 16.9865 62.576 18.2865 62.2248L184.779 17.2284C185.404 17.0589 186.068 17.1435 186.63 17.4675C187.191 17.7906 187.601 18.3223 187.769 18.9467L232.766 185.438C233.118 186.739 232.349 188.077 231.049 188.428L64.556 233.426C64.3438 233.483 64.1292 233.51 63.9182 233.51Z" fill="#00C0AC"/>
<path fill-rule="evenodd" clip-rule="evenodd" d="M47.2071 83.2735C46.7949 83.2735 46.3778 83.1686 45.9949 82.9478L17.7059 66.6966C16.5376 66.0259 16.1339 64.5357 16.8046 63.3674C17.4766 62.1991 18.9668 61.7979 20.1351 62.4662L48.4241 78.7186C49.5924 79.3893 49.9961 80.8808 49.3242 82.0478C48.8729 82.8344 48.0522 83.2735 47.2071 83.2735Z" fill="#00C0AC"/>
<path fill-rule="evenodd" clip-rule="evenodd" d="M230.132 188.355C229.72 188.355 229.303 188.25 228.92 188.03L200.864 171.913C199.696 171.241 199.292 169.75 199.963 168.583C200.635 167.415 202.124 167.012 203.293 167.683L231.349 183.801C232.518 184.471 232.92 185.962 232.249 187.13C231.798 187.916 230.977 188.355 230.132 188.355Z" fill="#00C0AC"/>
<path fill-rule="evenodd" clip-rule="evenodd" d="M201.764 83.128C200.921 83.128 200.1 82.6902 199.649 81.9073C198.976 80.7402 199.376 79.2487 200.543 78.5756L228.802 62.2707C229.967 61.5975 231.46 61.9975 232.133 63.1646C232.806 64.3317 232.405 65.8231 231.239 66.4963L202.981 82.8C202.597 83.0219 202.177 83.128 201.764 83.128Z" fill="#00C0AC"/>
<path fill-rule="evenodd" clip-rule="evenodd" d="M19.0391 188.557C18.1964 188.557 17.3757 188.119 16.9245 187.336C16.2513 186.169 16.6513 184.678 17.8184 184.005L45.844 167.834C47.0111 167.16 48.5025 167.56 49.1757 168.727C49.8489 169.894 49.4489 171.385 48.2818 172.06L20.2562 188.229C19.8721 188.451 19.4525 188.557 19.0391 188.557Z" fill="#00C0AC"/>
<path fill-rule="evenodd" clip-rule="evenodd" d="M124.746 38.5249H124.741C123.379 38.5225 122.279 37.4286 122.281 36.081L122.353 3.45539C122.355 2.11149 123.458 1.02246 124.817 1.02246H124.822C126.184 1.0249 127.284 2.1188 127.282 3.46636L127.21 36.092C127.208 37.4359 126.105 38.5249 124.746 38.5249Z" fill="#00C0AC"/>
<path fill-rule="evenodd" clip-rule="evenodd" d="M124.293 249.479H124.288C122.926 249.477 121.826 248.383 121.828 247.036L121.898 214.678C121.902 213.332 123.005 212.244 124.364 212.244H124.37C125.731 212.248 126.832 213.342 126.829 214.689L126.758 247.047C126.756 248.39 125.653 249.479 124.293 249.479Z" fill="#00C0AC"/>
<path fill-rule="evenodd" clip-rule="evenodd" d="M22.1685 184.799L184.138 227.828L227.167 65.8596L65.1978 22.8304L22.1685 184.799ZM185.871 233.251C185.662 233.251 185.453 233.224 185.243 233.169L18.5588 188.888C17.9331 188.722 17.4002 188.313 17.0758 187.755C16.7514 187.195 16.6612 186.529 16.8283 185.904L61.11 19.2206C61.4563 17.917 62.7917 17.1474 64.0929 17.4901L230.777 61.7706C231.403 61.9377 231.936 62.345 232.26 62.9048C232.586 63.4645 232.675 64.1304 232.509 64.7548L188.226 231.438C187.936 232.53 186.949 233.251 185.871 233.251Z" fill="#00C0AC"/>
<path fill-rule="evenodd" clip-rule="evenodd" d="M71.1863 28.292L107.66 91.1554L159.861 90.9872L71.1863 28.292ZM106.257 96.0384C105.388 96.0384 104.584 95.5762 104.147 94.8237L61.3571 21.0713C60.7815 20.0798 60.9741 18.8201 61.8205 18.0481C62.6681 17.2737 63.9376 17.1945 64.8754 17.8554L168.91 91.4103C169.775 92.0237 170.146 93.125 169.827 94.1371C169.507 95.1481 168.569 95.8384 167.508 95.842L106.266 96.0384H106.257Z" fill="#00C0AC"/>
<path fill-rule="evenodd" clip-rule="evenodd" d="M89.3098 159.392L177.984 222.089L141.511 159.225L89.3098 159.392ZM185.704 232.973C185.213 232.973 184.721 232.825 184.296 232.525L80.2622 158.969C79.3951 158.357 79.0244 157.254 79.3439 156.244C79.6634 155.231 80.6012 154.542 81.6622 154.54L142.906 154.342H142.913C143.783 154.342 144.587 154.804 145.023 155.557L187.813 229.309C188.389 230.302 188.196 231.561 187.35 232.334C186.887 232.757 186.296 232.973 185.704 232.973Z" fill="#00C0AC"/>
<path fill-rule="evenodd" clip-rule="evenodd" d="M22.3758 65.5025L64.838 227.621L226.956 185.157L184.494 23.0391L22.3758 65.5025ZM63.0978 233.037C62.6685 233.037 62.2429 232.923 61.8661 232.703C61.3076 232.377 60.9015 231.842 60.738 231.216L17.0393 64.3781C16.6978 63.0757 17.4771 61.7428 18.7807 61.4013L185.617 17.7025C186.919 17.3635 188.254 18.1403 188.594 19.4427L232.293 186.281C232.634 187.583 231.855 188.916 230.553 189.257L63.7149 232.956C63.5112 233.01 63.3039 233.037 63.0978 233.037Z" fill="#00C0AC"/>
<path fill-rule="evenodd" clip-rule="evenodd" d="M146.004 93.6779L171.899 139.005L182.697 30.9438L146.004 93.6779ZM173.566 149.28C172.704 149.28 171.889 148.822 171.449 148.051L141.069 94.8731C140.637 94.1158 140.642 93.1865 141.081 92.4328L184.129 18.8304C184.709 17.8401 185.901 17.3889 186.989 17.7426C188.079 18.0962 188.776 19.1633 188.661 20.3048L175.994 147.084C175.888 148.139 175.112 149.006 174.075 149.227C173.905 149.263 173.734 149.28 173.566 149.28Z" fill="#00C0AC"/>
<path fill-rule="evenodd" clip-rule="evenodd" d="M77.5997 111.377L66.8021 219.438L103.495 156.704L77.5997 111.377ZM63.2643 232.759C63.0131 232.759 62.7582 232.72 62.5095 232.639C61.4192 232.285 60.7229 231.218 60.8363 230.077L73.5046 103.298C73.6107 102.243 74.3863 101.376 75.4241 101.155C76.4619 100.931 77.5229 101.409 78.0497 102.331L108.43 155.509C108.862 156.266 108.857 157.195 108.418 157.949L65.3692 231.551C64.9216 232.315 64.1119 232.759 63.2643 232.759Z" fill="#00C0AC"/>
</g>
<defs>
<clipPath id="clip0_242_94226">
<rect width="250" height="250" rx="125" fill="white"/>
</clipPath>
</defs>
</svg>
