<svg width="250" height="250" viewBox="0 0 250 250" fill="none" xmlns="http://www.w3.org/2000/svg">
<g clip-path="url(#clip0_242_93752)">
<path d="M125 249.999C194.036 249.999 250 194.034 250 124.999C250 55.9629 194.036 -0.00146484 125 -0.00146484C55.9644 -0.00146484 0 55.9629 0 124.999C0 194.034 55.9644 249.999 125 249.999Z" fill="url(#paint0_linear_242_93752)"/>
<path d="M125 134.751L205.1 116.651C200.9 76.3009 166.65 44.9009 125 44.9009C83.3504 44.9009 49.1004 76.3009 44.9004 116.651L125 134.751Z" fill="white"/>
<path d="M46.5 142.45C47.6 147.75 49.4 152.85 51.6 157.65L125.1 162.45L198.6 157.65C200.85 152.85 202.45 147.7 203.7 142.45L125.2 148.55L46.5 142.45Z" fill="white"/>
<path d="M85.75 194.849C97.45 201.249 110.75 205.099 125 205.099C139.25 205.099 152.7 201.399 164.25 194.849H85.75Z" fill="white"/>
<path d="M125 173.999L59.6504 171.749C63.0004 176.549 67.0004 180.899 71.3504 184.699H178.65C182.95 180.849 187 176.549 190.35 171.749L125 173.999Z" fill="white"/>
</g>
<defs>
<linearGradient id="paint0_linear_242_93752" x1="125" y1="256.151" x2="125" y2="-0.00146484" gradientUnits="userSpaceOnUse">
<stop stop-color="#A32CCD"/>
<stop offset="1" stop-color="#FE453D"/>
</linearGradient>
<clipPath id="clip0_242_93752">
<rect width="250" height="250" rx="125" fill="white"/>
</clipPath>
</defs>
</svg>
