<svg width="250" height="250" viewBox="0 0 250 250" fill="none" xmlns="http://www.w3.org/2000/svg">
<path d="M247.436 124.626C247.817 191.833 192.509 247.023 124.989 247.001C57.6574 246.978 2.57743 191.972 2.52543 124.538C2.47443 59.0072 55.1974 1.87918 125.261 2.00068C195.042 2.12218 247.991 59.1172 247.436 124.626ZM162.448 190.446C163.382 189.667 163.946 189.306 164.374 188.823C167.8 184.95 171.459 181.249 174.557 177.128C181.782 167.52 186.302 156.725 187.251 144.655C188.301 131.299 184.982 118.936 178.092 107.515C168.895 92.2692 155.771 81.2887 140.118 73.2372C120.214 62.9992 98.9139 59.0177 76.6504 59.7217C75.8034 59.7487 74.9629 59.9707 73.9314 60.1307C73.9314 60.9337 73.9314 61.6077 73.9314 62.2817C73.9329 85.9867 73.9044 109.692 73.9709 133.397C73.9794 136.495 74.2049 139.644 74.7899 142.681C77.7984 158.301 85.4499 171.059 98.7359 180.078C110.99 188.397 124.848 190.79 139.346 190.416C140.089 190.397 141.064 189.658 141.503 188.978C147.044 180.398 149.935 170.951 150.198 160.764C150.556 146.911 146.455 134.217 139.658 122.317C131.255 107.606 119.689 95.7727 106.109 85.8022C105.598 85.4272 105.122 85.0057 104.629 84.6057C104.718 84.4562 104.807 84.3072 104.896 84.1577C105.435 84.3697 105.994 84.5417 106.511 84.7997C114.338 88.7112 121.816 93.1902 128.759 98.5342C144.199 110.418 155.179 125.376 160.3 144.361C163.972 157.976 164.222 171.803 162.824 185.731C162.686 187.111 162.602 188.497 162.448 190.446Z" fill="#3CB055"/>
<path d="M162.448 190.444C162.602 188.495 162.685 187.109 162.824 185.729C164.222 171.801 163.972 157.974 160.299 144.359C155.178 125.374 144.198 110.416 128.758 98.5323C121.816 93.1883 114.337 88.7098 106.51 84.7978C105.994 84.5398 105.435 84.3678 104.895 84.1558C104.806 84.3053 104.718 84.4543 104.629 84.6038C105.121 85.0038 105.598 85.4253 106.109 85.8003C119.688 95.7708 131.255 107.604 139.657 122.315C146.454 134.215 150.556 146.909 150.198 160.762C149.935 170.949 147.043 180.397 141.503 188.976C141.063 189.656 140.089 190.395 139.345 190.414C124.847 190.788 110.989 188.394 98.7353 180.076C85.4498 171.057 77.7983 158.299 74.7893 142.679C74.2043 139.642 73.9788 136.494 73.9703 133.395C73.9038 109.69 73.9318 85.9848 73.9308 62.2798C73.9308 61.6058 73.9308 60.9318 73.9308 60.1288C74.9623 59.9683 75.8033 59.7463 76.6498 59.7198C98.9133 59.0158 120.214 62.9973 140.117 73.2353C155.771 81.2873 168.895 92.2673 178.092 107.513C184.982 118.934 188.3 131.297 187.25 144.653C186.301 156.723 181.781 167.518 174.557 177.126C171.458 181.247 167.799 184.948 164.373 188.821C163.947 189.303 163.382 189.665 162.448 190.444Z" fill="white"/>
</svg>
