<svg width="250" height="250" viewBox="0 0 250 250" fill="none" xmlns="http://www.w3.org/2000/svg">
<path d="M64.0942 144.114L44.1442 120.349C40.0842 115.449 40.5742 108.204 45.2992 103.934L114.284 41.6344C118.834 37.5394 125.799 37.7494 130.069 42.0894L151.664 64.0694C153.344 65.7844 156.074 65.8544 157.859 64.2794L178.754 45.6594C181.659 43.0694 186.104 43.3144 188.729 46.2194L194.119 52.2744C196.709 55.1794 196.464 59.6244 193.559 62.2494L158.804 93.2594C155.934 95.8144 151.559 95.6744 148.864 92.9444L124.959 68.5844C123.034 66.6244 119.919 66.5544 117.889 68.3744L71.2692 110.444C69.2392 112.264 69.0292 115.379 70.7792 117.479L81.1392 129.834C83.6592 132.809 83.2392 137.254 80.2642 139.774L74.0342 144.989C71.0592 147.474 66.6142 147.089 64.0942 144.114Z" fill="#43878D"/>
<path d="M185.37 105.475L205.32 129.24C209.415 134.105 208.925 141.35 204.2 145.62L135.215 207.92C130.665 212.015 123.7 211.805 119.43 207.465L97.8346 185.485C96.1546 183.77 93.4246 183.7 91.6396 185.275L70.7446 203.895C67.8396 206.485 63.3946 206.24 60.7696 203.335L55.3796 197.28C52.7896 194.375 53.0346 189.93 55.9396 187.305L90.6946 156.295C93.5646 153.74 97.9396 153.88 100.635 156.61L124.575 180.97C126.5 182.93 129.615 183 131.645 181.18L178.23 139.11C180.26 137.29 180.47 134.175 178.72 132.075L168.36 119.72C165.84 116.745 166.26 112.3 169.235 109.78L175.465 104.565C178.44 102.08 182.885 102.465 185.37 105.475Z" fill="#74C2C2"/>
</svg>
