<svg width="250" height="250" viewBox="0 0 250 250" fill="none" xmlns="http://www.w3.org/2000/svg">
<rect width="250" height="250" rx="125" fill="white"/>
<path d="M184.172 124.811C184.173 159.089 184.158 193.367 184.214 227.644C184.217 229.431 183.817 229.93 181.974 229.927C144.109 229.869 106.244 229.868 68.3788 229.927C66.4958 229.93 65.9749 229.536 65.9766 227.574C66.0346 159.085 66.0323 90.5954 65.9849 22.1061C65.9836 20.3072 66.4088 19.8199 68.2471 19.8228C106.179 19.8809 144.11 19.8798 182.042 19.8247C183.778 19.8221 184.22 20.2032 184.217 21.9773C184.157 56.2551 184.172 90.533 184.172 124.811ZM105.601 146.695C105.601 148.489 105.601 150.282 105.601 152.076C105.601 173.136 105.6 194.197 105.606 215.257C105.607 216.251 105.216 217.365 107.039 217.347C115.144 217.267 123.25 217.292 131.355 217.335C132.52 217.341 132.833 216.934 132.801 215.831C132.732 213.508 132.78 211.181 132.78 208.856C132.78 194.173 132.789 179.491 132.761 164.808C132.759 163.666 132.85 162.566 133.99 162.136C135.008 161.752 136.16 161.539 137.249 161.554C143.706 161.647 150.093 161.07 156.475 160.078C163.148 159.039 166.568 154.816 166.627 148.387C166.793 130.252 166.696 112.114 166.672 93.9764C166.669 91.5468 166.737 89.133 166.29 86.6873C165.503 82.3813 163.139 79.5357 159.127 78.0858C153.769 76.1492 148.081 75.887 142.509 75.7323C131.09 75.4152 119.657 75.6365 108.23 75.6342C105.616 75.6337 105.601 75.6453 105.601 78.3317C105.6 101.119 105.6 123.907 105.601 146.695Z" fill="#1A1A19"/>
<path d="M101.07 118.685C101.072 132.233 101.038 145.782 101.112 159.33C101.122 161.11 100.607 161.612 98.8632 161.548C95.0163 161.406 91.1607 161.514 87.3105 161.43C84.8652 161.377 84.0673 160.6 83.6343 158.138C83.5203 157.49 83.4712 156.822 83.471 156.163C83.4636 131.59 83.4636 107.017 83.4672 82.4436C83.4681 76.1624 84.1229 75.5177 90.4225 75.5177C93.2783 75.5177 96.1383 75.6096 98.9883 75.4814C100.687 75.405 101.107 76.0189 101.101 77.6411C101.045 91.322 101.069 105.003 101.07 118.685Z" fill="#CCB749"/>
<path d="M97.8145 52.4293C97.8372 41.2136 106.678 32.6802 118.224 32.7287C129.081 32.7744 138.039 41.675 137.97 52.3466C137.897 63.5526 128.901 72.5641 117.814 72.5372C106.818 72.5105 97.7921 63.4356 97.8145 52.4293Z" fill="#CCB749"/>
<path d="M132.778 117.887C132.78 108.521 132.808 99.154 132.75 89.7878C132.741 88.3171 132.996 87.7712 134.666 87.7357C138.171 87.6611 139.886 88.0809 139.929 93.0476C140.081 110.517 139.99 127.989 139.986 145.459C139.985 148.405 136.495 150.508 133.87 149.139C132.841 148.602 132.758 147.642 132.761 146.584C132.787 137.019 132.776 127.453 132.778 117.887Z" fill="#1A1A19"/>
</svg>
