<svg width="250" height="250" viewBox="0 0 250 250" fill="none" xmlns="http://www.w3.org/2000/svg">
<path fill-rule="evenodd" clip-rule="evenodd" d="M85.1 78.6606H164.9C169.45 78.6606 172.075 83.8056 169.38 87.4806L131.405 139.701C128.745 143.376 131.37 148.521 135.885 148.521H169.345C171.13 148.521 172.775 147.681 173.825 146.246L211.45 94.5856C212.85 92.6256 212.85 90.0006 211.45 88.0406L178.515 42.7506C177.465 41.3156 175.785 40.4756 174.035 40.4756H76C74.215 40.4756 72.57 41.3156 71.52 42.7506L38.55 88.0406C37.15 90.0006 37.15 92.6256 38.55 94.5856L120.52 207.251C122.725 210.296 127.275 210.296 129.515 207.251L146.245 184.221C147.645 182.261 147.645 179.636 146.245 177.676L80.585 87.4806C77.925 83.8056 80.55 78.6606 85.1 78.6606Z" fill="#5294FF"/>
</svg>
