<svg width="250" height="250" viewBox="0 0 250 250" fill="none" xmlns="http://www.w3.org/2000/svg">
<g clip-path="url(#clip0_836_20664)">
<rect width="250" height="250" rx="125" fill="black"/>
<g clip-path="url(#clip1_836_20664)">
<path d="M159.584 61.8234L23.1853 197.683C-16.8746 141.381 -3.71743 63.2677 52.575 23.188C108.854 -16.8783 186.968 -3.71901 227.028 52.5825C229.154 55.5647 231.146 58.6406 233.005 61.81H159.611L159.584 61.8368V61.8234Z" fill="#DEEF51"/>
<path d="M173.171 95.2571L46.0245 221.942C42.6416 219.174 39.3924 216.245 36.3037 213.142L167.969 81.8838H242.42C244.024 86.2568 245.375 90.7235 246.471 95.2303H173.157V95.2571H173.171ZM195.099 148.911H247.688C234.384 216.74 168.611 260.939 100.793 247.632C99.509 247.378 98.2254 247.111 96.9418 246.816L195.099 148.911Z" fill="#DEEF51"/>
<path d="M250.001 124.824C250.001 126.162 250.001 127.499 249.934 128.823H186.742L75.4007 239.768C71.1353 237.936 66.9769 235.876 62.9521 233.576L181.527 115.343H249.64C249.867 118.472 250.001 121.642 250.001 124.824Z" fill="#DEEF51"/>
</g>
</g>
<defs>
<clipPath id="clip0_836_20664">
<rect width="250" height="250" rx="125" fill="white"/>
</clipPath>
<clipPath id="clip1_836_20664">
<rect width="250" height="250" fill="white"/>
</clipPath>
</defs>
</svg>
