<svg width="250" height="250" viewBox="0 0 250 250" fill="none" xmlns="http://www.w3.org/2000/svg">
<path d="M188.624 182.883C188.624 186.278 185.544 189.043 182.149 189.043C182.149 189.043 87.4038 189.043 87.1238 189.043C83.7288 189.043 80.6488 186.278 80.6488 182.568V180.398C80.6488 180.083 80.9638 175.778 83.7288 170.528C88.3488 161.883 96.9938 155.723 109.349 151.383L147.289 138.748C148.199 138.433 155.934 135.668 163.319 129.193C173.819 120.233 179.349 108.193 179.664 94.6482L182.429 96.5032C188.624 100.493 188.624 107.563 188.624 107.878V182.883ZM156.214 94.2982C156.214 101.088 153.729 106.653 148.794 111.273C144.769 114.983 140.464 116.523 140.149 116.838L102.209 129.473C79.7038 136.893 68.5738 149.843 63.3588 159.433C62.4488 161.288 61.5038 163.143 60.8738 164.998C60.8738 165.313 60.5588 165.313 60.5588 165.628V108.193C60.5588 101.403 65.8088 97.3782 66.7188 96.7832L118.554 62.8332C124.434 58.8082 130.594 62.8332 130.594 62.8332L156.214 79.8082V94.2982ZM212.074 181.623V108.193C212.074 104.798 211.164 87.8232 195.414 77.3232L179.979 67.1382V44.0032C179.979 40.2932 176.899 37.5282 173.504 37.5282H163.319C159.609 37.5282 156.844 40.2932 156.844 44.0032V51.7032L143.894 43.0582C134.339 36.8982 119.219 34.4132 105.954 43.0582L54.0838 77.0432C51.0038 78.8632 37.4238 89.0482 37.4238 107.878V181.343C37.4238 188.448 38.9638 194.293 42.3588 199.228C44.8438 203.253 48.5188 206.333 52.8588 208.468C60.5588 212.178 67.9788 212.493 68.2938 212.493H181.554C181.869 212.493 189.254 212.493 196.989 208.468C201.609 206.298 205.004 203.218 207.804 199.228C210.534 194.608 212.074 188.728 212.074 181.623Z" fill="#38A6FA"/>
</svg>
