<svg width="250" height="250" viewBox="0 0 250 250" fill="none" xmlns="http://www.w3.org/2000/svg">
<rect width="250" height="250" rx="125" fill="white"/>
<g clip-path="url(#clip0_242_94372)">
<path d="M150.587 76.2398H74.8196V227C37.2285 208.463 11.3643 169.762 11.3643 125.015C11.3643 62.2473 62.2477 11.3638 125.015 11.3638C133.621 11.3588 142.2 12.3281 150.587 14.2533V76.2398ZM175.685 23.2653V174.264H99.9174V235.88C108.154 237.735 116.572 238.67 125.015 238.666C187.783 238.666 238.667 187.783 238.667 125.015C238.667 80.456 213.019 41.8932 175.685 23.2653ZM150.587 149.166V101.338H99.9174V149.166H150.587Z" fill="#00D5FF"/>
</g>
<defs>
<clipPath id="clip0_242_94372">
<rect width="227.302" height="227.302" fill="white" transform="translate(11.3643 11.3638)"/>
</clipPath>
</defs>
</svg>
