<svg width="250" height="250" viewBox="0 0 250 250" fill="none" xmlns="http://www.w3.org/2000/svg">
<g clip-path="url(#clip0_242_93762)">
<path d="M52.85 169.4V196.75H80.25V189.9H117.9V249.95C54.8 246.55 3.4 194.8 0 131.8H60.2V168.9L52.85 169.4Z" fill="#005CC7"/>
<path d="M169.3 189.899V196.749H196.7V169.399H189.85V132.299H250C246.6 195.299 194.7 246.549 131.6 249.949V189.899H169.3Z" fill="#005CC7"/>
<path d="M117.9 61.4985H169.75V53.1985H197.15V83.4985H169.75V75.1985H117.9V131.849L176.6 132.349V169.449H169.75V176.299H80.25V169.449H73.9V80.5485H80.75V53.1985H53.35V80.5485H60.2V117.649H0C3.4 54.6985 55.3 3.39854 117.9 -0.00146484V61.4985Z" fill="#005CC7"/>
</g>
<defs>
<clipPath id="clip0_242_93762">
<rect width="250" height="250" rx="125" fill="white"/>
</clipPath>
</defs>
</svg>
