<svg width="250" height="250" viewBox="0 0 250 250" fill="none" xmlns="http://www.w3.org/2000/svg">
<rect width="250" height="250" rx="125" fill="white"/>
<g clip-path="url(#clip0_242_94382)">
<path d="M125.015 234.733C185.611 234.733 234.734 185.61 234.734 125.014C234.734 64.4182 185.611 15.2954 125.015 15.2954C64.4187 15.2954 15.2959 64.4182 15.2959 125.014C15.2959 185.61 64.4187 234.733 125.015 234.733Z" fill="white"/>
<path d="M125.015 11.3638C62.2573 11.3638 11.3643 62.2568 11.3643 125.015C11.3643 187.773 62.2573 238.666 125.015 238.666C187.774 238.666 238.667 187.773 238.667 125.015C238.667 62.2568 187.774 11.3638 125.015 11.3638ZM125.015 232.074C65.8941 232.074 17.956 184.136 17.956 125.015C17.956 65.8936 65.8941 17.9555 125.015 17.9555C184.137 17.9555 232.075 65.8936 232.075 125.015C232.075 184.136 184.137 232.074 125.015 232.074Z" fill="url(#paint0_linear_242_94382)"/>
<path d="M125.015 11.3638C62.2573 11.3638 11.3643 62.2568 11.3643 125.015C11.3643 187.773 62.2573 238.666 125.015 238.666C187.774 238.666 238.667 187.773 238.667 125.015C238.667 62.2568 187.774 11.3638 125.015 11.3638ZM125.015 232.074C65.8941 232.074 17.956 184.136 17.956 125.015C17.956 65.8936 65.8941 17.9555 125.015 17.9555C184.137 17.9555 232.075 65.8936 232.075 125.015C232.075 184.136 184.137 232.074 125.015 232.074Z" fill="url(#paint1_linear_242_94382)"/>
<path d="M125.015 11.3638C62.2573 11.3638 11.3643 62.2568 11.3643 125.015C11.3643 187.773 62.2573 238.666 125.015 238.666C187.774 238.666 238.667 187.773 238.667 125.015C238.667 62.2568 187.774 11.3638 125.015 11.3638ZM125.015 232.074C65.8941 232.074 17.956 184.136 17.956 125.015C17.956 65.8936 65.8941 17.9555 125.015 17.9555C184.137 17.9555 232.075 65.8936 232.075 125.015C232.075 184.136 184.137 232.074 125.015 232.074Z" fill="url(#paint2_linear_242_94382)"/>
<path d="M125.015 23.252C68.8034 23.252 23.252 68.8034 23.252 125.015C23.252 181.227 68.8034 226.779 125.015 226.779C181.227 226.779 226.779 181.204 226.779 125.015C226.779 68.8261 181.227 23.252 125.015 23.252ZM125.015 188.569C89.9198 188.569 61.4615 160.111 61.4615 125.015C61.4615 89.9198 89.9198 61.4615 125.015 61.4615C160.111 61.4615 188.569 89.9198 188.569 125.015C188.569 160.111 160.111 188.569 125.015 188.569Z" fill="url(#paint3_linear_242_94382)"/>
<path d="M125.015 23.252C68.8034 23.252 23.252 68.8034 23.252 125.015C23.252 181.227 68.8034 226.779 125.015 226.779C181.227 226.779 226.779 181.204 226.779 125.015C226.779 68.8261 181.227 23.252 125.015 23.252ZM125.015 188.569C89.9198 188.569 61.4615 160.111 61.4615 125.015C61.4615 89.9198 89.9198 61.4615 125.015 61.4615C160.111 61.4615 188.569 89.9198 188.569 125.015C188.569 160.111 160.111 188.569 125.015 188.569Z" fill="url(#paint4_linear_242_94382)"/>
<path d="M125.015 23.252C68.8034 23.252 23.252 68.8034 23.252 125.015C23.252 181.227 68.8034 226.779 125.015 226.779C181.227 226.779 226.779 181.204 226.779 125.015C226.779 68.8261 181.227 23.252 125.015 23.252ZM125.015 188.569C89.9198 188.569 61.4615 160.111 61.4615 125.015C61.4615 89.9198 89.9198 61.4615 125.015 61.4615C160.111 61.4615 188.569 89.9198 188.569 125.015C188.569 160.111 160.111 188.569 125.015 188.569Z" fill="url(#paint5_linear_242_94382)"/>
<path d="M125.015 11.3638C62.2573 11.3638 11.3643 62.2568 11.3643 125.015C11.3643 187.773 62.2573 238.666 125.015 238.666C187.774 238.666 238.667 187.773 238.667 125.015C238.667 62.2568 187.774 11.3638 125.015 11.3638ZM125.015 232.074C65.8941 232.074 17.956 184.136 17.956 125.015C17.956 65.8936 65.8941 17.9555 125.015 17.9555C184.137 17.9555 232.075 65.8936 232.075 125.015C232.075 184.136 184.137 232.074 125.015 232.074Z" fill="#193451"/>
<path d="M125.015 23.252C68.8034 23.252 23.252 68.8034 23.252 125.015C23.252 181.227 68.8034 226.779 125.015 226.779C181.227 226.779 226.779 181.204 226.779 125.015C226.779 68.8261 181.227 23.252 125.015 23.252ZM125.015 188.569C89.9198 188.569 61.4615 160.111 61.4615 125.015C61.4615 89.9198 89.9198 61.4615 125.015 61.4615C160.111 61.4615 188.569 89.9198 188.569 125.015C188.569 160.111 160.111 188.569 125.015 188.569Z" fill="url(#paint6_linear_242_94382)"/>
<path d="M125.016 183.409C157.266 183.409 183.41 157.265 183.41 125.015C183.41 92.7645 157.266 66.6206 125.016 66.6206C92.766 66.6206 66.6221 92.7645 66.6221 125.015C66.6221 157.265 92.766 183.409 125.016 183.409Z" fill="#124F83"/>
<path d="M177.475 151.449C147.835 128.583 133.606 95.2147 133.606 65.9155L126.446 65.3245V65.0972L125.014 65.2108L123.582 65.0972V65.3245L116.422 65.9155C116.422 95.2375 102.193 128.605 72.5297 151.449L72.416 154.677L81.2581 169.065L96.1919 178.839L105.761 181.59C103.92 178.839 100.465 172.839 100.465 166.724C100.465 151.859 114.353 143.653 124.65 143.653H125.355C135.629 143.653 149.54 151.859 149.54 166.724C149.54 172.702 146.244 178.567 144.38 181.408L153.813 178.862L168.747 169.088L177.589 154.7L177.475 151.449Z" fill="white"/>
<path d="M130.788 66.9168C128.901 66.735 126.969 66.644 125.014 66.644C123.06 66.644 121.15 66.735 119.241 66.9168C119.014 90.7836 112.467 109.741 104.466 124.038H145.563C137.539 109.741 130.993 90.7836 130.788 66.9168ZM146.608 125.879H103.421C93.033 143.654 80.5768 153.86 76.2354 157.11C80.8269 164.066 86.8504 169.976 93.8968 174.431C90.3281 157.451 105.194 140.608 123.673 140.608H126.356C144.835 140.608 159.701 157.429 156.132 174.431C163.179 169.976 169.202 164.066 173.794 157.11C169.452 153.86 156.996 143.654 146.608 125.879Z" fill="url(#paint7_linear_242_94382)"/>
<path d="M125.104 170.316C125.627 170.316 125.604 169.384 125.604 169.384C125.604 168.065 127.195 165.588 127.195 165.588C128.764 163.247 129.105 161.564 129.105 160.61C129.105 158.382 126.309 152.268 125.923 151.472C125.536 150.677 125.104 150.722 125.104 150.722H124.922C124.922 150.722 124.491 150.677 124.104 151.472C123.718 152.268 120.922 158.382 120.922 160.61C120.922 161.564 121.263 163.247 122.831 165.61C122.831 165.61 124.422 168.088 124.422 169.406C124.422 169.406 124.4 170.338 124.922 170.338L125.104 170.316Z" fill="#BAA05A"/>
<path d="M111.264 167.362C111.264 165.68 112.673 162.884 115.809 162.793C119.514 162.702 122.583 168.225 122.583 168.225C122.583 168.225 123.628 169.93 123.105 170.203C122.583 170.475 121.56 169.203 121.56 169.203C121.56 169.203 119.014 165.93 117.446 165.93C115.878 165.93 115.673 167.43 115.673 167.43C115.673 167.43 115.559 168.43 116.719 168.657C117.878 168.884 117.605 169.634 117.605 169.634C117.605 169.634 117.219 171.316 115.059 171.316C112.9 171.316 111.264 168.884 111.264 167.362Z" fill="#BAA05A"/>
<path d="M138.765 167.362C138.765 165.68 137.356 162.884 134.22 162.793C130.515 162.702 127.446 168.225 127.446 168.225C127.446 168.225 126.401 169.93 126.924 170.203C127.446 170.475 128.469 169.203 128.469 169.203C128.469 169.203 131.015 165.93 132.583 165.93C134.151 165.93 134.356 167.43 134.356 167.43C134.356 167.43 134.47 168.43 133.311 168.657C132.151 168.884 132.424 169.634 132.424 169.634C132.424 169.634 132.81 171.316 134.97 171.316C137.129 171.316 138.765 168.884 138.765 167.362Z" fill="#BAA05A"/>
<path d="M126.764 174.315C126.719 173.724 125.764 172.043 125.196 171.633C125.15 171.588 125.082 171.542 125.014 171.542C125.014 171.542 125.014 171.542 124.991 171.542C124.969 171.542 124.991 171.542 124.969 171.542C124.9 171.542 124.832 171.588 124.787 171.633C124.241 172.043 123.264 173.724 123.241 174.315V174.338C123.241 174.975 124.559 176.656 124.969 176.656C124.969 176.656 124.969 176.656 124.991 176.656C125.014 176.656 124.991 176.656 125.014 176.656C125.446 176.656 126.741 174.952 126.741 174.338C126.764 174.338 126.764 174.338 126.764 174.315Z" fill="#BAA05A"/>
<path d="M173.203 49.1641C169.68 52.4827 171.68 57.597 174.749 60.8247L177.727 63.9615C180.772 67.1665 183.409 70.3487 180.977 72.349C178.363 74.5083 171.112 69.1213 166.748 59.87L162.838 62.825C163.77 65.2571 165.884 68.7803 168.725 71.758C171.93 75.1448 175.431 77.3496 178.568 77.9633C181.022 78.4407 183.477 78.077 185.091 76.5768C189.114 72.8263 187.66 67.371 181.318 60.7111L178.659 57.9152C175.749 54.8467 176.931 53.0964 178.068 52.8237C182.091 51.8917 189.501 59.2336 190.91 64.2115C192.092 63.325 194.706 61.393 194.706 61.393C192.251 54.4148 184.046 47.4139 177.772 47.4139C176.067 47.4139 174.476 47.9594 173.203 49.1641ZM59.8703 60.6429L67.2121 52.5964C68.8487 50.778 71.6673 50.6416 73.4857 52.2781C75.3041 53.9147 75.4405 56.7333 73.8039 58.5517L73.7812 58.5744L66.462 66.6209L59.8703 60.6429ZM63.8935 49.1186L52.6875 61.4612L72.2128 79.259C73.4402 77.9179 74.7131 76.645 76.0542 75.3948L69.9625 69.8259L77.5089 61.5066C80.9185 57.7561 80.9412 51.7326 77.168 48.3004C75.4859 46.8002 73.3038 45.9591 71.0535 45.9819C68.3259 46.0046 65.7347 47.1184 63.8935 49.1186ZM149.359 60.4838C151.109 61.1429 152.814 61.8476 154.519 62.6204L164.861 37.7535C163.157 37.0034 161.452 36.2988 159.701 35.6396L149.359 60.4838ZM94.1929 39.9129L101.762 48.5958C99.0345 49.3914 96.3523 50.3233 93.7156 51.4144L94.1929 39.9129ZM89.6923 35.9806L87.6921 66.4846C89.5105 65.3708 91.3516 64.3479 93.261 63.416L93.5565 56.3014C97.2615 54.6648 101.103 53.3237 105.035 52.3009L109.718 57.6879C111.786 57.2333 113.877 56.8924 115.991 56.6196L95.3749 33.9803C93.4428 34.594 91.5562 35.2532 89.6923 35.9806ZM124.72 34.2758H134.721C137.176 34.2758 139.176 36.2533 139.176 38.7082C139.176 41.1631 137.199 43.1633 134.744 43.1633H124.742V34.2758H124.72ZM119.264 29.5024V56.2787C121.06 56.1423 122.879 56.0514 124.697 56.0514V47.9139H131.516L137.403 57.2106C139.722 57.6425 142.017 58.1653 144.268 58.8017L137.221 47.573C141.267 46.5047 144.586 42.936 144.586 38.7082C144.586 33.6393 139.79 29.5024 134.698 29.5024H119.264Z" fill="white"/>
<path d="M69.9149 186.203L73.347 184.544L72.3014 188.295L69.9149 186.203ZM63.96 187.431L65.0964 188.499L68.4603 186.863L71.8469 189.817L70.7559 193.454L72.0287 194.431L75.0971 183.658L73.8924 182.612L63.96 187.431Z" fill="white"/>
<path d="M75.1221 196.706L76.3267 197.501L81.8952 188.842L80.7134 188.023L75.1221 196.706Z" fill="white"/>
<path d="M80.3506 200.069L81.5779 200.819L85.1691 193.841L85.1918 193.864L86.9192 203.66L88.192 204.251L92.806 195.205L91.5331 194.5L88.0329 201.387L88.0102 201.364L86.2828 191.682L85.01 191L80.3506 200.069Z" fill="white"/>
<path d="M95.0791 197.774L98.3748 198.956L95.5337 207.275L96.8974 207.775L99.7158 199.433L103.011 200.615L103.489 199.229L95.5337 196.388L95.0791 197.774Z" fill="white"/>
<path d="M120.06 207.184C120.015 210.661 122.742 212.571 125.401 212.616C127.902 212.661 129.879 211.457 129.902 209.638L129.947 206.934L125.379 206.866L125.356 208.343L128.493 208.388L128.47 209.525C128.47 210.389 127.22 211.184 125.492 211.161C122.969 211.116 121.469 209.298 121.492 207.297C121.515 205.161 123.083 203.411 125.72 203.456C127.515 203.479 128.288 204.434 128.765 204.934L129.788 203.911C129.22 203.32 127.992 202.024 125.606 202.002H125.492C122.356 201.979 120.106 204.32 120.06 207.184Z" fill="white"/>
<path d="M132.832 201.867L134.241 211.959L142.56 210.754L142.355 209.3L135.446 210.3L135.014 207.231L138.378 206.731L138.173 205.277L134.809 205.754L134.446 203.118L141.105 202.14L140.901 200.686L132.832 201.867Z" fill="white"/>
<path d="M146.11 200.82L150.36 199.501C151.156 199.251 152.065 199.274 152.383 200.388C152.656 201.342 152.247 202.07 151.201 202.388L146.951 203.706L146.11 200.82ZM149.951 198.115L144.337 199.842L147.201 209.616L148.564 209.207L147.36 205.115L150.906 204.024L153.997 207.502L155.497 206.956L152.383 203.524C153.156 203.206 154.36 202.115 153.724 200.001C153.292 198.524 152.247 197.956 151.087 197.956C150.724 197.933 150.315 197.978 149.951 198.115Z" fill="white"/>
<path d="M171.838 188.545L175.134 190.5L172.588 192.363L171.838 188.545ZM170.179 187.5L172.27 198.478L173.543 197.637L172.838 193.932L176.452 191.295L179.543 193.227L180.793 192.204L171.452 186.545L170.179 187.5Z" fill="white"/>
<path d="M176.656 182.499L183.429 189.954L184.52 188.977L177.702 181.499L176.656 182.499Z" fill="white"/>
<path d="M185.636 172.952L191.273 178.134L191.25 178.157L181.659 177.498L180.704 178.589L188.136 185.43L189.136 184.385L183.432 179.135L183.454 179.112L193.137 179.794L194 178.68L186.591 171.861L185.636 172.952Z" fill="white"/>
<path d="M163.519 191.864L163.292 199.115L157.451 195.046L156.178 195.705L160.542 204.888L161.837 204.297L158.814 197.774L158.837 197.751L164.633 201.774L164.837 194.614L164.883 194.592L168.269 200.933L169.497 200.228L164.792 191.205L163.519 191.864Z" fill="white"/>
<path d="M125.356 208.319L128.493 208.365L128.47 209.501C128.47 210.365 127.22 211.16 125.492 211.138C122.969 211.092 121.469 209.274 121.492 207.274C121.515 205.137 123.083 203.387 125.72 203.433C127.515 203.455 128.288 204.41 128.765 204.91L129.788 203.887C129.22 203.296 127.992 202.001 125.606 201.978H125.492C122.356 201.978 120.106 204.319 120.06 207.183C120.015 210.66 122.742 212.57 125.401 212.615C127.902 212.661 129.879 211.456 129.902 209.638L129.947 206.933L125.379 206.865L125.356 208.319Z" fill="white"/>
<path d="M135.446 210.3L135.014 207.231L138.378 206.731L138.173 205.277L134.809 205.754L134.446 203.118L141.105 202.14L140.901 200.686L132.832 201.867L134.241 211.959L142.56 210.754L142.355 209.3L135.446 210.3Z" fill="white"/>
<path d="M153.746 199.978C153.314 198.501 152.269 197.933 151.109 197.933C150.7 197.933 150.314 198.001 149.927 198.114L144.313 199.842L147.177 209.615L148.541 209.206L147.336 205.115L150.882 204.024L153.973 207.501L155.473 206.956L152.359 203.524C153.178 203.183 154.382 202.092 153.746 199.978ZM151.2 202.387L146.95 203.706L146.109 200.819L150.359 199.501C151.155 199.251 152.064 199.274 152.382 200.387C152.655 201.342 152.223 202.069 151.2 202.387Z" fill="white"/>
<path d="M173.565 197.66L172.861 193.955L176.475 191.319L179.566 193.251L180.816 192.228L171.474 186.568L170.179 187.5L172.27 198.478L173.565 197.66ZM175.134 190.5L172.588 192.364L171.861 188.546L175.134 190.5Z" fill="white"/>
<path d="M177.702 181.499L176.656 182.499L183.429 189.954L184.52 188.977L177.702 181.499Z" fill="white"/>
<path d="M188.136 185.43L189.136 184.385L183.432 179.135L183.454 179.112L193.137 179.794L194 178.703V178.68L186.591 171.861L185.636 172.952L191.273 178.134L191.25 178.157L181.659 177.498L180.704 178.589L188.136 185.43Z" fill="white"/>
<path d="M163.519 191.864L163.292 199.115L157.451 195.046L156.178 195.705L160.542 204.888L161.837 204.297L158.814 197.774L158.837 197.751L164.633 201.774L164.837 194.614L164.883 194.592L168.269 200.933L169.497 200.228L164.792 191.205L163.519 191.864Z" fill="white"/>
<path d="M60.6871 172.339C60.2325 172.68 59.9371 173.18 59.8461 173.748C59.7098 174.657 60.0734 175.816 60.8008 176.816L61.869 178.271C62.6872 179.385 63.4827 180.566 63.3236 181.498C63.2555 181.862 63.0282 182.203 62.71 182.407C62.5281 182.521 62.3009 182.589 62.0736 182.589C60.6417 182.589 58.1869 179.953 57.005 176.18L56.9823 176.112L55.9368 177.112L55.9141 177.134V177.157C56.3005 178.566 56.9596 179.885 57.8233 181.066C58.937 182.589 60.1871 183.635 61.369 184.021C61.7326 184.135 62.0963 184.203 62.4827 184.203C62.96 184.226 63.4146 184.067 63.8009 183.794C64.3464 183.408 64.7101 182.817 64.8237 182.157C65.0056 180.953 64.3692 179.362 62.96 177.43L62.0281 176.134C61.2781 175.112 61.3008 174.43 61.4599 174.066C61.5963 173.748 61.8917 173.521 62.2327 173.452C62.2781 173.452 62.3463 173.452 62.3918 173.452C64.0964 173.452 66.5284 176.362 67.1421 178.612L67.1648 178.68L67.2103 178.657C67.5739 178.453 67.983 178.203 68.2331 178.066L68.2558 178.044V178.021C67.4376 174.907 64.3692 171.861 62.0281 171.861C61.5735 171.861 61.0962 172.043 60.6871 172.339Z" fill="white"/>
<path d="M108.534 206.479L112.08 207.275L112.398 205.82L108.852 205.002L108.534 206.479Z" fill="white"/>
<path d="M108.852 205.002L108.534 206.479L112.08 207.275L112.398 205.82L108.852 205.002Z" fill="white"/>
</g>
<defs>
<linearGradient id="paint0_linear_242_94382" x1="11.3643" y1="125.015" x2="238.667" y2="125.015" gradientUnits="userSpaceOnUse">
<stop stop-color="#276EAA"/>
<stop offset="1" stop-color="#002F61"/>
</linearGradient>
<linearGradient id="paint1_linear_242_94382" x1="11.3643" y1="125.015" x2="238.667" y2="125.015" gradientUnits="userSpaceOnUse">
<stop stop-color="#276EAA"/>
<stop offset="1" stop-color="#002F61"/>
</linearGradient>
<linearGradient id="paint2_linear_242_94382" x1="11.3643" y1="125.015" x2="238.667" y2="125.015" gradientUnits="userSpaceOnUse">
<stop stop-color="#276EAA"/>
<stop offset="1" stop-color="#002F61"/>
</linearGradient>
<linearGradient id="paint3_linear_242_94382" x1="11.364" y1="125.015" x2="238.666" y2="125.015" gradientUnits="userSpaceOnUse">
<stop stop-color="#276EAA"/>
<stop offset="1" stop-color="#002F61"/>
</linearGradient>
<linearGradient id="paint4_linear_242_94382" x1="11.364" y1="125.015" x2="238.666" y2="125.015" gradientUnits="userSpaceOnUse">
<stop stop-color="#276EAA"/>
<stop offset="1" stop-color="#002F61"/>
</linearGradient>
<linearGradient id="paint5_linear_242_94382" x1="11.364" y1="125.015" x2="238.666" y2="125.015" gradientUnits="userSpaceOnUse">
<stop stop-color="#276EAA"/>
<stop offset="1" stop-color="#002F61"/>
</linearGradient>
<linearGradient id="paint6_linear_242_94382" x1="23.2547" y1="125.015" x2="226.776" y2="125.015" gradientUnits="userSpaceOnUse">
<stop stop-color="#276EAA"/>
<stop offset="1" stop-color="#002F61"/>
</linearGradient>
<linearGradient id="paint7_linear_242_94382" x1="81.2103" y1="108.151" x2="171.727" y2="144.545" gradientUnits="userSpaceOnUse">
<stop stop-color="#F2636E"/>
<stop offset="1" stop-color="#A3262B"/>
</linearGradient>
<clipPath id="clip0_242_94382">
<rect width="227.302" height="227.302" fill="white" transform="translate(11.3643 11.3638)"/>
</clipPath>
</defs>
</svg>
