<svg width="250" height="250" viewBox="0 0 250 250" fill="none" xmlns="http://www.w3.org/2000/svg">
<path d="M117.094 186.314C122.559 183.028 127.883 183.243 133.129 186.714C147.28 179.042 161.379 171.399 175.53 163.727C175.46 157.591 178.065 153.049 183.453 150.173C183.453 133.728 183.453 117.34 183.453 101.373C181.58 99.6483 179.804 98.2578 178.331 96.5981C176.292 94.3 175.438 91.4713 175.6 88.3944C175.65 87.4505 175.372 86.9136 174.519 86.4624C170.226 84.192 135.986 65.1478 133.012 63.507C127.603 66.9818 122.137 67.0322 116.67 63.5185C114.496 64.7407 78.8159 84.7551 75.6494 86.4831C75.0362 86.8177 74.5896 87.1691 74.5994 87.986C74.6691 93.7575 72.0157 97.926 67.0261 100.693C66.926 100.749 66.8424 100.834 66.6807 100.961C66.6807 117.296 66.6807 133.68 66.6807 150.151C68.8132 151.317 70.7505 152.768 72.1872 154.833C74.2487 157.795 74.8952 161.033 74.4349 164.585C74.142 166.846 73.3748 168.871 72.0161 170.682C68.6316 175.191 64.0935 176.853 58.5792 176.133C55.747 175.763 53.1084 174.659 51.1645 172.729C49.6906 171.265 48.6812 169.128 48.0012 167.11C46.2347 161.869 47.3943 157.096 51.1946 153.085C52.3247 151.892 53.8129 151.039 55.2987 149.907C55.2987 133.777 55.2987 117.433 55.2987 101.004C54.5385 100.516 53.7307 100.057 52.9859 99.5108C47.1524 95.232 45.6719 87.8757 49.0197 81.2513C51.1312 77.0726 54.8472 75.6152 58.9863 74.8228C62.1597 74.2156 65.1876 74.9299 67.9288 76.6554C68.7166 77.1514 69.3837 77.1951 70.1901 76.7352C76.5773 73.0935 110.062 54.2285 111.078 53.6394C110.947 48.8014 112.538 44.7081 116.332 41.681C118.87 39.6566 121.827 38.6769 125.116 38.7186C131.214 38.7956 138.792 43.6924 138.606 53.6174C139.691 54.239 140.828 54.9036 141.977 55.5462C147.171 58.4519 176.967 75.1221 179.83 76.7632C180.561 77.1822 181.193 77.3295 181.987 76.8294C186.608 73.9191 191.273 74.2695 196.123 76.4146C202.631 79.293 204.726 89.8182 200.921 95.2548C200.125 96.3919 199.271 97.521 198.271 98.4727C197.268 99.4264 196.05 100.153 194.789 101.081C194.789 117.314 194.789 133.695 194.789 150.169C198.89 152.238 201.657 155.447 202.581 160.026C203.295 163.561 202.523 166.858 200.864 170.052C198.901 173.831 195.508 175.329 191.668 176.033C187.806 176.741 184.144 176.055 180.946 173.532C166.774 181.243 152.677 188.914 138.537 196.608C138.602 201.372 137.06 205.41 133.334 208.38C130.479 210.656 127.146 211.613 123.497 211.269C116.824 210.641 110.514 204.863 111.166 195.906C107.75 193.812 104.249 191.666 100.808 189.557C94.7573 191.752 88.7107 190.395 86.3286 186.332C83.4194 181.37 83.3536 175.021 89.7751 170.129C89.7751 152.244 89.7751 134.338 89.7751 116.479C83.5993 112.109 83.1601 105.552 86.3353 100.178C87.8658 97.5872 90.4926 96.6334 93.2061 95.9891C96.0037 95.3244 98.6903 95.8778 101.24 97.2907C104.138 95.722 111.924 91.6354 112.852 91.0072C113.295 90.7072 113.731 90.1038 113.8 89.5883C114.4 85.1128 117.66 81.3888 122.126 80.2006C126.294 79.0914 131.082 80.7525 133.662 84.2788C134.773 85.7985 135.507 87.5037 135.811 89.3951C135.884 89.8567 136.213 90.458 136.6 90.6617C140.902 92.9245 145.239 95.1221 149.567 97.3338C149.632 97.3667 149.719 97.3562 149.796 97.3653C155.551 94.9506 161.88 95.8589 164.277 99.3596C167.694 104.348 168.229 110.944 161.972 116.082C162.068 117.466 162.855 128.556 163.125 132.634C163.203 133.808 163.399 134.835 164.223 135.831C168.074 140.491 167.39 146.124 164.013 150.436C163.038 151.681 161.242 152.387 159.702 153.062C157.141 154.184 154.487 154.095 151.836 153.171C151.359 153.005 150.664 153.062 150.209 153.293C145.663 155.595 141.137 157.938 136.635 160.326C136.241 160.535 135.874 161.114 135.804 161.569C134.996 166.848 130.607 170.9 125.408 171.099C119.924 171.308 115.194 167.743 113.995 162.495C113.951 162.306 113.858 162.106 113.884 161.926C114.183 159.916 112.888 159.039 111.388 158.198C109.733 157.27 108.159 156.198 106.506 155.162C106.705 151.094 106.899 147.119 107.108 142.83C108.045 143.323 115.672 147.764 118.878 149.603C119.295 149.842 119.962 150.016 120.364 149.853C123.726 148.486 126.979 148.7 130.183 150.32C130.354 150.407 130.54 150.463 130.83 150.576C133.475 149.214 142.187 144.734 143.808 143.809C144.178 143.597 144.595 143.088 144.613 142.697C144.844 137.964 147.106 134.623 151.357 132.59C151.459 132.541 151.546 132.458 151.813 132.268C151.464 127.218 151.107 122.065 150.742 116.8C147.171 114.804 145.068 111.754 144.613 107.478C140.035 105.135 135.408 102.767 130.806 100.411C126.885 102.51 123.035 102.655 119.083 100.515C114.952 102.744 110.821 104.974 106.647 107.226C106.285 111.119 104.542 114.188 101.198 116.346C101.198 134.245 101.198 152.155 101.198 170.132C104.574 172.42 106.521 175.574 106.63 179.889C110.067 182.001 113.537 184.13 117.094 186.314Z" fill="url(#paint0_linear_242_93763)"/>
<defs>
<linearGradient id="paint0_linear_242_93763" x1="50.3641" y1="79.5732" x2="199.838" y2="171.603" gradientUnits="userSpaceOnUse">
<stop stop-color="#DE3925"/>
<stop offset="1" stop-color="#F17F0B"/>
</linearGradient>
</defs>
</svg>
