<svg width="250" height="250" viewBox="0 0 250 250" fill="none" xmlns="http://www.w3.org/2000/svg">
<rect width="250" height="250" rx="125" fill="white"/>
<g clip-path="url(#clip0_242_94387)">
<path d="M125.017 238.666C187.601 238.666 238.335 187.783 238.335 125.015C238.335 62.2472 187.601 11.3638 125.017 11.3638C62.4322 11.3638 11.6992 62.2472 11.6992 125.015C11.6992 187.783 62.4331 238.666 125.017 238.666Z" fill="black"/>
<path d="M174.309 46.5947H75.7227V65.9154H174.309V46.5947Z" fill="#E50913"/>
<path d="M126.339 204.002C117.174 204.002 108.962 202.481 101.702 199.437C94.4416 196.395 88.6097 191.891 84.2062 185.928C79.9211 179.964 77.6599 172.782 77.4219 164.385H109.914C110.39 169.132 111.997 172.782 114.734 175.339C117.471 177.773 121.043 178.99 125.445 178.99C129.969 178.99 133.539 177.955 136.158 175.886C138.776 173.695 140.086 170.713 140.086 166.94C140.086 163.775 139.014 161.158 136.872 159.089C134.849 157.021 132.29 155.316 129.195 153.978C126.22 152.639 121.936 151.118 116.341 149.413C108.248 146.858 101.643 144.302 96.5246 141.746C91.4067 139.19 87.0031 135.417 83.3136 130.426C79.624 125.436 77.7792 118.925 77.7792 110.892C77.7792 98.9635 82.0043 89.653 90.4549 82.9589C98.9051 76.1426 109.914 72.7349 123.482 72.7349C137.289 72.7349 148.418 76.1426 156.868 82.9589C165.317 89.653 169.841 99.0249 170.436 111.074H137.408C137.17 106.936 135.682 103.711 132.944 101.398C130.207 98.9635 126.696 97.7465 122.412 97.7465C118.722 97.7465 115.746 98.7814 113.486 100.85C111.224 102.798 110.094 105.658 110.094 109.431C110.094 113.57 111.998 116.794 115.806 119.107C119.615 121.42 125.566 123.914 133.66 126.592C141.753 129.392 148.298 132.07 153.297 134.625C158.415 137.182 162.819 140.894 166.508 145.762C170.198 150.631 172.043 156.899 172.043 164.567C172.043 171.87 170.198 178.503 166.508 184.467C162.938 190.431 157.7 195.178 150.798 198.707C143.894 202.237 135.742 204.002 126.34 204.002L126.339 204.002Z" fill="white"/>
</g>
<defs>
<clipPath id="clip0_242_94387">
<rect width="227.302" height="227.302" fill="white" transform="translate(11.3652 11.3638)"/>
</clipPath>
</defs>
</svg>
