<svg width="250" height="250" viewBox="0 0 250 250" fill="none" xmlns="http://www.w3.org/2000/svg">
<g clip-path="url(#clip0_242_94268)">
<path fill-rule="evenodd" clip-rule="evenodd" d="M249.995 124.999C249.995 194.034 194.031 249.999 124.995 249.999C55.9592 249.999 -0.00488281 194.034 -0.00488281 124.999C-0.00488281 55.9626 55.9592 -0.00146484 124.995 -0.00146484C194.031 -0.00146484 249.995 55.9626 249.995 124.999Z" fill="url(#paint0_linear_242_94268)"/>
<path fill-rule="evenodd" clip-rule="evenodd" d="M124.996 231.815C66.0986 231.815 18.1815 183.898 18.1815 125.001C18.1815 66.1035 66.0986 18.1864 124.996 18.1864C183.893 18.1864 231.81 66.1035 231.81 125.001C231.81 183.898 183.893 231.815 124.996 231.815ZM124.996 11.2803C62.2906 11.2803 11.2754 62.2955 11.2754 125.001C11.2754 187.706 62.2906 238.72 124.996 238.72C187.701 238.72 238.716 187.706 238.716 125.001C238.716 62.2955 187.701 11.2803 124.996 11.2803Z" fill="#FFFFFE"/>
<path fill-rule="evenodd" clip-rule="evenodd" d="M124.995 238.718C62.29 238.718 11.2748 187.704 11.2748 124.999C11.2748 62.2927 62.29 11.2782 124.995 11.2782C187.7 11.2782 238.715 62.2927 238.715 124.999C238.715 187.704 187.7 238.718 124.995 238.718ZM124.995 -0.00146484C55.9592 -0.00146484 -0.00488281 55.9626 -0.00488281 124.999C-0.00488281 194.034 55.9592 249.999 124.995 249.999C194.031 249.999 249.995 194.034 249.995 124.999C249.995 55.9626 194.031 -0.00146484 124.995 -0.00146484Z" fill="#D6552B"/>
<path fill-rule="evenodd" clip-rule="evenodd" d="M77.2792 175.634L70.0665 181.837H128.312L122.029 177.351C116.877 173.673 113.82 167.733 113.82 161.403V37.4795H92.6404L91.0858 43.8151C89.7419 49.2951 86.6853 54.2033 82.3607 57.8269L68.3945 69.5278H84.0009V160.988C84.0009 166.617 81.5465 171.965 77.2792 175.634Z" fill="#FFFFFE"/>
<path fill-rule="evenodd" clip-rule="evenodd" d="M154.786 77.3402C159.887 77.5819 163.35 79.0398 163.35 82.4383C163.35 86.1068 159.244 87.825 154.616 87.941C153.434 87.9707 152.396 87.9252 151.501 87.8934C151.501 84.0978 151.304 80.6993 150.91 77.6979C153.738 77.4597 152.246 77.22 154.786 77.3402ZM152.145 104.02C151.751 99.1296 151.554 95.191 151.554 92.2048C152.271 92.2366 153.47 92.2525 155.153 92.2525C164.39 92.2525 165.499 91.3478 171.853 89.537C178.209 87.7269 181.387 84.9238 181.387 81.1282C181.387 78.3492 179.041 76.2767 174.351 74.9106C169.661 73.5446 163.914 72.8623 157.111 72.8623C154.354 72.8623 151.096 72.8858 147.336 72.9334C143.577 72.9811 141.035 73.0053 139.71 73.0053H130.365C130.831 77.1503 131.063 82.0812 131.063 87.7981C131.063 94.0232 130.831 99.4307 130.365 104.02H152.145Z" fill="#FFFFFE"/>
<path fill-rule="evenodd" clip-rule="evenodd" d="M177.615 116.716L177.936 111.608H130.914L130.547 116.74C138.07 116.487 139.808 116.36 144.12 116.36C144.242 119.417 144.304 122.751 144.304 126.363C144.304 132.112 144.105 137.505 143.708 142.542H164.913C164.577 137.458 164.408 132.064 164.408 126.363C164.408 122.688 164.438 119.354 164.5 116.36C169.913 116.36 171.498 116.479 177.615 116.716Z" fill="#FFFFFE"/>
<path fill-rule="evenodd" clip-rule="evenodd" d="M172.211 177.168C164.672 177.168 160.486 176.061 156.308 173.849C152.13 171.636 150.041 169.022 150.041 166.008C150.041 163.057 151.801 160.552 155.321 158.491C158.842 156.431 162.539 155.401 169.757 155.401C173.598 155.401 172.6 155.705 176.796 156.314L178.663 150.758C174.786 150.309 170.679 150.085 166.342 150.085C154.536 150.085 145.246 151.753 138.471 155.088C131.697 158.423 128.311 162.344 128.311 166.849C128.311 171.195 131.502 174.887 137.885 177.925C144.268 180.964 153.558 182.483 165.755 182.483C170.662 182.483 175.64 182.211 180.69 181.666L181.596 176.134C176.404 176.823 176.621 177.168 172.211 177.168Z" fill="#FFFFFE"/>
<path fill-rule="evenodd" clip-rule="evenodd" d="M129.073 199.302L124.755 186.014L120.438 199.302H106.466L117.769 207.514L113.452 220.802L124.755 212.59L136.058 220.802L131.741 207.514L143.044 199.302H129.073Z" fill="#FFFFFE"/>
</g>
<defs>
<linearGradient id="paint0_linear_242_94268" x1="124.995" y1="-0.00146484" x2="124.995" y2="249.999" gradientUnits="userSpaceOnUse">
<stop stop-color="#EBA019"/>
<stop offset="1" stop-color="#EB7912"/>
</linearGradient>
<clipPath id="clip0_242_94268">
<rect width="250" height="250" rx="125" fill="white"/>
</clipPath>
</defs>
</svg>
