<svg width="250" height="250" viewBox="0 0 250 250" fill="none" xmlns="http://www.w3.org/2000/svg">
<path d="M91.8285 77.126V88.8266C91.8285 96.2539 85.8256 102.206 78.4491 102.206H52.5552C44.2631 102.155 37.4971 108.972 37.4971 117.264V139.343C37.4971 147.635 44.2631 154.401 52.5552 154.401H78.4491C85.8764 154.401 91.8285 160.454 91.8285 167.78V193.674C91.8285 201.966 98.5944 208.732 106.887 208.732H128.965C137.257 208.732 144.023 201.966 144.023 193.674V167.78C144.023 160.353 150.026 154.401 157.403 154.401H169.103C126.574 154.401 91.8285 119.655 91.8285 77.126Z" fill="black"/>
<path d="M198.356 139.341V117.263C198.356 108.97 191.59 102.204 183.298 102.204H157.404C149.977 102.204 144.025 96.2015 144.025 88.8251V62.9312C144.025 54.639 137.259 47.873 128.967 47.873H106.888C98.5961 47.873 91.8301 54.639 91.8301 62.9312V77.1245C91.8301 119.654 126.627 154.399 169.105 154.399H183.298C191.59 154.399 198.356 147.633 198.356 139.341Z" fill="#DB0029"/>
<path d="M159.743 82.721C159.743 82.721 154.706 30.1701 212.497 42.9899C211.429 58.455 212.853 96.5073 159.743 82.721Z" fill="#DB0029"/>
</svg>
