<svg width="250" height="250" viewBox="0 0 250 250" fill="none" xmlns="http://www.w3.org/2000/svg">
<g clip-path="url(#clip0_242_94786)">
<path d="M125.002 249.999C194.038 249.999 250.002 194.034 250.002 124.999C250.002 55.9629 194.038 -0.00146484 125.002 -0.00146484C55.9664 -0.00146484 0.00195312 55.9629 0.00195312 124.999C0.00195312 194.034 55.9664 249.999 125.002 249.999Z" fill="#181818"/>
<path fill-rule="evenodd" clip-rule="evenodd" d="M59.4023 70.4002L69.6023 60.2002L119.302 109.9L109.202 120.1L59.4023 70.4002ZM130.703 110L180.403 60.2002L190.503 70.4002L140.803 120.1L130.703 110ZM59.4023 181.201L109.202 131.401L119.302 141.601L69.6023 191.301L59.4023 181.201ZM140.803 131.401L130.703 141.601L180.403 191.301L190.603 181.201L140.803 131.401ZM125.002 115.5L114.802 125.7L125.002 135.9L135.202 125.7L125.002 115.5Z" fill="#F6D30C"/>
</g>
<defs>
<clipPath id="clip0_242_94786">
<rect width="250" height="250" fill="white"/>
</clipPath>
</defs>
</svg>
