<svg width="250" height="250" viewBox="0 0 250 250" fill="none" xmlns="http://www.w3.org/2000/svg">
<rect width="250" height="250" rx="125" fill="#0188FD"/>
<path d="M232.687 71.5568C223.271 51.5925 197.113 55.4903 182.454 67.3149C177.13 70.8373 172.4 73.8779 178.906 79.296C184.55 83.225 188.222 88.3177 190.656 95.0371C192.739 100.343 191.257 107.312 185.407 108.676C143.82 103.821 109.867 120.532 93.6626 160.855C88.4072 167.799 80.449 171.422 72.1342 172.961C69.006 173.593 67.7047 169.614 65.3961 168.031C57.2627 160.492 53.4964 148.586 49.5736 138.626C48.1346 136.311 46.5079 140.152 45.4131 141.435C41.3339 146.527 36.823 151.802 34.7333 158.189C29.1901 171.096 23.3592 186.193 31.7303 198.95C35.9095 208.228 41.7906 217.2 52.7518 216.95C68.224 219.327 73.7672 208.028 85.0913 213.997C89.3519 215.824 93.794 217.031 98.2986 218.101C112.394 220.203 125.376 226.41 139.578 227.623C165.755 229.625 191.056 214.397 207.392 194.921C214.067 185.436 218.497 166.873 219.623 155.268C220.136 148.93 219.761 142.611 218.341 136.448C217.59 133.176 216.314 129.472 217.164 126.313C218.941 120.388 224.741 116.372 227.882 111.185C234.42 99.5167 239.419 83.7192 232.693 71.5505L232.687 71.5568ZM100.776 184.823C104.505 174.95 119.139 180.2 126.772 176.414C150.602 166.154 159.806 165.497 176.61 143.462C178.381 141.028 180.183 138.475 180.921 135.522C181.584 130.348 182.11 121.633 189.473 125.944C196.706 132.15 190.706 142.617 186.126 148.73C174.909 166.116 157.509 176.502 138.333 182.834C130.876 187.213 122.824 189.259 114.159 189.271C109.773 189.703 100.714 191.355 100.782 184.817L100.776 184.823Z" fill="#795933"/>
<path d="M127.054 138.682C135.681 144.495 141.944 140.246 140.962 130.174C140.111 125.131 149.383 114.239 142.082 116.209C134.712 118.168 128.343 122.653 121.711 126.307C119.515 127.74 115.986 129.216 114.973 131.644C114.685 133.877 119.74 134.328 122.074 135.711C123.813 136.543 125.433 137.613 127.048 138.682H127.054Z" fill="#795933"/>
<path d="M111.344 147.635C113.677 139.758 118.226 138.482 114.753 147.729C113.389 151.089 110.561 160.01 107.352 161.462C104.781 160.811 104.593 149.769 107.008 147.948C109.93 144.688 109.323 150.619 108.81 152.209C108.616 154.567 111.1 148.392 111.344 147.629V147.635Z" fill="#F8F7F5"/>
<path d="M187.278 87.6928C184.757 83.8139 180.89 80.8045 177.555 77.6388C169.147 67.1029 155.946 60.7151 143.183 60.077C139.078 59.5577 133.322 60.4461 129.318 58.9133C126.866 57.9686 125.564 55.1845 124.357 52.8195C110.249 27.8501 87.5004 36.509 67.7113 48.7278C47.6407 57.7934 11.7664 88.7252 45.2633 104.717C50.2309 108.477 50.8503 115.884 49.649 121.847C49.0296 125.2 48.1225 128.816 48.2601 132.232C48.4916 137.613 50.5625 136.574 51.6949 132.595C48.648 143.632 54.7918 153.204 60.285 162.476C72.5726 184.123 94.201 165.692 101.227 149.788C102.91 146.697 103.629 146.691 102.572 150.589C98.0049 163.746 111.994 173.162 123.049 165.767C136.332 155.563 130.082 135.135 112.026 139.44C104.411 139.947 122.023 127.096 123.825 126.282C133.817 119.319 145.191 115.221 156.947 112.418C173.827 109.515 203.82 115.496 187.265 87.6928H187.278Z" fill="#020201"/>
<path d="M99.725 155.819C101.746 158.772 102.321 163.552 105.6 165.885C110.411 170.14 119.258 169.395 124.15 165.379C134.073 156.551 131.689 136.055 115.56 138.044C102.991 139.195 126.334 125.106 128.455 123.492C144.621 113.006 164.961 108.908 183.98 111.605C190.356 113.319 194.641 119.413 196.512 125.469C198.107 132.927 198.495 140.866 197.719 148.461C196.681 167.368 194.71 188.221 174.958 196.886C171.042 198.488 167.194 200.246 163.516 202.335C157.115 205.263 149.069 204.613 142.144 203.974C137.57 203.161 133.41 200.959 128.755 200.452C116.298 199.77 100.77 198.901 96.7657 184.792C93.7564 176.59 93.4373 167.518 96.8033 159.441C97.2913 158.396 98.4299 155.249 99.7313 155.806L99.725 155.819Z" fill="#F7CAA0"/>
<path d="M68.5615 108.002C66.7721 108.984 64.5323 108.459 63.3749 106.776C58.839 100.206 58.0694 94.2002 54.1842 88.0876C49.8047 86.3796 88.2567 58.7888 96.5777 53.2268C97.8853 52.3509 99.5746 52.3384 100.907 53.183C105.262 55.9421 112.594 63.2121 115.341 65.0139C115.516 65.1266 115.672 65.2642 115.829 65.4081C118.006 67.4101 117.399 71.1265 116.336 73.6979C109.804 86.242 95.3077 90.2649 78.4716 101.921C78.3528 102.002 78.2276 102.077 78.1025 102.146C73.8169 104.417 71.0265 106.65 68.5615 108.002Z" fill="#FF0000"/>
<path d="M41.4024 180.119C41.4336 171.598 44.8809 154.831 54.4908 153.129C59.3896 156.101 60.4844 164.228 65.183 167.982C72.5155 174.326 66.5282 178.011 75.9816 183.566C87.4872 196.611 66.7596 206.039 55.3229 201.247C45.5816 198.913 40.808 189.554 41.3961 180.119H41.4024Z" fill="#F7CAA0"/>
<path d="M204.995 73.1652C229.539 72.3081 225.428 114.589 202.542 106.406C200.49 105.179 199.158 102.921 197.425 101.419C195.46 99.6111 192.926 98.5913 191.281 96.4203C189.335 92.8792 186.063 88.2244 185.688 84.433C187.352 78.9149 199.02 72.8524 204.995 73.1652Z" fill="#F7CAA0"/>
<path d="M76.9501 104.622C75.6988 103.69 75.3922 101.3 72.8208 102.014C73.1274 103.033 73.4152 103.984 73.728 105.01C72.2828 104.723 71.0378 104.479 69.4799 104.172C69.6488 104.435 69.5175 104.291 69.5425 104.26C71.1003 102.076 69.8553 100.456 68.4851 98.8415C68.1035 98.391 67.6843 97.9468 67.4028 97.4275C66.896 96.4891 66.2266 96.0887 65.1192 96.1012C63.3236 96.1199 62.9294 95.4568 63.3549 93.8238C63.48 93.3484 63.3424 92.6977 63.1046 92.2472C62.5978 91.29 61.9472 90.4078 61.2715 89.3693C62.6604 89.557 63.7741 89.7071 64.8814 89.8573V86.5163C67.3277 87.5236 67.897 88.1993 68.2724 90.6643C68.5727 92.6289 72.2828 94.7248 74.1409 93.8801C74.4225 93.755 74.6227 92.6977 74.41 92.3536C73.3714 90.7081 72.1201 89.1878 71.0503 87.5612C70.3934 86.5539 69.5863 85.4715 69.4361 84.3454C69.1108 81.8428 70.5936 80.3663 73.1462 80.3663C74.6102 80.3663 75.7989 80.2599 76.2556 78.4706C76.5372 77.382 77.3567 77.8574 77.8885 78.433C79.8593 80.5665 81.7738 82.75 83.7758 84.8521C84.1575 85.2463 85.1585 85.678 85.3337 85.5153C85.7904 85.0836 86.3347 84.1639 86.1533 83.751C85.4213 82.1243 84.4265 80.6103 83.5006 79.0774C83.3567 78.846 82.95 78.7771 82.7998 78.5457C82.4808 78.0451 82.2555 77.4946 81.9928 76.9628C82.6935 76.9941 83.5381 76.7813 84.0699 77.0942C86.0031 78.2266 87.8175 79.5529 89.7069 80.7667C90.0323 80.9731 90.5015 80.9669 90.9019 81.0607C90.7893 80.5978 90.8206 80.0097 90.5453 79.6968C89.3941 78.408 88.1929 77.1567 86.9353 75.968C85.2273 74.3476 85.1147 73.797 86.61 71.9326C87.2794 71.1005 88.0677 70.3435 88.8748 69.6428C89.8946 68.7543 91.6277 68.9483 92.5661 69.9618C93.9175 71.4196 94.4055 73.9159 93.3669 75.6552C92.4097 77.2506 92.6412 78.3642 94.0176 79.4841C94.5056 79.8783 94.8622 80.4851 95.1563 81.0545C96.0822 82.8438 95.6568 83.4444 93.686 83.5946C92.4723 83.6884 91.2523 83.9887 90.0948 84.3641C89.7695 84.4705 89.5443 85.1775 89.4567 85.6467C89.0625 87.7989 87.6298 88.5434 85.5902 88.0804C83.0188 87.4986 81.3859 85.8094 79.7717 83.9825C79.4276 83.5883 79.021 83.2129 78.5768 82.9502C77.4694 82.312 76.7499 82.4872 76.8938 83.9637C77.0439 85.4402 76.7061 86.7103 75.8114 87.9553C75.4423 88.4746 75.4173 89.6445 75.7614 90.1889C76.7249 91.7342 78.0012 93.0793 79.0648 94.5683C79.3776 95.0063 79.3963 95.6632 79.5465 96.2138C78.9083 96.1637 78.2452 96.2013 77.6383 96.0324C76.9563 95.8447 76.3307 95.463 75.68 95.1627C75.4736 95.9323 75.1545 96.6955 75.0857 97.4776C74.898 99.6799 75.2171 101.738 77.0564 103.296C77.3067 103.509 77.3067 104.016 77.4256 104.385C77.2629 104.453 77.1002 104.522 76.9376 104.585L76.9501 104.622ZM74.8667 85.4903C74.7916 83.7447 74.3224 82.6624 72.9022 82.581C72.5518 82.5623 71.7197 83.726 71.8323 83.9137C72.3892 84.8396 73.19 85.6154 73.9032 86.4413C74.2911 86.0534 74.6853 85.6655 74.8604 85.4903H74.8667ZM92.3847 73.7157C91.5213 72.8773 90.9457 72.3205 90.3701 71.7637C89.8258 72.3643 88.7622 73.065 88.8561 73.5405C88.9874 74.2225 89.8884 74.8856 90.6204 75.2485C90.8393 75.3611 91.5713 74.4477 92.3847 73.7157ZM71.9762 98.4849C70.9815 97.6715 70.0618 96.9208 69.1421 96.17C68.9669 96.4953 68.5665 96.9521 68.6603 97.1147C69.1296 97.9093 69.7051 98.6538 70.312 99.3545C70.4809 99.5422 70.9689 99.6298 71.2129 99.5297C71.4695 99.4171 71.6008 99.0229 71.9762 98.4911V98.4849Z" fill="white"/>
<path d="M97.4543 68.7361C98.2551 69.074 98.8682 69.4619 99.5251 69.5682C100.338 69.6996 101.189 69.6183 102.028 69.5933C103.786 69.5432 105.538 69.4994 106.595 71.295C107.79 73.3283 107.396 75.4368 106.082 77.0572C104.987 78.4086 103.273 79.2845 101.746 80.2292C101.452 80.4106 100.745 79.9164 100.232 79.7349C100.482 79.322 100.658 78.8215 101.002 78.5149C102.021 77.6203 103.36 76.9696 104.086 75.8997C104.662 75.0551 104.787 73.6599 104.562 72.6339C104.461 72.1834 103.004 71.8643 102.14 71.7893C100.601 71.6516 99.0371 71.7893 97.4918 71.7392C95.7025 71.6767 95.2958 70.8883 95.5523 68.1731C95.6774 66.8967 97.2478 65.4077 98.3114 65.708C98.618 65.7956 99.0059 66.6152 98.8932 66.9218C98.6805 67.4974 98.1237 67.9416 97.4605 68.7361H97.4543Z" fill="white"/>
<path d="M118.132 178.061C129.419 177.341 139.354 170.059 149.94 166.793C162.165 161.556 173.633 148.862 180.221 137.507C182.067 133.915 180.578 128.948 183.337 126.026C185.282 124.08 188.867 124.887 190.569 126.989C199.322 141.204 177.687 158.272 169.072 167.362C160.213 175.389 148.332 178.255 137.746 183.285C130.351 187.245 124.276 188.897 115.749 189.235C110.631 190.211 96.6727 190.911 102.06 182.227C105.444 178.474 112.946 178.173 118.126 178.061H118.132Z" fill="#020201"/>
<path d="M146.761 128.91C148.144 110.429 173.682 109.084 174.095 129.267C173.288 148.806 145.973 149.976 146.761 128.91Z" fill="#020201"/>
<path d="M108.29 153.917C108.259 154.086 107.902 154.605 108.159 154.624C109.898 153.66 110.411 151.321 110.642 149.481C110.549 145.346 108.44 153.323 108.284 153.911L108.29 153.917Z" fill="#020201"/>
<path d="M178.08 124.13C175.659 106.906 156.827 109.478 145.828 116.56C136.844 124.23 142.594 135.642 136.832 139.415C129.424 142.987 123.681 131.281 114.784 133.865C112.594 134.116 106.275 139.74 112.019 139.058C129.818 134.716 136.068 154.924 123.168 165.191C110.943 173.481 96.7405 162.151 102.546 148.774C103.447 144.983 101.796 147.542 100.451 150.082C87.4121 168.82 111.762 178.336 126.527 170.703C135.261 166.367 134.191 153.661 143.87 150.238C149.119 147.029 151.953 149.369 157.065 150.939C171.067 155.387 179.638 136.818 178.08 124.124V124.13ZM173.438 133.584C166.331 152.966 142.519 144.407 147.342 125C154.206 106.575 178.387 114.658 173.438 133.584Z" fill="#F8F7F5"/>
<path d="M109.805 132.157C109.041 138.37 103.442 140.353 100.045 134.353C95.0582 127.634 90.2971 120.765 85.9739 113.607C80.7185 107.495 86.6183 97.6345 92.9373 102.752C96.7725 107.995 99.9632 114.471 103.598 120.001C105.563 123.761 109.73 128.291 109.798 132.157H109.805Z" fill="#2D2D2D"/>
<path d="M106.5 91.3526C108.784 91.9595 109.866 94.656 110.892 96.6393C113.801 104.372 129.574 120.22 115.96 124.95C111.618 123.917 102.44 104.723 99.3928 99.8676C96.74 95.2629 101.952 90.4955 106.5 91.3526Z" fill="#2D2D2D"/>
<path d="M153.98 103.528C152.829 106.531 146.641 108.089 143.957 106.356C142.011 105.18 140.779 102.177 139.402 99.6054C136.487 93.0299 124.675 77.9707 139.221 78.002C142.918 78.5588 144.007 82.3252 145.796 85.566C148.055 91.0529 154.124 97.8912 153.98 103.528Z" fill="#2D2D2D"/>
<path d="M166.111 103.228C159.511 102.07 158.791 93.7743 155.281 89.1758C152.259 84.6649 144.126 71.7955 155.851 74.2292C162.326 77.4325 165.029 89.3698 169.221 95.4573C171.379 99.2737 172.374 103.684 166.117 103.228H166.111Z" fill="#2D2D2D"/>
<path d="M61.9106 126.551C63.2494 119.225 68.9991 123.323 70.7884 128.034C75.4119 137.688 83.6203 145.383 87.8622 155.087C87.8434 168.914 74.4547 147.898 72.3775 144.52C69.3244 138.414 62.9366 133.371 61.9043 126.551H61.9106Z" fill="#2D2D2D"/>
<path d="M135.642 109.046C135.254 111.811 131.926 113.607 129.355 112.587C126.183 111.254 124.906 107.407 123.092 104.604C120.721 99.361 115.534 94.5623 115.334 88.6938C116.022 85.697 121.315 83.4384 123.88 84.9963C125.882 86.2538 126.983 89.2256 128.11 91.3841C130.287 97.0586 135.486 103.034 135.642 109.046Z" fill="#2D2D2D"/>
<path d="M76.093 113.031C77.8761 113.357 79.1962 115.596 80.216 117.129C85.6654 126.501 93.7862 134.622 97.1084 144.933C97.3086 151.001 91.4025 147.517 89.7508 144.351C87.2295 139.308 66.6396 115.59 76.0868 113.038L76.093 113.031Z" fill="#2D2D2D"/>
<path d="M187.522 95.6512C188.867 105.261 183.161 105.624 178.4 98.4416C175.966 94.3749 174.215 90.1768 171.893 86.0163C170.517 83.3135 168.177 78.5774 168.108 76.3376C168.008 72.3773 175.973 80.1728 177.18 80.9173C181.81 84.8026 186.771 89.4198 187.516 95.6512H187.522Z" fill="#2D2D2D"/>
<path d="M57.0367 136.217C58.4319 136.155 59.7082 138.307 60.5904 139.433C65.9647 147.854 72.0271 155.668 76.7382 164.29C77.1574 170.765 68.8614 165.773 67.4975 162.369C63.8375 155.318 53.3705 143.944 57.0367 136.211V136.217Z" fill="#2D2D2D"/>
<path d="M182.672 110.159C182.446 110.203 181.664 110.285 181.383 110.153C181.458 109.79 182.528 109.834 182.672 110.122V110.159Z" fill="#795933"/>
<path d="M70.068 171.316C69.3798 171.717 69.6551 170.603 70.0868 171.248L70.068 171.316Z" fill="#795933"/>
<path d="M110.524 148.111C110.661 147.911 110.524 147.942 110.518 148.111H110.524Z" fill="#020201"/>
<path d="M111.344 147.636C113.677 139.759 118.226 138.483 114.753 147.73C113.389 151.09 110.561 160.011 107.352 161.463C104.781 160.812 104.593 149.769 107.008 147.949C109.93 144.689 109.323 150.62 108.81 152.21C108.616 154.568 111.1 148.393 111.344 147.63V147.636Z" fill="#F8F7F5"/>
</svg>
