<svg width="250" height="250" viewBox="0 0 250 250" fill="none" xmlns="http://www.w3.org/2000/svg">
<path d="M22.1211 54.7578H83.9197L125.382 121.212L160.037 54.7578H227.062C227.062 54.7578 200.358 103.028 185.248 130.04C170.754 128.152 156.918 122.793 144.972 114.404C144.972 114.404 166.493 140.406 241.381 162.323C163.639 159.6 105.398 113.086 81.2844 88.3143C83.8758 100.92 89.8492 112.559 98.5897 121.959C58.5326 98.1089 22.1211 54.7578 22.1211 54.7578Z" fill="url(#paint0_linear_242_93764)"/>
<path d="M170.18 158.154L125.511 239.234C125.511 239.234 94.9408 184.946 80.2268 157.671C91.2952 163.688 103.242 167.86 115.584 170.144C85.9807 158.461 56.2453 133.382 24.9727 98.771C59.6712 125.3 89.1431 140.673 134.69 159.515C126.17 151.829 119.01 142.693 113.52 132.635C131.66 142.737 150.59 151.258 170.18 158.154Z" fill="url(#paint1_linear_242_93764)"/>
<defs>
<linearGradient id="paint0_linear_242_93764" x1="131.769" y1="54.7606" x2="131.769" y2="162.317" gradientUnits="userSpaceOnUse">
<stop stop-color="#7D0753"/>
<stop offset="1" stop-color="#F55D0E"/>
</linearGradient>
<linearGradient id="paint1_linear_242_93764" x1="97.5697" y1="98.7583" x2="97.5697" y2="239.239" gradientUnits="userSpaceOnUse">
<stop stop-color="#7D0753"/>
<stop offset="1" stop-color="#F55D0E"/>
</linearGradient>
</defs>
</svg>
