<svg width="250" height="250" viewBox="0 0 250 250" fill="none" xmlns="http://www.w3.org/2000/svg">
<rect width="250" height="250" rx="125" fill="#232332"/>
<path d="M146.92 110.99C146.921 113.751 146.378 116.486 145.323 119.038C144.267 121.59 142.718 123.908 140.766 125.862C138.814 127.815 136.497 129.365 133.946 130.423C131.395 131.48 128.66 132.025 125.899 132.026V153.063C131.422 153.061 136.891 151.971 141.993 149.855C147.095 147.74 151.73 144.64 155.634 140.734C159.538 136.827 162.634 132.189 164.746 127.086C166.858 121.982 167.944 116.513 167.942 110.99C167.945 103.608 166.005 96.3551 162.317 89.9604C158.629 83.5658 153.322 78.2545 146.931 74.5603C140.54 70.8661 133.289 68.9191 125.907 68.915C118.525 68.911 111.272 70.8499 104.877 74.537C98.4806 78.23 93.1699 83.543 89.4795 89.941C85.7891 96.339 83.8494 103.596 83.8555 110.982V216.164L102.756 235.094L104.877 237.208V110.997C104.803 108.19 105.292 105.396 106.315 102.78C107.338 100.165 108.874 97.7809 110.834 95.7689C112.793 93.757 115.135 92.1579 117.723 91.066C120.31 89.9741 123.09 89.4116 125.899 89.4116C128.707 89.4116 131.487 89.9741 134.075 91.066C136.662 92.1579 139.005 93.757 140.964 95.7689C142.923 97.7809 144.46 100.165 145.483 102.78C146.506 105.396 146.995 108.19 146.92 110.997V110.99Z" fill="#E6DAFE"/>
<path d="M125.905 26.792C110.584 26.792 96.2288 30.8947 83.8618 38.0615C75.9662 42.6286 68.8662 48.4499 62.8401 55.2972C49.2688 70.6547 41.7908 90.4502 41.8184 110.945V174.069L62.8401 195.098V110.945C62.83 102.065 64.6977 93.2825 68.3205 85.1748C71.9434 77.0671 77.2397 69.8171 83.8618 63.9003C95.416 53.5437 110.389 47.8201 125.905 47.8284C160.737 47.8284 188.977 76.0905 188.977 110.952C188.977 145.799 160.737 174.061 125.905 174.061V195.098C172.353 195.098 209.999 157.422 209.999 110.945C209.999 64.4675 172.353 26.792 125.905 26.792Z" fill="#E6DAFE"/>
</svg>
