<svg width="250" height="250" viewBox="0 0 250 250" fill="none" xmlns="http://www.w3.org/2000/svg">
<path d="M125 250C194.035 250 250 194.035 250 125C250 55.9646 194.035 0 125 0C55.9646 0 0 55.9646 0 125C0 194.035 55.9646 250 125 250Z" fill="#0071F3"/>
<path d="M144.855 50.0283H131.13H100.877C96.0065 50.0283 91.7268 53.5701 90.9888 58.4405L87.8898 78.3634V78.5113H73.1315C69.1471 78.5113 66.0477 81.7582 66.0477 85.5951C66.0477 89.5795 69.2945 92.679 73.1315 92.8264H85.6758L83.4622 106.551L83.3148 107.584H68.5565C64.5721 107.584 61.4727 110.831 61.4727 114.668C61.4727 118.505 64.7195 121.752 68.5565 121.752H81.1008L74.3122 164.698L72.0987 179.013L70.918 186.687C70.0326 192.738 74.6076 198.198 80.806 198.198H90.2508H103.238H113.864C118.734 198.198 122.866 194.657 123.751 189.786L130.098 150.383H133.787H145.593C173.486 150.383 196.213 127.36 195.771 99.3201C195.328 71.7228 172.305 50.0283 144.855 50.0283ZM100.139 92.8264L144.708 92.9738C148.692 92.9738 152.087 96.2207 152.087 100.353C152.087 104.338 148.84 107.732 144.708 107.732H97.7773L100.139 92.8264ZM145.003 135.92H137.476H133.935H126.408C121.538 135.92 117.405 139.462 116.52 144.332L110.174 183.883H85.9711L95.5638 121.9H144.708C156.662 121.9 166.254 112.159 166.254 100.353C166.254 88.5467 156.514 78.8066 144.708 78.8066L102.5 78.6587L104.714 64.491H145.741C165.812 64.491 182.046 81.0201 181.603 101.091C181.012 120.571 164.631 135.92 145.003 135.92Z" fill="white"/>
</svg>
