<svg width="250" height="250" viewBox="0 0 250 250" fill="none" xmlns="http://www.w3.org/2000/svg">
<path d="M125.261 247.878C58.3389 249.631 1.71589 191.719 1.77739 124.631C1.83689 59.0779 56.8209 1.36442 125.242 1.33692C192.539 1.30992 248.809 57.7354 248.712 124.954C248.613 193.184 190.984 249.68 125.261 247.878ZM229.994 124.949C230.004 67.3534 183.254 20.1164 126.179 20.0504C67.8114 19.9829 20.5569 66.5229 20.5079 124.124C20.4584 182.366 67.1184 229.509 124.841 229.536C182.979 229.564 229.985 182.811 229.994 124.949ZM234.788 120.922C237.918 120.74 240.576 120.586 243.406 120.422C243.406 119.155 243.406 118.336 243.406 117.245C240.412 117.509 237.657 117.752 234.788 118.004C234.788 118.966 234.788 119.693 234.788 120.922ZM6.93239 117.237C7.01589 118.451 7.07239 119.273 7.15239 120.437C10.1364 120.437 12.8829 120.437 15.9349 120.437C15.7769 119.491 15.6439 118.694 15.5189 117.946C12.6244 117.707 10.0479 117.494 6.93239 117.237ZM100.575 8.77842C101.171 11.8089 101.706 14.5274 102.301 17.5494C103.371 17.3234 104.155 17.1579 105.228 16.9314C104.67 14.0164 104.169 11.3944 103.623 8.53892C102.5 8.62692 101.688 8.69092 100.575 8.77842ZM148.261 17.4669C148.852 14.3419 149.35 11.7139 149.904 8.78742C148.723 8.78742 147.842 8.78742 146.745 8.78742C146.26 11.6659 145.821 14.2764 145.346 17.0984C146.517 17.2469 147.234 17.3374 148.261 17.4669ZM160.996 237.973C160.038 234.816 159.259 232.249 158.408 229.445C157.395 229.714 156.594 229.927 155.502 230.216C156.311 232.989 157.059 235.555 157.876 238.357C158.933 238.227 159.739 238.128 160.996 237.973ZM92.0604 229.36C91.1694 232.456 90.4089 235.099 89.6484 237.742C90.1499 237.985 90.6514 238.229 91.1529 238.472C94.5859 237.042 93.5539 233.019 95.0334 230.212C93.8734 229.879 93.1504 229.672 92.0604 229.36ZM56.0539 209.836C54.0629 212.362 52.3959 214.477 50.5039 216.877C51.5439 217.489 52.3224 217.947 53.1734 218.448C55.0079 216.122 56.6134 214.086 58.3679 211.861C57.5989 211.188 56.9679 210.636 56.0539 209.836ZM239.87 94.5309C236.785 95.3394 234.027 96.0624 231.01 96.8534C231.561 98.0394 231.916 98.8014 232.313 99.6559C234.994 98.9429 237.477 98.2819 240.187 97.5609C240.079 96.5329 239.994 95.7219 239.87 94.5309ZM10.5759 94.4889C10.5759 95.8159 10.5759 96.7009 10.5759 97.6944C13.2969 98.3704 15.7764 98.9869 18.4244 99.6449C18.7344 98.5799 18.9664 97.7829 19.2639 96.7609C16.4224 96.0179 13.8249 95.3389 10.5759 94.4889ZM232.019 73.4524C229.123 74.8329 226.704 75.9864 224.049 77.2514C224.591 78.2644 224.983 78.9959 225.467 79.8999C228.113 78.6829 230.554 77.5599 233.193 76.3459C232.791 75.3559 232.479 74.5859 232.019 73.4524ZM17.3054 76.3429C19.9444 77.5574 22.3859 78.6809 25.0304 79.8984C25.5179 78.9949 25.9129 78.2629 26.4714 77.2284C23.7219 75.9454 21.2119 74.7739 18.4714 73.4949C18.0264 74.5814 17.7114 75.3509 17.3054 76.3429ZM85.2029 22.6249C83.9654 19.6754 82.8964 17.1274 81.6979 14.2699C80.5389 15.0789 79.8634 15.5499 79.1079 16.0774C80.2779 18.7954 81.3354 21.2524 82.4554 23.8534C83.4854 23.3924 84.1789 23.0824 85.2029 22.6249ZM201.972 46.7009C204.25 44.2884 206.089 42.3414 208.112 40.1989C207.426 39.3429 206.897 38.6819 206.143 37.7419C203.852 40.1954 201.973 42.2089 199.716 44.6264C200.534 45.3789 201.085 45.8849 201.972 46.7009ZM50.4954 44.2864C48.4349 42.1094 46.5489 40.1164 44.4854 37.9359C43.6584 38.9484 43.1349 39.5894 42.5114 40.3529C44.5199 42.4584 46.3654 44.3929 48.3969 46.5224C49.1924 45.6749 49.7549 45.0754 50.4954 44.2864ZM168.143 23.8739C169.315 20.9939 170.33 18.4989 171.433 15.7909C170.431 15.3524 169.676 15.0219 168.65 14.5729C167.501 17.3839 166.453 19.9509 165.34 22.6739C166.348 23.1049 167.044 23.4034 168.143 23.8739ZM174.838 222.898C176.22 225.493 177.48 227.858 178.851 230.431C179.854 229.884 180.584 229.485 181.519 228.975C180.105 226.319 178.803 223.873 177.364 221.169C176.347 221.866 175.662 222.334 174.838 222.898ZM73.0629 221.113C71.5619 224.089 70.3179 226.555 68.9519 229.263C70.1259 229.665 70.9084 229.932 71.8299 230.248C73.1454 227.715 74.3389 225.418 75.6514 222.89C74.8419 222.334 74.1569 221.864 73.0629 221.113ZM200.005 216.827C197.99 214.317 196.303 212.214 194.473 209.934C193.616 210.603 192.958 211.117 192.065 211.814C193.894 214.104 195.573 216.205 197.392 218.482C198.258 217.934 198.969 217.483 200.005 216.827ZM228.093 183.128C225.571 181.647 223.266 180.293 220.742 178.81C220.184 179.792 219.778 180.505 219.208 181.508C221.814 183.01 224.2 184.386 226.811 185.892C227.327 184.779 227.676 184.025 228.093 183.128ZM23.8139 185.893C26.5469 184.277 28.8419 182.92 31.3699 181.426C30.6959 180.401 30.2469 179.719 29.6729 178.846C27.1544 180.341 24.8564 181.706 22.3449 183.196C22.8524 184.127 23.2484 184.854 23.8139 185.893ZM228.001 162.817C231.04 163.872 233.641 164.775 236.47 165.757C236.768 164.613 236.974 163.823 237.229 162.843C234.494 161.877 231.993 160.994 229.33 160.053C228.891 160.966 228.574 161.625 228.001 162.817ZM14.1719 165.781C16.9794 164.766 19.5659 163.831 22.5994 162.734C21.8979 161.579 21.4439 160.831 20.9754 160.06C18.1809 161.088 15.7794 161.972 13.1824 162.928C13.5339 163.94 13.8039 164.719 14.1719 165.781ZM234.138 139.54C233.869 140.696 233.683 141.497 233.443 142.525C236.463 142.931 239.205 143.3 242.401 143.729C242.216 142.367 242.095 141.476 241.982 140.645C239.262 140.262 236.933 139.934 234.138 139.54ZM17.2589 142.491C16.8279 141.316 16.5424 140.536 16.1909 139.579C13.5694 139.946 11.1419 140.287 8.44939 140.664C8.44939 141.666 8.44939 142.554 8.44939 143.714C11.3879 143.306 14.0444 142.937 17.2589 142.491ZM28.0294 56.9259C30.6814 58.8234 32.8729 60.3914 35.3294 62.1494C35.9454 61.1374 36.4179 60.3619 36.9434 59.4994C34.5449 57.7949 32.4349 56.2949 30.1294 54.6564C29.4454 55.3959 28.8819 56.0044 28.0294 56.9259ZM213.372 59.6529C214.151 60.5774 214.74 61.2759 215.402 62.0624C217.845 60.2584 220.009 58.6599 222.502 56.8189C221.59 55.9519 220.942 55.3364 220.283 54.7099C217.923 56.3974 215.9 57.8444 213.372 59.6529ZM66.9004 32.0299C65.1429 29.3534 63.6249 27.0414 61.9704 24.5209C60.9919 25.2934 60.3414 25.8069 59.5349 26.4439C61.1549 28.8844 62.6339 31.1129 64.1984 33.4699C65.1329 32.9719 65.7914 32.6209 66.9004 32.0299ZM41.6359 195.414C39.0819 197.653 37.0579 199.427 34.4814 201.686C35.3479 202.524 35.9559 203.112 36.6884 203.821C39.2694 201.568 41.3649 199.74 43.8059 197.61C42.9229 196.716 42.3869 196.174 41.6359 195.414ZM215.619 201.294C213.332 199.321 211.221 197.5 208.941 195.533C208.214 196.495 207.711 197.162 207.097 197.974C209.319 199.901 211.354 201.666 213.561 203.58C214.308 202.751 214.875 202.121 215.619 201.294ZM188.406 24.6524C186.732 27.2299 185.272 29.4774 183.673 31.9399C184.653 32.5159 185.358 32.9304 186.315 33.4929C187.947 30.9784 189.445 28.6714 191.042 26.2114C190.011 25.6024 189.366 25.2204 188.406 24.6524ZM126.604 14.9904C126.604 12.0259 126.604 9.45192 126.604 6.62292C125.655 6.62292 124.859 6.62292 123.932 6.62292C123.932 9.52592 123.932 12.1849 123.932 14.9904C124.868 14.9904 125.617 14.9904 126.604 14.9904ZM112.926 233.85C112.599 236.782 112.302 239.441 111.976 242.363C113.226 242.45 114.045 242.507 114.974 242.572C115.296 239.735 115.588 237.173 115.907 234.369C114.809 234.178 113.997 234.037 112.926 233.85ZM134.545 234.419C134.924 237.405 135.25 239.967 135.609 242.792C136.652 242.549 137.461 242.36 138.558 242.104C138.198 239.226 137.869 236.59 137.514 233.747C136.374 234.005 135.645 234.17 134.545 234.419Z" fill="#1441F2"/>
<path d="M157.593 169.371C160.726 172.227 163.862 175.017 166.918 177.893C169.327 180.161 169.999 182.839 167.5 185.346C165.063 187.79 162.504 186.94 160.331 184.694C157.011 181.261 153.75 177.771 150.291 174.124C138.979 179.92 127.211 177.854 115.715 177.942C97.2872 178.083 81.7537 162.509 81.5997 144.058C81.4702 128.568 81.4637 113.075 81.5917 97.5843C81.7457 78.9178 95.8922 63.7578 114.631 62.9243C124.002 62.5073 133.657 62.4888 142.799 64.2678C158.184 67.2618 168.79 81.4678 168.909 97.1748C169.024 112.324 168.857 127.475 168.988 142.623C169.071 152.12 165.737 160.155 159.421 167.089C158.977 167.576 158.592 168.118 157.593 169.371ZM150.649 162.276C156.557 156.68 159.463 150.673 159.518 143.515C159.635 128.26 159.588 113.004 159.544 97.7488C159.505 84.2603 148.864 73.0923 135.386 72.5938C128.565 72.3413 121.719 72.3403 114.899 72.6098C101.631 73.1343 91.0032 84.3273 90.9607 97.6233C90.9122 112.879 90.9132 128.134 90.9617 143.39C90.9977 154.782 99.4757 166.071 110.641 167.671C119.22 168.901 128.078 168.245 136.813 168.273C138.525 168.279 140.238 167.575 143.567 166.843C140.299 164.03 137.926 162.105 135.691 160.032C133.287 157.803 132.454 155.145 135.077 152.626C137.68 150.126 140.279 151.084 142.505 153.457C145.146 156.272 147.745 159.128 150.649 162.276Z" fill="#1441F2"/>
</svg>
