<svg width="250" height="250" viewBox="0 0 250 250" fill="none" xmlns="http://www.w3.org/2000/svg">
<path d="M124.25 248.637C57.3685 249.092 -0.999475 193.438 1.05252 121.216C2.88152 56.851 56.1 0.246993 127.548 1.60449C192.586 2.83999 250.303 56.7735 248.114 129.599C246.193 193.499 193.486 248.962 124.25 248.637ZM152.281 133.664C153.01 134.642 153.491 135.312 153.997 135.963C166.149 151.577 178.365 167.142 190.407 182.841C192.916 186.111 196.039 186.543 199.476 185.778C203.005 184.993 204.505 182.377 204.503 178.774C204.483 142.965 204.486 107.155 204.499 71.3465C204.5 67.9315 203.011 65.385 199.771 64.478C196.519 63.568 193.183 63.733 190.823 66.753C185.694 73.3165 180.655 79.9505 175.519 86.509C167.803 96.3625 160.036 106.175 152.055 116.304C144.962 107.275 138.104 98.59 131.298 89.864C127.611 85.136 121.507 85.0615 117.795 89.799C115.601 92.599 113.469 95.4465 111.276 98.2475C106.616 104.201 101.935 110.138 97.018 116.393C91.695 109.642 86.7645 103.454 81.904 97.211C74.097 87.183 66.3255 77.128 58.5635 67.065C56.11 63.884 52.7925 63.548 49.339 64.487C45.794 65.4505 44.682 68.218 44.686 71.7475C44.7275 107.419 44.724 143.091 44.6915 178.763C44.6885 182.179 46.0445 184.656 49.286 185.671C52.6325 186.719 56.046 186.274 58.2915 183.44C65.1545 174.777 71.746 165.9 78.5195 157.166C84.5235 149.423 90.63 141.759 96.945 133.738C102.909 141.373 108.906 148.308 114.057 155.822C121.288 166.37 127.501 166.771 134.86 156.054C140.096 148.429 146.207 141.406 152.281 133.664ZM188.524 87.3995C178.712 99.916 168.899 112.432 158.911 125.173C168.905 137.929 178.798 150.555 189.397 164.084C189.397 137.658 189.397 112.682 189.397 87.7065C189.106 87.6045 188.815 87.502 188.524 87.3995ZM90.267 125.187C80.24 112.4 70.382 99.828 59.8595 86.409C59.8595 112.716 59.8595 137.766 59.8595 164.059C70.4485 150.523 80.312 137.914 90.267 125.187ZM121.111 147.067C123.168 149.693 125.403 149.988 127.516 147.386C133.524 139.988 139.405 132.487 145.31 125.06C139.428 117.613 133.784 110.404 128.064 103.256C125.729 100.338 123.205 100.323 121.001 103.112C115.328 110.29 109.691 117.496 103.754 125.055C109.661 132.54 115.407 139.787 121.111 147.067Z" fill="url(#paint0_linear_242_93768)"/>
<defs>
<linearGradient id="paint0_linear_242_93768" x1="124.587" y1="1.99799" x2="124.587" y2="248.511" gradientUnits="userSpaceOnUse">
<stop offset="0.000478316" stop-color="#36A7DD"/>
<stop offset="1" stop-color="#13307E"/>
</linearGradient>
</defs>
</svg>
