<svg width="250" height="250" viewBox="0 0 250 250" fill="none" xmlns="http://www.w3.org/2000/svg">
<rect width="250" height="250" rx="125" fill="white"/>
<mask id="mask0_242_94269" style="mask-type:alpha" maskUnits="userSpaceOnUse" x="18" y="47" width="213" height="166">
<path d="M226.655 188.46C224.492 188.46 222.736 190.219 222.736 192.387V204.168H171.907L171.807 196.722C193.671 181.36 206.694 156.368 206.694 129.554C206.694 84.2888 169.931 47.4533 124.756 47.4533C79.5807 47.4533 42.8185 84.2888 42.8185 129.554C42.8185 156.243 55.825 181.339 77.6054 196.701C77.6419 196.722 77.6628 196.722 77.7046 196.743L77.6054 204.168H26.7758L26.7758 192.387C26.7758 190.219 25.0201 188.46 22.8568 188.46C20.6932 188.46 18.9375 190.219 18.9375 192.387L18.9375 212.022H85.3392L85.5639 194.984C85.5843 193.308 84.5451 191.895 83.0922 191.303C82.831 190.916 82.5226 190.544 82.115 190.261C62.4144 176.37 50.6568 153.687 50.6568 129.533C50.6568 88.5876 83.8918 55.2866 124.756 55.2866C165.62 55.2866 198.855 88.5876 198.855 129.533C198.855 154.242 186.669 177.229 166.237 191.057C165.845 191.303 165.563 191.649 165.296 191.999C164.46 192.732 163.906 193.774 163.927 194.963L164.152 212.001L230.575 212.022V192.387C230.575 190.219 228.819 188.46 226.655 188.46V188.46Z" fill="white"/>
</mask>
<g mask="url(#mask0_242_94269)">
<mask id="mask1_242_94269" style="mask-type:alpha" maskUnits="userSpaceOnUse" x="-851" y="-1096" width="2148" height="1518">
<path d="M-850.879 421.942L1296.89 421.942V-1095.78L-850.879 -1095.78L-850.879 421.942Z" fill="white"/>
</mask>
<g mask="url(#mask1_242_94269)">
<path d="M6.18359 224.788L243.329 224.788L243.329 34.7116L6.18359 34.7116L6.18359 224.788Z" fill="#1D2951"/>
</g>
</g>
<mask id="mask2_242_94269" style="mask-type:alpha" maskUnits="userSpaceOnUse" x="66" y="63" width="118" height="133">
<path d="M174.3 135.222C172.723 133.26 170.968 131.298 169.076 129.344C170.968 127.39 172.715 125.42 174.3 123.466C183.029 112.639 185.737 103.05 181.931 96.4569C179.038 91.4474 172.768 88.7997 163.809 88.7997C158.815 88.7997 153.116 89.631 147.016 91.1696C142.186 74.3645 134.195 63.5596 124.987 63.5596C115.772 63.5596 107.787 74.3645 102.956 91.1696C96.8502 89.631 91.1576 88.7997 86.1578 88.7997C77.1884 88.7997 70.9285 91.4474 68.0359 96.4569C64.2276 103.05 66.9429 112.645 75.6664 123.466C77.2514 125.428 79.0041 127.398 80.9041 129.368C68.7744 141.948 63.4282 154.259 68.028 162.239C70.9206 167.249 77.1805 169.896 86.1498 169.896C91.1417 169.896 96.8423 169.065 102.949 167.527C107.773 184.332 115.764 195.135 124.971 195.135C134.187 195.135 142.17 184.332 147 167.527C153.108 169.065 158.809 169.896 163.801 169.896C172.76 169.896 179.03 167.249 181.923 162.239C185.737 155.646 183.029 146.049 174.3 135.222ZM163.809 93.6931C168.769 93.6931 175.208 94.5933 177.691 98.9033C180.377 103.55 177.746 111.385 170.492 120.387C169.007 122.227 167.369 124.065 165.593 125.913C161.339 121.904 156.485 117.972 151.185 114.215C150.578 107.659 149.578 101.504 148.247 95.8955C153.916 94.4632 159.201 93.6931 163.809 93.6931ZM135.979 148.397C132.324 150.505 128.64 152.437 124.987 154.183C121.324 152.429 117.648 150.505 113.988 148.389C110.325 146.274 106.802 144.05 103.457 141.756C103.157 137.793 102.996 133.654 102.996 129.336C102.996 125.012 103.165 120.864 103.457 116.902C106.741 114.663 110.248 112.447 113.988 110.283C117.648 108.168 121.324 106.243 124.987 104.498C128.648 106.243 132.324 108.176 135.987 110.283C139.647 112.399 143.17 114.623 146.523 116.916C146.825 120.879 146.986 125.02 146.986 129.336C146.986 133.654 146.825 137.793 146.523 141.756C143.162 144.065 139.639 146.281 135.979 148.397ZM145.909 148.05C145.332 152.882 144.547 157.384 143.585 161.509C139.44 160.248 135.132 158.678 130.749 156.801C133.317 155.491 135.879 154.114 138.424 152.636C140.986 151.159 143.485 149.628 145.909 148.05ZM119.225 156.807C114.84 158.678 110.534 160.254 106.387 161.517C105.426 157.391 104.642 152.89 104.065 148.058C106.487 149.628 108.98 151.167 111.542 152.644C114.088 154.114 116.656 155.498 119.225 156.807ZM98.3271 138.079C94.5266 135.222 91.0037 132.283 87.8354 129.305C90.927 126.413 94.4261 123.48 98.3271 120.564C98.1735 123.427 98.0888 126.35 98.0888 129.336C98.0939 132.315 98.1794 135.222 98.3271 138.079ZM104.057 110.638C104.634 105.806 105.418 101.305 106.381 97.1798C110.526 98.4345 114.832 100.01 119.218 101.882C116.648 103.19 114.088 104.575 111.534 106.044C108.956 107.538 106.464 109.076 104.057 110.638ZM130.749 101.882C135.132 100.01 139.44 98.4345 143.585 97.1719C144.539 101.297 145.332 105.798 145.909 110.63C143.485 109.06 140.994 107.522 138.432 106.044C135.879 104.575 133.309 103.19 130.749 101.882ZM151.647 120.61C155.432 123.458 158.939 126.381 162.099 129.344C158.939 132.307 155.432 135.238 151.647 138.079C151.793 135.222 151.878 132.315 151.878 129.344C151.878 126.374 151.793 123.466 151.647 120.61ZM124.987 68.4625C131.395 68.4625 138.078 77.3803 142.371 92.4539C136.778 94.1403 130.916 96.3798 124.987 99.1023C119.056 96.3798 113.194 94.1403 107.604 92.4539C111.894 77.3803 118.572 68.4625 124.987 68.4625ZM72.2735 98.9033C74.7585 94.6012 81.1957 93.6931 86.1578 93.6931C90.7655 93.6931 96.0487 94.4632 101.718 95.8955C100.389 101.496 99.3964 107.652 98.7798 114.215C93.4043 118.025 88.5739 121.965 84.3816 125.921C82.5956 124.073 80.9575 122.227 79.4726 120.387C72.2202 111.385 69.5975 103.55 72.2735 98.9033ZM86.1578 164.995C81.1957 164.995 74.7585 164.095 72.2735 159.793C69.0736 154.238 73.451 144.002 84.3424 132.746C88.6114 136.763 93.4732 140.716 98.7877 144.481C99.3964 151.037 100.395 157.192 101.726 162.801C96.0487 164.217 90.7655 164.995 86.1578 164.995ZM124.987 190.226C118.58 190.226 111.894 181.308 107.604 166.24C113.194 164.556 119.056 162.316 124.987 159.592C130.916 162.316 136.778 164.556 142.371 166.235C138.07 181.308 131.395 190.226 124.987 190.226ZM177.691 159.785C175.208 164.087 168.769 164.995 163.809 164.995C159.201 164.995 153.916 164.225 148.247 162.793C149.578 157.185 150.57 151.029 151.185 144.473C156.485 140.716 161.339 136.777 165.593 132.776C167.369 134.616 169.007 136.461 170.492 138.301C177.754 147.304 180.377 155.138 177.691 159.785Z" fill="white"/>
</mask>
<g mask="url(#mask2_242_94269)">
<mask id="mask3_242_94269" style="mask-type:alpha" maskUnits="userSpaceOnUse" x="-851" y="-1096" width="2148" height="1518">
<path d="M-850.877 421.903L1296.89 421.903V-1095.82L-850.877 -1095.82L-850.877 421.903Z" fill="white"/>
</mask>
<g mask="url(#mask3_242_94269)">
<path d="M53.5996 207.87L196.363 207.87L196.363 50.7865L53.5996 50.7865L53.5996 207.87Z" fill="#1D2951"/>
</g>
</g>
<mask id="mask4_242_94269" style="mask-type:alpha" maskUnits="userSpaceOnUse" x="106" y="110" width="38" height="38">
<path d="M124.991 110.724C114.73 110.724 106.385 119.073 106.385 129.338C106.385 139.603 114.73 147.959 124.991 147.959C135.252 147.959 143.597 139.611 143.597 129.338C143.597 119.073 135.252 110.724 124.991 110.724ZM124.991 143.058C117.429 143.058 111.276 136.902 111.276 129.338C111.276 121.773 117.429 115.617 124.991 115.617C132.553 115.617 138.706 121.773 138.706 129.338C138.698 136.902 132.553 143.058 124.991 143.058Z" fill="white"/>
</mask>
<g mask="url(#mask4_242_94269)">
<mask id="mask5_242_94269" style="mask-type:alpha" maskUnits="userSpaceOnUse" x="-851" y="-1096" width="2148" height="1518">
<path d="M-850.875 421.915L1296.89 421.915V-1095.81L-850.875 -1095.81L-850.875 421.915Z" fill="white"/>
</mask>
<g mask="url(#mask5_242_94269)">
<path d="M93.627 160.719H156.348V97.9763H93.627L93.627 160.719Z" fill="#1D2951"/>
</g>
</g>
</svg>
