<svg width="250" height="250" viewBox="0 0 250 250" fill="none" xmlns="http://www.w3.org/2000/svg">
<rect width="250" height="250" rx="125" fill="#0645F7"/>
<path fill-rule="evenodd" clip-rule="evenodd" d="M196.758 203C193.535 203.031 190.937 200.434 190.906 197.21C190.875 193.987 193.472 191.39 196.695 191.359C199.918 191.327 202.516 193.925 202.547 197.148V197.179C202.547 200.402 199.95 203 196.758 203ZM193.691 140.319C190.437 140.257 187.839 137.597 187.902 134.342C187.964 131.088 190.624 128.49 193.879 128.553C197.133 128.615 199.699 131.275 199.668 134.53C199.605 137.753 197.008 140.319 193.785 140.319H193.691ZM193.691 122.732C190.437 122.732 187.808 120.104 187.808 116.849C187.808 113.595 190.437 110.966 193.691 110.966C196.946 110.966 199.574 113.595 199.574 116.849V116.88C199.574 120.072 197.008 122.701 193.785 122.732H193.691ZM181.925 112.343V123.045H170.19V110.027C170.19 108.463 170.816 106.992 171.911 105.896L185.743 92.19C187.558 90.3437 190.311 89.843 192.658 90.9383C195.569 92.3152 196.789 95.7887 195.412 98.699C195.131 99.3249 194.724 99.8882 194.254 100.358L181.925 112.343ZM192.564 161.348C190.217 162.444 187.464 161.912 185.649 160.097L171.817 146.39C170.722 145.295 170.096 143.793 170.096 142.259V128.991H181.925V139.693L194.16 151.929C196.414 154.213 196.414 157.906 194.129 160.159C193.691 160.597 193.222 160.941 192.658 161.223L192.564 161.348ZM164.275 104.426V146.797L197.947 180.469C200.294 182.753 200.325 186.508 198.041 188.855C195.756 191.202 192.001 191.233 189.654 188.949L154.168 153.4C153.041 152.305 152.415 150.802 152.415 149.238V101.954C152.415 100.389 153.041 98.8868 154.168 97.7915L175.854 76.1052C178.138 73.7582 181.862 73.6956 184.24 75.9801C186.587 78.2645 186.65 81.9884 184.366 84.3667L164.275 104.426ZM150.663 93.7234C149.536 94.8499 148.034 95.4445 146.469 95.4445H99.3103C97.7456 95.4758 96.2123 94.8499 95.117 93.7234L73.4307 72.0058C71.0837 69.7214 71.0524 65.9662 73.3368 63.6505C75.6212 61.3348 79.3764 61.2722 81.6921 63.5566L101.751 83.6469H144.091L163.994 63.6818C165.809 61.8355 168.625 61.3035 170.972 62.43C173.914 63.9008 175.071 67.4683 173.601 70.4098C173.319 70.9731 172.944 71.4738 172.505 71.9119L150.663 93.7234ZM144.091 75.9801C142.996 77.1066 141.462 77.7325 139.898 77.7325H126.786V65.9036H137.551L149.661 53.7931C151.476 51.9468 154.261 51.4148 156.608 52.51C159.55 53.9808 160.708 57.5483 159.237 60.4898C158.955 61.0531 158.58 61.5538 158.142 61.9919L144.091 75.9801ZM131.542 60.6776C128.288 60.6776 125.659 58.049 125.659 54.7945C125.659 51.5399 128.288 48.9113 131.542 48.9113C134.797 48.9113 137.426 51.5399 137.426 54.7945C137.363 57.9551 134.828 60.4898 131.668 60.5524L131.542 60.6776ZM107.666 77.7325C106.101 77.7325 104.568 77.1066 103.472 75.9801L89.6407 62.1171C87.2937 59.8327 87.2624 56.0775 89.5468 53.7618C91.8312 51.4461 95.5864 51.3835 97.9021 53.6679L110.138 65.9036H120.903V77.7325H107.666ZM114.081 60.5524C110.826 60.5524 108.198 57.9238 108.198 54.6693C108.198 51.4148 110.858 48.7861 114.081 48.7861C117.335 48.7861 119.964 51.4148 119.964 54.6693C119.964 57.9238 117.335 60.5524 114.081 60.5524ZM93.2707 102.047V149.3C93.2707 150.865 92.6761 152.367 91.5495 153.494L69.8946 175.211C68.0795 177.058 65.2631 177.59 62.9161 176.463C60.0059 174.961 58.848 171.393 60.3188 168.483C60.6004 167.92 60.9759 167.388 61.4453 166.95L81.4731 146.797V104.52L61.4453 84.4918C59.0983 82.2074 59.0671 78.4522 61.3515 76.1052C63.6359 73.7582 67.3911 73.7269 69.7381 76.0113L91.6121 97.8228C92.6761 98.9181 93.302 100.483 93.2707 102.047ZM73.681 105.803C74.8702 106.898 75.5586 108.431 75.5586 110.059V123.202H63.7298V112.499L51.6192 100.389C49.2722 98.1357 49.2096 94.4118 51.4628 92.0648C53.7159 89.7178 57.4398 89.6552 59.7868 91.9084C59.8181 91.9397 59.8181 91.9397 59.8494 91.971L73.681 105.803ZM51.8383 110.997C55.0928 110.903 57.784 113.469 57.8779 116.724C57.9718 119.979 55.4057 122.67 52.1512 122.764C48.8967 122.857 46.2055 120.291 46.1116 117.037C46.1116 116.974 46.1116 116.943 46.1116 116.88C46.1116 113.657 48.7402 111.029 51.9635 110.997H51.8383ZM51.8383 128.615C55.0928 128.522 57.784 131.088 57.8779 134.342C57.9718 137.597 55.4057 140.288 52.1512 140.382C48.8967 140.476 46.2055 137.91 46.1116 134.655C46.1116 134.624 46.1116 134.592 46.1116 134.561C46.0803 131.307 48.6777 128.647 51.9322 128.615H51.9635H51.8383ZM63.6046 139.693V128.991H75.5586V142.134C75.5274 143.699 74.8389 145.201 73.681 146.265L59.9746 159.971C58.1595 161.818 55.4057 162.318 53.0587 161.223C50.1485 159.846 48.928 156.373 50.3362 153.462C50.6178 152.837 51.0247 152.305 51.4941 151.835L63.6046 139.693ZM95.117 156.341C96.2123 155.215 97.7143 154.589 99.279 154.589H146.438C148.003 154.589 149.536 155.215 150.631 156.341L185.868 191.64C188.215 193.925 188.246 197.68 185.962 199.996C183.677 202.343 179.922 202.374 177.606 200.089L143.903 166.418H101.689L81.7547 186.352C79.9397 188.198 77.1546 188.73 74.8076 187.635C71.866 186.164 70.7082 182.596 72.179 179.655C72.4606 179.092 72.8361 178.591 73.2742 178.153L95.117 156.341ZM103.504 174.085C104.63 172.989 106.132 172.395 107.697 172.364H120.934V184.192H110.138L98.1837 196.272C95.8993 198.619 92.1754 198.681 89.8284 196.397C87.4814 194.112 87.4188 190.389 89.7032 188.042L103.504 174.085ZM114.112 190.795C117.367 190.764 119.995 193.393 120.026 196.647C120.058 199.902 117.429 202.53 114.175 202.562C110.92 202.593 108.291 199.964 108.26 196.71V196.678C108.291 193.455 110.858 190.827 114.112 190.795ZM140.054 172.426C141.619 172.426 143.121 173.052 144.248 174.147L158.079 188.01C160.426 190.295 160.457 194.05 158.173 196.397C155.889 198.744 152.133 198.775 149.786 196.491L137.551 184.255H126.786V172.364H140.023L140.054 172.426ZM131.699 190.795C134.953 190.858 137.551 193.518 137.488 196.772C137.426 200.027 134.766 202.624 131.511 202.562C128.288 202.499 125.722 199.902 125.722 196.678C125.722 193.424 128.351 190.795 131.605 190.795C131.636 190.795 131.636 190.795 131.699 190.795Z" fill="white"/>
<path fill-rule="evenodd" clip-rule="evenodd" d="M181.987 112.343V123.045H170.158V110.027C170.158 108.463 170.784 106.992 171.88 105.896L185.711 92.19C187.526 90.3437 190.28 89.843 192.627 90.9383C195.537 92.3152 196.758 95.7887 195.381 98.699C195.099 99.3249 194.692 99.8882 194.223 100.358L181.987 112.343ZM192.658 161.348C190.311 162.444 187.558 161.912 185.743 160.097L171.911 146.39C170.816 145.295 170.19 143.793 170.19 142.259V128.991H182.019V139.693L194.254 151.929C196.507 154.245 196.445 157.906 194.16 160.159C193.722 160.597 193.222 160.941 192.69 161.223V161.348H192.658ZM150.663 93.9737C149.536 95.1003 148.034 95.6949 146.469 95.6949H99.3103C97.7143 95.6636 96.181 94.9438 95.117 93.7234L73.4307 72.0058C71.0837 69.7214 71.0524 65.9662 73.3368 63.6505C75.6212 61.3348 79.3764 61.2722 81.6921 63.5566L101.751 83.6469H144.091L163.994 63.6818C165.809 61.8355 168.625 61.3035 170.972 62.43C173.914 63.9008 175.071 67.4683 173.601 70.4098C173.319 70.9731 172.944 71.4738 172.505 71.9119L150.663 93.9737ZM144.091 75.9801C142.996 77.1066 141.462 77.7325 139.898 77.7325H126.786V65.9036H137.551L149.661 53.7931C151.476 51.9468 154.261 51.4148 156.608 52.51C159.55 53.9808 160.708 57.5483 159.237 60.4898C158.955 61.0531 158.58 61.5538 158.142 61.9919L144.091 75.9801ZM131.542 60.6776C128.288 60.6776 125.659 58.049 125.659 54.7945C125.659 51.5399 128.288 48.9113 131.542 48.9113C134.797 48.9113 137.426 51.5399 137.426 54.7945C137.363 57.9551 134.828 60.4898 131.668 60.5524L131.542 60.6776ZM107.666 77.7325C106.101 77.7325 104.568 77.1066 103.472 75.9801L89.6407 62.1171C87.2937 59.8327 87.2624 56.0775 89.5468 53.7618C91.8312 51.4461 95.5864 51.3835 97.9021 53.6679L110.138 65.9036H120.903V77.7325H107.666ZM114.081 60.5524C110.826 60.5524 108.198 57.9238 108.198 54.6693C108.198 51.4148 110.858 48.7861 114.081 48.7861C117.335 48.7861 119.964 51.4148 119.964 54.6693C119.964 57.9238 117.335 60.5524 114.081 60.5524ZM93.2707 102.047V149.3C93.2707 150.865 92.6761 152.367 91.5495 153.494L69.8946 175.211C68.0795 177.058 65.2631 177.59 62.9161 176.463C60.0059 174.961 58.848 171.393 60.3188 168.483C60.6004 167.92 60.9759 167.388 61.4453 166.95L81.4731 146.797V104.52L61.4453 84.4918C59.0983 82.2074 59.0671 78.4522 61.3515 76.1052C63.6359 73.7582 67.3911 73.7269 69.7381 76.0113L91.6121 97.8228C92.6761 98.9181 93.302 100.483 93.2707 102.047ZM73.681 105.803C74.8702 106.898 75.5586 108.431 75.5586 110.059V123.202H63.7298V112.499L51.6192 100.389C49.2722 98.1357 49.2096 94.4118 51.4628 92.0648C53.7159 89.7178 57.4398 89.6552 59.7868 91.9084C59.8181 91.9397 59.8181 91.9397 59.8494 91.971L73.681 105.803ZM51.8383 110.997C55.0928 110.903 57.784 113.469 57.8779 116.724C57.9718 119.979 55.4057 122.67 52.1512 122.764C48.8967 122.857 46.2055 120.291 46.1116 117.037C46.1116 116.974 46.1116 116.943 46.1116 116.88C46.1116 113.657 48.7402 111.029 51.9635 110.997H51.8383ZM51.8383 128.615C55.0928 128.522 57.784 131.088 57.8779 134.342C57.9718 137.597 55.4057 140.288 52.1512 140.382C48.8967 140.476 46.2055 137.91 46.1116 134.655C46.1116 134.624 46.1116 134.593 46.1116 134.561C46.0803 131.307 48.6777 128.647 51.9322 128.615H51.9635H51.8383ZM63.6046 139.693V128.991H75.5586V142.134C75.5274 143.699 74.8389 145.201 73.681 146.265L59.9746 159.971C58.1595 161.818 55.4057 162.318 53.0587 161.223C50.1485 159.846 48.928 156.373 50.3362 153.462C50.6178 152.837 51.0247 152.305 51.4941 151.835L63.6046 139.693ZM95.117 156.341C96.2123 155.215 97.7143 154.589 99.279 154.589H146.438C148.003 154.589 149.536 155.215 150.631 156.341L185.868 191.64C188.215 193.925 188.246 197.68 185.962 199.996C183.677 202.343 179.922 202.374 177.606 200.089L143.903 166.418H101.689L81.7547 186.352C79.9397 188.198 77.1546 188.73 74.8076 187.635C71.866 186.164 70.7082 182.597 72.179 179.655C72.4606 179.092 72.8361 178.591 73.2742 178.153L95.117 156.341ZM103.504 174.085C104.63 172.989 106.132 172.395 107.697 172.364H120.934V184.192H110.138L98.1837 196.272C95.8993 198.619 92.1754 198.681 89.8284 196.397C87.4814 194.112 87.4188 190.389 89.7032 188.042L103.504 174.085ZM114.112 190.795C117.367 190.764 119.995 193.393 120.026 196.647C120.058 199.902 117.429 202.53 114.175 202.562C110.92 202.593 108.291 199.964 108.26 196.71V196.679C108.291 193.455 110.858 190.827 114.112 190.795ZM140.054 172.426C141.619 172.426 143.121 173.052 144.248 174.147L158.079 188.01C160.426 190.295 160.457 194.05 158.173 196.397C155.889 198.744 152.133 198.775 149.786 196.491L137.551 184.255H126.786V172.364H140.023L140.054 172.426ZM131.699 190.795C134.953 190.858 137.551 193.518 137.488 196.772C137.426 200.027 134.766 202.624 131.511 202.562C128.288 202.499 125.722 199.902 125.722 196.679C125.722 193.424 128.351 190.795 131.605 190.795C131.636 190.795 131.636 190.795 131.699 190.795Z" fill="white"/>
</svg>
