<svg width="250" height="250" viewBox="0 0 250 250" fill="none" xmlns="http://www.w3.org/2000/svg">
<path fill-rule="evenodd" clip-rule="evenodd" d="M69.2642 57.2932C32.1292 87.8449 26.6804 142.496 57.0413 179.787C81.0797 209.312 120.428 219.027 154.324 206.807C161.915 204.071 162.97 193.772 156.075 189.58L105.926 159.094C101.611 156.471 96.6639 154.958 91.6193 154.721L76.5376 154.003L76.2629 153.965C70.6067 153.185 65.5344 150.35 61.9796 145.984C54.2578 136.5 55.6921 122.502 65.1765 114.78C72.3673 108.925 79.6315 107.786 86.0404 106.781C92.495 105.769 98.0699 104.894 104.409 99.7336C110.747 94.5728 112.734 89.2911 115.034 83.176C117.317 77.1038 119.905 70.222 127.097 64.3671C136.581 56.6453 150.579 58.0797 158.301 67.5634C161.856 71.9298 163.602 77.4717 163.22 83.1687L163.202 83.4454L160.847 98.3561C160.056 103.347 160.534 108.498 162.228 113.256L181.913 168.545C184.606 176.109 194.886 177.237 199.091 170.398C217.978 139.675 216.46 99.1307 192.402 69.5808C161.874 32.0833 106.649 26.5348 69.2642 57.2932Z" fill="#2891A5"/>
<path fill-rule="evenodd" clip-rule="evenodd" d="M173.558 184.666C169.53 187.946 168.923 193.87 172.202 197.898C175.482 201.927 181.406 202.534 185.435 199.254C189.463 195.975 190.07 190.05 186.79 186.022C183.51 181.993 177.586 181.386 173.558 184.666ZM148.619 96.4209C147.507 103.448 148.18 110.705 150.566 117.407L164.114 155.459C166.172 161.244 163.57 166.021 160.447 168.563C157.325 171.105 152.119 172.685 146.872 169.497L112.357 148.515C106.278 144.819 99.3084 142.689 92.2047 142.354L77.7141 141.664C75.3017 141.272 73.0769 140.006 71.5798 138.167C68.1683 133.977 68.8016 127.791 72.9924 124.379C77.5899 120.636 82.1657 119.918 87.9585 119.01C95.1461 117.882 103.292 116.605 112.225 109.333C115.853 106.378 118.487 103.35 120.507 100.34C123.459 95.9395 125.101 91.5757 126.621 87.5329C127.911 84.1029 129.032 81.1232 130.814 78.4566C131.882 76.8572 133.189 75.37 134.913 73.9661C139.104 70.5546 145.289 71.1879 148.701 75.3786C150.198 77.2171 150.986 79.6526 150.882 82.094L148.619 96.4209Z" fill="#3C4D60"/>
</svg>
