<svg width="250" height="250" viewBox="0 0 250 250" fill="none" xmlns="http://www.w3.org/2000/svg">
<path fill-rule="evenodd" clip-rule="evenodd" d="M43.5273 116.591C44.2973 106.266 49.1273 76.4815 79.1923 54.2915V54.3265C97.8123 40.5365 118.217 37.8765 131.062 37.8765C134.982 37.8415 138.902 38.1215 142.787 38.6815C149.647 39.8365 157.207 46.2415 157.207 54.3965C157.207 62.9365 150.207 68.6065 141.772 69.8315C140.547 70.0065 137.992 69.7965 134.457 69.5165C134.002 69.4815 133.512 69.4465 133.022 69.4115C127.247 68.7815 121.472 68.5715 115.697 68.7465C103.937 68.9215 89.9723 70.7065 77.3023 77.1115C74.8173 78.3015 72.4023 79.6665 70.0923 81.1715C63.8973 85.2315 58.4723 90.3065 53.9923 96.1865C51.0873 99.8965 48.6723 103.921 46.7823 108.226C45.4873 110.956 44.4023 113.721 43.5273 116.591ZM70.6173 82.0815C59.1373 89.6065 50.3873 100.631 45.6973 113.546C44.6473 116.591 43.8073 119.706 43.2473 122.891V124.676C43.2123 141.581 48.1473 158.101 57.4573 172.241C63.4423 175.706 80.1723 183.266 113.142 183.371C121.892 183.406 130.607 182.076 138.972 179.416H138.902C162.492 171.926 180.377 154.601 182.582 134.406C182.582 134.231 182.617 134.091 182.617 133.916C182.617 133.846 182.617 133.776 182.652 133.706C176.352 128.841 168.512 126.426 160.567 126.986C152.622 127.546 145.167 130.976 139.602 136.681C134.037 142.386 130.782 149.911 130.432 157.856C130.082 165.731 132.602 173.466 137.537 179.591C135.052 179.941 132.532 180.081 130.012 180.116C115.977 180.116 102.432 174.831 92.1773 165.241C81.8873 155.686 75.6223 142.561 74.6423 128.561C73.6623 114.561 78.0023 100.701 86.8573 89.7815C95.6773 78.8615 108.347 71.6865 122.242 69.7265C121.787 69.7265 121.297 69.7265 120.807 69.7265C120.282 69.7265 119.757 69.7265 119.232 69.7265C105.582 69.7615 86.1223 71.8965 70.6173 82.0815ZM106.737 159.816C104.112 153.481 102.747 146.656 102.747 139.796C102.747 131.291 104.847 122.961 108.837 115.436C112.827 107.946 118.567 101.506 125.567 96.7465C132.567 91.9515 140.652 88.9765 149.087 87.9965C157.522 87.0515 166.062 88.1715 173.972 91.2515C174.742 92.4765 175.547 93.8415 176.317 95.3815C179.537 101.646 183.002 111.411 183.072 124.676C175.757 118.831 166.517 115.856 157.172 116.311C147.792 116.766 138.937 120.651 132.217 127.196C125.497 133.741 121.402 142.526 120.702 151.871C120.002 161.216 122.732 170.491 128.402 177.981C124.937 177.911 121.472 177.491 118.077 176.721C113.247 171.926 109.362 166.151 106.737 159.816ZM186.887 134.966C185.312 149.211 176.842 162.476 163.052 172.416C149.262 182.356 131.692 187.746 113.422 187.746H113.107C88.0823 187.676 72.0873 183.441 62.7423 179.696C80.3123 202.236 115.487 217.671 148.072 209.726C208.727 194.956 215.692 137.416 198.927 111.971C194.272 104.901 188.077 98.9865 180.797 94.6465C185.242 103.641 188.882 116.941 186.887 134.966Z" fill="#FCC33C"/>
</svg>
