<svg width="250" height="250" viewBox="0 0 250 250" fill="none" xmlns="http://www.w3.org/2000/svg">
<rect width="250" height="250" rx="125" fill="white"/>
<g clip-path="url(#clip0_242_94661)">
<path d="M11.3643 125.014C11.3643 62.246 62.2484 11.3628 125.015 11.3628C187.783 11.3628 238.667 62.246 238.667 125.014C238.667 187.782 187.783 238.665 125.015 238.665C62.2484 238.665 11.3643 187.781 11.3643 125.014Z" fill="#5555FF"/>
<path d="M127.805 172.028C126.088 153.351 128.811 128.177 139.821 115.981C151.417 118.552 174.608 110.617 183.042 94.5254C190.689 79.934 189.302 58.5207 193.583 52.6899C143.159 52.6899 134.793 104.812 120.354 143.846C109.678 114.985 76.1714 95.5369 47.0576 107.4C58.8937 115.582 66.2749 135.757 82.3122 137.563C87.3584 138.131 96.5223 137.563 102.559 126.157C116.84 137.758 114.759 151.828 112.901 172.026C112.151 180.181 109.33 187.936 109.744 194.404C110.339 205.828 130.367 205.828 130.961 194.404C131.377 187.937 128.554 180.182 127.805 172.028Z" fill="url(#paint0_linear_242_94661)"/>
</g>
<defs>
<linearGradient id="paint0_linear_242_94661" x1="120.32" y1="52.6899" x2="120.32" y2="202.973" gradientUnits="userSpaceOnUse">
<stop stop-color="#00FF19"/>
<stop offset="1" stop-color="#00B81E"/>
</linearGradient>
<clipPath id="clip0_242_94661">
<rect width="227.302" height="227.302" fill="white" transform="translate(11.3643 11.3628)"/>
</clipPath>
</defs>
</svg>
