<svg width="250" height="250" viewBox="0 0 250 250" fill="none" xmlns="http://www.w3.org/2000/svg">
<g clip-path="url(#clip0_242_94272)">
<path d="M124.998 249.999C194.034 249.999 249.998 194.034 249.998 124.999C249.998 55.9629 194.034 -0.00146484 124.998 -0.00146484C55.9624 -0.00146484 -0.00195312 55.9629 -0.00195312 124.999C-0.00195312 194.034 55.9624 249.999 124.998 249.999Z" fill="#9D4BEF"/>
<path d="M89.6074 59.8501C97.4976 59.8501 105.065 62.9845 110.644 68.5637C116.223 74.1429 119.357 81.7099 119.357 89.6001C119.357 97.4903 116.223 105.057 110.644 110.637C105.065 116.216 97.4976 119.35 89.6074 119.35C81.7172 119.35 74.1502 116.216 68.571 110.637C62.9918 105.057 59.8574 97.4903 59.8574 89.6001C59.8574 81.7099 62.9918 74.1429 68.571 68.5637C74.1502 62.9845 81.7172 59.8501 89.6074 59.8501ZM119.35 160.397C119.35 166.281 117.605 172.033 114.336 176.925C111.067 181.818 106.421 185.631 100.984 187.882C95.5483 190.134 89.5666 190.723 83.7957 189.575C78.0248 188.427 72.7238 185.594 68.5632 181.433C64.4026 177.273 61.5692 171.972 60.4213 166.201C59.2734 160.43 59.8625 154.448 62.1142 149.012C64.3659 143.576 68.179 138.93 73.0714 135.661C77.9638 132.392 83.7156 130.647 89.5996 130.647C100.484 130.647 110.922 126.323 118.619 118.627C126.315 110.931 130.639 100.492 130.639 89.6079C130.639 83.7239 132.383 77.9721 135.652 73.0797C138.921 68.1873 143.568 64.3742 149.004 62.1225C154.44 59.8708 160.422 59.2816 166.193 60.4296C171.964 61.5775 177.264 64.4109 181.425 68.5715C185.586 72.7321 188.419 78.033 189.567 83.804C190.715 89.5749 190.126 95.5566 187.874 100.993C185.622 106.429 181.809 111.075 176.917 114.344C172.025 117.613 166.273 119.358 160.389 119.358C149.506 119.36 139.069 123.685 131.375 131.381C123.68 139.077 119.357 149.514 119.357 160.397H119.35ZM160.389 190.147C152.498 190.147 144.931 187.013 139.352 181.433C133.773 175.854 130.639 168.287 130.639 160.397C130.639 152.507 133.773 144.94 139.352 139.361C144.931 133.781 152.498 130.647 160.389 130.647C168.279 130.647 175.846 133.781 181.425 139.361C187.004 144.94 190.139 152.507 190.139 160.397C190.139 168.287 187.004 175.854 181.425 181.433C175.846 187.013 168.279 190.147 160.389 190.147ZM160.389 169.366C162.767 169.366 165.049 168.421 166.731 166.739C168.413 165.057 169.357 162.776 169.357 160.397C169.357 158.018 168.413 155.737 166.731 154.055C165.049 152.373 162.767 151.428 160.389 151.428C158.01 151.428 155.729 152.373 154.047 154.055C152.365 155.737 151.42 158.018 151.42 160.397C151.42 162.776 152.365 165.057 154.047 166.739C155.729 168.421 158.01 169.366 160.389 169.366ZM89.6074 169.366C91.9861 169.366 94.2673 168.421 95.9493 166.739C97.6313 165.057 98.5762 162.776 98.5762 160.397C98.5762 158.018 97.6313 155.737 95.9493 154.055C94.2673 152.373 91.9861 151.428 89.6074 151.428C87.2288 151.428 84.9475 152.373 83.2656 154.055C81.5836 155.737 80.6387 158.018 80.6387 160.397C80.6387 162.776 81.5836 165.057 83.2656 166.739C84.9475 168.421 87.2288 169.366 89.6074 169.366ZM160.389 98.5688C162.767 98.5688 165.049 97.6239 166.731 95.942C168.413 94.26 169.357 91.9788 169.357 89.6001C169.357 87.2214 168.413 84.9402 166.731 83.2582C165.049 81.5763 162.767 80.6313 160.389 80.6313C158.01 80.6313 155.729 81.5763 154.047 83.2582C152.365 84.9402 151.42 87.2214 151.42 89.6001C151.42 91.9788 152.365 94.26 154.047 95.942C155.729 97.6239 158.01 98.5688 160.389 98.5688ZM89.6074 98.5688C91.9861 98.5688 94.2673 97.6239 95.9493 95.942C97.6313 94.26 98.5762 91.9788 98.5762 89.6001C98.5762 87.2214 97.6313 84.9402 95.9493 83.2582C94.2673 81.5763 91.9861 80.6313 89.6074 80.6313C87.2288 80.6313 84.9475 81.5763 83.2656 83.2582C81.5836 84.9402 80.6387 87.2214 80.6387 89.6001C80.6387 91.9788 81.5836 94.26 83.2656 95.942C84.9475 97.6239 87.2288 98.5688 89.6074 98.5688Z" fill="white"/>
</g>
<defs>
<clipPath id="clip0_242_94272">
<rect width="250" height="250" rx="125" fill="white"/>
</clipPath>
</defs>
</svg>
