<svg width="250" height="250" viewBox="0 0 250 250" fill="none" xmlns="http://www.w3.org/2000/svg">
<rect width="250" height="250" rx="125" fill="white"/>
<path d="M228.019 85.5589L152.667 42.2089C151.052 41.2739 148.969 41.8264 148.034 43.4414C147.482 44.3764 147.439 45.5239 147.864 46.5439L178.804 115.521C179.569 117.221 181.567 117.986 183.267 117.221C183.352 117.179 183.479 117.136 183.564 117.051L228.019 91.4239C229.634 90.4889 230.187 88.4064 229.252 86.7914C228.954 86.2814 228.529 85.8564 228.019 85.5589Z" fill="#384051"/>
<path d="M71.2379 115.477L102.135 46.4999C102.9 44.7999 102.135 42.8024 100.435 41.9949C99.4579 41.5274 98.2679 41.6124 97.3329 42.1649L21.9804 85.5574C20.3654 86.5349 19.8129 88.6174 20.7479 90.2324C21.0454 90.7424 21.4704 91.1674 21.9804 91.4649L66.4779 117.05C68.0929 117.985 70.1754 117.432 71.1104 115.817C71.1529 115.69 71.1954 115.605 71.2379 115.477Z" fill="#384051"/>
<path d="M122.153 207.702L85.7302 126.4C85.3477 125.55 85.3477 124.53 85.7302 123.68L122.153 42.335C122.918 40.635 124.915 39.8275 126.615 40.5925C127.38 40.9325 128.018 41.57 128.358 42.335L164.27 123.892C164.653 124.742 164.653 125.762 164.27 126.612L128.358 207.66C127.593 209.36 125.595 210.167 123.853 209.402C123.088 209.062 122.493 208.467 122.153 207.702Z" fill="#384051"/>
</svg>
