<svg width="250" height="250" viewBox="0 0 250 250" fill="none" xmlns="http://www.w3.org/2000/svg">
<rect width="250" height="250" rx="125" fill="white"/>
<g clip-path="url(#clip0_242_94375)">
<path d="M107.203 117.457C106.349 117.417 105.45 117.78 104.652 117.169C105.512 116.992 106.405 117.093 107.203 117.457Z" fill="#2A373B"/>
<path d="M110.798 117.835C110.086 117.835 109.343 118.138 108.707 117.567C109.414 117.411 110.153 117.506 110.798 117.835Z" fill="#2A373B"/>
<path d="M36.2822 54.0226C38.07 51.5298 40.0675 49.1945 42.2529 47.0418C57.2505 31.0396 76.5933 19.7637 97.9078 14.5975C101.363 13.6741 104.884 13.0205 108.44 12.6426C108.839 13.8044 107.859 14.1578 107.197 14.5215C103.212 16.8249 99.2464 19.1639 95.2508 21.4369C90.9472 23.8868 86.7092 26.4476 82.4055 28.8974C81.8909 29.1044 81.4666 29.4876 81.2084 29.9785C81.0078 30.2667 80.724 30.487 80.3951 30.6099C75.4993 32.8998 70.7979 35.5842 66.3373 38.6364C65.8418 39.0599 65.2588 39.3687 64.6301 39.5406C64.1265 39.5141 63.6276 39.6484 63.2056 39.9244C55.1639 44.4706 47.1728 49.1026 39.1918 53.7498C38.6642 54.1311 38.0746 54.4183 37.4491 54.5985C36.9692 54.6894 36.3378 54.9016 36.2923 54.0177L36.2822 54.0226Z" fill="#283036"/>
<path d="M157.138 234.01C150.78 235.985 144.234 237.293 137.605 237.915C137.257 236.854 138.11 236.495 138.747 236.127C143.399 233.409 148.087 230.752 152.739 228.045C155.197 226.833 157.524 225.372 159.684 223.685C161.776 222.628 163.938 221.717 166.155 220.958C175.986 216.732 185.108 211.018 193.2 204.016C194.357 202.778 195.655 201.681 197.069 200.748C197.952 200.576 198.793 200.233 199.544 199.737C205.237 196.439 210.899 193.09 216.663 189.918C217.082 189.685 217.769 188.69 218.178 190.004C214.339 195.666 209.939 200.927 205.045 205.708C204.696 206.062 204.302 206.375 203.934 206.718C194.079 212.214 184.38 217.983 174.586 223.579C169.64 226.408 164.725 229.282 159.78 232.111C158.815 232.618 157.926 233.257 157.138 234.01Z" fill="#399584"/>
<path d="M36.2823 54.0235C36.939 54.8216 37.5806 54.2458 38.1362 53.9275C42.1772 51.6039 46.2182 49.2297 50.2945 46.891C54.6487 44.3822 59.0081 41.8802 63.3724 39.3849C63.7462 39.1727 64.1653 38.8797 64.5644 39.3849C62.7884 41.0489 60.9108 42.601 58.9424 44.0321C53.8701 48.324 49.166 53.0329 44.8796 58.1099C44.3779 58.8567 43.73 59.4942 42.9752 59.9839C40.3082 60.7769 38.1059 62.4843 35.7116 63.8027C33.3173 65.1211 31.0745 66.5405 28.6802 67.7781C28.1751 68.0357 27.3719 68.8388 26.9678 67.5608C28.7498 64.2586 30.7866 61.1006 33.0596 58.1151C34.0086 56.6616 35.0854 55.2956 36.2772 54.0336L36.2823 54.0235Z" fill="#293237"/>
<path d="M81.1025 29.7757C81.2743 28.4927 82.537 28.4524 83.32 27.9725C86.8912 25.7954 90.5433 23.7547 94.1651 21.6685L106.743 14.4098C107.48 13.9855 108.258 13.647 108.445 12.6722C112.124 11.9917 115.849 11.5948 119.588 11.4851C121.275 11.379 122.978 11.4496 124.675 11.4345C124.791 12.4447 123.937 12.758 123.296 13.1469C119.629 15.3594 115.901 17.4709 112.183 19.6075C111.084 20.1913 110.056 20.9016 109.122 21.724C106.162 22.613 103.086 23.002 100.08 23.6789C94.3485 25.0268 88.7495 26.8864 83.3503 29.2353C82.6482 29.498 81.9613 30.003 81.1025 29.7757Z" fill="#293237"/>
<path d="M218.183 190.016C218.011 189.678 217.804 189.633 217.466 189.825C212.724 192.566 207.981 195.302 203.236 198.033C201.812 198.851 200.398 199.69 198.983 200.518C198.439 200.881 197.793 201.058 197.14 201.023C196.852 200.402 197.362 200.094 197.69 199.781C202.297 195.37 206.485 190.542 210.202 185.359C210.451 184.976 210.801 184.668 211.212 184.47C214.96 182.783 218.36 180.475 221.936 178.49C222.724 178.055 223.497 177.59 224.295 177.181C224.846 176.903 225.432 176.464 226.083 177.004C223.857 181.576 221.213 185.932 218.183 190.016Z" fill="#389181"/>
<path d="M157.135 234.011C157.034 233.157 157.762 232.919 158.282 232.621C162.707 230.025 167.147 227.469 171.582 224.893C181.149 219.36 190.72 213.836 200.294 208.32C201.395 207.538 202.645 206.991 203.966 206.713L199.536 210.754C195.075 214.786 190.247 218.392 185.115 221.524C176.43 226.997 167.009 231.201 157.135 234.011Z" fill="#3A9987"/>
<path d="M26.9693 67.5349C27.5351 68.2926 28.0756 67.6864 28.5251 67.4288C32.2883 65.3073 36.0162 63.12 39.7895 61.0136C40.7644 60.4731 41.6231 59.5235 42.9314 59.7912C42.3859 61.443 41.0877 62.6151 40.1279 63.9941C38.067 66.944 36.2182 70.0301 34.4048 73.1266C34.0562 73.7226 33.8037 74.4047 33.0662 74.6673C31.47 74.7381 30.3285 75.8239 29.0505 76.5463C26.8481 77.804 24.6457 79.0719 22.4434 80.3449C21.8019 80.7035 21.1452 81.3803 20.2764 80.7994C22.0959 76.1811 24.3381 71.7408 26.9744 67.5349H26.9693Z" fill="#293439"/>
<path d="M109.076 21.34C111.097 19.4105 113.673 18.4408 115.981 17.0063C118.426 15.4909 120.952 14.0864 123.452 12.6468C123.978 12.3587 124.412 11.9281 124.705 11.4042C127.919 11.2896 131.137 11.4129 134.333 11.773C134.939 12.0255 135.611 11.7225 136.222 11.9902L137.333 12.0711C137.838 12.3035 138.389 12.071 138.889 12.268C139.035 13.1166 138.348 13.3641 137.823 13.6874C135.424 15.2028 132.959 16.5868 130.478 17.9507C129.084 18.7185 127.837 19.7035 126.437 20.4763C124.18 20.7642 121.891 20.3197 119.638 20.7592C118.77 20.8836 117.893 20.9277 117.017 20.8907C116.418 20.8252 115.813 20.8852 115.239 21.0673C113.779 21.2289 112.324 21.4362 110.869 21.6484C110.568 21.7489 110.247 21.7731 109.934 21.7194C109.621 21.6656 109.326 21.5353 109.076 21.34Z" fill="#293439"/>
<path d="M178.785 24.9878C181.089 25.9836 183.288 27.2053 185.351 28.6349C186.816 29.5341 188.205 30.5593 189.625 31.5342C189.776 32.0394 189.357 32.2565 189.044 32.4434C186.559 33.9587 184.104 35.5349 181.467 36.8129C180.962 36.7987 180.473 36.6333 180.063 36.3381C177.189 34.6207 174.335 32.8426 171.319 31.3727C170.992 31.2341 170.719 30.9928 170.541 30.6855C170.339 29.9228 170.869 29.5945 171.4 29.2964C173.88 27.9174 176.305 26.4072 178.785 24.9878Z" fill="#2C4345"/>
<path d="M159.837 223.876C158.756 225.493 156.907 226.038 155.361 226.953C149.875 230.191 144.319 233.307 138.798 236.485C138.498 236.61 138.232 236.805 138.024 237.055C137.815 237.305 137.67 237.601 137.601 237.919L136.207 238.01C135.595 238.263 134.924 237.975 134.307 238.217C132.017 238.567 129.695 238.67 127.382 238.525C127.049 237.616 127.857 237.414 128.342 237.131C132.302 234.843 136.232 232.509 140.217 230.261C141.485 229.577 142.671 228.752 143.753 227.801C148.724 226.589 153.725 225.463 158.579 223.806C158.988 223.664 159.438 223.508 159.837 223.876Z" fill="#389282"/>
<path d="M20.2686 80.7928C22.0922 80.4948 23.4611 79.2773 25.0119 78.4287C27.2344 77.2316 29.3762 75.9032 31.5785 74.6556C31.9978 74.4182 32.4826 73.8977 33.0231 74.5241C33.1152 74.8107 33.1339 75.1159 33.0774 75.4115C33.0209 75.7072 32.8911 75.9839 32.6999 76.2163C31.1915 78.9809 29.8422 81.8295 28.6589 84.748C28.4265 85.2531 28.3103 85.8087 27.7395 86.0562C26.6444 86.1828 25.6004 86.5899 24.7087 87.2381C22.6226 88.501 20.4808 89.688 18.3643 90.9003C17.7986 91.2286 17.2328 91.8047 16.46 91.345C17.4115 87.7229 18.681 84.1917 20.2535 80.7928H20.2686Z" fill="#2A373B"/>
<path d="M117.37 238.302C113.749 238.248 110.143 237.842 106.601 237.09C106.918 236.519 107.415 236.07 108.015 235.812C110.758 234.19 113.511 232.584 116.304 231.044C117.264 230.513 118.092 229.796 119.032 229.235C123.103 229.634 127.174 228.871 131.241 229.235C132.397 230.094 131.342 230.503 130.821 230.846C129.25 231.892 127.594 232.811 125.952 233.746C123.537 235.13 121.098 236.469 118.749 237.969C118.33 238.237 117.9 238.524 117.365 238.277L117.37 238.302Z" fill="#388D7E"/>
<path d="M126.781 20.1328C128.16 18.3143 130.358 17.7181 132.171 16.5614C133.984 15.4046 136.015 14.3137 137.944 13.1974C138.338 12.9784 138.658 12.6478 138.864 12.2476C142.263 12.4743 145.625 13.0862 148.886 14.0712C149.226 14.1418 149.574 14.1721 149.921 14.162C150.27 15.1723 149.35 15.324 148.835 15.6271C146.941 16.7333 145.072 17.8747 143.157 18.9405C141.794 19.5255 140.596 20.4361 139.667 21.5924C136.636 21.4762 133.686 20.9208 130.676 20.744C129.902 20.5607 129.105 20.4927 128.312 20.542C127.771 20.542 127.201 20.5923 126.796 20.1276L126.781 20.1328Z" fill="#2A373B"/>
<path d="M158.039 16.2738C161.743 17.2775 165.36 18.58 168.853 20.1683C169.273 21.1129 168.475 21.3959 167.934 21.7343C165.333 23.3558 162.651 24.8407 159.999 26.3712C157.928 26.3156 156.099 25.3207 154.164 24.7752C152.326 24.27 150.346 24.1488 148.664 23.1133C148.396 22.103 149.194 21.81 149.825 21.4514C151.957 20.229 154.038 18.9259 156.205 17.7742C156.931 17.4227 157.563 16.9033 158.049 16.2588L158.039 16.2738Z" fill="#2A3C3F"/>
<path d="M12.2751 110.879C12.5977 106.9 13.2962 102.961 14.3612 99.1143C15.5432 99.1143 16.3818 98.3313 17.3163 97.8211C19.2762 96.7553 21.1652 95.5632 23.1504 94.5378C23.6808 94.26 24.4385 93.6537 24.7971 94.8256C23.9435 98.5737 23.3172 102.377 22.0948 106.04C19.2812 107.555 16.5384 109.126 13.7703 110.727C13.3106 111.005 12.8206 111.349 12.2549 110.879H12.2751Z" fill="#2A3C3F"/>
<path d="M160.137 26.1597C161.879 24.4473 164.264 23.7755 166.198 22.351C167.118 21.664 168.547 21.5783 168.88 20.1689C172.341 21.4327 175.664 23.0475 178.796 24.9879C177.594 26.6093 175.639 27.1196 174.063 28.1955C173.182 28.7534 172.27 29.2594 171.33 29.7109C171.144 29.7829 170.982 29.9085 170.867 30.0722C170.752 30.2359 170.688 30.4301 170.684 30.6301C170.179 31.0191 169.724 30.7312 169.295 30.514C166.694 29.2451 164.03 28.1105 161.314 27.1145C160.834 26.9528 160.167 26.9022 160.137 26.1597Z" fill="#2B4042"/>
<path d="M60.0293 218.228C56.8323 216.156 53.8146 213.819 51.0078 211.242C53.5991 209.464 56.3774 208.004 59.1252 206.489C59.351 206.476 59.5768 206.511 59.7882 206.591C59.9997 206.671 60.192 206.795 60.3527 206.954C62.555 208.676 64.7877 210.378 67.1416 211.904C67.3723 212.006 67.5757 212.161 67.7346 212.357C67.8936 212.553 68.0037 212.784 68.0559 213.03C68.0361 213.257 67.9577 213.474 67.8283 213.661C67.699 213.848 67.5233 213.998 67.3184 214.096C64.8685 215.445 62.5449 217.011 60.0293 218.228Z" fill="#34736A"/>
<path d="M232.802 161.053C231.844 164.244 230.645 167.358 229.216 170.368C225.352 172.818 221.321 174.99 217.361 177.283C217.129 177.474 216.852 177.601 216.556 177.654C216.261 177.706 215.957 177.681 215.673 177.581C215.421 177.106 215.673 176.717 215.906 176.338C217.511 173.6 218.949 170.766 220.21 167.852C220.355 167.424 220.654 167.064 221.048 166.842C224.079 165.726 226.645 163.761 229.464 162.255C230.125 161.902 230.777 161.528 231.439 161.164C231.863 160.927 232.328 160.604 232.802 161.053Z" fill="#388C7D"/>
<path d="M12.2743 110.874C14.0271 110.531 15.305 109.263 16.8507 108.516C18.0933 107.914 19.2703 107.157 20.4826 106.495C20.8968 106.212 21.3905 106.069 21.8918 106.086C22.12 106.695 22.1536 107.361 21.9879 107.99C21.6091 110.743 21.2656 113.501 21.0837 116.279C21.0709 116.578 20.9746 116.866 20.8059 117.113C18.058 117.926 15.8051 119.704 13.3097 121.013C12.7288 121.316 12.1985 121.972 11.4307 121.412V121.103C11.7186 119.987 11.3348 118.83 11.6429 117.714C11.6078 115.426 11.8195 113.142 12.2743 110.9V110.874Z" fill="#2B4042"/>
<path d="M117.37 238.308L122.876 235.116C125.447 233.625 128.033 232.145 130.589 230.62C130.983 230.393 131.534 230.206 131.6 229.61C132.329 229.08 133.228 228.835 134.125 228.923C136.747 228.69 139.343 228.312 141.945 227.913C142.51 227.827 143.132 227.594 143.617 228.145C143.111 229.428 141.803 229.776 140.763 230.388C136.656 232.792 132.504 235.131 128.392 237.525C127.998 237.757 127.447 237.934 127.382 238.535C124.045 238.784 120.693 238.711 117.37 238.318V238.308Z" fill="#389081"/>
<path d="M236.808 104.782C237.477 107.638 237.878 110.55 238.006 113.48C238.283 115.728 238.278 115.718 236.425 116.764C234.778 117.693 233.161 118.678 231.515 119.608C231.111 119.796 230.775 120.102 230.547 120.485C230.32 120.868 230.214 121.31 230.242 121.754C230.242 122.366 230.56 123.194 229.625 123.517C229.465 123.399 229.337 123.241 229.255 123.058C229.172 122.876 229.138 122.676 229.156 122.477C229.221 118.309 228.681 114.178 228.383 110.036C228.499 109.53 228.939 109.379 229.333 109.167C231.863 107.772 234.348 106.328 236.808 104.782Z" fill="#34736A"/>
<path d="M181.478 36.6713C183.498 35.0549 185.903 34.0699 188.044 32.6303C188.58 32.2767 189.09 31.8979 189.615 31.5342C192.395 33.2836 195.017 35.273 197.45 37.4795C197.581 38.6009 196.606 38.8484 195.934 39.2374C193.939 40.4244 191.893 41.5408 189.929 42.7733C189.835 42.8038 189.734 42.8038 189.641 42.7733C186.797 41.071 184.226 38.9949 181.533 37.0805C181.422 36.9997 181.427 36.8178 181.478 36.6713Z" fill="#2D4949"/>
<path d="M203.413 42.7578C205.883 44.9811 208.186 47.3834 210.303 49.9453C210.338 50.9555 209.449 51.1776 208.838 51.5918C206.995 52.8192 204.914 53.6577 203.176 55.0518C202.671 55.1831 202.322 54.8346 202.004 54.5467C200.081 52.6542 198.174 50.7451 196.281 48.819C196.124 48.6915 195.996 48.5326 195.904 48.3526C195.811 48.1726 195.758 47.9752 195.746 47.7733C196.009 46.9701 196.756 46.7329 197.393 46.3591C199.413 45.157 201.509 44.1366 203.413 42.7729V42.7578Z" fill="#2E504F"/>
<path d="M17.4204 161.649C16.2426 158.631 15.3349 155.514 14.708 152.335C14.9858 151.598 15.7183 151.386 16.289 151.047C17.9659 150.073 19.653 149.113 21.34 148.148C21.9057 147.82 22.4966 147.476 23.0522 148.199C24.1084 151.162 24.8912 154.215 25.3908 157.321C23.071 159.008 20.5947 160.469 17.9962 161.685C17.904 161.724 17.8041 161.741 17.7042 161.735C17.6043 161.729 17.5071 161.699 17.4204 161.649Z" fill="#2E504F"/>
<path d="M236.813 104.786C236.773 104.927 236.778 105.144 236.687 105.205C234.208 107.003 231.526 108.503 228.697 109.675C228.51 109.546 228.356 109.376 228.246 109.178C228.136 108.98 228.072 108.76 228.06 108.533C227.722 106.165 227.131 103.841 226.762 101.462C226.719 101.017 226.817 100.569 227.043 100.183C227.268 99.7966 227.61 99.4913 228.02 99.3106C230.262 98.0377 232.485 96.7245 234.717 95.4365C235.69 98.4796 236.39 101.603 236.808 104.771L236.813 104.786Z" fill="#336E66"/>
<path d="M234.717 95.4414C234.318 96.6536 233.04 96.7395 232.192 97.3355C230.822 98.2458 229.394 99.0675 227.919 99.7954C227.646 99.9153 227.423 100.125 227.287 100.39C227.151 100.655 227.11 100.959 227.171 101.25C227.11 101.262 227.046 101.263 226.985 101.25C226.923 101.238 226.865 101.214 226.813 101.179C226.76 101.144 226.716 101.099 226.682 101.046C226.648 100.993 226.625 100.933 226.616 100.871C225.868 97.8406 224.787 94.8757 224.166 91.7795C224.179 91.5784 224.238 91.383 224.337 91.208C224.437 91.033 224.575 90.883 224.742 90.7693C227.037 89.2047 229.47 87.8522 232.01 86.7285C233.191 89.5316 234.102 92.4407 234.733 95.4163L234.717 95.4414Z" fill="#326962"/>
<path d="M59.2086 206.691C56.7589 208.156 54.3193 209.631 51.8594 211.075C51.5838 211.176 51.294 211.232 51.0008 211.242C48.6931 209.365 46.5004 207.351 44.4346 205.211C44.4598 205.065 44.4851 204.883 44.6013 204.807C47.0442 203.053 49.6855 201.593 52.4706 200.458C54.3041 201.408 55.5466 203.064 57.1124 204.342C57.9155 205.009 59.0672 205.408 59.2086 206.691Z" fill="#336E66"/>
<path d="M60.0283 218.229C61.175 216.921 62.8571 216.426 64.226 215.451C65.4282 214.597 67.0193 214.314 67.8932 212.976C70.2168 213.622 72.1262 215.087 74.1972 216.218C74.97 216.648 76.0662 216.723 76.3541 217.845C74.2131 219.441 71.9344 220.845 69.545 222.038C68.8984 222.421 68.3782 223.174 67.4589 222.992C64.8522 221.616 62.3665 220.023 60.0283 218.229Z" fill="#34786D"/>
<path d="M24.5986 94.648C24.0632 94.1025 23.6692 94.648 23.3005 94.8702C20.7498 96.2946 18.2244 97.7695 15.6635 99.1838C15.2898 99.3909 14.724 100.31 14.3604 99.1179C14.8053 96.4639 15.5107 93.8603 16.4666 91.3447C19.1215 90.1079 21.6929 88.699 24.1642 87.1271C24.9522 86.6927 25.7503 86.2886 26.5484 85.8745C26.912 85.6825 27.2807 85.5008 27.5989 85.9452C27.7114 86.0867 27.7785 86.2589 27.7911 86.4392C27.8037 86.6196 27.7614 86.7997 27.6697 86.9554C26.8565 89.2637 26.0987 91.5821 25.3259 93.9005C25.2249 94.2238 25.1643 94.7036 24.5986 94.648Z" fill="#2A393D"/>
<path d="M158.039 16.2748C158.428 17.0375 157.772 17.2193 157.342 17.4769C154.962 18.8812 152.574 20.2721 150.18 21.6494C149.624 21.9727 149.008 22.1998 148.725 22.8464C148.555 22.9952 148.349 23.0968 148.127 23.1411C147.906 23.1854 147.676 23.1709 147.462 23.099C145.32 22.6696 143.184 22.195 141.012 21.9121C140.811 21.8932 140.618 21.8315 140.443 21.7313C140.269 21.6311 140.118 21.4945 140.001 21.331C139.496 20.5885 140.001 20.3209 140.582 19.9875C143.296 18.4621 145.991 16.9113 148.664 15.3353C149.169 15.0474 149.776 14.8554 149.907 14.1685C152.248 14.5575 154.542 15.1836 156.756 16.0373C157.188 16.09 157.617 16.1694 158.039 16.2748Z" fill="#2A393D"/>
<path d="M232.001 86.7696C230.037 88.1082 228.002 89.3389 225.904 90.4567C225.354 90.7951 224.727 91.0174 224.444 91.6639C223.98 91.7144 223.843 91.3609 223.732 91.0427C222.874 88.6586 221.934 86.3099 221.045 83.941C220.935 83.6616 220.907 83.3569 220.964 83.0622C221.817 82.0982 222.892 81.3561 224.096 80.9003C225.523 79.9263 227.046 79.1019 228.642 78.4404C230.01 81.1098 231.135 83.8976 232.001 86.7696Z" fill="#31655F"/>
<path d="M52.5266 200.718C49.755 202.072 47.0574 203.572 44.445 205.213C42.3121 203.128 40.297 200.926 38.4092 198.616C39.3285 197.414 40.773 197 41.9953 196.268C43.3237 195.381 44.7205 194.6 46.1724 193.934C47.2887 194.374 47.8392 195.449 48.6726 196.202C49.7737 197.212 50.8092 198.283 51.8396 199.359C52.1881 199.733 52.7488 200.036 52.5266 200.718Z" fill="#326962"/>
<path d="M237.924 137.626C237.665 140.961 237.159 144.271 236.409 147.531C233.626 148.779 231.06 150.41 228.424 151.92C227.727 152.314 227.014 153.001 226.115 152.279C225.943 151.504 226.025 150.695 226.348 149.971C226.772 147.996 227.161 146.006 227.767 144.071C228.024 143.579 228.436 143.184 228.939 142.95C231.303 141.737 233.485 140.212 235.874 139.045C236.647 138.667 237.101 137.894 237.894 137.626H237.924Z" fill="#368275"/>
<path d="M46.2075 194.115C43.6867 195.752 41.0819 197.256 38.4038 198.62C36.4278 196.458 34.6193 194.148 32.9941 191.711C33.2012 191.074 33.7821 190.822 34.2923 190.539C35.9389 189.609 37.5905 188.675 39.222 187.705C39.4299 187.532 39.6733 187.405 39.935 187.336C40.1968 187.266 40.4705 187.254 40.7373 187.301C42.5708 188.64 43.6618 190.64 45.1316 192.302C45.5811 192.807 46.4045 193.186 46.1873 194.115H46.2075Z" fill="#31655F"/>
<path d="M229.853 123.513C229.297 120.856 230.469 119.285 232.884 118.33C234.02 117.886 234.97 116.956 236.106 116.507C236.758 116.354 237.322 115.949 237.675 115.381C238.029 114.813 238.142 114.128 237.991 113.476C238.329 115.364 238.511 117.276 238.536 119.194C238.612 120.821 238.571 122.452 238.587 124.079C238.237 124.569 237.76 124.955 237.208 125.195C235.121 126.296 233.167 127.579 231.075 128.685C230.8 128.854 230.571 129.089 230.41 129.369C230.249 129.648 230.16 129.964 230.151 130.287C230.06 130.716 229.974 131.443 229.277 130.686C228.895 128.283 229.093 125.824 229.853 123.513Z" fill="#34786D"/>
<path d="M232.803 161.054C230.378 161.867 228.383 163.478 226.141 164.62C224.474 165.463 223.07 166.867 221.09 167.044C220.974 166.881 220.908 166.688 220.899 166.488C220.891 166.289 220.939 166.091 221.039 165.918C221.968 163.786 222.807 161.619 223.59 159.437C223.686 159.207 223.839 159.006 224.034 158.851C227.035 157.467 229.808 155.689 232.676 154.053C233.374 153.659 234.045 152.937 234.985 153.548C234.484 156.11 233.758 158.623 232.818 161.059L232.803 161.054Z" fill="#37887A"/>
<path d="M11.426 121.391C13.1584 121.007 14.4565 119.754 15.9718 119.007C17.0376 118.502 18.0226 117.81 19.0681 117.249C19.4671 117.037 19.9216 116.608 20.3813 117.189C20.6412 117.558 20.8152 117.982 20.8903 118.427C20.9655 118.873 20.94 119.33 20.8157 119.765C20.4672 122.507 20.9471 125.235 20.8461 127.967C20.8851 128.664 20.8272 129.363 20.6743 130.043C20.1187 130.841 19.8914 130.291 19.7853 129.776C19.6515 128.783 19.6211 127.779 19.6944 126.78C19.6944 125.816 19.356 125.614 18.5226 126.119C16.684 127.23 14.8506 128.366 12.906 129.296C12.3605 129.553 11.6633 129.998 11.4209 128.912L11.426 121.391Z" fill="#2C4345"/>
<path d="M88.3071 232.535C85.6197 231.783 83.0073 230.786 80.5029 229.555C80.5029 228.903 80.9677 228.59 81.4324 228.312C84.0187 226.761 86.7109 225.392 89.2113 223.695C89.4271 223.574 89.6713 223.513 89.9186 223.518C92.5769 224.09 95.1723 224.923 97.6672 226.004C97.8086 226.842 97.1621 227.145 96.6216 227.469C94.7325 228.595 92.8433 229.732 90.9238 230.797C90.0105 231.312 89.1359 231.893 88.3071 232.535Z" fill="#368275"/>
<path d="M22.7758 148.137C21.114 148.228 20.0129 149.501 18.6087 150.157C17.2046 150.814 16.0075 151.612 14.7145 152.35C13.8801 149.606 13.2853 146.796 12.9365 143.95C15.2448 142.788 17.442 141.424 19.7049 140.187C20.21 139.894 20.8211 139.177 21.5282 139.97C21.9373 142.126 22.4576 144.263 22.8415 146.425C22.9476 146.991 23.2203 147.592 22.7758 148.152V148.137Z" fill="#2D4C4B"/>
<path d="M11.4298 128.911C11.8036 129.547 12.2531 129.245 12.6824 128.997C14.7028 127.84 16.7586 126.689 18.7436 125.502C19.7538 124.906 20.0771 125.082 20.0973 126.3C20.0973 127.669 19.7337 129.078 20.3499 130.411C20.6036 130.814 20.7619 131.27 20.8127 131.744C20.8634 132.217 20.8053 132.696 20.6427 133.144C19.6073 134.447 17.9557 134.806 16.6626 135.73C15.7037 136.367 14.7048 136.943 13.6724 137.452C13.1673 137.735 12.4956 138.225 12.0107 137.336L11.9197 136.21C11.6268 135.508 11.9703 134.735 11.6975 134.028C11.4234 132.339 11.3252 130.626 11.4045 128.916L11.4298 128.911Z" fill="#2C4647"/>
<path d="M203.408 42.7567C202.787 44.3377 201.06 44.4235 199.913 45.2822C198.661 46.2267 197.085 46.7014 195.898 47.7722C195.226 47.9439 194.933 47.3782 194.519 47.0651C193.18 46.0549 191.958 44.8577 190.645 43.8071C190.286 43.5142 189.725 43.302 189.887 42.6605C191.261 41.0493 193.312 40.4889 194.999 39.3675C195.857 38.7867 196.898 38.4582 197.433 37.4683C198.936 38.5093 200.294 39.7439 201.474 41.1403C201.992 41.8027 202.645 42.3483 203.388 42.7414L203.408 42.7567Z" fill="#2D4C4B"/>
<path d="M215.73 177.577C219.159 176.061 222.236 173.96 225.514 172.192C226.721 171.54 227.747 170.505 229.217 170.369C228.332 172.658 227.282 174.88 226.075 177.016C223.802 177.446 222.064 178.956 220.104 180.001C217.553 181.365 215.053 182.85 212.558 184.27C212.156 184.575 211.672 184.751 211.168 184.775C210.921 184.351 211.168 183.997 211.36 183.664C212.593 181.784 213.851 179.916 215.023 177.996C215.154 177.749 215.356 177.476 215.73 177.577Z" fill="#388E7E"/>
<path d="M203.111 55.0322C203.672 53.5623 205.258 53.4664 206.323 52.6835C207.616 51.7339 209.243 51.2592 210.309 49.9561C212.086 51.7887 213.706 53.7672 215.152 55.8707C215.511 56.4667 215.152 56.8302 214.698 57.0878C212.563 58.5167 210.318 59.775 207.985 60.8509C207.81 60.8661 207.634 60.8377 207.473 60.768C207.311 60.6984 207.17 60.5897 207.061 60.4518C205.828 58.9719 204.571 57.5072 203.363 55.997C203.237 55.8755 203.147 55.7218 203.103 55.5525C203.058 55.3833 203.061 55.2048 203.111 55.0371V55.0322Z" fill="#2F5552"/>
<path d="M17.4219 161.648C19.513 160.451 21.604 159.239 23.7103 158.052C24.1936 157.817 24.6913 157.613 25.2003 157.44C25.3013 157.471 25.4326 157.491 25.468 157.567C26.7352 159.752 27.5992 162.147 28.0188 164.638C25.8519 166.103 23.5537 167.35 21.2706 168.633C21.0817 168.756 20.8591 168.818 20.6337 168.809C20.4083 168.8 20.1914 168.721 20.013 168.583C18.9509 166.35 18.0841 164.03 17.4219 161.648Z" fill="#2F5552"/>
<path d="M89.8826 223.827C86.8518 225.848 83.4018 227.252 80.5276 229.555C78.099 228.697 75.7622 227.599 73.5518 226.277C74.8449 224.847 76.6684 224.216 78.2444 223.216C79.6234 222.342 81.0428 221.539 82.4218 220.66C84.9588 221.299 87.4133 222.229 89.7361 223.433C89.8472 223.494 89.8826 223.676 89.8826 223.827Z" fill="#367F73"/>
<path d="M118.674 229.605C118.542 230.676 117.492 230.767 116.835 231.156C113.461 233.202 110.021 235.127 106.606 237.097C104.476 236.929 102.372 236.522 100.332 235.884C100.151 235.323 100.54 235.01 100.903 234.788C104.378 232.636 107.884 230.545 111.481 228.595C113.444 228.636 115.404 228.792 117.35 229.06C117.597 229.053 117.842 229.097 118.07 229.191C118.298 229.285 118.504 229.427 118.674 229.605Z" fill="#378A7B"/>
<path d="M237.918 137.631C237.156 139.424 235.221 139.621 233.837 140.556C231.999 141.793 230.019 142.814 228.099 143.925C227.998 143.853 227.917 143.755 227.866 143.641C227.816 143.527 227.797 143.402 227.811 143.278C228.043 140.917 228.438 138.574 228.993 136.268C231.014 134.863 233.226 133.697 235.393 132.495C236.653 131.889 237.733 130.965 238.524 129.812C238.545 132.431 238.342 135.047 237.918 137.631Z" fill="#367F73"/>
<path d="M238.525 129.82C238.46 130.362 238.247 130.875 237.911 131.304C237.574 131.734 237.126 132.062 236.616 132.255C234.505 133.361 232.474 134.634 230.413 135.836C230.068 136.043 229.668 136.14 229.267 136.114C228.917 135.297 228.767 134.408 228.828 133.521C228.888 132.635 229.158 131.775 229.615 131.012C229.545 129.098 230.843 128.295 232.313 127.532C234.444 126.441 236.51 125.244 238.606 124.093C238.715 126.002 238.689 127.916 238.525 129.82Z" fill="#357B70"/>
<path d="M82.3039 220.789C81.5361 222.082 80.1118 222.451 78.9299 223.158C77.1469 224.229 75.3235 225.249 73.5152 226.28C71.3912 225.391 69.3609 224.292 67.4541 223.002C70.3028 221.133 73.2526 219.441 76.268 217.85C76.4277 217.768 76.6074 217.733 76.7862 217.749C76.965 217.765 77.1356 217.831 77.2782 217.941C78.6116 218.607 79.9804 219.204 81.3189 219.815C81.7533 220.002 82.3039 220.158 82.3039 220.789Z" fill="#357B70"/>
<path d="M40.7914 187.491C39.0842 187.814 37.8618 189.092 36.3415 189.784C35.1798 190.32 34.1039 191.062 32.9927 191.709C31.5414 189.91 30.2311 188.001 29.0732 186.001C29.0908 185.876 29.1345 185.756 29.2015 185.649C29.2685 185.542 29.3572 185.45 29.4621 185.38C31.7706 183.915 34.1509 182.566 36.5941 181.339C36.7888 181.381 36.9713 181.468 37.1279 181.591C37.2845 181.715 37.4111 181.872 37.4982 182.051C38.4478 183.491 39.4932 184.875 40.4479 186.314C40.6802 186.637 41.0339 186.996 40.7914 187.491Z" fill="#31615C"/>
<path d="M25.5287 179.986C24.2146 177.887 23.0921 175.674 22.1748 173.374C24.4578 172.814 26.2611 171.314 28.2966 170.268C28.9482 169.935 29.534 169.354 30.3725 169.687C31.4685 171.379 32.3323 173.223 33.3021 174.971C33.4133 175.135 33.4818 175.325 33.5012 175.522C33.5206 175.72 33.4903 175.919 33.4132 176.102C31.3019 177.577 28.9886 178.708 26.7763 180.011C26.595 180.147 26.3735 180.217 26.1473 180.212C25.921 180.206 25.7032 180.125 25.5287 179.981V179.986Z" fill="#2F5A56"/>
<path d="M228.656 78.4392C226.255 80.1224 223.733 81.6252 221.11 82.9348C220.958 82.9348 220.761 82.9346 220.7 82.8184C219.69 80.798 218.372 78.9293 217.993 76.6361C219.594 75.1916 221.61 74.4188 223.408 73.2874C224.058 72.7354 224.862 72.3952 225.711 72.3125C226.881 74.2588 227.867 76.3099 228.656 78.4392Z" fill="#31615C"/>
<path d="M218.89 60.958C220.194 62.6722 221.353 64.4918 222.355 66.3979C222.517 67.1504 221.85 67.312 221.441 67.5696C219.33 68.8121 217.224 70.0632 215.122 71.3225C215.072 71.3225 215.006 71.3225 214.976 71.3225C213.189 69.6312 211.854 67.5197 211.092 65.1805C211.408 64.666 211.881 64.2661 212.44 64.0391C214.042 63.1299 215.648 62.2206 217.229 61.266C217.739 60.9478 218.254 60.5893 218.89 60.958Z" fill="#2F5A56"/>
<path d="M234.969 153.532C232.701 153.947 231.095 155.654 229.08 156.563C227.428 157.311 226.079 158.684 224.185 158.942C224.079 158.839 224.006 158.707 223.974 158.562C223.943 158.418 223.955 158.267 224.008 158.129C224.514 156.391 225.079 154.659 225.645 152.931C225.689 152.79 225.768 152.662 225.874 152.558C225.979 152.454 226.109 152.377 226.251 152.335C228.519 151.936 230.11 150.204 232.13 149.305C233.55 148.683 234.656 147.315 236.409 147.507C236.11 149.554 235.628 151.571 234.969 153.532Z" fill="#368578"/>
<path d="M25.5283 179.981C27.6952 179.475 29.362 177.96 31.3015 177.001C31.9233 176.59 32.6048 176.278 33.3219 176.076C34.6453 177 36.6657 180.314 36.6303 181.481L29.0841 186.027C27.7468 184.116 26.5644 182.1 25.5484 180.001L25.5283 179.981Z" fill="#305E59"/>
<path d="M215.118 71.253C216.315 69.768 218.148 69.2326 219.664 68.2224C220.648 67.7586 221.556 67.1472 222.356 66.4092C223.649 68.2816 224.771 70.266 225.709 72.3389C223.214 73.8542 220.745 75.3947 218.103 76.6524C217.982 76.6872 217.853 76.6824 217.735 76.6388C217.617 76.5952 217.516 76.5151 217.446 76.41C216.542 74.9289 215.722 73.3978 214.991 71.8239C214.955 71.7267 214.948 71.621 214.971 71.5198C214.993 71.4186 215.044 71.326 215.118 71.253Z" fill="#305E59"/>
<path d="M111.173 228.952C108.41 230.973 105.308 232.453 102.404 234.241C101.577 234.588 100.861 235.154 100.333 235.878C98.279 235.597 96.263 235.089 94.3216 234.362C93.9125 233.489 94.6448 233.236 95.155 232.918C96.9634 231.781 98.8273 230.746 100.711 229.72C101.934 229.048 103.02 228.205 104.202 227.467C106.455 227.392 108.591 228.114 110.769 228.392C110.894 228.412 111.008 228.478 111.087 228.579C111.126 228.631 111.154 228.692 111.169 228.756C111.184 228.821 111.185 228.888 111.173 228.952Z" fill="#37877A"/>
<path d="M103.943 227.73C102.882 229.503 100.857 229.892 99.3059 230.948C97.9622 231.867 96.4974 232.599 95.073 233.387C94.6537 233.615 94.3304 233.867 94.3203 234.398C92.2613 233.989 90.2501 233.368 88.3193 232.544C88.7335 231.074 90.2136 230.918 91.239 230.236C93.3252 228.831 95.6992 227.872 97.6541 226.255C97.8071 226.127 97.992 226.041 98.1893 226.008C98.3866 225.975 98.5891 225.996 98.7756 226.068L103.12 227.079C103.478 227.129 103.923 227.195 103.943 227.73Z" fill="#368577"/>
<path d="M12.0305 137.323C12.9296 137.854 13.4954 137.086 14.1621 136.762C16.2835 135.727 18.0967 134.111 20.3949 133.409C21.3488 135.367 21.6532 137.579 21.2637 139.722C19.2433 140.884 17.2582 142.071 15.2025 143.162C14.5105 143.536 13.8893 144.283 12.9296 143.94C12.4406 141.765 12.1365 139.554 12.0205 137.328L12.0305 137.323Z" fill="#2D4949"/>
<path d="M218.896 60.9534C216.256 62.2369 213.687 63.6599 211.198 65.2164C210.368 64.74 209.646 64.0946 209.081 63.322C208.515 62.5494 208.118 61.6666 207.915 60.731C209.991 59.4884 212.062 58.2309 214.143 56.9985C214.618 56.7207 215.153 56.5287 215.153 55.8418C216.541 57.4335 217.791 59.1402 218.891 60.9433L218.896 60.9534Z" fill="#2F5754"/>
<path d="M30.2767 169.773C28.1326 170.744 26.0629 171.872 24.0842 173.147C23.4529 173.5 22.8821 173.839 22.1851 173.374C21.3012 171.859 20.5784 170.256 20.0283 168.591C22.074 168.182 23.5994 166.778 25.3622 165.838C26.1466 165.332 26.9962 164.934 27.8876 164.656C29.2381 166.044 30.08 167.847 30.2767 169.773Z" fill="#2F5754"/>
<path d="M11.6476 117.693C11.5921 118.825 11.9304 119.981 11.4304 121.083C11.2976 119.949 11.3713 118.801 11.6476 117.693Z" fill="#2C4345"/>
<path d="M11.729 134.02C12.2088 134.706 11.8957 135.469 11.9512 136.201C11.6841 135.507 11.6074 134.754 11.729 134.02Z" fill="#2D4949"/>
<path d="M134.333 238.217C134.924 237.767 135.591 238.04 136.232 238.01C135.639 238.286 134.972 238.359 134.333 238.217Z" fill="#399584"/>
<path d="M30.2771 169.772L27.8979 164.66C26.9988 162.256 26.103 159.852 25.2106 157.447L22.7809 148.138C22.3415 145.324 21.3817 142.582 21.2655 139.723C20.9726 137.621 20.6813 135.518 20.3917 133.413V130.408C20.4624 126.003 20.1088 121.598 20.3917 117.189C20.7154 115.602 20.9115 113.993 20.9777 112.375C21.3161 110.279 21.5838 108.172 21.8868 106.071C22.7658 102.262 23.4477 98.403 24.5944 94.6549L27.5999 85.9466C28.7465 83.9261 29.5143 81.7034 30.4942 79.597C31.2873 77.8846 32.1662 76.2127 33.0199 74.5457C34.9949 71.4038 36.9094 68.2216 38.945 65.1252C40.1079 63.2342 41.4438 61.4552 42.9356 59.8112C45.5522 56.7299 48.3353 53.8103 51.0731 50.8452C54.3363 47.3093 58.145 44.425 61.7061 41.2478C62.6125 40.5512 63.5717 39.9262 64.5752 39.3787C69.6773 35.777 75.102 32.6555 80.7797 30.054C80.906 30.0035 80.9969 29.8571 81.108 29.7561C88.6436 26.2788 96.578 23.7409 104.733 22.1994C106.2 22.0611 107.648 21.7663 109.052 21.3204C111.183 21.3557 113.224 20.578 115.366 20.7144C115.815 20.3709 116.416 20.785 116.881 20.4213H119.589C123.289 20.189 127.001 20.189 130.702 20.4213C133.824 20.5289 136.936 20.8291 140.021 21.3204L148.73 22.8357L160.151 26.1445L170.667 30.63C174.42 32.3777 177.87 34.6711 181.482 36.6562L189.902 42.6571L195.908 47.774C198.212 50.2794 200.615 52.6873 203.117 54.9974C204.597 57.0019 206.201 58.9115 207.92 60.7154C208.851 62.327 209.952 63.8341 211.204 65.211C212.367 67.3097 213.675 69.325 215.118 71.2422C215.952 73.1213 216.953 74.9219 218.109 76.622L221.109 82.9309L224.453 91.6495L227.161 101.247C227.676 104.049 228.19 106.852 228.701 109.657C229.317 114.115 229.636 118.609 229.656 123.109C229.656 123.235 229.792 123.366 229.863 123.493C229.909 125.993 229.419 128.478 229.616 130.984C229.412 132.679 229.299 134.384 229.277 136.091L228.105 143.9L226.251 152.315L224.185 158.922C223.155 161.616 222.12 164.31 221.079 167.004L215.725 177.536L211.178 184.729C206.944 190.513 202.258 195.954 197.166 201C193.767 204.03 190.342 206.995 186.665 209.678C178.661 215.517 169.863 220.183 160.539 223.533C160.307 223.624 160.085 223.745 159.858 223.847C154.543 225.599 149.124 227.019 143.633 228.1C139.637 228.706 135.642 229.256 131.611 229.575C127.302 229.479 122.998 230.024 118.69 229.575L111.193 228.918L103.965 227.695L97.6762 226.216L89.8821 223.796L82.3356 220.765L76.274 217.82C74.1121 216.588 71.945 215.36 69.7932 214.118C69.1466 213.749 68.5253 213.34 67.8939 212.946L59.2209 206.667L52.5381 200.691L46.2139 194.079L40.7989 187.472L36.6316 181.456C35.6233 179.598 34.519 177.794 33.323 176.051C32.6259 173.803 31.0045 172.01 30.2922 169.752L30.2771 169.772Z" fill="#192123"/>
<path d="M130.686 20.4313H119.574C120.898 19.805 122.297 20.2546 123.66 20.1536C124.706 20.0778 125.747 20.1536 126.792 20.1536C128.075 20.3051 129.424 19.7848 130.686 20.4313Z" fill="#293237"/>
<path d="M116.866 20.4357C116.442 20.9407 115.856 20.668 115.351 20.7286C115.785 20.2387 116.361 20.5064 116.866 20.4357Z" fill="#293237"/>
<path d="M98.5338 152.128C97.6217 152.767 96.5444 153.129 95.4314 153.17C94.3183 153.211 93.217 152.93 92.2601 152.36C90.8054 147.576 89.7345 142.702 88.401 137.883C85.0621 125.644 81.8344 113.374 78.5611 101.12C78.3337 100.463 78.2729 99.76 78.3843 99.074C78.4196 98.6749 78.7176 98.4729 78.9955 98.2608C82.1121 96.7454 85.5621 96.508 88.8505 95.5534C89.5134 95.3603 90.1884 95.2116 90.871 95.1087C91.5243 95.4577 92.0545 95.9993 92.3897 96.6598C92.725 97.3203 92.849 98.0678 92.745 98.8012C93.7906 96.8312 93.9877 94.2802 96.7103 93.6993C97.5472 93.5893 98.377 93.4308 99.1955 93.2245C99.4417 93.2053 99.6873 93.2695 99.8927 93.4066C100.28 93.8049 100.525 94.3197 100.59 94.8714C103.428 106.961 106.299 119.04 109.202 131.109C109.318 131.491 109.384 131.887 109.399 132.286C109.258 133.903 108.217 135.115 107.485 136.453C104.904 141.176 102.358 145.914 99.6905 150.597C99.3733 151.16 98.9845 151.68 98.5338 152.143V152.128Z" fill="#1FC8A7"/>
<path d="M171.82 150.871C171.58 151.382 171.177 151.798 170.673 152.053C168.247 152.982 165.732 153.659 163.167 154.073C152.746 156.533 142.335 159.029 131.909 161.468C126.798 162.666 121.696 163.918 116.574 165.08C116.052 165.268 115.486 165.297 114.947 165.161C114.215 164.626 114.74 164.09 114.993 163.6C116.953 159.771 119.11 156.059 121.181 152.29C124.817 145.683 128.414 139.051 132.101 132.474C132.788 131.252 133.112 129.736 134.546 129.004C135.949 129.357 137.279 129.954 138.476 130.767C145.002 134.328 151.544 137.869 158.07 141.44C162.399 143.814 166.814 146.042 171.032 148.618C171.399 149.322 171.663 150.076 171.815 150.856L171.82 150.871Z" fill="#1FC8A7"/>
<path d="M114.79 164.979C119.336 164.181 123.821 162.958 128.332 161.882C142.107 158.664 155.861 155.376 169.631 152.123C169.976 152.073 170.324 152.047 170.672 152.047C168.063 153.961 165.333 155.704 162.499 157.265C146.722 166.991 130.933 176.687 115.133 186.356C113.259 187.507 111.405 188.674 109.516 189.806C108.322 190.61 106.869 190.937 105.446 190.722C104.022 190.507 102.731 189.765 101.828 188.644C101.495 188.164 101.828 187.785 102.035 187.406C105.965 180.223 109.89 173.041 113.88 165.893C114.098 165.514 114.274 165.08 114.79 164.979Z" fill="#198889"/>
<path d="M99.7618 93.4587H99.1355C98.8223 93.6557 98.5848 93.6204 98.4484 93.2466C97.6301 93.0597 99.6102 93.0296 98.4484 92.6608C96.7866 92.1153 94.9378 91.7212 94.1852 89.7815C94.0438 89.4178 93.8114 89.0693 94.0387 88.6551C97.8878 86.3365 101.752 84.0534 105.586 81.7096C117.126 74.6378 128.662 67.5525 140.192 60.4538C141.443 59.5522 142.993 59.166 144.52 59.3747C146.048 59.5834 147.437 60.3712 148.401 61.5752C147.144 64.3538 145.718 67.0529 144.132 69.6573C141.607 74.3196 139.025 78.9465 136.474 83.5937C136.183 84.2884 135.708 84.8908 135.101 85.3365C130.501 86.6397 125.85 87.7342 121.149 88.6198C119.765 88.9936 118.381 89.3723 116.971 89.6804C114.562 90.3168 112.148 90.9484 109.698 91.4232C107.004 92.0192 104.325 92.6473 101.661 93.3073C101.054 93.5554 100.384 93.6048 99.7467 93.4486L99.7618 93.4587Z" fill="#198889"/>
<path d="M114.79 164.982L101.823 188.657C101.103 188.038 100.572 187.227 100.292 186.32C100.011 185.412 99.9923 184.443 100.237 183.525C101.369 178.78 102.512 174.042 103.667 169.311C103.89 168.492 104.254 167.717 104.743 167.023C119.644 144.639 134.546 122.245 149.447 99.8407C149.866 98.9795 150.559 98.2813 151.417 97.8555C151.735 98.5172 151.281 99.0174 151.023 99.5225C149.644 102.24 148.093 104.867 146.648 107.544C146.195 108.32 145.82 109.139 145.527 109.989C144.466 111.557 143.502 113.189 142.638 114.873C141.318 117.173 140.05 119.495 138.834 121.839C137.677 124.026 136.379 126.133 135.298 128.335C135.171 128.66 134.938 128.932 134.637 129.108C133.381 130.78 132.307 132.582 131.434 134.482C125.878 144.474 120.392 154.511 114.891 164.532C114.83 164.675 114.795 164.827 114.79 164.982Z" fill="#68FDE1"/>
<path d="M135.197 85.0313C138.819 78.4647 142.426 71.8981 146.083 65.3617C146.655 63.9864 147.437 62.7084 148.402 61.5732C149.073 62.384 149.53 63.3506 149.731 64.3842C149.931 65.4179 149.868 66.4853 149.548 67.4883C148.427 71.8677 147.381 76.2673 146.295 80.6569C146.056 81.5214 145.67 82.3381 145.153 83.0713C130.266 105.425 115.385 127.785 100.51 150.152C100.084 151.009 99.3882 151.703 98.5303 152.128L107.865 135.034C108.376 134.234 108.793 133.378 109.108 132.483C109.891 129.917 111.461 127.75 112.689 125.411C113.775 123.33 114.962 121.299 116.048 119.213C117.978 116.087 119.645 112.823 121.423 109.616C122.615 107.388 123.802 105.161 125.039 102.958C127.807 98.1191 130.444 93.2042 133.121 88.3095C133.678 87.1368 134.375 86.0362 135.197 85.0313Z" fill="#68FDE1"/>
<path d="M171.814 150.869C170.951 150.42 171.193 149.505 170.941 148.793C169.617 146.525 169.425 143.893 168.657 141.454C168.316 140.061 167.879 138.694 167.349 137.362C166.647 133.963 165.495 130.674 164.824 127.26C164.258 124.592 163.525 121.961 162.631 119.385C160.867 112.767 159.116 106.148 157.378 99.5279C157.206 98.8814 156.681 98.1036 157.691 97.6187C158.875 98.1791 159.812 99.1554 160.323 100.362C165.62 111.057 170.912 121.754 176.199 132.452C176.541 133.033 176.763 133.677 176.85 134.345C176.937 135.014 176.887 135.693 176.704 136.342C175.108 141.206 173.699 146.116 171.814 150.869Z" fill="#68FDE1"/>
<path d="M78.386 99.062C80.154 105.612 81.9186 112.163 83.6798 118.717C86.4883 129.223 89.28 139.735 92.0548 150.252C92.2316 150.908 92.8377 151.595 92.2619 152.353C91.1859 151.81 90.3246 150.92 89.8171 149.827C84.5335 139.166 79.2464 128.511 73.9561 117.863C73.546 117.063 73.3044 116.188 73.2462 115.291C73.188 114.395 73.3144 113.496 73.6177 112.65C74.9259 108.695 76.209 104.724 77.5273 100.769C77.6433 100.129 77.9415 99.5366 78.386 99.062Z" fill="#68FDE1"/>
<path d="M157.701 97.6296C157.226 98.0741 157.524 98.5388 157.65 99.0086C159.395 105.555 161.131 112.098 162.858 118.638C162.924 118.87 163.055 119.108 162.858 119.34C162.591 119.383 162.318 119.37 162.057 119.3C161.796 119.231 161.552 119.106 161.343 118.936C156.291 116.238 151.286 113.46 146.234 110.773C145.886 110.586 145.522 110.389 145.431 109.945C145.073 108.934 145.896 108.283 146.285 107.53C147.942 104.282 149.952 101.216 151.442 97.8822C152.349 97.2269 153.428 96.8532 154.546 96.8083C155.664 96.7634 156.77 97.0492 157.726 97.6296H157.701Z" fill="#1FC8A7"/>
<path d="M94.0486 88.6595C94.5537 91.0588 96.6044 91.66 98.5238 92.357C99.4229 92.6803 99.2511 92.9025 98.5238 93.2005C98.0187 93.8217 97.2358 93.7712 96.5741 94.0237C95.958 94.2234 95.4016 94.5738 94.9553 95.043C94.509 95.5123 94.1869 96.0855 94.0183 96.7107C93.69 97.4835 93.3768 98.2614 93.0081 99.1504C92.2353 97.7816 91.9979 96.3068 91.0836 95.1905C89.6845 94.4278 88.0531 94.1248 86.8611 92.9479C86.6793 92.7408 86.7348 92.6196 86.9975 92.559C88.5395 92.2777 89.947 91.4993 91.005 90.3428C92.063 89.1863 92.7132 87.7152 92.8565 86.1543L94.0486 88.6595Z" fill="#FDFEFE"/>
<path d="M86.8921 92.9424C88.3367 93.6142 90.0085 93.8617 91.1146 95.18C89.5185 96.1549 87.6346 96.1902 85.8971 96.665C83.6292 97.3166 81.2956 97.7308 78.9873 98.2511C81.0835 96.4529 83.614 95.3215 85.8718 93.7809C86.2405 93.5334 86.6951 93.4222 86.8921 92.9424Z" fill="#19898A"/>
<path d="M116.311 119.26C115.099 122.22 113.315 124.877 111.851 127.701C111.007 129.332 110.027 130.893 109.113 132.484C106.082 119.755 103.051 107.031 100.02 94.3116C99.9498 94.0187 99.8437 93.7359 99.7578 93.4531C103.006 92.4428 106.325 91.771 109.643 91.0537C110.128 91.4938 110.437 92.0952 110.512 92.7459C112.502 100.993 114.465 109.243 116.402 117.497C116.503 117.783 116.547 118.085 116.532 118.388C116.516 118.69 116.441 118.987 116.311 119.26Z" fill="#A4E8DB"/>
<path d="M96.5938 94.0223C97.1771 93.6069 97.8442 93.3241 98.5484 93.1938L99.1344 93.4565C98.366 93.888 97.488 94.0847 96.6089 94.0223H96.5938Z" fill="#2AA197"/>
<path d="M167.671 137.369C168.752 138.884 168.797 140.698 169.282 142.39C169.888 144.516 170.398 146.668 170.949 148.81L156.982 141.289C149.52 137.248 142.064 133.198 134.615 129.14C135.595 126.473 137.318 124.19 138.535 121.649C139.192 121.346 139.697 121.74 140.212 122.028C148.925 126.847 157.695 131.56 166.443 136.308C166.949 136.531 167.376 136.901 167.671 137.369Z" fill="#A4E8DB"/>
<path d="M131.493 165.094C132.201 164.892 132.834 164.488 133.315 163.93C133.795 163.373 134.101 162.687 134.195 161.957C134.354 162.748 134.753 163.471 135.338 164.027C135.923 164.583 136.665 164.945 137.463 165.063C136.662 165.166 135.916 165.526 135.337 166.089C134.758 166.651 134.377 167.387 134.251 168.185C134.144 167.456 133.825 166.776 133.335 166.226C132.845 165.677 132.205 165.283 131.493 165.094Z" fill="#F9FBFB"/>
<path d="M116.312 119.259C115.302 114.895 114.291 110.526 113.281 106.166C112.094 101.115 110.871 96.0942 109.659 91.058L116.898 89.2852C117.276 89.6879 117.515 90.2013 117.58 90.75C118.913 96.367 120.232 101.984 121.621 107.591C121.858 108.25 121.904 108.963 121.752 109.647C120.169 112.976 118.351 116.188 116.312 119.259Z" fill="#1FC8A7"/>
<path d="M135.197 85.0371C134.186 87.3072 133.029 89.5093 131.732 91.6292C129.904 95.059 128.025 98.4584 126.176 101.863C125.912 102.279 125.625 102.681 125.317 103.065C124.635 102.656 124.585 101.908 124.433 101.257C123.685 98.0087 122.918 94.7811 122.145 91.5382C121.904 90.4233 121.557 89.3341 121.109 88.2852L135.197 85.0371Z" fill="#1FC8A7"/>
<path d="M121.089 88.2852C121.832 88.3104 121.877 88.861 122.014 89.4217C123.098 93.9746 124.194 98.5207 125.302 103.06L121.726 109.627C119.983 102.868 118.346 96.0894 116.892 89.2651L121.089 88.2852Z" fill="#A4E8DB"/>
<path d="M167.673 137.368L140.154 122.422C139.649 122.139 139.078 121.917 138.532 121.654C139.83 119.356 140.916 116.941 142.427 114.759C143.366 114.592 144.048 115.193 144.77 115.592C151.105 119.128 157.535 122.482 163.874 126.013C164.433 126.242 164.907 126.637 165.233 127.144C165.981 130.115 166.749 133.08 167.471 136.055C167.559 136.489 167.625 136.928 167.668 137.368H167.673Z" fill="#1FC8A7"/>
<path d="M165.227 127.125L142.415 114.744C143.35 113.102 143.834 111.208 145.4 109.95L162.847 119.34C163.984 120.826 163.903 122.725 164.56 124.392C164.849 125.286 165.07 126.202 165.222 127.129L165.227 127.125Z" fill="#A4E8DB"/>
<path d="M112.612 98.4747C113.398 98.3697 114.128 98.0125 114.692 97.4568C115.257 96.9012 115.626 96.177 115.744 95.3936C115.879 96.1597 116.251 96.8641 116.807 97.4078C117.363 97.9514 118.076 98.307 118.845 98.4241C117.249 98.9999 116.133 99.6919 115.815 101.278C115.595 100.559 115.178 99.9157 114.612 99.4205C114.047 98.9253 113.354 98.5978 112.612 98.4747Z" fill="#FAFDFC"/>
</g>
<defs>
<clipPath id="clip0_242_94375">
<rect width="227.307" height="227.302" fill="white" transform="translate(11.3652 11.3628)"/>
</clipPath>
</defs>
</svg>
