<svg width="250" height="250" viewBox="0 0 250 250" fill="none" xmlns="http://www.w3.org/2000/svg">
<path d="M125.001 240.499C190.999 240.499 244.501 186.997 244.501 120.999C244.501 55.0005 190.999 1.49854 125.001 1.49854C59.0029 1.49854 5.50098 55.0005 5.50098 120.999C5.50098 186.997 59.0029 240.499 125.001 240.499Z" fill="url(#paint0_radial_242_93778)"/>
<path d="M164.948 120.849C173.348 124.199 177.048 130.749 176.798 139.899C176.648 145.349 176.748 150.849 176.748 156.649C173.798 156.649 171.148 156.649 168.548 156.649C162.298 156.649 156.048 156.599 149.798 156.699C148.048 156.699 147.448 156.099 147.498 154.399C147.598 149.649 147.548 144.899 147.548 140.149C147.548 134.999 145.348 132.699 140.098 132.649C132.598 132.549 125.098 132.649 117.598 132.649C113.748 132.649 109.948 132.649 105.848 132.649C105.798 133.649 105.698 134.499 105.698 135.399C105.698 141.749 105.698 148.049 105.698 154.399C105.698 155.599 105.798 156.749 103.948 156.699C95.0977 156.649 86.2977 156.649 77.4477 156.649C77.1977 156.649 76.9977 156.499 76.5977 156.399C76.5977 132.849 76.5977 109.299 76.5977 85.4993C77.3977 85.4493 78.1977 85.3993 78.9977 85.3993C102.248 85.3993 125.498 85.2493 148.748 85.5493C153.898 85.5993 159.248 86.4993 164.148 88.0993C176.548 92.1993 180.048 109.049 170.498 117.499C168.798 118.899 166.698 119.799 164.948 120.849ZM105.748 112.749C106.698 112.799 107.448 112.899 108.198 112.899C119.048 112.899 129.848 112.899 140.698 112.899C144.448 112.899 145.948 111.949 145.948 109.749C145.948 107.549 144.348 106.549 140.698 106.549C129.848 106.549 119.048 106.549 108.198 106.549C107.398 106.549 106.598 106.599 105.748 106.649C105.748 108.799 105.748 110.649 105.748 112.749Z" fill="white"/>
<defs>
<radialGradient id="paint0_radial_242_93778" cx="0" cy="0" r="1" gradientUnits="userSpaceOnUse" gradientTransform="translate(63.5415 64.8424) scale(186.653)">
<stop offset="0.1678" stop-color="#2B6FFE"/>
<stop offset="0.5059" stop-color="#5899FF"/>
<stop offset="0.8038" stop-color="#FF74F1"/>
</radialGradient>
</defs>
</svg>
