<svg width="250" height="250" viewBox="0 0 250 250" fill="none" xmlns="http://www.w3.org/2000/svg">
<g clip-path="url(#clip0_242_94223)">
<path d="M100.072 225.716C44.4292 211.925 10.4998 155.641 24.2907 99.9985C33.5476 62.6434 62.7164 33.4746 100.072 24.2177V2.51743C32.4393 16.2706 -11.2257 82.2403 2.52747 149.873C12.5275 199.016 50.928 237.429 100.072 247.417V225.716ZM116.948 21.5225C119.643 21.3084 122.351 21.1698 125.084 21.1698C129.177 21.1698 133.271 21.4091 137.339 21.8877V0.615664C133.258 0.212641 129.177 0.0111296 125.084 -0.00146484C122.313 -0.00146484 119.643 0.12448 116.948 0.288208V21.5225Z" fill="#231F20"/>
<path d="M154.201 3.45166V25.3156C184.377 34.1821 208.924 56.1973 221.002 85.2401H197.223C175.284 45.4164 125.221 30.9076 85.3846 52.8471C45.5483 74.7867 31.0521 124.85 52.9916 164.686C74.9312 204.522 124.994 219.018 164.83 197.079C181.228 188.049 194.05 173.704 201.203 156.411H224.037C213.533 189.333 187.375 214.9 154.213 224.636V246.487C221.304 230.328 262.601 162.847 246.455 95.7564C235.473 50.1267 199.843 14.5096 154.213 3.51463L154.201 3.45166ZM144.478 178.477L120.397 144.283H80.309V123.275H127.375C138.873 123.275 143.004 116.071 143.004 107.494C143.004 98.9177 137.803 91.0839 126.14 91.0839H80.3216V71.4617H128.546C143.823 71.4617 168.105 78.2124 168.105 106.726C168.105 135.24 146.644 140.92 146.644 140.92L174.251 178.489H144.566L144.478 178.477Z" fill="#D31F26"/>
<path d="M137.34 228.045C133.272 228.524 129.178 228.763 125.085 228.763C122.314 228.763 119.644 228.625 116.949 228.411V249.62C119.644 249.796 122.352 249.909 125.085 249.909C129.254 249.909 133.309 249.695 137.34 249.292V228.045Z" fill="#231F20"/>
</g>
<defs>
<clipPath id="clip0_242_94223">
<rect width="250" height="250" rx="125" fill="white"/>
</clipPath>
</defs>
</svg>
