<svg width="250" height="250" viewBox="0 0 250 250" fill="none" xmlns="http://www.w3.org/2000/svg">
<rect width="250" height="250" rx="125" fill="white"/>
<path d="M194.285 135.431C180.539 135.431 166.734 135.431 152.756 135.431C152.388 130.076 152.368 125.077 151.653 120.18C148.226 96.6985 136.887 77.2917 120.403 60.6462C105.051 45.1447 86.7976 33.9192 67.1549 24.7672C65.8995 24.1824 64.6916 23.4961 63.6504 22.125C90.7883 22.125 117.926 22.125 145.244 22.125C173.984 43.1179 201.602 106.551 194.285 135.431ZM91.9456 100.157C91.9456 142.394 91.9456 184.544 91.9456 227.593C109.878 216.122 127.137 205.08 144.626 193.892C137.344 178.157 94.9831 102.821 91.9456 100.157Z" fill="black"/>
</svg>
