<svg width="250" height="250" viewBox="0 0 250 250" fill="none" xmlns="http://www.w3.org/2000/svg">
<g clip-path="url(#clip0_242_93784)">
<path d="M125.002 247.996C194.038 247.996 250.002 192.927 250.002 124.996C250.002 57.0651 194.038 1.99609 125.002 1.99609C55.9664 1.99609 0.00195312 57.0651 0.00195312 124.996C0.00195312 192.927 55.9664 247.996 125.002 247.996Z" fill="url(#paint0_linear_242_93784)"/>
<path d="M152.151 136.347L224.201 124.497L152.151 112.647L194.701 53.2974L135.351 95.8474L123.501 23.7974L111.651 95.8474L52.3008 53.2974L94.8508 112.647L22.8008 124.497L94.8508 136.347L52.3008 195.697L111.651 153.147L123.501 225.197L135.351 153.147L194.701 195.697L152.151 136.347Z" fill="white"/>
</g>
<defs>
<linearGradient id="paint0_linear_242_93784" x1="125.002" y1="2.98799" x2="125.002" y2="247.022" gradientUnits="userSpaceOnUse">
<stop offset="0.1028" stop-color="#00FFAA"/>
<stop offset="0.999" stop-color="#5F00FA"/>
</linearGradient>
<clipPath id="clip0_242_93784">
<rect width="250" height="250" rx="125" fill="white"/>
</clipPath>
</defs>
</svg>
