<svg width="250" height="250" viewBox="0 0 250 250" fill="none" xmlns="http://www.w3.org/2000/svg">
<g clip-path="url(#clip0_242_94723)">
<path d="M124.998 249.996C194.034 249.996 249.998 194.032 249.998 124.996C249.998 55.9605 194.034 -0.00390625 124.998 -0.00390625C55.9625 -0.00390625 -0.00195312 55.9605 -0.00195312 124.996C-0.00195312 194.032 55.9625 249.996 124.998 249.996Z" fill="#EDF0F4"/>
<path d="M175.084 88.5785C172.208 72.4335 158.312 61.3365 137.736 58.752C134.4 58.333 127.523 58.1955 123.756 58.472C105.556 59.81 88.144 67.4325 76.635 79.1C68.164 87.688 64.503 97.941 67.961 103.394C69.4845 105.797 71.7195 106.807 75.513 106.807C78.0005 106.807 79.8155 106.216 81.706 104.79C84.232 102.884 85.7535 100.757 90.7215 92.1875C96.3225 82.525 102.142 77.6405 111.793 74.5035C117.716 72.5785 124.546 71.81 131.432 72.294C137.606 72.7275 140.952 73.525 144.937 75.513C147.52 76.8015 148.84 77.743 150.696 79.6205C155.914 84.899 157.332 93.2385 154.46 101.764C152.505 107.566 148.993 112.958 144.085 117.693C136.603 124.91 127.021 129.037 118.399 128.755L115.76 128.669L118.355 123.102C123.973 111.047 127.063 102.956 127.336 99.578C127.473 97.891 127.406 97.4555 126.811 96.156C126.252 94.934 125.913 94.5615 124.924 94.0825C122.256 92.791 119.874 93.671 116.268 97.281C113.409 100.143 111.667 102.336 108.485 107.078C104.109 113.6 100.724 119.44 91.09 137.088C88.4805 141.868 83.3375 151.278 79.6615 157.999C71.427 173.054 70.5225 174.847 69.9945 177.17C69.1385 180.933 69.589 184.65 71.166 186.827C73.706 190.333 79.3285 191.17 83.473 188.657C85.3525 187.517 88.273 184.44 90.192 181.579C93.393 176.806 97.459 167.133 103.471 149.988C104.529 146.97 105.955 143.387 106.199 143.135C106.305 143.025 107.098 145.042 107.962 147.616C113.869 165.223 121.23 177.596 129.457 183.751C133.797 186.998 137.773 188.348 142.952 188.33C154.031 188.292 166.031 182.505 177.089 171.868C180.99 168.115 182.996 164.291 182.764 161.051C182.447 156.633 177.545 155.562 173.98 159.13C173.391 159.718 171.974 161.241 170.83 162.514C168.184 165.459 164.79 168.016 160.824 170.048C155.171 172.946 151.83 173.719 145.643 173.562C142.223 173.476 141.509 173.379 140.45 172.859C134.778 170.074 128.444 159.928 125.077 148.239C124.558 146.438 124.063 144.456 123.978 143.835L123.823 142.708L125.418 142.397C135.734 140.389 148.975 134.169 157.701 127.23C160.521 124.989 164.996 120.547 166.922 118.077C171.17 112.632 173.999 106.728 175.072 101.074C175.617 98.1995 175.624 91.6055 175.084 88.5785Z" fill="#681BFF"/>
</g>
<defs>
<clipPath id="clip0_242_94723">
<rect width="250" height="250" fill="white"/>
</clipPath>
</defs>
</svg>
