<svg width="250" height="250" viewBox="0 0 250 250" fill="none" xmlns="http://www.w3.org/2000/svg">
<rect width="250" height="250" rx="125" fill="white"/>
<g clip-path="url(#clip0_242_94386)">
<path d="M34.3655 81.8467L16.1256 92.4108C15.1346 95.7264 14.2935 99.1031 13.6025 102.541L29.941 93.0786C30.8152 90.3792 31.809 87.7126 32.9223 85.0789C33.3831 83.9899 33.8681 82.915 34.3655 81.8467Z" fill="#B1BDC8"/>
<path d="M161.006 17.1739C157.717 16.0774 154.365 15.1294 150.947 14.3301L131.679 25.4893C135.695 25.8244 139.686 26.408 143.63 27.2368L161.006 17.1739Z" fill="#B1BDC8"/>
<path d="M187.604 28.6284C184.316 27.5316 180.963 26.5836 177.546 25.7844L159.123 34.3212C163.155 34.6585 166.297 37.8644 170.229 38.6911L187.604 28.6284Z" fill="#B1BDC8"/>
<path d="M204.324 43.5924C202.203 41.5258 200.002 39.5435 197.722 37.6455L183.614 45.8157C185.963 47.6471 188.231 49.5902 190.419 51.6448L204.324 43.5924Z" fill="#B1BDC8"/>
<path d="M13.0635 144.592C13.5735 147.53 14.1944 150.427 14.926 153.284L27.8056 145.825C27.1213 142.917 26.5715 139.978 26.1563 137.01L13.0635 144.592Z" fill="#B1BDC8"/>
<path d="M11.5877 118.131C11.4516 120.408 11.3827 122.702 11.3809 125.013C11.3809 127.04 11.4339 129.054 11.54 131.055L25.2088 123.139C25.213 118.646 25.5227 114.157 26.1357 109.706L11.5877 118.131Z" fill="#B1BDC8"/>
<path d="M31.5526 158.075L18.79 165.466C19.8227 168.177 20.9549 170.836 22.1866 173.443L34.9837 166.033C34.2609 164.539 33.5739 163.024 32.9226 161.489C32.4436 160.357 31.9869 159.219 31.5526 158.075Z" fill="#B1BDC8"/>
<path d="M218.203 59.9188C216.544 57.5479 214.798 55.2445 212.965 53.0088L199.19 60.9871C201.032 63.223 202.766 65.533 204.394 67.9171L218.203 59.9188Z" fill="#B1BDC8"/>
<path d="M41.666 202.256C43.3655 204.09 45.124 205.866 46.9415 207.585L61.2574 199.293C59.2914 197.684 57.3832 195.994 55.5328 194.225L41.666 202.256Z" fill="#B1BDC8"/>
<path d="M235.539 98.3612C234.953 95.9198 234.288 93.5099 233.547 91.1316L218.654 99.7564C219.264 102.232 219.777 104.73 220.191 107.25L235.539 98.3612Z" fill="#B1BDC8"/>
<path d="M85.1436 32.858C91.2603 30.2677 97.626 28.3103 104.141 27.0163L130.915 11.5109C128.966 11.4108 127.005 11.3608 125.031 11.3608C80.7469 11.3608 42.3803 36.6892 23.623 73.6485L49.4696 58.6795C50.9066 57.0399 52.4004 55.4424 53.9509 53.8869C62.8897 44.9248 73.4832 37.783 85.1436 32.858Z" fill="#B1BDC8"/>
<path d="M214.788 87.5746L229.106 79.2819C227.791 76.2932 226.353 73.3741 224.792 70.5247L210.774 78.6416C211.848 80.7439 212.847 82.8893 213.773 85.0779C214.124 85.9067 214.462 86.7389 214.788 87.5746Z" fill="#B1BDC8"/>
<path d="M28.1279 184.423C29.835 187.202 31.656 189.899 33.5909 192.515L46.8881 184.815C44.8368 182.273 42.9144 179.629 41.1283 176.895L28.1279 184.423Z" fill="#B1BDC8"/>
<path d="M214.954 158.562L236.759 145.934C237.289 143.082 237.712 140.194 238.027 137.27L218.147 148.784C217.256 152.097 216.19 155.361 214.954 158.562Z" fill="#B1BDC8"/>
<path d="M79.4072 229.134C82.0735 230.304 84.7919 231.373 87.5624 232.34L108.366 220.292C104.973 219.773 101.609 219.074 98.2895 218.199L79.4072 229.134Z" fill="#B1BDC8"/>
<path d="M161.552 213.709C152.132 217.7 142.14 220.18 131.947 221.056L104.683 236.845C111.398 238.057 118.208 238.666 125.032 238.664C174.473 238.664 216.54 207.091 232.174 163.01L203.878 179.398C193.273 194.585 178.604 206.477 161.552 213.71V213.709Z" fill="#B1BDC8"/>
<path d="M57.0898 216.129C60.0448 218.336 63.1071 220.398 66.2767 222.317L82.8648 212.71C79.2902 211.093 75.816 209.261 72.4612 207.227L57.0898 216.129Z" fill="#B1BDC8"/>
<path d="M221.045 132.683L238.652 122.486C238.571 118.752 238.312 115.066 237.876 111.427L221.46 120.934C221.478 121.715 221.488 122.498 221.488 123.283C221.488 126.44 221.341 129.574 221.045 132.683Z" fill="#B1BDC8"/>
<path d="M187.985 187.98C222.761 153.204 222.761 96.8212 187.985 62.0453C153.209 27.2693 96.8264 27.2693 62.0504 62.0453C27.2745 96.8212 27.2745 153.204 62.0504 187.98C96.8264 222.756 153.209 222.756 187.985 187.98Z" fill="#FF8E00"/>
<path d="M159.754 99.8973C158.018 97.9398 155.828 96.4381 153.377 95.5238C151.929 94.9218 150.446 94.4092 148.936 93.9888C147.461 93.5701 145.863 93.1436 144.142 92.7093L147.057 76.9195L138.271 73.8475L134.754 90.3683L126.027 88.1933L130.591 71.2877L119.582 68.7278L115.921 85.6743L112.247 84.7585L110.474 84.3169L110.47 84.3323L97.1818 81.1435L94.8793 90.7434L102.047 92.6634C105.904 94.2063 106.889 96.6078 106.911 98.6162L106.015 102.212L95.9389 142.638C94.7161 143.808 92.7524 144.599 89.5972 144.068L82.477 141.979L79.4502 151.376L92.6951 155.652L97.7821 156.92L94.8793 172.647L103.665 175.719L107.169 159.259L115.892 161.433L111.346 178.279L122.354 180.839L126.002 163.952C128.193 164.494 130.182 164.933 131.972 165.269C133.825 165.618 135.532 165.872 137.093 166.032C140.03 166.331 142.996 165.925 145.745 164.848C152.871 162.055 157.188 157.635 158.696 151.586C159.822 147.07 159.429 142.818 157.519 138.829C155.331 134.886 152.06 131.958 147.707 130.045L147.788 129.722C152.025 129.722 155.728 128.718 158.895 126.709C161.95 124.54 164.108 121.331 164.967 117.685C166.635 110.991 164.897 105.062 159.754 99.8973ZM141.236 144.236C140.438 147.436 138.51 149.583 135.452 150.676C133.363 151.211 129.974 150.895 125.287 149.727L113.318 146.743L117.6 129.565L130.28 132.725C134.493 133.774 137.298 134.945 138.695 136.235C139.775 137.207 140.585 138.442 141.047 139.819C141.501 141.447 141.564 142.919 141.236 144.236ZM146.766 114.734C146.076 117.503 144.507 119.397 142.061 120.414C140.084 121.093 136.863 120.876 132.4 119.762L120.766 116.863L124.635 101.338L135.056 103.935C139.995 105.166 143.234 106.316 144.775 107.385C146.839 109.328 147.503 111.778 146.766 114.734Z" fill="white"/>
</g>
<defs>
<clipPath id="clip0_242_94386">
<rect width="227.302" height="227.302" fill="white" transform="translate(11.3652 11.3608)"/>
</clipPath>
</defs>
</svg>
