<svg width="250" height="250" viewBox="0 0 250 250" fill="none" xmlns="http://www.w3.org/2000/svg">
<rect width="250" height="250" rx="125" fill="#E61E1E"/>
<path d="M125.5 29V35.9245C174.327 35.9245 214.074 75.6632 214.074 124.481C214.074 173.298 174.327 213.037 125.5 213.037C76.6726 213.037 36.9259 173.298 36.9259 124.481C36.9259 105.092 43.0437 86.7424 54.6638 71.3162C57.0109 72.5857 59.6658 73.3166 62.5131 73.3166C71.6322 73.3166 79.0197 65.9305 79.0197 56.8133C79.0197 47.6961 71.6322 40.31 62.5131 40.31C53.394 40.31 46.0064 47.6961 46.0064 56.8133C46.0064 60.5833 47.2762 64.0455 49.3924 66.8153C36.695 83.511 30 103.477 30 124.519C30 177.184 72.8634 220 125.5 220C178.175 220 221 177.145 221 124.519C221 71.8933 178.175 29 125.5 29ZM62.5516 46.9652C67.9768 46.9652 72.4017 51.3507 72.4017 56.8133C72.4017 62.2375 68.0153 66.6614 62.5516 66.6614C57.1263 66.6614 52.7015 62.2759 52.7015 56.8133C52.7015 51.3507 57.0878 46.9652 62.5516 46.9652Z" fill="white"/>
<path d="M125.5 169C150.077 169 170 149.077 170 124.5C170 99.9233 150.077 80 125.5 80C100.923 80 81 99.9233 81 124.5C81 149.077 100.923 169 125.5 169Z" fill="white"/>
</svg>
