<svg width="250" height="250" viewBox="0 0 250 250" fill="none" xmlns="http://www.w3.org/2000/svg">
<g clip-path="url(#clip0_242_94802)">
<path fill-rule="evenodd" clip-rule="evenodd" d="M18.4295 190.357C20.4816 193.697 22.6894 196.937 25.0457 200.069L40.4012 191.204C37.9804 188.116 35.7303 184.897 33.6609 181.563L18.4295 190.357ZM219.664 74.1758C221.522 77.6309 223.189 81.1854 224.658 84.8232L240.014 75.958C238.475 72.3541 236.767 68.8247 234.895 65.3818L219.664 74.1758ZM228.82 55.3574L213.555 64.1709C211.318 60.9218 208.905 57.7977 206.327 54.8125L221.786 45.8867C224.278 48.9315 226.625 52.0919 228.82 55.3574ZM28.033 171.281L12.7674 180.095C11.0313 176.565 9.46376 172.955 8.07012 169.276L23.5311 160.35C24.8286 164.074 26.3316 167.723 28.033 171.281ZM1.52812 105.395C2.35442 100.145 3.51664 94.9541 5.00762 89.8535L29.5359 75.6934C26.5986 81.3679 24.1768 87.2947 22.2996 93.4023L1.52812 105.395ZM45.1346 53.1553C60.0721 36.5586 80.1072 24.6445 102.775 19.876L136.331 0.503906C132.563 0.165445 128.783 -0.00399585 125 -0.00390621C74.6814 -0.00390621 31.3084 29.7275 11.4871 72.5811L45.1346 53.1553ZM148.982 20.2617C142.745 18.8406 136.393 17.9794 130.002 17.6885L154.557 3.51172C159.727 4.76544 164.811 6.35042 169.777 8.25684L148.982 20.2617ZM105.305 248.453C111.819 249.482 118.404 249.998 125 249.996C178.301 249.996 223.809 216.636 241.786 169.656L213.4 186.044C195.559 211.83 166.727 229.431 133.677 232.072L105.305 248.453ZM224.204 166.274L246.798 153.23C247.937 148.293 248.774 143.291 249.305 138.252L229.582 149.639C228.248 155.322 226.449 160.886 224.204 166.274ZM111.169 231.536L88.5457 244.597C83.6945 243.12 78.9386 241.347 74.3045 239.288L94.0457 227.891C99.644 229.572 105.371 230.792 111.169 231.536ZM4.36992 157.88C3.29403 153.923 2.4147 149.914 1.73515 145.87L18.1736 136.379C18.611 140.534 19.2908 144.66 20.2098 148.735L4.36992 157.88ZM197.932 46.127C194.871 43.2949 191.645 40.6387 188.269 38.1738L204.694 28.6914C207.851 31.3067 210.878 34.075 213.764 36.9863L197.932 46.127ZM177.152 31.0605L194.47 21.0615C190.747 18.5675 186.892 16.2758 182.923 14.1963L164.258 24.9736C168.687 26.7133 172.994 28.7468 177.152 31.0605ZM0.263475 133.187L17.5926 123.182C17.6727 118.361 18.0701 113.619 18.7645 108.974L0.108202 119.746C-0.0767325 124.226 -0.0245763 128.713 0.264452 133.188L0.263475 133.187ZM50.9471 225.709C54.4607 228.297 58.115 230.705 61.8943 232.92L79.9051 222.522C75.7456 220.595 71.7139 218.403 67.8348 215.96L50.9471 225.709ZM232.347 120.978C232.517 125.56 232.397 130.149 231.988 134.717L249.998 124.319C249.976 119.943 249.726 115.57 249.25 111.22L232.347 120.978ZM247.259 98.8369L231.11 108.16C230.472 104.105 229.601 100.09 228.501 96.1357L244.152 87.0996C245.379 90.959 246.415 94.8761 247.259 98.8369ZM57.3758 208.466L41.24 217.782C38.2352 215.068 35.363 212.211 32.6336 209.22L48.2801 200.186C51.1512 203.114 54.1883 205.88 57.3768 208.466H57.3758Z" fill="#B3BDC7"/>
<path d="M124.999 222.652C178.933 222.652 222.655 178.93 222.655 124.996C222.655 71.0618 178.933 27.3396 124.999 27.3396C71.065 27.3396 27.3428 71.0618 27.3428 124.996C27.3428 178.93 71.065 222.652 124.999 222.652Z" fill="white"/>
<path fill-rule="evenodd" clip-rule="evenodd" d="M125.364 27.3436C71.2334 26.8553 27.8301 70.8007 27.3428 124.51C27.3428 178.707 71.2334 222.652 124.877 222.652C178.743 222.786 222.52 179.175 222.655 125.242C222.789 71.3094 179.231 27.4784 125.364 27.3436ZM171.693 71.2889C169.742 72.7528 167.304 72.2645 165.354 70.3124C163.891 68.8475 162.915 67.3827 161.399 65.9178C158.474 61.9579 154.084 61.5233 150.671 64.9413C148.019 67.6134 145.871 70.7423 144.331 74.1776C140.917 84.4315 138.479 95.1737 135.105 105.849L161.927 109.808L159.976 117.133L134.103 113.279L131.217 128.957L159.014 132.916L157.063 140.239L129.754 136.281C127.803 142.628 126.827 149.477 124.389 155.323C121.951 162.159 119.513 168.995 116.586 175.343C112.633 183.642 105.857 189.502 96.5918 190.967C91.2275 191.943 85.375 191.455 80.9863 188.037C80.2186 187.55 79.5616 186.907 79.0576 186.15C78.5537 185.393 78.214 184.539 78.0605 183.642C78.0516 182.624 78.2652 181.615 78.6864 180.687C79.1076 179.76 79.7262 178.935 80.499 178.271C81.4736 177.784 83.9121 178.271 85.375 178.76C86.9622 180.335 88.2964 182.147 89.3301 184.131C92.2559 188.09 96.1562 188.525 100.059 185.596C104.447 181.637 106.886 176.358 108.349 170.948C111.274 159.229 114.201 147.999 116.639 136.281V134.235L90.793 130.276L91.7676 122.952L118.59 126.911L121.951 111.802L94.1533 107.42L95.1289 99.6073L123.901 103.566C124.877 100.637 125.364 98.1952 126.34 95.7538C128.778 86.9647 131.217 78.1757 137.068 70.3641C142.921 62.5516 149.748 57.6688 159.989 58.1571C162.177 58.0752 164.357 58.4694 166.378 59.3124C168.399 60.1555 170.212 61.4273 171.693 63.0399C172.453 63.6565 172.971 64.5209 173.156 65.4813C173.156 67.3817 173.156 69.8241 171.693 71.2889Z" fill="#0090FF"/>
</g>
<defs>
<clipPath id="clip0_242_94802">
<rect width="250" height="250" fill="white"/>
</clipPath>
</defs>
</svg>
