<svg width="250" height="250" viewBox="0 0 250 250" fill="none" xmlns="http://www.w3.org/2000/svg">
<g clip-path="url(#clip0_242_93788)">
<path d="M125 0.496094C56.25 0.496094 0.5 56.2461 0.5 124.996C0.5 193.746 56.25 249.496 125 249.496C193.75 249.496 249.5 193.746 249.5 124.996C249.5 56.2461 193.75 0.496094 125 0.496094Z" fill="white"/>
<path d="M125 11.4961C140.35 11.4961 155.2 14.4961 169.2 20.3961C182.7 26.0961 194.85 34.2961 205.3 44.7461C215.75 55.1961 223.9 67.2961 229.65 80.8461C235.55 94.8461 238.55 109.696 238.55 125.046C238.55 140.396 235.55 155.246 229.65 169.246C223.95 182.746 215.75 194.896 205.3 205.346C194.85 215.796 182.75 223.946 169.2 229.696C155.2 235.496 140.35 238.496 125 238.496C109.65 238.496 94.8 235.496 80.8 229.596C67.3 223.896 55.15 215.696 44.7 205.246C34.25 194.796 26.1 182.696 20.35 169.146C14.5 155.196 11.5 140.346 11.5 124.996C11.5 109.646 14.5 94.7961 20.4 80.7961C26.1 67.2961 34.3 55.1461 44.75 44.6961C55.2 34.2461 67.3 26.0961 80.85 20.3461C94.8 14.4961 109.65 11.4961 125 11.4961ZM125 0.496094C56.25 0.496094 0.5 56.2461 0.5 124.996C0.5 193.746 56.25 249.496 125 249.496C193.75 249.496 249.5 193.746 249.5 124.996C249.5 56.2461 193.75 0.496094 125 0.496094Z" fill="url(#paint0_linear_242_93788)"/>
<path d="M124.949 31.4958L70.6494 121.446L124.949 154.646L179.349 121.446L124.949 31.4958Z" fill="url(#paint1_linear_242_93788)"/>
<path d="M124.949 166.047L70.6494 133.797L124.949 210.497L179.349 133.797L124.949 166.047Z" fill="url(#paint2_linear_242_93788)"/>
</g>
<defs>
<linearGradient id="paint0_linear_242_93788" x1="125" y1="249.496" x2="125" y2="0.496094" gradientUnits="userSpaceOnUse">
<stop stop-color="#FDA264"/>
<stop offset="1" stop-color="#F4606C"/>
</linearGradient>
<linearGradient id="paint1_linear_242_93788" x1="124.999" y1="209.996" x2="124.999" y2="36.9496" gradientUnits="userSpaceOnUse">
<stop stop-color="#FDA264"/>
<stop offset="1" stop-color="#F4606C"/>
</linearGradient>
<linearGradient id="paint2_linear_242_93788" x1="124.999" y1="209.997" x2="124.999" y2="36.9506" gradientUnits="userSpaceOnUse">
<stop stop-color="#FDA264"/>
<stop offset="1" stop-color="#F4606C"/>
</linearGradient>
<clipPath id="clip0_242_93788">
<rect width="250" height="250" rx="125" fill="white"/>
</clipPath>
</defs>
</svg>
