<svg width="250" height="250" viewBox="0 0 250 250" fill="none" xmlns="http://www.w3.org/2000/svg">
<path d="M180.825 204.898C169.491 185.42 155.649 167.641 143.237 148.889C139.279 142.901 133.27 143.916 127.551 143.874C99.8673 143.626 102.312 148.267 109.731 119.506C111.388 113.041 115.16 110.7 121.521 110.804C132.441 110.99 143.382 110.534 154.302 110.928C161.803 111.197 165.512 107.986 167.274 100.92C171.128 85.3789 175.604 70.0038 179.437 54.463C181.095 47.7494 184.576 44.662 191.642 45.0142C199.143 45.3872 206.686 45.3872 214.166 45.0142C222.517 44.6205 224.091 48.1846 222.061 55.6234C216.549 75.6607 210.996 95.698 206.375 115.963C204.282 125.184 199.682 128.396 190.689 127.691C186.814 127.38 181.364 125.702 179.188 129.473C176.598 133.928 181.364 137.762 184.016 140.808C193.755 151.873 196.097 163.352 190.15 177.318C186.462 185.98 185.198 195.677 182.856 204.919H180.805L180.825 204.898Z" fill="#81C341"/>
<path d="M26.9883 204.897C31.3397 179.658 39.9598 155.539 46.0933 130.757C49.8438 115.547 54.444 100.545 58.3396 85.3568C60.0387 78.7053 63.582 75.8251 70.6065 75.8251C79.641 75.8251 88.7998 76.9855 99.492 74.6854C91.1413 66.7907 83.7646 59.9735 76.5743 52.949C74.7922 51.2085 71.2282 49.7166 73.0102 46.4841C74.2535 44.2255 77.341 45.075 79.6617 45.075C104.589 45.0543 129.538 45.2615 154.466 45.0129C162.464 44.93 164.681 47.6652 162.588 55.4563C155.522 81.7513 158.216 77.5242 134.739 77.9387C127.569 78.063 120.379 78.2909 113.23 77.8972C105.75 77.4828 102.269 80.7153 100.424 87.9055C93.8973 113.31 86.5205 138.506 80.1383 163.931C78.1284 171.929 73.9634 176.82 67.0632 180.964C54.2367 188.651 40.54 195.033 29.0604 204.855H27.009L26.9883 204.897Z" fill="#81C341"/>
</svg>
