<svg width="250" height="250" viewBox="0 0 250 250" fill="none" xmlns="http://www.w3.org/2000/svg">
<path d="M99.0051 67.5844C106.083 67.5844 111.821 61.8467 111.821 54.7688C111.821 47.6909 106.083 41.9531 99.0051 41.9531C91.9272 41.9531 86.1895 47.6909 86.1895 54.7688C86.1895 61.8467 91.9272 67.5844 99.0051 67.5844Z" fill="#8352A1"/>
<path d="M156.45 207.231C163.528 207.231 169.266 201.493 169.266 194.416C169.266 187.338 163.528 181.6 156.45 181.6C149.373 181.6 143.635 187.338 143.635 194.416C143.635 201.493 149.373 207.231 156.45 207.231Z" fill="#3E99D3"/>
<path d="M150.76 45.0475L91.3774 90.9211C86.1779 94.9377 85.2196 102.408 89.2369 107.607C93.2542 112.806 100.726 113.765 105.925 109.748L165.308 63.8746C170.507 59.858 171.466 52.3873 167.448 47.1883C163.431 41.9893 155.96 41.0309 150.76 45.0475Z" fill="#E53C54"/>
<path d="M150.754 91.891L91.3715 137.765C86.172 141.781 85.2137 149.252 89.231 154.451C93.2483 159.65 100.72 160.608 105.919 156.592L165.302 110.718C170.502 106.702 171.46 99.2308 167.443 94.0318C163.425 88.8328 155.954 87.8744 150.754 91.891Z" fill="#F49352"/>
<path d="M90.4926 186.381L149.875 140.508C155.075 136.491 162.546 137.45 166.564 142.649C170.581 147.847 169.623 155.318 164.423 159.335L105.041 205.208C99.8411 209.225 92.3694 208.267 88.3521 203.068C84.3348 197.869 85.2931 190.398 90.4926 186.381Z" fill="#3EBB90"/>
</svg>
