<svg width="250" height="250" viewBox="0 0 250 250" fill="none" xmlns="http://www.w3.org/2000/svg">
<path d="M76.0999 161.836C80.98 161.905 85.2965 163.395 89.3691 165.598C94.2796 168.254 98.9052 166.393 101.291 163.437C102.944 161.39 103.089 158.953 103.368 156.511C103.698 153.62 103.701 150.6 104.596 147.883C107.837 138.037 115.035 132.552 125.126 131.435C129.768 130.922 134.607 131.855 138.854 134.294C141.058 135.56 143.347 136.163 145.875 136.02C150.632 135.751 153.71 132.757 154.124 127.996C154.322 125.718 154.588 123.447 154.839 121.175C156.019 110.483 165.675 101.192 178.108 100.384C187.111 99.7999 196.583 105.948 200.289 114.696C207.369 131.404 195.889 147.121 180.066 149.255C175.075 149.928 170.048 148.227 165.495 145.697C160.883 143.133 154.836 144.483 152.709 149.732C152.005 151.469 151.946 153.553 151.958 155.476C151.983 159.335 150.989 162.91 149.411 166.356C144.502 177.071 130.704 184.364 116.009 176.988C113.907 175.933 111.928 175.091 109.53 175.182C104.621 175.37 101.019 178.917 100.704 183.863C100.518 186.781 100.336 189.736 99.7305 192.585C97.1377 204.771 85.1866 211.081 76.4664 210.669C64.9839 210.127 56.1751 202.559 53.3566 191.993C50.2475 180.338 57.4176 167.857 67.6345 163.912C70.3225 162.873 73.2712 162.509 76.0999 161.836ZM53.8641 130.677C57.3795 142.83 68.2403 150.284 80.8319 148.482C93.3983 146.685 101.487 135.585 100.911 124.899C100.809 122.988 101.143 120.94 101.771 119.126C103.544 114.01 109.29 111.833 114.184 114.232C115.213 114.737 116.175 115.404 117.24 115.805C122.191 117.669 127.194 118.847 132.566 117.62C143.289 115.171 151.58 104.196 151.119 93.0022C150.689 82.5561 142.748 71.5276 130.678 69.9617C116.612 68.1368 104.026 79.298 103.478 92.1934C103.402 93.9896 103.301 95.7917 103.071 97.5729C102.345 103.2 98.1566 106.238 92.1229 105.265C90.7278 105.04 89.4244 104.179 88.1077 103.55C83.7499 101.468 79.0774 100.135 74.3499 100.699C61.5256 102.231 52.7959 112.946 53.0699 124.367C53.3188 126.474 53.282 128.665 53.8641 130.677ZM76.1986 39.3049C62.6239 39.2237 52.2016 50.9056 52.1778 63.3058C52.1533 76.0979 62.7912 87.4397 76.0744 87.4446C89.1063 87.4495 100.256 76.9005 100.003 63.4419C100.351 50.7376 89.9239 39.3871 76.1986 39.3049Z" fill="#F5CA45"/>
</svg>
