<svg width="250" height="250" viewBox="0 0 250 250" fill="none" xmlns="http://www.w3.org/2000/svg">
<rect width="250" height="250" rx="125" fill="white"/>
<g clip-path="url(#clip0_242_94370)">
<path d="M87.3963 169.79L89.595 176.839H45.061L48.306 169.79H87.3963ZM51.583 162.672H85.176L83.1403 156.146H54.5872L51.583 162.672ZM91.0836 125.015C91.0836 125.015 102.494 124.988 107.801 113.843C113.109 102.698 105.413 101.106 103.29 101.106H79.9258L57.3733 150.094H81.2526L76.9806 136.398L81.5308 125.015H91.0838H91.0836ZM186.578 87.3151C193.757 87.1262 199.785 86.9662 201.638 86.9132C207.142 86.7559 215.161 85.3375 215.161 85.3375H151.684L153.838 88.1711C153.838 88.1711 161.03 87.984 169.868 87.7529L164.553 98.6852H181.051L186.578 87.3148V87.3151ZM174.671 112.033H158.173L151.684 125.381H168.182L174.671 112.033ZM105.063 147.278L119.392 176.838H98.6696L83.834 136.263C106.124 134.27 115.943 125.784 123.107 108.005C130.272 90.2255 104.267 91.0217 104.267 91.0217H70.8314L30.8548 176.839H11.3652L59.9518 73.1919H120.984C120.984 73.1919 148.29 75.0998 148.315 98.6859H164.554L158.065 112.034H145.389C143.299 116.824 140.224 121.305 136.6 125.381H151.685L145.196 138.729H128.699L135.187 125.381H118.874L112.385 138.729H121.107C115.363 142.603 109.657 145.536 105.063 147.278L105.063 147.278ZM125.035 112.033H141.533L148.021 98.6854H131.523L125.035 112.033ZM196.154 101.776C215.813 101.769 228.526 98.6854 228.526 98.6854H181.159L174.67 112.033H191.168L196.154 101.776H196.154ZM184.028 74.6486C190.081 74.6486 195.585 73.1914 195.585 73.1914H140.08L143.382 75.5133C143.382 75.5133 177.974 74.6484 184.028 74.6484L184.028 74.6486ZM208.635 112.033L207.299 114.037C207.299 114.037 221.537 113.604 238.668 112.033H208.635ZM161.7 138.729H178.198L183.827 127.148L206.591 125.381H168.188L161.7 138.728L161.7 138.729ZM116.025 150.094C116.025 150.094 158.979 149.11 163.873 148.877C168.766 148.644 171.787 147.66 171.787 147.66L120.314 148.083L116.025 150.093V150.094ZM121.462 163.247L152.757 161.254H120.375L121.462 163.247Z" fill="#FD4D00"/>
</g>
<defs>
<clipPath id="clip0_242_94370">
<rect width="227.302" height="227.302" fill="white" transform="translate(11.3652 11.3625)"/>
</clipPath>
</defs>
</svg>
