<svg width="250" height="250" viewBox="0 0 250 250" fill="none" xmlns="http://www.w3.org/2000/svg">
<rect width="250" height="250" rx="125" fill="white"/>
<g clip-path="url(#clip0_242_94371)">
<path d="M125.015 238.665C94.6571 238.665 66.1168 226.843 44.651 205.377C23.1853 183.911 11.3633 155.371 11.3633 125.014C11.3633 94.6564 23.1853 66.1163 44.6513 44.6503C66.1173 23.1843 94.6574 11.3625 125.015 11.3625C155.372 11.3625 183.912 23.1843 205.378 44.6503C226.845 66.1163 238.666 94.6564 238.666 125.014C238.666 155.371 226.844 183.911 205.378 205.377C183.913 226.843 155.372 238.665 125.015 238.665Z" fill="white"/>
<path d="M125.015 17.1409C65.5341 17.1409 17.1426 65.5327 17.1426 125.014C17.1426 184.495 65.5341 232.887 125.015 232.887C184.497 232.887 232.888 184.495 232.888 125.014C232.888 65.5327 184.497 17.1409 125.015 17.1409ZM189.398 61.7731C187.212 62.9698 185.113 64.3202 183.118 65.8141C185.116 66.2732 187.017 67.0931 188.903 67.592C201.163 70.8533 206.672 87.8419 206.672 87.8419C189.362 68.9883 180.45 74.6086 180.45 74.6086C180.45 74.6086 177.504 70.7329 174.063 68.3187C173.555 68.2132 173.24 68.1621 173.286 68.0557C176.343 61.0493 189.398 61.7731 189.398 61.7731ZM165.486 48.1527C165.486 48.1527 169.389 49.09 168.543 60.1117C167.493 50.8328 164.716 50.5068 164.716 50.5068C158.826 52.3666 156.268 57.3398 155.228 60.3565L137.394 63.6124C137.394 63.6124 151.92 44.2494 165.484 48.1527H165.486ZM125.627 42.4099C128.684 35.4035 141.739 36.127 141.739 36.127C139.772 37.1462 133.612 40.9322 130.412 44.7029C126.666 49.1207 125.851 53.2838 125.851 53.2838C125.851 53.2838 125.494 42.7208 125.627 42.4099ZM124.4 42.4099C124.537 42.7208 124.18 53.2838 124.18 53.2838C124.18 53.2838 123.365 49.1207 119.62 44.7029C116.42 40.9322 110.26 37.1462 108.293 36.127C108.292 36.127 121.342 35.4035 124.399 42.4099H124.4ZM84.5534 48.1527C98.1177 44.2494 112.64 63.6124 112.64 63.6124L94.8057 60.3565C93.766 57.3398 91.2082 52.3666 85.3126 50.5068C85.3126 50.5068 82.5407 50.8328 81.496 60.1117C80.6486 49.09 84.5519 48.1527 84.5519 48.1527H84.5534ZM90.9977 78.2123C105.851 73.7883 120.052 83.3782 125.015 84.2699C129.978 83.3782 144.175 73.7883 159.033 78.2111C159.033 78.2111 173.979 88.2445 171.461 97.34L163.395 102.986C163.395 102.986 168.71 96.8152 163.395 94.4101C160.042 92.8815 148.185 98.5883 145.285 99.959C143.589 100.764 143.4 90.5221 143.4 90.5221L133.978 120.076C135.094 121.437 151.92 135.903 151.92 151.862C151.959 153.885 151.748 155.904 151.293 157.875C148.745 160.525 144.878 162.278 143.573 162.823C142.893 162.603 142.241 162.307 141.627 161.941L129.224 157.727L126.885 153.651C126.885 153.651 140.924 143.893 140.924 140.994C140.995 139.791 140.591 138.609 139.797 137.702C138.956 136.673 136.388 136.887 135.074 136.652C133.86 136.577 132.643 136.587 131.431 136.683L125.472 137.69L125.474 137.845L125.015 137.767L124.557 137.845L124.558 137.69L118.6 136.683C117.388 136.587 116.17 136.577 114.957 136.652C113.642 136.887 111.069 136.673 110.233 137.687C109.44 138.593 109.035 139.776 109.107 140.978C109.107 143.878 123.145 153.636 123.145 153.636L120.801 157.712L108.404 161.926C107.79 162.292 107.137 162.588 106.457 162.808C105.148 162.262 101.28 160.51 98.7323 157.86C98.2805 155.894 98.0717 153.879 98.1107 151.862C98.1107 135.903 114.936 121.437 116.052 120.076L106.63 90.5221C106.63 90.5221 106.442 100.764 104.745 99.959C101.846 98.5883 89.9835 92.8815 86.6355 94.4101C81.321 96.8152 86.6355 102.986 86.6355 102.986L78.5693 97.34C76.0523 88.2445 90.9977 78.2123 90.9977 78.2123ZM157.586 105.788L150.723 112.81L140.924 115.358C140.924 115.358 146.713 102.986 151.625 102.986C156.537 102.986 157.586 105.788 157.586 105.788ZM109.107 115.358L99.3186 112.81L92.4397 105.788C92.4397 105.788 93.4996 102.986 98.4066 102.986C103.314 102.986 109.107 115.358 109.107 115.358ZM61.102 67.592C62.9947 67.0919 64.9018 66.2684 66.9073 65.81C64.9142 64.3177 62.8177 62.9687 60.6337 61.7731C60.6337 61.7731 73.6834 61.0493 76.7406 68.0557C76.7963 68.165 76.466 68.216 75.9332 68.3285C72.5237 70.7431 69.561 74.6093 69.561 74.6093C69.561 74.6093 60.669 68.9883 43.3592 87.8419C43.3592 87.8419 48.8726 70.8533 61.102 67.592ZM30.8753 129.692C30.8753 129.692 32.6535 105.234 51.2575 95.6125C56.8264 92.7285 61.0715 91.2151 68.7046 92.173C65.0868 96.3462 62.9874 104.861 62.9874 104.861C62.9874 104.861 44.4593 99.5769 30.8753 129.692ZM54.5236 156.866C50.6917 161.488 49.3822 175.975 49.3822 175.975C49.3822 175.975 45.1019 160.8 48.516 145.707C51.9301 130.614 61.9784 124.356 61.9784 124.356C53.6217 151.083 68.7452 175.363 68.7555 175.363C64.674 162.579 65.9785 155.058 68.995 146.782C71.4917 177.723 84.7403 196.928 84.7403 196.928C56.8371 182.853 54.5236 156.866 54.5236 156.866ZM88.5106 129.89C87.4107 128.74 85.9905 127.946 84.4341 127.613C84.658 125.743 85.267 123.941 86.2225 122.318C86.2225 122.318 83.0989 122.996 80.4595 127.806C80.2617 127.864 80.0677 127.933 79.8787 128.015C79.8787 128.015 78.727 122.334 81.2798 117.488C83.8327 112.642 87.5988 112.81 87.5988 112.81H91.7926L96.9389 120.061L109.102 119.597C109.102 119.597 95.5276 131.587 94.4779 139.745C93.4282 147.903 92.5111 133.895 88.5106 129.89ZM106.799 208.138C101.122 205.04 99.2574 194.538 97.8659 189.071C102.396 199.027 106.61 197.56 112.169 200.576C117.728 203.593 122.763 205.127 122.763 217.901C120.251 212.968 112.475 211.236 106.799 208.138ZM125.006 183.84L124.557 184.154V183.657C122.683 182.877 115.369 179.543 114.606 174.661C114.606 174.661 113.373 176.373 113.546 179.904C111.008 178.401 109.108 177.147 109.108 177.147C109.108 177.147 104.43 171.058 107.936 168.021C111.441 164.984 120.104 162.176 120.104 162.176H129.928C129.928 162.176 138.591 164.984 142.096 168.021C145.602 171.058 140.924 177.147 140.924 177.147C140.924 177.147 139.024 178.401 136.481 179.904C136.659 176.373 135.406 174.661 135.406 174.661C134.642 179.543 127.329 182.877 125.454 183.657V184.154L125.006 183.84ZM143.232 208.138C137.556 211.236 129.78 212.969 127.263 217.901C127.263 205.127 132.303 203.593 137.862 200.576C143.421 197.56 147.636 199.027 152.159 189.071C150.784 194.538 148.909 205.04 143.232 208.138H143.232ZM155.538 139.746C154.489 131.588 140.914 119.598 140.914 119.598L153.087 120.062L158.239 112.811H162.447C162.447 112.811 166.213 112.643 168.766 117.489C171.32 122.334 170.148 128.016 170.148 128.016C169.958 127.935 169.764 127.865 169.567 127.807C166.912 122.997 163.788 122.319 163.788 122.319C164.742 123.942 165.351 125.744 165.577 127.613C164.021 127.948 162.601 128.741 161.5 129.891C157.505 133.895 156.588 147.903 155.538 139.745L155.538 139.746ZM200.664 175.959C200.664 175.959 199.355 161.472 195.518 156.851C195.518 156.851 193.209 182.838 165.306 196.912C165.306 196.912 178.555 177.707 181.051 146.767C184.068 155.042 185.372 162.564 181.286 175.348C181.286 175.363 196.409 151.083 188.053 124.356C188.053 124.356 198.122 130.599 201.509 145.692C204.896 160.784 200.664 175.959 200.664 175.959ZM187.044 104.861C187.044 104.861 184.944 96.3462 181.321 92.173C188.959 91.2151 193.204 92.7285 198.774 95.6125C217.372 105.233 219.156 129.692 219.156 129.692C205.571 99.5769 187.044 104.861 187.044 104.861Z" fill="#231F20"/>
</g>
<defs>
<clipPath id="clip0_242_94371">
<rect width="227.302" height="227.302" fill="white" transform="translate(11.3633 11.3625)"/>
</clipPath>
</defs>
</svg>
