<svg width="250" height="250" viewBox="0 0 250 250" fill="none" xmlns="http://www.w3.org/2000/svg">
<rect width="250" height="250" rx="125" fill="white"/>
<g clip-path="url(#clip0_242_94378)">
<path d="M135.203 238.665C192.393 238.665 238.754 187.781 238.754 125.014C238.754 62.2457 192.393 11.3623 135.203 11.3623C78.0136 11.3623 31.6523 62.2457 31.6523 125.014C31.6523 187.781 78.0136 238.665 135.203 238.665Z" fill="url(#paint0_linear_242_94378)"/>
<path d="M125.016 238.665C182.205 238.665 228.566 187.781 228.566 125.014C228.566 62.2457 182.205 11.3623 125.016 11.3623C67.8261 11.3623 21.4648 62.2457 21.4648 125.014C21.4648 187.781 67.8261 238.665 125.016 238.665Z" fill="url(#paint1_linear_242_94378)"/>
<path d="M131.048 203.045C170.649 203.045 202.752 168.108 202.752 125.012C202.752 81.9166 170.649 46.9805 131.048 46.9805C91.4468 46.9805 59.3438 81.9166 59.3438 125.012C59.3438 168.108 91.4468 203.045 131.048 203.045Z" fill="#FCFCFC"/>
<path d="M133.037 46.9805C132.37 46.9805 131.706 46.9923 131.043 47.0118C169.723 48.1624 200.755 82.6442 200.755 125.013C200.755 167.383 169.723 201.864 131.044 203.014C131.707 203.034 132.371 203.045 133.038 203.045C172.639 203.045 204.742 168.109 204.742 125.012C204.742 81.916 172.639 46.9805 133.037 46.9805Z" fill="#CEDDCB"/>
<path d="M21.4624 125.014C21.4624 64.1203 65.0963 14.4134 119.92 11.4987C118.232 11.4091 116.534 11.3637 114.826 11.3623C57.6367 11.3623 11.2754 62.2458 11.2754 125.014C11.2754 187.781 57.6367 238.665 114.826 238.665C116.534 238.665 118.232 238.619 119.92 238.528C65.0963 235.614 21.4624 185.908 21.4624 125.014Z" fill="url(#paint2_linear_242_94378)"/>
<path d="M111.006 95.2344L114.652 165.887H134.253L132.43 128.509L164.793 107.997L156.588 97.5135L129.32 109.821V95.2344H111.006Z" fill="#3B3B3B"/>
<path d="M127.123 98.425V113.011L154.39 100.704L161.655 109.986L164.793 107.997L156.588 97.5135L129.32 109.821V95.2344H111.006L111.171 98.425H127.123Z" fill="#030303"/>
<path d="M130.232 131.7L131.9 165.886H134.253L132.515 130.253L130.232 131.7Z" fill="#030303"/>
</g>
<defs>
<linearGradient id="paint0_linear_242_94378" x1="154.594" y1="24.532" x2="114.482" y2="232.386" gradientUnits="userSpaceOnUse">
<stop stop-color="#F2F5B3"/>
<stop offset="1" stop-color="#71FCA1"/>
</linearGradient>
<linearGradient id="paint1_linear_242_94378" x1="144.407" y1="24.532" x2="104.295" y2="232.386" gradientUnits="userSpaceOnUse">
<stop stop-color="#F2F5B3"/>
<stop offset="1" stop-color="#71FCA1"/>
</linearGradient>
<linearGradient id="paint2_linear_242_94378" x1="96.036" y1="18.0357" x2="56.0831" y2="225.065" gradientUnits="userSpaceOnUse">
<stop stop-color="#DCEA6D"/>
<stop offset="0.999" stop-color="#61D891"/>
</linearGradient>
<clipPath id="clip0_242_94378">
<rect width="227.302" height="227.302" fill="white" transform="translate(11.3633 11.3623)"/>
</clipPath>
</defs>
</svg>
