<svg width="250" height="250" viewBox="0 0 250 250" fill="none" xmlns="http://www.w3.org/2000/svg">
<rect width="250" height="250" rx="125" fill="white"/>
<g clip-path="url(#clip0_242_94388)">
<g style="mix-blend-mode:multiply">
<path d="M171.644 57.9923C171.644 83.7457 127.891 120.528 125.014 124.837C122.176 120.528 78.3848 83.7452 78.3848 57.9923C78.3848 32.2394 99.2611 11.3625 125.014 11.3625C150.768 11.3625 171.644 32.2394 171.644 57.9923Z" fill="#F688B1"/>
</g>
<g style="mix-blend-mode:multiply">
<path d="M78.3848 192.036C78.3848 166.283 122.138 129.501 125.014 125.192C127.853 129.501 171.644 166.283 171.644 192.036C171.644 217.789 150.768 238.666 125.014 238.666C99.2611 238.666 78.3848 217.789 78.3848 192.036Z" fill="#F6A1B1"/>
</g>
<g style="mix-blend-mode:multiply">
<path d="M57.995 78.384C83.7483 78.384 120.53 122.137 124.839 125.014C120.53 127.852 83.7479 171.644 57.995 171.644C32.2421 171.644 11.3652 150.767 11.3652 125.014C11.3652 99.2604 32.2421 78.384 57.995 78.384Z" fill="#F6ABB1"/>
</g>
<g style="mix-blend-mode:multiply">
<path d="M192.036 171.644C166.282 171.644 129.5 127.89 125.191 125.014C129.5 122.176 166.283 78.384 192.036 78.384C217.789 78.384 238.666 99.2604 238.666 125.014C238.666 150.767 217.789 171.644 192.036 171.644Z" fill="#F697B1"/>
</g>
<g style="mix-blend-mode:multiply">
<path d="M110.597 44.6505C128.807 62.8604 123.878 119.808 124.891 124.888C119.838 123.848 62.8628 128.804 44.6534 110.594C26.444 92.3842 26.4433 62.8608 44.6534 44.65C62.8635 26.4393 92.3874 26.4404 110.597 44.6505Z" fill="#F6ABB1"/>
</g>
<g style="mix-blend-mode:multiply">
<path d="M139.435 205.38C121.224 187.17 126.153 130.222 125.141 125.142C130.194 126.182 187.169 121.226 205.378 139.436C223.588 157.646 223.589 187.169 205.378 205.38C187.168 223.591 157.644 223.59 139.435 205.38Z" fill="#F697B1"/>
</g>
<g style="mix-blend-mode:multiply">
<path d="M44.6522 139.436C62.8621 121.226 119.81 126.155 124.89 125.142C123.85 130.195 128.806 187.17 110.596 205.38C92.386 223.589 62.8625 223.59 44.6518 205.38C26.441 187.17 26.4421 157.646 44.6522 139.436Z" fill="#F6A1B1"/>
</g>
<g style="mix-blend-mode:multiply">
<path d="M205.378 110.596C187.169 128.806 130.221 123.877 125.141 124.889C126.181 119.836 121.224 62.8611 139.435 44.6517C157.645 26.4423 187.168 26.4416 205.379 44.6517C223.59 62.8618 223.589 92.3857 205.378 110.596Z" fill="#F688B1"/>
</g>
<path d="M73.3962 128.509L77.8495 124.057C78.1803 123.72 78.3646 123.266 78.3622 122.793C78.3598 122.32 78.171 121.868 77.8369 121.534C77.5027 121.199 77.0501 121.011 76.5775 121.008C76.105 121.006 75.6505 121.19 75.313 121.521L73.972 122.862C75.1023 95.6847 97.5632 73.922 125.015 73.922C149.415 73.922 170.506 91.2768 175.164 115.187C175.25 115.655 175.518 116.07 175.91 116.34C176.301 116.61 176.784 116.713 177.252 116.627C177.72 116.541 178.134 116.273 178.404 115.882C178.674 115.49 178.778 115.007 178.692 114.539C178.69 114.527 178.687 114.514 178.685 114.502C173.7 88.9099 151.128 70.3352 125.015 70.3352C95.5543 70.3352 71.4653 93.7551 70.3772 122.954L68.9452 121.522C68.7801 121.352 68.583 121.217 68.3652 121.123C68.1474 121.03 67.9133 120.981 67.6764 120.978C67.4394 120.976 67.2044 121.021 66.9848 121.11C66.7652 121.199 66.5655 121.33 66.3971 121.497C66.2287 121.664 66.095 121.862 66.0037 122.081C65.9124 122.299 65.8653 122.534 65.8652 122.771C65.8651 123.008 65.912 123.242 66.0031 123.461C66.0942 123.68 66.2277 123.878 66.396 124.045L66.4087 124.058L70.8606 128.51C71.197 128.846 71.6531 129.035 72.1288 129.035C72.6044 129.035 73.0605 128.846 73.3969 128.51L73.3962 128.509Z" fill="white"/>
<path d="M183.623 125.972L179.17 121.52C179.004 121.353 178.806 121.221 178.589 121.131C178.371 121.041 178.138 120.994 177.902 120.994C177.667 120.994 177.434 121.041 177.216 121.131C176.999 121.221 176.801 121.353 176.634 121.52L172.182 125.972C172.013 126.138 171.878 126.335 171.786 126.554C171.693 126.772 171.645 127.006 171.644 127.244C171.643 127.481 171.689 127.716 171.779 127.935C171.869 128.154 172.002 128.353 172.169 128.521C172.337 128.688 172.536 128.821 172.756 128.911C172.975 129.002 173.21 129.047 173.447 129.046C173.684 129.045 173.918 128.997 174.137 128.904C174.355 128.812 174.553 128.677 174.719 128.508L176.06 127.167C174.928 154.344 152.467 176.107 125.016 176.107C113.32 176.106 101.979 172.094 92.8842 164.741C83.7895 157.388 77.4917 147.138 75.0418 135.702C74.9428 135.236 74.6631 134.83 74.2642 134.571C73.8652 134.312 73.3797 134.222 72.9145 134.321C72.4492 134.42 72.0424 134.699 71.7833 135.098C71.5243 135.497 71.4344 135.983 71.5334 136.448C74.1543 148.688 80.8938 159.658 90.6271 167.529C100.36 175.399 112.499 179.693 125.016 179.694C154.476 179.694 178.565 156.274 179.653 127.074L181.087 128.507C181.424 128.84 181.879 129.027 182.353 129.026C182.827 129.024 183.281 128.835 183.616 128.5C183.952 128.165 184.14 127.711 184.142 127.237C184.143 126.763 183.956 126.307 183.623 125.97V125.972Z" fill="white"/>
</g>
<defs>
<clipPath id="clip0_242_94388">
<rect width="227.302" height="227.302" fill="white" transform="translate(11.3643 11.3625)"/>
</clipPath>
</defs>
</svg>
