<svg width="250" height="250" viewBox="0 0 250 250" fill="none" xmlns="http://www.w3.org/2000/svg">
<rect width="250" height="250" rx="125" fill="white"/>
<g clip-path="url(#clip0_242_94389)">
<path d="M110.672 155.38C109.482 155.38 108.291 155.38 107.101 154.189L88.0583 135.147C86.8682 133.956 86.8682 132.766 86.8682 131.576C86.8682 130.386 87.3137 129.979 88.5047 128.789L135.665 81.5886C136.856 80.3984 138.046 80.3984 139.236 80.3984C140.426 80.3984 141.616 80.3984 142.807 81.5886L163.04 100.632C164.23 100.632 164.23 103.012 164.23 104.202C164.23 105.392 164.23 106.582 163.04 107.772L114.242 154.189C113.052 155.38 111.862 155.38 110.672 155.38Z" fill="url(#paint0_radial_242_94389)"/>
<path d="M165.155 60.0703L123.941 20.1051C117.696 15.1094 110.203 11.3625 101.46 11.3625C92.7175 11.3625 83.9753 15.1094 77.7308 21.3539C75.2746 23.7026 74.8848 24.4033 74.8848 25.6524C74.8848 26.9014 75.0148 27.1071 76.4818 28.8473L132.683 82.5507L135.181 85.0485C147.67 98.7865 147.732 119.285 136.492 133.023L165.155 106.28C171.4 101.284 175.146 92.542 175.146 83.7998C175.146 75.0575 171.399 66.3147 165.155 60.0703Z" fill="url(#paint1_linear_242_94389)"/>
<path d="M116.447 149.993C103.958 136.255 102.866 115.652 115.356 101.914L87.7218 128.761C81.4771 135.006 77.7305 143.748 77.7305 152.492C77.7305 161.235 81.4771 169.976 87.7218 176.222L147.67 237.419C148.92 238.669 150.167 238.669 151.416 238.669C152.665 238.669 153.914 238.669 155.163 237.419C161.408 231.174 165.154 222.432 165.154 213.689C165.154 204.947 161.408 196.205 155.163 189.959L117.696 152.491C116.442 150.811 117.132 151.765 116.447 149.993Z" fill="url(#paint2_linear_242_94389)"/>
</g>
<defs>
<radialGradient id="paint0_radial_242_94389" cx="0" cy="0" r="1" gradientUnits="userSpaceOnUse" gradientTransform="translate(125.744 117.757) scale(38.275 38.275)">
<stop stop-color="#BE4650"/>
<stop offset="1" stop-color="#9B375A"/>
</radialGradient>
<linearGradient id="paint1_linear_242_94389" x1="74.8848" y1="72.1928" x2="175.146" y2="72.1928" gradientUnits="userSpaceOnUse">
<stop stop-color="#FF3C55"/>
<stop offset="0.514" stop-color="#FF3D56"/>
<stop offset="1" stop-color="#FF8B65"/>
</linearGradient>
<linearGradient id="paint2_linear_242_94389" x1="76.7401" y1="170.29" x2="165.005" y2="170.29" gradientUnits="userSpaceOnUse">
<stop stop-color="#FF3C55"/>
<stop offset="0.514" stop-color="#FF3C55"/>
<stop offset="1" stop-color="#FF8B65"/>
</linearGradient>
<clipPath id="clip0_242_94389">
<rect width="227.302" height="227.302" fill="white" transform="translate(11.3643 11.3623)"/>
</clipPath>
</defs>
</svg>
