<svg width="250" height="250" viewBox="0 0 250 250" fill="none" xmlns="http://www.w3.org/2000/svg">
<rect width="250" height="250" rx="125" fill="white"/>
<g clip-path="url(#clip0_242_94349)">
<path d="M125.015 238.665C187.782 238.665 238.666 187.782 238.666 125.014C238.666 62.2459 187.782 11.3625 125.015 11.3625C62.2467 11.3625 11.3633 62.2459 11.3633 125.014C11.3633 187.782 62.2467 238.665 125.015 238.665Z" fill="#FFD484"/>
<path d="M125.017 228.557C182.202 228.557 228.559 182.2 228.559 125.015C228.559 67.8306 182.202 21.4731 125.017 21.4731C67.832 21.4731 21.4746 67.8306 21.4746 125.015C21.4746 182.2 67.832 228.557 125.017 228.557Z" fill="url(#paint0_linear_242_94349)"/>
<g style="mix-blend-mode:multiply" opacity="0.75">
<g style="mix-blend-mode:multiply">
<path d="M125.015 228.557C182.2 228.557 228.557 182.2 228.557 125.015C228.557 67.8306 182.2 21.4731 125.015 21.4731C67.8301 21.4731 21.4727 67.8306 21.4727 125.015C21.4727 182.2 67.8301 228.557 125.015 228.557Z" fill="#D8821A"/>
</g>
</g>
<g style="mix-blend-mode:screen" opacity="0.8">
<g style="mix-blend-mode:screen">
<path d="M125.015 228.557C182.2 228.557 228.557 182.2 228.557 125.015C228.557 67.8306 182.2 21.4731 125.015 21.4731C67.8301 21.4731 21.4727 67.8306 21.4727 125.015C21.4727 182.2 67.8301 228.557 125.015 228.557Z" fill="#F44331"/>
</g>
<g style="mix-blend-mode:screen">
<g style="mix-blend-mode:multiply" opacity="0.75">
<g style="mix-blend-mode:multiply">
<path d="M125.015 228.557C182.2 228.557 228.557 182.2 228.557 125.015C228.557 67.8306 182.2 21.4731 125.015 21.4731C67.8301 21.4731 21.4727 67.8306 21.4727 125.015C21.4727 182.2 67.8301 228.557 125.015 228.557Z" fill="#F44331"/>
</g>
</g>
</g>
</g>
<g style="mix-blend-mode:multiply">
<path d="M245.134 156.953H145.467V194.876H245.134V156.953Z" fill="#FFF4E3"/>
</g>
<g style="mix-blend-mode:multiply">
<path d="M254.366 156.953H180.267C179.468 156.953 178.82 157.601 178.82 158.4V184.801C178.82 185.6 179.468 186.248 180.267 186.248H254.366C255.165 186.248 255.813 185.6 255.813 184.801V158.4C255.813 157.601 255.165 156.953 254.366 156.953Z" fill="#FFF4E3"/>
</g>
<g style="mix-blend-mode:multiply" opacity="0.27">
<path d="M184.242 175.236H164.406C162.664 175.236 161.252 176.648 161.252 178.39V224.288C161.252 226.03 162.664 227.442 164.406 227.442H184.242C185.984 227.442 187.396 226.03 187.396 224.288V178.39C187.396 176.648 185.984 175.236 184.242 175.236Z" fill="#FF9761"/>
</g>
<g style="mix-blend-mode:multiply" opacity="0.21">
<path d="M85.9318 42.7378H62.4978C60.7559 42.7378 59.3438 44.1499 59.3438 45.8918V77.1402C59.3438 78.8822 60.7559 80.2943 62.4978 80.2943H85.9318C87.6737 80.2943 89.0858 78.8822 89.0858 77.1402V45.8918C89.0858 44.1499 87.6737 42.7378 85.9318 42.7378Z" fill="#FF9761"/>
</g>
<g style="mix-blend-mode:multiply" opacity="0.19">
<path d="M161.829 5.18213H92.241C90.499 5.18213 89.0869 6.59424 89.0869 8.33618V39.5846C89.0869 41.3265 90.499 42.7386 92.241 42.7386H161.829C163.571 42.7386 164.983 41.3265 164.983 39.5846V8.33618C164.983 6.59424 163.571 5.18213 161.829 5.18213Z" fill="#FF9761"/>
</g>
<g style="mix-blend-mode:multiply" opacity="0.14">
<path d="M173.092 23.96H103.504C101.762 23.96 100.35 25.3721 100.35 27.114V96.7024C100.35 98.4444 101.762 99.8565 103.504 99.8565H173.092C174.834 99.8565 176.246 98.4444 176.246 96.7024V27.114C176.246 25.3721 174.834 23.96 173.092 23.96Z" fill="#FF9761"/>
</g>
<g style="mix-blend-mode:multiply" opacity="0.14">
<path d="M103.973 171.6H34.3845C32.6426 171.6 31.2305 173.012 31.2305 174.754V244.342C31.2305 246.084 32.6426 247.496 34.3845 247.496H103.973C105.715 247.496 107.127 246.084 107.127 244.342V174.754C107.127 173.012 105.715 171.6 103.973 171.6Z" fill="#FF9761"/>
</g>
<g style="mix-blend-mode:multiply" opacity="0.14">
<path d="M204.033 30.6152H172.392C170.65 30.6152 169.238 32.0273 169.238 33.7693V103.358C169.238 105.1 170.65 106.512 172.392 106.512H204.033C205.775 106.512 207.187 105.1 207.187 103.358V33.7693C207.187 32.0273 205.775 30.6152 204.033 30.6152Z" fill="#FF9761"/>
</g>
<g style="mix-blend-mode:screen" opacity="0.08">
<path d="M229.735 100.825L110.44 220.877H98.6646L39.4902 160.851V131.544L134.613 30.6816L188.264 37.3375L225.127 65.2462L234.343 96.1466L229.735 100.825Z" fill="#FF9761"/>
</g>
<g style="mix-blend-mode:multiply" opacity="0.06">
<path d="M222.801 95.562L103.507 215.614H91.731L32.5566 155.588V126.282L127.679 25.4189L181.33 32.0748L218.193 59.9835L227.409 90.8841L222.801 95.562Z" fill="#FF9761"/>
</g>
<g style="mix-blend-mode:multiply" opacity="0.06">
<path d="M214.458 83.9724L67.8005 218.824H53.3236L-19.4238 151.399V118.479L97.5172 5.18213L163.474 12.6588L208.793 44.0079L220.123 78.7177L214.458 83.9724Z" fill="#FF9761"/>
</g>
<path d="M74.3241 162.152C74.6366 161.869 74.8237 161.473 74.8443 161.051C74.8648 160.63 74.717 160.217 74.4334 159.905C74.293 159.75 74.1235 159.625 73.9346 159.535C73.7457 159.446 73.541 159.395 73.3323 159.385C72.9108 159.364 72.4984 159.512 72.1859 159.796L42.252 186.945C42.8764 187.784 43.5226 188.63 44.1906 189.483L74.3241 162.152Z" fill="white"/>
<path d="M89.3686 160.136C89.5252 159.996 89.6525 159.827 89.7432 159.637C89.834 159.448 89.8864 159.243 89.8974 159.033C89.9084 158.823 89.8778 158.613 89.8073 158.416C89.7369 158.218 89.628 158.036 89.4869 157.88C89.3459 157.725 89.1754 157.599 88.9854 157.51C88.7954 157.42 88.5896 157.369 88.3799 157.36C88.1701 157.351 87.9606 157.383 87.7634 157.455C87.5661 157.527 87.385 157.637 87.2306 157.779L47.6377 193.689C48.3196 194.485 49.0205 195.281 49.7402 196.078L89.3686 160.136Z" fill="white"/>
<path d="M55.9135 202.397L87.3288 173.905C87.6413 173.621 87.8285 173.225 87.849 172.803C87.8695 172.382 87.7218 171.969 87.4382 171.657C87.1547 171.344 86.7586 171.157 86.337 171.137C85.9155 171.116 85.5031 171.264 85.1905 171.547L53.6289 200.173C54.3735 200.919 55.1351 201.661 55.9135 202.397Z" fill="white"/>
<path d="M83.4353 130.382L82.0156 131.694L95.6465 135.835V134.092L83.4353 130.382Z" fill="#FF985F"/>
<path d="M99.6789 150.413L95.647 154.061L94.118 152.773L94.047 152.845L93.7034 152.437L93.5352 152.623L94.8228 154.152L94.751 154.223L95.2026 154.603L95.5832 155.055L95.6541 154.983L97.1831 156.271L101.215 152.623H112.638L111.967 150.413H99.6789Z" fill="#FF985F"/>
<path d="M165.081 83.1255L164.192 91.2795C161.312 116.047 130.592 141.775 130.592 141.775V150.415L117.227 164.878L118.112 167.792L132.128 152.624V143.985C132.128 143.985 162.848 118.257 165.727 93.4905L166.879 82.9307L165.081 83.1255Z" fill="#FF985F"/>
<path d="M97.1821 136.303L95.646 135.836V146.381L91.998 150.413L93.2857 151.942L93.2141 152.013L93.6658 152.393L93.7024 152.436L97.1821 148.59V136.303Z" fill="white"/>
<path d="M112.639 152.624L116.575 165.581L117.226 164.877L113.503 152.624H112.639Z" fill="white"/>
<path d="M105.823 117.681C105.823 117.681 131.551 86.9613 156.319 84.0814L165.08 83.1267L165.342 80.7207L154.782 81.8729C130.016 84.7517 104.287 115.47 104.287 115.47H95.6474L80.4795 129.487L83.4344 130.385L97.1826 117.681H105.823Z" fill="white"/>
<path d="M130.59 141.774C130.59 141.774 161.31 116.047 164.19 91.279L165.079 83.125L156.318 84.0797C131.55 86.9596 105.822 117.679 105.822 117.679H97.1827L83.4346 130.383L95.6468 134.094V135.838L97.183 136.304V148.592L93.7032 152.438L94.0469 152.847L94.1178 152.775L95.6468 154.063L99.6787 150.415H111.967L112.638 152.625H113.502L117.225 164.879L130.59 150.415V141.774Z" fill="white"/>
<path d="M129.173 125.361C134.268 125.361 138.398 121.231 138.398 116.136C138.398 111.041 134.268 106.911 129.173 106.911C124.078 106.911 119.948 111.041 119.948 116.136C119.948 121.231 124.078 125.361 129.173 125.361Z" fill="#FFC9A4"/>
<path d="M121.095 117.058C121.095 115.382 121.551 113.738 122.416 112.302C123.28 110.866 124.519 109.693 125.999 108.908C127.48 108.123 129.146 107.756 130.82 107.847C132.493 107.938 134.11 108.483 135.497 109.423C134.571 108.55 133.473 107.877 132.274 107.449C131.075 107.02 129.8 106.845 128.529 106.933C127.259 107.022 126.02 107.373 124.892 107.963C123.764 108.554 122.77 109.372 121.974 110.365C121.177 111.359 120.595 112.507 120.264 113.737C119.932 114.966 119.86 116.251 120.049 117.511C120.239 118.77 120.688 119.976 121.367 121.054C122.046 122.131 122.941 123.056 123.995 123.771C123.078 122.909 122.348 121.87 121.849 120.715C121.35 119.561 121.093 118.316 121.095 117.058Z" fill="#FFB983"/>
</g>
<defs>
<linearGradient id="paint0_linear_242_94349" x1="52.8257" y1="197.206" x2="194.889" y2="55.1428" gradientUnits="userSpaceOnUse">
<stop offset="0.4" stop-color="#FFB45B"/>
<stop offset="1" stop-color="#FF896A"/>
</linearGradient>
<clipPath id="clip0_242_94349">
<rect width="227.302" height="227.302" fill="white" transform="translate(11.3643 11.3625)"/>
</clipPath>
</defs>
</svg>
