<svg width="250" height="250" viewBox="0 0 250 250" fill="none" xmlns="http://www.w3.org/2000/svg">
<path d="M106.072 199.533C105.212 199.608 104.442 199.739 103.692 199.301C101.839 198.218 99.9561 197.187 98.1032 196.104C97.3766 195.679 96.9765 195.031 97.0248 194.14C97.057 193.549 97.0241 192.955 97.0241 192.362C97.0245 170.22 97.0252 148.079 97.0262 125.938C97.0262 125.345 96.9832 124.748 97.0388 124.16C97.1778 122.696 98.198 121.742 99.5882 121.975C101.409 122.28 103.223 122.694 104.994 123.214C106.312 123.602 107.054 124.581 107.033 126.041C107.013 127.325 107.034 128.611 107.034 129.895C107.034 151.74 107.036 173.585 107.032 195.43C107.032 196.79 107.263 198.205 106.072 199.533ZM145.158 49.9414C143.696 51.2991 143.971 52.7312 143.97 54.0861C143.962 76.7209 143.962 99.3562 143.96 121.991C143.96 122.584 143.95 123.178 143.976 123.77C144.034 125.074 144.675 125.989 145.935 126.346C147.152 126.691 148.357 127.044 149.632 127.233C153.562 127.814 153.974 127.523 153.974 123.447C153.975 101.504 153.975 79.5605 153.975 57.6176C153.975 56.6313 153.975 55.645 153.975 54.1635C150.868 52.8265 148.552 50.0219 145.158 49.9414ZM127.414 114.369C128.917 115.328 130.111 114.67 130.286 112.917C130.334 112.426 130.314 111.928 130.314 111.434C130.314 88.5891 130.316 65.7443 130.305 42.8991C130.305 42.1249 130.465 41.3118 130.009 40.6034C125.182 37.2441 125.736 37.3911 121.062 40.5387C120.915 40.6377 120.856 40.8673 120.733 41.0745C120.733 63.8773 120.733 86.7173 120.733 109.801C123.046 111.392 125.188 112.946 127.414 114.369ZM130.186 140.144C129.706 139.013 128.909 138.977 128.361 138.566C126.948 137.506 125.458 136.549 124.033 135.504C123.266 134.942 122.469 134.625 121.572 135.018C120.698 135.4 120.699 136.246 120.696 137.05C120.694 137.545 120.684 138.039 120.684 138.534C120.686 161.081 120.688 183.629 120.69 206.177C120.69 207.055 120.69 207.933 120.69 208.647C125.143 212.204 125.261 212.213 129.548 209.409C129.711 209.302 129.844 209.149 130.185 208.845C130.186 185.743 130.186 162.728 130.186 140.144ZM170.357 63.7976C168.759 63.0209 167.762 63.7979 167.633 65.6417C167.585 66.3305 167.612 67.0252 167.612 67.7172C167.611 85.5126 167.61 103.308 167.61 121.103C167.61 121.795 167.581 122.489 167.624 123.179C167.748 125.15 168.717 125.838 170.532 125.088C172.879 124.118 175.171 123.012 177.19 121.286C177.19 103.622 177.19 85.9336 177.19 68.0192C175.12 66.0977 172.721 64.9463 170.357 63.7976ZM75.6388 127.172C74.937 127.314 74.412 127.741 73.83 128.309C73.83 146 73.83 163.763 73.83 181.658C75.9023 183.471 78.3516 184.72 80.8135 185.885C82.2377 186.558 83.2278 185.74 83.365 184.068C83.4214 183.381 83.3864 182.686 83.3867 181.994C83.3885 164.112 83.3895 146.229 83.3899 128.346C83.3899 127.655 83.4238 126.96 83.371 126.273C83.2338 124.49 82.244 123.773 80.6056 124.448C79.2816 124.994 77.87 125.443 76.791 126.477C76.7983 127.357 76.1431 127.139 75.6388 127.172ZM107.046 100.702C107.028 84.9036 107.027 69.1053 107.042 53.3067C107.043 52.0978 106.981 50.9575 106.038 50.0888C105.013 49.8791 104.099 49.9869 103.195 50.5634C101.719 51.5038 100.254 52.459 98.6198 53.1471C97.4396 53.6441 96.994 54.6349 96.9982 56.0125C97.0451 70.8235 97.0332 85.6344 97.0105 100.445C97.0087 101.592 97.2366 102.572 98.1042 103.306C100.755 103.64 103.336 104.402 105.979 103.972C106.977 103.055 107.047 101.914 107.046 100.702ZM153.928 194.796C153.947 179.492 153.954 164.188 153.99 148.884C153.993 147.815 153.623 146.993 152.927 146.302C150.189 145.998 147.53 145.101 144.846 145.681C144.193 146.654 143.948 147.539 143.95 148.573C143.976 164.569 143.976 180.565 143.953 196.561C143.951 197.694 144.157 198.683 144.948 199.509C145.742 199.621 146.551 199.811 147.255 199.325C149.406 197.841 151.958 196.977 153.714 195.41C153.867 194.979 153.928 194.888 153.928 194.796ZM50.7226 83.0283C50.7146 95.2422 50.7146 107.456 50.7205 119.67C50.7209 120.076 50.7293 120.451 50.2613 120.612C50.0037 121.623 50.6719 122.009 51.7082 122.498C55.0941 120.676 57.4608 117.537 60.1194 114.995C60.1194 103.288 60.1142 91.8571 60.1257 80.4264C60.1271 78.9231 60.1709 77.4423 58.354 76.8557C55.98 77.5459 54.0063 79.018 51.8797 80.1768C51.1636 80.5671 50.3404 81.0652 50.2571 82.0861C50.7135 82.2523 50.723 82.6156 50.7226 83.0283ZM73.7299 71.0912C73.7337 81.0784 73.7376 91.0657 73.7411 101.053C73.7414 102.14 73.6893 103.231 73.7488 104.315C73.8415 106.006 74.6602 106.725 76.2142 106.34C78.199 105.848 80.1443 105.197 82.1047 104.608C82.9769 104.345 83.3447 103.703 83.3689 102.835C83.3878 102.143 83.3913 101.451 83.3913 100.759C83.3916 89.5849 83.3909 78.4108 83.3888 67.237C83.3888 66.6438 83.4203 66.0463 83.3643 65.458C83.2086 63.8252 82.1848 63.0377 80.747 63.7496C78.31 64.9564 75.7763 66.075 73.7302 68.1547C73.7299 69.1277 73.7295 70.1094 73.7299 71.0912ZM177.27 178.217C177.265 168.229 177.26 158.242 177.256 148.255C177.256 147.266 177.311 146.274 177.253 145.289C177.148 143.488 176.285 142.844 174.508 143.323C172.816 143.779 171.153 144.351 169.49 144.908C167.724 145.498 167.711 145.537 167.626 147.351C167.603 147.845 167.608 148.34 167.608 148.834C167.608 160.008 167.609 171.182 167.611 182.357C167.611 182.95 167.582 183.547 167.638 184.136C167.796 185.775 168.812 186.564 170.25 185.848C172.683 184.636 175.23 183.541 177.27 181.437C177.27 180.378 177.27 179.298 177.27 178.217ZM192.067 134.577C192.067 146.17 192.067 157.783 192.067 169.476C192.572 169.959 193.16 170.521 193.703 171.04C194.441 171.012 194.232 170.251 194.659 170.031C194.847 170.322 195.047 170.631 195.282 170.993C195.937 169.935 195.126 168.678 195.809 167.686C196.476 167.45 196.498 168.036 196.816 168.324C197.488 168.932 198.549 169.166 199.022 168.207C199.482 167.273 200.137 167.654 200.74 167.535C200.792 166.555 200.887 165.576 200.889 164.596C200.903 158.571 200.896 152.545 200.896 146.52C200.896 141.087 200.876 135.654 200.91 130.222C200.92 128.817 200.626 127.703 199.072 127.24C197.691 127.984 196.68 129.167 195.569 130.229C196.017 132.925 193.981 133.659 192.067 134.577ZM192.819 76.7528C191.245 77.4412 190.859 78.4086 190.866 79.7415C190.908 87.8296 190.902 95.9184 190.87 104.007C190.864 105.318 191.25 106.294 192.491 106.859C193.344 106.632 194.101 106.227 194.771 105.623C196.522 104.045 198.06 102.248 199.94 100.793C200.701 100.203 200.921 99.1965 200.911 98.1336C200.86 92.7138 200.887 87.2931 200.887 81.5926C198.258 79.4618 195.528 77.8581 192.819 76.7528ZM50.6813 168.208C52.7981 170.446 55.5775 171.571 58.1174 172.891C59.5248 172.268 60.1327 171.462 60.1264 170.08C60.0897 161.886 60.0946 153.693 60.1278 145.499C60.1331 144.165 59.6707 143.248 58.2809 142.655C55.3664 144.516 52.9129 146.961 50.6813 149.656C50.6813 155.84 50.6813 162.024 50.6813 168.208ZM191.757 133.407C191.072 133.841 190.87 134.835 190.872 135.786C190.898 147.148 190.903 158.51 190.868 169.871C190.863 171.335 191.357 172.306 192.921 172.848C195.525 171.73 197.949 170.093 200.439 168.579C200.835 168.338 200.826 167.937 200.739 167.535C200.137 167.653 199.482 167.273 199.021 168.207C198.549 169.166 197.488 168.932 196.816 168.323C196.497 168.035 196.475 167.45 195.808 167.686C195.126 168.678 195.937 169.934 195.281 170.993C195.047 170.63 194.847 170.321 194.659 170.031C194.232 170.25 194.441 171.012 193.703 171.04C193.16 170.521 192.572 169.959 192.066 169.475C192.066 157.783 192.066 146.17 192.066 134.576C193.981 133.659 196.017 132.925 195.568 130.229C194.023 130.947 193.182 132.505 191.757 133.407ZM50.1112 83.8441C50.1024 95.5135 50.1021 107.183 50.1112 118.853C50.1115 119.439 50.2092 120.025 50.2613 120.612C50.7296 120.451 50.7209 120.076 50.7205 119.67C50.7146 107.456 50.7146 95.2422 50.7226 83.0286C50.723 82.616 50.7135 82.2523 50.2571 82.0861C50.2064 82.6716 50.1115 83.2582 50.1112 83.8441ZM50.115 150.577C50.1161 156.149 50.115 161.721 50.1122 167.293C50.1119 167.722 50.2823 168.033 50.6813 168.208C50.6813 162.024 50.6813 155.84 50.6813 149.656C50.2858 149.836 50.115 150.148 50.115 150.577ZM75.6388 127.172C76.1431 127.139 76.7983 127.357 76.791 126.477C76.3164 126.558 75.7931 126.56 75.6388 127.172Z" fill="#BE0911"/>
</svg>
