<svg width="250" height="250" viewBox="0 0 250 250" fill="none" xmlns="http://www.w3.org/2000/svg">
<path d="M124.95 248.997C193.406 248.997 248.9 193.503 248.9 125.047C248.9 56.5915 193.406 1.09717 124.95 1.09717C56.4943 1.09717 1 56.5915 1 125.047C1 193.503 56.4943 248.997 124.95 248.997Z" fill="black"/>
<path d="M182.1 110.798V93.3477C182.1 92.5977 181.5 91.9477 180.7 91.9477H159.1C158.35 91.9477 157.7 91.3477 157.7 90.5477V64.4977C157.7 63.7477 157.1 63.0977 156.3 63.0977H138.85C138.1 63.0977 137.45 63.6977 137.45 64.4977V90.6477C137.45 91.3977 136.85 92.0477 136.05 92.0477H113.65C112.9 92.0477 112.25 91.4477 112.25 90.6477V64.4977C112.25 63.7477 111.65 63.0977 110.85 63.0977H93.3996C92.6496 63.0977 91.9996 63.6977 91.9996 64.4977V90.6477C91.9996 91.3977 91.3996 92.0477 90.5996 92.0477H68.9996C68.2496 92.0477 67.5996 92.6477 67.5996 93.4477V110.898C67.5996 111.648 68.1996 112.298 68.9996 112.298H90.5996C91.3496 112.298 91.9996 112.898 91.9996 113.698V140.848C91.9996 141.598 91.3996 142.248 90.5996 142.248H68.9996C68.2496 142.248 67.5996 142.848 67.5996 143.648V161.098C67.5996 161.848 68.1996 162.498 68.9996 162.498H90.5996C91.3496 162.498 91.9996 163.098 91.9996 163.898V190.048C91.9996 190.798 92.5996 191.448 93.3996 191.448H110.85C111.6 191.448 112.25 190.848 112.25 190.048V163.898C112.25 163.148 112.85 162.498 113.65 162.498H136.05C136.8 162.498 137.45 163.098 137.45 163.898V190.048C137.45 190.798 138.05 191.448 138.85 191.448H156.3C157.05 191.448 157.7 190.848 157.7 190.048V163.898C157.7 163.148 158.3 162.498 159.1 162.498H180.7C181.45 162.498 182.1 161.898 182.1 161.098V143.648C182.1 142.898 181.5 142.248 180.7 142.248H159.1C158.35 142.248 157.7 141.648 157.7 140.848V113.698C157.7 112.948 158.3 112.298 159.1 112.298H180.7C181.5 112.198 182.1 111.598 182.1 110.798ZM136.2 142.098H113.8C113.05 142.098 112.4 141.498 112.4 140.698V113.548C112.4 112.798 113 112.148 113.8 112.148H136.2C136.95 112.148 137.6 112.748 137.6 113.548V140.698C137.6 141.448 136.95 142.098 136.2 142.098Z" fill="white"/>
</svg>
