<svg width="250" height="250" viewBox="0 0 250 250" fill="none" xmlns="http://www.w3.org/2000/svg">
<g clip-path="url(#clip0_242_94190)">
<path d="M127.569 151.786C129.142 163.072 127.804 175.498 137.643 185.627C143.395 191.541 141.134 200.657 135.093 205.83C132.129 208.455 128.319 209.926 124.36 209.972C120.401 210.019 116.558 208.638 113.533 206.083C107.058 200.657 104.489 191.324 110.422 185.192C120.153 175.028 119.267 162.783 120.424 150.664C120.714 147.698 122.233 143.755 117.331 142.543C112.864 141.44 109.482 135.76 103.657 140.608C94.1437 148.512 82.1881 153.269 78.1727 167.214C75.7129 175.697 65.7107 178.392 57.7705 175.208C54.1975 173.908 51.1923 171.399 49.2761 168.115C47.36 164.831 46.6537 160.98 47.28 157.23C48.8716 148.548 56.7757 141.259 65.4937 143.484C78.4983 146.794 88.193 140.3 98.8101 135.652C101.071 134.657 105.557 133.843 104.092 130.768C101.632 125.722 106.099 118.361 99.4432 115.322C89.0069 110.565 79.4388 103.384 66.3076 107.092C57.2641 109.625 49.3781 103.023 47.5694 94.2686C46.6959 90.0835 47.4174 85.7232 49.5923 82.0425C51.7673 78.3619 55.2387 75.6265 59.326 74.3728C67.7546 72.0033 77.4131 76.0729 79.5474 85.0261C82.8754 98.4467 95.1204 101.757 103.766 109.154C104.363 109.661 105.846 110.095 106.172 109.787C110.115 106.007 115.07 103.728 119.375 100.599C122.179 98.5552 120.044 93.7983 119.719 90.2894C118.941 81.3906 118.163 72.8354 111.109 65.5101C104.761 58.9264 106.425 49.3945 112.918 43.697C115.994 40.9326 120.001 39.4321 124.136 39.4958C128.271 39.5596 132.23 41.1828 135.219 44.0407C141.496 49.9009 142.708 59.2338 136.449 65.9803C130.86 72.0033 129.07 78.6413 128.184 86.2922C126.501 100.165 127.985 103.095 140.646 108.883C141.839 109.444 142.87 109.914 143.901 109.064C152.456 101.956 164.412 98.7904 167.939 85.9304C168.936 81.7391 171.554 78.1139 175.219 75.8492C178.883 73.5844 183.297 72.8649 187.491 73.8482C188.042 73.975 188.585 74.132 189.119 74.3185C197.023 76.923 201.78 86.0389 199.809 94.775C198.983 98.8882 196.56 102.506 193.071 104.836C189.583 107.165 185.312 108.016 181.197 107.201C180.69 107.092 180.184 106.966 179.696 106.821C166.402 102.806 156.924 110.836 146.976 116.027C142.002 118.596 144.986 126.464 143.015 131.763C141.912 134.748 147.067 135.381 149.581 136.538C160.089 141.512 170.019 147.119 182.951 143.773C191.253 141.603 198.868 149.199 200.026 157.573C200.681 161.336 199.964 165.209 198.006 168.489C196.047 171.768 192.978 174.236 189.354 175.444C181.269 178.301 171.792 175.208 169.35 166.4C165.334 151.93 152.818 147.228 142.653 139.794C137.245 135.941 127.261 143.737 127.569 151.786Z" fill="#09CBCD"/>
<path d="M134.874 -0.00195312L227.119 53.138C211.437 65.2382 208.38 65.4553 192.753 56.4117C177.668 47.6696 162.596 38.9637 147.535 30.294C133.409 22.1548 131.492 17.6872 134.874 -0.00195312Z" fill="#09CBCD"/>
<path d="M20.5625 196.805C32.1925 186.405 42.7554 184.777 55.4887 193.477C69.3796 202.954 84.4281 210.587 99.0967 219.07C114.254 227.86 115.628 230.917 112.644 249.999L20.5625 196.805Z" fill="#09CBCD"/>
<path d="M20.8877 53.0656L112.77 -0.00195312C116.189 17.8862 114.434 21.9739 100.109 30.2397C85.2778 38.8492 69.8857 46.6447 55.7235 56.249C43.1529 64.8042 32.5358 63.6647 20.8877 53.0656Z" fill="#09CBCD"/>
<path d="M226.865 196.297L135.217 249.853C131.473 232.76 133.553 227.895 147.571 219.774C162.673 211.038 178.319 203.043 192.788 193.33C204.961 185.083 215.325 185.897 226.865 196.297Z" fill="#09CBCD"/>
<path d="M10.417 71.46C25.4474 75.7647 31.3257 84.6093 30.3128 99.7844C29.0829 116.841 30.0415 134.15 30.0234 151.206C30.0234 167.701 27.5274 171.102 10.4713 176.998L10.417 71.46Z" fill="#08CBCD"/>
<path d="M237.209 177.252C219.411 170.017 217.874 167.865 217.874 150.013V92.2424C217.868 87.5537 219.507 83.0113 222.504 79.4058C225.501 75.8003 229.668 73.36 234.279 72.5094C239.452 71.4784 237.897 75.3852 237.897 77.5195C238.041 92.5499 237.897 107.58 237.897 122.611V174.973C237.748 175.754 237.517 176.518 237.209 177.252Z" fill="#08CBCD"/>
</g>
<defs>
<clipPath id="clip0_242_94190">
<rect width="250" height="250" rx="125" fill="white"/>
</clipPath>
</defs>
</svg>
