<svg width="250" height="250" viewBox="0 0 250 250" fill="none" xmlns="http://www.w3.org/2000/svg">
<g clip-path="url(#clip0_242_94192)">
<path d="M124.998 249.998C194.034 249.998 249.998 194.034 249.998 124.998C249.998 55.9624 194.034 -0.00195312 124.998 -0.00195312C55.9624 -0.00195312 -0.00195312 55.9624 -0.00195312 124.998C-0.00195312 194.034 55.9624 249.998 124.998 249.998Z" fill="#3D58B0"/>
<path d="M124.889 31.2478C73.248 31.2478 31.248 73.2478 31.248 124.888C31.248 176.529 73.248 218.513 124.889 218.513C176.529 218.513 218.514 176.521 218.514 124.888C218.521 73.2478 176.521 31.2478 124.889 31.2478ZM124.889 43.9978C135.515 43.9844 146.039 46.0677 155.859 50.1282C165.678 54.1887 174.601 60.1466 182.114 67.6608C189.627 75.1749 195.585 84.0976 199.644 93.9177C203.704 103.738 205.786 114.262 205.771 124.888C205.785 135.514 203.702 146.038 199.642 155.857C195.582 165.676 189.625 174.598 182.111 182.111C174.598 189.624 165.676 195.582 155.857 199.642C146.038 203.702 135.514 205.785 124.889 205.771C114.263 205.786 103.738 203.703 93.9179 199.644C84.0979 195.584 75.1752 189.627 67.661 182.114C60.1469 174.6 54.1889 165.678 50.1284 155.859C46.0679 146.039 43.9847 135.515 43.998 124.888C43.9847 114.262 46.0679 103.737 50.1283 93.9171C54.1887 84.097 60.1465 75.1744 67.6606 67.6603C75.1746 60.1463 84.0972 54.1884 93.9174 50.128C103.737 46.0676 114.262 43.9844 124.889 43.9978Z" fill="white"/>
<path d="M90.1016 90.3103V159.451H159.672V90.3103H90.1016ZM101.43 101.638H148.336V148.123H101.438V101.638H101.43Z" fill="white"/>
</g>
<defs>
<clipPath id="clip0_242_94192">
<rect width="250" height="250" rx="125" fill="white"/>
</clipPath>
</defs>
</svg>
