<svg width="250" height="250" viewBox="0 0 250 250" fill="none" xmlns="http://www.w3.org/2000/svg">
<path d="M125.402 2.44716C58.052 2.34716 3.35195 56.8472 3.25195 124.197C3.25195 145.997 9.05195 167.397 20.052 186.147L3.00195 246.997L65.7019 230.847C124.452 263.847 198.852 243.047 231.852 184.297C264.852 125.547 244.052 51.1472 185.302 18.1472C167.002 7.79716 146.352 2.44716 125.402 2.44716ZM160.952 174.597C152.352 179.697 142.802 183.047 132.852 184.347L127.252 208.497H90.6519L96.1519 184.697C92.3019 184.347 88.452 183.797 84.6519 182.997C77.3019 181.747 70.1519 179.547 63.3519 176.547L62.3019 176.047L69.8019 143.697H74.9019L75.3019 144.097C76.8019 145.347 78.602 146.747 80.8019 148.247C83.752 150.147 86.9019 151.697 90.2019 152.947C94.1519 154.597 98.2519 155.897 102.452 156.847C107.352 157.947 112.352 158.497 117.402 158.447C123.452 158.897 129.502 157.997 135.152 155.797C138.502 154.197 140.902 151.097 141.602 147.447L149.502 113.297C156.552 115.147 163.202 118.197 169.252 122.297C175.852 127.197 179.602 135.097 179.302 143.347C179.352 156.247 172.352 168.297 160.952 174.597ZM181.552 102.797H176.702L176.302 102.497C171.152 98.6972 165.452 95.6972 159.352 93.6972C152.802 91.4472 145.902 90.2972 138.952 90.2472C133.052 89.9972 127.202 90.8972 121.702 92.8972C119.002 94.1472 117.002 96.4972 116.152 99.3472C115.502 101.147 115.302 102.047 114.752 104.197L107.452 135.847C99.9519 133.947 92.952 130.497 86.8019 125.747C80.952 120.747 77.6519 113.397 77.7519 105.697C77.602 92.7472 84.4019 80.6972 95.6019 74.1972C104.252 68.8972 113.952 65.4972 124.002 64.2472L129.552 40.1972H166.152L160.602 64.2472C163.252 64.6472 165.952 64.9472 168.702 65.4972C175.252 66.5972 181.602 68.4972 187.702 71.1472L188.802 71.6472L181.552 102.797Z" fill="#FF9933"/>
</svg>
