<svg width="250" height="250" viewBox="0 0 250 250" fill="none" xmlns="http://www.w3.org/2000/svg">
<g clip-path="url(#clip0_242_94747)">
<path d="M125 249.998C194.036 249.998 250 194.034 250 124.998C250 55.9625 194.036 -0.00195312 125 -0.00195312C55.9644 -0.00195312 0 55.9625 0 124.998C0 194.034 55.9644 249.998 125 249.998Z" fill="#030000"/>
<path d="M119.25 141.598L120.45 147.501L122.666 144.549L124.84 155.631L127.002 144.549L129.218 147.501L130.418 141.598H119.25Z" fill="url(#paint0_linear_242_94747)"/>
<path d="M130.721 132.211V115.582C130.721 112.338 124.883 104.132 124.883 104.132C124.883 104.132 118.99 112.338 118.99 115.582V132.211C115.161 133.454 111.826 135.88 109.465 139.141H140.203C137.853 135.888 134.534 133.462 130.721 132.211Z" fill="white"/>
<path fill-rule="evenodd" clip-rule="evenodd" d="M186.964 140.386C191.777 140.386 195.679 144.288 195.679 149.1C195.673 153.911 191.775 157.809 186.964 157.815C182.151 157.815 178.25 153.913 178.25 149.1C178.25 144.288 182.151 140.386 186.964 140.386ZM185.004 144.377C183.097 145.171 181.857 147.035 181.861 149.1C181.873 151.912 184.152 154.186 186.964 154.192C189.029 154.192 190.891 152.948 191.68 151.039C192.469 149.131 192.031 146.935 190.569 145.477C189.108 144.018 186.91 143.584 185.004 144.377Z" fill="url(#paint1_linear_242_94747)"/>
<path fill-rule="evenodd" clip-rule="evenodd" d="M31.25 124.826C31.3155 73.1673 73.1805 31.3074 124.839 31.2478C176.132 31.7962 217.425 73.5308 217.428 124.826C217.431 176.122 176.142 217.861 124.85 218.416C96.036 218.416 75.9145 211.02 61.524 195.137C61.524 195.137 86.197 211.107 124.666 206.382C172.769 200.511 206.405 167.101 206.405 124.826C206.385 120.065 205.948 115.315 205.097 110.63H204.308C197.187 110.634 190.821 106.189 188.371 99.5028C185.92 92.8168 187.907 85.3118 193.344 80.7128C181.516 62.3018 162.774 49.4272 141.345 44.9929C119.915 40.5585 97.603 44.9376 79.4395 57.1428C79.4795 57.2083 79.52 57.2738 79.56 57.3388C79.8115 57.7473 80.0605 58.1518 80.2935 58.5808C84.1915 65.9088 83.966 74.7428 79.699 81.8623C75.4325 88.9818 67.748 93.3458 59.448 93.3633C56.363 93.3558 53.309 92.7538 50.452 91.5898C45.7542 102.04 43.3292 113.369 43.3379 124.826V126.61C46.8991 127.793 49.4932 130.877 50.048 134.588C50.603 138.299 49.0247 142.007 45.9652 144.18C51.609 163.955 65.773 178.151 83.2345 179.6C111.173 181.925 139.273 160.603 139.554 160.387L140.722 159.49C150.085 151.24 160.789 136.633 161.643 112.846L125.239 87.8598L88.8245 112.846C89.884 142.277 105.854 157.749 116.871 164.907C112.557 166.82 108.146 168.464 103.712 170.064C102.372 168.961 101.075 167.815 99.842 166.647C89.289 156.646 76.715 138.655 76.715 109.711V106.532L125.239 73.2528L173.753 106.532V109.722C173.753 138.666 161.178 156.657 150.626 166.658C149.815 167.426 148.972 168.183 148.063 168.972L146.852 169.977C141.283 174.655 135.025 178.444 128.299 181.211C117.033 186.769 99.9285 193.072 82.2395 191.612C53.166 189.201 31.25 160.506 31.25 124.826ZM44.949 140.255C45.6639 139.45 46.1592 138.474 46.387 137.422C46.9473 134.809 45.8047 132.126 43.5326 130.718C43.791 133.925 44.2642 137.111 44.949 140.255ZM77.093 60.2788C81.046 67.7058 79.941 76.8113 74.3255 83.0768C68.71 89.3423 59.7795 91.4343 51.9655 88.3148C57.7475 76.8383 66.143 66.8798 76.4765 59.2408C76.566 59.4043 76.6715 59.5708 76.778 59.7393C76.89 59.9163 77.004 60.0963 77.1035 60.2788H77.093ZM191.855 98.5148C193.855 103.646 198.8 107.023 204.308 107.019L204.383 107.008C202.554 98.8588 199.479 91.0398 195.269 83.8268C191.21 87.5503 189.855 93.3833 191.855 98.5148Z" fill="url(#paint2_linear_242_94747)"/>
</g>
<defs>
<linearGradient id="paint0_linear_242_94747" x1="130.424" y1="155.631" x2="130.424" y2="141.598" gradientUnits="userSpaceOnUse">
<stop stop-color="#B5E0DA"/>
<stop offset="0.63" stop-color="#3CBAB2"/>
<stop offset="0.97" stop-color="#00A89E"/>
<stop offset="1" stop-color="#00A69C"/>
</linearGradient>
<linearGradient id="paint1_linear_242_94747" x1="195.679" y1="157.847" x2="195.679" y2="140.418" gradientUnits="userSpaceOnUse">
<stop stop-color="#B5E0DA"/>
<stop offset="0.63" stop-color="#3CBAB2"/>
<stop offset="0.97" stop-color="#00A89E"/>
<stop offset="1" stop-color="#00A69C"/>
</linearGradient>
<linearGradient id="paint2_linear_242_94747" x1="217.928" y1="218.415" x2="217.928" y2="31.2478" gradientUnits="userSpaceOnUse">
<stop stop-color="#B5E0DA"/>
<stop offset="0.63" stop-color="#3CBAB2"/>
<stop offset="0.97" stop-color="#00A89E"/>
<stop offset="1" stop-color="#00A69C"/>
</linearGradient>
<clipPath id="clip0_242_94747">
<rect width="250" height="250" fill="white"/>
</clipPath>
</defs>
</svg>
