<svg width="250" height="250" viewBox="0 0 250 250" fill="none" xmlns="http://www.w3.org/2000/svg">
<path d="M124.999 248.437C108.335 248.437 92.1691 245.173 76.9506 238.737C69.6361 235.643 62.5815 231.814 55.9825 227.356C49.4465 222.94 43.3 217.869 37.7145 212.283C32.129 206.698 27.0575 200.551 22.642 194.015C18.184 187.416 14.3545 180.362 11.261 173.047C4.82405 157.829 1.56055 141.663 1.56055 124.999C1.56055 108.335 4.82405 92.1695 11.261 76.951C14.355 69.6365 18.184 62.582 22.642 55.983C27.0575 49.447 32.129 43.3005 37.7145 37.715C43.3 32.1295 49.4465 27.058 55.9825 22.6425C62.5815 18.1845 69.6361 14.355 76.9506 11.2615C92.1696 4.82405 108.335 1.56055 124.999 1.56055C141.663 1.56055 157.828 4.82405 173.046 11.261C180.361 14.3545 187.416 18.184 194.015 22.642C200.551 27.0575 206.697 32.129 212.283 37.7145C217.869 43.3 222.939 49.4465 227.355 55.9825C231.813 62.5815 235.643 69.636 238.736 76.9505C245.173 92.1691 248.437 108.335 248.437 124.999C248.437 141.663 245.173 157.828 238.736 173.047C235.643 180.361 231.813 187.416 227.355 194.015C222.939 200.551 217.868 206.697 212.283 212.283C206.697 217.869 200.551 222.94 194.015 227.355C187.416 231.813 180.361 235.643 173.046 238.736C157.828 245.173 141.663 248.437 124.999 248.437ZM124.999 2.59005C108.473 2.59005 92.4425 5.82655 77.352 12.209C70.099 15.277 63.1031 19.074 56.5596 23.495C50.0776 27.874 43.9825 32.903 38.443 38.4425C32.9035 43.982 27.8745 50.077 23.4955 56.559C19.0745 63.103 15.2775 70.0985 12.2095 77.3515C5.82653 92.4425 2.59003 108.473 2.59003 124.998C2.59003 141.524 5.82653 157.554 12.2095 172.645C15.2775 179.898 19.0745 186.894 23.4955 193.438C27.8745 199.92 32.9035 206.015 38.443 211.554C43.9825 217.094 50.0776 222.123 56.5596 226.502C63.1036 230.923 70.099 234.72 77.352 237.788C92.4425 244.171 108.474 247.407 124.999 247.407C141.524 247.407 157.555 244.17 172.645 237.788C179.898 234.72 186.894 230.923 193.437 226.502C199.919 222.123 206.015 217.094 211.554 211.554C217.094 206.015 222.123 199.92 226.502 193.438C230.923 186.894 234.719 179.898 237.787 172.645C244.17 157.554 247.407 141.524 247.407 124.998C247.407 108.473 244.17 92.442 237.787 77.3515C234.72 70.0985 230.923 63.1025 226.502 56.559C222.123 50.077 217.094 43.982 211.554 38.4425C206.015 32.903 199.919 27.874 193.437 23.495C186.893 19.074 179.898 15.277 172.645 12.209C157.555 5.82655 141.524 2.59005 124.999 2.59005Z" fill="#FFCE45"/>
<path d="M125.001 28.7908L219.164 122.954L125.001 217.117L30.8379 122.954L125.001 28.7908Z" fill="#FFCE45"/>
<path d="M124.999 153.679L30.7578 122.948L124.999 28.7869L219.24 122.948L124.999 153.679Z" fill="#FEBE44"/>
<path d="M63.5391 116.805H106.562L125.001 96.3178L145.488 116.805H188.511L125.001 48.1748L63.5391 116.805Z" fill="white"/>
<path opacity="0.42" d="M125 217.11V28.7869L219.161 122.948L125 217.11Z" fill="#D9A547"/>
</svg>
