<svg width="250" height="250" viewBox="0 0 250 250" fill="none" xmlns="http://www.w3.org/2000/svg">
<rect width="250" height="250" rx="125" fill="white"/>
<g clip-path="url(#clip0_242_94351)">
<path d="M125.016 11.3623C62.2487 11.3623 11.3652 62.2458 11.3652 125.014C11.3652 187.781 62.2487 238.665 125.016 238.665C187.784 238.665 238.668 187.781 238.668 125.014C238.668 62.2458 187.784 11.3623 125.016 11.3623Z" fill="url(#paint0_linear_242_94351)"/>
<path d="M200.511 147.58C199.449 133.4 194.308 124.89 190.182 120.248C185.495 114.976 183.55 110.478 184.557 107.241C185.675 103.643 190.126 102.509 190.169 102.498L192.914 101.836L190.37 100.611C188.794 99.8517 186.115 99.1034 183.624 99.5662C185.046 96.7047 186.421 92.3803 186.152 86.6072L186.056 84.5317L181.851 88.1759C179.83 82.1085 171.854 59.0314 164.283 49.0112C159.6 42.8131 155.893 39.0353 151.898 39.3627C148.521 39.6377 145.369 42.8893 141.676 49.9052C137.198 58.4136 135.543 62.0927 134.976 63.7865C126.989 61.9104 120.17 64.3514 118.152 65.2029C117.066 64.3984 115.886 63.9018 114.685 63.6256C114.745 63.4144 114.742 63.1835 114.652 62.9648C114.553 62.7253 112.186 57.0293 108.627 51.2328C103.708 43.2241 99.0645 39.1631 94.8244 39.1631C92.2841 39.1631 89.4401 41.8471 86.1301 47.3685C83.6489 51.5074 80.8883 57.2641 77.9252 64.4784C73.7244 74.7064 70.2855 85.0464 69.2445 88.2447C67.877 87.6987 66.6682 87.0293 66.4532 86.6688L64.4809 86.7282C64.4204 87.0659 63.3114 93.5738 66.2739 100.181C66.2391 100.172 66.2041 100.163 66.1689 100.154C64.4484 99.7308 62.6798 100.071 60.9116 101.166L59.7546 101.886L60.7809 102.783C60.8318 102.828 65.7945 107.274 65.7327 116.162C64.7984 116.982 62.2702 119.384 59.7712 123.34C56.9381 127.826 53.617 135.248 53.8843 145.132L53.987 148.93L55.7805 145.58C55.7861 145.569 55.9625 145.242 56.2669 144.762C54.6626 149.548 53.2144 157.276 55.6813 166.527C57.7944 174.45 62.3936 180.641 66.4512 186.103C70.1171 191.038 73.2834 195.3 73.2834 199.272V202.023L75.0605 199.923C75.153 199.814 76.8148 197.823 77.6283 195.094C78.8601 196.834 80.9444 199.284 84.2021 201.745C94.0005 209.148 106.686 210.788 115.601 210.861C115.839 210.863 116.073 210.864 116.309 210.864C132.031 210.864 143.379 206.55 150.162 202.899C154.649 200.485 157.755 198.07 159.56 196.482C159.586 198.396 159.88 201.159 161.025 204.166L161.929 206.537L162.898 204.192C164.182 201.088 168.427 192.743 172.602 191.414C176.778 190.086 183.276 183.995 187.146 178.874C191.042 173.72 195.406 165.93 195.842 156.537C196.99 159.054 197.995 161.565 197.995 162.489L199.995 162.664C200.042 162.396 201.143 156.018 200.511 147.58H200.511Z" fill="#EFEFEF"/>
<path d="M187.147 178.875C183.276 183.996 176.778 190.087 172.603 191.415C168.427 192.744 164.182 201.089 162.899 204.193L161.929 206.538L161.025 204.167C159.88 201.16 159.586 198.397 159.56 196.483C157.755 198.071 154.649 200.486 150.163 202.901C143.379 206.551 132.031 210.865 116.309 210.866C116.073 210.866 115.839 210.865 115.601 210.863C106.686 210.79 94.0009 209.149 84.2023 201.746C80.9446 199.286 78.86 196.836 77.6285 195.095C76.8148 197.824 75.1532 199.815 75.0607 199.924L74.3528 200.761C73.9926 200.527 73.6362 200.291 73.2836 200.052V199.273C73.2836 195.301 70.1173 191.04 66.4514 186.105C62.3938 180.642 57.7945 174.451 55.6815 166.528C54.1943 160.951 54.1311 155.929 54.666 151.77C55.264 148.633 55.8995 146.743 55.8995 146.743C59.1747 170.93 82.1016 186.298 80.0859 184.283C78.0702 182.267 77.3146 177.48 77.3146 177.48C105.028 198.643 127.451 188.818 127.451 188.818C124.932 193.101 122.16 193.605 122.16 193.605C156.425 189.07 169.778 166.647 169.778 166.647L167.51 174.205C186.658 161.86 181.115 135.154 181.115 135.154C184.39 136.918 186.406 143.972 186.406 143.972C186.658 139.941 186.154 130.367 182.375 121.801C178.596 113.235 171.289 112.731 171.289 112.731C178.847 108.7 177.588 99.1264 177.588 99.1264L175.068 100.638C178.346 96.782 179.558 87.0246 179.946 82.656C180.79 85.0263 181.442 86.9498 181.851 88.177L186.056 84.5329L186.153 86.6084C186.421 92.3814 185.046 96.7058 183.624 99.5673C186.115 99.1045 188.794 99.8528 190.37 100.612L192.914 101.837L190.169 102.499C190.127 102.51 185.675 103.644 184.557 107.242C183.55 110.479 185.495 114.977 190.182 120.25C194.308 124.891 199.449 133.401 200.511 147.581C201.143 156.019 200.042 162.397 199.995 162.665L197.995 162.49C197.995 161.566 196.99 159.055 195.842 156.538C195.406 165.931 191.042 173.721 187.146 178.875H187.147ZM113.846 63.6024C113.907 63.3912 107.254 49.07 106.576 48.1031C103.951 45.6635 102.005 43.9507 102.005 43.9507C102.005 43.9507 108.303 54.5324 104.02 66.1216C104.02 66.1216 114.554 63.7649 113.846 63.6022V63.6024ZM146.395 43.5648C145.123 45.1779 143.815 47.2778 142.432 49.9063C137.953 58.4147 136.299 62.0938 135.732 63.7877C135.497 63.7324 143.071 68.3896 143.071 68.3896C142.567 56.0444 147.606 43.4473 147.606 43.4473C147.201 43.4575 146.797 43.4993 146.394 43.565L146.395 43.5648Z" fill="#DFDAD9"/>
<path d="M95.5156 46.5065C97.5307 49.0059 100.688 54.9367 99.991 67.1299L95.7079 74.6881C95.7079 74.6881 93.1885 72.1687 93.1885 70.1532C93.1885 70.1532 88.9054 73.1766 89.4094 80.9867C89.4094 80.9867 89.1575 77.9633 85.3784 77.4594C85.3784 77.4594 86.6381 82.2464 86.1342 84.2619C85.6302 86.2774 74.5449 96.355 74.5449 92.3241C74.5449 88.4688 82.38 58.3426 92.5407 46.4656C93.3294 45.5434 94.7544 45.5618 95.5158 46.5065H95.5156ZM154.536 68.5155C158.567 69.5233 159.323 78.5932 159.323 78.5932C160.583 76.5777 163.354 76.3256 163.354 76.3256C163.354 76.3256 161.339 80.6087 163.354 84.8917C165.37 89.1748 175.322 92.5759 175.322 92.5759C175.322 69.1453 156.678 44.9588 153.906 44.7069C151.135 44.4551 147.608 56.8001 147.608 63.6026C147.608 70.4051 152.143 73.6803 152.143 73.6803C154.284 72.5465 154.536 68.5155 154.536 68.5155Z" fill="#E4BFC0"/>
<path d="M99.9895 67.1282L95.7064 74.6865C95.7064 74.6865 93.187 72.1671 93.187 70.1516C93.187 70.1516 88.9039 73.1749 89.4079 80.985C89.4079 80.985 89.156 77.9617 85.3769 77.4578C85.3769 77.4578 86.6366 82.2448 86.1327 84.2602C86.007 84.7633 85.2216 85.7688 84.1142 86.932C83.7651 80.1761 84.3561 62.8815 97.6889 50.1749C99.1853 53.5719 100.458 58.9344 99.9895 67.128V67.1282ZM163.353 84.8901C163.857 85.9614 164.858 86.9774 166.075 87.8989C166.115 61.9703 156.224 51.3746 150.599 49.0156C148.934 53.1725 147.607 59.4288 147.607 63.6009C147.607 70.4034 152.142 73.6786 152.142 73.6786C154.283 72.5448 154.535 68.5139 154.535 68.5139C158.566 69.5217 159.322 78.5915 159.322 78.5915C160.582 76.576 163.353 76.324 163.353 76.324C163.353 76.324 161.337 80.607 163.353 84.8901Z" fill="#D6B0AE"/>
<path d="M107.672 148.634C107.672 148.634 97.5944 146.618 97.3425 138.808C97.0907 130.998 104.145 131.502 108.176 131.502C112.207 131.502 119.262 132.51 119.009 137.8C118.757 143.091 111.703 147.878 107.672 148.634V148.634Z" fill="#3A3A3A"/>
<path d="M108.175 131.502C104.494 131.502 98.2951 131.085 97.4375 136.959C98.4958 136.041 108.288 128.102 118.756 138.808C118.79 138.842 118.821 138.873 118.855 138.906C118.936 138.541 118.991 138.172 119.008 137.8C119.26 132.51 112.206 131.502 108.175 131.502V131.502Z" fill="#5E5C5D"/>
<path d="M106.213 156.571C106.213 156.571 117.549 163.526 120.898 164.815C120.898 164.815 119.867 177.696 120.898 184.652C121.928 191.608 100.545 194.184 98.4843 180.53C96.4233 166.876 106.213 156.57 106.213 156.57V156.571Z" fill="#FD818C"/>
<path d="M120.901 184.652C119.87 177.696 120.901 164.814 120.901 164.814C117.552 163.526 106.216 156.57 106.216 156.57C106.216 156.57 104.227 158.665 102.23 162.216L106.037 161.105C106.037 161.105 105.373 172.086 106.083 175.918L108.304 164.633C108.304 164.633 115.107 162.617 115.863 167.908C116.618 173.199 118.886 183.024 115.863 184.536C113.086 185.924 112.433 187.95 103.562 188.271C110.462 192.472 121.653 189.73 120.901 184.652L120.901 184.652Z" fill="#E96A7A"/>
<path d="M200.511 147.58C199.449 133.4 194.308 124.89 190.182 120.248C185.495 114.976 183.55 110.478 184.557 107.241C185.675 103.643 190.126 102.509 190.169 102.498L192.914 101.836L190.37 100.611C188.794 99.8517 186.115 99.1034 183.624 99.5662C185.046 96.7047 186.421 92.3803 186.152 86.6072L186.056 84.5317L181.851 88.1759C179.83 82.1085 171.854 59.0314 164.283 49.0112C159.6 42.8131 155.892 39.0353 151.898 39.3627C148.521 39.6377 145.369 42.8893 141.676 49.9052C137.198 58.4136 135.543 62.0927 134.976 63.7865C126.989 61.9104 120.17 64.3514 118.152 65.2029C117.066 64.3984 115.886 63.9018 114.685 63.6256C114.745 63.4144 114.742 63.1835 114.652 62.9648C114.553 62.7253 112.186 57.0293 108.627 51.2328C103.708 43.2241 99.0645 39.1631 94.8244 39.1631C92.2841 39.1631 89.4401 41.8471 86.1301 47.3685C83.6489 51.5074 80.8883 57.2641 77.9252 64.4784C73.8121 74.4927 70.4294 84.6145 69.3129 88.0349L64.9273 85.4035L64.5209 86.5761C64.407 86.9043 62.3024 93.2086 65.6611 99.9638C64.445 99.7021 62.9096 99.9288 60.9116 101.166L59.7546 101.886L60.7809 102.783C60.8318 102.828 65.7945 107.274 65.7327 116.162C64.7984 116.982 62.2702 119.384 59.7712 123.34C56.9381 127.826 53.617 135.248 53.8843 145.132L53.987 148.93L55.7805 145.58C55.7861 145.569 55.9625 145.243 56.2669 144.762C54.6626 149.548 53.2144 157.277 55.6813 166.527C57.7944 174.45 62.3936 180.641 66.4512 186.104C70.1171 191.039 73.2834 195.301 73.2834 199.272V202.024L75.0605 199.923C75.153 199.814 76.8148 197.823 77.6283 195.094C78.8601 196.835 80.9444 199.285 84.2021 201.745C94.0005 209.148 106.686 210.788 115.601 210.862C115.839 210.864 116.073 210.865 116.309 210.865C132.031 210.864 143.379 206.55 150.162 202.9C154.649 200.485 157.755 198.07 159.56 196.482C159.586 198.396 159.88 201.159 161.025 204.166L161.929 206.537L162.898 204.192C164.182 201.088 168.427 192.743 172.602 191.415C176.778 190.086 183.276 183.995 187.146 178.874C191.042 173.72 195.406 165.93 195.842 156.537C196.99 159.054 197.995 161.565 197.995 162.489L199.995 162.664C200.042 162.396 201.143 156.018 200.511 147.58L200.511 147.58ZM198.522 157.612C197.418 154.986 196.036 152.262 195.615 151.445L193.205 146.768L193.716 152.005C194.776 162.863 189.854 171.949 185.538 177.659C180.431 184.417 174.435 188.716 171.991 189.494C167.676 190.867 163.94 197.374 162.152 200.994C161.233 197.155 161.696 194.181 161.701 194.147L162.271 190.721L159.955 193.31C159.92 193.35 156.339 197.304 149.115 201.174C142.451 204.745 131.237 208.983 115.618 208.846C100.097 208.718 90.6877 204.085 85.528 200.221C79.9543 196.046 77.9997 191.844 77.9815 191.805L76.0545 187.515V192.218C76.0545 193.795 75.4987 195.3 74.9075 196.454C73.9158 192.772 71.1604 189.063 68.0689 184.901C64.119 179.584 59.6421 173.558 57.6289 166.008C53.7652 151.519 60.2204 140.699 60.2854 140.593L62.1297 137.587L58.9756 139.164C57.8191 139.743 56.7776 140.76 55.95 141.762C56.4014 134.067 59.0925 128.208 61.4303 124.488C64.3286 119.875 67.3313 117.447 67.3604 117.424L67.7282 117.131L67.7402 116.661C67.9373 108.969 64.758 104.23 63.0857 102.282C65.3194 101.291 66.2939 102.305 67.4838 103.546C68.1187 104.208 68.7746 104.892 69.6425 105.229L74.0224 106.933L70.726 103.583C64.9901 97.7548 65.5579 91.1522 66.1084 88.4627L70.4578 91.0724L70.8426 89.8556C70.8817 89.7324 74.7966 77.3995 79.7938 65.234C88.7123 43.5227 93.276 41.1788 94.8242 41.1788C98.2635 41.1788 102.438 45.0134 106.897 52.268C109.865 57.097 112.038 61.9872 112.627 63.3563C108.149 63.1608 103.93 65.3472 103.675 65.4824C103.183 65.7427 102.996 66.3516 103.256 66.8435C103.515 67.3352 104.125 67.5234 104.617 67.2643C104.697 67.2222 112.646 63.1083 117.347 67.1383L117.85 67.5679L118.445 67.279C118.554 67.2261 129.475 62.0504 140.448 68.0144C140.601 68.0973 140.766 68.1369 140.929 68.1369C141.286 68.1369 141.632 67.9462 141.815 67.6102C142.081 67.1213 141.9 66.5094 141.411 66.2434C139.898 65.4208 138.392 64.7964 136.915 64.3241C137.357 63.0855 138.793 59.7094 143.459 50.8439C146.75 44.5915 149.483 41.5816 152.061 41.3716C154.68 41.1577 157.761 43.7228 162.675 50.2261C171.039 61.2969 180.315 89.95 180.407 90.2382L180.874 91.6897L184.157 88.8444C183.964 95.2529 181.561 99.438 180.244 101.265C179.885 101.614 179.553 102.021 179.255 102.492L174.428 110.134L180.82 103.743C180.878 103.684 181.261 103.294 181.797 102.573C183.308 101.231 185.402 101.282 187.026 101.62C185.378 102.523 183.434 104.082 182.637 106.627C181.381 110.634 183.413 115.668 188.676 121.588C195.765 129.564 197.93 140.179 198.498 147.68C198.791 151.556 198.701 155.026 198.522 157.612L198.522 157.612ZM125.136 115.424C125.968 112.384 129.795 110.782 133.684 111.847C133.828 111.886 133.969 111.93 134.11 111.975C133.154 112.413 132.49 113.374 132.49 114.494C132.49 116.024 133.73 117.265 135.261 117.265C136.764 117.265 137.985 116.067 138.028 114.575C139.168 115.969 139.66 117.664 139.218 119.279C138.386 122.319 134.559 123.92 130.67 122.856C126.781 121.791 124.303 118.464 125.135 115.424L125.136 115.424ZM86.7884 118.86C86.4035 117.387 86.9786 115.84 88.1815 114.639C88.1606 114.756 88.1479 114.875 88.1479 114.998C88.1479 116.111 89.0503 117.013 90.1634 117.013C91.2765 117.013 92.1788 116.111 92.1788 114.998C92.1788 114.059 91.5369 113.273 90.6689 113.049C90.9476 112.941 91.2367 112.847 91.5358 112.769C94.8131 111.913 98.001 113.252 98.6561 115.76C99.3111 118.268 97.1856 120.995 93.9086 121.851C90.6314 122.708 87.4437 121.368 86.7884 118.861V118.86ZM134.631 135.279C134.631 135.279 138.536 142.711 141.056 144.727C141.056 144.727 135.765 160.599 124.428 162.615C124.428 162.615 119.137 163.37 108.807 154.805V149.393C110.926 148.779 113.373 147.416 115.412 145.684C118.256 143.268 119.892 140.485 120.017 137.846C120.096 136.191 119.578 134.766 118.476 133.611C115.792 130.796 110.38 130.492 108.178 130.492C107.957 130.492 107.727 130.491 107.49 130.489C104.601 130.47 100.651 130.444 98.2544 132.903C96.8997 134.293 96.2546 136.29 96.3369 138.839C96.4517 142.398 98.4438 145.399 102.098 147.52C103.825 148.522 105.527 149.098 106.54 149.385V154.805L98.9818 160.599C98.9818 160.599 95.2027 161.607 92.4314 157.324C89.6601 153.041 85.6289 139.184 92.4314 132.886C99.2339 126.587 108.304 121.297 117.5 126.965C117.5 126.965 112.461 120.163 100.872 124.446C89.2823 128.729 86.7629 138.807 86.7629 140.57C86.7629 142.334 85.7551 154.931 93.8172 161.229C93.8172 161.229 95.0442 165.107 98.6251 168.691C97.5939 172.178 97.0731 176.229 97.7391 180.641C98.8156 187.771 105.025 191.094 111.388 191.094C112.3 191.094 113.215 191.025 114.119 190.89C119.075 190.149 122.101 187.597 121.648 184.539C121.202 181.529 121.151 177.347 121.232 173.613C134.209 169.925 139.671 157.45 139.671 157.45L142.946 147.876C142.946 147.876 144.457 150.9 142.946 153.923C142.946 153.923 146.725 150.144 144.205 144.853C141.686 139.563 139.922 142.586 134.632 135.28L134.631 135.279ZM100.311 143.538C100.752 143.182 103.14 141.107 102.748 138.243C102.697 137.869 102.541 136.731 101.64 136.527C101.306 136.451 100.411 136.451 99.333 138.084C99.1416 138.374 99.2216 138.765 99.5114 138.956C99.8012 139.148 100.192 139.068 100.384 138.779C100.679 138.334 101.108 137.889 101.334 137.781C101.377 137.862 101.449 138.044 101.5 138.414C101.792 140.548 99.9094 142.233 99.5434 142.538C98.8563 141.488 98.3985 140.245 98.3512 138.774C98.2865 136.766 98.727 135.306 99.6976 134.31C101.32 132.646 104.291 132.501 106.71 132.501C106.973 132.501 107.229 132.503 107.476 132.505C107.718 132.506 107.952 132.508 108.177 132.508C109.693 132.508 114.811 132.688 117.017 135.002C117.734 135.753 118.056 136.652 118.004 137.751C117.929 139.327 117.111 141.016 115.664 142.636C114.016 141.493 110.279 139.277 110.442 137.478C110.476 137.105 110.54 136.921 110.579 136.838C110.809 136.935 111.259 137.36 111.573 137.791C111.778 138.072 112.171 138.134 112.453 137.93C112.734 137.726 112.797 137.331 112.592 137.05C112.208 136.523 111.21 135.326 110.216 135.599C109.326 135.844 109.222 136.988 109.188 137.363C108.928 140.223 112.962 143.658 113.839 144.369C111.889 145.96 109.529 147.201 107.686 147.601C106.777 147.382 102.771 146.288 100.311 143.538L100.311 143.538ZM113.895 189.395C108.662 190.177 100.443 188.431 99.2332 180.415C97.4907 168.873 104.574 159.657 106.362 157.544C107.038 157.956 108.272 158.704 109.755 159.585C102.94 171.584 107.295 180.755 107.295 180.755C106.232 169.229 109.286 163.07 111.188 160.432C114.333 162.281 118.07 164.405 120.105 165.3C119.919 167.864 119.229 178.535 120.152 184.76C120.52 187.247 117.166 188.906 113.895 189.395Z" fill="#212121"/>
</g>
<defs>
<linearGradient id="paint0_linear_242_94351" x1="125.016" y1="12.4654" x2="125.016" y2="238.072" gradientUnits="userSpaceOnUse">
<stop stop-color="#00F4A3"/>
<stop offset="1" stop-color="#D80EFF"/>
</linearGradient>
<clipPath id="clip0_242_94351">
<rect width="227.302" height="227.302" fill="white" transform="translate(11.3652 11.3623)"/>
</clipPath>
</defs>
</svg>
