<svg width="250" height="250" viewBox="0 0 250 250" fill="none" xmlns="http://www.w3.org/2000/svg">
<path d="M186.547 63.2152C185.857 63.2152 185.24 63.2152 184.55 63.2759H166.808V67.1614C173.094 67.1614 179.321 67.2221 185.607 67.1614C187.164 67.2221 188.839 67.1007 190.278 67.6167C191.526 68.1935 192.584 69.4381 193.583 70.4094C203.658 81.2918 213.998 91.8555 224.073 102.738C190.91 137.601 157.672 172.464 124.494 207.328C91.1976 172.404 58.0337 137.54 24.7964 102.617C34.7544 92.2501 44.5214 81.8231 54.4794 71.4567C56.2859 69.7113 57.9015 67.2525 60.7068 67.3132C68.7407 67.1766 76.8187 67.3739 84.9114 67.2525C85.0289 67.2525 85.2199 67.2525 85.352 67.2525H99.349L101.405 63.2304H73.2791H64.4374C62.1315 63.2304 59.8256 63.0938 57.5931 63.4884C56.1684 63.8071 54.9788 64.9758 53.98 65.9472C44.3892 75.9948 34.8719 86.0273 25.3545 96.1356C23.357 98.2757 21.3743 100.674 19.0684 102.419V102.677C24.3558 107.792 29.276 113.302 34.3725 118.614C64.4374 150.168 94.4875 181.662 124.552 213.156C157.848 178.232 191.086 143.369 224.308 108.445C226.174 106.502 227.863 104.559 229.904 102.814V102.48C228.039 100.795 226.35 98.8525 224.617 97.0311C214.659 86.5282 204.642 76.1011 194.743 65.5374C193.803 64.6267 192.745 63.5339 191.38 63.3366C189.779 63.2759 188.163 63.2152 186.547 63.2152Z" fill="#6666FF"/>
<path d="M166.823 70.4074V74.3536H179.086C181.642 74.4143 184.124 74.3536 186.621 74.6116C187.811 74.6723 188.545 75.583 189.353 76.3571C197.563 84.978 205.714 93.7204 213.998 102.341C185.813 132.014 157.614 161.701 129.429 191.374C127.872 193.058 126.256 194.682 124.641 196.367C94.8696 165.01 65.1278 133.714 35.3126 102.417C43.2732 93.857 51.3071 85.4333 59.341 77.0097C60.1488 76.0991 61.0888 75.325 62.0729 74.7482C63.3213 74.4902 64.555 74.3536 65.8034 74.4295C76.1286 74.4902 86.4684 74.4902 96.7936 74.4902C96.7936 73.3822 97.0433 72.3502 97.4104 71.3788V71.3181C97.4104 71.2574 97.4104 71.2574 97.5279 71.1208C97.5867 70.9235 97.7189 70.802 97.7776 70.6047H74.2192C70.7971 70.6047 67.375 70.6047 63.9528 70.6047H63.8941C62.0875 70.6654 60.4132 70.6047 58.9151 71.8341C56.9911 73.3822 55.4342 75.4009 53.7452 77.207C45.7112 85.4941 37.6332 93.9177 29.7168 102.417C61.3238 135.717 92.9455 168.956 124.626 202.211C154.617 170.656 184.565 139.162 214.556 107.669C216.113 105.984 217.978 104.36 219.285 102.417C218.786 101.643 218.228 100.869 217.538 100.216C209.944 92.2481 202.483 84.2798 194.89 76.3723C193.274 74.6875 191.776 72.8055 189.911 71.3788C188.486 70.3467 186.357 70.4074 184.682 70.4074H166.823ZM74.2192 70.4681C81.9301 70.4681 89.6556 70.4681 97.4398 70.4681H74.2192ZM97.1755 71.9555C96.9258 72.6689 96.867 73.443 96.8083 74.217C96.8083 73.4581 96.9258 72.7448 97.1755 71.9555Z" fill="#6666FF"/>
<path d="M70.1077 77.9182C69.2411 77.9789 68.3599 77.9789 67.4933 77.9789C67.3024 77.9789 67.1849 77.9789 66.994 77.9789C65.8777 77.9789 64.7468 78.1155 63.6306 78.3735C62.3822 78.8289 61.3247 79.9217 60.4581 80.7716C53.6139 87.9659 46.8871 95.1601 40.1016 102.354C68.1836 132.027 96.4273 161.517 124.495 191.189C127.417 188.275 130.281 185.164 133.145 182.189C158.349 155.552 183.611 128.991 208.947 102.43C202.793 95.6306 196.315 89.089 190.029 82.3501C188.84 80.9841 187.606 79.8306 186.167 78.7833C184.977 78.07 183.435 78.07 182.054 78.07H166.809V82.0921C171.288 82.0921 175.709 82.0921 180.189 82.0314C181.804 82.0921 183.67 81.8948 184.918 83.0635C186.534 84.5509 188.091 86.1142 189.589 87.7989C194.068 92.6558 198.856 97.3305 203.16 102.309C201.911 104.13 200.178 105.739 198.621 107.363C173.859 133.286 149.272 159.392 124.436 185.255C100.04 159.559 75.6448 133.909 51.2492 108.243C49.4427 106.301 47.3865 104.479 45.8296 102.354C46.9458 100.609 48.6349 99.1215 50.0008 97.6189C53.981 93.4146 58.0935 89.1345 62.0737 84.9151C62.9403 83.9438 63.939 83.0331 65.1287 82.3956C66.3184 82.0769 67.4933 81.9403 68.683 82.001C78.2004 82.0617 87.659 82.0617 97.191 82.0617V82.001H101.054C100.995 82.001 100.936 82.001 100.863 81.9403C99.306 81.0296 98.0576 79.6029 97.3819 77.9182H70.1077Z" fill="#6666FF"/>
<path d="M73.7186 85.436C70.7371 85.436 67.7409 85.7548 65.1266 87.3181C62.7619 88.6841 61.0141 91.2036 59.2076 93.207C56.4023 96.3184 53.4796 99.2933 50.498 102.283C54.9777 107.277 59.707 111.997 64.3188 116.93C84.3522 138.057 104.4 159.109 124.493 180.175C149.138 154.252 173.783 128.343 198.428 102.481C194.698 98.3371 190.717 94.5123 187.046 90.4295C185.929 89.0635 184.681 87.7734 183.256 86.7413C181.832 85.7699 179.893 85.8307 178.277 85.7699H166.763V89.6554C170.802 89.7161 174.855 89.792 178.894 89.792C181.009 89.7313 182.125 91.2187 183.506 92.5847C186.561 95.8935 189.66 99.187 192.774 102.435C170.126 126.537 147.155 150.381 124.507 174.423C103.211 152.112 82.0463 129.831 60.8379 107.474C59.281 105.85 57.5333 104.241 56.2995 102.359C57.9739 100.098 60.1623 98.2157 62.0276 96.0756C63.8928 94.1936 65.5084 92.0535 67.5647 90.4447C68.4312 89.7313 69.4887 89.792 70.5462 89.7313C79.3879 89.4733 88.2884 89.5947 97.1889 89.5947V89.534H105.34C104.4 88.426 103.783 87.1359 103.416 85.7092V85.6333H88.964C88.7143 85.6333 88.4647 85.6333 88.2737 85.6333C83.4269 85.5119 78.5654 85.436 73.7186 85.436Z" fill="#6666FF"/>
<path d="M73.5878 93.1448C72.2806 93.2055 70.7238 93.0841 69.4753 93.6608C67.9772 94.4956 66.8023 95.9982 65.6126 97.2276C64.1145 98.8516 62.3814 100.4 61.0742 102.221C61.882 103.845 63.4389 105.135 64.6873 106.501C84.6032 127.371 104.402 148.361 124.318 169.155C145.409 146.859 166.573 124.639 187.737 102.418C185.255 99.7623 182.817 96.9088 180.085 94.5108C178.778 93.1448 177.28 93.3421 175.547 93.2814H166.705V97.1669H171.802C173.917 97.2276 176.222 97.1669 178.088 98.3963C179.645 99.4283 180.893 101.113 182.127 102.54C162.828 122.832 143.543 143.049 124.318 163.387C104.96 143.11 85.7195 122.696 66.3763 102.479C67.801 100.931 69.0494 99.3676 70.9881 98.3963C73.4703 97.1062 76.4077 97.0303 79.1396 97.1062C85.1173 97.3035 91.095 97.1669 97.058 97.1669H110.321C109.821 95.9375 109.704 94.5715 109.88 93.2814H94.62C87.6582 93.1448 80.623 93.2207 73.5878 93.1448Z" fill="#6666FF"/>
<path d="M159.596 87.2567C159.537 80.5178 159.405 73.5209 159.405 67.1766V63.1545H108.749L107.691 65.3553C107.5 65.8106 107.001 66.782 106.575 67.7534C106.266 68.4667 105.885 69.1801 105.767 69.4988C105.209 70.6068 104.768 71.6389 104.401 72.6103C103.153 76.2377 104.959 80.2598 108.44 81.5499C109.13 81.8079 109.865 81.9445 110.687 81.9445H111.128C110.188 84.206 110.57 86.8014 112.127 88.6834C113.375 90.3682 115.299 91.3395 117.355 91.4003C117.546 91.4003 117.664 91.4003 117.855 91.4003L117.796 91.5369C116.18 94.9063 117.488 98.8525 120.91 100.871C121.967 101.524 123.157 101.843 124.391 101.843C124.581 101.843 124.699 101.843 124.89 101.843L124.332 102.95C121.717 108.141 119.044 113.317 116.371 118.568C115.064 120.906 115.182 123.881 116.812 126.081C118.119 127.903 120.234 128.995 122.408 128.995C124.772 128.995 127.02 127.629 128.136 125.429C129.942 121.999 131.749 118.553 133.115 115.715C133.981 113.97 134.789 112.406 135.421 111.238C136.919 108.263 138.285 105.667 139.46 103.209C141.384 99.323 143.132 95.9536 144.879 92.7055C145.129 92.2502 145.32 92.2502 145.379 92.2502H145.57C146.128 92.3109 146.627 92.7662 146.686 93.4189C146.936 94.709 147.053 96.0143 147.126 97.3044C147.126 97.6231 147.126 98.0177 147.126 98.3365C147.126 99.5659 147.126 100.932 147.244 102.283C147.552 106.168 150.549 109.219 154.338 109.416C154.529 109.416 154.646 109.416 154.779 109.416C156.086 109.477 157.393 108.961 158.392 107.989C159.39 106.957 159.89 105.531 159.816 104.043C159.728 98.6552 159.655 92.827 159.596 87.2567ZM154.558 105.394C152.693 105.333 151.195 103.846 151.136 101.888C151.019 100.34 151.019 98.7766 151.019 97.1526C151.019 95.6045 150.828 94.0412 150.519 92.4931C150.079 90.2923 148.404 88.6076 146.289 88.2129C144.365 87.8183 142.427 88.7897 141.56 90.611C138.637 95.9232 136.023 101.433 132.043 109.204C130.427 112.315 127.681 117.885 124.816 123.334C123.7 125.474 121.086 125.019 119.955 123.531C119.206 122.621 119.206 121.27 119.838 120.299C123.451 113.302 126.99 106.244 130.545 99.2471C131.411 97.5624 132.219 95.9384 133.1 94.2537C133.849 92.7662 133.541 91.3395 132.234 90.5655C130.926 89.7914 129.678 90.1709 128.87 91.7342C128.062 93.2216 127.313 94.7849 126.506 96.2723C125.698 97.7597 124.258 98.0936 122.834 97.183C121.218 96.2116 120.587 94.6635 121.277 93.1609C122.584 90.4441 124.009 87.788 125.316 85.056C126.006 83.8266 125.566 82.2633 124.376 81.6258C124.067 81.4285 123.686 81.3071 123.318 81.3071C122.452 81.2464 121.644 81.7017 121.262 82.4758C120.704 83.5078 120.205 84.6158 119.647 85.6479C118.589 87.5299 116.592 87.6514 115.167 85.9059C114.477 85.1319 114.359 84.0239 114.859 83.1132C115.916 81.0339 116.973 78.9697 118.031 76.8904C118.78 75.403 118.472 73.9762 117.223 73.2022C115.975 72.4281 114.609 72.8835 113.801 74.4316C113.434 75.0842 113.111 75.7976 112.744 76.435C112.185 77.6037 110.82 78.1198 109.63 77.4671C109.571 77.4671 109.512 77.4064 109.512 77.4064C108.264 76.7538 107.647 75.2664 108.088 73.9004C108.455 72.929 108.895 72.0183 109.336 71.1077C109.703 70.3336 110.893 67.7989 111.26 67.0249H155.689C155.689 78.7572 155.998 92.1591 156.056 103.892C155.924 105.136 155.484 105.394 154.558 105.394Z" fill="#6666FF"/>
<path d="M138.504 114.347L136.139 119.007C136.506 120.373 136.697 121.86 136.697 123.287C136.697 131.771 130.044 138.708 121.893 138.708C113.741 138.708 107.073 131.771 107.073 123.287C107.073 116.867 110.862 111.175 116.664 108.899L119.087 104.103C108.88 105.727 101.844 115.577 103.401 126.201C104.958 136.826 114.417 144.157 124.624 142.532C134.832 140.908 141.867 131.058 140.31 120.434C140.061 118.294 139.429 116.214 138.504 114.347Z" fill="#6666FF"/>
</svg>
