<svg width="250" height="250" viewBox="0 0 250 250" fill="none" xmlns="http://www.w3.org/2000/svg">
<rect width="250" height="250" rx="125" fill="white"/>
<g clip-path="url(#clip0_242_94357)">
<path d="M238.668 171.521V196.673C238.677 202.129 237.73 207.545 235.87 212.675C233.966 217.728 231.023 222.325 227.232 226.168C223.496 230.002 218.831 233.088 213.228 235.416C207.633 237.588 201.101 238.666 193.63 238.666H22.7275C16.4501 238.666 11.3653 233.581 11.3653 227.304V204.579C11.3653 198.301 16.4501 193.217 22.7275 193.217H147.745L79.5554 147.751H214.898C228.026 147.751 238.668 158.393 238.668 171.521ZM227.306 11.3633H56.403C48.9407 11.3633 42.3998 12.4493 36.805 14.6133C31.202 16.9499 26.5371 20.0269 22.8018 23.8611C19.01 27.7047 16.0668 32.3017 14.163 37.3542C12.3018 42.4867 11.3551 47.9056 11.3653 53.3649V78.5248C11.3653 91.6522 22.0072 102.294 35.1348 102.294H170.478L102.288 56.8288H227.306C233.583 56.8288 238.668 51.7358 238.668 45.4584V22.7336C238.668 16.456 233.583 11.3633 227.306 11.3633Z" fill="#6966FB"/>
</g>
<defs>
<clipPath id="clip0_242_94357">
<rect width="227.302" height="227.302" fill="white" transform="translate(11.3652 11.3633)"/>
</clipPath>
</defs>
</svg>
