<svg width="250" height="250" viewBox="0 0 250 250" fill="none" xmlns="http://www.w3.org/2000/svg">
<g clip-path="url(#clip0_242_94891)">
<mask id="mask0_242_94891" style="mask-type:alpha" maskUnits="userSpaceOnUse" x="0" y="-1" width="251" height="252">
<path d="M125.001 250.028C194.037 250.028 250.001 194.056 250.001 125.011C250.001 55.9668 194.037 -0.00488281 125.001 -0.00488281C55.9654 -0.00488281 0.000976562 55.9668 0.000976562 125.011C0.000976562 194.056 55.9654 250.028 125.001 250.028Z" fill="url(#paint0_linear_242_94891)"/>
</mask>
<g mask="url(#mask0_242_94891)">
<path d="M125.001 250.028C194.037 250.028 250.001 194.056 250.001 125.011C250.001 55.9668 194.037 -0.00488281 125.001 -0.00488281C55.9654 -0.00488281 0.000976562 55.9668 0.000976562 125.011C0.000976562 194.056 55.9654 250.028 125.001 250.028Z" fill="#31D8A4"/>
<path d="M125 233.359C184.831 233.359 233.334 184.85 233.334 125.012C233.334 65.1729 184.831 16.6641 125 16.6641C65.1695 16.6641 16.667 65.1729 16.667 125.012C16.667 184.85 65.1695 233.359 125 233.359Z" fill="white"/>
</g>
<path d="M124.999 220.862C177.927 220.862 220.833 177.95 220.833 125.016C220.833 72.0816 177.927 29.1699 124.999 29.1699C72.0721 29.1699 29.166 72.0816 29.166 125.016C29.166 177.95 72.0721 220.862 124.999 220.862Z" fill="#0E052F"/>
<path d="M125.001 229.196C182.53 229.196 229.167 182.552 229.167 125.015C229.167 67.478 182.53 20.835 125.001 20.835C67.471 20.835 20.834 67.478 20.834 125.015C20.834 182.552 67.471 229.196 125.001 229.196Z" fill="#F7931A"/>
<path d="M171.805 112.124C173.849 98.4761 163.452 91.1381 149.247 86.2411L153.856 67.7491L142.606 64.9498L138.114 82.9532C135.158 82.2109 132.124 81.5207 129.097 80.8305L133.622 62.7099L122.372 59.9033L117.762 78.3885C115.314 77.8286 112.906 77.2822 110.575 76.6961L110.588 76.6373L95.067 72.7633L92.0722 84.7831C92.0722 84.7831 100.425 86.6974 100.249 86.8146C104.807 87.9539 105.627 90.9688 105.49 93.365L100.243 114.429C100.555 114.507 100.959 114.624 101.414 114.8L100.223 114.507L92.8665 144.016C92.3066 145.396 90.8936 147.473 87.7035 146.686C87.8206 146.848 79.5264 144.648 79.5264 144.648L73.9404 157.527L88.5889 161.18C91.3102 161.864 93.9795 162.58 96.6035 163.25L91.9482 181.951L103.192 184.75L107.801 166.258C110.874 167.085 113.856 167.854 116.773 168.583L112.176 186.996L123.426 189.796L128.081 171.136C147.274 174.768 161.701 173.304 167.775 155.945C172.671 141.971 167.534 133.904 157.437 128.649C164.794 126.956 170.327 122.119 171.805 112.124ZM146.089 148.183C142.619 162.163 119.084 154.603 111.453 152.709L117.638 127.933C125.269 129.841 149.728 133.611 146.089 148.183ZM149.572 111.922C146.401 124.638 126.818 118.173 120.471 116.59L126.07 94.1265C132.417 95.7085 152.879 98.6584 149.572 111.922Z" fill="white"/>
</g>
<defs>
<linearGradient id="paint0_linear_242_94891" x1="125.001" y1="-0.00488281" x2="125.001" y2="365.573" gradientUnits="userSpaceOnUse">
<stop stop-color="#08021E"/>
<stop offset="1" stop-color="#1F0777"/>
</linearGradient>
<clipPath id="clip0_242_94891">
<rect width="250" height="250" rx="125" fill="white"/>
</clipPath>
</defs>
</svg>
