<svg width="250" height="250" viewBox="0 0 250 250" fill="none" xmlns="http://www.w3.org/2000/svg">
<rect width="250" height="250" rx="125" fill="#1AD874"/>
<path d="M166.144 124.015V166.006H124.275C116.001 166.006 107.912 163.543 101.032 158.929C94.1526 154.315 88.7905 147.757 85.6241 140.085C82.4577 132.412 81.6292 123.969 83.2435 115.823C84.8577 107.678 88.8421 100.196 94.6928 94.3235C100.544 88.451 107.998 84.4518 116.113 82.8315C124.228 81.2113 132.64 82.0429 140.284 85.221C147.929 88.3992 154.463 93.7813 159.059 100.687C163.656 107.592 166.11 115.71 166.11 124.015H166.144ZM124.827 54.0309C115.671 53.7579 106.55 55.2978 97.9867 58.5626C89.4232 61.8275 81.5842 66.7533 74.9173 73.059C68.2504 79.3646 62.8861 86.9265 59.1308 95.313C55.3755 103.699 53.3027 112.746 53.0308 121.937C52.7588 131.127 54.293 140.281 57.5457 148.877C60.7985 157.472 65.7061 165.34 71.9884 172.032C78.2706 178.724 85.8045 184.108 94.1599 187.877C102.515 191.647 111.528 193.727 120.685 194H194V124.847C194 86.2515 163.279 54.308 124.827 54.0309" fill="white"/>
</svg>
