<svg width="250" height="250" viewBox="0 0 250 250" fill="none" xmlns="http://www.w3.org/2000/svg">
<g clip-path="url(#clip0_242_94804)">
<mask id="mask0_242_94804" style="mask-type:luminance" maskUnits="userSpaceOnUse" x="0" y="-1" width="250" height="251">
<path d="M0 -0.00488281H250V249.995H0V-0.00488281Z" fill="white"/>
</mask>
<g mask="url(#mask0_242_94804)">
<path d="M250 124.995C250 55.96 194.035 -0.00488281 125 -0.00488281C55.9648 -0.00488281 0 55.96 0 124.995C0 194.03 55.9648 249.995 125 249.995C194.035 249.995 250 194.03 250 124.995Z" fill="white"/>
<path d="M128.709 187.773V177.061L155.164 161.48V129.667L164.74 124.636L165.065 166.997L128.709 187.773Z" fill="#2C2C2E"/>
<path d="M136.338 109.542L147.213 103.375L173.993 120.255L174.155 171.218L165.066 166.998L164.741 124.637L136.338 109.542ZM128.224 51.1135L173.831 77.2444V88.1204L128.224 62.4758V51.1135ZM82.9395 130.967L82.7783 77.7317L128.223 50.9514V62.3127L91.2178 83.4124V124.962L82.9395 130.967Z" fill="#2C2C2E"/>
<path d="M109.721 145.899L82.9404 130.967L91.2178 124.8L137.15 151.255L109.721 166.837L100.632 172.03L128.71 187.935L165.066 166.999L174.155 171.218L128.386 198.485L82.9404 172.517L119.135 151.093L109.721 145.899ZM91.2178 83.4119L128.224 62.4744L173.831 88.1189L147.213 103.375L136.339 109.543L164.579 124.636L155.166 129.669L118.81 109.055L155.004 87.6316L146.401 82.6003L128.386 72.2126L101.443 87.7937L91.2178 83.4119Z" fill="#2C2C2E"/>
<path d="M100.631 172.03L109.721 166.836L128.548 177.224V187.936L100.631 172.03ZM83.1025 172.518V161.156L109.721 145.899L119.297 151.093L83.1025 172.518ZM118.81 109.056L118.972 98.1816L146.401 82.7617L155.004 87.7939L118.81 109.056ZM91.2178 124.962L91.3799 83.4121L101.443 87.957L101.605 120.58L137.15 140.381V151.58L91.2178 124.962Z" fill="#2C2C2E"/>
<path fill-rule="evenodd" clip-rule="evenodd" d="M164.992 124.217C165.064 124.26 165.124 124.321 165.165 124.394C165.207 124.467 165.229 124.549 165.229 124.632L165.555 166.995C165.555 167.081 165.533 167.167 165.489 167.242C165.446 167.317 165.384 167.379 165.309 167.423L128.952 188.197C128.878 188.239 128.794 188.262 128.708 188.261C128.623 188.261 128.539 188.238 128.465 188.195C128.391 188.152 128.33 188.091 128.287 188.017C128.244 187.943 128.222 187.859 128.222 187.773V177.061C128.222 176.976 128.244 176.893 128.286 176.819C128.328 176.745 128.389 176.683 128.462 176.64L154.677 161.201V129.668C154.677 129.487 154.777 129.32 154.938 129.236L164.515 124.205C164.589 124.166 164.671 124.147 164.755 124.149C164.839 124.151 164.92 124.175 164.992 124.217ZM155.653 129.964V161.48C155.654 161.565 155.631 161.648 155.589 161.722C155.547 161.796 155.486 161.857 155.413 161.9L129.198 177.34V186.931L164.575 166.716L164.259 125.442L155.653 129.964Z" fill="white"/>
<path fill-rule="evenodd" clip-rule="evenodd" d="M146.971 102.95C147.047 102.907 147.135 102.885 147.223 102.887C147.311 102.889 147.397 102.915 147.472 102.962L174.252 119.842C174.322 119.885 174.379 119.946 174.419 120.018C174.459 120.09 174.48 120.171 174.48 120.253L174.643 171.217C174.643 171.299 174.622 171.38 174.583 171.452C174.544 171.524 174.487 171.585 174.417 171.63C174.348 171.674 174.269 171.7 174.187 171.706C174.105 171.711 174.023 171.696 173.948 171.661L164.859 167.441C164.776 167.402 164.705 167.34 164.655 167.263C164.605 167.185 164.578 167.094 164.577 167.002L164.255 124.932L136.108 109.974C136.031 109.932 135.967 109.871 135.921 109.797C135.876 109.722 135.851 109.637 135.85 109.549C135.849 109.462 135.871 109.376 135.914 109.3C135.958 109.224 136.021 109.161 136.097 109.118L146.971 102.95ZM137.352 109.528L164.97 124.205C165.047 124.246 165.112 124.308 165.158 124.383C165.203 124.459 165.228 124.545 165.229 124.633L165.551 166.685L173.663 170.452L173.505 120.524L147.198 103.943L137.352 109.528ZM127.978 50.6914C128.051 50.6484 128.135 50.6256 128.221 50.6252C128.306 50.6249 128.391 50.647 128.465 50.6894L174.072 76.8203C174.147 76.863 174.209 76.9246 174.252 76.9991C174.296 77.0735 174.318 77.158 174.318 77.2441V88.1201C174.319 88.2054 174.297 88.2894 174.254 88.3635C174.212 88.4376 174.151 88.4993 174.077 88.5425C174.004 88.5856 173.92 88.6086 173.834 88.6092C173.749 88.6098 173.665 88.5879 173.591 88.5459L127.983 62.9013C127.908 62.8589 127.845 62.7971 127.801 62.7223C127.757 62.6474 127.734 62.5622 127.734 62.4755V51.1132C127.734 51.0278 127.757 50.9439 127.8 50.8698C127.842 50.7958 127.904 50.7343 127.978 50.6914ZM128.711 51.956V62.1894L173.342 87.2841V77.5283L128.711 51.956Z" fill="white"/>
<path fill-rule="evenodd" clip-rule="evenodd" d="M128.466 50.5267C128.54 50.5695 128.602 50.6312 128.646 50.7056C128.689 50.78 128.712 50.8645 128.712 50.9505V62.3118C128.712 62.398 128.689 62.4826 128.645 62.557C128.602 62.6315 128.54 62.6931 128.465 62.7357L91.7061 83.6947V124.961C91.706 125.038 91.6877 125.114 91.6528 125.183C91.6178 125.251 91.5671 125.311 91.5049 125.356L83.2275 131.362C83.1548 131.415 83.0688 131.446 82.9792 131.453C82.8895 131.461 82.7996 131.443 82.7194 131.402C82.6392 131.361 82.5718 131.299 82.5247 131.223C82.4775 131.146 82.4524 131.058 82.4522 130.968L82.29 77.7318C82.2898 77.6466 82.3119 77.5629 82.354 77.4889C82.3962 77.4149 82.4569 77.3532 82.5303 77.3099L127.976 50.5296C128.05 50.486 128.134 50.4627 128.22 50.4622C128.306 50.4617 128.391 50.4839 128.466 50.5267ZM83.2666 78.0091L83.4258 130.011L90.7295 124.712V83.4115C90.7293 83.3252 90.752 83.2405 90.7953 83.1659C90.8385 83.0913 90.9007 83.0294 90.9756 82.9866L127.735 62.0277V51.805L83.2666 78.0091Z" fill="white"/>
<path fill-rule="evenodd" clip-rule="evenodd" d="M90.9268 124.407C91.0032 124.351 91.0946 124.317 91.1897 124.312C91.2848 124.306 91.3794 124.329 91.462 124.376L137.394 150.831C137.468 150.874 137.53 150.936 137.573 151.01C137.616 151.085 137.639 151.17 137.638 151.256C137.638 151.342 137.615 151.426 137.572 151.5C137.529 151.575 137.466 151.636 137.392 151.679L109.963 167.26L101.619 172.027L128.708 187.373L164.823 166.574C164.891 166.536 164.967 166.513 165.046 166.51C165.124 166.507 165.202 166.522 165.273 166.555L174.361 170.775C174.441 170.812 174.51 170.871 174.559 170.945C174.608 171.019 174.636 171.104 174.641 171.193C174.645 171.281 174.626 171.369 174.584 171.447C174.543 171.525 174.481 171.591 174.405 171.637L128.636 198.904C128.561 198.949 128.477 198.972 128.39 198.973C128.304 198.974 128.219 198.952 128.144 198.909L82.6983 172.941C82.6244 172.898 82.563 172.837 82.5201 172.763C82.4771 172.689 82.4542 172.605 82.4535 172.52C82.4528 172.435 82.4744 172.351 82.5161 172.276C82.5579 172.202 82.6183 172.14 82.6915 172.096L118.15 151.107L109.485 146.326L109.483 146.324L82.7032 131.393C82.6317 131.353 82.5712 131.297 82.5274 131.228C82.4835 131.159 82.4577 131.08 82.4523 130.998C82.4468 130.917 82.4619 130.835 82.4962 130.761C82.5305 130.687 82.5829 130.623 82.6485 130.574L90.9268 124.407ZM91.253 125.382L83.837 130.907L109.957 145.471L109.959 145.472L119.37 150.664C119.446 150.706 119.509 150.767 119.553 150.84C119.597 150.914 119.621 150.998 119.622 151.084C119.624 151.17 119.602 151.255 119.56 151.33C119.518 151.405 119.457 151.468 119.383 151.512L83.9122 172.509L128.381 197.92L173.111 171.272L165.091 167.547L128.954 188.359C128.881 188.401 128.797 188.423 128.712 188.424C128.627 188.424 128.544 188.402 128.47 188.36L100.391 172.454C100.316 172.412 100.253 172.35 100.21 172.276C100.167 172.201 100.144 172.116 100.144 172.03C100.143 171.944 100.166 171.859 100.209 171.785C100.253 171.71 100.315 171.648 100.39 171.606L109.48 166.411L136.167 151.251L91.253 125.382ZM127.983 62.049C128.057 62.0078 128.139 61.9861 128.223 61.9861C128.307 61.9861 128.39 62.0078 128.463 62.049L174.07 87.6925C174.146 87.7349 174.208 87.7964 174.252 87.8709C174.296 87.9454 174.319 88.0301 174.319 88.1165C174.32 88.2029 174.297 88.2878 174.254 88.3626C174.211 88.4373 174.148 88.4993 174.073 88.5422L147.456 103.798L147.454 103.799L137.351 109.529L164.81 124.206C164.888 124.248 164.953 124.31 164.998 124.385C165.044 124.461 165.068 124.548 165.068 124.636C165.068 124.725 165.044 124.812 164.998 124.887C164.953 124.963 164.888 125.025 164.81 125.067L155.397 130.099C155.324 130.137 155.242 130.157 155.16 130.156C155.078 130.155 154.997 130.133 154.925 130.093L118.569 109.48C118.495 109.438 118.433 109.377 118.389 109.303C118.346 109.229 118.323 109.145 118.322 109.06C118.321 108.974 118.342 108.89 118.384 108.815C118.426 108.741 118.487 108.679 118.561 108.635L154.041 87.6339L146.157 83.0226L146.155 83.0207L128.386 72.7765L101.688 88.216C101.622 88.254 101.548 88.2762 101.472 88.2808C101.397 88.2853 101.321 88.2722 101.251 88.2423L91.0264 83.8595C90.9429 83.8237 90.8711 83.7653 90.819 83.6908C90.7669 83.6164 90.7366 83.5289 90.7316 83.4381C90.7265 83.3474 90.7468 83.2571 90.7903 83.1773C90.8338 83.0975 90.8986 83.0314 90.9776 82.9865L127.983 62.049ZM128.225 63.0353L92.3165 83.3508L101.41 87.2472L128.142 71.7892C128.216 71.7464 128.3 71.7238 128.386 71.7238C128.471 71.7238 128.556 71.7464 128.63 71.7892L146.648 82.1779L155.25 87.2091C155.323 87.2523 155.384 87.3137 155.426 87.3874C155.468 87.4611 155.491 87.5446 155.491 87.6295C155.491 87.7144 155.469 87.798 155.427 87.8719C155.385 87.9457 155.325 88.0075 155.252 88.0509L119.784 109.046L155.173 129.111L163.544 124.636L136.108 109.973C136.031 109.932 135.967 109.871 135.921 109.796C135.876 109.721 135.851 109.636 135.85 109.548C135.849 109.461 135.872 109.375 135.915 109.299C135.959 109.223 136.022 109.16 136.098 109.117L146.97 102.951L146.972 102.949L172.842 88.1222L128.225 63.0353Z" fill="white"/>
<path fill-rule="evenodd" clip-rule="evenodd" d="M109.477 166.411C109.549 166.37 109.632 166.348 109.715 166.347C109.799 166.347 109.882 166.367 109.955 166.407L128.782 176.795C128.859 176.837 128.923 176.899 128.967 176.974C129.012 177.05 129.035 177.136 129.035 177.223V187.935C129.035 188.02 129.013 188.105 128.97 188.179C128.928 188.253 128.866 188.315 128.792 188.358C128.718 188.401 128.634 188.424 128.549 188.424C128.463 188.424 128.379 188.402 128.305 188.36L100.389 172.453C100.314 172.411 100.251 172.349 100.208 172.275C100.165 172.2 100.142 172.116 100.142 172.029C100.141 171.943 100.164 171.858 100.207 171.784C100.251 171.709 100.313 171.648 100.388 171.605L109.477 166.411ZM109.724 167.396L101.615 172.029L128.059 187.095V177.511L109.724 167.396ZM109.477 145.475C109.549 145.434 109.63 145.411 109.714 145.41C109.797 145.409 109.879 145.43 109.952 145.469L119.528 150.663C119.604 150.705 119.667 150.765 119.712 150.839C119.756 150.913 119.78 150.997 119.782 151.083C119.783 151.169 119.762 151.254 119.721 151.33C119.679 151.405 119.618 151.468 119.544 151.512L83.3506 172.937C83.2764 172.98 83.192 173.004 83.106 173.004C83.0199 173.005 82.9352 172.983 82.8604 172.94C82.7856 172.898 82.7234 172.836 82.68 172.762C82.6366 172.687 82.6136 172.603 82.6133 172.517V161.156C82.6133 161.069 82.6361 160.985 82.6793 160.911C82.7225 160.836 82.7846 160.774 82.8594 160.732L109.477 145.475ZM109.727 146.457L83.5898 161.438V171.66L118.306 151.111L109.727 146.457ZM146.161 82.3362C146.235 82.2944 146.319 82.2728 146.405 82.2735C146.49 82.2741 146.574 82.2971 146.647 82.3401L155.249 87.3723C155.323 87.4153 155.384 87.4768 155.426 87.5507C155.469 87.6245 155.491 87.7082 155.491 87.7934C155.491 87.8787 155.469 87.9624 155.427 88.0364C155.384 88.1104 155.323 88.172 155.25 88.2151L119.056 109.476C118.981 109.52 118.896 109.544 118.809 109.545C118.722 109.545 118.637 109.522 118.562 109.479C118.487 109.435 118.425 109.372 118.382 109.296C118.34 109.221 118.319 109.135 118.32 109.048L118.482 98.1731C118.484 98.0878 118.507 98.0043 118.551 97.9309C118.595 97.8576 118.657 97.797 118.731 97.7552L146.161 82.3362ZM119.455 98.469L119.31 108.195L154.037 87.7942L146.396 83.3245L119.455 98.469ZM91.1152 83.0003C91.1837 82.9563 91.2621 82.9301 91.3433 82.9241C91.4245 82.9182 91.5059 82.9326 91.5801 82.9661L101.644 87.511C101.729 87.5495 101.801 87.6117 101.852 87.6901C101.903 87.7685 101.93 87.8599 101.931 87.9534L102.092 120.291L137.387 139.953C137.463 139.996 137.526 140.058 137.57 140.133C137.614 140.208 137.638 140.293 137.638 140.38V151.579C137.638 151.665 137.615 151.749 137.572 151.824C137.529 151.898 137.467 151.959 137.393 152.002C137.319 152.045 137.234 152.067 137.148 152.067C137.063 152.067 136.978 152.044 136.904 152.001L90.9717 125.384C90.8974 125.341 90.8358 125.279 90.7932 125.204C90.7505 125.13 90.7282 125.045 90.7285 124.959L90.8906 83.4095C90.8909 83.3279 90.9116 83.2478 90.9509 83.1763C90.9901 83.1048 91.0466 83.0443 91.1152 83.0003ZM91.8643 84.1663L91.7061 124.681L136.661 150.732V140.667L101.367 121.005C101.291 120.963 101.228 120.902 101.184 120.827C101.14 120.753 101.117 120.668 101.116 120.581L100.955 88.2718L91.8643 84.1663Z" fill="white"/>
<path d="M237.5 124.995C237.5 62.8635 187.132 12.4954 125 12.4954C62.8682 12.4954 12.5 62.8635 12.5 124.995C12.5 187.127 62.8682 237.495 125 237.495C187.132 237.495 237.5 187.127 237.5 124.995Z" stroke="white" stroke-width="1.17203"/>
</g>
</g>
<defs>
<clipPath id="clip0_242_94804">
<rect width="250" height="250" fill="white"/>
</clipPath>
</defs>
</svg>
