<svg width="250" height="250" viewBox="0 0 250 250" fill="none" xmlns="http://www.w3.org/2000/svg">
<g clip-path="url(#clip0_242_94894)">
<path d="M125.001 250.032C194.037 250.032 250.001 194.06 250.001 125.015C250.001 55.9707 194.037 -0.000976562 125.001 -0.000976562C55.9654 -0.000976562 0.000976562 55.9707 0.000976562 125.015C0.000976562 194.06 55.9654 250.032 125.001 250.032Z" fill="white"/>
<path d="M181.001 69.5621C181.001 69.5621 188.448 51.0689 187.485 46.8308C186.587 42.7212 186.522 41.4369 179.781 36.4284C177.084 37.6484 172.27 39.3821 168.353 38.6116C162.574 37.5199 159.621 35.5293 156.86 33.0893C154.1 30.6492 152.623 27.0532 152.366 24.9343C152.302 24.4206 152.88 24.0353 153.329 24.3563C155.704 26.0901 157.631 29.2365 164.372 31.484C168.225 32.7682 171.37 32.3829 173.296 31.7409C164.757 25.8332 152.366 17.7424 144.982 15.3024C135.544 12.2201 131.307 18.2562 131.307 18.2562L122.446 32.2545C122.446 32.2545 137.342 34.4378 152.559 42.9781C167.711 51.4541 181.001 69.5621 181.001 69.5621Z" fill="#3800D6"/>
<path d="M204.757 90.5583C202.895 90.8152 200.07 90.8152 196.282 89.852C181.451 85.6782 172.334 61.2132 146.652 45.8021C105.625 24.6119 83.6034 43.7472 83.6034 43.7472C80.7784 45.6737 83.6675 46.8938 83.6675 46.8938L97.1504 53.7003L103.507 57.0393C103.507 57.0393 99.462 62.2406 91.2437 58.2594C88.5471 57.1036 83.154 56.7824 78.9806 60.5069C74.4221 63.0111 76.4125 70.2671 73.0739 74.8905C69.7995 79.5137 63.2505 78.7432 62.5443 85.4214C61.9665 92.2279 67.3596 93.5122 67.488 98.5846C67.6165 103.658 65.7545 106.548 65.2409 107.895C65.0483 108.474 64.9199 109.18 64.9199 109.887C64.9841 110.85 65.4335 111.813 66.0755 112.583C66.5892 113.162 67.0386 113.547 67.5523 113.868C69.7352 115.345 71.5971 117.271 72.817 119.582C73.0096 119.968 73.2023 120.353 73.459 120.738C73.6517 121.059 73.8443 121.445 74.1011 121.894C75.5136 124.399 76.0915 127.352 75.5778 130.242C75.4494 131.013 75.5136 131.911 75.7705 132.746C76.284 134.287 77.6324 135.443 79.2375 135.892C81.613 136.47 83.6675 137.883 85.08 139.874C85.2085 140.002 85.2727 140.195 85.4011 140.323C87.3272 143.02 86.9419 147.258 87.7125 150.34C88.4829 153.423 91.051 154.386 94.775 156.505C98.4991 158.624 99.2696 161.963 97.7286 163.569C96.1875 165.173 87.0704 161.257 83.4108 165.623C80.7141 168.127 81.8699 169.733 80.5215 174.484C79.1733 179.3 75.0642 175.769 72.8812 179.108C70.6983 182.447 70.3773 186.042 71.4687 193.17C72.5602 200.298 79.4943 210.123 79.4943 210.123C79.4943 210.123 75.7705 197.151 83.8602 186.042C90.73 177.951 95.9948 176.86 103.764 176.732C111.597 176.539 123.153 183.603 125.528 197.473C126.749 206.655 121.74 211.984 121.356 212.498C120.457 213.525 113.073 221.681 103.25 216.223C100.554 214.36 98.1778 212.434 96.5726 208.709C95.4169 205.307 95.096 200.747 97.022 197.665C98.627 195.096 101.195 194.327 101.966 194.262C103.121 194.133 105.625 194.198 107.231 195.418C108.836 196.637 110.569 198.436 110.248 201.518C109.927 204.6 106.717 205.499 105.497 205.242C104.47 205.05 105.176 205.178 105.433 205.242C103.442 205.114 102.544 203.573 102.158 202.481C102.094 202.224 101.709 202.289 101.645 202.545C101.066 206.783 104.277 209.48 106.203 209.93C108.322 210.379 111.468 210.315 114.036 207.683C116.283 205.435 117.503 203.508 117.503 198.564C117.503 194.519 115.834 191.693 113.073 189.254C109.478 185.914 104.727 184.63 101.452 184.887C98.3702 185.144 92.9772 186.428 89.4459 192.015C86.1715 197.151 84.759 204.215 87.5198 212.113L87.6482 212.37C93.9403 227.075 108.643 230.799 118.787 230.799C120.842 230.799 122.704 230.67 124.245 230.413C124.565 230.35 131.82 229.258 138.883 224.891C147.615 219.112 152.815 210.764 152.815 197.858C152.815 180.713 145.304 169.283 129.895 151.432C126.941 147.772 114.935 132.939 112.752 130.05C102.03 116.18 90.0238 99.8689 95.9948 87.4761C96.1875 87.0909 96.38 86.7699 96.5726 86.3846C105.497 70.0103 130.665 74.0557 125.144 75.0831C115.577 76.6885 109.863 80.9264 108.129 82.7887C106.396 84.6508 105.433 86.2561 104.277 89.2741C102.287 94.2185 103.892 101.859 108.129 108.538C126.556 134.672 153.778 167.228 157.117 175.062C161.419 184.951 162.061 192.785 161.997 197.601C161.933 202.417 160.777 210.123 160.777 210.123C160.777 210.123 167.133 205.05 170.15 198.885C173.168 192.721 173.682 189.767 172.783 187.456C171.82 185.144 169.444 185.079 168.481 181.291C167.519 177.502 170.215 174.164 167.39 168.127C166.17 165.495 159.686 161.642 156.347 157.404C153.008 153.166 146.909 145.589 142.351 139.488C134.132 128.572 131.436 124.848 126.685 118.684C131.82 120.225 138.241 122.344 153.008 115.473C166.684 122.472 176.058 122.087 179.332 121.894C182.606 121.702 185.689 120.225 188.064 118.363C189.605 117.143 190.761 114.702 191.467 113.097C191.724 112.519 191.146 112.005 190.567 112.198C179.075 116.95 168.481 113.097 155.448 105.841L153.137 104.557L150.825 105.777C137.149 113.097 122.768 107.382 121.483 106.869C120.971 106.612 117.054 104.557 115.32 101.089C113.587 97.6218 113.201 93.9616 114.485 90.8795C115.513 88.3752 117.952 86.7056 121.934 85.8708C125.208 85.4855 129.445 86.7056 132.848 88.0541C133.618 88.3751 134.325 87.6045 134.004 86.8982C133.618 85.8708 133.361 84.7793 133.361 83.6234C133.361 81.697 134.004 79.9633 135.031 78.5506L139.59 80.6697C138.819 81.4402 138.369 82.596 138.498 83.8802C138.69 85.5498 140.104 86.9625 141.773 87.1551C144.02 87.4761 145.882 85.8067 146.074 83.6876L150.376 85.6782C149.606 88.8246 147.166 91.2647 144.02 92.0353C143.378 92.1637 143.314 92.9984 143.955 93.1911C149.798 95.9522 166.876 103.914 166.876 103.914C166.876 103.914 176.764 109.437 185.432 108.346C193.778 107.895 197.502 101.282 192.558 101.924C187.614 102.567 175.929 97.4933 175.929 97.4933L168.097 93.8332L171.371 88.7605C171.371 88.7605 182.542 95.1174 192.43 97.3007C198.979 98.7135 203.408 94.989 205.655 92.2921C206.362 91.5857 205.72 90.4299 204.757 90.5583ZM113.33 68.2765C109.156 68.7903 102.801 70.7166 99.2051 72.4504C97.8565 73.0925 96.701 73.7347 95.7379 74.3126C92.5919 76.3673 89.7669 79.4496 87.5198 83.6876C78.7238 100.768 94.8391 121.702 107.809 138.525C109.991 141.351 111.981 143.983 113.779 146.424C116.54 150.212 119.558 153.937 122.511 157.468C130.087 166.779 138.434 176.668 142.029 187.648C142.992 191.501 143.121 195.096 142.671 197.986C141.131 206.976 133.298 210.058 133.298 210.058C134.453 206.334 135.095 201.518 134.389 195.996V195.867C132.014 182.961 121.548 171.531 121.548 171.531C119.044 168.191 116.348 164.724 114.165 161.899C92.1425 133.581 89.9596 130.37 84.759 120.931L84.6949 120.802C84.5665 120.545 84.3738 120.225 84.1812 119.904C81.1636 114.831 73.0739 101.282 76.6051 87.0909C77.4397 83.8161 78.9165 80.8623 81.0352 78.2938C93.9403 61.5342 118.659 67.2491 113.33 68.2765Z" fill="#3800D6"/>
</g>
<defs>
<clipPath id="clip0_242_94894">
<rect width="250" height="250" rx="125" fill="white"/>
</clipPath>
</defs>
</svg>
