<svg width="250" height="250" viewBox="0 0 250 250" fill="none" xmlns="http://www.w3.org/2000/svg">
<g clip-path="url(#clip0_242_94365)">
<path d="M161.674 79.9171C148.479 83.6755 129.012 91.5378 111.181 107.652C93.2588 124.518 105.425 139.562 105.552 139.71C105.552 139.71 98.9842 127.598 114.868 112.675C115.071 112.496 135.347 94.9861 164.837 86.5859C168.596 85.5161 172.398 84.6217 176.134 83.9359L176.395 83.8866L181.141 76.1943L179.978 76.2766C179.904 76.282 172.494 76.8362 161.674 79.9169L161.674 79.9171Z" fill="#5928B1"/>
<path d="M181.971 58.3505C178.934 55.7938 175.9 53.7692 175.87 53.75L175.686 53.6321L175.472 53.6594C175.389 53.6677 167.203 54.6744 155.928 57.8869C135.757 63.6313 108.628 75.4165 93.938 98.9075C86.959 109.579 92.5745 122.349 92.5745 122.349L92.4071 119.098C92.3879 118.755 91.4251 84.3297 161.991 64.224C168.166 62.4655 174.802 60.8443 181.71 59.4013L182.92 59.149L181.97 58.3534V58.3507L181.971 58.3505Z" fill="#764BC4"/>
<path d="M186.237 62.8487C186.144 62.857 176.861 63.8446 163.929 67.5288C150.24 71.4298 130.31 78.9903 113.101 92.866C102.951 100.747 96.5314 110.258 95.4779 118.96C94.9622 123.207 99.9384 132.221 99.9384 132.221L98.8932 129.02C98.8439 128.875 94.3969 114.288 116.933 97.3704C129.561 87.8869 142.72 81.3961 158.343 76.9465C166.398 74.6531 174.117 73.1442 182.646 71.5504L182.948 71.4955L183.077 71.2156C183.722 69.8329 186.794 63.7813 186.827 63.721L187.324 62.7361L186.235 62.8459L186.237 62.8486L186.237 62.8487Z" fill="#764BC4"/>
<path d="M87.6066 107.122C88.457 93.4604 98.8047 80.833 118.386 69.5854C128.704 63.1441 140.24 58.0827 152.669 54.5411C163.212 51.5372 172.119 50.6401 172.119 50.6401L164.957 45.458C164.891 45.4663 158.288 46.2782 148.848 48.9667C88.3226 66.2084 80.8224 95.9157 81.4916 107.857C82.663 128.679 107.18 143.485 107.18 143.485C107.18 143.485 86.3416 127.483 87.6064 107.119V107.122L87.6066 107.122Z" fill="#BBA5E1"/>
<path d="M88.3564 170.111C101.552 166.353 121.018 158.491 138.852 142.377C156.772 125.511 144.608 110.469 144.482 110.318C144.482 110.318 151.049 122.43 135.163 137.354C134.962 137.532 114.687 155.042 85.1961 163.442C81.435 164.512 77.6329 165.407 73.8965 166.092L73.6386 166.142L68.8926 173.837L70.0557 173.754C70.1298 173.746 77.5393 173.192 88.3589 170.111H88.3562L88.3564 170.111Z" fill="#5928B1"/>
<path d="M68.0626 191.675C70.0198 193.309 72.0569 194.844 74.1665 196.276L74.3475 196.394L74.5642 196.366C74.6465 196.358 82.8326 195.351 94.1076 192.139C114.279 186.395 141.408 174.609 156.098 151.118C163.074 140.447 157.459 127.677 157.459 127.677L157.629 130.928C157.645 131.27 158.611 165.696 88.0448 185.802C81.5303 187.643 74.9523 189.252 68.3232 190.625L67.1162 190.877L68.0626 191.672V191.675V191.675Z" fill="#764BC4"/>
<path d="M63.796 187.179C63.8892 187.171 73.1699 186.183 86.1046 182.499C99.7936 178.598 119.724 171.038 136.932 157.162C147.083 149.281 153.502 139.77 154.556 131.068C155.071 126.821 150.095 117.807 150.095 117.807L151.14 121.008C151.187 121.154 155.637 135.74 133.1 152.658C120.473 162.141 107.313 168.632 91.69 173.082C83.6356 175.378 75.916 176.884 67.3843 178.478L67.0853 178.533L66.9564 178.812C66.3117 180.195 63.2366 186.247 63.2063 186.307L62.707 187.292L63.7961 187.182V187.18L63.796 187.179Z" fill="#764BC4"/>
<path d="M162.427 142.907C161.577 156.568 151.229 169.196 131.647 180.443C121.327 186.885 109.794 191.946 97.364 195.488C86.8214 198.492 77.9111 199.389 77.9111 199.389L85.0767 204.571C85.1426 204.563 91.7484 203.751 101.185 201.062C161.711 183.82 169.211 154.113 168.539 142.172C167.368 121.35 142.851 106.547 142.851 106.547C142.851 106.547 163.692 122.546 162.427 142.907L162.427 142.907Z" fill="#BBA5E1"/>
</g>
<defs>
<clipPath id="clip0_242_94365">
<rect width="159.112" height="159.112" fill="white" transform="translate(45.46 45.458)"/>
</clipPath>
</defs>
</svg>
