<svg width="250" height="250" viewBox="0 0 250 250" fill="none" xmlns="http://www.w3.org/2000/svg">
<rect width="250" height="250" rx="125" fill="white"/>
<path fill-rule="evenodd" clip-rule="evenodd" d="M75.53 145.267L78.08 163.083L65.398 165.633L55.232 163.049L40 137.617L45.066 91.8189L62.814 68.9369L85.662 66.3869L108.51 53.6709L138.94 68.9369L131.324 76.5529C153.322 79.9529 167.704 82.5029 174.47 84.1689C184.636 86.7189 202.384 99.4349 204.934 101.985C207.484 104.535 206.26 116.231 204.934 124.867C204.05 130.647 202.35 134.863 199.868 137.583L210 196.131H187.152L192.218 191.031L171.92 147.783L116.092 155.399L95.794 196.097H72.98L80.596 183.381L95.828 129.967L85.662 119.801L62.814 124.901L60.264 145.233L67.88 152.849L75.53 145.267ZM111.23 175.289L118.812 159.683L128.91 157.065L136.492 196.131H111.23L116.296 193.513L111.23 175.289ZM159.918 157.609L167.5 152.475L180.148 174.303L177.632 196.131H154.886L159.952 188.413V157.609H159.918Z" fill="black"/>
</svg>
