<svg width="250" height="250" viewBox="0 0 250 250" fill="none" xmlns="http://www.w3.org/2000/svg">
<rect width="250" height="250" rx="125" fill="white"/>
<path d="M124.999 103.367C137.111 103.367 146.929 113.185 146.929 125.255V125.297C146.929 137.367 137.111 147.185 125.041 147.185H124.999C112.929 147.185 103.111 137.367 103.111 125.297V125.255C103.111 113.185 112.886 103.367 124.999 103.367Z" fill="black"/>
<path d="M229.676 125.041C229.676 134.646 228.401 144.209 225.808 153.431C223.938 160.146 216.968 164.056 210.253 162.186C209.233 161.889 208.298 161.506 207.363 160.996C202.391 158.106 199.968 152.241 201.498 146.674C203.453 139.619 204.431 132.351 204.431 125.041C204.431 107.021 198.353 89.5114 187.176 75.3589C175.701 60.8239 159.508 50.7089 141.446 46.7564C135.581 45.5239 131.373 40.3814 131.373 34.3889C131.331 27.4189 136.983 21.7664 143.953 21.7239C144.888 21.7239 145.823 21.8089 146.758 22.0214C171.833 27.5039 194.061 41.9539 209.276 62.6514C212.548 67.1989 215.481 72.0014 218.031 77.0164C225.681 91.8489 229.676 108.339 229.676 125.041Z" fill="black"/>
<path d="M72.3416 214.631C64.0116 209.871 56.4041 203.964 49.6891 197.079C44.8441 192.064 44.9716 184.074 49.9866 179.229C50.7091 178.506 51.5591 177.911 52.4516 177.401C57.4241 174.511 63.7566 175.361 67.7941 179.484C85.6441 197.844 111.229 206.556 136.602 202.859C154.962 200.224 171.834 191.299 184.329 177.614C188.324 173.151 194.869 172.131 200.054 175.106C206.089 178.634 208.087 186.369 204.559 192.361C204.092 193.126 203.582 193.849 202.944 194.529C185.604 213.441 162.017 225.426 136.559 228.231C114.247 230.696 91.7216 225.979 72.2566 214.759L72.3416 214.631Z" fill="black"/>
<path d="M72.8932 33.2428C81.2232 28.4403 90.1907 24.7853 99.5407 22.4053C106.298 20.6628 113.183 24.7428 114.883 31.5003C115.138 32.5203 115.266 33.5828 115.266 34.6453C115.266 40.4253 111.398 45.4403 105.788 46.8853C86.6632 51.7728 70.0032 63.5028 59.0382 79.9078C55.9357 84.5828 53.3007 89.5553 51.2607 94.7828C44.3757 111.995 43.6532 131.078 49.2632 148.715C51.1332 154.41 48.7957 160.615 43.6107 163.633C37.5757 167.16 29.8407 165.12 26.3557 159.128C25.8882 158.32 25.5057 157.47 25.2082 156.578C15.7307 126.53 20.1082 93.7628 37.2357 67.2428C46.2457 53.2178 58.4432 41.5728 72.8932 33.2428Z" fill="black"/>
</svg>
