<svg width="250" height="250" viewBox="0 0 250 250" fill="none" xmlns="http://www.w3.org/2000/svg">
<rect width="250" height="250" rx="125" fill="white"/>
<path d="M229.907 109.273C227.357 92.6133 219.112 75.2308 207.85 62.7358C194.377 47.8183 177.887 40.8483 161.397 43.1008C121.362 48.5408 112.905 83.2633 105.382 113.821L105.34 113.906L105.255 114.203C98.5822 141.276 92.8447 164.651 68.3648 167.923C52.2148 170.176 39.8473 148.501 37.4248 132.691L37.0848 130.481H37.0423C34.4923 109.486 39.6348 89.3833 52.3423 70.5558L51.0248 94.9083L61.7773 90.7433L65.0073 42.1233L19.4473 63.4158L19.8298 74.1683L42.6948 63.2458C27.8198 85.0908 21.7423 109.316 25.2273 133.753L25.4398 135.028C28.1173 152.623 35.7673 170.983 45.9248 184.201C58.5048 200.776 74.5273 209.106 90.9323 207.703C108.952 206.216 122.552 198.056 132.54 182.798C141.167 169.538 145.8 153.218 150.305 137.451V137.323C158.252 109.443 165.095 85.3458 189.702 83.2208C199.095 82.4983 205.725 88.4058 209.592 93.4633C213.927 99.1583 217.285 107.148 218.432 114.756C218.56 115.691 218.687 116.583 218.772 117.476C220.387 136.856 208.87 162.398 196.63 179.568L197.99 154.706L187.237 158.871L184.092 207.533L229.695 186.198L229.312 175.446L206.83 186.156C222.767 163.631 234.157 137.238 229.907 109.273ZM188.852 71.2783C173.935 72.4683 162.672 79.6083 154.342 92.9958C147.032 104.726 142.825 119.771 138.745 134.263L138.66 134.518C134.24 149.903 130.032 164.481 122.85 175.658C114.902 188.026 104.447 194.358 89.9973 195.548C75.6748 196.781 64.6248 187.686 57.4423 178.973C61.4798 180.248 65.8148 180.673 70.1923 180.121C84.9398 178.123 95.8198 170.643 103.597 157.341C110.355 145.696 113.925 131.076 117.367 116.923C124.55 87.5133 131.35 59.6333 163.225 55.2558C175.465 53.5558 188.172 59.1233 198.967 71.0233C199.35 71.4058 199.69 71.8308 200.072 72.2133C196.332 71.2358 192.635 70.8958 188.852 71.2783Z" fill="#1B1B1B"/>
</svg>
