<svg width="250" height="250" viewBox="0 0 250 250" fill="none" xmlns="http://www.w3.org/2000/svg">
<g clip-path="url(#clip0_242_94909)">
<path d="M124.684 250.001C161.821 250.001 195.176 233.887 218.127 208.291C207.454 199.036 191.362 198.479 179.995 207.62L177.819 209.366C157.013 226.11 126.694 223.641 108.893 203.747C99.1835 192.89 82.5527 191.785 71.4863 201.257L46.4521 222.66C67.8907 239.765 95.0906 250.001 124.684 250.001ZM165.313 189.471C185.135 173.523 212.988 174.091 232.053 189.502C243.441 170.672 250 148.598 250 125.006C250 98.7801 241.907 74.4443 228.074 54.3538C219.153 52.4635 209.496 54.674 202.159 61.1608L200.077 63.0098C180.068 80.6935 149.666 79.6193 130.963 60.572C120.757 50.1808 104.095 49.8399 93.4741 59.8077L64.347 87.139L48.3172 70.1473L77.4444 42.816C97.3391 24.1509 128.559 24.781 147.667 44.2517C157.655 54.4261 173.882 54.9942 184.565 45.5532L186.648 43.7043C193.134 37.9715 200.636 34.1083 208.49 32.0735C186.285 12.1276 156.899 0.000976562 124.684 0.000976562C61.0623 0.000976562 8.51743 47.2782 0.445559 108.541C19.7704 99.2966 43.6026 102.85 59.3526 118.943C69.2999 129.107 85.3194 130.171 96.5309 121.432L112.82 108.738C133.284 92.7891 162.225 93.5535 181.809 110.576L213.516 138.135L198.149 155.726L166.442 128.167C155.303 118.488 138.849 118.055 127.212 127.124L110.923 139.818C90.3138 155.881 60.8861 153.908 42.6182 135.243C31.9973 124.386 14.6102 124.004 3.52302 134.396L0 137.691C2.64227 163.803 13.3253 187.54 29.5623 206.391L56.2648 183.553C76.9988 165.817 108.157 167.894 126.342 188.222C135.844 198.84 152.029 200.162 163.137 191.227L165.302 189.482L165.313 189.471Z" fill="url(#paint0_linear_242_94909)"/>
</g>
<defs>
<linearGradient id="paint0_linear_242_94909" x1="125.005" y1="250.001" x2="125.005" y2="0.000976562" gradientUnits="userSpaceOnUse">
<stop stop-color="#E24346"/>
<stop offset="1" stop-color="#963861"/>
</linearGradient>
<clipPath id="clip0_242_94909">
<rect width="250" height="250" fill="white"/>
</clipPath>
</defs>
</svg>
