<svg width="250" height="250" viewBox="0 0 250 250" fill="none" xmlns="http://www.w3.org/2000/svg">
<path fill-rule="evenodd" clip-rule="evenodd" d="M48.8505 156.319C48.8505 161.464 48.8855 166.574 48.8505 171.719C48.8155 177.319 51.3355 181.204 56.7255 183.584C76.7455 192.439 96.7655 201.294 116.68 210.359C121.615 212.599 126.095 212.564 130.96 210.359C143.56 204.619 156.265 199.089 168.9 193.419C169.95 192.964 171.7 192.859 171.56 191.354C171.455 190.234 169.88 190.094 168.9 189.639C145.835 179.384 122.77 169.164 99.7405 158.909C84.0955 151.979 68.5205 145.014 52.9455 138.084C49.3755 136.509 48.8855 136.824 48.8505 140.569C48.8155 145.819 48.8155 151.069 48.8505 156.319Z" fill="#EF674E"/>
<path fill-rule="evenodd" clip-rule="evenodd" d="M201.45 93.9132C201.45 88.9082 201.415 83.9032 201.45 78.8982C201.52 73.1932 199.035 69.2032 193.47 66.7532C173.45 57.9332 153.465 49.0432 133.515 40.0132C128.72 37.8432 124.31 37.8782 119.55 40.0482C106.95 45.7882 94.2452 51.3182 81.6102 56.9882C80.5252 57.4782 78.7752 57.6532 78.7402 58.9482C78.6702 60.3482 80.4902 60.3832 81.5402 60.8732C100.51 69.3082 119.515 77.7082 138.52 86.1432C158.085 94.8232 177.615 103.573 197.145 112.253C201.03 113.968 201.38 113.723 201.415 109.698C201.485 104.413 201.45 99.1632 201.45 93.9132Z" fill="#FFB600"/>
<path fill-rule="evenodd" clip-rule="evenodd" d="M51.861 90.7638C51.861 95.6988 52.001 100.634 51.826 105.569C51.616 111.344 54.276 115.089 59.771 117.504C105.691 137.699 151.541 157.964 197.426 178.194C200.926 179.734 201.311 179.524 201.346 175.954C201.381 166.434 201.031 156.879 201.451 147.359C201.801 139.414 198.266 134.864 190.636 131.609C165.716 121.039 141.041 109.979 116.296 99.0588C96.066 90.1338 75.871 81.1738 55.676 72.2138C52.211 70.6738 51.931 70.8488 51.896 74.4888C51.826 79.9488 51.861 85.3388 51.861 90.7638Z" fill="#E05A00"/>
</svg>
