<svg width="250" height="250" viewBox="0 0 250 250" fill="none" xmlns="http://www.w3.org/2000/svg">
<rect width="250" height="250" rx="125" fill="white"/>
<g clip-path="url(#clip0_242_94353)">
<path d="M159.759 206.739C120.275 235.146 73.2805 202.022 73.2805 202.022L67.014 165.049L76.7271 163.169C94.5864 211.108 136.572 216.122 147.226 194.501C157.847 172.945 145.032 160.661 131.246 149.381C117.46 138.101 74.5343 126.508 72.0269 94.8622C69.5195 63.216 86.1265 47.5498 110.566 37.8374C135.006 28.125 171.822 42.2244 171.822 42.2244C172.292 60.3974 175.739 80.4505 175.739 80.4505L166.77 82.644C158.31 45.0438 118.968 34.9911 106.688 58.1264C85.2045 98.6051 141.257 104.02 168.845 129.643C183.352 143.116 197.672 179.462 159.759 206.739ZM238.666 125.015C238.666 187.782 187.782 238.666 125.015 238.666C62.2468 238.666 11.3633 187.782 11.3633 125.015C11.3633 62.2468 62.2468 11.3633 125.015 11.3633C187.782 11.3633 238.666 62.2468 238.666 125.015ZM125.015 224.618C150.744 224.652 175.481 214.695 194.012 196.844C204.718 181.438 215.788 164.173 202.058 133.09C190.605 107.158 141.948 83.5834 141.948 83.5834C141.948 83.5834 219.07 101.813 218.138 160.412C222.434 149.105 224.631 137.11 224.618 125.015C224.618 70.005 180.024 25.4106 125.015 25.4106C100.407 25.3766 76.6655 34.4866 58.3972 50.9723C50.8691 59.9896 39.5226 79.0174 46.9604 106.143C57.6136 144.996 128.548 156.276 125.51 192.622C125.51 192.622 119.339 175.389 96.4665 166.616C73.9444 157.978 34.1074 138.402 28.4028 100.712C26.4117 108.659 25.4067 116.822 25.4106 125.015C25.4106 180.024 70.005 224.618 125.015 224.618Z" fill="black"/>
</g>
<defs>
<clipPath id="clip0_242_94353">
<rect width="227.302" height="227.302" fill="white" transform="translate(11.3633 11.3633)"/>
</clipPath>
</defs>
</svg>
