<svg width="250" height="250" viewBox="0 0 250 250" fill="none" xmlns="http://www.w3.org/2000/svg">
<rect width="250" height="250" rx="125" fill="white"/>
<path d="M113.148 177.522C113.403 123.802 113.403 123.802 110.428 123.377C97.9335 121.507 89.9435 118.659 81.061 112.964C69.161 105.314 61.766 94.8594 58.791 81.5144C56.751 72.3344 57.4735 64.3869 61.3835 52.7419C65.3785 40.8419 65.506 36.7619 62.0635 30.1744L59.4285 25.1169L70.0535 21.5044C82.081 17.4244 81.911 17.3819 85.0135 24.3094C88.116 31.1519 87.776 41.4369 84.1635 52.4444C80.5085 63.4944 79.7435 68.7219 80.721 75.6069C82.6335 88.9519 91.3885 97.5794 106.858 101.362C115.231 103.402 136.311 103.359 143.748 101.319C151.228 99.2369 158.496 95.2844 162.193 91.1619C170.481 82.0244 171.968 70.2094 166.868 54.3144C162.236 39.8644 162.491 27.4544 167.548 20.7819C169.078 18.7844 169.078 18.7844 177.493 21.0369C192.878 25.1594 191.773 24.3519 188.671 29.3669C185.058 35.2319 185.143 39.9494 189.223 53.7619C193.898 69.5294 193.473 79.2619 187.566 92.1819C183.443 101.192 173.668 110.754 163.936 115.302C156.328 118.872 143.281 122.952 139.456 122.952C135.036 122.952 134.568 123.504 135.291 127.882C135.673 130.092 135.971 154.232 136.013 181.559L136.056 231.199H124.496H112.936L113.148 177.522ZM59.301 203.957V193.714H80.1685H101.036V203.957V214.199H80.1685H59.301V203.957ZM147.956 203.957V193.714H168.823H189.691V203.957V214.199H168.823H147.956V203.957ZM59.301 170.722V160.479H80.1685H101.036V170.722V180.964H80.1685H59.301V170.722ZM147.956 170.722V160.479H168.823H189.691V170.722V180.964H168.823H147.956V170.722ZM59.301 137.487V127.244H80.1685H101.036V137.487V147.729H80.1685H59.301V137.487ZM147.956 137.487V127.244H168.823H189.691V137.487V147.729H168.823H147.956V137.487ZM133.548 90.3544C131.126 85.5519 127.896 78.0294 126.323 73.6944L123.518 65.7469L122.073 71.1019C120.331 77.5194 110.513 98.2169 109.196 98.1744C108.686 98.1319 104.181 96.1344 99.166 93.7119L90.0285 89.2919L102.141 66.5119L114.253 43.7319H123.688H133.123L145.278 66.3844C151.993 78.8369 157.306 89.1644 157.178 89.2919C156.541 89.8444 138.818 99.1094 138.393 99.1094C138.138 99.1094 135.971 95.1994 133.548 90.3544Z" fill="black"/>
</svg>
