<svg width="250" height="250" viewBox="0 0 250 250" fill="none" xmlns="http://www.w3.org/2000/svg">
<rect width="250" height="250" rx="125" fill="white"/>
<g clip-path="url(#clip0_242_94360)">
<path d="M204.572 48.5754C204.572 64.9859 191.269 78.2891 174.858 78.2891H47.8562C47.8562 61.8788 61.1595 48.5754 77.5698 48.5754H204.572ZM45.46 140.592H119.425C135.835 140.592 149.138 127.289 149.138 110.878H75.1736C58.7633 110.878 45.46 124.182 45.46 140.592ZM62.9527 166.471C53.2918 166.471 45.46 174.303 45.46 183.964C45.46 193.625 53.2918 201.457 62.9527 201.457C72.6136 201.457 80.4454 193.625 80.4454 183.964C80.4454 174.303 72.6136 166.471 62.9527 166.471Z" fill="#353A69"/>
</g>
<defs>
<clipPath id="clip0_242_94360">
<rect width="159.112" height="159.112" fill="white" transform="translate(45.46 45.46)"/>
</clipPath>
</defs>
</svg>
