<svg width="250" height="250" viewBox="0 0 250 250" fill="none" xmlns="http://www.w3.org/2000/svg">
<mask id="mask0_242_93821" style="mask-type:luminance" maskUnits="userSpaceOnUse" x="40" y="13" width="166" height="223">
<path d="M121.985 227.185C117.413 224.81 112.751 222.389 108.134 219.789C99.0341 214.769 90.3827 208.986 82.3142 202.397C72.6767 194.508 65.5494 186.125 60.6635 176.802C57.1222 169.943 54.5224 162.682 52.9086 155.106C51.2053 147.351 50.1295 139.507 49.6812 131.573C49.4123 127.628 49.2778 123.549 49.0985 119.111L48.6502 109.384V47.525C68.0597 40.7115 87.4691 33.8532 106.879 26.9501L116.785 23.4537L122.119 21.5262C122.298 21.4814 122.478 21.4366 122.657 21.4366C122.836 21.4366 123.061 21.4814 123.24 21.5262L138.57 26.9501C157.935 33.8084 177.299 40.6667 196.709 47.4802L196.305 119.022C196.126 123.728 195.947 127.673 195.723 131.528C195.274 139.462 194.154 147.306 192.495 155.061C190.881 162.592 188.282 169.899 184.74 176.757C179.81 186.081 172.727 194.463 163.09 202.352C155.021 208.942 146.37 214.769 137.225 219.744C132.564 222.344 127.767 224.81 123.554 226.961C123.285 227.096 122.971 227.23 122.612 227.23C122.433 227.32 122.209 227.275 121.985 227.185ZM122.523 13.2783C121.447 13.2783 120.326 13.5024 119.34 13.8611C117.592 14.5334 115.799 15.161 114.006 15.7885L104.144 19.2849C83.8382 26.457 63.5323 33.6291 43.2263 40.8012L40.4023 41.7873V109.653L40.8506 119.56C41.0299 123.863 41.2092 128.076 41.4782 132.2C41.9712 140.538 43.0919 148.831 44.8849 156.989C46.6331 165.237 49.5019 173.216 53.4017 180.701C58.8256 191.011 66.5804 200.201 77.1144 208.807C85.5416 215.71 94.5963 221.806 104.099 227.051C108.806 229.651 113.558 232.116 118.175 234.537C119.564 235.254 121.088 235.613 122.612 235.613C124.271 235.613 125.885 235.209 127.319 234.402C131.622 232.206 136.463 229.696 141.215 227.006C150.763 221.762 159.817 215.665 168.245 208.762C178.734 200.111 186.489 190.922 191.957 180.657C195.857 173.171 198.726 165.192 200.474 156.944C202.267 148.786 203.433 140.493 203.926 132.155C204.195 128.166 204.329 124.132 204.553 119.335L205.001 41.7873L202.177 40.8012C181.872 33.6739 161.61 26.5467 141.349 19.3298L126.019 13.8611C124.988 13.5024 123.912 13.2783 122.792 13.2783H122.523V13.2783Z" fill="white"/>
</mask>
<g mask="url(#mask0_242_93821)">
<path d="M-70.7637 124.443L122.703 -69.0242L316.125 124.443L122.703 317.909L-70.7637 124.443Z" fill="url(#paint0_linear_242_93821)"/>
</g>
<mask id="mask1_242_93821" style="mask-type:luminance" maskUnits="userSpaceOnUse" x="94" y="55" width="58" height="119">
<path d="M95.3093 82.4456C95.3093 92.3072 100.644 101.407 109.25 106.293C110.416 106.92 111.581 107.503 112.791 107.951L113.24 108.131C114.45 108.579 115.705 108.982 117.005 109.251C118.888 109.655 120.77 109.834 122.698 109.834C124.625 109.834 126.508 109.61 128.346 109.162L141.793 164.79H103.557L115.077 117.23C112.388 116.603 109.743 115.706 107.278 114.451L94.5025 167.255C93.8749 169.766 95.4438 172.321 97.9989 172.948C98.3575 173.038 98.7609 173.083 99.1195 173.083H146.366C148.965 173.083 151.072 170.976 151.072 168.376C151.072 168.017 151.027 167.614 150.938 167.255L135.338 102.841L134.128 97.8208C125.611 104.096 113.643 102.303 107.367 93.7865C101.092 85.2696 102.885 73.3012 111.402 67.0257C119.919 60.7501 131.887 62.5431 138.162 71.06C142.062 76.3494 142.959 83.2525 140.583 89.3487L143.273 100.51C153.269 89.1694 152.148 71.8668 140.807 61.8707C129.466 51.8747 112.164 52.9953 102.168 64.3361C97.7299 69.4014 95.3093 75.8115 95.3093 82.4456Z" fill="white"/>
</mask>
<g mask="url(#mask1_242_93821)">
<path d="M34.793 114.047L122.696 26.189L210.554 114.047L122.696 201.95L34.793 114.047Z" fill="url(#paint1_linear_242_93821)"/>
</g>
<mask id="mask2_242_93821" style="mask-type:luminance" maskUnits="userSpaceOnUse" x="60" y="35" width="59" height="67">
<path d="M110.868 38.1074L110.644 38.1971C94.1481 44.0244 77.2041 50.031 60.3945 55.9479V101.625H68.6424V61.7304C83.7038 56.441 98.7651 51.1068 113.378 45.907L113.602 45.8174L118.578 44.0692V35.373L110.868 38.1074Z" fill="white"/>
</mask>
<g mask="url(#mask2_242_93821)">
<path d="M27.3145 68.4544L89.4874 6.28149L151.66 68.4544L89.4874 130.672L27.3145 68.4544Z" fill="url(#paint2_linear_242_93821)"/>
</g>
<mask id="mask3_242_93821" style="mask-type:luminance" maskUnits="userSpaceOnUse" x="60" y="109" width="59" height="104">
<path d="M60.4365 109.826L60.84 118.611V118.656C61.0193 122.96 61.1986 127.039 61.4227 130.849C61.8261 138.155 62.8123 145.417 64.3812 152.544C65.7708 159.089 68.012 165.409 71.0602 171.326C75.2289 179.216 81.37 186.432 89.7524 193.336C97.2831 199.432 105.352 204.856 113.824 209.518C115.393 210.369 116.961 211.221 118.53 212.073V202.704L117.813 202.301C109.745 197.863 102.124 192.753 94.997 186.925C87.4215 180.695 81.9976 174.33 78.3219 167.426C75.5875 162.137 73.6152 156.534 72.4049 150.751C70.9257 144.028 70.0292 137.214 69.6257 130.356C69.4016 126.68 69.2223 122.601 69.043 118.343L68.6396 109.915L60.4365 109.826Z" fill="white"/>
</mask>
<g mask="url(#mask3_242_93821)">
<path d="M9.29004 160.972L89.5276 80.7341L169.765 160.972L89.5276 241.209L9.29004 160.972Z" fill="url(#paint3_linear_242_93821)"/>
</g>
<mask id="mask4_242_93821" style="mask-type:luminance" maskUnits="userSpaceOnUse" x="126" y="35" width="59" height="67">
<path d="M126.821 44.0692L131.931 45.907H131.976C147.889 51.555 162.368 56.6651 176.667 61.6856L176.443 101.535H184.691L184.96 55.9031C169.047 50.2999 153.223 44.6967 134.755 38.1522L126.866 35.373L126.821 44.0692Z" fill="white"/>
</mask>
<g mask="url(#mask4_242_93821)">
<path d="M93.6963 68.4543L155.869 6.23657L218.087 68.4543L155.869 130.672L93.6963 68.4543Z" fill="url(#paint4_linear_242_93821)"/>
</g>
<mask id="mask5_242_93821" style="mask-type:luminance" maskUnits="userSpaceOnUse" x="126" y="109" width="59" height="104">
<path d="M176.444 109.826L176.399 118.701C176.22 123.094 176.086 126.77 175.817 130.401C175.458 137.259 174.517 144.072 173.037 150.796C171.827 156.623 169.81 162.227 167.12 167.516C163.445 174.419 158.021 180.829 150.445 187.06C143.318 192.887 135.698 197.997 127.629 202.435L126.867 202.839V212.207C128.436 211.355 130.05 210.504 131.619 209.607C140.091 204.945 148.159 199.521 155.69 193.425C164.117 186.477 170.258 179.305 174.427 171.371C177.475 165.454 179.716 159.134 181.106 152.589C182.675 145.462 183.661 138.2 184.109 130.894C184.333 127.218 184.513 123.363 184.692 118.88L184.737 109.826H176.444Z" fill="white"/>
</mask>
<g mask="url(#mask5_242_93821)">
<path d="M75.6318 161.017L155.735 80.8694L235.838 161.017L155.735 241.12L75.6318 161.017Z" fill="url(#paint5_linear_242_93821)"/>
</g>
<defs>
<linearGradient id="paint0_linear_242_93821" x1="57.3119" y1="189.823" x2="205.178" y2="41.9568" gradientUnits="userSpaceOnUse">
<stop stop-color="#8933EF"/>
<stop offset="1" stop-color="#FF2DBB"/>
</linearGradient>
<linearGradient id="paint1_linear_242_93821" x1="52.1017" y1="184.642" x2="199.975" y2="36.7684" gradientUnits="userSpaceOnUse">
<stop stop-color="#8933EF"/>
<stop offset="1" stop-color="#FF2DBB"/>
</linearGradient>
<linearGradient id="paint2_linear_242_93821" x1="12.7312" y1="145.238" x2="160.605" y2="-2.63573" gradientUnits="userSpaceOnUse">
<stop stop-color="#8933EF"/>
<stop offset="1" stop-color="#FF2DBB"/>
</linearGradient>
<linearGradient id="paint3_linear_242_93821" x1="58.9896" y1="191.5" x2="206.863" y2="43.6265" gradientUnits="userSpaceOnUse">
<stop stop-color="#8933EF"/>
<stop offset="1" stop-color="#FF2DBB"/>
</linearGradient>
<linearGradient id="paint4_linear_242_93821" x1="45.9103" y1="178.439" x2="193.784" y2="30.5658" gradientUnits="userSpaceOnUse">
<stop stop-color="#8933EF"/>
<stop offset="1" stop-color="#FF2DBB"/>
</linearGradient>
<linearGradient id="paint5_linear_242_93821" x1="92.1105" y1="224.639" x2="239.984" y2="76.766" gradientUnits="userSpaceOnUse">
<stop stop-color="#8933EF"/>
<stop offset="1" stop-color="#FF2DBB"/>
</linearGradient>
</defs>
</svg>
