<svg width="250" height="250" viewBox="0 0 250 250" fill="none" xmlns="http://www.w3.org/2000/svg">
<g clip-path="url(#clip0_767_7244)">
<path d="M124.998 187.807L70.8738 156.552L16.75 187.797L70.8738 219.052L124.998 187.807Z" fill="url(#paint0_linear_767_7244)"/>
<path fill-rule="evenodd" clip-rule="evenodd" d="M70.8701 219.053L124.994 250.308V187.808L70.8701 219.053Z" fill="#11FA98"/>
<path fill-rule="evenodd" clip-rule="evenodd" d="M179.124 156.562L125 187.805V250.306L233.247 187.805L179.124 156.562Z" fill="url(#paint1_linear_767_7244)"/>
<path fill-rule="evenodd" clip-rule="evenodd" d="M179.124 156.564L125 125.309L179.124 94.0645L233.238 125.314L233.247 125.309V187.809L179.124 156.564Z" fill="url(#paint2_linear_767_7244)"/>
<path d="M16.75 62.7969L16.75 125.297L70.8741 156.552L124.998 125.308L70.8738 94.0522L16.75 62.7969Z" fill="url(#paint3_linear_767_7244)"/>
<path d="M124.998 62.8077V0.307617L16.75 62.7971L70.8738 94.0524L124.998 62.8077Z" fill="url(#paint4_linear_767_7244)"/>
<path fill-rule="evenodd" clip-rule="evenodd" d="M125 62.8077L179.124 31.5632L125 0.307617V62.8077Z" fill="#11FA98"/>
<path fill-rule="evenodd" clip-rule="evenodd" d="M233.247 62.8195L179.124 94.0643L125 62.809L179.124 31.5645L233.247 62.8195Z" fill="url(#paint5_linear_767_7244)"/>
</g>
<defs>
<linearGradient id="paint0_linear_767_7244" x1="80.1047" y1="104.709" x2="134.138" y2="169.245" gradientUnits="userSpaceOnUse">
<stop stop-color="#EDF1F9"/>
<stop offset="1" stop-color="#A5ACBC"/>
</linearGradient>
<linearGradient id="paint1_linear_767_7244" x1="246.966" y1="182.339" x2="109.552" y2="260.863" gradientUnits="userSpaceOnUse">
<stop stop-color="#222935"/>
<stop offset="1" stop-color="#EDF1F9"/>
</linearGradient>
<linearGradient id="paint2_linear_767_7244" x1="179.149" y1="46.7086" x2="224.707" y2="192.236" gradientUnits="userSpaceOnUse">
<stop stop-color="#EDF1F9"/>
<stop offset="1" stop-color="#A5ACBC"/>
</linearGradient>
<linearGradient id="paint3_linear_767_7244" x1="29.2425" y1="9.23153" x2="80.9886" y2="162.243" gradientUnits="userSpaceOnUse">
<stop stop-color="#EDF1F9"/>
<stop offset="1" stop-color="#A5ACBC"/>
</linearGradient>
<linearGradient id="paint4_linear_767_7244" x1="-17.1582" y1="94.8936" x2="116.614" y2="-42.4834" gradientUnits="userSpaceOnUse">
<stop stop-color="#222935"/>
<stop offset="1" stop-color="#EDF1F9"/>
</linearGradient>
<linearGradient id="paint5_linear_767_7244" x1="86.3478" y1="-18.4299" x2="217.448" y2="12.8083" gradientUnits="userSpaceOnUse">
<stop stop-color="#EDF1F9"/>
<stop offset="1" stop-color="#A5ACBC"/>
</linearGradient>
<clipPath id="clip0_767_7244">
<rect width="250" height="250" rx="125" fill="white"/>
</clipPath>
</defs>
</svg>
