<svg width="250" height="250" viewBox="0 0 250 250" fill="none" xmlns="http://www.w3.org/2000/svg">
<g clip-path="url(#clip0_242_94761)">
<path d="M125 250.001C194.036 250.001 250 194.037 250 125.001C250 55.9654 194.036 0.000976562 125 0.000976562C55.9644 0.000976562 0 55.9654 0 125.001C0 194.037 55.9644 250.001 125 250.001Z" fill="#EDF0F4"/>
<path d="M168.411 118.204L150.003 99.7494V97.6247C150.003 83.551 138.614 72 124.444 72C110.275 72 98.8854 83.4186 98.8854 97.6247V120.196C98.8854 121.656 99.4154 122.984 100.475 123.913L118.882 142.236V152.327C118.882 155.247 121.266 157.638 124.179 157.638C127.093 157.638 129.477 155.247 129.477 152.327V140.112C129.477 138.651 128.947 137.324 127.887 136.394L109.48 117.939V97.6247C109.48 89.3928 116.234 82.6215 124.444 82.6215C132.655 82.6215 139.409 89.3928 139.409 97.6247V101.608C139.409 102.139 139.409 102.67 139.542 103.202C139.542 103.202 139.542 103.202 139.542 103.334C139.542 103.599 139.674 103.865 139.806 104.131C140.071 104.927 140.733 105.724 141.395 106.255L159.538 124.444V152.459C159.538 171.711 143.911 187.511 124.577 187.511C106.037 187.245 90.8077 172.906 89.6155 154.584C89.4833 151.663 86.8346 149.406 83.9208 149.671C81.0077 149.804 78.7562 152.459 79.0212 155.38C80.6106 179.279 100.607 198 124.444 198C149.606 198 170 177.553 170 152.327V122.055C170 120.594 169.338 119.267 168.411 118.204Z" fill="#80225F"/>
<path d="M99.0295 147.969V152.24C99.0295 166.388 110.437 178 124.63 178C138.822 178 150.23 166.522 150.23 152.24V129.95C150.23 128.482 149.699 127.147 148.638 126.213L129.803 107.259V97.1158C129.803 94.1791 127.415 91.777 124.497 91.777C121.579 91.777 119.191 94.1791 119.191 97.1158V109.529C119.191 110.997 119.722 112.331 120.783 113.266L139.619 132.086V152.106C139.619 160.382 132.854 167.189 124.63 167.189C116.406 167.189 109.641 160.382 109.641 152.106V147.168C110.039 145.433 109.641 143.564 108.314 142.096H108.181L108.049 141.962L89.6115 123.41V95.9144C89.6115 76.4276 105.264 60.6776 124.63 60.6776C142.404 60.6776 157.658 74.5586 159.382 92.3108V92.8446C159.647 95.7812 162.168 97.9165 165.086 97.7833C168.004 97.5164 170.127 94.9805 169.994 92.0439L169.861 91.2432C167.607 67.7515 148.107 50 124.63 50C99.4273 50 79 70.555 79 95.9144V125.679C79 127.147 79.5309 128.482 80.5919 129.416L99.0295 147.969Z" fill="#80225F"/>
</g>
<defs>
<clipPath id="clip0_242_94761">
<rect width="250" height="250" fill="white"/>
</clipPath>
</defs>
</svg>
