<svg width="250" height="250" viewBox="0 0 250 250" fill="none" xmlns="http://www.w3.org/2000/svg">
<g clip-path="url(#clip0_242_94366)">
<path d="M129.145 48.8023C103.504 48.2402 83.1316 55.13 68.588 69.2778C48.524 88.7935 46.6441 115.403 46.4688 120.342H58.6056C58.7121 118.305 59.1646 112.777 61.0631 105.925C64.2011 94.598 69.6074 85.1613 77.1334 77.8765C89.269 66.1291 106.702 60.427 128.942 60.9231L129.01 60.9247H204.57V48.8023H129.145Z" fill="#00D095"/>
<path d="M76.1934 95.5626C69.8608 106.577 68.8284 117.565 68.665 120.343H80.8212C81.0665 117.576 82.1717 109.29 86.9226 101.228C94.4063 88.5271 107.385 82.0871 125.5 82.0871H204.571V69.9648H125.5C96.912 69.9648 82.9076 83.8851 76.1934 95.5626Z" fill="#00D095"/>
<path d="M188.966 144.106C185.828 155.432 180.422 164.87 172.896 172.154C160.76 183.901 143.329 189.603 121.087 189.107L121.019 189.106H45.459V201.228H120.884C146.525 201.79 166.898 194.9 181.442 180.753C201.506 161.237 203.386 134.627 203.561 129.688H191.424C191.317 131.725 190.865 137.254 188.966 144.106Z" fill="#00D095"/>
<path d="M173.836 154.469C180.169 143.454 181.201 132.467 181.365 129.688H169.208C168.963 132.455 167.858 140.741 163.107 148.804C155.623 161.504 142.644 167.944 124.529 167.944H45.459V180.067H124.529C153.118 180.066 167.122 166.146 173.836 154.469Z" fill="#00D095"/>
<path d="M103.734 95.9862C100.149 98.5258 97.1695 102.005 94.878 106.326C91.5009 112.696 90.6663 118.886 90.5098 120.344H101.221C102.323 114.776 105.323 109.762 109.709 106.159C114.095 102.556 119.595 100.586 125.272 100.585H204.572V91.1279H119.777C113.682 91.1279 108.284 92.7625 103.734 95.9862Z" fill="#00D095"/>
<path d="M146.297 154.046C149.882 151.507 152.861 148.028 155.153 143.706C158.53 137.337 159.365 131.147 159.521 129.688H149.354C148.284 135.293 145.294 140.348 140.898 143.985C136.502 147.622 130.976 149.611 125.271 149.612H45.459V158.904H130.254C136.349 158.905 141.747 157.27 146.297 154.046Z" fill="#00D095"/>
<path d="M132.346 132.004C136.117 128.234 136.117 122.12 132.346 118.349C128.576 114.578 122.462 114.578 118.691 118.349C114.92 122.12 114.92 128.234 118.691 132.004C122.462 135.775 128.576 135.775 132.346 132.004Z" fill="#00D095"/>
</g>
<defs>
<clipPath id="clip0_242_94366">
<rect width="159.112" height="159.112" fill="white" transform="translate(45.459 45.46)"/>
</clipPath>
</defs>
</svg>
