<svg width="250" height="250" viewBox="0 0 250 250" fill="none" xmlns="http://www.w3.org/2000/svg">
<g clip-path="url(#clip0_242_94264)">
<path d="M246.143 155.337C240.143 179.296 227.175 200.939 208.879 217.53C190.583 234.122 167.779 244.917 143.349 248.553C118.919 252.189 93.96 248.502 71.625 237.958C49.2901 227.413 30.5819 210.485 17.8645 189.312C5.14713 168.139 -1.00874 143.671 0.174802 119.001C1.35834 94.3301 9.82817 70.5641 24.514 50.7056C39.1998 30.8471 59.4426 15.7875 82.6844 7.4296C105.926 -0.928264 131.124 -2.20924 155.093 3.74855C171.061 7.66116 186.095 14.697 199.329 24.4501C212.564 34.2032 223.735 46.4805 232.2 60.5735C240.665 74.6665 246.255 90.2963 248.648 106.561C251.041 122.826 250.19 139.403 246.143 155.337Z" fill="#EC672F"/>
<path d="M75.185 115.142H119.983V150.496C116.558 151.62 113.57 153.79 111.442 156.7C109.313 159.611 108.151 163.115 108.118 166.72C108.118 171.216 109.904 175.528 113.083 178.706C116.262 181.885 120.573 183.671 125.069 183.671C129.564 183.671 133.876 181.885 137.055 178.706C140.234 175.528 142.02 171.216 142.02 166.72C142 163.145 140.872 159.665 138.79 156.759C136.708 153.852 133.775 151.664 130.396 150.496V115.142H174.71C175.415 115.135 176.089 114.853 176.587 114.354C177.085 113.856 177.368 113.182 177.374 112.478V106.666C177.368 105.962 177.085 105.288 176.587 104.79C176.089 104.291 175.415 104.009 174.71 104.002H129.185V42.2531H174.71C175.415 42.2468 176.089 41.9641 176.587 41.466C177.085 40.9678 177.368 40.2939 177.374 39.5894V33.8988C177.368 33.1943 177.085 32.5204 176.587 32.0223C176.089 31.5241 175.415 31.2414 174.71 31.2351H75.185C74.5017 31.2721 73.8583 31.5682 73.3859 32.0632C72.9134 32.5581 72.6475 33.2146 72.6423 33.8988V39.7105C72.6487 40.415 72.9313 41.0889 73.4295 41.587C73.9277 42.0852 74.6015 42.3679 75.306 42.3742H119.378V104.124H75.185C74.4805 104.13 73.8066 104.413 73.3084 104.911C72.8102 105.409 72.5276 106.083 72.5213 106.787V112.599C72.502 112.948 72.5586 113.298 72.6874 113.623C72.8162 113.949 73.0139 114.242 73.2671 114.484C73.5203 114.726 73.8228 114.91 74.1539 115.023C74.485 115.137 74.8368 115.177 75.185 115.142ZM133.181 167.084C133.181 168.664 132.712 170.209 131.834 171.523C130.956 172.837 129.708 173.862 128.248 174.466C126.788 175.071 125.181 175.23 123.631 174.921C122.081 174.613 120.657 173.852 119.539 172.734C118.422 171.617 117.661 170.193 117.352 168.643C117.044 167.092 117.202 165.486 117.807 164.026C118.412 162.565 119.436 161.317 120.75 160.439C122.064 159.561 123.609 159.093 125.19 159.093C126.242 159.083 127.285 159.283 128.259 159.681C129.233 160.079 130.118 160.667 130.862 161.411C131.606 162.155 132.194 163.04 132.592 164.014C132.991 164.988 133.191 166.032 133.181 167.084Z" fill="white"/>
<path d="M164.054 129.185L163.812 128.943C163.484 128.635 163.051 128.463 162.601 128.463C162.151 128.463 161.718 128.635 161.39 128.943L157.031 133.302C156.819 133.483 156.645 133.705 156.521 133.954C156.396 134.204 156.322 134.476 156.305 134.755C156.269 135.096 156.354 135.439 156.547 135.723C156.547 135.787 156.573 135.849 156.618 135.894C156.663 135.94 156.725 135.965 156.789 135.965L157.031 136.207C164.247 144.371 168.286 154.856 168.413 165.75C168.413 177.246 163.846 188.271 155.717 196.4C147.588 204.529 136.563 209.096 125.067 209.096C113.571 209.096 102.546 204.529 94.417 196.4C86.2881 188.271 81.7213 177.246 81.7213 165.75C81.7213 154.611 86.3223 144.925 93.1026 136.207L93.3447 135.965C93.3447 135.901 93.3703 135.839 93.4157 135.794C93.4611 135.749 93.5227 135.723 93.5869 135.723C93.8291 135.481 93.8291 135.239 93.8291 134.755C93.8371 134.471 93.775 134.19 93.6482 133.937C93.5215 133.683 93.3341 133.465 93.1026 133.302L88.7438 128.943C88.4188 128.629 87.9847 128.454 87.5331 128.454C87.0814 128.454 86.6473 128.629 86.3223 128.943L86.0801 129.185C81.0747 133.902 77.1105 139.612 74.4416 145.951C71.7727 152.29 70.4582 159.116 70.5823 165.992C70.5565 180.473 76.2809 194.371 86.4974 204.633C96.7138 214.895 110.587 220.681 125.067 220.719C139.547 220.681 153.42 214.895 163.637 204.633C173.853 194.371 179.577 180.473 179.552 165.992C179.676 159.116 178.361 152.29 175.692 145.951C173.023 139.612 169.059 133.902 164.054 129.185Z" fill="white"/>
</g>
<defs>
<clipPath id="clip0_242_94264">
<rect width="250" height="250" rx="125" fill="white"/>
</clipPath>
</defs>
</svg>
