<svg width="250" height="250" viewBox="0 0 250 250" fill="none" xmlns="http://www.w3.org/2000/svg">
<path d="M116.563 162.59L38.7227 112.365L39.4927 108.34C47.1577 67.4946 83.3477 37.8496 125.488 37.8496C168.293 37.8496 204.448 68.4396 211.448 110.615C212.008 113.94 209.768 117.055 206.443 117.615C203.118 118.175 200.003 115.935 199.443 112.61C193.423 76.3496 162.308 50.0296 125.488 50.0296C90.5927 50.0296 60.4227 73.5846 52.3027 106.625L114.708 146.875L139.558 120.8C141.868 118.35 145.753 118.28 148.168 120.59C150.618 122.9 150.688 126.785 148.378 129.2L116.563 162.59Z" fill="#238CFD"/>
<path d="M125.488 212.149C83.3126 212.149 47.2626 182.084 39.7376 140.644C39.1426 137.319 41.3476 134.169 44.6376 133.574C47.9626 132.979 51.1126 135.184 51.7076 138.474C58.2176 174.104 89.2276 199.969 125.488 199.969C159.438 199.969 189.293 176.379 197.973 143.304L134.273 103.194L109.388 129.304C107.078 131.754 103.193 131.824 100.778 129.514C98.3276 127.204 98.2576 123.319 100.568 120.904L132.348 87.5491L211.728 137.529L210.888 141.659C202.488 182.504 166.578 212.149 125.488 212.149Z" fill="#238CFD"/>
</svg>
