<svg width="250" height="250" viewBox="0 0 250 250" fill="none" xmlns="http://www.w3.org/2000/svg">
<rect width="250" height="250" rx="125" fill="white"/>
<path d="M207.042 61.9984C182.834 56.1164 146.42 52.1384 122.756 52.1384C64.2078 52.1384 40.3398 68.6964 40.3398 95.2164C40.3398 114.256 49.0778 125.68 66.9958 131.528C70.0558 132.514 78.8278 134.758 91.8158 133.228C118.166 130.134 125.238 126.292 125.238 126.292C125.238 126.292 86.4438 122.212 73.7278 107.558C71.1778 104.634 70.0218 100.86 70.0558 97.0864C70.0898 92.9384 72.0618 88.8924 75.0538 86.3084C80.6638 81.5144 93.3458 79.0324 116.024 78.7944C141.558 78.5224 168.248 80.5964 189.566 85.1864C199.766 87.3964 203.846 78.4204 204.73 74.2384C205.478 70.7364 207.042 61.9984 207.042 61.9984Z" fill="black"/>
<path d="M40.3398 188.341C64.9218 194.019 101.914 197.861 125.952 197.861C185.452 197.861 209.66 181.915 209.66 156.313C209.66 137.953 200.786 126.937 182.562 121.293C179.468 120.341 170.526 118.199 157.368 119.661C130.576 122.619 123.402 126.359 123.402 126.359C123.402 126.359 162.808 130.269 175.728 144.413C178.312 147.235 179.502 150.873 179.468 154.511C179.434 158.489 177.428 162.433 174.402 164.881C168.69 169.505 155.804 171.885 132.786 172.123C106.844 172.395 79.7458 170.389 58.1218 165.969C47.7518 163.827 43.6378 172.497 42.7198 176.543C41.9718 179.909 40.3398 188.341 40.3398 188.341Z" fill="black"/>
</svg>
