<svg width="250" height="250" viewBox="0 0 250 250" fill="none" xmlns="http://www.w3.org/2000/svg">
<rect width="250" height="250" rx="125" fill="white"/>
<g clip-path="url(#clip0_242_94359)">
<path fill-rule="evenodd" clip-rule="evenodd" d="M158.324 157.336C176.731 175.199 206.499 175.205 224.899 157.348C243.299 139.492 243.22 110.531 224.886 92.7378C206.553 74.9446 176.931 74.94 158.531 92.5119C176.638 74.655 176.632 45.9078 158.298 28.115C139.891 10.2522 110.123 10.2456 91.723 28.1023C73.3965 45.8883 73.329 74.7068 91.5898 92.5707C73.1826 74.8489 43.4878 74.9148 25.1613 92.7003C6.76142 110.557 6.76733 139.447 25.1743 157.311C43.5812 175.174 73.3492 175.18 91.7491 157.323C110.076 139.538 110.143 110.719 91.883 92.8553C110.217 110.505 139.692 110.511 158.091 92.9387C139.911 110.725 139.99 139.543 158.324 157.336ZM91.7621 221.934C110.151 239.778 139.956 239.785 158.337 221.946C176.717 204.108 176.712 175.181 158.324 157.336C139.937 139.49 110.13 139.485 91.7491 157.323C73.3688 175.161 73.3754 204.088 91.7621 221.934Z" fill="#FF5995"/>
</g>
<defs>
<clipPath id="clip0_242_94359">
<rect width="227.302" height="227.302" fill="white" transform="translate(11.3652 11.3662)"/>
</clipPath>
</defs>
</svg>
