<svg width="250" height="250" viewBox="0 0 250 250" fill="none" xmlns="http://www.w3.org/2000/svg">
<path d="M121.904 53.7847C103.078 94.5121 84.2679 135.208 65.4596 175.898C51.6143 170.074 39.7356 154.293 40.9284 135.197C41.6169 124.175 45.9989 114.761 54.0324 107.11C62.0684 99.4572 71.74 95.798 82.8514 95.456C83.2868 80.8029 89.4206 69.2403 101.315 60.7336C108.031 55.9298 118.035 53.3192 121.904 53.7847ZM141.446 57.9969C141.555 57.7607 141.633 57.5097 141.718 57.263C141.733 57.2196 141.711 57.1604 141.698 57.1107C141.685 57.0617 141.661 57.0159 141.59 56.844C136.392 54.5417 130.872 53.4312 125.171 53.4109C124.085 55.6519 68.1703 176.067 68.1563 177.095C72.4008 179.178 81.128 180.34 85.1555 179.769C103.942 139.13 122.695 98.564 141.446 57.9969ZM89.3527 179.877C95.2474 179.877 100.895 179.877 106.599 179.877C123.66 142.965 140.695 106.109 157.747 69.2144C154.305 64.9658 150.322 61.4105 145.347 58.7281C126.637 99.2087 108.033 139.46 89.3527 179.877ZM128.938 178.046C131.798 171.862 134.652 165.677 137.51 159.493C142.543 148.601 147.58 137.711 152.612 126.819C157.226 116.833 161.832 106.843 166.46 96.8634C166.825 96.0769 166.981 95.3052 166.97 94.4386C166.943 92.2297 166.698 90.0534 166.305 87.882C165.419 82.9827 163.662 78.4226 161.11 74.1116C160.981 74.266 160.851 74.3675 160.79 74.5001C144.65 109.403 128.515 144.307 112.382 179.213C112.339 179.306 112.331 179.416 112.32 179.52C112.315 179.568 112.337 179.62 112.353 179.668C112.37 179.717 112.396 179.763 112.456 179.895C117.599 179.895 122.782 179.895 128.041 179.895C128.348 179.262 128.655 178.659 128.938 178.046ZM149.389 179.889C150.363 178.441 185.854 101.531 186.133 100.208C182.189 98.1857 178.034 96.7713 173.5 96.1385C160.668 123.917 147.866 151.629 135.073 179.345C135.018 179.466 135.092 179.646 135.114 179.889C139.888 179.889 144.648 179.889 149.389 179.889ZM201.614 113.771C199.076 110.143 196.129 106.996 192.551 104.314C192.374 104.621 192.23 104.833 192.124 105.062C186.73 116.707 181.338 128.354 175.949 140.002C172.231 148.037 168.519 156.076 164.803 164.112C162.627 168.819 160.442 173.521 158.28 178.235C158.054 178.726 157.625 179.195 157.886 179.971C162.274 179.923 166.673 180.16 171.177 179.637C181.351 157.621 191.481 135.7 201.614 113.771ZM206.35 123.419C198.071 141.33 189.865 159.082 181.537 177.096C203.954 169.335 214.417 143.377 206.35 123.419Z" fill="#0076F6"/>
</svg>
