<svg width="250" height="250" viewBox="0 0 250 250" fill="none" xmlns="http://www.w3.org/2000/svg">
<path fill-rule="evenodd" clip-rule="evenodd" d="M52.3766 110.475L37.8516 125L52.3766 139.525L75.8966 163.15L90.4216 148.625L66.9016 125L77.5416 114.185L63.0166 99.6599L52.3766 110.475Z" fill="#37DBFF"/>
<path fill-rule="evenodd" clip-rule="evenodd" d="M197.627 110.475L174.072 87.1997L159.547 101.725L183.102 125L172.392 135.745L186.917 150.27L212.152 125L197.627 110.475Z" fill="#37DBFF"/>
<path fill-rule="evenodd" clip-rule="evenodd" d="M125.002 37.8496L110.477 52.3746L88.6716 74.1446L74.1816 88.6696L88.6716 103.23L146.807 161.295L125.002 183.1L101.657 159.65L87.1316 174.175L110.477 197.625L125.002 212.15L139.527 197.625L175.822 161.295L161.332 146.805L103.197 88.6696L125.002 66.8996L148.522 90.5596L163.012 76.0346L139.527 52.3746L125.002 37.8496Z" fill="#1346FF"/>
</svg>
