<svg width="250" height="250" viewBox="0 0 250 250" fill="none" xmlns="http://www.w3.org/2000/svg">
<g clip-path="url(#clip0_901_2067)">
<path d="M241.998 86.6887C242.352 81.4632 238.587 78.3633 235.263 75.6297C234.569 75.0606 233.912 74.5175 233.307 73.9719C227.299 61.9228 217.791 51.82 205.792 44.7366C194.379 38.0015 181.007 34.1168 167.103 33.4957C157.741 29.8475 147.885 28 137.798 28C119.416 28 99.6004 34.1453 78.8986 46.2619C63.4066 55.3305 47.3637 67.681 29.8787 84.0019C21.1635 84.0902 14.8752 90.0147 8.6909 96.6382C7.76845 97.267 6.57316 97.7893 5.31291 98.3376C3.22375 99.2496 1.06184 100.19 -0.479049 101.869L-0.868817 102.295L-0.887006 102.872C-1.80426 131.112 -1.61977 160.035 -1.44308 188.008C-1.32095 207.335 -1.19362 227.322 -1.43008 246.894C-1.44567 248.107 -1.16504 249.103 -0.598578 249.851C-0.117864 250.485 0.807186 251.246 2.50398 251.267C13.3317 251.262 24.1621 251.259 34.9899 251.259C51.3186 251.259 67.6498 251.264 83.9811 251.27C100.312 251.275 116.644 251.28 132.972 251.28C161.176 251.28 184.191 251.264 205.394 251.233C205.552 251.249 205.703 251.257 205.846 251.257C207.473 251.257 208.166 250.225 208.265 249.344C208.382 248.305 208.655 245.875 192.316 232.163C187.511 228.133 177.203 219.867 174.379 218.669C173.771 218.259 173.495 217.583 173.555 216.661C174.041 211.763 171.718 209.505 169.852 207.691C168.556 206.431 167.521 205.425 167.35 203.65C167.495 202.964 167.623 202.255 167.758 201.507C168.426 197.791 169.117 193.948 171.973 192.389C184.154 187.21 198.043 180.937 208.837 172.014C220.759 162.161 227.515 150.296 229.489 135.74L229.505 135.633V135.527C229.489 128.456 230.009 127.908 231.942 125.871C233.01 124.746 234.473 123.205 236.339 120.276L236.394 120.191L236.438 120.1C239.605 113.325 243.482 103.246 240.611 93.9904L240.577 93.8838L240.53 93.7825C240.057 92.7821 240.393 91.8518 241.024 90.2902C241.455 89.2274 241.944 88.0269 241.998 86.6835V86.6887Z" fill="#070604"/>
<path d="M0.918413 102.991C2.51646 101.338 4.87586 100.668 6.86887 99.452C7.8303 98.9999 9.10874 98.4698 8.44614 100.167C-1.84374 138.068 13.1649 179.469 40.1941 206.851C40.971 207.854 41.1919 209.138 41.9012 210.053C42.6028 210.918 43.6656 211.492 44.1671 212.519C48.5923 226.745 22.4986 205.965 1.87205 237.222C1.29779 237.833 0.871641 238.074 0.668961 237.783C0.398722 193.028 -0.230104 147.695 0.892428 103.022L0.915814 102.986L0.918413 102.991Z" fill="#1F9EB8"/>
<path d="M59.2069 249.09C59.0147 248.781 59.5551 248.349 59.8176 248.084C63.2112 244.969 69.7047 239.374 68.7017 235.401C68.0001 233.834 69.2967 232.507 69.7411 231.14C70.0659 228.263 65.2873 227.024 62.1042 226.242C60.5945 225.917 60.3477 225.701 60.527 224.155C60.6127 221.149 52.7056 219.384 49.0756 218.724C46.8435 218.272 44.957 218.503 45.404 215.502C45.9133 211.142 46.3186 206.761 46.8357 202.396C47.9452 196.866 47.6308 191.014 49.0444 185.576C49.3718 184.412 50.645 184.464 51.6922 184.568C65.6277 186.231 80.2414 186.062 93.8288 189.019C95.6295 191.113 93.5377 197.482 93.452 200.317C91.8851 208.567 91.6201 217.16 89.97 225.327C88.4681 227.406 81.7693 222.952 81.1015 226.135C80.9976 227.034 81.9538 227.99 81.5017 228.856C80.982 229.505 79.6932 229.963 79.4281 231.025C78.7395 232.462 79.9062 234.112 79.3891 235.51C75.2706 238.647 74.595 241.799 75.8682 247.164C76.0189 247.827 76.3334 248.781 75.6266 249.155C70.7129 249.778 65.5446 249.298 60.5763 249.373C60.1398 249.373 59.4304 249.337 59.2043 249.095L59.2069 249.09ZM57.8739 189.871C51.3466 189.858 51.2167 198.833 57.7102 198.859C62.9591 199.005 63.6841 189.383 57.8739 189.871Z" fill="#C8BA99"/>
<path d="M0.68738 240.569C3.28324 235.92 7.39139 232.205 10.7174 228.05C21.3399 216.505 39.1939 217.734 53.5322 220.727C55.5901 221.348 59.0695 222.66 59.454 223.754C59.7451 224.97 56.9257 225.368 55.9539 225.495C46.3994 225.781 36.242 225.992 27.4359 230.123C26.4459 230.887 27.1812 231.163 28.0543 230.911C39.1133 226.873 56.8322 223.949 67.7405 229.325C75.7281 235.702 34.9584 242.06 40.5659 243.071C48.686 241.473 56.8842 239.511 64.3755 235.915C65.4565 235.325 67.7717 234.361 67.7951 236.321C67.4547 240.32 61.499 245.018 58.2198 248.001C57.3077 248.848 56.3437 249.279 55.0315 249.305C38.0272 249.435 21.0177 249.3 4.0108 249.373C1.10053 249.461 0.172886 248.983 0.359974 245.878C0.456117 244.137 0.16509 242.193 0.684781 240.569H0.68738Z" fill="#FB8D02"/>
<path d="M132.804 249.162C122.961 241.455 111.684 235.663 100.477 229.957C115.031 231.391 136.546 235.099 153.55 229.393C158.838 227.584 165.001 226.981 169.32 223.19C170.331 222.387 171.058 220.748 172.069 220.218C173.137 219.745 174.171 220.657 175.06 221.208C186.392 228.865 197.134 237.747 206.106 248.057C206.824 248.936 206.694 249.409 205.511 249.453C181.312 249.299 156.931 250.113 132.804 249.157V249.162Z" fill="#1F9EB8"/>
<path d="M91.4211 249.06C88.7317 248.018 74.8429 231.011 81.8769 230.216C83.8648 230.588 85.416 232.583 86.7698 233.8C88.568 235.522 92.515 238.417 95.0615 240.319C96.4465 241.203 108.207 250.261 107.648 248.034C99.4087 240.987 88.3263 236.271 82.2511 227.057C81.7288 226.051 82.6799 226.095 83.4698 226.199C100.981 228.951 117.364 238.513 131.328 249.037C131.38 249.419 130.258 249.385 129.847 249.393C117.073 249.149 104.115 249.996 91.4211 249.058V249.06Z" fill="#FB8D02"/>
<path d="M77.7552 249.031C75.5855 246.354 75.4088 241.051 77.4382 238.296C78.2983 237.125 79.8444 236.47 80.9279 237.766C83.4172 241.308 85.8156 244.912 88.939 247.971C89.942 248.909 89.8926 249.472 88.4245 249.415C85.0231 249.171 80.9643 249.961 77.7552 249.031Z" fill="#FB8D02"/>
<path d="M163.907 194.577C166.565 195.941 165.211 199.382 164.879 201.741C164.471 203.965 164.84 206.665 163.358 208.505C155.659 213.471 103.768 214.884 98.5192 207.746C97.9268 198.776 102.744 194.962 93.9303 187.92C91.0513 186.691 87.6837 186.899 84.6097 186.434C72.1423 185.901 59.3917 182.861 47.049 184.02C31.991 173.023 22.0779 154.351 19.3313 136.081C11.7022 85.4395 64.2768 52.7614 105.506 37.3577C87.8136 48.3076 68.5876 65.0391 66.1373 87.2091C66.5296 90.6157 69.1229 87.5989 68.2784 91.125C66.0983 101.581 63.6324 112.193 64.0897 122.959C64.0039 125.035 65.5682 126.134 66.3114 127.901C68.0523 135.73 66.922 139.014 71.8435 146.545C74.959 150.071 70.7989 142.468 70.4247 141.795C67.4105 136.063 68.3252 129.166 68.5694 122.904C68.4473 120.22 66.5634 123.291 65.6955 123.681C63.7545 110.263 68.0497 94.6173 73.0985 81.7471C74.1717 77.7481 69.653 84.5223 69.0475 85.1199C68.3434 86.1203 67.239 88.5629 67.4963 86.0944C75.4086 43.8487 131.886 15.5229 170.14 37.9112C173.014 39.5197 175.802 41.2372 178.604 42.9184C179.141 43.2173 181.088 45.1713 181.529 44.5503C180.83 42.2792 173.069 39.2728 174.041 37.181C195.992 37.0667 221.946 53.4318 229.146 72.7591C221.538 60.4034 210.398 58.6703 196.736 59.9409C185.058 55.4586 182.852 54.7986 172.248 62.8226C166.245 67.3621 155.488 41.2346 132.31 49.9602C129.586 50.389 127.51 52.065 124.886 52.6496C114.152 53.6864 100.759 55.2819 94.8424 65.2184C93.2054 67.3673 91.493 69.1836 88.9751 70.2048C86.3455 72.1277 84.7864 75.5472 83.5833 78.5199C81.98 82.4097 84.3343 83.9558 83.3728 87.0064C66.6284 124.409 88.9387 172.321 127.149 185.958C138.166 190.246 150.125 192.127 161.929 191.241C165.079 190.882 167.344 191.425 162.628 193.135C150.517 197.443 137.626 198.963 124.899 200.367C123.519 200.603 123.012 201.289 124.561 201.388C137.883 200.684 151.031 197.438 163.904 194.582L163.907 194.577ZM185.645 47.5463C184.255 48.1543 187.277 50.0408 188.039 50.6254C190.463 51.062 186.326 47.3124 185.645 47.5463Z" fill="#FB8D02"/>
<path d="M160.237 118.985C161.04 120.775 160.18 123.15 160.224 125.2C159.767 130.839 159.64 131.322 155.498 132.065C148.186 134.321 133.367 141.745 136.734 151.359C139.972 160.339 148.443 165.222 157.473 166.7C161.885 166.926 160.502 169.852 160.856 172.978C161.609 178.573 166.105 175.943 166.087 171.51C166.261 168.576 166.786 167.784 169.704 167.843C184.481 167.758 212.505 158.104 196.941 142.225C183.067 130.449 185.952 142.231 183.759 121.383C183.288 118.798 183.792 117.602 186.588 118.525C200.386 122.472 212.882 131.19 221.15 142.987C222.166 144.577 222.53 146.838 222.621 148.685C208.504 190.003 147.931 195.234 121.209 167.721C134.445 183.154 156.09 188.426 175.755 185.609C176.54 185.417 180.344 185.121 178.894 186.368C148.012 198.713 109.851 183.746 91.6927 156.696C85.9346 149.025 91.9292 142.464 97.4301 137.156C99.9532 134.279 103.399 131.951 107.4 132.655C110.048 133.081 108.895 132.039 107.382 131.278C98.3292 126.671 91.0405 118.753 86.7765 109.539C84.7991 105.876 85.8514 110.451 86.1814 111.787C86.8804 116.295 83.8974 117.602 81.247 121.484C80.2725 122.95 79.545 123.885 79.3267 121.388C78.3445 113.029 78.8382 104.387 81.2781 96.4016C81.5952 94.9543 83.0841 89.1337 85.0147 91.0228C93.1271 124.888 120.957 136.324 151.639 121.729C153.175 121.219 159.292 117.787 160.243 118.985H160.237ZM131.522 142.961C127.221 144.738 134.858 162.02 135.129 157.642C133.003 153.529 130.722 149.402 131.704 144.626C131.761 144.135 131.945 143.135 131.522 142.963V142.961ZM114.481 156.465C113.088 156.452 115.092 159.796 115.557 160.251C115.851 160.628 116.537 160.778 116.573 160.162C116.282 159.133 115.435 157.039 114.481 156.462V156.465ZM114.411 134.113C112.376 134.934 117.436 136.109 117.89 135.818C119.566 134.711 115.029 134.134 114.411 134.113Z" fill="#C8BA99"/>
<path d="M132.025 51.4297C143.933 45.0895 157.77 53.5033 166.155 62.6213C168.057 64.448 170.066 66.1708 172.347 67.5116C175.143 68.9199 173.945 66.2175 174.587 64.7208C174.915 63.9829 175.284 63.2033 175.533 62.5121C177.404 57.6504 188.863 55.6938 191.797 59.963C191.293 62.4498 182.726 63.0136 180.914 66.9841C180.821 67.6571 182.164 66.693 182.507 66.48C195.034 58.1467 219.356 57.2607 226.99 72.2901C227.146 73.2801 225.751 72.8176 225.192 72.7137C218.426 71.0403 211.683 69.8632 204.664 69.7904C204.246 69.7982 202.573 69.7982 202.812 70.4114C213.884 71.9601 227.297 71.4898 236.241 79.228C240.591 81.9434 241.261 91.1471 235.173 91.8539C231.704 91.9214 228.874 89.6998 225.875 88.294C217.521 83.2556 181.231 79.875 178.563 92.1527C176.85 95.8945 175.528 83.4115 175.393 82.5202C175.177 81.6835 177.069 79.0825 176.136 78.8564C174.595 79.3943 174.353 79.4541 173.194 78.0977C172.438 76.9933 166.987 72.3447 169.572 76.5282C178.823 94.5771 183.188 115.123 183.952 135.355C183.905 136.721 184.009 138.153 183.349 139.27C181.871 141.833 167.278 140.011 164.082 139.782C162.967 139.66 161.592 139.593 160.976 138.548C160.22 137.083 160.618 134.874 160.693 133.258C161.714 119.642 162.925 106.044 164.879 92.5373C164.825 86.9818 167.493 86.2126 166.205 84.7627C146.441 75.2653 110.405 79.6489 89.4255 85.0303C86.6347 86.353 84.0518 85.2434 83.9453 81.8784C84.2909 77.3389 86.8504 72.1654 91.1326 70.2295C108.797 64.7312 127.628 63.6191 145.981 64.7494C147.132 64.2011 144.83 63.801 144.352 63.7698C128.761 61.8209 113.238 65.3938 97.6963 65.6771C95.9242 65.5575 96.501 64.2661 97.4495 63.2891C110.579 51.0555 132.199 52.1781 148.189 57.3594C148.855 57.5413 149.808 57.6011 149.089 56.9177C144.029 53.6852 137.014 54.4959 132.03 51.4401L132.025 51.4297ZM192.29 69.515C192.254 67.9377 181.2 73.6881 182.234 75.2576C182.676 75.6629 183.487 74.821 183.879 74.5092C186.15 72.1186 190.1 71.8406 192.29 69.5124V69.515ZM166.236 137.101C169.281 137.161 166.906 133.424 164.892 133.411C162.385 134.141 164.053 137.381 166.236 137.101ZM179.922 135.264C179.238 132.912 175.595 135.944 176.087 137.641C176.835 139.549 180.26 136.573 179.922 135.264Z" fill="#C8BA99"/>
<path d="M30.5048 86.4367C30.0682 89.004 25.6925 91.657 24.2399 94.1073C7.23043 124.166 20.5631 164.169 45.2848 185.906C47.0154 187.2 47.6494 188.423 47.348 190.63C46.7243 195.959 46.2696 201.317 45.4147 206.592C45.0873 207.751 44.2844 207.686 43.3178 206.898C19.2561 186.22 5.96239 153.641 6.59901 122.069C6.55483 111.491 7.59422 99.4082 16.2886 92.1377C19.9551 89.2794 25.7704 84.9296 30.5022 86.4367H30.5048Z" fill="#1F9EB8"/>
<path d="M143.551 83.6639C143.678 83.3053 144.427 83.3079 144.842 83.3027C149.177 83.3443 159.903 83.0585 162.423 86.8912C164.962 96.6744 161.532 111.615 154.537 118.681C126.999 137.532 88.9547 123.789 86.5693 89.0999C88.0764 85.0489 92.9278 86.9744 96.2174 86.2676C98.6833 86.1013 101.295 85.3841 99.8267 88.9985C87.9049 125.702 150.645 129.831 148.038 94.0447C147.651 91.0227 146.485 88.0345 144.39 85.2802C144.097 84.8124 143.431 84.194 143.553 83.6639H143.551Z" fill="#FEFEFE"/>
<path d="M165.828 207.615C169.395 207.883 171.487 212.35 171.399 215.634C172.368 227.777 146.61 229.863 137.723 231.677C124.525 232.701 111.164 230.513 98.1899 227.99C97.2648 227.805 96.0722 227.525 95.7577 226.6C95.5837 222.273 96.9193 217.874 97.322 213.529C97.6754 211.313 98.9539 211.16 100.908 211.684C104.047 212.477 107.178 213.036 110.384 213.376C127.412 215.546 144.468 214.831 161.361 211.807C162.567 211.497 166.506 211.219 166.212 209.619C166.152 209.018 165.261 208.065 165.83 207.615H165.828Z" fill="#1F9EB8"/>
<path d="M160.042 165.889C150.509 165.809 139.922 159.708 137.319 150.044C135.833 140.793 149.799 134.949 156.849 132.59C161.419 130.995 158.119 137.319 160.396 139.471C163.366 141.557 180.349 142.181 183.706 140.51C185.525 139.068 183.951 135.503 187.903 137.262C214.976 150.951 192.749 165.619 173.276 166.575C171.647 166.458 165.551 168.194 167.295 164.8C167.931 163.855 169.124 163.213 169.711 162.049C171.06 159.385 170.252 156.42 173.908 155.68C176.995 154.583 180.393 155.464 183.441 154.43C187.705 152.188 183.275 149.108 180.495 148.35C175.708 146.32 156.165 145.325 155.503 152.32C155.786 153.583 157.283 154.498 158.372 155.319C161.115 157.377 158.689 161.251 159.819 164.25C159.925 164.769 160.313 165.427 160.04 165.884L160.042 165.889Z" fill="#995400"/>
<path d="M185.952 96.2039C186.552 126.728 230.115 122.285 228.437 94.6059C228.886 92.392 233.148 94.4344 234.288 95.297C239.61 104.28 214.678 133.357 205.271 126.536C198.96 122.547 192.292 118.914 184.902 117.428C183.148 117.155 182.867 115.305 182.641 113.798C182.636 107.559 174.638 92.6934 182.026 89.4713C185.762 88.4709 185.713 93.6029 185.954 96.2039H185.952Z" fill="#FEFEFE"/>
<path d="M103.563 130.656C103.579 131.173 102.947 131.706 102.498 132.057C96.7603 136.529 91.5218 141.341 88.5933 148.258C88.3647 148.77 87.9463 149.768 87.3928 149.298C83.6563 142.653 81.7204 135.261 80.2315 127.889C79.6988 123.485 83.0196 119.87 86.0105 116.83C87.3954 115.383 88.4062 114.481 89.7185 116.435C93.125 121.507 97.48 125.662 102.469 129.29C102.932 129.633 103.566 130.126 103.56 130.659L103.563 130.656Z" fill="#995400"/>
<path d="M239.483 100.33C239.436 114.92 230.178 128.386 216.749 134.053C214.886 134.832 213.769 133.759 212.436 132.457C203.536 126.276 218.781 131.197 232.301 108.778C234.71 104.685 237.064 99.5895 236.092 94.7616C235.972 94.1483 235.835 93.3662 236.209 92.8647C239.311 90.8925 239.504 98.5605 239.48 100.33H239.483Z" fill="#C8BA99"/>
<path d="M141.549 97.69C141.765 101.325 138.223 109.643 133.86 105.693C132.132 100.398 137.961 94.5771 128.986 89.8583C127.707 88.8345 128.31 86.9714 129.466 86.0853C135.994 82.4215 141.96 91.4537 141.552 97.6874L141.549 97.69Z" fill="#FEFEFE"/>
<path d="M95.9544 191.393C97.7889 192.014 98.8127 194.924 98.3476 196.862C97.2536 206.484 96.0843 216.125 94.5746 225.697C94.546 227.55 92.4673 228.215 91.4954 226.63C91.0901 225.83 91.2772 224.848 91.3421 223.962C92.857 213.11 93.7925 201.96 95.9544 191.393Z" fill="#C8BA99"/>
<path d="M160.737 154.538C161.973 152.815 165.198 155.213 167.066 155.218C167.89 155.304 168.771 155.091 169.577 155.307C171.224 156.068 169.722 159.462 169.366 160.766C168.584 162.783 165.962 163.289 165.798 165.651C165.12 168.408 165.554 171.383 164.465 174.036C163.985 175.232 162.735 175.923 162.028 174.39C160.908 171.737 162.329 168.042 161.571 165.89C159.404 162.471 160.718 158.3 160.739 154.538H160.737Z" fill="#FEFEFE"/>
<path d="M221.652 98.4003C221.624 100.261 221.408 101.989 220.117 103.356C219.069 104.527 216.949 105.388 216.076 103.644C214.512 99.1747 215.322 94.9626 211.599 91.4079C208.574 88.0013 222.273 86.1122 221.652 98.4003Z" fill="#FEFEFE"/>
<path d="M227.041 128.44C229.159 129.238 223.843 152.31 223.18 146.453C222.551 140.658 213.106 135.643 218.084 133.931C220.735 132.58 223.208 130.935 225.573 129.087C225.978 128.796 226.573 128.235 227.041 128.438V128.44Z" fill="#995400"/>
<path d="M114.17 95.0188C114.612 98.1837 113.687 102.991 109.438 101.642C104.465 99.3478 104.849 86.0931 112.237 88.5226C114.809 89.5802 114.001 92.7919 114.17 95.0188Z" fill="#FEFEFE"/>
<path d="M194.559 97.7666C194.185 95.0409 198.498 89.6153 199.699 94.3809C200.052 97.143 202.827 104.491 197.745 103.795C195.162 103.244 194.455 100.058 194.559 97.764V97.7666Z" fill="#FEFEFE"/>
<path d="M123.751 114.502C115.732 113.588 121.259 106.018 126.596 109.932C128.828 111.849 126.105 114.718 123.751 114.502Z" fill="#FEFEFE"/>
<path d="M207.537 107.577C208.959 107.492 210.39 108.333 210.798 109.674C211.417 111.795 209.159 113.359 207.272 112.41C204.754 111.192 204.596 107.707 207.537 107.577Z" fill="#FEFEFE"/>
<path d="M60.9741 194.001C61.0521 198.525 55.4446 199.157 53.9427 195.163C52.4772 190.896 61.4211 188.906 60.9741 194.001ZM57.2843 196.629C60.0881 196.543 59.7893 191.814 56.9621 192.255C54.6339 192.778 54.7275 196.712 57.2843 196.629Z" fill="#FEFEFE"/>
<path d="M58.3159 194.543C58.238 195.99 55.9461 195.886 56.2683 194.358C56.5775 193.087 58.4562 193.207 58.3159 194.543Z" fill="#FB8D02"/>
</g>
<defs>
<clipPath id="clip0_901_2067">
<rect width="250" height="250" rx="125" fill="white"/>
</clipPath>
</defs>
</svg>
