<svg width="250" height="250" viewBox="0 0 250 250" fill="none" xmlns="http://www.w3.org/2000/svg">
<rect width="250" height="250" rx="125" fill="white"/>
<g clip-path="url(#clip0_242_94363)">
<path fill-rule="evenodd" clip-rule="evenodd" d="M125.077 95.3602L143.198 77.0503L124.774 58.6463L106.339 77.1209L159.687 130.301L201.461 171.943L135.035 238.669H113.943L48.5703 171.943L95.9697 125.017L124.774 153.178L106.339 171.293L125.016 189.468L143.198 171.293L48.5703 78.234L113.943 11.3662H135.035L201.461 78.234L154.341 124.532L125.077 95.3602Z" fill="url(#paint0_linear_242_94363)"/>
<path fill-rule="evenodd" clip-rule="evenodd" d="M113.941 11.3662L180.335 77.7719H201.46L135.033 11.3662H113.941Z" fill="url(#paint1_linear_242_94363)"/>
<path fill-rule="evenodd" clip-rule="evenodd" d="M201.458 77.7715H181.096L143.809 113.976L154.338 124.532L201.458 77.7715Z" fill="url(#paint2_linear_242_94363)"/>
<path fill-rule="evenodd" clip-rule="evenodd" d="M124.77 58.645L111.822 45.9922L78.9277 77.7707H107.351L124.77 58.645Z" fill="url(#paint3_linear_242_94363)"/>
<path fill-rule="evenodd" clip-rule="evenodd" d="M139.934 203.685L172.484 171.292H201.46L135.034 238.668L70.5898 171.943H106.823L139.934 203.685Z" fill="url(#paint4_linear_242_94363)"/>
<path fill-rule="evenodd" clip-rule="evenodd" d="M70.5898 171.94L107.211 136.658L124.773 153.175L106.823 171.94H70.5898Z" fill="url(#paint5_linear_242_94363)"/>
<path fill-rule="evenodd" clip-rule="evenodd" d="M78.9277 77.7715L172.482 171.292H201.458L107.552 77.922L78.9277 77.7715Z" fill="url(#paint6_linear_242_94363)"/>
<path fill-rule="evenodd" clip-rule="evenodd" d="M154.339 124.532L176.71 104.072L142.272 77.7715L125.301 95.5802L154.339 124.532Z" fill="url(#paint7_linear_242_94363)"/>
<path fill-rule="evenodd" clip-rule="evenodd" d="M96.0762 124.993L61.9531 159.57L106.822 171.943L124.772 153.178L96.0762 124.993Z" fill="url(#paint8_linear_242_94363)"/>
</g>
<defs>
<linearGradient id="paint0_linear_242_94363" x1="101.658" y1="209.175" x2="179.604" y2="82.281" gradientUnits="userSpaceOnUse">
<stop stop-color="#C20FF6"/>
<stop offset="0.486" stop-color="#749CCE"/>
<stop offset="1" stop-color="#47C1C1"/>
</linearGradient>
<linearGradient id="paint1_linear_242_94363" x1="124.625" y1="22.8604" x2="185.693" y2="92.8345" gradientUnits="userSpaceOnUse">
<stop stop-color="#4AF3FF"/>
<stop offset="1" stop-color="#087792"/>
</linearGradient>
<linearGradient id="paint2_linear_242_94363" x1="204.132" y1="80.2716" x2="158.634" y2="120.089" gradientUnits="userSpaceOnUse">
<stop stop-color="#004957"/>
<stop offset="1" stop-color="#7A97D0"/>
</linearGradient>
<linearGradient id="paint3_linear_242_94363" x1="119.638" y1="53.781" x2="108.128" y2="73.3089" gradientUnits="userSpaceOnUse">
<stop stop-color="#4ADAE8"/>
<stop offset="1" stop-color="#5E92C9"/>
</linearGradient>
<linearGradient id="paint4_linear_242_94363" x1="90.0889" y1="189.313" x2="144.785" y2="230.658" gradientUnits="userSpaceOnUse">
<stop stop-color="#D29BFF"/>
<stop offset="1" stop-color="#B661E2"/>
</linearGradient>
<linearGradient id="paint5_linear_242_94363" x1="97.6814" y1="136.557" x2="97.6814" y2="171.839" gradientUnits="userSpaceOnUse">
<stop stop-color="#7599CE"/>
<stop offset="1" stop-color="#69039C"/>
</linearGradient>
<linearGradient id="paint6_linear_242_94363" x1="98.0455" y1="103.13" x2="185.407" y2="179.699" gradientUnits="userSpaceOnUse">
<stop stop-color="#1EB8F1"/>
<stop offset="1" stop-color="#9F76DB"/>
</linearGradient>
<linearGradient id="paint7_linear_242_94363" x1="153.159" y1="97.4342" x2="128.8" y2="127.311" gradientUnits="userSpaceOnUse">
<stop stop-color="#313131" stop-opacity="0"/>
<stop offset="1"/>
</linearGradient>
<linearGradient id="paint8_linear_242_94363" x1="93.2396" y1="153.031" x2="119.063" y2="127.007" gradientUnits="userSpaceOnUse">
<stop stop-color="#313131" stop-opacity="0"/>
<stop offset="1"/>
</linearGradient>
<clipPath id="clip0_242_94363">
<rect width="227.302" height="227.302" fill="white" transform="translate(11.3652 11.3662)"/>
</clipPath>
</defs>
</svg>
