<svg width="250" height="250" viewBox="0 0 250 250" fill="none" xmlns="http://www.w3.org/2000/svg">
<path d="M124.084 223.592C123.959 223.592 123.959 223.592 123.834 223.592C80.2409 223.467 59.381 202.565 49.4715 185.203C40.3115 169.048 36.814 151.269 39.2705 132.491C41.2275 116.836 47.4729 100.389 57.4241 85.2335C63.6696 75.5738 71.9136 65.7893 80.6573 57.8367C87.0276 51.9659 92.2738 48.177 96.4375 46.5115C95.1468 41.1404 94.3557 32.6882 94.1059 29.8153V29.274C93.9809 22.6122 101.434 19.6144 103.89 18.5735C108.595 16.6165 114.216 15.5756 119.546 15.4507C124.917 15.3258 130.246 15.7005 134.701 16.7414C137.449 17.4076 145.652 19.2396 145.777 26.2762L146.152 38.2675C146.152 40.4743 146.027 42.4312 145.777 44.2632C169.135 52.4656 188.954 77.156 197.073 90.4797C200.321 95.8508 208.315 110.299 211.812 128.452C215.976 150.228 212.479 169.672 201.237 186.535C178.128 220.844 136.742 223.592 124.084 223.592ZM100.893 59.9185C95.688 62.7914 80.5323 75.4489 69.2905 92.9362C58.2152 110.049 42.3933 143.983 61.8375 178.291C73.3292 198.651 94.8553 209.477 123.959 209.602C124.084 209.602 124.084 209.602 124.209 209.602C135.035 209.602 170.426 207.27 189.329 178.791C211.646 145.398 189.578 105.594 184.873 98.0159C180.835 91.3541 172.591 80.5286 162.431 71.4102L119.754 64.8732L87.4024 71.2853L104.515 61.6256C103.849 61.3758 103.224 61.0843 102.558 60.7096C101.934 60.4598 101.267 60.21 100.893 59.9185ZM139.906 59.6687L155.978 65.9142C151.689 62.7914 147.234 60.0434 142.529 58.2114C141.863 58.5861 141.238 59.0025 140.447 59.3772C140.281 59.5438 140.156 59.6687 139.906 59.6687ZM108.304 32.022C108.97 37.3932 109.72 42.8475 110.261 44.4297C111.302 47.3026 113.009 49.1347 115.632 50.1756L120.837 52.2574L125.292 49.7592C127.623 48.4685 129.205 46.5116 129.33 46.3866L129.872 45.5955L130.121 45.4706C130.496 44.9294 131.829 42.8475 131.704 38.8088V30.5648C129.205 29.8986 124.917 29.3989 119.837 29.5239C114.966 29.6488 110.677 30.9811 108.304 32.022Z" fill="#0B4431"/>
<path d="M195.117 182.617C173.716 214.843 134.036 216.55 123.877 216.55C111.095 216.55 74.4129 214.968 55.6349 181.701C37.5646 149.849 46.0585 115.54 63.296 89.0178C76.7446 68.2828 96.0639 52.6275 101.019 52.336C101.935 52.336 103.35 53.252 105.599 54.2929C108.721 55.7086 113.551 57.5406 121.129 56.916C129.873 56.125 134.578 54.5844 137.326 53.1271C140.448 51.5449 141.24 50.2542 142.53 50.7955C164.972 58.3733 184.042 83.0221 190.954 94.264C198.365 106.505 218.725 147.226 195.117 182.617Z" fill="#77BAA1"/>
<path d="M67.3342 112.378C67.3342 112.378 57.5496 136.278 59.6315 154.14C61.5884 171.377 73.205 196.942 101.643 203.229C130.08 209.475 148.484 202.188 164.264 195.152C179.919 188.115 190.745 173.376 192.327 159.386C193.909 145.438 194.034 125.078 186.206 108.506" fill="#F3ACBB"/>
<path d="M136.74 68.5395C135.824 71.7872 120.96 74.9516 114.173 73.1195C107.512 71.2875 107.012 66.999 105.43 54.3415C108.552 55.7571 113.382 57.5891 120.96 56.9646C129.704 56.1735 134.409 54.6329 137.157 53.1757C137.407 56.4233 137.656 65.4168 136.74 68.5395Z" fill="#89B772"/>
<path d="M101.391 188.368C100.6 186.536 100.475 184.579 100.725 182.622C101.641 175.586 106.596 156.933 132.327 142.818C164.554 125.081 181.542 140.07 181.542 140.07C181.542 140.07 191.701 149.063 184.04 170.465C176.337 191.741 138.614 199.568 138.614 199.568C138.614 199.568 108.553 206.48 101.391 188.368Z" fill="#F08FA2"/>
<path d="M70.3321 149.314C68.2504 149.314 68.1255 141.112 70.7068 137.448C74.8701 131.578 82.0728 137.073 82.0728 137.073C82.0728 137.073 75.8277 149.314 70.3321 149.314Z" fill="#F08FA2"/>
<path d="M186.206 108.467C186.206 105.344 159.6 102.846 126.708 102.846C93.8147 102.846 67.209 109.258 67.209 112.381C67.209 115.503 93.8147 120.999 126.708 120.999C159.6 120.999 186.206 111.631 186.206 108.467Z" fill="#F8D0D9"/>
<path d="M101.017 29.1512C101.017 29.1512 103.223 42.8496 104.139 46.7634C104.93 50.0111 110.01 57.0893 119.42 58.1302C129.454 59.1711 135.2 50.4274 135.2 50.4274C135.2 50.4274 139.239 46.6385 138.989 38.561C138.739 30.4835 138.614 26.5697 138.614 26.5697C138.614 26.5697 117.463 28.485 101.017 29.1512Z" fill="#DD8843"/>
<path d="M138.572 26.5288C138.572 24.5719 129.828 22.2402 119.669 22.49C109.343 22.7399 100.891 27.195 101.016 29.1519C101.016 31.1088 109.76 34.1066 119.919 33.8568C130.245 33.5653 138.572 28.4857 138.572 26.5288Z" fill="#EBB646"/>
<path d="M72.1632 116.169C71.1223 115.919 70.3312 115.253 69.665 114.337C67.833 111.464 65.2099 103.887 75.6606 89.397C89.2341 70.3275 96.5205 76.7395 96.5205 76.7395C96.5205 76.7395 105.514 81.3196 95.7294 97.3496C95.6045 97.4745 95.6045 97.5994 95.4796 97.7243C94.6053 100.014 84.9456 119.708 72.1632 116.169Z" fill="white"/>
<path d="M169.009 193.026C166.802 192.651 165.345 190.694 165.761 188.446C166.303 185.698 167.843 181.534 172.423 177.496C179.46 171.25 184.54 176.829 185.747 178.412C185.997 178.786 186.122 179.203 186.288 179.577C186.538 180.868 186.413 183.491 182.916 187.405C178.794 191.86 173.839 193.942 169.009 193.026Z" fill="white"/>
<path d="M201.61 135.239C202.901 138.611 193.241 125.954 191.95 125.829C189.993 125.579 180.084 149.562 177.586 150.228C174.463 151.019 149.023 132.491 143.527 132.99C133.742 133.656 113.632 163.135 111.05 163.676C107.928 164.218 85.4856 137.32 77.3664 136.28C74.6184 135.905 55.7155 158.847 54.1333 157.139C53.3422 156.348 51.5102 138.07 51.8016 132.99C52.0514 129.743 54.2998 145.773 55.1742 145.773C56.7564 145.898 74.0772 128.535 77.7412 128.827C80.9888 129.076 106.72 151.935 109.177 151.394C111.675 150.852 136.574 126.328 141.945 125.537C146.108 124.996 168.301 141.068 174.296 140.027C177.96 139.486 189.161 119.667 191.117 119.167C192.866 119.042 200.194 131.575 201.61 135.239Z" fill="#A5D4C1"/>
</svg>
