<svg width="250" height="250" viewBox="0 0 250 250" fill="none" xmlns="http://www.w3.org/2000/svg">
<path d="M49.8984 167.879C49.8984 139.064 49.8984 110.219 49.8984 81.1484C74.7148 66.7498 99.7258 52.2381 124.829 37.6729C149.875 52.0669 174.953 66.4799 200.111 80.9388C200.111 109.829 200.111 138.706 200.111 167.699C175.218 182.143 150.225 196.644 125.205 211.16C100.136 196.752 75.0785 182.351 49.8984 167.879ZM125.213 205.155C148.484 191.655 171.72 178.175 194.857 164.754C194.857 137.737 194.857 110.826 194.857 83.9439C171.428 70.4741 148.117 57.0719 124.819 43.6771C101.501 57.2046 78.2666 70.6838 55.146 84.0968C55.146 111.131 55.146 138.014 55.146 164.906C78.547 178.348 101.865 191.743 125.213 205.155Z" fill="black"/>
<path d="M125.214 205.154C101.865 191.742 78.5475 178.347 55.1465 164.905C55.1465 138.013 55.1465 111.13 55.1465 84.0957C78.2671 70.6826 101.502 57.2038 124.82 43.6759C148.118 57.0708 171.428 70.4726 194.857 83.9427C194.857 110.825 194.857 137.736 194.857 164.752C171.72 178.175 148.484 191.654 125.214 205.154ZM94.5754 81.6373C94.5369 82.0202 94.4886 82.2778 94.4886 82.5357C94.4844 87.9789 94.4669 93.4221 94.5162 98.8646C94.5208 99.384 94.8256 100.023 95.1998 100.399C102.442 107.669 109.715 114.907 116.981 122.154C117.224 122.396 117.45 122.654 117.718 122.941C117.421 123.252 117.203 123.491 116.974 123.72C109.524 131.16 102.067 138.593 94.6433 146.058C94.2751 146.428 94.0073 147.08 94.0038 147.603C93.9608 154.087 93.9741 160.571 93.9786 167.055C93.979 167.37 94.0318 167.684 94.0738 168.152C102.067 168.152 109.984 168.152 118.04 168.152C118.04 170.313 118.04 172.317 118.04 174.389C122.052 174.389 125.922 174.389 129.941 174.389C129.941 172.247 129.941 170.185 129.941 167.964C137.588 167.964 145.087 167.964 152.603 167.964C152.603 162.06 152.603 156.32 152.603 150.519C140.493 150.386 128.497 150.253 116.209 150.118C125.148 141.191 133.895 132.455 142.72 123.643C134.618 115.548 126.675 107.612 118.731 99.6756C118.781 99.5849 118.831 99.4946 118.881 99.404C129.808 99.404 140.735 99.404 151.708 99.404C151.708 93.3882 151.708 87.4966 151.708 81.4875C144.815 81.4875 138.02 81.4875 131.044 81.4875C131.044 79.0833 131.044 76.7929 131.044 74.4742C126.922 74.4742 122.981 74.4742 118.855 74.4742C118.855 76.864 118.855 79.1866 118.855 81.6369C110.658 81.6373 102.646 81.6373 94.5754 81.6373Z" fill="#FFC80D"/>
<path d="M94.575 81.6374C102.645 81.6374 110.657 81.6374 118.854 81.6374C118.854 79.187 118.854 76.8644 118.854 74.4746C122.981 74.4746 126.922 74.4746 131.044 74.4746C131.044 76.793 131.044 79.0838 131.044 81.4879C138.019 81.4879 144.814 81.4879 151.708 81.4879C151.708 87.4971 151.708 93.3886 151.708 99.4044C140.734 99.4044 129.807 99.4044 118.881 99.4044C118.831 99.4951 118.781 99.5854 118.731 99.676C126.674 107.612 134.617 115.549 142.719 123.644C133.895 132.456 125.148 141.191 116.209 150.118C128.497 150.254 140.493 150.386 152.603 150.52C152.603 156.32 152.603 162.06 152.603 167.965C145.087 167.965 137.588 167.965 129.941 167.965C129.941 170.186 129.941 172.247 129.941 174.389C125.922 174.389 122.052 174.389 118.04 174.389C118.04 172.317 118.04 170.314 118.04 168.152C109.984 168.152 102.066 168.152 94.0734 168.152C94.0314 167.685 93.9782 167.37 93.9782 167.055C93.9737 160.571 93.9604 154.087 94.0034 147.603C94.0069 147.08 94.275 146.429 94.6429 146.058C102.067 138.593 109.524 131.161 116.973 123.721C117.202 123.492 117.421 123.253 117.718 122.942C117.45 122.655 117.223 122.396 116.981 122.154C109.715 114.908 102.442 107.669 95.1994 100.399C94.8252 100.024 94.5204 99.3845 94.5158 98.8651C94.4665 93.4226 94.484 87.9794 94.4882 82.5362C94.4885 82.2779 94.5368 82.0199 94.575 81.6374Z" fill="black"/>
</svg>
