<svg width="250" height="250" viewBox="0 0 250 250" fill="none" xmlns="http://www.w3.org/2000/svg">
<g clip-path="url(#clip0_769_8178)">
<rect width="250" height="250" rx="125" fill="#234248"/>
<path d="M15.8403 98.5995C14.2403 99.1995 11.3403 101.8 14.2403 100.8C18.6403 98.5996 24.2403 100.5 28.8403 101.2C36.3403 102.3 44.1403 102 51.7403 102.4C59.8603 101.36 30.0303 100.12 28.4403 99.2996C24.3603 98.7396 19.9203 97.5595 15.8403 98.5995Z" fill="#1D233B"/>
<path d="M14.3397 102.8C13.1797 102.92 14.6297 105.96 14.3397 106.9C14.3397 107.9 14.9397 107.6 15.4397 107.5C17.5397 106.79 15.1497 104.03 14.4397 102.9H14.3397V102.8Z" fill="#9AA2A9"/>
<path d="M14.2402 107.6C14.9402 113.1 23.1402 117.3 28.2402 118.1C31.1002 118.14 17.5602 113.92 16.8402 110.2C16.1002 109.1 15.5502 104.85 14.2402 107.5V107.6Z" fill="#1D233B"/>
<path d="M16.6399 99.7005C12.8299 99.6505 14.9599 106.59 17.3399 106.4C18.2799 105.21 19.1299 103.95 20.4399 103.1C22.7899 100.08 19.0899 99.0505 16.6399 99.6005V99.7005Z" fill="#FEFEFE"/>
<path d="M16.1402 107.9C15.4402 108.3 17.9402 112.2 18.5402 111.6C18.4602 110.24 17.8602 104.2 16.2402 107.9H16.1402Z" fill="#E1E3D4"/>
<path d="M17.3398 106.9C17.3398 108.6 17.4398 111.8 19.4398 111.9C22.6098 111.12 33.6598 107.82 27.9398 103.4C24.6998 101.65 17.5898 102.11 17.3398 106.9Z" fill="#1D233B"/>
<path d="M18.4398 111.9C18.2798 112.46 18.5598 112.86 19.0398 113C19.6398 112.68 19.0598 111.56 18.3398 111.9H18.4398Z" fill="#E1E3D4"/>
<path d="M19.2402 112.4C20.5102 116.99 33.5102 115.95 19.2402 112.3V112.4Z" fill="#CBCBCD"/>
<path d="M19.9401 111.3C16.1901 115.06 38.3301 116.38 28.9401 110C28.7401 109.7 28.9401 109.5 29.1401 109.3C31.5701 107.73 34.9101 106.4 30.6401 104.1C26.5501 102.17 33.3001 107.22 19.8401 111.1L19.9401 111.3Z" fill="#1D233B"/>
<path d="M20.8398 112.7C20.8398 112.2 20.2398 112 19.8398 112.2C19.8398 112.5 20.5398 112.8 20.7398 112.8L20.8398 112.7Z" fill="#565A63"/>
<path d="M20.4404 103.4C20.5404 103.4 20.6404 103.3 20.7404 103.2C20.7404 103.4 20.7404 103.6 20.4404 103.4Z" fill="#E1E3D4"/>
<path d="M21.1398 100.3C19.7998 102.7 22.1998 103.23 24.1398 103C25.9398 103.1 28.2398 103.6 29.3398 101.9C30.1498 100.56 21.8098 99.6001 21.2398 100.2H21.1398V100.3Z" fill="#E1E3D4"/>
<path d="M21.3405 97.6997C16.8405 99.3197 42.4505 102.2 43.4405 98.2997C43.7405 97.4997 42.0405 97.6997 41.3405 97.5997C34.7105 98.2897 27.8005 96.9097 21.3405 97.6997Z" fill="#E1E3D4"/>
<path d="M24.2402 115.5C27.8802 116.58 32.6702 116.92 36.4402 116.3C32.8902 115.45 27.8302 115.48 24.2402 115.5Z" fill="#565A63"/>
<path d="M26.5396 116.1C22.0796 114.63 25.4896 117.52 26.5396 116.2V116.1Z" fill="#9AA2A9"/>
<path d="M25.54 114.6C25.74 116.3 33.14 115.8 34.74 116C42.1 114.39 26.83 113.29 25.54 114.6Z" fill="#9AA2A9"/>
<path d="M26.3402 116.3C30.5902 120.78 46.3502 115.54 26.2402 116.4L26.3402 116.3Z" fill="#CBCBCD"/>
<path d="M27.7402 103.1C28.4302 104.19 39.5802 104.56 36.8402 101.6C34.0702 101.37 29.6302 100.17 27.7402 102.9V103.1Z" fill="#CBCBCD"/>
<path d="M29.2404 108.4C25.7304 109.93 26.6804 109.78 29.7404 111C31.1404 112.1 31.8404 114.2 33.8404 114.6C36.7404 115.5 39.2404 112.7 38.0404 110C37.3404 108.9 34.1404 107.7 32.6404 107C31.3804 106.49 30.6304 107.8 29.2404 108.2V108.4Z" fill="#0B0D14"/>
<path d="M30.2398 104.6C30.0398 104.8 30.4398 104.9 30.5398 104.9C30.5398 104.9 30.6398 104.7 30.7398 104.7C30.7898 104.69 30.0998 104.3 30.2398 104.6Z" fill="#2C678D"/>
<path d="M30.6398 103.4C104.66 107.17 55.7098 112.23 54.2398 147C54.6398 152.6 56.7398 139.6 57.3398 138.2C72.1998 91.5598 108.68 122.99 144.74 126.9C147.74 127.4 147.54 126.9 144.54 126C124.34 121.2 104.34 115.5 84.1398 110.8C66.4898 107.13 48.6398 100.13 30.3398 103.6L30.6398 103.4Z" fill="#1D233B"/>
<path d="M30.6402 105.1C29.8402 107.3 42.0402 112.1 44.2402 113.9C50.1402 117.3 54.1402 122.3 60.6402 117.9C85.6302 102.62 39.0002 102.92 30.6402 105.1Z" fill="#2C678D"/>
<path d="M36.0396 108.9C32.1496 108.75 32.7396 105.75 36.0396 108.8V108.9Z" fill="#1D233B"/>
<path d="M36.4402 112.6C40.4102 117.97 49.3902 118.82 52.9402 124.5C51.8802 127.37 53.9302 127.86 54.5402 131.6C55.0102 134.05 53.7302 139.04 56.2402 140.3C58.2002 138.9 59.5702 133 60.7402 130.5C62.3902 127.21 59.3302 125.79 56.9402 124.1C54.3902 122.27 36.3202 105.69 36.2402 112.7L36.4402 112.6Z" fill="#2C678D"/>
<path d="M37.04 109.5C35.54 109.64 36.13 108.08 37.04 109.4V109.5Z" fill="#1D233B"/>
<path d="M36.8397 102.2C33.9297 105.06 48.4797 103.21 50.0397 103.6C54.7397 101.56 37.7497 101.19 36.8397 102.2Z" fill="#9AA2A9"/>
<path d="M39.2402 114.9C33.6602 115 45.5402 136.89 47.2402 139.2C59.8302 160.33 55.2802 138.77 54.4402 128.9C50.5202 123.47 45.8502 117.25 39.2402 114.9Z" fill="#9AA2A9"/>
<path d="M37.6396 110.1C44.5196 115.43 52.4897 120.58 59.2397 126.3C65.0697 126.78 38.7196 107.58 37.7396 110L37.6396 110.1Z" fill="#1D233B"/>
<path d="M41.9395 98.2995C35.7095 100.81 48.2895 100.89 50.1395 101.4C50.7395 101.5 51.0395 101.7 51.1395 101.9C51.3795 104.6 56.3995 104.2 58.6395 104.8C65.6695 105.15 73.1795 110.97 80.0395 109.2C82.0395 108.6 83.1395 105.3 81.8395 103.8C79.6395 102.3 76.8395 104.5 73.9395 103.8C63.8495 100.4 52.8995 96.3995 41.9395 98.1995V98.2995ZM56.1395 102.2C61.6595 101.23 67.8595 105.27 56.2395 102.3L56.1395 102.2ZM63.9395 103.4C66.8395 102.98 68.5795 105.8 64.0395 103.5L63.9395 103.4ZM67.4395 104.6C67.4395 104.45 67.6595 104.51 67.8395 104.5C67.7895 104.5 67.5895 104.5 67.4395 104.5V104.6Z" fill="#CBCBCD"/>
<path d="M44.04 97.3998C50.96 99.5798 59.88 98.8499 66.64 102.3C72.85 105.8 79.82 101.95 83.94 97.1998C82.92 101.71 74.23 110.28 86.44 112.1C131.06 123.64 144.43 125.98 89.74 110.3C109.54 113.87 138.06 125.55 161.24 129.6C164.04 130 166.54 129 169.54 128.7C172.54 128.2 176.84 129.6 178.64 126.5C182.34 116.49 162.69 113.76 163.64 124.8C163.54 127.1 163.04 124.8 162.64 124C150.16 104.44 136.29 114.72 140.14 103.6C142.58 97.6398 145.52 84.9898 151.64 82.4998C164.28 81.4998 154.71 66.3598 153.64 58.7998C152.09 55.4098 153.9 51.4598 153.14 48.1998C145.16 43.1898 151.78 39.5898 148.14 33.7998C142.49 27.6598 130.66 38.2098 128.94 26.8998C121.51 -2.38016 104.66 34.6998 121.84 31.3998C122.84 31.1998 123.94 30.7998 124.74 31.5998C125.94 32.6998 126.04 36.1998 127.84 37.9998C131.16 42.0998 141.7 39.4598 142.84 45.1998C141.34 47.5998 136.04 46.2998 133.44 46.3998C124.84 45.9998 116.64 49.1998 109.94 54.2998C102.05 59.3698 96.98 67.4598 87.64 69.9998C81.23 74.5298 75.6 82.1598 68.14 85.5998C68.04 85.4998 70.94 83.0998 70.94 82.4998C68.74 82.1398 65.86 84.8798 63.74 85.8998C57.37 89.9198 49.58 92.6898 44.04 97.3998ZM63.64 89.6998C63.64 89.6998 63.44 89.4999 63.64 89.2999C63.64 89.0999 64.04 89.0998 64.14 88.9998C64.79 88.6498 64.05 89.8299 63.74 89.7999L63.64 89.6998ZM64.94 88.6998C64.54 88.2998 65.44 87.6998 66.04 87.8998C66.04 88.3398 65.37 88.7398 64.94 88.6998ZM81.14 108.2C82.14 108.41 84 107.78 84.64 108.7C84.27 109.33 81.54 108.5 81.14 108.3V108.2ZM103.14 84.5998V84.3998L103.24 84.4998H103.04L103.14 84.5998ZM103.54 84.0998C102.87 83.7698 104.44 82.7298 103.64 84.0998H103.54ZM105.04 82.1998C104.84 82.3998 104.74 82.6998 104.34 82.8998C102.94 83.6998 105.24 81.1999 105.44 81.2999C105.44 81.3999 105.24 81.9998 105.14 82.0998L105.04 82.1998ZM110.44 81.2999C109.92 82.9099 108.96 84.9698 108.04 86.4998C108.04 84.7998 108.84 82.3999 110.34 81.2999H110.44ZM119.64 96.8998C121.5 86.1598 122.84 73.9898 128.24 64.2998C124.93 74.8198 122.41 86.2098 119.74 96.8998H119.64ZM136.54 105.3C134.54 110.3 139.24 92.6998 139.54 92.4998C139.76 96.1798 137.47 101.37 136.64 105.3H136.54ZM139.94 89.7999C139.94 88.7999 139.94 87.2998 140.54 86.3998C140.64 87.2998 140.54 88.9998 139.94 89.8998V89.7999ZM140.84 85.4998C140.14 83.6998 140.94 81.1998 140.94 79.3998C140.94 80.8998 141.04 84.0998 140.94 85.5998L140.84 85.4998Z" fill="#E1E3D4"/>
<path d="M45.9404 136.5C46.1404 138.91 47.3404 136.93 45.9404 136.4V136.5Z" fill="#CBCBCD"/>
<path d="M46.2402 119.8C46.3302 122.13 48.8702 122.58 49.9402 124.2C50.7402 126.4 52.1402 125.6 53.8402 125.2C57.5502 125.05 47.0902 119.81 46.2402 119.8Z" fill="#62A6C7"/>
<path d="M47.2402 138.7C47.2402 139.1 47.7402 140.4 48.3402 140.3C48.6402 139.79 47.8002 138.69 47.2402 138.7Z" fill="#CBCBCD"/>
<path d="M48.4404 140.3C48.4404 140.6 48.6404 141.5 49.0404 141.5C49.2604 141.08 49.0004 140.28 48.4404 140.3Z" fill="#CBCBCD"/>
<path d="M49.2397 141.5C50.4097 141.69 49.2396 142.83 49.1396 141.6L49.2397 141.5Z" fill="#CBCBCD"/>
<path d="M51.0401 164.8C50.9401 169.5 53.3401 169.6 57.5401 169.7C58.6401 169.7 60.2401 170.1 60.8401 168.9C61.5401 166.7 60.2401 164.4 57.7401 163.9C55.6301 163.46 51.4501 161.46 51.1401 164.8H51.0401Z" fill="#E1E3D4"/>
<path d="M52.24 169.9C51.09 170.88 52.97 172.63 53.84 173.1C55.34 173.5 53.01 169.66 52.24 169.9Z" fill="#CBCBCD"/>
<path d="M52.4404 169.5C55.1204 170.45 58.9104 170.06 61.9404 170.5C64.5404 169.6 52.8404 168.7 52.4404 169.4V169.5Z" fill="#565A63"/>
<path d="M52.7402 173C52.3202 177.32 63.3602 182.81 61.0402 174.9C60.8402 171.7 60.1402 169.9 56.2402 169.9C50.5702 169.69 55.0102 172.56 52.7402 173Z" fill="#E1E3D4"/>
<path d="M54.1401 154.9C53.0401 156 53.6401 158.5 54.8401 159.2C55.1401 159.2 55.3401 158.5 55.7401 158.1C56.1401 157.7 56.7401 157.4 56.6401 157C56.3701 156.15 55.0501 154.94 54.0401 154.9H54.1401Z" fill="#E1E3D4"/>
<path d="M54.2402 173.2C54.2402 173.3 54.3402 173.5 54.4402 173.6H54.5402C54.5402 173.5 54.4402 173.4 54.3402 173.3L54.2402 173.2Z" fill="#CBCBCD"/>
<path d="M54.4404 120.7C54.4404 122.9 57.1404 124.9 59.0404 125.7C62.4404 126.9 64.2404 123.2 66.6404 120.4C68.6404 117.54 74.4304 113.66 74.8404 111C70.3804 103.89 64.6204 113.95 60.3404 116.2C57.9404 117.8 55.0404 118.6 54.4404 120.6V120.7Z" fill="#15618C"/>
<path d="M54.7402 162.7C57.6102 164.54 61.9402 165.31 65.1402 166.8C68.2402 166.8 55.3402 162.1 54.7402 162.7Z" fill="#15618C"/>
<path d="M55.6398 162.8C57.7198 165.23 60.6998 163.85 60.3398 160.7C60.2198 156.88 62.3298 149.15 57.1398 148.5C54.4998 150.4 57.0898 154.27 56.3398 156.7C56.0398 158.6 54.5398 160.8 55.7398 162.6L55.6398 162.8Z" fill="#D2D3CE"/>
<path d="M55.34 149.2C54.66 150.62 55.91 152.42 54.64 153.8C53.51 155.41 56.03 156.74 57.24 156.9C57.34 155.84 56.2 154.42 56.24 153.2C55.94 152.3 56.44 149.1 55.34 149.1V149.2Z" fill="#565A63"/>
<path d="M56.2402 102C57.8202 102.91 61.0002 103.05 62.9402 103.1C61.1702 102.06 58.3602 101.51 56.2402 101.9V102Z" fill="#565A63"/>
<path d="M56.5404 145.9C56.2404 146.3 56.2404 146.7 56.5404 147.2C63.0804 152.48 58.3304 157.76 60.5404 163.9C61.3404 161.35 62.2104 157.48 62.2404 155C61.2704 152.7 60.8104 143.37 56.5404 145.8V145.9Z" fill="#CBCBCD"/>
<path d="M56.2403 143.8C55.7403 145.4 57.3403 145.8 58.6403 146.8C60.9003 147.99 59.5803 152.71 61.9403 153.3C64.2503 151.86 65.2903 148.45 63.3403 145.9C61.6303 139.31 60.3403 135.28 56.3403 143.7L56.2403 143.8Z" fill="#6BA9CD"/>
<path d="M57.1396 143.4V143.7C57.3396 143.7 57.4396 143.5 57.1396 143.4Z" fill="#62A6C7"/>
<path d="M57.3405 141.9C56.9405 142.2 57.7405 143.5 58.1405 143.3C58.5405 142.9 58.8405 142.2 58.9405 141.6C58.9405 140 58.1405 142.12 57.3405 141.9Z" fill="#62A6C7"/>
<path d="M57.4397 141.7C60.5597 138.32 61.4797 132.37 64.6397 128.7C66.5397 125.1 63.2397 126.4 62.0397 128.4C59.9397 132.31 56.8097 137.2 57.4397 141.7Z" fill="#327A9F"/>
<path d="M58.2397 179.2C63.4897 179.2 69.4697 177.9 74.7397 177.2C69.5297 176.86 63.0796 177.57 58.1396 179.1L58.2397 179.2Z" fill="#15618C"/>
<path d="M58.3398 179.8C58.4698 182.8 63.7598 179.79 64.9398 178.8C63.2098 178.28 59.9898 179.05 58.3398 179.8Z" fill="#CBCBCD"/>
<path d="M60.0402 164.8C59.1002 164.05 58.7902 165.02 60.0402 164.9V164.8Z" fill="#CBCBCD"/>
<path d="M62.2402 170.4C61.2402 170.2 59.7402 170.1 59.7402 171.6C59.9402 173.6 59.2402 177.2 61.4402 178.2C64.2402 179.1 64.2402 176.9 64.0402 174.7C64.0702 173.06 64.4102 170.56 62.2402 170.5V170.4Z" fill="#D2D3CE"/>
<path d="M60.4399 165C59.8199 167.39 61.1099 171.85 64.3399 170.2C64.4399 168.04 63.2999 164.49 60.5399 164.9L60.4399 165Z" fill="#CBCBCD"/>
<path d="M60.9402 164.4C68.7102 170.42 63.9602 160.18 62.4402 157C60.0202 156.64 60.5402 162.8 60.8402 164.3L60.9402 164.4Z" fill="#6BA9CD"/>
<path d="M59.1398 138.1C60.2398 143.3 63.9398 136.6 66.8398 135.4C74.2698 131.08 89.3798 134.01 90.6398 143.7C89.2898 151.28 93.2198 158.34 93.7398 165.8C93.3198 173.45 102.12 175.63 108.14 174.1C110.84 174.2 114.94 176.6 113.04 179.5C111.17 181.94 103.89 185.71 110.14 188.1C114.49 189.88 120.8 188.95 124.24 191.5C115.94 194.19 107.41 190.5 99.0398 190.8C94.8398 190.6 90.0398 188.8 86.3398 186.9C85.3398 185.7 95.8398 187.2 97.0398 187.2C101.54 187.9 105.24 189 102.34 183.5C95.9198 172.71 87.4798 173.77 76.3398 174.1C73.2598 174.14 67.9298 172.73 70.4398 176.2C70.8398 176.7 71.5398 177.3 71.1398 177.9C62.4998 183.6 71.0398 186.28 76.4398 189.8C100.35 210.45 171.52 191.94 147.34 186C137.78 182.24 128.2 178.27 118.74 174.6C117.5 173.25 122.6 172.86 123.04 171.3C124.54 169 124.94 163.9 126.44 160.9C128.44 156.4 130.44 151.6 124.94 148.6C113.87 144.25 57.7998 113.51 59.0398 138.1H59.1398Z" fill="#62A6C7"/>
<path d="M60.3398 181.3C62.9398 183.79 70.1198 182.7 70.5398 178.5C68.8198 176.39 61.7298 179.53 60.3398 181.3Z" fill="#6BA9CD"/>
<path d="M61.54 153.5C62.13 155.05 61.91 152.22 61.94 152C61.64 152 61.64 153.1 61.64 153.4L61.54 153.5Z" fill="#1D233B"/>
<path d="M61.6396 153.9C61.6396 154.1 61.6396 154.5 61.9396 154.6C61.9496 154.45 61.9896 153.85 61.6396 153.8V153.9Z" fill="#6BA9CD"/>
<path d="M62.1404 151.8C61.3404 154.7 64.0404 159.9 64.9404 155C65.3404 151.9 66.0404 147.8 69.6404 146.9C82.1604 144.96 83.9504 151.25 76.2404 159.7C74.0404 164.6 80.9404 168.2 85.0404 166.4C86.4404 166.1 90.3404 162.9 90.5404 164.7C89.9404 167.2 87.0404 168.1 84.7404 168.4C79.2004 170.23 70.0404 162.86 68.5404 164.8C71.5304 169.5 81.0904 171.46 86.8404 170.9C95.6904 172.14 95.5004 165.88 93.6404 159.6C91.8404 152.8 89.3404 145.8 82.8404 143C75.8604 139.7 64.2304 144.64 62.1404 152V151.8ZM85.8404 155.2C85.8404 153.2 88.7404 153.2 89.1404 155C89.7604 157.42 85.7504 157.45 85.8404 155.2Z" fill="#0B0D14"/>
<path d="M61.54 144.6C62.22 152.15 69.25 144.24 72.74 143.1C76.21 141.18 61.7 143.07 61.64 144.4L61.54 144.6Z" fill="#62A6C7"/>
<path d="M61.9404 165.5C62.2404 165.5 62.4404 165.5 62.6404 165.8C62.3404 165.8 62.0404 165.8 61.9404 165.5Z" fill="#6BA9CD"/>
<path d="M61.9404 178.2H62.2404C62.1404 178 62.0404 178.1 61.9404 178.2Z" fill="#E1E3D4"/>
<path d="M61.9404 182.4C62.1504 182.85 63.2404 182.83 63.3404 182.2C63.0404 182 62.2404 182.1 62.0404 182.2L61.9404 182.4Z" fill="#62A6C7"/>
<path d="M62.0403 155.2C61.8403 155.4 61.9403 155.8 62.0403 156C62.2803 157.55 62.9503 154.99 62.0403 155.1V155.2Z" fill="#6BA9CD"/>
<path d="M62.1396 156.1C62.8696 159.63 64.4897 163.7 66.2397 166.9C68.1397 168 67.2396 165.3 66.8396 164.5C65.9896 162.37 64.4796 156.05 62.1396 156.1Z" fill="#62A6C7"/>
<path d="M62.2402 182.5C62.4502 184.91 86.7602 196.84 83.8402 193.3C78.7202 191.1 66.9002 181.09 62.2402 182.5Z" fill="#2B7BA2"/>
<path d="M62.4404 170.4C64.4204 170.92 68.0104 172.4 70.2404 172.4C68.2504 171.12 64.7904 170.18 62.4404 170.3V170.4Z" fill="#10305D"/>
<path d="M62.64 142.4C65.83 145.81 78.53 139.66 84.64 144.9C86.44 145.7 89.64 150.7 91.24 148C93.81 133.93 64.31 127.45 62.54 142.3L62.64 142.4Z" fill="#4794BD"/>
<path d="M63.5403 166.3C62.8403 168.74 65.1103 172.12 67.8403 171.3C68.6903 168.99 66.0203 165.52 63.5403 166.3Z" fill="#6BA9CD"/>
<path d="M63.54 89.6004C64.38 90.2204 64.27 88.2004 63.54 89.5004V89.6004Z" fill="#9AA2A9"/>
<path d="M65.1398 182.6C65.0998 182.04 64.0598 182.13 63.8398 182.2C63.8398 182.8 64.8398 182.8 65.1398 182.7V182.6Z" fill="#62A6C7"/>
<path d="M64.0401 171.2C62.5601 175.91 64.0101 179.77 69.6401 177.2C71.9001 174.16 67.0901 169.71 64.0401 171.2Z" fill="#6BA9CD"/>
<path d="M63.9404 103.2C63.9404 103.75 66.4704 104.53 66.9404 104.3C66.4904 103.61 64.8304 103.36 64.1404 103.1L63.9404 103.2Z" fill="#565A63"/>
<path d="M63.9404 124.7C76.2304 112.63 106.38 133.13 120.74 138.1C132.26 145.96 133.73 138.59 145.14 138.8C150.88 139.63 157.68 141.88 157.74 134.2C157.2 127.09 147.29 128.18 142.24 126.2C128.74 122.9 115.14 119.5 101.84 115.7C93.1804 114.07 82.9204 107.74 75.3404 114.9C71.7004 117.97 66.0804 120.3 63.9404 124.8V124.7Z" fill="#2C678D"/>
<path d="M64.14 89.0996H64.34C64.14 88.8996 64.14 89.0996 64.04 89.0996H64.14Z" fill="#9AA2A9"/>
<path d="M62.54 183.2C63.64 186.2 77.54 194.2 80.64 193.8C79.43 192.09 76.52 191.4 74.64 190.3C70.38 188.57 66.67 185.01 62.54 183.3V183.2Z" fill="#10305D"/>
<path d="M64.4399 158.5C64.2399 158.4 63.7399 157.8 63.9399 157.5C64.4399 157.5 64.5399 158.1 64.4399 158.5Z" fill="#1D233B"/>
<path d="M65.14 125.1C86.47 127.04 108.24 136.83 126.64 147.9C128.04 148.5 128.94 148.2 129.34 147C130.44 136.55 114.7 136.02 108.14 131.6C99.3 127.65 70.75 112.59 65.04 124.9L65.14 125.1Z" fill="#327A9F"/>
<path d="M64.94 160.5C64.74 163.3 68.64 163.6 70.84 164.6C76.52 167.81 86.98 171.86 91.34 165C91.64 164.1 91.14 163.8 90.44 164C86.71 166.74 78.93 169.07 76.04 163.2C73.51 157.89 85.58 153.02 80.34 147.8C79.04 147.8 78.94 150.4 78.54 151.4C76.9 156.89 73.67 157.26 68.84 157.2C67.84 157.8 68.24 160.6 66.84 160.6C66.34 160.6 65.64 160.2 65.14 160.6L64.94 160.5Z" fill="#1D233B"/>
<path d="M65.0399 62.4003C65.3399 60.9003 68.0399 61.5003 68.0399 59.6003C65.8199 47.8503 79.7399 60.3003 84.5399 34.2003C85.6399 31.0003 89.0399 37.0003 91.2399 29.2003C95.5199 15.2503 76.1199 34.5403 73.9399 36.1003C54.6099 52.7703 64.7199 74.3003 65.0399 62.5003V62.4003Z" fill="#FEFDFE"/>
<path d="M64.6401 59.1005C63.6101 59.9705 65.6301 61.5905 66.1401 60.3005C66.1201 59.6605 65.3401 58.8805 64.6401 59.1005Z" fill="#E1E3D4"/>
<path d="M65.8396 60.4002C63.5796 60.4902 65.9696 63.3402 66.0396 64.4002C67.0496 64.0202 69.3296 62.1602 69.7396 61.3002C69.0396 61.3002 67.7396 61.7001 67.0396 61.1001C66.5696 60.7701 66.1596 60.3802 65.6396 60.4002H65.8396Z" fill="#CBCBCD"/>
<path d="M64.7402 88.5996C65.0402 89.0996 65.8402 88.4996 65.9402 87.9996C65.4402 87.8996 64.8402 87.9996 64.7402 88.5996Z" fill="#9AA2A9"/>
<path d="M65.0403 147.5C64.8403 147.6 64.9403 147.8 65.0403 148L65.3403 147.7L65.1403 147.5H65.0403Z" fill="#6BA9CD"/>
<path d="M65.4398 126.3C86.8198 132.64 108.62 140.07 128.04 151.6C130.54 152.9 130.44 151.9 128.74 150C121.82 142.19 73.4898 120.51 65.3398 126.3H65.4398Z" fill="#4794BD"/>
<path d="M65.7403 151.8C65.7403 153.9 65.4403 156.7 66.9403 158.4C67.5403 158.9 68.3403 156.7 69.4403 156.5C72.8003 156.95 76.1903 157.11 77.7403 153.4C82.2303 144.62 65.0103 143.18 65.7403 151.9V151.8Z" fill="#FEFEFE"/>
<path d="M65.7398 154C68.9298 161.07 63.0698 160.77 65.7398 154Z" fill="#9AA2A9"/>
<path d="M65.0398 239.4C64.8098 241.18 66.0598 242.8 66.3398 244.5C67.1798 245.21 68.9798 238.38 70.9398 237.7C72.8598 235.5 76.6998 235.95 78.6398 234.4C74.9098 232.95 66.1598 234.49 65.1398 239.5L65.0398 239.4Z" fill="#E1E3D4"/>
<path d="M65.7402 161.3V161.7C65.9402 161.5 65.9402 161.4 65.7402 161.3Z" fill="#4794BD"/>
<path d="M67.2402 167.1C65.9402 166.4 64.8402 166.7 66.6402 167.6C67.7702 168.59 68.6002 167.79 67.2402 167.1Z" fill="#15618C"/>
<path d="M65.04 64.9003C76.75 75.1003 91.83 58.8103 100.84 51.1003C108.64 44.3003 107.84 32.1003 111.74 23.5003C108.99 40.5203 103.13 49.2603 122.94 32.9003C124.54 30.5003 122.54 31.1003 120.74 31.6003C107.74 35.0003 115.14 8.80028 123.74 17.2003C127.04 20.5003 127.44 25.7003 129.24 29.9003C132.93 37.0903 145.58 26.6703 148.94 36.0003C149.74 38.3003 149.34 40.8003 150.14 43.0003C150.94 45.8003 152.94 47.1003 152.74 49.7003C150.64 57.1203 157.4 62.3503 161.14 68.0003C165.04 73.4003 168.74 78.3003 173.24 83.1003C177.93 87.5803 183.47 92.4103 181.64 99.7003C181.45 105.98 182.01 112.76 179.04 118.5C178.53 127.17 178.95 129.51 168.84 129.3C161.18 131.12 169.88 133.33 173.54 133.3C195.1 128.32 218.05 131.81 239.24 137.1C242.94 138.2 240.34 135.2 238.44 133.4C208.18 114.07 193 81.0503 171.84 53.4003C167.37 43.1603 165.62 31.2303 156.34 23.6003C149.84 17.3003 134.94 6.90028 125.74 8.10028C116.5 8.90028 102.53 10.8203 104.34 23.4003C102.79 41.3103 89.45 41.2003 87.24 48.3003C85.96 64.3403 71.28 57.6203 65.14 64.8003L65.04 64.9003ZM177.64 77.0003C181.49 81.3403 185.27 87.0303 188.34 91.9003C184.1 87.9203 180.24 82.2703 177.64 77.1003V77.0003Z" fill="#CBCBCD"/>
<path d="M66.5398 158.9C65.9098 158.9 66.1498 159.54 66.6498 160.24C69.5998 164.53 69.0198 159.79 68.2398 158.3C67.8998 158.4 67.0298 159.32 66.5398 158.9Z" fill="#D2D3CE"/>
<path d="M66.2398 163.3C64.7398 162.6 66.0398 165.5 66.4398 166.2C71.9398 177 73.5398 174.5 84.0398 174.3C86.8398 174.6 89.7398 175.6 92.5398 175.5C94.1398 175.4 92.9398 174 93.9398 173.3C94.5298 172.72 96.2698 172.61 96.3398 171.8C85.9898 167 78.0998 173.02 66.3398 163.1L66.2398 163.3Z" fill="#4794BD"/>
<path d="M66.5401 156C67.0401 154.1 65.2401 155.3 66.5401 156Z" fill="#D2D3CE"/>
<path d="M66.6395 65.5996C65.3695 65.8796 67.9795 67.3696 68.2395 67.7996C70.8195 68.4196 67.4895 65.7396 66.6395 65.5996Z" fill="#9AA2A9"/>
<path d="M66.9397 247C65.9397 248 67.7397 250 67.2397 251.2C66.9597 251.82 67.6697 253.25 68.2397 252.4C68.2397 250.85 67.9897 248.19 66.9397 247Z" fill="#E1E3D4"/>
<path d="M66.54 87.3998C75.76 82.5798 85.08 74.6898 90.44 65.7998C82.52 72.4598 75.35 81.4798 66.54 87.3998Z" fill="#565A63"/>
<path d="M67.0397 245C66.7397 251.2 69.5397 256.7 72.4397 262.1C73.4397 263.7 76.6397 270.9 78.4397 269.1C81.7897 262.46 87.3597 264.83 87.6397 254C92.8997 232.78 70.0297 227.61 67.0397 245.1V245Z" fill="#6BA9CD"/>
<path d="M67.6404 54.8997C66.9404 56.3997 68.0404 61.7997 70.3404 61.0997C73.8904 58.9797 81.9005 53.1497 84.4405 48.4997C89.4205 42.6097 93.8104 34.1897 94.6404 25.9997C95.0404 23.9997 94.3404 21.1997 92.8404 23.3997C91.0404 25.9997 91.6404 33.6997 87.2404 33.7997C81.6104 30.8697 84.5204 46.0497 75.5404 51.7997C73.2104 53.4797 69.4804 52.7797 67.6404 54.8997Z" fill="#E1E3D4"/>
<path d="M67.3402 67.0996C68.5602 67.3696 67.4102 68.2996 67.2402 67.0996H67.3402Z" fill="#CBCBCD"/>
<path d="M67.4404 168.1C67.4704 169.45 67.6804 172.13 69.5404 172.2C71.3404 172 70.0404 170 69.7404 169C69.5404 168.5 69.5404 168 68.8404 168.3C68.3404 168.5 67.9404 168 67.4404 168.1Z" fill="#62A6C7"/>
<path d="M67.5404 104.5L67.4404 104.6H67.8404H67.5404V104.5Z" fill="#565A63"/>
<path d="M67.3398 121.3C89.5198 111.52 79.7898 105.36 67.4398 121.3H67.3398Z" fill="#15618C"/>
<path d="M67.5399 281.3C66.2399 282.7 67.9399 283.5 69.2399 283.5C74.3399 283.8 76.3399 278.7 80.0399 275.8C94.2899 268.77 95.0599 258.69 90.0399 244.6C89.0399 241.7 87.9399 240.4 88.4399 243.8C89.9399 252.2 93.8399 262.4 82.1399 264.5C75.1699 265.86 83.3299 270.49 76.3399 272.6C73.3599 275.11 71.1499 279.07 67.4399 281.2L67.5399 281.3Z" fill="#2B7BA2"/>
<path d="M68.7395 67.9002C67.4395 67.9002 68.6395 69.2002 69.1395 69.6002C73.1895 72.2402 79.6895 71.7202 83.3395 68.5002C85.9295 65.9002 75.7795 71.7402 68.7395 67.9002Z" fill="#CBCBCD"/>
<path d="M68.04 164.8C68.01 166.06 68.69 165.16 68.04 164.7V164.8Z" fill="#62A6C7"/>
<path d="M68.3397 134.6C67.2397 135.4 69.7397 134.9 70.3397 134.8C78.3397 133.1 86.1397 136.7 91.1397 143.1C92.1397 144.1 92.7397 144.3 92.1397 142.7C88.0997 134.42 76.4897 130.76 68.3397 134.6Z" fill="#10305D"/>
<path d="M68.3398 157.1V157.4C68.3398 157.4 68.5398 157.3 68.7398 157.2C68.6398 157.2 68.5398 157.2 68.3398 157.1Z" fill="#565A63"/>
<path d="M68.7396 155.4C68.0396 157.1 69.3396 156.5 69.8396 155.5C70.0396 154.7 69.0396 154.5 68.8396 155.3L68.7396 155.4Z" fill="#565A63"/>
<path d="M68.8396 162.1C68.8396 162.1 68.7396 162.1 68.6396 162C68.7396 162 68.8396 161.9 68.8396 162.1Z" fill="#D2D3CE"/>
<path d="M69.6396 69.5C77.9696 72.82 86.6497 65.77 93.4397 61.4C111.26 48.58 109.77 42.96 114.04 22.5C109.78 31.35 110.9 44.64 102.64 51.5C93.2096 59.67 83.1096 70.63 69.6396 69.5Z" fill="#565A63"/>
<path d="M69.7402 71.8003C69.7402 72.2003 70.2402 72.1003 70.1402 71.8003C70.1402 71.4003 69.9402 71.6003 69.7402 71.8003Z" fill="#CBCBCD"/>
<path d="M84.0399 50.7002C81.0799 50.7602 78.0999 55.0202 75.1399 56.6002C72.7399 58.7002 67.0399 61.8002 71.4399 61.8002C77.6399 62.2002 83.1399 60.6002 87.4399 55.8002C91.9799 50.9202 86.7399 53.3302 84.1399 50.7002H84.0399Z" fill="#E1E3D4"/>
<path d="M70.1396 172.5C71.5096 173.8 72.6496 172.65 70.1396 172.4V172.5Z" fill="#10305D"/>
<path d="M70.8398 157.5C71.1298 162.57 82.1598 153.32 78.7398 148.3C76.4998 144.94 81.9898 155.74 70.9398 157.4L70.8398 157.5Z" fill="#565A63"/>
<path d="M74.5403 79.6996C71.4203 84.4496 80.9403 76.1896 79.8403 75.5996C77.5003 76.0596 76.0203 77.7896 74.6403 79.4996H74.5403V79.6996Z" fill="#E1E3D4"/>
<path d="M75.2402 174.8C75.2402 174.8 75.3402 174.8 75.4402 174.9C75.4402 174.9 75.4402 174.8 75.3402 174.7L75.2402 174.8Z" fill="#4794BD"/>
<path d="M75.14 104.4C76.54 104.39 78.68 102.35 80.04 103C83.1 102.9 84.66 97.3401 86.44 95.0001C86.8 92.7001 82.68 100.42 81.34 100.5C79.64 101.4 76.44 102.4 75.04 104.4H75.14Z" fill="#1D233B"/>
<path d="M76.1396 281.8C100.15 267.86 94.5196 256.81 90.0396 232.7C89.5096 228.13 84.9497 231.39 86.9397 233.2C89.2397 235.6 88.3396 235.6 86.1396 236.8C89.8996 246.05 97.2997 262.68 87.9397 271C84.2397 274.6 77.8397 276.4 76.2397 281.6L76.1396 281.8Z" fill="#10305D"/>
<path d="M75.3398 113.3C75.3398 112.9 75.8398 112.3 76.2398 112.2C78.9698 111.5 76.6098 113.69 75.3398 113.3Z" fill="#10305D"/>
<path d="M78.54 111.6C78.54 112 77.84 112.3 77.54 112.1C77.54 111.8 78.24 111.5 78.54 111.6Z" fill="#10305D"/>
<path d="M79.6396 234.8C80.9596 235.88 83.8896 237.85 85.5396 237C86.2396 236.5 86.1396 235.6 85.3396 235.3C83.8396 234.8 81.1396 233.6 79.7396 234.8H79.6396Z" fill="#2C678D"/>
<path d="M80.2402 193.6C84.2202 198.27 97.3202 196.32 95.6402 206C96.4402 206.7 98.6402 205.3 99.8402 205C108.53 200.46 117.93 207.16 126.94 206.5C129.94 206.2 132.14 204.4 134.54 202.7C143.12 197.75 155.55 197.19 162.24 189.2C162.14 187.5 156.64 186.9 155.04 186.3C154.94 186.3 152.84 185.7 153.44 186.1C166.93 189.99 150.92 195.19 145.54 197.2C123.88 205.52 101.52 199.74 80.2402 193.7V193.6Z" fill="#10305D"/>
<path d="M81.6395 74.0996C81.0195 73.9796 80.6295 74.5296 80.8395 75.0996C81.1395 75.0996 81.6395 74.3996 81.7395 74.0996H81.6395Z" fill="#E1E3D4"/>
<path d="M81.14 108.1V108.4L81.34 108.2C81.24 108.2 81.14 108.2 81.04 108.1H81.14Z" fill="#9AA2A9"/>
<path d="M81.3398 108.4C82.2998 108.63 83.6198 108.96 84.6398 108.9C85.0998 107.88 81.7998 108.09 81.3398 108.3V108.4Z" fill="#9AA2A9"/>
<path d="M81.3398 69.6C81.3398 69.1 82.2398 68.6 82.6398 68.8C82.6398 69.3 81.7398 69.6 81.3398 69.6Z" fill="#E1E3D4"/>
<path d="M82.3405 264.6C81.5405 265.5 82.6405 265.3 83.1405 265.2C85.7405 264.6 86.4405 262.2 87.4405 259.7C90.2005 256.04 91.3605 251.09 88.4405 247.2C86.0805 251.15 87.7305 261.33 82.1405 264.6H82.3405Z" fill="#62A6C7"/>
<path d="M83.64 67.4996C83.57 68.3696 83.56 68.9096 84.74 68.6996C85.13 68.0996 84.41 67.1696 83.64 67.4996Z" fill="#D2D3CE"/>
<path d="M83.9395 68.1998C83.7395 69.2998 86.1395 68.4998 87.0395 68.6998C89.6695 70.6998 92.7295 69.9998 95.7395 67.7998C105.05 58.7498 115.27 48.5698 128.84 46.8998C131.84 46.1998 137.54 46.6998 138.94 43.6998C137.35 38.0498 130.9 43.1198 125.34 33.2998C118.11 38.6598 109.15 43.5498 103.94 51.3998C98.2895 57.9998 90.0395 62.2598 84.1395 67.9998L83.9395 68.1998Z" fill="#CBCBCD"/>
<path d="M83.6399 50.4004C82.6899 54.4504 87.4899 53.6904 89.1399 51.5004C89.1999 50.2304 87.4599 48.7204 87.5399 47.5004C87.3599 46.1504 83.9599 49.7604 83.6399 50.3004V50.4004Z" fill="#D2D3CE"/>
<path d="M83.7402 50.1003C86.1502 48.7403 89.0502 46.5403 88.9402 43.5003C85.5902 43.4603 83.9802 47.0303 83.8402 49.9003L83.7402 50.1003Z" fill="#D2D3CE"/>
<path d="M84.14 186.7C90.74 190.84 98.84 191.43 106.44 191.4C110.54 192.3 116.74 194.4 110.24 190.6C104.15 187.3 109.5 182.27 113.34 179.9C117.14 176.5 112.64 175.2 108.54 175.4C106.24 175.9 95.24 172.7 97.74 177.7C101.17 181.32 107.74 188.23 98.24 189.4C93.55 189.82 88.73 186.09 84.04 186.5L84.14 186.7ZM97.94 176.9C98.34 175.8 101.04 177.2 102.04 177.4C105.34 179.03 109.85 176.7 112.84 178.1C107.88 182.67 102.33 182.3 97.94 176.9Z" fill="#10305D"/>
<path d="M85.8403 235.4C84.9403 237 86.5403 238.3 87.6403 239.2C90.5703 240.8 88.9603 230.53 85.8403 235.4Z" fill="#15618C"/>
<path d="M85.8402 68.6997C85.9402 68.6997 86.1402 69.0997 86.3402 68.8997C86.4402 68.6997 86.8402 68.4997 86.7402 68.2997C86.3402 67.6997 85.9402 67.9997 85.7402 68.5997L85.8402 68.6997Z" fill="#D2D3CE"/>
<path d="M87.3397 153.7C85.7397 153.7 85.3397 156.1 86.7397 156.7C89.5997 157.96 90.1697 153.79 87.3397 153.7Z" fill="#E1E3D4"/>
<path d="M87.34 214.7C86.45 216.02 85.5 222.57 87.84 218.7C89.37 215.15 93.16 211.69 93.74 207.9C91.86 207.46 88.09 212.97 87.44 214.7H87.34Z" fill="#E1E3D4"/>
<path d="M86.7402 109.1C89.3402 109.8 92.1402 110.6 94.8402 111.1C96.7402 110.4 87.2402 108.8 86.7402 109.1Z" fill="#565A63"/>
<path d="M87.4403 243.4C86.9403 243.8 87.3403 243.9 87.6403 244C87.6403 243.7 87.6403 243.5 87.4403 243.4Z" fill="#62A6C7"/>
<path d="M87.7404 225.3C87.5204 232.07 90.4704 231.64 87.8404 225.3H87.7404Z" fill="#2C678D"/>
<path d="M86.3398 220.3C86.4498 237.91 92.6898 228.57 101.14 228.2C128.68 236.43 115.81 227.85 120.54 213.5C121.04 212.3 122.54 210.9 121.34 209.7C109.71 202.14 89.3198 204.89 86.3398 220.3Z" fill="#6BA9CD"/>
<path d="M87.6396 46.8003C88.8996 44.1303 92.0897 45.5203 93.9397 44.0003C94.5397 43.0003 91.5396 43.5003 91.0396 43.3003C88.8796 42.6003 87.8796 46.0003 87.6396 46.9003V46.8003Z" fill="#D2D3CE"/>
<path d="M88.6401 273C90.8501 278.23 95.6901 275.9 90.8401 283.3C90.5401 283.9 90.9401 284 91.4401 283.8C94.7801 282.23 102.66 280.6 102.04 275C107.31 260.73 106.96 268.77 102.74 253.8C101.72 245.29 104.88 235.31 101.34 227.4C99.8401 224.9 94.2401 228.8 91.8401 229.1C82.7201 232.09 94.7301 244.64 95.7401 250.2C96.8301 258.37 90.4801 265.33 88.5401 272.8L88.6401 273Z" fill="#62A6C7"/>
<path d="M89.9398 43.1004C95.6398 47.1604 100.59 34.2604 104.64 31.1004C107.09 27.8004 106.81 19.8804 105.44 17.0004C102.4 15.4604 96.4998 20.2704 93.6398 21.8004C92.7398 22.7004 93.8398 23.3004 93.6398 25.8004C93.5398 31.4904 89.2798 37.6204 89.8398 43.1004H89.9398Z" fill="#E1E3D4"/>
<path d="M90.8401 172.6C87.5501 174.64 100.16 174.83 99.8401 173.7C99.1901 171.75 92.5901 171.95 90.8401 172.5V172.6Z" fill="#327A9F"/>
<path d="M91.2398 186.8C91.0698 189.65 99.5198 189.57 101.74 189.1C107.85 187.13 92.3598 186.48 91.2398 186.8Z" fill="#6BA9CD"/>
<path d="M92.3404 243.1C91.6404 248.21 93.3204 254.45 93.5404 259.7C96.0104 263.14 99.4704 246.37 92.3404 243.1Z" fill="#2B7BA2"/>
<path d="M95.2399 206.4C93.4399 209.1 103.74 204.7 104.84 205.1C109.84 204.7 114.64 207.3 119.34 208.9C145.59 217.89 140.04 218.98 135.54 242.4C135.95 254.22 138.41 251.02 140.54 241.7C142.55 233.02 152.73 221.24 141.84 215.1C137.54 211.8 133.44 208.6 128.04 207.9C115.84 206.18 107.01 197.01 95.3399 206.3L95.2399 206.4Z" fill="#2B7BA2"/>
<path d="M94.9398 110.7C113.1 117.12 132.97 123.14 151.24 127.7C133.11 121.6 113.45 116.1 94.8398 110.8L94.9398 110.7Z" fill="#1D233B"/>
<path d="M99.8402 174.5C92.1902 172.78 97.5402 176.65 99.9402 174.5H99.8402Z" fill="#4794BD"/>
<path d="M96.6399 40.8C95.7699 45.12 103.6 33.92 102.34 33C99.5199 34.14 98.7399 38.6 96.7399 40.7V40.9L96.6399 40.8Z" fill="#D2D3CE"/>
<path d="M97.3398 172.2C98.6398 172.2 97.5398 173.4 97.3398 172.2Z" fill="#4794BD"/>
<path d="M99.1403 204.4C92.5403 207.77 103.55 205.79 104.64 203.6C104.55 202.13 100.03 204.35 99.1403 204.3V204.4Z" fill="#15618C"/>
<path d="M98.04 176.7C98.15 178.44 102.25 180.07 103.74 181.3C106.59 182.39 110.51 179.95 112.84 178.3C112.46 177.21 110.42 177.92 109.44 177.8C105.53 178.89 101.74 176.71 98.14 176.6L98.04 176.7Z" fill="#2C678D"/>
<path d="M98.6396 172.5C99.7996 172.68 98.9296 173.76 98.6396 172.6V172.5Z" fill="#4794BD"/>
<path d="M99.2402 173.2C99.3402 173.2 99.4402 173.3 99.5402 173.4C99.5402 173.4 99.3402 173.3 99.2402 173.2Z" fill="#327A9F"/>
<path d="M100.14 188.6C99.2102 189.08 100.75 189.88 100.84 189.1C100.84 188.76 100.46 188.57 100.14 188.6Z" fill="#62A6C7"/>
<path d="M100.44 228.9C100.44 229.8 102.24 229.5 102.94 229.6C104.94 229.6 106.84 231 108.84 231.6C109.94 231.9 111.24 232.3 112.44 232.2C114.94 231.8 107.14 229.4 106.54 229.1C104.44 228.5 101.74 227.1 100.54 228.8L100.44 228.9Z" fill="#4794BD"/>
<path d="M100.44 230.1C99.9399 230.9 101.84 233.8 102.74 232.7C103.64 230.5 104.94 231.5 106.84 231.6C110.26 231.09 102.22 227.8 100.54 230L100.44 230.1Z" fill="#327A9F"/>
<path d="M102.04 235.7C101.08 240.51 101.75 246.78 101.64 251.6C102.24 254.1 104.44 251.6 104.84 250.3C105.75 246.7 105.78 242.71 105.54 239C104.99 235.99 103.33 230.19 102.14 235.8L102.04 235.7Z" fill="#4794BD"/>
<path d="M102.34 271.8C102.34 272.5 103.34 272.9 104.44 274C105.52 275.2 108.59 282.83 107.74 277C104.02 267.35 112.26 263.67 110.74 249.6C110.94 245.2 110.84 240 108.84 236.1C106.54 231.9 108.84 239.3 109.04 241.6C109.88 252.72 110.11 263.17 102.34 271.6V271.8Z" fill="#10305D"/>
<path d="M102.74 268.8C102.09 270.36 102.27 270.6 102.79 270.19C110.87 261.64 108.28 250.5 107.84 240.7C107.64 239.7 106.54 234.3 108.14 237.8C110.7 245.89 110.26 255.53 108.44 263.7C105.54 268.78 107.7 275.45 112.04 278.7C117.56 276.01 118.86 268.22 118.74 262.3C119.64 255.5 121.44 248.7 123.14 242.1C123.54 240.6 125.54 235.4 124.64 240.3C123.88 245.19 120.76 254.35 121.04 258.2C124 250.55 126.72 241.93 128.14 233.9C127.54 227.1 117.34 232 112.74 231C109.94 231 104.04 228.7 103.34 232.7C105.01 240.45 104.03 247.03 102.64 254.4C103.58 258.99 105.65 264.26 102.84 268.6L102.74 268.8ZM106.24 234.4H106.14C106.14 234.4 106.28 234.33 106.24 234.5V234.4Z" fill="#2B7BA2"/>
<path d="M103.14 84.3998C103.14 84.3998 103.5 84.4898 103.24 84.2998L103.14 84.3998Z" fill="#565A63"/>
<path d="M102.74 228C103.14 227.6 103.64 227.7 103.64 228.3C103.44 228.5 102.84 228.3 102.64 228.1L102.74 228Z" fill="#62A6C7"/>
<path d="M103.44 83.7995C103.7 84.9095 104.43 82.6695 103.44 83.6995V83.7995Z" fill="#565A63"/>
<path d="M105.44 173.2C103.84 173.2 102.74 175.6 104.34 176.4C105.25 176.96 113.85 176.87 111.84 175C110.07 173.87 107.42 173.25 105.44 173.2Z" fill="#6BA9CD"/>
<path d="M103.94 83.0998C104.38 83.0698 105.41 82.2898 104.84 81.7998C104.64 81.7998 104.04 82.7998 103.84 82.9998L103.94 83.0998Z" fill="#565A63"/>
<path d="M104.84 81.9C105.04 82.7 105.74 81.5 105.24 81.5C105.04 81.5 104.94 81.8 104.94 81.8L104.84 81.9Z" fill="#565A63"/>
<path d="M105.64 187.8C110.04 195.55 131.59 189.39 105.74 187.7L105.64 187.8Z" fill="#6BA9CD"/>
<path d="M106.04 188.2C107.27 188.52 106.35 189.77 106.04 188.3V188.2Z" fill="#4794BD"/>
<path d="M106.14 234.3C106.14 234.3 106.28 234.37 106.24 234.2H106.14V234.3Z" fill="#10305D"/>
<path d="M108.14 190C107.09 190.13 107.65 188.83 108.14 189.9V190Z" fill="#4794BD"/>
<path d="M110.44 81.2998C109.92 82.9098 108.96 84.9698 108.04 86.4998C108.04 84.7998 108.84 82.3998 110.34 81.2998H110.44Z" fill="#1D233B"/>
<path d="M108.34 44.6004C107.21 46.9104 112.19 43.3104 111.14 42.6004C110.1 42.4304 109.15 43.9104 108.44 44.5004V44.7004L108.34 44.6004Z" fill="#9AA2A9"/>
<path d="M108.04 202C119.43 209.35 133.42 207.3 143.84 217.5C147.54 219.3 146.14 216.2 144.74 214.7C126.51 195.05 138.99 210.21 108.04 202Z" fill="#15618C"/>
<path d="M111.74 232.2C109.42 230.69 109.18 232.82 111.74 232.3V232.2Z" fill="#327A9F"/>
<path d="M110.94 42.9996C112.67 43.1596 121.85 38.0996 122.34 36.1996C121.84 35.7996 120.94 36.5996 120.44 36.8996C117.49 39.0696 113.35 40.1796 111.04 42.9996H110.94Z" fill="#565A63"/>
<path d="M111.44 232.3V232.6C113.17 233.69 116.28 233.34 117.94 232.3C116.28 231.74 113.33 232.27 111.34 232.3H111.44Z" fill="#15618C"/>
<path d="M111.94 200.5C123.16 203.2 135.52 200.29 146.44 196.7C149.1 196.53 157.4 190.89 151.04 190.2C138.79 195.51 125.33 198.72 112.14 200.3L111.94 200.5Z" fill="#2B7BA2"/>
<path d="M112.64 232.3H112.94C112.84 232.5 112.74 232.5 112.64 232.3Z" fill="#327A9F"/>
<path d="M112.94 231.2C112.14 232.6 116.04 232.2 116.64 231.9C119.8 230.51 113.85 231.02 113.04 231.1L112.94 231.2Z" fill="#62A6C7"/>
<path d="M113.34 191.8C113.17 194.44 119.78 192.13 118.54 190.5C117.06 190.61 114.52 191.09 113.34 191.8Z" fill="#2C678D"/>
<path d="M117.04 172.8C114.86 172.9 114.63 175.21 117.14 175C119.25 174.59 123.83 177.15 124.64 174.7C124.07 172.63 118.91 172.52 117.04 172.6V172.8Z" fill="#327A9F"/>
<path d="M116.44 232.2C116.74 232.3 117.54 232.2 117.74 232C117.64 231.5 116.54 231.7 116.34 232.2H116.44Z" fill="#327A9F"/>
<path d="M117.74 231.4C118.2 234.04 125.57 228.36 128.34 233.6C131.28 233.91 129.45 228.73 127.34 228.5C124.18 227.58 120.87 230.41 117.84 231.2L117.74 231.4Z" fill="#4794BD"/>
<path d="M117.34 264.3C116.85 275.02 123.76 239.61 124.54 238C124.8 230.31 116.89 262.7 117.34 264.3Z" fill="#10305D"/>
<path d="M119.84 211.8C115.84 214.7 117.44 223.6 118.04 227.9C119.19 231.02 123.81 228.34 126.24 229.4C130.54 231.3 126.54 236.5 125.64 239.5C123.56 247.8 119.61 255.89 118.44 264.3C122.51 274.95 118.12 287.92 134.54 284.4C151.23 280.16 118.1 269.45 132.14 262.3C142.22 254.2 129.82 241.82 135.74 232.2C137.34 228.2 140.74 223.9 139.14 219.4C137.69 214.82 124.41 208.74 119.74 211.6L119.84 211.8Z" fill="#62A6C7"/>
<path d="M118.74 190.5C118.34 191.2 119.44 191.2 119.94 191.2C129.22 194.38 122.91 187.43 118.74 190.5Z" fill="#10305D"/>
<path d="M120.14 94C119.84 95.4 119.54 97.1 119.84 96.7C121.04 93.4 121.74 89.8 122.34 86.3C122.71 80.32 120.26 92.68 120.24 94H120.14Z" fill="#565A63"/>
<path d="M120.64 175.7C129.61 180.24 139.98 185.21 150.14 187.6C153.34 188.4 157.14 185.5 153.44 183C151.84 181.8 145.94 181.7 144.34 181C145.4 180.72 159.6 182.36 153.54 178.7C151.54 177.7 143.94 179.1 142.64 178.7C144.54 177.6 151.64 177.8 153.24 176.1C154.64 175.1 154.44 173 152.94 172.2C149.54 170.3 145.54 173.3 141.94 173.8C135.22 176.89 125.65 170.06 120.44 175.6L120.64 175.7Z" fill="#4794BD"/>
<path d="M121.84 36.2998C122.44 38.0998 124.34 33.9998 124.14 33.2998C123.24 33.2998 122.03 35.4098 121.84 36.2998Z" fill="#9AA2A9"/>
<path d="M122.54 210.8C121.64 210.4 120.34 209.9 119.34 209.6C120.14 209.9 121.74 210.5 122.64 210.9L122.54 210.8Z" fill="#2B7BA2"/>
<path d="M122.14 84.5995H122.34C124.72 79.1795 122.18 78.7095 121.94 84.5995H122.14Z" fill="#1D233B"/>
<path d="M122.44 171C125.7 176.64 139.83 175.88 145.44 173.8C152.25 172.1 151.78 162.96 150.64 157.4C149.24 152.7 151.14 153.1 154.04 156.5C155.71 158.79 157.37 163.58 159.34 159.8C159.66 148.7 141.28 141.87 132.84 148.6C126.68 153.61 122.52 162.88 122.34 170.9L122.44 171ZM126.84 168.8C125.57 162.11 128.5 166.79 130.34 169.2C138.04 176.2 145.54 170.6 148.54 162.3C149.44 160.1 150.24 159.1 149.94 161.7C149.73 173.24 132.76 179.06 126.84 168.8ZM144.64 160C142.54 159.9 140.34 156.5 142.74 155.2C145.79 153.76 148.95 159.89 144.54 160H144.64Z" fill="#0B0D14"/>
<path d="M122.84 80.1003C123.74 80.5003 123.84 78.5003 124.14 77.9003C124.71 74.5003 122.23 78.7203 122.74 80.0003L122.84 80.1003Z" fill="#565A63"/>
<path d="M123.74 76.8C126.15 73.65 127 68.3 128.34 64.5C126.23 67.99 123.95 72.62 123.74 76.7V76.8Z" fill="#1D233B"/>
<path d="M124.04 33.2002C124.04 33.2002 123.34 34.0002 123.54 33.8002C123.84 33.5002 124.24 33.1002 124.14 33.2002H124.04Z" fill="#9AA2A9"/>
<path d="M124.04 33.1004C124.04 33.1004 124.14 33.2004 124.24 33.3004C124.34 33.2004 124.44 33.1004 124.54 33.0004L124.44 32.9004C124.34 33.0004 124.24 33.1004 124.14 33.2004L124.04 33.1004Z" fill="#9AA2A9"/>
<path d="M124.34 32.8002L124.44 32.9002C124.44 32.9002 124.44 32.7002 124.54 32.7002C124.54 32.7002 124.34 32.7002 124.34 32.8002Z" fill="#9AA2A9"/>
<path d="M124.64 191.1C124.14 191.4 124.14 192.4 124.84 192.5C125.82 192.34 125.81 190.77 124.64 191V191.1Z" fill="#2C678D"/>
<path d="M126.64 168.3C132.25 178.95 149.7 173.44 149.94 161.6C150.24 159 149.54 160 148.54 162.2C145.74 170 138.74 175.9 130.94 169.7C129.11 168.05 125.83 161.68 126.64 168.3Z" fill="#1D233B"/>
<path d="M128.54 143.2C126.84 146 127.94 146.2 129.54 144.4C131.94 141.8 135.14 140 138.44 139.1C140.14 138.6 142.04 138.1 141.74 137.4C138.31 135.96 130.45 140.27 128.64 143.3L128.54 143.2Z" fill="#1D233B"/>
<path d="M128.94 121.7C127.64 122.3 133.94 123.6 134.24 123.3V123C132.79 122.49 130.49 121.57 129.04 121.6L128.94 121.7Z" fill="#CBCBCD"/>
<path d="M128.64 146.1C127.69 153.73 137.12 144.51 141.44 145.9C148.14 145.9 159.64 152.3 158.74 159.9C157.34 164.94 148.92 171.52 155.74 176.4C158.75 178.51 176.88 178.04 173.14 171.4C172.24 168.8 174.84 166 175.24 163.3C177.97 152.64 171.68 145.16 167.44 137.2C169.17 137.98 173.24 139.38 171.54 135.8C169.74 133.1 166.04 132.1 162.94 131.1C157.83 129.1 156.99 132.63 155.24 136.5C151.71 141.97 133.9 132.91 128.84 146L128.64 146.1ZM163.44 134.5C163.49 134.24 164.72 135 164.54 135.3C164.11 135.58 163.84 134.67 163.44 134.6V134.5Z" fill="#15618C"/>
<path d="M132.14 202.4C132.14 203.3 133.14 204.3 133.84 205C137.3 207.73 140.42 211.96 144.04 214.3C143.65 211.85 134.44 202.08 132.14 202.3V202.4Z" fill="#D2D3CE"/>
<path d="M133.64 236.9C132.84 239.44 132.09 244.16 134.74 245.5C135.12 245.12 135.2 233.3 133.74 236.9H133.64Z" fill="#327A9F"/>
<path d="M133.94 123.1C142.06 126.67 146.87 125.09 134.14 123L133.94 123.1Z" fill="#9AA2A9"/>
<path d="M134.14 234.6C133.66 236.87 137.34 233.64 137.44 232.9C138.13 225.86 134.88 231.75 134.24 234.6H134.14Z" fill="#327A9F"/>
<path d="M134.24 46.6002C131.64 47.8002 141.74 48.0002 142.34 47.8002C145.79 47.3902 144 43.8602 141.64 43.1002C136.12 40.2502 140.88 46.5802 134.24 46.5002V46.6002Z" fill="#D2D3CE"/>
<path d="M134.24 265.4C134.54 270.6 135.64 267.3 136.04 264.8C137.58 252.46 143.42 240.85 145.04 228.8C145.33 217.89 132.2 262.72 134.14 265.4H134.24Z" fill="#10305D"/>
<path d="M135.34 265.1C134.24 275.33 155.37 282.99 151.44 268.8C149.16 265.69 164.5 257.87 159.24 253C137.56 241.69 143.31 226.39 135.44 265.2L135.34 265.1ZM149.84 268.9C149.34 268.9 149.34 268.3 149.84 268.1C150.54 267.9 150.74 268.7 150.04 268.9C149.99 268.9 149.89 268.9 149.84 268.9Z" fill="#15618C"/>
<path d="M136.04 106.2C137.28 103.36 138.58 99.57 138.64 96.5C137.1 99.23 136.54 103.1 135.94 106.2H136.04Z" fill="#1D233B"/>
<path d="M137.74 107.7C138.24 111.6 144.64 109.8 147.44 111.4C156.29 117.02 162.44 127.51 161.24 109C161.24 105.4 161.64 105.4 162.04 108.3C162.94 115.89 161.84 119.62 171.14 118.2C184.8 123.19 181.36 106.6 182.14 98.5C183.24 91.4 180.94 88.5 175.94 84C170.74 78.4 170.34 78 163.34 79.6C158.54 80.3 152.94 79.2 148.74 81.8C143.99 85.43 138.42 101.33 137.64 107.7H137.74Z" fill="#D2D3CE"/>
<path d="M139.54 92.4004C139.04 93.4004 138.24 95.4004 138.64 96.5004C139.44 95.7004 139.54 93.6004 139.64 92.4004H139.54Z" fill="#565A63"/>
<path d="M139.94 89.8004C139.94 88.8004 139.94 87.3004 140.54 86.4004C140.64 87.3004 140.54 89.0004 139.94 89.9004V89.8004Z" fill="#565A63"/>
<path d="M140.84 85.4C140.24 84.1 140.64 81.9 140.84 80.5C140.84 80.72 140.84 84.49 140.84 85.5V85.4Z" fill="#9AA2A9"/>
<path d="M140.44 184.4C143.01 185.54 146.26 186.25 149.04 186.8C146.59 185.36 143.32 184.56 140.44 184.4Z" fill="#15618C"/>
<path d="M141.64 157C141.6 159.91 147.11 161.43 146.74 157.5C146.05 154.78 141.96 153.53 141.64 157Z" fill="#E1E3D4"/>
<path d="M142.44 178.1C140.74 178.4 139.94 178.6 140.54 178.7C143.64 178.9 147.84 177.8 151.04 178.2C157.28 180.85 161.96 185.78 169.44 182.1C170.94 181.4 176.64 178 173.14 176.7C163.02 176.98 152.5 176.32 142.44 178.1Z" fill="#15618C"/>
<path d="M141.84 137.6C141.47 138.75 151.17 138.94 152.94 139.8C150.18 137.65 145.34 136.71 141.94 137.5L141.84 137.6Z" fill="#10305D"/>
<path d="M142.14 125.2C149.47 127.87 150.38 126.38 142.14 125.1V125.2Z" fill="#9AA2A9"/>
<path d="M141.64 180.4C158.13 183.89 158.23 180.34 141.64 180.3V180.4Z" fill="#15618C"/>
<path d="M144.24 235.6C140.34 239.8 144.64 244.7 148.24 247.4C151.74 250.2 159.74 257.4 162.14 250.1C164.6 239.7 159.54 240.86 159.64 236.6C157.44 231.96 147.56 232.36 144.44 235.5H144.34L144.24 235.6Z" fill="#2B7BA2"/>
<path d="M145.14 226.5C145.21 226.56 145.85 225.1 145.24 225.7C145.24 225.9 145.14 226.2 145.14 226.4V226.5Z" fill="#10305D"/>
<path d="M146.14 127.2C146.94 128.1 147.04 126.2 146.14 127.1V127.2Z" fill="#10305D"/>
<path d="M146.64 45.0997C145.62 47.2997 151.98 49.1397 151.04 46.7997C147.19 43.8197 151.23 41.2397 149.94 37.7997C148.94 36.8997 148.84 39.1997 148.84 39.8997C148.89 41.8897 147.01 43.3697 146.64 45.0997Z" fill="#D2D3CE"/>
<path d="M148.54 127.2C147.64 127.4 149.34 128 149.64 128C165.77 133.04 159.07 128.74 148.54 127.1V127.2Z" fill="#10305D"/>
<path d="M148.34 152.3C149.66 156.29 150.2 156.02 153.84 157.2C157.04 157.8 149.59 152 148.44 152.2L148.34 152.3Z" fill="#9AA2A9"/>
<path d="M150.34 167.8C152.54 168.84 155.56 164.08 155.94 162C156.98 159.23 153.49 154.81 150.94 156.4C150.04 157.7 150.94 159.4 150.94 160.9C151.34 163 150.34 166.1 150.24 167.8H150.34Z" fill="#FEFEFE"/>
<path d="M150.34 169C149.57 175.15 156.98 163.79 157.44 162.5C155.93 161.6 154.12 165.47 152.84 166.4C151.94 167.38 150.5 168.02 150.34 169.1V169Z" fill="#1D233B"/>
<path d="M150.54 171.4C153.3 174.65 153.11 167.73 150.54 171.3V171.4Z" fill="#2B7BA2"/>
<path d="M151.04 126.9C147.8 127.54 156.78 129.26 157.44 128.5C158.67 127.97 151.46 126.76 151.04 126.9Z" fill="#565A63"/>
<path d="M151.64 189.8C151.03 192.12 152.62 195.39 155.14 193.3C159.87 190.99 161.12 189.63 155.14 188.3C153.53 187.55 151.89 187.89 151.64 189.8Z" fill="#15618C"/>
<path d="M151.94 55.7003C151.94 55.9003 152.04 56.5003 152.24 56.6003C152.23 56.5003 152.27 55.6303 151.94 55.7003Z" fill="#565A63"/>
<path d="M152.24 56.5C154.1 63.97 155.97 72.34 158.74 79.5C157.99 71.89 155.29 63.52 152.24 56.5Z" fill="#565A63"/>
<path d="M153.74 58.9004C152.06 60.2304 156.71 69.2204 156.74 72.0004C158.14 77.4004 158.24 83.6004 165.14 82.1004C167.74 81.8004 170.74 80.3004 168.64 77.5004C164.15 71.4904 158.93 64.5304 153.84 59.0004L153.74 58.9004Z" fill="#E1E3D4"/>
<path d="M154.64 182.9C149.44 187.8 157.84 190.7 161.84 189.1C163.44 188.4 163.34 187.2 164.34 186.5C165.63 185.55 170.56 184.16 165.74 184.2C162.82 183.79 157.89 181.15 154.64 182.9Z" fill="#15618C"/>
<path d="M154.44 181.6C154.4 182.63 156.37 182.22 157.14 182.3C156.8 181.64 155.19 181.34 154.44 181.6Z" fill="#10305D"/>
<path d="M155.34 177.4C160.76 178.09 167.07 177.3 172.44 176.3C167.12 175.88 160.59 176.72 155.34 177.4Z" fill="#10305D"/>
<path d="M156.04 128.7C163.52 131.83 161.03 127.14 156.04 128.7Z" fill="#9AA2A9"/>
<path d="M161.14 238C160.39 237.53 157.07 236.8 157.14 237.8C158.19 237.72 162.88 240.82 161.34 238.1H161.24L161.14 238Z" fill="#10305D"/>
<path d="M158.34 79.5999C158.29 80.0299 158.42 82.1299 159.24 81.3999C159.24 80.7499 159.23 79.4299 158.34 79.5999Z" fill="#9AA2A9"/>
<path d="M162.24 182.6C160.91 182.23 154.6 181.88 159.54 183C161.08 183.08 163.9 184.22 165.04 183.4C164.4 182.69 163.19 182.85 162.24 182.7V182.6Z" fill="#10305D"/>
<path d="M157.44 129.1C160.68 133.64 176.89 133.61 176.64 138.1C175.13 141.42 185.34 136.03 184.94 135.1C182.94 134.1 179.74 134.6 177.44 134.2C170.62 133.85 164.19 129.1 157.54 129L157.44 129.1Z" fill="#1D233B"/>
<path d="M159.14 160.7L158.84 161C159.04 161 159.14 161 159.14 160.7Z" fill="#1D233B"/>
<path d="M160.34 262.2C157 270.24 165.17 267.72 169.74 266.5C179.63 264.18 161.19 246.25 160.34 262.2Z" fill="#15618C"/>
<path d="M161.14 103.2C163.73 109.42 159.97 109.67 161.14 103.2Z" fill="#565A63"/>
<path d="M161.64 129.2C159.94 129.78 163.8 131.1 163.64 129.6C163.17 129.29 162.21 129.37 161.64 129.3V129.2Z" fill="#9AA2A9"/>
<path d="M161.24 252.6C162.49 251.67 163.83 244.37 162.34 241.4C162.39 244.94 162.21 249.09 161.24 252.7V252.6Z" fill="#565A63"/>
<path d="M161.84 107.9C160.48 110.89 161.84 115.67 161.44 119.2C162.53 131.72 163.46 110.09 161.84 107.9Z" fill="#1D233B"/>
<path d="M162.44 123.2C161.15 123.02 162.62 127.09 162.64 127.9C162.97 126.8 163.15 124.48 162.54 123.3H162.44V123.2Z" fill="#565A63"/>
<path d="M162.14 189.5C164.31 189.65 171.8 184.09 168.54 182.1C167.34 185.88 164.73 184.9 162.44 186.8C162.69 187.62 162.26 188.58 162.04 189.3L162.14 189.5Z" fill="#10305D"/>
<path d="M163.64 134.4C163.64 134.4 163.64 134.5 163.54 134.6C163.78 134.65 163.93 135.03 164.14 134.8L163.74 134.4H163.64Z" fill="#10305D"/>
<path d="M164.14 184C162.04 186.3 166.14 184.4 166.84 184C167.44 183.5 167.94 182.7 168.54 182.2C170.09 180.14 164.84 183.71 164.24 183.9L164.14 184Z" fill="#1D233B"/>
<path d="M164.04 134.8L163.94 134.9C164.04 135.1 164.14 135.2 164.24 135.4C164.7 135.35 164.29 134.83 163.94 134.8H164.04Z" fill="#10305D"/>
<path d="M165.04 136C165.14 137.5 167.24 138.9 168.34 139.9C173.6 143.04 174.94 149.6 177.44 154.7C178.84 156.6 179.94 155.3 180.04 153.3C180.25 149.39 175.91 141.99 174.64 139.4C171.37 138.75 167.96 137.44 165.24 135.9L165.04 136Z" fill="#10305D"/>
<path d="M165.24 130C163.94 131.1 172.34 134.1 173.14 133.7V133.5C170.87 132 168.03 130.39 165.34 129.9L165.24 130Z" fill="#9AA2A9"/>
<path d="M166.24 256.5C171.71 273.47 183.71 257.49 185.14 247.5C188.94 226.45 194.47 226.76 213.14 227.7C202.59 221.52 185.98 226.37 180.74 237.8C178.44 241.9 177.54 248 174.54 251.5C173.34 252.6 172.74 249.8 171.54 250.5C169.7 251.85 167.02 254.09 166.24 256.5Z" fill="#2B7BA2"/>
<path d="M168.74 181.6C169 182.23 171.61 179.86 172.04 179.5C171.14 179.5 169.34 180.7 168.74 181.4V181.6Z" fill="#10305D"/>
<path d="M169.94 141.2C174 149.81 178.24 159.27 173.34 168.5C172.84 170.1 173.34 169.9 174.34 169C180.14 161.5 177.54 150.2 172.24 142.8C171.84 142.2 170.24 140.3 169.94 141.2Z" fill="#1D233B"/>
<path d="M171.34 174.4C169.54 175.2 172.24 176.1 173.04 175.9C174.44 175.8 175.44 174.2 176.94 173.2C178.04 172.3 179.84 171.3 180.24 169.9C178.05 170.92 174.35 174.15 171.34 174.4Z" fill="#1D233B"/>
<path d="M170.74 175C171.04 175 171.84 175 172.04 175.3C171.84 175.5 170.94 175.3 170.74 175.1V175Z" fill="#2C678D"/>
<path d="M171.24 169.9C168.21 171.97 172.81 171.69 174.04 171.8C175.14 172.1 176.34 172.8 177.44 172C184.81 166.15 173.91 170.77 171.14 169.9H171.24Z" fill="#10305D"/>
<path d="M171.54 137.7C172.44 142.14 175.47 137.62 177.44 136.5C178.64 135.2 174.44 135.3 173.74 135C170.92 134.35 171.58 135.89 171.54 137.7Z" fill="#2C678D"/>
<path d="M172.14 179.5C175.65 179.22 176.03 174.25 172.04 175.5C171.84 176.3 172.94 176.4 173.34 176.9C174.34 177.9 172.14 178.7 172.14 179.4V179.5Z" fill="#2C678D"/>
<path d="M171.44 133.1C173.74 133.7 176.94 132.5 179.34 131.8C184.37 129.84 190.35 130.21 195.54 129.2C187.57 127.86 179.08 131.11 171.44 133V133.1Z" fill="#565A63"/>
<path d="M172.64 170.1C173.54 170.7 176.14 169.6 177.34 169.4C178.74 169 180.44 169.4 180.64 168.7C180.14 167.66 179.59 166.59 179.44 165.4C176.48 163.03 173.55 167.77 172.54 169.9L172.64 170.1Z" fill="#565A63"/>
<path d="M173.34 133.7C180.81 136.18 189.92 134.13 197.94 134.3C206.4 134.08 215.81 135.87 223.74 134.1C207.94 130.13 188.56 126.07 173.34 133.7ZM198.64 131.7C190.97 132.17 201.98 130.31 203.94 131C204.34 131 207.84 131 206.44 131.5C204.07 131.97 201.11 131.23 198.64 131.7Z" fill="#CBCBCD"/>
<path d="M173.94 247.5C172.83 262.64 179.59 244.81 179.64 240.6C177.3 241.11 174.18 244.69 173.84 247.5H173.94Z" fill="#62A6C7"/>
<path d="M174.54 141.6C173.54 144.2 178.04 149 180.44 149.6C182.84 150.2 184.74 147.6 186.74 145.9C192.01 140.88 201.4 140.92 206.74 136.7C206.44 134.7 202.44 135 200.84 134.8C188.91 133.62 184.36 137.04 174.54 141.6Z" fill="#2C678D"/>
<path d="M175.24 244.8C175.04 244.8 174.94 245.1 174.94 245.3C174.94 245.1 175.14 244.9 175.24 244.8Z" fill="#6BA9CD"/>
<path d="M175.34 243.6C176.14 244.4 178.44 241.3 179.14 240.2C188.54 222.9 200.44 224.2 217.44 227.8C219.84 228.2 227.14 228.8 222.94 224.8C205.36 210.15 177.3 220.45 175.34 243.5V243.6Z" fill="#6BA9CD"/>
<path d="M175.54 139.6C177.37 142.29 180.29 141.06 182.14 138.6C184.24 136.9 187.54 136.6 189.44 135.2C187.34 133.3 176.54 136.8 175.54 139.5V139.6Z" fill="#10305D"/>
<path d="M176.24 164C182.63 165.5 190.63 156.43 194.84 152.3C197.14 151.22 210.94 137.7 200.64 140.7C196.84 142.1 192.64 143.3 189.94 146.4C185.92 152.22 173.41 155.06 176.14 164H176.24Z" fill="#4794BD"/>
<path d="M176.54 165.2C179.24 166.7 191.44 158.1 193.34 155.5C193.94 154.7 193.94 154.3 192.94 154.8C188.01 158.96 182.2 162.3 176.44 165.1L176.54 165.2Z" fill="#1D233B"/>
<path d="M177.14 155.7C177.44 156.2 178.54 155.4 179.04 155.1C182.94 152.4 187.14 150.6 190.04 146.7C193.54 142.8 199.84 141.9 204.44 139.7C210.87 134.88 182.93 142.13 177.14 155.6V155.7Z" fill="#327A9F"/>
<path d="M177.84 76.9004C183.44 88.8504 189.17 90.4104 177.84 77.0004V76.9004Z" fill="#1D233B"/>
<path d="M178.04 147.3C177.84 148 178.74 149.4 179.04 150.3C179.34 151 179.74 153 180.74 152C182.76 150.31 179.88 147.13 178.04 147.3Z" fill="#15618C"/>
<path d="M179.94 169C179.71 170.19 180.75 169.56 180.04 168.9L179.94 169Z" fill="#1D233B"/>
<path d="M179.94 152.4C180.14 152.4 180.24 152.2 180.34 152.1C180.24 152.2 180.14 152.3 179.94 152.4Z" fill="#15618C"/>
<path d="M180.24 239.6C179.37 238.76 180.64 238.5 180.84 238.8C180.64 239.1 180.44 239.3 180.34 239.6H180.24Z" fill="#62A6C7"/>
<path d="M184.24 86.2002C183.61 87.4402 187.14 91.2202 188.44 91.8002C187.86 89.8802 185.74 87.7602 184.34 86.2002H184.24Z" fill="#565A63"/>
<path d="M184.84 250.2C187.84 239.97 186.1 236.47 184.74 250.2H184.84Z" fill="#565A63"/>
<path d="M186.04 134.8H185.54C185.13 135 186.19 135.26 186.04 134.8Z" fill="#1D233B"/>
<path d="M186.14 134.9C214.04 138.03 214.04 131.76 186.24 134.8L186.14 134.9Z" fill="#1D233B"/>
<path d="M187.94 235.8C187.94 235.4 187.94 234.8 188.54 234.8C188.64 235 188.24 235.7 188.04 235.9L187.94 235.8Z" fill="#2C678D"/>
<path d="M189.44 233.2C188.89 233.16 188.91 233.96 188.94 234.2C189.14 234.2 189.64 233.6 189.54 233.3L189.44 233.2Z" fill="#2C678D"/>
<path d="M190.04 231.9C189.45 231.83 189.39 232.86 189.44 233.2C189.49 233.14 191.02 231.65 189.94 231.9H190.04Z" fill="#2C678D"/>
<path d="M190.04 135.5C191.76 135.74 191.02 134.75 190.04 135.3V135.5Z" fill="#10305D"/>
<path d="M190.04 231.9C191.87 230.4 194.32 228.91 196.54 228.1C193.94 228 191.14 229.5 190.04 231.9Z" fill="#565A63"/>
<path d="M192.64 152.7C192.64 154 194.14 153.8 194.54 152.9C194.57 151.91 192.61 151.69 192.64 152.8V152.7Z" fill="#10305D"/>
<path d="M194.64 152.3C223.37 158.16 269.58 145.46 223.44 119C208.05 107.5 227.89 125.61 232.14 127.6C261.95 146.34 213.81 155.57 200.44 151.5C198.84 150.6 202.14 148.2 202.34 146.7C203.37 142.07 195.3 151.13 194.64 152.5V152.3Z" fill="#1D233B"/>
<path d="M195.04 228.4C195.24 228.4 196.04 228.4 195.94 228.1C195.74 228 195.14 228.1 195.04 228.3V228.4Z" fill="#10305D"/>
<path d="M195.64 228.1C195.94 228.1 196.14 228.1 196.34 228C196.44 227.7 195.74 228 195.64 228V228.1Z" fill="#327A9F"/>
<path d="M196.64 227.1C210.35 229.11 223.48 237.25 230.24 249.6C231.24 251.2 231.44 251 230.64 249.4C224.36 237.12 210.43 227.07 196.64 227.2V227.1Z" fill="#10305D"/>
<path d="M196.44 129.6C198.44 130 202.14 130.2 204.44 130.4C204.63 129.48 197.99 129.26 196.44 129.6Z" fill="#1D233B"/>
<path d="M195.54 131.7C196.44 132 198.24 132.1 199.04 131.5C198.18 131.05 196.46 131.34 195.54 131.6V131.7Z" fill="#565A63"/>
<path d="M200.74 227.8H197.54C198.24 227.4 199.94 227.4 200.74 227.8Z" fill="#327A9F"/>
<path d="M198.34 219V219.1H198.44L198.24 218.9L198.34 219Z" fill="#6BA9CD"/>
<path d="M200.74 149.2C195.04 151.4 204.04 152.9 205.04 150.5C205.79 149.01 207.7 148.98 208.94 148.3C207.57 147.57 202.73 149.07 200.74 149.2Z" fill="#565A63"/>
<path d="M199.04 131.4C199.12 131.54 201.13 131.6 201.44 131.4C201.5 130.79 199.39 130.76 199.04 131.3V131.4Z" fill="#9AA2A9"/>
<path d="M206.84 135.8C204.94 135.5 202.74 135.4 200.74 135.5C202.64 135.5 204.94 135.5 206.84 135.8Z" fill="#2C678D"/>
<path d="M201.44 131.3C207.11 132.47 208.69 130.54 201.44 131.1V131.3Z" fill="#565A63"/>
<path d="M201.54 227.8C202.64 227.3 205.04 227.8 205.94 228.5C206.74 229.3 201.84 228 201.54 227.8Z" fill="#327A9F"/>
<path d="M202.84 146.4C202.64 149.9 205.64 148.6 206.94 146.8C209.23 143.72 210.02 139.27 212.54 136.8C214.04 135.8 211.74 135.1 210.84 134.8C205.7 134.38 203.2 141.99 202.74 146.3L202.84 146.4Z" fill="#0B0D14"/>
<path d="M204.54 150.6C207.82 154.93 231 148.77 236.14 146.6C250.55 138.33 232.35 132.12 224.34 134C223.64 136.63 233.93 134.59 228.04 142.3C222.65 149.8 211.06 145.36 204.64 150.5L204.54 150.6ZM215.24 150.2C213.04 150.3 208.14 150.9 206.84 150.5C214.25 149.36 222.39 149.09 229.44 145.8C226.68 148.53 219.5 149.95 215.24 150.1V150.2Z" fill="#9AA2A9"/>
<path d="M204.84 130C215.25 133.43 227.28 133.81 238.04 136C227.68 132.54 215.69 131.67 204.84 130.1V130Z" fill="#565A63"/>
<path d="M206.14 137.5C206.97 139.69 208.29 135.85 208.14 135C207.54 133.5 206.44 136.9 206.24 137.4L206.14 137.5Z" fill="#1D233B"/>
<path d="M206.14 137.4C205.54 136.9 205.94 136.8 206.44 136.7C206.44 136.9 206.24 137.1 206.14 137.4Z" fill="#565A63"/>
<path d="M206.54 147.4C212.27 148.97 224.3 147.77 228.94 142.9C231.64 139.5 232.54 136.8 227.34 135.7C225.94 135.1 209.24 132.8 210.34 135.6C211.76 138.93 205.13 143.78 206.54 147.4Z" fill="#1D233B"/>
<path d="M207.24 228.6C221.24 235.71 230.18 244.8 234.14 260.2C234.84 262.6 238.64 269.7 239.54 264C239.54 254.2 234.84 235.6 226.54 229.7C224.04 228.3 221.14 229.1 218.04 229.2C214.79 229.37 209.5 227.4 207.24 228.6Z" fill="#327A9F"/>
<path d="M206.74 135.8C206.74 135.8 206.94 135.6 206.94 135.5C206.94 135.5 206.84 135.7 206.74 135.8Z" fill="#1D233B"/>
<path d="M206.74 150.5C213.99 150.56 222.48 150.44 228.84 146.4C229.64 145.8 229.64 145.6 228.64 146C221.81 149.4 213.92 149.24 206.74 150.5Z" fill="#565A63"/>
<path d="M208.34 226.1C204.35 226.05 221.07 234.43 226.04 228.7C226.44 228.2 225.14 228.3 224.74 228.3C219.24 228.3 213.51 227.88 208.34 226.1Z" fill="#62A6C7"/>
<path d="M215.64 114.4C215.74 114.4 215.84 114.6 215.94 114.7C215.84 114.7 215.74 114.7 215.54 114.6L215.64 114.4Z" fill="#565A63"/>
<path d="M216.94 115.7C215.27 115.55 216.66 114.34 217.04 115.7H216.94Z" fill="#565A63"/>
<path d="M215.74 221.5C216.84 222.2 218.84 223.5 220.24 223.6C219.31 222.27 217.28 221.47 215.74 221.5Z" fill="#10305D"/>
<path d="M220.14 223.6V223.9C220.44 223.9 220.34 223.7 220.14 223.6Z" fill="#10305D"/>
<path d="M220.44 134C219.04 135.33 222.44 134.78 220.44 133.9V134Z" fill="#9AA2A9"/>
<path d="M225.04 227.8C226.07 227.93 225.18 227.08 224.94 227.8H225.04Z" fill="#10305D"/>
<path d="M225.84 227.5C232.2 235.83 236.58 245.82 238.44 256.2C238.84 257.7 238.94 257.6 238.74 256.2C237.14 245.9 233.44 234.9 225.74 227.7L225.84 227.5Z" fill="#10305D"/>
<path d="M238.04 136C237.8 136.31 239.29 137.67 239.64 137.6C239.96 136.94 238.65 136.02 238.04 136Z" fill="#565A63"/>
<path d="M239.64 137.7C239.58 138.25 240 138.17 240.04 137.7H239.64Z" fill="#565A63"/>
</g>
<defs>
<clipPath id="clip0_769_8178">
<rect width="250" height="250" rx="125" fill="white"/>
</clipPath>
</defs>
</svg>
