<svg width="250" height="250" viewBox="0 0 250 250" fill="none" xmlns="http://www.w3.org/2000/svg">
<path d="M46.4937 199.6C42.2587 199.53 40.7537 197.08 42.5387 193.265C44.3237 189.45 47.1587 186.405 50.5187 183.955C53.3537 181.855 56.2587 182.24 59.1637 183.815C63.8537 186.335 67.5287 190.01 70.6437 194.175C72.5687 196.695 71.6937 198.725 68.4037 199.04C64.6237 199.32 49.9237 199.705 46.4937 199.6Z" fill="url(#paint0_linear_242_93832)"/>
<path d="M178.932 93.5842C179.527 99.2542 179.317 104.784 177.007 110.069C176.202 111.854 175.292 114.024 173.052 113.954C170.602 113.884 170.287 111.504 169.762 109.614C166.612 97.9592 161.467 87.4592 152.297 79.4092C149.392 76.7842 145.962 74.7192 143.057 72.1642C140.887 70.3092 138.507 67.9992 140.152 64.7792C141.657 61.8042 144.632 61.4892 147.677 61.6292C164.617 62.4692 176.902 74.9992 178.932 93.5842Z" fill="url(#paint1_linear_242_93832)"/>
<path d="M195.419 70.4475C195.944 72.5475 196.154 74.7175 196.154 76.8525C196.154 81.1925 195.629 85.3575 193.774 89.3825C192.864 91.3075 191.464 93.2675 189.014 92.9525C186.634 92.6375 186.844 90.3275 186.564 88.6125C184.709 79.4425 182.399 70.4825 175.014 63.9025C172.774 61.8725 170.149 60.2625 167.769 58.3725C166.509 57.3225 164.864 56.3425 165.144 54.4175C165.529 52.1775 167.384 51.1975 169.414 50.7775C175.469 49.3425 180.894 50.9875 185.689 54.6625C190.939 58.8275 193.914 64.2525 195.419 70.4475Z" fill="url(#paint2_linear_242_93832)"/>
<path opacity="0.5" d="M177.008 110.069C176.868 110.454 176.693 110.804 176.483 111.189C177.918 105.904 177.393 100.584 176.168 95.2994C171.828 77.1694 158.038 66.2844 140.958 67.4744C140.503 67.4744 140.048 67.5444 139.628 67.6144C139.418 66.7044 139.558 65.7594 140.083 64.7094C141.588 61.8044 144.563 61.4194 147.608 61.5594C164.688 62.4694 177.008 75.0694 179.003 93.5844C179.528 99.2544 179.318 104.784 177.008 110.069Z" fill="url(#paint3_linear_242_93832)"/>
<path opacity="0.5" d="M196.188 76.89C196.188 81.23 195.663 85.395 193.808 89.4199C193.353 90.3299 192.828 91.275 192.093 91.94C192.618 91.135 193.003 90.085 193.213 89.1049C194.193 84.765 193.808 80.6 192.828 76.33C192.373 74.23 191.708 72.165 190.728 70.205C187.893 64.5 183.798 59.88 177.743 57.045C173.648 55.12 169.308 54.42 165.073 55.33C165.073 55.12 165.073 54.805 165.073 54.525C165.458 52.285 167.313 51.305 169.343 50.885C175.398 49.45 180.823 51.095 185.618 54.77C190.903 58.795 193.913 64.255 195.453 70.45C195.943 72.55 196.188 74.72 196.188 76.89Z" fill="url(#paint4_linear_242_93832)"/>
<path d="M202.662 101.425C191.707 98.8002 187.752 109.195 169.097 136.04C169.097 136.04 165.527 142.095 158.422 150.005C147.152 162.605 126.782 180 97.3821 186.055C93.2871 186.86 88.9471 187.56 84.3971 187.84C76.5571 188.435 71.5521 187.84 68.7871 186.405C71.7621 188.33 79.0071 191.27 79.0071 191.27C108.687 201.7 141.692 200.3 170.497 186.86C227.302 157.005 213.617 103.98 202.662 101.425Z" fill="url(#paint5_linear_242_93832)"/>
<path opacity="0.5" d="M170.567 186.788C141.797 200.228 108.792 201.698 79.0423 191.268C79.0423 191.268 71.7973 188.363 68.8223 186.403C95.1773 197.673 135.147 190.813 158.282 180.068C203.782 156.198 204.027 117.313 196.642 101.563C198.497 100.968 200.457 100.968 202.697 101.493C213.617 103.978 227.302 157.003 170.567 186.788Z" fill="url(#paint6_linear_242_93832)"/>
<path opacity="0.8" d="M170.568 186.788C154.223 194.383 136.618 198.198 119.013 198.128C136.338 198.058 153.558 194.243 169.518 186.788C226.218 157.003 212.638 103.978 201.613 101.423C200.703 101.213 199.828 101.038 198.988 101.038C200.108 100.968 201.298 101.108 202.558 101.423C213.618 103.978 227.303 157.003 170.568 186.788Z" fill="white"/>
<path d="M160.593 132.154C160.593 138.349 154.853 147.834 141.553 160.294C123.878 176.919 97.383 185.949 97.383 185.949C93.288 186.754 88.948 187.454 84.398 187.734C76.558 188.329 71.553 187.734 68.788 186.299C68.648 186.229 68.403 186.089 68.263 185.984H68.193C56.468 178.459 94.828 151.754 112.048 140.379C137.353 126.939 154.713 122.634 158.668 127.009C159.893 128.444 160.593 130.159 160.593 132.154Z" fill="url(#paint7_linear_242_93832)"/>
<path d="M122.513 76.3654C130.633 80.6354 114.813 98.9054 93.848 113.605C93.778 113.605 93.778 113.675 93.708 113.675C88.493 117.315 83.033 120.675 77.433 123.685C49.468 138.455 39.598 125.19 43.868 119.135C43.868 119.135 44.078 118.75 44.778 118.015L44.848 117.945C44.918 117.875 44.918 117.875 44.988 117.805C46.318 116.475 49.013 114.165 54.088 111.47C62.278 107.13 63.398 105.485 63.398 105.485C65.778 104.68 68.473 103.385 71.448 101.6C88.913 91.0654 110.263 72.7954 121.008 75.7004C121.498 75.9104 121.988 76.1204 122.513 76.3654C122.443 76.2954 122.443 76.2954 122.513 76.3654Z" fill="url(#paint8_linear_242_93832)"/>
<path d="M112.083 140.451C107.078 143.146 101.793 146.121 96.1928 149.551C62.3828 169.991 50.4478 160.891 45.6178 156.656C40.8928 152.526 39.2478 145.141 39.1078 144.616C33.6478 127.011 43.6578 119.171 44.7078 117.981C44.0428 118.646 43.7978 119.101 43.7978 119.101C39.6328 125.156 49.4678 138.491 77.3628 123.651C82.8928 120.746 88.4228 117.316 93.6378 113.641C93.6378 113.641 93.7078 113.571 93.7778 113.571C95.9478 112.066 117.893 96.9463 130.353 92.6763C143.198 88.2663 151.038 100.201 151.458 100.866C157.443 110.421 160.278 121.306 160.488 132.191C160.488 130.161 159.893 128.446 158.703 127.116C154.748 122.706 137.388 127.011 112.083 140.451Z" fill="url(#paint9_linear_242_93832)"/>
<path opacity="0.5" d="M160.592 132.154C160.592 130.124 159.997 128.409 158.807 127.079C154.782 122.669 137.457 126.939 112.187 140.449C107.182 143.144 101.897 146.119 96.2972 149.549C62.4872 169.989 50.5522 160.889 45.7222 156.654C40.9622 152.524 39.3172 145.139 39.1772 144.614C37.9872 140.869 37.5322 137.509 37.5322 134.604C38.6522 137.124 40.6822 140.799 43.6572 143.039C48.8022 146.924 61.3322 155.184 93.6372 132.609C98.9922 128.864 104.067 125.504 108.932 122.459C121.847 114.409 132.732 109.089 140.712 106.569C148.167 104.189 156.147 108.424 158.247 116.054C159.682 121.339 160.487 126.729 160.592 132.154Z" fill="url(#paint10_linear_242_93832)"/>
<path d="M121.043 75.7672C110.228 72.7922 88.9476 91.1322 71.4826 101.667C68.5076 103.452 65.8126 104.712 63.4326 105.552C60.3876 106.602 57.7626 106.987 55.5926 106.987C55.2776 106.987 54.9976 106.987 54.6826 106.987C54.6126 106.987 54.6126 106.987 54.5426 106.987C54.2276 106.987 54.0176 106.917 53.8076 106.917C53.7376 106.917 53.6676 106.917 53.5976 106.917C53.3876 106.917 53.1426 106.847 52.9326 106.847C52.7226 106.777 52.4776 106.777 52.2676 106.707C51.9526 106.637 51.6026 106.567 51.2876 106.497C51.0776 106.427 50.8326 106.357 50.6226 106.287C50.4126 106.217 50.1676 106.147 49.9576 106.077C49.7476 106.007 49.5726 105.937 49.3626 105.762C47.0526 104.642 45.9326 103.312 45.9326 103.312C48.6276 98.5522 51.9876 94.0022 56.0826 89.9422C73.3026 72.7222 98.1526 67.8572 119.713 75.3822C119.608 75.2422 120.518 75.5222 121.043 75.7672Z" fill="url(#paint11_linear_242_93832)"/>
<path opacity="0.5" d="M121.043 75.7691C110.228 72.7941 88.9476 91.1341 71.4826 101.669C68.5076 103.454 65.8126 104.714 63.4326 105.554C60.3876 106.604 57.7626 106.989 55.5926 106.989C55.2776 106.989 54.9976 106.989 54.6826 106.989C54.6126 106.989 54.6126 106.989 54.5426 106.989C54.2276 106.989 54.0176 106.919 53.8076 106.919C53.7376 106.919 53.6676 106.919 53.5976 106.919C53.3876 106.919 53.1426 106.849 52.9326 106.849C52.7226 106.779 52.4776 106.779 52.2676 106.709C51.9526 106.639 51.6026 106.569 51.2876 106.499C51.0776 106.429 50.8326 106.359 50.6226 106.289C50.4126 106.219 50.1676 106.149 49.9576 106.079C49.7476 106.009 49.5726 105.939 49.3626 105.764C47.1226 104.714 46.0726 103.454 45.9326 103.314C46.9126 103.104 47.9626 102.789 49.0826 102.404C51.5326 101.599 54.2276 100.304 57.2026 98.5191C73.2326 88.8941 92.4826 72.6191 104.068 72.0941C105.118 72.1641 106.098 72.2341 107.113 72.4091C111.383 72.9341 115.618 73.9141 119.713 75.3141C119.608 75.2441 120.588 75.5241 121.043 75.7691Z" fill="url(#paint12_linear_242_93832)"/>
<path opacity="0.6" d="M121.042 75.7703C110.227 72.7953 88.9473 91.1353 71.4823 101.67C68.5073 103.455 65.8123 104.715 63.4323 105.555C60.3873 106.605 57.7623 106.99 55.5923 106.99C55.2773 106.99 54.9973 106.99 54.6823 106.99C54.6123 106.99 54.6123 106.99 54.5423 106.99C54.2273 106.99 54.0173 106.92 53.8073 106.92C53.7373 106.92 53.6673 106.92 53.5973 106.92C53.3873 106.92 53.1423 106.85 52.9323 106.85C52.7223 106.78 52.4773 106.78 52.2673 106.71C51.9523 106.64 51.6023 106.57 51.2873 106.5C51.0773 106.43 50.8323 106.36 50.6223 106.29C50.4123 106.22 50.1673 106.15 49.9573 106.08C49.7473 106.01 49.5723 105.94 49.3623 105.765C52.1973 106.815 56.5373 107.34 62.5573 105.24C64.9373 104.435 67.6323 103.14 70.6073 101.355C87.8273 90.9953 108.792 73.0053 119.712 75.3853C119.607 75.2453 120.517 75.5253 121.042 75.7703Z" fill="white"/>
<path opacity="0.6" d="M95.877 112.101C112.957 99.1156 125.942 84.0306 124.087 77.6256C127.832 83.3656 114.077 98.9756 95.877 112.101Z" fill="white"/>
<path opacity="0.79" d="M160.279 129.705C160.279 129.635 160.279 129.635 160.279 129.565C159.544 126.065 156.779 125.225 156.779 125.225C150.794 122.775 134.309 127.465 111.489 139.61C106.484 142.305 101.199 145.28 95.5992 148.71C61.7892 169.15 49.8542 160.05 45.0242 155.815C44.4292 155.29 43.9042 154.765 43.4492 154.17C44.1142 155.08 44.8842 155.885 45.6892 156.62C50.5542 160.785 62.4892 169.99 96.2642 149.515C101.864 146.155 107.149 143.11 112.154 140.415C133.329 129.145 148.939 124.315 155.799 125.645C156.254 125.715 157.129 126.03 157.899 126.765C158.949 128.025 159.544 129.6 159.544 131.525C159.614 137.72 154.014 147.275 140.889 159.945C128.569 171.81 111.944 179.93 103.054 183.745C111.874 180.175 128.884 172.195 141.484 160.33C154.749 147.8 160.524 138.385 160.524 132.19C160.594 131.28 160.489 130.44 160.279 129.705Z" fill="url(#paint13_linear_242_93832)"/>
<defs>
<linearGradient id="paint0_linear_242_93832" x1="72.4077" y1="190.593" x2="31.558" y2="191.557" gradientUnits="userSpaceOnUse">
<stop stop-color="#4DC7F6"/>
<stop offset="0.4695" stop-color="#59F4D9"/>
<stop offset="1" stop-color="#A8F8C0"/>
</linearGradient>
<linearGradient id="paint1_linear_242_93832" x1="178.691" y1="101.775" x2="149.408" y2="68.8745" gradientUnits="userSpaceOnUse">
<stop stop-color="#96F7C6"/>
<stop offset="1" stop-color="#D2FBDF"/>
</linearGradient>
<linearGradient id="paint2_linear_242_93832" x1="197.297" y1="85.2117" x2="168.014" y2="52.3114" gradientUnits="userSpaceOnUse">
<stop stop-color="#96F7C6"/>
<stop offset="1" stop-color="#D2FBDF"/>
</linearGradient>
<linearGradient id="paint3_linear_242_93832" x1="180.333" y1="99.6231" x2="151.334" y2="67.0419" gradientUnits="userSpaceOnUse">
<stop stop-color="white"/>
<stop offset="0.8616" stop-color="white" stop-opacity="0"/>
</linearGradient>
<linearGradient id="paint4_linear_242_93832" x1="198.647" y1="84.0104" x2="169.37" y2="51.1167" gradientUnits="userSpaceOnUse">
<stop stop-color="white"/>
<stop offset="0.8616" stop-color="white" stop-opacity="0"/>
</linearGradient>
<linearGradient id="paint5_linear_242_93832" x1="82.4837" y1="208.987" x2="216.324" y2="123.205" gradientUnits="userSpaceOnUse">
<stop stop-color="#4DC7F6"/>
<stop offset="0.4695" stop-color="#59F4D9"/>
<stop offset="1" stop-color="#A8F8C0"/>
</linearGradient>
<linearGradient id="paint6_linear_242_93832" x1="217.513" y1="123.465" x2="81.8639" y2="206.922" gradientUnits="userSpaceOnUse">
<stop stop-color="white"/>
<stop offset="0.8616" stop-color="white" stop-opacity="0"/>
</linearGradient>
<linearGradient id="paint7_linear_242_93832" x1="69.3584" y1="188.671" x2="159.446" y2="129.933" gradientUnits="userSpaceOnUse">
<stop stop-color="#015B7A"/>
<stop offset="0.4695" stop-color="#0173B5"/>
<stop offset="1" stop-color="#0047A3"/>
</linearGradient>
<linearGradient id="paint8_linear_242_93832" x1="46.8957" y1="129.466" x2="124.668" y2="80.891" gradientUnits="userSpaceOnUse">
<stop stop-color="#3308D4"/>
<stop offset="0.4695" stop-color="#4919DF"/>
<stop offset="1" stop-color="#420FB0"/>
</linearGradient>
<linearGradient id="paint9_linear_242_93832" x1="42.2837" y1="153.326" x2="151.32" y2="102.339" gradientUnits="userSpaceOnUse">
<stop stop-color="#5975FE"/>
<stop offset="1" stop-color="#7CD5FF"/>
</linearGradient>
<linearGradient id="paint10_linear_242_93832" x1="158.306" y1="116.715" x2="42.5582" y2="151.336" gradientUnits="userSpaceOnUse">
<stop stop-color="white"/>
<stop offset="0.8616" stop-color="white" stop-opacity="0"/>
</linearGradient>
<linearGradient id="paint11_linear_242_93832" x1="44.4342" y1="100.374" x2="119.364" y2="72.5978" gradientUnits="userSpaceOnUse">
<stop stop-color="#E6A9FF"/>
<stop offset="1" stop-color="#8556FC"/>
</linearGradient>
<linearGradient id="paint12_linear_242_93832" x1="51.9706" y1="108.78" x2="112.302" y2="71.8319" gradientUnits="userSpaceOnUse">
<stop stop-color="white"/>
<stop offset="0.8616" stop-color="white" stop-opacity="0"/>
</linearGradient>
<linearGradient id="paint13_linear_242_93832" x1="90.8441" y1="159.528" x2="208.019" y2="89.895" gradientUnits="userSpaceOnUse">
<stop stop-color="white"/>
<stop offset="0.8616" stop-color="white" stop-opacity="0"/>
</linearGradient>
</defs>
</svg>
