<svg width="250" height="250" viewBox="0 0 250 250" fill="none" xmlns="http://www.w3.org/2000/svg">
<path d="M79.772 92.0704C78.547 90.6704 77.042 89.9704 75.257 89.9704H38.577C38.262 89.9704 37.982 89.8654 37.772 89.6554C37.562 89.4454 37.457 89.2355 37.457 88.9904V64.3154C37.457 64.0704 37.562 63.8604 37.772 63.6504C37.982 63.4404 38.227 63.3354 38.577 63.3354H77.322C87.087 63.3354 95.522 67.3254 102.627 75.3054L112.042 86.7854L93.702 109.115L79.772 92.0704ZM147.462 75.1654C154.567 67.2554 163.037 63.3354 172.872 63.3354H211.477C211.792 63.3354 212.037 63.4054 212.212 63.5804C212.387 63.7554 212.457 64.0004 212.457 64.3154V88.9904C212.457 89.2355 212.387 89.4804 212.212 89.6554C212.037 89.8654 211.792 89.9704 211.477 89.9704H174.867C173.082 89.9704 171.577 90.6704 170.352 92.0704L143.332 124.9L170.457 157.975C171.682 159.305 173.152 159.935 174.867 159.935H211.512C211.827 159.935 212.072 160.04 212.247 160.25C212.422 160.46 212.492 160.74 212.492 161.055V185.73C212.492 185.975 212.422 186.22 212.247 186.395C212.072 186.605 211.827 186.71 211.512 186.71H172.907C163.037 186.71 154.602 182.72 147.602 174.74L125.132 147.37L102.627 174.705C95.522 182.685 87.052 186.675 77.217 186.675H38.577C38.262 186.675 38.017 186.57 37.842 186.36C37.667 186.15 37.597 185.905 37.597 185.555V160.88C37.597 160.635 37.667 160.425 37.842 160.215C38.017 160.005 38.262 159.9 38.577 159.9H75.222C76.937 159.9 78.442 159.2 79.737 157.8L106.267 125.495L147.462 75.1654Z" fill="#00D1FF"/>
</svg>
