<svg width="250" height="250" viewBox="0 0 250 250" fill="none" xmlns="http://www.w3.org/2000/svg">
<g clip-path="url(#clip0_242_94194)">
<path d="M125 249.998C194.036 249.998 250 194.034 250 124.998C250 55.9624 194.036 -0.00195312 125 -0.00195312C55.9644 -0.00195312 0 55.9624 0 124.998C0 194.034 55.9644 249.998 125 249.998Z" fill="#199248"/>
<path d="M125 31.2478C73.2266 31.2478 31.25 73.2244 31.25 124.998C31.25 176.771 73.2266 218.748 125 218.748C176.773 218.748 218.75 176.771 218.75 124.998C218.75 100.134 208.873 76.2881 191.291 58.7065C173.71 41.125 149.864 31.2478 125 31.2478ZM146.43 204.967C135.645 207.84 124.39 208.504 113.342 206.917C102.294 205.329 91.6815 201.524 82.1418 195.73C72.6022 189.936 64.3327 182.273 57.8306 173.201C51.3285 164.13 46.7281 153.837 44.3059 142.941C41.8837 132.046 41.6899 120.774 43.7359 109.801C45.782 98.8292 50.0257 88.3841 56.212 79.0941C62.3983 69.8041 70.3993 61.861 79.7341 55.7425C89.0688 49.6239 99.5445 45.4562 110.531 43.49C131.534 39.779 153.159 44.317 170.899 56.1581C188.638 67.9991 201.123 86.2297 205.752 107.05C210.381 127.87 206.795 149.673 195.744 167.915C184.692 186.157 167.027 199.429 146.43 204.967Z" fill="white"/>
<path d="M147.892 56.929C147.892 60.9681 147.892 64.9993 148.048 69.0384C142.645 66.9418 137.02 65.4687 131.283 64.6478C131.048 60.9837 132.095 56.9603 131.025 53.4837C126.938 53.1924 122.837 53.1428 118.744 53.3353C118.54 57.1009 118.619 60.8822 118.744 64.6634C113.004 65.5221 107.38 67.0265 101.978 69.1478C102.095 65.0697 102.134 60.9993 102.08 56.9134C87.8183 61.7154 75.4239 70.8723 66.6438 83.0932C57.8636 95.3141 53.1406 109.983 53.1406 125.031C53.1406 140.079 57.8636 154.747 66.6438 166.968C75.4239 179.189 87.8183 188.346 102.08 193.148C102.08 189.148 102.04 185.163 101.962 181.179C107.323 183.277 112.919 184.717 118.626 185.468C118.626 189.132 118.626 192.796 118.408 196.421C122.783 197.046 127.22 197.046 131.595 196.421C131.396 192.813 131.292 189.199 131.283 185.585C136.994 184.783 142.6 183.357 148.001 181.335C147.877 185.293 147.877 189.253 148.001 193.21C162.257 188.398 174.642 179.233 183.413 167.007C192.183 154.782 196.895 140.112 196.886 125.066C196.876 110.02 192.145 95.3567 183.36 83.1423C174.574 70.9278 162.177 61.7784 147.915 56.9837L147.9 56.929H147.892ZM158.595 165.796C149.158 174.351 135.751 176.374 123.439 176.195C112.634 176.195 101.197 173.265 93.392 165.445C89.2514 161.445 86.9076 156.101 84.8061 150.796C92.353 148.843 100.142 148.187 107.744 146.562C108.216 148.86 109.287 150.993 110.848 152.745C112.409 154.497 114.405 155.805 116.634 156.538C123.533 158.695 132.08 158.999 137.83 154.077C141.908 150.695 142.025 143.296 136.97 140.765C125.119 134.64 110.353 136.718 99.1498 128.968C83.7201 119.242 82.5795 93.4446 97.6811 82.9446C109.228 74.8431 124.665 73.8353 138.056 77.0853C150.165 80.1478 158.798 90.4134 162.955 101.781C155.501 103.07 148.056 104.39 140.603 105.648C138.642 93.8118 122.072 90.9993 113.837 97.8978C109.15 101.796 110.353 110.101 116.212 112.179C129.025 117.492 144.415 115.96 155.767 124.851C168.947 133.788 170.322 155.132 158.587 165.788L158.595 165.796Z" fill="white"/>
</g>
<defs>
<clipPath id="clip0_242_94194">
<rect width="250" height="250" rx="125" fill="white"/>
</clipPath>
</defs>
</svg>
