<svg width="250" height="250" viewBox="0 0 250 250" fill="none" xmlns="http://www.w3.org/2000/svg">
<rect width="250" height="250" rx="125" fill="white"/>
<g clip-path="url(#clip0_242_94340)">
<path d="M119.656 233.298C59.9448 233.298 11.3652 184.723 11.3652 125.015C11.3652 65.3003 59.9448 16.7246 119.656 16.7246C179.367 16.7246 227.946 65.3003 227.946 125.015C227.946 184.723 179.367 233.298 119.656 233.298ZM119.656 22.0083C62.8574 22.0083 16.6489 68.2123 16.6489 125.015C16.6489 181.81 62.8574 228.015 119.656 228.015C176.454 228.015 222.663 181.81 222.663 125.015C222.663 68.2123 176.455 22.0083 119.656 22.0083Z" fill="url(#paint0_linear_242_94340)"/>
<path d="M130.377 233.306C70.6694 233.306 22.0898 184.73 22.0898 125.015C22.0898 65.3003 70.6694 16.7246 130.377 16.7246C190.088 16.7246 238.667 65.3003 238.667 125.015C238.667 184.73 190.088 233.306 130.377 233.306ZM130.377 22.0083C73.5775 22.0083 27.3735 68.2123 27.3735 125.015C27.3735 181.818 73.5775 228.022 130.377 228.022C187.176 228.022 233.384 181.818 233.384 125.015C233.384 68.2123 187.175 22.0083 130.377 22.0083Z" fill="url(#paint1_linear_242_94340)"/>
<path d="M76.3859 69.584H186.491C186.956 69.5838 187.413 69.7064 187.816 69.9392C188.218 70.1721 188.552 70.507 188.784 70.9102C189.015 71.3134 189.137 71.7705 189.135 72.2355C189.134 72.7005 189.009 73.1569 188.775 73.5586L173.356 99.9884C173.123 100.388 172.79 100.719 172.39 100.949C171.989 101.179 171.535 101.3 171.073 101.3H102.727C102.27 101.3 101.822 101.418 101.424 101.643C101.027 101.868 100.695 102.192 100.46 102.583L95.7025 110.512C95.462 110.913 95.3321 111.371 95.3263 111.839C95.3204 112.306 95.4388 112.767 95.6692 113.174C95.8997 113.581 96.2341 113.92 96.6381 114.155C97.0422 114.391 97.5015 114.515 97.9692 114.515H171.012C171.49 114.515 171.958 114.644 172.368 114.889C172.778 115.134 173.114 115.485 173.34 115.905L190.397 147.583C190.61 147.978 190.718 148.421 190.713 148.869C190.707 149.318 190.587 149.758 190.365 150.147L170.709 184.544C170.478 184.949 170.144 185.285 169.741 185.519C169.338 185.753 168.88 185.876 168.414 185.876H58.3242C57.8565 185.876 57.3971 185.752 56.993 185.516C56.5889 185.281 56.2546 184.942 56.0241 184.535C55.7937 184.128 55.6754 183.667 55.6813 183.2C55.6872 182.732 55.8171 182.274 56.0578 181.873L68.7442 160.729C68.9791 160.338 69.3112 160.014 69.7084 159.789C70.1056 159.564 70.5542 159.446 71.0107 159.446H139.241C139.732 159.446 140.213 159.309 140.631 159.051C141.048 158.793 141.386 158.424 141.605 157.985L146.891 147.413C147.092 147.01 147.187 146.562 147.167 146.112C147.147 145.662 147.012 145.225 146.775 144.842C146.538 144.458 146.207 144.142 145.814 143.923C145.42 143.703 144.977 143.588 144.527 143.588H76.277C75.8258 143.588 75.3821 143.472 74.9882 143.252C74.5943 143.032 74.2633 142.715 74.0267 142.33L54.4508 110.52C54.2089 110.127 54.0741 109.678 54.0599 109.216C54.0456 108.755 54.1524 108.298 54.3696 107.891L74.054 70.983C74.2794 70.5604 74.6154 70.2069 75.0262 69.9605C75.4369 69.7141 75.9069 69.5839 76.3859 69.584Z" fill="url(#paint2_linear_242_94340)"/>
</g>
<defs>
<linearGradient id="paint0_linear_242_94340" x1="-16.1904" y1="260.858" x2="419.199" y2="-174.531" gradientUnits="userSpaceOnUse">
<stop stop-color="#DC1FFF"/>
<stop offset="0.5" stop-color="#01F39D"/>
<stop offset="1" stop-color="#55A2FF"/>
</linearGradient>
<linearGradient id="paint1_linear_242_94340" x1="266.226" y1="-10.8324" x2="-169.168" y2="424.562" gradientUnits="userSpaceOnUse">
<stop stop-color="#DC1FFF"/>
<stop offset="0.5" stop-color="#01F39D"/>
<stop offset="1" stop-color="#55A2FF"/>
</linearGradient>
<linearGradient id="paint2_linear_242_94340" x1="50.4189" y1="212.799" x2="281.085" y2="-59.8079" gradientUnits="userSpaceOnUse">
<stop stop-color="#DC1FFF"/>
<stop offset="0.5" stop-color="#01F39D"/>
<stop offset="1" stop-color="#55A2FF"/>
</linearGradient>
<clipPath id="clip0_242_94340">
<rect width="227.302" height="227.302" fill="white" transform="translate(11.3652 11.3643)"/>
</clipPath>
</defs>
</svg>
