<svg width="250" height="250" viewBox="0 0 250 250" fill="none" xmlns="http://www.w3.org/2000/svg">
<rect width="250" height="250" rx="125" fill="white"/>
<g clip-path="url(#clip0_242_94342)">
<path d="M208.848 125.016L125.014 41.1816L41.1792 125.016L125.014 208.851L208.848 125.016Z" fill="#1F205A"/>
<path d="M146.729 109.092L153.634 93.5018C153.634 93.5018 144.28 87.043 125.794 87.043C107.308 87.043 94.8363 96.6199 94.8363 109.092C94.8363 121.564 99.9588 127.8 121.563 132.923C143.166 138.045 134.926 144.059 133.367 145.395C131.808 146.731 119.113 150.517 100.627 139.827L93.5 155.194C93.5 155.194 105.972 162.989 126.462 162.989C146.952 162.989 156.529 150.74 156.529 140.272C156.529 129.804 150.961 120.673 131.808 118.223C112.654 115.773 114.547 108.758 116.774 106.085C119.001 103.412 130.36 99.4035 146.729 109.092V109.092Z" fill="white"/>
<path d="M125.015 238.667L124.148 237.8L11.3633 125.015L12.2295 124.149L125.015 11.3643L238.666 125.015L237.799 125.882L125.015 238.667H125.015ZM14.8281 125.015L125.015 235.202L235.201 125.015L125.015 14.829L14.8281 125.015Z" fill="#FF4C00"/>
<path d="M65.314 85.0811C72.0793 85.0811 77.5636 79.5968 77.5636 72.8316C77.5636 66.0663 72.0793 60.582 65.314 60.582C58.5488 60.582 53.0645 66.0663 53.0645 72.8316C53.0645 79.5968 58.5488 85.0811 65.314 85.0811Z" fill="#1F205A"/>
<path d="M184.802 85.1925C191.568 85.1925 197.052 79.7082 197.052 72.9429C197.052 66.1777 191.568 60.6934 184.802 60.6934C178.037 60.6934 172.553 66.1777 172.553 72.9429C172.553 79.7082 178.037 85.1925 184.802 85.1925Z" fill="#1F205A"/>
<path d="M65.314 193.1C72.0793 193.1 77.5636 187.615 77.5636 180.85C77.5636 174.085 72.0793 168.601 65.314 168.601C58.5488 168.601 53.0645 174.085 53.0645 180.85C53.0645 187.615 58.5488 193.1 65.314 193.1Z" fill="#1F205A"/>
<path d="M184.802 193.211C191.568 193.211 197.052 187.727 197.052 180.961C197.052 174.196 191.568 168.712 184.802 168.712C178.037 168.712 172.553 174.196 172.553 180.961C172.553 187.727 178.037 193.211 184.802 193.211Z" fill="#1F205A"/>
</g>
<defs>
<clipPath id="clip0_242_94342">
<rect width="227.302" height="227.302" fill="white" transform="translate(11.3633 11.3643)"/>
</clipPath>
</defs>
</svg>
