<svg width="250" height="250" viewBox="0 0 250 250" fill="none" xmlns="http://www.w3.org/2000/svg">
<rect width="250" height="250" rx="125" fill="white"/>
<g clip-path="url(#clip0_242_94345)">
<path d="M238.667 10.9639H10.8594V238.663H238.667V10.9639Z" fill="url(#paint0_linear_242_94345)"/>
<g opacity="0.15">
<path d="M135.084 55.1749C88.0934 38.8255 56.8744 63.8367 56.8744 63.8367L56.8384 63.8728C60.8637 63.4065 64.9129 63.1776 68.965 63.1871C121.189 63.1871 163.452 101.335 163.452 148.435C163.452 195.534 120.936 238.626 68.965 233.61C61.5299 232.904 54.1809 231.477 47.0215 229.351C64.0919 240.503 99.0283 257.61 141.039 247.469L141.075 247.758C179.296 230.505 205.606 194.415 205.606 152.729C205.571 108.915 176.481 71.3075 135.084 55.1749Z" fill="#264FAE"/>
<path d="M188.859 98.4473C188.859 98.4473 205.93 126.707 193.804 161.86C181.678 197.012 141.255 204.844 141.255 204.844C141.255 204.844 130.789 215.419 120.322 221.483C120.322 221.483 147.752 225.345 160.997 217.333C174.206 209.32 194.381 189.831 194.381 189.831L203.079 167.274L205.534 149.77C205.534 149.77 201.96 123.458 199.651 117.684C197.233 112.018 188.859 98.4473 188.859 98.4473Z" fill="url(#paint1_linear_242_94345)"/>
<path d="M76.9411 63.4376C76.9411 63.4376 110.975 45.3559 159.229 67.8768C159.229 67.8768 133.93 47.8824 102.674 48.7845C71.4554 49.6869 58.0655 61.7053 56.5137 64.0513C56.5146 64.0513 63.5162 62.6075 76.9411 63.4376Z" fill="url(#paint2_linear_242_94345)"/>
<path d="M193.37 212.46C217.515 178.282 213.473 131.688 186.946 95.4523C206.363 124.289 208.493 160.669 189.436 187.701C163.739 223.972 109.494 229.711 68.242 200.513C26.99 171.316 14.3218 118.298 39.9465 81.9903C65.2102 46.2599 118.156 40.1244 159.228 67.8425C158.578 67.3731 157.965 66.9401 157.351 66.471C106.066 30.2353 39.0802 36.8039 7.67998 81.124C-23.7203 125.444 -7.51337 190.805 43.7361 227.077C74.1971 248.623 110.216 255.047 141.038 247.396C162.043 242.235 180.666 230.434 193.37 212.46Z" fill="#264FAE"/>
</g>
<path d="M146.202 68.063C117.113 57.9214 97.7322 73.44 97.7322 73.44C100.224 73.1507 102.731 73.0061 105.239 73.0068C137.577 73.0068 163.815 96.6462 163.815 125.809C163.815 154.972 137.397 181.678 105.239 178.574C100.629 178.12 96.0728 177.225 91.6328 175.904C102.208 182.797 123.826 193.444 149.884 187.128V187.308C173.56 176.625 189.837 154.285 189.837 128.444C189.873 101.339 171.864 78.0602 146.202 68.063Z" fill="black"/>
<path d="M179.513 94.8779C179.513 94.8779 190.087 112.418 182.581 134.145C175.075 155.872 150.026 160.817 150.026 160.817C150.026 160.817 143.566 167.349 137.033 171.139C137.033 171.139 153.996 173.521 162.225 168.576C170.418 163.633 182.905 151.54 182.905 151.54L188.319 137.574L189.798 126.746C189.798 126.746 187.597 110.433 186.116 106.86C184.71 103.251 179.513 94.8779 179.513 94.8779Z" fill="url(#paint3_linear_242_94345)"/>
<path d="M110.183 73.1859C110.183 73.1859 131.297 61.9976 161.144 75.9288C161.144 75.9288 145.445 63.5497 126.136 64.127C106.827 64.7044 98.4901 72.1392 97.5156 73.5828C97.5152 73.5469 101.846 72.6806 110.183 73.1859Z" fill="url(#paint4_linear_242_94345)"/>
<path d="M182.326 165.506C197.304 144.356 194.777 115.483 178.32 93.0345C190.338 110.9 191.71 133.421 179.836 150.167C163.919 172.652 130.355 176.225 104.766 158.107C79.177 139.988 71.3814 107.145 87.2617 84.697C102.925 62.5732 135.732 58.7846 161.14 75.9268L159.949 75.0608C128.153 52.5762 86.6841 56.6547 67.2309 84.1197C47.7777 111.585 57.8112 152.079 89.6074 174.563C108.483 187.918 130.788 191.888 149.88 187.16C162.909 183.948 174.422 176.658 182.326 165.506Z" fill="black"/>
</g>
<defs>
<linearGradient id="paint0_linear_242_94345" x1="0.0411383" y1="248.156" x2="270.292" y2="-19.1053" gradientUnits="userSpaceOnUse">
<stop offset="0.379" stop-color="#688ECA"/>
<stop offset="0.563" stop-color="#96AFDA"/>
<stop offset="0.918" stop-color="#E6F8FD"/>
</linearGradient>
<linearGradient id="paint1_linear_242_94345" x1="119.144" y1="161.358" x2="205.826" y2="159.537" gradientUnits="userSpaceOnUse">
<stop offset="0.377" stop-color="#BBF9FD"/>
<stop offset="1" stop-color="#9CE4FB"/>
</linearGradient>
<linearGradient id="paint2_linear_242_94345" x1="56.5146" y1="58.316" x2="159.23" y2="58.316" gradientUnits="userSpaceOnUse">
<stop offset="0.377" stop-color="#BBF9FD"/>
<stop offset="1" stop-color="#AAEFFC"/>
</linearGradient>
<linearGradient id="paint3_linear_242_94345" x1="136.328" y1="133.869" x2="190.003" y2="132.742" gradientUnits="userSpaceOnUse">
<stop offset="0.377" stop-color="#BBF9FD"/>
<stop offset="1" stop-color="#9CE4FB"/>
</linearGradient>
<linearGradient id="paint4_linear_242_94345" x1="97.5152" y1="70.0182" x2="161.144" y2="70.0182" gradientUnits="userSpaceOnUse">
<stop offset="0.377" stop-color="#BBF9FD"/>
<stop offset="1" stop-color="#AAEFFC"/>
</linearGradient>
<clipPath id="clip0_242_94345">
<rect width="227.302" height="227.302" fill="white" transform="translate(11.3672 11.3643)"/>
</clipPath>
</defs>
</svg>
