<svg width="250" height="250" viewBox="0 0 250 250" fill="none" xmlns="http://www.w3.org/2000/svg">
<path d="M66.9655 46.0253H183.271C199.231 46.0253 212.146 58.9403 212.146 74.9003V184.59C212.146 192.5 203.011 196.875 196.851 191.905L190.726 186.97C185.406 182.7 177.706 183.33 173.156 188.44L162.726 200.165C158.281 205.17 150.476 205.135 146.066 200.095L136.476 189.105C130.351 182.07 119.361 182.175 113.376 189.35L105.151 199.185C100.356 204.925 91.5005 204.89 86.7405 199.115L78.3755 188.895C73.0205 182.35 63.1505 181.86 57.1655 187.845L54.1555 190.855C48.1355 196.875 37.8105 192.605 37.8105 184.065L38.0555 74.8303C38.0905 58.9403 51.0405 46.0253 66.9655 46.0253Z" fill="#16ADE0"/>
<path d="M157.898 121.521C167.853 121.521 175.923 113.451 175.923 103.496C175.923 93.5414 167.853 85.4713 157.898 85.4713C147.943 85.4713 139.873 93.5414 139.873 103.496C139.873 113.451 147.943 121.521 157.898 121.521Z" fill="white"/>
<path d="M170.846 98.0709C169.831 99.7509 167.976 100.906 165.876 100.906C162.656 100.906 160.066 98.3159 160.066 95.0959C160.066 93.1009 161.081 91.3159 162.621 90.2659C161.151 89.7409 159.576 89.4609 157.931 89.4609C150.196 89.4609 143.896 95.7259 143.896 103.496C143.896 111.266 150.161 117.531 157.931 117.531C165.701 117.531 171.966 111.266 171.966 103.496C171.931 101.571 171.546 99.7159 170.846 98.0709Z" fill="#16ADE0"/>
<path d="M92.1305 121.521C102.085 121.521 110.155 113.451 110.155 103.496C110.155 93.5414 102.085 85.4713 92.1305 85.4713C82.1755 85.4713 74.1055 93.5414 74.1055 103.496C74.1055 113.451 82.1755 121.521 92.1305 121.521Z" fill="white"/>
<path d="M105.046 98.0709C104.031 99.7509 102.176 100.906 100.076 100.906C96.8557 100.906 94.2657 98.3159 94.2657 95.0959C94.2657 93.1009 95.2807 91.3159 96.8207 90.2659C95.3507 89.7409 93.7757 89.4609 92.1307 89.4609C84.3957 89.4609 78.0957 95.7259 78.0957 103.496C78.0957 111.266 84.3607 117.531 92.1307 117.531C99.9007 117.531 106.166 111.266 106.166 103.496C106.131 101.571 105.746 99.7159 105.046 98.0709Z" fill="#16ADE0"/>
</svg>
