<svg width="250" height="250" viewBox="0 0 250 250" fill="none" xmlns="http://www.w3.org/2000/svg">
<g clip-path="url(#clip0_242_94195)">
<path d="M125 249.998C194.036 249.998 250 194.034 250 124.998C250 55.9624 194.036 -0.00195312 125 -0.00195312C55.9644 -0.00195312 0 55.9624 0 124.998C0 194.034 55.9644 249.998 125 249.998Z" fill="#FF3B81"/>
<path d="M66.0869 172.975V174.077H54.5479V153.241L54.1885 154.397L43.165 151.069L49.3916 130.991L48.626 132.116L39.0635 125.764L51.0166 108.311L49.876 109.218L42.6104 100.389L59.8057 86.6707L57.6182 87.5066L53.4775 76.8972L74.0166 69.1316L71.6104 69.2878L70.8135 57.9597L92.3135 56.4753L90.3682 56.0378L92.9619 44.9675L113.509 49.6394L112.212 48.905L117.97 39.0613L135.884 49.2488L135.181 48.5144L143.618 40.7644L157.571 55.4988L157.274 54.905L167.642 49.9207L176.595 67.9988L176.517 67.491L187.899 65.7097L191.259 86.5925L191.493 85.1082L202.892 86.8816L199.485 108.069L200.321 106.366L210.688 111.35L201.095 130.733L202.501 129.249L210.931 137.007L196.017 152.757L197.821 151.733L203.587 161.577L184.845 172.233L186.728 171.803L189.329 182.874L168.61 187.585L170.212 187.694L169.407 199.03L148.673 197.6L149.728 197.999L145.587 208.608L125.743 201.108L127.001 202.108L119.743 210.936L103.36 197.866L104.173 199.046L94.6104 205.405L82.8916 188.296L83.2432 189.421L72.2119 192.749L66.0869 172.975ZM66.0869 159.475L73.29 157.303L78.8838 175.35L85.1182 171.21L95.7588 186.757L100.517 180.975L115.267 192.741L117.907 185.968L135.688 192.686L136.204 185.35L155.235 186.663L153.517 179.358L172.173 175.116L168.306 168.522L184.954 159.053L179.251 153.819L192.399 139.928L185.384 136.553L193.845 119.475L186.173 118.272L189.188 99.5222L181.845 100.663L178.837 81.9128L172.228 85.0847L163.829 68.1316L158.438 73.0769L145.454 59.3503L141.735 65.6941L125.29 56.3425L123.587 63.5925L105.087 59.3816L105.626 66.9519L86.6338 68.2566L89.4385 75.4675L71.5479 82.2332L76.3682 88.0847L61.3525 100.061L67.6885 104.272L56.876 120.077L64.165 122.28L58.5166 140.491H66.0947L66.0869 159.475ZM122.728 138.186C122.728 135.311 121.712 133.116 119.688 131.593C117.657 130.038 114.024 128.413 108.759 126.725C103.493 125.007 99.3291 123.311 96.2588 121.647C87.8994 117.116 83.7119 111.022 83.7119 103.343C83.7119 99.3503 84.8213 95.7957 87.0479 92.6863C89.3135 89.5378 92.5322 87.0847 96.7119 85.3269C100.931 83.5691 105.657 82.6941 110.884 82.6941C116.149 82.6941 120.837 83.655 124.946 85.5847C129.063 87.4753 132.251 90.1628 134.517 93.6472C136.823 97.1734 138.02 101.309 137.954 105.522H122.774C122.774 102.139 121.712 99.5144 119.587 97.655C117.462 95.7644 114.478 94.8191 110.634 94.8191C106.923 94.8191 104.032 95.6082 101.978 97.2019C100.997 97.903 100.203 98.8335 99.6654 99.9121C99.1275 100.991 98.8618 102.185 98.8916 103.389C98.8916 105.788 100.087 107.803 102.485 109.428C104.907 111.046 108.47 112.569 113.157 113.991C121.798 116.593 128.087 119.827 132.032 123.678C135.985 127.538 137.954 132.343 137.954 138.085C137.954 144.483 135.54 149.499 130.72 153.155C125.892 156.772 119.399 158.585 111.235 158.585C105.914 158.655 100.637 157.601 95.751 155.491C91.1025 153.389 87.54 150.53 85.0791 146.913C82.6494 143.296 81.4307 139.1 81.4307 134.335H96.665C96.665 142.483 101.524 146.561 111.235 146.561C114.845 146.561 117.665 145.835 119.688 144.374C120.669 143.676 121.46 142.745 121.99 141.664C122.521 140.584 122.774 139.389 122.728 138.186ZM169.056 92.8894L154.423 146.421L142.368 145.577L151.485 90.3894L169.056 92.8894ZM156.29 151.999L152.485 170.913L136.454 166.233L140.134 148.093L156.29 151.999Z" fill="white"/>
</g>
<defs>
<clipPath id="clip0_242_94195">
<rect width="250" height="250" rx="125" fill="white"/>
</clipPath>
</defs>
</svg>
