<svg width="250" height="250" viewBox="0 0 250 250" fill="none" xmlns="http://www.w3.org/2000/svg">
<rect width="250" height="250" rx="125" fill="white"/>
<g clip-path="url(#clip0_242_94331)">
<path d="M125.015 238.667C187.782 238.667 238.666 187.783 238.666 125.015C238.666 62.2477 187.782 11.3643 125.015 11.3643C62.2467 11.3643 11.3633 62.2477 11.3633 125.015C11.3633 187.783 62.2467 238.667 125.015 238.667Z" fill="#221B47"/>
<path d="M122.146 131.398H118.562V126.547L103.536 112.338H87.7544L87.748 123.366L95.5752 135.04H101.042V136.842H107.084V138.727H108.936V136.842H114.918V135.061H118.562V133.247H122.146V131.398Z" fill="white"/>
<path d="M67.2499 110.326V108.493H69.0541V101.58H65.417V102.48H63.0498V115.735H67.2499V113.888H69.0541V110.326H67.2499Z" fill="#FED855"/>
<path d="M65.4192 104.889H63.0518V106.712H65.4192V104.889Z" fill="#FEAE34"/>
<path d="M67.2518 108.493H65.4189V110.326H67.2518V108.493Z" fill="#FEAE34"/>
<path d="M69.0571 104.889H67.2529V106.712H69.0571V104.889Z" fill="#FEAE34"/>
<path d="M67.2518 102.471H65.7356V102.48H65.4189V104.888H67.2518V102.492H69.056V101.58H67.2518V102.471Z" fill="#FEAE34"/>
<path d="M67.2498 106.712H65.417V108.493H67.2498V106.712Z" fill="#FEEB95"/>
<path d="M67.2498 110.328H65.417V112.11H67.2498V110.328Z" fill="#FEEB95"/>
<path d="M67.2498 112.109H65.417V113.891H67.2498V112.109Z" fill="#C3925C"/>
<path d="M67.2498 115.735H65.417V118.182H67.2498V115.735Z" fill="#C3925C"/>
<path d="M65.4172 113.89H63.0498V115.737H65.4172V113.89Z" fill="#C3925C"/>
<path d="M65.4172 108.493H63.0498V110.326H65.4172V108.493Z" fill="#FEEB95"/>
<path d="M65.4172 110.328H63.0498V112.11H65.4172V110.328Z" fill="#C3925C"/>
<path d="M69.0581 110.328H67.2539V112.11H69.0581V110.328Z" fill="#C3925C"/>
<path d="M107.098 66.8607H103.433V65.0801H100.713V72.3699H101.05V70.5075H105.236V68.684H107.098V66.8607Z" fill="#FED855"/>
<path d="M123.986 70.4452V68.7253H122.197V66.8809H120.352V68.7253H114.925V70.57H118.531V72.2899H125.798V70.4452H123.986Z" fill="#C3925C"/>
<path d="M148.72 80.1578V78.3418H146.902V81.975H150.644V80.1578H148.72Z" fill="#FED855"/>
<path d="M148.72 80.1582H146.902V81.9754H148.72V80.1582Z" fill="#C3925C"/>
<path d="M152.932 112.148V108.521H150.523V106.678H148.73V102.47H146.86V110.332H143.297V112.148H141.481V110.332H139.051V108.53H137.249V104.885H141.481V106.714H143.463V91.4308H139.097V89.2655H137.232V87.4H135.453V85.578H133.653V81.9991H131.853V80.1336H125.78V78.3984H110.727V75.9258H106.02V83.7604H107.109V81.9398H108.868V83.7948H112.514V81.9398H116.746V83.7948H118.55V85.5539H107.109V87.3475H106.02V101.75L130.563 127.234H137.27V125.403H139.101V127.234H143.305V125.455H145.137V123.623H146.916V119.986H148.748V118.18H146.897V112.148H152.932ZM128.201 91.6208H125.793V89.2123H128.201V91.6208ZM135.444 123.645H131.043V121.815H131.846V115.729H133.631V119.985H135.444V123.645L135.444 123.645ZM135.446 113.961H133.636V112.151H135.446V113.961Z" fill="#FED855"/>
<path d="M112.512 81.9404H110.691V83.761H112.512V81.9404Z" fill="#C3925C"/>
<path d="M114.913 80.1436H112.512V81.9403H114.913V80.1436Z" fill="#C3925C"/>
<path d="M131.852 93.4492H130.006V95.2293H131.852V93.4492Z" fill="#221B47"/>
<path d="M130.042 97.0625H128.195V98.8878H130.042V97.0625Z" fill="#221B47"/>
<path d="M141.481 110.336H139.057V112.146H141.481V110.336Z" fill="#C3925C"/>
<path d="M135.443 115.728H133.641V118.155H135.443V115.728Z" fill="#C3925C"/>
<path d="M148.729 102.489H146.859V104.902H148.729V102.489Z" fill="#C3925C"/>
<path d="M148.729 106.709H146.859V108.522H148.729V106.709Z" fill="#C3925C"/>
<path d="M150.599 108.521H148.729V110.335H150.599V108.521Z" fill="#C3925C"/>
<path d="M148.729 110.337H146.859V112.15H148.729V110.337Z" fill="#C3925C"/>
<path d="M152.931 110.337H150.6V112.15H152.931V110.337Z" fill="#C3925C"/>
<path d="M110.69 87.3467H105.895V88.6227H110.69V87.3467Z" fill="#FEEB95"/>
<path d="M123.962 87.3999H122.241V85.5889H120.356V89.2107H123.962V87.3999Z" fill="#FEEB95"/>
<path d="M143.462 93.4181V91.4286H137.231V87.3992H133.628V85.5996H131.829V83.7826H129.999V82.0007H128.199V80.2012H125.791V89.1989H131.829V92.5187H125.791V91.023H110.691V104.194L125.902 119.707H131.853V115.738H133.64V110.324H135.445V106.712H133.64V104.91H135.456V102.489H135.445V100.675H135.456V102.489H137.273V100.686H139.095V102.489H143.461V98.6968H141.475V97.1995H143.461V95.21H141.475V93.4188H143.461L143.462 93.4181ZM133.639 104.91H131.829V102.489H133.639V104.91ZM137.231 100.672H135.456V98.845H137.231V100.672Z" fill="#FEEB95"/>
<path d="M139.068 113.926H137.254V112.145H135.441V113.958H137.222V115.771H139.032V118.154H137.222V119.999H139.032V121.798H141.486V119.956H139.068V118.189H141.486V115.735H139.068V113.926Z" fill="#FEEB95"/>
<path d="M130.119 106.676V104.909H128.2V100.671H124.075V98.8446H122.202V96.9648H120.42V95.2366H115.039V93.418H112.446V95.2366H111.227V104.909H116.13V110.096H120.974V114.654H126.241V119.707H130.119V118.093H128.18V115.822H130.119V108.555H131.854V106.676H130.119Z" fill="white"/>
<path d="M114.913 81.9394V80.1425H116.743V81.9394H114.913ZM110.69 80.1425H114.913V78.698H110.69V78.3457H107.097V80.1425H106.316V81.9394H110.69V80.1425H110.69ZM139.095 89.2651H137.229V91.4349H139.095V89.2651ZM120.354 89.2119V85.5898H107.11V87.3473H110.69V88.6234H107.11V89.4087H110.715V91.6206H125.79V89.2121H120.354L120.354 89.2119ZM128.198 89.2003H129.998V87.4008H128.198V89.2003ZM129.998 85.6012V83.8016H128.198V85.6012H129.998ZM125.79 83.8016H123.99V85.6012H125.79V83.8016ZM123.99 80.2025V82.0021H125.79V80.2025H123.99ZM125.79 85.6012V87.4008H128.198V85.6012H125.79ZM128.198 93.4197V91.6202H125.79V93.4197H128.198ZM128.198 82.0021H125.79V83.8016H128.198V82.0021ZM131.828 87.4008V85.6012H129.998V87.4008H131.828ZM135.464 102.49V100.635H133.687V98.8447H131.868V97.055H130.033V95.2295H128.198V97.0645H130.033V98.89H131.811V100.68H133.629V102.49H135.464H135.464ZM141.474 93.4199V95.2111H143.46V93.4199H141.474ZM141.474 98.6979H143.46V97.1975H141.474V98.6979ZM141.474 104.911H143.46V102.491H141.474V104.911ZM141.486 113.943H143.333V118.156H141.486V119.957H143.333V121.803H141.486V123.585H139.032V121.802H141.486V120.002H139.032V118.157H137.222V123.585H135.444V115.729H139.032V112.147H133.639V110.337H135.444V106.714H137.254V110.337H139.054V112.147H141.487V113.943L141.486 113.943ZM141.479 115.738H139.068V118.156H141.479V115.738Z" fill="#FEAE34"/>
<path d="M145.019 131.368V133.263H141.488V135.159H146.914V131.368H145.019Z" fill="#FED855"/>
<path d="M163.806 123.586H162.004V125.388H163.806V123.586Z" fill="#FED855"/>
<path d="M163.806 125.387H162.004V127.21H163.806V125.387Z" fill="#C3925C"/>
<path d="M162.004 125.387H160.201V127.21H162.004V125.387Z" fill="#FED855"/>
<path d="M162.004 129.051H160.201V131.488H162.004V129.051Z" fill="#FED855"/>
<path d="M163.806 127.211H162.004V129.049H163.806V127.211Z" fill="#FED855"/>
<path d="M162.004 127.211H160.201V129.049H162.004V127.211Z" fill="#C3925C"/>
<path d="M74.5153 138.729H72.7129V140.531H74.5153V138.729Z" fill="#C3925C"/>
<path d="M72.7106 135.082H70.9082V136.913H72.7106V135.082Z" fill="#FED855"/>
<path d="M74.5153 136.912H72.7129V138.729H74.5153V136.912Z" fill="#FED855"/>
<path d="M72.7106 136.912H70.9082V138.729H72.7106V136.912Z" fill="#C3925C"/>
<path d="M78.7096 144.723H76.9072V146.546H78.7096V144.723Z" fill="#FED855"/>
<path d="M78.7096 146.547H76.9072V148.37H78.7096V146.547Z" fill="#C3925C"/>
<path d="M78.7074 148.364H80.5098V146.541H78.7074V148.364Z" fill="#FED855"/>
<path d="M78.7074 146.54H80.5098V144.717H78.7074V146.54Z" fill="#C3925C"/>
<path d="M78.6862 129.027H76.8838V131.458H78.6862V129.027Z" fill="#C3925C"/>
<path d="M84.1357 135.064V131.458H78.6885V136.905H80.5304V138.693H84.1357V140.507H85.9776V135.064H84.1357Z" fill="#C3925C"/>
<path d="M80.5275 106.882H78.7119V108.527H80.5275V106.882Z" fill="#FED855"/>
<path d="M80.5275 110.343H78.7119V112.158H80.5275V110.343Z" fill="#FED855"/>
<path d="M82.3439 108.526H80.5283V110.342H82.3439V108.526Z" fill="#FED855"/>
<path d="M82.3296 112.158V113.952H80.5293V118.182H82.3301V121.78H85.9417V112.158H82.3296Z" fill="#FED855"/>
<path d="M80.5314 108.527H78.7158V110.343H80.5314V108.527Z" fill="#FEAE34"/>
<path d="M85.9582 110.343V108.527H84.1426V113.952H87.7517V110.343H85.9582Z" fill="#FEAE34"/>
<path d="M93.7528 131.456H91.9306V129.024H87.7983V127.232H85.9761V121.781H82.332V131.456H84.1542H85.9261V133.248H87.7483H90.2114V135.04H92.0038V133.248H93.7528V131.456Z" fill="#FEAE34"/>
<path d="M83.9072 120.165H82.3301V121.783H83.9072V120.165Z" fill="#FEEB95"/>
<path d="M95.5762 131.452V129.025H93.7539V125.403H91.9316V121.781H90.2123V115.736H91.9316V113.952H90.2123V112.339H87.7488V106.882H80.5312V108.527H85.9765V127.232H87.7836V129.025H91.9314V131.456H93.7537V133.275H97.398V131.452H95.5757H95.5762ZM87.749 115.736V113.952H90.1477V115.736H87.749Z" fill="#FEEB95"/>
<path d="M99.2196 135.042V133.275H97.3975V135.097H99.2196V138.696H101.042V135.042H99.2196Z" fill="#FEEB95"/>
<path d="M126.991 137.577H125.799H123.974V140.524H125.799V142.322H128.816V137.577H126.991Z" fill="#FED855"/>
<path d="M97.399 136.881V138.729H99.2212V135.033H97.399V133.249H93.7549V135.097H95.577V136.881H97.399Z" fill="#FED855"/>
<path d="M100.988 142.323H97.3984V144.735H100.988V142.323Z" fill="#FED855"/>
<path d="M103.401 144.735H100.989V146.549H103.401V144.735Z" fill="#FED855"/>
<path d="M116.746 148.332H114.921V146.549H112.515V148.332H110.701V144.735H108.887V146.549H105.262V148.364H110.657V150.187H114.921V153.773H123.974V152.015H116.746V148.332Z" fill="#FED855"/>
<path d="M125.796 144.735H122.146V146.56H123.971V148.347H122.146V150.172H123.971V152.015H125.796V148.375H128.193V146.549H125.796V144.735Z" fill="#FED855"/>
<path d="M100.989 138.696H95.5781V140.486H97.3992V142.322H99.2213V140.486H103.474V138.729V138.696V136.844H100.989V138.696Z" fill="#FEAE34"/>
<path d="M114.917 144.733H110.698V146.548H114.917V144.733Z" fill="#FEAE34"/>
<path d="M123.974 150.16H122.16V152.014H123.974V150.16Z" fill="#FEAE34"/>
<path d="M122.158 144.733V142.321H125.798V140.49H123.998V138.67H122.133V140.49H120.403V138.67H118.539V140.49H118.527H116.784V138.67H114.92V140.534H116.732V142.321H114.92V144.733H116.784V142.321H118.527V144.733H116.784V146.547H114.92V148.361H116.723V150.159H118.527V152.012H120.341V150.159H118.537V148.361H120.341V150.159H122.155V148.344H120.341V146.547H122.158V148.361H123.973V146.547H122.158V145.074V144.733Z" fill="#FEAE34"/>
<path d="M182.578 193.706H192.895V183.389H187.447V177.942H182.388V172.882H177.217V167.711H171.833V162.328H166.732V157.227H161.571V152.065H156.066V146.561H150.893V141.387H145.87V136.365H140.445V130.939H135.558V126.052H130.457V120.952H125.301V115.851H120.469V111.019H115.06V105.61H110.265V89.8281H104.808V74.1677H99.5026V58.3408H57.4746V100.369H73.3019V105.675H88.9624V111.131H104.744V115.926H110.153V121.335H114.985V126.167H120.141V131.269H125.242V136.369H130.129V141.256H135.554V146.681H140.576V151.704H145.75V156.878H151.255V162.382H156.416V167.543H161.517V172.645H166.9V178.028H172.072V183.199H177.131V188.259H182.578V193.706L182.578 193.706Z" fill="#7774F9"/>
<path d="M94.3844 105.494V95.1824H88.8682V95.2488V100.055H78.8021V95.2488H67.7937H62.9728V89.7744H57.3555V100.369H73.1873V105.674H88.8432V111.131H104.625V115.926H110.033V121.334H114.866V126.167H120.022V131.268H125.123V136.369H130.01V141.255H135.435V146.681H140.457V151.704H145.631V156.877H151.135V162.381H156.297V167.543H161.398V172.644H166.895V178.028H172.067V183.199H177.126V188.258H182.574V193.705H192.89L104.625 105.494H94.3844Z" fill="#3835C1"/>
<path d="M99.452 79.5125H94.3845V63.7764H63.0918V95.2487H78.8023V100.055H88.9872V89.785H99.452V79.5125Z" fill="#7C79F7"/>
<path d="M88.9875 74.0713H73.4678V89.7854H88.9875V74.0713Z" fill="#9695F8"/>
<path d="M94.3845 63.7764H63.0918V95.2487H67.9127V74.0709H73.4672V68.9236H94.3845V63.7764Z" fill="#C6C6FF"/>
<path d="M83.4987 79.5146H78.8027V84.3932H83.4987V79.5146Z" fill="#C6C6FF"/>
<path d="M94.384 84.3018H83.5898V95.2495H88.987V89.7862H94.384V84.3018Z" fill="#C6C6FF"/>
<path d="M94.3833 89.7861H88.9863V95.1831H94.3833V89.7861Z" fill="#615EE8"/>
<path d="M104.728 95.1826H94.3848V105.526H104.728V95.1826Z" fill="#615EE8"/>
<path d="M194.102 194.913H181.371V189.465H175.924V184.406H170.865V179.235H165.693V173.851H160.31V168.75H155.209V163.589H150.048V158.084H144.543V152.911H139.369V147.888H134.347V142.463H128.922V137.576H124.035V132.475H118.934V127.374H113.778V122.542H108.946V117.133H103.537V112.338H87.7553V106.881H72.0949V101.576H56.2676V57.1338H100.71V72.9606H106.015V88.6211H111.473V104.403H116.267V109.812H121.676V114.644H126.508V119.745H131.664V124.845H136.765V129.732H141.652V135.158H147.077V140.18H152.1V145.354H157.274V150.858H162.778V156.02H167.939V161.121H173.041V166.504H178.424V171.675H183.595V176.735H188.655V182.182H194.102V194.913L194.102 194.913ZM182.578 193.706H192.895V183.389H187.447V177.942H182.388V172.883H177.217V167.711H171.833V162.328H166.732V157.227H161.571V152.066H156.066V146.561H150.893V141.387H145.87V136.365H140.445V130.94H135.558V126.053H130.457V120.952H125.301V115.851H120.469V111.019H115.06V105.61H110.265V89.8283H104.808V74.1678H99.5028V58.341H57.4748V100.369H73.3021V105.675H88.9625V111.132H104.744V115.926H110.153V121.335H114.985V126.167H120.141V131.269H125.242V136.369H130.129V141.256H135.554V146.682H140.577V151.705H145.75V156.878H151.255V162.382H156.416V167.543H161.517V172.645H166.9V178.028H172.072V183.199H177.131V188.259H182.579V193.706L182.578 193.706Z" fill="#C6C6FF"/>
<path d="M110.183 105.526V110.98H104.729V105.526H110.183ZM110.183 110.98V115.834H115.037V110.98H110.183ZM115.037 115.834V121.215H120.418V115.834H115.037ZM120.418 121.215V126.069H125.272V121.215H120.418ZM125.272 126.069V130.914H130.118V126.069H125.272ZM130.118 130.914V136.295H135.498V130.914H130.118ZM135.498 136.295V141.109H140.312V136.295H135.498ZM140.312 141.109V146.565H145.769V141.109H140.312ZM145.769 146.565V152.022H151.225V146.565H145.769ZM151.225 152.022V156.892H156.095V152.022H151.225ZM156.095 156.892V162.249H161.452V156.892H156.095ZM161.452 167.606H166.809V162.249H161.452V167.606ZM166.854 167.651V172.479H171.682V167.651H166.854ZM171.682 172.479V177.919H177.122V172.479H171.682ZM177.122 183.359H182.562V177.919H177.122V183.359ZM182.61 183.407V188.153H187.356V183.407H182.61ZM187.356 188.153V193.727H192.93V188.153H187.356Z" fill="#615EE8"/>
</g>
<defs>
<clipPath id="clip0_242_94331">
<rect width="227.302" height="227.302" fill="white" transform="translate(11.3633 11.3643)"/>
</clipPath>
</defs>
</svg>
