<svg width="250" height="250" viewBox="0 0 250 250" fill="none" xmlns="http://www.w3.org/2000/svg">
<g clip-path="url(#clip0_242_94196)">
<path d="M124.998 249.999C194.034 249.999 249.998 194.035 249.998 124.999C249.998 55.9635 194.034 -0.000854492 124.998 -0.000854492C55.9624 -0.000854492 -0.00195312 55.9635 -0.00195312 124.999C-0.00195312 194.035 55.9624 249.999 124.998 249.999Z" fill="#00B098"/>
<path d="M46.873 96.8043V94.0231H112.631V96.8043H46.873ZM46.873 88.7184V85.9371H112.631V88.7184H46.873ZM74.6074 171.843V102.367H77.248V171.843H74.6074ZM82.2637 171.843V102.367H84.8965V171.843H82.2637ZM201.264 166.156L171.592 134.804L173.451 132.843L203.123 164.187L201.264 166.156ZM129.053 85.9371L158.725 117.289L156.865 119.25L127.193 87.9059L129.053 85.9371ZM195.85 171.875L166.178 140.523L168.037 138.554L197.709 169.906L195.85 171.875ZM123.646 91.6559L153.318 123L151.451 124.968L121.779 93.6246L123.646 91.6559ZM165.998 128.906L167.865 126.937L201.264 91.6559L203.123 93.6246L169.725 128.906L167.865 130.875L164.318 134.625L162.451 136.593L129.061 171.875L127.201 169.906L160.6 134.625L162.459 132.656L165.998 128.906ZM162.451 121.218L195.857 85.9371L197.717 87.9059L164.318 123.187L162.459 125.156L158.912 128.906L157.045 130.875L123.654 166.156L121.787 164.187L155.186 128.906L157.045 126.937L160.6 123.187L162.451 121.218Z" fill="white"/>
</g>
<defs>
<clipPath id="clip0_242_94196">
<rect width="250" height="250" rx="125" fill="white"/>
</clipPath>
</defs>
</svg>
