<svg width="250" height="250" viewBox="0 0 250 250" fill="none" xmlns="http://www.w3.org/2000/svg">
<rect width="250" height="250" rx="125" fill="#0E0E35"/>
<path d="M219.873 76.5536V171.609C219.873 202.809 201.355 219.876 171.607 219.876H78.1397C51.5613 219.876 33.3358 205.56 30.3194 179.524C30.0232 176.996 29.877 174.36 29.877 171.613V78.1426C29.8731 48.3477 49.1413 29.876 76.0236 29.876H172.665C188.085 29.876 200.697 35.4317 208.985 44.985C214.952 51.8489 218.688 60.7828 219.635 71.2018C219.792 72.9524 219.873 74.7338 219.873 76.5575V76.5536Z" fill="url(#paint0_linear_242_93841)"/>
<path d="M84.6688 125.17L30.3155 179.523C30.0193 176.996 29.873 174.36 29.873 171.613V144.831L58.3675 116.336C63.1884 111.515 71.0064 111.511 75.8312 116.325C75.835 116.329 75.8427 116.336 75.8427 116.336L84.6727 125.166L84.6688 125.17Z" fill="url(#paint1_linear_242_93841)"/>
<path d="M219.634 71.2001L134.043 156.168C128.957 161.212 120.762 161.2 115.695 156.141L75.8385 116.339C75.8385 116.339 75.8346 116.335 75.8269 116.327C75.6576 116.104 72.8182 112.595 67.374 112.595H102.898C106.387 112.595 109.719 113.98 112.189 116.447L124.852 129.109L208.984 44.9834C214.952 51.8473 218.688 60.7812 219.634 71.2001Z" fill="white"/>
<defs>
<linearGradient id="paint0_linear_242_93841" x1="42.8545" y1="207.168" x2="207.084" y2="42.9382" gradientUnits="userSpaceOnUse">
<stop stop-color="#0F2FCA"/>
<stop offset="1" stop-color="#099CFA"/>
</linearGradient>
<linearGradient id="paint1_linear_242_93841" x1="21.5317" y1="170.74" x2="75.8851" y2="116.386" gradientUnits="userSpaceOnUse">
<stop stop-color="#F2F1FF"/>
<stop offset="1" stop-color="#1963DE"/>
</linearGradient>
</defs>
</svg>
