<svg width="250" height="250" viewBox="0 0 250 250" fill="none" xmlns="http://www.w3.org/2000/svg">
<path d="M172.243 140.707C172.698 141.512 177.948 151.207 172.943 169.652C172.348 169.512 171.788 169.337 171.228 169.127H171.193C169.478 168.532 167.903 167.552 166.573 166.292C166.573 166.292 167.063 177.737 159.748 187.327C159.713 187.397 159.643 187.467 159.608 187.537L159.573 187.502C157.718 185.612 156.318 183.302 155.478 180.782C155.478 180.782 151.523 189.812 140.463 198.457C139.518 199.227 138.538 199.927 137.558 200.627C131.958 204.547 128.843 207.137 127.093 208.852C126.988 208.957 126.883 209.097 126.778 209.202C126.673 209.307 126.568 209.412 126.463 209.517C125.098 210.987 124.993 211.652 124.993 211.827C124.993 211.652 124.853 210.987 123.488 209.517C123.383 209.412 123.278 209.307 123.173 209.202C123.068 209.097 122.963 208.992 122.858 208.852C121.108 207.137 117.993 204.547 112.393 200.627C111.413 199.927 110.433 199.227 109.488 198.457C107.493 196.917 105.603 195.237 103.783 193.452C96.6084 186.347 94.5084 180.992 94.4384 180.817C93.5984 183.337 92.1984 185.647 90.3434 187.537L90.3084 187.572C90.2384 187.502 90.2034 187.432 90.1684 187.362C82.8534 177.772 83.3434 166.292 83.3434 166.292C82.0484 167.552 80.4734 168.532 78.7584 169.127H78.7234C78.1634 169.372 77.6034 169.547 77.0084 169.652C72.0384 151.242 77.2534 141.512 77.7084 140.707C77.7084 140.707 77.7434 140.672 77.7434 140.637C77.7084 140.602 77.7084 140.602 77.6734 140.567C76.3084 139.587 55.3434 123.557 69.0634 82.047C69.0634 82.047 73.0534 83.027 75.3634 86.492C75.3634 86.492 75.1534 74.172 91.1484 57.897C93.9834 60.172 95.8384 63.427 96.3984 66.997C96.3984 66.997 101.228 59.6469 110.888 53.487C121.283 46.872 124.993 42.392 124.993 37.877C124.993 37.877 148.163 51.667 153.553 67.032C154.393 61.152 158.803 57.932 158.803 57.932C174.798 74.2069 174.588 86.5269 174.588 86.5269C176.898 83.0619 180.888 82.082 180.888 82.082C194.608 123.592 173.643 139.587 172.278 140.602C172.243 140.602 172.243 140.637 172.208 140.672C172.208 140.637 172.208 140.672 172.243 140.707ZM124.993 107.492C83.7284 83.4119 74.4884 129.192 108.718 130.907C108.718 130.907 104.518 133.532 99.8284 134.022C101.438 134.827 103.258 135.037 105.008 134.687C91.3934 149.072 96.6784 178.892 124.993 178.892C153.273 178.892 158.558 149.072 144.978 134.652C146.728 135.037 148.548 134.792 150.158 134.022C145.468 133.532 141.268 130.907 141.268 130.907C175.498 129.227 166.258 83.447 124.993 107.492ZM142.283 117.187C142.283 119.952 140.848 122.157 139.063 122.157C137.278 122.157 135.843 119.917 135.843 117.187C135.843 114.457 137.278 112.217 139.063 112.217C140.848 112.217 142.283 114.457 142.283 117.187ZM110.923 112.217C112.708 112.217 114.143 114.457 114.143 117.187C114.143 119.952 112.708 122.157 110.923 122.157C109.138 122.157 107.703 119.917 107.703 117.187C107.703 114.457 109.138 112.217 110.923 112.217ZM130.453 136.752C127.373 135.772 126.743 140.882 126.743 140.882C132.868 141.547 133.183 137.627 130.453 136.752ZM123.208 140.882C123.208 140.882 122.648 135.807 119.533 136.752C116.803 137.627 117.118 141.547 123.208 140.882ZM124.993 159.817C134.618 159.852 141.723 155.057 141.268 154.287C140.918 153.412 133.813 155.827 124.993 155.757C116.173 155.827 109.033 153.412 108.683 154.287C108.263 154.987 115.333 159.817 124.993 159.817Z" fill="#6200EA"/>
</svg>
