<svg width="250" height="250" viewBox="0 0 250 250" fill="none" xmlns="http://www.w3.org/2000/svg">
<path d="M125.001 181.662C98.436 181.662 76.876 160.102 76.876 133.537C76.876 107.707 120.451 62.102 122.306 60.177L124.581 57.762L126.926 60.107C128.851 62.032 173.161 107.637 173.161 133.467C173.126 160.102 151.566 181.662 125.001 181.662ZM124.616 67.072C120.801 71.202 112.786 80.127 104.841 90.627C90.736 109.247 83.281 124.052 83.281 133.467C83.281 156.462 102.006 175.187 125.001 175.187C147.996 175.187 166.721 156.462 166.721 133.467C166.721 124.052 159.126 109.247 144.776 90.627C136.726 80.232 128.501 71.202 124.616 67.072Z" fill="url(#paint0_linear_242_93843)"/>
<path d="M125.001 197.102C89.9314 197.102 61.4414 168.577 61.4414 133.542C61.4414 99.2765 109.286 51.4315 111.316 49.4715C112.541 48.2465 114.641 48.2465 115.866 49.4715C117.091 50.6965 117.091 52.7965 115.866 54.0215C115.376 54.5115 67.9164 101.972 67.9164 133.542C67.9164 165.042 93.5714 190.697 125.071 190.697C156.571 190.697 182.226 165.042 182.226 133.542C182.226 120.592 173.826 102.707 157.936 81.7065C145.721 65.6065 133.471 53.4265 133.331 53.2865C132.036 52.0615 132.036 50.0315 133.331 48.7365C134.556 47.4415 136.586 47.4415 137.881 48.7365C139.981 50.7665 188.666 99.2065 188.666 133.542C188.561 168.542 160.071 197.102 125.001 197.102Z" fill="url(#paint1_linear_242_93843)"/>
<path d="M125.001 212.499C82.3364 212.499 47.6514 177.779 47.6514 135.149C47.6514 117.509 56.5414 95.8092 73.9714 70.7492C86.8514 52.2342 99.4864 39.0392 100.046 38.4792C101.271 37.1842 103.301 37.1842 104.596 38.4092C105.891 39.6342 105.891 41.6642 104.666 42.9592C104.526 43.0992 91.7864 56.3992 79.2214 74.4592C62.7364 98.0842 54.0564 119.049 54.0564 135.149C54.0564 174.244 85.8714 206.094 125.001 206.094C164.131 206.094 195.946 174.279 195.946 135.149C195.946 119.049 187.196 98.1192 170.606 74.4942C157.901 56.4342 145.021 43.1342 144.916 42.9942C143.691 41.6992 143.691 39.6692 144.986 38.4442C146.281 37.2192 148.311 37.2192 149.536 38.5142C151.706 40.7192 202.351 93.3592 202.351 135.149C202.351 177.779 167.666 212.499 125.001 212.499Z" fill="url(#paint2_linear_242_93843)"/>
<defs>
<linearGradient id="paint0_linear_242_93843" x1="125.002" y1="181.679" x2="125.002" y2="57.7784" gradientUnits="userSpaceOnUse">
<stop stop-color="#05AAC5"/>
<stop offset="1" stop-color="#71E0EC"/>
</linearGradient>
<linearGradient id="paint1_linear_242_93843" x1="125.064" y1="197.094" x2="125.064" y2="47.7507" gradientUnits="userSpaceOnUse">
<stop stop-color="#05AAC5"/>
<stop offset="1" stop-color="#71E0EC"/>
</linearGradient>
<linearGradient id="paint2_linear_242_93843" x1="125.002" y1="212.502" x2="125.002" y2="37.508" gradientUnits="userSpaceOnUse">
<stop stop-color="#05AAC5"/>
<stop offset="1" stop-color="#71E0EC"/>
</linearGradient>
</defs>
</svg>
