<svg width="250" height="250" viewBox="0 0 250 250" fill="none" xmlns="http://www.w3.org/2000/svg">
<path d="M90.6738 191.412L119.61 155.866C122.661 152.307 128.254 152.307 131.304 155.866L160.241 191.412C162.274 193.955 162.274 198.022 160.241 201.073L131.304 236.619C128.254 240.178 122.661 240.178 119.61 236.619L90.6738 201.073C88.64 198.022 88.64 193.955 90.6738 191.412Z" fill="#72C7FB"/>
<path d="M204.475 104.557L175.539 69.0109C172.488 65.4517 166.895 65.4517 163.844 69.0109L134.908 104.557C132.874 107.099 132.874 111.167 134.908 114.218L163.844 149.764C166.895 153.323 172.488 153.323 175.539 149.764L204.475 114.218C206.509 111.675 206.509 107.608 204.475 104.557ZM86.6043 68.9647C83.5535 65.4055 77.9605 65.4055 74.9097 68.9647L45.9736 104.557C43.9398 107.099 43.9398 111.167 45.9736 114.218L74.9097 149.764C77.9605 153.323 83.5535 153.323 86.6043 149.764L115.54 114.218C117.574 111.675 117.574 107.608 115.54 104.557L86.6043 68.9647ZM160.285 48.6725L131.303 13.0802C128.252 9.52096 122.659 9.52096 119.608 13.0802L90.672 48.6262C88.6381 51.1685 88.6381 55.2362 90.672 58.287L119.608 93.8331C122.659 97.3923 128.252 97.3923 131.303 93.8331L160.239 58.287C162.319 55.7909 162.319 51.7232 160.285 48.6725Z" fill="#1BA5F8"/>
</svg>
