<svg width="250" height="250" viewBox="0 0 250 250" fill="none" xmlns="http://www.w3.org/2000/svg">
<g clip-path="url(#clip0_242_94201)">
<path d="M125 -0.000976562C55.9637 -0.000976562 0 55.964 0 124.999C0 194.034 55.9637 249.999 125 249.999C194.036 249.999 250 194.033 250 124.999C250 55.9653 194.038 -0.000976562 125 -0.000976562ZM175.5 74.2728C175.373 75.3611 175.207 76.4444 175 77.5228C174.773 78.7294 174.495 79.9257 174.169 81.1115C173.863 82.2601 173.458 83.3798 172.957 84.4578C172.549 85.3673 172.01 86.2121 171.356 86.9653C170.768 87.6203 170.148 87.944 169.481 87.944C168.448 87.944 167.161 87.5365 165.621 86.7215C164.081 85.9065 162.188 85.0207 159.943 84.064C157.378 83.0063 154.748 82.1178 152.068 81.404C149.049 80.5882 145.63 80.1794 141.809 80.1778C137.84 80.1778 134.478 80.6694 131.723 81.6528C128.967 82.6361 126.706 83.9332 124.94 85.544C123.174 87.144 121.868 88.9565 121.026 90.949C120.204 92.8603 119.777 94.9183 119.771 96.999C119.771 99.3607 120.431 101.444 121.751 103.249C123.071 105.054 124.837 106.726 127.049 108.265C129.457 109.933 131.98 111.429 134.599 112.742C137.485 114.216 140.354 115.724 143.205 117.265C146.142 118.862 149.006 120.582 151.799 122.427C154.586 124.26 157.126 126.445 159.356 128.927C161.588 131.426 163.378 134.287 164.649 137.387C165.97 140.565 166.631 144.22 166.633 148.353C166.633 154.519 165.236 160.242 162.444 165.519C159.651 170.797 155.7 175.389 150.59 179.297C145.482 183.195 139.308 186.259 132.069 188.49C130.004 189.116 127.913 189.646 125.798 190.08L124.664 205.919C124.575 207.531 123.849 209.042 122.646 210.118C121.443 211.195 119.862 211.749 118.25 211.659H118.241C114.886 211.468 112.32 208.593 112.51 205.238L113.477 191.669C111.644 191.782 109.811 191.841 107.978 191.848C106.518 191.848 105.162 191.755 103.771 191.692L102.75 205.923C102.66 207.534 101.934 209.043 100.732 210.119C99.5291 211.194 97.9484 211.748 96.3375 211.658H96.3288C92.9726 211.467 90.406 208.593 90.595 205.237L91.6687 190.198C88.8913 189.637 86.2775 189.022 83.99 188.3C80.8683 187.316 78.2404 186.284 76.1062 185.204C73.9737 184.123 72.395 183.079 71.3675 182.107C70.34 181.134 69.8225 179.647 69.8225 177.674C69.8467 176.883 69.9206 176.094 70.0437 175.312C70.1888 174.263 70.3913 173.129 70.6475 171.923C70.9038 170.717 71.2162 169.459 71.5863 168.182C71.9223 166.98 72.3657 165.812 72.9112 164.69C73.3453 163.755 73.9212 162.893 74.6188 162.134C75.2438 161.48 75.9225 161.147 76.66 161.147C77.91 161.147 79.3983 161.656 81.125 162.675C82.8517 163.694 85.0004 164.808 87.5713 166.015C90.1429 167.231 93.1942 168.362 96.725 169.409C100.256 170.456 104.482 170.982 109.404 170.989C113.737 170.989 117.542 170.497 120.817 169.514C124.093 168.531 126.831 167.186 129.03 165.48C131.236 163.774 132.908 161.789 134.045 159.525C135.182 157.262 135.754 154.786 135.759 152.098C135.759 149.674 135.096 147.543 133.77 145.705C132.444 143.868 130.698 142.174 128.531 140.624C126.188 138.975 123.719 137.512 121.147 136.249C118.308 134.826 115.497 133.348 112.715 131.815C109.831 130.232 107.019 128.528 104.28 126.703C101.545 124.886 99.0608 122.718 96.89 120.255C94.6787 117.734 92.9084 114.859 91.6537 111.749C90.3321 108.539 89.6708 104.803 89.67 100.54C89.67 94.6369 90.9921 89.1915 93.6362 84.204C96.2804 79.2165 99.9558 74.9374 104.663 71.3665C108.368 68.5515 112.663 66.2415 117.513 64.4003L118.86 45.5578C118.983 43.3863 120.254 41.4451 122.196 40.4655C124.138 39.4859 126.455 39.6167 128.274 40.8087C130.094 42.0006 131.139 44.0725 131.016 46.244L129.954 61.0878C133.19 60.557 136.456 60.2317 139.734 60.114L140.77 45.5578C140.996 42.2309 143.857 39.7051 147.186 39.892C150.515 40.0789 153.075 42.909 152.928 46.2403L151.905 60.5553C152.471 60.6203 153.064 60.6565 153.619 60.7378C156.668 61.1776 159.688 61.8038 162.661 62.6128C165.379 63.3703 167.694 64.2074 169.606 65.124C171.519 66.0407 172.842 66.8124 173.576 67.439C174.311 68.064 174.845 68.714 175.176 69.399C175.508 70.084 175.676 70.9628 175.676 72.0103C175.676 72.5428 175.616 73.294 175.508 74.2778L175.5 74.2728Z" fill="#01AEF0"/>
</g>
<defs>
<clipPath id="clip0_242_94201">
<rect width="250" height="250" rx="125" fill="white"/>
</clipPath>
</defs>
</svg>
