<svg width="250" height="250" viewBox="0 0 250 250" fill="none" xmlns="http://www.w3.org/2000/svg">
<rect width="250" height="250" rx="125" fill="white"/>
<g clip-path="url(#clip0_242_94320)">
<path d="M125.016 11.3662C62.2489 11.3662 11.3652 62.2495 11.3652 125.017C11.3652 187.785 62.2489 238.669 125.016 238.669C187.784 238.669 238.668 187.784 238.668 125.017C238.668 62.2506 187.784 11.3662 125.016 11.3662ZM125.016 229.577C67.2703 229.577 20.4573 182.763 20.4573 125.017C20.4573 67.2715 67.2703 20.4583 125.016 20.4583C182.763 20.4583 229.576 67.2703 229.576 125.017C229.576 182.765 182.763 229.577 125.016 229.577ZM200.191 104.356V134.254H191.092V109.972L187.193 108.002L179.978 104.361L179.986 104.356L125.448 76.8521L70.9119 104.356L125.448 131.862L158.895 114.993L168.987 120.085H168.994V120.09V161.687L125.448 183.649L81.9024 161.687V140.409V134.254H91.0016V156.086L125.448 173.458L159.896 156.085V124.68L125.448 142.053L50.7063 104.356L125.448 66.6612L200.191 104.356Z" fill="#0E2585"/>
</g>
<defs>
<clipPath id="clip0_242_94320">
<rect width="227.302" height="227.302" fill="white" transform="translate(11.3652 11.3662)"/>
</clipPath>
</defs>
</svg>
