<svg width="250" height="250" viewBox="0 0 250 250" fill="none" xmlns="http://www.w3.org/2000/svg">
<path d="M125.251 248.001C193.154 248.001 248.201 192.955 248.201 125.051C248.201 57.1479 193.154 2.10132 125.251 2.10132C57.3474 2.10132 2.30078 57.1479 2.30078 125.051C2.30078 192.955 57.3474 248.001 125.251 248.001Z" fill="#171FC9"/>
<path d="M123.501 58.3505L114.051 65.6505C99.1005 76.3005 97.5505 93.1005 104.401 108.401L125.301 158.701C129.101 168.501 129.451 179.001 125.901 189.451L125.851 189.651C125.201 191.101 126.551 192.151 127.901 191.101L138.851 181.701C149.351 173.151 153.001 158.751 147.951 146.201L124.601 88.4005C121.851 80.3005 121.801 72.2505 124.151 64.3505L125.751 59.9005C126.201 58.6505 124.601 57.5005 123.501 58.3505Z" fill="white"/>
<path d="M168.4 72.4021L160.95 78.1521C149.1 86.5521 147.9 99.8521 153.35 112.002L169.85 151.802C172.85 159.552 173.15 167.852 170.3 176.152L170.25 176.352C169.7 177.502 170.8 178.352 171.9 177.502L180.55 170.102C188.85 163.352 191.75 151.952 187.75 142.052L169.3 96.3021C167.15 89.9021 167.1 83.5521 168.95 77.3021L170.2 73.8021C170.5 72.6021 169.25 71.7021 168.4 72.4021Z" fill="white"/>
<path d="M79.3513 72.4021L71.9013 78.1521C60.0513 86.5521 58.8513 99.8521 64.3013 112.002L80.8013 151.802C83.8013 159.552 84.1013 167.852 81.2513 176.152L81.2013 176.352C80.6513 177.502 81.7513 178.352 82.8513 177.502L91.5013 170.102C99.8013 163.352 102.701 151.952 98.7013 142.052L80.2513 96.3021C78.1013 89.9021 78.0513 83.5521 79.9013 77.3021L81.1513 73.8021C81.5013 72.6021 80.2513 71.7021 79.3513 72.4021Z" fill="white"/>
</svg>
