<svg width="250" height="250" viewBox="0 0 250 250" fill="none" xmlns="http://www.w3.org/2000/svg">
<rect width="250" height="250" rx="125" fill="black"/>
<path d="M145.808 27.5659L151.418 40.7409C162.468 66.6234 183.081 87.1934 208.921 98.2434L222.096 103.853C225.538 105.341 228.343 107.423 230.511 109.931C223.966 62.9259 186.778 25.6959 139.731 19.1509C142.238 21.3184 144.321 24.1234 145.808 27.5659ZM27.5732 103.853L40.7482 98.2434C66.6307 87.1934 87.2007 66.5809 98.2507 40.7409L103.861 27.5659C105.221 24.3359 107.303 21.4459 109.938 19.1509C62.9332 25.6959 25.7032 62.9259 19.1582 109.973C21.3257 107.466 24.1307 105.341 27.5732 103.853ZM222.138 145.801L208.963 151.411C183.081 162.461 162.511 183.073 151.461 208.913L145.851 222.088C144.491 225.318 142.408 228.208 139.773 230.503C186.821 223.958 224.008 186.728 230.596 139.681C228.386 142.188 225.581 144.313 222.138 145.801ZM103.861 222.088L98.2507 208.913C87.2007 183.031 66.5882 162.461 40.7482 151.411L27.5732 145.801C24.3432 144.441 21.4532 142.358 19.1582 139.723C25.7032 186.771 62.9332 224.001 109.981 230.546C107.303 228.208 105.221 225.318 103.861 222.088Z" fill="#999999"/>
<path d="M76.915 114.522L83.4175 111.76C96.1675 106.32 106.325 96.1623 111.765 83.4123L114.527 76.9098C118.395 67.8148 131.315 67.8148 135.183 76.9098L137.945 83.4123C143.385 96.1623 153.543 106.32 166.293 111.76L172.795 114.522C181.89 118.39 181.89 131.31 172.795 135.177L166.293 137.94C153.543 143.38 143.385 153.537 137.945 166.287L135.183 172.79C131.315 181.885 118.395 181.885 114.527 172.79L111.765 166.287C106.325 153.537 96.1675 143.38 83.4175 137.94L76.915 135.177C67.82 131.267 67.82 118.39 76.915 114.522Z" fill="white"/>
</svg>
