<svg width="250" height="250" viewBox="0 0 250 250" fill="none" xmlns="http://www.w3.org/2000/svg">
<g clip-path="url(#clip0_242_94806)">
<path d="M124.998 0.00195312C194.029 0.00195312 249.998 55.9707 249.998 125.002C249.998 194.033 194.029 250.002 124.998 250.002C55.9668 250.002 -0.00195312 194.054 -0.00195312 125.002C-0.00195312 55.9499 55.9564 0.00195312 124.998 0.00195312Z" fill="white"/>
<path d="M166.501 96.6374C164.923 95.7289 163.134 95.2507 161.313 95.2507C159.492 95.2507 157.704 95.7289 156.126 96.6374L132.324 110.825L116.147 120.065L92.334 134.252C90.7562 135.161 88.9673 135.639 87.1465 135.639C85.3258 135.639 83.5369 135.161 81.959 134.252L63.0215 123.148C61.4691 122.221 60.1782 120.914 59.2706 119.351C58.363 117.787 57.8686 116.018 57.834 114.21V92.3249C57.8022 90.5025 58.2685 88.706 59.1826 87.1291C60.0968 85.5522 61.4242 84.2549 63.0215 83.377L81.6674 72.5853C83.2453 71.6768 85.0341 71.1986 86.8549 71.1986C88.6756 71.1986 90.4645 71.6768 92.0424 72.5853L110.657 83.377C112.21 84.3053 113.501 85.6139 114.409 87.1794C115.317 88.7449 115.811 90.5157 115.844 92.3249V106.502L132.022 96.9499V82.7624C132.052 80.9418 131.584 79.1474 130.67 77.5725C129.756 75.9977 128.43 74.702 126.834 73.8249L92.334 53.4708C90.7562 52.5622 88.9673 52.084 87.1465 52.084C85.3258 52.084 83.5369 52.5622 81.959 53.4708L46.8549 73.8249C45.2591 74.702 43.9328 75.9977 43.0187 77.5725C42.1046 79.1474 41.6374 80.9418 41.6674 82.7624V123.773C41.6374 125.594 42.1046 127.388 43.0187 128.963C43.9328 130.538 45.2591 131.833 46.8549 132.71L81.959 153.054C83.5369 153.963 85.3258 154.441 87.1465 154.441C88.9673 154.441 90.7562 153.963 92.334 153.054L116.136 139.179L132.324 129.627L156.126 115.752C157.703 114.842 159.492 114.364 161.313 114.364C163.134 114.364 164.923 114.842 166.501 115.752L185.115 126.544C186.67 127.469 187.963 128.775 188.872 130.339C189.782 131.903 190.278 133.673 190.313 135.481V157.377C190.343 159.198 189.876 160.992 188.962 162.567C188.048 164.142 186.721 165.437 185.126 166.314L166.501 177.419C164.923 178.327 163.134 178.805 161.313 178.805C159.492 178.805 157.704 178.327 156.126 177.419L137.511 166.627C135.957 165.699 134.665 164.391 133.758 162.825C132.85 161.26 132.356 159.489 132.324 157.679V143.502L116.147 153.054V167.242C116.115 169.062 116.582 170.857 117.496 172.432C118.411 174.007 119.737 175.303 121.334 176.179L156.438 196.533C158.015 197.44 159.802 197.917 161.62 197.917C163.439 197.917 165.226 197.44 166.803 196.533L201.907 176.179C203.459 175.252 204.749 173.945 205.657 172.381C206.564 170.818 207.059 169.049 207.094 167.242V126.231C207.123 124.411 206.656 122.617 205.742 121.042C204.828 119.468 203.502 118.172 201.907 117.294L166.501 96.6374Z" fill="url(#paint0_linear_242_94806)"/>
</g>
<defs>
<linearGradient id="paint0_linear_242_94806" x1="207.094" y1="52.0749" x2="30.6882" y2="182.804" gradientUnits="userSpaceOnUse">
<stop stop-color="#00A3FF"/>
<stop offset="1" stop-color="#3ADCFF"/>
</linearGradient>
<clipPath id="clip0_242_94806">
<rect width="250" height="250" fill="white"/>
</clipPath>
</defs>
</svg>
