<svg width="250" height="250" viewBox="0 0 250 250" fill="none" xmlns="http://www.w3.org/2000/svg">
<path fill-rule="evenodd" clip-rule="evenodd" d="M154.811 166.496C157.821 165.831 160.621 165.796 163.281 166.356C165.941 166.916 168.356 168.071 170.526 169.716L212.456 202.196H155.056L129.856 173.006L154.811 166.496ZM82.9211 47.9507L133.321 107.591C137.136 112.841 139.061 118.651 139.061 125.056C139.061 131.461 137.136 137.271 133.321 142.521L82.9211 202.161H37.2461L92.6511 136.781C95.5561 133.456 97.0261 129.536 97.0261 125.056C97.0261 120.576 95.5561 116.656 92.6511 113.331L37.2461 47.9507H82.9211ZM212.456 47.7057L170.526 80.1507C168.356 81.8307 165.941 82.9507 163.281 83.5107C160.621 84.1057 157.786 84.0357 154.811 83.3707L129.856 76.8957L155.056 47.7057H212.456Z" fill="#FA2E53"/>
</svg>
