<svg width="250" height="250" viewBox="0 0 250 250" fill="none" xmlns="http://www.w3.org/2000/svg">
<path d="M94.4951 243.764C82.1521 241.168 70.8651 236.001 60.1786 229.464C39.0066 216.515 23.3316 198.591 12.7636 176.223C6.88657 163.783 3.37857 150.651 1.95757 136.922C0.404072 121.914 2.07907 107.293 5.59757 92.6728C12.6076 63.5463 29.8376 41.6963 53.4511 24.3648C69.3826 12.6718 87.4271 5.78435 106.903 2.83535C119.959 0.858346 133.061 1.04285 146.07 3.60285C146.246 3.63735 146.378 3.88985 146.529 4.04085C146.312 5.30135 145.374 6.13785 144.683 7.10535C130.345 27.1648 115.99 47.2123 101.64 67.2638C89.9821 83.5538 78.3286 99.8473 66.6686 116.136C59.8821 125.616 53.0771 135.083 46.3126 144.579C45.7126 145.421 44.6931 146.124 44.9946 147.785C67.3751 147.785 89.7911 147.785 112.629 147.785C110.679 155.761 109.356 163.407 107.977 171.015C106.485 179.246 104.94 187.491 103.489 195.738C100.668 211.778 97.5121 227.759 94.4951 243.764Z" fill="#6B38DD"/>
<path d="M155.149 5.5658C184.119 13.0678 207.339 29.0748 224.791 53.2778C241.668 76.6838 249.3 103.075 247.748 131.787C246.41 156.548 237.922 179.013 222.848 198.776C202.654 225.254 175.859 240.97 143.106 246.376C129.843 248.566 116.481 248.583 103.245 245.634C103.482 245.147 103.654 244.614 103.965 244.178C122.587 218.048 141.073 191.819 159.932 165.861C166.626 156.646 172.993 147.212 179.671 137.993C187.479 127.215 195.35 116.481 203.17 105.711C203.781 104.869 204.768 104.156 204.492 102.571C182.379 102.571 160.24 102.571 138.259 102.571C137.282 100.997 137.856 99.6973 138.082 98.4483C140.613 84.4238 143.166 70.4028 145.745 56.3868C148.863 39.4438 152.013 22.5063 155.149 5.5658Z" fill="#6B38DD"/>
<path d="M155.149 5.56537C152.013 22.5059 148.863 39.4434 145.745 56.3869C143.165 70.4029 140.613 84.4234 138.081 98.4484C137.856 99.6974 137.281 100.997 138.258 102.571C160.24 102.571 182.378 102.571 204.492 102.571C204.768 104.156 203.781 104.869 203.169 105.711C195.349 116.481 187.478 127.214 179.671 137.993C172.993 147.212 166.626 156.646 159.931 165.861C141.072 191.819 122.586 218.048 103.964 244.178C103.654 244.613 103.482 245.147 103.245 245.634C100.329 245.011 97.413 244.389 94.496 243.766C97.512 227.76 100.667 211.779 103.489 195.739C104.94 187.491 106.485 179.247 107.977 171.016C109.356 163.408 110.679 155.762 112.629 147.786C89.791 147.786 67.375 147.786 44.995 147.786C44.6935 146.125 45.713 145.422 46.313 144.58C53.0775 135.084 59.8825 125.617 66.669 116.137C78.329 99.8484 89.9825 83.5549 101.64 67.2649C115.99 47.2134 130.345 27.1659 144.683 7.10637C145.375 6.13887 146.313 5.30287 146.53 4.04187C149.551 3.71187 152.305 4.89337 155.149 5.56537Z" fill="#FDFCFD"/>
</svg>
