<svg width="250" height="250" viewBox="0 0 250 250" fill="none" xmlns="http://www.w3.org/2000/svg">
<g clip-path="url(#clip0_242_94203)">
<path d="M124.998 249.999C194.034 249.999 249.998 194.035 249.998 124.999C249.998 55.9635 194.034 -0.000915527 124.998 -0.000915527C55.9624 -0.000915527 -0.00195312 55.9635 -0.00195312 124.999C-0.00195312 194.035 55.9624 249.999 124.998 249.999Z" fill="#2DC4E7"/>
<path d="M40.2708 70.592C48.638 70.592 57.2864 70.0295 65.6614 70.7795C69.3802 74.9592 70.2161 80.8186 73.0989 85.6545C110.677 85.842 148.435 85.6545 186.013 85.6545C188.802 85.842 192.24 85.9358 193.638 88.7248C195.31 91.7952 194.107 95.4201 192.521 98.2092C184.896 111.139 177.638 124.256 170.2 137.272C167.411 141.928 165.544 147.131 161.365 150.764C157.927 153.647 153.177 153.826 148.81 153.826H96.7161C93.927 153.826 90.9505 153.553 89.2786 151.319C83.888 145.272 80.9974 137.553 77.4661 130.483C71.3508 118.239 65.3661 105.931 59.513 93.5608C58.302 90.7717 56.8177 88.2639 55.4192 85.6545C50.4974 85.6545 45.5599 85.6545 40.7317 85.467C39.7942 80.5451 39.7942 75.5217 40.263 70.592H40.2708ZM98.9583 163.873C102.743 162.974 106.678 162.91 110.49 163.686C114.763 164.623 118.49 167.873 119.513 172.155C120.622 177.076 120.622 182.389 118.669 187.123C116.81 191.405 112.161 193.451 107.794 193.826C102.771 194.194 97.0052 193.826 93.2786 190.1C89.2864 185.639 89.2864 179.131 90.1224 173.545C90.677 168.897 94.3958 164.897 98.9505 163.873H98.9583ZM145.458 163.873C150.107 162.858 155.13 162.944 159.599 164.615C163.872 166.389 166.107 171.037 166.474 175.405C167.036 180.522 166.474 186.381 162.755 190.287C159.318 193.545 154.294 194.006 149.74 193.912C145.271 193.733 140.443 192.053 138.115 187.873C135.896 183.34 135.303 178.182 136.435 173.264C137.372 168.709 140.904 164.905 145.458 163.873Z" fill="white"/>
</g>
<defs>
<clipPath id="clip0_242_94203">
<rect width="250" height="250" rx="125" fill="white"/>
</clipPath>
</defs>
</svg>
