<svg width="250" height="250" viewBox="0 0 250 250" fill="none" xmlns="http://www.w3.org/2000/svg">
<path d="M107.024 199.989C103.769 199.989 96.9793 199.429 93.4093 198.204C92.9893 198.064 92.7793 197.539 93.0243 197.154L103.839 179.129C104.084 178.709 104.539 178.464 104.994 178.429C105.344 178.394 105.344 178.394 107.024 178.394C131.139 178.394 150.704 158.864 150.704 134.749C150.704 126.069 149.759 119.804 145.804 113.924C145.454 113.399 145.489 112.734 145.804 112.244L157.354 94.7086C157.634 94.2886 158.264 94.2536 158.579 94.6386C168.869 107.169 172.264 121.519 172.264 134.784C172.264 170.729 143.004 199.989 107.024 199.989Z" fill="url(#paint0_radial_242_93857)"/>
<path d="M172.368 71.1175L150.878 85.3975C150.493 85.6425 150.003 85.6075 149.653 85.3275C137.823 75.1075 122.738 69.5075 107.058 69.5075C71.0783 69.5075 41.8183 98.7675 41.8183 134.748C41.8183 139.473 42.3433 144.163 43.3583 148.748C44.6183 154.418 44.9333 160.228 44.0933 165.968L38.2483 206.358C38.1433 207.128 39.0883 207.618 39.6483 207.058L172.368 71.1175ZM107.023 91.0675C115.353 91.0675 123.403 93.4125 130.333 97.8225C130.753 98.1025 130.753 98.6975 130.333 98.9775L65.1983 142.203C64.6733 142.553 63.9733 142.238 63.8683 141.608C63.5183 139.368 63.3433 137.058 63.3433 134.713C63.3433 110.668 82.9433 91.0675 107.023 91.0675Z" fill="url(#paint1_radial_242_93857)"/>
<path d="M210.624 40.7372C211.149 40.7372 211.569 41.1222 211.604 41.6472C211.674 43.3972 211.429 47.4572 208.034 51.5172C203.484 56.9072 198.864 58.9722 198.304 65.7622C197.744 72.5522 196.414 77.5572 195.644 80.3922C195.434 81.1272 195.259 81.7922 195.084 82.3872C194.839 83.2272 193.649 83.2972 193.334 82.4922C191.689 78.6072 188.189 71.0122 184.024 66.3222C179.194 60.8622 171.914 56.2422 168.064 54.0372C167.224 53.5472 167.469 52.3222 168.414 52.1822C171.249 51.7622 175.659 51.2022 179.579 51.0272C185.914 50.7472 189.484 52.0772 192.809 49.3122C196.029 46.6872 200.229 40.6322 210.624 40.7372Z" fill="#FF4299"/>
<defs>
<radialGradient id="paint0_radial_242_93857" cx="0" cy="0" r="1" gradientUnits="userSpaceOnUse" gradientTransform="translate(179.485 64.1029) scale(195.508 195.508)">
<stop stop-color="#FF4299"/>
<stop offset="0.9426" stop-color="#005EE6"/>
</radialGradient>
<radialGradient id="paint1_radial_242_93857" cx="0" cy="0" r="1" gradientUnits="userSpaceOnUse" gradientTransform="translate(179.484 64.1018) scale(195.508 195.508)">
<stop stop-color="#FF4299"/>
<stop offset="1" stop-color="#005EE6"/>
</radialGradient>
</defs>
</svg>
