<svg width="250" height="250" viewBox="0 0 250 250" fill="none" xmlns="http://www.w3.org/2000/svg">
<path d="M125.002 247.251C192.506 247.251 247.257 192.5 247.257 124.996C247.257 57.4928 192.506 2.74182 125.002 2.74182C57.499 2.74182 2.74805 57.4928 2.74805 124.996C2.74805 192.5 57.499 247.251 125.002 247.251Z" fill="#E53431"/>
<path d="M99.5503 46.0896C99.8665 45.8261 100.288 45.7207 100.71 45.7207C101.131 45.7207 101.553 45.8261 101.869 46.0896L111.46 53.3089C111.987 53.7305 112.303 54.4155 112.197 55.0479C112.092 55.7329 111.67 56.3126 111.038 56.5761C110.406 56.8396 109.668 56.7342 109.141 56.3653L100.71 50.0418L73.2024 70.6459L193.929 161.23C194.403 161.599 194.719 162.179 194.719 162.758C194.719 163.338 194.456 163.918 193.929 164.286L185.076 170.979C184.76 171.242 184.338 171.348 183.917 171.348C183.073 171.348 182.336 170.821 182.072 170.03C181.809 169.24 182.072 168.397 182.757 167.87L189.608 162.758L68.8813 72.2268C68.407 71.8579 68.0909 71.2783 68.0909 70.6986C68.0909 70.1189 68.4071 69.5393 68.8813 69.1704L99.5503 46.0896ZM130.219 46.0896C130.904 45.5626 131.853 45.5626 132.485 46.0896L193.876 92.1458C194.561 92.6201 194.824 93.5159 194.561 94.2536C194.298 95.044 193.56 95.571 192.769 95.571H162.048C161.626 95.571 161.205 95.4129 160.888 95.2021L120.629 65.0075C120.102 64.5859 119.786 63.9009 119.891 63.2685C119.996 62.5835 120.418 62.0038 121.05 61.7403C121.683 61.4768 122.42 61.5822 122.947 61.9511L162.733 91.777H187.025L131.379 50.0419L92.8579 78.9192C92.0148 79.5516 90.8028 79.3935 90.1704 78.5503C89.538 77.7072 89.6961 76.4952 90.5393 75.8628L130.219 46.0896ZM77.3126 85.8223C77.6288 85.5588 78.0503 85.4534 78.4719 85.4534C79.0516 85.4534 79.6312 85.7169 80.0001 86.2438C80.3163 86.6654 80.4217 87.1396 80.369 87.6666C80.3163 88.1936 80.0528 88.6151 79.6313 88.9313L73.2024 93.7267L193.929 184.311C194.403 184.68 194.719 185.259 194.719 185.839C194.719 186.419 194.456 186.998 193.929 187.367L163.207 210.395C162.891 210.659 162.469 210.764 162.048 210.764C161.626 210.764 161.205 210.606 160.888 210.395L152.036 203.756C151.509 203.334 151.192 202.649 151.298 201.964C151.403 201.279 151.825 200.699 152.457 200.436C153.089 200.172 153.827 200.278 154.354 200.647L162.048 206.443L189.555 185.839L68.8286 95.2022C68.3543 94.8333 68.0909 94.2537 68.0909 93.674C68.0909 93.0943 68.3544 92.5147 68.8286 92.1458L77.3126 85.8223ZM69.9879 160.861H100.657C101.079 160.861 101.5 160.967 101.816 161.23L141.654 191.109C142.497 191.741 142.656 192.953 142.023 193.796C141.391 194.639 140.179 194.797 139.336 194.165L100.025 164.655H75.7318L131.379 206.391L169.794 177.566C170.637 176.934 171.849 177.092 172.482 177.935C173.114 178.778 172.956 179.99 172.113 180.622L132.538 210.29C132.222 210.554 131.8 210.659 131.379 210.659C130.957 210.659 130.536 210.554 130.219 210.29L68.8287 164.234C68.1964 163.707 67.9329 162.864 68.1437 162.073C68.4597 161.335 69.1975 160.808 69.9879 160.861Z" fill="white"/>
</svg>
