<svg width="250" height="250" viewBox="0 0 250 250" fill="none" xmlns="http://www.w3.org/2000/svg">
<g clip-path="url(#clip0_242_94206)">
<path d="M125 249.999C194.036 249.999 250 194.035 250 124.999C250 55.9634 194.036 -0.000976562 125 -0.000976562C55.9644 -0.000976562 0 55.9634 0 124.999C0 194.035 55.9644 249.999 125 249.999Z" fill="#2D9CDB"/>
<path d="M141.102 70.9675C167.695 98.8269 174.445 103.749 180.906 105.522C158.445 102.71 145.773 101.116 124.609 90.0066L111.25 105.553L195.312 124.218C169.016 146.577 157.625 158.491 141.102 179.014H109.297C95.3203 158.561 86 151.921 68.0469 143.647C91.9375 145.85 105.219 147.319 124.609 158.803L139.148 142.475L54.6875 124.218C74.3281 108.03 85.7578 97.2332 109.289 70.9675H141.102ZM111.25 67.0847C118.516 58.1394 121.484 53.7878 125.391 46.8738C129.219 53.9988 132.18 58.3972 139.141 67.0847H111.25ZM139.141 182.913C131.867 191.858 128.891 196.21 125 203.124C121.172 195.999 118.203 191.6 111.25 182.913H139.141Z" fill="white"/>
</g>
<defs>
<clipPath id="clip0_242_94206">
<rect width="250" height="250" rx="125" fill="white"/>
</clipPath>
</defs>
</svg>
