<svg width="250" height="250" viewBox="0 0 250 250" fill="none" xmlns="http://www.w3.org/2000/svg">
<rect width="250" height="250" rx="125" fill="white"/>
<g clip-path="url(#clip0_242_94329)">
<path d="M124.889 238.75C187.559 238.75 238.364 187.946 238.364 125.276C238.364 62.6052 187.559 11.8008 124.889 11.8008C62.2185 11.8008 11.4141 62.6052 11.4141 125.276C11.4141 187.946 62.2185 238.75 124.889 238.75Z" fill="url(#paint0_linear_242_94329)"/>
<path d="M124.486 -15.29H120.502V63.7778H124.486V-15.29Z" fill="white"/>
<path d="M112.775 -15.29H108.791V63.7778H112.775V-15.29Z" fill="white"/>
<path d="M139.863 -15.29H135.879V63.7778H139.863V-15.29Z" fill="white"/>
<path d="M96.7939 48.8693L71.1562 1.05117L74.6678 -0.830209L96.5575 39.999V-6.50391H100.542V47.9284L96.7939 48.8693Z" fill="white"/>
<path d="M151.537 47.4072L147.789 46.4666V-7.9707H151.774V38.5372L173.661 -2.29201L177.172 -0.410623L151.537 47.4072Z" fill="white"/>
<path d="M128.547 197.017H124.562V276.084H128.547V197.017Z" fill="white"/>
<path d="M140.262 197.017H136.277V276.084H140.262V197.017Z" fill="white"/>
<path d="M113.174 197.017H109.189V276.084H113.174V197.017Z" fill="white"/>
<path d="M153.236 268.288H149.252V213.856L153 212.915L178.635 260.733L175.124 262.614L153.236 221.785V268.288Z" fill="white"/>
<path d="M100.54 269.017H96.5556V222.514L74.6659 263.343L71.1543 261.462L96.792 213.644L100.54 214.584V269.017Z" fill="white"/>
<path d="M57.9057 130.437H-21.1621V134.416H57.9057V130.437Z" fill="white"/>
<path d="M57.9057 142.149H-21.1621V146.129H57.9057V142.149Z" fill="white"/>
<path d="M57.9057 115.062H-21.1621V119.042H57.9057V115.062Z" fill="white"/>
<path d="M-6.64945 184.143L-8.53083 180.636L32.2959 158.744H-14.207V154.765H40.2278L41.1684 158.508L-6.64945 184.143Z" fill="white"/>
<path d="M45.3528 108.97H-9.08203V104.991H37.4209L-3.40583 83.0984L-1.52445 79.5918L46.2936 105.227L45.3528 108.97Z" fill="white"/>
<path d="M270.212 126.375H191.146V130.354H270.212V126.375Z" fill="white"/>
<path d="M270.21 114.658H191.145V118.638H270.21V114.658Z" fill="white"/>
<path d="M270.212 141.748H191.146V145.727H270.212V141.748Z" fill="white"/>
<path d="M260.586 106.045H206.154L205.213 102.302L253.028 76.667L254.91 80.1738L214.083 102.066H260.586V106.045Z" fill="white"/>
<path d="M255.958 183.409L208.143 157.773L209.083 154.03H263.516V158.01H217.013L257.84 179.902L255.958 183.409Z" fill="white"/>
<path d="M77.4426 177.531L21.5352 233.438L24.3524 236.256L80.2599 180.348L77.4426 177.531Z" fill="white"/>
<path d="M85.7284 185.812L29.8184 241.722L32.6356 244.539L88.5456 188.629L85.7284 185.812Z" fill="white"/>
<path d="M66.5689 166.659L10.6602 222.567L13.4774 225.385L69.3861 169.476L66.5689 166.659Z" fill="white"/>
<path d="M72.7298 261.244L68.9177 260.092L82.3093 215.746L49.4266 248.626L46.6094 245.809L85.0992 207.319L88.4139 209.304L72.7298 261.244Z" fill="white"/>
<path d="M9.72036 209.649L6.90317 206.832L39.7859 173.952L-4.56242 187.343L-5.71484 183.531L46.2254 167.845L48.2102 171.159L9.72036 209.649Z" fill="white"/>
<path d="M224.698 24.5336L168.789 80.4424L171.606 83.2596L227.515 27.3508L224.698 24.5336Z" fill="white"/>
<path d="M216.417 16.2504L160.508 72.1592L163.325 74.9764L219.234 19.0676L216.417 16.2504Z" fill="white"/>
<path d="M235.571 35.4047L179.662 91.3135L182.479 94.1307L238.388 38.2219L235.571 35.4047Z" fill="white"/>
<path d="M165.662 55.179L162.348 53.1942L178.029 1.25879L181.841 2.41121L168.452 46.757L201.335 13.872L204.152 16.6892L165.662 55.179Z" fill="white"/>
<path d="M202.34 91.7283L200.355 88.4137L238.845 49.9189L241.662 52.7361L208.78 85.6211L253.126 72.2298L254.278 76.0417L202.34 91.7283Z" fill="white"/>
<path d="M174.474 174.656L171.656 177.474L227.564 233.383L230.381 230.566L174.474 174.656Z" fill="white"/>
<path d="M182.759 166.379L179.941 169.196L235.849 225.102L238.666 222.284L182.759 166.379Z" fill="white"/>
<path d="M163.602 185.53L160.785 188.348L216.693 244.257L219.51 241.44L163.602 185.53Z" fill="white"/>
<path d="M240.306 209.653L201.816 171.163L203.801 167.849L255.739 183.53L254.587 187.342L210.241 173.956L243.123 206.836L240.306 209.653Z" fill="white"/>
<path d="M178.754 260.512L163.07 208.577L166.385 206.592L204.877 245.082L202.06 247.899L169.175 215.014L182.566 259.36L178.754 260.512Z" fill="white"/>
<path d="M21.4754 27.4064L18.6582 30.2236L74.5683 86.1337L77.3855 83.3165L21.4754 27.4064Z" fill="white"/>
<path d="M13.1942 35.6877L10.377 38.5049L66.287 94.4149L69.1042 91.5977L13.1942 35.6877Z" fill="white"/>
<path d="M32.3504 16.5353L29.5332 19.3525L85.4433 75.2626L88.2605 72.4454L32.3504 16.5353Z" fill="white"/>
<path d="M49.8855 95.3854L-2.05469 79.6988L-0.902264 75.8869L43.446 89.2782L10.5633 56.3982L13.3805 53.5811L51.8703 92.0709L49.8855 95.3854Z" fill="white"/>
<path d="M84.3648 57.3743L45.875 18.8845L48.6922 16.0673L81.5747 48.9473L68.1831 4.60653L71.9952 3.4541L87.6793 55.3895L84.3648 57.3743Z" fill="white"/>
<path d="M124.526 203.118C167.316 203.118 202.005 168.43 202.005 125.639C202.005 82.8487 167.316 48.1602 124.526 48.1602C81.7354 48.1602 47.0469 82.8487 47.0469 125.639C47.0469 168.43 81.7354 203.118 124.526 203.118Z" fill="#F8BA3A"/>
<path d="M124.526 204.826C80.8611 204.826 45.3398 169.301 45.3398 125.64C45.3398 81.979 80.8622 46.4541 124.526 46.4541C168.19 46.4541 203.712 81.979 203.712 125.64C203.712 169.301 168.19 204.826 124.526 204.826ZM124.526 49.872C82.7461 49.872 48.753 83.8604 48.753 125.64C48.753 167.42 82.7461 201.408 124.526 201.408C166.306 201.408 200.299 167.42 200.299 125.64C200.299 83.8604 166.306 49.872 124.526 49.872Z" fill="white"/>
<path fill-rule="evenodd" clip-rule="evenodd" d="M128.919 44.7412L118.67 127.102H128.919L124.893 203.068L199.589 189.696L213.143 85.402L180.222 56.4548L128.919 44.7412Z" fill="white"/>
<path d="M52.8112 115.329C54.5747 129.691 63.9175 144.633 78.2753 142.87C127.005 136.886 120.158 105.572 119.502 95.4302C123.029 124.154 144.844 134.696 181.391 130.207C192.268 128.872 196.725 107.614 195.52 97.8053C194.015 85.5453 161.555 83.753 121.092 88.7211C80.6285 93.6893 50.6069 97.3764 52.8112 115.329Z" fill="#01C1AE"/>
<path d="M76.0309 146.137C69.3919 146.137 63.2111 143 58.3991 137.129C53.8655 131.593 50.696 123.786 49.7036 115.705C47.1206 94.6497 77.9814 90.8622 120.692 85.617C141.897 83.0116 160.061 82.3418 173.233 83.6913C189.167 85.3117 197.708 89.9314 198.629 97.4276C199.336 103.18 198.258 111.533 195.945 118.207C192.825 127.21 187.794 132.578 181.773 133.317C151.86 136.986 131.998 130.741 122.45 114.72C119.865 127.555 110.224 142.098 78.6586 145.974C77.7868 146.082 76.9093 146.136 76.0309 146.137ZM158.313 89.2715C147.768 89.2715 135.3 90.1285 121.475 91.8276C83.8224 96.4523 54.0963 100.101 55.9192 114.946C56.7689 121.881 59.4383 128.52 63.2404 133.159C66.0946 136.641 70.9285 140.601 77.895 139.759C120.049 134.587 117.725 110.051 116.604 98.26C116.514 97.2799 116.429 96.3984 116.38 95.6301C116.328 94.8175 116.594 94.0164 117.122 93.3968C117.65 92.7772 118.399 92.3878 119.21 92.3115C120.019 92.2199 120.832 92.4536 121.469 92.9612C122.106 93.4687 122.515 94.2086 122.607 95.018L122.61 95.0498C125.802 121.05 144.909 131.575 181.01 127.102C184.482 126.679 187.77 122.69 190.03 116.164C192.36 109.436 192.899 102.132 192.414 98.187C191.922 94.1638 184.699 91.1491 172.601 89.9178C168.365 89.4882 163.577 89.2715 158.313 89.2715Z" fill="#01C1AE"/>
<path d="M125.711 174.921C142.688 173.536 155.424 159.829 154.158 144.308L92.6777 149.324C93.9443 164.846 108.734 176.306 125.711 174.921Z" fill="white"/>
<path d="M122.951 176.456C106.449 176.456 92.5189 164.828 91.2606 149.442C91.2299 149.065 91.3499 148.692 91.5941 148.404C91.8383 148.116 92.1869 147.937 92.5632 147.905L154.044 142.886C154.794 142.758 155.514 143.404 155.578 144.187C156.223 152.101 153.47 159.804 147.82 165.882C142.206 171.925 134.395 175.639 125.83 176.338C124.863 176.417 123.903 176.456 122.951 176.456ZM125.598 173.501L125.714 174.919L125.598 173.501C133.454 172.861 140.605 169.467 145.737 163.946C150.493 158.824 152.977 152.446 152.817 145.842L94.2525 150.624C96.2151 164.616 109.976 174.791 125.598 173.501Z" fill="#FE9D51"/>
<path d="M150.512 159.355H133.673C133.371 159.355 133.082 159.236 132.868 159.022C132.655 158.809 132.535 158.519 132.535 158.218C132.535 157.916 132.655 157.627 132.868 157.413C133.082 157.2 133.371 157.08 133.673 157.08H150.512C150.814 157.08 151.103 157.2 151.316 157.413C151.53 157.627 151.649 157.916 151.649 158.218C151.649 158.519 151.53 158.809 151.316 159.022C151.103 159.236 150.814 159.355 150.512 159.355Z" fill="#FE9A54"/>
<path d="M142.826 123.442C129.648 118.464 124.402 105.262 123.426 99.2828C123.426 91.2297 132.577 90.1318 154.906 90.1318C177.235 90.1318 190.778 91.9621 191.876 97.8187C192.975 108.068 189.314 123.442 184.19 126.004C179.065 128.567 159.298 129.665 142.826 123.442Z" fill="black"/>
<path d="M169.709 128.333C161.647 128.333 151.698 127.097 142.724 123.709C129.577 118.74 124.169 105.59 123.145 99.3294C123.14 90.7794 133.312 89.8486 154.907 89.8486C179.976 89.8486 191.116 92.2176 192.158 97.7633C193.251 107.963 189.644 123.596 184.316 126.26C181.904 127.462 176.471 128.333 169.709 128.333ZM142.926 123.177C159.28 129.358 178.855 128.348 184.06 125.748C189.111 123.226 192.642 107.638 191.593 97.8472C190.631 92.7154 179.315 90.4201 154.907 90.4201C143.847 90.4201 135.97 90.6762 130.863 91.9657C125.849 93.2316 123.711 95.4182 123.711 99.2849C124.711 105.387 130.023 118.301 142.927 123.177L142.926 123.177Z" fill="black"/>
<path d="M104.066 130.308C114.64 123.338 120.132 109.899 116.837 98.5515C114.961 92.0886 104.659 93.6736 85.357 96.7213C68.1527 99.4378 54.975 106.97 56.4393 113.559C57.171 124.355 65.4987 135.757 70.3489 137.718C75.199 139.68 90.8475 139.02 104.066 130.308Z" fill="black"/>
<path d="M76.9575 138.932C74.0419 138.932 71.7 138.572 70.2423 137.986C65.2137 135.947 56.8997 124.55 56.1564 113.577C55.8239 112.095 56.2105 110.504 57.3113 108.884C60.9732 103.505 72.2246 98.5064 85.3107 96.4427C104.546 93.4039 115.15 91.7294 117.11 98.4718C120.44 109.942 115.019 123.427 104.224 130.544L104.066 130.308L104.224 130.544C94.7915 136.76 84.1385 138.932 76.9575 138.932ZM107.412 94.3506C102.214 94.3506 94.8728 95.508 85.3993 97.0053C72.4585 99.0492 61.3598 103.95 57.7821 109.205C56.7724 110.687 56.4155 112.13 56.7183 113.495C57.43 123.956 65.5376 135.466 70.4544 137.455C75.4066 139.47 90.8223 138.701 103.908 130.073C114.505 123.089 119.826 109.865 116.563 98.6305C115.654 95.5019 112.601 94.3506 107.412 94.3506Z" fill="black"/>
<path d="M193.438 62.291L199.598 78.9421L216.25 85.1031L199.599 91.263L193.439 107.914L187.278 91.263L170.627 85.1031L187.277 78.9432L193.438 62.291Z" fill="white"/>
</g>
<defs>
<linearGradient id="paint0_linear_242_94329" x1="124.889" y1="11.8008" x2="124.889" y2="238.75" gradientUnits="userSpaceOnUse">
<stop stop-color="#F5B745"/>
<stop offset="1" stop-color="#FC8B47"/>
</linearGradient>
<clipPath id="clip0_242_94329">
<rect width="227.302" height="227.302" fill="white" transform="translate(11.3652 11.3662)"/>
</clipPath>
</defs>
</svg>
