<svg width="250" height="250" viewBox="0 0 250 250" fill="none" xmlns="http://www.w3.org/2000/svg">
<g clip-path="url(#clip0_242_93860)">
<path d="M125.05 249.902C194.058 249.902 250 193.96 250 124.952C250 55.9438 194.058 0.00177002 125.05 0.00177002C56.0416 0.00177002 0.0996094 55.9438 0.0996094 124.952C0.0996094 193.96 56.0416 249.902 125.05 249.902Z" fill="#7B00FF"/>
<path d="M185.75 30.4509C185.9 43.9509 182.35 55.0009 174.8 64.6509C163.75 78.7509 148.55 86.2009 131.75 90.7509C122.15 93.3509 112.3 94.9509 103.65 96.7509C113.55 99.5009 124.65 102.251 135.55 105.701C148.05 109.651 159.4 116.001 169.6 124.301C186.1 137.801 186.25 160.651 170 175.551C160.95 183.851 149.8 187.701 138.3 190.851C121.75 195.351 105.15 199.651 88.6495 204.451C80.2995 206.901 73.5995 212.201 68.1995 219.201C57.9495 199.901 66.4495 177.751 87.3495 168.201C106.5 159.401 126.95 155.751 149.1 152.751C145.55 151.951 143.35 151.451 141.2 150.951C138.95 150.451 136.75 149.901 134.5 149.401C115.65 145.051 97.8495 138.451 82.3995 126.351C64.0495 111.951 63.5995 88.0009 81.4995 72.8509C90.1495 65.5009 100.4 61.6509 111.15 58.8009C127.95 54.4009 144.8 50.2509 161.6 45.7509C170.65 43.3509 179.15 39.5009 185.75 30.4509Z" fill="white"/>
<path d="M137.4 97.2506C153.4 92.1006 167.95 84.4506 179.3 71.4506C183.25 82.2006 177 106.051 169 113.051C158.5 107.751 148.1 102.601 137.4 97.2506Z" fill="white"/>
</g>
<defs>
<clipPath id="clip0_242_93860">
<rect width="250" height="250" rx="125" fill="white"/>
</clipPath>
</defs>
</svg>
