<svg width="250" height="250" viewBox="0 0 250 250" fill="none" xmlns="http://www.w3.org/2000/svg">
<path d="M128.25 41.9232V104.083C128.25 104.083 139.625 109.823 153.24 121.513C167.345 133.588 171.09 141.918 171.09 146.503C171.09 155.218 164.545 166.103 154.29 179.648C142.495 195.188 128.915 208.453 128.915 208.453C128.915 208.453 169.34 180.453 186.77 162.498C204.2 144.543 211.34 132.643 211.34 122.598C211.34 112.553 203.15 98.3082 180.435 78.7432C157.72 59.1782 128.25 41.9232 128.25 41.9232Z" fill="#E5642A"/>
<path d="M121.496 208.418V146.258C121.496 146.258 110.121 140.518 96.5062 128.828C82.4012 116.753 78.6562 108.423 78.6562 103.838C78.6562 95.1231 85.2012 84.2381 95.4562 70.6931C107.251 55.1531 120.831 41.8881 120.831 41.8881C120.831 41.8881 80.4062 69.8881 62.9763 87.8431C45.5463 105.798 38.4062 117.698 38.4062 127.743C38.4062 137.788 46.5613 152.068 69.2763 171.633C91.9913 191.198 121.496 208.418 121.496 208.418Z" fill="#1E3566"/>
</svg>
