<svg width="250" height="250" viewBox="0 0 250 250" fill="none" xmlns="http://www.w3.org/2000/svg">
<rect width="250" height="250" rx="125" fill="white"/>
<g clip-path="url(#clip0_242_94337)">
<path d="M125.015 238.669C187.782 238.669 238.666 187.785 238.666 125.017C238.666 62.2496 187.782 11.3662 125.015 11.3662C62.2467 11.3662 11.3633 62.2496 11.3633 125.017C11.3633 187.785 62.2467 238.669 125.015 238.669Z" fill="#0A0A0A"/>
<path d="M115.771 133.173C113.594 122.973 107.587 113.996 98.9875 108.094C90.3882 102.192 79.8521 99.8135 69.5512 101.45C59.2502 103.086 49.9696 108.612 43.6225 116.888C37.2753 125.165 34.3453 135.561 35.4365 145.934C36.5277 156.306 41.557 165.865 49.4875 172.64C57.418 179.414 67.6454 182.888 78.0613 182.344C88.4772 181.801 98.2877 177.283 105.471 169.72C112.653 162.157 116.661 152.127 116.667 141.697C116.669 138.832 116.368 135.975 115.771 133.173ZM75.7365 162.669C71.7662 162.671 67.8848 161.495 64.5831 159.29C61.2814 157.085 58.7078 153.95 57.1878 150.282C55.6678 146.615 55.2697 142.579 56.0439 138.685C56.8181 134.791 58.7299 131.214 61.5372 128.406C64.3446 125.599 67.9215 123.687 71.8155 122.913C75.7096 122.139 79.7457 122.537 83.4135 124.057C87.0812 125.577 90.2158 128.15 92.4206 131.452C94.6255 134.754 95.8016 138.635 95.8002 142.605C95.8002 147.927 93.6864 153.03 89.9237 156.793C86.161 160.555 81.0577 162.669 75.7365 162.669Z" fill="url(#paint0_linear_242_94337)"/>
<path d="M158.815 104.566L172.298 127.635H180.851V158.422H150.757V134.537H128.207V181.49H203.401V104.566H158.815Z" fill="url(#paint1_linear_242_94337)"/>
<path d="M170.027 127.633L156.544 104.565L126.721 53.543L96.9512 104.751C102.23 107.531 106.835 111.435 110.44 116.189C114.045 120.942 116.563 126.429 117.816 132.262H172.732L170.027 127.633ZM128.209 112.058H115.113L126.813 91.9314L134.197 104.565L138.577 112.058H128.209Z" fill="url(#paint2_linear_242_94337)"/>
</g>
<defs>
<linearGradient id="paint0_linear_242_94337" x1="68.178" y1="101.737" x2="83.7468" y2="181.657" gradientUnits="userSpaceOnUse">
<stop stop-color="#FC0070"/>
<stop offset="0.302" stop-color="#F70070"/>
<stop offset="0.66" stop-color="#E90070"/>
<stop offset="1" stop-color="#D40070"/>
</linearGradient>
<linearGradient id="paint1_linear_242_94337" x1="158.33" y1="104.661" x2="174.397" y2="187.14" gradientUnits="userSpaceOnUse">
<stop stop-color="#FC0070"/>
<stop offset="0.302" stop-color="#F70070"/>
<stop offset="0.66" stop-color="#E90070"/>
<stop offset="1" stop-color="#D40070"/>
</linearGradient>
<linearGradient id="paint2_linear_242_94337" x1="122.352" y1="54.3942" x2="138.809" y2="138.87" gradientUnits="userSpaceOnUse">
<stop stop-color="#FC0070"/>
<stop offset="0.302" stop-color="#F70070"/>
<stop offset="0.66" stop-color="#E90070"/>
<stop offset="1" stop-color="#D40070"/>
</linearGradient>
<clipPath id="clip0_242_94337">
<rect width="227.302" height="227.302" fill="white" transform="translate(11.3633 11.3662)"/>
</clipPath>
</defs>
</svg>
