<svg width="250" height="250" viewBox="0 0 250 250" fill="none" xmlns="http://www.w3.org/2000/svg">
<path d="M172.455 58.9996C128.153 27.1643 80.3132 17.976 65.6033 38.4231C57.1915 50.1565 32.3875 84.6232 23.9756 96.3565C9.30889 116.804 33.2934 159.208 77.5956 191.043C121.898 222.878 169.737 232.11 184.447 211.662C192.859 199.929 217.663 165.462 226.075 153.729C240.785 133.239 216.757 90.8349 172.455 58.9996Z" fill="white"/>
<path d="M223.055 123.967C200.71 117.022 196.698 133.845 188.675 143.896C180.349 154.379 177.114 160.849 166.631 170.512C156.149 180.175 142.992 174.567 137.341 170.512C131.69 166.457 129.145 161.626 117.023 146.873C104.945 132.077 91.7447 144.198 85.576 149.547C79.4074 154.939 70.6505 163.524 64.4818 167.018C61.9367 168.441 59.3484 169.045 57.2347 169.218C29.5404 142.386 16.0815 112.708 27.3404 97.0059C35.364 85.8334 59.0033 52.9627 67.0269 41.7902C81.0466 22.2921 127.98 31.7392 170.255 62.1078C196.785 81.1314 215.938 104.426 223.055 123.967Z" fill="url(#paint0_linear_242_93862)"/>
<path d="M222.063 153.036C214.039 164.209 190.4 197.123 182.376 208.295C168.356 227.793 122.07 218.346 79.8383 187.978C71.599 182.025 64.0068 175.683 57.2773 169.17C59.3911 168.997 61.9362 168.436 64.5244 166.97C70.6931 163.476 79.45 154.891 85.6187 149.499C91.7873 144.107 104.987 132.028 117.066 146.825C129.144 161.621 131.733 166.452 137.384 170.464C143.035 174.519 156.192 180.127 166.674 170.464C177.156 160.801 180.392 154.33 188.717 143.848C196.698 133.797 200.753 116.974 223.098 123.919C227.282 135.523 227.282 145.789 222.063 153.036Z" fill="black"/>
<path d="M177.458 161.707C175.387 161.233 173.23 160.715 171.073 160.068" stroke="white" stroke-width="2.68613" stroke-miterlimit="10" stroke-linecap="round"/>
<path d="M203.17 162.831C197.217 164.039 190.099 163.953 182.162 162.615" stroke="white" stroke-width="2.68613" stroke-miterlimit="10" stroke-linecap="round"/>
<path d="M63.488 64.3487C63.2723 63.0113 63.1429 61.7171 63.0566 60.4229" stroke="white" stroke-width="2.68613" stroke-miterlimit="10" stroke-linecap="round"/>
<path d="M94.3765 113.569C78.847 98.298 68.2352 82.3803 64.5254 68.9646" stroke="white" stroke-width="2.68613" stroke-miterlimit="10" stroke-linecap="round"/>
<path d="M166.457 67.2421C126.383 38.6852 84.2806 29.0656 72.4177 45.7166C60.5549 62.3675 83.3747 99.0342 123.449 127.591C163.524 156.148 205.626 165.768 217.489 149.117C229.395 132.466 206.532 95.799 166.457 67.2421ZM180.995 123.105C175.387 130.956 154.724 125.823 134.795 111.587C114.865 97.395 103.261 79.5362 108.869 71.6852C114.477 63.8342 135.14 68.9676 155.069 83.2029C174.999 97.395 186.603 115.297 180.995 123.105Z" fill="white"/>
<defs>
<linearGradient id="paint0_linear_242_93862" x1="144.581" y1="177.87" x2="91.6843" y2="36.5349" gradientUnits="userSpaceOnUse">
<stop offset="0.244" stop-color="#FC51A1"/>
<stop offset="1" stop-color="#1AB0ED"/>
</linearGradient>
</defs>
</svg>
