<svg width="250" height="250" viewBox="0 0 250 250" fill="none" xmlns="http://www.w3.org/2000/svg">
<path d="M102.05 149.102C96.0498 153.252 87.7498 158.002 80.8998 158.002C70.6498 158.002 61.8998 154.702 55.5998 148.402C49.6498 142.502 46.3498 134.302 46.3498 125.352C46.3498 110.652 56.6998 98.1516 70.8998 94.1016V105.402L110.7 79.3516L70.8998 53.3016V63.4516C39.9998 68.1516 16.2998 94.1016 16.2998 125.352C16.2998 161.052 44.0498 188.002 80.8498 188.002C95.3498 188.002 110.1 182.952 122.2 170.052C131.05 160.652 148.35 122.002 151.9 116.802C152.45 116.052 108.8 144.402 102.05 149.102Z" fill="url(#paint0_linear_242_93864)"/>
<path d="M147.351 101.653C153.351 97.5033 161.651 92.7533 168.501 92.7533C178.751 92.7533 187.501 96.0533 193.801 102.353C199.751 108.253 203.051 116.453 203.051 125.403C203.051 140.103 192.701 152.603 178.501 156.653V145.353L138.701 171.403L178.501 197.503V187.353C209.351 182.653 233.051 156.703 233.051 125.453C233.051 89.7533 205.301 62.8033 168.501 62.8033C154.001 62.8033 139.251 67.8533 127.151 80.7533C118.301 90.1533 101.001 128.803 97.4506 134.003C96.9506 134.753 140.551 106.353 147.351 101.653Z" fill="url(#paint1_linear_242_93864)"/>
<defs>
<linearGradient id="paint0_linear_242_93864" x1="28.4027" y1="104.03" x2="145.266" y2="152.063" gradientUnits="userSpaceOnUse">
<stop offset="0.000838514" stop-color="#0091F6"/>
<stop offset="1" stop-color="#00C6FE"/>
</linearGradient>
<linearGradient id="paint1_linear_242_93864" x1="217.991" y1="165.161" x2="128.858" y2="81.9698" gradientUnits="userSpaceOnUse">
<stop offset="0.000838514" stop-color="#0091F6"/>
<stop offset="1" stop-color="#00C6FE"/>
</linearGradient>
</defs>
</svg>
