<svg width="250" height="250" viewBox="0 0 250 250" fill="none" xmlns="http://www.w3.org/2000/svg">
<g clip-path="url(#clip0_242_94208)">
<path d="M0 -0.0030508H250V249.997H0V-0.0030508Z" fill="#EFD96F"/>
<path d="M177.876 91.4976C149.376 91.4976 125.876 114.373 104.626 133.373C98.5013 127.998 91.6263 121.373 86.3763 115.123C85.8763 114.498 85.1263 114.373 84.7513 114.623C84.2513 114.998 84.1263 115.748 84.6263 116.248C89.5013 122.248 96.0013 129.498 102.126 135.623C90.7513 146.373 73.3763 159.373 59.3763 159.373C31.1263 159.373 31.0013 120.248 55.7513 112.873C56.8763 112.623 56.8763 111.248 55.7513 111.623C23.3763 119.623 25.1263 165.248 60.0013 165.248C76.6263 165.248 91.8763 154.123 107.251 140.998C123.876 155.998 144.876 168.248 171.876 168.248C240.376 168.248 238.376 91.4976 177.876 91.4976ZM171.376 162.373C149.751 162.248 128.751 152.748 110.376 138.373C131.251 120.248 152.376 99.4976 177.251 99.4976C225.751 99.4976 227.001 162.748 171.376 162.373Z" fill="#333333"/>
<path d="M70.5 117.623C76.0228 117.623 80.5 113.145 80.5 107.623C80.5 102.1 76.0228 97.6226 70.5 97.6226C64.9772 97.6226 60.5 102.1 60.5 107.623C60.5 113.145 64.9772 117.623 70.5 117.623Z" fill="#333333"/>
</g>
<defs>
<clipPath id="clip0_242_94208">
<rect width="250" height="250" rx="125" fill="white"/>
</clipPath>
</defs>
</svg>
