<svg width="250" height="250" viewBox="0 0 250 250" fill="none" xmlns="http://www.w3.org/2000/svg">
<path d="M106.682 242.088C108.425 242.91 110.215 243.636 112.054 244.217L112.828 244.459C114.57 244.991 116.361 245.426 118.151 245.717H118.974C122.7 246.298 126.523 246.298 130.298 245.717H131.169C132.959 245.426 134.701 245.039 136.443 244.507L137.411 244.217C139.153 243.684 140.847 243.007 142.541 242.233L143.267 241.894C144.96 241.071 146.557 240.152 148.154 239.184L148.541 238.942C150.187 237.878 151.832 236.716 153.38 235.506L154.3 234.781C155.8 233.522 157.252 232.167 158.607 230.764L159.575 229.796C161.026 228.345 162.43 226.796 163.93 225.151L164.511 224.377C165.817 222.78 167.075 221.134 168.285 219.392L168.721 218.812C154.735 218.037 140.944 215.424 127.636 211.117C125.797 210.537 123.813 210.537 122.023 211.117C108.715 215.473 94.8749 218.086 80.8896 218.908C87.3257 228.78 96.2298 236.813 106.731 242.233L106.682 242.088Z" fill="url(#paint0_linear_242_93868)"/>
<path d="M14.4004 168.437C14.594 170.276 14.8359 172.115 15.223 173.905L15.4166 174.921C15.8521 176.663 16.3361 178.405 16.9652 180.099L17.3039 180.922C18.6589 184.454 20.5945 187.745 22.9173 190.697L23.498 191.374C24.611 192.777 25.8208 194.036 27.1274 195.245L27.9017 195.971C29.2566 197.181 30.7084 198.294 32.2085 199.358L32.886 199.842C34.3862 200.859 35.9347 201.778 37.4832 202.601L38.0639 202.891C39.7576 203.762 41.5481 204.536 43.3386 205.262L44.5484 205.746C46.3389 206.424 48.1778 207.004 50.0651 207.537L51.5168 207.875C53.4525 208.408 55.4366 208.843 57.5174 209.182H58.5336C60.4209 209.521 62.405 209.762 64.389 209.908H65.3569C63.8083 206.907 62.3566 203.714 61.05 200.423C60.2757 198.729 60.6145 196.697 62.0178 195.39C63.3728 194.084 65.4536 193.842 67.099 194.761C67.97 195.197 68.6959 195.971 69.083 196.891C70.2444 199.649 71.4542 202.262 72.7608 204.827C74.5029 208.214 78.0355 210.198 81.81 209.956C89.4075 209.424 97.005 208.311 104.409 206.617C105.377 206.375 106.054 205.601 106.151 204.633C106.248 203.665 105.764 202.746 104.941 202.31C98.5052 199.407 92.1659 196.213 85.9233 192.535C60.2273 178.357 38.1607 158.323 21.5624 134.128L21.3204 134.709C20.3526 136.789 19.4815 138.822 18.7556 140.854V141.29C17.9814 143.37 17.3523 145.596 16.7716 147.532L16.4812 148.548C15.9489 150.532 15.5134 152.516 15.223 154.5V155.517C14.9327 157.501 14.7391 159.485 14.6423 161.469V161.904C14.5456 163.791 14.5456 165.679 14.6423 167.517C14.4488 167.808 14.4488 168.05 14.4488 168.437H14.4004Z" fill="url(#paint1_linear_242_93868)"/>
<path d="M125.36 49.299H124.779C112.778 53.509 101.164 58.8803 90.131 65.2195C65.1609 79.0593 43.8202 98.6575 27.9477 122.417C26.9315 124.014 26.9315 126.095 27.9477 127.692C33.8515 137.128 40.8199 145.838 48.7077 153.726C47.498 144.242 46.8689 134.66 46.8689 125.079V117.046C46.8689 116.03 47.3044 115.062 47.9819 114.336C49.2401 113.03 51.1273 112.642 52.7727 113.32C54.418 113.997 55.4826 115.643 55.4342 117.385V125.127C55.4342 136.886 56.402 148.597 58.4345 160.162C58.7732 162.098 59.8378 163.888 61.338 165.146C70.3872 172.599 80.0172 179.325 90.1794 185.132C113.843 199.31 140.458 207.875 167.945 210.198C171.671 210.343 175.155 208.262 176.849 204.924C180.333 197.81 183.237 190.455 185.511 182.906C185.801 182.035 185.463 181.067 184.688 180.535C183.914 180.002 182.898 180.051 182.172 180.631C176.268 184.938 170.171 189.003 163.832 192.681C161.896 193.794 159.912 194.858 157.879 195.874C156.912 196.407 155.75 196.504 154.686 196.213C153.04 195.681 151.927 194.229 151.734 192.487C151.54 190.793 152.411 189.148 153.911 188.326C155.799 187.309 157.734 186.245 159.573 185.132C169.832 179.228 179.559 172.405 188.657 164.808C190.011 163.695 190.883 162.146 191.27 160.501C193.254 148.79 194.173 136.935 194.125 125.079V115.643C194.125 113.997 194.996 112.546 196.448 111.771C197.899 110.997 199.593 111.142 200.948 112.062C201.867 112.836 202.448 113.949 202.497 115.159C202.497 118.353 202.738 121.546 202.738 124.837C203.271 154.21 196.883 183.293 184.204 209.763H185.172C187.156 209.569 189.14 209.327 191.028 209.037H192.044C194.125 208.698 196.109 208.214 198.093 207.682L199.496 207.343C201.384 206.811 203.271 206.23 205.061 205.504L206.271 205.02C208.11 204.294 209.852 203.52 211.546 202.649L212.078 202.359C213.675 201.488 215.224 200.568 216.724 199.552L217.401 199.117C218.901 198.052 220.353 196.939 221.756 195.681L222.531 194.955C223.837 193.745 225.047 192.439 226.16 191.035L226.741 190.358C229.112 187.406 230.999 184.116 232.354 180.583L232.693 179.76C233.322 178.067 233.854 176.373 234.241 174.583L234.435 173.615C234.822 171.873 235.113 170.131 235.258 168.34V167.614C235.354 165.727 235.354 163.84 235.258 162.001V161.565C235.209 159.485 235.064 157.404 234.774 155.371V154.355C234.435 152.371 234.048 150.436 233.516 148.403L233.128 147.435C232.548 145.403 231.919 143.322 231.144 141.241V140.709C230.419 138.677 229.547 136.644 228.58 134.612L228.338 134.031C225.434 138.531 222.289 142.887 218.95 147.048C218.03 148.113 216.579 148.5 215.272 148.064C213.965 147.629 213.046 146.419 212.949 145.016V142.112C212.901 141.29 213.143 140.467 213.675 139.79C220.45 130.934 220.256 118.594 213.191 109.981C198.238 91.7376 180.043 76.4945 159.525 64.9776C154.056 61.8805 148.637 59.0255 143.168 56.3156C146.798 55.0091 150.814 53.7025 155.266 52.5411C158.17 54.0412 161.073 55.6381 163.928 57.2834C172.155 62.0257 180.091 67.3003 187.592 73.0588C184.93 62.9935 181.204 53.2186 176.51 43.9276C175.107 41.1693 172.252 39.4272 169.155 39.5724C154.298 40.5402 139.587 43.5405 125.554 48.5731L125.36 49.2506V49.299ZM90.1794 88.0115L104.455 92.899C105.036 93.141 105.52 93.6249 105.665 94.2539C105.81 94.883 105.665 95.5121 105.181 95.996L95.8413 105.335C95.4057 105.771 94.7282 105.964 94.0991 105.868C93.4701 105.723 92.9861 105.287 92.7442 104.658L87.7598 90.3827C87.5179 89.7052 87.6631 88.8826 88.1954 88.3987C88.7277 87.8664 89.5503 87.7212 90.2278 88.0115H90.1794ZM74.0166 126.821C73.3875 126.531 73.0004 125.853 73.0004 125.176C73.0004 124.498 73.4359 123.821 74.0166 123.53L87.5179 116.901C88.0986 116.61 88.7761 116.659 89.3084 116.998C89.8407 117.336 90.1794 117.917 90.1794 118.546V131.805C90.1794 132.434 89.8407 133.015 89.3084 133.354C88.7761 133.692 88.0986 133.741 87.5179 133.45L74.0166 126.869V126.821ZM104.358 157.404L90.1794 162.243C89.5019 162.436 88.7761 162.243 88.2921 161.759C87.8082 161.275 87.6147 160.549 87.8566 159.872L92.7442 145.597C92.9378 145.016 93.4701 144.532 94.0991 144.387C94.7282 144.242 95.4057 144.435 95.8413 144.919L105.181 154.258C105.616 154.742 105.81 155.371 105.616 156.049C105.423 156.678 104.939 157.162 104.31 157.355L104.358 157.404ZM133.2 162.485L126.57 175.986C126.231 176.615 125.602 177.002 124.925 177.002C124.247 177.002 123.57 176.615 123.231 175.986L116.601 162.485C116.311 161.904 116.359 161.227 116.698 160.694C117.037 160.162 117.618 159.823 118.247 159.823H131.506C132.135 159.823 132.716 160.162 133.054 160.694C133.393 161.227 133.393 161.904 133.151 162.485H133.2ZM159.67 162.485L145.394 157.597C144.814 157.404 144.33 156.872 144.185 156.242C144.039 155.613 144.185 154.936 144.668 154.5L154.008 145.161C154.444 144.725 155.121 144.532 155.75 144.629C156.379 144.774 156.863 145.209 157.105 145.838L161.944 159.775C162.283 160.452 162.138 161.323 161.606 161.904C161.025 162.485 160.202 162.63 159.476 162.291L159.621 162.485H159.67ZM175.736 123.676C176.365 124.014 176.752 124.643 176.752 125.321C176.752 125.998 176.365 126.676 175.736 127.014L162.235 133.644C161.654 133.934 160.976 133.886 160.444 133.547C159.912 133.208 159.573 132.628 159.573 131.999V118.498C159.573 117.869 159.912 117.288 160.444 116.949C160.976 116.61 161.654 116.562 162.235 116.852L175.736 123.676ZM145.394 93.0926L159.525 88.0115C160.202 87.818 160.928 88.0115 161.412 88.4471C161.896 88.9794 162.089 89.6568 161.848 90.3343L156.96 104.61C156.766 105.19 156.234 105.674 155.605 105.819C154.976 105.964 154.298 105.771 153.863 105.287L144.523 95.9476C144.088 95.4637 143.943 94.8346 144.088 94.2056C144.281 93.5765 144.717 93.0926 145.346 92.899V93.0926H145.394ZM150.863 125.079C150.863 139.402 139.2 151.065 124.876 151.065C110.552 151.065 98.8415 139.402 98.8415 125.079C98.8415 110.755 110.504 99.0446 124.876 99.0446C139.249 99.0446 150.863 110.707 150.863 125.079ZM126.522 74.317L133.151 87.818C133.442 88.3987 133.393 89.0761 133.054 89.6084C132.716 90.1407 132.135 90.4795 131.506 90.4795H118.247C117.618 90.4795 117.037 90.1407 116.698 89.6084C116.359 89.0761 116.359 88.3987 116.601 87.818L123.231 74.317C123.57 73.6879 124.199 73.3008 124.876 73.3008C125.554 73.3008 126.183 73.6879 126.522 74.317Z" fill="url(#paint2_linear_242_93868)"/>
<path d="M14.8382 94.7378V95.754C15.1769 97.738 15.5641 99.6737 16.0964 101.706L16.3867 102.722C16.919 104.803 17.5965 107.029 18.3708 108.965V109.4C19.1451 111.433 20.0161 113.465 20.9355 115.546L21.1775 116.127C29.5493 103.545 39.6631 92.1731 51.1804 82.3498C54.0355 67.6874 58.8746 53.5089 65.5043 40.1531C51.6643 40.6854 38.4533 45.7664 27.7588 54.5251L27.2265 55.009C25.8715 56.3156 24.6133 57.6705 23.4035 59.0739L22.9196 59.6545C20.5484 62.6064 18.6611 65.8969 17.3062 69.4295L16.9674 70.2521C16.3383 71.9458 15.806 73.6395 15.4189 75.4299L15.2253 76.3977C14.8382 78.1398 14.5478 79.8819 14.4027 81.6723V82.3498C14.3059 84.237 14.3059 86.1243 14.4027 88.0115V88.447C14.4027 90.5278 14.5962 92.6086 14.8382 94.6894V94.7378Z" fill="url(#paint3_linear_242_93868)"/>
<path d="M85.8773 57.5253C92.1198 53.9444 98.4108 50.7023 104.847 47.8472C105.621 47.3149 106.057 46.4439 105.96 45.5245C105.863 44.605 105.234 43.8308 104.315 43.5404C100.685 42.7662 97.1526 42.0887 93.62 41.508C92.1682 41.2177 90.9584 40.2015 90.4261 38.8465C89.8938 37.4916 90.0874 35.9431 90.91 34.7333C91.8779 33.4268 93.4264 32.7493 95.0233 32.9913C104.315 34.3946 113.461 36.5722 122.413 39.4756C123.962 39.9595 125.704 39.9595 127.252 39.4756C140.705 35.0721 154.642 32.4106 168.821 31.6363L168.579 31.2976C167.272 29.4103 165.869 27.5715 164.465 25.8778L164.078 25.3455C162.627 23.6519 161.223 22.055 159.723 20.5548L158.9 19.7322C157.449 18.2805 155.948 16.9255 154.594 15.6674L153.771 14.9899C152.174 13.635 150.48 12.3768 148.738 11.1671H148.448C146.851 10.0541 145.206 9.03786 143.512 8.11844L142.834 7.7797C141.189 7.00545 139.447 6.32798 137.753 5.79568L136.737 5.50534C134.995 4.97304 133.253 4.58591 131.511 4.29557H130.64C127.252 3.81166 123.816 3.81166 120.429 4.29557H119.219C117.913 4.29557 116.654 4.73109 115.348 5.02143H114.67C113.219 5.40856 111.767 5.89246 110.364 6.47315L109.347 6.90867C108.137 7.39258 106.976 7.92487 105.815 8.50556L104.895 8.94108C103.492 9.71533 102.04 10.538 100.588 11.409L99.9109 11.8445C98.7495 12.6672 97.5397 13.5382 96.3783 14.4576L95.5556 15.0867C92.7973 17.4578 90.1842 20.0709 87.7646 22.8292L87.1839 23.5067C84.5707 26.5069 82.1028 29.7491 79.9251 33.088L79.6348 33.5236C71.7953 45.8148 65.9883 59.219 62.3105 73.3007C69.908 67.5422 77.8443 62.316 86.1193 57.5737L85.8773 57.5253Z" fill="url(#paint4_linear_242_93868)"/>
<path d="M199.844 83.4628C210.684 93.0442 220.168 103.98 228.153 116.078C230.234 111.675 231.879 107.077 233.186 102.432V101.803C233.718 99.6737 234.154 97.5929 234.541 95.5605V94.8346C234.879 92.7538 235.073 90.7214 235.17 88.6406C235.267 86.6566 235.267 84.721 235.17 82.7369V82.1563C235.025 80.3174 234.734 78.4786 234.347 76.6397V75.6719C233.912 73.9298 233.379 72.1878 232.799 70.4941L232.46 69.7198C231.056 66.1873 229.169 62.8968 226.846 59.9449L226.314 59.2674C225.201 57.8641 223.943 56.606 222.636 55.3962L221.862 54.6703C220.459 53.4606 219.055 52.2992 217.555 51.2346L216.878 50.7507C215.378 49.7345 213.829 48.8151 212.232 47.944L211.651 47.4601C209.958 46.5891 208.167 45.8148 206.328 45.089L205.167 44.6051C203.376 43.9276 201.538 43.3469 199.553 42.7662L198.15 42.4275C196.166 41.8952 194.182 41.4597 192.101 41.0725H191.085C189.149 40.7338 187.165 40.4919 185.133 40.2983H184.262C190.698 53.1702 195.44 66.8164 198.295 80.9465C198.586 81.9143 199.166 82.7853 199.989 83.4628H199.844Z" fill="url(#paint5_linear_242_93868)"/>
<defs>
<linearGradient id="paint0_linear_242_93868" x1="79.9939" y1="227.817" x2="168.082" y2="227.817" gradientUnits="userSpaceOnUse">
<stop stop-color="#EF4136"/>
<stop offset="1" stop-color="#FBB040"/>
</linearGradient>
<linearGradient id="paint1_linear_242_93868" x1="14.6453" y1="170.485" x2="106.916" y2="170.485" gradientUnits="userSpaceOnUse">
<stop stop-color="#EF4136"/>
<stop offset="1" stop-color="#FBB040"/>
</linearGradient>
<linearGradient id="paint2_linear_242_93868" x1="27.2339" y1="124.7" x2="235.585" y2="124.7" gradientUnits="userSpaceOnUse">
<stop stop-color="#EF4136"/>
<stop offset="1" stop-color="#FBB040"/>
</linearGradient>
<linearGradient id="paint3_linear_242_93868" x1="16.2619" y1="78.4011" x2="67.7923" y2="78.4011" gradientUnits="userSpaceOnUse">
<stop stop-color="#EF4136"/>
<stop offset="1" stop-color="#FBB040"/>
</linearGradient>
<linearGradient id="paint4_linear_242_93868" x1="62.041" y1="37.4374" x2="168.772" y2="37.4374" gradientUnits="userSpaceOnUse">
<stop stop-color="#EF4136"/>
<stop offset="1" stop-color="#FBB040"/>
</linearGradient>
<linearGradient id="paint5_linear_242_93868" x1="186.834" y1="78.2153" x2="238.257" y2="78.2153" gradientUnits="userSpaceOnUse">
<stop stop-color="#EF4136"/>
<stop offset="1" stop-color="#FBB040"/>
</linearGradient>
</defs>
</svg>
