<svg width="250" height="250" viewBox="0 0 250 250" fill="none" xmlns="http://www.w3.org/2000/svg">
<rect width="250" height="250" rx="125" fill="white"/>
<path fill-rule="evenodd" clip-rule="evenodd" d="M214.663 152.766L228.064 129.694L211.499 179.561L214.663 152.766ZM210.288 183.209V158.03L213.792 153.836L210.34 183.05L210.288 183.209ZM180.943 199.905L205.106 189.216L161.249 220.644L180.943 199.905ZM156.695 223.907L156.011 223.902L133.617 215.355L155.322 206.245L173.305 201.804L157.38 223.416L156.695 223.907ZM126.896 218.133L151.899 223.876L122.89 223.686L126.896 218.133ZM135.444 27.3772L137.416 24.6425L151.648 24.736L135.444 27.3772ZM172.999 45.9752L153.815 41.5151L132.049 32.3866L157.102 24.7715L157.997 24.7771L158.626 25.2405L172.999 45.9752ZM180.948 47.8484L162.606 28.1717L205.43 59.7149L180.948 47.8484ZM215.216 95.2147L215.255 94.7721L215.149 94.8056L211.86 68.7101L227.886 119.154L215.216 95.2147ZM210.288 151.509L213.688 152.803L210.288 156.873V151.509ZM197.911 171.689L209.546 152.31V157.762L197.911 171.689ZM209.434 185.779L184.619 193.816L195.44 175.804L209.546 158.919V185.444L209.434 185.779ZM184.038 194.784L208.301 186.926L208.063 187.096L181.627 198.796L184.038 194.784ZM179.588 200.253L160.761 220.079L174.431 201.526L179.588 200.253ZM177.717 197.066L178.102 197.587L178.101 197.38L180.014 199.389L175.115 200.598L177.717 197.066ZM176.621 197.304L173.989 200.876L159.725 204.396L176.621 197.304ZM159.701 172.655L176.72 195.714L149.632 186.615L159.701 172.655ZM163.565 167.3L176.94 162.701L177.333 195.294L160.158 172.023L163.565 167.3ZM176.775 148.987L176.931 161.919L164.317 166.256L176.775 148.987ZM181.247 142.788L208.704 150.995L177.67 161.665L177.505 147.975L181.247 142.788ZM189.815 124.294L208.96 150.297L181.707 142.15L183.928 139.071L179.992 137.801L189.815 124.294ZM177.393 107.422L189.354 123.667L179.249 137.561L132.184 122.373L177.393 107.422ZM157.999 79.9867L177.161 86.2241V106.717L130.987 121.987L127.742 120.94L157.999 79.9867ZM125.367 69.2084L144.961 62.8402L157.397 79.5517L126.996 120.699L125.367 120.174V69.2084ZM124.625 68.4112L109.712 63.0584L124.625 42.3794V68.4112ZM127.14 38.8914L144.494 62.2115L125.367 68.4277V41.3498L127.14 38.8914ZM176.502 51.0299L157.895 43.2263L173.629 46.8844L176.502 51.0299ZM174.075 46.2255L161.476 28.0489L179.622 47.5149L174.075 46.2255ZM180.043 48.3755L177.564 51.258L174.706 47.1343L180.043 48.3755ZM184.511 53.7505L181.682 49.0297L205.656 60.6501L184.511 53.7505ZM210.238 89.3816L210.948 67.4047L214.315 94.1298L210.238 89.3816ZM214.571 102.509L215.095 96.5759L227.759 120.502L214.571 102.509ZM213.936 146.457L213.938 152.104L210.52 150.804L213.936 146.457ZM212.3 128.222L213.924 145.269L210.397 149.759L212.3 128.222ZM209.364 97.4176L211.912 124.164L209.633 149.959L190.274 123.665L209.364 97.4176ZM208.193 97.7647L189.812 123.037L178.14 107.184L208.193 97.7647ZM209.039 96.6009L208.926 96.7558L177.904 106.48V86.466L209.039 96.6009ZM177.904 52.8663L195.145 72.9379L208.813 95.747L177.904 85.6852V52.8663ZM177.161 53.0273V85.4434L158.455 79.3543L177.161 53.0273ZM192.897 69.1872L178.678 52.6292L184.018 54.3711L192.897 69.1872ZM209.309 95.133L198.003 76.2658L209.487 89.6347L209.309 95.133ZM210.087 96.3922L210.015 96.2934L210.203 90.4684L214.187 95.107L210.087 96.3922ZM213.808 102.721L212.271 120.11L210.137 97.7128L213.808 102.721ZM210.552 97.0255L214.418 95.8136L213.906 101.602L210.552 97.0255ZM210.094 63.15L210.319 63.8599L209.522 88.5475L195.758 72.5189L185.093 54.722L209.434 62.6635L210.094 63.15ZM157.852 78.9197L145.707 62.5979L176.58 52.5645L157.852 78.9197ZM178.077 195.433L177.679 162.447L209.075 151.653L194.832 175.374L178.077 195.433ZM182.972 195.129L180.657 198.987L178.394 196.612L182.972 195.129ZM178.827 195.692L192.363 179.489L183.554 194.161L178.827 195.692ZM229.684 124.815L229.456 125.504L214.588 144.425L212.658 124.167L214.472 103.628L229.442 124.052L229.684 124.815ZM183.435 53.4L178.177 51.6836L180.67 48.7845L183.435 53.4ZM129.35 35.827L131.436 32.9345L149.508 40.5138L129.35 35.827ZM128.879 36.4802L153.588 42.225L176.468 51.8201L145.239 61.9692L127.596 38.2589L128.879 36.4802ZM134.829 28.2293L152.823 25.2962L132.487 31.4774L134.829 28.2293ZM121.662 118.978L95.6751 82.5226L109.26 63.6847L124.625 69.1999V119.934L121.662 118.978ZM95.2165 83.1578L120.478 118.596L79.2536 105.293L95.2165 83.1578ZM131.841 211.278L149.177 187.245L176.667 196.479L155.068 205.545L131.841 211.278ZM132.544 215H129.156L131.17 212.208L150.663 207.395L132.544 215ZM128.621 215.742H132.551L151.811 223.094L127.368 217.48L128.621 215.742ZM214.677 151.264L214.676 145.514L227.482 129.217L214.677 151.264ZM120.096 216.54L120.382 216.456L120.211 216.382L173.721 142.601L69.0464 108.452L129.844 24.5929L135.594 24.6307L130.142 32.1902L129.863 32.2747L130.031 32.3451L76.8562 106.079L181.53 139.857L121.068 223.674L114.951 223.634L120.096 216.54ZM115.299 220.626L113.126 223.622L98.7008 223.528L115.299 220.626ZM70.6901 201.197L87.8895 220.461L44.5521 188.54L70.6901 201.197ZM40.3895 158.123L53.7877 174.174L66.084 193.858L40.5515 185.593L39.8983 185.111L39.6678 184.386L40.3895 158.123ZM35.7273 152.395L35.6276 152.418L35.9375 152.79L38.4351 180.506L21.7996 128.145L35.7273 152.395ZM35.9403 95.1396L35.6432 95.4924L35.7306 95.517L21.8388 118.835L39.1129 66.8317L35.9403 95.1396ZM69.4842 47.8441L45.0896 58.8997L88.7156 27.6365L69.4842 47.8441ZM93.2961 24.3539L94.0693 24.3591L116.94 32.4126L95.6331 41.619L77.6223 45.1897L92.6112 24.8447L93.2961 24.3539ZM124.435 29.5235L98.8373 24.3903L128.018 24.5811L124.435 29.5235ZM119.028 36.9809L99.0914 40.9337L118.975 32.3418L98.1529 25.01L123.956 30.1842L119.028 36.9809ZM101.663 60.9335L73.9037 51.8173L95.8556 42.3317L118.388 37.8646L101.663 60.9335ZM90.8509 75.8464L73.8385 52.5763L101.206 61.564L90.8509 75.8464ZM86.3455 82.0611L73.2292 86.0276V53.0009L90.3932 76.4783L86.3455 82.0611ZM73.2292 86.8037L85.6257 83.0539L73.2292 100.152V86.8037ZM69.1437 105.788L41.4121 96.4262L72.4872 87.0275V101.176L69.1437 105.788ZM60.3964 123.554L41.1797 97.1304L68.6874 106.418L66.648 109.231L70.0841 110.351L60.3964 123.554ZM72.9978 140.881L60.855 124.184L70.8275 110.594L117.523 125.828L72.9978 140.881ZM93.1015 168.378L73.2292 161.972V141.586L118.703 126.213L123.141 127.661L93.1015 168.378ZM124.625 179.282L105.785 185.385L93.7018 168.814L123.885 127.903L124.625 128.145V179.282ZM125.367 180.045L141.391 184.65L125.367 206.743V180.045ZM123.368 209.5L106.245 186.016L124.625 180.062V207.767L123.368 209.5ZM73.8801 197.284L94.2497 206.036L77.0654 201.969L73.8801 197.284ZM76.6134 202.625L88.2782 219.781L71.9804 201.527L76.6134 202.625ZM71.4354 200.636L72.9298 197.206L75.9956 201.716L71.4354 200.636ZM69.9211 200L44.2625 187.574L66.6952 194.836L69.9211 200ZM71.7495 195.692L67.1812 194.213L57.264 178.339L71.7495 195.692ZM73.2292 195.313V162.752L92.6367 169.008L73.2292 195.313ZM93.2399 169.44L105.041 185.626L73.8423 195.732L93.2399 169.44ZM72.3545 196.667L70.8592 200.101L67.7924 195.191L72.3545 196.667ZM41.0456 152.378L72.4872 162.513V195.417L54.3876 173.734L41.0456 152.378ZM40.5312 152.953L50.9113 169.571L40.4202 157.002L40.5312 152.953ZM72.4872 141.827V161.733L41.4112 151.716L72.4872 141.827ZM37.0729 146.813L38.2802 129.393L39.7349 150.455L37.0729 146.813ZM39.6702 157.262L39.0661 179.239L36.773 153.791L39.6702 157.262ZM36.9657 152.863L39.81 152.186L39.7009 156.14L36.9657 152.863ZM36.9931 147.962L39.5658 151.481L36.7022 152.163L36.9931 147.962ZM36.313 147.032L36.0107 151.397L23.2076 129.105L36.313 147.032ZM36.3101 100.876L23.1344 118.111L36.0079 96.5027L36.3101 100.876ZM39.8024 90.552L36.8018 94.1161L39.7255 68.0291L39.8024 90.552ZM65.9905 53.5129L45.1415 59.6908L68.7569 48.989L65.9905 53.5129ZM72.2067 51.6704L67.0528 53.1979L69.7525 48.7831L72.2067 51.6704ZM75.8893 46.2897L75.9767 46.2727L72.815 51.241L70.2022 48.1663L89.2616 28.1391L75.8893 46.2897ZM92.3963 43.0175L73.8196 51.0441L76.9837 46.073L92.3963 43.0175ZM55.9089 71.4208L66.4746 54.1434L71.7773 52.572L55.9089 71.4208ZM39.7382 97.6107L38.2811 118.635L37.0701 101.102L39.7382 97.6107ZM39.5682 96.6141L36.9926 99.9832L36.7036 95.7951L39.5682 96.6141ZM39.8213 95.9137L36.9496 95.0933L39.8067 91.7002L39.8213 95.9137ZM50.158 79.4043L40.5605 95.0994L40.5463 90.8217L50.158 79.4043ZM40.7032 62.0429L41.3271 61.5956L65.4124 54.458L52.734 75.1922L40.5421 89.6735L40.4505 62.8048L40.7032 62.0429ZM60.394 124.812L72.2558 141.122L41.1684 151.013L60.394 124.812ZM40.4944 150.676L38.6528 124.014L40.4939 97.4497L59.9354 124.182L40.4944 150.676ZM72.4872 86.252L41.0191 95.7692L53.3324 75.6338L72.4872 52.8814V86.252ZM20.3071 123.446L20.5503 122.713L36.3876 101.995L37.9085 124.014L36.3928 145.884L20.5508 124.213L20.3071 123.446ZM120.774 213.078L118.812 215.782L102.391 208.726L120.774 213.078ZM121.245 212.427L98.4382 207.028L73.9117 196.49L105.502 186.257L122.91 210.132L121.245 212.427ZM115.925 219.763L98.9941 222.723L117.767 217.223L115.925 219.763ZM129.084 129.6L155.188 165.626L141.854 184.01L125.367 179.272V128.387L129.084 129.6ZM155.646 164.995L130.284 129.991L171.322 143.38L155.646 164.995ZM91.3917 223.041L77.6837 202.878L98.202 207.735L118.193 216.324L93.7198 223.495L91.9939 223.484L91.3917 223.041ZM211.436 62.4708L211.362 62.2408L158.684 23.4391L158.489 23.2955L92.8238 22.8661L39.6423 60.9764L39.4463 61.1162L18.7461 123.436L38.5565 185.791L38.6297 186.02L91.3076 224.823L91.5018 224.966L157.168 225.394L210.349 187.285L210.545 187.145L231.246 124.826L211.436 62.4708Z" fill="black"/>
</svg>
