<svg width="250" height="250" viewBox="0 0 250 250" fill="none" xmlns="http://www.w3.org/2000/svg">
<path d="M141.32 107.186C147.687 106.414 153.654 107.524 159.421 109.906C165.563 112.442 170.927 116.119 175.447 120.995C177.977 123.724 180.109 126.731 181.371 130.268C182.194 132.577 182.444 134.949 182.231 137.421C181.652 144.15 178.61 149.783 174.583 154.973C170.88 159.745 166.395 163.702 161.48 167.198C157.04 170.356 152.301 172.975 147.411 175.347C144.269 176.871 141.02 178.134 137.65 179.014C134.986 179.71 132.286 180.294 129.594 180.89C128.121 181.216 126.624 181.417 125.153 181.76C124.216 181.979 123.175 181.988 122.206 182.175C120.298 182.543 118.362 182.676 116.442 182.927C114.837 183.136 113.215 183.311 111.572 183.29C110.045 183.271 108.511 183.462 106.975 183.463C103.396 183.465 99.8096 183.607 96.2411 183.415C94.143 183.303 92.03 183.27 89.925 182.988C88.2584 182.764 86.5752 182.507 84.8739 182.446C83.6757 182.402 82.495 181.939 81.295 181.874C79.7531 181.79 78.2935 181.303 76.7676 181.156C75.6549 181.049 74.5552 180.767 73.4607 180.516C71.192 179.995 68.9252 179.463 66.6684 178.893C65.5287 178.605 64.4136 178.221 63.2852 177.887C61.462 177.349 59.6206 176.865 57.817 176.268C55.948 175.649 54.1141 174.923 52.2661 174.241C49.2451 173.126 46.286 171.855 43.3734 170.492C40.4856 169.14 37.6485 167.679 34.8518 166.138C33.2823 165.273 31.7364 164.368 30.2194 163.426C27.9634 162.024 25.7159 160.605 23.5669 159.03C21.8011 157.737 19.9991 156.495 18.296 155.115C16.7287 153.846 15.1741 152.566 13.646 151.247C11.1331 149.079 8.70088 146.832 6.40013 144.445C5.10025 143.096 3.86775 141.682 2.59375 140.285C2.95463 140.051 3.104 140.299 3.271 140.456C9.33813 146.179 16.1243 150.904 23.3559 155.027C29.5938 158.584 36.0837 161.587 42.7696 164.196C48.9459 166.606 55.2584 168.584 61.668 170.242C66.3665 171.458 71.1255 172.441 75.9217 173.188C79.6942 173.775 83.4851 174.241 87.2954 174.57C93.3236 175.089 99.358 175.272 105.394 174.974C108.922 174.801 112.443 174.455 115.948 173.936C120.48 173.264 124.933 172.279 129.314 170.965C134.671 169.359 139.889 167.384 144.815 164.724C147.727 163.151 150.492 161.335 153.041 159.192C155.508 157.116 157.677 154.799 159.451 152.106C160.719 150.181 161.681 148.103 162.242 145.89C162.797 143.701 163.232 141.457 163.017 139.167C162.693 135.708 161.881 132.383 160.413 129.206C159.026 126.202 157.246 123.453 155.287 120.813C154.445 119.679 153.444 118.664 152.537 117.577C150.799 115.493 148.831 113.637 146.813 111.839C145.323 110.511 143.742 109.287 142.206 108.011C141.925 107.777 141.669 107.512 141.32 107.186ZM100.931 115.639C101.088 115.362 100.894 115.177 100.747 114.994C98.8397 112.618 97.1413 110.102 95.6407 107.452C92.6414 102.153 90.5474 96.6064 90.8601 90.3754C90.9565 88.4551 91.2891 86.5872 91.9341 84.7847C93.7759 79.6384 97.3023 75.8401 101.669 72.726C104.874 70.4409 108.361 68.6862 111.994 67.2002C116.43 65.3856 121.029 64.0956 125.677 62.9716C127.606 62.5052 129.569 62.1765 131.507 61.7714C133.042 61.4506 134.603 61.258 136.136 60.9194C137.864 60.5379 139.66 60.4461 141.425 60.2089C143.585 59.9185 145.76 59.7324 147.933 59.5539C150.224 59.3657 152.52 59.2294 154.814 59.0891C158.392 58.8704 161.973 58.9271 165.555 58.9207C168.096 58.9162 170.629 59.0812 173.158 59.268C174.04 59.3331 174.931 59.2719 175.801 59.4107C176.965 59.5966 178.137 59.7669 179.307 59.7152C180.122 59.6792 180.902 59.8524 181.694 59.9136C183.377 60.0437 185.042 60.4374 186.725 60.5277C188.612 60.629 190.444 61.0609 192.315 61.2569C193.819 61.4145 195.322 61.7297 196.821 62.0009C199.145 62.4214 201.479 62.8121 203.771 63.3682C206.126 63.9392 208.499 64.4219 210.843 65.0545C213.477 65.7657 216.136 66.394 218.746 67.1976C222.337 68.3034 225.916 69.444 229.439 70.7554C231.944 71.6876 234.435 72.644 236.901 73.6797C239.359 74.7119 241.824 75.7191 244.222 76.8844C245.333 77.4244 246.461 77.9316 247.632 78.4774C247.615 78.0625 247.362 77.9759 247.166 77.8516C241.521 74.2762 235.633 71.1642 229.494 68.5207C224.767 66.4854 219.957 64.6756 215.056 63.1154C208.67 61.0825 202.186 59.4292 195.621 58.0597C190.715 57.0362 185.784 56.1901 180.822 55.5312C173.345 54.5382 165.832 53.9167 158.287 53.7571C148.703 53.5544 139.147 53.8881 129.628 55.1356C125.8 55.6372 121.986 56.2356 118.219 57.0301C114.158 57.8866 110.114 58.896 106.199 60.3147C104.335 60.9901 102.492 61.7346 100.683 62.5449C97.9621 63.7632 95.344 65.1872 92.8067 66.7546C89.3541 68.8876 86.094 71.2806 83.1534 74.0834C82.041 75.1436 80.9715 76.2475 79.9576 77.415C77.7259 79.9849 75.8106 82.729 74.4459 85.8649C73.085 88.9917 72.4901 92.2029 73.01 95.5941C73.284 97.3812 73.8685 99.0695 74.7738 100.623C76.5585 103.686 79.0796 106.062 81.9961 108.02C85.7894 110.566 89.9991 112.257 94.2865 113.738C96.4616 114.489 98.7188 115.003 100.939 115.624L100.931 115.639ZM134.844 100.686C134.056 99.5175 133.412 98.2657 133.602 96.7909C133.87 94.7049 135.332 93.6366 137.064 92.7651C139.798 91.3895 142.784 91.2982 145.723 90.9626C147.91 90.7129 150.096 90.9557 152.266 91.1725C152.931 91.239 153.609 91.1835 154.26 91.321C156.236 91.7385 158.245 91.9595 160.213 92.4307C163.385 93.1901 166.529 94.0417 169.573 95.2089C173.657 96.7745 177.553 98.7236 181.253 101.071C184.077 102.862 186.73 104.859 189.167 107.15C191.518 109.36 193.692 111.724 195.568 114.354C197.189 116.627 198.623 119.007 199.812 121.543C200.788 123.626 201.573 125.776 202.27 127.957C202.961 130.122 203.187 132.388 203.45 134.632C203.704 136.803 203.289 138.946 202.899 141.076C202.671 142.319 202.322 143.529 201.928 144.734C201.051 147.42 199.701 149.868 198.033 152.097C195.71 155.201 192.952 157.91 189.868 160.292C186.918 162.57 183.741 164.464 180.477 166.236C179.697 166.66 178.814 166.914 178.117 167.53C178.301 167.698 178.434 167.674 178.599 167.611C182.716 166.025 186.814 164.397 190.701 162.286C193.835 160.586 196.855 158.723 199.662 156.509C203.1 153.797 206.117 150.711 208.459 146.999C211.892 141.56 213.259 135.627 212.429 129.254C211.78 124.278 209.905 119.715 207.229 115.491C203.831 110.125 199.522 105.591 194.56 101.64C188.06 96.464 180.878 92.5477 173.021 89.8934C168.804 88.4689 164.482 87.4426 160.074 86.7289C156.526 86.1544 152.965 85.834 149.388 85.6565C145.948 85.4857 142.514 85.753 139.125 86.3262C136.424 86.783 133.754 87.4371 131.443 89.0512C128.937 90.802 128.274 93.2375 129.68 95.9197C131.218 98.8545 133.73 100.919 136.46 102.746C135.917 102.062 135.33 101.408 134.844 100.686ZM85.5723 64.593C82.6973 65.6065 79.8919 66.7865 77.1756 68.1634C72.7714 70.3959 68.5955 72.9785 64.7686 76.1322C62.2477 78.2099 59.8714 80.4125 57.818 82.9482C55.3949 85.9406 53.3944 89.1776 52.0307 92.8102C51.2099 94.9969 50.6764 97.2451 50.5426 99.54C50.4146 101.737 50.4725 103.966 51.0081 106.142C51.665 108.811 52.631 111.353 54.0157 113.731C55.3635 116.045 56.9786 118.148 58.7483 120.167C60.992 122.727 63.5306 124.929 66.2126 126.987C67.9067 128.287 69.7131 129.433 71.5756 130.468C73.0232 131.273 74.5046 132.024 76.0085 132.732C78.0303 133.683 80.1003 134.51 82.196 135.266C84.2489 136.005 86.3541 136.587 88.4699 137.138C91.8837 138.028 95.3291 138.638 98.8613 138.713C101.574 138.77 104.287 138.838 106.925 138.013C108.731 137.448 110.398 136.633 111.467 135.013C112.72 133.114 112.465 131.076 111.745 129.052C110.821 126.456 109.232 124.256 107.537 122.13C107.289 121.819 107.105 121.333 106.503 121.285C107.194 122.535 107.745 123.766 107.932 125.097C108.097 126.278 108.07 127.466 107.332 128.531C106.333 129.972 104.846 130.64 103.256 131.055C99.6425 131.999 95.9951 131.612 92.3968 130.99C88.6438 130.341 85.0321 129.164 81.494 127.719C76.2161 125.564 71.6594 122.379 67.6954 118.34C65.4877 116.09 63.5258 113.628 61.9433 110.871C58.9643 105.681 57.7251 100.154 58.6611 94.2185C59.3064 90.127 60.9226 86.393 63.1917 82.9402C66.284 78.235 70.2511 74.3871 74.789 71.09C78.4189 68.4526 82.3219 66.3065 86.4141 64.4804C86.1316 64.5216 85.8621 64.4909 85.5723 64.593ZM100.94 115.622C100.971 115.598 101.065 115.719 101.042 115.576C101.005 115.597 100.968 115.618 100.931 115.639C100.931 115.639 100.939 115.623 100.94 115.622Z" fill="#0283C6"/>
</svg>
