<svg width="250" height="250" viewBox="0 0 250 250" fill="none" xmlns="http://www.w3.org/2000/svg">
<path d="M55.9002 104.679L37.5 123.076H74.2976L55.9002 104.679Z" fill="#A02870"/>
<path d="M74.2923 126.922H37.5059L55.8984 145.318L74.2923 126.922Z" fill="#80286C"/>
<path d="M99.2504 101.962L80.8516 83.5642V120.358L99.2504 101.962Z" fill="#C42C79"/>
<path d="M77.0107 120.358V83.5642L58.6133 101.962L77.0107 120.358Z" fill="#A02870"/>
<path d="M101.971 99.2432L120.367 80.8488H83.5703L101.971 99.2432Z" fill="#C42C79"/>
<path d="M101.971 58.6105L83.5684 77.0098H120.365L101.971 58.6105Z" fill="#E4327F"/>
<path d="M145.316 55.8939L126.92 37.496V74.2897L145.316 55.8939Z" fill="#0A8B4B"/>
<path d="M123.078 74.2912V37.496L104.682 55.8939L123.078 74.2912Z" fill="#E4327F"/>
<path d="M99.2504 148.03L80.8516 129.636V166.429L99.2504 148.03Z" fill="#632A69"/>
<path d="M58.6152 148.03L77.0122 166.426V129.636L58.6152 148.03Z" fill="#80286C"/>
<path d="M148.035 99.2432L166.431 80.8488H129.639L148.035 99.2432Z" fill="#167B55"/>
<path d="M129.635 77.0084H166.429L148.032 58.6105L129.635 77.0084Z" fill="#0A8B4B"/>
<path d="M120.366 172.985H83.5684L101.966 191.385L120.366 172.985Z" fill="#402863"/>
<path d="M101.971 150.748L83.5723 169.142H120.361L101.971 150.748Z" fill="#632A69"/>
<path d="M191.385 101.964L172.988 83.5681V120.358L191.385 101.964Z" fill="#21695E"/>
<path d="M150.75 101.962L169.148 120.36V83.5642L150.75 101.962Z" fill="#167B55"/>
<path d="M104.684 194.1L123.079 212.496V175.703L104.684 194.1Z" fill="#402863"/>
<path d="M126.92 175.704V212.495L145.317 194.101L126.92 175.704ZM148.032 191.384L166.432 172.985H129.633L148.032 191.384Z" fill="#223160"/>
<path d="M148.033 150.748L129.639 169.142H166.426L148.033 150.748Z" fill="#1E4561"/>
<path d="M172.99 129.636V166.426L191.386 148.03L172.99 129.636Z" fill="#245661"/>
<path d="M150.75 148.028L169.148 166.426V129.632L150.75 148.028Z" fill="#1E4561"/>
<path d="M194.1 145.316L212.499 126.918H175.705L194.1 145.316Z" fill="#245661"/>
<path d="M194.099 104.679L175.699 123.076H212.498L194.099 104.679Z" fill="#21695E"/>
</svg>
