<svg width="250" height="250" viewBox="0 0 250 250" fill="none" xmlns="http://www.w3.org/2000/svg">
<g clip-path="url(#clip0_242_94212)">
<path d="M124.998 249.997C194.034 249.997 249.998 194.033 249.998 124.997C249.998 55.9614 194.034 -0.0030508 124.998 -0.0030508C55.9624 -0.0030508 -0.00195312 55.9614 -0.00195312 124.997C-0.00195312 194.033 55.9624 249.997 124.998 249.997Z" fill="#5244D4"/>
<path d="M122.654 214.059C72.1699 214.059 31.248 173.137 31.248 122.653C31.248 72.1686 72.1699 31.2468 122.654 31.2468C173.139 31.2468 214.061 72.1686 214.061 122.653C214.061 173.137 173.139 214.059 122.654 214.059ZM145.232 153.903L122.654 122.653L100.076 153.903L81.7168 122.653L102.186 87.653H143.123L163.592 122.653L145.232 153.903ZM151.951 72.653H93.3574L64.1387 122.653L93.4355 172.653H151.951L181.17 122.653L151.951 72.653Z" fill="white"/>
</g>
<defs>
<clipPath id="clip0_242_94212">
<rect width="250" height="250" rx="125" fill="white"/>
</clipPath>
</defs>
</svg>
