<svg width="250" height="250" viewBox="0 0 250 250" fill="none" xmlns="http://www.w3.org/2000/svg">
<rect width="250" height="250" rx="125" fill="white"/>
<g clip-path="url(#clip0_242_94330)">
<path d="M32.5273 131.317C32.3074 131.426 32.0877 131.536 31.8682 131.648C32.0973 132.372 32.277 133.112 32.4059 133.861C32.6024 133.028 32.6436 132.165 32.5273 131.317Z" fill="#751C8E"/>
<path d="M233.447 172.277L216.309 172.849L218.691 176.185L234.169 175.669C235.14 175.636 236.069 175.269 236.8 174.63C237.531 173.991 238.019 173.119 238.181 172.162C238.598 169.705 238.746 167.21 238.622 164.722C238.562 165.899 238.448 166.974 238.311 167.918C238.141 169.1 237.56 170.185 236.671 170.982C235.782 171.779 234.641 172.237 233.447 172.277Z" fill="#751C8E"/>
<path d="M125.644 211.495C68.0012 209.036 23.7845 184.091 13.9475 162.661C12.4473 159.393 11.6745 156.453 11.4427 153.814C11.1224 157.259 11.7648 161.321 13.9475 166.077C23.7845 187.507 68.0012 212.451 125.644 214.911C177.939 217.141 215.755 191.613 222.321 186.857C222.636 186.629 222.892 186.33 223.068 185.983C223.245 185.637 223.337 185.253 223.337 184.865V182.687L221.736 183.861C213.75 189.524 176.559 213.668 125.644 211.495Z" fill="#751C8E"/>
<path d="M81.7531 125.23C81.7531 125.23 60.3224 113.827 31.8652 128.231C31.8652 128.231 35.7294 139.825 25.5412 133.852C25.5412 133.852 4.11048 141.23 13.9488 162.661C23.7871 184.092 68.0025 209.036 125.645 211.495C183.288 213.954 223.337 182.687 223.337 182.687L216.311 172.849L233.582 172.274C234.733 172.235 235.835 171.795 236.695 171.028C237.555 170.262 238.12 169.218 238.29 168.078C240.029 156.44 238.641 124.063 168.179 127.529C168.179 127.529 158.693 103.99 160.801 85.0183C160.801 85.0183 198.664 102.936 212.581 82.2077C212.581 82.2077 195.23 81.5051 186.799 72.3705C178.367 63.2359 156.585 34.9824 142.884 34.9824C129.183 34.9824 128.128 46.3725 128.128 46.3725C128.128 46.3725 105.995 48.1291 99.3197 81.5051C97.1011 92.5975 94.4166 101.148 91.8213 107.619C91.1528 109.285 93.4785 112.546 92.8314 113.944C92.3148 115.061 88.82 114.363 88.3279 115.318C84.6274 122.499 81.7531 125.23 81.7531 125.23Z" fill="url(#paint0_linear_242_94330)"/>
<path d="M78.0944 130.946L70.1367 154.231C70.1367 154.231 78.5685 174.257 118.971 173.203C159.373 172.149 170.967 150.016 170.967 150.016L168.156 127.505C168.156 127.505 151.469 151.665 117.791 149.82C82.2344 147.871 78.0944 130.946 78.0944 130.946Z" fill="#AF5600"/>
<path d="M78.0936 130.943L81.7531 125.23C81.7531 125.23 60.3224 113.827 31.8652 128.231C31.8652 128.231 35.7294 139.825 25.5412 133.852C25.5412 133.852 4.11048 141.23 13.9488 162.661C20.91 177.827 45.0902 194.752 79.0612 204.223C62.3829 175.15 70.1359 154.229 70.1359 154.229L78.0936 130.943Z" fill="#C859C7"/>
<path d="M231.307 143.208H170.192L170.964 150.014C170.964 150.014 159.371 172.147 118.968 173.201C114.679 173.327 110.387 173.185 106.116 172.776L104.459 172.596C104.459 172.596 168.959 192.439 213.885 188.927C220.005 185.286 223.335 182.687 223.335 182.687L216.309 172.85L233.58 172.274C234.732 172.236 235.833 171.795 236.694 171.028C237.554 170.262 238.118 169.218 238.289 168.079C239.124 162.485 239.238 152.101 231.307 143.208Z" fill="#751C8E"/>
<path d="M145.091 168.813C164.646 162.074 170.964 150.016 170.964 150.016L168.153 127.505C168.153 127.505 159.614 138.757 142.426 145.783C144.035 149.423 146.335 156.981 145.091 168.813Z" fill="#8D4600"/>
<path d="M78.0944 130.943L70.1367 154.229C70.1367 154.229 71.0755 156.457 73.8249 159.388C74.695 152.023 78.8808 142.914 81.9037 137.109C78.7683 133.696 78.0944 130.943 78.0944 130.943Z" fill="#8D4600"/>
<path d="M126.458 149.668C123.576 149.929 120.679 149.979 117.79 149.817C106.177 149.181 97.9152 146.947 92.0542 144.226C89.3334 149.443 85.1915 159.344 87.2074 168.289C94.5302 171.339 104.778 173.57 118.97 173.2C121.447 173.136 123.816 172.995 126.079 172.778C127.931 166.243 129.548 156.827 126.458 149.668Z" fill="#CB6D00"/>
<path d="M111.776 155.749C111.776 155.749 108.146 149.953 107.391 150.565C106.636 151.177 104.121 156.216 104.121 156.216C104.121 156.216 98.0994 156.677 97.8108 157.565C97.5221 158.453 101.272 163.725 101.272 163.725C101.272 163.725 99.6058 170.424 100.821 170.3C102.037 170.176 107.408 168.485 107.408 168.485C107.408 168.485 111.841 171.984 113.192 170.81C114.543 169.637 113.865 163.82 113.865 163.82C113.865 163.82 117.626 159.447 117.334 158.596C117.042 157.744 111.776 155.749 111.776 155.749Z" fill="#924900"/>
<path d="M110.58 155.205C110.58 155.205 106.951 149.409 106.196 150.021C105.44 150.633 102.925 155.672 102.925 155.672C102.925 155.672 96.9041 156.133 96.6155 157.021C96.3268 157.909 100.077 163.181 100.077 163.181C100.077 163.181 98.4102 169.88 99.6261 169.756C100.842 169.633 106.213 167.941 106.213 167.941C106.213 167.941 110.645 171.44 111.997 170.266C113.348 169.092 112.67 163.276 112.67 163.276C112.67 163.276 116.431 158.903 116.139 158.052C115.847 157.2 110.58 155.205 110.58 155.205Z" fill="#FFBB00"/>
<path d="M110.319 154.973C110.319 154.973 107.32 151.036 106.662 151.102C106.004 151.169 105.182 157.995 105.182 157.995C105.182 157.995 108.034 155.022 110.319 154.973Z" fill="url(#paint1_linear_242_94330)"/>
<path d="M106.094 158.962C106.551 158.531 113.547 158.077 116.056 157.928C116.088 157.965 116.114 158.006 116.135 158.05C116.427 158.902 112.666 163.274 112.666 163.274C110.417 161.07 106.345 160.168 106.345 160.168C106.345 160.168 105.537 159.489 106.094 158.962Z" fill="url(#paint2_linear_242_94330)"/>
<path d="M104.562 161.688C104.638 163.89 105.221 166.045 106.267 167.984L106.209 167.939C106.209 167.939 101.819 169.321 100.083 169.676C100.034 168.191 102.248 163.439 104.562 161.688Z" fill="url(#paint3_linear_242_94330)"/>
<path d="M103.121 159.166L97.1758 157.513L100.319 162.368L103.121 159.166Z" fill="url(#paint4_linear_242_94330)"/>
<path d="M110.97 156.076C110.97 156.076 107.636 155.896 104.587 158.777C101.537 161.658 100.939 164.609 100.939 164.609C100.939 164.609 103.433 161.199 104.655 160.377C104.655 160.377 105.822 163.492 108.356 165.704C108.356 165.704 105.104 160.482 105.332 159.683C105.744 158.239 110.97 156.076 110.97 156.076Z" fill="#FFD686"/>
<path d="M170.629 147.028C170.859 146.656 170.967 146.45 170.967 146.45L168.819 127.499C168.685 127.505 168.34 127.51 168.205 127.516L170.629 147.028Z" fill="#781B8A"/>
<path d="M78.0918 130.943C78.0918 130.943 82.2319 147.868 117.788 149.817C147.953 151.47 165.081 131.921 168.202 127.515C167.971 126.887 167.085 124.593 166.753 123.625C162.101 129.711 145.839 147.79 117.788 146.253C82.2319 144.304 79.7786 128.31 79.7786 128.31L78.0918 130.943Z" fill="#781B8A"/>
<path d="M92.9758 124.145C92.9758 124.145 96.3058 130.804 109.492 130.272C109.492 130.272 104.298 134.59 97.9042 132.592C91.5106 130.594 92.9758 124.145 92.9758 124.145Z" fill="#781B8A"/>
<path d="M124.812 130.137C124.812 130.137 128.941 129.737 133.869 127.473C138.798 125.209 132.138 133.168 127.343 133.118C122.548 133.067 124.812 130.137 124.812 130.137Z" fill="#7A1C93"/>
<path d="M104.9 113.944C104.9 113.944 121.409 118.551 135.604 117.318C135.603 117.318 116.814 126.886 104.9 113.944Z" fill="#83179F"/>
<path d="M169.56 127.465C169.102 127.485 168.642 127.506 168.178 127.528C168.178 127.528 158.693 103.99 160.801 85.0183C160.801 85.0183 198.663 102.936 212.58 82.2077C212.58 82.2077 195.23 81.5051 186.798 72.3705C178.366 63.2359 156.584 34.9824 142.883 34.9824C129.182 34.9824 128.128 46.3725 128.128 46.3725C128.128 46.3725 107.26 48.0287 99.9383 78.679C97.0932 80.5163 93.1633 86.1762 90.5655 92.6718C89.7943 94.6004 94.1505 101.308 93.5377 103.049C111.14 121.092 149.269 104.084 149.269 104.084C148.859 117.847 144.109 141.608 144.109 141.608C144.109 141.608 155.661 135.957 169.56 127.465Z" fill="url(#paint5_linear_242_94330)"/>
<path d="M90.79 117.332C90.79 117.332 108.338 133.48 137.128 123.624C137.128 123.624 125.547 135.264 98.6231 128.629C98.6236 128.63 89.4551 124.35 90.79 117.332Z" fill="#B330B8"/>
<path d="M90.5674 92.6727C90.5674 92.6727 96.5027 76.393 105.828 76.8167C115.152 77.2404 124.264 95.2157 124.9 101.574C125.536 107.932 119.157 106.372 106.653 99.3783C94.1497 92.3844 90.5674 92.6727 90.5674 92.6727Z" fill="#9345AC"/>
<path d="M104.678 65.4299C104.74 65.396 118.765 57.7859 135.145 76.3729C140.951 82.9606 146.015 47.2995 128.129 46.373C128.129 46.373 113.752 47.5148 104.678 65.4299Z" fill="#964AAE"/>
<path d="M135.334 36.4963C140.441 38.3306 151.507 42.5248 155.368 45.7425C157.697 47.6829 156.871 43.2715 153.584 39.0359C149.757 36.5376 146.097 34.9824 142.883 34.9824C139.751 34.9824 137.282 35.5784 135.334 36.4963Z" fill="#9F5BB6"/>
</g>
<defs>
<linearGradient id="paint0_linear_242_94330" x1="63.0418" y1="123.308" x2="215.636" y2="123.308" gradientUnits="userSpaceOnUse">
<stop stop-color="#B330B8"/>
<stop offset="0.02" stop-color="#B230B7"/>
<stop offset="0.669" stop-color="#862199"/>
<stop offset="0.999" stop-color="#751C8E"/>
</linearGradient>
<linearGradient id="paint1_linear_242_94330" x1="105.192" y1="152.81" x2="107.892" y2="156.178" gradientUnits="userSpaceOnUse">
<stop stop-color="#FEA50E"/>
<stop offset="1" stop-color="#FA8F19"/>
</linearGradient>
<linearGradient id="paint2_linear_242_94330" x1="107.635" y1="158.867" x2="113.861" y2="160.239" gradientUnits="userSpaceOnUse">
<stop stop-color="#FC9C0A"/>
<stop offset="0.999" stop-color="#F7811E"/>
</linearGradient>
<linearGradient id="paint3_linear_242_94330" x1="103.833" y1="162.583" x2="103.434" y2="168.029" gradientUnits="userSpaceOnUse">
<stop stop-color="#FEA50E"/>
<stop offset="1" stop-color="#F98D1A"/>
</linearGradient>
<linearGradient id="paint4_linear_242_94330" x1="98.6137" y1="158.659" x2="101.922" y2="160.557" gradientUnits="userSpaceOnUse">
<stop stop-color="#FFA908"/>
<stop offset="0.999" stop-color="#FC9D00"/>
</linearGradient>
<linearGradient id="paint5_linear_242_94330" x1="104.849" y1="142.239" x2="136.118" y2="102.086" gradientUnits="userSpaceOnUse">
<stop stop-color="#B330B8"/>
<stop offset="0.999" stop-color="#751C8E"/>
</linearGradient>
<clipPath id="clip0_242_94330">
<rect width="227.302" height="227.302" fill="white" transform="translate(11.3643 11.3643)"/>
</clipPath>
</defs>
</svg>
