<svg width="250" height="250" viewBox="0 0 250 250" fill="none" xmlns="http://www.w3.org/2000/svg">
<path d="M125.003 17.65C153.653 17.65 180.603 28.8 200.903 49.1C221.153 69.3501 232.353 96.3 232.353 125C232.353 153.7 221.203 180.6 200.903 200.9C180.653 221.15 153.703 232.35 125.003 232.35C96.3025 232.35 69.4025 221.2 49.1025 200.9C28.8525 180.65 17.6525 153.7 17.6525 125C17.6525 96.3 28.8525 69.3501 49.1025 49.1C69.4025 28.8 96.3525 17.65 125.003 17.65ZM125.003 1.80005C57.0025 1.80005 1.85254 56.95 1.85254 124.95C1.85254 193 57.0025 248.1 125.003 248.1C193.003 248.1 248.153 193 248.153 124.95C248.153 56.95 193.003 1.80005 125.003 1.80005Z" fill="#2871DA"/>
<path d="M185.65 120.199C190.75 120.199 194.9 116.049 194.9 110.949C194.9 105.849 190.75 101.699 185.65 101.699H158.45L158.3 78.4493H186.85C191.95 78.4493 196.1 74.2993 196.1 69.1993C196.1 64.0993 191.95 59.9493 186.85 59.9493H70.5002C65.4002 59.9493 61.2502 64.0993 61.2502 69.1993C61.2502 74.2993 65.4002 78.4493 70.5002 78.4493H97.9002L98.0502 101.699H90.1502C71.0002 101.699 55.4502 117.249 55.4502 136.399C55.4502 155.549 71.0002 171.099 90.1502 171.099H98.6002L98.7502 188.699C98.8002 193.749 102.9 197.849 108 197.849H108.05C113.15 197.799 117.25 193.649 117.2 188.549L117.05 171.099H140.5L140.65 188.699C140.7 193.749 144.8 197.849 149.9 197.849H149.95C155.05 197.799 159.15 193.649 159.1 188.549L158.95 171.099H185.25C190.35 171.099 194.5 166.949 194.5 161.849C194.5 156.749 190.35 152.599 185.25 152.599H158.8L158.55 120.099H185.65V120.199ZM116.35 78.4493H139.8L139.95 101.699H116.5L116.35 78.4493ZM90.1502 152.699C81.2002 152.699 73.9002 145.399 73.9002 136.449C73.9002 127.499 81.2002 120.199 90.1502 120.199H98.2002L98.4502 152.699H90.1502ZM140.35 152.699H116.9L116.65 120.199H140.1L140.35 152.699Z" fill="#2871DA"/>
</svg>
