<svg width="250" height="250" viewBox="0 0 250 250" fill="none" xmlns="http://www.w3.org/2000/svg">
<path d="M8.33691 156.002C8.33691 154.773 8.33691 153.543 8.33691 152.313C8.50625 151.561 8.70533 150.815 8.84109 150.056C9.84799 144.419 10.8419 138.779 11.8412 133.14C16.1043 109.088 20.3685 85.0363 24.6302 60.9844C25.0168 58.8031 25.7115 56.7227 26.6522 54.7218C28.0112 51.8325 29.7621 49.197 31.87 46.8047C35.5695 42.6049 39.93 39.4125 45.2831 37.5368C56.9165 33.4603 68.5024 29.2485 80.108 25.0913C96.7999 19.1123 113.492 13.1332 130.183 7.15179C131.927 6.52673 133.715 6.10075 135.551 5.85994C136.254 5.76783 136.952 5.6364 137.652 5.52271C139.011 5.52271 140.37 5.52271 141.729 5.52271C142.012 5.58411 142.293 5.66422 142.578 5.70355C143.636 5.84891 144.701 5.94341 145.752 6.12426C151.601 7.13068 156.893 9.3119 161.459 13.2292C166.393 17.4621 171.456 21.5444 176.464 25.6919C194.526 40.6506 212.593 55.603 230.638 70.5818C231.801 71.547 232.888 72.6407 233.847 73.8088C237.71 78.5162 240.005 83.9479 241.058 89.9236C241.164 90.5242 241.245 91.1291 241.337 91.7321C241.337 93.6739 241.337 95.6153 241.337 97.5571C241.225 98.1904 241.112 98.8236 241 99.4573C240.183 104.077 239.367 108.698 238.548 113.318C234.218 137.755 229.881 162.192 225.563 186.631C225.15 188.97 224.574 191.248 223.604 193.42C221.454 198.231 218.297 202.286 214.324 205.717C211.705 207.98 208.797 209.768 205.519 210.926C202.559 211.972 199.606 213.036 196.651 214.094C181.235 219.614 165.821 225.136 150.405 230.656C140.291 234.278 130.175 237.893 120.061 241.519C118.195 242.188 116.288 242.671 114.323 242.929C113.812 242.995 113.306 243.097 112.797 243.182C111.179 243.182 109.561 243.182 107.943 243.182C107.659 243.124 107.377 243.035 107.091 243.012C104.891 242.835 102.734 242.415 100.608 241.837C96.2732 240.66 92.3501 238.721 88.8871 235.806C82.9229 230.787 76.8882 225.851 70.8822 220.881C53.6626 206.632 36.4363 192.388 19.2301 178.121C18.1652 177.238 17.1683 176.242 16.2823 175.18C12.0479 170.1 9.6374 164.215 8.71684 157.691C8.63625 157.121 8.46548 156.565 8.33691 156.002ZM147.777 157.802C147.171 157.766 146.727 157.718 146.284 157.717C139.587 157.712 132.889 157.742 126.192 157.692C124.65 157.68 123.077 157.547 121.575 157.212C118.763 156.586 117.358 154.829 117.097 151.956C117.068 151.634 117.067 151.31 117.056 150.987C116.989 149.099 117.246 147.238 117.6 145.395C119.714 134.369 121.846 123.348 123.976 112.325C124.279 110.755 124.29 110.754 125.933 110.756C135.704 110.762 145.475 110.771 155.246 110.778C155.634 110.778 156.024 110.788 156.41 110.762C157.091 110.718 157.221 110.601 157.403 109.925C157.454 109.738 157.484 109.546 157.521 109.355C158.509 104.274 159.497 99.1925 160.482 94.1109C160.532 93.8572 160.569 93.6005 160.593 93.3434C160.629 92.9577 160.459 92.7155 160.059 92.6891C159.704 92.6656 159.348 92.6598 158.993 92.6598C149.06 92.667 139.126 92.6766 129.194 92.6833C127.844 92.6843 127.787 92.6176 128.041 91.3013C128.884 86.9499 129.733 82.5999 130.58 78.249C131.118 75.4864 131.663 72.7247 132.188 69.9597C132.379 68.9561 132.243 68.805 131.254 68.7676C131.093 68.7614 130.931 68.7633 130.769 68.7633C128.278 68.7628 125.785 68.805 123.296 68.7436C122.213 68.7172 121.519 69.0506 120.91 69.9904C118.67 73.4481 116.058 76.6204 113.178 79.5658C106.807 86.0826 99.4085 91.1013 91.006 94.6218C90.0907 95.0056 89.6498 95.5289 89.4743 96.4975C88.6952 100.795 87.8504 105.08 87.0321 109.37C86.7769 110.709 86.8474 110.794 88.2635 110.796C92.0489 110.801 95.8347 110.796 99.6201 110.8C101.129 110.801 101.169 110.854 100.847 112.362C99.3001 119.608 97.72 126.847 96.2142 134.101C95.3013 138.5 94.2114 142.87 93.8842 147.377C93.5724 151.672 93.8243 155.913 94.9401 160.082C96.0362 164.177 97.8586 167.904 100.776 171.019C104.958 175.486 110.166 177.704 116.258 177.742C124.767 177.796 133.277 177.757 141.786 177.758C141.981 177.758 142.175 177.761 142.369 177.748C143.107 177.7 143.226 177.601 143.442 176.87C143.487 176.715 143.52 176.556 143.556 176.398C144.901 170.599 146.246 164.8 147.586 159C147.665 158.661 147.697 158.313 147.777 157.802Z" fill="#00C9FA"/>
<path d="M147.767 157.804C147.688 158.315 147.655 158.663 147.577 159.001C146.237 164.801 144.892 170.6 143.548 176.399C143.511 176.557 143.479 176.716 143.433 176.871C143.217 177.602 143.098 177.7 142.36 177.749C142.167 177.762 141.972 177.758 141.778 177.758C133.268 177.758 124.759 177.797 116.25 177.743C110.158 177.705 104.949 175.487 100.767 171.02C97.8502 167.904 96.0278 164.178 94.9316 160.083C93.8158 155.914 93.564 151.673 93.8758 147.378C94.2029 142.87 95.2928 138.501 96.2057 134.101C97.7115 126.847 99.2917 119.609 100.838 112.363C101.16 110.854 101.12 110.802 99.6117 110.801C95.8263 110.797 92.0404 110.802 88.2551 110.797C86.839 110.795 86.7684 110.71 87.0236 109.371C87.8415 105.081 88.6863 100.795 89.4658 96.4983C89.6414 95.5297 90.0823 95.0064 90.9975 94.6226C99.4001 91.1021 106.799 86.0838 113.17 79.5666C116.049 76.6212 118.662 73.4489 120.902 69.9912C121.51 69.0514 122.204 68.7175 123.287 68.7444C125.777 68.8053 128.269 68.7636 130.761 68.7641C130.922 68.7641 131.084 68.7622 131.246 68.7684C132.234 68.8058 132.371 68.9569 132.18 69.9605C131.655 72.7255 131.109 75.4872 130.572 78.2498C129.725 82.6002 128.876 86.9507 128.033 91.3021C127.778 92.6189 127.835 92.6851 129.185 92.6841C139.118 92.6774 149.051 92.6678 158.984 92.6606C159.34 92.6601 159.696 92.6664 160.051 92.6899C160.451 92.7163 160.621 92.9585 160.585 93.3442C160.561 93.6013 160.523 93.8584 160.474 94.1117C159.488 99.1932 158.5 104.275 157.512 109.356C157.475 109.546 157.446 109.739 157.395 109.926C157.212 110.602 157.082 110.719 156.402 110.763C156.015 110.789 155.626 110.779 155.238 110.779C145.466 110.771 135.695 110.763 125.924 110.757C124.282 110.756 124.271 110.756 123.967 112.326C121.837 123.348 119.705 134.371 117.591 145.396C117.238 147.239 116.981 149.1 117.047 150.988C117.059 151.311 117.059 151.635 117.088 151.957C117.349 154.83 118.755 156.588 121.567 157.213C123.068 157.548 124.641 157.681 126.184 157.692C132.881 157.742 139.579 157.713 146.276 157.718C146.718 157.719 147.161 157.768 147.767 157.804Z" fill="white"/>
</svg>
