<svg width="250" height="250" viewBox="0 0 250 250" fill="none" xmlns="http://www.w3.org/2000/svg">
<path d="M84.7612 188.893C119.526 188.893 147.708 160.711 147.708 125.947C147.708 91.1822 119.526 63 84.7612 63C49.9966 63 21.8145 91.1822 21.8145 125.947C21.8145 160.711 49.9966 188.893 84.7612 188.893Z" fill="url(#paint0_linear_242_93878)"/>
<path d="M77.4718 147.237C80.0715 147.237 82.179 145.13 82.179 142.53C82.179 139.93 80.0715 137.823 77.4718 137.823C74.8721 137.823 72.7646 139.93 72.7646 142.53C72.7646 145.13 74.8721 147.237 77.4718 147.237Z" fill="white"/>
<path d="M91.4279 147.237C94.0276 147.237 96.135 145.13 96.135 142.53C96.135 139.93 94.0276 137.823 91.4279 137.823C88.8282 137.823 86.7207 139.93 86.7207 142.53C86.7207 145.13 88.8282 147.237 91.4279 147.237Z" fill="white"/>
<path d="M105.343 147.237C107.943 147.237 110.05 145.13 110.05 142.53C110.05 139.93 107.943 137.823 105.343 137.823C102.743 137.823 100.636 139.93 100.636 142.53C100.636 145.13 102.743 147.237 105.343 147.237Z" fill="white"/>
<path d="M119.297 147.237C121.897 147.237 124.004 145.13 124.004 142.53C124.004 139.93 121.897 137.823 119.297 137.823C116.697 137.823 114.59 139.93 114.59 142.53C114.59 145.13 116.697 147.237 119.297 147.237Z" fill="white"/>
<path d="M133.212 147.237C135.812 147.237 137.919 145.13 137.919 142.53C137.919 139.93 135.812 137.823 133.212 137.823C130.612 137.823 128.505 139.93 128.505 142.53C128.505 145.13 130.612 147.237 133.212 147.237Z" fill="white"/>
<path d="M147.168 147.237C149.768 147.237 151.875 145.13 151.875 142.53C151.875 139.93 149.768 137.823 147.168 137.823C144.568 137.823 142.461 139.93 142.461 142.53C142.461 145.13 144.568 147.237 147.168 147.237Z" fill="white"/>
<path d="M161.08 147.237C163.68 147.237 165.787 145.13 165.787 142.53C165.787 139.93 163.68 137.823 161.08 137.823C158.481 137.823 156.373 139.93 156.373 142.53C156.373 145.13 158.481 147.237 161.08 147.237Z" fill="white"/>
<path d="M175.038 147.237C177.638 147.237 179.745 145.13 179.745 142.53C179.745 139.93 177.638 137.823 175.038 137.823C172.439 137.823 170.331 139.93 170.331 142.53C170.331 145.13 172.439 147.237 175.038 147.237Z" fill="white"/>
<path d="M188.952 147.237C191.552 147.237 193.659 145.13 193.659 142.53C193.659 139.93 191.552 137.823 188.952 137.823C186.353 137.823 184.245 139.93 184.245 142.53C184.245 145.13 186.353 147.237 188.952 147.237Z" fill="white"/>
<path d="M196.742 159.904C198.537 159.904 199.991 158.449 199.991 156.654C199.991 154.86 198.537 153.405 196.742 153.405C194.947 153.405 193.492 154.86 193.492 156.654C193.492 158.449 194.947 159.904 196.742 159.904Z" fill="white"/>
<path d="M182.329 159.904C184.123 159.904 185.578 158.449 185.578 156.654C185.578 154.86 184.123 153.405 182.329 153.405C180.534 153.405 179.079 154.86 179.079 156.654C179.079 158.449 180.534 159.904 182.329 159.904Z" fill="white"/>
<path d="M167.915 159.904C169.709 159.904 171.164 158.449 171.164 156.654C171.164 154.86 169.709 153.405 167.915 153.405C166.12 153.405 164.665 154.86 164.665 156.654C164.665 158.449 166.12 159.904 167.915 159.904Z" fill="white"/>
<path d="M153.543 159.904C155.337 159.904 156.792 158.449 156.792 156.654C156.792 154.86 155.337 153.405 153.543 153.405C151.748 153.405 150.293 154.86 150.293 156.654C150.293 158.449 151.748 159.904 153.543 159.904Z" fill="white"/>
<path d="M139.129 159.904C140.924 159.904 142.379 158.449 142.379 156.654C142.379 154.86 140.924 153.405 139.129 153.405C137.335 153.405 135.88 154.86 135.88 156.654C135.88 158.449 137.335 159.904 139.129 159.904Z" fill="white"/>
<path d="M124.713 159.904C126.508 159.904 127.963 158.449 127.963 156.654C127.963 154.86 126.508 153.405 124.713 153.405C122.919 153.405 121.464 154.86 121.464 156.654C121.464 158.449 122.919 159.904 124.713 159.904Z" fill="white"/>
<path d="M110.341 159.904C112.136 159.904 113.591 158.449 113.591 156.654C113.591 154.86 112.136 153.405 110.341 153.405C108.547 153.405 107.092 154.86 107.092 156.654C107.092 158.449 108.547 159.904 110.341 159.904Z" fill="white"/>
<path d="M95.9274 159.904C97.7221 159.904 99.177 158.449 99.177 156.654C99.177 154.86 97.7221 153.405 95.9274 153.405C94.1326 153.405 92.6777 154.86 92.6777 156.654C92.6777 158.449 94.1326 159.904 95.9274 159.904Z" fill="white"/>
<path d="M81.5133 159.904C83.308 159.904 84.7629 158.449 84.7629 156.654C84.7629 154.86 83.308 153.405 81.5133 153.405C79.7186 153.405 78.2637 154.86 78.2637 156.654C78.2637 158.449 79.7186 159.904 81.5133 159.904Z" fill="white"/>
<path d="M204.366 169.736C206.114 169.736 207.532 168.318 207.532 166.569C207.532 164.821 206.114 163.403 204.366 163.403C202.617 163.403 201.199 164.821 201.199 166.569C201.199 168.318 202.617 169.736 204.366 169.736Z" fill="white"/>
<path d="M189.785 169.736C191.534 169.736 192.952 168.318 192.952 166.569C192.952 164.821 191.534 163.403 189.785 163.403C188.037 163.403 186.619 164.821 186.619 166.569C186.619 168.318 188.037 169.736 189.785 169.736Z" fill="white"/>
<path d="M175.164 169.736C176.913 169.736 178.331 168.318 178.331 166.569C178.331 164.821 176.913 163.403 175.164 163.403C173.416 163.403 171.998 164.821 171.998 166.569C171.998 168.318 173.416 169.736 175.164 169.736Z" fill="white"/>
<path d="M160.54 169.736C162.289 169.736 163.707 168.318 163.707 166.569C163.707 164.821 162.289 163.403 160.54 163.403C158.792 163.403 157.374 164.821 157.374 166.569C157.374 168.318 158.792 169.736 160.54 169.736Z" fill="white"/>
<path d="M145.959 169.736C147.708 169.736 149.126 168.318 149.126 166.569C149.126 164.821 147.708 163.403 145.959 163.403C144.211 163.403 142.793 164.821 142.793 166.569C142.793 168.318 144.211 169.736 145.959 169.736Z" fill="white"/>
<path d="M131.336 169.736C133.085 169.736 134.502 168.318 134.502 166.569C134.502 164.821 133.085 163.403 131.336 163.403C129.588 163.403 128.17 164.821 128.17 166.569C128.17 168.318 129.588 169.736 131.336 169.736Z" fill="white"/>
<path d="M116.756 169.736C118.505 169.736 119.922 168.318 119.922 166.569C119.922 164.821 118.505 163.403 116.756 163.403C115.007 163.403 113.59 164.821 113.59 166.569C113.59 168.318 115.007 169.736 116.756 169.736Z" fill="white"/>
<path d="M102.134 169.736C103.883 169.736 105.3 168.318 105.3 166.569C105.3 164.821 103.883 163.403 102.134 163.403C100.385 163.403 98.9678 164.821 98.9678 166.569C98.9678 168.318 100.385 169.736 102.134 169.736Z" fill="white"/>
<path d="M87.513 169.736C89.2617 169.736 90.6793 168.318 90.6793 166.569C90.6793 164.821 89.2617 163.403 87.513 163.403C85.7643 163.403 84.3467 164.821 84.3467 166.569C84.3467 168.318 85.7643 169.736 87.513 169.736Z" fill="white"/>
<path d="M214.57 179.026C215.904 179.026 216.986 177.944 216.986 176.609C216.986 175.275 215.904 174.193 214.57 174.193C213.235 174.193 212.153 175.275 212.153 176.609C212.153 177.944 213.235 179.026 214.57 179.026Z" fill="white"/>
<path d="M199.742 179.026C201.076 179.026 202.158 177.944 202.158 176.609C202.158 175.275 201.076 174.193 199.742 174.193C198.407 174.193 197.325 175.275 197.325 176.609C197.325 177.944 198.407 179.026 199.742 179.026Z" fill="white"/>
<path d="M184.953 179.026C186.288 179.026 187.37 177.944 187.37 176.609C187.37 175.275 186.288 174.193 184.953 174.193C183.619 174.193 182.537 175.275 182.537 176.609C182.537 177.944 183.619 179.026 184.953 179.026Z" fill="white"/>
<path d="M170.163 179.026C171.498 179.026 172.58 177.944 172.58 176.609C172.58 175.275 171.498 174.193 170.163 174.193C168.829 174.193 167.747 175.275 167.747 176.609C167.747 177.944 168.829 179.026 170.163 179.026Z" fill="white"/>
<path d="M155.375 179.026C156.71 179.026 157.792 177.944 157.792 176.609C157.792 175.275 156.71 174.193 155.375 174.193C154.041 174.193 152.959 175.275 152.959 176.609C152.959 177.944 154.041 179.026 155.375 179.026Z" fill="white"/>
<path d="M140.544 179.026C141.879 179.026 142.961 177.944 142.961 176.609C142.961 175.275 141.879 174.193 140.544 174.193C139.21 174.193 138.128 175.275 138.128 176.609C138.128 177.944 139.21 179.026 140.544 179.026Z" fill="white"/>
<path d="M125.756 179.026C127.091 179.026 128.173 177.944 128.173 176.609C128.173 175.275 127.091 174.193 125.756 174.193C124.422 174.193 123.34 175.275 123.34 176.609C123.34 177.944 124.422 179.026 125.756 179.026Z" fill="white"/>
<path d="M110.966 179.026C112.301 179.026 113.383 177.944 113.383 176.609C113.383 175.275 112.301 174.193 110.966 174.193C109.632 174.193 108.55 175.275 108.55 176.609C108.55 177.944 109.632 179.026 110.966 179.026Z" fill="white"/>
<path d="M96.1781 179.026C97.5126 179.026 98.5945 177.944 98.5945 176.609C98.5945 175.275 97.5126 174.193 96.1781 174.193C94.8436 174.193 93.7617 175.275 93.7617 176.609C93.7617 177.944 94.8436 179.026 96.1781 179.026Z" fill="white"/>
<path d="M226.403 187.357C227.416 187.357 228.237 186.536 228.237 185.524C228.237 184.511 227.416 183.691 226.403 183.691C225.391 183.691 224.57 184.511 224.57 185.524C224.57 186.536 225.391 187.357 226.403 187.357Z" fill="white"/>
<path d="M211.488 187.357C212.501 187.357 213.322 186.536 213.322 185.524C213.322 184.511 212.501 183.691 211.488 183.691C210.476 183.691 209.655 184.511 209.655 185.524C209.655 186.536 210.476 187.357 211.488 187.357Z" fill="white"/>
<path d="M196.575 187.357C197.588 187.357 198.408 186.536 198.408 185.524C198.408 184.511 197.588 183.691 196.575 183.691C195.563 183.691 194.742 184.511 194.742 185.524C194.742 186.536 195.563 187.357 196.575 187.357Z" fill="white"/>
<path d="M181.662 187.357C182.675 187.357 183.495 186.536 183.495 185.524C183.495 184.511 182.675 183.691 181.662 183.691C180.65 183.691 179.829 184.511 179.829 185.524C179.829 186.536 180.65 187.357 181.662 187.357Z" fill="white"/>
<path d="M166.747 187.357C167.76 187.357 168.58 186.536 168.58 185.524C168.58 184.511 167.76 183.691 166.747 183.691C165.735 183.691 164.914 184.511 164.914 185.524C164.914 186.536 165.735 187.357 166.747 187.357Z" fill="white"/>
<path d="M151.793 187.357C152.805 187.357 153.626 186.536 153.626 185.524C153.626 184.511 152.805 183.691 151.793 183.691C150.781 183.691 149.96 184.511 149.96 185.524C149.96 186.536 150.781 187.357 151.793 187.357Z" fill="white"/>
<path d="M136.878 187.357C137.89 187.357 138.711 186.536 138.711 185.524C138.711 184.511 137.89 183.691 136.878 183.691C135.866 183.691 135.045 184.511 135.045 185.524C135.045 186.536 135.866 187.357 136.878 187.357Z" fill="white"/>
<path d="M121.964 187.357C122.976 187.357 123.797 186.536 123.797 185.524C123.797 184.511 122.976 183.691 121.964 183.691C120.952 183.691 120.131 184.511 120.131 185.524C120.131 186.536 120.952 187.357 121.964 187.357Z" fill="white"/>
<path d="M107.051 187.357C108.063 187.357 108.884 186.536 108.884 185.524C108.884 184.511 108.063 183.691 107.051 183.691C106.038 183.691 105.218 184.511 105.218 185.524C105.218 186.536 106.038 187.357 107.051 187.357Z" fill="white"/>
<path d="M70.6822 132.45C72.4769 132.45 73.9318 130.995 73.9318 129.201C73.9318 127.406 72.4769 125.951 70.6822 125.951C68.8875 125.951 67.4326 127.406 67.4326 129.201C67.4326 130.995 68.8875 132.45 70.6822 132.45Z" fill="white"/>
<path d="M85.0953 132.45C86.89 132.45 88.3449 130.995 88.3449 129.201C88.3449 127.406 86.89 125.951 85.0953 125.951C83.3006 125.951 81.8457 127.406 81.8457 129.201C81.8457 130.995 83.3006 132.45 85.0953 132.45Z" fill="white"/>
<path d="M99.5104 132.45C101.305 132.45 102.76 130.995 102.76 129.201C102.76 127.406 101.305 125.951 99.5104 125.951C97.7156 125.951 96.2607 127.406 96.2607 129.201C96.2607 130.995 97.7156 132.45 99.5104 132.45Z" fill="white"/>
<path d="M113.882 132.45C115.677 132.45 117.132 130.995 117.132 129.201C117.132 127.406 115.677 125.951 113.882 125.951C112.088 125.951 110.633 127.406 110.633 129.201C110.633 130.995 112.088 132.45 113.882 132.45Z" fill="white"/>
<path d="M128.296 132.45C130.09 132.45 131.545 130.995 131.545 129.201C131.545 127.406 130.09 125.951 128.296 125.951C126.501 125.951 125.046 127.406 125.046 129.201C125.046 130.995 126.501 132.45 128.296 132.45Z" fill="white"/>
<path d="M142.711 132.45C144.505 132.45 145.96 130.995 145.96 129.201C145.96 127.406 144.505 125.951 142.711 125.951C140.916 125.951 139.461 127.406 139.461 129.201C139.461 130.995 140.916 132.45 142.711 132.45Z" fill="white"/>
<path d="M157.083 132.45C158.877 132.45 160.332 130.995 160.332 129.201C160.332 127.406 158.877 125.951 157.083 125.951C155.288 125.951 153.833 127.406 153.833 129.201C153.833 130.995 155.288 132.45 157.083 132.45Z" fill="white"/>
<path d="M171.498 132.45C173.292 132.45 174.747 130.995 174.747 129.201C174.747 127.406 173.292 125.951 171.498 125.951C169.703 125.951 168.248 127.406 168.248 129.201C168.248 130.995 169.703 132.45 171.498 132.45Z" fill="white"/>
<path d="M185.912 132.45C187.706 132.45 189.161 130.995 189.161 129.201C189.161 127.406 187.706 125.951 185.912 125.951C184.117 125.951 182.662 127.406 182.662 129.201C182.662 130.995 184.117 132.45 185.912 132.45Z" fill="white"/>
<path d="M63.0569 122.413C64.8056 122.413 66.2232 120.995 66.2232 119.247C66.2232 117.498 64.8056 116.08 63.0569 116.08C61.3082 116.08 59.8906 117.498 59.8906 119.247C59.8906 120.995 61.3082 122.413 63.0569 122.413Z" fill="white"/>
<path d="M77.638 122.413C79.3867 122.413 80.8043 120.995 80.8043 119.247C80.8043 117.498 79.3867 116.08 77.638 116.08C75.8893 116.08 74.4717 117.498 74.4717 119.247C74.4717 120.995 75.8893 122.413 77.638 122.413Z" fill="white"/>
<path d="M92.262 122.413C94.0107 122.413 95.4283 120.995 95.4283 119.247C95.4283 117.498 94.0107 116.08 92.262 116.08C90.5133 116.08 89.0957 117.498 89.0957 119.247C89.0957 120.995 90.5133 122.413 92.262 122.413Z" fill="white"/>
<path d="M106.883 122.413C108.632 122.413 110.049 120.995 110.049 119.247C110.049 117.498 108.632 116.08 106.883 116.08C105.134 116.08 103.717 117.498 103.717 119.247C103.717 120.995 105.134 122.413 106.883 122.413Z" fill="white"/>
<path d="M121.464 122.413C123.213 122.413 124.63 120.995 124.63 119.247C124.63 117.498 123.213 116.08 121.464 116.08C119.715 116.08 118.298 117.498 118.298 119.247C118.298 120.995 119.715 122.413 121.464 122.413Z" fill="white"/>
<path d="M136.087 122.413C137.836 122.413 139.253 120.995 139.253 119.247C139.253 117.498 137.836 116.08 136.087 116.08C134.338 116.08 132.921 117.498 132.921 119.247C132.921 120.995 134.338 122.413 136.087 122.413Z" fill="white"/>
<path d="M150.668 122.413C152.417 122.413 153.835 120.995 153.835 119.247C153.835 117.498 152.417 116.08 150.668 116.08C148.92 116.08 147.502 117.498 147.502 119.247C147.502 120.995 148.92 122.413 150.668 122.413Z" fill="white"/>
<path d="M165.29 122.413C167.039 122.413 168.457 120.995 168.457 119.247C168.457 117.498 167.039 116.08 165.29 116.08C163.542 116.08 162.124 117.498 162.124 119.247C162.124 120.995 163.542 122.413 165.29 122.413Z" fill="white"/>
<path d="M179.909 122.413C181.658 122.413 183.076 120.995 183.076 119.247C183.076 117.498 181.658 116.08 179.909 116.08C178.161 116.08 176.743 117.498 176.743 119.247C176.743 120.995 178.161 122.413 179.909 122.413Z" fill="white"/>
<path d="M52.8519 111.664C54.1865 111.664 55.2683 110.582 55.2683 109.248C55.2683 107.913 54.1865 106.831 52.8519 106.831C51.5174 106.831 50.4355 107.913 50.4355 109.248C50.4355 110.582 51.5174 111.664 52.8519 111.664Z" fill="white"/>
<path d="M67.684 111.664C69.0185 111.664 70.1003 110.582 70.1003 109.248C70.1003 107.913 69.0185 106.831 67.684 106.831C66.3494 106.831 65.2676 107.913 65.2676 109.248C65.2676 110.582 66.3494 111.664 67.684 111.664Z" fill="white"/>
<path d="M82.472 111.664C83.8066 111.664 84.8884 110.582 84.8884 109.248C84.8884 107.913 83.8066 106.831 82.472 106.831C81.1375 106.831 80.0557 107.913 80.0557 109.248C80.0557 110.582 81.1375 111.664 82.472 111.664Z" fill="white"/>
<path d="M97.2601 111.664C98.5947 111.664 99.6765 110.582 99.6765 109.248C99.6765 107.913 98.5947 106.831 97.2601 106.831C95.9256 106.831 94.8438 107.913 94.8438 109.248C94.8438 110.582 95.9256 111.664 97.2601 111.664Z" fill="white"/>
<path d="M112.05 111.664C113.385 111.664 114.467 110.582 114.467 109.248C114.467 107.913 113.385 106.831 112.05 106.831C110.716 106.831 109.634 107.913 109.634 109.248C109.634 110.582 110.716 111.664 112.05 111.664Z" fill="white"/>
<path d="M126.878 111.664C128.213 111.664 129.295 110.582 129.295 109.248C129.295 107.913 128.213 106.831 126.878 106.831C125.544 106.831 124.462 107.913 124.462 109.248C124.462 110.582 125.544 111.664 126.878 111.664Z" fill="white"/>
<path d="M141.668 111.664C143.003 111.664 144.085 110.582 144.085 109.248C144.085 107.913 143.003 106.831 141.668 106.831C140.334 106.831 139.252 107.913 139.252 109.248C139.252 110.582 140.334 111.664 141.668 111.664Z" fill="white"/>
<path d="M156.459 111.664C157.794 111.664 158.876 110.582 158.876 109.248C158.876 107.913 157.794 106.831 156.459 106.831C155.125 106.831 154.043 107.913 154.043 109.248C154.043 110.582 155.125 111.664 156.459 111.664Z" fill="white"/>
<path d="M171.247 111.664C172.582 111.664 173.664 110.582 173.664 109.248C173.664 107.913 172.582 106.831 171.247 106.831C169.913 106.831 168.831 107.913 168.831 109.248C168.831 110.582 169.913 111.664 171.247 111.664Z" fill="white"/>
<path d="M41.0206 102.165C42.033 102.165 42.8537 101.344 42.8537 100.332C42.8537 99.3192 42.033 98.4985 41.0206 98.4985C40.0082 98.4985 39.1875 99.3192 39.1875 100.332C39.1875 101.344 40.0082 102.165 41.0206 102.165Z" fill="white"/>
<path d="M55.9347 102.165C56.9471 102.165 57.7678 101.344 57.7678 100.332C57.7678 99.3192 56.9471 98.4985 55.9347 98.4985C54.9223 98.4985 54.1016 99.3192 54.1016 100.332C54.1016 101.344 54.9223 102.165 55.9347 102.165Z" fill="white"/>
<path d="M70.8487 102.165C71.8611 102.165 72.6819 101.344 72.6819 100.332C72.6819 99.3192 71.8611 98.4985 70.8487 98.4985C69.8363 98.4985 69.0156 99.3192 69.0156 100.332C69.0156 101.344 69.8363 102.165 70.8487 102.165Z" fill="white"/>
<path d="M85.7609 102.165C86.7733 102.165 87.594 101.344 87.594 100.332C87.594 99.3192 86.7733 98.4985 85.7609 98.4985C84.7485 98.4985 83.9277 99.3192 83.9277 100.332C83.9277 101.344 84.7485 102.165 85.7609 102.165Z" fill="white"/>
<path d="M100.72 102.165C101.732 102.165 102.553 101.344 102.553 100.332C102.553 99.3192 101.732 98.4985 100.72 98.4985C99.7074 98.4985 98.8867 99.3192 98.8867 100.332C98.8867 101.344 99.7074 102.165 100.72 102.165Z" fill="white"/>
<path d="M115.633 102.165C116.645 102.165 117.466 101.344 117.466 100.332C117.466 99.3192 116.645 98.4985 115.633 98.4985C114.621 98.4985 113.8 99.3192 113.8 100.332C113.8 101.344 114.621 102.165 115.633 102.165Z" fill="white"/>
<path d="M130.547 102.165C131.559 102.165 132.38 101.344 132.38 100.332C132.38 99.3192 131.559 98.4985 130.547 98.4985C129.535 98.4985 128.714 99.3192 128.714 100.332C128.714 101.344 129.535 102.165 130.547 102.165Z" fill="white"/>
<path d="M145.46 102.165C146.472 102.165 147.293 101.344 147.293 100.332C147.293 99.3192 146.472 98.4985 145.46 98.4985C144.448 98.4985 143.627 99.3192 143.627 100.332C143.627 101.344 144.448 102.165 145.46 102.165Z" fill="white"/>
<path d="M160.375 102.165C161.388 102.165 162.208 101.344 162.208 100.332C162.208 99.3192 161.388 98.4985 160.375 98.4985C159.363 98.4985 158.542 99.3192 158.542 100.332C158.542 101.344 159.363 102.165 160.375 102.165Z" fill="white"/>
<defs>
<linearGradient id="paint0_linear_242_93878" x1="-7.88839" y1="125.94" x2="118.39" y2="125.94" gradientUnits="userSpaceOnUse">
<stop stop-color="#3B007F"/>
<stop offset="1" stop-color="#AA003D"/>
</linearGradient>
</defs>
</svg>
