<svg width="250" height="250" viewBox="0 0 250 250" fill="none" xmlns="http://www.w3.org/2000/svg">
<path d="M125 250C194.035 250 250 194.035 250 125C250 55.9646 194.035 0 125 0C55.9646 0 0 55.9646 0 125C0 194.035 55.9646 250 125 250Z" fill="#7C2AFA"/>
<path fill-rule="evenodd" clip-rule="evenodd" d="M216.681 127.708C216.662 128.328 215.819 128.492 215.575 127.921C215.47 127.674 215.363 127.427 215.255 127.18C215.056 126.727 215.112 126.201 215.408 125.806C215.47 125.725 215.595 125.561 215.744 125.366C216.145 124.842 216.723 124.92 216.723 125.502C216.723 126.265 216.705 126.926 216.681 127.708ZM212.242 115.587C211.558 116.818 209.805 116.875 209.046 115.688C208.929 115.504 208.81 115.321 208.69 115.136C205.954 110.936 202.806 106.813 199.289 102.806C198.426 101.822 199.132 100.278 200.441 100.278H200.473C208.69 100.278 212.998 102.307 214.313 104.785C215.41 106.858 215.074 110.483 212.242 115.587ZM210.405 158.554C209.965 159.675 209.503 160.789 209.019 161.892C208.943 162.044 208.872 162.198 208.794 162.349C205.769 168.17 200.694 172.753 193.912 175.943C192.39 176.658 190.726 175.266 191.179 173.647C193.431 165.588 195.135 156.849 196.24 147.687C196.446 145.978 197.288 144.41 198.591 143.284C201.379 140.871 203.984 138.462 206.38 136.07L206.406 136.043C207.585 134.867 209.596 135.373 210.076 136.969C212.443 144.836 212.575 152.164 210.405 158.554ZM191.971 187.649C191.281 188.386 190.577 189.115 189.859 189.832C188.609 191.081 187.329 192.288 186.021 193.454C185.197 194.189 183.949 193.27 184.416 192.268C184.549 191.982 184.681 191.695 184.813 191.404C185.362 190.193 185.893 188.95 186.409 187.684C186.531 187.386 186.788 187.163 187.101 187.083C188.402 186.753 189.67 186.388 190.905 185.99C191.906 185.668 192.69 186.881 191.971 187.649ZM178.433 180.374C175.695 180.771 172.816 181.027 169.804 181.133C162.456 181.39 154.685 180.756 146.704 179.287C145.73 179.108 145.543 177.793 146.426 177.347C148.167 176.465 149.909 175.564 151.65 174.642C163.863 168.169 175.259 161.094 185.234 153.84C185.983 153.296 187.013 153.938 186.861 154.851C185.478 163.164 183.562 170.99 181.157 178.094C180.747 179.304 179.698 180.191 178.433 180.374ZM175.61 191.45C169.061 204.327 160.997 211.557 153.18 211.411C144.684 211.26 136.212 202.413 129.938 187.142L129.931 187.125C129.532 186.155 129.99 185.046 130.951 184.629C131.017 184.599 131.084 184.57 131.15 184.54C131.562 184.361 132.024 184.329 132.458 184.451C144.193 187.744 155.756 189.463 166.59 189.463C167.767 189.463 168.936 189.443 170.096 189.403C171.453 189.354 172.788 189.278 174.1 189.173C175.317 189.077 176.164 190.362 175.61 191.45ZM136.833 215.938C132.94 216.438 128.989 216.694 125 216.694C107.171 216.694 90.1183 211.642 75.4778 202.216C74.4705 201.566 74.8986 200.004 76.0956 199.949C76.3439 199.937 76.5759 199.924 76.78 199.912C80.5006 199.67 84.5801 199.125 89.0004 198.273C98.4031 196.465 108.855 193.363 119.8 189.185C120.781 188.811 121.876 189.297 122.275 190.268C122.278 190.275 122.28 190.28 122.283 190.286C126.524 200.61 131.744 208.412 137.605 213.375C138.573 214.196 138.092 215.776 136.833 215.938ZM83.7905 151.679C91.8729 145.099 101.343 138.532 111.731 132.316C111.954 145.601 113.411 158.356 115.99 169.877C112.137 168.234 108.296 166.425 104.488 164.447C97.1125 160.615 90.1731 156.322 83.7905 151.679ZM58.6546 187.276C56.7263 183.639 59.2184 175.213 71.8786 162.407L71.8849 162.401C73.2069 161.065 73.0801 158.874 71.6043 157.711C71.097 157.313 70.5934 156.91 70.0934 156.507C68.8325 155.488 67.0077 155.582 65.8628 156.728C65.6119 156.979 65.4249 157.168 65.37 157.225C59.0413 163.72 54.612 169.732 52.1307 175.14C51.4274 176.672 49.3031 176.838 48.3732 175.431C38.5514 160.586 33.2758 143.19 33.2758 124.982C33.2758 118.472 33.9521 112.066 35.2679 105.844C35.4666 104.902 36.795 104.842 37.0738 105.763C38.9768 112.045 42.0741 118.543 46.3541 125.113C52.1154 133.96 59.7131 142.464 68.7165 150.265C71.7896 152.927 75.0353 155.503 78.4204 157.987C85.2825 163.022 92.739 167.668 100.672 171.789C104.189 173.617 107.613 175.36 111.121 176.939C113.073 177.818 115.296 177.886 117.289 177.104C118.942 176.456 120.608 175.783 122.284 175.082C124.106 174.323 125.094 172.336 124.611 170.422C124.551 170.182 124.503 169.99 124.476 169.877C121.714 158.255 120.179 145.172 119.998 131.469L119.993 131.472C119.991 131.309 119.992 131.143 119.99 130.979C119.982 130.23 119.987 129.475 119.973 128.728C119.969 128.49 119.976 128.086 119.978 127.847C119.98 127.752 119.978 127.657 119.978 127.563C119.979 127.563 119.981 127.562 119.982 127.562C119.987 126.704 119.993 125.847 120.008 124.986C120.05 122.636 120.135 120.302 120.256 117.988C120.255 117.989 120.254 117.99 120.252 117.99C121.104 101.455 123.908 85.9169 128.369 72.8466C128.782 71.6372 128.137 70.3243 126.928 69.9116C125.749 69.5087 124.571 69.1238 123.394 68.7551C122.204 68.382 120.933 69.024 120.531 70.2047C115.695 84.399 112.711 101.239 111.915 119.059C111.813 121.319 110.583 123.377 108.636 124.531C98.0802 130.786 88.3861 137.416 80.0114 144.1C78.2667 145.493 75.7746 145.44 74.0874 143.977C65.6938 136.701 58.6294 128.797 53.289 120.597C42.7945 104.485 40.3006 89.3061 46.2687 77.8643C46.2849 77.8373 46.2993 77.8095 46.3146 77.7834C47.0754 76.5209 47.8669 75.2754 48.6907 74.0471C55.5482 64.9712 68.3118 59.7116 85.2393 59.1172C86.3104 59.0795 87.3888 59.0606 88.477 59.0606C98.86 59.0606 110.003 60.7736 121.336 64.0432L121.338 64.0405C121.587 64.1124 121.835 64.1871 122.083 64.2599C122.275 64.3166 122.466 64.3696 122.658 64.4272C122.658 64.4263 122.657 64.4281 122.658 64.4272C125.277 65.2095 127.903 66.0772 130.532 67.0232C130.532 67.0241 130.533 67.0223 130.532 67.0232C130.594 67.0448 130.656 67.0673 130.717 67.0889C131.402 67.3362 132.086 67.5897 132.771 67.8478C132.985 67.9288 133.2 68.0106 133.414 68.0933C133.62 68.1724 133.826 68.2489 134.033 68.3289L134.03 68.3325C139.565 70.4745 145.095 72.9653 150.555 75.8033C161.126 81.294 170.801 87.7306 179.22 94.7922C163.152 98.4728 144.474 105.573 125.695 115.146C124.829 115.589 124.258 116.459 124.204 117.43C124.138 118.594 124.052 120.934 123.99 122.793C123.951 123.96 125.186 124.734 126.22 124.191L126.231 124.184C144.824 114.422 163.38 107.126 179.316 103.27C182.294 102.55 184.223 99.6894 183.804 96.6545C183.511 94.5342 183.181 92.4471 182.816 90.3968C182.357 87.8214 180.947 85.5185 178.866 83.9341C171.402 78.2492 163.177 73.0346 154.371 68.4593C148.437 65.3768 142.416 62.6755 136.383 60.3717C135.092 59.8789 134.539 58.3538 135.213 57.1479C141.429 46.029 148.822 39.8019 156.025 39.8019C156.1 39.8019 156.175 39.8019 156.249 39.8037C164.745 39.9556 173.217 48.8013 179.491 64.0729C182.667 71.8035 185.127 80.7184 186.809 90.4067C186.8 90.3986 186.791 90.3914 186.783 90.3833C187.501 94.518 188.079 98.7911 188.508 103.175C188.471 103.198 188.432 103.219 188.395 103.242C188.445 103.294 188.498 103.345 188.549 103.397C189.261 110.753 189.561 118.412 189.421 126.228C189.333 131.172 189.069 136.048 188.643 140.818C177.276 150.003 163.222 159.144 147.774 167.329C142.697 170.02 137.621 172.524 132.595 174.83C132.516 174.866 132.439 174.901 132.361 174.937C131.977 175.112 131.592 175.29 131.208 175.464C131.204 175.463 131.201 175.462 131.199 175.461C127.034 177.345 122.909 179.088 118.852 180.679C118.852 180.68 118.853 180.682 118.853 180.683C118.624 180.773 118.397 180.859 118.168 180.948C117.883 181.06 117.598 181.169 117.314 181.279C116.633 181.54 115.955 181.797 115.278 182.05C115.092 182.119 114.905 182.192 114.719 182.26C113.898 182.565 113.081 182.861 112.267 183.152C112.166 183.188 112.064 183.227 111.963 183.263C111.962 183.262 111.961 183.262 111.96 183.261C103.266 186.357 94.9838 188.696 87.4364 190.148C69.1985 193.659 60.6106 190.965 58.6546 187.276ZM71.7536 50.2868C87.19 39.2344 105.636 33.2708 125 33.2708C130.111 33.2708 135.156 33.6889 140.1 34.5045C141.423 34.723 141.868 36.4127 140.812 37.2409C136.021 40.996 131.57 46.5523 127.631 53.7578C126.67 55.5158 124.631 56.3755 122.703 55.8324C109.652 52.159 96.8121 50.4307 84.9488 50.8471C80.5726 51.0008 76.4284 51.4441 72.5351 52.1617C71.4415 52.3631 70.8497 50.9334 71.7536 50.2868ZM197.661 117.126C197.634 116.075 198.983 115.626 199.592 116.482C200.342 117.534 201.064 118.59 201.755 119.652C202.675 121.064 203.53 122.468 204.325 123.862C204.82 124.732 204.702 125.823 204.027 126.562C202.956 127.738 201.794 128.954 200.532 130.215C200.072 130.674 199.602 131.134 199.124 131.596C198.53 132.169 197.535 131.732 197.567 130.907C197.626 129.403 197.669 127.893 197.696 126.376C197.752 123.268 197.738 120.183 197.661 117.126ZM188.148 58.4662C188.725 59.0129 189.295 59.5686 189.859 60.1325C198.698 68.9701 205.506 79.2968 210.058 90.5434C210.518 91.6773 209.555 92.8643 208.35 92.6476C205.716 92.1746 202.752 91.9633 199.47 92.0181C197.196 92.0559 195.219 90.4625 194.82 88.2234C193.036 78.2249 190.458 68.9889 187.146 60.9283C186.958 60.4688 186.767 60.0147 186.573 59.5651C186.153 58.584 187.374 57.7306 188.148 58.4662ZM222.84 104.186C218.888 85.4133 209.596 68.1644 195.71 54.2803C176.823 35.3956 151.711 24.9961 125 24.9961C98.2889 24.9961 73.1763 35.3956 54.2891 54.2803C49.6952 58.8735 45.6095 63.8364 42.0472 69.0986C40.9877 70.5086 40.0389 71.9978 39.1953 73.5561C29.9419 88.9302 25 106.577 25 124.982C25 151.69 35.4019 176.798 54.2891 195.683C73.1763 214.567 98.2889 224.969 125 224.969C151.711 224.969 176.823 214.567 195.71 195.683C204.624 186.771 211.646 176.471 216.578 165.272C217.18 164.031 217.706 162.76 218.159 161.464C222.648 149.994 225 137.669 225 124.982C225 117.999 224.282 111.128 222.895 104.445C222.876 104.359 222.859 104.273 222.84 104.186Z" fill="white"/>
</svg>
