<svg width="250" height="250" viewBox="0 0 250 250" fill="none" xmlns="http://www.w3.org/2000/svg">
<g clip-path="url(#clip0_242_94346)">
<path d="M203.592 162.178H45.75V186.787H203.592V162.178Z" fill="#08309B"/>
<path d="M204.57 92.6055C190.145 92.6055 182.495 91.0227 175.746 89.6263C169.305 88.2936 163.742 87.1427 151.763 87.1427C139.784 87.1427 134.222 88.2936 127.78 89.6263C121.031 91.0227 113.381 92.6055 98.9557 92.6055C84.5308 92.6055 76.8805 91.0227 70.1309 89.6263C63.6897 88.2936 58.127 87.1427 46.1484 87.1427V63.2441C60.5733 63.2441 68.2234 64.827 74.9731 66.2233C81.4143 67.5561 86.977 68.7069 98.9557 68.7069C110.934 68.7069 116.497 67.5561 122.938 66.2233C129.688 64.827 137.338 63.2441 151.763 63.2441C166.188 63.2441 173.838 64.827 180.588 66.2233C187.029 67.5553 192.592 68.7053 204.57 68.7053V92.6055Z" fill="#08309B"/>
<path d="M203.883 140.884C189.458 140.884 181.808 139.302 175.058 137.905C168.617 136.573 163.054 135.422 151.076 135.422C139.097 135.422 133.534 136.573 127.093 137.905C120.343 139.302 112.693 140.884 98.2682 140.884C83.8431 140.884 76.1932 139.302 69.4437 137.905C63.0024 136.573 57.4397 135.421 45.4609 135.421V111.522C59.8858 111.522 67.5361 113.105 74.2855 114.502C80.7268 115.834 86.2895 116.985 98.2682 116.985C110.247 116.985 115.81 115.834 122.251 114.502C129 113.105 136.65 111.522 151.076 111.522C165.501 111.522 173.151 113.105 179.9 114.502C186.342 115.834 191.904 116.985 203.883 116.985V140.884Z" fill="#08309B"/>
</g>
<defs>
<clipPath id="clip0_242_94346">
<rect width="159.112" height="159.112" fill="white" transform="translate(45.4609 45.46)"/>
</clipPath>
</defs>
</svg>
