<svg width="250" height="250" viewBox="0 0 250 250" fill="none" xmlns="http://www.w3.org/2000/svg">
<g clip-path="url(#clip0_242_94323)">
<path d="M182.473 63.1406H67.5595C55.3744 63.1406 45.4609 73.0541 45.4609 85.2395V164.795C45.4609 176.981 55.3744 186.894 67.5595 186.894H182.473C194.66 186.894 204.573 176.981 204.573 164.795V85.2395C204.573 73.0541 194.66 63.1406 182.473 63.1406ZM195.733 164.795C195.729 168.311 194.331 171.681 191.845 174.167C189.359 176.652 185.989 178.051 182.473 178.054H67.5595C64.0442 178.05 60.674 176.652 58.1883 174.167C55.7026 171.681 54.3044 168.311 54.3004 164.795V85.2395C54.3043 81.7241 55.7025 78.3539 58.1882 75.8682C60.6739 73.3824 64.0441 71.9841 67.5595 71.9801H182.473C185.989 71.984 189.359 73.3822 191.845 75.868C194.331 78.3537 195.729 81.724 195.733 85.2395V164.795Z" fill="#6B85F6"/>
<path d="M125.016 89.6582C105.52 89.6582 89.6582 105.52 89.6582 125.016C89.6582 144.513 105.52 160.374 125.016 160.374C144.513 160.374 160.374 144.513 160.374 125.016C160.374 105.519 144.513 89.6582 125.016 89.6582ZM125.016 151.535C110.394 151.535 98.4977 139.639 98.4977 125.016C98.4977 110.394 110.394 98.4975 125.016 98.4975C139.639 98.4975 151.535 110.394 151.535 125.016C151.535 139.638 139.639 151.535 125.016 151.535Z" fill="#6B85F6"/>
<path d="M133.855 127.225H125.015V118.386C125.019 117.803 124.907 117.226 124.687 116.686C124.466 116.147 124.141 115.657 123.73 115.243C123.319 114.83 122.831 114.502 122.293 114.278C121.755 114.055 121.178 113.939 120.596 113.939C120.013 113.939 119.436 114.055 118.898 114.278C118.36 114.502 117.872 114.83 117.461 115.243C117.05 115.657 116.725 116.147 116.505 116.686C116.284 117.226 116.172 117.803 116.176 118.386V136.065H133.855C135.022 136.058 136.14 135.589 136.963 134.761C137.786 133.933 138.248 132.812 138.248 131.645C138.248 130.477 137.786 129.357 136.963 128.529C136.14 127.701 135.022 127.232 133.855 127.225H133.855Z" fill="#6B85F6"/>
</g>
<defs>
<clipPath id="clip0_242_94323">
<rect width="159.112" height="159.112" fill="white" transform="translate(45.4609 45.46)"/>
</clipPath>
</defs>
</svg>
