<svg width="250" height="250" viewBox="0 0 250 250" fill="none" xmlns="http://www.w3.org/2000/svg">
<path d="M125.07 61.6947H201.835C201.835 61.6947 208.072 61.2148 209.991 66.0126C211.911 70.8104 209.191 73.5292 207.112 75.4483C205.033 77.3673 165.692 104.875 165.692 104.875L125.07 61.6947Z" fill="#70EDF7"/>
<path d="M125.07 61.695V133.822L165.692 104.875L125.07 61.695Z" fill="#3B546B"/>
<path d="M125.07 61.695L84.4492 104.875L125.07 133.822V61.695Z" fill="#30D6F7"/>
<path d="M125.069 61.695H46.8656C46.8656 61.695 41.2681 61.855 39.6689 66.8127C38.0698 71.7705 43.1875 75.4486 43.1875 75.4486L84.4483 104.875L125.069 61.695Z" fill="#0099D9"/>
<path d="M84.4492 104.873L118.354 189.794C118.354 189.794 119.514 192.015 120.987 193.017C122.461 194.019 125.173 194.314 125.173 194.314V133.819L84.4492 104.873Z" fill="#70EDF7"/>
<path d="M125.172 133.82L165.691 104.873L132.01 189.539C132.01 189.539 131.656 191.426 129.77 192.663C127.884 193.901 127.412 193.901 126.763 194.078C126.115 194.255 125.172 194.314 125.172 194.314V133.82Z" fill="#0099D9"/>
</svg>
