<svg width="250" height="250" viewBox="0 0 250 250" fill="none" xmlns="http://www.w3.org/2000/svg">
<path d="M124.221 92.6276C114.491 92.7326 107.911 99.5576 107.981 109.463C107.981 119.998 114.596 126.788 124.641 126.788H124.956V92.6276H124.221Z" fill="#17A84B"/>
<path d="M141.895 109.533C141.79 100.223 134.265 92.6976 124.92 92.6276V126.788C134.37 126.753 141.965 119.053 141.895 109.533C141.895 109.603 141.895 109.603 141.895 109.533Z" fill="#077FA2"/>
<path d="M124.992 212.082V131.722L121.667 131.792C114.282 131.792 108.542 137.497 107.597 145.022C107.107 148.802 107.107 150.027 107.002 151.287C106.827 154.297 106.057 155.557 103.047 153.807C98.7067 151.357 94.5067 148.557 90.5867 145.512C67.6267 123.987 69.7617 88.7425 97.9717 69.3525C104.587 64.8375 108.507 59.7975 106.862 51.3625C104.552 39.6375 94.3667 34.3525 84.0417 40.3025C56.9167 55.8775 43.6867 79.8875 42.6367 106.312C42.6367 113.907 43.5817 121.467 45.4717 128.852C45.5417 129.272 45.5767 129.622 45.6467 130.042C50.4067 154.052 63.9867 172.042 87.0517 183.522C92.0567 185.867 97.1667 187.792 102.452 189.297C105.112 189.787 107.037 192.167 106.897 194.897C106.967 196.577 107.142 198.222 107.422 199.902C108.752 207.427 114.632 212.117 122.472 212.187" fill="#17A84B"/>
<path d="M165.765 40.3016C155.44 34.3516 145.255 39.6366 142.98 51.3966C141.3 59.8316 145.255 64.8716 151.87 69.3866C180.01 88.7416 182.25 123.987 159.255 145.547C155.3 148.627 151.135 151.392 146.795 153.842C143.715 155.592 143.015 154.332 142.84 151.322C142.84 149.222 142.665 147.122 142.315 145.057C141.37 137.532 135.7 131.897 128.245 131.827L124.99 131.757L124.92 211.872V212.117L127.44 212.047C135.245 212.047 141.16 207.287 142.49 199.762C142.805 198.152 142.98 196.437 143.015 194.757C142.945 192.062 144.835 189.647 147.53 189.157C152.815 187.652 157.925 185.727 162.93 183.382C185.96 171.762 199.575 153.912 204.3 129.902C204.37 129.482 204.405 129.062 204.475 128.712C206.33 121.362 207.31 113.802 207.31 106.172C206.12 79.8166 192.89 55.8766 165.765 40.3016Z" fill="#077FA2"/>
</svg>
