<svg width="250" height="250" viewBox="0 0 250 250" fill="none" xmlns="http://www.w3.org/2000/svg">
<rect width="250" height="250" rx="125" fill="white"/>
<path fill-rule="evenodd" clip-rule="evenodd" d="M97.5234 75.3972V76.6479C97.5234 97.3374 124.118 108.378 124.947 108.718V32.5621C124.118 33.3563 97.5234 58.8488 97.5234 75.3972Z" fill="#5CFF96"/>
<path fill-rule="evenodd" clip-rule="evenodd" d="M124.943 32.5621V108.721C125.778 108.38 152.367 97.34 152.367 76.6479V75.3971C152.367 58.8515 125.778 33.3563 124.943 32.5621Z" fill="#00B269"/>
<path fill-rule="evenodd" clip-rule="evenodd" d="M124.443 106.979C124.443 106.979 113.265 96.5784 92.157 97.9912C71.0434 99.4067 61.4321 128.052 48.0605 127.114C48.0605 127.114 71.1218 145.872 91.0468 149.133C108.997 151.875 127.566 138.5 124.443 106.979Z" fill="#5CFF96"/>
<path fill-rule="evenodd" clip-rule="evenodd" d="M124.96 106.228C124.96 106.228 129.609 101.598 140.712 99.1016C145.047 98.1292 150.191 97.5943 156.118 97.9914C177.228 99.4069 186.84 128.052 200.214 127.114C200.214 127.114 177.15 145.87 157.228 149.133C142.646 151.359 127.656 142.952 124.215 122.827C123.421 118.173 124.374 112.146 124.96 106.228Z" fill="#00B269"/>
<path fill-rule="evenodd" clip-rule="evenodd" d="M124.138 200.375L28.7031 145.276V54.43L124.138 8.18054L219.574 54.43V145.276L124.138 200.375ZM38.4927 139.625L124.138 189.073L209.784 139.625V60.5621L124.138 19.0588L38.4927 60.5621V139.625Z" fill="#241F21"/>
<mask id="mask0_242_94200" style="mask-type:alpha" maskUnits="userSpaceOnUse" x="28" y="8" width="192" height="230">
<path d="M28.4922 237.553H219.792V8.18054H28.4922V237.553Z" fill="white"/>
</mask>
<g mask="url(#mask0_242_94200)">
<path fill-rule="evenodd" clip-rule="evenodd" d="M121.979 194.725H126.571V106.229H121.979V194.725Z" fill="#241F21"/>
<path fill-rule="evenodd" clip-rule="evenodd" d="M124.732 232.259L28.4922 176.696V181.99L124.732 237.554L219.79 182.671V177.376L124.732 232.259Z" fill="#54BD87"/>
<path fill-rule="evenodd" clip-rule="evenodd" d="M28.4922 165.973V171.268L124.732 226.834L219.792 171.951V166.657L124.732 221.537L28.4922 165.973Z" fill="#54BD87"/>
<path fill-rule="evenodd" clip-rule="evenodd" d="M124.732 216.12L219.79 161.237V155.943L124.732 210.826L28.4922 155.262V160.557L124.732 216.12Z" fill="#54BD87"/>
<path fill-rule="evenodd" clip-rule="evenodd" d="M124.142 111.258L32.5918 62.6451L34.6124 58.8389L124.142 106.377L213.673 58.8389L215.693 62.6451L124.142 111.258Z" fill="#241F21"/>
</g>
</svg>
