<svg width="250" height="250" viewBox="0 0 250 250" fill="none" xmlns="http://www.w3.org/2000/svg">
<path d="M99.3855 124.756C136.314 124.756 172.846 124.756 209.529 124.756C209.529 126.5 209.529 128.141 209.529 130.132C173.239 130.132 136.913 130.132 100.406 130.132C100.406 131.652 100.406 132.833 100.406 134.253C136.669 134.253 173.027 134.253 209.521 134.253C209.521 136.26 209.521 138.032 209.521 140.044C172.697 140.044 136.03 140.044 99.1002 140.044C96.0815 149.86 89.8032 156.745 80.307 160.178C73.6997 162.567 66.755 162.555 60.0794 160.098C47.5424 155.483 39.0682 143.17 40.4112 129.246C41.6964 115.921 50.3949 106.181 63.0289 102.858C70.8682 100.796 78.6441 102.017 85.6711 106.284C92.6623 110.529 97.1679 116.777 99.3855 124.756ZM57.634 131.928C57.6336 139.263 62.7601 144.485 70.0261 144.623C77.6988 144.769 82.723 138.834 82.9393 132.11C83.1752 124.781 76.6096 119.063 70.1937 119.095C63.7887 119.127 57.0565 124.915 57.634 131.928ZM144.184 116.774C146.562 116.774 148.785 116.774 151.247 116.774C151.247 119.137 151.247 121.157 151.247 123.099C152.52 123.099 153.551 123.099 154.594 123.099C154.594 117.789 154.594 112.637 154.594 107.404C153.434 107.404 152.404 107.404 151.056 107.404C151.056 109.502 151.056 111.506 151.056 113.495C148.654 113.495 146.575 113.495 144.188 113.495C144.188 111.277 144.188 107.136 144.188 107.136L140.772 107.114C140.772 107.114 140.772 117.945 140.772 123.191C141.923 123.191 142.904 123.191 144.184 123.191C144.184 120.99 144.184 119.023 144.184 116.774ZM174.196 115.98C174.341 115.933 174.486 115.886 174.632 115.838C176.371 118.316 178.111 120.794 179.906 123.349C181.046 123.193 182.154 123.042 183.406 122.871C181.554 120.16 179.874 117.702 178.201 115.253C179.919 112.654 181.607 110.1 183.408 107.374C181.977 107.374 180.792 107.374 179.669 107.374C177.944 109.832 176.284 112.198 174.623 114.564C174.44 114.536 174.256 114.507 174.073 114.478C174.073 112.123 174.073 109.767 174.073 107.408C172.776 107.408 171.897 107.408 170.995 107.408C170.995 112.759 170.995 117.964 170.995 123.069C172.121 123.069 173.069 123.069 174.196 123.069C174.196 120.587 174.196 118.283 174.196 115.98ZM194.903 120.306C192.96 120.306 191.126 120.306 189.034 120.306C189.124 118.863 189.197 117.716 189.279 116.404C191.338 116.404 193.063 116.404 194.857 116.404C194.857 115.411 194.857 114.606 194.857 113.578C192.896 113.578 191.027 113.578 189.262 113.578C189.262 112.253 189.262 111.155 189.262 109.897C191.257 109.897 193.064 109.897 194.791 109.897C194.791 108.943 194.791 108.16 194.791 107.43C191.669 107.43 188.654 107.43 185.676 107.43C185.676 112.708 185.676 117.817 185.676 123.089C188.863 123.089 191.861 123.089 194.903 123.089C194.903 122.133 194.903 121.251 194.903 120.306ZM162.124 113.661C162.124 112.379 162.124 109.847 162.124 109.847L167.554 109.642C167.554 109.642 167.483 108.189 167.443 107.373C164.39 107.373 161.482 107.373 158.581 107.373C158.581 112.744 158.581 117.892 158.581 123.1C161.626 123.1 164.541 123.1 167.423 123.1C167.423 122.129 167.423 121.318 167.423 120.406C165.606 120.406 163.906 120.406 162.201 120.406C162.201 119.068 162.201 117.909 162.201 116.561C164.069 116.458 165.707 116.368 167.44 116.273C167.44 115.435 167.44 114.707 167.44 113.66C165.567 113.661 163.917 113.661 162.124 113.661ZM133.724 123.082C133.724 118.668 133.724 114.422 133.724 109.903C135.376 109.903 138.424 109.903 138.424 109.903V106.988C138.424 106.988 129.037 106.998 125.883 106.998C125.883 108.265 125.883 109.057 125.883 110.013C127.277 110.013 128.55 110.013 130.089 110.013C130.089 114.406 130.089 118.641 130.089 123.082C131.522 123.082 132.534 123.082 133.724 123.082ZM206.113 107.406C205.159 109.556 204.24 111.624 203.093 114.21C201.929 111.511 201.018 109.399 200.182 107.459C198.904 107.459 197.967 107.459 196.847 107.459C197.763 109.511 199.413 113.211 199.413 113.211L201.429 117.164L201.386 123.105L204.313 123.089V117.293C204.313 117.293 208.101 110.131 209.344 107.406C208.061 107.406 207.091 107.406 206.113 107.406Z" fill="#00BCE6"/>
</svg>
