<svg width="250" height="250" viewBox="0 0 250 250" fill="none" xmlns="http://www.w3.org/2000/svg">
<g clip-path="url(#clip0_242_94719)">
<path fill-rule="evenodd" clip-rule="evenodd" d="M125 250.001C56.25 250.001 0 193.752 0 124.378C0.625 55.63 56.25 -0.618853 125.625 0.00613496C194.375 0.631122 250 56.255 250 126.253C249.375 194.377 193.75 250.001 125 250.001Z" fill="#EDF0F4"/>
<path fill-rule="evenodd" clip-rule="evenodd" d="M122.124 62.7306C119.34 63.4296 117.918 64.7801 116.491 68.0801C115.986 69.2476 114.126 73.1736 112.358 76.8051L109.143 83.4076L109.152 84.9482C109.167 87.4706 110.827 90.8856 113.406 93.6986C114.664 95.0706 117.486 97.0361 119.258 97.7731C124.992 100.159 132.394 97.6656 136.421 91.9911C138.543 88.9991 139.509 86.2331 139.342 83.6256C139.249 82.1761 139.057 81.6896 136.433 76.2481C134.887 73.0441 133.268 69.5312 132.835 68.4417C132.163 66.7537 131.833 66.2482 130.601 65.0182C129.304 63.7232 128.987 63.5261 127.505 63.0961C125.249 62.4406 123.698 62.3356 122.124 62.7306ZM139.75 94.9146C137.951 97.4221 136.512 99.5731 136.552 99.6941C136.618 99.8916 149.833 106.199 150.87 106.528C151.273 106.656 151.279 106.624 150.985 105.93C150.349 104.431 143.257 90.3406 143.142 90.3476C143.076 90.3516 141.549 92.4067 139.75 94.9146ZM102.155 97.9827C98.8546 104.977 98.5206 105.756 98.8256 105.735C99.2601 105.705 111.965 99.8921 112.028 99.6946C112.096 99.4786 105.845 91.3902 105.518 91.2701C105.426 91.2361 103.913 94.2572 102.155 97.9827ZM118.599 103.895C112.999 104.766 106.862 107.108 100.876 110.661L98.7851 111.902L122.94 111.906C136.307 111.908 147.094 111.824 147.094 111.72C147.094 111.43 144.038 109.153 142.025 107.943C138.57 105.867 133.582 104.324 128.56 103.778C125.682 103.465 121.013 103.52 118.599 103.895ZM114.191 116.749L94.6026 116.861L93.6941 117.347C92.3426 118.07 91.0991 119.628 90.2506 121.661L89.4981 123.464L105.366 123.574C114.093 123.634 121.357 123.764 121.508 123.862C121.726 124.003 121.784 130.571 121.784 155.486C121.784 175.81 121.86 186.98 122 187.066C122.118 187.14 123.041 187.258 124.049 187.329C126.134 187.476 126.641 187.304 127.297 186.229C127.715 185.544 127.724 184.836 127.725 154.551L127.726 123.574L135.374 123.543C139.58 123.526 146.721 123.452 151.241 123.378L159.46 123.244L158.154 121.255C156.726 119.081 155.531 117.927 153.833 117.081L152.729 116.531L143.254 116.584C138.042 116.613 124.964 116.687 114.191 116.749ZM89.1001 128.84C87.3806 129.132 86.7711 129.755 85.2726 132.757C83.2551 136.797 82.3866 140.645 82.3886 145.535C82.3896 147.316 82.5386 149.758 82.7196 150.961C83.7631 157.884 86.8686 165.388 90.9296 170.799C94.8591 176.035 100.868 180.767 106.805 183.302C109.459 184.435 115.984 186.81 117.142 187.064L117.857 187.221L117.72 159.304C117.645 143.949 117.533 130.968 117.47 130.457C117.391 129.807 117.186 129.394 116.789 129.082C116.233 128.644 115.969 128.636 103.101 128.663C95.8846 128.678 89.5846 128.758 89.1001 128.84ZM135.05 129.05C133.313 129.155 132.712 129.276 132.409 129.579C132.064 129.924 132.003 130.562 131.9 134.861C131.742 141.478 131.764 187.329 131.925 187.491C132.139 187.704 141.524 184.171 144.122 182.9C153.461 178.33 160.781 170.185 164.311 160.438C166.25 155.081 166.885 151.968 167.048 147.013C167.188 142.744 166.921 140.652 165.778 137.06C165.056 134.794 163.583 131.614 162.696 130.409C161.61 128.934 162.089 128.985 149.074 128.947C142.598 128.928 136.287 128.974 135.05 129.05ZM170.454 148.169C169.577 152.258 168.161 160.121 168.28 160.24C168.459 160.419 176.139 158.301 176.142 158.071C176.146 157.821 170.914 147.123 170.788 147.123C170.728 147.123 170.578 147.594 170.454 148.169ZM77.1221 149.819C76.8976 150.333 75.8081 152.677 74.7011 155.027C73.5946 157.377 72.7666 159.375 72.8616 159.467C72.9566 159.559 74.4701 160.024 76.2256 160.5C80.8121 161.744 80.6271 161.709 80.6271 161.322C80.6271 161.137 80.0331 158.313 79.3066 155.046C78.5806 151.778 77.9861 149.055 77.9861 148.994C77.9861 148.933 77.8836 148.883 77.7581 148.883C77.6331 148.883 77.3466 149.304 77.1221 149.819ZM173.628 163.761C167.825 165.047 163.23 169.309 161.857 174.678C161.22 177.169 161.113 178.914 161.475 180.906C161.939 183.465 162.621 185.086 163.709 186.222L164.65 187.204L174.231 187.136L183.811 187.068L184.76 186.401C185.282 186.035 186.004 185.257 186.365 184.674C186.926 183.766 187.019 183.402 187.008 182.15C186.99 180.232 186.68 179.451 182.747 171.442C180.571 167.012 179.276 164.625 178.808 164.186C178.197 163.613 177.93 163.526 176.633 163.478C175.82 163.448 174.468 163.575 173.628 163.761ZM70.7231 164.883C70.0331 165.238 69.6526 165.878 67.0736 171.021C63.1126 178.921 62.5526 180.297 62.5066 182.243C62.4741 183.627 62.5441 183.921 63.1381 184.884C63.5886 185.615 64.1946 186.201 64.9991 186.683L66.1921 187.398L74.2351 187.385C78.6586 187.378 82.7661 187.292 83.3636 187.194C85.7581 186.801 87.1176 184.03 87.0966 179.585C87.0871 177.579 86.9851 176.863 86.5026 175.404C84.7516 170.107 80.7436 166.487 75.0886 165.092C72.6581 164.492 71.5826 164.441 70.7231 164.883ZM91.7616 179.42C91.6416 179.803 90.9111 184.134 90.6286 186.133L90.4816 187.179H96.7176H102.954L98.3381 183.745C91.8151 178.892 91.9076 178.953 91.7616 179.42ZM151.826 182.466C149.284 184.351 146.883 186.109 146.491 186.372C146.099 186.634 145.778 186.898 145.777 186.959C145.776 187.019 148.622 187.069 152.102 187.069C156.187 187.069 158.42 186.991 158.406 186.849C158.339 186.176 156.65 179.038 156.557 179.037C156.497 179.037 154.368 180.58 151.826 182.466Z" fill="black"/>
</g>
<defs>
<clipPath id="clip0_242_94719">
<rect width="250" height="250" fill="white"/>
</clipPath>
</defs>
</svg>
