<svg width="250" height="250" viewBox="0 0 250 250" fill="none" xmlns="http://www.w3.org/2000/svg">
<path d="M124.999 244.337C190.906 244.337 244.334 190.909 244.334 125.002C244.334 59.0952 190.906 5.66724 124.999 5.66724C59.0921 5.66724 5.66406 59.0952 5.66406 125.002C5.66406 190.909 59.0921 244.337 124.999 244.337Z" stroke="#FFC04E" stroke-width="4.50059" stroke-miterlimit="10"/>
<path d="M123.632 86.7864L124.329 83.4343H56.6167L36.504 167.907H58.6279L73.8264 99.5244H100.898L84.7745 167.907H104.887L120.709 99.5244H120.977L123.377 87.9999L123.659 86.7864H123.632ZM161.873 83.4343L141.76 167.237H183.93C189.008 167.265 194.059 166.498 198.9 164.964C206.905 162.376 216.646 156.959 218.188 145.784H224.222L226.233 137.739H218.859C218.859 137.739 219.529 125.671 204.109 123.66C204.109 123.66 217.518 119.637 219.529 112.263H226.233L228.915 104.218H221.54C221.54 104.218 224.222 84.7754 195.394 83.4346H161.873V83.4343ZM47.2308 99.5244H25.7773L29.7998 83.4343H51.2533L47.2308 99.5244Z" fill="#FFC04E"/>
<path d="M190.365 116.956H173.269L177.292 98.8541H190.365C195.36 98.8504 199.412 102.897 199.416 107.891C199.416 107.896 199.416 107.9 199.416 107.905C199.419 112.9 195.373 116.952 190.378 116.956C190.374 116.956 190.369 116.956 190.365 116.956ZM185.853 151.817H165.298L170.132 131.034H185.853C191.887 131.034 196.734 135.687 196.734 141.426C196.734 147.165 191.86 151.817 185.853 151.817Z" fill="white"/>
<path d="M139.077 158.522L121.646 116.956L129.021 84.776L146.452 124.331L139.077 158.522Z" fill="#FFC04E"/>
</svg>
