<svg width="250" height="250" viewBox="0 0 250 250" fill="none" xmlns="http://www.w3.org/2000/svg">
<path d="M167.759 48.9476C172.023 56.2645 176.31 63.5675 180.546 70.9C198.873 102.623 217.187 134.354 235.489 166.091C235.771 166.581 236.253 167.007 236.226 167.615C222.742 167.615 209.272 167.615 195.816 167.615C191.403 159.772 186.798 152.312 182.676 144.574C184.981 138.108 186.691 131.458 187.069 124.624C187.43 118.092 187.367 111.536 186.388 104.987C185.299 97.7 183.771 90.545 181.576 83.5252C178.091 72.3821 173.606 61.6468 168.323 51.2399C167.959 50.523 167.466 49.8296 167.759 48.9476Z" fill="#9C0149"/>
<path d="M36.1631 128.387C39.9562 121.728 43.7199 115.053 47.5475 108.414C65.8156 76.7287 84.0994 45.0522 102.393 13.3812C102.671 12.8984 102.751 12.2293 103.53 11.9603C110.137 23.6773 116.749 35.404 123.437 47.2644C118.931 54.9524 114.427 62.6362 109.923 70.3204C109.48 70.331 109.024 70.28 108.594 70.3604C100.187 71.9326 92.3041 74.9201 84.9009 79.1874C78.7548 82.7299 73.1522 86.9857 67.8371 91.6925C61.7416 97.0905 56.1877 102.98 51.017 109.236C46.1883 115.078 41.7555 121.227 37.4892 127.493C37.1793 127.949 36.9678 128.63 36.1631 128.387Z" fill="#9C0149"/>
<path d="M178.735 205.2C178.145 205.224 177.555 205.268 176.964 205.269C130.063 205.273 83.1615 205.275 36.2603 205.277C35.8919 205.277 35.5236 205.277 34.7139 205.277C41.6757 193.474 48.4996 181.906 55.3556 170.282C64.2648 170.282 73.1239 170.282 81.983 170.282C85.0767 174.359 88.7116 177.927 92.7168 181.066C100.968 187.533 110.214 192.168 120.112 195.586C131.269 199.438 142.738 201.759 154.444 203.123C161.965 203.999 169.48 204.797 177.058 204.859C177.633 204.862 178.254 204.708 178.735 205.2Z" fill="#9C0149"/>
<path d="M36.1613 128.384C36.966 128.628 37.1771 127.946 37.4879 127.49C41.7542 121.224 46.1865 115.075 51.0156 109.233C56.1864 102.977 61.7407 97.0876 67.8357 91.6897C73.1509 86.9823 78.7535 82.7271 84.8995 79.1845C92.3028 74.9173 100.186 71.9302 108.593 70.3576C109.023 70.2771 109.478 70.3277 109.922 70.3176C105.244 78.4984 100.584 86.6899 95.8835 94.8574C89.1943 106.48 82.4739 118.085 75.7733 129.701C75.5926 130.014 75.4873 130.372 75.347 130.708L75.2445 130.648C75.1309 130.676 75.0192 130.711 74.9093 130.751C68.725 130.468 62.7551 131.723 56.8504 133.345C42.804 137.203 30.9303 144.499 21.5521 155.739C20.9175 156.5 20.414 157.49 19.3113 157.769C19.321 157.624 19.2823 157.451 19.3476 157.339C23.9004 149.487 28.4614 141.64 33.022 133.793C33.3214 133.716 33.4938 133.545 33.4483 133.214L33.3669 133.21C34.0396 133.234 34.0121 132.818 33.9058 132.353L33.8635 132.398C34.4549 132.341 34.4765 131.947 34.3992 131.494L34.356 131.549C34.8949 131.458 34.9179 131.067 34.8834 130.643L34.8499 130.685C35.1547 130.608 35.2895 130.425 35.2094 130.109L35.1556 130.1C36.3751 130.065 36.2767 129.231 36.1861 128.402L36.1613 128.384Z" fill="#C6015D"/>
<path d="M167.753 48.9488C167.461 49.8307 167.953 50.5242 168.317 51.2411C173.6 61.648 178.085 72.3832 181.57 83.5264C183.765 90.5462 185.293 97.7012 186.382 104.989C187.361 111.537 187.423 118.093 187.063 124.625C186.685 131.459 184.975 138.109 182.67 144.576C178.41 137.269 174.135 129.971 169.893 122.653C162.513 109.918 155.153 97.171 147.784 84.429C147.754 84.171 147.723 83.9135 147.692 83.6556C147.908 83.3622 148.169 83.0923 148.332 82.7718C154.671 70.2924 157.716 57.1504 156.632 43.0882C156.095 36.1121 154.56 29.4238 151.962 22.9572C151.703 22.3139 151.597 21.6895 151.68 21.0167C156.088 28.4444 160.507 35.8656 164.582 43.4846C164.585 43.9348 164.54 44.4135 165.172 44.4972L165.101 44.4346C165.071 44.7303 165.196 44.9257 165.477 45.0218L165.451 44.9846C165.45 45.3869 165.475 45.7736 165.97 45.8927L165.927 45.8371C165.888 46.2693 165.908 46.6662 166.467 46.7411L166.42 46.6892C166.334 47.1458 166.326 47.5555 166.958 47.5753L166.921 47.5578C166.794 48.0227 166.722 48.4522 167.442 48.3809L167.384 48.426C167.287 48.7575 167.434 48.9272 167.753 48.9824V48.9488Z" fill="#C6015D"/>
<path d="M178.735 205.2C178.254 204.708 177.633 204.862 177.058 204.858C169.479 204.796 161.964 203.998 154.444 203.122C142.738 201.758 131.269 199.438 120.111 195.585C110.213 192.167 100.967 187.533 92.7162 181.065C88.7111 177.926 85.0762 174.358 81.9824 170.281C82.9421 170.254 83.9018 170.205 84.8614 170.204C106.98 170.187 129.098 170.176 151.216 170.164C151.359 170.207 151.503 170.251 151.646 170.294C156.2 177.922 162.126 184.362 168.989 189.925C177.301 196.664 186.684 201.26 197.175 203.588C200.326 204.287 203.532 204.57 206.685 205.208C197.369 205.206 188.052 205.203 178.735 205.2Z" fill="#C6005D"/>
<path d="M19.3087 157.769C20.4118 157.49 20.9154 156.499 21.5495 155.739C30.9277 144.499 42.8014 137.203 56.8478 133.344C62.7525 131.722 68.7224 130.468 74.9067 130.75C74.7591 131.67 74.0767 132.295 73.6104 133.028C70.759 137.52 68.8333 142.393 68.7675 147.707C68.7041 152.861 70.5848 157.492 74.188 161.287C75.5449 162.717 77.0371 164.018 78.4676 165.379C57.2548 165.684 36.0405 165.763 14.4258 165.75C15.6554 163.682 16.4996 161.687 17.8957 159.991C18.3891 159.882 18.5045 159.528 18.4838 159.085L18.4594 159.111C18.7574 159.089 18.8907 158.909 18.922 158.631L18.8935 158.664C19.3616 158.52 19.4563 158.186 19.3547 157.754L19.3087 157.769Z" fill="#FE439A"/>
<path d="M151.681 21.0193C151.599 21.6921 151.705 22.3165 151.964 22.9598C154.562 29.4265 156.097 36.1147 156.634 43.0908C157.718 57.153 154.673 70.295 148.333 82.7744C148.171 83.0944 147.909 83.3648 147.694 83.6582C147.556 83.6127 147.415 83.5745 147.273 83.5432C146.746 82.4111 146.305 81.228 145.676 80.1557C143.065 75.6976 139.695 71.9044 135.115 69.4402C129.823 66.5933 124.288 66.5952 118.682 68.6148C117.888 68.9008 117.096 69.8411 116.11 68.9693C126.538 50.6597 136.966 32.3505 147.619 13.6469C148.86 16.1143 150.448 17.9996 151.231 20.3645C151.27 20.6781 151.319 20.9853 151.703 21.0672L151.681 21.0193Z" fill="#FE439A"/>
<path d="M206.686 205.208C203.534 204.57 200.328 204.288 197.176 203.588C186.686 201.26 177.302 196.664 168.99 189.925C162.127 184.362 156.201 177.922 151.647 170.294C151.796 170.255 151.945 170.215 152.094 170.176C155.68 170.627 159.254 170.472 162.779 169.745C167.346 168.803 171.474 166.865 174.579 163.321C177.932 159.495 179.657 154.932 179.751 149.802C180.421 150.084 180.683 150.71 181.018 151.284C191.247 168.828 201.48 186.37 211.709 203.914C211.926 204.286 212.262 204.621 212.138 205.224C210.334 205.309 208.512 205.388 206.686 205.208Z" fill="#FE439B"/>
<path d="M75.3447 130.71C91.1928 129.847 107.066 130.606 122.916 129.597C129.647 141.547 136.218 153.214 142.937 165.141C141.341 165.411 140.051 165.353 138.755 165.218C138.702 164.507 138.201 164.483 137.649 164.442C134.279 164.191 130.97 163.512 127.666 162.858C120.95 161.529 114.395 159.628 107.964 157.252C99.8201 154.244 92.6895 149.666 86.3848 143.758C82.1769 139.814 78.6003 135.322 75.2422 130.649L75.3447 130.71Z" fill="#FEA2CE"/>
<path d="M152.091 170.176C151.942 170.215 151.793 170.255 151.644 170.294C151.501 170.251 151.357 170.207 151.214 170.164C149.964 166.744 147.758 163.855 145.931 160.762C139.894 150.537 133.762 140.367 127.672 130.173C127.486 129.861 127.366 129.511 127.164 129.067C133.974 117.549 140.793 106.016 147.773 94.2123C148.572 95.6249 149.212 96.7542 149.851 97.8836C149.451 98.1834 149.744 98.228 149.999 98.2869C150.32 98.4317 150.381 98.7062 150.366 99.0194C150.282 99.8416 150.422 100.599 150.744 101.385C152.838 106.499 154.525 111.755 155.927 117.094C158.1 125.369 159.585 133.741 159.243 142.358C159.193 143.624 158.882 144.83 158.788 146.07C158.317 152.293 156.436 158.157 154.355 163.982C153.616 166.053 152.276 167.905 152.091 170.176Z" fill="#FEA2CE"/>
<path d="M147.272 83.5427C147.415 83.5735 147.556 83.6117 147.694 83.6577C147.724 83.9156 147.755 84.1732 147.786 84.4311C146.059 86.1182 145.282 88.4004 144.137 90.4333C137.917 101.476 131.807 112.58 125.651 123.658C125.26 124.362 124.797 125.025 124.35 125.736C110.982 126.187 97.6872 125.146 84.124 125.416C84.7779 123.355 85.8134 121.941 86.7542 120.479C87.633 120.567 88.074 119.969 88.5296 119.368C94.2076 111.885 100.75 105.217 107.958 99.2239C118.279 90.643 130.31 86.1123 143.548 84.4808C144.779 84.329 146.204 84.5144 147.272 83.5427Z" fill="#FEA2CE"/>
<path d="M147.275 83.5393C146.206 84.511 144.781 84.3257 143.55 84.4774C130.313 86.1089 118.282 90.6396 107.961 99.2206C100.753 105.214 94.2107 111.881 88.5322 119.365C88.0765 119.965 87.6356 120.563 86.7568 120.475C91.769 111.616 96.7595 102.744 101.799 93.8994C106.544 85.5727 111.34 77.2755 116.113 68.9654C117.098 69.8368 117.89 68.8969 118.684 68.6109C124.29 66.5913 129.825 66.5895 135.118 69.4363C139.698 71.9005 143.067 75.6937 145.679 80.1518C146.308 81.2241 146.748 82.4072 147.275 83.5393Z" fill="#FE84BE"/>
<path d="M75.2396 130.652C78.5978 135.324 82.1743 139.817 86.3822 143.76C92.6869 149.668 99.8175 154.247 107.961 157.255C114.392 159.63 120.947 161.531 127.664 162.86C130.968 163.514 134.276 164.193 137.647 164.445C138.199 164.486 138.699 164.51 138.753 165.221C129.592 165.263 120.431 165.319 111.27 165.343C100.335 165.371 89.4005 165.371 78.4653 165.383C77.0348 164.023 75.5427 162.721 74.1857 161.291C70.5825 157.496 68.7018 152.865 68.7652 147.711C68.831 142.397 70.7568 137.524 73.6082 133.032C74.074 132.299 74.7568 131.674 74.9044 130.754C75.0143 130.715 75.1261 130.68 75.2396 130.652Z" fill="#FE84BE"/>
<path d="M152.094 170.177C152.279 167.905 153.618 166.053 154.358 163.983C156.439 158.158 158.32 152.294 158.791 146.071C158.885 144.831 159.196 143.625 159.246 142.359C159.588 133.742 158.103 125.37 155.93 117.095C154.528 111.755 152.841 106.499 150.747 101.386C150.425 100.599 150.285 99.8424 150.369 99.0203C153.032 102.912 155.222 107.088 157.606 111.145C164.697 123.208 171.722 135.31 178.769 147.399C179.208 148.152 179.803 148.846 179.751 149.802C179.657 154.932 177.932 159.496 174.579 163.322C171.474 166.865 167.346 168.804 162.779 169.745C159.253 170.472 155.68 170.628 152.094 170.177Z" fill="#FE84BE"/>
<path d="M36.1864 128.407C36.2771 129.237 36.3755 130.072 35.1553 130.107C35.3729 129.464 35.6264 128.843 36.1864 128.407Z" fill="#9C0149"/>
<path d="M166.47 46.7408C165.911 46.6659 165.891 46.2686 165.931 45.8368C166.332 46.0056 166.389 46.3812 166.47 46.7408Z" fill="#9C0149"/>
<path d="M18.4827 159.089C18.5033 159.532 18.3879 159.886 17.8945 159.995C18.0201 159.648 18.0343 159.228 18.4827 159.089Z" fill="#C6015D"/>
<path d="M19.3538 157.757C19.4554 158.189 19.3612 158.523 18.8926 158.667C18.7054 158.191 18.8645 157.89 19.3538 157.757Z" fill="#C6015D"/>
<path d="M166.961 47.5773C166.328 47.5579 166.337 47.1478 166.423 46.6912C166.798 46.8677 166.876 47.2246 166.961 47.5773Z" fill="#9C0149"/>
<path d="M33.9012 132.355C34.0074 132.82 34.035 133.237 33.3623 133.212C33.4432 132.865 33.5527 132.535 33.9012 132.355Z" fill="#9C0149"/>
<path d="M34.4 131.496C34.4768 131.949 34.4556 132.344 33.8643 132.4C33.9415 132.039 33.999 131.666 34.4 131.496Z" fill="#9C0149"/>
<path d="M167.444 48.3823C166.724 48.454 166.796 48.0241 166.924 47.5592C167.252 47.7358 167.353 48.0558 167.444 48.3823Z" fill="#9C0149"/>
<path d="M34.8819 130.644C34.9164 131.068 34.8934 131.46 34.3545 131.55C34.4271 131.188 34.4722 130.81 34.8819 130.644Z" fill="#9C0149"/>
<path d="M165.969 45.8925C165.475 45.7734 165.449 45.3867 165.451 44.9844C165.836 45.166 165.906 45.5274 165.969 45.8925Z" fill="#9C0149"/>
<path d="M165.173 44.499C164.541 44.4148 164.587 43.9366 164.584 43.4865C164.97 43.7136 165.09 44.0957 165.173 44.499Z" fill="#9C0149"/>
<path d="M35.2024 130.114C35.2824 130.431 35.1481 130.614 34.8428 130.69C34.8754 130.443 34.9127 130.2 35.2024 130.114Z" fill="#9C0149"/>
<path d="M167.756 48.9827C167.437 48.9275 167.29 48.7578 167.387 48.4263C167.682 48.4975 167.719 48.7399 167.756 48.9827Z" fill="#9C0149"/>
<path d="M33.4448 133.215C33.4903 133.546 33.3179 133.717 33.0186 133.794C33.0972 133.554 33.1331 133.283 33.4448 133.215Z" fill="#9C0149"/>
<path d="M150.002 98.2879C149.747 98.2291 149.454 98.1845 149.854 97.8846C149.904 98.0189 149.953 98.1532 150.002 98.2879Z" fill="#FE84BE"/>
<path d="M18.9196 158.632C18.8884 158.91 18.755 159.091 18.457 159.112C18.5076 158.852 18.4745 158.512 18.9196 158.632Z" fill="#C6015D"/>
<path d="M151.701 21.0662C151.317 20.9843 151.268 20.6771 151.229 20.3635C151.53 20.501 151.667 20.7493 151.701 21.0662Z" fill="#C6015D"/>
<path d="M165.48 45.0227C165.199 44.9266 165.073 44.7312 165.104 44.4355C165.398 44.5234 165.449 44.7666 165.48 45.0227Z" fill="#9C0149"/>
</svg>
