<svg width="250" height="250" viewBox="0 0 250 250" fill="none" xmlns="http://www.w3.org/2000/svg">
<rect width="250" height="250" rx="125" fill="white"/>
<g clip-path="url(#clip0_242_94637)">
<path d="M74.2265 164.415C74.9182 154.04 74.7206 143.368 75.9558 132.746C76.6474 126.966 77.8826 121.235 78.3767 115.454C79.019 107.549 78.2285 99.6435 78.0308 91.6896C77.9814 89.3677 77.7344 87.0456 78.3273 84.7235C78.6237 83.5377 79.0684 82.3026 80.3035 82.0557C82.428 81.5617 81.8351 80.3759 81.3905 79.0913C80.8964 77.6585 80.4517 76.2257 79.9083 74.8425C76.9439 67.5799 79.4636 61.0583 83.0703 54.932C86.1333 49.6951 90.1352 45.0017 94.3346 40.6041C99.0282 35.6634 104.858 33.1931 111.725 33.0945C113.01 33.0945 114.294 33.0451 115.628 32.9462C116.27 32.8968 116.913 32.8968 117.604 32.8474C118.197 32.7982 118.84 32.8474 119.432 32.7488L120.025 32.6006C120.371 32.6006 120.717 32.6994 121.013 32.6994C121.755 32.7982 122.446 32.8968 123.187 33.0451C124.62 33.2921 126.053 33.5391 127.486 33.8356C130.351 34.379 133.167 35.0707 135.983 35.8118C137.515 36.2071 139.046 36.6517 140.479 37.3928C143.098 38.8256 144.975 41.2464 147.495 42.8276C149.224 43.9145 151.151 44.5568 152.732 45.8414C154.51 47.274 155.647 49.2999 156.733 51.3253C157.919 53.4992 159.105 55.6729 159.895 58.0445C160.093 58.6373 160.291 59.2796 160.439 59.8725C161.032 62.392 161.328 64.9612 161.625 67.5305C161.921 70.0501 162.267 72.6192 163.107 75.04C163.304 75.6329 163.551 76.2257 163.798 76.8186C163.918 77.0567 164.017 77.3046 164.095 77.5597C164.095 77.9056 164.045 78.2514 164.045 78.5972C163.996 86.0575 163.354 93.4683 163.205 100.928C162.958 112.983 162.119 125.038 160.785 137.044C160.538 139.168 160.834 141.243 161.328 143.269C162.761 149.296 163.205 155.324 162.316 161.549C161.575 166.786 161.575 172.172 161.229 177.507C161.081 179.879 159.797 180.867 157.475 180.916C154.757 180.966 152.287 179.829 149.569 179.78C145.765 179.681 142.109 180.571 138.404 180.966C132.179 181.558 126.152 180.422 120.025 179.681C118.938 179.582 117.901 179.088 116.814 179.138C115.678 179.138 114.591 179.187 113.454 179.138C112.906 179.121 112.361 179.055 111.824 178.94C111.478 178.841 111.231 178.693 110.885 178.644C109.403 178.495 107.921 178.495 106.439 178.397C104.957 178.347 103.474 178.248 101.992 178.199C99.0278 178.051 96.0142 177.952 93.0498 177.853C90.0854 177.754 87.0718 177.656 84.1076 177.557C83.3665 177.557 82.6254 177.507 81.8843 177.507C81.1927 177.507 80.4021 177.359 79.7105 177.458C79.5128 177.507 79.3152 177.606 79.167 177.656C78.4753 177.853 77.6356 177.754 76.9437 177.606C74.7698 177.013 74.2263 174.691 74.1769 172.715C74.1275 171.381 74.2757 170.047 74.3252 168.713C74.2265 167.379 74.2265 166.045 74.2265 164.415Z" fill="#6026EF" stroke="black" stroke-width="0.0950126" stroke-miterlimit="10"/>
<path d="M165.382 205.868C164.987 208.437 165.333 211.352 164.591 214.119C164.295 215.206 164.048 216.243 162.862 216.688C161.726 217.083 160.935 216.589 160.392 215.601C159.997 214.909 159.305 214.959 158.613 214.909C153.031 214.563 147.448 214.217 141.914 213.921C122.844 212.933 103.79 211.945 84.7527 210.957C79.4168 210.71 74.0811 210.561 68.7454 210.265C67.3126 210.166 64.4472 210.265 64.1014 208.338C64.0026 207.745 63.6567 207.251 63.5085 206.658C63.1627 205.423 63.1132 204.089 63.1132 202.805C63.0144 199.84 62.965 196.827 62.8662 193.862C62.8662 193.368 62.8662 192.874 62.8168 192.38C62.8182 192.098 62.7319 191.821 62.5698 191.59C62.2239 190.849 62.5204 190.009 63.0144 189.416C63.6567 188.626 64.546 188.28 65.4848 188.675C68.548 189.811 71.7594 189.564 74.872 189.761C89.4959 190.601 104.169 191.244 118.843 191.935C132.182 192.578 145.472 193.269 158.811 193.961C163.406 194.208 165.185 196.085 165.185 200.73C165.184 202.359 165.283 203.99 165.382 205.868Z" fill="#3B19B6" stroke="black" stroke-width="0.0950126" stroke-miterlimit="10"/>
<path d="M122.845 179.436C118.349 179.288 113.804 179.09 109.357 178.448C106.492 178.004 103.725 177.361 100.86 176.966C97.7967 176.571 94.6347 176.521 91.5717 176.472C86.8781 176.373 82.0858 176.324 77.5406 177.46C72.9954 178.596 68.5488 181.116 66.1279 185.167C70.4263 188.329 76.0584 188.724 81.3941 189.021C84.655 189.218 87.9156 189.367 91.1764 189.564C115.237 190.898 139.297 192.232 163.357 192.282C162.616 190.009 161.875 187.687 161.085 185.414C160.393 183.389 159.405 181.017 157.033 180.523C156.243 180.375 155.453 180.523 154.662 180.573C153.279 180.573 151.846 180.474 150.462 180.424C144.583 180.227 138.655 179.98 132.776 179.782C129.465 179.683 126.155 179.535 122.845 179.436Z" fill="#6026EF" stroke="black" stroke-width="0.0950126" stroke-miterlimit="10"/>
<path d="M177.535 175.286C178.276 174.89 179.115 174.495 179.56 173.803C180.005 173.112 180.054 172.272 180.104 171.481C180.301 168.22 180.499 165.009 180.696 161.748C180.943 158.092 181.141 154.436 181.092 150.78C181.042 147.322 180.696 143.863 180.894 140.455C181.092 137.293 181.734 134.18 182.08 131.018C183.315 119.853 180.696 108.588 181.191 97.3731C181.388 93.2231 182.03 89.073 182.277 84.8736C183.003 73.4989 181.058 62.112 176.596 51.6238C176.2 50.7345 175.805 49.8452 175.064 49.2523C174.076 48.4618 172.742 48.363 171.655 47.7207C170.124 46.782 169.531 44.9047 168.691 43.2741C166.616 39.223 162.663 36.4562 158.365 34.9246C154.067 33.393 149.522 32.9483 145.025 32.5037C141.863 32.2074 138.701 31.911 135.54 31.5651C134.008 31.4169 131.785 31.911 132.032 33.4424C136.577 36.8514 141.814 39.3218 146.607 42.3848C151.399 45.4478 155.944 49.351 158.217 54.5879C159.205 56.8112 159.699 59.2321 160.193 61.6528C161.676 68.5698 163.108 75.4867 163.454 82.5513C163.701 87.6896 163.355 92.8771 163.009 98.0646C162.565 104.833 162.268 111.651 161.972 118.42C161.676 125.188 161.478 132.006 161.379 138.775C161.231 145.593 161.181 152.361 161.231 159.13C161.231 162.539 161.28 165.948 161.33 169.307C161.33 170.987 161.379 172.716 161.428 174.396C161.478 175.977 161.33 177.706 161.527 179.337C161.873 181.757 164.59 181.411 166.27 180.67C169.333 179.337 172.298 177.755 175.361 176.273C175.904 176.076 176.991 175.286 177.535 175.286Z" fill="#3B19B6" stroke="black" stroke-width="0.0950126" stroke-miterlimit="10"/>
<path d="M164.641 191.689C164.838 192.034 165.085 192.43 165.48 192.43C165.727 192.4 165.963 192.316 166.172 192.183C168.445 190.651 170.322 188.576 172.792 187.44C174.472 186.649 176.3 186.353 178.029 185.76C180.5 184.92 182.723 183.487 184.946 182.104C185.737 181.61 186.626 180.869 186.478 179.93C186.411 179.6 186.258 179.293 186.033 179.041C184.809 177.38 183.324 175.928 181.636 174.743C181.321 174.489 180.947 174.319 180.549 174.248C180.055 174.199 179.561 174.446 179.116 174.644C175.51 176.422 171.953 178.201 168.396 180.029C166.617 180.918 164.838 181.857 163.06 182.746C161.578 183.488 160.343 184.031 161.331 185.81C162.467 187.786 163.652 189.712 164.641 191.689Z" fill="#0D063F" stroke="black" stroke-width="0.0950126" stroke-miterlimit="10"/>
<path d="M166.219 212.931C166.269 213.277 166.318 213.672 166.516 213.919C167.059 214.512 167.998 214.166 168.69 213.771L186.624 203.692C187.216 203.347 187.859 203.001 188.254 202.408C188.649 201.766 188.699 200.975 188.748 200.234C188.946 196.232 189.094 192.23 189.292 188.179C189.341 187.043 189.341 185.808 188.699 184.918C188.007 183.93 186.673 183.634 185.487 183.782C184.302 183.93 183.215 184.523 182.177 185.116C177.385 187.784 172.593 190.402 167.8 193.021C166.219 193.91 164.292 194.503 164.441 196.578C164.589 198.999 164.984 201.42 165.231 203.791C165.379 205.323 165.577 206.805 165.725 208.337C165.873 209.868 166.219 211.449 166.219 212.931Z" fill="#0D063F" stroke="black" stroke-width="0.0950126" stroke-miterlimit="10"/>
<path d="M139.145 57.8989C140.084 58.6893 139.985 60.3197 138.997 61.0607C138.009 61.8018 136.428 61.3077 135.983 60.1714C135.539 59.0352 136.378 57.6025 137.564 57.4048C137.847 57.3757 138.133 57.4044 138.405 57.4894C138.677 57.5743 138.929 57.7136 139.145 57.8989Z" fill="#3B19B6"/>
<path d="M147.152 64.865C147.094 65.0914 147.061 65.3233 147.053 65.5566C147.076 65.7666 147.158 65.9658 147.289 66.1317C147.42 66.2976 147.595 66.4235 147.794 66.4953C148.831 67.0387 150.363 66.2483 150.511 65.0626C150.61 63.8769 149.325 62.7406 148.189 63.0864C148.09 63.037 147.942 63.1359 147.893 63.2347C147.448 63.7781 147.349 64.2721 147.152 64.865Z" fill="#3B19B6"/>
<path d="M142.259 71.8311H140.086C139.99 71.8172 139.892 71.8232 139.799 71.8487C139.705 71.8742 139.618 71.9187 139.542 71.9793C139.443 72.0781 139.443 72.2263 139.394 72.3745C139.295 72.9674 139.246 73.5108 139.196 74.1036C139.147 74.7953 139.147 75.6844 139.74 76.0302C140.135 76.2278 140.58 76.1784 140.975 76.2772C141.321 76.376 141.617 76.5736 141.963 76.5242C142.655 76.5242 143.099 75.7832 143.247 75.0917C143.396 74.3506 143.445 73.6096 143.099 72.9179C142.754 72.2263 142.062 71.7323 141.321 71.8311" fill="#3B19B6"/>
<path d="M175.606 93.3219C175.112 92.8279 174.519 92.8773 173.877 93.0749C173.596 93.1734 173.356 93.363 173.195 93.6137C173.034 93.8643 172.961 94.1615 172.988 94.4582C172.988 94.9522 173.334 95.4463 173.68 95.7921C174.223 96.3355 175.211 95.8415 175.606 95.3475C176.1 94.8534 176.1 93.9148 175.606 93.3219Z" fill="#6026EF"/>
<path d="M172.149 101.621C172.078 101.238 171.907 100.88 171.655 100.583C171.359 100.287 170.766 100.435 170.42 100.583C170.111 100.735 169.827 100.935 169.58 101.176C169.482 101.275 169.383 101.324 169.333 101.473C169.2 101.717 169.116 101.986 169.086 102.263C169.086 102.411 168.938 103.103 169.086 103.202C169.389 103.403 169.737 103.526 170.099 103.561C170.461 103.595 170.826 103.54 171.161 103.399C171.754 103.053 172.248 102.312 172.149 101.621Z" fill="#6026EF"/>
<path d="M87.0232 164.067C86.5691 164.053 86.1195 164.161 85.7204 164.378C85.3212 164.595 84.9866 164.914 84.7508 165.302C84.3062 166.092 84.4544 167.228 85.146 167.821C85.8871 168.464 88.3077 168.414 88.9993 167.772C89.691 167.13 88.7523 165.994 88.3571 165.055C87.7642 164.709 87.122 164.363 86.4797 164.067" fill="#3B19B6"/>
<path d="M82.7268 147.716C82.4218 148.5 82.1902 149.31 82.0352 150.137C82.0067 150.217 81.9963 150.304 82.0049 150.389C82.0134 150.474 82.0406 150.557 82.0846 150.631C82.2328 150.878 82.5292 150.927 82.8257 150.976C83.5667 151.026 84.4066 151.026 84.8512 150.482C84.9979 150.313 85.0997 150.109 85.1476 149.89C85.3946 149.099 85.2464 148.16 84.5548 147.716C83.8631 147.271 82.7762 147.518 82.628 148.309" fill="#3B19B6"/>
<path d="M93.7431 155.821C93.6443 155.574 93.4467 155.179 93.1997 155.08C93.0029 155.055 92.8038 155.055 92.607 155.08H92.0636C91.9298 155.069 91.7952 155.086 91.6683 155.13C91.4707 155.228 91.2731 155.525 91.1249 155.673C91.0366 155.712 90.9661 155.782 90.9273 155.871C90.7866 156.145 90.7186 156.451 90.7297 156.76C90.7297 156.859 90.7297 157.649 90.8285 157.649C91.3225 157.748 93.0516 157.896 93.5457 157.995C93.8421 158.044 93.0022 158.143 93.2492 157.946C93.36 157.841 93.4594 157.725 93.5457 157.6C93.7925 157.007 93.9407 156.365 93.7431 155.821Z" fill="#3B19B6"/>
<path d="M142.163 208.881C143.102 209.572 144.633 209.375 145.276 208.386C145.77 207.645 145.671 206.707 145.523 205.818C145.502 205.585 145.416 205.362 145.276 205.175C145.094 205.03 144.865 204.959 144.633 204.978C143.942 204.879 143.349 204.928 142.657 204.928H142.361C142.101 205.047 141.866 205.215 141.669 205.422C141.429 205.644 141.252 205.925 141.157 206.238C141.061 206.55 141.05 206.883 141.126 207.201C141.263 207.866 141.63 208.461 142.163 208.881Z" fill="#6026EF"/>
<path d="M135.887 199.248C135.552 199.401 135.287 199.673 135.141 200.01C134.995 200.348 134.979 200.727 135.096 201.076C135.49 201.45 135.991 201.691 136.529 201.767C137.072 201.817 137.665 201.471 137.764 200.927C137.863 200.483 137.616 200.087 137.369 199.692C137.122 199.297 136.825 198.902 136.381 198.754C135.936 198.655 135.343 199.05 135.541 199.495" fill="#6026EF"/>
<path d="M170.517 164.959C169.727 164.712 168.838 165.058 168.294 165.651C167.78 166.3 167.486 167.096 167.454 167.923C167.382 168.351 167.47 168.791 167.701 169.158C168.047 169.603 168.69 169.652 169.233 169.504C170.32 169.307 171.308 168.516 171.604 167.479C171.901 166.441 171.209 165.108 170.122 164.959C170.913 164.861 169.974 164.416 170.517 164.959Z" fill="#6026EF"/>
<path d="M174.027 152.46C172.989 152.657 172.001 153.398 171.902 154.436C171.803 155.474 172.989 156.462 173.928 155.968C174.866 155.078 174.768 153.349 173.78 152.509" fill="#6026EF"/>
<path d="M141.569 51.8711C140.976 52.0193 140.729 52.8098 140.976 53.3532C141.223 53.8967 141.865 54.1931 142.507 54.1931C142.804 54.1931 143.15 54.0943 143.298 53.8473C143.354 53.7052 143.387 53.5551 143.397 53.4026C143.421 52.8387 143.371 52.2739 143.248 51.7229C142.705 51.6653 142.157 51.6819 141.618 51.7723" fill="#0D063F"/>
<path d="M136.133 60.6152C135.674 60.6374 135.223 60.7377 134.799 60.9116C134.404 61.1092 134.058 61.5537 134.107 61.9983C134.157 62.5911 134.799 62.9864 135.342 63.2334C135.787 63.431 136.38 63.6286 136.775 63.2828C137.17 62.937 137.022 62.3441 137.318 61.8995C137.446 61.7535 137.546 61.5863 137.615 61.4054C137.664 61.0598 137.269 60.8128 136.923 60.7634C136.577 60.714 136.182 60.6646 136.034 60.3682" fill="#0D063F"/>
<path d="M128.771 49.9414C128.326 50.1884 127.832 50.5342 127.585 50.9789C127.091 51.8187 127.486 53.1526 128.425 53.3502C129.363 53.5479 130.203 52.708 130.697 51.8681C130.752 51.778 130.786 51.6767 130.796 51.5717C130.787 51.5172 130.764 51.466 130.729 51.4228C130.694 51.3796 130.65 51.3459 130.598 51.3247C130.055 50.9295 129.512 50.5342 128.968 50.1884C128.82 50.0896 128.573 49.9908 128.474 50.1884" fill="#0D063F"/>
<path d="M90.68 58.6388C90.4303 59.2659 90.3288 59.9422 90.3836 60.615C90.6065 60.7247 90.8515 60.7817 91.0999 60.7817C91.3483 60.7817 91.5934 60.7247 91.8163 60.615C92.2578 60.3631 92.631 60.0069 92.9032 59.5775C92.9816 59.4769 93.0326 59.3578 93.0512 59.2317C93.0427 59.0253 92.9541 58.8303 92.8042 58.6882C92.5205 58.3378 92.1144 58.1082 91.6679 58.046C91.2233 57.9966 90.7292 58.3424 90.6798 58.7376" fill="#0D063F"/>
<path d="M88.4541 66.6918C88.0588 66.8894 88.0094 67.5317 88.2565 67.8775C88.4124 68.0441 88.6057 68.1713 88.8204 68.2486C89.0352 68.3259 89.2652 68.351 89.4915 68.3219C89.788 68.2725 90.1338 68.1737 90.2326 67.9269C90.4302 67.5317 90.1338 67.0871 89.8374 66.7906C89.5409 66.4448 89.0963 66.0496 88.6023 66.1978" fill="#0D063F"/>
<path d="M108.466 41.2981C108.276 41.8225 108.259 42.3936 108.416 42.9284C108.553 43.1178 108.756 43.2484 108.985 43.2942C109.214 43.34 109.452 43.2976 109.651 43.1755C109.847 43.0397 110.001 42.8524 110.097 42.6345C110.193 42.4165 110.227 42.1763 110.195 41.9404C110.096 41.3969 109.503 40.8535 109.009 41.1005" fill="#0D063F"/>
<path d="M151.845 89.6154C151.499 90.2082 151.647 91.0975 152.24 91.4927C152.536 91.6792 152.893 91.7422 153.235 91.6683C153.577 91.5944 153.876 91.3895 154.068 91.0975C154.158 90.9326 154.213 90.7511 154.23 90.5642C154.246 90.3774 154.225 90.189 154.167 90.0106C154.056 89.762 153.876 89.5505 153.648 89.4016C153.421 89.2527 153.155 89.1726 152.882 89.171C152.612 89.1589 152.341 89.2008 152.087 89.294C151.833 89.3873 151.599 89.5301 151.4 89.7142C151.598 89.7636 151.746 89.8624 151.944 89.9118" fill="#0D063F"/>
<path d="M148.632 162.192C148.582 162.933 148.236 163.625 148.236 164.366C148.236 165.107 148.73 165.947 149.471 165.947C150.113 165.947 150.558 165.354 150.855 164.811C151.087 164.459 151.301 164.097 151.497 163.724C151.58 163.632 151.637 163.519 151.663 163.398C151.689 163.276 151.683 163.15 151.645 163.032C151.589 162.927 151.503 162.841 151.398 162.785C150.527 162.242 149.508 161.983 148.483 162.044" fill="#0D063F"/>
<path d="M148.632 162.192C148.582 162.933 148.236 163.625 148.236 164.366C148.236 165.107 148.73 165.947 149.471 165.947C150.113 165.947 150.558 165.354 150.855 164.811C151.087 164.459 151.301 164.097 151.497 163.724C151.58 163.632 151.637 163.519 151.663 163.398C151.689 163.276 151.683 163.15 151.645 163.032C151.589 162.927 151.503 162.841 151.398 162.785C150.527 162.242 149.508 161.983 148.483 162.044" stroke="black" stroke-width="0.0950126" stroke-miterlimit="10"/>
<path d="M144.283 153.645C144.53 154.189 144.925 154.732 145.469 154.88C146.408 155.177 147.494 154.041 147.099 153.151C146.704 152.262 145.123 152.213 144.728 153.151" fill="#0E093E"/>
<path d="M124.126 166.885C123.78 167.774 124.521 168.861 125.459 169.009C126.398 169.157 127.337 168.367 127.584 167.428C127.612 167.347 127.623 167.261 127.614 167.176C127.606 167.09 127.578 167.008 127.534 166.934C127.425 166.796 127.265 166.707 127.09 166.687C126.299 166.49 125.459 166.292 124.669 166.045C124.564 166.301 124.482 166.565 124.422 166.835" fill="#0E093E"/>
<path d="M87.2218 131.215C87.123 131.659 86.9748 132.104 87.0736 132.548C87.123 132.993 87.4194 133.438 87.864 133.537C88.3581 133.685 88.9015 133.29 89.0991 132.796C89.2702 132.304 89.321 131.779 89.2473 131.264C88.6545 131.165 88.0617 131.067 87.5182 130.968" fill="#0D063F"/>
<path d="M82.529 197.763C82.3314 198.405 82.1832 199.245 82.7266 199.689C83.3195 200.183 84.1593 199.739 84.9004 199.887C85.0647 199.291 85.0816 198.663 84.9498 198.059C84.8016 197.466 84.3569 196.873 83.7641 196.775C83.1712 196.626 82.4796 197.12 82.529 197.763H82.9736H82.529Z" fill="#0E093E"/>
<path d="M93.791 202.063C93.791 202.853 93.791 203.594 93.8404 204.385C94.3839 204.483 94.9767 204.533 95.5695 204.632C95.7177 204.632 95.9154 204.681 96.0636 204.582C96.2027 204.453 96.2904 204.277 96.3106 204.088C96.5082 203.248 96.5082 202.31 95.9154 201.668C95.3225 201.075 94.038 201.223 93.9392 202.063" fill="#0E093E"/>
<path d="M144.827 203.445C144.283 203.89 143.987 204.68 144.283 205.323C144.58 205.965 145.469 206.311 146.062 205.866C146.309 205.323 146.556 204.73 146.457 204.137C146.358 203.544 145.568 203.1 145.074 203.495" fill="#0E093E"/>
<path d="M171.901 203.544C171.778 203.946 171.778 204.377 171.901 204.779C172.049 205.174 172.593 205.421 172.938 205.174C173.065 205.076 173.152 204.936 173.186 204.779C173.386 204.365 173.471 203.904 173.433 203.445C173.383 203 173.037 202.556 172.593 202.506C172.148 202.457 171.654 202.902 171.802 203.297" fill="#0E093E"/>
<path d="M169.235 144.11C169.136 144.555 168.987 144.999 169.086 145.444C169.185 145.889 169.531 146.333 169.976 146.284C170.667 146.284 170.964 145.444 171.062 144.752C171.161 144.159 171.161 143.369 170.618 143.122C170.025 142.875 169.482 143.517 169.136 144.011" fill="#0E093E"/>
<path d="M174.223 69.6072C174.124 70.0518 174.075 70.5458 174.273 70.941C174.47 71.3363 175.014 71.5833 175.409 71.3363C175.591 71.2194 175.73 71.0458 175.804 70.8422C175.952 70.447 176.1 70.0518 176.002 69.6566C175.903 69.2613 175.606 68.8661 175.211 68.8167C174.816 68.7673 174.371 69.1625 174.47 69.5577" fill="#0D063F"/>
<path d="M171.508 76.2269C171.508 76.7703 171.508 77.2644 171.557 77.8078C171.923 77.8518 172.291 77.753 172.586 77.5322C172.88 77.3113 173.078 76.9853 173.138 76.6221C173.158 76.4405 173.141 76.2567 173.09 76.0814C173.038 75.906 172.953 75.7426 172.838 75.6003C172.723 75.4581 172.582 75.3399 172.421 75.2525C172.261 75.165 172.085 75.1101 171.903 75.0908C171.938 75.4326 171.87 75.777 171.705 76.0789" fill="#0D063F"/>
<path d="M178.027 77.4611C177.798 78.0066 177.713 78.6022 177.78 79.1902C177.879 79.783 178.472 80.2771 179.016 80.1783C179.757 80.0301 179.905 78.9926 179.855 78.2021C179.806 77.6587 179.757 77.0164 179.312 76.72C178.867 76.4236 178.027 76.7694 178.225 77.2635" fill="#0D063F"/>
<path d="M101.499 133.687C102.339 130.723 100.758 128.055 98.4859 125.387C94.978 121.286 91.7668 116.988 91.0257 111.257C89.3953 98.3128 96.6084 85.6651 108.515 81.0704C121.015 76.2286 134.848 80.5764 142.308 91.6431C145.59 96.4071 147.332 102.063 147.298 107.848C147.298 113.283 145.569 117.976 141.765 121.879C139.937 123.707 138.405 125.832 136.478 127.561C134.453 129.34 133.712 131.365 133.86 133.934C133.959 135.96 133.712 137.986 133.761 140.011V140.406C133.761 140.604 133.712 140.752 133.712 140.9C133.712 140.999 133.712 141.938 133.761 141.938C133.431 141.928 133.101 141.945 132.773 141.987C132.378 142.012 131.982 142.012 131.587 141.987C130.846 141.889 130.154 141.889 129.413 141.839C129.247 141.845 129.081 141.828 128.919 141.79C128.623 141.79 128.376 141.74 128.079 141.74C127.981 141.74 127.882 141.691 127.734 141.691H125.56C125.56 141.394 125.51 141.098 125.51 140.802C125.461 140.209 125.461 139.616 125.461 139.023C125.461 137.887 125.412 136.75 125.412 135.614C125.415 135.587 125.413 135.56 125.404 135.534C125.396 135.508 125.381 135.485 125.362 135.466C125.343 135.447 125.32 135.432 125.294 135.424C125.268 135.415 125.241 135.413 125.214 135.416C124.026 135.342 122.834 135.392 121.657 135.565C121.657 136.256 121.657 136.948 121.607 137.689V138.282C121.615 138.563 121.599 138.844 121.558 139.122C121.558 139.221 121.509 139.27 121.509 139.319C121.468 139.43 121.451 139.548 121.459 139.665C121.401 140.225 121.418 140.79 121.509 141.345H120.422C119.958 141.361 119.495 141.328 119.038 141.246C118.495 141.147 117.902 141.197 117.359 141.147C117.143 141.156 116.928 141.139 116.716 141.098C116.173 141.098 115.629 140.999 115.086 140.999H114.246C113.964 141.008 113.683 141.041 113.406 141.098C113.406 140.604 113.456 140.06 113.456 139.566C113.449 139.302 113.465 139.037 113.505 138.776C113.505 138.529 113.554 138.282 113.554 138.035C113.554 137.047 113.554 136.059 113.505 135.021C112.201 134.781 110.878 134.666 109.553 134.675C109.503 135.812 109.454 136.948 109.355 138.084C109.305 138.628 109.305 139.221 109.256 139.813V140.258C109.269 140.344 109.252 140.431 109.207 140.505C109.157 140.604 108.91 140.604 108.811 140.604C108.103 140.637 107.393 140.62 106.687 140.555C106.391 140.555 106.045 140.505 105.748 140.505C104.958 140.456 104.167 140.456 103.377 140.406C103.13 140.406 102.833 140.357 102.586 140.357C102.429 140.296 102.262 140.262 102.092 140.258C102.043 140.258 101.252 140.209 101.252 140.209V138.331C101.22 138.083 101.236 137.831 101.302 137.59C101.351 137.491 101.302 137.393 101.302 137.294V136.553C101.302 135.91 101.351 135.317 101.351 134.675C101.45 134.675 101.45 134.478 101.499 133.687ZM117.507 124.597C117.951 124.646 118.396 124.646 118.841 124.695C119.532 124.745 120.274 124.794 120.965 124.893C120.718 124.152 120.471 123.411 120.175 122.719C120.076 122.423 119.928 122.176 119.829 121.929C119.73 121.682 119.582 121.484 119.483 121.237C119.444 121.179 119.426 121.109 119.434 121.039C119.384 120.792 119.285 120.595 119.236 120.348C118.989 119.755 118.791 119.112 118.544 118.47C118.45 118.182 118.335 117.901 118.198 117.63C118.176 117.701 118.143 117.768 118.1 117.828C118.05 117.927 117.951 118.025 117.902 118.124C117.264 118.999 116.67 119.906 116.123 120.842C115.827 121.286 115.58 121.78 115.283 122.274C115.135 122.521 115.036 122.769 114.888 122.966L114.74 123.263C114.691 123.46 114.493 123.658 114.345 123.855C114.136 124.099 113.954 124.364 113.801 124.646H114.641C114.922 124.654 115.203 124.638 115.481 124.597C115.58 124.597 115.728 124.547 115.827 124.547C115.977 124.539 116.127 124.556 116.271 124.597C116.568 124.597 116.815 124.646 117.111 124.646C117.167 124.603 117.233 124.577 117.302 124.568C117.372 124.559 117.442 124.569 117.507 124.597Z" fill="#E0E1C0" stroke="black" stroke-width="0.0950126" stroke-miterlimit="10"/>
<path d="M100.364 132.302C101.154 129.388 99.6225 126.769 97.3992 124.15C93.9407 120.099 90.7789 115.899 90.0872 110.316C88.5062 97.619 95.5711 85.2677 107.231 80.7719C119.483 76.0289 133.02 80.2779 140.382 91.1473C143.593 95.9398 145.273 101.226 145.322 107.006C145.322 112.342 143.642 116.937 139.888 120.741C138.109 122.569 136.627 124.644 134.7 126.275C132.724 128.004 131.983 129.98 132.131 132.549C132.23 134.525 131.983 136.502 132.032 138.478V138.873C132.032 139.021 131.983 139.219 131.983 139.367C131.983 139.466 131.983 140.355 132.032 140.355H131.044C130.649 140.38 130.253 140.38 129.858 140.355C129.166 140.256 128.425 140.256 127.734 140.207C127.584 140.215 127.434 140.198 127.289 140.157C126.993 140.157 126.746 140.108 126.449 140.108C126.35 140.108 126.252 140.059 126.153 140.059H124.029C124.029 139.762 123.979 139.515 123.979 139.219C123.93 138.626 123.93 138.083 123.93 137.489C123.93 136.353 123.88 135.266 123.88 134.13C123.884 134.103 123.882 134.076 123.873 134.05C123.865 134.024 123.85 134.001 123.831 133.982C123.812 133.962 123.789 133.948 123.763 133.939C123.737 133.931 123.71 133.928 123.683 133.932C122.528 133.858 121.369 133.908 120.224 134.08C120.224 134.772 120.224 135.464 120.175 136.155V136.748C120.182 137.029 120.165 137.31 120.126 137.588C120.126 137.687 120.076 137.736 120.076 137.786C120.036 137.896 120.019 138.014 120.027 138.132C119.969 138.675 119.986 139.223 120.076 139.762H119.039C118.592 139.778 118.144 139.745 117.705 139.663C117.161 139.564 116.618 139.614 116.025 139.564C115.81 139.572 115.594 139.556 115.383 139.515C114.839 139.515 114.345 139.416 113.802 139.416H112.962C112.912 139.416 112.171 139.466 112.171 139.515C112.171 139.021 112.221 138.527 112.221 137.984C112.213 137.735 112.229 137.487 112.27 137.242C112.27 136.995 112.32 136.748 112.32 136.501C112.32 135.513 112.32 134.525 112.27 133.537C110.996 133.324 109.708 133.208 108.416 133.191C108.367 134.327 108.318 135.414 108.268 136.551C108.219 137.094 108.219 137.687 108.169 138.23V138.675C108.182 138.761 108.165 138.848 108.12 138.922C108.071 139.021 107.824 139.021 107.725 139.021C107.033 139.054 106.339 139.037 105.65 138.971C105.353 138.971 105.008 138.922 104.711 138.922C103.921 138.873 103.13 138.873 102.389 138.823C102.142 138.823 101.895 138.774 101.599 138.774C101.45 138.774 101.302 138.675 101.104 138.675C101.055 138.675 100.314 138.626 100.314 138.626V136.798C100.314 136.551 100.265 136.304 100.363 136.106C100.413 136.007 100.363 135.908 100.363 135.81V135.069C100.363 134.476 100.413 133.833 100.413 133.24C100.314 133.241 100.314 133.093 100.364 132.302ZM116.074 123.36C116.519 123.41 116.964 123.41 117.359 123.459C118.051 123.508 118.742 123.558 119.434 123.657C119.187 122.965 118.989 122.224 118.693 121.483C118.594 121.186 118.446 120.939 118.347 120.692C118.248 120.445 118.1 120.247 118.001 120C117.962 119.942 117.945 119.872 117.952 119.803C117.902 119.556 117.804 119.358 117.754 119.111C117.507 118.518 117.31 117.876 117.063 117.283C116.969 116.995 116.853 116.714 116.717 116.443C116.717 116.493 116.618 116.592 116.618 116.641C116.569 116.74 116.47 116.839 116.42 116.937C115.827 117.827 115.235 118.716 114.691 119.605C114.395 120.05 114.148 120.544 113.901 120.989C113.752 121.236 113.654 121.433 113.505 121.68L113.357 121.977C113.271 122.187 113.136 122.374 112.962 122.52C112.764 122.767 112.616 123.014 112.418 123.261H113.258C113.539 123.269 113.82 123.253 114.098 123.212C114.197 123.212 114.345 123.162 114.444 123.162C114.594 123.154 114.744 123.171 114.889 123.212C115.185 123.212 115.432 123.261 115.728 123.261C115.826 123.339 115.951 123.374 116.074 123.36Z" fill="#E0E1C0" stroke="black" stroke-width="0.0950126" stroke-miterlimit="10"/>
<path d="M135.194 83.6381C126.152 76.4249 115.925 75.239 105.353 79.9822C88.4068 87.5906 83.861 110.12 94.0389 121.334C95.4717 122.915 96.5586 124.743 98.0408 126.324C99.3748 127.757 99.8195 129.289 99.7206 131.216C99.5724 133.883 99.3254 136.601 99.7206 139.516L108.416 139.911L108.564 133.735L111.924 133.834V139.565C111.924 139.713 111.874 139.861 111.874 140.059H112.714C113.307 140.059 113.851 140.108 114.443 140.108C115.135 140.158 115.876 140.158 116.617 140.207C117.26 140.256 117.951 140.256 118.594 140.306C118.989 140.306 119.384 140.355 119.829 140.355H119.977C120.062 140.363 120.148 140.346 120.224 140.306C120.224 140.158 120.273 139.96 120.273 139.812V139.762C120.266 139.693 120.284 139.623 120.323 139.565C120.323 139.417 120.372 139.268 120.372 139.17V134.377L123.732 134.476L123.583 140.602C124.127 140.602 132.724 140.998 132.724 140.998V133.093C132.734 132.861 132.717 132.629 132.674 132.401C132.656 131.823 132.689 131.244 132.773 130.672C132.855 130.047 133.093 129.452 133.465 128.943C133.564 128.844 133.662 128.696 133.761 128.597L134.156 128.202C134.403 127.955 134.65 127.658 134.897 127.411C135.392 126.868 135.886 126.374 136.38 125.83C136.874 125.287 137.318 124.793 137.812 124.249C138.307 123.706 138.751 123.212 139.196 122.668C139.64 122.125 140.135 121.631 140.579 121.087C141.024 120.544 141.469 120.05 141.913 119.506C142.16 119.259 142.358 118.963 142.605 118.716C144.285 116.641 145.47 114.319 145.866 111.651C147.644 100.239 144.136 90.7525 135.194 83.6381ZM107.181 132.105H106.687V132.846C106.687 133.34 106.637 133.883 106.637 134.377C106.588 135.415 106.538 136.502 106.538 137.539L102.141 137.342C102.141 136.897 102.191 136.453 102.191 136.008C102.24 135.02 102.289 134.032 102.289 132.994C102.339 131.957 102.388 130.87 102.388 129.832C102.388 129.437 102.438 129.042 102.438 128.646C102.438 128.449 102.388 128.251 102.388 128.103C102.388 127.905 102.339 127.708 102.339 127.51C102.339 127.411 102.289 127.362 102.289 127.263C102.24 127.214 102.24 127.115 102.191 127.065C102.146 126.909 102.079 126.759 101.993 126.621L101.548 125.731C101.385 125.441 101.203 125.16 101.005 124.892C100.888 124.715 100.756 124.55 100.61 124.398C98.5347 121.878 96.5584 119.259 94.5822 116.641C91.7662 112.787 91.2721 108.291 91.8156 103.746C93.0508 93.5193 98.3865 86.1084 107.922 82.3043C117.358 78.5494 126.3 80.1304 133.81 86.8989C141.468 93.7663 144.284 102.511 141.814 112.738C141.221 115.356 139.541 117.234 137.861 119.111C135.786 121.433 133.662 123.706 131.537 125.978C131.438 126.077 131.34 126.127 131.29 126.226C131.29 126.275 131.29 126.275 131.241 126.324C131.191 126.374 131.191 126.423 131.142 126.473C131.093 126.571 130.994 126.67 130.944 126.769C130.895 126.818 130.895 126.868 130.846 126.917C130.796 126.967 130.796 126.967 130.796 127.016L130.5 127.609C130.316 128.071 130.184 128.551 130.104 129.042C130.063 129.286 130.047 129.535 130.055 129.783V138.478C130.049 138.485 130.041 138.49 130.033 138.494C130.024 138.497 130.015 138.499 130.006 138.499C129.996 138.499 129.987 138.497 129.979 138.494C129.97 138.49 129.963 138.485 129.956 138.478H129.759C129.494 138.486 129.23 138.47 128.968 138.429L125.707 138.281C125.757 137.342 125.757 136.403 125.806 135.514C125.806 135.217 125.856 134.871 125.856 134.575V133.043L125.213 132.945C124.97 132.888 124.722 132.854 124.472 132.846C123.929 132.796 123.435 132.747 122.891 132.698C122.348 132.648 121.804 132.648 121.261 132.648H118.247L118.05 138.33L113.653 138.132L113.85 132.55C113.603 132.5 113.307 132.451 113.06 132.401C112.517 132.303 112.022 132.253 111.479 132.204C110.936 132.154 110.392 132.154 109.849 132.105C109.305 132.105 108.762 132.105 108.218 132.056H107.428" fill="black"/>
<path d="M118.15 115.604C118.1 115.555 118.1 115.456 118.051 115.407C117.952 115.259 117.903 115.061 117.804 114.913L117.656 114.616C117.606 114.518 117.557 114.468 117.508 114.369C117.31 114.073 117.162 113.727 116.964 113.431C116.872 113.271 116.789 113.106 116.717 112.937L116.717 112.937C116.668 112.838 116.668 112.838 116.618 112.739C116.569 112.739 116.569 112.739 116.569 112.788C116.569 112.838 116.519 112.838 116.519 112.887C116.519 112.937 116.47 112.986 116.47 113.035C116.432 113.124 116.382 113.207 116.322 113.283C116.122 113.584 115.941 113.898 115.778 114.221C115.579 114.523 115.397 114.837 115.235 115.16C114.988 115.555 114.79 115.95 114.543 116.395C114.472 116.533 114.39 116.666 114.296 116.79C114.195 116.927 114.112 117.077 114.049 117.235C113.94 117.393 113.841 117.558 113.753 117.729C113.654 117.877 113.555 118.075 113.456 118.223C113.358 118.42 113.259 118.569 113.16 118.766C113.061 118.964 112.963 119.112 112.864 119.31C112.666 119.672 112.469 120.034 112.271 120.397C112.172 120.594 112.073 120.742 111.975 120.94C111.876 121.138 111.777 121.286 111.678 121.483C111.579 121.681 111.48 121.829 111.382 122.027C111.283 122.175 111.184 122.373 111.085 122.521C110.984 122.658 110.901 122.807 110.838 122.966C110.739 123.114 110.69 123.262 110.591 123.41C110.542 123.558 110.443 123.657 110.394 123.805C110.317 123.914 110.251 124.03 110.196 124.151L110.048 124.448C109.996 124.502 109.961 124.571 109.949 124.645C109.9 124.695 109.9 124.744 109.85 124.794L109.801 124.843H109.85C110.131 124.835 110.412 124.851 110.69 124.892H120.719L122.497 124.942H122.546C122.448 124.645 122.299 124.398 122.201 124.102C121.904 123.41 121.608 122.768 121.311 122.076C120.916 121.236 120.57 120.347 120.175 119.507C119.829 118.717 119.483 117.877 119.138 117.087C118.891 116.543 118.693 116 118.446 115.506C118.249 115.802 118.199 115.703 118.15 115.605V115.604ZM113.061 123.064C114.247 121.039 115.334 119.211 116.569 117.087C117.409 119.359 118.1 121.137 118.94 123.311C116.915 123.213 115.235 123.114 113.061 123.064Z" fill="black"/>
<path d="M85.0469 84.9707C85.0469 85.2177 85.0963 85.4153 85.0963 85.6129L85.0469 84.9707ZM85.0469 84.9707C85.0469 85.2177 85.0963 85.4153 85.0963 85.6129L85.0469 84.9707Z" fill="#E0E1C0"/>
<path d="M85.0469 84.9707C85.0469 85.2177 85.0963 85.4153 85.0963 85.6129M85.0469 84.9707C85.0469 85.2177 85.0963 85.4153 85.0963 85.6129" stroke="black" stroke-width="0.38005" stroke-miterlimit="10"/>
<path d="M189.64 179.337C187.121 177.311 185.243 174.693 182.872 172.42C183.02 169.9 183.317 167.628 183.317 165.355C183.267 159.13 183.662 152.905 183.168 146.68C182.872 142.876 183.909 139.22 184.947 135.563C186.972 128.597 185.836 121.433 184.799 114.565C184.093 109.774 183.927 104.918 184.305 100.09C184.651 95.8408 184.7 91.5919 185.046 87.3431C185.49 81.3157 186.034 75.387 184.502 69.3096C183.169 64.1715 182.872 58.7864 180.797 53.8459C179.167 49.9922 179.167 49.9922 174.127 43.3225C169.631 38.5796 168.939 38.5302 165.086 36.2081C162.122 34.4295 159.207 32.7497 155.6 32.404C151.005 31.9593 146.757 29.9337 142.211 29.1926C134.306 27.908 126.501 28.5997 118.695 29.7854C108.22 31.4174 97.895 33.4429 89.842 41.4466C86.0379 45.2509 82.1348 48.8576 80.5043 54.1437C80.0597 55.6259 79.0717 56.9105 78.3306 58.2444C74.9216 64.0248 75.7121 66.6436 75.218 74.153C75.5145 74.6965 74.5263 77.9571 74.1805 78.8467C73.7358 83.8859 73.6864 80.6747 73.7358 82.8484C73.8841 89.4195 73.9335 95.9904 73.9829 102.512C74.0323 108.441 74.2793 114.369 73.1924 120.199C72.0068 126.375 72.1056 132.6 72.0562 138.825C72.0562 140.208 72.1056 141.641 71.7598 142.975C70.7222 147.619 70.9693 152.263 71.2163 156.907C71.5621 163.231 71.2657 169.506 72.0068 175.978C68.3507 178.843 64.7442 181.709 61.0882 184.475C59.8036 185.414 59.0625 186.452 59.0625 188.131C59.1613 195.098 59.1613 202.064 59.2107 209.03C59.2107 210.907 60.1 211.945 62.0269 212.093C70.9693 212.636 79.8621 213.18 88.755 213.773C100.316 214.514 111.827 215.205 123.388 215.947C136.481 216.786 149.573 217.676 162.666 218.516C164.402 218.631 166.13 218.199 167.607 217.28C174.474 213.13 181.391 208.98 188.308 204.929C189.987 203.941 190.63 202.656 190.63 200.729C190.679 194.652 190.827 188.575 190.975 182.548C190.974 181.313 190.727 180.177 189.64 179.337ZM75.9591 148.113C76.552 143.963 77.0955 139.862 76.9967 135.663C76.8484 130.228 77.4907 124.892 78.2812 119.556C79.368 112.145 78.9729 104.685 78.8247 97.2252C78.7753 94.5078 78.7259 91.7904 78.7753 89.1229C78.7753 88.4312 78.8247 87.7395 78.8741 87.0478C78.9335 86.6386 78.9666 86.226 78.9729 85.8126C79.0023 85.6151 79.109 85.4374 79.2694 85.3185C79.4668 85.0715 79.7138 84.8245 79.9115 84.5774C79.9678 84.5164 80.0347 84.4662 80.1091 84.4292C80.1787 84.4219 80.2487 84.4394 80.3067 84.4786C81.196 84.8739 82.7276 86.3067 82.777 86.4055C82.777 86.4549 84.5557 87.7889 84.5557 87.8383C84.6051 87.8877 83.4687 90.3578 83.4687 90.4566C85.5932 90.4566 85.0497 89.765 86.7788 86.6525C86.8776 86.4549 85.0495 85.2197 85.0495 84.9727C84.7531 84.6763 84.6543 84.281 84.5061 83.9352C84.3521 83.5102 84.1356 83.1105 83.8638 82.7494C83.7156 82.552 83.5673 82.4037 83.4191 82.2061L82.9745 81.7615C82.9262 81.718 82.8879 81.6645 82.8623 81.6048C82.8367 81.5451 82.8244 81.4805 82.8263 81.4156C82.7768 81.218 82.678 81.0698 82.6286 80.8721C82.4178 80.4063 82.2363 79.9278 82.0852 79.4393C81.7393 78.5006 81.4429 77.5125 81.1464 76.5243C80.85 75.5362 80.5536 74.5481 80.2077 73.5599C80.0101 73.0165 79.8125 72.5224 79.6148 71.9789C79.9607 67.3349 80.85 62.8883 83.9132 59.1332C84.6049 58.2439 85.0495 57.1075 85.3954 56.07C86.7786 51.5248 89.842 48.2639 93.3496 45.3491C95.5233 43.5211 97.4996 41.3472 100.02 40.1122C100.069 40.0628 100.267 40.211 100.316 40.211L100.612 40.3592C100.798 40.4859 100.95 40.6554 101.057 40.8533C101.254 41.1003 101.304 41.4462 101.452 41.6932C101.551 41.9402 101.65 42.2367 101.749 42.4837C101.946 43.0272 102.144 43.5213 102.292 44.0647C102.341 44.1635 102.341 44.213 102.391 44.2624C102.396 44.2998 102.413 44.3345 102.44 44.3612C102.487 44.3853 102.537 44.402 102.588 44.4106C102.786 44.46 102.984 44.5588 103.181 44.6082C103.231 44.6082 102.984 45.9422 102.984 46.041V46.288C102.984 46.4857 102.934 46.7327 102.934 46.9303C102.885 47.375 102.885 47.8195 102.835 48.2641C102.811 48.4279 102.811 48.5944 102.835 48.7582C102.885 48.9064 102.934 49.0052 102.984 49.1534C103.379 49.9439 103.824 50.7344 104.268 51.525C104.219 51.4261 104.219 51.2285 104.169 51.1297C104.12 50.9815 104.12 50.8827 104.071 50.7344C104.021 50.4874 103.972 50.191 103.922 49.9439C103.873 49.5981 103.824 49.2522 103.774 48.857C103.774 48.7088 103.725 48.61 103.725 48.4617C103.725 48.3629 103.675 48.3135 103.725 48.2147C103.76 48.0698 103.828 47.9347 103.922 47.8195C103.972 47.6712 104.071 47.523 104.12 47.375C104.239 47.3911 104.356 47.4243 104.466 47.4736C104.556 47.5284 104.657 47.5621 104.762 47.5724C105.043 47.6188 105.311 47.7195 105.553 47.8689C105.662 47.9171 105.763 47.9839 105.849 48.0665L105.998 48.3629C106.245 49.0052 106.492 49.6969 106.788 50.3392C106.835 50.4644 106.902 50.5812 106.986 50.685C107.072 50.7676 107.173 50.8344 107.282 50.8827C107.924 51.2779 108.616 51.6732 109.258 52.0684C108.962 51.5744 108.517 51.1791 108.122 50.685C107.527 49.9415 107.136 49.0562 106.986 48.1159C106.945 47.9211 106.928 47.7219 106.936 47.523C106.442 47.1774 105.948 46.8809 105.454 46.5349C105.249 46.4147 105.051 46.2827 104.861 46.1396C104.8 46.072 104.764 45.9842 104.763 45.8926C104.713 45.7444 104.664 45.6456 104.614 45.4973C104.417 44.9539 104.268 44.4104 104.071 43.9163C104.021 43.7681 103.972 43.5705 103.824 43.5211C103.774 43.4717 103.676 43.4717 103.577 43.4223C103.448 43.3048 103.362 43.1487 103.33 42.9776C103.28 42.78 103.231 42.5329 103.182 42.3353C103.12 42.1604 103.087 41.977 103.083 41.7918V41.5942C103.009 41.2522 102.96 40.9056 102.934 40.5567C102.876 39.6544 103.101 38.7563 103.577 37.9877C118.646 35.7644 133.862 33.9364 147.103 45.5467V52.4637C147.118 52.6825 147.085 52.902 147.004 53.106C146.955 53.1554 146.955 53.2048 146.905 53.3036C146.87 53.4485 146.802 53.5836 146.707 53.6988C146.559 53.9459 146.411 54.1929 146.213 54.4894C146.001 54.7745 145.834 55.0912 145.719 55.4279C145.769 55.3785 145.818 55.3785 145.868 55.3291L146.016 55.1809C146.119 55.0825 146.235 54.9993 146.362 54.9338C146.597 54.7799 146.813 54.5975 147.004 54.3905C147.098 54.2839 147.181 54.1681 147.251 54.0447C147.35 53.8965 147.449 53.6494 147.547 53.5012C147.704 53.3188 147.807 53.0964 147.844 52.8589C147.893 52.7601 147.943 52.7107 147.943 52.6119C147.982 52.4986 148.015 52.3831 148.041 52.2661C148.091 52.019 148.14 51.8214 148.19 51.5744C148.387 50.5862 148.437 49.5981 148.585 48.61C148.644 48.2265 148.726 47.847 148.832 47.4738C152.933 50.6852 157.181 53.5012 157.774 59.1334C158.243 63.8645 159.136 68.5439 160.442 73.1151C160.837 74.4491 161.183 75.8325 161.183 77.2157C161.183 86.4545 161.628 95.644 160.146 104.833C159.355 109.724 159.405 114.813 159.355 119.803C159.355 125.139 159.059 130.475 158.565 135.761C158.071 140.949 158.071 146.087 159.355 151.126C160.047 153.794 159.602 156.462 159.306 159.179C158.713 164.466 158.466 169.802 158.12 175.137C158.021 176.422 158.071 177.756 157.527 179.139C130.651 177.657 103.824 176.175 76.8486 174.643C76.8486 174.643 76.7498 173.803 76.7498 173.754L76.6016 172.716C76.5028 172.025 76.4534 171.382 76.404 170.691C76.3704 170.032 76.3869 169.371 76.4534 168.714V168.467C76.4587 168.217 76.4918 167.969 76.5522 167.726C76.6016 167.479 76.651 167.183 76.7004 166.936C76.8361 166.33 77.0178 165.735 77.2439 165.157C77.2933 165.058 77.2933 165.009 77.3427 164.91C77.4181 164.85 77.5011 164.8 77.5897 164.762C78.8743 164.268 80.1093 163.774 81.3938 163.28C81.5421 163.23 81.5915 163.033 81.6903 162.885C81.7898 162.725 81.9057 162.576 82.0361 162.44C82.1349 162.341 82.2832 162.242 82.382 162.143C82.5602 161.943 82.6948 161.707 82.7772 161.452C82.9789 161.049 83.1603 160.637 83.3207 160.217C83.4142 160.041 83.4967 159.859 83.5677 159.673C83.5644 159.646 83.5671 159.619 83.5757 159.593C83.5842 159.568 83.5984 159.544 83.6171 159.525C83.7654 159.278 84.1112 159.08 84.3088 158.932C84.7485 158.6 85.1321 158.2 85.4452 157.746C85.0499 157.944 84.7535 158.191 84.3582 158.438C84.1919 158.55 84.0082 158.633 83.8148 158.685C83.7456 158.683 83.6772 158.7 83.6171 158.734C83.6106 158.734 83.6041 158.735 83.5981 158.738C83.592 158.74 83.5865 158.744 83.5819 158.749C83.5773 158.753 83.5737 158.759 83.5712 158.765C83.5688 158.771 83.5676 158.777 83.5677 158.784C83.4572 158.906 83.358 159.039 83.2713 159.179L82.6784 160.068C82.4314 160.414 82.1843 160.76 81.9373 161.155C81.6903 161.55 81.5421 161.946 81.1468 162.143C81.0183 162.201 80.8862 162.25 80.7516 162.292C79.5164 162.687 78.232 163.131 76.9969 163.527C76.7325 163.601 76.4822 163.717 76.2558 163.873V163.378C76.3052 163.131 76.2558 162.884 76.3052 162.687V161.699C76.3052 161.007 76.2558 160.365 76.2558 159.673C76.2064 158.339 76.1075 157.005 76.0581 155.721C75.6542 153.203 75.6209 150.64 75.9591 148.113ZM74.8722 180.177C75.5639 179.633 76.4532 179.782 77.2437 179.831C93.1028 180.72 108.962 181.56 124.821 182.449C135.196 183.042 145.588 183.619 155.996 184.179C156.49 184.228 156.984 184.327 157.527 184.376C158.569 186.433 159.365 188.605 159.898 190.848C129.613 188.872 99.5749 186.945 68.993 184.969C71.0681 182.894 73.0441 181.61 74.8722 180.177ZM161.479 213.228C159.256 213.574 157.082 213.278 155.057 213.031C154.959 213.012 154.872 212.96 154.81 212.883C154.716 212.832 154.632 212.765 154.563 212.685C154.402 212.567 154.253 212.435 154.118 212.29C153.821 211.993 153.624 211.598 153.327 211.302C153.229 211.203 153.08 211.104 153.031 211.005C152.943 210.816 152.877 210.617 152.833 210.412C152.835 210.343 152.818 210.275 152.784 210.215C152.754 210.191 152.729 210.161 152.712 210.127C152.695 210.093 152.686 210.055 152.685 210.017C152.442 209.735 152.242 209.419 152.092 209.078C152.052 208.968 152.035 208.85 152.043 208.733C152.092 208.436 151.944 208.14 151.845 207.893C151.796 207.646 151.746 207.448 151.697 207.201C151.685 207.127 151.65 207.058 151.598 207.003C151.491 206.863 151.356 206.745 151.203 206.658C150.857 206.262 150.511 205.916 150.165 205.571C150.03 205.44 149.881 205.324 149.721 205.225C149.82 205.274 149.869 205.422 149.968 205.521C150.035 205.632 150.118 205.732 150.215 205.818C150.386 206.024 150.519 206.258 150.61 206.509C150.638 206.633 150.688 206.75 150.758 206.855C150.9 207.118 151 207.401 151.055 207.695C151.153 208.083 151.202 208.481 151.203 208.881C151.252 209.227 151.252 209.622 151.302 209.968C151.398 210.008 151.497 210.041 151.598 210.066C151.643 210.14 151.66 210.228 151.648 210.313C151.76 210.57 151.892 210.818 152.043 211.055L152.191 211.351V212.191C152.199 212.308 152.182 212.426 152.142 212.537C152.043 212.685 151.845 212.784 151.895 212.981C151.665 213.006 151.433 213.006 151.203 212.981C151.176 212.985 151.149 212.982 151.123 212.973C151.098 212.965 151.074 212.951 151.055 212.932C150.727 212.891 150.397 212.874 150.067 212.883C149.424 212.833 148.782 212.784 148.14 212.784C142.557 212.438 136.974 212.043 131.391 211.697C125.809 211.351 120.226 210.956 114.643 210.61C109.06 210.264 103.478 209.869 97.8948 209.523C92.3121 209.177 86.7292 208.782 81.1464 208.436C78.3305 208.239 75.5637 208.09 72.7473 207.893C71.3641 207.794 69.9314 207.695 68.5478 207.646L66.4727 207.497C66.3245 207.497 64.4472 207.399 64.4472 207.349V202.606L64.4966 202.557L64.5955 202.458C64.6449 202.359 64.6943 202.31 64.7437 202.211C64.8919 202.013 64.9907 201.865 65.1387 201.667C65.2868 201.47 65.4846 201.272 65.6328 201.075C65.6822 200.976 65.7316 200.926 65.781 200.828C65.884 200.729 66.0005 200.646 66.1269 200.581C66.2751 200.482 66.4233 200.432 66.5715 200.334C66.8712 200.172 67.1855 200.04 67.5102 199.938C67.7422 199.833 68 199.799 68.2513 199.839C68.4557 199.888 68.6433 199.99 68.7948 200.136C69.3383 200.531 69.9312 200.926 70.5734 201.075C70.7217 201.124 70.7711 200.976 70.8699 200.926C71.1087 200.698 71.3741 200.499 71.6604 200.334C71.7148 200.281 71.7837 200.247 71.858 200.235C72.0062 200.136 72.1545 200.086 72.3027 199.988C72.8954 199.741 73.5378 199.691 74.1799 199.642C73.6989 199.486 73.2016 199.387 72.6977 199.345C72.4096 199.318 72.1193 199.369 71.858 199.494L71.7592 199.592C71.7098 199.642 71.611 199.691 71.5616 199.741L71.1169 200.037C71.0675 200.037 71.0675 200.086 71.0181 200.086C70.9163 200.123 70.8295 200.193 70.7711 200.284C70.6893 200.362 70.5861 200.414 70.4746 200.432C70.3875 200.413 70.3041 200.379 70.2276 200.333C70.1782 200.284 70.0794 200.284 70.03 200.234C69.9025 200.145 69.7706 200.063 69.6347 199.987C69.2395 199.691 68.8442 199.296 68.449 198.95C68.3996 198.901 68.3502 198.901 68.3007 198.851H68.1031C67.9549 198.901 67.8067 198.901 67.6585 198.95C67.5597 198.95 67.5102 199 67.4114 199H67.2632C67.115 199 66.9668 199.049 66.8186 199.049C66.6209 199.098 66.3739 199.148 66.1763 199.197C65.5342 199.345 64.9411 199.494 64.299 199.691V189.761C96.7087 191.837 129.02 193.961 161.479 196.036V213.228H161.479ZM152.241 44.0157L150.808 41.99H150.166C150.067 41.99 150.017 41.8912 149.919 41.8912L148.436 40.7055C147.448 39.9151 146.411 39.174 145.373 38.4822C143.294 37.0172 141.096 35.7282 138.802 34.6284C137.765 34.5296 136.925 34.0356 135.739 33.2945C137.024 33.4921 137.913 33.6403 138.802 33.7885C141.865 33.7391 144.731 34.7272 147.646 35.6166C149.918 36.3083 152.191 37.0494 154.563 37.247C158.169 37.494 160.986 39.4209 163.802 41.3476C166.025 42.8792 166.766 45.3989 167.457 47.7704C167.951 49.5985 166.222 50.389 165.135 51.4265V51.6241C165.135 51.723 165.185 51.8218 165.185 51.9206C165.234 52.1182 165.333 52.2664 165.382 52.4641C165.584 52.833 165.765 53.2123 165.926 53.6004C166.014 53.79 166.08 53.9889 166.123 54.1933C166.189 54.4007 166.206 54.6204 166.173 54.8354C166.173 54.9342 166.025 55.033 165.975 55.0824C165.679 55.4777 165.333 55.8729 165.037 56.2188L167.112 55.5271C167.231 55.3832 167.363 55.2509 167.507 55.1318C167.655 55.033 167.803 54.8848 167.952 54.786C167.803 54.6872 167.803 54.6378 167.803 54.4897C167.754 54.2921 167.704 54.0451 167.655 53.8474L167.507 53.2546C167.507 53.1558 167.457 53.0569 167.457 52.9581C167.457 52.9087 167.359 52.7111 167.408 52.6617C167.951 51.5747 169.137 51.3771 169.73 50.6854C173.386 50.9325 175.412 52.8593 176.449 56.1694C177.783 60.3689 178.129 64.8155 179.364 69.0151C181.488 76.5247 180.155 83.9355 179.611 91.3958C179.315 95.6941 179.759 100.091 178.919 104.34C178.574 105.97 178.178 107.502 176.894 108.441C176.449 110.269 176.844 111.948 176.746 113.628C176.548 114.122 176.103 114.518 175.708 114.864C175.352 115.203 174.972 115.517 174.572 115.802L174.522 115.852C174.156 116.087 173.809 116.352 173.485 116.642L173.04 117.087C172.868 117.23 172.686 117.362 172.497 117.482C172.151 117.68 171.805 117.927 171.459 118.174C171.36 118.272 171.212 118.322 171.163 118.47L170.965 118.668L170.768 118.865C170.718 118.915 170.669 118.964 170.669 119.014C170.669 119.063 170.718 119.063 170.718 119.112C170.965 119.409 171.064 119.853 171.262 120.199C171.338 120.308 171.404 120.424 171.459 120.545C171.509 120.595 171.509 120.644 171.509 120.743C171.604 120.926 171.655 121.129 171.657 121.336V121.632C171.607 121.83 171.706 122.027 171.558 122.176C171.36 122.373 171.114 122.571 170.916 122.768C170.83 122.865 170.73 122.948 170.619 123.015C170.422 123.213 170.175 123.361 169.977 123.559C169.928 123.608 169.878 123.608 169.878 123.658C169.854 123.694 169.841 123.737 169.841 123.781C169.841 123.825 169.854 123.868 169.878 123.905C170.027 124.992 170.175 126.128 170.323 127.215C170.323 127.363 170.372 127.561 170.372 127.758C170.329 127.919 170.312 128.086 170.323 128.252C170.329 128.682 170.362 129.111 170.422 129.537L171.36 124.942C172.052 123.658 173.781 123.411 174.226 122.126C174.226 120.99 173.188 120.693 172.843 119.705C174.671 118.371 176.548 116.988 178.623 115.456C178.672 114.468 178.771 113.283 178.821 112.047C179.512 112.196 179.611 112.739 179.66 113.184C180.006 119.854 181.637 126.524 180.204 133.242C179.71 135.663 178.87 137.985 178.574 140.406C177.783 147.224 178.821 153.993 178.673 160.761C178.574 164.17 179.018 167.629 177.882 171.186C172.941 173.755 167.951 176.077 162.566 178.646C162.813 175.632 162.912 172.964 163.208 170.297C163.653 165.998 163.455 161.601 164.394 157.352C164.789 155.524 164.641 153.548 164.196 151.72C162.665 145.791 162.714 139.863 163.455 133.885C164.246 127.363 164.048 120.792 164.147 114.221C164.246 107.651 165.234 101.178 165.58 94.6076C165.925 87.7402 166.518 80.8235 165.333 74.055C164.394 68.6698 162.862 63.3833 162.22 57.8994C161.726 53.8482 159.7 50.4884 156.538 47.8702C155.353 46.8821 154.266 45.8445 153.08 44.807C152.784 44.5599 152.536 44.3129 152.24 44.0165C152.191 43.9671 152.141 43.9671 152.141 43.9177C152.042 43.8188 152.042 43.72 151.993 43.5718M178.227 179.041C178.254 179.068 178.288 179.085 178.326 179.091C178.375 179.091 178.375 179.091 178.425 179.14C178.463 179.141 178.501 179.15 178.535 179.167C178.569 179.184 178.599 179.209 178.622 179.239C178.705 179.325 178.772 179.426 178.82 179.535C178.82 179.683 178.869 179.832 178.869 180.029C178.894 180.391 178.894 180.754 178.869 181.116C178.877 181.299 178.861 181.482 178.82 181.66V181.857C178.82 181.956 178.919 181.956 179.018 182.005C179.15 182.063 179.256 182.169 179.314 182.302C179.345 182.344 179.366 182.392 179.375 182.444C179.383 182.496 179.38 182.548 179.363 182.598C179.362 182.69 179.326 182.778 179.265 182.845C179.167 183.025 179.01 183.165 178.82 183.24C178.376 183.441 177.947 183.672 177.536 183.932C173.583 186.007 169.631 188.132 165.481 190.305C164.394 188.28 163.653 186.254 162.912 183.932C168.396 181.363 173.83 178.794 179.314 176.176C181.142 177.312 182.278 179.041 183.612 180.523C182.871 181.363 181.933 181.61 180.994 182.055L180.697 181.907C180.599 181.857 180.45 181.758 180.352 181.709C180.251 181.63 180.132 181.579 180.006 181.561C179.843 181.509 179.692 181.425 179.561 181.314C179.512 181.264 179.512 181.215 179.512 181.116C179.455 180.94 179.422 180.757 179.413 180.573C179.37 180.336 179.304 180.105 179.215 179.881C179.166 179.683 179.067 179.436 179.018 179.239L177.98 178.843L179.018 179.239M181.587 192.43V191.689C181.571 191.518 181.606 191.347 181.686 191.195C181.735 191.096 181.735 191.047 181.784 190.997C181.784 190.948 181.834 190.948 181.834 190.898C181.981 190.64 182.146 190.393 182.328 190.157C183.168 189.169 183.662 188.033 183.563 186.65C184.106 186.254 184.65 185.81 185.588 185.859C185.934 190.701 185.687 195.74 185.539 200.878C179.314 204.584 173.089 208.289 166.617 212.093V195.344C171.656 192.676 176.646 190.058 181.686 187.439C181.834 187.645 181.935 187.881 181.982 188.131C182.007 188.294 182.007 188.461 181.982 188.625C181.982 188.724 181.933 188.773 181.884 188.872C181.884 188.921 181.834 188.971 181.785 189.069L181.587 189.267C181.488 189.316 181.439 189.415 181.34 189.514C181.242 189.617 181.159 189.733 181.093 189.86C181.063 189.883 181.038 189.913 181.021 189.947C181.004 189.982 180.995 190.019 180.994 190.057C180.932 190.125 180.897 190.213 180.895 190.305C180.749 190.579 180.584 190.843 180.401 191.095C180.288 191.197 180.218 191.338 180.204 191.49C180.2 191.517 180.203 191.544 180.212 191.57C180.22 191.596 180.234 191.619 180.253 191.639V193.565C180.253 193.911 180.303 194.207 180.303 194.553C180.314 194.83 180.245 195.105 180.105 195.344L179.957 195.492C179.93 195.519 179.912 195.554 179.907 195.591C179.907 195.64 179.858 195.64 179.808 195.69C179.442 196.072 179.027 196.404 178.573 196.678C178.866 196.649 179.151 196.565 179.413 196.431C179.611 196.332 179.808 196.184 180.056 196.085C180.105 196.085 180.154 195.986 180.253 195.986H180.303C180.395 195.827 180.477 195.662 180.55 195.492C180.599 195.443 180.599 195.344 180.648 195.245C180.698 195.146 180.698 195.097 180.747 194.998C180.747 194.949 180.797 194.899 180.797 194.85C180.84 194.646 180.906 194.447 180.994 194.257C181.044 194.158 181.044 194.059 181.093 193.961C181.093 193.911 181.142 193.862 181.142 193.763C181.13 193.678 181.147 193.59 181.192 193.516C181.191 193.465 181.204 193.415 181.231 193.371C181.257 193.328 181.295 193.292 181.34 193.269H181.439L181.587 192.43Z" fill="#E0E1C0"/>
<path d="M152.241 44.0157L150.808 41.99H150.166C150.067 41.99 150.017 41.8912 149.919 41.8912L148.436 40.7055C147.448 39.9151 146.411 39.174 145.373 38.4822C143.294 37.0172 141.096 35.7282 138.802 34.6284C137.765 34.5296 136.925 34.0356 135.739 33.2945C137.024 33.4921 137.913 33.6403 138.802 33.7885C141.865 33.7391 144.731 34.7272 147.646 35.6166C149.918 36.3083 152.191 37.0494 154.563 37.247C158.169 37.494 160.986 39.4209 163.802 41.3476C166.025 42.8792 166.766 45.3989 167.457 47.7704C167.951 49.5985 166.222 50.389 165.135 51.4265V51.6241C165.135 51.723 165.185 51.8218 165.185 51.9206C165.234 52.1182 165.333 52.2664 165.382 52.4641C165.584 52.833 165.765 53.2123 165.926 53.6004C166.014 53.79 166.08 53.9889 166.123 54.1933C166.189 54.4007 166.206 54.6204 166.173 54.8354C166.173 54.9342 166.025 55.033 165.975 55.0824C165.679 55.4777 165.333 55.8729 165.037 56.2188L167.112 55.5271C167.231 55.3832 167.363 55.2509 167.507 55.1318C167.655 55.033 167.803 54.8848 167.952 54.786C167.803 54.6872 167.803 54.6378 167.803 54.4897C167.754 54.2921 167.704 54.0451 167.655 53.8474L167.507 53.2546C167.507 53.1558 167.457 53.0569 167.457 52.9581C167.457 52.9087 167.359 52.7111 167.408 52.6617C167.951 51.5747 169.137 51.3771 169.73 50.6854C173.386 50.9325 175.412 52.8593 176.449 56.1694C177.783 60.3689 178.129 64.8155 179.364 69.0151C181.488 76.5247 180.155 83.9355 179.611 91.3958C179.315 95.6941 179.759 100.091 178.919 104.34C178.574 105.97 178.178 107.502 176.894 108.441C176.449 110.269 176.844 111.948 176.746 113.628C176.548 114.122 176.103 114.518 175.708 114.864C175.352 115.203 174.972 115.517 174.572 115.802L174.522 115.852C174.156 116.087 173.809 116.352 173.485 116.642L173.04 117.087C172.868 117.23 172.686 117.362 172.497 117.482C172.151 117.68 171.805 117.927 171.459 118.174C171.36 118.272 171.212 118.322 171.163 118.47L170.965 118.668L170.768 118.865C170.718 118.915 170.669 118.964 170.669 119.014C170.669 119.063 170.718 119.063 170.718 119.112C170.965 119.409 171.064 119.853 171.262 120.199C171.338 120.308 171.404 120.424 171.459 120.545C171.509 120.595 171.509 120.644 171.509 120.743C171.604 120.926 171.655 121.129 171.657 121.336V121.632C171.607 121.83 171.706 122.027 171.558 122.176C171.36 122.373 171.114 122.571 170.916 122.768C170.83 122.865 170.73 122.948 170.619 123.015C170.422 123.213 170.175 123.361 169.977 123.559C169.928 123.608 169.878 123.608 169.878 123.658C169.854 123.694 169.841 123.737 169.841 123.781C169.841 123.825 169.854 123.868 169.878 123.905C170.027 124.992 170.175 126.128 170.323 127.215C170.323 127.363 170.372 127.561 170.372 127.758C170.329 127.919 170.312 128.086 170.323 128.252C170.329 128.682 170.362 129.111 170.422 129.537L171.36 124.942C172.052 123.658 173.781 123.411 174.226 122.126C174.226 120.99 173.188 120.693 172.843 119.705C174.671 118.371 176.548 116.988 178.623 115.456C178.672 114.468 178.771 113.283 178.821 112.047C179.512 112.196 179.611 112.739 179.66 113.184C180.006 119.854 181.637 126.524 180.204 133.242C179.71 135.663 178.87 137.985 178.574 140.406C177.783 147.224 178.821 153.993 178.673 160.761C178.574 164.17 179.018 167.629 177.882 171.186C172.941 173.755 167.952 176.077 162.566 178.646C162.813 175.632 162.912 172.964 163.208 170.297C163.653 165.998 163.455 161.601 164.394 157.352C164.789 155.524 164.641 153.548 164.196 151.72C162.665 145.791 162.714 139.863 163.455 133.885C164.246 127.363 164.048 120.792 164.147 114.221C164.246 107.651 165.234 101.178 165.58 94.6076C165.925 87.7402 166.518 80.8235 165.333 74.055C164.394 68.6698 162.862 63.3833 162.22 57.8994C161.726 53.8482 159.7 50.4884 156.538 47.8702C155.353 46.8821 154.266 45.8445 153.08 44.807C152.784 44.5599 152.536 44.3129 152.24 44.0165C152.191 43.9671 152.141 43.9671 152.141 43.9177C152.042 43.8188 152.042 43.72 151.993 43.5718M178.227 179.041C178.254 179.068 178.288 179.085 178.326 179.091C178.375 179.091 178.375 179.091 178.425 179.14C178.463 179.141 178.501 179.15 178.535 179.167C178.569 179.184 178.599 179.209 178.622 179.239C178.705 179.325 178.772 179.426 178.82 179.535C178.82 179.683 178.869 179.832 178.869 180.029C178.894 180.391 178.894 180.754 178.869 181.116C178.877 181.299 178.861 181.482 178.82 181.66V181.857C178.82 181.956 178.919 181.956 179.018 182.005C179.15 182.063 179.256 182.169 179.314 182.302C179.345 182.344 179.366 182.392 179.375 182.444C179.383 182.496 179.38 182.548 179.363 182.598C179.362 182.69 179.326 182.778 179.265 182.845C179.167 183.025 179.01 183.165 178.82 183.24C178.376 183.441 177.947 183.672 177.536 183.932C173.583 186.007 169.631 188.132 165.481 190.305C164.394 188.28 163.653 186.254 162.912 183.932C168.396 181.363 173.83 178.794 179.314 176.176C181.142 177.312 182.278 179.041 183.612 180.523C182.871 181.363 181.933 181.61 180.994 182.055L180.697 181.907C180.599 181.857 180.45 181.758 180.352 181.709C180.251 181.63 180.132 181.579 180.006 181.561C179.843 181.509 179.692 181.425 179.561 181.314C179.512 181.264 179.512 181.215 179.512 181.116C179.455 180.94 179.422 180.757 179.413 180.573C179.37 180.336 179.304 180.105 179.215 179.881C179.166 179.683 179.067 179.436 179.018 179.239L177.98 178.843L179.018 179.239M189.64 179.337C187.121 177.311 185.243 174.693 182.872 172.42C183.02 169.9 183.317 167.628 183.317 165.355C183.267 159.13 183.662 152.905 183.168 146.68C182.872 142.876 183.909 139.22 184.947 135.563C186.972 128.597 185.836 121.433 184.799 114.565C184.093 109.774 183.927 104.918 184.305 100.09C184.651 95.8408 184.7 91.5919 185.046 87.3431C185.49 81.3157 186.034 75.387 184.502 69.3096C183.169 64.1715 182.872 58.7864 180.797 53.8459C179.167 49.9922 179.167 49.9922 174.127 43.3225C169.631 38.5796 168.939 38.5302 165.086 36.2081C162.122 34.4295 159.207 32.7497 155.6 32.404C151.005 31.9593 146.757 29.9337 142.211 29.1926C134.306 27.908 126.501 28.5997 118.695 29.7854C108.22 31.4174 97.895 33.4429 89.842 41.4466C86.0379 45.2509 82.1348 48.8576 80.5043 54.1437C80.0597 55.6259 79.0717 56.9105 78.3306 58.2444C74.9216 64.0248 75.7121 66.6436 75.218 74.153C75.5145 74.6965 74.5263 77.9571 74.1805 78.8467C73.7358 83.8859 73.6864 80.6747 73.7358 82.8484C73.8841 89.4195 73.9335 95.9904 73.9829 102.512C74.0323 108.441 74.2793 114.369 73.1924 120.199C72.0068 126.375 72.1056 132.6 72.0562 138.825C72.0562 140.208 72.1056 141.641 71.7598 142.975C70.7222 147.619 70.9693 152.263 71.2163 156.907C71.5621 163.231 71.2657 169.506 72.0068 175.978C68.3507 178.843 64.7442 181.709 61.0882 184.475C59.8036 185.414 59.0625 186.452 59.0625 188.131C59.1613 195.098 59.1613 202.064 59.2107 209.03C59.2107 210.907 60.1 211.945 62.0269 212.093C70.9693 212.636 79.8621 213.18 88.755 213.773C100.316 214.514 111.827 215.205 123.388 215.947C136.481 216.786 149.573 217.676 162.666 218.516C164.402 218.631 166.13 218.199 167.607 217.28C174.474 213.13 181.391 208.98 188.308 204.929C189.987 203.941 190.63 202.656 190.63 200.729C190.679 194.652 190.827 188.575 190.975 182.548C190.974 181.313 190.727 180.177 189.64 179.337ZM75.9591 148.113C76.552 143.963 77.0955 139.862 76.9967 135.663C76.8484 130.228 77.4907 124.892 78.2812 119.556C79.368 112.145 78.9729 104.685 78.8247 97.2252C78.7753 94.5078 78.7259 91.7904 78.7753 89.1229C78.7753 88.4312 78.8247 87.7395 78.8741 87.0478C78.9335 86.6386 78.9666 86.226 78.9729 85.8126C79.0023 85.6151 79.109 85.4374 79.2694 85.3185C79.4668 85.0715 79.7138 84.8245 79.9115 84.5774C79.9678 84.5164 80.0347 84.4662 80.1091 84.4292C80.1787 84.4219 80.2487 84.4394 80.3067 84.4786C81.196 84.8739 82.7276 86.3067 82.777 86.4055C82.777 86.4549 84.5557 87.7889 84.5557 87.8383C84.6051 87.8877 83.4687 90.3578 83.4687 90.4567C85.5932 90.4567 85.0497 89.765 86.7788 86.6525C86.8776 86.4549 85.0495 85.2197 85.0495 84.9727C84.7531 84.6763 84.6543 84.281 84.5061 83.9352C84.3521 83.5102 84.1356 83.1105 83.8638 82.7494C83.7156 82.552 83.5673 82.4037 83.4191 82.2061L82.9745 81.7615C82.9262 81.718 82.8879 81.6645 82.8623 81.6048C82.8367 81.5451 82.8244 81.4806 82.8262 81.4156C82.7768 81.218 82.678 81.0698 82.6286 80.8721C82.4178 80.4063 82.2363 79.9278 82.0852 79.4393C81.7393 78.5006 81.4429 77.5125 81.1464 76.5243C80.85 75.5362 80.5536 74.5481 80.2077 73.5599C80.0101 73.0165 79.8125 72.5224 79.6148 71.9789C79.9607 67.3349 80.85 62.8883 83.9132 59.1332C84.6049 58.2439 85.0495 57.1075 85.3954 56.07C86.7786 51.5248 89.842 48.2639 93.3496 45.3491C95.5233 43.5211 97.4996 41.3472 100.02 40.1122C100.069 40.0628 100.267 40.211 100.316 40.211L100.612 40.3592C100.798 40.4859 100.95 40.6554 101.057 40.8533C101.254 41.1003 101.304 41.4462 101.452 41.6932C101.551 41.9402 101.65 42.2367 101.749 42.4837C101.946 43.0272 102.144 43.5213 102.292 44.0647C102.341 44.1635 102.341 44.213 102.391 44.2624C102.396 44.2998 102.413 44.3345 102.44 44.3612C102.487 44.3853 102.537 44.402 102.588 44.4106C102.786 44.46 102.984 44.5588 103.181 44.6082C103.231 44.6082 102.984 45.9422 102.984 46.041V46.288C102.984 46.4857 102.934 46.7327 102.934 46.9303C102.885 47.375 102.885 47.8195 102.835 48.2641C102.811 48.4279 102.811 48.5944 102.835 48.7582C102.885 48.9064 102.934 49.0052 102.984 49.1534C103.379 49.9439 103.824 50.7344 104.268 51.525C104.219 51.4261 104.219 51.2285 104.169 51.1297C104.12 50.9815 104.12 50.8827 104.071 50.7344C104.021 50.4874 103.972 50.191 103.922 49.9439C103.873 49.5981 103.824 49.2522 103.774 48.857C103.774 48.7088 103.725 48.61 103.725 48.4617C103.725 48.3629 103.675 48.3135 103.725 48.2147C103.76 48.0698 103.828 47.9347 103.922 47.8194C103.972 47.6712 104.071 47.523 104.12 47.375C104.239 47.3911 104.356 47.4243 104.466 47.4736C104.556 47.5284 104.657 47.5621 104.762 47.5724C105.043 47.6188 105.311 47.7195 105.553 47.8689C105.662 47.9171 105.763 47.9839 105.849 48.0665L105.998 48.3629C106.245 49.0052 106.492 49.6969 106.788 50.3392C106.835 50.4644 106.902 50.5812 106.986 50.685C107.072 50.7676 107.173 50.8344 107.282 50.8827C107.924 51.2779 108.616 51.6732 109.258 52.0684C108.962 51.5744 108.517 51.1791 108.122 50.685C107.527 49.9415 107.136 49.0562 106.986 48.1159C106.945 47.9211 106.928 47.7219 106.936 47.523C106.442 47.1774 105.948 46.8809 105.454 46.5349C105.249 46.4147 105.051 46.2827 104.861 46.1396C104.8 46.072 104.764 45.9842 104.763 45.8926C104.713 45.7444 104.664 45.6456 104.614 45.4973C104.417 44.9539 104.268 44.4104 104.071 43.9163C104.021 43.7681 103.972 43.5705 103.824 43.5211C103.774 43.4717 103.676 43.4717 103.577 43.4223C103.448 43.3048 103.362 43.1487 103.33 42.9776C103.28 42.78 103.231 42.5329 103.182 42.3353C103.12 42.1604 103.087 41.977 103.083 41.7918V41.5942C103.009 41.2522 102.96 40.9055 102.934 40.5567C102.876 39.6544 103.101 38.7563 103.577 37.9877C118.646 35.7644 133.862 33.9364 147.103 45.5467V52.4637C147.118 52.6825 147.085 52.902 147.004 53.106C146.955 53.1554 146.955 53.2048 146.905 53.3036C146.87 53.4485 146.802 53.5836 146.707 53.6988C146.559 53.9459 146.411 54.1929 146.213 54.4894C146.001 54.7745 145.834 55.0912 145.719 55.4279C145.769 55.3785 145.818 55.3785 145.868 55.3291L146.016 55.1809C146.119 55.0825 146.235 54.9993 146.362 54.9338C146.597 54.7799 146.813 54.5975 147.004 54.3905C147.098 54.2839 147.181 54.1681 147.251 54.0447C147.35 53.8965 147.449 53.6494 147.547 53.5012C147.704 53.3188 147.807 53.0964 147.844 52.8589C147.893 52.7601 147.943 52.7107 147.943 52.6119C147.982 52.4986 148.015 52.3831 148.041 52.2661C148.091 52.019 148.14 51.8214 148.19 51.5744C148.387 50.5862 148.437 49.5981 148.585 48.61C148.644 48.2265 148.726 47.847 148.832 47.4738C152.933 50.6852 157.181 53.5012 157.774 59.1334C158.243 63.8645 159.136 68.5439 160.442 73.1151C160.837 74.4491 161.183 75.8325 161.183 77.2157C161.183 86.4545 161.628 95.644 160.146 104.833C159.355 109.724 159.405 114.813 159.355 119.803C159.355 125.139 159.059 130.475 158.565 135.761C158.071 140.949 158.071 146.087 159.355 151.126C160.047 153.794 159.602 156.462 159.306 159.179C158.713 164.466 158.466 169.802 158.12 175.137C158.021 176.422 158.071 177.756 157.527 179.139C130.651 177.657 103.824 176.175 76.8486 174.643C76.8486 174.643 76.7498 173.803 76.7498 173.754L76.6016 172.716C76.5028 172.025 76.4534 171.382 76.404 170.691C76.3704 170.032 76.3869 169.371 76.4534 168.714V168.467C76.4587 168.217 76.4918 167.969 76.5522 167.726C76.6016 167.479 76.651 167.183 76.7004 166.936C76.8361 166.33 77.0178 165.735 77.2439 165.157C77.2933 165.058 77.2933 165.009 77.3427 164.91C77.4181 164.85 77.5011 164.8 77.5897 164.762C78.8743 164.268 80.1093 163.774 81.3938 163.28C81.5421 163.23 81.5915 163.033 81.6903 162.885C81.7898 162.725 81.9057 162.576 82.0361 162.44C82.1349 162.341 82.2832 162.242 82.382 162.143C82.5602 161.943 82.6948 161.707 82.7772 161.452C82.9789 161.049 83.1603 160.637 83.3207 160.217C83.4142 160.041 83.4967 159.859 83.5677 159.673C83.5644 159.646 83.5671 159.619 83.5757 159.593C83.5842 159.568 83.5984 159.544 83.6171 159.525C83.7654 159.278 84.1112 159.08 84.3088 158.932C84.7485 158.6 85.1321 158.2 85.4452 157.746C85.0499 157.944 84.7535 158.191 84.3582 158.438C84.1919 158.55 84.0082 158.633 83.8148 158.685C83.7456 158.683 83.6772 158.7 83.6171 158.734C83.6106 158.734 83.6041 158.735 83.5981 158.738C83.592 158.74 83.5865 158.744 83.5819 158.749C83.5773 158.753 83.5737 158.759 83.5712 158.765C83.5688 158.771 83.5676 158.777 83.5677 158.784C83.4572 158.906 83.358 159.039 83.2713 159.179L82.6784 160.068C82.4314 160.414 82.1843 160.76 81.9373 161.155C81.6903 161.55 81.5421 161.946 81.1468 162.143C81.0183 162.201 80.8862 162.25 80.7516 162.291C79.5164 162.687 78.232 163.131 76.9969 163.527C76.7325 163.601 76.4822 163.717 76.2558 163.873V163.378C76.3052 163.131 76.2558 162.884 76.3052 162.687V161.699C76.3052 161.007 76.2558 160.365 76.2558 159.673C76.2064 158.339 76.1075 157.005 76.0581 155.721C75.6542 153.203 75.6209 150.64 75.9591 148.113V148.113ZM74.8722 180.177C75.5639 179.633 76.4532 179.782 77.2437 179.831C93.1028 180.72 108.962 181.56 124.821 182.449C135.196 183.042 145.588 183.619 155.996 184.179C156.49 184.228 156.984 184.327 157.527 184.376C158.569 186.433 159.365 188.605 159.898 190.848C129.613 188.872 99.5749 186.945 68.993 184.969C71.0681 182.894 73.0441 181.61 74.8722 180.177ZM161.479 213.228C159.256 213.574 157.082 213.278 155.057 213.031C154.959 213.012 154.872 212.96 154.81 212.883C154.716 212.832 154.632 212.765 154.563 212.685C154.402 212.567 154.253 212.435 154.118 212.29C153.821 211.993 153.624 211.598 153.327 211.302C153.229 211.203 153.08 211.104 153.031 211.005C152.943 210.816 152.877 210.617 152.833 210.412C152.835 210.343 152.818 210.275 152.784 210.215C152.754 210.191 152.729 210.161 152.712 210.127C152.695 210.093 152.686 210.055 152.685 210.017C152.442 209.735 152.242 209.419 152.092 209.078C152.052 208.968 152.035 208.85 152.043 208.733C152.092 208.436 151.944 208.14 151.845 207.893C151.796 207.646 151.746 207.448 151.697 207.201C151.685 207.127 151.65 207.058 151.598 207.003C151.491 206.863 151.356 206.745 151.203 206.658C150.857 206.262 150.511 205.916 150.165 205.571C150.03 205.44 149.881 205.324 149.721 205.225C149.82 205.274 149.869 205.422 149.968 205.521C150.035 205.632 150.118 205.732 150.215 205.818C150.386 206.024 150.519 206.258 150.61 206.509C150.638 206.633 150.688 206.75 150.758 206.855C150.9 207.118 151 207.401 151.055 207.695C151.153 208.083 151.202 208.481 151.203 208.881C151.252 209.227 151.252 209.622 151.302 209.968C151.398 210.008 151.497 210.041 151.598 210.066C151.643 210.14 151.66 210.228 151.648 210.313C151.76 210.57 151.892 210.818 152.043 211.055L152.191 211.351V212.191C152.199 212.308 152.182 212.426 152.142 212.537C152.043 212.685 151.845 212.784 151.895 212.981C151.665 213.006 151.433 213.006 151.203 212.981C151.176 212.985 151.149 212.982 151.123 212.973C151.098 212.965 151.074 212.951 151.055 212.932C150.727 212.891 150.397 212.874 150.067 212.883C149.424 212.833 148.782 212.784 148.14 212.784C142.557 212.438 136.974 212.043 131.391 211.697C125.809 211.351 120.226 210.956 114.643 210.61C109.06 210.264 103.478 209.869 97.8948 209.523C92.3121 209.177 86.7292 208.782 81.1464 208.436C78.3305 208.239 75.5637 208.09 72.7473 207.893C71.3641 207.794 69.9314 207.695 68.5478 207.646L66.4727 207.497C66.3245 207.497 64.4472 207.399 64.4472 207.349V202.606L64.4966 202.557L64.5955 202.458C64.6449 202.359 64.6943 202.31 64.7437 202.211C64.8919 202.013 64.9907 201.865 65.1387 201.667C65.2868 201.47 65.4846 201.272 65.6328 201.075C65.6822 200.976 65.7316 200.926 65.781 200.828C65.884 200.729 66.0005 200.646 66.1269 200.581C66.2751 200.482 66.4233 200.432 66.5715 200.334C66.8712 200.172 67.1855 200.04 67.5102 199.938C67.7422 199.833 68 199.799 68.2513 199.839C68.4557 199.888 68.6433 199.99 68.7948 200.136C69.3383 200.531 69.9312 200.926 70.5734 201.075C70.7217 201.124 70.7711 200.976 70.8699 200.926C71.1087 200.698 71.3741 200.499 71.6604 200.334C71.7148 200.281 71.7837 200.247 71.858 200.235C72.0062 200.136 72.1545 200.086 72.3027 199.988C72.8954 199.741 73.5378 199.691 74.1799 199.642C73.6989 199.486 73.2016 199.387 72.6977 199.345C72.4096 199.318 72.1193 199.369 71.858 199.494L71.7592 199.592C71.7098 199.642 71.611 199.691 71.5616 199.741L71.1169 200.037C71.0675 200.037 71.0675 200.086 71.0181 200.086C70.9163 200.123 70.8295 200.193 70.7711 200.284C70.6893 200.362 70.5861 200.414 70.4746 200.432C70.3875 200.413 70.3041 200.379 70.2276 200.333C70.1782 200.284 70.0794 200.284 70.03 200.234C69.9025 200.145 69.7706 200.063 69.6347 199.987C69.2395 199.691 68.8442 199.296 68.449 198.95C68.3996 198.901 68.3502 198.901 68.3007 198.851H68.1031C67.9549 198.901 67.8067 198.901 67.6585 198.95C67.5597 198.95 67.5102 199 67.4114 199H67.2632C67.115 199 66.9668 199.049 66.8186 199.049C66.6209 199.098 66.3739 199.148 66.1763 199.197C65.5342 199.345 64.9411 199.494 64.299 199.691V189.761C96.7087 191.837 129.02 193.961 161.479 196.036V213.228H161.479ZM181.587 192.43V191.689C181.571 191.518 181.606 191.347 181.686 191.195C181.735 191.096 181.735 191.047 181.784 190.997C181.784 190.948 181.834 190.948 181.834 190.898C181.981 190.64 182.146 190.393 182.328 190.157C183.168 189.169 183.662 188.033 183.563 186.65C184.106 186.254 184.65 185.81 185.588 185.859C185.934 190.701 185.687 195.74 185.539 200.878C179.314 204.584 173.089 208.289 166.617 212.093V195.344C171.656 192.676 176.646 190.058 181.686 187.439C181.834 187.645 181.935 187.881 181.982 188.131C182.007 188.294 182.007 188.461 181.982 188.625C181.982 188.724 181.933 188.773 181.884 188.872C181.884 188.921 181.834 188.971 181.785 189.069L181.587 189.267C181.488 189.316 181.439 189.415 181.34 189.514C181.242 189.617 181.159 189.733 181.093 189.86C181.063 189.883 181.038 189.913 181.021 189.947C181.004 189.982 180.995 190.019 180.994 190.057C180.932 190.125 180.897 190.213 180.895 190.305C180.749 190.579 180.584 190.843 180.401 191.095C180.288 191.197 180.218 191.338 180.204 191.49C180.2 191.517 180.203 191.544 180.212 191.57C180.22 191.596 180.234 191.619 180.253 191.638V193.565C180.253 193.911 180.303 194.207 180.303 194.553C180.314 194.83 180.245 195.105 180.105 195.344L179.957 195.492C179.93 195.519 179.912 195.554 179.907 195.591C179.907 195.64 179.858 195.64 179.808 195.69C179.442 196.072 179.027 196.404 178.573 196.678C178.866 196.649 179.151 196.565 179.413 196.431C179.611 196.332 179.808 196.184 180.056 196.085C180.105 196.085 180.154 195.986 180.253 195.986H180.303C180.395 195.827 180.477 195.662 180.55 195.492C180.599 195.443 180.599 195.344 180.648 195.245C180.698 195.146 180.698 195.097 180.747 194.998C180.747 194.949 180.797 194.899 180.797 194.85C180.84 194.646 180.906 194.447 180.994 194.257C181.044 194.158 181.044 194.059 181.093 193.961C181.093 193.911 181.142 193.862 181.142 193.763C181.13 193.678 181.147 193.59 181.192 193.516C181.191 193.465 181.204 193.415 181.231 193.371C181.257 193.328 181.295 193.292 181.34 193.269H181.439L181.587 192.43Z" stroke="black" stroke-width="0.38005" stroke-miterlimit="10"/>
<path d="M125.164 106.117C123.978 107.896 123.879 110.316 124.719 112.292C124.936 112.892 125.333 113.41 125.855 113.775C126.942 114.417 128.325 113.824 129.461 113.231C130.944 112.441 132.475 111.502 133.068 109.921C133.513 108.785 133.315 107.451 132.771 106.364C132.465 105.69 132.047 105.072 131.536 104.536C131.191 104.19 130.894 103.746 130.351 103.697C129.116 103.499 127.782 103.894 126.744 104.536C126.123 104.96 125.587 105.496 125.164 106.117Z" fill="#6026EF" stroke="black" stroke-width="0.0950126" stroke-miterlimit="10"/>
<path d="M102.686 106.463C102.272 107.137 102.018 107.898 101.945 108.686C101.846 110.02 102.488 111.255 103.081 112.441C103.17 112.69 103.323 112.912 103.526 113.083C103.735 113.216 103.971 113.3 104.217 113.33C105.448 113.496 106.701 113.348 107.858 112.899C109.016 112.449 110.041 111.714 110.837 110.761C111.133 110.39 111.367 109.972 111.529 109.526C111.701 108.849 111.751 108.146 111.677 107.451C111.628 106.463 111.529 105.327 110.788 104.635C110.427 104.299 110.009 104.031 109.553 103.845C108.984 103.515 108.389 103.234 107.774 103.005C107.329 102.906 106.786 103.054 106.391 103.203C105.354 103.548 104.464 104.24 103.723 105.03C103.526 105.277 103.328 105.475 103.13 105.722C103.031 105.842 102.948 105.975 102.883 106.117C102.834 106.167 102.784 106.364 102.686 106.463Z" fill="#6026EF" stroke="black" stroke-width="0.0950126" stroke-miterlimit="10"/>
<path d="M127.189 114.218C126.695 114.168 126.201 114.07 125.707 113.971C125.524 113.702 125.359 113.421 125.212 113.131C125.064 112.835 125.015 112.588 124.867 112.291C124.589 111.715 124.406 111.098 124.323 110.463C124.103 109.046 124.383 107.597 125.114 106.363C125.872 105.145 127.022 104.222 128.374 103.745C128.939 103.514 129.565 103.48 130.153 103.646C130.535 103.764 130.878 103.986 131.141 104.288C131.286 104.424 131.418 104.572 131.536 104.733C131.635 104.881 131.783 105.029 131.882 105.177C131.734 105.177 131.585 105.128 131.437 105.128C131.289 105.128 131.091 105.078 130.943 105.078C129.529 105.081 128.173 105.644 127.173 106.644C126.173 107.644 125.61 109 125.608 110.414C125.614 111.84 126.182 113.207 127.189 114.218Z" fill="#282F47"/>
<path d="M103.675 113.331C103.626 113.331 103.478 113.035 103.478 112.985C103.402 112.859 103.336 112.727 103.28 112.59C103.16 112.335 103.061 112.071 102.984 111.8C102.885 111.503 102.885 111.256 102.786 110.96L102.49 109.922C102.275 109.236 102.208 108.512 102.292 107.798C102.391 106.612 103.033 105.476 103.922 104.636C104.822 103.808 105.933 103.244 107.133 103.006C107.535 102.89 107.959 102.873 108.369 102.957C108.872 103.072 109.323 103.35 109.653 103.747C109.832 103.932 109.997 104.13 110.147 104.34C110.196 104.439 110.295 104.537 110.196 104.636C110.177 104.655 110.154 104.669 110.128 104.678C110.102 104.686 110.075 104.689 110.048 104.686C109.9 104.686 109.702 104.636 109.554 104.636C109.406 104.636 109.208 104.587 109.06 104.587C108.014 104.589 106.991 104.898 106.119 105.476C105.247 106.053 104.563 106.874 104.153 107.837C103.743 108.799 103.624 109.861 103.811 110.89C103.999 111.92 104.484 112.871 105.207 113.627C105.157 113.627 103.675 113.331 103.675 113.331Z" fill="#282F47"/>
<path d="M105.848 114.712C104.5 114.712 103.182 114.313 102.06 113.563C100.939 112.814 100.065 111.75 99.5493 110.504C99.0333 109.258 98.8982 107.887 99.1613 106.565C99.4243 105.242 100.074 104.028 101.027 103.074C101.981 102.121 103.195 101.471 104.518 101.208C105.84 100.945 107.211 101.08 108.457 101.596C109.703 102.112 110.767 102.986 111.516 104.107C112.265 105.229 112.665 106.547 112.665 107.895C112.661 109.702 111.942 111.434 110.664 112.711C109.387 113.989 107.655 114.709 105.848 114.712ZM105.848 103.053C104.891 103.053 103.955 103.337 103.158 103.869C102.362 104.401 101.742 105.157 101.375 106.042C101.009 106.926 100.913 107.9 101.099 108.839C101.286 109.778 101.747 110.641 102.424 111.318C103.101 111.995 103.964 112.456 104.903 112.643C105.842 112.83 106.815 112.734 107.7 112.368C108.585 112.001 109.341 111.381 109.873 110.585C110.405 109.789 110.689 108.853 110.689 107.895C110.687 106.612 110.176 105.382 109.269 104.474C108.362 103.566 107.131 103.056 105.848 103.053Z" fill="black"/>
<path d="M127.782 115.207C126.434 115.207 125.116 114.808 123.995 114.058C122.874 113.309 122 112.244 121.484 110.999C120.968 109.753 120.833 108.382 121.096 107.06C121.359 105.737 122.008 104.522 122.962 103.569C123.915 102.616 125.13 101.966 126.453 101.703C127.775 101.44 129.146 101.575 130.392 102.091C131.637 102.608 132.702 103.481 133.451 104.603C134.2 105.724 134.6 107.042 134.6 108.39C134.596 110.197 133.877 111.929 132.599 113.207C131.321 114.484 129.589 115.204 127.782 115.207ZM127.782 103.548C126.825 103.548 125.889 103.832 125.092 104.364C124.296 104.896 123.676 105.652 123.309 106.537C122.943 107.422 122.847 108.395 123.034 109.334C123.22 110.273 123.681 111.136 124.359 111.813C125.036 112.49 125.898 112.952 126.838 113.138C127.777 113.325 128.75 113.229 129.635 112.863C130.52 112.496 131.276 111.876 131.808 111.08C132.34 110.284 132.624 109.347 132.624 108.39C132.622 107.106 132.111 105.876 131.203 104.969C130.296 104.061 129.066 103.55 127.782 103.548Z" fill="black"/>
<path d="M102.687 112.291C102.012 111.282 101.651 110.096 101.649 108.883C101.647 108.051 101.809 107.228 102.125 106.46C102.442 105.691 102.908 104.993 103.496 104.405C104.083 103.818 104.781 103.352 105.55 103.035C106.318 102.718 107.141 102.556 107.972 102.559H108.17C108.558 102.912 108.921 103.292 109.257 103.695C108.836 103.597 108.405 103.547 107.972 103.547C106.926 103.549 105.903 103.858 105.031 104.436C104.159 105.013 103.475 105.834 103.065 106.797C102.655 107.759 102.536 108.821 102.723 109.851C102.911 110.88 103.396 111.832 104.12 112.588L102.687 112.291Z" fill="black"/>
<path d="M126.202 113.183C125.708 113.133 125.214 113.034 124.72 112.936C124.093 112.007 123.723 110.93 123.647 109.812C123.572 108.694 123.794 107.576 124.291 106.572C124.788 105.568 125.542 104.714 126.476 104.096C127.411 103.478 128.492 103.119 129.611 103.055L130.895 104.092C130.569 104.032 130.239 103.999 129.907 103.993C128.493 103.996 127.137 104.559 126.137 105.559C125.137 106.559 124.574 107.915 124.572 109.329C124.599 110.775 125.183 112.156 126.202 113.183Z" fill="black"/>
</g>
<defs>
<clipPath id="clip0_242_94637">
<rect width="190.025" height="190.026" fill="white" transform="translate(30.0059 28.5049)"/>
</clipPath>
</defs>
</svg>
