<svg width="250" height="250" viewBox="0 0 250 250" fill="none" xmlns="http://www.w3.org/2000/svg">
<g clip-path="url(#clip0_242_93888)">
<path fill-rule="evenodd" clip-rule="evenodd" d="M102.799 1.3269C56.3462 9.64528 17.6607 44.9232 3.37915 92.0273C0.773397 100.596 -0.128596 109.867 0.0217365 125.802C0.27229 151.459 5.88469 172.205 17.6106 190.896L24.7263 202.171L64.1133 178.819L103.5 155.468L104.052 202.872L104.603 250.277H124.497H144.441V203.474C144.441 170.801 145.092 156.67 146.646 156.67C147.848 156.67 165.487 166.642 185.882 178.869C214.495 196.057 223.666 200.617 226.121 199.114C229.428 197.11 245.664 167.193 244.161 165.941C243.71 165.54 216.65 149.354 184.128 129.911L124.948 94.583L85.0596 118.636C63.1111 131.865 44.0189 142.689 42.6659 142.689C40.8118 142.689 40.3608 137.879 40.9622 123.246C41.6637 106.559 42.6659 101.949 48.0779 90.3236C74.6366 33.7987 148.349 23.8767 189.991 71.2314C198.009 80.3515 205.676 96.9382 208.332 110.819C209.434 116.682 210.587 121.643 210.837 121.793C211.088 121.994 219.857 127.205 230.28 133.369L249.272 144.644L249.874 128.207C250.726 105.758 247.569 91.0752 237.246 69.9285C226.572 47.98 214.796 34.4 195.153 21.271C169.195 3.98277 132.565 -3.93473 102.799 1.3269Z" fill="url(#paint0_linear_242_93888)"/>
</g>
<defs>
<linearGradient id="paint0_linear_242_93888" x1="162.797" y1="26.7491" x2="110.253" y2="164.501" gradientUnits="userSpaceOnUse">
<stop stop-color="#7A1DF2"/>
<stop offset="1" stop-color="#FF0083"/>
</linearGradient>
<clipPath id="clip0_242_93888">
<rect width="250" height="250" rx="125" fill="white"/>
</clipPath>
</defs>
</svg>
