<svg width="250" height="250" viewBox="0 0 250 250" fill="none" xmlns="http://www.w3.org/2000/svg">
<g clip-path="url(#clip0_242_94221)">
<path d="M175.779 0.00012207H74.2131C33.2242 0.00012207 -0.00390625 33.2282 -0.00390625 74.2171V175.338C-0.00390625 216.327 33.2242 249.555 74.2131 249.555H175.779C216.768 249.555 249.996 216.327 249.996 175.338V74.2171C249.996 33.2282 216.768 0.00012207 175.779 0.00012207Z" fill="black"/>
<path d="M175.779 0.00012207H74.2131C33.2242 0.00012207 -0.00390625 33.2282 -0.00390625 74.2171V175.338C-0.00390625 216.327 33.2242 249.555 74.2131 249.555H175.779C216.768 249.555 249.996 216.327 249.996 175.338V74.2171C249.996 33.2282 216.768 0.00012207 175.779 0.00012207Z" fill="#2CC981"/>
<path fill-rule="evenodd" clip-rule="evenodd" d="M169.693 38.7039L209.919 80.3025H128.28L169.693 38.7039ZM84.3437 123.534L41.335 80.6736L83.0449 39.0749L210.179 166.506L168.061 208.03L126.462 166.506L84.5664 208.327L42.374 166.209L84.3437 123.534Z" fill="white"/>
</g>
<defs>
<clipPath id="clip0_242_94221">
<rect width="250" height="250" rx="125" fill="white"/>
</clipPath>
</defs>
</svg>
