<svg width="250" height="250" viewBox="0 0 250 250" fill="none" xmlns="http://www.w3.org/2000/svg">
<g clip-path="url(#clip0_764_6507)">
<rect width="250" height="250" rx="125" fill="#007FF9"/>
<path d="M249.913 114.818C250.411 116.29 249.618 117.931 250.5 119.357V131.985C249.61 133.508 250.504 135.279 249.816 136.827C242.958 136.865 236.1 136.907 229.237 136.945C230.051 129.577 229.866 122.204 229.419 114.823C236.247 114.823 243.08 114.823 249.909 114.818H249.913Z" fill="#ABB7C0"/>
<path d="M229.422 114.826C229.865 122.203 230.05 129.58 229.24 136.949C226.056 162.788 215.102 184.742 196.02 202.47C180.899 216.515 163.083 225.352 142.698 228.823C88.4809 238.052 36.2423 204.773 23.0699 151.539C13.3307 112.186 23.6519 77.8141 52.3378 49.0733C53.3628 48.0484 54.0925 47.0277 54.4088 45.5598C54.9487 43.0544 56.813 41.5992 59.3901 41.5866C60.6724 41.5824 61.6425 41.1521 62.6421 40.4224C77.0631 29.8482 93.1417 23.2345 110.87 21.0201C139.218 17.4771 164.964 24.2805 187.968 41.2744C189.124 42.1307 190.17 42.717 191.76 42.5989C193.831 42.447 194.882 44.0751 195.24 45.8888C195.506 47.2343 196.189 48.1327 197.121 49.0354C214.862 66.1347 225.44 86.9079 228.958 111.283C229.127 112.46 229.266 113.641 229.418 114.822L229.422 114.826ZM193.633 131.685C192.465 129.673 191.301 127.661 190.132 125.653C188.5 122.051 186.821 118.47 185.26 114.839C184.847 113.877 184.02 112.97 184.421 111.764C185.037 111.924 185.079 112.873 185.999 112.814C187.458 107.651 188.884 102.451 189.483 97.0646C190.204 94.1373 190.427 91.1384 190.837 88.1606C192.587 75.4731 193.11 62.7815 191.132 50.0645C190.676 47.1247 190.689 47.1458 187.876 48.0357C170.329 53.6118 155.162 63.1611 141.782 75.6756C139.851 77.4851 138.05 79.4295 136.333 81.7494C137.337 81.9898 138.13 82.1796 138.923 82.3694C139.568 83.0991 141.276 82.7364 141.011 84.4024C138.21 84.1578 135.46 83.4492 132.625 83.542C127.631 82.555 122.625 82.787 117.618 83.4407C114.598 83.5125 111.616 83.9342 108.647 84.4573C107.862 82.5972 109.925 83.1877 110.406 82.4158C111.232 82.1965 112.059 81.9771 113.109 81.6988C112.27 80.6822 111.675 79.9104 111.026 79.1891C109.009 76.9452 106.766 74.9417 104.53 72.9171C91.9312 61.5119 77.5439 53.2364 61.3978 47.9809C58.884 47.1626 58.8249 47.15 58.3778 49.8157C56.5346 60.7443 56.7329 71.7066 57.9265 82.6773C58.4116 87.123 58.7743 91.5855 59.795 95.9552C60.1957 100.983 61.5708 105.808 62.8066 110.663C63.4056 113.025 63.4182 113.021 65.2741 111.785C65.1602 112.181 65.0843 112.591 64.9324 112.97C62.6759 118.656 60.0397 124.16 57.1293 129.538C55.5012 132.056 53.8731 134.579 52.2408 137.097C49.457 140.425 46.5635 143.651 43.1048 146.65C45.2011 147.283 47.0317 147.561 48.9213 147.392C50.3174 147.641 51.7009 147.667 53.0633 147.198C54.5691 147.586 55.5603 147.093 56.1761 145.608C56.4798 144.883 56.8678 144.006 58.0531 143.858C57.8843 144.803 57.7536 145.541 57.6271 146.279C56.2984 149.687 55.1427 153.141 54.6872 156.79C52.8482 164.239 52.1185 171.86 50.8194 179.634C51.954 179.335 52.7554 179.128 53.5568 178.917C54.9318 178.807 56.3068 178.698 57.6819 178.588C63.452 178.959 68.7665 180.832 73.8238 183.519C75.3717 184.341 76.983 185.063 78.4339 186.033C88.3671 192.684 99.5782 195.801 111.131 198.066C115.876 198.998 120.617 200.314 125.455 199.96C135.979 199.184 146.165 196.598 156.195 193.431C162.324 191.495 167.604 187.804 173.206 184.78C180.819 180.667 188.584 177.162 197.61 179.389C198.779 179.676 198.492 178.93 198.319 178.301C197.345 171.093 196.392 163.876 194.793 156.769C194.114 153.234 193.409 149.708 191.642 146.503C191.532 146.102 191.393 145.71 191.317 145.3C191.094 144.149 189.715 142.656 190.828 141.998C191.634 141.521 192.832 143.272 193.376 144.284C195.042 147.388 197.67 147.878 200.761 147.452C200.9 147.435 201.035 147.405 201.175 147.384C202.524 147.549 203.823 147.211 205.135 146.988C205.814 146.874 206.835 146.861 205.675 145.908C201.951 142.846 199.002 139.075 195.97 135.38L193.641 131.685H193.633ZM35.8332 152.631L35.8037 152.597C37.0943 158.545 39.6504 163.973 42.6071 169.237C43.3706 171.202 44.5895 172.894 45.9266 175.091C46.8588 167.672 47.812 160.713 50.2036 153.812C46.1755 154.01 42.7379 152.602 39.2623 151.319C37.6469 150.725 36.6177 149.569 35.7109 148.194C35.3692 147.675 35.403 147.392 35.7868 146.937C37.7228 144.634 39.5703 142.259 41.5274 139.982C47.5589 132.959 53.2025 125.653 58.0699 117.762C58.7743 116.614 59.1371 115.497 58.9051 114.202C58.5339 112.139 58.3525 110.005 57.6819 108.04C54.1937 97.8238 52.3505 87.3212 51.9371 76.5614C51.819 73.5371 51.9202 70.5002 51.9202 67.4718C49.7776 69.585 47.9892 71.6349 46.7322 74.0686C46.5466 74.2753 46.3315 74.4609 46.1839 74.6928C32.6023 96.3011 28.4308 119.626 33.4838 144.621C33.9942 147.194 34.5425 149.759 35.5 152.214C35.5 152.441 35.4916 152.673 35.829 152.635L35.8332 152.631ZM206.354 169.558C209.075 164.96 211.192 160.097 212.749 154.989C214.221 151.269 215.144 147.401 215.887 143.482C218.928 128.661 218.291 113.966 214.166 99.4434C211.378 89.6157 207.16 80.4292 201.132 72.1284C200.242 70.5973 199.247 69.1505 197.712 67.6279C197.657 71.909 197.476 75.8064 197.033 79.6868C195.877 89.8435 194.493 99.9833 191.157 109.689C190.111 112.738 190.461 115.214 191.946 117.829C197.357 127.353 203.419 136.396 211.011 144.351C212.158 145.553 213.373 146.709 212.673 148.738C212.031 150.602 210.53 150.931 208.965 151.366C205.54 152.319 202.069 153.002 198.353 153.057C200.825 160.126 202.065 167.271 203.376 174.864C204.557 172.839 205.679 171.333 206.354 169.558ZM189.057 192.229C191.208 190.457 193.026 188.386 195.012 186.045C193.979 186.045 193.3 185.986 192.633 186.054C184.78 186.851 177.221 188.757 170.009 192.022C159.548 196.755 149.033 201.209 137.573 203.187C123.907 205.545 110.591 204.418 97.6211 199.863C87.9959 196.48 78.5942 192.452 69.0702 188.774C64.3715 186.961 59.5251 185.826 53.9659 185.915C56.1466 188.378 57.994 190.52 60.2 192.334C60.7314 192.887 61.2376 193.465 61.7985 193.983C89.1853 219.261 130.297 225.533 163.981 209.581C173.29 205.173 181.764 199.555 189.057 192.237V192.229ZM79.8427 43.4298C78.4466 44.0372 77.1011 44.7162 75.8821 45.8045C76.152 45.9816 76.2954 46.1039 76.4599 46.1756C92.0071 52.9327 105.382 62.5369 115.741 76.1058C116.197 76.7005 116.703 76.9832 117.487 77.0464C121.882 77.3965 126.32 76.8988 130.689 77.696C131.453 77.8352 131.794 77.3417 132.25 76.8904C141.795 67.4212 152.407 59.3692 164.213 52.9243C167.912 50.9039 171.729 49.1029 175.627 47.1331C173.771 45.9774 172.164 44.7458 170.262 43.9992C169.553 43.5605 168.874 43.0755 168.14 42.6917C148.632 32.535 128.053 29.5487 106.474 33.6696C97.0854 35.4622 88.1435 38.6003 79.8469 43.4382L79.8427 43.4298Z" fill="#251634"/>
<path d="M65.2749 111.782C63.419 113.018 63.4064 113.022 62.8074 110.66C61.5716 105.806 60.1966 100.98 59.7959 95.9526C59.7916 92.5951 59.6567 89.2503 59.4922 85.8929C58.9649 75.1879 59.7452 64.5208 61.0992 53.8917C61.2763 52.4998 61.9301 52.2552 63.1111 52.8288C64.0559 53.2885 65.0092 53.7314 65.9793 54.1279C76.718 58.4723 87.0941 63.5001 96.5211 70.3204C101.511 73.9351 106.323 77.7523 110.406 82.4089C109.926 83.1808 107.863 82.5903 108.647 84.4503C109.255 84.9776 110.018 85.1716 110.769 85.1969C112.992 85.2728 115.219 85.256 117.442 85.2771C118.585 92.2535 120.242 99.0907 122.993 105.624C123.364 106.502 123.638 107.86 124.578 107.898C125.764 107.948 125.903 106.476 126.329 105.574C129.395 99.0991 131.167 92.2239 132.563 85.2307C135.389 85.0451 138.312 85.8676 141.007 84.3913C141.277 82.7252 139.565 83.088 138.919 82.3583C142.07 79.4859 144.951 76.3225 148.313 73.6778C159.886 64.5756 172.937 58.1897 186.539 52.8035C187.547 52.4028 188.045 52.4197 188.214 53.6935C189.142 60.6952 189.846 67.7053 189.926 74.7872C190.011 82.2149 189.551 89.6257 189.479 97.0492C188.884 102.44 187.459 107.636 185.995 112.799C185.076 112.858 185.034 111.909 184.418 111.749L184.426 111.787C184.371 111.681 184.316 111.576 184.262 111.47C184.148 111.571 184.038 111.673 183.924 111.774C182.06 111.93 182.705 113.149 183.043 114.068C184.274 117.422 185.029 120.893 185.692 124.39C183.076 124.111 180.478 123.204 177.783 124.035C180.841 125.959 184.371 126.722 187.37 128.62C187.531 128.738 187.687 128.861 187.847 128.979V128.932C187.577 130.223 189.403 131.088 188.572 132.496C185.46 131.83 182.507 130.345 178.673 130.366C180.512 132.167 182.435 132.661 184.089 133.589C187.476 135.491 191.158 136.9 194.051 139.612C194.22 139.717 194.389 139.823 194.558 139.933V139.899C195.802 143.235 198.678 145.125 201.163 147.36C201.028 147.386 200.889 147.411 200.754 147.428C197.662 147.854 195.034 147.364 193.368 144.26C192.824 143.252 191.63 141.497 190.82 141.974C189.707 142.632 191.09 144.125 191.31 145.277C191.39 145.682 191.525 146.078 191.635 146.479C191.221 150.056 192.322 153.514 192.499 157.045C189.133 158.584 186.118 160.71 182.975 162.629C178.652 165.265 174.265 165.721 169.773 163.063C176.707 157.158 179.036 149.119 180.149 140.536C180.284 139.507 180.47 138.165 179.128 137.878C176.066 137.229 173.742 135.234 171.123 133.787C164.265 129.983 155.955 130.628 149.785 135.415C145.284 138.903 142.458 143.446 140.931 148.866C139.042 147.187 137.439 145.264 135.882 143.265C132.483 138.903 129.644 134.12 125.865 130.042C124.967 129.076 124.465 129.021 123.549 130.029C121.938 131.796 120.525 133.699 119.099 135.605C115.708 140.139 112.756 145.036 108.504 148.883C108.289 148.297 108.044 147.719 107.859 147.124C104.054 135.065 90.4178 125.828 76.2288 135.006C74.4235 136.174 72.6393 137.423 70.4207 137.832C69.206 138.056 69.0668 139.144 69.1975 140.169C70.3195 148.866 72.5929 157.049 79.62 163.063C76.1992 165.067 72.6225 165.506 68.9571 163.886C67.3037 163.152 65.7726 162.14 64.1993 161.229C61.7867 159.828 59.5892 158.044 56.856 157.23C56.8433 157.158 56.8307 157.091 56.8138 157.023C57.3073 154.729 57.5899 152.405 57.7122 150.064C57.7797 148.794 58.5685 147.504 57.6152 146.259C57.746 145.521 57.8767 144.779 58.0454 143.834C56.8602 143.982 56.4722 144.859 56.1685 145.585C55.5527 147.065 54.5615 147.563 53.0557 147.175C58.8468 140.607 65.76 135.318 72.6014 129.89C66.5867 131.484 61.7698 135.179 56.8855 138.768C56.7168 137.916 57.3073 137.343 57.6279 136.655C58.0876 135.66 59.0788 134.896 58.9649 133.648H58.9607C59.1083 133.517 59.256 133.378 59.3994 133.243H59.3952L59.8085 132.842C62.0609 130.624 64.735 128.966 67.3628 127.258C69.6446 125.777 71.9645 124.356 74.2506 122.884C74.6175 122.648 75.3051 122.462 75.0309 121.855C74.7905 121.327 74.1747 121.526 73.7149 121.635C73.175 121.766 72.6351 121.931 72.1205 122.133C69.1427 123.306 66.1691 124.491 63.1955 125.672C64.347 121.745 65.0218 117.687 66.4812 113.845C66.9114 112.71 67.2151 111.563 65.2749 111.761V111.782ZM179.082 107.881C179.453 106.35 178.968 105.789 178.58 105.228C178.146 104.603 178.015 104.085 178.411 103.325C180.972 98.4622 181.853 93.135 182.351 87.7614C183.182 78.8152 182.752 69.8438 182.583 60.8808C182.558 59.434 182.946 58.6832 184.186 58.1265C185.223 57.6625 186.185 57.0298 186.611 55.7687C185.51 55.5578 184.654 55.7982 183.785 56.0934C179.365 57.595 175.417 59.9781 171.629 62.648C163.729 68.2157 157.124 75.171 150.662 82.2781C149.569 83.4802 148.608 84.8974 146.516 84.7498C158.655 90.5874 169.086 98.6731 179.082 107.881ZM70.3786 107.417C80.3623 98.6225 90.8522 90.579 102.928 84.6486C101.106 84.9017 100.165 83.8514 99.2163 82.7927C95.1966 78.3007 91.0842 73.893 86.6217 69.8396C80.3707 64.1623 73.7571 59.008 65.6714 56.1187C64.7224 55.7771 63.7818 55.3933 62.6978 55.95C63.4654 56.9919 64.2921 57.7553 65.3466 58.1855C66.6542 58.717 67.0169 59.5774 66.9072 60.9778C66.4348 66.9883 66.5234 73.0199 66.5909 79.043C66.671 86.0616 67.2447 93.0338 69.459 99.7613C70.2604 102.191 72.2218 104.468 70.3828 107.421L70.3786 107.417ZM161.27 114.718C161.418 113.098 160.557 112.584 158.971 113.402C156.795 114.524 154.783 116.026 152.522 116.907C144.656 119.973 139.889 125.908 136.692 133.395C136.351 134.196 135.591 134.998 136.494 135.875C137.274 136.63 138.143 136.643 139.198 136.314C148.342 133.483 154.711 127.376 159.435 119.311C160.283 117.86 160.928 116.3 161.27 114.718ZM111.166 136.567C112.52 136.723 113.722 135.563 113.14 134.335C110.208 128.173 107.239 122.044 100.608 118.818C97.2761 117.198 93.906 115.625 90.8016 113.562C90.1099 113.103 89.2578 112.668 88.4649 113.313C87.6044 114.014 88.1738 114.878 88.4396 115.633C91.2149 123.559 96.85 129.05 103.687 133.517C105.944 134.989 108.453 135.858 111.17 136.567H111.166ZM131.116 113.541C131.559 113.364 131.745 113.351 131.8 113.263C134.545 108.703 136.747 103.865 138.97 99.0401C139.147 98.6562 139.257 98.2682 139.067 97.8295C137.899 95.0921 136.903 92.2788 135.212 89.2588C134.199 97.665 133.052 105.574 131.116 113.545V113.541ZM109.681 90.6169C109.36 92.1143 108.875 93.599 108.749 95.1132C108.55 97.4626 107.407 99.9132 108.361 102.153C110.271 106.645 112.937 110.732 116.202 114.448C113.802 106.577 111.866 98.6098 109.681 90.6211V90.6169Z" fill="#0147FD"/>
<path d="M169.78 163.087C174.272 165.744 178.659 165.284 182.982 162.652C186.125 160.737 189.145 158.607 192.506 157.068C193.27 156.967 194.033 156.87 194.797 156.768C196.395 163.875 197.349 171.088 198.323 178.301C194.75 177.061 191.106 176.888 187.348 177.225C179.924 177.892 173.277 180.84 166.701 183.991C158.835 187.761 150.758 190.815 142.153 192.464C134.274 193.974 126.408 194.86 118.377 193.801C107.558 192.376 97.4224 188.867 87.6158 184.223C81.2805 181.224 74.9115 178.288 67.7833 177.647C64.3541 177.339 60.9587 177.238 57.6856 178.583C56.3106 178.693 54.9356 178.803 53.5605 178.912C55.4164 171.805 55.9141 164.491 56.8674 157.249C59.5963 158.063 61.7981 159.852 64.2107 161.248C65.784 162.159 67.3151 163.175 68.9685 163.905C72.6296 165.525 76.2106 165.086 79.6313 163.083C83.7227 166.031 88.1937 167.655 93.3353 167.347C99.0674 167.001 104.424 165.445 109.646 163.112C111.202 162.416 111.325 161.796 110.987 160.375C110.085 156.57 109.33 152.728 108.515 148.902C112.767 145.051 115.72 140.158 119.111 135.624C120.541 133.713 121.954 131.815 123.561 130.048C124.476 129.044 124.978 129.095 125.876 130.061C129.66 134.135 132.498 138.918 135.894 143.284C137.45 145.283 139.049 147.206 140.943 148.885C140.074 152.913 139.196 156.937 138.34 160.969C138.209 161.589 137.695 162.298 138.779 162.686C141.204 163.559 143.473 164.803 145.966 165.533C154.246 167.95 162.34 168.781 169.776 163.087H169.78ZM106.061 181.683L106.073 181.713C106.069 182.371 106.179 182.928 107.039 182.839L106.959 182.911L107.035 182.831C106.731 183.851 107.419 184.374 108.073 184.914C112.59 188.635 117.845 189.077 123.084 186.146C123.691 185.804 124.134 185.383 124.936 185.944C128.626 188.516 132.764 188.786 136.965 187.761C139.854 187.057 142.52 185.716 144.043 182.936C144.616 181.886 145.409 180.684 144.123 179.52C143.853 178.845 144.431 177.841 143.553 177.47C142.879 177.183 142.685 177.984 142.415 178.44C138.88 184.37 131.452 185.572 126.239 180.928C125.024 179.849 124.425 179.802 123.19 180.912C118.255 185.328 110.557 184.341 107.284 179.022C106.908 178.41 106.79 177.191 105.888 177.474C104.968 177.765 105.344 178.916 105.394 179.718C105.424 180.195 105.626 180.663 105.753 181.135C105.854 181.316 105.959 181.494 106.061 181.675V181.683ZM124.02 162.117C121 162.159 118.073 162.619 115.618 164.614C113.725 166.157 113.712 167.414 115.488 169.131C116.618 170.223 117.98 171 119.457 171.392C121.228 171.864 122.629 172.64 123.565 174.264C124.185 175.336 125.062 175.614 125.784 174.374C126.804 172.623 128.344 171.784 130.242 171.291C131.161 171.05 132.03 170.506 132.844 169.975C136.079 167.853 136.029 165.862 132.714 163.85C131.693 163.234 130.605 162.804 129.436 162.522C127.656 162.096 125.876 161.914 124.029 162.112L124.02 162.117Z" fill="#E9F4FC"/>
<path d="M79.8418 43.4293C88.1384 38.5913 97.0803 35.4532 106.469 33.6606C128.048 29.5397 148.627 32.526 168.135 42.6827C168.869 43.0665 169.552 43.5516 170.257 43.9902C169.569 44.3319 168.886 44.682 168.194 45.0194C153.946 52.0042 140.706 60.381 130.3 72.6297C129.571 73.4902 128.841 73.5113 127.913 73.4227C125.129 73.157 122.345 72.8575 119.553 72.7141C118.49 72.6593 117.938 72.1405 117.347 71.3981C115.162 68.6607 112.889 66.0034 110.337 63.595C101.345 55.1002 91.0994 48.5034 79.8418 43.4335V43.4293Z" fill="#FD8201"/>
<path d="M189.057 192.229C181.76 199.547 173.29 205.165 163.981 209.572C130.297 225.525 89.1856 219.253 61.7988 193.975C61.2378 193.456 60.7316 192.878 60.2002 192.326C64.7766 192.25 69.0029 193.831 73.2504 195.206C83.8837 198.652 94.2723 202.845 105.154 205.561C119.55 209.151 133.735 208.252 147.852 204.055C156.166 201.584 164.019 197.792 172.472 195.729C177.968 194.388 183.337 192.477 189.065 192.229H189.057Z" fill="#FD8201"/>
<path d="M201.134 72.1309C207.161 80.4317 211.379 89.6183 214.167 99.4459C218.288 113.968 218.929 128.663 215.888 143.485C214.863 142.161 213.842 140.836 212.809 139.516C206.419 131.38 199.915 123.328 195.191 114.031C194.63 112.926 194.562 112.028 194.955 110.881C197.608 103.187 199.261 95.266 200.05 87.1803C200.539 82.1737 200.779 77.1459 201.134 72.1309Z" fill="#FD8201"/>
<path d="M33.4882 144.616C28.4352 119.621 32.6067 96.3002 46.1883 74.6877C46.3317 74.4557 46.551 74.2702 46.7366 74.0635C47.2301 85.6585 48.7865 97.1649 52.5151 108.11C54.6072 114.256 53.2406 118.604 49.6385 123.371C44.2733 130.465 38.8323 137.505 33.4924 144.616H33.4882Z" fill="#FD8201"/>
<path d="M57.6807 178.589C60.9495 177.243 64.3492 177.348 67.7783 177.652C74.9065 178.289 81.2756 181.225 87.6108 184.228C97.4174 188.872 107.553 192.381 118.372 193.807C126.403 194.865 134.269 193.98 142.148 192.47C150.753 190.82 158.834 187.767 166.696 183.996C173.272 180.845 179.919 177.897 187.343 177.23C191.101 176.893 194.745 177.066 198.318 178.306C198.487 178.934 198.778 179.681 197.609 179.394C188.583 177.171 180.818 180.676 173.205 184.785C167.603 187.809 162.322 191.499 156.194 193.436C146.164 196.603 135.977 199.193 125.454 199.965C120.616 200.319 115.875 199.003 111.13 198.071C99.577 195.806 88.37 192.689 78.4327 186.037C76.986 185.067 75.3705 184.346 73.8225 183.523C68.7611 180.832 63.4465 178.964 57.6807 178.593V178.589Z" fill="#AAC2D1"/>
<path d="M189.058 192.229C183.334 192.478 177.961 194.388 172.465 195.73C164.012 197.792 156.159 201.584 147.845 204.056C133.728 208.253 119.543 209.155 105.147 205.562C94.2652 202.845 83.8807 198.653 73.2432 195.207C69 193.832 64.7737 192.25 60.193 192.326C57.9871 190.516 56.1354 188.369 53.959 185.906C59.5182 185.818 64.3687 186.952 69.0633 188.766C78.5873 192.444 87.9889 196.472 97.6142 199.855C110.584 204.414 123.9 205.536 137.566 203.178C149.026 201.2 159.546 196.746 170.002 192.014C177.214 188.749 184.773 186.843 192.626 186.045C193.293 185.978 193.972 186.037 195.005 186.037C193.019 188.378 191.201 190.449 189.05 192.22L189.058 192.229Z" fill="#FAF8F7"/>
<path d="M79.8428 43.4287C91.1003 48.4986 101.346 55.0954 110.338 63.5902C112.89 65.9986 115.168 68.6559 117.348 71.3933C117.939 72.1357 118.496 72.6502 119.554 72.7093C122.346 72.8569 125.13 73.1522 127.914 73.4179C128.846 73.5065 129.572 73.4854 130.301 72.6249C140.707 60.3762 153.947 52.0037 168.195 45.0146C168.882 44.6772 169.57 44.3271 170.257 43.9854C172.16 44.7278 173.767 45.9636 175.623 47.1193C171.725 49.0891 167.908 50.8943 164.209 52.9105C152.403 59.3554 141.791 67.4074 132.246 76.8766C131.79 77.3279 131.449 77.8214 130.685 77.6822C126.315 76.885 121.878 77.3827 117.483 77.0326C116.699 76.9694 116.188 76.6868 115.737 76.0921C105.382 62.5231 92.0029 52.9232 76.4558 46.1619C76.2913 46.0902 76.1437 45.9636 75.8779 45.7907C77.0969 44.7067 78.4466 44.0234 79.8385 43.416L79.8428 43.4287Z" fill="#FAF8F7"/>
<path d="M201.131 72.1294C200.777 77.1487 200.537 82.1764 200.047 87.1788C199.259 95.2646 197.605 103.19 194.952 110.879C194.556 112.026 194.623 112.925 195.188 114.03C199.912 123.326 206.421 131.378 212.806 139.514C213.84 140.83 214.861 142.159 215.886 143.484C215.143 147.402 214.219 151.27 212.747 154.99C210.229 155.998 207.703 156.993 204.965 157.213C203.991 157.289 203.86 157.656 204.109 158.541C205.13 162.156 205.695 165.868 206.353 169.559C205.678 171.334 204.556 172.84 203.375 174.865C202.068 167.268 200.823 160.127 198.352 153.058C202.068 153.003 205.535 152.32 208.964 151.367C210.529 150.932 212.026 150.599 212.672 148.739C213.372 146.71 212.157 145.555 211.01 144.352C203.417 136.397 197.352 127.35 191.945 117.83C190.46 115.215 190.11 112.739 191.156 109.69C194.492 99.9844 195.876 89.8488 197.032 79.6879C197.47 75.8116 197.656 71.9101 197.711 67.6289C199.246 69.1516 200.241 70.6025 201.131 72.1294Z" fill="#FAF8F7"/>
<path d="M33.4873 144.618C38.8314 137.507 44.2682 130.467 49.6334 123.373C53.2397 118.607 54.6063 114.262 52.51 108.112C48.7814 97.167 47.225 85.6605 46.7315 74.0655C47.9842 71.6276 49.7768 69.5819 51.9195 67.4688C51.9195 70.5014 51.8225 73.5341 51.9364 76.5583C52.3497 87.3224 54.1929 97.825 57.6811 108.036C58.3518 110.002 58.5289 112.136 58.9043 114.199C59.1405 115.494 58.7778 116.611 58.0692 117.759C53.2017 125.65 47.5582 132.956 41.5266 139.979C39.5695 142.26 37.7179 144.631 35.7861 146.934C35.4022 147.389 35.3685 147.676 35.7101 148.191C36.617 149.566 37.6461 150.717 39.2616 151.316C42.7371 152.599 46.1747 154.007 50.2028 153.809C47.8071 160.71 46.858 167.669 45.9259 175.088C44.5888 172.891 43.3656 171.195 42.6064 169.234C43.5385 165.467 44.2387 161.646 45.4914 157.964C45.7192 157.289 45.774 156.757 44.922 156.551C41.6531 155.754 38.7892 154.033 35.8029 152.594L35.8325 152.628C35.8746 152.367 35.7354 152.248 35.5035 152.206C34.546 149.751 34.0019 147.187 33.4873 144.614V144.618Z" fill="#FAF8F7"/>
<path d="M189.483 97.0542C189.554 89.6307 190.014 82.2199 189.93 74.7922C189.85 67.7103 189.145 60.7044 188.217 53.6985C188.049 52.4247 187.555 52.4078 186.543 52.8085C172.94 58.1948 159.89 64.5807 148.316 73.6829C144.954 76.3275 142.074 79.4909 138.923 82.3633C138.13 82.1735 137.333 81.9837 136.333 81.7433C138.05 79.4234 139.851 77.479 141.783 75.6695C155.166 63.155 170.329 53.6057 187.876 48.0296C190.689 47.1355 190.676 47.1144 191.132 50.0585C193.11 62.7754 192.583 75.4671 190.837 88.1545C190.427 91.1281 190.204 94.1312 189.483 97.0585V97.0542Z" fill="#007FF9"/>
<path d="M110.405 82.4099C106.322 77.7534 101.509 73.932 96.5196 70.3214C87.0968 63.5011 76.7166 58.4734 65.9779 54.1289C65.0035 53.7367 64.0545 53.2896 63.1097 52.8298C61.9287 52.2562 61.2791 52.5008 61.0978 53.8927C59.7396 64.5218 58.9635 75.1889 59.4907 85.8939C59.6552 89.2471 59.7902 92.5961 59.7944 95.9536C58.7695 91.5838 58.411 87.1213 57.9259 82.6756C56.7322 71.7049 56.534 60.7426 58.3772 49.814C58.8285 47.1483 58.8834 47.161 61.3972 47.9792C77.5433 53.2347 91.9306 61.5102 104.529 72.9154C106.765 74.94 109.009 76.9435 111.025 79.1874C111.675 79.9087 112.269 80.6806 113.109 81.6971C112.058 81.9755 111.232 82.1948 110.405 82.4141V82.4099Z" fill="#007FF9"/>
<path d="M132.562 85.2368C131.17 92.2259 129.398 99.1052 126.328 105.58C125.902 106.482 125.762 107.954 124.577 107.904C123.637 107.862 123.358 106.508 122.991 105.63C120.241 99.0968 118.583 92.2554 117.44 85.279C117.499 84.6632 117.559 84.0516 117.613 83.4358C122.62 82.782 127.622 82.55 132.621 83.537C132.6 84.1022 132.578 84.6716 132.562 85.2368Z" fill="#96DAFC"/>
<path d="M194.06 139.636C191.162 136.924 187.48 135.516 184.097 133.613C182.444 132.685 180.525 132.192 178.682 130.391C182.516 130.37 185.468 131.854 188.581 132.521C191.044 133.474 193.508 134.427 195.971 135.385C199.003 139.08 201.952 142.846 205.676 145.913C206.836 146.866 205.815 146.879 205.136 146.992C201.614 144.639 198.088 142.285 194.566 139.928V139.961C194.503 139.687 194.33 139.586 194.06 139.641V139.636Z" fill="#91D6FD"/>
<path d="M63.1942 125.691C66.1678 124.51 69.1414 123.321 72.1193 122.152C72.6381 121.95 73.1737 121.785 73.7136 121.655C74.1776 121.545 74.7892 121.347 75.0296 121.874C75.308 122.477 74.6205 122.667 74.2493 122.903C71.9632 124.375 69.6434 125.792 67.3615 127.277C64.7295 128.985 62.0596 130.639 59.8072 132.862C59.668 132.997 59.5331 133.132 59.3939 133.262H59.3981C59.2505 133.397 59.1028 133.536 58.9594 133.671L58.9637 133.667C57.3313 135.08 55.7285 136.531 54.0582 137.898C53.046 138.729 52.1265 138.982 52.2319 137.092C53.86 134.574 55.4881 132.052 57.1204 129.534C59.145 128.256 61.1654 126.973 63.19 125.695L63.1942 125.691Z" fill="#91D6FD"/>
<path d="M35.8027 152.592C38.7932 154.03 41.6572 155.751 44.9218 156.548C45.7696 156.755 45.719 157.286 45.4912 157.961C44.2385 161.643 43.5384 165.465 42.6062 169.231C39.6495 163.967 37.0934 158.539 35.8027 152.592Z" fill="#FD8201"/>
<path d="M56.8917 138.789C61.7718 135.204 66.5929 131.505 72.6076 129.91C65.7662 135.339 58.8531 140.628 53.0619 147.195C51.6995 147.663 50.316 147.638 48.9199 147.389C50.7125 143.994 53.7789 141.775 56.4657 139.202C56.6134 139.046 56.7568 138.894 56.9044 138.738L56.896 138.789H56.8917Z" fill="#91D6FD"/>
<path d="M56.8636 157.251C55.9103 164.497 55.4126 171.811 53.5567 178.914C52.7553 179.125 51.9539 179.336 50.8193 179.631C52.1184 171.858 52.8481 164.236 54.6871 156.787C55.4 156.871 56.1128 156.956 56.8214 157.04C56.8383 157.108 56.8509 157.179 56.8636 157.247V157.251Z" fill="#FAF8F7"/>
<path d="M56.4678 139.2C53.781 141.773 50.7145 143.991 48.9219 147.387C47.0323 147.556 45.2018 147.273 43.1055 146.644C46.5641 143.641 49.4576 140.419 52.2414 137.091C52.1318 138.981 53.0513 138.723 54.0678 137.897C55.7381 136.53 57.3409 135.079 58.9732 133.666C59.0871 134.915 58.0959 135.678 57.6361 136.673C57.3198 137.361 56.7293 137.935 56.8938 138.787L56.9022 138.736C56.6154 138.757 56.202 138.66 56.4635 139.2H56.4678Z" fill="#007FF9"/>
<path d="M206.354 169.558C205.696 165.867 205.131 162.155 204.111 158.541C203.862 157.655 203.992 157.288 204.967 157.212C207.704 156.993 210.231 156.002 212.749 154.989C211.192 160.097 209.075 164.96 206.354 169.558Z" fill="#FD8201"/>
<path d="M63.1955 125.69C61.1752 126.968 59.1506 128.251 57.126 129.529C60.0363 124.151 62.6725 118.646 64.9291 112.961C65.0809 112.581 65.1568 112.172 65.2707 111.775C67.211 111.577 66.9073 112.724 66.477 113.859C65.0177 117.702 64.3428 121.759 63.1913 125.686L63.1955 125.69Z" fill="#007FF9"/>
<path d="M187.375 128.634C184.376 126.741 180.846 125.973 177.788 124.05C180.488 123.219 183.082 124.125 185.697 124.404C187.177 124.817 188.658 125.235 190.134 125.648C191.302 127.66 192.466 129.672 193.635 131.68C191.707 130.769 189.775 129.858 187.848 128.951C187.848 128.951 187.848 128.997 187.848 128.993C187.687 128.875 187.531 128.753 187.371 128.634H187.375Z" fill="#91D6FD"/>
<path d="M190.132 125.648C188.651 125.235 187.171 124.817 185.694 124.404C185.032 120.907 184.277 117.436 183.046 114.083C182.708 113.163 182.063 111.944 183.927 111.788C184.096 111.792 184.264 111.796 184.429 111.801L184.421 111.763C184.024 112.969 184.851 113.876 185.26 114.838C186.821 118.469 188.499 122.05 190.132 125.652V125.648Z" fill="#007FF9"/>
<path d="M194.561 139.922C198.082 142.275 201.609 144.629 205.131 146.987C203.819 147.21 202.52 147.548 201.166 147.383C198.677 145.148 195.805 143.258 194.561 139.922Z" fill="#007FF9"/>
<path d="M187.845 128.95C189.773 129.861 191.705 130.772 193.632 131.679C194.408 132.911 195.184 134.142 195.961 135.374C193.497 134.421 191.034 133.468 188.571 132.514C189.402 131.106 187.575 130.241 187.841 128.95H187.845Z" fill="#007FF9"/>
<path d="M56.8218 157.041C56.1089 156.957 55.3961 156.873 54.6875 156.788C55.143 153.136 56.2987 149.681 57.6274 146.277C58.5806 147.522 57.7876 148.812 57.7244 150.082C57.6021 152.423 57.3195 154.747 56.826 157.041H56.8218Z" fill="#007FF9"/>
<path d="M194.795 156.768C194.031 156.87 193.268 156.967 192.504 157.068C192.331 153.537 191.226 150.083 191.64 146.502C193.407 149.703 194.111 153.229 194.791 156.768H194.795Z" fill="#007FF9"/>
<path d="M117.618 83.4375C117.559 84.0533 117.5 84.6649 117.445 85.2807C115.218 85.2596 112.995 85.2765 110.772 85.2006C110.021 85.1753 109.258 84.9813 108.65 84.454C111.62 83.931 114.602 83.5092 117.622 83.4375H117.618Z" fill="#007FF9"/>
<path d="M132.562 85.2365C132.583 84.6713 132.604 84.1018 132.621 83.5366C135.455 83.4438 138.21 84.1525 141.006 84.3971C138.311 85.8734 135.384 85.0509 132.558 85.2365H132.562Z" fill="#007FF9"/>
<path d="M35.5039 152.209C35.7359 152.251 35.8793 152.369 35.8329 152.631C35.4954 152.669 35.4996 152.437 35.5039 152.209Z" fill="#FD8201"/>
<path d="M108.511 148.907C109.325 152.732 110.08 156.575 110.983 160.379C111.32 161.801 111.198 162.425 109.642 163.117C104.416 165.449 99.0633 167.006 93.3312 167.351C88.1895 167.659 83.7186 166.035 79.6272 163.087C72.6002 157.072 70.3268 148.89 69.2048 140.192C69.0741 139.163 69.2132 138.079 70.428 137.856C72.6466 137.447 74.4308 136.198 76.236 135.03C90.425 125.852 104.061 135.089 107.866 147.148C108.056 147.742 108.296 148.32 108.511 148.907ZM86.3421 137.877C87.2616 136.713 88.1811 135.544 89.2272 134.216C83.2588 134.119 78.6445 136.628 74.3633 140.112C72.7563 141.42 72.3218 142.795 73.2245 144.625C73.1528 146.342 73.7644 147.941 74.2199 149.539C76.4258 157.228 82.3014 164.838 92.4791 165.086C97.5575 165.209 102.53 164.715 106.963 161.864C107.853 161.37 108.883 161.088 108.667 159.637C107.896 154.331 106.474 149.248 103.851 144.545C103.589 144.077 103.475 143.288 102.547 143.478C103.344 146.528 103.129 149.577 102.792 152.627C102.003 155.411 100.94 158.055 98.865 160.177C95.3431 163.783 90.5136 163.631 87.3839 159.666C85.3551 157.102 84.1783 154.103 83.7608 150.847C83.166 146.241 84.3766 141.981 86.3421 137.881V137.877ZM93.5336 142.065C93.6095 140.032 93.095 138.712 91.3192 138.404C89.514 138.096 88.3751 139.176 87.7678 140.707C87.1098 142.365 87.4725 144.031 88.3498 145.532C89.4001 147.329 90.8299 147.384 92.1628 145.747C93.1245 144.566 93.5716 143.196 93.5336 142.061V142.065ZM93.0486 149.286C93.3396 149.957 93.3354 151.399 94.5586 151.18C95.883 150.94 96.2963 149.489 96.4566 148.215C96.5958 147.118 95.883 146.713 94.9086 146.734C93.386 146.768 93.1793 147.877 93.0486 149.282V149.286Z" fill="#271936"/>
<path d="M169.782 163.087C162.346 168.777 154.252 167.951 145.972 165.534C143.479 164.804 141.21 163.56 138.785 162.687C137.701 162.294 138.215 161.586 138.346 160.97C139.202 156.938 140.08 152.914 140.948 148.886C142.475 143.466 145.301 138.927 149.802 135.435C155.973 130.652 164.278 130.006 171.14 133.807C173.755 135.258 176.084 137.249 179.146 137.898C180.487 138.185 180.297 139.526 180.166 140.555C179.053 149.139 176.725 157.174 169.79 163.083L169.782 163.087ZM146.478 151.779V143.487C146.141 143.774 145.959 143.871 145.867 144.018C143.382 148.156 141.994 152.707 141.1 157.393C140.784 159.051 139.831 161.248 142.652 161.982C146.039 164.243 149.92 164.796 153.834 165.082C162.249 165.703 168.69 162.438 172.907 155.052C174.983 151.417 175.986 147.422 176.514 143.297C177.066 142.213 176.56 141.479 175.759 140.766C173.662 138.902 171.427 137.24 168.871 136.059C166.218 134.836 163.464 134.077 160.309 134.288C161.401 135.743 162.346 137 163.291 138.252C163.426 138.573 163.556 138.894 163.696 139.21C166.678 146.001 166.783 152.648 162.523 158.988C159.372 163.674 154.045 164.015 150.257 159.84C148.174 157.545 147.128 154.749 146.487 151.767L146.478 151.779ZM155.825 141.513C155.821 144.149 157.592 147.034 159.182 146.983C160.562 146.937 162.051 144.495 162.029 142.31C162.013 140.281 160.444 138.438 158.685 138.375C156.926 138.316 155.829 139.518 155.821 141.513H155.825ZM156.285 149.114C156.238 147.81 155.994 146.739 154.467 146.739C153.492 146.739 152.767 147.194 152.948 148.253C153.163 149.485 153.518 150.995 154.889 151.185C156.07 151.345 156.192 150.008 156.285 149.118V149.114Z" fill="#271936"/>
<path d="M179.081 107.88C169.085 98.6727 158.654 90.5912 146.515 84.7495C148.603 84.8971 149.568 83.4799 150.661 82.2778C157.123 75.1706 163.728 68.2153 171.628 62.6477C175.416 59.9778 179.364 57.5989 183.784 56.0931C184.653 55.7978 185.509 55.5532 186.61 55.7683C186.184 57.0294 185.222 57.6579 184.185 58.1261C182.94 58.6829 182.552 59.4336 182.582 60.8804C182.751 69.8392 183.181 78.8149 182.35 87.761C181.852 93.1346 180.971 98.4618 178.41 103.325C178.01 104.084 178.145 104.603 178.579 105.227C178.967 105.788 179.456 106.349 179.081 107.88ZM151.083 85.5382C160.742 89.7392 168.798 95.9522 176.576 102.562C181.532 88.6763 180.528 74.3355 181.203 59.8428C169.076 66.1991 160.518 76.1829 151.083 85.5382Z" fill="#251A3C"/>
<path d="M70.3764 107.416C72.2154 104.464 70.2541 102.186 69.4527 99.7568C67.2383 93.0292 66.6647 86.057 66.5845 79.0385C66.517 73.0153 66.4327 66.9879 66.9009 60.9732C67.0105 59.5729 66.6436 58.7124 65.3402 58.181C64.2858 57.7507 63.4591 56.9873 62.6914 55.9455C63.7754 55.3887 64.716 55.7768 65.665 56.1142C73.7507 59.0077 80.3644 64.1619 86.6153 69.835C91.0778 73.8884 95.1903 78.2961 99.2099 82.7882C100.159 83.8469 101.1 84.8971 102.922 84.644C90.8458 90.5744 80.3517 98.6179 70.3722 107.412L70.3764 107.416ZM72.8987 102.65C76.7286 99.0903 80.7524 96.0703 84.886 93.1811C89.0785 90.2496 93.4398 87.6134 98.341 85.5678C88.9351 76.1914 80.3264 66.1739 68.1662 59.8217C68.9718 74.3102 67.8204 88.6426 72.8987 102.65Z" fill="#251A3C"/>
<path d="M161.27 114.717C160.929 116.299 160.283 117.86 159.436 119.31C154.712 127.375 148.343 133.483 139.198 136.313C138.14 136.642 137.275 136.625 136.495 135.874C135.592 135.001 136.351 134.195 136.693 133.394C139.89 125.903 144.656 119.968 152.523 116.906C154.783 116.025 156.8 114.527 158.972 113.401C160.562 112.583 161.422 113.098 161.27 114.717ZM158.461 117.67C158.951 116.873 159.571 116.126 159.431 114.865C155.808 117.345 151.932 118.935 148.296 120.989C144.854 122.934 142.18 125.591 140.59 129.248C139.852 130.948 138.401 132.365 138.317 134.516C138.836 134.335 139.169 134.242 139.481 134.098C139.73 133.985 139.953 133.812 140.185 133.668C148.351 130.707 154.497 125.431 158.466 117.674L158.461 117.67Z" fill="#251A3C"/>
<path d="M111.166 136.566C108.445 135.857 105.94 134.988 103.683 133.516C96.8463 129.054 91.2112 123.558 88.4358 115.632C88.1701 114.877 87.6006 114.013 88.4611 113.313C89.2583 112.663 90.1061 113.102 90.7978 113.561C93.9022 115.624 97.2723 117.197 100.604 118.817C107.239 122.044 110.204 128.172 113.136 134.335C113.718 135.562 112.516 136.722 111.162 136.566H111.166ZM90.2157 114.882C90.1103 114.962 90.0048 115.038 89.8994 115.118L89.9922 115.236C90.0597 115.101 90.1314 114.962 90.1989 114.827C89.5367 116.012 90.5026 116.75 90.9665 117.628C94.9145 125.545 101.22 130.766 109.454 133.786C109.947 134.115 110.432 134.474 111.242 134.314C108.876 128.168 105.687 122.963 99.5162 120.061C96.3064 118.551 93.008 117.134 90.2073 114.886L90.2157 114.882Z" fill="#251A3C"/>
<path d="M131.116 113.541C133.052 105.569 134.199 97.6602 135.212 89.2539C136.903 92.2739 137.903 95.0915 139.067 97.8247C139.253 98.2633 139.143 98.6514 138.97 99.0352C136.747 103.86 134.545 108.698 131.8 113.258C131.745 113.347 131.559 113.359 131.116 113.536V113.541Z" fill="#91D6FD"/>
<path d="M109.679 90.6156C111.864 98.6042 113.8 106.576 116.2 114.442C112.936 110.726 110.266 106.639 108.359 102.147C107.406 99.9076 108.553 97.457 108.747 95.1076C108.874 93.5934 109.355 92.1087 109.679 90.6113V90.6156Z" fill="#91D6FD"/>
<path d="M194.061 139.637C194.33 139.582 194.503 139.679 194.567 139.957C194.398 139.852 194.229 139.746 194.061 139.637Z" fill="#007FF9"/>
<path d="M184.435 111.798C184.266 111.798 184.097 111.789 183.933 111.785C184.047 111.684 184.156 111.583 184.27 111.481C184.325 111.587 184.38 111.692 184.435 111.798Z" fill="#251634"/>
<path d="M59.4033 133.263C59.5425 133.128 59.6775 132.993 59.8167 132.862C59.6775 132.997 59.5425 133.132 59.4033 133.263Z" fill="#007FF9"/>
<path d="M58.9688 133.671C59.1164 133.536 59.264 133.397 59.4074 133.262C59.2598 133.397 59.1122 133.536 58.9688 133.671Z" fill="#007FF9"/>
<path d="M124.023 162.117C125.866 161.919 127.65 162.1 129.43 162.526C130.603 162.805 131.691 163.235 132.708 163.855C136.023 165.863 136.078 167.858 132.838 169.98C132.029 170.511 131.16 171.055 130.236 171.295C128.342 171.789 126.798 172.628 125.778 174.379C125.056 175.619 124.179 175.34 123.559 174.269C122.623 172.649 121.222 171.869 119.451 171.397C117.979 171.004 116.612 170.228 115.482 169.136C113.706 167.415 113.714 166.162 115.612 164.619C118.067 162.619 120.995 162.164 124.015 162.122L124.023 162.117Z" fill="#271936"/>
<path d="M105.752 181.147C105.626 180.675 105.423 180.207 105.394 179.73C105.343 178.929 104.968 177.777 105.887 177.486C106.79 177.199 106.904 178.423 107.283 179.034C110.561 184.353 118.258 185.34 123.189 180.924C124.429 179.815 125.028 179.861 126.239 180.941C131.452 185.585 138.884 184.382 142.414 178.452C142.684 177.997 142.878 177.199 143.553 177.482C144.435 177.853 143.853 178.857 144.123 179.532C143.625 181.481 142.381 182.818 140.689 183.817C136.868 186.07 132.705 186.66 128.934 184.45C125.863 182.649 123.742 182.514 120.57 184.391C116.014 187.09 111.286 185.703 107.035 182.835L106.959 182.915L107.039 182.843C106.938 182.278 106.533 181.974 106.073 181.717L106.06 181.687C106.111 181.422 106.014 181.236 105.752 181.147Z" fill="#251A3C"/>
<path d="M107.041 182.837C111.293 185.705 116.021 187.093 120.577 184.393C123.753 182.512 125.87 182.651 128.941 184.452C132.711 186.662 136.874 186.072 140.696 183.82C142.391 182.82 143.636 181.483 144.129 179.534C145.416 180.698 144.623 181.9 144.049 182.951C142.526 185.73 139.861 187.067 136.971 187.776C132.77 188.801 128.633 188.531 124.942 185.958C124.141 185.397 123.698 185.819 123.09 186.16C117.852 189.092 112.596 188.649 108.079 184.929C107.425 184.389 106.733 183.866 107.041 182.845V182.837Z" fill="#AAC2D1"/>
<path d="M106.079 181.713C106.538 181.97 106.943 182.274 107.044 182.839C106.184 182.928 106.07 182.371 106.079 181.713Z" fill="#AAC2D1"/>
<path d="M105.751 181.148C106.012 181.237 106.109 181.423 106.059 181.688C105.958 181.507 105.852 181.33 105.751 181.148Z" fill="#AAC2D1"/>
<path d="M56.4679 139.201C56.2064 138.661 56.6198 138.763 56.9066 138.737C56.759 138.893 56.6155 139.045 56.4679 139.201Z" fill="#0147FD"/>
<path d="M106.963 161.865C102.53 164.716 97.5618 165.209 92.4792 165.087C82.3015 164.838 76.4259 157.229 74.22 149.54C73.7602 147.941 73.1529 146.347 73.2246 144.626C73.9247 144.613 74.3423 144.107 74.8358 143.723C77.2822 141.838 79.8551 140.142 82.6769 138.881C83.8199 138.367 84.9166 137.451 86.3422 137.877C84.3767 141.981 83.1661 146.237 83.7609 150.843C84.1826 154.099 85.3552 157.098 87.384 159.663C90.5179 163.623 95.3432 163.78 98.8651 160.173C100.936 158.052 101.999 155.411 102.792 152.623C103.201 152.809 103.446 153.134 103.568 153.555C104.391 156.449 105.614 159.182 106.959 161.86L106.963 161.865Z" fill="#E6F1F8"/>
<path d="M86.3429 137.877C84.9173 137.455 83.8206 138.37 82.6776 138.881C79.86 140.142 77.2829 141.837 74.8365 143.723C74.343 144.102 73.9212 144.613 73.2253 144.625C72.3226 142.795 72.7571 141.42 74.3641 140.112C78.6453 136.632 83.2596 134.119 89.228 134.216C88.1819 135.544 87.2624 136.708 86.3429 137.877Z" fill="#AAC2D1"/>
<path d="M106.963 161.865C105.617 159.182 104.394 156.453 103.572 153.56C103.449 153.138 103.205 152.813 102.795 152.628C103.133 149.578 103.348 146.533 102.551 143.479C103.479 143.289 103.593 144.078 103.854 144.546C106.478 149.249 107.899 154.336 108.671 159.638C108.882 161.089 107.853 161.371 106.967 161.865H106.963Z" fill="#AAC2D1"/>
<path d="M93.533 142.065C93.571 143.2 93.1239 144.57 92.1622 145.751C90.8294 147.388 89.3995 147.329 88.3493 145.536C87.4719 144.035 87.1092 142.369 87.7672 140.711C88.3746 139.18 89.5134 138.1 91.3187 138.408C93.0944 138.712 93.609 140.032 93.533 142.069V142.065Z" fill="#E6F1F8"/>
<path d="M93.0488 149.285C93.1796 147.88 93.3905 146.771 94.9089 146.737C95.8832 146.716 96.5961 147.121 96.4569 148.218C96.2924 149.491 95.8833 150.942 94.5588 151.183C93.3356 151.402 93.3399 149.96 93.0488 149.289V149.285Z" fill="#E6F1F8"/>
<path d="M176.513 143.302C175.985 147.427 174.986 151.421 172.906 155.057C168.693 162.438 162.248 165.707 153.833 165.087C149.919 164.796 146.038 164.248 142.651 161.987C143.503 159.427 144.33 156.854 145.224 154.306C145.532 153.421 145.49 152.337 146.477 151.78C147.118 154.758 148.164 157.554 150.248 159.853C154.04 164.029 159.367 163.687 162.513 159.001C166.773 152.661 166.668 146.014 163.686 139.223C163.547 138.907 163.416 138.582 163.281 138.266C166.255 138.477 168.612 140.147 171.038 141.615C172.738 142.64 174.458 143.479 176.508 143.302H176.513Z" fill="#E6F1F8"/>
<path d="M176.512 143.302C174.458 143.479 172.741 142.64 171.041 141.615C168.616 140.147 166.258 138.477 163.285 138.266C162.34 137.009 161.399 135.756 160.303 134.301C163.458 134.086 166.212 134.845 168.865 136.072C171.421 137.253 173.657 138.911 175.753 140.78C176.554 141.492 177.06 142.222 176.508 143.31L176.512 143.302Z" fill="#AAC2D1"/>
<path d="M146.476 151.779C145.489 152.336 145.531 153.42 145.224 154.306C144.334 156.854 143.507 159.422 142.651 161.987C139.829 161.249 140.782 159.055 141.098 157.398C141.997 152.712 143.38 148.16 145.865 144.023C145.953 143.871 146.139 143.778 146.476 143.491V151.784V151.779Z" fill="#AAC2D1"/>
<path d="M155.823 141.512C155.827 139.517 156.924 138.31 158.687 138.373C160.446 138.433 162.011 140.276 162.032 142.309C162.053 144.494 160.564 146.936 159.185 146.982C157.595 147.037 155.823 144.148 155.827 141.512H155.823Z" fill="#E6F1F8"/>
<path d="M156.282 149.112C156.19 150.002 156.067 151.339 154.886 151.179C153.511 150.993 153.157 149.483 152.946 148.248C152.76 147.193 153.486 146.733 154.465 146.733C155.996 146.733 156.236 147.805 156.282 149.108V149.112Z" fill="#E6F1F8"/>
<path d="M151.082 85.5362C160.517 76.1809 169.08 66.1972 181.202 59.8408C180.527 74.3335 181.531 88.6744 176.575 102.56C168.797 95.9502 160.737 89.7373 151.082 85.5362Z" fill="#96DAFC"/>
<path d="M72.9004 102.649C67.8263 88.6412 68.9736 74.3088 68.168 59.8203C80.3239 66.1767 88.9369 76.1942 98.3428 85.5663C93.4416 87.6078 89.0845 90.244 84.8877 93.1797C80.7542 96.0689 76.7261 99.0889 72.9004 102.649Z" fill="#96DAFC"/>
<path d="M158.461 117.667C154.492 125.424 148.347 130.7 140.181 133.661C144.272 126.044 150.713 121.109 158.461 117.667Z" fill="#96DAFC"/>
<path d="M158.461 117.669C150.717 121.111 144.272 126.042 140.181 133.664C139.949 133.811 139.725 133.984 139.477 134.094C139.165 134.237 138.831 134.33 138.312 134.512C138.401 132.365 139.848 130.947 140.586 129.243C142.172 125.591 144.846 122.929 148.292 120.985C151.928 118.931 155.804 117.34 159.427 114.86C159.571 116.122 158.946 116.872 158.457 117.665L158.461 117.669Z" fill="#D3EBF6"/>
<path d="M109.458 133.781C101.224 130.761 94.9187 125.539 90.9707 117.622C98.8329 121.064 105.109 126.319 109.458 133.781Z" fill="#96DAFC"/>
<path d="M109.455 133.782C105.11 126.32 98.8297 121.065 90.9675 117.623C90.4994 116.746 89.5335 116.007 90.1999 114.822L90.2125 114.856C93.009 117.129 96.3116 118.547 99.5214 120.057C105.688 122.959 108.881 128.163 111.247 134.309C110.433 134.469 109.952 134.111 109.459 133.782H109.455Z" fill="#D3EBF6"/>
<path d="M90.2008 114.822L89.9942 115.231L89.9014 115.113C90.0068 115.033 90.1123 114.957 90.2177 114.869C90.2177 114.856 90.2051 114.822 90.2051 114.822H90.2008Z" fill="#D3EBF6"/>
</g>
<defs>
<clipPath id="clip0_764_6507">
<rect width="250" height="250" rx="125" fill="white"/>
</clipPath>
</defs>
</svg>
