<svg width="250" height="250" viewBox="0 0 250 250" fill="none" xmlns="http://www.w3.org/2000/svg">
<rect width="250" height="250" rx="125" fill="white"/>
<g clip-path="url(#clip0_242_94628)">
<path d="M205.677 11.3613L199.945 69.3555H50.0469L44.3555 11.5068H75.8L80.1892 33.4172H107.983L112.366 11.5068H138.811L143.195 33.4172H174.802L179.197 11.5068L205.677 11.3613ZM51.7564 80.5115H198.445L198.253 81.0636L197.515 91.6673L189.15 182.495L125.132 238.664L125.016 238.019L124.9 238.664L60.894 182.495L55.5813 124.861L55.5756 124.884L55.4533 123.448L52.5236 91.6714L51.7564 80.5172V80.5115ZM140.265 200.959L172.494 171.59L178.412 103.328H140.265L140.265 200.959ZM71.6263 103.328L77.5325 171.589L110.959 202.04V103.328H71.6263Z" fill="black"/>
</g>
<defs>
<clipPath id="clip0_242_94628">
<rect width="227.302" height="227.302" fill="white" transform="translate(11.3633 11.3613)"/>
</clipPath>
</defs>
</svg>
