<svg width="250" height="250" viewBox="0 0 250 250" fill="none" xmlns="http://www.w3.org/2000/svg">
<g clip-path="url(#clip0_242_94936)">
<path d="M232.551 62.0439C225.234 65.0983 217.917 68.0856 210.432 70.603C199.288 74.3623 198.382 78.8935 203.383 89.5672C227.986 142.298 197.811 201.037 140.549 213.556C94.263 223.659 48.3795 192.981 37.7058 144.748C27.4349 98.3948 56.9722 50.3969 102.151 40.6966C128.499 35.0241 155.217 38.1121 181.801 38.7498C192.172 38.9848 202.544 38.8505 214.997 38.8169C194.22 17.1675 165.689 2.86882 133.433 0.619961C64.5579 -4.14627 4.84559 47.7788 0.0457851 116.654C-4.75402 185.53 47.2047 245.242 116.08 250.008C184.956 254.774 244.668 202.849 249.434 133.974C251.247 107.827 244.87 83.022 232.518 62.0103L232.551 62.0439Z" fill="#8C88C1"/>
<path d="M174.651 92.958C181.23 119.072 155.519 142.466 136.185 148.273C128.365 150.623 122.021 148.273 117.825 141.292C112.421 132.33 120.678 129.98 125.679 126.489C141.69 115.312 157.935 104.404 174.651 92.958Z" fill="#8C88C1"/>
<path d="M59.5597 99.771C73.9591 107.088 82.4511 117.191 91.8828 126.187C95.6421 129.745 102.019 133.269 96.4813 139.546C91.7486 144.916 85.3712 146.863 78.5911 142.801C63.084 133.504 58.687 119.138 59.5932 99.8046L59.5597 99.771Z" fill="#8C88C1"/>
</g>
<defs>
<clipPath id="clip0_242_94936">
<rect width="250" height="250" rx="125" fill="white"/>
</clipPath>
</defs>
</svg>
