<svg width="250" height="250" viewBox="0 0 250 250" fill="none" xmlns="http://www.w3.org/2000/svg">
<g clip-path="url(#clip0_242_94929)">
<path fill-rule="evenodd" clip-rule="evenodd" d="M197.208 175.089V56.2706C197.208 56.2706 184.551 66.1803 161.69 59.3122C144.716 52.6403 140.497 49.01 131.274 44.791C105.274 32.0359 82.3146 30.2698 52.6836 45.0853V181.957C52.6836 181.957 52.6836 184.312 53.1742 188.041C56.412 220.419 87.6129 245.733 125.387 245.537C163.555 245.242 194.559 219.045 196.816 186.176C197.208 183.331 197.306 179.897 197.208 175.089Z" fill="#5A0E27"/>
<path d="M92.3227 34.5867C105.372 34.5867 117.931 38.217 131.275 44.7908C140.596 49.0097 144.717 52.64 161.691 59.3119C167.578 61.078 172.778 61.7648 177.193 61.7648C190.144 61.7648 197.11 56.2703 197.11 56.2703V175.089C197.209 179.897 197.11 183.429 196.718 186.176C194.461 219.045 163.457 245.242 125.29 245.536H124.701C87.1225 245.536 56.3141 220.321 53.0763 188.04C52.5857 184.312 52.5857 181.957 52.5857 181.957V45.0851C67.1069 37.9226 79.96 34.5867 92.3227 34.5867ZM92.3227 30.3677C79.077 30.3677 65.537 33.8999 50.8196 41.3567L48.4648 42.5341V181.957C48.4648 182.35 48.4648 184.803 48.9554 188.531C50.6234 205.309 59.3557 220.811 73.4844 232.193C87.515 243.476 105.765 249.755 124.799 249.755H125.388C144.717 249.657 163.162 243.084 177.291 231.31C191.42 219.536 199.858 203.641 201.035 186.569C201.428 183.527 201.526 179.995 201.428 174.991V47.2437C200.25 48.4211 199.171 49.5003 197.895 50.4815C196.914 51.2664 196.129 51.8551 194.952 52.5419C194.658 52.7382 194.363 52.8363 194.167 53.0325C190.046 55.1911 184.257 57.4477 177.291 57.4477C172.778 57.4477 168.068 56.6628 163.162 55.2892C152.664 51.1683 147.169 48.2248 142.264 45.5757C139.32 44.0058 136.573 42.5341 133.139 40.9642C118.323 33.7036 105.372 30.3677 92.3227 30.3677Z" fill="white"/>
<path fill-rule="evenodd" clip-rule="evenodd" d="M130.489 123.872C111.063 127.993 91.0469 146.145 91.0469 166.553C91.0469 189.414 112.534 204.524 130.391 203.248C143.539 202.267 156.196 197.656 157.177 181.761C157.962 169.398 150.015 164.296 139.32 160.372C129.999 156.938 123.229 148.205 123.131 138.099C123.131 132.703 125.584 127.11 130.489 123.872ZM197.208 113.766C186.71 121.125 173.366 123.186 156.981 123.186C154.43 123.186 151.977 122.989 149.818 122.793C154.43 125.442 156.981 128.582 158.551 134.273C155.313 132.801 152.075 132.016 149.916 132.016C145.207 132.016 140.792 135.156 140.988 140.062C141.086 143.201 143.441 145.949 146.973 147.322C154.92 150.462 162.966 152.817 170.325 157.33C184.944 166.259 187.887 177.248 187.887 186.471C187.887 198.441 182.098 211.883 169.442 222.283C158.943 230.917 144.913 237.098 125.584 237.491C104.096 237.982 88.4959 229.936 76.2314 217.77C64.85 206.584 60.7291 190.493 60.7291 175.972C60.7291 155.466 69.952 138.296 85.16 127.11C96.3452 118.967 111.749 114.061 124.799 114.159C116.851 110.431 108.413 106.898 95.2659 106.898C80.6466 106.898 64.85 113.472 52.6836 127.797V91.7884C63.0839 85.7052 79.0768 81.1919 93.9904 81.1919C114.104 81.1919 124.21 89.4337 134.316 96.498C144.226 103.464 152.467 109.155 169.049 109.94C179.449 110.431 188.868 108.174 197.208 102.679V113.766Z" fill="#75B7E5"/>
<path fill-rule="evenodd" clip-rule="evenodd" d="M126.761 213.453H130.686L128.331 217.574C132.059 216.887 134.512 225.913 127.84 226.306C123.131 226.306 123.229 220.811 124.21 218.849L126.761 213.453ZM127.546 220.223C127.154 220.223 126.859 220.909 126.859 221.891C126.859 222.774 127.154 223.559 127.546 223.559C127.938 223.559 128.233 222.872 128.233 221.891C128.331 220.909 127.938 220.223 127.546 220.223Z" fill="white"/>
<path fill-rule="evenodd" clip-rule="evenodd" d="M113.612 213.55L113.514 225.815L110.178 225.717V216.298H108.805V213.55H113.612Z" fill="white"/>
<path fill-rule="evenodd" clip-rule="evenodd" d="M132.942 213.55V216.494L136.67 216.396L132.451 225.717L136.278 225.815L141.085 213.55H132.942Z" fill="white"/>
<path fill-rule="evenodd" clip-rule="evenodd" d="M118.814 221.694L116.263 225.717H119.893L122.836 219.732C124.995 211.687 113.025 210.804 115.085 219.34C115.478 221.008 116.557 221.793 118.814 221.694ZM118.912 216.004C119.304 216.004 119.599 216.691 119.599 217.672C119.599 218.555 119.304 219.34 118.912 219.34C118.519 219.34 118.225 218.653 118.225 217.672C118.127 216.691 118.519 216.004 118.912 216.004Z" fill="white"/>
<path d="M124.994 -0.244629L129.017 11.1368L141.085 11.4312L131.568 18.7899L134.904 30.3676L124.994 23.6957L114.986 30.3676L118.322 18.7899L108.805 11.4312L120.971 11.1368L124.994 -0.244629Z" fill="white"/>
<path d="M127.744 55.3875C127.351 53.327 126.468 51.3647 125.291 49.5986H124.996C116.951 49.5986 110.377 55.4856 109.102 63.1387C112.732 58.331 118.521 55.1913 125.094 55.1913C125.977 55.1913 126.861 55.2894 127.744 55.3875Z" fill="white"/>
<path d="M125.582 57.2515C118.616 57.2515 112.435 60.8818 108.902 66.2782C109 68.3386 109.393 70.2028 110.178 71.9689C112.729 66.4744 118.321 62.6479 124.797 62.6479C125.68 62.6479 126.661 62.746 127.446 62.8441C127.839 61.4705 128.035 60.0968 128.035 58.6251C128.035 58.2326 128.035 57.742 127.937 57.3496C127.152 57.2515 126.367 57.2515 125.582 57.2515Z" fill="white"/>
<path d="M114.791 68.6328C113.221 70.1046 111.946 71.7725 111.062 73.6367C111.062 73.7349 111.161 73.833 111.161 73.833C115.183 80.7992 123.621 83.5465 130.882 80.7011C124.897 80.0143 119.206 76.5802 115.968 70.8895C115.576 70.2027 115.183 69.4177 114.791 68.6328Z" fill="white"/>
<path d="M117.439 69.5163C120.873 75.5995 127.054 79.1317 133.53 79.5242C135.296 78.4449 136.669 77.0713 137.847 75.5995C131.764 76.0901 125.68 73.1466 122.541 67.554C122.05 66.769 121.756 65.886 121.363 65.1011C119.99 65.4935 118.714 65.9841 117.439 66.6709C117.046 66.8672 116.752 67.0634 116.359 67.3577C116.654 68.0446 117.046 68.7314 117.439 69.5163Z" fill="white"/>
<path d="M132.354 73.2447C134.414 73.9315 136.474 74.2259 138.535 74.1278C138.633 74.0297 138.633 73.9315 138.731 73.9315C142.852 67.0634 141.282 58.3311 135.297 53.3271C137.554 58.9198 137.259 65.4936 133.923 71.0862C133.433 71.773 132.942 72.5579 132.354 73.2447Z" fill="white"/>
<path d="M131.961 70.4969C135.591 64.5118 135.689 57.4475 132.844 51.5605C131.078 50.5793 129.213 49.9906 127.251 49.6963C130.685 54.7002 131.078 61.4702 127.742 67.0628C127.251 67.8478 126.761 68.5346 126.172 69.2214C127.153 70.2026 128.232 71.0856 129.508 71.8705C129.9 72.0668 130.195 72.263 130.587 72.4592C131.078 71.8705 131.47 71.1837 131.961 70.4969Z" fill="white"/>
</g>
<defs>
<clipPath id="clip0_242_94929">
<rect width="250" height="250" rx="125" fill="white"/>
</clipPath>
</defs>
</svg>
