<svg width="250" height="250" viewBox="0 0 250 250" fill="none" xmlns="http://www.w3.org/2000/svg">
<rect width="250" height="250" rx="125" fill="white"/>
<path fill-rule="evenodd" clip-rule="evenodd" d="M165.369 158.837L205.064 192.497L205.107 192.54L205.489 191.987C209.144 187.525 212.417 182.765 215.307 177.792L215.477 177.537L170.554 151.357C169.024 153.992 167.282 156.5 165.369 158.837Z" fill="url(#paint0_linear_242_93893)"/>
<path fill-rule="evenodd" clip-rule="evenodd" d="M177.522 125.518H229.5L229.415 126.75C229.33 131.935 228.905 137.163 228.097 142.305L227.97 143.793L227.587 145.195C226.61 150.295 225.292 155.353 223.55 160.24L223.252 161.303L174.42 143.368C176.46 137.63 177.522 131.595 177.522 125.518Z" fill="url(#paint1_linear_242_93893)"/>
<path fill-rule="evenodd" clip-rule="evenodd" d="M215.732 72.8598C218.537 77.7473 220.917 82.8898 222.915 88.2023L223.34 89.1373L223.637 90.1998C225.38 95.2148 226.74 100.357 227.717 105.585L228.057 106.817L176.887 115.87C175.357 106.817 171.447 98.3173 165.582 91.2198L205.235 57.6448L205.66 58.1548C209.315 62.6173 212.587 67.3773 215.477 72.3498L215.647 72.5623L215.732 72.8598Z" fill="url(#paint2_linear_242_93893)"/>
<path fill-rule="evenodd" clip-rule="evenodd" d="M134.812 73.1993C131.837 72.6468 128.777 72.3493 125.717 72.3493V20.3293C131.709 20.3293 137.659 20.8393 143.524 21.8593L143.779 21.9018L144.034 21.9868C149.772 23.0068 155.424 24.5793 160.907 26.5343L161.247 26.6193L161.587 26.7468C167.027 28.7868 172.297 31.2518 177.312 34.1843L177.567 34.3118L177.822 34.4818C182.794 37.3718 187.469 40.6868 191.889 44.3843L192.399 44.8093L159.164 84.8018C154.532 80.8493 149.262 77.7468 143.609 75.6218C140.719 74.5593 137.787 73.7518 134.812 73.1993Z" fill="url(#paint3_linear_242_93893)"/>
<path d="M125.206 20.2004V72.3054C96.2212 72.3054 72.7187 95.8929 72.7187 125.005C72.7187 154.118 96.2212 177.705 125.206 177.705C140.719 177.705 155.424 170.82 165.326 158.963L205.064 192.538C185.301 216.21 156.061 229.853 125.206 229.853C67.5762 229.853 20.8262 182.933 20.8262 125.048C20.8262 67.1629 67.5762 20.2004 125.206 20.2004ZM174.464 143.238L223.211 161.3C221.086 167.038 218.494 172.563 215.434 177.833L170.554 151.568C172.084 148.933 173.401 146.128 174.464 143.238ZM228.056 106.815C229.076 112.723 229.629 118.8 229.629 125.005H177.694C177.694 121.903 177.439 118.843 176.886 115.868L228.056 106.815ZM192.654 45.0204C197.286 48.9729 201.579 53.3079 205.489 57.9829L165.581 91.3454C163.626 89.0079 161.459 86.7979 159.164 84.8429L192.654 45.0204Z" fill="#1D2667"/>
<defs>
<linearGradient id="paint0_linear_242_93893" x1="195.958" y1="163.838" x2="184.005" y2="181.49" gradientUnits="userSpaceOnUse">
<stop stop-color="white" stop-opacity="0"/>
<stop offset="1" stop-opacity="0.1"/>
</linearGradient>
<linearGradient id="paint1_linear_242_93893" x1="205.639" y1="136.92" x2="200.921" y2="150.653" gradientUnits="userSpaceOnUse">
<stop stop-color="white" stop-opacity="0"/>
<stop offset="1" stop-opacity="0.1"/>
</linearGradient>
<linearGradient id="paint2_linear_242_93893" x1="186.181" y1="78.4467" x2="205.521" y2="113.055" gradientUnits="userSpaceOnUse">
<stop stop-color="white" stop-opacity="0"/>
<stop offset="1" stop-opacity="0.1"/>
</linearGradient>
<linearGradient id="paint3_linear_242_93893" x1="125.099" y1="34.2903" x2="181.023" y2="76.6348" gradientUnits="userSpaceOnUse">
<stop stop-color="white" stop-opacity="0"/>
<stop offset="1" stop-opacity="0.1"/>
</linearGradient>
</defs>
</svg>
