<svg width="250" height="250" viewBox="0 0 250 250" fill="none" xmlns="http://www.w3.org/2000/svg">
<path d="M125.155 248.968C193.724 248.968 249.31 193.382 249.31 124.813C249.31 56.2443 193.724 0.658203 125.155 0.658203C56.5861 0.658203 1 56.2443 1 124.813C1 193.382 56.5861 248.968 125.155 248.968Z" fill="black"/>
<path d="M60.7246 172.528C80.1246 159.298 101.68 149.413 121.015 136.013C127.62 131.408 134.725 126.733 139.035 119.738C147.735 101.918 84.2596 106.908 74.7496 105.808C74.7196 105.633 74.6946 105.458 74.6646 105.278C100.975 97.4134 153.745 87.6584 179.73 95.2734C208.255 104.358 164.505 128.488 154.27 134.773C124.85 150.853 94.0846 166.413 61.0946 173.253C60.9746 173.018 60.8496 172.773 60.7246 172.528Z" fill="#3EFCAB"/>
</svg>
