<svg width="250" height="250" viewBox="0 0 250 250" fill="none" xmlns="http://www.w3.org/2000/svg">
<rect width="250" height="250" rx="125" fill="white"/>
<g clip-path="url(#clip0_242_94634)">
<path d="M139.792 12.7803L164.581 79.5736C164.656 79.7756 164.684 79.9921 164.661 80.2064L155.528 168.027C155.49 168.392 155.311 168.727 155.029 168.961C154.747 169.195 154.385 169.31 154.02 169.28L26.2119 158.86C25.96 158.839 25.7183 158.751 25.5124 158.604C25.3065 158.458 25.1441 158.258 25.0424 158.027C24.9407 157.795 24.9034 157.541 24.9345 157.29C24.9656 157.039 25.0639 156.801 25.219 156.602L137.371 12.4073C137.524 12.2102 137.728 12.0576 137.96 11.9654C138.192 11.8731 138.444 11.8445 138.691 11.8826C138.938 11.9206 139.17 12.0239 139.364 12.1817C139.557 12.3395 139.705 12.5462 139.792 12.7803Z" fill="#64CACA"/>
<path d="M148.767 236.407L154.942 176.217C154.959 175.996 154.932 175.773 154.862 175.563C154.792 175.352 154.681 175.158 154.534 174.991C154.388 174.824 154.21 174.688 154.01 174.591C153.81 174.494 153.593 174.438 153.372 174.427L26.7904 164.394C24.9836 164.251 24.2021 166.519 25.7477 167.421L146.154 237.642C147.238 238.275 148.644 237.61 148.767 236.407Z" fill="#185F6A"/>
<path d="M158.668 176.302L151.236 237.196C151.197 237.447 151.234 237.703 151.342 237.931C151.451 238.16 151.625 238.351 151.843 238.479C152.062 238.608 152.313 238.668 152.566 238.651C152.819 238.635 153.06 238.543 153.26 238.388L223.133 182.356C224.045 181.625 223.605 180.118 222.455 180.029L160.015 175.168C159.687 175.147 159.365 175.253 159.114 175.465C158.863 175.676 158.703 175.976 158.668 176.302Z" fill="#0F393F"/>
<path d="M222.997 175.158L161.707 170.148C161.444 170.126 161.189 170.05 160.956 169.927C160.723 169.804 160.517 169.635 160.351 169.43C160.185 169.225 160.062 168.989 159.99 168.736C159.917 168.482 159.897 168.217 159.929 167.955L170.33 82.4559C170.39 81.964 170.634 81.5129 171.012 81.193L193.309 62.3515C193.561 62.139 193.862 61.9938 194.185 61.9296C194.508 61.8655 194.842 61.8843 195.156 61.9845C195.47 62.0846 195.753 62.2628 195.98 62.5023C196.206 62.7418 196.368 63.0348 196.45 63.3539L225.041 172.705C225.121 173.007 225.128 173.324 225.06 173.629C224.992 173.935 224.853 174.219 224.653 174.459C224.452 174.699 224.198 174.888 223.91 175.01C223.622 175.131 223.309 175.182 222.997 175.158Z" fill="#00BCBE"/>
<path d="M169.762 75.4104L191.825 56.3033C191.961 56.1866 192.07 56.0426 192.147 55.8808C192.223 55.719 192.265 55.543 192.269 55.3641C192.272 55.1852 192.239 55.0075 192.17 54.8425C192.101 54.6775 191.997 54.5289 191.867 54.4063L146.738 11.7255C145.742 10.7835 144.145 11.8218 144.622 13.1006L167.688 74.8883C167.763 75.0844 167.884 75.2597 168.041 75.3991C168.197 75.5386 168.386 75.6382 168.589 75.6894C168.793 75.7407 169.006 75.7421 169.21 75.6935C169.414 75.6449 169.603 75.5478 169.762 75.4104Z" fill="#00A8B6"/>
</g>
<defs>
<clipPath id="clip0_242_94634">
<rect width="227.302" height="227.302" fill="white" transform="translate(11.3633 11.3613)"/>
</clipPath>
</defs>
</svg>
