<svg width="250" height="250" viewBox="0 0 250 250" fill="none" xmlns="http://www.w3.org/2000/svg">
<path d="M124.999 247.428C192.615 247.428 247.428 192.615 247.428 125C247.428 57.3841 192.615 2.57092 124.999 2.57092C57.3835 2.57092 2.57031 57.3841 2.57031 125C2.57031 192.615 57.3835 247.428 124.999 247.428Z" fill="#30C0F2"/>
<path opacity="0.4" d="M188.195 69.3962L246.098 143.075C246.098 143.075 240.034 221.495 152.526 244.321L120.07 205.522L188.195 69.3962Z" fill="#298EA1"/>
<path d="M78.9852 54.3337H171.834C171.834 54.3337 174.299 66.6587 187.445 67.4804C187.445 67.4804 230.994 169.367 124.999 212.916C124.999 212.916 27.2199 181.693 61.7301 68.3021C61.7301 68.3021 76.5202 67.4804 78.9852 54.3337Z" fill="white"/>
<path d="M85.9709 64.6058H164.851C164.851 64.6058 165.352 74.7288 176.1 75.4354C176.1 75.4354 211.686 162.532 125.058 199.77C125.058 199.77 44.6163 173.871 72.8242 76.9308C72.8242 76.9308 83.9578 75.8462 85.9709 64.6058Z" fill="#F8B642" stroke="#298EA1" stroke-width="2.63184" stroke-miterlimit="10"/>
<path d="M145.746 111.03H143.347C143.585 106.207 142.525 95.7061 129.551 92.7891C125.782 91.8837 121.833 92.066 118.163 93.315C113.101 95.1227 107.054 99.6665 106.832 111.03H105.074C101.334 111.039 98.304 114.069 98.2949 117.809V146.157C98.3039 149.897 101.334 152.926 105.074 152.935H145.746C149.486 152.926 152.516 149.897 152.525 146.157V117.809C152.516 114.069 149.486 111.039 145.746 111.03ZM129.929 143.075H120.891L123.282 131.128C120.577 129.953 119.336 126.807 120.512 124.101C121.687 121.396 124.833 120.156 127.538 121.331C130.244 122.506 131.484 125.652 130.309 128.358C129.769 129.599 128.779 130.589 127.538 131.128L129.929 143.075ZM112.674 111.03C112.896 107.316 114.457 98.5326 124.178 97.8835C124.178 97.8835 137.004 97.1769 136.774 111.03H112.674Z" fill="white"/>
</svg>
