<svg width="250" height="250" viewBox="0 0 250 250" fill="none" xmlns="http://www.w3.org/2000/svg">
<path d="M92.7783 182.211C94.1783 179.726 104.048 162.751 107.513 156.451C109.263 153.266 111.748 151.866 115.283 151.866C121.898 151.901 128.548 151.866 135.163 151.866C138.208 151.866 140.693 152.881 142.303 155.716C147.273 164.431 152.313 173.111 157.528 182.176C156.058 183.961 154.623 185.851 153.048 187.601C146.153 195.406 138.698 202.651 130.543 209.126C126.273 212.521 124.103 212.591 119.903 209.231C109.928 201.321 100.898 192.501 92.7783 182.211Z" fill="#00843D"/>
<path d="M114.653 142.344C111.608 142.414 109.438 141.294 107.933 138.564C104.573 132.579 101.143 126.664 97.6431 120.749C95.9981 117.984 96.0331 115.464 97.6781 112.699C101.178 106.819 104.608 100.869 107.968 94.8842C109.403 92.3292 111.433 91.1042 114.373 91.1042C121.583 91.1392 128.758 91.1392 135.968 91.1042C138.733 91.1042 140.798 92.2242 142.163 94.6042C145.768 100.834 149.373 107.064 152.978 113.294C154.273 115.569 154.273 117.879 152.943 120.154C149.338 126.384 145.733 132.614 142.128 138.844C140.728 141.259 138.663 142.344 135.898 142.274C132.363 142.239 118.188 142.239 114.653 142.344Z" fill="#00843D"/>
<path d="M94.5977 54.2131C98.3077 52.1831 116.158 42.4531 121.653 39.4081C123.963 38.1131 126.168 38.0431 128.478 39.3031C137.193 44.0981 145.943 48.8231 154.658 53.6181C154.938 53.7581 155.148 54.0731 155.603 54.4581C155.218 55.1931 146.678 69.9631 143.038 76.7181C141.183 80.1481 138.593 81.6881 134.778 81.6181C128.373 81.5131 121.968 81.5481 115.563 81.6181C111.923 81.6531 109.333 80.3231 107.513 76.9631C103.768 70.1381 95.1577 55.3681 94.5977 54.2131Z" fill="#00843D"/>
<path d="M164.492 59.0089C171.702 62.9639 189.517 72.6589 191.512 73.7789C193.717 75.0039 194.907 76.8939 194.872 79.3439C194.732 89.9839 193.612 100.519 191.267 110.879C191.232 111.089 191.022 111.264 190.672 111.754C189.797 111.824 174.817 111.824 168.412 111.999C164.772 112.069 162.392 110.634 160.677 107.484C157.597 101.884 154.377 96.3539 151.087 90.8939C149.232 87.8139 149.127 85.0489 150.982 81.9339C155.147 74.9689 159.102 67.9339 163.162 60.8989C163.442 60.3739 163.897 59.8489 164.492 59.0089Z" fill="#00843D"/>
<path d="M59.2131 111.929C58.4781 108.114 57.5681 104.684 57.2181 101.184C56.4831 94.0437 55.9931 86.8688 55.4681 79.6938C55.2581 77.0688 56.4481 75.0388 58.7581 73.7788C67.6481 68.8788 76.5381 64.0138 85.7081 58.9738C86.3381 59.8838 95.4381 75.3538 99.4981 82.2138C101.108 84.9438 101.213 87.4638 99.5681 90.2288C95.9981 96.2138 92.5681 102.269 89.1381 108.324C87.9131 110.494 86.1281 111.824 83.6781 111.859C75.6981 111.964 67.7181 111.929 59.2131 111.929Z" fill="#00843D"/>
<path d="M163.653 173.424C160.853 168.594 152.313 153.789 150.633 150.954C149.128 148.469 149.128 146.019 150.598 143.499C154.168 137.374 157.668 131.249 161.203 125.124C162.428 122.989 164.283 121.589 166.698 121.554C173.558 121.484 180.418 121.554 187.243 121.589C187.453 121.589 187.663 121.764 187.873 121.834C187.908 131.074 172.578 163.554 163.653 173.424Z" fill="#00843D"/>
<path d="M86.2676 173.495C75.0326 157.71 67.0876 140.735 61.7676 122.22C62.4676 121.94 63.0626 121.555 63.6226 121.52C70.1326 121.485 76.6426 121.45 83.1526 121.52C85.7426 121.555 87.7026 122.745 88.9976 125.02C92.5676 131.25 96.1726 137.48 99.7776 143.71C101.073 145.95 101.283 148.19 99.9176 150.5C95.7176 157.71 91.5876 164.92 87.4226 172.13C87.1776 172.48 86.8626 172.795 86.2676 173.495Z" fill="#00843D"/>
</svg>
