<svg width="250" height="250" viewBox="0 0 250 250" fill="none" xmlns="http://www.w3.org/2000/svg">
<rect width="250" height="250" rx="125" fill="white"/>
<g clip-path="url(#clip0_242_94622)">
<path d="M197.077 158.062C169.274 158.062 146.569 143.513 134.521 133.751C134.438 133.689 134.339 133.65 134.236 133.639C134.133 133.627 134.029 133.643 133.934 133.685C133.839 133.726 133.757 133.793 133.696 133.876C133.635 133.96 133.597 134.059 133.586 134.162C133.573 134.3 133.608 134.439 133.687 134.554C143.479 146.601 158.031 169.214 158.031 197.141C158.031 240.39 129.672 238.999 125.501 238.536C125.359 238.528 125.226 238.466 125.128 238.362C125.03 238.259 124.976 238.122 124.976 237.98V125.007H237.947C238.089 125.007 238.226 125.062 238.33 125.159C238.433 125.257 238.495 125.39 238.504 125.532C238.936 129.734 240.295 158.062 197.077 158.062ZM124.45 11.4796C120.279 11.0472 91.9212 9.65661 91.9212 52.9059C91.9212 80.8016 106.471 103.414 116.264 115.493C116.344 115.572 116.398 115.674 116.419 115.784C116.441 115.894 116.43 116.008 116.387 116.112C116.344 116.216 116.271 116.304 116.178 116.367C116.085 116.429 115.975 116.463 115.863 116.463C115.788 116.463 115.714 116.448 115.645 116.42C115.576 116.391 115.514 116.349 115.461 116.296C103.381 106.504 80.6754 91.9535 52.8729 91.9535C9.65502 91.9535 11.0143 120.312 11.5698 124.513C11.585 124.649 11.6503 124.775 11.7531 124.866C11.8559 124.958 11.9888 125.008 12.1263 125.006H124.975V12.066C124.975 11.9206 124.922 11.7802 124.825 11.6719C124.728 11.5636 124.594 11.495 124.45 11.4796Z" fill="#0B2336"/>
</g>
<defs>
<clipPath id="clip0_242_94622">
<rect width="227.302" height="227.302" fill="white" transform="translate(11.3652 11.3613)"/>
</clipPath>
</defs>
</svg>
