<svg width="250" height="250" viewBox="0 0 250 250" fill="none" xmlns="http://www.w3.org/2000/svg">
<g clip-path="url(#clip0_242_94739)">
<path d="M125 -0.00195312C194.035 -0.00195312 250 55.9625 250 124.998C250 194.034 194.035 249.998 125 249.998C55.9645 249.998 0 194.034 0 124.998C0 55.9625 55.9645 -0.00195312 125 -0.00195312Z" fill="#FFE81C"/>
<path d="M206.23 67.8053L191.523 115.577H154.551L148.844 119.927L128.808 202.848H73.1299L83.5439 171.884L84.3299 168.863L61.5514 186.155L93.0869 140.32L100.508 115.577H50.1299L64.7014 67.8053H127.801H132.694L158.544 51.2483L148.001 67.8053H206.23Z" fill="#3F3F3F"/>
<path d="M186.386 108.428L196.851 76.2634H150.308L137.479 97.2494L166.758 108.292L186.386 108.428Z" fill="#FFE81C"/>
<path d="M84.708 161.827L151.015 111.577L121.737 99.2628L123.53 96.3558L141.015 68.9483L141.151 68.6768L90.908 100.87L117.201 114.598L84.708 161.827Z" fill="#FFE81C"/>
<path d="M121.901 193.527L136.744 136.834L92.651 171.177L85.501 193.498H121.901V193.527Z" fill="#FFE81C"/>
<path d="M72.2852 101.763L112.057 76.3709L69.4067 76.2634L59.5352 108.263L87.9427 108.428L72.2852 101.763Z" fill="#FFE81C"/>
</g>
<defs>
<clipPath id="clip0_242_94739">
<rect width="250" height="250" fill="white"/>
</clipPath>
</defs>
</svg>
