<svg width="250" height="250" viewBox="0 0 250 250" fill="none" xmlns="http://www.w3.org/2000/svg">
<path d="M20.4482 67.0974V183.397C20.4482 186.197 21.8982 188.797 24.2982 190.197L121.048 248.097C123.548 249.597 126.698 249.597 129.198 248.097L225.998 190.247C228.398 188.797 229.848 186.197 229.848 183.447V67.0974C229.848 64.2974 228.398 61.6974 225.998 60.2974L129.248 2.34741C126.748 0.847412 123.598 0.847412 121.098 2.34741L24.2982 60.2474C21.8982 61.6974 20.4482 64.2974 20.4482 67.0974Z" fill="#01028D"/>
<path d="M177.451 74.4473H72.2508C70.3508 74.4473 68.8008 75.9973 68.8008 77.8973V102.697C68.8008 104.597 70.3508 106.147 72.2508 106.147H108.201V183.847C108.201 185.747 109.751 187.297 111.651 187.297H138.451C140.351 187.297 141.901 185.747 141.901 183.847V106.097H177.501C179.401 106.097 180.951 104.547 180.951 102.647V77.8473C180.901 75.9973 179.351 74.4473 177.451 74.4473Z" fill="white"/>
<path d="M108.149 106.097H131.949C133.199 106.097 133.849 107.547 133.049 108.497L108.149 137.147V106.097Z" fill="#AFB9C9"/>
</svg>
