<svg width="250" height="250" viewBox="0 0 250 250" fill="none" xmlns="http://www.w3.org/2000/svg">
<path d="M124.852 247.698C192.7 247.698 247.702 192.696 247.702 124.848C247.702 56.9996 192.7 1.9978 124.852 1.9978C57.0038 1.9978 2.00195 56.9996 2.00195 124.848C2.00195 192.696 57.0038 247.698 124.852 247.698Z" fill="#343434"/>
<path d="M124.852 30.748C176.802 30.748 218.952 72.898 218.952 124.848C218.952 176.798 176.852 218.948 124.852 218.948C72.8518 218.948 30.7518 176.798 30.7518 124.848C30.7518 72.898 72.9018 30.748 124.852 30.748ZM124.852 21.298C110.852 21.298 97.3018 24.048 84.5518 29.448C72.2018 34.648 61.1518 42.148 51.6518 51.648C42.1518 61.148 34.7018 72.248 29.4518 84.548C24.0518 97.298 21.3018 110.898 21.3018 124.848C21.3018 138.798 24.0518 152.398 29.4518 165.148C34.6518 177.498 42.1518 188.548 51.6518 198.048C61.1518 207.548 72.2518 214.998 84.5518 220.248C97.3018 225.648 110.902 228.398 124.852 228.398C138.802 228.398 152.402 225.648 165.152 220.248C177.502 215.048 188.552 207.548 198.052 198.048C207.552 188.548 215.002 177.448 220.252 165.148C225.652 152.398 228.402 138.798 228.402 124.848C228.402 110.898 225.652 97.298 220.252 84.548C215.052 72.198 207.552 61.148 198.052 51.648C188.552 42.148 177.452 34.698 165.152 29.448C152.402 24.048 138.852 21.298 124.852 21.298Z" fill="white"/>
<path d="M191.002 94.598C189.302 94.598 187.602 93.648 186.802 91.998C175.552 69.898 150.302 54.498 125.352 54.498C122.752 54.498 120.602 52.398 120.602 49.748C120.602 47.098 122.702 44.998 125.352 44.998C139.552 44.998 153.802 49.198 166.552 57.098C178.902 64.748 189.102 75.598 195.252 87.698C196.452 90.048 195.502 92.898 193.202 94.048C192.452 94.4481 191.752 94.598 191.002 94.598Z" fill="white"/>
<path d="M101.1 82.8974L170.15 125.197L101.1 167.297V82.8974ZM101.1 73.4474C99.4996 73.4474 97.8996 73.8474 96.4496 74.6474C93.4496 76.2974 91.5996 79.4974 91.5996 82.8974V167.247C91.5996 170.647 93.4496 173.847 96.4496 175.497C97.8996 176.297 99.4996 176.697 101.1 176.697C102.8 176.697 104.5 176.247 106 175.297L175.05 133.197C177.85 131.497 179.6 128.447 179.6 125.147C179.6 121.847 177.9 118.797 175.1 117.047L106.05 74.7474C104.5 73.8974 102.8 73.4474 101.1 73.4474Z" fill="white"/>
</svg>
