<svg width="250" height="250" viewBox="0 0 250 250" fill="none" xmlns="http://www.w3.org/2000/svg">
<path fill-rule="evenodd" clip-rule="evenodd" d="M35.1465 40.8232C48.0433 40.8232 58.4982 51.2795 58.4982 64.178V144.108C58.4982 180.87 88.2961 210.672 125.054 210.672C161.811 210.672 191.609 180.87 191.609 144.108V64.178C191.609 51.2795 202.064 40.8232 214.961 40.8232V144.108C214.961 193.768 174.708 234.027 125.054 234.027C75.3992 234.027 35.1465 193.768 35.1465 144.108V40.8232Z" fill="#00D9A1"/>
<path fill-rule="evenodd" clip-rule="evenodd" d="M75.2964 78.7292C85.9282 78.7292 94.547 87.3489 94.547 97.9821V101.163C102.965 94.6233 113.541 90.7298 125.025 90.7298C152.49 90.7298 174.755 112.997 174.756 140.466H174.756C174.756 167.935 152.491 190.203 125.026 190.203C97.5607 190.203 75.2961 167.935 75.2955 140.467H75.2949C75.2949 139.941 75.303 139.417 75.3192 138.895H75.2964V78.7292ZM94.5452 140.466H94.5461C94.5461 157.302 108.192 170.95 125.026 170.95C141.859 170.95 155.506 157.302 155.506 140.467H155.505C155.505 123.631 141.859 109.983 125.025 109.983C108.192 109.983 94.5458 123.631 94.5452 140.466Z" fill="#00D9A1"/>
<path d="M164.244 83.6224C170.572 83.6224 175.702 78.4915 175.702 72.1623C175.702 65.833 170.572 60.7021 164.244 60.7021C157.915 60.7021 152.785 65.833 152.785 72.1623C152.785 78.4915 157.915 83.6224 164.244 83.6224Z" fill="#00D9A1"/>
</svg>
