<svg width="250" height="250" viewBox="0 0 250 250" fill="none" xmlns="http://www.w3.org/2000/svg">
<g clip-path="url(#clip0_242_94617)">
<rect width="250" height="250" rx="125" fill="white"/>
<path d="M270.5 -20.5217H-20.5V270.478H270.5V-20.5217Z" fill="url(#paint0_linear_242_94617)"/>
<path d="M133.993 119.732C132.993 121.094 131.698 122.213 130.204 123.005C130.096 123.062 130.007 123.149 129.947 123.255C129.886 123.362 129.858 123.483 129.865 123.606C129.871 123.728 129.913 123.845 129.984 123.945C130.056 124.044 130.154 124.121 130.268 124.166C131.288 124.579 132.248 125.13 133.119 125.804C134.689 127.01 135.993 128.527 136.948 130.262C137.974 132.079 138.505 134.133 138.488 136.219C138.488 142.266 136.49 146.596 132.495 149.209C128.499 151.823 123.394 153.129 117.178 153.13H90.3528C90.2683 153.13 90.1846 153.113 90.1065 153.081C90.0283 153.048 89.9574 153.001 89.8976 152.941C89.8378 152.881 89.7904 152.81 89.758 152.732C89.7256 152.654 89.709 152.57 89.709 152.486V98.0006C89.709 97.6992 89.8287 97.4102 90.0418 97.1971C90.2549 96.984 90.544 96.8643 90.8453 96.8643H116.345C122.56 96.8643 127.416 98.1581 130.912 100.746C134.409 103.334 136.157 107.395 136.157 112.929C136.157 115.543 135.436 117.81 133.993 119.732ZM115.181 119.079C117.012 119.079 118.399 118.566 119.342 117.541C120.246 116.616 120.753 115.375 120.758 114.082C120.758 113.474 120.636 112.871 120.4 112.31C120.165 111.749 119.819 111.241 119.384 110.815C118.469 109.868 117.04 109.394 115.097 109.393H105.669C105.498 109.393 105.335 109.461 105.214 109.582C105.093 109.703 105.025 109.867 105.025 110.037V118.434C105.025 118.605 105.093 118.769 105.214 118.89C105.335 119.011 105.498 119.079 105.669 119.079H115.181ZM121.424 138.91C122.589 137.784 123.172 136.528 123.171 135.144C123.171 133.759 122.589 132.517 121.424 131.416C120.258 130.315 118.704 129.764 116.762 129.764H105.669C105.498 129.764 105.335 129.832 105.214 129.952C105.093 130.073 105.025 130.237 105.025 130.408V139.958C105.025 140.043 105.042 140.126 105.074 140.205C105.107 140.283 105.154 140.354 105.214 140.413C105.274 140.473 105.345 140.521 105.423 140.553C105.501 140.585 105.585 140.602 105.669 140.602H116.929C118.76 140.601 120.258 140.037 121.424 138.91Z" fill="white"/>
<path d="M140.938 153.13V103.014C140.938 101.015 141.458 99.4905 142.5 98.4399C143.541 97.3893 145.053 96.8641 147.034 96.8643H155.036V146.981C155.036 148.979 154.515 150.504 153.473 151.554C152.432 152.605 150.921 153.13 148.939 153.13H140.938Z" fill="white"/>
<path d="M155.824 96.8631H168.703C170.171 96.8266 171.624 97.1569 172.932 97.824C174.209 98.5419 175.294 99.557 176.095 100.783L185.849 114.85L195.451 100.783C196.366 99.3997 197.407 98.4003 198.576 97.7853C199.744 97.1703 201.167 96.8629 202.843 96.8631H215.722L194.461 125.304L215.722 153.129H202.691C201.064 153.129 199.667 152.822 198.499 152.207C197.332 151.592 196.265 150.618 195.299 149.286L185.849 135.834L176.324 149.286C175.358 150.619 174.291 151.593 173.123 152.207C171.955 152.821 170.558 153.128 168.931 153.129H156.053L177.238 125.304L155.824 96.8631Z" fill="url(#paint1_radial_242_94617)"/>
<path d="M55.2442 116.927H48.291V130.435H55.2442V116.927Z" fill="white"/>
<path d="M55.1295 96.4034H48.5195V103.533H55.1295V96.4034Z" fill="white"/>
<path d="M61.9322 103.532H55.3223V110.662H61.9322V103.532Z" fill="white"/>
<path d="M61.7045 116.927H54.9824V123.687H61.7045V116.927Z" fill="white"/>
<path d="M55.0131 110.661H48.291V116.928H55.0131V110.661Z" fill="#6EA2E3"/>
<path d="M75.5048 96.4034C73.5235 96.4034 72.012 96.9287 70.9705 97.9791C69.929 99.0296 69.4084 100.554 69.4087 102.553V129.609C69.4087 132.377 68.8372 134.645 67.6942 136.412C66.5511 138.18 65.1666 139.448 63.5405 140.217C61.9139 140.986 60.3643 141.37 58.8919 141.37C57.2508 141.342 55.6366 140.948 54.1671 140.217C52.5406 139.448 51.1561 138.18 50.0137 136.412C48.8713 134.644 48.2998 132.377 48.2992 129.609V124.366H41.8917V117.757H48.2992V103.533H41.5792V96.4034H34.2773V129.609C34.2773 134.428 35.2934 138.642 37.3255 142.254C39.3165 145.828 42.31 148.74 45.9367 150.632C49.6445 152.606 53.9627 153.592 58.8912 153.592C63.8197 153.591 68.1379 152.605 71.8457 150.632C75.4664 148.745 78.449 145.83 80.4189 142.254C82.4253 138.641 83.4287 134.426 83.4292 129.609V96.4034H75.5048Z" fill="white"/>
<path d="M48.2919 124.404H41.9492V131.014H48.2919V124.404Z" fill="#6EA2E3"/>
</g>
<defs>
<linearGradient id="paint0_linear_242_94617" x1="256.17" y1="256.148" x2="33.9653" y2="33.9436" gradientUnits="userSpaceOnUse">
<stop stop-color="#020B2F"/>
<stop offset="0.502" stop-color="#08124D"/>
<stop offset="0.679" stop-color="#071148"/>
<stop offset="0.888" stop-color="#040E3A"/>
<stop offset="1" stop-color="#020B2F"/>
</linearGradient>
<radialGradient id="paint1_radial_242_94617" cx="0" cy="0" r="1" gradientUnits="userSpaceOnUse" gradientTransform="translate(187.514 123.008) scale(28.3652 28.3652)">
<stop offset="0.07" stop-color="#D3FEFF"/>
<stop offset="0.396" stop-color="#AAE6F7"/>
<stop offset="1" stop-color="#56B4E7"/>
</radialGradient>
<clipPath id="clip0_242_94617">
<rect width="250" height="250" rx="125" fill="white"/>
</clipPath>
</defs>
</svg>
