<svg width="250" height="250" viewBox="0 0 250 250" fill="none" xmlns="http://www.w3.org/2000/svg">
<rect width="250" height="250" rx="125" fill="white"/>
<g clip-path="url(#clip0_242_94621)">
<path d="M125.015 238.665C187.782 238.665 238.666 187.781 238.666 125.014C238.666 62.2457 187.782 11.3623 125.015 11.3623C62.2467 11.3623 11.3633 62.2457 11.3633 125.014C11.3633 187.781 62.2467 238.665 125.015 238.665Z" fill="url(#paint0_linear_242_94621)"/>
<path d="M125.014 238.664C154.895 238.703 183.582 226.934 204.827 205.921C197.988 200.29 189.637 196.808 180.824 195.914C172.011 195.02 163.13 196.754 155.3 200.897C151.782 192.951 146.031 186.198 138.747 181.457C131.463 176.717 122.959 174.194 114.269 174.195C92.8752 174.195 74.9815 189.171 70.4934 209.211C62.6749 204.789 53.4859 203.45 44.7305 205.455C55.2692 216.001 67.7856 224.363 81.5623 230.061C95.339 235.76 110.105 238.683 125.014 238.664Z" fill="#C3ECEA"/>
<path d="M125.124 103.082C144.517 103.082 160.238 87.3611 160.238 67.968C160.238 48.5749 144.517 32.8536 125.124 32.8536C105.731 32.8536 90.0098 48.5749 90.0098 67.968C90.0098 87.3611 105.731 103.082 125.124 103.082Z" fill="url(#paint1_linear_242_94621)"/>
<path d="M107.955 66.0846C96.8232 65.6773 93.3452 59.8638 92.3201 55.4219C89.298 63.3518 89.2389 72.1058 92.1537 80.0758C107.011 96.3425 136.248 84.4959 134.983 71.8447C133.654 58.5516 126.121 66.7493 107.955 66.0846Z" fill="#13606C"/>
<path d="M107.955 66.0846C96.8231 65.6773 93.3451 59.8638 92.32 55.4219C90.8949 59.1479 90.1176 63.0901 90.0215 67.0782C90.1125 70.9115 90.8328 74.7038 92.1536 78.3035C106.352 93.8487 133.68 83.7188 134.972 71.7483C133.616 58.5948 126.076 66.7474 107.955 66.0846Z" fill="url(#paint2_linear_242_94621)"/>
<path d="M107.831 72.2871C106.905 72.2871 106.154 74.2709 106.154 76.7176C106.154 79.1644 106.904 81.1484 107.831 81.1484C108.757 81.1484 109.507 79.1646 109.507 76.7176C109.507 74.2706 108.756 72.2871 107.831 72.2871Z" fill="#26FFFF"/>
<path d="M96.4862 76.0505C97.2488 76.0505 97.867 74.0669 97.867 71.62C97.867 69.1731 97.2488 67.1895 96.4862 67.1895C95.7237 67.1895 95.1055 69.1731 95.1055 71.62C95.1055 74.0669 95.7237 76.0505 96.4862 76.0505Z" fill="#26FFFF"/>
<path d="M97.4838 89.6243C94.4487 88.788 91.2199 89.0026 88.3221 90.233C85.4242 91.4635 83.0275 93.6376 81.5213 96.4021C80.015 99.1667 79.4878 102.359 80.0251 105.461C80.5625 108.563 82.1329 111.393 84.4812 113.49C86.8296 115.586 89.8179 116.828 92.9608 117.012C96.1036 117.196 99.2164 116.312 101.793 114.503C104.371 112.695 106.26 110.068 107.156 107.05C108.052 104.032 107.901 100.8 106.728 97.8783C103.184 95.6936 100.054 92.8992 97.4838 89.6243Z" fill="#F1F1FC"/>
<path d="M125.123 103.082C120.438 103.088 115.799 102.153 111.482 100.333C107.165 98.5128 103.257 95.8446 99.9896 92.4865C93.6833 100.213 89.7871 110.842 89.7871 122.578C89.7871 146.193 105.558 165.336 125.012 165.336C144.467 165.336 160.238 146.193 160.238 122.578C160.238 110.905 156.382 100.327 150.135 92.6108C146.872 95.932 142.979 98.5688 138.684 100.367C134.389 102.165 129.779 103.088 125.123 103.082Z" fill="url(#paint3_linear_242_94621)"/>
<path d="M161.348 126.784C169.056 126.784 175.305 120.535 175.305 112.826C175.305 105.118 169.056 98.8691 161.348 98.8691C153.64 98.8691 147.391 105.118 147.391 112.826C147.391 120.535 153.64 126.784 161.348 126.784Z" fill="url(#paint4_linear_242_94621)"/>
<path d="M125.125 103.081C116.605 103.092 108.373 99.9938 101.975 94.3665C101.682 95.3994 101.532 96.468 101.531 97.5419C101.531 106.596 112.095 113.936 125.125 113.936C138.156 113.936 148.719 106.596 148.719 97.5419C148.718 96.468 148.569 95.3994 148.275 94.3665C141.878 99.9938 133.646 103.092 125.125 103.081Z" fill="url(#paint5_linear_242_94621)"/>
<path d="M103.837 95.8916C103.198 95.4041 102.577 94.8957 101.973 94.3665C101.68 95.3993 101.53 96.4679 101.529 97.5417C101.532 98.9958 101.804 100.437 102.332 101.792C102.225 99.7182 102.75 97.6609 103.837 95.8916Z" fill="#13606C"/>
<path d="M148.246 100.82C148.866 98.715 148.876 96.4771 148.275 94.3665C147.545 95.007 146.789 95.6168 146.006 96.1959C146.927 97.6469 147.678 99.1985 148.246 100.82Z" fill="#13606C"/>
<path d="M74.7005 142.068C70.8818 147.097 58.5848 156.096 54.3079 152.849C50.0309 149.602 55.3955 135.338 59.2135 130.31C63.0315 125.281 69.5933 123.837 73.8697 127.084C78.1462 130.331 78.5183 137.039 74.7005 142.068Z" fill="url(#paint6_linear_242_94621)"/>
<path d="M183.023 156.085C182.157 162.043 176.043 175.226 170.976 174.489C165.91 173.751 163.807 159.373 164.674 153.415C165.541 147.456 170.352 143.225 175.419 143.962C180.486 144.7 183.891 150.127 183.023 156.085Z" fill="url(#paint7_linear_242_94621)"/>
<path d="M168.022 125.088C166.835 125.736 165.558 126.207 164.234 126.485C166.109 130.809 169.711 139.052 171.97 144.218C173.087 143.884 174.264 143.797 175.418 143.963C175.718 144.007 176.014 144.068 176.307 144.145C174.215 139.308 170.16 129.946 168.022 125.088Z" fill="#00E7DD"/>
<path d="M87.1912 106.215C85.992 107.848 76.4901 121.258 72.8359 126.417C74.0338 127.069 75.0514 128.008 75.7977 129.15C79.2031 124.386 89.1678 110.435 90.4421 108.525C91.9825 106.215 88.6801 104.188 87.1912 106.215Z" fill="#00E7DD"/>
<path d="M135.535 170.873H114.271L116.153 163.784H133.654L135.535 170.873Z" fill="#009CC3"/>
<path d="M148.496 202.33C145.818 202.327 143.167 202.865 140.703 203.911C138.238 204.958 136.01 206.491 134.153 208.42L130.88 170.871H118.284L114.924 205.957C111.207 203.196 106.738 201.631 102.111 201.469C97.484 201.308 92.9171 202.557 89.0165 205.051C85.1159 207.545 82.0661 211.167 80.2719 215.435C78.4777 219.703 78.0238 224.416 78.9706 228.948C92.714 235.017 107.521 238.309 122.541 238.636C137.561 238.963 152.498 236.319 166.492 230.855C167.942 227.815 168.598 224.458 168.4 221.097C168.202 217.735 167.155 214.479 165.358 211.631C163.562 208.783 161.073 206.436 158.124 204.81C155.175 203.184 151.863 202.331 148.496 202.33Z" fill="white"/>
<path d="M135.537 214.959C131.757 214.954 128.072 216.142 125.006 218.353C127.607 217.879 130.281 217.983 132.838 218.657C135.395 219.331 137.773 220.559 139.802 222.253C141.832 223.948 143.465 226.068 144.584 228.464C145.704 230.86 146.283 233.472 146.281 236.116C146.281 236.304 146.278 236.491 146.273 236.678C148.701 236.218 151.1 235.683 153.472 235.072C153.766 232.543 153.521 229.981 152.753 227.554C151.986 225.127 150.713 222.89 149.019 220.99C147.325 219.09 145.248 217.571 142.924 216.531C140.601 215.492 138.083 214.956 135.538 214.959H135.537Z" fill="url(#paint8_linear_242_94621)"/>
</g>
<defs>
<linearGradient id="paint0_linear_242_94621" x1="11.3633" y1="125.014" x2="238.666" y2="125.014" gradientUnits="userSpaceOnUse">
<stop offset="0.001" stop-color="#3CD6CC"/>
<stop offset="0.999" stop-color="#008BA2"/>
</linearGradient>
<linearGradient id="paint1_linear_242_94621" x1="90.0098" y1="67.968" x2="160.239" y2="67.968" gradientUnits="userSpaceOnUse">
<stop offset="0.001" stop-color="#F6F8F5"/>
<stop offset="0.999" stop-color="#F1E7FC"/>
</linearGradient>
<linearGradient id="paint2_linear_242_94621" x1="90.0215" y1="70.8223" x2="134.972" y2="70.8223" gradientUnits="userSpaceOnUse">
<stop stop-color="#00ABC1"/>
<stop offset="1" stop-color="#008EA3"/>
</linearGradient>
<linearGradient id="paint3_linear_242_94621" x1="89.7871" y1="128.911" x2="160.238" y2="128.911" gradientUnits="userSpaceOnUse">
<stop offset="0.001" stop-color="#F6F8F5"/>
<stop offset="0.999" stop-color="#F1E7FC"/>
</linearGradient>
<linearGradient id="paint4_linear_242_94621" x1="147.391" y1="112.826" x2="175.305" y2="112.826" gradientUnits="userSpaceOnUse">
<stop offset="0.001" stop-color="#F6F8F5"/>
<stop offset="0.999" stop-color="#F1E7FC"/>
</linearGradient>
<linearGradient id="paint5_linear_242_94621" x1="101.531" y1="104.151" x2="148.72" y2="104.151" gradientUnits="userSpaceOnUse">
<stop stop-color="#00E9E4"/>
<stop offset="1" stop-color="#008CA1"/>
</linearGradient>
<linearGradient id="paint6_linear_242_94621" x1="73.1085" y1="127.771" x2="55.3007" y2="152.139" gradientUnits="userSpaceOnUse">
<stop offset="0.001" stop-color="#F6F8F5"/>
<stop offset="0.999" stop-color="#F1E7FC"/>
</linearGradient>
<linearGradient id="paint7_linear_242_94621" x1="175.099" y1="144.885" x2="171.477" y2="173.438" gradientUnits="userSpaceOnUse">
<stop offset="0.001" stop-color="#F6F8F5"/>
<stop offset="0.999" stop-color="#F1E7FC"/>
</linearGradient>
<linearGradient id="paint8_linear_242_94621" x1="147.702" y1="218.249" x2="138.175" y2="227.775" gradientUnits="userSpaceOnUse">
<stop offset="0.001" stop-color="white"/>
<stop offset="0.999" stop-color="#EBEBEB"/>
</linearGradient>
<clipPath id="clip0_242_94621">
<rect width="227.302" height="227.302" fill="white" transform="translate(11.3633 11.3623)"/>
</clipPath>
</defs>
</svg>
