<svg width="250" height="250" viewBox="0 0 250 250" fill="none" xmlns="http://www.w3.org/2000/svg">
<rect width="250" height="250" rx="125" fill="white"/>
<g clip-path="url(#clip0_242_94635)">
<path fill-rule="evenodd" clip-rule="evenodd" d="M230.123 124.318C228.146 103.686 220.027 84.1199 206.814 68.1497C208.56 66.2322 209.529 63.7329 209.531 61.1397C209.527 59.0963 208.931 57.0978 207.814 55.3867C206.697 53.6755 205.107 52.3253 203.238 51.4997C201.369 50.6741 199.3 50.4086 197.283 50.7354C195.266 51.0622 193.387 51.9673 191.874 53.3409C175.761 40.1838 156.107 32.1025 135.399 30.12C134.909 27.7294 133.607 25.5819 131.715 24.0409C129.822 22.5 127.456 21.6603 125.015 21.6641H124.972C122.541 21.6859 120.192 22.5423 118.317 24.0896C116.443 25.637 115.157 27.7814 114.675 30.1638C93.9484 32.1235 74.2741 40.2069 58.1567 53.3848C56.6411 52.0088 54.7582 51.1029 52.7371 50.7776C50.716 50.4523 48.6439 50.7214 46.773 51.5523C44.9022 52.3833 43.3131 53.7401 42.1994 55.4577C41.0856 57.1753 40.4952 59.1797 40.4999 61.2268C40.498 63.8208 41.4671 66.3215 43.2164 68.237C29.9849 84.3605 21.9231 103.638 19.9079 124.362C17.5027 124.821 15.3331 126.105 13.7734 127.993C12.2137 129.88 11.3616 132.253 11.3643 134.702C11.3643 134.731 11.3643 134.76 11.3643 134.79C11.3875 137.578 12.5176 140.244 14.5059 142.199C16.4942 144.155 19.1779 145.24 21.9666 145.217C23.5147 145.224 25.0452 144.889 26.4489 144.236C27.8525 143.583 29.0947 142.628 30.0866 141.439C31.0785 140.251 31.7957 138.858 32.187 137.36C32.5783 135.862 32.634 134.296 32.3502 132.774L61.2235 119.719C62.2392 121.006 63.5418 122.038 65.0272 122.732C66.5127 123.426 68.1398 123.763 69.7787 123.716C71.4176 123.669 73.0228 123.24 74.4662 122.462C75.9096 121.684 77.1511 120.58 78.0916 119.237L114.544 133.388C114.211 135.943 114.831 138.53 116.286 140.656C117.741 142.782 119.929 144.297 122.43 144.911V177.069C119.862 177.701 117.614 179.251 116.111 181.427C114.608 183.603 113.954 186.254 114.272 188.88C114.59 191.505 115.859 193.924 117.838 195.678C119.817 197.432 122.371 198.4 125.015 198.4C127.66 198.4 130.213 197.432 132.193 195.678C134.172 193.924 135.441 191.505 135.759 188.88C136.077 186.254 135.423 183.603 133.92 181.427C132.416 179.251 130.169 177.701 127.6 177.069V144.91C130.097 144.287 132.279 142.771 133.733 140.647C135.186 138.523 135.811 135.94 135.488 133.387L172.86 118.929C173.878 120.021 175.116 120.884 176.493 121.46C177.87 122.036 179.353 122.313 180.845 122.272C182.337 122.23 183.803 121.872 185.146 121.22C186.489 120.568 187.677 119.638 188.633 118.491L217.725 132.511C217.397 134.048 217.418 135.639 217.787 137.167C218.155 138.695 218.861 140.12 219.853 141.339C220.845 142.558 222.098 143.539 223.519 144.211C224.94 144.882 226.493 145.226 228.065 145.217C233.892 145.217 238.667 140.485 238.667 134.702C238.68 132.246 237.833 129.862 236.272 127.966C234.711 126.069 232.536 124.778 230.123 124.318ZM198.95 55.6849C199.665 55.6834 200.373 55.8227 201.034 56.0949C201.695 56.3671 202.296 56.7669 202.803 57.2713C203.309 57.7758 203.711 58.3751 203.986 59.035C204.261 59.6949 204.404 60.4025 204.405 61.1174C204.407 61.8323 204.267 62.5405 203.995 63.2016C203.723 63.8626 203.323 64.4636 202.819 64.9702C202.314 65.4767 201.715 65.879 201.055 66.1539C200.395 66.4289 199.688 66.5712 198.973 66.5727H198.929C197.485 66.5697 196.101 65.9932 195.083 64.9702C194.064 63.9471 193.493 62.5612 193.496 61.1174C193.499 59.6736 194.076 58.2901 195.099 57.2713C196.122 56.2525 197.508 55.6819 198.952 55.6849H198.95ZM135.136 35.2461C154.908 37.1717 173.656 44.9513 188.982 57.5899C188.588 58.7289 188.106 60.4814 188.544 63.154L158.172 75.1904L158.182 75.204H158.138L158.172 75.1904L132.946 39.1016C133.941 37.9862 134.688 36.672 135.136 35.2461ZM153.275 77.1313L134.128 84.7112C132.553 82.5068 130.208 80.9744 127.556 80.4174H127.6V42.3877L128.74 42.0372L153.275 77.1313ZM131.062 90.9325C131.041 92.4325 130.433 93.8645 129.368 94.9212C128.303 95.9779 126.866 96.575 125.366 96.5843V96.6282C124.24 96.6283 123.138 96.2942 122.202 95.6684C121.265 95.0426 120.535 94.153 120.104 93.1123C119.673 92.0715 119.56 90.9263 119.78 89.8214C119.999 88.7165 120.542 87.7016 121.338 86.905C122.135 86.1085 123.15 85.566 124.255 85.3462C125.36 85.1264 126.505 85.2392 127.546 85.6702C128.586 86.1013 129.476 86.8314 130.102 87.7681C130.728 88.7047 131.062 89.8059 131.062 90.9325ZM125.015 26.7025C126.097 26.6959 127.157 27.0106 128.06 27.6067C128.963 28.2028 129.669 29.0534 130.088 30.0509C130.507 31.0484 130.62 32.1479 130.414 33.21C130.208 34.2721 129.691 35.2491 128.929 36.0173C128.167 36.7854 127.194 37.3101 126.134 37.525C125.074 37.7398 123.973 37.6351 122.972 37.224C121.971 36.813 121.115 36.1142 120.512 35.2161C119.908 34.318 119.585 33.261 119.583 32.1791H119.539C119.539 30.7267 120.116 29.3337 121.143 28.3067C122.17 27.2796 123.563 26.7026 125.015 26.7025ZM121.379 42.0372C121.724 42.1698 122.074 42.2866 122.43 42.3877V80.5927C120.081 81.248 118.025 82.6854 116.603 84.6673H116.56L97.3696 76.9999L121.379 42.0372ZM114.894 35.2461C115.464 36.9111 116.209 38.2253 117.085 39.1893L92.506 75.0283L61.574 62.5856C61.7565 60.899 61.5619 59.193 61.0044 57.5908C76.3442 44.9462 95.108 37.1661 114.895 35.2461H114.894ZM51.102 55.7074C52.1764 55.7074 53.2267 56.026 54.1201 56.6229C55.0135 57.2199 55.7098 58.0683 56.121 59.061C56.5321 60.0536 56.6397 61.1459 56.4301 62.1998C56.2205 63.2536 55.7031 64.2215 54.9433 64.9813C54.1836 65.7411 53.2156 66.2584 52.1618 66.4681C51.108 66.6777 50.0157 66.5701 49.023 66.1589C48.0304 65.7477 47.1819 65.0514 46.585 64.1581C45.988 63.2647 45.6694 62.2144 45.6694 61.1399C45.6694 60.4265 45.81 59.72 46.083 59.0609C46.356 58.4018 46.7562 57.8029 47.2607 57.2985C47.7651 56.794 48.364 56.3939 49.0232 56.1209C49.6823 55.8479 50.3888 55.7074 51.1022 55.7074H51.102ZM21.967 140.091C20.8937 140.089 19.8451 139.768 18.9541 139.17C18.0632 138.571 17.3699 137.722 16.9621 136.729C16.5543 135.736 16.4503 134.644 16.6634 133.592C16.8765 132.541 17.397 131.575 18.159 130.82C18.921 130.064 19.8902 129.551 20.9439 129.346C21.9975 129.142 23.0882 129.254 24.0777 129.67C25.0673 130.086 25.9112 130.786 26.5025 131.682C27.0939 132.577 27.4061 133.629 27.3995 134.702C27.3881 136.135 26.8107 137.506 25.7931 138.515C24.7756 139.525 23.4003 140.091 21.967 140.091ZM69.4605 118.579C68.3891 118.568 67.3449 118.24 66.4598 117.636C65.5746 117.032 64.8882 116.18 64.4872 115.186C64.0862 114.193 63.9885 113.102 64.2065 112.053C64.4246 111.004 64.9485 110.043 65.7122 109.292C66.476 108.54 67.4452 108.032 68.4977 107.831C69.5501 107.63 70.6385 107.745 71.6255 108.162C72.6124 108.579 73.4537 109.279 74.0431 110.174C74.6325 111.069 74.9436 112.118 74.9371 113.19C74.9327 113.904 74.7874 114.609 74.5096 115.267C74.2317 115.925 73.8267 116.521 73.3179 117.021C72.8091 117.522 72.2064 117.917 71.5445 118.185C70.8825 118.452 70.1743 118.586 69.4605 118.579ZM73.0973 103.288C71.3524 102.649 69.4698 102.483 67.6397 102.805C65.8097 103.126 64.097 103.926 62.6747 105.121C61.2523 106.317 60.1707 107.867 59.539 109.614C58.9073 111.362 58.748 113.245 59.0771 115.074L30.2476 128.129C28.8886 126.478 27.0764 125.259 25.034 124.624C26.9722 104.91 34.8046 86.238 47.5101 71.0408C48.6645 71.4461 49.8791 71.6536 51.1026 71.6545L51.1465 71.6984C55.002 71.6984 58.1567 69.5076 59.6463 67.4046L89.5268 79.4096L73.0973 103.288ZM78.0478 107.013L77.3906 106.136H77.3468L94.4338 81.2944L114.632 89.3997C114.495 90.4175 114.495 91.449 114.632 92.4667L78.0478 107.013ZM116.384 128.569L79.9755 114.46C80.0916 113.544 80.0916 112.616 79.9755 111.7L116.56 97.1978C117.999 99.1816 120.069 100.618 122.431 101.272V124.45C119.984 125.046 117.835 126.509 116.384 128.568V128.569ZM130.711 187.541C130.707 188.284 130.557 189.018 130.268 189.703C129.979 190.387 129.558 191.008 129.029 191.529C128.5 192.05 127.873 192.461 127.184 192.739C126.495 193.017 125.758 193.156 125.015 193.149C123.898 193.14 122.807 192.8 121.883 192.172C120.958 191.544 120.24 190.655 119.821 189.619C119.401 188.583 119.298 187.446 119.524 186.351C119.751 185.257 120.297 184.254 121.093 183.469C121.89 182.685 122.901 182.154 123.999 181.945C125.097 181.735 126.233 181.856 127.262 182.292C128.292 182.727 129.169 183.459 129.783 184.393C130.397 185.327 130.72 186.422 130.711 187.54V187.541ZM125.015 140.091C123.946 140.086 122.901 139.765 122.014 139.167C121.127 138.569 120.437 137.721 120.032 136.731C119.626 135.741 119.524 134.653 119.737 133.604C119.95 132.556 120.469 131.594 121.228 130.841C121.988 130.087 122.954 129.576 124.004 129.371C125.054 129.167 126.141 129.278 127.128 129.691C128.115 130.105 128.957 130.801 129.548 131.693C130.139 132.585 130.452 133.632 130.448 134.702C130.439 136.136 129.862 137.508 128.844 138.518C127.826 139.528 126.45 140.093 125.015 140.091ZM133.647 128.568C132.194 126.511 130.047 125.048 127.6 124.45V101.448C130.202 100.882 132.507 99.3872 134.085 97.2426L169.968 111.613C169.953 112.545 170.071 113.475 170.318 114.373L133.647 128.568ZM171.282 106.661L136.056 92.5108C136.215 91.5094 136.215 90.4892 136.056 89.4877L156.298 81.4699L172.596 104.822C172.089 105.383 171.648 106 171.282 106.661ZM180.57 117.177C179.496 117.177 178.446 116.858 177.552 116.261C176.659 115.664 175.963 114.816 175.551 113.823C175.14 112.83 175.033 111.738 175.242 110.684C175.452 109.63 175.969 108.662 176.729 107.903C177.489 107.143 178.457 106.626 179.511 106.416C180.564 106.206 181.657 106.314 182.649 106.725C183.642 107.136 184.491 107.833 185.087 108.726C185.684 109.619 186.003 110.67 186.003 111.744C186.003 113.185 185.431 114.567 184.412 115.585C183.393 116.604 182.011 117.177 180.57 117.177ZM219.958 127.867L190.955 113.847C191.344 111.992 191.226 110.067 190.612 108.274C189.997 106.482 188.91 104.888 187.464 103.663C186.019 102.438 184.269 101.625 182.4 101.313C180.531 101 178.613 101.198 176.847 101.886L161.205 79.4964L190.735 67.7983C195.467 73.2749 201.382 71.4785 202.521 71.0405C215.219 86.226 223.05 104.882 224.997 124.581C223.034 125.165 221.284 126.306 219.958 127.867ZM228.064 140.091C225.084 140.091 222.587 137.682 222.587 134.702C222.569 133.615 222.876 132.547 223.467 131.634C224.058 130.722 224.907 130.006 225.907 129.578C226.906 129.15 228.01 129.028 229.079 129.23C230.147 129.431 231.132 129.946 231.907 130.708C232.682 131.471 233.212 132.447 233.431 133.512C233.649 134.577 233.546 135.683 233.134 136.689C232.722 137.695 232.019 138.556 231.117 139.162C230.214 139.768 229.151 140.091 228.064 140.091Z" fill="#282FAF"/>
</g>
<defs>
<clipPath id="clip0_242_94635">
<rect width="227.302" height="227.302" fill="white" transform="translate(11.3643 11.3623)"/>
</clipPath>
</defs>
</svg>
