<svg width="250" height="250" viewBox="0 0 250 250" fill="none" xmlns="http://www.w3.org/2000/svg">
<g clip-path="url(#clip0_242_94256)">
<path fill-rule="evenodd" clip-rule="evenodd" d="M249.998 125C249.998 194.036 194.034 250 124.998 250C55.9621 250 -0.00195312 194.036 -0.00195312 125C-0.00195312 55.9641 55.9621 0 124.998 0C194.034 0 249.998 55.9641 249.998 125Z" fill="black"/>
<path fill-rule="evenodd" clip-rule="evenodd" d="M50.7588 97.5264H58.0868V130.269C58.0868 136.046 59.1338 140.203 61.2277 142.742C63.3216 145.281 66.7153 146.551 71.408 146.551C76.0765 146.551 79.4584 145.281 81.5523 142.742C83.6462 140.203 84.6932 136.046 84.6932 130.269V97.5264H92.0212V131.172C92.0212 138.2 90.2823 143.506 86.8051 147.092C83.3272 150.678 78.1953 152.471 71.408 152.471C64.5965 152.471 59.4522 150.678 55.9749 147.092C52.497 143.506 50.7588 138.2 50.7588 131.172V97.5264Z" fill="#BEF400"/>
<path fill-rule="evenodd" clip-rule="evenodd" d="M105.702 97.5264H115.521L139.42 142.615V97.5264H146.496V151.424H136.676L112.777 106.335V151.424H105.702V97.5264Z" fill="#BEF400"/>
<path fill-rule="evenodd" clip-rule="evenodd" d="M168.299 125.685V145.432H179.995C183.918 145.432 186.824 144.62 188.713 142.995C190.602 141.37 191.548 138.885 191.548 135.54C191.548 132.171 190.602 129.686 188.713 128.085C186.824 126.486 183.918 125.685 179.995 125.685H168.299ZM168.299 103.519V119.764H179.093C182.655 119.764 185.308 119.096 187.053 117.76C188.798 116.425 189.671 114.385 189.671 111.642C189.671 108.923 188.798 106.889 187.053 105.541C185.308 104.193 182.655 103.519 179.093 103.519H168.299ZM161.007 97.5264H179.635C185.194 97.5264 189.477 98.6817 192.486 100.992C195.494 103.303 196.999 106.588 196.999 110.847C196.999 114.145 196.229 116.768 194.688 118.717C193.148 120.667 190.885 121.883 187.901 122.363C191.487 123.134 194.273 124.74 196.258 127.183C198.244 129.626 199.237 132.676 199.237 136.334C199.237 141.148 197.6 144.866 194.327 147.489C191.054 150.113 186.396 151.424 180.356 151.424H161.007V97.5264Z" fill="#BEF400"/>
</g>
<defs>
<clipPath id="clip0_242_94256">
<rect width="250" height="250" rx="125" fill="white"/>
</clipPath>
</defs>
</svg>
