<svg width="250" height="250" viewBox="0 0 250 250" fill="none" xmlns="http://www.w3.org/2000/svg">
<rect width="250" height="250" rx="125" fill="white"/>
<path d="M132.915 212.738H104.985H77.0547L37.4697 173.153V145.223V117.293L77.0547 77.7078H104.985H132.915L172.5 117.293V145.223V173.153L132.915 212.738ZM104.775 196.078H125.81L155.84 166.258V145.223V124.188L126.02 94.1578H104.985H83.9497L53.9197 124.153V145.188V166.223L83.7397 196.043H104.775V196.078Z" fill="black"/>
<path d="M172.744 172.73H144.814H116.884L77.2637 133.11V105.18V77.25L116.884 37.665H144.814H172.744L212.329 77.25V105.18V133.11L172.744 172.73ZM144.814 156.035H165.849L195.669 126.215V105.18V84.145L165.849 54.115H144.814H123.779L93.7837 83.935V104.97V126.005L123.604 155.825L144.814 156.035Z" fill="#38F997"/>
</svg>
