<svg width="250" height="250" viewBox="0 0 250 250" fill="none" xmlns="http://www.w3.org/2000/svg">
<rect width="250" height="250" rx="125" fill="white"/>
<path d="M211.8 53.7551C211.8 66.8734 198.866 77.5082 182.912 77.5082C166.957 77.5082 154.023 66.8734 154.023 53.7551C154.023 40.6367 166.957 30.002 182.912 30.002C198.866 30.002 211.8 40.6365 211.8 53.7551ZM133.986 204.524C124.256 214.859 107.328 220.027 83.2025 220.027C70.6334 220.027 59.7875 216.943 50.6647 210.775C41.542 204.441 36.9806 196.774 36.9805 187.773C36.9805 182.771 37.2845 179.021 37.8926 176.522L58.267 87.5094L119.998 82.5089L97.799 179.021C96.9882 182.689 96.5828 185.606 96.5828 187.773C96.5828 197.44 100.131 202.274 107.226 202.274C115.132 202.274 121.924 197.857 127.6 189.023C129.424 186.189 130.742 182.939 131.553 179.271L153.144 87.5094L213.05 82.5089L190.548 180.022C189.935 182.56 189.629 185.162 189.636 187.773C189.636 190.439 190.548 193.273 192.372 196.273C194.196 199.107 198.048 200.858 203.928 201.524C202.711 205.525 199.974 208.859 195.717 211.526C186.797 217.193 177.471 220.027 167.74 220.027C158.212 220.027 150.61 218.61 144.933 215.776C139.257 212.943 135.608 209.192 133.986 204.524Z" fill="url(#paint0_linear_242_94623)"/>
<defs>
<linearGradient id="paint0_linear_242_94623" x1="-319.687" y1="125.014" x2="216.856" y2="125.014" gradientUnits="userSpaceOnUse">
<stop/>
<stop offset="1"/>
</linearGradient>
</defs>
</svg>
