<svg width="250" height="250" viewBox="0 0 250 250" fill="none" xmlns="http://www.w3.org/2000/svg">
<g clip-path="url(#clip0_242_94043)">
<mask id="mask0_242_94043" style="mask-type:luminance" maskUnits="userSpaceOnUse" x="0" y="0" width="251" height="251">
<path d="M250.004 0.00683594H0.00390625V250.007H250.004V0.00683594Z" fill="white"/>
</mask>
<g mask="url(#mask0_242_94043)">
<path d="M250.004 125.004C250.004 55.9688 194.04 0.00439453 125.004 0.00439453C55.9683 0.00439453 0.00390625 55.9688 0.00390625 125.004C0.00390625 194.04 55.9683 250.004 125.004 250.004C194.04 250.004 250.004 194.04 250.004 125.004Z" fill="white"/>
<path d="M116.804 140.397C116.804 140.397 181.169 221.442 182.563 223.152C183.621 224.427 185.166 225.147 185.833 224.764C187.981 223.534 189.605 222.665 189.921 221.835C190.089 221.363 190.145 220.859 190.085 220.362C190.025 219.865 189.851 219.388 189.576 218.969L45.7715 39.6873C45.7715 39.6873 197.104 214.607 204.44 221.816C197.837 227.218 190.699 231.93 183.138 235.879L182.563 236.049C173.789 226.468 116.804 140.397 116.804 140.397Z" fill="#FF007A"/>
<path d="M75.0039 181.466V200.008L97.9209 167.716L75.0039 181.466Z" fill="#3B3735"/>
<path d="M97.0879 161.677L75.0039 125.01V151.677L97.0879 161.677Z" fill="#3B3735"/>
<path d="M75.0039 153.754V176.462L96.8789 163.754L75.0039 153.754Z" fill="#1F1D19"/>
<path d="M50.8359 161.677L72.9189 125.01V151.677L50.8359 161.677Z" fill="#959190"/>
<path d="M72.918 153.754V176.462L51.043 163.754L72.918 153.754Z" fill="#403C3A"/>
<path d="M72.9209 181.466V200.008L50.0039 167.716L72.9209 181.466Z" fill="#959190"/>
<path d="M171.253 125.005C192.194 125.005 209.17 108.216 209.17 87.5054C209.17 66.7947 192.194 50.0054 171.253 50.0054C150.312 50.0054 133.336 66.7947 133.336 87.5054C133.336 108.216 150.312 125.005 171.253 125.005Z" fill="#1E1A31"/>
<path fill-rule="evenodd" clip-rule="evenodd" d="M165.806 85.0461C166.301 85.0461 166.775 85.2427 167.125 85.5925C167.475 85.9423 167.671 86.4167 167.671 86.9114C167.671 87.4061 167.475 87.8805 167.125 88.2303C166.775 88.5801 166.301 88.7766 165.806 88.7766H161.03C158.794 88.7611 156.656 87.8579 155.085 86.2657C153.515 84.6735 152.641 82.5227 152.656 80.2864C152.641 78.0501 153.515 75.8992 155.085 74.307C156.656 72.7148 158.794 71.8116 161.03 71.7961H173.345C173.836 71.8003 174.305 71.9989 174.65 72.3486C174.995 72.6982 175.187 73.1703 175.185 73.6614C175.187 74.1525 174.995 74.6246 174.65 74.9742C174.305 75.3238 173.836 75.5225 173.345 75.5266H161.03C159.785 75.5518 158.599 76.0644 157.727 76.9543C156.855 77.8442 156.366 79.0404 156.366 80.2864C156.366 81.5323 156.855 82.7286 157.727 83.6185C158.599 84.5083 159.785 85.0209 161.03 85.0461H165.806Z" fill="white"/>
<path fill-rule="evenodd" clip-rule="evenodd" d="M162.036 88.7769C161.541 88.7769 161.067 88.5803 160.717 88.2305C160.367 87.8807 160.171 87.4063 160.171 86.9116C160.171 86.4169 160.367 85.9425 160.717 85.5927C161.067 85.2429 161.541 85.0464 162.036 85.0464H166.811C169.048 85.0619 171.186 85.9651 172.757 87.5573C174.327 89.1495 175.201 91.3003 175.185 93.5366C175.201 95.7729 174.327 97.9238 172.757 99.516C171.186 101.108 169.048 102.011 166.811 102.027H154.497C154.006 102.023 153.536 101.824 153.191 101.474C152.847 101.125 152.654 100.653 152.657 100.162C152.654 99.6705 152.847 99.1984 153.191 98.8488C153.536 98.4992 154.006 98.3005 154.497 98.2964H166.811C168.057 98.2712 169.243 97.7586 170.115 96.8687C170.987 95.9788 171.476 94.7825 171.476 93.5366C171.476 92.2907 170.987 91.0944 170.115 90.2045C169.243 89.3147 168.057 88.8021 166.811 88.7769H162.036Z" fill="white"/>
<path fill-rule="evenodd" clip-rule="evenodd" d="M155.951 101.276L152.957 99.1028L171.771 72.4875L174.761 74.6604L155.951 101.276Z" fill="white" fill-opacity="0.5"/>
<path d="M185.652 94.7161V99.5217H188.906V93.8821H190.917V102.025H178.77V93.8987H180.797V99.5217H183.691V94.7161H185.652ZM180.797 83.1028V86.8235H190.917V89.3293H180.797V92.9973H178.77V83.1028H180.797ZM190.917 71.7903V74.2903H185.711V79.1731H190.917V81.676H178.77V79.1731H183.691V74.2903H178.77V71.7903H190.917Z" fill="white"/>
</g>
</g>
<defs>
<clipPath id="clip0_242_94043">
<rect width="250" height="250" rx="125" fill="white"/>
</clipPath>
</defs>
</svg>
