<svg width="250" height="250" viewBox="0 0 250 250" fill="none" xmlns="http://www.w3.org/2000/svg">
<g clip-path="url(#clip0_242_94049)">
<mask id="mask0_242_94049" style="mask-type:luminance" maskUnits="userSpaceOnUse" x="0" y="0" width="251" height="251">
<path d="M250.002 0.00683594H0.00195312V250.007H250.002V0.00683594Z" fill="white"/>
</mask>
<g mask="url(#mask0_242_94049)">
<path d="M250.002 125.004C250.002 55.9688 194.038 0.00439453 125.002 0.00439453C55.9664 0.00439453 0.00195313 55.9688 0.00195313 125.004C0.00195313 194.04 55.9664 250.004 125.002 250.004C194.038 250.004 250.002 194.04 250.002 125.004Z" fill="white"/>
<path d="M116.802 140.396C116.802 140.396 181.167 221.441 182.562 223.151C183.619 224.427 185.164 225.146 185.831 224.763C187.979 223.533 189.603 222.664 189.919 221.834C190.087 221.362 190.143 220.858 190.083 220.361C190.023 219.864 189.849 219.387 189.574 218.969L45.7695 39.6863C45.7695 39.6863 197.102 214.606 204.438 221.815C197.835 227.217 190.697 231.929 183.136 235.878L182.562 236.048C173.787 226.467 116.802 140.396 116.802 140.396Z" fill="#FF007A"/>
<path d="M75.002 181.466V200.008L97.919 167.716L75.002 181.466Z" fill="#3B3735"/>
<path d="M97.0859 161.677L75.002 125.01V151.677L97.0859 161.677Z" fill="#3B3735"/>
<path d="M75.002 153.754V176.462L96.877 163.754L75.002 153.754Z" fill="#1F1D19"/>
<path d="M50.832 161.677L72.915 125.01V151.677L50.832 161.677Z" fill="#959190"/>
<path d="M72.9141 153.754V176.462L51.0391 163.754L72.9141 153.754Z" fill="#403C3A"/>
<path d="M72.917 181.466V200.008L50 167.716L72.917 181.466Z" fill="#959190"/>
<path d="M161.676 125.005C169.093 125.005 176.343 122.806 182.51 118.685C188.677 114.565 193.483 108.708 196.321 101.856C199.16 95.0035 199.902 87.4635 198.455 80.1893C197.008 72.915 193.437 66.2331 188.192 60.9886C182.948 55.7442 176.266 52.1726 168.992 50.7257C161.717 49.2788 154.177 50.0214 147.325 52.8597C140.473 55.6979 134.616 60.5044 130.496 66.6713C126.375 72.8381 124.176 80.0883 124.176 87.5051C124.164 92.433 125.126 97.3147 127.006 101.87C128.887 106.425 131.648 110.564 135.133 114.048C138.618 117.533 142.756 120.294 147.311 122.175C151.866 124.055 156.748 125.017 161.676 125.005Z" fill="#2775CA"/>
<path d="M171.988 93.4431C171.988 87.9744 168.706 86.0993 162.144 85.3181C157.456 84.6931 156.518 83.4431 156.518 81.2556C156.518 79.0681 158.08 77.6619 161.205 77.6619C164.018 77.6619 165.58 78.5994 166.362 80.9431C166.442 81.1698 166.59 81.3664 166.785 81.5061C166.981 81.6459 167.215 81.7221 167.455 81.7244H169.955C170.1 81.7278 170.244 81.7019 170.378 81.6482C170.512 81.5944 170.634 81.5141 170.737 81.4118C170.839 81.3095 170.919 81.1875 170.973 81.0533C171.027 80.919 171.053 80.7752 171.049 80.6306V80.4744C170.746 78.7815 169.892 77.2361 168.621 76.0778C167.35 74.9195 165.732 74.2131 164.018 74.0681V70.3181C164.018 69.6931 163.549 69.2244 162.769 69.0681H160.425C159.8 69.0681 159.331 69.5369 159.175 70.3181V73.9119C154.488 74.5378 151.519 77.6619 151.519 81.5681C151.519 86.7244 154.644 88.7556 161.206 89.5369C165.581 90.3181 166.988 91.2556 166.988 93.7556C166.988 96.2556 164.8 97.9744 161.831 97.9744C157.769 97.9744 156.363 96.2546 155.893 93.9109C155.846 93.6527 155.712 93.4184 155.513 93.2477C155.314 93.0769 155.061 92.98 154.799 92.9734H152.143C151.998 92.9698 151.854 92.9956 151.72 93.0493C151.586 93.103 151.464 93.1834 151.361 93.2857C151.259 93.388 151.179 93.51 151.125 93.6443C151.071 93.7787 151.046 93.9225 151.049 94.0672V94.2234C151.674 98.1296 154.174 100.942 159.329 101.723V105.473C159.329 106.098 159.798 106.567 160.579 106.723H162.923C163.548 106.723 164.017 106.256 164.173 105.473V101.723C168.864 100.943 171.988 97.6619 171.988 93.4431Z" fill="white"/>
<path d="M153.706 109.85C149.209 108.201 145.327 105.212 142.585 101.285C139.843 97.3593 138.372 92.6856 138.372 87.8964C138.372 83.1073 139.843 78.4337 142.585 74.5074C145.327 70.5812 149.209 67.5918 153.706 65.9433C154.005 65.813 154.257 65.5923 154.425 65.3122C154.593 65.0321 154.669 64.7065 154.643 64.3808V62.1933C154.665 61.9068 154.581 61.6223 154.409 61.3924C154.237 61.1626 153.987 61.003 153.706 60.9433C153.486 60.9203 153.264 60.9756 153.081 61.0996C147.392 62.9072 142.426 66.4783 138.902 71.2958C135.378 76.1134 133.479 81.9275 133.479 87.8964C133.479 93.8654 135.378 99.6795 138.902 104.497C142.426 109.315 147.392 112.886 153.081 114.693C153.211 114.769 153.357 114.812 153.507 114.82C153.656 114.828 153.806 114.801 153.943 114.74C154.081 114.679 154.201 114.586 154.296 114.469C154.39 114.353 154.456 114.215 154.487 114.068C154.643 113.912 154.643 113.756 154.643 113.443V111.256C154.594 110.969 154.485 110.696 154.324 110.453C154.162 110.211 153.952 110.005 153.706 109.85ZM170.268 61.0996C170.138 61.0242 169.992 60.9808 169.843 60.9727C169.693 60.9647 169.543 60.9923 169.406 61.0533C169.268 61.1142 169.148 61.2069 169.053 61.3236C168.959 61.4403 168.893 61.5777 168.862 61.7246C168.706 61.8808 168.706 62.0371 168.706 62.3496V64.5371C168.733 64.8518 168.831 65.1561 168.994 65.4269C169.156 65.6977 169.378 65.9278 169.643 66.0996C174.14 67.748 178.022 70.7374 180.764 74.6637C183.506 78.5899 184.977 83.2635 184.977 88.0527C184.977 92.8419 183.506 97.5155 180.764 101.442C178.022 105.368 174.14 108.357 169.643 110.006C169.344 110.136 169.092 110.357 168.924 110.637C168.756 110.917 168.68 111.243 168.706 111.568V113.756C168.684 114.042 168.767 114.327 168.94 114.557C169.112 114.787 169.362 114.946 169.643 115.006C169.863 115.029 170.085 114.974 170.268 114.851C175.954 113.017 180.912 109.428 184.429 104.598C187.945 99.7692 189.84 93.9491 189.84 87.9751C189.84 82.001 187.945 76.1809 184.429 71.3517C180.912 66.5225 175.954 62.933 170.268 61.0996Z" fill="white"/>
</g>
</g>
<defs>
<clipPath id="clip0_242_94049">
<rect width="250" height="250" rx="125" fill="white"/>
</clipPath>
</defs>
</svg>
