<svg width="250" height="250" viewBox="0 0 250 250" fill="none" xmlns="http://www.w3.org/2000/svg">
<mask id="mask0_242_94255" style="mask-type:alpha" maskUnits="userSpaceOnUse" x="126" y="44" width="87" height="138">
<path d="M201.739 77.6299L141.979 44.1204L126.023 67.14L203.509 181.869C209.118 177.974 212.498 171.661 212.498 164.872V95.7349C212.498 88.2656 208.398 81.3648 201.739 77.6299Z" fill="white"/>
</mask>
<g mask="url(#mask0_242_94255)">
<path fill-rule="evenodd" clip-rule="evenodd" d="M201.739 77.628L141.979 44.1184L126.023 67.138L203.509 181.867C209.118 177.972 212.498 171.659 212.498 164.87V95.7329C212.498 88.2636 208.398 81.3628 201.739 77.628Z" fill="url(#paint0_linear_242_94255)"/>
</g>
<mask id="mask1_242_94255" style="mask-type:alpha" maskUnits="userSpaceOnUse" x="146" y="153" width="58" height="60">
<path d="M186.676 156.951L151.72 153.425C148.67 153.119 146.016 155.445 146.016 158.422V209.372C146.016 211.528 148.42 212.878 150.341 211.8L201.735 182.982C202.345 182.637 202.935 182.267 203.506 181.874C203.506 181.869 186.676 156.951 186.676 156.951Z" fill="white"/>
</mask>
<g mask="url(#mask1_242_94255)">
<path fill-rule="evenodd" clip-rule="evenodd" d="M186.677 156.949L151.722 153.423C148.672 153.117 146.018 155.444 146.018 158.42V209.37C146.018 211.526 148.422 212.876 150.343 211.798L201.737 182.98C202.347 182.635 202.937 182.265 203.508 181.872C203.508 181.867 186.677 156.949 186.677 156.949Z" fill="url(#paint1_linear_242_94255)"/>
</g>
<mask id="mask2_242_94255" style="mask-type:alpha" maskUnits="userSpaceOnUse" x="37" y="37" width="105" height="145">
<path d="M135.761 40.6309C129.101 36.8965 120.891 36.8965 114.231 40.6309L48.2612 77.6275C41.5961 81.3624 37.4961 88.2632 37.4961 95.7325V164.869C37.4961 171.654 40.8763 177.967 46.4862 181.866L141.976 44.1179L135.761 40.6309Z" fill="white"/>
</mask>
<g mask="url(#mask2_242_94255)">
<path fill-rule="evenodd" clip-rule="evenodd" d="M135.763 40.6309C129.103 36.8965 120.893 36.8965 114.233 40.6309L48.2631 77.6275C41.598 81.3624 37.498 88.2632 37.498 95.7325V164.869C37.498 171.654 40.8782 177.967 46.4881 181.866L141.978 44.1179L135.763 40.6309Z" fill="url(#paint2_linear_242_94255)"/>
</g>
<mask id="mask3_242_94255" style="mask-type:alpha" maskUnits="userSpaceOnUse" x="46" y="153" width="59" height="59">
<path d="M48.2633 182.979L99.8732 211.539C101.793 212.608 104.183 211.258 104.183 209.106V158.41C104.183 155.438 101.538 153.111 98.4883 153.412L63.8279 156.856L46.4883 181.866C47.0581 182.264 47.6482 182.634 48.2633 182.979Z" fill="white"/>
</mask>
<g mask="url(#mask3_242_94255)">
<path fill-rule="evenodd" clip-rule="evenodd" d="M48.2633 182.979L99.8732 211.539C101.793 212.608 104.183 211.258 104.183 209.106V158.41C104.183 155.438 101.538 153.111 98.4883 153.412L63.8279 156.856L46.4883 181.866C47.0581 182.264 47.6482 182.634 48.2633 182.979Z" fill="url(#paint3_linear_242_94255)"/>
</g>
<defs>
<linearGradient id="paint0_linear_242_94255" x1="148.803" y1="98.5765" x2="194.889" y2="110.571" gradientUnits="userSpaceOnUse">
<stop stop-color="#235FAB"/>
<stop offset="1" stop-color="#15B09E"/>
</linearGradient>
<linearGradient id="paint1_linear_242_94255" x1="146.017" y1="182.787" x2="203.507" y2="182.787" gradientUnits="userSpaceOnUse">
<stop stop-color="#235FAB"/>
<stop offset="1" stop-color="#15B09E"/>
</linearGradient>
<linearGradient id="paint2_linear_242_94255" x1="37.498" y1="109.848" x2="141.978" y2="109.848" gradientUnits="userSpaceOnUse">
<stop stop-color="#235FAB"/>
<stop offset="1" stop-color="#15B09E"/>
</linearGradient>
<linearGradient id="paint3_linear_242_94255" x1="46.4883" y1="182.65" x2="104.183" y2="182.65" gradientUnits="userSpaceOnUse">
<stop stop-color="#235FAB"/>
<stop offset="1" stop-color="#15B09E"/>
</linearGradient>
</defs>
</svg>
