<svg width="250" height="250" viewBox="0 0 250 250" fill="none" xmlns="http://www.w3.org/2000/svg">
<rect width="250" height="250" rx="125" fill="white"/>
<g clip-path="url(#clip0_242_94632)">
<path d="M96.9972 205.602C97.1587 193.431 98.0696 181.281 99.7248 169.221C101.021 162.347 104.994 156.269 110.772 152.324C116.549 148.38 123.656 146.892 130.531 148.187C130.722 148.223 130.913 148.261 131.103 148.301H132.922C145.655 151.029 157.024 150.574 165.21 139.661C173.396 128.747 173.396 116.013 168.392 103.734C164.249 94.2159 157.003 86.3821 147.837 81.5098C138.67 76.6374 128.124 75.0139 117.916 76.9039C107.87 78.7781 98.7734 84.0479 92.15 91.8304C85.5266 99.6129 81.779 109.435 81.5351 119.652V194.688C81.7118 218.799 62.3092 238.487 38.1988 238.665C35.3448 238.686 32.4955 238.427 29.692 237.892C29.2223 237.385 28.9069 236.754 28.7828 236.074C28.7828 188.778 26.9644 141.937 28.7828 94.6419C30.6012 47.3464 74.7136 12.3275 122.009 11.4179C175.346 9.62764 220.083 51.3147 222.057 104.645V111.466C219.937 162.903 178.466 203.979 127.012 205.602H96.9972ZM161.574 46.8898C161.574 36.4302 155.662 28.2444 147.476 27.7898C139.29 27.3352 130.65 37.7945 130.195 49.6183C129.74 61.4421 136.107 67.3543 145.202 67.3543C154.297 67.3543 161.119 59.1682 161.574 46.8898ZM123.373 50.9824C123.373 39.6134 115.642 28.2442 107.002 28.2442C98.3614 28.2442 91.9947 36.43 91.5399 45.9801C91.085 55.5302 99.2709 67.8087 108.821 67.3538C118.371 66.899 123.373 60.5325 123.373 50.9824ZM59.2513 63.261C58.8651 68.1859 60.4021 73.0689 63.5395 76.8848C66.6769 80.7006 71.1707 83.1524 76.0774 83.7255C86.0821 84.1801 89.7203 78.723 90.6297 70.0826C91.5392 61.4421 83.8089 49.1628 74.259 48.7082C64.7091 48.2536 60.6161 54.6201 58.7969 62.8057L59.2513 63.261ZM194.771 67.8087C193.862 60.0776 190.223 53.2563 180.673 52.3466C171.123 51.437 162.483 62.3516 162.483 72.3563C162.235 76.3287 163.575 80.237 166.208 83.2213C168.842 86.2057 172.553 88.0216 176.525 88.2697L176.58 88.2732H177.944C186.585 88.2732 194.316 79.1779 194.316 67.8087H194.771Z" fill="#FD774E"/>
</g>
<defs>
<clipPath id="clip0_242_94632">
<rect width="227.302" height="227.302" fill="white" transform="translate(11.3652 11.3625)"/>
</clipPath>
</defs>
</svg>
