<svg width="250" height="250" viewBox="0 0 250 250" fill="none" xmlns="http://www.w3.org/2000/svg">
<g clip-path="url(#clip0_242_94775)">
<path d="M124.999 249.997C194.035 249.997 249.999 194.033 249.999 124.997C249.999 55.9615 194.035 -0.00292969 124.999 -0.00292969C55.9634 -0.00292969 -0.000976562 55.9615 -0.000976562 124.997C-0.000976562 194.033 55.9634 249.997 124.999 249.997Z" fill="#EDF0F4"/>
<path d="M103.895 64.7502C104.002 64.7932 104.067 64.8787 104.045 64.9857C104.045 65.1992 104.045 65.3917 104.045 65.6057V141.107C104.045 141.363 104.024 141.598 104.024 141.855C104.131 142.069 104.323 141.962 104.451 141.962C118.008 141.962 131.564 141.962 145.142 141.983C145.569 141.983 145.762 141.876 145.698 141.427C145.698 141.278 145.698 141.149 145.698 141C145.698 115.854 145.698 90.7297 145.698 65.5842C145.698 65.3277 145.548 64.9857 145.869 64.7932C145.976 64.7077 146.147 64.7292 146.232 64.8357C146.232 64.8357 146.232 64.8572 146.254 64.8572C146.361 65.0072 146.468 65.1567 146.553 65.3277C148.093 68.3852 149.675 71.4642 151.193 74.5222C152.455 77.0882 153.738 79.6537 154.999 82.1982C156.41 85.0207 157.843 87.8647 159.254 90.6872C160.537 93.2317 161.799 95.7977 163.06 98.3422C164.193 100.651 165.369 102.918 166.481 105.227C166.652 105.569 166.909 105.847 167.016 106.211C167.08 106.638 167.08 107.087 167.059 107.515V181.07C167.059 181.284 167.059 181.476 167.059 181.69C167.059 182.503 167.059 182.503 167.85 182.652C167.957 182.674 168.042 182.716 168.128 182.802C167.593 183.059 167.037 183.144 166.46 183.272C163.937 183.871 161.392 184.256 158.805 184.448C157.608 184.534 156.41 184.555 155.213 184.577C149.033 184.684 142.833 184.641 136.653 184.641C125.919 184.641 115.164 184.641 104.409 184.619C104.195 184.619 103.96 184.684 103.746 184.555C103.81 184.513 103.874 184.448 103.96 184.427C104.344 184.341 104.729 184.32 105.136 184.341H144.458C144.8 184.363 145.163 184.341 145.505 184.299C145.826 184.149 145.698 183.871 145.719 183.636C145.719 174.912 145.719 166.167 145.719 157.443V143.779C145.698 143.501 145.719 143.223 145.741 142.945C145.42 143.95 144.885 144.891 144.415 145.853C142.683 149.467 140.994 153.102 139.262 156.737C138.321 158.726 137.38 160.693 136.439 162.681C136.311 162.959 136.183 163.259 135.883 163.408C135.584 163.494 135.263 163.515 134.964 163.494H114.736C114.458 163.515 114.202 163.494 113.924 163.43C113.517 163.301 113.389 162.938 113.239 162.596C112.063 160.094 110.866 157.592 109.69 155.069C108.407 152.354 107.124 149.659 105.841 146.944C105.221 145.661 104.644 144.357 103.96 143.01C103.96 143.373 103.96 143.672 103.96 143.972C103.96 157.1 103.96 170.208 103.96 183.337C103.96 183.743 104.067 184.17 103.767 184.534C103.553 184.534 103.361 184.577 103.147 184.577C100.089 184.577 97.0315 184.577 93.974 184.577C93.1825 184.577 92.413 184.534 91.622 184.513C91.472 184.513 91.3225 184.534 91.2155 184.427C91.365 184.299 91.536 184.363 91.686 184.363C95.428 184.363 99.1695 184.363 102.912 184.363C103.062 184.363 103.19 184.341 103.233 184.363C99.512 184.363 95.706 184.363 91.8785 184.363C91.6645 184.363 91.4295 184.277 91.2155 184.448C90.2745 184.491 89.3125 184.363 88.3715 184.256C86.533 184.085 84.7365 183.7 82.9405 183.401C82.8765 183.379 82.8335 183.358 82.7695 183.315C82.9835 182.845 82.962 182.353 82.962 181.861C82.962 157.186 82.962 132.511 82.962 107.836C82.9405 107.408 82.962 106.959 83.0045 106.531C83.1115 106.082 83.2825 105.655 83.4965 105.27C84.7795 102.725 86.0625 100.181 87.324 97.6147C91.9855 88.0572 96.7965 78.5847 101.522 69.0697C102.121 67.8722 102.719 66.7177 103.297 65.5202C103.382 65.3277 103.446 64.9217 103.831 65.2637C103.831 88.8697 103.831 112.476 103.831 136.082C103.831 137.921 103.831 139.759 103.831 141.62C103.831 116.367 103.831 91.1362 103.831 65.8837C103.81 65.4772 103.682 65.1137 103.895 64.7502Z" fill="#E85C50"/>
<path d="M83.1339 106.248C83.1339 131.607 83.1339 156.967 83.1339 182.305C83.1339 182.518 83.1339 182.711 83.1339 182.924C83.1549 183.224 82.9629 183.266 82.7489 183.288C79.6914 182.582 76.7189 181.642 73.9394 180.209C72.3999 179.418 70.9029 178.584 69.5774 177.493C65.8994 174.479 63.3339 170.779 62.7779 165.925C62.7779 165.754 62.7779 165.605 62.7779 165.434C62.7139 165.22 62.6924 164.984 62.7349 164.749C62.7349 131.842 62.7349 98.956 62.7349 66.049C62.7139 65.8135 62.7349 65.6 62.7779 65.3645C63.0774 65.386 63.1414 65.6425 63.2269 65.835C64.3599 68.1445 65.4934 70.4325 66.6479 72.72C68.0379 75.4785 69.4279 78.2155 70.7964 80.995C72.0789 83.561 73.3834 86.127 74.6449 88.714C75.4359 90.339 76.2699 91.943 77.0614 93.5465C77.8094 95.022 78.5579 96.4975 79.2849 97.994C80.1404 99.79 81.0384 101.565 81.9579 103.318C82.3639 104.067 82.6634 104.858 83.0484 105.627C83.1764 105.799 83.1979 106.034 83.1339 106.248Z" fill="#CF3339"/>
<path d="M168.13 182.799C167.83 182.778 167.553 182.82 167.275 182.906C167.039 182.949 166.868 182.884 166.868 182.585C166.868 182.435 166.868 182.307 166.868 182.157V106.015C166.676 105.673 166.932 105.416 167.061 105.16C169.113 101.161 171.145 97.1417 173.155 93.1002C173.197 93.0147 173.262 92.9077 173.326 92.8222C173.347 92.7797 173.368 92.7367 173.39 92.6942C173.433 92.6297 173.454 92.5657 173.497 92.5017C173.54 92.4372 173.54 92.4162 173.561 92.3732C173.625 92.2447 173.689 92.0952 173.753 91.9672C173.775 91.9242 173.818 91.8602 173.839 91.8172C174.908 89.8072 175.892 87.7547 176.918 85.7022C177.474 84.6327 177.987 83.5637 178.522 82.4732C179.013 81.5112 179.484 80.5702 179.954 79.6082C179.997 79.5437 180.018 79.4797 180.061 79.4372C181.643 76.3577 183.14 73.2362 184.722 70.1782C185.385 68.9167 186.027 67.6342 186.69 66.3722C186.797 66.1372 186.882 65.8592 187.224 65.7952C187.352 66.0517 187.288 66.3082 187.288 66.5647C187.288 86.1082 187.288 105.652 187.288 125.174C187.288 138.153 187.288 151.132 187.288 164.111C187.31 164.367 187.31 164.603 187.246 164.859C187.331 165.757 186.989 166.57 186.775 167.404C186.091 170.055 184.637 172.257 182.841 174.267C181.494 175.828 179.933 177.218 178.201 178.351C176.02 179.784 173.668 180.96 171.209 181.858C170.225 182.2 169.178 182.542 168.13 182.799Z" fill="#CF3339"/>
<path d="M83.134 106.254C83.0915 106.04 83.027 105.847 82.899 105.676C82.3215 104.458 81.68 103.282 81.124 102.063C80.568 100.887 79.884 99.7748 79.371 98.5778C78.9005 97.4658 78.2375 96.4608 77.767 95.3703C77.1685 93.9803 76.3345 92.7188 75.7785 91.3078C75.565 90.7518 75.2015 90.2598 74.9445 89.7253C74.5385 88.9128 74.2175 88.0573 73.7685 87.2663C72.892 85.7268 72.1865 84.0803 71.374 82.5193C70.8395 81.4933 70.2835 80.4883 69.813 79.4193C69.3 78.2643 68.6155 77.1953 68.1235 76.0408C67.525 74.6293 66.691 73.3463 66.0925 71.9353C65.8145 71.2508 65.3655 70.6308 65.066 69.9468C64.382 68.4498 63.505 67.0388 62.757 65.5208V164.692C62.757 164.948 62.757 165.183 62.757 165.44C62.543 164.756 62.607 164.05 62.607 163.344C62.5855 154.578 62.5855 145.79 62.607 137.023V66.6113C62.6285 65.9908 62.607 65.3708 62.543 64.7508C62.7355 64.6868 62.949 64.6653 63.1415 64.7078C76.463 64.7078 89.8055 64.7078 103.126 64.7078H103.49C103.939 64.7078 103.768 64.9433 103.639 65.1358L95.536 81.2793C93.8465 84.6578 92.1575 88.0148 90.4895 91.3933C89.8695 92.6333 89.292 93.8948 88.672 95.1348C86.9615 98.5563 85.251 101.977 83.5405 105.398L83.134 106.254Z" fill="#E33936"/>
<path d="M173.324 92.9712C173.303 93.1422 173.239 93.2917 173.153 93.4202C171.806 96.1357 170.459 98.8727 169.069 101.567C168.406 102.85 167.765 104.133 167.102 105.437C166.995 105.608 166.909 105.801 166.867 106.014C166.631 106.014 166.567 105.801 166.503 105.651C166.225 105.116 166.011 104.56 165.733 104.026C165.413 103.384 165.049 102.743 164.728 102.101C164.13 100.925 163.51 99.7492 162.954 98.5517C162.376 97.2902 161.649 96.1142 161.093 94.8312C160.495 93.4627 159.704 92.2012 159.126 90.8327C158.806 90.0847 158.356 89.3787 157.993 88.6307C157.416 87.4757 156.796 86.3212 156.261 85.1452C155.641 83.7982 154.871 82.5152 154.294 81.1467C153.973 80.3982 153.503 79.6927 153.161 78.9442C152.519 77.5117 151.707 76.1647 151.086 74.7107C150.766 73.9622 150.317 73.2567 149.953 72.5082C148.777 70.1347 147.58 67.7827 146.404 65.4092C146.275 65.2172 146.19 65.0032 146.147 64.7892L146.254 64.7252C154.358 64.7037 162.462 64.7252 170.587 64.7252C175.975 64.7252 181.342 64.7252 186.731 64.7252C186.945 64.7252 187.18 64.6612 187.394 64.7892C187.415 64.9602 187.607 65.1102 187.415 65.3027C186.816 66.0082 186.538 66.8847 186.132 67.6757C184.079 71.6532 182.091 75.6727 180.081 79.6927C179.568 80.6337 179.076 81.5957 178.627 82.5582C178.071 83.6272 177.536 84.6962 177.002 85.7867C175.933 87.8392 174.949 89.9562 173.859 91.9877C173.752 92.1372 173.666 92.3082 173.602 92.4792C173.517 92.5437 173.538 92.6717 173.474 92.7362C173.367 92.7787 173.388 92.9072 173.324 92.9712Z" fill="#E33936"/>
<path d="M180.039 79.6717C180.36 78.5602 180.959 77.5552 181.515 76.5502C181.707 76.2082 181.835 75.8447 182.006 75.4812C182.755 74.0272 183.461 72.5732 184.188 71.1192C184.765 69.9857 185.3 68.8312 185.899 67.6977C186.305 66.9497 186.647 66.2012 187.032 65.4312C187.117 65.2602 187.181 65.1322 187.396 65.2602C187.396 69.2802 187.396 73.3002 187.396 77.2987C187.396 105.908 187.396 134.517 187.396 163.127C187.396 163.683 187.439 164.239 187.289 164.795C187.289 164.581 187.268 164.389 187.268 164.175V65.8802C187.075 65.9017 187.053 66.0512 187.01 66.1797C186.797 66.5862 186.604 66.9922 186.39 67.3987C184.359 71.3112 182.391 75.2457 180.424 79.2017C180.317 79.3727 180.253 79.5862 180.039 79.6717Z" fill="#E34C37"/>
<path d="M146.124 64.7697C145.867 64.8122 145.696 65.0477 145.739 65.3042V65.3257C145.739 65.4967 145.739 65.6462 145.739 65.8172C145.739 90.9202 145.739 116.044 145.739 141.147C145.739 142.131 145.846 142.045 144.841 142.045C131.498 142.045 118.134 142.045 104.792 142.045C104.535 142.045 104.215 142.195 104.001 141.874C104.215 141.96 104.45 141.981 104.664 141.96H144.991C145.076 141.96 145.162 141.96 145.247 141.96C145.546 141.981 145.675 141.874 145.653 141.575C145.632 141.382 145.653 141.211 145.653 141.019V65.5822C145.653 65.4322 145.653 65.3042 145.653 65.1547C145.611 64.7912 145.803 64.6627 146.124 64.6842V64.7697Z" fill="#E9654C"/>
<path d="M103.618 65.1522C103.618 64.9807 103.768 64.7457 103.404 64.7887C103.233 64.7887 103.062 64.7887 102.912 64.7887H62.5C62.671 64.5532 62.9275 64.6817 63.12 64.6817C65.964 64.6602 68.7865 64.6817 71.609 64.6817C82.086 64.6817 92.585 64.6817 103.062 64.6817C103.319 64.6817 103.596 64.5962 103.853 64.7887C103.853 73.4057 103.853 82.0227 103.853 90.6182V141.786C103.661 141.701 103.746 141.551 103.725 141.444C103.725 141.294 103.725 141.166 103.725 141.016C103.725 116.02 103.725 91.0032 103.725 65.9857C103.746 65.6867 103.853 65.3872 103.618 65.1522Z" fill="#E7563D"/>
<path d="M146.125 64.7688C146.125 64.7473 146.125 64.7043 146.125 64.6833C146.36 64.6618 146.574 64.6403 146.809 64.6403C160.109 64.6403 173.387 64.6403 186.687 64.6403C186.922 64.6403 187.179 64.5333 187.371 64.7473L146.125 64.7688Z" fill="#E85C50"/>
<path d="M145.74 184.505C145.462 184.505 145.206 184.505 144.928 184.505H104.622C104.365 184.505 104.13 184.483 103.874 184.483C103.831 184.227 103.874 183.992 104.002 183.756C105.071 181.511 106.119 179.266 107.188 177.021C109.305 172.595 111.379 168.147 113.496 163.743C113.56 163.572 113.667 163.401 113.795 163.294H135.904C136.439 164.234 136.867 165.218 137.316 166.18C138.171 168.04 139.069 169.879 139.946 171.74C141.827 175.695 143.709 179.672 145.569 183.628C145.74 183.906 145.804 184.206 145.74 184.505Z" fill="#CF3339"/>
<path d="M113.817 163.298C113.732 163.662 113.604 164.004 113.411 164.346C112.385 166.484 111.337 168.622 110.332 170.761C109.648 172.215 108.964 173.668 108.279 175.122C107.488 176.812 106.697 178.48 105.885 180.147C105.286 181.388 104.709 182.649 104.131 183.911C104.046 184.103 103.982 184.295 103.896 184.488L103.746 184.531C103.746 184.253 103.746 183.996 103.746 183.718V142.45C103.939 142.579 104.088 142.771 104.153 142.985C104.559 143.883 104.965 144.802 105.393 145.679C106.056 147.069 106.74 148.437 107.381 149.806C108.515 152.243 109.669 154.66 110.824 157.076C111.508 158.508 112.171 159.962 112.877 161.395C113.176 162.037 113.39 162.721 113.817 163.298Z" fill="#E33937"/>
<path d="M145.74 184.507C145.59 183.759 145.163 183.139 144.885 182.455C144.521 181.578 144.093 180.744 143.666 179.867C142.704 177.858 141.72 175.848 140.779 173.838C140.009 172.213 139.24 170.588 138.47 168.963C137.636 167.252 136.866 165.52 136.054 163.809C135.968 163.638 135.904 163.467 135.904 163.275C137.144 160.666 138.406 158.058 139.625 155.428C140.352 153.888 141.079 152.37 141.806 150.83C142.618 149.12 143.409 147.431 144.222 145.741C144.649 144.843 145.056 143.945 145.462 143.047C145.526 142.833 145.654 142.62 145.847 142.47V143.111C145.847 156.668 145.847 170.245 145.847 183.802C145.868 184.058 145.954 184.315 145.74 184.507Z" fill="#E33937"/>
<path d="M91.1729 184.423C91.3008 184.252 91.5148 184.273 91.6858 184.273H103.296C103.381 184.273 103.467 184.294 103.552 184.316C103.317 184.401 103.082 184.423 102.847 184.38H91.7288C91.5573 184.401 91.3653 184.423 91.1729 184.423Z" fill="#E75840"/>
<path d="M173.815 91.9676C173.837 91.8181 173.879 91.6896 173.965 91.5615C174.885 89.7224 175.804 87.8833 176.724 86.0442C176.766 85.9162 176.831 85.8307 176.937 85.7452C176.98 85.6807 177.023 85.6807 177.066 85.7452C176.125 87.6483 175.163 89.5299 174.221 91.433C174.115 91.6255 174.05 91.8821 173.815 91.9676Z" fill="#E04437"/>
<path d="M177.045 85.7673H176.916C177.173 84.9978 177.622 84.2917 177.964 83.5437C178.135 83.2012 178.242 82.8166 178.52 82.5386C178.563 82.4741 178.605 82.4741 178.648 82.5386L177.045 85.7673Z" fill="#E24837"/>
<path d="M178.669 82.5354H178.54C178.947 81.5303 179.374 80.5467 180.037 79.6702C180.058 79.7982 180.016 79.9267 179.973 80.0337C179.46 80.8247 179.096 81.7013 178.669 82.5354Z" fill="#E34C37"/>
<path d="M173.58 92.4581C173.537 92.2441 173.644 92.0521 173.836 91.9666C173.815 92.1586 173.73 92.3511 173.58 92.4581Z" fill="#E04437"/>
<path d="M173.452 92.7384C173.431 92.6314 173.495 92.5459 173.581 92.4819C173.581 92.5889 173.538 92.6744 173.452 92.7384Z" fill="#E04437"/>
<path d="M173.324 92.9728C173.302 92.8658 173.367 92.7803 173.452 92.7163C173.452 92.8228 173.409 92.9083 173.324 92.9728Z" fill="#E04437"/>
</g>
<defs>
<clipPath id="clip0_242_94775">
<rect width="250" height="250" fill="white"/>
</clipPath>
</defs>
</svg>
