<svg width="250" height="250" viewBox="0 0 250 250" fill="none" xmlns="http://www.w3.org/2000/svg">
<rect width="250" height="250" rx="125" fill="white"/>
<path d="M143.463 141.549C142.418 139.981 140.676 138.762 138.412 137.369C136.147 136.149 133.186 134.756 129.528 133.363V168.199C140.502 166.805 146.075 161.231 146.075 151.129C146.075 148.865 145.901 147.123 145.553 145.729C145.205 144.336 144.682 143.117 143.463 141.549Z" fill="#0B223D"/>
<path d="M124.999 18.7505C66.3003 18.7505 18.749 66.3017 18.749 125C18.749 183.699 66.3003 231.25 124.999 231.25C183.698 231.25 231.249 183.699 231.249 125C231.249 66.3017 183.698 18.7505 124.999 18.7505ZM166.106 167.152C164.015 171.681 161.054 175.339 157.222 177.951C153.39 180.738 149.21 182.828 144.681 184.222C140.153 185.789 135.101 186.66 129.528 187.009V204.078H120.993V187.183C112.981 186.834 105.491 185.441 98.3494 183.003C91.208 180.564 85.4601 177.255 81.2798 173.074L90.5113 157.398C94.1691 160.359 99.0462 162.798 104.794 164.888C110.542 166.978 115.942 168.197 120.993 168.546V130.574C120.296 130.4 119.077 130.052 117.683 129.529C116.29 129.007 114.897 128.658 113.851 128.31C112.632 127.962 111.587 127.613 110.716 127.265C100.44 123.433 92.9498 118.73 88.247 113.505C83.5441 108.279 81.2798 100.964 81.2798 91.9062C81.2798 81.4554 84.9375 73.4431 92.2531 67.521C99.5687 61.5988 109.149 58.4636 120.993 57.9411V45.5743H129.528V57.9411C138.933 58.2894 146.423 59.5087 151.997 61.5988C157.571 63.8632 162.796 67.3468 168.022 72.2238L156.874 86.6808C150.081 80.2361 141.024 76.9267 129.528 76.5784V111.414C136.147 113.679 140.327 115.072 142.069 115.595C152.345 119.601 159.313 124.304 163.319 129.529C167.325 134.755 169.415 142.07 169.415 151.476C169.415 157.572 168.37 162.798 166.106 167.152Z" fill="#0B223D"/>
<path d="M104.619 91.0367C104.619 95.5654 105.664 98.8748 107.754 101.313C109.845 103.752 114.199 106.19 121.166 108.629V77.1023C116.115 77.799 112.109 79.3666 109.148 81.631C106.013 83.8953 104.619 87.0306 104.619 91.0367Z" fill="#0B223D"/>
</svg>
