<svg width="250" height="250" viewBox="0 0 250 250" fill="none" xmlns="http://www.w3.org/2000/svg">
<g clip-path="url(#clip0_242_94931)">
<path d="M125.002 249.149C193.568 249.149 249.152 193.565 249.152 124.999C249.152 56.4325 193.568 0.848633 125.002 0.848633C56.4354 0.848633 0.851562 56.4325 0.851562 124.999C0.851562 193.565 56.4354 249.149 125.002 249.149Z" fill="#2775CA"/>
<path d="M101.701 211.349C101.701 214.249 99.3514 215.899 96.6514 215.049C59.0514 202.999 31.9014 167.849 31.9014 126.249C31.9014 84.7487 59.0514 49.5487 96.7014 37.4987C99.5014 36.6487 101.751 38.2987 101.751 41.1987V48.4487C101.751 50.3987 100.301 52.5987 98.4514 53.2987C68.6514 64.2487 47.4514 92.8487 47.4514 126.249C47.4514 159.699 68.7014 188.249 98.4514 199.099C100.301 199.799 101.751 201.999 101.751 203.949V211.349H101.701Z" fill="white"/>
<path d="M132.753 184.447C132.753 186.597 131.003 188.347 128.853 188.347H121.103C118.953 188.347 117.203 186.597 117.203 184.447V172.247C100.253 169.897 92.0025 160.497 89.7525 147.497C89.3525 145.247 91.1025 143.347 93.3525 143.347H102.203C104.053 143.347 105.603 144.697 106.003 146.447C107.653 154.097 112.103 160.047 125.703 160.047C135.703 160.047 142.853 154.397 142.853 146.097C142.853 137.747 138.703 134.547 123.953 132.147C102.203 129.247 91.9525 122.647 91.9525 105.647C91.9525 92.5468 101.953 82.2468 117.253 80.1468V68.0968C117.253 65.9468 119.003 64.1968 121.153 64.1968H128.903C131.053 64.1968 132.803 65.9468 132.803 68.0968V80.3968C145.303 82.6468 153.253 89.6968 155.903 101.547C156.403 103.797 154.653 105.797 152.303 105.797H144.153C142.403 105.797 140.953 104.647 140.453 102.997C138.203 95.5468 132.903 92.2468 123.553 92.2468C113.253 92.2468 107.953 97.1968 107.953 104.197C107.953 111.547 110.953 115.247 126.753 117.497C148.103 120.397 159.153 126.497 159.153 144.647C159.153 158.397 148.853 169.597 132.853 172.097V184.497H132.753V184.447Z" fill="white"/>
<path d="M153.301 214.998C150.501 215.848 148.251 214.198 148.251 211.298V204.048C148.251 201.898 149.501 199.898 151.551 199.198C181.251 188.348 202.551 159.698 202.551 126.348C202.551 92.8979 181.301 64.3479 151.551 53.4979C149.701 52.7979 148.251 50.5979 148.251 48.6479V41.3979C148.251 38.4979 150.601 36.8479 153.301 37.6979C190.951 49.5479 218.101 84.7479 218.101 126.248C218.101 167.848 190.951 202.998 153.301 214.998Z" fill="white"/>
</g>
<defs>
<clipPath id="clip0_242_94931">
<rect width="250" height="250" rx="125" fill="white"/>
</clipPath>
</defs>
</svg>
