<svg width="250" height="250" viewBox="0 0 250 250" fill="none" xmlns="http://www.w3.org/2000/svg">
<path d="M125 0.998047C193.5 0.998047 249 56.498 249 124.998C249 193.498 193.5 248.998 125 248.998C56.5 248.998 1 193.498 1 124.998C1 56.498 56.5 0.998047 125 0.998047Z" fill="white"/>
<path d="M125 240.748C188.927 240.748 240.75 188.925 240.75 124.998C240.75 61.0708 188.927 9.2478 125 9.2478C61.073 9.2478 9.25 61.0708 9.25 124.998C9.25 188.925 61.073 240.748 125 240.748Z" fill="#216C58" stroke="#216C58" stroke-width="4.13389"/>
<path d="M232.451 125C232.451 184.35 184.351 232.45 125.001 232.45C65.6508 232.45 17.5508 184.35 17.5508 125C17.5508 65.6496 65.6508 17.5496 125.001 17.5496C184.351 17.5496 232.451 65.6496 232.451 125Z" fill="#216C58"/>
<path d="M122.949 176.648H110.55V189.047H122.949V176.648Z" fill="#216C58"/>
<path d="M143.599 176.648H131.2V189.047H143.599V176.648Z" fill="#216C58"/>
<path d="M89.8502 48.5483H168.4C170.7 48.5483 172.55 50.3983 172.55 52.6983V54.7483C172.55 57.0483 170.7 58.8983 168.4 58.8983H89.8502C87.5502 58.8983 85.7002 57.0483 85.7002 54.7483V52.6983C85.7502 50.3983 87.6002 48.5483 89.8502 48.5483Z" fill="white"/>
<path d="M125 62.9985V203.549C125 205.849 123.15 207.699 120.85 207.699H118.8C116.5 207.699 114.65 205.849 114.65 203.549V62.9985H125Z" fill="white"/>
<path d="M141.55 62.9985V203.549C141.55 205.849 139.7 207.699 137.4 207.699H135.35C133.05 207.699 131.2 205.849 131.2 203.549V62.9985H141.55Z" fill="white"/>
<path d="M116.201 97.9976C119.101 96.9476 122.701 96.3976 127.151 96.3976C133.701 96.3976 138.601 97.6476 142.101 99.9476C144.601 101.598 146.301 103.698 147.201 106.198C148.101 108.748 150.401 111.148 153.651 111.148H172.751C176.151 111.148 179.201 108.298 178.701 104.598C177.901 98.8976 175.751 93.7476 172.251 89.1476C167.851 83.4476 161.801 79.0476 154.101 75.8976C146.451 72.7476 137.501 71.2476 127.451 71.2476C117.501 71.2476 108.601 72.7976 100.651 75.8976C92.7509 78.9976 86.4509 83.3976 81.8009 89.0976C77.1509 94.8476 74.8509 101.598 74.9009 109.248C74.8509 118.598 78.3509 126.198 85.3509 131.798C92.2009 137.248 101.351 141.148 112.801 143.598L127.301 146.848C132.101 147.898 136.101 148.998 139.301 150.248C142.501 151.448 144.751 152.848 146.201 154.398C147.601 155.798 148.301 157.498 148.301 159.648C148.301 161.998 147.501 164.048 145.901 165.848C144.251 167.698 141.801 169.248 138.501 170.398C135.251 171.548 131.351 172.148 126.751 172.148C122.101 172.148 117.951 171.498 114.351 170.298C110.851 169.048 108.101 167.248 106.051 164.948C104.751 163.398 103.851 161.648 103.251 159.548C102.501 156.798 100.101 154.248 96.8009 154.248H77.6009C74.1509 154.248 71.2009 157.098 71.6009 160.798C72.4009 167.798 74.7509 173.948 78.7009 179.098C83.4509 185.198 90.0009 189.748 98.2009 192.798C106.451 195.848 116.101 197.348 127.001 197.348C138.001 197.348 147.551 195.898 155.501 192.848C163.501 189.798 169.751 185.498 174.101 179.848C178.501 174.148 180.751 167.398 180.801 159.698V159.648C180.751 154.448 179.701 149.698 177.501 145.548C175.401 141.448 172.451 137.898 168.701 134.898C164.951 131.948 160.551 129.448 155.551 127.448C150.551 125.448 145.101 123.898 139.201 122.698L127.251 120.148H127.201C124.351 119.598 121.701 118.898 119.251 118.148C116.801 117.348 114.701 116.398 112.901 115.398C111.151 114.348 109.851 113.198 108.951 111.898C108.151 110.748 107.751 109.348 107.801 107.598V107.548V107.498C107.801 105.448 108.451 103.648 109.801 101.998C111.201 100.398 113.251 98.9976 116.201 97.9976Z" fill="white" stroke="#216C58" stroke-width="4.13389"/>
<path d="M125 89.8467H114.65V104.296H125V89.8467Z" fill="white"/>
<path d="M125 141.549H114.65V155.998H125V141.549Z" fill="white"/>
<path d="M125 184.947H114.65V199.396H125V184.947Z" fill="white"/>
<path d="M141.55 89.8467H131.2V104.296H141.55V89.8467Z" fill="white"/>
<path d="M141.55 141.549H131.2V155.998H141.55V141.549Z" fill="white"/>
<path d="M141.55 184.947H131.2V199.396H141.55V184.947Z" fill="white"/>
<path fill-rule="evenodd" clip-rule="evenodd" d="M229.001 131.199C227.351 131.199 226.001 132.499 225.851 134.099C221.251 185.749 177.851 226.249 125.001 226.249C72.1514 226.249 28.7514 185.749 24.1514 134.099C24.0014 132.449 22.6514 131.199 21.0014 131.199C19.2014 131.199 17.8015 132.699 17.9515 134.499C22.7515 189.399 68.8514 232.499 125.001 232.499C181.151 232.499 227.251 189.449 232.051 134.499C232.201 132.699 230.801 131.199 229.001 131.199ZM21.0014 118.799C22.6514 118.799 24.0014 117.499 24.1514 115.899C28.7514 64.2488 72.1514 23.7488 125.001 23.7488C177.851 23.7488 221.251 64.2488 225.851 115.899C226.001 117.549 227.351 118.799 229.001 118.799C230.801 118.799 232.201 117.299 232.051 115.499C227.251 60.5988 181.151 17.4988 125.001 17.4988C68.8514 17.4988 22.7515 60.5988 17.9515 115.499C17.8015 117.299 19.2014 118.799 21.0014 118.799Z" fill="white"/>
</svg>
