<svg width="250" height="250" viewBox="0 0 250 250" fill="none" xmlns="http://www.w3.org/2000/svg">
<rect width="250" height="250" rx="125" fill="white"/>
<g clip-path="url(#clip0_242_94638)">
<path d="M125.016 238.665C187.784 238.665 238.668 187.782 238.668 125.014C238.668 62.2459 187.784 11.3625 125.016 11.3625C62.2486 11.3625 11.3652 62.2459 11.3652 125.014C11.3652 187.782 62.2486 238.665 125.016 238.665Z" fill="#C30000"/>
<path d="M157.975 149.713L157.972 50.0664C154.9 53.9062 116.5 68.4981 116.5 68.4981L135.7 67.7301C139.155 67.7301 139.155 71.1851 139.155 71.1851L138.772 152.209C137.811 168.912 121.109 169.872 121.109 169.872C113.082 169.872 109.049 165.697 106.749 161.626C104.814 158.154 103.807 154.242 103.827 150.268V135.311H84.2441V153.359C84.2441 185.745 121.492 186.386 121.492 186.386C159.123 186.386 157.975 149.713 157.975 149.713Z" fill="white"/>
<path d="M104.596 104.208H84.2441V122.256H104.596V104.208Z" fill="white"/>
</g>
<defs>
<clipPath id="clip0_242_94638">
<rect width="227.302" height="227.302" fill="white" transform="translate(11.3652 11.3625)"/>
</clipPath>
</defs>
</svg>
