<svg width="250" height="250" viewBox="0 0 250 250" fill="none" xmlns="http://www.w3.org/2000/svg">
<path d="M229.319 124.542C218.358 130.703 200.515 138.223 178.508 138.223C141.164 138.223 103.523 108.058 73.3594 108.058C44.1726 108.058 21.2311 123.565 19.8291 124.542L124.595 19.7747L229.319 124.542Z" fill="#00FFB4"/>
<path d="M229.574 124.8L124.595 229.781L19.5742 124.8L19.8291 124.545C21.2311 123.568 44.1726 108.061 73.4019 108.061C103.566 108.061 141.164 138.226 178.551 138.226C200.557 138.226 218.401 130.706 229.362 124.545L229.574 124.8Z" fill="#05DA9B"/>
<path d="M160.068 148.97C160.068 133.208 148.98 124.414 122.937 119.571C108.875 116.937 101.822 111.286 101.992 102.747C101.992 102.534 101.992 102.407 101.992 102.237C101.992 97.4361 104.116 86.2626 123.787 86.2626C133.558 86.2626 140.355 89.1516 144.009 94.8445C146.813 99.2205 146.856 103.894 146.856 103.936L153.058 103.979L159.261 104.106C159.261 103.639 159.388 92.2954 150.807 83.5435C145.369 78.0205 137.934 74.8341 128.587 74.0694V61.8337H119.751V73.9844C97.6163 75.5564 89.6292 89.8313 89.6292 102.194V102.449C89.4593 111.159 93.2828 126.581 120.685 131.679C147.705 136.735 147.705 144.637 147.705 148.928C147.705 151.137 147.238 156.745 142.947 161.036C139.081 164.902 133.006 166.814 124.891 166.814C124.849 166.814 124.764 166.814 124.721 166.814C104.201 166.729 98.8058 154.918 98.8058 148.715H86.4004C86.4004 156.023 89.6292 163.373 95.2796 168.853C99.5705 173.017 107.175 177.903 119.708 179.007V191.413H128.545V179.135C138.316 178.54 146.091 175.396 151.656 169.83C157.009 164.52 160.068 156.915 160.068 148.97Z" fill="white"/>
</svg>
