<svg width="250" height="250" viewBox="0 0 250 250" fill="none" xmlns="http://www.w3.org/2000/svg">
<g clip-path="url(#clip0_242_93921)">
<path d="M125 249.997C194.036 249.997 250 194.033 250 124.997C250 55.9615 194.036 -0.00292969 125 -0.00292969C55.9644 -0.00292969 0 55.9615 0 124.997C0 194.033 55.9644 249.997 125 249.997Z" fill="url(#paint0_radial_242_93921)"/>
<path d="M112.95 65.7467C112.95 55.6467 112.95 36.6967 112.95 36.6967L136.8 36.3467L137.15 65.5467H182.8C182.8 65.5467 182.8 77.9967 182.8 84.4467C167.55 84.4467 152.5 84.4467 137.15 84.4467C137.15 94.9467 137.15 104.997 137.15 115.597C140.45 115.597 143.7 115.347 146.85 115.647C152 116.097 157.25 116.347 162.2 117.747C174.7 121.247 183.3 129.147 185.85 142.147C187.85 152.447 186.6 162.397 179.9 170.997C174.5 177.997 167 181.697 158.5 183.297C154.2 184.097 149.7 184.247 145.3 184.547C142.75 184.697 140.15 184.597 136.95 184.597C136.6 194.547 137 204.297 136.7 214.247C128.75 214.247 121.15 214.247 112.95 214.247C112.95 204.447 112.95 194.747 112.95 184.697C97.2501 184.697 82.1501 184.697 66.8501 184.697C66.8501 178.297 66.8501 172.197 66.8501 165.697C82.1001 165.697 97.1501 165.697 112.8 165.697C113.05 155.197 112.9 134.297 112.9 134.297L108.2 134.447C108.2 134.447 95.2501 134.697 88.9001 132.947C76.7501 129.597 67.5001 122.747 64.4001 110.097C61.1001 96.5967 63.2001 84.0467 74.4501 74.4967C81.4501 68.5467 90.0501 66.3467 99.1001 65.8467C103.45 65.5967 107.9 65.7467 112.95 65.7467ZM137 134.297C136.9 128.147 136.85 121.997 136.75 115.547C128.45 115.547 120.7 115.547 113 115.547C113 105.297 113.15 94.9967 112.95 84.8467C107.3 83.9967 100.75 84.4467 96.7001 85.8467C93.1001 87.0967 90.2001 89.1967 88.5001 92.6967C83.8501 102.297 88.7501 112.897 99.2501 114.897C103.75 115.747 108.45 115.347 113.1 115.497C113.1 121.647 113.1 127.847 113.1 134.247C121.25 134.247 129.15 134.247 137 134.297C137.05 144.547 137.05 154.797 137.05 165.297C143 165.597 148.55 165.997 153.9 163.897C158.2 162.197 161.15 159.097 162 154.547C163.9 144.197 160.1 136.447 148.55 134.897C144.75 134.397 140.85 134.497 137 134.297Z" fill="white"/>
<path d="M113.052 115.497C108.452 115.347 103.702 115.747 99.2018 114.897C88.7518 112.897 83.8018 102.297 88.4518 92.6969C90.1518 89.1969 93.0018 87.0469 96.6518 85.8469C100.702 84.4469 107.302 84.0469 112.902 84.8469C113.102 94.9969 113.002 105.297 112.952 115.547L113.052 115.497Z" fill="url(#paint1_radial_242_93921)"/>
<path d="M137.001 134.298C140.851 134.498 144.751 134.398 148.601 134.898C160.151 136.448 163.951 144.198 162.051 154.548C161.201 159.098 158.251 162.198 153.951 163.898C148.601 165.998 143.001 165.598 137.101 165.298C137.051 154.798 137.051 144.548 137.001 134.298Z" fill="url(#paint2_radial_242_93921)"/>
<path d="M113 115.547C120.7 115.547 128.45 115.547 136.75 115.547C136.85 121.997 136.9 128.147 137 134.297L137.05 134.247C129.15 134.247 121.25 134.247 113.05 134.247C113.05 127.797 113.05 121.647 113.05 115.497L113 115.547Z" fill="url(#paint3_radial_242_93921)"/>
</g>
<defs>
<radialGradient id="paint0_radial_242_93921" cx="0" cy="0" r="1" gradientUnits="userSpaceOnUse" gradientTransform="translate(215.484 54.2003) scale(186.046)">
<stop stop-color="#AAD65C"/>
<stop offset="0.6225" stop-color="#4B9E58"/>
<stop offset="1" stop-color="#205533"/>
</radialGradient>
<radialGradient id="paint1_radial_242_93921" cx="0" cy="0" r="1" gradientUnits="userSpaceOnUse" gradientTransform="translate(215.486 54.2002) scale(186.046 186.046)">
<stop stop-color="#AAD65C"/>
<stop offset="0.6225" stop-color="#4B9E58"/>
<stop offset="1" stop-color="#205533"/>
</radialGradient>
<radialGradient id="paint2_radial_242_93921" cx="0" cy="0" r="1" gradientUnits="userSpaceOnUse" gradientTransform="translate(215.485 54.2011) scale(186.046 186.046)">
<stop stop-color="#AAD65C"/>
<stop offset="0.6225" stop-color="#4B9E58"/>
<stop offset="1" stop-color="#205533"/>
</radialGradient>
<radialGradient id="paint3_radial_242_93921" cx="0" cy="0" r="1" gradientUnits="userSpaceOnUse" gradientTransform="translate(215.484 54.1998) scale(186.046 186.046)">
<stop stop-color="#AAD65C"/>
<stop offset="0.6225" stop-color="#4B9E58"/>
<stop offset="1" stop-color="#205533"/>
</radialGradient>
<clipPath id="clip0_242_93921">
<rect width="250" height="250" rx="125" fill="white"/>
</clipPath>
</defs>
</svg>
