<svg width="250" height="250" viewBox="0 0 250 250" fill="none" xmlns="http://www.w3.org/2000/svg">
<g clip-path="url(#clip0_242_94807)">
<path d="M125.001 249.997C194.037 249.997 250.001 194.033 250.001 124.997C250.001 55.9615 194.037 -0.00292969 125.001 -0.00292969C55.9654 -0.00292969 0.000976562 55.9615 0.000976562 124.997C0.000976562 194.033 55.9654 249.997 125.001 249.997Z" fill="white"/>
<path d="M125.002 249.997C116.506 249.997 108.107 249.118 99.8066 247.458C83.791 244.138 68.6543 237.79 55.0801 228.61C34.9629 215.036 19.2402 195.896 9.76758 173.63C6.54492 166.11 4.10352 158.2 2.44336 150.192C-0.974609 133.591 -0.974609 116.403 2.44336 99.8018C5.86133 83.7861 12.209 68.6494 21.3887 55.0752C34.9629 34.958 54.1035 19.2354 76.3691 9.7627C83.8887 6.54004 91.7988 4.09863 99.8066 2.43848C116.408 -0.979492 133.596 -0.979492 150.197 2.43848C166.213 5.75879 181.35 12.1064 194.924 21.2861C215.041 34.8604 230.764 54.001 240.236 76.2666C243.459 83.7861 245.9 91.6963 247.561 99.7041C250.979 116.306 250.979 133.493 247.561 150.095C244.24 166.11 237.893 181.247 228.713 194.821C215.139 214.938 195.998 230.661 173.732 240.134C166.213 243.356 158.303 245.798 150.295 247.458C141.896 249.118 133.498 249.997 125.002 249.997ZM125.002 13.376C117.482 13.376 109.865 14.1572 102.541 15.6221C88.2832 18.5518 74.709 24.2158 62.5996 32.4189C44.6396 44.5199 30.5913 61.5882 22.1699 81.54C19.3379 88.2783 17.0918 95.3096 15.627 102.536C12.5996 117.38 12.5996 132.712 15.627 147.556C18.5566 161.813 24.2207 175.388 32.4238 187.497C44.5248 205.457 61.5931 219.505 81.5449 227.927C88.2832 230.759 95.3145 233.005 102.541 234.47C117.385 237.497 132.717 237.497 147.561 234.47C161.818 231.54 175.393 225.876 187.502 217.673C205.471 205.563 219.436 188.474 227.932 168.552C230.764 161.813 233.01 154.782 234.475 147.556C237.502 132.712 237.502 117.38 234.475 102.536C231.545 88.2783 225.881 74.7041 217.678 62.5947C205.577 44.6347 188.508 30.5864 168.557 22.165C161.818 19.333 154.787 17.0869 147.561 15.6221C140.139 14.1572 132.521 13.376 125.002 13.376Z" fill="url(#paint0_linear_242_94807)"/>
<path d="M111.131 159.469C114.842 173.141 128.026 183.395 134.666 183.004C134.861 183.004 159.959 178.415 173.533 155.563C184.08 137.79 180.565 120.602 166.014 120.407C160.545 120.602 104.1 133.786 111.131 159.469ZM164.549 72.4575C145.897 56.6372 119.92 52.9263 97.7521 62.7896C96.4826 63.4732 95.1154 64.0591 93.8459 64.7427C92.9669 65.231 92.088 65.6216 91.2091 66.3052H91.4044C88.963 68.063 86.5216 70.2114 84.7638 72.6529C66.5998 96.6763 127.44 114.059 160.154 114.254C175.096 124.997 179.295 83.8833 164.549 72.4575Z" fill="#0E3CA5"/>
<path d="M101.271 72.9477C92.873 85.4477 65.041 94.5298 60.3535 92.9673L61.0371 91.8931C62.5996 88.7681 64.3574 85.936 66.5059 83.104C68.459 80.272 70.7051 77.8306 73.1465 75.3892C75.5879 72.9477 78.2246 70.7993 80.8613 68.7485C82.6191 67.3813 84.3769 66.3071 86.1348 65.2329C88.9668 63.6704 92.0918 62.7915 95.3144 62.7915C107.912 63.0845 101.467 72.9477 101.271 72.9477ZM94.4355 161.913C95.1191 165.819 94.4355 181.444 93.5566 182.811C92.873 182.811 91.4082 183.006 87.209 180.663C85.0605 179.393 83.0098 178.026 80.8613 176.463C75.3926 172.459 70.5098 167.479 66.4082 161.913C64.4551 159.081 62.502 156.249 60.9395 153.124C59.377 150.096 57.9121 146.776 56.7402 143.651C55.666 140.331 54.7871 136.815 54.1035 133.299C53.0293 126.073 53.0293 118.846 54.1035 111.815C54.7871 108.299 55.373 104.784 56.7402 101.463C56.9355 100.78 57.1309 100.194 57.4238 99.5103C62.3066 105.858 67.7754 111.815 72.5605 118.163C77.3457 124.51 83.3027 134.471 84.4746 136.62C92.6777 149.803 93.7519 158.202 94.4355 161.913ZM187.209 122.557C187.209 130.858 185.646 139.256 182.619 147.166C174.709 155.565 121.779 134.862 121.096 134.666C113.869 131.541 91.8965 121.874 89.8457 106.542C87.0137 84.5688 131.35 69.4321 150.881 68.7485C153.322 68.7485 160.354 68.7485 164.553 72.2642C179.006 84.9595 187.404 103.221 187.209 122.557ZM151.369 181.932C145.705 184.569 139.26 182.616 140.822 177.049C144.143 166.307 171.779 155.077 177.932 154.686C178.615 154.686 179.006 155.077 178.615 155.76C172.268 166.795 162.795 175.78 151.369 181.932Z" fill="#5493F7"/>
<path d="M83.2013 192.479C83.006 195.116 84.7638 197.264 87.4005 197.557C143.651 197.948 197.947 195.409 197.947 187.01C197.947 161.229 83.2013 192.479 83.2013 192.479Z" fill="url(#paint1_linear_242_94807)"/>
<path d="M83.2013 192.479C83.006 195.116 84.7638 197.264 87.4005 197.557C143.651 197.948 197.654 196.287 197.947 187.01C197.947 161.229 83.2013 192.479 83.2013 192.479ZM87.4005 197.069H86.9122C85.1544 196.873 83.5919 195.506 83.2013 193.748C83.6896 195.701 85.4474 197.069 87.4005 197.069C143.455 196.678 196.776 179.491 196.776 187.01C196.776 194.53 143.651 197.459 87.4005 197.069Z" fill="url(#paint2_linear_242_94807)"/>
<path d="M87.4014 120.114C84.96 120.114 83.0068 122.067 83.0068 124.509V192.38C83.0068 194.821 84.96 196.774 87.2061 196.774C143.456 196.384 197.753 177.634 197.753 186.618V110.153C197.948 101.266 143.651 119.723 87.4014 120.114Z" fill="url(#paint3_linear_242_94807)"/>
<path d="M95.7998 167.184C97.7529 167.184 99.706 166.989 101.757 166.989L107.421 166.598C109.179 166.403 111.132 166.403 112.89 166.11L118.163 165.719L123.241 165.329C124.999 165.133 126.562 164.841 128.319 164.645L133.397 163.962L138.183 163.278L142.968 162.594L148.046 161.911L153.124 161.032L158.202 160.153L163.28 159.274L168.554 158.395L174.022 157.516L179.784 156.637C181.737 156.442 183.495 156.149 185.937 155.758C188.573 155.368 191.21 155.368 193.847 155.368C196.288 155.563 198.241 156.247 198.241 157.809V151.852C198.241 150.094 196.483 149.704 194.042 149.411C191.601 149.215 189.257 149.411 186.815 149.606C184.667 149.801 182.812 149.997 181.151 150.29C179.394 150.485 177.831 150.778 176.073 151.169L171.288 152.048L166.503 152.926L161.229 153.61L156.151 154.489L150.878 155.368L145.214 156.247L139.062 157.126V151.169L145.214 150.29L150.878 149.411L156.151 148.532L161.229 147.653L166.015 146.774L170.8 145.895L175.683 145.016L180.761 144.137C182.519 143.942 184.081 143.747 186.522 143.454C188.964 142.965 191.308 142.965 193.749 143.258C195.897 143.454 197.948 144.137 197.948 145.7V139.743C197.948 137.985 196.19 137.594 193.749 137.301C191.308 137.106 188.964 137.301 186.522 137.497C184.374 137.692 182.519 137.985 180.761 138.18L175.683 139.059L170.8 139.938L166.015 140.817L161.229 141.696L156.151 142.575L150.878 143.454L145.116 144.333L138.964 145.212V139.255L145.116 138.376L150.878 137.497L156.151 136.618L161.229 135.739L166.015 134.86L170.897 133.981L175.683 133.102L180.761 132.223C182.519 132.028 184.081 131.735 186.522 131.54C188.964 131.344 191.308 131.149 193.749 131.344C195.897 131.54 197.948 132.223 197.948 133.786V127.829C197.948 126.071 196.19 125.68 193.749 125.387C191.308 125.192 188.964 125.387 186.522 125.583C184.374 125.778 182.519 125.973 180.761 126.266C179.003 126.462 177.44 126.755 175.683 127.145L170.8 128.024L166.015 128.903L161.229 129.782L156.151 130.661L150.878 131.54L145.214 132.419L139.062 133.298V127.633L145.214 126.755L150.878 125.876C152.636 125.68 154.394 125.192 156.151 124.997L161.229 124.118L166.015 123.239L170.8 122.36L175.683 121.481C177.44 121.286 179.003 120.993 180.761 120.602C182.519 120.114 184.081 120.114 186.522 119.919C188.964 119.528 191.308 119.528 193.749 119.723C195.897 119.919 197.948 120.602 197.948 122.165V116.208C197.948 114.45 196.19 114.059 193.749 113.766C191.308 113.473 188.964 113.766 186.522 113.962C184.374 114.157 182.519 114.45 180.761 114.645C179.003 114.84 177.44 115.133 175.683 115.524L170.8 116.403L166.015 117.282L161.229 118.161L156.151 119.04L150.878 119.919L145.214 120.798L139.062 121.676V115.719C122.167 118.356 104.979 119.919 87.6943 120.114C85.2529 120.114 83.2998 122.067 83.2998 124.508V167.38H89.6475C91.4053 167.38 93.749 167.184 95.7998 167.184Z" fill="url(#paint4_linear_242_94807)"/>
<path d="M95.8018 178.806L101.759 178.611L107.423 178.22L112.892 177.83L118.165 177.439L123.243 177.048L128.321 176.365L133.399 175.974L138.185 175.291L142.97 174.607L148.048 173.923L153.126 173.044L158.204 172.166L163.282 171.287L168.556 170.408L174.024 169.529L179.786 168.65C181.739 168.455 183.497 168.162 185.938 167.771C188.38 166.892 191.017 166.892 193.653 166.892C196.095 167.087 198.048 167.771 198.048 169.529V163.572C198.048 161.814 196.095 161.13 193.653 160.935C191.017 160.935 188.38 160.935 185.743 161.326C183.302 161.521 181.544 162.009 179.591 162.205L173.927 163.083L168.458 163.962L163.185 164.841L158.106 165.72L153.028 166.599C151.271 166.794 149.708 166.99 147.95 167.478L143.165 168.357L138.38 169.041L133.595 169.724L128.517 170.408C126.759 170.603 125.196 170.896 123.438 171.091L118.36 171.482L113.087 171.97C111.329 172.166 109.571 172.361 107.618 172.361L101.954 172.751C100.001 172.751 97.9502 172.947 95.9971 172.947C94.0439 172.947 92.0908 173.142 89.8447 173.142C87.5986 173.142 85.6455 173.337 83.4971 173.337V179.294H89.8447L95.8018 178.806Z" fill="url(#paint5_linear_242_94807)"/>
<path d="M193.554 172.655C190.917 172.655 188.28 172.655 185.644 173.143C183.202 173.339 181.444 173.827 179.491 174.022L173.827 174.901L168.358 175.78L163.085 176.659L158.007 177.538L152.929 178.417L147.851 179.296L143.065 179.979L138.28 180.663L133.495 181.346L128.417 182.225L123.339 182.909L118.261 183.3L112.987 183.69L107.323 184.374L101.562 184.764L95.6045 184.96L89.4521 185.155H83.1045V190.917H89.4521C91.4053 190.917 93.6514 190.917 95.6045 190.721C97.5576 190.526 99.5107 190.526 101.562 190.526C103.515 190.526 105.272 190.331 107.323 190.135L112.792 189.745L118.065 189.354L123.144 188.964L128.222 188.28L133.3 187.596L138.378 186.718L143.163 186.034L148.046 185.35L153.124 184.667L158.202 183.788L163.28 182.909L168.554 182.03L174.022 181.151L179.784 180.272C181.737 180.077 183.495 179.589 185.937 179.393C188.573 179.003 191.21 179.003 193.847 179.003C196.288 179.198 198.241 179.882 198.241 181.444V175.487C197.948 173.339 195.995 172.655 193.554 172.655Z" fill="url(#paint6_linear_242_94807)"/>
<path d="M95.3115 161.227L100.78 161.032L106.054 160.836L111.132 160.446L116.21 160.055L121.288 159.567C123.046 159.372 124.804 159.176 126.757 158.883L132.421 158.2C134.374 158.004 136.62 157.516 138.769 157.321V115.817C121.874 118.454 104.687 120.016 87.3037 120.211C84.8623 120.211 82.9092 122.165 82.9092 124.606V161.52H89.2568L95.3115 161.227Z" fill="url(#paint7_linear_242_94807)"/>
<path d="M96.4826 121.873C96.2872 122.556 96.2872 122.947 95.9943 123.631H94.2363L95.5059 124.51C95.3106 125.193 95.3106 125.584 95.1153 126.268L96.3849 125.193L97.6545 126.072C97.4592 125.389 97.4592 125.193 97.2639 124.51L98.5335 123.435H96.7756L96.4826 121.873Z" fill="url(#paint8_linear_242_94807)"/>
<path d="M101.27 142.381C101.074 143.064 101.074 143.455 100.781 144.139H99.0234L100.293 145.018C100.098 145.701 100.098 146.092 99.8047 146.775L101.172 145.701L102.442 146.58C102.246 145.896 102.246 145.701 101.953 145.018L103.321 143.943H101.563C101.758 143.26 101.465 142.967 101.27 142.381Z" fill="url(#paint9_linear_242_94807)"/>
<path d="M101.758 152.05C101.563 151.366 101.563 151.171 101.27 150.487C101.074 151.171 101.074 151.561 100.781 152.245H99.0234L100.293 153.124C100.098 153.808 100.098 154.198 99.9024 154.882L101.172 153.808L102.442 154.687C102.246 154.003 102.246 153.808 102.051 153.124L103.321 152.05H101.758Z" fill="url(#paint10_linear_242_94807)"/>
<path d="M96.4826 138.377C96.2872 139.061 96.2872 139.452 95.9943 140.135H94.2363L95.5059 141.014C95.3106 141.698 95.3106 142.089 95.1153 142.772L96.3849 141.698L97.6545 142.577C97.4592 141.893 97.4592 141.698 97.2639 141.014C97.6545 140.526 98.1428 140.331 98.5335 139.94H96.7756C96.6779 139.256 96.6779 139.061 96.4826 138.377Z" fill="url(#paint11_linear_242_94807)"/>
<path d="M96.4826 146.58C96.2872 147.263 96.2872 147.654 95.9943 148.338H94.2363L95.5059 149.216C95.3106 149.9 95.3106 150.291 95.1153 150.974L96.3849 149.9L97.6545 150.779C97.4592 150.095 97.4592 149.9 97.2639 149.216L98.5335 148.142H96.7756L96.4826 146.58Z" fill="url(#paint12_linear_242_94807)"/>
<path d="M96.4826 130.271C96.2872 130.955 96.2872 131.345 95.9943 132.029H94.2363L95.5059 132.908C95.3106 133.592 95.3106 133.982 95.1153 134.666L96.3849 133.592L97.6545 134.47C97.4592 133.787 97.4592 133.592 97.2639 132.908C97.6545 132.517 98.1428 132.224 98.5335 131.834H96.7756L96.4826 130.271Z" fill="url(#paint13_linear_242_94807)"/>
<path d="M111.132 149.801C110.937 150.484 110.644 150.875 110.644 151.559L108.886 151.754L110.155 152.633C109.96 153.317 109.96 153.707 109.765 154.391L111.034 153.317L112.304 154.196C112.109 153.512 112.109 153.317 111.913 152.633L113.183 151.559L111.425 151.363L111.132 149.801Z" fill="url(#paint14_linear_242_94807)"/>
<path d="M101.27 133.981C101.074 134.665 101.074 135.056 100.781 135.739H99.0234L100.293 136.618C100.098 137.302 100.098 137.693 99.8047 138.376L101.172 137.302L102.442 138.181C102.246 137.497 102.246 137.302 101.953 136.618L103.321 135.544H101.563C101.758 135.056 101.465 134.665 101.27 133.981Z" fill="url(#paint15_linear_242_94807)"/>
<path d="M106.151 146.091C105.955 146.775 105.955 147.166 105.662 147.849H103.904L105.174 148.728C104.979 149.412 104.979 149.802 104.686 150.486L106.053 149.412L107.322 150.291C107.127 149.607 107.127 149.412 106.834 148.728L108.104 147.654L106.346 147.849C106.541 146.97 106.346 146.775 106.151 146.091Z" fill="url(#paint16_linear_242_94807)"/>
<path d="M106.737 155.759C106.541 155.076 106.541 154.88 106.248 154.197C106.053 154.88 106.053 155.271 105.76 155.954L104.002 156.15L105.272 157.029C105.076 157.712 105.076 158.103 104.881 158.787L106.151 157.712L107.42 158.591C107.225 157.908 107.225 157.712 106.932 157.029L108.201 155.954L106.737 155.759Z" fill="url(#paint17_linear_242_94807)"/>
<path d="M101.27 125.875C101.074 126.559 101.074 126.949 100.781 127.633H99.0234L100.293 128.512C100.098 129.196 100.098 129.586 99.8047 130.27L101.172 129.196L102.442 130.075C102.246 129.391 102.246 129.196 101.953 128.512L103.321 127.438H101.563C101.758 126.754 101.465 126.559 101.27 125.875Z" fill="url(#paint18_linear_242_94807)"/>
<path d="M106.151 137.791C105.955 138.474 105.955 138.865 105.662 139.548H103.904L105.174 140.427C104.979 141.111 104.979 141.502 104.686 142.185L106.053 141.111L107.322 141.99C107.127 141.306 107.127 141.111 106.834 140.427L108.104 139.353L106.346 139.548C106.541 138.865 106.346 138.377 106.151 137.791Z" fill="url(#paint19_linear_242_94807)"/>
<path d="M96.8732 156.442L96.3849 154.879C96.1896 155.563 96.1896 155.953 95.8966 156.637H94.1387L95.4083 157.516C95.213 158.2 95.213 158.59 95.0176 159.274L96.2872 158.004L97.5569 158.883L97.1662 157.321L98.4358 156.246L96.8732 156.442Z" fill="url(#paint20_linear_242_94807)"/>
<path d="M86.5226 138.573C86.3273 139.256 86.3273 139.452 86.0343 140.135H84.2764L85.546 141.21C85.3507 141.893 85.3507 142.089 85.1553 142.772L86.4249 141.698L87.6946 142.772C87.4992 142.089 87.4992 141.893 87.3039 141.21L88.5735 140.135H86.8156C87.0109 139.745 86.7179 139.256 86.5226 138.573Z" fill="url(#paint21_linear_242_94807)"/>
<path d="M86.5226 130.466L86.0343 132.029H84.2764L85.546 133.103C85.3507 133.787 85.3507 133.982 85.1553 134.666L86.4249 133.592L87.6946 134.666C87.4992 133.982 87.4992 133.787 87.3039 133.103L88.5735 132.029H86.8156C87.0109 131.345 86.7179 131.15 86.5226 130.466Z" fill="url(#paint22_linear_242_94807)"/>
<path d="M87.2062 156.638L86.8156 155.075C86.6203 155.759 86.6203 156.15 86.3273 156.638H84.5693L85.839 157.712L85.3506 159.47L86.7179 158.396L87.9875 159.47C87.7922 158.787 87.7922 158.591 87.4992 157.908L88.8665 156.833L87.2062 156.638Z" fill="url(#paint23_linear_242_94807)"/>
<path d="M104.785 133.982L106.152 132.908L107.422 133.787C107.227 133.103 107.227 132.908 106.934 132.225L108.203 131.15L106.445 131.346C106.25 130.662 106.25 130.467 105.957 129.783C105.762 130.467 105.762 130.857 105.567 131.541H103.809L105.078 132.42C105.274 132.908 104.981 133.396 104.785 133.982Z" fill="url(#paint24_linear_242_94807)"/>
<path d="M104.785 125.877L106.152 124.803L107.422 125.682C107.227 124.998 107.227 124.803 106.934 124.119L108.203 123.045L106.445 123.24L105.957 121.677C105.762 122.361 105.762 122.752 105.567 123.435H103.809L105.078 124.314C105.274 124.803 104.981 125.193 104.785 125.877Z" fill="url(#paint25_linear_242_94807)"/>
<path d="M86.5226 146.971C86.3273 147.655 86.3273 148.045 86.0343 148.729H84.2764L85.546 149.803C85.3507 150.194 85.3507 150.487 85.1553 151.366L86.4249 150.292L87.6946 151.171L87.3039 149.608L88.5735 148.534H86.8156C87.0109 147.85 86.7179 147.362 86.5226 146.971Z" fill="url(#paint26_linear_242_94807)"/>
<path d="M91.6007 126.268C91.4054 126.951 91.4054 127.342 91.2101 128.026H89.4521L90.8194 128.904L90.3311 130.662L91.6007 129.588L92.968 130.467C92.7727 129.783 92.7727 129.393 92.4797 128.904L93.7493 127.83H91.9914L91.6007 126.268Z" fill="url(#paint27_linear_242_94807)"/>
<path d="M91.6027 134.469C91.4074 135.152 91.4074 135.543 91.212 136.227H89.4541L90.8214 137.106L90.3331 138.864L91.6027 137.789L92.97 138.668C92.7746 137.985 92.7746 137.789 92.4816 137.106L93.7513 136.031H91.9933L91.6027 134.469Z" fill="url(#paint28_linear_242_94807)"/>
<path d="M91.9933 152.438C91.798 151.755 91.798 151.559 91.505 150.876C91.3097 151.559 91.3097 151.95 91.1144 152.438H89.3564L90.7237 153.513C90.5284 154.196 90.5284 154.392 90.2354 155.075L91.505 154.001L92.8723 154.88C92.677 154.196 92.677 154.001 92.384 153.317L93.6536 152.243L91.9933 152.438Z" fill="url(#paint29_linear_242_94807)"/>
<path d="M91.6007 142.575C91.4054 143.259 91.4054 143.649 91.2101 144.333H89.4521L90.8194 145.407L90.1358 146.97L91.5031 145.895L92.7727 146.774L92.2844 145.212L93.6516 144.138H92.089C91.7961 143.649 91.7961 143.259 91.6007 142.575Z" fill="url(#paint30_linear_242_94807)"/>
<path d="M86.5226 122.166C86.3273 122.849 86.3273 123.24 86.0343 123.728H84.2764L85.546 124.803L85.1553 126.561L86.4249 125.486L87.6946 126.561C87.4992 125.877 87.4992 125.682 87.3039 124.998L88.5735 123.924H86.8156L86.5226 122.166Z" fill="url(#paint31_linear_242_94807)"/>
<path d="M111.132 141.501C110.937 142.184 110.644 142.575 110.644 143.259L108.886 143.454L110.155 144.333C109.96 145.017 109.96 145.407 109.765 146.091L111.034 145.017L112.304 145.896C112.109 145.212 112.109 145.017 111.913 144.333L113.183 143.259L111.425 143.454L111.132 141.501Z" fill="url(#paint32_linear_242_94807)"/>
<path d="M130.664 139.451C130.469 140.135 130.469 140.526 130.274 141.209L128.516 141.405L129.883 142.284C129.688 142.967 129.395 143.358 129.395 144.042L130.762 142.967L132.031 143.846C131.836 143.163 131.641 142.967 131.641 142.284L132.91 141.209L131.153 141.405C130.957 140.428 130.957 140.135 130.664 139.451Z" fill="url(#paint33_linear_242_94807)"/>
<path d="M130.662 131.149C130.467 131.833 130.467 132.223 130.272 132.907L128.514 133.102L129.881 133.981C129.686 134.665 129.393 135.055 129.393 135.739L130.76 134.665L132.03 135.544C131.834 134.86 131.639 134.665 131.639 133.981L132.908 132.907L131.151 133.102C130.955 132.223 130.955 131.833 130.662 131.149Z" fill="url(#paint34_linear_242_94807)"/>
<path d="M131.153 149.216C130.957 148.533 130.957 148.337 130.664 147.654C130.469 148.337 130.469 148.728 130.274 149.412L128.516 149.607L129.883 150.486C129.688 151.17 129.395 151.56 129.395 152.244L130.762 151.17L132.031 152.049C131.836 151.365 131.641 151.17 131.641 150.486L132.91 149.412L131.153 149.216Z" fill="url(#paint35_linear_242_94807)"/>
<path d="M125.684 127.831L125.195 129.393L123.438 129.589L124.707 130.468C124.512 131.151 124.512 131.542 124.316 132.226L125.586 131.151L126.953 132.03C126.758 131.347 126.465 131.151 126.465 130.468L127.832 129.393L126.074 129.589C126.074 128.71 125.879 128.319 125.684 127.831Z" fill="url(#paint36_linear_242_94807)"/>
<path d="M130.662 123.045C130.467 123.729 130.467 124.12 130.272 124.803L128.318 124.999L129.588 125.878C129.393 126.561 129.197 126.952 129.197 127.636L130.467 126.561L131.834 127.44C131.639 126.757 131.444 126.561 131.444 125.878L132.713 124.803C132.03 124.803 131.639 124.999 130.955 124.999C130.955 123.924 130.955 123.729 130.662 123.045Z" fill="url(#paint37_linear_242_94807)"/>
<path d="M125.684 119.529L125.195 121.287L123.438 121.483L124.707 122.362C124.512 123.045 124.512 123.436 124.316 124.119L125.586 123.045L126.953 123.924C126.758 123.24 126.465 123.045 126.465 122.362L127.832 121.287L126.074 121.483C126.074 120.604 125.879 120.115 125.684 119.529Z" fill="url(#paint38_linear_242_94807)"/>
<path d="M135.547 134.666C135.352 135.35 135.352 135.74 135.059 136.424L133.301 136.619L134.57 137.498C134.375 138.182 134.18 138.573 134.18 139.256L135.449 138.182L136.817 139.061L136.328 137.498L137.696 136.229H135.938C135.742 135.545 135.742 135.35 135.547 134.666Z" fill="url(#paint39_linear_242_94807)"/>
<path d="M135.547 126.561C135.352 127.245 135.352 127.636 135.059 128.319L133.301 128.515L134.57 129.393C134.375 130.077 134.18 130.468 134.18 131.151L135.449 130.077L136.817 130.956C136.621 130.272 136.328 130.077 136.328 129.393L137.696 128.319L135.938 128.124C135.742 127.44 135.742 127.147 135.547 126.561Z" fill="url(#paint40_linear_242_94807)"/>
<path d="M135.938 152.633C135.742 151.949 135.742 151.754 135.547 151.07C135.352 151.754 135.352 152.144 135.059 152.828L133.301 153.023L134.57 153.902L134.18 155.66L135.449 154.586L136.817 155.465C136.621 154.781 136.621 154.586 136.328 153.902L137.696 152.828L135.938 152.633Z" fill="url(#paint41_linear_242_94807)"/>
<path d="M135.547 118.357L135.059 120.115L133.301 120.31L134.57 121.189C134.375 121.873 134.18 122.263 134.18 122.947C134.57 122.459 135.059 122.263 135.449 121.873L136.817 122.752C136.621 122.068 136.328 121.873 136.328 121.189L137.696 120.115L135.938 119.919C135.742 119.333 135.742 118.845 135.547 118.357Z" fill="url(#paint42_linear_242_94807)"/>
<path d="M135.547 142.968C135.352 143.651 135.352 144.042 135.059 144.725H133.301L134.57 145.604L134.18 147.362L135.449 146.288L136.817 147.167C136.621 146.483 136.621 146.288 136.328 145.604L137.696 144.53H135.938C135.742 143.846 135.742 143.651 135.547 142.968Z" fill="url(#paint43_linear_242_94807)"/>
<path d="M125.684 135.933L125.195 137.691L123.438 137.887L124.707 138.766C124.512 139.449 124.512 139.84 124.316 140.523L125.586 139.449L126.953 140.328C126.758 139.645 126.465 139.449 126.465 138.766L127.832 137.691L126.074 137.887C126.074 136.91 125.879 136.617 125.684 135.933Z" fill="url(#paint44_linear_242_94807)"/>
<path d="M111.132 125.194C110.937 125.877 110.644 126.268 110.644 126.952L108.886 127.147L110.155 128.026C109.96 128.709 109.96 129.1 109.765 129.784L111.034 128.709L112.304 129.588C112.109 128.905 112.109 128.709 111.913 128.026L113.183 126.952L111.425 127.147L111.132 125.194Z" fill="url(#paint45_linear_242_94807)"/>
<path d="M116.017 145.213L115.626 146.971H113.868L115.138 147.85C114.942 148.534 114.649 148.925 114.649 149.608L115.919 148.534L117.189 149.413C116.993 148.729 116.993 148.534 116.7 147.85L117.97 146.776L116.212 146.971C116.212 146.092 116.212 145.897 116.017 145.213Z" fill="url(#paint46_linear_242_94807)"/>
<path d="M125.684 144.137L125.195 145.895L123.438 146.091L125 146.97C124.805 147.653 124.805 148.044 124.512 148.728L125.781 147.653L127.051 148.532C126.856 147.849 126.66 147.653 126.66 146.97L128.028 145.895L126.27 146.091C126.074 145.212 125.879 144.723 125.684 144.137Z" fill="url(#paint47_linear_242_94807)"/>
<path d="M116.017 128.709L115.626 130.467L113.868 130.662L115.138 131.541C114.942 132.225 114.649 132.615 114.649 133.299L115.919 132.225L117.189 133.104C116.993 132.42 116.993 132.225 116.7 131.541L117.97 130.467L116.212 130.662C116.212 129.783 116.212 129.392 116.017 128.709Z" fill="url(#paint48_linear_242_94807)"/>
<path d="M116.017 153.515L115.626 155.273L113.868 155.468L115.138 156.347C114.942 157.031 114.649 157.422 114.649 158.105L115.919 157.031L117.189 157.91C116.993 157.226 116.993 157.031 116.7 156.347L117.97 155.273L116.212 155.468C116.212 154.492 116.212 154.003 116.017 153.515Z" fill="url(#paint49_linear_242_94807)"/>
<path d="M111.132 133.396C110.937 134.08 110.644 134.471 110.644 135.154L108.886 135.35L110.155 136.229C109.96 136.912 109.96 137.303 109.765 137.987L111.034 136.912L112.304 137.791C112.109 137.108 112.109 136.912 111.913 136.229L113.183 135.154L111.425 135.35L111.132 133.396Z" fill="url(#paint50_linear_242_94807)"/>
<path d="M116.017 120.601C115.821 121.285 115.821 121.676 115.626 122.359L113.868 122.555L115.138 123.434C114.942 124.117 114.649 124.508 114.649 125.191L115.919 124.117L117.189 124.996C116.993 124.313 116.993 124.117 116.7 123.434L117.97 122.359L116.212 122.555C116.212 121.48 116.212 121.285 116.017 120.601Z" fill="url(#paint51_linear_242_94807)"/>
<path d="M116.017 137.108C115.821 137.792 115.821 138.182 115.626 138.866L113.868 139.061L115.138 139.94C114.942 140.624 114.942 141.014 114.649 141.698L115.919 140.624L117.189 141.503C116.993 140.819 116.993 140.624 116.7 139.94L117.97 138.866L116.212 139.061C116.212 137.987 116.212 137.792 116.017 137.108Z" fill="url(#paint52_linear_242_94807)"/>
<path d="M126.27 154.003C126.074 153.319 126.074 153.124 125.879 152.44L125.488 154.198L123.73 154.393L125 155.272C124.805 155.956 124.805 156.346 124.512 157.03C125 156.639 125.391 156.346 125.879 155.956L127.149 156.835C126.953 156.151 126.758 155.956 126.758 155.272L128.028 154.198L126.27 154.003Z" fill="url(#paint53_linear_242_94807)"/>
<path d="M121.288 150.486C121.093 149.803 121.093 149.607 120.898 148.924C120.702 149.607 120.702 149.998 120.409 150.682L118.651 150.877L119.921 151.756C119.726 152.44 119.433 152.83 119.433 153.514L120.702 152.44L121.972 153.319C121.777 152.635 121.581 152.44 121.581 151.756L122.851 150.682L121.288 150.486Z" fill="url(#paint54_linear_242_94807)"/>
<path d="M120.8 124.117C120.605 124.996 120.605 125.192 120.409 125.875L118.651 126.071L119.921 126.95C119.726 127.633 119.433 128.024 119.433 128.708L120.702 127.633L121.972 128.512C121.777 127.829 121.484 127.633 121.484 126.95L122.753 125.875L120.995 126.071C121.288 125.192 121.093 124.801 120.8 124.117Z" fill="url(#paint55_linear_242_94807)"/>
<path d="M120.8 140.623C120.605 141.307 120.605 141.698 120.312 142.381L118.554 142.577L119.823 143.456C119.628 144.139 119.335 144.53 119.335 145.213L120.605 144.139L121.874 145.018C121.679 144.334 121.484 144.139 121.484 143.456L122.753 142.381L120.995 142.577C121.288 141.502 121.093 141.307 120.8 140.623Z" fill="url(#paint56_linear_242_94807)"/>
<path d="M120.8 132.517C120.605 133.201 120.605 133.591 120.312 134.275L118.554 134.47L119.823 135.349C119.628 136.033 119.335 136.424 119.335 137.107L120.605 136.033L121.874 136.912C121.679 136.228 121.484 136.033 121.484 135.349L122.753 134.275L120.995 134.47C121.288 133.396 121.093 133.103 120.8 132.517Z" fill="url(#paint57_linear_242_94807)"/>
</g>
<defs>
<linearGradient id="paint0_linear_242_94807" x1="205.893" y1="29.5905" x2="46.6429" y2="217.341" gradientUnits="userSpaceOnUse">
<stop stop-color="#B6509E"/>
<stop offset="1" stop-color="#2EBAC6"/>
</linearGradient>
<linearGradient id="paint1_linear_242_94807" x1="83.2316" y1="187.179" x2="197.947" y2="187.179" gradientUnits="userSpaceOnUse">
<stop stop-color="#600000"/>
<stop offset="0.33" stop-color="#630000"/>
<stop offset="0.59" stop-color="#6D0000"/>
<stop offset="0.83" stop-color="#7E0000"/>
<stop offset="1" stop-color="#8F0000"/>
</linearGradient>
<linearGradient id="paint2_linear_242_94807" x1="140.589" y1="176.744" x2="140.589" y2="197.464" gradientUnits="userSpaceOnUse">
<stop offset="0.35" stop-color="#BF1010"/>
<stop offset="0.65" stop-color="#BD1010"/>
<stop offset="0.75" stop-color="#B60F0F"/>
<stop offset="0.83" stop-color="#AB0D0D"/>
<stop offset="0.89" stop-color="#9A0A0A"/>
<stop offset="0.94" stop-color="#840606"/>
<stop offset="0.99" stop-color="#690202"/>
<stop offset="1" stop-color="#600000"/>
</linearGradient>
<linearGradient id="paint3_linear_242_94807" x1="83.0313" y1="152.324" x2="197.729" y2="152.324" gradientUnits="userSpaceOnUse">
<stop stop-color="#BF1010"/>
<stop offset="0.02" stop-color="#C11212"/>
<stop offset="0.24" stop-color="#D22323"/>
<stop offset="0.49" stop-color="#DC2D2D"/>
<stop offset="0.79" stop-color="#DF3030"/>
<stop offset="0.84" stop-color="#DC2E2E"/>
<stop offset="0.88" stop-color="#D22626"/>
<stop offset="0.92" stop-color="#C11919"/>
<stop offset="0.95" stop-color="#A90808"/>
<stop offset="0.97" stop-color="#9F0000"/>
<stop offset="1" stop-color="#DF3030"/>
</linearGradient>
<linearGradient id="paint4_linear_242_94807" x1="83.0312" y1="140.551" x2="197.772" y2="140.551" gradientUnits="userSpaceOnUse">
<stop stop-color="#DFDFDF"/>
<stop offset="0.02" stop-color="#E1E1E1"/>
<stop offset="0.24" stop-color="#F2F2F2"/>
<stop offset="0.49" stop-color="#FCFCFC"/>
<stop offset="0.79" stop-color="white"/>
<stop offset="0.84" stop-color="#FCFCFC"/>
<stop offset="0.88" stop-color="#F2F2F2"/>
<stop offset="0.92" stop-color="#E1E1E1"/>
<stop offset="0.95" stop-color="#C9C9C9"/>
<stop offset="0.97" stop-color="#BFBFBF"/>
<stop offset="1" stop-color="white"/>
</linearGradient>
<linearGradient id="paint5_linear_242_94807" x1="83.2529" y1="170.042" x2="197.95" y2="170.042" gradientUnits="userSpaceOnUse">
<stop stop-color="#DFDFDF"/>
<stop offset="0.02" stop-color="#E1E1E1"/>
<stop offset="0.24" stop-color="#F2F2F2"/>
<stop offset="0.49" stop-color="#FCFCFC"/>
<stop offset="0.79" stop-color="white"/>
<stop offset="0.84" stop-color="#FCFCFC"/>
<stop offset="0.88" stop-color="#F2F2F2"/>
<stop offset="0.92" stop-color="#E1E1E1"/>
<stop offset="0.95" stop-color="#C9C9C9"/>
<stop offset="0.97" stop-color="#BFBFBF"/>
<stop offset="1" stop-color="white"/>
</linearGradient>
<linearGradient id="paint6_linear_242_94807" x1="83.0313" y1="181.798" x2="197.751" y2="181.798" gradientUnits="userSpaceOnUse">
<stop stop-color="#DFDFDF"/>
<stop offset="0.02" stop-color="#E1E1E1"/>
<stop offset="0.24" stop-color="#F2F2F2"/>
<stop offset="0.49" stop-color="#FCFCFC"/>
<stop offset="0.79" stop-color="white"/>
<stop offset="0.84" stop-color="#FCFCFC"/>
<stop offset="0.88" stop-color="#F2F2F2"/>
<stop offset="0.92" stop-color="#E1E1E1"/>
<stop offset="0.95" stop-color="#C9C9C9"/>
<stop offset="0.97" stop-color="#BFBFBF"/>
<stop offset="1" stop-color="white"/>
</linearGradient>
<linearGradient id="paint7_linear_242_94807" x1="83.1416" y1="138.62" x2="197.882" y2="138.62" gradientUnits="userSpaceOnUse">
<stop stop-color="#00209F"/>
<stop offset="0.02" stop-color="#0222A1"/>
<stop offset="0.24" stop-color="#1333B2"/>
<stop offset="0.49" stop-color="#1D3DBC"/>
<stop offset="0.79" stop-color="#2040BF"/>
<stop offset="0.84" stop-color="#1E3DBC"/>
<stop offset="0.88" stop-color="#1933B2"/>
<stop offset="0.92" stop-color="#1122A1"/>
<stop offset="0.95" stop-color="#050A89"/>
<stop offset="0.97" stop-color="#00007F"/>
<stop offset="1" stop-color="#2040BF"/>
</linearGradient>
<linearGradient id="paint8_linear_242_94807" x1="83.1399" y1="124.118" x2="197.888" y2="124.118" gradientUnits="userSpaceOnUse">
<stop stop-color="#DFDFDF"/>
<stop offset="0.02" stop-color="#E1E1E1"/>
<stop offset="0.24" stop-color="#F2F2F2"/>
<stop offset="0.49" stop-color="#FCFCFC"/>
<stop offset="0.79" stop-color="white"/>
<stop offset="0.84" stop-color="#FCFCFC"/>
<stop offset="0.88" stop-color="#F2F2F2"/>
<stop offset="0.92" stop-color="#E1E1E1"/>
<stop offset="0.95" stop-color="#C9C9C9"/>
<stop offset="0.97" stop-color="#BFBFBF"/>
<stop offset="1" stop-color="white"/>
</linearGradient>
<linearGradient id="paint9_linear_242_94807" x1="83.1415" y1="144.554" x2="197.889" y2="144.554" gradientUnits="userSpaceOnUse">
<stop stop-color="#DFDFDF"/>
<stop offset="0.02" stop-color="#E1E1E1"/>
<stop offset="0.24" stop-color="#F2F2F2"/>
<stop offset="0.49" stop-color="#FCFCFC"/>
<stop offset="0.79" stop-color="white"/>
<stop offset="0.84" stop-color="#FCFCFC"/>
<stop offset="0.88" stop-color="#F2F2F2"/>
<stop offset="0.92" stop-color="#E1E1E1"/>
<stop offset="0.95" stop-color="#C9C9C9"/>
<stop offset="0.97" stop-color="#BFBFBF"/>
<stop offset="1" stop-color="white"/>
</linearGradient>
<linearGradient id="paint10_linear_242_94807" x1="83.1415" y1="152.683" x2="197.889" y2="152.683" gradientUnits="userSpaceOnUse">
<stop stop-color="#DFDFDF"/>
<stop offset="0.02" stop-color="#E1E1E1"/>
<stop offset="0.24" stop-color="#F2F2F2"/>
<stop offset="0.49" stop-color="#FCFCFC"/>
<stop offset="0.79" stop-color="white"/>
<stop offset="0.84" stop-color="#FCFCFC"/>
<stop offset="0.88" stop-color="#F2F2F2"/>
<stop offset="0.92" stop-color="#E1E1E1"/>
<stop offset="0.95" stop-color="#C9C9C9"/>
<stop offset="0.97" stop-color="#BFBFBF"/>
<stop offset="1" stop-color="white"/>
</linearGradient>
<linearGradient id="paint11_linear_242_94807" x1="83.1399" y1="140.598" x2="197.888" y2="140.598" gradientUnits="userSpaceOnUse">
<stop stop-color="#DFDFDF"/>
<stop offset="0.02" stop-color="#E1E1E1"/>
<stop offset="0.24" stop-color="#F2F2F2"/>
<stop offset="0.49" stop-color="#FCFCFC"/>
<stop offset="0.79" stop-color="white"/>
<stop offset="0.84" stop-color="#FCFCFC"/>
<stop offset="0.88" stop-color="#F2F2F2"/>
<stop offset="0.92" stop-color="#E1E1E1"/>
<stop offset="0.95" stop-color="#C9C9C9"/>
<stop offset="0.97" stop-color="#BFBFBF"/>
<stop offset="1" stop-color="white"/>
</linearGradient>
<linearGradient id="paint12_linear_242_94807" x1="83.1399" y1="148.728" x2="197.888" y2="148.728" gradientUnits="userSpaceOnUse">
<stop stop-color="#DFDFDF"/>
<stop offset="0.02" stop-color="#E1E1E1"/>
<stop offset="0.24" stop-color="#F2F2F2"/>
<stop offset="0.49" stop-color="#FCFCFC"/>
<stop offset="0.79" stop-color="white"/>
<stop offset="0.84" stop-color="#FCFCFC"/>
<stop offset="0.88" stop-color="#F2F2F2"/>
<stop offset="0.92" stop-color="#E1E1E1"/>
<stop offset="0.95" stop-color="#C9C9C9"/>
<stop offset="0.97" stop-color="#BFBFBF"/>
<stop offset="1" stop-color="white"/>
</linearGradient>
<linearGradient id="paint13_linear_242_94807" x1="83.1399" y1="132.468" x2="197.888" y2="132.468" gradientUnits="userSpaceOnUse">
<stop stop-color="#DFDFDF"/>
<stop offset="0.02" stop-color="#E1E1E1"/>
<stop offset="0.24" stop-color="#F2F2F2"/>
<stop offset="0.49" stop-color="#FCFCFC"/>
<stop offset="0.79" stop-color="white"/>
<stop offset="0.84" stop-color="#FCFCFC"/>
<stop offset="0.88" stop-color="#F2F2F2"/>
<stop offset="0.92" stop-color="#E1E1E1"/>
<stop offset="0.95" stop-color="#C9C9C9"/>
<stop offset="0.97" stop-color="#BFBFBF"/>
<stop offset="1" stop-color="white"/>
</linearGradient>
<linearGradient id="paint14_linear_242_94807" x1="83.1399" y1="152.132" x2="197.91" y2="152.132" gradientUnits="userSpaceOnUse">
<stop stop-color="#DFDFDF"/>
<stop offset="0.02" stop-color="#E1E1E1"/>
<stop offset="0.24" stop-color="#F2F2F2"/>
<stop offset="0.49" stop-color="#FCFCFC"/>
<stop offset="0.79" stop-color="white"/>
<stop offset="0.84" stop-color="#FCFCFC"/>
<stop offset="0.88" stop-color="#F2F2F2"/>
<stop offset="0.92" stop-color="#E1E1E1"/>
<stop offset="0.95" stop-color="#C9C9C9"/>
<stop offset="0.97" stop-color="#BFBFBF"/>
<stop offset="1" stop-color="white"/>
</linearGradient>
<linearGradient id="paint15_linear_242_94807" x1="83.1415" y1="136.202" x2="197.889" y2="136.202" gradientUnits="userSpaceOnUse">
<stop stop-color="#DFDFDF"/>
<stop offset="0.02" stop-color="#E1E1E1"/>
<stop offset="0.24" stop-color="#F2F2F2"/>
<stop offset="0.49" stop-color="#FCFCFC"/>
<stop offset="0.79" stop-color="white"/>
<stop offset="0.84" stop-color="#FCFCFC"/>
<stop offset="0.88" stop-color="#F2F2F2"/>
<stop offset="0.92" stop-color="#E1E1E1"/>
<stop offset="0.95" stop-color="#C9C9C9"/>
<stop offset="0.97" stop-color="#BFBFBF"/>
<stop offset="1" stop-color="white"/>
</linearGradient>
<linearGradient id="paint16_linear_242_94807" x1="83.1393" y1="148.288" x2="197.887" y2="148.288" gradientUnits="userSpaceOnUse">
<stop stop-color="#DFDFDF"/>
<stop offset="0.02" stop-color="#E1E1E1"/>
<stop offset="0.24" stop-color="#F2F2F2"/>
<stop offset="0.49" stop-color="#FCFCFC"/>
<stop offset="0.79" stop-color="white"/>
<stop offset="0.84" stop-color="#FCFCFC"/>
<stop offset="0.88" stop-color="#F2F2F2"/>
<stop offset="0.92" stop-color="#E1E1E1"/>
<stop offset="0.95" stop-color="#C9C9C9"/>
<stop offset="0.97" stop-color="#BFBFBF"/>
<stop offset="1" stop-color="white"/>
</linearGradient>
<linearGradient id="paint17_linear_242_94807" x1="83.1392" y1="156.528" x2="197.887" y2="156.528" gradientUnits="userSpaceOnUse">
<stop stop-color="#DFDFDF"/>
<stop offset="0.02" stop-color="#E1E1E1"/>
<stop offset="0.24" stop-color="#F2F2F2"/>
<stop offset="0.49" stop-color="#FCFCFC"/>
<stop offset="0.79" stop-color="white"/>
<stop offset="0.84" stop-color="#FCFCFC"/>
<stop offset="0.88" stop-color="#F2F2F2"/>
<stop offset="0.92" stop-color="#E1E1E1"/>
<stop offset="0.95" stop-color="#C9C9C9"/>
<stop offset="0.97" stop-color="#BFBFBF"/>
<stop offset="1" stop-color="white"/>
</linearGradient>
<linearGradient id="paint18_linear_242_94807" x1="83.1415" y1="128.072" x2="197.889" y2="128.072" gradientUnits="userSpaceOnUse">
<stop stop-color="#DFDFDF"/>
<stop offset="0.02" stop-color="#E1E1E1"/>
<stop offset="0.24" stop-color="#F2F2F2"/>
<stop offset="0.49" stop-color="#FCFCFC"/>
<stop offset="0.79" stop-color="white"/>
<stop offset="0.84" stop-color="#FCFCFC"/>
<stop offset="0.88" stop-color="#F2F2F2"/>
<stop offset="0.92" stop-color="#E1E1E1"/>
<stop offset="0.95" stop-color="#C9C9C9"/>
<stop offset="0.97" stop-color="#BFBFBF"/>
<stop offset="1" stop-color="white"/>
</linearGradient>
<linearGradient id="paint19_linear_242_94807" x1="83.1393" y1="139.939" x2="197.887" y2="139.939" gradientUnits="userSpaceOnUse">
<stop stop-color="#DFDFDF"/>
<stop offset="0.02" stop-color="#E1E1E1"/>
<stop offset="0.24" stop-color="#F2F2F2"/>
<stop offset="0.49" stop-color="#FCFCFC"/>
<stop offset="0.79" stop-color="white"/>
<stop offset="0.84" stop-color="#FCFCFC"/>
<stop offset="0.88" stop-color="#F2F2F2"/>
<stop offset="0.92" stop-color="#E1E1E1"/>
<stop offset="0.95" stop-color="#C9C9C9"/>
<stop offset="0.97" stop-color="#BFBFBF"/>
<stop offset="1" stop-color="white"/>
</linearGradient>
<linearGradient id="paint20_linear_242_94807" x1="83.1399" y1="157.076" x2="197.888" y2="157.076" gradientUnits="userSpaceOnUse">
<stop stop-color="#DFDFDF"/>
<stop offset="0.02" stop-color="#E1E1E1"/>
<stop offset="0.24" stop-color="#F2F2F2"/>
<stop offset="0.49" stop-color="#FCFCFC"/>
<stop offset="0.79" stop-color="white"/>
<stop offset="0.84" stop-color="#FCFCFC"/>
<stop offset="0.88" stop-color="#F2F2F2"/>
<stop offset="0.92" stop-color="#E1E1E1"/>
<stop offset="0.95" stop-color="#C9C9C9"/>
<stop offset="0.97" stop-color="#BFBFBF"/>
<stop offset="1" stop-color="white"/>
</linearGradient>
<linearGradient id="paint21_linear_242_94807" x1="83.1415" y1="140.709" x2="197.912" y2="140.709" gradientUnits="userSpaceOnUse">
<stop stop-color="#DFDFDF"/>
<stop offset="0.02" stop-color="#E1E1E1"/>
<stop offset="0.24" stop-color="#F2F2F2"/>
<stop offset="0.49" stop-color="#FCFCFC"/>
<stop offset="0.79" stop-color="white"/>
<stop offset="0.84" stop-color="#FCFCFC"/>
<stop offset="0.88" stop-color="#F2F2F2"/>
<stop offset="0.92" stop-color="#E1E1E1"/>
<stop offset="0.95" stop-color="#C9C9C9"/>
<stop offset="0.97" stop-color="#BFBFBF"/>
<stop offset="1" stop-color="white"/>
</linearGradient>
<linearGradient id="paint22_linear_242_94807" x1="83.1415" y1="132.578" x2="197.912" y2="132.578" gradientUnits="userSpaceOnUse">
<stop stop-color="#DFDFDF"/>
<stop offset="0.02" stop-color="#E1E1E1"/>
<stop offset="0.24" stop-color="#F2F2F2"/>
<stop offset="0.49" stop-color="#FCFCFC"/>
<stop offset="0.79" stop-color="white"/>
<stop offset="0.84" stop-color="#FCFCFC"/>
<stop offset="0.88" stop-color="#F2F2F2"/>
<stop offset="0.92" stop-color="#E1E1E1"/>
<stop offset="0.95" stop-color="#C9C9C9"/>
<stop offset="0.97" stop-color="#BFBFBF"/>
<stop offset="1" stop-color="white"/>
</linearGradient>
<linearGradient id="paint23_linear_242_94807" x1="83.1415" y1="157.297" x2="197.868" y2="157.297" gradientUnits="userSpaceOnUse">
<stop stop-color="#DFDFDF"/>
<stop offset="0.02" stop-color="#E1E1E1"/>
<stop offset="0.24" stop-color="#F2F2F2"/>
<stop offset="0.49" stop-color="#FCFCFC"/>
<stop offset="0.79" stop-color="white"/>
<stop offset="0.84" stop-color="#FCFCFC"/>
<stop offset="0.88" stop-color="#F2F2F2"/>
<stop offset="0.92" stop-color="#E1E1E1"/>
<stop offset="0.95" stop-color="#C9C9C9"/>
<stop offset="0.97" stop-color="#BFBFBF"/>
<stop offset="1" stop-color="white"/>
</linearGradient>
<linearGradient id="paint24_linear_242_94807" x1="83.1412" y1="131.919" x2="197.889" y2="131.919" gradientUnits="userSpaceOnUse">
<stop stop-color="#DFDFDF"/>
<stop offset="0.02" stop-color="#E1E1E1"/>
<stop offset="0.24" stop-color="#F2F2F2"/>
<stop offset="0.49" stop-color="#FCFCFC"/>
<stop offset="0.79" stop-color="white"/>
<stop offset="0.84" stop-color="#FCFCFC"/>
<stop offset="0.88" stop-color="#F2F2F2"/>
<stop offset="0.92" stop-color="#E1E1E1"/>
<stop offset="0.95" stop-color="#C9C9C9"/>
<stop offset="0.97" stop-color="#BFBFBF"/>
<stop offset="1" stop-color="white"/>
</linearGradient>
<linearGradient id="paint25_linear_242_94807" x1="83.1412" y1="123.789" x2="197.889" y2="123.789" gradientUnits="userSpaceOnUse">
<stop stop-color="#DFDFDF"/>
<stop offset="0.02" stop-color="#E1E1E1"/>
<stop offset="0.24" stop-color="#F2F2F2"/>
<stop offset="0.49" stop-color="#FCFCFC"/>
<stop offset="0.79" stop-color="white"/>
<stop offset="0.84" stop-color="#FCFCFC"/>
<stop offset="0.88" stop-color="#F2F2F2"/>
<stop offset="0.92" stop-color="#E1E1E1"/>
<stop offset="0.95" stop-color="#C9C9C9"/>
<stop offset="0.97" stop-color="#BFBFBF"/>
<stop offset="1" stop-color="white"/>
</linearGradient>
<linearGradient id="paint26_linear_242_94807" x1="83.1415" y1="149.169" x2="197.889" y2="149.169" gradientUnits="userSpaceOnUse">
<stop stop-color="#DFDFDF"/>
<stop offset="0.02" stop-color="#E1E1E1"/>
<stop offset="0.24" stop-color="#F2F2F2"/>
<stop offset="0.49" stop-color="#FCFCFC"/>
<stop offset="0.79" stop-color="white"/>
<stop offset="0.84" stop-color="#FCFCFC"/>
<stop offset="0.88" stop-color="#F2F2F2"/>
<stop offset="0.92" stop-color="#E1E1E1"/>
<stop offset="0.95" stop-color="#C9C9C9"/>
<stop offset="0.97" stop-color="#BFBFBF"/>
<stop offset="1" stop-color="white"/>
</linearGradient>
<linearGradient id="paint27_linear_242_94807" x1="83.1412" y1="128.513" x2="197.889" y2="128.513" gradientUnits="userSpaceOnUse">
<stop stop-color="#DFDFDF"/>
<stop offset="0.02" stop-color="#E1E1E1"/>
<stop offset="0.24" stop-color="#F2F2F2"/>
<stop offset="0.49" stop-color="#FCFCFC"/>
<stop offset="0.79" stop-color="white"/>
<stop offset="0.84" stop-color="#FCFCFC"/>
<stop offset="0.88" stop-color="#F2F2F2"/>
<stop offset="0.92" stop-color="#E1E1E1"/>
<stop offset="0.95" stop-color="#C9C9C9"/>
<stop offset="0.97" stop-color="#BFBFBF"/>
<stop offset="1" stop-color="white"/>
</linearGradient>
<linearGradient id="paint28_linear_242_94807" x1="83.1431" y1="136.642" x2="197.891" y2="136.642" gradientUnits="userSpaceOnUse">
<stop stop-color="#DFDFDF"/>
<stop offset="0.02" stop-color="#E1E1E1"/>
<stop offset="0.24" stop-color="#F2F2F2"/>
<stop offset="0.49" stop-color="#FCFCFC"/>
<stop offset="0.79" stop-color="white"/>
<stop offset="0.84" stop-color="#FCFCFC"/>
<stop offset="0.88" stop-color="#F2F2F2"/>
<stop offset="0.92" stop-color="#E1E1E1"/>
<stop offset="0.95" stop-color="#C9C9C9"/>
<stop offset="0.97" stop-color="#BFBFBF"/>
<stop offset="1" stop-color="white"/>
</linearGradient>
<linearGradient id="paint29_linear_242_94807" x1="83.1431" y1="153.012" x2="197.891" y2="153.012" gradientUnits="userSpaceOnUse">
<stop stop-color="#DFDFDF"/>
<stop offset="0.02" stop-color="#E1E1E1"/>
<stop offset="0.24" stop-color="#F2F2F2"/>
<stop offset="0.49" stop-color="#FCFCFC"/>
<stop offset="0.79" stop-color="white"/>
<stop offset="0.84" stop-color="#FCFCFC"/>
<stop offset="0.88" stop-color="#F2F2F2"/>
<stop offset="0.92" stop-color="#E1E1E1"/>
<stop offset="0.95" stop-color="#C9C9C9"/>
<stop offset="0.97" stop-color="#BFBFBF"/>
<stop offset="1" stop-color="white"/>
</linearGradient>
<linearGradient id="paint30_linear_242_94807" x1="83.1412" y1="144.772" x2="197.889" y2="144.772" gradientUnits="userSpaceOnUse">
<stop stop-color="#DFDFDF"/>
<stop offset="0.02" stop-color="#E1E1E1"/>
<stop offset="0.24" stop-color="#F2F2F2"/>
<stop offset="0.49" stop-color="#FCFCFC"/>
<stop offset="0.79" stop-color="white"/>
<stop offset="0.84" stop-color="#FCFCFC"/>
<stop offset="0.88" stop-color="#F2F2F2"/>
<stop offset="0.92" stop-color="#E1E1E1"/>
<stop offset="0.95" stop-color="#C9C9C9"/>
<stop offset="0.97" stop-color="#BFBFBF"/>
<stop offset="1" stop-color="white"/>
</linearGradient>
<linearGradient id="paint31_linear_242_94807" x1="83.1415" y1="124.339" x2="197.912" y2="124.339" gradientUnits="userSpaceOnUse">
<stop stop-color="#DFDFDF"/>
<stop offset="0.02" stop-color="#E1E1E1"/>
<stop offset="0.24" stop-color="#F2F2F2"/>
<stop offset="0.49" stop-color="#FCFCFC"/>
<stop offset="0.79" stop-color="white"/>
<stop offset="0.84" stop-color="#FCFCFC"/>
<stop offset="0.88" stop-color="#F2F2F2"/>
<stop offset="0.92" stop-color="#E1E1E1"/>
<stop offset="0.95" stop-color="#C9C9C9"/>
<stop offset="0.97" stop-color="#BFBFBF"/>
<stop offset="1" stop-color="white"/>
</linearGradient>
<linearGradient id="paint32_linear_242_94807" x1="83.1399" y1="143.783" x2="197.91" y2="143.783" gradientUnits="userSpaceOnUse">
<stop stop-color="#DFDFDF"/>
<stop offset="0.02" stop-color="#E1E1E1"/>
<stop offset="0.24" stop-color="#F2F2F2"/>
<stop offset="0.49" stop-color="#FCFCFC"/>
<stop offset="0.79" stop-color="white"/>
<stop offset="0.84" stop-color="#FCFCFC"/>
<stop offset="0.88" stop-color="#F2F2F2"/>
<stop offset="0.92" stop-color="#E1E1E1"/>
<stop offset="0.95" stop-color="#C9C9C9"/>
<stop offset="0.97" stop-color="#BFBFBF"/>
<stop offset="1" stop-color="white"/>
</linearGradient>
<linearGradient id="paint33_linear_242_94807" x1="83.161" y1="141.807" x2="197.887" y2="141.807" gradientUnits="userSpaceOnUse">
<stop stop-color="#DFDFDF"/>
<stop offset="0.02" stop-color="#E1E1E1"/>
<stop offset="0.24" stop-color="#F2F2F2"/>
<stop offset="0.49" stop-color="#FCFCFC"/>
<stop offset="0.79" stop-color="white"/>
<stop offset="0.84" stop-color="#FCFCFC"/>
<stop offset="0.88" stop-color="#F2F2F2"/>
<stop offset="0.92" stop-color="#E1E1E1"/>
<stop offset="0.95" stop-color="#C9C9C9"/>
<stop offset="0.97" stop-color="#BFBFBF"/>
<stop offset="1" stop-color="white"/>
</linearGradient>
<linearGradient id="paint34_linear_242_94807" x1="83.1591" y1="133.456" x2="197.885" y2="133.456" gradientUnits="userSpaceOnUse">
<stop stop-color="#DFDFDF"/>
<stop offset="0.02" stop-color="#E1E1E1"/>
<stop offset="0.24" stop-color="#F2F2F2"/>
<stop offset="0.49" stop-color="#FCFCFC"/>
<stop offset="0.79" stop-color="white"/>
<stop offset="0.84" stop-color="#FCFCFC"/>
<stop offset="0.88" stop-color="#F2F2F2"/>
<stop offset="0.92" stop-color="#E1E1E1"/>
<stop offset="0.95" stop-color="#C9C9C9"/>
<stop offset="0.97" stop-color="#BFBFBF"/>
<stop offset="1" stop-color="white"/>
</linearGradient>
<linearGradient id="paint35_linear_242_94807" x1="83.161" y1="149.936" x2="197.887" y2="149.936" gradientUnits="userSpaceOnUse">
<stop stop-color="#DFDFDF"/>
<stop offset="0.02" stop-color="#E1E1E1"/>
<stop offset="0.24" stop-color="#F2F2F2"/>
<stop offset="0.49" stop-color="#FCFCFC"/>
<stop offset="0.79" stop-color="white"/>
<stop offset="0.84" stop-color="#FCFCFC"/>
<stop offset="0.88" stop-color="#F2F2F2"/>
<stop offset="0.92" stop-color="#E1E1E1"/>
<stop offset="0.95" stop-color="#C9C9C9"/>
<stop offset="0.97" stop-color="#BFBFBF"/>
<stop offset="1" stop-color="white"/>
</linearGradient>
<linearGradient id="paint36_linear_242_94807" x1="83.14" y1="130.053" x2="197.91" y2="130.053" gradientUnits="userSpaceOnUse">
<stop stop-color="#DFDFDF"/>
<stop offset="0.02" stop-color="#E1E1E1"/>
<stop offset="0.24" stop-color="#F2F2F2"/>
<stop offset="0.49" stop-color="#FCFCFC"/>
<stop offset="0.79" stop-color="white"/>
<stop offset="0.84" stop-color="#FCFCFC"/>
<stop offset="0.88" stop-color="#F2F2F2"/>
<stop offset="0.92" stop-color="#E1E1E1"/>
<stop offset="0.95" stop-color="#C9C9C9"/>
<stop offset="0.97" stop-color="#BFBFBF"/>
<stop offset="1" stop-color="white"/>
</linearGradient>
<linearGradient id="paint37_linear_242_94807" x1="83.1591" y1="125.328" x2="197.885" y2="125.328" gradientUnits="userSpaceOnUse">
<stop stop-color="#DFDFDF"/>
<stop offset="0.02" stop-color="#E1E1E1"/>
<stop offset="0.24" stop-color="#F2F2F2"/>
<stop offset="0.49" stop-color="#FCFCFC"/>
<stop offset="0.79" stop-color="white"/>
<stop offset="0.84" stop-color="#FCFCFC"/>
<stop offset="0.88" stop-color="#F2F2F2"/>
<stop offset="0.92" stop-color="#E1E1E1"/>
<stop offset="0.95" stop-color="#C9C9C9"/>
<stop offset="0.97" stop-color="#BFBFBF"/>
<stop offset="1" stop-color="white"/>
</linearGradient>
<linearGradient id="paint38_linear_242_94807" x1="83.14" y1="121.812" x2="197.91" y2="121.812" gradientUnits="userSpaceOnUse">
<stop stop-color="#DFDFDF"/>
<stop offset="0.02" stop-color="#E1E1E1"/>
<stop offset="0.24" stop-color="#F2F2F2"/>
<stop offset="0.49" stop-color="#FCFCFC"/>
<stop offset="0.79" stop-color="white"/>
<stop offset="0.84" stop-color="#FCFCFC"/>
<stop offset="0.88" stop-color="#F2F2F2"/>
<stop offset="0.92" stop-color="#E1E1E1"/>
<stop offset="0.95" stop-color="#C9C9C9"/>
<stop offset="0.97" stop-color="#BFBFBF"/>
<stop offset="1" stop-color="white"/>
</linearGradient>
<linearGradient id="paint39_linear_242_94807" x1="83.1392" y1="136.973" x2="197.887" y2="136.973" gradientUnits="userSpaceOnUse">
<stop stop-color="#DFDFDF"/>
<stop offset="0.02" stop-color="#E1E1E1"/>
<stop offset="0.24" stop-color="#F2F2F2"/>
<stop offset="0.49" stop-color="#FCFCFC"/>
<stop offset="0.79" stop-color="white"/>
<stop offset="0.84" stop-color="#FCFCFC"/>
<stop offset="0.88" stop-color="#F2F2F2"/>
<stop offset="0.92" stop-color="#E1E1E1"/>
<stop offset="0.95" stop-color="#C9C9C9"/>
<stop offset="0.97" stop-color="#BFBFBF"/>
<stop offset="1" stop-color="white"/>
</linearGradient>
<linearGradient id="paint40_linear_242_94807" x1="83.1392" y1="128.844" x2="197.887" y2="128.844" gradientUnits="userSpaceOnUse">
<stop stop-color="#DFDFDF"/>
<stop offset="0.02" stop-color="#E1E1E1"/>
<stop offset="0.24" stop-color="#F2F2F2"/>
<stop offset="0.49" stop-color="#FCFCFC"/>
<stop offset="0.79" stop-color="white"/>
<stop offset="0.84" stop-color="#FCFCFC"/>
<stop offset="0.88" stop-color="#F2F2F2"/>
<stop offset="0.92" stop-color="#E1E1E1"/>
<stop offset="0.95" stop-color="#C9C9C9"/>
<stop offset="0.97" stop-color="#BFBFBF"/>
<stop offset="1" stop-color="white"/>
</linearGradient>
<linearGradient id="paint41_linear_242_94807" x1="83.1392" y1="153.45" x2="197.887" y2="153.45" gradientUnits="userSpaceOnUse">
<stop stop-color="#DFDFDF"/>
<stop offset="0.02" stop-color="#E1E1E1"/>
<stop offset="0.24" stop-color="#F2F2F2"/>
<stop offset="0.49" stop-color="#FCFCFC"/>
<stop offset="0.79" stop-color="white"/>
<stop offset="0.84" stop-color="#FCFCFC"/>
<stop offset="0.88" stop-color="#F2F2F2"/>
<stop offset="0.92" stop-color="#E1E1E1"/>
<stop offset="0.95" stop-color="#C9C9C9"/>
<stop offset="0.97" stop-color="#BFBFBF"/>
<stop offset="1" stop-color="white"/>
</linearGradient>
<linearGradient id="paint42_linear_242_94807" x1="83.1392" y1="120.712" x2="197.887" y2="120.712" gradientUnits="userSpaceOnUse">
<stop stop-color="#DFDFDF"/>
<stop offset="0.02" stop-color="#E1E1E1"/>
<stop offset="0.24" stop-color="#F2F2F2"/>
<stop offset="0.49" stop-color="#FCFCFC"/>
<stop offset="0.79" stop-color="white"/>
<stop offset="0.84" stop-color="#FCFCFC"/>
<stop offset="0.88" stop-color="#F2F2F2"/>
<stop offset="0.92" stop-color="#E1E1E1"/>
<stop offset="0.95" stop-color="#C9C9C9"/>
<stop offset="0.97" stop-color="#BFBFBF"/>
<stop offset="1" stop-color="white"/>
</linearGradient>
<linearGradient id="paint43_linear_242_94807" x1="83.1392" y1="145.214" x2="197.887" y2="145.214" gradientUnits="userSpaceOnUse">
<stop stop-color="#DFDFDF"/>
<stop offset="0.02" stop-color="#E1E1E1"/>
<stop offset="0.24" stop-color="#F2F2F2"/>
<stop offset="0.49" stop-color="#FCFCFC"/>
<stop offset="0.79" stop-color="white"/>
<stop offset="0.84" stop-color="#FCFCFC"/>
<stop offset="0.88" stop-color="#F2F2F2"/>
<stop offset="0.92" stop-color="#E1E1E1"/>
<stop offset="0.95" stop-color="#C9C9C9"/>
<stop offset="0.97" stop-color="#BFBFBF"/>
<stop offset="1" stop-color="white"/>
</linearGradient>
<linearGradient id="paint44_linear_242_94807" x1="83.14" y1="138.289" x2="197.91" y2="138.289" gradientUnits="userSpaceOnUse">
<stop stop-color="#DFDFDF"/>
<stop offset="0.02" stop-color="#E1E1E1"/>
<stop offset="0.24" stop-color="#F2F2F2"/>
<stop offset="0.49" stop-color="#FCFCFC"/>
<stop offset="0.79" stop-color="white"/>
<stop offset="0.84" stop-color="#FCFCFC"/>
<stop offset="0.88" stop-color="#F2F2F2"/>
<stop offset="0.92" stop-color="#E1E1E1"/>
<stop offset="0.95" stop-color="#C9C9C9"/>
<stop offset="0.97" stop-color="#BFBFBF"/>
<stop offset="1" stop-color="white"/>
</linearGradient>
<linearGradient id="paint45_linear_242_94807" x1="83.1399" y1="127.525" x2="197.91" y2="127.525" gradientUnits="userSpaceOnUse">
<stop stop-color="#DFDFDF"/>
<stop offset="0.02" stop-color="#E1E1E1"/>
<stop offset="0.24" stop-color="#F2F2F2"/>
<stop offset="0.49" stop-color="#FCFCFC"/>
<stop offset="0.79" stop-color="white"/>
<stop offset="0.84" stop-color="#FCFCFC"/>
<stop offset="0.88" stop-color="#F2F2F2"/>
<stop offset="0.92" stop-color="#E1E1E1"/>
<stop offset="0.95" stop-color="#C9C9C9"/>
<stop offset="0.97" stop-color="#BFBFBF"/>
<stop offset="1" stop-color="white"/>
</linearGradient>
<linearGradient id="paint46_linear_242_94807" x1="83.1415" y1="147.411" x2="197.889" y2="147.411" gradientUnits="userSpaceOnUse">
<stop stop-color="#DFDFDF"/>
<stop offset="0.02" stop-color="#E1E1E1"/>
<stop offset="0.24" stop-color="#F2F2F2"/>
<stop offset="0.49" stop-color="#FCFCFC"/>
<stop offset="0.79" stop-color="white"/>
<stop offset="0.84" stop-color="#FCFCFC"/>
<stop offset="0.88" stop-color="#F2F2F2"/>
<stop offset="0.92" stop-color="#E1E1E1"/>
<stop offset="0.95" stop-color="#C9C9C9"/>
<stop offset="0.97" stop-color="#BFBFBF"/>
<stop offset="1" stop-color="white"/>
</linearGradient>
<linearGradient id="paint47_linear_242_94807" x1="83.1399" y1="146.42" x2="197.91" y2="146.42" gradientUnits="userSpaceOnUse">
<stop stop-color="#DFDFDF"/>
<stop offset="0.02" stop-color="#E1E1E1"/>
<stop offset="0.24" stop-color="#F2F2F2"/>
<stop offset="0.49" stop-color="#FCFCFC"/>
<stop offset="0.79" stop-color="white"/>
<stop offset="0.84" stop-color="#FCFCFC"/>
<stop offset="0.88" stop-color="#F2F2F2"/>
<stop offset="0.92" stop-color="#E1E1E1"/>
<stop offset="0.95" stop-color="#C9C9C9"/>
<stop offset="0.97" stop-color="#BFBFBF"/>
<stop offset="1" stop-color="white"/>
</linearGradient>
<linearGradient id="paint48_linear_242_94807" x1="83.1415" y1="131.04" x2="197.889" y2="131.04" gradientUnits="userSpaceOnUse">
<stop stop-color="#DFDFDF"/>
<stop offset="0.02" stop-color="#E1E1E1"/>
<stop offset="0.24" stop-color="#F2F2F2"/>
<stop offset="0.49" stop-color="#FCFCFC"/>
<stop offset="0.79" stop-color="white"/>
<stop offset="0.84" stop-color="#FCFCFC"/>
<stop offset="0.88" stop-color="#F2F2F2"/>
<stop offset="0.92" stop-color="#E1E1E1"/>
<stop offset="0.95" stop-color="#C9C9C9"/>
<stop offset="0.97" stop-color="#BFBFBF"/>
<stop offset="1" stop-color="white"/>
</linearGradient>
<linearGradient id="paint49_linear_242_94807" x1="83.1415" y1="155.871" x2="197.889" y2="155.871" gradientUnits="userSpaceOnUse">
<stop stop-color="#DFDFDF"/>
<stop offset="0.02" stop-color="#E1E1E1"/>
<stop offset="0.24" stop-color="#F2F2F2"/>
<stop offset="0.49" stop-color="#FCFCFC"/>
<stop offset="0.79" stop-color="white"/>
<stop offset="0.84" stop-color="#FCFCFC"/>
<stop offset="0.88" stop-color="#F2F2F2"/>
<stop offset="0.92" stop-color="#E1E1E1"/>
<stop offset="0.95" stop-color="#C9C9C9"/>
<stop offset="0.97" stop-color="#BFBFBF"/>
<stop offset="1" stop-color="white"/>
</linearGradient>
<linearGradient id="paint50_linear_242_94807" x1="83.1399" y1="135.654" x2="197.91" y2="135.654" gradientUnits="userSpaceOnUse">
<stop stop-color="#DFDFDF"/>
<stop offset="0.02" stop-color="#E1E1E1"/>
<stop offset="0.24" stop-color="#F2F2F2"/>
<stop offset="0.49" stop-color="#FCFCFC"/>
<stop offset="0.79" stop-color="white"/>
<stop offset="0.84" stop-color="#FCFCFC"/>
<stop offset="0.88" stop-color="#F2F2F2"/>
<stop offset="0.92" stop-color="#E1E1E1"/>
<stop offset="0.95" stop-color="#C9C9C9"/>
<stop offset="0.97" stop-color="#BFBFBF"/>
<stop offset="1" stop-color="white"/>
</linearGradient>
<linearGradient id="paint51_linear_242_94807" x1="83.1415" y1="122.908" x2="197.912" y2="122.908" gradientUnits="userSpaceOnUse">
<stop stop-color="#DFDFDF"/>
<stop offset="0.02" stop-color="#E1E1E1"/>
<stop offset="0.24" stop-color="#F2F2F2"/>
<stop offset="0.49" stop-color="#FCFCFC"/>
<stop offset="0.79" stop-color="white"/>
<stop offset="0.84" stop-color="#FCFCFC"/>
<stop offset="0.88" stop-color="#F2F2F2"/>
<stop offset="0.92" stop-color="#E1E1E1"/>
<stop offset="0.95" stop-color="#C9C9C9"/>
<stop offset="0.97" stop-color="#BFBFBF"/>
<stop offset="1" stop-color="white"/>
</linearGradient>
<linearGradient id="paint52_linear_242_94807" x1="83.1415" y1="139.39" x2="197.889" y2="139.39" gradientUnits="userSpaceOnUse">
<stop stop-color="#DFDFDF"/>
<stop offset="0.02" stop-color="#E1E1E1"/>
<stop offset="0.24" stop-color="#F2F2F2"/>
<stop offset="0.49" stop-color="#FCFCFC"/>
<stop offset="0.79" stop-color="white"/>
<stop offset="0.84" stop-color="#FCFCFC"/>
<stop offset="0.88" stop-color="#F2F2F2"/>
<stop offset="0.92" stop-color="#E1E1E1"/>
<stop offset="0.95" stop-color="#C9C9C9"/>
<stop offset="0.97" stop-color="#BFBFBF"/>
<stop offset="1" stop-color="white"/>
</linearGradient>
<linearGradient id="paint53_linear_242_94807" x1="83.1398" y1="154.771" x2="197.91" y2="154.771" gradientUnits="userSpaceOnUse">
<stop stop-color="#DFDFDF"/>
<stop offset="0.02" stop-color="#E1E1E1"/>
<stop offset="0.24" stop-color="#F2F2F2"/>
<stop offset="0.49" stop-color="#FCFCFC"/>
<stop offset="0.79" stop-color="white"/>
<stop offset="0.84" stop-color="#FCFCFC"/>
<stop offset="0.88" stop-color="#F2F2F2"/>
<stop offset="0.92" stop-color="#E1E1E1"/>
<stop offset="0.95" stop-color="#C9C9C9"/>
<stop offset="0.97" stop-color="#BFBFBF"/>
<stop offset="1" stop-color="white"/>
</linearGradient>
<linearGradient id="paint54_linear_242_94807" x1="83.1392" y1="151.255" x2="197.887" y2="151.255" gradientUnits="userSpaceOnUse">
<stop stop-color="#DFDFDF"/>
<stop offset="0.02" stop-color="#E1E1E1"/>
<stop offset="0.24" stop-color="#F2F2F2"/>
<stop offset="0.49" stop-color="#FCFCFC"/>
<stop offset="0.79" stop-color="white"/>
<stop offset="0.84" stop-color="#FCFCFC"/>
<stop offset="0.88" stop-color="#F2F2F2"/>
<stop offset="0.92" stop-color="#E1E1E1"/>
<stop offset="0.95" stop-color="#C9C9C9"/>
<stop offset="0.97" stop-color="#BFBFBF"/>
<stop offset="1" stop-color="white"/>
</linearGradient>
<linearGradient id="paint55_linear_242_94807" x1="83.1393" y1="126.424" x2="197.887" y2="126.424" gradientUnits="userSpaceOnUse">
<stop stop-color="#DFDFDF"/>
<stop offset="0.02" stop-color="#E1E1E1"/>
<stop offset="0.24" stop-color="#F2F2F2"/>
<stop offset="0.49" stop-color="#FCFCFC"/>
<stop offset="0.79" stop-color="white"/>
<stop offset="0.84" stop-color="#FCFCFC"/>
<stop offset="0.88" stop-color="#F2F2F2"/>
<stop offset="0.92" stop-color="#E1E1E1"/>
<stop offset="0.95" stop-color="#C9C9C9"/>
<stop offset="0.97" stop-color="#BFBFBF"/>
<stop offset="1" stop-color="white"/>
</linearGradient>
<linearGradient id="paint56_linear_242_94807" x1="83.1393" y1="142.906" x2="197.887" y2="142.906" gradientUnits="userSpaceOnUse">
<stop stop-color="#DFDFDF"/>
<stop offset="0.02" stop-color="#E1E1E1"/>
<stop offset="0.24" stop-color="#F2F2F2"/>
<stop offset="0.49" stop-color="#FCFCFC"/>
<stop offset="0.79" stop-color="white"/>
<stop offset="0.84" stop-color="#FCFCFC"/>
<stop offset="0.88" stop-color="#F2F2F2"/>
<stop offset="0.92" stop-color="#E1E1E1"/>
<stop offset="0.95" stop-color="#C9C9C9"/>
<stop offset="0.97" stop-color="#BFBFBF"/>
<stop offset="1" stop-color="white"/>
</linearGradient>
<linearGradient id="paint57_linear_242_94807" x1="83.1393" y1="134.775" x2="197.887" y2="134.775" gradientUnits="userSpaceOnUse">
<stop stop-color="#DFDFDF"/>
<stop offset="0.02" stop-color="#E1E1E1"/>
<stop offset="0.24" stop-color="#F2F2F2"/>
<stop offset="0.49" stop-color="#FCFCFC"/>
<stop offset="0.79" stop-color="white"/>
<stop offset="0.84" stop-color="#FCFCFC"/>
<stop offset="0.88" stop-color="#F2F2F2"/>
<stop offset="0.92" stop-color="#E1E1E1"/>
<stop offset="0.95" stop-color="#C9C9C9"/>
<stop offset="0.97" stop-color="#BFBFBF"/>
<stop offset="1" stop-color="white"/>
</linearGradient>
<clipPath id="clip0_242_94807">
<rect width="250" height="250" fill="white"/>
</clipPath>
</defs>
</svg>
