<svg width="250" height="250" viewBox="0 0 250 250" fill="none" xmlns="http://www.w3.org/2000/svg">
<rect width="250" height="250" rx="125" fill="white"/>
<g clip-path="url(#clip0_242_94625)">
<path d="M111.535 97.9261V21.2386L92.0722 11.3623L74.3529 21.2386V99.6693C74.3529 99.6693 74.3529 110.127 78.71 119.132C78.71 119.131 88.2961 100.831 111.535 97.9261ZM77.1123 23.4173L92.2175 14.4125L108.195 22.5456L92.943 31.2604V100.686C84.9547 104.754 79.7261 111.434 79.7261 111.434C77.1121 107.948 77.1121 98.4298 77.1121 98.4298L77.1123 23.4173ZM180.524 100.395V59.5127L161.643 48.3976L144.504 58.5646L161.933 68.7334V100.105C161.933 100.105 158.738 163.139 114.004 158.201C114.004 158.201 112.988 142.839 127.075 132.348C140.728 122.181 138.695 103.011 138.695 103.011C138.695 103.011 133.176 101.558 121.266 101.849C109.356 102.139 84.3519 106.952 75.3696 136.416C68.1075 160.236 69.56 174.739 69.56 174.739V206.131H72.7179L88.1517 214.264C88.1517 214.264 87.5707 166.625 89.8945 151.81C92.2182 136.996 103.837 109.691 135.79 105.625C135.79 105.625 137.199 120.226 125.02 130.209C112.842 140.192 111.389 149.774 111.534 159.362C111.534 159.362 118.833 163.14 137.333 159.945V227.87L157.867 238.665L175.295 229.369V154.113C175.295 154.113 175.585 141.353 173.261 134.672C173.262 134.672 181.396 119.567 180.524 100.395ZM172.1 159.247V227.336L158.156 234.598L157.285 151.519C164.837 147.162 170.356 138.157 170.356 138.157C172.972 148.615 172.1 159.247 172.1 159.247Z" fill="#4E5979"/>
</g>
<defs>
<clipPath id="clip0_242_94625">
<rect width="227.302" height="227.302" fill="white" transform="translate(11.3652 11.3623)"/>
</clipPath>
</defs>
</svg>
