<svg width="250" height="250" viewBox="0 0 250 250" fill="none" xmlns="http://www.w3.org/2000/svg">
<path d="M124.748 248.699C193.176 248.699 248.648 193.227 248.648 124.799C248.648 56.3713 193.176 0.899414 124.748 0.899414C56.3196 0.899414 0.847656 56.3713 0.847656 124.799C0.847656 193.227 56.3196 248.699 124.748 248.699Z" fill="#172956"/>
<path d="M157.449 107.297C158.049 103.247 159.549 101.997 163.649 101.947C170.999 101.947 178.349 101.897 185.699 101.947C189.349 101.997 191.599 104.197 191.149 107.547C188.449 126.147 186.399 144.897 182.699 163.297C178.599 183.797 167.649 200.297 149.299 211.247C138.949 217.397 126.899 220.447 108.799 220.447C93.6488 220.147 76.4988 213.297 65.0988 195.597C56.5988 182.397 55.3988 167.797 57.5488 152.597C62.4988 118.247 67.3988 83.8465 72.2488 49.4465C72.9488 44.4965 74.5988 42.9965 79.5488 42.9465C86.6988 42.9465 93.7988 42.9465 100.949 42.9465C105.299 42.9465 106.699 44.5465 106.049 48.9465C102.149 76.4965 91.1488 151.597 90.9988 161.697C90.6988 180.597 102.899 189.397 122.099 186.747C136.649 184.747 146.399 175.147 149.649 159.097" fill="white"/>
<path d="M179.149 78.9977C175.449 78.9977 171.699 79.0477 167.999 78.9977C163.949 78.8977 161.899 76.5977 162.449 72.5977C163.549 64.3977 164.749 56.1977 165.999 48.0477C166.499 44.5977 168.399 42.9977 171.899 42.9977C179.549 42.9477 187.199 42.9477 194.849 42.9977C198.399 42.9977 200.049 44.6977 199.599 48.2477C198.499 57.0477 197.199 65.8477 195.849 74.6477C195.399 77.6977 193.249 78.9977 190.299 78.9977C186.549 79.0477 182.849 78.9977 179.149 78.9977Z" fill="white"/>
</svg>
