<svg width="250" height="250" viewBox="0 0 250 250" fill="none" xmlns="http://www.w3.org/2000/svg">
<rect width="250" height="250" rx="125" fill="white"/>
<g clip-path="url(#clip0_242_94613)">
<path d="M125.016 238.663C187.784 238.663 238.668 187.779 238.668 125.012C238.668 62.2437 187.784 11.3604 125.016 11.3604C62.2486 11.3604 11.3652 62.2437 11.3652 125.012C11.3652 187.779 62.2486 238.663 125.016 238.663Z" fill="black"/>
<path d="M125.016 20.4524C149.138 20.469 172.513 28.823 191.181 44.0993C209.849 59.3757 222.663 80.6354 227.452 104.277C232.241 127.919 228.711 152.489 217.459 173.826C206.208 195.163 187.927 211.955 165.713 221.358C140.165 232.124 111.388 232.307 85.7053 221.866C60.0228 211.424 39.5367 191.213 28.7491 165.675C17.9616 140.136 17.7553 111.359 28.1756 85.6676C38.5959 59.9766 58.7901 39.474 84.3202 28.6656C97.1949 23.2178 111.037 20.4243 125.016 20.4524ZM125.016 11.3604C62.2487 11.3604 11.3652 62.2438 11.3652 125.012C11.3652 187.779 62.2487 238.663 125.016 238.663C187.784 238.663 238.668 187.779 238.668 125.012C238.668 62.2438 187.784 11.3604 125.016 11.3604Z" fill="#FFA0E4"/>
<path d="M105.326 102.26H71.9902L76.5086 111.477H109.753L105.326 102.26Z" fill="#00A5FF"/>
<path d="M164.489 82.0627L129.929 153.486L114.67 121.715H81.5273L113.289 186.51H146.057L197.768 82.0627H164.489Z" fill="#00A5FF"/>
<path d="M100.41 92.0202L95.6273 82.0627H62.0918L66.9729 92.0202H100.41Z" fill="#00A5FF"/>
<path d="M95.607 102.26H62.2715L66.7898 111.477H100.034L95.607 102.26Z" fill="#FFC3FF"/>
<path d="M154.772 82.0627L120.213 153.486L104.953 121.715H71.8105L103.573 186.51H136.34L188.052 82.0627H154.772Z" fill="#FFC3FF"/>
<path d="M90.691 92.0202L85.9086 82.0627H52.373L57.2541 92.0202H90.691Z" fill="#FFC3FF"/>
</g>
<defs>
<clipPath id="clip0_242_94613">
<rect width="227.302" height="227.302" fill="white" transform="translate(11.3652 11.3604)"/>
</clipPath>
</defs>
</svg>
