<svg width="250" height="250" viewBox="0 0 250 250" fill="none" xmlns="http://www.w3.org/2000/svg">
<path d="M203.591 42.8723C203.099 42.8723 202.608 43.1673 202.411 43.6588L147.846 155.541C143.127 165.176 129.462 165.176 124.841 155.541L70.4728 44.2487C70.0795 43.4622 69.1947 42.8723 68.3098 42.8723H39.9952C38.2256 42.8723 37.0458 44.7403 37.8323 46.3133L113.043 199.193C118.155 209.516 132.903 209.417 137.917 198.996L211.259 44.7403C211.653 43.8555 211.063 42.8723 210.079 42.8723H203.591Z" fill="url(#paint0_linear_242_94259)"/>
<path opacity="0.2" d="M106.357 185.723L40.7812 52.4082L87.8739 106.973L106.357 185.723Z" fill="white"/>
<path opacity="0.2" d="M118.549 142.565L87.8749 106.975L75.4873 54.6716L118.549 142.565Z" fill="white"/>
<path opacity="0.1" d="M87.8744 106.979L40.7817 52.414L37.8323 46.4168C37.0458 44.8438 38.2256 42.9758 39.9952 42.9758H68.3098C69.1947 42.9758 70.0795 43.4674 70.4728 44.3522L75.5851 54.7736L87.8744 106.979Z" fill="white"/>
<defs>
<linearGradient id="paint0_linear_242_94259" x1="59.831" y1="59.4739" x2="183.105" y2="144.947" gradientUnits="userSpaceOnUse">
<stop stop-color="#B290D8"/>
<stop offset="1" stop-color="#26BFE2"/>
</linearGradient>
</defs>
</svg>
