<svg width="250" height="250" viewBox="0 0 250 250" fill="none" xmlns="http://www.w3.org/2000/svg">
<rect width="250" height="250" rx="125" fill="white"/>
<path d="M124.421 202.646C124.858 202.36 124.945 201.934 125.118 201.577C128.595 194.373 132.136 187.199 135.512 179.949C139.251 171.921 143.085 163.937 146.985 155.985C150.823 148.156 154.577 140.286 158.373 132.439C165.204 118.314 171.981 104.165 178.776 90.0218C182.597 82.0694 186.405 74.1109 190.232 66.1606C191.531 63.4597 193.619 61.6199 196.463 60.6496C197.512 60.2911 198.595 60.1036 199.7 60.0995C204.786 60.0892 209.874 60.0892 214.96 60.0933C216.145 60.0933 216.203 60.1922 215.702 61.2305C210.099 72.8583 204.491 84.484 198.892 96.1138C192.919 108.518 186.953 120.925 180.985 133.329C175.849 144.003 170.716 154.677 165.583 165.351C160.553 175.808 155.521 186.264 150.491 196.719C146.294 205.444 142.099 214.169 137.907 222.894C137.387 223.978 136.861 225.057 136.366 226.153C136.11 226.72 135.739 226.992 135.098 226.992C128.018 226.981 120.938 226.981 113.858 227C113.084 227.002 112.789 226.555 112.507 225.964C109.76 220.238 106.998 214.517 104.245 208.794C101.106 202.265 97.9716 195.734 94.8328 189.206C86.4432 171.756 78.0515 154.306 69.6599 136.856C61.3446 119.561 53.0251 102.268 44.7139 84.9722C40.9234 77.0899 37.1431 69.1932 33.3608 61.3006C32.7854 60.1015 32.7998 60.0748 34.1342 60.0748C48.9479 60.0748 63.7637 59.8687 78.5713 60.1407C93.0922 60.4065 104.165 67.0073 111.024 79.8629C115.547 88.3365 119.476 97.1274 123.67 105.776C126.277 111.151 128.882 116.526 131.489 121.903C134.677 128.484 137.845 135.076 141.076 141.636C141.679 142.86 141.664 143.89 141.056 145.107C138.849 149.53 136.725 153.997 134.58 158.451C133.345 161.018 132.13 163.595 130.895 166.164C130.754 166.455 130.693 166.919 130.272 166.884C129.948 166.857 129.87 166.449 129.738 166.177C123.905 154.125 118.073 142.073 112.245 130.018C105.819 116.728 99.405 103.432 92.9705 90.1454C91.4877 87.0819 89.0747 85.137 85.7358 84.4015C85.1047 84.2635 84.4407 84.2305 83.791 84.2285C78.7383 84.2141 73.6856 84.2161 68.6349 84.2223C67.5481 84.2223 67.5171 84.2779 67.9791 85.2359C72.9431 95.5719 77.9072 105.908 82.8733 116.244C90.3657 131.84 97.8623 147.435 105.355 163.031C110.187 173.089 115.019 183.145 119.847 193.205C121.214 196.052 122.569 198.905 123.934 201.752C124.079 202.053 124.252 202.342 124.421 202.653V202.646Z" fill="url(#paint0_linear_242_93931)"/>
<defs>
<linearGradient id="paint0_linear_242_93931" x1="33.2967" y1="60.0399" x2="216.298" y2="60.0399" gradientUnits="userSpaceOnUse">
<stop offset="0.155" stop-color="#250E87"/>
<stop offset="0.583333" stop-color="#298CBE"/>
<stop offset="1" stop-color="#70BC3B"/>
</linearGradient>
</defs>
</svg>
