<svg width="250" height="250" viewBox="0 0 250 250" fill="none" xmlns="http://www.w3.org/2000/svg">
<g clip-path="url(#clip0_242_93932)">
<path d="M125 249.995C194.036 249.995 250 194.03 250 124.995C250 55.9593 194.036 -0.00512695 125 -0.00512695C55.9644 -0.00512695 0 55.9593 0 124.995C0 194.03 55.9644 249.995 125 249.995Z" fill="#919AFA"/>
<path d="M198.2 69.0956H146.45C144.5 69.0956 142.7 70.1956 141.85 71.9456L115.75 124.146L88.7999 71.6956C87.9499 70.0456 86.2999 69.0457 84.4499 69.0457H52.3499C50.5999 69.0457 49.4999 70.8956 50.2999 72.4456L119.7 207.746C122.3 212.846 129.6 212.846 132.15 207.746L200.65 72.9957C201.5 71.1957 200.2 69.0956 198.2 69.0956ZM125.8 206.446L115.9 186.846L172.9 75.6457H192.5L125.8 206.446Z" fill="#3937A8"/>
</g>
<defs>
<clipPath id="clip0_242_93932">
<rect width="250" height="250" rx="125" fill="white"/>
</clipPath>
</defs>
</svg>
