<svg width="250" height="250" viewBox="0 0 250 250" fill="none" xmlns="http://www.w3.org/2000/svg">
<rect width="250" height="250" rx="125" fill="white"/>
<g clip-path="url(#clip0_242_94295)">
<path d="M125.016 11.3604C62.2487 11.3604 11.3652 62.2438 11.3652 125.012C11.3652 187.779 62.2487 238.663 125.016 238.663C187.784 238.663 238.668 187.779 238.668 125.012C238.668 62.2438 187.784 11.3604 125.016 11.3604Z" fill="url(#paint0_linear_242_94295)"/>
<path d="M40.2988 102.645C48.7802 94.2205 57.1476 85.9099 65.8567 77.2578C66.9382 78.2823 68.2475 79.4208 69.4997 80.673L140.767 151.94C144.865 156.039 148.963 157.12 153.005 155.242C157.445 153.193 158.811 149.492 158.811 144.825C158.754 124.162 158.735 103.499 158.754 82.8367V77.4292H195.183V145.85C195.126 165.089 184.311 182.109 166.949 188.883C148.222 196.225 130.918 193.265 116.517 179.092C91.4712 154.502 66.825 129.512 42.0061 104.695C41.3231 103.955 40.8107 103.215 40.2988 102.645Z" fill="white"/>
</g>
<defs>
<linearGradient id="paint0_linear_242_94295" x1="125.016" y1="11.3604" x2="125.016" y2="238.12" gradientUnits="userSpaceOnUse">
<stop stop-color="#8E2EFF"/>
<stop offset="0.515" stop-color="#3B8EDC"/>
<stop offset="1" stop-color="#00E2A6"/>
</linearGradient>
<clipPath id="clip0_242_94295">
<rect width="227.302" height="227.302" fill="white" transform="translate(11.3662 11.3604)"/>
</clipPath>
</defs>
</svg>
