<svg width="250" height="250" viewBox="0 0 250 250" fill="none" xmlns="http://www.w3.org/2000/svg">
<path d="M238.099 77.1941C235.349 70.7441 232.099 64.5441 228.349 58.6941C227.999 57.8941 227.499 57.1441 226.899 56.4941C222.499 49.9441 217.449 43.7941 211.799 38.1441C200.549 26.8941 187.399 18.0441 172.799 11.8441C157.649 5.44409 141.549 2.19409 124.999 2.19409C108.449 2.19409 92.3492 5.44409 77.1992 11.8441C62.5992 18.0441 49.4492 26.8941 38.1992 38.1441C26.9492 49.3941 18.0992 62.5441 11.8992 77.1441C5.44922 92.3441 2.19922 108.444 2.19922 124.994C2.19922 141.544 5.44922 157.644 11.8492 172.794C18.0492 187.394 26.8992 200.544 38.1492 211.794C49.3992 223.044 62.5492 231.894 77.1492 238.094C92.2992 244.494 108.399 247.744 124.949 247.744C141.499 247.744 157.599 244.494 172.749 238.094C187.349 231.894 200.499 223.044 211.749 211.794C222.999 200.544 231.849 187.394 238.049 172.794C244.449 157.644 247.699 141.544 247.699 124.994C247.799 108.444 244.549 92.3441 238.099 77.1941ZM124.999 18.8441C159.849 18.8441 190.799 35.6441 210.149 61.5941C204.299 67.5441 192.399 77.6941 176.699 80.9941C174.999 81.3441 173.349 81.6941 171.749 81.9441C170.149 78.1441 168.599 74.7941 167.149 72.0941C162.649 63.4441 153.999 53.5941 143.299 51.9941C136.949 51.0441 130.799 53.1941 126.049 57.9941C121.599 62.4941 119.549 68.3941 120.299 74.6441C121.199 82.2941 126.449 89.9441 133.949 94.6441C141.549 99.3941 151.199 100.494 160.549 100.044C164.899 115.144 166.849 134.894 157.049 153.294C151.799 163.194 144.749 171.944 136.749 178.494C131.149 183.094 126.449 185.594 123.299 186.894C121.999 187.444 120.549 186.744 120.099 185.444C119.199 182.644 117.999 179.044 116.799 175.544C116.199 173.794 115.649 172.094 115.149 170.644C111.499 159.694 102.949 133.994 86.0492 109.044C70.8492 86.5941 46.8492 66.6441 40.0992 61.2941C59.4992 35.4941 90.2992 18.8441 124.999 18.8441ZM154.249 83.3941C149.349 83.1441 145.449 82.1941 142.699 80.4941C139.549 78.5441 137.099 75.2941 136.799 72.6441C136.649 71.4441 136.999 70.5941 137.899 69.6441C138.949 68.5941 139.699 68.3441 140.349 68.3441C140.549 68.3441 140.699 68.3441 140.849 68.3941C143.899 68.8441 148.899 72.8941 152.449 79.7441C152.949 80.7941 153.599 81.9941 154.249 83.3941ZM124.999 231.144C66.3492 231.144 18.8492 183.594 18.8492 124.994C18.8492 107.044 23.2992 90.1441 31.1492 75.3441C38.7492 81.5441 59.3992 99.2441 72.2992 118.294C87.8992 141.344 95.6492 164.644 99.3992 175.794C99.8992 177.244 100.449 178.944 101.049 180.744C102.649 185.444 104.599 191.344 105.349 193.744C107.299 200.344 113.299 204.644 119.899 204.644C121.099 204.644 122.349 204.494 123.599 204.194C134.399 201.494 156.699 189.344 171.749 160.944C180.399 144.644 182.799 126.044 178.949 105.594C178.449 102.894 177.849 100.294 177.199 97.7441C178.249 97.5441 179.249 97.3441 180.199 97.1441C197.749 93.4441 211.249 83.3441 219.249 75.8941C226.899 90.5441 231.249 107.244 231.249 124.944C231.149 183.644 183.649 231.144 124.999 231.144Z" fill="#02AD52"/>
</svg>
