<svg width="250" height="250" viewBox="0 0 250 250" fill="none" xmlns="http://www.w3.org/2000/svg">
<path d="M153.868 125.842H124.993C124.993 126.192 125.028 126.542 125.028 126.892C125.028 142.677 112.218 155.487 96.4327 155.487C80.6477 155.487 67.8377 142.677 67.8377 126.892C67.8377 111.107 80.6477 98.2967 96.4327 98.2967C98.7077 98.2967 100.913 98.5767 103.048 99.0667C108.158 89.8617 115.753 82.1967 124.888 76.9817C116.488 72.1867 106.793 69.4217 96.4327 69.4217C64.6877 69.3867 38.9277 95.1817 38.9277 126.892C38.9277 158.602 64.6877 184.362 96.3977 184.362C128.108 184.362 153.903 158.567 153.903 126.857C153.903 126.507 153.868 126.192 153.868 125.842Z" fill="#4CAFE4"/>
<path d="M153.273 69.3865C121.843 69.3865 96.2577 94.7265 95.8027 126.051H124.678C125.133 110.651 137.733 98.2615 153.273 98.2615C169.058 98.2615 181.868 111.071 181.868 126.856C181.868 142.641 169.058 155.451 153.273 155.451C150.998 155.451 148.793 155.171 146.658 154.681C141.548 163.886 133.953 171.551 124.818 176.766C133.218 181.561 142.913 184.326 153.273 184.326C184.983 184.326 210.778 158.531 210.778 126.821C210.778 95.1115 184.983 69.3865 153.273 69.3865Z" fill="#A5E0FE"/>
</svg>
