<svg width="250" height="250" viewBox="0 0 250 250" fill="none" xmlns="http://www.w3.org/2000/svg">
<g clip-path="url(#clip0_242_94900)">
<path d="M125.002 250.032C194.038 250.032 250.002 194.06 250.002 125.015C250.002 55.9707 194.038 -0.000976562 125.002 -0.000976562C55.9664 -0.000976562 0.00195312 55.9707 0.00195312 125.015C0.00195312 194.06 55.9664 250.032 125.002 250.032Z" fill="black"/>
<path d="M78.3436 65.5505L79.8369 66.6018C107.333 86.1631 144.148 86.0942 171.593 66.4467C194.3 50.1772 223.117 76.3394 209.284 100.658L162.033 183.66C145.762 212.252 104.707 212.252 88.4358 183.66L40.7214 99.813C26.9048 75.5466 55.6192 49.3844 78.3436 65.5505Z" fill="#FFDD35"/>
</g>
<defs>
<clipPath id="clip0_242_94900">
<rect width="250" height="250" rx="125" fill="white"/>
</clipPath>
</defs>
</svg>
