<svg width="250" height="250" viewBox="0 0 250 250" fill="none" xmlns="http://www.w3.org/2000/svg">
<g clip-path="url(#clip0_242_93941)">
<path d="M125 249.497C193.759 249.497 249.5 193.757 249.5 124.997C249.5 56.2376 193.759 0.49707 125 0.49707C56.2405 0.49707 0.5 56.2376 0.5 124.997C0.5 193.757 56.2405 249.497 125 249.497Z" fill="white"/>
<path d="M95.1002 184.598L62.7502 101.048C57.6002 87.7479 64.2002 72.7979 77.5002 67.6479C90.8002 62.4979 105.75 69.0979 110.9 82.3979L143.25 165.948C148.4 179.248 141.8 194.198 128.5 199.348C115.2 204.498 100.25 197.898 95.1002 184.598Z" fill="url(#paint0_linear_242_93941)"/>
<path d="M138.15 125.046L129.1 101.596C123.95 88.2955 130.55 73.3455 143.85 68.1955C157.15 63.0455 172.1 69.6455 177.25 82.9455L186.3 106.396C191.45 119.696 184.85 134.646 171.55 139.796C158.25 144.946 143.3 138.396 138.15 125.046Z" fill="url(#paint1_linear_242_93941)"/>
</g>
<defs>
<linearGradient id="paint0_linear_242_93941" x1="102.987" y1="65.8753" x2="102.987" y2="201.105" gradientUnits="userSpaceOnUse">
<stop stop-color="#56DDF7"/>
<stop offset="1" stop-color="#0591D7"/>
</linearGradient>
<linearGradient id="paint1_linear_242_93941" x1="157.704" y1="66.4289" x2="157.704" y2="141.563" gradientUnits="userSpaceOnUse">
<stop stop-color="#B20F08"/>
<stop offset="1" stop-color="#FB4E3A"/>
</linearGradient>
<clipPath id="clip0_242_93941">
<rect width="250" height="250" rx="125" fill="white"/>
</clipPath>
</defs>
</svg>
