<svg width="250" height="250" viewBox="0 0 250 250" fill="none" xmlns="http://www.w3.org/2000/svg">
<g clip-path="url(#clip0_242_94230)">
<path d="M125 0C55.9637 0 0 55.9613 0 125C0 194.039 55.9637 250 125 250C194.036 250 250 194.039 250 125C250 55.9613 194.039 0 125 0ZM125 87.6575C131.634 87.6575 137.012 93.0352 137.012 99.6692C137.013 106.303 131.636 111.682 125.002 111.683C118.368 111.683 112.989 106.306 112.988 99.6725C112.988 93.0381 118.366 87.6596 125 87.6575ZM179.433 168.846C174.573 168.847 170.192 165.921 168.331 161.431C166.471 156.942 167.499 151.774 170.935 148.338C174.371 144.902 179.538 143.874 184.028 145.733C188.517 147.593 191.444 151.974 191.444 156.834C191.442 163.467 186.066 168.845 179.433 168.848V168.846ZM125 218.625L49.2225 71.025H88.8275L125.264 145.75L160.91 71.025H200.785L125 218.625Z" fill="#418BCA"/>
</g>
<defs>
<clipPath id="clip0_242_94230">
<rect width="250" height="250" rx="125" fill="white"/>
</clipPath>
</defs>
</svg>
