<svg width="250" height="250" viewBox="0 0 250 250" fill="none" xmlns="http://www.w3.org/2000/svg">
<path fill-rule="evenodd" clip-rule="evenodd" d="M157.034 52.228L136.419 40.8758C132.687 38.8208 128.557 37.793 124.429 37.793V116.327C126.516 116.327 128.603 115.37 129.942 113.456L160.962 69.1265C164.937 63.4458 163.107 55.5723 157.034 52.228Z" fill="#4480B5"/>
<path fill-rule="evenodd" clip-rule="evenodd" d="M195.643 71.9956L175.529 60.9199C182.716 66.5142 184.485 76.9442 179.081 84.6663L132.676 150.983C130.672 153.846 127.55 155.278 124.428 155.278V212C128.986 212 133.544 209.909 136.47 205.729L204.224 108.904C212.906 96.4971 208.908 79.3006 195.643 71.9956Z" fill="#41494E"/>
<path fill-rule="evenodd" clip-rule="evenodd" d="M91.8236 52.228L112.438 40.8758C116.171 38.8208 120.299 37.793 124.429 37.793V116.327C122.341 116.327 120.254 115.37 118.915 113.456L87.895 69.1265C83.92 63.4458 85.75 55.5723 91.8236 52.228Z" fill="#81ACCD"/>
<path fill-rule="evenodd" clip-rule="evenodd" d="M53.2135 71.9956L73.3264 60.9199C66.1407 66.5142 64.3714 76.9442 69.775 84.6663L116.181 150.983C118.184 153.846 121.306 155.278 124.429 155.278V212C119.87 212 115.312 209.909 112.386 205.729L44.6321 108.904C35.95 96.4971 39.9485 79.3006 53.2135 71.9956Z" fill="#55646D"/>
</svg>
