<svg width="250" height="250" viewBox="0 0 250 250" fill="none" xmlns="http://www.w3.org/2000/svg">
<g clip-path="url(#clip0_242_94785)">
<path d="M124.999 249.997C194.035 249.997 249.999 194.033 249.999 124.997C249.999 55.9615 194.035 -0.00292969 124.999 -0.00292969C55.9634 -0.00292969 -0.000976562 55.9615 -0.000976562 124.997C-0.000976562 194.033 55.9634 249.997 124.999 249.997Z" fill="#EDF0F4"/>
<path fill-rule="evenodd" clip-rule="evenodd" d="M125 41.6655C170.993 41.6655 208.333 79.0061 208.333 124.999C208.333 170.992 170.993 208.332 125 208.332C79.0065 208.332 41.666 170.992 41.666 124.999C41.666 79.0061 79.0065 41.6655 125 41.6655ZM84.1435 71.8096C87.2905 69.1146 91.706 66.9011 95.545 68.4601C102.448 71.2626 120.993 108.652 120.993 108.652C120.993 108.652 146.934 71.7981 156.251 68.4376C159.43 67.2906 163.787 69.3071 167.111 71.7921C178.775 80.5126 179.98 92.6791 178.972 96.0541C177.704 100.298 113.269 182.055 113.269 182.055C111.342 181.269 73.1625 110.408 71.0935 98.2831C69.1165 86.6961 75.8435 78.8231 84.1435 71.8096Z" fill="#3165D4"/>
</g>
<defs>
<clipPath id="clip0_242_94785">
<rect width="250" height="250" fill="white"/>
</clipPath>
</defs>
</svg>
