<svg width="250" height="250" viewBox="0 0 250 250" fill="none" xmlns="http://www.w3.org/2000/svg">
<path d="M87.9001 64.9465H40.6151C38.9001 64.9465 37.8501 66.8365 38.7601 68.3065L123.145 204.142C123.985 205.507 126.015 205.507 126.855 204.142L151.04 165.222C151.495 164.522 151.495 163.612 151.04 162.877L89.7901 65.9965C89.3701 65.3315 88.6701 64.9465 87.9001 64.9465Z" fill="#FF8835"/>
<path d="M209.385 64.9465H147.085C145.37 64.9465 144.32 66.8365 145.23 68.3065L176.625 118.077C177.5 119.442 179.495 119.442 180.335 118.077L211.24 68.3065C212.15 66.8365 211.1 64.9465 209.385 64.9465Z" fill="#FF8835"/>
</svg>
