<svg width="250" height="250" viewBox="0 0 250 250" fill="none" xmlns="http://www.w3.org/2000/svg">
<g clip-path="url(#clip0_242_94233)">
<path fill-rule="evenodd" clip-rule="evenodd" d="M249.994 125C249.994 194.036 194.03 250 124.994 250C55.9582 250 -0.00585938 194.036 -0.00585938 125C-0.00585938 55.9641 55.9582 0 124.994 0C194.03 0 249.994 55.9641 249.994 125Z" fill="#3E2D2A"/>
<path fill-rule="evenodd" clip-rule="evenodd" d="M124.997 231.815C66.0996 231.815 18.1824 183.898 18.1824 125.001C18.1824 66.1037 66.0996 18.1866 124.997 18.1866C183.894 18.1866 231.811 66.1037 231.811 125.001C231.811 183.898 183.894 231.815 124.997 231.815ZM124.997 11.2805C62.2916 11.2805 11.2764 62.2957 11.2764 125.001C11.2764 187.706 62.2916 238.721 124.997 238.721C187.702 238.721 238.717 187.706 238.717 125.001C238.717 62.2957 187.702 11.2805 124.997 11.2805Z" fill="#FFFFFE"/>
<path fill-rule="evenodd" clip-rule="evenodd" d="M154.42 141.926V118.262H176.462C178.94 118.262 180.929 119.343 182.431 121.508C183.931 123.671 184.682 126.534 184.682 130.094C184.682 133.654 183.931 136.516 182.431 138.68C180.929 140.844 178.94 141.926 176.462 141.926H154.42ZM181.868 151.318C183.546 150.861 185.122 150.216 186.567 149.334C189.568 147.502 191.898 144.945 193.556 141.664C195.214 138.383 196.043 134.527 196.043 130.094C196.043 125.661 195.214 121.805 193.556 118.523C191.898 115.242 189.568 112.686 186.567 110.853C183.565 109.021 180.057 108.104 176.043 108.104H143.739V108.157H96.7103L110.546 65.7141H98.923L80.6509 125.399L62.3788 65.7141H50.7559L75.5722 141.839H85.7296L93.3981 118.314H112.099V184.282H122.78V118.314H143.739V184.282H154.42V152.084H170.321L186.567 184.282H199.237L181.868 151.318Z" fill="#FFFFFE"/>
</g>
<defs>
<clipPath id="clip0_242_94233">
<rect width="250" height="250" rx="125" fill="white"/>
</clipPath>
</defs>
</svg>
