<svg width="250" height="250" viewBox="0 0 250 250" fill="none" xmlns="http://www.w3.org/2000/svg">
<g clip-path="url(#clip0_242_94301)">
<path d="M202.305 57.5438C201.09 56.3204 199.506 55.5325 197.798 55.303C196.089 55.0735 194.353 55.4151 192.859 56.2748L129.726 92.6078L145.369 101.639L175.128 84.5134L157.891 113.941L57.1593 56.2665C55.6707 55.4141 53.9431 55.0752 52.2428 55.302C50.5425 55.5288 48.9641 56.3087 47.7509 57.5214C46.5378 58.7341 45.7573 60.3123 45.5299 62.0125C45.3025 63.7127 45.6408 65.4405 46.4926 66.9294L117.387 190.855C118.067 192.044 119.049 193.034 120.232 193.724C121.416 194.415 122.76 194.782 124.13 194.789H124.171C125.534 194.789 126.874 194.432 128.057 193.754C129.24 193.076 130.225 192.101 130.914 190.924L203.501 66.9989C204.372 65.5116 204.727 63.778 204.511 62.0679C204.294 60.3579 203.519 58.7673 202.305 57.5438ZM124.25 171.375L99.4681 128.055L120.759 115.802L105.116 106.771L91.7068 114.488L74.3264 84.1067L149.991 127.43L124.25 171.375Z" fill="url(#paint0_linear_242_94301)"/>
</g>
<defs>
<linearGradient id="paint0_linear_242_94301" x1="45.4608" y1="125.011" x2="204.573" y2="125.011" gradientUnits="userSpaceOnUse">
<stop stop-color="#3D8E8E"/>
<stop offset="1" stop-color="#6BBCCA"/>
</linearGradient>
<clipPath id="clip0_242_94301">
<rect width="159.112" height="159.112" fill="white" transform="translate(45.4609 45.4561)"/>
</clipPath>
</defs>
</svg>
