<svg width="250" height="250" viewBox="0 0 250 250" fill="none" xmlns="http://www.w3.org/2000/svg">
<path fill-rule="evenodd" clip-rule="evenodd" d="M124.949 32.3471C74.6992 32.3471 33.7992 73.8971 33.7992 124.997C33.7992 176.097 74.6992 217.647 124.999 217.647C175.299 217.647 216.149 176.097 216.149 124.997C216.149 73.8971 175.249 32.3471 124.949 32.3471ZM124.949 249.497C57.3992 249.497 2.44922 193.647 2.44922 124.997C2.44922 56.3471 57.3992 0.49707 124.949 0.49707C192.499 0.49707 247.549 56.3471 247.549 124.997C247.499 193.647 192.549 249.497 124.949 249.497Z" fill="#FF5847"/>
<path fill-rule="evenodd" clip-rule="evenodd" d="M97.8508 124.996L125.001 152.596L152.151 124.996L125.001 97.3963L97.8508 124.996ZM124.951 191.096C120.801 191.096 116.801 189.446 113.851 186.446L64.5008 136.296C58.4008 130.096 58.4008 119.996 64.5008 113.746L113.901 63.5963C120.001 57.3963 129.951 57.3963 136.101 63.5963L185.501 113.746C191.601 119.946 191.601 130.046 185.501 136.296L136.101 186.446C133.101 189.396 129.151 191.096 124.951 191.096Z" fill="#FF5847"/>
</svg>
