<svg width="250" height="250" viewBox="0 0 250 250" fill="none" xmlns="http://www.w3.org/2000/svg">
<path fill-rule="evenodd" clip-rule="evenodd" d="M64.2419 179.305C56.8919 179.305 51.0469 173.145 51.0469 165.69V55.6152C51.0469 48.1252 56.8919 42.0002 64.2419 42.0002C71.5919 42.0002 77.4369 48.1252 77.4369 55.6152V165.69C77.4369 173.18 71.5919 179.305 64.2419 179.305Z" fill="#62D066"/>
<path fill-rule="evenodd" clip-rule="evenodd" d="M138.197 203.385C138.197 210.84 132.317 217 125.002 217C117.652 217 111.807 210.84 111.807 203.385V81.8648C111.807 74.4098 117.687 68.2498 125.002 68.2498C132.352 68.2498 138.197 74.4098 138.197 81.8648V203.385Z" fill="#62D066"/>
<path fill-rule="evenodd" clip-rule="evenodd" d="M185.763 181.37C178.413 181.37 172.568 175.21 172.568 167.755V55.6152C172.568 48.1252 178.448 42.0002 185.763 42.0002C193.113 42.0002 198.958 48.1252 198.958 55.6152V167.755C198.958 175.21 193.113 181.37 185.763 181.37Z" fill="#62D066"/>
</svg>
