<svg width="250" height="250" viewBox="0 0 250 250" fill="none" xmlns="http://www.w3.org/2000/svg">
<g clip-path="url(#clip0_242_94808)">
<mask id="mask0_242_94808" style="mask-type:luminance" maskUnits="userSpaceOnUse" x="-1" y="0" width="251" height="250">
<path d="M-0.00195312 0H249.998V250H-0.00195312V0Z" fill="white"/>
</mask>
<g mask="url(#mask0_242_94808)">
<path d="M205.359 44.6445H44.6426V205.359H205.359V44.6445Z" fill="black"/>
<path fill-rule="evenodd" clip-rule="evenodd" d="M124.998 250C57.918 250.072 -0.00195312 192.08 -0.00195312 125C-0.00195312 55.3201 53.954 -0.0719299 124.998 7.01108e-05C195.98 0.0720701 249.998 55.3201 249.998 125C249.998 192.008 192.006 249.928 124.998 250ZM89.542 183.608H65.31C60.222 183.608 57.712 183.608 56.176 182.624C55.3642 182.097 54.688 181.386 54.2026 180.548C53.7171 179.711 53.436 178.771 53.382 177.804C53.292 176 54.542 173.784 57.062 169.374L116.882 63.9381C119.426 59.4641 120.722 57.2241 122.346 56.3921C123.21 55.9518 124.166 55.7223 125.136 55.7223C126.106 55.7223 127.062 55.9518 127.926 56.3921C129.552 57.2241 130.838 59.4641 133.382 63.9381L145.676 85.4001L145.74 85.5161C148.49 90.3201 149.882 92.7481 150.498 95.3101C151.172 98.1101 151.172 101.03 150.498 103.83C149.872 106.41 148.498 108.864 145.712 113.74L114.284 169.276L114.204 169.428C111.436 174.268 110.034 176.724 108.096 178.572C105.991 180.589 103.435 182.074 100.64 182.902C98.096 183.608 95.248 183.608 89.542 183.608ZM150.722 183.608H185.436C190.56 183.608 193.132 183.608 194.668 182.598C195.485 182.07 196.164 181.354 196.65 180.511C197.136 179.668 197.414 178.722 197.462 177.75C197.552 176 196.32 173.874 193.908 169.714C193.824 169.572 193.741 169.429 193.658 169.286L176.266 139.536L176.07 139.206C173.622 135.072 172.39 132.982 170.802 132.178C169.943 131.74 168.993 131.512 168.029 131.512C167.065 131.512 166.115 131.74 165.256 132.178C163.658 133.008 162.372 135.188 159.828 139.572L142.508 169.312L142.444 169.42C139.908 173.794 138.64 175.982 138.73 177.776C138.784 178.746 139.065 179.691 139.55 180.533C140.035 181.375 140.711 182.091 141.524 182.624C143.024 183.608 145.596 183.608 150.722 183.608Z" fill="white"/>
</g>
</g>
<defs>
<clipPath id="clip0_242_94808">
<rect width="250" height="250" fill="white"/>
</clipPath>
</defs>
</svg>
