<svg width="250" height="250" viewBox="0 0 250 250" fill="none" xmlns="http://www.w3.org/2000/svg">
<g clip-path="url(#clip0_242_94239)">
<path d="M124.992 250C194.028 250 249.992 194.036 249.992 125C249.992 55.9644 194.028 0 124.992 0C55.9566 0 -0.0078125 55.9644 -0.0078125 125C-0.0078125 194.036 55.9566 250 124.992 250Z" fill="#F89022"/>
<path d="M218.744 148.141H200.275L187.174 136.922L174.119 148.094H158.51L151.049 139.031H125.33L131.838 130.992H144.486L134.854 119.211L101.221 160.156H85.6191L95.3535 148.266H79.0957L70.3066 123.625L61.5879 148.078H45.0957L31.2441 109.695H43.9004L53.2129 135.836L62.4941 109.812H78.1191L87.377 135.781L96.627 109.805H109.322L95.3535 148.266L98.4629 144.469L126.994 109.742H142.697L166.439 138.711L177.861 128.891L141.713 97.6562H160.268L218.744 148.141ZM200.424 124.922L191.713 117.453L200.408 110.047L217.986 110.063L200.424 124.922Z" fill="white"/>
</g>
<defs>
<clipPath id="clip0_242_94239">
<rect width="250" height="250" rx="125" fill="white"/>
</clipPath>
</defs>
</svg>
