<svg width="250" height="250" viewBox="0 0 250 250" fill="none" xmlns="http://www.w3.org/2000/svg">
<g clip-path="url(#clip0_242_93952)">
<path fill-rule="evenodd" clip-rule="evenodd" d="M125 -0.00585938C194 -0.00585938 250 55.9441 250 124.994C250 193.994 194 249.994 125 249.994C55.95 249.994 0 193.994 0 124.994C0 55.9441 55.95 -0.00585938 125 -0.00585938Z" fill="white"/>
<path fill-rule="evenodd" clip-rule="evenodd" d="M203.851 52.4459L197.001 59.3459C230.951 96.4959 230.951 153.346 197.001 190.496L203.851 197.346C241.651 156.346 241.651 93.2959 203.851 52.2959V52.4459Z" fill="#5A5564"/>
<path fill-rule="evenodd" clip-rule="evenodd" d="M59.4492 53.0452C96.5492 19.0952 153.499 19.0952 190.599 53.0452L197.499 46.1952C156.549 8.39522 93.3992 8.39522 52.4492 46.1952L59.4492 53.0452Z" fill="#5A5564"/>
<path fill-rule="evenodd" clip-rule="evenodd" d="M53.0506 190.545C19.1506 153.445 19.1506 96.5947 53.0506 59.4447L46.2006 52.5947C8.40059 93.5447 8.40059 156.695 46.2006 197.645L53.0506 190.545Z" fill="#5A5564"/>
<path fill-rule="evenodd" clip-rule="evenodd" d="M190.55 196.894C153.45 230.844 96.5 230.844 59.4 196.894L52.5 203.744C93.45 241.544 156.6 241.544 197.55 203.744L190.55 196.894Z" fill="#5A5564"/>
<path fill-rule="evenodd" clip-rule="evenodd" d="M145.8 107.495C145.8 121.245 124.35 119.545 117.5 119.545V95.3446C124.35 95.3946 145.8 93.2446 145.8 107.495ZM151.4 145.045C151.4 160.045 125.7 158.345 117.5 158.345V131.745C125.7 131.745 151.4 129.395 151.4 145.045ZM168.35 102.095C167 87.7946 154.65 82.9946 139 81.4946V61.7446H126.95V81.0946C123.75 81.0946 120.5 81.0946 117.3 81.1946V61.7446H105.3V81.5946H97.6002H80.8002V94.5446C80.8002 94.5446 89.7002 94.3946 89.6002 94.5446C92.9502 94.1946 96.0002 96.5446 96.4502 99.8446V154.245C96.4002 155.395 95.8502 156.445 95.0002 157.195C94.1502 157.945 93.0002 158.295 91.9002 158.245C92.0502 158.345 83.1002 158.245 83.1002 158.245L80.7002 172.695H96.4502H105.1V192.895H117.2V172.995H126.85V192.795H138.95V172.845C159.35 171.595 173.6 166.545 175.35 147.445C176.8 132.045 169.55 125.195 158 122.445C165 118.845 169.4 112.545 168.35 102.095Z" fill="#F09242"/>
<path fill-rule="evenodd" clip-rule="evenodd" d="M124.95 9.74414C61.35 9.79414 9.85 61.3441 9.85 124.944C9.85 188.544 61.4 240.094 125.05 240.094C188.65 240.094 240.2 188.544 240.25 124.944C240.15 61.3441 188.6 9.84414 124.95 9.79414V9.74414ZM124.95 249.994C55.95 249.994 0 193.994 0 124.994C0 55.9441 55.95 -0.00585938 125 -0.00585938C194 -0.00585938 250 55.9441 250 124.944C249.9 193.994 194 249.894 124.95 249.994Z" fill="#282138"/>
</g>
<defs>
<clipPath id="clip0_242_93952">
<rect width="250" height="250" rx="125" fill="white"/>
</clipPath>
</defs>
</svg>
