<svg width="250" height="250" viewBox="0 0 250 250" fill="none" xmlns="http://www.w3.org/2000/svg">
<path d="M44.3997 70.545L104.15 10.795C115.35 -0.40498 133.5 -0.40498 144.7 10.795L204.95 70.995C208.75 74.795 208.65 80.945 204.8 84.645L173.9 114.045C170.15 117.595 164.25 117.545 160.6 113.895L137.45 90.745C130.2 83.495 118.45 83.495 111.2 90.745L88.2997 113.645C84.5997 117.345 78.6497 117.395 74.8997 113.745L44.4997 84.095C40.6997 80.395 40.6497 74.295 44.3997 70.545Z" fill="#3DB6D3"/>
<path d="M216.399 97.3954L243.399 121.095C249.049 126.045 249.299 134.695 244.049 139.995L145.449 238.895C134.549 249.795 116.899 249.895 105.95 239.045L5.34951 139.395C0.0995129 134.195 0.249513 125.595 5.74951 120.595L31.8495 96.7454C35.8995 93.0454 42.0995 93.1454 45.9995 96.9454L69.4495 119.695C76.2495 126.295 86.9995 126.345 93.8495 119.895L118.15 96.9954C122.2 93.1954 128.5 93.2454 132.449 97.1454L155.499 119.745C162.4 126.495 173.4 126.495 180.299 119.695L202.399 97.8454C206.149 93.9954 212.299 93.7954 216.399 97.3954Z" fill="#E2E1E1"/>
</svg>
