<svg width="250" height="250" viewBox="0 0 250 250" fill="none" xmlns="http://www.w3.org/2000/svg">
<rect width="250" height="250" rx="125" fill="white"/>
<g clip-path="url(#clip0_242_94310)">
<path d="M125.015 11.3594C62.2607 11.3594 11.3643 62.2563 11.3643 125.011C11.3643 187.765 62.2609 238.662 125.015 238.662C187.77 238.662 238.667 187.765 238.667 125.011C238.849 62.2563 187.952 11.3594 125.015 11.3594ZM119.907 181.015C113.705 185.394 106.225 187.948 98.7455 187.948C85.6108 187.948 73.5708 180.833 64.4494 167.699C56.2445 155.143 51.6965 140.552 51.3147 125.558C51.3179 125.278 51.4071 125.005 51.5702 124.777C51.7333 124.548 51.9625 124.375 52.2269 124.281L61.1662 120.267C61.8959 119.904 62.6257 120.267 62.9906 120.997C62.9906 121.179 63.1724 121.362 63.1724 121.544C63.1724 136.503 67.1859 150.55 74.3004 160.948C81.0502 170.8 89.8066 176.09 98.928 176.09C103.864 176.102 108.691 174.641 112.792 171.894C113.089 171.724 113.437 171.667 113.773 171.734C114.108 171.802 114.408 171.988 114.617 172.259C116.441 174.631 118.265 176.819 120.272 179.009C120.454 179.556 120.454 180.468 119.907 181.015H119.907ZM185.763 167.698C176.824 180.65 164.601 187.947 151.467 187.947C138.333 187.947 126.292 180.651 117.171 167.698C108.597 155.293 103.854 138.876 103.854 121.544C103.854 105.491 113.157 92.9044 124.834 92.9044C136.51 92.9044 145.814 105.492 145.814 121.544C146.019 135.523 142.693 149.327 136.145 161.678C136.066 161.838 135.955 161.98 135.818 162.096C135.682 162.211 135.523 162.297 135.352 162.348C135.181 162.4 135.001 162.415 134.824 162.394C134.646 162.373 134.475 162.316 134.321 162.225C134.139 162.225 134.139 162.044 133.957 161.861C132.862 160.584 131.768 159.307 130.856 158.03C129.775 156.454 128.799 154.809 127.934 153.105C127.844 152.904 127.797 152.687 127.797 152.467C127.797 152.247 127.844 152.029 127.934 151.828C132.13 142.159 134.136 131.761 134.136 121.363C134.136 113.519 130.123 104.58 124.833 104.58C119.542 104.58 115.529 113.519 115.529 121.363C115.529 136.322 119.542 150.369 126.657 160.767C133.408 170.618 142.163 175.908 151.285 175.908C160.406 175.908 169.162 170.435 175.912 160.765C183.027 150.367 187.04 136.32 187.04 121.361C187.04 106.403 183.027 92.3563 175.912 81.9582C173.905 78.8568 171.351 76.1206 168.616 73.7489C168.369 73.4807 168.218 73.139 168.185 72.7763C168.153 72.4137 168.24 72.0504 168.434 71.7423C168.616 71.5604 168.799 71.3786 168.981 71.3786L177.92 67.3653C178.467 67.1835 179.015 67.1835 179.379 67.729C181.65 70.0463 183.724 72.5481 185.581 75.2086C194.155 87.6137 198.898 104.032 198.898 121.362C198.898 138.693 194.337 155.293 185.763 167.698Z" fill="#A566FF"/>
</g>
<defs>
<clipPath id="clip0_242_94310">
<rect width="227.302" height="227.302" fill="white" transform="translate(11.3643 11.3594)"/>
</clipPath>
</defs>
</svg>
