<svg width="250" height="250" viewBox="0 0 250 250" fill="none" xmlns="http://www.w3.org/2000/svg">
<rect width="250" height="250" rx="125" fill="white"/>
<g clip-path="url(#clip0_242_94315)">
<path d="M32.8252 137.015C32.8252 80.8153 78.3842 35.2564 134.584 35.2564C160.135 35.221 184.757 44.8335 203.526 62.1713C185.285 34.8161 154.15 16.7949 118.805 16.7949C62.6048 16.7949 17.0459 62.3538 17.0459 118.554C17.0459 148.155 29.6864 174.803 49.8627 193.397C38.7235 176.706 32.7935 157.082 32.8252 137.015Z" fill="#EC1C79"/>
<path d="M57.5283 199.73C35.9985 203.395 21.5918 210.073 21.5918 217.706C21.5918 229.28 54.7152 238.664 95.5749 238.664C107.372 238.664 118.523 237.88 128.42 236.488C99.8925 234.424 74.6399 220.55 57.5283 199.73Z" fill="black"/>
<path d="M29.9787 38.1019C32.1669 38.1019 33.9408 36.328 33.9408 34.1398C33.9408 31.9516 32.1669 30.1777 29.9787 30.1777C27.7905 30.1777 26.0166 31.9516 26.0166 34.1398C26.0166 36.328 27.7905 38.1019 29.9787 38.1019Z" fill="black"/>
<path d="M62.8551 153.505L51.2627 116.174H60.2914L68.7129 143.852L77.845 116.174H85.3215L94.4915 143.782L102.802 116.174H111.116L99.612 153.505H89.7925L81.4973 128.735L73.2606 153.505H62.8551Z" fill="black"/>
<path d="M125.508 146.466H143.959V153.505H116.876V116.174H143.647V123.213H125.508V131.16H142.083V138.092H125.508V146.466Z" fill="black"/>
<path d="M178.987 116.174V123.213H167.165V153.505H158.533V123.213H146.774V116.174H178.987Z" fill="black"/>
<path d="M208.696 116.174H217.265V153.505H208.696V138.039H192.434V153.505H183.802V116.174H192.434V131H208.697L208.696 116.174Z" fill="black"/>
<path d="M29.9787 38.1019C32.1669 38.1019 33.9408 36.328 33.9408 34.1398C33.9408 31.9516 32.1669 30.1777 29.9787 30.1777C27.7905 30.1777 26.0166 31.9516 26.0166 34.1398C26.0166 36.328 27.7905 38.1019 29.9787 38.1019Z" fill="black"/>
<path d="M189.041 45.4448L193.137 48.1029C192.158 46.9996 190.243 43.8869 189.218 42.8265C179.606 32.859 168.081 24.9343 155.333 19.5272C142.585 14.1202 128.877 11.3421 115.03 11.3595C58.0418 11.3595 11.8438 57.5575 11.8438 114.546C11.8438 149.093 28.8232 179.673 54.8898 198.401C73.8094 221.677 102.669 236.551 135.002 236.551C191.991 236.551 238.189 190.353 238.189 133.364C238.189 96.1887 218.53 63.6081 189.041 45.4448ZM115.03 19.2839C134.15 19.2537 152.832 25.0045 168.626 35.7817C157.807 32.0599 146.444 30.166 135.002 30.1776C89.0661 30.1776 50.1417 60.1949 36.7713 101.684L21.8221 94.786C30.9201 51.6572 69.1937 19.2839 115.03 19.2839ZM20.2323 105.097L33.8769 112.746C33.0345 116.904 32.4492 121.109 32.1244 125.339L19.9382 120.208C19.923 119.949 19.9044 119.691 19.8914 119.432C19.8096 117.814 19.7685 116.185 19.7682 114.546C19.7682 111.357 19.9229 108.208 20.2323 105.097ZM21.5052 132.736L31.9209 138.019C32.4409 149.941 35.0346 161.682 39.5856 172.714C30.5171 160.984 24.325 147.292 21.5064 132.736H21.5052ZM135.002 228.626C82.3905 228.626 39.7399 185.976 39.7399 133.364C39.7399 80.7517 82.3902 38.1014 135.002 38.1014C187.614 38.1014 230.265 80.7515 230.265 133.364C230.265 185.976 187.614 228.626 135.002 228.626Z" fill="black"/>
</g>
<defs>
<clipPath id="clip0_242_94315">
<rect width="227.302" height="227.302" fill="white" transform="translate(11.3652 11.3594)"/>
</clipPath>
</defs>
</svg>
