<svg width="250" height="250" viewBox="0 0 250 250" fill="none" xmlns="http://www.w3.org/2000/svg">
<rect width="250" height="250" rx="125" fill="white"/>
<path d="M124.997 159.737C131.687 159.737 137.11 154.314 137.11 147.624C137.11 140.935 131.687 135.512 124.997 135.512C118.308 135.512 112.885 140.935 112.885 147.624C112.885 154.314 118.308 159.737 124.997 159.737Z" fill="black"/>
<path d="M124.998 18.8491H115.393V39.9716H124.998C163.248 39.9716 195.718 65.3441 206.386 100.152H18.918L18.748 125.014V125.099C18.748 183.664 66.3906 231.349 124.998 231.349C183.606 231.349 231.248 183.707 231.248 125.099C231.206 66.4916 183.563 18.8491 124.998 18.8491ZM124.998 210.184C78.078 210.184 39.913 172.019 39.8705 125.099L39.913 121.232H55.553V126.332C55.553 164.624 86.7056 195.819 125.041 195.819H134.348V174.697H124.998C98.3505 174.697 76.633 153.022 76.633 126.332V121.232H210.041C210.083 122.507 210.126 123.782 210.126 125.057C210.126 172.019 171.918 210.184 124.998 210.184Z" fill="black"/>
</svg>
