<svg width="250" height="250" viewBox="0 0 250 250" fill="none" xmlns="http://www.w3.org/2000/svg">
<rect width="250" height="250" rx="125" fill="white"/>
<path d="M228.629 81.2255C222.957 67.8203 214.851 55.8061 204.524 45.4778C194.197 35.1494 182.158 27.0419 168.781 21.3694C154.896 15.4828 140.181 12.5127 124.985 12.5127C109.816 12.5127 95.0742 15.4828 81.1887 21.3694C67.7853 27.0419 55.7727 35.1494 45.4457 45.4778C35.1187 55.8061 27.0123 67.8471 21.3405 81.2255C15.4814 95.086 12.5117 109.829 12.5117 125.001C12.5117 140.172 15.4814 154.915 21.3672 168.803C27.0391 182.208 35.1455 194.222 45.4725 204.55C55.7995 214.878 67.8389 222.986 81.2155 228.659C95.101 234.519 109.816 237.515 125.011 237.515C140.181 237.515 154.922 234.546 168.808 228.659C182.211 222.986 194.224 214.878 204.551 204.55C214.878 194.222 222.984 182.181 228.656 168.803C234.515 154.915 237.512 140.199 237.512 125.001C237.485 109.829 234.489 95.086 228.629 81.2255ZM87.6365 114.431C92.3183 96.4506 108.692 83.1521 128.142 83.1521H206.236C211.266 92.865 214.477 103.434 215.734 114.431H87.6365ZM215.734 135.57C214.477 146.567 211.24 157.136 206.236 166.849H128.142C108.719 166.849 92.3451 153.551 87.6365 135.57H215.734ZM60.4011 60.4084C77.6573 43.1499 100.585 33.651 124.985 33.651C149.385 33.651 172.313 43.1499 189.569 60.4084C190.104 60.9436 190.612 61.4785 191.121 62.0137H128.142C111.314 62.0137 95.5022 68.5696 83.5966 80.4762C74.233 89.8415 68.1864 101.641 66.0193 114.458H34.2626C36.5902 94.0423 45.6598 75.1518 60.4011 60.4084ZM124.985 216.377C100.585 216.377 77.6573 206.878 60.4011 189.62C45.6598 174.876 36.5902 155.986 34.2626 135.597H66.0193C68.1596 148.413 74.233 160.213 83.5966 169.579C95.5022 181.485 111.314 188.041 128.142 188.041H191.147C190.639 188.576 190.104 189.111 189.595 189.646C172.339 206.851 149.385 216.377 124.985 216.377Z" fill="black"/>
</svg>
