<svg width="250" height="250" viewBox="0 0 250 250" fill="none" xmlns="http://www.w3.org/2000/svg">
<path d="M125.001 247.45C192.631 247.45 247.455 192.626 247.455 124.996C247.455 57.3656 192.631 2.53955 125.001 2.53955C57.3709 2.53955 2.54492 57.3656 2.54492 124.996C2.54492 192.626 57.3709 247.45 125.001 247.45Z" fill="white"/>
<path d="M160.417 151.419L195.061 131.415C195.963 130.892 196.713 130.141 197.234 129.237C197.755 128.333 198.03 127.308 198.031 126.265V86.2591C198.031 84.1451 196.891 82.1691 195.061 81.1091L160.417 61.1051C159.512 60.5851 158.487 60.3115 157.444 60.3115C156.4 60.3115 155.375 60.5851 154.471 61.1051L119.827 81.1091C118.924 81.6326 118.175 82.3837 117.654 83.2875C117.133 84.1912 116.858 85.2158 116.857 86.2591V157.755L92.5607 171.779L68.2667 157.755V129.699L92.5607 115.675L108.587 124.925V106.105L95.5307 98.5691C94.6267 98.0485 93.6018 97.7746 92.5587 97.7746C91.5156 97.7746 90.4907 98.0485 89.5867 98.5691L54.9407 118.575C54.0379 119.098 53.2884 119.849 52.7672 120.753C52.246 121.657 51.9713 122.682 51.9707 123.725V163.729C51.9707 165.845 53.1107 167.819 54.9407 168.879L89.5867 188.885C90.4915 189.403 91.516 189.676 92.5587 189.676C93.6014 189.676 94.6259 189.403 95.5307 188.885L130.177 168.885C131.079 168.362 131.828 167.61 132.349 166.707C132.871 165.803 133.145 164.778 133.147 163.735V92.2391L133.587 91.9891L157.441 78.2151L181.737 92.2391V120.295L157.441 134.319L141.441 125.079V143.899L154.471 151.425C155.376 151.944 156.401 152.216 157.444 152.216C158.487 152.216 159.512 151.944 160.417 151.425V151.419Z" fill="url(#paint0_linear_242_94810)"/>
<defs>
<linearGradient id="paint0_linear_242_94810" x1="64.3807" y1="169.195" x2="189.921" y2="77.6551" gradientUnits="userSpaceOnUse">
<stop stop-color="#A726C1"/>
<stop offset="0.88" stop-color="#803BDF"/>
<stop offset="1" stop-color="#7B3FE4"/>
</linearGradient>
</defs>
</svg>
