<svg width="250" height="250" viewBox="0 0 250 250" fill="none" xmlns="http://www.w3.org/2000/svg">
<rect width="250" height="250" rx="125" fill="white"/>
<path d="M138.29 39.4854C96.9881 39.4854 62.2583 66.3593 52.1167 102.847H102.459C109.827 92.0737 122.552 84.956 137.001 84.956C157.631 84.956 174.721 99.4702 177.754 118.413H226.75H227.245C223.791 74.266 185.278 39.4866 138.295 39.4866L138.29 39.4854ZM177.586 131.372C174.164 149.872 157.3 163.934 136.998 163.934C122.953 163.934 110.537 157.207 103.088 146.937H52.1133C62.2645 183.419 96.997 210.299 138.286 210.299C185.262 210.299 223.774 175.509 227.236 131.372H226.742H177.581L177.586 131.372Z" fill="black"/>
<path d="M43.0772 111.918H38.9687L33.675 133.671L27.1171 111.918H23.1666L16.7668 133.671L11.3547 111.918H7.24609L14.6335 138.705H18.6631L25.1024 116.694L31.7393 138.705H35.7688L43.0772 111.918Z" fill="black"/>
<path d="M67.0805 138.714L56.9671 111.928H52.2265L41.9551 138.714H45.8661L48.908 130.667H60.0088L62.9717 138.714H67.0805ZM58.9819 127.801H49.8164L54.5571 115.602L58.9819 127.801Z" fill="black"/>
<path d="M98.9221 138.714V111.928H93.8259L85.4511 135.26L76.9184 111.928H71.8223V138.714H75.2987V116.263L83.476 138.714H87.3475L95.4458 116.263V138.714H98.9221Z" fill="black"/>
<path d="M127.368 119.769C127.368 114.735 124.168 111.906 118.479 111.906H106.588V138.693H110.262V127.339H119.309C124.049 127.339 127.368 124.216 127.368 119.77M123.536 119.623C123.536 122.563 121.442 124.326 117.926 124.326H110.262V114.92H117.926C121.442 114.92 123.536 116.683 123.536 119.623Z" fill="black"/>
</svg>
