<svg width="250" height="250" viewBox="0 0 250 250" fill="none" xmlns="http://www.w3.org/2000/svg">
<rect width="250" height="250" rx="125" fill="white"/>
<g clip-path="url(#clip0_242_94300)">
<path fill-rule="evenodd" clip-rule="evenodd" d="M33.2831 135.668V135.669H11.8585C11.5321 132.16 11.3677 128.607 11.3652 125.011C11.3652 62.2425 62.2485 11.3595 125.016 11.3595C154.516 11.3198 182.867 22.7895 204.04 43.3293H168.127C154.844 36.3065 140.042 32.6463 125.016 32.6691C77.6203 32.6691 38.5642 68.3769 33.2829 114.358H139.223V135.668H33.2831Z" fill="#BD2D63"/>
<path fill-rule="evenodd" clip-rule="evenodd" d="M194.877 185.395C177.944 204.968 152.925 217.352 125.014 217.352C85.2531 217.352 51.3618 192.222 38.356 156.98H15.9199C29.7297 204.183 73.3449 238.661 125.014 238.661C174.053 238.661 215.837 207.603 231.77 164.083H208.705V164.086H96.6009V185.395L194.877 185.395Z" fill="#4C2C6F"/>
<path fill-rule="evenodd" clip-rule="evenodd" d="M215.649 142.775C219.383 123.576 216.955 103.688 208.712 85.9514H96.6016V64.642H194.89V64.6406H221.322C232.687 82.7237 238.7 103.655 238.666 125.012C238.668 130.96 238.206 136.899 237.286 142.775L215.649 142.775Z" fill="#E08130"/>
</g>
<defs>
<clipPath id="clip0_242_94300">
<rect width="227.302" height="227.302" fill="white" transform="translate(11.3652 11.3594)"/>
</clipPath>
</defs>
</svg>
