<svg width="250" height="250" viewBox="0 0 250 250" fill="none" xmlns="http://www.w3.org/2000/svg">
<rect width="250" height="250" rx="125" fill="white"/>
<g clip-path="url(#clip0_242_94302)">
<path d="M81.8816 69.2629L41.4834 143.897L11.3633 90.8578L14.3648 89.7649H31.7937L41.0756 106.113L81.4697 31.4836L112.569 86.2421L102.127 104.924L81.8816 69.2631V69.2629ZM187.056 105.281L197.649 86.3301L167.966 31.4834L82.9031 181.243L64.5873 148.487L63.6456 146.903L61.2746 147.87L52.2659 163.987L82.7685 218.535L167.559 69.2588L187.056 105.285V105.281H187.056ZM217.676 89.7687L166.529 181.243L148.297 149.143L147.309 147.444L144.98 148.609L136.026 164.613L166.663 218.539L238.666 89.7647H217.676V89.7687Z" fill="url(#paint0_linear_242_94302)"/>
</g>
<defs>
<linearGradient id="paint0_linear_242_94302" x1="11.3633" y1="125.011" x2="238.666" y2="125.011" gradientUnits="userSpaceOnUse">
<stop stop-color="#62C0EA"/>
<stop offset="0.5" stop-color="#8170B3"/>
<stop offset="1" stop-color="#D14698"/>
</linearGradient>
<clipPath id="clip0_242_94302">
<rect width="227.302" height="227.302" fill="white" transform="translate(11.3633 11.3594)"/>
</clipPath>
</defs>
</svg>
