<svg width="250" height="250" viewBox="0 0 250 250" fill="none" xmlns="http://www.w3.org/2000/svg">
<g clip-path="url(#clip0_242_94724)">
<path d="M126.039 235.412C186.446 235.412 235.414 186.443 235.414 126.037C235.414 65.6307 186.446 16.6621 126.039 16.6621C65.6331 16.6621 16.6641 65.6307 16.6641 126.037C16.6641 186.443 65.6331 235.412 126.039 235.412Z" fill="white"/>
<path fill-rule="evenodd" clip-rule="evenodd" d="M0 124.994C0 55.9551 55.961 -0.00585938 125 -0.00585938C194.039 -0.00585938 250 55.9551 250 124.994C250 194.033 194.039 249.994 125 249.994C55.961 249.994 0 194.033 0 124.994Z" fill="#252C35"/>
<path fill-rule="evenodd" clip-rule="evenodd" d="M68.8066 141.267C77.3881 141.267 84.2546 134.392 84.2546 125.79C84.2716 123.715 83.8736 121.657 83.0841 119.738C82.2946 117.82 81.1291 116.08 79.6571 114.62C78.1856 113.161 76.4366 112.012 74.5136 111.241C72.5916 110.47 70.5341 110.094 68.4636 110.133C59.3681 110.305 52.5091 117.188 52.6806 125.79C52.6806 134.735 59.7111 141.267 68.8146 141.267H68.8066ZM125.096 83.8216C129.207 83.7721 133.134 82.1016 136.025 79.1711C138.917 76.2406 140.54 72.2866 140.543 68.1651C140.543 59.5711 132.983 52.3366 124.41 52.5086C115.485 52.8521 108.447 59.9071 108.79 68.5086C108.962 77.2821 116.171 83.9931 125.096 83.8216ZM166.109 124.064C165.937 133.009 172.461 139.884 181.557 140.056C183.587 140.155 185.616 139.85 187.528 139.159C189.44 138.467 191.196 137.404 192.696 136.029C194.195 134.655 195.409 132.995 196.266 131.148C197.124 129.301 197.608 127.303 197.69 125.267C198.026 116.493 191.167 109.095 182.585 108.923C173.49 108.751 166.28 115.29 166.109 124.064ZM125.952 197.683C134.534 197.683 141.4 190.808 141.572 182.37C141.743 173.948 134.705 166.721 126.295 166.55C117.2 166.378 109.819 173.425 109.819 182.206C109.819 190.628 117.2 197.519 125.952 197.683ZM182.242 150.893C174.69 150.721 168.166 148.486 162.679 142.814C156.327 136.447 148.611 135.588 142.944 140.572C136.943 145.728 136.592 153.65 142.601 160.869C149.125 168.784 154.098 177.041 151.526 187.878C149.125 198.034 141.058 206.112 131.105 207.831C120.115 209.894 109.133 205.425 103.475 196.136C97.4731 186.503 97.8081 176.698 103.818 167.065C104.675 165.674 105.727 164.408 106.772 163.158C107.403 162.408 108.042 161.651 108.619 160.869C114.114 153.994 113.942 146.252 107.762 141.088C101.932 136.103 94.1996 136.791 88.3696 142.807C81.1681 150.549 72.2361 153.479 61.9476 151.064C51.1371 148.486 43.4134 139.892 41.8702 128.877C40.4906 118.564 46.157 107.548 55.2526 102.564C60.0366 99.9486 65.4971 98.8456 70.9171 99.3971C76.3381 99.9496 81.4656 102.132 85.6261 105.657C86.1406 106.087 86.6551 106.595 87.1696 107.118C87.6836 107.634 88.1981 108.15 88.7126 108.579C94.5506 113.915 102.617 113.915 107.933 108.751C113.077 103.767 113.428 96.0166 108.619 90.0006L107.232 88.3446C103.576 83.9851 100.061 79.7896 98.8371 73.8366C96.2651 61.6176 101.932 49.4064 113.085 44.2503C124.581 38.9142 138.135 42.008 145.516 51.8126C149.208 56.5591 151.155 62.4346 151.031 68.4511C150.906 74.4676 148.716 80.2571 144.83 84.8446C144.145 85.6181 143.459 86.4306 142.773 87.2506C142.087 88.0631 141.401 88.8916 140.715 89.6571C136.078 95.8526 136.592 103.423 141.915 108.408C147.402 113.4 155.477 113.4 160.964 107.548C166.794 101.532 173.489 97.9151 182.071 97.9151C185.536 97.9056 188.968 98.5851 192.169 99.9151C195.369 101.245 198.275 103.198 200.717 105.661C203.16 108.125 205.09 111.05 206.397 114.266C207.703 117.483 208.36 120.927 208.329 124.4C208.501 139.025 196.653 150.729 182.242 150.893ZM125.953 192.525C120.294 192.525 114.971 187.368 114.971 181.86C114.971 176.524 120.115 171.532 125.781 171.532C127.186 171.51 128.579 171.771 129.881 172.299C131.182 172.828 132.364 173.613 133.356 174.609C134.349 175.605 135.132 176.79 135.658 178.095C136.184 179.399 136.444 180.797 136.42 182.204C136.42 188.22 131.962 192.517 125.953 192.517V192.525ZM171.261 124.4C171.261 130.26 176.062 134.729 182.071 134.9C183.426 134.956 184.778 134.741 186.048 134.268C187.32 133.794 188.484 133.072 189.474 132.144C190.464 131.216 191.26 130.1 191.815 128.86C192.371 127.621 192.675 126.282 192.71 124.924C192.882 119.072 188.073 113.908 182.243 113.908C176.405 113.908 171.253 118.908 171.253 124.408L171.261 124.4ZM135.392 68.3296C135.392 74.1816 130.762 78.8221 125.096 78.9941C119.601 79.1661 113.942 73.8376 113.942 68.3296C113.942 62.6501 118.915 57.8376 124.924 57.8376C130.762 57.8376 135.392 62.4781 135.392 68.3296ZM79.1021 125.955C79.1756 124.542 78.9571 123.129 78.4616 121.804C77.9661 120.479 77.2036 119.27 76.2216 118.253C75.2396 117.237 74.0586 116.434 72.7541 115.895C71.4486 115.355 70.0461 115.091 68.6346 115.119C62.8046 115.119 57.6526 120.103 57.6526 125.611C57.6526 130.939 63.4906 136.275 69.3206 136.275C74.6441 136.275 79.1021 131.627 79.1021 125.955Z" fill="white"/>
</g>
<defs>
<clipPath id="clip0_242_94724">
<rect width="250" height="250" fill="white"/>
</clipPath>
</defs>
</svg>
