<svg width="250" height="250" viewBox="0 0 250 250" fill="none" xmlns="http://www.w3.org/2000/svg">
<path d="M19.8242 35.2275C20.3037 35.5795 20.6249 35.7898 20.9165 36.0372C31.8035 45.0643 42.6698 54.1171 53.1253 63.6693C56.6611 66.9002 59.9708 70.3943 63.3667 73.7906C78.6758 89.0849 93.8351 104.533 108.845 120.136C110.253 121.6 111.657 123.069 113.057 124.543C113.331 124.832 113.581 125.145 113.912 125.526C113.619 125.852 113.395 126.132 113.14 126.379C107.748 131.576 102.413 136.844 96.9409 141.958C90.015 148.429 83.026 154.829 75.9741 161.157C71.7327 164.981 67.3515 168.647 62.7398 172.001C62.0396 172.51 61.3132 172.979 60.5988 173.463C60.2559 173.639 60.2045 173.676 60.3858 173.264C60.5541 172.966 60.7059 172.658 60.8916 172.374C63.4727 168.416 66.3793 164.716 69.3264 161.049C78.5651 149.554 88.2604 138.472 97.8978 127.339C99.4772 125.512 99.5144 125.869 97.7885 124.125C82.8567 109.066 68.2373 93.6979 54.116 77.8402C42.7036 65.0244 31.6211 51.904 21.5249 37.9445C21.0039 37.2248 20.5025 36.4882 19.9957 35.7538C19.9433 35.674 19.9334 35.5638 19.8242 35.2275Z" fill="url(#paint0_radial_242_94887)"/>
<path d="M41.4238 229.065C41.6368 228.745 41.8323 228.409 42.0661 228.106C44.6931 224.703 47.2709 221.258 49.9689 217.915C58.2704 207.621 66.9827 197.688 75.7626 187.822C87.8639 174.224 100.241 160.897 112.894 147.841C117.025 143.561 121.158 139.282 125.291 135.003C125.669 134.612 126.093 134.266 126.572 133.83C126.923 134.145 127.234 134.392 127.505 134.671C140.909 148.711 153.865 163.167 165.857 178.514C168.137 181.431 170.281 184.462 172.481 187.445C172.699 187.735 172.86 188.062 173.09 188.443C172.567 188.611 172.307 188.308 172.038 188.106C169.142 185.902 166.194 183.76 163.369 181.464C155.452 175.03 147.83 168.232 140.212 161.428C136.309 157.94 132.407 154.449 128.508 150.954C127.624 150.167 127.548 150.167 126.71 150.975C120.119 157.386 113.577 163.844 106.928 170.186C96.863 179.781 86.753 189.333 76.5982 198.842C70.3972 204.63 64.0749 210.286 57.7439 215.927C52.8734 220.267 47.9198 224.51 42.7248 228.441C42.3588 228.718 41.982 228.978 41.6095 229.246L41.4238 229.065Z" fill="url(#paint1_radial_242_94887)"/>
<path d="M191.272 77.224C190.581 78.2665 190.116 79.1358 189.368 80.1288C186.208 84.3381 183.089 88.5834 179.819 92.7016C171.408 103.294 162.725 113.647 153.906 123.878C153.833 123.962 153.761 124.047 153.688 124.133C153.073 124.889 153.066 124.988 153.757 125.707C155.798 127.844 157.855 129.968 159.893 132.109C176.053 149.078 191.939 166.311 207.314 184.038C214.006 191.754 220.6 199.557 226.742 207.75C227.698 209.024 228.614 210.336 229.543 211.626C229.714 211.852 229.813 212.127 229.826 212.413C229.484 212.173 229.133 211.943 228.8 211.689C223.499 207.655 218.423 203.338 213.407 198.932C200.561 187.634 188.135 175.86 175.832 163.943C164.934 153.387 154.193 142.666 143.609 131.78C141.883 130.006 140.175 128.214 138.462 126.424C138.211 126.162 137.987 125.872 137.677 125.509C137.947 125.195 138.158 124.906 138.411 124.66C144.238 118.95 149.989 113.154 155.924 107.566C162.663 101.219 169.498 94.9796 176.428 88.8476C180.785 84.9903 185.376 81.4142 189.864 77.7143C190.283 77.3702 190.445 77.2645 190.884 76.9417C191.305 76.6504 191.416 76.7337 191.416 76.7337C191.416 76.7337 191.496 76.7876 191.272 77.224Z" fill="url(#paint2_radial_242_94887)"/>
<path d="M209.942 23.8951C206.789 28.2416 193.912 43.7091 185.365 53.5188C166.513 75.1737 147.053 96.2191 126.47 116.282C126.046 115.89 125.717 115.607 125.409 115.302C119.753 109.671 114.459 103.686 109.23 97.6462C100.855 87.9636 92.6933 78.0931 84.8713 67.9247C83.5267 66.1613 82.2159 64.362 80.8942 62.5705C80.6168 62.1938 80.3786 61.7833 80.123 61.3942L80.2902 61.1986C80.6386 61.4235 81.0056 61.6203 81.3311 61.8733C86.1711 65.6553 91.0734 69.3574 95.8282 73.2496C104.834 80.6201 113.58 88.3047 122.068 96.3035C123.117 97.2875 124.143 98.3007 125.171 99.3061C126.276 100.383 126.263 100.38 127.327 99.3173C133.116 93.5145 138.869 87.6712 144.71 81.9234C159.051 67.8088 173.713 54.0552 188.896 40.9043C195.633 35.07 202.556 29.4629 209.397 23.7556C210.502 22.9212 210.321 23.3699 209.942 23.8951Z" fill="url(#paint3_radial_242_94887)"/>
<defs>
<radialGradient id="paint0_radial_242_94887" cx="0" cy="0" r="1" gradientUnits="userSpaceOnUse" gradientTransform="translate(43.0575 105.746) scale(89.0523 91.6837)">
<stop offset="0.33" stop-color="#00B7B0"/>
<stop offset="0.96" stop-color="#0084C3"/>
</radialGradient>
<radialGradient id="paint1_radial_242_94887" cx="0" cy="0" r="1" gradientUnits="userSpaceOnUse" gradientTransform="translate(61.5845 217.417) scale(125.892 129.612)">
<stop offset="0.24" stop-color="#00B8AE"/>
<stop offset="0.53" stop-color="#00AAB7"/>
<stop offset="1" stop-color="#008ACB"/>
</radialGradient>
<radialGradient id="paint2_radial_242_94887" cx="0" cy="0" r="1" gradientUnits="userSpaceOnUse" gradientTransform="translate(132.671 136.105) scale(102.69 105.724)">
<stop offset="0.13" stop-color="#58C4C1"/>
<stop offset="0.71" stop-color="#1B9ABF"/>
<stop offset="0.95" stop-color="#0088BE"/>
</radialGradient>
<radialGradient id="paint3_radial_242_94887" cx="0" cy="0" r="1" gradientUnits="userSpaceOnUse" gradientTransform="translate(149.064 94.4029) scale(95.6957 98.5234)">
<stop offset="0.13" stop-color="#6BC6C4"/>
<stop offset="0.61" stop-color="#2EA0BD"/>
<stop offset="0.96" stop-color="#0084B8"/>
</radialGradient>
</defs>
</svg>
