<svg width="250" height="250" viewBox="0 0 250 250" fill="none" xmlns="http://www.w3.org/2000/svg">
<g clip-path="url(#clip0_242_94812)">
<path d="M249.999 124.997C249.999 55.9615 194.035 -0.00292969 124.999 -0.00292969C55.9634 -0.00292969 -0.000976562 55.9615 -0.000976562 124.997C-0.000976562 194.033 55.9634 249.997 124.999 249.997C194.035 249.997 249.999 194.033 249.999 124.997Z" fill="#00A3FF"/>
<path opacity="0.6" d="M176.274 116.116L177.674 118.263C193.458 142.476 189.933 174.187 169.198 194.502C157 206.455 141.014 212.431 125.026 212.433L176.274 116.116Z" fill="white"/>
<path opacity="0.2" d="M125.021 145.389L176.269 116.116L125.021 212.433V145.389Z" fill="white"/>
<path d="M73.7256 116.116L72.3262 118.263C56.542 142.476 60.0674 174.187 80.8018 194.502C92.9996 206.455 108.986 212.431 124.974 212.433L73.7256 116.116Z" fill="white"/>
<path opacity="0.6" d="M124.958 145.389L73.71 116.116L124.958 212.433V145.389Z" fill="white"/>
<path opacity="0.2" d="M125.041 79.9937V130.482L169.186 105.254L125.041 79.9937Z" fill="white"/>
<path opacity="0.6" d="M125.029 79.9937L80.8525 105.253L125.029 130.482V79.9937Z" fill="white"/>
<path d="M125.028 37.5332L80.8516 105.27L125.028 79.939V37.5332Z" fill="white"/>
<path opacity="0.6" d="M125.041 79.9307L169.219 105.262L125.041 37.4922V79.9307Z" fill="white"/>
</g>
<defs>
<clipPath id="clip0_242_94812">
<rect width="250" height="250" fill="white"/>
</clipPath>
</defs>
</svg>
