<svg width="250" height="250" viewBox="0 0 250 250" fill="none" xmlns="http://www.w3.org/2000/svg">
<path d="M210.835 111.026C210.835 121.44 210.854 131.854 210.827 142.267C210.813 147.676 209.616 149.088 204.328 150.373C196.027 152.392 187.732 154.434 179.44 156.49C173.044 158.077 170.295 156.02 170.293 149.568C170.286 128.495 170.286 107.423 170.289 86.3498C170.29 81.1285 171.323 79.9196 176.587 78.6225C185.233 76.492 193.869 74.3238 202.505 72.1534C207.542 70.8878 210.733 73.125 210.782 78.3145C210.887 89.2173 210.814 100.122 210.814 111.026C210.822 111.026 210.828 111.026 210.835 111.026Z" fill="#8202FC"/>
<path d="M144.708 99.127C143.467 99.4115 142.643 99.5942 141.821 99.7895C134.687 101.488 131.439 105.436 131.394 112.795C131.322 124.442 131.366 136.09 131.36 147.737C131.36 149.072 131.36 150.407 131.36 152.062C124.465 153.72 117.762 155.561 110.959 156.883C106.783 157.694 104.154 155.153 104.144 150.815C104.097 128.992 104.134 107.168 104.105 85.344C104.101 81.7274 105.827 79.6642 109.282 78.813C118.525 76.5362 127.75 74.1846 136.995 71.9141C141.076 70.9117 144.521 73.2599 144.65 77.505C144.865 84.5981 144.708 91.7028 144.708 99.127Z" fill="#8202FC"/>
<path d="M80.5317 98.5238C78.6879 99.0268 77.0642 99.5056 75.4227 99.9112C68.4213 101.642 65.3896 105.371 65.3284 112.759C65.244 122.934 65.3056 133.109 65.3046 143.284C65.3042 146.214 65.3046 149.144 65.3046 152.481C58.9444 154.009 52.7455 155.735 46.4462 156.928C42.4552 157.683 39.7395 155.199 39.7255 151.097C39.6506 129.032 39.6793 106.965 39.6986 84.8997C39.7014 81.6087 41.5571 79.6788 44.6266 78.899C54.0811 76.4969 63.5343 74.0872 73.0165 71.7978C77.0933 70.8136 80.3987 73.7851 80.4984 78.5871C80.6328 85.0775 80.5317 91.5725 80.5317 98.5238Z" fill="#8202FC"/>
<path d="M177.576 163.383C178.214 175.589 177.929 175.898 165.186 178.781C159.231 180.128 153.295 181.564 147.375 183.056C139.949 184.926 137.107 182.753 137.106 175.006C137.103 154.546 137.115 134.085 137.132 113.624C137.136 107.864 138.056 106.721 143.74 105.286C150.368 103.612 156.997 101.946 163.515 100.305C164.865 101.632 164.491 103.047 164.494 104.318C164.525 118.285 164.543 132.252 164.501 146.22C164.464 158.273 166.129 160.539 177.576 163.383Z" fill="#05FCDA"/>
<path d="M97.9409 100.852C98.6388 103.096 98.3094 105.299 98.3143 107.479C98.3455 121.58 98.3724 135.681 98.4008 149.781C98.4169 157.839 101.993 161.834 110.132 162.902C110.478 162.947 110.809 163.097 111.526 163.312C111.526 166.155 111.766 169.085 111.452 171.956C111.194 174.321 109.434 175.829 107.118 176.428C99.7787 178.325 92.428 180.177 85.0763 182.024C82.8247 182.589 80.5788 183.268 78.2873 183.566C73.6652 184.167 71.0532 181.882 70.9219 177.183C70.8124 173.262 70.9023 169.336 70.903 165.412C70.9065 147.877 71.0241 130.341 70.826 112.809C70.7816 108.874 72.5652 106.641 75.8118 105.734C82.6375 103.826 89.5843 102.35 96.4891 100.729C96.9259 100.627 97.4271 100.802 97.9409 100.852Z" fill="#05FCDA"/>
</svg>
