<svg width="250" height="250" viewBox="0 0 250 250" fill="none" xmlns="http://www.w3.org/2000/svg">
<path d="M187.883 73.5234L173.288 124.448C171.363 131.098 169.858 137.853 168.703 144.713C168.703 144.748 168.703 144.818 168.703 144.818H168.248C167.863 141.003 166.813 137.188 166.183 133.968L150.118 73.5234H117.218L101.223 133.933C100.593 137.153 99.5428 140.968 99.1578 144.783H98.7028C98.7028 144.748 98.7028 144.678 98.7028 144.678C97.5828 137.818 96.0428 131.063 94.1178 124.413L79.5928 73.5234H56.2828L63.1078 97.4634H38.2578V114.613H67.9728L72.8378 131.658H38.2928V148.843H77.7378L85.5428 176.318H113.368L132.198 104.323C132.793 101.663 133.318 98.7584 133.493 96.6934H133.948C134.088 98.6884 134.648 101.628 135.243 104.323L154.073 176.318H181.898L211.193 73.5234H187.883Z" fill="#053F33"/>
</svg>
