<svg width="250" height="250" viewBox="0 0 250 250" fill="none" xmlns="http://www.w3.org/2000/svg">
<g clip-path="url(#clip0_242_93966)">
<path d="M249.998 124.997C249.998 55.9471 194.048 -0.00292969 124.998 -0.00292969C55.948 -0.00292969 -0.00195312 55.9471 -0.00195312 124.997C-0.00195312 194.047 55.948 249.997 124.998 249.997C194.048 249.997 249.998 194.047 249.998 124.997Z" fill="white"/>
<path d="M204.399 64.1956C188.549 48.6456 167.199 39.9456 144.999 39.9956C98.049 39.9956 59.999 78.0456 59.999 124.996C59.999 171.946 98.049 209.996 144.999 209.996C168.099 209.996 189.099 200.746 204.399 185.796C185.499 210.546 156.149 225.046 124.999 224.996C69.749 224.996 24.999 180.246 24.999 124.996C24.999 69.7456 69.749 24.9956 124.999 24.9956C157.349 24.9956 186.099 40.3456 204.399 64.1956Z" fill="url(#paint0_linear_242_93966)"/>
<path d="M81.499 173.647C94.199 186.097 111.249 193.047 128.999 192.997C166.549 192.997 196.999 162.547 196.999 124.997C196.999 87.4471 166.549 56.9971 128.999 56.9971C111.249 56.9971 94.149 63.9471 81.499 76.3471C96.599 56.5971 120.099 44.9971 144.999 44.9971C189.199 44.9971 224.999 80.7971 224.999 124.997C224.999 169.197 189.199 204.997 144.999 204.997C120.099 204.997 96.599 193.397 81.499 173.647Z" fill="url(#paint1_linear_242_93966)"/>
<path fill-rule="evenodd" clip-rule="evenodd" d="M184.999 124.997C184.999 158.147 158.149 184.997 124.999 184.997C91.849 184.997 64.999 158.147 64.999 124.997C64.999 91.8466 91.849 64.9966 124.999 64.9966C158.149 64.9966 184.999 91.8466 184.999 124.997ZM164.999 124.997C164.999 147.097 147.099 164.997 124.999 164.997C102.899 164.997 84.999 147.097 84.999 124.997C84.999 102.897 102.899 84.9966 124.999 84.9966C147.099 84.9966 164.999 102.897 164.999 124.997Z" fill="url(#paint2_linear_242_93966)"/>
</g>
<defs>
<linearGradient id="paint0_linear_242_93966" x1="24.999" y1="124.996" x2="224.999" y2="124.996" gradientUnits="userSpaceOnUse">
<stop stop-color="#00E0FF"/>
<stop offset="1" stop-color="#562EC8"/>
</linearGradient>
<linearGradient id="paint1_linear_242_93966" x1="24.999" y1="124.997" x2="224.999" y2="124.997" gradientUnits="userSpaceOnUse">
<stop stop-color="#00E0FF"/>
<stop offset="1" stop-color="#562EC8"/>
</linearGradient>
<linearGradient id="paint2_linear_242_93966" x1="24.999" y1="124.997" x2="224.999" y2="124.997" gradientUnits="userSpaceOnUse">
<stop stop-color="#00E0FF"/>
<stop offset="1" stop-color="#562EC8"/>
</linearGradient>
<clipPath id="clip0_242_93966">
<rect width="250" height="250" rx="125" fill="white"/>
</clipPath>
</defs>
</svg>
