<svg width="250" height="250" viewBox="0 0 250 250" fill="none" xmlns="http://www.w3.org/2000/svg">
<g clip-path="url(#clip0_242_93967)">
<path d="M125.001 -0.00292969C194.051 -0.00292969 250.001 55.9471 250.001 124.997C250.001 194.047 194.051 249.997 125.001 249.997C55.951 249.997 0.000976562 194.047 0.000976562 124.997C0.000976562 55.9471 55.951 -0.00292969 125.001 -0.00292969Z" fill="black"/>
<path d="M156.851 120.396C154.651 120.396 152.601 119.546 151.051 117.996L132.001 98.9461C128.801 95.7461 128.801 90.5461 132.001 87.3461L166.951 52.3961C170.151 49.1961 175.351 49.1961 178.551 52.3961L197.601 71.4461C200.801 74.6461 200.801 79.8461 197.601 83.0461L162.651 117.996C161.101 119.546 159.001 120.396 156.851 120.396Z" fill="white"/>
<path d="M172.75 199.996C170.55 199.996 168.5 199.146 166.95 197.596L132 162.646C128.15 158.796 121.85 158.796 118 162.646L83.05 197.596C79.85 200.796 74.65 200.796 71.45 197.596L52.4 178.546C49.2 175.346 49.2 170.146 52.4 166.946L87.35 131.996C91.2 128.146 91.2 121.846 87.35 117.996L52.4 83.0461C49.2 79.8461 49.2 74.6461 52.4 71.4461L71.45 52.3961C74.65 49.1961 79.85 49.1961 83.05 52.3961L118 87.3461C121.2 90.5461 121.2 95.7461 118 98.9461L98.95 117.996C95.1 121.846 95.1 128.146 98.95 131.996L118 151.046C121.85 154.896 128.15 154.896 132 151.046L151.05 131.996C154.25 128.796 159.45 128.796 162.65 131.996L197.6 166.946C200.8 170.146 200.8 175.346 197.6 178.546L178.55 197.596C177.05 199.146 174.95 199.996 172.75 199.996Z" fill="white"/>
</g>
<defs>
<clipPath id="clip0_242_93967">
<rect width="250" height="250" rx="125" fill="white"/>
</clipPath>
</defs>
</svg>
