<svg width="250" height="250" viewBox="0 0 250 250" fill="none" xmlns="http://www.w3.org/2000/svg">
<circle cx="123" cy="108" r="75" fill="white"/>
<path fill-rule="evenodd" clip-rule="evenodd" d="M125.253 124.473C154.057 124.473 178.022 119.605 183.989 113.097C178.962 107.526 161.012 103.266 138.034 102.142V115.859C133.993 116.14 129.67 116.14 125.206 116.14C120.742 116.14 116.56 116 112.378 115.719V102.142C89.3998 103.406 71.4499 107.713 66.4221 113.097C72.3427 119.605 96.4482 124.473 125.253 124.473ZM176.33 59.9618V78.8284H137.893V91.8899C164.912 93.2943 185.07 98.959 185.211 105.888V120.166C185.07 127.095 164.865 132.806 137.893 134.164V166.186H112.425V134.258C85.4057 132.853 65.2473 127.189 65.1063 120.26V105.841C65.2473 98.9122 85.4527 93.2007 112.425 91.843V78.7816H73.9873V59.915H176.33V59.9618ZM58.9977 30H193.763C196.958 30 199.872 31.6854 201.563 34.4475L240.799 101.581C242.867 105.045 242.209 109.492 239.249 112.255L131.22 217.402C127.743 220.866 122.01 220.866 118.533 217.402L10.6457 112.395C7.73237 109.492 7.16849 105.045 9.23602 101.44L51.3385 34.1666C52.9831 31.6385 55.8964 30 58.9977 30Z" fill="#C4A24B"/>
</svg>
