<svg width="250" height="250" viewBox="0 0 250 250" fill="none" xmlns="http://www.w3.org/2000/svg">
<g clip-path="url(#clip0_242_94247)">
<path d="M124.998 249.998C194.034 249.998 249.998 194.034 249.998 124.998C249.998 55.9624 194.034 -0.00195312 124.998 -0.00195312C55.9624 -0.00195312 -0.00195312 55.9624 -0.00195312 124.998C-0.00195312 194.034 55.9624 249.998 124.998 249.998Z" fill="#F7931A"/>
<path d="M202.945 154.326L198.687 171.381L187.32 168.553L191.57 151.49L174.516 147.24L177.352 135.873L194.406 140.123L198.664 123.068L210.031 125.904L205.781 142.959L222.836 147.209L220 158.584L202.945 154.326ZM161.016 107.498C159.43 118.045 153.68 123.17 146.078 124.998C156.477 130.49 161.742 138.959 156.609 153.725C150.234 172.061 135.312 173.686 115.5 169.975L110.578 189.678L98.9687 186.787L103.82 167.334C100.728 166.569 97.6447 165.769 94.5703 164.936L89.6953 184.467L78.1016 181.576L83.0234 161.826C80.3047 161.131 77.5547 160.396 74.7422 159.693L59.625 155.92L65.4688 142.311C65.4688 142.311 74.0234 144.584 73.9062 144.42C77.2031 145.225 78.6719 143.029 79.2578 141.568L87.0234 110.412L88.2578 110.717C87.8634 110.559 87.4589 110.429 87.0469 110.326L92.5937 88.084C92.75 85.5605 91.9141 82.3887 87.2031 81.209C87.3906 81.0918 78.7734 79.1152 78.7734 79.1152L81.9375 66.4277L97.9531 70.4277L97.9375 70.4824C100.344 71.084 102.828 71.6543 105.359 72.2246L110.227 52.709L121.836 55.5996L117.062 74.7402C120.18 75.4434 123.312 76.1621 126.359 76.9277L131.102 57.9199L142.719 60.8105L137.852 80.334C152.508 85.4121 163.203 93.0918 161.016 107.498ZM134.242 145.662C138.078 130.271 112.82 126.443 104.945 124.475L98.4375 150.623C106.312 152.576 130.586 160.412 134.258 145.654L134.242 145.662ZM138.047 107.412C141.531 93.4043 120.406 90.4043 113.852 88.7715L107.937 112.498C114.492 114.139 134.695 120.834 138.047 107.412Z" fill="white"/>
</g>
<defs>
<clipPath id="clip0_242_94247">
<rect width="250" height="250" rx="125" fill="white"/>
</clipPath>
</defs>
</svg>
