<svg width="250" height="250" viewBox="0 0 250 250" fill="none" xmlns="http://www.w3.org/2000/svg">
<path d="M149.174 109.021H170.071V169.591H149.174V109.021Z" fill="#3AAC59"/>
<path d="M120.506 104.435C112.494 104.435 104.242 106.318 102.215 109.889C102.166 109.937 102.166 109.986 102.118 110.034V84.6475H80.6415V124.995C82.765 125.961 84.9851 127.071 87.2051 128.326C87.9291 128.76 88.5565 129.098 89.0391 129.387C89.3287 129.58 89.6182 129.725 89.9078 129.918C89.9561 129.918 77.6492 148.934 60.9023 152.891C51.0085 155.256 39.3291 152.409 36.9643 142.563C36.8677 142.177 36.8195 141.743 36.7712 141.357C38.3639 140.44 39.9565 139.571 41.5974 138.799C45.6997 137.013 48.8367 135.71 49.995 135.227C50.0916 135.179 50.1881 135.131 50.2846 135.131C60.0336 131.607 68.2381 130.401 68.2381 130.401C60.8058 129.773 54.3869 130.256 49.0298 131.318C49.0298 131.318 48.9815 131.318 48.9333 131.366C44.1071 132.331 40.1013 133.731 37.0125 135.131C38.75 128.036 44.9758 121.858 52.3116 120.121C52.939 119.976 53.6147 119.831 54.2904 119.735C54.4834 119.686 54.6765 119.686 54.8695 119.638C55.4004 119.59 55.883 119.493 56.4139 119.493C56.607 119.493 56.7517 119.445 56.8965 119.445C57.5722 119.397 58.2479 119.397 58.8753 119.397C59.0201 119.397 59.1166 119.397 59.2614 119.397C59.8405 119.397 60.3714 119.445 60.9023 119.445C61.0953 119.445 61.2884 119.493 61.4814 119.493C61.6745 119.493 61.8675 119.542 62.0606 119.542C65.2459 119.879 69.1068 120.7 73.4504 122.148V108.2C71.3752 107.572 69.1551 106.945 66.8385 106.366C60.8058 104.773 50.3811 103.084 39.0395 105.787C20.7482 110.227 15.5842 123.596 15.5842 139.957C15.5842 142.032 15.7772 144.011 16.0668 145.845C12.2058 148.548 8.29657 151.54 4.77344 154.918C4.77344 154.918 10.034 152.602 16.9838 149.513C21.6169 165.247 37.833 170.556 50.0433 170.556C62.7845 170.556 70.9408 166.936 80.6897 160.903V168.529H102.166V130.69C102.166 130.642 102.215 130.594 102.263 130.546V129.918C104.29 124.513 107.765 123.113 111.626 123.113C116.742 123.113 119.927 126.685 119.927 132.428V168.577H141.355V126.298C141.307 112.978 132.909 104.435 120.506 104.435Z" fill="#3AAC59"/>
<path d="M159.302 79.3389C152.835 79.3389 148.25 83.8756 148.25 90.2946C148.25 96.7136 152.835 101.299 159.302 101.299C165.769 101.299 170.354 96.7618 170.354 90.2946C170.354 83.8756 165.769 79.3389 159.302 79.3389Z" fill="#3AAC59"/>
<path d="M241.405 134.264V107.284H219.929L219.784 111.097C199.079 97.8732 185.855 111.483 185.855 111.483C179.533 117.227 175.865 126.3 175.865 137.69C175.865 157.864 188.076 169.882 203.906 169.882C209.842 169.882 215.295 168.53 220.073 162.063C220.604 163.559 221.811 167.275 222.728 168.579H245.073C241.26 162.304 241.309 140.634 241.405 134.264ZM208.973 152.41C202.023 152.41 197.101 146.426 197.101 137.883C197.101 129.341 202.023 123.356 208.973 123.356C213.848 123.356 217.708 126.3 219.591 131.03V144.785C217.708 149.466 213.848 152.41 208.973 152.41Z" fill="#3AAC59"/>
</svg>
