<svg width="250" height="250" viewBox="0 0 250 250" fill="none" xmlns="http://www.w3.org/2000/svg">
<rect width="250" height="250" rx="125" fill="white"/>
<path d="M200.929 83.1963L178.872 96.0738L208.622 113.159V173.211L156.644 203.344L104.667 173.211V113.159L134.587 95.9038L130.379 93.5238L112.359 83.1963L82.4395 100.494V186.089L156.644 228.886L230.849 186.089V100.494L200.929 83.1963Z" fill="black"/>
<path d="M93.6581 21.3154L19.4531 64.1129V149.708L49.3731 166.963L67.3931 156.678L71.4306 154.298L41.4681 137.043V76.7779L93.6581 46.8579L145.636 76.7779V137.043L115.843 154.128L137.901 166.963L167.651 149.708V64.1129L93.6581 21.3154Z" fill="black"/>
</svg>
