<svg width="250" height="250" viewBox="0 0 250 250" fill="none" xmlns="http://www.w3.org/2000/svg">
<rect width="250" height="250" rx="125" fill="white"/>
<g clip-path="url(#clip0_242_94303)">
<path d="M11.3633 120.466C11.3633 82.2751 11.3633 63.1799 18.7961 48.5925C25.3336 35.7622 35.7651 25.3307 48.5954 18.7931C63.1828 11.3604 82.278 11.3604 120.468 11.3604H129.561C167.751 11.3604 186.846 11.3604 201.434 18.7931C214.264 25.3307 224.695 35.7622 231.233 48.5925C238.666 63.1799 238.666 82.2751 238.666 120.466V129.558C238.666 167.748 238.666 186.843 231.233 201.431C224.695 214.261 214.264 224.692 201.434 231.23C186.846 238.663 167.751 238.663 129.561 238.663H120.468C82.278 238.663 63.1828 238.663 48.5954 231.23C35.7651 224.692 25.3336 214.261 18.7961 201.431C11.3633 186.843 11.3633 167.748 11.3633 129.558V120.466Z" fill="#080D12"/>
<path fill-rule="evenodd" clip-rule="evenodd" d="M125.014 39.7744C172.09 39.7744 210.252 77.9371 210.252 125.013C210.252 172.089 172.09 210.251 125.014 210.251C77.9377 210.251 39.7754 172.089 39.7754 125.013C39.7754 77.9371 77.9381 39.7744 125.014 39.7744ZM125.332 190.354C89.4205 190.354 60.3088 161.243 60.3088 125.331C60.3088 89.42 89.4207 60.308 125.332 60.308C149.804 60.308 171.119 73.8275 182.215 93.8051C185.774 100.214 180.512 107.298 173.18 107.298C168.824 107.298 164.977 104.658 162.593 101.012C158.551 94.8147 153.027 89.7241 146.52 86.2019C140.014 82.6797 132.731 80.8373 125.332 80.8418C100.761 80.8418 80.8426 100.76 80.8426 125.331C80.8426 149.902 100.761 169.821 125.332 169.821C133.14 169.824 140.812 167.771 147.575 163.869C154.338 159.966 159.955 154.352 163.86 147.591C166.144 143.645 170.111 140.73 174.671 140.73C181.724 140.73 186.923 147.394 183.837 153.737C173.294 175.415 151.058 190.354 125.332 190.354Z" fill="white"/>
</g>
<defs>
<clipPath id="clip0_242_94303">
<rect width="227.302" height="227.302" fill="white" transform="translate(11.3633 11.3604)"/>
</clipPath>
</defs>
</svg>
