<svg width="250" height="250" viewBox="0 0 250 250" fill="none" xmlns="http://www.w3.org/2000/svg">
<rect width="250" height="250" rx="125" fill="white"/>
<g clip-path="url(#clip0_242_94306)">
<path fill-rule="evenodd" clip-rule="evenodd" d="M153.483 21.8764V15.3244C153.485 14.8065 153.385 14.2933 153.189 13.814C152.992 13.3348 152.704 12.8989 152.339 12.5313C151.974 12.1636 151.54 11.8714 151.063 11.6713C150.585 11.4713 150.073 11.3673 149.555 11.3652C149.489 11.3652 149.423 11.3664 149.357 11.3696C105.295 13.4607 69.9898 48.9654 68.2102 93.0953C68.3068 95.8627 70.5458 96.5843 71.8641 96.5843H78.5193C79.5324 96.5849 80.5069 96.1959 81.2411 95.4977C81.9752 94.7995 82.4126 93.8457 82.4628 92.8339C84.3551 56.5227 113.49 27.4282 149.812 25.5814C152.586 25.2291 153.472 23.7119 153.472 21.8707M93.5608 96.59H99.931C100.926 96.5877 101.883 96.2072 102.608 95.5255C103.333 94.8439 103.771 93.9121 103.835 92.9191C104.722 80.9637 109.894 69.7301 118.4 61.2824C126.906 52.8347 138.175 47.7405 150.136 46.9358C151.079 46.8788 151.96 46.45 152.587 45.7435C153.213 45.0371 153.534 44.1108 153.478 43.1683V36.6849C153.477 36.1647 153.373 35.6498 153.173 35.1695C152.973 34.6893 152.68 34.2532 152.312 33.886C151.943 33.5189 151.506 33.228 151.025 33.03C150.544 32.8319 150.029 32.7305 149.508 32.7317C149.422 32.7317 149.336 32.7347 149.249 32.7408C117.274 34.8263 91.7083 60.3917 89.6228 92.3622C89.5878 92.8811 89.6553 93.4019 89.8215 93.8948C89.9877 94.3877 90.2493 94.843 90.5915 95.2347C90.9337 95.6265 91.3496 95.947 91.8157 96.178C92.2817 96.409 92.7887 96.5459 93.3076 96.5809C93.3919 96.5867 93.4764 96.5897 93.5611 96.59M153.483 58.085V64.5972C153.483 67.268 151.17 68.2227 150.039 68.3591C143.746 69.1282 137.889 71.9775 133.399 76.4548C128.91 80.9322 126.044 86.7809 125.258 93.0725C125.148 94.0386 124.688 94.9308 123.964 95.5801C123.24 96.2295 122.304 96.5908 121.331 96.5957H114.967C114.45 96.5972 113.937 96.4968 113.459 96.3002C112.981 96.1037 112.546 95.8148 112.179 95.4502C111.812 95.0855 111.521 94.6522 111.322 94.175C111.122 93.6978 111.019 93.186 111.018 92.6688C111.018 92.5435 111.023 92.4186 111.034 92.294C112.028 82.5143 116.366 73.3772 123.318 66.4268C130.269 59.4765 139.407 55.139 149.187 54.1474C149.702 54.1004 150.221 54.1553 150.715 54.309C151.209 54.4627 151.668 54.7122 152.065 55.0432C152.463 55.3743 152.791 55.7804 153.031 56.2383C153.272 56.6963 153.42 57.1971 153.467 57.7122C153.478 57.8354 153.483 57.9604 153.483 58.0852L153.483 58.085ZM228.162 153.284C226.321 153.284 224.81 152.392 224.446 149.625C222.605 113.302 193.505 84.1736 157.193 82.287C156.18 82.2375 155.225 81.8006 154.525 81.0667C153.825 80.3327 153.433 79.3579 153.432 78.3435V71.6893C153.432 70.3709 154.159 68.132 156.926 68.0354C201.062 69.814 236.573 105.114 238.664 149.164C238.711 150.209 238.341 151.23 237.635 152.002C236.929 152.774 235.946 153.234 234.901 153.28C234.839 153.283 234.777 153.284 234.715 153.284H228.162ZM153.432 93.3673C153.432 92.8254 153.544 92.2894 153.76 91.7926C153.977 91.2957 154.293 90.8488 154.69 90.4794C155.086 90.11 155.554 89.8262 156.065 89.6456C156.576 89.4649 157.119 89.3913 157.659 89.4293C189.635 91.5148 215.2 117.08 217.286 149.044C217.322 149.563 217.255 150.084 217.09 150.578C216.925 151.071 216.664 151.527 216.322 151.919C215.981 152.312 215.565 152.633 215.099 152.865C214.633 153.097 214.126 153.234 213.607 153.27C213.519 153.276 213.431 153.279 213.342 153.279H206.859C205.915 153.335 204.988 153.014 204.282 152.387C203.575 151.759 203.147 150.877 203.091 149.934C202.284 137.973 197.188 126.706 188.739 118.202C180.291 109.697 169.057 104.528 157.103 103.642C156.109 103.577 155.178 103.138 154.496 102.414C153.813 101.689 153.431 100.733 153.426 99.7382V93.3737L153.432 93.3673ZM191.942 153.279H185.424C182.759 153.279 181.799 150.96 181.662 149.835C180.892 143.541 178.041 137.685 173.563 133.197C169.084 128.708 163.235 125.844 156.943 125.059C155.977 124.948 155.086 124.486 154.438 123.761C153.789 123.036 153.429 122.099 153.426 121.127V114.768C153.424 114.22 153.537 113.676 153.758 113.174C153.978 112.671 154.301 112.22 154.706 111.85C155.112 111.48 155.59 111.198 156.11 111.024C156.63 110.849 157.181 110.785 157.728 110.836C167.507 111.827 176.644 116.164 183.595 123.113C190.546 130.063 194.886 139.199 195.88 148.977C195.928 149.492 195.874 150.012 195.721 150.506C195.568 151 195.319 151.459 194.989 151.857C194.658 152.254 194.253 152.583 193.795 152.825C193.338 153.066 192.838 153.214 192.323 153.262C192.196 153.274 192.069 153.279 191.942 153.279ZM21.876 96.573C23.7172 96.573 25.2287 97.4651 25.5924 100.233C27.4336 136.555 56.5337 165.684 92.8448 167.57C93.8572 167.622 94.8113 168.059 95.511 168.793C96.2107 169.526 96.6028 170.5 96.6067 171.514V178.174C96.6067 179.486 95.8793 181.725 93.1119 181.822C48.9702 180.043 13.466 144.738 11.3692 100.693C11.3224 99.648 11.6927 98.6273 12.3985 97.8554C13.1042 97.0835 14.0877 96.6236 15.1326 96.5768C15.1945 96.5741 15.2565 96.5727 15.3183 96.573H21.876ZM96.601 156.484C96.6006 157.025 96.4887 157.561 96.2723 158.058C96.0559 158.555 95.7396 159.002 95.343 159.371C94.9465 159.741 94.4782 160.025 93.9673 160.205C93.4564 160.386 92.9138 160.46 92.3732 160.422C60.3976 158.336 34.8322 132.776 32.7467 100.806C32.7109 100.288 32.7776 99.7667 32.943 99.2736C33.1085 98.7805 33.3695 98.3248 33.711 97.9325C34.0526 97.5402 34.4681 97.2191 34.9338 96.9874C35.3995 96.7558 35.9063 96.6181 36.4252 96.5823C36.5134 96.5761 36.6017 96.573 36.6902 96.573H43.174C46.038 96.573 46.8677 98.8119 46.9416 99.92C47.7491 111.88 52.8453 123.147 61.2938 131.651C69.7423 140.154 80.9757 145.324 92.9301 146.21C93.9231 146.274 94.8547 146.713 95.537 147.438C96.2193 148.162 96.6015 149.118 96.6067 150.113V156.478L96.601 156.484ZM58.0907 96.573H64.6084C67.2735 96.573 68.2339 98.8915 68.3703 100.017C69.1396 106.311 71.9898 112.168 76.4682 116.658C80.9466 121.148 86.7966 124.013 93.0892 124.798C94.0532 124.909 94.9432 125.369 95.5912 126.091C96.2393 126.814 96.6005 127.748 96.6067 128.719V135.083C96.6082 135.601 96.5077 136.114 96.3109 136.593C96.1141 137.072 95.8249 137.508 95.4597 137.875C95.0946 138.243 94.6606 138.534 94.1827 138.734C93.7048 138.933 93.1923 139.037 92.6744 139.038C92.5512 139.038 92.4283 139.033 92.3057 139.022C82.5255 138.031 73.3876 133.693 66.436 126.743C59.4845 119.792 55.1456 110.655 54.1527 100.875C54.1049 100.36 54.159 99.8405 54.3119 99.3464C54.4649 98.8524 54.7136 98.3934 55.0439 97.9955C55.3742 97.5976 55.7797 97.2686 56.2371 97.0275C56.6946 96.7863 57.1951 96.6376 57.71 96.5898C57.8367 96.578 57.9636 96.5724 58.0907 96.573ZM96.6185 228.163C96.6185 226.322 97.5107 224.81 100.278 224.452C136.606 222.611 165.741 193.511 167.628 157.205C167.679 156.193 168.116 155.239 168.85 154.54C169.584 153.841 170.558 153.451 171.571 153.449H178.231C179.544 153.449 181.783 154.171 181.879 156.938C180.101 201.068 144.795 236.573 100.732 238.664C100.215 238.686 99.6982 238.607 99.2116 238.429C98.725 238.252 98.2781 237.981 97.8963 237.631C97.5146 237.281 97.2056 236.859 96.9869 236.389C96.7682 235.92 96.6441 235.412 96.6217 234.895C96.6192 234.834 96.6178 234.774 96.618 234.715L96.6185 228.163ZM156.535 153.448C157.077 153.449 157.614 153.561 158.111 153.778C158.608 153.994 159.055 154.31 159.425 154.707C159.794 155.103 160.079 155.571 160.26 156.082C160.441 156.593 160.516 157.135 160.479 157.676C158.394 189.646 132.822 215.211 100.853 217.298C100.334 217.334 99.8127 217.267 99.3194 217.102C98.8262 216.936 98.3703 216.675 97.978 216.334C97.5856 215.992 97.2644 215.576 97.0326 215.111C96.8009 214.645 96.6632 214.138 96.6274 213.619C96.6212 213.531 96.618 213.442 96.618 213.354V206.87C96.618 204.006 98.857 203.177 99.9651 203.103C111.925 202.297 123.193 197.202 131.698 188.754C140.203 180.307 145.373 169.074 146.26 157.12C146.327 156.128 146.766 155.197 147.49 154.516C148.215 153.835 149.17 153.454 150.164 153.449L156.535 153.448ZM96.6185 191.953V185.441C96.6185 182.77 98.937 181.816 100.062 181.679C106.358 180.911 112.216 178.061 116.707 173.583C121.197 169.105 124.063 163.254 124.849 156.961C124.962 155.998 125.423 155.11 126.145 154.464C126.867 153.817 127.8 153.456 128.77 153.449H135.134C135.683 153.447 136.226 153.56 136.728 153.78C137.231 154 137.682 154.322 138.053 154.726C138.423 155.131 138.706 155.608 138.881 156.128C139.057 156.648 139.122 157.199 139.072 157.745C138.079 167.525 133.74 176.662 126.789 183.612C119.837 190.563 110.7 194.9 100.92 195.892C100.405 195.939 99.8855 195.885 99.3915 195.732C98.8975 195.58 98.4384 195.331 98.0405 195C97.6426 194.67 97.3137 194.265 97.0725 193.807C96.8313 193.35 96.6826 192.849 96.6349 192.334C96.6231 192.207 96.6174 192.081 96.618 191.954L96.6185 191.953Z" fill="#F65F0C"/>
</g>
<defs>
<clipPath id="clip0_242_94306">
<rect width="227.302" height="227.302" fill="white" transform="translate(11.3652 11.3652)"/>
</clipPath>
</defs>
</svg>
