<svg width="250" height="250" viewBox="0 0 250 250" fill="none" xmlns="http://www.w3.org/2000/svg">
<path d="M229.051 123.4C229.051 123.4 243.451 115.15 248.051 112.65C242.001 49.85 189.101 0.75 124.701 0.75C60.6512 0.75 8.00117 49.3 1.40117 111.55C6.20117 114.15 21.4012 123.25 21.4012 123.25C21.4012 123.25 5.90117 133.15 1.20117 136C6.90117 199.2 60.0012 248.7 124.651 248.7C189.551 248.7 242.801 198.85 248.151 135.3C242.601 131.85 229.051 123.4 229.051 123.4Z" fill="#1F4B82"/>
<path d="M124.701 11.55C153.001 11.55 180.101 22.05 201.001 41.15C220.051 58.55 232.451 81.65 236.501 106.8C230.851 110 224.151 113.8 223.751 114.05L208.101 123L223.401 132.55C223.801 132.8 230.851 137.2 236.801 140.9C233.151 166.55 220.751 190.15 201.551 207.9C180.601 227.25 153.351 237.9 124.801 237.9C96.3512 237.9 69.2012 227.3 48.2512 208.1C29.0512 190.5 16.6512 167.05 12.8512 141.55C19.0512 137.65 26.9012 132.65 27.3512 132.35L42.0512 122.95L27.0512 114.05C26.6012 113.8 19.2512 109.4 13.1512 105.85C17.3512 80.9 29.8512 58 48.8012 40.8C69.6012 21.9 96.5512 11.55 124.701 11.55ZM124.701 0.75C60.6512 0.75 8.00117 49.3 1.40117 111.55C6.20117 114.15 21.4012 123.25 21.4012 123.25C21.4012 123.25 5.90117 133.15 1.20117 136C6.90117 199.2 60.0012 248.7 124.651 248.7C189.551 248.7 242.801 198.85 248.151 135.3C242.551 131.85 229.001 123.4 229.001 123.4C229.001 123.4 243.401 115.15 248.001 112.65C242.001 49.85 189.101 0.75 124.701 0.75Z" fill="#B6B3B1"/>
<path d="M90.4 77.7007L105.65 76.2007L124.55 107.351L143.45 77.5007L157.85 78.5507L133.6 120.051L160.65 170.051L143.05 170.701L123.35 135.851L102.9 170.451L87 169.151L116.4 120.201L90.4 77.7007Z" fill="white"/>
</svg>
