<svg width="250" height="250" viewBox="0 0 250 250" fill="none" xmlns="http://www.w3.org/2000/svg">
<rect width="250" height="250" rx="125" fill="white"/>
<g clip-path="url(#clip0_242_94681)">
<path d="M218.719 61.7875C207.517 45.3177 192.223 32.0446 174.341 23.272C156.387 14.4612 136.467 10.424 116.5 11.5499C96.5332 12.6757 77.1929 18.9265 60.344 29.6997C43.5877 40.4107 29.9136 55.3055 20.6711 72.9144L20.2353 73.8009C17.3289 79.7332 15.3652 86.0823 14.4148 92.6195C12.826 101.319 13.1208 110.257 15.2792 118.833C17.4376 127.409 21.4095 135.422 26.9271 142.332C33.9496 149.971 42.4835 156.067 51.9872 160.232C61.4908 164.398 71.7566 166.542 82.133 166.529C109.451 168.232 136.587 161.044 159.478 146.039L147.587 138.969C127.965 150.255 105.453 155.512 82.8615 154.081C74.2139 154.121 65.6496 152.391 57.6956 148.997C49.7416 145.604 42.5663 140.618 36.6113 134.348C32.1979 128.77 29.0387 122.306 27.349 115.397C25.6593 108.488 25.4789 101.296 26.82 94.3111C27.5962 89.0446 29.1838 83.9302 31.5263 79.15L31.8477 78.4929C40.1032 62.809 52.3051 49.5485 67.2494 40.0195C82.2717 30.4478 99.5052 24.9049 117.291 23.9242C135.076 22.9436 152.815 26.5583 168.798 34.4203C184.721 42.2455 198.336 54.0759 208.307 68.7507C218.229 83.3405 224.135 100.286 225.43 117.883C226.725 135.48 223.364 153.107 215.684 168.992C207.967 184.936 196.225 198.59 181.618 208.608C166.931 218.67 149.896 224.773 132.161 226.327L133.246 238.667C153.158 236.922 172.281 230.066 188.766 218.764C205.172 207.521 218.359 192.192 227.025 174.292C235.642 156.461 239.411 136.676 237.953 116.926C236.495 97.1764 229.861 78.159 218.719 61.7875Z" fill="#283DE1"/>
<path d="M89.6919 182.96C40.478 185.646 19.9599 169.841 19.7739 169.677L16.2962 173.918L11.7754 179.275C12.6466 179.989 32.3151 195.701 78.515 195.701C82.3003 195.701 86.271 195.701 90.4061 195.38C143.541 192.452 172.736 169.541 182.906 159.757L171.558 153.008C148.312 171.734 119.534 182.263 89.6919 182.96Z" fill="#283DE1"/>
<path d="M199.499 108.853C199.475 106.892 198.87 104.981 197.76 103.363C196.65 101.745 195.086 100.493 193.264 99.7641C191.442 99.0355 189.445 98.8634 187.526 99.2697C185.607 99.6759 183.851 100.642 182.48 102.046C181.11 103.451 180.187 105.23 179.828 107.158C179.469 109.087 179.689 111.079 180.462 112.883C181.235 114.686 182.526 116.22 184.17 117.29C185.815 118.36 187.74 118.918 189.701 118.894C192.332 118.862 194.842 117.786 196.68 115.903C198.517 114.02 199.531 111.484 199.499 108.853Z" fill="#283DE1"/>
<path d="M203.766 172.022L192.882 165.701L192.889 165.801C186.13 174.574 177.832 182.044 168.4 187.848C135.098 209.087 92.7401 211.83 63.0803 210.351L62.4805 222.757C67.4798 223 72.2504 223.107 76.8996 223.107C160.53 223.107 194.325 185.462 203.766 172.022Z" fill="#283DE1"/>
</g>
<defs>
<clipPath id="clip0_242_94681">
<rect width="227.302" height="227.302" fill="white" transform="translate(11.3633 11.3652)"/>
</clipPath>
</defs>
</svg>
