<svg width="250" height="250" viewBox="0 0 250 250" fill="none" xmlns="http://www.w3.org/2000/svg">
<g clip-path="url(#clip0_242_94252)">
<path d="M124.998 249.996C194.034 249.996 249.998 194.032 249.998 124.996C249.998 55.9605 194.034 -0.00390625 124.998 -0.00390625C55.9624 -0.00390625 -0.00195312 55.9605 -0.00195312 124.996C-0.00195312 194.032 55.9624 249.996 124.998 249.996Z" fill="#4F7AA2"/>
<path d="M103.975 93.7456H125.365C135.693 93.7456 154.139 100.019 154.139 124.996C154.139 149.972 135.701 156.246 125.365 156.246H103.982L103.975 93.7456ZM115.771 143.589H124.631C132.006 143.589 140.857 139.074 140.857 124.996C140.857 110.917 132.006 106.402 124.631 106.402H115.779L115.771 143.589ZM162.264 93.7456H166.686L206.514 148.636V93.7456H210.936V156.246H206.506L166.678 102.558V156.246H162.248L162.264 93.7456ZM39.0605 93.7456H53.8105V109.371H39.0605V93.7456ZM61.1934 93.7456H75.9356V109.371H61.1934V93.7456ZM83.3184 93.7456H98.0762V109.371H83.3184V93.7456ZM83.3184 117.183H98.0762V132.808H83.3184V117.183ZM83.3184 140.621H98.0762V156.246H83.3184V140.621ZM61.1934 117.183H75.9356V132.808H61.1934V117.183Z" fill="white"/>
</g>
<defs>
<clipPath id="clip0_242_94252">
<rect width="250" height="250" rx="125" fill="white"/>
</clipPath>
</defs>
</svg>
