<svg width="250" height="250" viewBox="0 0 250 250" fill="none" xmlns="http://www.w3.org/2000/svg">
<path fill-rule="evenodd" clip-rule="evenodd" d="M74.2491 87.2553C88.9078 78.7837 103.709 70.2645 118.368 61.7929C122.747 59.1753 128.22 59.1753 132.598 61.7929L154.444 74.2624C155.348 74.8335 155.634 76.0233 155.062 76.9276C154.92 77.1656 154.682 77.4035 154.444 77.5463L101.092 108.244C99.7115 109.053 98.9024 110.481 98.9024 112.099V137.847C98.9024 139.37 99.7115 140.798 101.092 141.512L123.413 154.409C124.698 155.219 126.364 155.219 127.649 154.409L219.742 101.391C235.352 92.3478 235.352 66.3143 219.742 57.2716L136.977 9.5831C129.933 5.3473 121.128 5.3473 114.085 9.5831L31.3676 57.2716C24.2286 61.317 19.8024 68.9319 19.85 77.118C19.85 108.958 19.9928 140.798 19.85 172.59C19.8024 180.824 24.181 188.439 31.3676 192.484L114.132 240.315C121.224 244.408 129.933 244.408 137.025 240.315L219.742 192.484C226.881 188.439 231.259 180.824 231.116 172.59V131.136L132.646 188.106C128.267 190.723 122.794 190.723 118.416 188.106L74.4395 162.596C69.9657 160.121 67.2529 155.361 67.3005 150.269V99.4392C67.2529 94.4419 69.9181 89.7778 74.2491 87.2553Z" fill="url(#paint0_linear_242_93975)"/>
<defs>
<linearGradient id="paint0_linear_242_93975" x1="74.5598" y1="-25.9673" x2="167.808" y2="250.418" gradientUnits="userSpaceOnUse">
<stop stop-color="#273498"/>
<stop offset="0.53" stop-color="#0074C2"/>
<stop offset="1" stop-color="#00ABE7"/>
</linearGradient>
</defs>
</svg>
