<svg width="250" height="250" viewBox="0 0 250 250" fill="none" xmlns="http://www.w3.org/2000/svg">
<g clip-path="url(#clip0_242_94292)">
<path d="M192.614 204.525L137.175 149.136C136.39 148.351 135.767 147.419 135.342 146.393C134.917 145.367 134.699 144.268 134.699 143.157C134.699 142.047 134.917 140.947 135.342 139.921C135.767 138.895 136.39 137.963 137.175 137.178L178.354 95.9992C179.17 95.1831 179.629 94.0762 179.629 92.922C179.629 91.7679 179.17 90.661 178.354 89.8449C177.538 89.0288 176.431 88.5703 175.277 88.5703C174.123 88.5703 173.016 89.0288 172.2 89.8449L89.8421 172.203C87.8676 174.19 85.521 175.77 82.9361 176.85C80.3513 177.931 77.5789 178.492 74.7772 178.501C71.9756 178.511 69.1995 177.968 66.6076 176.905C64.0156 175.841 61.6585 174.277 59.6709 172.303C57.6832 170.328 56.104 167.982 55.0232 165.397C53.9425 162.812 53.3815 160.04 53.3722 157.238C53.3629 154.436 53.9055 151.66 54.9691 149.068C56.0326 146.476 57.5963 144.119 59.5708 142.132L59.721 141.982L94.9456 106.957L45.4609 57.4722L57.4193 45.5137L112.958 101.053C113.744 101.838 114.366 102.77 114.791 103.796C115.216 104.822 115.435 105.921 115.435 107.032C115.435 108.142 115.216 109.242 114.791 110.268C114.366 111.294 113.744 112.226 112.958 113.011L71.6794 154.04C71.2687 154.444 70.9416 154.925 70.7168 155.456C70.492 155.986 70.3739 156.556 70.3693 157.132C70.3646 157.708 70.4735 158.279 70.6897 158.813C70.9058 159.347 71.2251 159.834 71.6292 160.244C72.0333 160.655 72.5143 160.982 73.0448 161.207C73.5753 161.432 74.1449 161.55 74.721 161.555C75.2972 161.559 75.8686 161.45 76.4026 161.234C76.9367 161.018 77.423 160.699 77.8336 160.295L77.8838 160.245L160.242 77.8367C164.24 73.8643 169.651 71.639 175.287 71.6483C180.924 71.6576 186.327 73.9008 190.313 77.8865C194.298 81.8721 196.542 87.2751 196.551 92.9117C196.56 98.5482 194.335 103.959 190.363 107.958L155.138 143.182L204.573 192.567L192.614 204.525Z" fill="#00FF00"/>
</g>
<defs>
<clipPath id="clip0_242_94292">
<rect width="159.112" height="159.112" fill="white" transform="translate(45.4609 45.4609)"/>
</clipPath>
</defs>
</svg>
