<svg width="250" height="250" viewBox="0 0 250 250" fill="none" xmlns="http://www.w3.org/2000/svg">
<rect width="250" height="250" rx="125" fill="#0E0E35"/>
<path d="M124.268 233.503C142.226 233.503 156.783 218.946 156.783 200.989C156.783 183.031 142.226 168.474 124.268 168.474C106.311 168.474 91.7539 183.031 91.7539 200.989C91.7539 218.946 106.311 233.503 124.268 233.503Z" fill="#5548D8"/>
<path d="M192.61 195.396C208.737 195.396 221.811 182.322 221.811 166.195C221.811 150.067 208.737 136.994 192.61 136.994C176.483 136.994 163.409 150.067 163.409 166.195C163.409 182.322 176.483 195.396 192.61 195.396Z" fill="#8277E6"/>
<path d="M45.5696 115.452C57.5792 115.452 67.315 105.716 67.315 93.7068C67.315 81.6972 57.5792 71.9614 45.5696 71.9614C33.56 71.9614 23.8242 81.6972 23.8242 93.7068C23.8242 105.716 33.56 115.452 45.5696 115.452Z" fill="#8277E6"/>
<path d="M158.23 59.5362C168.181 59.5362 176.248 51.4694 176.248 41.5186C176.248 31.5677 168.181 23.501 158.23 23.501C148.28 23.501 140.213 31.5677 140.213 41.5186C140.213 51.4694 148.28 59.5362 158.23 59.5362Z" fill="#5548D8"/>
<path d="M205.119 71.133C201.804 70.9969 198.5 71.5946 195.442 72.8834C192.385 74.1722 189.65 76.1203 187.433 78.5886L187.391 78.6714L186.356 79.914C185.964 80.4031 185.55 80.8731 185.113 81.3223C180.764 86.0027 170.243 94.3695 156.037 87.3696C153.9 86.3185 151.955 84.9187 150.279 83.2276C146.878 79.7864 142.827 77.055 138.362 75.1921C133.897 73.3292 129.106 72.3718 124.268 72.3756L122.445 72.417C120.711 72.4972 118.979 72.2297 117.35 71.63C109.191 68.6892 106.871 61.8964 106.416 56.7189C106.19 53.8042 106.615 50.8759 107.658 48.145C108.895 44.7578 109.088 41.0774 108.21 37.5797C107.333 34.0821 105.426 30.9282 102.736 28.5261C100.047 26.1239 96.6987 24.584 93.1245 24.1056C89.5504 23.6272 85.9149 24.2322 82.6884 25.8425C79.4619 27.4527 76.7927 29.9941 75.0263 33.1378C73.2598 36.2815 72.4774 39.883 72.78 43.4763C73.0827 47.0696 74.4567 50.4894 76.7241 53.2933C78.9916 56.0973 82.0482 58.1563 85.4986 59.2041C104.427 66.9082 98.2145 81.4879 95.6051 86.2098C90.4447 92.6803 87.6401 100.714 87.6525 108.991C87.6409 110.624 87.7378 112.257 87.9424 113.878C87.938 113.92 87.938 113.961 87.9424 114.002C88.5223 120.257 87.8181 137.239 64.5817 137.819C63.1969 137.832 61.8129 137.749 60.4397 137.57C59.353 137.453 58.2605 137.398 57.1675 137.405C51.5991 137.4 46.1525 139.034 41.5063 142.104C36.8602 145.173 33.2198 149.542 31.039 154.665C28.8581 159.789 28.2332 165.441 29.2419 170.917C30.2507 176.393 32.8486 181.452 36.712 185.462C40.5753 189.472 45.5333 192.257 50.9682 193.469C56.403 194.681 62.0745 194.268 67.2758 192.279C72.4771 190.291 76.9784 186.816 80.2188 182.288C83.4592 177.759 85.2954 172.377 85.4986 166.813H85.5401V165.363C85.6643 159.937 87.8596 140.718 111.842 143.535C111.842 143.535 119.918 145.689 124.268 145.689C131.53 145.698 138.632 143.549 144.672 139.515C150.711 135.481 155.417 129.744 158.19 123.032C160.51 117.73 172.646 104.393 193.563 113.588C194.262 113.971 194.981 114.317 195.717 114.624C198.766 115.853 202.048 116.401 205.331 116.229C208.615 116.058 211.821 115.171 214.726 113.631C217.631 112.091 220.165 109.935 222.15 107.314C224.135 104.693 225.523 101.67 226.218 98.4562C226.913 95.2425 226.897 91.9157 226.172 88.7087C225.447 85.5016 224.03 82.4916 222.021 79.8892C220.011 77.2869 217.457 75.1549 214.538 73.6424C211.619 72.13 208.404 71.2735 205.119 71.133Z" fill="white"/>
</svg>
