<svg width="250" height="250" viewBox="0 0 250 250" fill="none" xmlns="http://www.w3.org/2000/svg">
<path d="M125.038 232.978L123.895 232.426C80.065 206.727 46.9165 164.395 33.4363 113.785C31.2685 105.823 29.6919 97.6638 28.5488 89.4259C27.524 81.188 26.9722 72.8319 26.8539 64.5151C26.8539 63.0962 26.6569 63.2932 27.997 62.6232C44.4727 53.2422 61.8944 46.4233 80.3804 42.0876C87.2387 40.5109 94.0576 39.2891 100.995 38.4219C110.533 37.2788 120.111 36.8453 129.768 37.0029C135.207 37.0818 140.529 37.4759 145.889 38.0277C172.731 40.9839 197.957 49.0642 221.567 62.2684C221.961 62.4655 222.237 62.6626 222.592 62.8203C222.986 63.0173 223.144 63.2932 223.144 63.7662V65.1852C223.065 70.0728 222.868 74.8421 222.474 79.6902C221.922 86.6274 220.976 93.4463 219.675 100.305C216.877 115.007 212.462 129.157 206.353 142.755C196.696 164.395 183.492 183.708 166.819 200.578C154.836 212.758 141.435 223.242 126.615 231.953C126.063 232.308 125.629 232.584 125.038 232.978ZM35.8407 69.2844V70.4275C35.8407 77.2858 36.3137 84.1836 37.1414 90.9631C37.8903 97.1514 38.9151 103.221 40.3341 109.331C40.61 110.356 40.8859 111.38 41.3589 112.405C49.7938 130.3 69.2651 139.839 88.5788 135.463C103.281 132.074 115.263 120.761 119.323 106.217C120.466 102.197 120.821 98.0579 121.018 93.9587C121.097 91.239 121.412 88.5193 121.846 85.7996C125.038 69.3239 135.996 55.7254 151.447 49.2612C152.274 48.8671 153.22 48.5912 154.088 48.2364C154.166 48.1576 154.363 48.1576 154.363 47.9605C151.92 47.1328 137.415 45.635 128.704 45.4379C109.981 45.0437 91.6138 47.4875 73.7191 52.9269C60.3966 56.9079 47.8625 62.3473 35.8407 69.2844ZM174.032 181.54C174.505 181.265 174.781 180.87 174.978 180.595C178.722 175.904 182.27 171.056 185.581 165.971C197.287 147.801 205.525 128.211 210.137 107.045C211.713 99.8316 212.777 92.6186 213.408 85.3266C213.881 80.3603 214.078 75.3939 214.078 70.3487C214.078 69.9545 214.078 69.6786 213.999 69.3239L212.58 68.4961C208.757 66.3283 204.815 64.2786 200.874 62.3867C195.08 59.667 189.246 57.2232 183.176 55.2524C175.766 52.9269 168.277 52.6116 160.788 54.5035C139.346 59.667 125.551 80.7544 129.689 102.394C131.936 114.376 138.4 123.757 148.727 130.3C149.397 130.773 150.146 131.128 150.777 131.601C158.384 136.173 164.257 142.479 168.474 150.244C172.968 158.403 174.938 167.193 174.387 176.495C174.426 178.072 174.229 179.767 174.032 181.54ZM125.038 223.4C125.432 223.203 125.866 222.927 126.26 222.651C138.045 215.714 148.924 207.476 158.857 198.095C159.527 197.543 160 196.794 160.355 196.045C161.025 194.824 161.655 193.523 162.247 192.301C166.937 182.565 167.962 172.435 164.887 161.951C158.778 141.731 139.307 130.103 119.717 132.547C114.081 133.217 108.957 134.99 104.069 137.789C94.8065 143.031 84.8737 145.199 74.1921 144.174C68.9498 143.701 63.9834 142.282 59.2142 140.233C55.4697 138.538 51.9223 136.488 48.7296 133.966C48.5325 133.769 48.2566 133.69 47.7836 133.414C47.8625 133.887 47.9807 134.163 48.0595 134.36C52.2376 145.002 57.401 155.093 63.5105 164.749C70.1717 175.155 77.7395 184.812 86.3715 193.602C95.0035 202.391 104.463 210.275 114.672 217.133C119.323 220.129 123.738 222.848 125.038 223.4Z" fill="black"/>
<path d="M35.8341 69.2802C47.8164 62.343 60.39 56.9036 73.5942 52.9621C91.5678 47.6409 109.857 45.0789 128.579 45.4731C137.29 45.6701 151.795 47.0497 154.239 47.9957C154.317 48.1928 154.16 48.2716 153.963 48.2716C153.135 48.6657 152.189 48.9417 151.322 49.2964C135.871 55.7606 124.913 69.359 121.721 85.8348C121.248 88.5545 120.972 91.2742 120.893 93.9939C120.814 98.1325 120.42 102.232 119.198 106.252C115.059 120.757 103.195 132.109 88.4539 135.499C69.1403 139.913 49.669 130.335 41.234 112.44C40.761 111.416 40.4063 110.391 40.2092 109.366C38.7902 103.257 37.7654 97.1865 37.0165 90.9983C36.1888 84.1399 35.7158 77.321 35.7158 70.4627C35.8341 70.0291 35.8341 69.7532 35.8341 69.2802Z" fill="#F7A800"/>
<path d="M174.023 181.54C174.22 179.766 174.417 178.15 174.496 176.494C174.969 167.232 172.998 158.403 168.584 150.243C164.366 142.479 158.454 136.29 150.886 131.6C150.216 131.127 149.467 130.772 148.837 130.299C138.431 123.756 132.085 114.454 129.799 102.393C125.778 80.6352 139.456 59.6266 160.937 54.5026C168.544 52.7289 175.915 52.926 183.325 55.2515C189.435 57.1435 195.229 59.6661 201.023 62.3857C205.043 64.2777 208.906 66.3273 212.729 68.4952C213.202 68.7711 213.557 68.9682 214.148 69.3229C214.148 69.7171 214.227 69.993 214.227 70.3477C214.227 75.3141 213.951 80.3593 213.557 85.3257C212.887 92.6176 211.783 99.949 210.285 107.044C205.713 128.21 197.554 147.8 185.73 165.97C182.458 171.016 178.871 175.903 175.127 180.594C174.772 180.87 174.614 181.264 174.023 181.54Z" fill="#67B2E8"/>
<path d="M125.047 223.402C123.628 222.85 119.332 220.21 114.759 217.135C104.551 210.277 95.091 202.433 86.459 193.604C77.827 184.814 70.1409 175.157 63.5979 164.752C57.4097 155.095 52.2462 145.004 48.147 134.323C48.0682 134.047 47.9499 133.85 47.8711 133.377C48.3441 133.653 48.5412 133.771 48.8171 133.928C52.0886 136.451 55.5571 138.619 59.3016 140.196C64.0709 142.245 69.0373 143.664 74.2796 144.137C84.8824 145.162 94.8151 142.994 104.157 137.752C109.044 135.032 114.286 133.258 119.805 132.509C139.394 130.066 158.866 141.693 164.975 161.914C168.049 172.319 167.143 182.449 162.334 192.264C161.664 193.564 161.112 194.786 160.442 196.008C160.048 196.757 159.614 197.506 158.944 198.058C149.012 207.439 138.133 215.677 126.348 222.614C125.914 222.929 125.441 223.205 125.047 223.402Z" fill="#00C4B3"/>
</svg>
