<svg width="250" height="250" viewBox="0 0 250 250" fill="none" xmlns="http://www.w3.org/2000/svg">
<rect width="250" height="250" rx="125" fill="white"/>
<g clip-path="url(#clip0_242_94293)">
<path d="M36.4311 196.222C36.4311 196.222 37.4196 168.113 65.0955 163.499C57.7072 152.026 53.7884 138.663 53.8099 125.017C53.8099 85.6908 85.6898 53.8109 125.016 53.8109C141.56 53.786 157.592 59.5463 170.337 70.0949C170.337 70.0949 189.005 82.4392 200.013 63.7513C200.013 63.7513 207.632 48.2343 196.527 36.921C196.186 36.5737 195.879 36.2474 195.605 35.9422C175.538 19.9914 150.65 11.3262 125.016 11.3654C62.2479 11.3654 11.3644 62.2488 11.3644 125.017C11.3245 150.921 20.1726 176.055 36.4311 196.222Z" fill="url(#paint0_radial_242_94293)"/>
<path d="M213.881 54.1621L213.905 54.2985C213.905 54.2985 212.917 82.4065 185.244 87.0216C192.434 98.3877 196.241 111.565 196.221 125.015C196.221 164.34 164.341 196.22 125.015 196.22C108.79 196.244 93.0471 190.702 80.415 180.518L80.41 180.521C80.41 180.521 61.3313 168.081 50.3238 186.769C50.3238 186.769 42.705 202.285 53.809 213.598C73.976 229.857 99.1105 238.706 125.015 238.666C187.783 238.666 238.667 187.782 238.667 125.015C238.706 99.2651 229.963 74.2721 213.881 54.1621Z" fill="url(#paint1_radial_242_94293)"/>
</g>
<defs>
<radialGradient id="paint0_radial_242_94293" cx="0" cy="0" r="1" gradientUnits="userSpaceOnUse" gradientTransform="translate(117.139 54.8008) scale(94.0271 94.0271)">
<stop offset="0.169" stop-color="#300063"/>
<stop offset="0.298" stop-color="#35006C"/>
<stop offset="0.511" stop-color="#430085"/>
<stop offset="0.761" stop-color="#5800AA"/>
</radialGradient>
<radialGradient id="paint1_radial_242_94293" cx="0" cy="0" r="1" gradientUnits="userSpaceOnUse" gradientTransform="translate(122.29 176.107) scale(93.8625 93.8625)">
<stop offset="0.169" stop-color="#300063"/>
<stop offset="0.298" stop-color="#35006C"/>
<stop offset="0.511" stop-color="#430085"/>
<stop offset="0.761" stop-color="#5800AA"/>
</radialGradient>
<clipPath id="clip0_242_94293">
<rect width="227.302" height="227.302" fill="white" transform="translate(11.3643 11.3652)"/>
</clipPath>
</defs>
</svg>
