<svg width="250" height="250" viewBox="0 0 250 250" fill="none" xmlns="http://www.w3.org/2000/svg">
<path d="M73.1504 71.6788L45.6054 58.9388C43.4704 57.9938 41.0554 59.5688 41.0904 61.9138L40.7754 189.454C40.8104 191.869 43.3654 193.409 45.5004 192.254L73.3604 177.449C74.4104 176.889 75.0754 175.804 75.0754 174.614V74.6188C75.0754 73.3588 74.3054 72.2038 73.1504 71.6788Z" fill="url(#paint0_linear_242_93979)"/>
<path d="M205.311 58.9388L176.261 71.6788C175.106 72.2038 174.336 73.3588 174.336 74.6188V176.574C174.336 177.764 175.001 178.849 176.051 179.409L203.911 192.254C206.046 193.374 208.636 191.869 208.636 189.454L209.826 61.9138C209.861 59.5688 207.446 57.9938 205.311 58.9388Z" fill="url(#paint1_linear_242_93979)"/>
<path d="M156.906 104.861L128.801 88.2356C126.946 87.1506 124.636 87.1506 122.746 88.2356L94.6413 104.861C92.8213 105.946 91.7363 107.871 91.7363 109.971V143.501C91.7363 145.601 92.8563 147.526 94.6413 148.611L122.746 165.236C124.601 166.321 126.911 166.321 128.801 165.236L156.906 148.611C158.726 147.526 159.811 145.601 159.811 143.501V109.971C159.811 107.871 158.726 105.946 156.906 104.861Z" fill="url(#paint2_linear_242_93979)"/>
<defs>
<linearGradient id="paint0_linear_242_93979" x1="57.9238" y1="58.3325" x2="57.9238" y2="193.482" gradientUnits="userSpaceOnUse">
<stop stop-color="#42C0EF"/>
<stop offset="1" stop-color="#4B69B2"/>
</linearGradient>
<linearGradient id="paint1_linear_242_93979" x1="192.091" y1="58.3325" x2="192.091" y2="193.482" gradientUnits="userSpaceOnUse">
<stop stop-color="#42C0EF"/>
<stop offset="1" stop-color="#4B69B2"/>
</linearGradient>
<linearGradient id="paint2_linear_242_93979" x1="125.783" y1="58.3344" x2="125.783" y2="193.484" gradientUnits="userSpaceOnUse">
<stop stop-color="#42C0EF"/>
<stop offset="1" stop-color="#4B69B2"/>
</linearGradient>
</defs>
</svg>
