<svg width="250" height="250" viewBox="0 0 250 250" fill="none" xmlns="http://www.w3.org/2000/svg">
<rect width="250" height="250" rx="125" fill="white"/>
<path d="M230.424 59.8965H194.851C191.196 59.8965 187.796 61.724 185.714 64.7415L165.314 94.959C163.784 97.2115 161.234 98.5715 158.471 98.5715H91.8739C89.1114 98.5715 86.5614 97.2115 85.0314 94.959L64.5889 64.699C62.5489 61.724 59.1489 59.8965 55.4939 59.8965H19.8789L39.1739 88.4565L57.4489 115.529C57.9589 116.294 58.5539 116.974 59.2339 117.569C61.2739 119.396 63.8664 120.374 66.5864 120.374H183.716C186.436 120.374 189.071 119.354 191.069 117.569C191.749 116.974 192.344 116.294 192.854 115.529L211.129 88.4565L230.424 59.8965Z" fill="black"/>
<path d="M230.424 191.902H194.851C191.196 191.902 187.796 190.074 185.714 187.057L165.271 156.839C163.741 154.544 161.191 153.184 158.429 153.142H91.8739C89.1114 153.142 86.5614 154.544 85.0314 156.839L64.5889 187.099C62.5489 190.117 59.1489 191.902 55.4939 191.902H19.8789L39.1739 163.342L57.4489 136.269C57.9589 135.504 58.5539 134.824 59.2339 134.229C61.2739 132.402 63.8664 131.424 66.5864 131.424H183.716C186.436 131.424 189.071 132.444 191.069 134.229C191.749 134.824 192.344 135.504 192.854 136.269L211.129 163.342L230.424 191.902Z" fill="black"/>
<path d="M88.8574 81.7412L93.2349 88.2437C94.2549 89.7737 95.9974 90.6662 97.8249 90.6662H152.522C154.35 90.6662 156.05 89.7737 157.07 88.2437L161.447 81.7412H88.8574Z" fill="url(#paint0_linear_242_93981)"/>
<path d="M88.8574 170.013L93.2349 163.511C94.2549 162.023 95.9974 161.088 97.8249 161.131H152.522C154.35 161.131 156.05 162.023 157.07 163.553L161.447 170.056L88.8574 170.013Z" fill="url(#paint1_linear_242_93981)"/>
<defs>
<linearGradient id="paint0_linear_242_93981" x1="88.8646" y1="86.2148" x2="161.488" y2="86.2148" gradientUnits="userSpaceOnUse">
<stop stop-color="#DB30F6"/>
<stop offset="0.8" stop-color="#04DEFF"/>
<stop offset="0.99" stop-color="#04FFFF"/>
</linearGradient>
<linearGradient id="paint1_linear_242_93981" x1="88.8646" y1="165.588" x2="161.488" y2="165.588" gradientUnits="userSpaceOnUse">
<stop stop-color="#DB30F6"/>
<stop offset="0.8" stop-color="#04DEFF"/>
<stop offset="0.99" stop-color="#04FFFF"/>
</linearGradient>
</defs>
</svg>
