<svg width="250" height="250" viewBox="0 0 250 250" fill="none" xmlns="http://www.w3.org/2000/svg">
<g clip-path="url(#clip0_242_94240)">
<path d="M124.996 249.996C194.032 249.996 249.996 194.032 249.996 124.996C249.996 55.9605 194.032 -0.00390625 124.996 -0.00390625C55.9605 -0.00390625 -0.00390625 55.9605 -0.00390625 124.996C-0.00390625 194.032 55.9605 249.996 124.996 249.996Z" fill="#004A80"/>
<path d="M179.684 152.653L168.098 195.309H70.3086V188.176L123.355 127.872L71.3789 62.4341V54.6841H167.715L171.074 87.9028H164.902C160.832 80.3325 157.379 74.6685 154.527 70.9106C151.684 67.1528 149.145 64.8169 146.91 63.8872C145.332 63.1216 143.16 62.5747 140.395 62.2466C137.092 61.8831 133.771 61.7135 130.449 61.7388H103.082L144.09 112.833V115.293L93.4023 172.833H151.254C154.098 172.833 156.707 172.153 159.066 170.801C161.426 169.442 163.473 167.739 165.199 165.692C166.926 163.7 168.527 161.426 170.004 158.872C171.483 156.303 172.783 153.635 173.895 150.887L179.684 152.653Z" fill="white"/>
</g>
<defs>
<clipPath id="clip0_242_94240">
<rect width="250" height="250" rx="125" fill="white"/>
</clipPath>
</defs>
</svg>
