<svg width="250" height="250" viewBox="0 0 250 250" fill="none" xmlns="http://www.w3.org/2000/svg">
<g clip-path="url(#clip0_242_93984)">
<path d="M125 0.851562C56.4504 0.851562 0.900391 56.4516 0.900391 125.002C0.900391 138.702 3.10039 151.902 7.20039 164.202H44.3004V59.7516L125 140.452L205.65 59.7516V164.202H242.75C246.85 151.852 249.05 138.702 249.05 125.002C249.1 56.4516 193.55 0.851562 125 0.851562Z" fill="#FF6600"/>
<path d="M106.449 159.002L71.2492 123.802V189.502H18.9492C40.7492 225.252 80.0992 249.102 124.999 249.102C169.899 249.102 209.249 225.252 231.049 189.502H178.749V123.802L143.549 159.002L124.999 177.552L106.449 159.002Z" fill="#4C4C4C"/>
</g>
<defs>
<clipPath id="clip0_242_93984">
<rect width="250" height="250" rx="125" fill="white"/>
</clipPath>
</defs>
</svg>
