<svg width="250" height="250" viewBox="0 0 250 250" fill="none" xmlns="http://www.w3.org/2000/svg">
<g clip-path="url(#clip0_242_94903)">
<path d="M250.027 125.016C250.027 194.061 194.063 250.033 125.027 250.033C55.9917 250.033 0.0273438 194.061 0.0273438 125.016C0.0273438 55.9717 55.9912 0 125.027 0C194.063 0 250.027 55.9717 250.027 125.016Z" fill="white"/>
<path d="M250.027 125.016C250.027 194.061 194.063 250.033 125.027 250.033C55.9917 250.033 0.0273438 194.061 0.0273438 125.016C0.0273438 55.9717 55.9912 0 125.027 0C194.063 0 250.027 55.9717 250.027 125.016Z" fill="white"/>
<path d="M186.334 72.7634H238.618C218.833 29.8135 175.411 0 125.027 0C55.9917 0 0.0273438 55.9717 0.0273438 125.016C0.0273438 125.342 0.0283203 125.668 0.0307617 125.993H126.004L65.3208 179.711H12.5933C32.8794 221.345 75.6035 250.033 125.027 250.033C193.737 250.033 249.499 194.588 250.023 125.993H126.004L186.334 72.7634Z" fill="url(#paint0_linear_242_94903)"/>
</g>
<defs>
<linearGradient id="paint0_linear_242_94903" x1="0.0273438" y1="125.016" x2="250.027" y2="125.016" gradientUnits="userSpaceOnUse">
<stop stop-color="#29235C"/>
<stop offset="1" stop-color="#00A19A"/>
</linearGradient>
<clipPath id="clip0_242_94903">
<rect width="250" height="250" rx="125" fill="white"/>
</clipPath>
</defs>
</svg>
