<svg width="250" height="250" viewBox="0 0 250 250" fill="none" xmlns="http://www.w3.org/2000/svg">
<g clip-path="url(#clip0_242_94258)">
<path d="M249.469 122.25C249.494 123.096 249.504 123.928 249.504 124.769C249.535 144.742 244.748 164.428 235.547 182.156L167.525 209.607L167.663 209.297L249.469 122.25Z" fill="#0F6089"/>
<path d="M249.469 122.222L167.678 209.298L243.657 86.9263C247.289 98.349 249.246 110.238 249.469 122.222Z" fill="#078FA4"/>
<path d="M243.657 86.9261L167.677 209.298L167.471 209.628L158.361 51.2666L234.749 79.8493L243.657 86.9261Z" fill="#00AAA6"/>
<path d="M243.655 86.9244L234.748 79.8472L242.198 82.6279C242.72 84.0502 243.212 85.4873 243.655 86.9244Z" fill="#00AAA6"/>
<path d="M242.201 82.6276L168.579 7.92285C202.888 20.8217 229.804 48.1336 242.201 82.6276ZM168.579 7.92285L242.201 82.6276L234.75 79.8471L164.73 24.227L168.569 7.92285H168.579Z" fill="#1EAAE2"/>
<path d="M167.526 209.607L235.537 182.136C218.315 215.358 187.101 239.103 150.488 246.836L166.812 211.186L167.526 209.607Z" fill="#0C7392"/>
<path d="M234.749 79.8515L158.361 51.2688L164.729 24.2314L234.749 79.8515Z" fill="#1EAAE2"/>
<path d="M168.566 7.92406L164.723 24.2282L134.703 0.394531C146.29 1.29303 157.691 3.82804 168.566 7.92406Z" fill="#ABCF3A"/>
<path d="M167.471 212.647L169.571 209.297L168.171 212.447L167.471 212.647Z" fill="#CD1685"/>
<path d="M167.541 209.608L166.813 211.188L78.6094 146.842L79.7511 145.829L158.363 51.2666L167.473 209.628L167.541 209.608Z" fill="#8F9990"/>
<path d="M166.811 211.187L150.487 246.836C142.029 248.618 133.408 249.512 124.764 249.504C121.319 249.504 117.948 249.366 114.601 249.095L36.998 181.625L39.2569 182.117L166.811 211.187Z" fill="#CD1685"/>
<path d="M166.81 211.19L39.2559 182.14L78.6063 146.844L166.81 211.19Z" fill="#EC1076"/>
<path d="M164.728 24.2282L158.36 51.2656L134.703 0.394531L164.728 24.2282Z" fill="#ABCF3A"/>
<path d="M134.707 0.395061L158.358 51.2661L71.4883 11.896C88.1409 4.03025 106.334 -0.0343654 124.751 -0.0037344C128.102 -0.0037344 131.414 0.134235 134.707 0.395061Z" fill="#E0E224"/>
<path d="M158.364 51.2666L79.7514 145.829L45.5684 103.673L158.364 51.2666Z" fill="#F9A516"/>
<path d="M158.364 51.263L45.5684 103.67L71.4886 11.9126L158.364 51.263Z" fill="#FDCD11"/>
<path d="M119.223 253.561L114.223 249.061L116.387 249.411L119.223 253.561Z" fill="#CD1685"/>
<path d="M36.9978 181.626L114.586 249.097L114.222 249.062L27.9082 203.398L36.4515 181.144L36.9978 181.626ZM27.9082 203.398L114.222 249.062C80.432 246.233 49.2587 229.741 27.9082 203.398Z" fill="#B9204A"/>
<path d="M45.567 103.67L79.75 145.825L78.6083 146.839L18.1211 145.565L45.567 103.67Z" fill="#F05B28"/>
<path d="M78.6083 146.841L39.2579 182.137L18.1211 145.567L78.6083 146.841Z" fill="#F05B28"/>
<path d="M71.4876 11.9087L45.5673 103.671L18.1214 145.565L18.2248 144.684L0.203125 117.922C2.70805 70.9835 31.1677 30.9589 71.4876 11.9087Z" fill="#FDCD11"/>
<path d="M18.1234 145.567L39.2602 182.137L37.0013 181.625L18.1234 145.567ZM37.0013 181.625L36.4551 181.133L27.9118 203.397C22.5468 196.804 17.8702 189.681 13.9551 182.137L18.1234 145.577L37.0013 181.625Z" fill="#AB1F25"/>
<path d="M0.179688 117.922L18.2259 144.684L18.1226 145.565L13.9543 182.125L0.179688 117.922Z" fill="#CB0010"/>
<path d="M0.202934 117.922L13.9825 182.125C4.7723 164.403 -0.025553 144.72 -0.00383283 124.748C-0.00383283 122.459 0.0503749 120.191 0.202934 117.922Z" fill="#CB0010"/>
<path d="M194.821 145.831L200.5 121.904C202.843 115.424 204.009 108.578 203.945 101.688C203.944 97.1147 202.214 92.7109 199.102 89.36L198.256 88.4496C192.439 82.1799 182.016 78.607 173.443 78.607H170.446C162.68 78.6022 155.201 81.5367 149.511 86.8206L142.429 93.42L141.218 90.6444C140.588 89.1828 139.695 87.8486 138.586 86.7074C132.753 80.7918 124.791 77.4641 116.484 77.4702C110.354 77.4693 104.361 79.2826 99.2598 82.6818L92.2814 87.7261V87.234C92.2787 82.4632 88.4105 78.5972 83.6397 78.5972H7.9704L1.13477 103.676L63.7972 104.818L54.5895 154.306C53.0245 161.043 57.2913 167.682 64.181 168.514C69.6898 169.199 74.8891 165.809 76.4842 160.492L93.6249 107.539C95.4753 101.363 103.812 97.4358 110.21 98.2724C114.002 98.7668 117.392 100.887 119.495 104.081C121.599 107.275 122.208 111.227 121.164 114.906L112.139 154.242C110.941 158.461 111.792 162.997 114.436 166.495C117.081 169.993 121.213 172.049 125.598 172.047C131.568 172.047 134.604 168.263 136.548 162.618L153.748 111.491C155.746 105.699 162.833 102.249 168.856 103.395C172.285 104.05 175.276 106.128 177.087 109.113C178.897 112.098 179.358 115.711 178.354 119.055L169.23 152.623C167.839 157.177 168.689 162.12 171.521 165.948C174.354 169.775 178.834 172.033 183.595 172.032L242.513 170.895L249.348 145.831H194.821Z" fill="white"/>
</g>
<defs>
<clipPath id="clip0_242_94258">
<rect width="250" height="250" rx="125" fill="white"/>
</clipPath>
</defs>
</svg>
