<svg width="250" height="250" viewBox="0 0 250 250" fill="none" xmlns="http://www.w3.org/2000/svg">
<path d="M128.67 16.3477V114.468C135.876 115.962 141.325 122.377 141.325 130.023C141.325 138.811 134.206 145.929 125.418 145.929C116.63 145.929 109.511 138.811 109.511 130.023C109.511 122.377 114.916 116.005 122.122 114.468V16.3477L26.1982 174.974L125.857 233.284L224.198 174.974L128.67 16.3477Z" fill="#3C82B4"/>
<path d="M109.564 130.023C109.564 122.377 114.969 116.005 122.175 114.468V16.3477L26.251 174.974L110.97 136.526C110.047 134.549 109.564 132.351 109.564 130.023Z" fill="#3C82B4"/>
<path d="M125.418 145.888C118.959 145.888 113.422 142.021 110.917 136.484L26.1982 174.977L125.857 233.286L125.506 145.888C125.462 145.888 125.462 145.888 125.418 145.888Z" fill="#2D4B69"/>
<path d="M139.902 136.529C137.441 142.066 131.905 145.889 125.445 145.933L125.797 233.331L224.138 175.021L139.902 136.529Z" fill="#142846"/>
<path d="M128.668 16.3496V114.469C135.874 115.963 141.323 122.379 141.323 130.025C141.323 132.353 140.84 134.55 139.917 136.528L224.153 175.02L128.668 16.3496Z" fill="#1E3C64"/>
</svg>
