<svg width="250" height="250" viewBox="0 0 250 250" fill="none" xmlns="http://www.w3.org/2000/svg">
<path d="M39.0723 204.95V211.25H45.4073L65.8123 189.2V182.9H59.4773L39.0723 204.95Z" fill="url(#paint0_linear_242_93988)"/>
<path d="M98.503 211.25L108.548 189.025V182.9H102.003L91.958 205.125V211.25H98.503Z" fill="url(#paint1_linear_242_93988)"/>
<path d="M211.447 159.618V153.108L190.062 141.628H183.902V148.138L205.287 159.618H211.447Z" fill="url(#paint2_linear_242_93988)"/>
<path d="M211.447 96.2385V89.7285H205.287L183.902 101.209V107.754H190.062L211.447 96.2385Z" fill="url(#paint3_linear_242_93988)"/>
<path d="M91.958 38.1025V44.2275L102.003 66.4525H108.548V60.3275L98.503 38.1025H91.958Z" fill="url(#paint4_linear_242_93988)"/>
<path d="M210.677 44.4025V38.1025H204.342L183.938 60.1525V66.4525H190.273L210.677 44.4025Z" fill="url(#paint5_linear_242_93988)"/>
<path d="M150.232 98.165H140.678V107.719H150.232V98.165Z" fill="#BE5095"/>
<path d="M141.204 182.931V189.056L151.249 211.281H157.794V205.156L147.749 182.931H141.204Z" fill="url(#paint6_linear_242_93988)"/>
<path d="M157.793 38.1025H151.248L141.203 60.3275V66.4525H147.748L157.793 44.2275V38.1025Z" fill="url(#paint7_linear_242_93988)"/>
<path d="M210.677 211.25V204.95L190.273 182.9H183.938V189.2L204.342 211.25H210.677Z" fill="url(#paint8_linear_242_93988)"/>
<path d="M38.3027 153.108V159.618H44.4627L65.8127 148.138V141.628H59.6877L38.3027 153.108Z" fill="url(#paint9_linear_242_93988)"/>
<path d="M39.0723 38.1025V44.4025L59.4773 66.4525H65.8123V60.1525L45.4073 38.1025H39.0723Z" fill="url(#paint10_linear_242_93988)"/>
<path d="M99.5176 151.182H109.072V141.628H99.5176V151.182Z" fill="#BD687B"/>
<path d="M38.3027 89.7285V96.2385L59.6877 107.754H65.8127V101.244L44.4627 89.7285H38.3027Z" fill="url(#paint11_linear_242_93988)"/>
<path d="M99.5176 107.719H109.072V98.165H99.5176V107.719Z" fill="#AC5E90"/>
<path d="M150.232 141.628H140.678V151.182H150.232V141.628Z" fill="#C85C7F"/>
<defs>
<linearGradient id="paint0_linear_242_93988" x1="66.591" y1="183.739" x2="38.3059" y2="210.445" gradientUnits="userSpaceOnUse">
<stop stop-color="#C27E64"/>
<stop offset="1" stop-color="#CD8D56"/>
</linearGradient>
<linearGradient id="paint1_linear_242_93988" x1="109.938" y1="189.743" x2="88.1662" y2="206.264" gradientUnits="userSpaceOnUse">
<stop stop-color="#CB7365"/>
<stop offset="1" stop-color="#D57D56"/>
</linearGradient>
<linearGradient id="paint2_linear_242_93988" x1="188.192" y1="138.325" x2="205.836" y2="161.19" gradientUnits="userSpaceOnUse">
<stop stop-color="#D75080"/>
<stop offset="1" stop-color="#E34B76"/>
</linearGradient>
<linearGradient id="paint3_linear_242_93988" x1="188.986" y1="110.142" x2="207.081" y2="86.4151" gradientUnits="userSpaceOnUse">
<stop stop-color="#CF4794"/>
<stop offset="1" stop-color="#D739A3"/>
</linearGradient>
<linearGradient id="paint4_linear_242_93988" x1="87.9656" y1="44.1211" x2="111.197" y2="59.5249" gradientUnits="userSpaceOnUse">
<stop stop-color="#8554B2"/>
<stop offset="1" stop-color="#9C55A5"/>
</linearGradient>
<linearGradient id="paint5_linear_242_93988" x1="183.686" y1="65.1108" x2="211.431" y2="38.9163" gradientUnits="userSpaceOnUse">
<stop stop-color="#C43CAE"/>
<stop offset="1" stop-color="#CD2CC3"/>
</linearGradient>
<linearGradient id="paint6_linear_242_93988" x1="137.884" y1="188.589" x2="159.482" y2="204.405" gradientUnits="userSpaceOnUse">
<stop stop-color="#D66766"/>
<stop offset="1" stop-color="#E26A55"/>
</linearGradient>
<linearGradient id="paint7_linear_242_93988" x1="137.284" y1="60.9355" x2="159.757" y2="44.9755" gradientUnits="userSpaceOnUse">
<stop stop-color="#AD4AA9"/>
<stop offset="1" stop-color="#AD3EBB"/>
</linearGradient>
<linearGradient id="paint8_linear_242_93988" x1="183.146" y1="183.739" x2="211.431" y2="210.445" gradientUnits="userSpaceOnUse">
<stop stop-color="#E15A68"/>
<stop offset="1" stop-color="#EB5A55"/>
</linearGradient>
<linearGradient id="paint9_linear_242_93988" x1="61.7008" y1="138.377" x2="43.9077" y2="160.977" gradientUnits="userSpaceOnUse">
<stop stop-color="#AC757A"/>
<stop offset="1" stop-color="#AC8270"/>
</linearGradient>
<linearGradient id="paint10_linear_242_93988" x1="38.3069" y1="38.9161" x2="66.5" y2="65.5341" gradientUnits="userSpaceOnUse">
<stop stop-color="#6466AA"/>
<stop offset="1" stop-color="#8563A1"/>
</linearGradient>
<linearGradient id="paint11_linear_242_93988" x1="42.9445" y1="86.751" x2="60.2194" y2="109.472" gradientUnits="userSpaceOnUse">
<stop stop-color="#857390"/>
<stop offset="1" stop-color="#986C8D"/>
</linearGradient>
</defs>
</svg>
