<svg width="250" height="250" viewBox="0 0 250 250" fill="none" xmlns="http://www.w3.org/2000/svg">
<g clip-path="url(#clip0_242_94261)">
<path d="M124.999 249.994C194.035 249.994 249.999 194.03 249.999 124.994C249.999 55.9585 194.035 -0.00585938 124.999 -0.00585938C55.9634 -0.00585938 -0.000976562 55.9585 -0.000976562 124.994C-0.000976562 194.03 55.9634 249.994 124.999 249.994Z" fill="#4FA784"/>
<path fill-rule="evenodd" clip-rule="evenodd" d="M199.804 100.354L136.444 82.198L114.773 119.112L89.6007 89.9168L101.007 88.448L112.765 102.26L125.812 79.1433L68.3898 62.6824C67.6184 62.4537 66.8003 62.4325 66.018 62.6207C65.2357 62.8089 64.5168 63.1999 63.9338 63.7544C63.3508 64.3089 62.9242 65.0073 62.697 65.7792C62.4698 66.5511 62.4501 67.3692 62.6398 68.1511L88.0773 170.307L115.398 124.307L140.569 153.503L129.163 154.971L117.413 141.159L91.5539 184.26L95.382 199.651C95.5812 200.432 95.9814 201.146 96.5429 201.724C97.1043 202.302 97.8074 202.722 98.5819 202.943C99.3565 203.165 100.176 203.179 100.957 202.985C101.739 202.791 102.457 202.396 103.038 201.839L201.71 108.01C202.293 107.459 202.718 106.762 202.943 105.992C203.168 105.221 203.185 104.405 202.991 103.626C202.797 102.847 202.4 102.134 201.84 101.559C201.28 100.984 200.577 100.569 199.804 100.354Z" fill="white"/>
</g>
<defs>
<clipPath id="clip0_242_94261">
<rect width="250" height="250" rx="125" fill="white"/>
</clipPath>
</defs>
</svg>
