<svg width="250" height="250" viewBox="0 0 250 250" fill="none" xmlns="http://www.w3.org/2000/svg">
<g clip-path="url(#clip0_242_94229)">
<path d="M124.997 249.994C194.033 249.994 249.997 194.03 249.997 124.994C249.997 55.9585 194.033 -0.00585938 124.997 -0.00585938C55.9615 -0.00585938 -0.00292969 55.9585 -0.00292969 124.994C-0.00292969 194.03 55.9615 249.994 124.997 249.994Z" fill="#FFD81B"/>
<path d="M187.497 121.572C187.497 156.126 160.731 167.876 138.2 167.876V176.884H155.583V189.087H138.208V203.119H111.021V189.087H94.4033V176.884H110.989V167.759C103.778 167.759 62.4971 166.048 62.4971 119.064V62.4937H89.4893V121.228C89.4893 145.751 111.099 145.525 111.099 145.525V62.4937H138.208V145.525C138.208 145.525 160.505 146.775 160.505 120.892V62.4937H187.497V121.572Z" fill="white"/>
</g>
<defs>
<clipPath id="clip0_242_94229">
<rect width="250" height="250" rx="125" fill="white"/>
</clipPath>
</defs>
</svg>
