<svg width="250" height="250" viewBox="0 0 250 250" fill="none" xmlns="http://www.w3.org/2000/svg">
<path fill-rule="evenodd" clip-rule="evenodd" d="M124.099 0.449219C140.149 0.449219 153.999 16.9992 163.149 43.8492C159.449 44.8492 155.699 45.9992 151.899 47.2492C144.299 25.0492 133.899 11.9492 124.099 11.9492C113.049 11.9492 101.249 28.5492 93.5994 56.0992C96.5994 57.0492 99.5994 58.0992 102.699 59.1992C109.999 61.8492 117.149 64.8492 124.149 68.0992L125.399 67.4992C130.549 65.1492 135.749 62.9492 140.999 60.9492C154.799 55.6492 168.199 51.8492 180.399 49.8492C206.749 45.4992 225.249 49.9992 232.499 62.4992C239.799 74.9992 234.449 93.1492 217.499 113.549C216.499 114.699 215.499 115.899 214.499 117.049C211.899 114.199 209.199 111.399 206.399 108.699C221.349 91.4992 227.249 76.4492 222.449 68.1992C217.899 60.3992 202.899 57.7492 182.299 61.1492C177.699 61.8992 173.149 62.8992 168.599 64.0492C169.249 67.0992 169.899 70.2492 170.449 73.4492C171.699 80.6992 172.699 88.3492 173.399 96.2992C176.999 98.7992 180.499 101.349 183.949 103.999C197.249 114.199 208.699 124.899 217.499 135.499C234.449 155.949 239.799 174.049 232.499 186.549C227.049 195.949 215.249 200.799 198.549 200.799C193.049 200.799 186.949 200.299 180.399 199.199C178.699 198.899 176.999 198.599 175.249 198.249C176.299 194.699 177.249 190.949 178.149 187.099C179.549 187.399 180.949 187.599 182.349 187.849C202.949 191.249 217.949 188.599 222.499 180.799C227.999 171.299 219.399 152.849 199.099 132.449C197.049 134.299 194.949 136.149 192.849 137.899C192.549 138.149 192.199 138.449 191.899 138.699C185.949 143.599 179.799 148.299 173.499 152.699C173.199 156.249 172.849 159.799 172.399 163.349C166.049 213.949 147.399 248.649 124.149 248.649C108.149 248.649 94.2994 232.149 85.1494 205.399C88.9494 204.349 92.6994 203.249 96.3994 201.999C103.999 224.149 114.349 237.199 124.149 237.199C135.199 237.199 146.999 220.549 154.699 192.949C151.649 191.999 148.599 190.949 145.599 189.849C138.349 187.199 131.249 184.299 124.249 181.049L123.799 181.249C119.749 183.099 115.749 184.849 111.799 186.499C111.199 186.749 110.599 186.999 109.999 187.199C87.2494 196.299 66.4994 200.999 49.9994 200.999C33.5494 200.999 21.3494 196.349 15.7494 186.649C7.69941 172.799 15.2994 152.549 34.3994 131.149L42.4994 139.649C27.0494 157.199 20.8994 172.549 25.7994 180.899C31.2994 190.399 51.6994 192.199 79.5994 185.049C78.8994 181.949 78.2994 178.799 77.7494 175.649C76.4494 168.099 75.4494 160.499 74.7994 152.849C71.2494 150.399 67.6994 147.849 64.2494 145.249C31.8494 120.549 12.3994 94.3492 12.3994 74.8492C12.3994 70.3492 13.4494 66.1992 15.5994 62.4992C23.5994 48.7492 44.9494 45.0992 72.9494 50.6492C71.8994 54.2492 70.8994 58.0492 70.0494 61.9492C47.0494 57.4492 30.5494 59.8492 25.6994 68.2492C20.1994 77.6992 28.7994 96.1492 48.9994 116.499C51.5994 114.149 54.2994 111.849 57.0994 109.549C62.7994 104.899 68.6994 100.449 74.7494 96.2992C75.0494 92.6992 75.4494 89.0992 75.8494 85.6492C82.1494 35.1492 100.799 0.449219 124.099 0.449219ZM160.799 161.149C157.999 162.899 155.149 164.649 152.299 166.349C147.949 168.899 143.549 171.349 139.099 173.649C138.599 173.899 138.099 174.149 137.599 174.449C144.099 177.199 150.699 179.649 157.399 181.799C158.099 178.649 158.699 175.399 159.299 172.049C159.849 168.549 160.349 164.899 160.799 161.149ZM87.2994 161.149C87.7994 165.049 88.3494 168.849 88.9994 172.499C89.5494 175.699 90.1494 178.799 90.7994 181.799C92.6994 181.199 94.5494 180.549 96.4994 179.899C97.0994 179.699 97.6494 179.499 98.2494 179.249C102.349 177.799 106.399 176.199 110.399 174.499L110.499 174.449C106.549 172.399 102.599 170.249 98.7494 168.049C98.5494 167.949 98.3494 167.799 98.1494 167.699C94.4994 165.599 90.8994 163.399 87.2994 161.149ZM124.099 80.8992C117.499 84.0992 110.949 87.4992 104.599 91.1492C98.2494 94.7992 91.9994 98.6492 85.8994 102.749C85.3494 110.049 85.0994 117.299 85.0994 124.599C85.0994 132.149 85.3994 139.449 85.8994 146.449C89.2994 148.699 92.7994 150.999 96.3994 153.199C105.349 158.699 114.599 163.749 124.099 168.349L125.349 167.749C129.749 165.599 134.149 163.299 138.449 160.949C146.599 156.499 154.549 151.649 162.299 146.499C162.849 139.199 163.099 131.899 163.099 124.599C163.099 117.049 162.799 109.749 162.299 102.749C156.199 98.6492 149.949 94.7992 143.599 91.1492C137.199 87.4992 130.699 84.0492 124.099 80.8992ZM124.099 109.799C132.349 109.799 139.049 116.449 139.049 124.599C139.049 132.749 132.349 139.399 124.099 139.399C115.849 139.399 109.149 132.749 109.149 124.599C109.149 116.449 115.849 109.799 124.099 109.799ZM174.399 111.349C174.549 115.699 174.649 120.099 174.649 124.599C174.649 125.699 174.649 126.749 174.649 127.849C174.599 131.249 174.499 134.599 174.399 137.899C177.399 135.649 180.249 133.399 182.999 131.149L183.999 130.349C186.299 128.399 188.549 126.499 190.649 124.599C185.449 119.949 180.049 115.549 174.399 111.349ZM73.7494 111.299C71.0494 113.299 68.4494 115.349 65.9994 117.349C62.9994 119.749 60.1494 122.199 57.4494 124.599C59.3994 126.349 61.4494 128.099 63.5494 129.849C66.7494 132.499 70.1494 135.199 73.6994 137.849C73.5494 133.449 73.4494 128.999 73.4494 124.599C73.4494 123.499 73.4494 122.449 73.4994 121.349C73.5494 117.999 73.6494 114.649 73.7494 111.299ZM157.349 67.4492C150.999 69.4992 144.799 71.7992 138.649 74.3492L137.649 74.7992C141.549 76.8492 145.449 78.9492 149.399 81.1992C149.599 81.2992 149.799 81.4492 149.999 81.5492C153.699 83.6492 157.299 85.8492 160.849 88.0992C160.399 84.2992 159.799 80.4992 159.149 76.7492C158.649 73.5992 158.049 70.4992 157.349 67.4492ZM90.7994 67.4492C89.3494 74.2492 88.1994 81.1492 87.3494 88.0492C90.8994 85.8492 94.5494 83.6492 98.2494 81.4992L98.7994 81.1992C102.699 78.9992 106.599 76.8492 110.599 74.7992C107.149 73.3492 103.649 71.9492 100.099 70.6492C96.9994 69.4992 93.8994 68.4492 90.7994 67.4492Z" fill="url(#paint0_linear_242_93990)"/>
<defs>
<linearGradient id="paint0_linear_242_93990" x1="44.5077" y1="120.501" x2="214.578" y2="127.607" gradientUnits="userSpaceOnUse">
<stop stop-color="#7543E3"/>
<stop offset="1" stop-color="#582ACB"/>
</linearGradient>
</defs>
</svg>
