<svg width="250" height="250" viewBox="0 0 250 250" fill="none" xmlns="http://www.w3.org/2000/svg">
<rect width="250" height="250" rx="125" fill="white"/>
<path d="M99.303 206.202C97.704 206.202 96.105 205.812 94.662 205.109C93.219 204.368 92.01 203.316 91.074 202.029L50.787 146.727H24.501V126.603H55.974C57.573 126.603 59.172 126.993 60.615 127.695C62.058 128.436 63.267 129.489 64.242 130.776L97.158 175.938L147.351 62.2526C148.131 60.4586 149.457 58.9376 151.095 57.8846C152.733 56.8316 154.683 56.2466 156.672 56.2466H219.501V76.3706H163.302L108.624 200.157C107.922 201.795 106.752 203.199 105.309 204.252C103.866 205.305 102.15 205.928 100.356 206.124C100.005 206.124 99.615 206.124 99.264 206.124" fill="#00C389"/>
</svg>
