<svg width="250" height="250" viewBox="0 0 250 250" fill="none" xmlns="http://www.w3.org/2000/svg">
<rect width="250" height="250" rx="125" fill="white"/>
<path d="M48.7439 136.483C48.7439 129.238 48.7439 121.993 48.7439 114.748C48.7439 113.663 48.7089 112.543 48.8139 111.458C49.1989 107.783 51.9989 106.488 54.7989 108.903C74.5389 126.088 98.4089 133.823 123.364 139.178C138.799 142.468 153.779 147.053 167.429 155.278C170.579 157.168 173.624 159.303 176.389 161.753C184.159 168.648 183.284 179.848 174.499 185.483C169.459 188.703 164.104 191.538 158.924 194.548C150.629 199.308 142.334 204.068 134.039 208.863C128.579 212.013 123.154 212.083 117.694 208.968C97.3239 197.278 76.9539 185.553 56.5839 173.828C51.2639 170.748 48.7439 166.023 48.7439 159.898C48.7789 152.058 48.7439 144.288 48.7439 136.483Z" fill="#151828"/>
<path d="M202.254 113.243C202.254 121.293 202.254 129.378 202.254 137.428C202.254 139.248 202.219 141.103 200.154 141.908C198.229 142.643 196.794 141.663 195.394 140.403C182.969 129.483 168.409 122.273 152.764 117.513C141.284 114.013 129.524 111.493 117.904 108.448C103.694 104.738 90.0444 99.6281 77.9694 90.9831C74.7144 88.6731 71.7394 86.0831 70.3044 82.1281C67.8194 75.1981 70.4444 68.0581 77.4094 63.9281C86.4744 58.5731 95.6444 53.4281 104.744 48.1781C108.524 46.0081 112.374 43.9081 116.084 41.5981C122.489 37.6081 128.614 38.0981 134.984 41.8431C151.119 51.2931 167.394 60.5681 183.599 69.9481C186.924 71.8731 190.214 73.7981 193.539 75.6531C199.489 78.9431 202.359 83.8781 202.254 90.7031C202.149 98.1931 202.219 105.718 202.254 113.243Z" fill="#151828"/>
</svg>
