<svg width="250" height="250" viewBox="0 0 250 250" fill="none" xmlns="http://www.w3.org/2000/svg">
<rect width="250" height="250" rx="125" fill="white"/>
<g clip-path="url(#clip0_242_94305)">
<path d="M18.2969 93.4713V156.558C18.2968 165.375 20.6341 174.035 25.0705 181.655C29.5069 189.275 35.8839 195.583 43.5518 199.936L100.388 232.202C107.896 236.464 116.381 238.705 125.014 238.705C133.647 238.705 142.133 236.464 149.64 232.202L206.477 199.936C214.145 195.583 220.522 189.275 224.959 181.655C229.395 174.035 231.733 165.375 231.733 156.558V93.4713C231.733 84.6538 229.395 75.994 224.959 68.374C220.522 60.754 214.145 54.4462 206.477 50.0934L149.64 17.8269C142.133 13.5648 133.647 11.3242 125.014 11.3242C116.381 11.3242 107.896 13.5648 100.388 17.8269L43.5518 50.0934C35.8839 54.4464 29.5069 60.7542 25.0705 68.3742C20.6341 75.9942 18.2968 84.654 18.2969 93.4713Z" fill="white"/>
<path d="M206.344 50.674L149.769 18.5561C142.222 14.2718 133.692 12.0195 125.014 12.0195C116.336 12.0195 107.806 14.2718 100.259 18.5561L43.6836 50.674C35.9757 55.05 29.5655 61.3909 25.1059 69.0508C20.6464 76.7107 18.2969 85.4157 18.2969 94.2792V157.062C18.297 165.925 20.6465 174.63 25.1061 182.29C29.5657 189.95 35.9761 196.291 43.6841 200.667L100.26 232.785C100.669 233.016 101.08 233.239 101.493 233.458C103.597 232.699 106.02 230.877 106.02 226.507V127.303L82.4737 140.813C82.4737 140.813 70.411 143.418 62.2083 135.216C54.0056 127.013 59.5057 111.669 59.5057 111.669L117.214 74.6128C117.214 74.6128 123.777 69.4016 134.392 74.6128L185.152 106.844C185.152 106.844 198.469 115.144 188.818 132.514C179.167 149.884 162.763 137.918 162.763 137.918L144.62 126.916L144.234 229.594C144.234 229.594 144.37 232.663 147.859 233.808C148.5 233.48 149.138 233.142 149.768 232.785L206.344 200.667C214.052 196.292 220.463 189.951 224.923 182.291C229.383 174.631 231.733 165.925 231.733 157.062V94.2792C231.733 85.4156 229.383 76.7104 224.923 69.0505C220.463 61.3906 214.053 55.0498 206.344 50.674Z" fill="url(#paint0_linear_242_94305)"/>
<path d="M102.893 232.698L105.525 229.63C105.852 229.248 106.032 228.762 106.032 228.26V227.147C106.031 226.772 105.93 226.404 105.74 226.081C105.549 225.757 105.276 225.491 104.948 225.309C104.889 225.276 104.831 225.243 104.773 225.21L48.1971 193.092C41.8941 189.514 36.6522 184.329 33.0055 178.065C29.3588 171.801 27.4375 164.683 27.4375 157.435V109.7C27.4372 108.488 26.9556 107.326 26.0986 106.469C25.2416 105.612 24.0794 105.131 22.8676 105.131C22.2676 105.131 21.6735 105.249 21.1192 105.479C20.5649 105.708 20.0612 106.045 19.637 106.469C19.2127 106.893 18.8762 107.397 18.6466 107.951C18.417 108.506 18.2988 109.1 18.2988 109.7V157.435C18.2988 166.298 20.6482 175.003 25.1077 182.663C29.5671 190.323 35.9773 196.664 43.6851 201.04L100.261 233.158C100.685 233.398 101.179 233.484 101.659 233.4C102.139 233.316 102.575 233.068 102.893 232.698Z" fill="#8D008A"/>
<path opacity="0.7" d="M51.3539 52.4854C52.0096 53.4078 52.9842 54.054 54.089 54.2989C55.1939 54.5438 56.3503 54.37 57.3343 53.8111L104.774 26.8793C110.945 23.3759 117.92 21.5341 125.017 21.5341C132.113 21.5341 139.088 23.3759 145.259 26.8793L201.835 58.9972C208.138 62.5755 213.38 67.7606 217.027 74.0242C220.673 80.2879 222.594 87.4062 222.595 94.6541V157.437H231.735V94.6544C231.735 85.7907 229.385 77.0855 224.925 69.4256C220.466 61.7657 214.055 55.4249 206.347 51.0491L149.771 18.9313C142.224 14.6469 133.695 12.3945 125.016 12.3945C116.338 12.3945 107.808 14.6469 100.261 18.9313L52.8221 45.863C52.266 46.1785 51.7823 46.6072 51.4023 47.1213C51.0223 47.6355 50.7545 48.2237 50.6161 48.8479C50.4777 49.4721 50.4719 50.1184 50.599 50.745C50.7261 51.3715 50.9833 51.9645 51.3539 52.4854Z" fill="#FF72B9"/>
<path opacity="0.4" d="M206.005 61.1947C205.175 61.1949 204.361 60.9679 203.651 60.5385L143.434 24.2535C142.92 23.9438 142.472 23.5359 142.116 23.053C141.759 22.5701 141.501 22.0218 141.357 21.4393C141.213 20.8568 141.184 20.2516 141.274 19.6582C141.363 19.0648 141.569 18.4948 141.878 17.9808C142.188 17.4668 142.596 17.0188 143.079 16.6624C143.562 16.3061 144.11 16.0483 144.693 15.9039C145.275 15.7594 145.88 15.7311 146.474 15.8206C147.067 15.91 147.637 16.1155 148.151 16.4252L208.369 52.71C209.225 53.2257 209.888 54.0077 210.257 54.9362C210.626 55.8647 210.681 56.8885 210.412 57.851C210.144 58.8135 209.568 59.6616 208.772 60.2655C207.976 60.8694 207.004 61.1958 206.005 61.1947Z" fill="#FFD4E7"/>
<path opacity="0.53" d="M194.295 136.849C193.504 136.848 192.726 136.642 192.039 136.25C191.351 135.859 190.777 135.295 190.372 134.615C189.968 133.935 189.747 133.162 189.731 132.371C189.715 131.58 189.904 130.798 190.281 130.102C193.633 123.913 193.883 118.274 191.022 113.341C189.68 111.073 187.872 109.116 185.718 107.6L185.674 107.572L129.317 71.8021C129.034 71.6224 128.772 71.4121 128.535 71.1752C127.809 70.4496 125.6 68.2416 119.376 71.0733C115.404 72.8799 112.187 75.7067 112.155 75.7351C111.25 76.5409 110.062 76.9541 108.852 76.8838C107.642 76.8135 106.509 76.2654 105.703 75.36C104.897 74.4547 104.484 73.2663 104.555 72.0564C104.625 70.8464 105.173 69.7139 106.078 68.9081C108.901 66.4875 112.03 64.4501 115.385 62.8486C118.662 61.3302 121.784 60.5499 124.666 60.5301C128.347 60.457 131.911 61.8209 134.602 64.3322L190.555 99.8451C193.988 102.139 196.851 105.187 198.928 108.755C202.068 114.169 204.51 123.022 198.317 134.455C197.925 135.18 197.344 135.785 196.636 136.206C195.928 136.628 195.119 136.85 194.295 136.849Z" fill="#FF72B9"/>
<path opacity="0.4" d="M166.95 94.5157C166.101 94.5159 165.269 94.2784 164.548 93.8301L138.814 77.8901C137.783 77.2519 137.049 76.2306 136.772 75.0507C136.494 73.8709 136.697 72.6293 137.335 71.5989C137.973 70.5686 138.995 69.834 140.175 69.5568C141.354 69.2795 142.596 69.4823 143.626 70.1205L169.36 86.0605C170.206 86.584 170.857 87.3689 171.216 88.2963C171.575 89.2236 171.622 90.2427 171.349 91.1989C171.077 92.1552 170.5 92.9965 169.706 93.5951C168.912 94.1938 167.944 94.5171 166.95 94.5161V94.5157Z" fill="#FFD4E7"/>
<path d="M100.367 233.094C99.5637 233.094 98.7748 232.881 98.0804 232.477L59.875 210.347C58.8262 209.739 58.0617 208.74 57.7497 207.569C57.4377 206.397 57.6037 205.15 58.2113 204.102C58.8188 203.053 59.818 202.288 60.9892 201.976C62.1604 201.664 63.4075 201.83 64.4563 202.438L102.662 224.569C103.532 225.073 104.211 225.851 104.594 226.78C104.977 227.71 105.043 228.74 104.782 229.711C104.52 230.682 103.946 231.539 103.147 232.151C102.349 232.762 101.372 233.093 100.366 233.093L100.367 233.094Z" fill="#64005F"/>
</g>
<defs>
<linearGradient id="paint0_linear_242_94305" x1="203.066" y1="52.6665" x2="47.8912" y2="197.805" gradientUnits="userSpaceOnUse">
<stop stop-color="#FF034D"/>
<stop offset="1" stop-color="#CA00FF"/>
</linearGradient>
<clipPath id="clip0_242_94305">
<rect width="227.302" height="227.302" fill="white" transform="translate(11.3652 11.3633)"/>
</clipPath>
</defs>
</svg>
