<svg width="250" height="250" viewBox="0 0 250 250" fill="none" xmlns="http://www.w3.org/2000/svg">
<g clip-path="url(#clip0_242_94237)">
<path fill-rule="evenodd" clip-rule="evenodd" d="M166.669 -0.00585938H83.3271C37.4971 -0.00585938 -0.00195312 37.0484 -0.00195312 82.3349V167.653C-0.00195312 212.933 37.4971 249.994 83.3271 249.994H166.669C212.505 249.994 249.998 212.94 249.998 167.653V82.3349C249.998 37.0484 212.505 -0.00585938 166.669 -0.00585938Z" fill="#00569D"/>
<path fill-rule="evenodd" clip-rule="evenodd" d="M166.092 157.956C165.223 158.95 164.323 159.919 163.398 160.85C156.498 167.744 147.754 172.788 137.967 175.181L137.873 175.2L137.954 175.181C137.467 175.269 136.954 175.325 136.436 175.325C132.029 175.325 128.467 171.75 128.467 167.35C128.467 163.831 130.742 160.85 133.898 159.781L133.767 159.819C140.848 158.181 147.179 154.563 152.148 149.594C152.854 148.894 153.542 148.15 154.186 147.388C155.636 145.963 157.611 145.069 159.811 145.069C164.217 145.069 167.779 148.644 167.779 153.044C167.779 154.894 167.148 156.606 166.092 157.956Z" fill="white"/>
<path fill-rule="evenodd" clip-rule="evenodd" d="M178.656 130.706C178.131 134.187 174.281 136.519 170.938 136.519C166.781 136.519 162.344 132.325 162.963 128.056C163.225 126.25 163.369 124.4 163.369 122.512C163.369 111.931 159.081 102.356 152.144 95.4248C145.219 88.4936 135.638 84.2061 125.063 84.2061C114.488 84.2061 104.906 88.4936 97.975 95.4248C91.0438 102.356 86.7562 111.931 86.7562 122.512C86.7562 133.087 91.0438 142.669 97.975 149.594C101.744 153.362 106.294 156.35 111.356 158.294C113.606 159.144 115.088 162.769 115.088 165.05C115.088 169.525 111.456 173.162 106.975 173.162C106.106 173.162 105.444 173.081 104.644 172.75C97.8813 170.012 91.8125 165.925 86.725 160.85C76.9063 151.037 70.8438 137.481 70.8438 122.519C70.8438 107.556 76.9125 93.9936 86.725 84.1811C96.5375 74.3686 110.088 68.2998 125.063 68.2998C140.031 68.2998 153.581 74.3686 163.394 84.1748C173.213 93.9873 179.275 107.544 179.275 122.512C179.275 125.3 179.069 128.037 178.656 130.706Z" fill="white"/>
<path fill-rule="evenodd" clip-rule="evenodd" d="M203.972 157.049C202.603 159.487 199.997 161.137 197.009 161.137C194.303 161.137 191.916 159.799 190.472 157.743L189.897 156.799C189.341 155.712 189.022 154.468 189.022 153.162C189.022 152.187 189.203 151.256 189.516 150.393C193.216 141.849 195.266 132.424 195.266 122.518C195.266 103.137 187.416 85.5807 174.703 72.8744C162.003 60.1682 144.459 52.3182 125.072 52.3182C105.678 52.3182 88.1344 60.1682 75.4344 72.8744C62.7219 85.5807 54.8656 103.137 54.8656 122.518C54.8656 141.899 62.7219 159.456 75.4344 172.156C87.0281 183.762 102.672 191.324 120.072 192.543L119.897 192.531C122.266 192.781 124.316 194.062 125.603 195.924L126.109 196.768C126.697 197.868 127.022 199.124 127.022 200.456C127.022 204.812 123.534 208.343 119.197 208.424C97.7531 206.987 78.4656 197.693 64.1719 183.406C48.5969 167.824 38.9531 146.293 38.9531 122.512C38.9531 98.7307 48.5969 77.1994 64.1719 61.6244C79.7594 46.0369 101.291 36.3994 125.066 36.3994C148.847 36.3994 170.372 46.0369 185.959 61.6244C201.541 77.2057 211.184 98.7369 211.184 122.512C211.184 134.793 208.609 146.468 203.972 157.049Z" fill="white"/>
</g>
<defs>
<clipPath id="clip0_242_94237">
<rect width="250" height="250" rx="125" fill="white"/>
</clipPath>
</defs>
</svg>
