<svg width="250" height="250" viewBox="0 0 250 250" fill="none" xmlns="http://www.w3.org/2000/svg">
<rect width="250" height="250" rx="125" fill="#2C7DF7"/>
<path d="M145.117 218.5C131.69 218.5 121.929 215.284 115.758 208.851C109.624 202.418 106.557 195.499 106.557 188.056C106.557 185.326 107.081 183.045 108.165 181.212C109.213 179.38 110.746 177.846 112.541 176.836C114.411 175.752 116.693 175.228 119.385 175.228C122.116 175.228 124.397 175.752 126.23 176.836C128.1 177.921 129.558 179.38 130.605 181.212C131.69 183.082 132.214 185.364 132.214 188.056C132.214 191.348 131.428 194.003 129.857 196.097C128.287 198.154 126.417 199.538 124.285 200.174C126.155 202.755 129.072 204.55 133.074 205.634C137.076 206.794 141.077 207.355 145.079 207.355C150.652 207.355 155.663 205.859 160.189 202.867C164.677 199.875 168.005 195.424 170.137 189.59C172.269 183.718 173.354 177.098 173.354 169.656C173.354 161.577 172.157 154.696 169.801 148.973C167.519 143.176 164.116 138.913 159.628 136.108C155.252 133.378 150.203 131.919 145.079 131.919C141.638 131.919 137.375 133.34 132.214 136.22L122.789 140.932V136.22L165.2 79.6712H106.557V138.352C106.557 143.214 107.642 147.216 109.774 150.357C111.905 153.499 115.197 155.07 119.647 155.07C123.088 155.07 126.342 153.91 129.483 151.629C132.662 149.31 135.393 146.505 137.637 143.289C137.936 142.653 138.272 142.167 138.721 141.905C139.095 141.568 139.619 141.381 140.105 141.381C140.89 141.381 141.825 141.755 142.873 142.578C143.882 143.7 144.369 145.046 144.369 146.542C144.256 147.552 144.069 148.562 143.845 149.534C141.414 154.957 138.048 159.109 133.784 161.951C129.596 164.756 124.696 166.252 119.647 166.252C106.931 166.252 98.1421 163.746 93.2801 158.772C88.4181 153.761 85.9871 146.991 85.9871 138.427V79.7086H55.9922V68.7878H85.9871V43.9168L79.1428 37.0726V31.5H99.0771L106.557 35.3522V68.7504L184.088 68.5634L191.792 76.2678L144.256 123.803C147.136 122.644 150.166 121.933 153.27 121.671C158.394 121.671 164.191 123.317 170.623 126.608C177.131 129.825 182.105 134.238 185.621 139.885C189.137 145.458 191.381 150.806 192.353 155.967C193.438 161.128 193.961 165.691 193.961 169.693C193.961 178.819 192.016 187.346 188.164 195.2C184.312 203.054 178.44 208.888 170.586 212.778C162.732 216.555 154.242 218.5 145.117 218.5Z" fill="white"/>
</svg>
