<svg width="250" height="250" viewBox="0 0 250 250" fill="none" xmlns="http://www.w3.org/2000/svg">
<g clip-path="url(#clip0_242_94235)">
<path d="M125 249.994C194.036 249.994 250 194.03 250 124.994C250 55.9585 194.036 -0.00585938 125 -0.00585938C55.9644 -0.00585938 0 55.9585 0 124.994C0 194.03 55.9644 249.994 125 249.994Z" fill="#25AAE3"/>
<path d="M210.938 124.993C210.938 172.454 172.461 210.931 125 210.931C77.5391 210.931 39.0625 172.454 39.0625 124.993C39.0625 77.5244 77.5391 39.0557 125 39.0557C172.461 39.0557 210.938 77.5322 210.938 124.993ZM181.484 127.696C181.539 126.72 181.484 127.696 181.484 126.704C181.484 98.5244 160.664 73.4932 133.656 69.2822V52.876L116.156 58.3291V69.29C89.1641 73.4932 68.4844 96.79 68.4844 124.954C68.4844 153.782 90.125 177.532 118.047 180.931V197.087L135.547 191.634V180.337C145.202 178.47 154.202 174.115 161.658 167.702C169.113 161.29 174.765 153.042 178.055 143.774H159.922C156.534 150.112 151.488 155.411 145.324 159.105C139.16 162.8 132.108 164.751 124.922 164.751C114.87 164.744 105.193 160.933 97.835 154.084C90.4773 147.235 85.984 137.855 85.2578 127.829L181.492 127.696H181.484ZM87.8906 110.384C90.8157 102.946 95.9127 96.5619 102.518 92.0624C109.123 87.5628 116.93 85.1567 124.922 85.1572C132.91 85.1641 140.712 87.5745 147.312 92.0749C153.912 96.5753 159.006 102.958 161.93 110.392H87.8984L87.8906 110.384Z" fill="white"/>
</g>
<defs>
<clipPath id="clip0_242_94235">
<rect width="250" height="250" rx="125" fill="white"/>
</clipPath>
</defs>
</svg>
