<svg width="250" height="250" viewBox="0 0 250 250" fill="none" xmlns="http://www.w3.org/2000/svg">
<g clip-path="url(#clip0_242_94243)">
<path d="M172.1 105.002V119.884H213.161C212.817 115.709 212.178 108.98 211.245 105.002H172.1Z" fill="url(#paint0_linear_242_94243)"/>
<path d="M213.159 129.612H164.239V144.494H211.243C212.176 140.516 212.815 133.787 213.159 129.612Z" fill="url(#paint1_linear_242_94243)"/>
<path d="M38.6987 144.494H85.7026V129.612H36.7832C37.127 133.787 37.7655 140.516 38.6987 144.494Z" fill="url(#paint2_linear_242_94243)"/>
<path d="M38.6987 105.002C37.7655 108.98 37.127 115.709 36.7832 119.884H77.8441V105.002H38.6987Z" fill="url(#paint3_linear_242_94243)"/>
<path d="M124.652 122.639C122.344 131.431 119.888 140.124 117.285 148.768C114.682 157.413 111.931 166.155 109.033 174.898H88.9449C86.8329 170.036 84.6227 164.289 82.1669 157.56C79.7111 150.88 77.2062 143.562 74.603 135.654C71.9999 127.747 69.3476 119.397 66.5971 110.556C63.8466 101.715 61.2435 92.8254 58.6895 83.7881H85.9488C86.882 87.9629 87.9134 92.4816 88.994 97.3932C90.1236 102.305 91.2533 107.364 92.4812 112.57C93.7091 117.776 94.9861 122.983 96.3123 128.238C97.6384 133.493 99.0136 138.552 100.438 143.415C101.961 138.356 103.385 133.15 104.858 127.845C106.283 122.541 107.658 117.334 109.033 112.177C110.359 107.02 111.636 102.059 112.815 97.295C114.043 92.4816 115.124 88.0121 116.008 83.8863H134.721C135.654 88.0612 136.686 92.5307 137.815 97.295C138.994 102.108 140.173 107.069 141.45 112.177C142.727 117.334 144.053 122.541 145.428 127.845C146.803 133.15 148.277 138.356 149.75 143.415C151.126 138.552 152.55 133.543 153.925 128.238C155.3 122.983 156.627 117.776 157.854 112.57C159.082 107.364 160.212 102.305 161.342 97.3932C162.471 92.4816 163.454 87.9629 164.387 83.7881H191.253C188.699 92.7763 186.096 101.715 183.346 110.556C180.644 119.397 177.943 127.747 175.34 135.654C172.737 143.562 170.183 150.88 167.678 157.56C165.173 164.24 162.913 170.036 160.801 174.898H140.713C137.815 166.106 135.016 157.413 132.216 148.768C129.465 140.124 126.911 131.431 124.652 122.639Z" fill="url(#paint4_linear_242_94243)"/>
<path d="M124.996 0.0917969C56.1358 0.0917969 0.291016 55.8875 0.291016 124.748C0.291016 193.609 56.0867 249.404 124.947 249.404C193.808 249.404 249.603 193.609 249.603 124.748C249.653 55.8875 193.808 0.0917969 124.996 0.0917969ZM124.996 229.61C67.0887 229.61 20.1338 182.656 20.1338 124.748C20.1338 66.8403 67.0887 19.8855 124.996 19.8855C182.904 19.8855 229.859 66.8403 229.859 124.748C229.859 182.656 182.904 229.61 124.996 229.61Z" fill="url(#paint5_linear_242_94243)"/>
</g>
<defs>
<linearGradient id="paint0_linear_242_94243" x1="80.0474" y1="128.435" x2="166.701" y2="34.736" gradientUnits="userSpaceOnUse">
<stop stop-color="#6449DE"/>
<stop offset="0.35" stop-color="#854CD9"/>
<stop offset="0.75" stop-color="#AA48D4"/>
<stop offset="1" stop-color="#BD5AFD"/>
</linearGradient>
<linearGradient id="paint1_linear_242_94243" x1="89.6775" y1="146.866" x2="172.922" y2="56.8539" gradientUnits="userSpaceOnUse">
<stop stop-color="#6449DE"/>
<stop offset="0.35" stop-color="#854CD9"/>
<stop offset="0.75" stop-color="#AA48D4"/>
<stop offset="1" stop-color="#BD5AFD"/>
</linearGradient>
<linearGradient id="paint2_linear_242_94243" x1="21.4944" y1="141.031" x2="104.739" y2="51.0182" gradientUnits="userSpaceOnUse">
<stop stop-color="#6449DE"/>
<stop offset="0.35" stop-color="#854CD9"/>
<stop offset="0.75" stop-color="#AA48D4"/>
<stop offset="1" stop-color="#BD5AFD"/>
</linearGradient>
<linearGradient id="paint3_linear_242_94243" x1="7.62668" y1="119.637" x2="94.2803" y2="25.9382" gradientUnits="userSpaceOnUse">
<stop stop-color="#6449DE"/>
<stop offset="0.35" stop-color="#854CD9"/>
<stop offset="0.75" stop-color="#AA48D4"/>
<stop offset="1" stop-color="#BD5AFD"/>
</linearGradient>
<linearGradient id="paint4_linear_242_94243" x1="43.7938" y1="163.029" x2="160.397" y2="36.9463" gradientUnits="userSpaceOnUse">
<stop stop-color="#6449DE"/>
<stop offset="0.35" stop-color="#854CD9"/>
<stop offset="0.75" stop-color="#AA48D4"/>
<stop offset="1" stop-color="#BD5AFD"/>
</linearGradient>
<linearGradient id="paint5_linear_242_94243" x1="49.7047" y1="206.12" x2="212.648" y2="29.9292" gradientUnits="userSpaceOnUse">
<stop stop-color="#6449DE"/>
<stop offset="0.35" stop-color="#854CD9"/>
<stop offset="0.75" stop-color="#AA48D4"/>
<stop offset="1" stop-color="#BD5AFD"/>
</linearGradient>
<clipPath id="clip0_242_94243">
<rect width="250" height="250" rx="125" fill="white"/>
</clipPath>
</defs>
</svg>
