<svg width="250" height="250" viewBox="0 0 250 250" fill="none" xmlns="http://www.w3.org/2000/svg">
<g clip-path="url(#clip0_242_94772)">
<path d="M125 249.998C194.036 249.998 250 194.034 250 124.998C250 55.9625 194.036 -0.00195312 125 -0.00195312C55.9644 -0.00195312 0 55.9625 0 124.998C0 194.034 55.9644 249.998 125 249.998Z" fill="#EDF0F4"/>
<path d="M144.586 183.796L105.958 183.174V123.244L124.806 97.999L144.586 123.244V183.796Z" fill="url(#paint0_linear_242_94772)"/>
<path d="M143.163 124.023L111.881 120.44L123.857 90.6961L124.217 90.4836L176.293 60.4121L195.059 94.0501L143.163 124.023Z" fill="url(#paint1_linear_242_94772)"/>
<path d="M106.007 124.943L53.5703 94.6591L73.4323 62.1011L125.492 92.4506L137.763 120.411L106.007 124.943Z" fill="url(#paint2_linear_242_94772)"/>
<path d="M124.806 189.159C117.656 189.159 112.191 188.03 108.854 187.081C106.596 186.443 105.025 184.332 105.025 181.976L105.009 123.683C104.911 115.159 101.41 107.911 94.8979 102.708C85.9489 95.5912 72.0094 92.9897 58.5444 95.9347C56.6139 96.3602 54.6829 95.7222 53.3889 94.2332C52.0979 92.7442 51.7384 90.7482 52.4254 88.8997C53.9634 84.7767 55.9264 79.8847 58.8224 74.8782C62.4054 68.6777 66.1194 64.5217 68.6064 62.1167C70.2914 60.4807 72.9089 60.1697 74.9544 61.3477L124.151 89.7502L124.167 89.7177L125.476 90.5027V90.5192C133.002 94.6912 140.97 95.2637 148.692 92.2207C159.327 88.0322 168.538 77.2667 172.743 64.1292C173.348 62.2477 174.853 60.8897 176.8 60.5132C178.731 60.1372 180.645 60.8242 181.905 62.3457C184.703 65.7327 187.958 69.8882 190.854 74.8947C194.437 81.0952 196.188 86.3962 197.022 89.7502C197.595 92.0242 196.564 94.4457 194.519 95.6237L145.028 124.206L143.686 124.992C136.504 129.36 132.086 136.019 130.908 144.216C129.288 155.472 134.017 168.757 143.244 178.901C144.569 180.373 144.978 182.353 144.34 184.218C143.702 186.083 142.148 187.392 140.201 187.719C135.8 188.406 130.581 189.159 124.806 189.159Z" fill="#44004E"/>
</g>
<defs>
<linearGradient id="paint0_linear_242_94772" x1="160.592" y1="133.512" x2="99.804" y2="114.537" gradientUnits="userSpaceOnUse">
<stop stop-color="#44004E"/>
<stop offset="0.1" stop-color="#4C0056"/>
<stop offset="0.3" stop-color="#83008A"/>
<stop offset="0.5" stop-color="#EA00EB"/>
<stop offset="0.6" stop-color="#FF00FF"/>
<stop offset="1" stop-color="#FF00FF"/>
</linearGradient>
<linearGradient id="paint1_linear_242_94772" x1="126.985" y1="46.1457" x2="104.79" y2="123.959" gradientUnits="userSpaceOnUse">
<stop stop-color="#44004E"/>
<stop offset="0.1" stop-color="#4C0056"/>
<stop offset="0.3" stop-color="#83008A"/>
<stop offset="0.5" stop-color="#EA00EB"/>
<stop offset="0.6" stop-color="#FF00FF"/>
<stop offset="1" stop-color="#FF00FF"/>
</linearGradient>
<linearGradient id="paint2_linear_242_94772" x1="57.0063" y1="126.449" x2="138.877" y2="117.461" gradientUnits="userSpaceOnUse">
<stop stop-color="#44004E"/>
<stop offset="0.1" stop-color="#4C0056"/>
<stop offset="0.3" stop-color="#83008A"/>
<stop offset="0.5" stop-color="#EA00EB"/>
<stop offset="0.6" stop-color="#FF00FF"/>
<stop offset="1" stop-color="#FF00FF"/>
</linearGradient>
<clipPath id="clip0_242_94772">
<rect width="250" height="250" fill="white"/>
</clipPath>
</defs>
</svg>
