<svg width="250" height="250" viewBox="0 0 250 250" fill="none" xmlns="http://www.w3.org/2000/svg">
<rect width="250" height="250" rx="125" fill="white"/>
<g clip-path="url(#clip0_242_94284)">
<path d="M47.1901 207.906H113.383V238.09C88.6001 235.584 65.335 224.976 47.1899 207.911V207.906H47.1901ZM28.2051 184.692V184.686H113.394V157.695H16.1006C18.9341 167.186 23.004 176.263 28.2051 184.692ZM136.659 207.911V238.09C161.438 235.576 184.697 224.967 202.841 207.905H136.659V207.911ZM136.659 157.695V184.686H221.809C227.03 176.264 231.113 167.189 233.953 157.695H136.659Z" fill="#65C4FF"/>
<path d="M189.464 31.9272L125.024 96.209L60.5778 31.9272C79.5284 18.8725 102.006 11.9013 125.018 11.9416C148.031 11.9027 170.511 18.8739 189.464 31.9272ZM11.7473 134.484L113.383 134.49V117.439L42.8084 47.0337C20.3961 70.3826 9.08466 102.229 11.7473 134.484ZM207.217 47.0166L136.659 117.433V134.484L238.283 134.467C240.948 102.211 229.634 70.3626 207.217 47.0166Z" fill="#1866ED"/>
</g>
<defs>
<clipPath id="clip0_242_94284">
<rect width="227.302" height="227.302" fill="white" transform="translate(11.3643 11.3652)"/>
</clipPath>
</defs>
</svg>
