<svg width="250" height="250" viewBox="0 0 250 250" fill="none" xmlns="http://www.w3.org/2000/svg">
<rect width="250" height="250" rx="125" fill="white"/>
<g clip-path="url(#clip0_242_94288)">
<path d="M238.668 125.016C238.668 187.793 187.788 238.668 125.019 238.668C62.2405 238.668 11.3652 187.779 11.3652 125.016C11.3652 62.2537 62.2453 11.3652 125.019 11.3652C187.783 11.3652 238.668 62.2537 238.668 125.016Z" fill="url(#paint0_linear_242_94288)"/>
<path d="M110.641 128.722L158.521 86.1712C160.256 84.6347 161.89 83.3254 163.47 82.1162L179.482 68.9008C171.89 66.0277 159.493 64.3548 146.134 74.8879L102.487 114.089C99.6927 116.298 95.1864 118.466 91.342 118.466C89.1775 118.467 87.034 118.041 85.0339 117.213C83.0339 116.385 81.2166 115.171 79.6856 113.641C78.1547 112.111 76.9402 110.294 76.1114 108.295C75.2826 106.295 74.8558 104.152 74.8554 101.987V101.973C74.855 97.6009 76.591 93.4072 79.6818 90.3144C82.7726 87.2216 86.9651 85.4828 91.3375 85.4802C99.0033 85.4802 103.756 89.0034 107.067 96.7363L120.212 85.9303C116.107 78.2702 107.755 68.9872 91.3427 68.9872C86.1472 68.9932 81.0267 70.2268 76.3985 72.5876C71.7703 74.9483 67.7655 78.3694 64.7105 82.5718C61.6556 86.7742 59.637 91.6391 58.8192 96.7699C58.0014 101.901 58.4077 107.152 60.0049 112.096C61.6021 117.04 64.3449 121.536 68.0099 125.219C71.6749 128.901 76.1582 131.666 81.0944 133.287C86.0307 134.907 91.28 135.339 96.4146 134.546C101.549 133.752 106.424 131.757 110.641 128.722H110.641ZM138.748 121.312L90.8672 163.863C89.1322 165.4 87.4977 166.709 85.9179 167.918L69.9061 181.134C77.4943 184.007 89.89 185.68 103.249 175.147L146.883 135.946C149.682 133.737 154.188 131.568 158.032 131.568C160.197 131.568 162.34 131.995 164.34 132.823C166.34 133.651 168.157 134.866 169.687 136.396C171.218 137.927 172.432 139.744 173.26 141.744C174.088 143.744 174.514 145.887 174.514 148.052V148.061C174.514 152.434 172.778 156.627 169.688 159.72C166.597 162.813 162.405 164.552 158.032 164.554C150.371 164.554 145.618 161.031 142.303 153.298L129.163 164.104C133.267 171.764 141.619 181.047 158.032 181.047C163.228 181.043 168.349 179.812 172.979 177.452C177.609 175.093 181.615 171.673 184.672 167.471C187.728 163.269 189.749 158.404 190.568 153.273C191.387 148.142 190.982 142.89 189.386 137.945C187.789 133 185.047 128.503 181.382 124.819C177.717 121.136 173.234 118.37 168.297 116.749C163.361 115.127 158.111 114.696 152.975 115.489C147.84 116.282 142.965 118.277 138.748 121.312Z" fill="white"/>
</g>
<defs>
<linearGradient id="paint0_linear_242_94288" x1="3.31938" y1="125.016" x2="232.032" y2="125.016" gradientUnits="userSpaceOnUse">
<stop stop-color="#3C67AC"/>
<stop offset="1" stop-color="#283C77"/>
</linearGradient>
<clipPath id="clip0_242_94288">
<rect width="227.302" height="227.302" fill="white" transform="translate(11.3643 11.3652)"/>
</clipPath>
</defs>
</svg>
