<svg width="250" height="250" viewBox="0 0 250 250" fill="none" xmlns="http://www.w3.org/2000/svg">
<g clip-path="url(#clip0_242_94782)">
<path d="M125 250C194.036 250 250 194.036 250 125C250 55.9644 194.036 0 125 0C55.9644 0 0 55.9644 0 125C0 194.036 55.9644 250 125 250Z" fill="#E954DD"/>
<path d="M139.768 208.335V154.008L193.315 70.5669H158.285L125.135 126.522L91.2805 70.5669H56.25L109.854 155.438V208.335H139.768Z" fill="white"/>
<path d="M124.78 71.4825C133.013 71.4825 139.687 64.8084 139.687 56.5755C139.687 48.3425 133.013 41.6685 124.78 41.6685C116.547 41.6685 109.873 48.3425 109.873 56.5755C109.873 64.8084 116.547 71.4825 124.78 71.4825Z" fill="white"/>
</g>
<defs>
<clipPath id="clip0_242_94782">
<rect width="250" height="250" fill="white"/>
</clipPath>
</defs>
</svg>
