<svg width="250" height="250" viewBox="0 0 250 250" fill="none" xmlns="http://www.w3.org/2000/svg">
<g clip-path="url(#clip0_242_94245)">
<path d="M124.998 249.994C194.034 249.994 249.998 194.03 249.998 124.994C249.998 55.9585 194.034 -0.00585938 124.998 -0.00585938C55.9624 -0.00585938 -0.00195312 55.9585 -0.00195312 124.994C-0.00195312 194.03 55.9624 249.994 124.998 249.994Z" fill="#21A5DE"/>
<path d="M167.889 129.486C170.545 132.33 172.154 136.119 172.154 140.275C172.154 149.095 164.904 156.244 155.967 156.244C147.037 156.244 139.795 149.095 139.795 140.275C139.795 136.119 141.404 132.33 144.045 129.486C143.193 130.139 142.177 130.543 141.109 130.654C140.041 130.764 138.963 130.576 137.996 130.11C137.028 129.645 136.209 128.92 135.629 128.017C135.048 127.114 134.73 126.067 134.709 124.994C134.707 123.717 135.139 122.477 135.936 121.478C133.053 124.087 129.217 125.681 124.998 125.681C120.779 125.681 116.943 124.087 114.061 121.478C114.857 122.477 115.289 123.717 115.287 124.994C115.287 128.142 112.709 130.697 109.506 130.697C108.22 130.698 106.969 130.272 105.951 129.486C108.592 132.33 110.209 136.119 110.209 140.275C110.209 149.095 102.959 156.244 94.0293 156.244C85.0918 156.244 77.8418 149.095 77.8418 140.275C77.8418 136.119 79.459 132.33 82.0996 129.486C81.2477 130.139 80.2312 130.543 79.1633 130.654C78.0954 130.764 77.0178 130.576 76.0504 130.11C75.083 129.645 74.2636 128.92 73.6833 128.017C73.1031 127.114 72.7847 126.067 72.7637 124.994C72.7616 123.717 73.1941 122.477 73.9902 121.478C71.1074 124.087 67.2715 125.681 63.0527 125.681C54.1152 125.681 46.873 118.533 46.873 109.712C46.873 100.892 54.1152 93.7437 63.0527 93.7437C71.9902 93.7437 79.2324 100.892 79.2324 109.712C79.2341 113.719 77.712 117.576 74.9746 120.501C75.8265 119.846 76.8437 119.44 77.9128 119.328C78.982 119.217 80.061 119.404 81.0298 119.87C81.9986 120.336 82.819 121.062 83.3997 121.966C83.9803 122.871 84.2983 123.919 84.3184 124.994C84.3205 126.271 83.8879 127.511 83.0918 128.509C85.9668 125.9 89.8105 124.306 94.0293 124.306C98.248 124.306 102.076 125.9 104.967 128.509C104.168 127.512 103.733 126.272 103.732 124.994C102.947 124.389 102.33 123.594 101.939 122.683C101.548 121.773 101.396 120.777 101.499 119.792C101.602 118.806 101.955 117.863 102.526 117.053C103.096 116.242 103.864 115.591 104.757 115.162C105.65 114.733 106.639 114.539 107.628 114.6C108.617 114.66 109.574 114.973 110.408 115.508C111.242 116.044 111.925 116.784 112.392 117.658C112.859 118.532 113.095 119.511 113.076 120.501C110.34 117.575 108.818 113.719 108.818 109.712C108.818 100.892 116.061 93.7437 124.998 93.7437C133.936 93.7437 141.178 100.892 141.178 109.712C141.179 113.719 139.657 117.576 136.92 120.501C137.772 119.846 138.789 119.44 139.858 119.328C140.927 119.217 142.006 119.404 142.975 119.87C143.944 120.336 144.764 121.062 145.345 121.966C145.926 122.871 146.244 123.919 146.264 124.994C146.266 126.271 145.833 127.511 145.037 128.509C147.912 125.9 151.756 124.306 155.975 124.306C160.193 124.306 164.021 125.9 166.912 128.509C166.113 127.512 165.678 126.272 165.678 124.994C164.892 124.389 164.275 123.594 163.884 122.683C163.493 121.773 163.342 120.777 163.444 119.792C163.547 118.806 163.901 117.863 164.471 117.053C165.041 116.242 165.81 115.591 166.703 115.162C167.596 114.733 168.584 114.539 169.573 114.6C170.562 114.66 171.519 114.973 172.353 115.508C173.187 116.044 173.87 116.784 174.337 117.658C174.804 118.532 175.04 119.511 175.021 120.501C172.285 117.575 170.764 113.719 170.764 109.712C170.764 100.892 178.006 93.7437 186.943 93.7437C195.881 93.7437 203.123 100.892 203.123 109.712C203.123 118.533 195.881 125.681 186.943 125.681C182.725 125.681 178.889 124.087 176.006 121.478C176.802 122.477 177.235 123.717 177.232 124.994C177.232 128.142 174.654 130.697 171.451 130.697C170.165 130.698 168.914 130.272 167.896 129.486H167.889Z" fill="white"/>
</g>
<defs>
<clipPath id="clip0_242_94245">
<rect width="250" height="250" rx="125" fill="white"/>
</clipPath>
</defs>
</svg>
