<svg width="250" height="250" viewBox="0 0 250 250" fill="none" xmlns="http://www.w3.org/2000/svg">
<path d="M92.6998 105.9C87.8998 110.9 83.0998 115.9 78.0998 121.15C77.2498 120.35 76.4999 119.75 75.8999 119.05C70.2499 112 66.3499 104.2 65.8999 95.0502C65.4999 86.8502 67.3499 79.3001 73.1499 73.1001C78.2499 67.6001 84.7498 65.7002 91.9498 65.6502C107.05 65.6002 122.2 65.6502 137.3 65.6502C144.05 65.6502 150.8 65.6001 157.55 65.7001C163.65 65.7501 169.4 67.1001 174.3 71.1001C179.9 75.6501 183.05 81.6502 184.25 88.5502C184.85 91.9502 184.9 95.4501 184.75 98.9001C184.5 103.65 182.5 107.9 179.9 111.9C174.65 120.1 168.4 127.5 161.55 134.3C155.6 140.2 149.4 145.85 143.1 151.3C139.55 154.4 135.3 156.45 130.7 157.55C124.85 159 119.25 158.1 113.9 155.5C108.45 152.85 104.1 148.75 99.5499 144.25C104.2 139.45 108.8 134.75 113.55 129.95C114.4 130.65 115.05 131.15 115.7 131.7C116.45 132.35 117.15 133.05 117.9 133.65C123.2 137.85 127.05 137.95 132.25 133.65C135.1 131.3 137.75 128.7 140.3 126.05C146.7 119.25 152.95 112.3 159.25 105.4C161.4 103.05 163.05 100.45 164 97.3501C165.55 92.3501 162.9 87.6001 158.25 85.7001C154.45 84.1501 150.5 83.4502 146.45 83.4002C132.85 83.3002 119.25 83.3002 105.65 83.4002C101.8 83.4002 98.0499 84.2002 94.5499 85.8002C92.0499 86.9502 89.8998 88.5502 88.5998 91.1502C86.7998 94.8001 87.8998 98.1501 89.5998 101.4C90.4998 102.75 91.5998 104.15 92.6998 105.9Z" fill="#E61F1A"/>
<path d="M172.75 131.201C173.35 131.551 173.75 131.651 173.9 131.851C181.2 140.401 185.75 150.051 184.95 161.601C184.5 167.901 182.5 173.701 178.25 178.551C174.15 183.201 169 185.601 162.9 186.201C161.4 186.351 159.85 186.301 158.35 186.301C136.6 186.301 114.85 186.101 93.0998 186.401C78.4498 186.601 69.3999 176.201 66.7999 164.701C64.6999 155.451 66.2998 147.051 71.6998 139.301C73.5498 136.601 75.3998 133.901 77.4498 131.401C86.3498 120.401 96.1998 110.251 107.25 101.401C110 99.2009 113.25 97.4009 116.5 96.0009C123.6 92.9009 130.7 93.5009 137.6 97.0009C142.8 99.6509 146.9 103.701 151.45 107.901C146.75 112.751 142.25 117.501 137.55 122.351C136.75 121.751 136.2 121.301 135.6 120.851C134.15 119.701 132.7 118.551 131.25 117.451C127.75 114.901 124 114.901 120.65 117.401C117.35 119.851 114.3 122.701 111.5 125.651C104.4 133.151 97.4498 140.801 90.5998 148.501C89.1498 150.151 88.0498 152.301 87.1998 154.401C85.4498 158.751 87.0498 163.201 90.9998 165.751C93.6998 167.501 96.7998 168.251 99.9498 168.601C102.55 168.901 105.15 169.051 107.75 169.101C119.3 169.151 130.8 169.201 142.35 169.101C146.9 169.051 151.45 168.751 155.8 166.951C162.75 164.001 165.05 158.351 161.65 151.651C160.8 149.901 159.6 148.351 158.35 146.401C163.15 141.251 167.95 136.201 172.75 131.201Z" fill="#E61F1A"/>
<path d="M124.851 2.85107C57.1012 2.85107 2.20117 57.7511 2.20117 125.501C2.20117 193.251 57.1012 248.151 124.851 248.151C192.601 248.151 247.501 193.251 247.501 125.501C247.501 57.7511 192.601 2.85107 124.851 2.85107ZM124.851 229.901C67.2012 229.901 20.4512 183.151 20.4512 125.501C20.4512 67.8511 67.2012 21.1011 124.851 21.1011C182.501 21.1011 229.251 67.8511 229.251 125.501C229.251 183.151 182.501 229.901 124.851 229.901Z" fill="#E61F1A"/>
</svg>
