<svg width="250" height="250" viewBox="0 0 250 250" fill="none" xmlns="http://www.w3.org/2000/svg">
<g clip-path="url(#clip0_242_94246)">
<path d="M124.998 249.994C55.5536 249.994 -0.00195312 193.744 -0.00195312 124.994C-0.00195312 56.2441 56.248 -0.00585938 124.998 -0.00585938C193.748 -0.00585938 249.998 56.2441 249.998 124.994C249.998 193.05 195.137 249.994 124.998 249.994ZM74.3036 181.939C74.998 181.244 74.998 180.55 74.998 180.55C86.1092 161.105 97.2203 140.966 108.331 121.522C118.054 104.161 127.776 86.7997 137.498 70.133C138.192 69.4386 138.192 69.4386 138.887 69.4386H174.304C158.331 97.2164 143.054 124.994 127.081 152.772H214.581C215.276 152.772 215.97 152.077 215.97 151.383C220.137 136.105 220.831 120.133 217.359 104.855C213.192 86.1052 203.47 70.133 189.581 56.9386C183.331 50.6886 176.387 45.8275 168.748 42.3553C149.998 32.633 129.859 29.8553 109.026 33.3275C88.1925 36.7997 70.1369 47.2164 56.248 62.4941C54.1647 63.883 52.7758 65.9664 50.6925 68.0497V68.7441H132.637C131.942 69.4386 131.942 70.133 131.248 70.8275C126.387 79.8553 121.526 88.1886 116.665 97.2164C115.97 97.9108 115.276 98.6052 114.581 98.6052H36.1092C22.9147 139.577 41.6647 190.966 87.498 211.105C131.942 231.244 179.165 212.494 200.692 181.939H74.3036ZM217.359 203.466C233.331 186.105 247.22 156.939 246.526 122.216C245.831 93.7441 236.109 68.7441 217.359 46.5219L200.692 63.1886C229.859 97.9108 231.248 149.994 200.692 186.8C206.942 192.355 212.498 197.911 217.359 203.466Z" fill="#C87035"/>
</g>
<defs>
<clipPath id="clip0_242_94246">
<rect width="250" height="250" rx="125" fill="white"/>
</clipPath>
</defs>
</svg>
