<svg width="250" height="250" viewBox="0 0 250 250" fill="none" xmlns="http://www.w3.org/2000/svg">
<path d="M154.65 170.899L131.8 131.35C143.4 128.3 151.9 117.8 151.9 105.25C151.9 90.3495 139.8 78.2495 124.9 78.2495C110 78.2495 97.8996 90.3495 97.8996 105.25C97.8996 117.9 106.6 128.55 118.4 131.45L95.5996 170.899H154.65Z" fill="#009FEB"/>
<path d="M124.8 47.6035C149.85 47.6035 172.15 59.5535 186.3 78.1035L157.85 88.8535C160.35 93.8035 161.75 99.3535 161.75 105.253C161.75 117.703 155.5 129.003 145.6 135.653L150 143.303L247.75 107.703C239.3 47.3035 187.5 0.853516 124.8 0.853516C75.8996 0.853516 33.5996 29.1535 13.3496 70.2535H70.1496C84.1996 56.2535 103.5 47.6035 124.8 47.6035Z" fill="#009FEB"/>
<path d="M124.8 202.399C100.8 202.399 79.3004 191.399 65.1004 174.199L87.1504 166.199L87.2504 166.049L104.65 135.899C97.1504 130.949 91.7504 123.399 89.4504 114.649L2.65039 147.299C13.1504 205.199 63.8504 249.149 124.8 249.149C173.85 249.149 216.3 220.699 236.45 179.349H179.8C165.75 193.549 146.3 202.399 124.8 202.399Z" fill="#009FEB"/>
</svg>
