<svg width="250" height="250" viewBox="0 0 250 250" fill="none" xmlns="http://www.w3.org/2000/svg">
<path d="M248.593 125.312C248.565 192.883 193.607 246.771 124.771 246.725C56.2962 246.678 1.33922 192.338 1.37697 124.716C1.41447 57.4403 57.0932 3.26929 126.101 3.36879C193.681 3.46629 248.621 58.1595 248.593 125.312ZM221.368 123.63C220.187 97.8199 211.46 75.1917 192.619 57.086C168.053 33.478 138.493 26.6677 105.533 32.004C68.4357 38.0103 27.8167 73.7502 28.695 126.688C29.5397 177.605 71.8921 219.747 125.109 219.508C179.468 219.263 222.224 175.729 221.368 123.63Z" fill="#030302"/>
<path d="M221.362 123.631C222.224 175.728 179.469 219.262 125.109 219.507C71.8928 219.746 29.5403 177.604 28.6956 126.687C27.8174 73.749 68.4365 38.0091 105.534 32.0029C138.494 26.6665 168.053 33.4769 192.62 57.0849C211.461 75.1905 220.188 97.8188 221.362 123.631Z" fill="#DEA038"/>
<path d="M111.627 183.058C100.308 183.058 89.8874 183.058 79.369 183.058C77.2799 170.802 78.7631 160.208 87.0936 150.296C101.73 132.881 113.707 113.359 129.85 95.6225C113.581 95.6225 98.4444 95.6225 82.947 95.6225C82.947 86.0052 82.947 76.9236 82.947 67.1737C92.2095 67.1737 101.582 67.1737 111.426 67.1737C111.426 59.8457 111.426 53.1661 111.426 46.1055C120.316 46.1055 128.727 46.1055 137.783 46.1055C137.783 52.9228 137.783 59.7293 137.783 67.0616C148.623 67.0616 158.839 67.0616 169.407 67.0616C169.554 78.654 170.738 89.0746 162.402 99.1153C147.886 116.603 135.808 136.057 120.186 154.282C137.843 154.282 154.441 154.282 171.274 154.282C171.274 164.06 171.274 173.17 171.274 182.832C160.309 182.832 149.444 182.832 138.05 182.832C138.05 189.885 138.05 196.401 138.05 203.267C129.077 203.267 120.635 203.267 111.627 203.267C111.627 196.749 111.627 190.238 111.627 183.058Z" fill="#030302"/>
</svg>
