<svg width="250" height="250" viewBox="0 0 250 250" fill="none" xmlns="http://www.w3.org/2000/svg">
<rect width="250" height="250" rx="125" fill="white"/>
<g clip-path="url(#clip0_242_94285)">
<path d="M225.08 14.6262C223.625 12.821 221.512 11.6676 219.207 11.4194C216.902 11.1712 214.592 11.8487 212.786 13.3029L172.297 45.9272C157.989 37.4402 141.656 32.9725 125.021 32.9955C73.9794 32.9955 32.4554 74.2763 32.4554 125.02C32.4554 152.14 44.3176 176.556 63.1537 193.414L26.2827 223.12C24.4829 224.577 23.3344 226.688 23.0892 228.99C22.844 231.293 23.5221 233.599 24.9747 235.402C26.4274 237.205 28.5359 238.358 30.8378 238.608C33.1396 238.859 35.4468 238.186 37.2533 236.738L77.7447 204.112C92.0522 212.6 108.385 217.068 125.021 217.045C176.062 217.045 217.588 175.761 217.588 125.019C217.588 97.8987 205.725 73.4826 186.888 56.6258L223.757 26.9201C225.562 25.465 226.716 23.3525 226.964 21.0472C227.212 18.7418 226.534 16.4322 225.08 14.6262ZM157.522 57.8319L96.0509 107.362V56.2546C105.835 52.1923 116.364 50.2334 126.954 50.5051C137.545 50.7768 147.959 53.2731 157.522 57.8319ZM92.5193 192.207L153.991 142.678V193.785C144.207 197.848 133.678 199.807 123.087 199.535C112.497 199.263 102.082 196.767 92.5193 192.207ZM200.104 125.02C200.104 148.724 188.9 169.877 171.475 183.54V124.408C171.475 122.758 171.009 121.142 170.13 119.747C169.25 118.351 167.994 117.233 166.506 116.521C165.019 115.809 163.36 115.533 161.721 115.723C160.083 115.914 158.532 116.564 157.248 117.599L76.9894 182.265C60.4704 168.581 49.9404 147.998 49.9404 125.019C49.9404 101.316 61.143 80.163 78.5666 66.5012V125.634C78.5665 127.283 79.0331 128.899 79.9124 130.294C80.7917 131.69 82.0479 132.808 83.5358 133.52C85.0238 134.232 86.6827 134.508 88.321 134.317C89.9593 134.126 91.5102 133.475 92.7944 132.44L173.052 67.7737C189.572 81.4577 200.104 102.04 200.104 125.02Z" fill="#1841C3"/>
</g>
<defs>
<clipPath id="clip0_242_94285">
<rect width="227.302" height="227.302" fill="white" transform="translate(11.3662 11.3652)"/>
</clipPath>
</defs>
</svg>
