<svg width="250" height="250" viewBox="0 0 250 250" fill="none" xmlns="http://www.w3.org/2000/svg">
<rect width="250" height="250" rx="125" fill="white"/>
<path d="M209.926 64.2178L192.841 90.6953C198.068 100.98 201.043 112.668 201.043 124.993C201.043 166.94 167.001 200.983 125.053 200.983C112.728 200.983 101.083 198.05 90.7983 192.823L64.3633 209.908C81.4908 222.148 102.401 229.415 125.096 229.415C182.768 229.415 229.476 182.665 229.476 125.035C229.433 102.34 222.208 81.3453 209.926 64.2178Z" fill="url(#paint0_radial_242_94008)"/>
<path d="M125.052 177.269C150.765 177.269 172.142 158.781 176.605 134.386C168.487 132.644 160.03 131.709 151.36 131.709C125.307 131.709 101.21 140.039 81.5322 154.149C90.9672 168.089 106.947 177.269 125.052 177.269Z" fill="url(#paint1_radial_242_94008)"/>
<path d="M150.893 122.189C160.03 122.189 168.913 123.167 177.498 125.037C177.498 96.0518 154.038 72.5918 125.053 72.5918C96.0679 72.5918 72.6079 96.0518 72.6079 125.037C72.6079 127.417 72.7779 129.754 73.0754 132.049C59.8579 142.079 53.6104 150.027 53.3979 150.282C50.5929 142.377 49.0629 133.877 49.0629 125.037C49.0629 83.0893 83.1054 49.0468 125.053 49.0468C137.335 49.0468 148.938 51.9793 159.223 57.1643L185.7 40.0368C168.573 27.7968 147.663 20.6143 125.053 20.6143C67.3804 20.6143 20.6729 67.3643 20.6729 124.994C20.6729 148.199 28.2804 169.619 41.0729 186.959C46.0029 178.034 52.0379 169.747 58.9229 162.309C58.9229 162.309 69.2079 151.557 77.1129 146.159C97.8104 131.072 123.31 122.189 150.893 122.189Z" fill="black"/>
<defs>
<radialGradient id="paint0_radial_242_94008" cx="0" cy="0" r="1" gradientUnits="userSpaceOnUse" gradientTransform="translate(209.933 64.1158) scale(175.647 175.647)">
<stop offset="0.0986" stop-color="#26DB8D"/>
<stop offset="0.2628" stop-color="#23D29A"/>
<stop offset="0.5637" stop-color="#1ABBBB"/>
<stop offset="0.886" stop-color="#0E9DE5"/>
</radialGradient>
<radialGradient id="paint1_radial_242_94008" cx="0" cy="0" r="1" gradientUnits="userSpaceOnUse" gradientTransform="translate(209.932 64.117) scale(175.647 175.647)">
<stop offset="0.0986" stop-color="#26DB8D"/>
<stop offset="0.2628" stop-color="#23D29A"/>
<stop offset="0.5637" stop-color="#1ABBBB"/>
<stop offset="0.886" stop-color="#0E9DE5"/>
</radialGradient>
</defs>
</svg>
