<svg width="250" height="250" viewBox="0 0 250 250" fill="none" xmlns="http://www.w3.org/2000/svg">
<g clip-path="url(#clip0_725_4140)">
<path d="M125 250C194.035 250 250 194.035 250 125C250 55.9646 194.035 0 125 0C55.9646 0 0 55.9646 0 125C0 194.035 55.9646 250 125 250Z" fill="#064B38"/>
<path d="M170.386 160.755V182.656H80.0209C81.2675 168.242 85.9195 158.1 102.007 143.839L170.386 85.5144V136.695H195V42.5342H55.0271V89.4703H79.6326V67.1447H153.991L85.9465 125.198L85.784 125.352C57.2673 150.594 55 170.969 55 194.975V207.275H194.991V160.764H170.376L170.386 160.755Z" fill="white"/>
</g>
<defs>
<clipPath id="clip0_725_4140">
<rect width="250" height="250" rx="125" fill="white"/>
</clipPath>
</defs>
</svg>
