<svg width="250" height="250" viewBox="0 0 250 250" fill="none" xmlns="http://www.w3.org/2000/svg">
<path d="M171 120.044L85.921 161.975L171 202.402V235L47.0883 176.129L47 144.017L133.226 101.556L47.0883 60.5981V28L171 86.9154V120.044Z" fill="url(#paint0_linear_242_94009)"/>
<path d="M47 28.2353L79.6062 15L203 73.7206L170.394 87L47 28.2353Z" fill="url(#paint1_linear_242_94009)"/>
<path d="M171 120L203 106.813V74L171 87.1867V120Z" fill="url(#paint2_linear_242_94009)"/>
<path d="M171 202.354V137.105L203 122V221.667L171 235V202.354Z" fill="url(#paint3_linear_242_94009)"/>
<defs>
<linearGradient id="paint0_linear_242_94009" x1="171.065" y1="236.259" x2="67.2713" y2="61.7967" gradientUnits="userSpaceOnUse">
<stop stop-color="#05707E"/>
<stop offset="0.52" stop-color="#2B9297"/>
<stop offset="1" stop-color="#4DBBBA"/>
</linearGradient>
<linearGradient id="paint1_linear_242_94009" x1="53.1012" y1="25.1179" x2="200.05" y2="77.5924" gradientUnits="userSpaceOnUse">
<stop stop-color="#05707E"/>
<stop offset="0.52" stop-color="#2B9297"/>
<stop offset="1" stop-color="#4DBBBA"/>
</linearGradient>
<linearGradient id="paint2_linear_242_94009" x1="170.98" y1="96.9961" x2="202.979" y2="96.9961" gradientUnits="userSpaceOnUse">
<stop stop-color="#05707E"/>
<stop offset="0.52" stop-color="#2B9297"/>
<stop offset="1" stop-color="#4DBBBA"/>
</linearGradient>
<linearGradient id="paint3_linear_242_94009" x1="186.583" y1="114.879" x2="187.371" y2="234.693" gradientUnits="userSpaceOnUse">
<stop stop-color="#05707E"/>
<stop offset="0.52" stop-color="#2B9297"/>
<stop offset="1" stop-color="#4DBBBA"/>
</linearGradient>
</defs>
</svg>
