<svg width="250" height="250" viewBox="0 0 250 250" fill="none" xmlns="http://www.w3.org/2000/svg">
<path d="M126.07 180.593H235.57C240.576 180.593 244.399 172.296 235.57 168.704C227.157 165.297 148.966 133.293 141.226 130.095C132.42 140.732 125.212 149.516 123.938 151.346C120.554 156.352 109.129 170.257 126.07 180.593Z" fill="url(#paint0_linear_242_94249)"/>
<path d="M14.9487 77C13.399 77.1746 11.9623 77.8957 10.8963 79.034C9.83023 80.1722 9.20468 81.653 9.13184 83.2108L9.13184 82.0984C9.29355 83.766 9.92636 85.3531 10.9564 86.6744C11.9863 87.9958 13.371 88.9968 14.9487 89.5606C24.4039 93.3381 104.588 125.875 104.588 125.875V127.103C115.92 114.079 126.164 100.986 128.782 97.8571V99.1781C141.227 84.7635 117.589 77 117.589 77H14.9487Z" fill="url(#paint1_linear_242_94249)"/>
<path d="M171.793 77H116.777C116.777 77 140.276 83.767 127.947 98.367L103.845 126.872C88.2952 145.203 70.6825 165.875 67.9479 169.026C63.313 174.38 65.6305 180.614 73.533 180.614H127.321C110.357 170.162 120.624 156.605 124.146 151.506C125.421 149.699 132.605 140.985 141.411 130.417C157.054 111.646 177.842 87.0809 179.742 84.7635C182.685 81.1946 177.981 77 171.793 77Z" fill="#007AFF"/>
<path opacity="0.3" d="M120.907 77H116.782C116.782 77 140.281 83.767 127.952 98.367L103.851 126.872C93.4838 139.092 101.309 156.999 127.326 180.59C110.316 170.162 120.559 156.535 124.082 151.506C125.357 149.699 132.541 140.985 141.347 130.417C157.059 111.646 177.847 87.0809 179.747 84.7635C182.69 81.1946 177.986 77 171.798 77H120.814H120.907Z" fill="url(#paint2_linear_242_94249)"/>
<g opacity="0.84">
<path opacity="0.84" d="M120.898 77H116.773C116.773 77 140.272 83.767 127.943 98.367L103.841 126.872C88.2913 145.203 70.6786 165.875 67.944 169.026C63.3091 174.38 65.6266 180.614 73.5291 180.614H127.317C110.307 170.185 120.55 156.558 124.073 151.529C125.347 149.722 132.532 141.008 141.338 130.441C157.05 111.646 177.838 87.0809 179.738 84.7635C182.681 81.1946 177.977 77 171.789 77H120.805H120.898Z" fill="#007AFF"/>
<path opacity="0.84" d="M120.898 77H116.773C116.773 77 140.272 83.767 127.943 98.367L103.841 126.872C88.2913 145.203 70.6786 165.875 67.944 169.026C63.3091 174.38 65.6266 180.614 73.5291 180.614H127.317C110.307 170.185 120.55 156.558 124.073 151.529C125.347 149.722 132.532 141.008 141.338 130.441C157.05 111.646 177.838 87.0809 179.738 84.7635C182.681 81.1946 177.977 77 171.789 77H120.805H120.898Z" fill="url(#paint3_linear_242_94249)"/>
</g>
<path opacity="0.45" d="M116.777 77C116.777 77 140.276 83.767 127.947 98.367L103.845 126.872C88.2952 145.203 70.6825 165.875 67.9479 169.026C63.313 174.38 65.6305 180.614 73.533 180.614H127.321C110.311 170.185 120.554 156.558 124.077 151.529C125.351 149.722 132.536 141.008 141.342 130.441C147.576 122.955 144.934 102.376 137.866 91.0438C134.729 86.0381 127.7 81.3568 116.777 77Z" fill="#B8CFFF" fill-opacity="0.5"/>
<path d="M116.776 77C116.776 77 140.276 83.767 127.947 98.367L103.845 126.872C87.3293 146.385 95.1546 164.291 127.321 180.59C110.311 170.162 120.554 156.535 124.076 151.506C125.351 149.699 132.721 140.776 141.342 130.417C159.804 108.293 151.616 90.4876 116.776 77Z" fill="url(#paint4_linear_242_94249)"/>
<defs>
<linearGradient id="paint0_linear_242_94249" x1="100.736" y1="149.598" x2="144.73" y2="196.621" gradientUnits="userSpaceOnUse">
<stop stop-color="#878A96"/>
<stop offset="1" stop-color="#DADDE6"/>
</linearGradient>
<linearGradient id="paint1_linear_242_94249" x1="-1.24847e+07" y1="-910727" x2="-1.2485e+07" y2="-911763" gradientUnits="userSpaceOnUse">
<stop stop-color="#878A96"/>
<stop offset="1" stop-color="#DADDE6"/>
</linearGradient>
<linearGradient id="paint2_linear_242_94249" x1="182.125" y1="134.744" x2="100.603" y2="127.073" gradientUnits="userSpaceOnUse">
<stop stop-color="white"/>
<stop offset="1" stop-color="#2B72FF"/>
</linearGradient>
<linearGradient id="paint3_linear_242_94249" x1="124.091" y1="80.9826" x2="124.091" y2="184.37" gradientUnits="userSpaceOnUse">
<stop stop-color="white" stop-opacity="0.5"/>
<stop offset="1" stop-opacity="0.5"/>
</linearGradient>
<linearGradient id="paint4_linear_242_94249" x1="120.054" y1="184.37" x2="135.269" y2="82.5956" gradientUnits="userSpaceOnUse">
<stop stop-color="#74ABE9"/>
<stop offset="1" stop-color="#2C5C96"/>
</linearGradient>
</defs>
</svg>
