<svg width="250" height="250" viewBox="0 0 250 250" fill="none" xmlns="http://www.w3.org/2000/svg">
<rect width="250" height="250" rx="125" fill="white"/>
<path d="M125.6 169.401C151.107 169.401 171.784 148.724 171.784 123.217C171.784 97.7101 151.107 77.0327 125.6 77.0327C100.093 77.0327 79.416 97.7101 79.416 123.217C79.416 148.724 100.093 169.401 125.6 169.401Z" fill="#7300BE"/>
<path d="M126.162 130.36C130.701 130.36 134.381 126.68 134.381 122.141C134.381 117.602 130.701 113.922 126.162 113.922C121.623 113.922 117.943 117.602 117.943 122.141C117.943 126.68 121.623 130.36 126.162 130.36Z" fill="white"/>
<path d="M169.403 184.251C175.412 184.251 180.284 179.38 180.284 173.371C180.284 167.362 175.412 162.49 169.403 162.49C163.394 162.49 158.522 167.362 158.522 173.371C158.522 179.38 163.394 184.251 169.403 184.251Z" fill="#7300BE"/>
<path d="M183.461 50.2731C192.41 50.2731 199.665 43.0182 199.665 34.0689C199.665 25.1196 192.41 17.8647 183.461 17.8647C174.512 17.8647 167.257 25.1196 167.257 34.0689C167.257 43.0182 174.512 50.2731 183.461 50.2731Z" fill="#7300BE"/>
<path d="M144.935 133.488C143.301 132.134 140.826 132.414 139.425 134.002C136.063 137.737 131.253 139.886 126.209 139.886C122.66 139.886 119.298 138.858 116.45 136.99L120.839 132.694C118.411 131.48 116.45 129.425 115.376 126.95L107.764 134.422L107.39 134.842C106.083 136.196 106.129 138.344 107.437 139.745L107.717 140.026C112.62 145.116 119.158 147.918 126.209 147.918C133.541 147.918 140.546 144.789 145.402 139.278C146.897 137.504 146.663 134.889 144.935 133.488Z" fill="white"/>
<path d="M114.209 108.974C117.478 105.986 121.727 104.351 126.164 104.351C129.526 104.351 132.795 105.285 135.55 107.013L130.74 111.729C133.215 112.85 135.223 114.811 136.391 117.286L144.609 109.254C146.01 107.853 146.01 105.612 144.656 104.211C140.22 99.7747 134.429 96.9261 128.172 96.4592C120.98 95.8988 114.022 98.3271 108.792 103.184C107.158 104.725 107.064 107.34 108.699 108.927C110.193 110.469 112.668 110.422 114.209 108.974Z" fill="white"/>
<path d="M125.509 193.776C124.248 193.776 123.221 192.748 123.268 191.488C123.268 190.227 124.295 189.199 125.556 189.246C126.817 189.246 127.844 190.274 127.797 191.534C127.75 192.795 126.77 193.776 125.509 193.776ZM133.915 191.067C133.728 189.853 134.568 188.686 135.783 188.499C137.043 188.312 138.164 189.153 138.351 190.367C138.538 191.628 137.697 192.748 136.436 192.935C136.343 192.935 136.203 192.982 136.109 192.982C135.035 192.982 134.101 192.188 133.915 191.067ZM114.488 192.935C113.274 192.748 112.387 191.581 112.62 190.32C112.807 189.106 113.975 188.219 115.235 188.452C116.45 188.639 117.337 189.807 117.103 191.067C116.917 192.188 115.936 192.982 114.862 192.982C114.722 192.935 114.628 192.935 114.488 192.935ZM144.375 188.966C144.001 187.752 144.655 186.491 145.823 186.117C146.99 185.744 148.298 186.398 148.671 187.565C149.045 188.732 148.391 190.04 147.224 190.414C146.99 190.507 146.757 190.507 146.523 190.507C145.589 190.507 144.702 189.9 144.375 188.966ZM103.794 190.32C102.627 189.947 101.973 188.639 102.347 187.472C102.72 186.257 104.028 185.65 105.195 186.024C106.363 186.398 107.017 187.705 106.643 188.873C106.316 189.853 105.429 190.414 104.495 190.414C104.261 190.46 104.028 190.414 103.794 190.32ZM154.415 185.183C153.855 184.063 154.275 182.708 155.396 182.148C156.516 181.588 157.871 182.008 158.431 183.129C158.991 184.249 158.571 185.604 157.45 186.164C157.123 186.351 156.75 186.398 156.423 186.398C155.582 186.444 154.789 185.977 154.415 185.183ZM93.5677 186.117C92.4469 185.557 92.0266 184.156 92.587 183.082C93.1474 181.961 94.5016 181.541 95.6224 182.101C96.7431 182.662 97.1634 184.016 96.603 185.137C96.1827 185.931 95.3889 186.351 94.595 186.351C94.2681 186.351 93.9412 186.257 93.5677 186.117ZM163.708 179.953C162.961 178.926 163.194 177.525 164.222 176.778C165.249 176.031 166.65 176.264 167.397 177.291C168.144 178.319 167.911 179.72 166.883 180.467C166.463 180.747 165.996 180.887 165.529 180.887C164.829 180.887 164.128 180.56 163.708 179.953ZM84.1814 180.327C83.154 179.58 82.9672 178.179 83.6677 177.151C84.4149 176.124 85.8158 175.937 86.8432 176.638C87.8705 177.385 88.0573 178.786 87.3568 179.813C86.9366 180.42 86.2361 180.747 85.5356 180.747C85.0686 180.747 84.6017 180.607 84.1814 180.327ZM172.067 173.275C171.18 172.388 171.18 170.941 172.067 170.053C172.954 169.166 174.402 169.166 175.289 170.053C176.176 170.941 176.176 172.388 175.289 173.275C174.869 173.696 174.262 173.929 173.701 173.929C173.094 173.929 172.487 173.742 172.067 173.275ZM75.8225 173.135C74.9352 172.248 74.9352 170.8 75.8225 169.913C76.7097 169.026 78.1574 169.026 79.0446 169.913C79.9319 170.8 79.9319 172.248 79.0446 173.135C78.6243 173.556 78.0173 173.789 77.4569 173.789C76.8498 173.789 76.2427 173.602 75.8225 173.135ZM179.258 165.43C178.231 164.683 178.044 163.282 178.745 162.255C179.492 161.227 180.893 161.041 181.92 161.741C182.947 162.488 183.134 163.889 182.434 164.917C182.013 165.524 181.313 165.851 180.612 165.851C180.146 165.851 179.679 165.71 179.258 165.43ZM68.6777 164.73C67.9305 163.702 68.164 162.301 69.1914 161.554C70.2187 160.807 71.6196 161.041 72.3668 162.068C73.114 163.095 72.8805 164.496 71.8531 165.243C71.4329 165.524 70.9659 165.664 70.4989 165.664C69.7984 165.664 69.098 165.337 68.6777 164.73ZM185.189 156.511C184.068 155.951 183.648 154.55 184.208 153.476C184.769 152.355 186.17 151.935 187.244 152.495C188.364 153.055 188.785 154.456 188.224 155.53C187.804 156.324 187.01 156.744 186.216 156.744C185.843 156.744 185.516 156.698 185.189 156.511ZM62.8871 155.343C62.3268 154.223 62.7471 152.868 63.8678 152.308C64.9885 151.748 66.3428 152.168 66.9032 153.289C67.4635 154.41 67.0433 155.764 65.9225 156.324C65.5956 156.511 65.222 156.558 64.8952 156.558C64.1013 156.558 63.3074 156.091 62.8871 155.343ZM189.625 146.798C188.458 146.424 187.804 145.117 188.178 143.949C188.551 142.782 189.859 142.128 191.026 142.502C192.194 142.875 192.847 144.183 192.474 145.35C192.147 146.331 191.26 146.891 190.326 146.891C190.092 146.891 189.859 146.891 189.625 146.798ZM58.6843 145.117C58.3108 143.949 58.9645 142.642 60.132 142.268C61.2994 141.894 62.607 142.548 62.9805 143.716C63.3541 144.883 62.7004 146.191 61.5329 146.564C61.2994 146.658 61.0659 146.658 60.8324 146.658C59.8985 146.704 59.0112 146.097 58.6843 145.117ZM192.474 136.478C191.26 136.291 190.372 135.123 190.606 133.862C190.793 132.648 191.96 131.761 193.221 131.995C194.435 132.181 195.322 133.349 195.089 134.61C194.902 135.73 193.968 136.524 192.847 136.524C192.707 136.524 192.567 136.524 192.474 136.478ZM56.116 134.376C55.9292 133.115 56.7697 131.995 57.9839 131.808C59.2447 131.621 60.3655 132.461 60.5523 133.676C60.739 134.936 59.8985 136.057 58.6843 136.244C58.5442 136.244 58.4508 136.291 58.3108 136.291C57.2834 136.291 56.3027 135.497 56.116 134.376ZM193.688 125.877C192.427 125.877 191.446 124.85 191.446 123.589V123.542C191.446 123.542 191.446 123.495 191.446 123.449C191.446 122.188 192.474 121.161 193.735 121.161C194.995 121.161 196.023 122.188 196.023 123.449C196.023 123.449 196.023 123.496 196.023 123.542C196.023 123.542 196.023 123.589 196.023 123.636C195.929 124.85 194.949 125.877 193.688 125.877ZM55.2754 123.402C55.2754 122.141 56.3027 121.161 57.5636 121.161C58.8244 121.161 59.8518 122.188 59.8518 123.449C59.8518 124.71 58.8244 125.737 57.5636 125.737C56.3027 125.644 55.2754 124.663 55.2754 123.402ZM190.606 113.175C190.419 111.914 191.26 110.794 192.474 110.56C193.688 110.373 194.855 111.214 195.042 112.475C195.229 113.689 194.388 114.856 193.174 115.043C193.034 115.043 192.941 115.09 192.801 115.09C191.727 115.09 190.793 114.296 190.606 113.175ZM58.0306 114.996C56.7697 114.81 55.9292 113.642 56.1627 112.381C56.3494 111.167 57.5169 110.28 58.7777 110.513C59.9919 110.7 60.8324 111.868 60.6456 113.082C60.4589 114.203 59.5249 114.996 58.4042 114.996C58.2641 114.996 58.1707 114.996 58.0306 114.996ZM188.224 103.135C187.851 101.968 188.504 100.66 189.672 100.287C190.839 99.9131 192.147 100.567 192.52 101.734C192.894 102.902 192.24 104.209 191.073 104.583C190.839 104.676 190.606 104.676 190.372 104.676C189.392 104.723 188.504 104.116 188.224 103.135ZM60.1787 104.536C59.0112 104.163 58.3575 102.855 58.731 101.688C59.1046 100.52 60.4122 99.8664 61.5796 100.24C62.7471 100.614 63.4008 101.921 63.0272 103.089C62.7004 104.069 61.8131 104.676 60.8791 104.676C60.6456 104.63 60.4122 104.583 60.1787 104.536ZM184.255 93.6088C183.695 92.4881 184.115 91.1339 185.236 90.5735C186.356 90.0131 187.711 90.4334 188.271 91.5541C188.831 92.6749 188.411 94.0291 187.29 94.5895C186.963 94.7763 186.59 94.823 186.263 94.823C185.469 94.823 184.675 94.4027 184.255 93.6088ZM63.9612 94.5428C62.8404 93.9824 62.4202 92.6282 62.9805 91.5074C63.5409 90.3867 64.9419 89.9664 66.0159 90.5268C67.1367 91.0872 67.5569 92.4881 66.9966 93.5621C66.623 94.356 65.7824 94.7763 64.9886 94.7763C64.615 94.7763 64.2881 94.6829 63.9612 94.5428ZM178.838 84.7829C178.091 83.7556 178.324 82.3546 179.352 81.6075C180.379 80.8603 181.78 81.0938 182.527 82.1212C183.274 83.1485 183.041 84.5494 182.013 85.2966C181.593 85.5768 181.126 85.7169 180.659 85.7169C180.005 85.7169 179.305 85.39 178.838 84.7829ZM69.2381 85.2499C68.2107 84.5028 68.0239 83.1018 68.7244 82.0745C69.4715 81.0471 70.8725 80.8603 71.8998 81.5608C72.9272 82.3079 73.114 83.7089 72.4135 84.7362C71.9932 85.3433 71.2928 85.6702 70.5923 85.6702C70.1253 85.6702 69.6583 85.5301 69.2381 85.2499ZM172.16 76.9377C171.273 76.0504 171.273 74.6028 172.16 73.7155C173.047 72.8283 174.495 72.8283 175.382 73.7155C176.27 74.6028 176.27 76.0504 175.382 76.9377C174.962 77.358 174.355 77.5915 173.795 77.5915C173.188 77.6382 172.58 77.4047 172.16 76.9377ZM75.9159 76.891C75.0286 76.0037 75.0286 74.5561 75.9159 73.6688C76.8031 72.7816 78.2507 72.7816 79.138 73.6688C80.0253 74.5561 80.0253 76.0037 79.138 76.891C78.7177 77.3113 78.1107 77.5448 77.5503 77.5448C76.9432 77.5915 76.3361 77.358 75.9159 76.891ZM164.315 70.2599C163.288 69.5127 163.101 68.1118 163.801 67.0844C164.548 66.0571 165.949 65.8703 166.977 66.5708C168.004 67.3179 168.191 68.7189 167.49 69.7462C167.07 70.3533 166.37 70.6802 165.669 70.6802C165.155 70.6802 164.689 70.5401 164.315 70.2599ZM83.8078 69.6995C83.0606 68.6722 83.2941 67.2712 84.3215 66.5241C85.3488 65.7769 86.7498 66.0104 87.4969 67.0377C88.2441 68.0651 88.0106 69.466 86.9832 70.2132C86.563 70.4934 86.096 70.6335 85.629 70.6335C84.9285 70.6335 84.2281 70.3066 83.8078 69.6995ZM155.489 64.8429C154.368 64.2826 153.948 62.9283 154.508 61.8076C155.069 60.6868 156.423 60.2665 157.544 60.8269C158.664 61.3873 159.085 62.7415 158.524 63.8623C158.104 64.6561 157.31 65.0764 156.516 65.0764C156.189 65.0764 155.816 64.983 155.489 64.8429ZM92.7271 63.8156C92.1667 62.6948 92.587 61.3406 93.7077 60.7802C94.8285 60.2198 96.1827 60.6401 96.7431 61.7609C97.3035 62.8816 96.8832 64.2359 95.7625 64.7962C95.4356 64.983 95.062 65.0297 94.7351 65.0297C93.9412 65.0764 93.1474 64.6094 92.7271 63.8156ZM145.963 60.8736C144.795 60.5 144.141 59.1925 144.515 58.025C144.889 56.8576 146.196 56.2038 147.364 56.5774C148.578 56.951 149.185 58.2585 148.811 59.426C148.484 60.4066 147.597 61.0137 146.663 61.0137C146.43 61.0137 146.196 60.967 145.963 60.8736ZM102.44 59.3793C102.067 58.2118 102.72 56.9043 103.888 56.5307C105.055 56.1571 106.363 56.8109 106.736 57.9783C107.11 59.1925 106.456 60.4533 105.289 60.8269C105.055 60.9203 104.822 60.9203 104.588 60.9203C103.654 60.967 102.767 60.3599 102.44 59.3793ZM135.923 58.492C134.708 58.3052 133.821 57.1378 134.055 55.8769C134.241 54.6628 135.409 53.7755 136.623 54.009C137.837 54.1958 138.724 55.3633 138.491 56.5774C138.304 57.6982 137.37 58.492 136.25 58.492C136.203 58.492 136.063 58.492 135.923 58.492ZM112.76 56.5774C112.574 55.3166 113.414 54.1958 114.675 53.9623C115.889 53.7755 117.057 54.6161 117.243 55.8302C117.43 57.0444 116.59 58.2118 115.329 58.3986C115.189 58.3986 115.095 58.4453 114.955 58.4453C113.881 58.492 112.947 57.6982 112.76 56.5774ZM123.408 55.41C123.408 54.1491 124.435 53.1685 125.696 53.1685C126.957 53.1685 127.984 54.1958 127.984 55.4567C127.984 56.7175 126.957 57.7448 125.696 57.7448C124.388 57.6515 123.361 56.6708 123.408 55.41Z" fill="#7300BE"/>
<path d="M128.311 231.323C128.265 230.062 129.245 228.988 130.459 228.941C131.72 228.894 132.794 229.828 132.841 231.089C132.888 232.35 131.907 233.424 130.693 233.471C130.646 233.471 130.646 233.471 130.6 233.471C129.339 233.471 128.358 232.537 128.311 231.323ZM120.186 233.471C118.925 233.424 117.991 232.35 118.038 231.089C118.084 229.828 119.159 228.894 120.419 228.941C121.68 228.988 122.614 230.062 122.567 231.323C122.521 232.537 121.493 233.471 120.326 233.471C120.279 233.471 120.233 233.471 120.186 233.471ZM138.538 230.575C138.351 229.315 139.239 228.194 140.453 228.007C141.714 227.82 142.834 228.707 143.021 229.922C143.208 231.182 142.321 232.303 141.107 232.49C141.013 232.49 140.873 232.49 140.78 232.49C139.659 232.537 138.678 231.696 138.538 230.575ZM109.772 232.443C108.558 232.257 107.671 231.136 107.858 229.875C108.044 228.614 109.212 227.774 110.426 227.96C111.687 228.147 112.527 229.268 112.341 230.529C112.201 231.649 111.22 232.49 110.099 232.49C109.959 232.49 109.866 232.49 109.772 232.443ZM148.672 228.894C148.391 227.68 149.139 226.466 150.353 226.139C151.567 225.859 152.781 226.606 153.061 227.82C153.341 229.034 152.594 230.249 151.38 230.575C151.193 230.622 151.006 230.622 150.866 230.622C149.839 230.622 148.905 229.922 148.672 228.894ZM99.452 230.482C98.2379 230.202 97.4907 228.941 97.7709 227.727C98.0511 226.513 99.312 225.766 100.526 226.046C101.74 226.326 102.487 227.587 102.207 228.801C101.974 229.828 101.04 230.529 100.012 230.529C99.8256 230.529 99.6388 230.529 99.452 230.482ZM158.572 226.233C158.151 225.065 158.805 223.758 159.972 223.337C161.14 222.917 162.447 223.571 162.868 224.738C163.288 225.906 162.634 227.213 161.467 227.633C161.233 227.727 160.953 227.774 160.72 227.774C159.786 227.774 158.898 227.166 158.572 226.233ZM89.412 227.493C88.2446 227.073 87.5908 225.812 88.0111 224.598C88.4313 223.431 89.6922 222.777 90.9063 223.197C92.0738 223.617 92.7275 224.925 92.3073 226.092C91.9804 227.026 91.0931 227.633 90.1592 227.633C89.9257 227.633 89.6455 227.587 89.412 227.493ZM168.191 222.637C167.678 221.516 168.191 220.162 169.312 219.648C170.433 219.134 171.787 219.648 172.301 220.769C172.814 221.89 172.301 223.244 171.18 223.758C170.853 223.898 170.573 223.944 170.246 223.944C169.405 223.944 168.565 223.477 168.191 222.637ZM79.6988 223.571C78.5781 223.057 78.0644 221.703 78.5781 220.582C79.0918 219.461 80.446 218.948 81.5667 219.461C82.6875 219.975 83.2012 221.329 82.6875 222.45C82.3139 223.291 81.4734 223.758 80.6328 223.758C80.3526 223.804 80.0257 223.758 79.6988 223.571ZM177.391 218.107C176.784 217.033 177.157 215.632 178.231 215.025C179.305 214.418 180.706 214.792 181.313 215.866C181.92 216.94 181.547 218.341 180.473 218.948C180.099 219.134 179.726 219.228 179.352 219.228C178.605 219.275 177.811 218.854 177.391 218.107ZM70.406 218.761C69.3319 218.154 68.9583 216.753 69.5654 215.679C70.1725 214.605 71.5734 214.231 72.6475 214.838C73.7215 215.445 74.0951 216.846 73.488 217.92C73.0677 218.667 72.3206 219.041 71.5267 219.041C71.1531 219.088 70.7795 218.994 70.406 218.761ZM186.17 212.784C185.423 211.756 185.703 210.355 186.684 209.608C187.711 208.861 189.112 209.141 189.859 210.122C190.606 211.149 190.326 212.55 189.345 213.297C188.972 213.577 188.505 213.717 188.038 213.717C187.291 213.717 186.59 213.391 186.17 212.784ZM61.5801 213.064C60.5527 212.317 60.3192 210.916 61.0664 209.888C61.8135 208.861 63.2145 208.627 64.2418 209.375C65.2692 210.122 65.5027 211.523 64.7555 212.55C64.3352 213.157 63.6348 213.484 62.8876 213.484C62.4673 213.531 62.0003 213.391 61.5801 213.064ZM194.389 206.619C193.595 205.685 193.688 204.238 194.622 203.444C195.556 202.603 197.004 202.743 197.798 203.677C198.592 204.611 198.498 206.059 197.564 206.853C197.144 207.226 196.63 207.413 196.07 207.413C195.463 207.367 194.809 207.133 194.389 206.619ZM53.3612 206.573C52.4273 205.732 52.3339 204.331 53.1277 203.397C53.9683 202.463 55.3692 202.37 56.3032 203.164C57.2372 203.958 57.3306 205.405 56.5367 206.339C56.0697 206.853 55.4626 207.133 54.8089 207.133C54.3419 207.133 53.8282 206.946 53.3612 206.573ZM201.954 199.708C201.067 198.821 201.02 197.42 201.907 196.486C202.794 195.599 204.195 195.552 205.129 196.393C206.017 197.28 206.063 198.681 205.223 199.615C204.756 200.082 204.195 200.315 203.588 200.315C202.935 200.315 202.374 200.128 201.954 199.708ZM45.7962 199.335C44.9556 198.447 44.9556 197 45.8896 196.112C46.7768 195.272 48.2245 195.272 49.1117 196.206C49.9523 197.093 49.9523 198.541 49.0183 199.428C48.598 199.848 48.0377 200.035 47.4773 200.035C46.8702 200.035 46.2632 199.801 45.7962 199.335ZM208.865 192.096C207.885 191.302 207.698 189.902 208.492 188.921C209.285 187.94 210.686 187.753 211.667 188.547C212.648 189.341 212.834 190.742 212.041 191.723C211.574 192.283 210.92 192.563 210.266 192.563C209.752 192.563 209.285 192.423 208.865 192.096ZM38.9316 191.443C38.1377 190.462 38.3245 189.014 39.3052 188.267C40.2858 187.473 41.7335 187.66 42.4806 188.641C43.2745 189.621 43.0877 191.069 42.107 191.816C41.6868 192.143 41.1731 192.283 40.7061 192.283C40.0523 192.283 39.3986 192.003 38.9316 191.443ZM215.029 183.878C214.002 183.177 213.675 181.776 214.376 180.749C215.076 179.721 216.477 179.395 217.504 180.095C218.532 180.749 218.859 182.196 218.158 183.224C217.738 183.878 216.991 184.251 216.243 184.251C215.823 184.251 215.403 184.111 215.029 183.878ZM32.8609 182.897C32.2071 181.87 32.4873 180.422 33.5613 179.768C34.6354 179.068 36.0363 179.395 36.6901 180.469C37.3439 181.543 37.0637 182.944 35.9896 183.597C35.616 183.831 35.1958 183.971 34.7755 183.971C34.0283 183.924 33.3278 183.551 32.8609 182.897ZM220.353 175.098C219.232 174.538 218.812 173.137 219.372 172.063C219.933 170.942 221.333 170.522 222.408 171.082C223.528 171.643 223.949 173.044 223.388 174.118C222.968 174.912 222.174 175.332 221.38 175.332C221.053 175.378 220.68 175.285 220.353 175.098ZM27.6307 173.791C27.0703 172.67 27.4906 171.316 28.6114 170.755C29.7321 170.195 31.0863 170.615 31.6467 171.736C32.2071 172.857 31.7868 174.211 30.6661 174.771C30.3392 174.958 29.9656 175.005 29.6387 175.005C28.8449 175.052 28.051 174.585 27.6307 173.791ZM224.836 165.852C223.668 165.385 223.108 164.078 223.575 162.91C224.042 161.743 225.35 161.182 226.517 161.649C227.684 162.116 228.245 163.424 227.778 164.591C227.404 165.479 226.564 165.992 225.676 165.992C225.396 166.039 225.116 165.992 224.836 165.852ZM23.2878 164.264C22.8208 163.097 23.3812 161.789 24.5486 161.322C25.7161 160.855 27.0236 161.416 27.4906 162.583C27.9576 163.751 27.3972 165.058 26.2298 165.525C25.9496 165.619 25.6694 165.665 25.3892 165.665C24.5019 165.712 23.6614 165.152 23.2878 164.264ZM228.432 156.279C227.217 155.905 226.564 154.645 226.891 153.477C227.264 152.263 228.525 151.609 229.692 151.936C230.907 152.31 231.56 153.571 231.233 154.738C230.953 155.719 230.019 156.372 229.085 156.372C228.852 156.372 228.618 156.326 228.432 156.279ZM19.8789 154.364C19.552 153.15 20.2057 151.889 21.4199 151.563C22.634 151.236 23.8949 151.889 24.2218 153.104C24.5953 154.318 23.8949 155.579 22.6807 155.905C22.4939 155.952 22.2604 155.999 22.027 155.999C21.093 155.999 20.159 155.345 19.8789 154.364ZM231.047 146.332C229.833 146.099 228.992 144.885 229.272 143.671C229.506 142.456 230.72 141.663 231.934 141.896C233.148 142.13 233.942 143.344 233.708 144.558C233.522 145.632 232.541 146.379 231.467 146.379C231.374 146.379 231.187 146.379 231.047 146.332ZM17.4506 144.184C17.2171 142.97 18.0109 141.756 19.2718 141.523C20.4859 141.289 21.7001 142.083 21.9336 143.344C22.1671 144.558 21.3732 145.772 20.1123 146.006C19.9723 146.052 19.8322 146.052 19.6921 146.052C18.5713 146.006 17.6374 145.258 17.4506 144.184ZM232.728 136.199C231.467 136.059 230.58 134.985 230.673 133.724C230.813 132.463 231.887 131.576 233.148 131.669C234.409 131.809 235.296 132.883 235.203 134.144C235.109 135.312 234.082 136.199 232.961 136.199C232.915 136.246 232.821 136.246 232.728 136.199ZM15.9562 133.817C15.8161 132.557 16.7501 131.482 18.0109 131.342C19.2718 131.249 20.3458 132.136 20.4859 133.397C20.626 134.658 19.6921 135.732 18.4312 135.872C18.3378 135.872 18.2911 135.872 18.1977 135.872C17.077 135.872 16.0963 134.985 15.9562 133.817ZM233.475 125.972C232.214 125.972 231.187 124.945 231.233 123.684C231.233 123.637 231.233 123.591 231.233 123.544C231.233 123.497 231.233 123.45 231.233 123.404C231.233 122.143 232.261 121.116 233.522 121.116C234.782 121.116 235.81 122.143 235.81 123.404C235.81 123.45 235.81 123.497 235.81 123.544C235.81 123.591 235.81 123.637 235.81 123.684C235.716 124.991 234.736 125.972 233.475 125.972ZM17.7775 125.599C16.5166 125.599 15.4893 124.571 15.4893 123.31C15.4893 122.049 16.5166 121.022 17.7775 121.022C19.0383 121.022 20.019 122.049 20.019 123.31C20.019 124.618 18.9916 125.599 17.7775 125.599ZM230.72 113.41C230.58 112.15 231.514 111.075 232.774 110.935C234.035 110.842 235.109 111.729 235.249 112.99C235.39 114.251 234.456 115.325 233.195 115.465C233.101 115.465 233.055 115.465 232.961 115.465C231.841 115.512 230.86 114.625 230.72 113.41ZM18.0576 115.372C16.7968 115.232 15.9095 114.158 16.0029 112.897C16.143 111.636 17.2171 110.749 18.4779 110.842C19.7388 110.982 20.626 112.056 20.5326 113.317C20.4392 114.484 19.4119 115.372 18.2911 115.372C18.1977 115.372 18.1043 115.372 18.0576 115.372ZM229.319 103.51C229.085 102.296 229.879 101.082 231.093 100.849C232.307 100.615 233.522 101.409 233.755 102.67C233.989 103.884 233.195 105.098 231.934 105.332C231.794 105.378 231.654 105.378 231.514 105.378C230.486 105.332 229.506 104.584 229.319 103.51ZM19.2718 105.145C18.0576 104.911 17.2171 103.697 17.4973 102.483C17.7308 101.269 18.8982 100.475 20.159 100.709C21.3732 100.942 22.2138 102.156 21.9336 103.37C21.7468 104.444 20.7661 105.192 19.6921 105.192C19.552 105.192 19.4119 105.192 19.2718 105.145ZM226.937 93.7039C226.564 92.4897 227.264 91.2289 228.478 90.902C229.692 90.5284 230.953 91.2289 231.28 92.443C231.654 93.6572 230.953 94.918 229.739 95.2449C229.506 95.2916 229.319 95.3383 229.085 95.3383C228.151 95.3383 227.264 94.7312 226.937 93.7039ZM21.5133 95.1515C20.2991 94.7779 19.5987 93.5171 19.9723 92.3496C20.3458 91.1355 21.6067 90.4817 22.7741 90.8086C23.9883 91.1822 24.642 92.443 24.3152 93.6105C24.035 94.5911 23.1477 95.2449 22.1671 95.2449C21.9336 95.2449 21.7001 95.1982 21.5133 95.1515ZM223.668 84.2242C223.201 83.0567 223.762 81.7492 224.929 81.2822C226.097 80.8152 227.404 81.3756 227.871 82.5431C228.338 83.7105 227.778 85.0181 226.61 85.485C226.33 85.5784 226.05 85.6718 225.77 85.6718C224.883 85.6718 224.042 85.1114 223.668 84.2242ZM24.642 85.3916C23.4746 84.9247 22.9142 83.6171 23.3812 82.4497C23.8482 81.2822 25.1557 80.7218 26.3232 81.1888C27.4906 81.6558 28.051 82.9633 27.584 84.1308C27.2104 85.0181 26.3699 85.5317 25.4826 85.5317C25.2024 85.5317 24.9222 85.485 24.642 85.3916ZM219.512 75.1181C218.952 73.9973 219.372 72.6431 220.493 72.0827C221.614 71.5224 222.968 71.9426 223.528 73.0634C224.089 74.1841 223.668 75.5384 222.548 76.0988C222.221 76.2855 221.847 76.3322 221.52 76.3322C220.68 76.3322 219.886 75.8653 219.512 75.1181ZM28.7515 75.9587C27.6307 75.3983 27.2104 73.9973 27.7708 72.9233C28.3312 71.8025 29.7321 71.3823 30.8062 71.9426C31.9269 72.503 32.3472 73.9039 31.7868 74.978C31.3665 75.7719 30.5727 76.1921 29.7788 76.1921C29.4052 76.2388 29.0783 76.1454 28.7515 75.9587ZM214.469 66.3856C213.815 65.3115 214.095 63.9106 215.169 63.2568C216.243 62.5564 217.644 62.8832 218.298 63.9573C218.952 64.9846 218.672 66.4323 217.598 67.0861C217.224 67.3195 216.804 67.4596 216.384 67.4596C215.636 67.4596 214.889 67.0861 214.469 66.3856ZM33.7014 66.9927C32.6741 66.3389 32.3472 64.8913 33.0477 63.8639C33.7481 62.8365 35.1491 62.5097 36.1764 63.2101C37.2505 63.9106 37.5307 65.3115 36.8302 66.3389C36.4099 66.9927 35.6627 67.3662 34.9156 67.3662C34.4953 67.3195 34.075 67.2261 33.7014 66.9927ZM208.632 58.2135C207.838 57.2328 208.025 55.7852 209.005 55.038C209.986 54.2441 211.434 54.4309 212.181 55.4116C212.975 56.3922 212.788 57.8399 211.807 58.587C211.387 58.9139 210.873 59.054 210.406 59.054C209.752 59.1007 209.099 58.7738 208.632 58.2135ZM39.492 58.4936C38.5113 57.6998 38.3245 56.2988 39.1184 55.3182C39.9122 54.3375 41.3132 54.1507 42.2938 54.9446C43.2745 55.7385 43.4613 57.1394 42.6674 58.1201C42.2004 58.6804 41.5467 58.9606 40.8929 58.9606C40.3792 59.0073 39.9122 58.8205 39.492 58.4936ZM202.047 50.6017C201.16 49.7144 201.207 48.2668 202.141 47.3795C203.028 46.4923 204.476 46.539 205.363 47.4729C206.203 48.3602 206.203 49.8078 205.269 50.6951C204.849 51.1154 204.289 51.3022 203.682 51.3022C203.075 51.3489 202.514 51.1154 202.047 50.6017ZM46.0297 50.6017C45.1424 49.7144 45.0957 48.3135 45.9363 47.3795C46.8235 46.4923 48.2245 46.4456 49.1584 47.2861C50.0457 48.1734 50.0924 49.5743 49.2518 50.5083C48.7848 50.9753 48.2245 51.2088 47.6174 51.2088C47.057 51.2555 46.4966 51.022 46.0297 50.6017ZM194.762 43.6904C193.828 42.8965 193.735 41.4489 194.529 40.5149C195.369 39.581 196.77 39.4876 197.704 40.2815C198.638 41.122 198.732 42.523 197.938 43.5036C197.471 44.0173 196.864 44.2975 196.21 44.2975C195.743 44.2508 195.229 44.064 194.762 43.6904ZM53.3145 43.3635C52.5207 42.4296 52.6141 40.9819 53.548 40.1881C54.482 39.3942 55.9296 39.4876 56.7235 40.4215C57.564 41.3555 57.4239 42.8031 56.49 43.597C56.0697 43.9706 55.5093 44.1574 54.9957 44.1574C54.4353 44.1574 53.7815 43.9239 53.3145 43.3635ZM186.87 37.4796C185.843 36.7324 185.61 35.3315 186.357 34.3041C187.104 33.2768 188.505 33.0433 189.532 33.7904C190.56 34.5376 190.793 35.9386 190.046 36.9659C189.626 37.573 188.925 37.8999 188.178 37.8999C187.758 37.8999 187.291 37.7598 186.87 37.4796ZM61.2532 36.8725C60.506 35.8452 60.7395 34.4442 61.7669 33.6971C62.7942 32.9499 64.1951 33.2301 64.9423 34.2107C65.6895 35.2381 65.4093 36.639 64.4286 37.3862C64.055 37.6664 63.5881 37.8065 63.1211 37.8065C62.4206 37.8065 61.7202 37.4796 61.2532 36.8725ZM178.465 32.0159C177.391 31.4089 177.017 30.0079 177.624 28.9339C178.231 27.8598 179.632 27.4862 180.706 28.0933C181.78 28.7004 182.154 30.1013 181.547 31.1754C181.127 31.9225 180.379 32.2961 179.586 32.2961C179.212 32.3428 178.792 32.2494 178.465 32.0159ZM69.7989 31.1287C69.1918 30.0546 69.5654 28.6537 70.6395 28.0466C71.7135 27.4395 73.1144 27.8131 73.7215 28.8872C74.3286 29.9612 73.955 31.3622 72.8809 31.9692C72.5074 32.156 72.1338 32.2961 71.7602 32.2961C70.9663 32.2494 70.2192 31.8758 69.7989 31.1287ZM169.499 27.3928C168.378 26.8792 167.864 25.5249 168.378 24.4042C168.892 23.2834 170.246 22.7697 171.367 23.2834C172.488 23.7971 173.001 25.1513 172.488 26.2721C172.114 27.1126 171.273 27.5796 170.433 27.5796C170.153 27.6263 169.826 27.5329 169.499 27.3928ZM78.8116 26.2254C78.2979 25.1046 78.8116 23.7504 79.9323 23.2367C81.0531 22.723 82.4073 23.2367 82.921 24.3575C83.4347 25.4782 82.921 26.8325 81.8002 27.3461C81.4734 27.4862 81.1932 27.5329 80.8663 27.5329C80.0257 27.5796 79.1852 27.066 78.8116 26.2254ZM160.206 23.657C159.039 23.2367 158.385 21.9759 158.805 20.7617C159.225 19.5943 160.533 18.9405 161.7 19.3608C162.868 19.7811 163.522 21.0886 163.101 22.2561C162.774 23.19 161.887 23.7971 160.953 23.7971C160.673 23.7971 160.439 23.7504 160.206 23.657ZM88.2446 22.2561C87.8243 21.0886 88.478 19.7811 89.6455 19.3608C90.8129 18.9405 92.1205 19.5943 92.5408 20.7617C92.961 21.9292 92.3073 23.2367 91.1398 23.657C90.9063 23.7504 90.6261 23.7971 90.3927 23.7971C89.4587 23.7504 88.5714 23.19 88.2446 22.2561ZM150.54 20.8551C149.325 20.5749 148.578 19.3141 148.858 18.1C149.139 16.8858 150.399 16.1386 151.614 16.4188C152.828 16.699 153.575 17.9599 153.295 19.174C153.061 20.2014 152.127 20.9018 151.1 20.9018C150.913 20.9018 150.726 20.9018 150.54 20.8551ZM98.0511 19.1273C97.7709 17.9132 98.5181 16.699 99.7322 16.3721C100.946 16.0919 102.161 16.8391 102.487 18.0533C102.768 19.2674 102.02 20.4815 100.806 20.8084C100.619 20.8551 100.433 20.8551 100.293 20.8551C99.2186 20.9018 98.2846 20.2014 98.0511 19.1273ZM140.686 18.9405C139.425 18.7537 138.585 17.633 138.772 16.3721C138.958 15.1113 140.079 14.2707 141.34 14.4575C142.601 14.6443 143.441 15.7651 143.255 17.0259C143.115 18.1467 142.134 18.9872 141.013 18.9872C140.92 18.9872 140.826 18.9405 140.686 18.9405ZM108.091 17.0259C107.904 15.7651 108.792 14.6443 110.006 14.4575C111.267 14.2707 112.387 15.158 112.574 16.3721C112.761 17.633 111.874 18.7537 110.66 18.9405C110.566 18.9405 110.473 18.9405 110.333 18.9405C109.212 18.9405 108.231 18.1467 108.091 17.0259ZM130.693 18.0066C129.432 17.9599 128.498 16.8858 128.545 15.625C128.592 14.3641 129.666 13.3835 130.926 13.4769C132.187 13.5236 133.121 14.5976 133.075 15.8585C133.028 17.0726 132 18.0066 130.786 18.0066C130.786 18.0066 130.74 18.0066 130.693 18.0066ZM118.271 15.8585C118.225 14.5976 119.205 13.5236 120.419 13.4769C121.68 13.4302 122.754 14.3641 122.801 15.625C122.848 16.8858 121.914 17.9599 120.653 18.0066C120.606 18.0066 120.606 18.0066 120.559 18.0066C119.345 18.0066 118.318 17.0259 118.271 15.8585Z" fill="#7300BE"/>
</svg>
