<svg width="250" height="250" viewBox="0 0 250 250" fill="none" xmlns="http://www.w3.org/2000/svg">
<g clip-path="url(#clip0_242_94684)">
<path d="M125 250.002C194.036 250.002 250 194.038 250 125.002C250 55.9664 194.036 0.00195312 125 0.00195312C55.9644 0.00195312 0 55.9664 0 125.002C0 194.038 55.9644 250.002 125 250.002Z" fill="#EDF0F4"/>
<path d="M125 208.335C169.873 208.335 206.25 171.492 206.25 126.043C206.25 80.5951 169.873 43.752 125 43.752C80.1269 43.752 43.75 80.5951 43.75 126.043C43.75 171.492 80.1269 208.335 125 208.335Z" fill="white"/>
<path fill-rule="evenodd" clip-rule="evenodd" d="M126.337 208.335C171.17 208.335 208.333 171.304 208.333 126.043C208.333 80.7829 171.169 43.752 125.746 43.752C80.914 43.752 43.75 80.1954 43.75 126.043C43.75 171.304 80.914 208.335 126.337 208.335ZM53.1885 126.043C53.1885 86.661 86.2235 53.1565 125.747 53.1565C165.271 53.1565 198.895 86.073 198.305 126.043C198.305 165.425 165.271 198.342 125.747 198.342C86.2235 198.342 53.1885 165.425 53.1885 126.043Z" fill="#F9C910"/>
<path d="M73.2447 155.435C62.6262 137.213 62.6262 111.35 75.0142 92.5405L95.6612 113.114C95.6612 113.114 92.1217 121.343 93.8912 130.16L86.8127 138.389C82.6832 127.221 85.6327 114.877 85.6327 114.877L77.9642 108.411C70.2952 130.16 79.7337 147.794 79.7337 147.794L73.2447 155.435Z" fill="#F9C910"/>
<path d="M178.838 95.4775C189.456 113.7 189.456 139.563 177.068 158.372L156.422 137.799C156.422 137.799 159.961 129.57 158.191 120.753L165.27 112.524C169.4 123.692 166.45 136.036 166.45 136.036L174.119 143.677C181.788 121.929 172.349 104.295 172.349 104.295L178.838 95.4775Z" fill="#F9C910"/>
<path fill-rule="evenodd" clip-rule="evenodd" d="M117.488 157.194L174.119 87.834C152.293 58.444 102.741 57.2685 80.3243 85.483L99.7913 105.468C113.949 86.6585 134.595 93.712 134.595 93.712L77.9648 163.072C106.87 197.752 154.062 188.348 171.759 164.836L152.293 145.438C136.955 164.248 117.488 157.194 117.488 157.194ZM99.7908 92.5355L93.3018 86.0695C116.308 67.26 146.393 73.1381 161.731 89.0085L102.74 160.72C102.74 160.72 125.157 177.766 152.292 158.369L158.781 164.835C141.084 180.705 110.999 181.881 90.3523 162.484L148.753 90.772C148.753 90.772 125.157 73.726 99.7908 92.5355Z" fill="#ED1C24"/>
</g>
<defs>
<clipPath id="clip0_242_94684">
<rect width="250" height="250" fill="white"/>
</clipPath>
</defs>
</svg>
