<svg width="250" height="250" viewBox="0 0 250 250" fill="none" xmlns="http://www.w3.org/2000/svg">
<rect width="250" height="250" rx="125" fill="white"/>
<path d="M68.9991 48.0755V70.9655C68.9991 72.2605 70.0491 73.2755 71.3091 73.2755H128.954L38.6191 163.575H80.6541L170.989 73.2405V73.2055C173.964 70.2655 175.854 66.2405 175.854 61.7255C175.854 53.3255 169.379 46.4305 161.154 45.8005V45.7305H159.859H71.3791C70.0491 45.7305 68.9991 46.7805 68.9991 48.0755Z" fill="#1111FF"/>
<path d="M180.929 201.936V179.046C180.929 177.751 179.879 176.736 178.619 176.736H121.044L211.379 86.4009H169.274L78.9392 176.771V176.841C75.9642 179.781 74.0742 183.806 74.0742 188.321C74.0742 196.721 80.5492 203.616 88.7742 204.246V204.316H90.0692H178.619C179.879 204.316 180.929 203.231 180.929 201.936Z" fill="#1111FF"/>
</svg>
