<svg width="250" height="250" viewBox="0 0 250 250" fill="none" xmlns="http://www.w3.org/2000/svg">
<rect width="250" height="250" rx="125" fill="white"/>
<path d="M112.066 225.456C95.3293 223.437 78.3802 216.53 64.0877 205.904C59.8372 202.769 48.6263 192.302 47.7231 190.602C47.1918 189.592 47.0324 189.858 59.0402 173.919C69.9854 159.307 69.9322 159.36 70.623 160.423C75.2454 168.074 85.128 177.106 94.7449 182.366L97.3483 183.801L101.652 179.55C109.675 171.581 113.872 167.861 114.457 168.287C114.722 168.552 125.296 176.097 137.835 185.129C150.427 194.109 164.082 203.938 168.226 206.913C173.805 210.845 175.612 212.439 175.133 212.864C173.911 213.821 165.995 217.593 161 219.559C146.495 225.297 128.431 227.476 112.066 225.456ZM180.553 195.809C168.279 186.83 159.938 180.347 159.885 179.922C159.885 179.763 161.425 178.488 163.285 177.16C170.192 172.218 176.781 164.78 181.669 156.226L183.953 152.294L181.616 149.85C180.34 148.468 176.621 144.59 173.327 141.242L167.376 135.132L174.762 125.303C203.134 87.6853 212.326 75.6775 212.804 75.5181C213.123 75.4119 214.504 77.5371 215.833 80.2469C235.385 119.936 226.884 167.224 194.686 198.2C192.348 200.484 190.223 202.344 189.904 202.344C189.639 202.344 185.388 199.422 180.553 195.809ZM34.2807 170.146C22.1666 145.599 20.2007 118.714 28.7018 93.1579C32.3148 82.2659 37.4686 72.5427 44.6414 63.0321C47.8825 58.7284 58.9871 47.1988 59.8372 47.1988C60.5279 47.2519 89.4317 69.1954 89.5911 69.7799C89.6442 70.0987 88.4753 71.1613 86.9345 72.1708C83.4809 74.5086 75.7768 82.1065 72.9608 85.9851C70.0916 89.9169 66.3724 96.2396 66.3724 97.196C66.3724 97.621 70.0916 101.659 74.6078 106.175C79.1241 110.691 82.8433 114.623 82.8433 114.836C82.8433 115.101 76.3612 123.815 68.3914 134.229C39.9127 171.581 37.0967 175.247 36.9373 175.247C36.831 175.247 35.6621 172.962 34.2807 170.146ZM177.737 87.3134C173.327 80.6188 163.657 72.0114 156.006 67.9203L152.552 66.1138L143.733 74.5086L134.913 82.9035L127.899 77.6965C124.021 74.7743 110.259 64.5198 97.2952 54.7967L73.7046 37.1569L80.2398 33.9689C105.849 21.5892 133.637 20.1546 159.619 29.7715C170.405 33.7564 180.234 39.3353 189.107 46.5081C193.198 49.8023 202.39 59.0472 202.39 59.8442C202.39 60.5349 180.34 90.2357 179.862 90.2357C179.756 90.2357 178.8 88.9074 177.737 87.3134Z" fill="black"/>
</svg>
